<?xml version="1.0" encoding="UTF-8"?>
<!DOCTYPE svg PUBLIC "-//W3C//DTD SVG 1.1//EN" "http://www.w3.org/Graphics/SVG/1.1/DTD/svg11.dtd">
<svg xmlns="http://www.w3.org/2000/svg" version="1.1" width="96px" height="100px" style="shape-rendering:geometricPrecision; text-rendering:geometricPrecision; image-rendering:optimizeQuality; fill-rule:evenodd; clip-rule:evenodd" xmlns:xlink="http://www.w3.org/1999/xlink">
<g><path style="opacity:0.945" fill="#514843" d="M 18.5,-0.5 C 22.5,-0.5 26.5,-0.5 30.5,-0.5C 30.7373,0.791047 30.404,1.79105 29.5,2.5C 28.4855,1.23532 26.9855,0.568651 25,0.5C 22.7841,0.65272 20.6175,0.986053 18.5,1.5C 17.8333,1.83333 17.1667,2.16667 16.5,2.5C 16.7822,1.22235 17.4489,0.222348 18.5,-0.5 Z"/></g>
<g><path style="opacity:1" fill="#c69e84" d="M 29.5,2.5 C 29.1667,2.5 28.8333,2.5 28.5,2.5C 26.4021,1.51552 24.4021,1.84885 22.5,3.5C 21.0048,3.01131 19.6715,2.34464 18.5,1.5C 20.6175,0.986053 22.7841,0.65272 25,0.5C 26.9855,0.568651 28.4855,1.23532 29.5,2.5 Z"/></g>
<g><path style="opacity:1" fill="#a07363" d="M 28.5,2.5 C 27.2485,4.00087 26.2485,5.66754 25.5,7.5C 24.5,7.5 23.5,7.5 22.5,7.5C 23.463,6.6365 23.463,5.96983 22.5,5.5C 21.1482,6.52435 19.8149,7.52435 18.5,8.5C 18.5,8.16667 18.5,7.83333 18.5,7.5C 19.5274,5.80584 20.8608,4.4725 22.5,3.5C 24.4021,1.84885 26.4021,1.51552 28.5,2.5 Z"/></g>
<g><path style="opacity:0.078" fill="#2d2e27" d="M 64.5,6.5 C 62.7163,5.28006 61.0496,5.28006 59.5,6.5C 59.1667,6.5 58.8333,6.5 58.5,6.5C 57.8333,6.83333 57.1667,7.16667 56.5,7.5C 55.5084,7.32842 54.8417,7.66175 54.5,8.5C 53.8333,8.5 53.1667,8.5 52.5,8.5C 50.5,8.83333 48.5,9.16667 46.5,9.5C 50.0381,7.85599 53.7047,6.35599 57.5,5C 58.6667,4.83333 59.8333,4.66667 61,4.5C 62.6811,4.60826 63.8478,5.27493 64.5,6.5 Z"/></g>
<g><path style="opacity:0.855" fill="#232324" d="M 16.5,2.5 C 16.6713,5.79731 16.0046,6.13065 14.5,3.5C 10.1566,6.14554 8.82328,9.81221 10.5,14.5C 10.1667,14.5 9.83333,14.5 9.5,14.5C 8.65225,13.375 7.65225,13.375 6.5,14.5C 7.60934,10.0909 9.60934,6.09091 12.5,2.5C 13.6998,1.7084 15.0331,1.7084 16.5,2.5 Z"/></g>
<g><path style="opacity:1" fill="#976a62" d="M 22.5,7.5 C 23.5,7.5 24.5,7.5 25.5,7.5C 25.5,7.83333 25.5,8.16667 25.5,8.5C 24.8826,8.61071 24.3826,8.94404 24,9.5C 23.0551,13.1141 22.3884,16.7808 22,20.5C 21.6667,19.5 21.3333,18.5 21,17.5C 19.9609,18.7101 18.7942,19.7101 17.5,20.5C 17.414,16.6814 18.0807,13.0148 19.5,9.5C 20.5,8.83333 21.5,8.16667 22.5,7.5 Z"/></g>
<g><path style="opacity:0.267" fill="#131617" d="M 28.5,2.5 C 28.8333,2.5 29.1667,2.5 29.5,2.5C 28.6597,4.85254 27.3264,6.85254 25.5,8.5C 25.5,8.16667 25.5,7.83333 25.5,7.5C 26.2485,5.66754 27.2485,4.00087 28.5,2.5 Z"/></g>
<g><path style="opacity:0.824" fill="#1d2723" d="M 64.5,6.5 C 66.2413,8.39488 67.2413,10.7282 67.5,13.5C 65.7587,11.6051 64.7587,9.27179 64.5,6.5 Z"/></g>
<g><path style="opacity:1" fill="#be9b83" d="M 18.5,1.5 C 19.6715,2.34464 21.0048,3.01131 22.5,3.5C 20.8608,4.4725 19.5274,5.80584 18.5,7.5C 13.1845,7.49736 11.1845,10.164 12.5,15.5C 11.5084,15.6716 10.8417,15.3382 10.5,14.5C 8.82328,9.81221 10.1566,6.14554 14.5,3.5C 16.0046,6.13065 16.6713,5.79731 16.5,2.5C 17.1667,2.16667 17.8333,1.83333 18.5,1.5 Z"/></g>
<g><path style="opacity:0.176" fill="#17191c" d="M 46.5,9.5 C 45.5,10.1667 44.5,10.8333 43.5,11.5C 41.7162,11.8925 40.0495,12.5592 38.5,13.5C 38.4142,12.5041 38.7476,11.6708 39.5,11C 41.74,10.023 44.0733,9.52304 46.5,9.5 Z"/></g>
<g><path style="opacity:1" fill="#e8741c" d="M 58.5,6.5 C 58.5,7.16667 58.5,7.83333 58.5,8.5C 58.2865,10.1439 58.6198,11.6439 59.5,13C 58.6919,13.3076 58.0253,13.8076 57.5,14.5C 58.6302,15.6223 59.2969,16.9557 59.5,18.5C 59.1667,18.5 58.8333,18.5 58.5,18.5C 56.6764,15.1538 56.0097,11.4872 56.5,7.5C 57.1667,7.16667 57.8333,6.83333 58.5,6.5 Z"/></g>
<g><path style="opacity:1" fill="#8f1b3d" d="M 64.5,6.5 C 64.7587,9.27179 65.7587,11.6051 67.5,13.5C 67.2865,15.1439 67.6198,16.6439 68.5,18C 67.2068,18.49 65.8734,18.6567 64.5,18.5C 64.6567,17.1266 64.49,15.7932 64,14.5C 63.79,16.0581 63.29,17.3915 62.5,18.5C 63.1149,14.0088 62.1149,10.0088 59.5,6.5C 61.0496,5.28006 62.7163,5.28006 64.5,6.5 Z"/></g>
<g><path style="opacity:1" fill="#a57a67" d="M 18.5,7.5 C 18.5,7.83333 18.5,8.16667 18.5,8.5C 14.8132,9.87415 13.1466,12.5408 13.5,16.5C 12.8333,16.5 12.5,16.1667 12.5,15.5C 11.1845,10.164 13.1845,7.49736 18.5,7.5 Z"/></g>
<g><path style="opacity:1" fill="#8b5c57" d="M 22.5,7.5 C 21.5,8.16667 20.5,8.83333 19.5,9.5C 17.4284,11.3495 16.0951,13.6829 15.5,16.5C 14.8333,17.5 14.1667,18.5 13.5,19.5C 13.5,18.5 13.5,17.5 13.5,16.5C 13.1466,12.5408 14.8132,9.87415 18.5,8.5C 19.8149,7.52435 21.1482,6.52435 22.5,5.5C 23.463,5.96983 23.463,6.6365 22.5,7.5 Z"/></g>
<g><path style="opacity:1" fill="#f4c639" d="M 52.5,8.5 C 52.4226,9.74975 51.756,10.5831 50.5,11C 51.2524,11.6708 51.5858,12.5041 51.5,13.5C 50.9569,13.56 50.6236,13.8933 50.5,14.5C 51.1799,15.8599 51.8466,17.1932 52.5,18.5C 51.8333,18.5 51.1667,18.5 50.5,18.5C 49.3548,16.2883 48.3548,13.955 47.5,11.5C 46.8165,11.8627 46.1499,12.1961 45.5,12.5C 45.1583,11.6618 44.4916,11.3284 43.5,11.5C 44.5,10.8333 45.5,10.1667 46.5,9.5C 48.5,9.16667 50.5,8.83333 52.5,8.5 Z"/></g>
<g><path style="opacity:1" fill="#e87c1e" d="M 52.5,8.5 C 53.1667,8.5 53.8333,8.5 54.5,8.5C 54.2739,11.2492 54.6072,13.9159 55.5,16.5C 55.1667,16.8333 54.8333,17.1667 54.5,17.5C 53.4793,16.0986 52.4793,14.7653 51.5,13.5C 51.5858,12.5041 51.2524,11.6708 50.5,11C 51.756,10.5831 52.4226,9.74975 52.5,8.5 Z"/></g>
<g><path style="opacity:1" fill="#f1c73b" d="M 43.5,11.5 C 44.4916,11.3284 45.1583,11.6618 45.5,12.5C 45.5,14.1667 45.5,15.8333 45.5,17.5C 45.0623,18.5063 44.3957,18.5063 43.5,17.5C 43.5,16.5 43.5,15.5 43.5,14.5C 42.5,14.5 41.5,14.5 40.5,14.5C 41.1667,17.1667 41.8333,19.8333 42.5,22.5C 41.8333,22.1667 41.1667,21.8333 40.5,21.5C 40.5979,19.4471 39.9313,17.7804 38.5,16.5C 38.5,15.5 38.5,14.5 38.5,13.5C 40.0495,12.5592 41.7162,11.8925 43.5,11.5 Z"/></g>
<g><path style="opacity:1" fill="#ee831d" d="M 50.5,18.5 C 50.44,19.0431 50.1067,19.3764 49.5,19.5C 48.1401,18.8201 46.8068,18.1534 45.5,17.5C 45.5,15.8333 45.5,14.1667 45.5,12.5C 46.1499,12.1961 46.8165,11.8627 47.5,11.5C 48.3548,13.955 49.3548,16.2883 50.5,18.5 Z"/></g>
<g><path style="opacity:0.857" fill="#69622b" d="M 79.5,16.5 C 76.9407,16.1984 74.6074,16.5318 72.5,17.5C 71.8333,17.5 71.1667,17.5 70.5,17.5C 70.6107,16.8826 70.944,16.3826 71.5,16C 74.367,15.1993 77.0336,15.3659 79.5,16.5 Z"/></g>
<g><path style="opacity:1" fill="#ac856d" d="M 9.5,14.5 C 9.83333,14.5 10.1667,14.5 10.5,14.5C 10.8417,15.3382 11.5084,15.6716 12.5,15.5C 12.5,16.1667 12.8333,16.5 13.5,16.5C 13.5,17.5 13.5,18.5 13.5,19.5C 13.5,19.8333 13.5,20.1667 13.5,20.5C 12.4625,21.9303 11.7959,23.597 11.5,25.5C 10.8333,25.5 10.1667,25.5 9.5,25.5C 9.16667,24.8333 8.83333,24.1667 8.5,23.5C 8.26414,20.3915 8.59748,17.3915 9.5,14.5 Z"/></g>
<g><path style="opacity:1" fill="#643e41" d="M 19.5,9.5 C 18.0807,13.0148 17.414,16.6814 17.5,20.5C 17.5,21.1667 17.5,21.8333 17.5,22.5C 16.8333,22.5 16.5,22.8333 16.5,23.5C 15.5318,21.3926 15.1984,19.0593 15.5,16.5C 16.0951,13.6829 17.4284,11.3495 19.5,9.5 Z"/></g>
<g><path style="opacity:1" fill="#f6bd2e" d="M 58.5,6.5 C 58.8333,6.5 59.1667,6.5 59.5,6.5C 62.1149,10.0088 63.1149,14.0088 62.5,18.5C 62.6716,19.4916 62.3382,20.1583 61.5,20.5C 61.0207,16.3596 60.0207,12.3596 58.5,8.5C 58.5,7.83333 58.5,7.16667 58.5,6.5 Z"/></g>
<g><path style="opacity:1" fill="#fad72e" d="M 72.5,17.5 C 74.6074,16.5318 76.9407,16.1984 79.5,16.5C 79.5,17.1667 79.5,17.8333 79.5,18.5C 77.283,17.6314 74.9496,17.298 72.5,17.5 Z"/></g>
<g><path style="opacity:0.243" fill="#181c22" d="M 38.5,16.5 C 39.9313,17.7804 40.5979,19.4471 40.5,21.5C 39.0687,20.2196 38.4021,18.5529 38.5,16.5 Z"/></g>
<g><path style="opacity:1" fill="#f9af21" d="M 56.5,7.5 C 56.0097,11.4872 56.6764,15.1538 58.5,18.5C 57.4863,19.6737 56.153,20.3404 54.5,20.5C 54.1667,19.5 53.5,18.8333 52.5,18.5C 51.8466,17.1932 51.1799,15.8599 50.5,14.5C 50.6236,13.8933 50.9569,13.56 51.5,13.5C 52.4793,14.7653 53.4793,16.0986 54.5,17.5C 54.8333,17.1667 55.1667,16.8333 55.5,16.5C 54.6072,13.9159 54.2739,11.2492 54.5,8.5C 54.8417,7.66175 55.5084,7.32842 56.5,7.5 Z"/></g>
<g><path style="opacity:1" fill="#f9961f" d="M 58.5,8.5 C 60.0207,12.3596 61.0207,16.3596 61.5,20.5C 61.5,20.8333 61.5,21.1667 61.5,21.5C 60.8826,21.6107 60.3826,21.944 60,22.5C 59.51,21.2068 59.3433,19.8734 59.5,18.5C 59.2969,16.9557 58.6302,15.6223 57.5,14.5C 58.0253,13.8076 58.6919,13.3076 59.5,13C 58.6198,11.6439 58.2865,10.1439 58.5,8.5 Z"/></g>
<g><path style="opacity:1" fill="#4e1536" d="M 67.5,13.5 C 68.5,14.8333 69.5,16.1667 70.5,17.5C 70.1667,18.1667 69.8333,18.8333 69.5,19.5C 67.9991,20.7515 66.3325,21.7515 64.5,22.5C 63.5,22.5 62.5,22.5 61.5,22.5C 61.5,22.1667 61.5,21.8333 61.5,21.5C 61.5,21.1667 61.5,20.8333 61.5,20.5C 62.3382,20.1583 62.6716,19.4916 62.5,18.5C 63.29,17.3915 63.79,16.0581 64,14.5C 64.49,15.7932 64.6567,17.1266 64.5,18.5C 65.8734,18.6567 67.2068,18.49 68.5,18C 67.6198,16.6439 67.2865,15.1439 67.5,13.5 Z"/></g>
<g><path style="opacity:1" fill="#c8a78a" d="M 9.5,14.5 C 8.59748,17.3915 8.26414,20.3915 8.5,23.5C 7.88258,23.3893 7.38258,23.056 7,22.5C 6.50258,19.854 6.33591,17.1873 6.5,14.5C 7.65225,13.375 8.65225,13.375 9.5,14.5 Z"/></g>
<g><path style="opacity:1" fill="#71534e" d="M 25.5,8.5 C 24.7089,11.789 24.0422,15.1223 23.5,18.5C 24.5003,21.8342 25.5003,25.1676 26.5,28.5C 24.9013,26.3962 23.068,24.3962 21,22.5C 20.0471,24.3731 18.8804,24.7065 17.5,23.5C 17.5,23.1667 17.5,22.8333 17.5,22.5C 17.5,21.8333 17.5,21.1667 17.5,20.5C 18.7942,19.7101 19.9609,18.7101 21,17.5C 21.3333,18.5 21.6667,19.5 22,20.5C 22.3884,16.7808 23.0551,13.1141 24,9.5C 24.3826,8.94404 24.8826,8.61071 25.5,8.5 Z"/></g>
<g><path style="opacity:0.847" fill="#2d2626" d="M 79.5,22.5 C 79.8034,25.5876 78.4701,27.2542 75.5,27.5C 76.1667,26.5 76.8333,25.5 77.5,24.5C 78.8333,23.8333 78.8333,23.1667 77.5,22.5C 76.1667,21.8333 75.1667,20.8333 74.5,19.5C 75.7211,18.5354 77.0544,18.702 78.5,20C 79.2524,20.6708 79.5858,21.5041 79.5,22.5 Z"/></g>
<g><path style="opacity:1" fill="#fa7f19" d="M 70.5,17.5 C 71.1667,17.5 71.8333,17.5 72.5,17.5C 74.9496,17.298 77.283,17.6314 79.5,18.5C 80.9931,19.3121 81.6598,20.6455 81.5,22.5C 81.3333,23.5 81.1667,24.5 81,25.5C 80.7679,24.2625 80.2679,23.2625 79.5,22.5C 79.5858,21.5041 79.2524,20.6708 78.5,20C 77.0544,18.702 75.7211,18.5354 74.5,19.5C 73.6236,19.3691 72.9569,19.7025 72.5,20.5C 73.8532,21.5237 74.5198,22.857 74.5,24.5C 73.8333,24.5 73.1667,24.5 72.5,24.5C 71.7703,22.955 70.437,22.1216 68.5,22C 69.2524,21.3292 69.5858,20.4959 69.5,19.5C 69.8333,18.8333 70.1667,18.1667 70.5,17.5 Z"/></g>
<g><path style="opacity:1" fill="#fbab1a" d="M 43.5,17.5 C 44.3957,18.5063 45.0623,18.5063 45.5,17.5C 46.8068,18.1534 48.1401,18.8201 49.5,19.5C 50.1067,19.3764 50.44,19.0431 50.5,18.5C 51.1667,18.5 51.8333,18.5 52.5,18.5C 53.5,18.8333 54.1667,19.5 54.5,20.5C 51.4214,21.304 48.4214,22.304 45.5,23.5C 44.2702,21.7028 43.6036,19.7028 43.5,17.5 Z"/></g>
<g><path style="opacity:1" fill="#e57126" d="M 43.5,17.5 C 43.6036,19.7028 44.2702,21.7028 45.5,23.5C 45.5,23.8333 45.5,24.1667 45.5,24.5C 44.8333,24.5 44.5,24.8333 44.5,25.5C 44.1667,25.5 43.8333,25.5 43.5,25.5C 43.1667,25.5 42.8333,25.5 42.5,25.5C 42.5,24.5 42.5,23.5 42.5,22.5C 41.8333,19.8333 41.1667,17.1667 40.5,14.5C 41.5,14.5 42.5,14.5 43.5,14.5C 43.5,15.5 43.5,16.5 43.5,17.5 Z"/></g>
<g><path style="opacity:1" fill="#f47118" d="M 58.5,18.5 C 58.8333,18.5 59.1667,18.5 59.5,18.5C 59.3433,19.8734 59.51,21.2068 60,22.5C 60.3826,21.944 60.8826,21.6107 61.5,21.5C 61.5,21.8333 61.5,22.1667 61.5,22.5C 58.5,23.1667 55.5,23.8333 52.5,24.5C 50.1667,24.5 47.8333,24.5 45.5,24.5C 45.5,24.1667 45.5,23.8333 45.5,23.5C 48.4214,22.304 51.4214,21.304 54.5,20.5C 56.153,20.3404 57.4863,19.6737 58.5,18.5 Z"/></g>
<g><path style="opacity:0.651" fill="#251c24" d="M 40.5,21.5 C 41.1667,21.8333 41.8333,22.1667 42.5,22.5C 42.5,23.5 42.5,24.5 42.5,25.5C 40.8333,25.5 39.1667,25.5 37.5,25.5C 35.2752,24.6679 33.9419,25.6679 33.5,28.5C 33.5,29.1667 33.1667,29.5 32.5,29.5C 32.5654,29.0618 32.3988,28.7284 32,28.5C 31.2917,29.3805 30.4584,30.0472 29.5,30.5C 31.5566,24.5888 35.5566,22.4222 41.5,24C 40.7476,23.3292 40.4142,22.4959 40.5,21.5 Z"/></g>
<g><path style="opacity:1" fill="#fb9c23" d="M 69.5,19.5 C 69.5858,20.4959 69.2524,21.3292 68.5,22C 70.437,22.1216 71.7703,22.955 72.5,24.5C 69.6183,24.9861 66.9517,24.9861 64.5,24.5C 64.5,23.8333 64.5,23.1667 64.5,22.5C 66.3325,21.7515 67.9991,20.7515 69.5,19.5 Z"/></g>
<g><path style="opacity:0.855" fill="#3e3b3a" d="M 6.5,14.5 C 6.33591,17.1873 6.50258,19.854 7,22.5C 7.38258,23.056 7.88258,23.3893 8.5,23.5C 8.83333,24.1667 9.16667,24.8333 9.5,25.5C 8.23822,25.9066 6.90488,26.24 5.5,26.5C 6.34822,28.4086 6.68155,30.4086 6.5,32.5C 5.54497,30.7165 4.8783,28.7165 4.5,26.5C 4.81777,25.3527 5.48444,24.5194 6.5,24C 5.18162,20.7312 5.18162,17.5645 6.5,14.5 Z"/></g>
<g><path style="opacity:1" fill="#521237" d="M 74.5,19.5 C 75.1667,20.8333 76.1667,21.8333 77.5,22.5C 77.5,23.1667 77.5,23.8333 77.5,24.5C 76.8333,25.5 76.1667,26.5 75.5,27.5C 75.5,27.8333 75.5,28.1667 75.5,28.5C 74.7784,28.9175 74.2784,29.5842 74,30.5C 73.7216,29.5842 73.2216,28.9175 72.5,28.5C 72.1667,28.5 71.8333,28.5 71.5,28.5C 72.5,27.1667 73.5,25.8333 74.5,24.5C 74.5198,22.857 73.8532,21.5237 72.5,20.5C 72.9569,19.7025 73.6236,19.3691 74.5,19.5 Z"/></g>
<g><path style="opacity:1" fill="#864850" d="M 26.5,28.5 C 27.2223,29.5511 28.2223,30.2178 29.5,30.5C 28.396,32.3885 27.0627,34.0552 25.5,35.5C 22.3269,31.8154 19.6602,27.8154 17.5,23.5C 18.8804,24.7065 20.0471,24.3731 21,22.5C 23.068,24.3962 24.9013,26.3962 26.5,28.5 Z"/></g>
<g><path style="opacity:1" fill="#530a3a" d="M 44.5,25.5 C 44.5,24.8333 44.8333,24.5 45.5,24.5C 47.8333,24.5 50.1667,24.5 52.5,24.5C 55.6305,23.9078 57.9639,24.9078 59.5,27.5C 54.5705,26.3517 49.5705,25.685 44.5,25.5 Z"/></g>
<g><path style="opacity:1" fill="#9f5a26" d="M 79.5,16.5 C 83.5747,19.367 84.408,23.0337 82,27.5C 80.871,29.1412 79.371,30.1412 77.5,30.5C 76.1667,30.5 75.5,29.8333 75.5,28.5C 75.5,28.1667 75.5,27.8333 75.5,27.5C 78.4701,27.2542 79.8034,25.5876 79.5,22.5C 80.2679,23.2625 80.7679,24.2625 81,25.5C 81.1667,24.5 81.3333,23.5 81.5,22.5C 81.6598,20.6455 80.9931,19.3121 79.5,18.5C 79.5,17.8333 79.5,17.1667 79.5,16.5 Z"/></g>
<g><path style="opacity:1" fill="#9f3e27" d="M 37.5,25.5 C 36.4861,27.5739 35.4861,29.5739 34.5,31.5C 34.7373,30.209 34.404,29.209 33.5,28.5C 33.9419,25.6679 35.2752,24.6679 37.5,25.5 Z"/></g>
<g><path style="opacity:1" fill="#56224a" d="M 37.5,25.5 C 39.1667,25.5 40.8333,25.5 42.5,25.5C 42.8333,25.5 43.1667,25.5 43.5,25.5C 43.6716,26.4916 43.3382,27.1583 42.5,27.5C 41.1779,27.67 40.0113,27.3366 39,26.5C 37.7383,28.7844 36.5717,31.1177 35.5,33.5C 35.5,34.1667 35.5,34.8333 35.5,35.5C 34.8333,35.5 34.5,35.1667 34.5,34.5C 34.5,33.5 34.5,32.5 34.5,31.5C 35.4861,29.5739 36.4861,27.5739 37.5,25.5 Z"/></g>
<g><path style="opacity:1" fill="#8e154e" d="M 61.5,22.5 C 62.5,22.5 63.5,22.5 64.5,22.5C 64.5,23.1667 64.5,23.8333 64.5,24.5C 63.596,25.209 63.2627,26.209 63.5,27.5C 62.1667,27.5 60.8333,27.5 59.5,27.5C 57.9639,24.9078 55.6305,23.9078 52.5,24.5C 55.5,23.8333 58.5,23.1667 61.5,22.5 Z"/></g>
<g><path style="opacity:1" fill="#844a4f" d="M 15.5,16.5 C 15.1984,19.0593 15.5318,21.3926 16.5,23.5C 17.7602,29.015 20.7602,33.3483 25.5,36.5C 25.5,36.8333 25.5,37.1667 25.5,37.5C 24.5987,38.2905 23.9321,39.2905 23.5,40.5C 21.8333,38.5 20.1667,36.5 18.5,34.5C 16.0182,30.05 14.3515,25.3833 13.5,20.5C 13.5,20.1667 13.5,19.8333 13.5,19.5C 14.1667,18.5 14.8333,17.5 15.5,16.5 Z"/></g>
<g><path style="opacity:1" fill="#360831" d="M 43.5,25.5 C 43.8333,25.5 44.1667,25.5 44.5,25.5C 49.5705,25.685 54.5705,26.3517 59.5,27.5C 59.5,27.8333 59.5,28.1667 59.5,28.5C 56.5,28.5 53.5,28.5 50.5,28.5C 47.9407,28.1984 45.6074,28.5318 43.5,29.5C 43.1667,29.5 42.8333,29.5 42.5,29.5C 42.5,28.8333 42.5,28.1667 42.5,27.5C 43.3382,27.1583 43.6716,26.4916 43.5,25.5 Z"/></g>
<g><path style="opacity:1" fill="#4d1035" d="M 59.5,28.5 C 59.5,28.1667 59.5,27.8333 59.5,27.5C 60.8333,27.5 62.1667,27.5 63.5,27.5C 65.7014,28.5664 68.0347,29.233 70.5,29.5C 68.2854,30.2679 65.9521,30.9346 63.5,31.5C 62.7638,29.7706 61.4305,28.7706 59.5,28.5 Z"/></g>
<g><path style="opacity:1" fill="#b5322b" d="M 64.5,24.5 C 66.9517,24.9861 69.6183,24.9861 72.5,24.5C 73.1667,24.5 73.8333,24.5 74.5,24.5C 73.5,25.8333 72.5,27.1667 71.5,28.5C 70.8333,28.5 70.5,28.8333 70.5,29.5C 68.0347,29.233 65.7014,28.5664 63.5,27.5C 63.2627,26.209 63.596,25.209 64.5,24.5 Z"/></g>
<g><path style="opacity:1" fill="#361b30" d="M 17.5,22.5 C 17.5,22.8333 17.5,23.1667 17.5,23.5C 19.6602,27.8154 22.3269,31.8154 25.5,35.5C 25.5,35.8333 25.5,36.1667 25.5,36.5C 20.7602,33.3483 17.7602,29.015 16.5,23.5C 16.5,22.8333 16.8333,22.5 17.5,22.5 Z"/></g>
<g><path style="opacity:1" fill="#a4535e" d="M 13.5,20.5 C 14.3515,25.3833 16.0182,30.05 18.5,34.5C 18.1667,34.5 17.8333,34.5 17.5,34.5C 16.8333,34.1667 16.1667,33.8333 15.5,33.5C 14.0639,32.5714 12.7305,31.4048 11.5,30C 14.106,28.3499 14.106,26.8499 11.5,25.5C 11.7959,23.597 12.4625,21.9303 13.5,20.5 Z"/></g>
<g><path style="opacity:1" fill="#d73050" d="M 50.5,28.5 C 50.5,29.1667 50.5,29.8333 50.5,30.5C 47.9623,30.831 46.2957,32.1643 45.5,34.5C 45.5983,31.7524 44.5983,31.0857 42.5,32.5C 42.5569,31.391 42.8902,30.391 43.5,29.5C 45.6074,28.5318 47.9407,28.1984 50.5,28.5 Z"/></g>
<g><path style="opacity:1" fill="#c7a589" d="M 9.5,25.5 C 10.1667,25.5 10.8333,25.5 11.5,25.5C 10.6532,27.0291 9.98649,28.6958 9.5,30.5C 9.56983,31.7716 9.90316,32.9383 10.5,34C 9.90558,34.4643 9.23891,34.631 8.5,34.5C 7.83333,33.8333 7.16667,33.1667 6.5,32.5C 6.68155,30.4086 6.34822,28.4086 5.5,26.5C 6.90488,26.24 8.23822,25.9066 9.5,25.5 Z"/></g>
<g><path style="opacity:1" fill="#af5a28" d="M 42.5,27.5 C 42.5,28.1667 42.5,28.8333 42.5,29.5C 41.2028,31.3713 40.2028,33.3713 39.5,35.5C 38.8166,33.8235 37.4832,33.1568 35.5,33.5C 36.5717,31.1177 37.7383,28.7844 39,26.5C 40.0113,27.3366 41.1779,27.67 42.5,27.5 Z"/></g>
<g><path style="opacity:1" fill="#f6de51" d="M 50.5,30.5 C 49.621,32.228 48.9543,34.0614 48.5,36C 48.528,37.0698 48.8614,37.9032 49.5,38.5C 49.5,39.1667 49.5,39.8333 49.5,40.5C 48.4324,41.4345 47.099,41.7678 45.5,41.5C 45.5,41.1667 45.5,40.8333 45.5,40.5C 46.3799,38.6112 46.3799,36.6112 45.5,34.5C 46.2957,32.1643 47.9623,30.831 50.5,30.5 Z"/></g>
<g><path style="opacity:1" fill="#ad4a41" d="M 59.5,28.5 C 61.4305,28.7706 62.7638,29.7706 63.5,31.5C 63.5,32.1667 63.5,32.8333 63.5,33.5C 62.8333,35.1667 62.1667,36.8333 61.5,38.5C 61.9746,35.9179 61.3079,33.9179 59.5,32.5C 59.5,31.5 59.5,30.5 59.5,29.5C 59.5,29.1667 59.5,28.8333 59.5,28.5 Z"/></g>
<g><path style="opacity:1" fill="#6d063d" d="M 71.5,28.5 C 71.8333,28.5 72.1667,28.5 72.5,28.5C 72.1961,29.1499 71.8627,29.8165 71.5,30.5C 73.0777,31.2978 74.7444,31.7978 76.5,32C 72.6955,32.0125 69.3622,33.1792 66.5,35.5C 64.8212,35.7148 63.8212,35.0481 63.5,33.5C 63.5,32.8333 63.5,32.1667 63.5,31.5C 65.9521,30.9346 68.2854,30.2679 70.5,29.5C 70.5,28.8333 70.8333,28.5 71.5,28.5 Z"/></g>
<g><path style="opacity:1" fill="#b48770" d="M 11.5,25.5 C 14.106,26.8499 14.106,28.3499 11.5,30C 12.7305,31.4048 14.0639,32.5714 15.5,33.5C 14.5655,34.5676 14.2322,35.901 14.5,37.5C 13.5,37.5 12.5,37.5 11.5,37.5C 11.1788,35.9519 10.1788,35.2852 8.5,35.5C 8.5,35.1667 8.5,34.8333 8.5,34.5C 9.23891,34.631 9.90558,34.4643 10.5,34C 9.90316,32.9383 9.56983,31.7716 9.5,30.5C 9.98649,28.6958 10.6532,27.0291 11.5,25.5 Z"/></g>
<g><path style="opacity:1" fill="#672a3d" d="M 72.5,28.5 C 73.2216,28.9175 73.7216,29.5842 74,30.5C 74.2784,29.5842 74.7784,28.9175 75.5,28.5C 75.5,29.8333 76.1667,30.5 77.5,30.5C 81.7057,33.1023 86.039,35.4357 90.5,37.5C 88.8212,37.2852 87.8212,37.9519 87.5,39.5C 85.7837,37.9752 83.7837,36.9752 81.5,36.5C 80.609,35.8902 79.609,35.5569 78.5,35.5C 77.5514,34.8476 76.3847,34.5143 75,34.5C 72.1187,35.0278 69.2854,35.6945 66.5,36.5C 66.5,36.1667 66.5,35.8333 66.5,35.5C 69.3622,33.1792 72.6955,32.0125 76.5,32C 74.7444,31.7978 73.0777,31.2978 71.5,30.5C 71.8627,29.8165 72.1961,29.1499 72.5,28.5 Z"/></g>
<g><path style="opacity:0.757" fill="#131416" d="M 6.5,32.5 C 7.16667,33.1667 7.83333,33.8333 8.5,34.5C 8.5,34.8333 8.5,35.1667 8.5,35.5C 6.95186,35.1788 6.28519,34.1788 6.5,32.5 Z"/></g>
<g><path style="opacity:1" fill="#ea9816" d="M 33.5,28.5 C 34.404,29.209 34.7373,30.209 34.5,31.5C 34.5,32.5 34.5,33.5 34.5,34.5C 33.6618,34.8417 33.3284,35.5084 33.5,36.5C 31.9519,36.1788 31.2852,35.1788 31.5,33.5C 31.4326,32.0413 31.7659,30.7079 32.5,29.5C 33.1667,29.5 33.5,29.1667 33.5,28.5 Z"/></g>
<g><path style="opacity:1" fill="#cca538" d="M 35.5,33.5 C 37.4832,33.1568 38.8166,33.8235 39.5,35.5C 39.5,36.8333 39.5,38.1667 39.5,39.5C 34.9127,40.4594 34.5794,41.7927 38.5,43.5C 37.5,43.5 36.5,43.5 35.5,43.5C 34.596,42.791 34.2627,41.791 34.5,40.5C 35.3007,38.9582 35.634,37.2915 35.5,35.5C 35.5,34.8333 35.5,34.1667 35.5,33.5 Z"/></g>
<g><path style="opacity:1" fill="#ee5584" d="M 45.5,34.5 C 46.3799,36.6112 46.3799,38.6112 45.5,40.5C 44.8333,40.1667 44.1667,39.8333 43.5,39.5C 44.4286,37.6783 43.7619,36.3449 41.5,35.5C 41.2627,34.209 41.596,33.209 42.5,32.5C 44.5983,31.0857 45.5983,31.7524 45.5,34.5 Z"/></g>
<g><path style="opacity:1" fill="#af2a30" d="M 57.5,29.5 C 57.5,33.8333 57.5,38.1667 57.5,42.5C 56.8333,42.5 56.5,42.1667 56.5,41.5C 57.0545,37.9878 56.3878,34.9878 54.5,32.5C 53.4331,30.1205 54.4331,29.1205 57.5,29.5 Z"/></g>
<g><path style="opacity:1" fill="#872839" d="M 63.5,33.5 C 63.8212,35.0481 64.8212,35.7148 66.5,35.5C 66.5,35.8333 66.5,36.1667 66.5,36.5C 65.1667,37.1667 65.1667,37.8333 66.5,38.5C 65.0068,41.4929 62.6735,43.4929 59.5,44.5C 59.7329,42.9382 60.3995,41.6049 61.5,40.5C 61.5,39.8333 61.5,39.1667 61.5,38.5C 62.1667,36.8333 62.8333,35.1667 63.5,33.5 Z"/></g>
<g><path style="opacity:1" fill="#67192c" d="M 50.5,28.5 C 53.5,28.5 56.5,28.5 59.5,28.5C 59.5,28.8333 59.5,29.1667 59.5,29.5C 58.8333,29.5 58.1667,29.5 57.5,29.5C 54.4331,29.1205 53.4331,30.1205 54.5,32.5C 53.5041,32.4142 52.6708,32.7476 52,33.5C 51.5065,35.1341 51.3398,36.8008 51.5,38.5C 50.71,37.3915 50.21,36.0581 50,34.5C 49.51,35.7932 49.3433,37.1266 49.5,38.5C 48.8614,37.9032 48.528,37.0698 48.5,36C 48.9543,34.0614 49.621,32.228 50.5,30.5C 50.5,29.8333 50.5,29.1667 50.5,28.5 Z"/></g>
<g><path style="opacity:1" fill="#86282b" d="M 54.5,32.5 C 56.3878,34.9878 57.0545,37.9878 56.5,41.5C 55.3478,42.625 54.3478,42.625 53.5,41.5C 54.4767,38.7131 54.81,35.7131 54.5,32.5 Z"/></g>
<g><path style="opacity:1" fill="#e95baa" d="M 32.5,29.5 C 31.7659,30.7079 31.4326,32.0413 31.5,33.5C 30.8333,34.5 30.1667,35.5 29.5,36.5C 28.6908,38.0276 28.0241,39.6943 27.5,41.5C 27.1667,41.5 26.8333,41.5 26.5,41.5C 26.7678,39.901 26.4345,38.5676 25.5,37.5C 25.5,37.1667 25.5,36.8333 25.5,36.5C 25.5,36.1667 25.5,35.8333 25.5,35.5C 27.0627,34.0552 28.396,32.3885 29.5,30.5C 30.4584,30.0472 31.2917,29.3805 32,28.5C 32.3988,28.7284 32.5654,29.0618 32.5,29.5 Z"/></g>
<g><path style="opacity:1" fill="#efd879" d="M 54.5,32.5 C 54.81,35.7131 54.4767,38.7131 53.5,41.5C 52.5987,40.7095 51.9321,39.7095 51.5,38.5C 51.3398,36.8008 51.5065,35.1341 52,33.5C 52.6708,32.7476 53.5041,32.4142 54.5,32.5 Z"/></g>
<g><path style="opacity:1" fill="#e8e690" d="M 59.5,32.5 C 61.3079,33.9179 61.9746,35.9179 61.5,38.5C 61.5,39.1667 61.5,39.8333 61.5,40.5C 60.3054,40.1344 59.6387,39.301 59.5,38C 60.6733,36.1739 60.6733,34.3405 59.5,32.5 Z"/></g>
<g><path style="opacity:1" fill="#ab1f48" d="M 78.5,35.5 C 75.9899,35.0535 73.9899,35.7202 72.5,37.5C 71.7784,37.9175 71.2784,38.5842 71,39.5C 70.6174,38.944 70.1174,38.6107 69.5,38.5C 68.5,38.5 67.5,38.5 66.5,38.5C 65.1667,37.8333 65.1667,37.1667 66.5,36.5C 69.2854,35.6945 72.1187,35.0278 75,34.5C 76.3847,34.5143 77.5514,34.8476 78.5,35.5 Z"/></g>
<g><path style="opacity:1" fill="#ee6b18" d="M 78.5,35.5 C 79.609,35.5569 80.609,35.8902 81.5,36.5C 81.1583,37.3382 80.4916,37.6716 79.5,37.5C 77.5328,37.2606 75.6995,37.5939 74,38.5C 73.6664,40.8473 73.833,43.1806 74.5,45.5C 72.7773,43.22 72.1107,40.5533 72.5,37.5C 73.9899,35.7202 75.9899,35.0535 78.5,35.5 Z"/></g>
<g><path style="opacity:1" fill="#c69678" d="M 15.5,33.5 C 16.1667,33.8333 16.8333,34.1667 17.5,34.5C 17.5674,35.9587 17.2341,37.2921 16.5,38.5C 14.4727,38.3379 12.4727,38.5045 10.5,39C 11.7101,40.0391 12.7101,41.2058 13.5,42.5C 12.8333,42.5 12.1667,42.5 11.5,42.5C 10.5244,41.1851 9.52435,39.8518 8.5,38.5C 9.32496,37.6143 10.325,37.281 11.5,37.5C 12.5,37.5 13.5,37.5 14.5,37.5C 14.2322,35.901 14.5655,34.5676 15.5,33.5 Z"/></g>
<g><path style="opacity:1" fill="#bc5c67" d="M 17.5,34.5 C 17.8333,34.5 18.1667,34.5 18.5,34.5C 20.1667,36.5 21.8333,38.5 23.5,40.5C 23.5,42.1667 23.5,43.8333 23.5,45.5C 23.1667,45.5 22.8333,45.5 22.5,45.5C 22.5,44.8333 22.5,44.1667 22.5,43.5C 20.1307,42.31 18.1307,40.6433 16.5,38.5C 17.2341,37.2921 17.5674,35.9587 17.5,34.5 Z"/></g>
<g><path style="opacity:1" fill="#efcb99" d="M 41.5,35.5 C 43.7619,36.3449 44.4286,37.6783 43.5,39.5C 42.8333,39.5 42.5,39.8333 42.5,40.5C 42.1667,40.5 41.8333,40.5 41.5,40.5C 42.045,39.0361 42.045,37.3694 41.5,35.5 Z"/></g>
<g><path style="opacity:1" fill="#dd651f" d="M 57.5,29.5 C 58.1667,29.5 58.8333,29.5 59.5,29.5C 59.5,30.5 59.5,31.5 59.5,32.5C 60.6733,34.3405 60.6733,36.1739 59.5,38C 59.6387,39.301 60.3054,40.1344 61.5,40.5C 60.3995,41.6049 59.7329,42.9382 59.5,44.5C 58.1667,44.5 57.5,43.8333 57.5,42.5C 57.5,38.1667 57.5,33.8333 57.5,29.5 Z"/></g>
<g><path style="opacity:1" fill="#c4856e" d="M 16.5,38.5 C 18.1307,40.6433 20.1307,42.31 22.5,43.5C 19.8333,43.5 17.1667,43.5 14.5,43.5C 14.5,42.8333 14.1667,42.5 13.5,42.5C 12.7101,41.2058 11.7101,40.0391 10.5,39C 12.4727,38.5045 14.4727,38.3379 16.5,38.5 Z"/></g>
<g><path style="opacity:1" fill="#b12348" d="M 42.5,29.5 C 42.8333,29.5 43.1667,29.5 43.5,29.5C 42.8902,30.391 42.5569,31.391 42.5,32.5C 41.596,33.209 41.2627,34.209 41.5,35.5C 42.045,37.3694 42.045,39.0361 41.5,40.5C 40.3774,41.7574 39.7107,41.4241 39.5,39.5C 39.5,38.1667 39.5,36.8333 39.5,35.5C 40.2028,33.3713 41.2028,31.3713 42.5,29.5 Z"/></g>
<g><path style="opacity:1" fill="#2e121a" d="M 79.5,37.5 C 80.6715,38.3446 82.0048,39.0113 83.5,39.5C 83.5,41.1667 83.5,42.8333 83.5,44.5C 82.8505,46.4352 82.5172,48.4352 82.5,50.5C 82.1667,50.5 81.8333,50.5 81.5,50.5C 81.1667,50.5 80.8333,50.5 80.5,50.5C 81.2436,46.8815 81.577,43.2148 81.5,39.5C 79.5,39.5 77.5,39.5 75.5,39.5C 75.5751,42.2062 75.9084,44.8728 76.5,47.5C 75.8333,46.8333 75.1667,46.1667 74.5,45.5C 73.833,43.1806 73.6664,40.8473 74,38.5C 75.6995,37.5939 77.5328,37.2606 79.5,37.5 Z"/></g>
<g><path style="opacity:1" fill="#f36f19" d="M 81.5,36.5 C 83.7837,36.9752 85.7837,37.9752 87.5,39.5C 87.5,41.5 87.5,43.5 87.5,45.5C 87.5,45.8333 87.5,46.1667 87.5,46.5C 86.6909,44.7078 86.1909,42.7078 86,40.5C 85.3292,39.7476 84.4959,39.4142 83.5,39.5C 82.0048,39.0113 80.6715,38.3446 79.5,37.5C 80.4916,37.6716 81.1583,37.3382 81.5,36.5 Z"/></g>
<g><path style="opacity:0.965" fill="#212121" d="M 8.5,35.5 C 10.1788,35.2852 11.1788,35.9519 11.5,37.5C 10.325,37.281 9.32496,37.6143 8.5,38.5C 9.52435,39.8518 10.5244,41.1851 11.5,42.5C 8.64725,41.8114 6.98058,39.978 6.5,37C 7.4158,36.7216 8.08247,36.2216 8.5,35.5 Z"/></g>
<g><path style="opacity:1" fill="#bf613d" d="M 72.5,37.5 C 72.1107,40.5533 72.7773,43.22 74.5,45.5C 75.1667,46.1667 75.8333,46.8333 76.5,47.5C 76.0372,50.221 75.3705,52.8877 74.5,55.5C 73.5084,55.6716 72.8417,55.3382 72.5,54.5C 72.8769,52.742 73.5435,51.0754 74.5,49.5C 72.6362,46.6675 71.3029,43.6675 70.5,40.5C 69.5,40.5 68.5,40.5 67.5,40.5C 68.1667,39.8333 68.8333,39.1667 69.5,38.5C 70.1174,38.6107 70.6174,38.944 71,39.5C 71.2784,38.5842 71.7784,37.9175 72.5,37.5 Z"/></g>
<g><path style="opacity:0.871" fill="#553038" d="M 90.5,37.5 C 92.7727,37.9568 94.106,39.2901 94.5,41.5C 92.6593,40.5977 91.326,39.2644 90.5,37.5 Z"/></g>
<g><path style="opacity:1" fill="#e3d045" d="M 31.5,33.5 C 31.2852,35.1788 31.9519,36.1788 33.5,36.5C 32.7347,39.0961 32.4013,41.7628 32.5,44.5C 32.6716,45.4916 32.3382,46.1583 31.5,46.5C 30.8826,46.3893 30.3826,46.056 30,45.5C 29.5014,49.1516 29.3347,52.8183 29.5,56.5C 28.3683,49.988 28.3683,43.3213 29.5,36.5C 30.1667,35.5 30.8333,34.5 31.5,33.5 Z"/></g>
<g><path style="opacity:1" fill="#f96abe" d="M 25.5,37.5 C 26.4345,38.5676 26.7678,39.901 26.5,41.5C 26.5,42.8333 26.5,44.1667 26.5,45.5C 25.5,45.5 24.5,45.5 23.5,45.5C 23.5,43.8333 23.5,42.1667 23.5,40.5C 23.9321,39.2905 24.5987,38.2905 25.5,37.5 Z"/></g>
<g><path style="opacity:1" fill="#6f5f71" d="M 34.5,34.5 C 34.5,35.1667 34.8333,35.5 35.5,35.5C 35.634,37.2915 35.3007,38.9582 34.5,40.5C 33.5655,41.5676 33.2322,42.901 33.5,44.5C 33.1667,44.5 32.8333,44.5 32.5,44.5C 32.4013,41.7628 32.7347,39.0961 33.5,36.5C 33.3284,35.5084 33.6618,34.8417 34.5,34.5 Z"/></g>
<g><path style="opacity:1" fill="#e1c068" d="M 80.5,50.5 C 80.5,51.5 80.5,52.5 80.5,53.5C 78.8212,53.7148 77.8212,53.0481 77.5,51.5C 77.7678,49.901 77.4345,48.5676 76.5,47.5C 75.9084,44.8728 75.5751,42.2062 75.5,39.5C 77.5,39.5 79.5,39.5 81.5,39.5C 81.577,43.2148 81.2436,46.8815 80.5,50.5 Z"/></g>
<g><path style="opacity:1" fill="#d82a66" d="M 90.5,37.5 C 91.326,39.2644 92.6593,40.5977 94.5,41.5C 94.5386,42.7562 94.0386,43.7562 93,44.5C 91.6902,42.2611 89.8569,40.5944 87.5,39.5C 87.8212,37.9519 88.8212,37.2852 90.5,37.5 Z"/></g>
<g><path style="opacity:1" fill="#bc6048" d="M 39.5,39.5 C 39.7107,41.4241 40.3774,41.7574 41.5,40.5C 41.8333,40.5 42.1667,40.5 42.5,40.5C 43.0965,41.9354 43.0965,43.602 42.5,45.5C 42.1667,45.5 41.8333,45.5 41.5,45.5C 41.719,44.325 41.3857,43.325 40.5,42.5C 39.8933,42.6236 39.56,42.9569 39.5,43.5C 39.1667,43.5 38.8333,43.5 38.5,43.5C 34.5794,41.7927 34.9127,40.4594 39.5,39.5 Z"/></g>
<g><path style="opacity:1" fill="#c06823" d="M 49.5,40.5 C 50.4511,41.9187 50.7845,43.5853 50.5,45.5C 48.8333,45.5 47.1667,45.5 45.5,45.5C 45.5,44.1667 45.5,42.8333 45.5,41.5C 47.099,41.7678 48.4324,41.4345 49.5,40.5 Z"/></g>
<g><path style="opacity:0.616" fill="#352819" d="M 11.5,42.5 C 12.1667,42.5 12.8333,42.5 13.5,42.5C 14.1667,42.5 14.5,42.8333 14.5,43.5C 12.7354,44.4614 10.7354,44.7947 8.5,44.5C 7.53261,45.8062 6.19928,46.4729 4.5,46.5C 6.48821,44.5085 8.82154,43.1752 11.5,42.5 Z"/></g>
<g><path style="opacity:1" fill="#f6e474" d="M 41.5,45.5 C 40.1667,45.5 39.5,44.8333 39.5,43.5C 39.56,42.9569 39.8933,42.6236 40.5,42.5C 41.3857,43.325 41.719,44.325 41.5,45.5 Z"/></g>
<g><path style="opacity:1" fill="#440a2a" d="M 51.5,38.5 C 51.9321,39.7095 52.5987,40.7095 53.5,41.5C 54.3478,42.625 55.3478,42.625 56.5,41.5C 56.5,42.1667 56.8333,42.5 57.5,42.5C 57.5,43.8333 58.1667,44.5 59.5,44.5C 58.1667,45.1667 56.8333,45.8333 55.5,46.5C 54.8333,46.5 54.1667,46.5 53.5,46.5C 52.391,46.5569 51.391,46.8902 50.5,47.5C 48.2188,47.9227 46.5521,47.256 45.5,45.5C 47.1667,45.5 48.8333,45.5 50.5,45.5C 50.7845,43.5853 50.4511,41.9187 49.5,40.5C 49.5,39.8333 49.5,39.1667 49.5,38.5C 49.3433,37.1266 49.51,35.7932 50,34.5C 50.21,36.0581 50.71,37.3915 51.5,38.5 Z"/></g>
<g><path style="opacity:1" fill="#311323" d="M 67.5,40.5 C 68.5,40.5 69.5,40.5 70.5,40.5C 71.3029,43.6675 72.6362,46.6675 74.5,49.5C 73.5435,51.0754 72.8769,52.742 72.5,54.5C 70.8235,55.1834 70.1568,56.5168 70.5,58.5C 68.1658,59.8408 66.4991,59.1741 65.5,56.5C 65.5,56.1667 65.5,55.8333 65.5,55.5C 70.4324,54.6163 72.4324,51.9497 71.5,47.5C 69.8693,45.3567 67.8693,43.69 65.5,42.5C 65.8333,41.5 66.5,40.8333 67.5,40.5 Z"/></g>
<g><path style="opacity:1" fill="#f89916" d="M 14.5,43.5 C 17.1667,43.5 19.8333,43.5 22.5,43.5C 22.5,44.1667 22.5,44.8333 22.5,45.5C 17.8333,45.5 13.1667,45.5 8.5,45.5C 8.5,45.1667 8.5,44.8333 8.5,44.5C 10.7354,44.7947 12.7354,44.4614 14.5,43.5 Z"/></g>
<g><path style="opacity:1" fill="#f6c63f" d="M 66.5,38.5 C 67.5,38.5 68.5,38.5 69.5,38.5C 68.8333,39.1667 68.1667,39.8333 67.5,40.5C 66.5,40.8333 65.8333,41.5 65.5,42.5C 64.596,43.209 64.2627,44.209 64.5,45.5C 63.1266,45.3433 61.7932,45.51 60.5,46C 61.056,46.3826 61.3893,46.8826 61.5,47.5C 59.5,47.1667 57.5,46.8333 55.5,46.5C 56.8333,45.8333 58.1667,45.1667 59.5,44.5C 62.6735,43.4929 65.0068,41.4929 66.5,38.5 Z"/></g>
<g><path style="opacity:1" fill="#de8e29" d="M 85.5,53.5 C 85.0623,54.5063 84.3957,54.5063 83.5,53.5C 83.4431,52.391 83.1098,51.391 82.5,50.5C 82.5172,48.4352 82.8505,46.4352 83.5,44.5C 84.2679,43.7375 84.7679,42.7375 85,41.5C 84.8014,45.5808 84.9681,49.5808 85.5,53.5 Z"/></g>
<g><path style="opacity:1" fill="#d63654" d="M 26.5,41.5 C 26.8333,41.5 27.1667,41.5 27.5,41.5C 27.81,44.7131 27.4767,47.7131 26.5,50.5C 26.8333,47.5 25.5,46.1667 22.5,46.5C 19.8333,46.5 17.1667,46.5 14.5,46.5C 12.2646,46.7947 10.2646,46.4614 8.5,45.5C 13.1667,45.5 17.8333,45.5 22.5,45.5C 22.8333,45.5 23.1667,45.5 23.5,45.5C 24.5,45.5 25.5,45.5 26.5,45.5C 26.5,44.1667 26.5,42.8333 26.5,41.5 Z"/></g>
<g><path style="opacity:1" fill="#d88425" d="M 34.5,40.5 C 34.2627,41.791 34.596,42.791 35.5,43.5C 36.9136,45.1385 36.5803,46.4718 34.5,47.5C 35.325,48.3857 36.325,48.719 37.5,48.5C 37.988,51.7107 37.3213,54.544 35.5,57C 36.7119,58.1068 36.3786,58.6068 34.5,58.5C 33.7659,57.2921 33.4326,55.9587 33.5,54.5C 33.5,51.1667 33.5,47.8333 33.5,44.5C 33.2322,42.901 33.5655,41.5676 34.5,40.5 Z"/></g>
<g><path style="opacity:1" fill="#b27840" d="M 8.5,44.5 C 8.5,44.8333 8.5,45.1667 8.5,45.5C 10.2646,46.4614 12.2646,46.7947 14.5,46.5C 13.0813,47.4511 11.4147,47.7845 9.5,47.5C 6.51763,47.9629 3.51763,48.2962 0.5,48.5C 1.51369,47.3263 2.84702,46.6596 4.5,46.5C 6.19928,46.4729 7.53261,45.8062 8.5,44.5 Z"/></g>
<g><path style="opacity:1" fill="#e33e3f" d="M 42.5,40.5 C 42.5,39.8333 42.8333,39.5 43.5,39.5C 44.1667,39.8333 44.8333,40.1667 45.5,40.5C 45.5,40.8333 45.5,41.1667 45.5,41.5C 45.5,42.8333 45.5,44.1667 45.5,45.5C 46.5521,47.256 48.2188,47.9227 50.5,47.5C 50.5,48.5 50.5,49.5 50.5,50.5C 47.9208,50.9167 45.7542,50.25 44,48.5C 43.2274,50.3524 43.7274,51.6857 45.5,52.5C 45.5,52.8333 45.5,53.1667 45.5,53.5C 45.6292,55.3661 44.9626,57.3661 43.5,59.5C 42.9747,60.1924 42.3081,60.6924 41.5,61C 41.7284,61.3988 42.0618,61.5654 42.5,61.5C 42.6716,62.4916 42.3382,63.1583 41.5,63.5C 40.8614,62.9032 40.528,62.0698 40.5,61C 41.0735,59.3933 41.7402,57.8933 42.5,56.5C 42.4431,55.391 42.1098,54.391 41.5,53.5C 42.0431,53.44 42.3764,53.1067 42.5,52.5C 41.675,51.6143 40.675,51.281 39.5,51.5C 39.5,50.1667 39.5,48.8333 39.5,47.5C 41.1788,47.7148 42.1788,47.0481 42.5,45.5C 43.0965,43.602 43.0965,41.9354 42.5,40.5 Z"/></g>
<g><path style="opacity:1" fill="#dd5924" d="M 65.5,42.5 C 67.8693,43.69 69.8693,45.3567 71.5,47.5C 71.0679,48.7095 70.4013,49.7095 69.5,50.5C 69.7373,49.209 69.404,48.209 68.5,47.5C 66.412,47.1348 64.0787,47.1348 61.5,47.5C 61.3893,46.8826 61.056,46.3826 60.5,46C 61.7932,45.51 63.1266,45.3433 64.5,45.5C 64.2627,44.209 64.596,43.209 65.5,42.5 Z"/></g>
<g><path style="opacity:1" fill="#be3565" d="M 87.5,39.5 C 89.8569,40.5944 91.6902,42.2611 93,44.5C 94.0386,43.7562 94.5386,42.7562 94.5,41.5C 94.8333,41.5 95.1667,41.5 95.5,41.5C 95.5,42.8333 95.5,44.1667 95.5,45.5C 92.2603,47.113 90.7603,49.7796 91,53.5C 90.7679,52.2625 90.2679,51.2625 89.5,50.5C 90.3964,47.873 90.2298,45.2064 89,42.5C 88.7679,43.7375 88.2679,44.7375 87.5,45.5C 87.5,43.5 87.5,41.5 87.5,39.5 Z"/></g>
<g><path style="opacity:1" fill="#f98f23" d="M 9.5,47.5 C 10.5676,48.4345 11.901,48.7678 13.5,48.5C 11.7354,49.4614 9.73535,49.7947 7.5,49.5C 5.56475,50.1495 3.56475,50.4828 1.5,50.5C 0.661754,50.1583 0.32842,49.4916 0.5,48.5C 3.51763,48.2962 6.51763,47.9629 9.5,47.5 Z"/></g>
<g><path style="opacity:1" fill="#f7ad16" d="M 14.5,46.5 C 17.1667,46.5 19.8333,46.5 22.5,46.5C 23.7199,48.2837 23.7199,49.9504 22.5,51.5C 22.5,51.1667 22.5,50.8333 22.5,50.5C 20.0122,48.6122 17.0122,47.9455 13.5,48.5C 11.901,48.7678 10.5676,48.4345 9.5,47.5C 11.4147,47.7845 13.0813,47.4511 14.5,46.5 Z"/></g>
<g><path style="opacity:1" fill="#fe9d09" d="M 31.5,46.5 C 31.5,48.8333 31.5,51.1667 31.5,53.5C 31.1249,55.6976 30.4582,57.6976 29.5,59.5C 29.5,58.5 29.5,57.5 29.5,56.5C 29.3347,52.8183 29.5014,49.1516 30,45.5C 30.3826,46.056 30.8826,46.3893 31.5,46.5 Z"/></g>
<g><path style="opacity:1" fill="#6f6747" d="M 32.5,44.5 C 32.8333,44.5 33.1667,44.5 33.5,44.5C 33.5,47.8333 33.5,51.1667 33.5,54.5C 33.1667,54.5 32.8333,54.5 32.5,54.5C 32.5,53.8333 32.1667,53.5 31.5,53.5C 31.5,51.1667 31.5,48.8333 31.5,46.5C 32.3382,46.1583 32.6716,45.4916 32.5,44.5 Z"/></g>
<g><path style="opacity:1" fill="#fbdb2b" d="M 53.5,46.5 C 54.1667,46.5 54.8333,46.5 55.5,46.5C 57.5,46.8333 59.5,47.1667 61.5,47.5C 64.0787,47.1348 66.412,47.1348 68.5,47.5C 63.767,48.1897 58.9336,48.8563 54,49.5C 53.5357,48.9056 53.369,48.2389 53.5,47.5C 53.5,47.1667 53.5,46.8333 53.5,46.5 Z"/></g>
<g><path style="opacity:1" fill="#f08a20" d="M 53.5,47.5 C 53.369,48.2389 53.5357,48.9056 54,49.5C 58.9336,48.8563 63.767,48.1897 68.5,47.5C 69.404,48.209 69.7373,49.209 69.5,50.5C 68.8333,50.8333 68.1667,51.1667 67.5,51.5C 64.1019,51.8583 60.9353,51.1916 58,49.5C 57.5,49.6667 57,49.8333 56.5,50C 59.0515,51.5158 58.7181,52.3491 55.5,52.5C 55.1667,52.5 54.8333,52.5 54.5,52.5C 53.645,51.4693 52.9783,50.3026 52.5,49C 52.5699,48.2352 52.9033,47.7352 53.5,47.5 Z"/></g>
<g><path style="opacity:1" fill="#e1512d" d="M 13.5,48.5 C 17.0122,47.9455 20.0122,48.6122 22.5,50.5C 17.3054,50.8205 12.3054,50.4872 7.5,49.5C 9.73535,49.7947 11.7354,49.4614 13.5,48.5 Z"/></g>
<g><path style="opacity:0.667" fill="#341f18" d="M -0.5,48.5 C -0.166667,48.5 0.166667,48.5 0.5,48.5C 0.32842,49.4916 0.661754,50.1583 1.5,50.5C 1.5,50.8333 1.5,51.1667 1.5,51.5C 0.833333,51.5 0.166667,51.5 -0.5,51.5C -0.5,50.5 -0.5,49.5 -0.5,48.5 Z"/></g>
<g><path style="opacity:1" fill="#ad2549" d="M 7.5,49.5 C 12.3054,50.4872 17.3054,50.8205 22.5,50.5C 22.5,50.8333 22.5,51.1667 22.5,51.5C 22.5,52.1667 22.8333,52.5 23.5,52.5C 22.8902,53.391 22.5569,54.391 22.5,55.5C 22.1667,55.5 21.8333,55.5 21.5,55.5C 21.5,54.1667 21.5,52.8333 21.5,51.5C 17.8333,51.5 14.1667,51.5 10.5,51.5C 7.54223,52.5411 4.54223,52.5411 1.5,51.5C 1.5,51.1667 1.5,50.8333 1.5,50.5C 3.56475,50.4828 5.56475,50.1495 7.5,49.5 Z"/></g>
<g><path style="opacity:1" fill="#951240" d="M 53.5,46.5 C 53.5,46.8333 53.5,47.1667 53.5,47.5C 52.9033,47.7352 52.5699,48.2352 52.5,49C 52.9783,50.3026 53.645,51.4693 54.5,52.5C 51.3442,51.4489 48.3442,51.4489 45.5,52.5C 43.7274,51.6857 43.2274,50.3524 44,48.5C 45.7542,50.25 47.9208,50.9167 50.5,50.5C 50.5,49.5 50.5,48.5 50.5,47.5C 51.391,46.8902 52.391,46.5569 53.5,46.5 Z"/></g>
<g><path style="opacity:1" fill="#5d1434" d="M 89.5,50.5 C 89.5,51.8333 89.5,53.1667 89.5,54.5C 88.5655,55.5676 88.2322,56.901 88.5,58.5C 88.1667,58.5 87.8333,58.5 87.5,58.5C 87.9368,55.1934 87.2702,52.1934 85.5,49.5C 86.1925,48.4822 86.8592,47.4822 87.5,46.5C 87.5,46.1667 87.5,45.8333 87.5,45.5C 88.2679,44.7375 88.7679,43.7375 89,42.5C 90.2298,45.2064 90.3964,47.873 89.5,50.5 Z"/></g>
<g><path style="opacity:1" fill="#7f234a" d="M 95.5,45.5 C 95.5,46.1667 95.5,46.8333 95.5,47.5C 94.6618,47.8417 94.3284,48.5084 94.5,49.5C 93.6873,51.2608 92.6873,52.9275 91.5,54.5C 90.8333,54.5 90.1667,54.5 89.5,54.5C 89.5,53.1667 89.5,51.8333 89.5,50.5C 90.2679,51.2625 90.7679,52.2625 91,53.5C 90.7603,49.7796 92.2603,47.113 95.5,45.5 Z"/></g>
<g><path style="opacity:1" fill="#ee9833" d="M 22.5,46.5 C 25.5,46.1667 26.8333,47.5 26.5,50.5C 26.5,51.1667 26.5,51.8333 26.5,52.5C 25.5,52.5 24.5,52.5 23.5,52.5C 22.8333,52.5 22.5,52.1667 22.5,51.5C 23.7199,49.9504 23.7199,48.2837 22.5,46.5 Z"/></g>
<g><path style="opacity:1" fill="#cf4f22" d="M 67.5,51.5 C 66.1938,52.4674 65.5271,53.8007 65.5,55.5C 65.5,55.8333 65.5,56.1667 65.5,56.5C 64.596,55.791 64.2627,54.791 64.5,53.5C 62.901,53.2322 61.5676,53.5655 60.5,54.5C 60.1667,54.5 59.8333,54.5 59.5,54.5C 58.1667,53.8333 56.8333,53.1667 55.5,52.5C 58.7181,52.3491 59.0515,51.5158 56.5,50C 57,49.8333 57.5,49.6667 58,49.5C 60.9353,51.1916 64.1019,51.8583 67.5,51.5 Z"/></g>
<g><path style="opacity:1" fill="#8a1b37" d="M 71.5,47.5 C 72.4324,51.9497 70.4324,54.6163 65.5,55.5C 65.5271,53.8007 66.1938,52.4674 67.5,51.5C 68.1667,51.1667 68.8333,50.8333 69.5,50.5C 70.4013,49.7095 71.0679,48.7095 71.5,47.5 Z"/></g>
<g><path style="opacity:1" fill="#ab3839" d="M 83.5,39.5 C 84.4959,39.4142 85.3292,39.7476 86,40.5C 86.1909,42.7078 86.6909,44.7078 87.5,46.5C 86.8592,47.4822 86.1925,48.4822 85.5,49.5C 87.2702,52.1934 87.9368,55.1934 87.5,58.5C 86.8333,56.8333 86.1667,55.1667 85.5,53.5C 84.9681,49.5808 84.8014,45.5808 85,41.5C 84.7679,42.7375 84.2679,43.7375 83.5,44.5C 83.5,42.8333 83.5,41.1667 83.5,39.5 Z"/></g>
<g><path style="opacity:0.118" fill="#351f24" d="M 1.5,51.5 C 4.54223,52.5411 7.54223,52.5411 10.5,51.5C 13.6414,52.3213 16.9748,52.8213 20.5,53C 16.5,53.3333 12.5,53.6667 8.5,54C 10.3817,54.1981 12.0484,54.6981 13.5,55.5C 12.1879,57.4788 10.5212,59.1455 8.5,60.5C 8.95689,61.2975 9.62356,61.6309 10.5,61.5C 10.6716,62.4916 10.3382,63.1583 9.5,63.5C 9.16667,63.5 8.83333,63.5 8.5,63.5C 7.06959,60.175 8.06959,57.675 11.5,56C 7.8005,55.0884 4.46716,53.5884 1.5,51.5 Z"/></g>
<g><path style="opacity:1" fill="#35042e" d="M 54.5,52.5 C 54.8333,52.5 55.1667,52.5 55.5,52.5C 56.8333,53.1667 58.1667,53.8333 59.5,54.5C 59.1667,54.5 58.8333,54.5 58.5,54.5C 57.8333,54.5 57.1667,54.5 56.5,54.5C 55.1667,54.5 53.8333,54.5 52.5,54.5C 52.5,55.5 52.5,56.5 52.5,57.5C 52.5,57.8333 52.5,58.1667 52.5,58.5C 51.8333,58.5 51.1667,58.5 50.5,58.5C 50.5,56.8333 50.5,55.1667 50.5,53.5C 49.1667,53.5 47.8333,53.5 46.5,53.5C 46.1667,53.5 45.8333,53.5 45.5,53.5C 45.5,53.1667 45.5,52.8333 45.5,52.5C 48.3442,51.4489 51.3442,51.4489 54.5,52.5 Z"/></g>
<g><path style="opacity:1" fill="#8e2a3d" d="M 10.5,51.5 C 14.1667,51.5 17.8333,51.5 21.5,51.5C 21.5,52.8333 21.5,54.1667 21.5,55.5C 20.5,55.5 19.5,55.5 18.5,55.5C 16.8333,55.5 15.1667,55.5 13.5,55.5C 12.0484,54.6981 10.3817,54.1981 8.5,54C 12.5,53.6667 16.5,53.3333 20.5,53C 16.9748,52.8213 13.6414,52.3213 10.5,51.5 Z"/></g>
<g><path style="opacity:1" fill="#b8286c" d="M 23.5,52.5 C 24.5,52.5 25.5,52.5 26.5,52.5C 27.3414,54.3792 27.6747,56.3792 27.5,58.5C 26.5,58.5 25.5,58.5 24.5,58.5C 24.1667,58.5 23.8333,58.5 23.5,58.5C 23.4431,57.391 23.1098,56.391 22.5,55.5C 22.5569,54.391 22.8902,53.391 23.5,52.5 Z"/></g>
<g><path style="opacity:1" fill="#7c284d" d="M 29.5,36.5 C 28.3683,43.3213 28.3683,49.988 29.5,56.5C 29.5,57.5 29.5,58.5 29.5,59.5C 29.1667,59.5 28.8333,59.5 28.5,59.5C 28.5,58.8333 28.1667,58.5 27.5,58.5C 27.6747,56.3792 27.3414,54.3792 26.5,52.5C 26.5,51.8333 26.5,51.1667 26.5,50.5C 27.4767,47.7131 27.81,44.7131 27.5,41.5C 28.0241,39.6943 28.6908,38.0276 29.5,36.5 Z"/></g>
<g><path style="opacity:1" fill="#d28831" d="M 41.5,53.5 C 42.1098,54.391 42.4431,55.391 42.5,56.5C 40.8763,58.1368 39.8763,57.8034 39.5,55.5C 39.7472,54.2867 40.4138,53.62 41.5,53.5 Z"/></g>
<g><path style="opacity:1" fill="#830744" d="M 38.5,43.5 C 38.8333,43.5 39.1667,43.5 39.5,43.5C 39.5,44.8333 40.1667,45.5 41.5,45.5C 41.8333,45.5 42.1667,45.5 42.5,45.5C 42.1788,47.0481 41.1788,47.7148 39.5,47.5C 39.5,48.8333 39.5,50.1667 39.5,51.5C 40.675,51.281 41.675,51.6143 42.5,52.5C 42.3764,53.1067 42.0431,53.44 41.5,53.5C 40.4138,53.62 39.7472,54.2867 39.5,55.5C 39.8763,57.8034 40.8763,58.1368 42.5,56.5C 41.7402,57.8933 41.0735,59.3933 40.5,61C 40.528,62.0698 40.8614,62.9032 41.5,63.5C 41.5,64.1667 41.1667,64.5 40.5,64.5C 39.8333,62.8333 39.1667,61.1667 38.5,59.5C 38.5,54.1667 38.5,48.8333 38.5,43.5 Z"/></g>
<g><path style="opacity:1" fill="#be541d" d="M 46.5,53.5 C 47.8333,53.5 49.1667,53.5 50.5,53.5C 50.5,55.1667 50.5,56.8333 50.5,58.5C 50.1667,58.5 49.8333,58.5 49.5,58.5C 48.791,57.596 47.791,57.2627 46.5,57.5C 46.5,56.1667 46.5,54.8333 46.5,53.5 Z"/></g>
<g><path style="opacity:1" fill="#d24d21" d="M 56.5,54.5 C 57.1667,54.5 57.8333,54.5 58.5,54.5C 59.1667,55.5 59.8333,56.5 60.5,57.5C 59.6993,59.0418 59.366,60.7085 59.5,62.5C 59.5,63.1667 59.5,63.8333 59.5,64.5C 59.5,66.1667 59.5,67.8333 59.5,69.5C 57.7846,64.8591 56.7846,59.8591 56.5,54.5 Z"/></g>
<g><path style="opacity:1" fill="#df7121" d="M 65.5,56.5 C 66.4991,59.1741 68.1658,59.8408 70.5,58.5C 70.5,59.1667 70.5,59.8333 70.5,60.5C 69.609,61.1098 68.609,61.4431 67.5,61.5C 64.9908,60.3176 63.6574,58.3176 63.5,55.5C 62.209,55.7373 61.209,55.404 60.5,54.5C 61.5676,53.5655 62.901,53.2322 64.5,53.5C 64.2627,54.791 64.596,55.791 65.5,56.5 Z"/></g>
<g><path style="opacity:1" fill="#681744" d="M 94.5,49.5 C 94.3284,50.4916 94.6618,51.1583 95.5,51.5C 95.5,53.1667 95.5,54.8333 95.5,56.5C 94.2058,57.2899 93.0391,58.2899 92,59.5C 91.2496,58.8742 90.4162,58.3742 89.5,58C 90.9733,57.2904 91.6399,56.1238 91.5,54.5C 92.6873,52.9275 93.6873,51.2608 94.5,49.5 Z"/></g>
<g><path style="opacity:1" fill="#b7625f" d="M 18.5,55.5 C 19.5,55.5 20.5,55.5 21.5,55.5C 21.8333,55.5 22.1667,55.5 22.5,55.5C 23.1098,56.391 23.4431,57.391 23.5,58.5C 22.1667,60.1667 20.8333,61.8333 19.5,63.5C 19.1667,63.5 18.8333,63.5 18.5,63.5C 18.1667,63.5 17.8333,63.5 17.5,63.5C 17.5792,62.0695 17.2458,60.7362 16.5,59.5C 17.2427,58.8182 17.9094,58.1515 18.5,57.5C 19.5063,57.0623 19.5063,56.3957 18.5,55.5 Z"/></g>
<g><path style="opacity:1" fill="#b95d2c" d="M 35.5,43.5 C 36.5,43.5 37.5,43.5 38.5,43.5C 38.5,48.8333 38.5,54.1667 38.5,59.5C 37.9653,61.4456 36.632,62.4456 34.5,62.5C 35.0577,61.2101 36.0577,60.3768 37.5,60C 36.2625,59.7679 35.2625,59.2679 34.5,58.5C 36.3786,58.6068 36.7119,58.1068 35.5,57C 37.3213,54.544 37.988,51.7107 37.5,48.5C 36.325,48.719 35.325,48.3857 34.5,47.5C 36.5803,46.4718 36.9136,45.1385 35.5,43.5 Z"/></g>
<g><path style="opacity:1" fill="#ce9a77" d="M 13.5,55.5 C 15.1667,55.5 16.8333,55.5 18.5,55.5C 19.5063,56.3957 19.5063,57.0623 18.5,57.5C 14.7779,56.6799 12.4446,58.0132 11.5,61.5C 11.1667,61.5 10.8333,61.5 10.5,61.5C 9.62356,61.6309 8.95689,61.2975 8.5,60.5C 10.5212,59.1455 12.1879,57.4788 13.5,55.5 Z"/></g>
<g><path style="opacity:1" fill="#8e3935" d="M 83.5,53.5 C 84.3957,54.5063 85.0623,54.5063 85.5,53.5C 86.1667,55.1667 86.8333,56.8333 87.5,58.5C 87.1667,59.5 86.5,60.1667 85.5,60.5C 85.1583,59.6618 84.4916,59.3284 83.5,59.5C 83.5,57.5 83.5,55.5 83.5,53.5 Z"/></g>
<g><path style="opacity:1" fill="#432139" d="M 89.5,54.5 C 90.1667,54.5 90.8333,54.5 91.5,54.5C 91.6399,56.1238 90.9733,57.2904 89.5,58C 90.4162,58.3742 91.2496,58.8742 92,59.5C 93.0391,58.2899 94.2058,57.2899 95.5,56.5C 95.5,57.1667 95.5,57.8333 95.5,58.5C 93.3021,60.0981 90.9687,61.4314 88.5,62.5C 89.4054,61.2976 89.4054,59.9643 88.5,58.5C 88.2322,56.901 88.5655,55.5676 89.5,54.5 Z"/></g>
<g><path style="opacity:1" fill="#d8ac69" d="M 60.5,57.5 C 60.8333,57.5 61.1667,57.5 61.5,57.5C 61.9227,59.7812 61.256,61.4479 59.5,62.5C 59.366,60.7085 59.6993,59.0418 60.5,57.5 Z"/></g>
<g><path style="opacity:1" fill="#771d39" d="M 61.5,57.5 C 62.2329,59.2944 63.2329,60.9611 64.5,62.5C 64.0825,63.2216 63.4158,63.7216 62.5,64C 63.7279,65.4902 63.7279,66.9902 62.5,68.5C 62.5,69.1667 62.1667,69.5 61.5,69.5C 61.9227,67.2188 61.256,65.5521 59.5,64.5C 59.5,63.8333 59.5,63.1667 59.5,62.5C 61.256,61.4479 61.9227,59.7812 61.5,57.5 Z"/></g>
<g><path style="opacity:1" fill="#7f2332" d="M 72.5,54.5 C 72.8417,55.3382 73.5084,55.6716 74.5,55.5C 74.5,57.1667 74.5,58.8333 74.5,60.5C 73.6618,60.8417 73.3284,61.5084 73.5,62.5C 72.5,61.8333 71.5,61.1667 70.5,60.5C 70.5,59.8333 70.5,59.1667 70.5,58.5C 70.1568,56.5168 70.8235,55.1834 72.5,54.5 Z"/></g>
<g><path style="opacity:1" fill="#270f1d" d="M 76.5,47.5 C 77.4345,48.5676 77.7678,49.901 77.5,51.5C 75.9605,53.8383 75.2938,56.5049 75.5,59.5C 77.5,59.5 79.5,59.5 81.5,59.5C 81.5,56.5 81.5,53.5 81.5,50.5C 81.8333,50.5 82.1667,50.5 82.5,50.5C 83.1098,51.391 83.4431,52.391 83.5,53.5C 83.5,55.5 83.5,57.5 83.5,59.5C 80.5043,61.3125 77.5043,61.6459 74.5,60.5C 74.5,58.8333 74.5,57.1667 74.5,55.5C 75.3705,52.8877 76.0372,50.221 76.5,47.5 Z"/></g>
<g><path style="opacity:1" fill="#9b6c4c" d="M 80.5,50.5 C 80.8333,50.5 81.1667,50.5 81.5,50.5C 81.5,53.5 81.5,56.5 81.5,59.5C 79.5,59.5 77.5,59.5 75.5,59.5C 75.2938,56.5049 75.9605,53.8383 77.5,51.5C 77.8212,53.0481 78.8212,53.7148 80.5,53.5C 80.5,52.5 80.5,51.5 80.5,50.5 Z"/></g>
<g><path style="opacity:1" fill="#b22b6f" d="M 24.5,58.5 C 25.5,58.5 26.5,58.5 27.5,58.5C 28.1667,58.5 28.5,58.8333 28.5,59.5C 28.5965,62.9559 29.5965,66.1226 31.5,69C 30.9056,69.4643 30.2389,69.631 29.5,69.5C 29.5,69.1667 29.5,68.8333 29.5,68.5C 28.5,66.8333 27.1667,65.5 25.5,64.5C 25.5,63.8333 25.5,63.1667 25.5,62.5C 24.7659,61.2921 24.4326,59.9587 24.5,58.5 Z"/></g>
<g><path style="opacity:1" fill="#7e2941" d="M 45.5,53.5 C 45.8333,53.5 46.1667,53.5 46.5,53.5C 46.5,54.8333 46.5,56.1667 46.5,57.5C 46.3532,59.718 46.0199,62.0513 45.5,64.5C 44.8999,63.0998 43.8999,62.0998 42.5,61.5C 42.0618,61.5654 41.7284,61.3988 41.5,61C 42.3081,60.6924 42.9747,60.1924 43.5,59.5C 44.9626,57.3661 45.6292,55.3661 45.5,53.5 Z"/></g>
<g><path style="opacity:1" fill="#5a0b42" d="M 58.5,54.5 C 58.8333,54.5 59.1667,54.5 59.5,54.5C 59.8333,54.5 60.1667,54.5 60.5,54.5C 61.209,55.404 62.209,55.7373 63.5,55.5C 63.6574,58.3176 64.9908,60.3176 67.5,61.5C 66.8333,61.5 66.5,61.8333 66.5,62.5C 65.8333,62.5 65.1667,62.5 64.5,62.5C 63.2329,60.9611 62.2329,59.2944 61.5,57.5C 61.1667,57.5 60.8333,57.5 60.5,57.5C 59.8333,56.5 59.1667,55.5 58.5,54.5 Z"/></g>
<g><path style="opacity:1" fill="#bd8a6f" d="M 18.5,57.5 C 17.9094,58.1515 17.2427,58.8182 16.5,59.5C 17.2458,60.7362 17.5792,62.0695 17.5,63.5C 16.4206,65.543 14.754,66.8763 12.5,67.5C 11.6676,66.6715 12.001,65.8382 13.5,65C 11.1088,64.3086 11.1088,63.3086 13.5,62C 12.9056,61.5357 12.2389,61.369 11.5,61.5C 12.4446,58.0132 14.7779,56.6799 18.5,57.5 Z"/></g>
<g><path style="opacity:1" fill="#cc7228" d="M 31.5,53.5 C 32.1667,53.5 32.5,53.8333 32.5,54.5C 32.5,56.5 32.5,58.5 32.5,60.5C 32.1667,62.5 31.8333,64.5 31.5,66.5C 30.4336,64.2986 29.767,61.9653 29.5,59.5C 30.4582,57.6976 31.1249,55.6976 31.5,53.5 Z"/></g>
<g><path style="opacity:1" fill="#903928" d="M 38.5,59.5 C 39.1667,61.1667 39.8333,62.8333 40.5,64.5C 40.5,64.8333 40.5,65.1667 40.5,65.5C 40.631,66.2389 40.4643,66.9056 40,67.5C 38.951,65.8934 37.451,65.2267 35.5,65.5C 35.4431,64.391 35.1098,63.391 34.5,62.5C 36.632,62.4456 37.9653,61.4456 38.5,59.5 Z"/></g>
<g><path style="opacity:1" fill="#390c2c" d="M 49.5,58.5 C 49.8333,58.5 50.1667,58.5 50.5,58.5C 51.1667,58.5 51.8333,58.5 52.5,58.5C 51.1667,61.1667 51.1667,63.8333 52.5,66.5C 52.9175,67.2216 53.5842,67.7216 54.5,68C 53.7476,68.6708 53.4142,69.5041 53.5,70.5C 52.8333,70.5 52.1667,70.5 51.5,70.5C 51.3404,68.847 50.6737,67.5137 49.5,66.5C 48.1667,63.8333 48.1667,61.1667 49.5,58.5 Z"/></g>
<g><path style="opacity:1" fill="#e6c16e" d="M 52.5,57.5 C 53.7647,58.5145 54.4313,60.0145 54.5,62C 54.4313,63.9855 53.7647,65.4855 52.5,66.5C 51.1667,63.8333 51.1667,61.1667 52.5,58.5C 52.5,58.1667 52.5,57.8333 52.5,57.5 Z"/></g>
<g><path style="opacity:1" fill="#9f2e36" d="M 83.5,59.5 C 84.4916,59.3284 85.1583,59.6618 85.5,60.5C 84.5,61.1667 83.5,61.8333 82.5,62.5C 80.901,62.2322 79.5676,62.5655 78.5,63.5C 76.5853,63.7845 74.9187,63.4511 73.5,62.5C 73.3284,61.5084 73.6618,60.8417 74.5,60.5C 77.5043,61.6459 80.5043,61.3125 83.5,59.5 Z"/></g>
<g><path style="opacity:1" fill="#44143f" d="M 87.5,58.5 C 87.8333,58.5 88.1667,58.5 88.5,58.5C 89.4054,59.9643 89.4054,61.2976 88.5,62.5C 87.791,63.404 86.791,63.7373 85.5,63.5C 84.209,63.7373 83.209,63.404 82.5,62.5C 83.5,61.8333 84.5,61.1667 85.5,60.5C 86.5,60.1667 87.1667,59.5 87.5,58.5 Z"/></g>
<g><path style="opacity:1" fill="#8a5153" d="M 23.5,58.5 C 23.8333,58.5 24.1667,58.5 24.5,58.5C 24.4326,59.9587 24.7659,61.2921 25.5,62.5C 24.1667,63.5 22.8333,64.5 21.5,65.5C 21.5,64.1667 20.8333,63.5 19.5,63.5C 20.8333,61.8333 22.1667,60.1667 23.5,58.5 Z"/></g>
<g><path style="opacity:1" fill="#361244" d="M 70.5,60.5 C 71.5,61.1667 72.5,61.8333 73.5,62.5C 74.9187,63.4511 76.5853,63.7845 78.5,63.5C 76.9145,64.8892 73.2479,64.8892 67.5,63.5C 66.8333,63.5 66.5,63.1667 66.5,62.5C 66.5,61.8333 66.8333,61.5 67.5,61.5C 68.609,61.4431 69.609,61.1098 70.5,60.5 Z"/></g>
<g><path style="opacity:1" fill="#511f42" d="M 28.5,59.5 C 28.8333,59.5 29.1667,59.5 29.5,59.5C 29.767,61.9653 30.4336,64.2986 31.5,66.5C 32.8916,69.0067 33.8916,71.6733 34.5,74.5C 32.5,73.1667 30.8333,71.5 29.5,69.5C 30.2389,69.631 30.9056,69.4643 31.5,69C 29.5965,66.1226 28.5965,62.9559 28.5,59.5 Z"/></g>
<g><path style="opacity:1" fill="#582747" d="M 32.5,54.5 C 32.8333,54.5 33.1667,54.5 33.5,54.5C 33.4326,55.9587 33.7659,57.2921 34.5,58.5C 35.2625,59.2679 36.2625,59.7679 37.5,60C 36.0577,60.3768 35.0577,61.2101 34.5,62.5C 35.1098,63.391 35.4431,64.391 35.5,65.5C 36.5717,67.8823 37.7383,70.2156 39,72.5C 39.6035,68.667 40.4368,68.667 41.5,72.5C 39.9505,73.4408 38.2838,74.1075 36.5,74.5C 36.6107,73.8826 36.944,73.3826 37.5,73C 35.5378,68.9459 33.8712,64.7792 32.5,60.5C 32.5,58.5 32.5,56.5 32.5,54.5 Z"/></g>
<g><path style="opacity:1" fill="#711f34" d="M 56.5,54.5 C 56.7846,59.8591 57.7846,64.8591 59.5,69.5C 59.5,69.8333 59.5,70.1667 59.5,70.5C 59.1667,70.5 58.8333,70.5 58.5,70.5C 56.8333,70.5 55.1667,70.5 53.5,70.5C 53.4142,69.5041 53.7476,68.6708 54.5,68C 53.5842,67.7216 52.9175,67.2216 52.5,66.5C 53.7647,65.4855 54.4313,63.9855 54.5,62C 54.4313,60.0145 53.7647,58.5145 52.5,57.5C 52.5,56.5 52.5,55.5 52.5,54.5C 53.8333,54.5 55.1667,54.5 56.5,54.5 Z"/></g>
<g><path style="opacity:1" fill="#895350" d="M 18.5,63.5 C 18.8333,63.5 19.1667,63.5 19.5,63.5C 20.8333,63.5 21.5,64.1667 21.5,65.5C 18.9483,68.3866 17.2816,71.72 16.5,75.5C 16.1667,75.5 15.8333,75.5 15.5,75.5C 15.5,74.5 15.5,73.5 15.5,72.5C 16.3173,69.3815 17.3173,66.3815 18.5,63.5 Z"/></g>
<g><path style="opacity:1" fill="#3b0a34" d="M 64.5,62.5 C 65.1667,62.5 65.8333,62.5 66.5,62.5C 66.5,63.1667 66.8333,63.5 67.5,63.5C 68.0577,64.7899 69.0577,65.6232 70.5,66C 72.7078,66.1909 74.7078,66.6909 76.5,67.5C 72.5,68.5 68.5,69.5 64.5,70.5C 64.5,69.1667 63.8333,68.5 62.5,68.5C 63.7279,66.9902 63.7279,65.4902 62.5,64C 63.4158,63.7216 64.0825,63.2216 64.5,62.5 Z"/></g>
<g><path style="opacity:1" fill="#321c36" d="M 78.5,63.5 C 79.5676,62.5655 80.901,62.2322 82.5,62.5C 83.209,63.404 84.209,63.7373 85.5,63.5C 83.2314,64.9758 80.8981,66.4758 78.5,68C 79.756,68.4169 80.4226,69.2502 80.5,70.5C 79.1667,69.8333 77.8333,69.1667 76.5,68.5C 76.5,68.1667 76.5,67.8333 76.5,67.5C 74.7078,66.6909 72.7078,66.1909 70.5,66C 69.0577,65.6232 68.0577,64.7899 67.5,63.5C 73.2479,64.8892 76.9145,64.8892 78.5,63.5 Z"/></g>
<g><path style="opacity:1" fill="#694441" d="M 25.5,64.5 C 27.1667,65.5 28.5,66.8333 29.5,68.5C 28.6236,68.3691 27.9569,68.7025 27.5,69.5C 26.4805,71.604 25.4805,73.604 24.5,75.5C 24.3573,73.7376 24.6906,72.0709 25.5,70.5C 24.0908,68.3737 22.4241,68.0404 20.5,69.5C 21.8333,67.5 23.5,65.8333 25.5,64.5 Z"/></g>
<g><path style="opacity:1" fill="#eb6d21" d="M 46.5,57.5 C 47.791,57.2627 48.791,57.596 49.5,58.5C 48.1667,61.1667 48.1667,63.8333 49.5,66.5C 48.6522,67.625 47.6522,67.625 46.5,66.5C 46.6716,65.5084 46.3382,64.8417 45.5,64.5C 46.0199,62.0513 46.3532,59.718 46.5,57.5 Z"/></g>
<g><path style="opacity:1" fill="#923731" d="M 32.5,60.5 C 33.8712,64.7792 35.5378,68.9459 37.5,73C 36.944,73.3826 36.6107,73.8826 36.5,74.5C 35.8333,74.5 35.1667,74.5 34.5,74.5C 33.8916,71.6733 32.8916,69.0067 31.5,66.5C 31.8333,64.5 32.1667,62.5 32.5,60.5 Z"/></g>
<g><path style="opacity:1" fill="#51133c" d="M 42.5,61.5 C 43.8999,62.0998 44.8999,63.0998 45.5,64.5C 46.3382,64.8417 46.6716,65.5084 46.5,66.5C 46.1788,68.0481 45.1788,68.7148 43.5,68.5C 42.6618,68.8417 42.3284,69.5084 42.5,70.5C 41.8333,68.8333 41.1667,67.1667 40.5,65.5C 40.5,65.1667 40.5,64.8333 40.5,64.5C 41.1667,64.5 41.5,64.1667 41.5,63.5C 42.3382,63.1583 42.6716,62.4916 42.5,61.5 Z"/></g>
<g><path style="opacity:1" fill="#b06a4d" d="M 59.5,64.5 C 61.256,65.5521 61.9227,67.2188 61.5,69.5C 61.1583,70.3382 60.4916,70.6716 59.5,70.5C 59.5,70.1667 59.5,69.8333 59.5,69.5C 59.5,67.8333 59.5,66.1667 59.5,64.5 Z"/></g>
<g><path style="opacity:1" fill="#b38872" d="M 10.5,61.5 C 10.8333,61.5 11.1667,61.5 11.5,61.5C 12.2389,61.369 12.9056,61.5357 13.5,62C 11.1088,63.3086 11.1088,64.3086 13.5,65C 12.001,65.8382 11.6676,66.6715 12.5,67.5C 12.5541,69.1937 12.5541,70.8604 12.5,72.5C 11.791,71.596 10.791,71.2627 9.5,71.5C 9.5,69.1667 9.5,66.8333 9.5,64.5C 9.5,64.1667 9.5,63.8333 9.5,63.5C 10.3382,63.1583 10.6716,62.4916 10.5,61.5 Z"/></g>
<g><path style="opacity:1" fill="#a4595b" d="M 17.5,63.5 C 17.8333,63.5 18.1667,63.5 18.5,63.5C 17.3173,66.3815 16.3173,69.3815 15.5,72.5C 14.8571,74.0764 13.8571,75.4097 12.5,76.5C 11.1667,75.1667 11.1667,73.8333 12.5,72.5C 12.5541,70.8604 12.5541,69.1937 12.5,67.5C 14.754,66.8763 16.4206,65.543 17.5,63.5 Z"/></g>
<g><path style="opacity:1" fill="#5a143c" d="M 46.5,66.5 C 47.6522,67.625 48.6522,67.625 49.5,66.5C 50.6737,67.5137 51.3404,68.847 51.5,70.5C 49.8333,70.5 48.1667,70.5 46.5,70.5C 44.8212,70.7148 43.8212,70.0481 43.5,68.5C 45.1788,68.7148 46.1788,68.0481 46.5,66.5 Z"/></g>
<g><path style="opacity:1" fill="#7d282a" d="M 35.5,65.5 C 37.451,65.2267 38.951,65.8934 40,67.5C 40.4643,66.9056 40.631,66.2389 40.5,65.5C 41.1667,67.1667 41.8333,68.8333 42.5,70.5C 42.6716,71.4916 42.3382,72.1583 41.5,72.5C 40.4368,68.667 39.6035,68.667 39,72.5C 37.7383,70.2156 36.5717,67.8823 35.5,65.5 Z"/></g>
<g><path style="opacity:1" fill="#370e33" d="M 46.5,70.5 C 48.1667,70.5 49.8333,70.5 51.5,70.5C 52.1667,70.5 52.8333,70.5 53.5,70.5C 55.1667,70.5 56.8333,70.5 58.5,70.5C 59.1098,71.391 59.4431,72.391 59.5,73.5C 58.6618,73.8417 58.3284,74.5084 58.5,75.5C 56.2646,75.7947 54.2646,75.4614 52.5,74.5C 53.8734,74.6567 55.2068,74.49 56.5,74C 54.2848,73.3097 52.1181,72.4764 50,71.5C 48.8926,71.5852 47.8926,71.9186 47,72.5C 46.5357,71.9056 46.369,71.2389 46.5,70.5 Z"/></g>
<g><path style="opacity:1" fill="#b04140" d="M 76.5,68.5 C 77.8333,69.1667 79.1667,69.8333 80.5,70.5C 82.9034,73.9878 82.9034,77.3211 80.5,80.5C 80.1667,80.5 79.8333,80.5 79.5,80.5C 79.5,79.5 79.5,78.5 79.5,77.5C 79.634,75.7085 79.3007,74.0418 78.5,72.5C 77.3065,71.7281 76.3065,70.7281 75.5,69.5C 75.5,68.8333 75.8333,68.5 76.5,68.5 Z"/></g>
<g><path style="opacity:1" fill="#8b5f56" d="M 24.5,75.5 C 24.5,75.8333 24.5,76.1667 24.5,76.5C 24.1667,76.5 23.8333,76.5 23.5,76.5C 23.631,75.7611 23.4643,75.0944 23,74.5C 21.7949,75.0712 20.6283,75.7379 19.5,76.5C 21.174,78.4301 21.5073,80.4301 20.5,82.5C 19.5,81.8333 18.5,81.1667 17.5,80.5C 17.5,79.5 17.5,78.5 17.5,77.5C 17.9402,74.6202 18.9402,71.9535 20.5,69.5C 22.4241,68.0404 24.0908,68.3737 25.5,70.5C 24.6906,72.0709 24.3573,73.7376 24.5,75.5 Z"/></g>
<g><path style="opacity:1" fill="#390b39" d="M 62.5,68.5 C 63.8333,68.5 64.5,69.1667 64.5,70.5C 64.5,70.8333 64.5,71.1667 64.5,71.5C 63.7321,72.2625 63.2321,73.2625 63,74.5C 61.9887,73.6634 60.8221,73.33 59.5,73.5C 59.4431,72.391 59.1098,71.391 58.5,70.5C 58.8333,70.5 59.1667,70.5 59.5,70.5C 60.4916,70.6716 61.1583,70.3382 61.5,69.5C 62.1667,69.5 62.5,69.1667 62.5,68.5 Z"/></g>
<g><path style="opacity:1" fill="#7c1e3b" d="M 76.5,67.5 C 76.5,67.8333 76.5,68.1667 76.5,68.5C 75.8333,68.5 75.5,68.8333 75.5,69.5C 74.234,70.0899 72.9007,70.5899 71.5,71C 74.7602,73.1046 75.0936,75.2713 72.5,77.5C 71.5084,77.6716 70.8417,77.3382 70.5,76.5C 71.3764,76.6309 72.0431,76.2975 72.5,75.5C 69.9881,74.2054 67.3214,73.5387 64.5,73.5C 64.5,72.8333 64.5,72.1667 64.5,71.5C 64.5,71.1667 64.5,70.8333 64.5,70.5C 68.5,69.5 72.5,68.5 76.5,67.5 Z"/></g>
<g><path style="opacity:1" fill="#2c0f2c" d="M 43.5,68.5 C 43.8212,70.0481 44.8212,70.7148 46.5,70.5C 46.369,71.2389 46.5357,71.9056 47,72.5C 47.8926,71.9186 48.8926,71.5852 50,71.5C 52.1181,72.4764 54.2848,73.3097 56.5,74C 55.2068,74.49 53.8734,74.6567 52.5,74.5C 50.1667,74.5 47.8333,74.5 45.5,74.5C 43.8049,73.1736 42.4716,73.5069 41.5,75.5C 39.2064,75.5284 36.8731,75.1951 34.5,74.5C 35.1667,74.5 35.8333,74.5 36.5,74.5C 38.2838,74.1075 39.9505,73.4408 41.5,72.5C 42.3382,72.1583 42.6716,71.4916 42.5,70.5C 42.3284,69.5084 42.6618,68.8417 43.5,68.5 Z"/></g>
<g><path style="opacity:1" fill="#451732" d="M 75.5,69.5 C 76.3065,70.7281 77.3065,71.7281 78.5,72.5C 77.6618,72.8417 77.3284,73.5084 77.5,74.5C 77.5,75.1667 77.5,75.8333 77.5,76.5C 76.6935,77.7281 75.6935,78.7281 74.5,79.5C 73.1667,79.5 72.5,78.8333 72.5,77.5C 75.0936,75.2713 74.7602,73.1046 71.5,71C 72.9007,70.5899 74.234,70.0899 75.5,69.5 Z"/></g>
<g><path style="opacity:0.486" fill="#393532" d="M 8.5,63.5 C 8.83333,63.5 9.16667,63.5 9.5,63.5C 9.5,63.8333 9.5,64.1667 9.5,64.5C 7.51386,66.9248 6.18052,69.7581 5.5,73C 9.96311,72.1498 10.4631,73.3164 7,76.5C 6.36581,79.5547 6.53248,82.5547 7.5,85.5C 8.16667,86.1667 8.83333,86.8333 9.5,87.5C 9.62867,89.2161 9.962,90.8828 10.5,92.5C 5.80847,87.5015 4.47514,81.6681 6.5,75C 5.48444,74.4806 4.81777,73.6473 4.5,72.5C 5,70.5 5.5,68.5 6,66.5C 6.37675,65.0577 7.21009,64.0577 8.5,63.5 Z"/></g>
<g><path style="opacity:1" fill="#3e2931" d="M 25.5,62.5 C 25.5,63.1667 25.5,63.8333 25.5,64.5C 23.5,65.8333 21.8333,67.5 20.5,69.5C 18.9402,71.9535 17.9402,74.6202 17.5,77.5C 16.6618,77.1583 16.3284,76.4916 16.5,75.5C 17.2816,71.72 18.9483,68.3866 21.5,65.5C 22.8333,64.5 24.1667,63.5 25.5,62.5 Z"/></g>
<g><path style="opacity:1" fill="#4b0f3c" d="M 64.5,71.5 C 64.5,72.1667 64.5,72.8333 64.5,73.5C 64.5,74.5 64.5,75.5 64.5,76.5C 63.5,76.8333 62.8333,77.5 62.5,78.5C 61.8333,78.5 61.5,78.1667 61.5,77.5C 61.1788,75.9519 60.1788,75.2852 58.5,75.5C 58.3284,74.5084 58.6618,73.8417 59.5,73.5C 60.8221,73.33 61.9887,73.6634 63,74.5C 63.2321,73.2625 63.7321,72.2625 64.5,71.5 Z"/></g>
<g><path style="opacity:1" fill="#c44e36" d="M 64.5,73.5 C 67.3214,73.5387 69.9881,74.2054 72.5,75.5C 72.0431,76.2975 71.3764,76.6309 70.5,76.5C 69.1667,76.5 68.5,77.1667 68.5,78.5C 68.5,78.8333 68.5,79.1667 68.5,79.5C 67.4739,78.147 66.1405,77.147 64.5,76.5C 64.5,75.5 64.5,74.5 64.5,73.5 Z"/></g>
<g><path style="opacity:0.176" fill="#1a2421" d="M 78.5,72.5 C 79.3007,74.0418 79.634,75.7085 79.5,77.5C 78.1805,78.9418 76.5138,79.6085 74.5,79.5C 75.6935,78.7281 76.6935,77.7281 77.5,76.5C 78.8333,75.8333 78.8333,75.1667 77.5,74.5C 77.3284,73.5084 77.6618,72.8417 78.5,72.5 Z"/></g>
<g><path style="opacity:1" fill="#9f776b" d="M 23.5,76.5 C 22.1773,80.5977 22.5106,84.5977 24.5,88.5C 24.5,89.1667 24.5,89.8333 24.5,90.5C 22.8712,89.3747 21.3712,88.0414 20,86.5C 19.5439,85.2559 20.0439,84.4226 21.5,84C 20.944,83.6174 20.6107,83.1174 20.5,82.5C 21.5073,80.4301 21.174,78.4301 19.5,76.5C 20.6283,75.7379 21.7949,75.0712 23,74.5C 23.4643,75.0944 23.631,75.7611 23.5,76.5 Z"/></g>
<g><path style="opacity:1" fill="#9e3238" d="M 45.5,74.5 C 47.8333,74.5 50.1667,74.5 52.5,74.5C 54.2646,75.4614 56.2646,75.7947 58.5,75.5C 60.1788,75.2852 61.1788,75.9519 61.5,77.5C 59.2736,75.82 57.6069,76.1534 56.5,78.5C 54.5,78.1667 52.5,77.8333 50.5,77.5C 50.1583,76.6618 49.4916,76.3284 48.5,76.5C 47.5,75.8333 46.5,75.1667 45.5,74.5 Z"/></g>
<g><path style="opacity:1" fill="#de662f" d="M 45.5,74.5 C 46.5,75.1667 47.5,75.8333 48.5,76.5C 45.231,78.1139 43.5643,80.7806 43.5,84.5C 42.71,83.3915 42.21,82.0581 42,80.5C 41.6174,81.056 41.1174,81.3893 40.5,81.5C 41.1495,79.5648 41.4828,77.5648 41.5,75.5C 42.4716,73.5069 43.8049,73.1736 45.5,74.5 Z"/></g>
<g><path style="opacity:1" fill="#ad3939" d="M 61.5,77.5 C 61.5,78.1667 61.8333,78.5 62.5,78.5C 62.5,79.1667 62.5,79.8333 62.5,80.5C 62.5,80.8333 62.5,81.1667 62.5,81.5C 61.1667,80.1667 59.8333,80.1667 58.5,81.5C 58.5,81.1667 58.5,80.8333 58.5,80.5C 57.8333,79.8333 57.1667,79.1667 56.5,78.5C 57.6069,76.1534 59.2736,75.82 61.5,77.5 Z"/></g>
<g><path style="opacity:1" fill="#410b39" d="M 64.5,76.5 C 66.1405,77.147 67.4739,78.147 68.5,79.5C 68.5,79.8333 68.5,80.1667 68.5,80.5C 67.1667,80.5 65.8333,80.5 64.5,80.5C 64.5,81.8333 64.5,83.1667 64.5,84.5C 63.8333,83.1667 63.1667,81.8333 62.5,80.5C 62.5,79.8333 62.5,79.1667 62.5,78.5C 62.8333,77.5 63.5,76.8333 64.5,76.5 Z"/></g>
<g><path style="opacity:1" fill="#a3323f" d="M 70.5,76.5 C 70.8417,77.3382 71.5084,77.6716 72.5,77.5C 72.5,78.8333 73.1667,79.5 74.5,79.5C 76.5138,79.6085 78.1805,78.9418 79.5,77.5C 79.5,78.5 79.5,79.5 79.5,80.5C 75.4278,82.099 71.7611,81.4323 68.5,78.5C 68.5,77.1667 69.1667,76.5 70.5,76.5 Z"/></g>
<g><path style="opacity:1" fill="#8c5653" d="M 15.5,72.5 C 15.5,73.5 15.5,74.5 15.5,75.5C 15.5,78.1667 15.5,80.8333 15.5,83.5C 14.8333,84.5 14.1667,85.5 13.5,86.5C 13.81,83.2869 13.4767,80.2869 12.5,77.5C 12.5,77.1667 12.5,76.8333 12.5,76.5C 13.8571,75.4097 14.8571,74.0764 15.5,72.5 Z"/></g>
<g><path style="opacity:1" fill="#b39179" d="M 11.5,83.5 C 11.1788,85.0481 10.1788,85.7148 8.5,85.5C 8.61986,83.2655 8.28652,81.0989 7.5,79C 7.93042,77.5659 8.76375,76.3992 10,75.5C 11.0793,78.0627 11.5793,80.7294 11.5,83.5 Z"/></g>
<g><path style="opacity:1" fill="#ec6f2b" d="M 50.5,77.5 C 52.5,77.8333 54.5,78.1667 56.5,78.5C 57.1667,79.1667 57.8333,79.8333 58.5,80.5C 57.8333,81.1667 57.1667,81.8333 56.5,82.5C 56.5,81.8333 56.1667,81.5 55.5,81.5C 53.9256,81.9371 52.7589,82.9371 52,84.5C 51.2049,86.5137 50.7049,88.1803 50.5,89.5C 49.8333,89.5 49.1667,89.5 48.5,89.5C 48.4809,87.9397 48.1476,86.4397 47.5,85C 48.5549,83.4928 49.5549,81.9928 50.5,80.5C 50.8356,79.3286 50.8356,78.3286 50.5,77.5 Z"/></g>
<g><path style="opacity:1" fill="#c19b7f" d="M 9.5,64.5 C 9.5,66.8333 9.5,69.1667 9.5,71.5C 10.791,71.2627 11.791,71.596 12.5,72.5C 11.1667,73.8333 11.1667,75.1667 12.5,76.5C 12.5,76.8333 12.5,77.1667 12.5,77.5C 12.7947,79.7354 12.4614,81.7354 11.5,83.5C 11.5793,80.7294 11.0793,78.0627 10,75.5C 8.76375,76.3992 7.93042,77.5659 7.5,79C 8.28652,81.0989 8.61986,83.2655 8.5,85.5C 8.16667,85.5 7.83333,85.5 7.5,85.5C 6.53248,82.5547 6.36581,79.5547 7,76.5C 10.4631,73.3164 9.96311,72.1498 5.5,73C 6.18052,69.7581 7.51386,66.9248 9.5,64.5 Z"/></g>
<g><path style="opacity:1" fill="#fcb028" d="M 48.5,76.5 C 47.6109,78.736 46.2776,80.736 44.5,82.5C 44.6236,83.1067 44.9569,83.44 45.5,83.5C 45.2893,85.4241 44.6226,85.7574 43.5,84.5C 43.5643,80.7806 45.231,78.1139 48.5,76.5 Z"/></g>
<g><path style="opacity:1" fill="#f1682b" d="M 48.5,76.5 C 49.4916,76.3284 50.1583,76.6618 50.5,77.5C 50.8356,78.3286 50.8356,79.3286 50.5,80.5C 48.5887,81.075 46.922,82.075 45.5,83.5C 44.9569,83.44 44.6236,83.1067 44.5,82.5C 46.2776,80.736 47.6109,78.736 48.5,76.5 Z"/></g>
<g><path style="opacity:0.702" fill="#202424" d="M 68.5,80.5 C 70.2303,81.0256 71.5637,82.0256 72.5,83.5C 71.5041,83.5858 70.6708,83.2524 70,82.5C 69.1482,83.5707 68.3149,84.5707 67.5,85.5C 67.6287,83.7839 67.962,82.1172 68.5,80.5 Z"/></g>
<g><path style="opacity:1" fill="#d99b4c" d="M 68.5,78.5 C 71.7611,81.4323 75.4278,82.099 79.5,80.5C 79.8333,80.5 80.1667,80.5 80.5,80.5C 79.8333,81.5 79.1667,82.5 78.5,83.5C 76.5,83.5 74.5,83.5 72.5,83.5C 71.5637,82.0256 70.2303,81.0256 68.5,80.5C 68.5,80.1667 68.5,79.8333 68.5,79.5C 68.5,79.1667 68.5,78.8333 68.5,78.5 Z"/></g>
<g><path style="opacity:0.286" fill="#272526" d="M 80.5,70.5 C 83.7874,73.5785 84.2874,77.2451 82,81.5C 81.1841,82.8228 80.0174,83.4894 78.5,83.5C 79.1667,82.5 79.8333,81.5 80.5,80.5C 82.9034,77.3211 82.9034,73.9878 80.5,70.5 Z"/></g>
<g><path style="opacity:0.8" fill="#57432c" d="M 41.5,75.5 C 41.4828,77.5648 41.1495,79.5648 40.5,81.5C 39.5489,82.9187 39.2155,84.5853 39.5,86.5C 40.791,86.2627 41.791,86.596 42.5,87.5C 41.8333,87.5 41.1667,87.5 40.5,87.5C 37.8325,83.4469 38.1658,79.4469 41.5,75.5 Z"/></g>
<g><path style="opacity:1" fill="#c94a32" d="M 43.5,84.5 C 44.6226,85.7574 45.2893,85.4241 45.5,83.5C 46.922,82.075 48.5887,81.075 50.5,80.5C 49.5549,81.9928 48.5549,83.4928 47.5,85C 48.1476,86.4397 48.4809,87.9397 48.5,89.5C 46.5786,88.6373 44.5786,87.9707 42.5,87.5C 41.791,86.596 40.791,86.2627 39.5,86.5C 39.2155,84.5853 39.5489,82.9187 40.5,81.5C 41.1174,81.3893 41.6174,81.056 42,80.5C 42.21,82.0581 42.71,83.3915 43.5,84.5 Z"/></g>
<g><path style="opacity:1" fill="#6c1b46" d="M 68.5,80.5 C 67.962,82.1172 67.6287,83.7839 67.5,85.5C 66.5,86.8333 65.5,88.1667 64.5,89.5C 64.5,87.8333 64.5,86.1667 64.5,84.5C 64.5,83.1667 64.5,81.8333 64.5,80.5C 65.8333,80.5 67.1667,80.5 68.5,80.5 Z"/></g>
<g><path style="opacity:1" fill="#8f6259" d="M 15.5,83.5 C 16.8007,86.1013 18.134,88.768 19.5,91.5C 17.2274,90.2334 15.2274,88.5667 13.5,86.5C 14.1667,85.5 14.8333,84.5 15.5,83.5 Z"/></g>
<g><path style="opacity:1" fill="#95655b" d="M 17.5,80.5 C 18.5,81.1667 19.5,81.8333 20.5,82.5C 20.6107,83.1174 20.944,83.6174 21.5,84C 20.0439,84.4226 19.5439,85.2559 20,86.5C 21.3712,88.0414 22.8712,89.3747 24.5,90.5C 24.5,91.8333 23.8333,92.5 22.5,92.5C 19.2835,89.1934 17.6168,85.1934 17.5,80.5 Z"/></g>
<g><path style="opacity:0.384" fill="#34312f" d="M 23.5,76.5 C 23.8333,76.5 24.1667,76.5 24.5,76.5C 23.5877,80.4291 23.5877,84.4291 24.5,88.5C 22.5106,84.5977 22.1773,80.5977 23.5,76.5 Z"/></g>
<g><path style="opacity:1" fill="#be4532" d="M 55.5,81.5 C 54.5863,84.728 54.2529,88.0613 54.5,91.5C 53.0048,91.0113 51.6715,90.3446 50.5,89.5C 50.7049,88.1803 51.2049,86.5137 52,84.5C 52.7589,82.9371 53.9256,81.9371 55.5,81.5 Z"/></g>
<g><path style="opacity:1" fill="#f2762a" d="M 55.5,81.5 C 56.1667,81.5 56.5,81.8333 56.5,82.5C 56.3573,84.2624 56.6906,85.9291 57.5,87.5C 56.3698,88.6223 55.7031,89.9557 55.5,91.5C 55.1667,91.5 54.8333,91.5 54.5,91.5C 54.2529,88.0613 54.5863,84.728 55.5,81.5 Z"/></g>
<g><path style="opacity:1" fill="#eb6e2b" d="M 62.5,81.5 C 62.68,85.2856 61.68,88.619 59.5,91.5C 58.0765,88.2876 57.7431,84.9543 58.5,81.5C 59.8333,80.1667 61.1667,80.1667 62.5,81.5 Z"/></g>
<g><path style="opacity:1" fill="#6a474a" d="M 15.5,75.5 C 15.8333,75.5 16.1667,75.5 16.5,75.5C 16.3284,76.4916 16.6618,77.1583 17.5,77.5C 17.5,78.5 17.5,79.5 17.5,80.5C 17.6168,85.1934 19.2835,89.1934 22.5,92.5C 22.1667,92.5 21.8333,92.5 21.5,92.5C 20.8333,92.1667 20.1667,91.8333 19.5,91.5C 18.134,88.768 16.8007,86.1013 15.5,83.5C 15.5,80.8333 15.5,78.1667 15.5,75.5 Z"/></g>
<g><path style="opacity:1" fill="#a47f67" d="M 12.5,77.5 C 13.4767,80.2869 13.81,83.2869 13.5,86.5C 15.2274,88.5667 17.2274,90.2334 19.5,91.5C 20.1667,91.8333 20.8333,92.1667 21.5,92.5C 21.5,92.8333 21.5,93.1667 21.5,93.5C 20.0357,92.5946 18.7024,92.5946 17.5,93.5C 16.3778,92.0527 14.8778,91.0527 13,90.5C 12.3333,89.1667 11.6667,87.8333 11,86.5C 10.6174,87.056 10.1174,87.3893 9.5,87.5C 8.83333,86.8333 8.16667,86.1667 7.5,85.5C 7.83333,85.5 8.16667,85.5 8.5,85.5C 10.1788,85.7148 11.1788,85.0481 11.5,83.5C 12.4614,81.7354 12.7947,79.7354 12.5,77.5 Z"/></g>
<g><path style="opacity:1" fill="#b73e34" d="M 58.5,80.5 C 58.5,80.8333 58.5,81.1667 58.5,81.5C 57.7431,84.9543 58.0765,88.2876 59.5,91.5C 59.5,92.1667 59.1667,92.5 58.5,92.5C 57.391,92.4431 56.391,92.1098 55.5,91.5C 55.7031,89.9557 56.3698,88.6223 57.5,87.5C 56.6906,85.9291 56.3573,84.2624 56.5,82.5C 57.1667,81.8333 57.8333,81.1667 58.5,80.5 Z"/></g>
<g><path style="opacity:0.337" fill="#262423" d="M 40.5,87.5 C 41.1667,87.5 41.8333,87.5 42.5,87.5C 44.5786,87.9707 46.5786,88.6373 48.5,89.5C 49.1667,89.5 49.8333,89.5 50.5,89.5C 51.6715,90.3446 53.0048,91.0113 54.5,91.5C 54.8333,91.5 55.1667,91.5 55.5,91.5C 56.391,92.1098 57.391,92.4431 58.5,92.5C 58.5,92.8333 58.5,93.1667 58.5,93.5C 52.2332,92.0778 46.2332,90.0778 40.5,87.5 Z"/></g>
<g><path style="opacity:1" fill="#6e123f" d="M 62.5,80.5 C 63.1667,81.8333 63.8333,83.1667 64.5,84.5C 64.5,86.1667 64.5,87.8333 64.5,89.5C 63.8784,92.7756 61.8784,94.1089 58.5,93.5C 58.5,93.1667 58.5,92.8333 58.5,92.5C 59.1667,92.5 59.5,92.1667 59.5,91.5C 61.68,88.619 62.68,85.2856 62.5,81.5C 62.5,81.1667 62.5,80.8333 62.5,80.5 Z"/></g>
<g><path style="opacity:1" fill="#be9d86" d="M 17.5,93.5 C 16.2652,93.7214 15.2652,94.3881 14.5,95.5C 13.1482,94.4756 11.8149,93.4756 10.5,92.5C 9.962,90.8828 9.62867,89.2161 9.5,87.5C 10.1174,87.3893 10.6174,87.056 11,86.5C 11.6667,87.8333 12.3333,89.1667 13,90.5C 14.8778,91.0527 16.3778,92.0527 17.5,93.5 Z"/></g>
<g><path style="opacity:0.761" fill="#262927" d="M 67.5,85.5 C 66.9292,88.4769 65.9292,91.3103 64.5,94C 62.2884,94.7891 60.2884,94.6225 58.5,93.5C 61.8784,94.1089 63.8784,92.7756 64.5,89.5C 65.5,88.1667 66.5,86.8333 67.5,85.5 Z"/></g>
<g><path style="opacity:0.043" fill="#242322" d="M 10.5,92.5 C 11.8149,93.4756 13.1482,94.4756 14.5,95.5C 15.2652,94.3881 16.2652,93.7214 17.5,93.5C 17.366,95.2915 17.6993,96.9582 18.5,98.5C 17.2652,98.2786 16.2652,97.6119 15.5,96.5C 14.914,96.7093 14.414,97.0426 14,97.5C 12.1978,96.2107 11.0312,94.5441 10.5,92.5 Z"/></g>
<g><path style="opacity:1" fill="#c0977d" d="M 21.5,93.5 C 23.3715,96.2566 25.7048,97.59 28.5,97.5C 25.2317,98.487 21.8984,98.8204 18.5,98.5C 17.6993,96.9582 17.366,95.2915 17.5,93.5C 18.7024,92.5946 20.0357,92.5946 21.5,93.5 Z"/></g>
<g><path style="opacity:1" fill="#6a554b" d="M 24.5,88.5 C 27.2781,91.7214 29.2781,95.3881 30.5,99.5C 26.5,99.5 22.5,99.5 18.5,99.5C 18.5,99.1667 18.5,98.8333 18.5,98.5C 21.8984,98.8204 25.2317,98.487 28.5,97.5C 25.7048,97.59 23.3715,96.2566 21.5,93.5C 21.5,93.1667 21.5,92.8333 21.5,92.5C 21.8333,92.5 22.1667,92.5 22.5,92.5C 23.8333,92.5 24.5,91.8333 24.5,90.5C 24.5,89.8333 24.5,89.1667 24.5,88.5 Z"/></g>
</svg>
