<?xml version="1.0" encoding="UTF-8"?>
<!DOCTYPE svg PUBLIC "-//W3C//DTD SVG 1.1//EN" "http://www.w3.org/Graphics/SVG/1.1/DTD/svg11.dtd">
<svg xmlns="http://www.w3.org/2000/svg" version="1.1" width="100px" height="100px" style="shape-rendering:geometricPrecision; text-rendering:geometricPrecision; image-rendering:optimizeQuality; fill-rule:evenodd; clip-rule:evenodd" xmlns:xlink="http://www.w3.org/1999/xlink">
<g><path style="opacity:1" fill="#4b979b" d="M 5.5,-0.5 C 6.83333,-0.5 8.16667,-0.5 9.5,-0.5C 10.3065,0.728127 11.3065,1.72813 12.5,2.5C 12.3016,4.57529 12.1349,6.57529 12,8.5C 13.0391,7.2899 14.2058,6.2899 15.5,5.5C 15.0805,7.09362 14.4138,8.59362 13.5,10C 14.2865,12.0989 14.6199,14.2655 14.5,16.5C 14.5,16.8333 14.5,17.1667 14.5,17.5C 13.8365,15.9581 13.1698,14.2914 12.5,12.5C 11.7492,13.376 11.2492,14.376 11,15.5C 9.41378,13.3295 8.08044,10.9962 7,8.5C 6.78997,10.0581 6.28997,11.3915 5.5,12.5C 4.6829,10.0314 4.1829,7.36469 4,4.5C 3.61742,5.05596 3.11742,5.38929 2.5,5.5C 3.47061,3.5168 4.47061,1.5168 5.5,-0.5 Z"/></g>
<g><path style="opacity:0.063" fill="#1a1a1a" d="M 12.5,2.5 C 13.5,3.5 14.5,4.5 15.5,5.5C 14.2058,6.2899 13.0391,7.2899 12,8.5C 12.1349,6.57529 12.3016,4.57529 12.5,2.5 Z"/></g>
<g><path style="opacity:1" fill="#88d5be" d="M 5.5,12.5 C 5.66212,14.5273 5.49546,16.5273 5,18.5C 3.51869,17.5291 2.68535,16.1958 2.5,14.5C 2.76176,11.7484 2.76176,8.74839 2.5,5.5C 3.11742,5.38929 3.61742,5.05596 4,4.5C 4.1829,7.36469 4.6829,10.0314 5.5,12.5 Z"/></g>
<g><path style="opacity:0.22" fill="#100e0e" d="M 2.5,5.5 C 2.76176,8.74839 2.76176,11.7484 2.5,14.5C 2.5,13.8333 2.16667,13.5 1.5,13.5C 1.44312,12.391 1.10978,11.391 0.5,10.5C 1.16667,8.83333 1.83333,7.16667 2.5,5.5 Z"/></g>
<g><path style="opacity:0.647" fill="#4e3a34" d="M 33.5,13.5 C 35.9664,12.3659 38.633,12.1993 41.5,13C 42.3805,13.7083 43.0472,14.5416 43.5,15.5C 43.5,15.8333 43.5,16.1667 43.5,16.5C 42.1667,15.5 40.8333,14.5 39.5,13.5C 38.1667,13.5 37.5,14.1667 37.5,15.5C 36.5326,14.1938 35.1993,13.5271 33.5,13.5 Z"/></g>
<g><path style="opacity:1" fill="#4a839a" d="M 14.5,17.5 C 14.0472,18.4584 13.3805,19.2917 12.5,20C 14.3336,22.6633 16.3336,25.1633 18.5,27.5C 16.2459,26.5849 14.2459,25.2516 12.5,23.5C 7.9711,23.5039 4.4711,21.5039 2,17.5C 1.50999,16.2068 1.34332,14.8734 1.5,13.5C 2.16667,13.5 2.5,13.8333 2.5,14.5C 2.68535,16.1958 3.51869,17.5291 5,18.5C 5.49546,16.5273 5.66212,14.5273 5.5,12.5C 6.28997,11.3915 6.78997,10.0581 7,8.5C 8.08044,10.9962 9.41378,13.3295 11,15.5C 11.2492,14.376 11.7492,13.376 12.5,12.5C 13.1698,14.2914 13.8365,15.9581 14.5,17.5 Z"/></g>
<g><path style="opacity:1" fill="#28363f" d="M 55.5,15.5 C 53.3926,16.4682 51.0593,16.8016 48.5,16.5C 48.5,16.1667 48.5,15.8333 48.5,15.5C 51.1019,14.5337 53.4352,14.5337 55.5,15.5 Z"/></g>
<g><path style="opacity:1" fill="#446b87" d="M 19.5,8.5 C 21.0269,8.42702 22.0269,9.09368 22.5,10.5C 23.473,14.1003 25.6397,16.7669 29,18.5C 28.861,22.787 28.6943,26.787 28.5,30.5C 25.0044,29.2516 22.0044,27.2516 19.5,24.5C 21.2982,21.7107 21.7982,18.7107 21,15.5C 20.8019,17.3817 20.3019,19.0484 19.5,20.5C 20.4834,15.6673 20.4834,11.6673 19.5,8.5 Z"/></g>
<g><path style="opacity:1" fill="#f4b881" d="M 39.5,13.5 C 40.2096,17.3468 41.3762,21.0135 43,24.5C 43.3333,29.5 43.6667,34.5 44,39.5C 45.9917,40.6647 47.825,41.998 49.5,43.5C 49.6716,44.4916 49.3382,45.1583 48.5,45.5C 45.4328,43.8785 42.5995,41.8785 40,39.5C 39.9395,31.3633 39.1062,23.3633 37.5,15.5C 37.5,14.1667 38.1667,13.5 39.5,13.5 Z"/></g>
<g><path style="opacity:1" fill="#4baebf" d="M 76.5,17.5 C 74.5808,19.478 72.7475,21.478 71,23.5C 68.5003,22.8424 68.0003,21.5091 69.5,19.5C 70.6266,18.8783 71.6266,18.045 72.5,17C 74.0657,16.235 75.3991,16.4017 76.5,17.5 Z"/></g>
<g><path style="opacity:1" fill="#422857" d="M 64.5,16.5 C 65.8333,16.5 67.1667,16.5 68.5,16.5C 68.2627,17.791 68.596,18.791 69.5,19.5C 68.0003,21.5091 68.5003,22.8424 71,23.5C 72.7475,21.478 74.5808,19.478 76.5,17.5C 78.8333,17.5 81.1667,17.5 83.5,17.5C 83.3677,20.5701 83.701,23.5701 84.5,26.5C 81.8333,26.5 79.1667,26.5 76.5,26.5C 73.6122,25.9898 71.2789,26.6565 69.5,28.5C 68.8333,28.5 68.1667,28.5 67.5,28.5C 68.4286,26.6783 67.7619,25.3449 65.5,24.5C 65.7214,21.7212 65.388,19.0545 64.5,16.5 Z"/></g>
<g><path style="opacity:1" fill="#418297" d="M 15.5,5.5 C 17.4044,5.73758 18.7377,6.73758 19.5,8.5C 20.4834,11.6673 20.4834,15.6673 19.5,20.5C 18.5577,25.3669 16.891,25.3669 14.5,20.5C 15.7053,19.0052 15.7053,17.6719 14.5,16.5C 14.6199,14.2655 14.2865,12.0989 13.5,10C 14.4138,8.59362 15.0805,7.09362 15.5,5.5 Z"/></g>
<g><path style="opacity:1" fill="#3f6196" d="M 75.5,19.5 C 77.0843,20.3818 78.751,21.2152 80.5,22C 79.0696,23.4404 77.403,23.7737 75.5,23C 74.3157,21.8545 74.3157,20.6879 75.5,19.5 Z"/></g>
<g><path style="opacity:1" fill="#45647a" d="M 55.5,15.5 C 57.8333,15.5 60.1667,15.5 62.5,15.5C 62.8333,17.5 63.1667,19.5 63.5,21.5C 62.6981,22.9516 62.1981,24.6183 62,26.5C 61.6924,25.6919 61.1924,25.0253 60.5,24.5C 56.8923,25.4512 56.8923,24.6179 60.5,22C 58.2028,22.1116 56.5361,23.2783 55.5,25.5C 54.4693,24.645 53.3026,23.9783 52,23.5C 50.9701,23.8361 50.4701,24.5028 50.5,25.5C 50.1667,25.5 49.8333,25.5 49.5,25.5C 48.701,22.5701 48.3677,19.5701 48.5,16.5C 51.0593,16.8016 53.3926,16.4682 55.5,15.5 Z"/></g>
<g><path style="opacity:1" fill="#c4ad8f" d="M 62.5,15.5 C 63.1667,15.5 63.8333,15.5 64.5,15.5C 64.5,15.8333 64.5,16.1667 64.5,16.5C 65.388,19.0545 65.7214,21.7212 65.5,24.5C 63.9519,24.1788 63.2852,23.1788 63.5,21.5C 63.1667,19.5 62.8333,17.5 62.5,15.5 Z"/></g>
<g><path style="opacity:1" fill="#51a5a4" d="M -0.5,10.5 C -0.166667,10.5 0.166667,10.5 0.5,10.5C 1.10978,11.391 1.44312,12.391 1.5,13.5C 1.34332,14.8734 1.50999,16.2068 2,17.5C 4.4711,21.5039 7.9711,23.5039 12.5,23.5C 12.5,24.1667 12.5,24.8333 12.5,25.5C 9.55247,25.2229 6.71914,25.5562 4,26.5C 3.58309,25.244 2.74975,24.5774 1.5,24.5C 0.833333,23.8333 0.166667,23.1667 -0.5,22.5C -0.5,18.5 -0.5,14.5 -0.5,10.5 Z"/></g>
<g><path style="opacity:1" fill="#455f77" d="M 33.5,20.5 C 33.1916,24.3597 32.5249,28.0264 31.5,31.5C 29.8638,27.3517 30.5305,23.685 33.5,20.5 Z"/></g>
<g><path style="opacity:1" fill="#591d4b" d="M 33.5,13.5 C 35.1993,13.5271 36.5326,14.1938 37.5,15.5C 39.1062,23.3633 39.9395,31.3633 40,39.5C 42.5995,41.8785 45.4328,43.8785 48.5,45.5C 49.7563,47.941 49.7563,50.2743 48.5,52.5C 48.7845,50.5853 48.4511,48.9187 47.5,47.5C 45.2359,45.6863 42.9025,43.853 40.5,42C 38.4024,41.3224 36.4024,41.4891 34.5,42.5C 34.1667,42.5 33.8333,42.5 33.5,42.5C 32.791,41.596 31.791,41.2627 30.5,41.5C 31.7358,39.9572 33.4024,38.9572 35.5,38.5C 36.8995,32.3696 36.5662,26.3696 34.5,20.5C 34.0997,18.6233 33.0997,17.1233 31.5,16C 32.0556,14.9889 32.7222,14.1556 33.5,13.5 Z"/></g>
<g><path style="opacity:1" fill="#a5414c" d="M 39.5,13.5 C 40.8333,14.5 42.1667,15.5 43.5,16.5C 45.1189,23.3628 45.9522,30.3628 46,37.5C 49.0738,39.0708 51.2405,41.4042 52.5,44.5C 51.609,43.8902 50.609,43.5569 49.5,43.5C 47.825,41.998 45.9917,40.6647 44,39.5C 43.6667,34.5 43.3333,29.5 43,24.5C 41.3762,21.0135 40.2096,17.3468 39.5,13.5 Z"/></g>
<g><path style="opacity:0.325" fill="#342636" d="M 64.5,16.5 C 64.5,16.1667 64.5,15.8333 64.5,15.5C 71.1908,15.4542 77.8574,15.7875 84.5,16.5C 84.4596,22.6026 85.7929,28.2693 88.5,33.5C 87.1667,33.5 85.8333,33.5 84.5,33.5C 84.5,31.8333 84.5,30.1667 84.5,28.5C 84.5,27.8333 84.5,27.1667 84.5,26.5C 83.701,23.5701 83.3677,20.5701 83.5,17.5C 81.1667,17.5 78.8333,17.5 76.5,17.5C 75.3991,16.4017 74.0657,16.235 72.5,17C 71.6266,18.045 70.6266,18.8783 69.5,19.5C 68.596,18.791 68.2627,17.791 68.5,16.5C 67.1667,16.5 65.8333,16.5 64.5,16.5 Z"/></g>
<g><path style="opacity:1" fill="#418699" d="M 1.5,24.5 C 2.74975,24.5774 3.58309,25.244 4,26.5C 6.71914,25.5562 9.55247,25.2229 12.5,25.5C 13.2891,25.7828 13.9558,26.2828 14.5,27C 13.0577,27.3768 12.0577,28.2101 11.5,29.5C 10.209,29.2627 9.20895,29.596 8.5,30.5C 7.16667,30.1667 5.83333,29.8333 4.5,29.5C 3.24848,27.9991 2.24848,26.3325 1.5,24.5 Z"/></g>
<g><path style="opacity:1" fill="#262348" d="M 33.5,20.5 C 33.8333,20.5 34.1667,20.5 34.5,20.5C 36.5662,26.3696 36.8995,32.3696 35.5,38.5C 33.4024,38.9572 31.7358,39.9572 30.5,41.5C 30.1667,41.5 29.8333,41.5 29.5,41.5C 27.7839,41.6287 26.1172,41.962 24.5,42.5C 26.7053,40.6366 28.0387,38.3033 28.5,35.5C 30.3664,36.0138 32.1997,36.6805 34,37.5C 34.5,37.3333 35,37.1667 35.5,37C 34.5842,36.7216 33.9175,36.2216 33.5,35.5C 34.3764,35.6309 35.0431,35.2975 35.5,34.5C 33.6684,33.9432 32.3351,32.9432 31.5,31.5C 32.5249,28.0264 33.1916,24.3597 33.5,20.5 Z"/></g>
<g><path style="opacity:1" fill="#e1cd9e" d="M 65.5,24.5 C 67.7619,25.3449 68.4286,26.6783 67.5,28.5C 66.8333,28.5 66.1667,28.5 65.5,28.5C 64.1667,27.1667 64.1667,25.8333 65.5,24.5 Z"/></g>
<g><path style="opacity:1" fill="#33224a" d="M 22.5,10.5 C 24.1494,11.6485 25.6494,12.9818 27,14.5C 29.0989,13.7135 31.2655,13.3801 33.5,13.5C 32.7222,14.1556 32.0556,14.9889 31.5,16C 33.0997,17.1233 34.0997,18.6233 34.5,20.5C 34.1667,20.5 33.8333,20.5 33.5,20.5C 30.5305,23.685 29.8638,27.3517 31.5,31.5C 30.209,31.7373 29.209,31.404 28.5,30.5C 28.6943,26.787 28.861,22.787 29,18.5C 25.6397,16.7669 23.473,14.1003 22.5,10.5 Z"/></g>
<g><path style="opacity:1" fill="#455972" d="M 63.5,21.5 C 63.2852,23.1788 63.9519,24.1788 65.5,24.5C 64.1667,25.8333 64.1667,27.1667 65.5,28.5C 64.6768,31.6838 64.0101,35.0172 63.5,38.5C 61.6644,40.588 59.3311,41.9213 56.5,42.5C 56.7678,40.901 56.4345,39.5676 55.5,38.5C 56.1098,37.609 56.4431,36.609 56.5,35.5C 57.1635,37.0419 57.8302,38.7086 58.5,40.5C 60.2705,39.9646 60.6039,39.1313 59.5,38C 63.2229,36.9609 63.2229,35.7942 59.5,34.5C 61.9935,34.8693 62.6602,34.2027 61.5,32.5C 62.0431,32.44 62.3764,32.1067 62.5,31.5C 61.6086,30.4104 60.6086,30.4104 59.5,31.5C 57.7484,29.7541 56.4151,27.7541 55.5,25.5C 56.5361,23.2783 58.2028,22.1116 60.5,22C 56.8923,24.6179 56.8923,25.4512 60.5,24.5C 61.1924,25.0253 61.6924,25.6919 62,26.5C 62.1981,24.6183 62.6981,22.9516 63.5,21.5 Z"/></g>
<g><path style="opacity:1" fill="#e89dae" d="M 52.5,26.5 C 54.2624,27.2623 55.2624,28.5956 55.5,30.5C 54.8333,30.1667 54.1667,29.8333 53.5,29.5C 52.6016,28.8423 51.6016,28.1757 50.5,27.5C 50.9569,26.7025 51.6236,26.3691 52.5,26.5 Z"/></g>
<g><path style="opacity:1" fill="#c68a7c" d="M 76.5,26.5 C 76.5,27.1667 76.5,27.8333 76.5,28.5C 75.1667,28.5 73.8333,28.5 72.5,28.5C 71.5,28.5 70.5,28.5 69.5,28.5C 71.2789,26.6565 73.6122,25.9898 76.5,26.5 Z"/></g>
<g><path style="opacity:1" fill="#9c4969" d="M 76.5,26.5 C 79.1667,26.5 81.8333,26.5 84.5,26.5C 84.5,27.1667 84.5,27.8333 84.5,28.5C 81.8333,28.5 79.1667,28.5 76.5,28.5C 76.5,27.8333 76.5,27.1667 76.5,26.5 Z"/></g>
<g><path style="opacity:1" fill="#3a5d80" d="M 12.5,23.5 C 14.2459,25.2516 16.2459,26.5849 18.5,27.5C 20.7488,28.0798 22.4154,29.4131 23.5,31.5C 22.5041,31.5858 21.6708,31.2524 21,30.5C 20.5831,31.756 19.7498,32.4226 18.5,32.5C 16.0248,31.8686 13.6915,30.8686 11.5,29.5C 12.0577,28.2101 13.0577,27.3768 14.5,27C 13.9558,26.2828 13.2891,25.7828 12.5,25.5C 12.5,24.8333 12.5,24.1667 12.5,23.5 Z"/></g>
<g><path style="opacity:1" fill="#2a1745" d="M 28.5,30.5 C 29.209,31.404 30.209,31.7373 31.5,31.5C 32.3351,32.9432 33.6684,33.9432 35.5,34.5C 35.0431,35.2975 34.3764,35.6309 33.5,35.5C 30.1667,34.1667 26.8333,32.8333 23.5,31.5C 22.4154,29.4131 20.7488,28.0798 18.5,27.5C 16.3336,25.1633 14.3336,22.6633 12.5,20C 13.3805,19.2917 14.0472,18.4584 14.5,17.5C 14.5,17.1667 14.5,16.8333 14.5,16.5C 15.7053,17.6719 15.7053,19.0052 14.5,20.5C 16.891,25.3669 18.5577,25.3669 19.5,20.5C 20.3019,19.0484 20.8019,17.3817 21,15.5C 21.7982,18.7107 21.2982,21.7107 19.5,24.5C 22.0044,27.2516 25.0044,29.2516 28.5,30.5 Z"/></g>
<g><path style="opacity:1" fill="#3f1940" d="M 43.5,15.5 C 45.1667,15.5 46.8333,15.5 48.5,15.5C 48.5,15.8333 48.5,16.1667 48.5,16.5C 48.3677,19.5701 48.701,22.5701 49.5,25.5C 49.8916,28.1457 49.8916,30.6457 49.5,33C 51.0657,33.2997 52.399,32.7997 53.5,31.5C 54.0431,31.56 54.3764,31.8933 54.5,32.5C 53.4756,33.8518 52.4756,35.1851 51.5,36.5C 51.9577,39.3091 53.2911,39.9758 55.5,38.5C 56.4345,39.5676 56.7678,40.901 56.5,42.5C 55.8333,43.1667 55.1667,43.8333 54.5,44.5C 53.8333,44.5 53.1667,44.5 52.5,44.5C 51.2405,41.4042 49.0738,39.0708 46,37.5C 45.9522,30.3628 45.1189,23.3628 43.5,16.5C 43.5,16.1667 43.5,15.8333 43.5,15.5 Z"/></g>
<g><path style="opacity:1" fill="#92436c" d="M 49.5,25.5 C 49.8333,25.5 50.1667,25.5 50.5,25.5C 51.4916,25.3284 52.1583,25.6618 52.5,26.5C 51.6236,26.3691 50.9569,26.7025 50.5,27.5C 51.6016,28.1757 52.6016,28.8423 53.5,29.5C 53.5,30.1667 53.5,30.8333 53.5,31.5C 52.399,32.7997 51.0657,33.2997 49.5,33C 49.8916,30.6457 49.8916,28.1457 49.5,25.5 Z"/></g>
<g><path style="opacity:1" fill="#3d5671" d="M 65.5,28.5 C 66.1667,28.5 66.8333,28.5 67.5,28.5C 68.1667,28.5 68.8333,28.5 69.5,28.5C 70.5,28.5 71.5,28.5 72.5,28.5C 72.5,29.5 72.5,30.5 72.5,31.5C 72.5,31.8333 72.5,32.1667 72.5,32.5C 69.5,34.5 66.5,36.5 63.5,38.5C 64.0101,35.0172 64.6768,31.6838 65.5,28.5 Z"/></g>
<g><path style="opacity:1" fill="#93cac4" d="M 11.5,29.5 C 13.6915,30.8686 16.0248,31.8686 18.5,32.5C 17.8333,32.5 17.1667,32.5 16.5,32.5C 13.5049,32.7062 10.8383,32.0395 8.5,30.5C 9.20895,29.596 10.209,29.2627 11.5,29.5 Z"/></g>
<g><path style="opacity:1" fill="#34153f" d="M 72.5,28.5 C 73.8333,28.5 75.1667,28.5 76.5,28.5C 79.1667,28.5 81.8333,28.5 84.5,28.5C 84.5,30.1667 84.5,31.8333 84.5,33.5C 85.8333,33.5 87.1667,33.5 88.5,33.5C 91.3141,35.6811 94.3141,37.3477 97.5,38.5C 94.4116,37.9315 91.4116,37.9315 88.5,38.5C 87.5429,44.439 87.2096,50.439 87.5,56.5C 86.6981,55.0484 86.1981,53.3817 86,51.5C 85.6174,52.056 85.1174,52.3893 84.5,52.5C 83.5,51.8333 82.5,51.1667 81.5,50.5C 81.5,49.8333 81.5,49.1667 81.5,48.5C 82.4584,48.0472 83.2917,47.3805 84,46.5C 84.8673,42.0442 84.5339,37.7109 83,33.5C 82.5,33 82,32.5 81.5,32C 78.5184,31.502 75.5184,31.3354 72.5,31.5C 72.5,30.5 72.5,29.5 72.5,28.5 Z"/></g>
<g><path style="opacity:1" fill="#771937" d="M 61.5,32.5 C 62.6602,34.2027 61.9935,34.8693 59.5,34.5C 59.5,33.1667 60.1667,32.5 61.5,32.5 Z"/></g>
<g><path style="opacity:1" fill="#38507d" d="M 23.5,31.5 C 26.8333,32.8333 30.1667,34.1667 33.5,35.5C 33.9175,36.2216 34.5842,36.7216 35.5,37C 35,37.1667 34.5,37.3333 34,37.5C 32.1997,36.6805 30.3664,36.0138 28.5,35.5C 27.7387,34.6091 26.7387,33.9424 25.5,33.5C 24.6733,35.162 23.5067,36.4954 22,37.5C 22.0773,36.2624 21.9106,35.2624 21.5,34.5C 19.2324,35.5443 16.8991,35.711 14.5,35C 15.4158,34.7216 16.0825,34.2216 16.5,33.5C 16.5,33.1667 16.5,32.8333 16.5,32.5C 17.1667,32.5 17.8333,32.5 18.5,32.5C 19.7498,32.4226 20.5831,31.756 21,30.5C 21.6708,31.2524 22.5041,31.5858 23.5,31.5 Z"/></g>
<g><path style="opacity:1" fill="#e03c4f" d="M 53.5,29.5 C 54.1667,29.8333 54.8333,30.1667 55.5,30.5C 55.5,31.1667 55.5,31.8333 55.5,32.5C 55.5,33.8333 55.5,35.1667 55.5,36.5C 54.1667,36.5 52.8333,36.5 51.5,36.5C 52.4756,35.1851 53.4756,33.8518 54.5,32.5C 54.3764,31.8933 54.0431,31.56 53.5,31.5C 53.5,30.8333 53.5,30.1667 53.5,29.5 Z"/></g>
<g><path style="opacity:1" fill="#3b7588" d="M 55.5,25.5 C 56.4151,27.7541 57.7484,29.7541 59.5,31.5C 60.6086,30.4104 61.6086,30.4104 62.5,31.5C 62.3764,32.1067 62.0431,32.44 61.5,32.5C 60.1667,32.5 59.5,33.1667 59.5,34.5C 63.2229,35.7942 63.2229,36.9609 59.5,38C 60.6039,39.1313 60.2705,39.9646 58.5,40.5C 57.8302,38.7086 57.1635,37.0419 56.5,35.5C 56.7373,34.209 56.404,33.209 55.5,32.5C 55.5,31.8333 55.5,31.1667 55.5,30.5C 55.2624,28.5956 54.2624,27.2623 52.5,26.5C 52.1583,25.6618 51.4916,25.3284 50.5,25.5C 50.4701,24.5028 50.9701,23.8361 52,23.5C 53.3026,23.9783 54.4693,24.645 55.5,25.5 Z"/></g>
<g><path style="opacity:1" fill="#e3a494" d="M 55.5,32.5 C 56.404,33.209 56.7373,34.209 56.5,35.5C 56.4431,36.609 56.1098,37.609 55.5,38.5C 53.2911,39.9758 51.9577,39.3091 51.5,36.5C 52.8333,36.5 54.1667,36.5 55.5,36.5C 55.5,35.1667 55.5,33.8333 55.5,32.5 Z"/></g>
<g><path style="opacity:1" fill="#2c3869" d="M 16.5,33.5 C 16.0825,34.2216 15.4158,34.7216 14.5,35C 16.8991,35.711 19.2324,35.5443 21.5,34.5C 21.9106,35.2624 22.0773,36.2624 22,37.5C 23.5067,36.4954 24.6733,35.162 25.5,33.5C 26.7387,33.9424 27.7387,34.6091 28.5,35.5C 28.0387,38.3033 26.7053,40.6366 24.5,42.5C 23.5,42.5 22.5,42.5 21.5,42.5C 20.7101,41.2058 19.7101,40.0391 18.5,39C 18.9574,38.586 19.2907,38.086 19.5,37.5C 16.4435,37.0618 13.7769,35.8951 11.5,34C 13.1341,33.5065 14.8008,33.3398 16.5,33.5 Z"/></g>
<g><path style="opacity:1" fill="#dd9876" d="M 72.5,32.5 C 81.3285,31.8393 84.4951,35.8393 82,44.5C 81.1627,46.0074 79.9961,46.5074 78.5,46C 77.2173,41.8798 74.5507,39.3798 70.5,38.5C 71.7997,37.399 72.2997,36.0657 72,34.5C 68.5354,36.9626 65.3688,39.7959 62.5,43C 59.8832,43.8215 57.2165,44.3215 54.5,44.5C 55.1667,43.8333 55.8333,43.1667 56.5,42.5C 59.3311,41.9213 61.6644,40.588 63.5,38.5C 66.5,36.5 69.5,34.5 72.5,32.5 Z"/></g>
<g><path style="opacity:0.431" fill="#282f3c" d="M 4.5,29.5 C 5.83333,29.8333 7.16667,30.1667 8.5,30.5C 10.8383,32.0395 13.5049,32.7062 16.5,32.5C 16.5,32.8333 16.5,33.1667 16.5,33.5C 14.8008,33.3398 13.1341,33.5065 11.5,34C 13.7769,35.8951 16.4435,37.0618 19.5,37.5C 19.2907,38.086 18.9574,38.586 18.5,39C 19.7101,40.0391 20.7101,41.2058 21.5,42.5C 14.9499,39.2785 9.28328,34.9451 4.5,29.5 Z"/></g>
<g><path style="opacity:1" fill="#270d20" d="M 70.5,39.5 C 72.371,39.8588 73.871,40.8588 75,42.5C 75.79,46.128 77.9567,48.128 81.5,48.5C 81.5,49.1667 81.5,49.8333 81.5,50.5C 78.6333,50.3692 76.9666,51.7026 76.5,54.5C 75.6618,54.8417 75.3284,55.5084 75.5,56.5C 74.078,57.925 72.4113,58.925 70.5,59.5C 68.5159,59.516 67.5159,58.516 67.5,56.5C 67.4534,54.9623 68.1201,53.9623 69.5,53.5C 70.1784,59.6738 72.0117,59.6738 75,53.5C 75.6667,50.8333 75.6667,48.1667 75,45.5C 73.6439,44.6198 72.1439,44.2865 70.5,44.5C 70.6495,43.448 70.4828,42.448 70,41.5C 69.3333,42.8333 69.3333,44.1667 70,45.5C 73.0748,46.4691 74.0748,48.4691 73,51.5C 72.3292,52.2524 71.4959,52.5858 70.5,52.5C 73.3449,49.823 72.8449,47.823 69,46.5C 68.2086,45.255 67.7086,43.9217 67.5,42.5C 67.5,40.5 68.5,39.5 70.5,39.5 Z"/></g>
<g><path style="opacity:0.788" fill="#2e2328" d="M 29.5,41.5 C 29.5569,42.609 29.8902,43.609 30.5,44.5C 30.5,45.1667 30.5,45.8333 30.5,46.5C 29.7326,45.828 29.0659,44.9947 28.5,44C 25.9644,43.8138 23.631,43.3138 21.5,42.5C 22.5,42.5 23.5,42.5 24.5,42.5C 26.1172,41.962 27.7839,41.6287 29.5,41.5 Z"/></g>
<g><path style="opacity:1" fill="#d57186" d="M 29.5,41.5 C 29.8333,41.5 30.1667,41.5 30.5,41.5C 31.791,41.2627 32.791,41.596 33.5,42.5C 32.7095,43.4013 31.7095,44.0679 30.5,44.5C 29.8902,43.609 29.5569,42.609 29.5,41.5 Z"/></g>
<g><path style="opacity:1" fill="#f5c185" d="M 67.5,42.5 C 67.7086,43.9217 68.2086,45.255 69,46.5C 72.8449,47.823 73.3449,49.823 70.5,52.5C 69.8333,52.5 69.5,52.8333 69.5,53.5C 68.1201,53.9623 67.4534,54.9623 67.5,56.5C 67.5159,58.516 68.5159,59.516 70.5,59.5C 70.5,59.8333 70.5,60.1667 70.5,60.5C 71.5511,61.2223 72.2178,62.2223 72.5,63.5C 68.7437,61.9487 65.7437,59.4487 63.5,56C 61.5273,55.5045 59.5273,55.3379 57.5,55.5C 56.8333,55.5 56.5,55.1667 56.5,54.5C 58.924,54.8076 61.2573,54.4742 63.5,53.5C 64.4414,50.1802 64.6081,46.8469 64,43.5C 65.016,42.3659 65.6827,42.6992 66,44.5C 66.2784,43.5842 66.7784,42.9175 67.5,42.5 Z"/></g>
<g><path style="opacity:1" fill="#ad536c" d="M 72.5,32.5 C 72.5,32.1667 72.5,31.8333 72.5,31.5C 75.5184,31.3354 78.5184,31.502 81.5,32C 82,32.5 82.5,33 83,33.5C 84.5339,37.7109 84.8673,42.0442 84,46.5C 83.2917,47.3805 82.4584,48.0472 81.5,48.5C 77.9567,48.128 75.79,46.128 75,42.5C 73.871,40.8588 72.371,39.8588 70.5,39.5C 70.5,39.1667 70.5,38.8333 70.5,38.5C 74.5507,39.3798 77.2173,41.8798 78.5,46C 79.9961,46.5074 81.1627,46.0074 82,44.5C 84.4951,35.8393 81.3285,31.8393 72.5,32.5 Z"/></g>
<g><path style="opacity:1" fill="#b9625d" d="M 49.5,43.5 C 50.609,43.5569 51.609,43.8902 52.5,44.5C 53.1667,44.5 53.8333,44.5 54.5,44.5C 54.5,47.8333 54.5,51.1667 54.5,54.5C 53.8333,54.5 53.1667,54.5 52.5,54.5C 51.391,54.5569 50.391,54.8902 49.5,55.5C 49.6716,54.5084 49.3382,53.8417 48.5,53.5C 48.5,53.1667 48.5,52.8333 48.5,52.5C 49.7563,50.2743 49.7563,47.941 48.5,45.5C 49.3382,45.1583 49.6716,44.4916 49.5,43.5 Z"/></g>
<g><path style="opacity:1" fill="#fcce88" d="M 70.5,38.5 C 70.5,38.8333 70.5,39.1667 70.5,39.5C 68.5,39.5 67.5,40.5 67.5,42.5C 66.7784,42.9175 66.2784,43.5842 66,44.5C 65.6827,42.6992 65.016,42.3659 64,43.5C 64.6081,46.8469 64.4414,50.1802 63.5,53.5C 61.2573,54.4742 58.924,54.8076 56.5,54.5C 55.8333,54.5 55.1667,54.5 54.5,54.5C 54.5,51.1667 54.5,47.8333 54.5,44.5C 57.2165,44.3215 59.8832,43.8215 62.5,43C 65.3688,39.7959 68.5354,36.9626 72,34.5C 72.2997,36.0657 71.7997,37.399 70.5,38.5 Z"/></g>
<g><path style="opacity:1" fill="#ebbc7c" d="M 33.5,42.5 C 33.8333,42.5 34.1667,42.5 34.5,42.5C 37.9324,44.7519 41.2658,47.2519 44.5,50C 43.5842,50.2784 42.9175,50.7784 42.5,51.5C 38.2756,53.7795 33.9422,55.7795 29.5,57.5C 29.5,56.5 29.5,55.5 29.5,54.5C 30.2653,51.9039 30.5987,49.2372 30.5,46.5C 30.5,45.8333 30.5,45.1667 30.5,44.5C 31.7095,44.0679 32.7095,43.4013 33.5,42.5 Z"/></g>
<g><path style="opacity:1" fill="#7e2959" d="M 47.5,47.5 C 45.0688,48.7409 45.0688,49.9076 47.5,51C 45.9769,52.7884 44.3102,52.9551 42.5,51.5C 42.9175,50.7784 43.5842,50.2784 44.5,50C 41.2658,47.2519 37.9324,44.7519 34.5,42.5C 36.4024,41.4891 38.4024,41.3224 40.5,42C 42.9025,43.853 45.2359,45.6863 47.5,47.5 Z"/></g>
<g><path style="opacity:1" fill="#2f0a26" d="M 69.5,53.5 C 69.5,52.8333 69.8333,52.5 70.5,52.5C 71.4959,52.5858 72.3292,52.2524 73,51.5C 74.0748,48.4691 73.0748,46.4691 70,45.5C 69.3333,44.1667 69.3333,42.8333 70,41.5C 70.4828,42.448 70.6495,43.448 70.5,44.5C 72.1439,44.2865 73.6439,44.6198 75,45.5C 75.6667,48.1667 75.6667,50.8333 75,53.5C 72.0117,59.6738 70.1784,59.6738 69.5,53.5 Z"/></g>
<g><path style="opacity:1" fill="#b4566e" d="M 81.5,50.5 C 82.5,51.1667 83.5,51.8333 84.5,52.5C 84.5,56.1667 84.5,59.8333 84.5,63.5C 83.6364,64.6883 82.6364,65.8549 81.5,67C 78.5184,67.498 75.5184,67.6646 72.5,67.5C 72.5,67.1667 72.5,66.8333 72.5,66.5C 74.3792,65.6586 76.3792,65.3253 78.5,65.5C 80.0174,65.4894 81.1841,64.8228 82,63.5C 82.6667,60.5 82.6667,57.5 82,54.5C 80.1722,53.2475 78.3388,53.2475 76.5,54.5C 76.9666,51.7026 78.6333,50.3692 81.5,50.5 Z"/></g>
<g><path style="opacity:1" fill="#6a2451" d="M 47.5,47.5 C 48.4511,48.9187 48.7845,50.5853 48.5,52.5C 48.5,52.8333 48.5,53.1667 48.5,53.5C 45.5461,55.2805 42.7128,57.2805 40,59.5C 39.8276,65.6807 39.3276,71.6807 38.5,77.5C 39.1167,71.4018 38.45,65.7351 36.5,60.5C 33.9823,59.7362 31.649,58.7362 29.5,57.5C 33.9422,55.7795 38.2756,53.7795 42.5,51.5C 44.3102,52.9551 45.9769,52.7884 47.5,51C 45.0688,49.9076 45.0688,48.7409 47.5,47.5 Z"/></g>
<g><path style="opacity:0.945" fill="#5d3a43" d="M 97.5,38.5 C 98.1667,38.5 98.8333,38.5 99.5,38.5C 99.5,45.8333 99.5,53.1667 99.5,60.5C 98.8333,60.5 98.1667,60.5 97.5,60.5C 98.8333,53.1667 98.8333,45.8333 97.5,38.5 Z"/></g>
<g><path style="opacity:1" fill="#ad5c6e" d="M 97.5,38.5 C 98.8333,45.8333 98.8333,53.1667 97.5,60.5C 96.8333,60.5 96.1667,60.5 95.5,60.5C 93.1432,60.6633 90.8098,60.4966 88.5,60C 87.6634,58.9887 87.33,57.8221 87.5,56.5C 87.2096,50.439 87.5429,44.439 88.5,38.5C 91.4116,37.9315 94.4116,37.9315 97.5,38.5 Z"/></g>
<g><path style="opacity:1" fill="#d5a483" d="M 88.5,41.5 C 94.8942,40.3998 97.2275,43.0665 95.5,49.5C 97.2275,55.9335 94.8942,58.6002 88.5,57.5C 88.5,52.1667 88.5,46.8333 88.5,41.5 Z"/></g>
<g><path style="opacity:0.902" fill="#2c2f32" d="M 29.5,54.5 C 29.5,55.5 29.5,56.5 29.5,57.5C 27.4352,57.4828 25.4352,57.1495 23.5,56.5C 21.8333,57.1667 20.1667,57.8333 18.5,58.5C 18.9528,57.5416 19.6195,56.7083 20.5,56C 23.0991,55.231 25.5991,55.3977 28,56.5C 28.2784,55.5842 28.7784,54.9175 29.5,54.5 Z"/></g>
<g><path style="opacity:1" fill="#ac5a71" d="M 75.5,56.5 C 75.0334,59.2974 73.3667,60.6308 70.5,60.5C 70.5,60.1667 70.5,59.8333 70.5,59.5C 72.4113,58.925 74.078,57.925 75.5,56.5 Z"/></g>
<g><path style="opacity:1" fill="#da987a" d="M 78.5,65.5 C 76.8984,63.9261 74.8984,63.2594 72.5,63.5C 72.2178,62.2223 71.5511,61.2223 70.5,60.5C 73.3667,60.6308 75.0334,59.2974 75.5,56.5C 75.3284,55.5084 75.6618,54.8417 76.5,54.5C 78.3388,53.2475 80.1722,53.2475 82,54.5C 82.6667,57.5 82.6667,60.5 82,63.5C 81.1841,64.8228 80.0174,65.4894 78.5,65.5 Z"/></g>
<g><path style="opacity:1" fill="#374776" d="M 23.5,56.5 C 25.4352,57.1495 27.4352,57.4828 29.5,57.5C 31.649,58.7362 33.9823,59.7362 36.5,60.5C 36.5,61.1667 36.5,61.8333 36.5,62.5C 36.1667,62.5 35.8333,62.5 35.5,62.5C 33.623,61.3754 31.7897,61.7088 30,63.5C 27.6278,61.2968 25.4611,58.9635 23.5,56.5 Z"/></g>
<g><path style="opacity:1" fill="#e59874" d="M 57.5,55.5 C 59.5273,55.3379 61.5273,55.5045 63.5,56C 65.7437,59.4487 68.7437,61.9487 72.5,63.5C 74.8984,63.2594 76.8984,63.9261 78.5,65.5C 76.3792,65.3253 74.3792,65.6586 72.5,66.5C 67.6396,62.5771 62.6396,58.9104 57.5,55.5 Z"/></g>
<g><path style="opacity:1" fill="#311435" d="M 87.5,56.5 C 87.33,57.8221 87.6634,58.9887 88.5,60C 90.8098,60.4966 93.1432,60.6633 95.5,60.5C 93.7772,62.2181 91.7772,63.5514 89.5,64.5C 87.9557,64.7031 86.6223,65.3698 85.5,66.5C 84.6143,65.675 84.281,64.675 84.5,63.5C 84.5,59.8333 84.5,56.1667 84.5,52.5C 85.1174,52.3893 85.6174,52.056 86,51.5C 86.1981,53.3817 86.6981,55.0484 87.5,56.5 Z"/></g>
<g><path style="opacity:1" fill="#3f7d88" d="M 23.5,56.5 C 25.4611,58.9635 27.6278,61.2968 30,63.5C 31.7897,61.7088 33.623,61.3754 35.5,62.5C 31.2211,63.9728 27.2211,65.9728 23.5,68.5C 22.7375,67.7321 21.7375,67.2321 20.5,67C 22.3008,66.6827 22.6341,66.016 21.5,65C 26.4047,63.9476 26.0714,62.7809 20.5,61.5C 19.029,63.8134 17.1956,64.1467 15,62.5C 13.5936,63.4138 12.0936,64.0805 10.5,64.5C 12.7703,62.0252 15.437,60.0252 18.5,58.5C 20.1667,57.8333 21.8333,57.1667 23.5,56.5 Z"/></g>
<g><path style="opacity:1" fill="#a3424f" d="M 52.5,54.5 C 52.6495,55.552 52.4828,56.552 52,57.5C 49.833,58.4881 47.9997,59.8214 46.5,61.5C 46.1734,68.9402 44.84,76.2735 42.5,83.5C 41.5,84.1667 40.5,84.8333 39.5,85.5C 41.8777,77.3707 43.0444,69.0374 43,60.5C 45.3256,58.9343 47.4922,57.2676 49.5,55.5C 50.391,54.8902 51.391,54.5569 52.5,54.5 Z"/></g>
<g><path style="opacity:1" fill="#f3d3ce" d="M 52.5,60.5 C 53.5,60.5 54.5,60.5 55.5,60.5C 55.5,61.5 55.5,62.5 55.5,63.5C 54.2921,62.7659 52.9587,62.4326 51.5,62.5C 51.3284,61.5084 51.6618,60.8417 52.5,60.5 Z"/></g>
<g><path style="opacity:1" fill="#391339" d="M 52.5,54.5 C 53.1667,54.5 53.8333,54.5 54.5,54.5C 55.9418,55.8195 56.6085,57.4862 56.5,59.5C 54.7367,58.0462 53.4033,58.3796 52.5,60.5C 51.6618,60.8417 51.3284,61.5084 51.5,62.5C 52.9418,63.8195 53.6085,65.4862 53.5,67.5C 52.1667,66.5 50.8333,65.5 49.5,64.5C 48.7321,65.2625 48.2321,66.2625 48,67.5C 47.8091,65.2922 47.3091,63.2922 46.5,61.5C 47.9997,59.8214 49.833,58.4881 52,57.5C 52.4828,56.552 52.6495,55.552 52.5,54.5 Z"/></g>
<g><path style="opacity:1" fill="#bc798a" d="M 56.5,59.5 C 56.5,60.8333 56.5,62.1667 56.5,63.5C 56.7678,65.099 56.4345,66.4324 55.5,67.5C 55.5,66.1667 55.5,64.8333 55.5,63.5C 55.5,62.5 55.5,61.5 55.5,60.5C 54.5,60.5 53.5,60.5 52.5,60.5C 53.4033,58.3796 54.7367,58.0462 56.5,59.5 Z"/></g>
<g><path style="opacity:1" fill="#46576f" d="M 54.5,54.5 C 55.1667,54.5 55.8333,54.5 56.5,54.5C 56.5,55.1667 56.8333,55.5 57.5,55.5C 62.6396,58.9104 67.6396,62.5771 72.5,66.5C 72.5,66.8333 72.5,67.1667 72.5,67.5C 72.5,68.1667 72.5,68.8333 72.5,69.5C 70.7085,69.366 69.0418,69.6993 67.5,70.5C 65.8684,70.8247 64.8684,71.8247 64.5,73.5C 63.9545,76.2371 63.2878,78.9037 62.5,81.5C 60.6064,80.9524 58.9397,79.9524 57.5,78.5C 58.2624,78.0894 59.2624,77.9227 60.5,78C 56.2891,74.9691 56.6224,73.9691 61.5,75C 60.5,74 59.5,73 58.5,72C 62.4557,70.8861 62.4557,70.0527 58.5,69.5C 59.1787,67.1861 60.512,66.8528 62.5,68.5C 63.8333,67.5 63.8333,66.5 62.5,65.5C 60.3802,66.8715 59.3802,66.2048 59.5,63.5C 64.5,62.9969 64.1667,62.6636 58.5,62.5C 58.6602,60.8008 58.4935,59.1341 58,57.5C 57.8091,59.7078 57.3091,61.7078 56.5,63.5C 56.5,62.1667 56.5,60.8333 56.5,59.5C 56.6085,57.4862 55.9418,55.8195 54.5,54.5 Z"/></g>
<g><path style="opacity:1" fill="#48919c" d="M 23.5,68.5 C 19.8781,70.7867 16.5448,73.4534 13.5,76.5C 13.5,75.8333 13.5,75.1667 13.5,74.5C 18.9521,71.2649 18.2854,69.5982 11.5,69.5C 12.6002,68.4415 13.9336,67.6082 15.5,67C 12.4351,66.185 10.1017,67.0184 8.5,69.5C 7.04125,69.4326 5.70792,69.7659 4.5,70.5C 4.32842,69.5084 4.66175,68.8417 5.5,68.5C 7.4607,67.5398 9.12736,66.2065 10.5,64.5C 12.0936,64.0805 13.5936,63.4138 15,62.5C 17.1956,64.1467 19.029,63.8134 20.5,61.5C 26.0714,62.7809 26.4047,63.9476 21.5,65C 22.6341,66.016 22.3008,66.6827 20.5,67C 21.7375,67.2321 22.7375,67.7321 23.5,68.5 Z"/></g>
<g><path style="opacity:0.018" fill="#151716" d="M 10.5,64.5 C 9.12736,66.2065 7.4607,67.5398 5.5,68.5C 6.27017,66.0646 7.93684,64.7313 10.5,64.5 Z"/></g>
<g><path style="opacity:1" fill="#361c3f" d="M 84.5,63.5 C 84.281,64.675 84.6143,65.675 85.5,66.5C 86.6223,65.3698 87.9557,64.7031 89.5,64.5C 88.1639,66.0103 86.9973,67.6769 86,69.5C 85.5193,73.5314 84.8527,77.5314 84,81.5C 81.6194,82.435 79.1194,82.7683 76.5,82.5C 76.5,81.8333 76.1667,81.5 75.5,81.5C 74.1667,79.1667 72.8333,76.8333 71.5,74.5C 72.2389,74.369 72.9056,74.5357 73.5,75C 74.0848,76.3024 74.7515,77.469 75.5,78.5C 77.6523,80.8118 79.6523,80.4785 81.5,77.5C 82.4728,75.8506 83.4728,74.184 84.5,72.5C 83.9272,69.9147 82.2605,68.9147 79.5,69.5C 77.1667,69.5 74.8333,69.5 72.5,69.5C 72.5,68.8333 72.5,68.1667 72.5,67.5C 75.5184,67.6646 78.5184,67.498 81.5,67C 82.6364,65.8549 83.6364,64.6883 84.5,63.5 Z"/></g>
<g><path style="opacity:1" fill="#90455d" d="M 49.5,64.5 C 50.8333,65.5 52.1667,66.5 53.5,67.5C 52.1667,68.5 52.1667,69.5 53.5,70.5C 52.5,70.5 51.5,70.5 50.5,70.5C 50.5,71.5 50.5,72.5 50.5,73.5C 49.5233,70.7131 49.19,67.7131 49.5,64.5 Z"/></g>
<g><path style="opacity:1" fill="#3a173d" d="M 46.5,61.5 C 47.3091,63.2922 47.8091,65.2922 48,67.5C 48.2321,66.2625 48.7321,65.2625 49.5,64.5C 49.19,67.7131 49.5233,70.7131 50.5,73.5C 49.1242,76.658 48.4576,79.9913 48.5,83.5C 46.8333,83.5 45.1667,83.5 43.5,83.5C 43.1667,83.5 42.8333,83.5 42.5,83.5C 44.84,76.2735 46.1734,68.9402 46.5,61.5 Z"/></g>
<g><path style="opacity:1" fill="#c43848" d="M 51.5,62.5 C 52.9587,62.4326 54.2921,62.7659 55.5,63.5C 55.5,64.8333 55.5,66.1667 55.5,67.5C 55.4431,68.609 55.1098,69.609 54.5,70.5C 54.1667,70.5 53.8333,70.5 53.5,70.5C 52.1667,69.5 52.1667,68.5 53.5,67.5C 53.6085,65.4862 52.9418,63.8195 51.5,62.5 Z"/></g>
<g><path style="opacity:1" fill="#437d99" d="M 58.5,69.5 C 56.8568,71.9731 54.6902,73.9731 52,75.5C 51.5357,74.9056 51.369,74.2389 51.5,73.5C 52.6935,72.7281 53.6935,71.7281 54.5,70.5C 55.1098,69.609 55.4431,68.609 55.5,67.5C 56.4345,66.4324 56.7678,65.099 56.5,63.5C 57.3091,61.7078 57.8091,59.7078 58,57.5C 58.4935,59.1341 58.6602,60.8008 58.5,62.5C 64.1667,62.6636 64.5,62.9969 59.5,63.5C 59.3802,66.2048 60.3802,66.8715 62.5,65.5C 63.8333,66.5 63.8333,67.5 62.5,68.5C 60.512,66.8528 59.1787,67.1861 58.5,69.5 Z"/></g>
<g><path style="opacity:1" fill="#bf7a80" d="M 72.5,69.5 C 74.8333,69.5 77.1667,69.5 79.5,69.5C 77.1433,71.0984 74.4766,72.0984 71.5,72.5C 70.1667,72.1667 68.8333,71.8333 67.5,71.5C 67.5,71.1667 67.5,70.8333 67.5,70.5C 69.0418,69.6993 70.7085,69.366 72.5,69.5 Z"/></g>
<g><path style="opacity:1" fill="#77b8b7" d="M 11.5,69.5 C 11.0618,69.4346 10.7284,69.6012 10.5,70C 13.741,70.495 14.741,71.995 13.5,74.5C 11.3736,75.0482 9.37358,75.7148 7.5,76.5C 5.62901,76.8588 4.12901,77.8588 3,79.5C 2.83333,79.1667 2.66667,78.8333 2.5,78.5C 4.98875,76.1768 7.32208,73.6768 9.5,71C 8.94404,70.6174 8.61071,70.1174 8.5,69.5C 10.1017,67.0184 12.4351,66.185 15.5,67C 13.9336,67.6082 12.6002,68.4415 11.5,69.5 Z"/></g>
<g><path style="opacity:1" fill="#e8c0ac" d="M 53.5,70.5 C 53.8333,70.5 54.1667,70.5 54.5,70.5C 53.6935,71.7281 52.6935,72.7281 51.5,73.5C 51.1667,73.5 50.8333,73.5 50.5,73.5C 50.5,72.5 50.5,71.5 50.5,70.5C 51.5,70.5 52.5,70.5 53.5,70.5 Z"/></g>
<g><path style="opacity:1" fill="#57aea7" d="M 8.5,69.5 C 8.61071,70.1174 8.94404,70.6174 9.5,71C 7.32208,73.6768 4.98875,76.1768 2.5,78.5C 2.66667,78.8333 2.83333,79.1667 3,79.5C 4.12901,77.8588 5.62901,76.8588 7.5,76.5C 6.48873,79.9404 5.48873,83.2737 4.5,86.5C 4.67158,85.5084 4.33825,84.8417 3.5,84.5C 2.5,84.8333 1.83333,85.5 1.5,86.5C 0.520558,83.3752 0.187225,80.0419 0.5,76.5C 0.844897,73.8021 2.17823,71.8021 4.5,70.5C 5.70792,69.7659 7.04125,69.4326 8.5,69.5 Z"/></g>
<g><path style="opacity:1" fill="#2a3450" d="M 11.5,69.5 C 18.2854,69.5982 18.9521,71.2649 13.5,74.5C 14.741,71.995 13.741,70.495 10.5,70C 10.7284,69.6012 11.0618,69.4346 11.5,69.5 Z"/></g>
<g><path style="opacity:1" fill="#e1c89f" d="M 67.5,70.5 C 67.5,70.8333 67.5,71.1667 67.5,71.5C 67.8039,72.1499 68.1373,72.8165 68.5,73.5C 67.7528,73.7365 66.9195,74.0698 66,74.5C 65.6049,77.2066 65.1049,79.8733 64.5,82.5C 63.5084,82.6716 62.8417,82.3382 62.5,81.5C 63.2878,78.9037 63.9545,76.2371 64.5,73.5C 64.8684,71.8247 65.8684,70.8247 67.5,70.5 Z"/></g>
<g><path style="opacity:1" fill="#344476" d="M 28.5,68.5 C 28.9382,68.4346 29.2716,68.6012 29.5,69C 28.7224,72.1468 27.8891,75.3135 27,78.5C 26.6667,77.8333 26.3333,77.1667 26,76.5C 25.0467,79.4318 24.5467,82.4318 24.5,85.5C 23.5,85.5 22.5,85.5 21.5,85.5C 21.5,84.1667 21.5,82.8333 21.5,81.5C 20.9462,78.4383 20.4462,75.4383 20,72.5C 22.3974,70.2177 25.2307,68.8844 28.5,68.5 Z"/></g>
<g><path style="opacity:1" fill="#52254d" d="M 79.5,69.5 C 82.2605,68.9147 83.9272,69.9147 84.5,72.5C 83.4728,74.184 82.4728,75.8506 81.5,77.5C 80.4168,77.5394 79.4168,77.8728 78.5,78.5C 77.6143,77.675 77.281,76.675 77.5,75.5C 78.2674,74.828 78.9341,73.9947 79.5,73C 76.854,72.5026 74.1873,72.3359 71.5,72.5C 74.4766,72.0984 77.1433,71.0984 79.5,69.5 Z"/></g>
<g><path style="opacity:1" fill="#282a4e" d="M 35.5,72.5 C 35.3259,74.861 34.9926,77.1944 34.5,79.5C 30.7906,79.679 28.1239,81.3457 26.5,84.5C 24.1463,87.8515 21.1463,90.5181 17.5,92.5C 17.6036,90.2972 18.2702,88.2972 19.5,86.5C 20.4511,85.0813 20.7845,83.4147 20.5,81.5C 20.8333,81.5 21.1667,81.5 21.5,81.5C 21.5,82.8333 21.5,84.1667 21.5,85.5C 22.5,85.5 23.5,85.5 24.5,85.5C 24.5467,82.4318 25.0467,79.4318 26,76.5C 26.3333,77.1667 26.6667,77.8333 27,78.5C 27.8891,75.3135 28.7224,72.1468 29.5,69C 29.2716,68.6012 28.9382,68.4346 28.5,68.5C 30.7097,67.6491 32.7097,66.3157 34.5,64.5C 35.48,67.0865 35.8134,69.7531 35.5,72.5 Z"/></g>
<g><path style="opacity:1" fill="#446075" d="M 58.5,69.5 C 62.4557,70.0527 62.4557,70.8861 58.5,72C 59.5,73 60.5,74 61.5,75C 56.6224,73.9691 56.2891,74.9691 60.5,78C 59.2624,77.9227 58.2624,78.0894 57.5,78.5C 58.9397,79.9524 60.6064,80.9524 62.5,81.5C 62.8417,82.3382 63.5084,82.6716 64.5,82.5C 67.3854,82.8064 70.0521,82.4731 72.5,81.5C 73.5,81.5 74.5,81.5 75.5,81.5C 76.1667,81.5 76.5,81.8333 76.5,82.5C 67.25,83.4721 57.9167,83.8055 48.5,83.5C 48.4576,79.9913 49.1242,76.658 50.5,73.5C 50.8333,73.5 51.1667,73.5 51.5,73.5C 51.369,74.2389 51.5357,74.9056 52,75.5C 54.6902,73.9731 56.8568,71.9731 58.5,69.5 Z"/></g>
<g><path style="opacity:1" fill="#366292" d="M 13.5,74.5 C 13.5,75.1667 13.5,75.8333 13.5,76.5C 13.6716,77.4916 13.3382,78.1583 12.5,78.5C 12.5654,78.0618 12.3988,77.7284 12,77.5C 7.70326,82.0813 5.20326,87.4147 4.5,93.5C 4.5,91.1667 4.5,88.8333 4.5,86.5C 5.48873,83.2737 6.48873,79.9404 7.5,76.5C 9.37358,75.7148 11.3736,75.0482 13.5,74.5 Z"/></g>
<g><path style="opacity:1" fill="#231530" d="M 35.5,62.5 C 35.8333,62.5 36.1667,62.5 36.5,62.5C 36.8128,66.0419 36.4794,69.3752 35.5,72.5C 35.8134,69.7531 35.48,67.0865 34.5,64.5C 32.7097,66.3157 30.7097,67.6491 28.5,68.5C 25.2307,68.8844 22.3974,70.2177 20,72.5C 20.4462,75.4383 20.9462,78.4383 21.5,81.5C 21.1667,81.5 20.8333,81.5 20.5,81.5C 20.0632,74.5719 18.0632,73.5719 14.5,78.5C 15.1272,79.4168 15.4606,80.4168 15.5,81.5C 15.631,82.2389 15.4643,82.9056 15,83.5C 14.7996,81.6803 13.9663,80.347 12.5,79.5C 12.5,79.1667 12.5,78.8333 12.5,78.5C 13.3382,78.1583 13.6716,77.4916 13.5,76.5C 16.5448,73.4534 19.8781,70.7867 23.5,68.5C 27.2211,65.9728 31.2211,63.9728 35.5,62.5 Z"/></g>
<g><path style="opacity:1" fill="#f4bc83" d="M 48.5,53.5 C 49.3382,53.8417 49.6716,54.5084 49.5,55.5C 47.4922,57.2676 45.3256,58.9343 43,60.5C 43.0444,69.0374 41.8777,77.3707 39.5,85.5C 38.5,85.5 37.5,85.5 36.5,85.5C 37.2906,82.885 37.9573,80.2184 38.5,77.5C 39.3276,71.6807 39.8276,65.6807 40,59.5C 42.7128,57.2805 45.5461,55.2805 48.5,53.5 Z"/></g>
<g><path style="opacity:1" fill="#472a5c" d="M 67.5,71.5 C 68.8333,71.8333 70.1667,72.1667 71.5,72.5C 74.1873,72.3359 76.854,72.5026 79.5,73C 78.9341,73.9947 78.2674,74.828 77.5,75.5C 75.9519,75.8212 75.2852,76.8212 75.5,78.5C 74.7515,77.469 74.0848,76.3024 73.5,75C 72.9056,74.5357 72.2389,74.369 71.5,74.5C 69.7483,74.4176 68.7483,75.2509 68.5,77C 69.3147,78.9802 70.648,80.4802 72.5,81.5C 70.0521,82.4731 67.3854,82.8064 64.5,82.5C 65.1049,79.8733 65.6049,77.2066 66,74.5C 66.9195,74.0698 67.7528,73.7365 68.5,73.5C 68.1373,72.8165 67.8039,72.1499 67.5,71.5 Z"/></g>
<g><path style="opacity:1" fill="#46b1cc" d="M 71.5,74.5 C 72.8333,76.8333 74.1667,79.1667 75.5,81.5C 74.5,81.5 73.5,81.5 72.5,81.5C 70.648,80.4802 69.3147,78.9802 68.5,77C 68.7483,75.2509 69.7483,74.4176 71.5,74.5 Z"/></g>
<g><path style="opacity:1" fill="#3b699d" d="M 77.5,75.5 C 77.281,76.675 77.6143,77.675 78.5,78.5C 79.4168,77.8728 80.4168,77.5394 81.5,77.5C 79.6523,80.4785 77.6523,80.8118 75.5,78.5C 75.2852,76.8212 75.9519,75.8212 77.5,75.5 Z"/></g>
<g><path style="opacity:1" fill="#465681" d="M 20.5,81.5 C 20.7845,83.4147 20.4511,85.0813 19.5,86.5C 19.5,84.8333 19.5,83.1667 19.5,81.5C 18.1667,81.5 16.8333,81.5 15.5,81.5C 15.4606,80.4168 15.1272,79.4168 14.5,78.5C 18.0632,73.5719 20.0632,74.5719 20.5,81.5 Z"/></g>
<g><path style="opacity:0.718" fill="#477863" d="M -0.5,76.5 C -0.166667,76.5 0.166667,76.5 0.5,76.5C 0.187225,80.0419 0.520558,83.3752 1.5,86.5C 1.15829,87.3382 0.491622,87.6716 -0.5,87.5C -0.5,83.8333 -0.5,80.1667 -0.5,76.5 Z"/></g>
<g><path style="opacity:1" fill="#55184c" d="M 36.5,60.5 C 38.45,65.7351 39.1167,71.4018 38.5,77.5C 37.9573,80.2184 37.2906,82.885 36.5,85.5C 33.2139,84.7929 29.8806,84.4595 26.5,84.5C 28.1239,81.3457 30.7906,79.679 34.5,79.5C 34.9926,77.1944 35.3259,74.861 35.5,72.5C 36.4794,69.3752 36.8128,66.0419 36.5,62.5C 36.5,61.8333 36.5,61.1667 36.5,60.5 Z"/></g>
<g><path style="opacity:0.553" fill="#292121" d="M 42.5,83.5 C 42.8333,83.5 43.1667,83.5 43.5,83.5C 42.1262,85.9588 39.9595,86.9588 37,86.5C 33.2769,86.2994 29.7769,85.6327 26.5,84.5C 29.8806,84.4595 33.2139,84.7929 36.5,85.5C 37.5,85.5 38.5,85.5 39.5,85.5C 40.5,84.8333 41.5,84.1667 42.5,83.5 Z"/></g>
<g><path style="opacity:0.171" fill="#161616" d="M 3.5,84.5 C 2.70105,87.4299 2.36772,90.4299 2.5,93.5C 2.0276,91.4687 1.0276,89.8021 -0.5,88.5C -0.5,88.1667 -0.5,87.8333 -0.5,87.5C 0.491622,87.6716 1.15829,87.3382 1.5,86.5C 1.83333,85.5 2.5,84.8333 3.5,84.5 Z"/></g>
<g><path style="opacity:1" fill="#3d758b" d="M 12.5,79.5 C 13.9663,80.347 14.7996,81.6803 15,83.5C 15.4643,82.9056 15.631,82.2389 15.5,81.5C 16.8333,81.5 18.1667,81.5 19.5,81.5C 19.5,83.1667 19.5,84.8333 19.5,86.5C 18.2702,88.2972 17.6036,90.2972 17.5,92.5C 17.1583,93.3382 16.4916,93.6716 15.5,93.5C 14.8333,93.1667 14.1667,92.8333 13.5,92.5C 13.1667,92.5 12.8333,92.5 12.5,92.5C 7.5347,88.0246 7.5347,83.6913 12.5,79.5 Z"/></g>
<g><path style="opacity:1" fill="#6ad6b5" d="M 3.5,84.5 C 4.33825,84.8417 4.67158,85.5084 4.5,86.5C 4.5,88.8333 4.5,91.1667 4.5,93.5C 4.06233,94.5063 3.39567,94.5063 2.5,93.5C 2.36772,90.4299 2.70105,87.4299 3.5,84.5 Z"/></g>
<g><path style="opacity:1" fill="#457e8f" d="M 12.5,78.5 C 12.5,78.8333 12.5,79.1667 12.5,79.5C 7.5347,83.6913 7.5347,88.0246 12.5,92.5C 12.5,92.8333 12.5,93.1667 12.5,93.5C 12.5,94.5 12.5,95.5 12.5,96.5C 11.1667,97.5 9.83333,98.5 8.5,99.5C 7.5,99.5 6.5,99.5 5.5,99.5C 4.47061,97.4832 3.47061,95.4832 2.5,93.5C 3.39567,94.5063 4.06233,94.5063 4.5,93.5C 5.20326,87.4147 7.70326,82.0813 12,77.5C 12.3988,77.7284 12.5654,78.0618 12.5,78.5 Z"/></g>
<g><path style="opacity:0.063" fill="#1b1c1c" d="M 13.5,92.5 C 14.1667,92.8333 14.8333,93.1667 15.5,93.5C 14.5,94.5 13.5,95.5 12.5,96.5C 12.5,95.5 12.5,94.5 12.5,93.5C 13.1667,93.5 13.5,93.1667 13.5,92.5 Z"/></g>
</svg>
