<?xml version="1.0" encoding="UTF-8"?>
<!DOCTYPE svg PUBLIC "-//W3C//DTD SVG 1.1//EN" "http://www.w3.org/Graphics/SVG/1.1/DTD/svg11.dtd">
<svg xmlns="http://www.w3.org/2000/svg" version="1.1" width="84px" height="100px" style="shape-rendering:geometricPrecision; text-rendering:geometricPrecision; image-rendering:optimizeQuality; fill-rule:evenodd; clip-rule:evenodd" xmlns:xlink="http://www.w3.org/1999/xlink">
<g><path style="opacity:1" fill="#30506e" d="M 33.5,2.5 C 31.5183,2.99543 29.5183,3.49543 27.5,4C 30.1506,4.15339 32.4839,4.98672 34.5,6.5C 33.791,7.40397 32.791,7.73731 31.5,7.5C 30.3951,6.39952 29.0618,5.73286 27.5,5.5C 27.1667,5.5 26.8333,5.5 26.5,5.5C 25.8333,5.5 25.1667,5.5 24.5,5.5C 24.4326,4.04125 24.7659,2.70792 25.5,1.5C 28.7786,0.507818 32.1119,0.341151 35.5,1C 34.5842,1.27842 33.9175,1.77842 33.5,2.5 Z"/></g>
<g><path style="opacity:1" fill="#2b4054" d="M 24.5,-0.5 C 30.1667,-0.5 35.8333,-0.5 41.5,-0.5C 42.5,0.166667 43.5,0.833333 44.5,1.5C 40.9359,2.42266 37.2693,2.75599 33.5,2.5C 33.9175,1.77842 34.5842,1.27842 35.5,1C 32.1119,0.341151 28.7786,0.507818 25.5,1.5C 24.5,1.5 23.5,1.5 22.5,1.5C 23.1667,0.833333 23.8333,0.166667 24.5,-0.5 Z"/></g>
<g><path style="opacity:1" fill="#783e96" d="M 22.5,1.5 C 23.5,1.5 24.5,1.5 25.5,1.5C 24.7659,2.70792 24.4326,4.04125 24.5,5.5C 23.391,5.55688 22.391,5.89022 21.5,6.5C 21.5,5.5 21.5,4.5 21.5,3.5C 22.3382,3.15829 22.6716,2.49162 22.5,1.5 Z"/></g>
<g><path style="opacity:0.831" fill="#1b302b" d="M 44.5,1.5 C 47.1667,2.16667 47.1667,2.83333 44.5,3.5C 44.5,2.83333 44.5,2.16667 44.5,1.5 Z"/></g>
<g><path style="opacity:0.855" fill="#382233" d="M 22.5,1.5 C 22.6716,2.49162 22.3382,3.15829 21.5,3.5C 20.1667,3.83333 18.8333,4.16667 17.5,4.5C 18.6594,2.74973 20.326,1.74973 22.5,1.5 Z"/></g>
<g><path style="opacity:1" fill="#469f91" d="M 44.5,1.5 C 44.5,2.16667 44.5,2.83333 44.5,3.5C 42.8185,5.00751 40.8185,6.00751 38.5,6.5C 37.1667,6.5 35.8333,6.5 34.5,6.5C 32.4839,4.98672 30.1506,4.15339 27.5,4C 29.5183,3.49543 31.5183,2.99543 33.5,2.5C 37.2693,2.75599 40.9359,2.42266 44.5,1.5 Z"/></g>
<g><path style="opacity:0.294" fill="#242725" d="M 34.5,6.5 C 35.8333,6.5 37.1667,6.5 38.5,6.5C 35.5249,8.12561 32.5249,9.79228 29.5,11.5C 30.0577,10.2101 31.0577,9.37675 32.5,9C 31.944,8.61742 31.6107,8.11742 31.5,7.5C 32.791,7.73731 33.791,7.40397 34.5,6.5 Z"/></g>
<g><path style="opacity:1" fill="#671f36" d="M 27.5,5.5 C 29.0618,5.73286 30.3951,6.39952 31.5,7.5C 31.6107,8.11742 31.944,8.61742 32.5,9C 31.0577,9.37675 30.0577,10.2101 29.5,11.5C 25.9894,14.1953 24.6561,17.8619 25.5,22.5C 24.8173,19.4841 23.8173,16.4841 22.5,13.5C 23.5914,10.5722 25.5914,8.40552 28.5,7C 27.944,6.61742 27.6107,6.11742 27.5,5.5 Z"/></g>
<g><path style="opacity:1" fill="#3f2632" d="M 12.5,9.5 C 12.573,11.0269 11.9063,12.0269 10.5,12.5C 10.427,10.9731 11.0937,9.97306 12.5,9.5 Z"/></g>
<g><path style="opacity:1" fill="#861f53" d="M 26.5,5.5 C 26.8333,5.5 27.1667,5.5 27.5,5.5C 27.6107,6.11742 27.944,6.61742 28.5,7C 25.5914,8.40552 23.5914,10.5722 22.5,13.5C 20.974,15.9189 19.3074,18.2522 17.5,20.5C 15.9731,20.573 14.9731,19.9063 14.5,18.5C 17.1391,12.8627 21.1391,8.52941 26.5,5.5 Z"/></g>
<g><path style="opacity:1" fill="#a4205e" d="M 24.5,5.5 C 25.1667,5.5 25.8333,5.5 26.5,5.5C 21.1391,8.52941 17.1391,12.8627 14.5,18.5C 13.8333,18.5 13.1667,18.5 12.5,18.5C 13.6042,12.9094 16.6042,8.90944 21.5,6.5C 22.391,5.89022 23.391,5.55688 24.5,5.5 Z"/></g>
<g><path style="opacity:0.549" fill="#2d2d1d" d="M 49.5,14.5 C 49.1667,15.5 48.5,16.1667 47.5,16.5C 47.5,15.1667 48.1667,14.5 49.5,14.5 Z"/></g>
<g><path style="opacity:1" fill="#f5dd5d" d="M 49.5,14.5 C 51.1376,15.7046 51.4709,17.0379 50.5,18.5C 49.2905,18.0679 48.2905,17.4013 47.5,16.5C 48.5,16.1667 49.1667,15.5 49.5,14.5 Z"/></g>
<g><path style="opacity:1" fill="#703429" d="M 55.5,13.5 C 57.2646,12.5386 59.2646,12.2053 61.5,12.5C 61.5,12.8333 61.5,13.1667 61.5,13.5C 60.1429,14.5903 59.1429,15.9236 58.5,17.5C 58.9118,15.0274 57.9118,13.6941 55.5,13.5 Z"/></g>
<g><path style="opacity:1" fill="#917346" d="M 62.5,12.5 C 64.6074,11.5318 66.9407,11.1984 69.5,11.5C 68.9115,14.6104 68.2448,17.6104 67.5,20.5C 67.5,17.8333 67.5,15.1667 67.5,12.5C 66.5,12.5 65.5,12.5 64.5,12.5C 63.8333,12.5 63.1667,12.5 62.5,12.5 Z"/></g>
<g><path style="opacity:0.341" fill="#1e1b1e" d="M 9.5,14.5 C 9.5,15.1667 9.5,15.8333 9.5,16.5C 7.51676,16.1568 6.18342,16.8235 5.5,18.5C 4.59603,17.791 4.26269,16.791 4.5,15.5C 6.29152,15.634 7.95819,15.3007 9.5,14.5 Z"/></g>
<g><path style="opacity:1" fill="#976e41" d="M 9.5,16.5 C 9.5,16.8333 9.5,17.1667 9.5,17.5C 8.5,17.5 7.5,17.5 6.5,17.5C 6.5,18.8333 6.5,20.1667 6.5,21.5C 5.59603,20.791 5.26269,19.791 5.5,18.5C 6.18342,16.8235 7.51676,16.1568 9.5,16.5 Z"/></g>
<g><path style="opacity:1" fill="#f8e156" d="M 61.5,12.5 C 61.8333,12.5 62.1667,12.5 62.5,12.5C 63.1667,12.5 63.8333,12.5 64.5,12.5C 65.7563,14.941 65.7563,17.2743 64.5,19.5C 62.6206,18.1048 61.6206,16.1048 61.5,13.5C 61.5,13.1667 61.5,12.8333 61.5,12.5 Z"/></g>
<g><path style="opacity:1" fill="#ca458d" d="M 21.5,3.5 C 21.5,4.5 21.5,5.5 21.5,6.5C 16.6042,8.90944 13.6042,12.9094 12.5,18.5C 11.391,18.4431 10.391,18.1098 9.5,17.5C 9.5,17.1667 9.5,16.8333 9.5,16.5C 9.5,15.8333 9.5,15.1667 9.5,14.5C 9.32842,13.5084 9.66175,12.8417 10.5,12.5C 11.9063,12.0269 12.573,11.0269 12.5,9.5C 13.4782,7.18844 15.1448,5.52178 17.5,4.5C 18.8333,4.16667 20.1667,3.83333 21.5,3.5 Z"/></g>
<g><path style="opacity:1" fill="#321327" d="M 71.5,11.5 C 73.6968,12.8446 76.0302,14.0112 78.5,15C 79.305,16.1127 79.9717,17.2794 80.5,18.5C 78.2104,20.0329 77.5437,19.6996 78.5,17.5C 78.1667,16.5 77.5,15.8333 76.5,15.5C 75.3764,17.3686 74.5431,19.3686 74,21.5C 73.6667,20.5 73.3333,19.5 73,18.5C 72.7679,19.7375 72.2679,20.7375 71.5,21.5C 71.5,20.5 71.5,19.5 71.5,18.5C 71.5,16.1667 71.5,13.8333 71.5,11.5 Z"/></g>
<g><path style="opacity:1" fill="#6f1740" d="M 22.5,13.5 C 23.8173,16.4841 24.8173,19.4841 25.5,22.5C 26.1667,22.5 26.5,22.8333 26.5,23.5C 26.9443,25.1132 27.9443,26.2798 29.5,27C 28.2189,28.4087 27.2189,29.9087 26.5,31.5C 24.9128,28.7318 23.0795,26.0652 21,23.5C 19.8873,22.695 18.7206,22.0283 17.5,21.5C 17.5,21.1667 17.5,20.8333 17.5,20.5C 19.3074,18.2522 20.974,15.9189 22.5,13.5 Z"/></g>
<g><path style="opacity:0.831" fill="#383827" d="M 40.5,17.5 C 39.5,19.1667 38.1667,20.5 36.5,21.5C 36.8333,19.1667 38.1667,17.8333 40.5,17.5 Z"/></g>
<g><path style="opacity:1" fill="#edd859" d="M 40.5,17.5 C 44.3434,16.7745 47.01,18.1078 48.5,21.5C 48.5,21.8333 48.5,22.1667 48.5,22.5C 44.1548,18.0862 40.8215,18.7529 38.5,24.5C 38.7517,26.0729 39.4183,27.4062 40.5,28.5C 40.5,28.8333 40.5,29.1667 40.5,29.5C 38.9826,29.4894 37.8159,28.8228 37,27.5C 36.5045,25.5273 36.3379,23.5273 36.5,21.5C 38.1667,20.5 39.5,19.1667 40.5,17.5 Z"/></g>
<g><path style="opacity:1" fill="#c97243" d="M 61.5,13.5 C 61.6206,16.1048 62.6206,18.1048 64.5,19.5C 63.0813,20.4511 61.4147,20.7845 59.5,20.5C 58.8902,19.609 58.5569,18.609 58.5,17.5C 59.1429,15.9236 60.1429,14.5903 61.5,13.5 Z"/></g>
<g><path style="opacity:1" fill="#b56139" d="M 49.5,14.5 C 51.3478,14.6143 53.3478,14.2809 55.5,13.5C 54.4696,16.1038 54.4696,18.7705 55.5,21.5C 53.0118,22.4122 51.3452,21.4122 50.5,18.5C 51.4709,17.0379 51.1376,15.7046 49.5,14.5 Z"/></g>
<g><path style="opacity:1" fill="#fae35d" d="M 55.5,13.5 C 57.9118,13.6941 58.9118,15.0274 58.5,17.5C 58.5569,18.609 58.8902,19.609 59.5,20.5C 58.4324,21.4345 57.099,21.7678 55.5,21.5C 54.4696,18.7705 54.4696,16.1038 55.5,13.5 Z"/></g>
<g><path style="opacity:1" fill="#ad3830" d="M 64.5,12.5 C 65.5,12.5 66.5,12.5 67.5,12.5C 67.5,15.1667 67.5,17.8333 67.5,20.5C 62.3239,21.5422 57.3239,23.0422 52.5,25C 53.448,25.4828 54.448,25.6495 55.5,25.5C 53.8984,27.0739 51.8984,27.7406 49.5,27.5C 49.7947,25.2646 49.4614,23.2646 48.5,21.5C 47.01,18.1078 44.3434,16.7745 40.5,17.5C 42.6074,16.5318 44.9407,16.1984 47.5,16.5C 48.2905,17.4013 49.2905,18.0679 50.5,18.5C 51.3452,21.4122 53.0118,22.4122 55.5,21.5C 57.099,21.7678 58.4324,21.4345 59.5,20.5C 61.4147,20.7845 63.0813,20.4511 64.5,19.5C 65.7563,17.2743 65.7563,14.941 64.5,12.5 Z"/></g>
<g><path style="opacity:1" fill="#f0df5b" d="M 71.5,11.5 C 71.5,13.8333 71.5,16.1667 71.5,18.5C 70.8423,19.3984 70.1757,20.3984 69.5,21.5C 65.9801,22.2601 62.6468,23.2601 59.5,24.5C 57.901,24.2322 56.5676,24.5655 55.5,25.5C 54.448,25.6495 53.448,25.4828 52.5,25C 57.3239,23.0422 62.3239,21.5422 67.5,20.5C 68.2448,17.6104 68.9115,14.6104 69.5,11.5C 70.1667,10.1667 70.8333,10.1667 71.5,11.5 Z"/></g>
<g><path style="opacity:1" fill="#df6042" d="M 71.5,18.5 C 71.5,19.5 71.5,20.5 71.5,21.5C 70.7874,25.1479 69.2874,25.8146 67,23.5C 64.5661,24.3223 62.0661,24.6556 59.5,24.5C 62.6468,23.2601 65.9801,22.2601 69.5,21.5C 70.1757,20.3984 70.8423,19.3984 71.5,18.5 Z"/></g>
<g><path style="opacity:1" fill="#f09f4d" d="M 9.5,17.5 C 10.391,18.1098 11.391,18.4431 12.5,18.5C 13.1667,18.5 13.8333,18.5 14.5,18.5C 14.9731,19.9063 15.9731,20.573 17.5,20.5C 17.5,20.8333 17.5,21.1667 17.5,21.5C 17.44,22.0431 17.1067,22.3764 16.5,22.5C 14.9065,20.3397 13.2399,20.173 11.5,22C 12.3734,23.045 13.3734,23.8783 14.5,24.5C 13.8166,26.1765 12.4832,26.8432 10.5,26.5C 9.27187,25.6935 8.27187,24.6935 7.5,23.5C 7.67158,22.5084 7.33825,21.8417 6.5,21.5C 6.5,20.1667 6.5,18.8333 6.5,17.5C 7.5,17.5 8.5,17.5 9.5,17.5 Z"/></g>
<g><path style="opacity:1" fill="#b23e38" d="M 17.5,21.5 C 18.7206,22.0283 19.8873,22.695 21,23.5C 23.0795,26.0652 24.9128,28.7318 26.5,31.5C 26.3152,33.8896 24.9818,34.8896 22.5,34.5C 20.0678,34.1136 17.7345,33.4469 15.5,32.5C 15.1667,31.8333 14.8333,31.1667 14.5,30.5C 15.6828,29.4955 17.0161,28.6622 18.5,28C 17.2949,26.6244 15.9616,25.4577 14.5,24.5C 13.3734,23.8783 12.3734,23.045 11.5,22C 13.2399,20.173 14.9065,20.3397 16.5,22.5C 17.1067,22.3764 17.44,22.0431 17.5,21.5 Z"/></g>
<g><path style="opacity:1" fill="#374d46" d="M 48.5,22.5 C 48.5026,27.8155 45.836,29.8155 40.5,28.5C 39.4183,27.4062 38.7517,26.0729 38.5,24.5C 40.8215,18.7529 44.1548,18.0862 48.5,22.5 Z"/></g>
<g><path style="opacity:1" fill="#859947" d="M 42.5,21.5 C 43.0527,23.5518 44.0527,23.8852 45.5,22.5C 46.7736,23.1894 46.7736,24.0228 45.5,25C 43.3594,25.8837 41.6927,25.3837 40.5,23.5C 40.8555,22.4777 41.5222,21.811 42.5,21.5 Z"/></g>
<g><path style="opacity:1" fill="#eeab75" d="M 45.5,22.5 C 44.0527,23.8852 43.0527,23.5518 42.5,21.5C 43.779,20.2848 44.779,20.6182 45.5,22.5 Z"/></g>
<g><path style="opacity:1" fill="#f27839" d="M 14.5,24.5 C 15.9616,25.4577 17.2949,26.6244 18.5,28C 17.0161,28.6622 15.6828,29.4955 14.5,30.5C 12.8333,29.5 11.5,28.1667 10.5,26.5C 12.4832,26.8432 13.8166,26.1765 14.5,24.5 Z"/></g>
<g><path style="opacity:1" fill="#ed9257" d="M 48.5,21.5 C 49.4614,23.2646 49.7947,25.2646 49.5,27.5C 49.5,27.8333 49.5,28.1667 49.5,28.5C 46.5507,30.4986 43.5507,30.8319 40.5,29.5C 40.5,29.1667 40.5,28.8333 40.5,28.5C 45.836,29.8155 48.5026,27.8155 48.5,22.5C 48.5,22.1667 48.5,21.8333 48.5,21.5 Z"/></g>
<g><path style="opacity:1" fill="#792535" d="M 59.5,24.5 C 59.7031,26.0443 60.3698,27.3777 61.5,28.5C 61.1373,29.1835 60.8039,29.8501 60.5,30.5C 59.8333,30.5 59.5,30.8333 59.5,31.5C 58.2876,30.7701 57.2876,29.7701 56.5,28.5C 55.8933,28.6236 55.56,28.9569 55.5,29.5C 54.1667,29.5 52.8333,29.5 51.5,29.5C 50.8333,29.1667 50.1667,28.8333 49.5,28.5C 49.5,28.1667 49.5,27.8333 49.5,27.5C 51.8984,27.7406 53.8984,27.0739 55.5,25.5C 56.5676,24.5655 57.901,24.2322 59.5,24.5 Z"/></g>
<g><path style="opacity:1" fill="#47233e" d="M 36.5,21.5 C 36.3379,23.5273 36.5045,25.5273 37,27.5C 37.8159,28.8228 38.9826,29.4894 40.5,29.5C 43.5507,30.8319 46.5507,30.4986 49.5,28.5C 50.1667,28.8333 50.8333,29.1667 51.5,29.5C 51.9321,30.7095 52.5987,31.7095 53.5,32.5C 53.5,32.8333 53.5,33.1667 53.5,33.5C 53.5,33.8333 53.5,34.1667 53.5,34.5C 53.1667,34.5 52.8333,34.5 52.5,34.5C 51.9522,32.4677 50.6188,31.4677 48.5,31.5C 46.7085,31.366 45.0418,31.6993 43.5,32.5C 42.791,31.596 41.791,31.2627 40.5,31.5C 39.8333,31.5 39.1667,31.5 38.5,31.5C 37.791,30.596 36.791,30.2627 35.5,30.5C 33.4862,30.3915 31.8195,31.0582 30.5,32.5C 27.7417,31.0335 28.075,30.3668 31.5,30.5C 31.5,29.5 31.5,28.5 31.5,27.5C 32.5832,27.4606 33.5832,27.1272 34.5,26.5C 35.1698,24.7086 35.8365,23.0419 36.5,21.5 Z"/></g>
<g><path style="opacity:1" fill="#3b1431" d="M 80.5,18.5 C 80.3379,20.5273 80.5045,22.5273 81,24.5C 82.0177,23.2941 82.5177,23.6274 82.5,25.5C 80.5218,28.6452 78.0218,31.3119 75,33.5C 73.9887,32.6634 72.8221,32.33 71.5,32.5C 67.7936,31.9131 64.127,31.2464 60.5,30.5C 60.8039,29.8501 61.1373,29.1835 61.5,28.5C 60.3698,27.3777 59.7031,26.0443 59.5,24.5C 62.0661,24.6556 64.5661,24.3223 67,23.5C 69.2874,25.8146 70.7874,25.1479 71.5,21.5C 72.2679,20.7375 72.7679,19.7375 73,18.5C 73.3333,19.5 73.6667,20.5 74,21.5C 74.5431,19.3686 75.3764,17.3686 76.5,15.5C 77.5,15.8333 78.1667,16.5 78.5,17.5C 77.5437,19.6996 78.2104,20.0329 80.5,18.5 Z"/></g>
<g><path style="opacity:0.333" fill="#473931" d="M 6.5,21.5 C 7.33825,21.8417 7.67158,22.5084 7.5,23.5C 7.27863,26.2788 7.61197,28.9455 8.5,31.5C 6.09709,31.552 3.76375,31.2186 1.5,30.5C 0.833333,30.5 0.166667,30.5 -0.5,30.5C -0.5,29.8333 -0.5,29.1667 -0.5,28.5C 1.82682,28.6646 3.99348,29.3313 6,30.5C 6.49796,27.5184 6.66463,24.5184 6.5,21.5 Z"/></g>
<g><path style="opacity:1" fill="#782554" d="M 7.5,23.5 C 8.27187,24.6935 9.27187,25.6935 10.5,26.5C 11.5,28.1667 12.8333,29.5 14.5,30.5C 14.8333,31.1667 15.1667,31.8333 15.5,32.5C 14.2976,33.4054 12.9643,33.4054 11.5,32.5C 10.609,31.8902 9.60895,31.5569 8.5,31.5C 7.61197,28.9455 7.27863,26.2788 7.5,23.5 Z"/></g>
<g><path style="opacity:1" fill="#331829" d="M 80.5,18.5 C 82.4663,19.2545 82.7996,20.4212 81.5,22C 82.0944,22.4643 82.7611,22.631 83.5,22.5C 83.5,25.5 83.5,28.5 83.5,31.5C 81.66,33.168 79.66,34.668 77.5,36C 78.8228,36.8159 79.4894,37.9826 79.5,39.5C 78.5,38.8333 77.5,38.1667 76.5,37.5C 75.4154,35.4131 73.7488,34.0798 71.5,33.5C 71.5,33.1667 71.5,32.8333 71.5,32.5C 72.8221,32.33 73.9887,32.6634 75,33.5C 78.0218,31.3119 80.5218,28.6452 82.5,25.5C 82.5177,23.6274 82.0177,23.2941 81,24.5C 80.5045,22.5273 80.3379,20.5273 80.5,18.5 Z"/></g>
<g><path style="opacity:1" fill="#6f9b45" d="M 35.5,30.5 C 36.791,30.2627 37.791,30.596 38.5,31.5C 38.5,34.1667 38.5,36.8333 38.5,39.5C 38.1667,39.5 37.8333,39.5 37.5,39.5C 37.8928,36.4867 37.2261,33.8201 35.5,31.5C 35.5,31.1667 35.5,30.8333 35.5,30.5 Z"/></g>
<g><path style="opacity:1" fill="#cb6b3e" d="M 51.5,29.5 C 52.8333,29.5 54.1667,29.5 55.5,29.5C 55.8333,30.8333 56.1667,32.1667 56.5,33.5C 55.609,32.8902 54.609,32.5569 53.5,32.5C 52.5987,31.7095 51.9321,30.7095 51.5,29.5 Z"/></g>
<g><path style="opacity:1" fill="#4c874f" d="M 40.5,31.5 C 41.791,31.2627 42.791,31.596 43.5,32.5C 43.5,32.8333 43.5,33.1667 43.5,33.5C 42.8333,34.8333 42.1667,36.1667 41.5,37.5C 40.6586,35.6208 40.3253,33.6208 40.5,31.5 Z"/></g>
<g><path style="opacity:1" fill="#b13933" d="M 48.5,31.5 C 51.7598,35.3079 52.4265,39.6413 50.5,44.5C 49.596,43.791 49.2627,42.791 49.5,41.5C 51.8604,36.2323 50.1937,33.5656 44.5,33.5C 44.5,34.8333 44.5,36.1667 44.5,37.5C 44.5,38.1667 44.1667,38.5 43.5,38.5C 43.5,36.8333 43.5,35.1667 43.5,33.5C 43.5,33.1667 43.5,32.8333 43.5,32.5C 45.0418,31.6993 46.7085,31.366 48.5,31.5 Z"/></g>
<g><path style="opacity:1" fill="#c54c2b" d="M 60.5,30.5 C 64.127,31.2464 67.7936,31.9131 71.5,32.5C 71.5,32.8333 71.5,33.1667 71.5,33.5C 70.8333,33.5 70.5,33.8333 70.5,34.5C 67.8333,34.5 65.1667,34.5 62.5,34.5C 61.3065,33.7281 60.3065,32.7281 59.5,31.5C 59.5,30.8333 59.8333,30.5 60.5,30.5 Z"/></g>
<g><path style="opacity:1" fill="#f1ea97" d="M -0.5,30.5 C 0.166667,30.5 0.833333,30.5 1.5,30.5C 3.70534,32.3634 5.03867,34.6967 5.5,37.5C 3.82124,37.2852 2.82124,37.9519 2.5,39.5C 1.83333,39.5 1.5,39.1667 1.5,38.5C 1.77089,36.6203 1.10422,35.287 -0.5,34.5C -0.5,33.1667 -0.5,31.8333 -0.5,30.5 Z"/></g>
<g><path style="opacity:1" fill="#b08f44" d="M 49.5,41.5 C 48.1054,42.8146 47.1054,42.4812 46.5,40.5C 49.148,38.8724 49.148,37.2057 46.5,35.5C 45.537,35.9698 45.537,36.6365 46.5,37.5C 45.8333,37.5 45.1667,37.5 44.5,37.5C 44.5,36.1667 44.5,34.8333 44.5,33.5C 50.1937,33.5656 51.8604,36.2323 49.5,41.5 Z"/></g>
<g><path style="opacity:1" fill="#bcbe73" d="M 59.5,31.5 C 60.3065,32.7281 61.3065,33.7281 62.5,34.5C 62.0618,34.4346 61.7284,34.6012 61.5,35C 62.5,36 63.5,37 64.5,38C 62.9336,38.6082 61.6002,39.4415 60.5,40.5C 59.8333,40.1667 59.1667,39.8333 58.5,39.5C 57.8333,37.5 57.1667,35.5 56.5,33.5C 56.1667,32.1667 55.8333,30.8333 55.5,29.5C 55.56,28.9569 55.8933,28.6236 56.5,28.5C 57.2876,29.7701 58.2876,30.7701 59.5,31.5 Z"/></g>
<g><path style="opacity:1" fill="#5f1e3d" d="M 26.5,23.5 C 28.4607,24.4602 30.1274,25.7935 31.5,27.5C 31.5,28.5 31.5,29.5 31.5,30.5C 28.075,30.3668 27.7417,31.0335 30.5,32.5C 29.7101,33.7942 28.7101,34.9609 27.5,36C 28.2524,36.6708 28.5858,37.5041 28.5,38.5C 27.8333,39.1667 27.1667,39.8333 26.5,40.5C 25.5119,45.6405 25.1786,50.9738 25.5,56.5C 26.5,56.5 27.5,56.5 28.5,56.5C 32.6536,56.0884 36.6536,55.0884 40.5,53.5C 40.5,53.8333 40.5,54.1667 40.5,54.5C 40.5,54.8333 40.5,55.1667 40.5,55.5C 39.8333,55.8333 39.1667,56.1667 38.5,56.5C 34.8899,57.7033 31.2232,58.7033 27.5,59.5C 26.8333,59.1667 26.1667,58.8333 25.5,58.5C 25.0472,57.5416 24.3805,56.7083 23.5,56C 20.5184,55.502 17.5184,55.3354 14.5,55.5C 16.3885,54.678 18.3885,53.8447 20.5,53C 21.2228,50.9817 22.2228,49.1484 23.5,47.5C 24.1525,43.7506 23.3192,40.084 21,36.5C 20.3292,35.7476 19.4959,35.4142 18.5,35.5C 17.1667,34.8333 16.1667,33.8333 15.5,32.5C 17.7345,33.4469 20.0678,34.1136 22.5,34.5C 24.9818,34.8896 26.3152,33.8896 26.5,31.5C 27.2189,29.9087 28.2189,28.4087 29.5,27C 27.9443,26.2798 26.9443,25.1132 26.5,23.5 Z"/></g>
<g><path style="opacity:1" fill="#b9cd71" d="M 62.5,34.5 C 65.1667,34.5 67.8333,34.5 70.5,34.5C 70.8333,35.1667 71.1667,35.8333 71.5,36.5C 69.1401,38.8532 66.4735,40.8532 63.5,42.5C 62.2905,42.0679 61.2905,41.4013 60.5,40.5C 61.6002,39.4415 62.9336,38.6082 64.5,38C 63.5,37 62.5,36 61.5,35C 61.7284,34.6012 62.0618,34.4346 62.5,34.5 Z"/></g>
<g><path style="opacity:1" fill="#5f4c86" d="M 71.5,33.5 C 73.7488,34.0798 75.4154,35.4131 76.5,37.5C 75.8333,37.5 75.1667,37.5 74.5,37.5C 74.1667,37.5 73.8333,37.5 73.5,37.5C 73.1583,36.6618 72.4916,36.3284 71.5,36.5C 71.1667,35.8333 70.8333,35.1667 70.5,34.5C 70.5,33.8333 70.8333,33.5 71.5,33.5 Z"/></g>
<g><path style="opacity:0.784" fill="#333325" d="M -0.5,34.5 C 1.10422,35.287 1.77089,36.6203 1.5,38.5C 0.833333,37.8333 0.166667,37.1667 -0.5,36.5C -0.5,35.8333 -0.5,35.1667 -0.5,34.5 Z"/></g>
<g><path style="opacity:1" fill="#a53341" d="M 35.5,31.5 C 37.2261,33.8201 37.8928,36.4867 37.5,39.5C 36.8333,40.8333 36.1667,40.8333 35.5,39.5C 35.6602,37.8008 35.4935,36.1341 35,34.5C 34.3292,33.7476 33.4959,33.4142 32.5,33.5C 32.9731,32.0937 33.9731,31.427 35.5,31.5 Z"/></g>
<g><path style="opacity:1" fill="#c9473a" d="M 32.5,33.5 C 33.4959,33.4142 34.3292,33.7476 35,34.5C 35.4935,36.1341 35.6602,37.8008 35.5,39.5C 33.2433,39.0383 31.2433,38.0383 29.5,36.5C 30.1882,35.1451 31.1882,34.1451 32.5,33.5 Z"/></g>
<g><path style="opacity:1" fill="#6dca2b" d="M 46.5,40.5 C 45.375,39.6522 45.375,38.6522 46.5,37.5C 45.537,36.6365 45.537,35.9698 46.5,35.5C 49.148,37.2057 49.148,38.8724 46.5,40.5 Z"/></g>
<g><path style="opacity:1" fill="#f5964c" d="M 11.5,32.5 C 12.9643,33.4054 14.2976,33.4054 15.5,32.5C 16.1667,33.8333 17.1667,34.8333 18.5,35.5C 19.0138,37.3664 19.6805,39.1997 20.5,41C 20.3333,41.5 20.1667,42 20,42.5C 18.7083,41.2089 17.5417,41.2089 16.5,42.5C 13.8554,41.5094 11.522,40.0094 9.5,38C 10.448,37.5172 11.448,37.3505 12.5,37.5C 12.3713,35.7839 12.038,34.1172 11.5,32.5 Z"/></g>
<g><path style="opacity:1" fill="#ba7442" d="M 35.5,30.5 C 35.5,30.8333 35.5,31.1667 35.5,31.5C 33.9731,31.427 32.9731,32.0937 32.5,33.5C 31.1882,34.1451 30.1882,35.1451 29.5,36.5C 31.2433,38.0383 33.2433,39.0383 35.5,39.5C 36.1667,40.8333 36.8333,40.8333 37.5,39.5C 37.8333,39.5 38.1667,39.5 38.5,39.5C 39.404,40.209 39.7373,41.209 39.5,42.5C 35.7394,41.4543 32.0727,40.121 28.5,38.5C 28.5858,37.5041 28.2524,36.6708 27.5,36C 28.7101,34.9609 29.7101,33.7942 30.5,32.5C 31.8195,31.0582 33.4862,30.3915 35.5,30.5 Z"/></g>
<g><path style="opacity:1" fill="#4a4a44" d="M 53.5,33.5 C 54.531,35.9608 55.1977,38.6275 55.5,41.5C 55.5,42.1667 55.5,42.8333 55.5,43.5C 55.7373,44.791 55.404,45.791 54.5,46.5C 54.5,46.1667 54.5,45.8333 54.5,45.5C 54.2756,41.8212 53.9422,38.1545 53.5,34.5C 53.5,34.1667 53.5,33.8333 53.5,33.5 Z"/></g>
<g><path style="opacity:1" fill="#ec9629" d="M 53.5,33.5 C 53.5,33.1667 53.5,32.8333 53.5,32.5C 54.609,32.5569 55.609,32.8902 56.5,33.5C 57.1667,35.5 57.8333,37.5 58.5,39.5C 58.0269,40.9063 57.0269,41.573 55.5,41.5C 55.1977,38.6275 54.531,35.9608 53.5,33.5 Z"/></g>
<g><path style="opacity:1" fill="#f9d44f" d="M 1.5,30.5 C 3.76375,31.2186 6.09709,31.552 8.5,31.5C 9.60895,31.5569 10.609,31.8902 11.5,32.5C 12.038,34.1172 12.3713,35.7839 12.5,37.5C 11.448,37.3505 10.448,37.5172 9.5,38C 11.522,40.0094 13.8554,41.5094 16.5,42.5C 18.7619,43.3449 19.4286,44.6783 18.5,46.5C 18.1667,46.5 17.8333,46.5 17.5,46.5C 15.8333,46.5 14.1667,46.5 12.5,46.5C 12.1667,46.5 11.8333,46.5 11.5,46.5C 11.3893,45.8826 11.056,45.3826 10.5,45C 11.8333,44.6667 13.1667,44.3333 14.5,44C 12.5594,43.2571 10.7261,43.4238 9,44.5C 8.18405,43.1772 7.01739,42.5106 5.5,42.5C 4.16667,41.8333 3.16667,40.8333 2.5,39.5C 2.82124,37.9519 3.82124,37.2852 5.5,37.5C 5.03867,34.6967 3.70534,32.3634 1.5,30.5 Z"/></g>
<g><path style="opacity:1" fill="#566c62" d="M 43.5,33.5 C 43.5,35.1667 43.5,36.8333 43.5,38.5C 44.4151,40.7541 45.7484,42.7541 47.5,44.5C 47.0302,45.463 46.3635,45.463 45.5,44.5C 43.3311,42.6597 41.9977,40.3263 41.5,37.5C 42.1667,36.1667 42.8333,34.8333 43.5,33.5 Z"/></g>
<g><path style="opacity:1" fill="#f4c74d" d="M 26.5,40.5 C 29.4802,41.3234 32.1469,42.6567 34.5,44.5C 31.2027,44.3287 30.8694,44.9954 33.5,46.5C 33.1373,47.1835 32.8039,47.8501 32.5,48.5C 31.1667,47.5 29.8333,46.5 28.5,45.5C 28.44,44.9569 28.1067,44.6236 27.5,44.5C 26.1667,47.8333 26.1667,51.1667 27.5,54.5C 28.8549,53.8118 29.8549,52.8118 30.5,51.5C 31.1667,51.1667 31.8333,50.8333 32.5,50.5C 33.1667,51.5 33.8333,52.5 34.5,53.5C 32.0326,53.7549 30.0326,54.7549 28.5,56.5C 27.5,56.5 26.5,56.5 25.5,56.5C 25.1786,50.9738 25.5119,45.6405 26.5,40.5 Z"/></g>
<g><path style="opacity:1" fill="#e04332" d="M 38.5,31.5 C 39.1667,31.5 39.8333,31.5 40.5,31.5C 40.3253,33.6208 40.6586,35.6208 41.5,37.5C 41.9977,40.3263 43.3311,42.6597 45.5,44.5C 45.5299,45.4972 45.0299,46.1639 44,46.5C 41.9933,45.6559 40.4933,44.3226 39.5,42.5C 39.7373,41.209 39.404,40.209 38.5,39.5C 38.5,36.8333 38.5,34.1667 38.5,31.5 Z"/></g>
<g><path style="opacity:1" fill="#e0983d" d="M 48.5,31.5 C 50.6188,31.4677 51.9522,32.4677 52.5,34.5C 52.5,37.8333 52.5,41.1667 52.5,44.5C 51.8333,44.5 51.1667,44.5 50.5,44.5C 52.4265,39.6413 51.7598,35.3079 48.5,31.5 Z"/></g>
<g><path style="opacity:1" fill="#92a158" d="M 52.5,34.5 C 52.8333,34.5 53.1667,34.5 53.5,34.5C 53.9422,38.1545 54.2756,41.8212 54.5,45.5C 53.8333,45.1667 53.1667,44.8333 52.5,44.5C 52.5,41.1667 52.5,37.8333 52.5,34.5 Z"/></g>
<g><path style="opacity:1" fill="#e68040" d="M 71.5,36.5 C 72.4916,36.3284 73.1583,36.6618 73.5,37.5C 72.8333,37.5 72.5,37.8333 72.5,38.5C 68.3645,40.2963 65.6978,43.2963 64.5,47.5C 64.5,47.1667 64.5,46.8333 64.5,46.5C 64.5674,45.0413 64.2341,43.7079 63.5,42.5C 66.4735,40.8532 69.1401,38.8532 71.5,36.5 Z"/></g>
<g><path style="opacity:1" fill="#f7bf34" d="M 72.5,38.5 C 72.5,37.8333 72.8333,37.5 73.5,37.5C 73.8333,37.5 74.1667,37.5 74.5,37.5C 75.4137,40.728 75.7471,44.0613 75.5,47.5C 74.8333,47.8333 74.1667,48.1667 73.5,48.5C 73.5,46.1667 73.5,43.8333 73.5,41.5C 73.7373,40.209 73.404,39.209 72.5,38.5 Z"/></g>
<g><path style="opacity:1" fill="#b78c3e" d="M 5.5,42.5 C 7.01739,42.5106 8.18405,43.1772 9,44.5C 10.7261,43.4238 12.5594,43.2571 14.5,44C 13.1667,44.3333 11.8333,44.6667 10.5,45C 11.056,45.3826 11.3893,45.8826 11.5,46.5C 11.1667,46.5 10.8333,46.5 10.5,46.5C 8.24602,45.8763 6.57935,44.543 5.5,42.5 Z"/></g>
<g><path style="opacity:1" fill="#d26658" d="M 18.5,35.5 C 19.4959,35.4142 20.3292,35.7476 21,36.5C 23.3192,40.084 24.1525,43.7506 23.5,47.5C 22.5416,47.0472 21.7083,46.3805 21,45.5C 20.3292,46.2524 19.4959,46.5858 18.5,46.5C 19.4286,44.6783 18.7619,43.3449 16.5,42.5C 17.5417,41.2089 18.7083,41.2089 20,42.5C 20.1667,42 20.3333,41.5 20.5,41C 19.6805,39.1997 19.0138,37.3664 18.5,35.5 Z"/></g>
<g><path style="opacity:1" fill="#d7843d" d="M 34.5,44.5 C 37.2406,44.7073 39.5739,45.7073 41.5,47.5C 40.1667,47.5 38.8333,47.5 37.5,47.5C 36.5,47.5 35.5,47.5 34.5,47.5C 34.5,48.8333 34.5,50.1667 34.5,51.5C 35.5,51.5 36.5,51.5 37.5,51.5C 36.7095,52.4013 35.7095,53.0679 34.5,53.5C 33.8333,52.5 33.1667,51.5 32.5,50.5C 32.5,49.8333 32.5,49.1667 32.5,48.5C 32.8039,47.8501 33.1373,47.1835 33.5,46.5C 30.8694,44.9954 31.2027,44.3287 34.5,44.5 Z"/></g>
<g><path style="opacity:1" fill="#b6603d" d="M 73.5,41.5 C 73.5,43.8333 73.5,46.1667 73.5,48.5C 73.5,50.5 73.5,52.5 73.5,54.5C 72.6773,51.023 72.1773,47.3563 72,43.5C 71.3333,44.1667 70.6667,44.8333 70,45.5C 69.502,48.4816 69.3354,51.4816 69.5,54.5C 68.8826,54.3893 68.3826,54.056 68,53.5C 67.3333,50.1667 67.3333,46.8333 68,43.5C 69.5843,42.1387 71.4176,41.472 73.5,41.5 Z"/></g>
<g><path style="opacity:1" fill="#86293a" d="M 44.5,37.5 C 45.1667,37.5 45.8333,37.5 46.5,37.5C 45.375,38.6522 45.375,39.6522 46.5,40.5C 47.1054,42.4812 48.1054,42.8146 49.5,41.5C 49.2627,42.791 49.596,43.791 50.5,44.5C 51.1667,44.5 51.8333,44.5 52.5,44.5C 53.1667,44.8333 53.8333,45.1667 54.5,45.5C 54.5,45.8333 54.5,46.1667 54.5,46.5C 52.4727,46.3379 50.4727,46.5045 48.5,47C 47.1667,48.6667 47.1667,50.3333 48.5,52C 50.8098,52.4966 53.1432,52.6633 55.5,52.5C 55.5,54.1667 55.5,55.8333 55.5,57.5C 55.7845,59.4147 55.4511,61.0813 54.5,62.5C 54.8064,59.6146 54.4731,56.9479 53.5,54.5C 52.391,54.5569 51.391,54.8902 50.5,55.5C 48.9505,56.4408 47.2838,57.1075 45.5,57.5C 46.5736,56.1154 47.9069,54.9487 49.5,54C 47.5932,52.878 45.5932,52.0447 43.5,51.5C 43.8432,49.5168 43.1765,48.1834 41.5,47.5C 39.5739,45.7073 37.2406,44.7073 34.5,44.5C 32.1469,42.6567 29.4802,41.3234 26.5,40.5C 27.1667,39.8333 27.8333,39.1667 28.5,38.5C 32.0727,40.121 35.7394,41.4543 39.5,42.5C 40.4933,44.3226 41.9933,45.6559 44,46.5C 45.0299,46.1639 45.5299,45.4972 45.5,44.5C 46.3635,45.463 47.0302,45.463 47.5,44.5C 45.7484,42.7541 44.4151,40.7541 43.5,38.5C 44.1667,38.5 44.5,38.1667 44.5,37.5 Z"/></g>
<g><path style="opacity:0.392" fill="#2a261c" d="M 10.5,46.5 C 10.8333,46.5 11.1667,46.5 11.5,46.5C 11.8333,46.5 12.1667,46.5 12.5,46.5C 11.7377,48.2624 10.4044,49.2624 8.5,49.5C 9.16667,48.5 9.83333,47.5 10.5,46.5 Z"/></g>
<g><path style="opacity:1" fill="#61934d" d="M 28.5,45.5 C 29.8333,46.5 31.1667,47.5 32.5,48.5C 32.5,49.1667 32.5,49.8333 32.5,50.5C 31.8333,50.8333 31.1667,51.1667 30.5,51.5C 30.2964,49.3146 29.6298,47.3146 28.5,45.5 Z"/></g>
<g><path style="opacity:0.4" fill="#211f22" d="M 82.5,43.5 C 82.8333,43.5 83.1667,43.5 83.5,43.5C 83.5,47.5 83.5,51.5 83.5,55.5C 82.7281,56.6935 81.7281,57.6935 80.5,58.5C 82.2421,53.6923 82.9088,48.6923 82.5,43.5 Z"/></g>
<g><path style="opacity:1" fill="#8e9666" d="M 37.5,47.5 C 37.5,48.8333 37.5,50.1667 37.5,51.5C 36.5,51.5 35.5,51.5 34.5,51.5C 34.5,50.1667 34.5,48.8333 34.5,47.5C 35.5,47.5 36.5,47.5 37.5,47.5 Z"/></g>
<g><path style="opacity:1" fill="#c6453f" d="M 58.5,39.5 C 59.1667,39.8333 59.8333,40.1667 60.5,40.5C 61.2905,41.4013 62.2905,42.0679 63.5,42.5C 64.2341,43.7079 64.5674,45.0413 64.5,46.5C 63.5178,45.8592 62.5178,45.1925 61.5,44.5C 61.1667,44.8333 60.8333,45.1667 60.5,45.5C 63.0918,48.3135 63.0918,51.1468 60.5,54C 62.016,55.9626 61.6827,57.4626 59.5,58.5C 58.2921,57.7659 56.9587,57.4326 55.5,57.5C 55.5,55.8333 55.5,54.1667 55.5,52.5C 56.404,53.209 56.7373,54.209 56.5,55.5C 57.5,55.5 58.5,55.5 59.5,55.5C 60.0081,52.8239 60.1747,50.1572 60,47.5C 59.0201,45.9411 58.1867,44.2744 57.5,42.5C 56.8165,42.8627 56.1499,43.1961 55.5,43.5C 55.5,42.8333 55.5,42.1667 55.5,41.5C 57.0269,41.573 58.0269,40.9063 58.5,39.5 Z"/></g>
<g><path style="opacity:1" fill="#96a852" d="M 28.5,45.5 C 27.3709,47.6282 27.2042,49.9615 28,52.5C 28.6708,51.7476 29.5041,51.4142 30.5,51.5C 29.8549,52.8118 28.8549,53.8118 27.5,54.5C 26.1667,51.1667 26.1667,47.8333 27.5,44.5C 28.1067,44.6236 28.44,44.9569 28.5,45.5 Z"/></g>
<g><path style="opacity:1" fill="#a03237" d="M 74.5,37.5 C 75.1667,37.5 75.8333,37.5 76.5,37.5C 77.5,38.1667 78.5,38.8333 79.5,39.5C 81.2624,40.2623 82.2624,41.5956 82.5,43.5C 82.9088,48.6923 82.2421,53.6923 80.5,58.5C 80.1667,59.1667 79.8333,59.8333 79.5,60.5C 77.8828,61.038 76.2161,61.3713 74.5,61.5C 75.441,56.9296 75.7744,52.263 75.5,47.5C 75.7471,44.0613 75.4137,40.728 74.5,37.5 Z"/></g>
<g><path style="opacity:1" fill="#f47444" d="M 77.5,40.5 C 79.0174,40.5106 80.1841,41.1772 81,42.5C 81.6667,45.5 81.6667,48.5 81,51.5C 80.7398,49.3825 79.7398,47.7158 78,46.5C 77.5045,44.5273 77.3379,42.5273 77.5,40.5 Z"/></g>
<g><path style="opacity:1" fill="#78ce2f" d="M 28.5,45.5 C 29.6298,47.3146 30.2964,49.3146 30.5,51.5C 29.5041,51.4142 28.6708,51.7476 28,52.5C 27.2042,49.9615 27.3709,47.6282 28.5,45.5 Z"/></g>
<g><path style="opacity:1" fill="#6b1832" d="M 64.5,46.5 C 64.5,46.8333 64.5,47.1667 64.5,47.5C 65.5073,49.5699 65.174,51.5699 63.5,53.5C 64.6302,54.6223 65.2969,55.9557 65.5,57.5C 63.5648,58.1495 61.5648,58.4828 59.5,58.5C 61.6827,57.4626 62.016,55.9626 60.5,54C 63.0918,51.1468 63.0918,48.3135 60.5,45.5C 60.8333,45.1667 61.1667,44.8333 61.5,44.5C 62.5178,45.1925 63.5178,45.8592 64.5,46.5 Z"/></g>
<g><path style="opacity:1" fill="#de8243" d="M 12.5,46.5 C 14.1667,46.5 15.8333,46.5 17.5,46.5C 17.9175,47.2216 18.5842,47.7216 19.5,48C 13.5994,51.1102 8.26608,54.9435 3.5,59.5C 2.70245,59.0431 2.36912,58.3764 2.5,57.5C 3.06274,53.6893 5.06274,51.0226 8.5,49.5C 10.4044,49.2624 11.7377,48.2624 12.5,46.5 Z"/></g>
<g><path style="opacity:1" fill="#cd603e" d="M 37.5,47.5 C 38.8333,47.5 40.1667,47.5 41.5,47.5C 43.1765,48.1834 43.8432,49.5168 43.5,51.5C 42.2905,51.9321 41.2905,52.5987 40.5,53.5C 36.6536,55.0884 32.6536,56.0884 28.5,56.5C 30.0326,54.7549 32.0326,53.7549 34.5,53.5C 35.7095,53.0679 36.7095,52.4013 37.5,51.5C 37.5,50.1667 37.5,48.8333 37.5,47.5 Z"/></g>
<g><path style="opacity:1" fill="#f4a43e" d="M 55.5,52.5 C 53.1432,52.6633 50.8098,52.4966 48.5,52C 47.1667,50.3333 47.1667,48.6667 48.5,47C 50.4727,46.5045 52.4727,46.3379 54.5,46.5C 55.404,45.791 55.7373,44.791 55.5,43.5C 56.1499,43.1961 56.8165,42.8627 57.5,42.5C 58.1867,44.2744 59.0201,45.9411 60,47.5C 60.1747,50.1572 60.0081,52.8239 59.5,55.5C 58.5,55.5 57.5,55.5 56.5,55.5C 56.7373,54.209 56.404,53.209 55.5,52.5 Z"/></g>
<g><path style="opacity:1" fill="#adc7a8" d="M 49.5,47.5 C 52.1873,47.3359 54.854,47.5026 57.5,48C 58.8333,49 58.8333,50 57.5,51C 54.8333,51.6667 52.1667,51.6667 49.5,51C 48.3157,49.8545 48.3157,48.6879 49.5,47.5 Z"/></g>
<g><path style="opacity:1" fill="#99353a" d="M 73.5,54.5 C 73.4431,55.609 73.1098,56.609 72.5,57.5C 71.1266,57.6567 69.7932,57.49 68.5,57C 69.2524,56.3292 69.5858,55.4959 69.5,54.5C 69.3354,51.4816 69.502,48.4816 70,45.5C 70.6667,44.8333 71.3333,44.1667 72,43.5C 72.1773,47.3563 72.6773,51.023 73.5,54.5 Z"/></g>
<g><path style="opacity:1" fill="#564d56" d="M 43.5,51.5 C 45.5932,52.0447 47.5932,52.878 49.5,54C 47.9069,54.9487 46.5736,56.1154 45.5,57.5C 45.1667,57.5 44.8333,57.5 44.5,57.5C 44.1667,57.5 43.8333,57.5 43.5,57.5C 43.7214,56.2652 44.3881,55.2652 45.5,54.5C 43.9052,53.5661 42.2385,53.5661 40.5,54.5C 40.5,54.1667 40.5,53.8333 40.5,53.5C 41.2905,52.5987 42.2905,51.9321 43.5,51.5 Z"/></g>
<g><path style="opacity:1" fill="#7f3044" d="M 23.5,47.5 C 22.2228,49.1484 21.2228,50.9817 20.5,53C 18.3885,53.8447 16.3885,54.678 14.5,55.5C 13.5084,55.3284 12.8417,55.6618 12.5,56.5C 10.2279,57.4411 8.22794,58.7745 6.5,60.5C 6.16667,59.1667 5.83333,59.1667 5.5,60.5C 4.16667,60.5 2.83333,60.5 1.5,60.5C 1.26269,59.209 1.59603,58.209 2.5,57.5C 2.36912,58.3764 2.70245,59.0431 3.5,59.5C 8.26608,54.9435 13.5994,51.1102 19.5,48C 18.5842,47.7216 17.9175,47.2216 17.5,46.5C 17.8333,46.5 18.1667,46.5 18.5,46.5C 19.4959,46.5858 20.3292,46.2524 21,45.5C 21.7083,46.3805 22.5416,47.0472 23.5,47.5 Z"/></g>
<g><path style="opacity:1" fill="#9e2f3b" d="M 72.5,38.5 C 73.404,39.209 73.7373,40.209 73.5,41.5C 71.4176,41.472 69.5843,42.1387 68,43.5C 67.3333,46.8333 67.3333,50.1667 68,53.5C 68.3826,54.056 68.8826,54.3893 69.5,54.5C 69.5858,55.4959 69.2524,56.3292 68.5,57C 69.7932,57.49 71.1266,57.6567 72.5,57.5C 73.1656,58.9122 73.4989,60.2455 73.5,61.5C 73.1583,62.3382 72.4916,62.6716 71.5,62.5C 69.0905,61.2993 67.0905,59.6326 65.5,57.5C 65.2969,55.9557 64.6302,54.6223 63.5,53.5C 65.174,51.5699 65.5073,49.5699 64.5,47.5C 65.6978,43.2963 68.3645,40.2963 72.5,38.5 Z"/></g>
<g><path style="opacity:1" fill="#f4933a" d="M 75.5,47.5 C 75.7744,52.263 75.441,56.9296 74.5,61.5C 74.1667,61.5 73.8333,61.5 73.5,61.5C 73.4989,60.2455 73.1656,58.9122 72.5,57.5C 73.1098,56.609 73.4431,55.609 73.5,54.5C 73.5,52.5 73.5,50.5 73.5,48.5C 74.1667,48.1667 74.8333,47.8333 75.5,47.5 Z"/></g>
<g><path style="opacity:1" fill="#af9d6f" d="M 40.5,55.5 C 38.78,58.8892 38.1134,62.5559 38.5,66.5C 37.5386,64.7354 37.2053,62.7354 37.5,60.5C 37.5,59.8333 37.5,59.1667 37.5,58.5C 37.8333,57.8333 38.1667,57.1667 38.5,56.5C 39.1667,56.1667 39.8333,55.8333 40.5,55.5 Z"/></g>
<g><path style="opacity:1" fill="#da4b23" d="M 43.5,57.5 C 42.5,57.8333 41.8333,58.5 41.5,59.5C 40.7487,62.246 39.7487,64.9127 38.5,67.5C 38.5,67.1667 38.5,66.8333 38.5,66.5C 38.1134,62.5559 38.78,58.8892 40.5,55.5C 40.5,55.1667 40.5,54.8333 40.5,54.5C 42.2385,53.5661 43.9052,53.5661 45.5,54.5C 44.3881,55.2652 43.7214,56.2652 43.5,57.5 Z"/></g>
<g><path style="opacity:1" fill="#c48438" d="M 53.5,54.5 C 53.5,55.5 53.5,56.5 53.5,57.5C 52.8333,59.1667 52.1667,60.8333 51.5,62.5C 51.3259,60.139 50.9926,57.8056 50.5,55.5C 51.391,54.8902 52.391,54.5569 53.5,54.5 Z"/></g>
<g><path style="opacity:1" fill="#cc783e" d="M 38.5,56.5 C 38.1667,57.1667 37.8333,57.8333 37.5,58.5C 34.6733,59.1084 32.0067,60.1084 29.5,61.5C 28.8333,61.5 28.1667,61.5 27.5,61.5C 27.5,60.8333 27.5,60.1667 27.5,59.5C 31.2232,58.7033 34.8899,57.7033 38.5,56.5 Z"/></g>
<g><path style="opacity:1" fill="#4a706f" d="M 43.5,57.5 C 43.8333,57.5 44.1667,57.5 44.5,57.5C 44.5,58.1667 44.5,58.8333 44.5,59.5C 43.5233,62.2869 43.19,65.2869 43.5,68.5C 42.8333,68.5 42.1667,68.5 41.5,68.5C 41.5,65.5 41.5,62.5 41.5,59.5C 41.8333,58.5 42.5,57.8333 43.5,57.5 Z"/></g>
<g><path style="opacity:1" fill="#5f897e" d="M 12.5,56.5 C 14.9248,56.684 14.9248,57.3507 12.5,58.5C 13.1667,59.1667 13.8333,59.8333 14.5,60.5C 10.8595,62.4754 7.85954,65.142 5.5,68.5C 4.95691,68.44 4.62358,68.1067 4.5,67.5C 5.57706,65.2706 6.24372,62.9372 6.5,60.5C 8.22794,58.7745 10.2279,57.4411 12.5,56.5 Z"/></g>
<g><path style="opacity:1" fill="#79b454" d="M 53.5,57.5 C 53.6621,59.5273 53.4955,61.5273 53,63.5C 52.6174,64.056 52.1174,64.3893 51.5,64.5C 51.5,63.8333 51.5,63.1667 51.5,62.5C 52.1667,60.8333 52.8333,59.1667 53.5,57.5 Z"/></g>
<g><path style="opacity:1" fill="#3a4349" d="M 53.5,54.5 C 54.4731,56.9479 54.8064,59.6146 54.5,62.5C 54.5,63.1667 54.5,63.8333 54.5,64.5C 53.31,66.8693 51.6433,68.8693 49.5,70.5C 48.8333,70.5 48.5,70.1667 48.5,69.5C 50.7271,68.5994 51.7271,66.9328 51.5,64.5C 52.1174,64.3893 52.6174,64.056 53,63.5C 53.4955,61.5273 53.6621,59.5273 53.5,57.5C 53.5,56.5 53.5,55.5 53.5,54.5 Z"/></g>
<g><path style="opacity:1" fill="#ee8c3b" d="M 55.5,57.5 C 56.9587,57.4326 58.2921,57.7659 59.5,58.5C 58.3995,59.6049 57.7329,60.9382 57.5,62.5C 56.2101,63.0577 55.3768,64.0577 55,65.5C 54.6012,65.2716 54.4346,64.9382 54.5,64.5C 54.5,63.8333 54.5,63.1667 54.5,62.5C 55.4511,61.0813 55.7845,59.4147 55.5,57.5 Z"/></g>
<g><path style="opacity:1" fill="#425350" d="M 12.5,56.5 C 12.8417,55.6618 13.5084,55.3284 14.5,55.5C 17.5184,55.3354 20.5184,55.502 23.5,56C 24.3805,56.7083 25.0472,57.5416 25.5,58.5C 20.7595,62.5374 15.4262,65.5374 9.5,67.5C 8.83333,67.8333 8.16667,68.1667 7.5,68.5C 6.83333,68.5 6.16667,68.5 5.5,68.5C 7.85954,65.142 10.8595,62.4754 14.5,60.5C 13.8333,59.8333 13.1667,59.1667 12.5,58.5C 14.9248,57.3507 14.9248,56.684 12.5,56.5 Z"/></g>
<g><path style="opacity:1" fill="#963b43" d="M 37.5,58.5 C 37.5,59.1667 37.5,59.8333 37.5,60.5C 36.6981,61.9516 36.1981,63.6183 36,65.5C 31.9669,67.3097 29.8003,65.9764 29.5,61.5C 32.0067,60.1084 34.6733,59.1084 37.5,58.5 Z"/></g>
<g><path style="opacity:1" fill="#561b46" d="M 25.5,58.5 C 26.1667,58.8333 26.8333,59.1667 27.5,59.5C 27.5,60.1667 27.5,60.8333 27.5,61.5C 27.0618,61.4346 26.7284,61.6012 26.5,62C 27.3805,62.7083 28.0472,63.5416 28.5,64.5C 27.8333,64.5 27.1667,64.5 26.5,64.5C 25.828,63.7326 24.9947,63.0659 24,62.5C 21.6857,63.7332 19.5191,65.0666 17.5,66.5C 14.9455,67.388 12.2788,67.7214 9.5,67.5C 15.4262,65.5374 20.7595,62.5374 25.5,58.5 Z"/></g>
<g><path style="opacity:1" fill="#8a8e65" d="M 65.5,57.5 C 67.0905,59.6326 69.0905,61.2993 71.5,62.5C 71.1667,63.1667 70.8333,63.8333 70.5,64.5C 64.959,63.3756 60.6257,65.0423 57.5,69.5C 56.1054,71.0544 55.4387,70.721 55.5,68.5C 56.1776,66.484 56.8443,64.484 57.5,62.5C 57.7329,60.9382 58.3995,59.6049 59.5,58.5C 61.5648,58.4828 63.5648,58.1495 65.5,57.5 Z"/></g>
<g><path style="opacity:1" fill="#6b242f" d="M 41.5,59.5 C 41.5,62.5 41.5,65.5 41.5,68.5C 40.609,69.1098 39.609,69.4431 38.5,69.5C 38.5,68.8333 38.5,68.1667 38.5,67.5C 39.7487,64.9127 40.7487,62.246 41.5,59.5 Z"/></g>
<g><path style="opacity:1" fill="#351233" d="M 79.5,60.5 C 79.0472,61.4584 78.3805,62.2917 77.5,63C 79.6175,64.0491 81.2842,65.5491 82.5,67.5C 82.2178,68.7777 81.5511,69.7777 80.5,70.5C 73.0046,68.1938 71.6713,69.3605 76.5,74C 74.6412,74.6008 74.3079,75.4341 75.5,76.5C 73.8986,79.5836 73.2319,82.917 73.5,86.5C 73.1583,87.3382 72.4916,87.6716 71.5,87.5C 71.6655,83.4862 71.4988,79.4862 71,75.5C 69.6081,73.1582 68.7748,73.1582 68.5,75.5C 66.3792,75.6747 64.3792,75.3414 62.5,74.5C 61.7375,73.7321 60.7375,73.2321 59.5,73C 60.1905,71.9326 60.6905,70.7659 61,69.5C 64.7355,69.0248 68.2355,67.8582 71.5,66C 70.944,65.6174 70.6107,65.1174 70.5,64.5C 70.8333,63.8333 71.1667,63.1667 71.5,62.5C 72.4916,62.6716 73.1583,62.3382 73.5,61.5C 73.8333,61.5 74.1667,61.5 74.5,61.5C 76.2161,61.3713 77.8828,61.038 79.5,60.5 Z"/></g>
<g><path style="opacity:1" fill="#973633" d="M 50.5,55.5 C 50.9926,57.8056 51.3259,60.139 51.5,62.5C 51.5,63.1667 51.5,63.8333 51.5,64.5C 51.7271,66.9328 50.7271,68.5994 48.5,69.5C 47.8333,69.5 47.1667,69.5 46.5,69.5C 45.791,68.596 44.791,68.2627 43.5,68.5C 43.19,65.2869 43.5233,62.2869 44.5,59.5C 44.5,58.8333 44.5,58.1667 44.5,57.5C 44.8333,57.5 45.1667,57.5 45.5,57.5C 47.2838,57.1075 48.9505,56.4408 50.5,55.5 Z"/></g>
<g><path style="opacity:1" fill="#868d3c" d="M 44.5,59.5 C 45.6879,58.3157 46.8545,58.3157 48,59.5C 47.4181,64.7881 48.0848,64.7881 50,59.5C 50.9874,63.5057 49.4874,65.339 45.5,65C 44.5939,63.3005 44.2606,61.4672 44.5,59.5 Z"/></g>
<g><path style="opacity:1" fill="#591e39" d="M 26.5,64.5 C 27.1667,64.5 27.8333,64.5 28.5,64.5C 30.7922,67.3048 33.4589,69.6381 36.5,71.5C 36.5,72.1667 36.5,72.8333 36.5,73.5C 36.5,74.8333 36.5,76.1667 36.5,77.5C 35.9162,75.2573 34.7495,73.2573 33,71.5C 30.3883,72.7787 28.0549,74.4453 26,76.5C 25.3658,79.5547 25.5325,82.5547 26.5,85.5C 26.1667,85.5 25.8333,85.5 25.5,85.5C 24.7375,84.7321 23.7375,84.2321 22.5,84C 23.1667,82 23.8333,80 24.5,78C 22.0122,76.3148 22.3455,74.9814 25.5,74C 24.6383,71.2656 23.805,71.0989 23,73.5C 22.2828,72.9558 21.7828,72.2891 21.5,71.5C 22.7787,68.8883 24.4453,66.5549 26.5,64.5 Z"/></g>
<g><path style="opacity:1" fill="#892d3b" d="M 70.5,64.5 C 70.6107,65.1174 70.944,65.6174 71.5,66C 68.2355,67.8582 64.7355,69.0248 61,69.5C 60.6905,70.7659 60.1905,71.9326 59.5,73C 60.7375,73.2321 61.7375,73.7321 62.5,74.5C 60.7085,74.634 59.0418,74.3007 57.5,73.5C 56.7375,72.7321 55.7375,72.2321 54.5,72C 56.1193,71.7645 57.1193,70.9311 57.5,69.5C 60.6257,65.0423 64.959,63.3756 70.5,64.5 Z"/></g>
<g><path style="opacity:1" fill="#91225c" d="M 17.5,66.5 C 18.547,67.0778 18.3803,67.7445 17,68.5C 16.6667,71.8333 16.3333,75.1667 16,78.5C 15.1107,77.1118 14.6107,77.2785 14.5,79C 15.6968,81.8937 17.0301,84.727 18.5,87.5C 17.7997,87.7871 17.1331,88.1205 16.5,88.5C 14.7775,86.7472 13.2775,84.7472 12,82.5C 11.1419,77.8874 10.6419,73.2207 10.5,68.5C 9.58317,69.1272 8.58317,69.4606 7.5,69.5C 7.5,69.1667 7.5,68.8333 7.5,68.5C 8.16667,68.1667 8.83333,67.8333 9.5,67.5C 12.2788,67.7214 14.9455,67.388 17.5,66.5 Z"/></g>
<g><path style="opacity:1" fill="#495748" d="M 37.5,60.5 C 37.2053,62.7354 37.5386,64.7354 38.5,66.5C 38.5,66.8333 38.5,67.1667 38.5,67.5C 38.5,68.1667 38.5,68.8333 38.5,69.5C 38.1667,70.5 37.5,71.1667 36.5,71.5C 33.4589,69.6381 30.7922,67.3048 28.5,64.5C 28.0472,63.5416 27.3805,62.7083 26.5,62C 26.7284,61.6012 27.0618,61.4346 27.5,61.5C 28.1667,61.5 28.8333,61.5 29.5,61.5C 29.8003,65.9764 31.9669,67.3097 36,65.5C 36.1981,63.6183 36.6981,61.9516 37.5,60.5 Z"/></g>
<g><path style="opacity:1" fill="#3a0c32" d="M 80.5,70.5 C 82.14,71.7901 82.64,73.4567 82,75.5C 81.2825,74.5494 80.4491,74.3828 79.5,75C 81.2989,76.6998 81.6323,78.5331 80.5,80.5C 78.8333,79.1667 77.1667,77.8333 75.5,76.5C 74.3079,75.4341 74.6412,74.6008 76.5,74C 71.6713,69.3605 73.0046,68.1938 80.5,70.5 Z"/></g>
<g><path style="opacity:1" fill="#6c1a51" d="M 26.5,64.5 C 24.4453,66.5549 22.7787,68.8883 21.5,71.5C 20.0277,73.1175 19.361,75.1175 19.5,77.5C 19.5308,80.9263 20.5308,83.9263 22.5,86.5C 22.8333,87.1667 23.1667,87.8333 23.5,88.5C 22.448,88.3505 21.448,88.5172 20.5,89C 23.7058,89.9265 24.0392,91.0932 21.5,92.5C 19.2512,91.9202 17.5846,90.5869 16.5,88.5C 17.1331,88.1205 17.7997,87.7871 18.5,87.5C 17.0301,84.727 15.6968,81.8937 14.5,79C 14.6107,77.2785 15.1107,77.1118 16,78.5C 16.3333,75.1667 16.6667,71.8333 17,68.5C 18.3803,67.7445 18.547,67.0778 17.5,66.5C 19.5191,65.0666 21.6857,63.7332 24,62.5C 24.9947,63.0659 25.828,63.7326 26.5,64.5 Z"/></g>
<g><path style="opacity:1" fill="#eedb7e" d="M 41.5,68.5 C 42.1667,68.5 42.8333,68.5 43.5,68.5C 44.791,68.2627 45.791,68.596 46.5,69.5C 44.1667,70.1667 41.8333,70.8333 39.5,71.5C 39.5,72.1667 39.1667,72.5 38.5,72.5C 37.8333,72.8333 37.1667,73.1667 36.5,73.5C 36.5,72.8333 36.5,72.1667 36.5,71.5C 37.5,71.1667 38.1667,70.5 38.5,69.5C 39.609,69.4431 40.609,69.1098 41.5,68.5 Z"/></g>
<g><path style="opacity:1" fill="#a1393a" d="M 57.5,62.5 C 56.8443,64.484 56.1776,66.484 55.5,68.5C 55.4387,70.721 56.1054,71.0544 57.5,69.5C 57.1193,70.9311 56.1193,71.7645 54.5,72C 55.7375,72.2321 56.7375,72.7321 57.5,73.5C 55.7376,73.6427 54.0709,73.3094 52.5,72.5C 51.537,72.9698 51.537,73.6365 52.5,74.5C 51.407,76.3492 50.0737,78.0158 48.5,79.5C 49.299,76.5701 49.6323,73.5701 49.5,70.5C 51.6433,68.8693 53.31,66.8693 54.5,64.5C 54.4346,64.9382 54.6012,65.2716 55,65.5C 55.3768,64.0577 56.2101,63.0577 57.5,62.5 Z"/></g>
<g><path style="opacity:1" fill="#ea894b" d="M 46.5,69.5 C 47.1667,69.5 47.8333,69.5 48.5,69.5C 48.5,70.1667 48.8333,70.5 49.5,70.5C 49.6323,73.5701 49.299,76.5701 48.5,79.5C 45.6085,80.4025 42.6085,80.7359 39.5,80.5C 38.8333,79.1667 37.8333,78.1667 36.5,77.5C 36.5,76.1667 36.5,74.8333 36.5,73.5C 37.1667,73.1667 37.8333,72.8333 38.5,72.5C 38.6438,77.8128 41.3105,79.9794 46.5,79C 48.9938,76.5769 48.9938,74.2436 46.5,72C 44.1902,71.5034 41.8568,71.3367 39.5,71.5C 41.8333,70.8333 44.1667,70.1667 46.5,69.5 Z"/></g>
<g><path style="opacity:1" fill="#f19755" d="M 57.5,73.5 C 59.0418,74.3007 60.7085,74.634 62.5,74.5C 64.3792,75.3414 66.3792,75.6747 68.5,75.5C 69.4227,79.0641 69.756,82.7307 69.5,86.5C 67.631,84.3647 66.9644,81.6981 67.5,78.5C 62.4861,77.613 57.4861,76.2797 52.5,74.5C 51.537,73.6365 51.537,72.9698 52.5,72.5C 54.0709,73.3094 55.7376,73.6427 57.5,73.5 Z"/></g>
<g><path style="opacity:0.918" fill="#282025" d="M 82.5,67.5 C 82.8333,67.5 83.1667,67.5 83.5,67.5C 83.5,70.8333 83.5,74.1667 83.5,77.5C 82.8999,78.9002 81.8999,79.9002 80.5,80.5C 81.6323,78.5331 81.2989,76.6998 79.5,75C 80.4491,74.3828 81.2825,74.5494 82,75.5C 82.64,73.4567 82.14,71.7901 80.5,70.5C 81.5511,69.7777 82.2178,68.7777 82.5,67.5 Z"/></g>
<g><path style="opacity:0.549" fill="#362a30" d="M 5.5,60.5 C 5.83333,60.5 6.16667,60.5 6.5,60.5C 6.24372,62.9372 5.57706,65.2706 4.5,67.5C 4.62358,68.1067 4.95691,68.44 5.5,68.5C 6.16667,68.5 6.83333,68.5 7.5,68.5C 7.5,68.8333 7.5,69.1667 7.5,69.5C 7.35307,74.2142 7.6864,78.8809 8.5,83.5C 7.77842,83.0825 7.27842,82.4158 7,81.5C 6.66667,77.5 6.33333,73.5 6,69.5C 4.51347,70.7414 3.68013,70.2414 3.5,68C 4.0712,65.4564 4.73787,62.9564 5.5,60.5 Z"/></g>
<g><path style="opacity:1" fill="#83293b" d="M 52.5,74.5 C 57.4861,76.2797 62.4861,77.613 67.5,78.5C 66.5084,78.3284 65.8417,78.6618 65.5,79.5C 62.6,79.4078 60.9333,80.7411 60.5,83.5C 59.8333,82.8333 59.1667,82.1667 58.5,81.5C 60.1859,78.4633 59.1859,77.13 55.5,77.5C 54.8501,77.1961 54.1835,76.8627 53.5,76.5C 52.5108,79.1483 50.8442,81.1483 48.5,82.5C 47.8333,82.5 47.1667,82.5 46.5,82.5C 43.7718,82.8294 41.4385,82.1628 39.5,80.5C 42.6085,80.7359 45.6085,80.4025 48.5,79.5C 50.0737,78.0158 51.407,76.3492 52.5,74.5 Z"/></g>
<g><path style="opacity:0.051" fill="#2a1f18" d="M 36.5,77.5 C 37.8333,78.1667 38.8333,79.1667 39.5,80.5C 37.5,80.5 36.5,79.5 36.5,77.5 Z"/></g>
<g><path style="opacity:1" fill="#444341" d="M 39.5,71.5 C 41.8568,71.3367 44.1902,71.5034 46.5,72C 48.9938,74.2436 48.9938,76.5769 46.5,79C 41.3105,79.9794 38.6438,77.8128 38.5,72.5C 39.1667,72.5 39.5,72.1667 39.5,71.5 Z"/></g>
<g><path style="opacity:1" fill="#ce7f47" d="M 42.5,74.5 C 43.5,74.5 44.5,74.5 45.5,74.5C 45.5,75.5 45.5,76.5 45.5,77.5C 42.4331,77.8795 41.4331,76.8795 42.5,74.5 Z"/></g>
<g><path style="opacity:1" fill="#35192f" d="M 75.5,76.5 C 77.1667,77.8333 78.8333,79.1667 80.5,80.5C 79.1882,83.6608 76.8549,85.6608 73.5,86.5C 73.2319,82.917 73.8986,79.5836 75.5,76.5 Z"/></g>
<g><path style="opacity:1" fill="#ee8b60" d="M 55.5,77.5 C 59.1859,77.13 60.1859,78.4633 58.5,81.5C 58.9118,83.9726 57.9118,85.3059 55.5,85.5C 55.5,84.8333 55.1667,84.5 54.5,84.5C 54.6741,82.139 55.0074,79.8056 55.5,77.5 Z"/></g>
<g><path style="opacity:1" fill="#5c203d" d="M 67.5,78.5 C 66.9644,81.6981 67.631,84.3647 69.5,86.5C 69.5,86.8333 69.5,87.1667 69.5,87.5C 64.6804,87.1167 60.0137,86.45 55.5,85.5C 57.9118,85.3059 58.9118,83.9726 58.5,81.5C 59.1667,82.1667 59.8333,82.8333 60.5,83.5C 61.1834,85.1765 62.5168,85.8432 64.5,85.5C 64.8333,83.5 65.1667,81.5 65.5,79.5C 65.8417,78.6618 66.5084,78.3284 67.5,78.5 Z"/></g>
<g><path style="opacity:1" fill="#dc5098" d="M 16.5,88.5 C 17.5846,90.5869 19.2512,91.9202 21.5,92.5C 21.33,93.8221 21.6634,94.9887 22.5,96C 21.9056,96.4643 21.2389,96.631 20.5,96.5C 18.1215,94.1223 15.4549,92.1223 12.5,90.5C 12.7148,88.8212 12.0481,87.8212 10.5,87.5C 10.7709,85.6203 10.1042,84.287 8.5,83.5C 7.6864,78.8809 7.35307,74.2142 7.5,69.5C 8.58317,69.4606 9.58317,69.1272 10.5,68.5C 10.6419,73.2207 11.1419,77.8874 12,82.5C 13.2775,84.7472 14.7775,86.7472 16.5,88.5 Z"/></g>
<g><path style="opacity:1" fill="#ae5b4f" d="M 55.5,77.5 C 55.0074,79.8056 54.6741,82.139 54.5,84.5C 52.3736,83.9518 50.3736,83.2852 48.5,82.5C 50.8442,81.1483 52.5108,79.1483 53.5,76.5C 54.1835,76.8627 54.8501,77.1961 55.5,77.5 Z"/></g>
<g><path style="opacity:1" fill="#f69a65" d="M 65.5,79.5 C 65.1667,81.5 64.8333,83.5 64.5,85.5C 62.5168,85.8432 61.1834,85.1765 60.5,83.5C 60.9333,80.7411 62.6,79.4078 65.5,79.5 Z"/></g>
<g><path style="opacity:1" fill="#5f0f3e" d="M 21.5,71.5 C 21.7828,72.2891 22.2828,72.9558 23,73.5C 23.805,71.0989 24.6383,71.2656 25.5,74C 22.3455,74.9814 22.0122,76.3148 24.5,78C 23.8333,80 23.1667,82 22.5,84C 23.7375,84.2321 24.7375,84.7321 25.5,85.5C 24.209,85.2627 23.209,85.596 22.5,86.5C 20.5308,83.9263 19.5308,80.9263 19.5,77.5C 19.361,75.1175 20.0277,73.1175 21.5,71.5 Z"/></g>
<g><path style="opacity:1" fill="#c46358" d="M 71.5,87.5 C 70.8333,88.8333 70.1667,88.8333 69.5,87.5C 69.5,87.1667 69.5,86.8333 69.5,86.5C 69.756,82.7307 69.4227,79.0641 68.5,75.5C 68.7748,73.1582 69.6081,73.1582 71,75.5C 71.4988,79.4862 71.6655,83.4862 71.5,87.5 Z"/></g>
<g><path style="opacity:0.973" fill="#3a2625" d="M 46.5,82.5 C 47.1667,82.5 47.8333,82.5 48.5,82.5C 50.3736,83.2852 52.3736,83.9518 54.5,84.5C 55.1667,84.5 55.5,84.8333 55.5,85.5C 53.6693,84.9478 52.0026,84.9478 50.5,85.5C 48.739,84.9649 47.4057,83.9649 46.5,82.5 Z"/></g>
<g><path style="opacity:0.541" fill="#3a2b31" d="M 8.5,83.5 C 10.1042,84.287 10.7709,85.6203 10.5,87.5C 9.32627,86.4863 8.6596,85.153 8.5,83.5 Z"/></g>
<g><path style="opacity:0.255" fill="#34232a" d="M 10.5,87.5 C 12.0481,87.8212 12.7148,88.8212 12.5,90.5C 11.5987,89.7095 10.9321,88.7095 10.5,87.5 Z"/></g>
<g><path style="opacity:1" fill="#67245b" d="M 23.5,88.5 C 25.5,89.8333 27.5,91.1667 29.5,92.5C 27.8333,93.1667 26.1667,93.8333 24.5,94.5C 24.8333,95.8333 25.1667,97.1667 25.5,98.5C 25.5,98.8333 25.5,99.1667 25.5,99.5C 25.1667,99.5 24.8333,99.5 24.5,99.5C 23.1667,98.5 21.8333,97.5 20.5,96.5C 21.2389,96.631 21.9056,96.4643 22.5,96C 21.6634,94.9887 21.33,93.8221 21.5,92.5C 24.0392,91.0932 23.7058,89.9265 20.5,89C 21.448,88.5172 22.448,88.3505 23.5,88.5 Z"/></g>
<g><path style="opacity:1" fill="#5a1137" d="M 25.5,85.5 C 25.8333,85.5 26.1667,85.5 26.5,85.5C 28.3325,86.2485 29.9991,87.2485 31.5,88.5C 32.4286,90.3217 31.7619,91.6551 29.5,92.5C 27.5,91.1667 25.5,89.8333 23.5,88.5C 23.1667,87.8333 22.8333,87.1667 22.5,86.5C 23.209,85.596 24.209,85.2627 25.5,85.5 Z"/></g>
<g><path style="opacity:1" fill="#3e222e" d="M 12.5,90.5 C 15.4549,92.1223 18.1215,94.1223 20.5,96.5C 16.9796,95.6472 14.3129,93.6472 12.5,90.5 Z"/></g>
<g><path style="opacity:1" fill="#294454" d="M 31.5,88.5 C 33.5082,89.8363 35.5082,91.1696 37.5,92.5C 33.3919,94.0577 29.0586,94.7244 24.5,94.5C 26.1667,93.8333 27.8333,93.1667 29.5,92.5C 31.7619,91.6551 32.4286,90.3217 31.5,88.5 Z"/></g>
<g><path style="opacity:1" fill="#35616a" d="M 37.5,92.5 C 38.4916,92.3284 39.1583,92.6618 39.5,93.5C 42.1795,93.6726 44.5128,94.6726 46.5,96.5C 45.0531,97.9348 43.3864,98.9348 41.5,99.5C 36.8333,99.5 32.1667,99.5 27.5,99.5C 27.1583,98.6618 26.4916,98.3284 25.5,98.5C 25.1667,97.1667 24.8333,95.8333 24.5,94.5C 29.0586,94.7244 33.3919,94.0577 37.5,92.5 Z"/></g>
<g><path style="opacity:1" fill="#47bdae" d="M 39.5,93.5 C 40.4293,94.3149 41.4293,95.1482 42.5,96C 39.4459,96.8214 36.4459,96.6548 33.5,95.5C 35.1727,93.9137 37.1727,93.2471 39.5,93.5 Z"/></g>
</svg>
