<?xml version="1.0" encoding="UTF-8"?>
<!DOCTYPE svg PUBLIC "-//W3C//DTD SVG 1.1//EN" "http://www.w3.org/Graphics/SVG/1.1/DTD/svg11.dtd">
<svg xmlns="http://www.w3.org/2000/svg" version="1.1" width="100px" height="98px" style="shape-rendering:geometricPrecision; text-rendering:geometricPrecision; image-rendering:optimizeQuality; fill-rule:evenodd; clip-rule:evenodd" xmlns:xlink="http://www.w3.org/1999/xlink">
<g><path style="opacity:1" fill="#69a4aa" d="M 30.5,0.5 C 31.8333,0.5 32.5,1.16667 32.5,2.5C 29.7718,2.17057 27.4385,2.83724 25.5,4.5C 24.8333,4.5 24.1667,4.5 23.5,4.5C 25.2604,2.44132 27.5938,1.10798 30.5,0.5 Z"/></g>
<g><path style="opacity:1" fill="#647e93" d="M 40.5,3.5 C 39.8333,4.16667 39.1667,4.83333 38.5,5.5C 36.9519,5.17876 36.2852,4.17876 36.5,2.5C 37.937,0.156688 39.6037,-0.00997894 41.5,2C 40.944,2.38258 40.6107,2.88258 40.5,3.5 Z"/></g>
<g><path style="opacity:1" fill="#647e8c" d="M 30.5,0.5 C 30.5,0.166667 30.5,-0.166667 30.5,-0.5C 34.8333,-0.5 39.1667,-0.5 43.5,-0.5C 44.866,2.23199 46.1993,4.89866 47.5,7.5C 47.5,8.16667 47.5,8.83333 47.5,9.5C 47.631,10.2389 47.4643,10.9056 47,11.5C 46.0656,10.1416 45.2323,8.80826 44.5,7.5C 44.5123,4.85795 43.179,3.52462 40.5,3.5C 40.6107,2.88258 40.944,2.38258 41.5,2C 39.6037,-0.00997894 37.937,0.156688 36.5,2.5C 36.1667,2.5 35.8333,2.5 35.5,2.5C 34.5,2.5 33.5,2.5 32.5,2.5C 32.5,1.16667 31.8333,0.5 30.5,0.5 Z"/></g>
<g><path style="opacity:1" fill="#4d6462" d="M 26.5,-0.5 C 27.8333,-0.5 29.1667,-0.5 30.5,-0.5C 30.5,-0.166667 30.5,0.166667 30.5,0.5C 27.5938,1.10798 25.2604,2.44132 23.5,4.5C 22.609,3.89022 21.609,3.55688 20.5,3.5C 22.5,2.16667 24.5,0.833333 26.5,-0.5 Z"/></g>
<g><path style="opacity:1" fill="#7ca3a6" d="M 32.5,2.5 C 33.5,2.5 34.5,2.5 35.5,2.5C 35.106,4.70986 33.7727,6.04319 31.5,6.5C 31.631,5.76109 31.4643,5.09442 31,4.5C 30.1482,5.57075 29.3149,6.57075 28.5,7.5C 28.5,5.5 27.5,4.5 25.5,4.5C 27.4385,2.83724 29.7718,2.17057 32.5,2.5 Z"/></g>
<g><path style="opacity:1" fill="#494363" d="M 43.5,-0.5 C 45.1667,-0.5 46.8333,-0.5 48.5,-0.5C 49.8333,0.5 51.1667,1.5 52.5,2.5C 52.8039,3.14987 53.1373,3.81654 53.5,4.5C 53.1543,5.69559 52.6543,5.69559 52,4.5C 51.7679,5.73747 51.2679,6.73747 50.5,7.5C 50.5,6.5 50.5,5.5 50.5,4.5C 49.5,4.5 48.5,4.5 47.5,4.5C 47.5,5.5 47.5,6.5 47.5,7.5C 46.1993,4.89866 44.866,2.23199 43.5,-0.5 Z"/></g>
<g><path style="opacity:1" fill="#63969a" d="M 20.5,3.5 C 21.609,3.55688 22.609,3.89022 23.5,4.5C 24.1667,4.5 24.8333,4.5 25.5,4.5C 25.5,4.83333 25.5,5.16667 25.5,5.5C 24.7777,6.55114 23.7777,7.21781 22.5,7.5C 20.312,6.37734 17.9787,6.37734 15.5,7.5C 16.5846,5.41311 18.2512,4.07978 20.5,3.5 Z"/></g>
<g><path style="opacity:1" fill="#dee2af" d="M 25.5,4.5 C 27.5,4.5 28.5,5.5 28.5,7.5C 26.8212,7.71481 25.8212,7.04814 25.5,5.5C 25.5,5.16667 25.5,4.83333 25.5,4.5 Z"/></g>
<g><path style="opacity:1" fill="#c9a48e" d="M 50.5,7.5 C 49.5,7.5 48.5,7.5 47.5,7.5C 47.5,6.5 47.5,5.5 47.5,4.5C 48.5,4.5 49.5,4.5 50.5,4.5C 50.5,5.5 50.5,6.5 50.5,7.5 Z"/></g>
<g><path style="opacity:1" fill="#4b485b" d="M 35.5,2.5 C 35.8333,2.5 36.1667,2.5 36.5,2.5C 36.2852,4.17876 36.9519,5.17876 38.5,5.5C 38.1667,6.16667 37.8333,6.83333 37.5,7.5C 36.8501,7.19607 36.1835,6.86273 35.5,6.5C 34.1482,7.52435 32.8149,8.52435 31.5,9.5C 31.5,8.83333 31.1667,8.5 30.5,8.5C 30.3284,7.50838 30.6618,6.84171 31.5,6.5C 33.7727,6.04319 35.106,4.70986 35.5,2.5 Z"/></g>
<g><path style="opacity:1" fill="#5b5472" d="M 40.5,3.5 C 43.179,3.52462 44.5123,4.85795 44.5,7.5C 44.719,8.67504 44.3857,9.67504 43.5,10.5C 42.3777,9.36977 41.0443,8.70311 39.5,8.5C 39.1667,8.5 38.8333,8.5 38.5,8.5C 38.5,7.83333 38.1667,7.5 37.5,7.5C 37.8333,6.83333 38.1667,6.16667 38.5,5.5C 39.1667,4.83333 39.8333,4.16667 40.5,3.5 Z"/></g>
<g><path style="opacity:1" fill="#373446" d="M 52.5,2.5 C 56.4722,4.4722 59.4722,7.4722 61.5,11.5C 60.8333,11.1667 60.1667,10.8333 59.5,10.5C 59.5,9.83333 59.1667,9.5 58.5,9.5C 57.3126,7.02458 55.3126,6.02458 52.5,6.5C 52.5,7.5 52.5,8.5 52.5,9.5C 51.1667,9.5 50.5,8.83333 50.5,7.5C 51.2679,6.73747 51.7679,5.73747 52,4.5C 52.6543,5.69559 53.1543,5.69559 53.5,4.5C 53.1373,3.81654 52.8039,3.14987 52.5,2.5 Z"/></g>
<g><path style="opacity:1" fill="#82b4aa" d="M 22.5,7.5 C 22.5,8.83333 21.8333,9.5 20.5,9.5C 18.4086,9.31845 16.4086,9.65178 14.5,10.5C 13.537,10.0302 13.537,9.3635 14.5,8.5C 14.5,7.83333 14.8333,7.5 15.5,7.5C 17.9787,6.37734 20.312,6.37734 22.5,7.5 Z"/></g>
<g><path style="opacity:1" fill="#699fa3" d="M 31.5,6.5 C 30.6618,6.84171 30.3284,7.50838 30.5,8.5C 27.9078,10.0361 26.9078,12.3695 27.5,15.5C 25.305,13.5756 22.9717,11.9089 20.5,10.5C 20.5,10.1667 20.5,9.83333 20.5,9.5C 21.8333,9.5 22.5,8.83333 22.5,7.5C 23.7777,7.21781 24.7777,6.55114 25.5,5.5C 25.8212,7.04814 26.8212,7.71481 28.5,7.5C 29.3149,6.57075 30.1482,5.57075 31,4.5C 31.4643,5.09442 31.631,5.76109 31.5,6.5 Z"/></g>
<g><path style="opacity:1" fill="#554c6b" d="M 44.5,7.5 C 45.2323,8.80826 46.0656,10.1416 47,11.5C 47.4643,10.9056 47.631,10.2389 47.5,9.5C 48.7416,11.3888 48.7416,13.3888 47.5,15.5C 44.7928,13.1568 42.1261,10.8235 39.5,8.5C 41.0443,8.70311 42.3777,9.36977 43.5,10.5C 44.3857,9.67504 44.719,8.67504 44.5,7.5 Z"/></g>
<g><path style="opacity:1" fill="#574374" d="M 58.5,9.5 C 56.5,9.5 54.5,9.5 52.5,9.5C 52.5,8.5 52.5,7.5 52.5,6.5C 55.3126,6.02458 57.3126,7.02458 58.5,9.5 Z"/></g>
<g><path style="opacity:1" fill="#524859" d="M 30.5,8.5 C 31.1667,8.5 31.5,8.83333 31.5,9.5C 31.1667,10.1667 30.8333,10.8333 30.5,11.5C 28.2043,11.8041 27.871,12.8041 29.5,14.5C 28.4502,14.9046 28.4502,15.5712 29.5,16.5C 29.0431,17.2975 28.3764,17.6309 27.5,17.5C 27.5,16.8333 27.5,16.1667 27.5,15.5C 26.9078,12.3695 27.9078,10.0361 30.5,8.5 Z"/></g>
<g><path style="opacity:1" fill="#f6b240" d="M 37.5,7.5 C 38.1667,7.5 38.5,7.83333 38.5,8.5C 38.5,8.83333 38.5,9.16667 38.5,9.5C 37.8333,9.16667 37.1667,8.83333 36.5,8.5C 34.5887,9.07501 32.922,10.075 31.5,11.5C 31.1667,11.5 30.8333,11.5 30.5,11.5C 30.8333,10.8333 31.1667,10.1667 31.5,9.5C 32.8149,8.52435 34.1482,7.52435 35.5,6.5C 36.1835,6.86273 36.8501,7.19607 37.5,7.5 Z"/></g>
<g><path style="opacity:1" fill="#dd7d3b" d="M 38.5,8.5 C 38.8333,8.5 39.1667,8.5 39.5,8.5C 42.1261,10.8235 44.7928,13.1568 47.5,15.5C 47.5,15.8333 47.5,16.1667 47.5,16.5C 46.209,16.7373 45.209,16.404 44.5,15.5C 42.5,13.5 40.5,11.5 38.5,9.5C 38.5,9.16667 38.5,8.83333 38.5,8.5 Z"/></g>
<g><path style="opacity:1" fill="#402d5b" d="M 47.5,7.5 C 48.5,7.5 49.5,7.5 50.5,7.5C 50.5,8.83333 51.1667,9.5 52.5,9.5C 54.5,9.5 56.5,9.5 58.5,9.5C 59.1667,9.5 59.5,9.83333 59.5,10.5C 56.8775,10.4232 54.2108,10.7566 51.5,11.5C 49.7202,12.9899 49.0535,14.9899 49.5,17.5C 48.8333,17.1667 48.1667,16.8333 47.5,16.5C 47.5,16.1667 47.5,15.8333 47.5,15.5C 48.7416,13.3888 48.7416,11.3888 47.5,9.5C 47.5,8.83333 47.5,8.16667 47.5,7.5 Z"/></g>
<g><path style="opacity:1" fill="#e78f38" d="M 35.5,10.5 C 37.0269,10.427 38.0269,11.0937 38.5,12.5C 37.0695,12.4208 35.7362,12.7542 34.5,13.5C 33.3347,12.1405 33.668,11.1405 35.5,10.5 Z"/></g>
<g><path style="opacity:0.914" fill="#332e2b" d="M 79.5,12.5 C 79.5,12.8333 79.5,13.1667 79.5,13.5C 78.8333,13.5 78.1667,13.5 77.5,13.5C 76.5084,13.3284 75.8417,13.6618 75.5,14.5C 74.5,14.5 73.5,14.5 72.5,14.5C 71.0413,14.5674 69.7079,14.2341 68.5,13.5C 67.5,13.5 66.5,13.5 65.5,13.5C 65.1583,12.6618 64.4916,12.3284 63.5,12.5C 62.5084,12.6716 61.8417,12.3382 61.5,11.5C 64.9934,10.6471 68.3267,11.3138 71.5,13.5C 74.0841,12.6072 76.7508,12.2739 79.5,12.5 Z"/></g>
<g><path style="opacity:1" fill="#4b3720" d="M 89.5,14.5 C 89.1667,14.5 88.8333,14.5 88.5,14.5C 87.6879,13.0069 86.3545,12.3402 84.5,12.5C 82.7927,12.7284 81.126,13.0617 79.5,13.5C 79.5,13.1667 79.5,12.8333 79.5,12.5C 82.5196,10.8102 85.5196,10.6435 88.5,12C 89.2524,12.6708 89.5858,13.5041 89.5,14.5 Z"/></g>
<g><path style="opacity:1" fill="#4f8288" d="M 14.5,8.5 C 13.537,9.3635 13.537,10.0302 14.5,10.5C 16.4086,9.65178 18.4086,9.31845 20.5,9.5C 20.5,9.83333 20.5,10.1667 20.5,10.5C 18.4524,10.1596 17.4524,10.4929 17.5,11.5C 16.8333,12.1667 16.1667,12.8333 15.5,13.5C 14.1667,13.5 13.5,14.1667 13.5,15.5C 13.5,15.8333 13.5,16.1667 13.5,16.5C 12.0209,15.241 10.3542,14.241 8.5,13.5C 9.91083,11.086 11.9108,9.41938 14.5,8.5 Z"/></g>
<g><path style="opacity:1" fill="#c36f37" d="M 30.5,11.5 C 30.8333,11.5 31.1667,11.5 31.5,11.5C 32.0312,13.5441 33.1978,15.2107 35,16.5C 35.704,14.273 36.8706,13.9397 38.5,15.5C 40.3888,16.7416 42.3888,16.7416 44.5,15.5C 45.209,16.404 46.209,16.7373 47.5,16.5C 48.1667,16.8333 48.8333,17.1667 49.5,17.5C 50.4916,17.3284 51.1583,17.6618 51.5,18.5C 51.8333,19.8333 52.1667,21.1667 52.5,22.5C 52.1667,22.5 51.8333,22.5 51.5,22.5C 51.1667,21.5 50.5,20.8333 49.5,20.5C 48.4324,19.5655 47.099,19.2322 45.5,19.5C 42.3157,17.5864 38.649,16.9197 34.5,17.5C 32.6675,16.7515 31.0009,15.7515 29.5,14.5C 27.871,12.8041 28.2043,11.8041 30.5,11.5 Z"/></g>
<g><path style="opacity:1" fill="#9b7075" d="M 51.5,11.5 C 54.2108,10.7566 56.8775,10.4232 59.5,10.5C 60.1667,10.8333 60.8333,11.1667 61.5,11.5C 61.8417,12.3382 62.5084,12.6716 63.5,12.5C 63.1667,13.1667 62.8333,13.8333 62.5,14.5C 61.8333,14.5 61.5,14.8333 61.5,15.5C 59.1799,13.7739 56.5133,13.1072 53.5,13.5C 53.9175,12.7784 54.5842,12.2784 55.5,12C 54.2068,11.51 52.8734,11.3433 51.5,11.5 Z"/></g>
<g><path style="opacity:1" fill="#504e70" d="M 20.5,10.5 C 22.9717,11.9089 25.305,13.5756 27.5,15.5C 27.5,16.1667 27.5,16.8333 27.5,17.5C 26.8333,17.5 26.5,17.8333 26.5,18.5C 25.3853,15.8612 23.3853,14.1946 20.5,13.5C 19.7095,12.5987 18.7095,11.9321 17.5,11.5C 17.4524,10.4929 18.4524,10.1596 20.5,10.5 Z"/></g>
<g><path style="opacity:1" fill="#532a3c" d="M 36.5,8.5 C 36.1667,9.16667 35.8333,9.83333 35.5,10.5C 33.668,11.1405 33.3347,12.1405 34.5,13.5C 35.7362,12.7542 37.0695,12.4208 38.5,12.5C 38.9528,13.4584 39.6195,14.2917 40.5,15C 39.9056,15.4643 39.2389,15.631 38.5,15.5C 36.8706,13.9397 35.704,14.273 35,16.5C 33.1978,15.2107 32.0312,13.5441 31.5,11.5C 32.922,10.075 34.5887,9.07501 36.5,8.5 Z"/></g>
<g><path style="opacity:1" fill="#6f3738" d="M 36.5,8.5 C 37.1667,8.83333 37.8333,9.16667 38.5,9.5C 40.5,11.5 42.5,13.5 44.5,15.5C 42.3888,16.7416 40.3888,16.7416 38.5,15.5C 39.2389,15.631 39.9056,15.4643 40.5,15C 39.6195,14.2917 38.9528,13.4584 38.5,12.5C 38.0269,11.0937 37.0269,10.427 35.5,10.5C 35.8333,9.83333 36.1667,9.16667 36.5,8.5 Z"/></g>
<g><path style="opacity:1" fill="#ee7828" d="M 88.5,14.5 C 85.1194,14.4595 81.7861,14.7929 78.5,15.5C 77.6618,15.1583 77.3284,14.4916 77.5,13.5C 78.1667,13.5 78.8333,13.5 79.5,13.5C 81.126,13.0617 82.7927,12.7284 84.5,12.5C 86.3545,12.3402 87.6879,13.0069 88.5,14.5 Z"/></g>
<g><path style="opacity:1" fill="#ede7bd" d="M 15.5,13.5 C 16.1098,14.391 16.4431,15.391 16.5,16.5C 15.391,16.4431 14.391,16.1098 13.5,15.5C 13.5,14.1667 14.1667,13.5 15.5,13.5 Z"/></g>
<g><path style="opacity:1" fill="#4e5670" d="M 20.5,13.5 C 23.3853,14.1946 25.3853,15.8612 26.5,18.5C 26.1583,19.3382 25.4916,19.6716 24.5,19.5C 22.4689,20.5387 21.1355,22.2054 20.5,24.5C 19.1667,25.8333 17.8333,27.1667 16.5,28.5C 16.1667,28.5 15.8333,28.5 15.5,28.5C 14.1667,27.5 12.8333,26.5 11.5,25.5C 12.968,24.2209 13.6347,22.5542 13.5,20.5C 19.0385,24.6206 21.3719,23.2873 20.5,16.5C 19.375,15.6522 19.375,14.6522 20.5,13.5 Z"/></g>
<g><path style="opacity:1" fill="#f4d5b2" d="M 51.5,11.5 C 52.8734,11.3433 54.2068,11.51 55.5,12C 54.5842,12.2784 53.9175,12.7784 53.5,13.5C 53.5,13.8333 53.5,14.1667 53.5,14.5C 52.5655,15.5676 52.2322,16.901 52.5,18.5C 52.1667,18.5 51.8333,18.5 51.5,18.5C 51.1583,17.6618 50.4916,17.3284 49.5,17.5C 49.0535,14.9899 49.7202,12.9899 51.5,11.5 Z"/></g>
<g><path style="opacity:1" fill="#564177" d="M 53.5,14.5 C 53.5,14.1667 53.5,13.8333 53.5,13.5C 56.5133,13.1072 59.1799,13.7739 61.5,15.5C 61.7373,16.791 61.404,17.791 60.5,18.5C 59.8571,16.9236 58.8571,15.5903 57.5,14.5C 56.1667,14.5 54.8333,14.5 53.5,14.5 Z"/></g>
<g><path style="opacity:1" fill="#706c85" d="M 68.5,13.5 C 69.7079,14.2341 71.0413,14.5674 72.5,14.5C 72.5,15.8333 72.5,17.1667 72.5,18.5C 70.901,18.7678 69.5676,18.4345 68.5,17.5C 68.5,16.1667 68.5,14.8333 68.5,13.5 Z"/></g>
<g><path style="opacity:1" fill="#b63f29" d="M 88.5,14.5 C 88.5,15.5 88.5,16.5 88.5,17.5C 85.1667,17.5 81.8333,17.5 78.5,17.5C 78.5,16.8333 78.5,16.1667 78.5,15.5C 81.7861,14.7929 85.1194,14.4595 88.5,14.5 Z"/></g>
<g><path style="opacity:1" fill="#547c88" d="M 17.5,11.5 C 18.7095,11.9321 19.7095,12.5987 20.5,13.5C 19.375,14.6522 19.375,15.6522 20.5,16.5C 20.631,17.2389 20.4643,17.9056 20,18.5C 19.1841,17.1772 18.0174,16.5106 16.5,16.5C 16.4431,15.391 16.1098,14.391 15.5,13.5C 16.1667,12.8333 16.8333,12.1667 17.5,11.5 Z"/></g>
<g><path style="opacity:1" fill="#ab7e6b" d="M 63.5,12.5 C 64.4916,12.3284 65.1583,12.6618 65.5,13.5C 65.2786,14.7348 64.6119,15.7348 63.5,16.5C 66.2291,18.3671 65.8957,19.3671 62.5,19.5C 62.5,17.8333 62.5,16.1667 62.5,14.5C 62.8333,13.8333 63.1667,13.1667 63.5,12.5 Z"/></g>
<g><path style="opacity:1" fill="#473559" d="M 29.5,14.5 C 31.0009,15.7515 32.6675,16.7515 34.5,17.5C 33.5,18.1667 32.5,18.8333 31.5,19.5C 30.1667,20.5 28.8333,21.5 27.5,22.5C 26.1667,21.8333 25.1667,20.8333 24.5,19.5C 25.4916,19.6716 26.1583,19.3382 26.5,18.5C 26.5,17.8333 26.8333,17.5 27.5,17.5C 28.3764,17.6309 29.0431,17.2975 29.5,16.5C 28.4502,15.5712 28.4502,14.9046 29.5,14.5 Z"/></g>
<g><path style="opacity:1" fill="#5c3c4e" d="M 34.5,17.5 C 38.649,16.9197 42.3157,17.5864 45.5,19.5C 44.1667,19.5 42.8333,19.5 41.5,19.5C 38.1667,19.5 34.8333,19.5 31.5,19.5C 32.5,18.8333 33.5,18.1667 34.5,17.5 Z"/></g>
<g><path style="opacity:1" fill="#654d73" d="M 57.5,14.5 C 58.8571,15.5903 59.8571,16.9236 60.5,18.5C 59.3646,20.2132 57.698,20.8799 55.5,20.5C 55.5,20.1667 55.5,19.8333 55.5,19.5C 56.5375,18.0697 57.2041,16.403 57.5,14.5 Z"/></g>
<g><path style="opacity:1" fill="#684256" d="M 65.5,13.5 C 66.5,13.5 67.5,13.5 68.5,13.5C 68.5,14.8333 68.5,16.1667 68.5,17.5C 67.596,18.209 67.2627,19.209 67.5,20.5C 66.5084,20.3284 65.8417,20.6618 65.5,21.5C 65.1667,21.5 64.8333,21.5 64.5,21.5C 63.8333,20.8333 63.1667,20.1667 62.5,19.5C 65.8957,19.3671 66.2291,18.3671 63.5,16.5C 64.6119,15.7348 65.2786,14.7348 65.5,13.5 Z"/></g>
<g><path style="opacity:1" fill="#d8642f" d="M 72.5,14.5 C 73.5,14.5 74.5,14.5 75.5,14.5C 76.6857,15.9613 76.6857,17.2946 75.5,18.5C 74.5,18.5 73.5,18.5 72.5,18.5C 72.5,17.1667 72.5,15.8333 72.5,14.5 Z"/></g>
<g><path style="opacity:1" fill="#7b2d2d" d="M 88.5,14.5 C 88.8333,14.5 89.1667,14.5 89.5,14.5C 89.7947,16.7354 89.4614,18.7354 88.5,20.5C 85.6627,18.5977 82.3293,17.931 78.5,18.5C 78.5,18.1667 78.5,17.8333 78.5,17.5C 81.8333,17.5 85.1667,17.5 88.5,17.5C 88.5,16.5 88.5,15.5 88.5,14.5 Z"/></g>
<g><path style="opacity:1" fill="#537775" d="M 8.5,13.5 C 7.962,15.1172 7.62867,16.7839 7.5,18.5C 6.16667,19.1667 4.83333,19.8333 3.5,20.5C 4.43334,17.6298 6.10001,15.2964 8.5,13.5 Z"/></g>
<g><path style="opacity:1" fill="#8ab6ac" d="M 8.5,13.5 C 10.3542,14.241 12.0209,15.241 13.5,16.5C 13.5,17.8333 13.5,19.1667 13.5,20.5C 12.5,20.5 11.5,20.5 10.5,20.5C 10.8432,22.4832 10.1765,23.8166 8.5,24.5C 7.65859,22.6208 7.32526,20.6208 7.5,18.5C 7.62867,16.7839 7.962,15.1172 8.5,13.5 Z"/></g>
<g><path style="opacity:1" fill="#556f82" d="M 13.5,15.5 C 14.391,16.1098 15.391,16.4431 16.5,16.5C 18.0174,16.5106 19.1841,17.1772 20,18.5C 20.4643,17.9056 20.631,17.2389 20.5,16.5C 21.3719,23.2873 19.0385,24.6206 13.5,20.5C 13.5,19.1667 13.5,17.8333 13.5,16.5C 13.5,16.1667 13.5,15.8333 13.5,15.5 Z"/></g>
<g><path style="opacity:1" fill="#786381" d="M 53.5,14.5 C 54.8333,14.5 56.1667,14.5 57.5,14.5C 57.2041,16.403 56.5375,18.0697 55.5,19.5C 54.209,19.7373 53.209,19.404 52.5,18.5C 52.2322,16.901 52.5655,15.5676 53.5,14.5 Z"/></g>
<g><path style="opacity:1" fill="#372431" d="M 77.5,13.5 C 77.3284,14.4916 77.6618,15.1583 78.5,15.5C 78.5,16.1667 78.5,16.8333 78.5,17.5C 78.5,17.8333 78.5,18.1667 78.5,18.5C 80.1667,19.1667 81.8333,19.8333 83.5,20.5C 82.8333,20.5 82.1667,20.5 81.5,20.5C 79.5853,20.2155 77.9187,20.5489 76.5,21.5C 76.1667,21.5 75.8333,21.5 75.5,21.5C 75.5,21.1667 75.5,20.8333 75.5,20.5C 75.5,19.8333 75.5,19.1667 75.5,18.5C 76.6857,17.2946 76.6857,15.9613 75.5,14.5C 75.8417,13.6618 76.5084,13.3284 77.5,13.5 Z"/></g>
<g><path style="opacity:1" fill="#812c3f" d="M 78.5,18.5 C 82.3293,17.931 85.6627,18.5977 88.5,20.5C 86.8333,20.5 85.1667,20.5 83.5,20.5C 81.8333,19.8333 80.1667,19.1667 78.5,18.5 Z"/></g>
<g><path style="opacity:1" fill="#5d1e34" d="M 68.5,17.5 C 69.5676,18.4345 70.901,18.7678 72.5,18.5C 73.5,18.5 74.5,18.5 75.5,18.5C 75.5,19.1667 75.5,19.8333 75.5,20.5C 72.8333,20.5 70.1667,20.5 67.5,20.5C 67.2627,19.209 67.596,18.209 68.5,17.5 Z"/></g>
<g><path style="opacity:1" fill="#53898b" d="M 7.5,18.5 C 7.32526,20.6208 7.65859,22.6208 8.5,24.5C 8.16667,24.5 7.83333,24.5 7.5,24.5C 5.88682,24.0557 4.72015,23.0557 4,21.5C 3.72158,22.4158 3.22158,23.0825 2.5,23.5C 2.26269,22.209 2.59603,21.209 3.5,20.5C 4.83333,19.8333 6.16667,19.1667 7.5,18.5 Z"/></g>
<g><path style="opacity:1" fill="#de8c2c" d="M 24.5,19.5 C 25.1667,20.8333 26.1667,21.8333 27.5,22.5C 27.5,23.1667 27.1667,23.5 26.5,23.5C 24.4816,22.0674 22.8149,22.4008 21.5,24.5C 21.1667,24.5 20.8333,24.5 20.5,24.5C 21.1355,22.2054 22.4689,20.5387 24.5,19.5 Z"/></g>
<g><path style="opacity:1" fill="#a04e57" d="M 62.5,14.5 C 62.5,16.1667 62.5,17.8333 62.5,19.5C 63.1667,20.1667 63.8333,20.8333 64.5,21.5C 62.5853,21.2155 60.9187,21.5489 59.5,22.5C 58.1667,22.5 56.8333,22.5 55.5,22.5C 54.4937,21.6043 54.4937,20.9377 55.5,20.5C 57.698,20.8799 59.3646,20.2132 60.5,18.5C 61.404,17.791 61.7373,16.791 61.5,15.5C 61.5,14.8333 61.8333,14.5 62.5,14.5 Z"/></g>
<g><path style="opacity:1" fill="#90726f" d="M 65.5,21.5 C 65.8417,20.6618 66.5084,20.3284 67.5,20.5C 70.1667,20.5 72.8333,20.5 75.5,20.5C 75.5,20.8333 75.5,21.1667 75.5,21.5C 72.7531,21.1866 70.0865,21.52 67.5,22.5C 67.0234,23.931 66.3567,25.2643 65.5,26.5C 64.7025,26.0431 64.3691,25.3764 64.5,24.5C 65.2674,23.828 65.9341,22.9947 66.5,22C 66.2716,21.6012 65.9382,21.4346 65.5,21.5 Z"/></g>
<g><path style="opacity:0.655" fill="#191313" d="M 89.5,14.5 C 90.4682,16.6074 90.8016,18.9407 90.5,21.5C 87.2869,21.81 84.2869,21.4767 81.5,20.5C 82.1667,20.5 82.8333,20.5 83.5,20.5C 85.1667,20.5 86.8333,20.5 88.5,20.5C 89.4614,18.7354 89.7947,16.7354 89.5,14.5 Z"/></g>
<g><path style="opacity:1" fill="#3d6e89" d="M 49.5,20.5 C 50.5,20.8333 51.1667,21.5 51.5,22.5C 48.6146,22.1936 45.9479,22.5269 43.5,23.5C 42.596,22.791 42.2627,21.791 42.5,20.5C 44.8333,20.5 47.1667,20.5 49.5,20.5 Z"/></g>
<g><path style="opacity:1" fill="#843e50" d="M 51.5,18.5 C 51.8333,18.5 52.1667,18.5 52.5,18.5C 53.209,19.404 54.209,19.7373 55.5,19.5C 55.5,19.8333 55.5,20.1667 55.5,20.5C 54.4937,20.9377 54.4937,21.6043 55.5,22.5C 54.596,23.209 54.2627,24.209 54.5,25.5C 52.9519,25.1788 52.2852,24.1788 52.5,22.5C 52.1667,21.1667 51.8333,19.8333 51.5,18.5 Z"/></g>
<g><path style="opacity:1" fill="#626c79" d="M 31.5,21.5 C 34.2869,20.5233 37.2869,20.19 40.5,20.5C 40.5,20.8333 40.5,21.1667 40.5,21.5C 40.5,22.1667 40.1667,22.5 39.5,22.5C 37.5654,21.291 35.5654,21.4577 33.5,23C 34.5323,24.6268 35.8656,25.7934 37.5,26.5C 37.1667,27.5 36.5,28.1667 35.5,28.5C 35.0133,27.5266 34.5133,26.5266 34,25.5C 33.6012,25.7284 33.4346,26.0618 33.5,26.5C 32.8333,25.5 32.1667,24.5 31.5,23.5C 32.5063,22.6043 32.5063,21.9377 31.5,21.5 Z"/></g>
<g><path style="opacity:1" fill="#8ab4a6" d="M 39.5,22.5 C 38.1938,23.4674 37.5271,24.8007 37.5,26.5C 35.8656,25.7934 34.5323,24.6268 33.5,23C 35.5654,21.4577 37.5654,21.291 39.5,22.5 Z"/></g>
<g><path style="opacity:1" fill="#555760" d="M 41.5,19.5 C 42.8333,19.5 44.1667,19.5 45.5,19.5C 47.099,19.2322 48.4324,19.5655 49.5,20.5C 47.1667,20.5 44.8333,20.5 42.5,20.5C 42.2627,21.791 42.596,22.791 43.5,23.5C 45.604,23.2011 47.604,23.5344 49.5,24.5C 49.3764,25.1067 49.0431,25.44 48.5,25.5C 47.2946,24.3143 45.9613,24.3143 44.5,25.5C 43.791,24.596 42.791,24.2627 41.5,24.5C 41.7373,23.209 41.404,22.209 40.5,21.5C 40.5,21.1667 40.5,20.8333 40.5,20.5C 41.1667,20.5 41.5,20.1667 41.5,19.5 Z"/></g>
<g><path style="opacity:1" fill="#e7d3ad" d="M 75.5,21.5 C 74.8333,22.1667 74.1667,22.8333 73.5,23.5C 72.1667,24.1667 71.1667,25.1667 70.5,26.5C 70.0698,25.045 70.0698,23.7117 70.5,22.5C 68.0598,24.1093 66.8931,26.4426 67,29.5C 66.3292,28.7476 65.4959,28.4142 64.5,28.5C 64.1583,27.6618 63.4916,27.3284 62.5,27.5C 62.9321,26.2905 63.5987,25.2905 64.5,24.5C 64.3691,25.3764 64.7025,26.0431 65.5,26.5C 66.3567,25.2643 67.0234,23.931 67.5,22.5C 70.0865,21.52 72.7531,21.1866 75.5,21.5 Z"/></g>
<g><path style="opacity:1" fill="#573652" d="M 73.5,23.5 C 74.5,23.5 75.5,23.5 76.5,23.5C 76.0113,24.9952 75.3446,26.3285 74.5,27.5C 74.6309,26.6236 74.2975,25.9569 73.5,25.5C 72.4822,26.1925 71.4822,26.8592 70.5,27.5C 70.5,27.1667 70.5,26.8333 70.5,26.5C 71.1667,25.1667 72.1667,24.1667 73.5,23.5 Z"/></g>
<g><path style="opacity:1" fill="#4b858b" d="M 13.5,20.5 C 13.6347,22.5542 12.968,24.2209 11.5,25.5C 10.5084,25.3284 9.84171,25.6618 9.5,26.5C 8.83333,26.1667 8.16667,25.8333 7.5,25.5C 7.5,25.1667 7.5,24.8333 7.5,24.5C 7.83333,24.5 8.16667,24.5 8.5,24.5C 10.1765,23.8166 10.8432,22.4832 10.5,20.5C 11.5,20.5 12.5,20.5 13.5,20.5 Z"/></g>
<g><path style="opacity:1" fill="#b08354" d="M 31.5,19.5 C 34.8333,19.5 38.1667,19.5 41.5,19.5C 41.5,20.1667 41.1667,20.5 40.5,20.5C 37.2869,20.19 34.2869,20.5233 31.5,21.5C 29.8333,22.5 28.5,23.8333 27.5,25.5C 27.1667,26.5 26.5,27.1667 25.5,27.5C 25.5,27.1667 25.5,26.8333 25.5,26.5C 26.1098,25.609 26.4431,24.609 26.5,23.5C 27.1667,23.5 27.5,23.1667 27.5,22.5C 28.8333,21.5 30.1667,20.5 31.5,19.5 Z"/></g>
<g><path style="opacity:1" fill="#e4d5ac" d="M 55.5,22.5 C 56.8333,22.5 58.1667,22.5 59.5,22.5C 64.4211,22.6464 64.4211,23.6464 59.5,25.5C 58.1667,25.5 56.8333,25.5 55.5,25.5C 55.1667,25.5 54.8333,25.5 54.5,25.5C 54.2627,24.209 54.596,23.209 55.5,22.5 Z"/></g>
<g><path style="opacity:0.004" fill="#181616" d="M 76.5,21.5 C 80.1055,21.7986 83.4388,22.9653 86.5,25C 87.8228,25.8159 88.4894,26.9826 88.5,28.5C 85.9566,26.0605 82.9566,24.3938 79.5,23.5C 78.5,22.8333 77.5,22.1667 76.5,21.5 Z"/></g>
<g><path style="opacity:1" fill="#4d4470" d="M 26.5,23.5 C 26.4431,24.609 26.1098,25.609 25.5,26.5C 24.609,27.1098 23.609,27.4431 22.5,27.5C 22.0825,26.7784 21.4158,26.2784 20.5,26C 21.056,25.6174 21.3893,25.1174 21.5,24.5C 22.8149,22.4008 24.4816,22.0674 26.5,23.5 Z"/></g>
<g><path style="opacity:1" fill="#d8b697" d="M 59.5,22.5 C 60.9187,21.5489 62.5853,21.2155 64.5,21.5C 64.8333,21.5 65.1667,21.5 65.5,21.5C 65.9382,21.4346 66.2716,21.6012 66.5,22C 65.9341,22.9947 65.2674,23.828 64.5,24.5C 63.5987,25.2905 62.9321,26.2905 62.5,27.5C 61.2905,27.0679 60.2905,26.4013 59.5,25.5C 64.4211,23.6464 64.4211,22.6464 59.5,22.5 Z"/></g>
<g><path style="opacity:1" fill="#e2e6ce" d="M 7.5,25.5 C 8.16667,25.8333 8.83333,26.1667 9.5,26.5C 9.67158,27.4916 9.33825,28.1583 8.5,28.5C 6.44818,27.9473 6.11484,26.9473 7.5,25.5 Z"/></g>
<g><path style="opacity:1" fill="#5a7685" d="M 11.5,25.5 C 12.8333,26.5 14.1667,27.5 15.5,28.5C 14.8902,29.391 14.5569,30.391 14.5,31.5C 11.7212,31.2786 9.05449,31.612 6.5,32.5C 6.5,31.5 6.5,30.5 6.5,29.5C 7.49162,29.6716 8.15829,29.3382 8.5,28.5C 9.33825,28.1583 9.67158,27.4916 9.5,26.5C 9.84171,25.6618 10.5084,25.3284 11.5,25.5 Z"/></g>
<g><path style="opacity:1" fill="#28385a" d="M 43.5,23.5 C 45.9479,22.5269 48.6146,22.1936 51.5,22.5C 51.1667,23.8333 50.8333,25.1667 50.5,26.5C 49.5386,28.2646 49.2053,30.2646 49.5,32.5C 48.5318,30.3926 48.1984,28.0593 48.5,25.5C 49.0431,25.44 49.3764,25.1067 49.5,24.5C 47.604,23.5344 45.604,23.2011 43.5,23.5 Z"/></g>
<g><path style="opacity:1" fill="#8e7571" d="M 75.5,21.5 C 75.8333,21.5 76.1667,21.5 76.5,21.5C 77.5,22.1667 78.5,22.8333 79.5,23.5C 79.9038,24.7564 80.5705,25.9231 81.5,27C 80.9444,28.0111 80.2778,28.8444 79.5,29.5C 76.9387,31.6397 74.6054,33.973 72.5,36.5C 72.5,35.8333 72.5,35.1667 72.5,34.5C 74.448,32.2113 76.448,29.878 78.5,27.5C 78.0057,25.9745 77.339,24.6412 76.5,23.5C 75.5,23.5 74.5,23.5 73.5,23.5C 74.1667,22.8333 74.8333,22.1667 75.5,21.5 Z"/></g>
<g><path style="opacity:1" fill="#82abae" d="M 31.5,21.5 C 32.5063,21.9377 32.5063,22.6043 31.5,23.5C 31.3893,24.1174 31.056,24.6174 30.5,25C 32.8858,27.4894 32.8858,29.6561 30.5,31.5C 28.9397,29.8439 27.9397,27.8439 27.5,25.5C 28.5,23.8333 29.8333,22.5 31.5,21.5 Z"/></g>
<g><path style="opacity:1" fill="#6f828f" d="M 35.5,28.5 C 34.962,30.1172 34.6287,31.7839 34.5,33.5C 33.8333,33.8333 33.1667,34.1667 32.5,34.5C 32.5,33.8333 32.1667,33.5 31.5,33.5C 33.1484,31.5441 33.8151,29.2108 33.5,26.5C 33.4346,26.0618 33.6012,25.7284 34,25.5C 34.5133,26.5266 35.0133,27.5266 35.5,28.5 Z"/></g>
<g><path style="opacity:1" fill="#463151" d="M 40.5,21.5 C 41.404,22.209 41.7373,23.209 41.5,24.5C 40.8333,25.5 40.1667,26.5 39.5,27.5C 37.1782,28.8021 35.8449,30.8021 35.5,33.5C 35.1667,33.5 34.8333,33.5 34.5,33.5C 34.6287,31.7839 34.962,30.1172 35.5,28.5C 36.5,28.1667 37.1667,27.5 37.5,26.5C 37.5271,24.8007 38.1938,23.4674 39.5,22.5C 40.1667,22.5 40.5,22.1667 40.5,21.5 Z"/></g>
<g><path style="opacity:1" fill="#5f9497" d="M 7.5,24.5 C 7.5,24.8333 7.5,25.1667 7.5,25.5C 6.11484,26.9473 6.44818,27.9473 8.5,28.5C 8.15829,29.3382 7.49162,29.6716 6.5,29.5C 2.5,30.5 2.5,31.5 6.5,32.5C 1.16406,34.5045 -0.835936,32.5045 0.5,26.5C 0.427017,24.9731 1.09368,23.9731 2.5,23.5C 3.22158,23.0825 3.72158,22.4158 4,21.5C 4.72015,23.0557 5.88682,24.0557 7.5,24.5 Z"/></g>
<g><path style="opacity:1" fill="#4a4258" d="M 31.5,23.5 C 32.1667,24.5 32.8333,25.5 33.5,26.5C 33.8151,29.2108 33.1484,31.5441 31.5,33.5C 29.3023,33.5912 28.9689,32.9245 30.5,31.5C 32.8858,29.6561 32.8858,27.4894 30.5,25C 31.056,24.6174 31.3893,24.1174 31.5,23.5 Z"/></g>
<g><path style="opacity:1" fill="#f2bb7b" d="M 41.5,24.5 C 42.791,24.2627 43.791,24.596 44.5,25.5C 43.5,26.8333 42.5,28.1667 41.5,29.5C 40.609,30.1098 39.609,30.4431 38.5,30.5C 39.1098,29.609 39.4431,28.609 39.5,27.5C 40.1667,26.5 40.8333,25.5 41.5,24.5 Z"/></g>
<g><path style="opacity:1" fill="#4e3867" d="M 22.5,28.5 C 22.2041,30.403 21.5375,32.0697 20.5,33.5C 16.8124,31.9532 16.6457,29.9532 20,27.5C 20.6708,28.2524 21.5041,28.5858 22.5,28.5 Z"/></g>
<g><path style="opacity:1" fill="#4d4547" d="M 44.5,25.5 C 44.3424,28.9023 44.6758,32.2356 45.5,35.5C 45.6596,37.153 46.3263,38.4863 47.5,39.5C 47.5,40.5 47.5,41.5 47.5,42.5C 47.1667,42.5 46.8333,42.5 46.5,42.5C 43.3808,38.7179 41.7142,34.3846 41.5,29.5C 42.5,28.1667 43.5,26.8333 44.5,25.5 Z"/></g>
<g><path style="opacity:1" fill="#a6e5e0" d="M 48.5,25.5 C 47.5655,26.5676 47.2322,27.901 47.5,29.5C 46.8333,31.5 46.1667,33.5 45.5,35.5C 44.6758,32.2356 44.3424,28.9023 44.5,25.5C 45.9613,24.3143 47.2946,24.3143 48.5,25.5 Z"/></g>
<g><path style="opacity:1" fill="#67123b" d="M 50.5,26.5 C 50.2938,29.4951 50.9605,32.1617 52.5,34.5C 52.5,35.1667 52.5,35.8333 52.5,36.5C 53.1098,37.391 53.4431,38.391 53.5,39.5C 53.1667,39.5 52.8333,39.5 52.5,39.5C 51.2271,37.2872 50.2271,34.9538 49.5,32.5C 49.2053,30.2646 49.5386,28.2646 50.5,26.5 Z"/></g>
<g><path style="opacity:1" fill="#6b173b" d="M 51.5,22.5 C 51.8333,22.5 52.1667,22.5 52.5,22.5C 52.2852,24.1788 52.9519,25.1788 54.5,25.5C 54.4431,26.609 54.1098,27.609 53.5,28.5C 53.5,29.5 53.5,30.5 53.5,31.5C 52.8333,31.5 52.5,31.8333 52.5,32.5C 52.5,33.1667 52.5,33.8333 52.5,34.5C 50.9605,32.1617 50.2938,29.4951 50.5,26.5C 50.8333,25.1667 51.1667,23.8333 51.5,22.5 Z"/></g>
<g><path style="opacity:1" fill="#b2999c" d="M 70.5,26.5 C 70.5,26.8333 70.5,27.1667 70.5,27.5C 69.8902,28.391 69.5569,29.391 69.5,30.5C 69.1667,30.5 68.8333,30.5 68.5,30.5C 67.8333,30.5 67.5,30.8333 67.5,31.5C 66.7784,31.9175 66.2784,32.5842 66,33.5C 65.3923,31.8455 64.8923,30.1789 64.5,28.5C 65.4959,28.4142 66.3292,28.7476 67,29.5C 66.8931,26.4426 68.0598,24.1093 70.5,22.5C 70.0698,23.7117 70.0698,25.045 70.5,26.5 Z"/></g>
<g><path style="opacity:1" fill="#e1ad86" d="M 79.5,23.5 C 82.9566,24.3938 85.9566,26.0605 88.5,28.5C 88.5,29.1667 88.5,29.8333 88.5,30.5C 85.8333,30.5 83.1667,30.5 80.5,30.5C 80.5,29.8333 80.1667,29.5 79.5,29.5C 80.2778,28.8444 80.9444,28.0111 81.5,27C 80.5705,25.9231 79.9038,24.7564 79.5,23.5 Z"/></g>
<g><path style="opacity:1" fill="#e0e8c7" d="M 6.5,29.5 C 6.5,30.5 6.5,31.5 6.5,32.5C 2.5,31.5 2.5,30.5 6.5,29.5 Z"/></g>
<g><path style="opacity:1" fill="#eb8a66" d="M 53.5,28.5 C 56.3933,28.0311 58.3933,29.0311 59.5,31.5C 58.5084,31.3284 57.8417,31.6618 57.5,32.5C 56.2921,31.7659 54.9587,31.4326 53.5,31.5C 53.5,30.5 53.5,29.5 53.5,28.5 Z"/></g>
<g><path style="opacity:1" fill="#ed7541" d="M 74.5,27.5 C 73.5592,29.0495 72.8925,30.7162 72.5,32.5C 70.4017,33.9143 69.4017,33.2476 69.5,30.5C 69.5569,29.391 69.8902,28.391 70.5,27.5C 71.4822,26.8592 72.4822,26.1925 73.5,25.5C 74.2975,25.9569 74.6309,26.6236 74.5,27.5 Z"/></g>
<g><path style="opacity:1" fill="#ddbe8b" d="M 76.5,23.5 C 77.339,24.6412 78.0057,25.9745 78.5,27.5C 76.448,29.878 74.448,32.2113 72.5,34.5C 72.5,33.8333 72.5,33.1667 72.5,32.5C 72.8925,30.7162 73.5592,29.0495 74.5,27.5C 75.3446,26.3285 76.0113,24.9952 76.5,23.5 Z"/></g>
<g><path style="opacity:1" fill="#5f5258" d="M 88.5,28.5 C 89.9952,28.9887 91.3285,29.6554 92.5,30.5C 91.5,30.5 90.5,30.5 89.5,30.5C 89.0077,34.2896 89.841,34.9563 92,32.5C 92.4643,33.0944 92.631,33.7611 92.5,34.5C 91.0387,35.6857 89.7054,35.6857 88.5,34.5C 88.5,33.1667 88.5,31.8333 88.5,30.5C 88.5,29.8333 88.5,29.1667 88.5,28.5 Z"/></g>
<g><path style="opacity:0.196" fill="#201d1c" d="M 92.5,30.5 C 94.8333,30.8333 96.1667,32.1667 96.5,34.5C 94.8333,33.5 93.5,32.1667 92.5,30.5 Z"/></g>
<g><path style="opacity:1" fill="#4f5865" d="M -0.5,26.5 C -0.166667,26.5 0.166667,26.5 0.5,26.5C -0.835936,32.5045 1.16406,34.5045 6.5,32.5C 9.05449,31.612 11.7212,31.2786 14.5,31.5C 10.7771,32.7942 10.7771,33.9609 14.5,35C 13.944,35.3826 13.6107,35.8826 13.5,36.5C 8.67482,36.1262 4.00816,35.1262 -0.5,33.5C -0.5,31.1667 -0.5,28.8333 -0.5,26.5 Z"/></g>
<g><path style="opacity:1" fill="#de7826" d="M 20.5,24.5 C 20.8333,24.5 21.1667,24.5 21.5,24.5C 21.3893,25.1174 21.056,25.6174 20.5,26C 21.4158,26.2784 22.0825,26.7784 22.5,27.5C 22.5,27.8333 22.5,28.1667 22.5,28.5C 21.5041,28.5858 20.6708,28.2524 20,27.5C 16.6457,29.9532 16.8124,31.9532 20.5,33.5C 20.5,34.1667 20.1667,34.5 19.5,34.5C 15.7933,33.754 14.7933,31.754 16.5,28.5C 17.8333,27.1667 19.1667,25.8333 20.5,24.5 Z"/></g>
<g><path style="opacity:1" fill="#505164" d="M 15.5,28.5 C 15.8333,28.5 16.1667,28.5 16.5,28.5C 14.7933,31.754 15.7933,33.754 19.5,34.5C 19.2627,35.791 19.596,36.791 20.5,37.5C 21.1667,37.5 21.5,37.8333 21.5,38.5C 18.5718,38.4349 15.9052,37.7682 13.5,36.5C 13.6107,35.8826 13.944,35.3826 14.5,35C 10.7771,33.9609 10.7771,32.7942 14.5,31.5C 14.5569,30.391 14.8902,29.391 15.5,28.5 Z"/></g>
<g><path style="opacity:1" fill="#7c6c80" d="M 31.5,38.5 C 31.6716,39.4916 31.3382,40.1583 30.5,40.5C 28.5739,39.5139 26.5739,38.5139 24.5,37.5C 24.2322,35.901 24.5655,34.5676 25.5,33.5C 26.2216,33.0825 26.7216,32.4158 27,31.5C 27.687,34.4572 29.187,36.7906 31.5,38.5 Z"/></g>
<g><path style="opacity:1" fill="#6399a0" d="M 27.5,25.5 C 27.9397,27.8439 28.9397,29.8439 30.5,31.5C 28.9689,32.9245 29.3023,33.5912 31.5,33.5C 32.1667,33.5 32.5,33.8333 32.5,34.5C 32.5674,35.9587 32.2341,37.2921 31.5,38.5C 29.187,36.7906 27.687,34.4572 27,31.5C 26.7216,32.4158 26.2216,33.0825 25.5,33.5C 25.7678,31.901 25.4345,30.5676 24.5,29.5C 24.8333,28.8333 25.1667,28.1667 25.5,27.5C 26.5,27.1667 27.1667,26.5 27.5,25.5 Z"/></g>
<g><path style="opacity:1" fill="#b16463" d="M 39.5,27.5 C 39.4431,28.609 39.1098,29.609 38.5,30.5C 37.5987,31.2905 36.9321,32.2905 36.5,33.5C 36.1667,33.5 35.8333,33.5 35.5,33.5C 35.8449,30.8021 37.1782,28.8021 39.5,27.5 Z"/></g>
<g><path style="opacity:1" fill="#76c1bc" d="M 47.5,29.5 C 47.3424,32.9023 47.6758,36.2356 48.5,39.5C 48.1667,39.5 47.8333,39.5 47.5,39.5C 46.3263,38.4863 45.6596,37.153 45.5,35.5C 46.1667,33.5 46.8333,31.5 47.5,29.5 Z"/></g>
<g><path style="opacity:1" fill="#3b758a" d="M 82.5,34.5 C 81.7659,35.7079 81.4326,37.0413 81.5,38.5C 79.5953,40.8804 78.262,43.5471 77.5,46.5C 76.8333,46.5 76.1667,46.5 75.5,46.5C 75.5,45.5 75.5,44.5 75.5,43.5C 77.8966,40.691 79.2299,37.3576 79.5,33.5C 81.9151,31.6205 84.5818,31.2872 87.5,32.5C 85.7086,33.1698 84.0419,33.8365 82.5,34.5 Z"/></g>
<g><path style="opacity:1" fill="#e29654" d="M 52.5,32.5 C 54.1765,33.1834 54.8432,34.5168 54.5,36.5C 53.8333,36.5 53.1667,36.5 52.5,36.5C 52.5,35.8333 52.5,35.1667 52.5,34.5C 52.5,33.8333 52.5,33.1667 52.5,32.5 Z"/></g>
<g><path style="opacity:1" fill="#9f817a" d="M 68.5,30.5 C 68.8333,30.5 69.1667,30.5 69.5,30.5C 69.4017,33.2476 70.4017,33.9143 72.5,32.5C 72.5,33.1667 72.5,33.8333 72.5,34.5C 72.5,35.1667 72.5,35.8333 72.5,36.5C 72.1667,37.1667 71.8333,37.8333 71.5,38.5C 70.8333,38.5 70.5,38.1667 70.5,37.5C 71.6602,35.7973 70.9935,35.1307 68.5,35.5C 68.5,33.8333 68.5,32.1667 68.5,30.5 Z"/></g>
<g><path style="opacity:1" fill="#345d7d" d="M 80.5,30.5 C 83.1667,30.5 85.8333,30.5 88.5,30.5C 88.5,31.8333 88.5,33.1667 88.5,34.5C 87.8333,34.5 87.1667,34.5 86.5,34.5C 85.1667,34.5 83.8333,34.5 82.5,34.5C 84.0419,33.8365 85.7086,33.1698 87.5,32.5C 84.5818,31.2872 81.9151,31.6205 79.5,33.5C 78.1667,34.8333 76.8333,36.1667 75.5,37.5C 76.0102,34.3257 77.6769,31.9923 80.5,30.5 Z"/></g>
<g><path style="opacity:1" fill="#c48b85" d="M 92.5,30.5 C 93.5,32.1667 94.8333,33.5 96.5,34.5C 96.67,35.8221 96.3366,36.9887 95.5,38C 97.1066,39.049 97.7733,40.549 97.5,42.5C 96.1001,41.9002 95.1001,40.9002 94.5,39.5C 94.2041,37.597 93.5375,35.9303 92.5,34.5C 92.631,33.7611 92.4643,33.0944 92,32.5C 89.841,34.9563 89.0077,34.2896 89.5,30.5C 90.5,30.5 91.5,30.5 92.5,30.5 Z"/></g>
<g><path style="opacity:1" fill="#a65736" d="M 25.5,26.5 C 25.5,26.8333 25.5,27.1667 25.5,27.5C 25.1667,28.1667 24.8333,28.8333 24.5,29.5C 23.5,31.5 22.5,33.5 21.5,35.5C 20.6618,35.8417 20.3284,36.5084 20.5,37.5C 19.596,36.791 19.2627,35.791 19.5,34.5C 20.1667,34.5 20.5,34.1667 20.5,33.5C 21.5375,32.0697 22.2041,30.403 22.5,28.5C 22.5,28.1667 22.5,27.8333 22.5,27.5C 23.609,27.4431 24.609,27.1098 25.5,26.5 Z"/></g>
<g><path style="opacity:1" fill="#8a4152" d="M 52.5,32.5 C 52.5,31.8333 52.8333,31.5 53.5,31.5C 54.9587,31.4326 56.2921,31.7659 57.5,32.5C 57.7678,34.099 57.4345,35.4324 56.5,36.5C 55.8333,36.5 55.1667,36.5 54.5,36.5C 54.8432,34.5168 54.1765,33.1834 52.5,32.5 Z"/></g>
<g><path style="opacity:1" fill="#f9d779" d="M 62.5,27.5 C 63.4916,27.3284 64.1583,27.6618 64.5,28.5C 64.8923,30.1789 65.3923,31.8455 66,33.5C 66.2784,32.5842 66.7784,31.9175 67.5,31.5C 67.5,34.1667 67.5,36.8333 67.5,39.5C 66.8386,38.2825 66.1719,36.9492 65.5,35.5C 64.8933,35.6236 64.56,35.9569 64.5,36.5C 64.5,36.8333 64.5,37.1667 64.5,37.5C 63.7632,34.2746 63.0965,30.9412 62.5,27.5 Z"/></g>
<g><path style="opacity:1" fill="#64b6b7" d="M 24.5,29.5 C 25.4345,30.5676 25.7678,31.901 25.5,33.5C 24.5655,34.5676 24.2322,35.901 24.5,37.5C 22.9731,37.573 21.9731,36.9063 21.5,35.5C 22.5,33.5 23.5,31.5 24.5,29.5 Z"/></g>
<g><path style="opacity:1" fill="#395875" d="M 48.5,25.5 C 48.1984,28.0593 48.5318,30.3926 49.5,32.5C 50.2271,34.9538 51.2271,37.2872 52.5,39.5C 51.2502,39.4226 50.4169,38.756 50,37.5C 49.7216,38.4158 49.2216,39.0825 48.5,39.5C 47.6758,36.2356 47.3424,32.9023 47.5,29.5C 47.2322,27.901 47.5655,26.5676 48.5,25.5 Z"/></g>
<g><path style="opacity:1" fill="#e69368" d="M 59.5,31.5 C 59.4921,34.5448 59.1587,37.5448 58.5,40.5C 54.421,40.4662 53.7543,39.1328 56.5,36.5C 57.4345,35.4324 57.7678,34.099 57.5,32.5C 57.8417,31.6618 58.5084,31.3284 59.5,31.5 Z"/></g>
<g><path style="opacity:1" fill="#912449" d="M 54.5,25.5 C 54.8333,25.5 55.1667,25.5 55.5,25.5C 57.1867,26.9176 59.02,28.2509 61,29.5C 61.498,32.4816 61.6646,35.4816 61.5,38.5C 60.8333,39.1667 60.1667,39.8333 59.5,40.5C 59.1667,40.5 58.8333,40.5 58.5,40.5C 59.1587,37.5448 59.4921,34.5448 59.5,31.5C 58.3933,29.0311 56.3933,28.0311 53.5,28.5C 54.1098,27.609 54.4431,26.609 54.5,25.5 Z"/></g>
<g><path style="opacity:1" fill="#4b1d47" d="M 82.5,34.5 C 83.8333,34.5 85.1667,34.5 86.5,34.5C 86.5,34.8333 86.5,35.1667 86.5,35.5C 84.0411,35.31 82.3745,36.31 81.5,38.5C 81.4326,37.0413 81.7659,35.7079 82.5,34.5 Z"/></g>
<g><path style="opacity:1" fill="#f6c67b" d="M 35.5,33.5 C 35.8333,33.5 36.1667,33.5 36.5,33.5C 36.369,34.2389 36.5357,34.9056 37,35.5C 37.2784,34.5842 37.7784,33.9175 38.5,33.5C 38.634,35.2915 38.3007,36.9582 37.5,38.5C 36.0937,38.9731 35.427,39.9731 35.5,41.5C 34.8333,42.1667 34.1667,42.8333 33.5,43.5C 33.5,42.1667 33.5,40.8333 33.5,39.5C 34.3627,37.5786 35.0293,35.5786 35.5,33.5 Z"/></g>
<g><path style="opacity:1" fill="#772648" d="M 52.5,36.5 C 53.1667,36.5 53.8333,36.5 54.5,36.5C 55.1667,36.5 55.8333,36.5 56.5,36.5C 53.7543,39.1328 54.421,40.4662 58.5,40.5C 58.8333,40.5 59.1667,40.5 59.5,40.5C 58.791,41.404 57.791,41.7373 56.5,41.5C 55.8333,41.5 55.1667,41.5 54.5,41.5C 54.1667,40.8333 53.8333,40.1667 53.5,39.5C 53.4431,38.391 53.1098,37.391 52.5,36.5 Z"/></g>
<g><path style="opacity:1" fill="#d23d57" d="M 55.5,25.5 C 56.8333,25.5 58.1667,25.5 59.5,25.5C 60.2905,26.4013 61.2905,27.0679 62.5,27.5C 63.0965,30.9412 63.7632,34.2746 64.5,37.5C 63.8333,38.8333 63.1667,40.1667 62.5,41.5C 61.596,40.791 61.2627,39.791 61.5,38.5C 61.6646,35.4816 61.498,32.4816 61,29.5C 59.02,28.2509 57.1867,26.9176 55.5,25.5 Z"/></g>
<g><path style="opacity:1" fill="#fbddac" d="M 68.5,30.5 C 68.5,32.1667 68.5,33.8333 68.5,35.5C 70.9935,35.1307 71.6602,35.7973 70.5,37.5C 69.5,38.1667 68.5,38.8333 67.5,39.5C 67.5,36.8333 67.5,34.1667 67.5,31.5C 67.5,30.8333 67.8333,30.5 68.5,30.5 Z"/></g>
<g><path style="opacity:1" fill="#f5d395" d="M 86.5,34.5 C 87.1667,34.5 87.8333,34.5 88.5,34.5C 89.7054,35.6857 91.0387,35.6857 92.5,34.5C 93.5375,35.9303 94.2041,37.597 94.5,39.5C 93.5,39.5 92.5,39.5 91.5,39.5C 90.8826,39.3893 90.3826,39.056 90,38.5C 89.5065,40.1341 89.3398,41.8008 89.5,43.5C 89.1667,44.8333 88.8333,44.8333 88.5,43.5C 87.1053,40.8073 86.4386,38.1406 86.5,35.5C 86.5,35.1667 86.5,34.8333 86.5,34.5 Z"/></g>
<g><path style="opacity:1" fill="#bd9749" d="M 21.5,35.5 C 21.9731,36.9063 22.9731,37.573 24.5,37.5C 26.5739,38.5139 28.5739,39.5139 30.5,40.5C 30.5,40.8333 30.5,41.1667 30.5,41.5C 29.5,41.5 28.5,41.5 27.5,41.5C 27.1667,40.5 26.5,39.8333 25.5,39.5C 24.5,39.5 23.5,39.5 22.5,39.5C 22.5,38.8333 22.1667,38.5 21.5,38.5C 21.5,37.8333 21.1667,37.5 20.5,37.5C 20.3284,36.5084 20.6618,35.8417 21.5,35.5 Z"/></g>
<g><path style="opacity:1" fill="#f4cf7e" d="M 41.5,29.5 C 41.7142,34.3846 43.3808,38.7179 46.5,42.5C 46.5,43.5 46.5,44.5 46.5,45.5C 45.5,45.5 44.5,45.5 43.5,45.5C 41.7706,41.3104 40.4373,36.977 39.5,32.5C 38.8933,32.6236 38.56,32.9569 38.5,33.5C 37.7784,33.9175 37.2784,34.5842 37,35.5C 36.5357,34.9056 36.369,34.2389 36.5,33.5C 36.9321,32.2905 37.5987,31.2905 38.5,30.5C 39.609,30.4431 40.609,30.1098 41.5,29.5 Z"/></g>
<g><path style="opacity:1" fill="#f1d394" d="M 79.5,29.5 C 80.1667,29.5 80.5,29.8333 80.5,30.5C 77.6769,31.9923 76.0102,34.3257 75.5,37.5C 74.2719,38.3065 73.2719,39.3065 72.5,40.5C 72.6716,39.5084 72.3382,38.8417 71.5,38.5C 71.8333,37.8333 72.1667,37.1667 72.5,36.5C 74.6054,33.973 76.9387,31.6397 79.5,29.5 Z"/></g>
<g><path style="opacity:1" fill="#43c4c3" d="M 79.5,33.5 C 79.2299,37.3576 77.8966,40.691 75.5,43.5C 74.4271,41.6531 74.4271,39.6531 75.5,37.5C 76.8333,36.1667 78.1667,34.8333 79.5,33.5 Z"/></g>
<g><path style="opacity:1" fill="#f8d6af" d="M 37.5,38.5 C 40.4152,40.6506 42.0819,43.6506 42.5,47.5C 40.9263,46.0158 39.593,44.3492 38.5,42.5C 38.5654,42.0618 38.3988,41.7284 38,41.5C 37.7216,42.4158 37.2216,43.0825 36.5,43.5C 35.8333,43.5 35.5,43.1667 35.5,42.5C 36.6737,41.4863 37.3404,40.153 37.5,38.5 Z"/></g>
<g><path style="opacity:1" fill="#f25f68" d="M 43.5,45.5 C 43.6716,46.4916 43.3382,47.1583 42.5,47.5C 42.0819,43.6506 40.4152,40.6506 37.5,38.5C 38.3007,36.9582 38.634,35.2915 38.5,33.5C 38.56,32.9569 38.8933,32.6236 39.5,32.5C 40.4373,36.977 41.7706,41.3104 43.5,45.5 Z"/></g>
<g><path style="opacity:1" fill="#cc9077" d="M 64.5,36.5 C 64.56,35.9569 64.8933,35.6236 65.5,35.5C 66.1719,36.9492 66.8386,38.2825 67.5,39.5C 68.5,38.8333 69.5,38.1667 70.5,37.5C 70.5,38.1667 70.8333,38.5 71.5,38.5C 72.3382,38.8417 72.6716,39.5084 72.5,40.5C 72.2872,43.4509 72.9539,46.1175 74.5,48.5C 73.3995,49.6049 72.7329,50.9382 72.5,52.5C 72.1667,52.5 71.8333,52.5 71.5,52.5C 71.1667,52.5 70.8333,52.5 70.5,52.5C 70.5,52.1667 70.5,51.8333 70.5,51.5C 71.4614,49.7354 71.7947,47.7354 71.5,45.5C 71.5,45.1667 71.5,44.8333 71.5,44.5C 71.5,43.1667 71.5,41.8333 71.5,40.5C 70.0413,40.4326 68.7079,40.7659 67.5,41.5C 66.8106,40.2264 65.9772,40.2264 65,41.5C 65.4759,39.6799 65.3093,38.0133 64.5,36.5 Z"/></g>
<g><path style="opacity:1" fill="#7c3f60" d="M 34.5,33.5 C 34.8333,33.5 35.1667,33.5 35.5,33.5C 35.0293,35.5786 34.3627,37.5786 33.5,39.5C 32.5386,41.2646 32.2053,43.2646 32.5,45.5C 31.8333,45.8333 31.1667,46.1667 30.5,46.5C 30.5,44.8333 30.5,43.1667 30.5,41.5C 30.5,41.1667 30.5,40.8333 30.5,40.5C 31.3382,40.1583 31.6716,39.4916 31.5,38.5C 32.2341,37.2921 32.5674,35.9587 32.5,34.5C 33.1667,34.1667 33.8333,33.8333 34.5,33.5 Z"/></g>
<g><path style="opacity:1" fill="#f15968" d="M 37.5,38.5 C 37.3404,40.153 36.6737,41.4863 35.5,42.5C 35.5,42.1667 35.5,41.8333 35.5,41.5C 35.427,39.9731 36.0937,38.9731 37.5,38.5 Z"/></g>
<g><path style="opacity:1" fill="#37577b" d="M 52.5,39.5 C 52.8333,39.5 53.1667,39.5 53.5,39.5C 53.8333,40.1667 54.1667,40.8333 54.5,41.5C 52.2651,42.2481 52.5984,43.0814 55.5,44C 52.6783,44.4279 50.0116,43.9279 47.5,42.5C 47.5,41.5 47.5,40.5 47.5,39.5C 47.8333,39.5 48.1667,39.5 48.5,39.5C 49.2216,39.0825 49.7216,38.4158 50,37.5C 50.4169,38.756 51.2502,39.4226 52.5,39.5 Z"/></g>
<g><path style="opacity:1" fill="#c7383a" d="M 86.5,35.5 C 86.4386,38.1406 87.1053,40.8073 88.5,43.5C 87.8333,43.5 87.5,43.8333 87.5,44.5C 86.8333,44.5 86.1667,44.5 85.5,44.5C 84.2011,35.3337 83.5344,35.3337 83.5,44.5C 81.8763,46.1368 80.8763,45.8034 80.5,43.5C 81.0463,41.8653 81.3796,40.1986 81.5,38.5C 82.3745,36.31 84.0411,35.31 86.5,35.5 Z"/></g>
<g><path style="opacity:1" fill="#fcf1b9" d="M 22.5,39.5 C 23.5,39.5 24.5,39.5 25.5,39.5C 25.5,40.8333 25.5,42.1667 25.5,43.5C 24.5,43.5 23.5,43.5 22.5,43.5C 22.5,42.1667 22.5,40.8333 22.5,39.5 Z"/></g>
<g><path style="opacity:1" fill="#342147" d="M 61.5,38.5 C 61.2627,39.791 61.596,40.791 62.5,41.5C 62.1667,42.1667 61.8333,42.8333 61.5,43.5C 60.1667,43.8333 58.8333,44.1667 57.5,44.5C 57.0618,44.5654 56.7284,44.3988 56.5,44C 57.1667,43.6667 57.8333,43.3333 58.5,43C 57.5842,42.7216 56.9175,42.2216 56.5,41.5C 57.791,41.7373 58.791,41.404 59.5,40.5C 60.1667,39.8333 60.8333,39.1667 61.5,38.5 Z"/></g>
<g><path style="opacity:1" fill="#9b7070" d="M 64.5,36.5 C 65.3093,38.0133 65.4759,39.6799 65,41.5C 65.9772,40.2264 66.8106,40.2264 67.5,41.5C 65.8583,43.0808 63.8583,43.7475 61.5,43.5C 61.8333,42.8333 62.1667,42.1667 62.5,41.5C 63.1667,40.1667 63.8333,38.8333 64.5,37.5C 64.5,37.1667 64.5,36.8333 64.5,36.5 Z"/></g>
<g><path style="opacity:1" fill="#a76889" d="M 91.5,39.5 C 92.4427,41.0012 92.1094,42.3346 90.5,43.5C 90.1667,43.5 89.8333,43.5 89.5,43.5C 89.3398,41.8008 89.5065,40.1341 90,38.5C 90.3826,39.056 90.8826,39.3893 91.5,39.5 Z"/></g>
<g><path style="opacity:0.155" fill="#1b120e" d="M 27.5,41.5 C 28.5,41.5 29.5,41.5 30.5,41.5C 30.5,43.1667 30.5,44.8333 30.5,46.5C 30.5,48.5 30.5,50.5 30.5,52.5C 30.189,53.4778 29.5223,54.1445 28.5,54.5C 27.5078,50.2172 27.1744,45.8839 27.5,41.5 Z"/></g>
<g><path style="opacity:1" fill="#334463" d="M 54.5,41.5 C 55.1667,41.5 55.8333,41.5 56.5,41.5C 56.9175,42.2216 57.5842,42.7216 58.5,43C 57.8333,43.3333 57.1667,43.6667 56.5,44C 56.7284,44.3988 57.0618,44.5654 57.5,44.5C 57.5,44.8333 57.5,45.1667 57.5,45.5C 56.5,45.5 55.5,45.5 54.5,45.5C 53.1667,45.5 51.8333,45.5 50.5,45.5C 49.1667,44.8333 48.1667,43.8333 47.5,42.5C 50.0116,43.9279 52.6783,44.4279 55.5,44C 52.5984,43.0814 52.2651,42.2481 54.5,41.5 Z"/></g>
<g><path style="opacity:1" fill="#fdf97a" d="M 85.5,44.5 C 84.8333,44.5 84.1667,44.5 83.5,44.5C 83.5344,35.3337 84.2011,35.3337 85.5,44.5 Z"/></g>
<g><path style="opacity:1" fill="#fde196" d="M 71.5,44.5 C 68.1667,44.5 64.8333,44.5 61.5,44.5C 61.5,44.1667 61.5,43.8333 61.5,43.5C 63.8583,43.7475 65.8583,43.0808 67.5,41.5C 68.7079,40.7659 70.0413,40.4326 71.5,40.5C 71.5,41.8333 71.5,43.1667 71.5,44.5 Z"/></g>
<g><path style="opacity:1" fill="#23212f" d="M 75.5,37.5 C 74.4271,39.6531 74.4271,41.6531 75.5,43.5C 75.5,44.5 75.5,45.5 75.5,46.5C 75.8333,47.1667 76.1667,47.8333 76.5,48.5C 75.8333,48.5 75.1667,48.5 74.5,48.5C 72.9539,46.1175 72.2872,43.4509 72.5,40.5C 73.2719,39.3065 74.2719,38.3065 75.5,37.5 Z"/></g>
<g><path style="opacity:1" fill="#f8dea7" d="M 91.5,39.5 C 92.5,39.5 93.5,39.5 94.5,39.5C 94.5,41.1667 94.5,42.8333 94.5,44.5C 92.901,44.7678 91.5676,44.4345 90.5,43.5C 92.1094,42.3346 92.4427,41.0012 91.5,39.5 Z"/></g>
<g><path style="opacity:1" fill="#f09977" d="M 88.5,43.5 C 88.8333,44.8333 89.1667,44.8333 89.5,43.5C 89.8333,43.5 90.1667,43.5 90.5,43.5C 91.5676,44.4345 92.901,44.7678 94.5,44.5C 94.2155,46.4147 94.5489,48.0813 95.5,49.5C 95.5,49.8333 95.5,50.1667 95.5,50.5C 95.6716,51.4916 95.3382,52.1583 94.5,52.5C 94.631,51.7611 94.4643,51.0944 94,50.5C 93.5831,51.756 92.7498,52.4226 91.5,52.5C 92.4309,50.9668 93.0976,49.3002 93.5,47.5C 93.2528,46.2867 92.5862,45.62 91.5,45.5C 90.609,46.1098 89.609,46.4431 88.5,46.5C 88.1667,45.8333 87.8333,45.1667 87.5,44.5C 87.5,43.8333 87.8333,43.5 88.5,43.5 Z"/></g>
<g><path style="opacity:0.949" fill="#493529" d="M 21.5,38.5 C 22.1667,38.5 22.5,38.8333 22.5,39.5C 22.5,40.8333 22.5,42.1667 22.5,43.5C 23.5,43.5 24.5,43.5 25.5,43.5C 25.5,45.5 25.5,47.5 25.5,49.5C 25.1667,49.5 24.8333,49.5 24.5,49.5C 24.5,48.5 24.5,47.5 24.5,46.5C 20.4871,45.1775 19.4871,42.5108 21.5,38.5 Z"/></g>
<g><path style="opacity:1" fill="#f7c88b" d="M 46.5,42.5 C 46.8333,42.5 47.1667,42.5 47.5,42.5C 48.1667,43.8333 49.1667,44.8333 50.5,45.5C 50.5,47.1667 50.5,48.8333 50.5,50.5C 49.3951,51.6005 48.0618,52.2671 46.5,52.5C 46.5,51.8333 46.5,51.1667 46.5,50.5C 46.9528,49.5416 47.6195,48.7083 48.5,48C 47.6195,47.2917 46.9528,46.4584 46.5,45.5C 46.5,44.5 46.5,43.5 46.5,42.5 Z"/></g>
<g><path style="opacity:1" fill="#8f8779" d="M 61.5,44.5 C 64.8333,44.5 68.1667,44.5 71.5,44.5C 71.5,44.8333 71.5,45.1667 71.5,45.5C 70.5084,45.3284 69.8417,45.6618 69.5,46.5C 66.8333,46.5 64.1667,46.5 61.5,46.5C 61.5,46.1667 61.5,45.8333 61.5,45.5C 61.5,45.1667 61.5,44.8333 61.5,44.5 Z"/></g>
<g><path style="opacity:1" fill="#2f3655" d="M 81.5,38.5 C 81.3796,40.1986 81.0463,41.8653 80.5,43.5C 80.8763,45.8034 81.8763,46.1368 83.5,44.5C 83.5,46.5 83.5,48.5 83.5,50.5C 82.5,50.5 81.5,50.5 80.5,50.5C 80.5,51.5 80.5,52.5 80.5,53.5C 80.5,55.1667 80.5,56.8333 80.5,58.5C 79.2616,56.7857 78.595,54.7857 78.5,52.5C 77.7575,50.3035 77.4241,48.3035 77.5,46.5C 78.262,43.5471 79.5953,40.8804 81.5,38.5 Z"/></g>
<g><path style="opacity:1" fill="#f04c65" d="M 38.5,42.5 C 38.5,43.1667 38.5,43.8333 38.5,44.5C 35.8333,46.8333 35.8333,49.1667 38.5,51.5C 39.1667,51.5 39.5,51.8333 39.5,52.5C 39.1959,54.7957 38.1959,55.129 36.5,53.5C 35.9862,51.6336 35.3195,49.8003 34.5,48C 35.4138,46.5936 36.0805,45.0936 36.5,43.5C 37.2216,43.0825 37.7216,42.4158 38,41.5C 38.3988,41.7284 38.5654,42.0618 38.5,42.5 Z"/></g>
<g><path style="opacity:1" fill="#cd8a6e" d="M 50.5,45.5 C 51.8333,45.5 53.1667,45.5 54.5,45.5C 53.0674,47.5184 53.4008,49.1851 55.5,50.5C 53.8333,50.5 52.1667,50.5 50.5,50.5C 50.5,48.8333 50.5,47.1667 50.5,45.5 Z"/></g>
<g><path style="opacity:1" fill="#d2d5ae" d="M 83.5,44.5 C 84.1667,44.5 84.8333,44.5 85.5,44.5C 84.6314,46.717 84.298,49.0504 84.5,51.5C 84.5,53.1667 84.5,54.8333 84.5,56.5C 83.5386,54.7354 83.2053,52.7354 83.5,50.5C 83.5,48.5 83.5,46.5 83.5,44.5 Z"/></g>
<g><path style="opacity:1" fill="#625d72" d="M 85.5,44.5 C 86.1667,44.5 86.8333,44.5 87.5,44.5C 87.8333,45.1667 88.1667,45.8333 88.5,46.5C 87.1667,47.5 87.1667,48.5 88.5,49.5C 88.5,49.8333 88.5,50.1667 88.5,50.5C 87.2921,51.2341 85.9587,51.5674 84.5,51.5C 84.298,49.0504 84.6314,46.717 85.5,44.5 Z"/></g>
<g><path style="opacity:1" fill="#48284f" d="M 98.5,45.5 C 98.5,47.1667 98.5,48.8333 98.5,50.5C 97.5,50.5 96.5,50.5 95.5,50.5C 95.5,50.1667 95.5,49.8333 95.5,49.5C 95.5,48.1667 95.5,46.8333 95.5,45.5C 96.5,45.5 97.5,45.5 98.5,45.5 Z"/></g>
<g><path style="opacity:0.961" fill="#2d242a" d="M 96.5,34.5 C 97.5,36.5 98.5,38.5 99.5,40.5C 99.5,45.5 99.5,50.5 99.5,55.5C 99.1667,55.5 98.8333,55.5 98.5,55.5C 98.5,53.8333 98.5,52.1667 98.5,50.5C 98.5,48.8333 98.5,47.1667 98.5,45.5C 98.7373,44.209 98.404,43.209 97.5,42.5C 97.7733,40.549 97.1066,39.049 95.5,38C 96.3366,36.9887 96.67,35.8221 96.5,34.5 Z"/></g>
<g><path style="opacity:1" fill="#e94e5c" d="M 38.5,42.5 C 39.593,44.3492 40.9263,46.0158 42.5,47.5C 41.5592,49.0495 40.8925,50.7162 40.5,52.5C 40.1667,52.5 39.8333,52.5 39.5,52.5C 39.5,51.8333 39.1667,51.5 38.5,51.5C 40.9222,49.2737 40.9222,46.9404 38.5,44.5C 38.5,43.8333 38.5,43.1667 38.5,42.5 Z"/></g>
<g><path style="opacity:1" fill="#f4e4a8" d="M 61.5,43.5 C 61.5,43.8333 61.5,44.1667 61.5,44.5C 61.5,44.8333 61.5,45.1667 61.5,45.5C 58.4008,46.5327 57.7341,48.5327 59.5,51.5C 58.391,51.4431 57.391,51.1098 56.5,50.5C 57.3007,48.9582 57.634,47.2915 57.5,45.5C 57.5,45.1667 57.5,44.8333 57.5,44.5C 58.8333,44.1667 60.1667,43.8333 61.5,43.5 Z"/></g>
<g><path style="opacity:1" fill="#705d5e" d="M 61.5,45.5 C 61.5,45.8333 61.5,46.1667 61.5,46.5C 60.5655,47.5676 60.2322,48.901 60.5,50.5C 62.5,50.5 64.5,50.5 66.5,50.5C 67.5,50.5 68.5,50.5 69.5,50.5C 69.5,51.1667 69.8333,51.5 70.5,51.5C 70.5,51.8333 70.5,52.1667 70.5,52.5C 66.7852,52.577 63.1185,52.2436 59.5,51.5C 57.7341,48.5327 58.4008,46.5327 61.5,45.5 Z"/></g>
<g><path style="opacity:1" fill="#fed997" d="M 69.5,47.5 C 69.5,48.5 69.5,49.5 69.5,50.5C 68.5,50.5 67.5,50.5 66.5,50.5C 65.158,49.207 63.4913,48.3736 61.5,48C 64.146,47.5026 66.8127,47.3359 69.5,47.5 Z"/></g>
<g><path style="opacity:1" fill="#323d76" d="M 71.5,45.5 C 71.7947,47.7354 71.4614,49.7354 70.5,51.5C 69.8333,51.5 69.5,51.1667 69.5,50.5C 69.5,49.5 69.5,48.5 69.5,47.5C 69.5,47.1667 69.5,46.8333 69.5,46.5C 69.8417,45.6618 70.5084,45.3284 71.5,45.5 Z"/></g>
<g><path style="opacity:1" fill="#5e5166" d="M 91.5,45.5 C 91.6602,47.1992 91.4935,48.8659 91,50.5C 90.3292,49.7476 89.4959,49.4142 88.5,49.5C 87.1667,48.5 87.1667,47.5 88.5,46.5C 89.609,46.4431 90.609,46.1098 91.5,45.5 Z"/></g>
<g><path style="opacity:1" fill="#c46d6a" d="M 94.5,39.5 C 95.1001,40.9002 96.1001,41.9002 97.5,42.5C 98.404,43.209 98.7373,44.209 98.5,45.5C 97.5,45.5 96.5,45.5 95.5,45.5C 95.5,46.8333 95.5,48.1667 95.5,49.5C 94.5489,48.0813 94.2155,46.4147 94.5,44.5C 94.5,42.8333 94.5,41.1667 94.5,39.5 Z"/></g>
<g><path style="opacity:1" fill="#7c5c6c" d="M 32.5,45.5 C 32.5,48.1667 32.5,50.8333 32.5,53.5C 31.8333,53.1667 31.1667,52.8333 30.5,52.5C 30.5,50.5 30.5,48.5 30.5,46.5C 31.1667,46.1667 31.8333,45.8333 32.5,45.5 Z"/></g>
<g><path style="opacity:1" fill="#fcd492" d="M 38.5,44.5 C 40.9222,46.9404 40.9222,49.2737 38.5,51.5C 35.8333,49.1667 35.8333,46.8333 38.5,44.5 Z"/></g>
<g><path style="opacity:1" fill="#f38e75" d="M 43.5,45.5 C 44.5,45.5 45.5,45.5 46.5,45.5C 46.9528,46.4584 47.6195,47.2917 48.5,48C 47.6195,48.7083 46.9528,49.5416 46.5,50.5C 44.1582,50.2252 44.1582,49.3919 46.5,48C 46.1667,47.8333 45.8333,47.6667 45.5,47.5C 44.0652,48.9469 43.0652,50.6136 42.5,52.5C 42.0623,51.4937 41.3957,51.4937 40.5,52.5C 40.8925,50.7162 41.5592,49.0495 42.5,47.5C 43.3382,47.1583 43.6716,46.4916 43.5,45.5 Z"/></g>
<g><path style="opacity:1" fill="#f8db96" d="M 54.5,45.5 C 55.5,45.5 56.5,45.5 57.5,45.5C 57.634,47.2915 57.3007,48.9582 56.5,50.5C 56.1667,50.5 55.8333,50.5 55.5,50.5C 53.4008,49.1851 53.0674,47.5184 54.5,45.5 Z"/></g>
<g><path style="opacity:1" fill="#f9e29c" d="M 61.5,46.5 C 64.1667,46.5 66.8333,46.5 69.5,46.5C 69.5,46.8333 69.5,47.1667 69.5,47.5C 66.8127,47.3359 64.146,47.5026 61.5,48C 63.4913,48.3736 65.158,49.207 66.5,50.5C 64.5,50.5 62.5,50.5 60.5,50.5C 60.2322,48.901 60.5655,47.5676 61.5,46.5 Z"/></g>
<g><path style="opacity:1" fill="#eddfa6" d="M 24.5,49.5 C 24.8333,49.5 25.1667,49.5 25.5,49.5C 25.8515,52.0728 25.3515,54.4062 24,56.5C 23.7216,55.5842 23.2216,54.9175 22.5,54.5C 21.3058,52.5156 21.3058,50.5156 22.5,48.5C 23.1835,48.8627 23.8501,49.1961 24.5,49.5 Z"/></g>
<g><path style="opacity:1" fill="#fcd891" d="M 35.5,41.5 C 35.5,41.8333 35.5,42.1667 35.5,42.5C 35.5,43.1667 35.8333,43.5 36.5,43.5C 36.0805,45.0936 35.4138,46.5936 34.5,48C 35.3195,49.8003 35.9862,51.6336 36.5,53.5C 35.5,53.5 34.5,53.5 33.5,53.5C 33.5,50.1667 33.5,46.8333 33.5,43.5C 34.1667,42.8333 34.8333,42.1667 35.5,41.5 Z"/></g>
<g><path style="opacity:0.2" fill="#171817" d="M 24.5,46.5 C 24.5,47.5 24.5,48.5 24.5,49.5C 23.8501,49.1961 23.1835,48.8627 22.5,48.5C 21.3058,50.5156 21.3058,52.5156 22.5,54.5C 22.5674,55.9587 22.2341,57.2921 21.5,58.5C 20.8333,58.5 20.1667,58.5 19.5,58.5C 16.8728,59.0916 14.2062,59.4249 11.5,59.5C 14.5208,58.3198 17.6874,57.3198 21,56.5C 20.7097,53.5865 20.5431,50.5865 20.5,47.5C 21.9587,47.5674 23.2921,47.2341 24.5,46.5 Z"/></g>
<g><path style="opacity:1" fill="#1f173f" d="M 74.5,48.5 C 75.1667,48.5 75.8333,48.5 76.5,48.5C 75.6993,50.0418 75.366,51.7085 75.5,53.5C 74.6618,53.8417 74.3284,54.5084 74.5,55.5C 72.9519,55.1788 72.2852,54.1788 72.5,52.5C 72.7329,50.9382 73.3995,49.6049 74.5,48.5 Z"/></g>
<g><path style="opacity:1" fill="#d5716a" d="M 91.5,45.5 C 92.5862,45.62 93.2528,46.2867 93.5,47.5C 93.0976,49.3002 92.4309,50.9668 91.5,52.5C 91.5,53.1667 91.5,53.8333 91.5,54.5C 90.8333,54.5 90.1667,54.5 89.5,54.5C 89.7678,52.901 89.4345,51.5676 88.5,50.5C 88.5,50.1667 88.5,49.8333 88.5,49.5C 89.4959,49.4142 90.3292,49.7476 91,50.5C 91.4935,48.8659 91.6602,47.1992 91.5,45.5 Z"/></g>
<g><path style="opacity:1" fill="#f9cd74" d="M 46.5,50.5 C 46.5,51.1667 46.5,51.8333 46.5,52.5C 46.5,52.8333 46.5,53.1667 46.5,53.5C 45.7784,53.0825 45.2784,52.4158 45,51.5C 44.9252,53.935 44.0919,54.6016 42.5,53.5C 42.5,53.1667 42.5,52.8333 42.5,52.5C 43.0652,50.6136 44.0652,48.9469 45.5,47.5C 45.8333,47.6667 46.1667,47.8333 46.5,48C 44.1582,49.3919 44.1582,50.2252 46.5,50.5 Z"/></g>
<g><path style="opacity:1" fill="#f1b283" d="M 59.5,51.5 C 63.1185,52.2436 66.7852,52.577 70.5,52.5C 70.8333,52.5 71.1667,52.5 71.5,52.5C 71.5,53.8333 71.5,55.1667 71.5,56.5C 68.3136,55.2292 64.9803,54.2292 61.5,53.5C 60.5,53.1667 59.8333,52.5 59.5,51.5 Z"/></g>
<g><path style="opacity:1" fill="#3a5d7a" d="M 75.5,46.5 C 76.1667,46.5 76.8333,46.5 77.5,46.5C 77.4241,48.3035 77.7575,50.3035 78.5,52.5C 77.609,53.1098 76.609,53.4431 75.5,53.5C 75.366,51.7085 75.6993,50.0418 76.5,48.5C 76.1667,47.8333 75.8333,47.1667 75.5,46.5 Z"/></g>
<g><path style="opacity:1" fill="#363052" d="M 50.5,50.5 C 52.1667,50.5 53.8333,50.5 55.5,50.5C 55.8333,50.5 56.1667,50.5 56.5,50.5C 57.391,51.1098 58.391,51.4431 59.5,51.5C 59.8333,52.5 60.5,53.1667 61.5,53.5C 61.8333,54.1667 62.1667,54.8333 62.5,55.5C 61.5,55.5 60.5,55.5 59.5,55.5C 58.4324,54.5655 57.099,54.2322 55.5,54.5C 55.9175,53.7784 56.5842,53.2784 57.5,53C 55.1055,51.4022 52.7721,51.2355 50.5,52.5C 47.0219,54.4532 45.3552,57.4532 45.5,61.5C 45.1667,61.5 44.8333,61.5 44.5,61.5C 44.6716,60.5084 44.3382,59.8417 43.5,59.5C 43.9752,57.2163 44.9752,55.2163 46.5,53.5C 46.5,53.1667 46.5,52.8333 46.5,52.5C 48.0618,52.2671 49.3951,51.6005 50.5,50.5 Z"/></g>
<g><path style="opacity:1" fill="#3c9c9f" d="M 50.5,52.5 C 52.7721,51.2355 55.1055,51.4022 57.5,53C 56.5842,53.2784 55.9175,53.7784 55.5,54.5C 53.1667,54.8333 51.8333,56.1667 51.5,58.5C 50.8333,58.5 50.5,58.8333 50.5,59.5C 49.8333,59.1667 49.1667,58.8333 48.5,58.5C 49.2371,56.6954 50.2371,55.0287 51.5,53.5C 51.3764,52.8933 51.0431,52.56 50.5,52.5 Z"/></g>
<g><path style="opacity:1" fill="#c23e34" d="M 83.5,50.5 C 83.2053,52.7354 83.5386,54.7354 84.5,56.5C 84.5,57.8333 83.8333,58.5 82.5,58.5C 82.8799,56.302 82.2132,54.6354 80.5,53.5C 80.5,52.5 80.5,51.5 80.5,50.5C 81.5,50.5 82.5,50.5 83.5,50.5 Z"/></g>
<g><path style="opacity:1" fill="#ab6d59" d="M 25.5,39.5 C 26.5,39.8333 27.1667,40.5 27.5,41.5C 27.1744,45.8839 27.5078,50.2172 28.5,54.5C 29.5223,54.1445 30.189,53.4778 30.5,52.5C 31.1667,52.8333 31.8333,53.1667 32.5,53.5C 32.5,54.1667 32.5,54.8333 32.5,55.5C 31.5,54.1667 30.5,54.1667 29.5,55.5C 27.1815,55.9925 25.1815,56.9925 23.5,58.5C 22.8333,58.5 22.1667,58.5 21.5,58.5C 22.2341,57.2921 22.5674,55.9587 22.5,54.5C 23.2216,54.9175 23.7216,55.5842 24,56.5C 25.3515,54.4062 25.8515,52.0728 25.5,49.5C 25.5,47.5 25.5,45.5 25.5,43.5C 25.5,42.1667 25.5,40.8333 25.5,39.5 Z"/></g>
<g><path style="opacity:1" fill="#f6c797" d="M 39.5,52.5 C 39.8333,52.5 40.1667,52.5 40.5,52.5C 40.1558,57.9128 38.4891,58.5795 35.5,54.5C 34.5084,54.6716 33.8417,54.3382 33.5,53.5C 34.5,53.5 35.5,53.5 36.5,53.5C 38.1959,55.129 39.1959,54.7957 39.5,52.5 Z"/></g>
<g><path style="opacity:1" fill="#eec272" d="M 46.5,53.5 C 44.9752,55.2163 43.9752,57.2163 43.5,59.5C 42.6618,59.8417 42.3284,60.5084 42.5,61.5C 41.596,62.209 41.2627,63.209 41.5,64.5C 40.8333,63.1667 40.1667,61.8333 39.5,60.5C 40.6876,58.2779 41.6876,55.9446 42.5,53.5C 44.0919,54.6016 44.9252,53.935 45,51.5C 45.2784,52.4158 45.7784,53.0825 46.5,53.5 Z"/></g>
<g><path style="opacity:1" fill="#a9656f" d="M 95.5,50.5 C 96.5,50.5 97.5,50.5 98.5,50.5C 98.5,52.1667 98.5,53.8333 98.5,55.5C 97.5284,57.4931 96.1951,57.8264 94.5,56.5C 94.5,55.1667 94.5,53.8333 94.5,52.5C 95.3382,52.1583 95.6716,51.4916 95.5,50.5 Z"/></g>
<g><path style="opacity:1" fill="#763c5c" d="M 89.5,54.5 C 90.1667,54.5 90.8333,54.5 91.5,54.5C 91.8333,55.1667 92.1667,55.8333 92.5,56.5C 90.4017,57.9143 89.4017,57.2476 89.5,54.5 Z"/></g>
<g><path style="opacity:1" fill="#abeb81" d="M 29.5,55.5 C 28.9002,56.8999 27.9002,57.8999 26.5,58.5C 26.1667,58.5 25.8333,58.5 25.5,58.5C 24.8333,58.5 24.1667,58.5 23.5,58.5C 25.1815,56.9925 27.1815,55.9925 29.5,55.5 Z"/></g>
<g><path style="opacity:1" fill="#d07c74" d="M 33.5,39.5 C 33.5,40.8333 33.5,42.1667 33.5,43.5C 33.5,46.8333 33.5,50.1667 33.5,53.5C 33.8417,54.3382 34.5084,54.6716 35.5,54.5C 35.5,54.8333 35.5,55.1667 35.5,55.5C 34.9569,55.56 34.6236,55.8933 34.5,56.5C 35.1717,58.5295 35.8384,60.5295 36.5,62.5C 35.8333,62.5 35.1667,62.5 34.5,62.5C 34.5,61.1667 33.8333,60.5 32.5,60.5C 32.5,58.8333 32.5,57.1667 32.5,55.5C 32.5,54.8333 32.5,54.1667 32.5,53.5C 32.5,50.8333 32.5,48.1667 32.5,45.5C 32.2053,43.2646 32.5386,41.2646 33.5,39.5 Z"/></g>
<g><path style="opacity:1" fill="#e84a70" d="M 42.5,52.5 C 42.5,52.8333 42.5,53.1667 42.5,53.5C 41.6876,55.9446 40.6876,58.2779 39.5,60.5C 39.7373,61.791 39.404,62.791 38.5,63.5C 38.0598,60.6202 37.0598,57.9535 35.5,55.5C 35.5,55.1667 35.5,54.8333 35.5,54.5C 38.4891,58.5795 40.1558,57.9128 40.5,52.5C 41.3957,51.4937 42.0623,51.4937 42.5,52.5 Z"/></g>
<g><path style="opacity:1" fill="#986967" d="M 71.5,52.5 C 71.8333,52.5 72.1667,52.5 72.5,52.5C 72.2852,54.1788 72.9519,55.1788 74.5,55.5C 74.5,55.8333 74.5,56.1667 74.5,56.5C 73.2438,56.4614 72.2438,56.9614 71.5,58C 73.1412,59.129 74.1412,60.629 74.5,62.5C 73.1667,61.5 71.8333,60.5 70.5,59.5C 70.189,58.5222 69.5223,57.8555 68.5,57.5C 67.3578,58.8262 66.0245,59.8262 64.5,60.5C 64.4431,59.391 64.1098,58.391 63.5,57.5C 63.5,57.1667 63.5,56.8333 63.5,56.5C 63.5,55.8333 63.1667,55.5 62.5,55.5C 62.1667,54.8333 61.8333,54.1667 61.5,53.5C 64.9803,54.2292 68.3136,55.2292 71.5,56.5C 71.5,55.1667 71.5,53.8333 71.5,52.5 Z"/></g>
<g><path style="opacity:1" fill="#3d6180" d="M 78.5,52.5 C 78.595,54.7857 79.2616,56.7857 80.5,58.5C 80.5,59.1667 80.5,59.8333 80.5,60.5C 78.6267,61.0891 76.96,60.4224 75.5,58.5C 74.6618,58.1583 74.3284,57.4916 74.5,56.5C 74.5,56.1667 74.5,55.8333 74.5,55.5C 74.3284,54.5084 74.6618,53.8417 75.5,53.5C 76.609,53.4431 77.609,53.1098 78.5,52.5 Z"/></g>
<g><path style="opacity:1" fill="#9c304f" d="M 88.5,50.5 C 88.3749,54.4858 87.3749,58.1524 85.5,61.5C 84.8333,61.5 84.1667,61.5 83.5,61.5C 83.4431,60.391 83.1098,59.391 82.5,58.5C 83.8333,58.5 84.5,57.8333 84.5,56.5C 84.5,54.8333 84.5,53.1667 84.5,51.5C 85.9587,51.5674 87.2921,51.2341 88.5,50.5 Z"/></g>
<g><path style="opacity:1" fill="#76e5cc" d="M 50.5,52.5 C 51.0431,52.56 51.3764,52.8933 51.5,53.5C 50.2371,55.0287 49.2371,56.6954 48.5,58.5C 47.7717,60.5115 46.9383,62.5115 46,64.5C 45.5172,63.552 45.3505,62.552 45.5,61.5C 45.3552,57.4532 47.0219,54.4532 50.5,52.5 Z"/></g>
<g><path style="opacity:1" fill="#33274a" d="M 80.5,53.5 C 82.2132,54.6354 82.8799,56.302 82.5,58.5C 83.1098,59.391 83.4431,60.391 83.5,61.5C 82.391,61.4431 81.391,61.1098 80.5,60.5C 80.5,59.8333 80.5,59.1667 80.5,58.5C 80.5,56.8333 80.5,55.1667 80.5,53.5 Z"/></g>
<g><path style="opacity:1" fill="#f6b580" d="M 35.5,55.5 C 37.0598,57.9535 38.0598,60.6202 38.5,63.5C 37.6726,64.4387 37.0059,64.1054 36.5,62.5C 35.8384,60.5295 35.1717,58.5295 34.5,56.5C 34.6236,55.8933 34.9569,55.56 35.5,55.5 Z"/></g>
<g><path style="opacity:1" fill="#d57563" d="M 56.5,57.5 C 57.4959,57.4142 58.3292,57.7476 59,58.5C 59.6342,61.5547 59.4675,64.5547 58.5,67.5C 57.1932,68.1534 55.8599,68.8201 54.5,69.5C 53.7025,69.0431 53.3691,68.3764 53.5,67.5C 57.3302,66.3114 58.3302,63.978 56.5,60.5C 54.0155,59.7399 54.0155,58.7399 56.5,57.5 Z"/></g>
<g><path style="opacity:1" fill="#f1bc8a" d="M 74.5,56.5 C 74.3284,57.4916 74.6618,58.1583 75.5,58.5C 75.5569,59.609 75.8902,60.609 76.5,61.5C 76.5912,63.6977 75.9245,64.0311 74.5,62.5C 74.1412,60.629 73.1412,59.129 71.5,58C 72.2438,56.9614 73.2438,56.4614 74.5,56.5 Z"/></g>
<g><path style="opacity:1" fill="#cd9b84" d="M 88.5,50.5 C 89.4345,51.5676 89.7678,52.901 89.5,54.5C 89.4017,57.2476 90.4017,57.9143 92.5,56.5C 92.2786,57.7348 91.6119,58.7348 90.5,59.5C 90.8627,60.1835 91.1961,60.8501 91.5,61.5C 90.8333,61.5 90.1667,61.5 89.5,61.5C 89.1667,61.5 88.8333,61.5 88.5,61.5C 87.5,61.5 86.5,61.5 85.5,61.5C 87.3749,58.1524 88.3749,54.4858 88.5,50.5 Z"/></g>
<g><path style="opacity:1" fill="#ecc299" d="M 94.5,52.5 C 94.5,53.8333 94.5,55.1667 94.5,56.5C 93.8897,58.4341 92.8897,60.1007 91.5,61.5C 91.1961,60.8501 90.8627,60.1835 90.5,59.5C 91.6119,58.7348 92.2786,57.7348 92.5,56.5C 92.1667,55.8333 91.8333,55.1667 91.5,54.5C 91.5,53.8333 91.5,53.1667 91.5,52.5C 92.7498,52.4226 93.5831,51.756 94,50.5C 94.4643,51.0944 94.631,51.7611 94.5,52.5 Z"/></g>
<g><path style="opacity:1" fill="#4c7d84" d="M 19.5,58.5 C 19.4431,59.609 19.1098,60.609 18.5,61.5C 16.8102,61.8564 15.8102,62.8564 15.5,64.5C 14.8333,64.5 14.5,64.1667 14.5,63.5C 14.6716,62.5084 14.3382,61.8417 13.5,61.5C 11.7354,60.5386 9.73535,60.2053 7.5,60.5C 8.56764,59.5655 9.90097,59.2322 11.5,59.5C 14.2062,59.4249 16.8728,59.0916 19.5,58.5 Z"/></g>
<g><path style="opacity:1" fill="#52638d" d="M 25.5,59.5 C 25.5,59.1667 25.5,58.8333 25.5,58.5C 25.8333,58.5 26.1667,58.5 26.5,58.5C 29.3357,58.8373 30.0024,60.1707 28.5,62.5C 27.5386,64.2646 27.2053,66.2646 27.5,68.5C 26.8333,67.8333 26.1667,67.1667 25.5,66.5C 25.5,65.1667 25.5,63.8333 25.5,62.5C 27.9845,61.2601 27.9845,60.2601 25.5,59.5 Z"/></g>
<g><path style="opacity:1" fill="#512849" d="M 55.5,54.5 C 57.099,54.2322 58.4324,54.5655 59.5,55.5C 57.9731,55.427 56.9731,56.0937 56.5,57.5C 54.0155,58.7399 54.0155,59.7399 56.5,60.5C 56.5,61.1667 56.1667,61.5 55.5,61.5C 53.9731,61.427 52.9731,62.0937 52.5,63.5C 51.9569,63.44 51.6236,63.1067 51.5,62.5C 52.1667,61.1667 52.8333,59.8333 53.5,58.5C 53.0302,57.537 52.3635,57.537 51.5,58.5C 51.8333,56.1667 53.1667,54.8333 55.5,54.5 Z"/></g>
<g><path style="opacity:1" fill="#373f57" d="M 75.5,58.5 C 76.96,60.4224 78.6267,61.0891 80.5,60.5C 79.3157,61.6879 79.3157,62.8545 80.5,64C 83.146,64.4974 85.8127,64.6641 88.5,64.5C 88.5,63.5 88.5,62.5 88.5,61.5C 88.8333,61.5 89.1667,61.5 89.5,61.5C 89.5,62.8333 89.5,64.1667 89.5,65.5C 90.8333,65.5 92.1667,65.5 93.5,65.5C 91.1954,66.3229 89.1954,67.6563 87.5,69.5C 87.5394,68.4168 87.8728,67.4168 88.5,66.5C 85.9135,65.52 83.2469,65.1866 80.5,65.5C 78.8058,64.4726 77.4725,63.1392 76.5,61.5C 75.8902,60.609 75.5569,59.609 75.5,58.5 Z"/></g>
<g><path style="opacity:1" fill="#724857" d="M 98.5,55.5 C 98.4081,59.6841 96.7414,63.0174 93.5,65.5C 92.1667,65.5 90.8333,65.5 89.5,65.5C 89.5,64.1667 89.5,62.8333 89.5,61.5C 90.1667,61.5 90.8333,61.5 91.5,61.5C 92.8897,60.1007 93.8897,58.4341 94.5,56.5C 96.1951,57.8264 97.5284,57.4931 98.5,55.5 Z"/></g>
<g><path style="opacity:1" fill="#4f8988" d="M 7.5,60.5 C 9.73535,60.2053 11.7354,60.5386 13.5,61.5C 11.1944,61.9926 8.86105,62.3259 6.5,62.5C 5.5,62.5 4.5,62.5 3.5,62.5C 2.5,62.5 1.5,62.5 0.5,62.5C 2.4385,60.8372 4.77183,60.1706 7.5,60.5 Z"/></g>
<g><path style="opacity:1" fill="#cf7293" d="M 25.5,59.5 C 27.9845,60.2601 27.9845,61.2601 25.5,62.5C 24.1667,61.5 24.1667,60.5 25.5,59.5 Z"/></g>
<g><path style="opacity:1" fill="#629293" d="M 32.5,55.5 C 32.5,57.1667 32.5,58.8333 32.5,60.5C 32.7148,62.1788 32.0481,63.1788 30.5,63.5C 30.1583,62.6618 29.4916,62.3284 28.5,62.5C 30.0024,60.1707 29.3357,58.8373 26.5,58.5C 27.9002,57.8999 28.9002,56.8999 29.5,55.5C 30.5,54.1667 31.5,54.1667 32.5,55.5 Z"/></g>
<g><path style="opacity:1" fill="#bf3c61" d="M 59.5,55.5 C 60.7663,59.5323 60.7663,63.5323 59.5,67.5C 59.1667,67.5 58.8333,67.5 58.5,67.5C 59.4675,64.5547 59.6342,61.5547 59,58.5C 58.3292,57.7476 57.4959,57.4142 56.5,57.5C 56.9731,56.0937 57.9731,55.427 59.5,55.5 Z"/></g>
<g><path style="opacity:1" fill="#f0b690" d="M 70.5,59.5 C 69.8333,59.5 69.5,59.8333 69.5,60.5C 68.8333,62.1667 68.1667,63.8333 67.5,65.5C 67.0269,64.0937 66.0269,63.427 64.5,63.5C 64.5,62.5 64.5,61.5 64.5,60.5C 66.0245,59.8262 67.3578,58.8262 68.5,57.5C 69.5223,57.8555 70.189,58.5222 70.5,59.5 Z"/></g>
<g><path style="opacity:1" fill="#ebc178" d="M 69.5,60.5 C 69.5,59.8333 69.8333,59.5 70.5,59.5C 71.8333,60.5 73.1667,61.5 74.5,62.5C 74.427,64.0269 75.0937,65.0269 76.5,65.5C 76.5774,66.7498 77.244,67.5831 78.5,68C 77.6266,69.045 76.6266,69.8783 75.5,70.5C 75.1039,67.279 73.7705,64.6123 71.5,62.5C 71.1667,61.5 70.5,60.8333 69.5,60.5 Z"/></g>
<g><path style="opacity:1" fill="#cd897a" d="M 76.5,61.5 C 77.4725,63.1392 78.8058,64.4726 80.5,65.5C 81.7175,66.1614 83.0508,66.8281 84.5,67.5C 84.1445,68.5223 83.4778,69.189 82.5,69.5C 80.9995,67.6342 78.9995,66.3008 76.5,65.5C 75.0937,65.0269 74.427,64.0269 74.5,62.5C 75.9245,64.0311 76.5912,63.6977 76.5,61.5 Z"/></g>
<g><path style="opacity:1" fill="#539a9c" d="M 13.5,61.5 C 14.3382,61.8417 14.6716,62.5084 14.5,63.5C 12.6208,64.3414 10.6208,64.6747 8.5,64.5C 7.83333,64.1667 7.16667,63.8333 6.5,63.5C 6.5,63.1667 6.5,62.8333 6.5,62.5C 8.86105,62.3259 11.1944,61.9926 13.5,61.5 Z"/></g>
<g><path style="opacity:1" fill="#9b643b" d="M 19.5,58.5 C 20.1667,58.5 20.8333,58.5 21.5,58.5C 21.6941,61.3297 22.3608,63.9963 23.5,66.5C 23.5,67.1667 23.1667,67.5 22.5,67.5C 22.1075,65.7162 21.4408,64.0495 20.5,62.5C 20.1583,61.6618 19.4916,61.3284 18.5,61.5C 19.1098,60.609 19.4431,59.609 19.5,58.5 Z"/></g>
<g><path style="opacity:1" fill="#ac5d3f" d="M 55.5,61.5 C 55.5,62.8333 55.5,64.1667 55.5,65.5C 54.5,65.5 53.5,65.5 52.5,65.5C 52.5,64.8333 52.5,64.1667 52.5,63.5C 52.9731,62.0937 53.9731,61.427 55.5,61.5 Z"/></g>
<g><path style="opacity:1" fill="#b9897c" d="M 69.5,60.5 C 70.5,60.8333 71.1667,61.5 71.5,62.5C 69.8235,63.1834 69.1568,64.5168 69.5,66.5C 69.615,68.9468 70.615,70.9468 72.5,72.5C 70.2254,71.8888 68.5588,70.5554 67.5,68.5C 66.1667,67.5 66.1667,66.5 67.5,65.5C 68.1667,63.8333 68.8333,62.1667 69.5,60.5 Z"/></g>
<g><path style="opacity:1" fill="#3b5676" d="M 80.5,60.5 C 81.391,61.1098 82.391,61.4431 83.5,61.5C 84.1667,61.5 84.8333,61.5 85.5,61.5C 86.5,61.5 87.5,61.5 88.5,61.5C 88.5,62.5 88.5,63.5 88.5,64.5C 85.8127,64.6641 83.146,64.4974 80.5,64C 79.3157,62.8545 79.3157,61.6879 80.5,60.5 Z"/></g>
<g><path style="opacity:1" fill="#cc5d2d" d="M 18.5,61.5 C 19.4916,61.3284 20.1583,61.6618 20.5,62.5C 16.9528,64.196 16.9528,66.196 20.5,68.5C 20.5,68.8333 20.5,69.1667 20.5,69.5C 21.1229,72.854 22.7896,73.854 25.5,72.5C 26.1667,72.5 26.8333,72.5 27.5,72.5C 27.5,72.8333 27.5,73.1667 27.5,73.5C 26.8333,73.5 26.5,73.8333 26.5,74.5C 25.2794,75.0283 24.1127,75.695 23,76.5C 22.0513,74.9069 20.8846,73.5736 19.5,72.5C 19.2503,70.326 18.2503,68.6594 16.5,67.5C 16.4431,66.391 16.1098,65.391 15.5,64.5C 15.8102,62.8564 16.8102,61.8564 18.5,61.5 Z"/></g>
<g><path style="opacity:1" fill="#78b0b4" d="M 21.5,58.5 C 22.1667,58.5 22.8333,58.5 23.5,58.5C 24.1667,58.5 24.8333,58.5 25.5,58.5C 25.5,58.8333 25.5,59.1667 25.5,59.5C 24.1667,60.5 24.1667,61.5 25.5,62.5C 25.5,63.8333 25.5,65.1667 25.5,66.5C 25.5,66.8333 25.5,67.1667 25.5,67.5C 24.8333,67.1667 24.1667,66.8333 23.5,66.5C 22.3608,63.9963 21.6941,61.3297 21.5,58.5 Z"/></g>
<g><path style="opacity:1" fill="#4c426c" d="M 32.5,60.5 C 33.8333,60.5 34.5,61.1667 34.5,62.5C 35.4411,64.7721 36.7745,66.7721 38.5,68.5C 38.4431,69.609 38.1098,70.609 37.5,71.5C 36.6146,67.63 35.2813,67.63 33.5,71.5C 34.3398,72.735 35.3398,73.735 36.5,74.5C 35.1667,74.5 33.8333,74.5 32.5,74.5C 32.7148,72.8212 32.0481,71.8212 30.5,71.5C 30.5,70.8333 30.5,70.1667 30.5,69.5C 33.2714,67.2783 32.938,65.4449 29.5,64C 29.7284,63.6012 30.0618,63.4346 30.5,63.5C 32.0481,63.1788 32.7148,62.1788 32.5,60.5 Z"/></g>
<g><path style="opacity:1" fill="#79334e" d="M 56.5,60.5 C 58.3302,63.978 57.3302,66.3114 53.5,67.5C 53.1667,67.5 52.8333,67.5 52.5,67.5C 52.5,66.8333 52.5,66.1667 52.5,65.5C 53.5,65.5 54.5,65.5 55.5,65.5C 55.5,64.1667 55.5,62.8333 55.5,61.5C 56.1667,61.5 56.5,61.1667 56.5,60.5 Z"/></g>
<g><path style="opacity:1" fill="#f2313f" d="M 63.5,57.5 C 64.1098,58.391 64.4431,59.391 64.5,60.5C 64.5,61.5 64.5,62.5 64.5,63.5C 64.634,65.2915 64.3007,66.9582 63.5,68.5C 62.1667,64.8333 62.1667,61.1667 63.5,57.5 Z"/></g>
<g><path style="opacity:1" fill="#b0d9c6" d="M 6.5,63.5 C 7.16667,63.8333 7.83333,64.1667 8.5,64.5C 8.62867,66.2161 8.962,67.8828 9.5,69.5C 9.16667,69.5 8.83333,69.5 8.5,69.5C 6.79882,68.4755 5.46549,66.9755 4.5,65C 4.83611,63.9701 5.50278,63.4701 6.5,63.5 Z"/></g>
<g><path style="opacity:1" fill="#57a9a9" d="M 14.5,63.5 C 14.5,64.1667 14.8333,64.5 15.5,64.5C 16.1098,65.391 16.4431,66.391 16.5,67.5C 15.791,68.404 14.791,68.7373 13.5,68.5C 12.1667,68.8333 10.8333,69.1667 9.5,69.5C 8.962,67.8828 8.62867,66.2161 8.5,64.5C 10.6208,64.6747 12.6208,64.3414 14.5,63.5 Z"/></g>
<g><path style="opacity:1" fill="#6c737f" d="M 28.5,62.5 C 29.4916,62.3284 30.1583,62.6618 30.5,63.5C 30.0618,63.4346 29.7284,63.6012 29.5,64C 32.938,65.4449 33.2714,67.2783 30.5,69.5C 29.391,69.4431 28.391,69.1098 27.5,68.5C 27.2053,66.2646 27.5386,64.2646 28.5,62.5 Z"/></g>
<g><path style="opacity:1" fill="#6e2141" d="M 52.5,63.5 C 52.5,64.1667 52.5,64.8333 52.5,65.5C 52.5,66.1667 52.5,66.8333 52.5,67.5C 50.7376,66.7377 49.7376,65.4044 49.5,63.5C 49.4326,62.0413 49.7659,60.7079 50.5,59.5C 50.5,58.8333 50.8333,58.5 51.5,58.5C 52.3635,57.537 53.0302,57.537 53.5,58.5C 52.8333,59.8333 52.1667,61.1667 51.5,62.5C 51.6236,63.1067 51.9569,63.44 52.5,63.5 Z"/></g>
<g><path style="opacity:1" fill="#76d0c4" d="M 0.5,62.5 C 1.5,62.5 2.5,62.5 3.5,62.5C 3.63015,65.3748 3.29682,68.3748 2.5,71.5C 2.16667,71.5 1.83333,71.5 1.5,71.5C 0.841278,68.5448 0.507945,65.5448 0.5,62.5 Z"/></g>
<g><path style="opacity:1" fill="#4a2853" d="M 20.5,62.5 C 21.4408,64.0495 22.1075,65.7162 22.5,67.5C 21.5084,67.3284 20.8417,67.6618 20.5,68.5C 16.9528,66.196 16.9528,64.196 20.5,62.5 Z"/></g>
<g><path style="opacity:1" fill="#351e3f" d="M 43.5,59.5 C 44.3382,59.8417 44.6716,60.5084 44.5,61.5C 44.5,64.1667 44.5,66.8333 44.5,69.5C 44.6716,70.4916 44.3382,71.1583 43.5,71.5C 42.5863,68.272 42.2529,64.9387 42.5,61.5C 42.3284,60.5084 42.6618,59.8417 43.5,59.5 Z"/></g>
<g><path style="opacity:1" fill="#61273e" d="M 59.5,55.5 C 60.5,55.5 61.5,55.5 62.5,55.5C 63.1667,55.5 63.5,55.8333 63.5,56.5C 61.7397,59.7006 60.9064,63.3673 61,67.5C 60.6174,68.056 60.1174,68.3893 59.5,68.5C 59.5,68.1667 59.5,67.8333 59.5,67.5C 60.7663,63.5323 60.7663,59.5323 59.5,55.5 Z"/></g>
<g><path style="opacity:1" fill="#ec5846" d="M 71.5,62.5 C 72.9279,65.0116 73.4279,67.6783 73,70.5C 71.5952,69.2695 70.4286,67.9361 69.5,66.5C 69.1568,64.5168 69.8235,63.1834 71.5,62.5 Z"/></g>
<g><path style="opacity:1" fill="#9c5f77" d="M 80.5,65.5 C 83.2469,65.1866 85.9135,65.52 88.5,66.5C 87.8728,67.4168 87.5394,68.4168 87.5,69.5C 86.8333,69.8333 86.1667,70.1667 85.5,70.5C 84.209,70.7373 83.209,70.404 82.5,69.5C 83.4778,69.189 84.1445,68.5223 84.5,67.5C 83.0508,66.8281 81.7175,66.1614 80.5,65.5 Z"/></g>
<g><path style="opacity:1" fill="#76c2b3" d="M 3.5,62.5 C 4.5,62.5 5.5,62.5 6.5,62.5C 6.5,62.8333 6.5,63.1667 6.5,63.5C 5.50278,63.4701 4.83611,63.9701 4.5,65C 5.46549,66.9755 6.79882,68.4755 8.5,69.5C 7.33985,71.2027 8.00651,71.8693 10.5,71.5C 10.5,72.5 10.5,73.5 10.5,74.5C 8.08757,74.756 6.42091,73.756 5.5,71.5C 4.74917,72.376 4.24917,73.376 4,74.5C 3.76791,73.2625 3.26791,72.2625 2.5,71.5C 3.29682,68.3748 3.63015,65.3748 3.5,62.5 Z"/></g>
<g><path style="opacity:1" fill="#884d48" d="M 23.5,66.5 C 24.1667,66.8333 24.8333,67.1667 25.5,67.5C 25.8925,69.2838 26.5592,70.9505 27.5,72.5C 26.8333,72.5 26.1667,72.5 25.5,72.5C 24.938,69.2266 23.2713,68.2266 20.5,69.5C 20.5,69.1667 20.5,68.8333 20.5,68.5C 20.8417,67.6618 21.5084,67.3284 22.5,67.5C 23.1667,67.5 23.5,67.1667 23.5,66.5 Z"/></g>
<g><path style="opacity:1" fill="#b97466" d="M 39.5,60.5 C 40.1667,61.8333 40.8333,63.1667 41.5,64.5C 41.7852,66.288 41.4519,67.9547 40.5,69.5C 39.8165,69.1373 39.1499,68.8039 38.5,68.5C 36.7745,66.7721 35.4411,64.7721 34.5,62.5C 35.1667,62.5 35.8333,62.5 36.5,62.5C 37.0059,64.1054 37.6726,64.4387 38.5,63.5C 39.404,62.791 39.7373,61.791 39.5,60.5 Z"/></g>
<g><path style="opacity:1" fill="#488a99" d="M 48.5,58.5 C 49.1667,58.8333 49.8333,59.1667 50.5,59.5C 49.7659,60.7079 49.4326,62.0413 49.5,63.5C 48.596,64.209 48.2627,65.209 48.5,66.5C 46.8356,67.9488 46.0023,69.9488 46,72.5C 45.7679,71.2625 45.2679,70.2625 44.5,69.5C 44.5,66.8333 44.5,64.1667 44.5,61.5C 44.8333,61.5 45.1667,61.5 45.5,61.5C 45.3505,62.552 45.5172,63.552 46,64.5C 46.9383,62.5115 47.7717,60.5115 48.5,58.5 Z"/></g>
<g><path style="opacity:1" fill="#c81f3b" d="M 63.5,56.5 C 63.5,56.8333 63.5,57.1667 63.5,57.5C 62.1667,61.1667 62.1667,64.8333 63.5,68.5C 63.1667,69.5 62.5,70.1667 61.5,70.5C 60.209,70.7373 59.209,70.404 58.5,69.5C 58.5,68.8333 58.8333,68.5 59.5,68.5C 60.1174,68.3893 60.6174,68.056 61,67.5C 60.9064,63.3673 61.7397,59.7006 63.5,56.5 Z"/></g>
<g><path style="opacity:0.655" fill="#364a46" d="M -0.5,62.5 C -0.166667,62.5 0.166667,62.5 0.5,62.5C 0.507945,65.5448 0.841278,68.5448 1.5,71.5C 0.833333,70.8333 0.166667,70.1667 -0.5,69.5C -0.5,67.1667 -0.5,64.8333 -0.5,62.5 Z"/></g>
<g><path style="opacity:1" fill="#7c5861" d="M 42.5,61.5 C 42.2529,64.9387 42.5863,68.272 43.5,71.5C 43.5,72.1667 43.1667,72.5 42.5,72.5C 42.1667,72.5 41.8333,72.5 41.5,72.5C 40.7081,70.2552 39.3747,69.9219 37.5,71.5C 38.1098,70.609 38.4431,69.609 38.5,68.5C 39.1499,68.8039 39.8165,69.1373 40.5,69.5C 41.4519,67.9547 41.7852,66.288 41.5,64.5C 41.2627,63.209 41.596,62.209 42.5,61.5 Z"/></g>
<g><path style="opacity:1" fill="#51183c" d="M 49.5,63.5 C 49.7376,65.4044 50.7376,66.7377 52.5,67.5C 52.8333,67.5 53.1667,67.5 53.5,67.5C 53.3691,68.3764 53.7025,69.0431 54.5,69.5C 55.8599,68.8201 57.1932,68.1534 58.5,67.5C 58.8333,67.5 59.1667,67.5 59.5,67.5C 59.5,67.8333 59.5,68.1667 59.5,68.5C 58.8333,68.5 58.5,68.8333 58.5,69.5C 56.2433,69.9617 54.2433,70.9617 52.5,72.5C 52.9569,73.2975 53.6236,73.6309 54.5,73.5C 54.5,73.8333 54.5,74.1667 54.5,74.5C 54.5,74.8333 54.5,75.1667 54.5,75.5C 53.6618,75.8417 53.3284,76.5084 53.5,77.5C 53.1667,77.5 52.8333,77.5 52.5,77.5C 52.3738,76.561 52.0405,75.561 51.5,74.5C 50.5,71.8333 49.5,69.1667 48.5,66.5C 48.2627,65.209 48.596,64.209 49.5,63.5 Z"/></g>
<g><path style="opacity:1" fill="#d49081" d="M 64.5,63.5 C 66.0269,63.427 67.0269,64.0937 67.5,65.5C 66.1667,66.5 66.1667,67.5 67.5,68.5C 67.393,70.9032 68.393,72.7365 70.5,74C 70,74.1667 69.5,74.3333 69,74.5C 67.8319,73.4911 66.6652,72.4911 65.5,71.5C 64.8933,71.6236 64.56,71.9569 64.5,72.5C 64.5654,72.9382 64.3988,73.2716 64,73.5C 63.5831,72.244 62.7498,71.5774 61.5,71.5C 61.5,71.1667 61.5,70.8333 61.5,70.5C 62.5,70.1667 63.1667,69.5 63.5,68.5C 64.3007,66.9582 64.634,65.2915 64.5,63.5 Z"/></g>
<g><path style="opacity:1" fill="#42657a" d="M 16.5,67.5 C 18.2503,68.6594 19.2503,70.326 19.5,72.5C 17.0462,73.2271 14.7128,74.2271 12.5,75.5C 12.1667,75.5 11.8333,75.5 11.5,75.5C 12.1408,74.5178 12.8075,73.5178 13.5,72.5C 12.1931,71.135 12.1931,69.8016 13.5,68.5C 14.791,68.7373 15.791,68.404 16.5,67.5 Z"/></g>
<g><path style="opacity:1" fill="#596f82" d="M 25.5,66.5 C 26.1667,67.1667 26.8333,67.8333 27.5,68.5C 28.391,69.1098 29.391,69.4431 30.5,69.5C 30.5,70.1667 30.5,70.8333 30.5,71.5C 29.7611,71.369 29.0944,71.5357 28.5,72C 29.7383,72.69 29.7383,73.19 28.5,73.5C 28.1667,73.5 27.8333,73.5 27.5,73.5C 27.5,73.1667 27.5,72.8333 27.5,72.5C 26.5592,70.9505 25.8925,69.2838 25.5,67.5C 25.5,67.1667 25.5,66.8333 25.5,66.5 Z"/></g>
<g><path style="opacity:1" fill="#b03d4f" d="M 58.5,69.5 C 59.209,70.404 60.209,70.7373 61.5,70.5C 61.5,70.8333 61.5,71.1667 61.5,71.5C 59.4727,71.3379 57.4727,71.5045 55.5,72C 54.944,72.3826 54.6107,72.8826 54.5,73.5C 53.6236,73.6309 52.9569,73.2975 52.5,72.5C 54.2433,70.9617 56.2433,69.9617 58.5,69.5 Z"/></g>
<g><path style="opacity:1" fill="#4d2a4b" d="M 25.5,72.5 C 22.7896,73.854 21.1229,72.854 20.5,69.5C 23.2713,68.2266 24.938,69.2266 25.5,72.5 Z"/></g>
<g><path style="opacity:1" fill="#66324f" d="M 71.5,62.5 C 73.7705,64.6123 75.1039,67.279 75.5,70.5C 75.6107,71.1174 75.944,71.6174 76.5,72C 75.2068,72.49 73.8734,72.6567 72.5,72.5C 70.615,70.9468 69.615,68.9468 69.5,66.5C 70.4286,67.9361 71.5952,69.2695 73,70.5C 73.4279,67.6783 72.9279,65.0116 71.5,62.5 Z"/></g>
<g><path style="opacity:1" fill="#429096" d="M 13.5,68.5 C 12.1931,69.8016 12.1931,71.135 13.5,72.5C 12.8075,73.5178 12.1408,74.5178 11.5,75.5C 11.1667,75.5 10.8333,75.5 10.5,75.5C 10.5,75.1667 10.5,74.8333 10.5,74.5C 10.5,73.5 10.5,72.5 10.5,71.5C 8.00651,71.8693 7.33985,71.2027 8.5,69.5C 8.83333,69.5 9.16667,69.5 9.5,69.5C 10.8333,69.1667 12.1667,68.8333 13.5,68.5 Z"/></g>
<g><path style="opacity:1" fill="#575d6c" d="M 30.5,71.5 C 32.0481,71.8212 32.7148,72.8212 32.5,74.5C 32.5,74.8333 32.5,75.1667 32.5,75.5C 31.8333,75.5 31.5,75.8333 31.5,76.5C 30.1667,75.8333 29.1667,74.8333 28.5,73.5C 29.7383,73.19 29.7383,72.69 28.5,72C 29.0944,71.5357 29.7611,71.369 30.5,71.5 Z"/></g>
<g><path style="opacity:1" fill="#7f7576" d="M 37.5,71.5 C 37.9528,72.4584 38.6195,73.2917 39.5,74C 38.552,74.4828 37.552,74.6495 36.5,74.5C 35.3398,73.735 34.3398,72.735 33.5,71.5C 35.2813,67.63 36.6146,67.63 37.5,71.5 Z"/></g>
<g><path style="opacity:1" fill="#33284c" d="M 41.5,72.5 C 41.5,73.5 41.5,74.5 41.5,75.5C 40.5,75.5 39.5,75.5 38.5,75.5C 36.5,75.5 34.5,75.5 32.5,75.5C 32.5,75.1667 32.5,74.8333 32.5,74.5C 33.8333,74.5 35.1667,74.5 36.5,74.5C 37.552,74.6495 38.552,74.4828 39.5,74C 38.6195,73.2917 37.9528,72.4584 37.5,71.5C 39.3747,69.9219 40.7081,70.2552 41.5,72.5 Z"/></g>
<g><path style="opacity:1" fill="#865c64" d="M 76.5,65.5 C 78.9995,66.3008 80.9995,67.6342 82.5,69.5C 83.209,70.404 84.209,70.7373 85.5,70.5C 83.2883,73.3577 80.2883,74.691 76.5,74.5C 76.1667,74.5 75.8333,74.5 75.5,74.5C 73.9731,74.573 72.9731,73.9063 72.5,72.5C 73.8734,72.6567 75.2068,72.49 76.5,72C 75.944,71.6174 75.6107,71.1174 75.5,70.5C 76.6266,69.8783 77.6266,69.045 78.5,68C 77.244,67.5831 76.5774,66.7498 76.5,65.5 Z"/></g>
<g><path style="opacity:1" fill="#4f8683" d="M 1.5,71.5 C 1.83333,71.5 2.16667,71.5 2.5,71.5C 3.26791,72.2625 3.76791,73.2625 4,74.5C 4.24917,73.376 4.74917,72.376 5.5,71.5C 6.42091,73.756 8.08757,74.756 10.5,74.5C 10.5,74.8333 10.5,75.1667 10.5,75.5C 8.16667,75.5 5.83333,75.5 3.5,75.5C 2.65536,74.3285 1.98869,72.9952 1.5,71.5 Z"/></g>
<g><path style="opacity:1" fill="#343a5e" d="M 48.5,66.5 C 49.5,69.1667 50.5,71.8333 51.5,74.5C 49.5214,76.1675 47.188,76.8342 44.5,76.5C 44.9175,75.7784 45.5842,75.2784 46.5,75C 45.1416,74.0656 43.8083,73.2323 42.5,72.5C 43.1667,72.5 43.5,72.1667 43.5,71.5C 44.3382,71.1583 44.6716,70.4916 44.5,69.5C 45.2679,70.2625 45.7679,71.2625 46,72.5C 46.0023,69.9488 46.8356,67.9488 48.5,66.5 Z"/></g>
<g><path style="opacity:1" fill="#b88371" d="M 61.5,71.5 C 62.7498,71.5774 63.5831,72.244 64,73.5C 64.3988,73.2716 64.5654,72.9382 64.5,72.5C 65.3382,72.8417 65.6716,73.5084 65.5,74.5C 61.8333,74.5 58.1667,74.5 54.5,74.5C 54.5,74.1667 54.5,73.8333 54.5,73.5C 54.6107,72.8826 54.944,72.3826 55.5,72C 57.4727,71.5045 59.4727,71.3379 61.5,71.5 Z"/></g>
<g><path style="opacity:1" fill="#4b6c7f" d="M 19.5,72.5 C 19.5569,73.609 19.8902,74.609 20.5,75.5C 18.6115,76.604 16.9448,77.9373 15.5,79.5C 14.5084,79.6716 13.8417,79.3382 13.5,78.5C 13.6716,77.5084 13.3382,76.8417 12.5,76.5C 12.5,76.1667 12.5,75.8333 12.5,75.5C 14.7128,74.2271 17.0462,73.2271 19.5,72.5 Z"/></g>
<g><path style="opacity:1" fill="#644e66" d="M 67.5,68.5 C 68.5588,70.5554 70.2254,71.8888 72.5,72.5C 72.9731,73.9063 73.9731,74.573 75.5,74.5C 75.5,74.8333 75.5,75.1667 75.5,75.5C 72.5,75.5 69.5,75.5 66.5,75.5C 66.5,74.8333 66.1667,74.5 65.5,74.5C 65.6716,73.5084 65.3382,72.8417 64.5,72.5C 64.56,71.9569 64.8933,71.6236 65.5,71.5C 66.6652,72.4911 67.8319,73.4911 69,74.5C 69.5,74.3333 70,74.1667 70.5,74C 68.393,72.7365 67.393,70.9032 67.5,68.5 Z"/></g>
<g><path style="opacity:1" fill="#36365f" d="M 41.5,72.5 C 41.8333,72.5 42.1667,72.5 42.5,72.5C 43.8083,73.2323 45.1416,74.0656 46.5,75C 45.5842,75.2784 44.9175,75.7784 44.5,76.5C 42.2646,76.7947 40.2646,76.4614 38.5,75.5C 39.5,75.5 40.5,75.5 41.5,75.5C 41.5,74.5 41.5,73.5 41.5,72.5 Z"/></g>
<g><path style="opacity:1" fill="#491d46" d="M 66.5,75.5 C 69.5,75.5 72.5,75.5 75.5,75.5C 75.8333,76.1667 76.1667,76.8333 76.5,77.5C 75.5,77.5 74.5,77.5 73.5,77.5C 73.5,78.8333 73.5,80.1667 73.5,81.5C 73.1667,81.5 72.8333,81.5 72.5,81.5C 72.5,80.1667 72.5,78.8333 72.5,77.5C 70.4727,77.3379 68.4727,77.5045 66.5,78C 65.944,78.3826 65.6107,78.8826 65.5,79.5C 65.1667,79.5 64.8333,79.5 64.5,79.5C 64.5271,77.8007 65.1938,76.4674 66.5,75.5 Z"/></g>
<g><path style="opacity:1" fill="#558586" d="M 3.5,75.5 C 5.83333,75.5 8.16667,75.5 10.5,75.5C 10.8333,75.5 11.1667,75.5 11.5,75.5C 11.8333,75.5 12.1667,75.5 12.5,75.5C 12.5,75.8333 12.5,76.1667 12.5,76.5C 11.1667,76.5 10.5,77.1667 10.5,78.5C 9.89992,79.9002 8.89992,80.9002 7.5,81.5C 5.6736,79.8525 4.34026,77.8525 3.5,75.5 Z"/></g>
<g><path style="opacity:1" fill="#e2e9c4" d="M 12.5,76.5 C 13.3382,76.8417 13.6716,77.5084 13.5,78.5C 12.3478,79.625 11.3478,79.625 10.5,78.5C 10.5,77.1667 11.1667,76.5 12.5,76.5 Z"/></g>
<g><path style="opacity:1" fill="#583347" d="M 51.5,74.5 C 52.0405,75.561 52.3738,76.561 52.5,77.5C 52.5,77.8333 52.5,78.1667 52.5,78.5C 50.9731,78.427 49.9731,79.0937 49.5,80.5C 48.8333,80.5 48.1667,80.5 47.5,80.5C 47.5,80.1667 47.5,79.8333 47.5,79.5C 45.1524,78.0483 42.4857,77.3817 39.5,77.5C 37.6307,77.5068 35.964,77.8401 34.5,78.5C 34.1667,78.5 33.8333,78.5 33.5,78.5C 32.8333,77.8333 32.1667,77.1667 31.5,76.5C 31.5,75.8333 31.8333,75.5 32.5,75.5C 34.5,75.5 36.5,75.5 38.5,75.5C 40.2646,76.4614 42.2646,76.7947 44.5,76.5C 47.188,76.8342 49.5214,76.1675 51.5,74.5 Z"/></g>
<g><path style="opacity:1" fill="#7c3f60" d="M 54.5,75.5 C 54.5,75.1667 54.5,74.8333 54.5,74.5C 58.1667,74.5 61.8333,74.5 65.5,74.5C 66.1667,74.5 66.5,74.8333 66.5,75.5C 65.1938,76.4674 64.5271,77.8007 64.5,79.5C 64.631,80.2389 64.4643,80.9056 64,81.5C 63.7996,79.6803 62.9663,78.347 61.5,77.5C 59.4418,76.0669 57.1085,75.4003 54.5,75.5 Z"/></g>
<g><path style="opacity:1" fill="#953734" d="M 80.5,75.5 C 80.8333,75.5 81.1667,75.5 81.5,75.5C 83.8333,75.5 86.1667,75.5 88.5,75.5C 88.5,76.8333 88.5,78.1667 88.5,79.5C 85.2869,79.19 82.2869,79.5233 79.5,80.5C 79.1667,80.5 78.8333,80.5 78.5,80.5C 78.3653,78.4458 79.032,76.7791 80.5,75.5 Z"/></g>
<g><path style="opacity:1" fill="#50707e" d="M 20.5,75.5 C 21.1098,76.391 21.4431,77.391 21.5,78.5C 20.0552,80.0627 18.3885,81.396 16.5,82.5C 15.8902,81.609 15.5569,80.609 15.5,79.5C 16.9448,77.9373 18.6115,76.604 20.5,75.5 Z"/></g>
<g><path style="opacity:1" fill="#444d69" d="M 19.5,72.5 C 20.8846,73.5736 22.0513,74.9069 23,76.5C 24.1127,75.695 25.2794,75.0283 26.5,74.5C 27.404,75.209 27.7373,76.209 27.5,77.5C 27.573,79.0269 26.9063,80.0269 25.5,80.5C 24.3951,79.3995 23.0618,78.7329 21.5,78.5C 21.4431,77.391 21.1098,76.391 20.5,75.5C 19.8902,74.609 19.5569,73.609 19.5,72.5 Z"/></g>
<g><path style="opacity:1" fill="#505a72" d="M 27.5,77.5 C 28.675,77.281 29.675,77.6143 30.5,78.5C 29.8728,79.4168 29.5394,80.4168 29.5,81.5C 28.5291,82.9621 28.8624,84.2954 30.5,85.5C 29.6618,85.8417 29.3284,86.5084 29.5,87.5C 28.8333,86.5 28.1667,85.5 27.5,84.5C 27.0679,83.2905 26.4013,82.2905 25.5,81.5C 25.5,81.1667 25.5,80.8333 25.5,80.5C 26.9063,80.0269 27.573,79.0269 27.5,77.5 Z"/></g>
<g><path style="opacity:1" fill="#943c3e" d="M 32.5,79.5 C 32.5,78.8333 32.8333,78.5 33.5,78.5C 33.8333,78.5 34.1667,78.5 34.5,78.5C 37.5184,78.3354 40.5184,78.502 43.5,79C 41.6183,79.1981 39.9516,79.6981 38.5,80.5C 37.8501,80.8039 37.1835,81.1373 36.5,81.5C 35.7348,80.3881 34.7348,79.7214 33.5,79.5C 33.1667,79.5 32.8333,79.5 32.5,79.5 Z"/></g>
<g><path style="opacity:1" fill="#995c6d" d="M 61.5,77.5 C 62.9663,78.347 63.7996,79.6803 64,81.5C 64.4643,80.9056 64.631,80.2389 64.5,79.5C 64.8333,79.5 65.1667,79.5 65.5,79.5C 66.5,79.8333 67.1667,80.5 67.5,81.5C 66.1667,82.1667 64.8333,82.8333 63.5,83.5C 62.0413,83.4326 60.7079,83.7659 59.5,84.5C 59.5,84.1667 59.5,83.8333 59.5,83.5C 59.5,83.1667 59.5,82.8333 59.5,82.5C 61.2132,81.3646 61.8799,79.698 61.5,77.5 Z"/></g>
<g><path style="opacity:1" fill="#68527c" d="M 72.5,81.5 C 70.8333,81.5 69.1667,81.5 67.5,81.5C 67.1667,80.5 66.5,79.8333 65.5,79.5C 65.6107,78.8826 65.944,78.3826 66.5,78C 68.4727,77.5045 70.4727,77.3379 72.5,77.5C 72.5,78.8333 72.5,80.1667 72.5,81.5 Z"/></g>
<g><path style="opacity:1" fill="#362539" d="M 75.5,74.5 C 75.8333,74.5 76.1667,74.5 76.5,74.5C 77.5676,75.4345 78.901,75.7678 80.5,75.5C 79.032,76.7791 78.3653,78.4458 78.5,80.5C 77.6618,80.8417 77.3284,81.5084 77.5,82.5C 76.5084,82.6716 75.8417,82.3382 75.5,81.5C 76.2341,80.2921 76.5674,78.9587 76.5,77.5C 76.1667,76.8333 75.8333,76.1667 75.5,75.5C 75.5,75.1667 75.5,74.8333 75.5,74.5 Z"/></g>
<g><path style="opacity:0.431" fill="#121313" d="M 81.5,75.5 C 84.2869,74.5233 87.2869,74.19 90.5,74.5C 90.8016,77.0593 90.4682,79.3926 89.5,81.5C 89.7947,79.2646 89.4614,77.2646 88.5,75.5C 86.1667,75.5 83.8333,75.5 81.5,75.5 Z"/></g>
<g><path style="opacity:1" fill="#3a3659" d="M 26.5,74.5 C 26.5,73.8333 26.8333,73.5 27.5,73.5C 27.8333,73.5 28.1667,73.5 28.5,73.5C 29.1667,74.8333 30.1667,75.8333 31.5,76.5C 32.1667,77.1667 32.8333,77.8333 33.5,78.5C 32.8333,78.5 32.5,78.8333 32.5,79.5C 31.5,80.1667 30.5,80.8333 29.5,81.5C 29.5394,80.4168 29.8728,79.4168 30.5,78.5C 29.675,77.6143 28.675,77.281 27.5,77.5C 27.7373,76.209 27.404,75.209 26.5,74.5 Z"/></g>
<g><path style="opacity:1" fill="#612f3c" d="M 34.5,78.5 C 35.964,77.8401 37.6307,77.5068 39.5,77.5C 42.4857,77.3817 45.1524,78.0483 47.5,79.5C 44.5362,81.4474 41.5362,83.4474 38.5,85.5C 39.4756,84.1851 40.4756,82.8518 41.5,81.5C 41.0431,80.7025 40.3764,80.3691 39.5,80.5C 39.1667,80.5 38.8333,80.5 38.5,80.5C 39.9516,79.6981 41.6183,79.1981 43.5,79C 40.5184,78.502 37.5184,78.3354 34.5,78.5 Z"/></g>
<g><path style="opacity:1" fill="#5e426a" d="M 54.5,75.5 C 57.1085,75.4003 59.4418,76.0669 61.5,77.5C 61.8799,79.698 61.2132,81.3646 59.5,82.5C 57.6214,82.6068 57.2881,82.1068 58.5,81C 57.4911,78.8282 55.8244,77.6615 53.5,77.5C 53.3284,76.5084 53.6618,75.8417 54.5,75.5 Z"/></g>
<g><path style="opacity:1" fill="#c25046" d="M 76.5,77.5 C 76.5674,78.9587 76.2341,80.2921 75.5,81.5C 74.8333,81.5 74.1667,81.5 73.5,81.5C 73.5,80.1667 73.5,78.8333 73.5,77.5C 74.5,77.5 75.5,77.5 76.5,77.5 Z"/></g>
<g><path style="opacity:1" fill="#7f3337" d="M 88.5,75.5 C 89.4614,77.2646 89.7947,79.2646 89.5,81.5C 89.1667,81.5 88.8333,81.5 88.5,81.5C 85.3915,81.7359 82.3915,81.4025 79.5,80.5C 82.2869,79.5233 85.2869,79.19 88.5,79.5C 88.5,78.1667 88.5,76.8333 88.5,75.5 Z"/></g>
<g><path style="opacity:1" fill="#475272" d="M 23.5,83.5 C 22.5,84.1667 21.5,84.8333 20.5,85.5C 18.5168,85.8432 17.1834,85.1765 16.5,83.5C 18.9032,83.607 20.7365,82.607 22,80.5C 22.5133,81.5266 23.0133,82.5266 23.5,83.5 Z"/></g>
<g><path style="opacity:1" fill="#4d5a76" d="M 21.5,78.5 C 23.0618,78.7329 24.3951,79.3995 25.5,80.5C 25.5,80.8333 25.5,81.1667 25.5,81.5C 25.1667,82.5 24.5,83.1667 23.5,83.5C 23.0133,82.5266 22.5133,81.5266 22,80.5C 20.7365,82.607 18.9032,83.607 16.5,83.5C 16.5,83.1667 16.5,82.8333 16.5,82.5C 18.3885,81.396 20.0552,80.0627 21.5,78.5 Z"/></g>
<g><path style="opacity:1" fill="#785b79" d="M 52.5,77.5 C 52.8333,77.5 53.1667,77.5 53.5,77.5C 55.8244,77.6615 57.4911,78.8282 58.5,81C 57.2881,82.1068 57.6214,82.6068 59.5,82.5C 59.5,82.8333 59.5,83.1667 59.5,83.5C 55.1672,84.3147 52.8338,82.648 52.5,78.5C 52.5,78.1667 52.5,77.8333 52.5,77.5 Z"/></g>
<g><path style="opacity:0.843" fill="#372e33" d="M 67.5,81.5 C 69.1667,81.5 70.8333,81.5 72.5,81.5C 72.8333,81.5 73.1667,81.5 73.5,81.5C 74.1667,81.5 74.8333,81.5 75.5,81.5C 75.8417,82.3382 76.5084,82.6716 77.5,82.5C 79.099,82.2322 80.4324,82.5655 81.5,83.5C 75.4915,82.2966 69.4915,82.2966 63.5,83.5C 64.8333,82.8333 66.1667,82.1667 67.5,81.5 Z"/></g>
<g><path style="opacity:1" fill="#d8592e" d="M 78.5,80.5 C 78.8333,80.5 79.1667,80.5 79.5,80.5C 82.3915,81.4025 85.3915,81.7359 88.5,81.5C 88.3893,82.1174 88.056,82.6174 87.5,83C 85.5273,83.4955 83.5273,83.6621 81.5,83.5C 80.4324,82.5655 79.099,82.2322 77.5,82.5C 77.3284,81.5084 77.6618,80.8417 78.5,80.5 Z"/></g>
<g><path style="opacity:1" fill="#568087" d="M 10.5,78.5 C 11.3478,79.625 12.3478,79.625 13.5,78.5C 13.8417,79.3382 14.5084,79.6716 15.5,79.5C 15.5569,80.609 15.8902,81.609 16.5,82.5C 16.5,82.8333 16.5,83.1667 16.5,83.5C 17.1834,85.1765 18.5168,85.8432 20.5,85.5C 20.5,85.8333 20.5,86.1667 20.5,86.5C 20.1667,86.5 19.8333,86.5 19.5,86.5C 17.2188,86.0773 15.5521,86.744 14.5,88.5C 11.8333,86.5 9.5,84.1667 7.5,81.5C 8.89992,80.9002 9.89992,79.9002 10.5,78.5 Z"/></g>
<g><path style="opacity:1" fill="#d58737" d="M 39.5,80.5 C 40.3764,80.3691 41.0431,80.7025 41.5,81.5C 40.4756,82.8518 39.4756,84.1851 38.5,85.5C 36.3193,85.7163 34.6526,84.883 33.5,83C 36.2154,84.1482 38.2154,83.3149 39.5,80.5 Z"/></g>
<g><path style="opacity:1" fill="#893e3c" d="M 47.5,79.5 C 47.5,79.8333 47.5,80.1667 47.5,80.5C 45.1667,82.1667 43.1667,84.1667 41.5,86.5C 39.5956,86.7376 38.2623,87.7376 37.5,89.5C 37.1667,89.5 36.8333,89.5 36.5,89.5C 36.5,88.8333 36.5,88.1667 36.5,87.5C 37.5,87.1667 38.1667,86.5 38.5,85.5C 41.5362,83.4474 44.5362,81.4474 47.5,79.5 Z"/></g>
<g><path style="opacity:1" fill="#e0af96" d="M 52.5,78.5 C 52.8338,82.648 55.1672,84.3147 59.5,83.5C 59.5,83.8333 59.5,84.1667 59.5,84.5C 57.6208,85.3414 55.6208,85.6747 53.5,85.5C 51.1667,85.1667 49.8333,83.8333 49.5,81.5C 49.5,81.1667 49.5,80.8333 49.5,80.5C 49.9731,79.0937 50.9731,78.427 52.5,78.5 Z"/></g>
<g><path style="opacity:1" fill="#4f2a48" d="M 33.5,79.5 C 34.7348,79.7214 35.7348,80.3881 36.5,81.5C 37.1835,81.1373 37.8501,80.8039 38.5,80.5C 38.8333,80.5 39.1667,80.5 39.5,80.5C 38.2154,83.3149 36.2154,84.1482 33.5,83C 34.6526,84.883 36.3193,85.7163 38.5,85.5C 38.1667,86.5 37.5,87.1667 36.5,87.5C 31.4869,86.1199 30.4869,83.4532 33.5,79.5 Z"/></g>
<g><path style="opacity:0.055" fill="#2e251c" d="M 88.5,81.5 C 88.8333,81.5 89.1667,81.5 89.5,81.5C 89.5858,82.4959 89.2524,83.3292 88.5,84C 85.9665,85.9336 83.6331,85.767 81.5,83.5C 83.5273,83.6621 85.5273,83.4955 87.5,83C 88.056,82.6174 88.3893,82.1174 88.5,81.5 Z"/></g>
<g><path style="opacity:1" fill="#d96c31" d="M 32.5,79.5 C 32.8333,79.5 33.1667,79.5 33.5,79.5C 30.4869,83.4532 31.4869,86.1199 36.5,87.5C 36.5,88.1667 36.5,88.8333 36.5,89.5C 34.2459,88.5849 32.2459,87.2516 30.5,85.5C 28.8624,84.2954 28.5291,82.9621 29.5,81.5C 30.5,80.8333 31.5,80.1667 32.5,79.5 Z"/></g>
<g><path style="opacity:1" fill="#3d285a" d="M 48.5,81.5 C 48.8333,81.5 49.1667,81.5 49.5,81.5C 49.8333,83.8333 51.1667,85.1667 53.5,85.5C 54.635,86.4745 55.635,87.6412 56.5,89C 55.9558,89.7172 55.2891,90.2172 54.5,90.5C 53.5714,89.0639 52.4048,87.7305 51,86.5C 50.3021,87.6906 49.4687,88.6906 48.5,89.5C 47.6618,89.8417 47.3284,90.5084 47.5,91.5C 46.8333,91.5 46.5,91.1667 46.5,90.5C 47.5778,87.5979 48.2444,84.5979 48.5,81.5 Z"/></g>
<g><path style="opacity:1" fill="#66adab" d="M 25.5,81.5 C 26.4013,82.2905 27.0679,83.2905 27.5,84.5C 27.0248,86.7837 26.0248,88.7837 24.5,90.5C 23.209,90.7373 22.209,90.404 21.5,89.5C 22.7152,88.221 22.3818,87.221 20.5,86.5C 20.5,86.1667 20.5,85.8333 20.5,85.5C 21.5,84.8333 22.5,84.1667 23.5,83.5C 24.5,83.1667 25.1667,82.5 25.5,81.5 Z"/></g>
<g><path style="opacity:1" fill="#4c4b74" d="M 47.5,80.5 C 48.1667,80.5 48.8333,80.5 49.5,80.5C 49.5,80.8333 49.5,81.1667 49.5,81.5C 49.1667,81.5 48.8333,81.5 48.5,81.5C 46.9348,83.5093 45.9348,85.8427 45.5,88.5C 44.5326,87.1938 43.1993,86.5271 41.5,86.5C 43.1667,84.1667 45.1667,82.1667 47.5,80.5 Z"/></g>
<g><path style="opacity:1" fill="#5a9498" d="M 27.5,84.5 C 28.1667,85.5 28.8333,86.5 29.5,87.5C 30.1667,88.5 30.8333,89.5 31.5,90.5C 30.7784,90.9175 30.2784,91.5842 30,92.5C 29.6174,91.944 29.1174,91.6107 28.5,91.5C 27.5,90.1667 26.5,90.1667 25.5,91.5C 24.8333,91.5 24.5,91.1667 24.5,90.5C 26.0248,88.7837 27.0248,86.7837 27.5,84.5 Z"/></g>
<g><path style="opacity:1" fill="#484470" d="M 30.5,85.5 C 32.2459,87.2516 34.2459,88.5849 36.5,89.5C 36.5,90.1667 36.5,90.8333 36.5,91.5C 35.0413,91.4326 33.7079,91.7659 32.5,92.5C 32.1667,91.8333 31.8333,91.1667 31.5,90.5C 30.8333,89.5 30.1667,88.5 29.5,87.5C 29.3284,86.5084 29.6618,85.8417 30.5,85.5 Z"/></g>
<g><path style="opacity:1" fill="#525678" d="M 41.5,86.5 C 43.1993,86.5271 44.5326,87.1938 45.5,88.5C 45.0113,89.9952 44.3446,91.3285 43.5,92.5C 43.1788,90.9519 42.1788,90.2852 40.5,90.5C 39.609,89.8902 38.609,89.5569 37.5,89.5C 38.2623,87.7376 39.5956,86.7376 41.5,86.5 Z"/></g>
<g><path style="opacity:1" fill="#392946" d="M 63.5,83.5 C 61.1002,86.9031 58.1002,89.5698 54.5,91.5C 54.5,91.1667 54.5,90.8333 54.5,90.5C 55.2891,90.2172 55.9558,89.7172 56.5,89C 55.635,87.6412 54.635,86.4745 53.5,85.5C 55.6208,85.6747 57.6208,85.3414 59.5,84.5C 60.7079,83.7659 62.0413,83.4326 63.5,83.5 Z"/></g>
<g><path style="opacity:1" fill="#6eb4aa" d="M 19.5,86.5 C 19.427,88.0269 20.0937,89.0269 21.5,89.5C 22.209,90.404 23.209,90.7373 24.5,90.5C 24.5,91.1667 24.8333,91.5 25.5,91.5C 25.5,91.8333 25.5,92.1667 25.5,92.5C 23.2398,92.397 20.9065,92.0637 18.5,91.5C 16.5956,91.2624 15.2623,90.2624 14.5,88.5C 15.5521,86.744 17.2188,86.0773 19.5,86.5 Z"/></g>
<g><path style="opacity:1" fill="#e8f0c3" d="M 19.5,86.5 C 19.8333,86.5 20.1667,86.5 20.5,86.5C 22.3818,87.221 22.7152,88.221 21.5,89.5C 20.0937,89.0269 19.427,88.0269 19.5,86.5 Z"/></g>
<g><path style="opacity:1" fill="#646f84" d="M 48.5,81.5 C 48.2444,84.5979 47.5778,87.5979 46.5,90.5C 45.6873,92.2608 44.6873,93.9275 43.5,95.5C 43.5,94.5 43.5,93.5 43.5,92.5C 44.3446,91.3285 45.0113,89.9952 45.5,88.5C 45.9348,85.8427 46.9348,83.5093 48.5,81.5 Z"/></g>
<g><path style="opacity:1" fill="#5ca59f" d="M 31.5,90.5 C 31.8333,91.1667 32.1667,91.8333 32.5,92.5C 32.5,93.5 32.5,94.5 32.5,95.5C 30.8053,94.9886 29.1386,94.3219 27.5,93.5C 27.8627,92.8165 28.1961,92.1499 28.5,91.5C 29.1174,91.6107 29.6174,91.944 30,92.5C 30.2784,91.5842 30.7784,90.9175 31.5,90.5 Z"/></g>
<g><path style="opacity:1" fill="#d39f8e" d="M 40.5,90.5 C 42.1788,90.2852 43.1788,90.9519 43.5,92.5C 41.4017,93.9143 40.4017,93.2476 40.5,90.5 Z"/></g>
<g><path style="opacity:1" fill="#665b7a" d="M 54.5,90.5 C 54.5,90.8333 54.5,91.1667 54.5,91.5C 52.4632,92.8465 50.4632,94.1798 48.5,95.5C 47.6236,95.6309 46.9569,95.2975 46.5,94.5C 47.1272,93.5832 47.4606,92.5832 47.5,91.5C 47.3284,90.5084 47.6618,89.8417 48.5,89.5C 49.4687,88.6906 50.3021,87.6906 51,86.5C 52.4048,87.7305 53.5714,89.0639 54.5,90.5 Z"/></g>
<g><path style="opacity:1" fill="#f8ccae" d="M 48.5,89.5 C 50.337,89.6395 50.6704,90.3061 49.5,91.5C 48.7025,91.0431 48.3691,90.3764 48.5,89.5 Z"/></g>
<g><path style="opacity:1" fill="#658f81" d="M 18.5,91.5 C 20.9065,92.0637 23.2398,92.397 25.5,92.5C 25.0732,93.2616 25.0732,94.2616 25.5,95.5C 22.6689,94.9213 20.3356,93.588 18.5,91.5 Z"/></g>
<g><path style="opacity:1" fill="#352f48" d="M 46.5,90.5 C 46.5,91.1667 46.8333,91.5 47.5,91.5C 47.4606,92.5832 47.1272,93.5832 46.5,94.5C 46.9569,95.2975 47.6236,95.6309 48.5,95.5C 47.5,96.1667 46.5,96.8333 45.5,97.5C 44.5,97.5 43.5,97.5 42.5,97.5C 42.5,97.1667 42.5,96.8333 42.5,96.5C 43.1667,96.5 43.5,96.1667 43.5,95.5C 44.6873,93.9275 45.6873,92.2608 46.5,90.5 Z"/></g>
<g><path style="opacity:1" fill="#89aca5" d="M 36.5,91.5 C 36.4894,93.0174 35.8228,94.1841 34.5,95C 35.056,95.3826 35.3893,95.8826 35.5,96.5C 34.5,96.5 33.5,96.5 32.5,96.5C 32.5,96.1667 32.5,95.8333 32.5,95.5C 32.5,94.5 32.5,93.5 32.5,92.5C 33.7079,91.7659 35.0413,91.4326 36.5,91.5 Z"/></g>
<g><path style="opacity:1" fill="#597d8e" d="M 36.5,89.5 C 36.8333,89.5 37.1667,89.5 37.5,89.5C 38.609,89.5569 39.609,89.8902 40.5,90.5C 40.4017,93.2476 41.4017,93.9143 43.5,92.5C 43.5,93.5 43.5,94.5 43.5,95.5C 43.5,96.1667 43.1667,96.5 42.5,96.5C 40.1667,96.5 37.8333,96.5 35.5,96.5C 35.3893,95.8826 35.056,95.3826 34.5,95C 35.8228,94.1841 36.4894,93.0174 36.5,91.5C 36.5,90.8333 36.5,90.1667 36.5,89.5 Z"/></g>
<g><path style="opacity:0.502" fill="#1d1d1e" d="M 54.5,91.5 C 53.6082,94.2921 51.6082,95.6254 48.5,95.5C 50.4632,94.1798 52.4632,92.8465 54.5,91.5 Z"/></g>
<g><path style="opacity:1" fill="#a2dbc7" d="M 28.5,91.5 C 28.1961,92.1499 27.8627,92.8165 27.5,93.5C 29.1386,94.3219 30.8053,94.9886 32.5,95.5C 32.5,95.8333 32.5,96.1667 32.5,96.5C 30.1944,96.0074 27.861,95.6741 25.5,95.5C 25.0732,94.2616 25.0732,93.2616 25.5,92.5C 25.5,92.1667 25.5,91.8333 25.5,91.5C 26.5,90.1667 27.5,90.1667 28.5,91.5 Z"/></g>
<g><path style="opacity:0.69" fill="#384a48" d="M 25.5,95.5 C 27.861,95.6741 30.1944,96.0074 32.5,96.5C 33.5,96.5 34.5,96.5 35.5,96.5C 37.8333,96.5 40.1667,96.5 42.5,96.5C 42.5,96.8333 42.5,97.1667 42.5,97.5C 37.8333,97.5 33.1667,97.5 28.5,97.5C 27.5,96.8333 26.5,96.1667 25.5,95.5 Z"/></g>
</svg>
