<svg version="1.1" id="Layer_1" xmlns="http://www.w3.org/2000/svg" xmlns:xlink="http://www.w3.org/1999/xlink" x="0px" y="0px"
	 width="100%" viewBox="0 0 76 78" enable-background="new 0 0 76 78" xml:space="preserve">
<path fill="#FFFFFF" opacity="1.000000" stroke="none" 
	d="
M60.000000,79.000000 
	C40.407158,79.000000 20.814316,79.000000 1.000000,79.000000 
	C1.000000,59.979679 1.000000,40.958496 1.161863,21.530273 
	C1.749604,21.170618 2.175481,21.218002 2.641626,21.284288 
	C2.681893,21.303188 2.620940,21.262960 2.461019,21.366148 
	C2.301099,21.469336 2.237109,21.844561 2.110503,22.052433 
	C2.309041,22.531025 2.634185,22.801743 3.074737,23.293449 
	C3.190145,23.514442 3.619612,23.767828 3.619612,23.767828 
	C3.619612,23.767828 4.057176,23.528690 4.486880,23.645260 
	C8.065809,23.492069 11.215034,23.222313 14.325041,23.284763 
	C15.152375,23.777617 16.018929,23.938259 16.977661,24.385082 
	C17.471706,25.105263 17.873571,25.539261 18.287552,26.347691 
	C19.564007,27.161093 20.828346,27.600065 22.359961,28.009281 
	C22.981770,27.610561 23.336306,27.241600 23.690842,26.872639 
	C23.180046,26.897417 22.669249,26.922197 22.049383,26.772652 
	C21.940313,26.598324 21.890705,26.190052 21.918797,25.766636 
	C21.966621,24.211681 21.986357,23.080139 22.387661,21.968102 
	C24.488773,23.315161 26.208317,24.642715 27.995581,26.162136 
	C28.367060,26.622959 28.670818,26.891916 28.999859,27.362143 
	C29.025141,27.563414 28.884855,27.944092 28.587383,27.993294 
	C27.535536,28.848095 26.781160,29.653694 25.702471,30.573231 
	C24.758419,30.902109 24.138683,31.117048 22.957485,31.526718 
	C24.667994,32.194695 25.792149,32.633690 26.951227,33.075684 
	C26.986153,33.078678 27.010279,33.012856 26.996986,33.296425 
	C27.430498,33.914951 27.877304,34.249901 28.534420,34.834587 
	C29.509079,35.400082 30.273426,35.715839 31.037186,36.000206 
	C31.036594,35.968807 30.975332,35.954975 30.944099,36.296482 
	C32.363846,40.413441 36.022205,39.901733 39.250584,40.932251 
	C40.353336,41.770390 41.168839,42.459301 41.992737,43.319462 
	C42.001133,43.490711 42.006111,43.833580 41.725830,43.948120 
	C41.956875,44.720413 42.468201,45.378166 42.982922,46.009415 
	C42.986320,45.982914 42.935032,45.997906 43.077202,46.337120 
	C43.525871,47.776615 43.832375,48.876900 44.142742,50.344955 
	C45.100578,51.325363 46.054550,51.938011 47.144794,52.751060 
	C47.281063,52.951462 47.759029,53.031658 47.759029,53.031658 
	C47.759029,53.031658 48.237034,52.951683 48.558426,52.980995 
	C49.236591,51.979195 49.593369,50.948078 49.955502,49.592567 
	C49.644993,48.511055 49.329128,47.753944 49.071030,46.560837 
	C49.180027,45.836143 49.231258,45.547451 49.638294,45.372452 
	C50.986732,45.273560 51.979362,45.060974 53.279877,44.754730 
	C54.320366,46.431202 55.052979,48.201344 55.450226,49.983040 
	C54.568562,50.400002 54.022263,50.805408 53.475964,51.210815 
	C54.329132,51.468788 55.182297,51.726761 56.371044,52.119835 
	C56.463825,53.859676 56.221027,55.464417 55.742970,57.183475 
	C55.342346,57.353123 55.176987,57.408459 54.704330,57.282715 
	C53.923180,57.071102 53.449326,57.040565 52.904160,56.790680 
	C52.659946,56.299519 52.591595,56.003548 52.698044,55.425240 
	C52.537292,55.288158 52.306293,55.409260 51.739914,55.641052 
	C50.935108,55.769989 50.465679,55.788242 49.995003,55.259323 
	C49.370628,54.787754 48.747509,54.863346 48.124386,54.938942 
	C48.213291,55.533165 48.302193,56.127392 48.391098,56.721615 
	C48.921688,56.447186 49.452278,56.172756 49.943130,56.306843 
	C50.646091,59.165424 51.388790,61.615486 52.085136,64.269012 
	C52.038776,64.472473 52.126793,64.880432 52.005741,65.177444 
	C52.278484,66.362625 52.672276,67.250801 53.060150,68.359428 
	C53.054237,68.579887 53.200943,68.995850 53.128197,69.331085 
	C53.070492,70.121490 53.085537,70.576653 53.075890,71.305077 
	C53.361336,71.734970 53.671474,71.891602 54.153091,72.368118 
	C56.216377,74.792007 58.108189,76.896004 60.000000,79.000000 
z"/>
<path fill="#FFFFFF" opacity="1.000000" stroke="none" 
	d="
M1.000000,19.000000 
	C1.000000,13.018032 1.000000,7.036065 1.000000,1.027048 
	C26.239140,1.027048 51.478313,1.027048 77.000000,1.027048 
	C77.000000,18.019854 77.000000,35.041267 76.687096,52.556458 
	C75.957870,53.007202 75.541557,52.964176 74.961227,52.589729 
	C74.784340,50.288830 75.404541,48.027927 74.654205,46.397926 
	C70.308189,36.956848 65.923904,27.507275 60.906059,18.417463 
	C59.399651,15.688604 55.823036,14.102558 53.084415,11.602083 
	C52.005131,10.031409 51.247925,8.160247 50.031834,7.787922 
	C43.765038,5.869251 37.578754,2.827741 30.561539,5.032714 
	C30.409462,4.938626 30.059088,4.866803 29.975121,4.638564 
	C29.578981,4.563503 29.266809,4.716681 28.648251,4.920379 
	C27.869774,5.278670 27.397682,5.586441 26.573517,5.937801 
	C25.140858,6.232671 24.060270,6.483953 22.588421,6.820657 
	C21.463520,7.447345 20.729881,7.988611 19.780090,8.704239 
	C18.975351,9.237963 18.386765,9.597322 17.414175,9.959917 
	C15.371760,10.162928 13.150732,11.136934 12.160432,10.417304 
	C9.189937,8.258711 7.347021,10.065045 4.862226,11.727043 
	C3.329064,14.291543 2.164532,16.645771 1.000000,19.000000 
z"/>
<path fill="#FFFFFF" opacity="1.000000" stroke="none" 
	d="
M77.000000,55.000000 
	C77.000000,62.904369 77.000000,70.808739 77.000000,79.000000 
	C72.653557,79.000000 68.300903,79.000000 63.584270,78.637589 
	C64.769035,77.143028 66.317795,76.010887 67.936966,74.563164 
	C68.650955,73.453529 69.294525,72.659477 70.332489,71.935104 
	C71.150543,71.446060 71.756454,70.948845 71.969070,70.318893 
	C73.687798,65.226685 75.332626,60.109539 77.000000,55.000000 
z"/>
<path fill="#3D1C1E" opacity="1.000000" stroke="none" 
	d="
M67.866554,74.878746 
	C66.317795,76.010887 64.769035,77.143028 63.110142,78.637589 
	C62.250000,79.000000 61.500000,79.000000 60.375000,79.000000 
	C58.108189,76.896004 56.216377,74.792007 54.163307,72.106178 
	C54.003426,71.349861 54.004799,71.175369 54.166580,70.797867 
	C54.563057,70.343651 54.799126,70.092445 55.365490,69.957504 
	C58.371674,69.789101 61.047554,69.504417 63.910851,69.514275 
	C66.144165,70.911766 62.742737,76.063507 67.866554,74.878746 
z"/>
<path fill="#261620" opacity="1.000000" stroke="none" 
	d="
M77.000000,54.666668 
	C75.332626,60.109539 73.687798,65.226685 71.969070,70.318893 
	C71.756454,70.948845 71.150543,71.446060 70.325417,71.543404 
	C70.874268,67.365784 71.824585,63.649548 72.902298,59.586853 
	C73.728203,57.133980 74.426720,55.027565 75.125237,52.921150 
	C75.541557,52.964176 75.957870,53.007202 76.687096,53.025116 
	C77.000000,53.444447 77.000000,53.888889 77.000000,54.666668 
z"/>
<path fill="#33232A" opacity="1.000000" stroke="none" 
	d="
M1.000000,19.333332 
	C2.164532,16.645771 3.329064,14.291543 5.164504,11.928917 
	C6.044680,12.041195 6.253948,12.161873 6.330321,12.603527 
	C5.807301,14.266615 5.417177,15.608725 4.877020,17.254536 
	C4.641501,17.997776 4.556015,18.437315 4.352803,19.133821 
	C4.153432,19.943380 4.071788,20.495972 3.994999,21.028755 
	C3.999855,21.008945 3.989779,21.041079 3.634657,21.047533 
	C3.053476,21.124456 2.827417,21.194923 2.601359,21.265388 
	C2.175481,21.218002 1.749604,21.170618 1.161863,21.061617 
	C1.000000,20.555555 1.000000,20.111111 1.000000,19.333332 
z"/>
<path fill="#FCDD02" opacity="1.000000" stroke="none" 
	d="
M63.723442,69.219727 
	C61.047554,69.504417 58.371674,69.789101 55.218513,69.733070 
	C54.227806,69.260185 53.714375,69.128014 53.200943,68.995850 
	C53.200943,68.995850 53.054237,68.579887 53.385246,68.280876 
	C54.654968,67.754578 55.729450,67.741859 56.502495,67.252731 
	C57.866959,66.389381 59.047672,65.235626 60.305309,64.203445 
	C59.227600,63.122978 58.149887,62.042511 57.072174,60.962044 
	C56.755413,61.241356 56.438652,61.520672 56.121891,61.799984 
	C56.382175,62.797764 56.642464,63.795547 56.902748,64.793327 
	C56.349167,64.945992 55.795589,65.098656 55.242008,65.251320 
	C54.486496,62.504223 53.730980,59.757126 52.975468,57.010029 
	C53.449326,57.040565 53.923180,57.071102 54.694256,57.557854 
	C55.175621,58.403942 55.359772,58.793808 55.543922,59.183674 
	C55.688690,58.478836 55.833458,57.773998 55.978226,57.069160 
	C56.221027,55.464417 56.463825,53.859676 56.330940,51.783833 
	C55.898697,50.865650 55.842144,50.418564 55.785591,49.971481 
	C55.052979,48.201344 54.320366,46.431202 53.220802,44.409714 
	C51.737709,41.130745 50.621559,38.103130 49.120926,34.032570 
	C46.660206,32.813965 44.947411,27.276922 39.065754,28.362085 
	C35.625278,27.978315 32.564182,27.468012 29.557837,26.685587 
	C29.051012,26.265734 28.489435,26.118002 27.927860,25.970270 
	C26.208317,24.642715 24.488773,23.315161 22.132574,21.740993 
	C20.828032,21.387209 20.160143,21.280039 19.582359,20.751030 
	C20.186188,18.272144 20.699913,16.215101 21.476681,13.979067 
	C22.814329,13.219660 23.888939,12.639240 25.136679,12.348139 
	C28.528631,12.392819 31.747456,12.148184 35.345993,11.895424 
	C40.119770,9.143926 43.297359,13.259849 46.817009,14.354890 
	C48.859020,14.990206 49.906071,18.827261 51.398300,21.225117 
	C54.158543,25.660549 56.817287,30.163361 59.707729,34.512211 
	C61.998177,37.958336 64.922707,41.028152 66.860573,44.643055 
	C67.732811,46.270134 66.886543,48.818470 66.820023,50.948803 
	C66.443970,50.962929 66.067909,50.977058 65.691856,50.991188 
	C66.502731,54.012791 67.313606,57.034397 68.084747,60.427696 
	C66.604492,63.606178 65.163963,66.412956 63.723442,69.219727 
M38.358841,13.182767 
	C34.775658,13.520471 32.647560,16.125202 33.595715,18.976883 
	C34.197975,20.788244 37.789932,21.605560 40.041191,22.868647 
	C40.408928,22.398815 40.776669,21.928984 41.144409,21.459150 
	C39.590450,18.979000 44.375244,15.191512 38.358841,13.182767 
z"/>
<path fill="#FBE706" opacity="1.000000" stroke="none" 
	d="
M39.445133,28.235554 
	C44.947411,27.276922 46.660206,32.813965 49.120926,34.032570 
	C50.621559,38.103130 51.737709,41.130745 52.912926,44.503380 
	C51.979362,45.060974 50.986732,45.273560 49.553051,45.042747 
	C47.378597,41.728931 47.232006,37.363289 43.369072,37.106834 
	C42.820473,39.500313 42.402409,41.324265 41.984344,43.148212 
	C41.168839,42.459301 40.353336,41.770390 39.277504,40.595665 
	C38.811409,39.299202 38.791161,37.908688 38.369240,37.773708 
	C35.957493,37.002148 33.450184,36.529285 30.975332,35.954975 
	C30.975332,35.954975 31.036594,35.968807 31.109392,35.734589 
	C31.685448,35.040085 32.188705,34.579796 32.843155,33.845692 
	C33.035202,33.159859 33.076054,32.747837 33.374432,32.312881 
	C34.044765,32.333633 34.625065,32.574760 34.843555,32.389404 
	C36.418530,31.053251 37.920212,29.630707 39.445133,28.235554 
z"/>
<path fill="#E7D515" opacity="1.000000" stroke="none" 
	d="
M52.904160,56.790680 
	C53.730980,59.757126 54.486496,62.504223 55.242008,65.251320 
	C55.795589,65.098656 56.349167,64.945992 56.902748,64.793327 
	C56.642464,63.795547 56.382175,62.797764 56.121891,61.799984 
	C56.438652,61.520672 56.755413,61.241356 57.072174,60.962044 
	C58.149887,62.042511 59.227600,63.122978 60.305309,64.203445 
	C59.047672,65.235626 57.866959,66.389381 56.502495,67.252731 
	C55.729450,67.741859 54.654968,67.754578 53.391159,68.060417 
	C52.672276,67.250801 52.278484,66.362625 52.153748,65.114502 
	C52.422810,64.754547 52.505100,64.344696 52.505100,64.344696 
	C52.505100,64.344696 52.131493,64.065552 52.131493,64.065552 
	C51.388790,61.615486 50.646091,59.165424 49.912373,56.296959 
	C49.921356,55.878563 49.996254,55.806492 49.996254,55.806492 
	C50.465679,55.788242 50.935108,55.769989 51.871490,55.697861 
	C52.338451,55.643982 52.627796,55.683418 52.627796,55.683418 
	C52.591595,56.003548 52.659946,56.299519 52.904160,56.790680 
z"/>
<path fill="#4B3122" opacity="1.000000" stroke="none" 
	d="
M39.065754,28.362083 
	C37.920212,29.630707 36.418530,31.053251 34.843555,32.389404 
	C34.625065,32.574760 34.044765,32.333633 33.167847,32.099304 
	C31.429007,32.268566 30.154280,32.628468 28.567944,32.988441 
	C27.840981,32.996628 27.425629,33.004742 27.010279,33.012856 
	C27.010279,33.012856 26.986153,33.078678 27.025139,32.816071 
	C27.020105,32.378925 26.976084,32.204388 27.032104,31.702995 
	C27.716383,30.232122 28.300619,29.088108 28.884855,27.944092 
	C28.884855,27.944092 29.025141,27.563414 29.144350,27.342609 
	C29.263559,27.121807 29.503086,26.957708 29.503086,26.957708 
	C32.564182,27.468012 35.625278,27.978315 39.065754,28.362083 
z"/>
<path fill="#FFFDE4" opacity="1.000000" stroke="none" 
	d="
M41.992737,43.319462 
	C42.402409,41.324265 42.820473,39.500313 43.369072,37.106834 
	C47.232006,37.363289 47.378597,41.728931 49.197247,44.929058 
	C49.231258,45.547451 49.180027,45.836143 48.692101,46.561272 
	C47.531597,46.785435 46.807777,46.573170 45.796833,46.163185 
	C44.651482,45.976280 43.793259,45.987091 42.935032,45.997902 
	C42.935032,45.997906 42.986320,45.982914 43.368950,45.949986 
	C43.169754,45.222565 42.587933,44.528072 42.006111,43.833580 
	C42.006111,43.833580 42.001133,43.490711 41.992737,43.319462 
z"/>
<path fill="#3C302E" opacity="1.000000" stroke="none" 
	d="
M30.944099,36.296482 
	C33.450184,36.529285 35.957493,37.002148 38.369240,37.773708 
	C38.791161,37.908688 38.811409,39.299202 38.990250,40.446442 
	C36.022205,39.901733 32.363846,40.413441 30.944099,36.296482 
z"/>
<path fill="#312B21" opacity="1.000000" stroke="none" 
	d="
M14.364259,22.952557 
	C11.215034,23.222313 8.065809,23.492069 4.719990,23.433897 
	C5.359772,23.070105 6.196149,23.034243 7.319324,23.039358 
	C8.117259,22.915499 8.628395,22.750662 9.139531,22.585827 
	C8.768825,22.372128 8.398117,22.158428 8.001427,21.625380 
	C7.956959,21.093225 7.938476,20.880423 7.935221,20.595045 
	C7.950449,20.522470 7.945171,20.374254 8.210577,20.263714 
	C8.657951,20.096422 8.839918,20.039669 9.387639,20.074217 
	C11.368793,21.096708 12.984193,22.027895 14.539766,22.993271 
	C14.479939,23.027458 14.364259,22.952557 14.364259,22.952557 
z"/>
<path fill="#DDBD20" opacity="1.000000" stroke="none" 
	d="
M46.083954,46.360909 
	C46.807777,46.573170 47.531597,46.785435 48.634338,46.997265 
	C49.329128,47.753944 49.644993,48.511055 49.708805,49.772598 
	C49.050182,51.168579 48.643608,52.060131 48.237030,52.951683 
	C48.237034,52.951683 47.759029,53.031658 47.759029,53.031658 
	C47.759029,53.031658 47.281063,52.951462 47.476761,52.408699 
	C46.820179,50.858730 45.967903,49.851528 45.316002,48.574188 
	C45.705570,47.656338 45.894764,47.008625 46.083954,46.360909 
z"/>
<path fill="#FBF9E4" opacity="1.000000" stroke="none" 
	d="
M19.492256,21.172871 
	C20.160143,21.280039 20.828032,21.387209 21.751003,21.721489 
	C21.986357,23.080139 21.966621,24.211681 21.556786,25.717197 
	C20.436440,26.055550 19.706196,26.019922 18.903826,25.622240 
	C18.835026,24.530661 18.838350,23.801136 18.900301,22.819511 
	C19.136703,22.102564 19.314480,21.637716 19.492256,21.172871 
z"/>
<path fill="#473630" opacity="1.000000" stroke="none" 
	d="
M45.796829,46.163189 
	C45.894764,47.008625 45.705570,47.656338 45.206749,48.806225 
	C44.644371,49.531326 44.391624,49.754261 44.138882,49.977188 
	C43.832375,48.876900 43.525871,47.776615 43.077202,46.337116 
	C43.793259,45.987091 44.651482,45.976280 45.796829,46.163189 
z"/>
<path fill="#FBF9E4" opacity="1.000000" stroke="none" 
	d="
M28.587383,27.993294 
	C28.300619,29.088108 27.716383,30.232122 26.788939,31.506130 
	C26.306082,31.243845 26.166433,30.851568 26.026787,30.459293 
	C26.781160,29.653694 27.535536,28.848095 28.587383,27.993294 
z"/>
<path fill="#FFFDE4" opacity="1.000000" stroke="none" 
	d="
M48.558422,52.980995 
	C48.643608,52.060131 49.050182,51.168579 49.703453,50.096996 
	C49.593369,50.948078 49.236591,51.979195 48.558422,52.980995 
z"/>
<path fill="#383037" opacity="1.000000" stroke="none" 
	d="
M44.142742,50.344955 
	C44.391624,49.754261 44.644371,49.531326 45.006374,49.076359 
	C45.967903,49.851528 46.820179,50.858730 47.340492,52.208294 
	C46.054550,51.938011 45.100578,51.325363 44.142742,50.344955 
z"/>
<path fill="#622E20" opacity="1.000000" stroke="none" 
	d="
M32.691963,34.119507 
	C32.188705,34.579796 31.685448,35.040085 31.109982,35.765987 
	C30.273426,35.715839 29.509079,35.400082 28.728088,34.681725 
	C28.711447,34.279133 29.062719,33.934273 29.428551,33.920448 
	C30.760241,33.977585 31.726103,34.048546 32.691963,34.119507 
z"/>
<path fill="#17040F" opacity="1.000000" stroke="none" 
	d="
M7.032526,22.998381 
	C6.196149,23.034243 5.359772,23.070105 4.290286,23.317329 
	C4.057176,23.528690 3.619612,23.767828 3.619612,23.767828 
	C3.619612,23.767828 3.190145,23.514442 2.935294,22.962280 
	C2.532665,22.221600 2.384887,22.033081 2.237109,21.844561 
	C2.237109,21.844561 2.301099,21.469336 2.690712,21.587341 
	C3.383477,21.483923 3.686628,21.262501 3.989779,21.041079 
	C3.989779,21.041079 3.999855,21.008945 4.305011,21.064629 
	C4.812433,21.169062 5.014700,21.217813 5.369667,21.464115 
	C6.010543,21.839005 6.498720,22.016342 7.005410,22.394451 
	C7.023923,22.595222 7.032526,22.998381 7.032526,22.998381 
z"/>
<path fill="#FFFDE4" opacity="1.000000" stroke="none" 
	d="
M55.450226,49.983040 
	C55.842144,50.418564 55.898697,50.865650 55.995361,51.648735 
	C55.182297,51.726761 54.329132,51.468788 53.475964,51.210815 
	C54.022263,50.805408 54.568562,50.400002 55.450226,49.983040 
z"/>
<path fill="#291723" opacity="1.000000" stroke="none" 
	d="
M18.975950,25.984295 
	C19.706196,26.019922 20.436440,26.055550 21.528694,26.140614 
	C21.890705,26.190052 21.940313,26.598324 22.008820,27.044365 
	C22.082445,27.673283 22.087564,27.856159 22.092686,28.039036 
	C20.828346,27.600065 19.564007,27.161093 18.462320,26.374416 
	C18.624973,26.026711 18.975950,25.984295 18.975950,25.984295 
z"/>
<path fill="#241A1C" opacity="1.000000" stroke="none" 
	d="
M14.325041,23.284763 
	C14.364259,22.952557 14.479939,23.027458 14.858204,22.966122 
	C16.128534,22.954004 17.020597,23.003222 17.813833,23.287624 
	C17.438496,23.714844 17.161987,23.906874 16.885479,24.098904 
	C16.018929,23.938259 15.152375,23.777617 14.325041,23.284763 
z"/>
<path fill="#736B6D" opacity="1.000000" stroke="none" 
	d="
M25.702469,30.573231 
	C26.166433,30.851568 26.306082,31.243845 26.688896,31.832985 
	C26.976084,32.204388 27.020105,32.378925 26.990215,32.813072 
	C25.792149,32.633690 24.667994,32.194695 22.957485,31.526718 
	C24.138683,31.117048 24.758419,30.902109 25.702469,30.573231 
z"/>
<path fill="#45281A" opacity="1.000000" stroke="none" 
	d="
M16.977661,24.385082 
	C17.161987,23.906874 17.438496,23.714844 18.046757,23.279167 
	C18.378508,23.035522 18.841673,23.071611 18.841675,23.071611 
	C18.838350,23.801136 18.835026,24.530661 18.903826,25.622240 
	C18.975950,25.984295 18.624973,26.026711 18.450205,25.999985 
	C17.873571,25.539261 17.471706,25.105263 16.977661,24.385082 
z"/>
<path fill="#51464F" opacity="1.000000" stroke="none" 
	d="
M49.995003,55.259323 
	C49.996254,55.806492 49.921356,55.878563 49.952110,55.888443 
	C49.452278,56.172756 48.921688,56.447186 48.391098,56.721615 
	C48.302193,56.127392 48.213291,55.533165 48.124386,54.938942 
	C48.747509,54.863346 49.370628,54.787754 49.995003,55.259323 
z"/>
<path fill="#575052" opacity="1.000000" stroke="none" 
	d="
M41.725830,43.948120 
	C42.587933,44.528072 43.169754,45.222565 43.365547,45.976486 
	C42.468201,45.378166 41.956875,44.720413 41.725830,43.948120 
z"/>
<path fill="#FBF9E4" opacity="1.000000" stroke="none" 
	d="
M29.557837,26.685587 
	C29.503086,26.957708 29.263559,27.121807 29.119068,27.141338 
	C28.670818,26.891916 28.367060,26.622959 27.995581,26.162136 
	C28.489435,26.118002 29.051012,26.265734 29.557837,26.685587 
z"/>
<path fill="#FBF9E4" opacity="1.000000" stroke="none" 
	d="
M22.359961,28.009281 
	C22.087564,27.856159 22.082445,27.673283 22.117889,27.218693 
	C22.669249,26.922197 23.180046,26.897417 23.690842,26.872639 
	C23.336306,27.241600 22.981770,27.610561 22.359961,28.009281 
z"/>
<path fill="#E7D515" opacity="1.000000" stroke="none" 
	d="
M55.742966,57.183475 
	C55.833458,57.773998 55.688690,58.478836 55.543922,59.183674 
	C55.359772,58.793808 55.175621,58.403942 55.001549,57.738930 
	C55.176987,57.408459 55.342346,57.353123 55.742966,57.183475 
z"/>
<path fill="#7B7064" opacity="1.000000" stroke="none" 
	d="
M53.128197,69.331085 
	C53.714375,69.128014 54.227806,69.260185 54.888214,69.616791 
	C54.799126,70.092445 54.563057,70.343651 53.939423,70.788361 
	C53.551857,70.981857 53.100582,71.031815 53.100582,71.031815 
	C53.085537,70.576653 53.070492,70.121490 53.128197,69.331085 
z"/>
<path fill="#622E20" opacity="1.000000" stroke="none" 
	d="
M26.996986,33.296425 
	C27.425629,33.004742 27.840981,32.996628 28.644228,33.219254 
	C29.032125,33.449993 29.062719,33.934273 29.062719,33.934273 
	C29.062719,33.934273 28.711447,34.279133 28.517776,34.431992 
	C27.877304,34.249901 27.430498,33.914951 26.996986,33.296425 
z"/>
<path fill="#FFFDE4" opacity="1.000000" stroke="none" 
	d="
M52.698044,55.425240 
	C52.627796,55.683418 52.338451,55.643982 52.206871,55.587173 
	C52.306293,55.409260 52.537292,55.288158 52.698044,55.425240 
z"/>
<path fill="#4C4849" opacity="1.000000" stroke="none" 
	d="
M2.110503,22.052433 
	C2.384887,22.033081 2.532665,22.221600 2.819886,22.741289 
	C2.634185,22.801743 2.309041,22.531025 2.110503,22.052433 
z"/>
<path fill="#4C4849" opacity="1.000000" stroke="none" 
	d="
M3.634657,21.047533 
	C3.686628,21.262501 3.383477,21.483923 2.850633,21.484154 
	C2.620940,21.262960 2.681893,21.303188 2.641626,21.284288 
	C2.827417,21.194923 3.053476,21.124456 3.634657,21.047533 
z"/>
<path fill="#FCDD02" opacity="1.000000" stroke="none" 
	d="
M52.085136,64.269012 
	C52.131493,64.065552 52.505100,64.344696 52.505100,64.344696 
	C52.505100,64.344696 52.422810,64.754547 52.274803,64.817490 
	C52.126793,64.880432 52.038776,64.472473 52.085136,64.269012 
z"/>
<path fill="#423A41" opacity="1.000000" stroke="none" 
	d="
M53.075890,71.305077 
	C53.100582,71.031815 53.551857,70.981857 53.779015,70.991364 
	C54.004799,71.175369 54.003426,71.349861 53.991837,71.786285 
	C53.671474,71.891602 53.361336,71.734970 53.075890,71.305077 
z"/>
<path fill="#FA9001" opacity="1.000000" stroke="none" 
	d="
M24.963549,12.058822 
	C23.888939,12.639240 22.814329,13.219660 21.225103,13.840622 
	C20.227928,13.602273 19.745367,13.323380 19.098595,12.734710 
	C18.555649,11.602182 18.176914,10.779432 17.798178,9.956682 
	C18.386765,9.597322 18.975351,9.237963 19.995636,8.991942 
	C21.580584,8.640999 24.359310,9.927222 22.979683,6.735233 
	C24.060270,6.483953 25.140858,6.232671 26.750275,6.184608 
	C27.837614,5.881837 28.396126,5.375848 28.954636,4.869860 
	C29.266809,4.716681 29.578981,4.563503 29.971712,4.927773 
	C30.672998,5.753181 31.293730,6.061140 32.260483,6.301084 
	C39.469280,8.153034 46.332054,10.073001 53.194824,11.992968 
	C55.823036,14.102558 59.399651,15.688604 60.906059,18.417463 
	C65.923904,27.507275 70.308189,36.956848 74.654205,46.397926 
	C75.404541,48.027927 74.784340,50.288830 74.961227,52.589729 
	C74.426720,55.027565 73.728203,57.133980 72.513313,59.606407 
	C70.706123,60.000278 69.415298,60.028141 68.124481,60.056000 
	C67.313606,57.034397 66.502731,54.012791 65.691856,50.991188 
	C66.067909,50.977058 66.443970,50.962929 66.820023,50.948803 
	C66.886543,48.818470 67.732811,46.270134 66.860573,44.643055 
	C64.922707,41.028152 61.998177,37.958336 59.707729,34.512211 
	C56.817287,30.163361 54.158543,25.660549 51.398300,21.225117 
	C49.906071,18.827261 48.859020,14.990206 46.817009,14.354890 
	C43.297359,13.259849 40.119770,9.143926 35.308315,11.527836 
	C31.799149,8.111590 28.039867,8.448785 24.963549,12.058822 
z"/>
<path fill="#089051" opacity="1.000000" stroke="none" 
	d="
M17.414175,9.959918 
	C18.176914,10.779432 18.555649,11.602182 19.068951,13.125096 
	C19.221415,15.681749 19.632214,17.445908 16.422947,16.404308 
	C14.176199,15.675103 11.524307,16.194181 8.760971,16.001183 
	C7.800129,14.658587 7.131672,13.470569 6.463216,12.282550 
	C6.253948,12.161873 6.044680,12.041195 5.533134,11.718645 
	C7.347021,10.065045 9.189937,8.258711 12.160432,10.417304 
	C13.150732,11.136934 15.371760,10.162928 17.414175,9.959918 
z"/>
<path fill="#2E1A25" opacity="1.000000" stroke="none" 
	d="
M53.084415,11.602083 
	C46.332054,10.073001 39.469280,8.153034 31.970411,6.194367 
	C31.127415,5.812712 30.920515,5.469757 30.713615,5.126801 
	C37.578754,2.827741 43.765038,5.869251 50.031834,7.787922 
	C51.247925,8.160247 52.005131,10.031409 53.084415,11.602083 
z"/>
<path fill="#714E3A" opacity="1.000000" stroke="none" 
	d="
M22.588421,6.820657 
	C24.359310,9.927222 21.580584,8.640999 20.211788,8.817579 
	C20.729881,7.988611 21.463520,7.447345 22.588421,6.820657 
z"/>
<path fill="#F48A00" opacity="1.000000" stroke="none" 
	d="
M28.648251,4.920379 
	C28.396126,5.375848 27.837614,5.881837 27.102346,6.141019 
	C27.397682,5.586441 27.869774,5.278670 28.648251,4.920379 
z"/>
<path fill="#F48A00" opacity="1.000000" stroke="none" 
	d="
M30.561539,5.032714 
	C30.920515,5.469757 31.127415,5.812712 31.624386,6.262383 
	C31.293730,6.061140 30.672998,5.753181 30.055679,5.156012 
	C30.059088,4.866803 30.409462,4.938626 30.561539,5.032714 
z"/>
<path fill="#F46D02" opacity="1.000000" stroke="none" 
	d="
M68.084747,60.427700 
	C69.415298,60.028141 70.706123,60.000278 72.385925,59.952866 
	C71.824585,63.649548 70.874268,67.365784 69.931023,71.473724 
	C69.294525,72.659477 68.650955,73.453529 67.936966,74.563164 
	C62.742737,76.063507 66.144165,70.911766 63.910851,69.514282 
	C65.163963,66.412956 66.604492,63.606178 68.084747,60.427700 
z"/>
<path fill="#BF4931" opacity="1.000000" stroke="none" 
	d="
M6.330321,12.603527 
	C7.131672,13.470569 7.800129,14.658587 8.755344,16.264853 
	C8.981267,17.030304 8.920428,17.377506 8.519307,17.781521 
	C7.959822,17.907961 7.740619,17.977587 7.292023,17.889862 
	C6.384105,17.471951 5.705579,17.211391 5.027053,16.950834 
	C5.417177,15.608725 5.807301,14.266615 6.330321,12.603527 
z"/>
<path fill="#CBC953" opacity="1.000000" stroke="none" 
	d="
M4.877020,17.254536 
	C5.705579,17.211391 6.384105,17.471951 7.290162,18.286440 
	C7.660186,19.351665 7.802679,19.862961 7.945171,20.374254 
	C7.945171,20.374254 7.950449,20.522470 7.626297,20.682186 
	C6.879629,20.838285 6.457112,20.834671 5.980043,20.492073 
	C5.440505,19.727676 4.955517,19.302265 4.470530,18.876854 
	C4.556015,18.437315 4.641501,17.997776 4.877020,17.254536 
z"/>
<path fill="#CA5B48" opacity="1.000000" stroke="none" 
	d="
M4.352803,19.133821 
	C4.955517,19.302265 5.440505,19.727676 5.775657,20.601250 
	C5.625821,21.049408 5.216967,21.266563 5.216967,21.266563 
	C5.014700,21.217813 4.812433,21.169062 4.300155,21.084438 
	C4.071788,20.495972 4.153432,19.943380 4.352803,19.133821 
z"/>
<path fill="#7DC400" opacity="1.000000" stroke="none" 
	d="
M8.859591,17.724710 
	C8.920428,17.377506 8.981267,17.030304 9.047731,16.419430 
	C11.524307,16.194181 14.176199,15.675103 16.422947,16.404308 
	C19.632214,17.445908 19.221415,15.681749 19.233162,13.434874 
	C19.745367,13.323380 20.227928,13.602273 20.962063,14.019611 
	C20.699913,16.215101 20.186188,18.272144 19.582359,20.751030 
	C19.314480,21.637716 19.136703,22.102564 18.900299,22.819511 
	C18.841673,23.071611 18.378508,23.035522 18.145584,23.043980 
	C17.020597,23.003222 16.128534,22.954004 14.918032,22.931934 
	C12.984193,22.027895 11.368793,21.096708 9.376163,19.697561 
	C8.952487,18.727972 8.906038,18.226341 8.859591,17.724710 
z"/>
<path fill="#2F181B" opacity="1.000000" stroke="none" 
	d="
M38.709267,13.334970 
	C44.375244,15.191512 39.590450,18.979000 41.144409,21.459150 
	C40.776669,21.928984 40.408928,22.398815 40.041191,22.868647 
	C37.789932,21.605560 34.197975,20.788244 33.595715,18.976883 
	C32.647560,16.125202 34.775658,13.520471 38.709267,13.334970 
z"/>
<path fill="#FF7802" opacity="1.000000" stroke="none" 
	d="
M25.136679,12.348139 
	C28.039867,8.448785 31.799149,8.111590 34.928600,11.535959 
	C31.747456,12.148184 28.528631,12.392819 25.136679,12.348139 
z"/>
<path fill="#AE7965" opacity="1.000000" stroke="none" 
	d="
M29.428551,33.920448 
	C29.062719,33.934273 29.032125,33.449993 28.955841,33.219177 
	C30.154280,32.628468 31.429007,32.268566 32.910316,32.122246 
	C33.076054,32.747837 33.035202,33.159859 32.843155,33.845692 
	C31.726103,34.048546 30.760241,33.977585 29.428551,33.920448 
z"/>
<path fill="#6E6766" opacity="1.000000" stroke="none" 
	d="
M7.319324,23.039358 
	C7.032526,22.998381 7.023923,22.595222 7.264641,22.329494 
	C7.679376,22.024090 7.853393,21.984409 8.027411,21.944731 
	C8.398117,22.158428 8.768825,22.372128 9.139531,22.585827 
	C8.628395,22.750662 8.117259,22.915499 7.319324,23.039358 
z"/>
<path fill="#7F7710" opacity="1.000000" stroke="none" 
	d="
M8.001427,21.625380 
	C7.853393,21.984409 7.679376,22.024090 7.246128,22.128723 
	C6.498720,22.016342 6.010543,21.839005 5.369667,21.464115 
	C5.216967,21.266563 5.625821,21.049408 5.830208,20.940231 
	C6.457112,20.834671 6.879629,20.838285 7.611070,20.754761 
	C7.938476,20.880423 7.956959,21.093225 8.001427,21.625380 
z"/>
<path fill="#8DCD00" opacity="1.000000" stroke="none" 
	d="
M8.519308,17.781521 
	C8.906038,18.226341 8.952487,18.727972 9.010410,19.606258 
	C8.839918,20.039669 8.657951,20.096422 8.210577,20.263714 
	C7.802679,19.862961 7.660186,19.351665 7.519554,18.443794 
	C7.740619,17.977587 7.959822,17.907961 8.519308,17.781521 
z"/>
</svg>