<?xml version="1.0" encoding="UTF-8"?>
<svg xmlns="http://www.w3.org/2000/svg" xmlns:xlink="http://www.w3.org/1999/xlink" width="px" height="px" viewBox="0 0 104 95" version="1.1">
<defs>
<filter id="alpha" filterUnits="objectBoundingBox" x="0%" y="0%" width="100%" height="100%">
  <feColorMatrix type="matrix" in="SourceGraphic" values="0 0 0 0 1 0 0 0 0 1 0 0 0 0 1 0 0 0 1 0"/>
</filter>
<mask id="mask0">
  <g filter="url(#alpha)">
<rect x="0" y="0" width="104" height="95" style="fill:rgb(0%,0%,0%);fill-opacity:0.0470588;stroke:none;"/>
  </g>
</mask>
<clipPath id="clip1">
  <rect x="0" y="0" width="104" height="95"/>
</clipPath>
<g id="surface5" clip-path="url(#clip1)">
<path style=" stroke:none;fill-rule:evenodd;fill:rgb(12.941176%,20%,26.666667%);fill-opacity:1;" d="M 35.578125 -0.25 C 37.734375 -0.25 39.890625 -0.25 42.046875 -0.25 C 48.925781 -0.253906 54.648438 2.414062 59.214844 7.75 C 64.367188 2.183594 70.257812 1.265625 76.878906 5 C 79.714844 7.441406 81.453125 10.523438 82.105469 14.25 C 85.199219 16.640625 87.4375 19.640625 88.824219 23.25 C 92.777344 21.90625 96.011719 22.90625 98.527344 26.25 C 99.226562 29.570312 100.140625 32.820312 101.261719 36 C 101.003906 36.28125 100.835938 36.613281 100.765625 37 C 102.238281 38.996094 102.570312 41.164062 101.761719 43.5 C 102.542969 44.199219 103.207031 44.949219 103.75 45.75 C 103.75 47.082031 103.75 48.417969 103.75 49.75 C 101.871094 50.96875 101.375 52.636719 102.257812 54.75 C 102.023438 56.382812 101.359375 57.800781 100.269531 59 C 101.042969 60.890625 100.792969 62.640625 99.523438 64.25 C 98.898438 71.070312 95.25 73.570312 88.574219 71.75 C 87.636719 75.636719 85.480469 78.636719 82.105469 80.75 C 81.054688 86.472656 77.820312 90.390625 72.402344 92.5 C 67.078125 93.496094 62.683594 91.910156 59.214844 87.75 C 56.761719 90.851562 53.695312 93.019531 50.007812 94.25 C 49.554688 94.226562 49.222656 94.0625 49.015625 93.75 C 53.203125 92.203125 56.6875 89.703125 59.464844 86.25 C 61.707031 89.878906 65.023438 91.714844 69.417969 91.75 C 76.195312 91.1875 79.925781 87.523438 80.613281 80.75 C 84.523438 78.566406 86.761719 75.234375 87.332031 70.75 C 89.804688 71.210938 92.292969 71.292969 94.792969 71 C 95.832031 70.605469 96.746094 70.019531 97.53125 69.25 C 97.976562 66.398438 98.722656 63.648438 99.769531 61 C 99.667969 60.316406 99.5 59.652344 99.273438 59 C 100.746094 57.003906 101.074219 54.835938 100.269531 52.5 C 103.363281 49.636719 103.527344 46.636719 100.765625 43.5 C 101.273438 42.105469 101.355469 40.691406 101.015625 39.25 C 99.964844 37.253906 99.464844 35.085938 99.523438 32.75 C 98.644531 30.457031 97.816406 28.125 97.035156 25.75 C 93.988281 23.53125 90.753906 23.199219 87.332031 24.75 C 86.984375 20.5625 84.992188 17.394531 81.359375 15.25 C 80.882812 11.226562 79.058594 7.976562 75.886719 5.5 C 69.097656 2.046875 63.625 3.464844 59.464844 9.75 C 58.625 8.574219 57.628906 7.574219 56.476562 6.75 C 53.226562 3.023438 49.160156 1.523438 44.285156 2.25 C 42.425781 1.238281 40.433594 0.738281 38.316406 0.75 C 33.996094 1.8125 29.601562 2.894531 25.128906 4 C 19.667969 6.066406 16.515625 9.984375 15.675781 15.75 C 11.789062 17.878906 9.050781 21.046875 7.464844 25.25 C 6.316406 28.996094 5.652344 32.828125 5.472656 36.75 C 3.367188 38.480469 1.875 40.644531 0.996094 43.25 C 0.664062 46.25 0.664062 49.25 0.996094 52.25 C 1.101562 53.027344 1.347656 53.695312 1.742188 54.25 C 1.742188 54.582031 1.742188 54.917969 1.742188 55.25 C 1.433594 55.195312 1.1875 55.027344 0.996094 54.75 C 0.554688 53.023438 0.140625 51.355469 -0.25 49.75 C -0.25 49.417969 -0.25 49.082031 -0.25 48.75 C 0.414062 48.082031 0.414062 47.417969 -0.25 46.75 C -0.25 46.582031 -0.25 46.417969 -0.25 46.25 C 0.0898438 42.394531 1.667969 39.0625 4.476562 36.25 C 4.636719 30.269531 6.296875 24.769531 9.453125 19.75 C 10.976562 17.96875 12.71875 16.46875 14.679688 15.25 C 17.550781 6.042969 23.855469 1.292969 33.589844 1 C 34.367188 0.695312 35.03125 0.277344 35.578125 -0.25 Z M 35.578125 -0.25 "/>
</g>
<mask id="mask1">
  <g filter="url(#alpha)">
<rect x="0" y="0" width="104" height="95" style="fill:rgb(0%,0%,0%);fill-opacity:0.964706;stroke:none;"/>
  </g>
</mask>
<clipPath id="clip2">
  <rect x="0" y="0" width="104" height="95"/>
</clipPath>
<g id="surface8" clip-path="url(#clip2)">
<path style=" stroke:none;fill-rule:evenodd;fill:rgb(5.098039%,2.352941%,3.529412%);fill-opacity:1;" d="M 56.476562 6.75 C 56.859375 7.601562 56.859375 8.601562 56.476562 9.75 C 53.933594 7.09375 50.867188 5.261719 47.273438 4.25 C 47.023438 4.417969 46.773438 4.582031 46.527344 4.75 C 47.570312 6.183594 48.316406 7.683594 48.765625 9.25 C 48.414062 8.808594 48 8.476562 47.523438 8.25 C 46.660156 7.386719 45.667969 6.71875 44.535156 6.25 C 42.832031 3.8125 40.511719 2.894531 37.570312 3.5 C 38.171875 4.019531 38.667969 4.601562 39.0625 5.25 C 32.371094 4.097656 26.398438 5.597656 21.148438 9.75 C 20.265625 10.632812 19.601562 11.632812 19.15625 12.75 C 18.246094 14.46875 18.742188 15.636719 20.652344 16.25 C 20.320312 16.582031 19.988281 16.917969 19.65625 17.25 C 12.925781 19.417969 9.277344 24.085938 8.707031 31.25 C 8.707031 31.417969 8.707031 31.582031 8.707031 31.75 C 8.0625 32.847656 8.0625 34.011719 8.707031 35.25 C 9.207031 35 9.703125 34.75 10.199219 34.5 C 15.84375 34.242188 21.484375 34.328125 27.121094 34.75 C 26.238281 35.382812 25.410156 36.132812 24.632812 37 C 25.085938 37.140625 25.417969 37.390625 25.625 37.75 C 21.03125 36.800781 16.386719 36.550781 11.695312 37 C 9.523438 37.585938 7.699219 38.667969 6.21875 40.25 C 4.320312 41.5625 3.328125 43.398438 3.234375 45.75 C 2.925781 48.566406 2.429688 51.398438 1.742188 54.25 C 1.347656 53.695312 1.101562 53.027344 0.996094 52.25 C 0.664062 49.25 0.664062 46.25 0.996094 43.25 C 1.875 40.644531 3.367188 38.480469 5.472656 36.75 C 5.652344 32.828125 6.316406 28.996094 7.464844 25.25 C 9.050781 21.046875 11.789062 17.878906 15.675781 15.75 C 16.515625 9.984375 19.667969 6.066406 25.128906 4 C 29.601562 2.894531 33.996094 1.8125 38.316406 0.75 C 40.433594 0.738281 42.425781 1.238281 44.285156 2.25 C 49.160156 1.523438 53.226562 3.023438 56.476562 6.75 Z M 56.476562 6.75 "/>
</g>
<mask id="mask2">
  <g filter="url(#alpha)">
<rect x="0" y="0" width="104" height="95" style="fill:rgb(0%,0%,0%);fill-opacity:0.996078;stroke:none;"/>
  </g>
</mask>
<clipPath id="clip3">
  <rect x="0" y="0" width="104" height="95"/>
</clipPath>
<g id="surface11" clip-path="url(#clip3)">
<path style=" stroke:none;fill-rule:evenodd;fill:rgb(77.647059%,31.764706%,14.117647%);fill-opacity:1;" d="M 38.066406 16.75 C 38.921875 16.8125 39.75 16.980469 40.554688 17.25 C 37.734375 19.75 35.082031 22.417969 32.59375 25.25 C 32.589844 24.492188 32.257812 23.90625 31.597656 23.5 C 32.636719 22.914062 33.632812 22.246094 34.582031 21.5 C 34.078125 20.976562 33.996094 20.390625 34.335938 19.75 C 35.386719 18.441406 36.632812 17.441406 38.066406 16.75 Z M 38.066406 16.75 "/>
</g>
</defs>
<g id="surface1">
<path style=" stroke:none;fill-rule:evenodd;fill:rgb(1.960784%,3.137255%,6.27451%);fill-opacity:1;" d="M 59.464844 86.25 C 59.769531 85.28125 60.265625 84.449219 60.957031 83.75 C 63.394531 88.558594 67.210938 90.222656 72.402344 88.75 C 75.882812 87.605469 77.542969 85.269531 77.378906 81.75 C 75.835938 82.550781 74.507812 83.632812 73.398438 85 C 72.925781 85.242188 72.429688 85.324219 71.90625 85.25 C 72.234375 83.917969 72.566406 82.582031 72.898438 81.25 C 69.417969 81.25 65.933594 81.25 62.449219 81.25 C 61.613281 81.140625 61.117188 81.476562 60.957031 82.25 C 60.507812 81.894531 60.339844 81.394531 60.460938 80.75 C 65.105469 80.832031 69.75 80.75 74.390625 80.5 C 70.027344 79.960938 65.714844 79.542969 61.453125 79.25 C 67.261719 79.332031 73.066406 79.25 78.871094 79 C 81.207031 78.402344 82.867188 76.988281 83.847656 74.75 C 85.152344 72.199219 85.152344 69.699219 83.847656 67.25 C 82.578125 65.230469 82.578125 63.230469 83.847656 61.25 C 84.257812 63.128906 85.335938 63.628906 87.082031 62.75 C 89.367188 52.90625 89.367188 43.070312 87.082031 33.25 C 85.871094 32.003906 84.625 32.003906 83.347656 33.25 C 82.851562 31.558594 83.015625 29.894531 83.847656 28.25 C 85.667969 23.800781 84.507812 20.214844 80.363281 17.5 C 79.226562 17.089844 78.0625 16.753906 76.878906 16.5 C 69.253906 16.25 61.621094 16.167969 53.992188 16.25 C 55.886719 15.839844 57.878906 15.589844 59.960938 15.5 C 59.296875 15.167969 59.296875 14.832031 59.960938 14.5 C 59.628906 14.332031 59.296875 14.167969 58.964844 14 C 59.5 13.136719 59.585938 12.21875 59.214844 11.25 C 58.726562 11.585938 58.144531 11.585938 57.472656 11.25 C 57.023438 10.855469 56.695312 10.355469 56.476562 9.75 C 56.859375 8.601562 56.859375 7.601562 56.476562 6.75 C 57.628906 7.574219 58.625 8.574219 59.464844 9.75 C 63.625 3.464844 69.097656 2.046875 75.886719 5.5 C 79.058594 7.976562 80.882812 11.226562 81.359375 15.25 C 84.992188 17.394531 86.984375 20.5625 87.332031 24.75 C 90.753906 23.199219 93.988281 23.53125 97.035156 25.75 C 97.816406 28.125 98.644531 30.457031 99.523438 32.75 C 99.464844 35.085938 99.964844 37.253906 101.015625 39.25 C 101.355469 40.691406 101.273438 42.105469 100.765625 43.5 C 103.527344 46.636719 103.363281 49.636719 100.269531 52.5 C 101.074219 54.835938 100.746094 57.003906 99.273438 59 C 99.5 59.652344 99.667969 60.316406 99.769531 61 C 98.722656 63.648438 97.976562 66.398438 97.53125 69.25 C 96.746094 70.019531 95.832031 70.605469 94.792969 71 C 92.292969 71.292969 89.804688 71.210938 87.332031 70.75 C 86.761719 75.234375 84.523438 78.566406 80.613281 80.75 C 79.925781 87.523438 76.195312 91.1875 69.417969 91.75 C 65.023438 91.714844 61.707031 89.878906 59.464844 86.25 Z M 59.464844 86.25 "/>
<path style=" stroke:none;fill-rule:evenodd;fill:rgb(3.137255%,1.960784%,4.313725%);fill-opacity:1;" d="M 57.472656 11.25 C 58.144531 11.585938 58.726562 11.585938 59.214844 11.25 C 59.585938 12.21875 59.5 13.136719 58.964844 14 C 59.296875 14.167969 59.628906 14.332031 59.960938 14.5 C 59.296875 14.832031 59.296875 15.167969 59.960938 15.5 C 57.878906 15.589844 55.886719 15.839844 53.992188 16.25 C 52.382812 16.339844 50.890625 16.671875 49.511719 17.25 C 38.664062 20.074219 33.355469 27.160156 33.589844 38.5 C 33.734375 42.085938 33.898438 45.667969 34.085938 49.25 C 33.230469 55.304688 33.480469 61.304688 34.832031 67.25 C 35.34375 68.621094 36.089844 69.785156 37.070312 70.75 C 37.902344 71.917969 38.894531 72.917969 40.058594 73.75 C 40.789062 74.699219 41.621094 75.53125 42.546875 76.25 C 42.625 76.9375 42.539062 77.601562 42.296875 78.25 C 41.390625 76.207031 39.816406 75.207031 37.570312 75.25 C 35.679688 73.261719 33.851562 71.179688 32.09375 69 C 31.4375 68.902344 30.777344 68.984375 30.105469 69.25 C 30.140625 67.84375 30.472656 66.511719 31.101562 65.25 C 30.683594 64.078125 30.019531 63.078125 29.109375 62.25 C 28.636719 61.476562 28.46875 60.644531 28.613281 59.75 C 25.027344 59.554688 24.863281 58.804688 28.113281 57.5 C 26.855469 57.5 25.609375 57.75 24.382812 58.25 C 23.851562 58.234375 23.4375 58.070312 23.140625 57.75 C 25.265625 57.515625 26.925781 56.515625 28.113281 54.75 C 28.054688 54.445312 27.886719 54.28125 27.617188 54.25 C 25.625 53.917969 23.636719 53.582031 21.644531 53.25 C 24.71875 52.082031 27.621094 50.582031 30.355469 48.75 C 30.277344 47.417969 29.53125 46.585938 28.113281 46.25 C 25.890625 44.378906 23.402344 42.878906 20.652344 41.75 C 22.910156 41.367188 25.230469 40.949219 27.617188 40.5 C 28.304688 39.769531 28.140625 39.351562 27.121094 39.25 C 26.71875 38.636719 26.21875 38.136719 25.625 37.75 C 25.417969 37.390625 25.085938 37.140625 24.632812 37 C 25.410156 36.132812 26.238281 35.382812 27.121094 34.75 C 28.40625 34.476562 28.902344 33.640625 28.613281 32.25 C 28.777344 32.25 28.945312 32.25 29.109375 32.25 C 29.605469 32.292969 30.019531 32.125 30.355469 31.75 C 31.070312 30.089844 31.152344 28.421875 30.601562 26.75 C 31.324219 26.414062 31.988281 26.082031 32.59375 25.75 C 32.59375 25.582031 32.59375 25.417969 32.59375 25.25 C 35.082031 22.417969 37.734375 19.75 40.554688 17.25 C 41.929688 16.808594 43.257812 16.226562 44.535156 15.5 C 44.972656 14.820312 45.140625 14.070312 45.035156 13.25 C 48.011719 13.851562 50.996094 13.851562 53.992188 13.25 C 53.992188 12.582031 53.992188 11.917969 53.992188 11.25 C 55.035156 11.238281 55.949219 11.570312 56.726562 12.25 C 57.238281 12.082031 57.488281 11.75 57.472656 11.25 Z M 57.472656 11.25 "/>
<path style=" stroke:none;fill-rule:evenodd;fill:rgb(9.411765%,49.411765%,63.921569%);fill-opacity:1;" d="M 57.972656 19.25 C 58.964844 19.25 59.960938 19.25 60.957031 19.25 C 60.035156 19.796875 59.207031 20.464844 58.46875 21.25 C 46.402344 21.273438 38.855469 27.273438 35.828125 39.25 C 35.542969 42.257812 35.625 45.257812 36.078125 48.25 C 35.136719 53.882812 34.890625 59.550781 35.332031 65.25 C 35.699219 67.03125 36.445312 68.613281 37.570312 70 C 37.292969 70.191406 37.125 70.441406 37.070312 70.75 C 36.089844 69.785156 35.34375 68.621094 34.832031 67.25 C 33.480469 61.304688 33.230469 55.304688 34.085938 49.25 C 34.847656 47.050781 35.179688 44.71875 35.082031 42.25 C 34.882812 39.40625 34.796875 36.574219 34.832031 33.75 C 35.300781 31.941406 35.632812 30.109375 35.828125 28.25 C 36.777344 27.171875 37.609375 26.003906 38.316406 24.75 C 38.480469 25.082031 38.648438 25.417969 38.8125 25.75 C 41.066406 25.328125 42.972656 24.246094 44.535156 22.5 C 48.785156 20.4375 53.261719 19.355469 57.972656 19.25 Z M 57.972656 19.25 "/>
<path style=" stroke:none;fill-rule:evenodd;fill:rgb(18.039216%,73.72549%,86.27451%);fill-opacity:1;" d="M 83.847656 28.25 C 83.015625 29.894531 82.851562 31.558594 83.347656 33.25 C 84.179688 34.910156 85.257812 36.410156 86.582031 37.75 C 86.851562 39.832031 87.101562 41.914062 87.332031 44 C 86.984375 48.410156 86.734375 52.828125 86.582031 57.25 C 85.5625 58.523438 84.648438 59.855469 83.847656 61.25 C 82.578125 63.230469 82.578125 65.230469 83.847656 67.25 C 83.847656 67.75 83.847656 68.25 83.847656 68.75 C 83.523438 68.453125 83.191406 68.121094 82.851562 67.75 C 82.511719 68.121094 82.179688 68.453125 81.855469 68.75 C 80.992188 66.988281 80.164062 65.152344 79.367188 63.25 C 78.40625 61.363281 76.996094 59.863281 75.140625 58.75 C 74.625 58.917969 74.378906 59.25 74.390625 59.75 C 66.925781 55.792969 61.699219 57.792969 58.71875 65.75 C 57.546875 70.359375 59.121094 73.441406 63.445312 75 C 67.5625 75.539062 71.542969 75.039062 75.386719 73.5 C 76.691406 72.441406 77.6875 71.191406 78.375 69.75 C 78.957031 69.640625 79.457031 69.808594 79.867188 70.25 C 78.84375 72.699219 77.183594 74.613281 74.890625 76 C 71.574219 76.167969 68.253906 76.332031 64.9375 76.5 C 66.761719 76.667969 68.585938 76.832031 70.410156 77 C 66.894531 77.417969 63.410156 77.253906 59.960938 76.5 C 59.285156 75.527344 58.867188 74.445312 58.71875 73.25 C 57.070312 72.425781 55.742188 71.261719 54.738281 69.75 C 53.660156 70.5 53.742188 71.082031 54.984375 71.5 C 54.515625 71.742188 54.015625 71.824219 53.492188 71.75 C 53.492188 71.082031 53.492188 70.417969 53.492188 69.75 C 53.492188 69.25 53.492188 68.75 53.492188 68.25 C 53.851562 68.460938 54.101562 68.792969 54.238281 69.25 C 54.324219 69 54.40625 68.75 54.488281 68.5 C 54.648438 67.03125 54.316406 65.617188 53.492188 64.25 C 51.683594 64.277344 51.601562 63.777344 53.242188 62.75 C 54.375 64.828125 54.957031 64.660156 54.984375 62.25 C 52.445312 61.132812 50.949219 61.964844 50.507812 64.75 C 48.769531 66.125 47.359375 65.792969 46.277344 63.75 C 45.945312 62.417969 45.945312 61.082031 46.277344 59.75 C 47.105469 59.417969 47.9375 59.082031 48.765625 58.75 C 48.929688 58.917969 49.097656 59.082031 49.261719 59.25 C 48.636719 56.011719 49.878906 54.09375 52.996094 53.5 C 52.273438 52.941406 51.445312 52.609375 50.507812 52.5 C 51.839844 51.828125 52.835938 50.828125 53.492188 49.5 C 53.296875 48.996094 52.964844 48.746094 52.496094 48.75 C 52.601562 48.457031 52.769531 48.207031 52.996094 48 C 51.503906 47.667969 50.007812 47.667969 48.515625 48 C 49.085938 48.371094 49.085938 48.789062 48.515625 49.25 C 47.90625 49.640625 47.242188 49.890625 46.527344 50 C 47.257812 50.355469 47.589844 50.9375 47.523438 51.75 C 46.183594 51.667969 44.855469 51.75 43.539062 52 C 44.914062 52.773438 44.832031 53.355469 43.292969 53.75 C 43.125 53.582031 42.960938 53.417969 42.792969 53.25 C 42.308594 54.183594 42.058594 55.183594 42.046875 56.25 C 41.613281 56.625 41.113281 56.875 40.554688 57 C 42.078125 58.289062 41.828125 59.039062 39.808594 59.25 C 38.496094 58.644531 37.914062 59.144531 38.066406 60.75 C 39.332031 60.949219 40.410156 60.613281 41.300781 59.75 C 41.761719 60.023438 42.175781 60.355469 42.546875 60.75 C 40.804688 61.503906 39.0625 61.671875 37.320312 61.25 C 36.945312 62.40625 37.191406 63.40625 38.066406 64.25 C 37.886719 64.589844 37.71875 64.925781 37.570312 65.25 C 37.523438 68.324219 38.683594 70.824219 41.050781 72.75 C 40.886719 73.25 40.554688 73.582031 40.058594 73.75 C 38.894531 72.917969 37.902344 71.917969 37.070312 70.75 C 37.125 70.441406 37.292969 70.191406 37.570312 70 C 36.445312 68.613281 35.699219 67.03125 35.332031 65.25 C 34.890625 59.550781 35.136719 53.882812 36.078125 48.25 C 35.625 45.257812 35.542969 42.257812 35.828125 39.25 C 38.855469 27.273438 46.402344 21.273438 58.46875 21.25 C 58.050781 21.421875 57.886719 21.753906 57.972656 22.25 C 57.207031 23.316406 56.875 24.566406 56.976562 26 C 57.300781 32.828125 60.453125 37.828125 66.429688 41 C 70.199219 41.824219 73.433594 40.910156 76.132812 38.25 C 76.109375 39.375 75.527344 40.210938 74.390625 40.75 C 74.496094 41.042969 74.664062 41.292969 74.890625 41.5 C 73.003906 42.558594 71.429688 43.976562 70.164062 45.75 C 69.839844 50.007812 71.746094 52.007812 75.886719 51.75 C 77.605469 52.296875 79.347656 52.796875 81.109375 53.25 C 83.140625 52.921875 83.804688 51.753906 83.101562 49.75 C 81.890625 49.019531 80.648438 48.351562 79.367188 47.75 C 80.648438 47.148438 81.890625 46.480469 83.101562 45.75 C 83.425781 44.882812 83.34375 44.050781 82.851562 43.25 C 81.191406 42.667969 79.53125 42.667969 77.875 43.25 C 76.066406 43.277344 75.984375 42.777344 77.625 41.75 C 78.011719 39.976562 78.675781 38.308594 79.617188 36.75 C 80.027344 32.660156 79.945312 28.660156 79.367188 24.75 C 79.320312 23.605469 78.988281 22.605469 78.375 21.75 C 78.375 21.25 78.375 20.75 78.375 20.25 C 79.925781 20.320312 81.167969 20.988281 82.105469 22.25 C 83.003906 24.214844 83.585938 26.214844 83.847656 28.25 Z M 83.847656 28.25 "/>
<use xlink:href="#surface5" mask="url(#mask0)"/>
<path style=" stroke:none;fill-rule:evenodd;fill:rgb(7.45098%,50.980392%,66.666667%);fill-opacity:1;" d="M 89.320312 32.25 C 91.21875 31.675781 93.207031 31.59375 95.292969 32 C 97.703125 32.679688 98.367188 34.179688 97.28125 36.5 C 95.796875 36.75 94.304688 36.832031 92.804688 36.75 C 92.804688 35.25 92.804688 33.75 92.804688 32.25 C 91.644531 32.25 90.480469 32.25 89.320312 32.25 Z M 89.320312 32.25 "/>
<path style=" stroke:none;fill-rule:evenodd;fill:rgb(71.764706%,91.372549%,93.333333%);fill-opacity:1;" d="M 40.058594 32.75 C 40.554688 32.75 41.050781 32.75 41.550781 32.75 C 41.550781 33.582031 41.550781 34.417969 41.550781 35.25 C 40.886719 35.25 40.222656 35.25 39.558594 35.25 C 39.625 34.390625 39.789062 33.558594 40.058594 32.75 Z M 40.058594 32.75 "/>
<path style=" stroke:none;fill-rule:evenodd;fill:rgb(10.980392%,70.196078%,86.27451%);fill-opacity:1;" d="M 89.320312 32.25 C 90.480469 32.25 91.644531 32.25 92.804688 32.25 C 92.804688 33.75 92.804688 35.25 92.804688 36.75 C 91.808594 36.75 90.8125 36.75 89.816406 36.75 C 89.585938 35.257812 89.421875 33.757812 89.320312 32.25 Z M 89.320312 32.25 "/>
<path style=" stroke:none;fill-rule:evenodd;fill:rgb(72.941176%,33.333333%,18.039216%);fill-opacity:1;" d="M 8.707031 31.75 C 8.707031 32.417969 8.707031 33.082031 8.707031 33.75 C 15.019531 33.703125 21.320312 33.871094 27.617188 34.25 C 27.445312 33.257812 27.777344 32.589844 28.613281 32.25 C 28.902344 33.640625 28.40625 34.476562 27.121094 34.75 C 21.484375 34.328125 15.84375 34.242188 10.199219 34.5 C 9.703125 34.75 9.207031 35 8.707031 35.25 C 8.0625 34.011719 8.0625 32.847656 8.707031 31.75 Z M 8.707031 31.75 "/>
<path style=" stroke:none;fill-rule:evenodd;fill:rgb(90.980392%,40.392157%,12.941176%);fill-opacity:1;" d="M 38.066406 16.75 C 36.632812 17.441406 35.386719 18.441406 34.335938 19.75 C 33.996094 20.390625 34.078125 20.976562 34.582031 21.5 C 33.632812 22.246094 32.636719 22.914062 31.597656 23.5 C 32.257812 23.90625 32.589844 24.492188 32.59375 25.25 C 32.59375 25.417969 32.59375 25.582031 32.59375 25.75 C 31.765625 25.75 30.933594 25.75 30.105469 25.75 C 30.445312 27.660156 29.949219 29.242188 28.613281 30.5 C 28.855469 31.070312 29.023438 31.652344 29.109375 32.25 C 28.945312 32.25 28.777344 32.25 28.613281 32.25 C 27.777344 32.589844 27.445312 33.257812 27.617188 34.25 C 21.320312 33.871094 15.019531 33.703125 8.707031 33.75 C 8.707031 33.082031 8.707031 32.417969 8.707031 31.75 C 8.707031 31.582031 8.707031 31.417969 8.707031 31.25 C 9.089844 30.867188 9.339844 30.367188 9.453125 29.75 C 9.480469 30.871094 9.894531 31.707031 10.699219 32.25 C 13.335938 31.863281 15.988281 31.695312 18.660156 31.75 C 20.101562 31.839844 21.511719 31.675781 22.890625 31.25 C 24.34375 29.976562 25.921875 28.894531 27.617188 28 C 27.339844 27.636719 27.171875 27.222656 27.121094 26.75 C 27.355469 25.285156 27.851562 23.953125 28.613281 22.75 C 30.019531 21.765625 31.511719 20.847656 33.089844 20 C 33.90625 19.433594 34.40625 18.683594 34.582031 17.75 C 34.582031 17.25 34.582031 16.75 34.582031 16.25 C 35.242188 16.335938 35.820312 16.167969 36.324219 15.75 C 36.679688 16.488281 37.257812 16.820312 38.066406 16.75 Z M 38.066406 16.75 "/>
<path style=" stroke:none;fill-rule:evenodd;fill:rgb(61.176471%,21.176471%,12.54902%);fill-opacity:1;" d="M 32.59375 25.75 C 31.988281 26.082031 31.324219 26.414062 30.601562 26.75 C 31.152344 28.421875 31.070312 30.089844 30.355469 31.75 C 30.019531 32.125 29.605469 32.292969 29.109375 32.25 C 29.023438 31.652344 28.855469 31.070312 28.613281 30.5 C 29.949219 29.242188 30.445312 27.660156 30.105469 25.75 C 30.933594 25.75 31.765625 25.75 32.59375 25.75 Z M 32.59375 25.75 "/>
<path style=" stroke:none;fill-rule:evenodd;fill:rgb(14.509804%,54.117647%,68.627451%);fill-opacity:1;" d="M 88.824219 26.75 C 90.65625 26.667969 92.480469 26.75 94.296875 27 C 97.066406 28.851562 96.734375 30.015625 93.300781 30.5 C 91.476562 30.832031 89.652344 30.832031 87.828125 30.5 C 86.34375 28.710938 86.675781 27.460938 88.824219 26.75 Z M 88.824219 26.75 "/>
<use xlink:href="#surface8" mask="url(#mask1)"/>
<path style=" stroke:none;fill-rule:evenodd;fill:rgb(98.823529%,53.333333%,17.647059%);fill-opacity:1;" d="M 28.613281 22.75 C 27.851562 23.953125 27.355469 25.285156 27.121094 26.75 C 27.171875 27.222656 27.339844 27.636719 27.617188 28 C 25.921875 28.894531 24.34375 29.976562 22.890625 31.25 C 21.511719 31.675781 20.101562 31.839844 18.660156 31.75 C 22.101562 30.546875 21.9375 29.796875 18.164062 29.5 C 20.558594 28.972656 22.882812 28.140625 25.128906 27 C 26.242188 26.011719 26.90625 24.761719 27.121094 23.25 C 27.574219 22.9375 28.074219 22.769531 28.613281 22.75 Z M 28.613281 22.75 "/>
<path style=" stroke:none;fill-rule:evenodd;fill:rgb(89.803922%,50.196078%,15.686275%);fill-opacity:1;" d="M 23.140625 16.75 C 23.410156 16.78125 23.574219 16.945312 23.636719 17.25 C 21.625 18.339844 19.46875 19.089844 17.167969 19.5 C 13.203125 22.140625 10.878906 25.804688 10.199219 30.5 C 10.273438 31.128906 10.441406 31.710938 10.699219 32.25 C 9.894531 31.707031 9.480469 30.871094 9.453125 29.75 C 9.339844 30.367188 9.089844 30.867188 8.707031 31.25 C 9.277344 24.085938 12.925781 19.417969 19.65625 17.25 C 20.929688 17.402344 22.089844 17.234375 23.140625 16.75 Z M 23.140625 16.75 "/>
<path style=" stroke:none;fill-rule:evenodd;fill:rgb(100%,80.784314%,35.686275%);fill-opacity:1;" d="M 34.085938 9.75 C 35.65625 9.800781 36.984375 10.386719 38.066406 11.5 C 37.734375 11.832031 37.402344 12.167969 37.070312 12.5 C 32.222656 12.550781 31.394531 14.300781 34.582031 17.75 C 34.40625 18.683594 33.90625 19.433594 33.089844 20 C 31.511719 20.847656 30.019531 21.765625 28.613281 22.75 C 28.074219 22.769531 27.574219 22.9375 27.121094 23.25 C 26.90625 24.761719 26.242188 26.011719 25.128906 27 C 22.882812 28.140625 20.558594 28.972656 18.164062 29.5 C 21.9375 29.796875 22.101562 30.546875 18.660156 31.75 C 15.988281 31.695312 13.335938 31.863281 10.699219 32.25 C 10.441406 31.710938 10.273438 31.128906 10.199219 30.5 C 10.878906 25.804688 13.203125 22.140625 17.167969 19.5 C 19.46875 19.089844 21.625 18.339844 23.636719 17.25 C 23.574219 16.945312 23.410156 16.78125 23.140625 16.75 C 23.140625 15.917969 23.140625 15.082031 23.140625 14.25 C 22.308594 14.25 21.480469 14.25 20.652344 14.25 C 20.652344 13.582031 20.652344 12.917969 20.652344 12.25 C 21.496094 12.332031 22.324219 12.246094 23.140625 12 C 23.898438 11.054688 24.894531 10.554688 26.125 10.5 C 28.75 9.953125 31.40625 9.703125 34.085938 9.75 Z M 34.085938 9.75 "/>
<path style=" stroke:none;fill-rule:evenodd;fill:rgb(33.72549%,47.45098%,55.294118%);fill-opacity:1;" d="M 78.375 21.75 C 78.988281 22.605469 79.320312 23.605469 79.367188 24.75 C 79.328125 28.671875 78.003906 32.003906 75.386719 34.75 C 79.625 25.269531 76.554688 20.433594 66.183594 20.25 C 60.375 19.742188 57.804688 22.410156 58.46875 28.25 C 57.980469 26.351562 57.8125 24.351562 57.972656 22.25 C 57.886719 21.753906 58.050781 21.421875 58.46875 21.25 C 59.207031 20.464844 60.035156 19.796875 60.957031 19.25 C 65.601562 18.566406 70.246094 18.648438 74.890625 19.5 C 76.113281 20.230469 77.191406 21.144531 78.125 22.25 C 78.324219 22.136719 78.40625 21.96875 78.375 21.75 Z M 78.375 21.75 "/>
<path style=" stroke:none;fill-rule:evenodd;fill:rgb(0.784314%,0.784314%,5.490196%);fill-opacity:1;" d="M 75.386719 34.75 C 71.519531 38.640625 67.207031 39.222656 62.449219 36.5 C 60.125 34.246094 58.800781 31.496094 58.46875 28.25 C 57.804688 22.410156 60.375 19.742188 66.183594 20.25 C 76.554688 20.433594 79.625 25.269531 75.386719 34.75 Z M 75.386719 34.75 "/>
<use xlink:href="#surface11" mask="url(#mask2)"/>
<path style=" stroke:none;fill-rule:evenodd;fill:rgb(9.803922%,41.176471%,55.686275%);fill-opacity:1;" d="M 49.511719 17.25 C 52.351562 17.085938 55.171875 17.253906 57.972656 17.75 C 57.710938 18.097656 57.378906 18.347656 56.976562 18.5 C 57.433594 18.640625 57.761719 18.890625 57.972656 19.25 C 53.261719 19.355469 48.785156 20.4375 44.535156 22.5 C 42.972656 24.246094 41.066406 25.328125 38.8125 25.75 C 38.648438 25.417969 38.480469 25.082031 38.316406 24.75 C 37.609375 26.003906 36.777344 27.171875 35.828125 28.25 C 35.632812 30.109375 35.300781 31.941406 34.832031 33.75 C 34.796875 36.574219 34.882812 39.40625 35.082031 42.25 C 35.179688 44.71875 34.847656 47.050781 34.085938 49.25 C 33.898438 45.667969 33.734375 42.085938 33.589844 38.5 C 33.355469 27.160156 38.664062 20.074219 49.511719 17.25 Z M 49.511719 17.25 "/>
<path style=" stroke:none;fill-rule:evenodd;fill:rgb(15.686275%,36.078431%,47.843137%);fill-opacity:1;" d="M 53.992188 16.25 C 61.621094 16.167969 69.253906 16.25 76.878906 16.5 C 78.0625 16.753906 79.226562 17.089844 80.363281 17.5 C 84.507812 20.214844 85.667969 23.800781 83.847656 28.25 C 83.585938 26.214844 83.003906 24.214844 82.105469 22.25 C 81.167969 20.988281 79.925781 20.320312 78.375 20.25 C 78.375 20.75 78.375 21.25 78.375 21.75 C 78.40625 21.96875 78.324219 22.136719 78.125 22.25 C 77.191406 21.144531 76.113281 20.230469 74.890625 19.5 C 70.246094 18.648438 65.601562 18.566406 60.957031 19.25 C 59.960938 19.25 58.964844 19.25 57.972656 19.25 C 57.761719 18.890625 57.433594 18.640625 56.976562 18.5 C 57.378906 18.347656 57.710938 18.097656 57.972656 17.75 C 55.171875 17.253906 52.351562 17.085938 49.511719 17.25 C 50.890625 16.671875 52.382812 16.339844 53.992188 16.25 Z M 53.992188 16.25 "/>
<path style=" stroke:none;fill-rule:evenodd;fill:rgb(32.941176%,3.921569%,3.529412%);fill-opacity:1;" d="M 20.652344 16.25 C 21.503906 16.3125 22.335938 16.480469 23.140625 16.75 C 22.089844 17.234375 20.929688 17.402344 19.65625 17.25 C 19.988281 16.917969 20.320312 16.582031 20.652344 16.25 Z M 20.652344 16.25 "/>
<path style=" stroke:none;fill-rule:evenodd;fill:rgb(99.215686%,58.039216%,16.078431%);fill-opacity:1;" d="M 33.089844 8.75 C 35.476562 8.726562 37.632812 9.3125 39.558594 10.5 C 38.363281 11.234375 38.449219 11.984375 39.808594 12.75 C 40.054688 13.566406 40.136719 14.402344 40.058594 15.25 C 39.441406 15.828125 38.777344 16.328125 38.066406 16.75 C 37.257812 16.820312 36.679688 16.488281 36.324219 15.75 C 35.820312 16.167969 35.242188 16.335938 34.582031 16.25 C 34.582031 16.75 34.582031 17.25 34.582031 17.75 C 31.394531 14.300781 32.222656 12.550781 37.070312 12.5 C 37.402344 12.167969 37.734375 11.832031 38.066406 11.5 C 36.984375 10.386719 35.65625 9.800781 34.085938 9.75 C 33.027344 9.34375 31.863281 9.09375 30.601562 9 C 31.414062 8.753906 32.246094 8.667969 33.089844 8.75 Z M 33.089844 8.75 "/>
<path style=" stroke:none;fill-rule:evenodd;fill:rgb(5.098039%,21.568627%,33.333333%);fill-opacity:1;" d="M 72.402344 12.75 C 72.851562 13.105469 73.015625 13.605469 72.898438 14.25 C 68.992188 14.414062 65.175781 14.246094 61.453125 13.75 C 65.308594 14.066406 68.957031 13.730469 72.402344 12.75 Z M 72.402344 12.75 "/>
<path style=" stroke:none;fill-rule:evenodd;fill:rgb(96.078431%,93.333333%,76.470588%);fill-opacity:1;" d="M 25.625 13.25 C 26.457031 13.25 27.285156 13.25 28.113281 13.25 C 28.289062 14.316406 27.875 14.984375 26.871094 15.25 C 26.078125 14.820312 25.664062 14.15625 25.625 13.25 Z M 25.625 13.25 "/>
<path style=" stroke:none;fill-rule:evenodd;fill:rgb(79.607843%,31.372549%,12.156863%);fill-opacity:1;" d="M 56.476562 9.75 C 56.695312 10.355469 57.023438 10.855469 57.472656 11.25 C 57.488281 11.75 57.238281 12.082031 56.726562 12.25 C 55.949219 11.570312 55.035156 11.238281 53.992188 11.25 C 53.992188 11.917969 53.992188 12.582031 53.992188 13.25 C 50.996094 13.851562 48.011719 13.851562 45.035156 13.25 C 45.140625 14.070312 44.972656 14.820312 44.535156 15.5 C 43.257812 16.226562 41.929688 16.808594 40.554688 17.25 C 40.511719 16.753906 40.679688 16.335938 41.050781 16 C 41.714844 15.832031 42.378906 15.667969 43.042969 15.5 C 42.640625 15.347656 42.308594 15.097656 42.046875 14.75 C 43.101562 14.238281 43.929688 13.488281 44.535156 12.5 C 45.007812 12.257812 45.503906 12.175781 46.027344 12.25 C 46.023438 10.675781 46.523438 9.34375 47.523438 8.25 C 48 8.476562 48.414062 8.808594 48.765625 9.25 C 48.316406 7.683594 47.570312 6.183594 46.527344 4.75 C 46.773438 4.582031 47.023438 4.417969 47.273438 4.25 C 50.867188 5.261719 53.933594 7.09375 56.476562 9.75 Z M 56.476562 9.75 "/>
<path style=" stroke:none;fill-rule:evenodd;fill:rgb(89.411765%,37.647059%,8.627451%);fill-opacity:1;" d="M 44.535156 6.25 C 45.667969 6.71875 46.660156 7.386719 47.523438 8.25 C 46.523438 9.34375 46.023438 10.675781 46.027344 12.25 C 45.503906 12.175781 45.007812 12.257812 44.535156 12.5 C 43.929688 13.488281 43.101562 14.238281 42.046875 14.75 C 42.308594 15.097656 42.640625 15.347656 43.042969 15.5 C 42.378906 15.667969 41.714844 15.832031 41.050781 16 C 40.679688 16.335938 40.511719 16.753906 40.554688 17.25 C 39.75 16.980469 38.921875 16.8125 38.066406 16.75 C 38.777344 16.328125 39.441406 15.828125 40.058594 15.25 C 40.359375 12.902344 40.859375 10.566406 41.550781 8.25 C 40.503906 8.160156 39.671875 7.660156 39.0625 6.75 C 39.601562 6.625 40.265625 6.542969 41.050781 6.5 C 40.777344 6.308594 40.609375 6.058594 40.554688 5.75 C 40.761719 5.4375 41.09375 5.269531 41.550781 5.25 C 42.554688 5.589844 43.546875 5.921875 44.535156 6.25 Z M 44.535156 6.25 "/>
<path style=" stroke:none;fill-rule:evenodd;fill:rgb(11.372549%,37.254902%,51.764706%);fill-opacity:1;" d="M 73.398438 7.25 C 75.761719 8.710938 77.257812 10.792969 77.875 13.5 C 77.210938 13.832031 76.546875 13.832031 75.886719 13.5 C 74.785156 11.136719 72.960938 9.886719 70.410156 9.75 C 71.707031 9.28125 72.703125 8.445312 73.398438 7.25 Z M 73.398438 7.25 "/>
<path style=" stroke:none;fill-rule:evenodd;fill:rgb(6.666667%,47.843137%,62.745098%);fill-opacity:1;" d="M 71.40625 6.75 C 72.070312 6.917969 72.734375 7.082031 73.398438 7.25 C 72.703125 8.445312 71.707031 9.28125 70.410156 9.75 C 71.285156 10.621094 71.945312 11.621094 72.402344 12.75 C 68.957031 13.730469 65.308594 14.066406 61.453125 13.75 C 60.8125 12.660156 60.976562 11.660156 61.953125 10.75 C 65.628906 10.652344 68.777344 9.320312 71.40625 6.75 Z M 71.40625 6.75 "/>
<path style=" stroke:none;fill-rule:evenodd;fill:rgb(98.039216%,64.705882%,23.137255%);fill-opacity:1;" d="M 29.109375 7.75 C 30.539062 7.902344 31.867188 8.234375 33.089844 8.75 C 32.246094 8.667969 31.414062 8.753906 30.601562 9 C 31.863281 9.09375 33.027344 9.34375 34.085938 9.75 C 31.40625 9.703125 28.75 9.953125 26.125 10.5 C 24.894531 10.554688 23.898438 11.054688 23.140625 12 C 22.324219 12.246094 21.496094 12.332031 20.652344 12.25 C 20.652344 12.917969 20.652344 13.582031 20.652344 14.25 C 21.480469 14.25 22.308594 14.25 23.140625 14.25 C 23.140625 15.082031 23.140625 15.917969 23.140625 16.75 C 22.335938 16.480469 21.503906 16.3125 20.652344 16.25 C 18.742188 15.636719 18.246094 14.46875 19.15625 12.75 C 22.085938 10.21875 25.40625 8.550781 29.109375 7.75 Z M 29.109375 7.75 "/>
<path style=" stroke:none;fill-rule:evenodd;fill:rgb(16.862745%,63.137255%,75.686275%);fill-opacity:1;" d="M 71.40625 6.75 C 68.777344 9.320312 65.628906 10.652344 61.953125 10.75 C 62.691406 8.921875 64.019531 7.671875 65.933594 7 C 67.75 6.75 69.574219 6.667969 71.40625 6.75 Z M 71.40625 6.75 "/>
<path style=" stroke:none;fill-rule:evenodd;fill:rgb(96.078431%,48.235294%,13.333333%);fill-opacity:1;" d="M 39.0625 5.75 C 39.558594 5.75 40.058594 5.75 40.554688 5.75 C 40.609375 6.058594 40.777344 6.308594 41.050781 6.5 C 40.265625 6.542969 39.601562 6.625 39.0625 6.75 C 39.671875 7.660156 40.503906 8.160156 41.550781 8.25 C 40.859375 10.566406 40.359375 12.902344 40.058594 15.25 C 40.136719 14.402344 40.054688 13.566406 39.808594 12.75 C 38.449219 11.984375 38.363281 11.234375 39.558594 10.5 C 37.632812 9.3125 35.476562 8.726562 33.089844 8.75 C 31.867188 8.234375 30.539062 7.902344 29.109375 7.75 C 28.742188 7.816406 28.410156 7.730469 28.113281 7.5 C 29.441406 7.332031 30.769531 7.167969 32.09375 7 C 34.242188 5.851562 36.5625 5.4375 39.0625 5.75 Z M 39.0625 5.75 "/>
<path style=" stroke:none;fill-rule:evenodd;fill:rgb(90.588235%,50.196078%,20.392157%);fill-opacity:1;" d="M 39.0625 5.25 C 39.0625 5.417969 39.0625 5.582031 39.0625 5.75 C 36.5625 5.4375 34.242188 5.851562 32.09375 7 C 30.769531 7.167969 29.441406 7.332031 28.113281 7.5 C 28.410156 7.730469 28.742188 7.816406 29.109375 7.75 C 25.40625 8.550781 22.085938 10.21875 19.15625 12.75 C 19.601562 11.632812 20.265625 10.632812 21.148438 9.75 C 26.398438 5.597656 32.371094 4.097656 39.0625 5.25 Z M 39.0625 5.25 "/>
<path style=" stroke:none;fill-rule:evenodd;fill:rgb(74.509804%,34.509804%,18.431373%);fill-opacity:1;" d="M 44.535156 6.25 C 43.546875 5.921875 42.554688 5.589844 41.550781 5.25 C 41.09375 5.269531 40.761719 5.4375 40.554688 5.75 C 40.058594 5.75 39.558594 5.75 39.0625 5.75 C 39.0625 5.582031 39.0625 5.417969 39.0625 5.25 C 38.667969 4.601562 38.171875 4.019531 37.570312 3.5 C 40.511719 2.894531 42.832031 3.8125 44.535156 6.25 Z M 44.535156 6.25 "/>
<path style=" stroke:none;fill-rule:evenodd;fill:rgb(74.901961%,32.54902%,14.901961%);fill-opacity:1;" d="M 25.625 37.75 C 26.21875 38.136719 26.71875 38.636719 27.121094 39.25 C 26.757812 40.023438 26.09375 40.4375 25.128906 40.5 C 22.980469 40.75 20.824219 40.832031 18.660156 40.75 C 19.617188 40.371094 20.945312 40.039062 22.640625 39.75 C 22.210938 38.902344 21.546875 38.320312 20.652344 38 C 18.164062 37.667969 15.675781 37.667969 13.1875 38 C 12.570312 38.117188 12.074219 38.367188 11.695312 38.75 C 10.410156 38.511719 9.414062 38.847656 8.707031 39.75 C 8.15625 39.777344 7.660156 39.945312 7.214844 40.25 C 6.882812 40.25 6.550781 40.25 6.21875 40.25 C 7.699219 38.667969 9.523438 37.585938 11.695312 37 C 16.386719 36.550781 21.03125 36.800781 25.625 37.75 Z M 25.625 37.75 "/>
<path style=" stroke:none;fill-rule:evenodd;fill:rgb(8.627451%,52.54902%,67.45098%);fill-opacity:1;" d="M 94.296875 38.75 C 98.554688 38.265625 99.714844 39.847656 97.78125 43.5 C 96.296875 43.75 94.804688 43.832031 93.300781 43.75 C 94.714844 42.3125 95.046875 40.648438 94.296875 38.75 Z M 94.296875 38.75 "/>
<path style=" stroke:none;fill-rule:evenodd;fill:rgb(14.509804%,59.607843%,72.54902%);fill-opacity:1;" d="M 57.972656 22.25 C 57.8125 24.351562 57.980469 26.351562 58.46875 28.25 C 58.800781 31.496094 60.125 34.246094 62.449219 36.5 C 67.207031 39.222656 71.519531 38.640625 75.386719 34.75 C 78.003906 32.003906 79.328125 28.671875 79.367188 24.75 C 79.945312 28.660156 80.027344 32.660156 79.617188 36.75 C 78.675781 38.308594 78.011719 39.976562 77.625 41.75 C 75.984375 42.777344 76.066406 43.277344 77.875 43.25 C 75.839844 43.910156 73.929688 44.910156 72.152344 46.25 C 71.703125 49.21875 72.949219 51.050781 75.886719 51.75 C 71.746094 52.007812 69.839844 50.007812 70.164062 45.75 C 71.429688 43.976562 73.003906 42.558594 74.890625 41.5 C 74.664062 41.292969 74.496094 41.042969 74.390625 40.75 C 75.527344 40.210938 76.109375 39.375 76.132812 38.25 C 73.433594 40.910156 70.199219 41.824219 66.429688 41 C 60.453125 37.828125 57.300781 32.828125 56.976562 26 C 56.875 24.566406 57.207031 23.316406 57.972656 22.25 Z M 57.972656 22.25 "/>
<path style=" stroke:none;fill-rule:evenodd;fill:rgb(41.568627%,14.901961%,8.235294%);fill-opacity:1;" d="M 27.121094 39.25 C 28.140625 39.351562 28.304688 39.769531 27.617188 40.5 C 25.230469 40.949219 22.910156 41.367188 20.652344 41.75 C 19.90625 41.503906 19.242188 41.171875 18.660156 40.75 C 20.824219 40.832031 22.980469 40.75 25.128906 40.5 C 26.09375 40.4375 26.757812 40.023438 27.121094 39.25 Z M 27.121094 39.25 "/>
<path style=" stroke:none;fill-rule:evenodd;fill:rgb(13.333333%,65.882353%,81.176471%);fill-opacity:1;" d="M 94.296875 38.75 C 95.046875 40.648438 94.714844 42.3125 93.300781 43.75 C 92.304688 43.75 91.3125 43.75 90.316406 43.75 C 90.316406 42.082031 90.316406 40.417969 90.316406 38.75 C 91.644531 38.75 92.96875 38.75 94.296875 38.75 Z M 94.296875 38.75 "/>
<path style=" stroke:none;fill-rule:evenodd;fill:rgb(87.058824%,36.862745%,11.372549%);fill-opacity:1;" d="M 18.660156 40.75 C 19.242188 41.171875 19.90625 41.503906 20.652344 41.75 C 23.402344 42.878906 25.890625 44.378906 28.113281 46.25 C 26.324219 45.898438 24.582031 45.398438 22.890625 44.75 C 22.722656 44.917969 22.558594 45.082031 22.390625 45.25 C 20.0625 44 17.65625 43 15.175781 42.25 C 15.207031 41.203125 15.707031 40.453125 16.667969 40 C 15.25 38.875 13.59375 38.460938 11.695312 38.75 C 12.074219 38.367188 12.570312 38.117188 13.1875 38 C 15.675781 37.667969 18.164062 37.667969 20.652344 38 C 21.546875 38.320312 22.210938 38.902344 22.640625 39.75 C 20.945312 40.039062 19.617188 40.371094 18.660156 40.75 Z M 18.660156 40.75 "/>
<path style=" stroke:none;fill-rule:evenodd;fill:rgb(100%,83.529412%,43.921569%);fill-opacity:1;" d="M 13.683594 40.75 C 8.976562 41.480469 5.992188 44.148438 4.726562 48.75 C 4.230469 48.765625 3.898438 48.515625 3.730469 48 C 4.386719 46.308594 4.800781 44.558594 4.976562 42.75 C 5.503906 41.671875 6.25 40.835938 7.214844 40.25 C 7.660156 39.945312 8.15625 39.777344 8.707031 39.75 C 10.527344 39.160156 12.351562 39.160156 14.183594 39.75 C 14 40.089844 13.835938 40.425781 13.683594 40.75 Z M 13.683594 40.75 "/>
<path style=" stroke:none;fill-rule:evenodd;fill:rgb(98.823529%,54.117647%,13.72549%);fill-opacity:1;" d="M 13.683594 40.75 C 12.210938 42.007812 10.554688 43.007812 8.707031 43.75 C 14.660156 44.703125 20.464844 46.203125 26.125 48.25 C 26.160156 49.011719 25.828125 49.511719 25.128906 49.75 C 24.390625 48.875 23.398438 48.292969 22.144531 48 C 18.554688 46.910156 14.992188 45.824219 11.445312 44.75 C 8.875 45.253906 6.800781 46.585938 5.226562 48.75 C 5.058594 48.75 4.894531 48.75 4.726562 48.75 C 5.992188 44.148438 8.976562 41.480469 13.683594 40.75 Z M 13.683594 40.75 "/>
<path style=" stroke:none;fill-rule:evenodd;fill:rgb(98.039216%,45.882353%,10.588235%);fill-opacity:1;" d="M 11.695312 38.75 C 13.59375 38.460938 15.25 38.875 16.667969 40 C 15.707031 40.453125 15.207031 41.203125 15.175781 42.25 C 17.65625 43 20.0625 44 22.390625 45.25 C 22.558594 45.082031 22.722656 44.917969 22.890625 44.75 C 24.582031 45.398438 26.324219 45.898438 28.113281 46.25 C 27.675781 47.042969 27.261719 47.875 26.871094 48.75 C 26.679688 48.472656 26.429688 48.304688 26.125 48.25 C 20.464844 46.203125 14.660156 44.703125 8.707031 43.75 C 10.554688 43.007812 12.210938 42.007812 13.683594 40.75 C 13.835938 40.425781 14 40.089844 14.183594 39.75 C 12.351562 39.160156 10.527344 39.160156 8.707031 39.75 C 9.414062 38.847656 10.410156 38.511719 11.695312 38.75 Z M 11.695312 38.75 "/>
<path style=" stroke:none;fill-rule:evenodd;fill:rgb(1.960784%,3.137255%,7.058824%);fill-opacity:1;" d="M 75.886719 51.75 C 72.949219 51.050781 71.703125 49.21875 72.152344 46.25 C 73.929688 44.910156 75.839844 43.910156 77.875 43.25 C 79.53125 42.667969 81.191406 42.667969 82.851562 43.25 C 83.34375 44.050781 83.425781 44.882812 83.101562 45.75 C 81.890625 46.480469 80.648438 47.148438 79.367188 47.75 C 80.648438 48.351562 81.890625 49.019531 83.101562 49.75 C 83.804688 51.753906 83.140625 52.921875 81.109375 53.25 C 79.347656 52.796875 77.605469 52.296875 75.886719 51.75 Z M 75.886719 51.75 "/>
<path style=" stroke:none;fill-rule:evenodd;fill:rgb(23.137255%,74.901961%,86.666667%);fill-opacity:1;" d="M 53.492188 68.25 C 52.929688 67.394531 52.097656 67.058594 51.003906 67.25 C 50.671875 69.25 51.503906 70.082031 53.492188 69.75 C 53.492188 70.417969 53.492188 71.082031 53.492188 71.75 C 54.015625 71.824219 54.515625 71.742188 54.984375 71.5 C 53.742188 71.082031 53.660156 70.5 54.738281 69.75 C 55.742188 71.261719 57.070312 72.425781 58.71875 73.25 C 58.867188 74.445312 59.285156 75.527344 59.960938 76.5 C 63.410156 77.253906 66.894531 77.417969 70.410156 77 C 68.585938 76.832031 66.761719 76.667969 64.9375 76.5 C 68.253906 76.332031 71.574219 76.167969 74.890625 76 C 77.183594 74.613281 78.84375 72.699219 79.867188 70.25 C 79.457031 69.808594 78.957031 69.640625 78.375 69.75 C 78.59375 67.464844 78.265625 65.296875 77.378906 63.25 C 78.328125 63.285156 78.910156 63.785156 79.121094 64.75 C 79.359375 64.277344 79.441406 63.777344 79.367188 63.25 C 80.164062 65.152344 80.992188 66.988281 81.855469 68.75 C 80.859375 71.746094 79.117188 74.246094 76.632812 76.25 C 76.386719 76.898438 76.304688 77.5625 76.382812 78.25 C 71.734375 78.332031 67.089844 78.25 62.449219 78 C 60.207031 77.789062 58.050781 77.371094 55.980469 76.75 C 56.75 76.417969 57.578125 76.085938 58.46875 75.75 C 57.847656 74.769531 57.019531 74.019531 55.980469 73.5 C 49.234375 73.941406 43.925781 71.441406 40.058594 66 C 39.296875 65.496094 38.46875 65.246094 37.570312 65.25 C 37.71875 64.925781 37.886719 64.589844 38.066406 64.25 C 37.191406 63.40625 36.945312 62.40625 37.320312 61.25 C 39.0625 61.671875 40.804688 61.503906 42.546875 60.75 C 42.175781 60.355469 41.761719 60.023438 41.300781 59.75 C 40.410156 60.613281 39.332031 60.949219 38.066406 60.75 C 37.914062 59.144531 38.496094 58.644531 39.808594 59.25 C 41.828125 59.039062 42.078125 58.289062 40.554688 57 C 41.113281 56.875 41.613281 56.625 42.046875 56.25 C 42.058594 55.183594 42.308594 54.183594 42.792969 53.25 C 42.960938 53.417969 43.125 53.582031 43.292969 53.75 C 44.832031 53.355469 44.914062 52.773438 43.539062 52 C 44.855469 51.75 46.183594 51.667969 47.523438 51.75 C 47.589844 50.9375 47.257812 50.355469 46.527344 50 C 47.242188 49.890625 47.90625 49.640625 48.515625 49.25 C 49.085938 48.789062 49.085938 48.371094 48.515625 48 C 50.007812 47.667969 51.503906 47.667969 52.996094 48 C 52.769531 48.207031 52.601562 48.457031 52.496094 48.75 C 52.964844 48.746094 53.296875 48.996094 53.492188 49.5 C 52.835938 50.828125 51.839844 51.828125 50.507812 52.5 C 51.445312 52.609375 52.273438 52.941406 52.996094 53.5 C 49.878906 54.09375 48.636719 56.011719 49.261719 59.25 C 49.097656 59.082031 48.929688 58.917969 48.765625 58.75 C 47.9375 59.082031 47.105469 59.417969 46.277344 59.75 C 45.945312 61.082031 45.945312 62.417969 46.277344 63.75 C 47.359375 65.792969 48.769531 66.125 50.507812 64.75 C 50.949219 61.964844 52.445312 61.132812 54.984375 62.25 C 54.957031 64.660156 54.375 64.828125 53.242188 62.75 C 51.601562 63.777344 51.683594 64.277344 53.492188 64.25 C 54.316406 65.617188 54.648438 67.03125 54.488281 68.5 C 54.40625 68.75 54.324219 69 54.238281 69.25 C 54.101562 68.792969 53.851562 68.460938 53.492188 68.25 Z M 53.492188 68.25 "/>
<path style=" stroke:none;fill-rule:evenodd;fill:rgb(100%,83.137255%,43.921569%);fill-opacity:1;" d="M 25.128906 49.75 C 22.75 50.65625 20.425781 51.65625 18.164062 52.75 C 17.417969 52.996094 16.753906 53.328125 16.171875 53.75 C 14.84375 53.75 13.519531 53.75 12.191406 53.75 C 9.992188 53.011719 7.835938 52.179688 5.722656 51.25 C 5.25 50.539062 5.082031 49.707031 5.226562 48.75 C 6.800781 46.585938 8.875 45.253906 11.445312 44.75 C 14.992188 45.824219 18.554688 46.910156 22.144531 48 C 23.398438 48.292969 24.390625 48.875 25.128906 49.75 Z M 25.128906 49.75 "/>
<path style=" stroke:none;fill-rule:evenodd;fill:rgb(98.823529%,96.470588%,90.980392%);fill-opacity:1;" d="M 9.703125 48.75 C 10.875 48.667969 12.039062 48.75 13.1875 49 C 13.625 49.679688 13.789062 50.429688 13.683594 51.25 C 12.277344 51.152344 10.949219 50.820312 9.703125 50.25 C 9.703125 49.75 9.703125 49.25 9.703125 48.75 Z M 9.703125 48.75 "/>
<path style=" stroke:none;fill-rule:evenodd;fill:rgb(10.196078%,61.568627%,77.254902%);fill-opacity:1;" d="M 91.3125 45.25 C 94.164062 45.46875 96.980469 45.886719 99.769531 46.5 C 100.59375 48.515625 99.929688 49.847656 97.78125 50.5 C 95.457031 50.832031 93.136719 50.832031 90.8125 50.5 C 90.0625 48.636719 90.226562 46.886719 91.3125 45.25 Z M 91.3125 45.25 "/>
<path style=" stroke:none;fill-rule:evenodd;fill:rgb(96.470588%,73.333333%,40.784314%);fill-opacity:1;" d="M 6.21875 40.25 C 6.550781 40.25 6.882812 40.25 7.214844 40.25 C 6.25 40.835938 5.503906 41.671875 4.976562 42.75 C 4.800781 44.558594 4.386719 46.308594 3.730469 48 C 3.898438 48.515625 4.230469 48.765625 4.726562 48.75 C 4.894531 48.75 5.058594 48.75 5.226562 48.75 C 5.082031 49.707031 5.25 50.539062 5.722656 51.25 C 4.800781 54.003906 5.796875 55.667969 8.707031 56.25 C 10.765625 56.742188 12.921875 56.910156 15.175781 56.75 C 13.78125 57.160156 12.289062 57.410156 10.699219 57.5 C 11.152344 57.640625 11.484375 57.890625 11.695312 58.25 C 4.800781 56.976562 1.980469 52.808594 3.234375 45.75 C 3.328125 43.398438 4.320312 41.5625 6.21875 40.25 Z M 6.21875 40.25 "/>
<path style=" stroke:none;fill-rule:evenodd;fill:rgb(4.705882%,53.72549%,68.627451%);fill-opacity:1;" d="M 83.847656 61.25 C 84.648438 59.855469 85.5625 58.523438 86.582031 57.25 C 86.734375 52.828125 86.984375 48.410156 87.332031 44 C 87.101562 41.914062 86.851562 39.832031 86.582031 37.75 C 85.257812 36.410156 84.179688 34.910156 83.347656 33.25 C 84.625 32.003906 85.871094 32.003906 87.082031 33.25 C 89.367188 43.070312 89.367188 52.90625 87.082031 62.75 C 85.335938 63.628906 84.257812 63.128906 83.847656 61.25 Z M 83.847656 61.25 "/>
<path style=" stroke:none;fill-rule:evenodd;fill:rgb(88.235294%,41.960784%,12.156863%);fill-opacity:1;" d="M 28.113281 46.25 C 29.53125 46.585938 30.277344 47.417969 30.355469 48.75 C 27.621094 50.582031 24.71875 52.082031 21.644531 53.25 C 21.253906 53.390625 20.921875 53.640625 20.652344 54 C 22.96875 54.25 25.289062 54.332031 27.617188 54.25 C 27.886719 54.28125 28.054688 54.445312 28.113281 54.75 C 26.925781 56.515625 25.265625 57.515625 23.140625 57.75 C 21.964844 57.835938 20.804688 58.003906 19.65625 58.25 C 18.425781 57.839844 17.101562 57.589844 15.675781 57.5 C 17.367188 57.492188 18.695312 56.828125 19.65625 55.5 C 19.324219 54.832031 18.824219 54.332031 18.164062 54 C 18.496094 53.832031 18.824219 53.667969 19.15625 53.5 C 18.703125 53.359375 18.371094 53.109375 18.164062 52.75 C 20.425781 51.65625 22.75 50.65625 25.128906 49.75 C 25.828125 49.511719 26.160156 49.011719 26.125 48.25 C 26.429688 48.304688 26.679688 48.472656 26.871094 48.75 C 27.261719 47.875 27.675781 47.042969 28.113281 46.25 Z M 28.113281 46.25 "/>
<path style=" stroke:none;fill-rule:evenodd;fill:rgb(29.803922%,7.45098%,2.352941%);fill-opacity:1;" d="M 21.644531 53.25 C 23.636719 53.582031 25.625 53.917969 27.617188 54.25 C 25.289062 54.332031 22.96875 54.25 20.652344 54 C 20.921875 53.640625 21.253906 53.390625 21.644531 53.25 Z M 21.644531 53.25 "/>
<path style=" stroke:none;fill-rule:evenodd;fill:rgb(98.823529%,97.254902%,90.980392%);fill-opacity:1;" d="M 5.722656 51.25 C 7.835938 52.179688 9.992188 53.011719 12.191406 53.75 C 13.121094 54.082031 14.117188 54.414062 15.175781 54.75 C 15.011719 55.082031 14.84375 55.417969 14.679688 55.75 C 12.714844 56.246094 10.726562 56.410156 8.707031 56.25 C 5.796875 55.667969 4.800781 54.003906 5.722656 51.25 Z M 5.722656 51.25 "/>
<path style=" stroke:none;fill-rule:evenodd;fill:rgb(16.078431%,62.352941%,80%);fill-opacity:1;" d="M 90.316406 52.75 C 92.808594 52.667969 95.296875 52.75 97.78125 53 C 99.222656 54.578125 99.054688 55.910156 97.28125 57 C 94.964844 57.25 92.644531 57.332031 90.316406 57.25 C 90.316406 55.75 90.316406 54.25 90.316406 52.75 Z M 90.316406 52.75 "/>
<path style=" stroke:none;fill-rule:evenodd;fill:rgb(99.215686%,92.54902%,74.509804%);fill-opacity:1;" d="M 12.191406 53.75 C 13.519531 53.75 14.84375 53.75 16.171875 53.75 C 17.050781 55.234375 16.71875 56.234375 15.175781 56.75 C 12.921875 56.910156 10.765625 56.742188 8.707031 56.25 C 10.726562 56.410156 12.714844 56.246094 14.679688 55.75 C 14.84375 55.417969 15.011719 55.082031 15.175781 54.75 C 14.117188 54.414062 13.121094 54.082031 12.191406 53.75 Z M 12.191406 53.75 "/>
<path style=" stroke:none;fill-rule:evenodd;fill:rgb(98.823529%,65.490196%,23.529412%);fill-opacity:1;" d="M 18.164062 52.75 C 18.371094 53.109375 18.703125 53.359375 19.15625 53.5 C 18.824219 53.667969 18.496094 53.832031 18.164062 54 C 18.824219 54.332031 19.324219 54.832031 19.65625 55.5 C 18.695312 56.828125 17.367188 57.492188 15.675781 57.5 C 17.101562 57.589844 18.425781 57.839844 19.65625 58.25 C 17 58.25 14.347656 58.25 11.695312 58.25 C 11.484375 57.890625 11.152344 57.640625 10.699219 57.5 C 12.289062 57.410156 13.78125 57.160156 15.175781 56.75 C 16.71875 56.234375 17.050781 55.234375 16.171875 53.75 C 16.753906 53.328125 17.417969 52.996094 18.164062 52.75 Z M 18.164062 52.75 "/>
<path style=" stroke:none;fill-rule:evenodd;fill:rgb(0.784314%,1.568627%,6.666667%);fill-opacity:1;" d="M 74.390625 59.75 C 75.734375 60.617188 76.730469 61.785156 77.378906 63.25 C 78.265625 65.296875 78.59375 67.464844 78.375 69.75 C 77.6875 71.191406 76.691406 72.441406 75.386719 73.5 C 71.542969 75.039062 67.5625 75.539062 63.445312 75 C 59.121094 73.441406 57.546875 70.359375 58.71875 65.75 C 61.699219 57.792969 66.925781 55.792969 74.390625 59.75 Z M 74.390625 59.75 "/>
<path style=" stroke:none;fill-rule:evenodd;fill:rgb(69.019608%,92.156863%,96.078431%);fill-opacity:1;" d="M 79.367188 63.25 C 79.441406 63.777344 79.359375 64.277344 79.121094 64.75 C 78.910156 63.785156 78.328125 63.285156 77.378906 63.25 C 76.730469 61.785156 75.734375 60.617188 74.390625 59.75 C 74.378906 59.25 74.625 58.917969 75.140625 58.75 C 76.996094 59.863281 78.40625 61.363281 79.367188 63.25 Z M 79.367188 63.25 "/>
<path style=" stroke:none;fill-rule:evenodd;fill:rgb(63.921569%,26.666667%,12.941176%);fill-opacity:1;" d="M 28.613281 59.75 C 28.46875 60.644531 28.636719 61.476562 29.109375 62.25 C 30.019531 63.078125 30.683594 64.078125 31.101562 65.25 C 30.472656 66.511719 30.140625 67.84375 30.105469 69.25 C 29.9375 69.25 29.773438 69.25 29.609375 69.25 C 29.609375 68.917969 29.609375 68.582031 29.609375 68.25 C 29.164062 66.632812 29.164062 65.046875 29.609375 63.5 C 28.257812 63.0625 27.59375 62.144531 27.617188 60.75 C 25.296875 60.917969 22.972656 61.082031 20.652344 61.25 C 17.238281 61.410156 13.921875 61.246094 10.699219 60.75 C 16.707031 60.933594 22.679688 60.601562 28.613281 59.75 Z M 28.613281 59.75 "/>
<path style=" stroke:none;fill-rule:evenodd;fill:rgb(49.803922%,27.843137%,20%);fill-opacity:1;" d="M 9.207031 60.75 C 8.726562 61.632812 8.5625 62.632812 8.707031 63.75 C 8.0625 62.652344 8.0625 61.488281 8.707031 60.25 C 9.011719 60.3125 9.175781 60.476562 9.207031 60.75 Z M 9.207031 60.75 "/>
<path style=" stroke:none;fill-rule:evenodd;fill:rgb(15.294118%,56.862745%,72.54902%);fill-opacity:1;" d="M 89.816406 59.25 C 92.3125 59.167969 94.800781 59.25 97.28125 59.5 C 97.976562 61.046875 97.644531 62.378906 96.285156 63.5 C 94.132812 63.832031 91.972656 63.832031 89.816406 63.5 C 89.3125 63.242188 88.980469 62.824219 88.824219 62.25 C 89.058594 61.203125 89.390625 60.203125 89.816406 59.25 Z M 89.816406 59.25 "/>
<path style=" stroke:none;fill-rule:evenodd;fill:rgb(97.647059%,60%,23.137255%);fill-opacity:1;" d="M 9.207031 60.75 C 9.703125 60.75 10.199219 60.75 10.699219 60.75 C 13.921875 61.246094 17.238281 61.410156 20.652344 61.25 C 21.867188 61.738281 23.195312 61.902344 24.632812 61.75 C 24.738281 62.570312 24.570312 63.320312 24.132812 64 C 24.429688 64.230469 24.761719 64.316406 25.128906 64.25 C 25.128906 64.582031 25.128906 64.917969 25.128906 65.25 C 22.992188 64.824219 20.835938 64.492188 18.660156 64.25 C 18.746094 63.589844 18.578125 63.003906 18.164062 62.5 C 15.679688 62.25 13.191406 62.167969 10.699219 62.25 C 10.78125 64.257812 10.699219 66.257812 10.449219 68.25 C 10.257812 67.972656 10.011719 67.804688 9.703125 67.75 C 9.21875 66.464844 8.886719 65.132812 8.707031 63.75 C 8.5625 62.632812 8.726562 61.632812 9.207031 60.75 Z M 9.207031 60.75 "/>
<path style=" stroke:none;fill-rule:evenodd;fill:rgb(90.980392%,38.039216%,12.54902%);fill-opacity:1;" d="M 29.609375 68.25 C 29.15625 67.894531 28.992188 67.394531 29.109375 66.75 C 27.453125 66.75 26.621094 65.917969 26.621094 64.25 C 26.125 64.25 25.625 64.25 25.128906 64.25 C 24.761719 64.316406 24.429688 64.230469 24.132812 64 C 24.570312 63.320312 24.738281 62.570312 24.632812 61.75 C 23.195312 61.902344 21.867188 61.738281 20.652344 61.25 C 22.972656 61.082031 25.296875 60.917969 27.617188 60.75 C 27.59375 62.144531 28.257812 63.0625 29.609375 63.5 C 29.164062 65.046875 29.164062 66.632812 29.609375 68.25 Z M 29.609375 68.25 "/>
<path style=" stroke:none;fill-rule:evenodd;fill:rgb(90.588235%,98.039216%,98.039216%);fill-opacity:1;" d="M 40.058594 63.75 C 40.957031 63.746094 41.785156 63.996094 42.546875 64.5 C 44.003906 65.882812 45.664062 66.964844 47.523438 67.75 C 46.667969 69.007812 45.503906 69.421875 44.039062 69 C 41.839844 67.878906 40.511719 66.128906 40.058594 63.75 Z M 40.058594 63.75 "/>
<path style=" stroke:none;fill-rule:evenodd;fill:rgb(15.686275%,57.647059%,72.54902%);fill-opacity:1;" d="M 87.332031 64.75 C 89.519531 64.710938 91.675781 64.960938 93.800781 65.5 C 94.851562 65.550781 95.683594 65.964844 96.285156 66.75 C 94.488281 69.023438 92.164062 69.773438 89.320312 69 C 86.582031 68.375 85.921875 66.960938 87.332031 64.75 Z M 87.332031 64.75 "/>
<path style=" stroke:none;fill-rule:evenodd;fill:rgb(87.45098%,97.254902%,97.647059%);fill-opacity:1;" d="M 53.492188 68.25 C 53.492188 68.75 53.492188 69.25 53.492188 69.75 C 51.503906 70.082031 50.671875 69.25 51.003906 67.25 C 52.097656 67.058594 52.929688 67.394531 53.492188 68.25 Z M 53.492188 68.25 "/>
<path style=" stroke:none;fill-rule:evenodd;fill:rgb(12.941176%,44.313725%,56.078431%);fill-opacity:1;" d="M 83.847656 67.25 C 85.152344 69.699219 85.152344 72.199219 83.847656 74.75 C 83.515625 74.75 83.183594 74.75 82.851562 74.75 C 83.667969 72.851562 84 70.851562 83.847656 68.75 C 83.847656 68.25 83.847656 67.75 83.847656 67.25 Z M 83.847656 67.25 "/>
<path style=" stroke:none;fill-rule:evenodd;fill:rgb(99.215686%,96.862745%,90.196078%);fill-opacity:1;" d="M 18.660156 77.25 C 15.480469 75.222656 12.992188 72.554688 11.195312 69.25 C 11.195312 68.582031 11.195312 67.917969 11.195312 67.25 C 13.695312 67.421875 15.6875 68.503906 17.167969 70.5 C 18.59375 70.929688 19.753906 71.765625 20.652344 73 C 23.660156 73.503906 24.820312 75.171875 24.132812 78 C 22.300781 77.972656 20.476562 77.722656 18.660156 77.25 Z M 18.660156 77.25 "/>
<path style=" stroke:none;fill-rule:evenodd;fill:rgb(95.686275%,83.921569%,60.784314%);fill-opacity:1;" d="M 11.195312 69.25 C 12.992188 72.554688 15.480469 75.222656 18.660156 77.25 C 17.863281 77.117188 17.199219 77.28125 16.667969 77.75 C 13.617188 76.113281 11.625 73.613281 10.699219 70.25 C 11.117188 70.078125 11.28125 69.746094 11.195312 69.25 Z M 11.195312 69.25 "/>
<path style=" stroke:none;fill-rule:evenodd;fill:rgb(99.607843%,83.529412%,45.490196%);fill-opacity:1;" d="M 25.128906 65.25 C 26.332031 67.058594 26.664062 68.972656 26.125 71 C 27.507812 71.90625 28.75 72.988281 29.855469 74.25 C 30.851562 77.25 32.84375 79.25 35.828125 80.25 C 36.449219 84.433594 38.855469 86.601562 43.042969 86.75 C 39.824219 87.347656 36.507812 87.679688 33.089844 87.75 C 31.351562 87.296875 29.859375 86.460938 28.613281 85.25 C 29.082031 84.503906 29.582031 83.753906 30.105469 83 C 30.035156 82.613281 29.867188 82.28125 29.609375 82 C 26.804688 81.527344 23.984375 81.277344 21.148438 81.25 C 20.484375 81.25 20.152344 81.582031 20.152344 82.25 C 19.5625 81.648438 19.5625 80.980469 20.152344 80.25 C 20.207031 79.941406 20.375 79.691406 20.652344 79.5 C 19.171875 79.148438 17.84375 78.566406 16.667969 77.75 C 17.199219 77.28125 17.863281 77.117188 18.660156 77.25 C 20.476562 77.722656 22.300781 77.972656 24.132812 78 C 24.820312 75.171875 23.660156 73.503906 20.652344 73 C 19.753906 71.765625 18.59375 70.929688 17.167969 70.5 C 15.6875 68.503906 13.695312 67.421875 11.195312 67.25 C 11.195312 67.917969 11.195312 68.582031 11.195312 69.25 C 11.28125 69.746094 11.117188 70.078125 10.699219 70.25 C 9.988281 69.609375 9.65625 68.777344 9.703125 67.75 C 10.011719 67.804688 10.257812 67.972656 10.449219 68.25 C 10.699219 66.257812 10.78125 64.257812 10.699219 62.25 C 13.191406 62.167969 15.679688 62.25 18.164062 62.5 C 18.578125 63.003906 18.746094 63.589844 18.660156 64.25 C 20.835938 64.492188 22.992188 64.824219 25.128906 65.25 Z M 25.128906 65.25 "/>
<path style=" stroke:none;fill-rule:evenodd;fill:rgb(93.72549%,98.039216%,98.039216%);fill-opacity:1;" d="M 37.570312 65.25 C 38.46875 65.246094 39.296875 65.496094 40.058594 66 C 43.925781 71.441406 49.234375 73.941406 55.980469 73.5 C 57.019531 74.019531 57.847656 74.769531 58.46875 75.75 C 57.578125 76.085938 56.75 76.417969 55.980469 76.75 C 50.34375 77.621094 45.367188 76.289062 41.050781 72.75 C 38.683594 70.824219 37.523438 68.324219 37.570312 65.25 Z M 37.570312 65.25 "/>
<path style=" stroke:none;fill-rule:evenodd;fill:rgb(75.294118%,34.117647%,13.333333%);fill-opacity:1;" d="M 37.570312 75.25 C 41.742188 79.761719 46.882812 81.929688 52.996094 81.75 C 50.820312 81.816406 48.664062 81.648438 46.527344 81.25 C 46.027344 81.332031 45.53125 81.417969 45.035156 81.5 C 45.628906 81.828125 45.628906 82.078125 45.035156 82.25 C 41.898438 80.277344 38.75 78.277344 35.578125 76.25 C 34.855469 75.390625 34.441406 74.390625 34.335938 73.25 C 34.128906 73.476562 33.878906 73.644531 33.589844 73.75 C 32.902344 72.855469 32.40625 71.855469 32.09375 70.75 C 31.257812 70.425781 30.59375 69.925781 30.105469 69.25 C 30.777344 68.984375 31.4375 68.902344 32.09375 69 C 33.851562 71.179688 35.679688 73.261719 37.570312 75.25 Z M 37.570312 75.25 "/>
<path style=" stroke:none;fill-rule:evenodd;fill:rgb(91.372549%,96.078431%,96.078431%);fill-opacity:1;" d="M 83.847656 68.75 C 84 70.851562 83.667969 72.851562 82.851562 74.75 C 81.671875 76.9375 79.847656 78.101562 77.378906 78.25 C 77.046875 78.25 76.714844 78.25 76.382812 78.25 C 76.304688 77.5625 76.386719 76.898438 76.632812 76.25 C 79.117188 74.246094 80.859375 71.746094 81.855469 68.75 C 82.179688 68.453125 82.511719 68.121094 82.851562 67.75 C 83.191406 68.121094 83.523438 68.453125 83.847656 68.75 Z M 83.847656 68.75 "/>
<path style=" stroke:none;fill-rule:evenodd;fill:rgb(45.098039%,69.803922%,82.352941%);fill-opacity:1;" d="M 41.050781 72.75 C 45.367188 76.289062 50.34375 77.621094 55.980469 76.75 C 58.050781 77.371094 60.207031 77.789062 62.449219 78 C 67.089844 78.25 71.734375 78.332031 76.382812 78.25 C 76.714844 78.25 77.046875 78.25 77.378906 78.25 C 70.332031 78.746094 63.199219 78.914062 55.980469 78.75 C 51.234375 79.257812 46.757812 78.421875 42.546875 76.25 C 41.621094 75.53125 40.789062 74.699219 40.058594 73.75 C 40.554688 73.582031 40.886719 73.25 41.050781 72.75 Z M 41.050781 72.75 "/>
<path style=" stroke:none;fill-rule:evenodd;fill:rgb(2.352941%,11.372549%,20%);fill-opacity:1;" d="M 82.851562 74.75 C 83.183594 74.75 83.515625 74.75 83.847656 74.75 C 82.867188 76.988281 81.207031 78.402344 78.871094 79 C 73.066406 79.25 67.261719 79.332031 61.453125 79.25 C 59.527344 79.40625 57.703125 79.242188 55.980469 78.75 C 63.199219 78.914062 70.332031 78.746094 77.378906 78.25 C 79.847656 78.101562 81.671875 76.9375 82.851562 74.75 Z M 82.851562 74.75 "/>
<path style=" stroke:none;fill-rule:evenodd;fill:rgb(94.117647%,46.666667%,14.509804%);fill-opacity:1;" d="M 29.609375 69.25 C 29.773438 69.25 29.9375 69.25 30.105469 69.25 C 30.59375 69.925781 31.257812 70.425781 32.09375 70.75 C 32.40625 71.855469 32.902344 72.855469 33.589844 73.75 C 33.878906 73.644531 34.128906 73.476562 34.335938 73.25 C 34.441406 74.390625 34.855469 75.390625 35.578125 76.25 C 38.75 78.277344 41.898438 80.277344 45.035156 82.25 C 45.628906 82.078125 45.628906 81.828125 45.035156 81.5 C 45.53125 81.417969 46.027344 81.332031 46.527344 81.25 C 48.664062 81.648438 50.820312 81.816406 52.996094 81.75 C 53.160156 81.75 53.328125 81.75 53.492188 81.75 C 53.492188 82.25 53.492188 82.75 53.492188 83.25 C 48.988281 83.976562 44.507812 83.8125 40.058594 82.75 C 39.394531 82.082031 39.394531 81.417969 40.058594 80.75 C 38.761719 80.113281 37.601562 79.28125 36.574219 78.25 C 35.777344 78.742188 34.949219 78.824219 34.085938 78.5 C 33.476562 77.472656 32.980469 76.390625 32.59375 75.25 C 32.25 75.511719 32 75.847656 31.847656 76.25 C 31.679688 76.082031 31.515625 75.917969 31.347656 75.75 C 31.277344 74.300781 30.945312 72.800781 30.355469 71.25 C 30.121094 70.535156 29.707031 69.953125 29.109375 69.5 C 29.222656 69.300781 29.390625 69.21875 29.609375 69.25 Z M 29.609375 69.25 "/>
<path style=" stroke:none;fill-rule:evenodd;fill:rgb(14.509804%,58.431373%,72.54902%);fill-opacity:1;" d="M 62.449219 81.25 C 65.933594 81.25 69.417969 81.25 72.898438 81.25 C 72.566406 82.582031 72.234375 83.917969 71.90625 85.25 C 72.429688 85.324219 72.925781 85.242188 73.398438 85 C 74.507812 83.632812 75.835938 82.550781 77.378906 81.75 C 77.542969 85.269531 75.882812 87.605469 72.402344 88.75 C 70.15625 87.460938 67.832031 86.210938 65.433594 85 C 64.132812 83.945312 63.136719 82.695312 62.449219 81.25 Z M 62.449219 81.25 "/>
<path style=" stroke:none;fill-rule:evenodd;fill:rgb(97.254902%,54.117647%,18.431373%);fill-opacity:1;" d="M 25.128906 64.25 C 25.625 64.25 26.125 64.25 26.621094 64.25 C 26.621094 65.917969 27.453125 66.75 29.109375 66.75 C 28.992188 67.394531 29.15625 67.894531 29.609375 68.25 C 29.609375 68.582031 29.609375 68.917969 29.609375 69.25 C 29.390625 69.21875 29.222656 69.300781 29.109375 69.5 C 29.707031 69.953125 30.121094 70.535156 30.355469 71.25 C 30.945312 72.800781 31.277344 74.300781 31.347656 75.75 C 31.515625 75.917969 31.679688 76.082031 31.847656 76.25 C 32 75.847656 32.25 75.511719 32.59375 75.25 C 32.980469 76.390625 33.476562 77.472656 34.085938 78.5 C 34.949219 78.824219 35.777344 78.742188 36.574219 78.25 C 37.601562 79.28125 38.761719 80.113281 40.058594 80.75 C 39.394531 81.417969 39.394531 82.082031 40.058594 82.75 C 44.507812 83.8125 48.988281 83.976562 53.492188 83.25 C 53.492188 82.75 53.492188 82.25 53.492188 81.75 C 54.261719 82.113281 54.675781 82.78125 54.738281 83.75 C 57.839844 81.4375 58.503906 81.9375 56.726562 85.25 C 55.382812 86.683594 53.972656 88.019531 52.496094 89.25 C 52.273438 88.769531 51.941406 88.355469 51.503906 88 C 52.128906 87.09375 52.128906 86.175781 51.503906 85.25 C 49.941406 84.609375 48.449219 84.609375 47.023438 85.25 C 45.578125 85.476562 44.25 85.976562 43.042969 86.75 C 38.855469 86.601562 36.449219 84.433594 35.828125 80.25 C 32.84375 79.25 30.851562 77.25 29.855469 74.25 C 28.75 72.988281 27.507812 71.90625 26.125 71 C 26.664062 68.972656 26.332031 67.058594 25.128906 65.25 C 25.128906 64.917969 25.128906 64.582031 25.128906 64.25 Z M 25.128906 64.25 "/>
<path style=" stroke:none;fill-rule:evenodd;fill:rgb(88.235294%,94.509804%,95.294118%);fill-opacity:1;" d="M 62.449219 81.25 C 63.136719 82.695312 64.132812 83.945312 65.433594 85 C 67.832031 86.210938 70.15625 87.460938 72.402344 88.75 C 67.210938 90.222656 63.394531 88.558594 60.957031 83.75 C 60.957031 83.25 60.957031 82.75 60.957031 82.25 C 61.117188 81.476562 61.613281 81.140625 62.449219 81.25 Z M 62.449219 81.25 "/>
<path style=" stroke:none;fill-rule:evenodd;fill:rgb(4.313725%,2.745098%,3.921569%);fill-opacity:1;" d="M 3.234375 45.75 C 1.980469 52.808594 4.800781 56.976562 11.695312 58.25 C 14.347656 58.25 17 58.25 19.65625 58.25 C 20.804688 58.003906 21.964844 57.835938 23.140625 57.75 C 23.4375 58.070312 23.851562 58.234375 24.382812 58.25 C 25.609375 57.75 26.855469 57.5 28.113281 57.5 C 24.863281 58.804688 25.027344 59.554688 28.613281 59.75 C 22.679688 60.601562 16.707031 60.933594 10.699219 60.75 C 10.199219 60.75 9.703125 60.75 9.207031 60.75 C 9.175781 60.476562 9.011719 60.3125 8.707031 60.25 C 8.0625 61.488281 8.0625 62.652344 8.707031 63.75 C 8.886719 65.132812 9.21875 66.464844 9.703125 67.75 C 9.65625 68.777344 9.988281 69.609375 10.699219 70.25 C 11.625 73.613281 13.617188 76.113281 16.667969 77.75 C 17.84375 78.566406 19.171875 79.148438 20.652344 79.5 C 20.375 79.691406 20.207031 79.941406 20.152344 80.25 C 19.28125 80.210938 18.785156 80.625 18.660156 81.5 C 18.929688 82.742188 19.425781 83.824219 20.152344 84.75 C 21.746094 87.054688 23.902344 88.640625 26.621094 89.5 C 30.484375 90.640625 34.378906 91.554688 38.316406 92.25 C 39.402344 92.039062 40.480469 91.789062 41.550781 91.5 C 43.570312 89.984375 45.726562 88.734375 48.019531 87.75 C 47.550781 88.734375 47.054688 89.734375 46.527344 90.75 C 48.75 91.285156 50.738281 90.785156 52.496094 89.25 C 53.972656 88.019531 55.382812 86.683594 56.726562 85.25 C 58.503906 81.9375 57.839844 81.4375 54.738281 83.75 C 54.675781 82.78125 54.261719 82.113281 53.492188 81.75 C 53.328125 81.75 53.160156 81.75 52.996094 81.75 C 46.882812 81.929688 41.742188 79.761719 37.570312 75.25 C 39.816406 75.207031 41.390625 76.207031 42.296875 78.25 C 42.539062 77.601562 42.625 76.9375 42.546875 76.25 C 46.757812 78.421875 51.234375 79.257812 55.980469 78.75 C 57.703125 79.242188 59.527344 79.40625 61.453125 79.25 C 65.714844 79.542969 70.027344 79.960938 74.390625 80.5 C 69.75 80.75 65.105469 80.832031 60.460938 80.75 C 60.339844 81.394531 60.507812 81.894531 60.957031 82.25 C 60.957031 82.75 60.957031 83.25 60.957031 83.75 C 60.265625 84.449219 59.769531 85.28125 59.464844 86.25 C 56.6875 89.703125 53.203125 92.203125 49.015625 93.75 C 47.316406 93.875 45.660156 93.707031 44.039062 93.25 C 42.992188 93.757812 41.996094 94.257812 41.050781 94.75 C 39.394531 94.75 37.734375 94.75 36.078125 94.75 C 32.707031 93.683594 29.226562 92.769531 25.625 92 C 20.054688 90.238281 16.820312 86.488281 15.921875 80.75 C 9.019531 75.542969 5.535156 68.542969 5.472656 59.75 C 4.019531 58.402344 2.777344 56.902344 1.742188 55.25 C 1.742188 54.917969 1.742188 54.582031 1.742188 54.25 C 2.429688 51.398438 2.925781 48.566406 3.234375 45.75 Z M 3.234375 45.75 "/>
<path style=" stroke:none;fill-rule:evenodd;fill:rgb(96.862745%,85.490196%,62.745098%);fill-opacity:1;" d="M 20.652344 83.75 C 24.800781 88.085938 29.941406 89.75 36.078125 88.75 C 35.015625 88.414062 34.019531 88.082031 33.089844 87.75 C 36.507812 87.679688 39.824219 87.347656 43.042969 86.75 C 44.25 85.976562 45.578125 85.476562 47.023438 85.25 C 47.871094 85.171875 48.699219 85.253906 49.511719 85.5 C 49.070312 86.308594 48.574219 87.058594 48.019531 87.75 C 45.726562 88.734375 43.570312 89.984375 41.550781 91.5 C 40.480469 91.789062 39.402344 92.039062 38.316406 92.25 C 34.378906 91.554688 30.484375 90.640625 26.621094 89.5 C 23.902344 88.640625 21.746094 87.054688 20.152344 84.75 C 20.320312 84.417969 20.484375 84.082031 20.652344 83.75 Z M 20.652344 83.75 "/>
<path style=" stroke:none;fill-rule:evenodd;fill:rgb(97.647059%,70.588235%,36.862745%);fill-opacity:1;" d="M 47.023438 85.25 C 48.449219 84.609375 49.941406 84.609375 51.503906 85.25 C 52.128906 86.175781 52.128906 87.09375 51.503906 88 C 51.941406 88.355469 52.273438 88.769531 52.496094 89.25 C 50.738281 90.785156 48.75 91.285156 46.527344 90.75 C 47.054688 89.734375 47.550781 88.734375 48.019531 87.75 C 48.574219 87.058594 49.070312 86.308594 49.511719 85.5 C 48.699219 85.253906 47.871094 85.171875 47.023438 85.25 Z M 47.023438 85.25 "/>
<path style=" stroke:none;fill-rule:evenodd;fill:rgb(99.607843%,92.941176%,74.509804%);fill-opacity:1;" d="M 21.148438 81.25 C 23.984375 81.277344 26.804688 81.527344 29.609375 82 C 29.867188 82.28125 30.035156 82.613281 30.105469 83 C 29.582031 83.753906 29.082031 84.503906 28.613281 85.25 C 26.167969 83.773438 23.679688 82.441406 21.148438 81.25 Z M 21.148438 81.25 "/>
<path style=" stroke:none;fill-rule:evenodd;fill:rgb(80%,60%,40.392157%);fill-opacity:1;" d="M 20.152344 80.25 C 19.5625 80.980469 19.5625 81.648438 20.152344 82.25 C 20.179688 82.804688 20.347656 83.304688 20.652344 83.75 C 20.484375 84.082031 20.320312 84.417969 20.152344 84.75 C 19.425781 83.824219 18.929688 82.742188 18.660156 81.5 C 18.785156 80.625 19.28125 80.210938 20.152344 80.25 Z M 20.152344 80.25 "/>
<path style=" stroke:none;fill-rule:evenodd;fill:rgb(99.607843%,97.254902%,92.156863%);fill-opacity:1;" d="M 21.148438 81.25 C 23.679688 82.441406 26.167969 83.773438 28.613281 85.25 C 29.859375 86.460938 31.351562 87.296875 33.089844 87.75 C 34.019531 88.082031 35.015625 88.414062 36.078125 88.75 C 29.941406 89.75 24.800781 88.085938 20.652344 83.75 C 20.347656 83.304688 20.179688 82.804688 20.152344 82.25 C 20.152344 81.582031 20.484375 81.25 21.148438 81.25 Z M 21.148438 81.25 "/>
</g>
</svg>
