<?xml version="1.0" encoding="UTF-8"?>
<svg xmlns="http://www.w3.org/2000/svg" xmlns:xlink="http://www.w3.org/1999/xlink" width="px" height="px" viewBox="0 0 105 99" version="1.1">
<defs>
<filter id="alpha" filterUnits="objectBoundingBox" x="0%" y="0%" width="100%" height="100%">
  <feColorMatrix type="matrix" in="SourceGraphic" values="0 0 0 0 1 0 0 0 0 1 0 0 0 0 1 0 0 0 1 0"/>
</filter>
<mask id="mask0">
  <g filter="url(#alpha)">
<rect x="0" y="0" width="105" height="99" style="fill:rgb(0%,0%,0%);fill-opacity:0.0509804;stroke:none;"/>
  </g>
</mask>
<clipPath id="clip1">
  <rect x="0" y="0" width="105" height="99"/>
</clipPath>
<g id="surface5" clip-path="url(#clip1)">
<path style=" stroke:none;fill-rule:evenodd;fill:rgb(12.941176%,19.607843%,26.27451%);fill-opacity:1;" d="M 35.75 -0.25 C 38.75 -0.25 41.75 -0.25 44.75 -0.25 C 47.542969 0.476562 50.378906 0.976562 53.25 1.25 C 51.566406 1.230469 49.898438 1.394531 48.25 1.75 C 44.503906 0.480469 40.671875 0.0625 36.75 0.5 C 30.5625 3.445312 24.5625 6.695312 18.75 10.25 C 19.582031 9.234375 20.582031 8.316406 21.75 7.5 C 26.398438 4.761719 31.066406 2.179688 35.75 -0.25 Z M 35.75 -0.25 "/>
</g>
<mask id="mask1">
  <g filter="url(#alpha)">
<rect x="0" y="0" width="105" height="99" style="fill:rgb(0%,0%,0%);fill-opacity:0.0313725;stroke:none;"/>
  </g>
</mask>
<clipPath id="clip2">
  <rect x="0" y="0" width="105" height="99"/>
</clipPath>
<g id="surface8" clip-path="url(#clip2)">
<path style=" stroke:none;fill-rule:evenodd;fill:rgb(13.72549%,18.823529%,24.705882%);fill-opacity:1;" d="M 53.25 1.25 C 57.027344 1.304688 60.191406 2.722656 62.75 5.5 C 66.53125 4.847656 70.367188 4.683594 74.25 5 C 76.589844 5.839844 78.503906 7.253906 80 9.25 C 81.359375 11.609375 82.359375 13.941406 83 16.25 C 85.898438 18.453125 88.148438 21.203125 89.75 24.5 C 91.917969 24.667969 94.082031 24.832031 96.25 25 C 97.480469 25.730469 98.5625 26.644531 99.5 27.75 C 100.964844 31.984375 102.132812 36.320312 103 40.75 C 102.898438 43.347656 103.480469 45.683594 104.75 47.75 C 104.75 48.25 104.75 48.75 104.75 49.25 C 103.917969 51.25 103.082031 53.25 102.25 55.25 C 102.160156 54.652344 101.996094 54.070312 101.75 53.5 C 104.417969 50.667969 104.417969 47.832031 101.75 45 C 102.570312 42.921875 102.320312 41.003906 101 39.25 C 100.65625 35.246094 99.742188 31.414062 98.25 27.75 C 95.496094 25.121094 92.410156 24.621094 89 26.25 C 88 22.085938 85.667969 18.917969 82 16.75 C 79.539062 6.480469 73.457031 3.3125 63.75 7.25 C 60.578125 4.582031 57.078125 2.582031 53.25 1.25 Z M 53.25 1.25 "/>
</g>
<mask id="mask2">
  <g filter="url(#alpha)">
<rect x="0" y="0" width="105" height="99" style="fill:rgb(0%,0%,0%);fill-opacity:0.223529;stroke:none;"/>
  </g>
</mask>
<clipPath id="clip3">
  <rect x="0" y="0" width="105" height="99"/>
</clipPath>
<g id="surface11" clip-path="url(#clip3)">
<path style=" stroke:none;fill-rule:evenodd;fill:rgb(13.333333%,20%,26.666667%);fill-opacity:1;" d="M 18.75 10.25 C 15.917969 12.75 13.25 15.417969 10.75 18.25 C 11.730469 16.007812 13.230469 14.09375 15.25 12.5 C 16.273438 11.488281 17.441406 10.738281 18.75 10.25 Z M 18.75 10.25 "/>
</g>
<mask id="mask3">
  <g filter="url(#alpha)">
<rect x="0" y="0" width="105" height="99" style="fill:rgb(0%,0%,0%);fill-opacity:0.309804;stroke:none;"/>
  </g>
</mask>
<clipPath id="clip4">
  <rect x="0" y="0" width="105" height="99"/>
</clipPath>
<g id="surface14" clip-path="url(#clip4)">
<path style=" stroke:none;fill-rule:evenodd;fill:rgb(13.333333%,19.607843%,25.882353%);fill-opacity:1;" d="M 10.75 18.25 C 8.316406 21.785156 6.152344 25.453125 4.25 29.25 C 5.152344 24.769531 7.320312 21.101562 10.75 18.25 Z M 10.75 18.25 "/>
</g>
<mask id="mask4">
  <g filter="url(#alpha)">
<rect x="0" y="0" width="105" height="99" style="fill:rgb(0%,0%,0%);fill-opacity:0.996078;stroke:none;"/>
  </g>
</mask>
<clipPath id="clip5">
  <rect x="0" y="0" width="105" height="99"/>
</clipPath>
<g id="surface17" clip-path="url(#clip5)">
<path style=" stroke:none;fill-rule:evenodd;fill:rgb(5.098039%,6.666667%,7.843137%);fill-opacity:1;" d="M 5.25 35.75 C 5.617188 36.859375 5.785156 37.941406 5.75 39 C 5.1875 39.125 4.6875 39.375 4.25 39.75 C 4.5625 40.207031 4.730469 40.707031 4.75 41.25 C 4.210938 42.699219 3.878906 44.199219 3.75 45.75 C 2.386719 50.476562 3.386719 54.644531 6.75 58.25 C 7.292969 59.292969 8.125 59.960938 9.25 60.25 C 9.644531 60.699219 10.144531 61.035156 10.75 61.25 C 8.992188 62.25 7.828125 63.75 7.25 65.75 C 6.832031 66.164062 7 66.582031 7.75 67 C 9.082031 68 10.417969 69 11.75 70 C 10.25 69.832031 8.75 69.667969 7.25 69.5 C 8.335938 71.769531 9.835938 73.683594 11.75 75.25 C 11.976562 75.730469 12.308594 76.144531 12.75 76.5 C 15.792969 76.4375 18.628906 76.855469 21.25 77.75 C 19.496094 77.949219 17.828125 78.28125 16.25 78.75 C 15.722656 78.675781 15.222656 78.757812 14.75 79 C 16.355469 81.355469 18.355469 83.273438 20.75 84.75 C 20.917969 85.25 21.25 85.582031 21.75 85.75 C 23.265625 87.007812 24.929688 88.007812 26.75 88.75 C 27.449219 89.445312 28.28125 89.945312 29.25 90.25 C 29.800781 90.777344 30.46875 91.195312 31.25 91.5 C 32.910156 91.75 34.574219 91.832031 36.25 91.75 C 36.25 92.417969 36.25 93.082031 36.25 93.75 C 35.832031 93.921875 35.664062 94.253906 35.75 94.75 C 35.75 95.25 35.75 95.75 35.75 96.25 C 41.765625 96.925781 47.765625 97.261719 53.75 97.25 C 51.71875 97.910156 49.632812 97.910156 47.5 97.25 C 47.125 97.5625 46.707031 97.8125 46.25 98 C 43.660156 98.085938 41.160156 98.335938 38.75 98.75 C 38.25 98.75 37.75 98.75 37.25 98.75 C 37.082031 98.082031 36.917969 98.082031 36.75 98.75 C 36.582031 98.75 36.417969 98.75 36.25 98.75 C 33.976562 97.726562 32.058594 96.226562 30.5 94.25 C 18.378906 89.128906 9.546875 80.628906 4 68.75 C 3.523438 66.070312 3.773438 63.488281 4.75 61 C 3.65625 59.734375 2.742188 58.316406 2 56.75 C 1.375 54.082031 0.625 51.582031 -0.25 49.25 C -0.25 48.917969 -0.25 48.582031 -0.25 48.25 C 0.417969 48.082031 0.417969 47.917969 -0.25 47.75 C -0.25 47.25 -0.25 46.75 -0.25 46.25 C 0.34375 43.59375 1.425781 40.929688 3 38.25 C 3.523438 37.191406 4.273438 36.359375 5.25 35.75 Z M 5.25 35.75 "/>
</g>
<mask id="mask5">
  <g filter="url(#alpha)">
<rect x="0" y="0" width="105" height="99" style="fill:rgb(0%,0%,0%);fill-opacity:0.0117647;stroke:none;"/>
  </g>
</mask>
<clipPath id="clip6">
  <rect x="0" y="0" width="105" height="99"/>
</clipPath>
<g id="surface20" clip-path="url(#clip6)">
<path style=" stroke:none;fill-rule:evenodd;fill:rgb(13.333333%,16.862745%,21.960784%);fill-opacity:1;" d="M 84.75 80.25 C 84.457031 81.460938 83.707031 82.292969 82.5 82.75 C 81.835938 89.332031 78.25 92.996094 71.75 93.75 C 78.027344 92.296875 81.527344 88.296875 82.25 81.75 C 83.179688 81.371094 84.011719 80.871094 84.75 80.25 Z M 84.75 80.25 "/>
</g>
<mask id="mask6">
  <g filter="url(#alpha)">
<rect x="0" y="0" width="105" height="99" style="fill:rgb(0%,0%,0%);fill-opacity:0.00392157;stroke:none;"/>
  </g>
</mask>
<clipPath id="clip7">
  <rect x="0" y="0" width="105" height="99"/>
</clipPath>
<g id="surface23" clip-path="url(#clip7)">
<path style=" stroke:none;fill-rule:evenodd;fill:rgb(12.941176%,16.470588%,21.568627%);fill-opacity:1;" d="M 70.25 94.25 C 70.917969 94.582031 70.917969 94.582031 70.25 94.25 Z M 70.25 94.25 "/>
</g>
</defs>
<g id="surface1">
<use xlink:href="#surface5" mask="url(#mask0)"/>
<use xlink:href="#surface8" mask="url(#mask1)"/>
<use xlink:href="#surface11" mask="url(#mask2)"/>
<use xlink:href="#surface14" mask="url(#mask3)"/>
<path style=" stroke:none;fill-rule:evenodd;fill:rgb(99.607843%,81.568627%,58.039216%);fill-opacity:1;" d="M 54.75 31.25 C 55.585938 31.375 56.335938 31.707031 57 32.25 C 59.105469 36.128906 60.941406 40.128906 62.5 44.25 C 62.75 45.742188 62.832031 47.242188 62.75 48.75 C 62.742188 52.609375 61.90625 56.277344 60.25 59.75 C 59.917969 60.917969 59.582031 62.082031 59.25 63.25 C 58.464844 65.324219 57.296875 67.15625 55.75 68.75 C 56.585938 69.753906 56.917969 70.921875 56.75 72.25 C 56.15625 72.851562 56.15625 73.519531 56.75 74.25 C 50.695312 73.386719 45.859375 70.472656 42.25 65.5 C 41.421875 65.136719 40.921875 65.386719 40.75 66.25 C 40.195312 65.199219 39.859375 64.035156 39.75 62.75 C 42.425781 54.898438 42.925781 46.898438 41.25 38.75 C 41.167969 37.902344 41.253906 37.066406 41.5 36.25 C 42.304688 37.050781 43.21875 37.714844 44.25 38.25 C 45.472656 36.898438 46.636719 35.484375 47.75 34 C 46.558594 33.859375 46.222656 33.359375 46.75 32.5 C 47.617188 32.175781 48.449219 32.257812 49.25 32.75 C 50.84375 31.472656 52.675781 30.972656 54.75 31.25 Z M 54.75 31.25 "/>
<path style=" stroke:none;fill-rule:evenodd;fill:rgb(50.196078%,70.588235%,16.862745%);fill-opacity:1;" d="M 4.25 47.25 C 3.796875 46.894531 3.632812 46.394531 3.75 45.75 C 3.878906 44.199219 4.210938 42.699219 4.75 41.25 C 4.917969 41.25 5.082031 41.25 5.25 41.25 C 6.253906 40.886719 7.253906 40.46875 8.25 40 C 8.25 39.5 8.25 39 8.25 38.5 C 9.535156 38.558594 10.867188 38.308594 12.25 37.75 C 12.28125 38.023438 12.445312 38.1875 12.75 38.25 C 13.890625 37.839844 15.058594 37.507812 16.25 37.25 C 17 37.226562 17.5 37.558594 17.75 38.25 C 14.566406 38.949219 11.734375 40.367188 9.25 42.5 C 7.683594 42.695312 6.183594 43.113281 4.75 43.75 C 4.3125 44.875 4.144531 46.039062 4.25 47.25 Z M 4.25 47.25 "/>
<path style=" stroke:none;fill-rule:evenodd;fill:rgb(23.921569%,43.921569%,15.294118%);fill-opacity:1;" d="M 32.75 34.25 C 33.507812 34.253906 34.09375 34.589844 34.5 35.25 C 36.074219 37.902344 37.242188 40.734375 38 43.75 C 38.683594 49.867188 38.183594 55.867188 36.5 61.75 C 35.972656 63.15625 35.222656 64.324219 34.25 65.25 C 34.441406 63.628906 35.023438 62.128906 36 60.75 C 37.101562 56.304688 37.433594 51.804688 37 47.25 C 36.574219 45.46875 35.992188 43.804688 35.25 42.25 C 34.164062 40.742188 33.328125 39.074219 32.75 37.25 C 32.75 36.25 32.75 35.25 32.75 34.25 Z M 32.75 34.25 "/>
<path style=" stroke:none;fill-rule:evenodd;fill:rgb(62.745098%,80.784314%,17.254902%);fill-opacity:1;" d="M 29.75 30.75 C 30.183594 31.859375 30.351562 33.023438 30.25 34.25 C 28.425781 34.992188 26.59375 35.742188 24.75 36.5 C 26.011719 37.347656 27.175781 38.265625 28.25 39.25 C 27.371094 39.0625 26.539062 38.726562 25.75 38.25 C 25.082031 38.917969 25.082031 39.582031 25.75 40.25 C 26.316406 40.550781 26.816406 40.71875 27.25 40.75 C 26.675781 41.367188 26.089844 41.367188 25.5 40.75 C 25.25 41 25 41.25 24.75 41.5 C 25.058594 42.066406 25.058594 42.730469 24.75 43.5 C 25.53125 44.699219 26.28125 45.949219 27 47.25 C 27.980469 47.945312 28.894531 48.695312 29.75 49.5 C 30.175781 50.566406 30.34375 51.566406 30.25 52.5 C 29.628906 52.726562 29.210938 52.476562 29 51.75 C 27.582031 52.457031 26.25 53.292969 25 54.25 C 24.730469 56.226562 23.980469 57.976562 22.75 59.5 C 23.222656 60.59375 23.222656 61.761719 22.75 63 C 22.125 63.910156 21.542969 63.828125 21 62.75 C 19.070312 63.613281 17.902344 62.78125 17.5 60.25 C 16.761719 60.433594 16.011719 60.183594 15.25 59.5 C 16.507812 58.5625 16.421875 57.648438 15 56.75 C 13.84375 57.152344 12.59375 57.320312 11.25 57.25 C 9.632812 56.339844 8.550781 55.007812 8 53.25 C 7.402344 55.816406 7.820312 58.148438 9.25 60.25 C 8.125 59.960938 7.292969 59.292969 6.75 58.25 C 7.28125 54.207031 6.449219 50.539062 4.25 47.25 C 4.144531 46.039062 4.3125 44.875 4.75 43.75 C 6.183594 43.113281 7.683594 42.695312 9.25 42.5 C 11.734375 40.367188 14.566406 38.949219 17.75 38.25 C 17.5 37.558594 17 37.226562 16.25 37.25 C 15.058594 37.507812 13.890625 37.839844 12.75 38.25 C 12.445312 38.1875 12.28125 38.023438 12.25 37.75 C 14.035156 37.03125 15.867188 36.28125 17.75 35.5 C 19.230469 34.363281 19.566406 32.949219 18.75 31.25 C 18.445312 31.3125 18.28125 31.476562 18.25 31.75 C 18.082031 31.75 17.917969 31.75 17.75 31.75 C 16.804688 31.339844 15.804688 30.921875 14.75 30.5 C 15.125 30.164062 15.292969 29.746094 15.25 29.25 C 15.84375 28.65625 15.84375 28.074219 15.25 27.5 C 13.230469 27.414062 11.230469 27.164062 9.25 26.75 C 9.621094 26.132812 9.789062 25.464844 9.75 24.75 C 10.277344 24.824219 10.777344 24.742188 11.25 24.5 C 13.898438 22.835938 16.566406 21.167969 19.25 19.5 C 22.183594 18.558594 25.183594 17.890625 28.25 17.5 C 28.792969 16.835938 29.125 16.085938 29.25 15.25 C 31.882812 13.59375 33.882812 14.257812 35.25 17.25 C 35.195312 17.722656 35.027344 18.136719 34.75 18.5 C 32.636719 19.234375 30.472656 19.734375 28.25 20 C 28.019531 20.207031 27.855469 20.457031 27.75 20.75 C 28.628906 21.625 29.296875 22.625 29.75 23.75 C 28.902344 25.09375 27.738281 26.09375 26.25 26.75 C 27.441406 28.105469 28.609375 29.4375 29.75 30.75 Z M 29.75 30.75 "/>
<path style=" stroke:none;fill-rule:evenodd;fill:rgb(4.705882%,3.921569%,4.313725%);fill-opacity:1;" d="M 53.25 1.25 C 57.078125 2.582031 60.578125 4.582031 63.75 7.25 C 73.457031 3.3125 79.539062 6.480469 82 16.75 C 85.667969 18.917969 88 22.085938 89 26.25 C 92.410156 24.621094 95.496094 25.121094 98.25 27.75 C 99.742188 31.414062 100.65625 35.246094 101 39.25 C 102.320312 41.003906 102.570312 42.921875 101.75 45 C 104.417969 47.832031 104.417969 50.667969 101.75 53.5 C 101.996094 54.070312 102.160156 54.652344 102.25 55.25 C 102.289062 55.875 102.621094 56.292969 103.25 56.5 C 102.027344 59.402344 101.027344 62.320312 100.25 65.25 C 100.414062 62.894531 100.246094 60.558594 99.75 58.25 C 99.078125 59.003906 98.246094 59.335938 97.25 59.25 C 98.050781 58.703125 98.800781 58.035156 99.5 57.25 C 99.871094 56.28125 99.789062 55.363281 99.25 54.5 C 96.421875 54.25 93.589844 54.167969 90.75 54.25 C 90.667969 55.59375 90.75 56.925781 91 58.25 C 91.496094 58.53125 91.914062 58.867188 92.25 59.25 C 91.632812 59.40625 91.632812 59.65625 92.25 60 C 91.632812 60.117188 91.132812 60.367188 90.75 60.75 C 90.503906 61.496094 90.171875 62.164062 89.75 62.75 C 89.417969 62.417969 89.082031 62.082031 88.75 61.75 C 88.75 61.417969 88.75 61.082031 88.75 60.75 C 89.421875 56.433594 89.753906 52.019531 89.75 47.5 C 89.832031 43.96875 89.496094 40.550781 88.75 37.25 C 88.804688 35.976562 88.472656 34.808594 87.75 33.75 C 86.574219 33.089844 85.738281 33.421875 85.25 34.75 C 85.082031 34.75 84.917969 34.75 84.75 34.75 C 84.476562 34.128906 84.3125 33.460938 84.25 32.75 C 85.355469 30.203125 85.855469 27.535156 85.75 24.75 C 84.003906 20.207031 80.671875 17.871094 75.75 17.75 C 73.417969 17.75 71.082031 17.75 68.75 17.75 C 67.242188 17.667969 65.742188 17.75 64.25 18 C 66.964844 19.433594 69.796875 20.515625 72.75 21.25 C 72.632812 21.546875 72.382812 21.714844 72 21.75 C 68.761719 21.285156 65.511719 20.867188 62.25 20.5 C 61.3125 19.640625 60.3125 18.890625 59.25 18.25 C 54.074219 17.167969 49.242188 18.082031 44.75 21 C 45.710938 21.210938 46.210938 21.792969 46.25 22.75 C 41.59375 23.90625 38.59375 26.742188 37.25 31.25 C 37.257812 31.863281 37.425781 32.363281 37.75 32.75 C 37.75 32.917969 37.75 33.082031 37.75 33.25 C 37.25 33.234375 36.917969 33.484375 36.75 34 C 42.421875 43.960938 42.671875 54.042969 37.5 64.25 C 37.492188 65.96875 37.40625 67.632812 37.25 69.25 C 38.097656 70.300781 39.179688 71.132812 40.5 71.75 C 40.941406 73.050781 41.691406 74.132812 42.75 75 C 44.902344 76.742188 47.238281 78.160156 49.75 79.25 C 50.515625 79.65625 51.347656 79.988281 52.25 80.25 C 49.28125 79.675781 46.28125 79.675781 43.25 80.25 C 42.878906 80.316406 42.546875 80.230469 42.25 80 C 43.261719 79.300781 43.429688 78.46875 42.75 77.5 C 41.59375 77.167969 40.425781 76.917969 39.25 76.75 C 39.25 73.082031 37.417969 71.25 33.75 71.25 C 34.066406 70.265625 34.398438 69.265625 34.75 68.25 C 34.804688 67.3125 34.472656 66.5625 33.75 66 C 34.027344 65.808594 34.195312 65.558594 34.25 65.25 C 35.222656 64.324219 35.972656 63.15625 36.5 61.75 C 38.183594 55.867188 38.683594 49.867188 38 43.75 C 37.242188 40.734375 36.074219 37.902344 34.5 35.25 C 34.09375 34.589844 33.507812 34.253906 32.75 34.25 C 32.75 33.917969 32.75 33.582031 32.75 33.25 C 34.949219 32.1875 35.78125 30.523438 35.25 28.25 C 35.90625 27.34375 36.65625 26.507812 37.5 25.75 C 37.855469 24.816406 37.605469 24.066406 36.75 23.5 C 38.296875 23.144531 39.796875 22.644531 41.25 22 C 41.667969 21.496094 41.835938 20.910156 41.75 20.25 C 44.636719 18.640625 47.636719 17.304688 50.75 16.25 C 52.890625 15.597656 55.058594 15.015625 57.25 14.5 C 58.082031 12.925781 57.582031 12.175781 55.75 12.25 C 54.371094 11.527344 52.871094 11.027344 51.25 10.75 C 50.582031 10.582031 49.917969 10.417969 49.25 10.25 C 50.265625 9.332031 51.515625 8.667969 53 8.25 C 55.519531 8.570312 57.9375 9.238281 60.25 10.25 C 61.5625 9.0625 61.394531 7.980469 59.75 7 C 58.082031 6.167969 56.417969 5.332031 54.75 4.5 C 53.710938 4.097656 52.710938 4.179688 51.75 4.75 C 52.445312 5.34375 52.363281 5.675781 51.5 5.75 C 50.421875 5.378906 49.421875 4.878906 48.5 4.25 C 48.023438 4.511719 47.609375 4.84375 47.25 5.25 C 42.851562 2.929688 38.351562 2.679688 33.75 4.5 C 33.582031 4.667969 33.417969 4.832031 33.25 5 C 34.011719 5.503906 34.847656 5.753906 35.75 5.75 C 34.582031 6.082031 33.417969 6.417969 32.25 6.75 C 28.351562 7.367188 25.019531 9.03125 22.25 11.75 C 19.875 12.941406 17.875 14.609375 16.25 16.75 C 13.867188 18.464844 12.035156 20.628906 10.75 23.25 C 10.300781 23.644531 9.964844 24.144531 9.75 24.75 C 8.523438 26.375 7.6875 28.207031 7.25 30.25 C 8.25 30.25 9.25 30.25 10.25 30.25 C 10.746094 30.164062 11.078125 30.332031 11.25 30.75 C 10.074219 31.171875 9.074219 31.835938 8.25 32.75 C 7.976562 32.78125 7.8125 32.945312 7.75 33.25 C 8.523438 33.726562 9.355469 33.894531 10.25 33.75 C 10.25 34.25 10.25 34.75 10.25 35.25 C 9.417969 35.75 8.75 36.417969 8.25 37.25 C 6.765625 38.222656 5.765625 39.554688 5.25 41.25 C 5.082031 41.25 4.917969 41.25 4.75 41.25 C 4.730469 40.707031 4.5625 40.207031 4.25 39.75 C 4.6875 39.375 5.1875 39.125 5.75 39 C 5.785156 37.941406 5.617188 36.859375 5.25 35.75 C 3.015625 33.851562 2.683594 31.6875 4.25 29.25 C 6.152344 25.453125 8.316406 21.785156 10.75 18.25 C 13.25 15.417969 15.917969 12.75 18.75 10.25 C 24.5625 6.695312 30.5625 3.445312 36.75 0.5 C 40.671875 0.0625 44.503906 0.480469 48.25 1.75 C 49.898438 1.394531 51.566406 1.230469 53.25 1.25 Z M 53.25 1.25 "/>
<path style=" stroke:none;fill-rule:evenodd;fill:rgb(88.627451%,68.627451%,50.980392%);fill-opacity:1;" d="M 91.75 40.25 C 93.65625 39.675781 95.65625 39.59375 97.75 40 C 99.722656 40.984375 100.222656 42.484375 99.25 44.5 C 96.492188 44.910156 93.824219 44.824219 91.25 44.25 C 94.339844 44.609375 95.839844 44.441406 95.75 43.75 C 95.828125 43.0625 95.746094 42.398438 95.5 41.75 C 95.332031 41.917969 95.167969 42.082031 95 42.25 C 94.445312 41.621094 94.359375 41.035156 94.75 40.5 C 93.761719 40.253906 92.761719 40.167969 91.75 40.25 Z M 91.75 40.25 "/>
<path style=" stroke:none;fill-rule:evenodd;fill:rgb(98.823529%,85.490196%,69.019608%);fill-opacity:1;" d="M 91.75 40.25 C 92.761719 40.167969 93.761719 40.253906 94.75 40.5 C 94.359375 41.035156 94.445312 41.621094 95 42.25 C 95.167969 42.082031 95.332031 41.917969 95.5 41.75 C 95.746094 42.398438 95.828125 43.0625 95.75 43.75 C 95.839844 44.441406 94.339844 44.609375 91.25 44.25 C 90.921875 43.6875 90.753906 43.023438 90.75 42.25 C 90.792969 41.332031 91.125 40.667969 91.75 40.25 Z M 91.75 40.25 "/>
<path style=" stroke:none;fill-rule:evenodd;fill:rgb(6.666667%,5.098039%,5.490196%);fill-opacity:1;" d="M 79.75 34.75 C 79.691406 36.34375 79.273438 37.84375 78.5 39.25 C 77.480469 40.183594 76.5625 41.183594 75.75 42.25 C 74.226562 43.144531 72.558594 43.644531 70.75 43.75 C 70.582031 43.75 70.417969 43.75 70.25 43.75 C 69.855469 43.300781 69.355469 42.964844 68.75 42.75 C 68.214844 41.558594 68.714844 41.058594 70.25 41.25 C 74.25 40.171875 77.332031 37.839844 79.5 34.25 C 79.699219 34.363281 79.78125 34.53125 79.75 34.75 Z M 79.75 34.75 "/>
<path style=" stroke:none;fill-rule:evenodd;fill:rgb(85.098039%,56.862745%,31.764706%);fill-opacity:1;" d="M 80.25 40.25 C 78.378906 42.785156 75.878906 44.285156 72.75 44.75 C 71.921875 44.671875 71.257812 44.335938 70.75 43.75 C 72.558594 43.644531 74.226562 43.144531 75.75 42.25 C 76.941406 41.8125 77.941406 41.0625 78.75 40 C 79.375 39.628906 79.875 39.714844 80.25 40.25 Z M 80.25 40.25 "/>
<path style=" stroke:none;fill-rule:evenodd;fill:rgb(66.666667%,54.509804%,45.490196%);fill-opacity:1;" d="M 70.25 40.25 C 70.25 40.582031 70.25 40.917969 70.25 41.25 C 68.714844 41.058594 68.214844 41.558594 68.75 42.75 C 68.582031 42.75 68.417969 42.75 68.25 42.75 C 66.980469 42.648438 66.144531 41.980469 65.75 40.75 C 67.214844 40.257812 68.714844 40.089844 70.25 40.25 Z M 70.25 40.25 "/>
<path style=" stroke:none;fill-rule:evenodd;fill:rgb(39.215686%,35.686275%,34.901961%);fill-opacity:1;" d="M 78.75 27.25 C 79.863281 29.039062 80.363281 31.039062 80.25 33.25 C 80.367188 33.894531 80.203125 34.394531 79.75 34.75 C 79.78125 34.53125 79.699219 34.363281 79.5 34.25 C 77.332031 37.839844 74.25 40.171875 70.25 41.25 C 70.25 40.917969 70.25 40.582031 70.25 40.25 C 75.488281 37.507812 78.320312 33.175781 78.75 27.25 Z M 78.75 27.25 "/>
<path style=" stroke:none;fill-rule:evenodd;fill:rgb(94.509804%,75.294118%,56.862745%);fill-opacity:1;" d="M 90.75 33.25 C 93.132812 33.09375 95.46875 33.34375 97.75 34 C 99.503906 37.179688 98.503906 38.59375 94.75 38.25 C 90.59375 38.765625 89.261719 37.097656 90.75 33.25 Z M 90.75 33.25 "/>
<path style=" stroke:none;fill-rule:evenodd;fill:rgb(52.941176%,41.960784%,37.254902%);fill-opacity:1;" d="M 60.25 20.75 C 61.09375 20.929688 61.59375 21.429688 61.75 22.25 C 58.703125 26.183594 58.453125 30.347656 61 34.75 C 62.261719 36.945312 63.511719 39.109375 64.75 41.25 C 64.425781 41.097656 64.089844 40.929688 63.75 40.75 C 63.621094 41.453125 63.453125 42.117188 63.25 42.75 C 60.707031 37.75 58.207031 32.664062 55.75 27.5 C 56.679688 26.621094 57.679688 25.871094 58.75 25.25 C 59.152344 24.480469 59.316406 23.644531 59.25 22.75 C 59.902344 22.265625 60.238281 21.601562 60.25 20.75 Z M 60.25 20.75 "/>
<path style=" stroke:none;fill-rule:evenodd;fill:rgb(40.392157%,61.176471%,11.372549%);fill-opacity:1;" d="M 18.25 31.75 C 18.28125 31.476562 18.445312 31.3125 18.75 31.25 C 19.566406 32.949219 19.230469 34.363281 17.75 35.5 C 15.867188 36.28125 14.035156 37.03125 12.25 37.75 C 10.867188 38.308594 9.535156 38.558594 8.25 38.5 C 8.25 39 8.25 39.5 8.25 40 C 7.253906 40.46875 6.253906 40.886719 5.25 41.25 C 5.765625 39.554688 6.765625 38.222656 8.25 37.25 C 9.640625 36.464844 10.976562 35.550781 12.25 34.5 C 14.269531 34.414062 16.269531 34.164062 18.25 33.75 C 18.851562 33.003906 18.851562 32.335938 18.25 31.75 Z M 18.25 31.75 "/>
<path style=" stroke:none;fill-rule:evenodd;fill:rgb(95.686275%,72.941176%,51.372549%);fill-opacity:1;" d="M 85.75 24.75 C 85.855469 27.535156 85.355469 30.203125 84.25 32.75 C 84.3125 33.460938 84.476562 34.128906 84.75 34.75 C 83.371094 36.675781 81.871094 38.507812 80.25 40.25 C 79.875 39.714844 79.375 39.628906 78.75 40 C 77.941406 41.0625 76.941406 41.8125 75.75 42.25 C 76.5625 41.183594 77.480469 40.183594 78.5 39.25 C 79.273438 37.84375 79.691406 36.34375 79.75 34.75 C 80.203125 34.394531 80.367188 33.894531 80.25 33.25 C 81.429688 32.414062 82.261719 31.25 82.75 29.75 C 80.890625 26.734375 79.054688 23.734375 77.25 20.75 C 77.558594 20.695312 77.808594 20.527344 78 20.25 C 80.515625 20.589844 82.347656 21.925781 83.5 24.25 C 84.28125 25.480469 84.78125 26.8125 85 28.25 C 85.09375 26.980469 85.34375 25.816406 85.75 24.75 Z M 85.75 24.75 "/>
<path style=" stroke:none;fill-rule:evenodd;fill:rgb(30.980392%,50.980392%,9.019608%);fill-opacity:1;" d="M 17.75 31.75 C 17.917969 31.75 18.082031 31.75 18.25 31.75 C 18.851562 32.335938 18.851562 33.003906 18.25 33.75 C 16.269531 34.164062 14.269531 34.414062 12.25 34.5 C 10.976562 35.550781 9.640625 36.464844 8.25 37.25 C 8.75 36.417969 9.417969 35.75 10.25 35.25 C 10.980469 34.769531 11.648438 34.1875 12.25 33.5 C 11.777344 33.257812 11.277344 33.175781 10.75 33.25 C 12.109375 32.542969 13.609375 32.210938 15.25 32.25 C 16.058594 31.980469 16.890625 31.8125 17.75 31.75 Z M 17.75 31.75 "/>
<path style=" stroke:none;fill-rule:evenodd;fill:rgb(18.039216%,28.627451%,10.196078%);fill-opacity:1;" d="M 8.25 32.75 C 8.960938 33.226562 9.792969 33.390625 10.75 33.25 C 11.277344 33.175781 11.777344 33.257812 12.25 33.5 C 11.648438 34.1875 10.980469 34.769531 10.25 35.25 C 10.25 34.75 10.25 34.25 10.25 33.75 C 9.355469 33.894531 8.523438 33.726562 7.75 33.25 C 7.8125 32.945312 7.976562 32.78125 8.25 32.75 Z M 8.25 32.75 "/>
<path style=" stroke:none;fill-rule:evenodd;fill:rgb(98.823529%,77.254902%,51.372549%);fill-opacity:1;" d="M 54.75 31.25 C 52.675781 30.972656 50.84375 31.472656 49.25 32.75 C 48.449219 32.257812 47.617188 32.175781 46.75 32.5 C 46.222656 33.359375 46.558594 33.859375 47.75 34 C 46.636719 35.484375 45.472656 36.898438 44.25 38.25 C 43.21875 37.714844 42.304688 37.050781 41.5 36.25 C 41.253906 37.066406 41.167969 37.902344 41.25 38.75 C 40.667969 36.65625 40.667969 34.488281 41.25 32.25 C 44.65625 29.917969 48.40625 28.417969 52.5 27.75 C 55.511719 27.65625 56.261719 28.824219 54.75 31.25 Z M 54.75 31.25 "/>
<path style=" stroke:none;fill-rule:evenodd;fill:rgb(75.294118%,84.705882%,48.627451%);fill-opacity:1;" d="M 11.25 30.75 C 12.261719 30.667969 13.261719 30.753906 14.25 31 C 14.878906 31.207031 15.210938 31.625 15.25 32.25 C 13.609375 32.210938 12.109375 32.542969 10.75 33.25 C 9.792969 33.390625 8.960938 33.226562 8.25 32.75 C 9.074219 31.835938 10.074219 31.171875 11.25 30.75 Z M 11.25 30.75 "/>
<path style=" stroke:none;fill-rule:evenodd;fill:rgb(94.901961%,73.333333%,56.862745%);fill-opacity:1;" d="M 89.25 28.25 C 91.257812 28.167969 93.257812 28.25 95.25 28.5 C 97.355469 30.1875 97.023438 31.1875 94.25 31.5 C 92.230469 31.914062 90.230469 31.828125 88.25 31.25 C 87.492188 29.863281 87.824219 28.863281 89.25 28.25 Z M 89.25 28.25 "/>
<path style=" stroke:none;fill-rule:evenodd;fill:rgb(56.470588%,71.372549%,26.27451%);fill-opacity:1;" d="M 13.25 29.25 C 13.75 29.25 14.25 29.25 14.75 29.25 C 14.917969 29.25 15.082031 29.25 15.25 29.25 C 15.292969 29.746094 15.125 30.164062 14.75 30.5 C 15.804688 30.921875 16.804688 31.339844 17.75 31.75 C 16.890625 31.8125 16.058594 31.980469 15.25 32.25 C 15.210938 31.625 14.878906 31.207031 14.25 31 C 13.261719 30.753906 12.261719 30.667969 11.25 30.75 C 11.078125 30.332031 10.746094 30.164062 10.25 30.25 C 11.25 29.917969 12.25 29.582031 13.25 29.25 Z M 13.25 29.25 "/>
<path style=" stroke:none;fill-rule:evenodd;fill:rgb(20%,11.372549%,9.019608%);fill-opacity:1;" d="M 58.75 25.25 C 57.679688 25.871094 56.679688 26.621094 55.75 27.5 C 58.207031 32.664062 60.707031 37.75 63.25 42.75 C 63.4375 43.824219 63.605469 44.90625 63.75 46 C 63.804688 47.109375 63.46875 48.027344 62.75 48.75 C 62.832031 47.242188 62.75 45.742188 62.5 44.25 C 60.941406 40.128906 59.105469 36.128906 57 32.25 C 56.335938 31.707031 55.585938 31.375 54.75 31.25 C 56.261719 28.824219 55.511719 27.65625 52.5 27.75 C 48.40625 28.417969 44.65625 29.917969 41.25 32.25 C 40.039062 32.4375 38.871094 32.773438 37.75 33.25 C 37.75 33.082031 37.75 32.917969 37.75 32.75 C 40.433594 31.078125 43.101562 29.410156 45.75 27.75 C 49.933594 26.183594 54.265625 25.351562 58.75 25.25 Z M 58.75 25.25 "/>
<path style=" stroke:none;fill-rule:evenodd;fill:rgb(87.45098%,92.156863%,63.921569%);fill-opacity:1;" d="M 9.75 24.75 C 9.789062 25.464844 9.621094 26.132812 9.25 26.75 C 11.230469 27.164062 13.230469 27.414062 15.25 27.5 C 15.84375 28.074219 15.84375 28.65625 15.25 29.25 C 15.082031 29.25 14.917969 29.25 14.75 29.25 C 14.75 28.75 14.75 28.25 14.75 27.75 C 12.917969 27.75 11.082031 27.75 9.25 27.75 C 9.25 28.25 9.25 28.75 9.25 29.25 C 10.582031 29.25 11.917969 29.25 13.25 29.25 C 12.25 29.582031 11.25 29.917969 10.25 30.25 C 9.25 30.25 8.25 30.25 7.25 30.25 C 7.6875 28.207031 8.523438 26.375 9.75 24.75 Z M 9.75 24.75 "/>
<path style=" stroke:none;fill-rule:evenodd;fill:rgb(97.254902%,97.254902%,85.882353%);fill-opacity:1;" d="M 14.75 29.25 C 14.25 29.25 13.75 29.25 13.25 29.25 C 11.917969 29.25 10.582031 29.25 9.25 29.25 C 9.25 28.75 9.25 28.25 9.25 27.75 C 11.082031 27.75 12.917969 27.75 14.75 27.75 C 14.75 28.25 14.75 28.75 14.75 29.25 Z M 14.75 29.25 "/>
<path style=" stroke:none;fill-rule:evenodd;fill:rgb(97.254902%,74.509804%,50.588235%);fill-opacity:1;" d="M 59.25 22.75 C 59.316406 23.644531 59.152344 24.480469 58.75 25.25 C 54.265625 25.351562 49.933594 26.183594 45.75 27.75 C 45.0625 27.828125 44.398438 27.746094 43.75 27.5 C 46.082031 26.167969 48.417969 24.832031 50.75 23.5 C 53.554688 22.933594 56.390625 22.683594 59.25 22.75 Z M 59.25 22.75 "/>
<path style=" stroke:none;fill-rule:evenodd;fill:rgb(21.176471%,15.686275%,15.686275%);fill-opacity:1;" d="M 68.75 17.75 C 71.082031 17.75 73.417969 17.75 75.75 17.75 C 76.253906 18.773438 76.753906 19.773438 77.25 20.75 C 79.054688 23.734375 80.890625 26.734375 82.75 29.75 C 82.261719 31.25 81.429688 32.414062 80.25 33.25 C 80.363281 31.039062 79.863281 29.039062 78.75 27.25 C 77.3125 25.390625 76.480469 23.390625 76.25 21.25 C 75.867188 21.804688 75.367188 22.140625 74.75 22.25 C 75.390625 21 75.390625 19.75 74.75 18.5 C 72.65625 18.410156 70.65625 18.160156 68.75 17.75 Z M 68.75 17.75 "/>
<path style=" stroke:none;fill-rule:evenodd;fill:rgb(1.960784%,1.176471%,5.490196%);fill-opacity:1;" d="M 78.75 27.25 C 78.320312 33.175781 75.488281 37.507812 70.25 40.25 C 68.714844 40.089844 67.214844 40.257812 65.75 40.75 C 66.144531 41.980469 66.980469 42.648438 68.25 42.75 C 68.019531 44.152344 67.351562 45.316406 66.25 46.25 C 65.839844 44.847656 65.589844 43.347656 65.5 41.75 C 65.308594 41.472656 65.058594 41.304688 64.75 41.25 C 63.511719 39.109375 62.261719 36.945312 61 34.75 C 58.453125 30.347656 58.703125 26.183594 61.75 22.25 C 66.175781 22.410156 70.511719 22.410156 74.75 22.25 C 75.367188 22.140625 75.867188 21.804688 76.25 21.25 C 76.480469 23.390625 77.3125 25.390625 78.75 27.25 Z M 78.75 27.25 "/>
<path style=" stroke:none;fill-rule:evenodd;fill:rgb(27.843137%,43.529412%,18.431373%);fill-opacity:1;" d="M 41.25 20.25 C 41.417969 20.25 41.582031 20.25 41.75 20.25 C 41.835938 20.910156 41.667969 21.496094 41.25 22 C 39.796875 22.644531 38.296875 23.144531 36.75 23.5 C 37.605469 24.066406 37.855469 24.816406 37.5 25.75 C 36.65625 26.507812 35.90625 27.34375 35.25 28.25 C 35.78125 30.523438 34.949219 32.1875 32.75 33.25 C 34.300781 29.746094 34.800781 26.082031 34.25 22.25 C 36.871094 22.488281 39.203125 21.820312 41.25 20.25 Z M 41.25 20.25 "/>
<path style=" stroke:none;fill-rule:evenodd;fill:rgb(87.45098%,58.823529%,38.823529%);fill-opacity:1;" d="M 75.75 17.75 C 80.671875 17.871094 84.003906 20.207031 85.75 24.75 C 85.34375 25.816406 85.09375 26.980469 85 28.25 C 84.78125 26.8125 84.28125 25.480469 83.5 24.25 C 82.347656 21.925781 80.515625 20.589844 78 20.25 C 77.808594 20.527344 77.558594 20.695312 77.25 20.75 C 76.753906 19.773438 76.253906 18.773438 75.75 17.75 Z M 75.75 17.75 "/>
<path style=" stroke:none;fill-rule:evenodd;fill:rgb(84.705882%,54.117647%,32.156863%);fill-opacity:1;" d="M 59.75 20.25 C 60.082031 20.25 60.25 20.417969 60.25 20.75 C 60.238281 21.601562 59.902344 22.265625 59.25 22.75 C 56.390625 22.683594 53.554688 22.933594 50.75 23.5 C 48.417969 24.832031 46.082031 26.167969 43.75 27.5 C 44.398438 27.746094 45.0625 27.828125 45.75 27.75 C 43.101562 29.410156 40.433594 31.078125 37.75 32.75 C 37.425781 32.363281 37.257812 31.863281 37.25 31.25 C 38.59375 26.742188 41.59375 23.90625 46.25 22.75 C 46.5625 21.195312 47.5625 20.445312 49.25 20.5 C 49.917969 20.167969 49.917969 19.832031 49.25 19.5 C 52.960938 18.246094 56.460938 18.496094 59.75 20.25 Z M 59.75 20.25 "/>
<path style=" stroke:none;fill-rule:evenodd;fill:rgb(42.745098%,65.882353%,13.333333%);fill-opacity:1;" d="M 38.25 6.75 C 39.300781 6.601562 40.300781 6.765625 41.25 7.25 C 42.542969 8.878906 44.210938 9.878906 46.25 10.25 C 46.355469 11.070312 46.191406 11.820312 45.75 12.5 C 42.824219 13.699219 39.824219 14.699219 36.75 15.5 C 37.789062 15.597656 38.789062 15.847656 39.75 16.25 C 39.050781 18.835938 37.300781 20.335938 34.5 20.75 C 33.601562 20.3125 32.683594 19.976562 31.75 19.75 C 31.378906 21.476562 32.042969 22.308594 33.75 22.25 C 33.582031 24.25 33.417969 26.25 33.25 28.25 C 32.097656 28.496094 30.929688 28.664062 29.75 28.75 C 29.75 29.417969 29.75 30.082031 29.75 30.75 C 28.609375 29.4375 27.441406 28.105469 26.25 26.75 C 27.738281 26.09375 28.902344 25.09375 29.75 23.75 C 29.296875 22.625 28.628906 21.625 27.75 20.75 C 27.855469 20.457031 28.019531 20.207031 28.25 20 C 30.472656 19.734375 32.636719 19.234375 34.75 18.5 C 35.027344 18.136719 35.195312 17.722656 35.25 17.25 C 33.882812 14.257812 31.882812 13.59375 29.25 15.25 C 28.695312 15.222656 28.195312 15.054688 27.75 14.75 C 27.738281 13.929688 28.074219 13.261719 28.75 12.75 C 31.214844 12.128906 33.714844 11.710938 36.25 11.5 C 38.726562 10.726562 39.394531 9.144531 38.25 6.75 Z M 38.25 6.75 "/>
<path style=" stroke:none;fill-rule:evenodd;fill:rgb(30.196078%,29.411765%,32.156863%);fill-opacity:1;" d="M 59.25 18.25 C 60.3125 18.890625 61.3125 19.640625 62.25 20.5 C 65.511719 20.867188 68.761719 21.285156 72 21.75 C 72.382812 21.714844 72.632812 21.546875 72.75 21.25 C 73.300781 21.800781 73.96875 22.132812 74.75 22.25 C 70.511719 22.410156 66.175781 22.410156 61.75 22.25 C 61.59375 21.429688 61.09375 20.929688 60.25 20.75 C 60.25 20.417969 60.082031 20.25 59.75 20.25 C 59.582031 19.582031 59.417969 18.917969 59.25 18.25 Z M 59.25 18.25 "/>
<path style=" stroke:none;fill-rule:evenodd;fill:rgb(33.333333%,57.254902%,15.294118%);fill-opacity:1;" d="M 46.25 10.25 C 47.25 10.25 48.25 10.25 49.25 10.25 C 49.574219 11.21875 49.742188 12.21875 49.75 13.25 C 46.871094 13.355469 46.703125 13.769531 49.25 14.5 C 47.917969 14.667969 46.582031 14.832031 45.25 15 C 44.460938 15.21875 43.796875 15.636719 43.25 16.25 C 42.875 15.8125 42.625 15.3125 42.5 14.75 C 42.082031 15.167969 41.667969 15.582031 41.25 16 C 41.351562 17.3125 41.351562 18.726562 41.25 20.25 C 39.203125 21.820312 36.871094 22.488281 34.25 22.25 C 34.800781 26.082031 34.300781 29.746094 32.75 33.25 C 32.75 33.582031 32.75 33.917969 32.75 34.25 C 32.75 35.25 32.75 36.25 32.75 37.25 C 31.542969 36.542969 30.710938 35.542969 30.25 34.25 C 30.351562 33.023438 30.183594 31.859375 29.75 30.75 C 29.75 30.082031 29.75 29.417969 29.75 28.75 C 30.929688 28.664062 32.097656 28.496094 33.25 28.25 C 33.417969 26.25 33.582031 24.25 33.75 22.25 C 32.042969 22.308594 31.378906 21.476562 31.75 19.75 C 32.683594 19.976562 33.601562 20.3125 34.5 20.75 C 37.300781 20.335938 39.050781 18.835938 39.75 16.25 C 38.789062 15.847656 37.789062 15.597656 36.75 15.5 C 39.824219 14.699219 42.824219 13.699219 45.75 12.5 C 46.191406 11.820312 46.355469 11.070312 46.25 10.25 Z M 46.25 10.25 "/>
<path style=" stroke:none;fill-rule:evenodd;fill:rgb(79.607843%,55.686275%,39.607843%);fill-opacity:1;" d="M 68.75 17.75 C 70.65625 18.160156 72.65625 18.410156 74.75 18.5 C 75.390625 19.75 75.390625 21 74.75 22.25 C 73.96875 22.132812 73.300781 21.800781 72.75 21.25 C 69.796875 20.515625 66.964844 19.433594 64.25 18 C 65.742188 17.75 67.242188 17.667969 68.75 17.75 Z M 68.75 17.75 "/>
<path style=" stroke:none;fill-rule:evenodd;fill:rgb(69.411765%,44.705882%,30.196078%);fill-opacity:1;" d="M 59.25 18.25 C 59.417969 18.917969 59.582031 19.582031 59.75 20.25 C 56.460938 18.496094 52.960938 18.246094 49.25 19.5 C 49.917969 19.832031 49.917969 20.167969 49.25 20.5 C 47.5625 20.445312 46.5625 21.195312 46.25 22.75 C 46.210938 21.792969 45.710938 21.210938 44.75 21 C 49.242188 18.082031 54.074219 17.167969 59.25 18.25 Z M 59.25 18.25 "/>
<path style=" stroke:none;fill-rule:evenodd;fill:rgb(43.529412%,68.627451%,7.843137%);fill-opacity:1;" d="M 27.75 14.75 C 28.195312 15.054688 28.695312 15.222656 29.25 15.25 C 29.125 16.085938 28.792969 16.835938 28.25 17.5 C 25.183594 17.890625 22.183594 18.558594 19.25 19.5 C 16.566406 21.167969 13.898438 22.835938 11.25 24.5 C 10.777344 24.742188 10.277344 24.824219 9.75 24.75 C 9.964844 24.144531 10.300781 23.644531 10.75 23.25 C 12.472656 21.941406 13.972656 20.355469 15.25 18.5 C 17.472656 17.640625 19.636719 16.640625 21.75 15.5 C 23.84375 15.410156 25.84375 15.160156 27.75 14.75 Z M 27.75 14.75 "/>
<path style=" stroke:none;fill-rule:evenodd;fill:rgb(30.588235%,54.117647%,13.333333%);fill-opacity:1;" d="M 32.25 6.75 C 33.582031 6.75 34.917969 6.75 36.25 6.75 C 31.6875 7.738281 27.523438 9.65625 23.75 12.5 C 24.621094 13.980469 25.953125 14.730469 27.75 14.75 C 25.84375 15.160156 23.84375 15.410156 21.75 15.5 C 19.636719 16.640625 17.472656 17.640625 15.25 18.5 C 13.972656 20.355469 12.472656 21.941406 10.75 23.25 C 12.035156 20.628906 13.867188 18.464844 16.25 16.75 C 17.441406 16.3125 18.441406 15.5625 19.25 14.5 C 20.75 14.332031 22.25 14.167969 23.75 14 C 22.957031 13.570312 22.125 13.234375 21.25 13 C 21.691406 12.644531 22.023438 12.230469 22.25 11.75 C 25.019531 9.03125 28.351562 7.367188 32.25 6.75 Z M 32.25 6.75 "/>
<path style=" stroke:none;fill-rule:evenodd;fill:rgb(17.254902%,31.764706%,14.509804%);fill-opacity:1;" d="M 51.25 10.75 C 52.871094 11.027344 54.371094 11.527344 55.75 12.25 C 57.582031 12.175781 58.082031 12.925781 57.25 14.5 C 55.058594 15.015625 52.890625 15.597656 50.75 16.25 C 51.226562 15.671875 51.726562 15.085938 52.25 14.5 C 51.757812 13.671875 51.257812 12.839844 50.75 12 C 51.808594 11.828125 51.976562 11.414062 51.25 10.75 Z M 51.25 10.75 "/>
<path style=" stroke:none;fill-rule:evenodd;fill:rgb(23.921569%,47.843137%,12.156863%);fill-opacity:1;" d="M 49.25 10.25 C 49.917969 10.417969 50.582031 10.582031 51.25 10.75 C 51.976562 11.414062 51.808594 11.828125 50.75 12 C 51.257812 12.839844 51.757812 13.671875 52.25 14.5 C 51.726562 15.085938 51.226562 15.671875 50.75 16.25 C 47.636719 17.304688 44.636719 18.640625 41.75 20.25 C 41.582031 20.25 41.417969 20.25 41.25 20.25 C 41.351562 18.726562 41.351562 17.3125 41.25 16 C 41.667969 15.582031 42.082031 15.167969 42.5 14.75 C 42.625 15.3125 42.875 15.8125 43.25 16.25 C 43.796875 15.636719 44.460938 15.21875 45.25 15 C 46.582031 14.832031 47.917969 14.667969 49.25 14.5 C 46.703125 13.769531 46.871094 13.355469 49.75 13.25 C 49.742188 12.21875 49.574219 11.21875 49.25 10.25 Z M 49.25 10.25 "/>
<path style=" stroke:none;fill-rule:evenodd;fill:rgb(16.470588%,39.215686%,11.372549%);fill-opacity:1;" d="M 55.75 12.25 C 55.859375 12.867188 56.195312 13.367188 56.75 13.75 C 56.21875 14.347656 55.554688 14.679688 54.75 14.75 C 53.832031 13.917969 52.832031 13.167969 51.75 12.5 C 53.074219 12.25 54.40625 12.167969 55.75 12.25 Z M 55.75 12.25 "/>
<path style=" stroke:none;fill-rule:evenodd;fill:rgb(85.490196%,52.156863%,30.588235%);fill-opacity:1;" d="M 72.75 8.75 C 73.378906 9.648438 74.210938 10.398438 75.25 11 C 74.441406 11.117188 73.941406 11.535156 73.75 12.25 C 73.289062 11.847656 72.789062 11.765625 72.25 12 C 73.25 13.246094 73.75 14.664062 73.75 16.25 C 69.492188 16.414062 65.324219 16.246094 61.25 15.75 C 61.625 15.234375 61.957031 14.652344 62.25 14 C 64.828125 12.878906 67.492188 12.042969 70.25 11.5 C 70.703125 10.648438 70.871094 9.734375 70.75 8.75 C 71.417969 8.75 72.082031 8.75 72.75 8.75 Z M 72.75 8.75 "/>
<path style=" stroke:none;fill-rule:evenodd;fill:rgb(23.529412%,41.960784%,16.470588%);fill-opacity:1;" d="M 22.25 11.75 C 22.023438 12.230469 21.691406 12.644531 21.25 13 C 22.125 13.234375 22.957031 13.570312 23.75 14 C 22.25 14.167969 20.75 14.332031 19.25 14.5 C 18.441406 15.5625 17.441406 16.3125 16.25 16.75 C 17.875 14.609375 19.875 12.941406 22.25 11.75 Z M 22.25 11.75 "/>
<path style=" stroke:none;fill-rule:evenodd;fill:rgb(80%,48.627451%,32.941176%);fill-opacity:1;" d="M 72.75 8.25 C 76.222656 9.558594 78.222656 12.058594 78.75 15.75 C 78.222656 15.824219 77.722656 15.742188 77.25 15.5 C 76.148438 14.3125 74.980469 13.230469 73.75 12.25 C 73.941406 11.535156 74.441406 11.117188 75.25 11 C 74.210938 10.398438 73.378906 9.648438 72.75 8.75 C 72.75 8.582031 72.75 8.417969 72.75 8.25 Z M 72.75 8.25 "/>
<path style=" stroke:none;fill-rule:evenodd;fill:rgb(37.254902%,62.352941%,13.333333%);fill-opacity:1;" d="M 36.25 6.75 C 36.582031 6.75 36.917969 6.75 37.25 6.75 C 37.582031 6.75 37.917969 6.75 38.25 6.75 C 39.394531 9.144531 38.726562 10.726562 36.25 11.5 C 33.714844 11.710938 31.214844 12.128906 28.75 12.75 C 28.074219 13.261719 27.738281 13.929688 27.75 14.75 C 25.953125 14.730469 24.621094 13.980469 23.75 12.5 C 27.523438 9.65625 31.6875 7.738281 36.25 6.75 Z M 36.25 6.75 "/>
<path style=" stroke:none;fill-rule:evenodd;fill:rgb(98.431373%,78.039216%,58.039216%);fill-opacity:1;" d="M 72.75 8.25 C 72.75 8.417969 72.75 8.582031 72.75 8.75 C 72.082031 8.75 71.417969 8.75 70.75 8.75 C 70.871094 9.734375 70.703125 10.648438 70.25 11.5 C 67.492188 12.042969 64.828125 12.878906 62.25 14 C 61.957031 14.652344 61.625 15.234375 61.25 15.75 C 62.613281 9.640625 66.449219 7.140625 72.75 8.25 Z M 72.75 8.25 "/>
<path style=" stroke:none;fill-rule:evenodd;fill:rgb(28.235294%,49.803922%,14.901961%);fill-opacity:1;" d="M 49.25 10.25 C 48.25 10.25 47.25 10.25 46.25 10.25 C 47.523438 9.4375 48.859375 8.605469 50.25 7.75 C 47.4375 6.78125 44.523438 6.28125 41.5 6.25 C 40.320312 6.25 39.234375 6.417969 38.25 6.75 C 37.917969 6.75 37.582031 6.75 37.25 6.75 C 36.855469 6.300781 36.355469 5.964844 35.75 5.75 C 34.847656 5.753906 34.011719 5.503906 33.25 5 C 33.417969 4.832031 33.582031 4.667969 33.75 4.5 C 38.351562 2.679688 42.851562 2.929688 47.25 5.25 C 47.609375 4.84375 48.023438 4.511719 48.5 4.25 C 49.421875 4.878906 50.421875 5.378906 51.5 5.75 C 52.363281 5.675781 52.445312 5.34375 51.75 4.75 C 52.710938 4.179688 53.710938 4.097656 54.75 4.5 C 56.417969 5.332031 58.082031 6.167969 59.75 7 C 61.394531 7.980469 61.5625 9.0625 60.25 10.25 C 57.9375 9.238281 55.519531 8.570312 53 8.25 C 51.515625 8.667969 50.265625 9.332031 49.25 10.25 Z M 49.25 10.25 "/>
<path style=" stroke:none;fill-rule:evenodd;fill:rgb(33.72549%,56.470588%,13.72549%);fill-opacity:1;" d="M 38.25 6.75 C 39.234375 6.417969 40.320312 6.25 41.5 6.25 C 44.523438 6.28125 47.4375 6.78125 50.25 7.75 C 48.859375 8.605469 47.523438 9.4375 46.25 10.25 C 44.210938 9.878906 42.542969 8.878906 41.25 7.25 C 40.300781 6.765625 39.300781 6.601562 38.25 6.75 Z M 38.25 6.75 "/>
<path style=" stroke:none;fill-rule:evenodd;fill:rgb(3.529412%,19.607843%,3.529412%);fill-opacity:1;" d="M 35.75 5.75 C 36.355469 5.964844 36.855469 6.300781 37.25 6.75 C 36.917969 6.75 36.582031 6.75 36.25 6.75 C 34.917969 6.75 33.582031 6.75 32.25 6.75 C 33.417969 6.417969 34.582031 6.082031 35.75 5.75 Z M 35.75 5.75 "/>
<path style=" stroke:none;fill-rule:evenodd;fill:rgb(95.686275%,96.470588%,83.137255%);fill-opacity:1;" d="M 5.75 44.75 C 6.582031 44.75 7.417969 44.75 8.25 44.75 C 8.25 45.582031 8.25 46.417969 8.25 47.25 C 5.988281 47.570312 5.152344 46.734375 5.75 44.75 Z M 5.75 44.75 "/>
<path style=" stroke:none;fill-rule:evenodd;fill:rgb(61.960784%,80.784314%,15.294118%);fill-opacity:1;" d="M 28.25 39.25 C 31.304688 40.984375 32.972656 43.652344 33.25 47.25 C 32.996094 48.4375 32.660156 49.605469 32.25 50.75 C 33.140625 53.007812 33.390625 55.339844 33 57.75 C 31.945312 59.746094 31.445312 61.910156 31.5 64.25 C 30.464844 66.34375 29.382812 68.34375 28.25 70.25 C 27.8125 72.015625 27.144531 73.683594 26.25 75.25 C 25.25 75.25 24.25 75.25 23.25 75.25 C 23.25 74.75 23.25 74.25 23.25 73.75 C 22.191406 73.664062 21.191406 73.828125 20.25 74.25 C 20.519531 72.351562 19.6875 71.351562 17.75 71.25 C 18.4375 70.355469 18.9375 69.355469 19.25 68.25 C 18.8125 67.875 18.3125 67.625 17.75 67.5 C 18.652344 67.339844 18.816406 67.007812 18.25 66.5 C 15.753906 66.457031 13.253906 66.539062 10.75 66.75 C 9.652344 66.5625 8.652344 66.230469 7.75 65.75 C 8.203125 65.394531 8.367188 64.894531 8.25 64.25 C 9.429688 64.332031 10.59375 64.25 11.75 64 C 11.347656 63.847656 11.011719 63.597656 10.75 63.25 C 11.300781 62.554688 11.96875 61.96875 12.75 61.5 C 12.101562 61.253906 11.4375 61.171875 10.75 61.25 C 10.144531 61.035156 9.644531 60.699219 9.25 60.25 C 7.820312 58.148438 7.402344 55.816406 8 53.25 C 8.550781 55.007812 9.632812 56.339844 11.25 57.25 C 12.59375 57.320312 13.84375 57.152344 15 56.75 C 16.421875 57.648438 16.507812 58.5625 15.25 59.5 C 16.011719 60.183594 16.761719 60.433594 17.5 60.25 C 17.902344 62.78125 19.070312 63.613281 21 62.75 C 21.542969 63.828125 22.125 63.910156 22.75 63 C 23.222656 61.761719 23.222656 60.59375 22.75 59.5 C 23.980469 57.976562 24.730469 56.226562 25 54.25 C 26.25 53.292969 27.582031 52.457031 29 51.75 C 29.210938 52.476562 29.628906 52.726562 30.25 52.5 C 30.34375 51.566406 30.175781 50.566406 29.75 49.5 C 28.894531 48.695312 27.980469 47.945312 27 47.25 C 26.28125 45.949219 25.53125 44.699219 24.75 43.5 C 25.058594 42.730469 25.058594 42.066406 24.75 41.5 C 25 41.25 25.25 41 25.5 40.75 C 26.089844 41.367188 26.675781 41.367188 27.25 40.75 C 26.816406 40.71875 26.316406 40.550781 25.75 40.25 C 25.082031 39.582031 25.082031 38.917969 25.75 38.25 C 26.539062 38.726562 27.371094 39.0625 28.25 39.25 Z M 28.25 39.25 "/>
<path style=" stroke:none;fill-rule:evenodd;fill:rgb(43.529412%,65.098039%,14.509804%);fill-opacity:1;" d="M 30.25 34.25 C 30.710938 35.542969 31.542969 36.542969 32.75 37.25 C 33.328125 39.074219 34.164062 40.742188 35.25 42.25 C 35.789062 48.070312 35.875 53.902344 35.5 59.75 C 34.710938 61.375 33.710938 62.875 32.5 64.25 C 32.417969 65.25 32.332031 66.25 32.25 67.25 C 32.917969 70.605469 33.585938 73.9375 34.25 77.25 C 35.03125 77.242188 35.78125 77.074219 36.5 76.75 C 37.191406 77.933594 38.191406 78.765625 39.5 79.25 C 40.085938 80.421875 40.667969 81.589844 41.25 82.75 C 43.007812 83.039062 44.675781 83.539062 46.25 84.25 C 46.335938 84.910156 46.167969 85.496094 45.75 86 C 46.488281 86.355469 46.820312 86.9375 46.75 87.75 C 46.105469 87.632812 45.605469 87.796875 45.25 88.25 C 40.785156 88.195312 40.617188 87.28125 44.75 85.5 C 44.417969 85.167969 44.082031 84.832031 43.75 84.5 C 41.09375 84.394531 38.511719 83.976562 36 83.25 C 35.917969 83.082031 35.832031 82.917969 35.75 82.75 C 36.75 82.332031 37.75 81.917969 38.75 81.5 C 37.75 81.167969 37.082031 80.5 36.75 79.5 C 35.25 79.082031 33.75 78.667969 32.25 78.25 C 33.0625 77.566406 33.3125 76.730469 33 75.75 C 31.453125 75.144531 29.953125 74.476562 28.5 73.75 C 28.25 72.59375 28.167969 71.429688 28.25 70.25 C 29.382812 68.34375 30.464844 66.34375 31.5 64.25 C 31.445312 61.910156 31.945312 59.746094 33 57.75 C 33.390625 55.339844 33.140625 53.007812 32.25 50.75 C 32.660156 49.605469 32.996094 48.4375 33.25 47.25 C 32.972656 43.652344 31.304688 40.984375 28.25 39.25 C 27.175781 38.265625 26.011719 37.347656 24.75 36.5 C 26.59375 35.742188 28.425781 34.992188 30.25 34.25 Z M 30.25 34.25 "/>
<path style=" stroke:none;fill-rule:evenodd;fill:rgb(92.54902%,70.196078%,50.588235%);fill-opacity:1;" d="M 94.25 46.75 C 96.320312 46.574219 98.320312 46.824219 100.25 47.5 C 101.339844 49.820312 100.675781 51.320312 98.25 52 C 95.824219 52.40625 93.492188 52.324219 91.25 51.75 C 95.277344 51.929688 96.277344 50.261719 94.25 46.75 Z M 94.25 46.75 "/>
<use xlink:href="#surface17" mask="url(#mask4)"/>
<path style=" stroke:none;fill-rule:evenodd;fill:rgb(99.607843%,84.705882%,65.490196%);fill-opacity:1;" d="M 94.25 46.75 C 96.277344 50.261719 95.277344 51.929688 91.25 51.75 C 91.25 50.082031 91.25 48.417969 91.25 46.75 C 92.25 46.75 93.25 46.75 94.25 46.75 Z M 94.25 46.75 "/>
<path style=" stroke:none;fill-rule:evenodd;fill:rgb(72.941176%,50.980392%,34.901961%);fill-opacity:1;" d="M 88.75 37.25 C 89.496094 40.550781 89.832031 43.96875 89.75 47.5 C 89.753906 52.019531 89.421875 56.433594 88.75 60.75 C 88.996094 52.902344 88.996094 45.070312 88.75 37.25 Z M 88.75 37.25 "/>
<path style=" stroke:none;fill-rule:evenodd;fill:rgb(84.313725%,51.372549%,32.156863%);fill-opacity:1;" d="M 68.25 42.75 C 68.417969 42.75 68.582031 42.75 68.75 42.75 C 69.355469 42.964844 69.855469 43.300781 70.25 43.75 C 70.25 47.417969 70.25 51.082031 70.25 54.75 C 71.050781 54.617188 71.714844 54.78125 72.25 55.25 C 70.941406 55.117188 69.691406 55.28125 68.5 55.75 C 68.070312 54.957031 67.734375 54.121094 67.5 53.25 C 66.996094 52.832031 66.410156 52.664062 65.75 52.75 C 65.648438 50.550781 65.8125 48.382812 66.25 46.25 C 67.351562 45.316406 68.019531 44.152344 68.25 42.75 Z M 68.25 42.75 "/>
<path style=" stroke:none;fill-rule:evenodd;fill:rgb(77.647059%,48.627451%,29.411765%);fill-opacity:1;" d="M 41.25 32.25 C 40.667969 34.488281 40.667969 36.65625 41.25 38.75 C 42.925781 46.898438 42.425781 54.898438 39.75 62.75 C 39.222656 63.300781 38.804688 63.96875 38.5 64.75 C 38.332031 66.417969 38.167969 68.082031 38 69.75 C 37.808594 69.472656 37.558594 69.304688 37.25 69.25 C 37.40625 67.632812 37.492188 65.96875 37.5 64.25 C 42.671875 54.042969 42.421875 43.960938 36.75 34 C 36.917969 33.484375 37.25 33.234375 37.75 33.25 C 38.871094 32.773438 40.039062 32.4375 41.25 32.25 Z M 41.25 32.25 "/>
<path style=" stroke:none;fill-rule:evenodd;fill:rgb(93.72549%,94.901961%,89.411765%);fill-opacity:1;" d="M 3.75 45.75 C 3.632812 46.394531 3.796875 46.894531 4.25 47.25 C 6.449219 50.539062 7.28125 54.207031 6.75 58.25 C 3.386719 54.644531 2.386719 50.476562 3.75 45.75 Z M 3.75 45.75 "/>
<path style=" stroke:none;fill-rule:evenodd;fill:rgb(99.215686%,72.156863%,48.235294%);fill-opacity:1;" d="M 70.25 43.75 C 70.417969 43.75 70.582031 43.75 70.75 43.75 C 71.257812 44.335938 71.921875 44.671875 72.75 44.75 C 72.417969 47.234375 72.25 49.734375 72.25 52.25 C 72.75 52.25 73.25 52.25 73.75 52.25 C 73.75 52.75 73.75 53.25 73.75 53.75 C 76.320312 54.03125 76.320312 54.53125 73.75 55.25 C 73.25 55.25 72.75 55.25 72.25 55.25 C 71.714844 54.78125 71.050781 54.617188 70.25 54.75 C 70.25 51.082031 70.25 47.417969 70.25 43.75 Z M 70.25 43.75 "/>
<path style=" stroke:none;fill-rule:evenodd;fill:rgb(61.568627%,43.529412%,32.54902%);fill-opacity:1;" d="M 64.75 41.25 C 65.058594 41.304688 65.308594 41.472656 65.5 41.75 C 65.589844 43.347656 65.839844 44.847656 66.25 46.25 C 65.8125 48.382812 65.648438 50.550781 65.75 52.75 C 66.121094 54.660156 67.121094 56.160156 68.75 57.25 C 68.75 57.582031 68.75 57.917969 68.75 58.25 C 66.121094 58.617188 65.039062 57.449219 65.5 54.75 C 64.960938 56.445312 64.378906 58.113281 63.75 59.75 C 63.417969 59.917969 63.082031 60.082031 62.75 60.25 C 62.125 59.15625 61.292969 58.988281 60.25 59.75 C 61.90625 56.277344 62.742188 52.609375 62.75 48.75 C 63.46875 48.027344 63.804688 47.109375 63.75 46 C 63.605469 44.90625 63.4375 43.824219 63.25 42.75 C 63.453125 42.117188 63.621094 41.453125 63.75 40.75 C 64.089844 40.929688 64.425781 41.097656 64.75 41.25 Z M 64.75 41.25 "/>
<path style=" stroke:none;fill-rule:evenodd;fill:rgb(95.686275%,75.294118%,58.039216%);fill-opacity:1;" d="M 97.25 59.25 C 95.582031 59.25 93.917969 59.25 92.25 59.25 C 91.914062 58.867188 91.496094 58.53125 91 58.25 C 90.75 56.925781 90.667969 55.59375 90.75 54.25 C 93.589844 54.167969 96.421875 54.25 99.25 54.5 C 99.789062 55.363281 99.871094 56.28125 99.5 57.25 C 98.800781 58.035156 98.050781 58.703125 97.25 59.25 Z M 97.25 59.25 "/>
<path style=" stroke:none;fill-rule:evenodd;fill:rgb(98.823529%,81.960784%,59.215686%);fill-opacity:1;" d="M 84.75 34.75 C 84.917969 34.75 85.082031 34.75 85.25 34.75 C 87.808594 39.300781 88.808594 44.214844 88.25 49.5 C 88.167969 51.917969 88.082031 54.332031 88 56.75 C 87.027344 59.136719 85.945312 61.472656 84.75 63.75 C 84.328125 64.691406 84.164062 65.691406 84.25 66.75 C 83.820312 69.507812 83.40625 72.339844 83 75.25 C 82.859375 75.707031 82.609375 76.039062 82.25 76.25 C 82.121094 75.203125 81.535156 74.535156 80.5 74.25 C 79.511719 74.953125 78.425781 75.453125 77.25 75.75 C 78.832031 74.921875 79.667969 73.589844 79.75 71.75 C 79.808594 70.527344 80.308594 69.527344 81.25 68.75 C 81.5625 68.542969 81.726562 68.207031 81.75 67.75 C 81.015625 66.03125 80.347656 64.28125 79.75 62.5 C 80.046875 61.558594 80.714844 61.058594 81.75 61 C 80.75 60.832031 79.75 60.667969 78.75 60.5 C 77.304688 58.472656 75.636719 56.722656 73.75 55.25 C 76.320312 54.53125 76.320312 54.03125 73.75 53.75 C 73.75 53.25 73.75 52.75 73.75 52.25 C 73.25 52.25 72.75 52.25 72.25 52.25 C 72.25 49.734375 72.417969 47.234375 72.75 44.75 C 75.878906 44.285156 78.378906 42.785156 80.25 40.25 C 81.871094 38.507812 83.371094 36.675781 84.75 34.75 Z M 84.75 34.75 "/>
<path style=" stroke:none;fill-rule:evenodd;fill:rgb(4.313725%,2.745098%,3.529412%);fill-opacity:1;" d="M 80.75 44.25 C 83.617188 43.910156 84.449219 45.078125 83.25 47.75 C 82.082031 48.332031 80.917969 48.917969 79.75 49.5 C 81.050781 49.988281 82.300781 50.570312 83.5 51.25 C 84.417969 54.332031 83.332031 55.417969 80.25 54.5 C 77.78125 53.511719 75.367188 52.429688 73 51.25 C 72.527344 49.828125 72.777344 48.578125 73.75 47.5 C 76.1875 46.527344 78.523438 45.445312 80.75 44.25 Z M 80.75 44.25 "/>
<path style=" stroke:none;fill-rule:evenodd;fill:rgb(1.176471%,0.784314%,5.490196%);fill-opacity:1;" d="M 68.75 58.25 C 76.328125 61.128906 79.328125 66.464844 77.75 74.25 C 77.144531 74.464844 76.644531 74.800781 76.25 75.25 C 75.917969 75.25 75.582031 75.25 75.25 75.25 C 71.597656 75.757812 67.929688 75.839844 64.25 75.5 C 62.996094 74.789062 61.828125 73.957031 60.75 73 C 61.585938 72.214844 61.75 71.382812 61.25 70.5 C 61.484375 68.480469 62.148438 66.648438 63.25 65 C 62.988281 64.71875 62.824219 64.386719 62.75 64 C 63.683594 62.605469 64.015625 61.1875 63.75 59.75 C 64.378906 58.113281 64.960938 56.445312 65.5 54.75 C 65.039062 57.449219 66.121094 58.617188 68.75 58.25 Z M 68.75 58.25 "/>
<path style=" stroke:none;fill-rule:evenodd;fill:rgb(8.627451%,5.882353%,5.098039%);fill-opacity:1;" d="M 65.75 52.75 C 66.410156 52.664062 66.996094 52.832031 67.5 53.25 C 67.734375 54.121094 68.070312 54.957031 68.5 55.75 C 69.691406 55.28125 70.941406 55.117188 72.25 55.25 C 72.75 55.25 73.25 55.25 73.75 55.25 C 75.636719 56.722656 77.304688 58.472656 78.75 60.5 C 79.75 60.667969 80.75 60.832031 81.75 61 C 80.714844 61.058594 80.046875 61.558594 79.75 62.5 C 80.347656 64.28125 81.015625 66.03125 81.75 67.75 C 81.726562 68.207031 81.5625 68.542969 81.25 68.75 C 79.671875 63.683594 76.503906 59.933594 71.75 57.5 C 70.761719 57.253906 69.761719 57.167969 68.75 57.25 C 67.121094 56.160156 66.121094 54.660156 65.75 52.75 Z M 65.75 52.75 "/>
<path style=" stroke:none;fill-rule:evenodd;fill:rgb(87.45098%,53.72549%,35.686275%);fill-opacity:1;" d="M 88.75 37.25 C 88.996094 45.070312 88.996094 52.902344 88.75 60.75 C 88.75 61.082031 88.75 61.417969 88.75 61.75 C 88.503906 62.742188 88.253906 63.742188 88 64.75 C 87.320312 65.191406 86.570312 65.355469 85.75 65.25 C 85.859375 64.410156 85.523438 63.910156 84.75 63.75 C 85.945312 61.472656 87.027344 59.136719 88 56.75 C 88.082031 54.332031 88.167969 51.917969 88.25 49.5 C 88.808594 44.214844 87.808594 39.300781 85.25 34.75 C 85.738281 33.421875 86.574219 33.089844 87.75 33.75 C 88.472656 34.808594 88.804688 35.976562 88.75 37.25 Z M 88.75 37.25 "/>
<path style=" stroke:none;fill-rule:evenodd;fill:rgb(54.117647%,43.921569%,38.039216%);fill-opacity:1;" d="M 68.75 57.25 C 69.761719 57.167969 70.761719 57.253906 71.75 57.5 C 76.503906 59.933594 79.671875 63.683594 81.25 68.75 C 80.308594 69.527344 79.808594 70.527344 79.75 71.75 C 79.203125 72.675781 78.535156 73.507812 77.75 74.25 C 79.328125 66.464844 76.328125 61.128906 68.75 58.25 C 68.75 57.917969 68.75 57.582031 68.75 57.25 Z M 68.75 57.25 "/>
<path style=" stroke:none;fill-rule:evenodd;fill:rgb(30.588235%,52.941176%,11.764706%);fill-opacity:1;" d="M 10.75 61.25 C 11.4375 61.171875 12.101562 61.253906 12.75 61.5 C 11.96875 61.96875 11.300781 62.554688 10.75 63.25 C 11.011719 63.597656 11.347656 63.847656 11.75 64 C 10.59375 64.25 9.429688 64.332031 8.25 64.25 C 8.367188 64.894531 8.203125 65.394531 7.75 65.75 C 7.582031 65.75 7.417969 65.75 7.25 65.75 C 7.828125 63.75 8.992188 62.25 10.75 61.25 Z M 10.75 61.25 "/>
<path style=" stroke:none;fill-rule:evenodd;fill:rgb(52.54902%,42.352941%,36.078431%);fill-opacity:1;" d="M 62.75 60.25 C 61.699219 62.859375 60.78125 65.523438 60 68.25 C 59.683594 70.96875 59.933594 73.636719 60.75 76.25 C 60.417969 76.082031 60.082031 75.917969 59.75 75.75 C 59.042969 74.730469 58.042969 74.230469 56.75 74.25 C 56.15625 73.519531 56.15625 72.851562 56.75 72.25 C 56.683594 72.6875 56.851562 73.023438 57.25 73.25 C 57.402344 69.894531 58.234375 66.726562 59.75 63.75 C 59.6875 63.445312 59.523438 63.28125 59.25 63.25 C 59.582031 62.082031 59.917969 60.917969 60.25 59.75 C 61.292969 58.988281 62.125 59.15625 62.75 60.25 Z M 62.75 60.25 "/>
<path style=" stroke:none;fill-rule:evenodd;fill:rgb(99.215686%,95.686275%,88.235294%);fill-opacity:1;" d="M 43.25 61.75 C 45.882812 64.050781 48.382812 66.550781 50.75 69.25 C 49.84375 70.347656 48.757812 70.515625 47.5 69.75 C 45.84375 67.175781 44.425781 64.511719 43.25 61.75 Z M 43.25 61.75 "/>
<path style=" stroke:none;fill-rule:evenodd;fill:rgb(66.27451%,81.568627%,28.235294%);fill-opacity:1;" d="M 20.25 74.25 C 19.082031 75.035156 19.082031 75.703125 20.25 76.25 C 19.292969 76.390625 18.460938 76.226562 17.75 75.75 C 19.15625 75.128906 19.488281 74.128906 18.75 72.75 C 17.246094 72.367188 15.746094 71.949219 14.25 71.5 C 15.433594 71.070312 16.601562 70.65625 17.75 70.25 C 17.835938 69.589844 17.667969 69.003906 17.25 68.5 C 14.855469 68.523438 12.691406 67.9375 10.75 66.75 C 13.253906 66.539062 15.753906 66.457031 18.25 66.5 C 18.816406 67.007812 18.652344 67.339844 17.75 67.5 C 18.3125 67.625 18.8125 67.875 19.25 68.25 C 18.9375 69.355469 18.4375 70.355469 17.75 71.25 C 19.6875 71.351562 20.519531 72.351562 20.25 74.25 Z M 20.25 74.25 "/>
<path style=" stroke:none;fill-rule:evenodd;fill:rgb(20.784314%,14.901961%,10.196078%);fill-opacity:1;" d="M 59.25 63.25 C 59.523438 63.28125 59.6875 63.445312 59.75 63.75 C 58.234375 66.726562 57.402344 69.894531 57.25 73.25 C 56.851562 73.023438 56.683594 72.6875 56.75 72.25 C 56.917969 70.921875 56.585938 69.753906 55.75 68.75 C 57.296875 67.15625 58.464844 65.324219 59.25 63.25 Z M 59.25 63.25 "/>
<path style=" stroke:none;fill-rule:evenodd;fill:rgb(95.686275%,95.686275%,87.058824%);fill-opacity:1;" d="M 7.25 65.75 C 7.417969 65.75 7.582031 65.75 7.75 65.75 C 8.652344 66.230469 9.652344 66.5625 10.75 66.75 C 12.691406 67.9375 14.855469 68.523438 17.25 68.5 C 17.667969 69.003906 17.835938 69.589844 17.75 70.25 C 16.601562 70.65625 15.433594 71.070312 14.25 71.5 C 15.746094 71.949219 17.246094 72.367188 18.75 72.75 C 19.488281 74.128906 19.15625 75.128906 17.75 75.75 C 15.726562 75.800781 13.726562 75.636719 11.75 75.25 C 9.835938 73.683594 8.335938 71.769531 7.25 69.5 C 8.75 69.667969 10.25 69.832031 11.75 70 C 10.417969 69 9.082031 68 7.75 67 C 7 66.582031 6.832031 66.164062 7.25 65.75 Z M 7.25 65.75 "/>
<path style=" stroke:none;fill-rule:evenodd;fill:rgb(4.705882%,3.921569%,4.705882%);fill-opacity:1;" d="M 100.25 65.25 C 99.625 66.992188 99.207031 68.824219 99 70.75 C 97.996094 72.046875 96.746094 73.046875 95.25 73.75 C 93.257812 73.113281 91.257812 73.113281 89.25 73.75 C 88.691406 76.628906 87.191406 78.796875 84.75 80.25 C 84.011719 80.871094 83.179688 81.371094 82.25 81.75 C 81.527344 88.296875 78.027344 92.296875 71.75 93.75 C 70.074219 93.832031 68.410156 93.75 66.75 93.5 C 65.636719 93.441406 64.71875 93.023438 64 92.25 C 61.363281 94.792969 58.28125 96.628906 54.75 97.75 C 54.410156 97.570312 54.074219 97.402344 53.75 97.25 C 47.765625 97.261719 41.765625 96.925781 35.75 96.25 C 35.75 95.75 35.75 95.25 35.75 94.75 C 36.195312 95.054688 36.695312 95.222656 37.25 95.25 C 38.652344 95.820312 40.152344 95.902344 41.75 95.5 C 44.324219 94.558594 46.992188 93.972656 49.75 93.75 C 50.597656 93.671875 51.433594 93.753906 52.25 94 C 51.648438 94.507812 51.8125 94.757812 52.75 94.75 C 55.824219 94.046875 58.660156 92.796875 61.25 91 C 61.667969 90.496094 61.835938 89.910156 61.75 89.25 C 58.574219 89.128906 55.574219 89.792969 52.75 91.25 C 51.378906 90.347656 51.046875 89.183594 51.75 87.75 C 53.851562 86.78125 55.6875 85.449219 57.25 83.75 C 54.402344 83.398438 51.570312 82.980469 48.75 82.5 C 49.496094 81.921875 49.414062 81.503906 48.5 81.25 C 46.777344 80.753906 45.027344 80.421875 43.25 80.25 C 46.28125 79.675781 49.28125 79.675781 52.25 80.25 C 54.957031 80.386719 57.621094 80.136719 60.25 79.5 C 61.304688 78.492188 61.472656 77.410156 60.75 76.25 C 59.933594 73.636719 59.683594 70.96875 60 68.25 C 60.78125 65.523438 61.699219 62.859375 62.75 60.25 C 63.082031 60.082031 63.417969 59.917969 63.75 59.75 C 64.015625 61.1875 63.683594 62.605469 62.75 64 C 62.824219 64.386719 62.988281 64.71875 63.25 65 C 62.148438 66.648438 61.484375 68.480469 61.25 70.5 C 61.75 71.382812 61.585938 72.214844 60.75 73 C 61.828125 73.957031 62.996094 74.789062 64.25 75.5 C 67.929688 75.839844 71.597656 75.757812 75.25 75.25 C 74.082031 76.019531 72.746094 76.351562 71.25 76.25 C 68.246094 76.167969 65.246094 76.25 62.25 76.5 C 62.664062 76.957031 63.164062 77.289062 63.75 77.5 C 66.011719 77.90625 68.175781 77.824219 70.25 77.25 C 70.9375 77.171875 71.601562 77.253906 72.25 77.5 C 72.082031 77.667969 71.917969 77.832031 71.75 78 C 69.003906 78.851562 66.335938 79.851562 63.75 81 C 68.820312 80.964844 73.820312 80.714844 78.75 80.25 C 83.386719 79.527344 85.886719 76.777344 86.25 72 C 85.90625 70.074219 85.238281 68.324219 84.25 66.75 C 84.164062 65.691406 84.328125 64.691406 84.75 63.75 C 85.523438 63.910156 85.859375 64.410156 85.75 65.25 C 86.570312 65.355469 87.320312 65.191406 88 64.75 C 88.253906 63.742188 88.503906 62.742188 88.75 61.75 C 89.082031 62.082031 89.417969 62.417969 89.75 62.75 C 89.644531 63.570312 89.808594 64.320312 90.25 65 C 92.582031 65.332031 94.917969 65.332031 97.25 65 C 98.15625 63.757812 98.488281 62.34375 98.25 60.75 C 95.75 60.75 93.25 60.75 90.75 60.75 C 91.132812 60.367188 91.632812 60.117188 92.25 60 C 91.632812 59.65625 91.632812 59.40625 92.25 59.25 C 93.917969 59.25 95.582031 59.25 97.25 59.25 C 98.246094 59.335938 99.078125 59.003906 99.75 58.25 C 100.246094 60.558594 100.414062 62.894531 100.25 65.25 Z M 100.25 65.25 "/>
<path style=" stroke:none;fill-rule:evenodd;fill:rgb(92.941176%,72.156863%,57.254902%);fill-opacity:1;" d="M 88.75 66.75 C 90.757812 66.667969 92.757812 66.75 94.75 67 C 97.425781 68.339844 97.261719 69.507812 94.25 70.5 C 91.925781 71.097656 89.839844 70.679688 88 69.25 C 87.679688 68.226562 87.929688 67.394531 88.75 66.75 Z M 88.75 66.75 "/>
<path style=" stroke:none;fill-rule:evenodd;fill:rgb(96.470588%,77.254902%,61.176471%);fill-opacity:1;" d="M 90.75 60.75 C 93.25 60.75 95.75 60.75 98.25 60.75 C 98.488281 62.34375 98.15625 63.757812 97.25 65 C 94.917969 65.332031 92.582031 65.332031 90.25 65 C 89.808594 64.320312 89.644531 63.570312 89.75 62.75 C 90.171875 62.164062 90.503906 61.496094 90.75 60.75 Z M 90.75 60.75 "/>
<path style=" stroke:none;fill-rule:evenodd;fill:rgb(98.823529%,95.294118%,87.843137%);fill-opacity:1;" d="M 56.75 74.25 C 58.042969 74.230469 59.042969 74.730469 59.75 75.75 C 59.609375 76.390625 59.277344 76.890625 58.75 77.25 C 52.480469 78.742188 47.394531 76.90625 43.5 71.75 C 42.339844 70.011719 41.425781 68.179688 40.75 66.25 C 40.921875 65.386719 41.421875 65.136719 42.25 65.5 C 45.859375 70.472656 50.695312 73.386719 56.75 74.25 Z M 56.75 74.25 "/>
<path style=" stroke:none;fill-rule:evenodd;fill:rgb(34.117647%,53.333333%,14.117647%);fill-opacity:1;" d="M 35.25 42.25 C 35.992188 43.804688 36.574219 45.46875 37 47.25 C 37.433594 51.804688 37.101562 56.304688 36 60.75 C 35.023438 62.128906 34.441406 63.628906 34.25 65.25 C 34.195312 65.558594 34.027344 65.808594 33.75 66 C 34.472656 66.5625 34.804688 67.3125 34.75 68.25 C 34.398438 69.265625 34.066406 70.265625 33.75 71.25 C 37.417969 71.25 39.25 73.082031 39.25 76.75 C 39.394531 77.558594 39.894531 78.058594 40.75 78.25 C 41.226562 79.023438 41.394531 79.855469 41.25 80.75 C 43.378906 80.691406 45.378906 81.109375 47.25 82 C 46.445312 82.523438 46.113281 83.273438 46.25 84.25 C 44.675781 83.539062 43.007812 83.039062 41.25 82.75 C 40.667969 81.589844 40.085938 80.421875 39.5 79.25 C 38.191406 78.765625 37.191406 77.933594 36.5 76.75 C 35.78125 77.074219 35.03125 77.242188 34.25 77.25 C 33.585938 73.9375 32.917969 70.605469 32.25 67.25 C 32.332031 66.25 32.417969 65.25 32.5 64.25 C 33.710938 62.875 34.710938 61.375 35.5 59.75 C 35.875 53.902344 35.789062 48.070312 35.25 42.25 Z M 35.25 42.25 "/>
<path style=" stroke:none;fill-rule:evenodd;fill:rgb(72.156863%,40.784314%,19.215686%);fill-opacity:1;" d="M 79.75 71.75 C 79.667969 73.589844 78.832031 74.921875 77.25 75.75 C 76.917969 75.75 76.582031 75.75 76.25 75.75 C 76.25 75.582031 76.25 75.417969 76.25 75.25 C 76.644531 74.800781 77.144531 74.464844 77.75 74.25 C 78.535156 73.507812 79.203125 72.675781 79.75 71.75 Z M 79.75 71.75 "/>
<path style=" stroke:none;fill-rule:evenodd;fill:rgb(98.823529%,91.764706%,76.862745%);fill-opacity:1;" d="M 82.25 76.25 C 81.472656 77.554688 80.308594 78.222656 78.75 78.25 C 77.582031 78.25 76.417969 78.25 75.25 78.25 C 75.195312 77.242188 75.527344 76.410156 76.25 75.75 C 76.582031 75.75 76.917969 75.75 77.25 75.75 C 78.425781 75.453125 79.511719 74.953125 80.5 74.25 C 81.535156 74.535156 82.121094 75.203125 82.25 76.25 Z M 82.25 76.25 "/>
<path style=" stroke:none;fill-rule:evenodd;fill:rgb(39.215686%,47.058824%,16.470588%);fill-opacity:1;" d="M 11.75 75.25 C 13.726562 75.636719 15.726562 75.800781 17.75 75.75 C 18.460938 76.226562 19.292969 76.390625 20.25 76.25 C 21.746094 76.074219 22.246094 76.574219 21.75 77.75 C 21.582031 77.75 21.417969 77.75 21.25 77.75 C 18.628906 76.855469 15.792969 76.4375 12.75 76.5 C 12.308594 76.144531 11.976562 75.730469 11.75 75.25 Z M 11.75 75.25 "/>
<path style=" stroke:none;fill-rule:evenodd;fill:rgb(56.862745%,47.45098%,39.215686%);fill-opacity:1;" d="M 71.25 76.25 C 70.917969 76.582031 70.582031 76.917969 70.25 77.25 C 68.175781 77.824219 66.011719 77.90625 63.75 77.5 C 63.164062 77.289062 62.664062 76.957031 62.25 76.5 C 65.246094 76.25 68.246094 76.167969 71.25 76.25 Z M 71.25 76.25 "/>
<path style=" stroke:none;fill-rule:evenodd;fill:rgb(94.509804%,65.098039%,41.568627%);fill-opacity:1;" d="M 84.25 66.75 C 85.238281 68.324219 85.90625 70.074219 86.25 72 C 85.886719 76.777344 83.386719 79.527344 78.75 80.25 C 75.746094 80.332031 72.746094 80.25 69.75 80 C 72.792969 79.507812 75.792969 78.921875 78.75 78.25 C 80.308594 78.222656 81.472656 77.554688 82.25 76.25 C 82.609375 76.039062 82.859375 75.707031 83 75.25 C 83.40625 72.339844 83.820312 69.507812 84.25 66.75 Z M 84.25 66.75 "/>
<path style=" stroke:none;fill-rule:evenodd;fill:rgb(92.156863%,61.568627%,37.254902%);fill-opacity:1;" d="M 39.75 62.75 C 39.859375 64.035156 40.195312 65.199219 40.75 66.25 C 41.425781 68.179688 42.339844 70.011719 43.5 71.75 C 47.394531 76.90625 52.480469 78.742188 58.75 77.25 C 59.195312 77.628906 59.527344 78.128906 59.75 78.75 C 56.433594 79.25 53.101562 79.414062 49.75 79.25 C 47.238281 78.160156 44.902344 76.742188 42.75 75 C 41.691406 74.132812 40.941406 73.050781 40.5 71.75 C 39.179688 71.132812 38.097656 70.300781 37.25 69.25 C 37.558594 69.304688 37.808594 69.472656 38 69.75 C 38.167969 68.082031 38.332031 66.417969 38.5 64.75 C 38.804688 63.96875 39.222656 63.300781 39.75 62.75 Z M 39.75 62.75 "/>
<path style=" stroke:none;fill-rule:evenodd;fill:rgb(56.078431%,68.235294%,16.862745%);fill-opacity:1;" d="M 21.25 77.75 C 21.417969 77.75 21.582031 77.75 21.75 77.75 C 21.371094 78.195312 20.871094 78.527344 20.25 78.75 C 19.808594 79.164062 19.640625 79.664062 19.75 80.25 C 18.738281 80.332031 17.738281 80.246094 16.75 80 C 16.375 79.664062 16.207031 79.246094 16.25 78.75 C 17.828125 78.28125 19.496094 77.949219 21.25 77.75 Z M 21.25 77.75 "/>
<path style=" stroke:none;fill-rule:evenodd;fill:rgb(58.431373%,80%,14.901961%);fill-opacity:1;" d="M 28.25 70.25 C 28.167969 71.429688 28.25 72.59375 28.5 73.75 C 29.953125 74.476562 31.453125 75.144531 33 75.75 C 33.3125 76.730469 33.0625 77.566406 32.25 78.25 C 33.75 78.667969 35.25 79.082031 36.75 79.5 C 37.082031 80.5 37.75 81.167969 38.75 81.5 C 37.75 81.917969 36.75 82.332031 35.75 82.75 C 35.832031 82.917969 35.917969 83.082031 36 83.25 C 38.511719 83.976562 41.09375 84.394531 43.75 84.5 C 44.082031 84.832031 44.417969 85.167969 44.75 85.5 C 40.617188 87.28125 40.785156 88.195312 45.25 88.25 C 48.457031 87.609375 49.289062 88.609375 47.75 91.25 C 48.566406 91.839844 49.402344 91.839844 50.25 91.25 C 50.90625 92.121094 50.738281 92.785156 49.75 93.25 C 46.316406 92.683594 42.480469 92.183594 38.25 91.75 C 37.984375 90.832031 37.652344 90 37.25 89.25 C 35.609375 88.753906 33.945312 88.671875 32.25 89 C 31.671875 89.941406 30.839844 90.359375 29.75 90.25 C 29.582031 89.582031 29.417969 88.917969 29.25 88.25 C 29.953125 88.011719 30.285156 87.511719 30.25 86.75 C 29.097656 86.222656 27.929688 85.636719 26.75 85 C 25.25 84.832031 23.75 84.667969 22.25 84.5 C 21.699219 84.113281 21.699219 83.699219 22.25 83.25 C 22.640625 82.921875 22.972656 82.503906 23.25 82 C 23.082031 81.75 22.917969 81.5 22.75 81.25 C 21.671875 80.976562 20.671875 80.640625 19.75 80.25 C 19.640625 79.664062 19.808594 79.164062 20.25 78.75 C 20.871094 78.527344 21.371094 78.195312 21.75 77.75 C 22.246094 76.574219 21.746094 76.074219 20.25 76.25 C 19.082031 75.703125 19.082031 75.035156 20.25 74.25 C 21.191406 73.828125 22.191406 73.664062 23.25 73.75 C 23.25 74.25 23.25 74.75 23.25 75.25 C 24.25 75.25 25.25 75.25 26.25 75.25 C 27.144531 73.683594 27.8125 72.015625 28.25 70.25 Z M 28.25 70.25 "/>
<path style=" stroke:none;fill-rule:evenodd;fill:rgb(69.803922%,48.627451%,34.901961%);fill-opacity:1;" d="M 59.75 75.75 C 60.082031 75.917969 60.417969 76.082031 60.75 76.25 C 61.472656 77.410156 61.304688 78.492188 60.25 79.5 C 57.621094 80.136719 54.957031 80.386719 52.25 80.25 C 51.347656 79.988281 50.515625 79.65625 49.75 79.25 C 53.101562 79.414062 56.433594 79.25 59.75 78.75 C 59.527344 78.128906 59.195312 77.628906 58.75 77.25 C 59.277344 76.890625 59.609375 76.390625 59.75 75.75 Z M 59.75 75.75 "/>
<path style=" stroke:none;fill-rule:evenodd;fill:rgb(93.333333%,70.196078%,52.941176%);fill-opacity:1;" d="M 75.25 75.25 C 75.582031 75.25 75.917969 75.25 76.25 75.25 C 76.25 75.417969 76.25 75.582031 76.25 75.75 C 75.527344 76.410156 75.195312 77.242188 75.25 78.25 C 76.417969 78.25 77.582031 78.25 78.75 78.25 C 75.792969 78.921875 72.792969 79.507812 69.75 80 C 72.746094 80.25 75.746094 80.332031 78.75 80.25 C 73.820312 80.714844 68.820312 80.964844 63.75 81 C 66.335938 79.851562 69.003906 78.851562 71.75 78 C 71.917969 77.832031 72.082031 77.667969 72.25 77.5 C 71.601562 77.253906 70.9375 77.171875 70.25 77.25 C 70.582031 76.917969 70.917969 76.582031 71.25 76.25 C 72.746094 76.351562 74.082031 76.019531 75.25 75.25 Z M 75.25 75.25 "/>
<path style=" stroke:none;fill-rule:evenodd;fill:rgb(92.941176%,92.941176%,83.137255%);fill-opacity:1;" d="M 16.25 78.75 C 16.207031 79.246094 16.375 79.664062 16.75 80 C 17.738281 80.246094 18.738281 80.332031 19.75 80.25 C 20.671875 80.640625 21.671875 80.976562 22.75 81.25 C 22.917969 81.5 23.082031 81.75 23.25 82 C 22.972656 82.503906 22.640625 82.921875 22.25 83.25 C 21.25 83.25 20.75 83.75 20.75 84.75 C 18.355469 83.273438 16.355469 81.355469 14.75 79 C 15.222656 78.757812 15.722656 78.675781 16.25 78.75 Z M 16.25 78.75 "/>
<path style=" stroke:none;fill-rule:evenodd;fill:rgb(23.921569%,41.176471%,14.901961%);fill-opacity:1;" d="M 39.25 76.75 C 40.425781 76.917969 41.59375 77.167969 42.75 77.5 C 43.429688 78.46875 43.261719 79.300781 42.25 80 C 42.546875 80.230469 42.878906 80.316406 43.25 80.25 C 45.027344 80.421875 46.777344 80.753906 48.5 81.25 C 49.414062 81.503906 49.496094 81.921875 48.75 82.5 C 51.570312 82.980469 54.402344 83.398438 57.25 83.75 C 55.6875 85.449219 53.851562 86.78125 51.75 87.75 C 51.261719 86.957031 50.511719 86.457031 49.5 86.25 C 49.164062 84.484375 48.082031 83.820312 46.25 84.25 C 46.113281 83.273438 46.445312 82.523438 47.25 82 C 45.378906 81.109375 43.378906 80.691406 41.25 80.75 C 41.394531 79.855469 41.226562 79.023438 40.75 78.25 C 39.894531 78.058594 39.394531 77.558594 39.25 76.75 Z M 39.25 76.75 "/>
<path style=" stroke:none;fill-rule:evenodd;fill:rgb(64.313725%,77.254902%,33.333333%);fill-opacity:1;" d="M 22.25 83.25 C 21.699219 83.699219 21.699219 84.113281 22.25 84.5 C 23.75 84.667969 25.25 84.832031 26.75 85 C 27.929688 85.636719 29.097656 86.222656 30.25 86.75 C 28.765625 86.78125 27.429688 86.367188 26.25 85.5 C 24.652344 85.097656 23.152344 85.179688 21.75 85.75 C 21.25 85.582031 20.917969 85.25 20.75 84.75 C 20.75 83.75 21.25 83.25 22.25 83.25 Z M 22.25 83.25 "/>
<use xlink:href="#surface20" mask="url(#mask5)"/>
<path style=" stroke:none;fill-rule:evenodd;fill:rgb(95.294118%,94.901961%,87.843137%);fill-opacity:1;" d="M 21.75 85.75 C 23.152344 85.179688 24.652344 85.097656 26.25 85.5 C 27.429688 86.367188 28.765625 86.78125 30.25 86.75 C 30.285156 87.511719 29.953125 88.011719 29.25 88.25 C 28.441406 88.519531 27.609375 88.683594 26.75 88.75 C 24.929688 88.007812 23.265625 87.007812 21.75 85.75 Z M 21.75 85.75 "/>
<path style=" stroke:none;fill-rule:evenodd;fill:rgb(96.470588%,90.588235%,80.392157%);fill-opacity:1;" d="M 64.25 83.25 C 64.546875 84.808594 65.378906 86.058594 66.75 87 C 68.964844 88.105469 71.132812 89.191406 73.25 90.25 C 68.519531 91.976562 64.769531 90.644531 62 86.25 C 61.4375 85.328125 61.1875 84.328125 61.25 83.25 C 62.25 83.25 63.25 83.25 64.25 83.25 Z M 64.25 83.25 "/>
<path style=" stroke:none;fill-rule:evenodd;fill:rgb(57.647059%,70.980392%,36.078431%);fill-opacity:1;" d="M 29.25 88.25 C 29.417969 88.917969 29.582031 89.582031 29.75 90.25 C 29.582031 90.25 29.417969 90.25 29.25 90.25 C 28.28125 89.945312 27.449219 89.445312 26.75 88.75 C 27.609375 88.683594 28.441406 88.519531 29.25 88.25 Z M 29.25 88.25 "/>
<path style=" stroke:none;fill-rule:evenodd;fill:rgb(94.901961%,66.666667%,47.058824%);fill-opacity:1;" d="M 64.25 83.25 C 67.417969 83.25 70.582031 83.25 73.75 83.25 C 73.726562 84.550781 73.226562 85.632812 72.25 86.5 C 74.371094 86.40625 76.035156 85.40625 77.25 83.5 C 77.722656 83.257812 78.222656 83.175781 78.75 83.25 C 78.757812 87.070312 76.921875 89.40625 73.25 90.25 C 71.132812 89.191406 68.964844 88.105469 66.75 87 C 65.378906 86.058594 64.546875 84.808594 64.25 83.25 Z M 64.25 83.25 "/>
<path style=" stroke:none;fill-rule:evenodd;fill:rgb(94.509804%,95.294118%,86.666667%);fill-opacity:1;" d="M 37.25 89.25 C 37.316406 90.144531 37.148438 90.980469 36.75 91.75 C 36.582031 91.75 36.417969 91.75 36.25 91.75 C 34.574219 91.832031 32.910156 91.75 31.25 91.5 C 30.46875 91.195312 29.800781 90.777344 29.25 90.25 C 29.417969 90.25 29.582031 90.25 29.75 90.25 C 30.839844 90.359375 31.671875 89.941406 32.25 89 C 33.945312 88.671875 35.609375 88.753906 37.25 89.25 Z M 37.25 89.25 "/>
<path style=" stroke:none;fill-rule:evenodd;fill:rgb(16.862745%,27.843137%,6.666667%);fill-opacity:1;" d="M 36.25 91.75 C 36.417969 91.75 36.582031 91.75 36.75 91.75 C 37.417969 91.75 37.75 92.082031 37.75 92.75 C 37.355469 93.199219 36.855469 93.535156 36.25 93.75 C 36.25 93.082031 36.25 92.417969 36.25 91.75 Z M 36.25 91.75 "/>
<path style=" stroke:none;fill-rule:evenodd;fill:rgb(31.764706%,52.941176%,15.294118%);fill-opacity:1;" d="M 46.25 84.25 C 48.082031 83.820312 49.164062 84.484375 49.5 86.25 C 50.511719 86.457031 51.261719 86.957031 51.75 87.75 C 51.046875 89.183594 51.378906 90.347656 52.75 91.25 C 55.574219 89.792969 58.574219 89.128906 61.75 89.25 C 61.835938 89.910156 61.667969 90.496094 61.25 91 C 58.660156 92.796875 55.824219 94.046875 52.75 94.75 C 51.8125 94.757812 51.648438 94.507812 52.25 94 C 51.433594 93.753906 50.597656 93.671875 49.75 93.75 C 49.75 93.582031 49.75 93.417969 49.75 93.25 C 50.738281 92.785156 50.90625 92.121094 50.25 91.25 C 49.402344 91.839844 48.566406 91.839844 47.75 91.25 C 49.289062 88.609375 48.457031 87.609375 45.25 88.25 C 45.605469 87.796875 46.105469 87.632812 46.75 87.75 C 46.820312 86.9375 46.488281 86.355469 45.75 86 C 46.167969 85.496094 46.335938 84.910156 46.25 84.25 Z M 46.25 84.25 "/>
<path style=" stroke:none;fill-rule:evenodd;fill:rgb(59.607843%,73.333333%,28.235294%);fill-opacity:1;" d="M 37.25 89.25 C 37.652344 90 37.984375 90.832031 38.25 91.75 C 42.480469 92.183594 46.316406 92.683594 49.75 93.25 C 49.75 93.417969 49.75 93.582031 49.75 93.75 C 46.992188 93.972656 44.324219 94.558594 41.75 95.5 C 40.152344 95.902344 38.652344 95.820312 37.25 95.25 C 39.152344 95.488281 40.820312 94.988281 42.25 93.75 C 42.144531 93.457031 41.980469 93.207031 41.75 93 C 40.425781 92.75 39.09375 92.667969 37.75 92.75 C 37.75 92.082031 37.417969 91.75 36.75 91.75 C 37.148438 90.980469 37.316406 90.144531 37.25 89.25 Z M 37.25 89.25 "/>
<path style=" stroke:none;fill-rule:evenodd;fill:rgb(92.941176%,94.117647%,76.078431%);fill-opacity:1;" d="M 37.75 92.75 C 39.09375 92.667969 40.425781 92.75 41.75 93 C 41.980469 93.207031 42.144531 93.457031 42.25 93.75 C 40.820312 94.988281 39.152344 95.488281 37.25 95.25 C 36.695312 95.222656 36.195312 95.054688 35.75 94.75 C 35.664062 94.253906 35.832031 93.921875 36.25 93.75 C 36.855469 93.535156 37.355469 93.199219 37.75 92.75 Z M 37.75 92.75 "/>
<use xlink:href="#surface23" mask="url(#mask6)"/>
</g>
</svg>
