<?xml version="1.0" encoding="UTF-8"?>
<svg xmlns="http://www.w3.org/2000/svg" xmlns:xlink="http://www.w3.org/1999/xlink" width="px" height="px" viewBox="0 0 109 101" version="1.1">
<defs>
<filter id="alpha" filterUnits="objectBoundingBox" x="0%" y="0%" width="100%" height="100%">
  <feColorMatrix type="matrix" in="SourceGraphic" values="0 0 0 0 1 0 0 0 0 1 0 0 0 0 1 0 0 0 1 0"/>
</filter>
<mask id="mask0">
  <g filter="url(#alpha)">
<rect x="0" y="0" width="109" height="101" style="fill:rgb(0%,0%,0%);fill-opacity:0.992157;stroke:none;"/>
  </g>
</mask>
<clipPath id="clip1">
  <rect x="0" y="0" width="109" height="101"/>
</clipPath>
<g id="surface5" clip-path="url(#clip1)">
<path style=" stroke:none;fill-rule:evenodd;fill:rgb(3.921569%,3.137255%,3.529412%);fill-opacity:1;" d="M 53.75 0.75 C 58.046875 1.210938 61.796875 2.875 65 5.75 C 69.527344 0.878906 74.777344 -0.0390625 80.75 3 C 83.609375 5.46875 85.359375 8.554688 86 12.25 C 89.230469 14.316406 91.566406 17.148438 93 20.75 C 97.925781 19.339844 100.757812 21.175781 101.5 26.25 C 104.722656 27.363281 105.808594 29.53125 104.75 32.75 C 105.816406 34.050781 106.484375 35.550781 106.75 37.25 C 106.703125 38.34375 106.371094 39.34375 105.75 40.25 C 108.386719 43.007812 108.386719 45.757812 105.75 48.5 C 107.238281 50.988281 106.90625 53.238281 104.75 55.25 C 106.195312 59.046875 104.945312 61.382812 101 62.25 C 100.96875 64.195312 100.386719 65.945312 99.25 67.5 C 97.066406 68.386719 94.816406 68.96875 92.5 69.25 C 91.484375 72.933594 89.320312 75.769531 86 77.75 C 84.042969 86.679688 78.625 90.265625 69.75 88.5 C 68.210938 87.875 66.878906 86.960938 65.75 85.75 C 64.277344 89.613281 62.109375 93.03125 59.25 96 C 56.511719 97.703125 53.675781 99.121094 50.75 100.25 C 50.75 100.417969 50.75 100.582031 50.75 100.75 C 47.417969 100.75 44.082031 100.75 40.75 100.75 C 40.75 100.417969 40.582031 100.25 40.25 100.25 C 39.492188 99.796875 38.65625 99.378906 37.75 99 C 34.535156 98.835938 31.371094 98.421875 28.25 97.75 C 24.058594 96.65625 21.058594 94.15625 19.25 90.25 C 18.507812 88.425781 17.757812 86.59375 17 84.75 C 16.75 81.421875 16.667969 78.085938 16.75 74.75 C 16.144531 73.386719 15.226562 72.21875 14 71.25 C 13.582031 70.25 13.167969 69.25 12.75 68.25 C 8.546875 65.671875 5.378906 62.171875 3.25 57.75 C -0.140625 49.609375 -0.640625 41.277344 1.75 32.75 C 2.03125 31.027344 2.695312 29.527344 3.75 28.25 C 5.375 25.621094 7.207031 23.121094 9.25 20.75 C 9.816406 19.8125 10.316406 18.8125 10.75 17.75 C 9.078125 15.664062 7.328125 13.664062 5.5 11.75 C 5.253906 10.933594 5.167969 10.097656 5.25 9.25 C 8.546875 9.042969 11.714844 9.375 14.75 10.25 C 17.09375 11.390625 19.59375 11.972656 22.25 12 C 22.855469 11.480469 23.355469 10.898438 23.75 10.25 C 26.164062 7.496094 29.164062 5.664062 32.75 4.75 C 37.175781 3.714844 41.675781 3.046875 46.25 2.75 C 48.789062 2.84375 51.289062 3.175781 53.75 3.75 C 53.75 2.75 53.75 1.75 53.75 0.75 Z M 53.75 0.75 "/>
</g>
<mask id="mask1">
  <g filter="url(#alpha)">
<rect x="0" y="0" width="109" height="101" style="fill:rgb(0%,0%,0%);fill-opacity:0.0196078;stroke:none;"/>
  </g>
</mask>
<clipPath id="clip2">
  <rect x="0" y="0" width="109" height="101"/>
</clipPath>
<g id="surface8" clip-path="url(#clip2)">
<path style=" stroke:none;fill-rule:evenodd;fill:rgb(13.333333%,20.784314%,25.882353%);fill-opacity:1;" d="M 53.75 0.75 C 53.75 1.75 53.75 2.75 53.75 3.75 C 51.289062 3.175781 48.789062 2.84375 46.25 2.75 C 41.675781 3.046875 37.175781 3.714844 32.75 4.75 C 38.921875 2.378906 45.339844 1.714844 52 2.75 C 53.121094 2.660156 53.371094 2.242188 52.75 1.5 C 53.023438 1.140625 53.355469 0.890625 53.75 0.75 Z M 53.75 0.75 "/>
</g>
<mask id="mask2">
  <g filter="url(#alpha)">
<rect x="0" y="0" width="109" height="101" style="fill:rgb(0%,0%,0%);fill-opacity:0.0745098;stroke:none;"/>
  </g>
</mask>
<clipPath id="clip3">
  <rect x="0" y="0" width="109" height="101"/>
</clipPath>
<g id="surface11" clip-path="url(#clip3)">
<path style=" stroke:none;fill-rule:evenodd;fill:rgb(12.54902%,20.392157%,24.705882%);fill-opacity:1;" d="M 14.75 10.25 C 16.984375 10.4375 19.148438 10.9375 21.25 11.75 C 21.96875 11.023438 22.804688 10.523438 23.75 10.25 C 23.355469 10.898438 22.855469 11.480469 22.25 12 C 19.59375 11.972656 17.09375 11.390625 14.75 10.25 Z M 14.75 10.25 "/>
</g>
<mask id="mask3">
  <g filter="url(#alpha)">
<rect x="0" y="0" width="109" height="101" style="fill:rgb(0%,0%,0%);fill-opacity:0.309804;stroke:none;"/>
  </g>
</mask>
<clipPath id="clip4">
  <rect x="0" y="0" width="109" height="101"/>
</clipPath>
<g id="surface14" clip-path="url(#clip4)">
<path style=" stroke:none;fill-rule:evenodd;fill:rgb(14.901961%,21.176471%,26.27451%);fill-opacity:1;" d="M 9.25 20.75 C 7.207031 23.121094 5.375 25.621094 3.75 28.25 C 4.644531 25.027344 6.480469 22.527344 9.25 20.75 Z M 9.25 20.75 "/>
</g>
<mask id="mask4">
  <g filter="url(#alpha)">
<rect x="0" y="0" width="109" height="101" style="fill:rgb(0%,0%,0%);fill-opacity:0.0941176;stroke:none;"/>
  </g>
</mask>
<clipPath id="clip5">
  <rect x="0" y="0" width="109" height="101"/>
</clipPath>
<g id="surface17" clip-path="url(#clip5)">
<path style=" stroke:none;fill-rule:evenodd;fill:rgb(14.117647%,21.568627%,25.882353%);fill-opacity:1;" d="M 1.75 32.75 C -0.640625 41.277344 -0.140625 49.609375 3.25 57.75 C 2.359375 57.214844 1.773438 56.378906 1.5 55.25 C 0.902344 53.1875 0.320312 51.1875 -0.25 49.25 C -0.25 45.582031 -0.25 41.917969 -0.25 38.25 C 0.214844 36.355469 0.882812 34.519531 1.75 32.75 Z M 1.75 32.75 "/>
</g>
<mask id="mask5">
  <g filter="url(#alpha)">
<rect x="0" y="0" width="109" height="101" style="fill:rgb(0%,0%,0%);fill-opacity:0.0117647;stroke:none;"/>
  </g>
</mask>
<clipPath id="clip6">
  <rect x="0" y="0" width="109" height="101"/>
</clipPath>
<g id="surface20" clip-path="url(#clip6)">
<path style=" stroke:none;fill-rule:evenodd;fill:rgb(13.72549%,23.529412%,28.627451%);fill-opacity:1;" d="M 53.75 -0.25 C 54.582031 -0.25 55.417969 -0.25 56.25 -0.25 C 59.257812 0.839844 62.089844 2.339844 64.75 4.25 C 67.136719 1.808594 69.96875 0.308594 73.25 -0.25 C 73.75 -0.25 74.25 -0.25 74.75 -0.25 C 81.421875 1 85.671875 5 87.5 11.75 C 89.929688 13.847656 92.011719 16.261719 93.75 19 C 98.652344 18.746094 101.738281 20.996094 103 25.75 C 104 26.75 105 27.75 106 28.75 C 106.386719 30.214844 106.304688 31.632812 105.75 33 C 107.804688 34.933594 108.304688 37.269531 107.25 40 C 107.675781 40.832031 108.175781 41.582031 108.75 42.25 C 108.75 43.582031 108.75 44.917969 108.75 46.25 C 106.957031 47.4375 106.789062 48.855469 108.25 50.5 C 107.972656 52.042969 107.390625 53.460938 106.5 54.75 C 106.945312 58.527344 105.527344 61.359375 102.25 63.25 C 101.25 68 98.335938 70.164062 93.5 69.75 C 92.84375 72.0625 91.679688 74.0625 90 75.75 C 88.882812 76.851562 87.632812 77.765625 86.25 78.5 C 86.417969 78.667969 86.582031 78.832031 86.75 79 C 84.722656 85.539062 80.472656 89.289062 74 90.25 C 71.019531 90.035156 68.351562 89.035156 66 87.25 C 63.425781 94.574219 58.34375 98.910156 50.75 100.25 C 53.675781 99.121094 56.511719 97.703125 59.25 96 C 62.109375 93.03125 64.277344 89.613281 65.75 85.75 C 66.878906 86.960938 68.210938 87.875 69.75 88.5 C 78.625 90.265625 84.042969 86.679688 86 77.75 C 89.320312 75.769531 91.484375 72.933594 92.5 69.25 C 94.816406 68.96875 97.066406 68.386719 99.25 67.5 C 100.386719 65.945312 100.96875 64.195312 101 62.25 C 104.945312 61.382812 106.195312 59.046875 104.75 55.25 C 106.90625 53.238281 107.238281 50.988281 105.75 48.5 C 108.386719 45.757812 108.386719 43.007812 105.75 40.25 C 106.371094 39.34375 106.703125 38.34375 106.75 37.25 C 106.484375 35.550781 105.816406 34.050781 104.75 32.75 C 105.808594 29.53125 104.722656 27.363281 101.5 26.25 C 100.757812 21.175781 97.925781 19.339844 93 20.75 C 91.566406 17.148438 89.230469 14.316406 86 12.25 C 85.359375 8.554688 83.609375 5.46875 80.75 3 C 74.777344 -0.0390625 69.527344 0.878906 65 5.75 C 61.796875 2.875 58.046875 1.210938 53.75 0.75 C 53.75 0.417969 53.75 0.0820312 53.75 -0.25 Z M 53.75 -0.25 "/>
</g>
<mask id="mask6">
  <g filter="url(#alpha)">
<rect x="0" y="0" width="109" height="101" style="fill:rgb(0%,0%,0%);fill-opacity:0.14902;stroke:none;"/>
  </g>
</mask>
<clipPath id="clip7">
  <rect x="0" y="0" width="109" height="101"/>
</clipPath>
<g id="surface23" clip-path="url(#clip7)">
<path style=" stroke:none;fill-rule:evenodd;fill:rgb(12.156863%,19.607843%,23.137255%);fill-opacity:1;" d="M 16.75 74.75 C 16.667969 78.085938 16.75 81.421875 17 84.75 C 17.757812 86.59375 18.507812 88.425781 19.25 90.25 C 17.960938 88.839844 17.042969 87.171875 16.5 85.25 C 16.269531 83.082031 16.019531 80.914062 15.75 78.75 C 15.785156 77.28125 16.117188 75.949219 16.75 74.75 Z M 16.75 74.75 "/>
</g>
<mask id="mask7">
  <g filter="url(#alpha)">
<rect x="0" y="0" width="109" height="101" style="fill:rgb(0%,0%,0%);fill-opacity:0.0117647;stroke:none;"/>
  </g>
</mask>
<clipPath id="clip8">
  <rect x="0" y="0" width="109" height="101"/>
</clipPath>
<g id="surface26" clip-path="url(#clip8)">
<path style=" stroke:none;fill-rule:evenodd;fill:rgb(12.941176%,21.960784%,25.882353%);fill-opacity:1;" d="M 28.25 97.75 C 31.371094 98.421875 34.535156 98.835938 37.75 99 C 38.65625 99.378906 39.492188 99.796875 40.25 100.25 C 37.320312 99.503906 34.320312 99.089844 31.25 99 C 30.140625 98.71875 29.140625 98.300781 28.25 97.75 Z M 28.25 97.75 "/>
</g>
</defs>
<g id="surface1">
<use xlink:href="#surface5" mask="url(#mask0)"/>
<use xlink:href="#surface8" mask="url(#mask1)"/>
<path style=" stroke:none;fill-rule:evenodd;fill:rgb(96.470588%,82.352941%,63.529412%);fill-opacity:1;" d="M 79.25 5.25 C 78.402344 5.167969 77.566406 5.253906 76.75 5.5 C 77.167969 6.003906 77.335938 6.589844 77.25 7.25 C 75.535156 6.304688 73.699219 6.054688 71.75 6.5 C 70.460938 7.394531 69.125 8.144531 67.75 8.75 C 67.785156 8.019531 67.617188 7.355469 67.25 6.75 C 70.867188 2.757812 74.867188 2.257812 79.25 5.25 Z M 79.25 5.25 "/>
<path style=" stroke:none;fill-rule:evenodd;fill:rgb(90.588235%,50.980392%,33.72549%);fill-opacity:1;" d="M 77.25 7.25 C 77.25 7.417969 77.25 7.582031 77.25 7.75 C 77.519531 8.558594 77.683594 9.390625 77.75 10.25 C 73.917969 10.25 70.082031 10.25 66.25 10.25 C 66.167969 9.238281 66.253906 8.238281 66.5 7.25 C 66.691406 6.972656 66.941406 6.804688 67.25 6.75 C 67.617188 7.355469 67.785156 8.019531 67.75 8.75 C 69.125 8.144531 70.460938 7.394531 71.75 6.5 C 73.699219 6.054688 75.535156 6.304688 77.25 7.25 Z M 77.25 7.25 "/>
<path style=" stroke:none;fill-rule:evenodd;fill:rgb(95.686275%,70.196078%,51.764706%);fill-opacity:1;" d="M 79.25 5.25 C 80.183594 5.429688 80.933594 5.929688 81.5 6.75 C 82.523438 8.074219 83.109375 9.574219 83.25 11.25 C 82.035156 11.238281 80.871094 10.988281 79.75 10.5 C 79.167969 9.335938 78.335938 8.417969 77.25 7.75 C 77.25 7.582031 77.25 7.417969 77.25 7.25 C 77.335938 6.589844 77.167969 6.003906 76.75 5.5 C 77.566406 5.253906 78.402344 5.167969 79.25 5.25 Z M 79.25 5.25 "/>
<use xlink:href="#surface11" mask="url(#mask2)"/>
<path style=" stroke:none;fill-rule:evenodd;fill:rgb(13.333333%,11.764706%,14.901961%);fill-opacity:1;" d="M 30.75 12.75 C 31.816406 14.582031 33.316406 15.664062 35.25 16 C 38.917969 13.5 42.582031 11 46.25 8.5 C 45.265625 7.539062 44.097656 6.953125 42.75 6.75 C 44.179688 5.996094 45.761719 5.664062 47.5 5.75 C 49.410156 5.609375 51.160156 6.027344 52.75 7 C 51.355469 7.121094 50.023438 7.453125 48.75 8 C 49.417969 8.667969 49.417969 9.332031 48.75 10 C 49.082031 10.167969 49.417969 10.332031 49.75 10.5 C 44.785156 12.148438 40.453125 14.816406 36.75 18.5 C 36.25 18.832031 35.75 18.832031 35.25 18.5 C 31.851562 16.632812 28.351562 15.050781 24.75 13.75 C 24.960938 12.546875 25.628906 11.628906 26.75 11 C 29.808594 8.871094 33.144531 7.539062 36.75 7 C 33.800781 8.617188 31.132812 10.617188 28.75 13 C 29.410156 13.097656 30.078125 13.015625 30.75 12.75 Z M 30.75 12.75 "/>
<path style=" stroke:none;fill-rule:evenodd;fill:rgb(34.509804%,27.843137%,30.980392%);fill-opacity:1;" d="M 42.75 6.75 C 44.097656 6.953125 45.265625 7.539062 46.25 8.5 C 42.582031 11 38.917969 13.5 35.25 16 C 33.316406 15.664062 31.816406 14.582031 30.75 12.75 C 34.1875 9.699219 38.1875 7.699219 42.75 6.75 Z M 42.75 6.75 "/>
<path style=" stroke:none;fill-rule:evenodd;fill:rgb(93.72549%,83.137255%,66.666667%);fill-opacity:1;" d="M 80.75 13.25 C 79.855469 13.65625 78.855469 13.90625 77.75 14 C 77.582031 14.167969 77.417969 14.332031 77.25 14.5 C 78.128906 14.601562 78.960938 14.851562 79.75 15.25 C 79.335938 15.691406 78.835938 15.859375 78.25 15.75 C 77.582031 15.75 76.917969 15.75 76.25 15.75 C 68.238281 15.136719 60.238281 15.300781 52.25 16.25 C 51.917969 16.25 51.582031 16.25 51.25 16.25 C 49.558594 16.269531 47.894531 16.105469 46.25 15.75 C 48.652344 14.226562 51.316406 13.3125 54.25 13 C 63.09375 12.609375 71.929688 12.695312 80.75 13.25 Z M 80.75 13.25 "/>
<path style=" stroke:none;fill-rule:evenodd;fill:rgb(99.215686%,80%,60.392157%);fill-opacity:1;" d="M 46.25 15.75 C 47.894531 16.105469 49.558594 16.269531 51.25 16.25 C 48.382812 16.941406 46.050781 18.523438 44.25 21 C 43.75 21.332031 43.25 21.332031 42.75 21 C 42.082031 20.667969 42.082031 20.332031 42.75 20 C 42.453125 19.769531 42.121094 19.683594 41.75 19.75 C 42.941406 18.058594 44.441406 16.726562 46.25 15.75 Z M 46.25 15.75 "/>
<path style=" stroke:none;fill-rule:evenodd;fill:rgb(97.254902%,67.058824%,40.392157%);fill-opacity:1;" d="M 76.25 15.75 C 76.917969 15.75 77.582031 15.75 78.25 15.75 C 78.964844 16.269531 79.796875 16.601562 80.75 16.75 C 81.472656 17.410156 81.804688 18.242188 81.75 19.25 C 79.855469 19.003906 79.523438 19.421875 80.75 20.5 C 80.472656 20.691406 80.304688 20.941406 80.25 21.25 C 78.996094 20.078125 77.496094 19.328125 75.75 19 C 72.917969 18.667969 70.082031 18.667969 67.25 19 C 65.125 19.707031 63.792969 21.125 63.25 23.25 C 62.765625 24.304688 62.597656 25.46875 62.75 26.75 C 60.582031 22.949219 61.25 19.53125 64.75 16.5 C 68.527344 15.785156 72.359375 15.535156 76.25 15.75 Z M 76.25 15.75 "/>
<path style=" stroke:none;fill-rule:evenodd;fill:rgb(1.568627%,0.784314%,0.392157%);fill-opacity:1;" d="M 80.25 21.25 C 81.445312 22.164062 81.945312 23.414062 81.75 25 C 81.679688 26.449219 81.429688 27.867188 81 29.25 C 79.484375 31.347656 77.734375 33.179688 75.75 34.75 C 73.898438 35.519531 72.648438 36.851562 72 38.75 C 71.152344 37.039062 70.066406 35.539062 68.75 34.25 C 67.503906 31.429688 65.753906 28.929688 63.5 26.75 C 63.25 25.59375 63.167969 24.429688 63.25 23.25 C 63.792969 21.125 65.125 19.707031 67.25 19 C 70.082031 18.667969 72.917969 18.667969 75.75 19 C 77.496094 19.328125 78.996094 20.078125 80.25 21.25 Z M 80.25 21.25 "/>
<path style=" stroke:none;fill-rule:evenodd;fill:rgb(98.039216%,73.72549%,47.45098%);fill-opacity:1;" d="M 80.75 16.75 C 81.507812 16.753906 82.09375 17.089844 82.5 17.75 C 82.746094 20.273438 82.746094 22.773438 82.5 25.25 C 82.667969 24.917969 82.832031 24.582031 83 24.25 C 83.402344 25.472656 84.152344 26.390625 85.25 27 C 84.410156 30.101562 82.660156 32.519531 80 34.25 C 79.832031 34.082031 79.667969 33.917969 79.5 33.75 C 78.6875 34.476562 78.105469 35.3125 77.75 36.25 C 77.933594 34.40625 77.269531 33.90625 75.75 34.75 C 77.734375 33.179688 79.484375 31.347656 81 29.25 C 81.429688 27.867188 81.679688 26.449219 81.75 25 C 81.945312 23.414062 81.445312 22.164062 80.25 21.25 C 80.304688 20.941406 80.472656 20.691406 80.75 20.5 C 79.523438 19.421875 79.855469 19.003906 81.75 19.25 C 81.804688 18.242188 81.472656 17.410156 80.75 16.75 Z M 80.75 16.75 "/>
<use xlink:href="#surface14" mask="url(#mask3)"/>
<path style=" stroke:none;fill-rule:evenodd;fill:rgb(96.862745%,62.352941%,39.215686%);fill-opacity:1;" d="M 51.25 16.25 C 51.582031 16.25 51.917969 16.25 52.25 16.25 C 55.089844 16.167969 57.921875 16.25 60.75 16.5 C 58.015625 21.957031 58.183594 27.375 61.25 32.75 C 61.078125 33.347656 60.828125 33.347656 60.5 32.75 C 59 29.414062 56.914062 26.5 54.25 24 C 52.195312 22.890625 50.359375 23.140625 48.75 24.75 C 47.082031 23.886719 45.5 22.886719 44 21.75 C 43.550781 21.871094 43.132812 22.039062 42.75 22.25 C 40.777344 21.828125 40.445312 20.992188 41.75 19.75 C 42.121094 19.683594 42.453125 19.769531 42.75 20 C 42.082031 20.332031 42.082031 20.667969 42.75 21 C 43.25 21.332031 43.75 21.332031 44.25 21 C 46.050781 18.523438 48.382812 16.941406 51.25 16.25 Z M 51.25 16.25 "/>
<path style=" stroke:none;fill-rule:evenodd;fill:rgb(80.784314%,75.686275%,83.137255%);fill-opacity:1;" d="M 35.25 25.75 C 37.484375 27.75 39.566406 29.914062 41.5 32.25 C 41.667969 33.023438 41.417969 33.691406 40.75 34.25 C 41.601562 34.449219 42.351562 34.449219 43 34.25 C 44.554688 36.53125 45.972656 38.867188 47.25 41.25 C 48.492188 46.15625 48.992188 51.15625 48.75 56.25 C 49.589844 56.140625 50.089844 56.476562 50.25 57.25 C 50.285156 57.980469 50.117188 58.644531 49.75 59.25 C 48.839844 61.738281 47.671875 64.070312 46.25 66.25 C 43.351562 69.484375 40.015625 72.152344 36.25 74.25 C 34.574219 74.332031 32.910156 74.25 31.25 74 C 30.289062 73.820312 29.457031 73.402344 28.75 72.75 C 39.941406 69.382812 44.191406 61.882812 41.5 50.25 C 39.414062 43.753906 35.996094 38.089844 31.25 33.25 C 31.417969 32.75 31.75 32.417969 32.25 32.25 C 38.625 36.875 43.207031 42.875 46 50.25 C 45.492188 44.566406 43.328125 39.566406 39.5 35.25 C 34.699219 30.28125 29.199219 26.28125 23 23.25 C 22.652344 23.71875 22.738281 24.050781 23.25 24.25 C 23.25 24.582031 23.082031 24.75 22.75 24.75 C 18.917969 21.003906 15.003906 17.335938 11 13.75 C 10.65625 13.335938 10.738281 13 11.25 12.75 C 20.101562 15.625 28.101562 19.957031 35.25 25.75 Z M 35.25 25.75 "/>
<path style=" stroke:none;fill-rule:evenodd;fill:rgb(90.980392%,74.901961%,60.784314%);fill-opacity:1;" d="M 93.25 22.75 C 94.757812 22.667969 96.257812 22.75 97.75 23 C 98.578125 23.722656 98.910156 24.640625 98.75 25.75 C 96.410156 25.832031 94.078125 25.75 91.75 25.5 C 92.320312 24.609375 92.820312 23.691406 93.25 22.75 Z M 93.25 22.75 "/>
<path style=" stroke:none;fill-rule:evenodd;fill:rgb(63.921569%,45.098039%,29.019608%);fill-opacity:1;" d="M 63.25 23.25 C 63.167969 24.429688 63.25 25.59375 63.5 26.75 C 65.753906 28.929688 67.503906 31.429688 68.75 34.25 C 66.386719 32.050781 64.386719 29.550781 62.75 26.75 C 62.597656 25.46875 62.765625 24.304688 63.25 23.25 Z M 63.25 23.25 "/>
<path style=" stroke:none;fill-rule:evenodd;fill:rgb(26.27451%,21.176471%,25.098039%);fill-opacity:1;" d="M 8.75 41.25 C 8.410156 40.410156 7.742188 40.078125 6.75 40.25 C 7.179688 32.628906 9.679688 25.796875 14.25 19.75 C 15.1875 20.269531 15.855469 21.019531 16.25 22 C 12.601562 28.039062 10.101562 34.457031 8.75 41.25 Z M 8.75 41.25 "/>
<path style=" stroke:none;fill-rule:evenodd;fill:rgb(97.254902%,65.490196%,45.098039%);fill-opacity:1;" d="M 93.25 28.25 C 96.664062 27.5 98.164062 28.832031 97.75 32.25 C 96.539062 32.402344 95.371094 32.238281 94.25 31.75 C 93.808594 30.785156 93.308594 29.867188 92.75 29 C 92.785156 28.617188 92.953125 28.367188 93.25 28.25 Z M 93.25 28.25 "/>
<path style=" stroke:none;fill-rule:evenodd;fill:rgb(57.254902%,50.196078%,57.647059%);fill-opacity:1;" d="M 23.25 24.25 C 26.410156 26.746094 29.410156 29.410156 32.25 32.25 C 31.75 32.417969 31.417969 32.75 31.25 33.25 C 28.25 30.582031 25.417969 27.75 22.75 24.75 C 23.082031 24.75 23.25 24.582031 23.25 24.25 Z M 23.25 24.25 "/>
<path style=" stroke:none;fill-rule:evenodd;fill:rgb(94.901961%,64.313725%,41.568627%);fill-opacity:1;" d="M 83.25 13.75 C 87.964844 15.210938 90.214844 18.375 90 23.25 C 88.117188 26.757812 87.535156 30.425781 88.25 34.25 C 86.699219 35.855469 85.53125 37.6875 84.75 39.75 C 84.582031 39.332031 84.417969 38.917969 84.25 38.5 C 85.273438 33.082031 86.273438 27.667969 87.25 22.25 C 87.117188 20.984375 86.703125 19.820312 86 18.75 C 84.660156 17.492188 83.410156 16.160156 82.25 14.75 C 82.621094 14.410156 82.953125 14.074219 83.25 13.75 Z M 83.25 13.75 "/>
<path style=" stroke:none;fill-rule:evenodd;fill:rgb(87.843137%,45.098039%,28.235294%);fill-opacity:1;" d="M 93.25 32.75 C 91.898438 32.789062 90.5625 32.953125 89.25 33.25 C 89.25 32.582031 89.25 31.917969 89.25 31.25 C 89.738281 30.425781 90.40625 29.761719 91.25 29.25 C 92.289062 30.210938 92.957031 31.378906 93.25 32.75 Z M 93.25 32.75 "/>
<path style=" stroke:none;fill-rule:evenodd;fill:rgb(92.54902%,66.666667%,47.45098%);fill-opacity:1;" d="M 98.25 28.25 C 100.039062 28.101562 101.621094 28.601562 103 29.75 C 103.34375 30.390625 103.257812 30.976562 102.75 31.5 C 101.828125 32.0625 100.828125 32.3125 99.75 32.25 C 98.707031 31.15625 98.207031 29.824219 98.25 28.25 Z M 98.25 28.25 "/>
<path style=" stroke:none;fill-rule:evenodd;fill:rgb(35.294118%,29.803922%,31.372549%);fill-opacity:1;" d="M 22.75 42.25 C 20.957031 45.125 19.957031 48.292969 19.75 51.75 C 18.546875 51.804688 17.632812 51.304688 17 50.25 C 16.859375 48.402344 16.859375 46.570312 17 44.75 C 16.261719 46.0625 15.679688 47.394531 15.25 48.75 C 14.625 40.792969 16.457031 33.460938 20.75 26.75 C 23.097656 28.097656 24.929688 29.929688 26.25 32.25 C 24.796875 35.488281 23.628906 38.824219 22.75 42.25 Z M 22.75 42.25 "/>
<path style=" stroke:none;fill-rule:evenodd;fill:rgb(21.568627%,17.254902%,24.705882%);fill-opacity:1;" d="M 49.75 59.25 C 50.117188 58.644531 50.285156 57.980469 50.25 57.25 C 51.183594 51.941406 50.515625 46.777344 48.25 41.75 C 48.023438 41.351562 47.6875 41.183594 47.25 41.25 C 45.972656 38.867188 44.554688 36.53125 43 34.25 C 42.351562 34.449219 41.601562 34.449219 40.75 34.25 C 41.417969 33.691406 41.667969 33.023438 41.5 32.25 C 39.566406 29.914062 37.484375 27.75 35.25 25.75 C 35.09375 24.375 35.261719 23.042969 35.75 21.75 C 40.398438 25.148438 44.648438 28.984375 48.5 33.25 C 53.640625 40.476562 55.472656 48.476562 54 57.25 C 53.546875 59.285156 52.714844 61.121094 51.5 62.75 C 51.128906 61.402344 50.546875 60.238281 49.75 59.25 Z M 49.75 59.25 "/>
<path style=" stroke:none;fill-rule:evenodd;fill:rgb(99.215686%,81.176471%,55.686275%);fill-opacity:1;" d="M 80.75 13.25 C 81.609375 13.3125 82.441406 13.480469 83.25 13.75 C 82.953125 14.074219 82.621094 14.410156 82.25 14.75 C 83.410156 16.160156 84.660156 17.492188 86 18.75 C 86.703125 19.820312 87.117188 20.984375 87.25 22.25 C 86.273438 27.667969 85.273438 33.082031 84.25 38.5 C 84.417969 38.917969 84.582031 39.332031 84.75 39.75 C 85.53125 37.6875 86.699219 35.855469 88.25 34.25 C 88.605469 34.703125 89.105469 34.867188 89.75 34.75 C 89.839844 35.796875 89.675781 36.796875 89.25 37.75 C 90.175781 38.773438 90.511719 39.855469 90.25 41 C 92.222656 41.402344 92.222656 41.652344 90.25 41.75 C 90.25 42.417969 90.25 43.082031 90.25 43.75 C 87.636719 43.503906 86.96875 44.335938 88.25 46.25 C 86.953125 45.621094 85.617188 45.039062 84.25 44.5 C 85.675781 44.367188 87.007812 43.949219 88.25 43.25 C 88.867188 42.675781 88.867188 42.089844 88.25 41.5 C 85.558594 40.933594 83.058594 41.351562 80.75 42.75 C 79.992188 42.746094 79.40625 42.410156 79 41.75 C 78.792969 41.980469 78.542969 42.144531 78.25 42.25 C 77.914062 41.183594 77.582031 40.183594 77.25 39.25 C 77.574219 38.28125 77.742188 37.28125 77.75 36.25 C 78.105469 35.3125 78.6875 34.476562 79.5 33.75 C 79.667969 33.917969 79.832031 34.082031 80 34.25 C 82.660156 32.519531 84.410156 30.101562 85.25 27 C 84.152344 26.390625 83.402344 25.472656 83 24.25 C 82.832031 24.582031 82.667969 24.917969 82.5 25.25 C 82.746094 22.773438 82.746094 20.273438 82.5 17.75 C 82.09375 17.089844 81.507812 16.753906 80.75 16.75 C 79.796875 16.601562 78.964844 16.269531 78.25 15.75 C 78.835938 15.859375 79.335938 15.691406 79.75 15.25 C 78.960938 14.851562 78.128906 14.601562 77.25 14.5 C 77.417969 14.332031 77.582031 14.167969 77.75 14 C 78.855469 13.90625 79.855469 13.65625 80.75 13.25 Z M 80.75 13.25 "/>
<path style=" stroke:none;fill-rule:evenodd;fill:rgb(94.117647%,72.156863%,50.196078%);fill-opacity:1;" d="M 102.75 34.75 C 105.148438 36.132812 105.3125 37.632812 103.25 39.25 C 102.25 39.25 101.25 39.25 100.25 39.25 C 100.25 37.75 100.25 36.25 100.25 34.75 C 101.082031 34.75 101.917969 34.75 102.75 34.75 Z M 102.75 34.75 "/>
<path style=" stroke:none;fill-rule:evenodd;fill:rgb(25.882353%,18.431373%,26.27451%);fill-opacity:1;" d="M 32.25 32.25 C 29.410156 29.410156 26.410156 26.746094 23.25 24.25 C 22.738281 24.050781 22.652344 23.71875 23 23.25 C 29.199219 26.28125 34.699219 30.28125 39.5 35.25 C 43.328125 39.566406 45.492188 44.566406 46 50.25 C 43.207031 42.875 38.625 36.875 32.25 32.25 Z M 32.25 32.25 "/>
<path style=" stroke:none;fill-rule:evenodd;fill:rgb(21.960784%,14.509804%,10.196078%);fill-opacity:1;" d="M 100.25 39.25 C 101.25 39.25 102.25 39.25 103.25 39.25 C 102.539062 39.726562 101.707031 39.890625 100.75 39.75 C 100.714844 40.480469 100.882812 41.144531 101.25 41.75 C 101.25 43.417969 101.25 45.082031 101.25 46.75 C 100.917969 45.25 100.582031 43.75 100.25 42.25 C 99.308594 41.828125 98.308594 41.664062 97.25 41.75 C 98.132812 41.269531 99.132812 41.101562 100.25 41.25 C 100.25 40.582031 100.25 39.917969 100.25 39.25 Z M 100.25 39.25 "/>
<path style=" stroke:none;fill-rule:evenodd;fill:rgb(70.980392%,68.627451%,70.196078%);fill-opacity:1;" d="M 4.75 38.75 C 4.554688 41.878906 3.886719 44.542969 2.75 46.75 C 1.929688 38.941406 3.847656 31.773438 8.5 25.25 C 6.808594 29.585938 5.558594 34.085938 4.75 38.75 Z M 4.75 38.75 "/>
<path style=" stroke:none;fill-rule:evenodd;fill:rgb(64.313725%,60%,63.529412%);fill-opacity:1;" d="M 6.75 40.25 C 7.742188 40.078125 8.410156 40.410156 8.75 41.25 C 8.816406 42.144531 8.648438 42.980469 8.25 43.75 C 7.75 43.75 7.25 43.75 6.75 43.75 C 6.75 42.582031 6.75 41.417969 6.75 40.25 Z M 6.75 40.25 "/>
<path style=" stroke:none;fill-rule:evenodd;fill:rgb(85.882353%,47.843137%,32.941176%);fill-opacity:1;" d="M 48.75 24.75 C 60.242188 34.566406 63.742188 46.734375 59.25 61.25 C 58.097656 62.917969 56.597656 64.253906 54.75 65.25 C 60.375 52.578125 58.957031 40.746094 50.5 29.75 C 47.96875 27.132812 45.386719 24.632812 42.75 22.25 C 43.132812 22.039062 43.550781 21.871094 44 21.75 C 45.5 22.886719 47.082031 23.886719 48.75 24.75 Z M 48.75 24.75 "/>
<path style=" stroke:none;fill-rule:evenodd;fill:rgb(99.215686%,82.352941%,58.823529%);fill-opacity:1;" d="M 77.25 39.25 C 77.582031 40.183594 77.914062 41.183594 78.25 42.25 C 78.542969 42.144531 78.792969 41.980469 79 41.75 C 79.40625 42.410156 79.992188 42.746094 80.75 42.75 C 80.4375 43.3125 80.023438 43.8125 79.5 44.25 C 79.167969 44.75 79.167969 45.25 79.5 45.75 C 81.726562 47.742188 84.308594 48.65625 87.25 48.5 C 88.054688 47.976562 88.386719 47.226562 88.25 46.25 C 89.40625 46.980469 89.40625 47.898438 88.25 49 C 86.359375 49.105469 84.523438 49.191406 82.75 49.25 C 84.601562 52.148438 85.433594 55.316406 85.25 58.75 C 84.636719 59.074219 84.304688 59.660156 84.25 60.5 C 84.742188 62.324219 85.242188 64.160156 85.75 66 C 84.789062 67.46875 84.121094 69.386719 83.75 71.75 C 82.328125 72.386719 80.828125 72.800781 79.25 73 C 74.660156 73.410156 70.160156 73.328125 65.75 72.75 C 69.085938 72.832031 72.421875 72.75 75.75 72.5 C 78.558594 71.984375 78.726562 71.570312 76.25 71.25 C 77.964844 70.765625 79.546875 69.933594 81 68.75 C 82.359375 62.914062 80.609375 58.25 75.75 54.75 C 76.324219 54.605469 76.65625 54.1875 76.75 53.5 C 76.1875 48.722656 76.355469 43.972656 77.25 39.25 Z M 77.25 39.25 "/>
<path style=" stroke:none;fill-rule:evenodd;fill:rgb(5.882353%,3.529412%,2.745098%);fill-opacity:1;" d="M 88.25 46.25 C 88.386719 47.226562 88.054688 47.976562 87.25 48.5 C 84.308594 48.65625 81.726562 47.742188 79.5 45.75 C 79.167969 45.25 79.167969 44.75 79.5 44.25 C 80.023438 43.8125 80.4375 43.3125 80.75 42.75 C 83.058594 41.351562 85.558594 40.933594 88.25 41.5 C 88.867188 42.089844 88.867188 42.675781 88.25 43.25 C 87.007812 43.949219 85.675781 44.367188 84.25 44.5 C 85.617188 45.039062 86.953125 45.621094 88.25 46.25 Z M 88.25 46.25 "/>
<path style=" stroke:none;fill-rule:evenodd;fill:rgb(94.901961%,71.372549%,48.235294%);fill-opacity:1;" d="M 97.25 41.75 C 98.308594 41.664062 99.308594 41.828125 100.25 42.25 C 100.269531 43.941406 100.101562 45.605469 99.75 47.25 C 96 47.917969 94.582031 46.417969 95.5 42.75 C 95.90625 42.089844 96.492188 41.753906 97.25 41.75 Z M 97.25 41.75 "/>
<path style=" stroke:none;fill-rule:evenodd;fill:rgb(99.607843%,81.176471%,56.078431%);fill-opacity:1;" d="M 76.25 15.75 C 72.359375 15.535156 68.527344 15.785156 64.75 16.5 C 61.25 19.53125 60.582031 22.949219 62.75 26.75 C 64.386719 29.550781 66.386719 32.050781 68.75 34.25 C 70.136719 36.917969 70.554688 39.75 70 42.75 C 68.878906 44.152344 67.460938 45.152344 65.75 45.75 C 67.101562 46.972656 68.515625 48.136719 70 49.25 C 70.082031 49.75 70.167969 50.25 70.25 50.75 C 69.3125 53.460938 67.976562 55.960938 66.25 58.25 C 64.601562 60.148438 62.851562 61.980469 61 63.75 C 59.957031 67.074219 60.707031 69.90625 63.25 72.25 C 62.582031 72.417969 61.917969 72.582031 61.25 72.75 C 59.222656 70.496094 58.386719 67.828125 58.75 64.75 C 59.714844 63.667969 59.882812 62.5 59.25 61.25 C 63.742188 46.734375 60.242188 34.566406 48.75 24.75 C 50.359375 23.140625 52.195312 22.890625 54.25 24 C 56.914062 26.5 59 29.414062 60.5 32.75 C 60.828125 33.347656 61.078125 33.347656 61.25 32.75 C 58.183594 27.375 58.015625 21.957031 60.75 16.5 C 57.921875 16.25 55.089844 16.167969 52.25 16.25 C 60.238281 15.300781 68.238281 15.136719 76.25 15.75 Z M 76.25 15.75 "/>
<path style=" stroke:none;fill-rule:evenodd;fill:rgb(95.686275%,72.54902%,52.941176%);fill-opacity:1;" d="M 101.25 41.75 C 105.246094 41.542969 106.246094 43.125 104.25 46.5 C 103.261719 46.746094 102.261719 46.832031 101.25 46.75 C 101.25 45.082031 101.25 43.417969 101.25 41.75 Z M 101.25 41.75 "/>
<path style=" stroke:none;fill-rule:evenodd;fill:rgb(9.803922%,5.490196%,3.921569%);fill-opacity:1;" d="M 93.25 28.25 C 94.917969 27.582031 96.582031 27.582031 98.25 28.25 C 98.207031 29.824219 98.707031 31.15625 99.75 32.25 C 100.382812 33.5625 101.382812 34.394531 102.75 34.75 C 101.917969 34.75 101.082031 34.75 100.25 34.75 C 100.25 36.25 100.25 37.75 100.25 39.25 C 100.25 39.917969 100.25 40.582031 100.25 41.25 C 99.132812 41.101562 98.132812 41.269531 97.25 41.75 C 96.492188 41.753906 95.90625 42.089844 95.5 42.75 C 94.582031 46.417969 96 47.917969 99.75 47.25 C 100.742188 48.246094 101.910156 48.914062 103.25 49.25 C 102.25 49.25 101.25 49.25 100.25 49.25 C 100.25 50.417969 100.25 51.582031 100.25 52.75 C 99.917969 52.75 99.582031 52.75 99.25 52.75 C 99.25 51.582031 99.25 50.417969 99.25 49.25 C 95.652344 48.515625 94.316406 49.847656 95.25 53.25 C 96.199219 53.734375 97.199219 53.898438 98.25 53.75 C 97.128906 54.042969 96.128906 54.625 95.25 55.5 C 96.191406 55.597656 97.023438 55.847656 97.75 56.25 C 94.542969 55.664062 93.042969 57 93.25 60.25 C 94.917969 60.46875 96.417969 60.132812 97.75 59.25 C 97.652344 60.457031 96.988281 60.957031 95.75 60.75 C 95.75 61.25 95.75 61.75 95.75 62.25 C 96.707031 62.109375 97.539062 62.273438 98.25 62.75 C 95.589844 62.941406 93.089844 62.441406 90.75 61.25 C 91.25 60.582031 91.75 59.917969 92.25 59.25 C 92.710938 57.9375 93.210938 56.601562 93.75 55.25 C 92.976562 54.773438 92.144531 54.609375 91.25 54.75 C 90.917969 54.417969 90.582031 54.082031 90.25 53.75 C 91.417969 53.75 92.582031 53.75 93.75 53.75 C 93.511719 51.535156 93.84375 49.453125 94.75 47.5 C 93.335938 45.152344 93.5 42.902344 95.25 40.75 C 93.980469 38.785156 93.480469 36.621094 93.75 34.25 C 92.582031 34.25 91.417969 34.25 90.25 34.25 C 89.894531 33.796875 89.394531 33.632812 88.75 33.75 C 88.609375 32.792969 88.773438 31.960938 89.25 31.25 C 89.25 31.917969 89.25 32.582031 89.25 33.25 C 90.5625 32.953125 91.898438 32.789062 93.25 32.75 C 94.753906 33.648438 96.417969 33.984375 98.25 33.75 C 98.367188 33.105469 98.203125 32.605469 97.75 32.25 C 98.164062 28.832031 96.664062 27.5 93.25 28.25 Z M 93.25 28.25 "/>
<path style=" stroke:none;fill-rule:evenodd;fill:rgb(97.254902%,67.45098%,42.352941%);fill-opacity:1;" d="M 95.25 34.25 C 96.582031 34.25 97.917969 34.25 99.25 34.25 C 99.25 35.917969 99.25 37.582031 99.25 39.25 C 95.382812 39.683594 94.050781 38.015625 95.25 34.25 Z M 95.25 34.25 "/>
<path style=" stroke:none;fill-rule:evenodd;fill:rgb(44.705882%,40.392157%,49.019608%);fill-opacity:1;" d="M 47.25 41.25 C 47.6875 41.183594 48.023438 41.351562 48.25 41.75 C 50.515625 46.777344 51.183594 51.941406 50.25 57.25 C 50.089844 56.476562 49.589844 56.140625 48.75 56.25 C 48.992188 51.15625 48.492188 46.15625 47.25 41.25 Z M 47.25 41.25 "/>
<path style=" stroke:none;fill-rule:evenodd;fill:rgb(98.039216%,70.588235%,43.921569%);fill-opacity:1;" d="M 88.25 34.25 C 88.917969 34.25 89.582031 34.25 90.25 34.25 C 91.417969 34.25 92.582031 34.25 93.75 34.25 C 93.480469 36.621094 93.980469 38.785156 95.25 40.75 C 93.5 42.902344 93.335938 45.152344 94.75 47.5 C 93.84375 49.453125 93.511719 51.535156 93.75 53.75 C 92.582031 53.75 91.417969 53.75 90.25 53.75 C 89.429688 53.644531 88.679688 53.808594 88 54.25 C 87.75 55.40625 87.667969 56.570312 87.75 57.75 C 87.75 58.417969 87.75 59.082031 87.75 59.75 C 87.410156 61.402344 87.410156 62.984375 87.75 64.5 C 87.679688 65.152344 87.347656 65.566406 86.75 65.75 C 86.355469 63.382812 85.855469 61.050781 85.25 58.75 C 85.433594 55.316406 84.601562 52.148438 82.75 49.25 C 84.523438 49.191406 86.359375 49.105469 88.25 49 C 89.40625 47.898438 89.40625 46.980469 88.25 46.25 C 86.96875 44.335938 87.636719 43.503906 90.25 43.75 C 90.25 43.082031 90.25 42.417969 90.25 41.75 C 92.222656 41.652344 92.222656 41.402344 90.25 41 C 90.511719 39.855469 90.175781 38.773438 89.25 37.75 C 89.675781 36.796875 89.839844 35.796875 89.75 34.75 C 89.105469 34.867188 88.605469 34.703125 88.25 34.25 Z M 88.25 34.25 "/>
<path style=" stroke:none;fill-rule:evenodd;fill:rgb(96.078431%,61.568627%,38.039216%);fill-opacity:1;" d="M 68.75 34.25 C 70.066406 35.539062 71.152344 37.039062 72 38.75 C 72.648438 36.851562 73.898438 35.519531 75.75 34.75 C 77.269531 33.90625 77.933594 34.40625 77.75 36.25 C 77.742188 37.28125 77.574219 38.28125 77.25 39.25 C 76.355469 43.972656 76.1875 48.722656 76.75 53.5 C 76.65625 54.1875 76.324219 54.605469 75.75 54.75 C 74.117188 53.953125 72.785156 52.785156 71.75 51.25 C 70.152344 54.117188 68.320312 56.785156 66.25 59.25 C 66.25 58.917969 66.25 58.582031 66.25 58.25 C 67.976562 55.960938 69.3125 53.460938 70.25 50.75 C 70.167969 50.25 70.082031 49.75 70 49.25 C 68.515625 48.136719 67.101562 46.972656 65.75 45.75 C 67.460938 45.152344 68.878906 44.152344 70 42.75 C 70.554688 39.75 70.136719 36.917969 68.75 34.25 Z M 68.75 34.25 "/>
<path style=" stroke:none;fill-rule:evenodd;fill:rgb(95.294118%,69.411765%,45.490196%);fill-opacity:1;" d="M 103.25 49.25 C 103.746094 49.207031 104.164062 49.375 104.5 49.75 C 104.992188 52.429688 103.828125 53.761719 101 53.75 C 100.484375 53.582031 100.234375 53.25 100.25 52.75 C 100.25 51.582031 100.25 50.417969 100.25 49.25 C 101.25 49.25 102.25 49.25 103.25 49.25 Z M 103.25 49.25 "/>
<use xlink:href="#surface17" mask="url(#mask4)"/>
<path style=" stroke:none;fill-rule:evenodd;fill:rgb(19.215686%,15.686275%,18.823529%);fill-opacity:1;" d="M 15.25 48.75 C 15.679688 47.394531 16.261719 46.0625 17 44.75 C 16.859375 46.570312 16.859375 48.402344 17 50.25 C 17.632812 51.304688 18.546875 51.804688 19.75 51.75 C 19.957031 48.292969 20.957031 45.125 22.75 42.25 C 24 41.273438 25.332031 40.941406 26.75 41.25 C 25.144531 44.976562 23.894531 48.8125 23 52.75 C 22.351562 52.515625 21.601562 52.515625 20.75 52.75 C 20.75 54.917969 20.75 57.082031 20.75 59.25 C 19.804688 59.351562 19.054688 59.019531 18.5 58.25 C 16.664062 55.328125 15.582031 52.160156 15.25 48.75 Z M 15.25 48.75 "/>
<path style=" stroke:none;fill-rule:evenodd;fill:rgb(22.745098%,20.784314%,22.745098%);fill-opacity:1;" d="M 6.75 40.25 C 6.75 41.417969 6.75 42.582031 6.75 43.75 C 7.25 43.75 7.75 43.75 8.25 43.75 C 8.4375 47.132812 8.4375 50.464844 8.25 53.75 C 7.917969 53.75 7.582031 53.75 7.25 53.75 C 7.304688 53.441406 7.472656 53.191406 7.75 53 C 6.359375 48.765625 6.027344 44.515625 6.75 40.25 Z M 6.75 40.25 "/>
<path style=" stroke:none;fill-rule:evenodd;fill:rgb(34.509804%,28.627451%,29.803922%);fill-opacity:1;" d="M 39.25 51.25 C 37.382812 54.726562 36.882812 54.476562 37.75 50.5 C 37.5 50.25 37.25 50 37 49.75 C 36.3125 50.519531 35.5625 51.1875 34.75 51.75 C 35.355469 49.515625 36.105469 47.351562 37 45.25 C 37.800781 47.242188 38.550781 49.242188 39.25 51.25 Z M 39.25 51.25 "/>
<path style=" stroke:none;fill-rule:evenodd;fill:rgb(18.039216%,14.509804%,17.254902%);fill-opacity:1;" d="M 28.75 39.25 C 28.671875 39.9375 28.753906 40.601562 29 41.25 C 29.957031 42.578125 30.707031 43.996094 31.25 45.5 C 29.546875 50.199219 27.714844 54.78125 25.75 59.25 C 24.34375 52.21875 25.34375 45.554688 28.75 39.25 Z M 28.75 39.25 "/>
<path style=" stroke:none;fill-rule:evenodd;fill:rgb(97.254902%,72.156863%,44.313725%);fill-opacity:1;" d="M 99.25 52.75 C 99.082031 53.25 98.75 53.582031 98.25 53.75 C 97.199219 53.898438 96.199219 53.734375 95.25 53.25 C 94.316406 49.847656 95.652344 48.515625 99.25 49.25 C 99.25 50.417969 99.25 51.582031 99.25 52.75 Z M 99.25 52.75 "/>
<path style=" stroke:none;fill-rule:evenodd;fill:rgb(1.960784%,1.176471%,0.784314%);fill-opacity:1;" d="M 75.75 54.75 C 80.609375 58.25 82.359375 62.914062 81 68.75 C 79.546875 69.933594 77.964844 70.765625 76.25 71.25 C 72.925781 71.691406 69.59375 71.773438 66.25 71.5 C 63.410156 69.683594 62.496094 67.097656 63.5 63.75 C 64.332031 62.175781 65.246094 60.675781 66.25 59.25 C 68.320312 56.785156 70.152344 54.117188 71.75 51.25 C 72.785156 52.785156 74.117188 53.953125 75.75 54.75 Z M 75.75 54.75 "/>
<path style=" stroke:none;fill-rule:evenodd;fill:rgb(29.803922%,25.098039%,29.019608%);fill-opacity:1;" d="M 25.75 59.25 C 27.714844 54.78125 29.546875 50.199219 31.25 45.5 C 30.707031 43.996094 29.957031 42.578125 29 41.25 C 28.753906 40.601562 28.671875 39.9375 28.75 39.25 C 28.957031 35.675781 30.039062 35.175781 32 37.75 C 32.832031 38.917969 33.667969 40.082031 34.5 41.25 C 34.734375 48.382812 32.316406 54.464844 27.25 59.5 C 26.625 59.871094 26.125 59.785156 25.75 59.25 Z M 25.75 59.25 "/>
<path style=" stroke:none;fill-rule:evenodd;fill:rgb(41.568627%,18.823529%,13.333333%);fill-opacity:1;" d="M 90.25 53.75 C 90.582031 54.082031 90.917969 54.417969 91.25 54.75 C 90.417969 54.75 89.582031 54.75 88.75 54.75 C 88.75 55.917969 88.75 57.082031 88.75 58.25 C 88.417969 58.082031 88.082031 57.917969 87.75 57.75 C 87.667969 56.570312 87.75 55.40625 88 54.25 C 88.679688 53.808594 89.429688 53.644531 90.25 53.75 Z M 90.25 53.75 "/>
<path style=" stroke:none;fill-rule:evenodd;fill:rgb(49.411765%,43.529412%,45.098039%);fill-opacity:1;" d="M 39.25 51.25 C 40.152344 55.21875 39.820312 59.050781 38.25 62.75 C 37.558594 62.148438 36.976562 62.3125 36.5 63.25 C 35.890625 62.195312 35.308594 62.359375 34.75 63.75 C 33.929688 64.109375 33.097656 64.191406 32.25 64 C 34.25 61.914062 35.667969 59.5 36.5 56.75 C 36.957031 52.433594 36.539062 52.265625 35.25 56.25 C 34.761719 54.957031 34.59375 53.625 34.75 52.25 C 34.75 52.082031 34.75 51.917969 34.75 51.75 C 35.5625 51.1875 36.3125 50.519531 37 49.75 C 37.25 50 37.5 50.25 37.75 50.5 C 36.882812 54.476562 37.382812 54.726562 39.25 51.25 Z M 39.25 51.25 "/>
<path style=" stroke:none;fill-rule:evenodd;fill:rgb(80.784314%,37.254902%,24.313725%);fill-opacity:1;" d="M 91.25 54.75 C 92.144531 54.609375 92.976562 54.773438 93.75 55.25 C 93.210938 56.601562 92.710938 57.9375 92.25 59.25 C 91.015625 59.117188 89.851562 58.78125 88.75 58.25 C 88.75 57.082031 88.75 55.917969 88.75 54.75 C 89.582031 54.75 90.417969 54.75 91.25 54.75 Z M 91.25 54.75 "/>
<path style=" stroke:none;fill-rule:evenodd;fill:rgb(92.941176%,67.45098%,45.490196%);fill-opacity:1;" d="M 97.75 56.25 C 97.75 57.25 97.75 58.25 97.75 59.25 C 96.417969 60.132812 94.917969 60.46875 93.25 60.25 C 93.042969 57 94.542969 55.664062 97.75 56.25 Z M 97.75 56.25 "/>
<path style=" stroke:none;fill-rule:evenodd;fill:rgb(92.54902%,67.843137%,45.098039%);fill-opacity:1;" d="M 98.75 55.75 C 100.273438 55.753906 101.773438 55.921875 103.25 56.25 C 103.273438 59.171875 101.773438 60.335938 98.75 59.75 C 98.75 58.417969 98.75 57.082031 98.75 55.75 Z M 98.75 55.75 "/>
<path style=" stroke:none;fill-rule:evenodd;fill:rgb(21.568627%,19.607843%,20.784314%);fill-opacity:1;" d="M 9.25 55.25 C 10.3125 55.515625 11.0625 56.183594 11.5 57.25 C 12.078125 56.023438 12.742188 56.023438 13.5 57.25 C 14.515625 58.515625 15.429688 59.847656 16.25 61.25 C 16.070312 61.761719 15.738281 62.09375 15.25 62.25 C 12.707031 60.375 10.707031 58.039062 9.25 55.25 Z M 9.25 55.25 "/>
<path style=" stroke:none;fill-rule:evenodd;fill:rgb(22.352941%,19.215686%,21.960784%);fill-opacity:1;" d="M 34.75 52.25 C 34.59375 53.625 34.761719 54.957031 35.25 56.25 C 36.539062 52.265625 36.957031 52.433594 36.5 56.75 C 35.667969 59.5 34.25 61.914062 32.25 64 C 33.097656 64.191406 33.929688 64.109375 34.75 63.75 C 34.523438 64.230469 34.191406 64.644531 33.75 65 C 30.832031 66.042969 28.164062 67.457031 25.75 69.25 C 25.003906 68.84375 24.671875 68.175781 24.75 67.25 C 24.882812 65.984375 25.296875 64.820312 26 63.75 C 30.355469 60.984375 33.269531 57.148438 34.75 52.25 Z M 34.75 52.25 "/>
<path style=" stroke:none;fill-rule:evenodd;fill:rgb(91.764706%,55.294118%,26.666667%);fill-opacity:1;" d="M 81.75 57.75 C 83.269531 58.625 83.851562 59.957031 83.5 61.75 C 82.503906 60.589844 81.921875 59.257812 81.75 57.75 Z M 81.75 57.75 "/>
<path style=" stroke:none;fill-rule:evenodd;fill:rgb(79.215686%,77.647059%,78.823529%);fill-opacity:1;" d="M 4.75 38.75 C 4.601562 43.300781 5.019531 47.800781 6 52.25 C 6.1875 52.972656 6.605469 53.472656 7.25 53.75 C 7.582031 53.75 7.917969 53.75 8.25 53.75 C 8.699219 54.144531 9.035156 54.644531 9.25 55.25 C 10.707031 58.039062 12.707031 60.375 15.25 62.25 C 14.804688 63.304688 14.222656 64.304688 13.5 65.25 C 9.453125 62.667969 6.453125 59.167969 4.5 54.75 C 3.5 52.171875 2.917969 49.503906 2.75 46.75 C 3.886719 44.542969 4.554688 41.878906 4.75 38.75 Z M 4.75 38.75 "/>
<path style=" stroke:none;fill-rule:evenodd;fill:rgb(99.607843%,88.627451%,68.235294%);fill-opacity:1;" d="M 85.25 58.75 C 85.855469 61.050781 86.355469 63.382812 86.75 65.75 C 87.425781 67.851562 87.257812 69.851562 86.25 71.75 C 86.316406 71.3125 86.148438 70.976562 85.75 70.75 C 85.238281 71.425781 84.570312 71.761719 83.75 71.75 C 84.121094 69.386719 84.789062 67.46875 85.75 66 C 85.242188 64.160156 84.742188 62.324219 84.25 60.5 C 84.304688 59.660156 84.636719 59.074219 85.25 58.75 Z M 85.25 58.75 "/>
<path style=" stroke:none;fill-rule:evenodd;fill:rgb(89.803922%,69.019608%,54.509804%);fill-opacity:1;" d="M 90.75 61.25 C 93.089844 62.441406 95.589844 62.941406 98.25 62.75 C 98.972656 63.910156 98.804688 64.992188 97.75 66 C 96.296875 66.660156 94.796875 66.824219 93.25 66.5 C 92.082031 64.914062 91.25 63.164062 90.75 61.25 Z M 90.75 61.25 "/>
<path style=" stroke:none;fill-rule:evenodd;fill:rgb(92.54902%,17.647059%,27.843137%);fill-opacity:1;" d="M 18.25 62.75 C 19.625 62.636719 20.957031 62.804688 22.25 63.25 C 22.425781 65.710938 22.425781 68.210938 22.25 70.75 C 17.707031 72.121094 15.625 70.453125 16 65.75 C 16.640625 64.625 17.390625 63.625 18.25 62.75 Z M 18.25 62.75 "/>
<path style=" stroke:none;fill-rule:evenodd;fill:rgb(32.941176%,28.235294%,32.54902%);fill-opacity:1;" d="M 38.25 62.75 C 35.589844 67.996094 31.421875 70.164062 25.75 69.25 C 28.164062 67.457031 30.832031 66.042969 33.75 65 C 34.191406 64.644531 34.523438 64.230469 34.75 63.75 C 35.308594 62.359375 35.890625 62.195312 36.5 63.25 C 36.976562 62.3125 37.558594 62.148438 38.25 62.75 Z M 38.25 62.75 "/>
<path style=" stroke:none;fill-rule:evenodd;fill:rgb(99.215686%,55.686275%,58.039216%);fill-opacity:1;" d="M 18.75 66.25 C 19.25 66.25 19.75 66.25 20.25 66.25 C 20.417969 67.25 20.582031 68.25 20.75 69.25 C 18.359375 69.417969 17.691406 68.417969 18.75 66.25 Z M 18.75 66.25 "/>
<path style=" stroke:none;fill-rule:evenodd;fill:rgb(25.098039%,20.784314%,29.019608%);fill-opacity:1;" d="M 46.25 66.25 C 47.1875 66.605469 48.023438 67.1875 48.75 68 C 45.378906 71.683594 41.214844 73.769531 36.25 74.25 C 40.015625 72.152344 43.351562 69.484375 46.25 66.25 Z M 46.25 66.25 "/>
<path style=" stroke:none;fill-rule:evenodd;fill:rgb(89.019608%,63.921569%,46.27451%);fill-opacity:1;" d="M 87.75 59.75 C 88.535156 62.292969 89.367188 64.875 90.25 67.5 C 90.066406 70.761719 88.566406 73.175781 85.75 74.75 C 85.257812 73.699219 85.425781 72.699219 86.25 71.75 C 87.257812 69.851562 87.425781 67.851562 86.75 65.75 C 87.347656 65.566406 87.679688 65.152344 87.75 64.5 C 87.410156 62.984375 87.410156 61.402344 87.75 59.75 Z M 87.75 59.75 "/>
<path style=" stroke:none;fill-rule:evenodd;fill:rgb(96.078431%,62.745098%,39.607843%);fill-opacity:1;" d="M 58.75 64.75 C 58.386719 67.828125 59.222656 70.496094 61.25 72.75 C 57.582031 72.75 53.917969 72.75 50.25 72.75 C 51.855469 72.257812 53.523438 71.757812 55.25 71.25 C 56.007812 68.835938 57.175781 66.667969 58.75 64.75 Z M 58.75 64.75 "/>
<path style=" stroke:none;fill-rule:evenodd;fill:rgb(94.117647%,69.803922%,44.313725%);fill-opacity:1;" d="M 66.25 58.25 C 66.25 58.582031 66.25 58.917969 66.25 59.25 C 65.246094 60.675781 64.332031 62.175781 63.5 63.75 C 62.496094 67.097656 63.410156 69.683594 66.25 71.5 C 69.59375 71.773438 72.925781 71.691406 76.25 71.25 C 78.726562 71.570312 78.558594 71.984375 75.75 72.5 C 72.421875 72.75 69.085938 72.832031 65.75 72.75 C 64.792969 72.890625 63.960938 72.726562 63.25 72.25 C 60.707031 69.90625 59.957031 67.074219 61 63.75 C 62.851562 61.980469 64.601562 60.148438 66.25 58.25 Z M 66.25 58.25 "/>
<path style=" stroke:none;fill-rule:evenodd;fill:rgb(89.803922%,54.117647%,33.333333%);fill-opacity:1;" d="M 59.25 61.25 C 59.882812 62.5 59.714844 63.667969 58.75 64.75 C 57.175781 66.667969 56.007812 68.835938 55.25 71.25 C 53.523438 71.757812 51.855469 72.257812 50.25 72.75 C 49.113281 73.222656 48.113281 73.890625 47.25 74.75 C 45.273438 74.472656 45.273438 74.058594 47.25 73.5 C 50.050781 70.953125 52.550781 68.203125 54.75 65.25 C 56.597656 64.253906 58.097656 62.917969 59.25 61.25 Z M 59.25 61.25 "/>
<use xlink:href="#surface20" mask="url(#mask5)"/>
<path style=" stroke:none;fill-rule:evenodd;fill:rgb(95.294118%,89.411765%,83.529412%);fill-opacity:1;" d="M 86.25 71.75 C 85.425781 72.699219 85.257812 73.699219 85.75 74.75 C 83.898438 75.78125 81.898438 76.367188 79.75 76.5 C 71.582031 76.832031 63.417969 76.832031 55.25 76.5 C 52.488281 76.265625 49.820312 75.679688 47.25 74.75 C 48.113281 73.890625 49.113281 73.222656 50.25 72.75 C 53.917969 72.75 57.582031 72.75 61.25 72.75 C 61.917969 72.582031 62.582031 72.417969 63.25 72.25 C 63.960938 72.726562 64.792969 72.890625 65.75 72.75 C 70.160156 73.328125 74.660156 73.410156 79.25 73 C 80.828125 72.800781 82.328125 72.386719 83.75 71.75 C 84.570312 71.761719 85.238281 71.425781 85.75 70.75 C 86.148438 70.976562 86.316406 71.3125 86.25 71.75 Z M 86.25 71.75 "/>
<path style=" stroke:none;fill-rule:evenodd;fill:rgb(16.078431%,15.294118%,17.254902%);fill-opacity:1;" d="M 22.25 82.25 C 21.226562 81.382812 20.308594 80.382812 19.5 79.25 C 18.90625 79.78125 18.65625 80.449219 18.75 81.25 C 18.179688 79.511719 18.09375 77.679688 18.5 75.75 C 18.683594 75.046875 19.101562 74.546875 19.75 74.25 C 20.574219 74.824219 21.324219 75.492188 22 76.25 C 22.167969 77.929688 22.417969 79.597656 22.75 81.25 C 22.730469 81.707031 22.5625 82.042969 22.25 82.25 Z M 22.25 82.25 "/>
<path style=" stroke:none;fill-rule:evenodd;fill:rgb(18.823529%,15.294118%,20%);fill-opacity:1;" d="M 59.25 84.75 C 54.507812 86.390625 49.675781 86.640625 44.75 85.5 C 39.308594 83.515625 33.808594 81.765625 28.25 80.25 C 27.460938 79.429688 27.125 78.429688 27.25 77.25 C 30.363281 77.96875 33.53125 78.386719 36.75 78.5 C 43.859375 81.195312 51.191406 82.945312 58.75 83.75 C 59.148438 83.976562 59.316406 84.3125 59.25 84.75 Z M 59.25 84.75 "/>
<path style=" stroke:none;fill-rule:evenodd;fill:rgb(87.843137%,49.019608%,29.411765%);fill-opacity:1;" d="M 66.75 79.75 C 70.160156 79.171875 73.660156 79.089844 77.25 79.5 C 77.476562 79.707031 77.644531 79.957031 77.75 80.25 C 77.078125 81.265625 76.410156 82.265625 75.75 83.25 C 74.867188 83.730469 73.867188 83.898438 72.75 83.75 C 70.066406 83.390625 68.066406 82.058594 66.75 79.75 Z M 66.75 79.75 "/>
<path style=" stroke:none;fill-rule:evenodd;fill:rgb(96.470588%,77.254902%,60%);fill-opacity:1;" d="M 77.75 86.25 C 76.21875 85.152344 74.554688 84.320312 72.75 83.75 C 73.867188 83.898438 74.867188 83.730469 75.75 83.25 C 77.863281 82.554688 79.445312 81.222656 80.5 79.25 C 81.394531 78.796875 82.3125 78.710938 83.25 79 C 82.429688 82.238281 80.597656 84.652344 77.75 86.25 Z M 77.75 86.25 "/>
<path style=" stroke:none;fill-rule:evenodd;fill:rgb(39.607843%,32.156863%,34.509804%);fill-opacity:1;" d="M 28.25 80.25 C 33.808594 81.765625 39.308594 83.515625 44.75 85.5 C 49.675781 86.640625 54.507812 86.390625 59.25 84.75 C 60.953125 84.5625 61.203125 85.0625 60 86.25 C 57.664062 88.375 54.914062 89.625 51.75 90 C 44.023438 90.921875 37.109375 89.007812 31 84.25 C 29.972656 82.976562 29.054688 81.644531 28.25 80.25 Z M 28.25 80.25 "/>
<use xlink:href="#surface23" mask="url(#mask6)"/>
<path style=" stroke:none;fill-rule:evenodd;fill:rgb(96.862745%,84.313725%,69.019608%);fill-opacity:1;" d="M 66.75 79.75 C 68.066406 82.058594 70.066406 83.390625 72.75 83.75 C 74.554688 84.320312 76.21875 85.152344 77.75 86.25 C 72.992188 87.808594 69.074219 86.644531 66 82.75 C 65.53125 81.503906 65.78125 80.503906 66.75 79.75 Z M 66.75 79.75 "/>
<path style=" stroke:none;fill-rule:evenodd;fill:rgb(76.862745%,75.686275%,78.823529%);fill-opacity:1;" d="M 22.25 82.25 C 24.238281 87.964844 27.738281 92.550781 32.75 96 C 26.457031 94.886719 22.039062 91.304688 19.5 85.25 C 19.089844 83.941406 18.839844 82.609375 18.75 81.25 C 18.65625 80.449219 18.90625 79.78125 19.5 79.25 C 20.308594 80.382812 21.226562 81.382812 22.25 82.25 Z M 22.25 82.25 "/>
<path style=" stroke:none;fill-rule:evenodd;fill:rgb(34.509804%,28.627451%,31.372549%);fill-opacity:1;" d="M 36.75 91.25 C 38.441406 92.761719 40.441406 93.761719 42.75 94.25 C 45.558594 93.890625 48.226562 93.226562 50.75 92.25 C 55.292969 91.9375 59.042969 90.101562 62 86.75 C 60.492188 92.257812 56.910156 95.84375 51.25 97.5 C 40.191406 99.34375 31.773438 95.429688 26 85.75 C 25.582031 84.917969 25.167969 84.082031 24.75 83.25 C 25.160156 82.445312 25.828125 82.109375 26.75 82.25 C 26.671875 81.5625 26.753906 80.898438 27 80.25 C 29.292969 84.792969 32.542969 88.460938 36.75 91.25 Z M 36.75 91.25 "/>
<path style=" stroke:none;fill-rule:evenodd;fill:rgb(19.215686%,16.862745%,18.823529%);fill-opacity:1;" d="M 50.75 92.25 C 48.226562 93.226562 45.558594 93.890625 42.75 94.25 C 40.441406 93.761719 38.441406 92.761719 36.75 91.25 C 36.355469 90.601562 35.855469 90.019531 35.25 89.5 C 38.425781 90.109375 41.589844 90.945312 44.75 92 C 46.742188 92.25 48.742188 92.332031 50.75 92.25 Z M 50.75 92.25 "/>
<use xlink:href="#surface26" mask="url(#mask7)"/>
</g>
</svg>
