<?xml version="1.0" encoding="UTF-8"?>
<svg xmlns="http://www.w3.org/2000/svg" xmlns:xlink="http://www.w3.org/1999/xlink" width="px" height="px" viewBox="0 0 109 97" version="1.1">
<defs>
<filter id="alpha" filterUnits="objectBoundingBox" x="0%" y="0%" width="100%" height="100%">
  <feColorMatrix type="matrix" in="SourceGraphic" values="0 0 0 0 1 0 0 0 0 1 0 0 0 0 1 0 0 0 1 0"/>
</filter>
<mask id="mask0">
  <g filter="url(#alpha)">
<rect x="0" y="0" width="109" height="97" style="fill:rgb(0%,0%,0%);fill-opacity:0.988235;stroke:none;"/>
  </g>
</mask>
<clipPath id="clip1">
  <rect x="0" y="0" width="109" height="97"/>
</clipPath>
<g id="surface5" clip-path="url(#clip1)">
<path style=" stroke:none;fill-rule:evenodd;fill:rgb(6.27451%,4.313725%,3.137255%);fill-opacity:1;" d="M 107.257812 50.25 C 107.257812 50.582031 107.257812 50.917969 107.257812 51.25 C 106.484375 52.191406 105.488281 52.691406 104.273438 52.75 C 103.609375 52.25 103.609375 51.75 104.273438 51.25 C 104.578125 51.195312 104.828125 51.027344 105.019531 50.75 C 105.410156 49.121094 105.324219 47.535156 104.769531 46 C 101.789062 45.75 98.800781 45.667969 95.808594 45.75 C 95.808594 47.082031 95.808594 48.417969 95.808594 49.75 C 95.480469 49.75 95.148438 49.75 94.816406 49.75 C 94.816406 48.417969 94.816406 47.082031 94.816406 45.75 C 93.675781 45.621094 92.597656 45.789062 91.578125 46.25 C 91.246094 47.75 91.246094 49.25 91.578125 50.75 C 91.769531 51.027344 92.019531 51.195312 92.328125 51.25 C 92.269531 51.558594 92.105469 51.808594 91.828125 52 C 92.925781 52.09375 93.921875 52.34375 94.816406 52.75 C 96.691406 52.105469 98.515625 52.105469 100.289062 52.75 C 98.796875 52.75 97.304688 52.75 95.808594 52.75 C 95.808594 54.417969 95.808594 56.082031 95.808594 57.75 C 95.375 57.683594 95.042969 57.851562 94.816406 58.25 C 96.042969 58.585938 97.207031 58.917969 98.300781 59.25 C 97.304688 59.25 96.308594 59.25 95.3125 59.25 C 95.230469 60.59375 95.3125 61.925781 95.5625 63.25 C 96.066406 63.667969 96.644531 63.835938 97.304688 63.75 C 96.804688 64.082031 96.308594 64.417969 95.808594 64.75 C 93.679688 64.230469 91.523438 64.148438 89.339844 64.5 C 88.914062 64.84375 88.582031 65.261719 88.34375 65.75 C 88.722656 66.679688 89.222656 67.511719 89.839844 68.25 C 89.484375 68.703125 88.988281 68.867188 88.34375 68.75 C 87.085938 67.515625 86.671875 66.015625 87.101562 64.25 C 87.730469 63.195312 88.640625 62.695312 89.839844 62.75 C 90.339844 53.921875 90.425781 45.089844 90.085938 36.25 C 89.890625 34.285156 88.894531 32.953125 87.101562 32.25 C 86.769531 31.25 86.769531 30.25 87.101562 29.25 C 88.488281 27.515625 88.652344 25.683594 87.597656 23.75 C 86.8125 21.554688 85.566406 19.71875 83.867188 18.25 C 82.644531 17.066406 81.148438 16.566406 79.386719 16.75 C 79.386719 17.25 79.386719 17.75 79.386719 18.25 C 79.386719 19.75 79.386719 21.25 79.386719 22.75 C 79.078125 22.695312 78.828125 22.527344 78.640625 22.25 C 78.621094 20.21875 78.207031 18.300781 77.394531 16.5 C 75.089844 16.996094 72.683594 17.246094 70.179688 17.25 C 68.601562 17.167969 67.027344 17.082031 65.449219 17 C 64.992188 16.859375 64.664062 16.609375 64.453125 16.25 C 64.976562 16.324219 65.476562 16.242188 65.949219 16 C 65.011719 15.144531 64.183594 14.226562 63.457031 13.25 C 63.542969 12.917969 63.625 12.582031 63.707031 12.25 C 64.050781 12.871094 64.300781 12.871094 64.453125 12.25 C 64.785156 12.417969 65.117188 12.582031 65.449219 12.75 C 66.332031 13.445312 67.328125 14.03125 68.4375 14.5 C 71.769531 14.414062 75.085938 14.496094 78.390625 14.75 C 78.859375 14.695312 79.273438 14.527344 79.632812 14.25 C 80.023438 13.304688 79.941406 12.472656 79.386719 11.75 C 76.585938 6.507812 72.4375 5.089844 66.941406 7.5 C 65.6875 8.179688 64.691406 9.097656 63.957031 10.25 C 64.128906 9.257812 63.796875 8.589844 62.960938 8.25 C 67.230469 3.242188 72.210938 2.492188 77.894531 6 C 80.417969 8.160156 81.828125 10.910156 82.125 14.25 C 86.40625 16.554688 89.226562 20.054688 90.585938 24.75 C 91.894531 24.773438 93.308594 24.855469 94.816406 25 C 98.003906 25.8125 99.414062 27.894531 99.046875 31.25 C 99.898438 31.9375 100.5625 32.773438 101.035156 33.75 C 101.628906 36.929688 102.207031 40.097656 102.777344 43.25 C 104.273438 43.125 105.519531 43.625 106.511719 44.75 C 107.175781 46.511719 107.425781 48.347656 107.257812 50.25 Z M 107.257812 50.25 "/>
</g>
<mask id="mask1">
  <g filter="url(#alpha)">
<rect x="0" y="0" width="109" height="97" style="fill:rgb(0%,0%,0%);fill-opacity:0.992157;stroke:none;"/>
  </g>
</mask>
<clipPath id="clip2">
  <rect x="0" y="0" width="109" height="97"/>
</clipPath>
<g id="surface8" clip-path="url(#clip2)">
<path style=" stroke:none;fill-rule:evenodd;fill:rgb(3.137255%,4.313725%,3.137255%);fill-opacity:1;" d="M 16.175781 14.25 C 18.355469 14.1875 20.511719 14.351562 22.644531 14.75 C 22.644531 14.917969 22.644531 15.082031 22.644531 15.25 C 17.761719 15.664062 13.28125 17.164062 9.207031 19.75 C 8.15625 20.195312 7.164062 20.777344 6.222656 21.5 C 8.875 21.667969 11.53125 21.832031 14.183594 22 C 15.820312 22.125 17.316406 22.625 18.664062 23.5 C 14.007812 24.171875 10.027344 26.171875 6.71875 29.5 C 10.753906 29.554688 14.734375 29.972656 18.664062 30.75 C 16.121094 32.621094 13.632812 34.621094 11.199219 36.75 C 8.621094 38.757812 6.628906 41.257812 5.226562 44.25 C 7.691406 44.746094 10.179688 44.914062 12.691406 44.75 C 15.882812 44.878906 19.035156 45.296875 22.148438 46 C 18.476562 46.507812 14.828125 47.09375 11.199219 47.75 C 9.863281 48.113281 8.539062 48.53125 7.21875 49 C 9.597656 49.945312 11.917969 51.027344 14.183594 52.25 C 16.144531 53.628906 18.050781 55.128906 19.910156 56.75 C 20.074219 57.96875 19.492188 58.46875 18.167969 58.25 C 13.589844 58.515625 9.109375 58.015625 4.726562 56.75 C 4.785156 56.441406 4.949219 56.191406 5.226562 56 C 4.191406 55.902344 3.195312 55.652344 2.238281 55.25 C 2.917969 55.105469 3.582031 54.941406 4.230469 54.75 C 8.0625 55.335938 11.875 56.003906 15.679688 56.75 C 16.339844 56.417969 16.339844 56.082031 15.679688 55.75 C 14.238281 54.777344 12.746094 53.945312 11.199219 53.25 C 10.042969 53.003906 9.050781 52.503906 8.210938 51.75 C 6.402344 50.671875 4.578125 49.589844 2.738281 48.5 C 4.300781 47.640625 5.960938 46.976562 7.714844 46.5 C 5.851562 46.25 4.027344 46.25 2.238281 46.5 C 4.207031 41.789062 6.863281 37.539062 10.203125 33.75 C 11.140625 33.644531 11.804688 33.144531 12.195312 32.25 C 9.023438 31.910156 5.871094 31.742188 2.738281 31.75 C 4.425781 28.800781 6.582031 26.21875 9.207031 24 C 6.71875 23.832031 4.230469 23.667969 1.742188 23.5 C 5.570312 18.90625 10.382812 15.824219 16.175781 14.25 Z M 16.175781 14.25 "/>
</g>
<mask id="mask2">
  <g filter="url(#alpha)">
<rect x="0" y="0" width="109" height="97" style="fill:rgb(0%,0%,0%);fill-opacity:0.0117647;stroke:none;"/>
  </g>
</mask>
<clipPath id="clip3">
  <rect x="0" y="0" width="109" height="97"/>
</clipPath>
<g id="surface11" clip-path="url(#clip3)">
<path style=" stroke:none;fill-rule:evenodd;fill:rgb(16.078431%,22.352941%,26.666667%);fill-opacity:1;" d="M 31.605469 -0.25 C 35.089844 -0.25 38.574219 -0.25 42.058594 -0.25 C 45.71875 0.335938 49.367188 1.253906 53.007812 2.5 C 56.136719 4.195312 59.207031 5.945312 62.214844 7.75 C 66.191406 3.210938 71.003906 2.042969 76.648438 4.25 C 78.246094 5.304688 79.738281 6.472656 81.128906 7.75 C 81.78125 9.550781 82.527344 11.300781 83.367188 13 C 84.898438 14.539062 86.640625 16.289062 88.59375 18.25 C 89.625 19.984375 90.371094 21.820312 90.832031 23.75 C 95.847656 23.160156 99 25.242188 100.289062 30 C 100.125 30.167969 99.957031 30.332031 99.792969 30.5 C 100.71875 31.277344 101.464844 32.195312 102.03125 33.25 C 102.320312 36.042969 102.984375 38.710938 104.023438 41.25 C 105.140625 42.40625 106.304688 43.574219 107.507812 44.75 C 107.925781 45.804688 108.34375 46.804688 108.75 47.75 C 108.75 47.917969 108.75 48.082031 108.75 48.25 C 108.074219 48.796875 107.578125 49.460938 107.257812 50.25 C 107.425781 48.347656 107.175781 46.511719 106.511719 44.75 C 105.519531 43.625 104.273438 43.125 102.777344 43.25 C 102.207031 40.097656 101.628906 36.929688 101.035156 33.75 C 100.5625 32.773438 99.898438 31.9375 99.046875 31.25 C 99.414062 27.894531 98.003906 25.8125 94.816406 25 C 93.308594 24.855469 91.894531 24.773438 90.585938 24.75 C 89.226562 20.054688 86.40625 16.554688 82.125 14.25 C 81.828125 10.910156 80.417969 8.160156 77.894531 6 C 72.210938 2.492188 67.230469 3.242188 62.960938 8.25 C 62.585938 8.785156 62.089844 8.871094 61.46875 8.5 C 51.902344 1.742188 41.285156 -0.757812 29.613281 1 C 22.542969 2.21875 16.238281 5.054688 10.699219 9.5 C 9.585938 10.371094 8.757812 11.453125 8.210938 12.75 C 11.183594 13.164062 14.171875 13.414062 17.171875 13.5 C 16.714844 13.640625 16.382812 13.890625 16.175781 14.25 C 10.382812 15.824219 5.570312 18.90625 1.742188 23.5 C 4.230469 23.667969 6.71875 23.832031 9.207031 24 C 6.582031 26.21875 4.425781 28.800781 2.738281 31.75 C 5.871094 31.742188 9.023438 31.910156 12.195312 32.25 C 11.804688 33.144531 11.140625 33.644531 10.203125 33.75 C 10.429688 33.269531 10.761719 32.855469 11.199219 32.5 C 10.785156 32.417969 10.367188 32.332031 9.953125 32.25 C 7.402344 32.683594 4.828125 32.851562 2.238281 32.75 C 2.175781 31.671875 2.425781 30.671875 2.984375 29.75 C 4.394531 27.835938 5.96875 26.085938 7.714844 24.5 C 5.300781 24.46875 2.980469 24.136719 0.746094 23.5 C 4.03125 19.199219 8.179688 16.03125 13.191406 14 C 11.371094 13.75 9.546875 13.667969 7.714844 13.75 C 7.652344 12.671875 7.898438 11.671875 8.460938 10.75 C 14.964844 4.441406 22.679688 0.773438 31.605469 -0.25 Z M 31.605469 -0.25 "/>
</g>
<mask id="mask3">
  <g filter="url(#alpha)">
<rect x="0" y="0" width="109" height="97" style="fill:rgb(0%,0%,0%);fill-opacity:0.996078;stroke:none;"/>
  </g>
</mask>
<clipPath id="clip4">
  <rect x="0" y="0" width="109" height="97"/>
</clipPath>
<g id="surface14" clip-path="url(#clip4)">
<path style=" stroke:none;fill-rule:evenodd;fill:rgb(3.137255%,4.313725%,3.137255%);fill-opacity:1;" d="M 62.960938 8.25 C 63.796875 8.589844 64.128906 9.257812 63.957031 10.25 C 63.921875 10.980469 64.089844 11.644531 64.453125 12.25 C 64.300781 12.871094 64.050781 12.871094 63.707031 12.25 C 63.625 12.582031 63.542969 12.917969 63.457031 13.25 C 64.183594 14.226562 65.011719 15.144531 65.949219 16 C 65.476562 16.242188 64.976562 16.324219 64.453125 16.25 C 64.289062 16.25 64.121094 16.25 63.957031 16.25 C 63 15.289062 61.757812 14.789062 60.222656 14.75 C 58.230469 14.996094 56.324219 15.328125 54.5 15.75 C 48.875 16.574219 44.5625 19.40625 41.558594 24.25 C 40.859375 24.011719 40.527344 23.511719 40.5625 22.75 C 42.210938 20.09375 44.371094 17.925781 47.035156 16.25 C 47.703125 14.949219 47.539062 13.785156 46.535156 12.75 C 46.867188 12.75 47.199219 12.75 47.53125 12.75 C 47.972656 13.636719 48.636719 14.304688 49.523438 14.75 C 53.730469 13.207031 58.042969 12.789062 62.464844 13.5 C 61.53125 12.480469 60.539062 11.5625 59.476562 10.75 C 57.425781 8.859375 55.101562 7.359375 52.507812 6.25 C 49.382812 4.675781 46.066406 3.761719 42.554688 3.5 C 38.242188 3.167969 33.925781 3.167969 29.613281 3.5 C 28 3.703125 26.507812 4.121094 25.132812 4.75 C 20.15625 5.75 15.675781 7.835938 11.695312 11 C 18.03125 11.039062 24.167969 12.121094 30.113281 14.25 C 27.71875 14.742188 25.230469 14.910156 22.644531 14.75 C 20.511719 14.351562 18.355469 14.1875 16.175781 14.25 C 16.382812 13.890625 16.714844 13.640625 17.171875 13.5 C 14.171875 13.414062 11.183594 13.164062 8.210938 12.75 C 8.757812 11.453125 9.585938 10.371094 10.699219 9.5 C 16.238281 5.054688 22.542969 2.21875 29.613281 1 C 41.285156 -0.757812 51.902344 1.742188 61.46875 8.5 C 62.089844 8.871094 62.585938 8.785156 62.960938 8.25 Z M 62.960938 8.25 "/>
</g>
<mask id="mask4">
  <g filter="url(#alpha)">
<rect x="0" y="0" width="109" height="97" style="fill:rgb(0%,0%,0%);fill-opacity:0.141176;stroke:none;"/>
  </g>
</mask>
<clipPath id="clip5">
  <rect x="0" y="0" width="109" height="97"/>
</clipPath>
<g id="surface17" clip-path="url(#clip5)">
<path style=" stroke:none;fill-rule:evenodd;fill:rgb(13.72549%,19.607843%,23.137255%);fill-opacity:1;" d="M 10.203125 33.75 C 6.863281 37.539062 4.207031 41.789062 2.238281 46.5 C 4.027344 46.25 5.851562 46.25 7.714844 46.5 C 5.960938 46.976562 4.300781 47.640625 2.738281 48.5 C 4.578125 49.589844 6.402344 50.671875 8.210938 51.75 C 6.375 51.246094 4.546875 50.664062 2.738281 50 C 2.34375 48.867188 2.011719 47.699219 1.742188 46.5 C 3.058594 42.605469 4.96875 39.019531 7.464844 35.75 C 8.1875 34.769531 9.101562 34.101562 10.203125 33.75 Z M 10.203125 33.75 "/>
</g>
<mask id="mask5">
  <g filter="url(#alpha)">
<rect x="0" y="0" width="109" height="97" style="fill:rgb(0%,0%,0%);fill-opacity:0.00392157;stroke:none;"/>
  </g>
</mask>
<clipPath id="clip6">
  <rect x="0" y="0" width="109" height="97"/>
</clipPath>
<g id="surface20" clip-path="url(#clip6)">
<path style=" stroke:none;fill-rule:evenodd;fill:rgb(19.215686%,25.098039%,28.627451%);fill-opacity:1;" d="M 107.257812 51.25 C 106.792969 52.816406 105.714844 53.652344 104.023438 53.75 C 102.625 59.035156 100.964844 64.203125 99.046875 69.25 C 98.183594 70.226562 97.105469 70.726562 95.808594 70.75 C 98.140625 69.746094 99.21875 67.910156 99.046875 65.25 C 100.113281 64.511719 100.777344 63.511719 101.035156 62.25 C 101.40625 59.179688 102.070312 56.179688 103.027344 53.25 C 103.363281 52.875 103.777344 52.707031 104.273438 52.75 C 105.488281 52.691406 106.484375 52.191406 107.257812 51.25 Z M 107.257812 51.25 "/>
</g>
<mask id="mask6">
  <g filter="url(#alpha)">
<rect x="0" y="0" width="109" height="97" style="fill:rgb(0%,0%,0%);fill-opacity:0.0196078;stroke:none;"/>
  </g>
</mask>
<clipPath id="clip7">
  <rect x="0" y="0" width="109" height="97"/>
</clipPath>
<g id="surface23" clip-path="url(#clip7)">
<path style=" stroke:none;fill-rule:evenodd;fill:rgb(14.117647%,19.607843%,23.529412%);fill-opacity:1;" d="M -0.25 53.25 C 3.761719 53.601562 7.824219 54.269531 11.945312 55.25 C 11.875 54.566406 11.625 53.902344 11.199219 53.25 C 12.746094 53.945312 14.238281 54.777344 15.679688 55.75 C 16.339844 56.082031 16.339844 56.417969 15.679688 56.75 C 11.875 56.003906 8.0625 55.335938 4.230469 54.75 C 3.003906 54.234375 1.679688 53.902344 0.25 53.75 C 0.570312 55.898438 1.316406 57.898438 2.488281 59.75 C 5.109375 63.632812 8.011719 67.300781 11.199219 70.75 C 8.300781 70.890625 5.316406 70.558594 2.238281 69.75 C 1.90625 69.917969 1.574219 70.082031 1.246094 70.25 C 1.753906 70.925781 2.25 71.59375 2.738281 72.25 C 1.105469 71.9375 0.445312 70.9375 0.746094 69.25 C 3.441406 69.410156 6.097656 69.410156 8.710938 69.25 C 5.089844 65.128906 2.101562 60.628906 -0.25 55.75 C -0.25 54.917969 -0.25 54.082031 -0.25 53.25 Z M -0.25 53.25 "/>
</g>
<mask id="mask7">
  <g filter="url(#alpha)">
<rect x="0" y="0" width="109" height="97" style="fill:rgb(0%,0%,0%);fill-opacity:0.988235;stroke:none;"/>
  </g>
</mask>
<clipPath id="clip8">
  <rect x="0" y="0" width="109" height="97"/>
</clipPath>
<g id="surface26" clip-path="url(#clip8)">
<path style=" stroke:none;fill-rule:evenodd;fill:rgb(3.137255%,3.137255%,3.137255%);fill-opacity:1;" d="M 94.816406 49.75 C 95.148438 49.75 95.480469 49.75 95.808594 49.75 C 95.808594 50.25 95.808594 50.75 95.808594 51.25 C 98.632812 51.25 101.449219 51.25 104.273438 51.25 C 103.609375 51.75 103.609375 52.25 104.273438 52.75 C 103.777344 52.707031 103.363281 52.875 103.027344 53.25 C 102.070312 56.179688 101.40625 59.179688 101.035156 62.25 C 100.777344 63.511719 100.113281 64.511719 99.046875 65.25 C 99.21875 67.910156 98.140625 69.746094 95.808594 70.75 C 93.984375 70.75 92.160156 70.75 90.335938 70.75 C 89.597656 75.738281 87.027344 79.40625 82.621094 81.75 C 81.835938 85.21875 80.261719 88.21875 77.894531 90.75 C 74.503906 92.894531 71.019531 93.226562 67.441406 91.75 C 69.691406 90.722656 72.011719 90.472656 74.410156 91 C 74.132812 90.808594 73.964844 90.558594 73.910156 90.25 C 76.839844 88.972656 78.664062 86.722656 79.386719 83.5 C 79.371094 82.964844 79.207031 82.546875 78.886719 82.25 C 78.226562 82.25 77.5625 82.25 76.898438 82.25 C 77.621094 81.847656 78.449219 81.597656 79.386719 81.5 C 79.550781 81.332031 79.71875 81.167969 79.882812 81 C 79.386719 80.832031 78.886719 80.667969 78.390625 80.5 C 78.6875 80.269531 79.019531 80.183594 79.386719 80.25 C 80.785156 80.085938 82.113281 79.671875 83.367188 79 C 86.023438 76.082031 87.683594 72.664062 88.34375 68.75 C 88.988281 68.867188 89.484375 68.703125 89.839844 68.25 C 92.160156 68.886719 94.484375 68.886719 96.804688 68.25 C 97.359375 67.636719 97.445312 66.972656 97.054688 66.25 C 96.535156 65.8125 96.121094 65.3125 95.808594 64.75 C 96.308594 64.417969 96.804688 64.082031 97.304688 63.75 C 99.320312 62.460938 99.648438 60.960938 98.300781 59.25 C 97.207031 58.917969 96.042969 58.585938 94.816406 58.25 C 95.042969 57.851562 95.375 57.683594 95.808594 57.75 C 99.878906 58.171875 101.371094 56.503906 100.289062 52.75 C 98.515625 52.105469 96.691406 52.105469 94.816406 52.75 C 93.921875 52.34375 92.925781 52.09375 91.828125 52 C 92.105469 51.808594 92.269531 51.558594 92.328125 51.25 C 93.15625 51.25 93.984375 51.25 94.816406 51.25 C 94.816406 50.75 94.816406 50.25 94.816406 49.75 Z M 94.816406 49.75 "/>
</g>
<mask id="mask8">
  <g filter="url(#alpha)">
<rect x="0" y="0" width="109" height="97" style="fill:rgb(0%,0%,0%);fill-opacity:0.992157;stroke:none;"/>
  </g>
</mask>
<clipPath id="clip9">
  <rect x="0" y="0" width="109" height="97"/>
</clipPath>
<g id="surface29" clip-path="url(#clip9)">
<path style=" stroke:none;fill-rule:evenodd;fill:rgb(3.137255%,4.705882%,3.529412%);fill-opacity:1;" d="M 4.230469 54.75 C 3.582031 54.941406 2.917969 55.105469 2.238281 55.25 C 3.195312 55.652344 4.191406 55.902344 5.226562 56 C 4.949219 56.191406 4.785156 56.441406 4.726562 56.75 C 2.699219 55.921875 2.367188 56.253906 3.734375 57.75 C 5.566406 61.179688 7.886719 64.261719 10.699219 67 C 12.902344 68.96875 15.390625 70.382812 18.167969 71.25 C 18.816406 71.617188 19.480469 72.03125 20.15625 72.5 C 16.902344 73.40625 13.585938 73.824219 10.203125 73.75 C 8.664062 73.53125 7.167969 73.28125 5.722656 73 C 12.117188 77.835938 19.25 81.085938 27.125 82.75 C 28.164062 82.929688 29.160156 83.261719 30.113281 83.75 C 25.789062 85.429688 21.3125 86.097656 16.671875 85.75 C 15.632812 85.839844 14.636719 85.675781 13.6875 85.25 C 13.519531 85.332031 13.355469 85.417969 13.191406 85.5 C 13.722656 85.925781 14.21875 86.34375 14.683594 86.75 C 13.984375 86.988281 13.652344 87.488281 13.6875 88.25 C 11.828125 86.882812 10.335938 85.21875 9.207031 83.25 C 13.339844 83.769531 17.488281 83.851562 21.652344 83.5 C 17.929688 82.046875 14.28125 80.464844 10.699219 78.75 C 8.367188 78.246094 6.542969 76.996094 5.226562 75 C 3.65625 74.769531 2.828125 73.851562 2.738281 72.25 C 2.25 71.59375 1.753906 70.925781 1.246094 70.25 C 1.574219 70.082031 1.90625 69.917969 2.238281 69.75 C 5.316406 70.558594 8.300781 70.890625 11.199219 70.75 C 8.011719 67.300781 5.109375 63.632812 2.488281 59.75 C 1.316406 57.898438 0.570312 55.898438 0.25 53.75 C 1.679688 53.902344 3.003906 54.234375 4.230469 54.75 Z M 4.230469 54.75 "/>
</g>
<mask id="mask9">
  <g filter="url(#alpha)">
<rect x="0" y="0" width="109" height="97" style="fill:rgb(0%,0%,0%);fill-opacity:0.0117647;stroke:none;"/>
  </g>
</mask>
<clipPath id="clip10">
  <rect x="0" y="0" width="109" height="97"/>
</clipPath>
<g id="surface32" clip-path="url(#clip10)">
<path style=" stroke:none;fill-rule:evenodd;fill:rgb(17.254902%,23.529412%,26.666667%);fill-opacity:1;" d="M 95.808594 70.75 C 94.554688 71.128906 93.226562 71.460938 91.828125 71.75 C 91.535156 71.644531 91.289062 71.476562 91.082031 71.25 C 90.15625 76.339844 87.503906 80.171875 83.117188 82.75 C 82.386719 84.789062 81.558594 86.789062 80.628906 88.75 C 79.90625 89.730469 78.996094 90.398438 77.894531 90.75 C 80.261719 88.21875 81.835938 85.21875 82.621094 81.75 C 87.027344 79.40625 89.597656 75.738281 90.335938 70.75 C 92.160156 70.75 93.984375 70.75 95.808594 70.75 Z M 95.808594 70.75 "/>
</g>
<mask id="mask10">
  <g filter="url(#alpha)">
<rect x="0" y="0" width="109" height="97" style="fill:rgb(0%,0%,0%);fill-opacity:0.027451;stroke:none;"/>
  </g>
</mask>
<clipPath id="clip11">
  <rect x="0" y="0" width="109" height="97"/>
</clipPath>
<g id="surface35" clip-path="url(#clip11)">
<path style=" stroke:none;fill-rule:evenodd;fill:rgb(13.333333%,18.823529%,23.921569%);fill-opacity:1;" d="M 10.699219 78.75 C 14.28125 80.464844 17.929688 82.046875 21.652344 83.5 C 17.488281 83.851562 13.339844 83.769531 9.207031 83.25 C 11.464844 83.003906 13.703125 83.003906 15.925781 83.25 C 16.300781 82.9375 16.714844 82.6875 17.171875 82.5 C 15.160156 81.632812 13.167969 80.714844 11.199219 79.75 C 10.800781 79.523438 10.636719 79.1875 10.699219 78.75 Z M 10.699219 78.75 "/>
</g>
<mask id="mask11">
  <g filter="url(#alpha)">
<rect x="0" y="0" width="109" height="97" style="fill:rgb(0%,0%,0%);fill-opacity:0.996078;stroke:none;"/>
  </g>
</mask>
<clipPath id="clip12">
  <rect x="0" y="0" width="109" height="97"/>
</clipPath>
<g id="surface38" clip-path="url(#clip12)">
<path style=" stroke:none;fill-rule:evenodd;fill:rgb(4.705882%,6.666667%,6.27451%);fill-opacity:1;" d="M 61.964844 85.25 C 61.328125 86.785156 60.496094 88.203125 59.476562 89.5 C 59.753906 89.691406 59.917969 89.941406 59.976562 90.25 C 56.988281 92.167969 53.835938 93.667969 50.519531 94.75 C 47.75 95.671875 44.929688 96.339844 42.058594 96.75 C 39.570312 96.75 37.078125 96.75 34.589844 96.75 C 30.085938 96.078125 25.605469 94.992188 21.152344 93.5 C 18.4375 92.011719 15.949219 90.261719 13.6875 88.25 C 13.652344 87.488281 13.984375 86.988281 14.683594 86.75 C 16.109375 87.714844 17.601562 88.550781 19.160156 89.25 C 26.984375 93.589844 35.28125 94.921875 44.046875 93.25 C 47.992188 92.871094 51.644531 91.707031 54.996094 89.75 C 57.644531 88.753906 59.96875 87.253906 61.964844 85.25 Z M 61.964844 85.25 "/>
</g>
<mask id="mask12">
  <g filter="url(#alpha)">
<rect x="0" y="0" width="109" height="97" style="fill:rgb(0%,0%,0%);fill-opacity:0.00784314;stroke:none;"/>
  </g>
</mask>
<clipPath id="clip13">
  <rect x="0" y="0" width="109" height="97"/>
</clipPath>
<g id="surface41" clip-path="url(#clip13)">
<path style=" stroke:none;fill-rule:evenodd;fill:rgb(16.862745%,22.745098%,26.27451%);fill-opacity:1;" d="M 67.441406 91.75 C 71.019531 93.226562 74.503906 92.894531 77.894531 90.75 C 77.855469 91.707031 77.359375 92.289062 76.398438 92.5 C 71.1875 94.199219 66.542969 93.28125 62.464844 89.75 C 58.820312 92.300781 54.839844 93.96875 50.519531 94.75 C 53.835938 93.667969 56.988281 92.167969 59.976562 90.25 C 60.917969 89.648438 61.828125 88.984375 62.710938 88.25 C 63.730469 90.214844 65.304688 91.382812 67.441406 91.75 Z M 67.441406 91.75 "/>
</g>
</defs>
<g id="surface1">
<use xlink:href="#surface5" mask="url(#mask0)"/>
<path style=" stroke:none;fill-rule:evenodd;fill:rgb(78.431373%,52.941176%,17.254902%);fill-opacity:1;" d="M 63.957031 16.25 C 64.121094 16.25 64.289062 16.25 64.453125 16.25 C 64.664062 16.609375 64.992188 16.859375 65.449219 17 C 67.027344 17.082031 68.601562 17.167969 70.179688 17.25 C 72.683594 17.246094 75.089844 16.996094 77.394531 16.5 C 78.207031 18.300781 78.621094 20.21875 78.640625 22.25 C 78.828125 22.527344 79.078125 22.695312 79.386719 22.75 C 81.769531 25.820312 82.515625 29.320312 81.625 33.25 C 79.964844 36.582031 78.308594 39.917969 76.648438 43.25 C 75.515625 43.90625 74.4375 43.90625 73.414062 43.25 C 74.242188 43.25 75.070312 43.25 75.902344 43.25 C 76.847656 41.230469 76.515625 39.480469 74.90625 38 C 75.183594 37.808594 75.347656 37.558594 75.402344 37.25 C 78.160156 34.476562 79.070312 31.144531 78.140625 27.25 C 75.875 22.902344 72.308594 21.152344 67.441406 22 C 66.199219 22.539062 65.035156 23.207031 63.957031 24 C 63.054688 25.238281 62.222656 26.488281 61.46875 27.75 C 60.621094 27.714844 59.628906 27.550781 58.480469 27.25 C 58.480469 29.25 58.480469 31.25 58.480469 33.25 C 57.878906 30.148438 57.960938 26.980469 58.730469 23.75 C 59.871094 22.753906 61.03125 21.753906 62.214844 20.75 C 62.460938 19.257812 62.546875 17.757812 62.464844 16.25 C 62.960938 16.25 63.457031 16.25 63.957031 16.25 Z M 63.957031 16.25 "/>
<use xlink:href="#surface8" mask="url(#mask1)"/>
<path style=" stroke:none;fill-rule:evenodd;fill:rgb(79.215686%,72.156863%,63.921569%);fill-opacity:1;" d="M 56.988281 31.25 C 56.503906 29.855469 56.335938 28.355469 56.492188 26.75 C 53.441406 26.660156 50.703125 27.492188 48.277344 29.25 C 47.777344 30.265625 47.527344 31.351562 47.53125 32.5 C 48.3125 36.710938 48.144531 40.875 47.035156 45 C 46.867188 45.515625 46.535156 45.765625 46.039062 45.75 C 46.855469 40.851562 46.191406 36.1875 44.046875 31.75 C 44.136719 28.996094 45.300781 26.828125 47.53125 25.25 C 50.476562 22.96875 53.792969 22.21875 57.484375 23 C 57.003906 25.703125 56.835938 28.453125 56.988281 31.25 Z M 56.988281 31.25 "/>
<path style=" stroke:none;fill-rule:evenodd;fill:rgb(40%,54.117647%,22.745098%);fill-opacity:1;" d="M 52.507812 6.25 C 55.101562 7.359375 57.425781 8.859375 59.476562 10.75 C 59.476562 11.25 59.476562 11.75 59.476562 12.25 C 57.019531 12.214844 54.695312 11.714844 52.507812 10.75 C 52.507812 11.417969 52.507812 12.082031 52.507812 12.75 C 50.8125 13.109375 49.152344 13.109375 47.53125 12.75 C 47.199219 12.75 46.867188 12.75 46.535156 12.75 C 45.066406 11.714844 43.40625 11.296875 41.558594 11.5 C 42.890625 11.917969 44.214844 12.332031 45.542969 12.75 C 45.996094 13.164062 46.328125 13.664062 46.535156 14.25 C 45.777344 15.308594 44.949219 16.308594 44.046875 17.25 C 42.195312 15.761719 41.695312 16.09375 42.554688 18.25 C 41.339844 18.058594 41.007812 18.394531 41.558594 19.25 C 40.734375 20.578125 39.902344 21.910156 39.070312 23.25 C 38.316406 22.542969 37.652344 22.628906 37.078125 23.5 C 35.253906 23.667969 33.429688 23.832031 31.605469 24 C 33.84375 24.324219 35.667969 25.40625 37.078125 27.25 C 37.554688 30.050781 37.722656 32.886719 37.578125 35.75 C 35.585938 35.082031 33.597656 34.417969 31.605469 33.75 C 31.667969 32.207031 31.167969 30.871094 30.113281 29.75 C 31.132812 29.195312 31.796875 28.359375 32.101562 27.25 C 30.007812 24.476562 27.019531 22.558594 23.144531 21.5 C 24.292969 21.167969 25.457031 20.917969 26.628906 20.75 C 28.792969 20.792969 30.949219 20.960938 33.097656 21.25 C 35.726562 21.136719 37.96875 20.136719 39.816406 18.25 C 40.425781 15.957031 40.675781 13.625 40.5625 11.25 C 40.792969 10.558594 41.292969 10.226562 42.058594 10.25 C 43.464844 10.789062 44.875 11.289062 46.289062 11.75 C 47.132812 11.316406 47.710938 10.652344 48.03125 9.75 C 49.84375 9.355469 51.667969 9.273438 53.503906 9.5 C 53.457031 8.457031 53.125 7.371094 52.507812 6.25 Z M 52.507812 6.25 "/>
<path style=" stroke:none;fill-rule:evenodd;fill:rgb(98.039216%,97.254902%,95.686275%);fill-opacity:1;" d="M 56.988281 31.25 C 57.144531 33.261719 57.230469 35.261719 57.238281 37.25 C 55.277344 37.941406 53.535156 38.941406 52.011719 40.25 C 49.40625 41.835938 48.910156 44.003906 50.519531 46.75 C 50.582031 47.121094 50.5 47.453125 50.269531 47.75 C 48.917969 47.277344 47.503906 47.113281 46.039062 47.25 C 46.039062 46.75 46.039062 46.25 46.039062 45.75 C 46.535156 45.765625 46.867188 45.515625 47.035156 45 C 48.144531 40.875 48.3125 36.710938 47.53125 32.5 C 47.527344 31.351562 47.777344 30.265625 48.277344 29.25 C 50.703125 27.492188 53.441406 26.660156 56.492188 26.75 C 56.335938 28.355469 56.503906 29.855469 56.988281 31.25 Z M 56.988281 31.25 "/>
<path style=" stroke:none;fill-rule:evenodd;fill:rgb(44.705882%,60%,27.45098%);fill-opacity:1;" d="M 32.101562 27.25 C 31.796875 28.359375 31.132812 29.195312 30.113281 29.75 C 31.167969 30.871094 31.667969 32.207031 31.605469 33.75 C 31.871094 35.117188 32.285156 36.453125 32.847656 37.75 C 36.347656 40.933594 38.335938 44.933594 38.820312 49.75 C 39.316406 52.058594 39.566406 54.390625 39.570312 56.75 C 39.207031 62.273438 36.386719 65.609375 31.105469 66.75 C 30.445312 66.75 29.78125 66.75 29.117188 66.75 C 32.128906 65.636719 34.035156 63.472656 34.839844 60.25 C 35.996094 55.1875 35.832031 50.1875 34.34375 45.25 C 32.878906 43.285156 30.972656 41.871094 28.617188 41 C 25.378906 39.980469 22.0625 39.5625 18.664062 39.75 C 17.859375 39.464844 17.027344 39.296875 16.175781 39.25 C 16.789062 38.859375 17.449219 38.609375 18.167969 38.5 C 22.324219 38.414062 26.472656 38.164062 30.609375 37.75 C 27.113281 33.914062 22.800781 32.664062 17.667969 34 C 15.496094 34.972656 13.339844 35.890625 11.199219 36.75 C 13.632812 34.621094 16.121094 32.621094 18.664062 30.75 C 20.207031 31.351562 21.699219 31.183594 23.144531 30.25 C 23.746094 29.863281 23.746094 29.445312 23.144531 29 C 26.292969 29.027344 29.28125 28.445312 32.101562 27.25 Z M 32.101562 27.25 "/>
<path style=" stroke:none;fill-rule:evenodd;fill:rgb(87.058824%,58.431373%,21.176471%);fill-opacity:1;" d="M 95.808594 32.75 C 98.941406 32.976562 99.933594 34.5625 98.796875 37.5 C 97.648438 37.75 96.484375 37.832031 95.3125 37.75 C 95.191406 36.03125 95.355469 34.363281 95.808594 32.75 Z M 95.808594 32.75 "/>
<path style=" stroke:none;fill-rule:evenodd;fill:rgb(61.960784%,77.647059%,43.137255%);fill-opacity:1;" d="M 18.664062 39.75 C 17.570312 40.082031 16.410156 40.414062 15.179688 40.75 C 16.199219 40.664062 17.195312 41.078125 18.167969 42 C 17.835938 42.167969 17.503906 42.332031 17.171875 42.5 C 13.839844 42.585938 10.523438 42.835938 7.21875 43.25 C 9.183594 43.496094 11.011719 43.996094 12.691406 44.75 C 10.179688 44.914062 7.691406 44.746094 5.226562 44.25 C 6.628906 41.257812 8.621094 38.757812 11.199219 36.75 C 13.339844 35.890625 15.496094 34.972656 17.667969 34 C 22.800781 32.664062 27.113281 33.914062 30.609375 37.75 C 26.472656 38.164062 22.324219 38.414062 18.167969 38.5 C 17.449219 38.609375 16.789062 38.859375 16.175781 39.25 C 17.027344 39.296875 17.859375 39.464844 18.664062 39.75 Z M 18.664062 39.75 "/>
<path style=" stroke:none;fill-rule:evenodd;fill:rgb(97.647059%,72.156863%,36.078431%);fill-opacity:1;" d="M 90.832031 33.25 C 91.996094 33.25 93.15625 33.25 94.316406 33.25 C 94.316406 34.75 94.316406 36.25 94.316406 37.75 C 93.320312 37.75 92.328125 37.75 91.332031 37.75 C 91.230469 36.242188 91.0625 34.742188 90.832031 33.25 Z M 90.832031 33.25 "/>
<use xlink:href="#surface11" mask="url(#mask2)"/>
<path style=" stroke:none;fill-rule:evenodd;fill:rgb(90.196078%,69.019608%,33.72549%);fill-opacity:1;" d="M 90.832031 27.25 C 92.664062 27.167969 94.492188 27.25 96.308594 27.5 C 97.503906 30.113281 96.675781 31.613281 93.820312 32 C 88.066406 33.015625 87.070312 31.429688 90.832031 27.25 Z M 90.832031 27.25 "/>
<path style=" stroke:none;fill-rule:evenodd;fill:rgb(61.568627%,77.254902%,43.529412%);fill-opacity:1;" d="M 26.628906 20.75 C 25.457031 20.917969 24.292969 21.167969 23.144531 21.5 C 27.019531 22.558594 30.007812 24.476562 32.101562 27.25 C 29.28125 28.445312 26.292969 29.027344 23.144531 29 C 23.746094 29.445312 23.746094 29.863281 23.144531 30.25 C 21.699219 31.183594 20.207031 31.351562 18.664062 30.75 C 14.734375 29.972656 10.753906 29.554688 6.71875 29.5 C 10.027344 26.171875 14.007812 24.171875 18.664062 23.5 C 17.316406 22.625 15.820312 22.125 14.183594 22 C 11.53125 21.832031 8.875 21.667969 6.222656 21.5 C 7.164062 20.777344 8.15625 20.195312 9.207031 19.75 C 14.300781 18.785156 19.441406 18.535156 24.636719 19 C 25.25 19.703125 25.914062 20.285156 26.628906 20.75 Z M 26.628906 20.75 "/>
<path style=" stroke:none;fill-rule:evenodd;fill:rgb(73.333333%,64.313725%,52.54902%);fill-opacity:1;" d="M 83.867188 18.25 C 83.03125 18.445312 82.199219 18.695312 81.375 19 C 81.8125 19.792969 82.308594 20.542969 82.871094 21.25 C 82.988281 22.59375 82.988281 23.929688 82.871094 25.25 C 82.441406 23.734375 81.53125 22.566406 80.132812 21.75 C 80.039062 20.480469 79.789062 19.316406 79.386719 18.25 C 79.386719 17.75 79.386719 17.25 79.386719 16.75 C 81.148438 16.566406 82.644531 17.066406 83.867188 18.25 Z M 83.867188 18.25 "/>
<path style=" stroke:none;fill-rule:evenodd;fill:rgb(48.627451%,63.921569%,30.196078%);fill-opacity:1;" d="M 38.074219 9.25 C 38.75 10.40625 39.578125 11.074219 40.5625 11.25 C 40.675781 13.625 40.425781 15.957031 39.816406 18.25 C 37.96875 20.136719 35.726562 21.136719 33.097656 21.25 C 30.949219 20.960938 28.792969 20.792969 26.628906 20.75 C 25.914062 20.285156 25.25 19.703125 24.636719 19 C 19.441406 18.535156 14.300781 18.785156 9.207031 19.75 C 13.28125 17.164062 17.761719 15.664062 22.644531 15.25 C 25.5625 15.410156 28.382812 15.246094 31.105469 14.75 C 33.234375 15.328125 35.390625 15.578125 37.578125 15.5 C 38.378906 13.4375 38.542969 11.355469 38.074219 9.25 Z M 38.074219 9.25 "/>
<path style=" stroke:none;fill-rule:evenodd;fill:rgb(67.45098%,62.745098%,52.54902%);fill-opacity:1;" d="M 54.5 15.75 C 56.824219 15.75 59.144531 15.75 61.46875 15.75 C 62.210938 18.652344 61.214844 20.566406 58.480469 21.5 C 55.992188 21.667969 53.503906 21.832031 51.015625 22 C 49.683594 22.335938 48.523438 22.917969 47.53125 23.75 C 45.382812 24.828125 43.808594 26.492188 42.804688 28.75 C 41.46875 27.429688 41.054688 25.929688 41.558594 24.25 C 44.5625 19.40625 48.875 16.574219 54.5 15.75 Z M 54.5 15.75 "/>
<path style=" stroke:none;fill-rule:evenodd;fill:rgb(19.215686%,27.45098%,10.980392%);fill-opacity:1;" d="M 30.113281 14.25 C 30.445312 14.417969 30.777344 14.582031 31.105469 14.75 C 28.382812 15.246094 25.5625 15.410156 22.644531 15.25 C 22.644531 15.082031 22.644531 14.917969 22.644531 14.75 C 25.230469 14.910156 27.71875 14.742188 30.113281 14.25 Z M 30.113281 14.25 "/>
<path style=" stroke:none;fill-rule:evenodd;fill:rgb(72.156863%,41.960784%,8.627451%);fill-opacity:1;" d="M 79.386719 11.75 C 79.941406 12.472656 80.023438 13.304688 79.632812 14.25 C 79.273438 14.527344 78.859375 14.695312 78.390625 14.75 C 75.085938 14.496094 71.769531 14.414062 68.4375 14.5 C 67.328125 14.03125 66.332031 13.445312 65.449219 12.75 C 70.210938 11.257812 74.855469 11.425781 79.386719 13.25 C 79.386719 12.75 79.386719 12.25 79.386719 11.75 Z M 79.386719 11.75 "/>
<path style=" stroke:none;fill-rule:evenodd;fill:rgb(61.568627%,78.431373%,40.392157%);fill-opacity:1;" d="M 25.132812 4.75 C 29.484375 6.039062 33.796875 7.539062 38.074219 9.25 C 38.542969 11.355469 38.378906 13.4375 37.578125 15.5 C 35.390625 15.578125 33.234375 15.328125 31.105469 14.75 C 30.777344 14.582031 30.445312 14.417969 30.113281 14.25 C 24.167969 12.121094 18.03125 11.039062 11.695312 11 C 15.675781 7.835938 20.15625 5.75 25.132812 4.75 Z M 25.132812 4.75 "/>
<path style=" stroke:none;fill-rule:evenodd;fill:rgb(87.45098%,58.823529%,21.176471%);fill-opacity:1;" d="M 79.386719 11.75 C 79.386719 12.25 79.386719 12.75 79.386719 13.25 C 74.855469 11.425781 70.210938 11.257812 65.449219 12.75 C 65.117188 12.582031 64.785156 12.417969 64.453125 12.25 C 64.089844 11.644531 63.921875 10.980469 63.957031 10.25 C 64.691406 9.097656 65.6875 8.179688 66.941406 7.5 C 72.4375 5.089844 76.585938 6.507812 79.386719 11.75 Z M 79.386719 11.75 "/>
<use xlink:href="#surface14" mask="url(#mask3)"/>
<path style=" stroke:none;fill-rule:evenodd;fill:rgb(31.372549%,43.137255%,22.352941%);fill-opacity:1;" d="M 59.476562 10.75 C 60.539062 11.5625 61.53125 12.480469 62.464844 13.5 C 58.042969 12.789062 53.730469 13.207031 49.523438 14.75 C 48.636719 14.304688 47.972656 13.636719 47.53125 12.75 C 49.152344 13.109375 50.8125 13.109375 52.507812 12.75 C 52.507812 12.082031 52.507812 11.417969 52.507812 10.75 C 54.695312 11.714844 57.019531 12.214844 59.476562 12.25 C 59.476562 11.75 59.476562 11.25 59.476562 10.75 Z M 59.476562 10.75 "/>
<path style=" stroke:none;fill-rule:evenodd;fill:rgb(77.647059%,89.411765%,60.392157%);fill-opacity:1;" d="M 19.660156 7.75 C 25.09375 7.304688 30.070312 8.554688 34.589844 11.5 C 35.007812 12.003906 35.171875 12.589844 35.089844 13.25 C 32.40625 11.90625 29.585938 10.820312 26.628906 10 C 23.792969 9.914062 20.972656 9.664062 18.167969 9.25 C 18.585938 8.632812 19.082031 8.132812 19.660156 7.75 Z M 19.660156 7.75 "/>
<path style=" stroke:none;fill-rule:evenodd;fill:rgb(44.705882%,60.784314%,28.627451%);fill-opacity:1;" d="M 52.507812 6.25 C 53.125 7.371094 53.457031 8.457031 53.503906 9.5 C 51.667969 9.273438 49.84375 9.355469 48.03125 9.75 C 47.710938 10.652344 47.132812 11.316406 46.289062 11.75 C 44.875 11.289062 43.464844 10.789062 42.058594 10.25 C 41.292969 10.226562 40.792969 10.558594 40.5625 11.25 C 39.578125 11.074219 38.75 10.40625 38.074219 9.25 C 33.796875 7.539062 29.484375 6.039062 25.132812 4.75 C 26.507812 4.121094 28 3.703125 29.613281 3.5 C 33.925781 3.167969 38.242188 3.167969 42.554688 3.5 C 46.066406 3.761719 49.382812 4.675781 52.507812 6.25 Z M 52.507812 6.25 "/>
<path style=" stroke:none;fill-rule:evenodd;fill:rgb(64.313725%,61.960784%,49.803922%);fill-opacity:1;" d="M 41.558594 30.25 C 44.179688 35.417969 45.34375 40.917969 45.042969 46.75 C 43.902344 46.878906 42.824219 46.710938 41.808594 46.25 C 41.640625 44.082031 41.476562 41.917969 41.308594 39.75 C 40.980469 39.082031 40.648438 38.417969 40.316406 37.75 C 40.066406 34.921875 39.984375 32.089844 40.066406 29.25 C 40 28.878906 40.082031 28.546875 40.316406 28.25 C 40.859375 28.847656 41.273438 29.511719 41.558594 30.25 Z M 41.558594 30.25 "/>
<path style=" stroke:none;fill-rule:evenodd;fill:rgb(34.509804%,45.882353%,21.176471%);fill-opacity:1;" d="M 46.535156 12.75 C 47.539062 13.785156 47.703125 14.949219 47.035156 16.25 C 44.371094 17.925781 42.210938 20.09375 40.5625 22.75 C 39.734375 23.746094 39.15625 24.914062 38.820312 26.25 C 38.683594 29.761719 38.433594 33.261719 38.074219 36.75 C 38.640625 38.226562 39.222656 39.726562 39.816406 41.25 C 40.226562 46.503906 40.144531 51.671875 39.570312 56.75 C 39.566406 54.390625 39.316406 52.058594 38.820312 49.75 C 38.335938 44.933594 36.347656 40.933594 32.847656 37.75 C 32.285156 36.453125 31.871094 35.117188 31.605469 33.75 C 33.597656 34.417969 35.585938 35.082031 37.578125 35.75 C 37.722656 32.886719 37.554688 30.050781 37.078125 27.25 C 35.667969 25.40625 33.84375 24.324219 31.605469 24 C 33.429688 23.832031 35.253906 23.667969 37.078125 23.5 C 37.652344 22.628906 38.316406 22.542969 39.070312 23.25 C 39.902344 21.910156 40.734375 20.578125 41.558594 19.25 C 41.007812 18.394531 41.339844 18.058594 42.554688 18.25 C 41.695312 16.09375 42.195312 15.761719 44.046875 17.25 C 44.949219 16.308594 45.777344 15.308594 46.535156 14.25 C 46.328125 13.664062 45.996094 13.164062 45.542969 12.75 C 44.214844 12.332031 42.890625 11.917969 41.558594 11.5 C 43.40625 11.296875 45.066406 11.714844 46.535156 12.75 Z M 46.535156 12.75 "/>
<path style=" stroke:none;fill-rule:evenodd;fill:rgb(60.784314%,79.215686%,41.176471%);fill-opacity:1;" d="M 18.664062 39.75 C 22.0625 39.5625 25.378906 39.980469 28.617188 41 C 30.972656 41.871094 32.878906 43.285156 34.34375 45.25 C 35.832031 50.1875 35.996094 55.1875 34.839844 60.25 C 34.035156 63.472656 32.128906 65.636719 29.117188 66.75 C 27.125 66.75 25.132812 66.75 23.144531 66.75 C 22.195312 66.246094 21.203125 66.160156 20.15625 66.5 C 20.820312 66.667969 21.484375 66.832031 22.148438 67 C 18.042969 67.710938 14.390625 66.628906 11.199219 63.75 C 10.898438 63.8125 10.730469 63.976562 10.699219 64.25 C 9.558594 63.730469 9.0625 62.980469 9.207031 62 C 12.71875 61.894531 16.203125 61.5625 19.660156 61 C 21.90625 60.410156 23.566406 59.078125 24.636719 57 C 20.71875 53.78125 16.40625 51.199219 11.695312 49.25 C 11.253906 48.835938 11.089844 48.335938 11.199219 47.75 C 14.828125 47.09375 18.476562 46.507812 22.148438 46 C 19.035156 45.296875 15.882812 44.878906 12.691406 44.75 C 11.011719 43.996094 9.183594 43.496094 7.21875 43.25 C 10.523438 42.835938 13.839844 42.585938 17.171875 42.5 C 17.503906 42.332031 17.835938 42.167969 18.167969 42 C 17.195312 41.078125 16.199219 40.664062 15.179688 40.75 C 16.410156 40.414062 17.570312 40.082031 18.664062 39.75 Z M 18.664062 39.75 "/>
<path style=" stroke:none;fill-rule:evenodd;fill:rgb(96.078431%,80.784314%,44.705882%);fill-opacity:1;" d="M 91.332031 39.25 C 92.492188 39.25 93.652344 39.25 94.816406 39.25 C 94.816406 40.75 94.816406 42.25 94.816406 43.75 C 93.652344 43.75 92.492188 43.75 91.332031 43.75 C 91.332031 42.25 91.332031 40.75 91.332031 39.25 Z M 91.332031 39.25 "/>
<path style=" stroke:none;fill-rule:evenodd;fill:rgb(98.431373%,76.078431%,37.254902%);fill-opacity:1;" d="M 95.808594 39.25 C 99.773438 38.316406 101.269531 39.734375 100.289062 43.5 C 98.804688 43.75 97.3125 43.832031 95.808594 43.75 C 95.808594 42.25 95.808594 40.75 95.808594 39.25 Z M 95.808594 39.25 "/>
<path style=" stroke:none;fill-rule:evenodd;fill:rgb(17.647059%,11.764706%,9.019608%);fill-opacity:1;" d="M 58.980469 40.25 C 61.324219 44.015625 64.808594 45.847656 69.429688 45.75 C 68.6875 47.925781 69.019531 49.925781 70.425781 51.75 C 66.566406 50.964844 63.414062 52.214844 60.96875 55.5 C 59.871094 55.59375 58.875 55.84375 57.984375 56.25 C 57.652344 56.082031 57.320312 55.917969 56.988281 55.75 C 57.871094 53.511719 58.535156 51.175781 58.980469 48.75 C 58.894531 48.082031 58.8125 47.417969 58.730469 46.75 C 57.777344 45.625 57.03125 44.375 56.492188 43 C 57.171875 41.878906 58 40.964844 58.980469 40.25 Z M 58.980469 40.25 "/>
<path style=" stroke:none;fill-rule:evenodd;fill:rgb(73.72549%,69.019608%,62.745098%);fill-opacity:1;" d="M 83.367188 44.25 C 80.839844 45.042969 78.351562 46.042969 75.902344 47.25 C 75.140625 45.988281 73.980469 45.488281 72.417969 45.75 C 74.441406 45.488281 76.433594 44.902344 78.390625 44 C 79.0625 43.140625 79.644531 42.222656 80.132812 41.25 C 82.234375 42.300781 84.058594 41.800781 85.605469 39.75 C 86.179688 38.304688 86.429688 36.804688 86.355469 35.25 C 86.800781 34.699219 87.214844 34.699219 87.597656 35.25 C 87.8125 37.921875 87.730469 40.589844 87.347656 43.25 C 85.917969 43.402344 84.59375 43.734375 83.367188 44.25 Z M 83.367188 44.25 "/>
<path style=" stroke:none;fill-rule:evenodd;fill:rgb(8.235294%,5.882353%,4.705882%);fill-opacity:1;" d="M 63.957031 16.25 C 63.457031 16.25 62.960938 16.25 62.464844 16.25 C 62.546875 17.757812 62.460938 19.257812 62.214844 20.75 C 61.03125 21.753906 59.871094 22.753906 58.730469 23.75 C 57.960938 26.980469 57.878906 30.148438 58.480469 33.25 C 59.851562 41.78125 64.828125 45.117188 73.414062 43.25 C 74.4375 43.90625 75.515625 43.90625 76.648438 43.25 C 78.308594 39.917969 79.964844 36.582031 81.625 33.25 C 82.515625 29.320312 81.769531 25.820312 79.386719 22.75 C 79.386719 21.25 79.386719 19.75 79.386719 18.25 C 79.789062 19.316406 80.039062 20.480469 80.132812 21.75 C 81.53125 22.566406 82.441406 23.734375 82.871094 25.25 C 82.945312 29.050781 84.105469 32.382812 86.355469 35.25 C 86.429688 36.804688 86.179688 38.304688 85.605469 39.75 C 84.058594 41.800781 82.234375 42.300781 80.132812 41.25 C 79.644531 42.222656 79.0625 43.140625 78.390625 44 C 76.433594 44.902344 74.441406 45.488281 72.417969 45.75 C 70.609375 47.261719 70.441406 49.011719 71.921875 51 C 74.957031 51.191406 77.613281 52.273438 79.882812 54.25 C 86.714844 55.164062 88.207031 58.496094 84.363281 64.25 C 83.660156 67.34375 82.832031 70.511719 81.875 73.75 C 81.230469 74.648438 80.484375 75.480469 79.632812 76.25 C 79.386719 77.574219 79.304688 78.90625 79.386719 80.25 C 79.019531 80.183594 78.6875 80.269531 78.390625 80.5 C 78.886719 80.667969 79.386719 80.832031 79.882812 81 C 79.71875 81.167969 79.550781 81.332031 79.386719 81.5 C 78.449219 81.597656 77.621094 81.847656 76.898438 82.25 C 73.75 81.992188 70.597656 81.828125 67.441406 81.75 C 68.835938 81.339844 70.328125 81.089844 71.921875 81 C 70.425781 80.464844 68.933594 80.046875 67.441406 79.75 C 70.957031 79.582031 74.273438 80 77.394531 81 C 77.871094 79.136719 78.039062 77.21875 77.894531 75.25 C 79.621094 74.179688 80.78125 72.679688 81.375 70.75 C 82.601562 66.164062 81.6875 62 78.640625 58.25 C 78.496094 56.382812 77.75 54.882812 76.398438 53.75 C 75.925781 53.425781 75.347656 53.257812 74.65625 53.25 C 71.429688 53.59375 68.195312 53.84375 64.953125 54 C 63.710938 54.664062 62.714844 55.582031 61.964844 56.75 C 59.078125 59.308594 57.75 62.558594 57.984375 66.5 C 57.949219 69.15625 58.363281 71.742188 59.226562 74.25 C 60.171875 74.566406 61 75.066406 61.71875 75.75 C 62.347656 77.242188 62.929688 78.742188 63.457031 80.25 C 63.125 80.25 62.796875 80.25 62.464844 80.25 C 61.636719 79.253906 61.054688 78.085938 60.722656 76.75 C 59.410156 76.261719 58.414062 75.429688 57.734375 74.25 C 56.886719 69.753906 56.804688 65.253906 57.484375 60.75 C 55.707031 59.820312 53.882812 58.988281 52.011719 58.25 C 51.570312 57.835938 51.40625 57.335938 51.515625 56.75 C 53.039062 57.011719 54.535156 57.425781 55.992188 58 C 56.90625 58.25 57.484375 58.832031 57.734375 59.75 C 58.441406 58.832031 59.023438 57.832031 59.476562 56.75 C 59.066406 56.308594 58.570312 56.140625 57.984375 56.25 C 58.875 55.84375 59.871094 55.59375 60.96875 55.5 C 63.414062 52.214844 66.566406 50.964844 70.425781 51.75 C 69.019531 49.925781 68.6875 47.925781 69.429688 45.75 C 64.808594 45.847656 61.324219 44.015625 58.980469 40.25 C 58.800781 39.566406 58.386719 39.066406 57.734375 38.75 C 55.949219 40.160156 54.042969 40.660156 52.011719 40.25 C 53.535156 38.941406 55.277344 37.941406 57.238281 37.25 C 57.230469 35.261719 57.144531 33.261719 56.988281 31.25 C 56.835938 28.453125 57.003906 25.703125 57.484375 23 C 53.792969 22.21875 50.476562 22.96875 47.53125 25.25 C 47.53125 24.75 47.53125 24.25 47.53125 23.75 C 48.523438 22.917969 49.683594 22.335938 51.015625 22 C 53.503906 21.832031 55.992188 21.667969 58.480469 21.5 C 61.214844 20.566406 62.210938 18.652344 61.46875 15.75 C 59.144531 15.75 56.824219 15.75 54.5 15.75 C 56.324219 15.328125 58.230469 14.996094 60.222656 14.75 C 61.757812 14.789062 63 15.289062 63.957031 16.25 Z M 63.957031 16.25 "/>
<path style=" stroke:none;fill-rule:evenodd;fill:rgb(98.823529%,83.921569%,44.705882%);fill-opacity:1;" d="M 61.46875 27.75 C 61.855469 37.117188 66.5 40.28125 75.402344 37.25 C 75.347656 37.558594 75.183594 37.808594 74.90625 38 C 76.515625 39.480469 76.847656 41.230469 75.902344 43.25 C 75.070312 43.25 74.242188 43.25 73.414062 43.25 C 64.828125 45.117188 59.851562 41.78125 58.480469 33.25 C 58.480469 31.25 58.480469 29.25 58.480469 27.25 C 59.628906 27.550781 60.621094 27.714844 61.46875 27.75 Z M 61.46875 27.75 "/>
<path style=" stroke:none;fill-rule:evenodd;fill:rgb(85.882353%,75.294118%,66.666667%);fill-opacity:1;" d="M 83.367188 34.75 C 85.386719 36.617188 85.300781 38.453125 83.117188 40.25 C 82.179688 40.070312 81.765625 39.484375 81.875 38.5 C 82.167969 37.160156 82.667969 35.910156 83.367188 34.75 Z M 83.367188 34.75 "/>
<path style=" stroke:none;fill-rule:evenodd;fill:rgb(1.960784%,1.176471%,0.784314%);fill-opacity:1;" d="M 75.402344 37.25 C 66.5 40.28125 61.855469 37.117188 61.46875 27.75 C 62.222656 26.488281 63.054688 25.238281 63.957031 24 C 65.035156 23.207031 66.199219 22.539062 67.441406 22 C 72.308594 21.152344 75.875 22.902344 78.140625 27.25 C 79.070312 31.144531 78.160156 34.476562 75.402344 37.25 Z M 75.402344 37.25 "/>
<path style=" stroke:none;fill-rule:evenodd;fill:rgb(4.705882%,3.921569%,3.529412%);fill-opacity:1;" d="M 83.367188 44.25 C 84.363281 44.25 85.359375 44.25 86.355469 44.25 C 86.433594 45.097656 86.351562 45.933594 86.105469 46.75 C 85.152344 47.269531 84.238281 47.855469 83.367188 48.5 C 85.851562 48.644531 86.679688 49.808594 85.855469 52 C 82.296875 52.671875 79.0625 51.921875 76.152344 49.75 C 75.90625 48.933594 75.820312 48.097656 75.902344 47.25 C 78.351562 46.042969 80.839844 45.042969 83.367188 44.25 Z M 83.367188 44.25 "/>
<path style=" stroke:none;fill-rule:evenodd;fill:rgb(12.941176%,10.196078%,9.411765%);fill-opacity:1;" d="M 40.066406 29.25 C 39.984375 32.089844 40.066406 34.921875 40.316406 37.75 C 40.648438 38.417969 40.980469 39.082031 41.308594 39.75 C 41.476562 41.917969 41.640625 44.082031 41.808594 46.25 C 42.824219 46.710938 43.902344 46.878906 45.042969 46.75 C 45.34375 40.917969 44.179688 35.417969 41.558594 30.25 C 42.222656 30.25 42.886719 30.25 43.550781 30.25 C 43.433594 30.894531 43.597656 31.394531 44.046875 31.75 C 46.191406 36.1875 46.855469 40.851562 46.039062 45.75 C 46.039062 46.25 46.039062 46.75 46.039062 47.25 C 47.503906 47.113281 48.917969 47.277344 50.269531 47.75 C 50.5 47.453125 50.582031 47.121094 50.519531 46.75 C 50.519531 46.417969 50.683594 46.25 51.015625 46.25 C 50.832031 47.808594 50.832031 49.308594 51.015625 50.75 C 52.8125 51.246094 54.636719 51.410156 56.492188 51.25 C 55.644531 52.398438 55.3125 53.734375 55.496094 55.25 C 54.039062 55.691406 52.546875 55.523438 51.015625 54.75 C 50.53125 53.628906 50.363281 52.460938 50.519531 51.25 C 49.023438 51.25 47.53125 51.25 46.039062 51.25 C 45.84375 57.148438 44.847656 62.898438 43.050781 68.5 C 43.359375 71.277344 44.683594 73.445312 47.035156 75 C 46.703125 75.332031 46.371094 75.332031 46.039062 75 C 44.417969 73.625 43.09375 72.042969 42.058594 70.25 C 42.523438 69.714844 42.6875 69.050781 42.554688 68.25 C 41.699219 68.316406 40.871094 68.480469 40.066406 68.75 C 43.359375 63.550781 44.683594 57.886719 44.046875 51.75 C 43.707031 51.929688 43.375 52.097656 43.050781 52.25 C 42.429688 52.289062 42.015625 52.621094 41.808594 53.25 C 41.703125 56.363281 41.121094 59.363281 40.066406 62.25 C 39.871094 63.140625 39.539062 63.976562 39.070312 64.75 C 38.679688 62.992188 39.09375 61.324219 40.316406 59.75 C 40.90625 53.265625 40.90625 46.765625 40.316406 40.25 C 39.996094 38.945312 39.417969 37.777344 38.574219 36.75 C 38.941406 33.929688 39.191406 31.097656 39.320312 28.25 C 39.457031 28.707031 39.707031 29.042969 40.066406 29.25 Z M 40.066406 29.25 "/>
<path style=" stroke:none;fill-rule:evenodd;fill:rgb(10.196078%,7.45098%,7.058824%);fill-opacity:1;" d="M 51.015625 46.25 C 52.847656 46.167969 54.671875 46.25 56.492188 46.5 C 58.398438 48.1875 58.398438 49.773438 56.492188 51.25 C 54.636719 51.410156 52.8125 51.246094 51.015625 50.75 C 50.832031 49.308594 50.832031 47.808594 51.015625 46.25 Z M 51.015625 46.25 "/>
<path style=" stroke:none;fill-rule:evenodd;fill:rgb(98.823529%,84.313725%,41.176471%);fill-opacity:1;" d="M 104.273438 51.25 C 101.449219 51.25 98.632812 51.25 95.808594 51.25 C 95.808594 50.75 95.808594 50.25 95.808594 49.75 C 95.808594 48.417969 95.808594 47.082031 95.808594 45.75 C 98.800781 45.667969 101.789062 45.75 104.769531 46 C 105.324219 47.535156 105.410156 49.121094 105.019531 50.75 C 104.828125 51.027344 104.578125 51.195312 104.273438 51.25 Z M 104.273438 51.25 "/>
<path style=" stroke:none;fill-rule:evenodd;fill:rgb(94.901961%,93.333333%,91.764706%);fill-opacity:1;" d="M 83.867188 18.25 C 85.566406 19.71875 86.8125 21.554688 87.597656 23.75 C 88.652344 25.683594 88.488281 27.515625 87.101562 29.25 C 86.769531 30.25 86.769531 31.25 87.101562 32.25 C 88.894531 32.953125 89.890625 34.285156 90.085938 36.25 C 90.425781 45.089844 90.339844 53.921875 89.839844 62.75 C 88.640625 62.695312 87.730469 63.195312 87.101562 64.25 C 86.671875 66.015625 87.085938 67.515625 88.34375 68.75 C 87.683594 72.664062 86.023438 76.082031 83.367188 79 C 82.113281 79.671875 80.785156 80.085938 79.386719 80.25 C 79.304688 78.90625 79.386719 77.574219 79.632812 76.25 C 80.484375 75.480469 81.230469 74.648438 81.875 73.75 C 82.488281 73.859375 82.988281 74.195312 83.367188 74.75 C 84.191406 71.304688 84.523438 67.804688 84.363281 64.25 C 88.207031 58.496094 86.714844 55.164062 79.882812 54.25 C 77.613281 52.273438 74.957031 51.191406 71.921875 51 C 70.441406 49.011719 70.609375 47.261719 72.417969 45.75 C 73.980469 45.488281 75.140625 45.988281 75.902344 47.25 C 75.820312 48.097656 75.90625 48.933594 76.152344 49.75 C 79.0625 51.921875 82.296875 52.671875 85.855469 52 C 86.679688 49.808594 85.851562 48.644531 83.367188 48.5 C 84.238281 47.855469 85.152344 47.269531 86.105469 46.75 C 86.351562 45.933594 86.433594 45.097656 86.355469 44.25 C 85.359375 44.25 84.363281 44.25 83.367188 44.25 C 84.59375 43.734375 85.917969 43.402344 87.347656 43.25 C 87.730469 40.589844 87.8125 37.921875 87.597656 35.25 C 87.214844 34.699219 86.800781 34.699219 86.355469 35.25 C 84.105469 32.382812 82.945312 29.050781 82.871094 25.25 C 82.988281 23.929688 82.988281 22.59375 82.871094 21.25 C 82.308594 20.542969 81.8125 19.792969 81.375 19 C 82.199219 18.695312 83.03125 18.445312 83.867188 18.25 Z M 83.867188 18.25 "/>
<path style=" stroke:none;fill-rule:evenodd;fill:rgb(93.333333%,80.392157%,45.098039%);fill-opacity:1;" d="M 94.816406 49.75 C 94.816406 50.25 94.816406 50.75 94.816406 51.25 C 93.984375 51.25 93.15625 51.25 92.328125 51.25 C 92.019531 51.195312 91.769531 51.027344 91.578125 50.75 C 91.246094 49.25 91.246094 47.75 91.578125 46.25 C 92.597656 45.789062 93.675781 45.621094 94.816406 45.75 C 94.816406 47.082031 94.816406 48.417969 94.816406 49.75 Z M 94.816406 49.75 "/>
<path style=" stroke:none;fill-rule:evenodd;fill:rgb(89.803922%,85.098039%,80.392157%);fill-opacity:1;" d="M 58.980469 40.25 C 58 40.964844 57.171875 41.878906 56.492188 43 C 57.03125 44.375 57.777344 45.625 58.730469 46.75 C 58.8125 47.417969 58.894531 48.082031 58.980469 48.75 C 58.535156 51.175781 57.871094 53.511719 56.988281 55.75 C 56.628906 55.539062 56.378906 55.207031 56.242188 54.75 C 56.050781 55.027344 55.800781 55.195312 55.496094 55.25 C 55.3125 53.734375 55.644531 52.398438 56.492188 51.25 C 58.398438 49.773438 58.398438 48.1875 56.492188 46.5 C 54.671875 46.25 52.847656 46.167969 51.015625 46.25 C 50.683594 46.25 50.519531 46.417969 50.519531 46.75 C 48.910156 44.003906 49.40625 41.835938 52.011719 40.25 C 54.042969 40.660156 55.949219 40.160156 57.734375 38.75 C 58.386719 39.066406 58.800781 39.566406 58.980469 40.25 Z M 58.980469 40.25 "/>
<path style=" stroke:none;fill-rule:evenodd;fill:rgb(14.117647%,9.803922%,8.235294%);fill-opacity:1;" d="M 53.007812 41.75 C 53.835938 41.75 54.664062 41.75 55.496094 41.75 C 55.847656 45.417969 54.191406 46.753906 50.519531 45.75 C 50.519531 44.75 50.519531 43.75 50.519531 42.75 C 51.539062 42.800781 52.371094 42.464844 53.007812 41.75 Z M 53.007812 41.75 "/>
<use xlink:href="#surface17" mask="url(#mask4)"/>
<path style=" stroke:none;fill-rule:evenodd;fill:rgb(97.254902%,96.470588%,95.686275%);fill-opacity:1;" d="M 55.496094 55.25 C 55.800781 55.195312 56.050781 55.027344 56.242188 54.75 C 56.378906 55.207031 56.628906 55.539062 56.988281 55.75 C 57.320312 55.917969 57.652344 56.082031 57.984375 56.25 C 58.570312 56.140625 59.066406 56.308594 59.476562 56.75 C 59.023438 57.832031 58.441406 58.832031 57.734375 59.75 C 57.484375 58.832031 56.90625 58.25 55.992188 58 C 54.535156 57.425781 53.039062 57.011719 51.515625 56.75 C 51.40625 57.335938 51.570312 57.835938 52.011719 58.25 C 53.882812 58.988281 55.707031 59.820312 57.484375 60.75 C 56.804688 65.253906 56.886719 69.753906 57.734375 74.25 C 58.414062 75.429688 59.410156 76.261719 60.722656 76.75 C 61.054688 78.085938 61.636719 79.253906 62.464844 80.25 C 62.519531 80.558594 62.683594 80.808594 62.960938 81 C 56.867188 82.285156 51.0625 81.453125 45.542969 78.5 C 43.304688 76.753906 41.644531 74.589844 40.5625 72 C 40.910156 71.054688 41.324219 70.136719 41.808594 69.25 C 42.039062 69.546875 42.121094 69.878906 42.058594 70.25 C 43.09375 72.042969 44.417969 73.625 46.039062 75 C 46.371094 75.332031 46.703125 75.332031 47.035156 75 C 44.683594 73.445312 43.359375 71.277344 43.050781 68.5 C 44.847656 62.898438 45.84375 57.148438 46.039062 51.25 C 47.53125 51.25 49.023438 51.25 50.519531 51.25 C 50.363281 52.460938 50.53125 53.628906 51.015625 54.75 C 52.546875 55.523438 54.039062 55.691406 55.496094 55.25 Z M 55.496094 55.25 "/>
<path style=" stroke:none;fill-rule:evenodd;fill:rgb(98.039216%,85.882353%,51.372549%);fill-opacity:1;" d="M 94.816406 52.75 C 94.816406 54.25 94.816406 55.75 94.816406 57.25 C 93.652344 57.25 92.492188 57.25 91.332031 57.25 C 91.332031 55.75 91.332031 54.25 91.332031 52.75 C 92.492188 52.75 93.652344 52.75 94.816406 52.75 Z M 94.816406 52.75 "/>
<path style=" stroke:none;fill-rule:evenodd;fill:rgb(84.313725%,56.078431%,19.607843%);fill-opacity:1;" d="M 76.398438 53.75 C 76.152344 55.242188 75.902344 56.742188 75.652344 58.25 C 74.863281 57.8125 74.367188 57.144531 74.160156 56.25 C 71.925781 57.121094 69.6875 57.789062 67.441406 58.25 C 66.585938 58.652344 65.753906 59.152344 64.953125 59.75 C 64.417969 58.859375 63.589844 58.273438 62.464844 58 C 62.089844 57.664062 61.921875 57.246094 61.964844 56.75 C 62.714844 55.582031 63.710938 54.664062 64.953125 54 C 68.195312 53.84375 71.429688 53.59375 74.65625 53.25 C 75.347656 53.257812 75.925781 53.425781 76.398438 53.75 Z M 76.398438 53.75 "/>
<path style=" stroke:none;fill-rule:evenodd;fill:rgb(96.862745%,80%,42.745098%);fill-opacity:1;" d="M 100.289062 52.75 C 101.371094 56.503906 99.878906 58.171875 95.808594 57.75 C 95.808594 56.082031 95.808594 54.417969 95.808594 52.75 C 97.304688 52.75 98.796875 52.75 100.289062 52.75 Z M 100.289062 52.75 "/>
<path style=" stroke:none;fill-rule:evenodd;fill:rgb(36.862745%,51.372549%,30.588235%);fill-opacity:1;" d="M 4.726562 56.75 C 9.109375 58.015625 13.589844 58.515625 18.167969 58.25 C 15.109375 58.746094 11.957031 58.910156 8.710938 58.75 C 7.167969 58.59375 5.757812 58.09375 4.480469 57.25 C 4.097656 57.285156 3.851562 57.453125 3.734375 57.75 C 2.367188 56.253906 2.699219 55.921875 4.726562 56.75 Z M 4.726562 56.75 "/>
<path style=" stroke:none;fill-rule:evenodd;fill:rgb(92.156863%,89.019608%,83.921569%);fill-opacity:1;" d="M 40.066406 68.75 C 40.035156 69.023438 39.871094 69.1875 39.570312 69.25 C 39.078125 67.785156 38.914062 66.285156 39.070312 64.75 C 39.539062 63.976562 39.871094 63.140625 40.066406 62.25 C 40.5625 62.292969 40.976562 62.125 41.308594 61.75 C 42.605469 58.710938 43.1875 55.546875 43.050781 52.25 C 43.375 52.097656 43.707031 51.929688 44.046875 51.75 C 44.683594 57.886719 43.359375 63.550781 40.066406 68.75 Z M 40.066406 68.75 "/>
<path style=" stroke:none;fill-rule:evenodd;fill:rgb(65.098039%,68.627451%,60%);fill-opacity:1;" d="M 81.875 56.25 C 85.851562 57.5625 86.351562 59.730469 83.367188 62.75 C 82.632812 60.636719 82.136719 58.46875 81.875 56.25 Z M 81.875 56.25 "/>
<path style=" stroke:none;fill-rule:evenodd;fill:rgb(81.568627%,70.196078%,56.470588%);fill-opacity:1;" d="M 43.050781 52.25 C 43.1875 55.546875 42.605469 58.710938 41.308594 61.75 C 40.976562 62.125 40.5625 62.292969 40.066406 62.25 C 41.121094 59.363281 41.703125 56.363281 41.808594 53.25 C 42.015625 52.621094 42.429688 52.289062 43.050781 52.25 Z M 43.050781 52.25 "/>
<path style=" stroke:none;fill-rule:evenodd;fill:rgb(2.352941%,1.568627%,1.176471%);fill-opacity:1;" d="M 67.441406 58.25 C 75.421875 57.761719 78.902344 61.429688 77.894531 69.25 C 77.089844 71.554688 75.597656 73.222656 73.414062 74.25 C 65.421875 75.621094 61.523438 72.289062 61.71875 64.25 C 62.535156 62.519531 63.613281 61.019531 64.953125 59.75 C 65.753906 59.152344 66.585938 58.652344 67.441406 58.25 Z M 67.441406 58.25 "/>
<path style=" stroke:none;fill-rule:evenodd;fill:rgb(53.333333%,72.54902%,36.470588%);fill-opacity:1;" d="M 14.183594 52.25 C 17.082031 53.203125 19.902344 54.453125 22.644531 56 C 23.121094 56.359375 23.203125 56.777344 22.894531 57.25 C 21.574219 59.371094 19.667969 60.289062 17.171875 60 C 14.15625 60.5 11.335938 60.082031 8.710938 58.75 C 11.957031 58.910156 15.109375 58.746094 18.167969 58.25 C 19.492188 58.46875 20.074219 57.96875 19.910156 56.75 C 18.050781 55.128906 16.144531 53.628906 14.183594 52.25 Z M 14.183594 52.25 "/>
<path style=" stroke:none;fill-rule:evenodd;fill:rgb(75.294118%,87.45098%,59.607843%);fill-opacity:1;" d="M 11.199219 47.75 C 11.089844 48.335938 11.253906 48.835938 11.695312 49.25 C 16.40625 51.199219 20.71875 53.78125 24.636719 57 C 23.566406 59.078125 21.90625 60.410156 19.660156 61 C 16.203125 61.5625 12.71875 61.894531 9.207031 62 C 9.0625 62.980469 9.558594 63.730469 10.699219 64.25 C 13.015625 65.914062 15.503906 67.332031 18.167969 68.5 C 18.484375 69.351562 18.484375 70.269531 18.167969 71.25 C 15.390625 70.382812 12.902344 68.96875 10.699219 67 C 7.886719 64.261719 5.566406 61.179688 3.734375 57.75 C 3.851562 57.453125 4.097656 57.285156 4.480469 57.25 C 5.757812 58.09375 7.167969 58.59375 8.710938 58.75 C 11.335938 60.082031 14.15625 60.5 17.171875 60 C 19.667969 60.289062 21.574219 59.371094 22.894531 57.25 C 23.203125 56.777344 23.121094 56.359375 22.644531 56 C 19.902344 54.453125 17.082031 53.203125 14.183594 52.25 C 11.917969 51.027344 9.597656 49.945312 7.21875 49 C 8.539062 48.53125 9.863281 48.113281 11.199219 47.75 Z M 11.199219 47.75 "/>
<path style=" stroke:none;fill-rule:evenodd;fill:rgb(96.078431%,76.862745%,37.647059%);fill-opacity:1;" d="M 98.300781 59.25 C 99.648438 60.960938 99.320312 62.460938 97.304688 63.75 C 96.644531 63.835938 96.066406 63.667969 95.5625 63.25 C 95.3125 61.925781 95.230469 60.59375 95.3125 59.25 C 96.308594 59.25 97.304688 59.25 98.300781 59.25 Z M 98.300781 59.25 "/>
<path style=" stroke:none;fill-rule:evenodd;fill:rgb(75.686275%,50.588235%,20.784314%);fill-opacity:1;" d="M 76.398438 53.75 C 77.75 54.882812 78.496094 56.382812 78.640625 58.25 C 81.6875 62 82.601562 66.164062 81.375 70.75 C 81.457031 68.910156 81.375 67.074219 81.128906 65.25 C 79.980469 66.53125 78.902344 67.867188 77.894531 69.25 C 78.902344 61.429688 75.421875 57.761719 67.441406 58.25 C 69.6875 57.789062 71.925781 57.121094 74.160156 56.25 C 74.367188 57.144531 74.863281 57.8125 75.652344 58.25 C 75.902344 56.742188 76.152344 55.242188 76.398438 53.75 Z M 76.398438 53.75 "/>
<use xlink:href="#surface20" mask="url(#mask5)"/>
<path style=" stroke:none;fill-rule:evenodd;fill:rgb(93.333333%,77.254902%,42.745098%);fill-opacity:1;" d="M 90.832031 58.75 C 91.996094 58.75 93.15625 58.75 94.316406 58.75 C 94.398438 60.257812 94.316406 61.757812 94.070312 63.25 C 93.050781 62.789062 91.972656 62.621094 90.832031 62.75 C 90.832031 61.417969 90.832031 60.082031 90.832031 58.75 Z M 90.832031 58.75 "/>
<path style=" stroke:none;fill-rule:evenodd;fill:rgb(97.647059%,84.705882%,49.019608%);fill-opacity:1;" d="M 95.808594 64.75 C 96.121094 65.3125 96.535156 65.8125 97.054688 66.25 C 97.445312 66.972656 97.359375 67.636719 96.804688 68.25 C 94.484375 68.886719 92.160156 68.886719 89.839844 68.25 C 89.222656 67.511719 88.722656 66.679688 88.34375 65.75 C 88.582031 65.261719 88.914062 64.84375 89.339844 64.5 C 91.523438 64.148438 93.679688 64.230469 95.808594 64.75 Z M 95.808594 64.75 "/>
<use xlink:href="#surface23" mask="url(#mask6)"/>
<path style=" stroke:none;fill-rule:evenodd;fill:rgb(58.039216%,74.901961%,39.607843%);fill-opacity:1;" d="M 10.699219 64.25 C 10.730469 63.976562 10.898438 63.8125 11.199219 63.75 C 14.390625 66.628906 18.042969 67.710938 22.148438 67 C 21.484375 66.832031 20.820312 66.667969 20.15625 66.5 C 21.203125 66.160156 22.195312 66.246094 23.144531 66.75 C 27.1875 67.867188 30.507812 70.117188 33.097656 73.5 C 31.589844 74.257812 30.097656 75.007812 28.617188 75.75 C 27.285156 76.113281 25.957031 76.53125 24.636719 77 C 28.101562 76.746094 31.585938 76.746094 35.089844 77 C 33.65625 77.5625 32.164062 77.898438 30.609375 78 C 32.753906 78.742188 34.746094 79.742188 36.582031 81 C 37.574219 82.078125 38.238281 83.328125 38.574219 84.75 C 37.910156 84.082031 37.246094 83.417969 36.582031 82.75 C 35.765625 82.171875 34.9375 81.589844 34.09375 81 C 30.398438 80.359375 26.75 79.523438 23.144531 78.5 C 23.308594 78.332031 23.476562 78.167969 23.640625 78 C 22.894531 77.707031 22.230469 77.292969 21.652344 76.75 C 22.621094 76.15625 23.535156 75.488281 24.386719 74.75 C 24.859375 73.523438 24.609375 72.523438 23.640625 71.75 C 22.980469 73.25 21.816406 74 20.15625 74 C 17.019531 74.589844 13.867188 74.757812 10.699219 74.5 C 10.425781 74.308594 10.257812 74.058594 10.203125 73.75 C 13.585938 73.824219 16.902344 73.40625 20.15625 72.5 C 19.480469 72.03125 18.816406 71.617188 18.167969 71.25 C 18.484375 70.269531 18.484375 69.351562 18.167969 68.5 C 15.503906 67.332031 13.015625 65.914062 10.699219 64.25 Z M 10.699219 64.25 "/>
<use xlink:href="#surface26" mask="url(#mask7)"/>
<use xlink:href="#surface29" mask="url(#mask8)"/>
<path style=" stroke:none;fill-rule:evenodd;fill:rgb(77.254902%,70.980392%,64.313725%);fill-opacity:1;" d="M 84.363281 64.25 C 84.523438 67.804688 84.191406 71.304688 83.367188 74.75 C 82.988281 74.195312 82.488281 73.859375 81.875 73.75 C 82.832031 70.511719 83.660156 67.34375 84.363281 64.25 Z M 84.363281 64.25 "/>
<path style=" stroke:none;fill-rule:evenodd;fill:rgb(86.27451%,58.431373%,17.647059%);fill-opacity:1;" d="M 81.375 70.75 C 80.78125 72.679688 79.621094 74.179688 77.894531 75.25 C 76.398438 74.917969 74.90625 74.582031 73.414062 74.25 C 75.597656 73.222656 77.089844 71.554688 77.894531 69.25 C 78.902344 67.867188 79.980469 66.53125 81.128906 65.25 C 81.375 67.074219 81.457031 68.910156 81.375 70.75 Z M 81.375 70.75 "/>
<use xlink:href="#surface32" mask="url(#mask9)"/>
<path style=" stroke:none;fill-rule:evenodd;fill:rgb(37.647059%,52.941176%,22.352941%);fill-opacity:1;" d="M 52.507812 83.25 C 51.207031 83.136719 50.378906 83.722656 50.019531 85 C 48.363281 85.332031 46.703125 85.332031 45.042969 85 C 41.894531 82.171875 38.742188 79.339844 35.585938 76.5 C 33.171875 76.414062 30.847656 76.164062 28.617188 75.75 C 30.097656 75.007812 31.589844 74.257812 33.097656 73.5 C 30.507812 70.117188 27.1875 67.867188 23.144531 66.75 C 25.132812 66.75 27.125 66.75 29.117188 66.75 C 29.78125 66.75 30.445312 66.75 31.105469 66.75 C 30.386719 67.152344 29.554688 67.402344 28.617188 67.5 C 31.652344 68.171875 34.390625 67.589844 36.832031 65.75 C 37.820312 75.492188 43.046875 81.324219 52.507812 83.25 Z M 52.507812 83.25 "/>
<path style=" stroke:none;fill-rule:evenodd;fill:rgb(97.647059%,83.137255%,43.137255%);fill-opacity:1;" d="M 61.964844 56.75 C 61.921875 57.246094 62.089844 57.664062 62.464844 58 C 63.589844 58.273438 64.417969 58.859375 64.953125 59.75 C 63.613281 61.019531 62.535156 62.519531 61.71875 64.25 C 61.523438 72.289062 65.421875 75.621094 73.414062 74.25 C 74.90625 74.582031 76.398438 74.917969 77.894531 75.25 C 78.039062 77.21875 77.871094 79.136719 77.394531 81 C 74.273438 80 70.957031 79.582031 67.441406 79.75 C 66.09375 79.789062 64.765625 79.953125 63.457031 80.25 C 62.929688 78.742188 62.347656 77.242188 61.71875 75.75 C 61 75.066406 60.171875 74.566406 59.226562 74.25 C 58.363281 71.742188 57.949219 69.15625 57.984375 66.5 C 57.75 62.558594 59.078125 59.308594 61.964844 56.75 Z M 61.964844 56.75 "/>
<path style=" stroke:none;fill-rule:evenodd;fill:rgb(71.372549%,82.352941%,53.72549%);fill-opacity:1;" d="M 36.582031 82.75 C 36.605469 83.796875 36.109375 84.460938 35.089844 84.75 C 34.34375 83.585938 33.347656 82.667969 32.101562 82 C 30.40625 81.738281 28.746094 81.320312 27.125 80.75 C 26.792969 80.917969 26.460938 81.082031 26.128906 81.25 C 26.566406 81.625 27.0625 81.875 27.625 82 C 27.347656 82.191406 27.179688 82.441406 27.125 82.75 C 19.25 81.085938 12.117188 77.835938 5.722656 73 C 7.167969 73.28125 8.664062 73.53125 10.203125 73.75 C 10.257812 74.058594 10.425781 74.308594 10.699219 74.5 C 13.867188 74.757812 17.019531 74.589844 20.15625 74 C 21.816406 74 22.980469 73.25 23.640625 71.75 C 24.609375 72.523438 24.859375 73.523438 24.386719 74.75 C 23.535156 75.488281 22.621094 76.15625 21.652344 76.75 C 22.230469 77.292969 22.894531 77.707031 23.640625 78 C 23.476562 78.167969 23.308594 78.332031 23.144531 78.5 C 26.75 79.523438 30.398438 80.359375 34.09375 81 C 34.9375 81.589844 35.765625 82.171875 36.582031 82.75 Z M 36.582031 82.75 "/>
<path style=" stroke:none;fill-rule:evenodd;fill:rgb(50.196078%,67.843137%,31.764706%);fill-opacity:1;" d="M 28.617188 75.75 C 30.847656 76.164062 33.171875 76.414062 35.585938 76.5 C 38.742188 79.339844 41.894531 82.171875 45.042969 85 C 46.703125 85.332031 48.363281 85.332031 50.019531 85 C 50.378906 83.722656 51.207031 83.136719 52.507812 83.25 C 53.339844 83.25 54.167969 83.25 54.996094 83.25 C 57.609375 83.429688 60.097656 83.929688 62.464844 84.75 C 62.464844 85.082031 62.296875 85.25 61.964844 85.25 C 61.9375 84.976562 61.769531 84.8125 61.46875 84.75 C 58.980469 86.023438 56.492188 87.1875 54.003906 88.25 C 52.839844 88.582031 51.679688 88.917969 50.519531 89.25 C 44.753906 90.207031 38.945312 90.707031 33.097656 90.75 C 32.207031 90.816406 31.378906 90.652344 30.609375 90.25 C 30.664062 89.941406 30.832031 89.691406 31.105469 89.5 C 33.746094 89.21875 36.234375 88.46875 38.574219 87.25 C 39.152344 86.417969 39.152344 85.582031 38.574219 84.75 C 38.238281 83.328125 37.574219 82.078125 36.582031 81 C 34.746094 79.742188 32.753906 78.742188 30.609375 78 C 32.164062 77.898438 33.65625 77.5625 35.089844 77 C 31.585938 76.746094 28.101562 76.746094 24.636719 77 C 25.957031 76.53125 27.285156 76.113281 28.617188 75.75 Z M 28.617188 75.75 "/>
<path style=" stroke:none;fill-rule:evenodd;fill:rgb(4.313725%,4.313725%,2.745098%);fill-opacity:1;" d="M 40.5625 22.75 C 40.527344 23.511719 40.859375 24.011719 41.558594 24.25 C 41.054688 25.929688 41.46875 27.429688 42.804688 28.75 C 43.808594 26.492188 45.382812 24.828125 47.53125 23.75 C 47.53125 24.25 47.53125 24.75 47.53125 25.25 C 45.300781 26.828125 44.136719 28.996094 44.046875 31.75 C 43.597656 31.394531 43.433594 30.894531 43.550781 30.25 C 42.886719 30.25 42.222656 30.25 41.558594 30.25 C 41.273438 29.511719 40.859375 28.847656 40.316406 28.25 C 40.082031 28.546875 40 28.878906 40.066406 29.25 C 39.707031 29.042969 39.457031 28.707031 39.320312 28.25 C 39.191406 31.097656 38.941406 33.929688 38.574219 36.75 C 39.417969 37.777344 39.996094 38.945312 40.316406 40.25 C 40.90625 46.765625 40.90625 53.265625 40.316406 59.75 C 39.09375 61.324219 38.679688 62.992188 39.070312 64.75 C 38.914062 66.285156 39.078125 67.785156 39.570312 69.25 C 39.871094 69.1875 40.035156 69.023438 40.066406 68.75 C 40.871094 68.480469 41.699219 68.316406 42.554688 68.25 C 42.6875 69.050781 42.523438 69.714844 42.058594 70.25 C 42.121094 69.878906 42.039062 69.546875 41.808594 69.25 C 41.324219 70.136719 40.910156 71.054688 40.5625 72 C 41.644531 74.589844 43.304688 76.753906 45.542969 78.5 C 51.0625 81.453125 56.867188 82.285156 62.960938 81 C 62.683594 80.808594 62.519531 80.558594 62.464844 80.25 C 62.796875 80.25 63.125 80.25 63.457031 80.25 C 64.765625 79.953125 66.09375 79.789062 67.441406 79.75 C 68.933594 80.046875 70.425781 80.464844 71.921875 81 C 70.328125 81.089844 68.835938 81.339844 67.441406 81.75 C 66.664062 82.472656 66 83.304688 65.449219 84.25 C 63.980469 86.109375 64.3125 87.695312 66.445312 89 C 68.796875 90.117188 71.285156 90.535156 73.910156 90.25 C 73.964844 90.558594 74.132812 90.808594 74.410156 91 C 72.011719 90.472656 69.691406 90.722656 67.441406 91.75 C 65.304688 91.382812 63.730469 90.214844 62.710938 88.25 C 61.828125 88.984375 60.917969 89.648438 59.976562 90.25 C 59.917969 89.941406 59.753906 89.691406 59.476562 89.5 C 60.496094 88.203125 61.328125 86.785156 61.964844 85.25 C 62.296875 85.25 62.464844 85.082031 62.464844 84.75 C 62.894531 84.15625 63.390625 83.574219 63.957031 83 C 61.011719 83.203125 58.027344 83.289062 54.996094 83.25 C 54.167969 83.25 53.339844 83.25 52.507812 83.25 C 43.046875 81.324219 37.820312 75.492188 36.832031 65.75 C 34.390625 67.589844 31.652344 68.171875 28.617188 67.5 C 29.554688 67.402344 30.386719 67.152344 31.105469 66.75 C 36.386719 65.609375 39.207031 62.273438 39.570312 56.75 C 40.144531 51.671875 40.226562 46.503906 39.816406 41.25 C 39.222656 39.726562 38.640625 38.226562 38.074219 36.75 C 38.433594 33.261719 38.683594 29.761719 38.820312 26.25 C 39.15625 24.914062 39.734375 23.746094 40.5625 22.75 Z M 40.5625 22.75 "/>
<use xlink:href="#surface35" mask="url(#mask10)"/>
<path style=" stroke:none;fill-rule:evenodd;fill:rgb(27.45098%,36.862745%,23.921569%);fill-opacity:1;" d="M 62.464844 84.75 C 60.097656 83.929688 57.609375 83.429688 54.996094 83.25 C 58.027344 83.289062 61.011719 83.203125 63.957031 83 C 63.390625 83.574219 62.894531 84.15625 62.464844 84.75 Z M 62.464844 84.75 "/>
<path style=" stroke:none;fill-rule:evenodd;fill:rgb(85.098039%,52.941176%,12.156863%);fill-opacity:1;" d="M 67.441406 81.75 C 70.597656 81.828125 73.75 81.992188 76.898438 82.25 C 77.5625 82.25 78.226562 82.25 78.886719 82.25 C 77.4375 83.261719 75.613281 84.34375 73.414062 85.5 C 70.589844 86.035156 67.933594 85.617188 65.449219 84.25 C 66 83.304688 66.664062 82.472656 67.441406 81.75 Z M 67.441406 81.75 "/>
<path style=" stroke:none;fill-rule:evenodd;fill:rgb(98.823529%,87.058824%,47.058824%);fill-opacity:1;" d="M 78.886719 82.25 C 79.207031 82.546875 79.371094 82.964844 79.386719 83.5 C 78.664062 86.722656 76.839844 88.972656 73.910156 90.25 C 71.285156 90.535156 68.796875 90.117188 66.445312 89 C 64.3125 87.695312 63.980469 86.109375 65.449219 84.25 C 67.933594 85.617188 70.589844 86.035156 73.414062 85.5 C 75.613281 84.34375 77.4375 83.261719 78.886719 82.25 Z M 78.886719 82.25 "/>
<path style=" stroke:none;fill-rule:evenodd;fill:rgb(65.882353%,81.176471%,46.666667%);fill-opacity:1;" d="M 36.582031 82.75 C 37.246094 83.417969 37.910156 84.082031 38.574219 84.75 C 39.152344 85.582031 39.152344 86.417969 38.574219 87.25 C 36.234375 88.46875 33.746094 89.21875 31.105469 89.5 C 30.832031 89.691406 30.664062 89.941406 30.609375 90.25 C 27.707031 89.628906 24.886719 88.710938 22.148438 87.5 C 20.804688 87.195312 19.476562 87.28125 18.167969 87.75 C 17.355469 87.289062 16.527344 86.871094 15.679688 86.5 C 16.132812 86.359375 16.464844 86.109375 16.671875 85.75 C 21.3125 86.097656 25.789062 85.429688 30.113281 83.75 C 29.160156 83.261719 28.164062 82.929688 27.125 82.75 C 27.179688 82.441406 27.347656 82.191406 27.625 82 C 27.0625 81.875 26.566406 81.625 26.128906 81.25 C 26.460938 81.082031 26.792969 80.917969 27.125 80.75 C 28.746094 81.320312 30.40625 81.738281 32.101562 82 C 33.347656 82.667969 34.34375 83.585938 35.089844 84.75 C 36.109375 84.460938 36.605469 83.796875 36.582031 82.75 Z M 36.582031 82.75 "/>
<path style=" stroke:none;fill-rule:evenodd;fill:rgb(69.803922%,80%,50.980392%);fill-opacity:1;" d="M 61.964844 85.25 C 59.96875 87.253906 57.644531 88.753906 54.996094 89.75 C 54.953125 89.253906 55.121094 88.835938 55.496094 88.5 C 55.023438 88.257812 54.527344 88.175781 54.003906 88.25 C 56.492188 87.1875 58.980469 86.023438 61.46875 84.75 C 61.769531 84.8125 61.9375 84.976562 61.964844 85.25 Z M 61.964844 85.25 "/>
<path style=" stroke:none;fill-rule:evenodd;fill:rgb(76.470588%,87.45098%,61.176471%);fill-opacity:1;" d="M 16.671875 85.75 C 16.464844 86.109375 16.132812 86.359375 15.679688 86.5 C 16.527344 86.871094 17.355469 87.289062 18.167969 87.75 C 19.476562 87.28125 20.804688 87.195312 22.148438 87.5 C 24.886719 88.710938 27.707031 89.628906 30.609375 90.25 C 31.378906 90.652344 32.207031 90.816406 33.097656 90.75 C 32.683594 91.375 32.019531 91.707031 31.105469 91.75 C 28.84375 91.089844 26.519531 90.671875 24.140625 90.5 C 22.570312 89.273438 20.910156 88.855469 19.160156 89.25 C 17.601562 88.550781 16.109375 87.714844 14.683594 86.75 C 14.21875 86.34375 13.722656 85.925781 13.191406 85.5 C 13.355469 85.417969 13.519531 85.332031 13.6875 85.25 C 14.636719 85.675781 15.632812 85.839844 16.671875 85.75 Z M 16.671875 85.75 "/>
<use xlink:href="#surface38" mask="url(#mask11)"/>
<path style=" stroke:none;fill-rule:evenodd;fill:rgb(85.098039%,88.627451%,71.372549%);fill-opacity:1;" d="M 54.003906 88.25 C 54.527344 88.175781 55.023438 88.257812 55.496094 88.5 C 55.121094 88.835938 54.953125 89.253906 54.996094 89.75 C 51.644531 91.707031 47.992188 92.871094 44.046875 93.25 C 42.929688 93.230469 42.597656 92.8125 43.050781 92 C 45.71875 91.414062 48.207031 90.496094 50.519531 89.25 C 51.679688 88.917969 52.839844 88.582031 54.003906 88.25 Z M 54.003906 88.25 "/>
<path style=" stroke:none;fill-rule:evenodd;fill:rgb(69.411765%,81.568627%,49.019608%);fill-opacity:1;" d="M 33.097656 90.75 C 38.945312 90.707031 44.753906 90.207031 50.519531 89.25 C 48.207031 90.496094 45.71875 91.414062 43.050781 92 C 42.597656 92.8125 42.929688 93.230469 44.046875 93.25 C 35.28125 94.921875 26.984375 93.589844 19.160156 89.25 C 20.910156 88.855469 22.570312 89.273438 24.140625 90.5 C 26.519531 90.671875 28.84375 91.089844 31.105469 91.75 C 32.019531 91.707031 32.683594 91.375 33.097656 90.75 Z M 33.097656 90.75 "/>
<use xlink:href="#surface41" mask="url(#mask12)"/>
</g>
</svg>
