<?xml version="1.0" encoding="UTF-8"?>
<svg xmlns="http://www.w3.org/2000/svg" xmlns:xlink="http://www.w3.org/1999/xlink" width="px" height="px" viewBox="0 0 107 96" version="1.1">
<defs>
<filter id="alpha" filterUnits="objectBoundingBox" x="0%" y="0%" width="100%" height="100%">
  <feColorMatrix type="matrix" in="SourceGraphic" values="0 0 0 0 1 0 0 0 0 1 0 0 0 0 1 0 0 0 1 0"/>
</filter>
<mask id="mask0">
  <g filter="url(#alpha)">
<rect x="0" y="0" width="107" height="96" style="fill:rgb(0%,0%,0%);fill-opacity:0.0156863;stroke:none;"/>
  </g>
</mask>
<clipPath id="clip1">
  <rect x="0" y="0" width="108" height="96"/>
</clipPath>
<g id="surface5" clip-path="url(#clip1)">
<path style=" stroke:none;fill-rule:evenodd;fill:rgb(16.862745%,22.745098%,26.666667%);fill-opacity:1;" d="M 32.902344 -0.25 C 34.578125 -0.25 36.253906 -0.25 37.925781 -0.25 C 42.429688 0.65625 46.613281 2.417969 50.484375 5.027344 C 53.398438 5.085938 56.242188 5.503906 59.027344 6.28125 C 60.382812 5.59375 61.636719 5.761719 62.792969 6.785156 C 67.496094 1.363281 73.105469 0.273438 79.621094 3.519531 C 82.773438 6.054688 84.699219 9.320312 85.398438 13.320312 C 89.191406 15.773438 91.871094 19.125 93.4375 23.371094 C 96.40625 23.578125 98.917969 24.75 100.972656 26.890625 C 102.109375 29.53125 103.449219 32.042969 104.992188 34.429688 C 105.222656 36.742188 105.644531 39.003906 106.246094 41.214844 C 106.1875 42.242188 106.019531 43.246094 105.742188 44.230469 C 105.8125 44.882812 106.148438 45.304688 106.75 45.488281 C 106.75 47.164062 106.75 48.835938 106.75 50.511719 C 106.453125 54.050781 105.867188 57.566406 104.992188 61.066406 C 104.59375 62.976562 103.585938 64.484375 101.976562 65.589844 C 101.179688 70.148438 98.417969 72.242188 93.6875 71.875 C 91.851562 76.390625 88.921875 79.992188 84.898438 82.679688 C 83.15625 87.601562 79.890625 91.039062 75.101562 92.984375 C 70.679688 93.632812 66.996094 92.292969 64.050781 88.964844 C 61.683594 88.96875 59.335938 89.300781 57.015625 89.96875 C 54.878906 90.367188 52.785156 90.285156 50.738281 89.71875 C 45.703125 92.984375 40.261719 94.996094 34.410156 95.75 C 34.242188 95.75 34.074219 95.75 33.910156 95.75 C 27.511719 88.828125 22.488281 80.953125 18.839844 72.125 C 9.132812 67.285156 2.769531 59.746094 -0.25 49.507812 C -0.25 48.335938 -0.25 47.164062 -0.25 45.988281 C 3.257812 36.695312 9.535156 29.824219 18.585938 25.382812 C 21.816406 15.898438 26.589844 7.351562 32.902344 -0.25 Z M 32.902344 -0.25 "/>
</g>
<mask id="mask1">
  <g filter="url(#alpha)">
<rect x="0" y="0" width="107" height="96" style="fill:rgb(0%,0%,0%);fill-opacity:0.972549;stroke:none;"/>
  </g>
</mask>
<clipPath id="clip2">
  <rect x="0" y="0" width="108" height="96"/>
</clipPath>
<g id="surface8" clip-path="url(#clip2)">
<path style=" stroke:none;fill-rule:evenodd;fill:rgb(3.529412%,3.921569%,4.313725%);fill-opacity:1;" d="M 60.03125 88.210938 C 59.078125 87.335938 57.90625 86.832031 56.515625 86.703125 C 58.273438 86.046875 60.113281 85.460938 62.039062 84.941406 C 62.375 84.605469 62.710938 84.273438 63.042969 83.9375 C 61.035156 83.769531 59.027344 83.601562 57.015625 83.433594 C 55.707031 83.238281 54.535156 82.820312 53.5 82.179688 C 54.324219 81.722656 55.242188 81.722656 56.261719 82.179688 C 56.953125 82.085938 57.371094 81.75 57.519531 81.171875 C 65.667969 80.164062 73.875 79.578125 82.132812 79.414062 C 85.625 78.9375 87.882812 77.011719 88.914062 73.632812 C 90.628906 71.238281 90.460938 69.058594 88.414062 67.097656 C 87.785156 64.964844 88.539062 63.625 90.671875 63.078125 C 91.128906 63.433594 91.296875 63.9375 91.175781 64.585938 C 90.078125 64.59375 89.660156 65.09375 89.921875 66.09375 C 92.367188 68.789062 95.214844 69.289062 98.460938 67.601562 C 98.585938 66.511719 98.167969 65.675781 97.203125 65.089844 C 97.75 64.40625 98.421875 63.90625 99.214844 63.582031 C 100.960938 62.597656 101.796875 61.089844 101.726562 59.058594 C 100.390625 58.847656 99.21875 58.34375 98.207031 57.550781 C 99.394531 57.632812 100.566406 57.546875 101.726562 57.296875 C 104.277344 52.902344 103.105469 51.308594 98.207031 52.523438 C 97.800781 53.59375 97.550781 54.765625 97.457031 56.042969 C 97.207031 54.710938 97.121094 53.371094 97.203125 52.019531 C 98.824219 51.277344 100.5 50.773438 102.226562 50.511719 C 103.375 49.183594 103.539062 47.675781 102.730469 45.988281 C 102.5625 45.320312 102.394531 44.648438 102.226562 43.980469 C 102.765625 42.515625 102.847656 41.007812 102.480469 39.457031 C 102.140625 39.078125 101.722656 38.910156 101.222656 38.953125 C 99.714844 38.28125 98.207031 38.28125 96.703125 38.953125 C 95.695312 38.953125 94.691406 38.953125 93.6875 38.953125 C 93.6875 40.628906 93.6875 42.304688 93.6875 43.980469 C 93.515625 44.398438 93.179688 44.566406 92.683594 44.480469 C 92.628906 40.949219 92.378906 37.433594 91.929688 33.925781 C 88.820312 33.433594 87.730469 31.757812 88.664062 28.902344 C 89.355469 28.203125 89.855469 27.363281 90.171875 26.386719 C 89.546875 22.023438 87.367188 18.753906 83.640625 16.585938 C 79.121094 16.417969 74.597656 16.25 70.078125 16.082031 C 67.121094 15.175781 64.105469 14.589844 61.035156 14.324219 C 56.554688 14.363281 52.703125 15.871094 49.480469 18.847656 C 49.480469 17.84375 48.980469 17.339844 47.972656 17.339844 C 47.972656 17.171875 47.972656 17.003906 47.972656 16.835938 C 49.175781 16.136719 50.015625 15.132812 50.484375 13.820312 C 50.421875 14.261719 50.585938 14.597656 50.988281 14.828125 C 54.886719 12.679688 59.070312 11.757812 63.546875 12.0625 C 63.269531 11.871094 63.101562 11.621094 63.042969 11.308594 C 63.699219 11.613281 64.367188 11.949219 65.054688 12.3125 C 65.515625 12.292969 65.847656 12.125 66.058594 11.8125 C 66.5625 11.8125 67.0625 11.8125 67.566406 11.8125 C 68.621094 12.53125 69.792969 13.117188 71.082031 13.570312 C 74.605469 13.316406 78.125 13.402344 81.632812 13.820312 C 81.507812 12.136719 81.003906 10.628906 80.125 9.296875 C 79.390625 8.3125 78.554688 7.390625 77.613281 6.535156 C 72.28125 4.011719 67.929688 5.097656 64.550781 9.800781 C 64 9.246094 63.664062 8.574219 63.546875 7.789062 C 64.664062 5.421875 66.503906 3.828125 69.074219 3.015625 C 77.707031 1.605469 82.644531 5.207031 83.890625 13.820312 C 88.277344 16.042969 91.121094 19.558594 92.433594 24.378906 C 94.585938 24.6875 96.679688 25.273438 98.710938 26.136719 C 99.980469 28.761719 101.570312 31.191406 103.484375 33.425781 C 103.652344 34.933594 103.820312 36.441406 103.984375 37.949219 C 105.5625 39.875 105.644531 41.886719 104.238281 43.980469 C 104.964844 45.214844 105.300781 46.554688 105.242188 48 C 104.691406 50.105469 104.691406 52.199219 105.242188 54.28125 C 104.148438 56.746094 103.5625 59.34375 103.484375 62.074219 C 102.582031 63.476562 101.496094 64.734375 100.21875 65.84375 C 100.726562 68.007812 99.886719 69.515625 97.707031 70.367188 C 95.871094 70.617188 94.03125 70.699219 92.179688 70.617188 C 91.609375 75.960938 88.847656 79.648438 83.890625 81.675781 C 81.347656 91.113281 75.570312 94.046875 66.5625 90.472656 C 65.464844 89.289062 64.292969 88.199219 63.042969 87.203125 C 62.066406 87.640625 61.058594 87.976562 60.03125 88.210938 Z M 60.03125 88.210938 "/>
</g>
</defs>
<g id="surface1">
<use xlink:href="#surface5" mask="url(#mask0)"/>
<path style=" stroke:none;fill-rule:evenodd;fill:rgb(80.784314%,87.843137%,91.764706%);fill-opacity:1;" d="M 53.5 82.179688 C 54.535156 82.820312 55.707031 83.238281 57.015625 83.433594 C 59.027344 83.601562 61.035156 83.769531 63.042969 83.9375 C 62.710938 84.273438 62.375 84.605469 62.039062 84.941406 C 60.113281 85.460938 58.273438 86.046875 56.515625 86.703125 C 54.867188 86.84375 53.277344 86.675781 51.742188 86.199219 C 51.078125 84.554688 50.742188 82.878906 50.738281 81.171875 C 51.53125 81.855469 52.453125 82.191406 53.5 82.179688 Z M 53.5 82.179688 "/>
<path style=" stroke:none;fill-rule:evenodd;fill:rgb(5.098039%,4.705882%,4.705882%);fill-opacity:1;" d="M 48.476562 46.492188 C 48.171875 46.941406 48.003906 47.441406 47.972656 48 C 44.792969 48.667969 43.785156 50.511719 44.960938 53.527344 C 43.457031 56.527344 41.949219 59.542969 40.4375 62.574219 C 40.851562 63.019531 41.355469 63.1875 41.945312 63.078125 C 41.878906 63.980469 42.046875 64.816406 42.449219 65.589844 C 40.652344 67.203125 40.566406 68.878906 42.195312 70.617188 C 45.351562 74.28125 48.953125 77.382812 52.996094 79.917969 C 54.46875 80.492188 55.976562 80.910156 57.519531 81.171875 C 57.371094 81.75 56.953125 82.085938 56.261719 82.179688 C 55.242188 81.722656 54.324219 81.722656 53.5 82.179688 C 52.453125 82.191406 51.53125 81.855469 50.738281 81.171875 C 50.742188 82.878906 51.078125 84.554688 51.742188 86.199219 C 53.277344 86.675781 54.867188 86.84375 56.515625 86.703125 C 57.90625 86.832031 59.078125 87.335938 60.03125 88.210938 C 56.980469 89.132812 53.882812 89.300781 50.738281 88.710938 C 45.492188 92.246094 39.714844 94.175781 33.40625 94.492188 C 27.960938 87.867188 23.605469 80.578125 20.34375 72.628906 C 20.714844 72.695312 21.050781 72.609375 21.351562 72.378906 C 20.75 72.046875 20.75 71.796875 21.351562 71.621094 C 21.691406 71.804688 22.027344 71.972656 22.355469 72.125 C 25.542969 79.257812 29.5625 85.878906 34.410156 91.980469 C 37.648438 91.984375 40.664062 91.230469 43.453125 89.71875 C 43.789062 89.71875 44.121094 89.71875 44.457031 89.71875 C 46.390625 89.003906 48.0625 87.914062 49.480469 86.449219 C 48.542969 84.460938 48.042969 82.363281 47.972656 80.167969 C 47.121094 80.246094 46.285156 80.164062 45.460938 79.917969 C 45.839844 79.578125 46.007812 79.160156 45.964844 78.660156 C 46.710938 77.285156 46.207031 76.53125 44.457031 76.398438 C 42.355469 74.292969 40.261719 72.199219 38.179688 70.113281 C 35.527344 70.839844 32.933594 71.511719 30.390625 72.125 C 28.886719 72.125 27.378906 72.125 25.871094 72.125 C 25.066406 72.261719 24.398438 72.09375 23.863281 71.621094 C 26.886719 71.539062 29.902344 71.285156 32.902344 70.867188 C 32.527344 70.53125 32.359375 70.113281 32.402344 69.613281 C 34.324219 69.140625 36.164062 68.46875 37.925781 67.601562 C 39.726562 66.617188 39.976562 65.613281 38.679688 64.585938 C 31.992188 67.371094 25.378906 67.203125 18.839844 64.082031 C 19.136719 63.761719 19.554688 63.59375 20.09375 63.582031 C 25.488281 65.730469 30.761719 65.566406 35.917969 63.078125 C 38.335938 61.445312 40.179688 59.265625 41.445312 56.542969 C 41.277344 56.378906 41.109375 56.210938 40.941406 56.042969 C 39.371094 56.996094 37.695312 57.667969 35.917969 58.050781 C 34.8125 58.097656 34.644531 57.761719 35.414062 57.046875 C 38.007812 56.046875 40.269531 54.539062 42.195312 52.523438 C 42.574219 51.953125 42.488281 51.449219 41.945312 51.015625 C 38.488281 51.847656 34.96875 52.183594 31.398438 52.019531 C 31.0625 52.019531 30.726562 52.019531 30.390625 52.019531 C 34.507812 51.261719 38.527344 50.089844 42.449219 48.503906 C 43.359375 48.367188 44.195312 48.03125 44.960938 47.496094 C 40.035156 43.308594 34.34375 40.710938 27.878906 39.707031 C 29.039062 39.457031 30.210938 39.375 31.398438 39.457031 C 35.15625 40.257812 38.839844 41.179688 42.449219 42.21875 C 40.453125 39.636719 37.941406 37.710938 34.914062 36.441406 C 35.339844 35.875 35.839844 35.875 36.421875 36.441406 C 41.019531 39.078125 44.203125 37.90625 45.964844 32.921875 C 47.964844 32.382812 48.382812 33.054688 47.21875 34.933594 C 46.105469 36.886719 44.515625 38.308594 42.449219 39.203125 C 43.46875 40.046875 44.472656 40.882812 45.460938 41.71875 C 45.246094 42.4375 44.828125 43.023438 44.207031 43.476562 C 43.871094 43.980469 43.871094 44.480469 44.207031 44.984375 C 45.457031 45.988281 46.882812 46.492188 48.476562 46.492188 Z M 48.476562 46.492188 "/>
<path style=" stroke:none;fill-rule:evenodd;fill:rgb(98.431373%,81.176471%,36.862745%);fill-opacity:1;" d="M 23.863281 71.621094 C 24.398438 72.09375 25.066406 72.261719 25.871094 72.125 C 25.660156 72.488281 25.328125 72.738281 24.867188 72.878906 C 25.496094 73.089844 25.832031 73.507812 25.871094 74.136719 C 25.597656 74.167969 25.429688 74.332031 25.367188 74.640625 C 26.851562 76.40625 27.941406 78.414062 28.632812 80.671875 C 30.480469 83.035156 32.324219 85.378906 34.160156 87.707031 C 35.730469 88.355469 37.320312 88.355469 38.933594 87.707031 C 37.230469 85.839844 35.558594 83.996094 33.910156 82.179688 C 35.308594 82.394531 36.480469 83.066406 37.425781 84.1875 C 38.445312 83.621094 38.613281 83.871094 37.925781 84.941406 C 39.390625 85.367188 39.890625 86.203125 39.433594 87.457031 C 40.695312 88.355469 42.035156 89.109375 43.453125 89.71875 C 40.664062 91.230469 37.648438 91.984375 34.410156 91.980469 C 29.5625 85.878906 25.542969 79.257812 22.355469 72.125 C 22.710938 71.671875 23.214844 71.503906 23.863281 71.621094 Z M 23.863281 71.621094 "/>
<path style=" stroke:none;fill-rule:evenodd;fill:rgb(100%,90.196078%,47.058824%);fill-opacity:1;" d="M 25.871094 74.136719 C 28.441406 76.265625 30.785156 78.609375 32.902344 81.171875 C 33.070312 81.171875 33.238281 81.171875 33.40625 81.171875 C 33.574219 81.507812 33.742188 81.84375 33.910156 82.179688 C 35.558594 83.996094 37.230469 85.839844 38.933594 87.707031 C 37.320312 88.355469 35.730469 88.355469 34.160156 87.707031 C 32.324219 85.378906 30.480469 83.035156 28.632812 80.671875 C 27.941406 78.414062 26.851562 76.40625 25.367188 74.640625 C 25.429688 74.332031 25.597656 74.167969 25.871094 74.136719 Z M 25.871094 74.136719 "/>
<path style=" stroke:none;fill-rule:evenodd;fill:rgb(99.607843%,77.254902%,29.019608%);fill-opacity:1;" d="M 33.40625 81.171875 C 35.785156 81.425781 38.128906 81.847656 40.4375 82.429688 C 42.308594 83.796875 43.816406 85.472656 44.960938 87.457031 C 44.757812 87.929688 44.421875 88.265625 43.957031 88.460938 C 44.332031 88.796875 44.5 89.214844 44.457031 89.71875 C 44.121094 89.71875 43.789062 89.71875 43.453125 89.71875 C 42.035156 89.109375 40.695312 88.355469 39.433594 87.457031 C 39.890625 86.203125 39.390625 85.367188 37.925781 84.941406 C 38.613281 83.871094 38.445312 83.621094 37.425781 84.1875 C 36.480469 83.066406 35.308594 82.394531 33.910156 82.179688 C 33.742188 81.84375 33.574219 81.507812 33.40625 81.171875 Z M 33.40625 81.171875 "/>
<path style=" stroke:none;fill-rule:evenodd;fill:rgb(89.019608%,57.254902%,14.117647%);fill-opacity:1;" d="M 45.964844 78.660156 C 46.007812 79.160156 45.839844 79.578125 45.460938 79.917969 C 46.285156 80.164062 47.121094 80.246094 47.972656 80.167969 C 48.042969 82.363281 48.542969 84.460938 49.480469 86.449219 C 48.0625 87.914062 46.390625 89.003906 44.457031 89.71875 C 44.5 89.214844 44.332031 88.796875 43.957031 88.460938 C 44.421875 88.265625 44.757812 87.929688 44.960938 87.457031 C 43.816406 85.472656 42.308594 83.796875 40.4375 82.429688 C 38.128906 81.847656 35.785156 81.425781 33.40625 81.171875 C 33.238281 81.171875 33.070312 81.171875 32.902344 81.171875 C 33.644531 80.210938 34.648438 79.625 35.917969 79.414062 C 37.164062 78.441406 37.246094 77.351562 36.167969 76.148438 C 35 75.5625 34.078125 74.722656 33.40625 73.632812 C 33.390625 73.132812 33.640625 72.796875 34.160156 72.628906 C 36.589844 73.292969 38.179688 74.800781 38.933594 77.152344 C 38.839844 77.679688 38.675781 78.183594 38.429688 78.660156 C 38.765625 78.828125 39.097656 78.996094 39.433594 79.164062 C 40.835938 78.609375 42.257812 78.109375 43.703125 77.65625 C 44.355469 78.261719 45.109375 78.597656 45.964844 78.660156 Z M 45.964844 78.660156 "/>
<path style=" stroke:none;fill-rule:evenodd;fill:rgb(82.352941%,47.843137%,9.803922%);fill-opacity:1;" d="M 45.964844 78.660156 C 45.109375 78.597656 44.355469 78.261719 43.703125 77.65625 C 42.257812 78.109375 40.835938 78.609375 39.433594 79.164062 C 39.097656 78.996094 38.765625 78.828125 38.429688 78.660156 C 38.675781 78.183594 38.839844 77.679688 38.933594 77.152344 C 38.179688 74.800781 36.589844 73.292969 34.160156 72.628906 C 33.640625 72.796875 33.390625 73.132812 33.40625 73.632812 C 32.628906 73.472656 32.292969 72.96875 32.402344 72.125 C 31.730469 72.125 31.0625 72.125 30.390625 72.125 C 32.933594 71.511719 35.527344 70.839844 38.179688 70.113281 C 40.261719 72.199219 42.355469 74.292969 44.457031 76.398438 C 46.207031 76.53125 46.710938 77.285156 45.964844 78.660156 Z M 45.964844 78.660156 "/>
<path style=" stroke:none;fill-rule:evenodd;fill:rgb(99.607843%,76.862745%,30.196078%);fill-opacity:1;" d="M 25.871094 72.125 C 27.378906 72.125 28.886719 72.125 30.390625 72.125 C 31.0625 72.125 31.730469 72.125 32.402344 72.125 C 32.292969 72.96875 32.628906 73.472656 33.40625 73.632812 C 34.078125 74.722656 35 75.5625 36.167969 76.148438 C 37.246094 77.351562 37.164062 78.441406 35.917969 79.414062 C 34.648438 79.625 33.644531 80.210938 32.902344 81.171875 C 30.785156 78.609375 28.441406 76.265625 25.871094 74.136719 C 25.832031 73.507812 25.496094 73.089844 24.867188 72.878906 C 25.328125 72.738281 25.660156 72.488281 25.871094 72.125 Z M 25.871094 72.125 "/>
<path style=" stroke:none;fill-rule:evenodd;fill:rgb(74.509804%,77.254902%,80%);fill-opacity:1;" d="M 21.851562 66.597656 C 26.566406 68.347656 31.339844 68.347656 36.167969 66.597656 C 36.902344 66.75 37.488281 67.085938 37.925781 67.601562 C 36.164062 68.46875 34.324219 69.140625 32.402344 69.613281 C 27.808594 70.617188 23.457031 70.113281 19.339844 68.105469 C 20.523438 68.1875 21.695312 68.101562 22.855469 67.851562 C 22.226562 67.644531 21.890625 67.226562 21.851562 66.597656 Z M 21.851562 66.597656 "/>
<path style=" stroke:none;fill-rule:evenodd;fill:rgb(44.705882%,49.803922%,53.333333%);fill-opacity:1;" d="M 18.839844 64.082031 C 25.378906 67.203125 31.992188 67.371094 38.679688 64.585938 C 39.976562 65.613281 39.726562 66.617188 37.925781 67.601562 C 37.488281 67.085938 36.902344 66.75 36.167969 66.597656 C 31.339844 68.347656 26.566406 68.347656 21.851562 66.597656 C 20.800781 66.324219 19.796875 65.902344 18.839844 65.339844 C 18.285156 64.953125 18.285156 64.535156 18.839844 64.082031 Z M 18.839844 64.082031 "/>
<path style=" stroke:none;fill-rule:evenodd;fill:rgb(46.666667%,51.372549%,54.117647%);fill-opacity:1;" d="M 47.972656 48 C 46.789062 51.371094 45.617188 54.71875 44.457031 58.050781 C 44.542969 58.386719 44.625 58.722656 44.707031 59.058594 C 46.304688 57.011719 46.808594 57.347656 46.214844 60.0625 C 45.449219 62.269531 44.195312 64.113281 42.449219 65.589844 C 42.046875 64.816406 41.878906 63.980469 41.945312 63.078125 C 41.355469 63.1875 40.851562 63.019531 40.4375 62.574219 C 41.949219 59.542969 43.457031 56.527344 44.960938 53.527344 C 43.785156 50.511719 44.792969 48.667969 47.972656 48 Z M 47.972656 48 "/>
<path style=" stroke:none;fill-rule:evenodd;fill:rgb(90.588235%,88.627451%,87.843137%);fill-opacity:1;" d="M 101.726562 59.058594 C 101.796875 61.089844 100.960938 62.597656 99.214844 63.582031 C 98.710938 63.582031 98.207031 63.582031 97.707031 63.582031 C 97.707031 62.074219 97.707031 60.566406 97.707031 59.058594 C 99.046875 59.058594 100.386719 59.058594 101.726562 59.058594 Z M 101.726562 59.058594 "/>
<path style=" stroke:none;fill-rule:evenodd;fill:rgb(40%,43.137255%,45.098039%);fill-opacity:1;" d="M 35.917969 63.078125 C 35.035156 62.429688 34.03125 61.925781 32.902344 61.570312 C 29.859375 61.144531 26.847656 60.558594 23.863281 59.8125 C 25.078125 59.664062 26.25 59.414062 27.378906 59.058594 C 27.433594 59.367188 27.601562 59.617188 27.878906 59.8125 C 30.878906 60.441406 33.558594 59.855469 35.917969 58.050781 C 37.695312 57.667969 39.371094 56.996094 40.941406 56.042969 C 41.109375 56.210938 41.277344 56.378906 41.445312 56.542969 C 40.179688 59.265625 38.335938 61.445312 35.917969 63.078125 Z M 35.917969 63.078125 "/>
<path style=" stroke:none;fill-rule:evenodd;fill:rgb(18.823529%,21.176471%,23.137255%);fill-opacity:1;" d="M 35.414062 57.046875 C 34.644531 57.761719 34.8125 58.097656 35.917969 58.050781 C 33.558594 59.855469 30.878906 60.441406 27.878906 59.8125 C 27.601562 59.617188 27.433594 59.367188 27.378906 59.058594 C 29.121094 58.753906 30.792969 58.253906 32.402344 57.550781 C 33.4375 57.542969 34.441406 57.375 35.414062 57.046875 Z M 35.414062 57.046875 "/>
<path style=" stroke:none;fill-rule:evenodd;fill:rgb(92.941176%,91.372549%,90.196078%);fill-opacity:1;" d="M 98.207031 57.550781 C 98.207031 55.875 98.207031 54.199219 98.207031 52.523438 C 103.105469 51.308594 104.277344 52.902344 101.726562 57.296875 C 100.566406 57.546875 99.394531 57.632812 98.207031 57.550781 Z M 98.207031 57.550781 "/>
<path style=" stroke:none;fill-rule:evenodd;fill:rgb(44.313725%,47.843137%,50.980392%);fill-opacity:1;" d="M 35.414062 57.046875 C 34.441406 57.375 33.4375 57.542969 32.402344 57.550781 C 34.558594 55.289062 34.222656 53.445312 31.398438 52.019531 C 34.96875 52.183594 38.488281 51.847656 41.945312 51.015625 C 42.488281 51.449219 42.574219 51.953125 42.195312 52.523438 C 40.269531 54.539062 38.007812 56.046875 35.414062 57.046875 Z M 35.414062 57.046875 "/>
<path style=" stroke:none;fill-rule:evenodd;fill:rgb(34.509804%,33.72549%,32.54902%);fill-opacity:1;" d="M 96.703125 45.488281 C 97.113281 47.066406 97.367188 48.742188 97.457031 50.511719 C 97.546875 48.742188 97.796875 47.066406 98.207031 45.488281 C 98.207031 47.164062 98.207031 48.835938 98.207031 50.511719 C 99.546875 50.511719 100.886719 50.511719 102.226562 50.511719 C 100.5 50.773438 98.824219 51.277344 97.203125 52.019531 C 96.195312 51.226562 95.023438 50.722656 93.6875 50.511719 C 94.691406 50.511719 95.695312 50.511719 96.703125 50.511719 C 96.703125 48.835938 96.703125 47.164062 96.703125 45.488281 Z M 96.703125 45.488281 "/>
<path style=" stroke:none;fill-rule:evenodd;fill:rgb(23.921569%,25.490196%,27.058824%);fill-opacity:1;" d="M 40.941406 48.503906 C 41.445312 48.503906 41.945312 48.503906 42.449219 48.503906 C 38.527344 50.089844 34.507812 51.261719 30.390625 52.019531 C 28.082031 51.753906 25.90625 51.082031 23.863281 50.011719 C 29.496094 49.636719 35.1875 49.132812 40.941406 48.503906 Z M 40.941406 48.503906 "/>
<path style=" stroke:none;fill-rule:evenodd;fill:rgb(95.294118%,94.117647%,92.941176%);fill-opacity:1;" d="M 98.207031 45.488281 C 99.769531 45.367188 101.277344 45.535156 102.730469 45.988281 C 103.539062 47.675781 103.375 49.183594 102.226562 50.511719 C 100.886719 50.511719 99.546875 50.511719 98.207031 50.511719 C 98.207031 48.835938 98.207031 47.164062 98.207031 45.488281 Z M 98.207031 45.488281 "/>
<path style=" stroke:none;fill-rule:evenodd;fill:rgb(10.588235%,10.588235%,10.196078%);fill-opacity:1;" d="M 101.222656 38.953125 C 100.21875 38.953125 99.214844 38.953125 98.207031 38.953125 C 98.207031 40.628906 98.207031 42.304688 98.207031 43.980469 C 99.546875 43.980469 100.886719 43.980469 102.226562 43.980469 C 102.394531 44.648438 102.5625 45.320312 102.730469 45.988281 C 101.277344 45.535156 99.769531 45.367188 98.207031 45.488281 C 97.796875 47.066406 97.546875 48.742188 97.457031 50.511719 C 97.367188 48.742188 97.113281 47.066406 96.703125 45.488281 C 95.695312 45.488281 94.691406 45.488281 93.6875 45.488281 C 93.6875 47.164062 93.6875 48.835938 93.6875 50.511719 C 95.023438 50.722656 96.195312 51.226562 97.203125 52.019531 C 97.121094 53.371094 97.207031 54.710938 97.457031 56.042969 C 97.550781 54.765625 97.800781 53.59375 98.207031 52.523438 C 98.207031 54.199219 98.207031 55.875 98.207031 57.550781 C 99.21875 58.34375 100.390625 58.847656 101.726562 59.058594 C 100.386719 59.058594 99.046875 59.058594 97.707031 59.058594 C 97.707031 60.566406 97.707031 62.074219 97.707031 63.582031 C 98.207031 63.582031 98.710938 63.582031 99.214844 63.582031 C 98.421875 63.90625 97.75 64.40625 97.203125 65.089844 C 95.25 64.066406 93.242188 63.898438 91.175781 64.585938 C 91.296875 63.9375 91.128906 63.433594 90.671875 63.078125 C 91.03125 62.625 91.53125 62.457031 92.179688 62.574219 C 92.179688 61.234375 92.179688 59.894531 92.179688 58.554688 C 92.679688 53.953125 92.847656 49.265625 92.683594 44.480469 C 93.179688 44.566406 93.515625 44.398438 93.6875 43.980469 C 94.859375 43.980469 96.03125 43.980469 97.203125 43.980469 C 97.328125 42.25 97.160156 40.574219 96.703125 38.953125 C 98.207031 38.28125 99.714844 38.28125 101.222656 38.953125 Z M 101.222656 38.953125 "/>
<path style=" stroke:none;fill-rule:evenodd;fill:rgb(89.019608%,89.019608%,89.019608%);fill-opacity:1;" d="M 93.183594 58.554688 C 94.359375 58.554688 95.53125 58.554688 96.703125 58.554688 C 96.785156 59.738281 96.699219 60.914062 96.449219 62.074219 C 95.613281 63.179688 94.605469 63.347656 93.4375 62.574219 C 93.1875 61.246094 93.101562 59.90625 93.183594 58.554688 Z M 93.183594 58.554688 "/>
<path style=" stroke:none;fill-rule:evenodd;fill:rgb(95.686275%,95.294118%,95.294118%);fill-opacity:1;" d="M 93.6875 52.019531 C 94.691406 52.019531 95.695312 52.019531 96.703125 52.019531 C 96.703125 53.695312 96.703125 55.371094 96.703125 57.046875 C 95.695312 57.046875 94.691406 57.046875 93.6875 57.046875 C 93.6875 55.371094 93.6875 53.695312 93.6875 52.019531 Z M 93.6875 52.019531 "/>
<path style=" stroke:none;fill-rule:evenodd;fill:rgb(97.254902%,96.862745%,96.470588%);fill-opacity:1;" d="M 96.703125 45.488281 C 96.703125 47.164062 96.703125 48.835938 96.703125 50.511719 C 95.695312 50.511719 94.691406 50.511719 93.6875 50.511719 C 93.6875 48.835938 93.6875 47.164062 93.6875 45.488281 C 94.691406 45.488281 95.695312 45.488281 96.703125 45.488281 Z M 96.703125 45.488281 "/>
<path style=" stroke:none;fill-rule:evenodd;fill:rgb(3.529412%,3.921569%,3.921569%);fill-opacity:1;" d="M 86.65625 51.519531 C 85.503906 52.464844 84.164062 52.71875 82.636719 52.273438 C 80.191406 51.605469 78.015625 50.515625 76.105469 49.003906 C 76.003906 48.054688 76.339844 47.300781 77.109375 46.742188 C 79.75 45.082031 82.597656 44.242188 85.648438 44.230469 C 87.136719 45.984375 86.804688 47.324219 84.644531 48.25 C 86.25 48.765625 86.917969 49.855469 86.65625 51.519531 Z M 86.65625 51.519531 "/>
<path style=" stroke:none;fill-rule:evenodd;fill:rgb(81.176471%,84.705882%,87.45098%);fill-opacity:1;" d="M 23.863281 50.011719 C 25.90625 51.082031 28.082031 51.753906 30.390625 52.019531 C 30.726562 52.019531 31.0625 52.019531 31.398438 52.019531 C 34.222656 53.445312 34.558594 55.289062 32.402344 57.550781 C 30.792969 58.253906 29.121094 58.753906 27.378906 59.058594 C 26.25 59.414062 25.078125 59.664062 23.863281 59.8125 C 26.847656 60.558594 29.859375 61.144531 32.902344 61.570312 C 34.03125 61.925781 35.035156 62.429688 35.917969 63.078125 C 30.761719 65.566406 25.488281 65.730469 20.09375 63.582031 C 19.554688 63.59375 19.136719 63.761719 18.839844 64.082031 C 18.285156 64.535156 18.285156 64.953125 18.839844 65.339844 C 19.796875 65.902344 20.800781 66.324219 21.851562 66.597656 C 21.890625 67.226562 22.226562 67.644531 22.855469 67.851562 C 21.695312 68.101562 20.523438 68.1875 19.339844 68.105469 C 13.230469 65.261719 8.460938 60.90625 5.023438 55.035156 C 2.613281 50.425781 2.695312 45.902344 5.273438 41.464844 C 7.699219 40.457031 9.960938 39.117188 12.054688 37.445312 C 12.308594 37.613281 12.558594 37.78125 12.808594 37.949219 C 12.140625 38.617188 11.46875 39.289062 10.800781 39.957031 C 12.382812 41.40625 13.136719 43.246094 13.0625 45.488281 C 16.703125 46.878906 20.300781 48.386719 23.863281 50.011719 Z M 23.863281 50.011719 "/>
<path style=" stroke:none;fill-rule:evenodd;fill:rgb(36.078431%,41.568627%,43.921569%);fill-opacity:1;" d="M 18.335938 38.953125 C 22.78125 38.789062 27.136719 38.957031 31.398438 39.457031 C 30.210938 39.375 29.039062 39.457031 27.878906 39.707031 C 34.34375 40.710938 40.035156 43.308594 44.960938 47.496094 C 44.195312 48.03125 43.359375 48.367188 42.449219 48.503906 C 41.945312 48.503906 41.445312 48.503906 40.941406 48.503906 C 41.238281 48.175781 41.574219 47.839844 41.945312 47.496094 C 33.746094 43.28125 25.039062 40.855469 15.824219 40.210938 C 16.53125 39.519531 17.371094 39.101562 18.335938 38.953125 Z M 18.335938 38.953125 "/>
<path style=" stroke:none;fill-rule:evenodd;fill:rgb(72.156863%,77.647059%,80.392157%);fill-opacity:1;" d="M 18.335938 29.90625 C 19.226562 30.316406 19.476562 30.984375 19.089844 31.917969 C 18.382812 32.5625 17.628906 33.148438 16.828125 33.675781 C 18.082031 33.617188 19.421875 33.785156 20.847656 34.179688 C 21.554688 34.363281 22.058594 34.78125 22.355469 35.433594 C 21.59375 37.371094 20.257812 38.546875 18.335938 38.953125 C 17.371094 39.101562 16.53125 39.519531 15.824219 40.210938 C 25.039062 40.855469 33.746094 43.28125 41.945312 47.496094 C 41.574219 47.839844 41.238281 48.175781 40.941406 48.503906 C 35.1875 49.132812 29.496094 49.636719 23.863281 50.011719 C 20.300781 48.386719 16.703125 46.878906 13.0625 45.488281 C 13.136719 43.246094 12.382812 41.40625 10.800781 39.957031 C 11.46875 39.289062 12.140625 38.617188 12.808594 37.949219 C 12.558594 37.78125 12.308594 37.613281 12.054688 37.445312 C 9.960938 39.117188 7.699219 40.457031 5.273438 41.464844 C 8.378906 36.179688 12.734375 32.324219 18.335938 29.90625 Z M 18.335938 29.90625 "/>
<path style=" stroke:none;fill-rule:evenodd;fill:rgb(52.54902%,62.745098%,68.235294%);fill-opacity:1;" d="M 73.089844 18.847656 C 76.207031 18.835938 79.222656 19.339844 82.132812 20.355469 C 82.519531 20.738281 82.769531 21.242188 82.886719 21.863281 C 83.222656 25.382812 83.222656 28.902344 82.886719 32.417969 C 82.523438 33.648438 82.019531 34.824219 81.378906 35.9375 C 79.84375 37.5625 78.25 39.070312 76.609375 40.460938 C 74.847656 41.84375 72.835938 42.679688 70.578125 42.972656 C 69.429688 42.914062 68.425781 42.492188 67.566406 41.71875 C 65.289062 39.269531 62.859375 37.007812 60.28125 34.933594 C 58.921875 32.777344 58.335938 30.433594 58.523438 27.894531 C 58.921875 25.484375 60.261719 23.808594 62.542969 22.867188 C 62.453125 23.933594 62.621094 24.941406 63.042969 25.886719 C 61.894531 35.039062 65.914062 39.144531 75.101562 38.199219 C 78.160156 37.652344 80.085938 35.890625 80.878906 32.921875 C 82.144531 29.480469 81.726562 26.296875 79.621094 23.371094 C 79.679688 23.0625 79.84375 22.808594 80.125 22.617188 C 78.117188 20.644531 75.773438 19.386719 73.089844 18.847656 Z M 73.089844 18.847656 "/>
<path style=" stroke:none;fill-rule:evenodd;fill:rgb(90.196078%,91.372549%,92.156863%);fill-opacity:1;" d="M 82.132812 20.355469 C 82.511719 19.816406 83.011719 19.734375 83.640625 20.105469 C 86.402344 22.34375 87.824219 25.277344 87.910156 28.902344 C 88.257812 28.277344 88.507812 28.277344 88.664062 28.902344 C 87.730469 31.757812 88.820312 33.433594 91.929688 33.925781 C 92.378906 37.433594 92.628906 40.949219 92.683594 44.480469 C 92.847656 49.265625 92.679688 53.953125 92.179688 58.554688 C 92.265625 54.027344 92.179688 49.503906 91.929688 44.984375 C 90.625 47.375 89.453125 49.890625 88.414062 52.523438 C 87.855469 52.117188 87.269531 51.785156 86.65625 51.519531 C 86.917969 49.855469 86.25 48.765625 84.644531 48.25 C 86.804688 47.324219 87.136719 45.984375 85.648438 44.230469 C 82.597656 44.242188 79.75 45.082031 77.109375 46.742188 C 76.339844 47.300781 76.003906 48.054688 76.105469 49.003906 C 75.265625 48.160156 74.847656 47.15625 74.851562 45.988281 C 75.566406 45.632812 76.320312 45.546875 77.109375 45.738281 C 76.535156 42.726562 77.707031 41.132812 80.625 40.964844 C 80.375 40.460938 80.125 39.957031 79.875 39.457031 C 78.765625 39.359375 77.679688 39.695312 76.609375 40.460938 C 78.25 39.070312 79.84375 37.5625 81.378906 35.9375 C 82.019531 34.824219 82.523438 33.648438 82.886719 32.417969 C 83.222656 28.902344 83.222656 25.382812 82.886719 21.863281 C 82.769531 21.242188 82.519531 20.738281 82.132812 20.355469 Z M 82.132812 20.355469 "/>
<path style=" stroke:none;fill-rule:evenodd;fill:rgb(19.607843%,23.529412%,25.882353%);fill-opacity:1;" d="M 35.414062 34.933594 C 36.300781 35.414062 37.304688 35.582031 38.429688 35.433594 C 37.761719 35.769531 37.089844 36.105469 36.421875 36.441406 C 35.839844 35.875 35.339844 35.875 34.914062 36.441406 C 31.820312 35.507812 28.640625 34.917969 25.367188 34.679688 C 28.804688 33.65625 32.152344 33.742188 35.414062 34.933594 Z M 35.414062 34.933594 "/>
<path style=" stroke:none;fill-rule:evenodd;fill:rgb(42.352941%,46.666667%,49.019608%);fill-opacity:1;" d="M 41.445312 29.402344 C 42.035156 29.292969 42.535156 29.460938 42.949219 29.90625 C 41.160156 30.238281 40.742188 31.074219 41.695312 32.417969 C 42.269531 31.9375 42.773438 32.105469 43.203125 32.921875 C 44.121094 32.292969 45.042969 32.292969 45.964844 32.921875 C 44.203125 37.90625 41.019531 39.078125 36.421875 36.441406 C 37.089844 36.105469 37.761719 35.769531 38.429688 35.433594 C 39.652344 35.527344 40.742188 35.191406 41.695312 34.429688 C 41.207031 33.574219 40.621094 32.652344 39.9375 31.664062 C 40.136719 30.667969 40.640625 29.914062 41.445312 29.402344 Z M 41.445312 29.402344 "/>
<path style=" stroke:none;fill-rule:evenodd;fill:rgb(48.627451%,54.509804%,58.039216%);fill-opacity:1;" d="M 35.414062 34.933594 C 32.152344 33.742188 28.804688 33.65625 25.367188 34.679688 C 28.640625 34.917969 31.820312 35.507812 34.914062 36.441406 C 37.941406 37.710938 40.453125 39.636719 42.449219 42.21875 C 38.839844 41.179688 35.15625 40.257812 31.398438 39.457031 C 27.136719 38.957031 22.78125 38.789062 18.335938 38.953125 C 20.257812 38.546875 21.59375 37.371094 22.355469 35.433594 C 22.058594 34.78125 21.554688 34.363281 20.847656 34.179688 C 19.421875 33.785156 18.082031 33.617188 16.828125 33.675781 C 17.628906 33.148438 18.382812 32.5625 19.089844 31.917969 C 19.476562 30.984375 19.226562 30.316406 18.335938 29.90625 C 24.929688 26.773438 31.628906 26.605469 38.429688 29.402344 C 38.070312 30.179688 37.484375 30.683594 36.671875 30.910156 C 32.742188 29.808594 28.808594 29.722656 24.867188 30.660156 C 28.949219 30.695312 32.964844 31.199219 36.921875 32.167969 C 39.769531 34.40625 39.265625 35.328125 35.414062 34.933594 Z M 35.414062 34.933594 "/>
<path style=" stroke:none;fill-rule:evenodd;fill:rgb(92.941176%,93.72549%,94.901961%);fill-opacity:1;" d="M 58.523438 27.894531 C 58.335938 30.433594 58.921875 32.777344 60.28125 34.933594 C 62.859375 37.007812 65.289062 39.269531 67.566406 41.71875 C 68.425781 42.492188 69.429688 42.914062 70.578125 42.972656 C 72.835938 42.679688 74.847656 41.84375 76.609375 40.460938 C 77.679688 39.695312 78.765625 39.359375 79.875 39.457031 C 80.125 39.957031 80.375 40.460938 80.625 40.964844 C 77.707031 41.132812 76.535156 42.726562 77.109375 45.738281 C 76.320312 45.546875 75.566406 45.632812 74.851562 45.988281 C 74.847656 47.15625 75.265625 48.160156 76.105469 49.003906 C 78.015625 50.515625 80.191406 51.605469 82.636719 52.273438 C 84.164062 52.71875 85.503906 52.464844 86.65625 51.519531 C 87.269531 51.785156 87.855469 52.117188 88.414062 52.523438 C 89.453125 49.890625 90.625 47.375 91.929688 44.984375 C 92.179688 49.503906 92.265625 54.027344 92.179688 58.554688 C 92.179688 59.894531 92.179688 61.234375 92.179688 62.574219 C 91.53125 62.457031 91.03125 62.625 90.671875 63.078125 C 88.539062 63.625 87.785156 64.964844 88.414062 67.097656 C 90.460938 69.058594 90.628906 71.238281 88.914062 73.632812 C 87.882812 77.011719 85.625 78.9375 82.132812 79.414062 C 73.875 79.578125 65.667969 80.164062 57.519531 81.171875 C 55.976562 80.910156 54.46875 80.492188 52.996094 79.917969 C 48.953125 77.382812 45.351562 74.28125 42.195312 70.617188 C 40.566406 68.878906 40.652344 67.203125 42.449219 65.589844 C 44.195312 64.113281 45.449219 62.269531 46.214844 60.0625 C 46.808594 57.347656 46.304688 57.011719 44.707031 59.058594 C 44.625 58.722656 44.542969 58.386719 44.457031 58.050781 C 45.617188 54.71875 46.789062 51.371094 47.972656 48 C 48.003906 47.441406 48.171875 46.941406 48.476562 46.492188 C 48.839844 46.28125 49.089844 45.945312 49.230469 45.488281 C 49.480469 42.140625 49.566406 38.789062 49.480469 35.433594 C 52.175781 32.574219 55.191406 30.058594 58.523438 27.894531 Z M 58.523438 27.894531 "/>
<path style=" stroke:none;fill-rule:evenodd;fill:rgb(0.392157%,0.784314%,1.568627%);fill-opacity:1;" d="M 78.113281 73.632812 C 75.40625 74.828125 72.558594 75.332031 69.574219 75.140625 C 63.980469 73.335938 61.71875 69.480469 62.792969 63.582031 C 65.636719 56.933594 70.410156 55.007812 77.109375 57.800781 C 80.960938 60.597656 82.214844 64.367188 80.878906 69.109375 C 80.210938 70.78125 79.289062 72.292969 78.113281 73.632812 Z M 78.113281 73.632812 "/>
<path style=" stroke:none;fill-rule:evenodd;fill:rgb(49.411765%,62.745098%,70.196078%);fill-opacity:1;" d="M 78.113281 73.632812 C 79.289062 72.292969 80.210938 70.78125 80.878906 69.109375 C 82.214844 64.367188 80.960938 60.597656 77.109375 57.800781 C 70.410156 55.007812 65.636719 56.933594 62.792969 63.582031 C 61.71875 69.480469 63.980469 73.335938 69.574219 75.140625 C 65.101562 75.785156 61.835938 73.941406 59.78125 69.613281 C 58.285156 61.96875 61.214844 56.691406 68.570312 53.78125 C 70.460938 53.410156 72.300781 53.578125 74.097656 54.28125 C 76.1875 55.75 78.367188 57.089844 80.625 58.304688 C 81.40625 58.914062 81.992188 59.667969 82.386719 60.566406 C 84.5 66.21875 83.160156 70.742188 78.367188 74.136719 C 78.164062 74.023438 78.082031 73.855469 78.113281 73.632812 Z M 78.113281 73.632812 "/>
<path style=" stroke:none;fill-rule:evenodd;fill:rgb(51.372549%,56.078431%,58.823529%);fill-opacity:1;" d="M 44.960938 25.382812 C 46.042969 26.535156 47.132812 27.707031 48.226562 28.902344 C 48.871094 28.675781 49.457031 28.339844 49.984375 27.894531 C 50.152344 28.398438 50.320312 28.902344 50.484375 29.402344 C 50.085938 31.410156 49.75 33.417969 49.480469 35.433594 C 49.566406 38.789062 49.480469 42.140625 49.230469 45.488281 C 49.089844 45.945312 48.839844 46.28125 48.476562 46.492188 C 46.882812 46.492188 45.457031 45.988281 44.207031 44.984375 C 43.871094 44.480469 43.871094 43.980469 44.207031 43.476562 C 44.828125 43.023438 45.246094 42.4375 45.460938 41.71875 C 44.472656 40.882812 43.46875 40.046875 42.449219 39.203125 C 44.515625 38.308594 46.105469 36.886719 47.21875 34.933594 C 48.382812 33.054688 47.964844 32.382812 45.964844 32.921875 C 45.042969 32.292969 44.121094 32.292969 43.203125 32.921875 C 42.773438 32.105469 42.269531 31.9375 41.695312 32.417969 C 40.742188 31.074219 41.160156 30.238281 42.949219 29.90625 C 42.535156 29.460938 42.035156 29.292969 41.445312 29.402344 C 42.382812 27.855469 43.554688 26.515625 44.960938 25.382812 Z M 44.960938 25.382812 "/>
<path style=" stroke:none;fill-rule:evenodd;fill:rgb(4.313725%,3.529412%,3.921569%);fill-opacity:1;" d="M 63.546875 7.789062 C 63.664062 8.574219 64 9.246094 64.550781 9.800781 C 64.6875 10.769531 65.191406 11.441406 66.058594 11.8125 C 65.847656 12.125 65.515625 12.292969 65.054688 12.3125 C 64.367188 11.949219 63.699219 11.613281 63.042969 11.308594 C 59.570312 9.40625 55.886719 8.738281 51.992188 9.296875 C 51.1875 10.710938 50.683594 12.21875 50.484375 13.820312 C 50.015625 15.132812 49.175781 16.136719 47.972656 16.835938 C 47.714844 14.140625 48.214844 11.628906 49.480469 9.296875 C 48.65625 7.953125 47.484375 6.949219 45.964844 6.28125 C 42.1875 4.269531 38.171875 3.347656 33.910156 3.519531 C 32.871094 4.847656 32.03125 6.269531 31.398438 7.789062 C 27.320312 13.09375 24.140625 18.957031 21.851562 25.382812 C 22.453125 25.78125 23.125 25.78125 23.863281 25.382812 C 28.9375 25.046875 33.878906 25.714844 38.679688 27.394531 C 40.492188 26.835938 41.75 25.664062 42.449219 23.875 C 42.902344 23.519531 43.070312 23.015625 42.949219 22.367188 C 43.632812 22.933594 44.304688 22.933594 44.960938 22.367188 C 44.445312 21.519531 43.777344 20.847656 42.949219 20.355469 C 42.785156 19.851562 42.449219 19.519531 41.945312 19.351562 C 40.914062 18.316406 39.742188 17.480469 38.429688 16.835938 C 39.140625 16.359375 39.980469 16.191406 40.941406 16.335938 C 41.277344 16.335938 41.609375 16.335938 41.945312 16.335938 C 43.464844 17.042969 45.054688 17.710938 46.71875 18.34375 C 47.371094 18.277344 47.789062 17.941406 47.972656 17.339844 C 48.980469 17.339844 49.480469 17.84375 49.480469 18.847656 C 47.992188 20.667969 46.988281 22.511719 46.46875 24.378906 C 45.699219 24.339844 45.199219 24.675781 44.960938 25.382812 C 43.554688 26.515625 42.382812 27.855469 41.445312 29.402344 C 40.640625 29.914062 40.136719 30.667969 39.9375 31.664062 C 40.621094 32.652344 41.207031 33.574219 41.695312 34.429688 C 40.742188 35.191406 39.652344 35.527344 38.429688 35.433594 C 37.304688 35.582031 36.300781 35.414062 35.414062 34.933594 C 39.265625 35.328125 39.769531 34.40625 36.921875 32.167969 C 32.964844 31.199219 28.949219 30.695312 24.867188 30.660156 C 28.808594 29.722656 32.742188 29.808594 36.671875 30.910156 C 37.484375 30.683594 38.070312 30.179688 38.429688 29.402344 C 31.628906 26.605469 24.929688 26.773438 18.335938 29.90625 C 12.734375 32.324219 8.378906 36.179688 5.273438 41.464844 C 2.695312 45.902344 2.613281 50.425781 5.023438 55.035156 C 8.460938 60.90625 13.230469 65.261719 19.339844 68.105469 C 23.457031 70.113281 27.808594 70.617188 32.402344 69.613281 C 32.359375 70.113281 32.527344 70.53125 32.902344 70.867188 C 29.902344 71.285156 26.886719 71.539062 23.863281 71.621094 C 23.214844 71.503906 22.710938 71.671875 22.355469 72.125 C 22.027344 71.972656 21.691406 71.804688 21.351562 71.621094 C 20.75 71.796875 20.75 72.046875 21.351562 72.378906 C 21.050781 72.609375 20.714844 72.695312 20.34375 72.628906 C 19.96875 72.109375 19.632812 71.523438 19.339844 70.867188 C 8.742188 66.550781 2.546875 58.761719 0.753906 47.496094 C 3.328125 37.460938 9.441406 30.425781 19.089844 26.386719 C 22.332031 17.128906 26.9375 8.667969 32.902344 1.003906 C 39.71875 0.894531 45.914062 2.820312 51.492188 6.785156 C 55.269531 6.300781 58.953125 6.804688 62.542969 8.292969 C 62.886719 8.109375 63.21875 7.941406 63.546875 7.789062 Z M 63.546875 7.789062 "/>
<path style=" stroke:none;fill-rule:evenodd;fill:rgb(80%,81.176471%,80.784314%);fill-opacity:1;" d="M 63.042969 21.359375 C 62.738281 21.808594 62.570312 22.3125 62.542969 22.867188 C 60.261719 23.808594 58.921875 25.484375 58.523438 27.894531 C 55.191406 30.058594 52.175781 32.574219 49.480469 35.433594 C 49.75 33.417969 50.085938 31.410156 50.484375 29.402344 C 50.320312 28.902344 50.152344 28.398438 49.984375 27.894531 C 49.457031 28.339844 48.871094 28.675781 48.226562 28.902344 C 47.132812 27.707031 46.042969 26.535156 44.960938 25.382812 C 45.199219 24.675781 45.699219 24.339844 46.46875 24.378906 C 48.046875 24.257812 49.554688 23.839844 50.988281 23.121094 C 54.703125 20.203125 58.722656 19.617188 63.042969 21.359375 Z M 63.042969 21.359375 "/>
<path style=" stroke:none;fill-rule:evenodd;fill:rgb(65.490196%,32.941176%,6.27451%);fill-opacity:1;" d="M 41.945312 22.367188 C 42.398438 22.722656 42.566406 23.226562 42.449219 23.875 C 41.75 25.664062 40.492188 26.835938 38.679688 27.394531 C 33.878906 25.714844 28.9375 25.046875 23.863281 25.382812 C 24.707031 24.625 25.710938 24.121094 26.875 23.875 C 31.398438 23.957031 35.921875 23.875 40.4375 23.621094 C 41.253906 23.503906 41.753906 23.085938 41.945312 22.367188 Z M 41.945312 22.367188 "/>
<path style=" stroke:none;fill-rule:evenodd;fill:rgb(80.784314%,44.705882%,6.27451%);fill-opacity:1;" d="M 41.445312 20.355469 C 40.890625 20.886719 40.222656 21.308594 39.433594 21.613281 C 40.378906 21.710938 41.21875 21.964844 41.945312 22.367188 C 41.753906 23.085938 41.253906 23.503906 40.4375 23.621094 C 35.921875 23.875 31.398438 23.957031 26.875 23.875 C 28.035156 23.097656 29.375 22.761719 30.894531 22.867188 C 32.65625 22.996094 34.414062 23.164062 36.167969 23.371094 C 37.167969 23.335938 37.921875 23.003906 38.429688 22.367188 C 38.09375 21.6875 38.09375 21.101562 38.429688 20.605469 C 39.421875 20.359375 40.425781 20.273438 41.445312 20.355469 Z M 41.445312 20.355469 "/>
<path style=" stroke:none;fill-rule:evenodd;fill:rgb(72.941176%,56.078431%,37.647059%);fill-opacity:1;" d="M 42.949219 20.355469 C 43.777344 20.847656 44.445312 21.519531 44.960938 22.367188 C 44.304688 22.933594 43.632812 22.933594 42.949219 22.367188 C 42.738281 21.542969 42.738281 20.871094 42.949219 20.355469 Z M 42.949219 20.355469 "/>
<path style=" stroke:none;fill-rule:evenodd;fill:rgb(68.235294%,70.588235%,70.980392%);fill-opacity:1;" d="M 88.664062 28.902344 C 88.507812 28.277344 88.257812 28.277344 87.910156 28.902344 C 87.824219 25.277344 86.402344 22.34375 83.640625 20.105469 C 83.011719 19.734375 82.511719 19.816406 82.132812 20.355469 C 79.222656 19.339844 76.207031 18.835938 73.089844 18.847656 C 69.300781 18.214844 65.953125 19.050781 63.042969 21.359375 C 58.722656 19.617188 54.703125 20.203125 50.988281 23.121094 C 49.554688 23.839844 48.046875 24.257812 46.46875 24.378906 C 46.988281 22.511719 47.992188 20.667969 49.480469 18.847656 C 52.703125 15.871094 56.554688 14.363281 61.035156 14.324219 C 64.105469 14.589844 67.121094 15.175781 70.078125 16.082031 C 74.597656 16.25 79.121094 16.417969 83.640625 16.585938 C 87.367188 18.753906 89.546875 22.023438 90.171875 26.386719 C 89.855469 27.363281 89.355469 28.203125 88.664062 28.902344 Z M 88.664062 28.902344 "/>
<path style=" stroke:none;fill-rule:evenodd;fill:rgb(42.745098%,19.215686%,4.705882%);fill-opacity:1;" d="M 41.945312 19.351562 C 42.449219 19.519531 42.785156 19.851562 42.949219 20.355469 C 42.738281 20.871094 42.738281 21.542969 42.949219 22.367188 C 43.070312 23.015625 42.902344 23.519531 42.449219 23.875 C 42.566406 23.226562 42.398438 22.722656 41.945312 22.367188 C 41.21875 21.964844 40.378906 21.710938 39.433594 21.613281 C 40.222656 21.308594 40.890625 20.886719 41.445312 20.355469 C 41.863281 20.183594 42.03125 19.847656 41.945312 19.351562 Z M 41.945312 19.351562 "/>
<path style=" stroke:none;fill-rule:evenodd;fill:rgb(0.784314%,1.176471%,1.568627%);fill-opacity:1;" d="M 79.621094 23.371094 C 81.726562 26.296875 82.144531 29.480469 80.878906 32.921875 C 80.085938 35.890625 78.160156 37.652344 75.101562 38.199219 C 65.914062 39.144531 61.894531 35.039062 63.042969 25.886719 C 65.738281 21.273438 69.757812 19.511719 75.101562 20.605469 C 76.9375 21.027344 78.445312 21.949219 79.621094 23.371094 Z M 79.621094 23.371094 "/>
<path style=" stroke:none;fill-rule:evenodd;fill:rgb(49.803922%,52.54902%,52.941176%);fill-opacity:1;" d="M 73.089844 18.847656 C 75.773438 19.386719 78.117188 20.644531 80.125 22.617188 C 79.84375 22.808594 79.679688 23.0625 79.621094 23.371094 C 78.445312 21.949219 76.9375 21.027344 75.101562 20.605469 C 69.757812 19.511719 65.738281 21.273438 63.042969 25.886719 C 62.621094 24.941406 62.453125 23.933594 62.542969 22.867188 C 62.570312 22.3125 62.738281 21.808594 63.042969 21.359375 C 65.953125 19.050781 69.300781 18.214844 73.089844 18.847656 Z M 73.089844 18.847656 "/>
<path style=" stroke:none;fill-rule:evenodd;fill:rgb(92.156863%,57.254902%,14.509804%);fill-opacity:1;" d="M 36.921875 15.832031 C 37.320312 16.285156 37.820312 16.621094 38.429688 16.835938 C 39.742188 17.480469 40.914062 18.316406 41.945312 19.351562 C 42.03125 19.847656 41.863281 20.183594 41.445312 20.355469 C 40.425781 20.273438 39.421875 20.359375 38.429688 20.605469 C 38.09375 21.101562 38.09375 21.6875 38.429688 22.367188 C 36.742188 21.1875 34.898438 20.265625 32.902344 19.601562 C 32.265625 16.507812 33.605469 15.25 36.921875 15.832031 Z M 36.921875 15.832031 "/>
<path style=" stroke:none;fill-rule:evenodd;fill:rgb(98.823529%,73.333333%,26.27451%);fill-opacity:1;" d="M 38.933594 15.832031 C 38.261719 15.832031 37.59375 15.832031 36.921875 15.832031 C 33.605469 15.25 32.265625 16.507812 32.902344 19.601562 C 34.898438 20.265625 36.742188 21.1875 38.429688 22.367188 C 37.921875 23.003906 37.167969 23.335938 36.167969 23.371094 C 34.414062 23.164062 32.65625 22.996094 30.894531 22.867188 C 29.375 22.761719 28.035156 23.097656 26.875 23.875 C 25.710938 24.121094 24.707031 24.625 23.863281 25.382812 C 23.125 25.78125 22.453125 25.78125 21.851562 25.382812 C 24.140625 18.957031 27.320312 13.09375 31.398438 7.789062 C 32.34375 7.066406 33.183594 6.230469 33.910156 5.277344 C 34.351562 4.863281 34.519531 4.359375 34.410156 3.769531 C 35.152344 3.636719 35.824219 3.804688 36.421875 4.273438 C 36.15625 4.621094 35.820312 4.871094 35.414062 5.027344 C 37.449219 7.570312 39.792969 10.085938 42.449219 12.566406 C 40.421875 13.003906 38.410156 13.507812 36.421875 14.074219 C 37.152344 14.890625 37.988281 15.476562 38.933594 15.832031 Z M 38.933594 15.832031 "/>
<path style=" stroke:none;fill-rule:evenodd;fill:rgb(33.333333%,17.254902%,4.313725%);fill-opacity:1;" d="M 36.921875 15.832031 C 37.59375 15.832031 38.261719 15.832031 38.933594 15.832031 C 39.601562 15.832031 40.273438 15.832031 40.941406 15.832031 C 40.941406 16 40.941406 16.167969 40.941406 16.335938 C 39.980469 16.191406 39.140625 16.359375 38.429688 16.835938 C 37.820312 16.621094 37.320312 16.285156 36.921875 15.832031 Z M 36.921875 15.832031 "/>
<path style=" stroke:none;fill-rule:evenodd;fill:rgb(95.686275%,67.058824%,20.784314%);fill-opacity:1;" d="M 45.964844 6.28125 C 45.964844 6.449219 45.964844 6.617188 45.964844 6.785156 C 45.300781 6.699219 44.714844 6.867188 44.207031 7.289062 C 43.308594 8.585938 42.554688 9.925781 41.945312 11.308594 C 43.660156 11.25 44.328125 12.089844 43.957031 13.820312 C 42.605469 13.738281 41.265625 13.824219 39.9375 14.074219 C 40.339844 14.632812 40.675781 15.21875 40.941406 15.832031 C 40.273438 15.832031 39.601562 15.832031 38.933594 15.832031 C 37.988281 15.476562 37.152344 14.890625 36.421875 14.074219 C 38.410156 13.507812 40.421875 13.003906 42.449219 12.566406 C 39.792969 10.085938 37.449219 7.570312 35.414062 5.027344 C 35.820312 4.871094 36.15625 4.621094 36.421875 4.273438 C 35.824219 3.804688 35.152344 3.636719 34.410156 3.769531 C 34.519531 4.359375 34.351562 4.863281 33.910156 5.277344 C 33.183594 6.230469 32.34375 7.066406 31.398438 7.789062 C 32.03125 6.269531 32.871094 4.847656 33.910156 3.519531 C 38.171875 3.347656 42.1875 4.269531 45.964844 6.28125 Z M 45.964844 6.28125 "/>
<path style=" stroke:none;fill-rule:evenodd;fill:rgb(76.862745%,46.27451%,13.72549%);fill-opacity:1;" d="M 45.964844 6.28125 C 47.484375 6.949219 48.65625 7.953125 49.480469 9.296875 C 48.214844 11.628906 47.714844 14.140625 47.972656 16.835938 C 47.972656 17.003906 47.972656 17.171875 47.972656 17.339844 C 47.789062 17.941406 47.371094 18.277344 46.71875 18.34375 C 45.054688 17.710938 43.464844 17.042969 41.945312 16.335938 C 43.398438 15.71875 44.820312 15.050781 46.214844 14.324219 C 46.558594 13.082031 46.140625 12.160156 44.960938 11.558594 C 45.242188 10.71875 45.746094 10.046875 46.46875 9.550781 C 46.0625 9.394531 45.726562 9.144531 45.460938 8.796875 C 45.933594 8.800781 46.269531 8.550781 46.46875 8.042969 C 46.34375 7.589844 46.175781 7.167969 45.964844 6.785156 C 45.964844 6.617188 45.964844 6.449219 45.964844 6.28125 Z M 45.964844 6.28125 "/>
<path style=" stroke:none;fill-rule:evenodd;fill:rgb(53.333333%,51.764706%,49.803922%);fill-opacity:1;" d="M 80.125 9.296875 C 81.003906 10.628906 81.507812 12.136719 81.632812 13.820312 C 78.125 13.402344 74.605469 13.316406 71.082031 13.570312 C 69.792969 13.117188 68.621094 12.53125 67.566406 11.8125 C 68.296875 10.664062 69.300781 9.742188 70.578125 9.046875 C 73.492188 8.605469 76.339844 8.855469 79.121094 9.800781 C 79.578125 9.78125 79.914062 9.613281 80.125 9.296875 Z M 80.125 9.296875 "/>
<path style=" stroke:none;fill-rule:evenodd;fill:rgb(14.509804%,36.470588%,47.058824%);fill-opacity:1;" d="M 63.042969 11.308594 C 63.101562 11.621094 63.269531 11.871094 63.546875 12.0625 C 59.070312 11.757812 54.886719 12.679688 50.988281 14.828125 C 50.585938 14.597656 50.421875 14.261719 50.484375 13.820312 C 50.683594 12.21875 51.1875 10.710938 51.992188 9.296875 C 55.886719 8.738281 59.570312 9.40625 63.042969 11.308594 Z M 63.042969 11.308594 "/>
<path style=" stroke:none;fill-rule:evenodd;fill:rgb(83.137255%,50.980392%,10.588235%);fill-opacity:1;" d="M 45.964844 6.785156 C 46.175781 7.167969 46.34375 7.589844 46.46875 8.042969 C 46.269531 8.550781 45.933594 8.800781 45.460938 8.796875 C 45.726562 9.144531 46.0625 9.394531 46.46875 9.550781 C 45.746094 10.046875 45.242188 10.71875 44.960938 11.558594 C 46.140625 12.160156 46.558594 13.082031 46.214844 14.324219 C 44.820312 15.050781 43.398438 15.71875 41.945312 16.335938 C 41.609375 16.335938 41.277344 16.335938 40.941406 16.335938 C 40.941406 16.167969 40.941406 16 40.941406 15.832031 C 40.675781 15.21875 40.339844 14.632812 39.9375 14.074219 C 41.265625 13.824219 42.605469 13.738281 43.957031 13.820312 C 44.328125 12.089844 43.660156 11.25 41.945312 11.308594 C 42.554688 9.925781 43.308594 8.585938 44.207031 7.289062 C 44.714844 6.867188 45.300781 6.699219 45.964844 6.785156 Z M 45.964844 6.785156 "/>
<path style=" stroke:none;fill-rule:evenodd;fill:rgb(68.235294%,69.803922%,70.196078%);fill-opacity:1;" d="M 80.125 9.296875 C 79.914062 9.613281 79.578125 9.78125 79.121094 9.800781 C 76.339844 8.855469 73.492188 8.605469 70.578125 9.046875 C 69.300781 9.742188 68.296875 10.664062 67.566406 11.8125 C 67.0625 11.8125 66.5625 11.8125 66.058594 11.8125 C 65.191406 11.441406 64.6875 10.769531 64.550781 9.800781 C 67.929688 5.097656 72.28125 4.011719 77.613281 6.535156 C 78.554688 7.390625 79.390625 8.3125 80.125 9.296875 Z M 80.125 9.296875 "/>
<use xlink:href="#surface8" mask="url(#mask1)"/>
<path style=" stroke:none;fill-rule:evenodd;fill:rgb(91.372549%,92.156863%,92.941176%);fill-opacity:1;" d="M 77.613281 82.179688 C 78.832031 82.023438 80.003906 82.191406 81.128906 82.679688 C 78.335938 89.558594 73.648438 91.316406 67.0625 87.957031 C 65.335938 86.625 65.167969 85.199219 66.5625 83.6875 C 68.101562 83.949219 69.609375 84.367188 71.082031 84.941406 C 73.316406 85.503906 75.328125 85.082031 77.109375 83.6875 C 77.425781 83.226562 77.59375 82.722656 77.613281 82.179688 Z M 77.613281 82.179688 "/>
<path style=" stroke:none;fill-rule:evenodd;fill:rgb(50.196078%,49.411765%,47.843137%);fill-opacity:1;" d="M 77.613281 82.179688 C 77.59375 82.722656 77.425781 83.226562 77.109375 83.6875 C 75.328125 85.082031 73.316406 85.503906 71.082031 84.941406 C 69.609375 84.367188 68.101562 83.949219 66.5625 83.6875 C 69.992188 81.707031 73.675781 81.203125 77.613281 82.179688 Z M 77.613281 82.179688 "/>
<path style=" stroke:none;fill-rule:evenodd;fill:rgb(87.843137%,88.235294%,87.843137%);fill-opacity:1;" d="M 97.203125 65.089844 C 98.167969 65.675781 98.585938 66.511719 98.460938 67.601562 C 95.214844 69.289062 92.367188 68.789062 89.921875 66.09375 C 89.660156 65.09375 90.078125 64.59375 91.175781 64.585938 C 93.242188 63.898438 95.25 64.066406 97.203125 65.089844 Z M 97.203125 65.089844 "/>
<path style=" stroke:none;fill-rule:evenodd;fill:rgb(92.156863%,89.411765%,87.843137%);fill-opacity:1;" d="M 101.222656 38.953125 C 101.722656 38.910156 102.140625 39.078125 102.480469 39.457031 C 102.847656 41.007812 102.765625 42.515625 102.226562 43.980469 C 100.886719 43.980469 99.546875 43.980469 98.207031 43.980469 C 98.207031 42.304688 98.207031 40.628906 98.207031 38.953125 C 99.214844 38.953125 100.21875 38.953125 101.222656 38.953125 Z M 101.222656 38.953125 "/>
<path style=" stroke:none;fill-rule:evenodd;fill:rgb(92.156863%,91.372549%,90.196078%);fill-opacity:1;" d="M 96.703125 38.953125 C 97.160156 40.574219 97.328125 42.25 97.203125 43.980469 C 96.03125 43.980469 94.859375 43.980469 93.6875 43.980469 C 93.6875 42.304688 93.6875 40.628906 93.6875 38.953125 C 94.691406 38.953125 95.695312 38.953125 96.703125 38.953125 Z M 96.703125 38.953125 "/>
<path style=" stroke:none;fill-rule:evenodd;fill:rgb(90.588235%,88.627451%,87.058824%);fill-opacity:1;" d="M 94.191406 32.921875 C 95.015625 32.8125 95.769531 32.980469 96.449219 33.425781 C 96.699219 34.753906 96.785156 36.09375 96.703125 37.445312 C 95.53125 37.445312 94.359375 37.445312 93.183594 37.445312 C 92.980469 35.757812 93.316406 34.25 94.191406 32.921875 Z M 94.191406 32.921875 "/>
<path style=" stroke:none;fill-rule:evenodd;fill:rgb(84.705882%,80.784314%,79.215686%);fill-opacity:1;" d="M 97.707031 32.417969 C 101.074219 32.4375 102.410156 34.113281 101.726562 37.445312 C 100.386719 37.445312 99.046875 37.445312 97.707031 37.445312 C 97.542969 35.695312 97.542969 34.019531 97.707031 32.417969 Z M 97.707031 32.417969 "/>
<path style=" stroke:none;fill-rule:evenodd;fill:rgb(80.392157%,78.039216%,75.294118%);fill-opacity:1;" d="M 93.183594 27.394531 C 94.933594 27.234375 96.609375 27.484375 98.207031 28.148438 C 98.738281 28.84375 98.820312 29.597656 98.460938 30.410156 C 96.011719 31.667969 93.417969 32.085938 90.671875 31.664062 C 90.164062 31.136719 90.078125 30.550781 90.421875 29.90625 C 91.292969 28.949219 92.210938 28.113281 93.183594 27.394531 Z M 93.183594 27.394531 "/>
</g>
</svg>
