<?xml version="1.0" encoding="UTF-8"?>
<svg xmlns="http://www.w3.org/2000/svg" xmlns:xlink="http://www.w3.org/1999/xlink" width="px" height="px" viewBox="0 0 99 90" version="1.1">
<defs>
<filter id="alpha" filterUnits="objectBoundingBox" x="0%" y="0%" width="100%" height="100%">
  <feColorMatrix type="matrix" in="SourceGraphic" values="0 0 0 0 1 0 0 0 0 1 0 0 0 0 1 0 0 0 1 0"/>
</filter>
<mask id="mask0">
  <g filter="url(#alpha)">
<rect x="0" y="0" width="99" height="90" style="fill:rgb(0%,0%,0%);fill-opacity:0.984314;stroke:none;"/>
  </g>
</mask>
<clipPath id="clip1">
  <rect x="0" y="0" width="99" height="90"/>
</clipPath>
<g id="surface5" clip-path="url(#clip1)">
<path style=" stroke:none;fill-rule:evenodd;fill:rgb(4.313726%,3.137255%,3.137255%);fill-opacity:1;" d="M 89.796875 21.75 C 91.449219 25.070312 93.355469 28.234375 95.519531 31.25 C 95.492188 33.261719 95.992188 35.09375 97.011719 36.75 C 97.339844 38.023438 97.253906 39.273438 96.761719 40.5 C 98.070312 43.078125 98.070312 45.660156 96.761719 48.25 C 97.296875 49.71875 97.378906 51.21875 97.011719 52.75 C 96.03125 54.617188 95.53125 56.617188 95.519531 58.75 C 93.96875 61.164062 92.558594 63.664062 91.289062 66.25 C 90.363281 67.097656 89.371094 67.847656 88.304688 68.5 C 86.292969 68.585938 84.304688 68.835938 82.335938 69.25 C 81.652344 72.125 80.324219 74.625 78.355469 76.75 C 78.355469 77.082031 78.1875 77.25 77.855469 77.25 C 77.027344 77.375 76.28125 77.710938 75.617188 78.25 C 75.246094 80.582031 74.5 82.75 73.378906 84.75 C 73.035156 86.09375 72.207031 86.929688 70.890625 87.25 C 66.464844 89.375 62.152344 89.207031 57.957031 86.75 C 57.140625 86.59375 56.640625 86.09375 56.464844 85.25 C 55.921875 84.320312 55.257812 83.488281 54.476562 82.75 C 44.335938 88.058594 33.722656 89.140625 22.636719 86 C 12.347656 81.488281 5.796875 73.738281 2.984375 62.75 C -1.542969 45.816406 0.28125 29.652344 8.457031 14.25 C 10.03125 12.332031 11.609375 10.417969 13.183594 8.5 C 15.042969 7.074219 16.867188 5.65625 18.65625 4.25 C 19.550781 3.375 20.628906 2.707031 21.890625 2.25 C 24.957031 1.402344 28.027344 1.070312 31.09375 1.25 C 39.496094 0.550781 47.375 2.21875 54.722656 6.25 C 56.222656 4.824219 57.632812 3.324219 58.953125 1.75 C 68.214844 -1.007812 73.769531 2.328125 75.617188 11.75 C 79.429688 13.582031 81.667969 16.582031 82.335938 20.75 C 84.917969 20.546875 87.40625 20.878906 89.796875 21.75 Z M 89.796875 21.75 "/>
</g>
<mask id="mask1">
  <g filter="url(#alpha)">
<rect x="0" y="0" width="99" height="90" style="fill:rgb(0%,0%,0%);fill-opacity:0.0588235;stroke:none;"/>
  </g>
</mask>
<clipPath id="clip2">
  <rect x="0" y="0" width="99" height="90"/>
</clipPath>
<g id="surface8" clip-path="url(#clip2)">
<path style=" stroke:none;fill-rule:evenodd;fill:rgb(16.078432%,19.607843%,24.313726%);fill-opacity:1;" d="M 31.09375 1.25 C 34.78125 0.878906 38.515625 0.710938 42.285156 0.75 C 46.515625 2.054688 50.664062 3.554688 54.722656 5.25 C 55.921875 3.792969 57.332031 2.625 58.953125 1.75 C 57.632812 3.324219 56.222656 4.824219 54.722656 6.25 C 47.375 2.21875 39.496094 0.550781 31.09375 1.25 Z M 31.09375 1.25 "/>
</g>
<mask id="mask2">
  <g filter="url(#alpha)">
<rect x="0" y="0" width="99" height="90" style="fill:rgb(0%,0%,0%);fill-opacity:0.0745098;stroke:none;"/>
  </g>
</mask>
<clipPath id="clip3">
  <rect x="0" y="0" width="99" height="90"/>
</clipPath>
<g id="surface11" clip-path="url(#clip3)">
<path style=" stroke:none;fill-rule:evenodd;fill:rgb(17.254902%,22.352941%,26.666668%);fill-opacity:1;" d="M 61.9375 -0.25 C 62.101562 -0.25 62.269531 -0.25 62.433594 -0.25 C 62.765625 0.417969 63.097656 0.417969 63.429688 -0.25 C 63.59375 -0.25 63.761719 -0.25 63.925781 -0.25 C 64.757812 0.417969 65.585938 0.417969 66.414062 -0.25 C 66.582031 -0.25 66.746094 -0.25 66.910156 -0.25 C 67.164062 0.617188 67.578125 0.78125 68.15625 0.25 C 73.398438 2.019531 76.214844 5.6875 76.613281 11.25 C 78.027344 12.128906 79.355469 13.128906 80.59375 14.25 C 81.671875 16.175781 82.75 18.09375 83.828125 20 C 85.390625 20.003906 87.050781 20.171875 88.800781 20.5 C 89.425781 20.707031 89.757812 21.125 89.796875 21.75 C 87.40625 20.878906 84.917969 20.546875 82.335938 20.75 C 81.667969 16.582031 79.429688 13.582031 75.617188 11.75 C 73.769531 2.328125 68.214844 -1.007812 58.953125 1.75 C 60.015625 1.171875 61.011719 0.507812 61.9375 -0.25 Z M 61.9375 -0.25 "/>
</g>
<mask id="mask3">
  <g filter="url(#alpha)">
<rect x="0" y="0" width="99" height="90" style="fill:rgb(0%,0%,0%);fill-opacity:0.0705882;stroke:none;"/>
  </g>
</mask>
<clipPath id="clip4">
  <rect x="0" y="0" width="99" height="90"/>
</clipPath>
<g id="surface14" clip-path="url(#clip4)">
<path style=" stroke:none;fill-rule:evenodd;fill:rgb(16.470589%,17.254902%,20.784314%);fill-opacity:1;" d="M 18.65625 4.25 C 16.867188 5.65625 15.042969 7.074219 13.183594 8.5 C 11.609375 10.417969 10.03125 12.332031 8.457031 14.25 C 0.28125 29.652344 -1.542969 45.816406 2.984375 62.75 C 5.796875 73.738281 12.347656 81.488281 22.636719 86 C 33.722656 89.140625 44.335938 88.058594 54.476562 82.75 C 55.257812 83.488281 55.921875 84.320312 56.464844 85.25 C 55.671875 85.039062 54.925781 84.707031 54.226562 84.25 C 52.199219 85.226562 50.125 86.144531 48.007812 87 C 40.496094 88.632812 32.867188 88.796875 25.125 87.5 C 20.214844 86.492188 15.984375 84.242188 12.4375 80.75 C 5.375 72.71875 1.144531 63.386719 -0.25 52.75 C -0.25 48.25 -0.25 43.75 -0.25 39.25 C 0.414062 38.917969 0.414062 38.582031 -0.25 38.25 C -0.25 38.082031 -0.25 37.917969 -0.25 37.75 C 0.621094 36.480469 0.789062 35.148438 0.25 33.75 C 2.058594 23.675781 6.371094 14.925781 13.183594 7.5 C 14.707031 5.902344 16.53125 4.816406 18.65625 4.25 Z M 18.65625 4.25 "/>
</g>
<mask id="mask4">
  <g filter="url(#alpha)">
<rect x="0" y="0" width="99" height="90" style="fill:rgb(0%,0%,0%);fill-opacity:0.00392157;stroke:none;"/>
  </g>
</mask>
<clipPath id="clip5">
  <rect x="0" y="0" width="99" height="90"/>
</clipPath>
<g id="surface17" clip-path="url(#clip5)">
<path style=" stroke:none;fill-rule:evenodd;fill:rgb(16.862746%,20.784314%,25.098041%);fill-opacity:1;" d="M 89.796875 21.75 C 90.984375 22.1875 91.976562 22.9375 92.78125 24 C 92.617188 24.167969 92.449219 24.332031 92.285156 24.5 C 96.394531 28.867188 98.21875 34.035156 97.757812 40 C 98.054688 40.8125 98.386719 41.5625 98.75 42.25 C 98.75 43.75 98.75 45.25 98.75 46.75 C 98.339844 48.824219 98.09375 50.992188 98.003906 53.25 C 97.773438 53.964844 97.359375 54.546875 96.761719 55 C 97.285156 55.695312 97.367188 56.445312 97.011719 57.25 C 95.574219 60.527344 93.917969 63.695312 92.035156 66.75 C 89.933594 69.058594 87.449219 70.226562 84.574219 70.25 C 84.242188 69.917969 83.910156 69.582031 83.578125 69.25 C 82.75 71.082031 81.917969 72.917969 81.089844 74.75 C 80.367188 75.730469 79.457031 76.398438 78.355469 76.75 C 80.324219 74.625 81.652344 72.125 82.335938 69.25 C 84.304688 68.835938 86.292969 68.585938 88.304688 68.5 C 89.371094 67.847656 90.363281 67.097656 91.289062 66.25 C 92.558594 63.664062 93.96875 61.164062 95.519531 58.75 C 95.53125 56.617188 96.03125 54.617188 97.011719 52.75 C 97.378906 51.21875 97.296875 49.71875 96.761719 48.25 C 98.070312 45.660156 98.070312 43.078125 96.761719 40.5 C 97.253906 39.273438 97.339844 38.023438 97.011719 36.75 C 95.992188 35.09375 95.492188 33.261719 95.519531 31.25 C 93.355469 28.234375 91.449219 25.070312 89.796875 21.75 Z M 89.796875 21.75 "/>
</g>
<mask id="mask5">
  <g filter="url(#alpha)">
<rect x="0" y="0" width="99" height="90" style="fill:rgb(0%,0%,0%);fill-opacity:0.0784314;stroke:none;"/>
  </g>
</mask>
<clipPath id="clip6">
  <rect x="0" y="0" width="99" height="90"/>
</clipPath>
<g id="surface20" clip-path="url(#clip6)">
<path style=" stroke:none;fill-rule:evenodd;fill:rgb(16.470589%,20%,24.313726%);fill-opacity:1;" d="M 77.855469 77.25 C 77.578125 77.894531 77.082031 78.3125 76.363281 78.5 C 76.53125 78.667969 76.695312 78.832031 76.863281 79 C 76.46875 80.496094 75.890625 81.914062 75.121094 83.25 C 74.605469 83.855469 74.023438 84.355469 73.378906 84.75 C 74.5 82.75 75.246094 80.582031 75.617188 78.25 C 76.28125 77.710938 77.027344 77.375 77.855469 77.25 Z M 77.855469 77.25 "/>
</g>
<mask id="mask6">
  <g filter="url(#alpha)">
<rect x="0" y="0" width="99" height="90" style="fill:rgb(0%,0%,0%);fill-opacity:0.176471;stroke:none;"/>
  </g>
</mask>
<clipPath id="clip7">
  <rect x="0" y="0" width="99" height="90"/>
</clipPath>
<g id="surface23" clip-path="url(#clip7)">
<path style=" stroke:none;fill-rule:evenodd;fill:rgb(16.862746%,18.431373%,21.568628%);fill-opacity:1;" d="M 57.957031 86.75 C 62.152344 89.207031 66.464844 89.375 70.890625 87.25 C 69.898438 88.082031 68.902344 88.917969 67.90625 89.75 C 65.917969 89.75 63.925781 89.75 61.9375 89.75 C 60.824219 89.191406 59.660156 88.605469 58.453125 88 C 58.082031 87.664062 57.914062 87.246094 57.957031 86.75 Z M 57.957031 86.75 "/>
</g>
</defs>
<g id="surface1">
<use xlink:href="#surface5" mask="url(#mask0)"/>
<use xlink:href="#surface8" mask="url(#mask1)"/>
<path style=" stroke:none;fill-rule:evenodd;fill:rgb(96.862745%,72.941178%,49.803922%);fill-opacity:1;" d="M 70.394531 11.25 C 70.394531 11.082031 70.394531 10.917969 70.394531 10.75 C 68.015625 6.878906 64.867188 5.960938 60.941406 8 C 60.125 8.566406 59.628906 9.316406 59.449219 10.25 C 58.953125 10.25 58.453125 10.25 57.957031 10.25 C 56.730469 9.078125 56.648438 7.746094 57.707031 6.25 C 61.855469 2.507812 66.25 2.257812 70.890625 5.5 C 72.46875 7.089844 73.132812 9.007812 72.882812 11.25 C 72.050781 11.25 71.222656 11.25 70.394531 11.25 Z M 70.394531 11.25 "/>
<use xlink:href="#surface11" mask="url(#mask2)"/>
<path style=" stroke:none;fill-rule:evenodd;fill:rgb(84.313726%,63.921571%,49.411765%);fill-opacity:1;" d="M 34.574219 3.75 C 35.074219 3.75 35.570312 3.75 36.066406 3.75 C 36.148438 5.921875 36.066406 8.089844 35.820312 10.25 C 34.480469 10.476562 33.566406 11.226562 33.082031 12.5 C 32.5 12.675781 31.917969 12.59375 31.339844 12.25 C 29.882812 13.214844 28.558594 12.882812 27.363281 11.25 C 26.613281 9.246094 25.867188 7.246094 25.125 5.25 C 26.261719 4.707031 27.425781 4.707031 28.605469 5.25 C 30.578125 4.535156 32.566406 4.035156 34.574219 3.75 Z M 34.574219 3.75 "/>
<path style=" stroke:none;fill-rule:evenodd;fill:rgb(57.254905%,30.19608%,18.431373%);fill-opacity:1;" d="M 70.394531 10.75 C 69.058594 10.230469 67.730469 9.730469 66.414062 9.25 C 64.058594 9.519531 61.738281 9.851562 59.449219 10.25 C 59.628906 9.316406 60.125 8.566406 60.941406 8 C 64.867188 5.960938 68.015625 6.878906 70.394531 10.75 Z M 70.394531 10.75 "/>
<path style=" stroke:none;fill-rule:evenodd;fill:rgb(39.215687%,20%,13.725491%);fill-opacity:1;" d="M 70.394531 10.75 C 70.394531 10.917969 70.394531 11.082031 70.394531 11.25 C 66.164062 11.042969 62.019531 10.710938 57.957031 10.25 C 58.453125 10.25 58.953125 10.25 59.449219 10.25 C 61.738281 9.851562 64.058594 9.519531 66.414062 9.25 C 67.730469 9.730469 69.058594 10.230469 70.394531 10.75 Z M 70.394531 10.75 "/>
<path style=" stroke:none;fill-rule:evenodd;fill:rgb(57.254905%,25.882354%,13.725491%);fill-opacity:1;" d="M 58.453125 12.75 C 63.015625 12.945312 67.492188 13.277344 71.886719 13.75 C 68.070312 13.832031 64.253906 13.75 60.445312 13.5 C 59.667969 13.394531 59.007812 13.144531 58.453125 12.75 Z M 58.453125 12.75 "/>
<path style=" stroke:none;fill-rule:evenodd;fill:rgb(80.392158%,32.941177%,10.980392%);fill-opacity:1;" d="M 58.453125 12.75 C 59.007812 13.144531 59.667969 13.394531 60.445312 13.5 C 64.253906 13.75 68.070312 13.832031 71.886719 13.75 C 75.488281 13.847656 78.058594 15.515625 79.597656 18.75 C 79.824219 21.796875 79.660156 24.796875 79.101562 27.75 C 79.976562 29.011719 80.972656 30.175781 82.085938 31.25 C 82.417969 32.582031 82.75 33.917969 83.082031 35.25 C 83.492188 40.671875 83.410156 46.003906 82.832031 51.25 C 82.914062 48.410156 82.832031 45.578125 82.582031 42.75 C 82.46875 42.132812 82.21875 41.632812 81.835938 41.25 C 81.480469 40.117188 81.3125 38.953125 81.339844 37.75 C 81.289062 34.484375 80.046875 31.820312 77.609375 29.75 C 77.34375 27.328125 77.425781 24.910156 77.855469 22.5 C 77.648438 18.125 75.328125 15.957031 70.890625 16 C 68.0625 15.8125 65.242188 15.5625 62.433594 15.25 C 62.433594 15.75 62.433594 16.25 62.433594 16.75 C 63.605469 16.667969 64.769531 16.75 65.917969 17 C 66.824219 17.101562 67.484375 17.515625 67.90625 18.25 C 63.132812 16.296875 59.152344 17.296875 55.96875 21.25 C 55.96875 19.417969 55.96875 17.582031 55.96875 15.75 C 51.652344 15.667969 47.339844 15.75 43.03125 16 C 42.039062 16.332031 41.042969 16.667969 40.046875 17 C 35.484375 19.777344 32 23.527344 29.601562 28.25 C 30.539062 26.023438 31.199219 23.6875 31.589844 21.25 C 33.941406 17.144531 37.425781 14.394531 42.039062 13 C 47.507812 12.75 52.980469 12.667969 58.453125 12.75 Z M 58.453125 12.75 "/>
<path style=" stroke:none;fill-rule:evenodd;fill:rgb(98.823529%,47.450981%,18.039216%);fill-opacity:1;" d="M 55.96875 21.25 C 54.226562 24.335938 54.058594 27.503906 55.46875 30.75 C 55.777344 32.199219 56.359375 33.53125 57.210938 34.75 C 57.929688 35.128906 58.675781 35.464844 59.449219 35.75 C 59.890625 36.164062 60.054688 36.664062 59.945312 37.25 C 58.679688 37.050781 57.605469 37.386719 56.714844 38.25 C 56.308594 37.589844 55.726562 37.253906 54.972656 37.25 C 51.910156 32.503906 50.914062 27.339844 51.988281 21.75 C 41.984375 20.734375 34.773438 24.734375 30.347656 33.75 C 29.589844 36.144531 28.84375 38.476562 28.109375 40.75 C 28 36.5 28.5 32.332031 29.601562 28.25 C 32 23.527344 35.484375 19.777344 40.046875 17 C 41.042969 16.667969 42.039062 16.332031 43.03125 16 C 47.339844 15.75 51.652344 15.667969 55.96875 15.75 C 55.96875 17.582031 55.96875 19.417969 55.96875 21.25 Z M 55.96875 21.25 "/>
<path style=" stroke:none;fill-rule:evenodd;fill:rgb(2.745098%,0.392157%,0%);fill-opacity:1;" d="M 67.90625 18.25 C 72.789062 22.039062 73.703125 26.703125 70.644531 32.25 C 67.800781 35.058594 64.402344 35.976562 60.445312 35 C 58.386719 34.011719 56.726562 32.59375 55.46875 30.75 C 54.058594 27.503906 54.226562 24.335938 55.96875 21.25 C 59.152344 17.296875 63.132812 16.296875 67.90625 18.25 Z M 67.90625 18.25 "/>
<path style=" stroke:none;fill-rule:evenodd;fill:rgb(95.686275%,43.137255%,14.509805%);fill-opacity:1;" d="M 81.339844 37.75 C 80.695312 36.324219 79.867188 34.988281 78.851562 33.75 C 78.1875 33.035156 77.441406 32.367188 76.613281 31.75 C 76.777344 28.761719 76.777344 25.761719 76.613281 22.75 C 76.40625 22.980469 76.160156 23.144531 75.867188 23.25 C 75.453125 22.75 75.039062 22.25 74.625 21.75 C 74.871094 23.546875 74.871094 25.378906 74.625 27.25 C 74.433594 26.972656 74.183594 26.804688 73.875 26.75 C 73.585938 25.5 73.253906 24.25 72.882812 23 C 73.4375 21.859375 73.023438 21.109375 71.636719 20.75 C 71.140625 18.871094 69.898438 18.035156 67.90625 18.25 C 67.484375 17.515625 66.824219 17.101562 65.917969 17 C 64.769531 16.75 63.605469 16.667969 62.433594 16.75 C 62.433594 16.25 62.433594 15.75 62.433594 15.25 C 65.242188 15.5625 68.0625 15.8125 70.890625 16 C 75.328125 15.957031 77.648438 18.125 77.855469 22.5 C 77.425781 24.910156 77.34375 27.328125 77.609375 29.75 C 80.046875 31.820312 81.289062 34.484375 81.339844 37.75 Z M 81.339844 37.75 "/>
<path style=" stroke:none;fill-rule:evenodd;fill:rgb(87.058824%,66.274512%,51.372552%);fill-opacity:1;" d="M 21.144531 19.75 C 20.125 21.273438 18.800781 22.4375 17.164062 23.25 C 13.964844 22.542969 11.144531 21.125 8.707031 19 C 10.089844 15.894531 12.078125 13.226562 14.675781 11 C 16.792969 11.769531 18.699219 13.019531 20.398438 14.75 C 21.589844 16.316406 21.839844 17.980469 21.144531 19.75 Z M 21.144531 19.75 "/>
<path style=" stroke:none;fill-rule:evenodd;fill:rgb(99.607843%,67.058825%,40.784314%);fill-opacity:1;" d="M 54.972656 37.25 C 55.46875 37.917969 55.96875 38.582031 56.464844 39.25 C 57.808594 41.011719 59.46875 42.429688 61.441406 43.5 C 63.625 43.570312 65.78125 43.320312 67.90625 42.75 C 66.613281 44.167969 66.613281 45.585938 67.90625 47 C 70.535156 49.160156 73.523438 50.160156 76.863281 50 C 78.253906 48.128906 78.085938 46.378906 76.363281 44.75 C 77.332031 43.859375 77.996094 42.777344 78.355469 41.5 C 78.070312 40.699219 77.574219 40.117188 76.863281 39.75 C 77.523438 39.75 78.1875 39.75 78.851562 39.75 C 79.625 41.378906 80.371094 43.046875 81.089844 44.75 C 81.28125 44.472656 81.53125 44.304688 81.835938 44.25 C 81.339844 50.25 80.09375 56.085938 78.105469 61.75 C 78.097656 64.734375 78.179688 67.566406 78.355469 70.25 C 77.996094 72.394531 76.75 73.726562 74.625 74.25 C 74.390625 73.953125 74.308594 73.621094 74.375 73.25 C 76.648438 71.675781 77.5625 69.507812 77.109375 66.75 C 76.652344 68.71875 75.574219 70.304688 73.875 71.5 C 72.089844 72.265625 70.265625 72.933594 68.40625 73.5 C 61.277344 73.929688 54.144531 74.097656 47.011719 74 C 42.902344 73.308594 39.171875 71.726562 35.820312 69.25 C 35.488281 69.582031 35.488281 69.917969 35.820312 70.25 C 36.832031 71.183594 37.746094 72.183594 38.554688 73.25 C 35.84375 72.230469 34.683594 70.394531 35.074219 67.75 C 40.390625 72.199219 46.527344 74.117188 53.480469 73.5 C 52.753906 72.289062 52.089844 71.039062 51.488281 69.75 C 44.59375 69.097656 38.289062 66.765625 32.585938 62.75 C 32.1875 62.976562 32.023438 63.3125 32.089844 63.75 C 30.695312 62.121094 29.703125 60.285156 29.101562 58.25 C 28.242188 52.457031 27.910156 46.625 28.109375 40.75 C 28.84375 38.476562 29.589844 36.144531 30.347656 33.75 C 34.773438 24.734375 41.984375 20.734375 51.988281 21.75 C 50.914062 27.339844 51.910156 32.503906 54.972656 37.25 Z M 54.972656 37.25 "/>
<path style=" stroke:none;fill-rule:evenodd;fill:rgb(76.47059%,61.960787%,51.372552%);fill-opacity:1;" d="M 89.796875 26.75 C 87.238281 27.242188 84.585938 27.410156 81.835938 27.25 C 80.925781 24.324219 82.085938 22.988281 85.320312 23.25 C 87.820312 23.097656 89.3125 24.261719 89.796875 26.75 Z M 89.796875 26.75 "/>
<path style=" stroke:none;fill-rule:evenodd;fill:rgb(6.666667%,6.27451%,7.450981%);fill-opacity:1;" d="M 20.644531 62.75 C 22.839844 62.117188 23.667969 60.617188 23.132812 58.25 C 22.472656 53.089844 21.890625 47.921875 21.390625 42.75 C 20.863281 39.988281 20.035156 37.320312 18.90625 34.75 C 18.140625 33.351562 17.0625 32.351562 15.671875 31.75 C 15.800781 31.011719 15.636719 30.34375 15.171875 29.75 C 14.4375 29.261719 13.773438 28.675781 13.183594 28 C 10.996094 27.847656 8.839844 27.515625 6.714844 27 C 6.210938 26.742188 5.878906 26.324219 5.722656 25.75 C 6.238281 24.269531 6.984375 22.9375 7.960938 21.75 C 8.53125 22.210938 9.03125 22.210938 9.453125 21.75 C 10.667969 23.058594 12.078125 24.058594 13.679688 24.75 C 14.996094 24.445312 16.324219 24.195312 17.660156 24 C 17.382812 23.808594 17.21875 23.558594 17.164062 23.25 C 18.800781 22.4375 20.125 21.273438 21.144531 19.75 C 21.34375 20.273438 21.675781 20.273438 22.136719 19.75 C 22.78125 17.558594 22.699219 15.390625 21.890625 13.25 C 20.0625 11.996094 18.488281 10.496094 17.164062 8.75 C 18.9375 6.851562 21.09375 5.769531 23.628906 5.5 C 24.195312 7.351562 24.609375 9.265625 24.875 11.25 C 26.40625 13.769531 28.480469 14.9375 31.09375 14.75 C 28.910156 17.964844 27.085938 21.464844 25.621094 25.25 C 23.210938 26.164062 21.386719 25.5 20.148438 23.25 C 19.691406 23.664062 19.363281 24.164062 19.152344 24.75 C 21.109375 25.878906 22.765625 27.378906 24.128906 29.25 C 24.167969 36.066406 24.25 42.898438 24.375 49.75 C 24.878906 53.703125 25.460938 57.617188 26.117188 61.5 C 24.636719 63.75 22.816406 64.167969 20.644531 62.75 Z M 20.644531 62.75 "/>
<path style=" stroke:none;fill-rule:evenodd;fill:rgb(98.823529%,49.803922%,21.176471%);fill-opacity:1;" d="M 78.851562 33.75 C 76.160156 34.613281 74.003906 36.28125 72.382812 38.75 C 70.785156 39.347656 69.457031 39.015625 68.40625 37.75 C 69.328125 37.15625 70.238281 36.488281 71.140625 35.75 C 72.203125 32.796875 73.113281 29.796875 73.875 26.75 C 74.183594 26.804688 74.433594 26.972656 74.625 27.25 C 74.871094 25.378906 74.871094 23.546875 74.625 21.75 C 75.039062 22.25 75.453125 22.75 75.867188 23.25 C 76.160156 23.144531 76.40625 22.980469 76.613281 22.75 C 76.777344 25.761719 76.777344 28.761719 76.613281 31.75 C 77.441406 32.367188 78.1875 33.035156 78.851562 33.75 Z M 78.851562 33.75 "/>
<path style=" stroke:none;fill-rule:evenodd;fill:rgb(41.960785%,30.980393%,20.784314%);fill-opacity:1;" d="M 89.796875 26.75 C 90.066406 26.78125 90.230469 26.945312 90.292969 27.25 C 87.398438 27.90625 84.578125 27.90625 81.835938 27.25 C 84.585938 27.410156 87.238281 27.242188 89.796875 26.75 Z M 89.796875 26.75 "/>
<path style=" stroke:none;fill-rule:evenodd;fill:rgb(87.450981%,67.450982%,52.156866%);fill-opacity:1;" d="M 14.675781 32.75 C 14.675781 32.917969 14.675781 33.082031 14.675781 33.25 C 10.3125 35.457031 6.5 38.457031 3.234375 42.25 C 3.636719 39.628906 3.636719 37.046875 3.234375 34.5 C 3.96875 33.003906 4.464844 31.421875 4.726562 29.75 C 5.140625 29.582031 5.554688 29.417969 5.96875 29.25 C 8.699219 29.804688 11.433594 30.304688 14.179688 30.75 C 14.550781 31.367188 14.714844 32.035156 14.675781 32.75 Z M 14.675781 32.75 "/>
<path style=" stroke:none;fill-rule:evenodd;fill:rgb(82.745099%,64.705884%,50.980395%);fill-opacity:1;" d="M 90.792969 29.75 C 93.039062 29.742188 94.03125 30.90625 93.777344 33.25 C 92.285156 33.25 90.792969 33.25 89.300781 33.25 C 89.300781 32.25 89.300781 31.25 89.300781 30.25 C 89.941406 30.367188 90.4375 30.203125 90.792969 29.75 Z M 90.792969 29.75 "/>
<path style=" stroke:none;fill-rule:evenodd;fill:rgb(82.352942%,71.372551%,61.56863%);fill-opacity:1;" d="M 86.3125 29.75 C 87.101562 30.539062 87.601562 31.539062 87.804688 32.75 C 85.007812 34.015625 83.679688 33.183594 83.828125 30.25 C 84.78125 30.390625 85.609375 30.226562 86.3125 29.75 Z M 86.3125 29.75 "/>
<path style=" stroke:none;fill-rule:evenodd;fill:rgb(99.607843%,65.882355%,36.470589%);fill-opacity:1;" d="M 78.851562 33.75 C 79.867188 34.988281 80.695312 36.324219 81.339844 37.75 C 81.3125 38.953125 81.480469 40.117188 81.835938 41.25 C 81.835938 42.25 81.835938 43.25 81.835938 44.25 C 81.53125 44.304688 81.28125 44.472656 81.089844 44.75 C 80.371094 43.046875 79.625 41.378906 78.851562 39.75 C 78.1875 39.75 77.523438 39.75 76.863281 39.75 C 74.285156 39.546875 71.964844 40.210938 69.898438 41.75 C 70.808594 40.859375 71.636719 39.859375 72.382812 38.75 C 74.003906 36.28125 76.160156 34.613281 78.851562 33.75 Z M 78.851562 33.75 "/>
<path style=" stroke:none;fill-rule:evenodd;fill:rgb(90.196079%,42.745098%,16.470589%);fill-opacity:1;" d="M 67.90625 18.25 C 69.898438 18.035156 71.140625 18.871094 71.636719 20.75 C 73.023438 21.109375 73.4375 21.859375 72.882812 23 C 73.253906 24.25 73.585938 25.5 73.875 26.75 C 73.113281 29.796875 72.203125 32.796875 71.140625 35.75 C 70.238281 36.488281 69.328125 37.15625 68.40625 37.75 C 64.363281 37.957031 60.386719 38.457031 56.464844 39.25 C 55.96875 38.582031 55.46875 37.917969 54.972656 37.25 C 55.726562 37.253906 56.308594 37.589844 56.714844 38.25 C 57.605469 37.386719 58.679688 37.050781 59.945312 37.25 C 60.054688 36.664062 59.890625 36.164062 59.449219 35.75 C 58.675781 35.464844 57.929688 35.128906 57.210938 34.75 C 56.359375 33.53125 55.777344 32.199219 55.46875 30.75 C 56.726562 32.59375 58.386719 34.011719 60.445312 35 C 64.402344 35.976562 67.800781 35.058594 70.644531 32.25 C 73.703125 26.703125 72.789062 22.039062 67.90625 18.25 Z M 67.90625 18.25 "/>
<path style=" stroke:none;fill-rule:evenodd;fill:rgb(85.09804%,79.215688%,74.117649%);fill-opacity:1;" d="M 84.820312 35.75 C 86.148438 35.75 87.476562 35.75 88.800781 35.75 C 88.800781 36.25 88.800781 36.75 88.800781 37.25 C 87.476562 37.25 86.148438 37.25 84.820312 37.25 C 84.820312 36.75 84.820312 36.25 84.820312 35.75 Z M 84.820312 35.75 "/>
<path style=" stroke:none;fill-rule:evenodd;fill:rgb(76.47059%,65.882355%,55.29412%);fill-opacity:1;" d="M 90.292969 35.75 C 92.753906 35.15625 94.414062 35.988281 95.269531 38.25 C 95.214844 38.722656 95.050781 39.136719 94.769531 39.5 C 93.289062 39.75 91.796875 39.832031 90.292969 39.75 C 90.292969 39.082031 90.292969 38.417969 90.292969 37.75 C 92.945312 37.582031 92.945312 37.417969 90.292969 37.25 C 90.292969 36.75 90.292969 36.25 90.292969 35.75 Z M 90.292969 35.75 "/>
<path style=" stroke:none;fill-rule:evenodd;fill:rgb(76.47059%,70.588237%,62.352943%);fill-opacity:1;" d="M 84.820312 37.75 C 86.160156 37.667969 87.484375 37.75 88.800781 38 C 89.238281 38.679688 89.40625 39.429688 89.300781 40.25 C 87.804688 40.25 86.3125 40.25 84.820312 40.25 C 84.820312 39.417969 84.820312 38.582031 84.820312 37.75 Z M 84.820312 37.75 "/>
<path style=" stroke:none;fill-rule:evenodd;fill:rgb(99.607843%,54.509807%,23.921569%);fill-opacity:1;" d="M 68.40625 37.75 C 69.457031 39.015625 70.785156 39.347656 72.382812 38.75 C 71.636719 39.859375 70.808594 40.859375 69.898438 41.75 C 69.234375 42.082031 68.570312 42.417969 67.90625 42.75 C 65.78125 43.320312 63.625 43.570312 61.441406 43.5 C 59.46875 42.429688 57.808594 41.011719 56.464844 39.25 C 60.386719 38.457031 64.363281 37.957031 68.40625 37.75 Z M 68.40625 37.75 "/>
<path style=" stroke:none;fill-rule:evenodd;fill:rgb(4.313726%,1.568628%,1.176471%);fill-opacity:1;" d="M 76.863281 39.75 C 77.574219 40.117188 78.070312 40.699219 78.355469 41.5 C 77.996094 42.777344 77.332031 43.859375 76.363281 44.75 C 78.085938 46.378906 78.253906 48.128906 76.863281 50 C 73.523438 50.160156 70.535156 49.160156 67.90625 47 C 66.613281 45.585938 66.613281 44.167969 67.90625 42.75 C 68.570312 42.417969 69.234375 42.082031 69.898438 41.75 C 71.964844 40.210938 74.285156 39.546875 76.863281 39.75 Z M 76.863281 39.75 "/>
<path style=" stroke:none;fill-rule:evenodd;fill:rgb(98.823529%,87.058824%,73.333335%);fill-opacity:1;" d="M 14.675781 33.25 C 15.433594 33.746094 15.765625 34.496094 15.671875 35.5 C 15.171875 37.332031 14.675781 39.167969 14.179688 41 C 14.4375 42.433594 14.769531 43.851562 15.171875 45.25 C 15.113281 45.960938 14.945312 46.628906 14.675781 47.25 C 14.039062 49.453125 14.207031 51.617188 15.171875 53.75 C 15.191406 55.214844 14.777344 56.550781 13.929688 57.75 C 11.128906 58.832031 8.226562 59.5 5.222656 59.75 C 4.484375 57.992188 3.902344 56.160156 3.480469 54.25 C 3.234375 50.253906 3.152344 46.253906 3.234375 42.25 C 6.5 38.457031 10.3125 35.457031 14.675781 33.25 Z M 14.675781 33.25 "/>
<path style=" stroke:none;fill-rule:evenodd;fill:rgb(80.392158%,69.411767%,58.039218%);fill-opacity:1;" d="M 90.792969 42.25 C 92.320312 42.089844 93.8125 42.257812 95.269531 42.75 C 96.359375 46.734375 94.867188 48.152344 90.792969 47 C 90.347656 45.453125 90.347656 43.871094 90.792969 42.25 Z M 90.792969 42.25 "/>
<path style=" stroke:none;fill-rule:evenodd;fill:rgb(69.411767%,30.19608%,12.54902%);fill-opacity:1;" d="M 31.589844 21.25 C 31.199219 23.6875 30.539062 26.023438 29.601562 28.25 C 28.5 32.332031 28 36.5 28.109375 40.75 C 27.910156 46.625 28.242188 52.457031 29.101562 58.25 C 29.050781 60.273438 29.214844 62.273438 29.601562 64.25 C 28.46875 61.25 27.722656 58.082031 27.363281 54.75 C 27.03125 47.75 27.03125 40.75 27.363281 33.75 C 27.550781 29.097656 28.960938 24.929688 31.589844 21.25 Z M 31.589844 21.25 "/>
<path style=" stroke:none;fill-rule:evenodd;fill:rgb(84.313726%,77.64706%,71.372551%);fill-opacity:1;" d="M 85.320312 42.25 C 86.644531 42.25 87.972656 42.25 89.300781 42.25 C 89.300781 42.917969 89.300781 43.582031 89.300781 44.25 C 85.320312 44.417969 85.320312 44.582031 89.300781 44.75 C 89.40625 45.570312 89.238281 46.320312 88.800781 47 C 87.640625 47.332031 86.480469 47.332031 85.320312 47 C 84.675781 45.417969 84.675781 43.835938 85.320312 42.25 Z M 85.320312 42.25 "/>
<path style=" stroke:none;fill-rule:evenodd;fill:rgb(16.862746%,14.901961%,14.509805%);fill-opacity:1;" d="M 15.671875 31.75 C 17.0625 32.351562 18.140625 33.351562 18.90625 34.75 C 20.035156 37.320312 20.863281 39.988281 21.390625 42.75 C 21.890625 47.921875 22.472656 53.089844 23.132812 58.25 C 23.667969 60.617188 22.839844 62.117188 20.644531 62.75 C 20.644531 63.417969 20.644531 64.082031 20.644531 64.75 C 19.660156 64.578125 18.996094 64.910156 18.65625 65.75 C 18.332031 65.597656 18 65.429688 17.660156 65.25 C 15.863281 66.183594 14.039062 67.015625 12.1875 67.75 C 11.855469 67.917969 11.523438 68.082031 11.195312 68.25 C 11.234375 67.503906 10.902344 67.003906 10.199219 66.75 C 9.355469 67.628906 8.363281 67.878906 7.214844 67.5 C 6.503906 65.777344 5.839844 64.027344 5.222656 62.25 C 7.816406 61.433594 10.46875 60.683594 13.183594 60 C 14.070312 59.609375 14.816406 59.023438 15.421875 58.25 C 15.976562 54.355469 16.390625 50.4375 16.664062 46.5 C 16.378906 45.59375 16.128906 44.675781 15.917969 43.75 C 15.933594 45.179688 15.519531 46.347656 14.675781 47.25 C 14.945312 46.628906 15.113281 45.960938 15.171875 45.25 C 14.769531 43.851562 14.4375 42.433594 14.179688 41 C 14.675781 39.167969 15.171875 37.332031 15.671875 35.5 C 15.765625 34.496094 15.433594 33.746094 14.675781 33.25 C 14.675781 33.082031 14.675781 32.917969 14.675781 32.75 C 15.339844 32.75 15.671875 32.417969 15.671875 31.75 Z M 15.671875 31.75 "/>
<path style=" stroke:none;fill-rule:evenodd;fill:rgb(84.705883%,77.254903%,72.156864%);fill-opacity:1;" d="M 84.820312 49.25 C 86.148438 49.25 87.476562 49.25 88.800781 49.25 C 88.882812 50.59375 88.800781 51.925781 88.554688 53.25 C 87.367188 53.71875 86.125 53.882812 84.820312 53.75 C 84.820312 52.25 84.820312 50.75 84.820312 49.25 Z M 84.820312 49.25 "/>
<path style=" stroke:none;fill-rule:evenodd;fill:rgb(81.960785%,75.294119%,70.19608%);fill-opacity:1;" d="M 90.792969 49.25 C 92.128906 49.167969 93.453125 49.25 94.769531 49.5 C 95.671875 52.929688 94.34375 54.261719 90.792969 53.5 C 90.152344 52.085938 90.152344 50.667969 90.792969 49.25 Z M 90.792969 49.25 "/>
<path style=" stroke:none;fill-rule:evenodd;fill:rgb(98.039216%,78.039217%,60.392159%);fill-opacity:1;" d="M 72.382812 60.75 C 70.292969 55.195312 66.3125 53.03125 60.445312 54.25 C 59.175781 54.195312 58.015625 54.527344 56.960938 55.25 C 56.417969 54.566406 56.585938 53.984375 57.460938 53.5 C 62.609375 50.910156 67.503906 51.328125 72.136719 54.75 C 72.382812 56.742188 72.46875 58.742188 72.382812 60.75 Z M 72.382812 60.75 "/>
<path style=" stroke:none;fill-rule:evenodd;fill:rgb(2.352941%,0.784314%,0.784314%);fill-opacity:1;" d="M 72.382812 60.75 C 72.574219 67.140625 69.507812 70.640625 63.179688 71.25 C 56.5 70.34375 53.847656 66.511719 55.222656 59.75 C 56.394531 57.324219 58.136719 55.488281 60.445312 54.25 C 66.3125 53.03125 70.292969 55.195312 72.382812 60.75 Z M 72.382812 60.75 "/>
<path style=" stroke:none;fill-rule:evenodd;fill:rgb(62.352943%,10.588235%,6.666667%);fill-opacity:1;" d="M 72.882812 56.25 C 74.195312 56.851562 74.609375 57.851562 74.125 59.25 C 73.109375 58.511719 72.695312 57.511719 72.882812 56.25 Z M 72.882812 56.25 "/>
<path style=" stroke:none;fill-rule:evenodd;fill:rgb(91.37255%,85.882354%,81.960785%);fill-opacity:1;" d="M 84.324219 55.75 C 85.484375 55.75 86.644531 55.75 87.804688 55.75 C 88.132812 58.699219 86.804688 59.863281 83.828125 59.25 C 83.800781 58.046875 83.964844 56.882812 84.324219 55.75 Z M 84.324219 55.75 "/>
<path style=" stroke:none;fill-rule:evenodd;fill:rgb(98.039216%,58.823532%,34.117648%);fill-opacity:1;" d="M 81.835938 41.25 C 82.21875 41.632812 82.46875 42.132812 82.582031 42.75 C 82.832031 45.578125 82.914062 48.410156 82.832031 51.25 C 82.875 55.25 81.632812 58.75 79.101562 61.75 C 78.855469 62.566406 78.773438 63.402344 78.851562 64.25 C 79.015625 65.578125 79.179688 66.910156 79.347656 68.25 C 79.308594 69.167969 78.976562 69.832031 78.355469 70.25 C 78.179688 67.566406 78.097656 64.734375 78.105469 61.75 C 80.09375 56.085938 81.339844 50.25 81.835938 44.25 C 81.835938 43.25 81.835938 42.25 81.835938 41.25 Z M 81.835938 41.25 "/>
<path style=" stroke:none;fill-rule:evenodd;fill:rgb(85.09804%,78.431374%,73.333335%);fill-opacity:1;" d="M 89.796875 55.75 C 93.890625 55.097656 94.722656 56.347656 92.285156 59.5 C 88.726562 60.128906 87.894531 58.878906 89.796875 55.75 Z M 89.796875 55.75 "/>
<use xlink:href="#surface14" mask="url(#mask3)"/>
<path style=" stroke:none;fill-rule:evenodd;fill:rgb(85.490197%,80.392158%,76.078433%);fill-opacity:1;" d="M 81.835938 61.25 C 84.652344 61.453125 87.472656 61.621094 90.292969 61.75 C 90.261719 64.867188 88.6875 66.367188 85.566406 66.25 C 81.75 66.191406 80.507812 64.527344 81.835938 61.25 Z M 81.835938 61.25 "/>
<path style=" stroke:none;fill-rule:evenodd;fill:rgb(94.901961%,54.901963%,29.411766%);fill-opacity:1;" d="M 29.101562 58.25 C 29.703125 60.285156 30.695312 62.121094 32.089844 63.75 C 32.890625 65.226562 33.886719 66.558594 35.074219 67.75 C 34.683594 70.394531 35.84375 72.230469 38.554688 73.25 C 41.28125 75.398438 44.433594 76.398438 48.007812 76.25 C 50.578125 76.691406 53.230469 77.023438 55.96875 77.25 C 46.710938 79.234375 38.835938 76.734375 32.335938 69.75 C 31.144531 68.023438 30.234375 66.191406 29.601562 64.25 C 29.214844 62.273438 29.050781 60.273438 29.101562 58.25 Z M 29.101562 58.25 "/>
<path style=" stroke:none;fill-rule:evenodd;fill:rgb(99.607843%,86.666667%,72.549021%);fill-opacity:1;" d="M 35.074219 67.75 C 33.886719 66.558594 32.890625 65.226562 32.089844 63.75 C 32.023438 63.3125 32.1875 62.976562 32.585938 62.75 C 38.289062 66.765625 44.59375 69.097656 51.488281 69.75 C 52.089844 71.039062 52.753906 72.289062 53.480469 73.5 C 46.527344 74.117188 40.390625 72.199219 35.074219 67.75 Z M 35.074219 67.75 "/>
<use xlink:href="#surface17" mask="url(#mask4)"/>
<path style=" stroke:none;fill-rule:evenodd;fill:rgb(87.058824%,69.803923%,56.470591%);fill-opacity:1;" d="M 18.65625 65.75 C 19.996094 67.261719 21.324219 68.761719 22.636719 70.25 C 22.304688 70.582031 21.972656 70.917969 21.640625 71.25 C 19.101562 70.789062 16.613281 71.125 14.179688 72.25 C 12.574219 71.195312 11.914062 69.695312 12.1875 67.75 C 14.039062 67.015625 15.863281 66.183594 17.660156 65.25 C 18 65.429688 18.332031 65.597656 18.65625 65.75 Z M 18.65625 65.75 "/>
<path style=" stroke:none;fill-rule:evenodd;fill:rgb(94.901961%,87.450981%,79.607844%);fill-opacity:1;" d="M 12.1875 67.75 C 11.914062 69.695312 12.574219 71.195312 14.179688 72.25 C 16.613281 71.125 19.101562 70.789062 21.640625 71.25 C 21.050781 73.011719 20.054688 74.511719 18.65625 75.75 C 17.761719 76.398438 16.933594 77.148438 16.167969 78 C 15.671875 78.332031 15.171875 78.332031 14.675781 78 C 11.800781 75.613281 9.890625 72.695312 8.953125 69.25 C 9.617188 68.710938 10.363281 68.375 11.195312 68.25 C 11.523438 68.082031 11.855469 67.917969 12.1875 67.75 Z M 12.1875 67.75 "/>
<path style=" stroke:none;fill-rule:evenodd;fill:rgb(15.294118%,13.333334%,13.725491%);fill-opacity:1;" d="M 36.066406 78.75 C 35.40625 78.75 34.742188 78.75 34.078125 78.75 C 33.230469 76.691406 31.984375 76.359375 30.347656 77.75 C 29.738281 76.261719 28.742188 75.929688 27.363281 76.75 C 26.726562 78.300781 25.816406 79.632812 24.625 80.75 C 22.796875 80 21.140625 79 19.652344 77.75 C 20.269531 76.875 21.015625 76.042969 21.890625 75.25 C 22.222656 74.417969 22.222656 73.582031 21.890625 72.75 C 21.332031 74.410156 20.253906 75.410156 18.65625 75.75 C 20.054688 74.511719 21.050781 73.011719 21.640625 71.25 C 21.972656 70.917969 22.304688 70.582031 22.636719 70.25 C 22.582031 71.191406 22.832031 71.355469 23.382812 70.75 C 23.625 70.101562 23.707031 69.4375 23.628906 68.75 C 24.53125 68.746094 25.359375 68.996094 26.117188 69.5 C 27.6875 71.871094 29.84375 73.371094 32.585938 74 C 33.582031 75 34.574219 76 35.570312 77 C 35.238281 77.167969 34.90625 77.332031 34.574219 77.5 C 35.109375 77.925781 35.605469 78.34375 36.066406 78.75 Z M 36.066406 78.75 "/>
<path style=" stroke:none;fill-rule:evenodd;fill:rgb(100%,82.352942%,64.705884%);fill-opacity:1;" d="M 74.375 73.25 C 65.816406 75.867188 57.027344 76.867188 48.007812 76.25 C 44.433594 76.398438 41.28125 75.398438 38.554688 73.25 C 37.746094 72.183594 36.832031 71.183594 35.820312 70.25 C 35.488281 69.917969 35.488281 69.582031 35.820312 69.25 C 39.171875 71.726562 42.902344 73.308594 47.011719 74 C 54.144531 74.097656 61.277344 73.929688 68.40625 73.5 C 70.265625 72.933594 72.089844 72.265625 73.875 71.5 C 75.574219 70.304688 76.652344 68.71875 77.109375 66.75 C 77.5625 69.507812 76.648438 71.675781 74.375 73.25 Z M 74.375 73.25 "/>
<path style=" stroke:none;fill-rule:evenodd;fill:rgb(95.294118%,69.01961%,47.450981%);fill-opacity:1;" d="M 78.851562 64.25 C 80.894531 68.21875 80.230469 71.800781 76.863281 75 C 75.574219 75.597656 74.246094 76.097656 72.882812 76.5 C 67.246094 76.847656 61.609375 77.097656 55.96875 77.25 C 53.230469 77.023438 50.578125 76.691406 48.007812 76.25 C 57.027344 76.867188 65.816406 75.867188 74.375 73.25 C 74.308594 73.621094 74.390625 73.953125 74.625 74.25 C 76.75 73.726562 77.996094 72.394531 78.355469 70.25 C 78.976562 69.832031 79.308594 69.167969 79.347656 68.25 C 79.179688 66.910156 79.015625 65.578125 78.851562 64.25 Z M 78.851562 64.25 "/>
<path style=" stroke:none;fill-rule:evenodd;fill:rgb(35.294119%,32.941177%,30.588236%);fill-opacity:1;" d="M 19.652344 77.75 C 21.140625 79 22.796875 80 24.625 80.75 C 24.347656 81.78125 23.769531 82.613281 22.882812 83.25 C 20.5625 82.625 18.488281 81.539062 16.664062 80 C 17.742188 79.335938 18.734375 78.585938 19.652344 77.75 Z M 19.652344 77.75 "/>
<path style=" stroke:none;fill-rule:evenodd;fill:rgb(89.019608%,75.294119%,61.960787%);fill-opacity:1;" d="M 34.078125 78.75 C 34.742188 78.75 35.40625 78.75 36.066406 78.75 C 36.085938 80.933594 35.917969 83.101562 35.570312 85.25 C 32.113281 84.667969 28.628906 84.167969 25.125 83.75 C 25.855469 81.609375 26.851562 79.609375 28.109375 77.75 C 28.769531 78.082031 29.433594 78.417969 30.097656 78.75 C 30.621094 78.308594 31.199219 77.976562 31.839844 77.75 C 32.539062 78.207031 33.285156 78.539062 34.078125 78.75 Z M 34.078125 78.75 "/>
<use xlink:href="#surface20" mask="url(#mask5)"/>
<path style=" stroke:none;fill-rule:evenodd;fill:rgb(45.490196%,27.058825%,20.784314%);fill-opacity:1;" d="M 69.898438 79.25 C 69.027344 81.777344 67.203125 82.945312 64.425781 82.75 C 62.441406 83.011719 60.949219 82.261719 59.945312 80.5 C 58.796875 80.25 57.636719 80.167969 56.464844 80.25 C 60.867188 79.859375 65.34375 79.527344 69.898438 79.25 Z M 69.898438 79.25 "/>
<path style=" stroke:none;fill-rule:evenodd;fill:rgb(30.588236%,29.411766%,29.019609%);fill-opacity:1;" d="M 52.484375 80.25 C 53.648438 80.386719 53.648438 80.804688 52.484375 81.5 C 47.792969 83.929688 42.816406 84.929688 37.558594 84.5 C 38 83.820312 38.164062 83.070312 38.058594 82.25 C 42.78125 82.503906 47.425781 82.089844 51.988281 81 C 52.265625 80.808594 52.429688 80.558594 52.484375 80.25 Z M 52.484375 80.25 "/>
<path style=" stroke:none;fill-rule:evenodd;fill:rgb(96.078432%,84.313726%,67.058825%);fill-opacity:1;" d="M 71.390625 83.25 C 71.421875 83.03125 71.339844 82.863281 71.140625 82.75 C 66.261719 86.992188 61.703125 86.660156 57.460938 81.75 C 57.011719 81.355469 56.679688 80.855469 56.464844 80.25 C 57.636719 80.167969 58.796875 80.25 59.945312 80.5 C 60.949219 82.261719 62.441406 83.011719 64.425781 82.75 C 67.203125 82.945312 69.027344 81.777344 69.898438 79.25 C 70.875 79.371094 71.789062 79.203125 72.632812 78.75 C 73.0625 80.515625 72.648438 82.015625 71.390625 83.25 Z M 71.390625 83.25 "/>
<path style=" stroke:none;fill-rule:evenodd;fill:rgb(88.627452%,84.313726%,76.862746%);fill-opacity:1;" d="M 57.460938 81.75 C 61.703125 86.660156 66.261719 86.992188 71.140625 82.75 C 71.339844 82.863281 71.421875 83.03125 71.390625 83.25 C 67.921875 87.027344 63.941406 87.613281 59.449219 85 C 58.339844 84.179688 57.675781 83.097656 57.460938 81.75 Z M 57.460938 81.75 "/>
<use xlink:href="#surface23" mask="url(#mask6)"/>
</g>
</svg>
