<?xml version="1.0" encoding="UTF-8"?>
<svg xmlns="http://www.w3.org/2000/svg" xmlns:xlink="http://www.w3.org/1999/xlink" width="px" height="px" viewBox="0 0 104 89" version="1.1">
<defs>
<filter id="alpha" filterUnits="objectBoundingBox" x="0%" y="0%" width="100%" height="100%">
  <feColorMatrix type="matrix" in="SourceGraphic" values="0 0 0 0 1 0 0 0 0 1 0 0 0 0 1 0 0 0 1 0"/>
</filter>
<mask id="mask0">
  <g filter="url(#alpha)">
<rect x="0" y="0" width="104" height="89" style="fill:rgb(0%,0%,0%);fill-opacity:0.996078;stroke:none;"/>
  </g>
</mask>
<clipPath id="clip1">
  <rect x="0" y="0" width="104" height="89"/>
</clipPath>
<g id="surface5" clip-path="url(#clip1)">
<path style=" stroke:none;fill-rule:evenodd;fill:rgb(3.137255%,3.529412%,4.705882%);fill-opacity:1;" d="M 82.75 11.75 C 82.675781 12.277344 82.757812 12.777344 83 13.25 C 86.402344 15.046875 88.320312 17.882812 88.75 21.75 C 91.546875 21.597656 94.296875 21.761719 97 22.25 C 97.921875 23.785156 98.421875 25.449219 98.5 27.25 C 101.203125 29.132812 101.953125 31.632812 100.75 34.75 C 103.007812 37.050781 103.339844 39.636719 101.75 42.5 C 102.046875 45.675781 102.214844 48.84375 102.25 52 C 101.125 54.585938 100.542969 57.335938 100.5 60.25 C 100.023438 61.226562 99.355469 62.0625 98.5 62.75 C 98.3125 64.640625 97.730469 66.390625 96.75 68 C 94.46875 68.65625 92.132812 68.90625 89.75 68.75 C 89.164062 70.425781 88.414062 72.09375 87.5 73.75 C 86 74.917969 84.5 76.082031 83 77.25 C 82.992188 79.867188 82.078125 82.035156 80.25 83.75 C 76.523438 87.660156 72.023438 88.828125 66.75 87.25 C 66.082031 86.675781 65.332031 86.175781 64.5 85.75 C 61.105469 87.410156 57.523438 88.074219 53.75 87.75 C 53.582031 87.75 53.417969 87.75 53.25 87.75 C 50.023438 86.675781 47.105469 85.011719 44.5 82.75 C 43.441406 83.070312 42.523438 83.570312 41.75 84.25 C 34.121094 86.191406 27.121094 84.855469 20.75 80.25 C 19.292969 79.628906 17.960938 78.792969 16.75 77.75 C 14.582031 73.082031 12.417969 68.417969 10.25 63.75 C 10.109375 62.792969 10.273438 61.960938 10.75 61.25 C 13.324219 67.972656 17.324219 73.722656 22.75 78.5 C 28.929688 83.070312 35.597656 83.90625 42.75 81 C 43.386719 80.347656 43.886719 79.597656 44.25 78.75 C 47.773438 83.429688 52.4375 85.511719 58.25 85 C 57.625 83.894531 57.710938 82.8125 58.5 81.75 C 59.738281 80.515625 60.988281 79.351562 62.25 78.25 C 63.402344 77.335938 64.566406 76.421875 65.75 75.5 C 58.921875 73.921875 53.421875 70.339844 49.25 64.75 C 50.53125 64.441406 51.78125 64.273438 53 64.25 C 53.34375 62.808594 53.257812 61.394531 52.75 60 C 53.71875 59.023438 53.882812 57.941406 53.25 56.75 C 53.636719 56.144531 54.054688 56.144531 54.5 56.75 C 54.445312 54.746094 55.03125 52.996094 56.25 51.5 C 55.925781 50.78125 55.757812 50.03125 55.75 49.25 C 56.152344 48.523438 56.402344 47.691406 56.5 46.75 C 57.175781 46.15625 57.761719 45.492188 58.25 44.75 C 57.523438 44.03125 57.023438 43.195312 56.75 42.25 C 60.238281 39.855469 59.902344 38.023438 55.75 36.75 C 55.75 36.25 55.75 35.75 55.75 35.25 C 56.910156 34.40625 57.410156 33.242188 57.25 31.75 C 55.90625 31.832031 54.574219 31.75 53.25 31.5 C 54.078125 30.777344 54.410156 29.859375 54.25 28.75 C 53.582031 28.75 52.917969 28.75 52.25 28.75 C 52.792969 26.957031 53.125 25.125 53.25 23.25 C 51.683594 23.351562 50.183594 23.683594 48.75 24.25 C 50.226562 21.273438 52.394531 18.941406 55.25 17.25 C 58.425781 15.496094 61.757812 14.078125 65.25 13 C 62.648438 10.644531 59.980469 8.394531 57.25 6.25 C 57.25 5.75 57.25 5.25 57.25 4.75 C 57.632812 4.414062 57.96875 3.996094 58.25 3.5 C 53.125 3.90625 48.625 5.820312 44.75 9.25 C 43.800781 8.191406 42.632812 7.523438 41.25 7.25 C 35.632812 5.007812 30.132812 5.425781 24.75 8.5 C 19.289062 12.296875 14.871094 17.046875 11.5 22.75 C 13.226562 18.621094 14.976562 14.457031 16.75 10.25 C 17.292969 10.269531 17.792969 10.4375 18.25 10.75 C 26.007812 2.914062 34.925781 1.246094 45 5.75 C 47.808594 4.136719 50.726562 2.71875 53.75 1.5 C 58.503906 0.832031 63.089844 1.417969 67.5 3.25 C 75.199219 1.636719 80.28125 4.46875 82.75 11.75 Z M 82.75 11.75 "/>
</g>
<mask id="mask1">
  <g filter="url(#alpha)">
<rect x="0" y="0" width="104" height="89" style="fill:rgb(0%,0%,0%);fill-opacity:0.00392157;stroke:none;"/>
  </g>
</mask>
<clipPath id="clip2">
  <rect x="0" y="0" width="104" height="89"/>
</clipPath>
<g id="surface8" clip-path="url(#clip2)">
<path style=" stroke:none;fill-rule:evenodd;fill:rgb(13.333333%,17.254902%,24.705882%);fill-opacity:1;" d="M 70.25 1.75 C 70.972656 1.195312 71.804688 1.109375 72.75 1.5 C 71.933594 1.746094 71.097656 1.832031 70.25 1.75 Z M 70.25 1.75 "/>
</g>
<mask id="mask2">
  <g filter="url(#alpha)">
<rect x="0" y="0" width="104" height="89" style="fill:rgb(0%,0%,0%);fill-opacity:0.0392157;stroke:none;"/>
  </g>
</mask>
<clipPath id="clip3">
  <rect x="0" y="0" width="104" height="89"/>
</clipPath>
<g id="surface11" clip-path="url(#clip3)">
<path style=" stroke:none;fill-rule:evenodd;fill:rgb(14.117647%,17.647059%,25.098039%);fill-opacity:1;" d="M 56.75 -0.25 C 56.917969 -0.25 57.082031 -0.25 57.25 -0.25 C 59.339844 0.203125 61.507812 0.621094 63.75 1 C 65.054688 1.320312 66.222656 1.902344 67.25 2.75 C 75.179688 0.382812 80.511719 3.046875 83.25 10.75 C 83.070312 11.089844 82.902344 11.425781 82.75 11.75 C 80.28125 4.46875 75.199219 1.636719 67.5 3.25 C 63.089844 1.417969 58.503906 0.832031 53.75 1.5 C 50.726562 2.71875 47.808594 4.136719 45 5.75 C 34.925781 1.246094 26.007812 2.914062 18.25 10.75 C 17.792969 10.4375 17.292969 10.269531 16.75 10.25 C 16.75 9.917969 16.582031 9.75 16.25 9.75 C 15.34375 10.316406 14.34375 10.648438 13.25 10.75 C 13.714844 10.34375 14.214844 9.925781 14.75 9.5 C 16.25 9.332031 17.75 9.167969 19.25 9 C 27.125 2.027344 35.625 0.613281 44.75 4.75 C 48.789062 2.71875 52.789062 1.050781 56.75 -0.25 Z M 56.75 -0.25 "/>
</g>
<mask id="mask3">
  <g filter="url(#alpha)">
<rect x="0" y="0" width="104" height="89" style="fill:rgb(0%,0%,0%);fill-opacity:0.0431373;stroke:none;"/>
  </g>
</mask>
<clipPath id="clip4">
  <rect x="0" y="0" width="104" height="89"/>
</clipPath>
<g id="surface14" clip-path="url(#clip4)">
<path style=" stroke:none;fill-rule:evenodd;fill:rgb(14.117647%,17.254902%,24.313725%);fill-opacity:1;" d="M 82.75 11.75 C 86.472656 13.636719 88.636719 16.636719 89.25 20.75 C 91.246094 21.09375 93.246094 21.179688 95.25 21 C 94.652344 20.671875 94.652344 20.421875 95.25 20.25 C 98.164062 21.417969 99.582031 23.585938 99.5 26.75 C 102.167969 28.84375 103.085938 31.507812 102.25 34.75 C 102.761719 35.449219 103.261719 36.117188 103.75 36.75 C 103.75 38.082031 103.75 39.417969 103.75 40.75 C 103.375 41.265625 103.042969 41.847656 102.75 42.5 C 103.40625 44.566406 103.40625 46.652344 102.75 48.75 C 103.015625 49.667969 103.347656 50.5 103.75 51.25 C 103.75 51.75 103.75 52.25 103.75 52.75 C 103.3125 53.785156 102.730469 54.785156 102 55.75 C 101.882812 56.882812 101.632812 57.964844 101.25 59 C 101.476562 59.207031 101.644531 59.457031 101.75 59.75 C 101.035156 61.214844 100.035156 62.464844 98.75 63.5 C 99.582031 66.644531 98.25 68.726562 94.75 69.75 C 92.996094 69.945312 91.332031 69.613281 89.75 68.75 C 92.132812 68.90625 94.46875 68.65625 96.75 68 C 97.730469 66.390625 98.3125 64.640625 98.5 62.75 C 99.355469 62.0625 100.023438 61.226562 100.5 60.25 C 100.542969 57.335938 101.125 54.585938 102.25 52 C 102.214844 48.84375 102.046875 45.675781 101.75 42.5 C 103.339844 39.636719 103.007812 37.050781 100.75 34.75 C 101.953125 31.632812 101.203125 29.132812 98.5 27.25 C 98.421875 25.449219 97.921875 23.785156 97 22.25 C 94.296875 21.761719 91.546875 21.597656 88.75 21.75 C 88.320312 17.882812 86.402344 15.046875 83 13.25 C 82.757812 12.777344 82.675781 12.277344 82.75 11.75 Z M 82.75 11.75 "/>
</g>
<mask id="mask4">
  <g filter="url(#alpha)">
<rect x="0" y="0" width="104" height="89" style="fill:rgb(0%,0%,0%);fill-opacity:0.952941;stroke:none;"/>
  </g>
</mask>
<clipPath id="clip5">
  <rect x="0" y="0" width="104" height="89"/>
</clipPath>
<g id="surface17" clip-path="url(#clip5)">
<path style=" stroke:none;fill-rule:evenodd;fill:rgb(5.098039%,5.490196%,7.45098%);fill-opacity:1;" d="M 16.25 9.75 C 12.101562 13.90625 8.933594 18.742188 6.75 24.25 C 4.320312 29.644531 3.152344 35.3125 3.25 41.25 C 2.386719 52.460938 4.96875 62.792969 11 72.25 C 12.667969 74.5 14.585938 76.5 16.75 78.25 C 16.199219 78.800781 15.53125 78.882812 14.75 78.5 C 11.222656 76.332031 8.558594 73.414062 6.75 69.75 C -0.273438 54.597656 -1.105469 39.097656 4.25 23.25 C 5.226562 19.519531 6.976562 16.1875 9.5 13.25 C 10.570312 12.085938 11.820312 11.253906 13.25 10.75 C 14.34375 10.648438 15.34375 10.316406 16.25 9.75 Z M 16.25 9.75 "/>
</g>
<mask id="mask5">
  <g filter="url(#alpha)">
<rect x="0" y="0" width="104" height="89" style="fill:rgb(0%,0%,0%);fill-opacity:0.117647;stroke:none;"/>
  </g>
</mask>
<clipPath id="clip6">
  <rect x="0" y="0" width="104" height="89"/>
</clipPath>
<g id="surface20" clip-path="url(#clip6)">
<path style=" stroke:none;fill-rule:evenodd;fill:rgb(15.294118%,20.784314%,25.882353%);fill-opacity:1;" d="M 4.25 23.25 C -1.105469 39.097656 -0.273438 54.597656 6.75 69.75 C 4.457031 66.632812 2.871094 63.132812 2 59.25 C 1.476562 56.800781 0.894531 54.382812 0.25 52 C 0.417969 51.832031 0.582031 51.667969 0.75 51.5 C 0.429688 49.367188 0.0976562 47.28125 -0.25 45.25 C -0.25 44.417969 -0.25 43.582031 -0.25 42.75 C 0.417969 42.582031 0.417969 42.417969 -0.25 42.25 C -0.25 42.082031 -0.25 41.917969 -0.25 41.75 C 0.292969 35.671875 1.542969 29.671875 3.5 23.75 C 3.691406 23.472656 3.941406 23.304688 4.25 23.25 Z M 4.25 23.25 "/>
</g>
<mask id="mask6">
  <g filter="url(#alpha)">
<rect x="0" y="0" width="104" height="89" style="fill:rgb(0%,0%,0%);fill-opacity:0.00784314;stroke:none;"/>
  </g>
</mask>
<clipPath id="clip7">
  <rect x="0" y="0" width="104" height="89"/>
</clipPath>
<g id="surface23" clip-path="url(#clip7)">
<path style=" stroke:none;fill-rule:evenodd;fill:rgb(15.686275%,20.784314%,25.882353%);fill-opacity:1;" d="M 20.75 80.25 C 27.121094 84.855469 34.121094 86.191406 41.75 84.25 C 35.25 86.535156 28.914062 85.953125 22.75 82.5 C 21.902344 81.847656 21.238281 81.097656 20.75 80.25 Z M 20.75 80.25 "/>
</g>
<mask id="mask7">
  <g filter="url(#alpha)">
<rect x="0" y="0" width="104" height="89" style="fill:rgb(0%,0%,0%);fill-opacity:0.0470588;stroke:none;"/>
  </g>
</mask>
<clipPath id="clip8">
  <rect x="0" y="0" width="104" height="89"/>
</clipPath>
<g id="surface26" clip-path="url(#clip8)">
<path style=" stroke:none;fill-rule:evenodd;fill:rgb(15.294118%,20.392157%,25.490196%);fill-opacity:1;" d="M 53.25 87.75 C 49.921875 87.296875 47.007812 85.960938 44.5 83.75 C 43.617188 84.117188 42.699219 84.285156 41.75 84.25 C 42.523438 83.570312 43.441406 83.070312 44.5 82.75 C 47.105469 85.011719 50.023438 86.675781 53.25 87.75 Z M 53.25 87.75 "/>
</g>
<mask id="mask8">
  <g filter="url(#alpha)">
<rect x="0" y="0" width="104" height="89" style="fill:rgb(0%,0%,0%);fill-opacity:0.00392157;stroke:none;"/>
  </g>
</mask>
<clipPath id="clip9">
  <rect x="0" y="0" width="104" height="89"/>
</clipPath>
<g id="surface29" clip-path="url(#clip9)">
<path style=" stroke:none;fill-rule:evenodd;fill:rgb(14.901961%,19.607843%,25.098039%);fill-opacity:1;" d="M 66.75 87.25 C 65.96875 87.242188 65.21875 87.074219 64.5 86.75 C 60.964844 88.265625 57.378906 88.601562 53.75 87.75 C 57.523438 88.074219 61.105469 87.410156 64.5 85.75 C 65.332031 86.175781 66.082031 86.675781 66.75 87.25 Z M 66.75 87.25 "/>
</g>
<mask id="mask9">
  <g filter="url(#alpha)">
<rect x="0" y="0" width="104" height="89" style="fill:rgb(0%,0%,0%);fill-opacity:0.00392157;stroke:none;"/>
  </g>
</mask>
<clipPath id="clip10">
  <rect x="0" y="0" width="104" height="89"/>
</clipPath>
<g id="surface32" clip-path="url(#clip10)">
<path style=" stroke:none;fill-rule:evenodd;fill:rgb(13.333333%,17.647059%,23.529412%);fill-opacity:1;" d="M 80.25 83.75 C 79.285156 85.632812 77.867188 87.132812 76 88.25 C 75.832031 88.082031 75.667969 87.917969 75.5 87.75 C 74.527344 88.054688 73.609375 88.386719 72.75 88.75 C 72.082031 88.75 71.417969 88.75 70.75 88.75 C 69.34375 88.460938 68.011719 87.960938 66.75 87.25 C 72.023438 88.828125 76.523438 87.660156 80.25 83.75 Z M 80.25 83.75 "/>
</g>
</defs>
<g id="surface1">
<use xlink:href="#surface5" mask="url(#mask0)"/>
<use xlink:href="#surface8" mask="url(#mask1)"/>
<use xlink:href="#surface11" mask="url(#mask2)"/>
<path style=" stroke:none;fill-rule:evenodd;fill:rgb(81.176471%,74.117647%,65.882353%);fill-opacity:1;" d="M 59.75 4.25 C 61.53125 4.074219 63.199219 4.410156 64.75 5.25 C 63.449219 8.113281 61.699219 8.449219 59.5 6.25 C 59.210938 5.535156 59.292969 4.867188 59.75 4.25 Z M 59.75 4.25 "/>
<path style=" stroke:none;fill-rule:evenodd;fill:rgb(12.156863%,41.176471%,52.941176%);fill-opacity:1;" d="M 74.75 5.75 C 74.984375 6.601562 74.984375 7.351562 74.75 8 C 71.753906 8 69.253906 9.082031 67.25 11.25 C 64.265625 9.886719 64.097656 8.304688 66.75 6.5 C 69.308594 5.160156 71.976562 4.910156 74.75 5.75 Z M 74.75 5.75 "/>
<path style=" stroke:none;fill-rule:evenodd;fill:rgb(78.823529%,71.372549%,63.921569%);fill-opacity:1;" d="M 57.25 4.75 C 50.8125 6.597656 45.898438 10.433594 42.5 16.25 C 42.359375 15.792969 42.109375 15.457031 41.75 15.25 C 40.976562 10.558594 38.226562 8.058594 33.5 7.75 C 30.769531 7.996094 28.1875 8.660156 25.75 9.75 C 26.921875 8.332031 28.421875 7.414062 30.25 7 C 33.25 6.667969 36.25 6.667969 39.25 7 C 39.972656 7.648438 40.640625 7.730469 41.25 7.25 C 42.632812 7.523438 43.800781 8.191406 44.75 9.25 C 48.625 5.820312 53.125 3.90625 58.25 3.5 C 57.96875 3.996094 57.632812 4.414062 57.25 4.75 Z M 57.25 4.75 "/>
<path style=" stroke:none;fill-rule:evenodd;fill:rgb(79.215686%,71.372549%,64.313725%);fill-opacity:1;" d="M 57.25 6.25 C 59.980469 8.394531 62.648438 10.644531 65.25 13 C 61.757812 14.078125 58.425781 15.496094 55.25 17.25 C 56.402344 16.164062 57.316406 14.832031 58 13.25 C 58.332031 11.582031 58.332031 9.917969 58 8.25 C 57.40625 7.71875 57.15625 7.050781 57.25 6.25 Z M 57.25 6.25 "/>
<path style=" stroke:none;fill-rule:evenodd;fill:rgb(6.27451%,27.058824%,37.647059%);fill-opacity:1;" d="M 74.75 5.75 C 77.101562 6.9375 78.769531 8.769531 79.75 11.25 C 79.417969 11.417969 79.082031 11.582031 78.75 11.75 C 77.496094 11.039062 76.328125 10.207031 75.25 9.25 C 75.082031 9.332031 74.917969 9.417969 74.75 9.5 C 75.507812 10.175781 76.175781 10.925781 76.75 11.75 C 73.765625 12.332031 70.765625 12.414062 67.75 12 C 67.472656 11.808594 67.304688 11.558594 67.25 11.25 C 69.253906 9.082031 71.753906 8 74.75 8 C 74.984375 7.351562 74.984375 6.601562 74.75 5.75 Z M 74.75 5.75 "/>
<path style=" stroke:none;fill-rule:evenodd;fill:rgb(83.529412%,75.294118%,66.666667%);fill-opacity:1;" d="M 25.75 9.75 C 25.019531 10.730469 24.1875 11.648438 23.25 12.5 C 25.367188 11.632812 27.617188 11.046875 30 10.75 C 34.902344 11.402344 37.484375 14.234375 37.75 19.25 C 35.375 21.359375 32.875 23.359375 30.25 25.25 C 28.035156 21.449219 24.871094 18.867188 20.75 17.5 C 20.464844 16.898438 20.132812 16.3125 19.75 15.75 C 17.679688 17.578125 15.847656 19.578125 14.25 21.75 C 15.421875 19.820312 16.503906 17.820312 17.5 15.75 C 19.949219 13.203125 22.699219 11.203125 25.75 9.75 Z M 25.75 9.75 "/>
<path style=" stroke:none;fill-rule:evenodd;fill:rgb(9.411765%,27.45098%,36.862745%);fill-opacity:1;" d="M 83.75 30.25 C 83.335938 27.007812 83.085938 23.671875 83 20.25 C 82.8125 19.792969 82.5625 19.375 82.25 19 C 81.09375 18.75 79.929688 18.667969 78.75 18.75 C 78.804688 19.757812 78.472656 20.589844 77.75 21.25 C 72.527344 17.519531 67.195312 17.351562 61.75 20.75 C 59.34375 21.496094 57.34375 22.828125 55.75 24.75 C 55.539062 23.457031 55.039062 22.289062 54.25 21.25 C 58.398438 17.675781 63.234375 15.425781 68.75 14.5 C 72.417969 14.167969 76.082031 14.167969 79.75 14.5 C 85.113281 16.140625 87.199219 19.726562 86 25.25 C 85.378906 26.988281 84.628906 28.65625 83.75 30.25 Z M 83.75 30.25 "/>
<path style=" stroke:none;fill-rule:evenodd;fill:rgb(92.941176%,86.27451%,79.215686%);fill-opacity:1;" d="M 37.75 19.25 C 38.464844 22.738281 38.214844 26.238281 37 29.75 C 36.335938 32.277344 34.835938 33.277344 32.5 32.75 C 31.296875 28.585938 29.046875 25.167969 25.75 22.5 C 23.667969 21.457031 21.667969 21.625 19.75 23 C 9.097656 33.90625 6.097656 46.65625 10.75 61.25 C 10.273438 61.960938 10.109375 62.792969 10.25 63.75 C 8.527344 62.144531 7.445312 60.144531 7 57.75 C 6.183594 52.070312 4.933594 46.570312 3.25 41.25 C 3.152344 35.3125 4.320312 29.644531 6.75 24.25 C 7.464844 24.289062 8.132812 24.121094 8.75 23.75 C 8.917969 24.167969 9.082031 24.582031 9.25 25 C 8.441406 27.375 8.023438 29.789062 8 32.25 C 9.832031 28.585938 11.914062 25.085938 14.25 21.75 C 15.847656 19.578125 17.679688 17.578125 19.75 15.75 C 20.132812 16.3125 20.464844 16.898438 20.75 17.5 C 24.871094 18.867188 28.035156 21.449219 30.25 25.25 C 32.875 23.359375 35.375 21.359375 37.75 19.25 Z M 37.75 19.25 "/>
<path style=" stroke:none;fill-rule:evenodd;fill:rgb(93.72549%,87.058824%,80.392157%);fill-opacity:1;" d="M 57.25 4.75 C 57.25 5.25 57.25 5.75 57.25 6.25 C 57.15625 7.050781 57.40625 7.71875 58 8.25 C 58.332031 9.917969 58.332031 11.582031 58 13.25 C 57.316406 14.832031 56.402344 16.164062 55.25 17.25 C 52.394531 18.941406 50.226562 21.273438 48.75 24.25 C 48.355469 24.390625 48.023438 24.640625 47.75 25 C 48.890625 25.105469 49.890625 25.523438 50.75 26.25 C 51.464844 28.007812 51.882812 29.839844 52 31.75 C 53.191406 32.21875 54.441406 32.382812 55.75 32.25 C 55.75 33.25 55.75 34.25 55.75 35.25 C 55.75 35.75 55.75 36.25 55.75 36.75 C 55.6875 37.601562 55.351562 38.351562 54.75 39 C 55.523438 40.019531 56.1875 41.105469 56.75 42.25 C 56.367188 42.632812 56.117188 43.132812 56 43.75 C 55.75 45.574219 55.667969 47.410156 55.75 49.25 C 55.757812 50.03125 55.925781 50.78125 56.25 51.5 C 55.03125 52.996094 54.445312 54.746094 54.5 56.75 C 54.054688 56.144531 53.636719 56.144531 53.25 56.75 C 53.882812 57.941406 53.71875 59.023438 52.75 60 C 53.257812 61.394531 53.34375 62.808594 53 64.25 C 51.78125 64.273438 50.53125 64.441406 49.25 64.75 C 53.421875 70.339844 58.921875 73.921875 65.75 75.5 C 64.566406 76.421875 63.402344 77.335938 62.25 78.25 C 58.761719 77.960938 55.429688 77.042969 52.25 75.5 C 49.480469 72.894531 46.5625 70.476562 43.5 68.25 C 42.90625 65.738281 42.324219 63.238281 41.75 60.75 C 42.597656 60.828125 43.433594 60.746094 44.25 60.5 C 45.339844 59.152344 46.171875 57.652344 46.75 56 C 45.257812 53.117188 45.59375 50.449219 47.75 48 C 45.175781 45.867188 45.175781 43.867188 47.75 42 C 47.269531 41.289062 46.851562 40.539062 46.5 39.75 C 46.625 36.398438 45.957031 33.230469 44.5 30.25 C 42.972656 29.773438 41.386719 29.609375 39.75 29.75 C 40.179688 27.71875 40.761719 25.71875 41.5 23.75 C 41.75 20.921875 41.832031 18.089844 41.75 15.25 C 42.109375 15.457031 42.359375 15.792969 42.5 16.25 C 45.898438 10.433594 50.8125 6.597656 57.25 4.75 Z M 57.25 4.75 "/>
<path style=" stroke:none;fill-rule:evenodd;fill:rgb(0.392157%,0.784314%,4.313725%);fill-opacity:1;" d="M 77.75 21.25 C 80.203125 26.359375 79.203125 30.777344 74.75 34.5 C 70.910156 36.332031 67.242188 36.082031 63.75 33.75 C 59.996094 29.882812 59.328125 25.546875 61.75 20.75 C 67.195312 17.351562 72.527344 17.519531 77.75 21.25 Z M 77.75 21.25 "/>
<path style=" stroke:none;fill-rule:evenodd;fill:rgb(72.941176%,65.098039%,58.823529%);fill-opacity:1;" d="M 41.25 7.25 C 40.640625 7.730469 39.972656 7.648438 39.25 7 C 36.25 6.667969 33.25 6.667969 30.25 7 C 28.421875 7.414062 26.921875 8.332031 25.75 9.75 C 22.699219 11.203125 19.949219 13.203125 17.5 15.75 C 16.503906 17.820312 15.421875 19.820312 14.25 21.75 C 11.914062 25.085938 9.832031 28.585938 8 32.25 C 8.023438 29.789062 8.441406 27.375 9.25 25 C 9.082031 24.582031 8.917969 24.167969 8.75 23.75 C 8.132812 24.121094 7.464844 24.289062 6.75 24.25 C 8.933594 18.742188 12.101562 13.90625 16.25 9.75 C 16.582031 9.75 16.75 9.917969 16.75 10.25 C 14.976562 14.457031 13.226562 18.621094 11.5 22.75 C 14.871094 17.046875 19.289062 12.296875 24.75 8.5 C 30.132812 5.425781 35.632812 5.007812 41.25 7.25 Z M 41.25 7.25 "/>
<path style=" stroke:none;fill-rule:evenodd;fill:rgb(98.039216%,97.647059%,95.686275%);fill-opacity:1;" d="M 41.75 15.25 C 41.832031 18.089844 41.75 20.921875 41.5 23.75 C 40.761719 25.71875 40.179688 27.71875 39.75 29.75 C 41.386719 29.609375 42.972656 29.773438 44.5 30.25 C 45.957031 33.230469 46.625 36.398438 46.5 39.75 C 46.851562 40.539062 47.269531 41.289062 47.75 42 C 45.175781 43.867188 45.175781 45.867188 47.75 48 C 45.59375 50.449219 45.257812 53.117188 46.75 56 C 46.171875 57.652344 45.339844 59.152344 44.25 60.5 C 43.433594 60.746094 42.597656 60.828125 41.75 60.75 C 42.324219 63.238281 42.90625 65.738281 43.5 68.25 C 46.5625 70.476562 49.480469 72.894531 52.25 75.5 C 55.429688 77.042969 58.761719 77.960938 62.25 78.25 C 60.988281 79.351562 59.738281 80.515625 58.5 81.75 C 57.710938 82.8125 57.625 83.894531 58.25 85 C 52.4375 85.511719 47.773438 83.429688 44.25 78.75 C 43.886719 79.597656 43.386719 80.347656 42.75 81 C 35.597656 83.90625 28.929688 83.070312 22.75 78.5 C 17.324219 73.722656 13.324219 67.972656 10.75 61.25 C 6.097656 46.65625 9.097656 33.90625 19.75 23 C 21.667969 21.625 23.667969 21.457031 25.75 22.5 C 29.046875 25.167969 31.296875 28.585938 32.5 32.75 C 34.835938 33.277344 36.335938 32.277344 37 29.75 C 38.214844 26.238281 38.464844 22.738281 37.75 19.25 C 37.484375 14.234375 34.902344 11.402344 30 10.75 C 27.617188 11.046875 25.367188 11.632812 23.25 12.5 C 24.1875 11.648438 25.019531 10.730469 25.75 9.75 C 28.1875 8.660156 30.769531 7.996094 33.5 7.75 C 38.226562 8.058594 40.976562 10.558594 41.75 15.25 Z M 41.75 15.25 "/>
<use xlink:href="#surface14" mask="url(#mask3)"/>
<path style=" stroke:none;fill-rule:evenodd;fill:rgb(80.392157%,72.156863%,63.529412%);fill-opacity:1;" d="M 90.25 23.75 C 91.925781 23.667969 93.589844 23.75 95.25 24 C 95.722656 25.359375 95.886719 26.777344 95.75 28.25 C 93.433594 27.808594 91.101562 27.476562 88.75 27.25 C 88.453125 25.664062 88.953125 24.496094 90.25 23.75 Z M 90.25 23.75 "/>
<path style=" stroke:none;fill-rule:evenodd;fill:rgb(91.764706%,93.72549%,94.117647%);fill-opacity:1;" d="M 71.25 24.75 C 74.15625 24.53125 74.988281 25.78125 73.75 28.5 C 70.339844 28.929688 69.507812 27.679688 71.25 24.75 Z M 71.25 24.75 "/>
<use xlink:href="#surface17" mask="url(#mask4)"/>
<path style=" stroke:none;fill-rule:evenodd;fill:rgb(78.431373%,70.588235%,64.313725%);fill-opacity:1;" d="M 55.75 35.25 C 55.75 34.25 55.75 33.25 55.75 32.25 C 54.441406 32.382812 53.191406 32.21875 52 31.75 C 51.882812 29.839844 51.464844 28.007812 50.75 26.25 C 49.890625 25.523438 48.890625 25.105469 47.75 25 C 48.023438 24.640625 48.355469 24.390625 48.75 24.25 C 50.183594 23.683594 51.683594 23.351562 53.25 23.25 C 53.125 25.125 52.792969 26.957031 52.25 28.75 C 52.917969 28.75 53.582031 28.75 54.25 28.75 C 54.410156 29.859375 54.078125 30.777344 53.25 31.5 C 54.574219 31.75 55.90625 31.832031 57.25 31.75 C 57.410156 33.242188 56.910156 34.40625 55.75 35.25 Z M 55.75 35.25 "/>
<path style=" stroke:none;fill-rule:evenodd;fill:rgb(15.294118%,34.509804%,46.27451%);fill-opacity:1;" d="M 61.75 20.75 C 59.328125 25.546875 59.996094 29.882812 63.75 33.75 C 63.355469 33.890625 63.023438 34.140625 62.75 34.5 C 63.667969 35.738281 64.167969 37.15625 64.25 38.75 C 63.925781 41.074219 63.675781 43.40625 63.5 45.75 C 61.886719 49.929688 59.972656 53.929688 57.75 57.75 C 57.636719 56.828125 57.472656 55.914062 57.25 55 C 58.097656 53.972656 58.765625 52.804688 59.25 51.5 C 58.984375 50.71875 58.652344 49.96875 58.25 49.25 C 59.253906 47.414062 60.589844 45.914062 62.25 44.75 C 61.605469 43.921875 60.941406 43.085938 60.25 42.25 C 61.203125 41.527344 62.035156 40.691406 62.75 39.75 C 61.773438 37.941406 60.441406 36.441406 58.75 35.25 C 60.277344 33.21875 59.945312 31.550781 57.75 30.25 C 57.347656 29.289062 57.097656 28.289062 57 27.25 C 56.300781 26.886719 55.550781 26.636719 54.75 26.5 C 55.410156 26.09375 55.746094 25.507812 55.75 24.75 C 57.34375 22.828125 59.34375 21.496094 61.75 20.75 Z M 61.75 20.75 "/>
<path style=" stroke:none;fill-rule:evenodd;fill:rgb(81.960784%,78.823529%,72.941176%);fill-opacity:1;" d="M 92.75 29.75 C 95.5 29.8125 96.335938 31.148438 95.25 33.75 C 93.613281 33.890625 92.027344 33.726562 90.5 33.25 C 89.644531 30.902344 90.394531 29.734375 92.75 29.75 Z M 92.75 29.75 "/>
<path style=" stroke:none;fill-rule:evenodd;fill:rgb(63.921569%,57.254902%,50.980392%);fill-opacity:1;" d="M 92.75 29.75 C 94.980469 28.898438 97.0625 29.230469 99 30.75 C 99.617188 34.394531 98.367188 35.394531 95.25 33.75 C 96.335938 31.148438 95.5 29.8125 92.75 29.75 Z M 92.75 29.75 "/>
<path style=" stroke:none;fill-rule:evenodd;fill:rgb(16.470588%,42.352941%,54.509804%);fill-opacity:1;" d="M 83.75 30.25 C 85.355469 30.007812 86.773438 30.339844 88 31.25 C 88.421875 33.433594 88.921875 35.601562 89.5 37.75 C 89.902344 39.511719 89.820312 41.179688 89.25 42.75 C 89.402344 41.539062 89.238281 40.371094 88.75 39.25 C 87.566406 38.554688 86.398438 37.890625 85.25 37.25 C 82.335938 37.039062 79.835938 37.957031 77.75 40 C 74.964844 40.953125 72.296875 42.035156 69.75 43.25 C 70.191406 43.773438 70.523438 44.355469 70.75 45 C 69.28125 46.855469 68.28125 48.9375 67.75 51.25 C 72.425781 52.128906 76.175781 54.460938 79 58.25 C 79.402344 59.210938 79.652344 60.210938 79.75 61.25 C 79.167969 63.363281 79.167969 65.445312 79.75 67.5 C 79.074219 69.097656 77.90625 70.015625 76.25 70.25 C 80.417969 63.808594 79.25 58.390625 72.75 54 C 66.855469 52.742188 62.769531 54.992188 60.5 60.75 C 59.277344 68.613281 62.695312 72.28125 70.75 71.75 C 68.78125 72.636719 66.78125 72.972656 64.75 72.75 C 61.097656 71.382812 57.679688 69.546875 54.5 67.25 C 55.089844 65.792969 55.507812 64.210938 55.75 62.5 C 55.605469 61.40625 55.4375 60.324219 55.25 59.25 C 56.640625 59.542969 57.476562 59.042969 57.75 57.75 C 59.972656 53.929688 61.886719 49.929688 63.5 45.75 C 63.675781 43.40625 63.925781 41.074219 64.25 38.75 C 64.167969 37.15625 63.667969 35.738281 62.75 34.5 C 63.023438 34.140625 63.355469 33.890625 63.75 33.75 C 67.242188 36.082031 70.910156 36.332031 74.75 34.5 C 79.203125 30.777344 80.203125 26.359375 77.75 21.25 C 78.472656 20.589844 78.804688 19.757812 78.75 18.75 C 79.929688 18.667969 81.09375 18.75 82.25 19 C 82.5625 19.375 82.8125 19.792969 83 20.25 C 83.085938 23.671875 83.335938 27.007812 83.75 30.25 Z M 83.75 30.25 "/>
<path style=" stroke:none;fill-rule:evenodd;fill:rgb(85.098039%,81.568627%,76.078431%);fill-opacity:1;" d="M 93.25 36.25 C 93.917969 36.25 94.582031 36.25 95.25 36.25 C 95.25 37.75 95.25 39.25 95.25 40.75 C 92 41.25 90.75 39.917969 91.5 36.75 C 92.003906 36.332031 92.589844 36.164062 93.25 36.25 Z M 93.25 36.25 "/>
<path style=" stroke:none;fill-rule:evenodd;fill:rgb(70.196078%,63.921569%,55.686275%);fill-opacity:1;" d="M 93.25 36.25 C 95.625 35.433594 97.875 35.765625 100 37.25 C 100.355469 38.449219 100.273438 39.617188 99.75 40.75 C 98.25 41.320312 96.75 41.320312 95.25 40.75 C 95.25 39.25 95.25 37.75 95.25 36.25 C 94.582031 36.25 93.917969 36.25 93.25 36.25 Z M 93.25 36.25 "/>
<path style=" stroke:none;fill-rule:evenodd;fill:rgb(64.313725%,59.215686%,55.294118%);fill-opacity:1;" d="M 55.75 36.75 C 59.902344 38.023438 60.238281 39.855469 56.75 42.25 C 56.1875 41.105469 55.523438 40.019531 54.75 39 C 55.351562 38.351562 55.6875 37.601562 55.75 36.75 Z M 55.75 36.75 "/>
<use xlink:href="#surface20" mask="url(#mask5)"/>
<path style=" stroke:none;fill-rule:evenodd;fill:rgb(1.176471%,2.745098%,6.27451%);fill-opacity:1;" d="M 84.25 41.25 C 84.800781 43.242188 84.136719 44.824219 82.25 46 C 85.660156 47.828125 85.574219 49.246094 82 50.25 C 80.539062 50.226562 79.289062 49.726562 78.25 48.75 C 76.578125 47.84375 75.660156 46.511719 75.5 44.75 C 77.78125 41.8125 80.699219 40.644531 84.25 41.25 Z M 84.25 41.25 "/>
<path style=" stroke:none;fill-rule:evenodd;fill:rgb(9.411765%,47.45098%,61.176471%);fill-opacity:1;" d="M 85.25 37.25 C 86.398438 37.890625 87.566406 38.554688 88.75 39.25 C 89.238281 40.371094 89.402344 41.539062 89.25 42.75 C 89.441406 47.449219 89.191406 52.117188 88.5 56.75 C 88.121094 58.027344 87.703125 59.277344 87.25 60.5 C 86.289062 60.433594 85.289062 60.347656 84.25 60.25 C 85.074219 59.515625 85.992188 58.847656 87 58.25 C 87.390625 57.527344 87.308594 56.863281 86.75 56.25 C 82.9375 54.777344 80.101562 52.277344 78.25 48.75 C 79.289062 49.726562 80.539062 50.226562 82 50.25 C 85.574219 49.246094 85.660156 47.828125 82.25 46 C 84.136719 44.824219 84.800781 43.242188 84.25 41.25 C 86.113281 41.109375 86.695312 40.109375 86 38.25 C 85.640625 37.976562 85.390625 37.644531 85.25 37.25 Z M 85.25 37.25 "/>
<path style=" stroke:none;fill-rule:evenodd;fill:rgb(63.921569%,60%,55.686275%);fill-opacity:1;" d="M 56.75 42.25 C 57.023438 43.195312 57.523438 44.03125 58.25 44.75 C 57.761719 45.492188 57.175781 46.15625 56.5 46.75 C 56.402344 47.691406 56.152344 48.523438 55.75 49.25 C 55.667969 47.410156 55.75 45.574219 56 43.75 C 56.117188 43.132812 56.367188 42.632812 56.75 42.25 Z M 56.75 42.25 "/>
<path style=" stroke:none;fill-rule:evenodd;fill:rgb(90.980392%,88.627451%,85.490196%);fill-opacity:1;" d="M 95.25 43.25 C 95.25 44.75 95.25 46.25 95.25 47.75 C 94.582031 47.75 93.917969 47.75 93.25 47.75 C 91.371094 47.085938 90.789062 45.753906 91.5 43.75 C 92.691406 43.28125 93.941406 43.117188 95.25 43.25 Z M 95.25 43.25 "/>
<path style=" stroke:none;fill-rule:evenodd;fill:rgb(73.333333%,67.058824%,58.039216%);fill-opacity:1;" d="M 93.25 47.75 C 93.917969 47.75 94.582031 47.75 95.25 47.75 C 95.25 46.25 95.25 44.75 95.25 43.25 C 98.757812 41.953125 100.34375 43.121094 100 46.75 C 99.613281 47.425781 99.03125 47.839844 98.25 48 C 96.488281 48.402344 94.820312 48.320312 93.25 47.75 Z M 93.25 47.75 "/>
<path style=" stroke:none;fill-rule:evenodd;fill:rgb(87.843137%,80.784314%,70.980392%);fill-opacity:1;" d="M 41.25 46.25 C 44.09375 46.277344 44.929688 47.609375 43.75 50.25 C 40.207031 50.785156 39.375 49.453125 41.25 46.25 Z M 41.25 46.25 "/>
<path style=" stroke:none;fill-rule:evenodd;fill:rgb(79.215686%,73.72549%,66.27451%);fill-opacity:1;" d="M 96.75 49.25 C 100.347656 49.46875 101.183594 51.132812 99.25 54.25 C 96.582031 55.035156 94 54.867188 91.5 53.75 C 91.121094 52.617188 91.203125 51.53125 91.75 50.5 C 93.476562 50.058594 95.144531 49.640625 96.75 49.25 Z M 96.75 49.25 "/>
<path style=" stroke:none;fill-rule:evenodd;fill:rgb(0.392157%,0.784314%,3.921569%);fill-opacity:1;" d="M 76.25 70.25 C 74.535156 71.136719 72.703125 71.636719 70.75 71.75 C 62.695312 72.28125 59.277344 68.613281 60.5 60.75 C 62.769531 54.992188 66.855469 52.742188 72.75 54 C 79.25 58.390625 80.417969 63.808594 76.25 70.25 Z M 76.25 70.25 "/>
<path style=" stroke:none;fill-rule:evenodd;fill:rgb(13.333333%,65.098039%,77.647059%);fill-opacity:1;" d="M 85.25 37.25 C 85.390625 37.644531 85.640625 37.976562 86 38.25 C 86.695312 40.109375 86.113281 41.109375 84.25 41.25 C 80.699219 40.644531 77.78125 41.8125 75.5 44.75 C 75.660156 46.511719 76.578125 47.84375 78.25 48.75 C 80.101562 52.277344 82.9375 54.777344 86.75 56.25 C 87.308594 56.863281 87.390625 57.527344 87 58.25 C 85.992188 58.847656 85.074219 59.515625 84.25 60.25 C 84.082031 60.25 83.917969 60.25 83.75 60.25 C 83.441406 60.304688 83.191406 60.472656 83 60.75 C 82.832031 63.582031 82.667969 66.417969 82.5 69.25 C 82.394531 70.027344 82.144531 70.695312 81.75 71.25 C 81.78125 71.03125 81.699219 70.863281 81.5 70.75 C 77.484375 73.113281 73.234375 74.613281 68.75 75.25 C 68.835938 74.589844 68.667969 74.003906 68.25 73.5 C 67.066406 73.28125 65.902344 73.03125 64.75 72.75 C 66.78125 72.972656 68.78125 72.636719 70.75 71.75 C 72.703125 71.636719 74.535156 71.136719 76.25 70.25 C 77.90625 70.015625 79.074219 69.097656 79.75 67.5 C 79.167969 65.445312 79.167969 63.363281 79.75 61.25 C 79.652344 60.210938 79.402344 59.210938 79 58.25 C 76.175781 54.460938 72.425781 52.128906 67.75 51.25 C 68.28125 48.9375 69.28125 46.855469 70.75 45 C 70.523438 44.355469 70.191406 43.773438 69.75 43.25 C 72.296875 42.035156 74.964844 40.953125 77.75 40 C 79.835938 37.957031 82.335938 37.039062 85.25 37.25 Z M 85.25 37.25 "/>
<path style=" stroke:none;fill-rule:evenodd;fill:rgb(81.568627%,72.941176%,63.137255%);fill-opacity:1;" d="M 95.75 56.25 C 98.925781 56.300781 99.59375 57.71875 97.75 60.5 C 95.402344 61.441406 93.070312 61.359375 90.75 60.25 C 90.117188 59.152344 90.117188 58.070312 90.75 57 C 92.28125 56.628906 93.78125 56.710938 95.25 57.25 C 95.648438 57.023438 95.816406 56.6875 95.75 56.25 Z M 95.75 56.25 "/>
<path style=" stroke:none;fill-rule:evenodd;fill:rgb(89.411765%,81.960784%,74.117647%);fill-opacity:1;" d="M 32.75 53.75 C 35.886719 54.472656 37.804688 56.472656 38.5 59.75 C 39.679688 64.761719 39.179688 69.59375 37 74.25 C 34.625 78.3125 31.375 79.230469 27.25 77 C 26 75.75 24.75 74.5 23.5 73.25 C 22.5 71.417969 22.5 69.582031 23.5 67.75 C 25.019531 66.398438 26.351562 64.898438 27.5 63.25 C 29.257812 60.070312 31.007812 56.902344 32.75 53.75 Z M 32.75 53.75 "/>
<path style=" stroke:none;fill-rule:evenodd;fill:rgb(92.941176%,94.901961%,95.294118%);fill-opacity:1;" d="M 71.25 59.75 C 75.085938 59.753906 76.085938 61.421875 74.25 64.75 C 70.773438 66.023438 69.359375 64.855469 70 61.25 C 70.347656 60.65625 70.765625 60.15625 71.25 59.75 Z M 71.25 59.75 "/>
<path style=" stroke:none;fill-rule:evenodd;fill:rgb(80.784314%,74.901961%,69.411765%);fill-opacity:1;" d="M 88.25 62.25 C 89.367188 62.722656 90.535156 63.058594 91.75 63.25 C 92.910156 62.8125 94.078125 62.5625 95.25 62.5 C 96.414062 65.011719 95.664062 66.429688 93 66.75 C 89.710938 66.988281 88.128906 65.488281 88.25 62.25 Z M 88.25 62.25 "/>
<path style=" stroke:none;fill-rule:evenodd;fill:rgb(13.72549%,41.176471%,52.54902%);fill-opacity:1;" d="M 83.75 60.25 C 87.363281 65.148438 87.03125 69.730469 82.75 74 C 82.128906 74.394531 81.460938 74.644531 80.75 74.75 C 80.9375 73.539062 81.273438 72.371094 81.75 71.25 C 82.144531 70.695312 82.394531 70.027344 82.5 69.25 C 82.667969 66.417969 82.832031 63.582031 83 60.75 C 83.191406 60.472656 83.441406 60.304688 83.75 60.25 Z M 83.75 60.25 "/>
<path style=" stroke:none;fill-rule:evenodd;fill:rgb(93.72549%,93.72549%,92.156863%);fill-opacity:1;" d="M 3.25 41.25 C 4.933594 46.570312 6.183594 52.070312 7 57.75 C 7.445312 60.144531 8.527344 62.144531 10.25 63.75 C 12.417969 68.417969 14.582031 73.082031 16.75 77.75 C 16.75 77.917969 16.75 78.082031 16.75 78.25 C 14.585938 76.5 12.667969 74.5 11 72.25 C 4.96875 62.792969 2.386719 52.460938 3.25 41.25 Z M 3.25 41.25 "/>
<path style=" stroke:none;fill-rule:evenodd;fill:rgb(45.882353%,78.431373%,87.843137%);fill-opacity:1;" d="M 81.75 71.25 C 81.273438 72.371094 80.9375 73.539062 80.75 74.75 C 76.679688 76.066406 72.511719 76.480469 68.25 76 C 68.527344 75.808594 68.695312 75.558594 68.75 75.25 C 73.234375 74.613281 77.484375 73.113281 81.5 70.75 C 81.699219 70.863281 81.78125 71.03125 81.75 71.25 Z M 81.75 71.25 "/>
<path style=" stroke:none;fill-rule:evenodd;fill:rgb(78.039216%,76.470588%,75.294118%);fill-opacity:1;" d="M 61.75 81.25 C 62.957031 81.703125 63.375 82.535156 63 83.75 C 61.996094 84.335938 60.914062 84.667969 59.75 84.75 C 59.59375 83.082031 60.261719 81.914062 61.75 81.25 Z M 61.75 81.25 "/>
<path style=" stroke:none;fill-rule:evenodd;fill:rgb(10.588235%,49.411765%,62.745098%);fill-opacity:1;" d="M 76.25 84.25 C 76.195312 83.941406 76.027344 83.691406 75.75 83.5 C 73.1875 83.066406 70.6875 82.402344 68.25 81.5 C 67.152344 80.964844 66.320312 80.214844 65.75 79.25 C 65.804688 78.941406 65.972656 78.691406 66.25 78.5 C 70.746094 78.25 75.246094 78.167969 79.75 78.25 C 79.347656 80.726562 78.179688 82.726562 76.25 84.25 Z M 76.25 84.25 "/>
<use xlink:href="#surface23" mask="url(#mask6)"/>
<path style=" stroke:none;fill-rule:evenodd;fill:rgb(43.137255%,75.686275%,85.882353%);fill-opacity:1;" d="M 65.75 79.25 C 66.320312 80.214844 67.152344 80.964844 68.25 81.5 C 70.6875 82.402344 73.1875 83.066406 75.75 83.5 C 76.027344 83.691406 76.195312 83.941406 76.25 84.25 C 72.699219 86.414062 69.28125 86.25 66 83.75 C 65.058594 82.542969 64.722656 81.210938 65 79.75 C 65.191406 79.472656 65.441406 79.304688 65.75 79.25 Z M 65.75 79.25 "/>
<use xlink:href="#surface26" mask="url(#mask7)"/>
<use xlink:href="#surface29" mask="url(#mask8)"/>
<use xlink:href="#surface32" mask="url(#mask9)"/>
</g>
</svg>
