<?xml version="1.0" encoding="UTF-8"?>
<svg xmlns="http://www.w3.org/2000/svg" xmlns:xlink="http://www.w3.org/1999/xlink" width="px" height="px" viewBox="0 0 89 91" version="1.1">
<defs>
<filter id="alpha" filterUnits="objectBoundingBox" x="0%" y="0%" width="100%" height="100%">
  <feColorMatrix type="matrix" in="SourceGraphic" values="0 0 0 0 1 0 0 0 0 1 0 0 0 0 1 0 0 0 1 0"/>
</filter>
<mask id="mask0">
  <g filter="url(#alpha)">
<rect x="0" y="0" width="89" height="91" style="fill:rgb(0%,0%,0%);fill-opacity:0.0705882;stroke:none;"/>
  </g>
</mask>
<clipPath id="clip1">
  <rect x="0" y="0" width="89" height="91"/>
</clipPath>
<g id="surface5" clip-path="url(#clip1)">
<path style=" stroke:none;fill-rule:evenodd;fill:rgb(15.686275%,23.921569%,27.45098%);fill-opacity:1;" d="M 53.25 -0.25 C 54.582031 -0.25 55.917969 -0.25 57.25 -0.25 C 63.296875 1.386719 66.546875 5.386719 67 11.75 C 69.777344 13.972656 71.527344 16.804688 72.25 20.25 C 71.03125 17.273438 69.113281 14.773438 66.5 12.75 C 64.855469 2.023438 58.941406 -1.476562 48.75 2.25 C 50.046875 1.019531 51.546875 0.1875 53.25 -0.25 Z M 53.25 -0.25 "/>
</g>
<mask id="mask1">
  <g filter="url(#alpha)">
<rect x="0" y="0" width="89" height="91" style="fill:rgb(0%,0%,0%);fill-opacity:0.0666667;stroke:none;"/>
  </g>
</mask>
<clipPath id="clip2">
  <rect x="0" y="0" width="89" height="91"/>
</clipPath>
<g id="surface8" clip-path="url(#clip2)">
<path style=" stroke:none;fill-rule:evenodd;fill:rgb(17.254902%,25.098039%,29.411765%);fill-opacity:1;" d="M 47.75 3.25 C 46.914062 4.253906 46.082031 5.253906 45.25 6.25 C 39.152344 4.734375 32.984375 4.398438 26.75 5.25 C 32.421875 3.964844 38.171875 3.964844 44 5.25 C 45.335938 4.738281 46.585938 4.074219 47.75 3.25 Z M 47.75 3.25 "/>
</g>
<mask id="mask2">
  <g filter="url(#alpha)">
<rect x="0" y="0" width="89" height="91" style="fill:rgb(0%,0%,0%);fill-opacity:0.988235;stroke:none;"/>
  </g>
</mask>
<clipPath id="clip3">
  <rect x="0" y="0" width="89" height="91"/>
</clipPath>
<g id="surface11" clip-path="url(#clip3)">
<path style=" stroke:none;fill-rule:evenodd;fill:rgb(4.313725%,3.921569%,4.313725%);fill-opacity:1;" d="M 72.25 20.25 C 72.578125 20.640625 72.996094 20.972656 73.5 21.25 C 75.324219 20.621094 77.074219 20.621094 78.75 21.25 C 79.96875 22.214844 81.136719 23.300781 82.25 24.5 C 84.835938 24.367188 86.335938 25.53125 86.75 28 C 86.320312 29.441406 85.820312 30.855469 85.25 32.25 C 86.316406 33.550781 86.984375 35.050781 87.25 36.75 C 87.261719 37.535156 87.011719 38.199219 86.5 38.75 C 86.332031 43.917969 86.167969 49.082031 86 54.25 C 85.085938 56.140625 84.585938 58.140625 84.5 60.25 C 83.117188 63.214844 81.703125 66.132812 80.25 69 C 78.058594 69.988281 75.894531 69.902344 73.75 68.75 C 72.042969 72.550781 69.625 75.882812 66.5 78.75 C 64.695312 89.066406 58.945312 92.316406 49.25 88.5 C 47.800781 87.300781 46.632812 85.886719 45.75 84.25 C 17.339844 86.84375 2.339844 73.84375 0.75 45.25 C 1.054688 36.882812 2.890625 28.882812 6.25 21.25 C 10.558594 12.679688 17.394531 7.347656 26.75 5.25 C 32.984375 4.398438 39.152344 4.734375 45.25 6.25 C 46.082031 5.253906 46.914062 4.253906 47.75 3.25 C 47.75 2.582031 48.082031 2.25 48.75 2.25 C 58.941406 -1.476562 64.855469 2.023438 66.5 12.75 C 69.113281 14.773438 71.03125 17.273438 72.25 20.25 Z M 72.25 20.25 "/>
</g>
<mask id="mask3">
  <g filter="url(#alpha)">
<rect x="0" y="0" width="89" height="91" style="fill:rgb(0%,0%,0%);fill-opacity:0.0156863;stroke:none;"/>
  </g>
</mask>
<clipPath id="clip4">
  <rect x="0" y="0" width="89" height="91"/>
</clipPath>
<g id="surface14" clip-path="url(#clip4)">
<path style=" stroke:none;fill-rule:evenodd;fill:rgb(16.470588%,22.745098%,26.666667%);fill-opacity:1;" d="M 6.25 21.25 C 2.890625 28.882812 1.054688 36.882812 0.75 45.25 C 2.339844 73.84375 17.339844 86.84375 45.75 84.25 C 46.632812 85.886719 47.800781 87.300781 49.25 88.5 C 58.945312 92.316406 64.695312 89.066406 66.5 78.75 C 69.625 75.882812 72.042969 72.550781 73.75 68.75 C 75.894531 69.902344 78.058594 69.988281 80.25 69 C 81.703125 66.132812 83.117188 63.214844 84.5 60.25 C 84.585938 58.140625 85.085938 56.140625 86 54.25 C 86.167969 49.082031 86.332031 43.917969 86.5 38.75 C 87.011719 38.199219 87.261719 37.535156 87.25 36.75 C 86.984375 35.050781 86.316406 33.550781 85.25 32.25 C 85.820312 30.855469 86.320312 29.441406 86.75 28 C 86.335938 25.53125 84.835938 24.367188 82.25 24.5 C 81.136719 23.300781 79.96875 22.214844 78.75 21.25 C 80.414062 21.246094 81.578125 21.996094 82.25 23.5 C 87.648438 24.542969 88.984375 27.292969 86.25 31.75 C 87.089844 33.097656 87.921875 34.429688 88.75 35.75 C 88.75 36.25 88.75 36.75 88.75 37.25 C 87.597656 38.089844 87.097656 39.257812 87.25 40.75 C 87.726562 44.570312 87.890625 48.320312 87.75 52 C 86.6875 57.480469 84.9375 62.730469 82.5 67.75 C 80.09375 70.980469 77.257812 71.648438 74 69.75 C 72.757812 73.234375 70.757812 76.234375 68 78.75 C 67.464844 81.183594 66.632812 83.515625 65.5 85.75 C 63.800781 87.53125 62.050781 89.199219 60.25 90.75 C 57.082031 90.75 53.917969 90.75 50.75 90.75 C 48.578125 88.664062 46.328125 86.664062 44 84.75 C 22.085938 87.878906 7.921875 78.878906 1.5 57.75 C 0.796875 54.195312 0.214844 50.695312 -0.25 47.25 C -0.25 46.582031 -0.25 45.917969 -0.25 45.25 C 0.417969 44.917969 0.417969 44.582031 -0.25 44.25 C -0.25 43.75 -0.25 43.25 -0.25 42.75 C 0.5 37.746094 1.582031 32.746094 3 27.75 C 3.664062 25.316406 4.75 23.148438 6.25 21.25 Z M 6.25 21.25 "/>
</g>
</defs>
<g id="surface1">
<use xlink:href="#surface5" mask="url(#mask0)"/>
<use xlink:href="#surface8" mask="url(#mask1)"/>
<use xlink:href="#surface11" mask="url(#mask2)"/>
<path style=" stroke:none;fill-rule:evenodd;fill:rgb(74.901961%,66.27451%,62.352941%);fill-opacity:1;" d="M 61.75 6.75 C 63.015625 7.984375 63.433594 9.484375 63 11.25 C 57.554688 10.519531 52.140625 10.019531 46.75 9.75 C 48.589844 9.832031 50.425781 9.75 52.25 9.5 C 51.75 9.332031 51.25 9.167969 50.75 9 C 54.3125 6.835938 57.976562 6.085938 61.75 6.75 Z M 61.75 6.75 "/>
<path style=" stroke:none;fill-rule:evenodd;fill:rgb(81.568627%,71.372549%,66.27451%);fill-opacity:1;" d="M 62.75 13.75 C 62.601562 14.800781 62.765625 15.800781 63.25 16.75 C 67.390625 20.625 68.890625 25.375 67.75 31 C 67.878906 31.664062 68.210938 32.164062 68.75 32.5 C 68.1875 34.472656 68.6875 34.722656 70.25 33.25 C 71.136719 33.519531 71.300781 33.933594 70.75 34.5 C 71.046875 34.730469 71.378906 34.816406 71.75 34.75 C 71.539062 35.109375 71.207031 35.359375 70.75 35.5 C 68.050781 35.613281 65.382812 35.945312 62.75 36.5 C 65.007812 36.585938 67.175781 36.835938 69.25 37.25 C 66.917969 37.25 64.582031 37.25 62.25 37.25 C 61.25 36.917969 60.25 36.582031 59.25 36.25 C 61.65625 36.152344 63.824219 35.402344 65.75 34 C 63.28125 34.289062 60.78125 34.539062 58.25 34.75 C 57.75 34.75 57.25 34.75 56.75 34.75 C 61.074219 31.589844 62.40625 27.425781 60.75 22.25 C 61.058594 22.195312 61.308594 22.027344 61.5 21.75 C 62 22.582031 62.5 23.417969 63 24.25 C 63.550781 22.976562 64.132812 22.976562 64.75 24.25 C 64.335938 24.691406 63.835938 24.859375 63.25 24.75 C 63.332031 26.257812 63.25 27.757812 63 29.25 C 62.21875 30.109375 61.804688 31.109375 61.75 32.25 C 66.695312 32.71875 68.445312 30.550781 67 25.75 C 66.339844 23.011719 65.089844 20.59375 63.25 18.5 C 56.855469 14.902344 50.523438 14.902344 44.25 18.5 C 42.007812 20.785156 41.171875 23.535156 41.75 26.75 C 41.417969 25.320312 41.082031 23.820312 40.75 22.25 C 40.457031 22.355469 40.207031 22.519531 40 22.75 C 38.59375 27.703125 39.507812 31.871094 42.75 35.25 C 39.75 35.582031 36.75 35.917969 33.75 36.25 C 33.617188 35.015625 33.28125 33.851562 32.75 32.75 C 33.511719 32.785156 34.011719 32.453125 34.25 31.75 C 32.878906 30.128906 31.378906 28.542969 29.75 27 C 28.261719 25.839844 26.59375 25.089844 24.75 24.75 C 25.132812 24.367188 25.632812 24.117188 26.25 24 C 25.679688 23.628906 25.679688 23.210938 26.25 22.75 C 25.878906 22.410156 25.546875 22.074219 25.25 21.75 C 26.144531 21.894531 26.976562 21.726562 27.75 21.25 C 23.183594 18.785156 18.351562 17.117188 13.25 16.25 C 18.902344 10.261719 25.902344 7.261719 34.25 7.25 C 37.773438 7.394531 41.273438 7.730469 44.75 8.25 C 44.75 8.917969 44.75 9.582031 44.75 10.25 C 41.0625 10.4375 37.394531 10.855469 33.75 11.5 C 41.410156 12.003906 49.074219 12.339844 56.75 12.5 C 58.804688 12.761719 60.804688 13.175781 62.75 13.75 Z M 62.75 13.75 "/>
<path style=" stroke:none;fill-rule:evenodd;fill:rgb(89.019608%,82.352941%,76.862745%);fill-opacity:1;" d="M 61.75 6.75 C 57.976562 6.085938 54.3125 6.835938 50.75 9 C 51.25 9.167969 51.75 9.332031 52.25 9.5 C 50.425781 9.75 48.589844 9.832031 46.75 9.75 C 48.746094 4.25 52.582031 2.167969 58.25 3.5 C 59.828125 4.164062 60.996094 5.246094 61.75 6.75 Z M 61.75 6.75 "/>
<path style=" stroke:none;fill-rule:evenodd;fill:rgb(1.568627%,1.568627%,1.960784%);fill-opacity:1;" d="M 60.75 22.25 C 62.40625 27.425781 61.074219 31.589844 56.75 34.75 C 54.601562 35.101562 52.433594 35.265625 50.25 35.25 C 45.28125 33.320312 43.113281 29.65625 43.75 24.25 C 44.847656 19.820312 47.683594 17.320312 52.25 16.75 C 56.359375 16.714844 59.195312 18.550781 60.75 22.25 Z M 60.75 22.25 "/>
<path style=" stroke:none;fill-rule:evenodd;fill:rgb(95.686275%,90.980392%,85.098039%);fill-opacity:1;" d="M 60.75 22.25 C 59.195312 18.550781 56.359375 16.714844 52.25 16.75 C 47.683594 17.320312 44.847656 19.820312 43.75 24.25 C 43.34375 25.316406 43.09375 26.480469 43 27.75 C 42.832031 26.417969 42.667969 25.082031 42.5 23.75 C 42.410156 25.511719 42.160156 27.179688 41.75 28.75 C 41.75 28.082031 41.75 27.417969 41.75 26.75 C 41.171875 23.535156 42.007812 20.785156 44.25 18.5 C 50.523438 14.902344 56.855469 14.902344 63.25 18.5 C 65.089844 20.59375 66.339844 23.011719 67 25.75 C 68.445312 30.550781 66.695312 32.71875 61.75 32.25 C 61.804688 31.109375 62.21875 30.109375 63 29.25 C 63.25 27.757812 63.332031 26.257812 63.25 24.75 C 63.835938 24.859375 64.335938 24.691406 64.75 24.25 C 64.132812 22.976562 63.550781 22.976562 63 24.25 C 62.5 23.417969 62 22.582031 61.5 21.75 C 61.308594 22.027344 61.058594 22.195312 60.75 22.25 Z M 60.75 22.25 "/>
<path style=" stroke:none;fill-rule:evenodd;fill:rgb(74.117647%,67.843137%,63.137255%);fill-opacity:1;" d="M 13.75 17.25 C 16.464844 17.851562 19.128906 18.765625 21.75 20 C 20.203125 22.195312 18.203125 22.777344 15.75 21.75 C 14.992188 21.296875 14.15625 20.878906 13.25 20.5 C 13.582031 20.332031 13.917969 20.167969 14.25 20 C 13.285156 19.550781 12.453125 18.964844 11.75 18.25 C 12.144531 17.449219 12.808594 17.113281 13.75 17.25 Z M 13.75 17.25 "/>
<path style=" stroke:none;fill-rule:evenodd;fill:rgb(43.137255%,41.176471%,39.607843%);fill-opacity:1;" d="M 11.75 18.25 C 12.453125 18.964844 13.285156 19.550781 14.25 20 C 13.917969 20.167969 13.582031 20.332031 13.25 20.5 C 14.15625 20.878906 14.992188 21.296875 15.75 21.75 C 16.980469 22.371094 18.316406 22.871094 19.75 23.25 C 19.417969 23.417969 19.082031 23.582031 18.75 23.75 C 16.457031 22.925781 14.125 22.261719 11.75 21.75 C 10.902344 21.832031 10.066406 21.746094 9.25 21.5 C 10.015625 20.324219 10.847656 19.242188 11.75 18.25 Z M 11.75 18.25 "/>
<path style=" stroke:none;fill-rule:evenodd;fill:rgb(78.039216%,67.45098%,61.568627%);fill-opacity:1;" d="M 62.75 13.75 C 66.320312 15.535156 68.738281 18.371094 70 22.25 C 70.675781 23.859375 71.09375 25.527344 71.25 27.25 C 71.328125 27.9375 71.246094 28.601562 71 29.25 C 69.285156 30.421875 69.117188 31.585938 70.5 32.75 C 71.273438 31.367188 71.855469 31.453125 72.25 33 C 72.171875 33.605469 72.007812 34.1875 71.75 34.75 C 71.378906 34.816406 71.046875 34.730469 70.75 34.5 C 71.300781 33.933594 71.136719 33.519531 70.25 33.25 C 68.6875 34.722656 68.1875 34.472656 68.75 32.5 C 68.210938 32.164062 67.878906 31.664062 67.75 31 C 68.890625 25.375 67.390625 20.625 63.25 16.75 C 62.765625 15.800781 62.601562 14.800781 62.75 13.75 Z M 62.75 13.75 "/>
<path style=" stroke:none;fill-rule:evenodd;fill:rgb(12.941176%,10.980392%,9.803922%);fill-opacity:1;" d="M 13.25 16.25 C 18.351562 17.117188 23.183594 18.785156 27.75 21.25 C 26.976562 21.726562 26.144531 21.894531 25.25 21.75 C 22.675781 20.65625 21.175781 21.488281 20.75 24.25 C 22.117188 24.199219 23.453125 24.367188 24.75 24.75 C 26.59375 25.089844 28.261719 25.839844 29.75 27 C 31.378906 28.542969 32.878906 30.128906 34.25 31.75 C 32.605469 31.367188 31.273438 30.453125 30.25 29 C 27.402344 26.746094 24.234375 25.664062 20.75 25.75 C 23.324219 27.371094 25.988281 28.703125 28.75 29.75 C 28.164062 30.257812 27.828125 30.921875 27.75 31.75 C 26.914062 30.667969 25.914062 30.503906 24.75 31.25 C 24.75 30.917969 24.75 30.582031 24.75 30.25 C 25.4375 30.328125 26.101562 30.246094 26.75 30 C 25.714844 29.238281 24.546875 28.820312 23.25 28.75 C 23.320312 29.5625 22.988281 30.144531 22.25 30.5 C 22.75 31.273438 23.25 31.355469 23.75 30.75 C 24.289062 33.058594 24.289062 35.308594 23.75 37.5 C 24.046875 37.730469 24.378906 37.816406 24.75 37.75 C 23.320312 39.324219 21.820312 40.90625 20.25 42.5 C 22.035156 42.183594 23.867188 41.933594 25.75 41.75 C 26.375 37.828125 26.707031 37.828125 26.75 41.75 C 28.195312 41.890625 28.945312 41.222656 29 39.75 C 29.503906 40.328125 30.171875 40.664062 31 40.75 C 33.554688 40.003906 36.136719 39.589844 38.75 39.5 C 38.070312 39.96875 37.402344 40.382812 36.75 40.75 C 31.117188 42.007812 25.449219 43.175781 19.75 44.25 C 19.726562 45.550781 19.226562 46.632812 18.25 47.5 C 18.75 47.667969 19.25 47.832031 19.75 48 C 17.199219 49.03125 14.617188 49.949219 12 50.75 C 12.535156 52.6875 13.621094 53.019531 15.25 51.75 C 15.417969 51.917969 15.582031 52.082031 15.75 52.25 C 14.511719 53.992188 12.925781 55.328125 11 56.25 C 10.757812 56.722656 10.675781 57.222656 10.75 57.75 C 12.125 57.59375 13.457031 57.761719 14.75 58.25 C 12.921875 59.53125 10.921875 60.53125 8.75 61.25 C 7.613281 61.476562 6.945312 62.144531 6.75 63.25 C 6.261719 62.273438 5.761719 61.273438 5.25 60.25 C 6.996094 60.539062 8.660156 60.121094 10.25 59 C 9.28125 58.136719 9.28125 57.136719 10.25 56 C 9.75 55.832031 9.25 55.667969 8.75 55.5 C 9.832031 55.042969 10.832031 54.460938 11.75 53.75 C 10.984375 52.886719 10.484375 51.886719 10.25 50.75 C 11.429688 48.402344 12.011719 45.902344 12 43.25 C 12.503906 41.316406 13.253906 39.484375 14.25 37.75 C 13.476562 37.273438 12.644531 37.105469 11.75 37.25 C 12.28125 35.566406 12.78125 33.902344 13.25 32.25 C 13.964844 32.210938 14.632812 32.378906 15.25 32.75 C 16.109375 30.90625 15.777344 29.40625 14.25 28.25 C 14.785156 27.78125 15.449219 27.617188 16.25 27.75 C 16.160156 26.703125 16.324219 25.703125 16.75 24.75 C 14.246094 23.464844 11.582031 22.964844 8.75 23.25 C 9.8125 22.898438 10.8125 22.398438 11.75 21.75 C 14.125 22.261719 16.457031 22.925781 18.75 23.75 C 19.082031 23.582031 19.417969 23.417969 19.75 23.25 C 18.316406 22.871094 16.980469 22.371094 15.75 21.75 C 18.203125 22.777344 20.203125 22.195312 21.75 20 C 19.128906 18.765625 16.464844 17.851562 13.75 17.25 C 13.542969 16.890625 13.207031 16.640625 12.75 16.5 C 12.863281 16.300781 13.03125 16.21875 13.25 16.25 Z M 13.25 16.25 "/>
<use xlink:href="#surface14" mask="url(#mask3)"/>
<path style=" stroke:none;fill-rule:evenodd;fill:rgb(73.72549%,66.666667%,63.137255%);fill-opacity:1;" d="M 77.25 63.75 C 78.082031 63.75 78.917969 63.75 79.75 63.75 C 80.058594 66.101562 79.058594 67.4375 76.75 67.75 C 76.699219 66.382812 76.867188 65.046875 77.25 63.75 Z M 77.25 63.75 "/>
<path style=" stroke:none;fill-rule:evenodd;fill:rgb(74.509804%,67.45098%,60.392157%);fill-opacity:1;" d="M 72.25 51.25 C 72.75 51.25 73.25 51.25 73.75 51.25 C 73.953125 53.375 73.285156 55.125 71.75 56.5 C 72.289062 56.835938 72.621094 57.335938 72.75 58 C 72.644531 59.847656 71.980469 61.429688 70.75 62.75 C 71.175781 63.703125 71.339844 64.703125 71.25 65.75 C 70.699219 67.746094 69.867188 69.578125 68.75 71.25 C 68.453125 71.132812 68.285156 70.882812 68.25 70.5 C 69.117188 63.917969 70.449219 57.5 72.25 51.25 Z M 72.25 51.25 "/>
<path style=" stroke:none;fill-rule:evenodd;fill:rgb(75.686275%,67.45098%,63.921569%);fill-opacity:1;" d="M 82.25 57.75 C 82.25 58.082031 82.25 58.417969 82.25 58.75 C 81.867188 59.832031 81.367188 60.917969 80.75 62 C 79.933594 62.246094 79.097656 62.328125 78.25 62.25 C 77.886719 59.109375 79.21875 57.609375 82.25 57.75 Z M 82.25 57.75 "/>
<path style=" stroke:none;fill-rule:evenodd;fill:rgb(85.490196%,78.431373%,71.764706%);fill-opacity:1;" d="M 63.75 65.75 C 63.042969 66.800781 63.375 67.300781 64.75 67.25 C 64.8125 68.328125 64.5625 69.328125 64 70.25 C 63.332031 69.917969 62.832031 69.417969 62.5 68.75 C 61.996094 69.167969 61.410156 69.335938 60.75 69.25 C 62.945312 63.390625 61.28125 58.976562 55.75 56 C 54.089844 55.75 52.425781 55.667969 50.75 55.75 C 51.984375 55.339844 53.316406 55.089844 54.75 55 C 51.6875 54.636719 51.605469 54.386719 54.5 54.25 C 60.941406 55.28125 64.023438 59.117188 63.75 65.75 Z M 63.75 65.75 "/>
<path style=" stroke:none;fill-rule:evenodd;fill:rgb(1.568627%,1.568627%,1.960784%);fill-opacity:1;" d="M 50.75 55.75 C 52.425781 55.667969 54.089844 55.75 55.75 56 C 61.28125 58.976562 62.945312 63.390625 60.75 69.25 C 58.207031 73.351562 54.539062 74.765625 49.75 73.5 C 48.03125 72.695312 46.53125 71.613281 45.25 70.25 C 42.265625 63.527344 44.101562 58.691406 50.75 55.75 Z M 50.75 55.75 "/>
<path style=" stroke:none;fill-rule:evenodd;fill:rgb(78.431373%,70.980392%,65.882353%);fill-opacity:1;" d="M 80.75 51.25 C 83.964844 51.398438 84.632812 52.898438 82.75 55.75 C 81.980469 56.152344 81.144531 56.316406 80.25 56.25 C 80.308594 54.570312 80.472656 52.902344 80.75 51.25 Z M 80.75 51.25 "/>
<path style=" stroke:none;fill-rule:evenodd;fill:rgb(66.666667%,61.960784%,58.431373%);fill-opacity:1;" d="M 80.75 45.25 C 80.265625 46.304688 80.097656 47.46875 80.25 48.75 C 79.027344 49.238281 77.691406 49.402344 76.25 49.25 C 76.25 47.75 76.25 46.25 76.25 44.75 C 77.855469 44.59375 79.355469 44.761719 80.75 45.25 Z M 80.75 45.25 "/>
<path style=" stroke:none;fill-rule:evenodd;fill:rgb(75.686275%,68.627451%,64.705882%);fill-opacity:1;" d="M 83.75 48.25 C 83.75 48.75 83.75 49.25 83.75 49.75 C 82.917969 49.75 82.082031 49.75 81.25 49.75 C 81.25 48.417969 81.25 47.082031 81.25 45.75 C 81.777344 44.871094 82.609375 44.539062 83.75 44.75 C 83.75 45.917969 83.75 47.082031 83.75 48.25 Z M 83.75 48.25 "/>
<path style=" stroke:none;fill-rule:evenodd;fill:rgb(41.176471%,35.294118%,31.764706%);fill-opacity:1;" d="M 80.75 45.25 C 80.75 45.582031 80.917969 45.75 81.25 45.75 C 81.25 47.082031 81.25 48.417969 81.25 49.75 C 80.917969 49.417969 80.582031 49.082031 80.25 48.75 C 80.097656 47.46875 80.265625 46.304688 80.75 45.25 Z M 80.75 45.25 "/>
<path style=" stroke:none;fill-rule:evenodd;fill:rgb(78.431373%,68.627451%,61.176471%);fill-opacity:1;" d="M 17.75 32.75 C 19.214844 32.925781 20.628906 33.257812 22 33.75 C 22.332031 35.25 22.332031 36.75 22 38.25 C 19.433594 40.542969 17.769531 43.378906 17 46.75 C 15.789062 47.792969 14.375 48.292969 12.75 48.25 C 12.742188 44.015625 14.160156 40.347656 17 37.25 C 17.28125 36.21875 17.03125 35.300781 16.25 34.5 C 16.535156 33.699219 17.035156 33.117188 17.75 32.75 Z M 17.75 32.75 "/>
<path style=" stroke:none;fill-rule:evenodd;fill:rgb(8.235294%,7.058824%,6.666667%);fill-opacity:1;" d="M 71.25 27.25 C 72.070312 27.574219 72.738281 28.074219 73.25 28.75 C 73.132812 29.394531 73.296875 29.894531 73.75 30.25 C 74.511719 31.433594 75.179688 32.683594 75.75 34 C 75.261719 35.214844 74.925781 36.464844 74.75 37.75 C 75.910156 37.417969 77.078125 37.332031 78.25 37.5 C 80.679688 41.296875 82.179688 40.878906 82.75 36.25 C 83.054688 36.3125 83.21875 36.476562 83.25 36.75 C 82.792969 37.832031 82.792969 38.996094 83.25 40.25 C 81.65625 40.769531 81.15625 41.769531 81.75 43.25 C 82.207031 42.9375 82.707031 42.769531 83.25 42.75 C 83.894531 43.4375 84.226562 44.351562 84.25 45.5 C 84.246094 46.515625 84.082031 47.433594 83.75 48.25 C 83.75 47.082031 83.75 45.917969 83.75 44.75 C 82.609375 44.539062 81.777344 44.871094 81.25 45.75 C 80.917969 45.75 80.75 45.582031 80.75 45.25 C 79.355469 44.761719 77.855469 44.59375 76.25 44.75 C 76.25 46.25 76.25 47.75 76.25 49.25 C 77.691406 49.402344 79.027344 49.238281 80.25 48.75 C 80.582031 49.082031 80.917969 49.417969 81.25 49.75 C 81.804688 50.144531 82.472656 50.394531 83.25 50.5 C 82.308594 50.597656 81.476562 50.847656 80.75 51.25 C 80.472656 52.902344 80.308594 54.570312 80.25 56.25 C 81.144531 56.316406 81.980469 56.152344 82.75 55.75 C 82.882812 56.550781 82.71875 57.214844 82.25 57.75 C 79.21875 57.609375 77.886719 59.109375 78.25 62.25 C 79.097656 62.328125 79.933594 62.246094 80.75 62 C 81.367188 60.917969 81.867188 59.832031 82.25 58.75 C 83.097656 60.605469 82.597656 62.019531 80.75 63 C 79.480469 63.09375 78.316406 63.34375 77.25 63.75 C 76.867188 65.046875 76.699219 66.382812 76.75 67.75 C 76.417969 67.25 76.082031 66.75 75.75 66.25 C 75.75 65.417969 75.75 64.582031 75.75 63.75 C 74.917969 63.75 74.082031 63.75 73.25 63.75 C 73.25 64.582031 73.25 65.417969 73.25 66.25 C 72.644531 65.882812 71.980469 65.714844 71.25 65.75 C 71.339844 64.703125 71.175781 63.703125 70.75 62.75 C 71.980469 61.429688 72.644531 59.847656 72.75 58 C 72.621094 57.335938 72.289062 56.835938 71.75 56.5 C 73.285156 55.125 73.953125 53.375 73.75 51.25 C 73.25 51.25 72.75 51.25 72.25 51.25 C 72.25 50.917969 72.25 50.582031 72.25 50.25 C 72.917969 50.25 73.582031 50.25 74.25 50.25 C 74.25 48.25 74.25 46.25 74.25 44.25 C 72.59375 44.089844 72.59375 43.421875 74.25 42.25 C 74.144531 39.3125 72.644531 37.644531 69.75 37.25 C 69.582031 37.25 69.417969 37.25 69.25 37.25 C 67.175781 36.835938 65.007812 36.585938 62.75 36.5 C 65.382812 35.945312 68.050781 35.613281 70.75 35.5 C 71.207031 35.359375 71.539062 35.109375 71.75 34.75 C 72.007812 34.1875 72.171875 33.605469 72.25 33 C 71.855469 31.453125 71.273438 31.367188 70.5 32.75 C 69.117188 31.585938 69.285156 30.421875 71 29.25 C 71.246094 28.601562 71.328125 27.9375 71.25 27.25 Z M 71.25 27.25 "/>
<path style=" stroke:none;fill-rule:evenodd;fill:rgb(36.862745%,36.862745%,38.039216%);fill-opacity:1;" d="M 75.75 66.25 C 74.917969 66.25 74.082031 66.25 73.25 66.25 C 73.25 65.417969 73.25 64.582031 73.25 63.75 C 74.082031 63.75 74.917969 63.75 75.75 63.75 C 75.75 64.582031 75.75 65.417969 75.75 66.25 Z M 75.75 66.25 "/>
<path style=" stroke:none;fill-rule:evenodd;fill:rgb(79.215686%,71.764706%,68.235294%);fill-opacity:1;" d="M 74.75 57.25 C 75.882812 57.609375 77.046875 57.777344 78.25 57.75 C 78.65625 60.910156 77.324219 62.242188 74.25 61.75 C 74.253906 60.226562 74.421875 58.726562 74.75 57.25 Z M 74.75 57.25 "/>
<path style=" stroke:none;fill-rule:evenodd;fill:rgb(72.156863%,66.666667%,61.176471%);fill-opacity:1;" d="M 75.75 51.25 C 77.25 51.25 78.75 51.25 80.25 51.25 C 79.917969 52.917969 79.582031 54.582031 79.25 56.25 C 77.917969 56.25 76.582031 56.25 75.25 56.25 C 75.417969 54.582031 75.582031 52.917969 75.75 51.25 Z M 75.75 51.25 "/>
<path style=" stroke:none;fill-rule:evenodd;fill:rgb(99.215686%,95.294118%,87.058824%);fill-opacity:1;" d="M 36.75 40.75 C 37.417969 40.75 38.082031 40.75 38.75 40.75 C 40.699219 41.464844 42.699219 41.964844 44.75 42.25 C 42.910156 42.167969 41.074219 42.25 39.25 42.5 C 40.914062 42.804688 42.582031 43.054688 44.25 43.25 C 45.082031 43.25 45.917969 43.25 46.75 43.25 C 45.980469 43.582031 45.144531 43.914062 44.25 44.25 C 45.351562 45.417969 46.601562 45.582031 48 44.75 C 50.464844 44.988281 52.878906 45.402344 55.25 46 C 53.792969 47.035156 53.960938 47.703125 55.75 48 C 55.429688 48.851562 55.429688 49.769531 55.75 50.75 C 54.699219 50.601562 53.699219 50.765625 52.75 51.25 C 54.273438 51.925781 55.691406 51.761719 57 50.75 C 60.988281 53.667969 65.070312 53.667969 69.25 50.75 C 69.542969 50.855469 69.792969 51.023438 70 51.25 C 70.148438 53.980469 69.5625 56.566406 68.25 59 C 68.417969 59.167969 68.582031 59.332031 68.75 59.5 C 68.054688 60.085938 67.636719 60.835938 67.5 61.75 C 67.332031 61.582031 67.167969 61.417969 67 61.25 C 66.839844 62.03125 66.425781 62.613281 65.75 63 C 66.46875 63.496094 66.96875 64.160156 67.25 65 C 66.777344 65.308594 66.359375 65.226562 66 64.75 C 65.398438 65.234375 65.148438 65.734375 65.25 66.25 C 64.792969 65.9375 64.292969 65.769531 63.75 65.75 C 64.023438 59.117188 60.941406 55.28125 54.5 54.25 C 51.605469 54.386719 51.6875 54.636719 54.75 55 C 53.316406 55.089844 51.984375 55.339844 50.75 55.75 C 44.101562 58.691406 42.265625 63.527344 45.25 70.25 C 44.976562 70.28125 44.8125 70.445312 44.75 70.75 C 45.707031 71.535156 46.207031 72.535156 46.25 73.75 C 49.714844 74.746094 53.214844 75.078125 56.75 74.75 C 57.25 75 57.75 75.25 58.25 75.5 C 56.453125 75.894531 54.703125 75.8125 53 75.25 C 51.796875 75.636719 50.546875 75.886719 49.25 76 C 48.054688 76.65625 48.054688 77.15625 49.25 77.5 C 43.550781 77.539062 37.882812 77.953125 32.25 78.75 C 29.5625 78.191406 26.898438 77.523438 24.25 76.75 C 24.082031 76.917969 23.917969 77.082031 23.75 77.25 C 25.621094 78.402344 27.621094 79.320312 29.75 80 C 28.027344 80.097656 26.359375 79.761719 24.75 79 C 18.214844 75.628906 13.128906 70.714844 9.5 64.25 C 8.9375 63.328125 8.6875 62.328125 8.75 61.25 C 10.921875 60.53125 12.921875 59.53125 14.75 58.25 C 13.457031 57.761719 12.125 57.59375 10.75 57.75 C 10.675781 57.222656 10.757812 56.722656 11 56.25 C 12.925781 55.328125 14.511719 53.992188 15.75 52.25 C 15.582031 52.082031 15.417969 51.917969 15.25 51.75 C 13.621094 53.019531 12.535156 52.6875 12 50.75 C 14.617188 49.949219 17.199219 49.03125 19.75 48 C 19.25 47.832031 18.75 47.667969 18.25 47.5 C 19.226562 46.632812 19.726562 45.550781 19.75 44.25 C 25.449219 43.175781 31.117188 42.007812 36.75 40.75 Z M 36.75 40.75 "/>
<path style=" stroke:none;fill-rule:evenodd;fill:rgb(14.509804%,20.784314%,24.705882%);fill-opacity:1;" d="M 47.25 52.75 C 47.6875 52.683594 48.023438 52.851562 48.25 53.25 C 43.21875 57.148438 40.71875 62.316406 40.75 68.75 C 38.03125 63.441406 39.03125 58.855469 43.75 55 C 44.949219 54.238281 46.117188 53.488281 47.25 52.75 Z M 47.25 52.75 "/>
<path style=" stroke:none;fill-rule:evenodd;fill:rgb(37.647059%,27.843137%,23.529412%);fill-opacity:1;" d="M 44.25 43.25 C 44.785156 42.78125 45.449219 42.617188 46.25 42.75 C 49.214844 42.523438 52.050781 42.941406 54.75 44 C 52.09375 43.882812 49.429688 43.632812 46.75 43.25 C 45.917969 43.25 45.082031 43.25 44.25 43.25 Z M 44.25 43.25 "/>
<path style=" stroke:none;fill-rule:evenodd;fill:rgb(61.960784%,53.333333%,46.27451%);fill-opacity:1;" d="M 44.75 42.25 C 45.394531 42.132812 45.894531 42.296875 46.25 42.75 C 45.449219 42.617188 44.785156 42.78125 44.25 43.25 C 42.582031 43.054688 40.914062 42.804688 39.25 42.5 C 41.074219 42.25 42.910156 42.167969 44.75 42.25 Z M 44.75 42.25 "/>
<path style=" stroke:none;fill-rule:evenodd;fill:rgb(81.568627%,72.54902%,66.666667%);fill-opacity:1;" d="M 8.75 23.25 C 11.582031 22.964844 14.246094 23.464844 16.75 24.75 C 16.324219 25.703125 16.160156 26.703125 16.25 27.75 C 15.449219 27.617188 14.785156 27.78125 14.25 28.25 C 12.308594 26.863281 10.140625 26.195312 7.75 26.25 C 6.570312 30.722656 5.488281 35.222656 4.5 39.75 C 4.03125 42.261719 4.28125 44.679688 5.25 47 C 4.84375 49.390625 4.507812 51.804688 4.25 54.25 C 2.519531 45.496094 3.105469 36.828125 6 28.25 C 6.8125 26.457031 7.726562 24.789062 8.75 23.25 Z M 8.75 23.25 "/>
<path style=" stroke:none;fill-rule:evenodd;fill:rgb(58.823529%,55.294118%,52.54902%);fill-opacity:1;" d="M 76.25 39.75 C 78.324219 40.070312 79.40625 41.238281 79.5 43.25 C 78.480469 42.789062 77.394531 42.621094 76.25 42.75 C 76.25 41.75 76.25 40.75 76.25 39.75 Z M 76.25 39.75 "/>
<path style=" stroke:none;fill-rule:evenodd;fill:rgb(61.176471%,59.215686%,57.647059%);fill-opacity:1;" d="M 83.25 40.25 C 83.25 41.082031 83.25 41.917969 83.25 42.75 C 82.707031 42.769531 82.207031 42.9375 81.75 43.25 C 81.15625 41.769531 81.65625 40.769531 83.25 40.25 Z M 83.25 40.25 "/>
<path style=" stroke:none;fill-rule:evenodd;fill:rgb(60.784314%,55.686275%,52.156863%);fill-opacity:1;" d="M 69.75 37.25 C 72.644531 37.644531 74.144531 39.3125 74.25 42.25 C 72.59375 43.421875 72.59375 44.089844 74.25 44.25 C 74.25 46.25 74.25 48.25 74.25 50.25 C 73.582031 50.25 72.917969 50.25 72.25 50.25 C 73.039062 46.851562 72.789062 43.519531 71.5 40.25 C 70.726562 39.3125 69.8125 38.5625 68.75 38 C 69.207031 37.859375 69.539062 37.609375 69.75 37.25 Z M 69.75 37.25 "/>
<path style=" stroke:none;fill-rule:evenodd;fill:rgb(70.196078%,61.176471%,55.294118%);fill-opacity:1;" d="M 47.75 38.25 C 48.070312 39.230469 48.070312 40.148438 47.75 41 C 48.3125 41.523438 48.976562 41.855469 49.75 42 C 46.109375 41.5625 42.441406 41.148438 38.75 40.75 C 38.082031 40.75 37.417969 40.75 36.75 40.75 C 37.402344 40.382812 38.070312 39.96875 38.75 39.5 C 36.136719 39.589844 33.554688 40.003906 31 40.75 C 30.171875 40.664062 29.503906 40.328125 29 39.75 C 28.945312 41.222656 28.195312 41.890625 26.75 41.75 C 26.707031 37.828125 26.375 37.828125 25.75 41.75 C 23.867188 41.933594 22.035156 42.183594 20.25 42.5 C 21.820312 40.90625 23.320312 39.324219 24.75 37.75 C 30.398438 37.921875 35.980469 37.421875 41.5 36.25 C 43.789062 36.375 45.871094 37.039062 47.75 38.25 Z M 47.75 38.25 "/>
<path style=" stroke:none;fill-rule:evenodd;fill:rgb(88.235294%,78.431373%,71.372549%);fill-opacity:1;" d="M 14.25 28.25 C 15.777344 29.40625 16.109375 30.90625 15.25 32.75 C 14.632812 32.378906 13.964844 32.210938 13.25 32.25 C 12.78125 33.902344 12.28125 35.566406 11.75 37.25 C 12.644531 37.105469 13.476562 37.273438 14.25 37.75 C 13.253906 39.484375 12.503906 41.316406 12 43.25 C 12.011719 45.902344 11.429688 48.402344 10.25 50.75 C 10.484375 51.886719 10.984375 52.886719 11.75 53.75 C 10.832031 54.460938 9.832031 55.042969 8.75 55.5 C 9.25 55.667969 9.75 55.832031 10.25 56 C 9.28125 57.136719 9.28125 58.136719 10.25 59 C 8.660156 60.121094 6.996094 60.539062 5.25 60.25 C 4.917969 58.25 4.582031 56.25 4.25 54.25 C 4.507812 51.804688 4.84375 49.390625 5.25 47 C 4.28125 44.679688 4.03125 42.261719 4.5 39.75 C 5.488281 35.222656 6.570312 30.722656 7.75 26.25 C 10.140625 26.195312 12.308594 26.863281 14.25 28.25 Z M 14.25 28.25 "/>
<path style=" stroke:none;fill-rule:evenodd;fill:rgb(46.27451%,44.313725%,41.176471%);fill-opacity:1;" d="M 59.25 36.25 C 60.25 36.582031 61.25 36.917969 62.25 37.25 C 58.617188 37.910156 54.949219 38.246094 51.25 38.25 C 51.25 37.917969 51.25 37.582031 51.25 37.25 C 51.25 37.082031 51.25 36.917969 51.25 36.75 C 53.945312 37.332031 56.613281 37.164062 59.25 36.25 Z M 59.25 36.25 "/>
<path style=" stroke:none;fill-rule:evenodd;fill:rgb(10.196078%,8.627451%,8.235294%);fill-opacity:1;" d="M 28.75 29.75 C 30.238281 30.574219 31.570312 31.574219 32.75 32.75 C 33.28125 33.851562 33.617188 35.015625 33.75 36.25 C 36.75 35.917969 39.75 35.582031 42.75 35.25 C 43.28125 35.847656 43.699219 35.679688 44 34.75 C 44.597656 35.824219 45.347656 36.160156 46.25 35.75 C 47.734375 36.824219 49.402344 37.324219 51.25 37.25 C 51.25 37.582031 51.25 37.917969 51.25 38.25 C 50.082031 38.25 48.917969 38.25 47.75 38.25 C 45.871094 37.039062 43.789062 36.375 41.5 36.25 C 35.980469 37.421875 30.398438 37.921875 24.75 37.75 C 24.378906 37.816406 24.046875 37.730469 23.75 37.5 C 24.289062 35.308594 24.289062 33.058594 23.75 30.75 C 23.921875 30.332031 24.253906 30.164062 24.75 30.25 C 24.75 30.582031 24.75 30.917969 24.75 31.25 C 24.667969 32.59375 24.75 33.925781 25 35.25 C 25.832031 35.917969 26.667969 35.917969 27.5 35.25 C 27.75 34.09375 27.832031 32.929688 27.75 31.75 C 27.828125 30.921875 28.164062 30.257812 28.75 29.75 Z M 28.75 29.75 "/>
<path style=" stroke:none;fill-rule:evenodd;fill:rgb(9.019608%,7.45098%,6.666667%);fill-opacity:1;" d="M 59.25 36.25 C 56.613281 37.164062 53.945312 37.332031 51.25 36.75 C 50.582031 36.582031 50.582031 36.417969 51.25 36.25 C 53.648438 35.839844 55.980469 35.339844 58.25 34.75 C 60.78125 34.539062 63.28125 34.289062 65.75 34 C 63.824219 35.402344 61.65625 36.152344 59.25 36.25 Z M 59.25 36.25 "/>
<path style=" stroke:none;fill-rule:evenodd;fill:rgb(81.960784%,71.764706%,65.490196%);fill-opacity:1;" d="M 83.25 36.75 C 83.21875 36.476562 83.054688 36.3125 82.75 36.25 C 82.179688 40.878906 80.679688 41.296875 78.25 37.5 C 77.078125 37.332031 75.910156 37.417969 74.75 37.75 C 74.925781 36.464844 75.261719 35.214844 75.75 34 C 75.179688 32.683594 74.511719 31.433594 73.75 30.25 C 73.75 29.75 73.75 29.25 73.75 28.75 C 74.550781 28.882812 75.214844 28.71875 75.75 28.25 C 76.613281 27.109375 76.945312 25.777344 76.75 24.25 C 77.632812 24.179688 78.464844 24.34375 79.25 24.75 C 79.738281 25.871094 79.902344 27.039062 79.75 28.25 C 81.25 27.917969 82.75 27.582031 84.25 27.25 C 84.078125 29.175781 83.414062 30.925781 82.25 32.5 C 83.308594 33.703125 84.308594 34.953125 85.25 36.25 C 84.65625 36.714844 83.988281 36.882812 83.25 36.75 Z M 83.25 36.75 "/>
<path style=" stroke:none;fill-rule:evenodd;fill:rgb(42.352941%,40.784314%,39.215686%);fill-opacity:1;" d="M 56.75 34.75 C 57.25 34.75 57.75 34.75 58.25 34.75 C 55.980469 35.339844 53.648438 35.839844 51.25 36.25 C 50.917969 35.917969 50.582031 35.582031 50.25 35.25 C 52.433594 35.265625 54.601562 35.101562 56.75 34.75 Z M 56.75 34.75 "/>
<path style=" stroke:none;fill-rule:evenodd;fill:rgb(87.843137%,81.960784%,74.901961%);fill-opacity:1;" d="M 43.75 24.25 C 43.113281 29.65625 45.28125 33.320312 50.25 35.25 C 50.582031 35.582031 50.917969 35.917969 51.25 36.25 C 50.582031 36.417969 50.582031 36.582031 51.25 36.75 C 51.25 36.917969 51.25 37.082031 51.25 37.25 C 49.402344 37.324219 47.734375 36.824219 46.25 35.75 C 43.996094 33.910156 42.496094 31.578125 41.75 28.75 C 42.160156 27.179688 42.410156 25.511719 42.5 23.75 C 42.667969 25.082031 42.832031 26.417969 43 27.75 C 43.09375 26.480469 43.34375 25.316406 43.75 24.25 Z M 43.75 24.25 "/>
<path style=" stroke:none;fill-rule:evenodd;fill:rgb(54.509804%,49.803922%,47.058824%);fill-opacity:1;" d="M 28.75 31.25 C 30.640625 32.78125 30.722656 34.449219 29 36.25 C 28.75 34.589844 28.667969 32.925781 28.75 31.25 Z M 28.75 31.25 "/>
<path style=" stroke:none;fill-rule:evenodd;fill:rgb(68.627451%,59.215686%,54.117647%);fill-opacity:1;" d="M 27.75 31.75 C 27.832031 32.929688 27.75 34.09375 27.5 35.25 C 26.667969 35.917969 25.832031 35.917969 25 35.25 C 24.75 33.925781 24.667969 32.59375 24.75 31.25 C 25.914062 30.503906 26.914062 30.667969 27.75 31.75 Z M 27.75 31.75 "/>
<path style=" stroke:none;fill-rule:evenodd;fill:rgb(14.117647%,11.372549%,10.196078%);fill-opacity:1;" d="M 78.25 31.75 C 79.878906 31.585938 80.628906 32.253906 80.5 33.75 C 79.839844 33.601562 79.089844 33.515625 78.25 33.5 C 77.65625 32.925781 77.65625 32.34375 78.25 31.75 Z M 78.25 31.75 "/>
<path style=" stroke:none;fill-rule:evenodd;fill:rgb(51.372549%,50.196078%,47.45098%);fill-opacity:1;" d="M 24.75 30.25 C 24.253906 30.164062 23.921875 30.332031 23.75 30.75 C 23.25 31.355469 22.75 31.273438 22.25 30.5 C 22.988281 30.144531 23.320312 29.5625 23.25 28.75 C 24.546875 28.820312 25.714844 29.238281 26.75 30 C 26.101562 30.246094 25.4375 30.328125 24.75 30.25 Z M 24.75 30.25 "/>
<path style=" stroke:none;fill-rule:evenodd;fill:rgb(14.901961%,22.745098%,32.54902%);fill-opacity:1;" d="M 41.75 26.75 C 41.75 27.417969 41.75 28.082031 41.75 28.75 C 42.496094 31.578125 43.996094 33.910156 46.25 35.75 C 45.347656 36.160156 44.597656 35.824219 44 34.75 C 43.699219 35.679688 43.28125 35.847656 42.75 35.25 C 39.507812 31.871094 38.59375 27.703125 40 22.75 C 40.207031 22.519531 40.457031 22.355469 40.75 22.25 C 41.082031 23.820312 41.417969 25.320312 41.75 26.75 Z M 41.75 26.75 "/>
<path style=" stroke:none;fill-rule:evenodd;fill:rgb(61.176471%,58.039216%,54.901961%);fill-opacity:1;" d="M 34.25 31.75 C 34.011719 32.453125 33.511719 32.785156 32.75 32.75 C 31.570312 31.574219 30.238281 30.574219 28.75 29.75 C 25.988281 28.703125 23.324219 27.371094 20.75 25.75 C 24.234375 25.664062 27.402344 26.746094 30.25 29 C 31.273438 30.453125 32.605469 31.367188 34.25 31.75 Z M 34.25 31.75 "/>
<path style=" stroke:none;fill-rule:evenodd;fill:rgb(58.431373%,54.117647%,47.843137%);fill-opacity:1;" d="M 19.75 31.25 C 19.636719 30.109375 19.886719 28.941406 20.5 27.75 C 20.910156 29.113281 20.824219 30.445312 20.25 31.75 C 19.945312 31.6875 19.78125 31.523438 19.75 31.25 Z M 19.75 31.25 "/>
<path style=" stroke:none;fill-rule:evenodd;fill:rgb(43.137255%,39.215686%,37.254902%);fill-opacity:1;" d="M 75.75 28.25 C 75.214844 28.71875 74.550781 28.882812 73.75 28.75 C 73.75 29.25 73.75 29.75 73.75 30.25 C 73.296875 29.894531 73.132812 29.394531 73.25 28.75 C 73.960938 28.273438 74.792969 28.109375 75.75 28.25 Z M 75.75 28.25 "/>
<path style=" stroke:none;fill-rule:evenodd;fill:rgb(73.333333%,64.313725%,58.823529%);fill-opacity:1;" d="M 19.75 31.25 C 19.222656 31.324219 18.722656 31.242188 18.25 31 C 16.480469 28.640625 16.648438 26.390625 18.75 24.25 C 18.53125 26.609375 18.863281 28.941406 19.75 31.25 Z M 19.75 31.25 "/>
<path style=" stroke:none;fill-rule:evenodd;fill:rgb(63.529412%,62.352941%,61.176471%);fill-opacity:1;" d="M 73.75 24.25 C 75.476562 24.332031 75.644531 24.832031 74.25 25.75 C 73.808594 25.335938 73.640625 24.835938 73.75 24.25 Z M 73.75 24.25 "/>
<path style=" stroke:none;fill-rule:evenodd;fill:rgb(61.568627%,52.941176%,49.019608%);fill-opacity:1;" d="M 25.25 21.75 C 25.546875 22.074219 25.878906 22.410156 26.25 22.75 C 25.679688 23.210938 25.679688 23.628906 26.25 24 C 25.632812 24.117188 25.132812 24.367188 24.75 24.75 C 23.453125 24.367188 22.117188 24.199219 20.75 24.25 C 21.175781 21.488281 22.675781 20.65625 25.25 21.75 Z M 25.25 21.75 "/>
<path style=" stroke:none;fill-rule:evenodd;fill:rgb(96.862745%,92.54902%,85.882353%);fill-opacity:1;" d="M 62.25 37.25 C 64.582031 37.25 66.917969 37.25 69.25 37.25 C 69.417969 37.25 69.582031 37.25 69.75 37.25 C 69.539062 37.609375 69.207031 37.859375 68.75 38 C 69.8125 38.5625 70.726562 39.3125 71.5 40.25 C 72.789062 43.519531 73.039062 46.851562 72.25 50.25 C 72.25 50.582031 72.25 50.917969 72.25 51.25 C 70.449219 57.5 69.117188 63.917969 68.25 70.5 C 68.285156 70.882812 68.453125 71.132812 68.75 71.25 C 67.542969 74.867188 65.042969 77.117188 61.25 78 C 52.9375 78.628906 44.605469 78.960938 36.25 79 C 39.09375 79.550781 41.925781 80.136719 44.75 80.75 C 27.429688 84.710938 14.761719 78.878906 6.75 63.25 C 6.945312 62.144531 7.613281 61.476562 8.75 61.25 C 8.6875 62.328125 8.9375 63.328125 9.5 64.25 C 13.128906 70.714844 18.214844 75.628906 24.75 79 C 26.359375 79.761719 28.027344 80.097656 29.75 80 C 27.621094 79.320312 25.621094 78.402344 23.75 77.25 C 23.917969 77.082031 24.082031 76.917969 24.25 76.75 C 26.898438 77.523438 29.5625 78.191406 32.25 78.75 C 37.882812 77.953125 43.550781 77.539062 49.25 77.5 C 48.054688 77.15625 48.054688 76.65625 49.25 76 C 50.546875 75.886719 51.796875 75.636719 53 75.25 C 54.703125 75.8125 56.453125 75.894531 58.25 75.5 C 57.75 75.25 57.25 75 56.75 74.75 C 53.214844 75.078125 49.714844 74.746094 46.25 73.75 C 46.207031 72.535156 45.707031 71.535156 44.75 70.75 C 44.8125 70.445312 44.976562 70.28125 45.25 70.25 C 46.53125 71.613281 48.03125 72.695312 49.75 73.5 C 54.539062 74.765625 58.207031 73.351562 60.75 69.25 C 61.410156 69.335938 61.996094 69.167969 62.5 68.75 C 62.832031 69.417969 63.332031 69.917969 64 70.25 C 64.5625 69.328125 64.8125 68.328125 64.75 67.25 C 63.375 67.300781 63.042969 66.800781 63.75 65.75 C 64.292969 65.769531 64.792969 65.9375 65.25 66.25 C 65.148438 65.734375 65.398438 65.234375 66 64.75 C 66.359375 65.226562 66.777344 65.308594 67.25 65 C 66.96875 64.160156 66.46875 63.496094 65.75 63 C 66.425781 62.613281 66.839844 62.03125 67 61.25 C 67.167969 61.417969 67.332031 61.582031 67.5 61.75 C 67.636719 60.835938 68.054688 60.085938 68.75 59.5 C 68.582031 59.332031 68.417969 59.167969 68.25 59 C 69.5625 56.566406 70.148438 53.980469 70 51.25 C 69.792969 51.023438 69.542969 50.855469 69.25 50.75 C 65.070312 53.667969 60.988281 53.667969 57 50.75 C 55.691406 51.761719 54.273438 51.925781 52.75 51.25 C 53.699219 50.765625 54.699219 50.601562 55.75 50.75 C 55.429688 49.769531 55.429688 48.851562 55.75 48 C 53.960938 47.703125 53.792969 47.035156 55.25 46 C 52.878906 45.402344 50.464844 44.988281 48 44.75 C 46.601562 45.582031 45.351562 45.417969 44.25 44.25 C 45.144531 43.914062 45.980469 43.582031 46.75 43.25 C 49.429688 43.632812 52.09375 43.882812 54.75 44 C 52.050781 42.941406 49.214844 42.523438 46.25 42.75 C 45.894531 42.296875 45.394531 42.132812 44.75 42.25 C 42.699219 41.964844 40.699219 41.464844 38.75 40.75 C 42.441406 41.148438 46.109375 41.5625 49.75 42 C 48.976562 41.855469 48.3125 41.523438 47.75 41 C 48.070312 40.148438 48.070312 39.230469 47.75 38.25 C 48.917969 38.25 50.082031 38.25 51.25 38.25 C 54.949219 38.246094 58.617188 37.910156 62.25 37.25 Z M 62.25 37.25 "/>
<path style=" stroke:none;fill-rule:evenodd;fill:rgb(3.921569%,3.529412%,3.529412%);fill-opacity:1;" d="M 61.75 40.75 C 63.589844 40.667969 65.425781 40.75 67.25 41 C 68.582031 42.167969 68.582031 43.332031 67.25 44.5 C 65.210938 44.96875 63.210938 45.550781 61.25 46.25 C 63.261719 46.800781 65.261719 47.386719 67.25 48 C 68.585938 49.339844 68.417969 50.507812 66.75 51.5 C 63.886719 52.050781 61.21875 51.550781 58.75 50 C 55.632812 45.640625 56.632812 42.558594 61.75 40.75 Z M 61.75 40.75 "/>
<path style=" stroke:none;fill-rule:evenodd;fill:rgb(83.921569%,76.862745%,69.803922%);fill-opacity:1;" d="M 61.75 84.75 C 59.789062 84.910156 57.625 84.660156 55.25 84 C 53.777344 83.597656 52.445312 82.929688 51.25 82 C 53.507812 81.914062 55.675781 81.664062 57.75 81.25 C 59.707031 80.425781 61.707031 80.257812 63.75 80.75 C 63.332031 82.253906 62.664062 83.585938 61.75 84.75 Z M 61.75 84.75 "/>
<path style=" stroke:none;fill-rule:evenodd;fill:rgb(94.509804%,89.803922%,84.313725%);fill-opacity:1;" d="M 57.75 81.25 C 55.675781 81.664062 53.507812 81.914062 51.25 82 C 52.445312 82.929688 53.777344 83.597656 55.25 84 C 57.625 84.660156 59.789062 84.910156 61.75 84.75 C 57.734375 89.179688 53.484375 89.34375 49 85.25 C 47.976562 83.925781 47.390625 82.425781 47.25 80.75 C 50.734375 81.144531 54.234375 81.3125 57.75 81.25 Z M 57.75 81.25 "/>
</g>
</svg>
