<?xml version="1.0" encoding="UTF-8"?>
<svg xmlns="http://www.w3.org/2000/svg" xmlns:xlink="http://www.w3.org/1999/xlink" width="px" height="px" viewBox="0 0 97 92" version="1.1">
<defs>
<filter id="alpha" filterUnits="objectBoundingBox" x="0%" y="0%" width="100%" height="100%">
  <feColorMatrix type="matrix" in="SourceGraphic" values="0 0 0 0 1 0 0 0 0 1 0 0 0 0 1 0 0 0 1 0"/>
</filter>
<mask id="mask0">
  <g filter="url(#alpha)">
<rect x="0" y="0" width="97" height="92" style="fill:rgb(0%,0%,0%);fill-opacity:0.0117647;stroke:none;"/>
  </g>
</mask>
<clipPath id="clip1">
  <rect x="0" y="0" width="97" height="92"/>
</clipPath>
<g id="surface5" clip-path="url(#clip1)">
<path style=" stroke:none;fill-rule:evenodd;fill:rgb(13.333333%,23.137255%,29.411765%);fill-opacity:1;" d="M 60.4375 -0.25 C 61.101562 -0.25 61.765625 -0.25 62.429688 -0.25 C 69.125 1.238281 73.183594 5.570312 74.617188 12.75 C 77.257812 14.746094 79.164062 17.328125 80.335938 20.5 C 84.300781 18.992188 87.867188 19.910156 91.03125 23.25 C 91.824219 26.144531 92.902344 28.894531 94.265625 31.5 C 94.035156 31.707031 93.871094 31.957031 93.765625 32.25 C 94.421875 33.15625 95.167969 33.992188 96.003906 34.75 C 96.105469 35.691406 96.351562 36.523438 96.75 37.25 C 96.75 37.417969 96.75 37.582031 96.75 37.75 C 96.273438 39.039062 95.527344 40.203125 94.511719 41.25 C 94.179688 44.25 94.179688 47.25 94.511719 50.25 C 95.191406 51.34375 95.9375 52.34375 96.75 53.25 C 96.75 54.082031 96.75 54.917969 96.75 55.75 C 96.585938 55.75 96.417969 55.75 96.253906 55.75 C 96.257812 53.59375 95.347656 51.929688 93.519531 50.75 C 93.1875 47.582031 93.1875 44.417969 93.519531 41.25 C 96.628906 38.359375 96.464844 35.695312 93.019531 33.25 C 93.082031 30.988281 92.417969 28.988281 91.03125 27.25 C 91.214844 24.363281 89.972656 22.449219 87.300781 21.5 C 84.628906 21.160156 81.976562 21.246094 79.339844 21.75 C 78.378906 17.980469 76.304688 14.980469 73.125 12.75 C 72.886719 7.6875 70.480469 4.105469 65.910156 2 C 59.121094 -0.167969 54.144531 1.914062 50.988281 8.25 C 48.617188 6.789062 46.292969 5.207031 44.023438 3.5 C 35.464844 0.175781 27.089844 0.59375 18.902344 4.75 C 17.132812 3.984375 15.390625 3.152344 13.679688 2.25 C 13.515625 2.417969 13.347656 2.582031 13.183594 2.75 C 13.667969 3.492188 14.25 4.15625 14.921875 4.75 C 15.511719 5.523438 15.679688 6.355469 15.421875 7.25 C 7.3125 15.382812 2.503906 25.214844 0.996094 36.75 C -0.929688 51.125 1.554688 64.625 8.457031 77.25 C 10.414062 80.136719 12.652344 82.804688 15.171875 85.25 C 14.367188 87.121094 13.371094 88.871094 12.1875 90.5 C 14.21875 89.519531 16.289062 88.4375 18.40625 87.25 C 26.3125 91.230469 34.355469 91.730469 42.53125 88.75 C 45.5625 87.703125 48.214844 86.035156 50.488281 83.75 C 51.628906 86.128906 53.289062 88.042969 55.464844 89.5 C 65.230469 92.71875 71.117188 89.304688 73.125 79.25 C 73.457031 78.875 73.871094 78.707031 74.367188 78.75 C 73.667969 81.933594 72.421875 84.933594 70.636719 87.75 C 68.191406 90.203125 65.289062 91.535156 61.929688 91.75 C 61.765625 91.75 61.597656 91.75 61.433594 91.75 C 61.269531 91.082031 61.101562 91.082031 60.9375 91.75 C 60.105469 91.75 59.277344 91.75 58.449219 91.75 C 54.949219 90.65625 52.210938 88.492188 50.242188 85.25 C 44.496094 89.753906 38.277344 91.921875 31.585938 91.75 C 31.253906 91.75 30.925781 91.75 30.59375 91.75 C 26.253906 91.445312 22.191406 90.113281 18.40625 87.75 C 16.410156 89.015625 14.503906 90.347656 12.683594 91.75 C 12.519531 91.75 12.351562 91.75 12.1875 91.75 C 11.703125 90.964844 11.621094 90.132812 11.9375 89.25 C 13.070312 88.144531 13.816406 86.808594 14.175781 85.25 C 6.019531 76.6875 1.210938 66.519531 -0.25 54.75 C -0.25 49.082031 -0.25 43.417969 -0.25 37.75 C 1.015625 29.851562 3.585938 22.351562 7.460938 15.25 C 9.414062 12.289062 11.734375 9.621094 14.425781 7.25 C 14.683594 6.355469 14.519531 5.523438 13.929688 4.75 C 12.992188 3.980469 12.246094 3.0625 11.691406 2 C 12.402344 1.28125 13.230469 1.113281 14.175781 1.5 C 15.6875 2.257812 17.179688 3.007812 18.652344 3.75 C 24.453125 0.738281 30.753906 -0.34375 37.554688 0.5 C 42.601562 1.242188 46.828125 3.492188 50.242188 7.25 C 52.347656 3.292969 55.496094 1.128906 59.691406 0.75 C 60.050781 0.476562 60.296875 0.144531 60.4375 -0.25 Z M 60.4375 -0.25 "/>
</g>
<mask id="mask1">
  <g filter="url(#alpha)">
<rect x="0" y="0" width="97" height="92" style="fill:rgb(0%,0%,0%);fill-opacity:0.862745;stroke:none;"/>
  </g>
</mask>
<clipPath id="clip2">
  <rect x="0" y="0" width="97" height="92"/>
</clipPath>
<g id="surface8" clip-path="url(#clip2)">
<path style=" stroke:none;fill-rule:evenodd;fill:rgb(1.568627%,2.745098%,5.882353%);fill-opacity:1;" d="M 50.988281 8.25 C 51.371094 10.386719 50.625 11.886719 48.75 12.75 C 48.445312 14.179688 48.03125 15.347656 47.503906 16.25 C 45.988281 13.609375 44.332031 11.445312 42.53125 9.75 C 42.53125 8.917969 42.53125 8.082031 42.53125 7.25 C 42.222656 6.332031 41.558594 5.75 40.542969 5.5 C 33.359375 3.195312 26.644531 4.109375 20.394531 8.25 C 20.5625 8.917969 20.726562 9.582031 20.890625 10.25 C 20.097656 9.480469 19.183594 9.230469 18.15625 9.5 C 13.441406 13.152344 9.960938 17.738281 7.710938 23.25 C 5.117188 28.777344 3.792969 34.609375 3.730469 40.75 C 3.566406 45.507812 3.734375 50.175781 4.226562 54.75 C 4.796875 65.402344 8.859375 74.402344 16.414062 81.75 C 16.933594 81.144531 17.511719 80.644531 18.15625 80.25 C 17.238281 81.691406 17.566406 82.691406 19.152344 83.25 C 19.320312 83.667969 19.652344 83.835938 20.144531 83.75 C 20.382812 84.453125 20.878906 84.785156 21.636719 84.75 C 21.636719 84.917969 21.636719 85.082031 21.636719 85.25 C 21.574219 85.621094 21.65625 85.953125 21.886719 86.25 C 22.714844 85.828125 22.800781 86.078125 22.136719 87 C 22.773438 87.34375 23.355469 87.257812 23.875 86.75 C 24.03125 87.152344 24.277344 87.488281 24.625 87.75 C 30.394531 89.648438 36.363281 89.980469 42.53125 88.75 C 34.355469 91.730469 26.3125 91.230469 18.40625 87.25 C 16.289062 88.4375 14.21875 89.519531 12.1875 90.5 C 13.371094 88.871094 14.367188 87.121094 15.171875 85.25 C 12.652344 82.804688 10.414062 80.136719 8.457031 77.25 C 1.554688 64.625 -0.929688 51.125 0.996094 36.75 C 2.503906 25.214844 7.3125 15.382812 15.421875 7.25 C 15.679688 6.355469 15.511719 5.523438 14.921875 4.75 C 14.25 4.15625 13.667969 3.492188 13.183594 2.75 C 13.347656 2.582031 13.515625 2.417969 13.679688 2.25 C 15.390625 3.152344 17.132812 3.984375 18.902344 4.75 C 27.089844 0.59375 35.464844 0.175781 44.023438 3.5 C 46.292969 5.207031 48.617188 6.789062 50.988281 8.25 Z M 50.988281 8.25 "/>
</g>
<mask id="mask2">
  <g filter="url(#alpha)">
<rect x="0" y="0" width="97" height="92" style="fill:rgb(0%,0%,0%);fill-opacity:0.00392157;stroke:none;"/>
  </g>
</mask>
<clipPath id="clip3">
  <rect x="0" y="0" width="97" height="92"/>
</clipPath>
<g id="surface11" clip-path="url(#clip3)">
<path style=" stroke:none;fill-rule:evenodd;fill:rgb(13.333333%,24.705882%,30.588235%);fill-opacity:1;" d="M 96.253906 55.75 C 96.019531 57.40625 95.105469 58.574219 93.519531 59.25 C 93.160156 60.054688 93.242188 60.804688 93.765625 61.5 C 92.378906 64.304688 91.054688 67.136719 89.789062 70 C 88.671875 70.519531 87.59375 71.101562 86.554688 71.75 C 84.378906 71.484375 82.308594 70.984375 80.335938 70.25 C 81.738281 70.433594 83.148438 70.601562 84.5625 70.75 C 87.148438 70.886719 89.136719 69.886719 90.535156 67.75 C 91.425781 64.613281 92.335938 61.445312 93.269531 58.25 C 94.589844 57.75 95.585938 56.917969 96.253906 55.75 Z M 96.253906 55.75 "/>
</g>
</defs>
<g id="surface1">
<path style=" stroke:none;fill-rule:evenodd;fill:rgb(3.137255%,3.137255%,3.921569%);fill-opacity:1;" d="M 96.253906 55.75 C 95.585938 56.917969 94.589844 57.75 93.269531 58.25 C 92.335938 61.445312 91.425781 64.613281 90.535156 67.75 C 89.136719 69.886719 87.148438 70.886719 84.5625 70.75 C 83.148438 70.601562 81.738281 70.433594 80.335938 70.25 C 79.363281 73.253906 77.871094 76.003906 75.859375 78.5 C 75.386719 78.742188 74.890625 78.824219 74.367188 78.75 C 73.871094 78.707031 73.457031 78.875 73.125 79.25 C 71.117188 89.304688 65.230469 92.71875 55.464844 89.5 C 53.289062 88.042969 51.628906 86.128906 50.488281 83.75 C 48.214844 86.035156 45.5625 87.703125 42.53125 88.75 C 36.363281 89.980469 30.394531 89.648438 24.625 87.75 C 24.277344 87.488281 24.03125 87.152344 23.875 86.75 C 23.355469 87.257812 22.773438 87.34375 22.136719 87 C 22.800781 86.078125 22.714844 85.828125 21.886719 86.25 C 21.65625 85.953125 21.574219 85.621094 21.636719 85.25 C 22.363281 85.214844 23.027344 85.382812 23.628906 85.75 C 28.609375 87.875 33.75 88.207031 39.046875 86.75 C 42.628906 85.785156 45.777344 84.035156 48.5 81.5 C 47.160156 81.285156 45.835938 81.367188 44.519531 81.75 C 37.441406 83.273438 30.890625 82.105469 24.871094 78.25 C 23.878906 79.246094 23.132812 80.414062 22.632812 81.75 C 22.292969 81.570312 21.960938 81.402344 21.636719 81.25 C 20.675781 80.417969 19.511719 80.085938 18.15625 80.25 C 18.460938 79.804688 18.625 79.304688 18.652344 78.75 C 19.019531 78.816406 19.351562 78.730469 19.648438 78.5 C 20.597656 77.175781 21.429688 76.09375 22.136719 75.25 C 21.277344 73.4375 19.953125 72.6875 18.15625 73 C 18.582031 72.65625 18.914062 72.238281 19.152344 71.75 C 17.734375 69.234375 16.324219 66.734375 14.921875 64.25 C 14.789062 62.886719 14.539062 61.554688 14.175781 60.25 C 13.628906 60 13.128906 59.835938 12.683594 59.75 C 13.015625 59.417969 13.347656 59.082031 13.679688 58.75 C 13.28125 56.136719 12.785156 53.550781 12.1875 51 C 12.828125 49.953125 12.496094 49.289062 11.191406 49 C 12.234375 48.523438 12.398438 47.855469 11.691406 47 C 12.117188 46.65625 12.449219 46.238281 12.683594 45.75 C 12.410156 44.636719 12.410156 43.46875 12.683594 42.25 C 10.03125 42.082031 10.03125 41.917969 12.683594 41.75 C 12.320312 40.363281 12.234375 39.03125 12.4375 37.75 C 10.105469 36.503906 10.355469 36.003906 13.183594 36.25 C 13.082031 35.179688 12.582031 34.347656 11.691406 33.75 C 12.28125 33.285156 12.945312 33.117188 13.679688 33.25 C 13.738281 32.257812 13.40625 31.425781 12.683594 30.75 C 13.09375 30.308594 13.59375 30.140625 14.175781 30.25 C 14.234375 29.257812 13.902344 28.425781 13.183594 27.75 C 13.816406 27.175781 14.480469 27.175781 15.171875 27.75 C 15.335938 27.5 15.503906 27.25 15.667969 27 C 15.304688 26.117188 15.136719 25.199219 15.171875 24.25 C 15.386719 23.644531 15.71875 23.144531 16.167969 22.75 C 16.648438 23.375 16.980469 23.210938 17.160156 22.25 C 16.25 20.671875 16.582031 20.171875 18.15625 20.75 C 18.636719 18.378906 19.382812 18.214844 20.394531 20.25 C 20.5625 20.082031 20.726562 19.917969 20.890625 19.75 C 21.042969 18.722656 21.042969 17.722656 20.890625 16.75 C 21.234375 17.179688 21.648438 17.511719 22.136719 17.75 C 23.523438 16.34375 25.015625 15.175781 26.613281 14.25 C 26.503906 13.664062 26.667969 13.164062 27.109375 12.75 C 29.632812 13.789062 31.539062 13.121094 32.832031 10.75 C 35.222656 11.023438 37.628906 11.191406 40.042969 11.25 C 41.269531 11.339844 42.101562 10.839844 42.53125 9.75 C 44.332031 11.445312 45.988281 13.609375 47.503906 16.25 C 48.03125 15.347656 48.445312 14.179688 48.75 12.75 C 50.625 11.886719 51.371094 10.386719 50.988281 8.25 C 54.144531 1.914062 59.121094 -0.167969 65.910156 2 C 70.480469 4.105469 72.886719 7.6875 73.125 12.75 C 76.304688 14.980469 78.378906 17.980469 79.339844 21.75 C 81.976562 21.246094 84.628906 21.160156 87.300781 21.5 C 89.972656 22.449219 91.214844 24.363281 91.03125 27.25 C 92.417969 28.988281 93.082031 30.988281 93.019531 33.25 C 96.464844 35.695312 96.628906 38.359375 93.519531 41.25 C 93.1875 44.417969 93.1875 47.582031 93.519531 50.75 C 95.347656 51.929688 96.257812 53.59375 96.253906 55.75 Z M 96.253906 55.75 "/>
<path style=" stroke:none;fill-rule:evenodd;fill:rgb(99.215686%,90.980392%,27.843137%);fill-opacity:1;" d="M 75.363281 27.75 C 75.3125 29.117188 75.476562 30.453125 75.859375 31.75 C 76.484375 33.214844 77.480469 34.378906 78.84375 35.25 C 79.175781 37.660156 79.507812 39.992188 79.839844 42.25 C 79.757812 44.921875 79.839844 47.589844 80.085938 50.25 C 80.535156 50.851562 81.117188 51.265625 81.828125 51.5 C 79.867188 51.6875 79.039062 52.769531 79.339844 54.75 C 78.941406 56.5 78.609375 58.335938 78.347656 60.25 C 78.179688 60.582031 78.015625 60.917969 77.847656 61.25 C 77.390625 60.9375 76.894531 60.769531 76.355469 60.75 C 76.433594 60.0625 76.351562 59.398438 76.109375 58.75 C 74.238281 62.148438 74.484375 65.3125 76.855469 68.25 C 76.851562 73.335938 74.367188 76.417969 69.390625 77.5 C 67.242188 77.75 65.085938 77.832031 62.925781 77.75 C 57.859375 77.914062 52.886719 77.746094 48.003906 77.25 C 48.003906 76.917969 48.003906 76.582031 48.003906 76.25 C 54.492188 76.324219 60.957031 75.992188 67.402344 75.25 C 68.519531 75 69.515625 74.5 70.386719 73.75 C 69.835938 72.019531 68.921875 71.851562 67.652344 73.25 C 66.476562 73.339844 66.230469 73.003906 66.90625 72.25 C 69.679688 70.574219 70.839844 68.074219 70.386719 64.75 C 71.222656 60.039062 69.398438 56.789062 64.914062 55 C 63.324219 54.597656 61.832031 54.679688 60.4375 55.25 C 58.65625 55.074219 56.996094 55.410156 55.464844 56.25 C 54.660156 55.980469 53.832031 55.816406 52.976562 55.75 C 52.691406 57.472656 51.945312 58.972656 50.738281 60.25 C 50.40625 63.417969 50.40625 66.582031 50.738281 69.75 C 51.292969 70.882812 51.707031 72.050781 51.980469 73.25 C 52.566406 73.140625 53.0625 73.308594 53.472656 73.75 C 51.507812 74.484375 49.683594 74.316406 48.003906 73.25 C 46.570312 71.210938 44.582031 70.210938 42.035156 70.25 C 42.242188 69.109375 41.910156 68.277344 41.039062 67.75 C 39.980469 67.183594 38.820312 67.101562 37.554688 67.5 C 36.945312 68.246094 36.945312 68.996094 37.554688 69.75 C 37.316406 72.292969 36.738281 72.292969 35.816406 69.75 C 35.253906 68.929688 34.507812 68.429688 33.578125 68.25 C 33.578125 67.25 33.578125 66.25 33.578125 65.25 C 34.234375 65.335938 34.816406 65.167969 35.316406 64.75 C 35.996094 61.03125 34.421875 59.449219 30.59375 60 C 30.316406 60.363281 30.148438 60.777344 30.09375 61.25 C 30.617188 62.972656 31.609375 64.308594 33.078125 65.25 C 32.394531 65.328125 31.734375 65.246094 31.089844 65 C 29.789062 63.453125 28.628906 61.871094 27.609375 60.25 C 26.007812 56.695312 24.679688 53.03125 23.628906 49.25 C 22.964844 49.25 22.300781 49.25 21.636719 49.25 C 21.617188 50.941406 21.785156 52.605469 22.136719 54.25 C 22.320312 55.496094 21.988281 55.828125 21.140625 55.25 C 20.871094 53.542969 20.207031 52.042969 19.152344 50.75 C 16.269531 39.929688 18.757812 30.679688 26.613281 23 C 28.765625 21.335938 31.085938 20.085938 33.578125 19.25 C 35.566406 18.917969 37.554688 18.582031 39.546875 18.25 C 43.402344 20.496094 46.882812 19.996094 49.992188 16.75 C 56.863281 15.179688 63.660156 15.429688 70.386719 17.5 C 74.105469 19.886719 75.761719 23.304688 75.363281 27.75 Z M 75.363281 27.75 "/>
<path style=" stroke:none;fill-rule:evenodd;fill:rgb(24.705882%,25.098039%,23.137255%);fill-opacity:1;" d="M 16.167969 22.75 C 15.71875 23.144531 15.386719 23.644531 15.171875 24.25 C 14.726562 23.699219 14.3125 23.699219 13.929688 24.25 C 13.886719 25.042969 13.804688 25.707031 13.679688 26.25 C 12.574219 25.949219 11.496094 25.78125 10.445312 25.75 C 9.835938 26.136719 9.667969 26.636719 9.949219 27.25 C 10.453125 26.832031 11.03125 26.664062 11.691406 26.75 C 11.800781 28.765625 11.300781 30.515625 10.199219 32 C 10.527344 32.167969 10.859375 32.332031 11.191406 32.5 C 10.59375 34.257812 9.761719 36.089844 8.707031 38 C 9.035156 38.167969 9.367188 38.332031 9.699219 38.5 C 9.660156 39.554688 9.496094 40.554688 9.203125 41.5 C 10.46875 42.539062 10.46875 43.621094 9.203125 44.75 C 9.664062 45.550781 9.664062 46.300781 9.203125 47 C 10.527344 47.332031 10.527344 47.667969 9.203125 48 C 9.910156 49.429688 10.40625 50.929688 10.695312 52.5 C 10.308594 53.386719 10.390625 54.300781 10.945312 55.25 C 11.269531 54.652344 11.519531 54.652344 11.691406 55.25 C 11.253906 56.375 11.417969 57.457031 12.1875 58.5 C 11.652344 59.363281 11.570312 60.28125 11.9375 61.25 C 13.148438 60.652344 13.894531 61.066406 14.175781 62.5 C 14.019531 63.664062 13.4375 64.582031 12.4375 65.25 C 12.105469 66.082031 12.105469 66.917969 12.4375 67.75 C 13.785156 69.46875 14.863281 71.300781 15.667969 73.25 C 16.953125 73.285156 17.949219 73.867188 18.652344 75 C 19.804688 75.25 20.964844 75.332031 22.136719 75.25 C 21.429688 76.09375 20.597656 77.175781 19.648438 78.5 C 19.351562 78.730469 19.019531 78.816406 18.652344 78.75 C 15.539062 76.867188 12.800781 74.535156 10.445312 71.75 C 7.835938 65.925781 5.761719 60.261719 4.226562 54.75 C 3.734375 50.175781 3.566406 45.507812 3.730469 40.75 C 4.992188 38.683594 5.574219 36.347656 5.472656 33.75 C 5.691406 32.960938 6.105469 32.296875 6.714844 31.75 C 6.363281 29.292969 6.859375 26.960938 8.207031 24.75 C 8.910156 24.1875 9.65625 23.6875 10.445312 23.25 C 10.613281 23.582031 10.777344 23.917969 10.945312 24.25 C 12.167969 22.851562 13.660156 21.851562 15.421875 21.25 C 15.835938 21.667969 16.25 22.082031 16.664062 22.5 C 16.550781 22.699219 16.382812 22.78125 16.167969 22.75 Z M 16.167969 22.75 "/>
<path style=" stroke:none;fill-rule:evenodd;fill:rgb(19.607843%,20.392157%,19.607843%);fill-opacity:1;" d="M 15.171875 24.25 C 15.136719 25.199219 15.304688 26.117188 15.667969 27 C 15.503906 27.25 15.335938 27.5 15.171875 27.75 C 14.480469 27.175781 13.816406 27.175781 13.183594 27.75 C 13.902344 28.425781 14.234375 29.257812 14.175781 30.25 C 13.59375 30.140625 13.09375 30.308594 12.683594 30.75 C 13.40625 31.425781 13.738281 32.257812 13.679688 33.25 C 12.945312 33.117188 12.28125 33.285156 11.691406 33.75 C 12.582031 34.347656 13.082031 35.179688 13.183594 36.25 C 10.355469 36.003906 10.105469 36.503906 12.4375 37.75 C 12.234375 39.03125 12.320312 40.363281 12.683594 41.75 C 10.03125 41.917969 10.03125 42.082031 12.683594 42.25 C 12.410156 43.46875 12.410156 44.636719 12.683594 45.75 C 12.449219 46.238281 12.117188 46.65625 11.691406 47 C 12.398438 47.855469 12.234375 48.523438 11.191406 49 C 12.496094 49.289062 12.828125 49.953125 12.1875 51 C 12.785156 53.550781 13.28125 56.136719 13.679688 58.75 C 13.347656 59.082031 13.015625 59.417969 12.683594 59.75 C 13.128906 59.835938 13.628906 60 14.175781 60.25 C 14.539062 61.554688 14.789062 62.886719 14.921875 64.25 C 16.324219 66.734375 17.734375 69.234375 19.152344 71.75 C 18.914062 72.238281 18.582031 72.65625 18.15625 73 C 19.953125 72.6875 21.277344 73.4375 22.136719 75.25 C 20.964844 75.332031 19.804688 75.25 18.652344 75 C 17.949219 73.867188 16.953125 73.285156 15.667969 73.25 C 14.863281 71.300781 13.785156 69.46875 12.4375 67.75 C 12.105469 66.917969 12.105469 66.082031 12.4375 65.25 C 13.4375 64.582031 14.019531 63.664062 14.175781 62.5 C 13.894531 61.066406 13.148438 60.652344 11.9375 61.25 C 11.570312 60.28125 11.652344 59.363281 12.1875 58.5 C 11.417969 57.457031 11.253906 56.375 11.691406 55.25 C 11.519531 54.652344 11.269531 54.652344 10.945312 55.25 C 10.390625 54.300781 10.308594 53.386719 10.695312 52.5 C 10.40625 50.929688 9.910156 49.429688 9.203125 48 C 10.527344 47.667969 10.527344 47.332031 9.203125 47 C 9.664062 46.300781 9.664062 45.550781 9.203125 44.75 C 10.46875 43.621094 10.46875 42.539062 9.203125 41.5 C 9.496094 40.554688 9.660156 39.554688 9.699219 38.5 C 9.367188 38.332031 9.035156 38.167969 8.707031 38 C 9.761719 36.089844 10.59375 34.257812 11.191406 32.5 C 10.859375 32.332031 10.527344 32.167969 10.199219 32 C 11.300781 30.515625 11.800781 28.765625 11.691406 26.75 C 11.03125 26.664062 10.453125 26.832031 9.949219 27.25 C 9.667969 26.636719 9.835938 26.136719 10.445312 25.75 C 11.496094 25.78125 12.574219 25.949219 13.679688 26.25 C 13.804688 25.707031 13.886719 25.042969 13.929688 24.25 C 14.3125 23.699219 14.726562 23.699219 15.171875 24.25 Z M 15.171875 24.25 "/>
<path style=" stroke:none;fill-rule:evenodd;fill:rgb(100%,93.333333%,69.019608%);fill-opacity:1;" d="M 27.609375 60.25 C 27.933594 61.988281 28.597656 63.574219 29.597656 65 C 29.03125 65.375 28.535156 65.292969 28.105469 64.75 C 25.925781 61.324219 23.933594 57.824219 22.136719 54.25 C 21.785156 52.605469 21.617188 50.941406 21.636719 49.25 C 22.300781 49.25 22.964844 49.25 23.628906 49.25 C 24.679688 53.03125 26.007812 56.695312 27.609375 60.25 Z M 27.609375 60.25 "/>
<path style=" stroke:none;fill-rule:evenodd;fill:rgb(9.411765%,7.45098%,3.921569%);fill-opacity:1;" d="M 76.855469 22.25 C 77.335938 23.304688 77.5 24.46875 77.351562 25.75 C 77.847656 25.75 78.347656 25.75 78.84375 25.75 C 78.773438 26.5625 79.105469 27.144531 79.839844 27.5 C 82.535156 27.917969 85.1875 27.753906 87.796875 27 C 88.214844 26.496094 88.378906 25.910156 88.292969 25.25 C 88.746094 26.328125 89.078125 27.496094 89.289062 28.75 C 90.777344 27.96875 91.6875 28.46875 92.027344 30.25 C 92.550781 32.5625 91.640625 33.980469 89.289062 34.5 C 89.90625 34.617188 90.402344 34.867188 90.78125 35.25 C 88.308594 34.789062 85.820312 34.707031 83.320312 35 C 82.160156 36.09375 81.996094 37.34375 82.824219 38.75 C 84.464844 38.945312 85.957031 39.445312 87.300781 40.25 C 85.660156 40.128906 84.167969 40.546875 82.824219 41.5 C 81.722656 42.621094 81.554688 43.871094 82.324219 45.25 C 81.890625 45.183594 81.558594 45.351562 81.332031 45.75 C 83.894531 46.082031 86.378906 46.417969 88.792969 46.75 C 86.472656 46.75 84.148438 46.75 81.828125 46.75 C 81.476562 48.882812 82.304688 50.214844 84.316406 50.75 C 84.296875 51.292969 84.128906 51.792969 83.816406 52.25 C 86.710938 52.582031 89.53125 52.917969 92.273438 53.25 C 89.121094 53.167969 85.96875 53.25 82.824219 53.5 C 81.816406 54.199219 81.648438 55.03125 82.324219 56 C 84.246094 56.675781 86.238281 56.925781 88.292969 56.75 C 89.019531 57.414062 88.851562 57.828125 87.796875 58 C 88.824219 58.34375 89.820312 58.261719 90.78125 57.75 C 91.308594 58.210938 91.308594 58.710938 90.78125 59.25 C 90.617188 59.25 90.449219 59.25 90.285156 59.25 C 89.066406 58.761719 87.738281 58.597656 86.304688 58.75 C 84.640625 58.667969 82.980469 58.75 81.332031 59 C 80.78125 60.199219 80.699219 61.449219 81.082031 62.75 C 83.96875 63.386719 86.871094 63.386719 89.789062 62.75 C 89.746094 63.246094 89.910156 63.664062 90.285156 64 C 89.621094 64.167969 88.957031 64.332031 88.292969 64.5 C 88.941406 65.308594 88.941406 66.058594 88.292969 66.75 C 88.292969 66.25 88.292969 65.75 88.292969 65.25 C 85.519531 64.46875 82.703125 64.21875 79.839844 64.5 C 78.6875 65.230469 78.523438 66.144531 79.339844 67.25 C 78.71875 67.210938 78.304688 66.878906 78.097656 66.25 C 77.769531 66.992188 77.351562 67.660156 76.855469 68.25 C 74.484375 65.3125 74.238281 62.148438 76.109375 58.75 C 76.351562 59.398438 76.433594 60.0625 76.355469 60.75 C 76.945312 61.988281 77.941406 62.488281 79.339844 62.25 C 79.261719 60.734375 79.59375 59.320312 80.335938 58 C 80.113281 57.359375 79.78125 56.773438 79.339844 56.25 C 79.71875 56.042969 80.21875 55.960938 80.832031 56 C 80.546875 55.292969 80.046875 54.875 79.339844 54.75 C 79.039062 52.769531 79.867188 51.6875 81.828125 51.5 C 81.117188 51.265625 80.535156 50.851562 80.085938 50.25 C 79.839844 47.589844 79.757812 44.921875 79.839844 42.25 C 80.851562 38.414062 80.601562 34.582031 79.09375 30.75 C 78.8125 30.488281 78.480469 30.324219 78.097656 30.25 C 77.28125 30.65625 76.535156 31.15625 75.859375 31.75 C 75.476562 30.453125 75.3125 29.117188 75.363281 27.75 C 76.542969 26.15625 77.039062 24.324219 76.855469 22.25 Z M 76.855469 22.25 "/>
<path style=" stroke:none;fill-rule:evenodd;fill:rgb(94.901961%,87.45098%,40.392157%);fill-opacity:1;" d="M 92.273438 53.25 C 94.269531 53.664062 94.601562 54.582031 93.269531 56 C 91.683594 56.65625 90.023438 56.90625 88.292969 56.75 C 86.238281 56.925781 84.246094 56.675781 82.324219 56 C 81.648438 55.03125 81.816406 54.199219 82.824219 53.5 C 85.96875 53.25 89.121094 53.167969 92.273438 53.25 Z M 92.273438 53.25 "/>
<path style=" stroke:none;fill-rule:evenodd;fill:rgb(71.764706%,65.098039%,9.019608%);fill-opacity:1;" d="M 17.660156 48.25 C 18.40625 50.011719 18.90625 51.84375 19.152344 53.75 C 20.484375 61.679688 24.296875 68.097656 30.59375 73 C 32.578125 74.121094 34.648438 75.039062 36.808594 75.75 C 37.257812 75.628906 37.671875 75.460938 38.054688 75.25 C 37.996094 76.242188 38.328125 77.074219 39.046875 77.75 C 28.9375 77.347656 22.054688 72.347656 18.40625 62.75 C 17.132812 59.023438 16.386719 55.1875 16.167969 51.25 C 16.226562 49.976562 16.722656 48.976562 17.660156 48.25 Z M 17.660156 48.25 "/>
<path style=" stroke:none;fill-rule:evenodd;fill:rgb(1.568627%,1.176471%,4.705882%);fill-opacity:1;" d="M 60.4375 55.25 C 65.390625 56.730469 68.707031 59.898438 70.386719 64.75 C 70.839844 68.074219 69.679688 70.574219 66.90625 72.25 C 63.011719 73.40625 59.03125 73.824219 54.964844 73.5 C 51.625 71.78125 50.382812 69.03125 51.234375 65.25 C 51.554688 61.683594 52.964844 58.683594 55.464844 56.25 C 56.996094 55.410156 58.65625 55.074219 60.4375 55.25 Z M 60.4375 55.25 "/>
<path style=" stroke:none;fill-rule:evenodd;fill:rgb(95.294118%,92.54902%,67.843137%);fill-opacity:1;" d="M 60.4375 55.25 C 61.832031 54.679688 63.324219 54.597656 64.914062 55 C 69.398438 56.789062 71.222656 60.039062 70.386719 64.75 C 68.707031 59.898438 65.390625 56.730469 60.4375 55.25 Z M 60.4375 55.25 "/>
<path style=" stroke:none;fill-rule:evenodd;fill:rgb(73.333333%,63.529412%,20%);fill-opacity:1;" d="M 79.339844 54.75 C 80.046875 54.875 80.546875 55.292969 80.832031 56 C 80.21875 55.960938 79.71875 56.042969 79.339844 56.25 C 79.78125 56.773438 80.113281 57.359375 80.335938 58 C 79.59375 59.320312 79.261719 60.734375 79.339844 62.25 C 77.941406 62.488281 76.945312 61.988281 76.355469 60.75 C 76.894531 60.769531 77.390625 60.9375 77.847656 61.25 C 78.015625 60.917969 78.179688 60.582031 78.347656 60.25 C 78.609375 58.335938 78.941406 56.5 79.339844 54.75 Z M 79.339844 54.75 "/>
<use xlink:href="#surface5" mask="url(#mask0)"/>
<path style=" stroke:none;fill-rule:evenodd;fill:rgb(97.254902%,88.235294%,32.941176%);fill-opacity:1;" d="M 88.792969 46.75 C 91.121094 47.355469 91.785156 48.773438 90.78125 51 C 88.582031 51.382812 86.429688 51.300781 84.316406 50.75 C 82.304688 50.214844 81.476562 48.882812 81.828125 46.75 C 84.148438 46.75 86.472656 46.75 88.792969 46.75 Z M 88.792969 46.75 "/>
<path style=" stroke:none;fill-rule:evenodd;fill:rgb(94.901961%,87.45098%,30.196078%);fill-opacity:1;" d="M 87.300781 40.25 C 90.792969 39.617188 91.953125 40.953125 90.78125 44.25 C 88.042969 45.140625 85.226562 45.476562 82.324219 45.25 C 81.554688 43.871094 81.722656 42.621094 82.824219 41.5 C 84.167969 40.546875 85.660156 40.128906 87.300781 40.25 Z M 87.300781 40.25 "/>
<path style=" stroke:none;fill-rule:evenodd;fill:rgb(4.705882%,3.921569%,3.921569%);fill-opacity:1;" d="M 72.375 40.25 C 74.324219 40.121094 75.484375 41.035156 75.859375 43 C 74.46875 44.304688 72.8125 45.136719 70.882812 45.5 C 72.453125 45.96875 73.863281 46.71875 75.113281 47.75 C 75.648438 49.546875 74.984375 50.546875 73.125 50.75 C 70.445312 50.132812 67.875 49.214844 65.414062 48 C 64.085938 46.332031 64.085938 44.667969 65.414062 43 C 67.730469 41.921875 70.050781 41.003906 72.375 40.25 Z M 72.375 40.25 "/>
<path style=" stroke:none;fill-rule:evenodd;fill:rgb(88.235294%,78.039216%,10.196078%);fill-opacity:1;" d="M 68.894531 30.25 C 70.675781 33.933594 69.679688 36.683594 65.910156 38.5 C 62.71875 39.746094 59.734375 39.414062 56.957031 37.5 C 56.296875 37.09375 55.96875 36.507812 55.960938 35.75 C 61.691406 37.203125 66.003906 35.367188 68.894531 30.25 Z M 68.894531 30.25 "/>
<path style=" stroke:none;fill-rule:evenodd;fill:rgb(91.372549%,83.529412%,35.294118%);fill-opacity:1;" d="M 90.78125 35.25 C 93.558594 35.261719 94.21875 36.34375 92.773438 38.5 C 89.460938 38.75 86.144531 38.832031 82.824219 38.75 C 81.996094 37.34375 82.160156 36.09375 83.320312 35 C 85.820312 34.707031 88.308594 34.789062 90.78125 35.25 Z M 90.78125 35.25 "/>
<path style=" stroke:none;fill-rule:evenodd;fill:rgb(88.235294%,72.156863%,15.294118%);fill-opacity:1;" d="M 79.839844 42.25 C 79.507812 39.992188 79.175781 37.660156 78.84375 35.25 C 77.480469 34.378906 76.484375 33.214844 75.859375 31.75 C 76.535156 31.15625 77.28125 30.65625 78.097656 30.25 C 78.480469 30.324219 78.8125 30.488281 79.09375 30.75 C 80.601562 34.582031 80.851562 38.414062 79.839844 42.25 Z M 79.839844 42.25 "/>
<path style=" stroke:none;fill-rule:evenodd;fill:rgb(98.431373%,96.078431%,72.54902%);fill-opacity:1;" d="M 23.628906 32.25 C 24.292969 32.25 24.953125 32.25 25.617188 32.25 C 25.617188 32.917969 25.617188 33.582031 25.617188 34.25 C 24.953125 34.25 24.292969 34.25 23.628906 34.25 C 23.628906 33.582031 23.628906 32.917969 23.628906 32.25 Z M 23.628906 32.25 "/>
<path style=" stroke:none;fill-rule:evenodd;fill:rgb(97.254902%,87.058824%,33.333333%);fill-opacity:1;" d="M 89.289062 28.75 C 90.148438 29.910156 90.480469 31.242188 90.285156 32.75 C 87.28125 32.914062 84.296875 32.746094 81.332031 32.25 C 80.894531 31.125 80.730469 29.960938 80.832031 28.75 C 83.652344 28.75 86.472656 28.75 89.289062 28.75 Z M 89.289062 28.75 "/>
<path style=" stroke:none;fill-rule:evenodd;fill:rgb(92.941176%,81.568627%,32.941176%);fill-opacity:1;" d="M 88.292969 25.25 C 88.378906 25.910156 88.214844 26.496094 87.796875 27 C 85.1875 27.753906 82.535156 27.917969 79.839844 27.5 C 79.105469 27.144531 78.773438 26.5625 78.84375 25.75 C 80.132812 24.273438 81.792969 23.605469 83.816406 23.75 C 85.5625 23.570312 87.054688 24.070312 88.292969 25.25 Z M 88.292969 25.25 "/>
<path style=" stroke:none;fill-rule:evenodd;fill:rgb(1.568627%,1.568627%,3.921569%);fill-opacity:1;" d="M 68.894531 30.25 C 66.003906 35.367188 61.691406 37.203125 55.960938 35.75 C 52.058594 31.734375 50.484375 26.902344 51.234375 21.25 C 52.011719 19.636719 53.257812 18.550781 54.964844 18 C 59.476562 17.375 63.789062 18.039062 67.898438 20 C 68.671875 20.605469 69.25 21.355469 69.640625 22.25 C 70.105469 25.007812 69.855469 27.675781 68.894531 30.25 Z M 68.894531 30.25 "/>
<path style=" stroke:none;fill-rule:evenodd;fill:rgb(79.607843%,74.117647%,0.392157%);fill-opacity:1;" d="M 33.578125 19.25 C 31.085938 20.085938 28.765625 21.335938 26.613281 23 C 18.757812 30.679688 16.269531 39.929688 19.152344 50.75 C 19.152344 51.75 19.152344 52.75 19.152344 53.75 C 18.90625 51.84375 18.40625 50.011719 17.660156 48.25 C 17.660156 46.917969 17.660156 45.582031 17.660156 44.25 C 17.25 39.109375 17.832031 34.109375 19.398438 29.25 C 20.695312 28.070312 21.941406 26.820312 23.128906 25.5 C 22.964844 25.332031 22.800781 25.167969 22.632812 25 C 23.980469 23.683594 24.808594 22.269531 25.121094 20.75 C 27 20.363281 28.65625 19.527344 30.09375 18.25 C 30.902344 18.851562 31.5625 18.769531 32.085938 18 C 34.414062 17.613281 34.578125 17.945312 32.582031 19 C 32.878906 19.230469 33.210938 19.316406 33.578125 19.25 Z M 33.578125 19.25 "/>
<path style=" stroke:none;fill-rule:evenodd;fill:rgb(73.72549%,68.627451%,4.705882%);fill-opacity:1;" d="M 39.546875 18.25 C 37.554688 18.582031 35.566406 18.917969 33.578125 19.25 C 33.210938 19.316406 32.878906 19.230469 32.582031 19 C 34.578125 17.945312 34.414062 17.613281 32.085938 18 C 31.5625 18.769531 30.902344 18.851562 30.09375 18.25 C 28.65625 19.527344 27 20.363281 25.121094 20.75 C 24.808594 22.269531 23.980469 23.683594 22.632812 25 C 22.800781 25.167969 22.964844 25.332031 23.128906 25.5 C 21.941406 26.820312 20.695312 28.070312 19.398438 29.25 C 17.832031 34.109375 17.25 39.109375 17.660156 44.25 C 15.207031 34.382812 17.859375 25.964844 25.617188 19 C 29.332031 16.300781 33.476562 14.71875 38.054688 14.25 C 38 15.808594 38.5 17.140625 39.546875 18.25 Z M 39.546875 18.25 "/>
<path style=" stroke:none;fill-rule:evenodd;fill:rgb(21.568627%,21.176471%,20.784314%);fill-opacity:1;" d="M 42.53125 7.25 C 42.53125 8.082031 42.53125 8.917969 42.53125 9.75 C 42.101562 10.839844 41.269531 11.339844 40.042969 11.25 C 37.628906 11.191406 35.222656 11.023438 32.832031 10.75 C 31.539062 13.121094 29.632812 13.789062 27.109375 12.75 C 26.667969 13.164062 26.503906 13.664062 26.613281 14.25 C 25.015625 15.175781 23.523438 16.34375 22.136719 17.75 C 21.648438 17.511719 21.234375 17.179688 20.890625 16.75 C 21.042969 17.722656 21.042969 18.722656 20.890625 19.75 C 20.726562 19.917969 20.5625 20.082031 20.394531 20.25 C 19.382812 18.214844 18.636719 18.378906 18.15625 20.75 C 16.582031 20.171875 16.25 20.671875 17.160156 22.25 C 16.980469 23.210938 16.648438 23.375 16.167969 22.75 C 16.382812 22.78125 16.550781 22.699219 16.664062 22.5 C 16.25 22.082031 15.835938 21.667969 15.421875 21.25 C 13.660156 21.851562 12.167969 22.851562 10.945312 24.25 C 10.777344 23.917969 10.613281 23.582031 10.445312 23.25 C 9.65625 23.6875 8.910156 24.1875 8.207031 24.75 C 6.859375 26.960938 6.363281 29.292969 6.714844 31.75 C 6.105469 32.296875 5.691406 32.960938 5.472656 33.75 C 5.574219 36.347656 4.992188 38.683594 3.730469 40.75 C 3.792969 34.609375 5.117188 28.777344 7.710938 23.25 C 10.402344 20.289062 13.054688 17.207031 15.667969 14 C 17.773438 13.53125 19.429688 12.449219 20.644531 10.75 C 21.914062 12.125 22.410156 11.792969 22.136719 9.75 C 25.539062 8.601562 29.023438 7.6875 32.582031 7 C 35.921875 6.621094 39.238281 6.707031 42.53125 7.25 Z M 42.53125 7.25 "/>
<path style=" stroke:none;fill-rule:evenodd;fill:rgb(81.960784%,72.54902%,9.803922%);fill-opacity:1;" d="M 76.855469 22.25 C 77.039062 24.324219 76.542969 26.15625 75.363281 27.75 C 75.761719 23.304688 74.105469 19.886719 70.386719 17.5 C 63.660156 15.429688 56.863281 15.179688 49.992188 16.75 C 49.921875 15.867188 50.085938 15.035156 50.488281 14.25 C 57.136719 13.558594 63.769531 13.644531 70.386719 14.5 C 74.109375 15.820312 76.265625 18.402344 76.855469 22.25 Z M 76.855469 22.25 "/>
<path style=" stroke:none;fill-rule:evenodd;fill:rgb(11.764706%,11.764706%,14.509804%);fill-opacity:1;" d="M 42.53125 7.25 C 39.238281 6.707031 35.921875 6.621094 32.582031 7 C 29.023438 7.6875 25.539062 8.601562 22.136719 9.75 C 22.410156 11.792969 21.914062 12.125 20.644531 10.75 C 19.429688 12.449219 17.773438 13.53125 15.667969 14 C 13.054688 17.207031 10.402344 20.289062 7.710938 23.25 C 9.960938 17.738281 13.441406 13.152344 18.15625 9.5 C 19.183594 9.230469 20.097656 9.480469 20.890625 10.25 C 20.726562 9.582031 20.5625 8.917969 20.394531 8.25 C 26.644531 4.109375 33.359375 3.195312 40.542969 5.5 C 41.558594 5.75 42.222656 6.332031 42.53125 7.25 Z M 42.53125 7.25 "/>
<path style=" stroke:none;fill-rule:evenodd;fill:rgb(81.568627%,69.803922%,7.843137%);fill-opacity:1;" d="M 59.445312 4.25 C 62.050781 3.691406 64.539062 4.191406 66.90625 5.75 C 67.644531 7.1875 67.148438 7.851562 65.414062 7.75 C 64.554688 7.59375 63.726562 7.507812 62.925781 7.5 C 64.328125 8.570312 64.992188 9.988281 64.914062 11.75 C 60.769531 11.75 56.625 11.75 52.480469 11.75 C 52.359375 10.550781 52.691406 9.550781 53.472656 8.75 C 54.773438 9.21875 56.101562 9.300781 57.453125 9 C 59.574219 8.433594 61.566406 7.597656 63.421875 6.5 C 61.949219 6.078125 61.78125 5.578125 62.925781 5 C 61.84375 4.398438 60.683594 4.148438 59.445312 4.25 Z M 59.445312 4.25 "/>
<path style=" stroke:none;fill-rule:evenodd;fill:rgb(75.294118%,65.490196%,21.176471%);fill-opacity:1;" d="M 66.90625 5.75 C 69 7.296875 69.996094 9.296875 69.890625 11.75 C 68.078125 10.761719 66.585938 9.429688 65.414062 7.75 C 67.148438 7.851562 67.644531 7.1875 66.90625 5.75 Z M 66.90625 5.75 "/>
<path style=" stroke:none;fill-rule:evenodd;fill:rgb(96.078431%,88.235294%,26.666667%);fill-opacity:1;" d="M 59.445312 4.25 C 60.683594 4.148438 61.84375 4.398438 62.925781 5 C 61.78125 5.578125 61.949219 6.078125 63.421875 6.5 C 61.566406 7.597656 59.574219 8.433594 57.453125 9 C 56.101562 9.300781 54.773438 9.21875 53.472656 8.75 C 54.597656 6.125 56.585938 4.625 59.445312 4.25 Z M 59.445312 4.25 "/>
<path style=" stroke:none;fill-rule:evenodd;fill:rgb(98.431373%,89.803922%,26.27451%);fill-opacity:1;" d="M 86.304688 58.75 C 87.738281 58.597656 89.066406 58.761719 90.285156 59.25 C 89.644531 61.636719 88.070312 62.804688 85.558594 62.75 C 84.648438 62.582031 83.734375 62.417969 82.824219 62.25 C 83.03125 61.335938 83.03125 60.335938 82.824219 59.25 C 84.097656 59.402344 85.257812 59.234375 86.304688 58.75 Z M 86.304688 58.75 "/>
<path style=" stroke:none;fill-rule:evenodd;fill:rgb(83.529412%,72.156863%,16.078431%);fill-opacity:1;" d="M 33.578125 65.25 C 33.410156 65.25 33.246094 65.25 33.078125 65.25 C 31.609375 64.308594 30.617188 62.972656 30.09375 61.25 C 30.148438 60.777344 30.316406 60.363281 30.59375 60 C 34.421875 59.449219 35.996094 61.03125 35.316406 64.75 C 34.816406 65.167969 34.234375 65.335938 33.578125 65.25 Z M 33.578125 65.25 "/>
<path style=" stroke:none;fill-rule:evenodd;fill:rgb(89.019608%,82.745098%,32.941176%);fill-opacity:1;" d="M 86.304688 58.75 C 85.257812 59.234375 84.097656 59.402344 82.824219 59.25 C 83.03125 60.335938 83.03125 61.335938 82.824219 62.25 C 83.734375 62.417969 84.648438 62.582031 85.558594 62.75 C 88.070312 62.804688 89.644531 61.636719 90.285156 59.25 C 90.449219 59.25 90.617188 59.25 90.78125 59.25 C 90.835938 60.539062 90.503906 61.707031 89.789062 62.75 C 86.871094 63.386719 83.96875 63.386719 81.082031 62.75 C 80.699219 61.449219 80.78125 60.199219 81.332031 59 C 82.980469 58.75 84.640625 58.667969 86.304688 58.75 Z M 86.304688 58.75 "/>
<path style=" stroke:none;fill-rule:evenodd;fill:rgb(96.862745%,89.019608%,48.627451%);fill-opacity:1;" d="M 88.292969 66.75 C 87.875 67.484375 87.210938 67.898438 86.304688 68 C 83.871094 68.484375 81.550781 68.234375 79.339844 67.25 C 78.523438 66.144531 78.6875 65.230469 79.839844 64.5 C 82.703125 64.21875 85.519531 64.46875 88.292969 65.25 C 88.292969 65.75 88.292969 66.25 88.292969 66.75 Z M 88.292969 66.75 "/>
<use xlink:href="#surface8" mask="url(#mask1)"/>
<path style=" stroke:none;fill-rule:evenodd;fill:rgb(73.333333%,58.823529%,19.215686%);fill-opacity:1;" d="M 40.542969 13.75 C 41.773438 13.527344 42.769531 13.859375 43.527344 14.75 C 41.910156 16.777344 40.914062 16.445312 40.542969 13.75 Z M 40.542969 13.75 "/>
<path style=" stroke:none;fill-rule:evenodd;fill:rgb(99.607843%,87.843137%,44.705882%);fill-opacity:1;" d="M 22.136719 54.25 C 23.933594 57.824219 25.925781 61.324219 28.105469 64.75 C 28.535156 65.292969 29.03125 65.375 29.597656 65 C 28.597656 63.574219 27.933594 61.988281 27.609375 60.25 C 28.628906 61.871094 29.789062 63.453125 31.089844 65 C 31.734375 65.246094 32.394531 65.328125 33.078125 65.25 C 33.246094 65.25 33.410156 65.25 33.578125 65.25 C 33.578125 66.25 33.578125 67.25 33.578125 68.25 C 32.238281 67.328125 30.828125 66.496094 29.347656 65.75 C 29.335938 67.011719 29.914062 68.011719 31.089844 68.75 C 30.039062 69.425781 29.128906 69.257812 28.355469 68.25 C 25.34375 64.253906 22.9375 59.921875 21.140625 55.25 C 21.988281 55.828125 22.320312 55.496094 22.136719 54.25 Z M 22.136719 54.25 "/>
<path style=" stroke:none;fill-rule:evenodd;fill:rgb(98.823529%,96.862745%,79.215686%);fill-opacity:1;" d="M 41.039062 67.75 C 40.941406 69.398438 40.113281 70.566406 38.550781 71.25 C 38.214844 70.699219 37.882812 70.199219 37.554688 69.75 C 36.945312 68.996094 36.945312 68.246094 37.554688 67.5 C 38.820312 67.101562 39.980469 67.183594 41.039062 67.75 Z M 41.039062 67.75 "/>
<use xlink:href="#surface11" mask="url(#mask2)"/>
<path style=" stroke:none;fill-rule:evenodd;fill:rgb(99.215686%,91.372549%,46.27451%);fill-opacity:1;" d="M 41.039062 67.75 C 41.910156 68.277344 42.242188 69.109375 42.035156 70.25 C 40.734375 70.890625 39.574219 71.722656 38.550781 72.75 C 36.5625 72.199219 34.574219 71.617188 32.582031 71 C 31.839844 70.421875 31.921875 70.003906 32.832031 69.75 C 34.828125 70.320312 35.074219 69.820312 33.578125 68.25 C 34.507812 68.429688 35.253906 68.929688 35.816406 69.75 C 36.738281 72.292969 37.316406 72.292969 37.554688 69.75 C 37.882812 70.199219 38.214844 70.699219 38.550781 71.25 C 40.113281 70.566406 40.941406 69.398438 41.039062 67.75 Z M 41.039062 67.75 "/>
<path style=" stroke:none;fill-rule:evenodd;fill:rgb(99.215686%,92.54902%,63.137255%);fill-opacity:1;" d="M 19.152344 50.75 C 20.207031 52.042969 20.871094 53.542969 21.140625 55.25 C 22.9375 59.921875 25.34375 64.253906 28.355469 68.25 C 29.128906 69.257812 30.039062 69.425781 31.089844 68.75 C 29.914062 68.011719 29.335938 67.011719 29.347656 65.75 C 30.828125 66.496094 32.238281 67.328125 33.578125 68.25 C 35.074219 69.820312 34.828125 70.320312 32.832031 69.75 C 31.921875 70.003906 31.839844 70.421875 32.582031 71 C 34.574219 71.617188 36.5625 72.199219 38.550781 72.75 C 38.488281 73.609375 38.320312 74.441406 38.054688 75.25 C 37.671875 75.460938 37.257812 75.628906 36.808594 75.75 C 34.648438 75.039062 32.578125 74.121094 30.59375 73 C 24.296875 68.097656 20.484375 61.679688 19.152344 53.75 C 19.152344 52.75 19.152344 51.75 19.152344 50.75 Z M 19.152344 50.75 "/>
<path style=" stroke:none;fill-rule:evenodd;fill:rgb(95.294118%,83.529412%,36.862745%);fill-opacity:1;" d="M 41.535156 72.75 C 44.847656 72.171875 45.84375 73.421875 44.519531 76.5 C 39.894531 78.101562 38.898438 76.851562 41.535156 72.75 Z M 41.535156 72.75 "/>
<path style=" stroke:none;fill-rule:evenodd;fill:rgb(98.431373%,92.941176%,40.392157%);fill-opacity:1;" d="M 55.464844 56.25 C 52.964844 58.683594 51.554688 61.683594 51.234375 65.25 C 50.382812 69.03125 51.625 71.78125 54.964844 73.5 C 59.03125 73.824219 63.011719 73.40625 66.90625 72.25 C 66.230469 73.003906 66.476562 73.339844 67.652344 73.25 C 68.921875 71.851562 69.835938 72.019531 70.386719 73.75 C 69.515625 74.5 68.519531 75 67.402344 75.25 C 60.957031 75.992188 54.492188 76.324219 48.003906 76.25 C 48.003906 75.25 48.003906 74.25 48.003906 73.25 C 49.683594 74.316406 51.507812 74.484375 53.472656 73.75 C 53.0625 73.308594 52.566406 73.140625 51.980469 73.25 C 51.707031 72.050781 51.292969 70.882812 50.738281 69.75 C 50.40625 66.582031 50.40625 63.417969 50.738281 60.25 C 51.945312 58.972656 52.691406 57.472656 52.976562 55.75 C 53.832031 55.816406 54.660156 55.980469 55.464844 56.25 Z M 55.464844 56.25 "/>
<path style=" stroke:none;fill-rule:evenodd;fill:rgb(87.45098%,85.490196%,78.039216%);fill-opacity:1;" d="M 18.652344 78.75 C 18.625 79.304688 18.460938 79.804688 18.15625 80.25 C 17.511719 80.644531 16.933594 81.144531 16.414062 81.75 C 8.859375 74.402344 4.796875 65.402344 4.226562 54.75 C 5.761719 60.261719 7.835938 65.925781 10.445312 71.75 C 12.800781 74.535156 15.539062 76.867188 18.652344 78.75 Z M 18.652344 78.75 "/>
<path style=" stroke:none;fill-rule:evenodd;fill:rgb(72.941176%,63.921569%,20.784314%);fill-opacity:1;" d="M 48.003906 77.25 C 52.886719 77.746094 57.859375 77.914062 62.925781 77.75 C 57.863281 78.410156 52.726562 78.410156 47.503906 77.75 C 47.566406 77.445312 47.730469 77.28125 48.003906 77.25 Z M 48.003906 77.25 "/>
<path style=" stroke:none;fill-rule:evenodd;fill:rgb(14.509804%,16.470588%,18.431373%);fill-opacity:1;" d="M 44.519531 81.75 C 43.976562 82.824219 43.066406 83.492188 41.785156 83.75 C 40.707031 83.125 39.546875 82.792969 38.300781 82.75 C 36.601562 82.839844 34.859375 83.003906 33.078125 83.25 C 30.472656 81.300781 27.820312 80.882812 25.121094 82 C 24.789062 82.667969 24.292969 83.167969 23.628906 83.5 C 23.90625 83.691406 24.070312 83.941406 24.125 84.25 C 23.824219 84.695312 23.65625 85.195312 23.628906 85.75 C 23.027344 85.382812 22.363281 85.214844 21.636719 85.25 C 21.636719 85.082031 21.636719 84.917969 21.636719 84.75 C 22.554688 84.246094 23.214844 83.496094 23.628906 82.5 C 22.964844 82.167969 22.300781 82.167969 21.636719 82.5 C 21.203125 83.023438 20.707031 83.4375 20.144531 83.75 C 19.652344 83.835938 19.320312 83.667969 19.152344 83.25 C 20.269531 82.960938 21.097656 82.292969 21.636719 81.25 C 21.960938 81.402344 22.292969 81.570312 22.632812 81.75 C 23.132812 80.414062 23.878906 79.246094 24.871094 78.25 C 30.890625 82.105469 37.441406 83.273438 44.519531 81.75 Z M 44.519531 81.75 "/>
<path style=" stroke:none;fill-rule:evenodd;fill:rgb(66.666667%,63.921569%,58.823529%);fill-opacity:1;" d="M 18.15625 80.25 C 19.511719 80.085938 20.675781 80.417969 21.636719 81.25 C 21.097656 82.292969 20.269531 82.960938 19.152344 83.25 C 17.566406 82.691406 17.238281 81.691406 18.15625 80.25 Z M 18.15625 80.25 "/>
<path style=" stroke:none;fill-rule:evenodd;fill:rgb(92.54902%,84.705882%,16.470588%);fill-opacity:1;" d="M 54.964844 80.25 C 58.28125 80.25 61.597656 80.25 64.914062 80.25 C 65.007812 81.46875 64.675781 82.550781 63.921875 83.5 C 64.167969 83.582031 64.417969 83.667969 64.667969 83.75 C 66.1875 82.523438 67.765625 81.359375 69.390625 80.25 C 69.890625 83.578125 68.5625 85.914062 65.414062 87.25 C 60.871094 86.519531 57.390625 84.183594 54.964844 80.25 Z M 54.964844 80.25 "/>
<path style=" stroke:none;fill-rule:evenodd;fill:rgb(77.254902%,72.941176%,66.27451%);fill-opacity:1;" d="M 21.636719 84.75 C 20.878906 84.785156 20.382812 84.453125 20.144531 83.75 C 20.707031 83.4375 21.203125 83.023438 21.636719 82.5 C 22.300781 82.167969 22.964844 82.167969 23.628906 82.5 C 23.214844 83.496094 22.554688 84.246094 21.636719 84.75 Z M 21.636719 84.75 "/>
<path style=" stroke:none;fill-rule:evenodd;fill:rgb(23.137255%,24.705882%,24.313725%);fill-opacity:1;" d="M 44.519531 81.75 C 45.835938 81.367188 47.160156 81.285156 48.5 81.5 C 45.777344 84.035156 42.628906 85.785156 39.046875 86.75 C 39.007812 86.253906 39.171875 85.835938 39.546875 85.5 C 37.058594 85.332031 34.570312 85.167969 32.085938 85 C 32.609375 84.140625 32.277344 83.640625 31.089844 83.5 C 28.625 82.984375 26.300781 83.234375 24.125 84.25 C 24.070312 83.941406 23.90625 83.691406 23.628906 83.5 C 24.292969 83.167969 24.789062 82.667969 25.121094 82 C 27.820312 80.882812 30.472656 81.300781 33.078125 83.25 C 34.859375 83.003906 36.601562 82.839844 38.300781 82.75 C 39.546875 82.792969 40.707031 83.125 41.785156 83.75 C 43.066406 83.492188 43.976562 82.824219 44.519531 81.75 Z M 44.519531 81.75 "/>
<path style=" stroke:none;fill-rule:evenodd;fill:rgb(97.254902%,93.72549%,81.176471%);fill-opacity:1;" d="M 54.964844 80.25 C 57.390625 84.183594 60.871094 86.519531 65.414062 87.25 C 60.722656 89.320312 56.824219 88.320312 53.722656 84.25 C 53.101562 82.992188 52.851562 81.660156 52.976562 80.25 C 53.640625 80.25 54.304688 80.25 54.964844 80.25 Z M 54.964844 80.25 "/>
<path style=" stroke:none;fill-rule:evenodd;fill:rgb(85.098039%,82.352941%,73.72549%);fill-opacity:1;" d="M 39.046875 86.75 C 33.75 88.207031 28.609375 87.875 23.628906 85.75 C 23.65625 85.195312 23.824219 84.695312 24.125 84.25 C 26.300781 83.234375 28.625 82.984375 31.089844 83.5 C 32.277344 83.640625 32.609375 84.140625 32.085938 85 C 34.570312 85.167969 37.058594 85.332031 39.546875 85.5 C 39.171875 85.835938 39.007812 86.253906 39.046875 86.75 Z M 39.046875 86.75 "/>
</g>
</svg>
