<?xml version="1.0" encoding="UTF-8"?>
<svg xmlns="http://www.w3.org/2000/svg" xmlns:xlink="http://www.w3.org/1999/xlink" width="px" height="px" viewBox="0 0 100 94" version="1.1">
<defs>
<filter id="alpha" filterUnits="objectBoundingBox" x="0%" y="0%" width="100%" height="100%">
  <feColorMatrix type="matrix" in="SourceGraphic" values="0 0 0 0 1 0 0 0 0 1 0 0 0 0 1 0 0 0 1 0"/>
</filter>
<mask id="mask0">
  <g filter="url(#alpha)">
<rect x="0" y="0" width="100" height="94" style="fill:rgb(0%,0%,0%);fill-opacity:0.0352941;stroke:none;"/>
  </g>
</mask>
<clipPath id="clip1">
  <rect x="0" y="0" width="100" height="94"/>
</clipPath>
<g id="surface5" clip-path="url(#clip1)">
<path style=" stroke:none;fill-rule:evenodd;fill:rgb(13.333333%,16.470588%,21.960784%);fill-opacity:1;" d="M 35.25 2.25 C 34.90625 3.011719 34.320312 3.511719 33.5 3.75 C 30.628906 2.664062 27.710938 2.496094 24.75 3.25 C 25.476562 2.386719 26.476562 1.886719 27.75 1.75 C 28.453125 2.335938 29.035156 2.167969 29.5 1.25 C 31.398438 2.882812 33.316406 3.21875 35.25 2.25 Z M 35.25 2.25 "/>
</g>
<mask id="mask1">
  <g filter="url(#alpha)">
<rect x="0" y="0" width="100" height="94" style="fill:rgb(0%,0%,0%);fill-opacity:0.0941176;stroke:none;"/>
  </g>
</mask>
<clipPath id="clip2">
  <rect x="0" y="0" width="100" height="94"/>
</clipPath>
<g id="surface8" clip-path="url(#clip2)">
<path style=" stroke:none;fill-rule:evenodd;fill:rgb(15.686275%,19.607843%,24.313725%);fill-opacity:1;" d="M 38.75 -0.25 C 39.082031 -0.25 39.417969 -0.25 39.75 -0.25 C 40.082031 0.417969 40.417969 0.417969 40.75 -0.25 C 40.917969 -0.25 41.082031 -0.25 41.25 -0.25 C 42.011719 0.566406 43.011719 0.980469 44.25 1 C 47.152344 4.65625 50.152344 8.238281 53.25 11.75 C 50.003906 9.109375 47.167969 6.023438 44.75 2.5 C 41.621094 0.921875 38.457031 0.835938 35.25 2.25 C 36.328125 1.292969 37.496094 0.460938 38.75 -0.25 Z M 38.75 -0.25 "/>
</g>
<mask id="mask2">
  <g filter="url(#alpha)">
<rect x="0" y="0" width="100" height="94" style="fill:rgb(0%,0%,0%);fill-opacity:0.137255;stroke:none;"/>
  </g>
</mask>
<clipPath id="clip3">
  <rect x="0" y="0" width="100" height="94"/>
</clipPath>
<g id="surface11" clip-path="url(#clip3)">
<path style=" stroke:none;fill-rule:evenodd;fill:rgb(16.078431%,20.392157%,25.098039%);fill-opacity:1;" d="M 75.75 6.75 C 76.507812 6.753906 77.09375 7.089844 77.5 7.75 C 78.144531 11.363281 79.808594 14.363281 82.5 16.75 C 83.71875 18.464844 84.71875 20.300781 85.5 22.25 C 86.992188 22.589844 88.40625 22.589844 89.75 22.25 C 94.203125 23.175781 96.203125 25.84375 95.75 30.25 C 95.292969 27.820312 94.125 25.738281 92.25 24 C 90.046875 22.976562 87.878906 23.0625 85.75 24.25 C 84.042969 20.449219 81.625 17.117188 78.5 14.25 C 78.347656 12.378906 77.765625 10.710938 76.75 9.25 C 76.554688 8.359375 76.21875 7.523438 75.75 6.75 Z M 75.75 6.75 "/>
</g>
<mask id="mask3">
  <g filter="url(#alpha)">
<rect x="0" y="0" width="100" height="94" style="fill:rgb(0%,0%,0%);fill-opacity:0.027451;stroke:none;"/>
  </g>
</mask>
<clipPath id="clip4">
  <rect x="0" y="0" width="100" height="94"/>
</clipPath>
<g id="surface14" clip-path="url(#clip4)">
<path style=" stroke:none;fill-rule:evenodd;fill:rgb(16.470588%,20.784314%,25.882353%);fill-opacity:1;" d="M 14.75 12.25 C 13.597656 12.988281 12.679688 13.988281 12 15.25 C 11.625 17.425781 11.207031 19.59375 10.75 21.75 C 7.988281 22.679688 5.824219 24.347656 4.25 26.75 C 4.195312 26.441406 4.027344 26.191406 3.75 26 C 5.597656 23.5625 7.933594 21.8125 10.75 20.75 C 9.980469 17.515625 10.8125 14.765625 13.25 12.5 C 13.722656 12.257812 14.222656 12.175781 14.75 12.25 Z M 14.75 12.25 "/>
</g>
<mask id="mask4">
  <g filter="url(#alpha)">
<rect x="0" y="0" width="100" height="94" style="fill:rgb(0%,0%,0%);fill-opacity:0.984314;stroke:none;"/>
  </g>
</mask>
<clipPath id="clip5">
  <rect x="0" y="0" width="100" height="94"/>
</clipPath>
<g id="surface17" clip-path="url(#clip5)">
<path style=" stroke:none;fill-rule:evenodd;fill:rgb(2.352941%,3.137255%,4.313725%);fill-opacity:1;" d="M 76.75 9.25 C 77.765625 10.710938 78.347656 12.378906 78.5 14.25 C 81.625 17.117188 84.042969 20.449219 85.75 24.25 C 87.878906 23.0625 90.046875 22.976562 92.25 24 C 94.125 25.738281 95.292969 27.820312 95.75 30.25 C 96.765625 32.828125 97.515625 35.496094 98 38.25 C 98.398438 44.4375 98.3125 50.605469 97.75 56.75 C 97.035156 56.941406 96.617188 57.441406 96.5 58.25 C 96.21875 57.988281 95.886719 57.824219 95.5 57.75 C 94.328125 57.996094 93.242188 58.328125 92.25 58.75 C 91.917969 59.082031 91.582031 59.417969 91.25 59.75 C 91.335938 59.253906 91.167969 58.921875 90.75 58.75 C 89.683594 58.34375 88.519531 58.09375 87.25 58 C 88.625 57.527344 89.957031 57.113281 91.25 56.75 C 91.582031 56.75 91.75 56.582031 91.75 56.25 C 92.082031 56.582031 92.417969 56.917969 92.75 57.25 C 95.46875 56.726562 96.46875 55.058594 95.75 52.25 C 95.082031 52.25 94.417969 52.25 93.75 52.25 C 92.035156 52.226562 90.203125 52.144531 88.25 52 C 87.90625 51.464844 87.65625 50.882812 87.5 50.25 C 87.308594 50.527344 87.058594 50.695312 86.75 50.75 C 86.832031 48.578125 86.75 46.410156 86.5 44.25 C 86.023438 43.710938 85.605469 43.128906 85.25 42.5 C 85.8125 42.082031 86.144531 41.496094 86.25 40.75 C 86.078125 39.742188 85.914062 38.742188 85.75 37.75 C 85.019531 37.785156 84.355469 37.617188 83.75 37.25 C 85.746094 35.019531 85.578125 32.851562 83.25 30.75 C 83.582031 30.417969 83.917969 30.082031 84.25 29.75 C 83.617188 28.101562 83.035156 26.433594 82.5 24.75 C 81.164062 20.050781 78.25 16.882812 73.75 15.25 C 73.902344 14.925781 74.070312 14.589844 74.25 14.25 C 72.265625 13.765625 70.265625 13.347656 68.25 13 C 69.574219 12.75 70.90625 12.667969 72.25 12.75 C 73.25 12.75 74.25 12.75 75.25 12.75 C 75.242188 11.71875 75.074219 10.71875 74.75 9.75 C 74.683594 9.378906 74.769531 9.046875 75 8.75 C 75.476562 9.6875 76.058594 9.851562 76.75 9.25 Z M 76.75 9.25 "/>
</g>
<mask id="mask5">
  <g filter="url(#alpha)">
<rect x="0" y="0" width="100" height="94" style="fill:rgb(0%,0%,0%);fill-opacity:0.0862745;stroke:none;"/>
  </g>
</mask>
<clipPath id="clip6">
  <rect x="0" y="0" width="100" height="94"/>
</clipPath>
<g id="surface20" clip-path="url(#clip6)">
<path style=" stroke:none;fill-rule:evenodd;fill:rgb(15.686275%,21.176471%,25.882353%);fill-opacity:1;" d="M 4.25 26.75 C 3.542969 29.046875 3.707031 31.296875 4.75 33.5 C 3.804688 34.652344 2.804688 35.734375 1.75 36.75 C 1.964844 35.355469 2.632812 34.191406 3.75 33.25 C 2.804688 31.519531 2.554688 29.6875 3 27.75 C 3.207031 27.121094 3.625 26.789062 4.25 26.75 Z M 4.25 26.75 "/>
</g>
<mask id="mask6">
  <g filter="url(#alpha)">
<rect x="0" y="0" width="100" height="94" style="fill:rgb(0%,0%,0%);fill-opacity:0.992157;stroke:none;"/>
  </g>
</mask>
<clipPath id="clip7">
  <rect x="0" y="0" width="100" height="94"/>
</clipPath>
<g id="surface23" clip-path="url(#clip7)">
<path style=" stroke:none;fill-rule:evenodd;fill:rgb(3.529412%,4.313725%,4.705882%);fill-opacity:1;" d="M 93.75 52.25 C 93.101562 53.839844 92.769531 55.507812 92.75 57.25 C 92.417969 56.917969 92.082031 56.582031 91.75 56.25 C 91.996094 55.097656 92.164062 53.929688 92.25 52.75 C 90.917969 52.75 89.582031 52.75 88.25 52.75 C 87.953125 54.0625 87.789062 55.398438 87.75 56.75 C 88.917969 56.75 90.082031 56.75 91.25 56.75 C 89.957031 57.113281 88.625 57.527344 87.25 58 C 88.519531 58.09375 89.683594 58.34375 90.75 58.75 C 91.167969 58.921875 91.335938 59.253906 91.25 59.75 C 91.371094 60.734375 91.203125 61.652344 90.75 62.5 C 93.3125 63.027344 94.644531 61.945312 94.75 59.25 C 93.976562 58.773438 93.144531 58.609375 92.25 58.75 C 93.242188 58.328125 94.328125 57.996094 95.5 57.75 C 95.886719 57.824219 96.21875 57.988281 96.5 58.25 C 96.617188 57.441406 97.035156 56.941406 97.75 56.75 C 97.402344 58.578125 96.988281 60.414062 96.5 62.25 C 95.621094 64.625 94.621094 66.960938 93.5 69.25 C 90.941406 71.066406 88.277344 71.234375 85.5 69.75 C 84.019531 73.539062 81.6875 76.707031 78.5 79.25 C 76.570312 89.753906 70.65625 93.003906 60.75 89 C 58.582031 87.25 57.25 85 56.75 82.25 C 55.445312 81.675781 54.113281 81.589844 52.75 82 C 49.371094 85.207031 46.207031 88.542969 43.25 92 C 41.453125 92.636719 39.617188 92.804688 37.75 92.5 C 36.140625 91.613281 34.472656 90.863281 32.75 90.25 C 30.121094 91.269531 27.453125 91.4375 24.75 90.75 C 24.253906 90.835938 23.921875 90.667969 23.75 90.25 C 22.253906 88.007812 21.085938 85.589844 20.25 83 C 13.078125 82.242188 10.246094 78.328125 11.75 71.25 C 7.6875 70.609375 5.105469 68.273438 4 64.25 C 3.617188 62.335938 3.867188 60.5 4.75 58.75 C 4.570312 58.238281 4.238281 57.90625 3.75 57.75 C 2.265625 56.386719 2.433594 55.386719 4.25 54.75 C 5.199219 56.28125 6.53125 57.363281 8.25 58 C 5.527344 60.414062 5.113281 63.164062 7 66.25 C 9.902344 69.523438 13.488281 70.605469 17.75 69.5 C 16.265625 69.882812 15.015625 70.632812 14 71.75 C 13.667969 73.75 13.667969 75.75 14 77.75 C 16.320312 79.832031 19.070312 81 22.25 81.25 C 22.460938 84.402344 23.792969 86.902344 26.25 88.75 C 26.789062 89.007812 27.371094 89.175781 28 89.25 C 29.773438 88.796875 31.523438 88.296875 33.25 87.75 C 33.582031 87.75 33.917969 87.75 34.25 87.75 C 35.757812 89.667969 37.757812 90.5 40.25 90.25 C 43.363281 90.054688 45.113281 88.386719 45.5 85.25 C 46.539062 81.746094 45.289062 79.746094 41.75 79.25 C 39.828125 78.039062 37.996094 76.707031 36.25 75.25 C 37.074219 74.976562 37.910156 74.808594 38.75 74.75 C 39.195312 75.054688 39.695312 75.222656 40.25 75.25 C 43.039062 77.304688 46.203125 78.554688 49.75 79 C 56.335938 79.414062 62.835938 79.328125 69.25 78.75 C 70.773438 78.746094 72.273438 78.578125 73.75 78.25 C 76.953125 77.464844 79.367188 75.632812 81 72.75 C 81.988281 69.953125 83.070312 67.203125 84.25 64.5 C 83.511719 64.144531 83.179688 63.5625 83.25 62.75 C 83.75 62.75 84.25 62.75 84.75 62.75 C 84.796875 61.652344 84.960938 60.570312 85.25 59.5 C 84.8125 58.601562 84.476562 57.683594 84.25 56.75 C 84.75 56.75 85.25 56.75 85.75 56.75 C 85.914062 55.757812 86.078125 54.757812 86.25 53.75 C 85.898438 52.734375 85.566406 51.734375 85.25 50.75 C 85.75 50.75 86.25 50.75 86.75 50.75 C 87.058594 50.695312 87.308594 50.527344 87.5 50.25 C 87.65625 50.882812 87.90625 51.464844 88.25 52 C 90.203125 52.144531 92.035156 52.226562 93.75 52.25 Z M 93.75 52.25 "/>
</g>
<mask id="mask7">
  <g filter="url(#alpha)">
<rect x="0" y="0" width="100" height="94" style="fill:rgb(0%,0%,0%);fill-opacity:0.231373;stroke:none;"/>
  </g>
</mask>
<clipPath id="clip8">
  <rect x="0" y="0" width="100" height="94"/>
</clipPath>
<g id="surface26" clip-path="url(#clip8)">
<path style=" stroke:none;fill-rule:evenodd;fill:rgb(16.078431%,21.960784%,25.882353%);fill-opacity:1;" d="M 95.75 30.25 C 96.707031 30.289062 97.289062 30.789062 97.5 31.75 C 98.894531 36.082031 99.644531 40.25 99.75 44.25 C 99.75 45.582031 99.75 46.917969 99.75 48.25 C 99.082031 48.417969 99.082031 48.582031 99.75 48.75 C 99.75 49.25 99.75 49.75 99.75 50.25 C 99.496094 53.804688 98.910156 57.472656 98 61.25 C 96.785156 63.269531 95.953125 65.4375 95.5 67.75 C 94.582031 69.332031 93.332031 70.582031 91.75 71.5 C 89.617188 71.546875 87.535156 71.632812 85.5 71.75 C 84.277344 74.695312 82.445312 77.195312 80 79.25 C 78.105469 88.523438 72.6875 92.609375 63.75 91.5 C 59.957031 89.871094 57.371094 87.121094 56 83.25 C 54.96875 82.703125 53.882812 82.621094 52.75 83 C 49.949219 85.382812 47.613281 88.132812 45.75 91.25 C 44.535156 92.351562 43.203125 93.1875 41.75 93.75 C 40.582031 93.75 39.417969 93.75 38.25 93.75 C 36.519531 92.804688 34.683594 91.96875 32.75 91.25 C 31.125 91.082031 29.539062 91.414062 28 92.25 C 26.546875 92.359375 25.460938 91.859375 24.75 90.75 C 27.453125 91.4375 30.121094 91.269531 32.75 90.25 C 34.472656 90.863281 36.140625 91.613281 37.75 92.5 C 39.617188 92.804688 41.453125 92.636719 43.25 92 C 46.207031 88.542969 49.371094 85.207031 52.75 82 C 54.113281 81.589844 55.445312 81.675781 56.75 82.25 C 57.25 85 58.582031 87.25 60.75 89 C 70.65625 93.003906 76.570312 89.753906 78.5 79.25 C 81.6875 76.707031 84.019531 73.539062 85.5 69.75 C 88.277344 71.234375 90.941406 71.066406 93.5 69.25 C 94.621094 66.960938 95.621094 64.625 96.5 62.25 C 96.988281 60.414062 97.402344 58.578125 97.75 56.75 C 98.3125 50.605469 98.398438 44.4375 98 38.25 C 97.515625 35.496094 96.765625 32.828125 95.75 30.25 Z M 95.75 30.25 "/>
</g>
<mask id="mask8">
  <g filter="url(#alpha)">
<rect x="0" y="0" width="100" height="94" style="fill:rgb(0%,0%,0%);fill-opacity:0.0941176;stroke:none;"/>
  </g>
</mask>
<clipPath id="clip9">
  <rect x="0" y="0" width="100" height="94"/>
</clipPath>
<g id="surface29" clip-path="url(#clip9)">
<path style=" stroke:none;fill-rule:evenodd;fill:rgb(16.470588%,21.960784%,25.882353%);fill-opacity:1;" d="M 3.75 57.75 C 4.238281 57.90625 4.570312 58.238281 4.75 58.75 C 3.867188 60.5 3.617188 62.335938 4 64.25 C 5.105469 68.273438 7.6875 70.609375 11.75 71.25 C 10.246094 78.328125 13.078125 82.242188 20.25 83 C 21.085938 85.589844 22.253906 88.007812 23.75 90.25 C 22.992188 90.246094 22.40625 89.910156 22 89.25 C 21.082031 87.410156 20.164062 85.578125 19.25 83.75 C 12.71875 82.980469 9.886719 79.394531 10.75 73 C 7.109375 71.023438 4.523438 68.109375 3 64.25 C 2.710938 62.023438 2.960938 59.855469 3.75 57.75 Z M 3.75 57.75 "/>
</g>
</defs>
<g id="surface1">
<use xlink:href="#surface5" mask="url(#mask0)"/>
<use xlink:href="#surface8" mask="url(#mask1)"/>
<path style=" stroke:none;fill-rule:evenodd;fill:rgb(4.313725%,4.705882%,5.882353%);fill-opacity:1;" d="M 53.25 11.75 C 54.132812 11.820312 54.964844 11.65625 55.75 11.25 C 56.742188 8.335938 58.410156 5.921875 60.75 4 C 64.160156 1.765625 67.828125 1.265625 71.75 2.5 C 73.128906 3.808594 74.628906 4.976562 76.25 6 C 75.972656 6.191406 75.804688 6.441406 75.75 6.75 C 76.21875 7.523438 76.554688 8.359375 76.75 9.25 C 76.058594 9.851562 75.476562 9.6875 75 8.75 C 74.769531 9.046875 74.683594 9.378906 74.75 9.75 C 73.929688 8.597656 72.929688 7.597656 71.75 6.75 C 66.085938 3.972656 61.917969 5.472656 59.25 11.25 C 60.371094 11.738281 61.539062 11.902344 62.75 11.75 C 66.039062 11.578125 69.207031 11.910156 72.25 12.75 C 70.90625 12.667969 69.574219 12.75 68.25 13 C 70.265625 13.347656 72.265625 13.765625 74.25 14.25 C 74.070312 14.589844 73.902344 14.925781 73.75 15.25 C 66.117188 14.273438 58.453125 14.023438 50.75 14.5 C 42.414062 15.199219 36.496094 19.285156 33 26.75 C 31.15625 30.886719 30.238281 35.222656 30.25 39.75 C 29.609375 45.648438 29.777344 51.480469 30.75 57.25 C 30.773438 63.785156 33.105469 69.285156 37.75 73.75 C 38.25 73.917969 38.582031 74.25 38.75 74.75 C 37.910156 74.808594 37.074219 74.976562 36.25 75.25 C 35.09375 74.425781 34.09375 73.425781 33.25 72.25 C 32.738281 72.425781 32.40625 72.761719 32.25 73.25 C 31.601562 73.644531 31.019531 74.144531 30.5 74.75 C 31.628906 71.730469 31.464844 68.730469 30 65.75 C 29.539062 66.6875 28.789062 67.1875 27.75 67.25 C 27.53125 67.28125 27.363281 67.199219 27.25 67 C 28.15625 66.34375 28.992188 65.59375 29.75 64.75 C 29.253906 62.949219 28.921875 61.113281 28.75 59.25 C 27.582031 59.25 26.417969 59.25 25.25 59.25 C 26.082031 58.917969 26.917969 58.582031 27.75 58.25 C 27.660156 51.417969 27.828125 44.5 28.25 37.5 C 28.15625 36.476562 27.820312 35.558594 27.25 34.75 C 27.664062 34.308594 28.164062 34.140625 28.75 34.25 C 29.082031 32.589844 29.414062 30.921875 29.75 29.25 C 29.613281 28.152344 29.113281 27.320312 28.25 26.75 C 29.976562 27.460938 30.894531 26.792969 31 24.75 C 30.710938 22.4375 30.378906 20.105469 30 17.75 C 30.519531 18.355469 31.101562 18.855469 31.75 19.25 C 31.84375 20.097656 32.257812 20.765625 33 21.25 C 33.898438 19.851562 34.980469 18.601562 36.25 17.5 C 38.199219 16.113281 40.199219 14.863281 42.25 13.75 C 43.273438 13.519531 44.273438 13.1875 45.25 12.75 C 46.621094 7.648438 44.785156 4.480469 39.75 3.25 C 39.136719 3.261719 38.636719 3.425781 38.25 3.75 C 37.242188 3.695312 36.410156 4.027344 35.75 4.75 C 35.070312 5.34375 34.320312 5.84375 33.5 6.25 C 33.050781 6.128906 32.632812 5.960938 32.25 5.75 C 26.40625 3.585938 23.242188 5.585938 22.75 11.75 C 22.296875 12.105469 22.132812 12.605469 22.25 13.25 C 20.644531 13.09375 19.144531 13.261719 17.75 13.75 C 16.128906 14.019531 14.878906 14.851562 14 16.25 C 13.667969 18.25 13.667969 20.25 14 22.25 C 15.71875 22.898438 17.300781 23.734375 18.75 24.75 C 15.144531 23.863281 11.644531 24.113281 8.25 25.5 C 4.917969 28.5 4.917969 31.5 8.25 34.5 C 7.738281 34.757812 7.238281 35.007812 6.75 35.25 C 3.605469 37.046875 2.519531 39.714844 3.5 43.25 C 4.15625 44.488281 5.070312 45.488281 6.25 46.25 C 3.128906 48.523438 2.460938 51.355469 4.25 54.75 C 2.433594 55.386719 2.265625 56.386719 3.75 57.75 C 2.992188 57.746094 2.40625 57.410156 2 56.75 C 0.96875 54.5 0.46875 52.167969 0.5 49.75 C 1.082031 48.5 1.667969 47.25 2.25 46 C 1.480469 44.332031 0.648438 42.75 -0.25 41.25 C -0.25 40.75 -0.25 40.25 -0.25 39.75 C 0.152344 39 0.484375 38.167969 0.75 37.25 C 0.976562 36.851562 1.3125 36.683594 1.75 36.75 C 2.804688 35.734375 3.804688 34.652344 4.75 33.5 C 3.707031 31.296875 3.542969 29.046875 4.25 26.75 C 5.824219 24.347656 7.988281 22.679688 10.75 21.75 C 11.207031 19.59375 11.625 17.425781 12 15.25 C 12.679688 13.988281 13.597656 12.988281 14.75 12.25 C 15.65625 11.617188 16.570312 10.949219 17.5 10.25 C 18.230469 10.875 18.980469 10.875 19.75 10.25 C 20.253906 8.492188 21.085938 6.910156 22.25 5.5 C 22.082031 5.332031 21.917969 5.167969 21.75 5 C 22.695312 4.277344 23.695312 3.695312 24.75 3.25 C 27.710938 2.496094 30.628906 2.664062 33.5 3.75 C 34.320312 3.511719 34.90625 3.011719 35.25 2.25 C 38.457031 0.835938 41.621094 0.921875 44.75 2.5 C 47.167969 6.023438 50.003906 9.109375 53.25 11.75 Z M 53.25 11.75 "/>
<path style=" stroke:none;fill-rule:evenodd;fill:rgb(92.54902%,84.313725%,77.254902%);fill-opacity:1;" d="M 38.25 3.75 C 40.179688 4.570312 41.429688 6.070312 42 8.25 C 42.25 9.574219 42.332031 10.90625 42.25 12.25 C 41.417969 12.25 40.582031 12.25 39.75 12.25 C 38.621094 10.816406 37.621094 9.316406 36.75 7.75 C 36.417969 6.75 36.082031 5.75 35.75 4.75 C 36.410156 4.027344 37.242188 3.695312 38.25 3.75 Z M 38.25 3.75 "/>
<path style=" stroke:none;fill-rule:evenodd;fill:rgb(36.078431%,77.647059%,78.823529%);fill-opacity:1;" d="M 71.75 6.75 C 71.816406 7.1875 71.648438 7.523438 71.25 7.75 C 68.261719 8.90625 65.429688 10.238281 62.75 11.75 C 61.539062 11.902344 60.371094 11.738281 59.25 11.25 C 61.917969 5.472656 66.085938 3.972656 71.75 6.75 Z M 71.75 6.75 "/>
<path style=" stroke:none;fill-rule:evenodd;fill:rgb(27.843137%,32.54902%,39.607843%);fill-opacity:1;" d="M 47.25 9.25 C 50.273438 10.722656 50.273438 11.890625 47.25 12.75 C 46.644531 11.570312 46.644531 10.402344 47.25 9.25 Z M 47.25 9.25 "/>
<path style=" stroke:none;fill-rule:evenodd;fill:rgb(18.431373%,47.843137%,57.254902%);fill-opacity:1;" d="M 71.75 6.75 C 72.929688 7.597656 73.929688 8.597656 74.75 9.75 C 75.074219 10.71875 75.242188 11.71875 75.25 12.75 C 74.25 12.75 73.25 12.75 72.25 12.75 C 69.207031 11.910156 66.039062 11.578125 62.75 11.75 C 65.429688 10.238281 68.261719 8.90625 71.25 7.75 C 71.648438 7.523438 71.816406 7.1875 71.75 6.75 Z M 71.75 6.75 "/>
<path style=" stroke:none;fill-rule:evenodd;fill:rgb(64.313725%,60%,58.431373%);fill-opacity:1;" d="M 38.25 3.75 C 38.636719 3.425781 39.136719 3.261719 39.75 3.25 C 44.785156 4.480469 46.621094 7.648438 45.25 12.75 C 44.273438 13.1875 43.273438 13.519531 42.25 13.75 C 41.316406 13.367188 40.484375 12.867188 39.75 12.25 C 40.582031 12.25 41.417969 12.25 42.25 12.25 C 42.332031 10.90625 42.25 9.574219 42 8.25 C 41.429688 6.070312 40.179688 4.570312 38.25 3.75 Z M 38.25 3.75 "/>
<path style=" stroke:none;fill-rule:evenodd;fill:rgb(94.117647%,85.098039%,75.686275%);fill-opacity:1;" d="M 32.25 5.75 C 31.675781 7.257812 31.59375 8.757812 32 10.25 C 29.976562 8.742188 27.726562 8.15625 25.25 8.5 C 29.183594 8.519531 31.515625 10.4375 32.25 14.25 C 31.445312 14.96875 30.777344 15.886719 30.25 17 C 28.695312 16.46875 27.363281 15.46875 26.25 14 C 25.160156 13.398438 23.996094 13.148438 22.75 13.25 C 22.75 12.75 22.75 12.25 22.75 11.75 C 23.242188 5.585938 26.40625 3.585938 32.25 5.75 Z M 32.25 5.75 "/>
<path style=" stroke:none;fill-rule:evenodd;fill:rgb(49.411765%,48.627451%,48.627451%);fill-opacity:1;" d="M 36.75 7.75 C 37.621094 9.316406 38.621094 10.816406 39.75 12.25 C 40.484375 12.867188 41.316406 13.367188 42.25 13.75 C 40.199219 14.863281 38.199219 16.113281 36.25 17.5 C 34.980469 18.601562 33.898438 19.851562 33 21.25 C 32.257812 20.765625 31.84375 20.097656 31.75 19.25 C 31.667969 18.402344 31.753906 17.566406 32 16.75 C 33.019531 15.203125 34.183594 14.203125 35.5 13.75 C 35.332031 11.75 35.167969 9.75 35 7.75 C 36.828125 12.207031 37.414062 12.207031 36.75 7.75 Z M 36.75 7.75 "/>
<use xlink:href="#surface11" mask="url(#mask2)"/>
<use xlink:href="#surface14" mask="url(#mask3)"/>
<path style=" stroke:none;fill-rule:evenodd;fill:rgb(14.117647%,44.705882%,58.039216%);fill-opacity:1;" d="M 73.75 15.25 C 78.25 16.882812 81.164062 20.050781 82.5 24.75 C 83.035156 26.433594 83.617188 28.101562 84.25 29.75 C 83.917969 30.082031 83.582031 30.417969 83.25 30.75 C 85.578125 32.851562 85.746094 35.019531 83.75 37.25 C 82.164062 32.746094 80.414062 28.246094 78.5 23.75 C 75.441406 20.144531 71.523438 18.3125 66.75 18.25 C 60.847656 17.527344 56.847656 19.859375 54.75 25.25 C 53.742188 24.535156 52.90625 24.699219 52.25 25.75 C 52.25 24.417969 52.25 23.082031 52.25 21.75 C 48.171875 21.753906 44.339844 22.585938 40.75 24.25 C 38.011719 25.066406 35.929688 26.734375 34.5 29.25 C 33.410156 31.582031 32.492188 33.917969 31.75 36.25 C 30.992188 37.292969 30.492188 38.460938 30.25 39.75 C 30.238281 35.222656 31.15625 30.886719 33 26.75 C 36.496094 19.285156 42.414062 15.199219 50.75 14.5 C 58.453125 14.023438 66.117188 14.273438 73.75 15.25 Z M 73.75 15.25 "/>
<path style=" stroke:none;fill-rule:evenodd;fill:rgb(2.352941%,2.352941%,2.745098%);fill-opacity:1;" d="M 64.75 19.75 C 68.363281 19.632812 71.613281 20.632812 74.5 22.75 C 76.453125 25.636719 76.703125 28.636719 75.25 31.75 C 74.328125 33.753906 72.828125 35.171875 70.75 36 C 68.421875 36.25 66.089844 36.332031 63.75 36.25 C 59.84375 34.703125 57.84375 31.785156 57.75 27.5 C 58.226562 23.273438 60.558594 20.6875 64.75 19.75 Z M 64.75 19.75 "/>
<path style=" stroke:none;fill-rule:evenodd;fill:rgb(36.078431%,75.294118%,77.254902%);fill-opacity:1;" d="M 66.75 18.25 C 66.960938 18.609375 67.292969 18.859375 67.75 19 C 66.644531 19.09375 65.644531 19.34375 64.75 19.75 C 60.558594 20.6875 58.226562 23.273438 57.75 27.5 C 57.84375 31.785156 59.84375 34.703125 63.75 36.25 C 63.75 36.417969 63.75 36.582031 63.75 36.75 C 63.53125 36.71875 63.363281 36.800781 63.25 37 C 64.625 38.855469 66.457031 39.605469 68.75 39.25 C 68.253906 39.832031 67.585938 40.164062 66.75 40.25 C 65.664062 39.707031 64.664062 39.707031 63.75 40.25 C 57.683594 37.121094 54.683594 32.121094 54.75 25.25 C 56.847656 19.859375 60.847656 17.527344 66.75 18.25 Z M 66.75 18.25 "/>
<path style=" stroke:none;fill-rule:evenodd;fill:rgb(96.862745%,92.54902%,83.921569%);fill-opacity:1;" d="M 17.75 13.75 C 20.089844 13.667969 22.421875 13.75 24.75 14 C 25.816406 14.378906 26.484375 15.128906 26.75 16.25 C 26.378906 17.175781 25.878906 17.507812 25.25 17.25 C 25.433594 18.398438 25.433594 19.484375 25.25 20.5 C 26.402344 21.5625 27.238281 22.8125 27.75 24.25 C 27.128906 24.40625 27.128906 24.65625 27.75 25 C 27.082031 25.082031 26.417969 25.167969 25.75 25.25 C 23.386719 24.835938 21.054688 24.667969 18.75 24.75 C 17.300781 23.734375 15.71875 22.898438 14 22.25 C 13.667969 20.25 13.667969 18.25 14 16.25 C 14.878906 14.851562 16.128906 14.019531 17.75 13.75 Z M 17.75 13.75 "/>
<path style=" stroke:none;fill-rule:evenodd;fill:rgb(69.411765%,64.705882%,61.176471%);fill-opacity:1;" d="M 35.75 4.75 C 36.082031 5.75 36.417969 6.75 36.75 7.75 C 37.414062 12.207031 36.828125 12.207031 35 7.75 C 35.167969 9.75 35.332031 11.75 35.5 13.75 C 34.183594 14.203125 33.019531 15.203125 32 16.75 C 31.753906 17.566406 31.667969 18.402344 31.75 19.25 C 31.101562 18.855469 30.519531 18.355469 30 17.75 C 30.378906 20.105469 30.710938 22.4375 31 24.75 C 30.894531 26.792969 29.976562 27.460938 28.25 26.75 C 28.25 26.582031 28.25 26.417969 28.25 26.25 C 28.382812 25.449219 28.21875 24.785156 27.75 24.25 C 27.238281 22.8125 26.402344 21.5625 25.25 20.5 C 25.433594 19.484375 25.433594 18.398438 25.25 17.25 C 25.878906 17.507812 26.378906 17.175781 26.75 16.25 C 26.484375 15.128906 25.816406 14.378906 24.75 14 C 22.421875 13.75 20.089844 13.667969 17.75 13.75 C 19.144531 13.261719 20.644531 13.09375 22.25 13.25 C 22.132812 12.605469 22.296875 12.105469 22.75 11.75 C 22.75 12.25 22.75 12.75 22.75 13.25 C 23.996094 13.148438 25.160156 13.398438 26.25 14 C 27.363281 15.46875 28.695312 16.46875 30.25 17 C 30.777344 15.886719 31.445312 14.96875 32.25 14.25 C 31.515625 10.4375 29.183594 8.519531 25.25 8.5 C 27.726562 8.15625 29.976562 8.742188 32 10.25 C 31.59375 8.757812 31.675781 7.257812 32.25 5.75 C 32.632812 5.960938 33.050781 6.128906 33.5 6.25 C 34.320312 5.84375 35.070312 5.34375 35.75 4.75 Z M 35.75 4.75 "/>
<path style=" stroke:none;fill-rule:evenodd;fill:rgb(29.019608%,74.509804%,76.862745%);fill-opacity:1;" d="M 52.25 25.75 C 51.304688 25.476562 50.46875 24.976562 49.75 24.25 C 49.152344 24.421875 49.152344 24.671875 49.75 25 C 47.925781 25.25 46.089844 25.332031 44.25 25.25 C 43.199219 24.695312 42.035156 24.359375 40.75 24.25 C 44.339844 22.585938 48.171875 21.753906 52.25 21.75 C 52.25 23.082031 52.25 24.417969 52.25 25.75 Z M 52.25 25.75 "/>
<use xlink:href="#surface17" mask="url(#mask4)"/>
<path style=" stroke:none;fill-rule:evenodd;fill:rgb(41.568627%,0.392157%,10.588235%);fill-opacity:1;" d="M 71.25 24.75 C 69.574219 24.667969 67.910156 24.75 66.25 25 C 64.980469 25.925781 64.480469 27.175781 64.75 28.75 C 64.152344 28.515625 63.820312 28.015625 63.75 27.25 C 65.386719 23.734375 67.886719 22.902344 71.25 24.75 Z M 71.25 24.75 "/>
<path style=" stroke:none;fill-rule:evenodd;fill:rgb(38.039216%,83.529412%,82.352941%);fill-opacity:1;" d="M 52.25 25.75 C 52.121094 31.410156 54.121094 36.160156 58.25 40 C 59.777344 41.105469 61.445312 41.605469 63.25 41.5 C 63.625 41.164062 63.792969 40.746094 63.75 40.25 C 64.664062 39.707031 65.664062 39.707031 66.75 40.25 C 67.585938 40.164062 68.253906 39.832031 68.75 39.25 C 70.242188 39.410156 71.40625 38.910156 72.25 37.75 C 73.488281 37.378906 74.65625 36.878906 75.75 36.25 C 76.152344 36.976562 76.402344 37.808594 76.5 38.75 C 77.949219 38.0625 78.03125 37.3125 76.75 36.5 C 77.988281 35.410156 78.988281 35.574219 79.75 37 C 79.214844 38.339844 79.546875 39.503906 80.75 40.5 C 78.917969 40.667969 77.082031 40.832031 75.25 41 C 74.972656 41.191406 74.804688 41.441406 74.75 41.75 C 71.953125 42.390625 70.121094 44.058594 69.25 46.75 C 70.078125 50.089844 72.242188 51.925781 75.75 52.25 C 77.527344 52.976562 79.277344 52.8125 81 51.75 C 81.332031 50.75 81.332031 49.75 81 48.75 C 80.027344 48.125 79.109375 47.460938 78.25 46.75 C 79.191406 46.296875 80.109375 45.796875 81 45.25 C 81.117188 44.117188 81.367188 43.035156 81.75 42 C 82.582031 41.867188 83.332031 42.117188 84 42.75 C 84.199219 42.636719 84.28125 42.46875 84.25 42.25 C 84.550781 43.09375 85.050781 43.84375 85.75 44.5 C 85.269531 47.042969 84.9375 49.628906 84.75 52.25 C 84.085938 52.976562 83.671875 52.808594 83.5 51.75 C 82.875 53.191406 81.792969 54.105469 80.25 54.5 C 81.238281 54.746094 82.238281 54.832031 83.25 54.75 C 83.390625 56.511719 83.058594 58.179688 82.25 59.75 C 83.253906 61.59375 82.753906 62.59375 80.75 62.75 C 80.832031 64.863281 80.496094 66.863281 79.75 68.75 C 79.011719 68.882812 78.34375 68.714844 77.75 68.25 C 77.371094 66.613281 77.121094 64.945312 77 63.25 C 76.664062 62.875 76.246094 62.707031 75.75 62.75 C 75.789062 62.035156 75.621094 61.367188 75.25 60.75 C 75.621094 60.410156 75.953125 60.074219 76.25 59.75 C 76.878906 59.769531 77.378906 59.519531 77.75 59 C 74.386719 55.488281 70.386719 54.320312 65.75 55.5 C 63.355469 57.058594 61.105469 58.808594 59 60.75 C 56.054688 66.160156 57.140625 70.492188 62.25 73.75 C 59.644531 74.070312 57.226562 74.070312 55 73.75 C 54.921875 72.570312 54.921875 71.40625 55 70.25 C 54.445312 70.855469 53.859375 70.855469 53.25 70.25 C 52.917969 70.917969 52.582031 71.582031 52.25 72.25 C 51.019531 71.140625 50.019531 69.808594 49.25 68.25 C 48.917969 69.082031 48.582031 69.917969 48.25 70.75 C 48.082031 70.667969 47.917969 70.582031 47.75 70.5 C 47.335938 69.554688 47.335938 68.46875 47.75 67.25 C 47.410156 65.769531 46.992188 65.601562 46.5 66.75 C 46.425781 65.214844 46.011719 63.796875 45.25 62.5 C 45.417969 62.332031 45.582031 62.167969 45.75 62 C 44.757812 61.699219 44.59375 61.199219 45.25 60.5 C 44.582031 59.832031 43.917969 59.167969 43.25 58.5 C 43.640625 57.964844 43.554688 57.378906 43 56.75 C 42.078125 56.082031 41.828125 56.167969 42.25 57 C 42 57.25 41.75 57.5 41.5 57.75 C 41.328125 56.574219 40.742188 55.660156 39.75 55 C 40.417969 54.332031 40.417969 53.667969 39.75 53 C 40.082031 52.667969 40.417969 52.332031 40.75 52 C 40.203125 50.96875 40.121094 49.882812 40.5 48.75 C 41.800781 49.050781 42.714844 48.464844 43.25 47 C 42.480469 46.128906 42.0625 45.210938 42 44.25 C 41.5 44.417969 41 44.582031 40.5 44.75 C 39.691406 44.171875 39.691406 43.503906 40.5 42.75 C 40.8125 43.996094 41.230469 43.996094 41.75 42.75 C 42.53125 43.09375 43.367188 43.007812 44.25 42.5 C 43.75 42.332031 43.25 42.167969 42.75 42 C 43.851562 41.632812 44.6875 41.96875 45.25 43 C 44.582031 43.332031 43.917969 43.667969 43.25 44 C 45.25 44.332031 45.25 44.667969 43.25 45 C 43.707031 45.1875 44.125 45.4375 44.5 45.75 C 45.214844 45.652344 45.964844 45.652344 46.75 45.75 C 47.140625 45.136719 47.390625 44.46875 47.5 43.75 C 47.667969 44.082031 47.832031 44.417969 48 44.75 C 48.386719 44.074219 48.96875 43.660156 49.75 43.5 C 49.117188 43.34375 48.535156 43.09375 48 42.75 C 47.832031 42.917969 47.667969 43.082031 47.5 43.25 C 46.464844 42.417969 45.378906 41.667969 44.25 41 C 44.75 40.832031 45.25 40.667969 45.75 40.5 C 45.082031 40.167969 45.082031 39.832031 45.75 39.5 C 44.554688 39.15625 44.554688 38.65625 45.75 38 C 43.796875 36.570312 43.796875 35.238281 45.75 34 C 44.140625 31.949219 42.472656 30.285156 40.75 29 C 40.898438 28.339844 40.984375 27.589844 41 26.75 C 42.027344 26.105469 43.109375 25.605469 44.25 25.25 C 46.089844 25.332031 47.925781 25.25 49.75 25 C 49.152344 24.671875 49.152344 24.421875 49.75 24.25 C 50.46875 24.976562 51.304688 25.476562 52.25 25.75 Z M 52.25 25.75 "/>
<path style=" stroke:none;fill-rule:evenodd;fill:rgb(99.215686%,95.686275%,87.45098%);fill-opacity:1;" d="M 18.75 24.75 C 18.804688 25.058594 18.972656 25.308594 19.25 25.5 C 18.210938 25.597656 17.210938 25.847656 16.25 26.25 C 16.511719 26.597656 16.847656 26.847656 17.25 27 C 16.128906 27.761719 14.964844 28.425781 13.75 29 C 15.167969 30.082031 16.582031 31.167969 18 32.25 C 17.597656 33.585938 17.679688 34.917969 18.25 36.25 C 17.664062 36.140625 17.164062 36.308594 16.75 36.75 C 17.0625 37.855469 17.5625 38.855469 18.25 39.75 C 17.03125 41.457031 16.695312 43.289062 17.25 45.25 C 18.53125 45.097656 19.695312 45.265625 20.75 45.75 C 18.582031 45.75 16.417969 45.75 14.25 45.75 C 11.910156 45.832031 9.578125 45.75 7.25 45.5 C 7.652344 45.347656 7.988281 45.097656 8.25 44.75 C 7.453125 43.46875 6.453125 42.386719 5.25 41.5 C 5.917969 40.167969 5.917969 38.832031 5.25 37.5 C 6.21875 37.046875 6.71875 36.296875 6.75 35.25 C 7.238281 35.007812 7.738281 34.757812 8.25 34.5 C 4.917969 31.5 4.917969 28.5 8.25 25.5 C 11.644531 24.113281 15.144531 23.863281 18.75 24.75 Z M 18.75 24.75 "/>
<path style=" stroke:none;fill-rule:evenodd;fill:rgb(11.372549%,21.568627%,30.196078%);fill-opacity:1;" d="M 87.75 25.75 C 89.429688 25.535156 90.847656 26.035156 92 27.25 C 92.332031 27.917969 92.332031 28.582031 92 29.25 C 90.128906 29.8125 88.210938 29.894531 86.25 29.5 C 85.878906 28.609375 85.546875 27.691406 85.25 26.75 C 86.144531 26.414062 86.980469 26.082031 87.75 25.75 Z M 87.75 25.75 "/>
<path style=" stroke:none;fill-rule:evenodd;fill:rgb(54.509804%,6.27451%,12.54902%);fill-opacity:1;" d="M 71.25 24.75 C 73.003906 25.710938 73.671875 27.210938 73.25 29.25 C 71.84375 29.980469 70.34375 30.480469 68.75 30.75 C 67.070312 30.730469 65.738281 30.0625 64.75 28.75 C 64.480469 27.175781 64.980469 25.925781 66.25 25 C 67.910156 24.75 69.574219 24.667969 71.25 24.75 Z M 71.25 24.75 "/>
<path style=" stroke:none;fill-rule:evenodd;fill:rgb(98.039216%,93.72549%,93.333333%);fill-opacity:1;" d="M 66.75 25.25 C 68.160156 25.125 69.492188 25.375 70.75 26 C 71.410156 29.738281 69.910156 30.738281 66.25 29 C 65.714844 28.628906 65.378906 28.128906 65.25 27.5 C 65.65625 26.679688 66.15625 25.929688 66.75 25.25 Z M 66.75 25.25 "/>
<path style=" stroke:none;fill-rule:evenodd;fill:rgb(37.647059%,82.745098%,82.352941%);fill-opacity:1;" d="M 40.75 24.25 C 42.035156 24.359375 43.199219 24.695312 44.25 25.25 C 43.109375 25.605469 42.027344 26.105469 41 26.75 C 40.984375 27.589844 40.898438 28.339844 40.75 29 C 42.472656 30.285156 44.140625 31.949219 45.75 34 C 43.796875 35.238281 43.796875 36.570312 45.75 38 C 44.554688 38.65625 44.554688 39.15625 45.75 39.5 C 45.082031 39.832031 45.082031 40.167969 45.75 40.5 C 45.25 40.667969 44.75 40.832031 44.25 41 C 45.378906 41.667969 46.464844 42.417969 47.5 43.25 C 47.667969 43.082031 47.832031 42.917969 48 42.75 C 48.535156 43.09375 49.117188 43.34375 49.75 43.5 C 48.96875 43.660156 48.386719 44.074219 48 44.75 C 47.832031 44.417969 47.667969 44.082031 47.5 43.75 C 47.390625 44.46875 47.140625 45.136719 46.75 45.75 C 45.964844 45.652344 45.214844 45.652344 44.5 45.75 C 44.125 45.4375 43.707031 45.1875 43.25 45 C 45.25 44.667969 45.25 44.332031 43.25 44 C 43.917969 43.667969 44.582031 43.332031 45.25 43 C 44.6875 41.96875 43.851562 41.632812 42.75 42 C 43.25 42.167969 43.75 42.332031 44.25 42.5 C 43.367188 43.007812 42.53125 43.09375 41.75 42.75 C 41.230469 43.996094 40.8125 43.996094 40.5 42.75 C 39.691406 43.503906 39.691406 44.171875 40.5 44.75 C 41 44.582031 41.5 44.417969 42 44.25 C 42.0625 45.210938 42.480469 46.128906 43.25 47 C 42.714844 48.464844 41.800781 49.050781 40.5 48.75 C 40.121094 49.882812 40.203125 50.96875 40.75 52 C 40.417969 52.332031 40.082031 52.667969 39.75 53 C 40.417969 53.667969 40.417969 54.332031 39.75 55 C 40.742188 55.660156 41.328125 56.574219 41.5 57.75 C 41.75 57.5 42 57.25 42.25 57 C 41.828125 56.167969 42.078125 56.082031 43 56.75 C 43.554688 57.378906 43.640625 57.964844 43.25 58.5 C 43.917969 59.167969 44.582031 59.832031 45.25 60.5 C 44.59375 61.199219 44.757812 61.699219 45.75 62 C 45.582031 62.167969 45.417969 62.332031 45.25 62.5 C 46.011719 63.796875 46.425781 65.214844 46.5 66.75 C 46.992188 65.601562 47.410156 65.769531 47.75 67.25 C 47.335938 68.46875 47.335938 69.554688 47.75 70.5 C 47.917969 70.582031 48.082031 70.667969 48.25 70.75 C 48.582031 69.917969 48.917969 69.082031 49.25 68.25 C 50.019531 69.808594 51.019531 71.140625 52.25 72.25 C 52.582031 71.582031 52.917969 70.917969 53.25 70.25 C 53.859375 70.855469 54.445312 70.855469 55 70.25 C 54.921875 71.40625 54.921875 72.570312 55 73.75 C 57.226562 74.070312 59.644531 74.070312 62.25 73.75 C 62.75 73.75 63.25 73.75 63.75 73.75 C 65.648438 74.242188 67.648438 74.410156 69.75 74.25 C 69.75 74.75 69.75 75.25 69.75 75.75 C 62.09375 77.085938 54.429688 77.003906 46.75 75.5 C 42.613281 74.027344 39.363281 71.445312 37 67.75 C 35.101562 63.390625 33.601562 58.890625 32.5 54.25 C 31.972656 62.1875 34.722656 68.6875 40.75 73.75 C 40.707031 74.246094 40.875 74.664062 41.25 75 C 40.953125 75.230469 40.621094 75.316406 40.25 75.25 C 39.695312 75.222656 39.195312 75.054688 38.75 74.75 C 38.582031 74.25 38.25 73.917969 37.75 73.75 C 37.804688 73.441406 37.972656 73.191406 38.25 73 C 35.492188 70.070312 33.578125 66.65625 32.5 62.75 C 31.796875 54.4375 31.546875 46.105469 31.75 37.75 C 31.75 37.25 31.75 36.75 31.75 36.25 C 32.492188 33.917969 33.410156 31.582031 34.5 29.25 C 35.929688 26.734375 38.011719 25.066406 40.75 24.25 Z M 40.75 24.25 "/>
<path style=" stroke:none;fill-rule:evenodd;fill:rgb(2.745098%,5.098039%,5.490196%);fill-opacity:1;" d="M 54.75 25.25 C 54.683594 32.121094 57.683594 37.121094 63.75 40.25 C 63.792969 40.746094 63.625 41.164062 63.25 41.5 C 61.445312 41.605469 59.777344 41.105469 58.25 40 C 54.121094 36.160156 52.121094 31.410156 52.25 25.75 C 52.90625 24.699219 53.742188 24.535156 54.75 25.25 Z M 54.75 25.25 "/>
<path style=" stroke:none;fill-rule:evenodd;fill:rgb(72.54902%,65.882353%,60.392157%);fill-opacity:1;" d="M 26.75 26.25 C 26.972656 28.511719 26.722656 30.84375 26 33.25 C 24.820312 34.324219 23.570312 34.488281 22.25 33.75 C 24.257812 34.085938 25.257812 33.25 25.25 31.25 C 24.824219 29.582031 24.574219 27.914062 24.5 26.25 C 25.308594 25.597656 26.058594 25.597656 26.75 26.25 Z M 26.75 26.25 "/>
<path style=" stroke:none;fill-rule:evenodd;fill:rgb(45.882353%,81.568627%,82.745098%);fill-opacity:1;" d="M 66.75 18.25 C 71.523438 18.3125 75.441406 20.144531 78.5 23.75 C 80.414062 28.246094 82.164062 32.746094 83.75 37.25 C 83.808594 38.929688 83.972656 40.597656 84.25 42.25 C 84.28125 42.46875 84.199219 42.636719 84 42.75 C 83.332031 42.117188 82.582031 41.867188 81.75 42 C 81.367188 43.035156 81.117188 44.117188 81 45.25 C 80.109375 45.796875 79.191406 46.296875 78.25 46.75 C 79.109375 47.460938 80.027344 48.125 81 48.75 C 81.332031 49.75 81.332031 50.75 81 51.75 C 79.277344 52.8125 77.527344 52.976562 75.75 52.25 C 77.324219 52.394531 78.824219 52.144531 80.25 51.5 C 80.777344 50.804688 80.859375 50.054688 80.5 49.25 C 78.574219 48.078125 76.492188 47.246094 74.25 46.75 C 75.925781 46.355469 77.589844 45.941406 79.25 45.5 C 80.917969 44.507812 81.085938 43.339844 79.75 42 C 78.089844 41.75 76.425781 41.667969 74.75 41.75 C 74.804688 41.441406 74.972656 41.191406 75.25 41 C 77.082031 40.832031 78.917969 40.667969 80.75 40.5 C 79.546875 39.503906 79.214844 38.339844 79.75 37 C 78.988281 35.574219 77.988281 35.410156 76.75 36.5 C 78.03125 37.3125 77.949219 38.0625 76.5 38.75 C 76.402344 37.808594 76.152344 36.976562 75.75 36.25 C 76.40625 35.261719 77.238281 34.425781 78.25 33.75 C 77.78125 32.679688 77.113281 32.511719 76.25 33.25 C 75.917969 32.75 75.582031 32.25 75.25 31.75 C 76.703125 28.636719 76.453125 25.636719 74.5 22.75 C 71.613281 20.632812 68.363281 19.632812 64.75 19.75 C 65.644531 19.34375 66.644531 19.09375 67.75 19 C 67.292969 18.859375 66.960938 18.609375 66.75 18.25 Z M 66.75 18.25 "/>
<path style=" stroke:none;fill-rule:evenodd;fill:rgb(16.078431%,37.647059%,48.235294%);fill-opacity:1;" d="M 86.75 31.75 C 88.082031 31.75 89.417969 31.75 90.75 31.75 C 90.75 33.082031 90.75 34.417969 90.75 35.75 C 89.582031 35.75 88.417969 35.75 87.25 35.75 C 87.300781 34.382812 87.132812 33.046875 86.75 31.75 Z M 86.75 31.75 "/>
<use xlink:href="#surface20" mask="url(#mask5)"/>
<path style=" stroke:none;fill-rule:evenodd;fill:rgb(6.666667%,10.588235%,12.941176%);fill-opacity:1;" d="M 75.75 36.25 C 74.65625 36.878906 73.488281 37.378906 72.25 37.75 C 72.03125 37.78125 71.863281 37.699219 71.75 37.5 C 73.199219 35.96875 74.699219 34.550781 76.25 33.25 C 77.113281 32.511719 77.78125 32.679688 78.25 33.75 C 77.238281 34.425781 76.40625 35.261719 75.75 36.25 Z M 75.75 36.25 "/>
<path style=" stroke:none;fill-rule:evenodd;fill:rgb(17.254902%,34.117647%,43.137255%);fill-opacity:1;" d="M 91.25 31.75 C 93.90625 31.75 94.90625 33.082031 94.25 35.75 C 93.25 35.75 92.25 35.75 91.25 35.75 C 91.25 34.417969 91.25 33.082031 91.25 31.75 Z M 91.25 31.75 "/>
<path style=" stroke:none;fill-rule:evenodd;fill:rgb(52.156863%,68.235294%,69.803922%);fill-opacity:1;" d="M 75.25 31.75 C 75.582031 32.25 75.917969 32.75 76.25 33.25 C 74.699219 34.550781 73.199219 35.96875 71.75 37.5 C 71.863281 37.699219 72.03125 37.78125 72.25 37.75 C 71.40625 38.910156 70.242188 39.410156 68.75 39.25 C 69.132812 38.867188 69.632812 38.617188 70.25 38.5 C 68.082031 37.917969 65.914062 37.332031 63.75 36.75 C 63.75 36.582031 63.75 36.417969 63.75 36.25 C 66.089844 36.332031 68.421875 36.25 70.75 36 C 72.828125 35.171875 74.328125 33.753906 75.25 31.75 Z M 75.25 31.75 "/>
<path style=" stroke:none;fill-rule:evenodd;fill:rgb(3.137255%,7.058824%,8.235294%);fill-opacity:1;" d="M 63.75 36.75 C 65.914062 37.332031 68.082031 37.917969 70.25 38.5 C 69.632812 38.617188 69.132812 38.867188 68.75 39.25 C 66.457031 39.605469 64.625 38.855469 63.25 37 C 63.363281 36.800781 63.53125 36.71875 63.75 36.75 Z M 63.75 36.75 "/>
<path style=" stroke:none;fill-rule:evenodd;fill:rgb(17.647059%,48.235294%,58.431373%);fill-opacity:1;" d="M 88.25 37.75 C 89.582031 37.75 90.917969 37.75 92.25 37.75 C 92.25 39.25 92.25 40.75 92.25 42.25 C 88.746094 42.757812 87.414062 41.257812 88.25 37.75 Z M 88.25 37.75 "/>
<path style=" stroke:none;fill-rule:evenodd;fill:rgb(23.137255%,47.843137%,57.254902%);fill-opacity:1;" d="M 92.75 37.75 C 93.734375 37.628906 94.652344 37.796875 95.5 38.25 C 95.75 39.574219 95.832031 40.90625 95.75 42.25 C 94.75 42.25 93.75 42.25 92.75 42.25 C 92.75 40.75 92.75 39.25 92.75 37.75 Z M 92.75 37.75 "/>
<path style=" stroke:none;fill-rule:evenodd;fill:rgb(2.745098%,4.313725%,4.705882%);fill-opacity:1;" d="M 74.75 41.75 C 76.425781 41.667969 78.089844 41.75 79.75 42 C 81.085938 43.339844 80.917969 44.507812 79.25 45.5 C 77.589844 45.941406 75.925781 46.355469 74.25 46.75 C 76.492188 47.246094 78.574219 48.078125 80.5 49.25 C 80.859375 50.054688 80.777344 50.804688 80.25 51.5 C 78.824219 52.144531 77.324219 52.394531 75.75 52.25 C 72.242188 51.925781 70.078125 50.089844 69.25 46.75 C 70.121094 44.058594 71.953125 42.390625 74.75 41.75 Z M 74.75 41.75 "/>
<path style=" stroke:none;fill-rule:evenodd;fill:rgb(90.980392%,80.784314%,72.54902%);fill-opacity:1;" d="M 27.75 24.25 C 28.21875 24.785156 28.382812 25.449219 28.25 26.25 C 27.75 26.25 27.25 26.25 26.75 26.25 C 26.058594 25.597656 25.308594 25.597656 24.5 26.25 C 24.574219 27.914062 24.824219 29.582031 25.25 31.25 C 25.257812 33.25 24.257812 34.085938 22.25 33.75 C 21.722656 33.675781 21.222656 33.757812 20.75 34 C 21.382812 35.191406 22.296875 36.109375 23.5 36.75 C 23.75 37.90625 23.832031 39.070312 23.75 40.25 C 21.929688 40.539062 20.09375 40.789062 18.25 41 C 20.082031 41.5 21.917969 42 23.75 42.5 C 24.613281 43.394531 24.949219 44.476562 24.75 45.75 C 23.417969 45.75 22.082031 45.75 20.75 45.75 C 19.695312 45.265625 18.53125 45.097656 17.25 45.25 C 16.695312 43.289062 17.03125 41.457031 18.25 39.75 C 17.5625 38.855469 17.0625 37.855469 16.75 36.75 C 17.164062 36.308594 17.664062 36.140625 18.25 36.25 C 17.679688 34.917969 17.597656 33.585938 18 32.25 C 16.582031 31.167969 15.167969 30.082031 13.75 29 C 14.964844 28.425781 16.128906 27.761719 17.25 27 C 16.847656 26.847656 16.511719 26.597656 16.25 26.25 C 17.210938 25.847656 18.210938 25.597656 19.25 25.5 C 18.972656 25.308594 18.804688 25.058594 18.75 24.75 C 21.054688 24.667969 23.386719 24.835938 25.75 25.25 C 26.417969 25.167969 27.082031 25.082031 27.75 25 C 27.128906 24.65625 27.128906 24.40625 27.75 24.25 Z M 27.75 24.25 "/>
<path style=" stroke:none;fill-rule:evenodd;fill:rgb(15.686275%,35.294118%,43.137255%);fill-opacity:1;" d="M 95.75 46.25 C 93.632812 46.71875 91.464844 46.882812 89.25 46.75 C 89.25 45.917969 89.25 45.082031 89.25 44.25 C 91.417969 44.25 93.582031 44.25 95.75 44.25 C 95.75 44.917969 95.75 45.582031 95.75 46.25 Z M 95.75 46.25 "/>
<path style=" stroke:none;fill-rule:evenodd;fill:rgb(19.215686%,48.235294%,53.333333%);fill-opacity:1;" d="M 31.75 36.25 C 31.75 36.75 31.75 37.25 31.75 37.75 C 31.070312 44.15625 30.738281 50.65625 30.75 57.25 C 29.777344 51.480469 29.609375 45.648438 30.25 39.75 C 30.492188 38.460938 30.992188 37.292969 31.75 36.25 Z M 31.75 36.25 "/>
<path style=" stroke:none;fill-rule:evenodd;fill:rgb(18.823529%,46.27451%,55.294118%);fill-opacity:1;" d="M 95.75 46.25 C 95.75 47.75 95.75 49.25 95.75 50.75 C 93.417969 50.75 91.082031 50.75 88.75 50.75 C 88.789062 49.398438 88.953125 48.0625 89.25 46.75 C 91.464844 46.882812 93.632812 46.71875 95.75 46.25 Z M 95.75 46.25 "/>
<path style=" stroke:none;fill-rule:evenodd;fill:rgb(97.647059%,93.72549%,86.27451%);fill-opacity:1;" d="M 6.75 35.25 C 6.71875 36.296875 6.21875 37.046875 5.25 37.5 C 5.917969 38.832031 5.917969 40.167969 5.25 41.5 C 6.453125 42.386719 7.453125 43.46875 8.25 44.75 C 7.988281 45.097656 7.652344 45.347656 7.25 45.5 C 9.578125 45.75 11.910156 45.832031 14.25 45.75 C 14.195312 46.058594 14.027344 46.308594 13.75 46.5 C 15.074219 46.75 16.40625 46.832031 17.75 46.75 C 17.15625 47.34375 17.15625 47.925781 17.75 48.5 C 17.03125 48.609375 16.363281 48.859375 15.75 49.25 C 17 50.421875 18 51.753906 18.75 53.25 C 19.101562 54.851562 19.433594 56.433594 19.75 58 C 18.96875 58.378906 18.46875 58.964844 18.25 59.75 C 16.066406 60.945312 14.734375 62.777344 14.25 65.25 C 17.117188 64.765625 19.285156 65.765625 20.75 68.25 C 23.023438 68.726562 25.273438 69.226562 27.5 69.75 C 27.691406 69.472656 27.941406 69.304688 28.25 69.25 C 27.917969 70.417969 27.582031 71.582031 27.25 72.75 C 25.839844 73.710938 24.507812 74.792969 23.25 76 C 24.09375 77.378906 24.757812 78.628906 25.25 79.75 C 26.398438 79.183594 27.484375 78.515625 28.5 77.75 C 29.046875 79.015625 29.628906 80.265625 30.25 81.5 C 30.011719 82.351562 29.929688 83.269531 30 84.25 C 28.453125 84.816406 27.035156 85.566406 25.75 86.5 C 26.074219 87.21875 26.242188 87.96875 26.25 88.75 C 23.792969 86.902344 22.460938 84.402344 22.25 81.25 C 19.070312 81 16.320312 79.832031 14 77.75 C 13.667969 75.75 13.667969 73.75 14 71.75 C 15.015625 70.632812 16.265625 69.882812 17.75 69.5 C 13.488281 70.605469 9.902344 69.523438 7 66.25 C 5.113281 63.164062 5.527344 60.414062 8.25 58 C 6.53125 57.363281 5.199219 56.28125 4.25 54.75 C 2.460938 51.355469 3.128906 48.523438 6.25 46.25 C 5.070312 45.488281 4.15625 44.488281 3.5 43.25 C 2.519531 39.714844 3.605469 37.046875 6.75 35.25 Z M 6.75 35.25 "/>
<path style=" stroke:none;fill-rule:evenodd;fill:rgb(17.647059%,45.882353%,52.156863%);fill-opacity:1;" d="M 83.75 37.25 C 84.355469 37.617188 85.019531 37.785156 85.75 37.75 C 85.914062 38.742188 86.078125 39.742188 86.25 40.75 C 86.144531 41.496094 85.8125 42.082031 85.25 42.5 C 85.605469 43.128906 86.023438 43.710938 86.5 44.25 C 86.75 46.410156 86.832031 48.578125 86.75 50.75 C 86.25 50.75 85.75 50.75 85.25 50.75 C 85.566406 51.734375 85.898438 52.734375 86.25 53.75 C 86.078125 54.757812 85.914062 55.757812 85.75 56.75 C 85.25 56.75 84.75 56.75 84.25 56.75 C 84.351562 55.242188 84.519531 53.742188 84.75 52.25 C 84.9375 49.628906 85.269531 47.042969 85.75 44.5 C 85.050781 43.84375 84.550781 43.09375 84.25 42.25 C 83.972656 40.597656 83.808594 38.929688 83.75 37.25 Z M 83.75 37.25 "/>
<path style=" stroke:none;fill-rule:evenodd;fill:rgb(87.45098%,78.039216%,69.803922%);fill-opacity:1;" d="M 17.75 46.75 C 20.105469 46.585938 22.441406 46.753906 24.75 47.25 C 24.433594 50.316406 22.765625 52.234375 19.75 53 C 21.242188 53.25 22.742188 53.332031 24.25 53.25 C 24.25 54.917969 24.25 56.582031 24.25 58.25 C 22.179688 58.453125 20.179688 58.953125 18.25 59.75 C 18.46875 58.964844 18.96875 58.378906 19.75 58 C 19.433594 56.433594 19.101562 54.851562 18.75 53.25 C 18 51.753906 17 50.421875 15.75 49.25 C 16.363281 48.859375 17.03125 48.609375 17.75 48.5 C 17.15625 47.925781 17.15625 47.34375 17.75 46.75 Z M 17.75 46.75 "/>
<path style=" stroke:none;fill-rule:evenodd;fill:rgb(36.470588%,38.823529%,42.745098%);fill-opacity:1;" d="M 26.75 26.25 C 27.25 26.25 27.75 26.25 28.25 26.25 C 28.25 26.417969 28.25 26.582031 28.25 26.75 C 29.113281 27.320312 29.613281 28.152344 29.75 29.25 C 29.414062 30.921875 29.082031 32.589844 28.75 34.25 C 28.164062 34.140625 27.664062 34.308594 27.25 34.75 C 27.820312 35.558594 28.15625 36.476562 28.25 37.5 C 27.828125 44.5 27.660156 51.417969 27.75 58.25 C 26.582031 58.25 25.417969 58.25 24.25 58.25 C 24.25 56.582031 24.25 54.917969 24.25 53.25 C 22.742188 53.332031 21.242188 53.25 19.75 53 C 22.765625 52.234375 24.433594 50.316406 24.75 47.25 C 22.441406 46.753906 20.105469 46.585938 17.75 46.75 C 16.40625 46.832031 15.074219 46.75 13.75 46.5 C 14.027344 46.308594 14.195312 46.058594 14.25 45.75 C 16.417969 45.75 18.582031 45.75 20.75 45.75 C 22.082031 45.75 23.417969 45.75 24.75 45.75 C 24.949219 44.476562 24.613281 43.394531 23.75 42.5 C 21.917969 42 20.082031 41.5 18.25 41 C 20.09375 40.789062 21.929688 40.539062 23.75 40.25 C 23.832031 39.070312 23.75 37.90625 23.5 36.75 C 22.296875 36.109375 21.382812 35.191406 20.75 34 C 21.222656 33.757812 21.722656 33.675781 22.25 33.75 C 23.570312 34.488281 24.820312 34.324219 26 33.25 C 26.722656 30.84375 26.972656 28.511719 26.75 26.25 Z M 26.75 26.25 "/>
<path style=" stroke:none;fill-rule:evenodd;fill:rgb(38.431373%,68.627451%,69.019608%);fill-opacity:1;" d="M 93.75 52.25 C 94.417969 52.25 95.082031 52.25 95.75 52.25 C 96.46875 55.058594 95.46875 56.726562 92.75 57.25 C 92.769531 55.507812 93.101562 53.839844 93.75 52.25 Z M 93.75 52.25 "/>
<path style=" stroke:none;fill-rule:evenodd;fill:rgb(3.137255%,4.705882%,4.313725%);fill-opacity:1;" d="M 60.75 52.25 C 61.417969 52.25 62.082031 52.25 62.75 52.25 C 62.882812 52.988281 62.714844 53.65625 62.25 54.25 C 56.410156 57.769531 53.910156 62.933594 54.75 69.75 C 53.117188 69.785156 52.367188 68.949219 52.5 67.25 C 52 60.417969 54.75 55.417969 60.75 52.25 Z M 60.75 52.25 "/>
<path style=" stroke:none;fill-rule:evenodd;fill:rgb(39.607843%,69.803922%,70.196078%);fill-opacity:1;" d="M 31.75 37.75 C 31.546875 46.105469 31.796875 54.4375 32.5 62.75 C 33.578125 66.65625 35.492188 70.070312 38.25 73 C 37.972656 73.191406 37.804688 73.441406 37.75 73.75 C 33.105469 69.285156 30.773438 63.785156 30.75 57.25 C 30.738281 50.65625 31.070312 44.15625 31.75 37.75 Z M 31.75 37.75 "/>
<path style=" stroke:none;fill-rule:evenodd;fill:rgb(83.137255%,96.078431%,95.294118%);fill-opacity:1;" d="M 69.75 75.75 C 72.785156 75.292969 75.617188 74.292969 78.25 72.75 C 78.875 73.503906 78.875 74.253906 78.25 75 C 75.441406 76.570312 72.441406 77.570312 69.25 78 C 70.84375 77.941406 72.34375 78.027344 73.75 78.25 C 72.273438 78.578125 70.773438 78.746094 69.25 78.75 C 62.417969 78.460938 55.585938 78.042969 48.75 77.5 C 45.859375 76.636719 43.191406 75.386719 40.75 73.75 C 34.722656 68.6875 31.972656 62.1875 32.5 54.25 C 33.601562 58.890625 35.101562 63.390625 37 67.75 C 39.363281 71.445312 42.613281 74.027344 46.75 75.5 C 54.429688 77.003906 62.09375 77.085938 69.75 75.75 Z M 69.75 75.75 "/>
<path style=" stroke:none;fill-rule:evenodd;fill:rgb(47.45098%,81.960784%,81.568627%);fill-opacity:1;" d="M 84.75 52.25 C 84.519531 53.742188 84.351562 55.242188 84.25 56.75 C 83.691406 58.648438 83.359375 60.648438 83.25 62.75 C 83.179688 63.5625 83.511719 64.144531 84.25 64.5 C 83.070312 67.203125 81.988281 69.953125 81 72.75 C 79.367188 75.632812 76.953125 77.464844 73.75 78.25 C 72.34375 78.027344 70.84375 77.941406 69.25 78 C 72.441406 77.570312 75.441406 76.570312 78.25 75 C 78.875 74.253906 78.875 73.503906 78.25 72.75 C 75.617188 74.292969 72.785156 75.292969 69.75 75.75 C 69.75 75.25 69.75 74.75 69.75 74.25 C 67.648438 74.410156 65.648438 74.242188 63.75 73.75 C 67.386719 74.203125 70.71875 73.453125 73.75 71.5 C 76.136719 68.992188 76.804688 66.074219 75.75 62.75 C 76.246094 62.707031 76.664062 62.875 77 63.25 C 77.121094 64.945312 77.371094 66.613281 77.75 68.25 C 78.34375 68.714844 79.011719 68.882812 79.75 68.75 C 80.496094 66.863281 80.832031 64.863281 80.75 62.75 C 82.753906 62.59375 83.253906 61.59375 82.25 59.75 C 83.058594 58.179688 83.390625 56.511719 83.25 54.75 C 82.238281 54.832031 81.238281 54.746094 80.25 54.5 C 81.792969 54.105469 82.875 53.191406 83.5 51.75 C 83.671875 52.808594 84.085938 52.976562 84.75 52.25 Z M 84.75 52.25 "/>
<use xlink:href="#surface23" mask="url(#mask6)"/>
<path style=" stroke:none;fill-rule:evenodd;fill:rgb(51.764706%,52.941176%,54.117647%);fill-opacity:1;" d="M 32.25 73.25 C 32.992188 74.125 33.492188 75.125 33.75 76.25 C 33.566406 76.847656 33.152344 77.179688 32.5 77.25 C 31.835938 76.601562 31.171875 75.933594 30.5 75.25 C 30.164062 75.625 29.746094 75.792969 29.25 75.75 C 29.191406 72.871094 28.691406 70.203125 27.75 67.75 C 27.75 67.582031 27.75 67.417969 27.75 67.25 C 28.789062 67.1875 29.539062 66.6875 30 65.75 C 31.464844 68.730469 31.628906 71.730469 30.5 74.75 C 31.019531 74.144531 31.601562 73.644531 32.25 73.25 Z M 32.25 73.25 "/>
<path style=" stroke:none;fill-rule:evenodd;fill:rgb(51.372549%,67.058824%,69.411765%);fill-opacity:1;" d="M 86.25 64.25 C 87.25 64.25 88.25 64.25 89.25 64.25 C 89.175781 64.777344 89.257812 65.277344 89.5 65.75 C 90.222656 64.921875 91.140625 64.589844 92.25 64.75 C 92.585938 67.5 91.417969 68.582031 88.75 68 C 89.257812 67.476562 89.34375 66.890625 89 66.25 C 88.355469 67.574219 87.273438 68.074219 85.75 67.75 C 85.722656 66.546875 85.890625 65.382812 86.25 64.25 Z M 86.25 64.25 "/>
<path style=" stroke:none;fill-rule:evenodd;fill:rgb(94.901961%,85.882353%,76.470588%);fill-opacity:1;" d="M 18.25 59.75 C 18.605469 60.203125 19.105469 60.367188 19.75 60.25 C 22.667969 60.875 24.5 62.625 25.25 65.5 C 25.253906 66.40625 24.921875 67.15625 24.25 67.75 C 25.636719 68.257812 26.972656 68.757812 28.25 69.25 C 27.941406 69.304688 27.691406 69.472656 27.5 69.75 C 25.273438 69.226562 23.023438 68.726562 20.75 68.25 C 19.285156 65.765625 17.117188 64.765625 14.25 65.25 C 14.734375 62.777344 16.066406 60.945312 18.25 59.75 Z M 18.25 59.75 "/>
<path style=" stroke:none;fill-rule:evenodd;fill:rgb(41.960784%,47.058824%,50.196078%);fill-opacity:1;" d="M 22.75 59.75 C 23.460938 59.273438 24.292969 59.109375 25.25 59.25 C 26.417969 59.25 27.582031 59.25 28.75 59.25 C 28.921875 61.113281 29.253906 62.949219 29.75 64.75 C 28.992188 65.59375 28.15625 66.34375 27.25 67 C 27.363281 67.199219 27.53125 67.28125 27.75 67.25 C 27.75 67.417969 27.75 67.582031 27.75 67.75 C 26.902344 67.828125 26.066406 67.746094 25.25 67.5 C 25.652344 67.347656 25.988281 67.097656 26.25 66.75 C 25.875 65.113281 25.625 63.445312 25.5 61.75 C 24.320312 61.648438 23.402344 60.980469 22.75 59.75 Z M 22.75 59.75 "/>
<path style=" stroke:none;fill-rule:evenodd;fill:rgb(41.568627%,68.235294%,72.54902%);fill-opacity:1;" d="M 92.25 58.75 C 93.144531 58.609375 93.976562 58.773438 94.75 59.25 C 94.644531 61.945312 93.3125 63.027344 90.75 62.5 C 91.203125 61.652344 91.371094 60.734375 91.25 59.75 C 91.582031 59.417969 91.917969 59.082031 92.25 58.75 Z M 92.25 58.75 "/>
<path style=" stroke:none;fill-rule:evenodd;fill:rgb(38.039216%,71.372549%,75.686275%);fill-opacity:1;" d="M 90.75 58.75 C 90.710938 60.101562 90.546875 61.4375 90.25 62.75 C 89.082031 62.75 87.917969 62.75 86.75 62.75 C 86.789062 61.398438 86.953125 60.0625 87.25 58.75 C 88.417969 58.75 89.582031 58.75 90.75 58.75 Z M 90.75 58.75 "/>
<path style=" stroke:none;fill-rule:evenodd;fill:rgb(27.45098%,59.215686%,63.529412%);fill-opacity:1;" d="M 84.25 56.75 C 84.476562 57.683594 84.8125 58.601562 85.25 59.5 C 84.960938 60.570312 84.796875 61.652344 84.75 62.75 C 84.25 62.75 83.75 62.75 83.25 62.75 C 83.359375 60.648438 83.691406 58.648438 84.25 56.75 Z M 84.25 56.75 "/>
<path style=" stroke:none;fill-rule:evenodd;fill:rgb(53.72549%,74.509804%,74.117647%);fill-opacity:1;" d="M 76.25 59.75 C 75.953125 60.074219 75.621094 60.410156 75.25 60.75 C 75.621094 61.367188 75.789062 62.035156 75.75 62.75 C 74.039062 58.558594 70.875 56.640625 66.25 57 C 70.324219 55.117188 73.65625 56.03125 76.25 59.75 Z M 76.25 59.75 "/>
<path style=" stroke:none;fill-rule:evenodd;fill:rgb(27.058824%,23.921569%,22.745098%);fill-opacity:1;" d="M 24.25 58.25 C 25.417969 58.25 26.582031 58.25 27.75 58.25 C 26.917969 58.582031 26.082031 58.917969 25.25 59.25 C 24.292969 59.109375 23.460938 59.273438 22.75 59.75 C 21.632812 59.601562 20.632812 59.769531 19.75 60.25 C 19.105469 60.367188 18.605469 60.203125 18.25 59.75 C 20.179688 58.953125 22.179688 58.453125 24.25 58.25 Z M 24.25 58.25 "/>
<path style=" stroke:none;fill-rule:evenodd;fill:rgb(4.705882%,3.529412%,4.313725%);fill-opacity:1;" d="M 76.25 59.75 C 73.65625 56.03125 70.324219 55.117188 66.25 57 C 70.875 56.640625 74.039062 58.558594 75.75 62.75 C 76.804688 66.074219 76.136719 68.992188 73.75 71.5 C 70.71875 73.453125 67.386719 74.203125 63.75 73.75 C 63.25 73.75 62.75 73.75 62.25 73.75 C 57.140625 70.492188 56.054688 66.160156 59 60.75 C 61.105469 58.808594 63.355469 57.058594 65.75 55.5 C 70.386719 54.320312 74.386719 55.488281 77.75 59 C 77.378906 59.519531 76.878906 59.769531 76.25 59.75 Z M 76.25 59.75 "/>
<path style=" stroke:none;fill-rule:evenodd;fill:rgb(59.215686%,6.666667%,16.470588%);fill-opacity:1;" d="M 65.75 62.75 C 67.589844 62.667969 69.425781 62.75 71.25 63 C 73.808594 66.632812 72.890625 68.714844 68.5 69.25 C 64.277344 68.472656 63.359375 66.304688 65.75 62.75 Z M 65.75 62.75 "/>
<path style=" stroke:none;fill-rule:evenodd;fill:rgb(98.039216%,94.901961%,94.901961%);fill-opacity:1;" d="M 66.75 63.75 C 68.503906 63.496094 70.085938 63.828125 71.5 64.75 C 71.8125 66.941406 70.8125 68.109375 68.5 68.25 C 65.058594 67.617188 64.476562 66.117188 66.75 63.75 Z M 66.75 63.75 "/>
<path style=" stroke:none;fill-rule:evenodd;fill:rgb(30.588235%,70.196078%,71.764706%);fill-opacity:1;" d="M 91.75 56.25 C 91.75 56.582031 91.582031 56.75 91.25 56.75 C 90.082031 56.75 88.917969 56.75 87.75 56.75 C 87.789062 55.398438 87.953125 54.0625 88.25 52.75 C 89.582031 52.75 90.917969 52.75 92.25 52.75 C 92.164062 53.929688 91.996094 55.097656 91.75 56.25 Z M 91.75 56.25 "/>
<path style=" stroke:none;fill-rule:evenodd;fill:rgb(78.823529%,71.764706%,65.490196%);fill-opacity:1;" d="M 19.75 60.25 C 20.632812 59.769531 21.632812 59.601562 22.75 59.75 C 23.402344 60.980469 24.320312 61.648438 25.5 61.75 C 25.625 63.445312 25.875 65.113281 26.25 66.75 C 25.988281 67.097656 25.652344 67.347656 25.25 67.5 C 26.066406 67.746094 26.902344 67.828125 27.75 67.75 C 28.691406 70.203125 29.191406 72.871094 29.25 75.75 C 29.25 76.082031 29.25 76.417969 29.25 76.75 C 28.0625 75.710938 27.398438 74.378906 27.25 72.75 C 27.582031 71.582031 27.917969 70.417969 28.25 69.25 C 26.972656 68.757812 25.636719 68.257812 24.25 67.75 C 24.921875 67.15625 25.253906 66.40625 25.25 65.5 C 24.5 62.625 22.667969 60.875 19.75 60.25 Z M 19.75 60.25 "/>
<path style=" stroke:none;fill-rule:evenodd;fill:rgb(70.980392%,82.352941%,82.352941%);fill-opacity:1;" d="M 40.75 73.75 C 43.191406 75.386719 45.859375 76.636719 48.75 77.5 C 55.585938 78.042969 62.417969 78.460938 69.25 78.75 C 62.835938 79.328125 56.335938 79.414062 49.75 79 C 46.203125 78.554688 43.039062 77.304688 40.25 75.25 C 40.621094 75.316406 40.953125 75.230469 41.25 75 C 40.875 74.664062 40.707031 74.246094 40.75 73.75 Z M 40.75 73.75 "/>
<use xlink:href="#surface26" mask="url(#mask7)"/>
<path style=" stroke:none;fill-rule:evenodd;fill:rgb(45.490196%,43.529412%,43.529412%);fill-opacity:1;" d="M 36.25 75.25 C 37.996094 76.707031 39.828125 78.039062 41.75 79.25 C 41.03125 79.957031 40.53125 80.789062 40.25 81.75 C 39.917969 81.75 39.582031 81.75 39.25 81.75 C 38.941406 81.695312 38.691406 81.527344 38.5 81.25 C 37.832031 81.917969 37.167969 82.582031 36.5 83.25 C 36.289062 82.664062 35.957031 82.164062 35.5 81.75 C 35.332031 79.75 35.167969 77.75 35 75.75 C 34.421875 75.21875 34.003906 75.382812 33.75 76.25 C 33.492188 75.125 32.992188 74.125 32.25 73.25 C 32.40625 72.761719 32.738281 72.425781 33.25 72.25 C 34.09375 73.425781 35.09375 74.425781 36.25 75.25 Z M 36.25 75.25 "/>
<path style=" stroke:none;fill-rule:evenodd;fill:rgb(43.529412%,48.235294%,50.196078%);fill-opacity:1;" d="M 46.75 80.75 C 47.929688 81.089844 49.097656 81.503906 50.25 82 C 49.1875 82.5625 48.269531 83.3125 47.5 84.25 C 47.28125 83.066406 47.03125 81.902344 46.75 80.75 Z M 46.75 80.75 "/>
<path style=" stroke:none;fill-rule:evenodd;fill:rgb(28.235294%,63.921569%,69.411765%);fill-opacity:1;" d="M 72.75 86.25 C 72.695312 85.941406 72.527344 85.691406 72.25 85.5 C 68.40625 85.472656 65.074219 84.222656 62.25 81.75 C 66.773438 81.988281 71.1875 81.488281 75.5 80.25 C 75.53125 82.6875 74.613281 84.6875 72.75 86.25 Z M 72.75 86.25 "/>
<use xlink:href="#surface29" mask="url(#mask8)"/>
<path style=" stroke:none;fill-rule:evenodd;fill:rgb(65.098039%,58.823529%,55.294118%);fill-opacity:1;" d="M 33.75 76.25 C 34.003906 75.382812 34.421875 75.21875 35 75.75 C 35.167969 77.75 35.332031 79.75 35.5 81.75 C 35.957031 82.164062 36.289062 82.664062 36.5 83.25 C 37.167969 82.582031 37.832031 81.917969 38.5 81.25 C 38.691406 81.527344 38.941406 81.695312 39.25 81.75 C 38.457031 83.195312 37.707031 84.695312 37 86.25 C 36.140625 86.933594 35.222656 87.433594 34.25 87.75 C 33.917969 87.75 33.582031 87.75 33.25 87.75 C 34.601562 84.550781 35.015625 81.21875 34.5 77.75 C 34 78.582031 33.5 79.417969 33 80.25 C 32.753906 79.433594 32.667969 78.597656 32.75 77.75 C 31.539062 77.5625 30.371094 77.226562 29.25 76.75 C 29.25 76.417969 29.25 76.082031 29.25 75.75 C 29.746094 75.792969 30.164062 75.625 30.5 75.25 C 31.171875 75.933594 31.835938 76.601562 32.5 77.25 C 33.152344 77.179688 33.566406 76.847656 33.75 76.25 Z M 33.75 76.25 "/>
<path style=" stroke:none;fill-rule:evenodd;fill:rgb(73.333333%,67.45098%,62.352941%);fill-opacity:1;" d="M 41.75 79.25 C 45.289062 79.746094 46.539062 81.746094 45.5 85.25 C 45.113281 88.386719 43.363281 90.054688 40.25 90.25 C 40.890625 88.800781 41.390625 87.300781 41.75 85.75 C 41.527344 84.304688 41.027344 82.972656 40.25 81.75 C 40.53125 80.789062 41.03125 79.957031 41.75 79.25 Z M 41.75 79.25 "/>
<path style=" stroke:none;fill-rule:evenodd;fill:rgb(92.941176%,84.705882%,77.254902%);fill-opacity:1;" d="M 27.25 72.75 C 27.398438 74.378906 28.0625 75.710938 29.25 76.75 C 30.371094 77.226562 31.539062 77.5625 32.75 77.75 C 32.667969 78.597656 32.753906 79.433594 33 80.25 C 33.5 79.417969 34 78.582031 34.5 77.75 C 35.015625 81.21875 34.601562 84.550781 33.25 87.75 C 31.523438 88.296875 29.773438 88.796875 28 89.25 C 27.371094 89.175781 26.789062 89.007812 26.25 88.75 C 26.242188 87.96875 26.074219 87.21875 25.75 86.5 C 27.035156 85.566406 28.453125 84.816406 30 84.25 C 29.929688 83.269531 30.011719 82.351562 30.25 81.5 C 29.628906 80.265625 29.046875 79.015625 28.5 77.75 C 27.484375 78.515625 26.398438 79.183594 25.25 79.75 C 24.757812 78.628906 24.09375 77.378906 23.25 76 C 24.507812 74.792969 25.839844 73.710938 27.25 72.75 Z M 27.25 72.75 "/>
<path style=" stroke:none;fill-rule:evenodd;fill:rgb(95.294118%,87.058824%,78.039216%);fill-opacity:1;" d="M 39.25 81.75 C 39.582031 81.75 39.917969 81.75 40.25 81.75 C 41.027344 82.972656 41.527344 84.304688 41.75 85.75 C 41.390625 87.300781 40.890625 88.800781 40.25 90.25 C 37.757812 90.5 35.757812 89.667969 34.25 87.75 C 35.222656 87.433594 36.140625 86.933594 37 86.25 C 37.707031 84.695312 38.457031 83.195312 39.25 81.75 Z M 39.25 81.75 "/>
<path style=" stroke:none;fill-rule:evenodd;fill:rgb(50.196078%,84.313725%,85.882353%);fill-opacity:1;" d="M 62.25 81.75 C 65.074219 84.222656 68.40625 85.472656 72.25 85.5 C 72.527344 85.691406 72.695312 85.941406 72.75 86.25 C 71.941406 87.492188 70.773438 88.242188 69.25 88.5 C 63.808594 89.300781 60.476562 87.050781 59.25 81.75 C 60.25 81.75 61.25 81.75 62.25 81.75 Z M 62.25 81.75 "/>
</g>
</svg>
