<?xml version="1.0" encoding="UTF-8"?>
<svg xmlns="http://www.w3.org/2000/svg" xmlns:xlink="http://www.w3.org/1999/xlink" width="px" height="px" viewBox="0 0 100 99" version="1.1">
<defs>
<filter id="alpha" filterUnits="objectBoundingBox" x="0%" y="0%" width="100%" height="100%">
  <feColorMatrix type="matrix" in="SourceGraphic" values="0 0 0 0 1 0 0 0 0 1 0 0 0 0 1 0 0 0 1 0"/>
</filter>
<mask id="mask0">
  <g filter="url(#alpha)">
<rect x="0" y="0" width="100" height="99" style="fill:rgb(0%,0%,0%);fill-opacity:0.0431373;stroke:none;"/>
  </g>
</mask>
<clipPath id="clip1">
  <rect x="0" y="0" width="100" height="99"/>
</clipPath>
<g id="surface5" clip-path="url(#clip1)">
<path style=" stroke:none;fill-rule:evenodd;fill:rgb(12.156863%,16.078431%,21.960784%);fill-opacity:1;" d="M 34.75 -0.25 C 34.917969 -0.25 35.082031 -0.25 35.25 -0.25 C 35.535156 0.488281 35.953125 1.152344 36.5 1.75 C 40.300781 0.425781 44.050781 0.425781 47.75 1.75 C 44.246094 1.667969 40.746094 1.75 37.25 2 C 36.300781 2.652344 35.300781 2.984375 34.25 3 C 35.707031 0.921875 35.039062 0.171875 32.25 0.75 C 33.082031 0.417969 33.917969 0.0820312 34.75 -0.25 Z M 34.75 -0.25 "/>
</g>
<mask id="mask1">
  <g filter="url(#alpha)">
<rect x="0" y="0" width="100" height="99" style="fill:rgb(0%,0%,0%);fill-opacity:0.211765;stroke:none;"/>
  </g>
</mask>
<clipPath id="clip2">
  <rect x="0" y="0" width="100" height="99"/>
</clipPath>
<g id="surface8" clip-path="url(#clip2)">
<path style=" stroke:none;fill-rule:evenodd;fill:rgb(13.333333%,16.862745%,24.313725%);fill-opacity:1;" d="M 32.25 0.75 C 18.386719 5.195312 8.972656 14.359375 4 28.25 C 1.441406 36.042969 0.359375 44.042969 0.75 52.25 C 0.417969 51.25 0.0820312 50.25 -0.25 49.25 C -0.25 46.917969 -0.25 44.582031 -0.25 42.25 C 1.144531 29.367188 6.476562 18.117188 15.75 8.5 C 19.078125 5.667969 22.746094 3.332031 26.75 1.5 C 28.542969 0.945312 30.375 0.695312 32.25 0.75 Z M 32.25 0.75 "/>
</g>
<mask id="mask2">
  <g filter="url(#alpha)">
<rect x="0" y="0" width="100" height="99" style="fill:rgb(0%,0%,0%);fill-opacity:0.992157;stroke:none;"/>
  </g>
</mask>
<clipPath id="clip3">
  <rect x="0" y="0" width="100" height="99"/>
</clipPath>
<g id="surface11" clip-path="url(#clip3)">
<path style=" stroke:none;fill-rule:evenodd;fill:rgb(4.705882%,1.568627%,2.745098%);fill-opacity:1;" d="M 32.25 0.75 C 35.039062 0.171875 35.707031 0.921875 34.25 3 C 35.300781 2.984375 36.300781 2.652344 37.25 2 C 40.746094 1.75 44.246094 1.667969 47.75 1.75 C 52.253906 3.492188 56.339844 5.992188 60 9.25 C 63.8125 6.445312 67.894531 6.027344 72.25 8 C 75.609375 10.132812 77.359375 13.214844 77.5 17.25 C 78.074219 17.816406 78.65625 18.316406 79.25 18.75 C 79.292969 19.246094 79.125 19.664062 78.75 20 C 80.09375 21.109375 80.761719 22.359375 80.75 23.75 C 80.417969 23.417969 80.082031 23.082031 79.75 22.75 C 78.996094 20.910156 77.660156 19.660156 75.75 19 C 73.613281 18.460938 71.449219 18.210938 69.25 18.25 C 68.867188 17.867188 68.367188 17.617188 67.75 17.5 C 63.082031 17.332031 58.417969 17.167969 53.75 17 C 55.679688 16.910156 57.511719 16.660156 59.25 16.25 C 60.460938 16.402344 61.628906 16.238281 62.75 15.75 C 62.097656 14.269531 61.097656 13.101562 59.75 12.25 C 53.023438 4.199219 44.6875 1.785156 34.75 5 C 33.953125 5.472656 33.285156 6.058594 32.75 6.75 C 31.621094 7.207031 30.621094 7.875 29.75 8.75 C 29.445312 8.6875 29.28125 8.523438 29.25 8.25 C 29.703125 7.183594 30.285156 6.183594 31 5.25 C 31.390625 4.527344 31.308594 3.863281 30.75 3.25 C 15.746094 9.242188 6.910156 20.242188 4.25 36.25 C 2.339844 44.65625 2.257812 53.15625 4 61.75 C 4.617188 63.859375 5.367188 65.859375 6.25 67.75 C 6.648438 69.613281 7.148438 71.445312 7.75 73.25 C 6.519531 70.507812 4.851562 68.007812 2.75 65.75 C 1.28125 61.433594 0.613281 56.933594 0.75 52.25 C 0.359375 44.042969 1.441406 36.042969 4 28.25 C 8.972656 14.359375 18.386719 5.195312 32.25 0.75 Z M 32.25 0.75 "/>
</g>
<mask id="mask3">
  <g filter="url(#alpha)">
<rect x="0" y="0" width="100" height="99" style="fill:rgb(0%,0%,0%);fill-opacity:0.996078;stroke:none;"/>
  </g>
</mask>
<clipPath id="clip4">
  <rect x="0" y="0" width="100" height="99"/>
</clipPath>
<g id="surface14" clip-path="url(#clip4)">
<path style=" stroke:none;fill-rule:evenodd;fill:rgb(4.313725%,3.137255%,3.921569%);fill-opacity:1;" d="M 79.25 18.75 C 80.769531 19.945312 81.933594 21.445312 82.75 23.25 C 84.5625 23.828125 86.394531 23.914062 88.25 23.5 C 90.589844 21.652344 92.671875 21.902344 94.5 24.25 C 94.980469 26.398438 95.398438 28.566406 95.75 30.75 C 96.871094 31.015625 97.621094 31.683594 98 32.75 C 98.574219 34.921875 98.160156 36.839844 96.75 38.5 C 98.515625 40.800781 98.679688 43.214844 97.25 45.75 C 98.554688 48.21875 98.554688 50.71875 97.25 53.25 C 98.8125 56.011719 98.480469 58.511719 96.25 60.75 C 99.054688 63.632812 98.886719 66.300781 95.75 68.75 C 95.617188 71.433594 94.785156 73.851562 93.25 76 C 91.390625 76.339844 89.554688 76.253906 87.75 75.75 C 86.609375 74.886719 85.277344 74.554688 83.75 74.75 C 84.980469 74.234375 86.3125 73.902344 87.75 73.75 C 88.953125 73.933594 90.117188 74.265625 91.25 74.75 C 91.707031 74.726562 92.042969 74.5625 92.25 74.25 C 93.539062 73.195312 93.539062 72.113281 92.25 71 C 93.417969 70.378906 93.75 69.546875 93.25 68.5 C 92.261719 68.253906 91.261719 68.167969 90.25 68.25 C 90.25 67.75 90.25 67.25 90.25 66.75 C 90.417969 66.75 90.582031 66.75 90.75 66.75 C 91.25 66.75 91.75 66.75 92.25 66.75 C 93.625 66.90625 94.957031 66.738281 96.25 66.25 C 96.65625 65.464844 96.820312 64.632812 96.75 63.75 C 96.808594 62.398438 96.308594 62.0625 95.25 62.75 C 94.851562 62.523438 94.683594 62.1875 94.75 61.75 C 94.75 61.25 94.75 60.75 94.75 60.25 C 94.082031 60.25 93.417969 60.25 92.75 60.25 C 93.347656 59.863281 93.847656 59.363281 94.25 58.75 C 96.671875 58.359375 97.335938 57.027344 96.25 54.75 C 95.882812 53.875 95.71875 53.042969 95.75 52.25 C 95.917969 51.917969 96.082031 51.582031 96.25 51.25 C 96.816406 50.1875 96.898438 49.019531 96.5 47.75 C 96.144531 47.308594 95.730469 46.976562 95.25 46.75 C 93.296875 46.238281 91.628906 45.738281 90.25 45.25 C 91.925781 45.332031 93.589844 45.25 95.25 45 C 97.609375 42.300781 97.027344 40.550781 93.5 39.75 C 90.757812 39.742188 89.507812 41.074219 89.75 43.75 C 89.582031 43.75 89.417969 43.75 89.25 43.75 C 89.25 43.082031 89.25 42.417969 89.25 41.75 C 88.039062 40.757812 86.621094 40.089844 85 39.75 C 83.890625 34.316406 82.476562 28.984375 80.75 23.75 C 80.761719 22.359375 80.09375 21.109375 78.75 20 C 79.125 19.664062 79.292969 19.246094 79.25 18.75 Z M 79.25 18.75 "/>
</g>
<mask id="mask4">
  <g filter="url(#alpha)">
<rect x="0" y="0" width="100" height="99" style="fill:rgb(0%,0%,0%);fill-opacity:0.47451;stroke:none;"/>
  </g>
</mask>
<clipPath id="clip5">
  <rect x="0" y="0" width="100" height="99"/>
</clipPath>
<g id="surface17" clip-path="url(#clip5)">
<path style=" stroke:none;fill-rule:evenodd;fill:rgb(13.333333%,21.960784%,28.627451%);fill-opacity:1;" d="M 99.75 56.25 C 99.75 56.417969 99.75 56.582031 99.75 56.75 C 99.1875 58.09375 98.519531 59.425781 97.75 60.75 C 100.03125 64.339844 99.53125 67.503906 96.25 70.25 C 96.316406 75.765625 93.648438 77.847656 88.25 76.5 C 87.972656 76.308594 87.804688 76.058594 87.75 75.75 C 89.554688 76.253906 91.390625 76.339844 93.25 76 C 94.785156 73.851562 95.617188 71.433594 95.75 68.75 C 98.886719 66.300781 99.054688 63.632812 96.25 60.75 C 98.480469 58.511719 98.8125 56.011719 97.25 53.25 C 98.554688 50.71875 98.554688 48.21875 97.25 45.75 C 98.679688 43.214844 98.515625 40.800781 96.75 38.5 C 98.160156 36.839844 98.574219 34.921875 98 32.75 C 97.621094 31.683594 96.871094 31.015625 95.75 30.75 C 95.398438 28.566406 94.980469 26.398438 94.5 24.25 C 92.671875 21.902344 90.589844 21.652344 88.25 23.5 C 86.394531 23.914062 84.5625 23.828125 82.75 23.25 C 81.933594 21.445312 80.769531 19.945312 79.25 18.75 C 78.65625 18.316406 78.074219 17.816406 77.5 17.25 C 77.359375 13.214844 75.609375 10.132812 72.25 8 C 67.894531 6.027344 63.8125 6.445312 60 9.25 C 56.339844 5.992188 52.253906 3.492188 47.75 1.75 C 48.410156 1.835938 48.996094 1.667969 49.5 1.25 C 50.035156 1.59375 50.617188 1.84375 51.25 2 C 54.449219 3.621094 57.449219 5.539062 60.25 7.75 C 61.792969 6.96875 63.375 6.304688 65 5.75 C 72.816406 5.21875 77.484375 8.886719 79 16.75 C 80.796875 18.210938 82.210938 19.960938 83.25 22 C 84.183594 22.492188 85.183594 22.742188 86.25 22.75 C 88.679688 21.898438 91.179688 21.648438 93.75 22 C 96.003906 24.179688 96.671875 26.761719 95.75 29.75 C 99.492188 31.945312 100.160156 34.863281 97.75 38.5 C 98.695312 39.925781 99.195312 41.507812 99.25 43.25 C 99.277344 46.652344 99.109375 50.066406 98.75 53.5 C 98.851562 54.554688 99.183594 55.472656 99.75 56.25 Z M 99.75 56.25 "/>
</g>
<mask id="mask5">
  <g filter="url(#alpha)">
<rect x="0" y="0" width="100" height="99" style="fill:rgb(0%,0%,0%);fill-opacity:0.996078;stroke:none;"/>
  </g>
</mask>
<clipPath id="clip6">
  <rect x="0" y="0" width="100" height="99"/>
</clipPath>
<g id="surface20" clip-path="url(#clip6)">
<path style=" stroke:none;fill-rule:evenodd;fill:rgb(5.098039%,2.745098%,2.745098%);fill-opacity:1;" d="M 37.75 22.25 C 37.75 22.582031 37.917969 22.75 38.25 22.75 C 39.132812 23.355469 39.964844 23.1875 40.75 22.25 C 41.148438 22.476562 41.316406 22.8125 41.25 23.25 C 40.558594 23.480469 40.226562 23.980469 40.25 24.75 C 40.765625 28.097656 41.347656 31.429688 42 34.75 C 42.832031 36.164062 43.917969 37.332031 45.25 38.25 C 51.316406 47.867188 54.734375 58.367188 55.5 69.75 C 57.257812 71.953125 59.007812 74.117188 60.75 76.25 C 64.660156 81.4375 69.660156 82.6875 75.75 80 C 77.054688 79.605469 78.054688 78.855469 78.75 77.75 C 79.585938 77.328125 80.171875 76.660156 80.5 75.75 C 81.34375 73.640625 81.925781 71.476562 82.25 69.25 C 83.457031 65.910156 84.125 62.410156 84.25 58.75 C 85.855469 58.90625 87.355469 58.738281 88.75 58.25 C 89.109375 58.039062 89.359375 57.707031 89.5 57.25 C 89.640625 57.707031 89.890625 58.039062 90.25 58.25 C 91.472656 58.738281 92.808594 58.902344 94.25 58.75 C 93.847656 59.363281 93.347656 59.863281 92.75 60.25 C 91.910156 60.589844 91.578125 61.257812 91.75 62.25 C 92.808594 62.335938 93.808594 62.171875 94.75 61.75 C 94.683594 62.1875 94.851562 62.523438 95.25 62.75 C 96.308594 62.0625 96.808594 62.398438 96.75 63.75 C 96.019531 63.15625 95.351562 63.15625 94.75 63.75 C 93.34375 63.976562 92.011719 63.976562 90.75 63.75 C 90.402344 61.742188 89.234375 60.992188 87.25 61.5 C 86.164062 63.421875 85.496094 65.503906 85.25 67.75 C 84.683594 69.183594 84.351562 70.683594 84.25 72.25 C 83.976562 72.28125 83.8125 72.445312 83.75 72.75 C 85.152344 73.085938 86.484375 73.417969 87.75 73.75 C 86.3125 73.902344 84.980469 74.234375 83.75 74.75 C 82.453125 77.167969 80.785156 79.335938 78.75 81.25 C 77.992188 81.253906 77.40625 81.589844 77 82.25 C 75.929688 90.335938 71.34375 93.585938 63.25 92 C 61.878906 91.464844 60.628906 90.714844 59.5 89.75 C 59.140625 90.023438 58.890625 90.355469 58.75 90.75 C 58.75 91.082031 58.582031 91.25 58.25 91.25 C 57.695312 91.277344 57.195312 91.445312 56.75 91.75 C 55.589844 91.828125 54.671875 92.328125 54 93.25 C 53.496094 92.832031 52.910156 92.664062 52.25 92.75 C 54.898438 90.9375 57.230469 88.769531 59.25 86.25 C 60.398438 85.582031 61.398438 84.664062 62.25 83.5 C 61.09375 83.25 59.929688 83.167969 58.75 83.25 C 56.636719 82.898438 54.46875 82.484375 52.25 82 C 53.191406 81.902344 54.023438 81.652344 54.75 81.25 C 55.4375 81.328125 56.101562 81.246094 56.75 81 C 52.820312 79.121094 49.152344 76.871094 45.75 74.25 C 45.441406 73.601562 45.441406 73.101562 45.75 72.75 C 46.558594 73.019531 47.390625 73.183594 48.25 73.25 C 50.074219 74.519531 52.074219 74.855469 54.25 74.25 C 50.726562 70.140625 47.476562 65.808594 44.5 61.25 C 43.851562 60.527344 43.769531 59.859375 44.25 59.25 C 45.417969 60.25 46.582031 61.25 47.75 62.25 C 49.121094 63.691406 50.621094 65.027344 52.25 66.25 C 52.34375 63.039062 51.84375 59.871094 50.75 56.75 C 49.8125 53.707031 48.730469 50.707031 47.5 47.75 C 44.910156 42.085938 41.160156 37.417969 36.25 33.75 C 37.082031 33.75 37.917969 33.75 38.75 33.75 C 37.960938 29.933594 35.960938 26.851562 32.75 24.5 C 31.25 23.5 29.582031 23.082031 27.75 23.25 C 27.917969 22.917969 28.082031 22.582031 28.25 22.25 C 31.402344 21.601562 34.566406 21.601562 37.75 22.25 Z M 37.75 22.25 "/>
</g>
<mask id="mask6">
  <g filter="url(#alpha)">
<rect x="0" y="0" width="100" height="99" style="fill:rgb(0%,0%,0%);fill-opacity:0.984314;stroke:none;"/>
  </g>
</mask>
<clipPath id="clip7">
  <rect x="0" y="0" width="100" height="99"/>
</clipPath>
<g id="surface23" clip-path="url(#clip7)">
<path style=" stroke:none;fill-rule:evenodd;fill:rgb(7.843137%,5.098039%,6.666667%);fill-opacity:1;" d="M 2.75 65.75 C 4.851562 68.007812 6.519531 70.507812 7.75 73.25 C 10.761719 79.769531 15.097656 85.269531 20.75 89.75 C 21.851562 91.640625 23.519531 92.808594 25.75 93.25 C 26.75 93.582031 27.75 93.917969 28.75 94.25 C 30.066406 95.164062 31.566406 95.746094 33.25 96 C 37.335938 96.511719 41.335938 96.261719 45.25 95.25 C 47.746094 94.808594 50.078125 93.972656 52.25 92.75 C 52.910156 92.664062 53.496094 92.832031 54 93.25 C 54.671875 92.328125 55.589844 91.828125 56.75 91.75 C 54.003906 93.996094 51.003906 95.828125 47.75 97.25 C 45.949219 97.886719 44.117188 98.386719 42.25 98.75 C 39.75 98.75 37.25 98.75 34.75 98.75 C 21.898438 95.9375 12.480469 88.601562 6.5 76.75 C 4.816406 73.21875 3.566406 69.550781 2.75 65.75 Z M 2.75 65.75 "/>
</g>
<mask id="mask7">
  <g filter="url(#alpha)">
<rect x="0" y="0" width="100" height="99" style="fill:rgb(0%,0%,0%);fill-opacity:0.0235294;stroke:none;"/>
  </g>
</mask>
<clipPath id="clip8">
  <rect x="0" y="0" width="100" height="99"/>
</clipPath>
<g id="surface26" clip-path="url(#clip8)">
<path style=" stroke:none;fill-rule:evenodd;fill:rgb(11.764706%,20%,27.058824%);fill-opacity:1;" d="M 83.75 74.75 C 85.277344 74.554688 86.609375 74.886719 87.75 75.75 C 86.394531 75.277344 85.0625 75.277344 83.75 75.75 C 83.085938 77.417969 82.167969 78.917969 81 80.25 C 80.445312 81.019531 79.695312 81.351562 78.75 81.25 C 80.785156 79.335938 82.453125 77.167969 83.75 74.75 Z M 83.75 74.75 "/>
</g>
<mask id="mask8">
  <g filter="url(#alpha)">
<rect x="0" y="0" width="100" height="99" style="fill:rgb(0%,0%,0%);fill-opacity:0.0117647;stroke:none;"/>
  </g>
</mask>
<clipPath id="clip9">
  <rect x="0" y="0" width="100" height="99"/>
</clipPath>
<g id="surface29" clip-path="url(#clip9)">
<path style=" stroke:none;fill-rule:evenodd;fill:rgb(13.72549%,19.215686%,25.098039%);fill-opacity:1;" d="M 78.75 81.25 C 75.835938 93.109375 69.167969 96.277344 58.75 90.75 C 58.890625 90.355469 59.140625 90.023438 59.5 89.75 C 60.628906 90.714844 61.878906 91.464844 63.25 92 C 71.34375 93.585938 75.929688 90.335938 77 82.25 C 77.40625 81.589844 77.992188 81.253906 78.75 81.25 Z M 78.75 81.25 "/>
</g>
<mask id="mask9">
  <g filter="url(#alpha)">
<rect x="0" y="0" width="100" height="99" style="fill:rgb(0%,0%,0%);fill-opacity:0.0627451;stroke:none;"/>
  </g>
</mask>
<clipPath id="clip10">
  <rect x="0" y="0" width="100" height="99"/>
</clipPath>
<g id="surface32" clip-path="url(#clip10)">
<path style=" stroke:none;fill-rule:evenodd;fill:rgb(13.72549%,18.039216%,24.705882%);fill-opacity:1;" d="M 58.25 91.25 C 55.464844 94.394531 51.964844 96.394531 47.75 97.25 C 51.003906 95.828125 54.003906 93.996094 56.75 91.75 C 57.195312 91.445312 57.695312 91.277344 58.25 91.25 Z M 58.25 91.25 "/>
</g>
</defs>
<g id="surface1">
<use xlink:href="#surface5" mask="url(#mask0)"/>
<path style=" stroke:none;fill-rule:evenodd;fill:rgb(71.372549%,2.352941%,20.784314%);fill-opacity:1;" d="M 29.25 8.25 C 28.867188 8.585938 28.53125 9.003906 28.25 9.5 C 28.417969 9.582031 28.582031 9.667969 28.75 9.75 C 32.226562 8.753906 35.726562 7.921875 39.25 7.25 C 39.558594 8.53125 39.726562 9.78125 39.75 11 C 46.171875 10.476562 52.253906 11.5625 58 14.25 C 58.585938 14.503906 59 14.921875 59.25 15.5 C 57.089844 15.75 54.921875 15.832031 52.75 15.75 C 50.546875 14.867188 48.210938 14.617188 45.75 15 C 42.097656 16.492188 38.597656 18.242188 35.25 20.25 C 36.023438 20.726562 36.855469 20.894531 37.75 20.75 C 37.75 21.25 37.75 21.75 37.75 22.25 C 34.566406 21.601562 31.402344 21.601562 28.25 22.25 C 24.894531 23.179688 21.726562 24.511719 18.75 26.25 C 18.765625 25.75 18.515625 25.417969 18 25.25 C 14.699219 27.382812 11.53125 29.714844 8.5 32.25 C 8.375 31.6875 8.125 31.1875 7.75 30.75 C 7.140625 31.324219 6.472656 31.824219 5.75 32.25 C 5.496094 33.730469 4.996094 35.0625 4.25 36.25 C 6.910156 20.242188 15.746094 9.242188 30.75 3.25 C 31.308594 3.863281 31.390625 4.527344 31 5.25 C 30.285156 6.183594 29.703125 7.183594 29.25 8.25 Z M 29.25 8.25 "/>
<use xlink:href="#surface8" mask="url(#mask1)"/>
<use xlink:href="#surface11" mask="url(#mask2)"/>
<path style=" stroke:none;fill-rule:evenodd;fill:rgb(10.588235%,2.745098%,3.529412%);fill-opacity:1;" d="M 59.25 16.25 C 57.511719 16.660156 55.679688 16.910156 53.75 17 C 58.417969 17.167969 63.082031 17.332031 67.75 17.5 C 68.367188 17.617188 68.867188 17.867188 69.25 18.25 C 63.746094 18.167969 58.246094 18.25 52.75 18.5 C 48.503906 19.164062 44.671875 20.746094 41.25 23.25 C 41.316406 22.8125 41.148438 22.476562 40.75 22.25 C 39.964844 23.1875 39.132812 23.355469 38.25 22.75 C 42.054688 19.683594 46.386719 17.683594 51.25 16.75 C 53.898438 16.363281 56.566406 16.195312 59.25 16.25 Z M 59.25 16.25 "/>
<path style=" stroke:none;fill-rule:evenodd;fill:rgb(57.647059%,49.411765%,51.372549%);fill-opacity:1;" d="M 62.75 9.75 C 62.664062 10.410156 62.832031 10.996094 63.25 11.5 C 66.9375 11.753906 70.4375 12.667969 73.75 14.25 C 74.148438 14.023438 74.316406 13.6875 74.25 13.25 C 74.867188 14.105469 75.203125 15.105469 75.25 16.25 C 71.914062 16.332031 68.578125 16.25 65.25 16 C 64.144531 14.207031 62.976562 12.457031 61.75 10.75 C 61.925781 10.238281 62.261719 9.90625 62.75 9.75 Z M 62.75 9.75 "/>
<path style=" stroke:none;fill-rule:evenodd;fill:rgb(73.72549%,67.843137%,67.45098%);fill-opacity:1;" d="M 74.25 13.25 C 74.316406 13.6875 74.148438 14.023438 73.75 14.25 C 70.4375 12.667969 66.9375 11.753906 63.25 11.5 C 62.832031 10.996094 62.664062 10.410156 62.75 9.75 C 65.757812 8.398438 68.757812 8.480469 71.75 10 C 72.894531 10.886719 73.726562 11.972656 74.25 13.25 Z M 74.25 13.25 "/>
<path style=" stroke:none;fill-rule:evenodd;fill:rgb(54.901961%,1.176471%,16.078431%);fill-opacity:1;" d="M 59.75 12.25 C 61.097656 13.101562 62.097656 14.269531 62.75 15.75 C 61.628906 16.238281 60.460938 16.402344 59.25 16.25 C 56.566406 16.195312 53.898438 16.363281 51.25 16.75 C 51.644531 16.300781 52.144531 15.964844 52.75 15.75 C 54.921875 15.832031 57.089844 15.75 59.25 15.5 C 59 14.921875 58.585938 14.503906 58 14.25 C 52.253906 11.5625 46.171875 10.476562 39.75 11 C 39.726562 9.78125 39.558594 8.53125 39.25 7.25 C 35.726562 7.921875 32.226562 8.753906 28.75 9.75 C 28.582031 9.667969 28.417969 9.582031 28.25 9.5 C 28.53125 9.003906 28.867188 8.585938 29.25 8.25 C 29.28125 8.523438 29.445312 8.6875 29.75 8.75 C 30.621094 7.875 31.621094 7.207031 32.75 6.75 C 33.570312 6.738281 34.238281 7.074219 34.75 7.75 C 36.023438 7.132812 36.023438 6.550781 34.75 6 C 35.011719 5.652344 35.347656 5.402344 35.75 5.25 C 37.113281 6.890625 38.195312 6.890625 39 5.25 C 39.667969 5.917969 40.332031 5.917969 41 5.25 C 42.046875 5.859375 41.964844 6.273438 40.75 6.5 C 41.167969 7.003906 41.335938 7.589844 41.25 8.25 C 42.382812 8.070312 43.300781 8.402344 44 9.25 C 44.734375 8.335938 45.648438 8.085938 46.75 8.5 C 46.121094 8.960938 45.453125 9.378906 44.75 9.75 C 46.40625 10.546875 47.488281 10.046875 48 8.25 C 48.667969 8.917969 49.332031 8.917969 50 8.25 C 52.210938 10.042969 54.792969 10.960938 57.75 11 C 57.582031 11.167969 57.417969 11.332031 57.25 11.5 C 58.011719 12.003906 58.847656 12.253906 59.75 12.25 Z M 59.75 12.25 "/>
<path style=" stroke:none;fill-rule:evenodd;fill:rgb(50.196078%,2.352941%,15.686275%);fill-opacity:1;" d="M 59.75 12.25 C 58.847656 12.253906 58.011719 12.003906 57.25 11.5 C 57.417969 11.332031 57.582031 11.167969 57.75 11 C 54.792969 10.960938 52.210938 10.042969 50 8.25 C 49.332031 8.917969 48.667969 8.917969 48 8.25 C 47.488281 10.046875 46.40625 10.546875 44.75 9.75 C 45.453125 9.378906 46.121094 8.960938 46.75 8.5 C 45.648438 8.085938 44.734375 8.335938 44 9.25 C 43.300781 8.402344 42.382812 8.070312 41.25 8.25 C 41.335938 7.589844 41.167969 7.003906 40.75 6.5 C 41.964844 6.273438 42.046875 5.859375 41 5.25 C 40.332031 5.917969 39.667969 5.917969 39 5.25 C 38.195312 6.890625 37.113281 6.890625 35.75 5.25 C 35.347656 5.402344 35.011719 5.652344 34.75 6 C 36.023438 6.550781 36.023438 7.132812 34.75 7.75 C 34.238281 7.074219 33.570312 6.738281 32.75 6.75 C 33.285156 6.058594 33.953125 5.472656 34.75 5 C 44.6875 1.785156 53.023438 4.199219 59.75 12.25 Z M 59.75 12.25 "/>
<path style=" stroke:none;fill-rule:evenodd;fill:rgb(83.529412%,16.078431%,25.098039%);fill-opacity:1;" d="M 52.75 15.75 C 52.144531 15.964844 51.644531 16.300781 51.25 16.75 C 46.386719 17.683594 42.054688 19.683594 38.25 22.75 C 37.917969 22.75 37.75 22.582031 37.75 22.25 C 37.75 21.75 37.75 21.25 37.75 20.75 C 36.855469 20.894531 36.023438 20.726562 35.25 20.25 C 38.597656 18.242188 42.097656 16.492188 45.75 15 C 48.210938 14.617188 50.546875 14.867188 52.75 15.75 Z M 52.75 15.75 "/>
<path style=" stroke:none;fill-rule:evenodd;fill:rgb(65.098039%,59.215686%,60%);fill-opacity:1;" d="M 69.25 18.25 C 71.449219 18.210938 73.613281 18.460938 75.75 19 C 77.660156 19.660156 78.996094 20.910156 79.75 22.75 C 79.890625 24.859375 79.722656 26.859375 79.25 28.75 C 78.476562 26.453125 77.140625 24.535156 75.25 23 C 71.199219 22.125 67.199219 22.042969 63.25 22.75 C 63.292969 23.496094 62.960938 23.996094 62.25 24.25 C 60.183594 23.601562 58.183594 23.601562 56.25 24.25 C 55.695312 24.277344 55.195312 24.445312 54.75 24.75 C 54.632812 24.453125 54.382812 24.285156 54 24.25 C 51.464844 24.613281 49.132812 25.445312 47 26.75 C 45.074219 25.519531 43.160156 24.355469 41.25 23.25 C 44.671875 20.746094 48.503906 19.164062 52.75 18.5 C 58.246094 18.25 63.746094 18.167969 69.25 18.25 Z M 69.25 18.25 "/>
<path style=" stroke:none;fill-rule:evenodd;fill:rgb(74.509804%,68.627451%,70.196078%);fill-opacity:1;" d="M 56.25 24.25 C 58.183594 27.789062 59.851562 31.453125 61.25 35.25 C 60.398438 36.96875 59.730469 38.800781 59.25 40.75 C 58.589844 39.769531 57.921875 38.769531 57.25 37.75 C 55.261719 34.332031 53.34375 30.832031 51.5 27.25 C 51.09375 26.589844 50.507812 26.253906 49.75 26.25 C 51.320312 25.605469 52.988281 25.105469 54.75 24.75 C 55.195312 24.445312 55.695312 24.277344 56.25 24.25 Z M 56.25 24.25 "/>
<path style=" stroke:none;fill-rule:evenodd;fill:rgb(23.921569%,0.784314%,4.313725%);fill-opacity:1;" d="M 28.25 22.25 C 28.082031 22.582031 27.917969 22.917969 27.75 23.25 C 26.390625 23.917969 25.058594 24.585938 23.75 25.25 C 20.171875 26.664062 16.839844 28.5 13.75 30.75 C 15.105469 28.894531 16.773438 27.394531 18.75 26.25 C 21.726562 24.511719 24.894531 23.179688 28.25 22.25 Z M 28.25 22.25 "/>
<path style=" stroke:none;fill-rule:evenodd;fill:rgb(52.156863%,45.882353%,46.27451%);fill-opacity:1;" d="M 79.75 22.75 C 80.082031 23.082031 80.417969 23.417969 80.75 23.75 C 82.476562 28.984375 83.890625 34.316406 85 39.75 C 86.621094 40.089844 88.039062 40.757812 89.25 41.75 C 88.941406 41.804688 88.691406 41.972656 88.5 42.25 C 87.417969 41.4375 86.167969 41.023438 84.75 41 C 84.019531 39.769531 83.105469 38.6875 82 37.75 C 81.550781 36.535156 81.132812 35.371094 80.75 34.25 C 80.328125 32.394531 79.828125 30.5625 79.25 28.75 C 79.722656 26.859375 79.890625 24.859375 79.75 22.75 Z M 79.75 22.75 "/>
<path style=" stroke:none;fill-rule:evenodd;fill:rgb(41.568627%,5.098039%,14.509804%);fill-opacity:1;" d="M 27.75 23.25 C 29.582031 23.082031 31.25 23.5 32.75 24.5 C 35.960938 26.851562 37.960938 29.933594 38.75 33.75 C 37.917969 33.75 37.082031 33.75 36.25 33.75 C 36.832031 32.246094 36.332031 31.246094 34.75 30.75 C 34.828125 30.0625 34.746094 29.398438 34.5 28.75 C 33.242188 28.074219 32.328125 27.074219 31.75 25.75 C 29.113281 25.273438 26.449219 25.109375 23.75 25.25 C 25.058594 24.585938 26.390625 23.917969 27.75 23.25 Z M 27.75 23.25 "/>
<path style=" stroke:none;fill-rule:evenodd;fill:rgb(81.176471%,75.294118%,76.470588%);fill-opacity:1;" d="M 49.75 26.25 C 50.507812 26.253906 51.09375 26.589844 51.5 27.25 C 53.34375 30.832031 55.261719 34.332031 57.25 37.75 C 54.496094 36.09375 51.664062 34.511719 48.75 33 C 47.324219 32.285156 45.824219 31.867188 44.25 31.75 C 44.25 32.582031 44.25 33.417969 44.25 34.25 C 43.515625 32.65625 43.765625 31.15625 45 29.75 C 46.25 28.074219 47.835938 26.910156 49.75 26.25 Z M 49.75 26.25 "/>
<path style=" stroke:none;fill-rule:evenodd;fill:rgb(56.470588%,1.568627%,16.470588%);fill-opacity:1;" d="M 23.75 25.25 C 26.449219 25.109375 29.113281 25.273438 31.75 25.75 C 32.328125 27.074219 33.242188 28.074219 34.5 28.75 C 34.746094 29.398438 34.828125 30.0625 34.75 30.75 C 34.039062 31.226562 33.207031 31.390625 32.25 31.25 C 32.082031 32.75 32.75 33.417969 34.25 33.25 C 34.34375 35.511719 35.511719 36.84375 37.75 37.25 C 38.125 37.6875 38.375 38.1875 38.5 38.75 C 38.667969 38.582031 38.832031 38.417969 39 38.25 C 42.183594 43.628906 45.351562 48.960938 48.5 54.25 C 48.667969 54.082031 48.832031 53.917969 49 53.75 C 49.167969 54.917969 49.332031 56.082031 49.5 57.25 C 49.835938 56.875 50.253906 56.707031 50.75 56.75 C 51.84375 59.871094 52.34375 63.039062 52.25 66.25 C 50.621094 65.027344 49.121094 63.691406 47.75 62.25 C 48.292969 62.269531 48.792969 62.4375 49.25 62.75 C 49.417969 62.332031 49.582031 61.917969 49.75 61.5 C 46.246094 52.164062 41.078125 43.828125 34.25 36.5 C 31.359375 35.320312 28.527344 34.570312 25.75 34.25 C 27.496094 31.957031 29.832031 30.539062 32.75 30 C 33.335938 29.296875 33.167969 28.714844 32.25 28.25 C 28.773438 27.730469 25.355469 28.0625 22 29.25 C 18.09375 30.757812 14.507812 32.757812 11.25 35.25 C 9.558594 35.878906 9.308594 35.378906 10.5 33.75 C 11.519531 32.648438 12.601562 31.648438 13.75 30.75 C 16.839844 28.5 20.171875 26.664062 23.75 25.25 Z M 23.75 25.25 "/>
<path style=" stroke:none;fill-rule:evenodd;fill:rgb(52.156863%,45.490196%,45.098039%);fill-opacity:1;" d="M 41.25 23.25 C 43.160156 24.355469 45.074219 25.519531 47 26.75 C 49.132812 25.445312 51.464844 24.613281 54 24.25 C 54.382812 24.285156 54.632812 24.453125 54.75 24.75 C 52.988281 25.105469 51.320312 25.605469 49.75 26.25 C 47.835938 26.910156 46.25 28.074219 45 29.75 C 43.765625 31.15625 43.515625 32.65625 44.25 34.25 C 44.480469 35.609375 44.816406 36.945312 45.25 38.25 C 43.917969 37.332031 42.832031 36.164062 42 34.75 C 41.347656 31.429688 40.765625 28.097656 40.25 24.75 C 40.226562 23.980469 40.558594 23.480469 41.25 23.25 Z M 41.25 23.25 "/>
<path style=" stroke:none;fill-rule:evenodd;fill:rgb(94.901961%,94.117647%,92.156863%);fill-opacity:1;" d="M 57.25 37.75 C 57.921875 38.769531 58.589844 39.769531 59.25 40.75 C 60.347656 43.5625 61.015625 46.476562 61.25 49.5 C 60.933594 52.992188 60.269531 56.410156 59.25 59.75 C 58.535156 60.957031 58.285156 62.289062 58.5 63.75 C 58.667969 63.25 58.832031 62.75 59 62.25 C 59.140625 62.707031 59.390625 63.039062 59.75 63.25 C 59.273438 63.828125 58.773438 64.414062 58.25 65 C 58.996094 66.265625 58.660156 67.183594 57.25 67.75 C 56.785156 68.34375 56.617188 69.011719 56.75 69.75 C 58.058594 69.617188 59.308594 69.78125 60.5 70.25 C 60.375 71.601562 60.960938 72.769531 62.25 73.75 C 61.503906 74.453125 61.003906 75.285156 60.75 76.25 C 59.007812 74.117188 57.257812 71.953125 55.5 69.75 C 54.734375 58.367188 51.316406 47.867188 45.25 38.25 C 44.816406 36.945312 44.480469 35.609375 44.25 34.25 C 44.25 33.417969 44.25 32.582031 44.25 31.75 C 45.824219 31.867188 47.324219 32.285156 48.75 33 C 51.664062 34.511719 54.496094 36.09375 57.25 37.75 Z M 57.25 37.75 "/>
<path style=" stroke:none;fill-rule:evenodd;fill:rgb(4.313725%,3.137255%,3.137255%);fill-opacity:1;" d="M 61.25 35.25 C 63.453125 38.820312 65.535156 42.488281 67.5 46.25 C 69.121094 46.890625 70.453125 47.890625 71.5 49.25 C 73.125 48.226562 74.710938 47.144531 76.25 46 C 77.066406 45.753906 77.902344 45.667969 78.75 45.75 C 78.75 46.417969 78.75 47.082031 78.75 47.75 C 76.242188 48.933594 76.15625 50.265625 78.5 51.75 C 78.742188 52.222656 78.824219 52.722656 78.75 53.25 C 78.027344 53.804688 77.195312 53.890625 76.25 53.5 C 74.808594 51.710938 72.976562 50.875 70.75 51 C 69.667969 51.75 68.582031 52.5 67.5 53.25 C 66.195312 55.796875 64.613281 58.132812 62.75 60.25 C 62.363281 60.847656 61.863281 61.347656 61.25 61.75 C 59.75 61.917969 59.082031 61.25 59.25 59.75 C 60.269531 56.410156 60.933594 52.992188 61.25 49.5 C 61.015625 46.476562 60.347656 43.5625 59.25 40.75 C 59.730469 38.800781 60.398438 36.96875 61.25 35.25 Z M 61.25 35.25 "/>
<path style=" stroke:none;fill-rule:evenodd;fill:rgb(73.333333%,2.745098%,21.176471%);fill-opacity:1;" d="M 47.75 62.25 C 46.582031 61.25 45.417969 60.25 44.25 59.25 C 43.785156 58.261719 43.121094 58.09375 42.25 58.75 C 42.59375 59.722656 42.84375 60.722656 43 61.75 C 43.503906 62.167969 44.089844 62.335938 44.75 62.25 C 45.046875 63.828125 45.046875 65.328125 44.75 66.75 C 43.417969 65.25 42.082031 63.75 40.75 62.25 C 39.277344 59.449219 37.609375 56.78125 35.75 54.25 C 35.269531 53.820312 35.269531 53.484375 35.75 53.25 C 38.917969 54.917969 42.082031 56.582031 45.25 58.25 C 45.808594 57.636719 45.890625 56.972656 45.5 56.25 C 41.390625 48.640625 35.472656 42.890625 27.75 39 C 26.628906 38.546875 25.460938 38.296875 24.25 38.25 C 20.046875 38.558594 15.878906 39.058594 11.75 39.75 C 12.378906 38.316406 12.878906 36.816406 13.25 35.25 C 12.582031 35.25 11.917969 35.25 11.25 35.25 C 14.507812 32.757812 18.09375 30.757812 22 29.25 C 25.355469 28.0625 28.773438 27.730469 32.25 28.25 C 33.167969 28.714844 33.335938 29.296875 32.75 30 C 29.832031 30.539062 27.496094 31.957031 25.75 34.25 C 28.527344 34.570312 31.359375 35.320312 34.25 36.5 C 41.078125 43.828125 46.246094 52.164062 49.75 61.5 C 49.582031 61.917969 49.417969 62.332031 49.25 62.75 C 48.792969 62.4375 48.292969 62.269531 47.75 62.25 Z M 47.75 62.25 "/>
<path style=" stroke:none;fill-rule:evenodd;fill:rgb(60%,55.294118%,55.294118%);fill-opacity:1;" d="M 77.75 42.25 C 76.164062 43.066406 74.496094 43.816406 72.75 44.5 C 71.710938 44.902344 70.710938 44.820312 69.75 44.25 C 67.953125 40.523438 66.453125 36.691406 65.25 32.75 C 65.523438 32.71875 65.6875 32.554688 65.75 32.25 C 65.101562 30.363281 64.683594 28.53125 64.5 26.75 C 67.652344 24.011719 71.066406 23.59375 74.75 25.5 C 75.828125 27.660156 77.328125 29.410156 79.25 30.75 C 78.722656 30.953125 78.054688 30.953125 77.25 30.75 C 77.601562 34.613281 77.769531 38.445312 77.75 42.25 Z M 77.75 42.25 "/>
<path style=" stroke:none;fill-rule:evenodd;fill:rgb(2.352941%,1.176471%,1.568627%);fill-opacity:1;" d="M 68.25 26.25 C 71.347656 25.496094 73.597656 26.496094 75 29.25 C 76.308594 32.476562 76.808594 35.808594 76.5 39.25 C 75.378906 41.558594 73.628906 42.808594 71.25 43 C 69.117188 38.9375 67.367188 34.6875 66 30.25 C 65.175781 27.890625 65.925781 26.558594 68.25 26.25 Z M 68.25 26.25 "/>
<path style=" stroke:none;fill-rule:evenodd;fill:rgb(78.039216%,74.117647%,74.509804%);fill-opacity:1;" d="M 63.25 22.75 C 67.199219 22.042969 71.199219 22.125 75.25 23 C 77.140625 24.535156 78.476562 26.453125 79.25 28.75 C 79.828125 30.5625 80.328125 32.394531 80.75 34.25 C 80.25 36.59375 80.25 38.84375 80.75 41 C 81.960938 41.785156 82.628906 42.867188 82.75 44.25 C 81.828125 43.414062 80.828125 42.664062 79.75 42 C 79.035156 41.710938 78.367188 41.792969 77.75 42.25 C 77.769531 38.445312 77.601562 34.613281 77.25 30.75 C 78.054688 30.953125 78.722656 30.953125 79.25 30.75 C 77.328125 29.410156 75.828125 27.660156 74.75 25.5 C 71.066406 23.59375 67.652344 24.011719 64.5 26.75 C 64.683594 28.53125 65.101562 30.363281 65.75 32.25 C 65.6875 32.554688 65.523438 32.71875 65.25 32.75 C 62.933594 29.691406 62.769531 26.527344 64.75 23.25 C 64.335938 22.808594 63.835938 22.640625 63.25 22.75 Z M 63.25 22.75 "/>
<path style=" stroke:none;fill-rule:evenodd;fill:rgb(70.980392%,66.27451%,66.27451%);fill-opacity:1;" d="M 80.75 34.25 C 81.132812 35.371094 81.550781 36.535156 82 37.75 C 83.105469 38.6875 84.019531 39.769531 84.75 41 C 86.167969 41.023438 87.417969 41.4375 88.5 42.25 C 88.691406 41.972656 88.941406 41.804688 89.25 41.75 C 89.25 42.417969 89.25 43.082031 89.25 43.75 C 87.789062 44.847656 86.125 45.347656 84.25 45.25 C 84.25 45.917969 84.25 46.582031 84.25 47.25 C 85.75 47.25 87.25 47.25 88.75 47.25 C 88.75 48.917969 88.75 50.582031 88.75 52.25 C 87.03125 52.375 85.363281 52.207031 83.75 51.75 C 83.394531 49.300781 83.058594 46.800781 82.75 44.25 C 82.628906 42.867188 81.960938 41.785156 80.75 41 C 80.25 38.84375 80.25 36.59375 80.75 34.25 Z M 80.75 34.25 "/>
<use xlink:href="#surface14" mask="url(#mask3)"/>
<path style=" stroke:none;fill-rule:evenodd;fill:rgb(56.862745%,51.764706%,50.980392%);fill-opacity:1;" d="M 93.25 28.25 C 93.210938 28.875 92.878906 29.292969 92.25 29.5 C 92.652344 29.652344 92.988281 29.902344 93.25 30.25 C 92.222656 30.59375 91.390625 31.175781 90.75 32 C 92.78125 32.019531 94.699219 32.4375 96.5 33.25 C 96.832031 34.082031 96.832031 34.917969 96.5 35.75 C 95.734375 36.363281 95.152344 37.113281 94.75 38 C 93.335938 38.484375 92.167969 38.152344 91.25 37 C 92.351562 36.476562 93.515625 36.0625 94.75 35.75 C 94.238281 34.988281 93.488281 34.65625 92.5 34.75 C 91.917969 34.832031 91.332031 34.917969 90.75 35 C 90.691406 37.394531 89.523438 38.226562 87.25 37.5 C 86.464844 35.449219 85.800781 33.367188 85.25 31.25 C 86.046875 31.675781 86.628906 32.339844 87 33.25 C 88.003906 37.8125 89.085938 37.726562 90.25 33 C 90.304688 32.125 90.140625 31.210938 89.75 30.25 C 90.78125 29.402344 91.949219 28.734375 93.25 28.25 Z M 93.25 28.25 "/>
<path style=" stroke:none;fill-rule:evenodd;fill:rgb(65.490196%,60%,58.823529%);fill-opacity:1;" d="M 84.25 26.25 C 85.273438 27.527344 86.4375 28.777344 87.75 30 C 88.398438 30.246094 89.0625 30.328125 89.75 30.25 C 90.140625 31.210938 90.304688 32.125 90.25 33 C 89.085938 37.726562 88.003906 37.8125 87 33.25 C 86.628906 32.339844 86.046875 31.675781 85.25 31.25 C 84.8125 29.605469 84.480469 27.9375 84.25 26.25 Z M 84.25 26.25 "/>
<path style=" stroke:none;fill-rule:evenodd;fill:rgb(92.156863%,90.196078%,89.411765%);fill-opacity:1;" d="M 93.25 28.25 C 91.949219 28.734375 90.78125 29.402344 89.75 30.25 C 89.0625 30.328125 88.398438 30.246094 87.75 30 C 86.4375 28.777344 85.273438 27.527344 84.25 26.25 C 86.996094 25.394531 89.828125 24.726562 92.75 24.25 C 92.835938 25.664062 92.171875 26.496094 90.75 26.75 C 91.828125 27 92.660156 27.5 93.25 28.25 Z M 93.25 28.25 "/>
<use xlink:href="#surface17" mask="url(#mask4)"/>
<path style=" stroke:none;fill-rule:evenodd;fill:rgb(90.588235%,23.529412%,26.666667%);fill-opacity:1;" d="M 23.75 54.25 C 23.917969 54.917969 24.082031 55.582031 24.25 56.25 C 24.75 56.25 25.25 56.25 25.75 56.25 C 25.667969 57.925781 25.75 59.589844 26 61.25 C 26.542969 60.851562 27.125 60.519531 27.75 60.25 C 28.917969 61 30.082031 61.75 31.25 62.5 C 29.941406 63.179688 29.609375 64.097656 30.25 65.25 C 30.816406 66.3125 30.898438 67.480469 30.5 68.75 C 28.976562 67.554688 27.558594 67.722656 26.25 69.25 C 27.476562 70.609375 27.8125 70.527344 27.25 69 C 27.816406 68.625 28.316406 68.707031 28.75 69.25 C 29.488281 70.398438 30.15625 71.566406 30.75 72.75 C 28.277344 71.34375 25.777344 69.929688 23.25 68.5 C 22.128906 68.011719 20.964844 67.761719 19.75 67.75 C 19.210938 68.28125 18.710938 68.28125 18.25 67.75 C 18.214844 66.496094 18.382812 65.332031 18.75 64.25 C 17.597656 63.882812 16.679688 63.21875 16 62.25 C 15.257812 62.578125 14.671875 63.078125 14.25 63.75 C 15.496094 64.269531 15.496094 64.6875 14.25 65 C 14.246094 65.792969 14.414062 66.625 14.75 67.5 C 14.144531 68.421875 13.476562 68.839844 12.75 68.75 C 13.238281 69.820312 13.988281 70.652344 15 71.25 C 14.976562 72.15625 15.058594 72.988281 15.25 73.75 C 17.582031 74.558594 18.75 76.226562 18.75 78.75 C 17.941406 79.347656 17.105469 79.847656 16.25 80.25 C 12.699219 75.28125 10.199219 69.78125 8.75 63.75 C 8.503906 62.589844 8.503906 61.503906 8.75 60.5 C 8.695312 59.640625 8.445312 59.554688 8 60.25 C 7.691406 59.777344 7.773438 59.359375 8.25 59 C 7.394531 58.433594 7.144531 57.683594 7.5 56.75 C 8.308594 57.953125 8.640625 57.953125 8.5 56.75 C 8.082031 56.25 7.667969 55.75 7.25 55.25 C 6.078125 56.609375 5.160156 56.445312 4.5 54.75 C 4.332031 54.917969 4.167969 55.082031 4 55.25 C 3.75 51.753906 3.667969 48.253906 3.75 44.75 C 5.101562 44.691406 5.4375 45.191406 4.75 46.25 C 5.277344 47.6875 5.609375 49.019531 5.75 50.25 C 6.179688 49.632812 6.511719 48.964844 6.75 48.25 C 6.539062 47.335938 6.539062 46.335938 6.75 45.25 C 7.277344 45.324219 7.777344 45.242188 8.25 45 C 8.082031 44.832031 7.917969 44.667969 7.75 44.5 C 7.992188 43.769531 8.574219 43.019531 9.5 42.25 C 10.15625 42.65625 10.742188 43.15625 11.25 43.75 C 11.847656 43.578125 11.847656 43.328125 11.25 43 C 11.582031 42.667969 11.917969 42.667969 12.25 43 C 12.34375 44.148438 13.011719 45.148438 14.25 46 C 13.347656 46.484375 12.515625 47.070312 11.75 47.75 C 12.496094 47.765625 13.160156 48.015625 13.75 48.5 C 13.347656 48.652344 13.011719 48.902344 12.75 49.25 C 12.921875 49.847656 13.171875 49.847656 13.5 49.25 C 13.191406 51.261719 13.859375 51.597656 15.5 50.25 C 16.394531 51.050781 17.476562 51.464844 18.75 51.5 C 19.417969 52 19.417969 52.5 18.75 53 C 19.371094 53.226562 19.789062 52.976562 20 52.25 C 20.234375 53.121094 20.570312 53.957031 21 54.75 C 21.851562 54.296875 22.765625 54.128906 23.75 54.25 Z M 23.75 54.25 "/>
<path style=" stroke:none;fill-rule:evenodd;fill:rgb(64.313725%,61.960784%,61.960784%);fill-opacity:1;" d="M 90.25 45.25 C 90.367188 44.605469 90.203125 44.105469 89.75 43.75 C 89.507812 41.074219 90.757812 39.742188 93.5 39.75 C 97.027344 40.550781 97.609375 42.300781 95.25 45 C 93.589844 45.25 91.925781 45.332031 90.25 45.25 Z M 90.25 45.25 "/>
<path style=" stroke:none;fill-rule:evenodd;fill:rgb(46.27451%,2.352941%,14.901961%);fill-opacity:1;" d="M 34.75 30.75 C 36.332031 31.246094 36.832031 32.246094 36.25 33.75 C 41.160156 37.417969 44.910156 42.085938 47.5 47.75 C 48.730469 50.707031 49.8125 53.707031 50.75 56.75 C 50.253906 56.707031 49.835938 56.875 49.5 57.25 C 49.332031 56.082031 49.167969 54.917969 49 53.75 C 48.832031 53.917969 48.667969 54.082031 48.5 54.25 C 45.351562 48.960938 42.183594 43.628906 39 38.25 C 38.832031 38.417969 38.667969 38.582031 38.5 38.75 C 38.375 38.1875 38.125 37.6875 37.75 37.25 C 35.511719 36.84375 34.34375 35.511719 34.25 33.25 C 32.75 33.417969 32.082031 32.75 32.25 31.25 C 33.207031 31.390625 34.039062 31.226562 34.75 30.75 Z M 34.75 30.75 "/>
<path style=" stroke:none;fill-rule:evenodd;fill:rgb(90.196078%,21.568627%,26.27451%);fill-opacity:1;" d="M 18.75 26.25 C 16.773438 27.394531 15.105469 28.894531 13.75 30.75 C 12.601562 31.648438 11.519531 32.648438 10.5 33.75 C 9.308594 35.378906 9.558594 35.878906 11.25 35.25 C 11.917969 35.25 12.582031 35.25 13.25 35.25 C 12.878906 36.816406 12.378906 38.316406 11.75 39.75 C 15.878906 39.058594 20.046875 38.558594 24.25 38.25 C 25.460938 38.296875 26.628906 38.546875 27.75 39 C 35.472656 42.890625 41.390625 48.640625 45.5 56.25 C 45.890625 56.972656 45.808594 57.636719 45.25 58.25 C 42.082031 56.582031 38.917969 54.917969 35.75 53.25 C 35.269531 53.484375 35.269531 53.820312 35.75 54.25 C 35.640625 55.714844 35.976562 57.050781 36.75 58.25 C 36.285156 60.265625 35.371094 60.597656 34 59.25 C 33.65625 59.679688 33.238281 60.011719 32.75 60.25 C 32.234375 59.320312 31.484375 58.652344 30.5 58.25 C 28.878906 59.757812 28.296875 59.589844 28.75 57.75 C 27.875 57.027344 27.792969 56.359375 28.5 55.75 C 29.003906 56.167969 29.589844 56.335938 30.25 56.25 C 30.332031 55.402344 30.246094 54.566406 30 53.75 C 29.441406 53.832031 28.859375 54 28.25 54.25 C 27.902344 53.988281 27.652344 53.652344 27.5 53.25 C 26.457031 54.574219 25.207031 54.90625 23.75 54.25 C 22.765625 54.128906 21.851562 54.296875 21 54.75 C 20.570312 53.957031 20.234375 53.121094 20 52.25 C 19.789062 52.976562 19.371094 53.226562 18.75 53 C 19.417969 52.5 19.417969 52 18.75 51.5 C 17.476562 51.464844 16.394531 51.050781 15.5 50.25 C 13.859375 51.597656 13.191406 51.261719 13.5 49.25 C 13.171875 49.847656 12.921875 49.847656 12.75 49.25 C 13.011719 48.902344 13.347656 48.652344 13.75 48.5 C 13.160156 48.015625 12.496094 47.765625 11.75 47.75 C 12.515625 47.070312 13.347656 46.484375 14.25 46 C 13.011719 45.148438 12.34375 44.148438 12.25 43 C 11.917969 42.667969 11.582031 42.667969 11.25 43 C 11.847656 43.328125 11.847656 43.578125 11.25 43.75 C 10.742188 43.15625 10.15625 42.65625 9.5 42.25 C 8.574219 43.019531 7.992188 43.769531 7.75 44.5 C 7.917969 44.667969 8.082031 44.832031 8.25 45 C 7.777344 45.242188 7.277344 45.324219 6.75 45.25 C 6.539062 46.335938 6.539062 47.335938 6.75 48.25 C 6.511719 48.964844 6.179688 49.632812 5.75 50.25 C 5.609375 49.019531 5.277344 47.6875 4.75 46.25 C 5.4375 45.191406 5.101562 44.691406 3.75 44.75 C 3.878906 41.914062 4.046875 39.082031 4.25 36.25 C 4.996094 35.0625 5.496094 33.730469 5.75 32.25 C 6.472656 31.824219 7.140625 31.324219 7.75 30.75 C 8.125 31.1875 8.375 31.6875 8.5 32.25 C 11.53125 29.714844 14.699219 27.382812 18 25.25 C 18.515625 25.417969 18.765625 25.75 18.75 26.25 Z M 18.75 26.25 "/>
<path style=" stroke:none;fill-rule:evenodd;fill:rgb(98.431373%,73.333333%,53.72549%);fill-opacity:1;" d="M 23.25 45.75 C 23.75 45.75 24.25 45.75 24.75 45.75 C 24.75 46.25 24.75 46.75 24.75 47.25 C 24.25 47.25 23.75 47.25 23.25 47.25 C 23.25 46.75 23.25 46.25 23.25 45.75 Z M 23.25 45.75 "/>
<path style=" stroke:none;fill-rule:evenodd;fill:rgb(78.431373%,76.470588%,75.686275%);fill-opacity:1;" d="M 95.25 46.75 C 95.730469 46.976562 96.144531 47.308594 96.5 47.75 C 96.898438 49.019531 96.816406 50.1875 96.25 51.25 C 95.996094 50.382812 95.578125 50.21875 95 50.75 C 94.832031 50.082031 94.667969 49.417969 94.5 48.75 C 94.347656 49.152344 94.097656 49.488281 93.75 49.75 C 92.796875 49.324219 91.796875 49.160156 90.75 49.25 C 90.464844 50.484375 90.464844 51.652344 90.75 52.75 C 88.300781 48.007812 89.800781 46.007812 95.25 46.75 Z M 95.25 46.75 "/>
<path style=" stroke:none;fill-rule:evenodd;fill:rgb(71.372549%,68.627451%,67.45098%);fill-opacity:1;" d="M 78.75 47.75 C 79.058594 49.679688 79.058594 51.511719 78.75 53.25 C 78.824219 52.722656 78.742188 52.222656 78.5 51.75 C 76.15625 50.265625 76.242188 48.933594 78.75 47.75 Z M 78.75 47.75 "/>
<path style=" stroke:none;fill-rule:evenodd;fill:rgb(94.117647%,92.156863%,90.980392%);fill-opacity:1;" d="M 63.25 22.75 C 63.835938 22.640625 64.335938 22.808594 64.75 23.25 C 62.769531 26.527344 62.933594 29.691406 65.25 32.75 C 66.453125 36.691406 67.953125 40.523438 69.75 44.25 C 70.710938 44.820312 71.710938 44.902344 72.75 44.5 C 74.496094 43.816406 76.164062 43.066406 77.75 42.25 C 78.367188 41.792969 79.035156 41.710938 79.75 42 C 80.828125 42.664062 81.828125 43.414062 82.75 44.25 C 83.058594 46.800781 83.394531 49.300781 83.75 51.75 C 83.75 52.25 83.75 52.75 83.75 53.25 C 84.800781 55.308594 84.300781 56.808594 82.25 57.75 C 82.328125 57.0625 82.246094 56.398438 82 55.75 C 81.464844 55.679688 80.882812 55.679688 80.25 55.75 C 79.78125 56.886719 79.113281 57.886719 78.25 58.75 C 79.652344 60.570312 79.988281 62.570312 79.25 64.75 C 79.058594 63.988281 78.976562 63.15625 79 62.25 C 78.667969 61.917969 78.332031 61.582031 78 61.25 C 77.90625 62.355469 77.65625 63.355469 77.25 64.25 C 77.25 63.582031 77.25 62.917969 77.25 62.25 C 76.675781 59.28125 75.007812 57.113281 72.25 55.75 C 72.105469 55.175781 71.6875 54.84375 71 54.75 C 70.582031 54.832031 70.167969 54.917969 69.75 55 C 69.132812 56.15625 68.464844 57.242188 67.75 58.25 C 67.816406 57.8125 67.648438 57.476562 67.25 57.25 C 66.707031 57.832031 66.292969 58.5 66 59.25 C 65.847656 58.847656 65.597656 58.511719 65.25 58.25 C 65.261719 59.1875 65.097656 60.019531 64.75 60.75 C 64.132812 60.378906 63.464844 60.210938 62.75 60.25 C 64.613281 58.132812 66.195312 55.796875 67.5 53.25 C 68.582031 52.5 69.667969 51.75 70.75 51 C 72.976562 50.875 74.808594 51.710938 76.25 53.5 C 77.195312 53.890625 78.027344 53.804688 78.75 53.25 C 79.058594 51.511719 79.058594 49.679688 78.75 47.75 C 78.75 47.082031 78.75 46.417969 78.75 45.75 C 77.902344 45.667969 77.066406 45.753906 76.25 46 C 74.710938 47.144531 73.125 48.226562 71.5 49.25 C 70.453125 47.890625 69.121094 46.890625 67.5 46.25 C 65.535156 42.488281 63.453125 38.820312 61.25 35.25 C 59.851562 31.453125 58.183594 27.789062 56.25 24.25 C 58.183594 23.601562 60.183594 23.601562 62.25 24.25 C 62.960938 23.996094 63.292969 23.496094 63.25 22.75 Z M 63.25 22.75 "/>
<path style=" stroke:none;fill-rule:evenodd;fill:rgb(90.980392%,89.411765%,87.058824%);fill-opacity:1;" d="M 96.25 51.25 C 96.082031 51.582031 95.917969 51.917969 95.75 52.25 C 94.136719 52.707031 92.46875 52.875 90.75 52.75 C 90.464844 51.652344 90.464844 50.484375 90.75 49.25 C 91.796875 49.160156 92.796875 49.324219 93.75 49.75 C 94.097656 49.488281 94.347656 49.152344 94.5 48.75 C 94.667969 49.417969 94.832031 50.082031 95 50.75 C 95.578125 50.21875 95.996094 50.382812 96.25 51.25 Z M 96.25 51.25 "/>
<path style=" stroke:none;fill-rule:evenodd;fill:rgb(11.372549%,9.803922%,9.411765%);fill-opacity:1;" d="M 89.25 43.75 C 89.417969 43.75 89.582031 43.75 89.75 43.75 C 90.203125 44.105469 90.367188 44.605469 90.25 45.25 C 91.628906 45.738281 93.296875 46.238281 95.25 46.75 C 89.800781 46.007812 88.300781 48.007812 90.75 52.75 C 92.46875 52.875 94.136719 52.707031 95.75 52.25 C 95.71875 53.042969 95.882812 53.875 96.25 54.75 C 94.300781 54.285156 92.300781 54.117188 90.25 54.25 C 90.25 55.582031 90.25 56.917969 90.25 58.25 C 89.890625 58.039062 89.640625 57.707031 89.5 57.25 C 89.359375 57.707031 89.109375 58.039062 88.75 58.25 C 88.75 57.082031 88.75 55.917969 88.75 54.75 C 86.785156 55.070312 85.117188 54.570312 83.75 53.25 C 83.75 52.75 83.75 52.25 83.75 51.75 C 85.363281 52.207031 87.03125 52.375 88.75 52.25 C 88.75 50.582031 88.75 48.917969 88.75 47.25 C 87.25 47.25 85.75 47.25 84.25 47.25 C 84.25 46.582031 84.25 45.917969 84.25 45.25 C 86.125 45.347656 87.789062 44.847656 89.25 43.75 Z M 89.25 43.75 "/>
<path style=" stroke:none;fill-rule:evenodd;fill:rgb(81.960784%,24.313725%,25.882353%);fill-opacity:1;" d="M 4.25 36.25 C 4.046875 39.082031 3.878906 41.914062 3.75 44.75 C 3.667969 48.253906 3.75 51.753906 4 55.25 C 4.167969 55.082031 4.332031 54.917969 4.5 54.75 C 5.160156 56.445312 6.078125 56.609375 7.25 55.25 C 7.667969 55.75 8.082031 56.25 8.5 56.75 C 8.640625 57.953125 8.308594 57.953125 7.5 56.75 C 7.144531 57.683594 7.394531 58.433594 8.25 59 C 7.773438 59.359375 7.691406 59.777344 8 60.25 C 8.445312 59.554688 8.695312 59.640625 8.75 60.5 C 8.503906 61.503906 8.503906 62.589844 8.75 63.75 C 8.152344 62.21875 7.402344 60.71875 6.5 59.25 C 6.214844 61.800781 6.464844 64.300781 7.25 66.75 C 7.25 67.417969 6.917969 67.75 6.25 67.75 C 5.367188 65.859375 4.617188 63.859375 4 61.75 C 2.257812 53.15625 2.339844 44.65625 4.25 36.25 Z M 4.25 36.25 "/>
<path style=" stroke:none;fill-rule:evenodd;fill:rgb(2.745098%,1.960784%,1.960784%);fill-opacity:1;" d="M 72.25 55.75 C 75.007812 57.113281 76.675781 59.28125 77.25 62.25 C 76.28125 65.519531 75.113281 68.769531 73.75 72 C 71.234375 73.050781 68.816406 72.96875 66.5 71.75 C 67.34375 67.375 68.511719 63.042969 70 58.75 C 70.40625 57.410156 71.15625 56.410156 72.25 55.75 Z M 72.25 55.75 "/>
<path style=" stroke:none;fill-rule:evenodd;fill:rgb(74.509804%,70.980392%,69.803922%);fill-opacity:1;" d="M 96.25 54.75 C 97.335938 57.027344 96.671875 58.359375 94.25 58.75 C 92.808594 58.902344 91.472656 58.738281 90.25 58.25 C 90.25 56.917969 90.25 55.582031 90.25 54.25 C 92.300781 54.117188 94.300781 54.285156 96.25 54.75 Z M 96.25 54.75 "/>
<path style=" stroke:none;fill-rule:evenodd;fill:rgb(83.529412%,80%,78.039216%);fill-opacity:1;" d="M 83.75 53.25 C 85.117188 54.570312 86.785156 55.070312 88.75 54.75 C 88.75 55.917969 88.75 57.082031 88.75 58.25 C 86.722656 58.089844 84.722656 58.253906 82.75 58.75 C 82.097656 59.722656 81.597656 60.722656 81.25 61.75 C 81.054688 60.222656 81.386719 58.890625 82.25 57.75 C 84.300781 56.808594 84.800781 55.308594 83.75 53.25 Z M 83.75 53.25 "/>
<path style=" stroke:none;fill-rule:evenodd;fill:rgb(99.607843%,72.156863%,61.568627%);fill-opacity:1;" d="M 24.25 56.25 C 25.023438 57.441406 25.355469 58.773438 25.25 60.25 C 22.371094 59.871094 20.871094 58.203125 20.75 55.25 C 22.09375 55.082031 23.261719 55.414062 24.25 56.25 Z M 24.25 56.25 "/>
<path style=" stroke:none;fill-rule:evenodd;fill:rgb(89.411765%,19.607843%,25.882353%);fill-opacity:1;" d="M 40.75 62.25 C 42.082031 63.75 43.417969 65.25 44.75 66.75 C 46.785156 69.449219 49.285156 71.617188 52.25 73.25 C 50.957031 73.601562 49.621094 73.601562 48.25 73.25 C 47.390625 73.183594 46.558594 73.019531 45.75 72.75 C 45.28125 72.011719 44.613281 71.511719 43.75 71.25 C 42.765625 69.84375 41.429688 69.261719 39.75 69.5 C 42.535156 73.640625 46.199219 76.722656 50.75 78.75 C 50.75 79.25 50.75 79.75 50.75 80.25 C 49.050781 80.328125 47.382812 80.160156 45.75 79.75 C 43.972656 79.101562 42.136719 78.433594 40.25 77.75 C 39.707031 78.183594 39.625 78.683594 40 79.25 C 44.738281 83.078125 50.15625 85.160156 56.25 85.5 C 54.316406 86.714844 52.316406 87.800781 50.25 88.75 C 48.304688 88.902344 46.472656 89.320312 44.75 90 C 44.09375 89.300781 44.257812 88.800781 45.25 88.5 C 44.6875 88.375 44.1875 88.125 43.75 87.75 C 43.863281 87.015625 44.027344 86.265625 44.25 85.5 C 43.167969 85.082031 42.417969 84.332031 42 83.25 C 41.257812 83.597656 40.507812 83.429688 39.75 82.75 C 40.265625 82.851562 40.765625 82.601562 41.25 82 C 40.035156 81.679688 39.203125 80.929688 38.75 79.75 C 36.457031 80.410156 36.289062 80.160156 38.25 79 C 37.550781 78.070312 36.882812 77.15625 36.25 76.25 C 35.722656 76.324219 35.222656 76.242188 34.75 76 C 35.667969 74.402344 36.5 72.984375 37.25 71.75 C 36.109375 70.664062 36.109375 69.664062 37.25 68.75 C 37.214844 67.859375 37.046875 66.945312 36.75 66 C 37.152344 65.847656 37.488281 65.597656 37.75 65.25 C 37.085938 65.398438 36.421875 65.148438 35.75 64.5 C 36.804688 63.277344 37.140625 61.941406 36.75 60.5 C 36.917969 60.25 37.082031 60 37.25 59.75 C 37.792969 60.332031 38.207031 61 38.5 61.75 C 38.707031 61.523438 38.957031 61.355469 39.25 61.25 C 39.632812 61.804688 40.132812 62.140625 40.75 62.25 Z M 40.75 62.25 "/>
<path style=" stroke:none;fill-rule:evenodd;fill:rgb(70.588235%,68.235294%,67.45098%);fill-opacity:1;" d="M 92.75 60.25 C 93.417969 60.25 94.082031 60.25 94.75 60.25 C 94.75 60.75 94.75 61.25 94.75 61.75 C 93.808594 62.171875 92.808594 62.335938 91.75 62.25 C 91.578125 61.257812 91.910156 60.589844 92.75 60.25 Z M 92.75 60.25 "/>
<path style=" stroke:none;fill-rule:evenodd;fill:rgb(89.411765%,23.529412%,25.882353%);fill-opacity:1;" d="M 19.75 67.75 C 19.671875 69.511719 20.339844 70.929688 21.75 72 C 24.136719 73.691406 26.636719 75.105469 29.25 76.25 C 29.25 76.917969 28.917969 77.25 28.25 77.25 C 27.75 77.25 27.25 77.25 26.75 77.25 C 26.394531 76.796875 25.894531 76.632812 25.25 76.75 C 25.460938 77.890625 25.128906 78.722656 24.25 79.25 C 22.8125 78.03125 21.144531 77.367188 19.25 77.25 C 19.890625 79.152344 21.054688 80.734375 22.75 82 C 24.871094 83.644531 27.207031 84.894531 29.75 85.75 C 29.75 86.25 29.75 86.75 29.75 87.25 C 28.855469 87.109375 28.023438 87.273438 27.25 87.75 C 28.066406 88.59375 28.898438 88.925781 29.75 88.75 C 28.960938 89.148438 28.128906 89.398438 27.25 89.5 C 27.582031 89.667969 27.917969 89.832031 28.25 90 C 27.71875 90.59375 27.050781 90.84375 26.25 90.75 C 21.898438 88.214844 18.566406 84.714844 16.25 80.25 C 17.105469 79.847656 17.941406 79.347656 18.75 78.75 C 18.75 76.226562 17.582031 74.558594 15.25 73.75 C 15.058594 72.988281 14.976562 72.15625 15 71.25 C 13.988281 70.652344 13.238281 69.820312 12.75 68.75 C 13.476562 68.839844 14.144531 68.421875 14.75 67.5 C 14.414062 66.625 14.246094 65.792969 14.25 65 C 15.496094 64.6875 15.496094 64.269531 14.25 63.75 C 14.671875 63.078125 15.257812 62.578125 16 62.25 C 16.679688 63.21875 17.597656 63.882812 18.75 64.25 C 18.382812 65.332031 18.214844 66.496094 18.25 67.75 C 18.710938 68.28125 19.210938 68.28125 19.75 67.75 Z M 19.75 67.75 "/>
<path style=" stroke:none;fill-rule:evenodd;fill:rgb(99.215686%,70.588235%,58.039216%);fill-opacity:1;" d="M 30.25 65.25 C 30.335938 65.910156 30.167969 66.496094 29.75 67 C 26.367188 67.203125 24.367188 65.621094 23.75 62.25 C 26.472656 62.097656 28.640625 63.097656 30.25 65.25 Z M 30.25 65.25 "/>
<path style=" stroke:none;fill-rule:evenodd;fill:rgb(58.039216%,5.490196%,18.039216%);fill-opacity:1;" d="M 44.25 59.25 C 43.769531 59.859375 43.851562 60.527344 44.5 61.25 C 47.476562 65.808594 50.726562 70.140625 54.25 74.25 C 52.074219 74.855469 50.074219 74.519531 48.25 73.25 C 49.621094 73.601562 50.957031 73.601562 52.25 73.25 C 49.285156 71.617188 46.785156 69.449219 44.75 66.75 C 45.046875 65.328125 45.046875 63.828125 44.75 62.25 C 44.089844 62.335938 43.503906 62.167969 43 61.75 C 42.84375 60.722656 42.59375 59.722656 42.25 58.75 C 43.121094 58.09375 43.785156 58.261719 44.25 59.25 Z M 44.25 59.25 "/>
<path style=" stroke:none;fill-rule:evenodd;fill:rgb(62.352941%,54.117647%,52.54902%);fill-opacity:1;" d="M 90.75 63.75 C 90.75 64.75 90.75 65.75 90.75 66.75 C 90.582031 66.75 90.417969 66.75 90.25 66.75 C 89.339844 66.207031 88.507812 65.539062 87.75 64.75 C 86.902344 65.777344 86.320312 66.945312 86 68.25 C 85.808594 67.972656 85.558594 67.804688 85.25 67.75 C 85.496094 65.503906 86.164062 63.421875 87.25 61.5 C 89.234375 60.992188 90.402344 61.742188 90.75 63.75 Z M 90.75 63.75 "/>
<use xlink:href="#surface20" mask="url(#mask5)"/>
<path style=" stroke:none;fill-rule:evenodd;fill:rgb(55.686275%,53.333333%,51.764706%);fill-opacity:1;" d="M 59.25 59.75 C 59.082031 61.25 59.75 61.917969 61.25 61.75 C 60.652344 62.136719 60.152344 62.636719 59.75 63.25 C 59.390625 63.039062 59.140625 62.707031 59 62.25 C 58.832031 62.75 58.667969 63.25 58.5 63.75 C 58.285156 62.289062 58.535156 60.957031 59.25 59.75 Z M 59.25 59.75 "/>
<path style=" stroke:none;fill-rule:evenodd;fill:rgb(47.843137%,39.607843%,40%);fill-opacity:1;" d="M 90.75 63.75 C 92.011719 63.976562 93.34375 63.976562 94.75 63.75 C 94.859375 65.046875 95.109375 65.046875 95.5 63.75 C 95.859375 64.832031 95.527344 65.664062 94.5 66.25 C 94.210938 63.800781 93.375 63.632812 92 65.75 C 91.832031 65.582031 91.667969 65.417969 91.5 65.25 C 91.378906 65.894531 91.628906 66.394531 92.25 66.75 C 91.75 66.75 91.25 66.75 90.75 66.75 C 90.75 65.75 90.75 64.75 90.75 63.75 Z M 90.75 63.75 "/>
<path style=" stroke:none;fill-rule:evenodd;fill:rgb(69.411765%,63.921569%,61.960784%);fill-opacity:1;" d="M 90.25 66.75 C 90.25 67.25 90.25 67.75 90.25 68.25 C 91.261719 68.167969 92.261719 68.253906 93.25 68.5 C 93.75 69.546875 93.417969 70.378906 92.25 71 C 93.539062 72.113281 93.539062 73.195312 92.25 74.25 C 90.632812 73.949219 90.46875 73.367188 91.75 72.5 C 91.339844 70.757812 90.257812 69.671875 88.5 69.25 C 86.851562 69.992188 85.433594 70.992188 84.25 72.25 C 84.351562 70.683594 84.683594 69.183594 85.25 67.75 C 85.558594 67.804688 85.808594 67.972656 86 68.25 C 86.320312 66.945312 86.902344 65.777344 87.75 64.75 C 88.507812 65.539062 89.339844 66.207031 90.25 66.75 Z M 90.25 66.75 "/>
<path style=" stroke:none;fill-rule:evenodd;fill:rgb(56.078431%,52.156863%,49.803922%);fill-opacity:1;" d="M 88.75 58.25 C 87.355469 58.738281 85.855469 58.90625 84.25 58.75 C 84.125 62.410156 83.457031 65.910156 82.25 69.25 C 81.84375 68.183594 81.59375 67.019531 81.5 65.75 C 81.097656 67.722656 80.847656 67.722656 80.75 65.75 C 80.917969 64.417969 81.082031 63.082031 81.25 61.75 C 81.597656 60.722656 82.097656 59.722656 82.75 58.75 C 84.722656 58.253906 86.722656 58.089844 88.75 58.25 Z M 88.75 58.25 "/>
<path style=" stroke:none;fill-rule:evenodd;fill:rgb(70.588235%,61.176471%,60%);fill-opacity:1;" d="M 96.75 63.75 C 96.820312 64.632812 96.65625 65.464844 96.25 66.25 C 94.957031 66.738281 93.625 66.90625 92.25 66.75 C 91.628906 66.394531 91.378906 65.894531 91.5 65.25 C 91.667969 65.417969 91.832031 65.582031 92 65.75 C 93.375 63.632812 94.210938 63.800781 94.5 66.25 C 95.527344 65.664062 95.859375 64.832031 95.5 63.75 C 95.109375 65.046875 94.859375 65.046875 94.75 63.75 C 95.351562 63.15625 96.019531 63.15625 96.75 63.75 Z M 96.75 63.75 "/>
<path style=" stroke:none;fill-rule:evenodd;fill:rgb(99.607843%,72.941176%,61.960784%);fill-opacity:1;" d="M 19.75 67.75 C 20.964844 67.761719 22.128906 68.011719 23.25 68.5 C 25.777344 69.929688 28.277344 71.34375 30.75 72.75 C 31.40625 73.738281 32.238281 74.574219 33.25 75.25 C 33.621094 75.867188 33.789062 76.535156 33.75 77.25 C 32.214844 77.0625 30.714844 76.730469 29.25 76.25 C 26.636719 75.105469 24.136719 73.691406 21.75 72 C 20.339844 70.929688 19.671875 69.511719 19.75 67.75 Z M 19.75 67.75 "/>
<path style=" stroke:none;fill-rule:evenodd;fill:rgb(90.588235%,21.960784%,26.666667%);fill-opacity:1;" d="M 35.75 54.25 C 37.609375 56.78125 39.277344 59.449219 40.75 62.25 C 40.132812 62.140625 39.632812 61.804688 39.25 61.25 C 38.957031 61.355469 38.707031 61.523438 38.5 61.75 C 38.207031 61 37.792969 60.332031 37.25 59.75 C 37.082031 60 36.917969 60.25 36.75 60.5 C 37.140625 61.941406 36.804688 63.277344 35.75 64.5 C 36.421875 65.148438 37.085938 65.398438 37.75 65.25 C 37.488281 65.597656 37.152344 65.847656 36.75 66 C 37.046875 66.945312 37.214844 67.859375 37.25 68.75 C 36.109375 69.664062 36.109375 70.664062 37.25 71.75 C 36.5 72.984375 35.667969 74.402344 34.75 76 C 35.222656 76.242188 35.722656 76.324219 36.25 76.25 C 36.316406 76.621094 36.230469 76.953125 36 77.25 C 35.5 76.582031 35 76.582031 34.5 77.25 C 34.101562 75.765625 33.769531 74.265625 33.5 72.75 C 33.332031 73.25 33.167969 73.75 33 74.25 C 32.433594 73.429688 31.683594 72.929688 30.75 72.75 C 30.15625 71.566406 29.488281 70.398438 28.75 69.25 C 28.316406 68.707031 27.816406 68.625 27.25 69 C 27.8125 70.527344 27.476562 70.609375 26.25 69.25 C 27.558594 67.722656 28.976562 67.554688 30.5 68.75 C 30.898438 67.480469 30.816406 66.3125 30.25 65.25 C 29.609375 64.097656 29.941406 63.179688 31.25 62.5 C 30.082031 61.75 28.917969 61 27.75 60.25 C 27.125 60.519531 26.542969 60.851562 26 61.25 C 25.75 59.589844 25.667969 57.925781 25.75 56.25 C 25.25 56.25 24.75 56.25 24.25 56.25 C 24.082031 55.582031 23.917969 54.917969 23.75 54.25 C 25.207031 54.90625 26.457031 54.574219 27.5 53.25 C 27.652344 53.652344 27.902344 53.988281 28.25 54.25 C 28.859375 54 29.441406 53.832031 30 53.75 C 30.246094 54.566406 30.332031 55.402344 30.25 56.25 C 29.589844 56.335938 29.003906 56.167969 28.5 55.75 C 27.792969 56.359375 27.875 57.027344 28.75 57.75 C 28.296875 59.589844 28.878906 59.757812 30.5 58.25 C 31.484375 58.652344 32.234375 59.320312 32.75 60.25 C 33.238281 60.011719 33.65625 59.679688 34 59.25 C 35.371094 60.597656 36.285156 60.265625 36.75 58.25 C 35.976562 57.050781 35.640625 55.714844 35.75 54.25 Z M 35.75 54.25 "/>
<use xlink:href="#surface23" mask="url(#mask6)"/>
<path style=" stroke:none;fill-rule:evenodd;fill:rgb(85.098039%,30.196078%,29.411765%);fill-opacity:1;" d="M 7.25 66.75 C 8.792969 71.449219 10.878906 75.949219 13.5 80.25 C 16.179688 83.675781 18.929688 87.007812 21.75 90.25 C 21.417969 90.082031 21.082031 89.917969 20.75 89.75 C 15.097656 85.269531 10.761719 79.769531 7.75 73.25 C 7.148438 71.445312 6.648438 69.613281 6.25 67.75 C 6.917969 67.75 7.25 67.417969 7.25 66.75 Z M 7.25 66.75 "/>
<path style=" stroke:none;fill-rule:evenodd;fill:rgb(92.941176%,91.764706%,90.196078%);fill-opacity:1;" d="M 92.25 74.25 C 92.042969 74.5625 91.707031 74.726562 91.25 74.75 C 90.117188 74.265625 88.953125 73.933594 87.75 73.75 C 86.484375 73.417969 85.152344 73.085938 83.75 72.75 C 83.8125 72.445312 83.976562 72.28125 84.25 72.25 C 85.433594 70.992188 86.851562 69.992188 88.5 69.25 C 90.257812 69.671875 91.339844 70.757812 91.75 72.5 C 90.46875 73.367188 90.632812 73.949219 92.25 74.25 Z M 92.25 74.25 "/>
<path style=" stroke:none;fill-rule:evenodd;fill:rgb(37.647059%,0%,8.235294%);fill-opacity:1;" d="M 43.75 71.25 C 44.613281 71.511719 45.28125 72.011719 45.75 72.75 C 45.441406 73.101562 45.441406 73.601562 45.75 74.25 C 44.804688 73.648438 43.886719 72.984375 43 72.25 C 42.734375 71.59375 42.984375 71.257812 43.75 71.25 Z M 43.75 71.25 "/>
<path style=" stroke:none;fill-rule:evenodd;fill:rgb(64.705882%,61.176471%,60.392157%);fill-opacity:1;" d="M 80.75 65.75 C 80.847656 67.722656 81.097656 67.722656 81.5 65.75 C 81.59375 67.019531 81.84375 68.183594 82.25 69.25 C 81.925781 71.476562 81.34375 73.640625 80.5 75.75 C 80.171875 76.660156 79.585938 77.328125 78.75 77.75 C 78.429688 77.453125 78.265625 77.035156 78.25 76.5 C 79.140625 72.859375 79.972656 69.277344 80.75 65.75 Z M 80.75 65.75 "/>
<path style=" stroke:none;fill-rule:evenodd;fill:rgb(96.078431%,94.509804%,92.54902%);fill-opacity:1;" d="M 82.25 57.75 C 81.386719 58.890625 81.054688 60.222656 81.25 61.75 C 81.082031 63.082031 80.917969 64.417969 80.75 65.75 C 79.972656 69.277344 79.140625 72.859375 78.25 76.5 C 78.265625 77.035156 78.429688 77.453125 78.75 77.75 C 78.054688 78.855469 77.054688 79.605469 75.75 80 C 69.660156 82.6875 64.660156 81.4375 60.75 76.25 C 61.003906 75.285156 61.503906 74.453125 62.25 73.75 C 60.960938 72.769531 60.375 71.601562 60.5 70.25 C 59.308594 69.78125 58.058594 69.617188 56.75 69.75 C 56.617188 69.011719 56.785156 68.34375 57.25 67.75 C 58.660156 67.183594 58.996094 66.265625 58.25 65 C 58.773438 64.414062 59.273438 63.828125 59.75 63.25 C 60.152344 62.636719 60.652344 62.136719 61.25 61.75 C 61.863281 61.347656 62.363281 60.847656 62.75 60.25 C 63.464844 60.210938 64.132812 60.378906 64.75 60.75 C 65.097656 60.019531 65.261719 59.1875 65.25 58.25 C 65.597656 58.511719 65.847656 58.847656 66 59.25 C 66.292969 58.5 66.707031 57.832031 67.25 57.25 C 67.648438 57.476562 67.816406 57.8125 67.75 58.25 C 66.46875 62.457031 65.300781 66.707031 64.25 71 C 64.082031 72.332031 64.582031 73.332031 65.75 74 C 68.640625 74.453125 71.472656 74.285156 74.25 73.5 C 74.667969 73.082031 75.082031 72.667969 75.5 72.25 C 76.246094 69.605469 76.828125 66.941406 77.25 64.25 C 77.65625 63.355469 77.90625 62.355469 78 61.25 C 78.332031 61.582031 78.667969 61.917969 79 62.25 C 78.976562 63.15625 79.058594 63.988281 79.25 64.75 C 79.988281 62.570312 79.652344 60.570312 78.25 58.75 C 79.113281 57.886719 79.78125 56.886719 80.25 55.75 C 80.882812 55.679688 81.464844 55.679688 82 55.75 C 82.246094 56.398438 82.328125 57.0625 82.25 57.75 Z M 82.25 57.75 "/>
<path style=" stroke:none;fill-rule:evenodd;fill:rgb(60.784314%,58.039216%,56.862745%);fill-opacity:1;" d="M 72.25 55.75 C 71.15625 56.410156 70.40625 57.410156 70 58.75 C 68.511719 63.042969 67.34375 67.375 66.5 71.75 C 68.816406 72.96875 71.234375 73.050781 73.75 72 C 75.113281 68.769531 76.28125 65.519531 77.25 62.25 C 77.25 62.917969 77.25 63.582031 77.25 64.25 C 76.828125 66.941406 76.246094 69.605469 75.5 72.25 C 75.082031 72.667969 74.667969 73.082031 74.25 73.5 C 71.472656 74.285156 68.640625 74.453125 65.75 74 C 64.582031 73.332031 64.082031 72.332031 64.25 71 C 65.300781 66.707031 66.46875 62.457031 67.75 58.25 C 68.464844 57.242188 69.132812 56.15625 69.75 55 C 70.167969 54.917969 70.582031 54.832031 71 54.75 C 71.6875 54.84375 72.105469 55.175781 72.25 55.75 Z M 72.25 55.75 "/>
<path style=" stroke:none;fill-rule:evenodd;fill:rgb(89.411765%,24.313725%,26.666667%);fill-opacity:1;" d="M 30.75 72.75 C 31.683594 72.929688 32.433594 73.429688 33 74.25 C 33.167969 73.75 33.332031 73.25 33.5 72.75 C 33.769531 74.265625 34.101562 75.765625 34.5 77.25 C 35 76.582031 35.5 76.582031 36 77.25 C 36.230469 76.953125 36.316406 76.621094 36.25 76.25 C 36.882812 77.15625 37.550781 78.070312 38.25 79 C 36.289062 80.160156 36.457031 80.410156 38.75 79.75 C 39.203125 80.929688 40.035156 81.679688 41.25 82 C 40.765625 82.601562 40.265625 82.851562 39.75 82.75 C 40.507812 83.429688 41.257812 83.597656 42 83.25 C 42.417969 84.332031 43.167969 85.082031 44.25 85.5 C 44.027344 86.265625 43.863281 87.015625 43.75 87.75 C 44.1875 88.125 44.6875 88.375 45.25 88.5 C 44.257812 88.800781 44.09375 89.300781 44.75 90 C 46.472656 89.320312 48.304688 88.902344 50.25 88.75 C 45.628906 91.371094 40.628906 92.957031 35.25 93.5 C 35.527344 93.691406 35.695312 93.941406 35.75 94.25 C 33.429688 94.835938 31.09375 94.835938 28.75 94.25 C 27.75 93.917969 26.75 93.582031 25.75 93.25 C 25.75 93.082031 25.75 92.917969 25.75 92.75 C 28.203125 92.652344 28.367188 91.988281 26.25 90.75 C 27.050781 90.84375 27.71875 90.59375 28.25 90 C 27.917969 89.832031 27.582031 89.667969 27.25 89.5 C 28.128906 89.398438 28.960938 89.148438 29.75 88.75 C 28.898438 88.925781 28.066406 88.59375 27.25 87.75 C 28.023438 87.273438 28.855469 87.109375 29.75 87.25 C 29.75 86.75 29.75 86.25 29.75 85.75 C 31.324219 86.464844 32.824219 86.378906 34.25 85.5 C 30.632812 83.78125 27.300781 81.695312 24.25 79.25 C 25.128906 78.722656 25.460938 77.890625 25.25 76.75 C 25.894531 76.632812 26.394531 76.796875 26.75 77.25 C 26.3125 77.183594 25.976562 77.351562 25.75 77.75 C 27.601562 79.421875 29.765625 80.085938 32.25 79.75 C 32.25 79.25 32.25 78.75 32.25 78.25 C 30.753906 78.351562 29.417969 78.019531 28.25 77.25 C 28.917969 77.25 29.25 76.917969 29.25 76.25 C 30.714844 76.730469 32.214844 77.0625 33.75 77.25 C 33.789062 76.535156 33.621094 75.867188 33.25 75.25 C 32.238281 74.574219 31.40625 73.738281 30.75 72.75 Z M 30.75 72.75 "/>
<use xlink:href="#surface26" mask="url(#mask7)"/>
<path style=" stroke:none;fill-rule:evenodd;fill:rgb(99.215686%,75.686275%,66.666667%);fill-opacity:1;" d="M 26.75 77.25 C 27.25 77.25 27.75 77.25 28.25 77.25 C 29.417969 78.019531 30.753906 78.351562 32.25 78.25 C 32.25 78.75 32.25 79.25 32.25 79.75 C 29.765625 80.085938 27.601562 79.421875 25.75 77.75 C 25.976562 77.351562 26.3125 77.183594 26.75 77.25 Z M 26.75 77.25 "/>
<path style=" stroke:none;fill-rule:evenodd;fill:rgb(64.313725%,5.098039%,18.039216%);fill-opacity:1;" d="M 43.75 71.25 C 42.984375 71.257812 42.734375 71.59375 43 72.25 C 43.886719 72.984375 44.804688 73.648438 45.75 74.25 C 49.152344 76.871094 52.820312 79.121094 56.75 81 C 56.101562 81.246094 55.4375 81.328125 54.75 81.25 C 53.074219 81.167969 51.410156 81.25 49.75 81.5 C 52.554688 83.023438 55.554688 83.605469 58.75 83.25 C 59.929688 83.167969 61.09375 83.25 62.25 83.5 C 61.398438 84.664062 60.398438 85.582031 59.25 86.25 C 59.25 85.582031 59.25 84.917969 59.25 84.25 C 56.433594 83.90625 53.597656 83.65625 50.75 83.5 C 49.738281 82.660156 48.570312 82.160156 47.25 82 C 46.5625 81.144531 45.726562 80.476562 44.75 80 C 45.046875 79.769531 45.378906 79.683594 45.75 79.75 C 47.382812 80.160156 49.050781 80.328125 50.75 80.25 C 50.75 79.75 50.75 79.25 50.75 78.75 C 46.199219 76.722656 42.535156 73.640625 39.75 69.5 C 41.429688 69.261719 42.765625 69.84375 43.75 71.25 Z M 43.75 71.25 "/>
<path style=" stroke:none;fill-rule:evenodd;fill:rgb(18.431373%,1.176471%,1.960784%);fill-opacity:1;" d="M 54.75 81.25 C 54.023438 81.652344 53.191406 81.902344 52.25 82 C 54.46875 82.484375 56.636719 82.898438 58.75 83.25 C 55.554688 83.605469 52.554688 83.023438 49.75 81.5 C 51.410156 81.25 53.074219 81.167969 54.75 81.25 Z M 54.75 81.25 "/>
<path style=" stroke:none;fill-rule:evenodd;fill:rgb(99.607843%,77.254902%,71.764706%);fill-opacity:1;" d="M 8.75 63.75 C 10.199219 69.78125 12.699219 75.28125 16.25 80.25 C 18.566406 84.714844 21.898438 88.214844 26.25 90.75 C 28.367188 91.988281 28.203125 92.652344 25.75 92.75 C 24.25 92.167969 22.914062 91.332031 21.75 90.25 C 18.929688 87.007812 16.179688 83.675781 13.5 80.25 C 10.878906 75.949219 8.792969 71.449219 7.25 66.75 C 6.464844 64.300781 6.214844 61.800781 6.5 59.25 C 7.402344 60.71875 8.152344 62.21875 8.75 63.75 Z M 8.75 63.75 "/>
<path style=" stroke:none;fill-rule:evenodd;fill:rgb(99.607843%,76.078431%,61.176471%);fill-opacity:1;" d="M 24.25 79.25 C 27.300781 81.695312 30.632812 83.78125 34.25 85.5 C 32.824219 86.378906 31.324219 86.464844 29.75 85.75 C 27.207031 84.894531 24.871094 83.644531 22.75 82 C 21.054688 80.734375 19.890625 79.152344 19.25 77.25 C 21.144531 77.367188 22.8125 78.03125 24.25 79.25 Z M 24.25 79.25 "/>
<path style=" stroke:none;fill-rule:evenodd;fill:rgb(62.745098%,57.254902%,56.470588%);fill-opacity:1;" d="M 72.25 83.25 C 70.628906 84.222656 69.128906 85.140625 67.75 86 C 66.984375 86.246094 66.234375 86.164062 65.5 85.75 C 64.476562 86.304688 63.394531 86.636719 62.25 86.75 C 63.140625 85.726562 63.972656 84.644531 64.75 83.5 C 67.246094 83.25 69.746094 83.167969 72.25 83.25 Z M 72.25 83.25 "/>
<path style=" stroke:none;fill-rule:evenodd;fill:rgb(79.607843%,76.470588%,74.901961%);fill-opacity:1;" d="M 72.25 83.25 C 73.082031 83.25 73.917969 83.25 74.75 83.25 C 74.882812 84.050781 74.71875 84.714844 74.25 85.25 C 74.132812 84.953125 73.882812 84.785156 73.5 84.75 C 72.515625 85.523438 71.433594 86.105469 70.25 86.5 C 67.238281 87.0625 64.238281 87.644531 61.25 88.25 C 61.464844 87.644531 61.800781 87.144531 62.25 86.75 C 63.394531 86.636719 64.476562 86.304688 65.5 85.75 C 66.234375 86.164062 66.984375 86.246094 67.75 86 C 69.128906 85.140625 70.628906 84.222656 72.25 83.25 Z M 72.25 83.25 "/>
<path style=" stroke:none;fill-rule:evenodd;fill:rgb(93.333333%,90.980392%,89.411765%);fill-opacity:1;" d="M 74.25 85.25 C 73.695312 87.722656 72.195312 89.304688 69.75 90 C 67.75 90.332031 65.75 90.332031 63.75 90 C 62.707031 89.652344 61.875 89.066406 61.25 88.25 C 64.238281 87.644531 67.238281 87.0625 70.25 86.5 C 71.433594 86.105469 72.515625 85.523438 73.5 84.75 C 73.882812 84.785156 74.132812 84.953125 74.25 85.25 Z M 74.25 85.25 "/>
<use xlink:href="#surface29" mask="url(#mask8)"/>
<path style=" stroke:none;fill-rule:evenodd;fill:rgb(76.470588%,5.882353%,20.784314%);fill-opacity:1;" d="M 45.75 79.75 C 45.378906 79.683594 45.046875 79.769531 44.75 80 C 45.726562 80.476562 46.5625 81.144531 47.25 82 C 48.570312 82.160156 49.738281 82.660156 50.75 83.5 C 53.597656 83.65625 56.433594 83.90625 59.25 84.25 C 59.25 84.917969 59.25 85.582031 59.25 86.25 C 57.230469 88.769531 54.898438 90.9375 52.25 92.75 C 50.078125 93.972656 47.746094 94.808594 45.25 95.25 C 42.171875 94.765625 39.003906 94.433594 35.75 94.25 C 35.695312 93.941406 35.527344 93.691406 35.25 93.5 C 40.628906 92.957031 45.628906 91.371094 50.25 88.75 C 52.316406 87.800781 54.316406 86.714844 56.25 85.5 C 50.15625 85.160156 44.738281 83.078125 40 79.25 C 39.625 78.683594 39.707031 78.183594 40.25 77.75 C 42.136719 78.433594 43.972656 79.101562 45.75 79.75 Z M 45.75 79.75 "/>
<path style=" stroke:none;fill-rule:evenodd;fill:rgb(27.058824%,3.137255%,5.882353%);fill-opacity:1;" d="M 20.75 89.75 C 21.082031 89.917969 21.417969 90.082031 21.75 90.25 C 22.914062 91.332031 24.25 92.167969 25.75 92.75 C 25.75 92.917969 25.75 93.082031 25.75 93.25 C 23.519531 92.808594 21.851562 91.640625 20.75 89.75 Z M 20.75 89.75 "/>
<path style=" stroke:none;fill-rule:evenodd;fill:rgb(82.745098%,21.568627%,28.627451%);fill-opacity:1;" d="M 28.75 94.25 C 31.09375 94.835938 33.429688 94.835938 35.75 94.25 C 39.003906 94.433594 42.171875 94.765625 45.25 95.25 C 41.335938 96.261719 37.335938 96.511719 33.25 96 C 31.566406 95.746094 30.066406 95.164062 28.75 94.25 Z M 28.75 94.25 "/>
<use xlink:href="#surface32" mask="url(#mask9)"/>
</g>
</svg>
