<?xml version="1.0" encoding="UTF-8"?>
<svg xmlns="http://www.w3.org/2000/svg" xmlns:xlink="http://www.w3.org/1999/xlink" width="px" height="px" viewBox="0 0 96 105" version="1.1">
<defs>
<filter id="alpha" filterUnits="objectBoundingBox" x="0%" y="0%" width="100%" height="100%">
  <feColorMatrix type="matrix" in="SourceGraphic" values="0 0 0 0 1 0 0 0 0 1 0 0 0 0 1 0 0 0 1 0"/>
</filter>
<mask id="mask0">
  <g filter="url(#alpha)">
<rect x="0" y="0" width="96" height="105" style="fill:rgb(0%,0%,0%);fill-opacity:0.992157;stroke:none;"/>
  </g>
</mask>
<clipPath id="clip1">
  <rect x="0" y="0" width="96" height="105"/>
</clipPath>
<g id="surface5" clip-path="url(#clip1)">
<path style=" stroke:none;fill-rule:evenodd;fill:rgb(5.882353%,1.960784%,1.960784%);fill-opacity:1;" d="M 74.25 9.25 C 76.414062 11.644531 77.664062 14.476562 78 17.75 C 80.355469 19.355469 82.273438 21.355469 83.75 23.75 C 82.882812 24.003906 82.71875 24.421875 83.25 25 C 82.941406 26.136719 82.609375 27.222656 82.25 28.25 C 81.738281 23.070312 78.90625 19.902344 73.75 18.75 C 73.195312 18.722656 72.695312 18.554688 72.25 18.25 C 68.148438 17.359375 63.980469 17.023438 59.75 17.25 C 59.25 16.582031 58.75 15.917969 58.25 15.25 C 60.933594 15.304688 63.601562 15.136719 66.25 14.75 C 69.152344 14.605469 71.984375 14.9375 74.75 15.75 C 74.703125 14.605469 74.367188 13.605469 73.75 12.75 C 72.695312 10.382812 70.863281 8.964844 68.25 8.5 C 66.652344 8.097656 65.152344 8.179688 63.75 8.75 C 61.816406 9.515625 60.148438 10.679688 58.75 12.25 C 58.605469 11.675781 58.1875 11.34375 57.5 11.25 C 55.050781 10.660156 52.632812 10.828125 50.25 11.75 C 47 10.964844 43.832031 11.132812 40.75 12.25 C 41.472656 11.589844 41.804688 10.757812 41.75 9.75 C 40.238281 9.9375 38.738281 10.023438 37.25 10 C 40.929688 7.492188 44.929688 5.65625 49.25 4.5 C 51.308594 4.378906 53.308594 4.292969 55.25 4.25 C 53.210938 2.976562 50.960938 2.308594 48.5 2.25 C 45.097656 3.53125 41.597656 4.53125 38 5.25 C 37.3125 5.15625 36.894531 4.824219 36.75 4.25 C 39.03125 4.5625 40.863281 3.898438 42.25 2.25 C 42.957031 1.230469 43.957031 0.730469 45.25 0.75 C 50.65625 -0.695312 55.40625 0.46875 59.5 4.25 C 60.023438 5.355469 60.355469 6.523438 60.5 7.75 C 65.367188 5.496094 69.949219 5.996094 74.25 9.25 Z M 74.25 9.25 "/>
</g>
<mask id="mask1">
  <g filter="url(#alpha)">
<rect x="0" y="0" width="96" height="105" style="fill:rgb(0%,0%,0%);fill-opacity:0.0470588;stroke:none;"/>
  </g>
</mask>
<clipPath id="clip2">
  <rect x="0" y="0" width="96" height="105"/>
</clipPath>
<g id="surface8" clip-path="url(#clip2)">
<path style=" stroke:none;fill-rule:evenodd;fill:rgb(14.901961%,21.176471%,27.058824%);fill-opacity:1;" d="M 46.75 -0.25 C 48.917969 -0.25 51.082031 -0.25 53.25 -0.25 C 55.425781 0.421875 57.425781 1.507812 59.25 3 C 60.027344 4.148438 60.863281 5.230469 61.75 6.25 C 65.730469 5.34375 69.566406 5.761719 73.25 7.5 C 73.910156 7.90625 74.246094 8.492188 74.25 9.25 C 69.949219 5.996094 65.367188 5.496094 60.5 7.75 C 60.355469 6.523438 60.023438 5.355469 59.5 4.25 C 55.40625 0.46875 50.65625 -0.695312 45.25 0.75 C 45.75 0.417969 46.25 0.0820312 46.75 -0.25 Z M 46.75 -0.25 "/>
</g>
<mask id="mask2">
  <g filter="url(#alpha)">
<rect x="0" y="0" width="96" height="105" style="fill:rgb(0%,0%,0%);fill-opacity:0.176471;stroke:none;"/>
  </g>
</mask>
<clipPath id="clip3">
  <rect x="0" y="0" width="96" height="105"/>
</clipPath>
<g id="surface11" clip-path="url(#clip3)">
<path style=" stroke:none;fill-rule:evenodd;fill:rgb(15.294118%,21.568627%,26.666667%);fill-opacity:1;" d="M 74.25 9.25 C 75.183594 9.429688 75.933594 9.929688 76.5 10.75 C 77.566406 12.617188 78.234375 14.617188 78.5 16.75 C 79.851562 18.269531 81.351562 19.601562 83 20.75 C 83.75 22.007812 84.5 23.257812 85.25 24.5 C 87.324219 24.230469 89.324219 24.3125 91.25 24.75 C 89.0625 24.515625 87.0625 25.015625 85.25 26.25 C 84.839844 25.339844 84.339844 24.507812 83.75 23.75 C 82.273438 21.355469 80.355469 19.355469 78 17.75 C 77.664062 14.476562 76.414062 11.644531 74.25 9.25 Z M 74.25 9.25 "/>
</g>
<mask id="mask3">
  <g filter="url(#alpha)">
<rect x="0" y="0" width="96" height="105" style="fill:rgb(0%,0%,0%);fill-opacity:0.988235;stroke:none;"/>
  </g>
</mask>
<clipPath id="clip4">
  <rect x="0" y="0" width="96" height="105"/>
</clipPath>
<g id="surface14" clip-path="url(#clip4)">
<path style=" stroke:none;fill-rule:evenodd;fill:rgb(5.490196%,6.27451%,7.843137%);fill-opacity:1;" d="M 42.25 2.25 C 40.863281 3.898438 39.03125 4.5625 36.75 4.25 C 34.332031 3.339844 31.832031 3.089844 29.25 3.5 C 25.726562 5.519531 22.644531 8.101562 20 11.25 C 18.628906 13.667969 18.214844 16.167969 18.75 18.75 C 18.75 21.082031 19.917969 22.25 22.25 22.25 C 23.605469 23.054688 25.105469 23.636719 26.75 24 C 24.082031 24.167969 21.417969 24.332031 18.75 24.5 C 18.292969 24.640625 17.957031 24.890625 17.75 25.25 C 12.257812 27.660156 8.339844 31.660156 6 37.25 C 2.535156 44.917969 1.285156 52.914062 2.25 61.25 C 2.441406 63.546875 2.941406 65.710938 3.75 67.75 C 3.917969 68.417969 4.082031 69.082031 4.25 69.75 C 6.214844 74.253906 8.878906 78.335938 12.25 82 C 12.722656 82.242188 13.222656 82.324219 13.75 82.25 C 13.644531 83.863281 13.808594 85.527344 14.25 87.25 C 14.582031 87.917969 14.917969 88.582031 15.25 89.25 C 14.855469 89.390625 14.523438 89.640625 14.25 90 C 14.667969 90.503906 14.835938 91.089844 14.75 91.75 C 13.988281 91.285156 13.324219 90.699219 12.75 90 C 12.398438 88.4375 12.148438 86.851562 12 85.25 C 4.832031 78.410156 0.746094 70.078125 -0.25 60.25 C -0.25 57.25 -0.25 54.25 -0.25 51.25 C 0.472656 41.832031 3.972656 33.582031 10.25 26.5 C 12.5 24.621094 15 23.121094 17.75 22 C 17.148438 21.546875 16.734375 20.964844 16.5 20.25 C 15.578125 15.261719 16.828125 10.929688 20.25 7.25 C 21.75 6.082031 23.082031 4.75 24.25 3.25 C 29.289062 -0.535156 34.457031 -0.703125 39.75 2.75 C 40.535156 2.34375 41.367188 2.179688 42.25 2.25 Z M 42.25 2.25 "/>
</g>
<mask id="mask4">
  <g filter="url(#alpha)">
<rect x="0" y="0" width="96" height="105" style="fill:rgb(0%,0%,0%);fill-opacity:0.996078;stroke:none;"/>
  </g>
</mask>
<clipPath id="clip5">
  <rect x="0" y="0" width="96" height="105"/>
</clipPath>
<g id="surface17" clip-path="url(#clip5)">
<path style=" stroke:none;fill-rule:evenodd;fill:rgb(6.666667%,3.921569%,4.313725%);fill-opacity:1;" d="M 83.75 23.75 C 84.339844 24.507812 84.839844 25.339844 85.25 26.25 C 87.0625 25.015625 89.0625 24.515625 91.25 24.75 C 92.734375 24.871094 93.402344 25.707031 93.25 27.25 C 93.339844 28.699219 93.175781 30.117188 92.75 31.5 C 93.394531 32.535156 93.976562 33.617188 94.5 34.75 C 94.613281 38.242188 94.53125 41.742188 94.25 45.25 C 95.582031 47.582031 95.582031 49.917969 94.25 52.25 C 94.671875 56.234375 94.585938 60.234375 94 64.25 C 93.789062 64.835938 93.457031 65.335938 93 65.75 C 92.832031 67.917969 92.667969 70.082031 92.5 72.25 C 92.140625 72.523438 91.890625 72.855469 91.75 73.25 C 91.128906 73.523438 90.460938 73.6875 89.75 73.75 C 87.875 73.347656 86.042969 72.847656 84.25 72.25 C 84.25 72.917969 84.25 73.582031 84.25 74.25 C 84.121094 75.507812 83.707031 76.675781 83 77.75 C 81.578125 78.945312 80.160156 80.113281 78.75 81.25 C 77.929688 84.976562 76.261719 88.226562 73.75 91 C 70.082031 92.644531 66.25 93.144531 62.25 92.5 C 61.121094 92.226562 60.285156 91.640625 59.75 90.75 C 60.902344 90.503906 62.070312 90.335938 63.25 90.25 C 67.347656 91.027344 70.679688 89.859375 73.25 86.75 C 74.601562 85.488281 74.9375 83.988281 74.25 82.25 C 73.628906 82.472656 73.128906 82.804688 72.75 83.25 C 67.917969 83.917969 63.082031 83.917969 58.25 83.25 C 62.660156 82.835938 67.160156 82.585938 71.75 82.5 C 68.347656 82.058594 65.011719 81.640625 61.75 81.25 C 66.585938 81.65625 71.253906 80.992188 75.75 79.25 C 77.691406 78.640625 79.191406 77.472656 80.25 75.75 C 81.308594 74.460938 81.976562 72.960938 82.25 71.25 C 81.746094 69.242188 81.246094 67.242188 80.75 65.25 C 81.132812 64.867188 81.382812 64.367188 81.5 63.75 C 81.75 62.089844 81.832031 60.425781 81.75 58.75 C 82.929688 58.664062 84.097656 58.496094 85.25 58.25 C 85.25 52.082031 85.25 45.917969 85.25 39.75 C 84.105469 39.878906 83.019531 39.710938 82 39.25 C 81.75 37.589844 81.667969 35.925781 81.75 34.25 C 81.742188 33.46875 81.574219 32.71875 81.25 32 C 81.933594 30.839844 82.269531 29.589844 82.25 28.25 C 82.609375 27.222656 82.941406 26.136719 83.25 25 C 82.71875 24.421875 82.882812 24.003906 83.75 23.75 Z M 83.75 23.75 "/>
</g>
<mask id="mask5">
  <g filter="url(#alpha)">
<rect x="0" y="0" width="96" height="105" style="fill:rgb(0%,0%,0%);fill-opacity:0.0156863;stroke:none;"/>
  </g>
</mask>
<clipPath id="clip6">
  <rect x="0" y="0" width="96" height="105"/>
</clipPath>
<g id="surface20" clip-path="url(#clip6)">
<path style=" stroke:none;fill-rule:evenodd;fill:rgb(14.901961%,21.960784%,27.45098%);fill-opacity:1;" d="M 93.25 27.25 C 93.527344 29.597656 94.113281 31.929688 95 34.25 C 95.085938 36.839844 95.335938 39.339844 95.75 41.75 C 95.75 42.417969 95.75 43.082031 95.75 43.75 C 95.082031 44.75 95.082031 45.75 95.75 46.75 C 95.75 48.082031 95.75 49.417969 95.75 50.75 C 95.082031 51.917969 95.082031 53.082031 95.75 54.25 C 95.75 55.25 95.75 56.25 95.75 57.25 C 95.382812 61.785156 94.632812 66.285156 93.5 70.75 C 93.332031 71.417969 93.167969 72.082031 93 72.75 C 92.664062 73.125 92.246094 73.292969 91.75 73.25 C 91.890625 72.855469 92.140625 72.523438 92.5 72.25 C 92.667969 70.082031 92.832031 67.917969 93 65.75 C 93.457031 65.335938 93.789062 64.835938 94 64.25 C 94.585938 60.234375 94.671875 56.234375 94.25 52.25 C 95.582031 49.917969 95.582031 47.582031 94.25 45.25 C 94.53125 41.742188 94.613281 38.242188 94.5 34.75 C 93.976562 33.617188 93.394531 32.535156 92.75 31.5 C 93.175781 30.117188 93.339844 28.699219 93.25 27.25 Z M 93.25 27.25 "/>
</g>
<mask id="mask6">
  <g filter="url(#alpha)">
<rect x="0" y="0" width="96" height="105" style="fill:rgb(0%,0%,0%);fill-opacity:0.0117647;stroke:none;"/>
  </g>
</mask>
<clipPath id="clip7">
  <rect x="0" y="0" width="96" height="105"/>
</clipPath>
<g id="surface23" clip-path="url(#clip7)">
<path style=" stroke:none;fill-rule:evenodd;fill:rgb(13.72549%,22.745098%,28.235294%);fill-opacity:1;" d="M 91.75 73.25 C 91.332031 73.875 90.667969 74.207031 89.75 74.25 C 88.253906 74.1875 86.839844 73.855469 85.5 73.25 C 85.144531 73.691406 84.730469 74.023438 84.25 74.25 C 84.25 73.582031 84.25 72.917969 84.25 72.25 C 86.042969 72.847656 87.875 73.347656 89.75 73.75 C 90.460938 73.6875 91.128906 73.523438 91.75 73.25 Z M 91.75 73.25 "/>
</g>
<mask id="mask7">
  <g filter="url(#alpha)">
<rect x="0" y="0" width="96" height="105" style="fill:rgb(0%,0%,0%);fill-opacity:0.992157;stroke:none;"/>
  </g>
</mask>
<clipPath id="clip8">
  <rect x="0" y="0" width="96" height="105"/>
</clipPath>
<g id="surface26" clip-path="url(#clip8)">
<path style=" stroke:none;fill-rule:evenodd;fill:rgb(5.882353%,6.666667%,7.843137%);fill-opacity:1;" d="M 15.25 89.25 C 16.386719 89.71875 17.386719 90.386719 18.25 91.25 C 18.988281 92.199219 19.820312 93.03125 20.75 93.75 C 22.082031 95.417969 23.582031 96.917969 25.25 98.25 C 27.074219 99.46875 29.074219 100.304688 31.25 100.75 C 31.921875 101.398438 32.753906 101.8125 33.75 102 C 36.175781 102.40625 38.507812 102.324219 40.75 101.75 C 45.417969 101 49.25 98.835938 52.25 95.25 C 52.175781 95.777344 52.257812 96.277344 52.5 96.75 C 53.316406 96.917969 54.066406 96.585938 54.75 95.75 C 54.644531 96.460938 54.394531 97.128906 54 97.75 C 50.734375 101.175781 46.820312 103.507812 42.25 104.75 C 38.917969 104.75 35.582031 104.75 32.25 104.75 C 28.933594 103.675781 25.765625 102.175781 22.75 100.25 C 19.957031 97.460938 17.289062 94.625 14.75 91.75 C 14.835938 91.089844 14.667969 90.503906 14.25 90 C 14.523438 89.640625 14.855469 89.390625 15.25 89.25 Z M 15.25 89.25 "/>
</g>
<mask id="mask8">
  <g filter="url(#alpha)">
<rect x="0" y="0" width="96" height="105" style="fill:rgb(0%,0%,0%);fill-opacity:0.00392157;stroke:none;"/>
  </g>
</mask>
<clipPath id="clip9">
  <rect x="0" y="0" width="96" height="105"/>
</clipPath>
<g id="surface29" clip-path="url(#clip9)">
<path style=" stroke:none;fill-rule:evenodd;fill:rgb(12.941176%,21.960784%,27.45098%);fill-opacity:1;" d="M 59.75 90.75 C 58.886719 90.59375 58.054688 90.507812 57.25 90.5 C 56.910156 92.121094 56.242188 93.539062 55.25 94.75 C 55.71875 92.46875 56.46875 90.300781 57.5 88.25 C 58.257812 89.121094 59.007812 89.953125 59.75 90.75 Z M 59.75 90.75 "/>
</g>
</defs>
<g id="surface1">
<use xlink:href="#surface5" mask="url(#mask0)"/>
<path style=" stroke:none;fill-rule:evenodd;fill:rgb(12.54902%,4.705882%,5.098039%);fill-opacity:1;" d="M 40.75 12.25 C 36.796875 12.703125 34.464844 14.871094 33.75 18.75 C 34.828125 19 35.660156 19.5 36.25 20.25 C 35.292969 20.539062 34.460938 21.039062 33.75 21.75 C 32.507812 20.804688 31.007812 20.472656 29.25 20.75 C 30.113281 18.859375 30.777344 16.859375 31.25 14.75 C 30.347656 14.746094 29.511719 14.996094 28.75 15.5 C 27.660156 16.675781 26.492188 17.757812 25.25 18.75 C 24.226562 18.40625 23.394531 17.824219 22.75 17 C 24.089844 14.15625 26.003906 11.742188 28.5 9.75 C 28.75 9.25 29 8.75 29.25 8.25 C 28.917969 8.082031 28.582031 7.917969 28.25 7.75 C 24.808594 9.191406 22.140625 11.523438 20.25 14.75 C 19.945312 15.195312 19.777344 15.695312 19.75 16.25 C 19.035156 16.890625 18.699219 17.722656 18.75 18.75 C 18.214844 16.167969 18.628906 13.667969 20 11.25 C 22.644531 8.101562 25.726562 5.519531 29.25 3.5 C 31.832031 3.089844 34.332031 3.339844 36.75 4.25 C 36.894531 4.824219 37.3125 5.15625 38 5.25 C 41.597656 4.53125 45.097656 3.53125 48.5 2.25 C 50.960938 2.308594 53.210938 2.976562 55.25 4.25 C 53.308594 4.292969 51.308594 4.378906 49.25 4.5 C 44.929688 5.65625 40.929688 7.492188 37.25 10 C 38.738281 10.023438 40.238281 9.9375 41.75 9.75 C 41.804688 10.757812 41.472656 11.589844 40.75 12.25 Z M 40.75 12.25 "/>
<use xlink:href="#surface8" mask="url(#mask1)"/>
<path style=" stroke:none;fill-rule:evenodd;fill:rgb(2.745098%,0.392157%,0.392157%);fill-opacity:1;" d="M 58.75 12.25 C 58.75 12.582031 58.75 12.917969 58.75 13.25 C 58.28125 13.785156 58.117188 14.449219 58.25 15.25 C 58.75 15.917969 59.25 16.582031 59.75 17.25 C 58.75 17.25 57.75 17.25 56.75 17.25 C 50.03125 16.515625 43.699219 17.679688 37.75 20.75 C 37.105469 20.867188 36.605469 20.703125 36.25 20.25 C 35.660156 19.5 34.828125 19 33.75 18.75 C 34.464844 14.871094 36.796875 12.703125 40.75 12.25 C 43.832031 11.132812 47 10.964844 50.25 11.75 C 52.632812 10.828125 55.050781 10.660156 57.5 11.25 C 58.1875 11.34375 58.605469 11.675781 58.75 12.25 Z M 58.75 12.25 "/>
<use xlink:href="#surface11" mask="url(#mask2)"/>
<path style=" stroke:none;fill-rule:evenodd;fill:rgb(79.607843%,7.843137%,12.941176%);fill-opacity:1;" d="M 63.75 8.75 C 66.457031 8.691406 68.957031 9.355469 71.25 10.75 C 70.8125 11.125 70.3125 11.375 69.75 11.5 C 70.582031 12 71.417969 12.5 72.25 13 C 69.082031 13.167969 65.917969 13.332031 62.75 13.5 C 61.566406 13.867188 60.398438 14.285156 59.25 14.75 C 58.808594 14.335938 58.640625 13.835938 58.75 13.25 C 58.75 12.917969 58.75 12.582031 58.75 12.25 C 60.148438 10.679688 61.816406 9.515625 63.75 8.75 Z M 63.75 8.75 "/>
<path style=" stroke:none;fill-rule:evenodd;fill:rgb(67.058824%,4.313725%,10.588235%);fill-opacity:1;" d="M 63.75 8.75 C 65.152344 8.179688 66.652344 8.097656 68.25 8.5 C 70.863281 8.964844 72.695312 10.382812 73.75 12.75 C 73.882812 13.488281 73.714844 14.15625 73.25 14.75 C 70.851562 14.097656 68.519531 14.097656 66.25 14.75 C 63.601562 15.136719 60.933594 15.304688 58.25 15.25 C 58.117188 14.449219 58.28125 13.785156 58.75 13.25 C 58.640625 13.835938 58.808594 14.335938 59.25 14.75 C 60.398438 14.285156 61.566406 13.867188 62.75 13.5 C 65.917969 13.332031 69.082031 13.167969 72.25 13 C 71.417969 12.5 70.582031 12 69.75 11.5 C 70.3125 11.375 70.8125 11.125 71.25 10.75 C 68.957031 9.355469 66.457031 8.691406 63.75 8.75 Z M 63.75 8.75 "/>
<path style=" stroke:none;fill-rule:evenodd;fill:rgb(43.137255%,2.745098%,10.980392%);fill-opacity:1;" d="M 73.75 12.75 C 74.367188 13.605469 74.703125 14.605469 74.75 15.75 C 71.984375 14.9375 69.152344 14.605469 66.25 14.75 C 68.519531 14.097656 70.851562 14.097656 73.25 14.75 C 73.714844 14.15625 73.882812 13.488281 73.75 12.75 Z M 73.75 12.75 "/>
<path style=" stroke:none;fill-rule:evenodd;fill:rgb(72.156863%,52.54902%,38.431373%);fill-opacity:1;" d="M 20.25 14.75 C 21.222656 16.308594 21.558594 17.976562 21.25 19.75 C 19.953125 18.964844 19.453125 17.796875 19.75 16.25 C 19.777344 15.695312 19.945312 15.195312 20.25 14.75 Z M 20.25 14.75 "/>
<path style=" stroke:none;fill-rule:evenodd;fill:rgb(92.941176%,65.098039%,30.196078%);fill-opacity:1;" d="M 56.75 17.25 C 57.75 17.25 58.75 17.25 59.75 17.25 C 63.980469 17.023438 68.148438 17.359375 72.25 18.25 C 71.480469 18.582031 70.644531 18.914062 69.75 19.25 C 70.496094 19.570312 70.996094 20.070312 71.25 20.75 C 69.472656 19.945312 67.636719 19.277344 65.75 18.75 C 63.71875 18.652344 61.71875 18.820312 59.75 19.25 C 59.804688 18.941406 59.972656 18.691406 60.25 18.5 C 58.757812 18.25 57.257812 18.167969 55.75 18.25 C 56.082031 17.917969 56.417969 17.582031 56.75 17.25 Z M 56.75 17.25 "/>
<path style=" stroke:none;fill-rule:evenodd;fill:rgb(29.019608%,23.529412%,22.352941%);fill-opacity:1;" d="M 33.75 21.75 C 33.074219 23.253906 31.910156 23.921875 30.25 23.75 C 27.550781 23.378906 24.886719 22.878906 22.25 22.25 C 19.917969 22.25 18.75 21.082031 18.75 18.75 C 18.699219 17.722656 19.035156 16.890625 19.75 16.25 C 19.453125 17.796875 19.953125 18.964844 21.25 19.75 C 21.558594 17.976562 21.222656 16.308594 20.25 14.75 C 22.140625 11.523438 24.808594 9.191406 28.25 7.75 C 28.582031 7.917969 28.917969 8.082031 29.25 8.25 C 29 8.75 28.75 9.25 28.5 9.75 C 26.003906 11.742188 24.089844 14.15625 22.75 17 C 23.394531 17.824219 24.226562 18.40625 25.25 18.75 C 26.492188 17.757812 27.660156 16.675781 28.75 15.5 C 29.511719 14.996094 30.347656 14.746094 31.25 14.75 C 30.777344 16.859375 30.113281 18.859375 29.25 20.75 C 31.007812 20.472656 32.507812 20.804688 33.75 21.75 Z M 33.75 21.75 "/>
<path style=" stroke:none;fill-rule:evenodd;fill:rgb(10.980392%,8.235294%,5.882353%);fill-opacity:1;" d="M 65.75 18.75 C 66.367188 19.519531 67.199219 20.019531 68.25 20.25 C 68.886719 20.628906 68.886719 20.960938 68.25 21.25 C 65.339844 20.269531 62.339844 20.019531 59.25 20.5 C 58.792969 20.640625 58.460938 20.890625 58.25 21.25 C 57.917969 21.25 57.582031 21.25 57.25 21.25 C 56.417969 21.582031 55.582031 21.917969 54.75 22.25 C 56.082031 20.75 57.746094 19.75 59.75 19.25 C 61.71875 18.820312 63.71875 18.652344 65.75 18.75 Z M 65.75 18.75 "/>
<path style=" stroke:none;fill-rule:evenodd;fill:rgb(97.647059%,71.764706%,16.078431%);fill-opacity:1;" d="M 55.75 18.25 C 57.257812 18.167969 58.757812 18.25 60.25 18.5 C 59.972656 18.691406 59.804688 18.941406 59.75 19.25 C 57.746094 19.75 56.082031 20.75 54.75 22.25 C 53.09375 23.5625 51.925781 25.230469 51.25 27.25 C 50.328125 28.015625 49.828125 29.015625 49.75 30.25 C 49.082031 30.25 48.417969 30.25 47.75 30.25 C 46.894531 29.683594 46.558594 28.847656 46.75 27.75 C 48.398438 25.675781 49.980469 23.511719 51.5 21.25 C 52.640625 19.808594 54.054688 18.808594 55.75 18.25 Z M 55.75 18.25 "/>
<path style=" stroke:none;fill-rule:evenodd;fill:rgb(96.078431%,52.941176%,21.960784%);fill-opacity:1;" d="M 72.25 18.25 C 72.695312 18.554688 73.195312 18.722656 73.75 18.75 C 73.75 19.25 73.75 19.75 73.75 20.25 C 73.199219 20.800781 72.867188 21.46875 72.75 22.25 C 72.082031 21.917969 71.582031 21.417969 71.25 20.75 C 70.996094 20.070312 70.496094 19.570312 69.75 19.25 C 70.644531 18.914062 71.480469 18.582031 72.25 18.25 Z M 72.25 18.25 "/>
<use xlink:href="#surface14" mask="url(#mask3)"/>
<path style=" stroke:none;fill-rule:evenodd;fill:rgb(53.333333%,43.137255%,34.509804%);fill-opacity:1;" d="M 68.25 21.25 C 68.582031 21.582031 68.917969 21.917969 69.25 22.25 C 68.832031 22.421875 68.664062 22.753906 68.75 23.25 C 66.617188 22.019531 64.285156 21.519531 61.75 21.75 C 60.695312 21.265625 59.53125 21.097656 58.25 21.25 C 58.460938 20.890625 58.792969 20.640625 59.25 20.5 C 62.339844 20.019531 65.339844 20.269531 68.25 21.25 Z M 68.25 21.25 "/>
<path style=" stroke:none;fill-rule:evenodd;fill:rgb(89.411765%,14.509804%,17.254902%);fill-opacity:1;" d="M 56.75 17.25 C 56.417969 17.582031 56.082031 17.917969 55.75 18.25 C 54.054688 18.808594 52.640625 19.808594 51.5 21.25 C 49.980469 23.511719 48.398438 25.675781 46.75 27.75 C 42.859375 28.757812 39.027344 29.757812 35.25 30.75 C 34.082031 30.75 32.917969 30.75 31.75 30.75 C 31.820312 28.109375 32.820312 25.945312 34.75 24.25 C 35.394531 22.773438 36.394531 21.605469 37.75 20.75 C 43.699219 17.679688 50.03125 16.515625 56.75 17.25 Z M 56.75 17.25 "/>
<path style=" stroke:none;fill-rule:evenodd;fill:rgb(1.176471%,0.392157%,0.784314%);fill-opacity:1;" d="M 61.75 21.75 C 64.285156 21.519531 66.617188 22.019531 68.75 23.25 C 71.953125 25.839844 73.035156 29.171875 72 33.25 C 71.695312 34.078125 71.445312 34.910156 71.25 35.75 C 69.6875 37.980469 67.6875 39.648438 65.25 40.75 C 60.511719 41.132812 57.011719 39.300781 54.75 35.25 C 52.722656 28.472656 55.054688 23.972656 61.75 21.75 Z M 61.75 21.75 "/>
<use xlink:href="#surface17" mask="url(#mask4)"/>
<path style=" stroke:none;fill-rule:evenodd;fill:rgb(97.647059%,11.372549%,21.176471%);fill-opacity:1;" d="M 34.75 24.25 C 35.777344 23.203125 36.941406 23.035156 38.25 23.75 C 41.714844 22.132812 45.378906 21.300781 49.25 21.25 C 48.582031 23.082031 47.917969 24.917969 47.25 26.75 C 43.191406 27.320312 39.609375 28.320312 36.5 29.75 C 36.082031 29.667969 35.667969 29.582031 35.25 29.5 C 35 28.5 34.5 27.667969 33.75 27 C 34.230469 26.136719 34.566406 25.21875 34.75 24.25 Z M 34.75 24.25 "/>
<path style=" stroke:none;fill-rule:evenodd;fill:rgb(31.764706%,22.745098%,20.784314%);fill-opacity:1;" d="M 57.25 21.25 C 53.203125 24.847656 51.535156 29.347656 52.25 34.75 C 51.890625 34.542969 51.640625 34.207031 51.5 33.75 C 51.25 31.589844 51.167969 29.421875 51.25 27.25 C 51.925781 25.230469 53.09375 23.5625 54.75 22.25 C 55.582031 21.917969 56.417969 21.582031 57.25 21.25 Z M 57.25 21.25 "/>
<path style=" stroke:none;fill-rule:evenodd;fill:rgb(55.686275%,14.509804%,17.254902%);fill-opacity:1;" d="M 69.25 22.25 C 73.226562 25.191406 74.726562 29.023438 73.75 33.75 C 73.832031 32.40625 73.75 31.074219 73.5 29.75 C 73.078125 31.605469 72.578125 33.4375 72 35.25 C 71.808594 35.527344 71.558594 35.695312 71.25 35.75 C 71.445312 34.910156 71.695312 34.078125 72 33.25 C 73.035156 29.171875 71.953125 25.839844 68.75 23.25 C 68.664062 22.753906 68.832031 22.421875 69.25 22.25 Z M 69.25 22.25 "/>
<path style=" stroke:none;fill-rule:evenodd;fill:rgb(56.862745%,1.960784%,10.980392%);fill-opacity:1;" d="M 73.75 18.75 C 78.90625 19.902344 81.738281 23.070312 82.25 28.25 C 82.269531 29.589844 81.933594 30.839844 81.25 32 C 81.574219 32.71875 81.742188 33.46875 81.75 34.25 C 81.582031 34.25 81.417969 34.25 81.25 34.25 C 80.730469 33.605469 80.144531 33.605469 79.5 34.25 C 80.273438 30.664062 79.605469 27.328125 77.5 24.25 C 76.132812 22.96875 74.882812 21.636719 73.75 20.25 C 73.75 19.75 73.75 19.25 73.75 18.75 Z M 73.75 18.75 "/>
<path style=" stroke:none;fill-rule:evenodd;fill:rgb(61.568627%,58.431373%,57.254902%);fill-opacity:1;" d="M 57.25 21.25 C 57.582031 21.25 57.917969 21.25 58.25 21.25 C 59.53125 21.097656 60.695312 21.265625 61.75 21.75 C 55.054688 23.972656 52.722656 28.472656 54.75 35.25 C 54.695312 35.558594 54.527344 35.808594 54.25 36 C 55.390625 37.199219 56.058594 38.617188 56.25 40.25 C 54.550781 38.683594 53.214844 36.847656 52.25 34.75 C 51.535156 29.347656 53.203125 24.847656 57.25 21.25 Z M 57.25 21.25 "/>
<path style=" stroke:none;fill-rule:evenodd;fill:rgb(14.509804%,3.137255%,1.960784%);fill-opacity:1;" d="M 65.75 18.75 C 67.636719 19.277344 69.472656 19.945312 71.25 20.75 C 71.582031 21.417969 72.082031 21.917969 72.75 22.25 C 74.191406 23.796875 75.105469 25.628906 75.5 27.75 C 76.386719 32.828125 75.300781 37.414062 72.25 41.5 C 70.878906 42.519531 69.378906 43.269531 67.75 43.75 C 68.3125 43.175781 68.3125 42.675781 67.75 42.25 C 71.269531 40.554688 73.269531 37.71875 73.75 33.75 C 74.726562 29.023438 73.226562 25.191406 69.25 22.25 C 68.917969 21.917969 68.582031 21.582031 68.25 21.25 C 68.886719 20.960938 68.886719 20.628906 68.25 20.25 C 67.199219 20.019531 66.367188 19.519531 65.75 18.75 Z M 65.75 18.75 "/>
<path style=" stroke:none;fill-rule:evenodd;fill:rgb(72.941176%,66.27451%,61.176471%);fill-opacity:1;" d="M 87.25 26.75 C 88.417969 26.75 89.582031 26.75 90.75 26.75 C 90.75 28.082031 90.75 29.417969 90.75 30.75 C 88.324219 30.820312 85.992188 30.820312 83.75 30.75 C 84.226562 28.773438 85.394531 27.441406 87.25 26.75 Z M 87.25 26.75 "/>
<path style=" stroke:none;fill-rule:evenodd;fill:rgb(4.313725%,1.568627%,1.568627%);fill-opacity:1;" d="M 36.25 20.25 C 36.605469 20.703125 37.105469 20.867188 37.75 20.75 C 36.394531 21.605469 35.394531 22.773438 34.75 24.25 C 32.820312 25.945312 31.820312 28.109375 31.75 30.75 C 32.917969 30.75 34.082031 30.75 35.25 30.75 C 37.019531 30.59375 38.6875 30.761719 40.25 31.25 C 34.503906 32.574219 28.667969 33.074219 22.75 32.75 C 22.417969 32.75 22.25 32.917969 22.25 33.25 C 21.761719 32.605469 21.261719 32.605469 20.75 33.25 C 14.308594 39.679688 12.226562 47.34375 14.5 56.25 C 15.382812 59.707031 17.296875 62.375 20.25 64.25 C 20.738281 64.90625 21.238281 65.574219 21.75 66.25 C 21.339844 67.054688 20.671875 67.390625 19.75 67.25 C 19.417969 66.917969 19.082031 66.582031 18.75 66.25 C 13.230469 61.539062 10.730469 55.539062 11.25 48.25 C 11.996094 45.441406 12.828125 42.605469 13.75 39.75 C 15.410156 36.167969 17.910156 33.25 21.25 31 C 21.082031 30.832031 20.917969 30.667969 20.75 30.5 C 23.707031 30.40625 26.625 30.15625 29.5 29.75 C 29.671875 28.890625 29.921875 28.058594 30.25 27.25 C 28.589844 25.6875 26.589844 24.855469 24.25 24.75 C 23.851562 24.976562 23.683594 25.3125 23.75 25.75 C 21 25.695312 19.832031 27.027344 20.25 29.75 C 19.90625 30.386719 19.488281 30.386719 19 29.75 C 19.035156 28.003906 18.617188 26.503906 17.75 25.25 C 17.957031 24.890625 18.292969 24.640625 18.75 24.5 C 21.417969 24.332031 24.082031 24.167969 26.75 24 C 25.105469 23.636719 23.605469 23.054688 22.25 22.25 C 24.886719 22.878906 27.550781 23.378906 30.25 23.75 C 31.910156 23.921875 33.074219 23.253906 33.75 21.75 C 34.460938 21.039062 35.292969 20.539062 36.25 20.25 Z M 36.25 20.25 "/>
<path style=" stroke:none;fill-rule:evenodd;fill:rgb(47.45098%,42.745098%,42.352941%);fill-opacity:1;" d="M 45.25 30.75 C 38.183594 34.457031 30.683594 35.621094 22.75 34.25 C 22.75 33.75 22.75 33.25 22.75 32.75 C 28.667969 33.074219 34.503906 32.574219 40.25 31.25 C 41.972656 30.925781 43.554688 30.257812 45 29.25 C 45.242188 29.722656 45.324219 30.222656 45.25 30.75 Z M 45.25 30.75 "/>
<path style=" stroke:none;fill-rule:evenodd;fill:rgb(19.215686%,10.588235%,8.627451%);fill-opacity:1;" d="M 13.75 39.75 C 12.828125 40.515625 12.328125 41.515625 12.25 42.75 C 11.75 42.75 11.25 42.75 10.75 42.75 C 10.515625 40.933594 10.847656 39.269531 11.75 37.75 C 11.582031 37.25 11.25 36.917969 10.75 36.75 C 6.710938 41.871094 4.378906 47.621094 3.75 54 C 3.980469 54.207031 4.144531 54.457031 4.25 54.75 C 3.945312 55.855469 3.613281 56.9375 3.25 58 C 3.480469 58.207031 3.644531 58.457031 3.75 58.75 C 3.609375 59.878906 3.109375 60.714844 2.25 61.25 C 1.285156 52.914062 2.535156 44.917969 6 37.25 C 8.339844 31.660156 12.257812 27.660156 17.75 25.25 C 18.617188 26.503906 19.035156 28.003906 19 29.75 C 19.488281 30.386719 19.90625 30.386719 20.25 29.75 C 21.949219 29.910156 23.617188 29.742188 25.25 29.25 C 24.84375 28.027344 24.34375 26.859375 23.75 25.75 C 23.683594 25.3125 23.851562 24.976562 24.25 24.75 C 26.589844 24.855469 28.589844 25.6875 30.25 27.25 C 29.921875 28.058594 29.671875 28.890625 29.5 29.75 C 26.625 30.15625 23.707031 30.40625 20.75 30.5 C 20.917969 30.667969 21.082031 30.832031 21.25 31 C 17.910156 33.25 15.410156 36.167969 13.75 39.75 Z M 13.75 39.75 "/>
<path style=" stroke:none;fill-rule:evenodd;fill:rgb(39.215686%,32.941176%,29.803922%);fill-opacity:1;" d="M 23.75 25.75 C 24.34375 26.859375 24.84375 28.027344 25.25 29.25 C 23.617188 29.742188 21.949219 29.910156 20.25 29.75 C 19.832031 27.027344 21 25.695312 23.75 25.75 Z M 23.75 25.75 "/>
<path style=" stroke:none;fill-rule:evenodd;fill:rgb(67.843137%,43.529412%,23.529412%);fill-opacity:1;" d="M 51.25 27.25 C 51.167969 29.421875 51.25 31.589844 51.5 33.75 C 51.640625 34.207031 51.890625 34.542969 52.25 34.75 C 52.75 36.417969 53.25 38.082031 53.75 39.75 C 52.019531 38.292969 50.519531 36.625 49.25 34.75 C 48.566406 33.351562 48.066406 31.851562 47.75 30.25 C 48.417969 30.25 49.082031 30.25 49.75 30.25 C 49.828125 29.015625 50.328125 28.015625 51.25 27.25 Z M 51.25 27.25 "/>
<path style=" stroke:none;fill-rule:evenodd;fill:rgb(26.27451%,20.392157%,19.607843%);fill-opacity:1;" d="M 45.25 30.75 C 46.460938 32.003906 47.296875 33.503906 47.75 35.25 C 47.367188 35.632812 47.117188 36.132812 47 36.75 C 46.71875 36.488281 46.386719 36.324219 46 36.25 C 37.300781 38.941406 28.382812 39.941406 19.25 39.25 C 19.457031 36.835938 20.457031 34.835938 22.25 33.25 C 22.25 32.917969 22.417969 32.75 22.75 32.75 C 22.75 33.25 22.75 33.75 22.75 34.25 C 30.683594 35.621094 38.183594 34.457031 45.25 30.75 Z M 45.25 30.75 "/>
<path style=" stroke:none;fill-rule:evenodd;fill:rgb(65.882353%,59.215686%,56.470588%);fill-opacity:1;" d="M 84.25 33.25 C 86.550781 32.550781 88.882812 32.632812 91.25 33.5 C 92.535156 35.011719 92.535156 36.429688 91.25 37.75 C 91.449219 36.257812 91.113281 34.925781 90.25 33.75 C 88.285156 33.285156 86.285156 33.117188 84.25 33.25 Z M 84.25 33.25 "/>
<path style=" stroke:none;fill-rule:evenodd;fill:rgb(93.333333%,5.490196%,16.862745%);fill-opacity:1;" d="M 73.75 20.25 C 74.882812 21.636719 76.132812 22.96875 77.5 24.25 C 79.605469 27.328125 80.273438 30.664062 79.5 34.25 C 80.144531 33.605469 80.730469 33.605469 81.25 34.25 C 81.167969 36.089844 81.25 37.925781 81.5 39.75 C 82.519531 40.210938 83.605469 40.378906 84.75 40.25 C 84.75 41.25 84.75 42.25 84.75 43.25 C 84.082031 40.730469 83.5 40.730469 83 43.25 C 82.628906 42.714844 82.128906 42.378906 81.5 42.25 C 79.671875 42.53125 77.921875 42.863281 76.25 43.25 C 74.769531 44.980469 73.183594 46.648438 71.5 48.25 C 71.253906 48.898438 71.171875 49.5625 71.25 50.25 C 71.953125 51.976562 72.289062 53.808594 72.25 55.75 C 71.582031 55.75 70.917969 55.75 70.25 55.75 C 69.582031 55.582031 68.917969 55.417969 68.25 55.25 C 67.753906 51.507812 67.585938 47.675781 67.75 43.75 C 69.378906 43.269531 70.878906 42.519531 72.25 41.5 C 75.300781 37.414062 76.386719 32.828125 75.5 27.75 C 75.105469 25.628906 74.191406 23.796875 72.75 22.25 C 72.867188 21.46875 73.199219 20.800781 73.75 20.25 Z M 73.75 20.25 "/>
<path style=" stroke:none;fill-rule:evenodd;fill:rgb(83.921569%,76.862745%,73.72549%);fill-opacity:1;" d="M 84.25 33.25 C 86.285156 33.117188 88.285156 33.285156 90.25 33.75 C 91.113281 34.925781 91.449219 36.257812 91.25 37.75 C 88.917969 37.75 86.582031 37.75 84.25 37.75 C 84.25 36.25 84.25 34.75 84.25 33.25 Z M 84.25 33.25 "/>
<path style=" stroke:none;fill-rule:evenodd;fill:rgb(46.666667%,45.098039%,47.45098%);fill-opacity:1;" d="M 47.75 35.25 C 48.082031 36.082031 48.417969 36.917969 48.75 37.75 C 44.386719 39.046875 39.886719 40.132812 35.25 41 C 29.523438 41.382812 24.023438 41.300781 18.75 40.75 C 18.632812 40.105469 18.796875 39.605469 19.25 39.25 C 28.382812 39.941406 37.300781 38.941406 46 36.25 C 46.386719 36.324219 46.71875 36.488281 47 36.75 C 47.117188 36.132812 47.367188 35.632812 47.75 35.25 Z M 47.75 35.25 "/>
<path style=" stroke:none;fill-rule:evenodd;fill:rgb(67.843137%,16.470588%,21.568627%);fill-opacity:1;" d="M 73.75 33.75 C 73.269531 37.71875 71.269531 40.554688 67.75 42.25 C 67.25 42.25 66.75 42.25 66.25 42.25 C 64.996094 42.183594 64.664062 41.683594 65.25 40.75 C 67.6875 39.648438 69.6875 37.980469 71.25 35.75 C 71.558594 35.695312 71.808594 35.527344 72 35.25 C 72.578125 33.4375 73.078125 31.605469 73.5 29.75 C 73.75 31.074219 73.832031 32.40625 73.75 33.75 Z M 73.75 33.75 "/>
<path style=" stroke:none;fill-rule:evenodd;fill:rgb(91.372549%,65.882353%,40.392157%);fill-opacity:1;" d="M 49.25 34.75 C 50.519531 36.625 52.019531 38.292969 53.75 39.75 C 54.25 40.417969 54.75 41.082031 55.25 41.75 C 54.753906 41.792969 54.335938 41.625 54 41.25 C 53.859375 41.707031 53.609375 42.042969 53.25 42.25 C 51.050781 40.214844 49.714844 37.714844 49.25 34.75 Z M 49.25 34.75 "/>
<path style=" stroke:none;fill-rule:evenodd;fill:rgb(34.901961%,29.019608%,25.490196%);fill-opacity:1;" d="M 52.25 34.75 C 53.214844 36.847656 54.550781 38.683594 56.25 40.25 C 56.917969 40.917969 57.582031 41.582031 58.25 42.25 C 57.832031 42.421875 57.664062 42.753906 57.75 43.25 C 56.792969 42.960938 55.960938 42.460938 55.25 41.75 C 54.75 41.082031 54.25 40.417969 53.75 39.75 C 53.25 38.082031 52.75 36.417969 52.25 34.75 Z M 52.25 34.75 "/>
<path style=" stroke:none;fill-rule:evenodd;fill:rgb(64.705882%,47.843137%,45.098039%);fill-opacity:1;" d="M 54.75 35.25 C 57.011719 39.300781 60.511719 41.132812 65.25 40.75 C 64.664062 41.683594 64.996094 42.183594 66.25 42.25 C 65.269531 43.007812 64.101562 43.34375 62.75 43.25 C 61.152344 43.277344 59.652344 42.941406 58.25 42.25 C 57.582031 41.582031 56.917969 40.917969 56.25 40.25 C 56.058594 38.617188 55.390625 37.199219 54.25 36 C 54.527344 35.808594 54.695312 35.558594 54.75 35.25 Z M 54.75 35.25 "/>
<path style=" stroke:none;fill-rule:evenodd;fill:rgb(81.176471%,72.54902%,68.235294%);fill-opacity:1;" d="M 87.25 39.75 C 88.59375 39.667969 89.925781 39.75 91.25 40 C 92.625 41.507812 92.457031 42.839844 90.75 44 C 89.75 44.332031 88.75 44.332031 87.75 44 C 87.277344 42.640625 87.113281 41.222656 87.25 39.75 Z M 87.25 39.75 "/>
<path style=" stroke:none;fill-rule:evenodd;fill:rgb(98.431373%,29.019608%,17.647059%);fill-opacity:1;" d="M 55.25 41.75 C 55.960938 42.460938 56.792969 42.960938 57.75 43.25 C 57.75 43.417969 57.75 43.582031 57.75 43.75 C 58.25 46.582031 57.082031 47.75 54.25 47.25 C 51.820312 45.605469 49.820312 45.9375 48.25 48.25 C 47.558594 48.019531 47.226562 47.519531 47.25 46.75 C 47.6875 45.433594 48.023438 44.101562 48.25 42.75 C 49.582031 42.75 50.917969 42.75 52.25 42.75 C 52.746094 42.835938 53.078125 42.667969 53.25 42.25 C 53.609375 42.042969 53.859375 41.707031 54 41.25 C 54.335938 41.625 54.753906 41.792969 55.25 41.75 Z M 55.25 41.75 "/>
<path style=" stroke:none;fill-rule:evenodd;fill:rgb(5.098039%,0.392157%,0.392157%);fill-opacity:1;" d="M 76.25 43.25 C 81.609375 43.277344 82.609375 45.359375 79.25 49.5 C 79.636719 50.386719 80.21875 51.136719 81 51.75 C 81.007812 54.574219 79.589844 55.824219 76.75 55.5 C 74.652344 53.984375 72.820312 52.234375 71.25 50.25 C 71.171875 49.5625 71.253906 48.898438 71.5 48.25 C 73.183594 46.648438 74.769531 44.980469 76.25 43.25 Z M 76.25 43.25 "/>
<path style=" stroke:none;fill-rule:evenodd;fill:rgb(18.039216%,9.803922%,8.235294%);fill-opacity:1;" d="M 22.25 33.25 C 20.457031 34.835938 19.457031 36.835938 19.25 39.25 C 18.796875 39.605469 18.632812 40.105469 18.75 40.75 C 18.023438 43.210938 17.691406 45.792969 17.75 48.5 C 17.671875 51.046875 18.003906 53.460938 18.75 55.75 C 18.75 56.082031 18.75 56.417969 18.75 56.75 C 19.101562 59.144531 19.933594 61.3125 21.25 63.25 C 21.417969 63.582031 21.582031 63.917969 21.75 64.25 C 21.25 64.25 20.75 64.25 20.25 64.25 C 17.296875 62.375 15.382812 59.707031 14.5 56.25 C 12.226562 47.34375 14.308594 39.679688 20.75 33.25 C 21.261719 32.605469 21.761719 32.605469 22.25 33.25 Z M 22.25 33.25 "/>
<path style=" stroke:none;fill-rule:evenodd;fill:rgb(80%,11.764706%,12.156863%);fill-opacity:1;" d="M 52.25 42.75 C 50.917969 42.75 49.582031 42.75 48.25 42.75 C 48.023438 44.101562 47.6875 45.433594 47.25 46.75 C 47.226562 47.519531 47.558594 48.019531 48.25 48.25 C 48.25 48.417969 48.25 48.582031 48.25 48.75 C 47.804688 49.054688 47.304688 49.222656 46.75 49.25 C 46.804688 48.941406 46.972656 48.691406 47.25 48.5 C 44.835938 48.085938 44.25 46.835938 45.5 44.75 C 46.691406 43.390625 48.023438 42.222656 49.5 41.25 C 50.429688 41.804688 51.347656 42.304688 52.25 42.75 Z M 52.25 42.75 "/>
<path style=" stroke:none;fill-rule:evenodd;fill:rgb(75.686275%,69.803922%,66.666667%);fill-opacity:1;" d="M 87.25 46.25 C 88.925781 46.167969 90.589844 46.25 92.25 46.5 C 93.746094 50.839844 92.246094 52.503906 87.75 51.5 C 87.273438 49.804688 87.105469 48.054688 87.25 46.25 Z M 87.25 46.25 "/>
<path style=" stroke:none;fill-rule:evenodd;fill:rgb(28.627451%,22.352941%,21.176471%);fill-opacity:1;" d="M 48.75 37.75 C 50.125 39 49.789062 39.75 47.75 40 C 46 41.75 44.25 43.5 42.5 45.25 C 41.578125 46.339844 40.996094 47.589844 40.75 49 C 41.960938 53.960938 44.960938 57.210938 49.75 58.75 C 49.886719 59.691406 49.550781 60.355469 48.75 60.75 C 48.691406 60.207031 48.355469 59.875 47.75 59.75 C 39.113281 57.0625 30.28125 55.398438 21.25 54.75 C 20.179688 54.777344 19.347656 55.113281 18.75 55.75 C 18.003906 53.460938 17.671875 51.046875 17.75 48.5 C 17.691406 45.792969 18.023438 43.210938 18.75 40.75 C 24.023438 41.300781 29.523438 41.382812 35.25 41 C 39.886719 40.132812 44.386719 39.046875 48.75 37.75 Z M 48.75 37.75 "/>
<path style=" stroke:none;fill-rule:evenodd;fill:rgb(47.058824%,46.27451%,46.666667%);fill-opacity:1;" d="M 26.75 47.75 C 29.921875 47.667969 33.085938 47.75 36.25 48 C 38.8125 48.550781 38.8125 49.21875 36.25 50 C 31.570312 50.285156 26.902344 50.117188 22.25 49.5 C 21.847656 49.347656 21.511719 49.097656 21.25 48.75 C 23.15625 48.417969 24.988281 48.082031 26.75 47.75 Z M 26.75 47.75 "/>
<path style=" stroke:none;fill-rule:evenodd;fill:rgb(77.254902%,19.607843%,21.568627%);fill-opacity:1;" d="M 81.25 34.25 C 81.417969 34.25 81.582031 34.25 81.75 34.25 C 81.667969 35.925781 81.75 37.589844 82 39.25 C 83.019531 39.710938 84.105469 39.878906 85.25 39.75 C 85.25 45.917969 85.25 52.082031 85.25 58.25 C 84.097656 58.496094 82.929688 58.664062 81.75 58.75 C 82.320312 58.332031 82.988281 57.996094 83.75 57.75 C 84.148438 56.960938 84.398438 56.128906 84.5 55.25 C 84.75 51.253906 84.832031 47.253906 84.75 43.25 C 84.75 42.25 84.75 41.25 84.75 40.25 C 83.605469 40.378906 82.519531 40.210938 81.5 39.75 C 81.25 37.925781 81.167969 36.089844 81.25 34.25 Z M 81.25 34.25 "/>
<path style=" stroke:none;fill-rule:evenodd;fill:rgb(99.607843%,59.215686%,12.941176%);fill-opacity:1;" d="M 54.25 47.25 C 55.675781 48.773438 56.09375 50.609375 55.5 52.75 C 54.371094 55.171875 52.621094 56.003906 50.25 55.25 C 49.917969 55.082031 49.582031 54.917969 49.25 54.75 C 48.5 52.828125 48.164062 50.828125 48.25 48.75 C 48.25 48.582031 48.25 48.417969 48.25 48.25 C 49.820312 45.9375 51.820312 45.605469 54.25 47.25 Z M 54.25 47.25 "/>
<path style=" stroke:none;fill-rule:evenodd;fill:rgb(94.901961%,38.431373%,9.803922%);fill-opacity:1;" d="M 48.25 48.75 C 48.164062 50.828125 48.5 52.828125 49.25 54.75 C 48.386719 54.441406 47.636719 53.941406 47 53.25 C 46.601562 52.050781 46.019531 50.964844 45.25 50 C 45.707031 49.859375 46.042969 49.609375 46.25 49.25 C 46.417969 49.25 46.582031 49.25 46.75 49.25 C 47.304688 49.222656 47.804688 49.054688 48.25 48.75 Z M 48.25 48.75 "/>
<path style=" stroke:none;fill-rule:evenodd;fill:rgb(9.019608%,3.137255%,2.352941%);fill-opacity:1;" d="M 46.75 27.75 C 46.558594 28.847656 46.894531 29.683594 47.75 30.25 C 48.066406 31.851562 48.566406 33.351562 49.25 34.75 C 49.714844 37.714844 51.050781 40.214844 53.25 42.25 C 53.078125 42.667969 52.746094 42.835938 52.25 42.75 C 51.347656 42.304688 50.429688 41.804688 49.5 41.25 C 48.023438 42.222656 46.691406 43.390625 45.5 44.75 C 44.25 46.835938 44.835938 48.085938 47.25 48.5 C 46.972656 48.691406 46.804688 48.941406 46.75 49.25 C 46.582031 49.25 46.417969 49.25 46.25 49.25 C 45.75 49.25 45.25 49.25 44.75 49.25 C 44.789062 52.328125 46.125 54.664062 48.75 56.25 C 49.917969 56.582031 51.082031 56.917969 52.25 57.25 C 52.25 57.417969 52.25 57.582031 52.25 57.75 C 51.335938 58.574219 50.671875 59.574219 50.25 60.75 C 49.261719 62.515625 48.429688 64.351562 47.75 66.25 C 47.359375 67.773438 47.195312 69.273438 47.25 70.75 C 42.6875 69.203125 38.019531 68.035156 33.25 67.25 C 32.75 67.25 32.25 67.25 31.75 67.25 C 31.65625 69.019531 31.988281 70.683594 32.75 72.25 C 33.910156 74.074219 35.242188 75.738281 36.75 77.25 C 36.882812 78.050781 36.71875 78.714844 36.25 79.25 C 35.242188 78.734375 34.242188 78.234375 33.25 77.75 C 33.632812 77.367188 34.132812 77.117188 34.75 77 C 34.582031 75.5 33.75 74.667969 32.25 74.5 C 31.957031 73.847656 31.625 73.265625 31.25 72.75 C 30.46875 72.867188 29.800781 73.199219 29.25 73.75 C 29.253906 72.992188 29.589844 72.40625 30.25 72 C 29.976562 71.640625 29.644531 71.390625 29.25 71.25 C 30.007812 70.40625 30.675781 69.492188 31.25 68.5 C 30.507812 68.375 30.007812 67.707031 29.75 66.5 C 30.757812 66.246094 31.757812 65.996094 32.75 65.75 C 36.476562 66.105469 40.144531 66.773438 43.75 67.75 C 44.285156 68.21875 44.949219 68.382812 45.75 68.25 C 46.652344 66.339844 47.316406 64.339844 47.75 62.25 C 48.199219 61.855469 48.535156 61.355469 48.75 60.75 C 49.550781 60.355469 49.886719 59.691406 49.75 58.75 C 44.960938 57.210938 41.960938 53.960938 40.75 49 C 40.996094 47.589844 41.578125 46.339844 42.5 45.25 C 44.25 43.5 46 41.75 47.75 40 C 49.789062 39.75 50.125 39 48.75 37.75 C 48.417969 36.917969 48.082031 36.082031 47.75 35.25 C 47.296875 33.503906 46.460938 32.003906 45.25 30.75 C 45.324219 30.222656 45.242188 29.722656 45 29.25 C 43.554688 30.257812 41.972656 30.925781 40.25 31.25 C 38.6875 30.761719 37.019531 30.59375 35.25 30.75 C 39.027344 29.757812 42.859375 28.757812 46.75 27.75 Z M 46.75 27.75 "/>
<path style=" stroke:none;fill-rule:evenodd;fill:rgb(51.764706%,34.117647%,36.862745%);fill-opacity:1;" d="M 57.75 43.75 C 57.75 43.582031 57.75 43.417969 57.75 43.25 C 58.304688 43.277344 58.804688 43.445312 59.25 43.75 C 59.25 47.917969 59.25 52.082031 59.25 56.25 C 58.917969 56.417969 58.582031 56.582031 58.25 56.75 C 58.449219 54.507812 58.617188 52.257812 58.75 50 C 58.804688 47.785156 58.46875 45.703125 57.75 43.75 Z M 57.75 43.75 "/>
<use xlink:href="#surface20" mask="url(#mask5)"/>
<path style=" stroke:none;fill-rule:evenodd;fill:rgb(80%,22.352941%,5.882353%);fill-opacity:1;" d="M 46.25 49.25 C 46.042969 49.609375 45.707031 49.859375 45.25 50 C 46.019531 50.964844 46.601562 52.050781 47 53.25 C 47.636719 53.941406 48.386719 54.441406 49.25 54.75 C 49.582031 54.917969 49.917969 55.082031 50.25 55.25 C 50.582031 55.582031 50.917969 55.917969 51.25 56.25 C 50.417969 56.25 49.582031 56.25 48.75 56.25 C 46.125 54.664062 44.789062 52.328125 44.75 49.25 C 45.25 49.25 45.75 49.25 46.25 49.25 Z M 46.25 49.25 "/>
<path style=" stroke:none;fill-rule:evenodd;fill:rgb(78.431373%,72.941176%,70.196078%);fill-opacity:1;" d="M 87.75 53.25 C 92.496094 52.570312 93.828125 54.320312 91.75 58.5 C 90.285156 58.886719 88.867188 58.804688 87.5 58.25 C 87.125 56.539062 87.210938 54.871094 87.75 53.25 Z M 87.75 53.25 "/>
<path style=" stroke:none;fill-rule:evenodd;fill:rgb(32.941176%,36.470588%,41.568627%);fill-opacity:1;" d="M 59.25 43.75 C 59.996094 46.039062 60.328125 48.457031 60.25 51 C 60.167969 52.582031 60.082031 54.167969 60 55.75 C 59.808594 56.027344 59.558594 56.195312 59.25 56.25 C 59.25 52.082031 59.25 47.917969 59.25 43.75 Z M 59.25 43.75 "/>
<path style=" stroke:none;fill-rule:evenodd;fill:rgb(96.470588%,52.156863%,15.294118%);fill-opacity:1;" d="M 57.75 43.75 C 58.46875 45.703125 58.804688 47.785156 58.75 50 C 58.617188 52.257812 58.449219 54.507812 58.25 56.75 C 57.121094 57.207031 56.121094 57.875 55.25 58.75 C 54.25 58.417969 53.25 58.082031 52.25 57.75 C 52.25 57.582031 52.25 57.417969 52.25 57.25 C 52.523438 57.21875 52.6875 57.054688 52.75 56.75 C 52.335938 56.308594 51.835938 56.140625 51.25 56.25 C 50.917969 55.917969 50.582031 55.582031 50.25 55.25 C 52.621094 56.003906 54.371094 55.171875 55.5 52.75 C 56.09375 50.609375 55.675781 48.773438 54.25 47.25 C 57.082031 47.75 58.25 46.582031 57.75 43.75 Z M 57.75 43.75 "/>
<path style=" stroke:none;fill-rule:evenodd;fill:rgb(11.372549%,6.27451%,7.45098%);fill-opacity:1;" d="M 58.25 42.25 C 59.652344 42.941406 61.152344 43.277344 62.75 43.25 C 64.101562 43.34375 65.269531 43.007812 66.25 42.25 C 66.75 42.25 67.25 42.25 67.75 42.25 C 68.3125 42.675781 68.3125 43.175781 67.75 43.75 C 67.585938 47.675781 67.753906 51.507812 68.25 55.25 C 68.8125 55.929688 68.8125 56.597656 68.25 57.25 C 65.570312 56.191406 62.902344 56.023438 60.25 56.75 C 59.753906 56.835938 59.421875 56.667969 59.25 56.25 C 59.558594 56.195312 59.808594 56.027344 60 55.75 C 60.082031 54.167969 60.167969 52.582031 60.25 51 C 60.328125 48.457031 59.996094 46.039062 59.25 43.75 C 58.804688 43.445312 58.304688 43.277344 57.75 43.25 C 57.664062 42.753906 57.832031 42.421875 58.25 42.25 Z M 58.25 42.25 "/>
<path style=" stroke:none;fill-rule:evenodd;fill:rgb(72.941176%,23.921569%,27.843137%);fill-opacity:1;" d="M 61.75 44.25 C 62.917969 44.25 64.082031 44.25 65.25 44.25 C 65.25 47.917969 65.25 51.582031 65.25 55.25 C 64.082031 55.25 62.917969 55.25 61.75 55.25 C 61.75 51.582031 61.75 47.917969 61.75 44.25 Z M 61.75 44.25 "/>
<path style=" stroke:none;fill-rule:evenodd;fill:rgb(45.882353%,12.54902%,3.137255%);fill-opacity:1;" d="M 48.75 56.25 C 49.582031 56.25 50.417969 56.25 51.25 56.25 C 51.835938 56.140625 52.335938 56.308594 52.75 56.75 C 52.6875 57.054688 52.523438 57.21875 52.25 57.25 C 51.082031 56.917969 49.917969 56.582031 48.75 56.25 Z M 48.75 56.25 "/>
<path style=" stroke:none;fill-rule:evenodd;fill:rgb(27.843137%,21.568627%,20.392157%);fill-opacity:1;" d="M 18.75 56.75 C 23.4375 56.917969 28.101562 57.335938 32.75 58 C 37.851562 59.109375 42.851562 60.523438 47.75 62.25 C 47.316406 64.339844 46.652344 66.339844 45.75 68.25 C 44.949219 68.382812 44.285156 68.21875 43.75 67.75 C 43.035156 66.851562 41.867188 66.101562 40.25 65.5 C 34.03125 63.097656 27.699219 62.347656 21.25 63.25 C 19.933594 61.3125 19.101562 59.144531 18.75 56.75 Z M 18.75 56.75 "/>
<path style=" stroke:none;fill-rule:evenodd;fill:rgb(45.098039%,43.921569%,45.098039%);fill-opacity:1;" d="M 48.75 60.75 C 48.535156 61.355469 48.199219 61.855469 47.75 62.25 C 42.851562 60.523438 37.851562 59.109375 32.75 58 C 28.101562 57.335938 23.4375 56.917969 18.75 56.75 C 18.75 56.417969 18.75 56.082031 18.75 55.75 C 19.347656 55.113281 20.179688 54.777344 21.25 54.75 C 30.28125 55.398438 39.113281 57.0625 47.75 59.75 C 48.355469 59.875 48.691406 60.207031 48.75 60.75 Z M 48.75 60.75 "/>
<path style=" stroke:none;fill-rule:evenodd;fill:rgb(69.411765%,33.333333%,30.196078%);fill-opacity:1;" d="M 65.75 57.25 C 65.917969 57.25 66.082031 57.25 66.25 57.25 C 67.457031 58.617188 68.625 59.953125 69.75 61.25 C 68.75 60.582031 67.75 59.917969 66.75 59.25 C 66.695312 58.941406 66.527344 58.691406 66.25 58.5 C 64.417969 58.332031 62.582031 58.167969 60.75 58 C 62.308594 57.296875 63.976562 57.046875 65.75 57.25 Z M 65.75 57.25 "/>
<path style=" stroke:none;fill-rule:evenodd;fill:rgb(32.156863%,27.843137%,28.235294%);fill-opacity:1;" d="M 11.25 48.25 C 10.730469 55.539062 13.230469 61.539062 18.75 66.25 C 17.101562 67.003906 15.601562 66.753906 14.25 65.5 C 9.625 59.960938 8.457031 53.710938 10.75 46.75 C 11.191406 47.164062 11.359375 47.664062 11.25 48.25 Z M 11.25 48.25 "/>
<path style=" stroke:none;fill-rule:evenodd;fill:rgb(16.470588%,5.098039%,3.529412%);fill-opacity:1;" d="M 68.25 55.25 C 68.917969 55.417969 69.582031 55.582031 70.25 55.75 C 75.242188 59.882812 77.074219 65.21875 75.75 71.75 C 75.222656 72.964844 74.558594 74.132812 73.75 75.25 C 69.925781 79.207031 65.261719 80.542969 59.75 79.25 C 63.585938 79.246094 67.253906 78.328125 70.75 76.5 C 71.191406 76.144531 71.523438 75.730469 71.75 75.25 C 74.097656 71.800781 74.847656 67.96875 74 63.75 C 72.398438 60.398438 69.816406 58.230469 66.25 57.25 C 66.082031 57.25 65.917969 57.25 65.75 57.25 C 64.019531 56.757812 62.183594 56.59375 60.25 56.75 C 62.902344 56.023438 65.570312 56.191406 68.25 57.25 C 68.8125 56.597656 68.8125 55.929688 68.25 55.25 Z M 68.25 55.25 "/>
<path style=" stroke:none;fill-rule:evenodd;fill:rgb(55.294118%,42.745098%,41.960784%);fill-opacity:1;" d="M 60.25 56.75 C 62.183594 56.59375 64.019531 56.757812 65.75 57.25 C 63.976562 57.046875 62.308594 57.296875 60.75 58 C 62.582031 58.167969 64.417969 58.332031 66.25 58.5 C 66.527344 58.691406 66.695312 58.941406 66.75 59.25 C 63.300781 58.226562 60.132812 58.726562 57.25 60.75 C 56.894531 60.296875 56.394531 60.132812 55.75 60.25 C 57.105469 58.890625 58.605469 57.726562 60.25 56.75 Z M 60.25 56.75 "/>
<path style=" stroke:none;fill-rule:evenodd;fill:rgb(1.176471%,0.392157%,0.784314%);fill-opacity:1;" d="M 66.75 59.25 C 67.75 59.917969 68.75 60.582031 69.75 61.25 C 73.113281 65.992188 72.945312 70.65625 69.25 75.25 C 67.4375 76.410156 65.4375 77.078125 63.25 77.25 C 56.605469 76.015625 53.691406 72.015625 54.5 65.25 C 55.164062 63.585938 56.082031 62.085938 57.25 60.75 C 60.132812 58.726562 63.300781 58.226562 66.75 59.25 Z M 66.75 59.25 "/>
<path style=" stroke:none;fill-rule:evenodd;fill:rgb(92.54902%,11.764706%,18.823529%);fill-opacity:1;" d="M 84.75 43.25 C 84.832031 47.253906 84.75 51.253906 84.5 55.25 C 84.398438 56.128906 84.148438 56.960938 83.75 57.75 C 82.988281 57.996094 82.320312 58.332031 81.75 58.75 C 81.832031 60.425781 81.75 62.089844 81.5 63.75 C 81.382812 64.367188 81.132812 64.867188 80.75 65.25 C 80.4375 65.457031 80.273438 65.792969 80.25 66.25 C 80.617188 67.828125 80.949219 69.410156 81.25 71 C 81.222656 72.265625 80.722656 73.265625 79.75 74 C 80.167969 74.503906 80.335938 75.089844 80.25 75.75 C 79.191406 77.472656 77.691406 78.640625 75.75 79.25 C 75.761719 78.402344 76.097656 77.734375 76.75 77.25 C 77.917969 76.410156 78.417969 75.246094 78.25 73.75 C 77.210938 73.847656 76.210938 73.933594 75.25 74 C 75.691406 73.320312 75.855469 72.570312 75.75 71.75 C 77.074219 65.21875 75.242188 59.882812 70.25 55.75 C 70.917969 55.75 71.582031 55.75 72.25 55.75 C 72.289062 53.808594 71.953125 51.976562 71.25 50.25 C 72.820312 52.234375 74.652344 53.984375 76.75 55.5 C 79.589844 55.824219 81.007812 54.574219 81 51.75 C 80.21875 51.136719 79.636719 50.386719 79.25 49.5 C 82.609375 45.359375 81.609375 43.277344 76.25 43.25 C 77.921875 42.863281 79.671875 42.53125 81.5 42.25 C 82.128906 42.378906 82.628906 42.714844 83 43.25 C 83.5 40.730469 84.082031 40.730469 84.75 43.25 Z M 84.75 43.25 "/>
<path style=" stroke:none;fill-rule:evenodd;fill:rgb(29.803922%,21.176471%,16.862745%);fill-opacity:1;" d="M 59.25 56.25 C 59.421875 56.667969 59.753906 56.835938 60.25 56.75 C 58.605469 57.726562 57.105469 58.890625 55.75 60.25 C 52.039062 64.855469 51.789062 69.691406 55 74.75 C 55.851562 75.6875 56.769531 76.519531 57.75 77.25 C 57.917969 77.582031 58.082031 77.917969 58.25 78.25 C 57.695312 78.222656 57.195312 78.054688 56.75 77.75 C 55.402344 76.738281 54.238281 75.570312 53.25 74.25 C 51.964844 70.886719 51.464844 67.386719 51.75 63.75 C 52.664062 61.925781 53.832031 60.261719 55.25 58.75 C 56.121094 57.875 57.121094 57.207031 58.25 56.75 C 58.582031 56.582031 58.917969 56.417969 59.25 56.25 Z M 59.25 56.25 "/>
<path style=" stroke:none;fill-rule:evenodd;fill:rgb(68.235294%,17.254902%,19.607843%);fill-opacity:1;" d="M 66.25 57.25 C 69.816406 58.230469 72.398438 60.398438 74 63.75 C 74.847656 67.96875 74.097656 71.800781 71.75 75.25 C 70.917969 75.25 70.082031 75.25 69.25 75.25 C 72.945312 70.65625 73.113281 65.992188 69.75 61.25 C 68.625 59.953125 67.457031 58.617188 66.25 57.25 Z M 66.25 57.25 "/>
<path style=" stroke:none;fill-rule:evenodd;fill:rgb(80.784314%,73.333333%,69.019608%);fill-opacity:1;" d="M 83.75 60.75 C 86.582031 60.75 89.417969 60.75 92.25 60.75 C 92.53125 63.882812 91.113281 65.550781 88 65.75 C 86.679688 65.671875 85.429688 65.339844 84.25 64.75 C 83.761719 63.457031 83.59375 62.125 83.75 60.75 Z M 83.75 60.75 "/>
<path style=" stroke:none;fill-rule:evenodd;fill:rgb(92.941176%,65.098039%,26.666667%);fill-opacity:1;" d="M 52.25 57.75 C 53.25 58.082031 54.25 58.417969 55.25 58.75 C 53.832031 60.261719 52.664062 61.925781 51.75 63.75 C 50.933594 60.445312 50.765625 60.445312 51.25 63.75 C 50.234375 64.964844 49.398438 66.296875 48.75 67.75 C 48.316406 68.230469 47.984375 68.230469 47.75 67.75 C 48.0625 67.292969 48.230469 66.792969 48.25 66.25 C 48.824219 66.105469 49.15625 65.6875 49.25 65 C 49.808594 63.632812 50.140625 62.21875 50.25 60.75 C 50.671875 59.574219 51.335938 58.574219 52.25 57.75 Z M 52.25 57.75 "/>
<path style=" stroke:none;fill-rule:evenodd;fill:rgb(49.019608%,48.235294%,49.019608%);fill-opacity:1;" d="M 43.75 67.75 C 40.144531 66.773438 36.476562 66.105469 32.75 65.75 C 29.148438 65.097656 25.484375 64.597656 21.75 64.25 C 21.582031 63.917969 21.417969 63.582031 21.25 63.25 C 27.699219 62.347656 34.03125 63.097656 40.25 65.5 C 41.867188 66.101562 43.035156 66.851562 43.75 67.75 Z M 43.75 67.75 "/>
<path style=" stroke:none;fill-rule:evenodd;fill:rgb(67.843137%,47.058824%,24.705882%);fill-opacity:1;" d="M 50.25 60.75 C 50.140625 62.21875 49.808594 63.632812 49.25 65 C 49.15625 65.6875 48.824219 66.105469 48.25 66.25 C 48.082031 66.25 47.917969 66.25 47.75 66.25 C 48.429688 64.351562 49.261719 62.515625 50.25 60.75 Z M 50.25 60.75 "/>
<path style=" stroke:none;fill-rule:evenodd;fill:rgb(91.764706%,63.529412%,12.54902%);fill-opacity:1;" d="M 51.75 63.75 C 51.464844 67.386719 51.964844 70.886719 53.25 74.25 C 52.582031 74.082031 51.917969 73.917969 51.25 73.75 C 50.914062 73.367188 50.496094 73.03125 50 72.75 C 49.527344 71.078125 49.113281 69.410156 48.75 67.75 C 49.398438 66.296875 50.234375 64.964844 51.25 63.75 C 50.765625 60.445312 50.933594 60.445312 51.75 63.75 Z M 51.75 63.75 "/>
<path style=" stroke:none;fill-rule:evenodd;fill:rgb(80%,73.333333%,69.019608%);fill-opacity:1;" d="M 83.75 66.75 C 86.066406 67.113281 88.398438 67.28125 90.75 67.25 C 90.832031 68.59375 90.75 69.925781 90.5 71.25 C 88.523438 71.488281 86.609375 71.074219 84.75 70 C 84.164062 68.996094 83.832031 67.914062 83.75 66.75 Z M 83.75 66.75 "/>
<path style=" stroke:none;fill-rule:evenodd;fill:rgb(59.607843%,59.607843%,60.784314%);fill-opacity:1;" d="M 55.75 60.25 C 56.394531 60.132812 56.894531 60.296875 57.25 60.75 C 56.082031 62.085938 55.164062 63.585938 54.5 65.25 C 53.691406 72.015625 56.605469 76.015625 63.25 77.25 C 62.871094 77.695312 62.371094 78.027344 61.75 78.25 C 60.527344 77.472656 59.195312 77.140625 57.75 77.25 C 56.769531 76.519531 55.851562 75.6875 55 74.75 C 51.789062 69.691406 52.039062 64.855469 55.75 60.25 Z M 55.75 60.25 "/>
<path style=" stroke:none;fill-rule:evenodd;fill:rgb(90.980392%,27.843137%,20%);fill-opacity:1;" d="M 33.25 67.25 C 38.019531 68.035156 42.6875 69.203125 47.25 70.75 C 46.882812 71.355469 46.714844 72.019531 46.75 72.75 C 44.6875 70.09375 41.6875 69.175781 37.75 70 C 38.1875 70.792969 38.855469 71.292969 39.75 71.5 C 39.417969 71.667969 39.082031 71.832031 38.75 72 C 39.539062 72.351562 40.289062 72.769531 41 73.25 C 41.328125 74.570312 41.910156 75.738281 42.75 76.75 C 42.582031 76.75 42.417969 76.75 42.25 76.75 C 38.886719 73.886719 35.886719 70.722656 33.25 67.25 Z M 33.25 67.25 "/>
<path style=" stroke:none;fill-rule:evenodd;fill:rgb(39.215686%,35.294118%,35.294118%);fill-opacity:1;" d="M 4.25 69.75 C 4.082031 69.082031 3.917969 68.417969 3.75 67.75 C 3.71875 67.53125 3.800781 67.363281 4 67.25 C 6.128906 70.378906 8.628906 73.214844 11.5 75.75 C 11.746094 76.398438 11.828125 77.0625 11.75 77.75 C 10.367188 77.628906 9.285156 76.960938 8.5 75.75 C 7.195312 73.628906 5.777344 71.628906 4.25 69.75 Z M 4.25 69.75 "/>
<path style=" stroke:none;fill-rule:evenodd;fill:rgb(78.039216%,13.72549%,17.254902%);fill-opacity:1;" d="M 80.75 65.25 C 81.246094 67.242188 81.746094 69.242188 82.25 71.25 C 81.976562 72.960938 81.308594 74.460938 80.25 75.75 C 80.335938 75.089844 80.167969 74.503906 79.75 74 C 80.722656 73.265625 81.222656 72.265625 81.25 71 C 80.949219 69.410156 80.617188 67.828125 80.25 66.25 C 80.273438 65.792969 80.4375 65.457031 80.75 65.25 Z M 80.75 65.25 "/>
<path style=" stroke:none;fill-rule:evenodd;fill:rgb(23.137255%,12.941176%,8.235294%);fill-opacity:1;" d="M 29.25 71.25 C 29.644531 71.390625 29.976562 71.640625 30.25 72 C 29.589844 72.40625 29.253906 72.992188 29.25 73.75 C 28.640625 74.726562 27.808594 75.476562 26.75 76 C 24.605469 76.675781 22.605469 77.425781 20.75 78.25 C 20.28125 77.714844 20.117188 77.050781 20.25 76.25 C 24.257812 76.414062 27.257812 74.746094 29.25 71.25 Z M 29.25 71.25 "/>
<path style=" stroke:none;fill-rule:evenodd;fill:rgb(98.431373%,77.647059%,36.078431%);fill-opacity:1;" d="M 47.75 66.25 C 47.917969 66.25 48.082031 66.25 48.25 66.25 C 48.230469 66.792969 48.0625 67.292969 47.75 67.75 C 47.984375 68.230469 48.316406 68.230469 48.75 67.75 C 49.113281 69.410156 49.527344 71.078125 50 72.75 C 50.496094 73.03125 50.914062 73.367188 51.25 73.75 C 51.714844 75.207031 52.382812 76.539062 53.25 77.75 C 51.367188 75.699219 49.203125 74.035156 46.75 72.75 C 46.714844 72.019531 46.882812 71.355469 47.25 70.75 C 47.195312 69.273438 47.359375 67.773438 47.75 66.25 Z M 47.75 66.25 "/>
<use xlink:href="#surface23" mask="url(#mask6)"/>
<path style=" stroke:none;fill-rule:evenodd;fill:rgb(99.607843%,72.156863%,30.588235%);fill-opacity:1;" d="M 33.25 67.25 C 35.886719 70.722656 38.886719 73.886719 42.25 76.75 C 42.316406 77.121094 42.230469 77.453125 42 77.75 C 38.765625 77.328125 36.179688 75.660156 34.25 72.75 C 33.835938 72.308594 33.335938 72.140625 32.75 72.25 C 31.988281 70.683594 31.65625 69.019531 31.75 67.25 C 32.25 67.25 32.75 67.25 33.25 67.25 Z M 33.25 67.25 "/>
<path style=" stroke:none;fill-rule:evenodd;fill:rgb(95.294118%,17.254902%,22.352941%);fill-opacity:1;" d="M 46.75 72.75 C 49.203125 74.035156 51.367188 75.699219 53.25 77.75 C 53.917969 78.75 54.75 79.582031 55.75 80.25 C 55.75 80.417969 55.75 80.582031 55.75 80.75 C 51.992188 80.914062 48.324219 80.746094 44.75 80.25 C 46.09375 80.332031 47.425781 80.25 48.75 80 C 46.753906 78.867188 44.753906 77.78125 42.75 76.75 C 41.910156 75.738281 41.328125 74.570312 41 73.25 C 40.289062 72.769531 39.539062 72.351562 38.75 72 C 39.082031 71.832031 39.417969 71.667969 39.75 71.5 C 38.855469 71.292969 38.1875 70.792969 37.75 70 C 41.6875 69.175781 44.6875 70.09375 46.75 72.75 Z M 46.75 72.75 "/>
<path style=" stroke:none;fill-rule:evenodd;fill:rgb(97.647059%,46.27451%,29.411765%);fill-opacity:1;" d="M 75.75 71.75 C 75.855469 72.570312 75.691406 73.320312 75.25 74 C 76.210938 73.933594 77.210938 73.847656 78.25 73.75 C 78.417969 75.246094 77.917969 76.410156 76.75 77.25 C 76.75 76.582031 76.75 75.917969 76.75 75.25 C 75.75 75.25 74.75 75.25 73.75 75.25 C 74.558594 74.132812 75.222656 72.964844 75.75 71.75 Z M 75.75 71.75 "/>
<path style=" stroke:none;fill-rule:evenodd;fill:rgb(98.039216%,75.686275%,16.862745%);fill-opacity:1;" d="M 51.25 73.75 C 51.917969 73.917969 52.582031 74.082031 53.25 74.25 C 54.238281 75.570312 55.402344 76.738281 56.75 77.75 C 56.851562 78.523438 57.183594 79.1875 57.75 79.75 C 57.15625 80.214844 56.488281 80.382812 55.75 80.25 C 54.75 79.582031 53.917969 78.75 53.25 77.75 C 52.382812 76.539062 51.714844 75.207031 51.25 73.75 Z M 51.25 73.75 "/>
<path style=" stroke:none;fill-rule:evenodd;fill:rgb(21.960784%,14.901961%,13.333333%);fill-opacity:1;" d="M 13.75 39.75 C 12.828125 42.605469 11.996094 45.441406 11.25 48.25 C 11.359375 47.664062 11.191406 47.164062 10.75 46.75 C 8.457031 53.710938 9.625 59.960938 14.25 65.5 C 15.601562 66.753906 17.101562 67.003906 18.75 66.25 C 19.082031 66.582031 19.417969 66.917969 19.75 67.25 C 18.871094 69.382812 17.871094 71.464844 16.75 73.5 C 17.398438 74.652344 18.234375 75.652344 19.25 76.5 C 17.996094 79.003906 16.160156 80.921875 13.75 82.25 C 13.222656 82.324219 12.722656 82.242188 12.25 82 C 8.878906 78.335938 6.214844 74.253906 4.25 69.75 C 5.777344 71.628906 7.195312 73.628906 8.5 75.75 C 9.285156 76.960938 10.367188 77.628906 11.75 77.75 C 11.828125 77.0625 11.746094 76.398438 11.5 75.75 C 8.628906 73.214844 6.128906 70.378906 4 67.25 C 3.800781 67.363281 3.71875 67.53125 3.75 67.75 C 2.941406 65.710938 2.441406 63.546875 2.25 61.25 C 3.109375 60.714844 3.609375 59.878906 3.75 58.75 C 3.644531 58.457031 3.480469 58.207031 3.25 58 C 3.613281 56.9375 3.945312 55.855469 4.25 54.75 C 4.144531 54.457031 3.980469 54.207031 3.75 54 C 4.378906 47.621094 6.710938 41.871094 10.75 36.75 C 11.25 36.917969 11.582031 37.25 11.75 37.75 C 10.847656 39.269531 10.515625 40.933594 10.75 42.75 C 11.25 42.75 11.75 42.75 12.25 42.75 C 12.328125 41.515625 12.828125 40.515625 13.75 39.75 Z M 13.75 39.75 "/>
<path style=" stroke:none;fill-rule:evenodd;fill:rgb(36.862745%,33.72549%,33.72549%);fill-opacity:1;" d="M 7.25 44.75 C 5.84375 53.515625 7.429688 61.851562 12 69.75 C 12.882812 71.011719 13.882812 72.175781 15 73.25 C 15.390625 74.160156 15.140625 74.824219 14.25 75.25 C 12.785156 74.535156 11.535156 73.535156 10.5 72.25 C 6.628906 66.394531 4.878906 59.894531 5.25 52.75 C 5.332031 51.082031 5.417969 49.417969 5.5 47.75 C 6.222656 46.804688 6.804688 45.804688 7.25 44.75 Z M 7.25 44.75 "/>
<path style=" stroke:none;fill-rule:evenodd;fill:rgb(96.862745%,58.431373%,23.137255%);fill-opacity:1;" d="M 32.75 72.25 C 33.335938 72.140625 33.835938 72.308594 34.25 72.75 C 36.179688 75.660156 38.765625 77.328125 42 77.75 C 42.230469 77.453125 42.316406 77.121094 42.25 76.75 C 42.417969 76.75 42.582031 76.75 42.75 76.75 C 44.753906 77.78125 46.753906 78.867188 48.75 80 C 47.425781 80.25 46.09375 80.332031 44.75 80.25 C 44.082031 80.25 43.417969 80.25 42.75 80.25 C 40.65625 79.503906 38.65625 78.503906 36.75 77.25 C 35.242188 75.738281 33.910156 74.074219 32.75 72.25 Z M 32.75 72.25 "/>
<path style=" stroke:none;fill-rule:evenodd;fill:rgb(60%,49.803922%,42.745098%);fill-opacity:1;" d="M 69.25 75.25 C 70.082031 75.25 70.917969 75.25 71.75 75.25 C 71.523438 75.730469 71.191406 76.144531 70.75 76.5 C 67.253906 78.328125 63.585938 79.246094 59.75 79.25 C 58.988281 79.285156 58.488281 78.953125 58.25 78.25 C 58.082031 77.917969 57.917969 77.582031 57.75 77.25 C 59.195312 77.140625 60.527344 77.472656 61.75 78.25 C 62.371094 78.027344 62.871094 77.695312 63.25 77.25 C 65.4375 77.078125 67.4375 76.410156 69.25 75.25 Z M 69.25 75.25 "/>
<path style=" stroke:none;fill-rule:evenodd;fill:rgb(97.647059%,65.490196%,32.54902%);fill-opacity:1;" d="M 73.75 75.25 C 74.75 75.25 75.75 75.25 76.75 75.25 C 76.75 75.917969 76.75 76.582031 76.75 77.25 C 76.097656 77.734375 75.761719 78.402344 75.75 79.25 C 71.253906 80.992188 66.585938 81.65625 61.75 81.25 C 59.757812 80.988281 57.757812 80.824219 55.75 80.75 C 55.75 80.582031 55.75 80.417969 55.75 80.25 C 56.488281 80.382812 57.15625 80.214844 57.75 79.75 C 57.183594 79.1875 56.851562 78.523438 56.75 77.75 C 57.195312 78.054688 57.695312 78.222656 58.25 78.25 C 58.488281 78.953125 58.988281 79.285156 59.75 79.25 C 65.261719 80.542969 69.925781 79.207031 73.75 75.25 Z M 73.75 75.25 "/>
<path style=" stroke:none;fill-rule:evenodd;fill:rgb(5.882353%,3.137255%,2.352941%);fill-opacity:1;" d="M 20.25 64.25 C 20.75 64.25 21.25 64.25 21.75 64.25 C 25.484375 64.597656 29.148438 65.097656 32.75 65.75 C 31.757812 65.996094 30.757812 66.246094 29.75 66.5 C 30.007812 67.707031 30.507812 68.375 31.25 68.5 C 30.675781 69.492188 30.007812 70.40625 29.25 71.25 C 27.257812 74.746094 24.257812 76.414062 20.25 76.25 C 20.117188 77.050781 20.28125 77.714844 20.75 78.25 C 21.296875 78.789062 21.964844 79.125 22.75 79.25 C 25.652344 78.507812 28.234375 77.175781 30.5 75.25 C 31.003906 74.488281 31.253906 73.652344 31.25 72.75 C 31.625 73.265625 31.957031 73.847656 32.25 74.5 C 33.75 74.667969 34.582031 75.5 34.75 77 C 34.132812 77.117188 33.632812 77.367188 33.25 77.75 C 31.714844 79.289062 30.046875 80.621094 28.25 81.75 C 26.375 82.269531 24.542969 82.933594 22.75 83.75 C 21.933594 83.476562 21.097656 83.308594 20.25 83.25 C 19.683594 82.761719 19.183594 82.179688 18.75 81.5 C 15.335938 81.835938 13.835938 83.753906 14.25 87.25 C 13.808594 85.527344 13.644531 83.863281 13.75 82.25 C 16.160156 80.921875 17.996094 79.003906 19.25 76.5 C 18.234375 75.652344 17.398438 74.652344 16.75 73.5 C 17.871094 71.464844 18.871094 69.382812 19.75 67.25 C 20.671875 67.390625 21.339844 67.054688 21.75 66.25 C 21.238281 65.574219 20.738281 64.90625 20.25 64.25 Z M 20.25 64.25 "/>
<path style=" stroke:none;fill-rule:evenodd;fill:rgb(72.941176%,54.117647%,34.901961%);fill-opacity:1;" d="M 31.25 72.75 C 31.253906 73.652344 31.003906 74.488281 30.5 75.25 C 28.234375 77.175781 25.652344 78.507812 22.75 79.25 C 21.964844 79.125 21.296875 78.789062 20.75 78.25 C 22.605469 77.425781 24.605469 76.675781 26.75 76 C 27.808594 75.476562 28.640625 74.726562 29.25 73.75 C 29.800781 73.199219 30.46875 72.867188 31.25 72.75 Z M 31.25 72.75 "/>
<path style=" stroke:none;fill-rule:evenodd;fill:rgb(39.607843%,34.117647%,30.588235%);fill-opacity:1;" d="M 20.75 69.25 C 21.226562 69.726562 21.726562 70.226562 22.25 70.75 C 21.644531 72.03125 21.3125 73.199219 21.25 74.25 C 20.023438 74.0625 19.523438 73.3125 19.75 72 C 19.699219 70.910156 20.03125 69.992188 20.75 69.25 Z M 20.75 69.25 "/>
<path style=" stroke:none;fill-rule:evenodd;fill:rgb(17.647059%,10.980392%,9.411765%);fill-opacity:1;" d="M 21.25 74.25 C 21.3125 73.199219 21.644531 72.03125 22.25 70.75 C 21.726562 70.226562 21.226562 69.726562 20.75 69.25 C 21.144531 68.601562 21.644531 68.019531 22.25 67.5 C 24.222656 66.90625 26.222656 66.742188 28.25 67 C 26.851562 69.726562 25.183594 72.226562 23.25 74.5 C 22.46875 74.882812 21.800781 74.800781 21.25 74.25 Z M 21.25 74.25 "/>
<path style=" stroke:none;fill-rule:evenodd;fill:rgb(2.745098%,0.784314%,0.784314%);fill-opacity:1;" d="M 42.75 80.25 C 43.417969 80.25 44.082031 80.25 44.75 80.25 C 48.324219 80.746094 51.992188 80.914062 55.75 80.75 C 57.757812 80.824219 59.757812 80.988281 61.75 81.25 C 65.011719 81.640625 68.347656 82.058594 71.75 82.5 C 67.160156 82.585938 62.660156 82.835938 58.25 83.25 C 57.699219 83.800781 57.617188 84.46875 58 85.25 C 59.039062 87.707031 60.789062 89.375 63.25 90.25 C 62.070312 90.335938 60.902344 90.503906 59.75 90.75 C 59.007812 89.953125 58.257812 89.121094 57.5 88.25 C 56.46875 90.300781 55.71875 92.46875 55.25 94.75 C 55.335938 95.246094 55.167969 95.578125 54.75 95.75 C 54.066406 96.585938 53.316406 96.917969 52.5 96.75 C 52.257812 96.277344 52.175781 95.777344 52.25 95.25 C 52.25 95.082031 52.25 94.917969 52.25 94.75 C 52.90625 93.78125 53.570312 92.78125 54.25 91.75 C 54 91.582031 53.75 91.417969 53.5 91.25 C 49.304688 92.328125 45.054688 93.078125 40.75 93.5 C 41.652344 93.660156 41.816406 93.992188 41.25 94.5 C 42.125 94.734375 42.957031 95.070312 43.75 95.5 C 42.972656 95.605469 42.304688 95.855469 41.75 96.25 C 40.75 96.25 39.75 96.25 38.75 96.25 C 36.257812 95.609375 33.921875 94.523438 31.75 93 C 33.746094 92.914062 35.746094 92.996094 37.75 93.25 C 37.390625 91.964844 36.890625 90.714844 36.25 89.5 C 36.722656 89.191406 37.140625 89.273438 37.5 89.75 C 37.695312 89.285156 38.027344 88.953125 38.5 88.75 C 40.355469 88.464844 42.105469 87.882812 43.75 87 C 42 86.039062 40.332031 84.957031 38.75 83.75 C 39.164062 83.308594 39.664062 83.140625 40.25 83.25 C 40.320312 82.367188 40.15625 81.535156 39.75 80.75 C 40.699219 80.265625 41.699219 80.101562 42.75 80.25 Z M 42.75 80.25 "/>
<path style=" stroke:none;fill-rule:evenodd;fill:rgb(81.176471%,1.176471%,7.843137%);fill-opacity:1;" d="M 58.25 83.25 C 63.082031 83.917969 67.917969 83.917969 72.75 83.25 C 72.292969 84.378906 71.625 85.378906 70.75 86.25 C 66.679688 87.898438 62.847656 87.480469 59.25 85 C 58.847656 84.445312 58.515625 83.859375 58.25 83.25 Z M 58.25 83.25 "/>
<path style=" stroke:none;fill-rule:evenodd;fill:rgb(95.686275%,36.470588%,25.098039%);fill-opacity:1;" d="M 73.25 86.75 C 73.265625 86.25 73.015625 85.917969 72.5 85.75 C 71.929688 85.996094 71.347656 86.160156 70.75 86.25 C 71.625 85.378906 72.292969 84.378906 72.75 83.25 C 73.128906 82.804688 73.628906 82.472656 74.25 82.25 C 74.9375 83.988281 74.601562 85.488281 73.25 86.75 Z M 73.25 86.75 "/>
<path style=" stroke:none;fill-rule:evenodd;fill:rgb(23.137255%,16.862745%,15.686275%);fill-opacity:1;" d="M 33.25 77.75 C 34.242188 78.234375 35.242188 78.734375 36.25 79.25 C 36.089844 80.023438 35.589844 80.359375 34.75 80.25 C 34.71875 81.863281 33.886719 82.78125 32.25 83 C 32.636719 84.464844 31.972656 85.296875 30.25 85.5 C 31.359375 87.980469 30.527344 89.230469 27.75 89.25 C 27.054688 89.191406 26.386719 89.023438 25.75 88.75 C 25.308594 89.164062 25.140625 89.664062 25.25 90.25 C 22.867188 90.558594 20.53125 90.890625 18.25 91.25 C 17.386719 90.386719 16.386719 89.71875 15.25 89.25 C 14.917969 88.582031 14.582031 87.917969 14.25 87.25 C 13.835938 83.753906 15.335938 81.835938 18.75 81.5 C 19.183594 82.179688 19.683594 82.761719 20.25 83.25 C 19.636719 83.574219 19.304688 84.160156 19.25 85 C 19.28125 85.71875 19.445312 86.382812 19.75 87 C 21.25 87.332031 22.75 87.332031 24.25 87 C 25.183594 85.933594 26.351562 85.183594 27.75 84.75 C 28.355469 84.363281 28.355469 83.945312 27.75 83.5 C 28.25 83.332031 28.75 83.167969 29.25 83 C 28.808594 82.644531 28.476562 82.230469 28.25 81.75 C 30.046875 80.621094 31.714844 79.289062 33.25 77.75 Z M 33.25 77.75 "/>
<path style=" stroke:none;fill-rule:evenodd;fill:rgb(38.823529%,34.509804%,34.117647%);fill-opacity:1;" d="M 28.25 81.75 C 28.476562 82.230469 28.808594 82.644531 29.25 83 C 28.75 83.167969 28.25 83.332031 27.75 83.5 C 28.355469 83.945312 28.355469 84.363281 27.75 84.75 C 26.351562 85.183594 25.183594 85.933594 24.25 87 C 22.75 87.332031 21.25 87.332031 19.75 87 C 19.445312 86.382812 19.28125 85.71875 19.25 85 C 19.304688 84.160156 19.636719 83.574219 20.25 83.25 C 21.097656 83.308594 21.933594 83.476562 22.75 83.75 C 24.542969 82.933594 26.375 82.269531 28.25 81.75 Z M 28.25 81.75 "/>
<path style=" stroke:none;fill-rule:evenodd;fill:rgb(97.647059%,45.882353%,21.568627%);fill-opacity:1;" d="M 58.25 83.25 C 58.515625 83.859375 58.847656 84.445312 59.25 85 C 62.847656 87.480469 66.679688 87.898438 70.75 86.25 C 71.347656 86.160156 71.929688 85.996094 72.5 85.75 C 73.015625 85.917969 73.265625 86.25 73.25 86.75 C 70.679688 89.859375 67.347656 91.027344 63.25 90.25 C 60.789062 89.375 59.039062 87.707031 58 85.25 C 57.617188 84.46875 57.699219 83.800781 58.25 83.25 Z M 58.25 83.25 "/>
<use xlink:href="#surface26" mask="url(#mask7)"/>
<use xlink:href="#surface29" mask="url(#mask8)"/>
<path style=" stroke:none;fill-rule:evenodd;fill:rgb(13.333333%,6.666667%,5.882353%);fill-opacity:1;" d="M 52.25 94.75 C 52.21875 94.476562 52.054688 94.3125 51.75 94.25 C 50.199219 95.15625 48.53125 95.65625 46.75 95.75 C 45.097656 96.027344 43.429688 96.191406 41.75 96.25 C 42.304688 95.855469 42.972656 95.605469 43.75 95.5 C 42.957031 95.070312 42.125 94.734375 41.25 94.5 C 41.816406 93.992188 41.652344 93.660156 40.75 93.5 C 45.054688 93.078125 49.304688 92.328125 53.5 91.25 C 53.75 91.417969 54 91.582031 54.25 91.75 C 53.570312 92.78125 52.90625 93.78125 52.25 94.75 Z M 52.25 94.75 "/>
<path style=" stroke:none;fill-rule:evenodd;fill:rgb(80.784314%,61.176471%,39.215686%);fill-opacity:1;" d="M 25.25 90.25 C 25.953125 91.707031 26.953125 92.957031 28.25 94 C 25.75 94.125 23.25 94.042969 20.75 93.75 C 19.820312 93.03125 18.988281 92.199219 18.25 91.25 C 20.53125 90.890625 22.867188 90.558594 25.25 90.25 Z M 25.25 90.25 "/>
<path style=" stroke:none;fill-rule:evenodd;fill:rgb(12.941176%,5.882353%,5.490196%);fill-opacity:1;" d="M 36.75 77.25 C 38.65625 78.503906 40.65625 79.503906 42.75 80.25 C 41.699219 80.101562 40.699219 80.265625 39.75 80.75 C 40.15625 81.535156 40.320312 82.367188 40.25 83.25 C 39.664062 83.140625 39.164062 83.308594 38.75 83.75 C 40.332031 84.957031 42 86.039062 43.75 87 C 42.105469 87.882812 40.355469 88.464844 38.5 88.75 C 38.027344 88.953125 37.695312 89.285156 37.5 89.75 C 37.140625 89.273438 36.722656 89.191406 36.25 89.5 C 36.890625 90.714844 37.390625 91.964844 37.75 93.25 C 35.746094 92.996094 33.746094 92.914062 31.75 93 C 33.921875 94.523438 36.257812 95.609375 38.75 96.25 C 38.75 96.417969 38.75 96.582031 38.75 96.75 C 37.75 96.75 36.75 96.75 35.75 96.75 C 33.246094 96.832031 30.746094 96.75 28.25 96.5 C 28.75 96.082031 29.25 95.667969 29.75 95.25 C 28.957031 94.164062 28.289062 92.996094 27.75 91.75 C 27.03125 91.023438 26.195312 90.523438 25.25 90.25 C 25.140625 89.664062 25.308594 89.164062 25.75 88.75 C 26.386719 89.023438 27.054688 89.191406 27.75 89.25 C 30.527344 89.230469 31.359375 87.980469 30.25 85.5 C 31.972656 85.296875 32.636719 84.464844 32.25 83 C 33.886719 82.78125 34.71875 81.863281 34.75 80.25 C 35.589844 80.359375 36.089844 80.023438 36.25 79.25 C 36.71875 78.714844 36.882812 78.050781 36.75 77.25 Z M 36.75 77.25 "/>
<path style=" stroke:none;fill-rule:evenodd;fill:rgb(19.607843%,11.764706%,8.235294%);fill-opacity:1;" d="M 25.25 90.25 C 26.195312 90.523438 27.03125 91.023438 27.75 91.75 C 28.289062 92.996094 28.957031 94.164062 29.75 95.25 C 29.25 95.667969 28.75 96.082031 28.25 96.5 C 30.746094 96.75 33.246094 96.832031 35.75 96.75 C 32.28125 97.476562 28.78125 97.976562 25.25 98.25 C 23.582031 96.917969 22.082031 95.417969 20.75 93.75 C 23.25 94.042969 25.75 94.125 28.25 94 C 26.953125 92.957031 25.953125 91.707031 25.25 90.25 Z M 25.25 90.25 "/>
<path style=" stroke:none;fill-rule:evenodd;fill:rgb(88.235294%,66.666667%,36.078431%);fill-opacity:1;" d="M 52.25 94.75 C 52.25 94.917969 52.25 95.082031 52.25 95.25 C 49.25 98.835938 45.417969 101 40.75 101.75 C 42.929688 99.902344 44.929688 97.902344 46.75 95.75 C 48.53125 95.65625 50.199219 95.15625 51.75 94.25 C 52.054688 94.3125 52.21875 94.476562 52.25 94.75 Z M 52.25 94.75 "/>
<path style=" stroke:none;fill-rule:evenodd;fill:rgb(89.019608%,64.705882%,36.470588%);fill-opacity:1;" d="M 35.75 96.75 C 36.75 96.75 37.75 96.75 38.75 96.75 C 39.335938 96.640625 39.835938 96.808594 40.25 97.25 C 37.816406 99.777344 34.816406 100.945312 31.25 100.75 C 29.074219 100.304688 27.074219 99.46875 25.25 98.25 C 28.78125 97.976562 32.28125 97.476562 35.75 96.75 Z M 35.75 96.75 "/>
<path style=" stroke:none;fill-rule:evenodd;fill:rgb(24.705882%,16.862745%,12.54902%);fill-opacity:1;" d="M 46.75 95.75 C 44.929688 97.902344 42.929688 99.902344 40.75 101.75 C 38.507812 102.324219 36.175781 102.40625 33.75 102 C 32.753906 101.8125 31.921875 101.398438 31.25 100.75 C 34.816406 100.945312 37.816406 99.777344 40.25 97.25 C 39.835938 96.808594 39.335938 96.640625 38.75 96.75 C 38.75 96.582031 38.75 96.417969 38.75 96.25 C 39.75 96.25 40.75 96.25 41.75 96.25 C 43.429688 96.191406 45.097656 96.027344 46.75 95.75 Z M 46.75 95.75 "/>
</g>
</svg>
