<?xml version="1.0" encoding="UTF-8"?>
<svg xmlns="http://www.w3.org/2000/svg" xmlns:xlink="http://www.w3.org/1999/xlink" width="px" height="px" viewBox="0 0 107 111" version="1.1">
<defs>
<filter id="alpha" filterUnits="objectBoundingBox" x="0%" y="0%" width="100%" height="100%">
  <feColorMatrix type="matrix" in="SourceGraphic" values="0 0 0 0 1 0 0 0 0 1 0 0 0 0 1 0 0 0 1 0"/>
</filter>
<mask id="mask0">
  <g filter="url(#alpha)">
<rect x="0" y="0" width="107" height="111" style="fill:rgb(0%,0%,0%);fill-opacity:0.12549;stroke:none;"/>
  </g>
</mask>
<clipPath id="clip1">
  <rect x="0" y="0" width="108" height="111"/>
</clipPath>
<g id="surface5" clip-path="url(#clip1)">
<path style=" stroke:none;fill-rule:evenodd;fill:rgb(13.333333%,20%,26.27451%);fill-opacity:1;" d="M 44.457031 -0.25 C 47.472656 -0.25 50.484375 -0.25 53.5 -0.25 C 54.734375 0.3125 56.074219 0.730469 57.519531 1.003906 C 58.363281 1.179688 58.863281 1.679688 59.027344 2.511719 C 56.714844 3.847656 54.371094 5.183594 51.992188 6.53125 C 51.300781 7.195312 51.132812 7.863281 51.492188 8.539062 C 55.597656 9.292969 59.199219 11.050781 62.292969 13.8125 C 69.753906 6.957031 76.785156 7.460938 83.390625 15.320312 C 84.425781 17.421875 85.261719 19.597656 85.902344 21.847656 C 88.40625 23.851562 90.164062 26.359375 91.175781 29.382812 C 93.292969 29.863281 95.46875 29.945312 97.707031 29.632812 C 100.503906 31.285156 102.261719 33.710938 102.980469 36.917969 C 104.21875 42.851562 105.472656 48.710938 106.75 54.496094 C 106.75 55.332031 106.75 56.167969 106.75 57.007812 C 104.988281 63.710938 103.0625 70.40625 100.972656 77.097656 C 98.167969 80.714844 94.820312 81.382812 90.925781 79.105469 C 89.648438 82.324219 87.640625 85.003906 84.898438 87.140625 C 83.492188 96.582031 78.050781 100.683594 68.570312 99.449219 C 66.101562 98.589844 64.007812 97.167969 62.292969 95.179688 C 60.195312 98.117188 57.433594 100.042969 54.003906 100.953125 C 55.761719 102.335938 57.773438 103.171875 60.03125 103.464844 C 61.320312 104.609375 61.152344 105.613281 59.527344 106.480469 C 54.785156 110.054688 49.761719 110.640625 44.457031 108.238281 C 50.347656 109.828125 55.535156 108.65625 60.03125 104.722656 C 57.238281 104.164062 54.890625 102.824219 52.996094 100.703125 C 57.027344 99.320312 60.125 96.808594 62.292969 93.167969 C 65.339844 98.152344 69.777344 99.910156 75.601562 98.445312 C 80.875 96.34375 83.636719 92.410156 83.890625 86.640625 C 87.097656 84.417969 89.191406 81.402344 90.171875 77.597656 C 93.59375 80.378906 96.859375 80.210938 99.96875 77.097656 C 101.96875 69.933594 103.894531 62.734375 105.742188 55.5 C 104.433594 49.488281 103.179688 43.460938 101.976562 37.417969 C 101.289062 33.46875 99.027344 31.125 95.195312 30.386719 C 93.640625 30.542969 92.21875 31.042969 90.925781 31.894531 C 89.863281 27.925781 87.6875 24.742188 84.394531 22.351562 C 83.230469 13.316406 78.121094 9.382812 69.074219 10.546875 C 66.734375 11.382812 64.726562 12.722656 63.042969 14.566406 C 62.542969 14.902344 62.039062 14.902344 61.539062 14.566406 C 57.753906 11.824219 53.566406 9.898438 48.980469 8.789062 C 51.421875 5.597656 54.601562 3.503906 58.523438 2.511719 C 51.515625 0.246094 44.484375 0.246094 37.425781 2.511719 C 34.71875 3.542969 32.625 5.300781 31.144531 7.785156 C 30.238281 7.136719 29.652344 6.300781 29.386719 5.273438 C 30 5.539062 30.585938 5.875 31.144531 6.277344 C 32.625 4.460938 34.382812 3.039062 36.421875 2.007812 C 39.199219 1.546875 41.878906 0.792969 44.457031 -0.25 Z M 44.457031 -0.25 "/>
</g>
<mask id="mask1">
  <g filter="url(#alpha)">
<rect x="0" y="0" width="107" height="111" style="fill:rgb(0%,0%,0%);fill-opacity:0.00392157;stroke:none;"/>
  </g>
</mask>
<clipPath id="clip2">
  <rect x="0" y="0" width="108" height="111"/>
</clipPath>
<g id="surface8" clip-path="url(#clip2)">
<path style=" stroke:none;fill-rule:evenodd;fill:rgb(13.333333%,20.784314%,27.45098%);fill-opacity:1;" d="M 26.875 3.765625 C 25.855469 5.472656 25.101562 7.316406 24.613281 9.292969 C 24.503906 13.480469 24.503906 17.667969 24.613281 21.847656 C 24.292969 23.917969 23.539062 25.757812 22.355469 27.375 C 23.328125 24.785156 23.996094 22.109375 24.363281 19.335938 C 22.914062 14.324219 23.335938 9.46875 25.621094 4.773438 C 25.976562 4.328125 26.394531 3.996094 26.875 3.765625 Z M 26.875 3.765625 "/>
</g>
<mask id="mask2">
  <g filter="url(#alpha)">
<rect x="0" y="0" width="107" height="111" style="fill:rgb(0%,0%,0%);fill-opacity:0.823529;stroke:none;"/>
  </g>
</mask>
<clipPath id="clip3">
  <rect x="0" y="0" width="108" height="111"/>
</clipPath>
<g id="surface11" clip-path="url(#clip3)">
<path style=" stroke:none;fill-rule:evenodd;fill:rgb(10.588235%,16.862745%,22.745098%);fill-opacity:1;" d="M 15.320312 34.40625 C 12.828125 33.90625 10.316406 33.820312 7.785156 34.152344 C 11.765625 35.433594 13.609375 38.195312 13.3125 42.441406 C 12.640625 40.621094 11.886719 38.78125 11.050781 36.917969 C 10.148438 36.003906 9.058594 35.417969 7.785156 35.160156 C 7.023438 33.320312 7.691406 32.566406 9.796875 32.898438 C 11.824219 32.964844 13.664062 33.464844 15.320312 34.40625 Z M 15.320312 34.40625 "/>
</g>
<mask id="mask3">
  <g filter="url(#alpha)">
<rect x="0" y="0" width="107" height="111" style="fill:rgb(0%,0%,0%);fill-opacity:0.14902;stroke:none;"/>
  </g>
</mask>
<clipPath id="clip4">
  <rect x="0" y="0" width="108" height="111"/>
</clipPath>
<g id="surface14" clip-path="url(#clip4)">
<path style=" stroke:none;fill-rule:evenodd;fill:rgb(13.333333%,21.568627%,27.45098%);fill-opacity:1;" d="M 3.265625 59.519531 C 4.980469 59.949219 6.652344 60.535156 8.289062 61.277344 C 9.964844 61.882812 11.21875 61.464844 12.054688 60.019531 C 13 56.304688 11.742188 53.710938 8.289062 52.234375 C 6.199219 51.898438 4.1875 52.152344 2.261719 52.988281 C 4.9375 51.167969 7.785156 51 10.800781 52.488281 C 11.484375 53.253906 12.070312 54.089844 12.558594 54.996094 C 12.808594 57.503906 12.894531 60.015625 12.808594 62.53125 C 9.152344 62.835938 5.972656 61.832031 3.265625 59.519531 Z M 3.265625 59.519531 "/>
</g>
<mask id="mask4">
  <g filter="url(#alpha)">
<rect x="0" y="0" width="107" height="111" style="fill:rgb(0%,0%,0%);fill-opacity:0.972549;stroke:none;"/>
  </g>
</mask>
<clipPath id="clip5">
  <rect x="0" y="0" width="108" height="111"/>
</clipPath>
<g id="surface17" clip-path="url(#clip5)">
<path style=" stroke:none;fill-rule:evenodd;fill:rgb(4.705882%,5.098039%,7.058824%);fill-opacity:1;" d="M 21.851562 28.378906 C 22.03125 29.84375 21.527344 31.015625 20.34375 31.894531 C 20.328125 32.871094 20.496094 33.875 20.847656 34.90625 C 20.511719 35.910156 20.175781 36.917969 19.84375 37.921875 C 19.605469 38.625 19.269531 39.292969 18.839844 39.929688 C 17.695312 39.457031 16.691406 38.789062 15.824219 37.921875 C 15.65625 38.171875 15.488281 38.421875 15.320312 38.675781 C 16.195312 41.363281 16.53125 44.125 16.328125 46.960938 C 13.640625 46.878906 10.960938 46.960938 8.289062 47.210938 C 7.367188 47.589844 6.53125 48.089844 5.777344 48.71875 C 9.289062 48.714844 12.21875 49.96875 14.566406 52.488281 C 15.039062 56.847656 15.625 61.199219 16.328125 65.546875 C 15.277344 66.042969 14.273438 65.875 13.3125 65.042969 C 9.636719 65.910156 6.371094 65.074219 3.515625 62.53125 C 5.59375 70.980469 10.703125 73.65625 18.839844 70.566406 C 20.777344 74.789062 22.957031 78.808594 25.367188 82.621094 C 25.640625 83.433594 25.804688 84.273438 25.871094 85.132812 C 25.894531 87.519531 25.808594 89.863281 25.621094 92.164062 C 26.144531 91.726562 26.5625 91.222656 26.875 90.660156 C 27.816406 90.476562 28.570312 89.976562 29.136719 89.152344 C 29.496094 89.425781 29.746094 89.761719 29.890625 90.15625 C 30.933594 93.789062 31.183594 97.472656 30.644531 101.207031 C 31.855469 99.453125 32.777344 97.609375 33.40625 95.679688 C 34.148438 96.960938 34.902344 96.960938 35.667969 95.679688 C 36.125 96.097656 36.460938 96.597656 36.671875 97.1875 C 36.839844 99.699219 37.007812 102.210938 37.171875 104.722656 C 37.550781 105.640625 38.050781 106.480469 38.679688 107.234375 C 38.992188 105.605469 39.578125 104.097656 40.4375 102.710938 C 41.070312 102.691406 41.574219 102.945312 41.945312 103.464844 C 40.980469 104.089844 40.8125 104.84375 41.445312 105.726562 C 42.484375 106.574219 43.488281 107.410156 44.457031 108.238281 C 41.546875 106.453125 40.375 107.289062 40.941406 110.75 C 40.273438 110.75 39.601562 110.75 38.933594 110.75 C 35.660156 108.902344 33.898438 106.054688 33.65625 102.210938 C 32.609375 103.511719 31.351562 104.519531 29.890625 105.222656 C 28.28125 106.011719 26.609375 106.429688 24.867188 106.480469 C 28.273438 102.277344 29.113281 98.007812 27.378906 93.671875 C 25.273438 94.972656 22.925781 95.476562 20.34375 95.179688 C 20.671875 93.519531 21.507812 92.179688 22.855469 91.160156 C 23.800781 89.476562 24.050781 87.632812 23.609375 85.636719 C 21.820312 81.890625 19.894531 78.207031 17.832031 74.585938 C 15.386719 74.492188 12.875 74.492188 10.296875 74.585938 C 5.921875 72.804688 2.992188 69.621094 1.507812 65.042969 C 0.808594 62.734375 0.640625 60.390625 1.003906 58.011719 C 1.644531 58.707031 2.398438 59.207031 3.265625 59.519531 C 5.972656 61.832031 9.152344 62.835938 12.808594 62.53125 C 12.894531 60.015625 12.808594 57.503906 12.558594 54.996094 C 12.070312 54.089844 11.484375 53.253906 10.800781 52.488281 C 7.785156 51 4.9375 51.167969 2.261719 52.988281 C 1.867188 53.792969 1.195312 54.128906 0.25 53.992188 C 0.566406 50.519531 2.070312 47.671875 4.773438 45.453125 C 7.609375 44.101562 10.457031 43.097656 13.3125 42.441406 C 13.609375 38.195312 11.765625 35.433594 7.785156 34.152344 C 10.316406 33.820312 12.828125 33.90625 15.320312 34.40625 C 16.039062 34.363281 16.710938 34.53125 17.332031 34.90625 C 18.726562 32.609375 20.234375 30.433594 21.851562 28.378906 Z M 21.851562 28.378906 "/>
</g>
<mask id="mask5">
  <g filter="url(#alpha)">
<rect x="0" y="0" width="107" height="111" style="fill:rgb(0%,0%,0%);fill-opacity:0.141176;stroke:none;"/>
  </g>
</mask>
<clipPath id="clip6">
  <rect x="0" y="0" width="108" height="111"/>
</clipPath>
<g id="surface20" clip-path="url(#clip6)">
<path style=" stroke:none;fill-rule:evenodd;fill:rgb(12.54902%,20%,25.098039%);fill-opacity:1;" d="M 3.265625 59.519531 C 2.398438 59.207031 1.644531 58.707031 1.003906 58.011719 C 0.640625 60.390625 0.808594 62.734375 1.507812 65.042969 C 2.992188 69.621094 5.921875 72.804688 10.296875 74.585938 C 7.574219 74.101562 5.3125 72.761719 3.515625 70.566406 C 1.664062 67.546875 0.40625 64.367188 -0.25 61.023438 C -0.25 59.851562 -0.25 58.679688 -0.25 57.507812 C 1.601562 56.832031 2.773438 57.5 3.265625 59.519531 Z M 3.265625 59.519531 "/>
</g>
<mask id="mask6">
  <g filter="url(#alpha)">
<rect x="0" y="0" width="107" height="111" style="fill:rgb(0%,0%,0%);fill-opacity:0.0705882;stroke:none;"/>
  </g>
</mask>
<clipPath id="clip7">
  <rect x="0" y="0" width="108" height="111"/>
</clipPath>
<g id="surface23" clip-path="url(#clip7)">
<path style=" stroke:none;fill-rule:evenodd;fill:rgb(12.941176%,20.784314%,26.666667%);fill-opacity:1;" d="M 22.855469 91.160156 C 23.175781 89.65625 23.257812 88.152344 23.109375 86.640625 C 21.539062 82.832031 19.695312 79.148438 17.582031 75.589844 C 15.105469 75.265625 12.675781 74.933594 10.296875 74.585938 C 12.875 74.492188 15.386719 74.492188 17.832031 74.585938 C 19.894531 78.207031 21.820312 81.890625 23.609375 85.636719 C 24.050781 87.632812 23.800781 89.476562 22.855469 91.160156 Z M 22.855469 91.160156 "/>
</g>
<mask id="mask7">
  <g filter="url(#alpha)">
<rect x="0" y="0" width="107" height="111" style="fill:rgb(0%,0%,0%);fill-opacity:0.980392;stroke:none;"/>
  </g>
</mask>
<clipPath id="clip8">
  <rect x="0" y="0" width="108" height="111"/>
</clipPath>
<g id="surface26" clip-path="url(#clip8)">
<path style=" stroke:none;fill-rule:evenodd;fill:rgb(5.490196%,4.313725%,5.098039%);fill-opacity:1;" d="M 44.457031 108.238281 C 43.488281 107.410156 42.484375 106.574219 41.445312 105.726562 C 40.8125 104.84375 40.980469 104.089844 41.945312 103.464844 C 41.574219 102.945312 41.070312 102.691406 40.4375 102.710938 C 40.582031 102.316406 40.832031 101.980469 41.191406 101.707031 C 44.679688 106.214844 49.117188 107.46875 54.503906 105.476562 C 53.40625 104.789062 52.402344 104.039062 51.492188 103.214844 C 50.136719 101.527344 48.628906 100.019531 46.96875 98.695312 C 50.433594 98.753906 53.617188 97.835938 56.515625 95.933594 C 57.960938 94.789062 58.964844 93.363281 59.527344 91.664062 C 60.320312 90.859375 60.652344 89.855469 60.53125 88.648438 C 55.28125 88.515625 50.089844 87.929688 44.960938 86.890625 C 42.308594 83.234375 39.292969 79.886719 35.917969 76.847656 C 38.074219 76.144531 39.832031 74.890625 41.191406 73.078125 C 42.582031 70.800781 43.839844 68.457031 44.960938 66.046875 C 45.289062 65.390625 45.625 64.722656 45.964844 64.039062 C 45.628906 63.871094 45.296875 63.703125 44.960938 63.535156 C 41.578125 65.011719 38.0625 65.765625 34.410156 65.796875 C 35.664062 64.960938 36.835938 64.039062 37.925781 63.035156 C 41.746094 59.917969 43.839844 55.898438 44.207031 50.980469 C 42.960938 52.054688 41.707031 53.058594 40.4375 53.992188 C 38.683594 54.800781 36.84375 55.304688 34.914062 55.5 C 34.914062 55.332031 34.914062 55.164062 34.914062 54.996094 C 39.597656 51.488281 41.691406 46.800781 41.191406 40.933594 C 40.238281 37.207031 39.484375 33.4375 38.933594 29.632812 C 40.21875 22.234375 44.574219 17.964844 51.992188 16.824219 C 50.933594 17.445312 49.929688 18.199219 48.980469 19.085938 C 51.992188 19.421875 55.007812 19.421875 58.019531 19.085938 C 58.460938 18.289062 58.964844 17.535156 59.527344 16.824219 C 59.296875 16.425781 58.964844 16.257812 58.523438 16.324219 C 57.035156 15.074219 55.359375 14.070312 53.5 13.308594 C 49.875 12.398438 46.359375 11.5625 42.949219 10.796875 C 43.890625 10.617188 44.644531 10.117188 45.210938 9.292969 C 46.632812 6.53125 48.726562 4.4375 51.492188 3.011719 C 49.277344 2.664062 47.101562 2.832031 44.960938 3.515625 C 42.527344 4.480469 40.183594 5.570312 37.925781 6.78125 C 38.039062 6.191406 37.871094 5.6875 37.425781 5.273438 C 34.265625 7.226562 32.339844 10.074219 31.648438 13.8125 C 31.230469 15.820312 30.8125 17.832031 30.390625 19.839844 C 29.957031 17.671875 29.621094 15.496094 29.386719 13.308594 C 29.46875 12.125 29.386719 10.953125 29.136719 9.792969 C 28.261719 9.183594 27.761719 8.347656 27.628906 7.28125 C 27.230469 7.90625 26.980469 8.578125 26.875 9.292969 C 27.042969 13.644531 27.210938 17.996094 27.378906 22.351562 C 25.863281 26.882812 23.6875 31.070312 20.847656 34.90625 C 20.496094 33.875 20.328125 32.871094 20.34375 31.894531 C 21.527344 31.015625 22.03125 29.84375 21.851562 28.378906 C 21.765625 27.878906 21.933594 27.546875 22.355469 27.375 C 23.539062 25.757812 24.292969 23.917969 24.613281 21.847656 C 24.503906 17.667969 24.503906 13.480469 24.613281 9.292969 C 25.101562 7.316406 25.855469 5.472656 26.875 3.765625 C 26.882812 2.667969 27.382812 2.25 28.382812 2.511719 C 28.867188 3.378906 29.203125 4.296875 29.386719 5.273438 C 29.652344 6.300781 30.238281 7.136719 31.144531 7.785156 C 32.625 5.300781 34.71875 3.542969 37.425781 2.511719 C 44.484375 0.246094 51.515625 0.246094 58.523438 2.511719 C 54.601562 3.503906 51.421875 5.597656 48.980469 8.789062 C 53.566406 9.898438 57.753906 11.824219 61.539062 14.566406 C 62.039062 14.902344 62.542969 14.902344 63.042969 14.566406 C 64.726562 12.722656 66.734375 11.382812 69.074219 10.546875 C 78.121094 9.382812 83.230469 13.316406 84.394531 22.351562 C 87.6875 24.742188 89.863281 27.925781 90.925781 31.894531 C 92.21875 31.042969 93.640625 30.542969 95.195312 30.386719 C 99.027344 31.125 101.289062 33.46875 101.976562 37.417969 C 103.179688 43.460938 104.433594 49.488281 105.742188 55.5 C 103.894531 62.734375 101.96875 69.933594 99.96875 77.097656 C 96.859375 80.210938 93.59375 80.378906 90.171875 77.597656 C 89.191406 81.402344 87.097656 84.417969 83.890625 86.640625 C 83.636719 92.410156 80.875 96.34375 75.601562 98.445312 C 69.777344 99.910156 65.339844 98.152344 62.292969 93.167969 C 60.125 96.808594 57.027344 99.320312 52.996094 100.703125 C 54.890625 102.824219 57.238281 104.164062 60.03125 104.722656 C 55.535156 108.65625 50.347656 109.828125 44.457031 108.238281 Z M 44.457031 108.238281 "/>
</g>
<mask id="mask8">
  <g filter="url(#alpha)">
<rect x="0" y="0" width="107" height="111" style="fill:rgb(0%,0%,0%);fill-opacity:0.227451;stroke:none;"/>
  </g>
</mask>
<clipPath id="clip9">
  <rect x="0" y="0" width="108" height="111"/>
</clipPath>
<g id="surface29" clip-path="url(#clip9)">
<path style=" stroke:none;fill-rule:evenodd;fill:rgb(13.72549%,21.176471%,27.843137%);fill-opacity:1;" d="M 27.378906 93.671875 C 29.113281 98.007812 28.273438 102.277344 24.867188 106.480469 C 26.609375 106.429688 28.28125 106.011719 29.890625 105.222656 C 28.449219 106.859375 26.605469 107.53125 24.363281 107.234375 C 25.003906 105.285156 25.925781 103.441406 27.125 101.707031 C 27.90625 98.96875 27.988281 96.289062 27.378906 93.671875 Z M 27.378906 93.671875 "/>
</g>
</defs>
<g id="surface1">
<use xlink:href="#surface5" mask="url(#mask0)"/>
<use xlink:href="#surface8" mask="url(#mask1)"/>
<path style=" stroke:none;fill-rule:evenodd;fill:rgb(88.627451%,69.803922%,56.862745%);fill-opacity:1;" d="M 53.5 13.308594 C 55.359375 14.070312 57.035156 15.074219 58.523438 16.324219 C 58.105469 16.949219 57.433594 17.285156 56.515625 17.328125 C 55.011719 17.09375 53.503906 16.925781 51.992188 16.824219 C 44.574219 17.964844 40.21875 22.234375 38.933594 29.632812 C 39.484375 33.4375 40.238281 37.207031 41.191406 40.933594 C 41.691406 46.800781 39.597656 51.488281 34.914062 54.996094 C 34.601562 53.992188 35.019531 53.152344 36.167969 52.488281 C 38.453125 46.1875 38.453125 39.828125 36.167969 33.402344 C 35.335938 29.34375 36.089844 25.660156 38.429688 22.351562 C 37.933594 21.546875 37.851562 20.710938 38.179688 19.839844 C 38.890625 19.550781 39.308594 19.046875 39.433594 18.332031 C 43.308594 14.386719 47.996094 12.714844 53.5 13.308594 Z M 53.5 13.308594 "/>
<path style=" stroke:none;fill-rule:evenodd;fill:rgb(95.294118%,80.392157%,66.666667%);fill-opacity:1;" d="M 39.433594 18.332031 C 39.308594 19.046875 38.890625 19.550781 38.179688 19.839844 C 37.851562 20.710938 37.933594 21.546875 38.429688 22.351562 C 36.089844 25.660156 35.335938 29.34375 36.167969 33.402344 C 38.453125 39.828125 38.453125 46.1875 36.167969 52.488281 C 35.019531 53.152344 34.601562 53.992188 34.914062 54.996094 C 34.914062 55.164062 34.914062 55.332031 34.914062 55.5 C 34.914062 55.835938 34.746094 56.003906 34.410156 56.003906 C 33.390625 56.082031 32.386719 56 31.398438 55.75 C 34.261719 53.023438 35.433594 49.671875 34.914062 45.707031 C 35.128906 41.632812 34.207031 37.867188 32.148438 34.40625 C 31.816406 32.898438 31.816406 31.390625 32.148438 29.882812 C 33.03125 27.070312 34.203125 24.390625 35.667969 21.847656 C 36.539062 20.222656 37.792969 19.050781 39.433594 18.332031 Z M 39.433594 18.332031 "/>
<path style=" stroke:none;fill-rule:evenodd;fill:rgb(84.313725%,71.764706%,59.607843%);fill-opacity:1;" d="M 27.378906 22.351562 C 27.570312 24.652344 27.152344 26.828125 26.121094 28.878906 C 24.144531 31.996094 22.304688 35.175781 20.597656 38.421875 C 20.402344 38.144531 20.152344 37.976562 19.84375 37.921875 C 20.175781 36.917969 20.511719 35.910156 20.847656 34.90625 C 23.6875 31.070312 25.863281 26.882812 27.378906 22.351562 Z M 27.378906 22.351562 "/>
<use xlink:href="#surface11" mask="url(#mask2)"/>
<use xlink:href="#surface14" mask="url(#mask3)"/>
<path style=" stroke:none;fill-rule:evenodd;fill:rgb(99.215686%,98.823529%,94.901961%);fill-opacity:1;" d="M 26.875 90.15625 C 26.539062 88.480469 26.207031 86.808594 25.871094 85.132812 C 25.804688 84.273438 25.640625 83.433594 25.367188 82.621094 C 25.570312 82.09375 25.90625 82.09375 26.375 82.621094 C 26.945312 81.65625 27.03125 80.652344 26.625 79.609375 C 25.496094 76.847656 23.988281 74.335938 22.101562 72.074219 C 21.9375 70.234375 21.769531 68.390625 21.601562 66.550781 C 18.429688 63.191406 17.171875 59.175781 17.832031 54.496094 C 19.945312 54.679688 21.203125 55.855469 21.601562 58.011719 C 23.433594 63.148438 25.109375 68.339844 26.625 73.582031 C 28.761719 76.714844 30.4375 80.066406 31.648438 83.625 C 32.335938 86.109375 31.414062 87.449219 28.886719 87.644531 C 28.863281 85.921875 28.277344 84.417969 27.125 83.125 C 26.875 85.460938 26.792969 87.804688 26.875 90.15625 Z M 26.875 90.15625 "/>
<use xlink:href="#surface17" mask="url(#mask4)"/>
<path style=" stroke:none;fill-rule:evenodd;fill:rgb(98.431373%,89.411765%,77.254902%);fill-opacity:1;" d="M 40.4375 53.992188 C 41.5625 54.988281 41.644531 56.160156 40.691406 57.507812 C 38.996094 58.601562 38.078125 60.109375 37.925781 62.03125 C 37.398438 61.953125 36.894531 62.039062 36.421875 62.28125 C 37.042969 62.398438 37.542969 62.648438 37.925781 63.035156 C 36.835938 64.039062 35.664062 64.960938 34.410156 65.796875 C 38.0625 65.765625 41.578125 65.011719 44.960938 63.535156 C 45.296875 63.703125 45.628906 63.871094 45.964844 64.039062 C 45.625 64.722656 45.289062 65.390625 44.960938 66.046875 C 44.648438 65.992188 44.398438 65.824219 44.207031 65.546875 C 43.480469 67.507812 42.394531 69.183594 40.941406 70.566406 C 40.941406 70.066406 40.941406 69.5625 40.941406 69.0625 C 38.449219 69.5625 35.9375 69.644531 33.40625 69.3125 C 30.828125 67.820312 28.316406 66.230469 25.871094 64.539062 C 28.097656 61.5625 30.945312 59.386719 34.410156 58.011719 C 34.808594 57.410156 34.808594 56.738281 34.410156 56.003906 C 34.746094 56.003906 34.914062 55.835938 34.914062 55.5 C 36.84375 55.304688 38.683594 54.800781 40.4375 53.992188 Z M 40.4375 53.992188 "/>
<path style=" stroke:none;fill-rule:evenodd;fill:rgb(89.411765%,72.156863%,58.431373%);fill-opacity:1;" d="M 37.925781 63.035156 C 37.542969 62.648438 37.042969 62.398438 36.421875 62.28125 C 36.894531 62.039062 37.398438 61.953125 37.925781 62.03125 C 38.078125 60.109375 38.996094 58.601562 40.691406 57.507812 C 41.644531 56.160156 41.5625 54.988281 40.4375 53.992188 C 41.707031 53.058594 42.960938 52.054688 44.207031 50.980469 C 43.839844 55.898438 41.746094 59.917969 37.925781 63.035156 Z M 37.925781 63.035156 "/>
<use xlink:href="#surface20" mask="url(#mask5)"/>
<use xlink:href="#surface23" mask="url(#mask6)"/>
<use xlink:href="#surface26" mask="url(#mask7)"/>
<path style=" stroke:none;fill-rule:evenodd;fill:rgb(93.72549%,89.019608%,84.313725%);fill-opacity:1;" d="M 89.667969 72.074219 C 92.546875 73.300781 95.558594 73.804688 98.710938 73.582031 C 98.726562 74.628906 98.390625 75.546875 97.707031 76.34375 C 93.859375 78.015625 91.011719 77.007812 89.167969 73.332031 C 89.289062 72.878906 89.457031 72.457031 89.667969 72.074219 Z M 89.667969 72.074219 "/>
<path style=" stroke:none;fill-rule:evenodd;fill:rgb(96.078431%,85.098039%,72.54902%);fill-opacity:1;" d="M 88.664062 66.550781 C 88.707031 67.050781 88.539062 67.46875 88.160156 67.804688 C 87.339844 68.054688 86.503906 68.136719 85.648438 68.054688 C 85.648438 68.726562 85.648438 69.394531 85.648438 70.066406 C 85.570312 71.082031 85.652344 72.089844 85.902344 73.078125 C 88.574219 78.210938 87.316406 82.144531 82.132812 84.882812 C 79.507812 85.660156 76.828125 86.078125 74.097656 86.136719 C 73.367188 85.734375 72.53125 85.484375 71.585938 85.382812 C 76.515625 85.761719 80.617188 84.171875 83.890625 80.613281 C 84.375 79.761719 84.625 78.839844 84.644531 77.851562 C 83.21875 74.445312 83.386719 71.097656 85.148438 67.804688 C 86.480469 67.730469 87.652344 67.308594 88.664062 66.550781 Z M 88.664062 66.550781 "/>
<path style=" stroke:none;fill-rule:evenodd;fill:rgb(96.470588%,89.019608%,78.823529%);fill-opacity:1;" d="M 100.21875 65.042969 C 100.777344 65.769531 100.859375 66.605469 100.46875 67.554688 C 99.996094 69.03125 99.410156 70.457031 98.710938 71.824219 C 97.035156 72.160156 95.363281 72.160156 93.6875 71.824219 C 92.167969 70.582031 91.835938 69.074219 92.683594 67.304688 C 94.191406 67.136719 95.695312 66.96875 97.203125 66.800781 C 98.472656 66.589844 99.476562 66.003906 100.21875 65.042969 Z M 100.21875 65.042969 "/>
<path style=" stroke:none;fill-rule:evenodd;fill:rgb(81.568627%,65.490196%,52.156863%);fill-opacity:1;" d="M 44.960938 59.015625 C 46.902344 59.667969 48.914062 59.667969 50.988281 59.015625 C 51.234375 65.730469 49.058594 71.589844 44.457031 76.59375 C 46.113281 80.84375 49.125 83.605469 53.5 84.882812 C 58.675781 85.488281 63.867188 85.90625 69.074219 86.136719 C 62.410156 86.933594 55.710938 86.679688 48.980469 85.382812 C 45.605469 83.417969 43.09375 80.65625 41.445312 77.097656 C 45.964844 72.238281 48.730469 66.546875 49.730469 60.019531 C 47.675781 61.433594 45.414062 62.019531 42.949219 61.777344 C 43.691406 60.867188 44.363281 59.949219 44.960938 59.015625 Z M 44.960938 59.015625 "/>
<path style=" stroke:none;fill-rule:evenodd;fill:rgb(95.686275%,91.764706%,85.490196%);fill-opacity:1;" d="M 102.226562 58.511719 C 102.324219 62.449219 100.316406 64.792969 96.199219 65.546875 C 94.988281 65.59375 94.066406 65.089844 93.4375 64.039062 C 93.1875 62.539062 93.101562 61.035156 93.183594 59.519531 C 95.871094 59.601562 98.550781 59.519531 101.222656 59.265625 C 101.683594 59.128906 102.019531 58.875 102.226562 58.511719 Z M 102.226562 58.511719 "/>
<path style=" stroke:none;fill-rule:evenodd;fill:rgb(89.019608%,78.823529%,64.313725%);fill-opacity:1;" d="M 46.96875 48.46875 C 47.546875 51.054688 47.632812 53.734375 47.21875 56.503906 C 46.996094 57.8125 46.242188 58.484375 44.960938 58.511719 C 46.234375 55.304688 46.902344 51.957031 46.96875 48.46875 Z M 46.96875 48.46875 "/>
<path style=" stroke:none;fill-rule:evenodd;fill:rgb(90.980392%,75.686275%,59.607843%);fill-opacity:1;" d="M 85.648438 70.066406 C 85.648438 69.394531 85.648438 68.726562 85.648438 68.054688 C 86.503906 68.136719 87.339844 68.054688 88.160156 67.804688 C 88.539062 67.46875 88.707031 67.050781 88.664062 66.550781 C 89.21875 58.695312 89.304688 50.824219 88.914062 42.945312 C 88.21875 41.332031 87.296875 40.328125 86.152344 39.929688 C 87.722656 39.089844 89.148438 39.257812 90.421875 40.433594 C 91.429688 44.972656 91.847656 49.578125 91.679688 54.246094 C 91.988281 59.464844 91.398438 64.570312 89.921875 69.5625 C 88.78125 70.847656 87.609375 70.847656 86.402344 69.5625 C 86.210938 69.84375 85.960938 70.011719 85.648438 70.066406 Z M 85.648438 70.066406 "/>
<path style=" stroke:none;fill-rule:evenodd;fill:rgb(95.686275%,91.372549%,83.137255%);fill-opacity:1;" d="M 93.6875 51.984375 C 97.011719 52.269531 100.195312 53.109375 103.230469 54.496094 C 104.175781 56.832031 103.335938 58.085938 100.71875 58.261719 C 94.449219 60.441406 92.105469 58.351562 93.6875 51.984375 Z M 93.6875 51.984375 "/>
<path style=" stroke:none;fill-rule:evenodd;fill:rgb(90.588235%,80%,67.843137%);fill-opacity:1;" d="M 98.710938 44.953125 C 99.578125 45.261719 100.332031 45.765625 100.972656 46.460938 C 102.257812 48.542969 102.84375 50.71875 102.730469 52.988281 C 101.171875 52.308594 99.664062 51.636719 98.207031 50.980469 C 99.136719 51.121094 99.804688 50.785156 100.21875 49.976562 C 99.9375 49.007812 99.851562 48.003906 99.96875 46.960938 C 99.800781 47.128906 99.632812 47.296875 99.464844 47.464844 C 99.304688 46.679688 98.886719 46.09375 98.207031 45.707031 C 98.488281 45.515625 98.65625 45.261719 98.710938 44.953125 Z M 98.710938 44.953125 "/>
<path style=" stroke:none;fill-rule:evenodd;fill:rgb(97.647059%,92.941176%,85.490196%);fill-opacity:1;" d="M 98.710938 44.953125 C 98.65625 45.261719 98.488281 45.515625 98.207031 45.707031 C 98.886719 46.09375 99.304688 46.679688 99.464844 47.464844 C 99.632812 47.296875 99.800781 47.128906 99.96875 46.960938 C 99.851562 48.003906 99.9375 49.007812 100.21875 49.976562 C 99.804688 50.785156 99.136719 51.121094 98.207031 50.980469 C 96.535156 50.980469 94.859375 50.980469 93.183594 50.980469 C 93.054688 49.101562 93.222656 47.261719 93.6875 45.453125 C 94.285156 44.78125 95.039062 44.445312 95.949219 44.449219 C 96.863281 44.671875 97.785156 44.839844 98.710938 44.953125 Z M 98.710938 44.953125 "/>
<path style=" stroke:none;fill-rule:evenodd;fill:rgb(96.470588%,92.54902%,87.843137%);fill-opacity:1;" d="M 94.691406 37.417969 C 96.339844 37.277344 97.929688 37.445312 99.464844 37.921875 C 100.578125 39.976562 100.914062 42.152344 100.46875 44.449219 C 97.972656 43.550781 95.378906 43.214844 92.683594 43.445312 C 91.539062 40.765625 92.207031 38.757812 94.691406 37.417969 Z M 94.691406 37.417969 "/>
<path style=" stroke:none;fill-rule:evenodd;fill:rgb(68.235294%,52.54902%,42.745098%);fill-opacity:1;" d="M 42.949219 28.378906 C 43.054688 31.242188 43.722656 33.921875 44.960938 36.414062 C 45.429688 40.203125 45.597656 43.886719 45.460938 47.464844 C 44.425781 49.441406 43.925781 49.359375 43.957031 47.210938 C 44.191406 45.628906 44.359375 44.039062 44.457031 42.441406 C 43.949219 38.398438 43.28125 34.378906 42.449219 30.386719 C 42.453125 29.609375 42.621094 28.941406 42.949219 28.378906 Z M 42.949219 28.378906 "/>
<path style=" stroke:none;fill-rule:evenodd;fill:rgb(94.509804%,89.019608%,80.392157%);fill-opacity:1;" d="M 93.183594 32.898438 C 94.703125 32.816406 96.207031 32.898438 97.707031 33.148438 C 100.074219 35.515625 99.742188 36.4375 96.703125 35.910156 C 95.011719 36.054688 93.503906 36.640625 92.179688 37.667969 C 89.792969 38.097656 89.121094 37.175781 90.171875 34.90625 C 91.070312 33.996094 92.074219 33.324219 93.183594 32.898438 Z M 93.183594 32.898438 "/>
<path style=" stroke:none;fill-rule:evenodd;fill:rgb(98.823529%,95.686275%,85.882353%);fill-opacity:1;" d="M 74.097656 24.863281 C 77.851562 25.078125 81.117188 26.417969 83.890625 28.878906 C 84.226562 29.550781 84.5625 30.21875 84.898438 30.890625 C 84.921875 33.867188 85.339844 36.714844 86.152344 39.425781 C 86.152344 39.59375 86.152344 39.761719 86.152344 39.929688 C 87.296875 40.328125 88.21875 41.332031 88.914062 42.945312 C 89.304688 50.824219 89.21875 58.695312 88.664062 66.550781 C 87.652344 67.308594 86.480469 67.730469 85.148438 67.804688 C 83.386719 71.097656 83.21875 74.445312 84.644531 77.851562 C 84.625 78.839844 84.375 79.761719 83.890625 80.613281 C 80.617188 84.171875 76.515625 85.761719 71.585938 85.382812 C 72.53125 85.484375 73.367188 85.734375 74.097656 86.136719 C 72.421875 86.136719 70.746094 86.136719 69.074219 86.136719 C 63.867188 85.90625 58.675781 85.488281 53.5 84.882812 C 49.125 83.605469 46.113281 80.84375 44.457031 76.59375 C 49.058594 71.589844 51.234375 65.730469 50.988281 59.015625 C 48.914062 59.667969 46.902344 59.667969 44.960938 59.015625 C 44.960938 58.847656 44.960938 58.679688 44.960938 58.511719 C 46.242188 58.484375 46.996094 57.8125 47.21875 56.503906 C 47.632812 53.734375 47.546875 51.054688 46.96875 48.46875 C 46.96875 47.464844 46.96875 46.460938 46.96875 45.453125 C 46.175781 43.933594 45.839844 42.257812 45.964844 40.433594 C 46.132812 39.09375 46.300781 37.753906 46.46875 36.414062 C 46.800781 36.75 47.136719 37.082031 47.472656 37.417969 C 47.640625 37.167969 47.808594 36.917969 47.972656 36.664062 C 47.492188 35.601562 47.410156 34.511719 47.722656 33.402344 C 49.261719 31.835938 51.019531 30.582031 52.996094 29.632812 C 56.609375 28.230469 60.292969 27.140625 64.050781 26.367188 C 63.058594 26.945312 62.304688 27.78125 61.789062 28.878906 C 61.40625 33.542969 62.074219 38.0625 63.796875 42.441406 C 64.757812 44.492188 66.351562 45.664062 68.570312 45.957031 C 76.914062 44.394531 80.847656 39.371094 80.375 30.890625 C 79.578125 29.253906 78.324219 28.164062 76.609375 27.625 C 72.800781 26.765625 68.949219 26.347656 65.054688 26.367188 C 65.820312 25.550781 66.824219 25.132812 68.066406 25.113281 C 70.070312 24.863281 72.078125 24.777344 74.097656 24.863281 Z M 74.097656 24.863281 "/>
<path style=" stroke:none;fill-rule:evenodd;fill:rgb(99.607843%,90.588235%,76.470588%);fill-opacity:1;" d="M 49.480469 75.589844 C 51.714844 75.410156 53.476562 76.246094 54.757812 78.101562 C 55.34375 79.359375 55.929688 80.613281 56.515625 81.867188 C 51.199219 83 48.855469 80.90625 49.480469 75.589844 Z M 49.480469 75.589844 "/>
<path style=" stroke:none;fill-rule:evenodd;fill:rgb(1.568627%,1.176471%,5.490196%);fill-opacity:1;" d="M 66.5625 63.535156 C 76.617188 63.453125 81.054688 68.308594 79.875 78.101562 C 78.335938 80.574219 76.078125 81.832031 73.089844 81.867188 C 70.65625 82.058594 68.230469 82.3125 65.808594 82.621094 C 62.46875 82.320312 61.046875 80.480469 61.539062 77.097656 C 61.550781 72.785156 62.640625 68.769531 64.804688 65.042969 C 65.378906 64.472656 65.964844 63.96875 66.5625 63.535156 Z M 66.5625 63.535156 "/>
<path style=" stroke:none;fill-rule:evenodd;fill:rgb(3.921569%,3.137255%,5.490196%);fill-opacity:1;" d="M 79.621094 49.976562 C 81.382812 49.722656 82.976562 50.054688 84.394531 50.980469 C 84.785156 51.703125 84.703125 52.375 84.144531 52.988281 C 82.824219 53.625 81.484375 54.210938 80.125 54.746094 C 81.636719 55.136719 83.0625 55.722656 84.394531 56.503906 C 84.808594 57.609375 84.558594 58.53125 83.640625 59.265625 C 79.886719 59.578125 76.621094 58.488281 73.84375 56.003906 C 73.511719 54.996094 73.511719 53.992188 73.84375 52.988281 C 75.640625 51.644531 77.566406 50.640625 79.621094 49.976562 Z M 79.621094 49.976562 "/>
<path style=" stroke:none;fill-rule:evenodd;fill:rgb(0.784314%,0.784314%,5.098039%);fill-opacity:1;" d="M 64.050781 26.367188 C 64.382812 26.367188 64.71875 26.367188 65.054688 26.367188 C 68.949219 26.347656 72.800781 26.765625 76.609375 27.625 C 78.324219 28.164062 79.578125 29.253906 80.375 30.890625 C 80.847656 39.371094 76.914062 44.394531 68.570312 45.957031 C 66.351562 45.664062 64.757812 44.492188 63.796875 42.441406 C 62.074219 38.0625 61.40625 33.542969 61.789062 28.878906 C 62.304688 27.78125 63.058594 26.945312 64.050781 26.367188 Z M 64.050781 26.367188 "/>
<path style=" stroke:none;fill-rule:evenodd;fill:rgb(94.509804%,80.392157%,66.27451%);fill-opacity:1;" d="M 74.097656 24.863281 C 72.078125 24.777344 70.070312 24.863281 68.066406 25.113281 C 66.824219 25.132812 65.820312 25.550781 65.054688 26.367188 C 64.71875 26.367188 64.382812 26.367188 64.050781 26.367188 C 60.292969 27.140625 56.609375 28.230469 52.996094 29.632812 C 51.019531 30.582031 49.261719 31.835938 47.722656 33.402344 C 47.410156 34.511719 47.492188 35.601562 47.972656 36.664062 C 47.808594 36.917969 47.640625 37.167969 47.472656 37.417969 C 47.136719 37.082031 46.800781 36.75 46.46875 36.414062 C 46.300781 37.753906 46.132812 39.09375 45.964844 40.433594 C 45.839844 42.257812 46.175781 43.933594 46.96875 45.453125 C 46.113281 45.8125 45.613281 46.480469 45.460938 47.464844 C 45.597656 43.886719 45.429688 40.203125 44.960938 36.414062 C 44.601562 33.160156 45.773438 30.566406 48.476562 28.628906 C 49.984375 27.792969 51.492188 26.953125 52.996094 26.117188 C 60.058594 24.808594 67.09375 24.390625 74.097656 24.863281 Z M 74.097656 24.863281 "/>
<path style=" stroke:none;fill-rule:evenodd;fill:rgb(87.843137%,67.45098%,52.156863%);fill-opacity:1;" d="M 86.152344 39.425781 C 85.339844 36.714844 84.921875 33.867188 84.898438 30.890625 C 84.5625 30.21875 84.226562 29.550781 83.890625 28.878906 C 81.117188 26.417969 77.851562 25.078125 74.097656 24.863281 C 67.09375 24.390625 60.058594 24.808594 52.996094 26.117188 C 51.492188 26.953125 49.984375 27.792969 48.476562 28.628906 C 45.773438 30.566406 44.601562 33.160156 44.960938 36.414062 C 43.722656 33.921875 43.054688 31.242188 42.949219 28.378906 C 44.03125 24.644531 46.542969 22.554688 50.484375 22.097656 C 60.582031 21.601562 70.628906 22.101562 80.625 23.605469 C 87.351562 26.074219 89.273438 30.511719 86.402344 36.917969 C 86.15625 37.738281 86.070312 38.574219 86.152344 39.425781 Z M 86.152344 39.425781 "/>
<path style=" stroke:none;fill-rule:evenodd;fill:rgb(81.960784%,63.529412%,52.941176%);fill-opacity:1;" d="M 78.113281 15.320312 C 80.609375 16.621094 81.445312 18.632812 80.625 21.347656 C 78.761719 19.648438 76.921875 17.972656 75.101562 16.324219 C 75.488281 15.941406 75.738281 15.4375 75.855469 14.816406 C 76.46875 15.84375 77.222656 16.011719 78.113281 15.320312 Z M 78.113281 15.320312 "/>
<path style=" stroke:none;fill-rule:evenodd;fill:rgb(76.862745%,58.039216%,49.411765%);fill-opacity:1;" d="M 58.523438 16.324219 C 58.964844 16.257812 59.296875 16.425781 59.527344 16.824219 C 58.964844 17.535156 58.460938 18.289062 58.019531 19.085938 C 55.007812 19.421875 51.992188 19.421875 48.980469 19.085938 C 49.929688 18.199219 50.933594 17.445312 51.992188 16.824219 C 53.503906 16.925781 55.011719 17.09375 56.515625 17.328125 C 57.433594 17.285156 58.105469 16.949219 58.523438 16.324219 Z M 58.523438 16.324219 "/>
<path style=" stroke:none;fill-rule:evenodd;fill:rgb(89.411765%,69.019608%,57.254902%);fill-opacity:1;" d="M 74.597656 17.328125 C 75.214844 18.050781 75.714844 18.886719 76.105469 19.839844 C 72.101562 20.175781 68.082031 20.175781 64.050781 19.839844 C 63.914062 19.035156 64.082031 18.367188 64.550781 17.832031 C 67.148438 17.507812 69.742188 17.171875 72.339844 16.824219 C 72.503906 17.160156 72.671875 17.496094 72.839844 17.832031 C 73.347656 17.410156 73.933594 17.242188 74.597656 17.328125 Z M 74.597656 17.328125 "/>
<path style=" stroke:none;fill-rule:evenodd;fill:rgb(92.54902%,77.647059%,64.705882%);fill-opacity:1;" d="M 78.113281 15.320312 C 77.222656 16.011719 76.46875 15.84375 75.855469 14.816406 C 75.738281 15.4375 75.488281 15.941406 75.101562 16.324219 C 73.996094 16.277344 73.828125 16.613281 74.597656 17.328125 C 73.933594 17.242188 73.347656 17.410156 72.839844 17.832031 C 72.671875 17.496094 72.503906 17.160156 72.339844 16.824219 C 69.742188 17.171875 67.148438 17.507812 64.550781 17.832031 C 67.066406 13.480469 70.75 12.054688 75.601562 13.5625 C 76.648438 13.910156 77.488281 14.496094 78.113281 15.320312 Z M 78.113281 15.320312 "/>
<path style=" stroke:none;fill-rule:evenodd;fill:rgb(61.568627%,49.019608%,42.352941%);fill-opacity:1;" d="M 29.386719 13.308594 C 28.796875 11.789062 27.960938 10.449219 26.875 9.292969 C 26.980469 8.578125 27.230469 7.90625 27.628906 7.28125 C 27.761719 8.347656 28.261719 9.183594 29.136719 9.792969 C 29.386719 10.953125 29.46875 12.125 29.386719 13.308594 Z M 29.386719 13.308594 "/>
<path style=" stroke:none;fill-rule:evenodd;fill:rgb(91.372549%,74.901961%,60.392157%);fill-opacity:1;" d="M 42.949219 10.796875 C 43.300781 9.253906 43.804688 7.75 44.457031 6.277344 C 44.121094 6.109375 43.789062 5.945312 43.453125 5.777344 C 40.957031 7.519531 38.695312 9.527344 36.671875 11.804688 C 36.738281 10.019531 37.15625 8.34375 37.925781 6.78125 C 40.183594 5.570312 42.527344 4.480469 44.960938 3.515625 C 47.101562 2.832031 49.277344 2.664062 51.492188 3.011719 C 48.726562 4.4375 46.632812 6.53125 45.210938 9.292969 C 44.644531 10.117188 43.890625 10.617188 42.949219 10.796875 Z M 42.949219 10.796875 "/>
<path style=" stroke:none;fill-rule:evenodd;fill:rgb(98.431373%,95.294118%,86.27451%);fill-opacity:1;" d="M 37.925781 6.78125 C 37.15625 8.34375 36.738281 10.019531 36.671875 11.804688 C 38.695312 9.527344 40.957031 7.519531 43.453125 5.777344 C 43.789062 5.945312 44.121094 6.109375 44.457031 6.277344 C 43.804688 7.75 43.300781 9.253906 42.949219 10.796875 C 46.359375 11.5625 49.875 12.398438 53.5 13.308594 C 47.996094 12.714844 43.308594 14.386719 39.433594 18.332031 C 37.792969 19.050781 36.539062 20.222656 35.667969 21.847656 C 34.203125 24.390625 33.03125 27.070312 32.148438 29.882812 C 31.816406 31.390625 31.816406 32.898438 32.148438 34.40625 C 34.207031 37.867188 35.128906 41.632812 34.914062 45.707031 C 35.433594 49.671875 34.261719 53.023438 31.398438 55.75 C 32.386719 56 33.390625 56.082031 34.410156 56.003906 C 34.808594 56.738281 34.808594 57.410156 34.410156 58.011719 C 30.945312 59.386719 28.097656 61.5625 25.871094 64.539062 C 28.316406 66.230469 30.828125 67.820312 33.40625 69.3125 C 35.9375 69.644531 38.449219 69.5625 40.941406 69.0625 C 40.941406 69.5625 40.941406 70.066406 40.941406 70.566406 C 38.609375 73.824219 35.429688 75.332031 31.398438 75.089844 C 31.320312 75.617188 31.40625 76.117188 31.648438 76.59375 C 35.265625 79.117188 38.03125 82.300781 39.9375 86.136719 C 38.589844 86.226562 37.417969 86.726562 36.421875 87.644531 C 37.964844 89.085938 39.808594 90.007812 41.945312 90.40625 C 47.511719 92.339844 53.121094 92.589844 58.773438 91.160156 C 59.160156 91.195312 59.410156 91.363281 59.527344 91.664062 C 58.964844 93.363281 57.960938 94.789062 56.515625 95.933594 C 53.617188 97.835938 50.433594 98.753906 46.96875 98.695312 C 46.070312 98.550781 45.234375 98.71875 44.457031 99.195312 C 46.171875 101.96875 48.515625 103.308594 51.492188 103.214844 C 52.402344 104.039062 53.40625 104.789062 54.503906 105.476562 C 49.117188 107.46875 44.679688 106.214844 41.191406 101.707031 C 40.832031 101.980469 40.582031 102.316406 40.4375 102.710938 C 39.578125 104.097656 38.992188 105.605469 38.679688 107.234375 C 38.050781 106.480469 37.550781 105.640625 37.171875 104.722656 C 37.007812 102.210938 36.839844 99.699219 36.671875 97.1875 C 36.460938 96.597656 36.125 96.097656 35.667969 95.679688 C 34.902344 96.960938 34.148438 96.960938 33.40625 95.679688 C 32.609375 93.203125 31.855469 90.691406 31.144531 88.148438 C 31.042969 89.0625 30.625 89.730469 29.890625 90.15625 C 29.746094 89.761719 29.496094 89.425781 29.136719 89.152344 C 28.570312 89.976562 27.816406 90.476562 26.875 90.660156 C 26.875 90.492188 26.875 90.324219 26.875 90.15625 C 26.792969 87.804688 26.875 85.460938 27.125 83.125 C 28.277344 84.417969 28.863281 85.921875 28.886719 87.644531 C 31.414062 87.449219 32.335938 86.109375 31.648438 83.625 C 30.4375 80.066406 28.761719 76.714844 26.625 73.582031 C 25.109375 68.339844 23.433594 63.148438 21.601562 58.011719 C 21.203125 55.855469 19.945312 54.679688 17.832031 54.496094 C 17.171875 59.175781 18.429688 63.191406 21.601562 66.550781 C 21.769531 68.390625 21.9375 70.234375 22.101562 72.074219 C 23.988281 74.335938 25.496094 76.847656 26.625 79.609375 C 27.03125 80.652344 26.945312 81.65625 26.375 82.621094 C 25.90625 82.09375 25.570312 82.09375 25.367188 82.621094 C 22.957031 78.808594 20.777344 74.789062 18.839844 70.566406 C 10.703125 73.65625 5.59375 70.980469 3.515625 62.53125 C 6.371094 65.074219 9.636719 65.910156 13.3125 65.042969 C 14.273438 65.875 15.277344 66.042969 16.328125 65.546875 C 15.625 61.199219 15.039062 56.847656 14.566406 52.488281 C 12.21875 49.96875 9.289062 48.714844 5.777344 48.71875 C 6.53125 48.089844 7.367188 47.589844 8.289062 47.210938 C 10.960938 46.960938 13.640625 46.878906 16.328125 46.960938 C 16.53125 44.125 16.195312 41.363281 15.320312 38.675781 C 15.488281 38.421875 15.65625 38.171875 15.824219 37.921875 C 16.691406 38.789062 17.695312 39.457031 18.839844 39.929688 C 19.269531 39.292969 19.605469 38.625 19.84375 37.921875 C 20.152344 37.976562 20.402344 38.144531 20.597656 38.421875 C 22.304688 35.175781 24.144531 31.996094 26.121094 28.878906 C 27.152344 26.828125 27.570312 24.652344 27.378906 22.351562 C 27.210938 17.996094 27.042969 13.644531 26.875 9.292969 C 27.960938 10.449219 28.796875 11.789062 29.386719 13.308594 C 29.621094 15.496094 29.957031 17.671875 30.390625 19.839844 C 30.8125 17.832031 31.230469 15.820312 31.648438 13.8125 C 32.339844 10.074219 34.265625 7.226562 37.425781 5.273438 C 37.871094 5.6875 38.039062 6.191406 37.925781 6.78125 Z M 37.925781 6.78125 "/>
<path style=" stroke:none;fill-rule:evenodd;fill:rgb(89.019608%,72.156863%,58.431373%);fill-opacity:1;" d="M 44.960938 66.046875 C 43.839844 68.457031 42.582031 70.800781 41.191406 73.078125 C 39.832031 74.890625 38.074219 76.144531 35.917969 76.847656 C 39.292969 79.886719 42.308594 83.234375 44.960938 86.890625 C 50.089844 87.929688 55.28125 88.515625 60.53125 88.648438 C 60.652344 89.855469 60.320312 90.859375 59.527344 91.664062 C 59.410156 91.363281 59.160156 91.195312 58.773438 91.160156 C 53.121094 92.589844 47.511719 92.339844 41.945312 90.40625 C 39.808594 90.007812 37.964844 89.085938 36.421875 87.644531 C 37.417969 86.726562 38.589844 86.226562 39.9375 86.136719 C 38.03125 82.300781 35.265625 79.117188 31.648438 76.59375 C 31.40625 76.117188 31.320312 75.617188 31.398438 75.089844 C 35.429688 75.332031 38.609375 73.824219 40.941406 70.566406 C 42.394531 69.183594 43.480469 67.507812 44.207031 65.546875 C 44.398438 65.824219 44.648438 65.992188 44.960938 66.046875 Z M 44.960938 66.046875 "/>
<path style=" stroke:none;fill-rule:evenodd;fill:rgb(65.098039%,63.921569%,61.960784%);fill-opacity:1;" d="M 25.871094 85.132812 C 26.207031 86.808594 26.539062 88.480469 26.875 90.15625 C 26.875 90.324219 26.875 90.492188 26.875 90.660156 C 26.5625 91.222656 26.144531 91.726562 25.621094 92.164062 C 25.808594 89.863281 25.894531 87.519531 25.871094 85.132812 Z M 25.871094 85.132812 "/>
<path style=" stroke:none;fill-rule:evenodd;fill:rgb(97.254902%,93.72549%,89.019608%);fill-opacity:1;" d="M 64.550781 88.648438 C 67.972656 90.480469 71.488281 92.238281 75.101562 93.921875 C 75.519531 94.429688 75.6875 95.015625 75.601562 95.679688 C 70.457031 97.675781 66.691406 96.167969 64.300781 91.160156 C 63.910156 90.210938 63.992188 89.375 64.550781 88.648438 Z M 64.550781 88.648438 "/>
<path style=" stroke:none;fill-rule:evenodd;fill:rgb(90.588235%,80.784314%,68.235294%);fill-opacity:1;" d="M 64.550781 88.648438 C 68.308594 88.152344 72.160156 87.984375 76.105469 88.148438 C 75.960938 89.046875 76.128906 89.882812 76.609375 90.660156 C 80.632812 87.136719 81.550781 87.972656 79.371094 93.167969 C 78.300781 94.328125 77.046875 95.164062 75.601562 95.679688 C 75.6875 95.015625 75.519531 94.429688 75.101562 93.921875 C 71.488281 92.238281 67.972656 90.480469 64.550781 88.648438 Z M 64.550781 88.648438 "/>
<path style=" stroke:none;fill-rule:evenodd;fill:rgb(86.27451%,83.137255%,76.078431%);fill-opacity:1;" d="M 33.40625 95.679688 C 32.777344 97.609375 31.855469 99.453125 30.644531 101.207031 C 31.183594 97.472656 30.933594 93.789062 29.890625 90.15625 C 30.625 89.730469 31.042969 89.0625 31.144531 88.148438 C 31.855469 90.691406 32.609375 93.203125 33.40625 95.679688 Z M 33.40625 95.679688 "/>
<path style=" stroke:none;fill-rule:evenodd;fill:rgb(90.588235%,76.078431%,60%);fill-opacity:1;" d="M 46.96875 98.695312 C 48.628906 100.019531 50.136719 101.527344 51.492188 103.214844 C 48.515625 103.308594 46.171875 101.96875 44.457031 99.195312 C 45.234375 98.71875 46.070312 98.550781 46.96875 98.695312 Z M 46.96875 98.695312 "/>
<use xlink:href="#surface29" mask="url(#mask8)"/>
</g>
</svg>
