<?xml version="1.0" encoding="UTF-8"?>
<svg xmlns="http://www.w3.org/2000/svg" xmlns:xlink="http://www.w3.org/1999/xlink" width="px" height="px" viewBox="0 0 103 91" version="1.1">
<defs>
<filter id="alpha" filterUnits="objectBoundingBox" x="0%" y="0%" width="100%" height="100%">
  <feColorMatrix type="matrix" in="SourceGraphic" values="0 0 0 0 1 0 0 0 0 1 0 0 0 0 1 0 0 0 1 0"/>
</filter>
<mask id="mask0">
  <g filter="url(#alpha)">
<rect x="0" y="0" width="103" height="91" style="fill:rgb(0%,0%,0%);fill-opacity:0.0431373;stroke:none;"/>
  </g>
</mask>
<clipPath id="clip1">
  <rect x="0" y="0" width="103" height="91"/>
</clipPath>
<g id="surface5" clip-path="url(#clip1)">
<path style=" stroke:none;fill-rule:evenodd;fill:rgb(13.72549%,18.823529%,24.313725%);fill-opacity:1;" d="M 36.074219 -0.25 C 36.738281 -0.25 37.402344 -0.25 38.066406 -0.25 C 39.890625 0.121094 41.71875 0.703125 43.539062 1.5 C 48.539062 1.265625 52.851562 2.847656 56.476562 6.25 C 58.625 2.84375 61.609375 0.675781 65.433594 -0.25 C 66.757812 -0.25 68.085938 -0.25 69.414062 -0.25 C 75.277344 1.5625 78.84375 5.5625 80.109375 11.75 C 83.195312 14.101562 85.433594 17.101562 86.828125 20.75 C 88.957031 20.195312 91.113281 20.113281 93.296875 20.5 C 94.636719 20.84375 95.71875 21.59375 96.53125 22.75 C 98.628906 28.753906 100.121094 34.917969 101.007812 41.25 C 101.820312 41.976562 102.398438 42.8125 102.75 43.75 C 102.75 44.417969 102.75 45.082031 102.75 45.75 C 101.96875 47.054688 101.136719 48.386719 100.261719 49.75 C 100.816406 52.222656 100.320312 54.472656 98.769531 56.5 C 99.058594 56.945312 99.226562 57.445312 99.269531 58 C 98.285156 60.679688 97.539062 63.429688 97.027344 66.25 C 94.402344 69.429688 91 70.679688 86.828125 70 C 85.195312 73.644531 82.792969 76.730469 79.613281 79.25 C 78.503906 85.445312 74.9375 89.28125 68.914062 90.75 C 67.921875 90.75 66.925781 90.75 65.929688 90.75 C 64.011719 90.355469 62.1875 89.605469 60.457031 88.5 C 59.046875 87.082031 57.636719 85.667969 56.226562 84.25 C 53.945312 86.523438 51.207031 87.9375 48.015625 88.5 C 44.542969 88.707031 41.144531 89.289062 37.816406 90.25 C 35.691406 90.089844 33.617188 89.671875 31.597656 89 C 29.605469 87.332031 27.617188 85.667969 25.625 84 C 22.175781 82.765625 18.859375 81.265625 15.675781 79.5 C 12.570312 76.632812 9.75 73.546875 7.214844 70.25 C 6.40625 69.6875 5.65625 69.019531 4.976562 68.25 C 3.078125 64.933594 1.335938 61.601562 -0.25 58.25 C -0.25 57.417969 -0.25 56.582031 -0.25 55.75 C 0.539062 54.367188 1.449219 53.035156 2.488281 51.75 C 2.820312 47.234375 2.652344 42.734375 1.992188 38.25 C 1.230469 37.050781 0.484375 35.882812 -0.25 34.75 C -0.25 33.417969 -0.25 32.082031 -0.25 30.75 C 1.828125 26.574219 4.234375 22.574219 6.964844 18.75 C 9.859375 16.210938 12.597656 13.460938 15.175781 10.5 C 18.824219 8.832031 22.472656 7.167969 26.125 5.5 C 28.683594 2.132812 32 0.21875 36.074219 -0.25 Z M 36.074219 -0.25 "/>
</g>
<mask id="mask1">
  <g filter="url(#alpha)">
<rect x="0" y="0" width="103" height="91" style="fill:rgb(0%,0%,0%);fill-opacity:0.921569;stroke:none;"/>
  </g>
</mask>
<clipPath id="clip2">
  <rect x="0" y="0" width="103" height="91"/>
</clipPath>
<g id="surface8" clip-path="url(#clip2)">
<path style=" stroke:none;fill-rule:evenodd;fill:rgb(2.352941%,2.352941%,4.705882%);fill-opacity:1;" d="M 57.96875 5.75 C 58.714844 6.929688 58.550781 8.015625 57.472656 9 C 57.925781 9.140625 58.257812 9.390625 58.464844 9.75 C 58.105469 9.957031 57.859375 10.292969 57.71875 10.75 C 57.554688 10.417969 57.386719 10.082031 57.222656 9.75 C 55.683594 12.082031 54.109375 12.164062 52.496094 10 C 52.773438 9.808594 52.9375 9.558594 52.992188 9.25 C 51.921875 6.957031 50.097656 5.792969 47.519531 5.75 C 45.789062 5.238281 43.964844 4.902344 42.046875 4.75 C 38.28125 3.246094 34.632812 3.496094 31.097656 5.5 C 30.496094 6.019531 30 6.601562 29.605469 7.25 C 28.847656 7.214844 28.347656 7.546875 28.113281 8.25 C 24.355469 10.773438 20.953125 13.773438 17.914062 17.25 C 17.617188 17.742188 17.785156 18.074219 18.410156 18.25 C 19.289062 18.617188 20.203125 18.785156 21.148438 18.75 C 21.226562 19.4375 21.140625 20.101562 20.898438 20.75 C 18.835938 19.746094 16.597656 19.246094 14.179688 19.25 C 12.953125 19.238281 11.792969 19.488281 10.699219 20 C 7.695312 23.617188 5.125 27.535156 2.984375 31.75 C 2.574219 33.105469 2.824219 34.273438 3.730469 35.25 C 4.019531 35.964844 4.4375 36.632812 4.976562 37.25 C 5.140625 37.082031 5.308594 36.917969 5.472656 36.75 C 5.558594 40.007812 5.808594 43.171875 6.21875 46.25 C 6.089844 49.945312 6.253906 53.613281 6.71875 57.25 C 6.738281 57.878906 6.488281 58.378906 5.972656 58.75 C 5.566406 58.089844 4.984375 57.753906 4.230469 57.75 C 3.460938 54.578125 3.042969 54.746094 2.984375 58.25 C 4.296875 61.132812 5.871094 63.800781 7.710938 66.25 C 8.414062 67.707031 9.40625 68.957031 10.699219 70 C 14.054688 70.222656 17.371094 70.054688 20.648438 69.5 C 19.996094 70.328125 19.164062 70.914062 18.160156 71.25 C 17.652344 71.5 17.570312 71.835938 17.914062 72.25 C 20.695312 75.769531 23.929688 78.769531 27.617188 81.25 C 27.792969 82.09375 28.289062 82.59375 29.109375 82.75 C 30.769531 84.835938 32.925781 86 35.578125 86.25 C 38.417969 87.132812 41.070312 86.632812 43.539062 84.75 C 44.609375 85.285156 45.605469 85.285156 46.523438 84.75 C 48.144531 84.898438 49.636719 84.5625 51.003906 83.75 C 51.996094 83.082031 52.828125 82.25 53.492188 81.25 C 54.082031 80.71875 53.917969 80.300781 52.992188 80 C 54.722656 79.171875 56.546875 78.585938 58.464844 78.25 C 58.636719 80.058594 58.304688 81.722656 57.472656 83.25 C 57.148438 83.097656 56.816406 82.929688 56.476562 82.75 C 54.660156 84.664062 52.503906 86.082031 50.007812 87 C 46.773438 87.339844 43.621094 88.007812 40.554688 89 C 34.78125 90.011719 30.136719 88.179688 26.621094 83.5 C 22.871094 82.023438 19.222656 80.355469 15.675781 78.5 C 13.476562 76.625 11.652344 74.460938 10.199219 72 C 9.253906 71.289062 8.257812 70.707031 7.214844 70.25 C 4.476562 66.160156 2.320312 61.746094 0.746094 57 C 1.230469 55.175781 2.144531 53.59375 3.484375 52.25 C 3.816406 48.082031 3.816406 43.917969 3.484375 39.75 C 2.871094 37.96875 2.042969 36.304688 0.996094 34.75 C 0.664062 33.582031 0.664062 32.417969 0.996094 31.25 C 2.726562 27.4375 4.714844 23.773438 6.964844 20.25 C 8.027344 18.886719 9.351562 17.886719 10.945312 17.25 C 11.640625 15.105469 12.886719 13.355469 14.679688 12 C 18.195312 10.066406 21.84375 8.402344 25.625 7 C 27.433594 5.683594 29.089844 4.183594 30.601562 2.5 C 35.144531 0.742188 39.625 0.910156 44.035156 3 C 49.273438 2.417969 53.5 4.167969 56.726562 8.25 C 57.144531 7.402344 57.5625 6.570312 57.96875 5.75 Z M 57.96875 5.75 "/>
</g>
</defs>
<g id="surface1">
<use xlink:href="#surface5" mask="url(#mask0)"/>
<path style=" stroke:none;fill-rule:evenodd;fill:rgb(45.490196%,40%,37.647059%);fill-opacity:1;" d="M 42.542969 5.25 C 44.730469 6.3125 45.5625 7.980469 45.03125 10.25 C 43.046875 10.554688 41.054688 10.886719 39.058594 11.25 C 35.40625 14.15625 32.253906 17.574219 29.605469 21.5 C 28.609375 21.832031 27.617188 21.832031 26.621094 21.5 C 26.113281 20.976562 26.03125 20.390625 26.371094 19.75 C 28.609375 16.167969 31.511719 13.25 35.078125 11 C 34.640625 10.644531 34.308594 10.230469 34.085938 9.75 C 36.933594 9.070312 39.753906 8.238281 42.542969 7.25 C 42.9375 6.648438 42.9375 5.984375 42.542969 5.25 Z M 42.542969 5.25 "/>
<path style=" stroke:none;fill-rule:evenodd;fill:rgb(64.313725%,56.078431%,50.196078%);fill-opacity:1;" d="M 28.113281 8.25 C 29.183594 9.902344 29.597656 11.734375 29.359375 13.75 C 25.308594 18.402344 21.742188 23.402344 18.660156 28.75 C 18.199219 28.320312 17.867188 27.820312 17.664062 27.25 C 18.539062 26.855469 19.203125 26.1875 19.65625 25.25 C 17.746094 24.503906 15.757812 24.171875 13.683594 24.25 C 12.355469 24.332031 11.03125 24.417969 9.703125 24.5 C 9.089844 24.890625 8.59375 25.390625 8.210938 26 C 8.246094 26.382812 8.410156 26.632812 8.707031 26.75 C 7.410156 27.800781 6.167969 28.964844 4.976562 30.25 C 4.402344 31.882812 3.988281 33.550781 3.730469 35.25 C 2.824219 34.273438 2.574219 33.105469 2.984375 31.75 C 5.125 27.535156 7.695312 23.617188 10.699219 20 C 11.792969 19.488281 12.953125 19.238281 14.179688 19.25 C 16.597656 19.246094 18.835938 19.746094 20.898438 20.75 C 21.140625 20.101562 21.226562 19.4375 21.148438 18.75 C 20.203125 18.785156 19.289062 18.617188 18.410156 18.25 C 17.785156 18.074219 17.617188 17.742188 17.914062 17.25 C 20.953125 13.773438 24.355469 10.773438 28.113281 8.25 Z M 28.113281 8.25 "/>
<path style=" stroke:none;fill-rule:evenodd;fill:rgb(88.627451%,79.215686%,70.980392%);fill-opacity:1;" d="M 17.664062 27.25 C 14.71875 26.21875 11.734375 26.054688 8.707031 26.75 C 8.410156 26.632812 8.246094 26.382812 8.210938 26 C 8.59375 25.390625 9.089844 24.890625 9.703125 24.5 C 11.03125 24.417969 12.355469 24.332031 13.683594 24.25 C 15.757812 24.171875 17.746094 24.503906 19.65625 25.25 C 19.203125 26.1875 18.539062 26.855469 17.664062 27.25 Z M 17.664062 27.25 "/>
<path style=" stroke:none;fill-rule:evenodd;fill:rgb(25.490196%,21.568627%,19.607843%);fill-opacity:1;" d="M 18.160156 39.25 C 17.238281 41.597656 16.90625 44.097656 17.167969 46.75 C 16.753906 44.175781 16.507812 41.507812 16.421875 38.75 C 15.34375 37.667969 14.265625 36.582031 13.1875 35.5 C 13.519531 35.167969 13.847656 35.167969 14.179688 35.5 C 15.769531 36.515625 17.097656 37.765625 18.160156 39.25 Z M 18.160156 39.25 "/>
<use xlink:href="#surface8" mask="url(#mask1)"/>
<path style=" stroke:none;fill-rule:evenodd;fill:rgb(61.176471%,54.509804%,51.372549%);fill-opacity:1;" d="M 19.15625 11.75 C 19.679688 11.675781 20.179688 11.757812 20.648438 12 C 18.824219 13.832031 17 15.667969 15.175781 17.5 C 14.457031 17.890625 13.792969 17.808594 13.1875 17.25 C 14.886719 15.035156 16.878906 13.203125 19.15625 11.75 Z M 19.15625 11.75 "/>
<path style=" stroke:none;fill-rule:evenodd;fill:rgb(60.392157%,50.588235%,45.490196%);fill-opacity:1;" d="M 42.046875 4.75 C 42.046875 5.082031 42.210938 5.25 42.542969 5.25 C 42.9375 5.984375 42.9375 6.648438 42.542969 7.25 C 39.753906 8.238281 36.933594 9.070312 34.085938 9.75 C 32.726562 9.238281 31.730469 9.738281 31.097656 11.25 C 30.210938 10.070312 29.710938 8.738281 29.605469 7.25 C 30 6.601562 30.496094 6.019531 31.097656 5.5 C 34.632812 3.496094 38.28125 3.246094 42.046875 4.75 Z M 42.046875 4.75 "/>
<path style=" stroke:none;fill-rule:evenodd;fill:rgb(62.745098%,54.117647%,50.980392%);fill-opacity:1;" d="M 8.707031 39.75 C 7.710938 43.164062 7.464844 46.664062 7.960938 50.25 C 8.101562 50.707031 8.347656 51.039062 8.707031 51.25 C 8.46875 51.707031 8.300781 52.207031 8.210938 52.75 C 9.09375 55.160156 9.921875 57.574219 10.699219 60 C 10.199219 60.332031 9.703125 60.332031 9.207031 60 C 8.257812 59.136719 7.429688 58.21875 6.71875 57.25 C 6.253906 53.613281 6.089844 49.945312 6.21875 46.25 C 6.136719 42.246094 6.21875 38.246094 6.46875 34.25 C 7.457031 32.597656 8.867188 31.679688 10.699219 31.5 C 8.847656 34.082031 8.183594 36.832031 8.707031 39.75 Z M 8.707031 39.75 "/>
<path style=" stroke:none;fill-rule:evenodd;fill:rgb(95.294118%,88.235294%,78.431373%);fill-opacity:1;" d="M 10.199219 36.25 C 11.996094 36.972656 13.238281 38.304688 13.933594 40.25 C 14.265625 44.417969 14.265625 48.582031 13.933594 52.75 C 12.996094 54.011719 11.75 54.679688 10.199219 54.75 C 10.058594 53.371094 9.726562 52.039062 9.207031 50.75 C 8.902344 50.8125 8.738281 50.976562 8.707031 51.25 C 8.347656 51.039062 8.101562 50.707031 7.960938 50.25 C 7.464844 46.664062 7.710938 43.164062 8.707031 39.75 C 9.070312 38.523438 9.566406 37.355469 10.199219 36.25 Z M 10.199219 36.25 "/>
<path style=" stroke:none;fill-rule:evenodd;fill:rgb(68.235294%,61.176471%,54.509804%);fill-opacity:1;" d="M 18.160156 39.25 C 17.097656 37.765625 15.769531 36.515625 14.179688 35.5 C 13.847656 35.167969 13.519531 35.167969 13.1875 35.5 C 14.265625 36.582031 15.34375 37.667969 16.421875 38.75 C 16.507812 41.507812 16.753906 44.175781 17.167969 46.75 C 17.085938 47.761719 17.167969 48.761719 17.414062 49.75 C 18.976562 51.804688 20.222656 54.054688 21.148438 56.5 C 19.855469 59.570312 17.535156 61.320312 14.179688 61.75 C 12.207031 59.816406 10.882812 57.484375 10.199219 54.75 C 11.75 54.679688 12.996094 54.011719 13.933594 52.75 C 14.265625 48.582031 14.265625 44.417969 13.933594 40.25 C 13.238281 38.304688 11.996094 36.972656 10.199219 36.25 C 11.257812 33.121094 12.835938 30.289062 14.925781 27.75 C 16.917969 29.082031 18.910156 30.417969 20.898438 31.75 C 21.230469 32.582031 21.230469 33.417969 20.898438 34.25 C 19.871094 35.863281 18.960938 37.527344 18.160156 39.25 Z M 18.160156 39.25 "/>
<path style=" stroke:none;fill-rule:evenodd;fill:rgb(70.196078%,66.666667%,63.921569%);fill-opacity:1;" d="M 4.230469 57.75 C 4.933594 59.332031 5.761719 60.832031 6.71875 62.25 C 6.5 62.21875 6.332031 62.300781 6.21875 62.5 C 7.535156 63.597656 8.03125 64.847656 7.710938 66.25 C 5.871094 63.800781 4.296875 61.132812 2.984375 58.25 C 3.042969 54.746094 3.460938 54.578125 4.230469 57.75 Z M 4.230469 57.75 "/>
<path style=" stroke:none;fill-rule:evenodd;fill:rgb(92.156863%,84.705882%,76.470588%);fill-opacity:1;" d="M 6.71875 62.25 C 7.304688 62.753906 7.96875 63.167969 8.707031 63.5 C 11.214844 63.832031 13.703125 63.746094 16.171875 63.25 C 16.710938 63.269531 17.207031 63.4375 17.664062 63.75 C 17.933594 65.082031 18.597656 66.167969 19.65625 67 C 20.125 67.308594 20.542969 67.226562 20.898438 66.75 C 24.125 70.738281 26.695312 75.070312 28.609375 79.75 C 28.648438 80.511719 28.316406 81.011719 27.617188 81.25 C 23.929688 78.769531 20.695312 75.769531 17.914062 72.25 C 17.570312 71.835938 17.652344 71.5 18.160156 71.25 C 19.164062 70.914062 19.996094 70.328125 20.648438 69.5 C 17.371094 70.054688 14.054688 70.222656 10.699219 70 C 9.40625 68.957031 8.414062 67.707031 7.710938 66.25 C 8.03125 64.847656 7.535156 63.597656 6.21875 62.5 C 6.332031 62.300781 6.5 62.21875 6.71875 62.25 Z M 6.71875 62.25 "/>
<path style=" stroke:none;fill-rule:evenodd;fill:rgb(70.980392%,61.960784%,51.764706%);fill-opacity:1;" d="M 28.609375 79.75 C 26.695312 75.070312 24.125 70.738281 20.898438 66.75 C 20.542969 67.226562 20.125 67.308594 19.65625 67 C 18.597656 66.167969 17.933594 65.082031 17.664062 63.75 C 17.207031 63.4375 16.710938 63.269531 16.171875 63.25 C 17.097656 62.234375 18.175781 61.898438 19.40625 62.25 C 22.335938 67.195312 25.652344 71.863281 29.359375 76.25 C 29.648438 77.570312 29.402344 78.738281 28.609375 79.75 Z M 28.609375 79.75 "/>
<path style=" stroke:none;fill-rule:evenodd;fill:rgb(72.54902%,72.156863%,70.980392%);fill-opacity:1;" d="M 13.683594 72.25 C 14.207031 72.175781 14.703125 72.257812 15.175781 72.5 C 17 74.332031 18.824219 76.167969 20.648438 78 C 17.238281 77.496094 14.917969 75.578125 13.683594 72.25 Z M 13.683594 72.25 "/>
<path style=" stroke:none;fill-rule:evenodd;fill:rgb(4.313725%,3.529412%,3.529412%);fill-opacity:1;" d="M 57.472656 83.25 C 58.304688 81.722656 58.636719 80.058594 58.464844 78.25 C 56.546875 78.585938 54.722656 79.171875 52.992188 80 C 53.917969 80.300781 54.082031 80.71875 53.492188 81.25 C 52.847656 80.921875 52.101562 80.753906 51.25 80.75 C 49.984375 80.667969 48.90625 81 48.015625 81.75 C 46.957031 82.5625 45.960938 83.480469 45.03125 84.5 C 45.503906 84.742188 46 84.824219 46.523438 84.75 C 45.605469 85.285156 44.609375 85.285156 43.539062 84.75 C 44.085938 84.199219 44.417969 83.53125 44.535156 82.75 C 45.210938 81.890625 45.710938 80.890625 46.027344 79.75 C 42.910156 79.367188 40.089844 78.285156 37.566406 76.5 C 34.910156 73.996094 32.421875 71.332031 30.105469 68.5 C 28.554688 67.433594 27.226562 67.683594 26.125 69.25 C 26.371094 69.75 26.621094 70.25 26.871094 70.75 C 29.714844 74.023438 32.617188 77.191406 35.578125 80.25 C 34.40625 80.332031 33.242188 80.25 32.09375 80 C 31.734375 79.300781 31.484375 78.550781 31.347656 77.75 C 30.457031 79.375 29.710938 81.039062 29.109375 82.75 C 28.289062 82.59375 27.792969 82.09375 27.617188 81.25 C 28.316406 81.011719 28.648438 80.511719 28.609375 79.75 C 29.402344 78.738281 29.648438 77.570312 29.359375 76.25 C 25.652344 71.863281 22.335938 67.195312 19.40625 62.25 C 18.175781 61.898438 17.097656 62.234375 16.171875 63.25 C 13.703125 63.746094 11.214844 63.832031 8.707031 63.5 C 7.96875 63.167969 7.304688 62.753906 6.71875 62.25 C 5.761719 60.832031 4.933594 59.332031 4.230469 57.75 C 4.984375 57.753906 5.566406 58.089844 5.972656 58.75 C 6.488281 58.378906 6.738281 57.878906 6.71875 57.25 C 7.429688 58.21875 8.257812 59.136719 9.207031 60 C 9.703125 60.332031 10.199219 60.332031 10.699219 60 C 9.921875 57.574219 9.09375 55.160156 8.210938 52.75 C 8.300781 52.207031 8.46875 51.707031 8.707031 51.25 C 8.738281 50.976562 8.902344 50.8125 9.207031 50.75 C 9.726562 52.039062 10.058594 53.371094 10.199219 54.75 C 10.882812 57.484375 12.207031 59.816406 14.179688 61.75 C 17.535156 61.320312 19.855469 59.570312 21.148438 56.5 C 20.222656 54.054688 18.976562 51.804688 17.414062 49.75 C 17.167969 48.761719 17.085938 47.761719 17.167969 46.75 C 16.90625 44.097656 17.238281 41.597656 18.160156 39.25 C 18.960938 37.527344 19.871094 35.863281 20.898438 34.25 C 21.230469 33.417969 21.230469 32.582031 20.898438 31.75 C 18.910156 30.417969 16.917969 29.082031 14.925781 27.75 C 12.835938 30.289062 11.257812 33.121094 10.199219 36.25 C 9.566406 37.355469 9.070312 38.523438 8.707031 39.75 C 8.183594 36.832031 8.847656 34.082031 10.699219 31.5 C 8.867188 31.679688 7.457031 32.597656 6.46875 34.25 C 6.21875 38.246094 6.136719 42.246094 6.21875 46.25 C 5.808594 43.171875 5.558594 40.007812 5.472656 36.75 C 5.308594 36.917969 5.140625 37.082031 4.976562 37.25 C 4.4375 36.632812 4.019531 35.964844 3.730469 35.25 C 3.988281 33.550781 4.402344 31.882812 4.976562 30.25 C 6.167969 28.964844 7.410156 27.800781 8.707031 26.75 C 11.734375 26.054688 14.71875 26.21875 17.664062 27.25 C 17.867188 27.820312 18.199219 28.320312 18.660156 28.75 C 21.742188 23.402344 25.308594 18.402344 29.359375 13.75 C 29.597656 11.734375 29.183594 9.902344 28.113281 8.25 C 28.347656 7.546875 28.847656 7.214844 29.605469 7.25 C 29.710938 8.738281 30.210938 10.070312 31.097656 11.25 C 31.730469 9.738281 32.726562 9.238281 34.085938 9.75 C 34.308594 10.230469 34.640625 10.644531 35.078125 11 C 31.511719 13.25 28.609375 16.167969 26.371094 19.75 C 26.03125 20.390625 26.113281 20.976562 26.621094 21.5 C 27.617188 21.832031 28.609375 21.832031 29.605469 21.5 C 32.253906 17.574219 35.40625 14.15625 39.058594 11.25 C 41.054688 10.886719 43.046875 10.554688 45.03125 10.25 C 45.5625 7.980469 44.730469 6.3125 42.542969 5.25 C 42.210938 5.25 42.046875 5.082031 42.046875 4.75 C 43.964844 4.902344 45.789062 5.238281 47.519531 5.75 C 46.671875 5.667969 45.84375 5.753906 45.03125 6 C 46.960938 8.851562 49.617188 9.9375 52.992188 9.25 C 52.9375 9.558594 52.773438 9.808594 52.496094 10 C 54.109375 12.164062 55.683594 12.082031 57.222656 9.75 C 57.386719 10.082031 57.554688 10.417969 57.71875 10.75 C 57.859375 10.292969 58.105469 9.957031 58.464844 9.75 C 58.257812 9.390625 57.925781 9.140625 57.472656 9 C 58.550781 8.015625 58.714844 6.929688 57.96875 5.75 C 63.984375 -0.699219 70.203125 -0.867188 76.628906 5.25 C 77.878906 7.433594 78.789062 9.765625 79.363281 12.25 C 82.441406 14.347656 84.597656 17.179688 85.832031 20.75 C 88.109375 20.8125 90.433594 20.894531 92.800781 21 C 94.660156 21.640625 95.902344 22.890625 96.53125 24.75 C 97.636719 27.8125 98.300781 30.980469 98.523438 34.25 C 98.976562 34.664062 99.308594 35.164062 99.515625 35.75 C 99.324219 38.542969 99.984375 41.042969 101.507812 43.25 C 101.902344 45.792969 101.15625 47.960938 99.269531 49.75 C 100.242188 52.351562 99.746094 54.601562 97.773438 56.5 C 98.316406 57.53125 98.402344 58.617188 98.023438 59.75 C 97.132812 61.828125 96.46875 63.996094 96.035156 66.25 C 95.265625 67.1875 94.355469 67.9375 93.296875 68.5 C 90.789062 68.832031 88.304688 68.746094 85.832031 68.25 C 85.128906 72.882812 82.726562 76.382812 78.617188 78.75 C 78.171875 84.867188 74.9375 88.449219 68.914062 89.5 C 63.488281 90.273438 59.671875 88.191406 57.472656 83.25 Z M 57.472656 83.25 "/>
<path style=" stroke:none;fill-rule:evenodd;fill:rgb(50.980392%,45.490196%,41.568627%);fill-opacity:1;" d="M 44.535156 82.75 C 42.671875 81.851562 40.683594 81.351562 38.5625 81.25 C 37.46875 81.0625 36.472656 80.730469 35.578125 80.25 C 32.617188 77.191406 29.714844 74.023438 26.871094 70.75 C 26.621094 70.25 26.371094 69.75 26.125 69.25 C 27.226562 67.683594 28.554688 67.433594 30.105469 68.5 C 32.421875 71.332031 34.910156 73.996094 37.566406 76.5 C 40.089844 78.285156 42.910156 79.367188 46.027344 79.75 C 45.710938 80.890625 45.210938 81.890625 44.535156 82.75 Z M 44.535156 82.75 "/>
<path style=" stroke:none;fill-rule:evenodd;fill:rgb(92.941176%,76.862745%,14.509804%);fill-opacity:1;" d="M 34.085938 58.75 C 34.25 58.75 34.417969 58.75 34.582031 58.75 C 34.582031 58.917969 34.582031 59.082031 34.582031 59.25 C 35.5625 68.570312 40.703125 73.734375 50.007812 74.75 C 53.375 75.53125 56.855469 75.945312 60.457031 76 C 54.824219 76.984375 49.183594 76.898438 43.539062 75.75 C 41.945312 75.308594 40.617188 74.476562 39.558594 73.25 C 39.632812 72.722656 39.550781 72.222656 39.308594 71.75 C 37.273438 69.46875 35.363281 67.136719 33.585938 64.75 C 33.445312 62.804688 33.609375 60.804688 34.085938 58.75 Z M 34.085938 58.75 "/>
<path style=" stroke:none;fill-rule:evenodd;fill:rgb(92.156863%,80.784314%,29.411765%);fill-opacity:1;" d="M 82.351562 65.25 C 83.871094 69.261719 82.875 72.679688 79.363281 75.5 C 78.574219 75.929688 77.746094 76.265625 76.875 76.5 C 67.097656 77.175781 57.3125 77.339844 47.519531 77 C 46.046875 76.859375 44.722656 76.445312 43.539062 75.75 C 49.183594 76.898438 54.824219 76.984375 60.457031 76 C 56.855469 75.945312 53.375 75.53125 50.007812 74.75 C 52.496094 74.75 54.984375 74.75 57.472656 74.75 C 57.457031 73.902344 57.125 73.234375 56.476562 72.75 C 57.160156 72.828125 57.824219 72.746094 58.464844 72.5 C 57.929688 71.835938 57.597656 71.085938 57.472656 70.25 C 58.558594 71.382812 59.886719 72.132812 61.453125 72.5 C 64.613281 72.796875 67.765625 72.714844 70.90625 72.25 C 69.140625 73.132812 67.152344 73.550781 64.933594 73.5 C 64.769531 73.667969 64.601562 73.832031 64.4375 74 C 68.058594 76.125 72.039062 76.792969 76.378906 76 C 76.046875 75.832031 75.714844 75.667969 75.382812 75.5 C 76 75.382812 76.496094 75.132812 76.875 74.75 C 80.5625 73.183594 82.054688 70.351562 81.355469 66.25 C 81.171875 65.003906 81.503906 64.671875 82.351562 65.25 Z M 82.351562 65.25 "/>
<path style=" stroke:none;fill-rule:evenodd;fill:rgb(98.823529%,98.039216%,78.039216%);fill-opacity:1;" d="M 81.355469 66.25 C 82.054688 70.351562 80.5625 73.183594 76.875 74.75 C 76.378906 74.75 75.882812 74.75 75.382812 74.75 C 75.351562 74.019531 75.515625 73.355469 75.882812 72.75 C 77.417969 71.625 78.414062 70.125 78.867188 68.25 C 79.300781 67.214844 79.882812 66.214844 80.609375 65.25 C 80.746094 65.707031 80.996094 66.039062 81.355469 66.25 Z M 81.355469 66.25 "/>
<path style=" stroke:none;fill-rule:evenodd;fill:rgb(98.431373%,90.980392%,32.54902%);fill-opacity:1;" d="M 73.890625 71.25 C 73.527344 72.023438 72.863281 72.4375 71.902344 72.5 C 73.21875 72.75 74.542969 72.832031 75.882812 72.75 C 75.515625 73.355469 75.351562 74.019531 75.382812 74.75 C 75.882812 74.75 76.378906 74.75 76.875 74.75 C 76.496094 75.132812 76 75.382812 75.382812 75.5 C 75.714844 75.667969 76.046875 75.832031 76.378906 76 C 72.039062 76.792969 68.058594 76.125 64.4375 74 C 64.601562 73.832031 64.769531 73.667969 64.933594 73.5 C 67.152344 73.550781 69.140625 73.132812 70.90625 72.25 C 71.800781 71.769531 72.796875 71.4375 73.890625 71.25 Z M 73.890625 71.25 "/>
<path style=" stroke:none;fill-rule:evenodd;fill:rgb(99.607843%,97.647059%,78.039216%);fill-opacity:1;" d="M 39.058594 64.25 C 37.9375 63.558594 37.519531 63.890625 37.816406 65.25 C 39.050781 67.320312 40.460938 69.234375 42.046875 71 C 44.703125 71.632812 47.191406 72.632812 49.507812 74 C 51.832031 74.332031 54.152344 74.332031 56.476562 74 C 56.101562 73.664062 55.933594 73.246094 55.976562 72.75 C 56.144531 72.75 56.308594 72.75 56.476562 72.75 C 57.125 73.234375 57.457031 73.902344 57.472656 74.75 C 54.984375 74.75 52.496094 74.75 50.007812 74.75 C 40.703125 73.734375 35.5625 68.570312 34.582031 59.25 C 35.230469 58.597656 35.894531 58.597656 36.574219 59.25 C 37.425781 60.929688 38.253906 62.597656 39.058594 64.25 Z M 39.058594 64.25 "/>
<path style=" stroke:none;fill-rule:evenodd;fill:rgb(99.607843%,96.862745%,85.490196%);fill-opacity:1;" d="M 39.058594 64.25 C 41.277344 66.117188 43.601562 67.867188 46.027344 69.5 C 48.824219 70.011719 51.640625 70.425781 54.484375 70.75 C 55.078125 71.398438 55.578125 72.066406 55.976562 72.75 C 55.933594 73.246094 56.101562 73.664062 56.476562 74 C 54.152344 74.332031 51.832031 74.332031 49.507812 74 C 47.191406 72.632812 44.703125 71.632812 42.046875 71 C 40.460938 69.234375 39.050781 67.320312 37.816406 65.25 C 37.519531 63.890625 37.9375 63.558594 39.058594 64.25 Z M 39.058594 64.25 "/>
<path style=" stroke:none;fill-rule:evenodd;fill:rgb(99.215686%,91.372549%,14.117647%);fill-opacity:1;" d="M 78.867188 68.25 C 78.414062 70.125 77.417969 71.625 75.882812 72.75 C 74.542969 72.832031 73.21875 72.75 71.902344 72.5 C 72.863281 72.4375 73.527344 72.023438 73.890625 71.25 C 75.445312 70.855469 76.273438 69.855469 76.378906 68.25 C 76.875 68.25 77.375 68.25 77.871094 68.25 C 78.425781 65.683594 78.757812 65.683594 78.867188 68.25 Z M 78.867188 68.25 "/>
<path style=" stroke:none;fill-rule:evenodd;fill:rgb(91.764706%,81.568627%,39.215686%);fill-opacity:1;" d="M 85.832031 62.25 C 88.515625 62.203125 91.167969 62.453125 93.792969 63 C 94.421875 64.722656 93.757812 65.722656 91.804688 66 C 90.144531 66.332031 88.488281 66.332031 86.828125 66 C 84.695312 65.164062 84.363281 63.914062 85.832031 62.25 Z M 85.832031 62.25 "/>
<path style=" stroke:none;fill-rule:evenodd;fill:rgb(97.647059%,87.45098%,30.980392%);fill-opacity:1;" d="M 88.320312 56.75 C 90.808594 56.75 93.296875 56.75 95.785156 56.75 C 95.917969 58.058594 95.753906 59.308594 95.289062 60.5 C 92.804688 60.75 90.316406 60.832031 87.824219 60.75 C 87.714844 59.359375 87.878906 58.027344 88.320312 56.75 Z M 88.320312 56.75 "/>
<path style=" stroke:none;fill-rule:evenodd;fill:rgb(95.686275%,92.156863%,70.196078%);fill-opacity:1;" d="M 68.417969 54.75 C 69.917969 54.667969 71.414062 54.75 72.894531 55 C 73.816406 56.007812 74.8125 56.925781 75.882812 57.75 C 76.371094 59.382812 76.539062 61.050781 76.378906 62.75 C 75.4375 61.03125 74.359375 59.363281 73.144531 57.75 C 71.730469 56.417969 70.15625 55.417969 68.417969 54.75 Z M 68.417969 54.75 "/>
<path style=" stroke:none;fill-rule:evenodd;fill:rgb(1.568627%,1.568627%,4.705882%);fill-opacity:1;" d="M 64.933594 54.75 C 66.09375 54.75 67.257812 54.75 68.417969 54.75 C 70.15625 55.417969 71.730469 56.417969 73.144531 57.75 C 74.359375 59.363281 75.4375 61.03125 76.378906 62.75 C 76.941406 66.058594 76.109375 68.894531 73.890625 71.25 C 72.796875 71.4375 71.800781 71.769531 70.90625 72.25 C 67.765625 72.714844 64.613281 72.796875 61.453125 72.5 C 59.886719 72.132812 58.558594 71.382812 57.472656 70.25 C 55.78125 65.171875 56.777344 60.671875 60.457031 56.75 C 61.761719 55.679688 63.253906 55.011719 64.933594 54.75 Z M 64.933594 54.75 "/>
<path style=" stroke:none;fill-rule:evenodd;fill:rgb(93.72549%,86.666667%,78.823529%);fill-opacity:1;" d="M 16.667969 52.75 C 18.496094 54.125 19.074219 55.957031 18.410156 58.25 C 17.175781 59.15625 15.765625 59.488281 14.179688 59.25 C 13.878906 57.519531 14.457031 56.1875 15.921875 55.25 C 16.425781 54.488281 16.671875 53.652344 16.667969 52.75 Z M 16.667969 52.75 "/>
<path style=" stroke:none;fill-rule:evenodd;fill:rgb(56.078431%,49.411765%,45.098039%);fill-opacity:1;" d="M 26.621094 52.25 C 27.207031 52.140625 27.703125 52.308594 28.113281 52.75 C 27.753906 54.710938 27.589844 56.628906 27.617188 58.5 C 29.4375 62.128906 28.691406 65.046875 25.375 67.25 C 23.390625 65.519531 21.8125 63.4375 20.648438 61 C 22.429688 58.753906 23.09375 56.171875 22.640625 53.25 C 24.097656 53.21875 25.425781 52.882812 26.621094 52.25 Z M 26.621094 52.25 "/>
<path style=" stroke:none;fill-rule:evenodd;fill:rgb(99.215686%,91.764706%,49.411765%);fill-opacity:1;" d="M 88.820312 50.25 C 90.3125 50.25 91.804688 50.25 93.296875 50.25 C 93.144531 50.574219 92.980469 50.910156 92.800781 51.25 C 93.199219 52.515625 93.863281 53.515625 94.789062 54.25 C 94.789062 54.417969 94.789062 54.582031 94.789062 54.75 C 92.800781 54.75 90.808594 54.75 88.820312 54.75 C 88.820312 53.25 88.820312 51.75 88.820312 50.25 Z M 88.820312 50.25 "/>
<path style=" stroke:none;fill-rule:evenodd;fill:rgb(76.470588%,69.411765%,30.980392%);fill-opacity:1;" d="M 88.820312 50.25 C 91.214844 49.675781 93.703125 49.59375 96.28125 50 C 98.519531 52.421875 98.023438 54.007812 94.789062 54.75 C 94.789062 54.582031 94.789062 54.417969 94.789062 54.25 C 96.160156 53.472656 96.574219 52.308594 96.035156 50.75 C 95.1875 50.296875 94.277344 50.128906 93.296875 50.25 C 91.804688 50.25 90.3125 50.25 88.820312 50.25 Z M 88.820312 50.25 "/>
<path style=" stroke:none;fill-rule:evenodd;fill:rgb(93.333333%,80.392157%,21.960784%);fill-opacity:1;" d="M 93.296875 50.25 C 94.277344 50.128906 95.1875 50.296875 96.035156 50.75 C 96.574219 52.308594 96.160156 53.472656 94.789062 54.25 C 93.863281 53.515625 93.199219 52.515625 92.800781 51.25 C 92.980469 50.910156 93.144531 50.574219 93.296875 50.25 Z M 93.296875 50.25 "/>
<path style=" stroke:none;fill-rule:evenodd;fill:rgb(99.607843%,90.196078%,30.196078%);fill-opacity:1;" d="M 60.457031 56.75 C 56.777344 60.671875 55.78125 65.171875 57.472656 70.25 C 57.597656 71.085938 57.929688 71.835938 58.464844 72.5 C 57.824219 72.746094 57.160156 72.828125 56.476562 72.75 C 56.308594 72.75 56.144531 72.75 55.976562 72.75 C 55.578125 72.066406 55.078125 71.398438 54.484375 70.75 C 51.640625 70.425781 48.824219 70.011719 46.027344 69.5 C 43.601562 67.867188 41.277344 66.117188 39.058594 64.25 C 38.253906 62.597656 37.425781 60.929688 36.574219 59.25 C 35.894531 58.597656 35.230469 58.597656 34.582031 59.25 C 34.582031 59.082031 34.582031 58.917969 34.582031 58.75 C 34.453125 58.011719 34.617188 57.34375 35.078125 56.75 C 35.773438 57.300781 36.351562 57.96875 36.820312 58.75 C 37.066406 57.59375 37.152344 56.429688 37.070312 55.25 C 38.058594 55.078125 38.71875 55.410156 39.058594 56.25 C 38.738281 56.097656 38.40625 55.929688 38.066406 55.75 C 37.496094 56.882812 37.410156 58.050781 37.816406 59.25 C 38.8125 60.917969 39.808594 62.582031 40.800781 64.25 C 42.082031 65.671875 43.574219 66.007812 45.28125 65.25 C 45.519531 64.777344 45.601562 64.277344 45.527344 63.75 C 44.453125 63.585938 43.542969 63.085938 42.792969 62.25 C 41.40625 60.777344 40.328125 59.109375 39.558594 57.25 C 40.328125 56.886719 40.742188 56.21875 40.800781 55.25 C 40.96875 55.582031 41.132812 55.917969 41.300781 56.25 C 43.589844 55.53125 45.164062 54.03125 46.027344 51.75 C 46.488281 52.320312 46.902344 52.320312 47.269531 51.75 C 47.71875 52.386719 48.296875 52.886719 49.011719 53.25 C 49.445312 55.765625 50.941406 56.851562 53.492188 56.5 C 52.683594 56.925781 52.515625 57.425781 52.992188 58 C 52.140625 58.566406 51.894531 59.316406 52.246094 60.25 C 52.800781 60.167969 53.382812 60 53.988281 59.75 C 54.363281 59.3125 54.609375 58.8125 54.734375 58.25 C 54.898438 58.582031 55.066406 58.917969 55.230469 59.25 C 55.398438 58.582031 55.5625 57.917969 55.730469 57.25 C 56.441406 57.152344 57.1875 57.152344 57.96875 57.25 C 58.457031 57.011719 58.871094 56.679688 59.210938 56.25 C 59.546875 56.625 59.960938 56.792969 60.457031 56.75 Z M 60.457031 56.75 "/>
<path style=" stroke:none;fill-rule:evenodd;fill:rgb(98.823529%,94.509804%,77.254902%);fill-opacity:1;" d="M 49.011719 63.75 C 49.839844 63.75 50.671875 63.75 51.5 63.75 C 51.5 64.75 51.5 65.75 51.5 66.75 C 50.503906 66.75 49.507812 66.75 48.515625 66.75 C 48.425781 65.691406 48.59375 64.691406 49.011719 63.75 Z M 49.011719 63.75 "/>
<path style=" stroke:none;fill-rule:evenodd;fill:rgb(99.215686%,96.862745%,83.921569%);fill-opacity:1;" d="M 39.058594 56.25 C 39.476562 56.421875 39.644531 56.753906 39.558594 57.25 C 40.328125 59.109375 41.40625 60.777344 42.792969 62.25 C 43.542969 63.085938 44.453125 63.585938 45.527344 63.75 C 45.601562 64.277344 45.519531 64.777344 45.28125 65.25 C 43.574219 66.007812 42.082031 65.671875 40.800781 64.25 C 39.808594 62.582031 38.8125 60.917969 37.816406 59.25 C 37.410156 58.050781 37.496094 56.882812 38.066406 55.75 C 38.40625 55.929688 38.738281 56.097656 39.058594 56.25 Z M 39.058594 56.25 "/>
<path style=" stroke:none;fill-rule:evenodd;fill:rgb(66.27451%,60.392157%,54.509804%);fill-opacity:1;" d="M 25.128906 47.25 C 25.855469 47.703125 26.519531 47.703125 27.117188 47.25 C 26.953125 48.25 26.785156 49.25 26.621094 50.25 C 25.195312 51.046875 23.703125 51.714844 22.140625 52.25 C 21.1875 52.121094 20.523438 51.621094 20.152344 50.75 C 20.800781 50.097656 21.464844 50.097656 22.140625 50.75 C 22.527344 49.847656 23.027344 49.515625 23.636719 49.75 C 24.785156 50.195312 24.953125 49.777344 24.132812 48.5 C 24.636719 48.324219 24.964844 47.90625 25.128906 47.25 Z M 25.128906 47.25 "/>
<path style=" stroke:none;fill-rule:evenodd;fill:rgb(98.823529%,91.372549%,31.764706%);fill-opacity:1;" d="M 76.875 17.25 C 78.5 17.964844 79.746094 19.128906 80.609375 20.75 C 80.625 23.878906 81.039062 26.878906 81.851562 29.75 C 81.882812 30.304688 82.046875 30.804688 82.351562 31.25 C 83.179688 32.910156 84.257812 34.410156 85.585938 35.75 C 85.726562 37.519531 85.972656 39.269531 86.332031 41 C 85.9375 45.066406 85.691406 49.148438 85.585938 53.25 C 85 55.253906 83.921875 56.917969 82.351562 58.25 C 81.066406 60.566406 81.066406 62.898438 82.351562 65.25 C 81.503906 64.671875 81.171875 65.003906 81.355469 66.25 C 80.996094 66.039062 80.746094 65.707031 80.609375 65.25 C 79.882812 66.214844 79.300781 67.214844 78.867188 68.25 C 78.757812 65.683594 78.425781 65.683594 77.871094 68.25 C 77.375 68.25 76.875 68.25 76.378906 68.25 C 76.273438 69.855469 75.445312 70.855469 73.890625 71.25 C 76.109375 68.894531 76.941406 66.058594 76.378906 62.75 C 76.539062 61.050781 76.371094 59.382812 75.882812 57.75 C 74.8125 56.925781 73.816406 56.007812 72.894531 55 C 71.414062 54.75 69.917969 54.667969 68.417969 54.75 C 67.257812 54.75 66.09375 54.75 64.933594 54.75 C 67 54.335938 69.15625 54.085938 71.402344 54 C 69.824219 53.414062 69.578125 52.5 70.65625 51.25 C 72.574219 53.03125 74.8125 54.199219 77.375 54.75 C 77.707031 54.582031 78.039062 54.417969 78.371094 54.25 C 77.707031 53.917969 77.042969 53.582031 76.378906 53.25 C 77.507812 52.84375 78.667969 52.59375 79.863281 52.5 C 77.878906 50.316406 75.640625 49.902344 73.144531 51.25 C 73.316406 50.195312 73.234375 49.195312 72.894531 48.25 C 75 49.054688 77.15625 49.722656 79.363281 50.25 C 81.355469 50.167969 82.101562 49.167969 81.605469 47.25 C 80.367188 46.5 79.125 45.75 77.871094 45 C 79.121094 44.453125 80.363281 43.871094 81.605469 43.25 C 82.097656 40.332031 80.855469 39.167969 77.871094 39.75 C 77.503906 39.203125 76.925781 38.703125 76.128906 38.25 C 74.265625 39.621094 72.195312 40.039062 69.910156 39.5 C 70.90625 38.832031 71.902344 38.167969 72.894531 37.5 C 72.601562 37.269531 72.269531 37.183594 71.902344 37.25 C 72.464844 35.113281 73.542969 33.28125 75.136719 31.75 C 75.847656 30.324219 76.261719 28.824219 76.378906 27.25 C 76.839844 23.550781 75.511719 20.71875 72.398438 18.75 C 73.683594 18.171875 74.929688 18.335938 76.128906 19.25 C 77.628906 18.976562 77.710938 18.394531 76.378906 17.5 C 76.492188 17.300781 76.660156 17.21875 76.875 17.25 Z M 76.875 17.25 "/>
<path style=" stroke:none;fill-rule:evenodd;fill:rgb(14.117647%,12.941176%,10.196078%);fill-opacity:1;" d="M 25.128906 47.25 C 24.964844 47.90625 24.636719 48.324219 24.132812 48.5 C 24.953125 49.777344 24.785156 50.195312 23.636719 49.75 C 23.328125 48.886719 22.832031 48.136719 22.140625 47.5 C 23.125 47.253906 24.121094 47.167969 25.128906 47.25 Z M 25.128906 47.25 "/>
<path style=" stroke:none;fill-rule:evenodd;fill:rgb(97.254902%,91.764706%,45.490196%);fill-opacity:1;" d="M 93.792969 42.25 C 93.792969 44.082031 93.792969 45.917969 93.792969 47.75 C 92.136719 47.75 90.476562 47.75 88.820312 47.75 C 88.738281 46.074219 88.820312 44.410156 89.066406 42.75 C 90.589844 42.273438 92.164062 42.109375 93.792969 42.25 Z M 93.792969 42.25 "/>
<path style=" stroke:none;fill-rule:evenodd;fill:rgb(90.588235%,79.607843%,19.607843%);fill-opacity:1;" d="M 93.792969 42.25 C 96.246094 41.898438 98.070312 42.734375 99.269531 44.75 C 98.273438 47.167969 96.449219 48.167969 93.792969 47.75 C 93.792969 45.917969 93.792969 44.082031 93.792969 42.25 Z M 93.792969 42.25 "/>
<path style=" stroke:none;fill-rule:evenodd;fill:rgb(87.843137%,80%,70.588235%);fill-opacity:1;" d="M 25.625 41.25 C 27.585938 42.84375 28.082031 44.84375 27.117188 47.25 C 26.519531 47.703125 25.855469 47.703125 25.128906 47.25 C 24.121094 47.167969 23.125 47.253906 22.140625 47.5 C 22.832031 48.136719 23.328125 48.886719 23.636719 49.75 C 23.027344 49.515625 22.527344 49.847656 22.140625 50.75 C 21.464844 50.097656 20.800781 50.097656 20.152344 50.75 C 18.21875 47.980469 17.722656 44.980469 18.660156 41.75 C 19.410156 42.363281 20.15625 42.363281 20.898438 41.75 C 21.105469 42.378906 21.519531 42.710938 22.140625 42.75 C 23.214844 42.8125 24.210938 42.5625 25.128906 42 C 24.402344 41.789062 24.15625 41.371094 24.382812 40.75 C 24.714844 41.125 25.128906 41.292969 25.625 41.25 Z M 25.625 41.25 "/>
<path style=" stroke:none;fill-rule:evenodd;fill:rgb(21.568627%,18.039216%,16.470588%);fill-opacity:1;" d="M 23.636719 39.75 C 24.582031 39.867188 25.246094 40.367188 25.625 41.25 C 25.128906 41.292969 24.714844 41.125 24.382812 40.75 C 24.15625 41.371094 24.402344 41.789062 25.128906 42 C 24.210938 42.5625 23.214844 42.8125 22.140625 42.75 C 22.65625 41.742188 23.152344 40.742188 23.636719 39.75 Z M 23.636719 39.75 "/>
<path style=" stroke:none;fill-rule:evenodd;fill:rgb(86.666667%,73.72549%,14.901961%);fill-opacity:1;" d="M 82.351562 58.25 C 83.921875 56.917969 85 55.253906 85.585938 53.25 C 85.691406 49.148438 85.9375 45.066406 86.332031 41 C 85.972656 39.269531 85.726562 37.519531 85.585938 35.75 C 84.257812 34.410156 83.179688 32.910156 82.351562 31.25 C 82.660156 30.1875 83.324219 29.351562 84.339844 28.75 C 85.796875 30.042969 86.542969 31.710938 86.578125 33.75 C 87.789062 42.652344 87.457031 51.488281 85.585938 60.25 C 84.839844 60.875 84.09375 60.875 83.34375 60.25 C 83.097656 59.488281 82.769531 58.820312 82.351562 58.25 Z M 82.351562 58.25 "/>
<path style=" stroke:none;fill-rule:evenodd;fill:rgb(3.137255%,2.745098%,3.529412%);fill-opacity:1;" d="M 77.871094 39.75 C 80.855469 39.167969 82.097656 40.332031 81.605469 43.25 C 80.363281 43.871094 79.121094 44.453125 77.871094 45 C 79.125 45.75 80.367188 46.5 81.605469 47.25 C 82.101562 49.167969 81.355469 50.167969 79.363281 50.25 C 77.15625 49.722656 75 49.054688 72.894531 48.25 C 70.566406 47.375 69.820312 45.710938 70.65625 43.25 C 73.101562 42.121094 75.503906 40.953125 77.871094 39.75 Z M 77.871094 39.75 "/>
<path style=" stroke:none;fill-rule:evenodd;fill:rgb(72.156863%,65.098039%,58.039216%);fill-opacity:1;" d="M 23.636719 37.75 C 23.183594 38.351562 23.183594 39.019531 23.636719 39.75 C 23.152344 40.742188 22.65625 41.742188 22.140625 42.75 C 21.519531 42.710938 21.105469 42.378906 20.898438 41.75 C 20.15625 42.363281 19.410156 42.363281 18.660156 41.75 C 19.144531 40.003906 20.140625 38.589844 21.644531 37.5 C 22.300781 37.402344 22.964844 37.484375 23.636719 37.75 Z M 23.636719 37.75 "/>
<path style=" stroke:none;fill-rule:evenodd;fill:rgb(47.45098%,42.745098%,40%);fill-opacity:1;" d="M 23.636719 37.75 C 28.578125 39.007812 30.484375 42.175781 29.359375 47.25 C 28.695312 48.5 27.78125 49.5 26.621094 50.25 C 26.785156 49.25 26.953125 48.25 27.117188 47.25 C 28.082031 44.84375 27.585938 42.84375 25.625 41.25 C 25.246094 40.367188 24.582031 39.867188 23.636719 39.75 C 23.183594 39.019531 23.183594 38.351562 23.636719 37.75 Z M 23.636719 37.75 "/>
<path style=" stroke:none;fill-rule:evenodd;fill:rgb(92.941176%,87.45098%,40.392157%);fill-opacity:1;" d="M 94.789062 35.75 C 94.425781 37.035156 94.425781 38.367188 94.789062 39.75 C 95.453125 39.75 96.117188 39.75 96.78125 39.75 C 94.222656 40.242188 91.570312 40.410156 88.820312 40.25 C 88.675781 38.613281 88.84375 37.027344 89.316406 35.5 C 91.234375 35.09375 93.058594 35.179688 94.789062 35.75 Z M 94.789062 35.75 "/>
<path style=" stroke:none;fill-rule:evenodd;fill:rgb(83.921569%,69.803922%,9.411765%);fill-opacity:1;" d="M 94.789062 35.75 C 97.820312 36.03125 98.484375 37.363281 96.78125 39.75 C 96.117188 39.75 95.453125 39.75 94.789062 39.75 C 94.425781 38.367188 94.425781 37.035156 94.789062 35.75 Z M 94.789062 35.75 "/>
<path style=" stroke:none;fill-rule:evenodd;fill:rgb(87.45098%,76.470588%,19.215686%);fill-opacity:1;" d="M 76.378906 27.25 C 76.261719 28.824219 75.847656 30.324219 75.136719 31.75 C 73.542969 33.28125 72.464844 35.113281 71.902344 37.25 C 70.914062 36.921875 69.917969 36.589844 68.914062 36.25 C 67.339844 37.097656 65.683594 37.347656 63.941406 37 C 62.195312 35.75 60.453125 34.5 58.714844 33.25 C 58.472656 32.601562 58.386719 31.9375 58.464844 31.25 C 63.324219 37.011719 68.382812 37.179688 73.640625 31.75 C 74.574219 30.203125 75.484375 28.703125 76.378906 27.25 Z M 76.378906 27.25 "/>
<path style=" stroke:none;fill-rule:evenodd;fill:rgb(63.137255%,54.901961%,20.392157%);fill-opacity:1;" d="M 95.785156 30.25 C 96.4375 31.28125 96.4375 32.363281 95.785156 33.5 C 93.207031 33.90625 90.71875 33.824219 88.320312 33.25 C 90.644531 33.25 92.964844 33.25 95.289062 33.25 C 95.199219 32.191406 95.367188 31.191406 95.785156 30.25 Z M 95.785156 30.25 "/>
<path style=" stroke:none;fill-rule:evenodd;fill:rgb(95.686275%,86.27451%,39.607843%);fill-opacity:1;" d="M 95.785156 30.25 C 95.367188 31.191406 95.199219 32.191406 95.289062 33.25 C 92.964844 33.25 90.644531 33.25 88.320312 33.25 C 87.734375 31.816406 87.734375 30.398438 88.320312 29 C 90.144531 28.667969 91.96875 28.667969 93.792969 29 C 94.699219 29.101562 95.363281 29.515625 95.785156 30.25 Z M 95.785156 30.25 "/>
<path style=" stroke:none;fill-rule:evenodd;fill:rgb(56.862745%,48.235294%,43.529412%);fill-opacity:1;" d="M 24.628906 22.75 C 25.914062 23.289062 26.992188 24.121094 27.863281 25.25 C 28.046875 28.238281 28.128906 31.15625 28.113281 34 C 27.808594 35.074219 27.476562 36.15625 27.117188 37.25 C 25.558594 36.9375 24.066406 36.4375 22.640625 35.75 C 23.160156 34.617188 23.242188 33.449219 22.890625 32.25 C 22.136719 31.160156 21.390625 30.078125 20.648438 29 C 21.917969 26.867188 23.242188 24.785156 24.628906 22.75 Z M 24.628906 22.75 "/>
<path style=" stroke:none;fill-rule:evenodd;fill:rgb(47.843137%,42.352941%,38.823529%);fill-opacity:1;" d="M 11.195312 27.75 C 11.632812 27.683594 11.964844 27.851562 12.191406 28.25 C 10.417969 29.929688 8.511719 31.429688 6.46875 32.75 C 6.136719 32.417969 6.136719 32.082031 6.46875 31.75 C 8.035156 30.347656 9.609375 29.015625 11.195312 27.75 Z M 11.195312 27.75 "/>
<path style=" stroke:none;fill-rule:evenodd;fill:rgb(91.372549%,78.039216%,24.705882%);fill-opacity:1;" d="M 86.828125 23.75 C 88.824219 23.667969 90.816406 23.75 92.800781 24 C 94.382812 24.902344 94.550781 25.902344 93.296875 27 C 90.988281 27.5 88.664062 27.664062 86.332031 27.5 C 84.980469 26.039062 85.144531 24.789062 86.828125 23.75 Z M 86.828125 23.75 "/>
<path style=" stroke:none;fill-rule:evenodd;fill:rgb(1.176471%,1.176471%,4.705882%);fill-opacity:1;" d="M 72.398438 18.75 C 75.511719 20.71875 76.839844 23.550781 76.378906 27.25 C 75.484375 28.703125 74.574219 30.203125 73.640625 31.75 C 68.382812 37.179688 63.324219 37.011719 58.464844 31.25 C 57.960938 29.871094 57.464844 28.539062 56.972656 27.25 C 56.589844 24.191406 57.085938 21.359375 58.464844 18.75 C 63.042969 17.5625 67.6875 17.5625 72.398438 18.75 Z M 72.398438 18.75 "/>
<path style=" stroke:none;fill-rule:evenodd;fill:rgb(99.215686%,90.588235%,27.058824%);fill-opacity:1;" d="M 76.875 17.25 C 76.660156 17.21875 76.492188 17.300781 76.378906 17.5 C 77.710938 18.394531 77.628906 18.976562 76.128906 19.25 C 74.929688 18.335938 73.683594 18.171875 72.398438 18.75 C 67.6875 17.5625 63.042969 17.5625 58.464844 18.75 C 57.527344 18.648438 56.78125 18.980469 56.226562 19.75 C 56.035156 22.351562 56.28125 24.851562 56.972656 27.25 C 57.464844 28.539062 57.960938 29.871094 58.464844 31.25 C 58.386719 31.9375 58.472656 32.601562 58.714844 33.25 C 60.453125 34.5 62.195312 35.75 63.941406 37 C 65.683594 37.347656 67.339844 37.097656 68.914062 36.25 C 69.917969 36.589844 70.914062 36.921875 71.902344 37.25 C 72.269531 37.183594 72.601562 37.269531 72.894531 37.5 C 71.902344 38.167969 70.90625 38.832031 69.910156 39.5 C 72.195312 40.039062 74.265625 39.621094 76.128906 38.25 C 76.925781 38.703125 77.503906 39.203125 77.871094 39.75 C 75.503906 40.953125 73.101562 42.121094 70.65625 43.25 C 69.820312 45.710938 70.566406 47.375 72.894531 48.25 C 73.234375 49.195312 73.316406 50.195312 73.144531 51.25 C 75.640625 49.902344 77.878906 50.316406 79.863281 52.5 C 78.667969 52.59375 77.507812 52.84375 76.378906 53.25 C 77.042969 53.582031 77.707031 53.917969 78.371094 54.25 C 78.039062 54.417969 77.707031 54.582031 77.375 54.75 C 74.8125 54.199219 72.574219 53.03125 70.65625 51.25 C 69.578125 52.5 69.824219 53.414062 71.402344 54 C 69.15625 54.085938 67 54.335938 64.933594 54.75 C 63.253906 55.011719 61.761719 55.679688 60.457031 56.75 C 59.960938 56.792969 59.546875 56.625 59.210938 56.25 C 58.871094 56.679688 58.457031 57.011719 57.96875 57.25 C 57.1875 57.152344 56.441406 57.152344 55.730469 57.25 C 55.5625 57.917969 55.398438 58.582031 55.230469 59.25 C 55.066406 58.917969 54.898438 58.582031 54.734375 58.25 C 54.609375 58.8125 54.363281 59.3125 53.988281 59.75 C 53.382812 60 52.800781 60.167969 52.246094 60.25 C 51.894531 59.316406 52.140625 58.566406 52.992188 58 C 52.515625 57.425781 52.683594 56.925781 53.492188 56.5 C 50.941406 56.851562 49.445312 55.765625 49.011719 53.25 C 48.296875 52.886719 47.71875 52.386719 47.269531 51.75 C 46.902344 52.320312 46.488281 52.320312 46.027344 51.75 C 45.164062 54.03125 43.589844 55.53125 41.300781 56.25 C 41.132812 55.917969 40.96875 55.582031 40.800781 55.25 C 40.742188 56.21875 40.328125 56.886719 39.558594 57.25 C 39.644531 56.753906 39.476562 56.421875 39.058594 56.25 C 38.71875 55.410156 38.058594 55.078125 37.070312 55.25 C 37.152344 56.429688 37.066406 57.59375 36.820312 58.75 C 36.351562 57.96875 35.773438 57.300781 35.078125 56.75 C 34.617188 57.34375 34.453125 58.011719 34.582031 58.75 C 34.417969 58.75 34.25 58.75 34.085938 58.75 C 34 53.800781 34.332031 48.882812 35.078125 44 C 34.585938 37.921875 34.503906 31.839844 34.832031 25.75 C 38.558594 20.417969 43.617188 17.167969 50.007812 16 C 57.804688 15.667969 65.597656 15.667969 73.394531 16 C 74.6875 16.195312 75.851562 16.613281 76.875 17.25 Z M 76.875 17.25 "/>
<path style=" stroke:none;fill-rule:evenodd;fill:rgb(99.215686%,95.294118%,76.470588%);fill-opacity:1;" d="M 37.070312 27.75 C 37.566406 27.75 38.066406 27.75 38.5625 27.75 C 38.933594 29.476562 38.269531 30.308594 36.574219 30.25 C 36.503906 29.355469 36.671875 28.519531 37.070312 27.75 Z M 37.070312 27.75 "/>
<path style=" stroke:none;fill-rule:evenodd;fill:rgb(75.686275%,67.45098%,5.098039%);fill-opacity:1;" d="M 81.851562 29.75 C 81.039062 26.878906 80.625 23.878906 80.609375 20.75 C 79.746094 19.128906 78.5 17.964844 76.875 17.25 C 75.851562 16.613281 74.6875 16.195312 73.394531 16 C 65.597656 15.667969 57.804688 15.667969 50.007812 16 C 43.617188 17.167969 38.558594 20.417969 34.832031 25.75 C 34.503906 31.839844 34.585938 37.921875 35.078125 44 C 34.332031 48.882812 34 53.800781 34.085938 58.75 C 33.609375 60.804688 33.445312 62.804688 33.585938 64.75 C 35.363281 67.136719 37.273438 69.46875 39.308594 71.75 C 39.550781 72.222656 39.632812 72.722656 39.558594 73.25 C 34.253906 69.757812 31.683594 64.757812 31.84375 58.25 C 31.449219 53.546875 31.699219 48.882812 32.589844 44.25 C 31.613281 38.460938 31.363281 32.628906 31.84375 26.75 C 32.886719 22.210938 35.289062 18.628906 39.058594 16 C 41.707031 14.503906 44.523438 13.503906 47.519531 13 C 57.160156 12.863281 66.78125 13.195312 76.378906 14 C 82.410156 16.199219 84.316406 20.285156 82.101562 26.25 C 81.855469 27.40625 81.773438 28.570312 81.851562 29.75 Z M 81.851562 29.75 "/>
<path style=" stroke:none;fill-rule:evenodd;fill:rgb(80.784314%,72.941176%,23.529412%);fill-opacity:1;" d="M 58.464844 18.75 C 57.085938 21.359375 56.589844 24.191406 56.972656 27.25 C 56.28125 24.851562 56.035156 22.351562 56.226562 19.75 C 56.78125 18.980469 57.527344 18.648438 58.464844 18.75 Z M 58.464844 18.75 "/>
<path style=" stroke:none;fill-rule:evenodd;fill:rgb(75.294118%,63.921569%,17.254902%);fill-opacity:1;" d="M 69.910156 3.75 C 73.679688 4.820312 75.667969 7.320312 75.882812 11.25 C 75.359375 11.324219 74.859375 11.242188 74.390625 11 C 73.351562 8.769531 71.691406 7.601562 69.414062 7.5 C 70.53125 8.496094 71.027344 9.746094 70.90625 11.25 C 66.757812 11.25 62.613281 11.25 58.464844 11.25 C 58.464844 10.75 58.464844 10.25 58.464844 9.75 C 58.632812 9.75 58.796875 9.75 58.964844 9.75 C 60.589844 10.410156 62.414062 10.746094 64.4375 10.75 C 66.261719 10.667969 68.085938 10.582031 69.910156 10.5 C 69.179688 9.722656 68.683594 8.808594 68.417969 7.75 C 69.5 7.011719 70.664062 6.34375 71.902344 5.75 C 71.339844 5.070312 70.679688 4.570312 69.910156 4.25 C 69.910156 4.082031 69.910156 3.917969 69.910156 3.75 Z M 69.910156 3.75 "/>
<path style=" stroke:none;fill-rule:evenodd;fill:rgb(91.372549%,76.862745%,6.666667%);fill-opacity:1;" d="M 69.910156 4.25 C 70.679688 4.570312 71.339844 5.070312 71.902344 5.75 C 70.664062 6.34375 69.5 7.011719 68.417969 7.75 C 68.683594 8.808594 69.179688 9.722656 69.910156 10.5 C 68.085938 10.582031 66.261719 10.667969 64.4375 10.75 C 62.414062 10.746094 60.589844 10.410156 58.964844 9.75 C 58.847656 9.105469 59.011719 8.605469 59.460938 8.25 C 59.429688 8.46875 59.511719 8.636719 59.710938 8.75 C 61.523438 7.988281 63.429688 7.574219 65.433594 7.5 C 66.78125 6.769531 67.113281 5.769531 66.425781 4.5 C 67.578125 4.25 68.738281 4.167969 69.910156 4.25 Z M 69.910156 4.25 "/>
<path style=" stroke:none;fill-rule:evenodd;fill:rgb(97.647059%,90.196078%,38.431373%);fill-opacity:1;" d="M 69.910156 3.75 C 69.910156 3.917969 69.910156 4.082031 69.910156 4.25 C 68.738281 4.167969 67.578125 4.25 66.425781 4.5 C 67.113281 5.769531 66.78125 6.769531 65.433594 7.5 C 63.429688 7.574219 61.523438 7.988281 59.710938 8.75 C 59.511719 8.636719 59.429688 8.46875 59.460938 8.25 C 61.757812 4.183594 65.242188 2.683594 69.910156 3.75 Z M 69.910156 3.75 "/>
<path style=" stroke:none;fill-rule:evenodd;fill:rgb(44.705882%,39.215686%,37.647059%);fill-opacity:1;" d="M 47.519531 5.75 C 50.097656 5.792969 51.921875 6.957031 52.992188 9.25 C 49.617188 9.9375 46.960938 8.851562 45.03125 6 C 45.84375 5.753906 46.671875 5.667969 47.519531 5.75 Z M 47.519531 5.75 "/>
<path style=" stroke:none;fill-rule:evenodd;fill:rgb(81.960784%,76.078431%,69.019608%);fill-opacity:1;" d="M 35.578125 80.25 C 36.472656 80.730469 37.46875 81.0625 38.5625 81.25 C 40.265625 81.53125 41.59375 82.445312 42.542969 84 C 40.222656 85.132812 38.066406 84.882812 36.074219 83.25 C 35.679688 83.675781 35.847656 84.09375 36.574219 84.5 C 39.820312 86.023438 39.488281 86.609375 35.578125 86.25 C 32.925781 86 30.769531 84.835938 29.109375 82.75 C 29.710938 81.039062 30.457031 79.375 31.347656 77.75 C 31.484375 78.550781 31.734375 79.300781 32.09375 80 C 33.242188 80.25 34.40625 80.332031 35.578125 80.25 Z M 35.578125 80.25 "/>
<path style=" stroke:none;fill-rule:evenodd;fill:rgb(83.529412%,72.156863%,14.117647%);fill-opacity:1;" d="M 58.964844 79.25 C 62.851562 78.753906 66.832031 78.585938 70.90625 78.75 C 70.960938 80.023438 70.628906 81.191406 69.910156 82.25 C 71.710938 82.167969 73.203125 81.25 74.390625 79.5 C 74.859375 79.257812 75.359375 79.175781 75.882812 79.25 C 75.488281 83.890625 73 86.390625 68.417969 86.75 C 68.546875 86.011719 68.382812 85.34375 67.921875 84.75 C 65.859375 83.964844 64.035156 82.796875 62.445312 81.25 C 61.984375 80.65625 61.820312 79.988281 61.949219 79.25 C 60.953125 79.25 59.957031 79.25 58.964844 79.25 Z M 58.964844 79.25 "/>
<path style=" stroke:none;fill-rule:evenodd;fill:rgb(47.058824%,41.176471%,38.823529%);fill-opacity:1;" d="M 53.492188 81.25 C 52.828125 82.25 51.996094 83.082031 51.003906 83.75 C 50.367188 82.59375 49.375 81.925781 48.015625 81.75 C 48.90625 81 49.984375 80.667969 51.25 80.75 C 52.101562 80.753906 52.847656 80.921875 53.492188 81.25 Z M 53.492188 81.25 "/>
<path style=" stroke:none;fill-rule:evenodd;fill:rgb(68.235294%,61.960784%,57.254902%);fill-opacity:1;" d="M 48.015625 81.75 C 49.375 81.925781 50.367188 82.59375 51.003906 83.75 C 49.636719 84.5625 48.144531 84.898438 46.523438 84.75 C 46 84.824219 45.503906 84.742188 45.03125 84.5 C 45.960938 83.480469 46.957031 82.5625 48.015625 81.75 Z M 48.015625 81.75 "/>
<path style=" stroke:none;fill-rule:evenodd;fill:rgb(96.078431%,92.54902%,72.941176%);fill-opacity:1;" d="M 58.964844 79.25 C 59.957031 79.25 60.953125 79.25 61.949219 79.25 C 61.820312 79.988281 61.984375 80.65625 62.445312 81.25 C 64.035156 82.796875 65.859375 83.964844 67.921875 84.75 C 68.382812 85.34375 68.546875 86.011719 68.417969 86.75 C 62.859375 87.511719 59.707031 85.011719 58.964844 79.25 Z M 58.964844 79.25 "/>
<path style=" stroke:none;fill-rule:evenodd;fill:rgb(65.098039%,59.607843%,54.117647%);fill-opacity:1;" d="M 38.5625 81.25 C 40.683594 81.351562 42.671875 81.851562 44.535156 82.75 C 44.417969 83.53125 44.085938 84.199219 43.539062 84.75 C 41.070312 86.632812 38.417969 87.132812 35.578125 86.25 C 39.488281 86.609375 39.820312 86.023438 36.574219 84.5 C 35.847656 84.09375 35.679688 83.675781 36.074219 83.25 C 38.066406 84.882812 40.222656 85.132812 42.542969 84 C 41.59375 82.445312 40.265625 81.53125 38.5625 81.25 Z M 38.5625 81.25 "/>
</g>
</svg>
