<?xml version="1.0" encoding="UTF-8"?>
<svg xmlns="http://www.w3.org/2000/svg" xmlns:xlink="http://www.w3.org/1999/xlink" width="px" height="px" viewBox="0 0 96 99" version="1.1">
<defs>
<filter id="alpha" filterUnits="objectBoundingBox" x="0%" y="0%" width="100%" height="100%">
  <feColorMatrix type="matrix" in="SourceGraphic" values="0 0 0 0 1 0 0 0 0 1 0 0 0 0 1 0 0 0 1 0"/>
</filter>
<mask id="mask0">
  <g filter="url(#alpha)">
<rect x="0" y="0" width="96" height="99" style="fill:rgb(0%,0%,0%);fill-opacity:0.117647;stroke:none;"/>
  </g>
</mask>
<clipPath id="clip1">
  <rect x="0" y="0" width="96" height="99"/>
</clipPath>
<g id="surface5" clip-path="url(#clip1)">
<path style=" stroke:none;fill-rule:evenodd;fill:rgb(14.117647%,17.647059%,23.529412%);fill-opacity:1;" d="M 50.511719 0.25 C 55.398438 0.257812 59.921875 1.421875 64.082031 3.75 C 59.617188 2.179688 55.09375 1.015625 50.511719 0.25 Z M 50.511719 0.25 "/>
</g>
<mask id="mask1">
  <g filter="url(#alpha)">
<rect x="0" y="0" width="96" height="99" style="fill:rgb(0%,0%,0%);fill-opacity:0.0117647;stroke:none;"/>
  </g>
</mask>
<clipPath id="clip2">
  <rect x="0" y="0" width="96" height="99"/>
</clipPath>
<g id="surface8" clip-path="url(#clip2)">
<path style=" stroke:none;fill-rule:evenodd;fill:rgb(15.294118%,20%,25.882353%);fill-opacity:1;" d="M 40.460938 0.25 C 36.253906 1.171875 32.066406 2.339844 27.894531 3.75 C 31.613281 1.300781 35.800781 0.132812 40.460938 0.25 Z M 40.460938 0.25 "/>
</g>
<mask id="mask2">
  <g filter="url(#alpha)">
<rect x="0" y="0" width="96" height="99" style="fill:rgb(0%,0%,0%);fill-opacity:0.988235;stroke:none;"/>
  </g>
</mask>
<clipPath id="clip3">
  <rect x="0" y="0" width="96" height="99"/>
</clipPath>
<g id="surface11" clip-path="url(#clip3)">
<path style=" stroke:none;fill-rule:evenodd;fill:rgb(5.882353%,2.745098%,3.529412%);fill-opacity:1;" d="M 40.460938 -0.25 C 43.8125 -0.25 47.164062 -0.25 50.511719 -0.25 C 50.511719 -0.0820312 50.511719 0.0820312 50.511719 0.25 C 55.09375 1.015625 59.617188 2.179688 64.082031 3.75 C 68.183594 5.328125 71.367188 7.996094 73.632812 11.75 C 74.8125 15.617188 76.992188 18.78125 80.167969 21.25 C 81.160156 22.195312 82.167969 23.195312 83.183594 24.25 C 84.144531 23.824219 85.148438 23.660156 86.199219 23.75 C 87.640625 23.527344 88.894531 23.859375 89.96875 24.75 C 90.574219 26.859375 90.910156 29.023438 90.972656 31.25 C 91.988281 31.613281 92.910156 32.113281 93.738281 32.75 C 94.046875 32.804688 94.300781 32.972656 94.492188 33.25 C 94.742188 35.410156 94.828125 37.578125 94.742188 39.75 C 94.4375 47.640625 94.183594 55.476562 93.988281 63.25 C 93.390625 64.765625 92.300781 65.601562 90.722656 65.75 C 90.878906 68.132812 90.625 70.46875 89.96875 72.75 C 88.894531 73.640625 87.640625 73.972656 86.199219 73.75 C 84.972656 73.621094 83.800781 73.289062 82.679688 72.75 C 81.492188 75.847656 79.480469 78.265625 76.648438 80 C 76.066406 82.203125 75.144531 84.453125 73.886719 86.75 C 72.992188 87.894531 71.902344 88.726562 70.617188 89.25 C 67.671875 91.632812 64.488281 93.632812 61.066406 95.25 C 40.476562 101.117188 23.46875 95.78125 10.050781 79.25 C 2.113281 67.050781 -0.816406 53.71875 1.257812 39.25 C 1.425781 37.996094 1.425781 36.828125 1.257812 35.75 C 2.980469 30.324219 5.242188 25.15625 8.042969 20.25 C 8.421875 19.46875 9.007812 18.96875 9.800781 18.75 C 12.648438 15.417969 15.664062 12.253906 18.847656 9.25 C 21.324219 6.636719 24.339844 4.804688 27.894531 3.75 C 32.066406 2.339844 36.253906 1.171875 40.460938 0.25 C 40.460938 0.0820312 40.460938 -0.0820312 40.460938 -0.25 Z M 40.460938 -0.25 "/>
</g>
<mask id="mask3">
  <g filter="url(#alpha)">
<rect x="0" y="0" width="96" height="99" style="fill:rgb(0%,0%,0%);fill-opacity:0.321569;stroke:none;"/>
  </g>
</mask>
<clipPath id="clip4">
  <rect x="0" y="0" width="96" height="99"/>
</clipPath>
<g id="surface14" clip-path="url(#clip4)">
<path style=" stroke:none;fill-rule:evenodd;fill:rgb(15.294118%,17.254902%,22.745098%);fill-opacity:1;" d="M 18.847656 9.25 C 15.664062 12.253906 12.648438 15.417969 9.800781 18.75 C 11.96875 14.761719 14.984375 11.59375 18.847656 9.25 Z M 18.847656 9.25 "/>
</g>
<mask id="mask4">
  <g filter="url(#alpha)">
<rect x="0" y="0" width="96" height="99" style="fill:rgb(0%,0%,0%);fill-opacity:0.0784314;stroke:none;"/>
  </g>
</mask>
<clipPath id="clip5">
  <rect x="0" y="0" width="96" height="99"/>
</clipPath>
<g id="surface17" clip-path="url(#clip5)">
<path style=" stroke:none;fill-rule:evenodd;fill:rgb(13.72549%,19.607843%,24.313725%);fill-opacity:1;" d="M 73.632812 11.75 C 74.425781 11.96875 75.011719 12.46875 75.394531 13.25 C 76.617188 16.195312 78.207031 18.859375 80.167969 21.25 C 76.992188 18.78125 74.8125 15.617188 73.632812 11.75 Z M 73.632812 11.75 "/>
</g>
<mask id="mask5">
  <g filter="url(#alpha)">
<rect x="0" y="0" width="96" height="99" style="fill:rgb(0%,0%,0%);fill-opacity:0.0666667;stroke:none;"/>
  </g>
</mask>
<clipPath id="clip6">
  <rect x="0" y="0" width="96" height="99"/>
</clipPath>
<g id="surface20" clip-path="url(#clip6)">
<path style=" stroke:none;fill-rule:evenodd;fill:rgb(14.901961%,19.607843%,24.705882%);fill-opacity:1;" d="M 86.199219 23.75 C 87.996094 22.898438 89.585938 23.234375 90.972656 24.75 C 91.449219 26.558594 91.785156 28.390625 91.980469 30.25 C 92.886719 30.894531 93.472656 31.726562 93.738281 32.75 C 92.910156 32.113281 91.988281 31.613281 90.972656 31.25 C 90.910156 29.023438 90.574219 26.859375 89.96875 24.75 C 88.894531 23.859375 87.640625 23.527344 86.199219 23.75 Z M 86.199219 23.75 "/>
</g>
<mask id="mask6">
  <g filter="url(#alpha)">
<rect x="0" y="0" width="96" height="99" style="fill:rgb(0%,0%,0%);fill-opacity:0.00392157;stroke:none;"/>
  </g>
</mask>
<clipPath id="clip7">
  <rect x="0" y="0" width="96" height="99"/>
</clipPath>
<g id="surface23" clip-path="url(#clip7)">
<path style=" stroke:none;fill-rule:evenodd;fill:rgb(15.294118%,18.823529%,23.921569%);fill-opacity:1;" d="M 94.742188 39.75 C 94.890625 44.847656 95.226562 50.015625 95.75 55.25 C 95.75 55.75 95.75 56.25 95.75 56.75 C 95.34375 57.5 95.007812 58.332031 94.742188 59.25 C 95.714844 61.789062 95.042969 64.039062 92.734375 66 C 92.257812 66.242188 91.753906 66.324219 91.226562 66.25 C 91.105469 67.789062 91.273438 69.289062 91.726562 70.75 C 90.988281 74.015625 89.144531 75.015625 86.199219 73.75 C 87.640625 73.972656 88.894531 73.640625 89.96875 72.75 C 90.625 70.46875 90.878906 68.132812 90.722656 65.75 C 92.300781 65.601562 93.390625 64.765625 93.988281 63.25 C 94.183594 55.476562 94.4375 47.640625 94.742188 39.75 Z M 94.742188 39.75 "/>
</g>
<mask id="mask7">
  <g filter="url(#alpha)">
<rect x="0" y="0" width="96" height="99" style="fill:rgb(0%,0%,0%);fill-opacity:0.054902;stroke:none;"/>
  </g>
</mask>
<clipPath id="clip8">
  <rect x="0" y="0" width="96" height="99"/>
</clipPath>
<g id="surface26" clip-path="url(#clip8)">
<path style=" stroke:none;fill-rule:evenodd;fill:rgb(13.333333%,16.862745%,21.960784%);fill-opacity:1;" d="M 70.617188 89.25 C 69.902344 90.882812 68.726562 92.132812 67.097656 93 C 65.230469 94.183594 63.21875 94.933594 61.066406 95.25 C 64.488281 93.632812 67.671875 91.632812 70.617188 89.25 Z M 70.617188 89.25 "/>
</g>
<mask id="mask8">
  <g filter="url(#alpha)">
<rect x="0" y="0" width="96" height="99" style="fill:rgb(0%,0%,0%);fill-opacity:0.0745098;stroke:none;"/>
  </g>
</mask>
<clipPath id="clip9">
  <rect x="0" y="0" width="96" height="99"/>
</clipPath>
<g id="surface29" clip-path="url(#clip9)">
<path style=" stroke:none;fill-rule:evenodd;fill:rgb(14.509804%,16.470588%,21.960784%);fill-opacity:1;" d="M 1.257812 39.25 C -0.816406 53.71875 2.113281 67.050781 10.050781 79.25 C 23.46875 95.78125 40.476562 101.117188 61.066406 95.25 C 61.011719 95.558594 60.84375 95.808594 60.566406 96 C 57.304688 97.328125 54.121094 98.242188 51.015625 98.75 C 48.335938 98.75 45.65625 98.75 42.972656 98.75 C 21.886719 95.535156 8.0625 83.699219 1.507812 63.25 C 0.800781 60.035156 0.214844 56.867188 -0.25 53.75 C -0.25 53.582031 -0.25 53.417969 -0.25 53.25 C 0.417969 52.75 0.417969 52.25 -0.25 51.75 C -0.25 51.417969 -0.25 51.082031 -0.25 50.75 C 0.417969 50.417969 0.417969 50.082031 -0.25 49.75 C -0.25 49.582031 -0.25 49.417969 -0.25 49.25 C 0.417969 48.917969 0.417969 48.582031 -0.25 48.25 C -0.25 48.082031 -0.25 47.917969 -0.25 47.75 C 0.417969 47.25 0.417969 46.75 -0.25 46.25 C -0.25 46.082031 -0.25 45.917969 -0.25 45.75 C 0.417969 45.582031 0.417969 45.417969 -0.25 45.25 C -0.25 45.082031 -0.25 44.917969 -0.25 44.75 C 0 42.84375 0.5 41.011719 1.257812 39.25 Z M 1.257812 39.25 "/>
</g>
</defs>
<g id="surface1">
<use xlink:href="#surface5" mask="url(#mask0)"/>
<use xlink:href="#surface8" mask="url(#mask1)"/>
<use xlink:href="#surface11" mask="url(#mask2)"/>
<path style=" stroke:none;fill-rule:evenodd;fill:rgb(88.235294%,9.019608%,18.823529%);fill-opacity:1;" d="M 60.566406 5.25 C 57.140625 4.949219 54.125 4.449219 51.519531 3.75 C 49.324219 3.71875 47.226562 4.050781 45.234375 4.75 C 41.902344 3.878906 38.46875 3.542969 34.933594 3.75 C 36.316406 3.121094 37.824219 2.703125 39.457031 2.5 C 45.371094 1.988281 51.238281 2.320312 57.046875 3.5 C 58.289062 4.011719 59.460938 4.59375 60.566406 5.25 Z M 60.566406 5.25 "/>
<path style=" stroke:none;fill-rule:evenodd;fill:rgb(96.470588%,6.666667%,16.470588%);fill-opacity:1;" d="M 34.933594 3.75 C 38.46875 3.542969 41.902344 3.878906 45.234375 4.75 C 47.226562 4.050781 49.324219 3.71875 51.519531 3.75 C 54.125 4.449219 57.140625 4.949219 60.566406 5.25 C 61.761719 5.675781 62.769531 6.34375 63.582031 7.25 C 63.570312 8.070312 63.90625 8.738281 64.585938 9.25 C 61.421875 9.75 58.238281 9.914062 55.035156 9.75 C 55.035156 10.25 55.035156 10.75 55.035156 11.25 C 54.390625 11.949219 53.382812 12.449219 52.019531 12.75 C 50.257812 12.277344 48.582031 12.277344 46.996094 12.75 C 46.492188 12.75 45.988281 12.75 45.488281 12.75 C 42.910156 12.757812 40.394531 13.007812 37.949219 13.5 C 37.78125 13.332031 37.613281 13.167969 37.445312 13 C 38.128906 12.207031 38.464844 11.292969 38.449219 10.25 C 43.082031 9.691406 43.082031 9.191406 38.449219 8.75 C 41.972656 7.570312 45.65625 6.988281 49.507812 7 C 46.941406 5.996094 44.257812 5.578125 41.464844 5.75 C 38.609375 5.839844 35.761719 6.007812 32.921875 6.25 C 33.652344 5.585938 33.484375 5.171875 32.417969 5 C 33.546875 4.976562 34.382812 4.558594 34.933594 3.75 Z M 34.933594 3.75 "/>
<path style=" stroke:none;fill-rule:evenodd;fill:rgb(87.058824%,3.921569%,17.647059%);fill-opacity:1;" d="M 63.582031 7.25 C 63.75 7.25 63.917969 7.25 64.082031 7.25 C 64.996094 8.230469 65.496094 9.398438 65.589844 10.75 C 62.566406 10.292969 59.550781 10.292969 56.542969 10.75 C 57.207031 11.65625 57.960938 12.492188 58.804688 13.25 C 59.050781 13.722656 59.132812 14.222656 59.058594 14.75 C 57.375 14.832031 55.699219 14.75 54.03125 14.5 C 51.714844 13.757812 49.371094 13.175781 46.996094 12.75 C 48.582031 12.277344 50.257812 12.277344 52.019531 12.75 C 53.382812 12.449219 54.390625 11.949219 55.035156 11.25 C 55.035156 10.75 55.035156 10.25 55.035156 9.75 C 58.238281 9.914062 61.421875 9.75 64.585938 9.25 C 63.90625 8.738281 63.570312 8.070312 63.582031 7.25 Z M 63.582031 7.25 "/>
<path style=" stroke:none;fill-rule:evenodd;fill:rgb(30.980392%,3.529412%,9.411765%);fill-opacity:1;" d="M 64.082031 7.25 C 68.289062 8.433594 70.96875 11.101562 72.125 15.25 C 67.820312 13.511719 63.464844 13.34375 59.058594 14.75 C 59.132812 14.222656 59.050781 13.722656 58.804688 13.25 C 57.960938 12.492188 57.207031 11.65625 56.542969 10.75 C 59.550781 10.292969 62.566406 10.292969 65.589844 10.75 C 65.496094 9.398438 64.996094 8.230469 64.082031 7.25 Z M 64.082031 7.25 "/>
<use xlink:href="#surface14" mask="url(#mask3)"/>
<path style=" stroke:none;fill-rule:evenodd;fill:rgb(97.647059%,13.72549%,21.568627%);fill-opacity:1;" d="M 38.449219 8.75 C 43.082031 9.191406 43.082031 9.691406 38.449219 10.25 C 38.464844 11.292969 38.128906 12.207031 37.445312 13 C 37.613281 13.167969 37.78125 13.332031 37.949219 13.5 C 40.394531 13.007812 42.910156 12.757812 45.488281 12.75 C 42.207031 13.714844 38.855469 14.632812 35.433594 15.5 C 35.265625 15.667969 35.097656 15.832031 34.933594 16 C 36.160156 16.46875 37.332031 17.054688 38.449219 17.75 C 37.28125 18.832031 35.941406 19.664062 34.429688 20.25 C 34.359375 19.4375 34.695312 18.855469 35.433594 18.5 C 34.773438 17.800781 34.941406 17.300781 35.9375 17 C 34.796875 16.621094 33.707031 16.703125 32.671875 17.25 C 32.347656 16.675781 31.925781 16.175781 31.414062 15.75 C 31.855469 15.375 32.355469 15.125 32.921875 15 C 31.761719 14.75 30.585938 14.667969 29.402344 14.75 C 29.441406 15.464844 29.273438 16.132812 28.902344 16.75 C 29.316406 17.191406 29.816406 17.359375 30.410156 17.25 C 30.488281 17.9375 30.402344 18.601562 30.15625 19.25 C 29.988281 19.082031 29.820312 18.917969 29.65625 18.75 C 28.425781 19.203125 27.167969 19.621094 25.886719 20 C 26.578125 20.730469 26.414062 21.148438 25.382812 21.25 C 23.945312 20.375 22.273438 19.957031 20.355469 20 C 25.015625 14.097656 31.046875 10.347656 38.449219 8.75 Z M 38.449219 8.75 "/>
<use xlink:href="#surface17" mask="url(#mask4)"/>
<path style=" stroke:none;fill-rule:evenodd;fill:rgb(21.568627%,22.352941%,28.235294%);fill-opacity:1;" d="M 71.621094 18.25 C 73.125 20.492188 74.886719 22.492188 76.902344 24.25 C 77.308594 25.449219 77.226562 26.617188 76.648438 27.75 C 76.105469 29.070312 75.433594 30.234375 74.640625 31.25 C 75.636719 26.914062 74.128906 25.746094 70.113281 27.75 C 69.695312 27.578125 69.527344 27.246094 69.613281 26.75 C 70.363281 22.566406 68.519531 20.316406 64.082031 20 C 59.050781 19.917969 54.023438 19.667969 49.003906 19.25 C 48.039062 18.839844 47.371094 18.171875 46.996094 17.25 C 52.4375 17.355469 57.96875 17.1875 63.582031 16.75 C 66.335938 16.929688 69.015625 17.429688 71.621094 18.25 Z M 71.621094 18.25 "/>
<path style=" stroke:none;fill-rule:evenodd;fill:rgb(87.058824%,28.235294%,20.784314%);fill-opacity:1;" d="M 34.933594 3.75 C 34.382812 4.558594 33.546875 4.976562 32.417969 5 C 33.484375 5.171875 33.652344 5.585938 32.921875 6.25 C 22.972656 9.324219 15.351562 15.324219 10.050781 24.25 C 7.484375 29.6875 5.222656 35.1875 3.265625 40.75 C 5.527344 26.757812 12.566406 15.839844 24.378906 8 C 27.691406 6.039062 31.210938 4.625 34.933594 3.75 Z M 34.933594 3.75 "/>
<path style=" stroke:none;fill-rule:evenodd;fill:rgb(0.392157%,0.392157%,0.392157%);fill-opacity:1;" d="M 51.015625 21.75 C 55.03125 22.027344 59.050781 22.277344 63.078125 22.5 C 65.753906 23.261719 67.933594 24.675781 69.613281 26.75 C 69.527344 27.246094 69.695312 27.578125 70.113281 27.75 C 69.828125 29.578125 70.328125 31.078125 71.621094 32.25 C 69.003906 37.386719 64.816406 39.636719 59.058594 39 C 57.5 38.363281 56.160156 37.445312 55.035156 36.25 C 53.464844 33.054688 52.289062 29.71875 51.519531 26.25 C 52.132812 25.925781 52.46875 25.339844 52.523438 24.5 C 52.46875 23.660156 52.132812 23.074219 51.519531 22.75 C 51.351562 22.417969 51.183594 22.082031 51.015625 21.75 Z M 51.015625 21.75 "/>
<path style=" stroke:none;fill-rule:evenodd;fill:rgb(94.901961%,78.431373%,30.196078%);fill-opacity:1;" d="M 51.015625 21.75 C 51.183594 22.082031 51.351562 22.417969 51.519531 22.75 C 51.519531 23.917969 51.519531 25.082031 51.519531 26.25 C 49.867188 27.632812 48.359375 27.46875 46.996094 25.75 C 46.5 22.652344 47.84375 21.320312 51.015625 21.75 Z M 51.015625 21.75 "/>
<path style=" stroke:none;fill-rule:evenodd;fill:rgb(97.647059%,1.960784%,19.215686%);fill-opacity:1;" d="M 34.429688 20.25 C 33.855469 20.453125 33.351562 20.789062 32.921875 21.25 C 34.667969 21.566406 36.339844 22.066406 37.949219 22.75 C 34.324219 24.519531 31.308594 27.019531 28.902344 30.25 C 28.230469 30.582031 28.230469 30.917969 28.902344 31.25 C 27.535156 31.957031 26.027344 32.289062 24.378906 32.25 C 24.378906 32.917969 24.378906 33.582031 24.378906 34.25 C 23.875 34.25 23.371094 34.25 22.867188 34.25 C 22.675781 32.421875 22.507812 30.589844 22.367188 28.75 C 22.273438 27.199219 22.609375 25.785156 23.371094 24.5 C 22.691406 23.4375 22.859375 22.519531 23.875 21.75 C 24.230469 21.296875 24.734375 21.132812 25.382812 21.25 C 26.414062 21.148438 26.578125 20.730469 25.886719 20 C 27.167969 19.621094 28.425781 19.203125 29.65625 18.75 C 29.820312 18.917969 29.988281 19.082031 30.15625 19.25 C 30.402344 18.601562 30.488281 17.9375 30.410156 17.25 C 29.816406 17.359375 29.316406 17.191406 28.902344 16.75 C 29.273438 16.132812 29.441406 15.464844 29.402344 14.75 C 30.585938 14.667969 31.761719 14.75 32.921875 15 C 32.355469 15.125 31.855469 15.375 31.414062 15.75 C 31.925781 16.175781 32.347656 16.675781 32.671875 17.25 C 33.707031 16.703125 34.796875 16.621094 35.9375 17 C 34.941406 17.300781 34.773438 17.800781 35.433594 18.5 C 34.695312 18.855469 34.359375 19.4375 34.429688 20.25 Z M 34.429688 20.25 "/>
<use xlink:href="#surface20" mask="url(#mask5)"/>
<path style=" stroke:none;fill-rule:evenodd;fill:rgb(23.529412%,22.745098%,27.843137%);fill-opacity:1;" d="M 46.996094 25.75 C 48.359375 27.46875 49.867188 27.632812 51.519531 26.25 C 52.289062 29.71875 53.464844 33.054688 55.035156 36.25 C 56.898438 43.121094 57.484375 50.121094 56.796875 57.25 C 56.230469 58.203125 55.8125 59.203125 55.539062 60.25 C 55.539062 60.417969 55.539062 60.582031 55.539062 60.75 C 52.714844 60.324219 49.867188 60.15625 46.996094 60.25 C 45.210938 60.636719 43.535156 61.304688 41.96875 62.25 C 41.15625 63.039062 40.152344 63.371094 38.953125 63.25 C 39.132812 60.644531 40.476562 58.894531 42.972656 58 C 43.597656 57.421875 44.101562 56.757812 44.480469 56 C 45.269531 55.851562 45.9375 56.101562 46.492188 56.75 C 47.660156 56.667969 48.75 56.335938 49.757812 55.75 C 50.121094 54.945312 50.039062 54.195312 49.507812 53.5 C 52.136719 52.183594 53.058594 50.101562 52.273438 47.25 C 51.476562 46.570312 50.554688 46.234375 49.507812 46.25 C 50.191406 41.542969 48.601562 40.542969 44.734375 43.25 C 44.023438 42.65625 43.4375 41.992188 42.972656 41.25 C 42.023438 40.628906 41.019531 40.628906 39.957031 41.25 C 39.59375 41.457031 39.34375 41.792969 39.203125 42.25 C 37.300781 41.101562 35.207031 40.433594 32.921875 40.25 C 32.25 40.25 31.917969 39.917969 31.917969 39.25 C 31.363281 38.800781 31.363281 38.386719 31.917969 38 C 36.710938 35.972656 41.734375 34.886719 46.996094 34.75 C 46.425781 32.046875 44.917969 29.964844 42.472656 28.5 C 43.289062 28.074219 43.457031 27.574219 42.972656 27 C 43.386719 26.15625 43.890625 26.074219 44.480469 26.75 C 45.078125 25.976562 45.578125 25.144531 45.988281 24.25 C 46.328125 24.800781 46.664062 25.300781 46.996094 25.75 Z M 46.996094 25.75 "/>
<path style=" stroke:none;fill-rule:evenodd;fill:rgb(96.862745%,78.039216%,26.666667%);fill-opacity:1;" d="M 74.640625 31.25 C 73.8125 32.039062 72.808594 32.375 71.621094 32.25 C 70.328125 31.078125 69.828125 29.578125 70.113281 27.75 C 74.128906 25.746094 75.636719 26.914062 74.640625 31.25 Z M 74.640625 31.25 "/>
<path style=" stroke:none;fill-rule:evenodd;fill:rgb(74.509804%,68.627451%,65.490196%);fill-opacity:1;" d="M 86.199219 25.75 C 87.035156 25.75 87.875 25.75 88.710938 25.75 C 89.523438 31.441406 87.175781 33.191406 81.675781 31 C 80.929688 29.703125 81.097656 28.539062 82.179688 27.5 C 83.589844 26.953125 84.929688 26.371094 86.199219 25.75 Z M 86.199219 25.75 "/>
<path style=" stroke:none;fill-rule:evenodd;fill:rgb(43.137255%,4.313725%,9.411765%);fill-opacity:1;" d="M 28.902344 30.25 C 30.171875 30.582031 31.511719 30.917969 32.921875 31.25 C 32.859375 31.554688 32.691406 31.71875 32.417969 31.75 C 31.359375 31.265625 30.1875 31.097656 28.902344 31.25 C 28.230469 30.917969 28.230469 30.582031 28.902344 30.25 Z M 28.902344 30.25 "/>
<path style=" stroke:none;fill-rule:evenodd;fill:rgb(16.078431%,16.078431%,21.176471%);fill-opacity:1;" d="M 46.996094 17.25 C 47.371094 18.171875 48.039062 18.839844 49.003906 19.25 C 54.023438 19.667969 59.050781 19.917969 64.082031 20 C 68.519531 20.316406 70.363281 22.566406 69.613281 26.75 C 67.933594 24.675781 65.753906 23.261719 63.078125 22.5 C 59.050781 22.277344 55.03125 22.027344 51.015625 21.75 C 47.84375 21.320312 46.5 22.652344 46.996094 25.75 C 46.664062 25.300781 46.328125 24.800781 45.988281 24.25 C 45.578125 25.144531 45.078125 25.976562 44.480469 26.75 C 43.890625 26.074219 43.386719 26.15625 42.972656 27 C 43.457031 27.574219 43.289062 28.074219 42.472656 28.5 C 44.917969 29.964844 46.425781 32.046875 46.996094 34.75 C 41.734375 34.886719 36.710938 35.972656 31.917969 38 C 31.363281 38.386719 31.363281 38.800781 31.917969 39.25 C 31.03125 38.957031 30.363281 38.375 29.90625 37.5 C 33.390625 33.351562 37.914062 31.183594 43.476562 31 C 40.3125 30.179688 37.128906 29.429688 33.925781 28.75 C 36.871094 25.785156 40.386719 23.871094 44.480469 23 C 42.925781 21.375 41.417969 20.207031 39.957031 19.5 C 42.179688 18.375 44.523438 17.625 46.996094 17.25 Z M 46.996094 17.25 "/>
<path style=" stroke:none;fill-rule:evenodd;fill:rgb(32.156863%,20.784314%,11.372549%);fill-opacity:1;" d="M 51.519531 22.75 C 52.132812 23.074219 52.46875 23.660156 52.523438 24.5 C 52.46875 25.339844 52.132812 25.925781 51.519531 26.25 C 51.519531 25.082031 51.519531 23.917969 51.519531 22.75 Z M 51.519531 22.75 "/>
<path style=" stroke:none;fill-rule:evenodd;fill:rgb(88.235294%,78.823529%,72.941176%);fill-opacity:1;" d="M 79.164062 32.75 C 81.84375 33.082031 84.523438 33.417969 87.203125 33.75 C 87.453125 34.902344 87.621094 36.070312 87.707031 37.25 C 84.707031 37.621094 81.691406 37.789062 78.660156 37.75 C 78.535156 36.03125 78.703125 34.363281 79.164062 32.75 Z M 79.164062 32.75 "/>
<path style=" stroke:none;fill-rule:evenodd;fill:rgb(79.607843%,72.941176%,69.019608%);fill-opacity:1;" d="M 88.710938 33.25 C 91.972656 33.078125 92.980469 34.496094 91.726562 37.5 C 88.351562 37.863281 87.34375 36.445312 88.710938 33.25 Z M 88.710938 33.25 "/>
<path style=" stroke:none;fill-rule:evenodd;fill:rgb(99.607843%,80.392157%,34.117647%);fill-opacity:1;" d="M 38.449219 8.75 C 31.046875 10.347656 25.015625 14.097656 20.355469 20 C 22.273438 19.957031 23.945312 20.375 25.382812 21.25 C 24.734375 21.132812 24.230469 21.296875 23.875 21.75 C 18.65625 23.671875 14.132812 26.589844 10.304688 30.5 C 11.398438 31.101562 12.570312 31.351562 13.820312 31.25 C 13.902344 31.9375 13.816406 32.601562 13.570312 33.25 C 12.445312 34.539062 11.523438 35.953125 10.804688 37.5 C 12.121094 39.199219 13.378906 40.949219 14.574219 42.75 C 14.917969 48.171875 14.414062 53.507812 13.066406 58.75 C 12.023438 59.894531 10.765625 60.726562 9.296875 61.25 C 14.335938 66.09375 20.199219 69.675781 26.890625 72 C 26.609375 72.191406 26.441406 72.441406 26.386719 72.75 C 22.960938 73.832031 19.441406 74.332031 15.832031 74.25 C 15.183594 74.527344 14.765625 75.027344 14.574219 75.75 C 12.652344 75.871094 11.3125 74.871094 10.554688 72.75 C 10.21875 72.375 9.800781 72.207031 9.296875 72.25 C 4.390625 62.507812 2.382812 52.175781 3.265625 41.25 C 3.265625 41.082031 3.265625 40.917969 3.265625 40.75 C 5.222656 35.1875 7.484375 29.6875 10.050781 24.25 C 15.351562 15.324219 22.972656 9.324219 32.921875 6.25 C 35.761719 6.007812 38.609375 5.839844 41.464844 5.75 C 44.257812 5.578125 46.941406 5.996094 49.507812 7 C 45.65625 6.988281 41.972656 7.570312 38.449219 8.75 Z M 38.449219 8.75 "/>
<path style=" stroke:none;fill-rule:evenodd;fill:rgb(27.058824%,1.176471%,1.568627%);fill-opacity:1;" d="M 25.886719 36.75 C 25.878906 37.507812 25.542969 38.09375 24.878906 38.5 C 25.160156 38.691406 25.328125 38.941406 25.382812 39.25 C 24.75 39.269531 24.25 39.019531 23.875 38.5 C 24.480469 37.8125 25.148438 37.230469 25.886719 36.75 Z M 25.886719 36.75 "/>
<path style=" stroke:none;fill-rule:evenodd;fill:rgb(16.078431%,15.686275%,20.392157%);fill-opacity:1;" d="M 71.621094 18.25 C 77.09375 19.945312 79.355469 23.609375 78.410156 29.25 C 76.761719 32.453125 76.34375 35.785156 77.152344 39.25 C 78.769531 39.539062 80.363281 39.707031 81.925781 39.75 C 81.804688 45.742188 81.722656 51.742188 81.675781 57.75 C 80.234375 57.542969 79.144531 58.042969 78.410156 59.25 C 78.460938 61.078125 78.460938 62.910156 78.410156 64.75 C 77.90625 62.917969 77.402344 61.082031 76.902344 59.25 C 76.390625 58.832031 75.804688 58.664062 75.140625 58.75 C 76.90625 62.851562 78.246094 67.101562 79.164062 71.5 C 78.339844 74.566406 76.5 76.816406 73.632812 78.25 C 74.792969 76.667969 75.882812 75.003906 76.902344 73.25 C 76.984375 72.5 77.066406 71.75 77.152344 71 C 76.207031 67.8125 75.453125 64.5625 74.890625 61.25 C 74.007812 60.789062 73.921875 60.207031 74.640625 59.5 C 73.867188 58.53125 72.863281 57.949219 71.621094 57.75 C 71.675781 56.546875 71.175781 55.632812 70.113281 55 C 70.664062 54.226562 71.332031 53.640625 72.125 53.25 C 73.902344 53.859375 75.660156 53.859375 77.402344 53.25 C 77.953125 50.949219 77.03125 49.535156 74.640625 49 C 76.199219 48.558594 77.371094 47.644531 78.15625 46.25 C 77.824219 44.589844 76.820312 43.921875 75.140625 44.25 C 73.4375 44.257812 71.929688 44.757812 70.617188 45.75 C 71.101562 44.121094 71.855469 42.621094 72.878906 41.25 C 73.699219 36.15625 72.355469 35.488281 68.859375 39.25 C 67.519531 40.917969 66.179688 42.582031 64.835938 44.25 C 64.359375 46.84375 63.941406 49.429688 63.582031 52 C 64.335938 52.746094 64.753906 53.660156 64.835938 54.75 C 65.175781 55.125 65.59375 55.292969 66.09375 55.25 C 66.019531 55.777344 66.101562 56.277344 66.34375 56.75 C 69.625 58.605469 71.96875 61.273438 73.382812 64.75 C 73.71875 65.75 73.71875 66.75 73.382812 67.75 C 73.214844 66.917969 73.046875 66.082031 72.878906 65.25 C 72.382812 65.714844 72.128906 66.296875 72.125 67 C 72.542969 68.238281 72.628906 69.488281 72.378906 70.75 C 72.210938 70.582031 72.042969 70.417969 71.875 70.25 C 71.289062 71.167969 70.703125 72.082031 70.113281 73 C 70.449219 73.167969 70.785156 73.332031 71.121094 73.5 C 67.085938 75.917969 62.730469 77.085938 58.050781 77 C 59.105469 77.277344 59.1875 77.527344 58.304688 77.75 C 56.582031 77.488281 54.824219 77.488281 53.027344 77.75 C 53.773438 77.097656 54.613281 76.515625 55.539062 76 C 58.960938 75.9375 62.3125 75.4375 65.589844 74.5 C 70.007812 71.960938 71.597656 68.210938 70.367188 63.25 C 67.9375 58.753906 64.167969 57.003906 59.058594 58 C 57.871094 58.753906 56.699219 59.503906 55.539062 60.25 C 55.8125 59.203125 56.230469 58.203125 56.796875 57.25 C 57.484375 50.121094 56.898438 43.121094 55.035156 36.25 C 56.160156 37.445312 57.5 38.363281 59.058594 39 C 64.816406 39.636719 69.003906 37.386719 71.621094 32.25 C 72.808594 32.375 73.8125 32.039062 74.640625 31.25 C 75.433594 30.234375 76.105469 29.070312 76.648438 27.75 C 77.226562 26.617188 77.308594 25.449219 76.902344 24.25 C 74.886719 22.492188 73.125 20.492188 71.621094 18.25 Z M 71.621094 18.25 "/>
<path style=" stroke:none;fill-rule:evenodd;fill:rgb(86.666667%,79.215686%,74.509804%);fill-opacity:1;" d="M 84.691406 39.25 C 88.929688 38.707031 90.101562 40.292969 88.210938 44 C 84.03125 44.605469 82.859375 43.019531 84.691406 39.25 Z M 84.691406 39.25 "/>
<path style=" stroke:none;fill-rule:evenodd;fill:rgb(25.882353%,29.019608%,36.862745%);fill-opacity:1;" d="M 70.617188 45.75 C 69.1875 46.757812 68.015625 48.007812 67.097656 49.5 C 68.398438 51.203125 70.074219 52.453125 72.125 53.25 C 71.332031 53.640625 70.664062 54.226562 70.113281 55 C 71.175781 55.632812 71.675781 56.546875 71.621094 57.75 C 71.6875 58.1875 71.523438 58.523438 71.121094 58.75 C 69.605469 57.332031 67.929688 56.164062 66.09375 55.25 C 65.59375 55.292969 65.175781 55.125 64.835938 54.75 C 64.753906 53.660156 64.335938 52.746094 63.582031 52 C 63.941406 49.429688 64.359375 46.84375 64.835938 44.25 C 66.179688 42.582031 67.519531 40.917969 68.859375 39.25 C 72.355469 35.488281 73.699219 36.15625 72.878906 41.25 C 71.855469 42.621094 71.101562 44.121094 70.617188 45.75 Z M 70.617188 45.75 "/>
<path style=" stroke:none;fill-rule:evenodd;fill:rgb(20.784314%,18.039216%,20.784314%);fill-opacity:1;" d="M 32.921875 40.25 C 35.207031 40.433594 37.300781 41.101562 39.203125 42.25 C 39.34375 41.792969 39.59375 41.457031 39.957031 41.25 C 39.957031 42.417969 39.957031 43.582031 39.957031 44.75 C 34.367188 45.734375 34.035156 47.402344 38.953125 49.75 C 38.074219 50.625 37.070312 51.292969 35.9375 51.75 C 33.136719 51.019531 30.792969 49.519531 28.902344 47.25 C 30.632812 45.28125 32.726562 43.78125 35.183594 42.75 C 35.265625 42.582031 35.351562 42.417969 35.433594 42.25 C 34.46875 41.695312 33.632812 41.027344 32.921875 40.25 Z M 32.921875 40.25 "/>
<path style=" stroke:none;fill-rule:evenodd;fill:rgb(85.490196%,78.431373%,74.901961%);fill-opacity:1;" d="M 89.71875 39.75 C 92.804688 40.011719 93.476562 41.429688 91.726562 44 C 91.078125 44.246094 90.40625 44.328125 89.71875 44.25 C 89.71875 42.75 89.71875 41.25 89.71875 39.75 Z M 89.71875 39.75 "/>
<path style=" stroke:none;fill-rule:evenodd;fill:rgb(0.784314%,0.784314%,1.176471%);fill-opacity:1;" d="M 72.125 53.25 C 70.074219 52.453125 68.398438 51.203125 67.097656 49.5 C 68.015625 48.007812 69.1875 46.757812 70.617188 45.75 C 71.929688 44.757812 73.4375 44.257812 75.140625 44.25 C 76.820312 43.921875 77.824219 44.589844 78.15625 46.25 C 77.371094 47.644531 76.199219 48.558594 74.640625 49 C 77.03125 49.535156 77.953125 50.949219 77.402344 53.25 C 75.660156 53.859375 73.902344 53.859375 72.125 53.25 Z M 72.125 53.25 "/>
<path style=" stroke:none;fill-rule:evenodd;fill:rgb(92.156863%,67.843137%,30.196078%);fill-opacity:1;" d="M 42.972656 41.25 C 42.808594 42.753906 42.140625 44.003906 40.964844 45 C 39.578125 45.4375 38.238281 45.9375 36.941406 46.5 C 38.480469 46.789062 39.820312 47.453125 40.964844 48.5 C 40.21875 48.832031 39.546875 49.246094 38.953125 49.75 C 34.035156 47.402344 34.367188 45.734375 39.957031 44.75 C 39.957031 43.582031 39.957031 42.417969 39.957031 41.25 C 41.019531 40.628906 42.023438 40.628906 42.972656 41.25 Z M 42.972656 41.25 "/>
<path style=" stroke:none;fill-rule:evenodd;fill:rgb(87.45098%,80.392157%,76.078431%);fill-opacity:1;" d="M 84.1875 45.75 C 88.789062 44.574219 90.296875 46.160156 88.710938 50.5 C 87.214844 50.75 85.707031 50.832031 84.1875 50.75 C 84.1875 49.082031 84.1875 47.417969 84.1875 45.75 Z M 84.1875 45.75 "/>
<path style=" stroke:none;fill-rule:evenodd;fill:rgb(78.823529%,72.941176%,69.019608%);fill-opacity:1;" d="M 90.722656 45.75 C 92.121094 45.976562 92.792969 46.8125 92.734375 48.25 C 92.84375 50.265625 92.007812 50.933594 90.21875 50.25 C 89.433594 48.597656 89.601562 47.097656 90.722656 45.75 Z M 90.722656 45.75 "/>
<path style=" stroke:none;fill-rule:evenodd;fill:rgb(98.039216%,78.431373%,28.627451%);fill-opacity:1;" d="M 42.972656 41.25 C 43.4375 41.992188 44.023438 42.65625 44.734375 43.25 C 48.601562 40.542969 50.191406 41.542969 49.507812 46.25 C 50.554688 46.234375 51.476562 46.570312 52.273438 47.25 C 53.058594 50.101562 52.136719 52.183594 49.507812 53.5 C 50.039062 54.195312 50.121094 54.945312 49.757812 55.75 C 48.75 56.335938 47.660156 56.667969 46.492188 56.75 C 46.527344 55.988281 46.195312 55.488281 45.488281 55.25 C 43.933594 54.609375 42.257812 54.273438 40.460938 54.25 C 40.460938 53.75 40.460938 53.25 40.460938 52.75 C 39.5 52.609375 38.660156 52.773438 37.949219 53.25 C 37.613281 53.25 37.277344 53.25 36.941406 53.25 C 36.386719 53.222656 35.882812 53.054688 35.433594 52.75 C 35.601562 52.417969 35.769531 52.082031 35.9375 51.75 C 37.070312 51.292969 38.074219 50.625 38.953125 49.75 C 39.546875 49.246094 40.21875 48.832031 40.964844 48.5 C 39.820312 47.453125 38.480469 46.789062 36.941406 46.5 C 38.238281 45.9375 39.578125 45.4375 40.964844 45 C 42.140625 44.003906 42.808594 42.753906 42.972656 41.25 Z M 42.972656 41.25 "/>
<path style=" stroke:none;fill-rule:evenodd;fill:rgb(86.27451%,67.058824%,30.196078%);fill-opacity:1;" d="M 37.949219 53.25 C 38.660156 52.773438 39.5 52.609375 40.460938 52.75 C 40.460938 53.25 40.460938 53.75 40.460938 54.25 C 42.257812 54.273438 43.933594 54.609375 45.488281 55.25 C 44.144531 55.757812 42.886719 56.425781 41.71875 57.25 C 41.296875 57.082031 40.878906 56.917969 40.460938 56.75 C 40.125 55.75 39.789062 54.75 39.457031 53.75 C 39.039062 53.308594 38.539062 53.140625 37.949219 53.25 Z M 37.949219 53.25 "/>
<path style=" stroke:none;fill-rule:evenodd;fill:rgb(63.529412%,43.921569%,24.705882%);fill-opacity:1;" d="M 35.433594 52.75 C 35.882812 53.054688 36.386719 53.222656 36.941406 53.25 C 35.769531 54.582031 34.597656 55.917969 33.425781 57.25 C 32.429688 56.59375 31.589844 55.761719 30.910156 54.75 C 32.253906 53.707031 33.761719 53.042969 35.433594 52.75 Z M 35.433594 52.75 "/>
<path style=" stroke:none;fill-rule:evenodd;fill:rgb(88.235294%,81.960784%,79.215686%);fill-opacity:1;" d="M 84.1875 52.75 C 85.695312 52.75 87.203125 52.75 88.710938 52.75 C 88.796875 54.257812 88.710938 55.757812 88.460938 57.25 C 87.09375 57.722656 85.671875 57.886719 84.1875 57.75 C 84.1875 56.082031 84.1875 54.417969 84.1875 52.75 Z M 84.1875 52.75 "/>
<path style=" stroke:none;fill-rule:evenodd;fill:rgb(79.215686%,72.941176%,70.196078%);fill-opacity:1;" d="M 89.71875 52.75 C 92.875 53.128906 93.542969 54.710938 91.726562 57.5 C 91.078125 57.746094 90.40625 57.828125 89.71875 57.75 C 89.71875 56.082031 89.71875 54.417969 89.71875 52.75 Z M 89.71875 52.75 "/>
<path style=" stroke:none;fill-rule:evenodd;fill:rgb(95.294118%,30.980392%,26.27451%);fill-opacity:1;" d="M 23.875 21.75 C 22.859375 22.519531 22.691406 23.4375 23.371094 24.5 C 22.609375 25.785156 22.273438 27.199219 22.367188 28.75 C 22.507812 30.589844 22.675781 32.421875 22.867188 34.25 C 21.140625 35.671875 19.632812 37.335938 18.34375 39.25 C 19.496094 40.144531 20.585938 41.144531 21.613281 42.25 C 22.027344 44.792969 21.859375 47.292969 21.109375 49.75 C 19.96875 50.378906 18.882812 51.046875 17.84375 51.75 C 20.179688 53.21875 21.9375 55.21875 23.121094 57.75 C 23.542969 59.070312 23.289062 60.238281 22.367188 61.25 C 23.976562 63.035156 24.144531 65.035156 22.867188 67.25 C 22.441406 67.761719 21.9375 68.175781 21.359375 68.5 C 22.167969 68.828125 22.757812 68.578125 23.121094 67.75 C 23.242188 68.570312 23.660156 69.320312 24.378906 70 C 25.515625 70.320312 26.601562 70.738281 27.644531 71.25 C 27.886719 71.722656 27.96875 72.222656 27.894531 72.75 C 27.394531 72.75 26.890625 72.75 26.386719 72.75 C 26.441406 72.441406 26.609375 72.191406 26.890625 72 C 20.199219 69.675781 14.335938 66.09375 9.296875 61.25 C 10.765625 60.726562 12.023438 59.894531 13.066406 58.75 C 14.414062 53.507812 14.917969 48.171875 14.574219 42.75 C 13.378906 40.949219 12.121094 39.199219 10.804688 37.5 C 11.523438 35.953125 12.445312 34.539062 13.570312 33.25 C 13.816406 32.601562 13.902344 31.9375 13.820312 31.25 C 12.570312 31.351562 11.398438 31.101562 10.304688 30.5 C 14.132812 26.589844 18.65625 23.671875 23.875 21.75 Z M 23.875 21.75 "/>
<path style=" stroke:none;fill-rule:evenodd;fill:rgb(78.823529%,71.764706%,69.411765%);fill-opacity:1;" d="M 88.210938 59.75 C 89.394531 59.667969 90.566406 59.75 91.726562 60 C 92.546875 63.347656 91.207031 64.511719 87.707031 63.5 C 86.996094 62.128906 87.160156 60.878906 88.210938 59.75 Z M 88.210938 59.75 "/>
<path style=" stroke:none;fill-rule:evenodd;fill:rgb(85.882353%,79.215686%,75.294118%);fill-opacity:1;" d="M 80.167969 59.75 C 82.34375 59.75 84.523438 59.75 86.703125 59.75 C 86.839844 61.222656 86.671875 62.640625 86.199219 64 C 84.195312 64.25 82.183594 64.332031 80.167969 64.25 C 80.167969 62.75 80.167969 61.25 80.167969 59.75 Z M 80.167969 59.75 "/>
<use xlink:href="#surface23" mask="url(#mask6)"/>
<path style=" stroke:none;fill-rule:evenodd;fill:rgb(17.647059%,16.470588%,22.745098%);fill-opacity:1;" d="M 36.941406 53.25 C 37.277344 53.25 37.613281 53.25 37.949219 53.25 C 38.539062 53.140625 39.039062 53.308594 39.457031 53.75 C 39.789062 54.75 40.125 55.75 40.460938 56.75 C 40.878906 56.917969 41.296875 57.082031 41.71875 57.25 C 42.886719 56.425781 44.144531 55.757812 45.488281 55.25 C 46.195312 55.488281 46.527344 55.988281 46.492188 56.75 C 45.9375 56.101562 45.269531 55.851562 44.480469 56 C 44.101562 56.757812 43.597656 57.421875 42.972656 58 C 40.476562 58.894531 39.132812 60.644531 38.953125 63.25 C 40.152344 63.371094 41.15625 63.039062 41.96875 62.25 C 41.96875 62.917969 41.96875 63.582031 41.96875 64.25 C 43.53125 64.324219 45.039062 64.074219 46.492188 63.5 C 46.957031 62.480469 47.125 61.394531 46.996094 60.25 C 49.867188 60.15625 52.714844 60.324219 55.539062 60.75 C 52.308594 64.652344 51.300781 69.066406 52.523438 74 C 52.53125 75.191406 52.199219 76.273438 51.519531 77.25 C 51.933594 77.691406 52.4375 77.859375 53.027344 77.75 C 54.824219 77.488281 56.582031 77.488281 58.304688 77.75 C 59.1875 77.527344 59.105469 77.277344 58.050781 77 C 62.730469 77.085938 67.085938 75.917969 71.121094 73.5 C 70.785156 73.332031 70.449219 73.167969 70.113281 73 C 70.703125 72.082031 71.289062 71.167969 71.875 70.25 C 72.042969 70.417969 72.210938 70.582031 72.378906 70.75 C 72.628906 69.488281 72.542969 68.238281 72.125 67 C 72.128906 66.296875 72.382812 65.714844 72.878906 65.25 C 73.046875 66.082031 73.214844 66.917969 73.382812 67.75 C 73.71875 66.75 73.71875 65.75 73.382812 64.75 C 71.96875 61.273438 69.625 58.605469 66.34375 56.75 C 66.101562 56.277344 66.019531 55.777344 66.09375 55.25 C 67.929688 56.164062 69.605469 57.332031 71.121094 58.75 C 71.523438 58.523438 71.6875 58.1875 71.621094 57.75 C 72.863281 57.949219 73.867188 58.53125 74.640625 59.5 C 73.921875 60.207031 74.007812 60.789062 74.890625 61.25 C 75.453125 64.5625 76.207031 67.8125 77.152344 71 C 77.066406 71.75 76.984375 72.5 76.902344 73.25 C 75.882812 75.003906 74.792969 76.667969 73.632812 78.25 C 71.917969 79.179688 70.074219 79.761719 68.105469 80 C 60.398438 80.332031 52.691406 80.332031 44.984375 80 C 42.914062 79.386719 41.074219 78.386719 39.457031 77 C 40.902344 76.238281 42.410156 75.574219 43.980469 75 C 39.34375 72.054688 35.320312 68.390625 31.917969 64 C 33.757812 63.832031 35.601562 63.667969 37.445312 63.5 C 36.722656 63.390625 36.050781 63.140625 35.433594 62.75 C 36.441406 61.917969 37.445312 61.082031 38.449219 60.25 C 36.429688 59.746094 34.753906 58.746094 33.425781 57.25 C 34.597656 55.917969 35.769531 54.582031 36.941406 53.25 Z M 36.941406 53.25 "/>
<path style=" stroke:none;fill-rule:evenodd;fill:rgb(85.882353%,55.294118%,15.686275%);fill-opacity:1;" d="M 46.996094 60.25 C 47.125 61.394531 46.957031 62.480469 46.492188 63.5 C 45.039062 64.074219 43.53125 64.324219 41.96875 64.25 C 41.96875 63.582031 41.96875 62.917969 41.96875 62.25 C 43.535156 61.304688 45.210938 60.636719 46.996094 60.25 Z M 46.996094 60.25 "/>
<path style=" stroke:none;fill-rule:evenodd;fill:rgb(0%,0%,0.392157%);fill-opacity:1;" d="M 53.027344 77.75 C 52.4375 77.859375 51.933594 77.691406 51.519531 77.25 C 52.199219 76.273438 52.53125 75.191406 52.523438 74 C 51.300781 69.066406 52.308594 64.652344 55.539062 60.75 C 55.539062 60.582031 55.539062 60.417969 55.539062 60.25 C 56.699219 59.503906 57.871094 58.753906 59.058594 58 C 64.167969 57.003906 67.9375 58.753906 70.367188 63.25 C 71.597656 68.210938 70.007812 71.960938 65.589844 74.5 C 62.3125 75.4375 58.960938 75.9375 55.539062 76 C 54.613281 76.515625 53.773438 77.097656 53.027344 77.75 Z M 53.027344 77.75 "/>
<path style=" stroke:none;fill-rule:evenodd;fill:rgb(81.176471%,29.019608%,16.470588%);fill-opacity:1;" d="M 3.265625 41.25 C 2.382812 52.175781 4.390625 62.507812 9.296875 72.25 C 10.8125 74.929688 12.320312 77.597656 13.820312 80.25 C 7.757812 73.265625 4.15625 65.097656 3.015625 55.75 C 2.601562 50.828125 2.683594 45.996094 3.265625 41.25 Z M 3.265625 41.25 "/>
<path style=" stroke:none;fill-rule:evenodd;fill:rgb(81.568627%,73.72549%,70.588235%);fill-opacity:1;" d="M 83.183594 65.75 C 84.859375 65.75 86.535156 65.75 88.210938 65.75 C 88.210938 67.582031 88.210938 69.417969 88.210938 71.25 C 86.082031 71.109375 84.070312 70.527344 82.179688 69.5 C 81.308594 68.605469 80.972656 67.523438 81.171875 66.25 C 81.976562 66.382812 82.644531 66.21875 83.183594 65.75 Z M 83.183594 65.75 "/>
<path style=" stroke:none;fill-rule:evenodd;fill:rgb(31.764706%,33.333333%,41.176471%);fill-opacity:1;" d="M 42.472656 69.75 C 47.859375 68.367188 50.039062 70.285156 49.003906 75.5 C 47.507812 75.75 46 75.832031 44.480469 75.75 C 44.441406 75.035156 44.609375 74.367188 44.984375 73.75 C 44.324219 72.84375 43.570312 72.007812 42.722656 71.25 C 42.480469 70.777344 42.394531 70.277344 42.472656 69.75 Z M 42.472656 69.75 "/>
<path style=" stroke:none;fill-rule:evenodd;fill:rgb(95.294118%,29.411765%,24.313725%);fill-opacity:1;" d="M 26.386719 72.75 C 25.664062 73.214844 24.996094 73.796875 24.378906 74.5 C 24.925781 75.390625 25.429688 76.308594 25.886719 77.25 C 29.507812 80.601562 33.023438 84.019531 36.441406 87.5 C 37.222656 87.605469 37.894531 87.855469 38.449219 88.25 C 37.78125 88.25 37.109375 88.25 36.441406 88.25 C 27.71875 86.171875 20.851562 81.503906 15.832031 74.25 C 19.441406 74.332031 22.960938 73.832031 26.386719 72.75 Z M 26.386719 72.75 "/>
<path style=" stroke:none;fill-rule:evenodd;fill:rgb(35.294118%,35.294118%,42.745098%);fill-opacity:1;" d="M 71.621094 74.25 C 72.199219 74.453125 72.699219 74.789062 73.132812 75.25 C 70.445312 78.75 66.929688 80 62.574219 79 C 65.777344 77.726562 68.792969 76.140625 71.621094 74.25 Z M 71.621094 74.25 "/>
<path style=" stroke:none;fill-rule:evenodd;fill:rgb(29.411765%,3.921569%,4.313725%);fill-opacity:1;" d="M 13.820312 80.25 C 15.328125 82.082031 17.003906 83.75 18.847656 85.25 C 16.335938 84.417969 14.660156 82.75 13.820312 80.25 Z M 13.820312 80.25 "/>
<path style=" stroke:none;fill-rule:evenodd;fill:rgb(94.117647%,3.921569%,18.823529%);fill-opacity:1;" d="M 28.902344 31.25 C 30.1875 31.097656 31.359375 31.265625 32.417969 31.75 C 30.253906 33.402344 28.074219 35.066406 25.886719 36.75 C 25.148438 37.230469 24.480469 37.8125 23.875 38.5 C 24.25 39.019531 24.75 39.269531 25.382812 39.25 C 27.335938 39.925781 29.179688 40.84375 30.910156 42 C 28.917969 42.996094 26.90625 43.996094 24.878906 45 C 24.113281 46.441406 24.445312 47.605469 25.886719 48.5 C 27.058594 49.332031 28.230469 50.167969 29.402344 51 C 27.214844 51.550781 25.035156 52.136719 22.867188 52.75 C 25.71875 55.417969 28.566406 58.082031 31.414062 60.75 C 29.570312 61.082031 27.726562 61.417969 25.886719 61.75 C 28.675781 66.445312 32.28125 70.445312 36.691406 73.75 C 36.988281 74.242188 36.820312 74.574219 36.1875 74.75 C 35.070312 74.988281 33.980469 75.324219 32.921875 75.75 C 34.84375 77.246094 36.519531 78.996094 37.949219 81 C 39.808594 82.425781 41.820312 83.59375 43.980469 84.5 C 45.488281 84.832031 46.996094 84.832031 48.503906 84.5 C 51.933594 83.355469 55.453125 82.769531 59.058594 82.75 C 58.894531 84.753906 57.890625 86.253906 56.042969 87.25 C 56.640625 87.714844 57.308594 87.882812 58.050781 87.75 C 60.070312 87.667969 62.082031 87.75 64.082031 88 C 63.320312 88.949219 62.988281 90.03125 63.078125 91.25 C 55.496094 95.222656 47.453125 96.558594 38.953125 95.25 C 38.953125 95.082031 38.953125 94.917969 38.953125 94.75 C 45.640625 95.15625 52.175781 94.40625 58.554688 92.5 C 56.011719 91.835938 56.179688 91.335938 59.058594 91 C 58.476562 90.542969 58.5625 90.125 59.308594 89.75 C 59.515625 89.976562 59.769531 90.144531 60.0625 90.25 C 60.773438 89.597656 61.609375 89.179688 62.574219 89 C 60.101562 88.46875 57.589844 88.050781 55.035156 87.75 C 55.453125 87.273438 55.535156 86.773438 55.289062 86.25 C 53.523438 84.144531 51.597656 83.894531 49.507812 85.5 C 48 85.667969 46.492188 85.832031 44.984375 86 C 45.65625 86.167969 46.324219 86.332031 46.996094 86.5 C 45.792969 87.015625 44.621094 87.101562 43.476562 86.75 C 42.921875 87.316406 43.089844 87.734375 43.980469 88 C 42.480469 88.25 40.972656 88.332031 39.457031 88.25 C 39.121094 88.25 38.785156 88.25 38.449219 88.25 C 37.894531 87.855469 37.222656 87.605469 36.441406 87.5 C 33.023438 84.019531 29.507812 80.601562 25.886719 77.25 C 25.429688 76.308594 24.925781 75.390625 24.378906 74.5 C 24.996094 73.796875 25.664062 73.214844 26.386719 72.75 C 26.890625 72.75 27.394531 72.75 27.894531 72.75 C 27.96875 72.222656 27.886719 71.722656 27.644531 71.25 C 26.601562 70.738281 25.515625 70.320312 24.378906 70 C 23.660156 69.320312 23.242188 68.570312 23.121094 67.75 C 22.757812 68.578125 22.167969 68.828125 21.359375 68.5 C 21.9375 68.175781 22.441406 67.761719 22.867188 67.25 C 24.144531 65.035156 23.976562 63.035156 22.367188 61.25 C 23.289062 60.238281 23.542969 59.070312 23.121094 57.75 C 21.9375 55.21875 20.179688 53.21875 17.84375 51.75 C 18.882812 51.046875 19.96875 50.378906 21.109375 49.75 C 21.859375 47.292969 22.027344 44.792969 21.613281 42.25 C 20.585938 41.144531 19.496094 40.144531 18.34375 39.25 C 19.632812 37.335938 21.140625 35.671875 22.867188 34.25 C 23.371094 34.25 23.875 34.25 24.378906 34.25 C 24.378906 33.582031 24.378906 32.917969 24.378906 32.25 C 26.027344 32.289062 27.535156 31.957031 28.902344 31.25 Z M 28.902344 31.25 "/>
<path style=" stroke:none;fill-rule:evenodd;fill:rgb(29.411765%,4.705882%,9.803922%);fill-opacity:1;" d="M 66.09375 89.25 C 66.007812 88.589844 66.175781 88.003906 66.597656 87.5 C 63.65625 87.089844 60.808594 87.175781 58.050781 87.75 C 57.308594 87.882812 56.640625 87.714844 56.042969 87.25 C 57.890625 86.253906 58.894531 84.753906 59.058594 82.75 C 63.414062 83.617188 67.6875 83.285156 71.875 81.75 C 72.125 81.917969 72.378906 82.082031 72.628906 82.25 C 71.125 85.246094 68.945312 87.578125 66.09375 89.25 Z M 66.09375 89.25 "/>
<path style=" stroke:none;fill-rule:evenodd;fill:rgb(99.607843%,74.509804%,33.72549%);fill-opacity:1;" d="M 9.296875 72.25 C 9.800781 72.207031 10.21875 72.375 10.554688 72.75 C 11.3125 74.871094 12.652344 75.871094 14.574219 75.75 C 14.765625 75.027344 15.183594 74.527344 15.832031 74.25 C 20.851562 81.503906 27.71875 86.171875 36.441406 88.25 C 39.660156 89.132812 43.011719 89.464844 46.492188 89.25 C 47.089844 89.78125 46.921875 90.199219 45.988281 90.5 C 41.761719 91.996094 37.40625 92.582031 32.921875 92.25 C 30.523438 91.175781 28.007812 90.511719 25.382812 90.25 C 25.144531 89.546875 24.640625 89.214844 23.875 89.25 C 22.734375 88.011719 21.394531 87.011719 19.851562 86.25 C 19.6875 85.75 19.351562 85.417969 18.847656 85.25 C 17.003906 83.75 15.328125 82.082031 13.820312 80.25 C 12.320312 77.597656 10.8125 74.929688 9.296875 72.25 Z M 9.296875 72.25 "/>
<path style=" stroke:none;fill-rule:evenodd;fill:rgb(33.72549%,2.352941%,4.313725%);fill-opacity:1;" d="M 19.851562 86.25 C 21.394531 87.011719 22.734375 88.011719 23.875 89.25 C 22.082031 88.796875 20.742188 87.796875 19.851562 86.25 Z M 19.851562 86.25 "/>
<path style=" stroke:none;fill-rule:evenodd;fill:rgb(97.647059%,1.568627%,16.470588%);fill-opacity:1;" d="M 38.953125 94.75 C 37.132812 93.429688 35.121094 92.597656 32.921875 92.25 C 37.40625 92.582031 41.761719 91.996094 45.988281 90.5 C 46.921875 90.199219 47.089844 89.78125 46.492188 89.25 C 44.148438 88.917969 41.800781 88.582031 39.457031 88.25 C 40.972656 88.332031 42.480469 88.25 43.980469 88 C 43.089844 87.734375 42.921875 87.316406 43.476562 86.75 C 44.621094 87.101562 45.792969 87.015625 46.996094 86.5 C 46.324219 86.332031 45.65625 86.167969 44.984375 86 C 46.492188 85.832031 48 85.667969 49.507812 85.5 C 51.597656 83.894531 53.523438 84.144531 55.289062 86.25 C 55.535156 86.773438 55.453125 87.273438 55.035156 87.75 C 57.589844 88.050781 60.101562 88.46875 62.574219 89 C 61.609375 89.179688 60.773438 89.597656 60.0625 90.25 C 59.769531 90.144531 59.515625 89.976562 59.308594 89.75 C 58.5625 90.125 58.476562 90.542969 59.058594 91 C 56.179688 91.335938 56.011719 91.835938 58.554688 92.5 C 52.175781 94.40625 45.640625 95.15625 38.953125 94.75 Z M 38.953125 94.75 "/>
<path style=" stroke:none;fill-rule:evenodd;fill:rgb(67.45098%,0.784314%,12.54902%);fill-opacity:1;" d="M 58.050781 87.75 C 60.808594 87.175781 63.65625 87.089844 66.597656 87.5 C 66.175781 88.003906 66.007812 88.589844 66.09375 89.25 C 65.226562 90.113281 64.21875 90.78125 63.078125 91.25 C 62.988281 90.03125 63.320312 88.949219 64.082031 88 C 62.082031 87.75 60.070312 87.667969 58.050781 87.75 Z M 58.050781 87.75 "/>
<path style=" stroke:none;fill-rule:evenodd;fill:rgb(92.941176%,35.294118%,10.980392%);fill-opacity:1;" d="M 36.441406 88.25 C 37.109375 88.25 37.78125 88.25 38.449219 88.25 C 38.785156 88.25 39.121094 88.25 39.457031 88.25 C 41.800781 88.582031 44.148438 88.917969 46.492188 89.25 C 43.011719 89.464844 39.660156 89.132812 36.441406 88.25 Z M 36.441406 88.25 "/>
<path style=" stroke:none;fill-rule:evenodd;fill:rgb(81.960784%,14.509804%,19.607843%);fill-opacity:1;" d="M 25.382812 90.25 C 28.007812 90.511719 30.523438 91.175781 32.921875 92.25 C 35.121094 92.597656 37.132812 93.429688 38.953125 94.75 C 38.953125 94.917969 38.953125 95.082031 38.953125 95.25 C 34.09375 94.363281 29.570312 92.695312 25.382812 90.25 Z M 25.382812 90.25 "/>
<use xlink:href="#surface26" mask="url(#mask7)"/>
<use xlink:href="#surface29" mask="url(#mask8)"/>
</g>
</svg>
