<?xml version="1.0" encoding="UTF-8"?>
<svg xmlns="http://www.w3.org/2000/svg" xmlns:xlink="http://www.w3.org/1999/xlink" width="px" height="px" viewBox="0 0 113 111" version="1.1">
<defs>
<filter id="alpha" filterUnits="objectBoundingBox" x="0%" y="0%" width="100%" height="100%">
  <feColorMatrix type="matrix" in="SourceGraphic" values="0 0 0 0 1 0 0 0 0 1 0 0 0 0 1 0 0 0 1 0"/>
</filter>
<mask id="mask0">
  <g filter="url(#alpha)">
<rect x="0" y="0" width="113" height="111" style="fill:rgb(0%,0%,0%);fill-opacity:0.0901961;stroke:none;"/>
  </g>
</mask>
<clipPath id="clip1">
  <rect x="0" y="0" width="113" height="111"/>
</clipPath>
<g id="surface5" clip-path="url(#clip1)">
<path style=" stroke:none;fill-rule:evenodd;fill:rgb(12.941176%,24.705882%,31.372549%);fill-opacity:1;" d="M 58.75 -0.25 C 59.417969 -0.25 60.082031 -0.25 60.75 -0.25 C 66.128906 0.980469 70.878906 3.480469 75 7.25 C 75.246094 8.238281 75.332031 9.238281 75.25 10.25 C 83.601562 10.007812 88.683594 14.007812 90.5 22.25 C 93.238281 23.902344 95.152344 26.238281 96.25 29.25 C 98.230469 29.664062 100.230469 29.914062 102.25 30 C 103.621094 30.535156 104.871094 31.285156 106 32.25 C 107.183594 34.664062 108.183594 37.164062 109 39.75 C 109.816406 43.550781 110.484375 47.386719 111 51.25 C 111.808594 52.355469 112.390625 53.523438 112.75 54.75 C 112.75 55.25 112.75 55.75 112.75 56.25 C 112.144531 57.453125 111.394531 58.621094 110.5 59.75 C 109.859375 65.777344 108.523438 71.613281 106.5 77.25 C 103.65625 80.226562 100.238281 81.0625 96.25 79.75 C 96.269531 81.210938 95.851562 82.546875 95 83.75 C 93.5 85.25 92 86.75 90.5 88.25 C 88.726562 96.101562 83.8125 100.269531 75.75 100.75 C 75.628906 102.597656 74.964844 104.183594 73.75 105.5 C 69.761719 107.414062 65.761719 109.164062 61.75 110.75 C 61.082031 110.75 60.417969 110.75 59.75 110.75 C 59.75 110.582031 59.75 110.417969 59.75 110.25 C 64.425781 108.410156 69.09375 106.578125 73.75 104.75 C 74.121094 102.941406 74.289062 101.109375 74.25 99.25 C 80.832031 100.085938 85.582031 97.585938 88.5 91.75 C 88.667969 90.582031 88.832031 89.417969 89 88.25 C 92.597656 86.054688 94.679688 82.886719 95.25 78.75 C 98.945312 79.832031 102.359375 79.332031 105.5 77.25 C 106.078125 75.644531 106.410156 73.976562 106.5 72.25 C 106.957031 71.835938 107.289062 71.335938 107.5 70.75 C 107.667969 69.25 107.832031 67.75 108 66.25 C 109.3125 64.402344 109.5625 62.402344 108.75 60.25 C 111.878906 57.148438 112.042969 53.898438 109.25 50.5 C 110.097656 48.167969 109.679688 46.082031 108 44.25 C 107.90625 40.757812 107.242188 37.425781 106 34.25 C 105.164062 32.417969 103.75 31.332031 101.75 31 C 99.734375 30.835938 97.734375 30.835938 95.75 31 C 94.597656 27.4375 92.429688 24.6875 89.25 22.75 C 87.902344 14.234375 82.902344 10.566406 74.25 11.75 C 75.054688 8.703125 74.054688 6.703125 71.25 5.75 C 67.5 3.128906 63.335938 1.460938 58.75 0.75 C 59.046875 2.0625 59.210938 3.398438 59.25 4.75 C 53.820312 3.382812 48.316406 2.382812 42.75 1.75 C 43.046875 3.0625 43.210938 4.398438 43.25 5.75 C 42.449219 5.882812 41.785156 5.71875 41.25 5.25 C 41.835938 5.359375 42.335938 5.191406 42.75 4.75 C 42.3125 3.625 42.144531 2.460938 42.25 1.25 C 47.425781 1.851562 52.511719 2.519531 57.5 3.25 C 57.578125 1.925781 57.992188 0.757812 58.75 -0.25 Z M 58.75 -0.25 "/>
</g>
<mask id="mask1">
  <g filter="url(#alpha)">
<rect x="0" y="0" width="113" height="111" style="fill:rgb(0%,0%,0%);fill-opacity:0.45098;stroke:none;"/>
  </g>
</mask>
<clipPath id="clip2">
  <rect x="0" y="0" width="113" height="111"/>
</clipPath>
<g id="surface8" clip-path="url(#clip2)">
<path style=" stroke:none;fill-rule:evenodd;fill:rgb(14.901961%,22.352941%,27.843137%);fill-opacity:1;" d="M 39.75 5.25 C 36.53125 4.683594 35.699219 5.683594 37.25 8.25 C 34.941406 8.746094 32.605469 8.914062 30.25 8.75 C 32.015625 8.386719 33.847656 8.050781 35.75 7.75 C 35.960938 6.835938 35.960938 5.835938 35.75 4.75 C 37.191406 4.597656 38.527344 4.761719 39.75 5.25 Z M 39.75 5.25 "/>
</g>
<mask id="mask2">
  <g filter="url(#alpha)">
<rect x="0" y="0" width="113" height="111" style="fill:rgb(0%,0%,0%);fill-opacity:0.184314;stroke:none;"/>
  </g>
</mask>
<clipPath id="clip3">
  <rect x="0" y="0" width="113" height="111"/>
</clipPath>
<g id="surface11" clip-path="url(#clip3)">
<path style=" stroke:none;fill-rule:evenodd;fill:rgb(15.294118%,22.352941%,29.019608%);fill-opacity:1;" d="M 24.25 10.75 C 24.042969 11.109375 23.707031 11.359375 23.25 11.5 C 25.121094 12.066406 26.953125 12.734375 28.75 13.5 C 24.355469 14.117188 20.355469 15.699219 16.75 18.25 C 16.96875 17.460938 17.46875 16.878906 18.25 16.5 C 20.433594 15.332031 22.601562 14.164062 24.75 13 C 23.445312 12.773438 22.78125 12.023438 22.75 10.75 C 23.25 10.75 23.75 10.75 24.25 10.75 Z M 24.25 10.75 "/>
</g>
<mask id="mask3">
  <g filter="url(#alpha)">
<rect x="0" y="0" width="113" height="111" style="fill:rgb(0%,0%,0%);fill-opacity:0.305882;stroke:none;"/>
  </g>
</mask>
<clipPath id="clip4">
  <rect x="0" y="0" width="113" height="111"/>
</clipPath>
<g id="surface14" clip-path="url(#clip4)">
<path style=" stroke:none;fill-rule:evenodd;fill:rgb(13.72549%,21.176471%,27.058824%);fill-opacity:1;" d="M 16.75 18.25 C 15.824219 19.257812 14.992188 20.339844 14.25 21.5 C 14.496094 22.292969 14.996094 22.875 15.75 23.25 C 15.199219 24.304688 14.363281 24.972656 13.25 25.25 C 14.574219 24.101562 14.574219 22.933594 13.25 21.75 C 13.9375 20.0625 15.105469 18.894531 16.75 18.25 Z M 16.75 18.25 "/>
</g>
<mask id="mask4">
  <g filter="url(#alpha)">
<rect x="0" y="0" width="113" height="111" style="fill:rgb(0%,0%,0%);fill-opacity:0.329412;stroke:none;"/>
  </g>
</mask>
<clipPath id="clip5">
  <rect x="0" y="0" width="113" height="111"/>
</clipPath>
<g id="surface17" clip-path="url(#clip5)">
<path style=" stroke:none;fill-rule:evenodd;fill:rgb(14.509804%,21.960784%,27.843137%);fill-opacity:1;" d="M 9.25 28.25 C 6.875 30.796875 4.875 33.628906 3.25 36.75 C 5.238281 37.191406 7.238281 37.527344 9.25 37.75 C 8.910156 39.59375 8.160156 41.261719 7 42.75 C 4.832031 45.25 2.667969 47.75 0.5 50.25 C 0.167969 50.75 0.167969 51.25 0.5 51.75 C 1.324219 52.199219 2.074219 52.699219 2.75 53.25 C 1.648438 53.199219 0.648438 52.863281 -0.25 52.25 C -0.25 51.417969 -0.25 50.582031 -0.25 49.75 C 2.84375 46.402344 5.675781 42.820312 8.25 39 C 6.605469 37.894531 4.773438 37.480469 2.75 37.75 C 3.609375 34.121094 5.441406 31.039062 8.25 28.5 C 8.546875 28.269531 8.878906 28.183594 9.25 28.25 Z M 9.25 28.25 "/>
</g>
<mask id="mask5">
  <g filter="url(#alpha)">
<rect x="0" y="0" width="113" height="111" style="fill:rgb(0%,0%,0%);fill-opacity:0.0588235;stroke:none;"/>
  </g>
</mask>
<clipPath id="clip6">
  <rect x="0" y="0" width="113" height="111"/>
</clipPath>
<g id="surface20" clip-path="url(#clip6)">
<path style=" stroke:none;fill-rule:evenodd;fill:rgb(12.54902%,20.392157%,25.490196%);fill-opacity:1;" d="M 19.75 88.75 C 21.566406 92.488281 22.566406 96.488281 22.75 100.75 C 21.820312 96.789062 20.820312 92.789062 19.75 88.75 Z M 19.75 88.75 "/>
</g>
<mask id="mask6">
  <g filter="url(#alpha)">
<rect x="0" y="0" width="113" height="111" style="fill:rgb(0%,0%,0%);fill-opacity:0.968627;stroke:none;"/>
  </g>
</mask>
<clipPath id="clip7">
  <rect x="0" y="0" width="113" height="111"/>
</clipPath>
<g id="surface23" clip-path="url(#clip7)">
<path style=" stroke:none;fill-rule:evenodd;fill:rgb(9.803922%,13.333333%,16.862745%);fill-opacity:1;" d="M 50.25 108.75 C 49.195312 109.234375 48.03125 109.402344 46.75 109.25 C 46.75 108.582031 46.75 107.917969 46.75 107.25 C 43.273438 107.914062 39.773438 108.414062 36.25 108.75 C 36.546875 106.691406 37.046875 104.691406 37.75 102.75 C 33.546875 102.679688 29.378906 103.015625 25.25 103.75 C 26.4375 103.054688 27.773438 102.640625 29.25 102.5 C 32.578125 102.144531 35.910156 101.894531 39.25 101.75 C 39.128906 102.734375 39.296875 103.652344 39.75 104.5 C 38.644531 104.96875 37.980469 105.800781 37.75 107 C 41.007812 107.390625 44.339844 107.304688 47.75 106.75 C 47.835938 107.410156 47.667969 107.996094 47.25 108.5 C 48.238281 108.746094 49.238281 108.832031 50.25 108.75 Z M 50.25 108.75 "/>
</g>
<mask id="mask7">
  <g filter="url(#alpha)">
<rect x="0" y="0" width="113" height="111" style="fill:rgb(0%,0%,0%);fill-opacity:0.00784314;stroke:none;"/>
  </g>
</mask>
<clipPath id="clip8">
  <rect x="0" y="0" width="113" height="111"/>
</clipPath>
<g id="surface26" clip-path="url(#clip8)">
<path style=" stroke:none;fill-rule:evenodd;fill:rgb(14.117647%,21.176471%,27.45098%);fill-opacity:1;" d="M 59.75 110.25 C 59.261719 110.09375 58.925781 109.761719 58.75 109.25 C 59.339844 108.402344 59.339844 107.566406 58.75 106.75 C 57.109375 107.699219 55.441406 108.035156 53.75 107.75 C 55.753906 106.636719 57.921875 105.800781 60.25 105.25 C 60.417969 105.417969 60.582031 105.582031 60.75 105.75 C 60.289062 107.222656 59.957031 108.722656 59.75 110.25 Z M 59.75 110.25 "/>
</g>
</defs>
<g id="surface1">
<use xlink:href="#surface5" mask="url(#mask0)"/>
<use xlink:href="#surface8" mask="url(#mask1)"/>
<path style=" stroke:none;fill-rule:evenodd;fill:rgb(77.647059%,38.823529%,16.862745%);fill-opacity:1;" d="M 47.75 8.75 C 45.730469 8.664062 43.730469 8.578125 41.75 8.5 C 41.417969 8.832031 41.082031 9.167969 40.75 9.5 C 41.367188 10.089844 41.367188 10.675781 40.75 11.25 C 38.777344 11.632812 36.777344 11.882812 34.75 12 C 34.332031 12.503906 34.164062 13.089844 34.25 13.75 C 35.800781 13.707031 35.964844 13.957031 34.75 14.5 C 35.292969 15.164062 35.625 15.914062 35.75 16.75 C 31.167969 16.730469 26.667969 17.066406 22.25 17.75 C 23.597656 16.914062 25.097656 16.332031 26.75 16 C 29.464844 15.871094 32.128906 15.785156 34.75 15.75 C 33.261719 14.597656 31.929688 13.261719 30.75 11.75 C 34.007812 10.917969 37.34375 10.503906 40.75 10.5 C 39.8125 9.503906 39.644531 8.421875 40.25 7.25 C 42.820312 7.710938 45.320312 8.210938 47.75 8.75 Z M 47.75 8.75 "/>
<path style=" stroke:none;fill-rule:evenodd;fill:rgb(88.235294%,41.960784%,9.803922%);fill-opacity:1;" d="M 47.75 8.75 C 49.082031 8.75 50.417969 8.75 51.75 8.75 C 52.253906 9.199219 52.253906 9.53125 51.75 9.75 C 49.835938 9.707031 48 10.042969 46.25 10.75 C 46.25 10.25 46.25 9.75 46.25 9.25 C 44.828125 9.390625 43.492188 9.390625 42.25 9.25 C 41.761719 10.371094 41.597656 11.539062 41.75 12.75 C 41.441406 12.695312 41.191406 12.527344 41 12.25 C 38.785156 15.441406 37.535156 18.941406 37.25 22.75 C 37.25 22.082031 37.25 21.417969 37.25 20.75 C 35.273438 20.363281 33.273438 20.199219 31.25 20.25 C 32.8125 19.761719 34.480469 19.59375 36.25 19.75 C 36.082031 18.75 35.917969 17.75 35.75 16.75 C 35.625 15.914062 35.292969 15.164062 34.75 14.5 C 35.964844 13.957031 35.800781 13.707031 34.25 13.75 C 34.164062 13.089844 34.332031 12.503906 34.75 12 C 36.777344 11.882812 38.777344 11.632812 40.75 11.25 C 41.367188 10.675781 41.367188 10.089844 40.75 9.5 C 41.082031 9.167969 41.417969 8.832031 41.75 8.5 C 43.730469 8.578125 45.730469 8.664062 47.75 8.75 Z M 47.75 8.75 "/>
<path style=" stroke:none;fill-rule:evenodd;fill:rgb(90.196078%,44.313725%,6.666667%);fill-opacity:1;" d="M 56.25 6.75 C 59.015625 7.046875 61.515625 8.046875 63.75 9.75 C 64.042969 9.382812 64.042969 8.882812 63.75 8.25 C 63.683594 7.8125 63.851562 7.476562 64.25 7.25 C 64.609375 7.65625 65.023438 7.988281 65.5 8.25 C 69.34375 7.222656 70.761719 8.640625 69.75 12.5 C 67.90625 12.726562 66.074219 12.640625 64.25 12.25 C 59.671875 12.957031 55.339844 14.375 51.25 16.5 C 49.304688 19.308594 47.554688 22.226562 46 25.25 C 45.128906 26.371094 44.046875 27.203125 42.75 27.75 C 42.398438 24.886719 41.898438 22.054688 41.25 19.25 C 41.417969 18.917969 41.582031 18.582031 41.75 18.25 C 43.207031 18.992188 44.539062 18.824219 45.75 17.75 C 44.734375 16.695312 43.652344 15.695312 42.5 14.75 C 42.105469 14.128906 41.855469 13.460938 41.75 12.75 C 41.597656 11.539062 41.761719 10.371094 42.25 9.25 C 43.492188 9.390625 44.828125 9.390625 46.25 9.25 C 46.25 9.75 46.25 10.25 46.25 10.75 C 48 10.042969 49.835938 9.707031 51.75 9.75 C 52.105469 10.203125 52.605469 10.367188 53.25 10.25 C 53.25 9.082031 53.25 7.917969 53.25 6.75 C 54.25 6.75 55.25 6.75 56.25 6.75 Z M 56.25 6.75 "/>
<use xlink:href="#surface11" mask="url(#mask2)"/>
<path style=" stroke:none;fill-rule:evenodd;fill:rgb(79.607843%,34.901961%,9.803922%);fill-opacity:1;" d="M 35.75 16.75 C 35.917969 17.75 36.082031 18.75 36.25 19.75 C 34.480469 19.59375 32.8125 19.761719 31.25 20.25 C 27.050781 20.816406 23.050781 21.984375 19.25 23.75 C 18.746094 23.53125 18.746094 23.199219 19.25 22.75 C 19.925781 21.734375 19.757812 20.820312 18.75 20 C 19.589844 18.746094 20.757812 17.996094 22.25 17.75 C 26.667969 17.066406 31.167969 16.730469 35.75 16.75 Z M 35.75 16.75 "/>
<use xlink:href="#surface14" mask="url(#mask3)"/>
<path style=" stroke:none;fill-rule:evenodd;fill:rgb(78.431373%,32.54902%,10.196078%);fill-opacity:1;" d="M 41.75 12.75 C 41.855469 13.460938 42.105469 14.128906 42.5 14.75 C 43.652344 15.695312 44.734375 16.695312 45.75 17.75 C 44.539062 18.824219 43.207031 18.992188 41.75 18.25 C 41.582031 18.582031 41.417969 18.917969 41.25 19.25 C 41.898438 22.054688 42.398438 24.886719 42.75 27.75 C 44.046875 27.203125 45.128906 26.371094 46 25.25 C 47.554688 22.226562 49.304688 19.308594 51.25 16.5 C 55.339844 14.375 59.671875 12.957031 64.25 12.25 C 64.039062 12.609375 63.707031 12.859375 63.25 13 C 64.25 13.167969 65.25 13.332031 66.25 13.5 C 66.476562 13.707031 66.644531 13.957031 66.75 14.25 C 66.46875 15.425781 66.136719 16.59375 65.75 17.75 C 64.734375 18.019531 63.734375 18.355469 62.75 18.75 C 63.539062 19.148438 64.371094 19.398438 65.25 19.5 C 61.890625 19.601562 58.558594 19.851562 55.25 20.25 C 52.492188 22.246094 50.660156 24.828125 49.75 28 C 50.191406 28.679688 50.355469 29.429688 50.25 30.25 C 48.285156 30.128906 47.121094 31.042969 46.75 33 C 45.71875 33.28125 44.800781 33.03125 44 32.25 C 43.527344 32.453125 43.195312 32.785156 43 33.25 C 42.832031 38.082031 42.667969 42.917969 42.5 47.75 C 41.722656 50.273438 41.890625 52.773438 43 55.25 C 43.167969 54.917969 43.332031 54.582031 43.5 54.25 C 43.800781 55.453125 44.382812 56.453125 45.25 57.25 C 46.011719 61.144531 46.679688 65.058594 47.25 69 C 47.421875 69.683594 47.753906 70.265625 48.25 70.75 C 47.9375 71.207031 47.769531 71.707031 47.75 72.25 C 45.789062 69.160156 44.207031 65.828125 43 62.25 C 42.066406 59.828125 41.480469 57.328125 41.25 54.75 C 39.570312 54.808594 37.902344 54.972656 36.25 55.25 C 36.1875 44.402344 36.519531 33.570312 37.25 22.75 C 37.535156 18.941406 38.785156 15.441406 41 12.25 C 41.191406 12.527344 41.441406 12.695312 41.75 12.75 Z M 41.75 12.75 "/>
<path style=" stroke:none;fill-rule:evenodd;fill:rgb(70.980392%,29.803922%,12.156863%);fill-opacity:1;" d="M 70.75 13.75 C 69.726562 14.769531 68.5625 15.601562 67.25 16.25 C 67.789062 17.738281 67.789062 19.238281 67.25 20.75 C 64.078125 20.667969 60.914062 20.75 57.75 21 C 55.152344 24.117188 52.734375 27.367188 50.5 30.75 C 48.578125 32.757812 46.328125 34.257812 43.75 35.25 C 43.1875 41.253906 43.273438 47.253906 44 53.25 C 44.851562 54.453125 45.269531 55.789062 45.25 57.25 C 44.382812 56.453125 43.800781 55.453125 43.5 54.25 C 43.332031 54.582031 43.167969 54.917969 43 55.25 C 41.890625 52.773438 41.722656 50.273438 42.5 47.75 C 42.667969 42.917969 42.832031 38.082031 43 33.25 C 43.195312 32.785156 43.527344 32.453125 44 32.25 C 44.800781 33.03125 45.71875 33.28125 46.75 33 C 47.121094 31.042969 48.285156 30.128906 50.25 30.25 C 50.355469 29.429688 50.191406 28.679688 49.75 28 C 50.660156 24.828125 52.492188 22.246094 55.25 20.25 C 58.558594 19.851562 61.890625 19.601562 65.25 19.5 C 64.371094 19.398438 63.539062 19.148438 62.75 18.75 C 63.734375 18.355469 64.734375 18.019531 65.75 17.75 C 66.136719 16.59375 66.46875 15.425781 66.75 14.25 C 66.644531 13.957031 66.476562 13.707031 66.25 13.5 C 65.25 13.332031 64.25 13.167969 63.25 13 C 63.707031 12.859375 64.039062 12.609375 64.25 12.25 C 66.074219 12.640625 67.90625 12.726562 69.75 12.5 C 70.761719 8.640625 69.34375 7.222656 65.5 8.25 C 65.023438 7.988281 64.609375 7.65625 64.25 7.25 C 63.851562 7.476562 63.683594 7.8125 63.75 8.25 C 62.339844 7.019531 61.839844 5.519531 62.25 3.75 C 65.410156 5.164062 68.410156 6.828125 71.25 8.75 C 71.984375 10.550781 71.816406 12.214844 70.75 13.75 Z M 70.75 13.75 "/>
<path style=" stroke:none;fill-rule:evenodd;fill:rgb(79.215686%,43.921569%,10.196078%);fill-opacity:1;" d="M 19.25 22.75 C 18.746094 23.199219 18.746094 23.53125 19.25 23.75 C 18.632812 24.886719 18.800781 25.804688 19.75 26.5 C 18.75 26.667969 17.75 26.832031 16.75 27 C 16.917969 27.167969 17.082031 27.332031 17.25 27.5 C 15.726562 27.664062 14.726562 28.414062 14.25 29.75 C 12.054688 30.859375 10.222656 32.441406 8.75 34.5 C 9.90625 34.75 11.070312 34.832031 12.25 34.75 C 10.34375 35.324219 8.34375 35.40625 6.25 35 C 8.417969 32.832031 10.582031 30.667969 12.75 28.5 C 14.394531 27.261719 16.226562 26.429688 18.25 26 C 16.828125 24.4375 17.164062 23.355469 19.25 22.75 Z M 19.25 22.75 "/>
<path style=" stroke:none;fill-rule:evenodd;fill:rgb(99.607843%,77.254902%,16.862745%);fill-opacity:1;" d="M 59.25 99.25 C 60.90625 99.074219 62.074219 99.742188 62.75 101.25 C 58.90625 103.167969 54.90625 104.835938 50.75 106.25 C 50.75 105.25 50.75 104.25 50.75 103.25 C 47.859375 104.390625 44.859375 105.054688 41.75 105.25 C 40.8125 105.304688 40.644531 105.054688 41.25 104.5 C 42.488281 104.480469 43.488281 104.066406 44.25 103.25 C 46.742188 102.761719 47.90625 101.261719 47.75 98.75 C 46.121094 98.601562 44.621094 98.9375 43.25 99.75 C 43.195312 99.441406 43.027344 99.191406 42.75 99 C 43.785156 98.363281 44.453125 97.445312 44.75 96.25 C 44.488281 95.902344 44.152344 95.652344 43.75 95.5 C 41.082031 95.167969 38.417969 95.167969 35.75 95.5 C 34.816406 96.183594 33.816406 96.765625 32.75 97.25 C 32.464844 98.039062 32.296875 98.789062 32.25 99.5 C 30.917969 99.832031 29.582031 99.832031 28.25 99.5 C 28.972656 99.3125 29.472656 98.894531 29.75 98.25 C 30.324219 97.425781 30.992188 96.675781 31.75 96 C 30.683594 90.488281 29.269531 85.074219 27.5 79.75 C 26.167969 76.414062 24.335938 73.414062 22 70.75 C 21.496094 70.332031 20.910156 70.164062 20.25 70.25 C 21.035156 76.058594 22.453125 81.722656 24.5 87.25 C 24.582031 88.167969 24.667969 89.082031 24.75 90 C 24.726562 91.148438 24.394531 92.066406 23.75 92.75 C 22.59375 89.296875 21.511719 85.796875 20.5 82.25 C 20.171875 83.160156 19.585938 83.828125 18.75 84.25 C 17.613281 83.492188 16.949219 82.40625 16.75 81 C 17.417969 80.5 18.082031 80 18.75 79.5 C 17.636719 77.933594 17.136719 76.183594 17.25 74.25 C 15.800781 74.203125 14.964844 74.871094 14.75 76.25 C 14.53125 75.746094 14.199219 75.746094 13.75 76.25 C 13.582031 75.917969 13.417969 75.582031 13.25 75.25 C 14.886719 72.863281 17.054688 71.113281 19.75 70 C 18.75 69.292969 18.25 68.292969 18.25 67 C 17.9375 64.925781 17.773438 62.84375 17.75 60.75 C 17.832031 59.074219 17.75 57.410156 17.5 55.75 C 16.171875 54.339844 14.753906 53.007812 13.25 51.75 C 12.683594 50.648438 12.347656 49.480469 12.25 48.25 C 10.234375 48.140625 9.902344 48.722656 11.25 50 C 10.632812 50.117188 10.132812 50.367188 9.75 50.75 C 9.121094 51.683594 8.285156 52.351562 7.25 52.75 C 6.644531 52.1875 6.144531 51.519531 5.75 50.75 C 5.949219 49.902344 6.199219 49.070312 6.5 48.25 C 7.257812 47.917969 7.84375 47.417969 8.25 46.75 C 11.503906 44.871094 14.503906 42.621094 17.25 40 C 15.917969 39.714844 14.582031 39.464844 13.25 39.25 C 12.582031 39.25 11.917969 39.25 11.25 39.25 C 11.441406 37.617188 12.109375 36.199219 13.25 35 C 12.953125 34.769531 12.621094 34.683594 12.25 34.75 C 11.070312 34.832031 9.90625 34.75 8.75 34.5 C 10.222656 32.441406 12.054688 30.859375 14.25 29.75 C 18.335938 28.246094 22.335938 26.496094 26.25 24.5 C 27.917969 24.167969 29.582031 24.167969 31.25 24.5 C 31.5625 24.875 31.8125 25.292969 32 25.75 C 32.332031 28.417969 32.332031 31.082031 32 33.75 C 30.046875 37.382812 29.296875 41.21875 29.75 45.25 C 30.808594 44.527344 31.976562 44.195312 33.25 44.25 C 33.25 50.082031 33.25 55.917969 33.25 61.75 C 35.203125 61.320312 37.121094 61.320312 39 61.75 C 39.914062 68.835938 42.914062 74.835938 48 79.75 C 50.539062 84.332031 53.207031 88.832031 56 93.25 C 56.386719 95.074219 56.71875 96.90625 57 98.75 C 57.679688 99.191406 58.429688 99.355469 59.25 99.25 Z M 59.25 99.25 "/>
<path style=" stroke:none;fill-rule:evenodd;fill:rgb(5.882353%,4.705882%,5.882353%);fill-opacity:1;" d="M 71.25 5.75 C 71.621094 6.714844 72.121094 7.628906 72.75 8.5 C 72.355469 10.039062 72.105469 11.621094 72 13.25 C 71.664062 13.625 71.246094 13.792969 70.75 13.75 C 71.816406 12.214844 71.984375 10.550781 71.25 8.75 C 68.410156 6.828125 65.410156 5.164062 62.25 3.75 C 61.839844 5.519531 62.339844 7.019531 63.75 8.25 C 64.042969 8.882812 64.042969 9.382812 63.75 9.75 C 61.515625 8.046875 59.015625 7.046875 56.25 6.75 C 55.027344 6.105469 53.691406 5.605469 52.25 5.25 C 51.949219 6.226562 52.113281 7.226562 52.75 8.25 C 52.523438 8.648438 52.1875 8.816406 51.75 8.75 C 50.417969 8.75 49.082031 8.75 47.75 8.75 C 45.320312 8.210938 42.820312 7.710938 40.25 7.25 C 39.644531 8.421875 39.8125 9.503906 40.75 10.5 C 37.34375 10.503906 34.007812 10.917969 30.75 11.75 C 31.929688 13.261719 33.261719 14.597656 34.75 15.75 C 32.128906 15.785156 29.464844 15.871094 26.75 16 C 25.097656 16.332031 23.597656 16.914062 22.25 17.75 C 20.757812 17.996094 19.589844 18.746094 18.75 20 C 19.757812 20.820312 19.925781 21.734375 19.25 22.75 C 17.164062 23.355469 16.828125 24.4375 18.25 26 C 16.226562 26.429688 14.394531 27.261719 12.75 28.5 C 10.582031 30.667969 8.417969 32.832031 6.25 35 C 8.34375 35.40625 10.34375 35.324219 12.25 34.75 C 12.621094 34.683594 12.953125 34.769531 13.25 35 C 12.109375 36.199219 11.441406 37.617188 11.25 39.25 C 11.917969 39.25 12.582031 39.25 13.25 39.25 C 13.304688 39.558594 13.472656 39.808594 13.75 40 C 11.820312 41.515625 9.988281 43.097656 8.25 44.75 C 6.074219 46.425781 4.238281 48.425781 2.75 50.75 C 4.160156 51.609375 5.660156 52.277344 7.25 52.75 C 6.527344 55.828125 5.363281 58.746094 3.75 61.5 C 5.898438 61.621094 7.898438 61.203125 9.75 60.25 C 10.304688 60.222656 10.804688 60.054688 11.25 59.75 C 10.507812 61.882812 9.839844 64.046875 9.25 66.25 C 10.03125 66.671875 10.78125 66.507812 11.5 65.75 C 11.320312 67.460938 10.820312 69.128906 10 70.75 C 9.261719 73.03125 8.847656 75.363281 8.75 77.75 C 10.433594 77.480469 12.097656 77.148438 13.75 76.75 C 13.609375 77.707031 13.773438 78.539062 14.25 79.25 C 15.300781 81.445312 16.050781 83.777344 16.5 86.25 C 16.667969 86.417969 16.832031 86.582031 17 86.75 C 17.902344 86.105469 18.484375 85.273438 18.75 84.25 C 19.585938 83.828125 20.171875 83.160156 20.5 82.25 C 21.511719 85.796875 22.59375 89.296875 23.75 92.75 C 23.824219 95.289062 24.15625 97.789062 24.75 100.25 C 24.734375 100.75 24.984375 101.082031 25.5 101.25 C 26.25 101 27 100.75 27.75 100.5 C 32.09375 100.371094 36.425781 100.121094 40.75 99.75 C 41.25 99.917969 41.75 100.082031 42.25 100.25 C 41.367188 101.988281 40.535156 103.738281 39.75 105.5 C 40.53125 105.882812 41.199219 105.800781 41.75 105.25 C 44.859375 105.054688 47.859375 104.390625 50.75 103.25 C 50.75 104.25 50.75 105.25 50.75 106.25 C 54.90625 104.835938 58.90625 103.167969 62.75 101.25 C 63.597656 100.433594 64.097656 100.601562 64.25 101.75 C 63.277344 103.308594 62.941406 104.976562 63.25 106.75 C 63.871094 106.527344 64.371094 106.195312 64.75 105.75 C 67.195312 104.859375 69.53125 103.695312 71.75 102.25 C 72.191406 101.835938 72.359375 101.335938 72.25 100.75 C 72.996094 99.445312 72.664062 98.445312 71.25 97.75 C 69.898438 96.570312 68.648438 95.238281 67.5 93.75 C 67.25 92.425781 67.167969 91.09375 67.25 89.75 C 66.582031 89.75 65.917969 89.75 65.25 89.75 C 65.335938 89.089844 65.167969 88.503906 64.75 88 C 65.4375 87.800781 66.101562 87.550781 66.75 87.25 C 68.371094 88.074219 69.121094 89.40625 69 91.25 C 69.117188 90.632812 69.367188 90.132812 69.75 89.75 C 70.257812 94.007812 72.675781 96.339844 77 96.75 C 78.644531 96.671875 80.230469 96.339844 81.75 95.75 C 81.53125 96.535156 81.03125 97.121094 80.25 97.5 C 78.558594 97.589844 76.890625 97.839844 75.25 98.25 C 74.878906 98.589844 74.546875 98.925781 74.25 99.25 C 74.289062 101.109375 74.121094 102.941406 73.75 104.75 C 69.09375 106.578125 64.425781 108.410156 59.75 110.25 C 59.957031 108.722656 60.289062 107.222656 60.75 105.75 C 60.582031 105.582031 60.417969 105.417969 60.25 105.25 C 57.921875 105.800781 55.753906 106.636719 53.75 107.75 C 52.742188 108.460938 51.574219 108.796875 50.25 108.75 C 49.238281 108.832031 48.238281 108.746094 47.25 108.5 C 47.667969 107.996094 47.835938 107.410156 47.75 106.75 C 44.339844 107.304688 41.007812 107.390625 37.75 107 C 37.980469 105.800781 38.644531 104.96875 39.75 104.5 C 39.296875 103.652344 39.128906 102.734375 39.25 101.75 C 35.910156 101.894531 32.578125 102.144531 29.25 102.5 C 27.773438 102.640625 26.4375 103.054688 25.25 103.75 C 24.558594 104.402344 23.808594 104.402344 23 103.75 C 22.753906 102.761719 22.667969 101.761719 22.75 100.75 C 22.566406 96.488281 21.566406 92.488281 19.75 88.75 C 19.390625 88.539062 19.140625 88.207031 19 87.75 C 18.417969 88.582031 17.832031 89.417969 17.25 90.25 C 16.675781 90.867188 16.089844 90.867188 15.5 90.25 C 14.050781 86.816406 12.964844 83.316406 12.25 79.75 C 10.492188 79.941406 8.824219 80.441406 7.25 81.25 C 6.902344 80.988281 6.652344 80.652344 6.5 80.25 C 6.789062 75.429688 7.121094 70.597656 7.5 65.75 C 7.65625 65.117188 7.90625 64.535156 8.25 64 C 5.804688 64.253906 3.386719 64.171875 1 63.75 C 1.636719 60.96875 2.71875 58.300781 4.25 55.75 C 3.722656 54.898438 3.222656 54.066406 2.75 53.25 C 2.074219 52.699219 1.324219 52.199219 0.5 51.75 C 0.167969 51.25 0.167969 50.75 0.5 50.25 C 2.667969 47.75 4.832031 45.25 7 42.75 C 8.160156 41.261719 8.910156 39.59375 9.25 37.75 C 7.238281 37.527344 5.238281 37.191406 3.25 36.75 C 4.875 33.628906 6.875 30.796875 9.25 28.25 C 10.011719 26.53125 11.34375 25.53125 13.25 25.25 C 14.363281 24.972656 15.199219 24.304688 15.75 23.25 C 14.996094 22.875 14.496094 22.292969 14.25 21.5 C 14.992188 20.339844 15.824219 19.257812 16.75 18.25 C 20.355469 15.699219 24.355469 14.117188 28.75 13.5 C 26.953125 12.734375 25.121094 12.066406 23.25 11.5 C 23.707031 11.359375 24.042969 11.109375 24.25 10.75 C 24.304688 10.441406 24.472656 10.191406 24.75 10 C 26.519531 9.28125 28.355469 8.863281 30.25 8.75 C 32.605469 8.914062 34.941406 8.746094 37.25 8.25 C 35.699219 5.683594 36.53125 4.683594 39.75 5.25 C 40.25 5.25 40.75 5.25 41.25 5.25 C 41.785156 5.71875 42.449219 5.882812 43.25 5.75 C 43.210938 4.398438 43.046875 3.0625 42.75 1.75 C 48.316406 2.382812 53.820312 3.382812 59.25 4.75 C 59.210938 3.398438 59.046875 2.0625 58.75 0.75 C 63.335938 1.460938 67.5 3.128906 71.25 5.75 Z M 71.25 5.75 "/>
<path style=" stroke:none;fill-rule:evenodd;fill:rgb(72.54902%,40%,17.254902%);fill-opacity:1;" d="M 56.25 6.75 C 55.25 6.75 54.25 6.75 53.25 6.75 C 53.25 7.917969 53.25 9.082031 53.25 10.25 C 52.605469 10.367188 52.105469 10.203125 51.75 9.75 C 52.253906 9.53125 52.253906 9.199219 51.75 8.75 C 52.1875 8.816406 52.523438 8.648438 52.75 8.25 C 52.113281 7.226562 51.949219 6.226562 52.25 5.25 C 53.691406 5.605469 55.027344 6.105469 56.25 6.75 Z M 56.25 6.75 "/>
<path style=" stroke:none;fill-rule:evenodd;fill:rgb(35.686275%,34.117647%,31.764706%);fill-opacity:1;" d="M 45.25 4.25 C 46.59375 4.519531 47.929688 4.851562 49.25 5.25 C 49.691406 5.664062 49.859375 6.164062 49.75 6.75 C 48.390625 6.660156 47.058594 6.410156 45.75 6 C 45.332031 5.496094 45.164062 4.910156 45.25 4.25 Z M 45.25 4.25 "/>
<use xlink:href="#surface17" mask="url(#mask4)"/>
<path style=" stroke:none;fill-rule:evenodd;fill:rgb(91.372549%,55.686275%,5.490196%);fill-opacity:1;" d="M 13.25 39.25 C 14.582031 39.464844 15.917969 39.714844 17.25 40 C 14.503906 42.621094 11.503906 44.871094 8.25 46.75 C 7.796875 46.148438 7.796875 45.480469 8.25 44.75 C 9.988281 43.097656 11.820312 41.515625 13.75 40 C 13.472656 39.808594 13.304688 39.558594 13.25 39.25 Z M 13.25 39.25 "/>
<path style=" stroke:none;fill-rule:evenodd;fill:rgb(94.117647%,69.411765%,22.745098%);fill-opacity:1;" d="M 8.25 44.75 C 7.796875 45.480469 7.796875 46.148438 8.25 46.75 C 7.84375 47.417969 7.257812 47.917969 6.5 48.25 C 6.199219 49.070312 5.949219 49.902344 5.75 50.75 C 6.144531 51.519531 6.644531 52.1875 7.25 52.75 C 5.660156 52.277344 4.160156 51.609375 2.75 50.75 C 4.238281 48.425781 6.074219 46.425781 8.25 44.75 Z M 8.25 44.75 "/>
<path style=" stroke:none;fill-rule:evenodd;fill:rgb(3.529412%,3.921569%,5.490196%);fill-opacity:1;" d="M 71.25 5.75 C 74.054688 6.703125 75.054688 8.703125 74.25 11.75 C 82.902344 10.566406 87.902344 14.234375 89.25 22.75 C 92.429688 24.6875 94.597656 27.4375 95.75 31 C 97.734375 30.835938 99.734375 30.835938 101.75 31 C 103.75 31.332031 105.164062 32.417969 106 34.25 C 107.242188 37.425781 107.90625 40.757812 108 44.25 C 109.679688 46.082031 110.097656 48.167969 109.25 50.5 C 112.042969 53.898438 111.878906 57.148438 108.75 60.25 C 109.5625 62.402344 109.3125 64.402344 108 66.25 C 107.832031 67.75 107.667969 69.25 107.5 70.75 C 107.289062 71.335938 106.957031 71.835938 106.5 72.25 C 106.410156 73.976562 106.078125 75.644531 105.5 77.25 C 102.359375 79.332031 98.945312 79.832031 95.25 78.75 C 94.679688 82.886719 92.597656 86.054688 89 88.25 C 88.832031 89.417969 88.667969 90.582031 88.5 91.75 C 85.582031 97.585938 80.832031 100.085938 74.25 99.25 C 74.546875 98.925781 74.878906 98.589844 75.25 98.25 C 76.890625 97.839844 78.558594 97.589844 80.25 97.5 C 81.03125 97.121094 81.53125 96.535156 81.75 95.75 C 82.25 95.417969 82.75 95.082031 83.25 94.75 C 85.457031 93.289062 86.289062 91.289062 85.75 88.75 C 84.085938 89.585938 82.75 90.75 81.75 92.25 C 81.144531 92.617188 80.480469 92.785156 79.75 92.75 C 80.9375 91.710938 81.601562 90.378906 81.75 88.75 C 77.546875 88.433594 73.546875 88.765625 69.75 89.75 C 69.367188 90.132812 69.117188 90.632812 69 91.25 C 69.121094 89.40625 68.371094 88.074219 66.75 87.25 C 66.101562 87.550781 65.4375 87.800781 64.75 88 C 65.167969 88.503906 65.335938 89.089844 65.25 89.75 C 63.679688 90.019531 62.179688 90.519531 60.75 91.25 C 60.410156 91.070312 60.074219 90.902344 59.75 90.75 C 53.679688 80.109375 48.84375 68.941406 45.25 57.25 C 45.269531 55.789062 44.851562 54.453125 44 53.25 C 43.273438 47.253906 43.1875 41.253906 43.75 35.25 C 46.328125 34.257812 48.578125 32.757812 50.5 30.75 C 52.734375 27.367188 55.152344 24.117188 57.75 21 C 60.914062 20.75 64.078125 20.667969 67.25 20.75 C 67.789062 19.238281 67.789062 17.738281 67.25 16.25 C 68.5625 15.601562 69.726562 14.769531 70.75 13.75 C 71.246094 13.792969 71.664062 13.625 72 13.25 C 72.105469 11.621094 72.355469 10.039062 72.75 8.5 C 72.121094 7.628906 71.621094 6.714844 71.25 5.75 Z M 71.25 5.75 "/>
<path style=" stroke:none;fill-rule:evenodd;fill:rgb(36.078431%,78.039216%,69.803922%);fill-opacity:1;" d="M 51.25 48.75 C 52.824219 49.15625 53.65625 50.15625 53.75 51.75 C 52.855469 51.816406 52.019531 51.652344 51.25 51.25 C 50.804688 50.871094 50.472656 50.371094 50.25 49.75 C 50.375 49.144531 50.707031 48.808594 51.25 48.75 Z M 51.25 48.75 "/>
<path style=" stroke:none;fill-rule:evenodd;fill:rgb(91.372549%,87.058824%,78.823529%);fill-opacity:1;" d="M 99.75 45.25 C 102.222656 44.980469 104.558594 45.394531 106.75 46.5 C 107.914062 49.757812 106.746094 51.171875 103.25 50.75 C 99.050781 50.8125 97.886719 48.980469 99.75 45.25 Z M 99.75 45.25 "/>
<path style=" stroke:none;fill-rule:evenodd;fill:rgb(80.784314%,88.627451%,83.921569%);fill-opacity:1;" d="M 50.75 37.75 C 50.75 38.417969 50.75 39.082031 50.75 39.75 C 50.328125 41.164062 49.996094 42.664062 49.75 44.25 C 49.9375 45.402344 50.4375 45.570312 51.25 44.75 C 50.910156 45.589844 50.242188 45.921875 49.25 45.75 C 49.25 46.582031 49.25 47.417969 49.25 48.25 C 50.050781 48.117188 50.714844 48.28125 51.25 48.75 C 50.707031 48.808594 50.375 49.144531 50.25 49.75 C 50.472656 50.371094 50.804688 50.871094 51.25 51.25 C 50.410156 51.589844 50.078125 52.257812 50.25 53.25 C 48.636719 49.226562 48.21875 45.058594 49 40.75 C 49.46875 39.636719 50.054688 38.636719 50.75 37.75 Z M 50.75 37.75 "/>
<path style=" stroke:none;fill-rule:evenodd;fill:rgb(63.137255%,75.294118%,78.823529%);fill-opacity:1;" d="M 93.75 39.75 C 94.695312 41.980469 95.445312 44.3125 96 46.75 C 96.410156 51.503906 96.328125 56.171875 95.75 60.75 C 95.832031 57.078125 95.75 53.414062 95.5 49.75 C 95.074219 47.476562 94.492188 45.3125 93.75 43.25 C 93.332031 42.308594 92.664062 41.640625 91.75 41.25 C 92.417969 40.75 93.082031 40.25 93.75 39.75 Z M 93.75 39.75 "/>
<path style=" stroke:none;fill-rule:evenodd;fill:rgb(34.117647%,70.588235%,61.568627%);fill-opacity:1;" d="M 50.75 39.75 C 52.390625 41.300781 52.558594 42.96875 51.25 44.75 C 50.4375 45.570312 49.9375 45.402344 49.75 44.25 C 49.996094 42.664062 50.328125 41.164062 50.75 39.75 Z M 50.75 39.75 "/>
<path style=" stroke:none;fill-rule:evenodd;fill:rgb(9.803922%,48.627451%,60.784314%);fill-opacity:1;" d="M 59.25 24.25 C 60.03125 25.066406 59.863281 25.648438 58.75 26 C 59.882812 27.507812 59.382812 28.425781 57.25 28.75 C 57.289062 29.464844 57.121094 30.132812 56.75 30.75 C 56.164062 31.722656 55.164062 32.390625 53.75 32.75 C 53.230469 33.792969 52.480469 34.625 51.5 35.25 C 51.257812 35.722656 51.175781 36.222656 51.25 36.75 C 50.832031 36.921875 50.664062 37.253906 50.75 37.75 C 50.054688 38.636719 49.46875 39.636719 49 40.75 C 48.21875 45.058594 48.636719 49.226562 50.25 53.25 C 50.25 53.917969 50.25 54.582031 50.25 55.25 C 50.402344 56.460938 50.238281 57.628906 49.75 58.75 C 49.414062 58.199219 49.078125 57.699219 48.75 57.25 C 46.558594 50.824219 45.722656 44.15625 46.25 37.25 C 48.109375 36.734375 49.773438 35.820312 51.25 34.5 C 54.039062 31.132812 56.707031 27.71875 59.25 24.25 Z M 59.25 24.25 "/>
<path style=" stroke:none;fill-rule:evenodd;fill:rgb(90.588235%,85.882353%,78.431373%);fill-opacity:1;" d="M 98.25 38.75 C 100.484375 38.566406 102.648438 38.816406 104.75 39.5 C 105.722656 40.578125 105.972656 41.828125 105.5 43.25 C 103.265625 43.90625 101.015625 43.90625 98.75 43.25 C 97.835938 41.789062 97.671875 40.289062 98.25 38.75 Z M 98.25 38.75 "/>
<path style=" stroke:none;fill-rule:evenodd;fill:rgb(90.588235%,85.882353%,78.039216%);fill-opacity:1;" d="M 96.75 33.75 C 98.589844 33.667969 100.425781 33.75 102.25 34 C 104.398438 35.792969 104.066406 36.957031 101.25 37.5 C 99.417969 37.832031 97.582031 37.832031 95.75 37.5 C 95.210938 37.164062 94.878906 36.664062 94.75 36 C 95.082031 34.925781 95.75 34.175781 96.75 33.75 Z M 96.75 33.75 "/>
<path style=" stroke:none;fill-rule:evenodd;fill:rgb(98.823529%,92.941176%,80.392157%);fill-opacity:1;" d="M 91.75 36.75 C 91.75 38.25 91.75 39.75 91.75 41.25 C 92.664062 41.640625 93.332031 42.308594 93.75 43.25 C 93.832031 45.589844 93.75 47.921875 93.5 50.25 C 92.445312 49.292969 91.363281 49.125 90.25 49.75 C 86.992188 50.421875 83.90625 51.585938 81 53.25 C 79.539062 56.21875 80.453125 58.050781 83.75 58.75 C 83.664062 59.410156 83.832031 59.996094 84.25 60.5 C 86.371094 61.226562 88.535156 61.394531 90.75 61 C 92.003906 60.246094 92.835938 59.164062 93.25 57.75 C 93.542969 57.855469 93.792969 58.023438 94 58.25 C 94.773438 60.242188 94.859375 62.242188 94.25 64.25 C 94.082031 64.417969 93.917969 64.582031 93.75 64.75 C 93.359375 64.136719 93.109375 63.46875 93 62.75 C 92.175781 64.742188 90.761719 65.992188 88.75 66.5 C 89.976562 67.425781 90.476562 68.675781 90.25 70.25 C 89.5625 70.328125 88.898438 70.246094 88.25 70 C 87.429688 68.605469 86.679688 67.191406 86 65.75 C 83.425781 63.121094 80.507812 62.621094 77.25 64.25 C 75.882812 64.199219 74.546875 64.367188 73.25 64.75 C 73.042969 64.4375 72.707031 64.273438 72.25 64.25 C 71.335938 64.824219 70.335938 65.160156 69.25 65.25 C 69.25 65.917969 69.25 66.582031 69.25 67.25 C 68.722656 67.175781 68.222656 67.257812 67.75 67.5 C 67.417969 68.5 66.75 69.167969 65.75 69.5 C 66.539062 71.242188 66.039062 72.574219 64.25 73.5 C 62.226562 73.742188 60.140625 73.492188 58 72.75 C 57.667969 72.417969 57.667969 72.082031 58 71.75 C 58.328125 72.347656 58.578125 72.347656 58.75 71.75 C 58.511719 71.261719 58.179688 70.84375 57.75 70.5 C 57.917969 70.332031 58.082031 70.167969 58.25 70 C 57.621094 69.445312 57.035156 69.359375 56.5 69.75 C 56.78125 68.273438 56.695312 66.773438 56.25 65.25 C 55.417969 65.25 54.582031 65.25 53.75 65.25 C 52.582031 61.917969 51.417969 58.582031 50.25 55.25 C 50.25 54.582031 50.25 53.917969 50.25 53.25 C 50.078125 52.257812 50.410156 51.589844 51.25 51.25 C 52.019531 51.652344 52.855469 51.816406 53.75 51.75 C 53.65625 50.15625 52.824219 49.15625 51.25 48.75 C 50.714844 48.28125 50.050781 48.117188 49.25 48.25 C 49.25 47.417969 49.25 46.582031 49.25 45.75 C 50.242188 45.921875 50.910156 45.589844 51.25 44.75 C 52.558594 42.96875 52.390625 41.300781 50.75 39.75 C 50.75 39.082031 50.75 38.417969 50.75 37.75 C 50.664062 37.253906 50.832031 36.921875 51.25 36.75 C 54.992188 33.757812 58.492188 30.507812 61.75 27 C 68.417969 26.667969 75.082031 26.667969 81.75 27 C 84.402344 27.121094 86.902344 27.789062 89.25 29 C 90.925781 31.28125 91.757812 33.867188 91.75 36.75 Z M 91.75 36.75 "/>
<path style=" stroke:none;fill-rule:evenodd;fill:rgb(0.784314%,0.784314%,5.098039%);fill-opacity:1;" d="M 69.75 28.25 C 74.324219 27.976562 78.824219 28.394531 83.25 29.5 C 84.832031 30.238281 85.746094 31.488281 86 33.25 C 86.472656 39.054688 84.054688 43.136719 78.75 45.5 C 74.410156 46.332031 70.992188 44.914062 68.5 41.25 C 66.1875 37.703125 65.855469 34.039062 67.5 30.25 C 68.199219 29.464844 68.949219 28.796875 69.75 28.25 Z M 69.75 28.25 "/>
<path style=" stroke:none;fill-rule:evenodd;fill:rgb(25.490196%,62.745098%,70.196078%);fill-opacity:1;" d="M 59.25 24.25 C 68.785156 24.019531 78.285156 24.269531 87.75 25 C 91.1875 26.535156 93.019531 29.203125 93.25 33 C 93.214844 34.476562 92.714844 35.726562 91.75 36.75 C 91.757812 33.867188 90.925781 31.28125 89.25 29 C 86.902344 27.789062 84.402344 27.121094 81.75 27 C 75.082031 26.667969 68.417969 26.667969 61.75 27 C 58.492188 30.507812 54.992188 33.757812 51.25 36.75 C 51.175781 36.222656 51.257812 35.722656 51.5 35.25 C 52.480469 34.625 53.230469 33.792969 53.75 32.75 C 55.164062 32.390625 56.164062 31.722656 56.75 30.75 C 57.121094 30.132812 57.289062 29.464844 57.25 28.75 C 59.382812 28.425781 59.882812 27.507812 58.75 26 C 59.863281 25.648438 60.03125 25.066406 59.25 24.25 Z M 59.25 24.25 "/>
<path style=" stroke:none;fill-rule:evenodd;fill:rgb(20.392157%,54.509804%,63.921569%);fill-opacity:1;" d="M 74.75 14.75 C 80.558594 13.15625 84.394531 15.238281 86.25 21 C 85.371094 21.398438 84.535156 21.316406 83.75 20.75 C 80.324219 16.710938 79.492188 16.878906 81.25 21.25 C 77.429688 21.75 73.597656 21.914062 69.75 21.75 C 69.566406 19.976562 70.066406 18.476562 71.25 17.25 C 73.28125 18.140625 75.449219 18.472656 77.75 18.25 C 77.75 17.082031 77.75 15.917969 77.75 14.75 C 76.75 14.75 75.75 14.75 74.75 14.75 Z M 74.75 14.75 "/>
<path style=" stroke:none;fill-rule:evenodd;fill:rgb(58.823529%,81.960784%,85.490196%);fill-opacity:1;" d="M 74.75 14.75 C 75.75 14.75 76.75 14.75 77.75 14.75 C 77.75 15.917969 77.75 17.082031 77.75 18.25 C 75.449219 18.472656 73.28125 18.140625 71.25 17.25 C 71.996094 15.839844 73.164062 15.003906 74.75 14.75 Z M 74.75 14.75 "/>
<path style=" stroke:none;fill-rule:evenodd;fill:rgb(3.921569%,3.137255%,5.098039%);fill-opacity:1;" d="M 90.25 49.75 C 91.011719 50.246094 91.347656 50.996094 91.25 52 C 91.082031 52.582031 90.917969 53.167969 90.75 53.75 C 89.730469 54.117188 88.730469 54.535156 87.75 55 C 89.101562 55.5625 90.351562 56.3125 91.5 57.25 C 91.960938 59.289062 91.128906 60.289062 89 60.25 C 87.164062 60 85.414062 59.5 83.75 58.75 C 80.453125 58.050781 79.539062 56.21875 81 53.25 C 83.90625 51.585938 86.992188 50.421875 90.25 49.75 Z M 90.25 49.75 "/>
<path style=" stroke:none;fill-rule:evenodd;fill:rgb(92.54902%,88.627451%,81.568627%);fill-opacity:1;" d="M 99.25 52.25 C 101.753906 52.445312 104.253906 52.695312 106.75 53 C 109.417969 54.667969 109.417969 56.332031 106.75 58 C 104.253906 58.25 101.753906 58.332031 99.25 58.25 C 99.25 56.25 99.25 54.25 99.25 52.25 Z M 99.25 52.25 "/>
<path style=" stroke:none;fill-rule:evenodd;fill:rgb(99.607843%,79.215686%,24.313725%);fill-opacity:1;" d="M 17.75 60.75 C 17.324219 58.074219 15.992188 55.910156 13.75 54.25 C 13.546875 56.035156 13.546875 57.867188 13.75 59.75 C 13.890625 60.671875 13.554688 61.339844 12.75 61.75 C 12.472656 60.792969 12.390625 59.792969 12.5 58.75 C 12.003906 59.03125 11.585938 59.367188 11.25 59.75 C 10.804688 60.054688 10.304688 60.222656 9.75 60.25 C 8.222656 60.660156 6.722656 60.660156 5.25 60.25 C 5.5 59.75 5.75 59.25 6 58.75 C 6.523438 59.257812 7.109375 59.34375 7.75 59 C 10.53125 56.96875 11.699219 54.21875 11.25 50.75 C 10.75 50.75 10.25 50.75 9.75 50.75 C 10.132812 50.367188 10.632812 50.117188 11.25 50 C 9.902344 48.722656 10.234375 48.140625 12.25 48.25 C 12.347656 49.480469 12.683594 50.648438 13.25 51.75 C 14.753906 53.007812 16.171875 54.339844 17.5 55.75 C 17.75 57.410156 17.832031 59.074219 17.75 60.75 Z M 17.75 60.75 "/>
<path style=" stroke:none;fill-rule:evenodd;fill:rgb(97.647059%,90.588235%,60.392157%);fill-opacity:1;" d="M 9.75 50.75 C 10.25 50.75 10.75 50.75 11.25 50.75 C 11.699219 54.21875 10.53125 56.96875 7.75 59 C 7.109375 59.34375 6.523438 59.257812 6 58.75 C 5.75 59.25 5.5 59.75 5.25 60.25 C 6.722656 60.660156 8.222656 60.660156 9.75 60.25 C 7.898438 61.203125 5.898438 61.621094 3.75 61.5 C 5.363281 58.746094 6.527344 55.828125 7.25 52.75 C 8.285156 52.351562 9.121094 51.683594 9.75 50.75 Z M 9.75 50.75 "/>
<path style=" stroke:none;fill-rule:evenodd;fill:rgb(99.607843%,93.333333%,66.666667%);fill-opacity:1;" d="M 17.75 60.75 C 17.773438 62.84375 17.9375 64.925781 18.25 67 C 18.25 68.292969 18.75 69.292969 19.75 70 C 17.054688 71.113281 14.886719 72.863281 13.25 75.25 C 12.589844 75.972656 11.757812 76.304688 10.75 76.25 C 10.839844 73.070312 12.339844 71.070312 15.25 70.25 C 15.007812 66.648438 14.507812 63.148438 13.75 59.75 C 13.546875 57.867188 13.546875 56.035156 13.75 54.25 C 15.992188 55.910156 17.324219 58.074219 17.75 60.75 Z M 17.75 60.75 "/>
<path style=" stroke:none;fill-rule:evenodd;fill:rgb(45.098039%,65.490196%,70.980392%);fill-opacity:1;" d="M 93.75 39.75 C 94.335938 39.640625 94.835938 39.808594 95.25 40.25 C 96.0625 42.003906 96.648438 43.835938 97 45.75 C 97.753906 50.894531 97.917969 56.0625 97.5 61.25 C 97.300781 64.546875 96.550781 67.714844 95.25 70.75 C 93.65625 71.175781 92.65625 70.507812 92.25 68.75 C 94.5 66.582031 95.664062 63.914062 95.75 60.75 C 96.328125 56.171875 96.410156 51.503906 96 46.75 C 95.445312 44.3125 94.695312 41.980469 93.75 39.75 Z M 93.75 39.75 "/>
<path style=" stroke:none;fill-rule:evenodd;fill:rgb(94.117647%,89.411765%,81.176471%);fill-opacity:1;" d="M 100.75 60.25 C 102.425781 60.167969 104.089844 60.25 105.75 60.5 C 107.753906 62.179688 107.585938 63.679688 105.25 65 C 103.066406 65.316406 100.898438 65.230469 98.75 64.75 C 98.328125 62.660156 98.996094 61.160156 100.75 60.25 Z M 100.75 60.25 "/>
<path style=" stroke:none;fill-rule:evenodd;fill:rgb(10.588235%,48.235294%,54.901961%);fill-opacity:1;" d="M 50.25 55.25 C 51.417969 58.582031 52.582031 61.917969 53.75 65.25 C 54.71875 68.652344 55.882812 71.984375 57.25 75.25 C 57.582031 75.582031 57.917969 75.917969 58.25 76.25 C 58.25 76.582031 58.25 76.917969 58.25 77.25 C 58.382812 78.9375 58.882812 80.519531 59.75 82 C 59.714844 82.382812 59.546875 82.632812 59.25 82.75 C 54.25 74.910156 50.75 66.410156 48.75 57.25 C 49.078125 57.699219 49.414062 58.199219 49.75 58.75 C 50.238281 57.628906 50.402344 56.460938 50.25 55.25 Z M 50.25 55.25 "/>
<path style=" stroke:none;fill-rule:evenodd;fill:rgb(90.588235%,45.882353%,9.019608%);fill-opacity:1;" d="M 31.25 20.25 C 33.273438 20.199219 35.273438 20.363281 37.25 20.75 C 37.25 21.417969 37.25 22.082031 37.25 22.75 C 36.519531 33.570312 36.1875 44.402344 36.25 55.25 C 37.902344 54.972656 39.570312 54.808594 41.25 54.75 C 41.480469 57.328125 42.066406 59.828125 43 62.25 C 44.207031 65.828125 45.789062 69.160156 47.75 72.25 C 48.910156 75.578125 50.578125 78.578125 52.75 81.25 C 53.691406 83.488281 54.773438 85.652344 56 87.75 C 57.128906 90.984375 57.714844 94.316406 57.75 97.75 C 61.140625 96.722656 64.640625 96.058594 68.25 95.75 C 68.714844 96.34375 68.882812 97.011719 68.75 97.75 C 69.582031 97.75 70.417969 97.75 71.25 97.75 C 72.664062 98.445312 72.996094 99.445312 72.25 100.75 C 71.921875 101.140625 71.503906 101.472656 71 101.75 C 70.332031 101.082031 69.667969 101.082031 69 101.75 C 68.75 101.667969 68.5 101.582031 68.25 101.5 C 69.480469 101.136719 69.980469 100.472656 69.75 99.5 C 67.820312 99.152344 65.902344 98.734375 64 98.25 C 62.292969 98.308594 60.710938 98.640625 59.25 99.25 C 58.429688 99.355469 57.679688 99.191406 57 98.75 C 56.71875 96.90625 56.386719 95.074219 56 93.25 C 53.207031 88.832031 50.539062 84.332031 48 79.75 C 42.914062 74.835938 39.914062 68.835938 39 61.75 C 37.121094 61.320312 35.203125 61.320312 33.25 61.75 C 33.25 55.917969 33.25 50.082031 33.25 44.25 C 31.976562 44.195312 30.808594 44.527344 29.75 45.25 C 29.296875 41.21875 30.046875 37.382812 32 33.75 C 32.332031 31.082031 32.332031 28.417969 32 25.75 C 31.8125 25.292969 31.5625 24.875 31.25 24.5 C 29.582031 24.167969 27.917969 24.167969 26.25 24.5 C 22.335938 26.496094 18.335938 28.246094 14.25 29.75 C 14.726562 28.414062 15.726562 27.664062 17.25 27.5 C 17.082031 27.332031 16.917969 27.167969 16.75 27 C 17.75 26.832031 18.75 26.667969 19.75 26.5 C 18.800781 25.804688 18.632812 24.886719 19.25 23.75 C 23.050781 21.984375 27.050781 20.816406 31.25 20.25 Z M 31.25 20.25 "/>
<path style=" stroke:none;fill-rule:evenodd;fill:rgb(94.901961%,90.196078%,81.568627%);fill-opacity:1;" d="M 98.25 67.25 C 100.582031 67.25 102.917969 67.25 105.25 67.25 C 106.03125 70.636719 104.699219 72.136719 101.25 71.75 C 99.902344 71.648438 98.566406 71.480469 97.25 71.25 C 97.480469 69.890625 97.816406 68.554688 98.25 67.25 Z M 98.25 67.25 "/>
<path style=" stroke:none;fill-rule:evenodd;fill:rgb(96.078431%,76.862745%,32.941176%);fill-opacity:1;" d="M 13.75 59.75 C 14.507812 63.148438 15.007812 66.648438 15.25 70.25 C 12.339844 71.070312 10.839844 73.070312 10.75 76.25 C 11.757812 76.304688 12.589844 75.972656 13.25 75.25 C 13.417969 75.582031 13.582031 75.917969 13.75 76.25 C 13.75 76.417969 13.75 76.582031 13.75 76.75 C 12.097656 77.148438 10.433594 77.480469 8.75 77.75 C 8.847656 75.363281 9.261719 73.03125 10 70.75 C 10.820312 69.128906 11.320312 67.460938 11.5 65.75 C 10.78125 66.507812 10.03125 66.671875 9.25 66.25 C 9.839844 64.046875 10.507812 61.882812 11.25 59.75 C 11.585938 59.367188 12.003906 59.03125 12.5 58.75 C 12.390625 59.792969 12.472656 60.792969 12.75 61.75 C 13.554688 61.339844 13.890625 60.671875 13.75 59.75 Z M 13.75 59.75 "/>
<path style=" stroke:none;fill-rule:evenodd;fill:rgb(70.588235%,29.803922%,14.901961%);fill-opacity:1;" d="M 45.25 57.25 C 48.84375 68.941406 53.679688 80.109375 59.75 90.75 C 58.859375 90.023438 57.859375 89.523438 56.75 89.25 C 56.902344 88.039062 56.738281 86.871094 56.25 85.75 C 55.109375 84.007812 54.195312 82.175781 53.5 80.25 C 53.359375 80.707031 53.109375 81.039062 52.75 81.25 C 50.578125 78.578125 48.910156 75.578125 47.75 72.25 C 47.769531 71.707031 47.9375 71.207031 48.25 70.75 C 47.753906 70.265625 47.421875 69.683594 47.25 69 C 46.679688 65.058594 46.011719 61.144531 45.25 57.25 Z M 45.25 57.25 "/>
<path style=" stroke:none;fill-rule:evenodd;fill:rgb(35.294118%,58.823529%,53.72549%);fill-opacity:1;" d="M 58.25 76.25 C 57.917969 75.917969 57.582031 75.582031 57.25 75.25 C 58.285156 74.449219 59.453125 74.199219 60.75 74.5 C 60.917969 74.667969 61.082031 74.832031 61.25 75 C 60.09375 75.117188 59.09375 75.535156 58.25 76.25 Z M 58.25 76.25 "/>
<path style=" stroke:none;fill-rule:evenodd;fill:rgb(96.078431%,93.72549%,83.921569%);fill-opacity:1;" d="M 93.75 43.25 C 94.492188 45.3125 95.074219 47.476562 95.5 49.75 C 95.75 53.414062 95.832031 57.078125 95.75 60.75 C 95.664062 63.914062 94.5 66.582031 92.25 68.75 C 90.945312 71.207031 91.027344 73.707031 92.5 76.25 C 93.40625 80.296875 91.988281 83.132812 88.25 84.75 C 79.390625 85.515625 70.558594 85.265625 61.75 84 C 60.898438 82.882812 60.398438 81.632812 60.25 80.25 C 61.421875 80.246094 62.421875 79.832031 63.25 79 C 62.226562 78.976562 61.226562 79.226562 60.25 79.75 C 59.460938 78.992188 58.792969 78.160156 58.25 77.25 C 58.25 76.917969 58.25 76.582031 58.25 76.25 C 59.09375 75.535156 60.09375 75.117188 61.25 75 C 61.082031 74.832031 60.917969 74.667969 60.75 74.5 C 59.453125 74.199219 58.285156 74.449219 57.25 75.25 C 55.882812 71.984375 54.71875 68.652344 53.75 65.25 C 54.582031 65.25 55.417969 65.25 56.25 65.25 C 56.695312 66.773438 56.78125 68.273438 56.5 69.75 C 57.035156 69.359375 57.621094 69.445312 58.25 70 C 58.082031 70.167969 57.917969 70.332031 57.75 70.5 C 58.179688 70.84375 58.511719 71.261719 58.75 71.75 C 58.578125 72.347656 58.328125 72.347656 58 71.75 C 57.667969 72.082031 57.667969 72.417969 58 72.75 C 60.140625 73.492188 62.226562 73.742188 64.25 73.5 C 66.039062 72.574219 66.539062 71.242188 65.75 69.5 C 66.75 69.167969 67.417969 68.5 67.75 67.5 C 68.222656 67.257812 68.722656 67.175781 69.25 67.25 C 69.25 66.582031 69.25 65.917969 69.25 65.25 C 70.335938 65.160156 71.335938 64.824219 72.25 64.25 C 72.707031 64.273438 73.042969 64.4375 73.25 64.75 C 67.460938 68.164062 65.378906 73.164062 67 79.75 C 67.390625 80.644531 67.976562 81.394531 68.75 82 C 71.917969 82.332031 75.082031 82.332031 78.25 82 C 86.042969 80.632812 88.128906 76.382812 84.5 69.25 C 82.65625 66.640625 80.238281 64.972656 77.25 64.25 C 80.507812 62.621094 83.425781 63.121094 86 65.75 C 86.679688 67.191406 87.429688 68.605469 88.25 70 C 88.898438 70.246094 89.5625 70.328125 90.25 70.25 C 90.476562 68.675781 89.976562 67.425781 88.75 66.5 C 90.761719 65.992188 92.175781 64.742188 93 62.75 C 93.109375 63.46875 93.359375 64.136719 93.75 64.75 C 93.917969 64.582031 94.082031 64.417969 94.25 64.25 C 94.859375 62.242188 94.773438 60.242188 94 58.25 C 93.792969 58.023438 93.542969 57.855469 93.25 57.75 C 92.835938 59.164062 92.003906 60.246094 90.75 61 C 88.535156 61.394531 86.371094 61.226562 84.25 60.5 C 83.832031 59.996094 83.664062 59.410156 83.75 58.75 C 85.414062 59.5 87.164062 60 89 60.25 C 91.128906 60.289062 91.960938 59.289062 91.5 57.25 C 90.351562 56.3125 89.101562 55.5625 87.75 55 C 88.730469 54.535156 89.730469 54.117188 90.75 53.75 C 90.917969 53.167969 91.082031 52.582031 91.25 52 C 91.347656 50.996094 91.011719 50.246094 90.25 49.75 C 91.363281 49.125 92.445312 49.292969 93.5 50.25 C 93.75 47.921875 93.832031 45.589844 93.75 43.25 Z M 93.75 43.25 "/>
<path style=" stroke:none;fill-rule:evenodd;fill:rgb(1.176471%,1.176471%,5.490196%);fill-opacity:1;" d="M 77.25 64.25 C 80.238281 64.972656 82.65625 66.640625 84.5 69.25 C 88.128906 76.382812 86.042969 80.632812 78.25 82 C 75.082031 82.332031 71.917969 82.332031 68.75 82 C 67.976562 81.394531 67.390625 80.644531 67 79.75 C 65.378906 73.164062 67.460938 68.164062 73.25 64.75 C 74.546875 64.367188 75.882812 64.199219 77.25 64.25 Z M 77.25 64.25 "/>
<path style=" stroke:none;fill-rule:evenodd;fill:rgb(90.196078%,85.882353%,76.862745%);fill-opacity:1;" d="M 95.75 72.75 C 98.300781 72.585938 100.800781 72.835938 103.25 73.5 C 103.996094 75.324219 103.332031 76.324219 101.25 76.5 C 99.75 76.832031 98.25 76.832031 96.75 76.5 C 94.136719 75.578125 93.804688 74.328125 95.75 72.75 Z M 95.75 72.75 "/>
<path style=" stroke:none;fill-rule:evenodd;fill:rgb(99.607843%,92.156863%,65.882353%);fill-opacity:1;" d="M 29.75 98.25 C 28.183594 99.148438 26.515625 99.816406 24.75 100.25 C 24.15625 97.789062 23.824219 95.289062 23.75 92.75 C 24.394531 92.066406 24.726562 91.148438 24.75 90 C 24.667969 89.082031 24.582031 88.167969 24.5 87.25 C 22.453125 81.722656 21.035156 76.058594 20.25 70.25 C 20.910156 70.164062 21.496094 70.332031 22 70.75 C 24.335938 73.414062 26.167969 76.414062 27.5 79.75 C 29.269531 85.074219 30.683594 90.488281 31.75 96 C 30.992188 96.675781 30.324219 97.425781 29.75 98.25 Z M 29.75 98.25 "/>
<path style=" stroke:none;fill-rule:evenodd;fill:rgb(52.156863%,33.333333%,14.901961%);fill-opacity:1;" d="M 14.75 76.25 C 14.328125 77.191406 14.164062 78.191406 14.25 79.25 C 13.773438 78.539062 13.609375 77.707031 13.75 76.75 C 13.75 76.582031 13.75 76.417969 13.75 76.25 C 14.199219 75.746094 14.53125 75.746094 14.75 76.25 Z M 14.75 76.25 "/>
<path style=" stroke:none;fill-rule:evenodd;fill:rgb(98.431373%,82.745098%,40%);fill-opacity:1;" d="M 18.75 84.25 C 18.484375 85.273438 17.902344 86.105469 17 86.75 C 16.832031 86.582031 16.667969 86.417969 16.5 86.25 C 16.050781 83.777344 15.300781 81.445312 14.25 79.25 C 14.164062 78.191406 14.328125 77.191406 14.75 76.25 C 14.964844 74.871094 15.800781 74.203125 17.25 74.25 C 17.136719 76.183594 17.636719 77.933594 18.75 79.5 C 18.082031 80 17.417969 80.5 16.75 81 C 16.949219 82.40625 17.613281 83.492188 18.75 84.25 Z M 18.75 84.25 "/>
<path style=" stroke:none;fill-rule:evenodd;fill:rgb(27.843137%,60.392157%,65.882353%);fill-opacity:1;" d="M 58.25 77.25 C 58.792969 78.160156 59.460938 78.992188 60.25 79.75 C 61.226562 79.226562 62.226562 78.976562 63.25 79 C 62.421875 79.832031 61.421875 80.246094 60.25 80.25 C 60.398438 81.632812 60.898438 82.882812 61.75 84 C 70.558594 85.265625 79.390625 85.515625 88.25 84.75 C 87.828125 85.484375 87.160156 85.898438 86.25 86 C 78.210938 86.003906 70.210938 86.421875 62.25 87.25 C 60.878906 86.011719 59.878906 84.511719 59.25 82.75 C 59.546875 82.632812 59.714844 82.382812 59.75 82 C 58.882812 80.519531 58.382812 78.9375 58.25 77.25 Z M 58.25 77.25 "/>
<path style=" stroke:none;fill-rule:evenodd;fill:rgb(22.745098%,65.490196%,72.156863%);fill-opacity:1;" d="M 79.75 92.75 C 78.855469 93.3125 77.855469 93.394531 76.75 93 C 75.417969 92 74.082031 91 72.75 90 C 71.761719 89.753906 70.761719 89.667969 69.75 89.75 C 73.546875 88.765625 77.546875 88.433594 81.75 88.75 C 81.601562 90.378906 80.9375 91.710938 79.75 92.75 Z M 79.75 92.75 "/>
<path style=" stroke:none;fill-rule:evenodd;fill:rgb(33.72549%,57.647059%,64.705882%);fill-opacity:1;" d="M 83.25 94.75 C 82.347656 93.917969 81.847656 93.085938 81.75 92.25 C 82.75 90.75 84.085938 89.585938 85.75 88.75 C 86.289062 91.289062 85.457031 93.289062 83.25 94.75 Z M 83.25 94.75 "/>
<path style=" stroke:none;fill-rule:evenodd;fill:rgb(76.862745%,30.588235%,9.803922%);fill-opacity:1;" d="M 59.75 90.75 C 60.074219 90.902344 60.410156 91.070312 60.75 91.25 C 62.179688 90.519531 63.679688 90.019531 65.25 89.75 C 65.917969 89.75 66.582031 89.75 67.25 89.75 C 67.167969 91.09375 67.25 92.425781 67.5 93.75 C 68.648438 95.238281 69.898438 96.570312 71.25 97.75 C 70.417969 97.75 69.582031 97.75 68.75 97.75 C 68.882812 97.011719 68.714844 96.34375 68.25 95.75 C 64.640625 96.058594 61.140625 96.722656 57.75 97.75 C 57.714844 94.316406 57.128906 90.984375 56 87.75 C 54.773438 85.652344 53.691406 83.488281 52.75 81.25 C 53.109375 81.039062 53.359375 80.707031 53.5 80.25 C 54.195312 82.175781 55.109375 84.007812 56.25 85.75 C 56.738281 86.871094 56.902344 88.039062 56.75 89.25 C 57.859375 89.523438 58.859375 90.023438 59.75 90.75 Z M 59.75 90.75 "/>
<use xlink:href="#surface20" mask="url(#mask5)"/>
<path style=" stroke:none;fill-rule:evenodd;fill:rgb(85.098039%,87.058824%,84.705882%);fill-opacity:1;" d="M 69.75 89.75 C 70.761719 89.667969 71.761719 89.753906 72.75 90 C 74.082031 91 75.417969 92 76.75 93 C 77.855469 93.394531 78.855469 93.3125 79.75 92.75 C 80.480469 92.785156 81.144531 92.617188 81.75 92.25 C 81.847656 93.085938 82.347656 93.917969 83.25 94.75 C 82.75 95.082031 82.25 95.417969 81.75 95.75 C 80.230469 96.339844 78.644531 96.671875 77 96.75 C 72.675781 96.339844 70.257812 94.007812 69.75 89.75 Z M 69.75 89.75 "/>
<path style=" stroke:none;fill-rule:evenodd;fill:rgb(97.647059%,78.039216%,34.117647%);fill-opacity:1;" d="M 43.25 99.75 C 42.765625 100.804688 42.597656 101.96875 42.75 103.25 C 43.25 103.25 43.75 103.25 44.25 103.25 C 43.488281 104.066406 42.488281 104.480469 41.25 104.5 C 40.644531 105.054688 40.8125 105.304688 41.75 105.25 C 41.199219 105.800781 40.53125 105.882812 39.75 105.5 C 40.535156 103.738281 41.367188 101.988281 42.25 100.25 C 41.75 100.082031 41.25 99.917969 40.75 99.75 C 36.425781 100.121094 32.09375 100.371094 27.75 100.5 C 27 100.75 26.25 101 25.5 101.25 C 24.984375 101.082031 24.734375 100.75 24.75 100.25 C 26.515625 99.816406 28.183594 99.148438 29.75 98.25 C 29.472656 98.894531 28.972656 99.3125 28.25 99.5 C 29.582031 99.832031 30.917969 99.832031 32.25 99.5 C 32.296875 98.789062 32.464844 98.039062 32.75 97.25 C 33.816406 96.765625 34.816406 96.183594 35.75 95.5 C 38.417969 95.167969 41.082031 95.167969 43.75 95.5 C 44.152344 95.652344 44.488281 95.902344 44.75 96.25 C 44.453125 97.445312 43.785156 98.363281 42.75 99 C 43.027344 99.191406 43.195312 99.441406 43.25 99.75 Z M 43.25 99.75 "/>
<path style=" stroke:none;fill-rule:evenodd;fill:rgb(92.156863%,52.156863%,9.411765%);fill-opacity:1;" d="M 72.25 100.75 C 72.359375 101.335938 72.191406 101.835938 71.75 102.25 C 69.53125 103.695312 67.195312 104.859375 64.75 105.75 C 64.25 105.765625 63.917969 105.515625 63.75 105 C 64.144531 103.949219 64.308594 102.867188 64.25 101.75 C 64.097656 100.601562 63.597656 100.433594 62.75 101.25 C 62.074219 99.742188 60.90625 99.074219 59.25 99.25 C 60.710938 98.640625 62.292969 98.308594 64 98.25 C 65.902344 98.734375 67.820312 99.152344 69.75 99.5 C 69.980469 100.472656 69.480469 101.136719 68.25 101.5 C 68.5 101.582031 68.75 101.667969 69 101.75 C 69.667969 101.082031 70.332031 101.082031 71 101.75 C 71.503906 101.472656 71.921875 101.140625 72.25 100.75 Z M 72.25 100.75 "/>
<path style=" stroke:none;fill-rule:evenodd;fill:rgb(99.215686%,91.372549%,67.45098%);fill-opacity:1;" d="M 44.25 103.25 C 43.75 103.25 43.25 103.25 42.75 103.25 C 42.597656 101.96875 42.765625 100.804688 43.25 99.75 C 44.621094 98.9375 46.121094 98.601562 47.75 98.75 C 47.90625 101.261719 46.742188 102.761719 44.25 103.25 Z M 44.25 103.25 "/>
<use xlink:href="#surface23" mask="url(#mask6)"/>
<path style=" stroke:none;fill-rule:evenodd;fill:rgb(80.392157%,60%,32.54902%);fill-opacity:1;" d="M 64.25 101.75 C 64.308594 102.867188 64.144531 103.949219 63.75 105 C 63.917969 105.515625 64.25 105.765625 64.75 105.75 C 64.371094 106.195312 63.871094 106.527344 63.25 106.75 C 62.941406 104.976562 63.277344 103.308594 64.25 101.75 Z M 64.25 101.75 "/>
<use xlink:href="#surface26" mask="url(#mask7)"/>
</g>
</svg>
