<?xml version="1.0" encoding="UTF-8"?>
<svg xmlns="http://www.w3.org/2000/svg" xmlns:xlink="http://www.w3.org/1999/xlink" width="px" height="px" viewBox="0 0 105 90" version="1.1">
<defs>
<filter id="alpha" filterUnits="objectBoundingBox" x="0%" y="0%" width="100%" height="100%">
  <feColorMatrix type="matrix" in="SourceGraphic" values="0 0 0 0 1 0 0 0 0 1 0 0 0 0 1 0 0 0 1 0"/>
</filter>
<mask id="mask0">
  <g filter="url(#alpha)">
<rect x="0" y="0" width="105" height="90" style="fill:rgb(0%,0%,0%);fill-opacity:0.980392;stroke:none;"/>
  </g>
</mask>
<clipPath id="clip1">
  <rect x="0" y="0" width="105" height="90"/>
</clipPath>
<g id="surface5" clip-path="url(#clip1)">
<path style=" stroke:none;fill-rule:evenodd;fill:rgb(3.137255%,3.137255%,3.921569%);fill-opacity:1;" d="M 81.640625 5.28125 C 83.078125 7.769531 84.082031 10.453125 84.652344 13.324219 C 87.738281 14.96875 89.746094 17.484375 90.683594 20.867188 C 90.933594 21.035156 91.183594 21.199219 91.433594 21.367188 C 98.019531 18.390625 100.699219 20.570312 99.472656 27.90625 C 102.253906 29.378906 103.175781 31.640625 102.238281 34.691406 C 102.933594 35.9375 103.269531 37.28125 103.242188 38.714844 C 103.207031 43.234375 103.207031 47.757812 103.242188 52.289062 C 102.566406 54.839844 102.148438 57.4375 101.984375 60.082031 C 101.484375 61.257812 100.644531 62.09375 99.472656 62.597656 C 100.359375 69.847656 97.597656 71.859375 91.183594 68.632812 C 89.707031 72.289062 87.195312 74.96875 83.648438 76.675781 C 81.523438 87.039062 75.496094 90.476562 65.5625 86.984375 C 63.785156 86.839844 62.027344 86.589844 60.285156 86.230469 C 53.089844 89.625 45.972656 89.542969 38.933594 85.976562 C 22.777344 85.648438 11.304688 78.191406 4.523438 63.601562 C -1.203125 49.191406 -0.199219 35.28125 7.535156 21.871094 C 9.011719 19.753906 10.601562 17.742188 12.308594 15.839844 C 13.824219 13.316406 16.003906 11.640625 18.839844 10.808594 C 23.710938 8.273438 28.902344 6.851562 34.414062 6.535156 C 43.15625 1.21875 52.035156 0.964844 61.039062 5.78125 C 62.171875 5.320312 63.179688 4.652344 64.054688 3.769531 C 70.265625 -0.492188 76.125 0.0078125 81.640625 5.28125 Z M 81.640625 5.28125 "/>
</g>
<mask id="mask1">
  <g filter="url(#alpha)">
<rect x="0" y="0" width="105" height="90" style="fill:rgb(0%,0%,0%);fill-opacity:0.0784314;stroke:none;"/>
  </g>
</mask>
<clipPath id="clip2">
  <rect x="0" y="0" width="105" height="90"/>
</clipPath>
<g id="surface8" clip-path="url(#clip2)">
<path style=" stroke:none;fill-rule:evenodd;fill:rgb(13.333333%,15.294118%,21.960784%);fill-opacity:1;" d="M 69.078125 -0.25 C 70.417969 -0.25 71.757812 -0.25 73.097656 -0.25 C 76.300781 0.0703125 79.066406 1.410156 81.386719 3.769531 C 81.628906 4.246094 81.714844 4.75 81.640625 5.28125 C 76.125 0.0078125 70.265625 -0.492188 64.054688 3.769531 C 64.0625 3.007812 64.394531 2.421875 65.058594 2.011719 C 66.367188 1.109375 67.707031 0.355469 69.078125 -0.25 Z M 69.078125 -0.25 "/>
</g>
<mask id="mask2">
  <g filter="url(#alpha)">
<rect x="0" y="0" width="105" height="90" style="fill:rgb(0%,0%,0%);fill-opacity:0.027451;stroke:none;"/>
  </g>
</mask>
<clipPath id="clip3">
  <rect x="0" y="0" width="105" height="90"/>
</clipPath>
<g id="surface11" clip-path="url(#clip3)">
<path style=" stroke:none;fill-rule:evenodd;fill:rgb(13.333333%,15.294118%,21.960784%);fill-opacity:1;" d="M 61.039062 5.78125 C 52.035156 0.964844 43.15625 1.21875 34.414062 6.535156 C 28.902344 6.851562 23.710938 8.273438 18.839844 10.808594 C 19.058594 10.019531 19.5625 9.433594 20.347656 9.050781 C 24.8125 6.8125 29.335938 5.804688 33.910156 6.035156 C 40.640625 1.5 47.839844 0.242188 55.515625 2.261719 C 57.769531 2.851562 59.609375 4.027344 61.039062 5.78125 Z M 61.039062 5.78125 "/>
</g>
<mask id="mask3">
  <g filter="url(#alpha)">
<rect x="0" y="0" width="105" height="90" style="fill:rgb(0%,0%,0%);fill-opacity:0.0627451;stroke:none;"/>
  </g>
</mask>
<clipPath id="clip4">
  <rect x="0" y="0" width="105" height="90"/>
</clipPath>
<g id="surface14" clip-path="url(#clip4)">
<path style=" stroke:none;fill-rule:evenodd;fill:rgb(14.509804%,16.862745%,22.745098%);fill-opacity:1;" d="M 81.640625 5.28125 C 82.253906 5.546875 82.839844 5.878906 83.398438 6.285156 C 83.867188 8.363281 84.535156 10.375 85.40625 12.320312 C 88.144531 14.191406 90.238281 16.621094 91.6875 19.609375 C 93.527344 19.371094 95.289062 19.117188 96.960938 18.855469 C 99.996094 20.554688 101.082031 23.070312 100.226562 26.398438 C 101.929688 27.839844 103.101562 29.597656 103.742188 31.675781 C 103.476562 32.554688 103.308594 33.476562 103.242188 34.441406 C 103.53125 35.226562 103.863281 35.980469 104.246094 36.703125 C 103.851562 37.363281 104.019531 37.949219 104.75 38.464844 C 104.75 38.800781 104.75 39.132812 104.75 39.46875 C 104.386719 40.332031 104.050781 41.253906 103.742188 42.234375 C 104.503906 48.367188 104.253906 54.484375 102.992188 60.585938 C 102.320312 61.257812 101.652344 61.925781 100.980469 62.597656 C 101.039062 65.46875 100.285156 68.066406 98.71875 70.390625 C 96.445312 71.359375 94.183594 71.277344 91.9375 70.140625 C 90.039062 72.542969 87.949219 74.804688 85.65625 76.925781 C 84.988281 77.09375 84.316406 77.261719 83.648438 77.429688 C 84.117188 80.316406 83.363281 82.914062 81.386719 85.222656 C 79.722656 86.890625 77.796875 88.148438 75.609375 88.996094 C 73.265625 89.328125 70.921875 89.328125 68.578125 88.996094 C 65.972656 88.082031 63.292969 87.496094 60.539062 87.234375 C 57.636719 88.09375 54.792969 88.929688 51.996094 89.75 C 50.492188 89.75 48.984375 89.75 47.476562 89.75 C 44.546875 89.300781 41.699219 88.378906 38.933594 86.984375 C 18.820312 85.917969 6.175781 75.609375 1.003906 56.0625 C 0.601562 53.640625 0.183594 51.292969 -0.25 49.023438 C -0.25 47.011719 -0.25 45 -0.25 42.988281 C 0.535156 34.183594 3.464844 26.136719 8.539062 18.855469 C 9.597656 17.539062 10.855469 16.53125 12.308594 15.839844 C 10.601562 17.742188 9.011719 19.753906 7.535156 21.871094 C -0.199219 35.28125 -1.203125 49.191406 4.523438 63.601562 C 11.304688 78.191406 22.777344 85.648438 38.933594 85.976562 C 45.972656 89.542969 53.089844 89.625 60.285156 86.230469 C 62.027344 86.589844 63.785156 86.839844 65.5625 86.984375 C 75.496094 90.476562 81.523438 87.039062 83.648438 76.675781 C 87.195312 74.96875 89.707031 72.289062 91.183594 68.632812 C 97.597656 71.859375 100.359375 69.847656 99.472656 62.597656 C 100.644531 62.09375 101.484375 61.257812 101.984375 60.082031 C 102.148438 57.4375 102.566406 54.839844 103.242188 52.289062 C 103.207031 47.757812 103.207031 43.234375 103.242188 38.714844 C 103.269531 37.28125 102.933594 35.9375 102.238281 34.691406 C 103.175781 31.640625 102.253906 29.378906 99.472656 27.90625 C 100.699219 20.570312 98.019531 18.390625 91.433594 21.367188 C 91.183594 21.199219 90.933594 21.035156 90.683594 20.867188 C 89.746094 17.484375 87.738281 14.96875 84.652344 13.324219 C 84.082031 10.453125 83.078125 7.769531 81.640625 5.28125 Z M 81.640625 5.28125 "/>
</g>
</defs>
<g id="surface1">
<use xlink:href="#surface5" mask="url(#mask0)"/>
<use xlink:href="#surface8" mask="url(#mask1)"/>
<path style=" stroke:none;fill-rule:evenodd;fill:rgb(90.980392%,90.196078%,86.666667%);fill-opacity:1;" d="M 43.457031 4.777344 C 45.523438 4.769531 47.363281 5.105469 48.984375 5.78125 C 47.40625 6.078125 45.898438 6.5 44.460938 7.039062 C 42.628906 7.289062 40.785156 7.375 38.933594 7.289062 C 38.40625 7.367188 37.90625 7.28125 37.429688 7.039062 C 39.195312 5.640625 41.203125 4.886719 43.457031 4.777344 Z M 43.457031 4.777344 "/>
<path style=" stroke:none;fill-rule:evenodd;fill:rgb(21.176471%,59.215686%,67.843137%);fill-opacity:1;" d="M 76.613281 4.273438 C 76.558594 4.585938 76.390625 4.835938 76.113281 5.027344 C 71.886719 5.804688 68.035156 7.398438 64.558594 9.804688 C 63.332031 8.980469 63.246094 7.976562 64.304688 6.789062 C 67.703125 2.472656 71.804688 1.632812 76.613281 4.273438 Z M 76.613281 4.273438 "/>
<use xlink:href="#surface11" mask="url(#mask2)"/>
<path style=" stroke:none;fill-rule:evenodd;fill:rgb(72.941176%,74.901961%,69.411765%);fill-opacity:1;" d="M 43.457031 4.777344 C 47.171875 4.054688 50.855469 4.386719 54.507812 5.78125 C 54.355469 6.109375 54.191406 6.445312 54.007812 6.789062 C 52.699219 7.199219 51.359375 7.449219 49.988281 7.542969 C 50.324219 7.710938 50.65625 7.878906 50.992188 8.042969 C 49.628906 9.125 48.371094 9.042969 47.226562 7.792969 C 45.171875 8.167969 43.078125 8.167969 40.945312 7.792969 C 40.140625 7.929688 39.472656 7.761719 38.933594 7.289062 C 40.785156 7.375 42.628906 7.289062 44.460938 7.039062 C 45.898438 6.5 47.40625 6.078125 48.984375 5.78125 C 47.363281 5.105469 45.523438 4.769531 43.457031 4.777344 Z M 43.457031 4.777344 "/>
<path style=" stroke:none;fill-rule:evenodd;fill:rgb(56.862745%,60.392157%,58.039216%);fill-opacity:1;" d="M 54.507812 5.78125 C 56.003906 6.699219 57.511719 7.621094 59.03125 8.546875 C 59.679688 9.195312 59.679688 9.785156 59.03125 10.308594 C 56.941406 8.800781 54.597656 8.046875 51.996094 8.042969 C 53.671875 8.714844 55.347656 9.386719 57.023438 10.054688 C 56.742188 10.25 56.574219 10.5 56.519531 10.808594 C 54.011719 11.171875 51.5 11.257812 48.984375 11.0625 C 46.203125 10.085938 43.523438 8.996094 40.945312 7.792969 C 43.078125 8.167969 45.171875 8.167969 47.226562 7.792969 C 48.371094 9.042969 49.628906 9.125 50.992188 8.042969 C 50.65625 7.878906 50.324219 7.710938 49.988281 7.542969 C 51.359375 7.449219 52.699219 7.199219 54.007812 6.789062 C 54.191406 6.445312 54.355469 6.109375 54.507812 5.78125 Z M 54.507812 5.78125 "/>
<path style=" stroke:none;fill-rule:evenodd;fill:rgb(13.72549%,28.235294%,37.647059%);fill-opacity:1;" d="M 76.613281 4.273438 C 79.039062 5.53125 80.210938 7.542969 80.132812 10.308594 C 78.292969 9.972656 76.453125 9.640625 74.605469 9.300781 C 72.285156 9.796875 69.941406 10.132812 67.570312 10.308594 C 66.46875 10.304688 65.464844 10.136719 64.558594 9.804688 C 68.035156 7.398438 71.886719 5.804688 76.113281 5.027344 C 76.390625 4.835938 76.558594 4.585938 76.613281 4.273438 Z M 76.613281 4.273438 "/>
<path style=" stroke:none;fill-rule:evenodd;fill:rgb(29.803922%,31.764706%,30.588235%);fill-opacity:1;" d="M 59.03125 10.308594 C 58.257812 10.710938 57.417969 10.878906 56.519531 10.808594 C 56.574219 10.5 56.742188 10.25 57.023438 10.054688 C 55.347656 9.386719 53.671875 8.714844 51.996094 8.042969 C 54.597656 8.046875 56.941406 8.800781 59.03125 10.308594 Z M 59.03125 10.308594 "/>
<path style=" stroke:none;fill-rule:evenodd;fill:rgb(80.392157%,84.313725%,82.352941%);fill-opacity:1;" d="M 40.441406 12.320312 C 29.726562 10.179688 20.933594 13.367188 14.066406 21.871094 C 12.894531 23.546875 11.722656 25.222656 10.550781 26.898438 C 10.917969 23.65625 12.425781 20.976562 15.070312 18.855469 C 15.578125 18.089844 15.828125 17.25 15.824219 16.339844 C 22.238281 10.585938 29.777344 8.320312 38.433594 9.554688 C 39.167969 10.445312 39.839844 11.367188 40.441406 12.320312 Z M 40.441406 12.320312 "/>
<path style=" stroke:none;fill-rule:evenodd;fill:rgb(28.235294%,57.647059%,69.019608%);fill-opacity:1;" d="M 51.496094 13.324219 C 55.183594 13.007812 58.28125 14.179688 60.789062 16.84375 C 61.039062 17.664062 61.121094 18.503906 61.039062 19.359375 C 59.28125 18.371094 57.4375 17.449219 55.515625 16.59375 C 54.226562 15.378906 52.886719 14.292969 51.496094 13.324219 Z M 51.496094 13.324219 "/>
<path style=" stroke:none;fill-rule:evenodd;fill:rgb(95.686275%,94.901961%,88.235294%);fill-opacity:1;" d="M 40.441406 12.320312 C 44.851562 13.601562 48.703125 15.78125 51.996094 18.855469 C 50.511719 18.441406 49.003906 18.105469 47.476562 17.847656 C 46.421875 17.289062 45.25 16.953125 43.960938 16.84375 C 39.410156 15.695312 35.226562 16.449219 31.398438 19.105469 C 33.789062 19.417969 36.132812 19.917969 38.433594 20.613281 C 40.523438 21.632812 42.53125 22.722656 44.460938 23.882812 C 49.488281 29.59375 52 36.296875 51.996094 43.996094 C 51.726562 48.183594 51.390625 52.375 50.992188 56.5625 C 50.203125 50.253906 48.359375 44.304688 45.464844 38.714844 C 44.992188 38.472656 44.488281 38.386719 43.960938 38.464844 C 45.628906 43.566406 47.054688 48.761719 48.230469 54.050781 C 48.566406 58.238281 48.566406 62.429688 48.230469 66.621094 C 47.8125 67.625 47.390625 68.632812 46.972656 69.636719 C 43.566406 63.519531 40.300781 57.320312 37.175781 51.035156 C 36.757812 50.53125 36.339844 50.027344 35.921875 49.523438 C 35.472656 49.019531 35.136719 49.019531 34.917969 49.523438 C 39.664062 58.253906 43.015625 67.472656 44.964844 77.179688 C 44.964844 77.347656 44.964844 77.515625 44.964844 77.679688 C 43.679688 77.15625 42.589844 76.320312 41.699219 75.167969 C 36.480469 68.414062 32.292969 61.039062 29.140625 53.042969 C 30.117188 59.210938 32.128906 65.074219 35.167969 70.640625 C 37.523438 74.082031 39.953125 77.433594 42.453125 80.699219 C 41.84375 81.066406 41.175781 81.234375 40.441406 81.199219 C 35.664062 80.066406 31.308594 77.972656 27.378906 74.917969 C 21.921875 69.949219 17.820312 64 15.070312 57.066406 C 17.558594 68.613281 24.175781 76.910156 34.917969 81.957031 C 34.441406 82.199219 33.9375 82.28125 33.410156 82.207031 C 24.761719 80.183594 18.148438 75.320312 13.566406 67.625 C 12.207031 64.933594 10.867188 62.253906 9.546875 59.582031 C 9.539062 63.378906 10.542969 66.898438 12.558594 70.140625 C 12.804688 70.789062 12.890625 71.460938 12.8125 72.152344 C 7.414062 66.199219 4.316406 59.160156 3.515625 51.035156 C 2.097656 39.949219 4.609375 29.894531 11.050781 20.867188 C 12.578125 19.253906 14.167969 17.746094 15.824219 16.339844 C 15.828125 17.25 15.578125 18.089844 15.070312 18.855469 C 12.425781 20.976562 10.917969 23.65625 10.550781 26.898438 C 11.722656 25.222656 12.894531 23.546875 14.066406 21.871094 C 20.933594 13.367188 29.726562 10.179688 40.441406 12.320312 Z M 40.441406 12.320312 "/>
<path style=" stroke:none;fill-rule:evenodd;fill:rgb(23.921569%,65.490196%,76.470588%);fill-opacity:1;" d="M 86.160156 17.847656 C 85.71875 21.90625 85.71875 25.929688 86.160156 29.917969 C 85.285156 31.375 84.78125 31.207031 84.652344 29.414062 C 85.148438 27.078125 85.230469 24.734375 84.90625 22.375 C 84.011719 20.976562 83.507812 21.144531 83.398438 22.878906 C 83.050781 22.253906 82.800781 22.253906 82.644531 22.878906 C 78.5 17.378906 72.972656 15.367188 66.066406 16.84375 C 63.171875 15.816406 60.492188 14.390625 58.027344 12.570312 C 64.222656 12.234375 70.417969 12.234375 76.613281 12.570312 C 80.425781 13.300781 83.609375 15.0625 86.160156 17.847656 Z M 86.160156 17.847656 "/>
<path style=" stroke:none;fill-rule:evenodd;fill:rgb(16.078431%,44.313725%,54.117647%);fill-opacity:1;" d="M 51.496094 13.324219 C 52.886719 14.292969 54.226562 15.378906 55.515625 16.59375 C 57.4375 17.449219 59.28125 18.371094 61.039062 19.359375 C 60.691406 24.59375 62.199219 29.203125 65.5625 33.183594 C 69.203125 35.441406 72.886719 35.527344 76.613281 33.4375 C 76.28125 33.9375 75.945312 34.441406 75.609375 34.945312 C 71.71875 36.820312 68.035156 36.316406 64.558594 33.4375 C 64.390625 33.601562 64.222656 33.769531 64.054688 33.9375 C 64.949219 35.675781 65.453125 37.519531 65.5625 39.46875 C 65.644531 43.828125 65.5625 48.1875 65.3125 52.542969 C 64.800781 53.546875 64.378906 54.554688 64.054688 55.558594 C 64.054688 53.882812 64.054688 52.207031 64.054688 50.53125 C 64.316406 40.589844 61.636719 31.539062 56.015625 23.378906 C 56.808594 22.980469 57.648438 22.726562 58.527344 22.625 C 56.207031 19.125 53.359375 16.109375 49.988281 13.574219 C 50.464844 13.332031 50.964844 13.25 51.496094 13.324219 Z M 51.496094 13.324219 "/>
<use xlink:href="#surface14" mask="url(#mask3)"/>
<path style=" stroke:none;fill-rule:evenodd;fill:rgb(75.294118%,81.176471%,76.862745%);fill-opacity:1;" d="M 33.410156 82.207031 C 32.90625 82.542969 32.40625 82.875 31.902344 83.210938 C 24.136719 81.78125 17.773438 78.09375 12.8125 72.152344 C 12.890625 71.460938 12.804688 70.789062 12.558594 70.140625 C 10.542969 66.898438 9.539062 63.378906 9.546875 59.582031 C 10.867188 62.253906 12.207031 64.933594 13.566406 67.625 C 18.148438 75.320312 24.761719 80.183594 33.410156 82.207031 Z M 33.410156 82.207031 "/>
<path style=" stroke:none;fill-rule:evenodd;fill:rgb(36.078431%,73.72549%,81.960784%);fill-opacity:1;" d="M 78.121094 54.554688 C 79.261719 55.945312 80.515625 57.289062 81.890625 58.574219 C 82.519531 62.078125 82.6875 65.597656 82.390625 69.132812 C 81.195312 70.527344 79.769531 71.617188 78.121094 72.402344 C 75.023438 73.671875 71.84375 74.679688 68.578125 75.417969 C 72.90625 76.625 77.09375 76.207031 81.136719 74.160156 C 82.152344 73.0625 83.074219 71.886719 83.898438 70.640625 C 84.148438 69.144531 84.234375 67.632812 84.152344 66.117188 C 84.5625 67.359375 84.8125 68.699219 84.90625 70.140625 C 85.464844 69.410156 85.800781 68.574219 85.910156 67.625 C 86.289062 68.539062 86.707031 69.375 87.164062 70.140625 C 84.878906 74.144531 81.359375 76.40625 76.613281 76.925781 C 72.429688 77.261719 68.242188 77.261719 64.054688 76.925781 C 62.4375 76.828125 60.929688 76.410156 59.535156 75.671875 C 60.085938 75.136719 60.757812 74.71875 61.542969 74.414062 C 65.148438 74.414062 68.664062 73.910156 72.09375 72.90625 C 71.3125 72.800781 70.640625 72.546875 70.082031 72.152344 C 74.289062 71.976562 77.46875 70.132812 79.628906 66.621094 C 80.027344 67.175781 80.277344 67.847656 80.382812 68.632812 C 80.550781 68.464844 80.71875 68.296875 80.886719 68.128906 C 81.21875 65.113281 81.21875 62.09375 80.886719 59.078125 C 79.617188 57.738281 78.695312 56.230469 78.121094 54.554688 Z M 78.121094 54.554688 "/>
<path style=" stroke:none;fill-rule:evenodd;fill:rgb(69.019608%,73.72549%,70.980392%);fill-opacity:1;" d="M 54.507812 35.949219 C 56.851562 40.46875 58.023438 45.328125 58.027344 50.53125 C 58.078125 62.203125 53.890625 72.007812 45.464844 79.945312 C 43.84375 81.007812 42.171875 81.925781 40.441406 82.710938 C 39.773438 82.207031 39.773438 81.703125 40.441406 81.199219 C 41.175781 81.234375 41.84375 81.066406 42.453125 80.699219 C 43.652344 80 44.492188 78.992188 44.964844 77.679688 C 44.964844 77.515625 44.964844 77.347656 44.964844 77.179688 C 49.175781 69.890625 51.6875 62.015625 52.5 53.546875 C 52.808594 53.601562 53.0625 53.769531 53.253906 54.050781 C 53.421875 50.699219 53.589844 47.347656 53.757812 43.996094 C 54.265625 44.601562 54.519531 44.433594 54.507812 43.492188 C 54.203125 41.890625 53.867188 40.300781 53.503906 38.714844 C 53.578125 38.328125 53.746094 37.992188 54.007812 37.710938 C 53.054688 36.800781 52.804688 35.710938 53.253906 34.441406 C 53.589844 35.113281 53.921875 35.78125 54.257812 36.453125 C 54.457031 36.335938 54.542969 36.171875 54.507812 35.949219 Z M 54.507812 35.949219 "/>
<path style=" stroke:none;fill-rule:evenodd;fill:rgb(14.509804%,38.039216%,46.666667%);fill-opacity:1;" d="M 64.054688 50.53125 C 64.054688 52.207031 64.054688 53.882812 64.054688 55.558594 C 63.125 57.238281 63.457031 57.738281 65.058594 57.066406 C 62.878906 60.601562 61.707031 64.457031 61.542969 68.632812 C 60.78125 68.636719 60.195312 68.972656 59.785156 69.636719 C 58.839844 71.527344 57.917969 73.371094 57.023438 75.167969 C 55.964844 75.316406 54.960938 75.152344 54.007812 74.664062 C 58.605469 67.234375 61.28125 59.1875 62.046875 50.53125 C 62.714844 50.53125 63.386719 50.53125 64.054688 50.53125 Z M 64.054688 50.53125 "/>
<path style=" stroke:none;fill-rule:evenodd;fill:rgb(84.313725%,78.039216%,74.117647%);fill-opacity:1;" d="M 89.675781 63.101562 C 92.09375 63.789062 94.4375 64.625 96.710938 65.613281 C 96.710938 66.285156 96.710938 66.957031 96.710938 67.625 C 96.15625 68.179688 95.488281 68.261719 94.699219 67.878906 C 93.234375 67.109375 91.726562 66.4375 90.179688 65.867188 C 89.722656 65.011719 89.558594 64.089844 89.675781 63.101562 Z M 89.675781 63.101562 "/>
<path style=" stroke:none;fill-rule:evenodd;fill:rgb(73.72549%,66.27451%,60%);fill-opacity:1;" d="M 96.710938 67.625 C 96.710938 66.957031 96.710938 66.285156 96.710938 65.613281 C 94.4375 64.625 92.09375 63.789062 89.675781 63.101562 C 89.734375 62.789062 89.898438 62.539062 90.179688 62.347656 C 92.519531 62.09375 94.863281 62.011719 97.214844 62.09375 C 97.371094 64.042969 97.203125 65.886719 96.710938 67.625 Z M 96.710938 67.625 "/>
<path style=" stroke:none;fill-rule:evenodd;fill:rgb(83.529412%,76.862745%,73.333333%);fill-opacity:1;" d="M 91.6875 56.5625 C 95.046875 55.976562 95.886719 57.066406 94.199219 59.832031 C 93.207031 60.082031 92.203125 60.164062 91.183594 60.082031 C 91.433594 58.925781 91.597656 57.75 91.6875 56.5625 Z M 91.6875 56.5625 "/>
<path style=" stroke:none;fill-rule:evenodd;fill:rgb(79.607843%,73.333333%,70.196078%);fill-opacity:1;" d="M 96.710938 56.5625 C 97.882812 56.5625 99.054688 56.5625 100.226562 56.5625 C 100.355469 57.714844 100.1875 58.804688 99.726562 59.832031 C 98.394531 60.082031 97.054688 60.167969 95.707031 60.082031 C 95.539062 58.730469 95.871094 57.558594 96.710938 56.5625 Z M 96.710938 56.5625 "/>
<path style=" stroke:none;fill-rule:evenodd;fill:rgb(0%,0.784314%,1.568627%);fill-opacity:1;" d="M 72.59375 54.050781 C 79.109375 55.746094 81.453125 59.933594 79.628906 66.621094 C 77.46875 70.132812 74.289062 71.976562 70.082031 72.152344 C 67.382812 72.316406 64.703125 72.148438 62.046875 71.648438 C 61.621094 70.6875 61.453125 69.683594 61.542969 68.632812 C 61.707031 64.457031 62.878906 60.601562 65.058594 57.066406 C 66.820312 54.34375 69.335938 53.339844 72.59375 54.050781 Z M 72.59375 54.050781 "/>
<path style=" stroke:none;fill-rule:evenodd;fill:rgb(11.764706%,52.54902%,62.745098%);fill-opacity:1;" d="M 65.5625 39.46875 C 65.960938 40.027344 66.210938 40.695312 66.316406 41.480469 C 66.566406 45.5 66.648438 49.523438 66.566406 53.546875 C 68.679688 53.386719 70.6875 53.554688 72.59375 54.050781 C 69.335938 53.339844 66.820312 54.34375 65.058594 57.066406 C 63.457031 57.738281 63.125 57.238281 64.054688 55.558594 C 64.378906 54.554688 64.800781 53.546875 65.3125 52.542969 C 65.5625 48.1875 65.644531 43.828125 65.5625 39.46875 Z M 65.5625 39.46875 "/>
<path style=" stroke:none;fill-rule:evenodd;fill:rgb(25.490196%,70.588235%,80.392157%);fill-opacity:1;" d="M 86.664062 43.996094 C 87.492188 44.707031 88.414062 45.378906 89.425781 46.003906 C 89.707031 47.195312 89.625 48.367188 89.175781 49.523438 C 89.671875 51.175781 90.003906 52.851562 90.179688 54.554688 C 89.089844 54.359375 88.253906 54.695312 87.667969 55.558594 C 88.445312 56.039062 89.28125 56.203125 90.179688 56.0625 C 90.546875 59.21875 89.207031 60.726562 86.160156 60.585938 C 86.828125 63.089844 87.496094 65.605469 88.167969 68.128906 C 88.085938 68.96875 87.75 69.640625 87.164062 70.140625 C 86.707031 69.375 86.289062 68.539062 85.910156 67.625 C 85.800781 68.574219 85.464844 69.410156 84.90625 70.140625 C 84.8125 68.699219 84.5625 67.359375 84.152344 66.117188 C 83.886719 62.433594 83.636719 58.746094 83.398438 55.054688 C 81.585938 52.738281 79.578125 50.558594 77.367188 48.519531 C 76.972656 47.894531 76.71875 47.222656 76.613281 46.507812 C 78.519531 48.664062 80.777344 50.339844 83.398438 51.535156 C 87.136719 50.230469 87.554688 48.304688 84.652344 45.753906 C 85.003906 44.820312 85.675781 44.234375 86.664062 43.996094 Z M 86.664062 43.996094 "/>
<path style=" stroke:none;fill-rule:evenodd;fill:rgb(11.372549%,64.313725%,75.686275%);fill-opacity:1;" d="M 75.609375 34.945312 C 76.613281 34.609375 77.621094 34.273438 78.625 33.9375 C 76.785156 35.867188 75.023438 37.875 73.347656 39.972656 C 73.101562 40.792969 73.019531 41.632812 73.097656 42.484375 C 72.507812 46.246094 73.515625 49.429688 76.113281 52.039062 C 76.796875 52.890625 77.46875 53.726562 78.121094 54.554688 C 78.695312 56.230469 79.617188 57.738281 80.886719 59.078125 C 81.21875 62.09375 81.21875 65.113281 80.886719 68.128906 C 80.71875 68.296875 80.550781 68.464844 80.382812 68.632812 C 80.277344 67.847656 80.027344 67.175781 79.628906 66.621094 C 81.453125 59.933594 79.109375 55.746094 72.59375 54.050781 C 70.6875 53.554688 68.679688 53.386719 66.566406 53.546875 C 66.648438 49.523438 66.566406 45.5 66.316406 41.480469 C 66.210938 40.695312 65.960938 40.027344 65.5625 39.46875 C 65.453125 37.519531 64.949219 35.675781 64.054688 33.9375 C 64.222656 33.769531 64.390625 33.601562 64.558594 33.4375 C 68.035156 36.316406 71.71875 36.820312 75.609375 34.945312 Z M 75.609375 34.945312 "/>
<path style=" stroke:none;fill-rule:evenodd;fill:rgb(86.666667%,81.568627%,80%);fill-opacity:1;" d="M 93.195312 49.523438 C 97.515625 48.878906 98.6875 50.472656 96.710938 54.300781 C 95.382812 54.550781 94.042969 54.636719 92.691406 54.554688 C 92.566406 52.824219 92.734375 51.148438 93.195312 49.523438 Z M 93.195312 49.523438 "/>
<path style=" stroke:none;fill-rule:evenodd;fill:rgb(83.529412%,80%,78.039216%);fill-opacity:1;" d="M 98.71875 49.523438 C 100.390625 49.355469 101.230469 50.109375 101.230469 51.789062 C 101.246094 53.867188 100.242188 54.789062 98.21875 54.554688 C 98.09375 52.824219 98.261719 51.148438 98.71875 49.523438 Z M 98.71875 49.523438 "/>
<path style=" stroke:none;fill-rule:evenodd;fill:rgb(84.313725%,88.627451%,83.921569%);fill-opacity:1;" d="M 51.996094 43.996094 C 52.496094 47.082031 52.664062 50.269531 52.5 53.546875 C 51.6875 62.015625 49.175781 69.890625 44.964844 77.179688 C 43.015625 67.472656 39.664062 58.253906 34.917969 49.523438 C 35.136719 49.019531 35.472656 49.019531 35.921875 49.523438 C 36.339844 50.027344 36.757812 50.53125 37.175781 51.035156 C 40.300781 57.320312 43.566406 63.519531 46.972656 69.636719 C 47.390625 68.632812 47.8125 67.625 48.230469 66.621094 C 48.566406 62.429688 48.566406 58.238281 48.230469 54.050781 C 47.054688 48.761719 45.628906 43.566406 43.960938 38.464844 C 44.488281 38.386719 44.992188 38.472656 45.464844 38.714844 C 48.359375 44.304688 50.203125 50.253906 50.992188 56.5625 C 51.390625 52.375 51.726562 48.183594 51.996094 43.996094 Z M 51.996094 43.996094 "/>
<path style=" stroke:none;fill-rule:evenodd;fill:rgb(81.960784%,77.647059%,74.509804%);fill-opacity:1;" d="M 98.71875 42.484375 C 99.699219 42.347656 100.453125 42.683594 100.980469 43.492188 C 101.316406 44.664062 101.316406 45.839844 100.980469 47.011719 C 100.320312 48.097656 99.484375 48.261719 98.46875 47.515625 C 98.136719 45.808594 98.222656 44.132812 98.71875 42.484375 Z M 98.71875 42.484375 "/>
<path style=" stroke:none;fill-rule:evenodd;fill:rgb(88.627451%,83.137255%,80%);fill-opacity:1;" d="M 92.691406 42.484375 C 97.542969 41.402344 99.050781 43.160156 97.214844 47.765625 C 95.714844 48.015625 94.207031 48.097656 92.691406 48.015625 C 92.691406 46.171875 92.691406 44.328125 92.691406 42.484375 Z M 92.691406 42.484375 "/>
<path style=" stroke:none;fill-rule:evenodd;fill:rgb(12.156863%,54.901961%,67.058824%);fill-opacity:1;" d="M 90.179688 34.441406 C 90.847656 41.144531 90.847656 47.847656 90.179688 54.554688 C 90.003906 52.851562 89.671875 51.175781 89.175781 49.523438 C 89.625 48.367188 89.707031 47.195312 89.425781 46.003906 C 88.414062 45.378906 87.492188 44.707031 86.664062 43.996094 C 87.195312 43.191406 87.195312 42.351562 86.664062 41.480469 C 87.261719 41.242188 87.597656 40.742188 87.667969 39.972656 C 88 38.480469 88.167969 36.972656 88.167969 35.445312 C 88.566406 34.640625 89.234375 34.304688 90.179688 34.441406 Z M 90.179688 34.441406 "/>
<path style=" stroke:none;fill-rule:evenodd;fill:rgb(1.960784%,4.313725%,5.098039%);fill-opacity:1;" d="M 82.644531 39.972656 C 83.902344 40.671875 85.242188 41.175781 86.664062 41.480469 C 87.195312 42.351562 87.195312 43.191406 86.664062 43.996094 C 85.675781 44.234375 85.003906 44.820312 84.652344 45.753906 C 87.554688 48.304688 87.136719 50.230469 83.398438 51.535156 C 80.777344 50.339844 78.519531 48.664062 76.613281 46.507812 C 76.613281 46.003906 76.613281 45.503906 76.613281 45 C 77.238281 43.777344 77.824219 43.777344 78.375 45 C 79.015625 42.601562 80.441406 40.925781 82.644531 39.972656 Z M 82.644531 39.972656 "/>
<path style=" stroke:none;fill-rule:evenodd;fill:rgb(48.627451%,49.019608%,48.235294%);fill-opacity:1;" d="M 60.035156 37.457031 C 61.226562 40.316406 61.8125 43.332031 61.792969 46.507812 C 61.121094 43.730469 60.199219 41.050781 59.03125 38.464844 C 59.699219 38.464844 60.035156 38.128906 60.035156 37.457031 Z M 60.035156 37.457031 "/>
<path style=" stroke:none;fill-rule:evenodd;fill:rgb(84.313725%,80.784314%,77.647059%);fill-opacity:1;" d="M 98.21875 35.949219 C 100.976562 35.953125 101.894531 37.292969 100.980469 39.972656 C 100.144531 41.3125 99.304688 41.3125 98.46875 39.972656 C 98.21875 38.640625 98.136719 37.300781 98.21875 35.949219 Z M 98.21875 35.949219 "/>
<path style=" stroke:none;fill-rule:evenodd;fill:rgb(82.745098%,77.254902%,72.941176%);fill-opacity:1;" d="M 93.195312 35.445312 C 97.320312 34.882812 98.660156 36.558594 97.214844 40.476562 C 95.769531 41.121094 94.347656 41.121094 92.941406 40.476562 C 92.566406 38.753906 92.652344 37.078125 93.195312 35.445312 Z M 93.195312 35.445312 "/>
<path style=" stroke:none;fill-rule:evenodd;fill:rgb(40.784314%,80.392157%,88.235294%);fill-opacity:1;" d="M 82.644531 39.972656 C 80.441406 40.925781 79.015625 42.601562 78.375 45 C 77.824219 43.777344 77.238281 43.777344 76.613281 45 C 76.21875 45.558594 75.964844 46.226562 75.859375 47.011719 C 75.1875 46.304688 74.769531 46.472656 74.605469 47.515625 C 75.210938 48.996094 75.710938 50.503906 76.113281 52.039062 C 73.515625 49.429688 72.507812 46.246094 73.097656 42.484375 C 74.628906 40.027344 76.472656 37.765625 78.625 35.699219 C 79.445312 35.449219 80.28125 35.367188 81.136719 35.445312 C 81.136719 36.789062 81.136719 38.128906 81.136719 39.46875 C 81.785156 39.351562 82.289062 39.515625 82.644531 39.972656 Z M 82.644531 39.972656 "/>
<path style=" stroke:none;fill-rule:evenodd;fill:rgb(21.568627%,69.803922%,81.176471%);fill-opacity:1;" d="M 86.160156 29.917969 C 86.160156 30.25 86.328125 30.417969 86.664062 30.417969 C 88.542969 29.964844 89.546875 30.636719 89.675781 32.429688 C 89.042969 33.402344 88.203125 34.238281 87.164062 34.945312 C 87.394531 35.34375 87.730469 35.511719 88.167969 35.445312 C 88.167969 36.972656 88 38.480469 87.667969 39.972656 C 87.597656 40.742188 87.261719 41.242188 86.664062 41.480469 C 85.242188 41.175781 83.902344 40.671875 82.644531 39.972656 C 82.289062 39.515625 81.785156 39.351562 81.136719 39.46875 C 81.136719 38.128906 81.136719 36.789062 81.136719 35.445312 C 80.28125 35.367188 79.445312 35.449219 78.625 35.699219 C 76.472656 37.765625 74.628906 40.027344 73.097656 42.484375 C 73.019531 41.632812 73.101562 40.792969 73.347656 39.972656 C 75.023438 37.875 76.785156 35.867188 78.625 33.9375 C 81.371094 30.78125 82.710938 27.09375 82.644531 22.878906 C 82.800781 22.253906 83.050781 22.253906 83.398438 22.878906 C 83.507812 21.144531 84.011719 20.976562 84.90625 22.375 C 85.230469 24.734375 85.148438 27.078125 84.652344 29.414062 C 84.78125 31.207031 85.285156 31.375 86.160156 29.917969 Z M 86.160156 29.917969 "/>
<path style=" stroke:none;fill-rule:evenodd;fill:rgb(66.666667%,69.803922%,67.058824%);fill-opacity:1;" d="M 52.5 23.882812 C 56.433594 27.566406 58.945312 32.089844 60.035156 37.457031 C 60.035156 38.128906 59.699219 38.464844 59.03125 38.464844 C 56.746094 34.414062 53.8125 30.894531 50.238281 27.90625 C 50.039062 28.019531 49.957031 28.1875 49.988281 28.40625 C 49.191406 28.15625 48.941406 27.652344 49.234375 26.898438 C 49.917969 27.28125 50.507812 27.03125 50.992188 26.144531 C 50.160156 24.5625 50.660156 23.808594 52.5 23.882812 Z M 52.5 23.882812 "/>
<path style=" stroke:none;fill-rule:evenodd;fill:rgb(74.117647%,79.607843%,74.901961%);fill-opacity:1;" d="M 43.960938 16.84375 C 45.25 16.953125 46.421875 17.289062 47.476562 17.847656 C 47.65625 19.21875 48.492188 20.390625 49.988281 21.367188 C 50.992188 22.039062 51.832031 22.878906 52.5 23.882812 C 50.660156 23.808594 50.160156 24.5625 50.992188 26.144531 C 50.507812 27.03125 49.917969 27.28125 49.234375 26.898438 C 48.941406 27.652344 49.191406 28.15625 49.988281 28.40625 C 51.878906 30.6875 53.386719 33.199219 54.507812 35.949219 C 54.542969 36.171875 54.457031 36.335938 54.257812 36.453125 C 53.921875 35.78125 53.589844 35.113281 53.253906 34.441406 C 52.804688 35.710938 53.054688 36.800781 54.007812 37.710938 C 53.746094 37.992188 53.578125 38.328125 53.503906 38.714844 C 53.867188 40.300781 54.203125 41.890625 54.507812 43.492188 C 54.519531 44.433594 54.265625 44.601562 53.757812 43.996094 C 53.589844 47.347656 53.421875 50.699219 53.253906 54.050781 C 53.0625 53.769531 52.808594 53.601562 52.5 53.546875 C 52.664062 50.269531 52.496094 47.082031 51.996094 43.996094 C 52 36.296875 49.488281 29.59375 44.460938 23.882812 C 44.460938 23.378906 44.460938 22.878906 44.460938 22.375 C 45.632812 22.375 46.804688 22.375 47.976562 22.375 C 48.0625 21.710938 47.894531 21.121094 47.476562 20.613281 C 45.058594 20.429688 43.886719 19.171875 43.960938 16.84375 Z M 43.960938 16.84375 "/>
<path style=" stroke:none;fill-rule:evenodd;fill:rgb(7.843137%,21.960784%,29.411765%);fill-opacity:1;" d="M 89.675781 32.429688 C 90.144531 32.96875 90.3125 33.636719 90.179688 34.441406 C 89.234375 34.304688 88.566406 34.640625 88.167969 35.445312 C 87.730469 35.511719 87.394531 35.34375 87.164062 34.945312 C 88.203125 34.238281 89.042969 33.402344 89.675781 32.429688 Z M 89.675781 32.429688 "/>
<path style=" stroke:none;fill-rule:evenodd;fill:rgb(82.352941%,74.901961%,71.372549%);fill-opacity:1;" d="M 96.207031 30.417969 C 99.4375 29.546875 100.777344 30.71875 100.226562 33.9375 C 97.21875 34.558594 95.878906 33.382812 96.207031 30.417969 Z M 96.207031 30.417969 "/>
<path style=" stroke:none;fill-rule:evenodd;fill:rgb(85.490196%,78.823529%,74.509804%);fill-opacity:1;" d="M 91.183594 30.417969 C 92.523438 30.417969 93.863281 30.417969 95.203125 30.417969 C 95.203125 31.59375 95.203125 32.765625 95.203125 33.9375 C 94.03125 33.9375 92.859375 33.9375 91.6875 33.9375 C 91.597656 32.75 91.433594 31.578125 91.183594 30.417969 Z M 91.183594 30.417969 "/>
<path style=" stroke:none;fill-rule:evenodd;fill:rgb(16.078431%,51.764706%,63.137255%);fill-opacity:1;" d="M 66.066406 16.84375 C 72.972656 15.367188 78.5 17.378906 82.644531 22.878906 C 82.710938 27.09375 81.371094 30.78125 78.625 33.9375 C 77.621094 34.273438 76.613281 34.609375 75.609375 34.945312 C 75.945312 34.441406 76.28125 33.9375 76.613281 33.4375 C 80.621094 28.839844 80.621094 24.234375 76.613281 19.609375 C 73.253906 17.84375 69.738281 16.921875 66.066406 16.84375 Z M 66.066406 16.84375 "/>
<path style=" stroke:none;fill-rule:evenodd;fill:rgb(56.862745%,47.843137%,41.176471%);fill-opacity:1;" d="M 90.179688 24.886719 C 90.179688 25.390625 90.179688 25.894531 90.179688 26.398438 C 92.34375 26.105469 94.523438 25.9375 96.710938 25.894531 C 96.710938 26.5625 96.710938 27.234375 96.710938 27.90625 C 94.367188 27.90625 92.023438 27.90625 89.675781 27.90625 C 89.527344 26.78125 89.695312 25.777344 90.179688 24.886719 Z M 90.179688 24.886719 "/>
<path style=" stroke:none;fill-rule:evenodd;fill:rgb(82.352941%,76.078431%,70.588235%);fill-opacity:1;" d="M 96.710938 25.894531 C 94.523438 25.9375 92.34375 26.105469 90.179688 26.398438 C 90.179688 25.894531 90.179688 25.390625 90.179688 24.886719 C 91.882812 22.949219 94.058594 21.941406 96.710938 21.871094 C 96.710938 23.210938 96.710938 24.554688 96.710938 25.894531 Z M 96.710938 25.894531 "/>
<path style=" stroke:none;fill-rule:evenodd;fill:rgb(10.196078%,40%,48.627451%);fill-opacity:1;" d="M 86.160156 17.847656 C 87.152344 19.082031 87.820312 20.507812 88.167969 22.121094 C 87.066406 24.773438 86.566406 27.539062 86.664062 30.417969 C 86.328125 30.417969 86.160156 30.25 86.160156 29.917969 C 85.71875 25.929688 85.71875 21.90625 86.160156 17.847656 Z M 86.160156 17.847656 "/>
<path style=" stroke:none;fill-rule:evenodd;fill:rgb(58.431373%,64.313725%,59.607843%);fill-opacity:1;" d="M 47.476562 17.847656 C 49.003906 18.105469 50.511719 18.441406 51.996094 18.855469 C 52.921875 19.695312 53.925781 20.449219 55.011719 21.117188 C 53.25 20.996094 51.574219 21.082031 49.988281 21.367188 C 48.492188 20.390625 47.65625 19.21875 47.476562 17.847656 Z M 47.476562 17.847656 "/>
<path style=" stroke:none;fill-rule:evenodd;fill:rgb(81.960784%,86.666667%,81.960784%);fill-opacity:1;" d="M 43.960938 16.84375 C 43.886719 19.171875 45.058594 20.429688 47.476562 20.613281 C 47.894531 21.121094 48.0625 21.710938 47.976562 22.375 C 46.804688 22.375 45.632812 22.375 44.460938 22.375 C 44.460938 22.878906 44.460938 23.378906 44.460938 23.882812 C 42.53125 22.722656 40.523438 21.632812 38.433594 20.613281 C 36.132812 19.917969 33.789062 19.417969 31.398438 19.105469 C 35.226562 16.449219 39.410156 15.695312 43.960938 16.84375 Z M 43.960938 16.84375 "/>
<path style=" stroke:none;fill-rule:evenodd;fill:rgb(83.529412%,87.058824%,83.137255%);fill-opacity:1;" d="M 44.964844 77.679688 C 44.492188 78.992188 43.652344 80 42.453125 80.699219 C 39.953125 77.433594 37.523438 74.082031 35.167969 70.640625 C 32.128906 65.074219 30.117188 59.210938 29.140625 53.042969 C 32.292969 61.039062 36.480469 68.414062 41.699219 75.167969 C 42.589844 76.320312 43.679688 77.15625 44.964844 77.679688 Z M 44.964844 77.679688 "/>
<path style=" stroke:none;fill-rule:evenodd;fill:rgb(23.137255%,65.490196%,75.294118%);fill-opacity:1;" d="M 61.542969 68.632812 C 61.453125 69.683594 61.621094 70.6875 62.046875 71.648438 C 64.703125 72.148438 67.382812 72.316406 70.082031 72.152344 C 70.640625 72.546875 71.3125 72.800781 72.09375 72.90625 C 68.664062 73.910156 65.148438 74.414062 61.542969 74.414062 C 60.757812 74.71875 60.085938 75.136719 59.535156 75.671875 C 58.722656 75.398438 57.882812 75.234375 57.023438 75.167969 C 57.917969 73.371094 58.839844 71.527344 59.785156 69.636719 C 60.195312 68.972656 60.78125 68.636719 61.542969 68.632812 Z M 61.542969 68.632812 "/>
<path style=" stroke:none;fill-rule:evenodd;fill:rgb(69.019608%,90.588235%,94.901961%);fill-opacity:1;" d="M 76.613281 45 C 76.613281 45.503906 76.613281 46.003906 76.613281 46.507812 C 76.71875 47.222656 76.972656 47.894531 77.367188 48.519531 C 79.578125 50.558594 81.585938 52.738281 83.398438 55.054688 C 83.636719 58.746094 83.886719 62.433594 84.152344 66.117188 C 84.234375 67.632812 84.148438 69.144531 83.898438 70.640625 C 83.074219 71.886719 82.152344 73.0625 81.136719 74.160156 C 77.09375 76.207031 72.90625 76.625 68.578125 75.417969 C 71.84375 74.679688 75.023438 73.671875 78.121094 72.402344 C 79.769531 71.617188 81.195312 70.527344 82.390625 69.132812 C 82.6875 65.597656 82.519531 62.078125 81.890625 58.574219 C 80.515625 57.289062 79.261719 55.945312 78.121094 54.554688 C 77.46875 53.726562 76.796875 52.890625 76.113281 52.039062 C 75.710938 50.503906 75.210938 48.996094 74.605469 47.515625 C 74.769531 46.472656 75.1875 46.304688 75.859375 47.011719 C 75.964844 46.226562 76.21875 45.558594 76.613281 45 Z M 76.613281 45 "/>
<path style=" stroke:none;fill-rule:evenodd;fill:rgb(82.745098%,85.882353%,81.568627%);fill-opacity:1;" d="M 40.441406 81.199219 C 39.773438 81.703125 39.773438 82.207031 40.441406 82.710938 C 37.65625 83.777344 34.808594 83.941406 31.902344 83.210938 C 32.40625 82.875 32.90625 82.542969 33.410156 82.207031 C 33.9375 82.28125 34.441406 82.199219 34.917969 81.957031 C 24.175781 76.910156 17.558594 68.613281 15.070312 57.066406 C 17.820312 64 21.921875 69.949219 27.378906 74.917969 C 31.308594 77.972656 35.664062 80.066406 40.441406 81.199219 Z M 40.441406 81.199219 "/>
<path style=" stroke:none;fill-rule:evenodd;fill:rgb(57.254902%,59.215686%,56.078431%);fill-opacity:1;" d="M 60.035156 81.703125 C 58.246094 81.59375 56.488281 81.761719 54.761719 82.207031 C 53.851562 81.917969 52.929688 81.664062 51.996094 81.453125 C 53.0625 81.402344 53.898438 80.984375 54.507812 80.195312 C 52.613281 79.871094 50.773438 80.203125 48.984375 81.199219 C 48.679688 81.140625 48.511719 80.972656 48.480469 80.699219 C 51.121094 78.042969 54.300781 77.121094 58.027344 77.933594 C 57.1875 78.769531 56.351562 79.609375 55.515625 80.445312 C 57.214844 80.535156 58.886719 80.785156 60.539062 81.199219 C 60.476562 81.507812 60.308594 81.671875 60.035156 81.703125 Z M 60.035156 81.703125 "/>
<path style=" stroke:none;fill-rule:evenodd;fill:rgb(17.647059%,42.352941%,53.72549%);fill-opacity:1;" d="M 79.628906 81.199219 C 79.628906 80.53125 79.292969 80.195312 78.625 80.195312 C 78.296875 80.042969 77.960938 79.875 77.621094 79.691406 C 75.050781 81.527344 72.203125 82.113281 69.078125 81.453125 C 68.414062 81.042969 68.078125 80.457031 68.074219 79.691406 C 72.03125 79.929688 75.878906 79.425781 79.628906 78.183594 C 80.277344 79.257812 80.277344 80.265625 79.628906 81.199219 Z M 79.628906 81.199219 "/>
<path style=" stroke:none;fill-rule:evenodd;fill:rgb(18.823529%,52.941176%,63.529412%);fill-opacity:1;" d="M 65.058594 79.691406 C 66.066406 79.691406 67.070312 79.691406 68.074219 79.691406 C 68.078125 80.457031 68.414062 81.042969 69.078125 81.453125 C 72.203125 82.113281 75.050781 81.527344 77.621094 79.691406 C 77.960938 79.875 78.296875 80.042969 78.625 80.195312 C 75.863281 83.496094 72.34375 84.585938 68.074219 83.464844 C 66.757812 82.40625 65.753906 81.148438 65.058594 79.691406 Z M 65.058594 79.691406 "/>
<path style=" stroke:none;fill-rule:evenodd;fill:rgb(74.509804%,75.294118%,71.372549%);fill-opacity:1;" d="M 60.035156 81.703125 C 58.476562 84.078125 56.300781 85.585938 53.503906 86.230469 C 52.378906 85.132812 52.542969 84.042969 54.007812 82.960938 C 51.699219 82.261719 49.355469 82.09375 46.972656 82.457031 C 45.472656 83.792969 43.796875 84.714844 41.949219 85.222656 C 41.675781 85.191406 41.507812 85.027344 41.449219 84.71875 C 43.800781 83.375 46.144531 82.035156 48.480469 80.699219 C 48.511719 80.972656 48.679688 81.140625 48.984375 81.199219 C 50.773438 80.203125 52.613281 79.871094 54.507812 80.195312 C 53.898438 80.984375 53.0625 81.402344 51.996094 81.453125 C 52.929688 81.664062 53.851562 81.917969 54.761719 82.207031 C 56.488281 81.761719 58.246094 81.59375 60.035156 81.703125 Z M 60.035156 81.703125 "/>
<path style=" stroke:none;fill-rule:evenodd;fill:rgb(91.372549%,90.196078%,85.490196%);fill-opacity:1;" d="M 53.503906 86.230469 C 49.519531 87.121094 45.667969 86.785156 41.949219 85.222656 C 43.796875 84.714844 45.472656 83.792969 46.972656 82.457031 C 49.355469 82.09375 51.699219 82.261719 54.007812 82.960938 C 52.542969 84.042969 52.378906 85.132812 53.503906 86.230469 Z M 53.503906 86.230469 "/>
<path style=" stroke:none;fill-rule:evenodd;fill:rgb(67.843137%,82.745098%,87.058824%);fill-opacity:1;" d="M 65.058594 79.691406 C 65.753906 81.148438 66.757812 82.40625 68.074219 83.464844 C 72.34375 84.585938 75.863281 83.496094 78.625 80.195312 C 79.292969 80.195312 79.628906 80.53125 79.628906 81.199219 C 79.113281 83.144531 77.941406 84.566406 76.113281 85.476562 C 71.8125 87.070312 68.042969 86.316406 64.808594 83.210938 C 63.785156 81.820312 63.867188 80.648438 65.058594 79.691406 Z M 65.058594 79.691406 "/>
</g>
</svg>
