<?xml version="1.0" encoding="UTF-8"?>
<svg xmlns="http://www.w3.org/2000/svg" xmlns:xlink="http://www.w3.org/1999/xlink" width="px" height="px" viewBox="0 0 103 104" version="1.1">
<defs>
<filter id="alpha" filterUnits="objectBoundingBox" x="0%" y="0%" width="100%" height="100%">
  <feColorMatrix type="matrix" in="SourceGraphic" values="0 0 0 0 1 0 0 0 0 1 0 0 0 0 1 0 0 0 1 0"/>
</filter>
<mask id="mask0">
  <g filter="url(#alpha)">
<rect x="0" y="0" width="103" height="104" style="fill:rgb(0%,0%,0%);fill-opacity:0.992157;stroke:none;"/>
  </g>
</mask>
<clipPath id="clip1">
  <rect x="0" y="0" width="103" height="104"/>
</clipPath>
<g id="surface5" clip-path="url(#clip1)">
<path style=" stroke:none;fill-rule:evenodd;fill:rgb(3.529412%,1.960784%,2.352941%);fill-opacity:1;" d="M 50.496094 6.28125 C 50.664062 6.28125 50.832031 6.28125 50.996094 6.28125 C 54.1875 7.375 56.867188 9.214844 59.035156 11.808594 C 63.714844 8.230469 68.738281 7.8125 74.109375 10.550781 C 76.828125 12.890625 78.589844 15.820312 79.386719 19.34375 C 81.753906 20.957031 83.679688 22.964844 85.164062 25.371094 C 84.421875 27.246094 84.003906 29.257812 83.90625 31.402344 C 83.714844 31.679688 83.464844 31.847656 83.152344 31.902344 C 84.132812 26.503906 81.953125 22.988281 76.621094 21.351562 C 66.425781 20.105469 56.210938 20.019531 45.972656 21.101562 C 44.972656 21.289062 44.136719 21.707031 43.460938 22.359375 C 38.238281 24.984375 33.714844 28.582031 29.894531 33.160156 C 30.273438 33.496094 30.441406 33.914062 30.398438 34.414062 C 30.480469 38.605469 30.398438 42.792969 30.144531 46.976562 C 29.8125 47.644531 29.476562 48.316406 29.140625 48.984375 C 29.03125 44.113281 28.78125 39.257812 28.386719 34.414062 C 28.226562 33.839844 27.894531 33.421875 27.382812 33.160156 C 24.6875 33.070312 22.34375 32.152344 20.347656 30.394531 C 20.601562 30.230469 20.851562 30.0625 21.101562 29.894531 C 21.734375 30.476562 22.320312 30.476562 22.859375 29.894531 C 25.074219 30.644531 27.25 30.558594 29.394531 29.640625 C 32.15625 27.214844 34.917969 24.785156 37.683594 22.359375 C 38.941406 21.183594 39.191406 19.847656 38.4375 18.339844 C 38.726562 17.414062 38.640625 16.40625 38.183594 15.324219 C 36.230469 12.347656 33.96875 9.585938 31.402344 7.035156 C 29.625 5.496094 27.617188 4.660156 25.375 4.523438 C 25.09375 4.714844 24.925781 4.964844 24.871094 5.273438 C 23.53125 5.609375 22.695312 6.449219 22.359375 7.789062 C 21.6875 8.121094 21.1875 8.625 20.851562 9.292969 C 17.707031 12.523438 15.027344 16.125 12.8125 20.097656 C 13.609375 22.289062 14.953125 24.046875 16.832031 25.371094 C 17.070312 26.078125 17.570312 26.414062 18.339844 26.375 C 18.507812 26.710938 18.675781 27.046875 18.839844 27.382812 C 17.785156 28.125 17.785156 28.710938 18.839844 29.140625 C 18.675781 29.308594 18.507812 29.476562 18.339844 29.640625 C 19.003906 30.050781 19.339844 30.636719 19.34375 31.402344 C 18.628906 30.683594 17.792969 30.183594 16.832031 29.894531 C 14.683594 27.960938 12.757812 25.785156 11.054688 23.363281 C 10.34375 24.441406 9.925781 25.613281 9.796875 26.878906 C 8.871094 28.058594 8.203125 29.398438 7.789062 30.898438 C 6.542969 29.632812 6.542969 28.375 7.789062 27.128906 C 7.367188 26.621094 7.199219 26.035156 7.285156 25.371094 C 10.5625 16.582031 15.753906 9.214844 22.859375 3.265625 C 23.609375 2.542969 24.53125 2.207031 25.625 2.261719 C 27.476562 2.53125 29.320312 2.867188 31.152344 3.265625 C 33.664062 2.261719 36.175781 1.257812 38.6875 0.25 C 39.855469 0.457031 40.941406 0.875 41.953125 1.507812 C 43.125 3.015625 44.296875 4.523438 45.472656 6.027344 C 47.136719 6.28125 48.8125 6.363281 50.496094 6.28125 Z M 50.496094 6.28125 "/>
</g>
<mask id="mask1">
  <g filter="url(#alpha)">
<rect x="0" y="0" width="103" height="104" style="fill:rgb(0%,0%,0%);fill-opacity:0.0313725;stroke:none;"/>
  </g>
</mask>
<clipPath id="clip2">
  <rect x="0" y="0" width="103" height="104"/>
</clipPath>
<g id="surface8" clip-path="url(#clip2)">
<path style=" stroke:none;fill-rule:evenodd;fill:rgb(14.509804%,16.078431%,21.176471%);fill-opacity:1;" d="M 36.929688 -0.25 C 38.269531 -0.25 39.609375 -0.25 40.949219 -0.25 C 42.859375 1.242188 44.535156 3 45.972656 5.023438 C 47.519531 5.511719 49.027344 5.929688 50.496094 6.28125 C 48.8125 6.363281 47.136719 6.28125 45.472656 6.027344 C 44.296875 4.523438 43.125 3.015625 41.953125 1.507812 C 40.941406 0.875 39.855469 0.457031 38.6875 0.25 C 36.175781 1.257812 33.664062 2.261719 31.152344 3.265625 C 29.320312 2.867188 27.476562 2.53125 25.625 2.261719 C 24.53125 2.207031 23.609375 2.542969 22.859375 3.265625 C 22.816406 2.765625 22.984375 2.347656 23.363281 2.007812 C 24.226562 1.835938 25.0625 1.585938 25.875 1.257812 C 29.765625 2.957031 33.449219 2.453125 36.929688 -0.25 Z M 36.929688 -0.25 "/>
</g>
<mask id="mask2">
  <g filter="url(#alpha)">
<rect x="0" y="0" width="103" height="104" style="fill:rgb(0%,0%,0%);fill-opacity:0.952941;stroke:none;"/>
  </g>
</mask>
<clipPath id="clip3">
  <rect x="0" y="0" width="103" height="104"/>
</clipPath>
<g id="surface11" clip-path="url(#clip3)">
<path style=" stroke:none;fill-rule:evenodd;fill:rgb(5.882353%,4.313725%,4.313725%);fill-opacity:1;" d="M 85.164062 25.371094 C 85.492188 26.027344 85.828125 26.699219 86.167969 27.382812 C 91.667969 26.695312 94.851562 29.039062 95.714844 34.414062 C 99.695312 35.585938 100.867188 38.015625 99.230469 41.699219 C 101.664062 43.902344 101.832031 46.246094 99.734375 48.734375 C 102.375 51.285156 102.375 53.796875 99.734375 56.269531 C 101.886719 58.910156 101.554688 61.257812 98.730469 63.304688 C 100.617188 67.480469 99.277344 69.90625 94.710938 70.589844 C 94.832031 75.652344 92.320312 77.828125 87.171875 77.121094 C 86.882812 76.480469 86.546875 76.480469 86.167969 77.121094 C 85.398438 79.390625 84.226562 81.398438 82.652344 83.148438 C 82.417969 84.554688 81.578125 85.226562 80.140625 85.160156 C 79.636719 85.117188 79.21875 85.285156 78.882812 85.660156 C 78.234375 90.65625 75.636719 94.175781 71.09375 96.210938 C 67.40625 97.164062 63.890625 96.746094 60.542969 94.957031 C 59.9375 94.433594 59.433594 93.847656 59.035156 93.199219 C 59.566406 93.273438 60.066406 93.191406 60.542969 92.945312 C 59.878906 92.535156 59.542969 91.949219 59.539062 91.1875 C 63.800781 94.800781 68.320312 95.136719 73.105469 92.191406 C 74.898438 90.621094 75.902344 88.609375 76.121094 86.164062 C 76.0625 85.855469 75.894531 85.601562 75.617188 85.410156 C 70.496094 85.492188 65.300781 85.324219 60.042969 84.910156 C 59.582031 84.769531 59.246094 84.515625 59.035156 84.15625 C 64.566406 84.238281 70.09375 84.15625 75.617188 83.902344 C 76.449219 83.597656 77.285156 83.347656 78.128906 83.148438 C 81.382812 81.59375 83.226562 78.996094 83.65625 75.363281 C 82.304688 72.570312 81.300781 69.636719 80.640625 66.570312 C 80.558594 64.886719 80.640625 63.210938 80.894531 61.546875 C 80.992188 62.492188 81.242188 63.328125 81.644531 64.058594 C 81.804688 65.980469 82.8125 66.898438 84.660156 66.820312 C 85.128906 65.269531 85.464844 63.679688 85.664062 62.046875 C 86.035156 61.441406 86.203125 60.773438 86.167969 60.039062 C 86.449219 58.609375 86.785156 57.1875 87.171875 55.769531 C 86.367188 53.421875 86.535156 51.160156 87.675781 48.984375 C 86.390625 47.378906 85.886719 45.535156 86.167969 43.457031 C 85.28125 42.976562 84.277344 42.808594 83.152344 42.957031 C 83.683594 42.074219 84.519531 41.738281 85.664062 41.953125 C 85.785156 41.304688 85.617188 40.800781 85.164062 40.445312 C 85.34375 37.183594 84.339844 36.683594 82.148438 38.9375 C 81.8125 40.109375 81.480469 41.28125 81.144531 42.453125 C 80.457031 38.675781 81.125 35.15625 83.152344 31.902344 C 83.464844 31.847656 83.714844 31.679688 83.90625 31.402344 C 84.003906 29.257812 84.421875 27.246094 85.164062 25.371094 Z M 85.164062 25.371094 "/>
</g>
<mask id="mask3">
  <g filter="url(#alpha)">
<rect x="0" y="0" width="103" height="104" style="fill:rgb(0%,0%,0%);fill-opacity:0.0431373;stroke:none;"/>
  </g>
</mask>
<clipPath id="clip4">
  <rect x="0" y="0" width="103" height="104"/>
</clipPath>
<g id="surface14" clip-path="url(#clip4)">
<path style=" stroke:none;fill-rule:evenodd;fill:rgb(15.294118%,20.784314%,25.882353%);fill-opacity:1;" d="M 102.75 50.996094 C 102.75 52.167969 102.75 53.339844 102.75 54.511719 C 102.195312 55.1875 101.691406 55.941406 101.242188 56.773438 C 102.691406 59.191406 102.355469 61.367188 100.238281 63.304688 C 101.539062 67.144531 100.199219 69.742188 96.21875 71.089844 C 95.414062 76.601562 92.402344 78.609375 87.171875 77.121094 C 92.320312 77.828125 94.832031 75.652344 94.710938 70.589844 C 99.277344 69.90625 100.617188 67.480469 98.730469 63.304688 C 101.554688 61.257812 101.886719 58.910156 99.734375 56.269531 C 102.375 53.796875 102.375 51.285156 99.734375 48.734375 C 101.832031 46.246094 101.664062 43.902344 99.230469 41.699219 C 100.867188 38.015625 99.695312 35.585938 95.714844 34.414062 C 94.851562 29.039062 91.667969 26.695312 86.167969 27.382812 C 85.828125 26.699219 85.492188 26.027344 85.164062 25.371094 C 83.679688 22.964844 81.753906 20.957031 79.386719 19.34375 C 78.589844 15.820312 76.828125 12.890625 74.109375 10.550781 C 68.738281 7.8125 63.714844 8.230469 59.035156 11.808594 C 56.867188 9.214844 54.1875 7.375 50.996094 6.28125 C 51.117188 5.980469 51.367188 5.8125 51.75 5.777344 C 54.515625 6.871094 57.027344 8.375 59.289062 10.300781 C 66.667969 5.578125 73.035156 6.75 78.378906 13.816406 C 79.246094 15.410156 79.917969 17.085938 80.390625 18.839844 C 83.441406 20.933594 85.785156 23.613281 87.425781 26.878906 C 91.976562 26.164062 94.992188 28.171875 96.46875 32.910156 C 98.453125 34.554688 100.042969 36.480469 101.242188 38.6875 C 101.308594 39.460938 101.140625 40.300781 100.738281 41.199219 C 102.484375 43.613281 102.652344 46.125 101.242188 48.734375 C 101.886719 49.441406 102.386719 50.195312 102.75 50.996094 Z M 102.75 50.996094 "/>
</g>
<mask id="mask4">
  <g filter="url(#alpha)">
<rect x="0" y="0" width="103" height="104" style="fill:rgb(0%,0%,0%);fill-opacity:0.0509804;stroke:none;"/>
  </g>
</mask>
<clipPath id="clip5">
  <rect x="0" y="0" width="103" height="104"/>
</clipPath>
<g id="surface17" clip-path="url(#clip5)">
<path style=" stroke:none;fill-rule:evenodd;fill:rgb(14.509804%,19.607843%,23.921569%);fill-opacity:1;" d="M 3.769531 69.082031 C 5.167969 72.9375 6.675781 76.789062 8.289062 80.636719 C 5.90625 77.179688 4.398438 73.324219 3.769531 69.082031 Z M 3.769531 69.082031 "/>
</g>
<mask id="mask5">
  <g filter="url(#alpha)">
<rect x="0" y="0" width="103" height="104" style="fill:rgb(0%,0%,0%);fill-opacity:0.996078;stroke:none;"/>
  </g>
</mask>
<clipPath id="clip6">
  <rect x="0" y="0" width="103" height="104"/>
</clipPath>
<g id="surface20" clip-path="url(#clip6)">
<path style=" stroke:none;fill-rule:evenodd;fill:rgb(3.529412%,3.529412%,3.921569%);fill-opacity:1;" d="M 7.285156 25.371094 C 7.199219 26.035156 7.367188 26.621094 7.789062 27.128906 C 6.542969 28.375 6.542969 29.632812 7.789062 30.898438 C 6.152344 35.257812 5.234375 39.78125 5.023438 44.464844 C 4.832031 44.183594 4.582031 44.015625 4.269531 43.960938 C 3.925781 42.675781 3.339844 41.503906 2.511719 40.445312 C 2.335938 46.082031 2.753906 51.609375 3.769531 57.023438 C 4.378906 61.820312 5.46875 66.507812 7.035156 71.089844 C 8.058594 74.480469 9.480469 77.328125 11.304688 79.632812 C 12.667969 78.269531 14.175781 77.097656 15.828125 76.117188 C 15.617188 76.917969 15.28125 77.671875 14.820312 78.375 C 14.945312 78.828125 15.113281 79.25 15.324219 79.632812 C 14.75 80.777344 14.164062 81.949219 13.566406 83.148438 C 13.230469 83.820312 13.230469 84.488281 13.566406 85.160156 C 15.882812 88.652344 18.398438 92 21.101562 95.207031 C 22.359375 96.890625 23.949219 98.0625 25.875 98.726562 C 25.992188 99.023438 26.246094 99.191406 26.628906 99.226562 C 27.382812 98.976562 28.136719 98.726562 28.890625 98.472656 C 33.335938 95.03125 37.4375 91.265625 41.199219 87.167969 C 41.449219 86.347656 41.53125 85.511719 41.453125 84.65625 C 40.492188 82.328125 38.816406 80.738281 36.425781 79.882812 C 37.046875 79.339844 37.71875 78.921875 38.4375 78.628906 C 40.414062 80.605469 42.761719 81.945312 45.472656 82.648438 C 45.855469 83.03125 46.355469 83.285156 46.976562 83.402344 C 50.5 83.617188 54.019531 83.871094 57.527344 84.15625 C 58.03125 84.15625 58.535156 84.15625 59.035156 84.15625 C 59.246094 84.515625 59.582031 84.769531 60.042969 84.910156 C 65.300781 85.324219 70.496094 85.492188 75.617188 85.410156 C 75.894531 85.601562 76.0625 85.855469 76.121094 86.164062 C 74.742188 86.269531 73.570312 86.769531 72.601562 87.671875 C 72.101562 87.628906 71.683594 87.796875 71.347656 88.175781 C 70.992188 87.730469 70.570312 87.398438 70.089844 87.167969 C 66.796875 86.492188 63.445312 86.578125 60.042969 87.421875 C 59.011719 88.261719 58.84375 89.183594 59.539062 90.183594 C 59.539062 90.519531 59.539062 90.851562 59.539062 91.1875 C 59.542969 91.949219 59.878906 92.535156 60.542969 92.945312 C 60.066406 93.191406 59.566406 93.273438 59.035156 93.199219 C 58.726562 93.140625 58.476562 92.976562 58.28125 92.695312 C 56.175781 95.210938 53.578125 96.882812 50.496094 97.71875 C 48.859375 98.058594 47.183594 98.476562 45.472656 98.976562 C 43.847656 100.683594 42.171875 102.273438 40.445312 103.75 C 39.105469 103.75 37.765625 103.75 36.425781 103.75 C 33.382812 101.34375 29.949219 100.675781 26.125 101.738281 C 24.996094 101.671875 23.90625 101.421875 22.859375 100.984375 C 16.898438 94.992188 12.042969 88.207031 8.289062 80.636719 C 6.675781 76.789062 5.167969 72.9375 3.769531 69.082031 C 1.617188 62.027344 0.277344 54.824219 -0.25 47.476562 C -0.25 43.960938 -0.25 40.445312 -0.25 36.925781 C -0.214844 33.960938 1.039062 33.292969 3.515625 34.917969 C 4.449219 31.523438 5.703125 28.34375 7.285156 25.371094 Z M 7.285156 25.371094 "/>
</g>
<mask id="mask6">
  <g filter="url(#alpha)">
<rect x="0" y="0" width="103" height="104" style="fill:rgb(0%,0%,0%);fill-opacity:0.00784314;stroke:none;"/>
  </g>
</mask>
<clipPath id="clip7">
  <rect x="0" y="0" width="103" height="104"/>
</clipPath>
<g id="surface23" clip-path="url(#clip7)">
<path style=" stroke:none;fill-rule:evenodd;fill:rgb(13.72549%,22.352941%,27.843137%);fill-opacity:1;" d="M 87.171875 77.121094 C 86.441406 78.582031 85.6875 80.089844 84.914062 81.640625 C 84.34375 82.46875 83.589844 82.96875 82.652344 83.148438 C 84.226562 81.398438 85.398438 79.390625 86.167969 77.121094 C 86.546875 76.480469 86.882812 76.480469 87.171875 77.121094 Z M 87.171875 77.121094 "/>
</g>
<mask id="mask7">
  <g filter="url(#alpha)">
<rect x="0" y="0" width="103" height="104" style="fill:rgb(0%,0%,0%);fill-opacity:0.0156863;stroke:none;"/>
  </g>
</mask>
<clipPath id="clip8">
  <rect x="0" y="0" width="103" height="104"/>
</clipPath>
<g id="surface26" clip-path="url(#clip8)">
<path style=" stroke:none;fill-rule:evenodd;fill:rgb(14.901961%,22.745098%,27.843137%);fill-opacity:1;" d="M 80.140625 85.160156 C 79.367188 89.300781 77.355469 92.734375 74.109375 95.457031 C 73.183594 96.027344 72.179688 96.277344 71.09375 96.210938 C 75.636719 94.175781 78.234375 90.65625 78.882812 85.660156 C 79.21875 85.285156 79.636719 85.117188 80.140625 85.160156 Z M 80.140625 85.160156 "/>
</g>
<mask id="mask8">
  <g filter="url(#alpha)">
<rect x="0" y="0" width="103" height="104" style="fill:rgb(0%,0%,0%);fill-opacity:0.12549;stroke:none;"/>
  </g>
</mask>
<clipPath id="clip9">
  <rect x="0" y="0" width="103" height="104"/>
</clipPath>
<g id="surface29" clip-path="url(#clip9)">
<path style=" stroke:none;fill-rule:evenodd;fill:rgb(16.078431%,22.745098%,27.45098%);fill-opacity:1;" d="M 59.035156 93.199219 C 59.433594 93.847656 59.9375 94.433594 60.542969 94.957031 C 63.890625 96.746094 67.40625 97.164062 71.09375 96.210938 C 66.480469 98.527344 62.210938 97.6875 58.28125 93.699219 C 56.210938 96.425781 53.617188 97.761719 50.496094 97.71875 C 53.578125 96.882812 56.175781 95.210938 58.28125 92.695312 C 58.476562 92.976562 58.726562 93.140625 59.035156 93.199219 Z M 59.035156 93.199219 "/>
</g>
</defs>
<g id="surface1">
<use xlink:href="#surface5" mask="url(#mask0)"/>
<use xlink:href="#surface8" mask="url(#mask1)"/>
<path style=" stroke:none;fill-rule:evenodd;fill:rgb(81.176471%,80.784314%,81.176471%);fill-opacity:1;" d="M 36.425781 4.269531 C 38.214844 5.996094 39.890625 7.839844 41.453125 9.796875 C 40.996094 11.011719 40.160156 11.429688 38.9375 11.054688 C 37.097656 9.210938 35.253906 7.367188 33.414062 5.527344 C 34.246094 4.691406 35.25 4.273438 36.425781 4.269531 Z M 36.425781 4.269531 "/>
<path style=" stroke:none;fill-rule:evenodd;fill:rgb(61.960784%,61.960784%,62.352941%);fill-opacity:1;" d="M 41.453125 9.796875 C 39.890625 7.839844 38.214844 5.996094 36.425781 4.269531 C 38.34375 2.109375 40.105469 2.277344 41.703125 4.773438 C 42.527344 6.015625 43.449219 7.191406 44.464844 8.289062 C 43.445312 8.816406 42.441406 9.320312 41.453125 9.796875 Z M 41.453125 9.796875 "/>
<path style=" stroke:none;fill-rule:evenodd;fill:rgb(85.098039%,72.54902%,68.235294%);fill-opacity:1;" d="M 24.871094 5.273438 C 27.078125 5.707031 28.753906 6.878906 29.894531 8.792969 C 29.011719 9.199219 28.171875 9.703125 27.382812 10.300781 C 26.808594 9.648438 26.976562 9.0625 27.886719 8.542969 C 27.410156 8.296875 26.90625 8.214844 26.378906 8.289062 C 25.148438 7.800781 23.808594 7.632812 22.359375 7.789062 C 22.695312 6.449219 23.53125 5.609375 24.871094 5.273438 Z M 24.871094 5.273438 "/>
<path style=" stroke:none;fill-rule:evenodd;fill:rgb(96.470588%,27.843137%,30.196078%);fill-opacity:1;" d="M 22.359375 7.789062 C 23.808594 7.632812 25.148438 7.800781 26.378906 8.289062 C 25.714844 8.203125 25.128906 8.371094 24.621094 8.792969 C 24.453125 9.972656 24.535156 11.144531 24.871094 12.308594 C 22.507812 12.621094 21.167969 11.617188 20.851562 9.292969 C 21.1875 8.625 21.6875 8.121094 22.359375 7.789062 Z M 22.359375 7.789062 "/>
<path style=" stroke:none;fill-rule:evenodd;fill:rgb(29.803922%,11.764706%,14.117647%);fill-opacity:1;" d="M 29.894531 8.792969 C 31.164062 9.546875 31.164062 10.214844 29.894531 10.800781 C 30.378906 10.367188 30.378906 10.03125 29.894531 9.796875 C 28.011719 10.1875 27.925781 10.855469 29.644531 11.808594 C 29.84375 11.691406 29.929688 11.523438 29.894531 11.304688 C 30.542969 11.183594 31.046875 11.351562 31.402344 11.808594 C 30.734375 11.972656 30.0625 12.140625 29.394531 12.308594 C 28.554688 11.808594 27.886719 11.136719 27.382812 10.300781 C 28.171875 9.703125 29.011719 9.199219 29.894531 8.792969 Z M 29.894531 8.792969 "/>
<path style=" stroke:none;fill-rule:evenodd;fill:rgb(11.372549%,10.196078%,10.588235%);fill-opacity:1;" d="M 38.4375 18.339844 C 37.625 17.191406 36.617188 16.183594 35.421875 15.324219 C 35.011719 16.632812 34.757812 17.972656 34.667969 19.34375 C 34.5625 18.558594 34.3125 17.890625 33.914062 17.332031 C 33.917969 16.425781 33.667969 15.585938 33.160156 14.820312 C 28.785156 18.613281 24.347656 22.296875 19.847656 25.875 C 19.398438 26.179688 18.894531 26.347656 18.339844 26.375 C 23.019531 21.535156 28.042969 17.011719 33.414062 12.8125 C 33 12.003906 32.332031 11.667969 31.402344 11.808594 C 31.046875 11.351562 30.542969 11.183594 29.894531 11.304688 C 29.894531 11.136719 29.894531 10.96875 29.894531 10.800781 C 31.164062 10.214844 31.164062 9.546875 29.894531 8.792969 C 28.753906 6.878906 27.078125 5.707031 24.871094 5.273438 C 24.925781 4.964844 25.09375 4.714844 25.375 4.523438 C 27.617188 4.660156 29.625 5.496094 31.402344 7.035156 C 33.96875 9.585938 36.230469 12.347656 38.183594 15.324219 C 38.640625 16.40625 38.726562 17.414062 38.4375 18.339844 Z M 38.4375 18.339844 "/>
<path style=" stroke:none;fill-rule:evenodd;fill:rgb(72.156863%,42.745098%,36.470588%);fill-opacity:1;" d="M 29.894531 10.800781 C 29.894531 10.96875 29.894531 11.136719 29.894531 11.304688 C 29.929688 11.523438 29.84375 11.691406 29.644531 11.808594 C 27.925781 10.855469 28.011719 10.1875 29.894531 9.796875 C 30.378906 10.03125 30.378906 10.367188 29.894531 10.800781 Z M 29.894531 10.800781 "/>
<path style=" stroke:none;fill-rule:evenodd;fill:rgb(95.294118%,93.333333%,89.411765%);fill-opacity:1;" d="M 26.378906 8.289062 C 26.90625 8.214844 27.410156 8.296875 27.886719 8.542969 C 26.976562 9.0625 26.808594 9.648438 27.382812 10.300781 C 27.886719 11.136719 28.554688 11.808594 29.394531 12.308594 C 29.601562 12.671875 29.9375 12.921875 30.398438 13.0625 C 27.902344 15.480469 25.222656 17.65625 22.359375 19.59375 C 20.398438 21.46875 18.558594 23.394531 16.832031 25.371094 C 14.953125 24.046875 13.609375 22.289062 12.8125 20.097656 C 15.027344 16.125 17.707031 12.523438 20.851562 9.292969 C 21.167969 11.617188 22.507812 12.621094 24.871094 12.308594 C 24.535156 11.144531 24.453125 9.972656 24.621094 8.792969 C 25.128906 8.371094 25.714844 8.203125 26.378906 8.289062 Z M 26.378906 8.289062 "/>
<path style=" stroke:none;fill-rule:evenodd;fill:rgb(98.039216%,59.607843%,56.078431%);fill-opacity:1;" d="M 72.101562 12.308594 C 70.773438 11.925781 69.433594 11.84375 68.082031 12.058594 C 68.75 12.558594 68.75 13.0625 68.082031 13.566406 C 68.863281 13.671875 69.53125 13.921875 70.089844 14.320312 C 67.417969 14.128906 64.90625 14.628906 62.554688 15.824219 C 62.0625 15.667969 61.726562 15.335938 61.546875 14.820312 C 61.957031 14.160156 62.460938 13.574219 63.054688 13.0625 C 62.394531 12.964844 61.722656 13.046875 61.046875 13.3125 C 64.484375 10.363281 68.171875 10.027344 72.101562 12.308594 Z M 72.101562 12.308594 "/>
<path style=" stroke:none;fill-rule:evenodd;fill:rgb(66.27451%,65.882353%,63.529412%);fill-opacity:1;" d="M 31.402344 11.808594 C 32.332031 11.667969 33 12.003906 33.414062 12.8125 C 28.042969 17.011719 23.019531 21.535156 18.339844 26.375 C 17.570312 26.414062 17.070312 26.078125 16.832031 25.371094 C 18.558594 23.394531 20.398438 21.46875 22.359375 19.59375 C 25.222656 17.65625 27.902344 15.480469 30.398438 13.0625 C 29.9375 12.921875 29.601562 12.671875 29.394531 12.308594 C 30.0625 12.140625 30.734375 11.972656 31.402344 11.808594 Z M 31.402344 11.808594 "/>
<path style=" stroke:none;fill-rule:evenodd;fill:rgb(94.117647%,38.039216%,40%);fill-opacity:1;" d="M 72.101562 12.308594 C 74.871094 13.675781 76.210938 15.851562 76.121094 18.839844 C 75.144531 18.496094 74.136719 18.242188 73.105469 18.085938 C 68.582031 17.917969 64.0625 17.753906 59.539062 17.585938 C 59 16.71875 58.914062 15.796875 59.289062 14.820312 C 59.5 13.855469 60.085938 13.351562 61.046875 13.3125 C 61.722656 13.046875 62.394531 12.964844 63.054688 13.0625 C 62.460938 13.574219 61.957031 14.160156 61.546875 14.820312 C 61.726562 15.335938 62.0625 15.667969 62.554688 15.824219 C 62.085938 16.234375 61.585938 16.652344 61.046875 17.082031 C 64.730469 17.417969 68.414062 17.417969 72.101562 17.082031 C 71.515625 16.082031 70.84375 15.160156 70.089844 14.320312 C 69.53125 13.921875 68.863281 13.671875 68.082031 13.566406 C 68.75 13.0625 68.75 12.558594 68.082031 12.058594 C 69.433594 11.84375 70.773438 11.925781 72.101562 12.308594 Z M 72.101562 12.308594 "/>
<path style=" stroke:none;fill-rule:evenodd;fill:rgb(92.156863%,14.117647%,25.098039%);fill-opacity:1;" d="M 70.089844 14.320312 C 70.84375 15.160156 71.515625 16.082031 72.101562 17.082031 C 68.414062 17.417969 64.730469 17.417969 61.046875 17.082031 C 61.585938 16.652344 62.085938 16.234375 62.554688 15.824219 C 64.90625 14.628906 67.417969 14.128906 70.089844 14.320312 Z M 70.089844 14.320312 "/>
<path style=" stroke:none;fill-rule:evenodd;fill:rgb(97.254902%,68.235294%,61.176471%);fill-opacity:1;" d="M 76.621094 21.351562 C 76.835938 22.730469 76.25 23.402344 74.863281 23.363281 C 69.988281 22.335938 65.050781 22.085938 60.042969 22.609375 C 57.921875 23.125 56.160156 24.210938 54.765625 25.875 C 54.414062 28.90625 54.5 31.921875 55.015625 34.917969 C 54.425781 35.027344 53.925781 34.859375 53.507812 34.414062 C 50.917969 30.78125 50.917969 27.179688 53.507812 23.613281 C 50.050781 23.609375 46.703125 23.191406 43.460938 22.359375 C 44.136719 21.707031 44.972656 21.289062 45.972656 21.101562 C 56.210938 20.019531 66.425781 20.105469 76.621094 21.351562 Z M 76.621094 21.351562 "/>
<path style=" stroke:none;fill-rule:evenodd;fill:rgb(94.509804%,89.019608%,87.058824%);fill-opacity:1;" d="M 33.914062 17.332031 C 34.070312 18.550781 33.902344 19.722656 33.414062 20.851562 C 30.808594 23.371094 28.128906 25.800781 25.375 28.136719 C 23.558594 27.050781 21.71875 26.300781 19.847656 25.875 C 24.347656 22.296875 28.785156 18.613281 33.160156 14.820312 C 33.667969 15.585938 33.917969 16.425781 33.914062 17.332031 Z M 33.914062 17.332031 "/>
<path style=" stroke:none;fill-rule:evenodd;fill:rgb(67.058824%,64.705882%,65.098039%);fill-opacity:1;" d="M 38.4375 18.339844 C 39.191406 19.847656 38.941406 21.183594 37.683594 22.359375 C 34.917969 24.785156 32.15625 27.214844 29.394531 29.640625 C 27.25 30.558594 25.074219 30.644531 22.859375 29.894531 C 21.523438 29.058594 20.183594 28.21875 18.839844 27.382812 C 18.675781 27.046875 18.507812 26.710938 18.339844 26.375 C 18.894531 26.347656 19.398438 26.179688 19.847656 25.875 C 21.71875 26.300781 23.558594 27.050781 25.375 28.136719 C 28.128906 25.800781 30.808594 23.371094 33.414062 20.851562 C 33.902344 19.722656 34.070312 18.550781 33.914062 17.332031 C 34.3125 17.890625 34.5625 18.558594 34.667969 19.34375 C 34.757812 17.972656 35.011719 16.632812 35.421875 15.324219 C 36.617188 16.183594 37.625 17.191406 38.4375 18.339844 Z M 38.4375 18.339844 "/>
<path style=" stroke:none;fill-rule:evenodd;fill:rgb(15.686275%,12.54902%,14.117647%);fill-opacity:1;" d="M 16.832031 29.894531 C 14.820312 29.722656 13.480469 30.5625 12.8125 32.40625 C 10.652344 31.273438 9.648438 29.433594 9.796875 26.878906 C 9.925781 25.613281 10.34375 24.441406 11.054688 23.363281 C 12.757812 25.785156 14.683594 27.960938 16.832031 29.894531 Z M 16.832031 29.894531 "/>
<path style=" stroke:none;fill-rule:evenodd;fill:rgb(99.607843%,68.235294%,63.529412%);fill-opacity:1;" d="M 47.984375 30.898438 C 50.148438 32.898438 52.328125 34.90625 54.515625 36.925781 C 55.070312 35.867188 55.90625 35.195312 57.027344 34.917969 C 59.378906 38.285156 61.722656 41.636719 64.0625 44.964844 C 64.0625 47.238281 64.230469 49.5 64.5625 51.75 C 63.90625 55.496094 63.238281 59.265625 62.554688 63.054688 C 60.375 66.066406 58.199219 69.082031 56.023438 72.097656 C 55.660156 71.886719 55.40625 71.550781 55.269531 71.089844 C 54.054688 72.53125 53.722656 74.203125 54.261719 76.117188 C 54.695312 76.914062 55.03125 77.75 55.269531 78.628906 C 56.425781 79.261719 57.511719 79.929688 58.535156 80.636719 C 57.101562 80.257812 55.761719 80.257812 54.515625 80.636719 C 52.792969 79.125 51.789062 77.199219 51.5 74.859375 C 51.972656 72.570312 52.390625 70.308594 52.757812 68.078125 C 51.210938 70.800781 49.449219 73.394531 47.480469 75.863281 C 46.386719 76.46875 45.214844 76.71875 43.964844 76.617188 C 43.964844 75.949219 43.964844 75.277344 43.964844 74.609375 C 38.378906 74.972656 34.777344 72.460938 33.160156 67.074219 C 32.992188 63.21875 32.824219 59.367188 32.660156 55.515625 C 32.355469 54.695312 32.105469 53.859375 31.90625 53.003906 C 33.074219 48.164062 34.160156 43.308594 35.171875 38.433594 C 35.683594 36.476562 36.4375 34.632812 37.433594 32.910156 C 40.808594 31.519531 44.324219 30.851562 47.984375 30.898438 Z M 47.984375 30.898438 "/>
<path style=" stroke:none;fill-rule:evenodd;fill:rgb(97.254902%,57.647059%,32.941176%);fill-opacity:1;" d="M 16.832031 29.894531 C 17.792969 30.183594 18.628906 30.683594 19.34375 31.402344 C 19.671875 32.375 19.835938 33.378906 19.847656 34.414062 C 18.597656 36.042969 16.925781 36.882812 14.820312 36.925781 C 13.472656 35.738281 12.804688 34.230469 12.8125 32.40625 C 13.480469 30.5625 14.820312 29.722656 16.832031 29.894531 Z M 16.832031 29.894531 "/>
<path style=" stroke:none;fill-rule:evenodd;fill:rgb(29.019608%,21.568627%,21.176471%);fill-opacity:1;" d="M 19.847656 34.414062 C 20.367188 35.132812 20.703125 35.972656 20.851562 36.925781 C 21.253906 38.398438 21.421875 39.90625 21.355469 41.449219 C 19.566406 42.425781 17.722656 43.265625 15.828125 43.960938 C 14.835938 42.800781 13.832031 41.628906 12.8125 40.445312 C 13.441406 40.464844 13.945312 40.210938 14.320312 39.691406 C 14.238281 39.128906 14.070312 38.542969 13.816406 37.933594 C 13.996094 37.417969 14.332031 37.082031 14.820312 36.925781 C 16.925781 36.882812 18.597656 36.042969 19.847656 34.414062 Z M 19.847656 34.414062 "/>
<path style=" stroke:none;fill-rule:evenodd;fill:rgb(14.901961%,11.764706%,12.941176%);fill-opacity:1;" d="M 20.851562 36.925781 C 21.84375 37.894531 22.597656 39.070312 23.113281 40.445312 C 24.46875 43.679688 25.726562 46.945312 26.878906 50.242188 C 26.421875 50.382812 26.085938 50.632812 25.875 50.996094 C 24.4375 50.375 23.011719 49.707031 21.605469 48.984375 C 21.355469 46.480469 21.269531 43.96875 21.355469 41.449219 C 21.421875 39.90625 21.253906 38.398438 20.851562 36.925781 Z M 20.851562 36.925781 "/>
<path style=" stroke:none;fill-rule:evenodd;fill:rgb(39.607843%,7.058824%,11.372549%);fill-opacity:1;" d="M 82.148438 38.9375 C 82.148438 39.773438 82.148438 40.613281 82.148438 41.449219 C 83.445312 41.6875 84.449219 41.351562 85.164062 40.445312 C 85.617188 40.800781 85.785156 41.304688 85.664062 41.953125 C 84.519531 41.738281 83.683594 42.074219 83.152344 42.957031 C 82.351562 43.089844 81.679688 42.921875 81.144531 42.453125 C 81.480469 41.28125 81.8125 40.109375 82.148438 38.9375 Z M 82.148438 38.9375 "/>
<path style=" stroke:none;fill-rule:evenodd;fill:rgb(36.862745%,30.588235%,31.372549%);fill-opacity:1;" d="M 9.796875 26.878906 C 9.648438 29.433594 10.652344 31.273438 12.8125 32.40625 C 12.804688 34.230469 13.472656 35.738281 14.820312 36.925781 C 14.332031 37.082031 13.996094 37.417969 13.816406 37.933594 C 14.070312 38.542969 14.238281 39.128906 14.320312 39.691406 C 13.945312 40.210938 13.441406 40.464844 12.8125 40.445312 C 12.097656 39.964844 11.261719 39.800781 10.300781 39.941406 C 10.203125 41.363281 9.867188 42.703125 9.296875 43.960938 C 7.726562 42.988281 6.554688 43.324219 5.777344 44.964844 C 4.9375 45.308594 4.601562 45.980469 4.773438 46.976562 C 4.921875 48.097656 4.753906 49.105469 4.269531 49.992188 C 4.269531 47.980469 4.269531 45.972656 4.269531 43.960938 C 4.582031 44.015625 4.832031 44.183594 5.023438 44.464844 C 5.234375 39.78125 6.152344 35.257812 7.789062 30.898438 C 8.203125 29.398438 8.871094 28.058594 9.796875 26.878906 Z M 9.796875 26.878906 "/>
<path style=" stroke:none;fill-rule:evenodd;fill:rgb(98.823529%,40%,42.352941%);fill-opacity:1;" d="M 70.089844 40.945312 C 70.589844 40.859375 70.921875 41.027344 71.09375 41.449219 C 69.4375 47.007812 68.347656 52.703125 67.828125 58.53125 C 67.621094 59.164062 67.203125 59.496094 66.574219 59.535156 C 66.042969 59.460938 65.542969 59.542969 65.066406 59.789062 C 64.523438 61.136719 63.683594 62.226562 62.554688 63.054688 C 63.238281 59.265625 63.90625 55.496094 64.5625 51.75 C 64.230469 49.5 64.0625 47.238281 64.0625 44.964844 C 65.003906 45.101562 65.675781 44.765625 66.070312 43.960938 C 67.277344 42.75 68.617188 41.746094 70.089844 40.945312 Z M 70.089844 40.945312 "/>
<path style=" stroke:none;fill-rule:evenodd;fill:rgb(67.45098%,61.568627%,57.647059%);fill-opacity:1;" d="M 5.777344 44.964844 C 6.660156 45.496094 6.996094 46.332031 6.78125 47.476562 C 6.050781 47.511719 5.378906 47.34375 4.773438 46.976562 C 4.601562 45.980469 4.9375 45.308594 5.777344 44.964844 Z M 5.777344 44.964844 "/>
<path style=" stroke:none;fill-rule:evenodd;fill:rgb(44.705882%,36.078431%,33.333333%);fill-opacity:1;" d="M 12.8125 40.445312 C 12.148438 40.359375 11.5625 40.527344 11.054688 40.945312 C 10.570312 43.269531 10.238281 45.613281 10.046875 47.980469 C 8.707031 49.320312 7.117188 50.242188 5.277344 50.742188 C 4.855469 51.25 4.6875 51.839844 4.773438 52.503906 C 4.296875 51.789062 4.128906 50.953125 4.269531 49.992188 C 4.753906 49.105469 4.921875 48.097656 4.773438 46.976562 C 5.378906 47.34375 6.050781 47.511719 6.78125 47.476562 C 6.996094 46.332031 6.660156 45.496094 5.777344 44.964844 C 6.554688 43.324219 7.726562 42.988281 9.296875 43.960938 C 9.867188 42.703125 10.203125 41.363281 10.300781 39.941406 C 11.261719 39.800781 12.097656 39.964844 12.8125 40.445312 Z M 12.8125 40.445312 "/>
<path style=" stroke:none;fill-rule:evenodd;fill:rgb(5.490196%,3.921569%,4.313725%);fill-opacity:1;" d="M 18.839844 27.382812 C 20.183594 28.21875 21.523438 29.058594 22.859375 29.894531 C 22.320312 30.476562 21.734375 30.476562 21.101562 29.894531 C 20.851562 30.0625 20.601562 30.230469 20.347656 30.394531 C 22.34375 32.152344 24.6875 33.070312 27.382812 33.160156 C 27.894531 33.421875 28.226562 33.839844 28.386719 34.414062 C 28.78125 39.257812 29.03125 44.113281 29.140625 48.984375 C 29.476562 48.316406 29.8125 47.644531 30.144531 46.976562 C 30.398438 42.792969 30.480469 38.605469 30.398438 34.414062 C 30.890625 36.324219 31.058594 38.332031 30.898438 40.445312 C 30.9375 50.503906 30.855469 60.554688 30.648438 70.589844 C 31.003906 71.03125 31.421875 71.367188 31.90625 71.59375 C 33.742188 74.265625 35.917969 76.613281 38.4375 78.628906 C 37.71875 78.921875 37.046875 79.339844 36.425781 79.882812 C 38.816406 80.738281 40.492188 82.328125 41.453125 84.65625 C 38.386719 88.308594 35.207031 91.910156 31.90625 95.457031 C 31.570312 95.792969 31.234375 95.792969 30.898438 95.457031 C 31.90625 94.453125 32.910156 93.449219 33.914062 92.445312 C 33.636719 92.253906 33.46875 92 33.414062 91.691406 C 33.46875 91.378906 33.636719 91.128906 33.914062 90.9375 C 32.226562 90.261719 30.71875 89.339844 29.394531 88.175781 C 29.058594 87.503906 28.554688 87 27.886719 86.667969 C 27.886719 86.5 27.886719 86.332031 27.886719 86.164062 C 27.886719 85.496094 28.21875 85.160156 28.890625 85.160156 C 30.460938 86.898438 32.300781 88.238281 34.417969 89.179688 C 34.445312 89.453125 34.613281 89.617188 34.917969 89.679688 C 35.75 88.601562 36.667969 87.597656 37.683594 86.667969 C 38.398438 85.394531 38.566406 84.054688 38.183594 82.648438 C 34.902344 79.199219 31.472656 75.933594 27.886719 72.851562 C 24.4375 73.023438 21.589844 74.449219 19.34375 77.121094 C 18.84375 77.035156 18.511719 77.203125 18.339844 77.625 C 17.335938 78.292969 16.328125 78.964844 15.324219 79.632812 C 15.113281 79.25 14.945312 78.828125 14.820312 78.375 C 15.28125 77.671875 15.617188 76.917969 15.828125 76.117188 C 19.863281 73.59375 22.292969 69.90625 23.113281 65.0625 C 23.667969 61.890625 24.171875 58.707031 24.621094 55.515625 C 24.914062 54.429688 25.332031 53.425781 25.875 52.503906 C 26.441406 52.078125 26.441406 51.574219 25.875 50.996094 C 26.085938 50.632812 26.421875 50.382812 26.878906 50.242188 C 25.726562 46.945312 24.46875 43.679688 23.113281 40.445312 C 22.597656 39.070312 21.84375 37.894531 20.851562 36.925781 C 20.703125 35.972656 20.367188 35.132812 19.847656 34.414062 C 19.835938 33.378906 19.671875 32.375 19.34375 31.402344 C 19.339844 30.636719 19.003906 30.050781 18.339844 29.640625 C 18.507812 29.476562 18.675781 29.308594 18.839844 29.140625 C 17.785156 28.710938 17.785156 28.125 18.839844 27.382812 Z M 18.839844 27.382812 "/>
<use xlink:href="#surface11" mask="url(#mask2)"/>
<path style=" stroke:none;fill-rule:evenodd;fill:rgb(83.921569%,83.529412%,82.745098%);fill-opacity:1;" d="M 94.207031 42.957031 C 97.386719 42.21875 98.980469 43.390625 98.980469 46.472656 C 95.007812 48.65625 93.417969 47.484375 94.207031 42.957031 Z M 94.207031 42.957031 "/>
<path style=" stroke:none;fill-rule:evenodd;fill:rgb(83.921569%,82.745098%,81.568627%);fill-opacity:1;" d="M 87.675781 42.957031 C 89.359375 42.875 91.035156 42.957031 92.699219 43.207031 C 93.175781 44.574219 93.339844 45.996094 93.203125 47.476562 C 91.488281 47.605469 89.816406 47.4375 88.179688 46.976562 C 87.6875 45.675781 87.519531 44.335938 87.675781 42.957031 Z M 87.675781 42.957031 "/>
<path style=" stroke:none;fill-rule:evenodd;fill:rgb(87.45098%,18.431373%,27.45098%);fill-opacity:1;" d="M 85.164062 40.445312 C 84.449219 41.351562 83.445312 41.6875 82.148438 41.449219 C 82.148438 40.613281 82.148438 39.773438 82.148438 38.9375 C 84.339844 36.683594 85.34375 37.183594 85.164062 40.445312 Z M 85.164062 40.445312 "/>
<path style=" stroke:none;fill-rule:evenodd;fill:rgb(83.137255%,83.137255%,82.745098%);fill-opacity:1;" d="M 86.671875 36.425781 C 90.578125 35.472656 92.25 36.980469 91.695312 40.945312 C 87.355469 42.128906 85.679688 40.621094 86.671875 36.425781 Z M 86.671875 36.425781 "/>
<path style=" stroke:none;fill-rule:evenodd;fill:rgb(83.921569%,83.529412%,83.137255%);fill-opacity:1;" d="M 92.199219 36.425781 C 94.257812 36.058594 96.019531 36.558594 97.472656 37.933594 C 97.71875 40.691406 96.460938 41.613281 93.703125 40.695312 C 92.851562 39.394531 92.351562 37.972656 92.199219 36.425781 Z M 92.199219 36.425781 "/>
<path style=" stroke:none;fill-rule:evenodd;fill:rgb(82.352941%,81.176471%,78.039216%);fill-opacity:1;" d="M 87.171875 29.894531 C 90.597656 29.253906 92.609375 30.59375 93.203125 33.914062 C 90.441406 33.695312 87.761719 34.03125 85.164062 34.917969 C 84.945312 32.992188 85.617188 31.316406 87.171875 29.894531 Z M 87.171875 29.894531 "/>
<path style=" stroke:none;fill-rule:evenodd;fill:rgb(95.294118%,61.176471%,33.72549%);fill-opacity:1;" d="M 21.355469 41.449219 C 21.269531 43.96875 21.355469 46.480469 21.605469 48.984375 C 23.011719 49.707031 24.4375 50.375 25.875 50.996094 C 26.441406 51.574219 26.441406 52.078125 25.875 52.503906 C 24.269531 53.21875 22.761719 54.058594 21.355469 55.015625 C 21.1875 55.015625 21.019531 55.015625 20.851562 55.015625 C 19.335938 55.097656 17.828125 55.011719 16.328125 54.761719 C 17.667969 54.429688 19.007812 54.09375 20.347656 53.757812 C 20.859375 53.496094 21.195312 53.078125 21.355469 52.503906 C 20.992188 51.382812 20.324219 50.460938 19.34375 49.738281 C 18 49.234375 16.828125 48.480469 15.828125 47.476562 C 15.285156 46.316406 15.285156 45.144531 15.828125 43.960938 C 17.722656 43.265625 19.566406 42.425781 21.355469 41.449219 Z M 21.355469 41.449219 "/>
<path style=" stroke:none;fill-rule:evenodd;fill:rgb(61.960784%,56.470588%,54.901961%);fill-opacity:1;" d="M 4.269531 43.960938 C 4.269531 45.972656 4.269531 47.980469 4.269531 49.992188 C 4.128906 50.953125 4.296875 51.789062 4.773438 52.503906 C 4.773438 53.339844 4.773438 54.175781 4.773438 55.015625 C 3.96875 55.410156 3.632812 56.078125 3.769531 57.023438 C 2.753906 51.609375 2.335938 46.082031 2.511719 40.445312 C 3.339844 41.503906 3.925781 42.675781 4.269531 43.960938 Z M 4.269531 43.960938 "/>
<path style=" stroke:none;fill-rule:evenodd;fill:rgb(85.490196%,85.490196%,84.705882%);fill-opacity:1;" d="M 89.683594 49.488281 C 93.628906 49.585938 94.632812 51.34375 92.699219 54.761719 C 89.1875 55.769531 87.765625 54.515625 88.429688 50.996094 C 88.78125 50.398438 89.199219 49.894531 89.683594 49.488281 Z M 89.683594 49.488281 "/>
<path style=" stroke:none;fill-rule:evenodd;fill:rgb(99.215686%,78.039216%,42.352941%);fill-opacity:1;" d="M 12.8125 40.445312 C 13.832031 41.628906 14.835938 42.800781 15.828125 43.960938 C 15.285156 45.144531 15.285156 46.316406 15.828125 47.476562 C 16.828125 48.480469 18 49.234375 19.34375 49.738281 C 20.324219 50.460938 20.992188 51.382812 21.355469 52.503906 C 21.195312 53.078125 20.859375 53.496094 20.347656 53.757812 C 19.007812 54.09375 17.667969 54.429688 16.328125 54.761719 C 17.828125 55.011719 19.335938 55.097656 20.851562 55.015625 C 20.933594 57.367188 20.851562 59.710938 20.601562 62.046875 C 18.933594 60.804688 17.34375 59.464844 15.828125 58.027344 C 14.207031 59.472656 12.617188 60.980469 11.054688 62.550781 C 10.886719 60.207031 10.71875 57.863281 10.550781 55.515625 C 8.652344 54.441406 6.726562 53.4375 4.773438 52.503906 C 4.6875 51.839844 4.855469 51.25 5.277344 50.742188 C 7.117188 50.242188 8.707031 49.320312 10.046875 47.980469 C 10.238281 45.613281 10.570312 43.269531 11.054688 40.945312 C 11.5625 40.527344 12.148438 40.359375 12.8125 40.445312 Z M 12.8125 40.445312 "/>
<path style=" stroke:none;fill-rule:evenodd;fill:rgb(87.843137%,87.058824%,87.058824%);fill-opacity:1;" d="M 94.710938 49.992188 C 98.269531 49.199219 99.859375 50.539062 99.484375 54.007812 C 95.171875 56.15625 93.582031 54.816406 94.710938 49.992188 Z M 94.710938 49.992188 "/>
<use xlink:href="#surface14" mask="url(#mask3)"/>
<path style=" stroke:none;fill-rule:evenodd;fill:rgb(98.431373%,56.862745%,53.333333%);fill-opacity:1;" d="M 86.167969 43.457031 C 85.886719 45.535156 86.390625 47.378906 87.675781 48.984375 C 86.535156 51.160156 86.367188 53.421875 87.171875 55.769531 C 86.785156 57.1875 86.449219 58.609375 86.167969 60.039062 C 84.082031 60.652344 82.070312 61.324219 80.140625 62.046875 C 79.203125 60.269531 77.863281 58.761719 76.121094 57.527344 C 75.847656 57.496094 75.679688 57.328125 75.617188 57.023438 C 76.035156 56.855469 76.453125 56.6875 76.875 56.523438 C 78.785156 57.011719 80.710938 57.097656 82.652344 56.773438 C 83.496094 56.597656 83.996094 56.097656 84.160156 55.265625 C 83.488281 54.242188 82.816406 53.238281 82.148438 52.25 C 82.734375 51.707031 83.402344 51.289062 84.160156 50.996094 C 84.765625 50.035156 84.601562 49.867188 83.65625 50.492188 C 82.175781 48.15625 80.167969 47.488281 77.625 48.484375 C 76.554688 49.273438 75.382812 49.941406 74.109375 50.492188 C 73.777344 48.148438 74.78125 47.144531 77.125 47.476562 C 77.003906 46.828125 77.171875 46.328125 77.625 45.972656 C 77.59375 46.191406 77.675781 46.359375 77.878906 46.472656 C 80.050781 43.980469 82.8125 42.972656 86.167969 43.457031 Z M 86.167969 43.457031 "/>
<path style=" stroke:none;fill-rule:evenodd;fill:rgb(99.607843%,87.058824%,80.784314%);fill-opacity:1;" d="M 49.492188 57.023438 C 50.496094 57.023438 51.5 57.023438 52.503906 57.023438 C 52.503906 57.695312 52.503906 58.363281 52.503906 59.035156 C 50.164062 59.367188 47.820312 59.703125 45.472656 60.039062 C 43.722656 60.34375 42.71875 59.675781 42.457031 58.027344 C 44.945312 58.21875 47.289062 57.882812 49.492188 57.023438 Z M 49.492188 57.023438 "/>
<path style=" stroke:none;fill-rule:evenodd;fill:rgb(99.607843%,67.45098%,63.529412%);fill-opacity:1;" d="M 77.625 45.972656 C 77.171875 46.328125 77.003906 46.828125 77.125 47.476562 C 74.78125 47.144531 73.777344 48.148438 74.109375 50.492188 C 72.125 52.03125 72.289062 53.453125 74.613281 54.761719 C 76.820312 55.957031 79.164062 56.292969 81.644531 55.769531 C 82.316406 55.097656 82.316406 54.429688 81.644531 53.757812 C 80.304688 53.257812 78.96875 52.753906 77.625 52.25 C 79.015625 51.984375 80.355469 51.566406 81.644531 50.996094 C 82.277344 50.109375 82.109375 49.359375 81.144531 48.734375 C 79.984375 48.484375 78.8125 48.402344 77.625 48.484375 C 80.167969 47.488281 82.175781 48.15625 83.65625 50.492188 C 84.601562 49.867188 84.765625 50.035156 84.160156 50.996094 C 83.402344 51.289062 82.734375 51.707031 82.148438 52.25 C 82.816406 53.238281 83.488281 54.242188 84.160156 55.265625 C 83.996094 56.097656 83.496094 56.597656 82.652344 56.773438 C 80.710938 57.097656 78.785156 57.011719 76.875 56.523438 C 76.453125 56.6875 76.035156 56.855469 75.617188 57.023438 C 75.679688 57.328125 75.847656 57.496094 76.121094 57.527344 C 76.210938 58.378906 76.632812 59.046875 77.375 59.535156 C 78.359375 63.949219 79.53125 68.304688 80.894531 72.597656 C 81.402344 75.328125 80.984375 77.839844 79.636719 80.136719 C 79.453125 79.535156 79.035156 79.199219 78.378906 79.128906 C 76.636719 79.929688 74.878906 80.097656 73.105469 79.632812 C 74.460938 78.082031 75.128906 76.238281 75.113281 74.105469 C 74.984375 68.398438 72.472656 64.125 67.578125 61.292969 C 66.914062 60.882812 66.578125 60.296875 66.574219 59.535156 C 67.203125 59.496094 67.621094 59.164062 67.828125 58.53125 C 68.347656 52.703125 69.4375 47.007812 71.09375 41.449219 C 72.167969 39.628906 73.757812 38.457031 75.867188 37.933594 C 76.035156 38.433594 76.203125 38.9375 76.371094 39.441406 C 76.605469 39.140625 76.6875 38.804688 76.621094 38.433594 C 77 37.078125 77.5 35.738281 78.128906 34.414062 C 79.675781 32 79.339844 29.824219 77.125 27.882812 C 76.1875 29.253906 75.683594 29.085938 75.617188 27.382812 C 76.90625 24.804688 78.328125 24.804688 79.886719 27.382812 C 80.382812 28.320312 80.632812 29.324219 80.640625 30.394531 C 79.835938 35.648438 78.832031 40.839844 77.625 45.972656 Z M 77.625 45.972656 "/>
<path style=" stroke:none;fill-rule:evenodd;fill:rgb(6.27451%,2.745098%,2.745098%);fill-opacity:1;" d="M 77.625 48.484375 C 78.8125 48.402344 79.984375 48.484375 81.144531 48.734375 C 82.109375 49.359375 82.277344 50.109375 81.644531 50.996094 C 80.355469 51.566406 79.015625 51.984375 77.625 52.25 C 78.96875 52.753906 80.304688 53.257812 81.644531 53.757812 C 82.316406 54.429688 82.316406 55.097656 81.644531 55.769531 C 79.164062 56.292969 76.820312 55.957031 74.613281 54.761719 C 72.289062 53.453125 72.125 52.03125 74.109375 50.492188 C 75.382812 49.941406 76.554688 49.273438 77.625 48.484375 Z M 77.625 48.484375 "/>
<path style=" stroke:none;fill-rule:evenodd;fill:rgb(87.058824%,86.27451%,86.27451%);fill-opacity:1;" d="M 88.679688 57.023438 C 90.019531 57.023438 91.359375 57.023438 92.699219 57.023438 C 92.8125 58.40625 92.644531 59.746094 92.199219 61.042969 C 90.554688 61.539062 88.878906 61.707031 87.171875 61.546875 C 86.988281 59.785156 87.488281 58.277344 88.679688 57.023438 Z M 88.679688 57.023438 "/>
<path style=" stroke:none;fill-rule:evenodd;fill:rgb(80.392157%,34.509804%,35.686275%);fill-opacity:1;" d="M 30.898438 40.445312 C 31.246094 50.761719 31.582031 61.148438 31.90625 71.59375 C 31.421875 71.367188 31.003906 71.03125 30.648438 70.589844 C 30.855469 60.554688 30.9375 50.503906 30.898438 40.445312 Z M 30.898438 40.445312 "/>
<path style=" stroke:none;fill-rule:evenodd;fill:rgb(84.705882%,83.529412%,83.137255%);fill-opacity:1;" d="M 94.207031 57.023438 C 96.480469 56.582031 98.152344 57.335938 99.230469 59.285156 C 99.09375 60.234375 98.589844 60.90625 97.722656 61.292969 C 93.832031 62.199219 92.660156 60.777344 94.207031 57.023438 Z M 94.207031 57.023438 "/>
<path style=" stroke:none;fill-rule:evenodd;fill:rgb(2.745098%,0.392157%,0.392157%);fill-opacity:1;" d="M 66.574219 59.535156 C 66.578125 60.296875 66.914062 60.882812 67.578125 61.292969 C 72.472656 64.125 74.984375 68.398438 75.113281 74.105469 C 73.527344 75.992188 71.515625 77.246094 69.085938 77.875 C 65.761719 78.480469 62.414062 78.734375 59.035156 78.628906 C 56.503906 77.082031 55.5 74.90625 56.023438 72.097656 C 58.199219 69.082031 60.375 66.066406 62.554688 63.054688 C 63.683594 62.226562 64.523438 61.136719 65.066406 59.789062 C 65.542969 59.542969 66.042969 59.460938 66.574219 59.535156 Z M 66.574219 59.535156 "/>
<path style=" stroke:none;fill-rule:evenodd;fill:rgb(43.529412%,35.294118%,34.509804%);fill-opacity:1;" d="M 4.773438 52.503906 C 6.726562 53.4375 8.652344 54.441406 10.550781 55.515625 C 10.71875 57.863281 10.886719 60.207031 11.054688 62.550781 C 12.617188 60.980469 14.207031 59.472656 15.828125 58.027344 C 17.34375 59.464844 18.933594 60.804688 20.601562 62.046875 C 20.851562 59.710938 20.933594 57.367188 20.851562 55.015625 C 21.019531 55.015625 21.1875 55.015625 21.355469 55.015625 C 21.628906 59.613281 21.210938 64.132812 20.097656 68.578125 C 19.710938 69.132812 19.292969 69.132812 18.839844 68.578125 C 17.6875 66.695312 16.015625 66.109375 13.816406 66.820312 C 11.457031 68.617188 11.289062 70.542969 13.316406 72.597656 C 14.445312 73.039062 15.617188 73.207031 16.832031 73.101562 C 15.914062 73.9375 14.910156 74.773438 13.816406 75.613281 C 13.0625 75.335938 12.226562 75.335938 11.304688 75.613281 C 11.304688 76.449219 11.304688 77.289062 11.304688 78.125 C 7.921875 70.816406 5.746094 63.113281 4.773438 55.015625 C 4.773438 54.175781 4.773438 53.339844 4.773438 52.503906 Z M 4.773438 52.503906 "/>
<path style=" stroke:none;fill-rule:evenodd;fill:rgb(26.27451%,5.098039%,5.882353%);fill-opacity:1;" d="M 86.167969 60.039062 C 86.203125 60.773438 86.035156 61.441406 85.664062 62.046875 C 84.324219 62.046875 82.988281 62.046875 81.644531 62.046875 C 81.644531 62.71875 81.644531 63.386719 81.644531 64.058594 C 81.242188 63.328125 80.992188 62.492188 80.894531 61.546875 C 80.640625 63.210938 80.558594 64.886719 80.640625 66.570312 C 80.152344 65.167969 79.984375 63.664062 80.140625 62.046875 C 82.070312 61.324219 84.082031 60.652344 86.167969 60.039062 Z M 86.167969 60.039062 "/>
<path style=" stroke:none;fill-rule:evenodd;fill:rgb(99.607843%,34.901961%,36.470588%);fill-opacity:1;" d="M 57.027344 62.046875 C 58.273438 62.816406 58.191406 63.652344 56.777344 64.558594 C 55.871094 63.667969 55.953125 62.832031 57.027344 62.046875 Z M 57.027344 62.046875 "/>
<path style=" stroke:none;fill-rule:evenodd;fill:rgb(86.27451%,16.470588%,28.235294%);fill-opacity:1;" d="M 85.664062 62.046875 C 85.464844 63.679688 85.128906 65.269531 84.660156 66.820312 C 82.8125 66.898438 81.804688 65.980469 81.644531 64.058594 C 81.644531 63.386719 81.644531 62.71875 81.644531 62.046875 C 82.988281 62.046875 84.324219 62.046875 85.664062 62.046875 Z M 85.664062 62.046875 "/>
<path style=" stroke:none;fill-rule:evenodd;fill:rgb(24.313725%,20.392157%,23.137255%);fill-opacity:1;" d="M 25.875 52.503906 C 25.332031 53.425781 24.914062 54.429688 24.621094 55.515625 C 24.171875 58.707031 23.667969 61.890625 23.113281 65.0625 C 22.292969 69.90625 19.863281 73.59375 15.828125 76.117188 C 14.175781 77.097656 12.667969 78.269531 11.304688 79.632812 C 11.304688 79.128906 11.304688 78.628906 11.304688 78.125 C 11.304688 77.289062 11.304688 76.449219 11.304688 75.613281 C 12.226562 75.335938 13.0625 75.335938 13.816406 75.613281 C 14.910156 74.773438 15.914062 73.9375 16.832031 73.101562 C 18.441406 72.054688 19.113281 70.546875 18.839844 68.578125 C 19.292969 69.132812 19.710938 69.132812 20.097656 68.578125 C 21.210938 64.132812 21.628906 59.613281 21.355469 55.015625 C 22.761719 54.058594 24.269531 53.21875 25.875 52.503906 Z M 25.875 52.503906 "/>
<path style=" stroke:none;fill-rule:evenodd;fill:rgb(86.27451%,83.921569%,83.529412%);fill-opacity:1;" d="M 87.171875 63.554688 C 88.511719 63.554688 89.851562 63.554688 91.191406 63.554688 C 91.777344 67.492188 90.101562 69 86.167969 68.078125 C 86.019531 66.441406 86.355469 64.933594 87.171875 63.554688 Z M 87.171875 63.554688 "/>
<path style=" stroke:none;fill-rule:evenodd;fill:rgb(87.843137%,86.27451%,85.490196%);fill-opacity:1;" d="M 92.699219 63.554688 C 94.09375 63.515625 95.433594 63.765625 96.71875 64.308594 C 98.0625 65.65625 97.894531 66.828125 96.21875 67.824219 C 94.886719 68.074219 93.546875 68.160156 92.199219 68.078125 C 92.078125 66.515625 92.246094 65.007812 92.699219 63.554688 Z M 92.699219 63.554688 "/>
<path style=" stroke:none;fill-rule:evenodd;fill:rgb(98.431373%,38.823529%,40.392157%);fill-opacity:1;" d="M 76.621094 21.351562 C 81.953125 22.988281 84.132812 26.503906 83.152344 31.902344 C 81.125 35.15625 80.457031 38.675781 81.144531 42.453125 C 81.679688 42.921875 82.351562 43.089844 83.152344 42.957031 C 84.277344 42.808594 85.28125 42.976562 86.167969 43.457031 C 82.8125 42.972656 80.050781 43.980469 77.878906 46.472656 C 77.675781 46.359375 77.59375 46.191406 77.625 45.972656 C 78.832031 40.839844 79.835938 35.648438 80.640625 30.394531 C 80.632812 29.324219 80.382812 28.320312 79.886719 27.382812 C 78.328125 24.804688 76.90625 24.804688 75.617188 27.382812 C 75.316406 28.085938 74.8125 28.585938 74.109375 28.890625 C 72.757812 27.878906 71.25 27.125 69.585938 26.628906 C 66.238281 26.292969 62.890625 26.292969 59.539062 26.628906 C 56.367188 28.191406 55.363281 30.621094 56.523438 33.914062 C 56.691406 34.246094 56.859375 34.582031 57.027344 34.917969 C 55.90625 35.195312 55.070312 35.867188 54.515625 36.925781 C 52.328125 34.90625 50.148438 32.898438 47.984375 30.898438 C 45.890625 29.460938 43.546875 29.042969 40.949219 29.640625 C 40.21875 30.203125 39.382812 30.539062 38.4375 30.648438 C 37.894531 31.316406 37.558594 32.070312 37.433594 32.910156 C 36.4375 34.632812 35.683594 36.476562 35.171875 38.433594 C 34.160156 43.308594 33.074219 48.164062 31.90625 53.003906 C 32.105469 53.859375 32.355469 54.695312 32.660156 55.515625 C 32.824219 59.367188 32.992188 63.21875 33.160156 67.074219 C 34.777344 72.460938 38.378906 74.972656 43.964844 74.609375 C 43.964844 75.277344 43.964844 75.949219 43.964844 76.617188 C 45.214844 76.71875 46.386719 76.46875 47.480469 75.863281 C 49.449219 73.394531 51.210938 70.800781 52.757812 68.078125 C 52.390625 70.308594 51.972656 72.570312 51.5 74.859375 C 51.789062 77.199219 52.792969 79.125 54.515625 80.636719 C 52.367188 80.996094 49.855469 81.332031 46.976562 81.640625 C 47.039062 81.949219 47.207031 82.113281 47.480469 82.144531 C 46.945312 82.613281 46.273438 82.78125 45.472656 82.648438 C 42.761719 81.945312 40.414062 80.605469 38.4375 78.628906 C 35.917969 76.613281 33.742188 74.265625 31.90625 71.59375 C 31.582031 61.148438 31.246094 50.761719 30.898438 40.445312 C 31.058594 38.332031 30.890625 36.324219 30.398438 34.414062 C 30.441406 33.914062 30.273438 33.496094 29.894531 33.160156 C 33.714844 28.582031 38.238281 24.984375 43.460938 22.359375 C 46.703125 23.191406 50.050781 23.609375 53.507812 23.613281 C 50.917969 27.179688 50.917969 30.78125 53.507812 34.414062 C 53.925781 34.859375 54.425781 35.027344 55.015625 34.917969 C 54.5 31.921875 54.414062 28.90625 54.765625 25.875 C 56.160156 24.210938 57.921875 23.125 60.042969 22.609375 C 65.050781 22.085938 69.988281 22.335938 74.863281 23.363281 C 76.25 23.402344 76.835938 22.730469 76.621094 21.351562 Z M 76.621094 21.351562 "/>
<path style=" stroke:none;fill-rule:evenodd;fill:rgb(78.039216%,14.509804%,23.529412%);fill-opacity:1;" d="M 56.523438 33.914062 C 57.976562 34.609375 59.234375 35.613281 60.292969 36.925781 C 61.960938 39.511719 63.886719 41.859375 66.070312 43.960938 C 65.675781 44.765625 65.003906 45.101562 64.0625 44.964844 C 61.722656 41.636719 59.378906 38.285156 57.027344 34.917969 C 56.859375 34.582031 56.691406 34.246094 56.523438 33.914062 Z M 56.523438 33.914062 "/>
<path style=" stroke:none;fill-rule:evenodd;fill:rgb(100%,43.921569%,42.352941%);fill-opacity:1;" d="M 48.988281 36.925781 C 49.515625 36.851562 50.019531 36.9375 50.496094 37.179688 C 51.714844 38.734375 53.222656 39.90625 55.015625 40.695312 C 55.773438 41.117188 56.027344 41.703125 55.769531 42.453125 C 52.953125 41.222656 50.695312 39.382812 48.988281 36.925781 Z M 48.988281 36.925781 "/>
<path style=" stroke:none;fill-rule:evenodd;fill:rgb(99.607843%,40.392157%,43.137255%);fill-opacity:1;" d="M 78.128906 34.414062 C 77.5 35.738281 77 37.078125 76.621094 38.433594 C 76.636719 37.933594 76.386719 37.597656 75.867188 37.429688 C 75.132812 37.847656 74.378906 37.929688 73.605469 37.679688 C 74.554688 36.203125 75.308594 34.613281 75.867188 32.910156 C 76.433594 33.734375 77.1875 34.234375 78.128906 34.414062 Z M 78.128906 34.414062 "/>
<path style=" stroke:none;fill-rule:evenodd;fill:rgb(99.215686%,54.509804%,55.294118%);fill-opacity:1;" d="M 75.617188 27.382812 C 75.683594 29.085938 76.1875 29.253906 77.125 27.882812 C 79.339844 29.824219 79.675781 32 78.128906 34.414062 C 77.1875 34.234375 76.433594 33.734375 75.867188 32.910156 C 75.308594 34.613281 74.554688 36.203125 73.605469 37.679688 C 74.378906 37.929688 75.132812 37.847656 75.867188 37.429688 C 76.386719 37.597656 76.636719 37.933594 76.621094 38.433594 C 76.6875 38.804688 76.605469 39.140625 76.371094 39.441406 C 76.203125 38.9375 76.035156 38.433594 75.867188 37.933594 C 73.757812 38.457031 72.167969 39.628906 71.09375 41.449219 C 70.921875 41.027344 70.589844 40.859375 70.089844 40.945312 C 73.332031 38.148438 74.925781 34.632812 74.863281 30.394531 C 74.605469 29.878906 74.355469 29.378906 74.109375 28.890625 C 74.8125 28.585938 75.316406 28.085938 75.617188 27.382812 Z M 75.617188 27.382812 "/>
<path style=" stroke:none;fill-rule:evenodd;fill:rgb(100%,53.333333%,49.411765%);fill-opacity:1;" d="M 47.984375 30.898438 C 44.324219 30.851562 40.808594 31.519531 37.433594 32.910156 C 37.558594 32.070312 37.894531 31.316406 38.4375 30.648438 C 39.382812 30.539062 40.21875 30.203125 40.949219 29.640625 C 43.546875 29.042969 45.890625 29.460938 47.984375 30.898438 Z M 47.984375 30.898438 "/>
<path style=" stroke:none;fill-rule:evenodd;fill:rgb(2.352941%,0.392157%,0.392157%);fill-opacity:1;" d="M 74.109375 28.890625 C 74.355469 29.378906 74.605469 29.878906 74.863281 30.394531 C 74.925781 34.632812 73.332031 38.148438 70.089844 40.945312 C 68.617188 41.746094 67.277344 42.75 66.070312 43.960938 C 63.886719 41.859375 61.960938 39.511719 60.292969 36.925781 C 59.234375 35.613281 57.976562 34.609375 56.523438 33.914062 C 55.363281 30.621094 56.367188 28.191406 59.539062 26.628906 C 62.890625 26.292969 66.238281 26.292969 69.585938 26.628906 C 71.25 27.125 72.757812 27.878906 74.109375 28.890625 Z M 74.109375 28.890625 "/>
<path style=" stroke:none;fill-rule:evenodd;fill:rgb(72.54902%,68.627451%,68.627451%);fill-opacity:1;" d="M 4.773438 55.015625 C 5.746094 63.113281 7.921875 70.816406 11.304688 78.125 C 11.304688 78.628906 11.304688 79.128906 11.304688 79.632812 C 9.480469 77.328125 8.058594 74.480469 7.035156 71.089844 C 5.46875 66.507812 4.378906 61.820312 3.769531 57.023438 C 3.632812 56.078125 3.96875 55.410156 4.773438 55.015625 Z M 4.773438 55.015625 "/>
<path style=" stroke:none;fill-rule:evenodd;fill:rgb(90.980392%,34.901961%,35.686275%);fill-opacity:1;" d="M 76.121094 57.527344 C 77.863281 58.761719 79.203125 60.269531 80.140625 62.046875 C 79.984375 63.664062 80.152344 65.167969 80.640625 66.570312 C 81.300781 69.636719 82.304688 72.570312 83.65625 75.363281 C 83.226562 78.996094 81.382812 81.59375 78.128906 83.148438 C 78.074219 82.839844 77.90625 82.589844 77.625 82.394531 C 78.402344 81.707031 79.070312 80.953125 79.636719 80.136719 C 80.984375 77.839844 81.402344 75.328125 80.894531 72.597656 C 79.53125 68.304688 78.359375 63.949219 77.375 59.535156 C 76.632812 59.046875 76.210938 58.378906 76.121094 57.527344 Z M 76.121094 57.527344 "/>
<path style=" stroke:none;fill-rule:evenodd;fill:rgb(97.254902%,76.470588%,40.784314%);fill-opacity:1;" d="M 18.839844 68.578125 C 19.113281 70.546875 18.441406 72.054688 16.832031 73.101562 C 15.617188 73.207031 14.445312 73.039062 13.316406 72.597656 C 11.289062 70.542969 11.457031 68.617188 13.816406 66.820312 C 16.015625 66.109375 17.6875 66.695312 18.839844 68.578125 Z M 18.839844 68.578125 "/>
<path style=" stroke:none;fill-rule:evenodd;fill:rgb(89.019608%,84.313725%,80.392157%);fill-opacity:1;" d="M 85.164062 70.085938 C 87.351562 70.21875 89.527344 70.472656 91.695312 70.839844 C 93.09375 72.230469 92.925781 73.40625 91.191406 74.359375 C 87.132812 75.734375 85.121094 74.308594 85.164062 70.085938 Z M 85.164062 70.085938 "/>
<path style=" stroke:none;fill-rule:evenodd;fill:rgb(98.431373%,51.372549%,50.196078%);fill-opacity:1;" d="M 56.023438 72.097656 C 55.5 74.90625 56.503906 77.082031 59.035156 78.628906 C 59.460938 79.46875 60.128906 80.054688 61.046875 80.386719 C 63.886719 80.636719 66.734375 80.722656 69.585938 80.636719 C 65.96875 81.28125 62.285156 81.28125 58.535156 80.636719 C 57.511719 79.929688 56.425781 79.261719 55.269531 78.628906 C 55.03125 77.75 54.695312 76.914062 54.261719 76.117188 C 53.722656 74.203125 54.054688 72.53125 55.269531 71.089844 C 55.40625 71.550781 55.660156 71.886719 56.023438 72.097656 Z M 56.023438 72.097656 "/>
<use xlink:href="#surface17" mask="url(#mask4)"/>
<path style=" stroke:none;fill-rule:evenodd;fill:rgb(69.411765%,68.627451%,67.45098%);fill-opacity:1;" d="M 34.417969 89.179688 C 34.976562 88.453125 35.058594 87.613281 34.667969 86.667969 C 33.808594 85.972656 33.136719 85.136719 32.660156 84.15625 C 31.730469 85.253906 30.976562 85.253906 30.398438 84.15625 C 32.3125 83.78125 32.3125 83.277344 30.398438 82.648438 C 30.453125 82.335938 30.621094 82.085938 30.898438 81.894531 C 28.90625 79.476562 26.5625 77.550781 23.867188 76.117188 C 23.113281 76.09375 22.609375 76.425781 22.359375 77.121094 C 23.4375 78.453125 24.609375 79.707031 25.875 80.890625 C 25.597656 81.082031 25.429688 81.332031 25.375 81.640625 C 23.636719 79.738281 21.628906 78.230469 19.34375 77.121094 C 21.589844 74.449219 24.4375 73.023438 27.886719 72.851562 C 31.472656 75.933594 34.902344 79.199219 38.183594 82.648438 C 38.566406 84.054688 38.398438 85.394531 37.683594 86.667969 C 36.667969 87.597656 35.75 88.601562 34.917969 89.679688 C 34.613281 89.617188 34.445312 89.453125 34.417969 89.179688 Z M 34.417969 89.179688 "/>
<path style=" stroke:none;fill-rule:evenodd;fill:rgb(96.862745%,35.686275%,36.470588%);fill-opacity:1;" d="M 75.113281 74.105469 C 75.128906 76.238281 74.460938 78.082031 73.105469 79.632812 C 72.054688 80.355469 70.882812 80.691406 69.585938 80.636719 C 66.734375 80.722656 63.886719 80.636719 61.046875 80.386719 C 60.128906 80.054688 59.460938 79.46875 59.035156 78.628906 C 62.414062 78.734375 65.761719 78.480469 69.085938 77.875 C 71.515625 77.246094 73.527344 75.992188 75.113281 74.105469 Z M 75.113281 74.105469 "/>
<path style=" stroke:none;fill-rule:evenodd;fill:rgb(92.941176%,91.372549%,88.235294%);fill-opacity:1;" d="M 18.339844 77.625 C 20.164062 79.210938 22.007812 80.800781 23.867188 82.394531 C 23.035156 83.121094 22.699219 84.042969 22.859375 85.160156 C 24.699219 84.925781 26.375 85.261719 27.886719 86.164062 C 27.886719 86.332031 27.886719 86.5 27.886719 86.667969 C 27.246094 88.878906 25.824219 90.386719 23.613281 91.1875 C 23.179688 92.851562 23.765625 94.023438 25.375 94.707031 C 26.761719 94.554688 28.019531 94.054688 29.140625 93.199219 C 29.292969 92.410156 29.039062 91.742188 28.386719 91.1875 C 28.722656 90.183594 29.058594 89.179688 29.394531 88.175781 C 30.71875 89.339844 32.226562 90.261719 33.914062 90.9375 C 33.636719 91.128906 33.46875 91.378906 33.414062 91.691406 C 30.898438 94.035156 28.386719 96.378906 25.875 98.726562 C 23.949219 98.0625 22.359375 96.890625 21.101562 95.207031 C 18.398438 92 15.882812 88.652344 13.566406 85.160156 C 13.230469 84.488281 13.230469 83.820312 13.566406 83.148438 C 14.164062 81.949219 14.75 80.777344 15.324219 79.632812 C 16.328125 78.964844 17.335938 78.292969 18.339844 77.625 Z M 18.339844 77.625 "/>
<path style=" stroke:none;fill-rule:evenodd;fill:rgb(99.607843%,86.27451%,81.568627%);fill-opacity:1;" d="M 79.636719 80.136719 C 79.070312 80.953125 78.402344 81.707031 77.625 82.394531 C 77.90625 82.589844 78.074219 82.839844 78.128906 83.148438 C 77.285156 83.347656 76.449219 83.597656 75.617188 83.902344 C 70.09375 84.15625 64.566406 84.238281 59.035156 84.15625 C 58.535156 84.15625 58.03125 84.15625 57.527344 84.15625 C 54.25 83.394531 50.902344 82.722656 47.480469 82.144531 C 47.207031 82.113281 47.039062 81.949219 46.976562 81.640625 C 49.855469 81.332031 52.367188 80.996094 54.515625 80.636719 C 55.761719 80.257812 57.101562 80.257812 58.535156 80.636719 C 62.285156 81.28125 65.96875 81.28125 69.585938 80.636719 C 70.882812 80.691406 72.054688 80.355469 73.105469 79.632812 C 74.878906 80.097656 76.636719 79.929688 78.378906 79.128906 C 79.035156 79.199219 79.453125 79.535156 79.636719 80.136719 Z M 79.636719 80.136719 "/>
<use xlink:href="#surface20" mask="url(#mask5)"/>
<use xlink:href="#surface23" mask="url(#mask6)"/>
<path style=" stroke:none;fill-rule:evenodd;fill:rgb(82.352941%,52.941176%,47.843137%);fill-opacity:1;" d="M 47.480469 82.144531 C 50.902344 82.722656 54.25 83.394531 57.527344 84.15625 C 54.019531 83.871094 50.5 83.617188 46.976562 83.402344 C 46.355469 83.285156 45.855469 83.03125 45.472656 82.648438 C 46.273438 82.78125 46.945312 82.613281 47.480469 82.144531 Z M 47.480469 82.144531 "/>
<path style=" stroke:none;fill-rule:evenodd;fill:rgb(34.117647%,33.333333%,32.156863%);fill-opacity:1;" d="M 30.398438 82.648438 C 32.3125 83.277344 32.3125 83.78125 30.398438 84.15625 C 29.832031 83.730469 29.832031 83.226562 30.398438 82.648438 Z M 30.398438 82.648438 "/>
<path style=" stroke:none;fill-rule:evenodd;fill:rgb(18.431373%,17.254902%,16.470588%);fill-opacity:1;" d="M 18.339844 77.625 C 18.511719 77.203125 18.84375 77.035156 19.34375 77.121094 C 21.628906 78.230469 23.636719 79.738281 25.375 81.640625 C 26.449219 82.929688 27.621094 84.101562 28.890625 85.160156 C 28.21875 85.160156 27.886719 85.496094 27.886719 86.164062 C 26.375 85.261719 24.699219 84.925781 22.859375 85.160156 C 22.699219 84.042969 23.035156 83.121094 23.867188 82.394531 C 22.007812 80.800781 20.164062 79.210938 18.339844 77.625 Z M 18.339844 77.625 "/>
<path style=" stroke:none;fill-rule:evenodd;fill:rgb(81.176471%,26.666667%,30.196078%);fill-opacity:1;" d="M 70.089844 87.167969 C 70.089844 87.335938 70.089844 87.503906 70.089844 87.671875 C 66.902344 87.589844 63.722656 87.671875 60.542969 87.921875 C 60.375 88.089844 60.207031 88.257812 60.042969 88.425781 C 60.664062 88.542969 61.164062 88.792969 61.546875 89.179688 C 60.605469 89.042969 59.933594 89.378906 59.539062 90.183594 C 58.84375 89.183594 59.011719 88.261719 60.042969 87.421875 C 63.445312 86.578125 66.796875 86.492188 70.089844 87.167969 Z M 70.089844 87.167969 "/>
<path style=" stroke:none;fill-rule:evenodd;fill:rgb(86.666667%,85.882353%,83.921569%);fill-opacity:1;" d="M 30.398438 82.648438 C 29.832031 83.226562 29.832031 83.730469 30.398438 84.15625 C 30.976562 85.253906 31.730469 85.253906 32.660156 84.15625 C 33.136719 85.136719 33.808594 85.972656 34.667969 86.667969 C 35.058594 87.613281 34.976562 88.453125 34.417969 89.179688 C 32.300781 88.238281 30.460938 86.898438 28.890625 85.160156 C 27.621094 84.101562 26.449219 82.929688 25.375 81.640625 C 25.429688 81.332031 25.597656 81.082031 25.875 80.890625 C 24.609375 79.707031 23.4375 78.453125 22.359375 77.121094 C 22.609375 76.425781 23.113281 76.09375 23.867188 76.117188 C 26.5625 77.550781 28.90625 79.476562 30.898438 81.894531 C 30.621094 82.085938 30.453125 82.335938 30.398438 82.648438 Z M 30.398438 82.648438 "/>
<path style=" stroke:none;fill-rule:evenodd;fill:rgb(95.294118%,9.803922%,25.098039%);fill-opacity:1;" d="M 70.089844 87.671875 C 69.761719 88.644531 69.597656 89.648438 69.585938 90.6875 C 68.527344 91.171875 67.355469 91.339844 66.070312 91.1875 C 64.523438 90.667969 63.015625 89.996094 61.546875 89.179688 C 61.164062 88.792969 60.664062 88.542969 60.042969 88.425781 C 60.207031 88.257812 60.375 88.089844 60.542969 87.921875 C 63.722656 87.671875 66.902344 87.589844 70.089844 87.671875 Z M 70.089844 87.671875 "/>
<path style=" stroke:none;fill-rule:evenodd;fill:rgb(37.254902%,2.745098%,6.27451%);fill-opacity:1;" d="M 70.089844 87.167969 C 70.570312 87.398438 70.992188 87.730469 71.347656 88.175781 C 71.683594 87.796875 72.101562 87.628906 72.601562 87.671875 C 72.089844 89.191406 71.085938 90.195312 69.585938 90.6875 C 69.597656 89.648438 69.761719 88.644531 70.089844 87.671875 C 70.089844 87.503906 70.089844 87.335938 70.089844 87.167969 Z M 70.089844 87.167969 "/>
<path style=" stroke:none;fill-rule:evenodd;fill:rgb(97.647059%,47.843137%,50.980392%);fill-opacity:1;" d="M 76.121094 86.164062 C 75.902344 88.609375 74.898438 90.621094 73.105469 92.191406 C 72.949219 91.703125 72.613281 91.367188 72.101562 91.1875 C 71.429688 91.523438 70.761719 91.859375 70.089844 92.191406 C 68.679688 91.902344 67.339844 91.566406 66.070312 91.1875 C 67.355469 91.339844 68.527344 91.171875 69.585938 90.6875 C 71.085938 90.195312 72.089844 89.191406 72.601562 87.671875 C 73.570312 86.769531 74.742188 86.269531 76.121094 86.164062 Z M 76.121094 86.164062 "/>
<path style=" stroke:none;fill-rule:evenodd;fill:rgb(76.470588%,71.764706%,66.666667%);fill-opacity:1;" d="M 27.886719 86.667969 C 28.554688 87 29.058594 87.503906 29.394531 88.175781 C 29.058594 89.179688 28.722656 90.183594 28.386719 91.1875 C 26.347656 91.417969 25.34375 92.589844 25.375 94.707031 C 23.765625 94.023438 23.179688 92.851562 23.613281 91.1875 C 25.824219 90.386719 27.246094 88.878906 27.886719 86.667969 Z M 27.886719 86.667969 "/>
<path style=" stroke:none;fill-rule:evenodd;fill:rgb(17.254902%,16.078431%,16.078431%);fill-opacity:1;" d="M 28.386719 91.1875 C 29.039062 91.742188 29.292969 92.410156 29.140625 93.199219 C 28.019531 94.054688 26.761719 94.554688 25.375 94.707031 C 25.34375 92.589844 26.347656 91.417969 28.386719 91.1875 Z M 28.386719 91.1875 "/>
<path style=" stroke:none;fill-rule:evenodd;fill:rgb(98.431373%,70.980392%,62.745098%);fill-opacity:1;" d="M 61.546875 89.179688 C 63.015625 89.996094 64.523438 90.667969 66.070312 91.1875 C 67.339844 91.566406 68.679688 91.902344 70.089844 92.191406 C 70.761719 91.859375 71.429688 91.523438 72.101562 91.1875 C 72.613281 91.367188 72.949219 91.703125 73.105469 92.191406 C 68.320312 95.136719 63.800781 94.800781 59.539062 91.1875 C 59.539062 90.851562 59.539062 90.519531 59.539062 90.183594 C 59.933594 89.378906 60.605469 89.042969 61.546875 89.179688 Z M 61.546875 89.179688 "/>
<path style=" stroke:none;fill-rule:evenodd;fill:rgb(18.431373%,18.039216%,17.647059%);fill-opacity:1;" d="M 41.453125 84.65625 C 41.53125 85.511719 41.449219 86.347656 41.199219 87.167969 C 37.4375 91.265625 33.335938 95.03125 28.890625 98.472656 C 28.136719 98.726562 27.382812 98.976562 26.628906 99.226562 C 26.246094 99.191406 25.992188 99.023438 25.875 98.726562 C 28.386719 96.378906 30.898438 94.035156 33.414062 91.691406 C 33.46875 92 33.636719 92.253906 33.914062 92.445312 C 32.910156 93.449219 31.90625 94.453125 30.898438 95.457031 C 31.234375 95.792969 31.570312 95.792969 31.90625 95.457031 C 35.207031 91.910156 38.386719 88.308594 41.453125 84.65625 Z M 41.453125 84.65625 "/>
<path style=" stroke:none;fill-rule:evenodd;fill:rgb(86.666667%,84.705882%,82.745098%);fill-opacity:1;" d="M 41.953125 94.203125 C 40.089844 96.066406 38.414062 98.074219 36.929688 100.230469 C 35.414062 100.0625 34.074219 99.476562 32.910156 98.472656 C 35.320312 96.566406 37.582031 94.472656 39.691406 92.191406 C 40.53125 92.8125 41.285156 93.484375 41.953125 94.203125 Z M 41.953125 94.203125 "/>
<use xlink:href="#surface26" mask="url(#mask7)"/>
<use xlink:href="#surface29" mask="url(#mask8)"/>
<path style=" stroke:none;fill-rule:evenodd;fill:rgb(60.392157%,60%,58.823529%);fill-opacity:1;" d="M 41.953125 94.203125 C 43.199219 94.5 43.949219 95.171875 44.214844 96.210938 C 42.609375 97.816406 41.019531 99.40625 39.441406 100.984375 C 38.417969 101.285156 37.582031 101.035156 36.929688 100.230469 C 38.414062 98.074219 40.089844 96.066406 41.953125 94.203125 Z M 41.953125 94.203125 "/>
</g>
</svg>
