<?xml version="1.0" encoding="UTF-8"?>
<svg xmlns="http://www.w3.org/2000/svg" xmlns:xlink="http://www.w3.org/1999/xlink" width="px" height="px" viewBox="0 0 98 103" version="1.1">
<defs>
<filter id="alpha" filterUnits="objectBoundingBox" x="0%" y="0%" width="100%" height="100%">
  <feColorMatrix type="matrix" in="SourceGraphic" values="0 0 0 0 1 0 0 0 0 1 0 0 0 0 1 0 0 0 1 0"/>
</filter>
<mask id="mask0">
  <g filter="url(#alpha)">
<rect x="0" y="0" width="98" height="103" style="fill:rgb(0%,0%,0%);fill-opacity:0.0313725;stroke:none;"/>
  </g>
</mask>
<clipPath id="clip1">
  <rect x="0" y="0" width="98" height="103"/>
</clipPath>
<g id="surface5" clip-path="url(#clip1)">
<path style=" stroke:none;fill-rule:evenodd;fill:rgb(14.509804%,18.823529%,24.313725%);fill-opacity:1;" d="M 82.25 24.132812 C 84.375 25.820312 86.710938 25.988281 89.25 24.628906 C 90.546875 25.175781 91.628906 26.003906 92.5 27.117188 C 92.917969 29.109375 93.332031 31.097656 93.75 33.089844 C 96.175781 34.859375 97.007812 37.179688 96.25 40.054688 C 97.40625 42.597656 97.574219 45.253906 96.75 48.015625 C 96.9375 49.121094 97.273438 50.113281 97.75 51.003906 C 97.75 51.5 97.75 51.996094 97.75 52.496094 C 97.300781 56.398438 96.886719 60.378906 96.5 64.4375 C 96.085938 66.335938 95.085938 67.832031 93.5 68.914062 C 93.59375 75.640625 90.59375 77.796875 84.5 75.382812 C 82.523438 78.597656 79.941406 81.25 76.75 83.34375 C 75.121094 91.949219 69.953125 95.679688 61.25 94.542969 C 60.527344 94.351562 60.027344 93.9375 59.75 93.296875 C 68.753906 95.332031 74.003906 91.847656 75.5 82.847656 C 79.203125 80.65625 82.035156 77.671875 84 73.890625 C 90.730469 77.246094 93.480469 75.089844 92.25 67.421875 C 93.644531 67.445312 94.5625 66.785156 95 65.433594 C 95.164062 62.816406 95.578125 60.242188 96.25 57.71875 C 96.234375 53.152344 96.234375 48.59375 96.25 44.035156 C 95.597656 41.4375 95.179688 38.78125 95 36.074219 C 94.453125 34.699219 93.453125 33.871094 92 33.585938 C 93.207031 26.238281 90.457031 24.082031 83.75 27.117188 C 82.980469 26.25 82.480469 25.253906 82.25 24.132812 Z M 82.25 24.132812 "/>
</g>
</defs>
<g id="surface1">
<path style=" stroke:none;fill-rule:evenodd;fill:rgb(0.784314%,0.392157%,0.784314%);fill-opacity:1;" d="M 35.75 7.710938 C 36.34375 8.554688 36.257812 9.386719 35.5 10.199219 C 34.652344 11.292969 33.902344 12.457031 33.25 13.683594 C 33 14.191406 32.664062 14.273438 32.25 13.933594 C 29.769531 10.734375 28.019531 7.167969 27 3.234375 C 26.644531 2.796875 26.230469 2.464844 25.75 2.238281 C 25.65625 1.441406 25.90625 0.777344 26.5 0.25 C 29.664062 2.652344 32.75 5.140625 35.75 7.710938 Z M 35.75 7.710938 "/>
<path style=" stroke:none;fill-rule:evenodd;fill:rgb(1.960784%,1.960784%,2.745098%);fill-opacity:1;" d="M 39.75 -0.25 C 40.082031 -0.25 40.417969 -0.25 40.75 -0.25 C 46.203125 2.429688 51.121094 5.914062 55.5 10.199219 C 61.96875 5.320312 68.136719 5.652344 74 11.195312 C 75.328125 13.34375 76.164062 15.664062 76.5 18.160156 C 78.855469 19.757812 80.773438 21.75 82.25 24.132812 C 82.480469 25.253906 82.980469 26.25 83.75 27.117188 C 90.457031 24.082031 93.207031 26.238281 92 33.585938 C 93.453125 33.871094 94.453125 34.699219 95 36.074219 C 95.179688 38.78125 95.597656 41.4375 96.25 44.035156 C 96.234375 48.59375 96.234375 53.152344 96.25 57.71875 C 95.578125 60.242188 95.164062 62.816406 95 65.433594 C 94.5625 66.785156 93.644531 67.445312 92.25 67.421875 C 93.480469 75.089844 90.730469 77.246094 84 73.890625 C 82.035156 77.671875 79.203125 80.65625 75.5 82.847656 C 74.003906 91.847656 68.753906 95.332031 59.75 93.296875 C 58.285156 92.503906 56.949219 91.511719 55.75 90.3125 C 54.855469 91.453125 53.855469 92.53125 52.75 93.546875 C 49.234375 95.957031 45.734375 98.359375 42.25 100.761719 C 41.371094 100.949219 40.539062 101.28125 39.75 101.757812 C 39.21875 101.296875 39.21875 100.796875 39.75 100.261719 C 42.664062 98.277344 45.414062 96.121094 48 93.792969 C 48.332031 93.460938 48.332031 93.132812 48 92.800781 C 47.109375 91.90625 46.195312 91.078125 45.25 90.3125 C 45.875 89.40625 46.207031 88.410156 46.25 87.324219 C 44.078125 87.296875 42.410156 86.386719 41.25 84.589844 C 37.800781 83.480469 34.886719 81.570312 32.5 78.867188 C 30.917969 76.960938 29.332031 75.050781 27.75 73.144531 C 26.761719 72.898438 25.761719 72.816406 24.75 72.894531 C 24.863281 69.070312 24.113281 65.421875 22.5 61.949219 C 21.136719 61.109375 19.71875 60.363281 18.25 59.710938 C 17.597656 59.308594 17.265625 58.730469 17.25 57.96875 C 18.261719 55.066406 19.761719 52.496094 21.75 50.257812 C 20.578125 49.253906 19.578125 48.09375 18.75 46.773438 C 18.9375 45.425781 19.6875 44.511719 21 44.035156 C 21.082031 43.539062 21.167969 43.042969 21.25 42.542969 C 20.617188 40.949219 20.28125 39.289062 20.25 37.566406 C 22.316406 37.335938 23.316406 36.175781 23.25 34.085938 C 23.195312 31.757812 22.359375 29.769531 20.75 28.113281 C 22.867188 27.953125 25.035156 27.953125 27.25 28.113281 C 26.503906 24.398438 24.167969 22.742188 20.25 23.136719 C 19.144531 23.816406 17.980469 24.398438 16.75 24.878906 C 14.417969 25.046875 12.082031 25.210938 9.75 25.375 C 5.871094 30.855469 3.457031 36.910156 2.5 43.539062 C 2.167969 48.679688 2.167969 53.820312 2.5 58.964844 C 2.605469 59.738281 2.855469 60.402344 3.25 60.953125 C 3.394531 64.027344 4.230469 66.847656 5.75 69.414062 C 6.621094 72.316406 8.121094 74.804688 10.25 76.875 C 12.386719 79.914062 14.96875 82.566406 18 84.839844 C 20.441406 89.363281 22.605469 94.007812 24.5 98.769531 C 27.179688 94.101562 29.011719 89.125 30 83.84375 C 31.148438 85.484375 32.480469 86.976562 34 88.320312 C 34.625 89.570312 34.875 90.898438 34.75 92.300781 C 31.28125 94.835938 27.863281 97.492188 24.5 100.261719 C 21.453125 95.695312 18.785156 90.882812 16.5 85.832031 C 9.507812 81.222656 4.675781 74.921875 2 66.925781 C 1.078125 63.746094 0.328125 60.59375 -0.25 57.472656 C -0.25 53.65625 -0.25 49.839844 -0.25 46.027344 C 0.777344 38.238281 3.359375 30.941406 7.5 24.132812 C 8.167969 23.46875 8.832031 22.804688 9.5 22.140625 C 10.597656 17.949219 11.847656 13.804688 13.25 9.703125 C 13.5 9.195312 13.835938 9.113281 14.25 9.453125 C 15 10.613281 15.832031 11.691406 16.75 12.6875 C 15.804688 12.789062 15.054688 12.457031 14.5 11.691406 C 13.308594 14.5625 12.558594 17.546875 12.25 20.648438 C 15.339844 20.992188 18.175781 20.328125 20.75 18.660156 C 19.890625 17.316406 19.058594 15.988281 18.25 14.679688 C 18.917969 15.175781 19.582031 15.675781 20.25 16.171875 C 21.703125 17.875 22.871094 19.78125 23.75 21.894531 C 25.601562 23.152344 27.601562 23.816406 29.75 23.882812 C 33.433594 20.765625 37.515625 18.363281 42 16.667969 C 42.375 16.105469 42.292969 15.605469 41.75 15.175781 C 40.308594 14.523438 38.808594 14.023438 37.25 13.683594 C 38.234375 11.539062 39.902344 10.378906 42.25 10.199219 C 42.269531 8.867188 41.9375 7.621094 41.25 6.46875 C 41.617188 5.589844 42.28125 5.007812 43.25 4.726562 C 42.277344 3.355469 41.113281 2.195312 39.75 1.242188 C 39.75 0.746094 39.75 0.25 39.75 -0.25 Z M 39.75 -0.25 "/>
<path style=" stroke:none;fill-rule:evenodd;fill:rgb(12.54902%,5.490196%,6.666667%);fill-opacity:1;" d="M 39.75 1.242188 C 41.113281 2.195312 42.277344 3.355469 43.25 4.726562 C 42.28125 5.007812 41.617188 5.589844 41.25 6.46875 C 41.9375 7.621094 42.269531 8.867188 42.25 10.199219 C 39.902344 10.378906 38.234375 11.539062 37.25 13.683594 C 38.808594 14.023438 40.308594 14.523438 41.75 15.175781 C 42.292969 15.605469 42.375 16.105469 42 16.667969 C 37.515625 18.363281 33.433594 20.765625 29.75 23.882812 C 27.601562 23.816406 25.601562 23.152344 23.75 21.894531 C 22.871094 19.78125 21.703125 17.875 20.25 16.171875 C 21.886719 11.453125 23.71875 6.808594 25.75 2.238281 C 26.230469 2.464844 26.644531 2.796875 27 3.234375 C 28.019531 7.167969 29.769531 10.734375 32.25 13.933594 C 32.664062 14.273438 33 14.191406 33.25 13.683594 C 33.902344 12.457031 34.652344 11.292969 35.5 10.199219 C 36.257812 9.386719 36.34375 8.554688 35.75 7.710938 C 36.246094 7.753906 36.664062 7.589844 37 7.214844 C 37.804688 5.121094 38.722656 3.128906 39.75 1.242188 Z M 39.75 1.242188 "/>
<path style=" stroke:none;fill-rule:evenodd;fill:rgb(20%,57.647059%,67.058824%);fill-opacity:1;" d="M 69.25 10.199219 C 64.757812 11.359375 60.425781 13.019531 56.25 15.175781 C 57.050781 10.984375 59.632812 8.828125 64 8.707031 C 65.894531 8.757812 67.644531 9.253906 69.25 10.199219 Z M 69.25 10.199219 "/>
<path style=" stroke:none;fill-rule:evenodd;fill:rgb(13.72549%,30.196078%,38.823529%);fill-opacity:1;" d="M 69.25 10.199219 C 71.761719 11.714844 72.761719 13.871094 72.25 16.667969 C 70.679688 15.863281 69.015625 15.367188 67.25 15.175781 C 63.796875 16.085938 60.296875 16.332031 56.75 15.921875 C 56.472656 15.730469 56.304688 15.484375 56.25 15.175781 C 60.425781 13.019531 64.757812 11.359375 69.25 10.199219 Z M 69.25 10.199219 "/>
<path style=" stroke:none;fill-rule:evenodd;fill:rgb(11.764706%,4.313725%,5.098039%);fill-opacity:1;" d="M 16.75 12.6875 C 17.632812 13.066406 18.132812 13.730469 18.25 14.679688 C 19.058594 15.988281 19.890625 17.316406 20.75 18.660156 C 18.175781 20.328125 15.339844 20.992188 12.25 20.648438 C 12.558594 17.546875 13.308594 14.5625 14.5 11.691406 C 15.054688 12.457031 15.804688 12.789062 16.75 12.6875 Z M 16.75 12.6875 "/>
<path style=" stroke:none;fill-rule:evenodd;fill:rgb(0%,0.392157%,0.784314%);fill-opacity:1;" d="M 62.25 23.636719 C 66.488281 23.917969 69.820312 25.742188 72.25 29.109375 C 72.457031 31.265625 72.707031 33.421875 73 35.578125 C 73.90625 35.027344 74.324219 35.355469 74.25 36.574219 C 73.753906 36.488281 73.421875 36.652344 73.25 37.070312 C 70.550781 39.492188 67.382812 40.984375 63.75 41.546875 C 61.328125 41.339844 59.328125 40.34375 57.75 38.5625 C 56.0625 36.183594 55.0625 33.53125 54.75 30.601562 C 54.75 28.28125 54.75 25.957031 54.75 23.636719 C 57.25 23.636719 59.75 23.636719 62.25 23.636719 Z M 62.25 23.636719 "/>
<path style=" stroke:none;fill-rule:evenodd;fill:rgb(80%,71.764706%,64.313725%);fill-opacity:1;" d="M 88.75 33.089844 C 88.152344 32.453125 87.320312 32.121094 86.25 32.09375 C 84.875 32.019531 83.625 32.351562 82.5 33.089844 C 82.257812 32.617188 82.175781 32.121094 82.25 31.597656 C 82.429688 30.664062 82.929688 29.917969 83.75 29.359375 C 85.445312 28.324219 87.28125 27.742188 89.25 27.617188 C 89.40625 29.542969 89.242188 31.367188 88.75 33.089844 Z M 88.75 33.089844 "/>
<path style=" stroke:none;fill-rule:evenodd;fill:rgb(14.117647%,45.490196%,56.078431%);fill-opacity:1;" d="M 41.25 20.152344 C 38.25 22.941406 35.832031 26.261719 34 30.105469 C 30.59375 37.882812 28.675781 46.007812 28.25 54.484375 C 27.808594 56.777344 27.640625 59.097656 27.75 61.453125 C 26.339844 53.375 26.425781 45.25 28 37.070312 C 29.632812 30.644531 33.050781 25.421875 38.25 21.394531 C 39.203125 20.835938 40.203125 20.421875 41.25 20.152344 Z M 41.25 20.152344 "/>
<path style=" stroke:none;fill-rule:evenodd;fill:rgb(14.117647%,38.039216%,46.27451%);fill-opacity:1;" d="M 78.75 23.636719 C 79.789062 24.71875 80.289062 26.042969 80.25 27.617188 C 79.691406 30.644531 79.023438 33.632812 78.25 36.574219 C 78.25 36.902344 78.082031 37.070312 77.75 37.070312 C 77.554688 35.753906 77.554688 34.507812 77.75 33.339844 C 77.347656 32.785156 77.015625 32.203125 76.75 31.597656 C 77.058594 31.542969 77.308594 31.375 77.5 31.097656 C 77.648438 28.515625 78.0625 26.03125 78.75 23.636719 Z M 78.75 23.636719 "/>
<path style=" stroke:none;fill-rule:evenodd;fill:rgb(13.333333%,64.313725%,75.686275%);fill-opacity:1;" d="M 78.75 23.636719 C 78.0625 26.03125 77.648438 28.515625 77.5 31.097656 C 77.308594 31.375 77.058594 31.542969 76.75 31.597656 C 76.03125 30.671875 75.199219 29.839844 74.25 29.109375 C 73.867188 28.726562 73.367188 28.476562 72.75 28.363281 C 73.082031 28.195312 73.417969 28.03125 73.75 27.863281 C 72.511719 27.015625 71.84375 26.019531 71.75 24.878906 C 68.792969 23.304688 65.628906 22.722656 62.25 23.136719 C 59.582031 23.136719 56.917969 23.136719 54.25 23.136719 C 54.089844 25.722656 54.257812 28.210938 54.75 30.601562 C 55.0625 33.53125 56.0625 36.183594 57.75 38.5625 C 59.253906 42.78125 62.253906 44.273438 66.75 43.042969 C 67.355469 43.539062 67.273438 44.035156 66.5 44.535156 C 66.25 46.683594 66.167969 48.839844 66.25 51.003906 C 66.050781 54.550781 67.382812 57.371094 70.25 59.460938 C 71.398438 60.851562 72.648438 62.179688 74 63.441406 C 74.246094 64.421875 74.332031 65.417969 74.25 66.425781 C 74.25 67.753906 74.25 69.082031 74.25 70.410156 C 73.890625 70.199219 73.640625 69.867188 73.5 69.414062 C 73.230469 70.921875 72.898438 72.414062 72.5 73.890625 C 71.679688 75.003906 70.597656 75.667969 69.25 75.882812 C 70.8125 74.777344 71.894531 73.285156 72.5 71.402344 C 73.816406 62.761719 70.066406 59.027344 61.25 60.207031 C 60.171875 60.871094 59.171875 61.617188 58.25 62.445312 C 58.335938 61.789062 58.167969 61.207031 57.75 60.707031 C 58.222656 60.398438 58.640625 60.480469 59 60.953125 C 59.398438 58.671875 59.316406 56.433594 58.75 54.238281 C 59.367188 54.121094 59.867188 53.871094 60.25 53.492188 C 62.015625 52.140625 62.183594 50.566406 60.75 48.761719 C 57.628906 48.304688 56.628906 49.546875 57.75 52.496094 C 56.871094 51.972656 56.539062 51.140625 56.75 50.007812 C 54.445312 50.242188 53.445312 49.328125 53.75 47.269531 C 52.472656 47.269531 51.472656 46.855469 50.75 46.027344 C 53.015625 47.0625 54.683594 46.484375 55.75 44.285156 C 55.210938 42.273438 53.878906 41.527344 51.75 42.046875 C 43.523438 42.027344 36.441406 45.011719 30.5 51.003906 C 29.988281 52.367188 29.238281 53.527344 28.25 54.484375 C 28.675781 46.007812 30.59375 37.882812 34 30.105469 C 35.832031 26.261719 38.25 22.941406 41.25 20.152344 C 42.8125 19.328125 44.480469 18.75 46.25 18.410156 C 53.25 18.078125 60.25 18.078125 67.25 18.410156 C 71.792969 18.777344 75.625 20.519531 78.75 23.636719 Z M 78.75 23.636719 "/>
<path style=" stroke:none;fill-rule:evenodd;fill:rgb(12.54902%,47.843137%,58.823529%);fill-opacity:1;" d="M 62.25 23.636719 C 62.25 23.46875 62.25 23.304688 62.25 23.136719 C 65.628906 22.722656 68.792969 23.304688 71.75 24.878906 C 71.84375 26.019531 72.511719 27.015625 73.75 27.863281 C 73.417969 28.03125 73.082031 28.195312 72.75 28.363281 C 73.367188 28.476562 73.867188 28.726562 74.25 29.109375 C 73.75 29.109375 73.25 29.109375 72.75 29.109375 C 72.582031 29.109375 72.417969 29.109375 72.25 29.109375 C 69.820312 25.742188 66.488281 23.917969 62.25 23.636719 Z M 62.25 23.636719 "/>
<path style=" stroke:none;fill-rule:evenodd;fill:rgb(5.882353%,19.607843%,23.921569%);fill-opacity:1;" d="M 62.25 23.136719 C 62.25 23.304688 62.25 23.46875 62.25 23.636719 C 59.75 23.636719 57.25 23.636719 54.75 23.636719 C 54.75 25.957031 54.75 28.28125 54.75 30.601562 C 54.257812 28.210938 54.089844 25.722656 54.25 23.136719 C 56.917969 23.136719 59.582031 23.136719 62.25 23.136719 Z M 62.25 23.136719 "/>
<path style=" stroke:none;fill-rule:evenodd;fill:rgb(7.058824%,10.196078%,13.72549%);fill-opacity:1;" d="M 72.75 29.109375 C 73.25 29.109375 73.75 29.109375 74.25 29.109375 C 75.199219 29.839844 76.03125 30.671875 76.75 31.597656 C 77.015625 32.203125 77.347656 32.785156 77.75 33.339844 C 77.554688 34.507812 77.554688 35.753906 77.75 37.070312 C 76.859375 37.675781 76.023438 37.675781 75.25 37.070312 C 76.183594 35.144531 75.847656 33.484375 74.25 32.09375 C 74.761719 30.902344 74.261719 30.40625 72.75 30.601562 C 72.75 30.105469 72.75 29.605469 72.75 29.109375 Z M 72.75 29.109375 "/>
<path style=" stroke:none;fill-rule:evenodd;fill:rgb(54.509804%,47.843137%,40.784314%);fill-opacity:1;" d="M 82.25 31.597656 C 82.175781 32.121094 82.257812 32.617188 82.5 33.089844 C 83.625 32.351562 84.875 32.019531 86.25 32.09375 C 87.320312 32.121094 88.152344 32.453125 88.75 33.089844 C 86.363281 33.109375 84.03125 33.441406 81.75 34.085938 C 81.609375 33.132812 81.773438 32.300781 82.25 31.597656 Z M 82.25 31.597656 "/>
<path style=" stroke:none;fill-rule:evenodd;fill:rgb(25.490196%,35.686275%,39.607843%);fill-opacity:1;" d="M 72.25 29.109375 C 72.417969 29.109375 72.582031 29.109375 72.75 29.109375 C 72.75 29.605469 72.75 30.105469 72.75 30.601562 C 74.261719 30.40625 74.761719 30.902344 74.25 32.09375 C 75.847656 33.484375 76.183594 35.144531 75.25 37.070312 C 74.917969 36.902344 74.582031 36.738281 74.25 36.574219 C 74.324219 35.355469 73.90625 35.027344 73 35.578125 C 72.707031 33.421875 72.457031 31.265625 72.25 29.109375 Z M 72.25 29.109375 "/>
<path style=" stroke:none;fill-rule:evenodd;fill:rgb(80.784314%,76.862745%,74.901961%);fill-opacity:1;" d="M 84.25 36.074219 C 85.582031 36.074219 86.917969 36.074219 88.25 36.074219 C 88.25 37.234375 88.25 38.398438 88.25 39.558594 C 85.257812 40.167969 83.925781 39.007812 84.25 36.074219 Z M 84.25 36.074219 "/>
<path style=" stroke:none;fill-rule:evenodd;fill:rgb(80%,75.686275%,74.117647%);fill-opacity:1;" d="M 89.25 36.074219 C 92.464844 35.210938 93.796875 36.371094 93.25 39.558594 C 90.035156 40.421875 88.703125 39.261719 89.25 36.074219 Z M 89.25 36.074219 "/>
<path style=" stroke:none;fill-rule:evenodd;fill:rgb(81.176471%,76.470588%,72.941176%);fill-opacity:1;" d="M 91.75 41.546875 C 94.074219 41.847656 94.824219 43.175781 94 45.527344 C 93.167969 46.855469 92.332031 46.855469 91.5 45.527344 C 91.140625 44.15625 91.222656 42.828125 91.75 41.546875 Z M 91.75 41.546875 "/>
<path style=" stroke:none;fill-rule:evenodd;fill:rgb(2.745098%,5.490196%,6.666667%);fill-opacity:1;" d="M 51.75 42.046875 C 53.878906 41.527344 55.210938 42.273438 55.75 44.285156 C 54.683594 46.484375 53.015625 47.0625 50.75 46.027344 C 49.960938 44.402344 50.292969 43.078125 51.75 42.046875 Z M 51.75 42.046875 "/>
<path style=" stroke:none;fill-rule:evenodd;fill:rgb(14.509804%,47.45098%,58.823529%);fill-opacity:1;" d="M 73.25 37.070312 C 72.933594 38.632812 72.101562 39.878906 70.75 40.800781 C 69.304688 41.4375 67.972656 42.183594 66.75 43.042969 C 62.253906 44.273438 59.253906 42.78125 57.75 38.5625 C 59.328125 40.34375 61.328125 41.339844 63.75 41.546875 C 67.382812 40.984375 70.550781 39.492188 73.25 37.070312 Z M 73.25 37.070312 "/>
<path style=" stroke:none;fill-rule:evenodd;fill:rgb(15.686275%,66.27451%,79.215686%);fill-opacity:1;" d="M 83.75 41.050781 C 83.871094 42.582031 83.703125 44.074219 83.25 45.527344 C 80.675781 45.859375 78.175781 46.191406 75.75 46.523438 C 74.25 47.1875 72.75 47.851562 71.25 48.515625 C 68.820312 48.0625 67.152344 48.894531 66.25 51.003906 C 66.167969 48.839844 66.25 46.683594 66.5 44.535156 C 67.273438 44.035156 67.355469 43.539062 66.75 43.042969 C 67.972656 42.183594 69.304688 41.4375 70.75 40.800781 C 72.101562 39.878906 72.933594 38.632812 73.25 37.070312 C 73.421875 36.652344 73.753906 36.488281 74.25 36.574219 C 74.582031 36.738281 74.917969 36.902344 75.25 37.070312 C 76.023438 37.675781 76.859375 37.675781 77.75 37.070312 C 78.082031 37.070312 78.25 36.902344 78.25 36.574219 C 79.46875 36.296875 80.636719 36.296875 81.75 36.574219 C 81.917969 37.070312 82.082031 37.566406 82.25 38.066406 C 82.117188 39.140625 81.617188 39.96875 80.75 40.554688 C 81.699219 41.035156 82.699219 41.199219 83.75 41.050781 Z M 83.75 41.050781 "/>
<path style=" stroke:none;fill-rule:evenodd;fill:rgb(81.960784%,78.039216%,76.078431%);fill-opacity:1;" d="M 86.25 41.050781 C 90.371094 40.789062 91.707031 42.613281 90.25 46.523438 C 88.777344 46.660156 87.359375 46.496094 86 46.027344 C 85.625 44.324219 85.710938 42.664062 86.25 41.050781 Z M 86.25 41.050781 "/>
<path style=" stroke:none;fill-rule:evenodd;fill:rgb(1.568627%,3.529412%,4.705882%);fill-opacity:1;" d="M 75.75 46.523438 C 79.464844 45.730469 80.464844 46.890625 78.75 50.007812 C 78.160156 50.507812 77.492188 50.921875 76.75 51.25 C 77.667969 51.832031 78.582031 52.410156 79.5 52.992188 C 79.703125 54.085938 79.453125 55.082031 78.75 55.976562 C 76.390625 56.558594 74.222656 56.058594 72.25 54.484375 C 69.390625 52.875 69.058594 50.882812 71.25 48.515625 C 72.75 47.851562 74.25 47.1875 75.75 46.523438 Z M 75.75 46.523438 "/>
<path style=" stroke:none;fill-rule:evenodd;fill:rgb(1.960784%,4.313725%,5.882353%);fill-opacity:1;" d="M 60.25 53.492188 C 59.222656 53.539062 58.390625 53.207031 57.75 52.496094 C 56.628906 49.546875 57.628906 48.304688 60.75 48.761719 C 62.183594 50.566406 62.015625 52.140625 60.25 53.492188 Z M 60.25 53.492188 "/>
<path style=" stroke:none;fill-rule:evenodd;fill:rgb(87.45098%,83.137255%,79.607843%);fill-opacity:1;" d="M 85.75 48.015625 C 90.578125 46.941406 92.078125 48.683594 90.25 53.242188 C 88.757812 53.488281 87.257812 53.574219 85.75 53.492188 C 85.75 51.664062 85.75 49.839844 85.75 48.015625 Z M 85.75 48.015625 "/>
<path style=" stroke:none;fill-rule:evenodd;fill:rgb(19.215686%,70.980392%,81.568627%);fill-opacity:1;" d="M 51.75 42.046875 C 50.292969 43.078125 49.960938 44.402344 50.75 46.027344 C 51.472656 46.855469 52.472656 47.269531 53.75 47.269531 C 53.445312 49.328125 54.445312 50.242188 56.75 50.007812 C 56.539062 51.140625 56.871094 51.972656 57.75 52.496094 C 58.390625 53.207031 59.222656 53.539062 60.25 53.492188 C 59.867188 53.871094 59.367188 54.121094 58.75 54.238281 C 59.316406 56.433594 59.398438 58.671875 59 60.953125 C 58.640625 60.480469 58.222656 60.398438 57.75 60.707031 C 58.167969 61.207031 58.335938 61.789062 58.25 62.445312 C 57.578125 63.460938 56.910156 64.457031 56.25 65.433594 C 56.292969 63.890625 56.042969 63.726562 55.5 64.933594 C 55.1875 62.617188 54.9375 60.460938 54.75 58.464844 C 55.914062 54.5625 54.664062 53.402344 51 54.984375 C 50.660156 56.027344 50.746094 57.023438 51.25 57.96875 C 45.777344 52.042969 40.027344 52.042969 34 57.96875 C 31.496094 61.976562 30.246094 66.285156 30.25 70.90625 C 28.515625 68.035156 27.679688 64.886719 27.75 61.453125 C 27.640625 59.097656 27.808594 56.777344 28.25 54.484375 C 29.238281 53.527344 29.988281 52.367188 30.5 51.003906 C 36.441406 45.011719 43.523438 42.027344 51.75 42.046875 Z M 51.75 42.046875 "/>
<path style=" stroke:none;fill-rule:evenodd;fill:rgb(81.960784%,77.647059%,75.686275%);fill-opacity:1;" d="M 91.75 48.015625 C 93.746094 47.679688 94.578125 48.511719 94.25 50.503906 C 94.574219 52.828125 93.574219 53.824219 91.25 53.492188 C 91.121094 51.613281 91.289062 49.789062 91.75 48.015625 Z M 91.75 48.015625 "/>
<path style=" stroke:none;fill-rule:evenodd;fill:rgb(13.333333%,5.882353%,6.666667%);fill-opacity:1;" d="M 39.75 100.261719 C 39.566406 99.066406 39.234375 97.90625 38.75 96.78125 C 39.496094 95.359375 40.582031 94.195312 42 93.296875 C 42.332031 92.632812 42.332031 91.96875 42 91.308594 C 40.621094 90.496094 39.207031 89.75 37.75 89.066406 C 39.105469 88.339844 39.4375 87.347656 38.75 86.082031 C 37.113281 85.585938 35.449219 85.171875 33.75 84.839844 C 32.867188 83.210938 31.699219 81.800781 30.25 80.609375 C 28.582031 80.609375 26.917969 80.609375 25.25 80.609375 C 25.835938 79.609375 26.167969 78.53125 26.25 77.375 C 24.710938 77.253906 23.210938 77.421875 21.75 77.871094 C 21.207031 77.441406 21.125 76.945312 21.5 76.378906 C 22.347656 75.285156 23.097656 74.125 23.75 72.894531 C 20.636719 72.152344 19.386719 70.160156 20 66.925781 C 19.539062 65.214844 18.707031 63.722656 17.5 62.445312 C 15.746094 61.410156 14.078125 60.246094 12.5 58.964844 C 13.136719 56.195312 14.21875 53.542969 15.75 51.003906 C 14.457031 50.175781 13.121094 49.347656 11.75 48.515625 C 12.917969 47.769531 14.082031 47.023438 15.25 46.273438 C 14.050781 45.035156 14.050781 43.875 15.25 42.792969 C 13.617188 40.335938 12.199219 37.765625 11 35.078125 C 9.574219 33.671875 8.824219 34.003906 8.75 36.074219 C 9.265625 38.414062 9.765625 40.734375 10.25 43.042969 C 9.75 43.042969 9.25 43.042969 8.75 43.042969 C 8.710938 43.753906 8.878906 44.417969 9.25 45.03125 C 8.535156 46.621094 7.703125 48.117188 6.75 49.507812 C 7.882812 50.746094 9.046875 51.992188 10.25 53.242188 C 8.324219 55.484375 6.074219 57.394531 3.5 58.964844 C 3.253906 59.605469 3.171875 60.269531 3.25 60.953125 C 2.855469 60.402344 2.605469 59.738281 2.5 58.964844 C 2.167969 53.820312 2.167969 48.679688 2.5 43.539062 C 3.457031 36.910156 5.871094 30.855469 9.75 25.375 C 12.082031 25.210938 14.417969 25.046875 16.75 24.878906 C 17.980469 24.398438 19.144531 23.816406 20.25 23.136719 C 24.167969 22.742188 26.503906 24.398438 27.25 28.113281 C 25.035156 27.953125 22.867188 27.953125 20.75 28.113281 C 22.359375 29.769531 23.195312 31.757812 23.25 34.085938 C 23.316406 36.175781 22.316406 37.335938 20.25 37.566406 C 20.28125 39.289062 20.617188 40.949219 21.25 42.542969 C 21.167969 43.042969 21.082031 43.539062 21 44.035156 C 19.6875 44.511719 18.9375 45.425781 18.75 46.773438 C 19.578125 48.09375 20.578125 49.253906 21.75 50.257812 C 19.761719 52.496094 18.261719 55.066406 17.25 57.96875 C 17.265625 58.730469 17.597656 59.308594 18.25 59.710938 C 19.71875 60.363281 21.136719 61.109375 22.5 61.949219 C 24.113281 65.421875 24.863281 69.070312 24.75 72.894531 C 25.761719 72.816406 26.761719 72.898438 27.75 73.144531 C 29.332031 75.050781 30.917969 76.960938 32.5 78.867188 C 34.886719 81.570312 37.800781 83.480469 41.25 84.589844 C 42.410156 86.386719 44.078125 87.296875 46.25 87.324219 C 46.207031 88.410156 45.875 89.40625 45.25 90.3125 C 46.195312 91.078125 47.109375 91.90625 48 92.800781 C 48.332031 93.132812 48.332031 93.460938 48 93.792969 C 45.414062 96.121094 42.664062 98.277344 39.75 100.261719 Z M 39.75 100.261719 "/>
<path style=" stroke:none;fill-rule:evenodd;fill:rgb(15.294118%,49.019608%,60.784314%);fill-opacity:1;" d="M 83.75 41.050781 C 84.371094 47.445312 84.371094 53.914062 83.75 60.457031 C 82.917969 60.457031 82.082031 60.457031 81.25 60.457031 C 81.25 60.125 81.417969 59.957031 81.75 59.957031 C 82.25 59.957031 82.75 59.957031 83.25 59.957031 C 83.25 56.808594 83.25 53.65625 83.25 50.503906 C 81.757812 50.273438 80.257812 50.109375 78.75 50.007812 C 80.464844 46.890625 79.464844 45.730469 75.75 46.523438 C 78.175781 46.191406 80.675781 45.859375 83.25 45.527344 C 83.703125 44.074219 83.871094 42.582031 83.75 41.050781 Z M 83.75 41.050781 "/>
<path style=" stroke:none;fill-rule:evenodd;fill:rgb(13.72549%,64.313725%,76.862745%);fill-opacity:1;" d="M 78.75 50.007812 C 80.257812 50.109375 81.757812 50.273438 83.25 50.503906 C 83.25 53.65625 83.25 56.808594 83.25 59.957031 C 82.75 59.957031 82.25 59.957031 81.75 59.957031 C 81.585938 58.285156 81 56.792969 80 55.480469 C 79.664062 55.855469 79.246094 56.019531 78.75 55.976562 C 79.453125 55.082031 79.703125 54.085938 79.5 52.992188 C 78.582031 52.410156 77.667969 51.832031 76.75 51.25 C 77.492188 50.921875 78.160156 50.507812 78.75 50.007812 Z M 78.75 50.007812 "/>
<path style=" stroke:none;fill-rule:evenodd;fill:rgb(2.352941%,5.490196%,6.666667%);fill-opacity:1;" d="M 54.75 58.464844 C 53.4375 59.175781 52.269531 59.007812 51.25 57.96875 C 50.746094 57.023438 50.660156 56.027344 51 54.984375 C 54.664062 53.402344 55.914062 54.5625 54.75 58.464844 Z M 54.75 58.464844 "/>
<path style=" stroke:none;fill-rule:evenodd;fill:rgb(34.901961%,79.215686%,87.843137%);fill-opacity:1;" d="M 51.25 57.96875 C 52.269531 59.007812 53.4375 59.175781 54.75 58.464844 C 54.9375 60.460938 55.1875 62.617188 55.5 64.933594 C 56.042969 63.726562 56.292969 63.890625 56.25 65.433594 C 55.648438 67.230469 55.148438 69.054688 54.75 70.90625 C 54.554688 73.695312 54.054688 76.433594 53.25 79.117188 C 59.445312 79.554688 65.445312 78.726562 71.25 76.628906 C 72.113281 75.644531 73.03125 74.734375 74 73.890625 C 74.25 72.742188 74.332031 71.582031 74.25 70.410156 C 74.25 69.082031 74.25 67.753906 74.25 66.425781 C 76.195312 70.753906 75.359375 74.484375 71.75 77.625 C 69.460938 78.679688 67.125 79.59375 64.75 80.359375 C 59.746094 80.199219 54.746094 79.949219 49.75 79.613281 C 47.535156 79.273438 45.367188 78.777344 43.25 78.121094 C 51.65625 75.746094 52.824219 71.433594 46.75 65.183594 C 39.714844 62.257812 35.464844 64.496094 34 71.902344 C 33.363281 70.441406 32.53125 69.113281 31.5 67.921875 C 31.378906 69.808594 31.710938 71.632812 32.5 73.394531 C 34.445312 75.660156 36.695312 77.566406 39.25 79.117188 C 38.972656 79.304688 38.804688 79.554688 38.75 79.863281 C 34.878906 77.832031 32.042969 74.847656 30.25 70.90625 C 30.246094 66.285156 31.496094 61.976562 34 57.96875 C 40.027344 52.042969 45.777344 52.042969 51.25 57.96875 Z M 51.25 57.96875 "/>
<path style=" stroke:none;fill-rule:evenodd;fill:rgb(89.019608%,83.137255%,80%);fill-opacity:1;" d="M 86.25 54.984375 C 87.582031 54.984375 88.917969 54.984375 90.25 54.984375 C 90.332031 56.484375 90.25 57.976562 90 59.460938 C 88.640625 59.929688 87.222656 60.097656 85.75 59.957031 C 85.625 58.246094 85.792969 56.589844 86.25 54.984375 Z M 86.25 54.984375 "/>
<path style=" stroke:none;fill-rule:evenodd;fill:rgb(56.862745%,85.098039%,90.588235%);fill-opacity:1;" d="M 71.25 48.515625 C 69.058594 50.882812 69.390625 52.875 72.25 54.484375 C 72.25 54.816406 72.25 55.148438 72.25 55.480469 C 70.597656 55.742188 69.511719 55.078125 69 53.492188 C 68.601562 54.367188 68.683594 55.195312 69.25 55.976562 C 70.738281 56.855469 71.070312 58.015625 70.25 59.460938 C 67.382812 57.371094 66.050781 54.550781 66.25 51.003906 C 67.152344 48.894531 68.820312 48.0625 71.25 48.515625 Z M 71.25 48.515625 "/>
<path style=" stroke:none;fill-rule:evenodd;fill:rgb(80.392157%,76.078431%,74.117647%);fill-opacity:1;" d="M 91.75 54.984375 C 93.292969 54.941406 94.125 55.6875 94.25 57.222656 C 94.265625 59.277344 93.265625 60.191406 91.25 59.957031 C 91.125 58.246094 91.292969 56.589844 91.75 54.984375 Z M 91.75 54.984375 "/>
<path style=" stroke:none;fill-rule:evenodd;fill:rgb(0%,0.784314%,1.176471%);fill-opacity:1;" d="M 69.25 75.882812 C 64.609375 77.660156 59.777344 78.324219 54.75 77.871094 C 54.75 75.550781 54.75 73.226562 54.75 70.90625 C 55.148438 69.054688 55.648438 67.230469 56.25 65.433594 C 56.910156 64.457031 57.578125 63.460938 58.25 62.445312 C 59.171875 61.617188 60.171875 60.871094 61.25 60.207031 C 70.066406 59.027344 73.816406 62.761719 72.5 71.402344 C 71.894531 73.285156 70.8125 74.777344 69.25 75.882812 Z M 69.25 75.882812 "/>
<path style=" stroke:none;fill-rule:evenodd;fill:rgb(36.470588%,32.941176%,30.980392%);fill-opacity:1;" d="M 84.75 62.445312 C 85.847656 61.800781 87.011719 61.800781 88.25 62.445312 C 88.1875 62.75 88.023438 62.914062 87.75 62.945312 C 86.867188 62.464844 85.867188 62.300781 84.75 62.445312 Z M 84.75 62.445312 "/>
<path style=" stroke:none;fill-rule:evenodd;fill:rgb(83.529412%,76.078431%,72.941176%);fill-opacity:1;" d="M 89.25 61.949219 C 90.582031 61.949219 91.917969 61.949219 93.25 61.949219 C 93.378906 63.089844 93.210938 64.167969 92.75 65.183594 C 91.425781 65.429688 90.09375 65.515625 88.75 65.433594 C 88.648438 64.214844 88.816406 63.050781 89.25 61.949219 Z M 89.25 61.949219 "/>
<path style=" stroke:none;fill-rule:evenodd;fill:rgb(82.352941%,78.039216%,76.078431%);fill-opacity:1;" d="M 84.75 62.445312 C 85.867188 62.300781 86.867188 62.464844 87.75 62.945312 C 87.855469 63.761719 87.691406 64.507812 87.25 65.183594 C 86.261719 65.429688 85.261719 65.511719 84.25 65.433594 C 84.101562 64.320312 84.269531 63.324219 84.75 62.445312 Z M 84.75 62.445312 "/>
<path style=" stroke:none;fill-rule:evenodd;fill:rgb(61.568627%,88.235294%,91.372549%);fill-opacity:1;" d="M 64.75 80.359375 C 64.582031 80.691406 64.417969 81.023438 64.25 81.355469 C 58.070312 81.242188 51.902344 81.40625 45.75 81.851562 C 43.171875 81.878906 40.835938 81.214844 38.75 79.863281 C 38.804688 79.554688 38.972656 79.304688 39.25 79.117188 C 36.695312 77.566406 34.445312 75.660156 32.5 73.394531 C 31.710938 71.632812 31.378906 69.808594 31.5 67.921875 C 32.53125 69.113281 33.363281 70.441406 34 71.902344 C 35.464844 64.496094 39.714844 62.257812 46.75 65.183594 C 52.824219 71.433594 51.65625 75.746094 43.25 78.121094 C 45.367188 78.777344 47.535156 79.273438 49.75 79.613281 C 54.746094 79.949219 59.746094 80.199219 64.75 80.359375 Z M 64.75 80.359375 "/>
<path style=" stroke:none;fill-rule:evenodd;fill:rgb(40.784314%,35.686275%,32.941176%);fill-opacity:1;" d="M 89.75 67.921875 C 87.417969 67.921875 85.082031 67.921875 82.75 67.921875 C 82.75 68.582031 82.75 69.246094 82.75 69.910156 C 82.273438 69.203125 82.109375 68.375 82.25 67.421875 C 84.847656 67.261719 87.347656 67.429688 89.75 67.921875 Z M 89.75 67.921875 "/>
<path style=" stroke:none;fill-rule:evenodd;fill:rgb(70.196078%,90.196078%,93.72549%);fill-opacity:1;" d="M 72.25 55.480469 C 73.777344 56.917969 75.027344 58.578125 76 60.457031 C 76.15625 64.691406 76.40625 68.921875 76.75 73.144531 C 76.753906 74.289062 76.503906 75.367188 76 76.378906 C 73.933594 78.414062 72.183594 80.238281 70.75 81.851562 C 70.582031 81.851562 70.417969 81.851562 70.25 81.851562 C 68.300781 81.390625 66.300781 81.222656 64.25 81.355469 C 64.417969 81.023438 64.582031 80.691406 64.75 80.359375 C 67.125 79.59375 69.460938 78.679688 71.75 77.625 C 75.359375 74.484375 76.195312 70.753906 74.25 66.425781 C 74.332031 65.417969 74.246094 64.421875 74 63.441406 C 72.648438 62.179688 71.398438 60.851562 70.25 59.460938 C 71.070312 58.015625 70.738281 56.855469 69.25 55.976562 C 68.683594 55.195312 68.601562 54.367188 69 53.492188 C 69.511719 55.078125 70.597656 55.742188 72.25 55.480469 Z M 72.25 55.480469 "/>
<path style=" stroke:none;fill-rule:evenodd;fill:rgb(81.568627%,75.294118%,71.372549%);fill-opacity:1;" d="M 89.75 67.921875 C 89.75 69.746094 89.75 71.570312 89.75 73.394531 C 87.59375 73.371094 85.59375 72.789062 83.75 71.652344 C 83.089844 71.246094 82.753906 70.664062 82.75 69.910156 C 82.75 69.246094 82.75 68.582031 82.75 67.921875 C 85.082031 67.921875 87.417969 67.921875 89.75 67.921875 Z M 89.75 67.921875 "/>
<path style=" stroke:none;fill-rule:evenodd;fill:rgb(29.019608%,70.980392%,81.176471%);fill-opacity:1;" d="M 72.25 54.484375 C 74.222656 56.058594 76.390625 56.558594 78.75 55.976562 C 79.246094 56.019531 79.664062 55.855469 80 55.480469 C 81 56.792969 81.585938 58.285156 81.75 59.957031 C 81.417969 59.957031 81.25 60.125 81.25 60.457031 C 80.976562 60.488281 80.8125 60.652344 80.75 60.953125 C 81.34375 61.417969 82.011719 61.582031 82.75 61.453125 C 82.832031 62.789062 82.75 64.117188 82.5 65.433594 C 81.480469 65.890625 80.394531 66.058594 79.25 65.929688 C 82.5625 74.421875 79.730469 79.730469 70.75 81.851562 C 72.183594 80.238281 73.933594 78.414062 76 76.378906 C 76.503906 75.367188 76.753906 74.289062 76.75 73.144531 C 76.40625 68.921875 76.15625 64.691406 76 60.457031 C 75.027344 58.578125 73.777344 56.917969 72.25 55.480469 C 72.25 55.148438 72.25 54.816406 72.25 54.484375 Z M 72.25 54.484375 "/>
<path style=" stroke:none;fill-rule:evenodd;fill:rgb(36.470588%,25.098039%,19.607843%);fill-opacity:1;" d="M 10.25 76.875 C 8.121094 74.804688 6.621094 72.316406 5.75 69.414062 C 5.640625 68.828125 5.808594 68.332031 6.25 67.921875 C 9.871094 69.21875 12.703125 71.457031 14.75 74.636719 C 16.933594 75.402344 18.101562 76.976562 18.25 79.363281 C 18.144531 80.554688 17.476562 81.050781 16.25 80.859375 C 15.75 80.773438 15.25 80.691406 14.75 80.609375 C 13.449219 79.058594 11.949219 77.816406 10.25 76.875 Z M 10.25 76.875 "/>
<path style=" stroke:none;fill-rule:evenodd;fill:rgb(23.137255%,68.627451%,78.431373%);fill-opacity:1;" d="M 74.25 70.410156 C 74.332031 71.582031 74.25 72.742188 74 73.890625 C 73.03125 74.734375 72.113281 75.644531 71.25 76.628906 C 65.445312 78.726562 59.445312 79.554688 53.25 79.117188 C 54.054688 76.433594 54.554688 73.695312 54.75 70.90625 C 54.75 73.226562 54.75 75.550781 54.75 77.871094 C 59.777344 78.324219 64.609375 77.660156 69.25 75.882812 C 70.597656 75.667969 71.679688 75.003906 72.5 73.890625 C 72.898438 72.414062 73.230469 70.921875 73.5 69.414062 C 73.640625 69.867188 73.890625 70.199219 74.25 70.410156 Z M 74.25 70.410156 "/>
<path style=" stroke:none;fill-rule:evenodd;fill:rgb(24.705882%,19.607843%,18.823529%);fill-opacity:1;" d="M 39.75 100.261719 C 39.21875 100.796875 39.21875 101.296875 39.75 101.757812 C 40.539062 101.28125 41.371094 100.949219 42.25 100.761719 C 42.132812 101.539062 41.800781 102.203125 41.25 102.75 C 40.25 102.75 39.25 102.75 38.25 102.75 C 37.148438 101.484375 36.980469 100.074219 37.75 98.523438 C 37.074219 96.230469 36.074219 94.15625 34.75 92.300781 C 34.875 90.898438 34.625 89.570312 34 88.320312 C 32.480469 86.976562 31.148438 85.484375 30 83.84375 C 29.011719 89.125 27.179688 94.101562 24.5 98.769531 C 22.605469 94.007812 20.441406 89.363281 18 84.839844 C 14.96875 82.566406 12.386719 79.914062 10.25 76.875 C 11.949219 77.816406 13.449219 79.058594 14.75 80.609375 C 15.25 80.691406 15.75 80.773438 16.25 80.859375 C 17.476562 81.050781 18.144531 80.554688 18.25 79.363281 C 18.101562 76.976562 16.933594 75.402344 14.75 74.636719 C 12.703125 71.457031 9.871094 69.21875 6.25 67.921875 C 5.808594 68.332031 5.640625 68.828125 5.75 69.414062 C 4.230469 66.847656 3.394531 64.027344 3.25 60.953125 C 3.171875 60.269531 3.253906 59.605469 3.5 58.964844 C 6.074219 57.394531 8.324219 55.484375 10.25 53.242188 C 9.046875 51.992188 7.882812 50.746094 6.75 49.507812 C 7.703125 48.117188 8.535156 46.621094 9.25 45.03125 C 8.878906 44.417969 8.710938 43.753906 8.75 43.042969 C 9.25 43.042969 9.75 43.042969 10.25 43.042969 C 9.765625 40.734375 9.265625 38.414062 8.75 36.074219 C 8.824219 34.003906 9.574219 33.671875 11 35.078125 C 12.199219 37.765625 13.617188 40.335938 15.25 42.792969 C 14.050781 43.875 14.050781 45.035156 15.25 46.273438 C 14.082031 47.023438 12.917969 47.769531 11.75 48.515625 C 13.121094 49.347656 14.457031 50.175781 15.75 51.003906 C 14.21875 53.542969 13.136719 56.195312 12.5 58.964844 C 14.078125 60.246094 15.746094 61.410156 17.5 62.445312 C 18.707031 63.722656 19.539062 65.214844 20 66.925781 C 19.386719 70.160156 20.636719 72.152344 23.75 72.894531 C 23.097656 74.125 22.347656 75.285156 21.5 76.378906 C 21.125 76.945312 21.207031 77.441406 21.75 77.871094 C 23.210938 77.421875 24.710938 77.253906 26.25 77.375 C 26.167969 78.53125 25.835938 79.609375 25.25 80.609375 C 26.917969 80.609375 28.582031 80.609375 30.25 80.609375 C 31.699219 81.800781 32.867188 83.210938 33.75 84.839844 C 35.449219 85.171875 37.113281 85.585938 38.75 86.082031 C 39.4375 87.347656 39.105469 88.339844 37.75 89.066406 C 39.207031 89.75 40.621094 90.496094 42 91.308594 C 42.332031 91.96875 42.332031 92.632812 42 93.296875 C 40.582031 94.195312 39.496094 95.359375 38.75 96.78125 C 39.234375 97.90625 39.566406 99.066406 39.75 100.261719 Z M 39.75 100.261719 "/>
<path style=" stroke:none;fill-rule:evenodd;fill:rgb(46.666667%,74.901961%,82.745098%);fill-opacity:1;" d="M 64.25 81.355469 C 66.300781 81.222656 68.300781 81.390625 70.25 81.851562 C 62.082031 82.515625 53.917969 82.515625 45.75 81.851562 C 51.902344 81.40625 58.070312 81.242188 64.25 81.355469 Z M 64.25 81.355469 "/>
<use xlink:href="#surface5" mask="url(#mask0)"/>
<path style=" stroke:none;fill-rule:evenodd;fill:rgb(14.901961%,49.411765%,60.392157%);fill-opacity:1;" d="M 71.75 86.828125 C 71.824219 86.304688 71.742188 85.808594 71.5 85.335938 C 66.53125 90.59375 61.613281 90.59375 56.75 85.335938 C 61.878906 85.070312 67.042969 84.574219 72.25 83.84375 C 72.878906 84.988281 72.710938 85.980469 71.75 86.828125 Z M 71.75 86.828125 "/>
<path style=" stroke:none;fill-rule:evenodd;fill:rgb(56.862745%,79.607843%,85.882353%);fill-opacity:1;" d="M 56.75 85.335938 C 61.613281 90.59375 66.53125 90.59375 71.5 85.335938 C 71.742188 85.808594 71.824219 86.304688 71.75 86.828125 C 70.417969 90.484375 67.75 92.140625 63.75 91.804688 C 60.429688 91.769531 58.011719 90.277344 56.5 87.324219 C 56.117188 86.546875 56.199219 85.882812 56.75 85.335938 Z M 56.75 85.335938 "/>
</g>
</svg>
