<?xml version="1.0" encoding="UTF-8"?>
<svg xmlns="http://www.w3.org/2000/svg" xmlns:xlink="http://www.w3.org/1999/xlink" width="px" height="px" viewBox="0 0 99 89" version="1.1">
<defs>
<filter id="alpha" filterUnits="objectBoundingBox" x="0%" y="0%" width="100%" height="100%">
  <feColorMatrix type="matrix" in="SourceGraphic" values="0 0 0 0 1 0 0 0 0 1 0 0 0 0 1 0 0 0 1 0"/>
</filter>
<mask id="mask0">
  <g filter="url(#alpha)">
<rect x="0" y="0" width="99" height="89" style="fill:rgb(0%,0%,0%);fill-opacity:0.988235;stroke:none;"/>
  </g>
</mask>
<clipPath id="clip1">
  <rect x="0" y="0" width="99" height="89"/>
</clipPath>
<g id="surface5" clip-path="url(#clip1)">
<path style=" stroke:none;fill-rule:evenodd;fill:rgb(5.490196%,3.921569%,3.921569%);fill-opacity:1;" d="M 84.675781 18.351562 C 87.503906 18.359375 90.351562 18.527344 93.222656 18.855469 C 93.996094 21.308594 94.332031 23.824219 94.226562 26.398438 C 94.875 26.277344 95.378906 26.445312 95.734375 26.902344 C 97.207031 28.878906 97.542969 31.058594 96.738281 33.4375 C 97.453125 34.566406 97.789062 35.824219 97.742188 37.210938 C 97.671875 41.554688 97.671875 45.910156 97.742188 50.28125 C 97.789062 51.648438 97.453125 52.902344 96.738281 54.054688 C 98.199219 57.832031 97.027344 60.179688 93.222656 61.09375 C 93.328125 63.472656 93.160156 65.816406 92.71875 68.132812 C 92.71875 68.46875 92.550781 68.636719 92.214844 68.636719 C 89.707031 68.867188 87.363281 68.363281 85.179688 67.128906 C 84.648438 67.890625 84.3125 68.730469 84.175781 69.640625 C 83.398438 72.597656 81.558594 74.609375 78.648438 75.675781 C 78.277344 78.882812 77.105469 81.734375 75.128906 84.222656 C 74.117188 85.566406 72.777344 86.40625 71.109375 86.738281 C 69.386719 87.226562 67.628906 87.5625 65.832031 87.742188 C 64.039062 87.5625 62.277344 87.226562 60.554688 86.738281 C 57.773438 84.953125 55.929688 82.4375 55.027344 79.195312 C 49.605469 79.277344 44.414062 78.273438 39.449219 76.179688 C 38.410156 77.023438 37.402344 77.863281 36.433594 78.691406 C 35.601562 80.023438 34.425781 81.03125 32.917969 81.710938 C 30.140625 82.9375 27.378906 84.113281 24.625 85.230469 C 20.164062 84.503906 16.816406 82.15625 14.574219 78.1875 C 14.40625 78.355469 14.238281 78.523438 14.070312 78.691406 C 13.417969 78.398438 12.832031 78.0625 12.3125 77.6875 C 8.683594 75.296875 6.253906 71.945312 5.023438 67.628906 C 0.535156 54.46875 -0.382812 41.058594 2.261719 27.402344 C 2.238281 25.6875 2.492188 24.011719 3.015625 22.375 C 3.207031 22.097656 3.457031 21.929688 3.769531 21.871094 C 5.105469 18.710938 6.445312 15.523438 7.789062 12.320312 C 9.613281 9.75 12.128906 8.324219 15.328125 8.046875 C 15.730469 7.484375 16.066406 6.898438 16.332031 6.285156 C 16.8125 4.800781 17.816406 3.792969 19.347656 3.269531 C 22.148438 2.050781 24.996094 1.96875 27.890625 3.015625 C 32.101562 4.953125 35.953125 7.382812 39.449219 10.308594 C 44.648438 8.53125 50.011719 7.863281 55.53125 8.296875 C 55.574219 6.875 55.90625 5.535156 56.535156 4.273438 C 57.226562 2.410156 58.566406 1.238281 60.554688 0.753906 C 70.0625 -1.289062 75.925781 2.398438 78.144531 11.816406 C 80.847656 13.515625 83.027344 15.695312 84.675781 18.351562 Z M 84.675781 18.351562 "/>
</g>
<mask id="mask1">
  <g filter="url(#alpha)">
<rect x="0" y="0" width="99" height="89" style="fill:rgb(0%,0%,0%);fill-opacity:0.0392157;stroke:none;"/>
  </g>
</mask>
<clipPath id="clip2">
  <rect x="0" y="0" width="99" height="89"/>
</clipPath>
<g id="surface8" clip-path="url(#clip2)">
<path style=" stroke:none;fill-rule:evenodd;fill:rgb(13.333333%,14.901961%,21.176471%);fill-opacity:1;" d="M 16.332031 6.285156 C 16.066406 6.898438 15.730469 7.484375 15.328125 8.046875 C 12.128906 8.324219 9.613281 9.75 7.789062 12.320312 C 7.714844 11.789062 7.796875 11.289062 8.039062 10.8125 C 9.6875 8.816406 11.78125 7.730469 14.324219 7.542969 C 14.941406 6.996094 15.613281 6.578125 16.332031 6.285156 Z M 16.332031 6.285156 "/>
</g>
<mask id="mask2">
  <g filter="url(#alpha)">
<rect x="0" y="0" width="99" height="89" style="fill:rgb(0%,0%,0%);fill-opacity:0.0823529;stroke:none;"/>
  </g>
</mask>
<clipPath id="clip3">
  <rect x="0" y="0" width="99" height="89"/>
</clipPath>
<g id="surface11" clip-path="url(#clip3)">
<path style=" stroke:none;fill-rule:evenodd;fill:rgb(12.941176%,15.686275%,21.176471%);fill-opacity:1;" d="M 56.535156 4.273438 C 55.90625 5.535156 55.574219 6.875 55.53125 8.296875 C 50.011719 7.863281 44.648438 8.53125 39.449219 10.308594 C 35.953125 7.382812 32.101562 4.953125 27.890625 3.015625 C 24.996094 1.96875 22.148438 2.050781 19.347656 3.269531 C 20.546875 2.027344 22.054688 1.355469 23.871094 1.257812 C 29.8125 2.46875 35.003906 5.152344 39.449219 9.300781 C 44.550781 7.972656 49.742188 7.300781 55.027344 7.289062 C 54.789062 5.875 55.292969 4.871094 56.535156 4.273438 Z M 56.535156 4.273438 "/>
</g>
<mask id="mask3">
  <g filter="url(#alpha)">
<rect x="0" y="0" width="99" height="89" style="fill:rgb(0%,0%,0%);fill-opacity:0.168627;stroke:none;"/>
  </g>
</mask>
<clipPath id="clip4">
  <rect x="0" y="0" width="99" height="89"/>
</clipPath>
<g id="surface14" clip-path="url(#clip4)">
<path style=" stroke:none;fill-rule:evenodd;fill:rgb(13.72549%,17.647059%,23.137255%);fill-opacity:1;" d="M 61.5625 -0.25 C 64.242188 -0.25 66.921875 -0.25 69.601562 -0.25 C 74.632812 1.398438 77.566406 4.917969 78.394531 10.308594 C 81.347656 12.335938 83.441406 15.019531 84.675781 18.351562 C 83.027344 15.695312 80.847656 13.515625 78.144531 11.816406 C 75.925781 2.398438 70.0625 -1.289062 60.554688 0.753906 C 60.890625 0.417969 61.226562 0.0820312 61.5625 -0.25 Z M 61.5625 -0.25 "/>
</g>
<mask id="mask4">
  <g filter="url(#alpha)">
<rect x="0" y="0" width="99" height="89" style="fill:rgb(0%,0%,0%);fill-opacity:0.0627451;stroke:none;"/>
  </g>
</mask>
<clipPath id="clip5">
  <rect x="0" y="0" width="99" height="89"/>
</clipPath>
<g id="surface17" clip-path="url(#clip5)">
<path style=" stroke:none;fill-rule:evenodd;fill:rgb(12.941176%,15.294118%,21.176471%);fill-opacity:1;" d="M 7.789062 12.320312 C 6.445312 15.523438 5.105469 18.710938 3.769531 21.871094 C 3.890625 19.578125 4.476562 17.398438 5.527344 15.335938 C 5.9375 13.992188 6.691406 12.984375 7.789062 12.320312 Z M 7.789062 12.320312 "/>
</g>
<mask id="mask5">
  <g filter="url(#alpha)">
<rect x="0" y="0" width="99" height="89" style="fill:rgb(0%,0%,0%);fill-opacity:0.0431373;stroke:none;"/>
  </g>
</mask>
<clipPath id="clip6">
  <rect x="0" y="0" width="99" height="89"/>
</clipPath>
<g id="surface20" clip-path="url(#clip6)">
<path style=" stroke:none;fill-rule:evenodd;fill:rgb(13.72549%,15.686275%,20.784314%);fill-opacity:1;" d="M 2.261719 27.402344 C -0.382812 41.058594 0.535156 54.46875 5.023438 67.628906 C 6.253906 71.945312 8.683594 75.296875 12.3125 77.6875 C 10.484375 77.566406 9.058594 76.730469 8.039062 75.171875 C 3.082031 66.386719 0.320312 57.003906 -0.25 47.015625 C -0.25 46.679688 -0.25 46.34375 -0.25 46.007812 C 0.417969 45.839844 0.417969 45.671875 -0.25 45.503906 C -0.25 44.5 -0.25 43.496094 -0.25 42.488281 C 0.417969 42.320312 0.417969 42.152344 -0.25 41.984375 C -0.25 41.816406 -0.25 41.652344 -0.25 41.484375 C 0.417969 41.316406 0.417969 41.148438 -0.25 40.980469 C -0.25 40.644531 -0.25 40.308594 -0.25 39.972656 C 0.25 36.175781 0.835938 32.320312 1.507812 28.410156 C 1.648438 27.949219 1.898438 27.613281 2.261719 27.402344 Z M 2.261719 27.402344 "/>
</g>
<mask id="mask6">
  <g filter="url(#alpha)">
<rect x="0" y="0" width="99" height="89" style="fill:rgb(0%,0%,0%);fill-opacity:0.0941176;stroke:none;"/>
  </g>
</mask>
<clipPath id="clip7">
  <rect x="0" y="0" width="99" height="89"/>
</clipPath>
<g id="surface23" clip-path="url(#clip7)">
<path style=" stroke:none;fill-rule:evenodd;fill:rgb(14.901961%,17.647059%,22.352941%);fill-opacity:1;" d="M 95.734375 26.902344 C 98.152344 28.492188 98.824219 30.671875 97.742188 33.4375 C 98.058594 39.378906 98.394531 45.246094 98.75 51.035156 C 98.75 51.371094 98.75 51.707031 98.75 52.042969 C 98.328125 52.617188 97.992188 53.285156 97.742188 54.054688 C 98.824219 57.417969 97.820312 59.933594 94.726562 61.597656 C 94.320312 63.429688 93.984375 65.269531 93.722656 67.128906 C 93.597656 67.738281 93.265625 68.074219 92.71875 68.132812 C 93.160156 65.816406 93.328125 63.472656 93.222656 61.09375 C 97.027344 60.179688 98.199219 57.832031 96.738281 54.054688 C 97.453125 52.902344 97.789062 51.648438 97.742188 50.28125 C 97.671875 45.910156 97.671875 41.554688 97.742188 37.210938 C 97.789062 35.824219 97.453125 34.566406 96.738281 33.4375 C 97.542969 31.058594 97.207031 28.878906 95.734375 26.902344 Z M 95.734375 26.902344 "/>
</g>
<mask id="mask7">
  <g filter="url(#alpha)">
<rect x="0" y="0" width="99" height="89" style="fill:rgb(0%,0%,0%);fill-opacity:0.113725;stroke:none;"/>
  </g>
</mask>
<clipPath id="clip8">
  <rect x="0" y="0" width="99" height="89"/>
</clipPath>
<g id="surface26" clip-path="url(#clip8)">
<path style=" stroke:none;fill-rule:evenodd;fill:rgb(13.333333%,16.862745%,21.176471%);fill-opacity:1;" d="M 92.214844 68.636719 C 91.832031 69.082031 91.332031 69.417969 90.707031 69.640625 C 89.027344 69.375 87.4375 68.875 85.933594 68.132812 C 85.550781 68.917969 84.964844 69.421875 84.175781 69.640625 C 84.3125 68.730469 84.648438 67.890625 85.179688 67.128906 C 87.363281 68.363281 89.707031 68.867188 92.214844 68.636719 Z M 92.214844 68.636719 "/>
</g>
<mask id="mask8">
  <g filter="url(#alpha)">
<rect x="0" y="0" width="99" height="89" style="fill:rgb(0%,0%,0%);fill-opacity:0.027451;stroke:none;"/>
  </g>
</mask>
<clipPath id="clip9">
  <rect x="0" y="0" width="99" height="89"/>
</clipPath>
<g id="surface29" clip-path="url(#clip9)">
<path style=" stroke:none;fill-rule:evenodd;fill:rgb(14.117647%,16.078431%,20.784314%);fill-opacity:1;" d="M 60.554688 86.738281 C 58.816406 86.265625 57.394531 85.261719 56.285156 83.71875 C 54.746094 79.746094 51.898438 78.40625 47.742188 79.699219 C 45.097656 78.953125 42.417969 78.28125 39.699219 77.6875 C 38.582031 77.953125 37.492188 78.289062 36.433594 78.691406 C 37.402344 77.863281 38.410156 77.023438 39.449219 76.179688 C 44.414062 78.273438 49.605469 79.277344 55.027344 79.195312 C 55.929688 82.4375 57.773438 84.953125 60.554688 86.738281 Z M 60.554688 86.738281 "/>
</g>
<mask id="mask9">
  <g filter="url(#alpha)">
<rect x="0" y="0" width="99" height="89" style="fill:rgb(0%,0%,0%);fill-opacity:0.0392157;stroke:none;"/>
  </g>
</mask>
<clipPath id="clip10">
  <rect x="0" y="0" width="99" height="89"/>
</clipPath>
<g id="surface32" clip-path="url(#clip10)">
<path style=" stroke:none;fill-rule:evenodd;fill:rgb(14.509804%,16.470588%,21.960784%);fill-opacity:1;" d="M 60.554688 86.738281 C 62.277344 87.226562 64.039062 87.5625 65.832031 87.742188 C 67.628906 87.5625 69.386719 87.226562 71.109375 86.738281 C 69.9375 87.40625 68.765625 88.078125 67.589844 88.75 C 67.257812 88.75 66.921875 88.75 66.585938 88.75 C 66.417969 88.078125 66.25 88.078125 66.082031 88.75 C 65.582031 88.75 65.078125 88.75 64.574219 88.75 C 63.09375 88.367188 61.75 87.695312 60.554688 86.738281 Z M 60.554688 86.738281 "/>
</g>
</defs>
<g id="surface1">
<use xlink:href="#surface5" mask="url(#mask0)"/>
<path style=" stroke:none;fill-rule:evenodd;fill:rgb(85.490196%,58.823529%,32.941176%);fill-opacity:1;" d="M 70.105469 3.269531 C 66.023438 4 62.085938 5.511719 58.292969 7.792969 C 58.0625 7.496094 57.976562 7.160156 58.042969 6.789062 C 60.265625 2.460938 63.78125 1.035156 68.597656 2.515625 C 69.113281 2.773438 69.613281 3.023438 70.105469 3.269531 Z M 70.105469 3.269531 "/>
<path style=" stroke:none;fill-rule:evenodd;fill:rgb(63.529412%,36.078431%,18.039216%);fill-opacity:1;" d="M 70.105469 3.269531 C 71.828125 3.820312 72.832031 4.996094 73.121094 6.789062 C 68.269531 7.734375 63.242188 8.40625 58.042969 8.800781 C 57.375 8.128906 57.375 7.457031 58.042969 6.789062 C 57.976562 7.160156 58.0625 7.496094 58.292969 7.792969 C 62.085938 5.511719 66.023438 4 70.105469 3.269531 Z M 70.105469 3.269531 "/>
<use xlink:href="#surface8" mask="url(#mask1)"/>
<path style=" stroke:none;fill-rule:evenodd;fill:rgb(91.372549%,60%,16.078431%);fill-opacity:1;" d="M 22.363281 4.273438 C 27.945312 4.972656 32.636719 7.402344 36.433594 11.566406 C 34.835938 12.828125 33.246094 14.085938 31.660156 15.335938 C 27.441406 12.34375 22.832031 10.082031 17.839844 8.546875 C 18.964844 6.667969 20.472656 5.242188 22.363281 4.273438 Z M 22.363281 4.273438 "/>
<path style=" stroke:none;fill-rule:evenodd;fill:rgb(47.45098%,26.666667%,15.294118%);fill-opacity:1;" d="M 73.121094 6.789062 C 74.183594 7.585938 74.351562 8.59375 73.621094 9.804688 C 72.117188 8.71875 70.445312 8.214844 68.597656 8.296875 C 66.09375 8.710938 63.582031 9.046875 61.058594 9.300781 C 59.953125 9.300781 58.949219 9.132812 58.042969 8.800781 C 63.242188 8.40625 68.269531 7.734375 73.121094 6.789062 Z M 73.121094 6.789062 "/>
<use xlink:href="#surface11" mask="url(#mask2)"/>
<use xlink:href="#surface14" mask="url(#mask3)"/>
<path style=" stroke:none;fill-rule:evenodd;fill:rgb(94.509804%,70.196078%,41.176471%);fill-opacity:1;" d="M 72.617188 12.320312 C 71.8125 12.222656 71.140625 12.476562 70.605469 13.074219 C 76.78125 15.117188 79.960938 19.394531 80.15625 25.894531 C 79.683594 26.675781 79.347656 27.511719 79.148438 28.410156 C 78.839844 28.355469 78.589844 28.1875 78.394531 27.90625 C 78.230469 26.398438 78.0625 24.890625 77.894531 23.382812 C 77.789062 24.164062 77.535156 24.835938 77.140625 25.394531 C 77.878906 21.847656 76.707031 19.167969 73.621094 17.347656 C 72.007812 16.320312 70.332031 15.398438 68.597656 14.582031 C 62.058594 14.265625 55.527344 14.097656 48.996094 14.078125 C 47.050781 14.207031 45.207031 14.710938 43.46875 15.585938 C 43.085938 17.53125 43.671875 17.785156 45.226562 16.34375 C 47.207031 16.664062 49.132812 16.996094 51.007812 17.347656 C 44.039062 16.726562 38.84375 19.410156 35.429688 25.394531 C 34.699219 23.65625 35.035156 22.066406 36.433594 20.617188 C 35.792969 19.128906 36.378906 17.871094 38.191406 16.84375 C 37.914062 15.804688 38.164062 14.800781 38.945312 13.828125 C 41.355469 12.269531 44.035156 11.347656 46.988281 11.0625 C 54.023438 10.726562 61.058594 10.726562 68.09375 11.0625 C 69.722656 11.265625 71.230469 11.683594 72.617188 12.320312 Z M 72.617188 12.320312 "/>
<path style=" stroke:none;fill-rule:evenodd;fill:rgb(89.019608%,61.568627%,31.764706%);fill-opacity:1;" d="M 77.140625 25.394531 C 76.785156 27.59375 75.777344 29.433594 74.125 30.921875 C 74.125 30.421875 74.125 29.917969 74.125 29.414062 C 75.414062 22.222656 72.398438 17.949219 65.078125 16.59375 C 61.769531 16.5 58.503906 16.246094 55.277344 15.839844 C 55.027344 17.507812 54.945312 19.183594 55.027344 20.867188 C 54 19.335938 52.660156 18.164062 51.007812 17.347656 C 49.132812 16.996094 47.207031 16.664062 45.226562 16.34375 C 43.671875 17.785156 43.085938 17.53125 43.46875 15.585938 C 45.207031 14.710938 47.050781 14.207031 48.996094 14.078125 C 55.527344 14.097656 62.058594 14.265625 68.597656 14.582031 C 70.332031 15.398438 72.007812 16.320312 73.621094 17.347656 C 76.707031 19.167969 77.878906 21.847656 77.140625 25.394531 Z M 77.140625 25.394531 "/>
<use xlink:href="#surface17" mask="url(#mask4)"/>
<path style=" stroke:none;fill-rule:evenodd;fill:rgb(86.27451%,73.72549%,59.607843%);fill-opacity:1;" d="M 28.894531 20.867188 C 27.796875 21.53125 27.042969 22.539062 26.632812 23.882812 C 26.285156 25 25.867188 26.089844 25.378906 27.152344 C 25.414062 27.535156 25.582031 27.789062 25.878906 27.90625 C 25.945312 28.347656 25.777344 28.683594 25.378906 28.914062 C 21.011719 27.0625 16.65625 25.21875 12.3125 23.382812 C 10.667969 22.75 8.992188 22.164062 7.285156 21.621094 C 7.023438 21.339844 6.855469 21.003906 6.785156 20.617188 C 7.792969 16.738281 9.804688 13.554688 12.816406 11.0625 C 19.578125 11 25.441406 13.261719 30.402344 17.851562 C 29.894531 18.871094 29.390625 19.875 28.894531 20.867188 Z M 28.894531 20.867188 "/>
<path style=" stroke:none;fill-rule:evenodd;fill:rgb(85.490196%,57.647059%,27.45098%);fill-opacity:1;" d="M 72.617188 12.320312 C 80.136719 13.480469 82.984375 17.671875 81.160156 24.890625 C 81.035156 25.5 80.699219 25.835938 80.15625 25.894531 C 79.960938 19.394531 76.78125 15.117188 70.605469 13.074219 C 71.140625 12.476562 71.8125 12.222656 72.617188 12.320312 Z M 72.617188 12.320312 "/>
<path style=" stroke:none;fill-rule:evenodd;fill:rgb(91.764706%,82.352941%,69.411765%);fill-opacity:1;" d="M 15.328125 14.332031 C 17.238281 14.972656 18.828125 16.148438 20.101562 17.851562 C 22.191406 20.191406 23.617188 22.875 24.375 25.894531 C 23.582031 26.464844 22.746094 26.546875 21.859375 26.148438 C 17.980469 23.707031 13.792969 22.117188 9.296875 21.371094 C 9.707031 19.871094 10.125 18.363281 10.554688 16.84375 C 12.292969 16.183594 13.886719 15.347656 15.328125 14.332031 Z M 15.328125 14.332031 "/>
<path style=" stroke:none;fill-rule:evenodd;fill:rgb(1.568627%,0.784314%,0.392157%);fill-opacity:1;" d="M 74.125 29.414062 C 71.195312 33.558594 67.171875 35.234375 62.0625 34.445312 C 60.769531 33.90625 59.679688 33.070312 58.796875 31.929688 C 57.082031 28.863281 55.824219 25.679688 55.027344 22.375 C 55.027344 21.871094 55.027344 21.371094 55.027344 20.867188 C 54.945312 19.183594 55.027344 17.507812 55.277344 15.839844 C 58.503906 16.246094 61.769531 16.5 65.078125 16.59375 C 72.398438 17.949219 75.414062 22.222656 74.125 29.414062 Z M 74.125 29.414062 "/>
<path style=" stroke:none;fill-rule:evenodd;fill:rgb(94.901961%,79.607843%,52.156863%);fill-opacity:1;" d="M 51.007812 17.347656 C 52.660156 18.164062 54 19.335938 55.027344 20.867188 C 55.027344 21.371094 55.027344 21.871094 55.027344 22.375 C 55.121094 23.601562 54.785156 24.691406 54.023438 25.644531 C 55.6875 26.042969 56.1875 26.964844 55.53125 28.410156 C 56.054688 29.191406 56.390625 30.03125 56.535156 30.921875 C 56.03125 30.921875 55.53125 30.921875 55.027344 30.921875 C 55.027344 31.425781 55.027344 31.929688 55.027344 32.433594 C 55.882812 32.351562 56.71875 32.433594 57.539062 32.683594 C 55.199219 34.269531 52.851562 35.441406 50.503906 36.203125 C 51.175781 36.539062 51.175781 36.875 50.503906 37.210938 C 50.804688 37.441406 51.140625 37.527344 51.511719 37.460938 C 50.785156 39.515625 49.445312 40.1875 47.488281 39.472656 C 47.699219 39.109375 48.035156 38.859375 48.496094 38.71875 C 45.640625 37.964844 42.960938 36.875 40.453125 35.449219 C 36.664062 33.230469 34.992188 29.878906 35.429688 25.394531 C 38.84375 19.410156 44.039062 16.726562 51.007812 17.347656 Z M 51.007812 17.347656 "/>
<path style=" stroke:none;fill-rule:evenodd;fill:rgb(67.843137%,53.72549%,40.392157%);fill-opacity:1;" d="M 28.894531 20.867188 C 28.25 22.328125 27.75 23.835938 27.386719 25.394531 C 26.792969 26.183594 26.289062 27.019531 25.878906 27.90625 C 25.582031 27.789062 25.414062 27.535156 25.378906 27.152344 C 25.867188 26.089844 26.285156 25 26.632812 23.882812 C 27.042969 22.539062 27.796875 21.53125 28.894531 20.867188 Z M 28.894531 20.867188 "/>
<path style=" stroke:none;fill-rule:evenodd;fill:rgb(76.862745%,67.843137%,61.176471%);fill-opacity:1;" d="M 88.195312 20.867188 C 89.199219 20.867188 90.207031 20.867188 91.210938 20.867188 C 91.210938 22.710938 91.210938 24.554688 91.210938 26.398438 C 88.867188 26.398438 86.519531 26.398438 84.175781 26.398438 C 84.09375 25.214844 84.175781 24.039062 84.425781 22.878906 C 85.691406 22.121094 86.945312 21.453125 88.195312 20.867188 Z M 88.195312 20.867188 "/>
<path style=" stroke:none;fill-rule:evenodd;fill:rgb(91.764706%,82.745098%,74.117647%);fill-opacity:1;" d="M 9.296875 24.890625 C 15.691406 27.5 22.058594 30.265625 28.394531 33.1875 C 27.09375 35.878906 26.421875 38.726562 26.382812 41.734375 C 26.703125 45.546875 27.121094 49.320312 27.640625 53.046875 C 24.855469 54.734375 21.921875 56.074219 18.84375 57.070312 C 19.082031 55.402344 20.003906 54.230469 21.609375 53.550781 C 26.929688 43.753906 24.667969 36.296875 14.824219 31.175781 C 12.980469 30.839844 11.140625 30.839844 9.296875 31.175781 C 7.832031 32.035156 6.40625 32.957031 5.023438 33.941406 C 4.910156 33.320312 4.65625 32.816406 4.273438 32.433594 C 4.453125 29.855469 4.953125 27.339844 5.777344 24.890625 C 6.921875 24.457031 8.09375 24.457031 9.296875 24.890625 Z M 9.296875 24.890625 "/>
<path style=" stroke:none;fill-rule:evenodd;fill:rgb(66.27451%,39.607843%,18.039216%);fill-opacity:1;" d="M 35.429688 16.34375 C 33.839844 19.519531 32.25 22.703125 30.65625 25.894531 C 30.402344 28.402344 30.320312 30.917969 30.402344 33.4375 C 29.730469 31.59375 29.0625 29.75 28.394531 27.90625 C 29.84375 23.5 32.1875 19.644531 35.429688 16.34375 Z M 35.429688 16.34375 "/>
<path style=" stroke:none;fill-rule:evenodd;fill:rgb(79.607843%,72.54902%,67.45098%);fill-opacity:1;" d="M 91.714844 28.410156 C 94.972656 28.238281 95.980469 29.660156 94.726562 32.683594 C 93.523438 33.042969 92.351562 32.957031 91.210938 32.433594 C 90.519531 30.941406 90.683594 29.597656 91.714844 28.410156 Z M 91.714844 28.410156 "/>
<path style=" stroke:none;fill-rule:evenodd;fill:rgb(88.235294%,60.784314%,30.196078%);fill-opacity:1;" d="M 38.945312 13.828125 C 38.164062 14.800781 37.914062 15.804688 38.191406 16.84375 C 36.378906 17.871094 35.792969 19.128906 36.433594 20.617188 C 35.035156 22.066406 34.699219 23.65625 35.429688 25.394531 C 34.992188 29.878906 36.664062 33.230469 40.453125 35.449219 C 38.636719 35.074219 36.792969 34.90625 34.925781 34.945312 C 33.339844 34.527344 31.832031 34.027344 30.402344 33.4375 C 30.320312 30.917969 30.402344 28.402344 30.65625 25.894531 C 32.25 22.703125 33.839844 19.519531 35.429688 16.34375 C 36.332031 15.136719 37.503906 14.296875 38.945312 13.828125 Z M 38.945312 13.828125 "/>
<path style=" stroke:none;fill-rule:evenodd;fill:rgb(89.411765%,80.392157%,73.72549%);fill-opacity:1;" d="M 81.160156 27.90625 C 83.847656 28.195312 86.527344 28.53125 89.199219 28.914062 C 89.199219 30.085938 89.199219 31.257812 89.199219 32.433594 C 86.472656 32.449219 83.792969 32.785156 81.160156 33.4375 C 81.160156 31.59375 81.160156 29.75 81.160156 27.90625 Z M 81.160156 27.90625 "/>
<path style=" stroke:none;fill-rule:evenodd;fill:rgb(78.431373%,54.901961%,32.54902%);fill-opacity:1;" d="M 34.925781 34.945312 C 36.792969 34.90625 38.636719 35.074219 40.453125 35.449219 C 42.960938 36.875 45.640625 37.964844 48.496094 38.71875 C 48.035156 38.859375 47.699219 39.109375 47.488281 39.472656 C 43.21875 38.085938 39.03125 36.578125 34.925781 34.945312 Z M 34.925781 34.945312 "/>
<path style=" stroke:none;fill-rule:evenodd;fill:rgb(85.490196%,79.215686%,74.901961%);fill-opacity:1;" d="M 87.191406 34.445312 C 88.671875 34.304688 90.09375 34.472656 91.460938 34.945312 C 91.710938 36.445312 91.796875 37.953125 91.714844 39.472656 C 90.039062 39.472656 88.363281 39.472656 86.6875 39.472656 C 86.5625 37.742188 86.730469 36.066406 87.191406 34.445312 Z M 87.191406 34.445312 "/>
<path style=" stroke:none;fill-rule:evenodd;fill:rgb(82.745098%,74.901961%,70.196078%);fill-opacity:1;" d="M 92.71875 34.945312 C 95.613281 35.089844 96.453125 36.511719 95.230469 39.21875 C 94.410156 39.46875 93.570312 39.550781 92.71875 39.472656 C 92.71875 37.964844 92.71875 36.453125 92.71875 34.945312 Z M 92.71875 34.945312 "/>
<path style=" stroke:none;fill-rule:evenodd;fill:rgb(39.607843%,25.098039%,15.686275%);fill-opacity:1;" d="M 79.652344 34.945312 C 81.664062 34.945312 83.671875 34.945312 85.683594 34.945312 C 85.84375 37.390625 85.675781 39.738281 85.179688 41.984375 C 85.179688 39.808594 85.179688 37.628906 85.179688 35.449219 C 83.503906 35.449219 81.828125 35.449219 80.15625 35.449219 C 79.820312 35.449219 79.652344 35.28125 79.652344 34.945312 Z M 79.652344 34.945312 "/>
<path style=" stroke:none;fill-rule:evenodd;fill:rgb(4.705882%,3.137255%,2.352941%);fill-opacity:1;" d="M 80.65625 39.972656 C 80.65625 40.644531 80.65625 41.316406 80.65625 41.984375 C 79.777344 42.851562 78.769531 43.605469 77.640625 44.25 C 79.789062 44.707031 80.710938 45.964844 80.40625 48.019531 C 79.679688 48.851562 78.757812 49.1875 77.640625 49.027344 C 74.609375 48.519531 72.261719 47.007812 70.605469 44.5 C 71.53125 42.707031 72.871094 41.363281 74.625 40.476562 C 76.5625 39.398438 78.574219 39.230469 80.65625 39.972656 Z M 80.65625 39.972656 "/>
<path style=" stroke:none;fill-rule:evenodd;fill:rgb(94.117647%,76.470588%,49.803922%);fill-opacity:1;" d="M 55.027344 22.375 C 55.824219 25.679688 57.082031 28.863281 58.796875 31.929688 C 59.679688 33.070312 60.769531 33.90625 62.0625 34.445312 C 63.214844 36.328125 64.890625 36.917969 67.089844 36.203125 C 70.109375 35.269531 72.453125 33.507812 74.125 30.921875 C 75.777344 29.433594 76.785156 27.59375 77.140625 25.394531 C 77.535156 24.835938 77.789062 24.164062 77.894531 23.382812 C 78.0625 24.890625 78.230469 26.398438 78.394531 27.90625 C 78.589844 28.1875 78.839844 28.355469 79.148438 28.410156 C 78.988281 30.6875 79.15625 32.867188 79.652344 34.945312 C 79.652344 35.28125 79.820312 35.449219 80.15625 35.449219 C 80.097656 35.757812 79.933594 36.011719 79.652344 36.203125 C 80.8125 36.453125 81.984375 36.535156 83.171875 36.453125 C 83.300781 37.199219 83.132812 37.867188 82.667969 38.464844 C 81.671875 38.625 81 39.128906 80.65625 39.972656 C 78.574219 39.230469 76.5625 39.398438 74.625 40.476562 C 71.605469 40.183594 69.175781 41.355469 67.339844 43.996094 C 66.828125 46.824219 67.75 49.003906 70.105469 50.535156 C 72.4375 53.03125 74.113281 55.878906 75.128906 59.082031 C 74.359375 58.140625 73.605469 57.136719 72.867188 56.066406 C 72.300781 55.238281 71.546875 54.738281 70.605469 54.554688 C 68.335938 53.074219 65.824219 52.40625 63.070312 52.546875 C 63.070312 51.539062 63.070312 50.535156 63.070312 49.527344 C 62.925781 46.890625 61.75 44.878906 59.550781 43.496094 C 58.15625 42.707031 56.816406 41.785156 55.53125 40.730469 C 57.707031 40.5625 59.886719 40.394531 62.0625 40.226562 C 63.316406 40.019531 64.324219 39.433594 65.078125 38.464844 C 62.070312 38.035156 59.054688 37.699219 56.03125 37.460938 C 56.164062 38.203125 55.996094 38.875 55.53125 39.472656 C 54.722656 37.765625 53.382812 37.09375 51.511719 37.460938 C 51.140625 37.527344 50.804688 37.441406 50.503906 37.210938 C 51.175781 36.875 51.175781 36.539062 50.503906 36.203125 C 52.851562 35.441406 55.199219 34.269531 57.539062 32.683594 C 56.71875 32.433594 55.882812 32.351562 55.027344 32.433594 C 55.027344 31.929688 55.027344 31.425781 55.027344 30.921875 C 55.53125 30.921875 56.03125 30.921875 56.535156 30.921875 C 56.390625 30.03125 56.054688 29.191406 55.53125 28.410156 C 56.1875 26.964844 55.6875 26.042969 54.023438 25.644531 C 54.785156 24.691406 55.121094 23.601562 55.027344 22.375 Z M 55.027344 22.375 "/>
<path style=" stroke:none;fill-rule:evenodd;fill:rgb(68.235294%,43.921569%,21.568627%);fill-opacity:1;" d="M 74.125 29.414062 C 74.125 29.917969 74.125 30.421875 74.125 30.921875 C 72.453125 33.507812 70.109375 35.269531 67.089844 36.203125 C 64.890625 36.917969 63.214844 36.328125 62.0625 34.445312 C 67.171875 35.234375 71.195312 33.558594 74.125 29.414062 Z M 74.125 29.414062 "/>
<path style=" stroke:none;fill-rule:evenodd;fill:rgb(87.45098%,80.784314%,76.078431%);fill-opacity:1;" d="M 87.191406 40.980469 C 91.792969 39.800781 93.300781 41.390625 91.714844 45.757812 C 90.046875 46.007812 88.371094 46.089844 86.6875 46.007812 C 86.5625 44.28125 86.730469 42.601562 87.191406 40.980469 Z M 87.191406 40.980469 "/>
<path style=" stroke:none;fill-rule:evenodd;fill:rgb(82.352941%,75.686275%,71.764706%);fill-opacity:1;" d="M 93.222656 40.980469 C 95.011719 41.011719 95.847656 41.933594 95.734375 43.746094 C 95.769531 45.753906 94.761719 46.507812 92.71875 46.007812 C 92.59375 44.28125 92.761719 42.601562 93.222656 40.980469 Z M 93.222656 40.980469 "/>
<path style=" stroke:none;fill-rule:evenodd;fill:rgb(7.058824%,4.705882%,3.529412%);fill-opacity:1;" d="M 12.3125 23.382812 C 16.65625 25.21875 21.011719 27.0625 25.378906 28.914062 C 25.777344 28.683594 25.945312 28.347656 25.878906 27.90625 C 26.289062 27.019531 26.792969 26.183594 27.386719 25.394531 C 27.535156 26.347656 27.871094 27.1875 28.394531 27.90625 C 29.0625 29.75 29.730469 31.59375 30.402344 33.4375 C 31.832031 34.027344 33.339844 34.527344 34.925781 34.945312 C 39.03125 36.578125 43.21875 38.085938 47.488281 39.472656 C 49.445312 40.1875 50.785156 39.515625 51.511719 37.460938 C 53.382812 37.09375 54.722656 37.765625 55.53125 39.472656 C 55.996094 38.875 56.164062 38.203125 56.03125 37.460938 C 59.054688 37.699219 62.070312 38.035156 65.078125 38.464844 C 64.324219 39.433594 63.316406 40.019531 62.0625 40.226562 C 59.886719 40.394531 57.707031 40.5625 55.53125 40.730469 C 56.816406 41.785156 58.15625 42.707031 59.550781 43.496094 C 59.378906 43.914062 59.042969 44.082031 58.546875 43.996094 C 57.707031 43.996094 56.871094 43.996094 56.03125 43.996094 C 56.300781 45.375 55.800781 46.296875 54.523438 46.761719 C 53.136719 47.125 51.796875 47.042969 50.503906 46.511719 C 50.300781 45.9375 49.964844 45.433594 49.5 45.003906 C 43.375 47.546875 37.175781 49.894531 30.90625 52.042969 C 30.441406 53.8125 29.605469 55.320312 28.394531 56.566406 C 29.285156 61.117188 31.128906 65.140625 33.921875 68.636719 C 34.589844 69.472656 35.261719 70.3125 35.929688 71.148438 C 34.980469 71.25 34.226562 70.917969 33.671875 70.144531 C 33.425781 70.621094 33.34375 71.125 33.417969 71.652344 C 32.769531 71.253906 32.183594 70.753906 31.660156 70.144531 C 29.34375 71.847656 26.914062 73.355469 24.375 74.667969 C 22.914062 75.316406 21.40625 75.816406 19.851562 76.179688 C 19.707031 75.535156 19.375 75.03125 18.84375 74.667969 C 19.8125 74.171875 20.816406 73.671875 21.859375 73.160156 C 24.863281 71.660156 27.710938 69.898438 30.402344 67.882812 C 28.46875 64.261719 26.878906 60.492188 25.628906 56.566406 C 19.707031 59.320312 13.761719 62.003906 7.789062 64.613281 C 7.578125 64.25 7.246094 64 6.785156 63.859375 C 8.035156 63.503906 8.035156 63.085938 6.785156 62.601562 C 10.683594 60.570312 14.703125 58.726562 18.84375 57.070312 C 21.921875 56.074219 24.855469 54.734375 27.640625 53.046875 C 27.121094 49.320312 26.703125 45.546875 26.382812 41.734375 C 26.421875 38.726562 27.09375 35.878906 28.394531 33.1875 C 22.058594 30.265625 15.691406 27.5 9.296875 24.890625 C 10.300781 24.890625 11.308594 24.890625 12.3125 24.890625 C 12.3125 24.386719 12.3125 23.882812 12.3125 23.382812 Z M 12.3125 23.382812 "/>
<path style=" stroke:none;fill-rule:evenodd;fill:rgb(83.529412%,77.647059%,69.803922%);fill-opacity:1;" d="M 52.011719 38.464844 C 55.46875 39.589844 55.300781 40.175781 51.511719 40.226562 C 53.421875 40.214844 54.425781 41.136719 54.523438 42.992188 C 50.882812 43.152344 50.046875 41.644531 52.011719 38.464844 Z M 52.011719 38.464844 "/>
<path style=" stroke:none;fill-rule:evenodd;fill:rgb(20.784314%,14.117647%,17.254902%);fill-opacity:1;" d="M 52.011719 41.484375 C 53.261719 41.597656 53.511719 41.933594 52.765625 42.488281 C 52.25 42.320312 51.996094 41.984375 52.011719 41.484375 Z M 52.011719 41.484375 "/>
<path style=" stroke:none;fill-rule:evenodd;fill:rgb(89.019608%,78.039216%,67.843137%);fill-opacity:1;" d="M 35.929688 37.964844 C 40.054688 38.996094 44.074219 40.335938 47.992188 41.984375 C 48.535156 42.421875 48.621094 42.921875 48.242188 43.496094 C 42.617188 45.957031 36.835938 47.96875 30.90625 49.527344 C 30.632812 49.5 30.464844 49.332031 30.402344 49.027344 C 30.824219 48.40625 31.328125 47.902344 31.910156 47.515625 C 33.082031 47.433594 34.167969 47.097656 35.175781 46.511719 C 35.585938 43.90625 35.503906 41.390625 34.925781 38.96875 C 35.261719 38.632812 35.597656 38.296875 35.929688 37.964844 Z M 35.929688 37.964844 "/>
<path style=" stroke:none;fill-rule:evenodd;fill:rgb(78.039216%,65.882353%,57.647059%);fill-opacity:1;" d="M 35.929688 37.964844 C 35.597656 38.296875 35.261719 38.632812 34.925781 38.96875 C 34.207031 39.007812 33.539062 38.839844 32.917969 38.464844 C 32.75 38.800781 32.582031 39.136719 32.414062 39.472656 C 33.042969 40.386719 33.546875 41.394531 33.921875 42.488281 C 33.777344 43.265625 33.441406 43.933594 32.917969 44.5 C 33.679688 45.894531 33.34375 46.902344 31.910156 47.515625 C 31.328125 47.902344 30.824219 48.40625 30.402344 49.027344 C 30.464844 49.332031 30.632812 49.5 30.90625 49.527344 C 30.558594 50.167969 30.140625 50.167969 29.648438 49.527344 C 28.730469 45.019531 28.644531 40.496094 29.398438 35.953125 C 31.804688 36.03125 33.984375 36.699219 35.929688 37.964844 Z M 35.929688 37.964844 "/>
<path style=" stroke:none;fill-rule:evenodd;fill:rgb(12.941176%,8.627451%,6.27451%);fill-opacity:1;" d="M 34.925781 38.96875 C 35.503906 41.390625 35.585938 43.90625 35.175781 46.511719 C 34.167969 47.097656 33.082031 47.433594 31.910156 47.515625 C 33.34375 46.902344 33.679688 45.894531 32.917969 44.5 C 33.441406 43.933594 33.777344 43.265625 33.921875 42.488281 C 33.546875 41.394531 33.042969 40.386719 32.414062 39.472656 C 32.582031 39.136719 32.75 38.800781 32.917969 38.464844 C 33.539062 38.839844 34.207031 39.007812 34.925781 38.96875 Z M 34.925781 38.96875 "/>
<path style=" stroke:none;fill-rule:evenodd;fill:rgb(83.137255%,60.392157%,35.294118%);fill-opacity:1;" d="M 80.15625 35.449219 C 81.828125 35.449219 83.503906 35.449219 85.179688 35.449219 C 85.179688 37.628906 85.179688 39.808594 85.179688 41.984375 C 85.34375 45.597656 85.175781 49.121094 84.675781 52.546875 C 84.453125 49.1875 84.117188 45.832031 83.671875 42.488281 C 82.699219 42.289062 81.945312 41.785156 81.410156 40.980469 C 81.269531 41.441406 81.019531 41.777344 80.65625 41.984375 C 80.65625 41.316406 80.65625 40.644531 80.65625 39.972656 C 81 39.128906 81.671875 38.625 82.667969 38.464844 C 83.132812 37.867188 83.300781 37.199219 83.171875 36.453125 C 81.984375 36.535156 80.8125 36.453125 79.652344 36.203125 C 79.933594 36.011719 80.097656 35.757812 80.15625 35.449219 Z M 80.15625 35.449219 "/>
<path style=" stroke:none;fill-rule:evenodd;fill:rgb(96.470588%,94.117647%,88.235294%);fill-opacity:1;" d="M 18.84375 57.070312 C 14.703125 58.726562 10.683594 60.570312 6.785156 62.601562 C 6.238281 62.542969 5.902344 62.207031 5.777344 61.597656 C 3.101562 51.964844 2.601562 42.242188 4.273438 32.433594 C 4.65625 32.816406 4.910156 33.320312 5.023438 33.941406 C 6.40625 32.957031 7.832031 32.035156 9.296875 31.175781 C 11.140625 30.839844 12.980469 30.839844 14.824219 31.175781 C 24.667969 36.296875 26.929688 43.753906 21.609375 53.550781 C 20.003906 54.230469 19.082031 55.402344 18.84375 57.070312 Z M 18.84375 57.070312 "/>
<path style=" stroke:none;fill-rule:evenodd;fill:rgb(81.960784%,74.509804%,59.607843%);fill-opacity:1;" d="M 51.007812 43.996094 C 51.460938 44.355469 51.628906 44.855469 51.511719 45.503906 C 52.625 45.667969 53.546875 45.332031 54.273438 44.5 C 54.746094 45.871094 54.246094 46.542969 52.765625 46.511719 C 51.257812 46.390625 50.671875 45.550781 51.007812 43.996094 Z M 51.007812 43.996094 "/>
<path style=" stroke:none;fill-rule:evenodd;fill:rgb(84.313725%,59.215686%,27.843137%);fill-opacity:1;" d="M 58.546875 44.5 C 61.292969 45.972656 62.464844 48.320312 62.0625 51.539062 C 62.0625 51.875 61.894531 52.042969 61.5625 52.042969 C 61.566406 51.132812 61.3125 50.296875 60.808594 49.527344 C 59.957031 47.921875 58.699219 46.75 57.039062 46.007812 C 56.59375 45.59375 56.425781 45.089844 56.535156 44.5 C 57.207031 44.5 57.875 44.5 58.546875 44.5 Z M 58.546875 44.5 "/>
<path style=" stroke:none;fill-rule:evenodd;fill:rgb(64.313725%,60%,55.686275%);fill-opacity:1;" d="M 90.707031 48.019531 C 89.535156 48.019531 88.363281 48.019531 87.191406 48.019531 C 87.34375 49.46875 87.175781 50.8125 86.6875 52.042969 C 86.6875 50.535156 86.6875 49.027344 86.6875 47.515625 C 88.136719 47.363281 89.476562 47.53125 90.707031 48.019531 Z M 90.707031 48.019531 "/>
<path style=" stroke:none;fill-rule:evenodd;fill:rgb(92.156863%,73.333333%,49.803922%);fill-opacity:1;" d="M 84.675781 52.546875 C 82.449219 52.410156 80.273438 52.578125 78.144531 53.046875 C 77.3125 51.785156 77.480469 50.699219 78.648438 49.78125 C 78.1875 49.640625 77.851562 49.386719 77.640625 49.027344 C 78.757812 49.1875 79.679688 48.851562 80.40625 48.019531 C 80.710938 45.964844 79.789062 44.707031 77.640625 44.25 C 78.769531 43.605469 79.777344 42.851562 80.65625 41.984375 C 81.019531 41.777344 81.269531 41.441406 81.410156 40.980469 C 81.945312 41.785156 82.699219 42.289062 83.671875 42.488281 C 84.117188 45.832031 84.453125 49.1875 84.675781 52.546875 Z M 84.675781 52.546875 "/>
<path style=" stroke:none;fill-rule:evenodd;fill:rgb(82.352941%,76.078431%,72.54902%);fill-opacity:1;" d="M 93.222656 47.515625 C 94.746094 47.355469 95.582031 48.023438 95.734375 49.527344 C 95.636719 50.574219 95.386719 51.578125 94.980469 52.546875 C 94.296875 52.988281 93.542969 53.15625 92.71875 53.046875 C 92.589844 51.152344 92.757812 49.308594 93.222656 47.515625 Z M 93.222656 47.515625 "/>
<path style=" stroke:none;fill-rule:evenodd;fill:rgb(22.352941%,10.980392%,4.313725%);fill-opacity:1;" d="M 59.550781 43.496094 C 61.75 44.878906 62.925781 46.890625 63.070312 49.527344 C 62.734375 50.199219 62.398438 50.871094 62.0625 51.539062 C 62.464844 48.320312 61.292969 45.972656 58.546875 44.5 C 58.546875 44.332031 58.546875 44.164062 58.546875 43.996094 C 59.042969 44.082031 59.378906 43.914062 59.550781 43.496094 Z M 59.550781 43.496094 "/>
<path style=" stroke:none;fill-rule:evenodd;fill:rgb(89.019608%,82.352941%,77.254902%);fill-opacity:1;" d="M 90.707031 48.019531 C 92.09375 49.660156 91.925781 51.25 90.207031 52.796875 C 89.617188 52.878906 89.03125 52.964844 88.445312 53.046875 C 87.601562 52.992188 87.015625 52.660156 86.6875 52.042969 C 87.175781 50.8125 87.34375 49.46875 87.191406 48.019531 C 88.363281 48.019531 89.535156 48.019531 90.707031 48.019531 Z M 90.707031 48.019531 "/>
<path style=" stroke:none;fill-rule:evenodd;fill:rgb(98.431373%,90.980392%,73.333333%);fill-opacity:1;" d="M 74.625 40.476562 C 72.871094 41.363281 71.53125 42.707031 70.605469 44.5 C 72.261719 47.007812 74.609375 48.519531 77.640625 49.027344 C 77.851562 49.386719 78.1875 49.640625 78.648438 49.78125 C 77.480469 50.699219 77.3125 51.785156 78.144531 53.046875 C 77.582031 55.367188 77.582031 57.714844 78.144531 60.085938 C 78.53125 62.761719 78.613281 65.445312 78.394531 68.132812 C 78.285156 69.328125 77.699219 70.167969 76.636719 70.648438 C 77.40625 69.019531 77.738281 67.257812 77.640625 65.367188 C 77.460938 61.746094 77.125 58.140625 76.636719 54.554688 C 74.507812 53.019531 72.414062 51.34375 70.355469 49.527344 C 70.121094 49.828125 70.039062 50.164062 70.105469 50.535156 C 67.75 49.003906 66.828125 46.824219 67.339844 43.996094 C 69.175781 41.355469 71.605469 40.183594 74.625 40.476562 Z M 74.625 40.476562 "/>
<path style=" stroke:none;fill-rule:evenodd;fill:rgb(2.352941%,1.176471%,0.784314%);fill-opacity:1;" d="M 63.070312 49.527344 C 63.070312 50.535156 63.070312 51.539062 63.070312 52.546875 C 65.824219 52.40625 68.335938 53.074219 70.605469 54.554688 C 73.683594 57.898438 74.4375 61.753906 72.867188 66.121094 C 71.59375 67.566406 70.167969 68.824219 68.597656 69.894531 C 65.246094 70.984375 61.898438 71.738281 58.546875 72.15625 C 57.632812 72.722656 56.628906 73.058594 55.53125 73.160156 C 55.726562 72.421875 55.894531 71.667969 56.03125 70.898438 C 54.660156 67.230469 54.828125 63.628906 56.535156 60.085938 C 58.40625 57.542969 60.082031 54.859375 61.5625 52.042969 C 61.894531 52.042969 62.0625 51.875 62.0625 51.539062 C 62.398438 50.871094 62.734375 50.199219 63.070312 49.527344 Z M 63.070312 49.527344 "/>
<use xlink:href="#surface20" mask="url(#mask5)"/>
<path style=" stroke:none;fill-rule:evenodd;fill:rgb(91.372549%,71.372549%,43.921569%);fill-opacity:1;" d="M 50.503906 46.511719 C 50.078125 47.3125 49.410156 47.898438 48.496094 48.269531 C 48.828125 48.773438 49.164062 49.277344 49.5 49.78125 C 48.390625 49.875 47.386719 50.128906 46.484375 50.535156 C 41.054688 51.53125 36.953125 54.382812 34.171875 59.082031 C 33.976562 62.367188 33.890625 65.554688 33.921875 68.636719 C 31.128906 65.140625 29.285156 61.117188 28.394531 56.566406 C 29.605469 55.320312 30.441406 53.8125 30.90625 52.042969 C 37.175781 49.894531 43.375 47.546875 49.5 45.003906 C 49.964844 45.433594 50.300781 45.9375 50.503906 46.511719 Z M 50.503906 46.511719 "/>
<use xlink:href="#surface23" mask="url(#mask6)"/>
<path style=" stroke:none;fill-rule:evenodd;fill:rgb(94.117647%,77.254902%,49.411765%);fill-opacity:1;" d="M 58.546875 43.996094 C 58.546875 44.164062 58.546875 44.332031 58.546875 44.5 C 57.875 44.5 57.207031 44.5 56.535156 44.5 C 56.425781 45.089844 56.59375 45.59375 57.039062 46.007812 C 58.699219 46.75 59.957031 47.921875 60.808594 49.527344 C 61.3125 50.296875 61.566406 51.132812 61.5625 52.042969 C 60.082031 54.859375 58.40625 57.542969 56.535156 60.085938 C 56.324219 59.722656 55.992188 59.472656 55.53125 59.332031 C 56.515625 58.171875 56.683594 56.914062 56.03125 55.5625 C 54.816406 54.613281 53.476562 53.355469 52.011719 51.789062 C 50.292969 50.832031 48.449219 50.414062 46.484375 50.535156 C 47.386719 50.128906 48.390625 49.875 49.5 49.78125 C 49.164062 49.277344 48.828125 48.773438 48.496094 48.269531 C 49.410156 47.898438 50.078125 47.3125 50.503906 46.511719 C 51.796875 47.042969 53.136719 47.125 54.523438 46.761719 C 55.800781 46.296875 56.300781 45.375 56.03125 43.996094 C 56.871094 43.996094 57.707031 43.996094 58.546875 43.996094 Z M 58.546875 43.996094 "/>
<path style=" stroke:none;fill-rule:evenodd;fill:rgb(82.352941%,73.333333%,69.019608%);fill-opacity:1;" d="M 94.226562 58.578125 C 93.054688 58.578125 91.878906 58.578125 90.707031 58.578125 C 90.707031 57.910156 90.707031 57.238281 90.707031 56.566406 C 91.375 54.679688 92.714844 54.09375 94.726562 54.808594 C 95.027344 55.34375 95.195312 55.929688 95.230469 56.566406 C 95.3125 57.5 94.976562 58.171875 94.226562 58.578125 Z M 94.226562 58.578125 "/>
<path style=" stroke:none;fill-rule:evenodd;fill:rgb(86.666667%,79.607843%,76.078431%);fill-opacity:1;" d="M 89.703125 55.058594 C 90.371094 58.078125 89.199219 59.25 86.183594 58.578125 C 86.183594 58.078125 86.183594 57.574219 86.183594 57.070312 C 86.183594 56.398438 86.183594 55.730469 86.183594 55.058594 C 87.359375 55.058594 88.53125 55.058594 89.703125 55.058594 Z M 89.703125 55.058594 "/>
<path style=" stroke:none;fill-rule:evenodd;fill:rgb(83.921569%,75.686275%,70.588235%);fill-opacity:1;" d="M 79.148438 54.554688 C 81 54.472656 82.84375 54.558594 84.675781 54.808594 C 85.324219 56.046875 85.324219 57.304688 84.675781 58.578125 C 82.863281 59.078125 81.023438 59.246094 79.148438 59.082031 C 79.148438 57.574219 79.148438 56.066406 79.148438 54.554688 Z M 79.148438 54.554688 "/>
<path style=" stroke:none;fill-rule:evenodd;fill:rgb(25.882353%,21.960784%,20%);fill-opacity:1;" d="M 89.703125 55.058594 C 90.039062 55.5625 90.371094 56.066406 90.707031 56.566406 C 90.707031 57.238281 90.707031 57.910156 90.707031 58.578125 C 91.878906 58.578125 93.054688 58.578125 94.226562 58.578125 C 92.996094 59.066406 91.65625 59.234375 90.207031 59.082031 C 90.21875 59.9375 90.554688 60.605469 91.210938 61.09375 C 88.867188 61.09375 86.519531 61.09375 84.175781 61.09375 C 85.714844 60.742188 87.304688 60.40625 88.949219 60.085938 C 89.03125 59.921875 89.117188 59.753906 89.199219 59.585938 C 88.074219 59.09375 86.902344 58.925781 85.683594 59.082031 C 85.546875 58.277344 85.714844 57.609375 86.183594 57.070312 C 86.183594 57.574219 86.183594 58.078125 86.183594 58.578125 C 89.199219 59.25 90.371094 58.078125 89.703125 55.058594 Z M 89.703125 55.058594 "/>
<path style=" stroke:none;fill-rule:evenodd;fill:rgb(95.294118%,82.352941%,58.431373%);fill-opacity:1;" d="M 46.484375 50.535156 C 48.449219 50.414062 50.292969 50.832031 52.011719 51.789062 C 53.476562 53.355469 54.816406 54.613281 56.03125 55.5625 C 56.683594 56.914062 56.515625 58.171875 55.53125 59.332031 C 55.992188 59.472656 56.324219 59.722656 56.535156 60.085938 C 54.828125 63.628906 54.660156 67.230469 56.03125 70.898438 C 55.894531 71.667969 55.726562 72.421875 55.53125 73.160156 C 55.53125 73.328125 55.53125 73.496094 55.53125 73.664062 C 51.34375 73.09375 47.15625 72.503906 42.96875 71.902344 C 41.558594 71.15625 40.21875 70.320312 38.945312 69.390625 C 39.609375 69.292969 40.28125 69.375 40.957031 69.640625 C 43.6875 71.550781 46.535156 71.636719 49.5 69.894531 C 51.398438 67.1875 51.480469 64.421875 49.75 61.597656 C 46.839844 57.75 43.070312 56.242188 38.445312 57.070312 C 37.136719 57.785156 35.882812 58.621094 34.675781 59.585938 C 33.976562 63.359375 34.5625 66.878906 36.433594 70.144531 C 37.589844 70.582031 37.921875 71.25 37.4375 72.15625 C 36.9375 71.820312 36.433594 71.484375 35.929688 71.148438 C 35.261719 70.3125 34.589844 69.472656 33.921875 68.636719 C 33.890625 65.554688 33.976562 62.367188 34.171875 59.082031 C 36.953125 54.382812 41.054688 51.53125 46.484375 50.535156 Z M 46.484375 50.535156 "/>
<path style=" stroke:none;fill-rule:evenodd;fill:rgb(98.823529%,93.72549%,82.745098%);fill-opacity:1;" d="M 40.957031 69.640625 C 40.5625 68.660156 39.894531 67.90625 38.945312 67.378906 C 37.851562 67.296875 36.933594 66.878906 36.183594 66.121094 C 36.015625 66.289062 35.847656 66.457031 35.679688 66.625 C 34.949219 64.492188 34.78125 62.3125 35.175781 60.085938 C 36.515625 59.335938 37.605469 58.328125 38.445312 57.070312 C 43.070312 56.242188 46.839844 57.75 49.75 61.597656 C 51.480469 64.421875 51.398438 67.1875 49.5 69.894531 C 46.535156 71.636719 43.6875 71.550781 40.957031 69.640625 Z M 40.957031 69.640625 "/>
<path style=" stroke:none;fill-rule:evenodd;fill:rgb(89.411765%,80.392157%,68.627451%);fill-opacity:1;" d="M 21.859375 73.160156 C 21.652344 72.796875 21.316406 72.546875 20.855469 72.40625 C 21.578125 72.296875 22.246094 72.046875 22.867188 71.652344 C 21.554688 71.242188 20.214844 70.988281 18.84375 70.898438 C 20.410156 69.90625 22.003906 68.984375 23.621094 68.132812 C 24.089844 65.828125 23.167969 65.074219 20.855469 65.871094 C 17.925781 66.847656 15.078125 68.019531 12.3125 69.390625 C 11.152344 69.640625 9.980469 69.722656 8.792969 69.640625 C 7.988281 68.324219 7.316406 66.898438 6.785156 65.367188 C 7.058594 65.007812 7.394531 64.753906 7.789062 64.613281 C 13.761719 62.003906 19.707031 59.320312 25.628906 56.566406 C 26.878906 60.492188 28.46875 64.261719 30.402344 67.882812 C 27.710938 69.898438 24.863281 71.660156 21.859375 73.160156 Z M 21.859375 73.160156 "/>
<path style=" stroke:none;fill-rule:evenodd;fill:rgb(81.960784%,74.901961%,70.588235%);fill-opacity:1;" d="M 84.175781 61.09375 C 86.519531 61.09375 88.867188 61.09375 91.210938 61.09375 C 92.195312 66.972656 90.1875 68.230469 85.179688 64.863281 C 83.699219 63.882812 83.363281 62.625 84.175781 61.09375 Z M 84.175781 61.09375 "/>
<path style=" stroke:none;fill-rule:evenodd;fill:rgb(90.980392%,66.666667%,37.647059%);fill-opacity:1;" d="M 80.65625 62.097656 C 82.835938 65.429688 82.503906 68.445312 79.652344 71.148438 C 79.074219 68.558594 78.992188 65.878906 79.402344 63.105469 C 79.609375 62.472656 80.027344 62.136719 80.65625 62.097656 Z M 80.65625 62.097656 "/>
<path style=" stroke:none;fill-rule:evenodd;fill:rgb(99.215686%,93.333333%,79.607843%);fill-opacity:1;" d="M 76.636719 70.648438 C 75.421875 72.179688 73.914062 73.351562 72.113281 74.167969 C 69.929688 74.25 67.753906 74.167969 65.582031 73.914062 C 66.121094 73.488281 66.621094 73.066406 67.089844 72.65625 C 70.28125 71.6875 73.046875 70.011719 75.378906 67.628906 C 75.753906 64.753906 75.667969 61.90625 75.128906 59.082031 C 74.113281 55.878906 72.4375 53.03125 70.105469 50.535156 C 70.039062 50.164062 70.121094 49.828125 70.355469 49.527344 C 72.414062 51.34375 74.507812 53.019531 76.636719 54.554688 C 77.125 58.140625 77.460938 61.746094 77.640625 65.367188 C 77.738281 67.257812 77.40625 69.019531 76.636719 70.648438 Z M 76.636719 70.648438 "/>
<use xlink:href="#surface26" mask="url(#mask7)"/>
<path style=" stroke:none;fill-rule:evenodd;fill:rgb(94.117647%,76.470588%,51.372549%);fill-opacity:1;" d="M 78.144531 60.085938 C 79.109375 60.648438 79.945312 61.316406 80.65625 62.097656 C 80.027344 62.136719 79.609375 62.472656 79.402344 63.105469 C 78.992188 65.878906 79.074219 68.558594 79.652344 71.148438 C 78.003906 73.234375 75.824219 74.40625 73.121094 74.667969 C 72.621094 74.757812 72.285156 74.589844 72.113281 74.167969 C 73.914062 73.351562 75.421875 72.179688 76.636719 70.648438 C 77.699219 70.167969 78.285156 69.328125 78.394531 68.132812 C 78.613281 65.445312 78.53125 62.761719 78.144531 60.085938 Z M 78.144531 60.085938 "/>
<path style=" stroke:none;fill-rule:evenodd;fill:rgb(96.862745%,89.411765%,74.509804%);fill-opacity:1;" d="M 38.445312 57.070312 C 37.605469 58.328125 36.515625 59.335938 35.175781 60.085938 C 34.78125 62.3125 34.949219 64.492188 35.679688 66.625 C 35.847656 66.457031 36.015625 66.289062 36.183594 66.121094 C 36.933594 66.878906 37.851562 67.296875 38.945312 67.378906 C 39.894531 67.90625 40.5625 68.660156 40.957031 69.640625 C 40.28125 69.375 39.609375 69.292969 38.945312 69.390625 C 40.21875 70.320312 41.558594 71.15625 42.96875 71.902344 C 47.15625 72.503906 51.34375 73.09375 55.53125 73.664062 C 56.558594 73.765625 56.726562 74.1875 56.03125 74.921875 C 52.59375 75.007812 49.242188 75.257812 45.980469 75.675781 C 42.839844 75.191406 39.992188 74.019531 37.4375 72.15625 C 37.921875 71.25 37.589844 70.582031 36.433594 70.144531 C 34.5625 66.878906 33.976562 63.359375 34.675781 59.585938 C 35.882812 58.621094 37.136719 57.785156 38.445312 57.070312 Z M 38.445312 57.070312 "/>
<path style=" stroke:none;fill-rule:evenodd;fill:rgb(83.529412%,62.745098%,37.254902%);fill-opacity:1;" d="M 70.605469 54.554688 C 71.546875 54.738281 72.300781 55.238281 72.867188 56.066406 C 73.605469 57.136719 74.359375 58.140625 75.128906 59.082031 C 75.667969 61.90625 75.753906 64.753906 75.378906 67.628906 C 73.046875 70.011719 70.28125 71.6875 67.089844 72.65625 C 65.339844 72.890625 63.582031 73.058594 61.8125 73.160156 C 60.5 73.144531 59.410156 72.808594 58.546875 72.15625 C 61.898438 71.738281 65.246094 70.984375 68.597656 69.894531 C 70.167969 68.824219 71.59375 67.566406 72.867188 66.121094 C 74.4375 61.753906 73.683594 57.898438 70.605469 54.554688 Z M 70.605469 54.554688 "/>
<path style=" stroke:none;fill-rule:evenodd;fill:rgb(92.156863%,86.666667%,78.039216%);fill-opacity:1;" d="M 21.859375 73.160156 C 20.816406 73.671875 19.8125 74.171875 18.84375 74.667969 C 13.792969 76.304688 10.441406 74.628906 8.792969 69.640625 C 9.980469 69.722656 11.152344 69.640625 12.3125 69.390625 C 15.078125 68.019531 17.925781 66.847656 20.855469 65.871094 C 23.167969 65.074219 24.089844 65.828125 23.621094 68.132812 C 22.003906 68.984375 20.410156 69.90625 18.84375 70.898438 C 20.214844 70.988281 21.554688 71.242188 22.867188 71.652344 C 22.246094 72.046875 21.578125 72.296875 20.855469 72.40625 C 21.316406 72.546875 21.652344 72.796875 21.859375 73.160156 Z M 21.859375 73.160156 "/>
<path style=" stroke:none;fill-rule:evenodd;fill:rgb(95.294118%,83.137255%,65.098039%);fill-opacity:1;" d="M 58.546875 72.15625 C 59.410156 72.808594 60.5 73.144531 61.8125 73.160156 C 63.582031 73.058594 65.339844 72.890625 67.089844 72.65625 C 66.621094 73.066406 66.121094 73.488281 65.582031 73.914062 C 67.753906 74.167969 69.929688 74.25 72.113281 74.167969 C 72.285156 74.589844 72.621094 74.757812 73.121094 74.667969 C 71.734375 75.304688 70.226562 75.722656 68.597656 75.925781 C 61.019531 76.335938 53.484375 76.253906 45.980469 75.675781 C 49.242188 75.257812 52.59375 75.007812 56.03125 74.921875 C 56.726562 74.1875 56.558594 73.765625 55.53125 73.664062 C 55.53125 73.496094 55.53125 73.328125 55.53125 73.160156 C 56.628906 73.058594 57.632812 72.722656 58.546875 72.15625 Z M 58.546875 72.15625 "/>
<path style=" stroke:none;fill-rule:evenodd;fill:rgb(98.823529%,77.254902%,33.333333%);fill-opacity:1;" d="M 33.417969 71.652344 C 34.246094 72.816406 35.25 73.820312 36.433594 74.667969 C 35.921875 75.519531 35.25 76.1875 34.425781 76.679688 C 33.824219 76.589844 33.238281 76.425781 32.664062 76.179688 C 30.257812 77.789062 27.660156 78.542969 24.875 78.441406 C 25.816406 77.929688 26.824219 77.511719 27.890625 77.183594 C 26.378906 76.554688 24.871094 76.554688 23.367188 77.183594 C 23.199219 77.015625 23.03125 76.847656 22.867188 76.679688 C 23.53125 76.105469 24.035156 75.4375 24.375 74.667969 C 26.914062 73.355469 29.34375 71.847656 31.660156 70.144531 C 32.183594 70.753906 32.769531 71.253906 33.417969 71.652344 Z M 33.417969 71.652344 "/>
<use xlink:href="#surface29" mask="url(#mask8)"/>
<path style=" stroke:none;fill-rule:evenodd;fill:rgb(44.313725%,29.411765%,16.470588%);fill-opacity:1;" d="M 72.617188 77.6875 C 72.449219 78.023438 72.28125 78.355469 72.113281 78.691406 C 67.425781 78.691406 62.734375 78.691406 58.042969 78.691406 C 62.835938 78.332031 67.695312 77.996094 72.617188 77.6875 Z M 72.617188 77.6875 "/>
<path style=" stroke:none;fill-rule:evenodd;fill:rgb(97.254902%,80.784314%,41.568627%);fill-opacity:1;" d="M 24.375 74.667969 C 24.035156 75.4375 23.53125 76.105469 22.867188 76.679688 C 23.03125 76.847656 23.199219 77.015625 23.367188 77.183594 C 24.871094 76.554688 26.378906 76.554688 27.890625 77.183594 C 26.824219 77.511719 25.816406 77.929688 24.875 78.441406 C 27.660156 78.542969 30.257812 77.789062 32.664062 76.179688 C 33.238281 76.425781 33.824219 76.589844 34.425781 76.679688 C 31.453125 79.214844 28.019531 80.890625 24.121094 81.710938 C 21.398438 81.226562 19.304688 79.800781 17.839844 77.433594 C 18.523438 76.964844 19.191406 76.546875 19.851562 76.179688 C 21.40625 75.816406 22.914062 75.316406 24.375 74.667969 Z M 24.375 74.667969 "/>
<path style=" stroke:none;fill-rule:evenodd;fill:rgb(77.647059%,51.764706%,24.313725%);fill-opacity:1;" d="M 58.042969 78.691406 C 62.734375 78.691406 67.425781 78.691406 72.113281 78.691406 C 69.546875 81.503906 66.363281 82.425781 62.566406 81.457031 C 61.167969 81.007812 59.828125 80.421875 58.546875 79.699219 C 58.144531 79.925781 57.976562 80.261719 58.042969 80.703125 C 57.375 80.03125 57.375 79.363281 58.042969 78.691406 Z M 58.042969 78.691406 "/>
<path style=" stroke:none;fill-rule:evenodd;fill:rgb(96.862745%,80.784314%,54.509804%);fill-opacity:1;" d="M 58.042969 80.703125 C 57.976562 80.261719 58.144531 79.925781 58.546875 79.699219 C 59.828125 80.421875 61.167969 81.007812 62.566406 81.457031 C 66.363281 82.425781 69.546875 81.503906 72.113281 78.691406 C 72.28125 78.355469 72.449219 78.023438 72.617188 77.6875 C 73.117188 77.730469 73.535156 77.5625 73.875 77.183594 C 74.3125 81.242188 72.554688 83.839844 68.597656 84.976562 C 63.882812 86.300781 60.363281 84.875 58.042969 80.703125 Z M 58.042969 80.703125 "/>
<use xlink:href="#surface32" mask="url(#mask9)"/>
</g>
</svg>
