<?xml version="1.0" encoding="UTF-8"?>
<svg xmlns="http://www.w3.org/2000/svg" xmlns:xlink="http://www.w3.org/1999/xlink" width="px" height="px" viewBox="0 0 100 101" version="1.1">
<defs>
<filter id="alpha" filterUnits="objectBoundingBox" x="0%" y="0%" width="100%" height="100%">
  <feColorMatrix type="matrix" in="SourceGraphic" values="0 0 0 0 1 0 0 0 0 1 0 0 0 0 1 0 0 0 1 0"/>
</filter>
<mask id="mask0">
  <g filter="url(#alpha)">
<rect x="0" y="0" width="100" height="101" style="fill:rgb(0%,0%,0%);fill-opacity:0.992157;stroke:none;"/>
  </g>
</mask>
<clipPath id="clip1">
  <rect x="0" y="0" width="100" height="101"/>
</clipPath>
<g id="surface5" clip-path="url(#clip1)">
<path style=" stroke:none;fill-rule:evenodd;fill:rgb(5.490196%,3.529412%,2.745098%);fill-opacity:1;" d="M 31.25 0.75 C 32.925781 0.667969 34.589844 0.75 36.25 1 C 36.964844 1.234375 37.546875 1.648438 38 2.25 C 38.785156 1.578125 39.703125 1.242188 40.75 1.25 C 41.9375 1.769531 43.105469 1.769531 44.25 1.25 C 45.542969 1.535156 46.042969 2.371094 45.75 3.75 C 43.292969 2.113281 41.292969 2.527344 39.75 5 C 39.101562 5.246094 38.4375 5.328125 37.75 5.25 C 36.851562 4.605469 36.019531 3.855469 35.25 3 C 34.058594 2.628906 33.058594 2.878906 32.25 3.75 C 31.140625 4.101562 30.226562 4.769531 29.5 5.75 C 28.667969 7.75 27.585938 9.582031 26.25 11.25 C 24.019531 11.613281 22.1875 12.613281 20.75 14.25 C 20.28125 15.386719 19.613281 16.386719 18.75 17.25 C 17.042969 18.792969 16.792969 20.625 18 22.75 C 18.519531 23.355469 19.101562 23.855469 19.75 24.25 C 17.296875 25.492188 14.796875 26.65625 12.25 27.75 C 11.316406 27.929688 10.566406 28.429688 10 29.25 C 7.824219 32.089844 6.660156 35.253906 6.5 38.75 C 6.894531 40.054688 7.644531 41.054688 8.75 41.75 C 8.96875 41.71875 9.136719 41.800781 9.25 42 C 8.046875 43.140625 6.796875 44.226562 5.5 45.25 C 5.269531 45.546875 5.183594 45.878906 5.25 46.25 C 2.773438 49.082031 2.605469 52.082031 4.75 55.25 C 4.222656 55.324219 3.722656 55.242188 3.25 55 C 0.15625 50.171875 0.824219 45.839844 5.25 42 C 5.214844 41.617188 5.046875 41.367188 4.75 41.25 C 3.601562 35.039062 5.4375 29.875 10.25 25.75 C 12.023438 24.949219 13.855469 24.28125 15.75 23.75 C 14.886719 22.023438 14.554688 20.191406 14.75 18.25 C 16.234375 16.339844 17.652344 14.339844 19 12.25 C 20.882812 10.757812 22.964844 9.589844 25.25 8.75 C 25.621094 8.132812 25.789062 7.464844 25.75 6.75 C 26.890625 4.113281 28.722656 2.113281 31.25 0.75 Z M 31.25 0.75 "/>
</g>
<mask id="mask1">
  <g filter="url(#alpha)">
<rect x="0" y="0" width="100" height="101" style="fill:rgb(0%,0%,0%);fill-opacity:0.0627451;stroke:none;"/>
  </g>
</mask>
<clipPath id="clip2">
  <rect x="0" y="0" width="100" height="101"/>
</clipPath>
<g id="surface8" clip-path="url(#clip2)">
<path style=" stroke:none;fill-rule:evenodd;fill:rgb(16.470589%,23.529412%,28.627452%);fill-opacity:1;" d="M 59.75 5.25 C 60.523438 5.351562 61.1875 5.683594 61.75 6.25 C 69.601562 4.304688 74.601562 7.390625 76.75 15.5 C 76.582031 15.667969 76.417969 15.832031 76.25 16 C 80.160156 17.910156 82.574219 20.992188 83.5 25.25 C 85.796875 25.601562 88.046875 26.1875 90.25 27 C 91.78125 28.988281 93.117188 31.070312 94.25 33.25 C 92.121094 33.449219 91.203125 32.449219 91.5 30.25 C 89.507812 27.050781 86.59375 25.71875 82.75 26.25 C 82.492188 21.742188 80.242188 18.742188 76 17.25 C 74.769531 8.429688 69.851562 5.097656 61.25 7.25 C 60.738281 6.574219 60.238281 5.90625 59.75 5.25 Z M 59.75 5.25 "/>
</g>
<mask id="mask2">
  <g filter="url(#alpha)">
<rect x="0" y="0" width="100" height="101" style="fill:rgb(0%,0%,0%);fill-opacity:0.0392157;stroke:none;"/>
  </g>
</mask>
<clipPath id="clip3">
  <rect x="0" y="0" width="100" height="101"/>
</clipPath>
<g id="surface11" clip-path="url(#clip3)">
<path style=" stroke:none;fill-rule:evenodd;fill:rgb(15.686275%,21.568628%,26.666668%);fill-opacity:1;" d="M 25.75 6.75 C 25.789062 7.464844 25.621094 8.132812 25.25 8.75 C 22.964844 9.589844 20.882812 10.757812 19 12.25 C 17.652344 14.339844 16.234375 16.339844 14.75 18.25 C 16.136719 13.03125 19.46875 9.863281 24.75 8.75 C 24.613281 7.808594 24.949219 7.144531 25.75 6.75 Z M 25.75 6.75 "/>
</g>
<mask id="mask3">
  <g filter="url(#alpha)">
<rect x="0" y="0" width="100" height="101" style="fill:rgb(0%,0%,0%);fill-opacity:0.0627451;stroke:none;"/>
  </g>
</mask>
<clipPath id="clip4">
  <rect x="0" y="0" width="100" height="101"/>
</clipPath>
<g id="surface14" clip-path="url(#clip4)">
<path style=" stroke:none;fill-rule:evenodd;fill:rgb(17.254902%,22.745098%,27.450982%);fill-opacity:1;" d="M 14.75 18.25 C 14.554688 20.191406 14.886719 22.023438 15.75 23.75 C 13.855469 24.28125 12.023438 24.949219 10.25 25.75 C 11.167969 24.433594 12.503906 23.765625 14.25 23.75 C 14.386719 22.277344 14.222656 20.859375 13.75 19.5 C 14.03125 19.003906 14.367188 18.585938 14.75 18.25 Z M 14.75 18.25 "/>
</g>
<mask id="mask4">
  <g filter="url(#alpha)">
<rect x="0" y="0" width="100" height="101" style="fill:rgb(0%,0%,0%);fill-opacity:0.0941176;stroke:none;"/>
  </g>
</mask>
<clipPath id="clip5">
  <rect x="0" y="0" width="100" height="101"/>
</clipPath>
<g id="surface17" clip-path="url(#clip5)">
<path style=" stroke:none;fill-rule:evenodd;fill:rgb(16.470589%,21.176471%,25.490198%);fill-opacity:1;" d="M 10.25 25.75 C 5.4375 29.875 3.601562 35.039062 4.75 41.25 C 3.871094 39.433594 3.371094 37.597656 3.25 35.75 C 4.144531 32.640625 5.5625 29.808594 7.5 27.25 C 8.242188 26.421875 9.160156 25.921875 10.25 25.75 Z M 10.25 25.75 "/>
</g>
<mask id="mask5">
  <g filter="url(#alpha)">
<rect x="0" y="0" width="100" height="101" style="fill:rgb(0%,0%,0%);fill-opacity:0.996078;stroke:none;"/>
  </g>
</mask>
<clipPath id="clip6">
  <rect x="0" y="0" width="100" height="101"/>
</clipPath>
<g id="surface20" clip-path="url(#clip6)">
<path style=" stroke:none;fill-rule:evenodd;fill:rgb(5.490196%,5.098039%,5.098039%);fill-opacity:1;" d="M 93.25 41.75 C 89.847656 41.367188 88.847656 42.785156 90.25 46 C 91.917969 46.332031 93.582031 46.332031 95.25 46 C 95.710938 44.980469 95.878906 43.894531 95.75 42.75 C 96.921875 44.007812 96.921875 45.257812 95.75 46.5 C 96.261719 46.757812 96.761719 47.007812 97.25 47.25 C 99.238281 49.542969 99.238281 51.878906 97.25 54.25 C 98.65625 56.660156 98.570312 58.996094 97 61.25 C 96.75 62.574219 96.667969 63.90625 96.75 65.25 C 96.824219 65.777344 96.742188 66.277344 96.5 66.75 C 95.585938 67.328125 94.753906 67.996094 94 68.75 C 93.832031 68.582031 93.667969 68.417969 93.5 68.25 C 92.738281 70.960938 91.152344 72.960938 88.75 74.25 C 86.75 74.515625 84.75 74.851562 82.75 75.25 C 82.128906 79.371094 79.960938 82.371094 76.25 84.25 C 74.632812 92.433594 69.632812 95.851562 61.25 94.5 C 60.617188 95.636719 59.785156 96.554688 58.75 97.25 C 57.941406 97.984375 56.941406 98.320312 55.75 98.25 C 54.976562 98.246094 54.3125 98.078125 53.75 97.75 C 52.785156 96.925781 51.785156 96.09375 50.75 95.25 C 49.640625 97.152344 48.308594 98.820312 46.75 100.25 C 46.75 100.417969 46.75 100.582031 46.75 100.75 C 45.417969 100.75 44.082031 100.75 42.75 100.75 C 41.453125 100.054688 40.285156 99.140625 39.25 98 C 36.066406 98.5 32.898438 98.332031 29.75 97.5 C 27.660156 96.578125 26.328125 94.996094 25.75 92.75 C 19.117188 91.125 15.617188 86.957031 15.25 80.25 C 12.804688 79.058594 10.722656 77.390625 9 75.25 C 7.625 72.996094 6.125 70.828125 4.5 68.75 C 3.996094 67.988281 3.746094 67.152344 3.75 66.25 C 3.417969 63.859375 3.917969 61.691406 5.25 59.75 C 4.433594 58.675781 4.597656 58.09375 5.75 58 C 6.519531 58.683594 7.1875 59.433594 7.75 60.25 C 7.582031 60.582031 7.417969 60.917969 7.25 61.25 C 6.261719 61.660156 5.761719 62.410156 5.75 63.5 C 5.960938 64.59375 6.210938 65.675781 6.5 66.75 C 8.695312 69.445312 10.695312 72.277344 12.5 75.25 C 14.125 76.667969 15.957031 77.667969 18 78.25 C 18.316406 78.984375 18.734375 79.648438 19.25 80.25 C 17.796875 84.109375 18.964844 87.027344 22.75 89 C 24.53125 89.617188 26.363281 89.867188 28.25 89.75 C 28.128906 90.949219 28.464844 91.949219 29.25 92.75 C 29.25 92.917969 29.25 93.082031 29.25 93.25 C 30.421875 94.796875 32.003906 95.628906 34 95.75 C 36.285156 95.367188 38.535156 94.867188 40.75 94.25 C 41.679688 96.941406 43.511719 98.023438 46.25 97.5 C 47.070312 96.933594 47.570312 96.183594 47.75 95.25 C 48.40625 93.933594 49.238281 92.765625 50.25 91.75 C 51.292969 92.539062 52.292969 93.453125 53.25 94.5 C 55.355469 95.632812 57.273438 95.382812 59 93.75 C 59.375 92.535156 58.957031 91.703125 57.75 91.25 C 56.511719 89.835938 56.011719 88.167969 56.25 86.25 C 54.582031 86.25 52.917969 86.25 51.25 86.25 C 50.070312 86.167969 48.90625 86.25 47.75 86.5 C 47 88.003906 46.582031 87.753906 46.5 85.75 C 46.003906 85.46875 45.585938 85.132812 45.25 84.75 C 44.828125 84.015625 44.160156 83.601562 43.25 83.5 C 43.523438 83.140625 43.855469 82.890625 44.25 82.75 C 47.128906 83.375 50.042969 83.707031 53 83.75 C 59.257812 83.429688 65.507812 83.015625 71.75 82.5 C 74.367188 82.492188 76.535156 81.578125 78.25 79.75 C 79.003906 78.910156 79.503906 77.910156 79.75 76.75 C 80.320312 75.347656 80.402344 73.847656 80 72.25 C 78.964844 70.917969 77.796875 69.75 76.5 68.75 C 76.164062 69.125 75.746094 69.292969 75.25 69.25 C 74.277344 65.972656 72.777344 62.972656 70.75 60.25 C 71.996094 60.148438 73.160156 60.398438 74.25 61 C 75.195312 62.152344 76.195312 63.234375 77.25 64.25 C 77.917969 64.082031 78.582031 63.917969 79.25 63.75 C 79.777344 63 80.113281 62.164062 80.25 61.25 C 80.152344 58.628906 80.070312 55.796875 80 52.75 C 79.167969 51.605469 79.085938 50.441406 79.75 49.25 C 80.144531 48.695312 80.394531 48.027344 80.5 47.25 C 80.601562 48.953125 81.351562 49.453125 82.75 48.75 C 82.613281 50.222656 82.777344 51.640625 83.25 53 C 84.910156 53.25 86.574219 53.332031 88.25 53.25 C 88.25 51.582031 88.25 49.917969 88.25 48.25 C 86.75 48.25 85.25 48.25 83.75 48.25 C 83.746094 47.792969 84.246094 47.542969 85.25 47.5 C 84.582031 47.332031 83.917969 47.167969 83.25 47 C 85.011719 46.910156 86.679688 46.660156 88.25 46.25 C 88.25 44.917969 88.25 43.582031 88.25 42.25 C 87.082031 42.25 85.917969 42.25 84.75 42.25 C 85.085938 41.578125 85.085938 40.992188 84.75 40.5 C 85 40.417969 85.25 40.332031 85.5 40.25 C 87.210938 41.082031 88.792969 40.914062 90.25 39.75 C 90.691406 40.164062 90.859375 40.664062 90.75 41.25 C 91.707031 41.109375 92.539062 41.273438 93.25 41.75 Z M 93.25 41.75 "/>
</g>
<mask id="mask6">
  <g filter="url(#alpha)">
<rect x="0" y="0" width="100" height="101" style="fill:rgb(0%,0%,0%);fill-opacity:0.0156863;stroke:none;"/>
  </g>
</mask>
<clipPath id="clip7">
  <rect x="0" y="0" width="100" height="101"/>
</clipPath>
<g id="surface23" clip-path="url(#clip7)">
<path style=" stroke:none;fill-rule:evenodd;fill:rgb(17.254902%,22.352941%,27.450982%);fill-opacity:1;" d="M 94.25 33.25 C 95.632812 33.371094 96.714844 34.039062 97.5 35.25 C 97.886719 37.914062 98.636719 40.414062 99.75 42.75 C 99.75 43.582031 99.75 44.417969 99.75 45.25 C 98.417969 46.417969 98.417969 47.582031 99.75 48.75 C 99.75 49.25 99.75 49.75 99.75 50.25 C 99.347656 51.640625 98.847656 53.054688 98.25 54.5 C 99.765625 57.246094 99.429688 59.746094 97.25 62 C 97.921875 63.226562 97.753906 64.3125 96.75 65.25 C 96.667969 63.90625 96.75 62.574219 97 61.25 C 98.570312 58.996094 98.65625 56.660156 97.25 54.25 C 99.238281 51.878906 99.238281 49.542969 97.25 47.25 C 98.699219 44.660156 98.53125 42.160156 96.75 39.75 C 97.726562 36.871094 96.890625 34.703125 94.25 33.25 Z M 94.25 33.25 "/>
</g>
<mask id="mask7">
  <g filter="url(#alpha)">
<rect x="0" y="0" width="100" height="101" style="fill:rgb(0%,0%,0%);fill-opacity:0.972549;stroke:none;"/>
  </g>
</mask>
<clipPath id="clip8">
  <rect x="0" y="0" width="100" height="101"/>
</clipPath>
<g id="surface26" clip-path="url(#clip8)">
<path style=" stroke:none;fill-rule:evenodd;fill:rgb(10.196079%,11.764706%,13.333334%);fill-opacity:1;" d="M 4.75 41.25 C 5.046875 41.367188 5.214844 41.617188 5.25 42 C 0.824219 45.839844 0.15625 50.171875 3.25 55 C 3.722656 55.242188 4.222656 55.324219 4.75 55.25 C 5.574219 56.90625 6.738281 58.238281 8.25 59.25 C 8.335938 59.746094 8.167969 60.078125 7.75 60.25 C 7.1875 59.433594 6.519531 58.683594 5.75 58 C 4.597656 58.09375 4.433594 58.675781 5.25 59.75 C 3.917969 61.691406 3.417969 63.859375 3.75 66.25 C 2.996094 63.96875 3.160156 61.71875 4.25 59.5 C 1.996094 56.742188 0.496094 53.660156 -0.25 50.25 C -0.25 49.917969 -0.25 49.582031 -0.25 49.25 C 0.894531 46.296875 2.5625 43.632812 4.75 41.25 Z M 4.75 41.25 "/>
</g>
<mask id="mask8">
  <g filter="url(#alpha)">
<rect x="0" y="0" width="100" height="101" style="fill:rgb(0%,0%,0%);fill-opacity:0.0313725;stroke:none;"/>
  </g>
</mask>
<clipPath id="clip9">
  <rect x="0" y="0" width="100" height="101"/>
</clipPath>
<g id="surface29" clip-path="url(#clip9)">
<path style=" stroke:none;fill-rule:evenodd;fill:rgb(16.862746%,20.784314%,24.705882%);fill-opacity:1;" d="M 88.75 74.25 C 88.695312 74.558594 88.527344 74.808594 88.25 75 C 86.632812 75.355469 85.050781 75.773438 83.5 76.25 C 82.316406 79.9375 80.148438 82.9375 77 85.25 C 75.046875 92.449219 70.710938 95.617188 64 94.75 C 62.183594 95.496094 60.433594 96.328125 58.75 97.25 C 59.785156 96.554688 60.617188 95.636719 61.25 94.5 C 69.632812 95.851562 74.632812 92.433594 76.25 84.25 C 79.960938 82.371094 82.128906 79.371094 82.75 75.25 C 84.75 74.851562 86.75 74.515625 88.75 74.25 Z M 88.75 74.25 "/>
</g>
<mask id="mask9">
  <g filter="url(#alpha)">
<rect x="0" y="0" width="100" height="101" style="fill:rgb(0%,0%,0%);fill-opacity:0.105882;stroke:none;"/>
  </g>
</mask>
<clipPath id="clip10">
  <rect x="0" y="0" width="100" height="101"/>
</clipPath>
<g id="surface32" clip-path="url(#clip10)">
<path style=" stroke:none;fill-rule:evenodd;fill:rgb(16.470589%,20.784314%,25.098041%);fill-opacity:1;" d="M 53.75 97.75 C 52.871094 97.5625 52.039062 97.226562 51.25 96.75 C 49.988281 97.59375 48.988281 98.679688 48.25 100 C 47.777344 100.242188 47.277344 100.324219 46.75 100.25 C 48.308594 98.820312 49.640625 97.152344 50.75 95.25 C 51.785156 96.09375 52.785156 96.925781 53.75 97.75 Z M 53.75 97.75 "/>
</g>
</defs>
<g id="surface1">
<path style=" stroke:none;fill-rule:evenodd;fill:rgb(10.196079%,13.725491%,16.470589%);fill-opacity:1;" d="M 40.25 -0.25 C 41.917969 -0.25 43.582031 -0.25 45.25 -0.25 C 47.386719 0.886719 49.054688 2.554688 50.25 4.75 C 52.933594 3.089844 55.765625 2.839844 58.75 4 C 59.378906 4.207031 59.710938 4.625 59.75 5.25 C 56.214844 2.980469 52.964844 3.316406 50 6.25 C 49.511719 4.597656 48.511719 3.433594 47 2.75 C 46.792969 3.378906 46.375 3.710938 45.75 3.75 C 46.042969 2.371094 45.542969 1.535156 44.25 1.25 C 43.105469 1.769531 41.9375 1.769531 40.75 1.25 C 39.703125 1.242188 38.785156 1.578125 38 2.25 C 37.546875 1.648438 36.964844 1.234375 36.25 1 C 34.589844 0.75 32.925781 0.667969 31.25 0.75 C 33.585938 0.0078125 35.921875 0.171875 38.25 1.25 C 38.949219 0.738281 39.617188 0.238281 40.25 -0.25 Z M 40.25 -0.25 "/>
<path style=" stroke:none;fill-rule:evenodd;fill:rgb(99.215686%,70.980394%,25.490198%);fill-opacity:1;" d="M 37.75 5.25 C 37.78125 6.359375 38.363281 6.859375 39.5 6.75 C 41.453125 5.765625 43.453125 5.429688 45.5 5.75 C 46.898438 7.875 46.984375 10.042969 45.75 12.25 C 45.28125 12.785156 45.117188 13.449219 45.25 14.25 C 43.050781 14.351562 40.882812 14.1875 38.75 13.75 C 38.171875 15.011719 38.171875 16.347656 38.75 17.75 C 37.261719 17.691406 35.84375 17.355469 34.5 16.75 C 34.796875 17.675781 35.046875 18.675781 35.25 19.75 C 33.914062 20.265625 32.496094 20.765625 31 21.25 C 30.25 21 29.5 20.75 28.75 20.5 C 29.011719 20.21875 29.175781 19.886719 29.25 19.5 C 27.820312 18.457031 27.652344 17.375 28.75 16.25 C 28.199219 15.914062 27.699219 15.578125 27.25 15.25 C 27.46875 15.28125 27.636719 15.199219 27.75 15 C 27.320312 14.65625 26.988281 14.238281 26.75 13.75 C 29.6875 10.863281 31.523438 7.527344 32.25 3.75 C 33.058594 2.878906 34.058594 2.628906 35.25 3 C 36.019531 3.855469 36.851562 4.605469 37.75 5.25 Z M 37.75 5.25 "/>
<use xlink:href="#surface5" mask="url(#mask0)"/>
<use xlink:href="#surface8" mask="url(#mask1)"/>
<use xlink:href="#surface11" mask="url(#mask2)"/>
<path style=" stroke:none;fill-rule:evenodd;fill:rgb(3.921569%,1.960784%,1.568628%);fill-opacity:1;" d="M 59.75 5.25 C 60.238281 5.90625 60.738281 6.574219 61.25 7.25 C 69.851562 5.097656 74.769531 8.429688 76 17.25 C 80.242188 18.742188 82.492188 21.742188 82.75 26.25 C 86.59375 25.71875 89.507812 27.050781 91.5 30.25 C 91.203125 32.449219 92.121094 33.449219 94.25 33.25 C 96.890625 34.703125 97.726562 36.871094 96.75 39.75 C 98.53125 42.160156 98.699219 44.660156 97.25 47.25 C 96.761719 47.007812 96.261719 46.757812 95.75 46.5 C 96.921875 45.257812 96.921875 44.007812 95.75 42.75 C 95.183594 41.894531 94.347656 41.558594 93.25 41.75 C 92.539062 41.273438 91.707031 41.109375 90.75 41.25 C 90.859375 40.664062 90.691406 40.164062 90.25 39.75 C 88.792969 40.914062 87.210938 41.082031 85.5 40.25 C 85.25 40.332031 85 40.417969 84.75 40.5 C 85.085938 40.992188 85.085938 41.578125 84.75 42.25 C 84.089844 42.164062 83.503906 42.332031 83 42.75 C 82.75 43.90625 82.667969 45.070312 82.75 46.25 C 82.085938 46.976562 81.671875 46.808594 81.5 45.75 C 82.304688 41.660156 80.886719 38.742188 77.25 37 C 78.039062 33.722656 78.957031 30.472656 80 27.25 C 80.472656 23.214844 78.722656 20.628906 74.75 19.5 C 66.914062 19.300781 59.082031 19.050781 51.25 18.75 C 39.007812 18.484375 31.339844 24.316406 28.25 36.25 C 26.816406 41.925781 26.484375 47.59375 27.25 53.25 C 27.558594 63.429688 31.226562 72.179688 38.25 79.5 C 40.21875 80.730469 42.21875 81.816406 44.25 82.75 C 43.855469 82.890625 43.523438 83.140625 43.25 83.5 C 44.160156 83.601562 44.828125 84.015625 45.25 84.75 C 43.84375 84.726562 42.511719 84.390625 41.25 83.75 C 40.257812 84.492188 39.34375 85.324219 38.5 86.25 C 38.410156 85.257812 38.492188 84.257812 38.75 83.25 C 37.949219 83.117188 37.285156 83.28125 36.75 83.75 C 35.886719 83.90625 35.054688 83.992188 34.25 84 C 36.894531 82.34375 36.894531 80.761719 34.25 79.25 C 33.460938 77.707031 32.375 76.371094 31 75.25 C 30.613281 73.476562 29.945312 71.808594 29 70.25 C 28.320312 69.808594 27.570312 69.644531 26.75 69.75 C 27.90625 67.6875 27.738281 65.6875 26.25 63.75 C 25.636719 59.035156 24.800781 54.367188 23.75 49.75 C 24.714844 46.308594 25.128906 42.808594 25 39.25 C 23.96875 38.132812 22.886719 37.132812 21.75 36.25 C 23.023438 36.195312 24.191406 36.527344 25.25 37.25 C 25.972656 36.195312 26.304688 35.03125 26.25 33.75 C 27.132812 31.414062 28.214844 29.078125 29.5 26.75 C 29.582031 26.25 29.667969 25.75 29.75 25.25 C 29.613281 24.152344 29.113281 23.320312 28.25 22.75 C 29.414062 22.625 30.414062 22.957031 31.25 23.75 C 32.378906 23.289062 32.878906 22.457031 32.75 21.25 C 33.964844 21.363281 34.800781 20.863281 35.25 19.75 C 35.046875 18.675781 34.796875 17.675781 34.5 16.75 C 35.84375 17.355469 37.261719 17.691406 38.75 17.75 C 39.703125 17.601562 40.535156 17.269531 41.25 16.75 C 42.972656 16.453125 44.640625 15.953125 46.25 15.25 C 45.824219 14.296875 45.660156 13.296875 45.75 12.25 C 46.296875 13.175781 46.964844 14.007812 47.75 14.75 C 50.300781 15.480469 52.964844 15.8125 55.75 15.75 C 55.75 14.417969 55.75 13.082031 55.75 11.75 C 60.003906 7.550781 59.003906 5.964844 52.75 7 C 51.644531 8.019531 50.644531 9.105469 49.75 10.25 C 48.285156 8.152344 46.953125 5.984375 45.75 3.75 C 46.375 3.710938 46.792969 3.378906 47 2.75 C 48.511719 3.433594 49.511719 4.597656 50 6.25 C 52.964844 3.316406 56.214844 2.980469 59.75 5.25 Z M 59.75 5.25 "/>
<path style=" stroke:none;fill-rule:evenodd;fill:rgb(94.117647%,58.823532%,15.686275%);fill-opacity:1;" d="M 45.75 3.75 C 46.953125 5.984375 48.285156 8.152344 49.75 10.25 C 50.644531 9.105469 51.644531 8.019531 52.75 7 C 59.003906 5.964844 60.003906 7.550781 55.75 11.75 C 54.773438 11.339844 53.773438 11.253906 52.75 11.5 C 51.929688 13.90625 50.261719 14.992188 47.75 14.75 C 46.964844 14.007812 46.296875 13.175781 45.75 12.25 C 46.984375 10.042969 46.898438 7.875 45.5 5.75 C 43.453125 5.429688 41.453125 5.765625 39.5 6.75 C 38.363281 6.859375 37.78125 6.359375 37.75 5.25 C 38.4375 5.328125 39.101562 5.246094 39.75 5 C 41.292969 2.527344 43.292969 2.113281 45.75 3.75 Z M 45.75 3.75 "/>
<path style=" stroke:none;fill-rule:evenodd;fill:rgb(64.313728%,21.176471%,13.725491%);fill-opacity:1;" d="M 70.25 16.25 C 68.734375 13 66.234375 11.914062 62.75 13 C 61.769531 13.726562 61.101562 14.640625 60.75 15.75 C 59.75 15.75 58.75 15.75 57.75 15.75 C 57.941406 11.0625 60.441406 8.730469 65.25 8.75 C 70.445312 8.945312 73.109375 11.609375 73.25 16.75 C 72.132812 16.898438 71.132812 16.730469 70.25 16.25 Z M 70.25 16.25 "/>
<path style=" stroke:none;fill-rule:evenodd;fill:rgb(89.803922%,50.588238%,10.196079%);fill-opacity:1;" d="M 32.25 3.75 C 31.523438 7.527344 29.6875 10.863281 26.75 13.75 C 26.988281 14.238281 27.320312 14.65625 27.75 15 C 27.636719 15.199219 27.46875 15.28125 27.25 15.25 C 26.113281 14.777344 25.113281 14.109375 24.25 13.25 C 23.121094 13.734375 21.953125 14.066406 20.75 14.25 C 22.1875 12.613281 24.019531 11.613281 26.25 11.25 C 27.585938 9.582031 28.667969 7.75 29.5 5.75 C 30.226562 4.769531 31.140625 4.101562 32.25 3.75 Z M 32.25 3.75 "/>
<path style=" stroke:none;fill-rule:evenodd;fill:rgb(76.078433%,41.568628%,9.803922%);fill-opacity:1;" d="M 55.75 11.75 C 55.75 13.082031 55.75 14.417969 55.75 15.75 C 52.964844 15.8125 50.300781 15.480469 47.75 14.75 C 50.261719 14.992188 51.929688 13.90625 52.75 11.5 C 53.773438 11.253906 54.773438 11.339844 55.75 11.75 Z M 55.75 11.75 "/>
<path style=" stroke:none;fill-rule:evenodd;fill:rgb(20.784314%,5.490196%,8.235294%);fill-opacity:1;" d="M 70.25 16.25 C 67.039062 16.394531 63.871094 16.230469 60.75 15.75 C 61.101562 14.640625 61.769531 13.726562 62.75 13 C 66.234375 11.914062 68.734375 13 70.25 16.25 Z M 70.25 16.25 "/>
<path style=" stroke:none;fill-rule:evenodd;fill:rgb(82.352942%,47.058824%,10.980392%);fill-opacity:1;" d="M 45.75 12.25 C 45.660156 13.296875 45.824219 14.296875 46.25 15.25 C 44.640625 15.953125 42.972656 16.453125 41.25 16.75 C 40.589844 16.835938 40.003906 16.667969 39.5 16.25 C 39.324219 15.375 39.074219 14.542969 38.75 13.75 C 40.882812 14.1875 43.050781 14.351562 45.25 14.25 C 45.117188 13.449219 45.28125 12.785156 45.75 12.25 Z M 45.75 12.25 "/>
<path style=" stroke:none;fill-rule:evenodd;fill:rgb(52.549022%,25.490198%,8.235294%);fill-opacity:1;" d="M 38.75 13.75 C 39.074219 14.542969 39.324219 15.375 39.5 16.25 C 40.003906 16.667969 40.589844 16.835938 41.25 16.75 C 40.535156 17.269531 39.703125 17.601562 38.75 17.75 C 38.171875 16.347656 38.171875 15.011719 38.75 13.75 Z M 38.75 13.75 "/>
<path style=" stroke:none;fill-rule:evenodd;fill:rgb(6.666667%,5.882353%,7.058824%);fill-opacity:1;" d="M 82.75 46.25 C 84.582031 46.25 86.417969 46.25 88.25 46.25 C 86.679688 46.660156 85.011719 46.910156 83.25 47 C 83.917969 47.167969 84.582031 47.332031 85.25 47.5 C 84.246094 47.542969 83.746094 47.792969 83.75 48.25 C 83.578125 48.667969 83.246094 48.835938 82.75 48.75 C 81.351562 49.453125 80.601562 48.953125 80.5 47.25 C 80.394531 48.027344 80.144531 48.695312 79.75 49.25 C 79.75 49.082031 79.75 48.917969 79.75 48.75 C 80.019531 47.175781 79.519531 45.925781 78.25 45 C 73.226562 43.507812 68.976562 44.757812 65.5 48.75 C 64.9375 49.671875 64.6875 50.671875 64.75 51.75 C 63.769531 51.429688 62.851562 51.429688 62 51.75 C 61.640625 51.476562 61.390625 51.144531 61.25 50.75 C 59.542969 49.230469 57.542969 48.230469 55.25 47.75 C 54.917969 47.75 54.75 47.582031 54.75 47.25 C 55.796875 46.324219 56.464844 45.15625 56.75 43.75 C 56.339844 42.65625 55.589844 41.824219 54.5 41.25 C 54.625 39.933594 54.625 38.601562 54.5 37.25 C 52.683594 36.132812 50.765625 35.214844 48.75 34.5 C 47.980469 33.945312 47.648438 33.195312 47.75 32.25 C 46.105469 31.726562 44.4375 31.476562 42.75 31.5 C 42.417969 32.5 42.082031 33.5 41.75 34.5 C 40.25 34.667969 38.75 34.832031 37.25 35 C 35.253906 37.757812 33.585938 40.675781 32.25 43.75 C 30.882812 45.367188 29.882812 47.199219 29.25 49.25 C 28.589844 47.699219 28.257812 45.949219 28.25 44 C 28.503906 41.316406 28.503906 38.734375 28.25 36.25 C 31.339844 24.316406 39.007812 18.484375 51.25 18.75 C 59.082031 19.050781 66.914062 19.300781 74.75 19.5 C 78.722656 20.628906 80.472656 23.214844 80 27.25 C 78.957031 30.472656 78.039062 33.722656 77.25 37 C 80.886719 38.742188 82.304688 41.660156 81.5 45.75 C 81.671875 46.808594 82.085938 46.976562 82.75 46.25 Z M 82.75 46.25 "/>
<path style=" stroke:none;fill-rule:evenodd;fill:rgb(98.431373%,80.392158%,48.235294%);fill-opacity:1;" d="M 18.75 17.25 C 20.089844 19.253906 20.839844 21.417969 21 23.75 C 20.664062 24.125 20.246094 24.292969 19.75 24.25 C 19.101562 23.855469 18.519531 23.355469 18 22.75 C 16.792969 20.625 17.042969 18.792969 18.75 17.25 Z M 18.75 17.25 "/>
<path style=" stroke:none;fill-rule:evenodd;fill:rgb(0%,0%,0%);fill-opacity:1;" d="M 62.25 23.25 C 68.769531 23.101562 72.269531 26.269531 72.75 32.75 C 72.292969 38.207031 69.292969 41.207031 63.75 41.75 C 58.351562 40.851562 55.351562 37.683594 54.75 32.25 C 55.453125 27.714844 57.953125 24.714844 62.25 23.25 Z M 62.25 23.25 "/>
<use xlink:href="#surface14" mask="url(#mask3)"/>
<path style=" stroke:none;fill-rule:evenodd;fill:rgb(99.215686%,70.588237%,28.627452%);fill-opacity:1;" d="M 27.25 15.25 C 27.699219 15.578125 28.199219 15.914062 28.75 16.25 C 27.652344 17.375 27.820312 18.457031 29.25 19.5 C 29.175781 19.886719 29.011719 20.21875 28.75 20.5 C 29.5 20.75 30.25 21 31 21.25 C 32.496094 20.765625 33.914062 20.265625 35.25 19.75 C 34.800781 20.863281 33.964844 21.363281 32.75 21.25 C 32.878906 22.457031 32.378906 23.289062 31.25 23.75 C 30.414062 22.957031 29.414062 22.625 28.25 22.75 C 27.75 22.75 27.25 22.75 26.75 22.75 C 26.832031 23.929688 26.75 25.09375 26.5 26.25 C 25.683594 27.226562 25.101562 28.308594 24.75 29.5 C 25.363281 30.867188 25.863281 32.285156 26.25 33.75 C 26.304688 35.03125 25.972656 36.195312 25.25 37.25 C 24.191406 36.527344 23.023438 36.195312 21.75 36.25 C 20.625 36.089844 19.625 36.339844 18.75 37 C 20.085938 39.175781 21.417969 41.339844 22.75 43.5 C 21.515625 45.0625 20.347656 46.648438 19.25 48.25 C 17.640625 47.832031 17.472656 47.164062 18.75 46.25 C 17.78125 45.4375 17.613281 44.523438 18.25 43.5 C 17.628906 43.273438 17.210938 43.523438 17 44.25 C 16.8125 43.792969 16.5625 43.375 16.25 43 C 15.289062 42.820312 14.457031 42.402344 13.75 41.75 C 14.011719 41.402344 14.347656 41.152344 14.75 41 C 14.453125 39.21875 14.453125 37.550781 14.75 36 C 14.097656 35.589844 13.347656 35.339844 12.5 35.25 C 11.578125 36.085938 10.496094 36.585938 9.25 36.75 C 9.949219 33.617188 10.949219 30.617188 12.25 27.75 C 14.796875 26.65625 17.296875 25.492188 19.75 24.25 C 20.246094 24.292969 20.664062 24.125 21 23.75 C 20.839844 21.417969 20.089844 19.253906 18.75 17.25 C 19.613281 16.386719 20.28125 15.386719 20.75 14.25 C 21.953125 14.066406 23.121094 13.734375 24.25 13.25 C 25.113281 14.109375 26.113281 14.777344 27.25 15.25 Z M 27.25 15.25 "/>
<path style=" stroke:none;fill-rule:evenodd;fill:rgb(87.843138%,52.156866%,15.294118%);fill-opacity:1;" d="M 28.25 22.75 C 29.113281 23.320312 29.613281 24.152344 29.75 25.25 C 29.667969 25.75 29.582031 26.25 29.5 26.75 C 28.214844 29.078125 27.132812 31.414062 26.25 33.75 C 25.863281 32.285156 25.363281 30.867188 24.75 29.5 C 25.101562 28.308594 25.683594 27.226562 26.5 26.25 C 26.75 25.09375 26.832031 23.929688 26.75 22.75 C 27.25 22.75 27.75 22.75 28.25 22.75 Z M 28.25 22.75 "/>
<use xlink:href="#surface17" mask="url(#mask4)"/>
<path style=" stroke:none;fill-rule:evenodd;fill:rgb(69.01961%,56.862748%,45.490196%);fill-opacity:1;" d="M 87.75 32.75 C 85.617188 32.402344 85.453125 31.988281 87.25 31.5 C 85.320312 30.824219 83.320312 30.574219 81.25 30.75 C 81.207031 30.253906 81.375 29.835938 81.75 29.5 C 83.917969 29.167969 86.082031 29.167969 88.25 29.5 C 90.375 31.429688 90.207031 32.511719 87.75 32.75 Z M 87.75 32.75 "/>
<path style=" stroke:none;fill-rule:evenodd;fill:rgb(88.627452%,74.117649%,60.392159%);fill-opacity:1;" d="M 81.25 30.75 C 83.320312 30.574219 85.320312 30.824219 87.25 31.5 C 85.453125 31.988281 85.617188 32.402344 87.75 32.75 C 87.066406 33.394531 86.148438 33.726562 85 33.75 C 82.382812 34.328125 81.132812 33.328125 81.25 30.75 Z M 81.25 30.75 "/>
<path style=" stroke:none;fill-rule:evenodd;fill:rgb(46.666667%,15.686275%,14.901961%);fill-opacity:1;" d="M 54.75 47.25 C 54.582031 47.25 54.417969 47.25 54.25 47.25 C 53.332031 46.207031 52.164062 45.539062 50.75 45.25 C 50.417969 44.582031 49.917969 44.082031 49.25 43.75 C 48.488281 41.65625 46.988281 40.488281 44.75 40.25 C 44.75 41.582031 44.75 42.917969 44.75 44.25 C 46.25 44.25 47.75 44.25 49.25 44.25 C 49.003906 46.660156 48.671875 48.996094 48.25 51.25 C 48.210938 50.625 47.878906 50.207031 47.25 50 C 47.527344 49.808594 47.695312 49.558594 47.75 49.25 C 47.75 47.917969 47.75 46.582031 47.75 45.25 C 46.75 45.25 45.75 45.25 44.75 45.25 C 44.214844 44.78125 43.550781 44.617188 42.75 44.75 C 42.75 44.25 42.75 43.75 42.75 43.25 C 42.75 42.25 42.75 41.25 42.75 40.25 C 40.65625 40.378906 39.15625 41.378906 38.25 43.25 C 37.535156 43.890625 37.199219 44.722656 37.25 45.75 C 36.75 45.75 36.25 45.75 35.75 45.75 C 33.914062 45.75 32.578125 46.582031 31.75 48.25 C 31.582031 48.25 31.417969 48.25 31.25 48.25 C 32.0625 46.890625 32.394531 45.390625 32.25 43.75 C 33.585938 40.675781 35.253906 37.757812 37.25 35 C 38.75 34.832031 40.25 34.667969 41.75 34.5 C 42.082031 33.5 42.417969 32.5 42.75 31.5 C 44.4375 31.476562 46.105469 31.726562 47.75 32.25 C 47.648438 33.195312 47.980469 33.945312 48.75 34.5 C 50.765625 35.214844 52.683594 36.132812 54.5 37.25 C 54.625 38.601562 54.625 39.933594 54.5 41.25 C 55.589844 41.824219 56.339844 42.65625 56.75 43.75 C 56.464844 45.15625 55.796875 46.324219 54.75 47.25 Z M 54.75 47.25 "/>
<path style=" stroke:none;fill-rule:evenodd;fill:rgb(71.764708%,58.823532%,51.764709%);fill-opacity:1;" d="M 89.75 35.75 C 91.367188 35.601562 92.867188 35.9375 94.25 36.75 C 94.65625 37.535156 94.820312 38.367188 94.75 39.25 C 93.082031 39.25 91.417969 39.25 89.75 39.25 C 89.75 38.082031 89.75 36.917969 89.75 35.75 Z M 89.75 35.75 "/>
<path style=" stroke:none;fill-rule:evenodd;fill:rgb(72.549021%,59.215689%,49.019608%);fill-opacity:1;" d="M 83.25 36.25 C 84.917969 36.25 86.582031 36.25 88.25 36.25 C 88.25 37.417969 88.25 38.582031 88.25 39.75 C 86.417969 39.75 84.582031 39.75 82.75 39.75 C 82.648438 38.523438 82.816406 37.359375 83.25 36.25 Z M 83.25 36.25 "/>
<path style=" stroke:none;fill-rule:evenodd;fill:rgb(97.647059%,82.745099%,51.764709%);fill-opacity:1;" d="M 12.25 27.75 C 10.949219 30.617188 9.949219 33.617188 9.25 36.75 C 10.472656 37.238281 11.808594 37.402344 13.25 37.25 C 13.253906 38.152344 13.003906 38.988281 12.5 39.75 C 11.128906 40.140625 9.714844 40.390625 8.25 40.5 C 8.625 40.835938 8.792969 41.253906 8.75 41.75 C 7.644531 41.054688 6.894531 40.054688 6.5 38.75 C 6.660156 35.253906 7.824219 32.089844 10 29.25 C 10.566406 28.429688 11.316406 27.929688 12.25 27.75 Z M 12.25 27.75 "/>
<path style=" stroke:none;fill-rule:evenodd;fill:rgb(99.607843%,72.156864%,30.980393%);fill-opacity:1;" d="M 19.25 48.25 C 19.167969 49.429688 19.25 50.59375 19.5 51.75 C 20.785156 53.203125 21.871094 54.785156 22.75 56.5 C 22.070312 58.445312 21.320312 60.359375 20.5 62.25 C 20.167969 62.917969 20.167969 63.582031 20.5 64.25 C 22.628906 64.84375 24.546875 65.84375 26.25 67.25 C 26.527344 66.140625 26.527344 64.972656 26.25 63.75 C 27.738281 65.6875 27.90625 67.6875 26.75 69.75 C 25.109375 70.445312 24.777344 71.277344 25.75 72.25 C 22.015625 73.5625 18.351562 72.980469 14.75 70.5 C 15.230469 69.925781 15.0625 69.425781 14.25 69 C 13.777344 68.757812 13.277344 68.675781 12.75 68.75 C 12.824219 68.222656 12.742188 67.722656 12.5 67.25 C 11.464844 66.457031 10.382812 65.789062 9.25 65.25 C 8.492188 65.246094 7.90625 64.910156 7.5 64.25 C 7.253906 63.261719 7.167969 62.261719 7.25 61.25 C 7.417969 60.917969 7.582031 60.582031 7.75 60.25 C 8.167969 60.078125 8.335938 59.746094 8.25 59.25 C 8.824219 59.105469 9.15625 58.6875 9.25 58 C 8.578125 56.320312 7.492188 54.902344 6 53.75 C 4.34375 51.324219 4.09375 48.824219 5.25 46.25 C 5.183594 45.878906 5.269531 45.546875 5.5 45.25 C 6.796875 44.226562 8.046875 43.140625 9.25 42 C 9.136719 41.800781 8.96875 41.71875 8.75 41.75 C 8.792969 41.253906 8.625 40.835938 8.25 40.5 C 9.714844 40.390625 11.128906 40.140625 12.5 39.75 C 13.003906 38.988281 13.253906 38.152344 13.25 37.25 C 11.808594 37.402344 10.472656 37.238281 9.25 36.75 C 10.496094 36.585938 11.578125 36.085938 12.5 35.25 C 13.347656 35.339844 14.097656 35.589844 14.75 36 C 14.453125 37.550781 14.453125 39.21875 14.75 41 C 14.347656 41.152344 14.011719 41.402344 13.75 41.75 C 14.457031 42.402344 15.289062 42.820312 16.25 43 C 16.5625 43.375 16.8125 43.792969 17 44.25 C 17.210938 43.523438 17.628906 43.273438 18.25 43.5 C 17.613281 44.523438 17.78125 45.4375 18.75 46.25 C 17.472656 47.164062 17.640625 47.832031 19.25 48.25 Z M 19.25 48.25 "/>
<path style=" stroke:none;fill-rule:evenodd;fill:rgb(97.647059%,81.960785%,69.411767%);fill-opacity:1;" d="M 49.25 43.75 C 49.25 43.917969 49.25 44.082031 49.25 44.25 C 47.75 44.25 46.25 44.25 44.75 44.25 C 44.75 42.917969 44.75 41.582031 44.75 40.25 C 46.988281 40.488281 48.488281 41.65625 49.25 43.75 Z M 49.25 43.75 "/>
<path style=" stroke:none;fill-rule:evenodd;fill:rgb(96.078432%,87.843138%,77.254903%);fill-opacity:1;" d="M 42.75 43.25 C 42.367188 43.585938 42.03125 44.003906 41.75 44.5 C 40.722656 44.65625 39.722656 44.90625 38.75 45.25 C 38.285156 44.65625 38.117188 43.988281 38.25 43.25 C 39.15625 41.378906 40.65625 40.378906 42.75 40.25 C 42.75 41.25 42.75 42.25 42.75 43.25 Z M 42.75 43.25 "/>
<path style=" stroke:none;fill-rule:evenodd;fill:rgb(89.803922%,81.568629%,73.333335%);fill-opacity:1;" d="M 84.75 42.25 C 85.917969 42.25 87.082031 42.25 88.25 42.25 C 88.25 43.582031 88.25 44.917969 88.25 46.25 C 86.417969 46.25 84.582031 46.25 82.75 46.25 C 82.667969 45.070312 82.75 43.90625 83 42.75 C 83.503906 42.332031 84.089844 42.164062 84.75 42.25 Z M 84.75 42.25 "/>
<path style=" stroke:none;fill-rule:evenodd;fill:rgb(83.137256%,74.901962%,66.274512%);fill-opacity:1;" d="M 93.25 41.75 C 94.347656 41.558594 95.183594 41.894531 95.75 42.75 C 95.878906 43.894531 95.710938 44.980469 95.25 46 C 93.582031 46.332031 91.917969 46.332031 90.25 46 C 88.847656 42.785156 89.847656 41.367188 93.25 41.75 Z M 93.25 41.75 "/>
<path style=" stroke:none;fill-rule:evenodd;fill:rgb(96.862745%,83.137256%,69.803923%);fill-opacity:1;" d="M 50.75 45.25 C 52.164062 45.539062 53.332031 46.207031 54.25 47.25 C 54.25 47.917969 54.25 48.582031 54.25 49.25 C 53.082031 49.25 51.917969 49.25 50.75 49.25 C 50.75 48.082031 50.75 46.917969 50.75 45.75 C 50.75 45.582031 50.75 45.417969 50.75 45.25 Z M 50.75 45.25 "/>
<path style=" stroke:none;fill-rule:evenodd;fill:rgb(1.176471%,1.176471%,1.176471%);fill-opacity:1;" d="M 77.25 49.75 C 76.679688 49.953125 76.179688 50.289062 75.75 50.75 C 76.710938 51.355469 77.628906 52.023438 78.5 52.75 C 78.742188 53.222656 78.824219 53.722656 78.75 54.25 C 78.355469 54.898438 77.855469 55.480469 77.25 56 C 72.78125 56.722656 69.199219 55.304688 66.5 51.75 C 66.121094 50.25 66.539062 49 67.75 48 C 70.859375 45.988281 74.195312 45.402344 77.75 46.25 C 79.167969 47.660156 79 48.828125 77.25 49.75 Z M 77.25 49.75 "/>
<path style=" stroke:none;fill-rule:evenodd;fill:rgb(74.117649%,46.27451%,34.117648%);fill-opacity:1;" d="M 50.75 45.75 C 50.75 46.917969 50.75 48.082031 50.75 49.25 C 51.917969 49.25 53.082031 49.25 54.25 49.25 C 54.25 48.582031 54.25 47.917969 54.25 47.25 C 54.417969 47.25 54.582031 47.25 54.75 47.25 C 54.75 47.582031 54.917969 47.75 55.25 47.75 C 55.25 48.082031 55.25 48.417969 55.25 48.75 C 53.757812 49.636719 52.089844 49.96875 50.25 49.75 C 50.097656 48.308594 50.261719 46.972656 50.75 45.75 Z M 50.75 45.75 "/>
<use xlink:href="#surface20" mask="url(#mask5)"/>
<path style=" stroke:none;fill-rule:evenodd;fill:rgb(97.254902%,84.313726%,74.509805%);fill-opacity:1;" d="M 44.75 45.25 C 45.75 45.25 46.75 45.25 47.75 45.25 C 47.75 46.582031 47.75 47.917969 47.75 49.25 C 46.75 49.25 45.75 49.25 44.75 49.25 C 44.75 47.917969 44.75 46.582031 44.75 45.25 Z M 44.75 45.25 "/>
<path style=" stroke:none;fill-rule:evenodd;fill:rgb(61.960787%,17.647059%,11.764706%);fill-opacity:1;" d="M 49.25 43.75 C 49.917969 44.082031 50.417969 44.582031 50.75 45.25 C 50.75 45.417969 50.75 45.582031 50.75 45.75 C 50.261719 46.972656 50.097656 48.308594 50.25 49.75 C 50.082031 51.328125 50.082031 52.996094 50.25 54.75 C 49.582031 54.75 48.917969 54.75 48.25 54.75 C 48.25 53.582031 48.25 52.417969 48.25 51.25 C 48.671875 48.996094 49.003906 46.660156 49.25 44.25 C 49.25 44.082031 49.25 43.917969 49.25 43.75 Z M 49.25 43.75 "/>
<path style=" stroke:none;fill-rule:evenodd;fill:rgb(96.862745%,78.039217%,60.392159%);fill-opacity:1;" d="M 35.75 45.75 C 35.75 47.082031 35.75 48.417969 35.75 49.75 C 34.417969 49.75 33.082031 49.75 31.75 49.75 C 31.75 49.25 31.75 48.75 31.75 48.25 C 32.578125 46.582031 33.914062 45.75 35.75 45.75 Z M 35.75 45.75 "/>
<path style=" stroke:none;fill-rule:evenodd;fill:rgb(92.54902%,85.490197%,78.823531%);fill-opacity:1;" d="M 90.25 48.25 C 91.925781 48.167969 93.589844 48.25 95.25 48.5 C 96.582031 50 96.582031 51.5 95.25 53 C 93.589844 53.25 91.925781 53.332031 90.25 53.25 C 90.25 51.582031 90.25 49.917969 90.25 48.25 Z M 90.25 48.25 "/>
<path style=" stroke:none;fill-rule:evenodd;fill:rgb(94.117647%,88.235295%,83.137256%);fill-opacity:1;" d="M 83.75 48.25 C 85.25 48.25 86.75 48.25 88.25 48.25 C 88.25 49.917969 88.25 51.582031 88.25 53.25 C 86.574219 53.332031 84.910156 53.25 83.25 53 C 82.777344 51.640625 82.613281 50.222656 82.75 48.75 C 83.246094 48.835938 83.578125 48.667969 83.75 48.25 Z M 83.75 48.25 "/>
<path style=" stroke:none;fill-rule:evenodd;fill:rgb(97.254902%,78.823531%,58.431375%);fill-opacity:1;" d="M 31.25 50.25 C 32.59375 50.167969 33.925781 50.25 35.25 50.5 C 36.050781 51.820312 35.882812 52.902344 34.75 53.75 C 33.082031 53.082031 31.917969 51.917969 31.25 50.25 Z M 31.25 50.25 "/>
<path style=" stroke:none;fill-rule:evenodd;fill:rgb(54.509807%,23.529412%,14.901961%);fill-opacity:1;" d="M 38.25 43.25 C 38.117188 43.988281 38.285156 44.65625 38.75 45.25 C 39.722656 44.90625 40.722656 44.65625 41.75 44.5 C 42.03125 44.003906 42.367188 43.585938 42.75 43.25 C 42.75 43.75 42.75 44.25 42.75 44.75 C 43.550781 44.617188 44.214844 44.78125 44.75 45.25 C 44.75 46.582031 44.75 47.917969 44.75 49.25 C 45.75 49.25 46.75 49.25 47.75 49.25 C 47.695312 49.558594 47.527344 49.808594 47.25 50 C 47.878906 50.207031 48.210938 50.625 48.25 51.25 C 47.082031 51.25 45.917969 51.25 44.75 51.25 C 44.75 52.582031 44.75 53.917969 44.75 55.25 C 45.75 55.25 46.75 55.25 47.75 55.25 C 47.347656 55.863281 46.847656 56.363281 46.25 56.75 C 45.582031 56.75 44.917969 56.75 44.25 56.75 C 43.605469 56.230469 43.605469 55.644531 44.25 55 C 43.601562 54.753906 42.9375 54.671875 42.25 54.75 C 42.25 53.417969 42.25 52.082031 42.25 50.75 C 40.917969 50.75 39.582031 50.75 38.25 50.75 C 38.25 52.25 38.25 53.75 38.25 55.25 C 39.582031 55.25 40.917969 55.25 42.25 55.25 C 42.25 55.582031 42.25 55.917969 42.25 56.25 C 40.75 56.25 39.25 56.25 37.75 56.25 C 36.949219 55.855469 36.613281 55.191406 36.75 54.25 C 35.949219 54.382812 35.285156 54.21875 34.75 53.75 C 35.882812 52.902344 36.050781 51.820312 35.25 50.5 C 33.925781 50.25 32.59375 50.167969 31.25 50.25 C 30.8125 50.316406 30.476562 50.148438 30.25 49.75 C 30.597656 49.242188 30.929688 48.742188 31.25 48.25 C 31.417969 48.25 31.582031 48.25 31.75 48.25 C 31.75 48.75 31.75 49.25 31.75 49.75 C 33.082031 49.75 34.417969 49.75 35.75 49.75 C 35.75 48.417969 35.75 47.082031 35.75 45.75 C 36.25 45.75 36.75 45.75 37.25 45.75 C 37.199219 44.722656 37.535156 43.890625 38.25 43.25 Z M 38.25 43.25 "/>
<path style=" stroke:none;fill-rule:evenodd;fill:rgb(96.470588%,87.843138%,80.392158%);fill-opacity:1;" d="M 38.25 45.75 C 39.582031 45.75 40.917969 45.75 42.25 45.75 C 42.25 46.917969 42.25 48.082031 42.25 49.25 C 40.917969 49.25 39.582031 49.25 38.25 49.25 C 38.25 48.082031 38.25 46.917969 38.25 45.75 Z M 38.25 45.75 "/>
<path style=" stroke:none;fill-rule:evenodd;fill:rgb(97.647059%,88.627452%,83.92157%);fill-opacity:1;" d="M 48.25 51.25 C 48.25 52.417969 48.25 53.582031 48.25 54.75 C 48.25 55.082031 48.082031 55.25 47.75 55.25 C 46.75 55.25 45.75 55.25 44.75 55.25 C 44.75 53.917969 44.75 52.582031 44.75 51.25 C 45.917969 51.25 47.082031 51.25 48.25 51.25 Z M 48.25 51.25 "/>
<path style=" stroke:none;fill-rule:evenodd;fill:rgb(94.901961%,89.803922%,78.431374%);fill-opacity:1;" d="M 55.25 47.75 C 57.542969 48.230469 59.542969 49.230469 61.25 50.75 C 59.609375 51.988281 57.773438 52.820312 55.75 53.25 C 55.75 52.417969 55.75 51.582031 55.75 50.75 C 56.046875 50.632812 56.214844 50.382812 56.25 50 C 55.972656 49.496094 55.640625 49.078125 55.25 48.75 C 55.25 48.417969 55.25 48.082031 55.25 47.75 Z M 55.25 47.75 "/>
<path style=" stroke:none;fill-rule:evenodd;fill:rgb(94.901961%,83.529413%,72.156864%);fill-opacity:1;" d="M 55.25 50.75 C 55.175781 52.570312 54.339844 53.902344 52.75 54.75 C 52.082031 55.25 51.417969 55.75 50.75 56.25 C 50.75 54.417969 50.75 52.582031 50.75 50.75 C 52.25 50.75 53.75 50.75 55.25 50.75 Z M 55.25 50.75 "/>
<path style=" stroke:none;fill-rule:evenodd;fill:rgb(23.529412%,20%,18.431373%);fill-opacity:1;" d="M 32.25 43.75 C 32.394531 45.390625 32.0625 46.890625 31.25 48.25 C 30.929688 48.742188 30.597656 49.242188 30.25 49.75 C 30.476562 50.148438 30.8125 50.316406 31.25 50.25 C 31.917969 51.917969 33.082031 53.082031 34.75 53.75 C 35.285156 54.21875 35.949219 54.382812 36.75 54.25 C 36.613281 55.191406 36.949219 55.855469 37.75 56.25 C 38.308594 57.945312 39.308594 59.359375 40.75 60.5 C 41.375 60.871094 41.875 60.785156 42.25 60.25 C 42.65625 59.183594 42.90625 58.019531 43 56.75 C 43.140625 58.226562 43.554688 59.5625 44.25 60.75 C 45.152344 60.753906 45.988281 60.503906 46.75 60 C 47.519531 59.148438 48.351562 58.398438 49.25 57.75 C 49.917969 57.417969 50.417969 56.917969 50.75 56.25 C 51.417969 55.75 52.082031 55.25 52.75 54.75 C 53.132812 55.132812 53.632812 55.382812 54.25 55.5 C 53.773438 55.859375 53.691406 56.277344 54 56.75 C 55.199219 57.90625 56.113281 59.074219 56.75 60.25 C 55.929688 60.902344 55.09375 61.566406 54.25 62.25 C 53.375 62.125 52.539062 62.539062 51.75 63.5 C 52.417969 63.832031 52.417969 64.167969 51.75 64.5 C 51.277344 64.742188 50.777344 64.824219 50.25 64.75 C 50.152344 66.722656 49.902344 66.722656 49.5 64.75 C 49.390625 66.472656 48.890625 66.636719 48 65.25 C 46.746094 66.078125 45.328125 66.496094 43.75 66.5 C 42.667969 67.25 41.75 68.167969 41 69.25 C 40.175781 68.929688 39.257812 68.929688 38.25 69.25 C 37.480469 68.875 36.816406 68.375 36.25 67.75 C 35.957031 67.855469 35.707031 68.023438 35.5 68.25 C 35.0625 66.503906 34.398438 64.667969 33.5 62.75 C 33.332031 63.082031 33.167969 63.417969 33 63.75 C 33.027344 62.195312 32.441406 60.945312 31.25 60 C 31.730469 59.425781 31.5625 58.925781 30.75 58.5 C 30.96875 56.753906 30.300781 55.253906 28.75 54 C 29.417969 53.5 29.417969 53 28.75 52.5 C 29.257812 52.242188 29.589844 51.824219 29.75 51.25 C 29.578125 50.574219 29.410156 49.910156 29.25 49.25 C 29.882812 47.199219 30.882812 45.367188 32.25 43.75 Z M 32.25 43.75 "/>
<use xlink:href="#surface23" mask="url(#mask6)"/>
<path style=" stroke:none;fill-rule:evenodd;fill:rgb(98.431373%,84.705883%,73.725492%);fill-opacity:1;" d="M 42.25 54.75 C 42.25 54.917969 42.25 55.082031 42.25 55.25 C 40.917969 55.25 39.582031 55.25 38.25 55.25 C 38.25 53.75 38.25 52.25 38.25 50.75 C 39.582031 50.75 40.917969 50.75 42.25 50.75 C 42.25 52.082031 42.25 53.417969 42.25 54.75 Z M 42.25 54.75 "/>
<use xlink:href="#surface26" mask="url(#mask7)"/>
<path style=" stroke:none;fill-rule:evenodd;fill:rgb(44.705883%,16.862746%,13.333334%);fill-opacity:1;" d="M 55.25 48.75 C 55.640625 49.078125 55.972656 49.496094 56.25 50 C 56.214844 50.382812 56.046875 50.632812 55.75 50.75 C 55.582031 50.75 55.417969 50.75 55.25 50.75 C 53.75 50.75 52.25 50.75 50.75 50.75 C 50.75 52.582031 50.75 54.417969 50.75 56.25 C 50.417969 56.917969 49.917969 57.417969 49.25 57.75 C 48.347656 57.269531 47.347656 56.9375 46.25 56.75 C 46.847656 56.363281 47.347656 55.863281 47.75 55.25 C 48.082031 55.25 48.25 55.082031 48.25 54.75 C 48.917969 54.75 49.582031 54.75 50.25 54.75 C 50.082031 52.996094 50.082031 51.328125 50.25 49.75 C 52.089844 49.96875 53.757812 49.636719 55.25 48.75 Z M 55.25 48.75 "/>
<path style=" stroke:none;fill-rule:evenodd;fill:rgb(36.078432%,36.470589%,38.039216%);fill-opacity:1;" d="M 79.75 48.75 C 79.09375 49.238281 78.425781 49.738281 77.75 50.25 C 77.445312 50.1875 77.28125 50.023438 77.25 49.75 C 79 48.828125 79.167969 47.660156 77.75 46.25 C 74.195312 45.402344 70.859375 45.988281 67.75 48 C 66.539062 49 66.121094 50.25 66.5 51.75 C 69.199219 55.304688 72.78125 56.722656 77.25 56 C 77.855469 55.480469 78.355469 54.898438 78.75 54.25 C 79.023438 54.28125 79.1875 54.445312 79.25 54.75 C 78.398438 55.445312 78.066406 56.195312 78.25 57 C 72.539062 58.308594 68.039062 56.558594 64.75 51.75 C 64.6875 50.671875 64.9375 49.671875 65.5 48.75 C 68.976562 44.757812 73.226562 43.507812 78.25 45 C 79.519531 45.925781 80.019531 47.175781 79.75 48.75 Z M 79.75 48.75 "/>
<path style=" stroke:none;fill-rule:evenodd;fill:rgb(97.254902%,85.882354%,60.000002%);fill-opacity:1;" d="M 5.25 46.25 C 4.09375 48.824219 4.34375 51.324219 6 53.75 C 7.492188 54.902344 8.578125 56.320312 9.25 58 C 9.15625 58.6875 8.824219 59.105469 8.25 59.25 C 6.738281 58.238281 5.574219 56.90625 4.75 55.25 C 2.605469 52.082031 2.773438 49.082031 5.25 46.25 Z M 5.25 46.25 "/>
<path style=" stroke:none;fill-rule:evenodd;fill:rgb(95.686275%,81.568629%,69.411767%);fill-opacity:1;" d="M 37.75 56.25 C 39.25 56.25 40.75 56.25 42.25 56.25 C 42.25 57.582031 42.25 58.917969 42.25 60.25 C 41.875 60.785156 41.375 60.871094 40.75 60.5 C 39.308594 59.359375 38.308594 57.945312 37.75 56.25 Z M 37.75 56.25 "/>
<path style=" stroke:none;fill-rule:evenodd;fill:rgb(96.470588%,81.568629%,76.078433%);fill-opacity:1;" d="M 44.25 56.75 C 44.917969 56.75 45.582031 56.75 46.25 56.75 C 47.347656 56.9375 48.347656 57.269531 49.25 57.75 C 48.351562 58.398438 47.519531 59.148438 46.75 60 C 45.988281 60.503906 45.152344 60.753906 44.25 60.75 C 44.25 59.417969 44.25 58.082031 44.25 56.75 Z M 44.25 56.75 "/>
<path style=" stroke:none;fill-rule:evenodd;fill:rgb(92.941177%,86.666667%,81.568629%);fill-opacity:1;" d="M 83.25 55.25 C 84.917969 55.25 86.582031 55.25 88.25 55.25 C 88.25 56.75 88.25 58.25 88.25 59.75 C 86.574219 59.832031 84.910156 59.75 83.25 59.5 C 82.605469 58.085938 82.605469 56.667969 83.25 55.25 Z M 83.25 55.25 "/>
<path style=" stroke:none;fill-rule:evenodd;fill:rgb(85.09804%,76.078433%,69.411767%);fill-opacity:1;" d="M 90.25 55.75 C 92.082031 55.75 93.917969 55.75 95.75 55.75 C 96.242188 59.917969 94.40625 61.417969 90.25 60.25 C 90.25 58.75 90.25 57.25 90.25 55.75 Z M 90.25 55.75 "/>
<path style=" stroke:none;fill-rule:evenodd;fill:rgb(16.078432%,14.901961%,15.294118%);fill-opacity:1;" d="M 79.75 48.75 C 79.75 48.917969 79.75 49.082031 79.75 49.25 C 79.085938 50.441406 79.167969 51.605469 80 52.75 C 80.070312 55.796875 80.152344 58.628906 80.25 61.25 C 80.113281 62.164062 79.777344 63 79.25 63.75 C 78.582031 63.917969 77.917969 64.082031 77.25 64.25 C 76.195312 63.234375 75.195312 62.152344 74.25 61 C 73.160156 60.398438 71.996094 60.148438 70.75 60.25 C 66.054688 57.632812 61.386719 57.632812 56.75 60.25 C 56.113281 59.074219 55.199219 57.90625 54 56.75 C 53.691406 56.277344 53.773438 55.859375 54.25 55.5 C 53.632812 55.382812 53.132812 55.132812 52.75 54.75 C 54.339844 53.902344 55.175781 52.570312 55.25 50.75 C 55.417969 50.75 55.582031 50.75 55.75 50.75 C 55.75 51.582031 55.75 52.417969 55.75 53.25 C 57.773438 52.820312 59.609375 51.988281 61.25 50.75 C 61.390625 51.144531 61.640625 51.476562 62 51.75 C 62.851562 51.429688 63.769531 51.429688 64.75 51.75 C 68.039062 56.558594 72.539062 58.308594 78.25 57 C 78.066406 56.195312 78.398438 55.445312 79.25 54.75 C 79.1875 54.445312 79.023438 54.28125 78.75 54.25 C 78.824219 53.722656 78.742188 53.222656 78.5 52.75 C 77.628906 52.023438 76.710938 51.355469 75.75 50.75 C 76.179688 50.289062 76.679688 49.953125 77.25 49.75 C 77.28125 50.023438 77.445312 50.1875 77.75 50.25 C 78.425781 49.738281 79.09375 49.238281 79.75 48.75 Z M 79.75 48.75 "/>
<path style=" stroke:none;fill-rule:evenodd;fill:rgb(34.901962%,14.509805%,10.980392%);fill-opacity:1;" d="M 42.25 54.75 C 42.9375 54.671875 43.601562 54.753906 44.25 55 C 43.605469 55.644531 43.605469 56.230469 44.25 56.75 C 44.25 58.082031 44.25 59.417969 44.25 60.75 C 43.554688 59.5625 43.140625 58.226562 43 56.75 C 42.90625 58.019531 42.65625 59.183594 42.25 60.25 C 42.25 58.917969 42.25 57.582031 42.25 56.25 C 42.25 55.917969 42.25 55.582031 42.25 55.25 C 42.25 55.082031 42.25 54.917969 42.25 54.75 Z M 42.25 54.75 "/>
<path style=" stroke:none;fill-rule:evenodd;fill:rgb(0.784314%,0.784314%,0.784314%);fill-opacity:1;" d="M 65.25 77.25 C 57.570312 77.078125 54.238281 73.242188 55.25 65.75 C 57.507812 61.203125 61.175781 59.453125 66.25 60.5 C 71.398438 62.613281 73.3125 66.363281 72 71.75 C 70.691406 74.8125 68.441406 76.648438 65.25 77.25 Z M 65.25 77.25 "/>
<path style=" stroke:none;fill-rule:evenodd;fill:rgb(22.745098%,21.176471%,20.392157%);fill-opacity:1;" d="M 28.25 36.25 C 28.503906 38.734375 28.503906 41.316406 28.25 44 C 28.257812 45.949219 28.589844 47.699219 29.25 49.25 C 29.410156 49.910156 29.578125 50.574219 29.75 51.25 C 29.589844 51.824219 29.257812 52.242188 28.75 52.5 C 29.417969 53 29.417969 53.5 28.75 54 C 30.300781 55.253906 30.96875 56.753906 30.75 58.5 C 31.5625 58.925781 31.730469 59.425781 31.25 60 C 32.441406 60.945312 33.027344 62.195312 33 63.75 C 33.167969 63.417969 33.332031 63.082031 33.5 62.75 C 34.398438 64.667969 35.0625 66.503906 35.5 68.25 C 35.707031 68.023438 35.957031 67.855469 36.25 67.75 C 36.816406 68.375 37.480469 68.875 38.25 69.25 C 39.257812 68.929688 40.175781 68.929688 41 69.25 C 41.75 68.167969 42.667969 67.25 43.75 66.5 C 45.328125 66.496094 46.746094 66.078125 48 65.25 C 48.890625 66.636719 49.390625 66.472656 49.5 64.75 C 49.902344 66.722656 50.152344 66.722656 50.25 64.75 C 50.777344 64.824219 51.277344 64.742188 51.75 64.5 C 52.417969 64.167969 52.417969 63.832031 51.75 63.5 C 52.539062 62.539062 53.375 62.125 54.25 62.25 C 54.222656 62.804688 54.054688 63.304688 53.75 63.75 C 52.074219 70.042969 53.90625 75.042969 59.25 78.75 C 55.773438 80.1875 53.4375 79.1875 52.25 75.75 C 42.472656 76.324219 35.386719 72.324219 31 63.75 C 29.386719 59.191406 28.222656 54.523438 27.5 49.75 C 27.25 50.90625 27.167969 52.070312 27.25 53.25 C 26.484375 47.59375 26.816406 41.925781 28.25 36.25 Z M 28.25 36.25 "/>
<path style=" stroke:none;fill-rule:evenodd;fill:rgb(87.450981%,81.176472%,77.254903%);fill-opacity:1;" d="M 83.25 61.75 C 84.789062 61.628906 86.289062 61.796875 87.75 62.25 C 88.339844 63.066406 88.339844 63.902344 87.75 64.75 C 86.277344 65.328125 84.777344 65.410156 83.25 65 C 82.617188 63.917969 82.617188 62.835938 83.25 61.75 Z M 83.25 61.75 "/>
<path style=" stroke:none;fill-rule:evenodd;fill:rgb(90.196079%,53.725493%,11.764706%);fill-opacity:1;" d="M 21.75 36.25 C 22.886719 37.132812 23.96875 38.132812 25 39.25 C 25.128906 42.808594 24.714844 46.308594 23.75 49.75 C 24.800781 54.367188 25.636719 59.035156 26.25 63.75 C 26.527344 64.972656 26.527344 66.140625 26.25 67.25 C 24.546875 65.84375 22.628906 64.84375 20.5 64.25 C 20.167969 63.582031 20.167969 62.917969 20.5 62.25 C 21.320312 60.359375 22.070312 58.445312 22.75 56.5 C 21.871094 54.785156 20.785156 53.203125 19.5 51.75 C 19.25 50.59375 19.167969 49.429688 19.25 48.25 C 20.347656 46.648438 21.515625 45.0625 22.75 43.5 C 21.417969 41.339844 20.085938 39.175781 18.75 37 C 19.625 36.339844 20.625 36.089844 21.75 36.25 Z M 21.75 36.25 "/>
<path style=" stroke:none;fill-rule:evenodd;fill:rgb(90.196079%,82.745099%,78.431374%);fill-opacity:1;" d="M 89.75 62.25 C 91.25 62.25 92.75 62.25 94.25 62.25 C 94.414062 65.414062 92.914062 66.578125 89.75 65.75 C 89.75 64.582031 89.75 63.417969 89.75 62.25 Z M 89.75 62.25 "/>
<path style=" stroke:none;fill-rule:evenodd;fill:rgb(91.764706%,87.058824%,83.92157%);fill-opacity:1;" d="M 88.25 70.75 C 88.316406 70.378906 88.230469 70.046875 88 69.75 C 85.960938 69.976562 84.042969 70.476562 82.25 71.25 C 80.632812 70.160156 80.464844 68.910156 81.75 67.5 C 84.433594 67.160156 87.101562 67.246094 89.75 67.75 C 89.769531 69.042969 89.269531 70.042969 88.25 70.75 Z M 88.25 70.75 "/>
<path style=" stroke:none;fill-rule:evenodd;fill:rgb(75.686276%,66.666669%,59.607846%);fill-opacity:1;" d="M 88.25 70.75 C 87.5625 71.980469 86.480469 72.480469 85 72.25 C 84.25 72.167969 83.5 72.082031 82.75 72 C 82.472656 71.808594 82.304688 71.558594 82.25 71.25 C 84.042969 70.476562 85.960938 69.976562 88 69.75 C 88.230469 70.046875 88.316406 70.378906 88.25 70.75 Z M 88.25 70.75 "/>
<path style=" stroke:none;fill-rule:evenodd;fill:rgb(16.078432%,15.294118%,15.686275%);fill-opacity:1;" d="M 79.75 76.75 C 78.765625 77.410156 77.765625 78.078125 76.75 78.75 C 76.582031 78.582031 76.417969 78.417969 76.25 78.25 C 75.808594 75.269531 75.472656 72.269531 75.25 69.25 C 75.746094 69.292969 76.164062 69.125 76.5 68.75 C 77.796875 69.75 78.964844 70.917969 80 72.25 C 80.402344 73.847656 80.320312 75.347656 79.75 76.75 Z M 79.75 76.75 "/>
<path style=" stroke:none;fill-rule:evenodd;fill:rgb(40.784314%,40.392157%,40.784314%);fill-opacity:1;" d="M 70.75 60.25 C 72.777344 62.972656 74.277344 65.972656 75.25 69.25 C 75.472656 72.269531 75.808594 75.269531 76.25 78.25 C 76.417969 78.417969 76.582031 78.582031 76.75 78.75 C 77.765625 78.078125 78.765625 77.410156 79.75 76.75 C 79.503906 77.910156 79.003906 78.910156 78.25 79.75 C 77.863281 79.425781 77.363281 79.261719 76.75 79.25 C 74.613281 79.910156 72.449219 80.160156 70.25 80 C 71.132812 79.152344 72.132812 78.484375 73.25 78 C 71.386719 78.144531 69.550781 78.5625 67.75 79.25 C 67.25 79.167969 66.75 79.082031 66.25 79 C 66.6875 78.207031 67.355469 77.707031 68.25 77.5 C 67.261719 77.253906 66.261719 77.167969 65.25 77.25 C 68.441406 76.648438 70.691406 74.8125 72 71.75 C 73.3125 66.363281 71.398438 62.613281 66.25 60.5 C 61.175781 59.453125 57.507812 61.203125 55.25 65.75 C 54.742188 65.0625 54.242188 64.398438 53.75 63.75 C 54.054688 63.304688 54.222656 62.804688 54.25 62.25 C 55.09375 61.566406 55.929688 60.902344 56.75 60.25 C 61.386719 57.632812 66.054688 57.632812 70.75 60.25 Z M 70.75 60.25 "/>
<path style=" stroke:none;fill-rule:evenodd;fill:rgb(97.647059%,84.705883%,61.960787%);fill-opacity:1;" d="M 7.25 61.25 C 7.167969 62.261719 7.253906 63.261719 7.5 64.25 C 7.90625 64.910156 8.492188 65.246094 9.25 65.25 C 11.0625 68.117188 13.0625 70.867188 15.25 73.5 C 17.269531 73.585938 19.269531 73.835938 21.25 74.25 C 20.222656 75.230469 19.054688 75.980469 17.75 76.5 C 19.359375 79.320312 20.773438 82.238281 22 85.25 C 24.292969 87.410156 27.042969 88.328125 30.25 88 C 30.226562 90.160156 31.226562 91.578125 33.25 92.25 C 34.347656 92.582031 35.515625 92.914062 36.75 93.25 C 35.445312 93.824219 34.113281 93.910156 32.75 93.5 C 32.109375 92.605469 31.277344 92.023438 30.25 91.75 C 29.644531 91.875 29.308594 92.207031 29.25 92.75 C 28.464844 91.949219 28.128906 90.949219 28.25 89.75 C 26.363281 89.867188 24.53125 89.617188 22.75 89 C 18.964844 87.027344 17.796875 84.109375 19.25 80.25 C 18.734375 79.648438 18.316406 78.984375 18 78.25 C 15.957031 77.667969 14.125 76.667969 12.5 75.25 C 10.695312 72.277344 8.695312 69.445312 6.5 66.75 C 6.210938 65.675781 5.960938 64.59375 5.75 63.5 C 5.761719 62.410156 6.261719 61.660156 7.25 61.25 Z M 7.25 61.25 "/>
<path style=" stroke:none;fill-rule:evenodd;fill:rgb(47.450981%,47.058824%,47.843137%);fill-opacity:1;" d="M 53.75 63.75 C 54.242188 64.398438 54.742188 65.0625 55.25 65.75 C 54.238281 73.242188 57.570312 77.078125 65.25 77.25 C 66.261719 77.167969 67.261719 77.253906 68.25 77.5 C 67.355469 77.707031 66.6875 78.207031 66.25 79 C 66.75 79.082031 67.25 79.167969 67.75 79.25 C 69.550781 78.5625 71.386719 78.144531 73.25 78 C 72.132812 78.484375 71.132812 79.152344 70.25 80 C 72.449219 80.160156 74.613281 79.910156 76.75 79.25 C 77.363281 79.261719 77.863281 79.425781 78.25 79.75 C 76.535156 81.578125 74.367188 82.492188 71.75 82.5 C 65.507812 83.015625 59.257812 83.429688 53 83.75 C 50.042969 83.707031 47.128906 83.375 44.25 82.75 C 42.21875 81.816406 40.21875 80.730469 38.25 79.5 C 31.226562 72.179688 27.558594 63.429688 27.25 53.25 C 27.167969 52.070312 27.25 50.90625 27.5 49.75 C 28.222656 54.523438 29.386719 59.191406 31 63.75 C 35.386719 72.324219 42.472656 76.324219 52.25 75.75 C 53.4375 79.1875 55.773438 80.1875 59.25 78.75 C 53.90625 75.042969 52.074219 70.042969 53.75 63.75 Z M 53.75 63.75 "/>
<path style=" stroke:none;fill-rule:evenodd;fill:rgb(58.431375%,57.647061%,58.431375%);fill-opacity:1;" d="M 33.75 70.75 C 39.714844 77.382812 47.214844 80.464844 56.25 80 C 55.234375 80.503906 54.148438 80.753906 53 80.75 C 49.878906 80.542969 46.796875 80.125 43.75 79.5 C 40.441406 77.890625 37.355469 75.972656 34.5 73.75 C 34.09375 72.78125 33.84375 71.78125 33.75 70.75 Z M 33.75 70.75 "/>
<use xlink:href="#surface29" mask="url(#mask8)"/>
<path style=" stroke:none;fill-rule:evenodd;fill:rgb(92.156863%,54.901963%,12.156863%);fill-opacity:1;" d="M 26.75 69.75 C 27.570312 69.644531 28.320312 69.808594 29 70.25 C 29.945312 71.808594 30.613281 73.476562 31 75.25 C 32.375 76.371094 33.460938 77.707031 34.25 79.25 C 34.316406 79.621094 34.230469 79.953125 34 80.25 C 33.464844 79.90625 32.882812 79.65625 32.25 79.5 C 29.589844 79.25 26.921875 79.167969 24.25 79.25 C 25.054688 76.980469 25.554688 74.644531 25.75 72.25 C 24.777344 71.277344 25.109375 70.445312 26.75 69.75 Z M 26.75 69.75 "/>
<path style=" stroke:none;fill-rule:evenodd;fill:rgb(99.607843%,72.941178%,32.156864%);fill-opacity:1;" d="M 9.25 65.25 C 10.382812 65.789062 11.464844 66.457031 12.5 67.25 C 12.742188 67.722656 12.824219 68.222656 12.75 68.75 C 13.277344 68.675781 13.777344 68.757812 14.25 69 C 15.0625 69.425781 15.230469 69.925781 14.75 70.5 C 18.351562 72.980469 22.015625 73.5625 25.75 72.25 C 25.554688 74.644531 25.054688 76.980469 24.25 79.25 C 26.921875 79.167969 29.589844 79.25 32.25 79.5 C 32.882812 79.65625 33.464844 79.90625 34 80.25 C 34.230469 79.953125 34.316406 79.621094 34.25 79.25 C 36.894531 80.761719 36.894531 82.34375 34.25 84 C 35.054688 83.992188 35.886719 83.90625 36.75 83.75 C 37.035156 84.210938 36.699219 84.378906 35.75 84.25 C 35.820312 85.0625 35.488281 85.644531 34.75 86 C 35.164062 86.84375 35.664062 86.925781 36.25 86.25 C 36.941406 87.539062 37.359375 87.371094 37.5 85.75 C 37.558594 87.464844 38.140625 88.964844 39.25 90.25 C 41.847656 89.398438 44.265625 89.734375 46.5 91.25 C 48.238281 90.84375 49.738281 90.007812 51 88.75 C 51.558594 89.515625 51.976562 90.347656 52.25 91.25 C 51.449219 91.117188 50.785156 91.28125 50.25 91.75 C 49.238281 92.765625 48.40625 93.933594 47.75 95.25 C 46.582031 94.570312 45.75 93.570312 45.25 92.25 C 42.378906 90.472656 39.546875 90.386719 36.75 92 C 35.59375 92.25 34.429688 92.332031 33.25 92.25 C 31.226562 91.578125 30.226562 90.160156 30.25 88 C 27.042969 88.328125 24.292969 87.410156 22 85.25 C 20.773438 82.238281 19.359375 79.320312 17.75 76.5 C 19.054688 75.980469 20.222656 75.230469 21.25 74.25 C 19.269531 73.835938 17.269531 73.585938 15.25 73.5 C 13.0625 70.867188 11.0625 68.117188 9.25 65.25 Z M 9.25 65.25 "/>
<path style=" stroke:none;fill-rule:evenodd;fill:rgb(88.235295%,50.196081%,15.294118%);fill-opacity:1;" d="M 51.25 86.25 C 52.917969 86.25 54.582031 86.25 56.25 86.25 C 56.011719 88.167969 56.511719 89.835938 57.75 91.25 C 56.632812 91.769531 55.464844 91.851562 54.25 91.5 C 52.785156 89.980469 51.785156 88.230469 51.25 86.25 Z M 51.25 86.25 "/>
<path style=" stroke:none;fill-rule:evenodd;fill:rgb(97.647059%,67.058825%,28.627452%);fill-opacity:1;" d="M 36.75 83.75 C 37.285156 83.28125 37.949219 83.117188 38.75 83.25 C 38.492188 84.257812 38.410156 85.257812 38.5 86.25 C 39.34375 85.324219 40.257812 84.492188 41.25 83.75 C 42.511719 84.390625 43.84375 84.726562 45.25 84.75 C 45.585938 85.132812 46.003906 85.46875 46.5 85.75 C 46.582031 87.753906 47 88.003906 47.75 86.5 C 48.90625 86.25 50.070312 86.167969 51.25 86.25 C 51.785156 88.230469 52.785156 89.980469 54.25 91.5 C 55.464844 91.851562 56.632812 91.769531 57.75 91.25 C 58.042969 91.882812 58.042969 92.382812 57.75 92.75 C 56.417969 92.082031 55.082031 92.082031 53.75 92.75 C 53.132812 92.328125 52.632812 91.828125 52.25 91.25 C 51.976562 90.347656 51.558594 89.515625 51 88.75 C 49.738281 90.007812 48.238281 90.84375 46.5 91.25 C 44.265625 89.734375 41.847656 89.398438 39.25 90.25 C 38.140625 88.964844 37.558594 87.464844 37.5 85.75 C 37.359375 87.371094 36.941406 87.539062 36.25 86.25 C 35.664062 86.925781 35.164062 86.84375 34.75 86 C 35.488281 85.644531 35.820312 85.0625 35.75 84.25 C 36.699219 84.378906 37.035156 84.210938 36.75 83.75 Z M 36.75 83.75 "/>
<path style=" stroke:none;fill-rule:evenodd;fill:rgb(56.470591%,54.509807%,53.333336%);fill-opacity:1;" d="M 72.25 84.75 C 72.75 84.75 73.25 84.75 73.75 84.75 C 73.035156 89.296875 70.371094 91.796875 65.75 92.25 C 61.5 92.191406 58.917969 90.191406 58 86.25 C 58.863281 85.710938 59.78125 85.628906 60.75 86 C 62.882812 88.765625 65.550781 89.433594 68.75 88 C 69.863281 86.800781 71.03125 85.714844 72.25 84.75 Z M 72.25 84.75 "/>
<path style=" stroke:none;fill-rule:evenodd;fill:rgb(99.215686%,81.568629%,54.901963%);fill-opacity:1;" d="M 47.75 95.25 C 47.570312 96.183594 47.070312 96.933594 46.25 97.5 C 43.511719 98.023438 41.679688 96.941406 40.75 94.25 C 40.542969 93.9375 40.207031 93.773438 39.75 93.75 C 36.117188 95.234375 32.617188 95.070312 29.25 93.25 C 29.25 93.082031 29.25 92.917969 29.25 92.75 C 29.308594 92.207031 29.644531 91.875 30.25 91.75 C 31.277344 92.023438 32.109375 92.605469 32.75 93.5 C 34.113281 93.910156 35.445312 93.824219 36.75 93.25 C 35.515625 92.914062 34.347656 92.582031 33.25 92.25 C 34.429688 92.332031 35.59375 92.25 36.75 92 C 39.546875 90.386719 42.378906 90.472656 45.25 92.25 C 45.75 93.570312 46.582031 94.570312 47.75 95.25 Z M 47.75 95.25 "/>
<path style=" stroke:none;fill-rule:evenodd;fill:rgb(88.235295%,78.431374%,64.313728%);fill-opacity:1;" d="M 29.25 93.25 C 32.617188 95.070312 36.117188 95.234375 39.75 93.75 C 40.207031 93.773438 40.542969 93.9375 40.75 94.25 C 38.535156 94.867188 36.285156 95.367188 34 95.75 C 32.003906 95.628906 30.421875 94.796875 29.25 93.25 Z M 29.25 93.25 "/>
<path style=" stroke:none;fill-rule:evenodd;fill:rgb(96.078432%,74.901962%,45.09804%);fill-opacity:1;" d="M 50.25 91.75 C 50.785156 91.28125 51.449219 91.117188 52.25 91.25 C 52.632812 91.828125 53.132812 92.328125 53.75 92.75 C 55.082031 92.082031 56.417969 92.082031 57.75 92.75 C 58.042969 92.382812 58.042969 91.882812 57.75 91.25 C 58.957031 91.703125 59.375 92.535156 59 93.75 C 57.273438 95.382812 55.355469 95.632812 53.25 94.5 C 52.292969 93.453125 51.292969 92.539062 50.25 91.75 Z M 50.25 91.75 "/>
<use xlink:href="#surface32" mask="url(#mask9)"/>
</g>
</svg>
