<?xml version="1.0" encoding="UTF-8"?>
<svg xmlns="http://www.w3.org/2000/svg" xmlns:xlink="http://www.w3.org/1999/xlink" width="px" height="px" viewBox="0 0 92 99" version="1.1">
<defs>
<filter id="alpha" filterUnits="objectBoundingBox" x="0%" y="0%" width="100%" height="100%">
  <feColorMatrix type="matrix" in="SourceGraphic" values="0 0 0 0 1 0 0 0 0 1 0 0 0 0 1 0 0 0 1 0"/>
</filter>
<mask id="mask0">
  <g filter="url(#alpha)">
<rect x="0" y="0" width="92" height="99" style="fill:rgb(0%,0%,0%);fill-opacity:0.0862745;stroke:none;"/>
  </g>
</mask>
<clipPath id="clip1">
  <rect x="0" y="0" width="92" height="99"/>
</clipPath>
<g id="surface5" clip-path="url(#clip1)">
<path style=" stroke:none;fill-rule:evenodd;fill:rgb(13.72549%,16.078431%,21.568627%);fill-opacity:1;" d="M 19.355469 -0.25 C 20.695312 -0.25 22.035156 -0.25 23.378906 -0.25 C 23.542969 0.417969 23.710938 0.417969 23.878906 -0.25 C 24.046875 -0.25 24.214844 -0.25 24.382812 -0.25 C 24.550781 0.417969 24.71875 0.417969 24.886719 -0.25 C 25.054688 -0.25 25.21875 -0.25 25.386719 -0.25 C 27.0625 0.417969 28.738281 0.417969 30.414062 -0.25 C 30.582031 -0.25 30.75 -0.25 30.917969 -0.25 C 31.085938 0.417969 31.253906 0.417969 31.421875 -0.25 C 31.589844 -0.25 31.757812 -0.25 31.921875 -0.25 C 36.253906 0.460938 40.441406 1.796875 44.492188 3.75 C 44.894531 3.976562 45.058594 4.3125 44.996094 4.75 C 39.382812 1.699219 33.351562 0.367188 26.894531 0.75 C 22.007812 0.367188 17.316406 1.117188 12.820312 3 C 11.566406 3.664062 10.558594 4.582031 9.804688 5.75 C 8.214844 7.238281 7.125 9.070312 6.535156 11.25 C 2.917969 14.105469 1.242188 17.773438 1.507812 22.25 C 2.746094 24.960938 4.167969 27.542969 5.78125 30 C 3.179688 34.195312 1.335938 38.613281 0.25 43.25 C 0.617188 38.519531 2.128906 34.1875 4.777344 30.25 C 3.027344 27.183594 1.519531 24.015625 0.25 20.75 C 0.632812 17 2.394531 13.835938 5.53125 11.25 C 7.964844 4.757812 12.570312 0.925781 19.355469 -0.25 Z M 19.355469 -0.25 "/>
</g>
<mask id="mask1">
  <g filter="url(#alpha)">
<rect x="0" y="0" width="92" height="99" style="fill:rgb(0%,0%,0%);fill-opacity:0.992157;stroke:none;"/>
  </g>
</mask>
<clipPath id="clip2">
  <rect x="0" y="0" width="92" height="99"/>
</clipPath>
<g id="surface8" clip-path="url(#clip2)">
<path style=" stroke:none;fill-rule:evenodd;fill:rgb(3.529412%,1.568627%,2.745098%);fill-opacity:1;" d="M 44.996094 4.75 C 46.671875 5.082031 47.675781 6.082031 48.011719 7.75 C 48.285156 8.695312 48.789062 9.53125 49.519531 10.25 C 51.277344 8.324219 53.289062 6.824219 55.550781 5.75 C 64.730469 5.042969 70.09375 9.210938 71.640625 18.25 C 74.039062 19.46875 75.714844 21.300781 76.667969 23.75 C 75.863281 24.28125 75.023438 24.28125 74.152344 23.75 C 72.460938 20.910156 69.949219 19.242188 66.613281 18.75 C 65.378906 18.191406 64.039062 17.773438 62.589844 17.5 C 55.21875 17.25 47.84375 17.167969 40.46875 17.25 C 39.800781 17.25 39.128906 17.25 38.460938 17.25 C 36.007812 17.261719 33.746094 17.925781 31.671875 19.25 C 30.824219 19.160156 30.742188 18.824219 31.421875 18.25 C 32.21875 17.347656 33.226562 16.679688 34.4375 16.25 C 35.515625 11.761719 38.363281 9.34375 42.984375 9 C 40.910156 6.046875 38.0625 4.214844 34.4375 3.5 C 30.707031 2.554688 27.019531 2.304688 23.378906 2.75 C 20.359375 2.667969 17.511719 3.167969 14.832031 4.25 C 13.425781 4.53125 12.253906 5.199219 11.3125 6.25 C 10.863281 5.945312 10.359375 5.777344 9.804688 5.75 C 10.558594 4.582031 11.566406 3.664062 12.820312 3 C 17.316406 1.117188 22.007812 0.367188 26.894531 0.75 C 33.351562 0.367188 39.382812 1.699219 44.996094 4.75 Z M 44.996094 4.75 "/>
</g>
<mask id="mask2">
  <g filter="url(#alpha)">
<rect x="0" y="0" width="92" height="99" style="fill:rgb(0%,0%,0%);fill-opacity:0.0862745;stroke:none;"/>
  </g>
</mask>
<clipPath id="clip3">
  <rect x="0" y="0" width="92" height="99"/>
</clipPath>
<g id="surface11" clip-path="url(#clip3)">
<path style=" stroke:none;fill-rule:evenodd;fill:rgb(13.72549%,16.470588%,21.960784%);fill-opacity:1;" d="M 55.550781 5.75 C 53.289062 6.824219 51.277344 8.324219 49.519531 10.25 C 48.789062 9.53125 48.285156 8.695312 48.011719 7.75 C 48.503906 8.070312 49.007812 8.402344 49.519531 8.75 C 50.59375 8.097656 51.601562 7.347656 52.535156 6.5 C 53.464844 5.9375 54.46875 5.6875 55.550781 5.75 Z M 55.550781 5.75 "/>
</g>
<mask id="mask3">
  <g filter="url(#alpha)">
<rect x="0" y="0" width="92" height="99" style="fill:rgb(0%,0%,0%);fill-opacity:0.976471;stroke:none;"/>
  </g>
</mask>
<clipPath id="clip4">
  <rect x="0" y="0" width="92" height="99"/>
</clipPath>
<g id="surface14" clip-path="url(#clip4)">
<path style=" stroke:none;fill-rule:evenodd;fill:rgb(5.490196%,4.705882%,5.490196%);fill-opacity:1;" d="M 9.804688 5.75 C 10.359375 5.777344 10.863281 5.945312 11.3125 6.25 C 9.632812 7.917969 8.625 9.917969 8.296875 12.25 C 7.871094 12.964844 7.371094 13.628906 6.785156 14.25 C 3.914062 15.960938 2.65625 18.460938 3.015625 21.75 C 5.894531 27.78125 9.75 33.113281 14.578125 37.75 C 14.710938 39.917969 14.628906 42.085938 14.328125 44.25 C 14.460938 45.050781 14.296875 45.714844 13.824219 46.25 C 11.648438 46.25 9.46875 46.25 7.289062 46.25 C 7.289062 44.917969 7.289062 43.582031 7.289062 42.25 C 7.550781 39.710938 8.054688 37.210938 8.796875 34.75 C 8.332031 33.695312 7.742188 32.695312 7.039062 31.75 C 2.324219 39.117188 0.730469 47.117188 2.261719 55.75 C 1.898438 55.960938 1.648438 56.292969 1.507812 56.75 C 0.347656 52.523438 -0.0703125 48.1875 0.25 43.75 C 0.25 43.582031 0.25 43.417969 0.25 43.25 C 1.335938 38.613281 3.179688 34.195312 5.78125 30 C 4.167969 27.542969 2.746094 24.960938 1.507812 22.25 C 1.242188 17.773438 2.917969 14.105469 6.535156 11.25 C 7.125 9.070312 8.214844 7.238281 9.804688 5.75 Z M 9.804688 5.75 "/>
</g>
<mask id="mask4">
  <g filter="url(#alpha)">
<rect x="0" y="0" width="92" height="99" style="fill:rgb(0%,0%,0%);fill-opacity:0.145098;stroke:none;"/>
  </g>
</mask>
<clipPath id="clip5">
  <rect x="0" y="0" width="92" height="99"/>
</clipPath>
<g id="surface17" clip-path="url(#clip5)">
<path style=" stroke:none;fill-rule:evenodd;fill:rgb(14.509804%,18.039216%,23.137255%);fill-opacity:1;" d="M 55.550781 5.75 C 64.535156 4.089844 69.980469 7.753906 71.890625 16.75 C 74.804688 19.144531 77.152344 21.980469 78.929688 25.25 C 81.496094 24.015625 84.011719 24.015625 86.46875 25.25 C 87.066406 28 87.820312 30.664062 88.730469 33.25 C 87.894531 33.125 87.136719 32.792969 86.46875 32.25 C 86.300781 30.25 86.132812 28.25 85.96875 26.25 C 85.382812 25.167969 84.460938 24.667969 83.203125 24.75 C 81.320312 25.152344 79.476562 25.652344 77.671875 26.25 C 77.722656 25.222656 77.386719 24.390625 76.667969 23.75 C 75.714844 21.300781 74.039062 19.46875 71.640625 18.25 C 70.09375 9.210938 64.730469 5.042969 55.550781 5.75 Z M 55.550781 5.75 "/>
</g>
<mask id="mask5">
  <g filter="url(#alpha)">
<rect x="0" y="0" width="92" height="99" style="fill:rgb(0%,0%,0%);fill-opacity:0.992157;stroke:none;"/>
  </g>
</mask>
<clipPath id="clip6">
  <rect x="0" y="0" width="92" height="99"/>
</clipPath>
<g id="surface20" clip-path="url(#clip6)">
<path style=" stroke:none;fill-rule:evenodd;fill:rgb(7.058824%,5.490196%,5.882353%);fill-opacity:1;" d="M 74.152344 23.75 C 75.023438 24.28125 75.863281 24.28125 76.667969 23.75 C 77.386719 24.390625 77.722656 25.222656 77.671875 26.25 C 79.476562 25.652344 81.320312 25.152344 83.203125 24.75 C 84.460938 24.667969 85.382812 25.167969 85.96875 26.25 C 86.132812 28.25 86.300781 30.25 86.46875 32.25 C 87.136719 32.792969 87.894531 33.125 88.730469 33.25 C 90.171875 35.066406 90.503906 37.066406 89.738281 39.25 C 90.292969 40.441406 90.628906 41.691406 90.742188 43 C 90.707031 47.503906 90.707031 52.003906 90.742188 56.5 C 90.1875 59.824219 89.515625 63.074219 88.730469 66.25 C 87.875 68.675781 87.121094 71.175781 86.46875 73.75 C 85.839844 74.796875 84.917969 75.296875 83.703125 75.25 C 81.753906 75.019531 79.996094 74.355469 78.425781 73.25 C 76.988281 77.011719 74.476562 79.847656 70.886719 81.75 C 69.023438 91.054688 63.410156 94.636719 54.042969 92.5 C 52.773438 91.484375 51.429688 90.570312 50.023438 89.75 C 49.679688 89.929688 49.34375 90.097656 49.015625 90.25 C 49.097656 87.785156 49.683594 87.453125 50.777344 89.25 C 51.167969 88.097656 50.917969 87.097656 50.023438 86.25 C 50.269531 85.488281 50.605469 84.820312 51.027344 84.25 C 52.601562 89.953125 56.289062 91.867188 62.085938 90 C 63.644531 89.363281 64.984375 88.445312 66.109375 87.25 C 67.242188 86.089844 68.078125 84.675781 68.621094 83 C 67.429688 82.007812 66.085938 81.257812 64.601562 80.75 C 65.371094 80.34375 66.207031 80.011719 67.113281 79.75 C 68.871094 79.296875 70.378906 78.460938 71.640625 77.25 C 75.507812 74.6875 76.179688 71.351562 73.648438 67.25 C 72.882812 66.617188 72.042969 66.117188 71.136719 65.75 C 70.804688 64.273438 70.636719 62.773438 70.632812 61.25 C 72.011719 59.496094 73.855469 58.828125 76.164062 59.25 C 77.003906 59.25 77.839844 59.25 78.675781 59.25 C 78.730469 52.910156 78.816406 46.574219 78.929688 40.25 C 77.453125 39.9375 76.027344 39.601562 74.65625 39.25 C 76.6875 38.714844 77.523438 37.382812 77.167969 35.25 C 75.996094 35.25 74.824219 35.25 73.648438 35.25 C 73.808594 32.402344 74.308594 29.652344 75.160156 27 C 74.96875 25.855469 74.636719 24.773438 74.152344 23.75 Z M 74.152344 23.75 "/>
</g>
<mask id="mask6">
  <g filter="url(#alpha)">
<rect x="0" y="0" width="92" height="99" style="fill:rgb(0%,0%,0%);fill-opacity:0.00784314;stroke:none;"/>
  </g>
</mask>
<clipPath id="clip7">
  <rect x="0" y="0" width="92" height="99"/>
</clipPath>
<g id="surface23" clip-path="url(#clip7)">
<path style=" stroke:none;fill-rule:evenodd;fill:rgb(15.686275%,19.215686%,24.313725%);fill-opacity:1;" d="M 88.730469 33.25 C 89.691406 33.289062 90.28125 33.789062 90.492188 34.75 C 90.886719 39.828125 91.304688 44.828125 91.75 49.75 C 91.75 49.917969 91.75 50.082031 91.75 50.25 C 90.917969 52.199219 90.75 54.199219 91.246094 56.25 C 91.050781 59.457031 90.632812 62.621094 89.988281 65.75 C 89.652344 66.125 89.234375 66.292969 88.730469 66.25 C 89.515625 63.074219 90.1875 59.824219 90.742188 56.5 C 90.707031 52.003906 90.707031 47.503906 90.742188 43 C 90.628906 41.691406 90.292969 40.441406 89.738281 39.25 C 90.503906 37.066406 90.171875 35.066406 88.730469 33.25 Z M 88.730469 33.25 "/>
</g>
<mask id="mask7">
  <g filter="url(#alpha)">
<rect x="0" y="0" width="92" height="99" style="fill:rgb(0%,0%,0%);fill-opacity:0.964706;stroke:none;"/>
  </g>
</mask>
<clipPath id="clip8">
  <rect x="0" y="0" width="92" height="99"/>
</clipPath>
<g id="surface26" clip-path="url(#clip8)">
<path style=" stroke:none;fill-rule:evenodd;fill:rgb(8.235294%,7.843137%,9.019608%);fill-opacity:1;" d="M -0.25 43.75 C -0.0820312 43.75 0.0820312 43.75 0.25 43.75 C -0.0703125 48.1875 0.347656 52.523438 1.507812 56.75 C 1.648438 56.292969 1.898438 55.960938 2.261719 55.75 C 3.011719 60.242188 4.605469 64.40625 7.039062 68.25 C 8.050781 67.234375 8.804688 66.066406 9.300781 64.75 C 7.816406 60.539062 6.980469 56.207031 6.785156 51.75 C 9.46875 51.75 12.148438 51.75 14.832031 51.75 C 14.832031 52.417969 14.832031 53.082031 14.832031 53.75 C 14.996094 56.4375 14.828125 59.105469 14.328125 61.75 C 11.773438 64.125 9.59375 66.789062 7.792969 69.75 C 4.851562 72.746094 3.511719 76.246094 3.769531 80.25 C 4.921875 82.226562 6.429688 83.894531 8.296875 85.25 C 9.039062 86.523438 9.792969 86.523438 10.558594 85.25 C 11.296875 87.289062 12.136719 89.289062 13.070312 91.25 C 13.425781 91.691406 13.847656 92.023438 14.328125 92.25 C 14.496094 92.582031 14.664062 92.917969 14.832031 93.25 C 16.097656 94.628906 17.605469 95.628906 19.355469 96.25 C 18.5 96.171875 17.664062 96.253906 16.839844 96.5 C 17.300781 96.640625 17.636719 96.890625 17.847656 97.25 C 13.878906 95.890625 11.117188 93.222656 9.550781 89.25 C 6.007812 87.222656 3.324219 84.390625 1.507812 80.75 C 1.171875 79.417969 1.171875 78.082031 1.507812 76.75 C 2.398438 74.394531 3.488281 72.144531 4.777344 70 C 2.730469 65.476562 1.054688 60.894531 -0.25 56.25 C -0.25 52.082031 -0.25 47.917969 -0.25 43.75 Z M -0.25 43.75 "/>
</g>
<mask id="mask8">
  <g filter="url(#alpha)">
<rect x="0" y="0" width="92" height="99" style="fill:rgb(0%,0%,0%);fill-opacity:0.992157;stroke:none;"/>
  </g>
</mask>
<clipPath id="clip9">
  <rect x="0" y="0" width="92" height="99"/>
</clipPath>
<g id="surface29" clip-path="url(#clip9)">
<path style=" stroke:none;fill-rule:evenodd;fill:rgb(5.098039%,3.137255%,3.921569%);fill-opacity:1;" d="M 28.90625 75.75 C 31.628906 78.1875 34.8125 79.6875 38.460938 80.25 C 38.84375 80.632812 39.34375 80.882812 39.96875 81 C 48.1875 81.378906 56.398438 81.296875 64.601562 80.75 C 66.085938 81.257812 67.429688 82.007812 68.621094 83 C 68.078125 84.675781 67.242188 86.089844 66.109375 87.25 C 66.109375 87.082031 66.109375 86.917969 66.109375 86.75 C 67.234375 85.371094 67.566406 83.871094 67.113281 82.25 C 65.453125 82.699219 63.777344 83.113281 62.085938 83.5 C 58.304688 83.609375 54.617188 83.695312 51.027344 83.75 C 51.027344 83.917969 51.027344 84.082031 51.027344 84.25 C 50.605469 84.820312 50.269531 85.488281 50.023438 86.25 C 50.917969 87.097656 51.167969 88.097656 50.777344 89.25 C 49.683594 87.453125 49.097656 87.785156 49.015625 90.25 C 47.433594 93.160156 45.085938 95.160156 41.976562 96.25 C 35.734375 97.976562 29.367188 98.640625 22.875 98.25 C 21.523438 98.332031 20.183594 98.25 18.851562 98 C 18.390625 97.859375 18.058594 97.609375 17.847656 97.25 C 17.636719 96.890625 17.300781 96.640625 16.839844 96.5 C 17.664062 96.253906 18.5 96.171875 19.355469 96.25 C 22.523438 96.628906 25.707031 96.796875 28.90625 96.75 C 30.582031 96.582031 32.257812 96.417969 33.933594 96.25 C 37.300781 95.71875 40.484375 94.632812 43.488281 93 C 44.519531 92.140625 45.359375 91.140625 46 90 C 43.667969 88.179688 41.65625 86.011719 39.96875 83.5 C 35.019531 82.542969 30.832031 80.292969 27.398438 76.75 C 27.332031 76.378906 27.417969 76.046875 27.648438 75.75 C 28.039062 76.300781 28.457031 76.300781 28.90625 75.75 Z M 28.90625 75.75 "/>
</g>
<mask id="mask9">
  <g filter="url(#alpha)">
<rect x="0" y="0" width="92" height="99" style="fill:rgb(0%,0%,0%);fill-opacity:0.00784314;stroke:none;"/>
  </g>
</mask>
<clipPath id="clip10">
  <rect x="0" y="0" width="92" height="99"/>
</clipPath>
<g id="surface32" clip-path="url(#clip10)">
<path style=" stroke:none;fill-rule:evenodd;fill:rgb(12.941176%,17.647059%,22.352941%);fill-opacity:1;" d="M 41.976562 96.25 C 39.410156 97.460938 36.730469 98.292969 33.933594 98.75 C 30.246094 98.75 26.5625 98.75 22.875 98.75 C 22.875 98.582031 22.875 98.417969 22.875 98.25 C 29.367188 98.640625 35.734375 97.976562 41.976562 96.25 Z M 41.976562 96.25 "/>
</g>
</defs>
<g id="surface1">
<use xlink:href="#surface5" mask="url(#mask0)"/>
<use xlink:href="#surface8" mask="url(#mask1)"/>
<path style=" stroke:none;fill-rule:evenodd;fill:rgb(19.215686%,16.862745%,23.921569%);fill-opacity:1;" d="M 23.378906 2.75 C 27.019531 2.304688 30.707031 2.554688 34.4375 3.5 C 38.0625 4.214844 40.910156 6.046875 42.984375 9 C 38.363281 9.34375 35.515625 11.761719 34.4375 16.25 C 33.226562 16.679688 32.21875 17.347656 31.421875 18.25 C 29.925781 18.828125 28.585938 19.660156 27.398438 20.75 C 27.53125 16.578125 27.53125 12.410156 27.398438 8.25 C 26.144531 6.628906 26.144531 4.960938 27.398438 3.25 C 26.097656 2.761719 24.757812 2.59375 23.378906 2.75 Z M 23.378906 2.75 "/>
<use xlink:href="#surface11" mask="url(#mask2)"/>
<path style=" stroke:none;fill-rule:evenodd;fill:rgb(34.901961%,30.980392%,41.568627%);fill-opacity:1;" d="M 23.378906 2.75 C 24.757812 2.59375 26.097656 2.761719 27.398438 3.25 C 26.144531 4.960938 26.144531 6.628906 27.398438 8.25 C 27.53125 12.410156 27.53125 16.578125 27.398438 20.75 C 26.183594 21.953125 25.179688 23.289062 24.382812 24.75 C 23.671875 18.917969 23 13.085938 22.371094 7.25 C 19.910156 7.097656 17.730469 6.265625 15.835938 4.75 C 15.664062 4.332031 15.328125 4.164062 14.832031 4.25 C 17.511719 3.167969 20.359375 2.667969 23.378906 2.75 Z M 23.378906 2.75 "/>
<path style=" stroke:none;fill-rule:evenodd;fill:rgb(78.431373%,43.529412%,56.470588%);fill-opacity:1;" d="M 65.105469 10.75 C 64.25 10.6875 63.496094 10.355469 62.839844 9.75 C 58.332031 10.117188 54.394531 11.785156 51.027344 14.75 C 50.652344 11.496094 52.160156 9.246094 55.550781 8 C 59.371094 7.035156 62.554688 7.953125 65.105469 10.75 Z M 65.105469 10.75 "/>
<use xlink:href="#surface14" mask="url(#mask3)"/>
<path style=" stroke:none;fill-rule:evenodd;fill:rgb(62.745098%,21.568627%,37.254902%);fill-opacity:1;" d="M 65.105469 10.75 C 66.988281 11.976562 67.492188 13.644531 66.613281 15.75 C 65.058594 14.84375 63.382812 14.34375 61.585938 14.25 C 58.023438 15.21875 54.503906 15.382812 51.027344 14.75 C 54.394531 11.785156 58.332031 10.117188 62.839844 9.75 C 63.496094 10.355469 64.25 10.6875 65.105469 10.75 Z M 65.105469 10.75 "/>
<path style=" stroke:none;fill-rule:evenodd;fill:rgb(85.882353%,86.27451%,85.098039%);fill-opacity:1;" d="M 13.824219 7.25 C 16.125 6.882812 18.136719 7.382812 19.859375 8.75 C 20.867188 14.164062 18.6875 16.25 13.324219 15 C 11.1875 13.3125 10.765625 11.226562 12.066406 8.75 C 12.828125 8.417969 13.414062 7.917969 13.824219 7.25 Z M 13.824219 7.25 "/>
<path style=" stroke:none;fill-rule:evenodd;fill:rgb(73.333333%,62.745098%,67.058824%);fill-opacity:1;" d="M 14.832031 4.25 C 15.328125 4.164062 15.664062 4.332031 15.835938 4.75 C 14.421875 4.703125 13.417969 5.285156 12.820312 6.5 C 12.988281 7.015625 13.324219 7.265625 13.824219 7.25 C 13.414062 7.917969 12.828125 8.417969 12.066406 8.75 C 10.765625 11.226562 11.1875 13.3125 13.324219 15 C 18.6875 16.25 20.867188 14.164062 19.859375 8.75 C 21.589844 13.6875 22.761719 18.851562 23.378906 24.25 C 23.1875 25.230469 22.851562 26.144531 22.371094 27 C 22.488281 27.199219 22.652344 27.28125 22.875 27.25 C 21.863281 30.601562 21.027344 33.933594 20.359375 37.25 C 19.953125 38.144531 19.703125 39.144531 19.605469 40.25 C 19.605469 37.25 19.605469 34.25 19.605469 31.25 C 18.957031 31.894531 18.371094 31.894531 17.847656 31.25 C 18.199219 30.167969 18.867188 29.25 19.859375 28.5 C 13.671875 27.515625 9.898438 23.929688 8.546875 17.75 C 8.296875 15.925781 8.210938 14.089844 8.296875 12.25 C 8.625 9.917969 9.632812 7.917969 11.3125 6.25 C 12.253906 5.199219 13.425781 4.53125 14.832031 4.25 Z M 14.832031 4.25 "/>
<path style=" stroke:none;fill-rule:evenodd;fill:rgb(67.45098%,48.627451%,55.294118%);fill-opacity:1;" d="M 15.835938 4.75 C 17.730469 6.265625 19.910156 7.097656 22.371094 7.25 C 23 13.085938 23.671875 18.917969 24.382812 24.75 C 24 25.683594 23.496094 26.515625 22.875 27.25 C 22.652344 27.28125 22.488281 27.199219 22.371094 27 C 22.851562 26.144531 23.1875 25.230469 23.378906 24.25 C 22.761719 18.851562 21.589844 13.6875 19.859375 8.75 C 18.136719 7.382812 16.125 6.882812 13.824219 7.25 C 13.324219 7.265625 12.988281 7.015625 12.820312 6.5 C 13.417969 5.285156 14.421875 4.703125 15.835938 4.75 Z M 15.835938 4.75 "/>
<path style=" stroke:none;fill-rule:evenodd;fill:rgb(85.490196%,52.156863%,66.666667%);fill-opacity:1;" d="M 40.46875 17.25 C 47.84375 17.167969 55.21875 17.25 62.589844 17.5 C 64.039062 17.773438 65.378906 18.191406 66.613281 18.75 C 64.828125 18.546875 63.152344 18.796875 61.585938 19.5 C 64.261719 20.765625 64.09375 21.515625 61.082031 21.75 C 59.554688 21.132812 58.046875 21.132812 56.558594 21.75 C 53.867188 22.011719 51.355469 21.511719 49.015625 20.25 C 47.855469 19.722656 46.683594 19.136719 45.496094 18.5 C 46.335938 18.332031 47.171875 18.167969 48.011719 18 C 45.40625 17.914062 42.890625 17.664062 40.46875 17.25 Z M 40.46875 17.25 "/>
<use xlink:href="#surface17" mask="url(#mask4)"/>
<path style=" stroke:none;fill-rule:evenodd;fill:rgb(17.254902%,12.156863%,13.333333%);fill-opacity:1;" d="M 8.296875 12.25 C 8.210938 14.089844 8.296875 15.925781 8.546875 17.75 C 9.898438 23.929688 13.671875 27.515625 19.859375 28.5 C 18.867188 29.25 18.199219 30.167969 17.847656 31.25 C 11.171875 27.59375 7.488281 21.925781 6.785156 14.25 C 7.371094 13.628906 7.871094 12.964844 8.296875 12.25 Z M 8.296875 12.25 "/>
<path style=" stroke:none;fill-rule:evenodd;fill:rgb(1.568627%,0%,0.784314%);fill-opacity:1;" d="M 49.015625 20.25 C 51.355469 21.511719 53.867188 22.011719 56.558594 21.75 C 63.519531 22.761719 66.617188 26.761719 65.859375 33.75 C 64.449219 37.5 61.683594 39.332031 57.5625 39.25 C 54.722656 39.210938 52.460938 38.046875 50.777344 35.75 C 49.792969 33.554688 48.871094 31.386719 48.011719 29.25 C 48.011719 28.75 48.011719 28.25 48.011719 27.75 C 47.707031 25.027344 48.039062 22.527344 49.015625 20.25 Z M 49.015625 20.25 "/>
<path style=" stroke:none;fill-rule:evenodd;fill:rgb(83.921569%,41.176471%,60%);fill-opacity:1;" d="M 38.460938 17.25 C 39.128906 17.25 39.800781 17.25 40.46875 17.25 C 42.890625 17.664062 45.40625 17.914062 48.011719 18 C 47.171875 18.167969 46.335938 18.332031 45.496094 18.5 C 46.683594 19.136719 47.855469 19.722656 49.015625 20.25 C 48.039062 22.527344 47.707031 25.027344 48.011719 27.75 C 47.613281 28.304688 47.363281 28.972656 47.257812 29.75 C 47.007812 27.925781 46.921875 26.089844 47.003906 24.25 C 42.316406 23.902344 37.792969 24.488281 33.433594 26 C 29.210938 28 26.109375 31.082031 24.132812 35.25 C 23.878906 33.757812 23.796875 32.257812 23.878906 30.75 C 24.941406 26.445312 27.289062 23.03125 30.917969 20.5 C 33.363281 19.113281 35.878906 18.03125 38.460938 17.25 Z M 38.460938 17.25 "/>
<path style=" stroke:none;fill-rule:evenodd;fill:rgb(87.058824%,47.45098%,65.098039%);fill-opacity:1;" d="M 66.613281 18.75 C 68.121094 20.332031 69.542969 22 70.886719 23.75 C 70.640625 27.949219 70.722656 32.113281 71.136719 36.25 C 70.027344 36.300781 69.023438 36.636719 68.121094 37.25 C 67.722656 34.125 67.46875 30.957031 67.367188 27.75 C 65.988281 24.960938 63.890625 22.960938 61.082031 21.75 C 64.09375 21.515625 64.261719 20.765625 61.585938 19.5 C 63.152344 18.796875 64.828125 18.546875 66.613281 18.75 Z M 66.613281 18.75 "/>
<use xlink:href="#surface20" mask="url(#mask5)"/>
<path style=" stroke:none;fill-rule:evenodd;fill:rgb(87.843137%,52.54902%,66.666667%);fill-opacity:1;" d="M 48.011719 27.75 C 48.011719 28.25 48.011719 28.75 48.011719 29.25 C 48.117188 31.710938 48.703125 34.042969 49.769531 36.25 C 51.390625 37.859375 52.980469 39.445312 54.546875 41 C 56.222656 41.332031 57.898438 41.332031 59.574219 41 C 61.203125 40.265625 62.878906 39.683594 64.601562 39.25 C 64.675781 39.777344 64.59375 40.277344 64.351562 40.75 C 63.839844 40.332031 63.253906 40.164062 62.589844 40.25 C 61.511719 42.492188 60.671875 44.824219 60.078125 47.25 C 59.523438 49.375 59.4375 51.539062 59.824219 53.75 C 60.175781 54.792969 60.761719 55.625 61.585938 56.25 C 63.410156 58.734375 65.421875 61.066406 67.617188 63.25 C 68.933594 68.242188 67.59375 72.324219 63.59375 75.5 C 62.433594 75.75 61.261719 75.832031 60.078125 75.75 C 65.996094 72.84375 67.585938 68.34375 64.851562 62.25 C 61.476562 58.636719 57.539062 57.886719 53.039062 60 C 52.417969 60.832031 51.746094 61.582031 51.027344 62.25 C 50.988281 61.535156 51.15625 60.867188 51.53125 60.25 C 52.359375 59.675781 53.113281 59.007812 53.792969 58.25 C 54.128906 54.582031 54.128906 50.917969 53.792969 47.25 C 51.574219 43.257812 49.730469 39.09375 48.261719 34.75 C 46.960938 32.742188 45.367188 30.992188 43.488281 29.5 C 40.972656 29.167969 38.460938 29.167969 35.945312 29.5 C 35.484375 29.640625 35.148438 29.890625 34.941406 30.25 C 31.007812 30.738281 28.074219 32.738281 26.140625 36.25 C 24.804688 40.335938 25.222656 44.167969 27.398438 47.75 C 26.457031 47.570312 25.703125 47.070312 25.136719 46.25 C 24.945312 46.527344 24.691406 46.695312 24.382812 46.75 C 22.851562 44.421875 22.179688 41.839844 22.371094 39 C 22.429688 36.105469 22.933594 33.355469 23.878906 30.75 C 23.796875 32.257812 23.878906 33.757812 24.132812 35.25 C 26.109375 31.082031 29.210938 28 33.433594 26 C 37.792969 24.488281 42.316406 23.902344 47.003906 24.25 C 46.921875 26.089844 47.007812 27.925781 47.257812 29.75 C 47.363281 28.972656 47.613281 28.304688 48.011719 27.75 Z M 48.011719 27.75 "/>
<path style=" stroke:none;fill-rule:evenodd;fill:rgb(78.431373%,72.156863%,67.843137%);fill-opacity:1;" d="M 83.703125 31.75 C 83.253906 31.265625 82.667969 30.929688 81.945312 30.75 C 80.6875 31 79.433594 31.25 78.175781 31.5 C 77.796875 31.835938 77.628906 32.253906 77.671875 32.75 C 77.011719 31.550781 77.011719 30.300781 77.671875 29 C 79.671875 27.671875 81.847656 26.921875 84.207031 26.75 C 84.226562 28.441406 84.058594 30.105469 83.703125 31.75 Z M 83.703125 31.75 "/>
<path style=" stroke:none;fill-rule:evenodd;fill:rgb(95.294118%,67.45098%,76.470588%);fill-opacity:1;" d="M 34.941406 30.25 C 34.515625 30.984375 33.84375 31.398438 32.929688 31.5 C 33.515625 31.75 33.933594 32.167969 34.1875 32.75 C 34.351562 32.417969 34.519531 32.082031 34.6875 31.75 C 35.21875 32.875 35.972656 33.042969 36.949219 32.25 C 37.785156 34.179688 38.539062 34.179688 39.214844 32.25 C 39.882812 33.300781 40.722656 33.636719 41.726562 33.25 C 41.96875 33.722656 42.054688 34.222656 41.976562 34.75 C 42.507812 34.675781 43.007812 34.757812 43.488281 35 C 42.976562 35.523438 42.890625 36.109375 43.234375 36.75 C 45.207031 38.429688 45.460938 40.179688 43.988281 42 C 44.824219 42.363281 45.074219 42.945312 44.742188 43.75 C 44.40625 44.417969 44.074219 44.417969 43.738281 43.75 C 43.402344 45.082031 43.066406 45.082031 42.730469 43.75 C 42.648438 44 42.566406 44.25 42.480469 44.5 C 43.039062 45.195312 43.710938 45.78125 44.492188 46.25 C 44 46.902344 44.167969 47.484375 44.996094 48 C 44.546875 48.609375 44.210938 49.277344 43.988281 50 C 44.304688 50.921875 44.386719 51.835938 44.242188 52.75 C 43.652344 52.054688 42.898438 51.636719 41.976562 51.5 C 42.394531 51.042969 42.898438 50.710938 43.488281 50.5 C 42.816406 49.832031 42.816406 49.167969 43.488281 48.5 C 43.027344 48.3125 42.605469 48.0625 42.230469 47.75 C 42.105469 48.3125 41.851562 48.8125 41.476562 49.25 C 40.867188 48.863281 40.867188 48.445312 41.476562 48 C 41.015625 47.8125 40.597656 47.5625 40.21875 47.25 C 39.179688 47.796875 38.089844 47.878906 36.949219 47.5 C 36.90625 46.710938 36.90625 45.960938 36.949219 45.25 C 36.175781 45.875 35.421875 45.875 34.6875 45.25 C 34.273438 46.765625 33.519531 48.265625 32.425781 49.75 C 32.800781 50.144531 33.21875 50.476562 33.683594 50.75 C 34.210938 50.242188 34.796875 50.15625 35.441406 50.5 C 35.210938 50.707031 35.046875 50.957031 34.941406 51.25 C 36.855469 51.582031 38.699219 51.917969 40.46875 52.25 C 35.382812 52.042969 31.949219 54.375 30.164062 59.25 C 28.566406 63.972656 29.320312 68.222656 32.425781 72 C 38.332031 75.390625 42.523438 73.972656 44.996094 67.75 C 44.910156 69.09375 44.996094 70.425781 45.246094 71.75 C 45.75 72.25 46.25 72.75 46.753906 73.25 C 46.921875 74.25 47.089844 75.25 47.257812 76.25 C 47.398438 75.792969 47.648438 75.460938 48.011719 75.25 C 48.011719 76.25 48.011719 77.25 48.011719 78.25 C 47.507812 78.25 47.003906 78.25 46.503906 78.25 C 36.90625 78.3125 30.035156 74.0625 25.890625 65.5 C 25.105469 65.117188 24.433594 65.199219 23.878906 65.75 C 23.425781 65.394531 23.257812 64.894531 23.378906 64.25 C 23.121094 58.339844 25.132812 53.339844 29.410156 49.25 C 28.730469 48.738281 28.058594 48.238281 27.398438 47.75 C 25.222656 44.167969 24.804688 40.335938 26.140625 36.25 C 28.074219 32.738281 31.007812 30.738281 34.941406 30.25 Z M 34.941406 30.25 "/>
<path style=" stroke:none;fill-rule:evenodd;fill:rgb(52.54902%,45.098039%,39.607843%);fill-opacity:1;" d="M 83.703125 31.75 C 83.648438 32.058594 83.480469 32.308594 83.203125 32.5 C 81.367188 32.75 79.523438 32.832031 77.671875 32.75 C 77.628906 32.253906 77.796875 31.835938 78.175781 31.5 C 79.433594 31.25 80.6875 31 81.945312 30.75 C 82.667969 30.929688 83.253906 31.265625 83.703125 31.75 Z M 83.703125 31.75 "/>
<path style=" stroke:none;fill-rule:evenodd;fill:rgb(80%,74.901961%,75.294118%);fill-opacity:1;" d="M 6.785156 14.25 C 7.488281 21.925781 11.171875 27.59375 17.847656 31.25 C 18.371094 31.894531 18.957031 31.894531 19.605469 31.25 C 19.605469 34.25 19.605469 37.25 19.605469 40.25 C 19.703125 39.144531 19.953125 38.144531 20.359375 37.25 C 20.296875 39.441406 20.464844 41.605469 20.863281 43.75 C 20.414062 44.054688 19.914062 44.222656 19.355469 44.25 C 19.105469 42.757812 18.855469 41.257812 18.601562 39.75 C 17.601562 40.109375 16.679688 40.609375 15.835938 41.25 C 15.699219 42.523438 15.195312 43.523438 14.328125 44.25 C 14.628906 42.085938 14.710938 39.917969 14.578125 37.75 C 9.75 33.113281 5.894531 27.78125 3.015625 21.75 C 2.65625 18.460938 3.914062 15.960938 6.785156 14.25 Z M 6.785156 14.25 "/>
<use xlink:href="#surface23" mask="url(#mask6)"/>
<path style=" stroke:none;fill-rule:evenodd;fill:rgb(95.294118%,66.27451%,75.294118%);fill-opacity:1;" d="M 51.027344 62.25 C 48.324219 66.171875 47.320312 70.503906 48.011719 75.25 C 47.648438 75.460938 47.398438 75.792969 47.257812 76.25 C 47.089844 75.25 46.921875 74.25 46.753906 73.25 C 46.25 72.75 45.75 72.25 45.246094 71.75 C 44.996094 70.425781 44.910156 69.09375 44.996094 67.75 C 46.371094 64.375 46.789062 60.875 46.25 57.25 C 45.171875 54.589844 43.242188 52.921875 40.46875 52.25 C 38.699219 51.917969 36.855469 51.582031 34.941406 51.25 C 35.046875 50.957031 35.210938 50.707031 35.441406 50.5 C 34.796875 50.15625 34.210938 50.242188 33.683594 50.75 C 33.21875 50.476562 32.800781 50.144531 32.425781 49.75 C 33.519531 48.265625 34.273438 46.765625 34.6875 45.25 C 35.421875 45.875 36.175781 45.875 36.949219 45.25 C 36.90625 45.960938 36.90625 46.710938 36.949219 47.5 C 38.089844 47.878906 39.179688 47.796875 40.21875 47.25 C 40.597656 47.5625 41.015625 47.8125 41.476562 48 C 40.867188 48.445312 40.867188 48.863281 41.476562 49.25 C 41.851562 48.8125 42.105469 48.3125 42.230469 47.75 C 42.605469 48.0625 43.027344 48.3125 43.488281 48.5 C 42.816406 49.167969 42.816406 49.832031 43.488281 50.5 C 42.898438 50.710938 42.394531 51.042969 41.976562 51.5 C 42.898438 51.636719 43.652344 52.054688 44.242188 52.75 C 44.386719 51.835938 44.304688 50.921875 43.988281 50 C 44.210938 49.277344 44.546875 48.609375 44.996094 48 C 44.167969 47.484375 44 46.902344 44.492188 46.25 C 43.710938 45.78125 43.039062 45.195312 42.480469 44.5 C 42.566406 44.25 42.648438 44 42.730469 43.75 C 43.066406 45.082031 43.402344 45.082031 43.738281 43.75 C 44.074219 44.417969 44.40625 44.417969 44.742188 43.75 C 45.074219 42.945312 44.824219 42.363281 43.988281 42 C 45.460938 40.179688 45.207031 38.429688 43.234375 36.75 C 42.890625 36.109375 42.976562 35.523438 43.488281 35 C 43.007812 34.757812 42.507812 34.675781 41.976562 34.75 C 42.054688 34.222656 41.96875 33.722656 41.726562 33.25 C 40.722656 33.636719 39.882812 33.300781 39.214844 32.25 C 38.539062 34.179688 37.785156 34.179688 36.949219 32.25 C 35.972656 33.042969 35.21875 32.875 34.6875 31.75 C 34.519531 32.082031 34.351562 32.417969 34.1875 32.75 C 33.933594 32.167969 33.515625 31.75 32.929688 31.5 C 33.84375 31.398438 34.515625 30.984375 34.941406 30.25 C 35.148438 29.890625 35.484375 29.640625 35.945312 29.5 C 38.460938 29.167969 40.972656 29.167969 43.488281 29.5 C 45.367188 30.992188 46.960938 32.742188 48.261719 34.75 C 49.730469 39.09375 51.574219 43.257812 53.792969 47.25 C 54.128906 50.917969 54.128906 54.582031 53.792969 58.25 C 53.113281 59.007812 52.359375 59.675781 51.53125 60.25 C 51.15625 60.867188 50.988281 61.535156 51.027344 62.25 Z M 51.027344 62.25 "/>
<path style=" stroke:none;fill-rule:evenodd;fill:rgb(83.529412%,57.254902%,63.137255%);fill-opacity:1;" d="M 73.648438 35.25 C 74.824219 35.25 75.996094 35.25 77.167969 35.25 C 77.523438 37.382812 76.6875 38.714844 74.65625 39.25 C 72.824219 38.769531 72.234375 37.601562 72.894531 35.75 C 73.089844 35.472656 73.339844 35.304688 73.648438 35.25 Z M 73.648438 35.25 "/>
<path style=" stroke:none;fill-rule:evenodd;fill:rgb(78.039216%,72.54902%,70.980392%);fill-opacity:1;" d="M 78.675781 34.75 C 82 33.875 83.257812 35.042969 82.449219 38.25 C 79.089844 39.496094 77.832031 38.328125 78.675781 34.75 Z M 78.675781 34.75 "/>
<path style=" stroke:none;fill-rule:evenodd;fill:rgb(78.823529%,72.54902%,70.980392%);fill-opacity:1;" d="M 84.207031 34.75 C 86.777344 34.304688 88.035156 35.304688 87.976562 37.75 C 86.867188 38.851562 85.609375 39.019531 84.207031 38.25 C 83.597656 37.070312 83.597656 35.902344 84.207031 34.75 Z M 84.207031 34.75 "/>
<path style=" stroke:none;fill-rule:evenodd;fill:rgb(76.078431%,35.294118%,52.941176%);fill-opacity:1;" d="M 61.082031 21.75 C 63.890625 22.960938 65.988281 24.960938 67.367188 27.75 C 67.46875 30.957031 67.722656 34.125 68.121094 37.25 C 66.996094 38.058594 65.820312 38.722656 64.601562 39.25 C 62.878906 39.683594 61.203125 40.265625 59.574219 41 C 57.898438 41.332031 56.222656 41.332031 54.546875 41 C 52.980469 39.445312 51.390625 37.859375 49.769531 36.25 C 48.703125 34.042969 48.117188 31.710938 48.011719 29.25 C 48.871094 31.386719 49.792969 33.554688 50.777344 35.75 C 52.460938 38.046875 54.722656 39.210938 57.5625 39.25 C 61.683594 39.332031 64.449219 37.5 65.859375 33.75 C 66.617188 26.761719 63.519531 22.761719 56.558594 21.75 C 58.046875 21.132812 59.554688 21.132812 61.082031 21.75 Z M 61.082031 21.75 "/>
<path style=" stroke:none;fill-rule:evenodd;fill:rgb(70.196078%,63.529412%,64.313725%);fill-opacity:1;" d="M 9.804688 36.75 C 12.566406 38.640625 13.570312 41.308594 12.820312 44.75 C 11.480469 44.75 10.136719 44.75 8.796875 44.75 C 8.730469 42.027344 9.066406 39.359375 9.804688 36.75 Z M 9.804688 36.75 "/>
<path style=" stroke:none;fill-rule:evenodd;fill:rgb(87.45098%,83.137255%,80%);fill-opacity:1;" d="M 80.6875 40.25 C 84.765625 39.558594 86.105469 41.140625 84.710938 45 C 83.378906 45.25 82.039062 45.332031 80.6875 45.25 C 80.6875 43.582031 80.6875 41.917969 80.6875 40.25 Z M 80.6875 40.25 "/>
<path style=" stroke:none;fill-rule:evenodd;fill:rgb(91.764706%,61.960784%,73.333333%);fill-opacity:1;" d="M 71.136719 36.25 C 71.757812 38.980469 73.433594 40.730469 76.164062 41.5 C 76.5 42 76.835938 42.5 77.167969 43 C 76.070312 43.625 75.402344 44.539062 75.160156 45.75 C 75.898438 47.160156 76.402344 48.660156 76.667969 50.25 C 76.261719 53.238281 76.09375 56.238281 76.164062 59.25 C 73.855469 58.828125 72.011719 59.496094 70.632812 61.25 C 69.769531 60.171875 69.351562 58.835938 69.378906 57.25 C 69.039062 56.875 68.621094 56.707031 68.121094 56.75 C 67.035156 55.792969 65.863281 54.960938 64.601562 54.25 C 63.941406 53.425781 63.273438 52.59375 62.589844 51.75 C 62.941406 51.605469 63.277344 51.441406 63.59375 51.25 C 66.199219 53.972656 69.382812 55.058594 73.148438 54.5 C 74.109375 52.101562 73.273438 50.601562 70.632812 50 C 72.136719 49.34375 73.3125 48.34375 74.152344 47 C 73.679688 45.691406 72.757812 44.941406 71.386719 44.75 C 68.5 45.542969 65.902344 46.878906 63.59375 48.75 C 62.882812 47.324219 63.21875 46.15625 64.601562 45.25 C 62.71875 44.929688 61.210938 45.597656 60.078125 47.25 C 60.671875 44.824219 61.511719 42.492188 62.589844 40.25 C 63.253906 40.164062 63.839844 40.332031 64.351562 40.75 C 64.59375 40.277344 64.675781 39.777344 64.601562 39.25 C 65.820312 38.722656 66.996094 38.058594 68.121094 37.25 C 69.023438 36.636719 70.027344 36.300781 71.136719 36.25 Z M 71.136719 36.25 "/>
<path style=" stroke:none;fill-rule:evenodd;fill:rgb(83.529412%,78.431373%,75.294118%);fill-opacity:1;" d="M 86.21875 40.25 C 88.394531 40.738281 89.148438 42.074219 88.480469 44.25 C 87.644531 45.582031 86.804688 45.582031 85.96875 44.25 C 85.605469 42.871094 85.6875 41.535156 86.21875 40.25 Z M 86.21875 40.25 "/>
<path style=" stroke:none;fill-rule:evenodd;fill:rgb(94.509804%,87.843137%,85.098039%);fill-opacity:1;" d="M 7.289062 42.25 C 6.796875 43.644531 6.632812 45.144531 6.785156 46.75 C 9.230469 46.910156 11.578125 46.742188 13.824219 46.25 C 14.296875 45.714844 14.460938 45.050781 14.328125 44.25 C 15.195312 43.523438 15.699219 42.523438 15.835938 41.25 C 16.679688 40.609375 17.601562 40.109375 18.601562 39.75 C 18.855469 41.257812 19.105469 42.757812 19.355469 44.25 C 19.636719 44.953125 19.804688 45.703125 19.859375 46.5 C 19.335938 51.574219 18.917969 56.65625 18.601562 61.75 C 17.605469 59.03125 16.933594 56.199219 16.589844 53.25 C 15.71875 52.019531 15.132812 52.1875 14.832031 53.75 C 14.832031 53.082031 14.832031 52.417969 14.832031 51.75 C 12.148438 51.75 9.46875 51.75 6.785156 51.75 C 6.980469 56.207031 7.816406 60.539062 9.300781 64.75 C 8.804688 66.066406 8.050781 67.234375 7.039062 68.25 C 4.605469 64.40625 3.011719 60.242188 2.261719 55.75 C 0.730469 47.117188 2.324219 39.117188 7.039062 31.75 C 7.742188 32.695312 8.332031 33.695312 8.796875 34.75 C 8.054688 37.210938 7.550781 39.710938 7.289062 42.25 Z M 7.289062 42.25 "/>
<path style=" stroke:none;fill-rule:evenodd;fill:rgb(5.098039%,2.352941%,2.745098%);fill-opacity:1;" d="M 63.59375 51.25 C 62.925781 50.417969 62.925781 49.582031 63.59375 48.75 C 65.902344 46.878906 68.5 45.542969 71.386719 44.75 C 72.757812 44.941406 73.679688 45.691406 74.152344 47 C 73.3125 48.34375 72.136719 49.34375 70.632812 50 C 73.273438 50.601562 74.109375 52.101562 73.148438 54.5 C 69.382812 55.058594 66.199219 53.972656 63.59375 51.25 Z M 63.59375 51.25 "/>
<path style=" stroke:none;fill-rule:evenodd;fill:rgb(31.372549%,26.666667%,26.27451%);fill-opacity:1;" d="M 7.289062 42.25 C 7.289062 43.582031 7.289062 44.917969 7.289062 46.25 C 9.46875 46.25 11.648438 46.25 13.824219 46.25 C 11.578125 46.742188 9.230469 46.910156 6.785156 46.75 C 6.632812 45.144531 6.796875 43.644531 7.289062 42.25 Z M 7.289062 42.25 "/>
<path style=" stroke:none;fill-rule:evenodd;fill:rgb(8.627451%,4.705882%,5.882353%);fill-opacity:1;" d="M 38.460938 17.25 C 35.878906 18.03125 33.363281 19.113281 30.917969 20.5 C 27.289062 23.03125 24.941406 26.445312 23.878906 30.75 C 22.933594 33.355469 22.429688 36.105469 22.371094 39 C 22.179688 41.839844 22.851562 44.421875 24.382812 46.75 C 25.136719 47.585938 25.808594 48.503906 26.394531 49.5 C 22.347656 53.863281 21.34375 58.78125 23.378906 64.25 C 23.257812 64.894531 23.425781 65.394531 23.878906 65.75 C 24.488281 69.628906 26.164062 72.964844 28.90625 75.75 C 28.457031 76.300781 28.039062 76.300781 27.648438 75.75 C 27.417969 76.046875 27.332031 76.378906 27.398438 76.75 C 26.765625 75.816406 25.925781 75.148438 24.886719 74.75 C 23.40625 71.664062 22.230469 68.496094 21.367188 65.25 C 20.859375 61.765625 20.777344 58.265625 21.113281 54.75 C 21.828125 52.828125 22.917969 51.160156 24.382812 49.75 C 22.949219 47.898438 21.777344 45.898438 20.863281 43.75 C 20.464844 41.605469 20.296875 39.441406 20.359375 37.25 C 21.027344 33.933594 21.863281 30.601562 22.875 27.25 C 23.496094 26.515625 24 25.683594 24.382812 24.75 C 25.179688 23.289062 26.183594 21.953125 27.398438 20.75 C 28.585938 19.660156 29.925781 18.828125 31.421875 18.25 C 30.742188 18.824219 30.824219 19.160156 31.671875 19.25 C 33.746094 17.925781 36.007812 17.261719 38.460938 17.25 Z M 38.460938 17.25 "/>
<path style=" stroke:none;fill-rule:evenodd;fill:rgb(87.058824%,81.568627%,77.647059%);fill-opacity:1;" d="M 80.6875 46.75 C 82.171875 46.613281 83.59375 46.777344 84.960938 47.25 C 85.210938 48.910156 85.296875 50.574219 85.214844 52.25 C 80.324219 53.226562 78.816406 51.394531 80.6875 46.75 Z M 80.6875 46.75 "/>
<path style=" stroke:none;fill-rule:evenodd;fill:rgb(84.705882%,80%,76.470588%);fill-opacity:1;" d="M 86.21875 47.25 C 88.222656 46.910156 89.0625 47.746094 88.730469 49.75 C 88.96875 51.679688 88.132812 52.679688 86.21875 52.75 C 86.21875 50.917969 86.21875 49.082031 86.21875 47.25 Z M 86.21875 47.25 "/>
<path style=" stroke:none;fill-rule:evenodd;fill:rgb(98.431373%,79.607843%,83.137255%);fill-opacity:1;" d="M 63.59375 48.75 C 62.925781 49.582031 62.925781 50.417969 63.59375 51.25 C 63.277344 51.441406 62.941406 51.605469 62.589844 51.75 C 63.273438 52.59375 63.941406 53.425781 64.601562 54.25 C 63.484375 54.410156 62.5625 54.078125 61.835938 53.25 C 60.988281 54.160156 60.902344 55.160156 61.585938 56.25 C 60.761719 55.625 60.175781 54.792969 59.824219 53.75 C 59.4375 51.539062 59.523438 49.375 60.078125 47.25 C 61.210938 45.597656 62.71875 44.929688 64.601562 45.25 C 63.21875 46.15625 62.882812 47.324219 63.59375 48.75 Z M 63.59375 48.75 "/>
<path style=" stroke:none;fill-rule:evenodd;fill:rgb(78.039216%,38.039216%,53.72549%);fill-opacity:1;" d="M 66.613281 18.75 C 69.949219 19.242188 72.460938 20.910156 74.152344 23.75 C 74.636719 24.773438 74.96875 25.855469 75.160156 27 C 74.308594 29.652344 73.808594 32.402344 73.648438 35.25 C 73.339844 35.304688 73.089844 35.472656 72.894531 35.75 C 72.234375 37.601562 72.824219 38.769531 74.65625 39.25 C 76.027344 39.601562 77.453125 39.9375 78.929688 40.25 C 78.816406 46.574219 78.730469 52.910156 78.675781 59.25 C 77.839844 59.25 77.003906 59.25 76.164062 59.25 C 76.09375 56.238281 76.261719 53.238281 76.667969 50.25 C 76.402344 48.660156 75.898438 47.160156 75.160156 45.75 C 75.402344 44.539062 76.070312 43.625 77.167969 43 C 76.835938 42.5 76.5 42 76.164062 41.5 C 73.433594 40.730469 71.757812 38.980469 71.136719 36.25 C 70.722656 32.113281 70.640625 27.949219 70.886719 23.75 C 69.542969 22 68.121094 20.332031 66.613281 18.75 Z M 66.613281 18.75 "/>
<path style=" stroke:none;fill-rule:evenodd;fill:rgb(76.862745%,43.529412%,55.686275%);fill-opacity:1;" d="M 27.398438 47.75 C 28.058594 48.238281 28.730469 48.738281 29.410156 49.25 C 25.132812 53.339844 23.121094 58.339844 23.378906 64.25 C 21.34375 58.78125 22.347656 53.863281 26.394531 49.5 C 25.808594 48.503906 25.136719 47.585938 24.382812 46.75 C 24.691406 46.695312 24.945312 46.527344 25.136719 46.25 C 25.703125 47.070312 26.457031 47.570312 27.398438 47.75 Z M 27.398438 47.75 "/>
<path style=" stroke:none;fill-rule:evenodd;fill:rgb(99.215686%,86.666667%,87.058824%);fill-opacity:1;" d="M 64.601562 54.25 C 65.863281 54.960938 67.035156 55.792969 68.121094 56.75 C 69.128906 58.597656 69.378906 60.597656 68.875 62.75 C 68.535156 63.125 68.117188 63.292969 67.617188 63.25 C 65.421875 61.066406 63.410156 58.734375 61.585938 56.25 C 60.902344 55.160156 60.988281 54.160156 61.835938 53.25 C 62.5625 54.078125 63.484375 54.410156 64.601562 54.25 Z M 64.601562 54.25 "/>
<path style=" stroke:none;fill-rule:evenodd;fill:rgb(99.215686%,86.27451%,85.490196%);fill-opacity:1;" d="M 40.46875 52.25 C 43.242188 52.921875 45.171875 54.589844 46.25 57.25 C 46.789062 60.875 46.371094 64.375 44.996094 67.75 C 42.523438 73.972656 38.332031 75.390625 32.425781 72 C 29.320312 68.222656 28.566406 63.972656 30.164062 59.25 C 31.949219 54.375 35.382812 52.042969 40.46875 52.25 Z M 40.46875 52.25 "/>
<path style=" stroke:none;fill-rule:evenodd;fill:rgb(38.431373%,34.509804%,32.156863%);fill-opacity:1;" d="M 85.214844 55.25 C 85.546875 55.25 85.882812 55.25 86.21875 55.25 C 86.21875 56.582031 86.21875 57.917969 86.21875 59.25 C 85.882812 58.582031 85.546875 57.917969 85.214844 57.25 C 85.214844 56.582031 85.214844 55.917969 85.214844 55.25 Z M 85.214844 55.25 "/>
<path style=" stroke:none;fill-rule:evenodd;fill:rgb(83.921569%,80.392157%,78.431373%);fill-opacity:1;" d="M 86.21875 59.25 C 86.21875 57.917969 86.21875 56.582031 86.21875 55.25 C 86.277344 54.707031 86.613281 54.375 87.222656 54.25 C 88.761719 55.226562 89.097656 56.558594 88.230469 58.25 C 87.6875 58.851562 87.019531 59.1875 86.21875 59.25 Z M 86.21875 59.25 "/>
<path style=" stroke:none;fill-rule:evenodd;fill:rgb(83.921569%,78.823529%,75.294118%);fill-opacity:1;" d="M 85.214844 55.25 C 85.214844 55.917969 85.214844 56.582031 85.214844 57.25 C 84.945312 58.761719 84.023438 59.429688 82.449219 59.25 C 80.5625 59.457031 79.808594 58.625 80.1875 56.75 C 80.191406 54 81.53125 53.085938 84.207031 54 C 84.839844 54.207031 85.175781 54.625 85.214844 55.25 Z M 85.214844 55.25 "/>
<path style=" stroke:none;fill-rule:evenodd;fill:rgb(3.137255%,0.784314%,1.176471%);fill-opacity:1;" d="M 60.078125 75.75 C 57.078125 76.097656 54.058594 76.347656 51.027344 76.5 C 50.300781 76.6875 49.800781 77.105469 49.519531 77.75 C 48.960938 77.777344 48.457031 77.945312 48.011719 78.25 C 48.011719 77.25 48.011719 76.25 48.011719 75.25 C 47.320312 70.503906 48.324219 66.171875 51.027344 62.25 C 51.746094 61.582031 52.417969 60.832031 53.039062 60 C 57.539062 57.886719 61.476562 58.636719 64.851562 62.25 C 67.585938 68.34375 65.996094 72.84375 60.078125 75.75 Z M 60.078125 75.75 "/>
<path style=" stroke:none;fill-rule:evenodd;fill:rgb(79.607843%,72.941176%,69.803922%);fill-opacity:1;" d="M 84.207031 60.75 C 87.746094 60.300781 88.582031 61.550781 86.722656 64.5 C 83.144531 65.074219 82.304688 63.824219 84.207031 60.75 Z M 84.207031 60.75 "/>
<path style=" stroke:none;fill-rule:evenodd;fill:rgb(91.764706%,84.705882%,83.137255%);fill-opacity:1;" d="M 20.863281 43.75 C 21.777344 45.898438 22.949219 47.898438 24.382812 49.75 C 22.917969 51.160156 21.828125 52.828125 21.113281 54.75 C 20.777344 58.265625 20.859375 61.765625 21.367188 65.25 C 21.117188 66.410156 20.617188 67.410156 19.859375 68.25 C 19.058594 67.691406 18.222656 67.773438 17.34375 68.5 C 15.746094 70.253906 13.988281 71.835938 12.066406 73.25 C 10.734375 75.066406 9.8125 77.066406 9.300781 79.25 C 8.964844 81.25 8.628906 83.25 8.296875 85.25 C 6.429688 83.894531 4.921875 82.226562 3.769531 80.25 C 4.996094 76.660156 6.335938 73.160156 7.792969 69.75 C 9.59375 66.789062 11.773438 64.125 14.328125 61.75 C 14.828125 59.105469 14.996094 56.4375 14.832031 53.75 C 15.132812 52.1875 15.71875 52.019531 16.589844 53.25 C 16.933594 56.199219 17.605469 59.03125 18.601562 61.75 C 18.917969 56.65625 19.335938 51.574219 19.859375 46.5 C 19.804688 45.703125 19.636719 44.953125 19.355469 44.25 C 19.914062 44.222656 20.414062 44.054688 20.863281 43.75 Z M 20.863281 43.75 "/>
<path style=" stroke:none;fill-rule:evenodd;fill:rgb(81.568627%,74.901961%,72.156863%);fill-opacity:1;" d="M 79.683594 61.25 C 80.6875 61.25 81.695312 61.25 82.699219 61.25 C 82.453125 62.402344 82.285156 63.570312 82.195312 64.75 C 81.191406 64.75 80.1875 64.75 79.179688 64.75 C 79.078125 63.523438 79.246094 62.359375 79.683594 61.25 Z M 79.683594 61.25 "/>
<path style=" stroke:none;fill-rule:evenodd;fill:rgb(83.529412%,73.72549%,70.196078%);fill-opacity:1;" d="M 72.644531 60.75 C 74.359375 60.625 76.035156 60.792969 77.671875 61.25 C 78.855469 63.886719 78.019531 65.21875 75.160156 65.25 C 74.289062 65.203125 73.453125 65.039062 72.644531 64.75 C 72.027344 63.402344 72.027344 62.066406 72.644531 60.75 Z M 72.644531 60.75 "/>
<path style=" stroke:none;fill-rule:evenodd;fill:rgb(81.960784%,74.901961%,72.156863%);fill-opacity:1;" d="M 76.667969 66.75 C 79.179688 66.75 81.695312 66.75 84.207031 66.75 C 84.207031 68.75 84.207031 70.75 84.207031 72.75 C 82.046875 72.425781 80.035156 71.675781 78.175781 70.5 C 77.230469 69.4375 76.726562 68.1875 76.667969 66.75 Z M 76.667969 66.75 "/>
<use xlink:href="#surface26" mask="url(#mask7)"/>
<path style=" stroke:none;fill-rule:evenodd;fill:rgb(41.176471%,35.686275%,39.215686%);fill-opacity:1;" d="M 9.300781 53.75 C 10.53125 53.261719 11.871094 53.097656 13.324219 53.25 C 13.480469 55.515625 13.316406 57.683594 12.820312 59.75 C 12.820312 57.75 12.820312 55.75 12.820312 53.75 C 11.648438 53.75 10.472656 53.75 9.300781 53.75 Z M 9.300781 53.75 "/>
<path style=" stroke:none;fill-rule:evenodd;fill:rgb(66.27451%,58.431373%,61.568627%);fill-opacity:1;" d="M 9.300781 53.75 C 10.472656 53.75 11.648438 53.75 12.820312 53.75 C 12.820312 55.75 12.820312 57.75 12.820312 59.75 C 12.191406 60.964844 11.4375 62.132812 10.558594 63.25 C 9.136719 60.125 8.71875 56.960938 9.300781 53.75 Z M 9.300781 53.75 "/>
<path style=" stroke:none;fill-rule:evenodd;fill:rgb(14.117647%,11.372549%,12.156863%);fill-opacity:1;" d="M 19.859375 68.25 C 19.867188 69.28125 20.035156 70.28125 20.359375 71.25 C 15.636719 70.691406 12.535156 72.691406 11.058594 77.25 C 10.558594 79.726562 10.222656 82.226562 10.054688 84.75 C 9.433594 82.96875 9.179688 81.136719 9.300781 79.25 C 9.8125 77.066406 10.734375 75.066406 12.066406 73.25 C 13.988281 71.835938 15.746094 70.253906 17.34375 68.5 C 18.222656 67.773438 19.058594 67.691406 19.859375 68.25 Z M 19.859375 68.25 "/>
<path style=" stroke:none;fill-rule:evenodd;fill:rgb(85.882353%,80%,79.215686%);fill-opacity:1;" d="M 20.359375 71.25 C 21.113281 74.234375 22.035156 77.234375 23.125 80.25 C 24.183594 82.863281 25.609375 85.199219 27.398438 87.25 C 28.671875 89.453125 29.679688 91.785156 30.414062 94.25 C 30.503906 95.484375 30 96.316406 28.90625 96.75 C 25.707031 96.796875 22.523438 96.628906 19.355469 96.25 C 17.605469 95.628906 16.097656 94.628906 14.832031 93.25 C 16.785156 94.039062 18.796875 94.457031 20.863281 94.5 C 22.683594 93.417969 23.273438 91.835938 22.621094 89.75 C 20.664062 88.046875 18.402344 87.460938 15.835938 88 C 15.25 88.25 14.832031 88.667969 14.578125 89.25 C 14.464844 90.394531 14.382812 91.394531 14.328125 92.25 C 13.847656 92.023438 13.425781 91.691406 13.070312 91.25 C 12.136719 89.289062 11.296875 87.289062 10.558594 85.25 C 9.792969 86.523438 9.039062 86.523438 8.296875 85.25 C 8.628906 83.25 8.964844 81.25 9.300781 79.25 C 9.179688 81.136719 9.433594 82.96875 10.054688 84.75 C 10.222656 82.226562 10.558594 79.726562 11.058594 77.25 C 12.535156 72.691406 15.636719 70.691406 20.359375 71.25 Z M 20.359375 71.25 "/>
<path style=" stroke:none;fill-rule:evenodd;fill:rgb(93.333333%,67.843137%,75.294118%);fill-opacity:1;" d="M 68.121094 56.75 C 68.621094 56.707031 69.039062 56.875 69.378906 57.25 C 69.351562 58.835938 69.769531 60.171875 70.632812 61.25 C 70.636719 62.773438 70.804688 64.273438 71.136719 65.75 C 71.167969 65.96875 71.085938 66.136719 70.886719 66.25 C 70.382812 64.984375 69.964844 64.984375 69.628906 66.25 C 70.234375 68.550781 71.074219 70.71875 72.140625 72.75 C 71.871094 74.105469 71.535156 75.4375 71.136719 76.75 C 71.199219 77.054688 71.367188 77.21875 71.640625 77.25 C 70.378906 78.460938 68.871094 79.296875 67.113281 79.75 C 68.414062 78.367188 69.671875 76.867188 70.886719 75.25 C 71.292969 74.210938 71.207031 73.210938 70.632812 72.25 C 65.851562 76.53125 60.238281 78.695312 53.792969 78.75 C 52.15625 78.742188 50.734375 78.40625 49.519531 77.75 C 49.800781 77.105469 50.300781 76.6875 51.027344 76.5 C 54.058594 76.347656 57.078125 76.097656 60.078125 75.75 C 61.261719 75.832031 62.433594 75.75 63.59375 75.5 C 67.59375 72.324219 68.933594 68.242188 67.617188 63.25 C 68.117188 63.292969 68.535156 63.125 68.875 62.75 C 69.378906 60.597656 69.128906 58.597656 68.121094 56.75 Z M 68.121094 56.75 "/>
<path style=" stroke:none;fill-rule:evenodd;fill:rgb(86.666667%,58.823529%,68.235294%);fill-opacity:1;" d="M 71.136719 65.75 C 72.042969 66.117188 72.882812 66.617188 73.648438 67.25 C 76.179688 71.351562 75.507812 74.6875 71.640625 77.25 C 71.367188 77.21875 71.199219 77.054688 71.136719 76.75 C 71.535156 75.4375 71.871094 74.105469 72.140625 72.75 C 71.074219 70.71875 70.234375 68.550781 69.628906 66.25 C 69.964844 64.984375 70.382812 64.984375 70.886719 66.25 C 71.085938 66.136719 71.167969 65.96875 71.136719 65.75 Z M 71.136719 65.75 "/>
<path style=" stroke:none;fill-rule:evenodd;fill:rgb(61.176471%,46.666667%,55.686275%);fill-opacity:1;" d="M 21.367188 65.25 C 22.230469 68.496094 23.40625 71.664062 24.886719 74.75 C 25.929688 78.53125 27.269531 82.199219 28.90625 85.75 C 28.308594 85.476562 27.722656 85.308594 27.148438 85.25 C 27.050781 85.910156 27.132812 86.578125 27.398438 87.25 C 25.609375 85.199219 24.183594 82.863281 23.125 80.25 C 22.035156 77.234375 21.113281 74.234375 20.359375 71.25 C 20.035156 70.28125 19.867188 69.28125 19.859375 68.25 C 20.617188 67.410156 21.117188 66.410156 21.367188 65.25 Z M 21.367188 65.25 "/>
<path style=" stroke:none;fill-rule:evenodd;fill:rgb(97.647059%,88.235294%,81.176471%);fill-opacity:1;" d="M 46.503906 78.25 C 47.054688 78.699219 47.054688 79.113281 46.503906 79.5 C 43.78125 79.609375 41.097656 79.859375 38.460938 80.25 C 34.8125 79.6875 31.628906 78.1875 28.90625 75.75 C 26.164062 72.964844 24.488281 69.628906 23.878906 65.75 C 24.433594 65.199219 25.105469 65.117188 25.890625 65.5 C 30.035156 74.0625 36.90625 78.3125 46.503906 78.25 Z M 46.503906 78.25 "/>
<path style=" stroke:none;fill-rule:evenodd;fill:rgb(95.294118%,85.490196%,84.313725%);fill-opacity:1;" d="M 67.113281 79.75 C 66.207031 80.011719 65.371094 80.34375 64.601562 80.75 C 56.398438 81.296875 48.1875 81.378906 39.96875 81 C 39.34375 80.882812 38.84375 80.632812 38.460938 80.25 C 41.097656 79.859375 43.78125 79.609375 46.503906 79.5 C 47.054688 79.113281 47.054688 78.699219 46.503906 78.25 C 47.003906 78.25 47.507812 78.25 48.011719 78.25 C 48.457031 77.945312 48.960938 77.777344 49.519531 77.75 C 50.734375 78.40625 52.15625 78.742188 53.792969 78.75 C 60.238281 78.695312 65.851562 76.53125 70.632812 72.25 C 71.207031 73.210938 71.292969 74.210938 70.886719 75.25 C 69.671875 76.867188 68.414062 78.367188 67.113281 79.75 Z M 67.113281 79.75 "/>
<use xlink:href="#surface29" mask="url(#mask8)"/>
<path style=" stroke:none;fill-rule:evenodd;fill:rgb(73.333333%,64.313725%,63.137255%);fill-opacity:1;" d="M 7.792969 69.75 C 6.335938 73.160156 4.996094 76.660156 3.769531 80.25 C 3.511719 76.246094 4.851562 72.746094 7.792969 69.75 Z M 7.792969 69.75 "/>
<path style=" stroke:none;fill-rule:evenodd;fill:rgb(84.705882%,50.196078%,65.490196%);fill-opacity:1;" d="M 66.109375 86.75 C 64.558594 86.007812 63.050781 86.089844 61.585938 87 C 58.875 87.347656 56.191406 87.179688 53.539062 86.5 C 52.414062 85.796875 51.574219 84.878906 51.027344 83.75 C 54.617188 83.695312 58.304688 83.609375 62.085938 83.5 C 63.777344 83.113281 65.453125 82.699219 67.113281 82.25 C 67.566406 83.871094 67.234375 85.371094 66.109375 86.75 Z M 66.109375 86.75 "/>
<path style=" stroke:none;fill-rule:evenodd;fill:rgb(19.607843%,17.647059%,24.705882%);fill-opacity:1;" d="M 24.886719 74.75 C 25.925781 75.148438 26.765625 75.816406 27.398438 76.75 C 30.832031 80.292969 35.019531 82.542969 39.96875 83.5 C 41.65625 86.011719 43.667969 88.179688 46 90 C 45.359375 91.140625 44.519531 92.140625 43.488281 93 C 40.484375 94.632812 37.300781 95.71875 33.933594 96.25 C 34.441406 95.300781 34.527344 94.300781 34.1875 93.25 C 32.664062 90.542969 30.902344 88.042969 28.90625 85.75 C 27.269531 82.199219 25.929688 78.53125 24.886719 74.75 Z M 24.886719 74.75 "/>
<path style=" stroke:none;fill-rule:evenodd;fill:rgb(90.196078%,76.470588%,78.431373%);fill-opacity:1;" d="M 51.027344 83.75 C 51.574219 84.878906 52.414062 85.796875 53.539062 86.5 C 56.191406 87.179688 58.875 87.347656 61.585938 87 C 63.050781 86.089844 64.558594 86.007812 66.109375 86.75 C 66.109375 86.917969 66.109375 87.082031 66.109375 87.25 C 64.984375 88.445312 63.644531 89.363281 62.085938 90 C 56.289062 91.867188 52.601562 89.953125 51.027344 84.25 C 51.027344 84.082031 51.027344 83.917969 51.027344 83.75 Z M 51.027344 83.75 "/>
<path style=" stroke:none;fill-rule:evenodd;fill:rgb(96.862745%,90.980392%,85.490196%);fill-opacity:1;" d="M 14.832031 93.25 C 14.664062 92.917969 14.496094 92.582031 14.328125 92.25 C 14.382812 91.394531 14.464844 90.394531 14.578125 89.25 C 14.832031 88.667969 15.25 88.25 15.835938 88 C 18.402344 87.460938 20.664062 88.046875 22.621094 89.75 C 23.273438 91.835938 22.683594 93.417969 20.863281 94.5 C 18.796875 94.457031 16.785156 94.039062 14.832031 93.25 Z M 14.832031 93.25 "/>
<path style=" stroke:none;fill-rule:evenodd;fill:rgb(62.352941%,34.901961%,46.27451%);fill-opacity:1;" d="M 28.90625 85.75 C 30.902344 88.042969 32.664062 90.542969 34.1875 93.25 C 34.527344 94.300781 34.441406 95.300781 33.933594 96.25 C 32.257812 96.417969 30.582031 96.582031 28.90625 96.75 C 30 96.316406 30.503906 95.484375 30.414062 94.25 C 29.679688 91.785156 28.671875 89.453125 27.398438 87.25 C 27.132812 86.578125 27.050781 85.910156 27.148438 85.25 C 27.722656 85.308594 28.308594 85.476562 28.90625 85.75 Z M 28.90625 85.75 "/>
<use xlink:href="#surface32" mask="url(#mask9)"/>
</g>
</svg>
