<?xml version="1.0" encoding="UTF-8"?>
<svg xmlns="http://www.w3.org/2000/svg" xmlns:xlink="http://www.w3.org/1999/xlink" width="px" height="px" viewBox="0 0 100 91" version="1.1">
<defs>
<filter id="alpha" filterUnits="objectBoundingBox" x="0%" y="0%" width="100%" height="100%">
  <feColorMatrix type="matrix" in="SourceGraphic" values="0 0 0 0 1 0 0 0 0 1 0 0 0 0 1 0 0 0 1 0"/>
</filter>
<mask id="mask0">
  <g filter="url(#alpha)">
<rect x="0" y="0" width="100" height="91" style="fill:rgb(0%,0%,0%);fill-opacity:0.992157;stroke:none;"/>
  </g>
</mask>
<clipPath id="clip1">
  <rect x="0" y="0" width="100" height="92"/>
</clipPath>
<g id="surface5" clip-path="url(#clip1)">
<path style=" stroke:none;fill-rule:evenodd;fill:rgb(3.529412%,2.352941%,2.745098%);fill-opacity:1;" d="M 87.75 69.632812 C 86.050781 69.710938 84.382812 69.542969 82.75 69.128906 C 81.441406 67.945312 81.777344 67.273438 83.75 67.117188 C 87.589844 67.875 89.925781 66.363281 90.75 62.59375 C 90.867188 61.808594 91.199219 61.136719 91.75 60.582031 C 92.671875 59.8125 93.171875 58.808594 93.25 57.566406 C 91.082031 57.15625 89.917969 57.996094 89.75 60.082031 C 89.011719 59.601562 88.511719 58.933594 88.25 58.070312 C 87.539062 57.589844 86.707031 57.421875 85.75 57.566406 C 85.359375 57.238281 85.027344 56.816406 84.75 56.308594 C 84.917969 55.792969 85.25 55.539062 85.75 55.554688 C 86.917969 55.554688 88.082031 55.554688 89.25 55.554688 C 89.695312 55.25 90.195312 55.082031 90.75 55.050781 C 92.464844 55.25 94.046875 54.914062 95.5 54.046875 C 95.832031 53.042969 95.832031 52.035156 95.5 51.03125 C 94.996094 50.609375 94.410156 50.441406 93.75 50.527344 C 92.683594 50.117188 91.519531 49.867188 90.25 49.773438 C 89.832031 49.265625 89.664062 48.679688 89.75 48.015625 C 89.75 46.503906 89.75 44.996094 89.75 43.488281 C 89.539062 42.34375 89.871094 41.503906 90.75 40.976562 C 92.257812 41.058594 93.757812 40.972656 95.25 40.722656 C 96.6875 39.191406 96.519531 37.847656 94.75 36.703125 C 93.367188 35.960938 92.035156 35.875 90.75 36.449219 C 90.390625 36.242188 90.140625 35.90625 90 35.445312 C 89.859375 35.90625 89.609375 36.242188 89.25 36.449219 C 88.082031 35.78125 86.917969 35.78125 85.75 36.449219 C 85.222656 38.539062 84.808594 40.714844 84.5 42.984375 C 84.414062 40.378906 84.164062 37.867188 83.75 35.445312 C 83.789062 34.050781 83.539062 32.710938 83 31.421875 C 81.773438 30.445312 80.855469 29.273438 80.25 27.902344 C 80.300781 25.765625 80.636719 23.671875 81.25 21.617188 C 80.183594 16.132812 76.851562 13.367188 71.25 13.324219 C 68.730469 13.066406 66.230469 12.476562 63.75 11.5625 C 66.71875 11.179688 69.636719 11.429688 72.5 12.316406 C 73.921875 12.066406 74.339844 11.398438 73.75 10.304688 C 72.847656 5.730469 70.015625 3.386719 65.25 3.269531 C 63.652344 3.242188 62.152344 3.578125 60.75 4.273438 C 60.222656 4.347656 59.722656 4.265625 59.25 4.023438 C 59.867188 3.675781 59.867188 3.421875 59.25 3.269531 C 62.992188 0.21875 66.992188 -0.0351562 71.25 2.515625 C 74.832031 4.769531 76.496094 8.039062 76.25 12.316406 C 80.488281 13.785156 82.820312 16.800781 83.25 21.367188 C 86.304688 20.820312 88.890625 21.65625 91 23.882812 C 94.027344 28.542969 96.441406 33.488281 98.25 38.710938 C 98.148438 39.921875 97.648438 40.929688 96.75 41.730469 C 98.582031 44.175781 98.75 46.773438 97.25 49.523438 C 98.109375 50.734375 98.359375 52.078125 98 53.542969 C 95.847656 57.871094 93.683594 62.226562 91.5 66.617188 C 90.441406 67.933594 89.191406 68.9375 87.75 69.632812 Z M 87.75 69.632812 "/>
</g>
<mask id="mask1">
  <g filter="url(#alpha)">
<rect x="0" y="0" width="100" height="91" style="fill:rgb(0%,0%,0%);fill-opacity:0.996078;stroke:none;"/>
  </g>
</mask>
<clipPath id="clip2">
  <rect x="0" y="0" width="100" height="92"/>
</clipPath>
<g id="surface8" clip-path="url(#clip2)">
<path style=" stroke:none;fill-rule:evenodd;fill:rgb(5.882353%,3.921569%,3.529412%);fill-opacity:1;" d="M 59.25 3.269531 C 59.867188 3.421875 59.867188 3.675781 59.25 4.023438 C 59.722656 4.265625 60.222656 4.347656 60.75 4.273438 C 60.25 4.945312 59.75 5.613281 59.25 6.285156 C 58.6875 6.597656 58.1875 7.015625 57.75 7.542969 C 58.867188 8.691406 60.199219 9.445312 61.75 9.804688 C 61.960938 10.167969 62.292969 10.417969 62.75 10.558594 C 65.410156 10.808594 68.078125 10.894531 70.75 10.808594 C 71.136719 11.132812 71.636719 11.300781 72.25 11.3125 C 73.015625 11.242188 73.515625 10.90625 73.75 10.304688 C 74.339844 11.398438 73.921875 12.066406 72.5 12.316406 C 69.636719 11.429688 66.71875 11.179688 63.75 11.5625 C 66.230469 12.476562 68.730469 13.066406 71.25 13.324219 C 69.574219 13.242188 67.910156 13.324219 66.25 13.574219 C 67.710938 14.789062 68.878906 16.214844 69.75 17.847656 C 68.820312 17.5625 67.988281 17.5625 67.25 17.847656 C 59.515625 14.902344 51.515625 13.648438 43.25 14.078125 C 43.699219 14.90625 44.199219 15.660156 44.75 16.339844 C 44.832031 17.523438 44.75 18.699219 44.5 19.859375 C 44.398438 20.773438 43.984375 21.445312 43.25 21.871094 C 41.605469 21.210938 39.9375 20.542969 38.25 19.859375 C 37.121094 19.28125 36.207031 18.445312 35.5 17.34375 C 34.957031 17.964844 34.539062 18.636719 34.25 19.355469 C 34.082031 19.355469 33.917969 19.355469 33.75 19.355469 C 27.003906 14.53125 20.003906 14.195312 12.75 18.351562 C 12.855469 17.402344 13.355469 16.734375 14.25 16.339844 C 13.988281 15.992188 13.652344 15.742188 13.25 15.585938 C 13.363281 15.386719 13.53125 15.300781 13.75 15.335938 C 18.082031 13.398438 22.582031 12.894531 27.25 13.824219 C 32.691406 15.066406 37.773438 17.246094 42.5 20.363281 C 42.980469 17.121094 41.898438 14.523438 39.25 12.570312 C 47.492188 11.058594 55.578125 11.8125 63.5 14.832031 C 63.75 14.746094 64 14.664062 64.25 14.582031 C 59.285156 10.539062 53.621094 8.109375 47.25 7.289062 C 38.375 5.789062 29.875 6.964844 21.75 10.808594 C 21.152344 10.636719 21.152344 10.382812 21.75 10.054688 C 29.097656 5.359375 37.097656 3.683594 45.75 5.027344 C 47.9375 5.457031 50.105469 5.789062 52.25 6.03125 C 45.464844 3.339844 38.464844 2.585938 31.25 3.769531 C 31.316406 3.398438 31.230469 3.0625 31 2.765625 C 29.628906 2.652344 28.210938 2.820312 26.75 3.269531 C 28.472656 2.527344 30.308594 1.941406 32.25 1.507812 C 40.820312 0.351562 48.902344 1.773438 56.5 5.78125 C 57.351562 4.839844 58.269531 4 59.25 3.269531 Z M 59.25 3.269531 "/>
</g>
<mask id="mask2">
  <g filter="url(#alpha)">
<rect x="0" y="0" width="100" height="91" style="fill:rgb(0%,0%,0%);fill-opacity:0.976471;stroke:none;"/>
  </g>
</mask>
<clipPath id="clip3">
  <rect x="0" y="0" width="100" height="92"/>
</clipPath>
<g id="surface11" clip-path="url(#clip3)">
<path style=" stroke:none;fill-rule:evenodd;fill:rgb(4.705882%,4.705882%,5.490196%);fill-opacity:1;" d="M 31.25 3.769531 C 27.601562 4.914062 24.101562 6.507812 20.75 8.546875 C 17.835938 10.222656 15.5 12.484375 13.75 15.335938 C 13.53125 15.300781 13.363281 15.386719 13.25 15.585938 C 13.652344 15.742188 13.988281 15.992188 14.25 16.339844 C 13.355469 16.734375 12.855469 17.402344 12.75 18.351562 C 12.417969 18.351562 12.25 18.519531 12.25 18.855469 C 7.171875 22.34375 4.089844 27.207031 3 33.433594 C 2.25 39.300781 3.5 44.664062 6.75 49.523438 C 5.929688 49.53125 5.261719 49.195312 4.75 48.515625 C 4.125 49.273438 4.125 50.027344 4.75 50.777344 C 4.453125 51.011719 4.121094 51.097656 3.75 51.03125 C 2.792969 47.71875 1.875 44.367188 1 40.976562 C -0.132812 34.640625 1.035156 28.773438 4.5 23.378906 C 6.023438 21.597656 7.441406 19.753906 8.75 17.847656 C 9.839844 15.488281 11.257812 13.308594 13 11.3125 C 13.878906 10.171875 14.960938 9.335938 16.25 8.796875 C 19.375 6.304688 22.875 4.460938 26.75 3.269531 C 28.210938 2.820312 29.628906 2.652344 31 2.765625 C 31.230469 3.0625 31.316406 3.398438 31.25 3.769531 Z M 31.25 3.769531 "/>
</g>
<mask id="mask3">
  <g filter="url(#alpha)">
<rect x="0" y="0" width="100" height="91" style="fill:rgb(0%,0%,0%);fill-opacity:0.0980392;stroke:none;"/>
  </g>
</mask>
<clipPath id="clip4">
  <rect x="0" y="0" width="100" height="92"/>
</clipPath>
<g id="surface14" clip-path="url(#clip4)">
<path style=" stroke:none;fill-rule:evenodd;fill:rgb(16.862746%,21.960784%,26.666668%);fill-opacity:1;" d="M 63.25 -0.25 C 64.917969 -0.25 66.582031 -0.25 68.25 -0.25 C 73.714844 1.644531 76.964844 5.5 78 11.3125 C 81.136719 13.34375 83.386719 16.109375 84.75 19.609375 C 87.625 20.003906 90.042969 21.261719 92 23.378906 C 94.988281 27.546875 97.320312 32.070312 99 36.953125 C 99.503906 38.710938 99.253906 40.300781 98.25 41.730469 C 98.816406 42.304688 99.316406 42.890625 99.75 43.488281 C 99.75 44.660156 99.75 45.835938 99.75 47.007812 C 99.234375 47.71875 98.902344 48.554688 98.75 49.523438 C 99.234375 51.011719 99.320312 52.519531 99 54.046875 C 97.074219 57.671875 95.242188 61.359375 93.5 65.109375 C 92.199219 67.515625 90.285156 69.023438 87.75 69.632812 C 89.191406 68.9375 90.441406 67.933594 91.5 66.617188 C 93.683594 62.226562 95.847656 57.871094 98 53.542969 C 98.359375 52.078125 98.109375 50.734375 97.25 49.523438 C 98.75 46.773438 98.582031 44.175781 96.75 41.730469 C 97.648438 40.929688 98.148438 39.921875 98.25 38.710938 C 96.441406 33.488281 94.027344 28.542969 91 23.882812 C 88.890625 21.65625 86.304688 20.820312 83.25 21.367188 C 82.820312 16.800781 80.488281 13.785156 76.25 12.316406 C 76.496094 8.039062 74.832031 4.769531 71.25 2.515625 C 66.992188 -0.0351562 62.992188 0.21875 59.25 3.269531 C 58.269531 4 57.351562 4.839844 56.5 5.78125 C 48.902344 1.773438 40.820312 0.351562 32.25 1.507812 C 30.308594 1.941406 28.472656 2.527344 26.75 3.269531 C 22.875 4.460938 19.375 6.304688 16.25 8.796875 C 17.21875 7.210938 18.550781 5.953125 20.25 5.027344 C 24.382812 2.949219 28.546875 1.359375 32.75 0.25 C 36.480469 0.28125 40.398438 0.28125 44.5 0.25 C 48.441406 1.285156 52.273438 2.625 56 4.273438 C 58.230469 2.445312 60.648438 0.9375 63.25 -0.25 Z M 63.25 -0.25 "/>
</g>
<mask id="mask4">
  <g filter="url(#alpha)">
<rect x="0" y="0" width="100" height="91" style="fill:rgb(0%,0%,0%);fill-opacity:0.0862745;stroke:none;"/>
  </g>
</mask>
<clipPath id="clip5">
  <rect x="0" y="0" width="100" height="92"/>
</clipPath>
<g id="surface17" clip-path="url(#clip5)">
<path style=" stroke:none;fill-rule:evenodd;fill:rgb(14.509805%,21.960784%,26.666668%);fill-opacity:1;" d="M 8.75 17.847656 C 7.441406 19.753906 6.023438 21.597656 4.5 23.378906 C 1.035156 28.773438 -0.132812 34.640625 1 40.976562 C 1.875 44.367188 2.792969 47.71875 3.75 51.03125 C 3.75 51.367188 3.582031 51.53125 3.25 51.53125 C 2.671875 50.992188 2.671875 50.40625 3.25 49.773438 C 1.53125 46.847656 0.363281 43.75 -0.25 40.472656 C -0.25 40.304688 -0.25 40.136719 -0.25 39.96875 C 0.417969 39.800781 0.417969 39.632812 -0.25 39.46875 C -0.25 38.964844 -0.25 38.460938 -0.25 37.957031 C 0.417969 37.625 0.417969 37.289062 -0.25 36.953125 C -0.25 36.785156 -0.25 36.617188 -0.25 36.449219 C 0.417969 36.28125 0.417969 36.113281 -0.25 35.949219 C -0.25 35.277344 -0.25 34.605469 -0.25 33.9375 C 0.601562 29.695312 2.1875 25.671875 4.5 21.871094 C 5.875 20.402344 7.292969 19.0625 8.75 17.847656 Z M 8.75 17.847656 "/>
</g>
<mask id="mask5">
  <g filter="url(#alpha)">
<rect x="0" y="0" width="100" height="91" style="fill:rgb(0%,0%,0%);fill-opacity:0.972549;stroke:none;"/>
  </g>
</mask>
<clipPath id="clip6">
  <rect x="0" y="0" width="100" height="92"/>
</clipPath>
<g id="surface20" clip-path="url(#clip6)">
<path style=" stroke:none;fill-rule:evenodd;fill:rgb(6.27451%,3.529412%,3.921569%);fill-opacity:1;" d="M 24.25 38.460938 C 25.527344 46.460938 22.359375 51.65625 14.75 54.046875 C 12.292969 54.28125 9.960938 53.945312 7.75 53.042969 C 7.417969 53.207031 7.082031 53.375 6.75 53.542969 C 8.355469 54.9375 10.1875 55.945312 12.25 56.5625 C 12.25 56.726562 12.25 56.894531 12.25 57.0625 C 12.457031 57.425781 12.792969 57.679688 13.25 57.816406 C 12.632812 57.933594 12.132812 58.1875 11.75 58.570312 C 11.25 58.570312 10.75 58.570312 10.25 58.570312 C 9.066406 57.925781 7.984375 57.089844 7 56.058594 C 6.769531 56.355469 6.683594 56.691406 6.75 57.0625 C 6.890625 58.027344 6.726562 58.863281 6.25 59.578125 C 6.136719 58.328125 5.800781 58.078125 5.25 58.824219 C 8.011719 68.554688 14.429688 73.832031 24.5 74.660156 C 31.28125 74.871094 35.949219 71.851562 38.5 65.609375 C 38.875 63.890625 38.789062 62.214844 38.25 60.582031 C 38.75 60.582031 39.25 60.582031 39.75 60.582031 C 40.011719 62.585938 40.175781 64.59375 40.25 66.617188 C 40.144531 68.113281 39.644531 69.453125 38.75 70.636719 C 39.003906 71.351562 39.503906 71.6875 40.25 71.644531 C 40.25 71.8125 40.25 71.980469 40.25 72.144531 C 39.421875 72.226562 38.757812 72.5625 38.25 73.152344 C 36.792969 73.96875 35.292969 74.636719 33.75 75.164062 C 32.605469 75.210938 31.605469 75.546875 30.75 76.167969 C 24.746094 77.480469 19.078125 76.644531 13.75 73.65625 C 13.582031 73.738281 13.417969 73.820312 13.25 73.90625 C 13.691406 74.261719 14.023438 74.679688 14.25 75.164062 C 13.75 75.5 13.25 75.832031 12.75 76.167969 C 11.773438 75.558594 11.023438 74.71875 10.5 73.65625 C 8.53125 69.835938 6.367188 66.148438 4 62.59375 C 3.332031 59.113281 3.082031 55.59375 3.25 52.035156 C 3.25 51.867188 3.25 51.699219 3.25 51.53125 C 3.582031 51.53125 3.75 51.367188 3.75 51.03125 C 4.121094 51.097656 4.453125 51.011719 4.75 50.777344 C 4.125 50.027344 4.125 49.273438 4.75 48.515625 C 5.261719 49.195312 5.929688 49.53125 6.75 49.523438 C 9.730469 52.160156 13.0625 52.664062 16.75 51.03125 C 19.488281 49.617188 21.324219 47.4375 22.25 44.496094 C 23.226562 42.578125 23.890625 40.570312 24.25 38.460938 Z M 24.25 38.460938 "/>
</g>
<mask id="mask6">
  <g filter="url(#alpha)">
<rect x="0" y="0" width="100" height="91" style="fill:rgb(0%,0%,0%);fill-opacity:0.972549;stroke:none;"/>
  </g>
</mask>
<clipPath id="clip7">
  <rect x="0" y="0" width="100" height="92"/>
</clipPath>
<g id="surface23" clip-path="url(#clip7)">
<path style=" stroke:none;fill-rule:evenodd;fill:rgb(6.666667%,5.098039%,4.705882%);fill-opacity:1;" d="M 83.75 35.445312 C 84.164062 37.867188 84.414062 40.378906 84.5 42.984375 C 84.808594 40.714844 85.222656 38.539062 85.75 36.449219 C 85.75 37.957031 85.75 39.46875 85.75 40.976562 C 86.917969 40.976562 88.082031 40.976562 89.25 40.976562 C 89.25 39.46875 89.25 37.957031 89.25 36.449219 C 89.609375 36.242188 89.859375 35.90625 90 35.445312 C 90.140625 35.90625 90.390625 36.242188 90.75 36.449219 C 90.75 37.957031 90.75 39.46875 90.75 40.976562 C 89.871094 41.503906 89.539062 42.34375 89.75 43.488281 C 88.609375 43.042969 87.441406 42.957031 86.25 43.238281 C 85.582031 44.914062 85.582031 46.589844 86.25 48.265625 C 87.464844 48.617188 88.632812 48.535156 89.75 48.015625 C 89.664062 48.679688 89.832031 49.265625 90.25 49.773438 C 91.519531 49.867188 92.683594 50.117188 93.75 50.527344 C 92.75 50.527344 91.75 50.527344 90.75 50.527344 C 90.75 52.035156 90.75 53.542969 90.75 55.050781 C 90.195312 55.082031 89.695312 55.25 89.25 55.554688 C 89.332031 54.039062 89.25 52.53125 89 51.03125 C 87.808594 50.558594 86.558594 50.394531 85.25 50.527344 C 85.125 52.257812 85.292969 53.933594 85.75 55.554688 C 85.25 55.539062 84.917969 55.792969 84.75 56.308594 C 85.027344 56.816406 85.359375 57.238281 85.75 57.566406 C 84.847656 58.277344 84.511719 59.285156 84.75 60.582031 C 85.761719 60.664062 86.761719 60.582031 87.75 60.332031 C 88.191406 59.648438 88.355469 58.894531 88.25 58.070312 C 88.511719 58.933594 89.011719 59.601562 89.75 60.082031 C 89.683594 60.519531 89.851562 60.855469 90.25 61.085938 C 90.707031 60.769531 91.207031 60.601562 91.75 60.582031 C 91.199219 61.136719 90.867188 61.808594 90.75 62.59375 C 87.925781 63.191406 85.089844 63.191406 82.25 62.59375 C 81.960938 64.429688 82.460938 65.941406 83.75 67.117188 C 81.777344 67.273438 81.441406 67.945312 82.75 69.128906 C 82.765625 73.628906 80.765625 76.816406 76.75 78.683594 C 76.378906 80.808594 75.710938 82.820312 74.75 84.714844 C 74.253906 84.757812 73.835938 84.589844 73.5 84.210938 C 72.933594 85.039062 72.183594 85.539062 71.25 85.722656 C 72.707031 84.046875 73.707031 82.121094 74.25 79.9375 C 73.09375 79.6875 71.929688 79.605469 70.75 79.6875 C 68.578125 79.605469 66.410156 79.6875 64.25 79.9375 C 63.136719 80.414062 62.136719 81 61.25 81.699219 C 59.816406 81.988281 58.980469 82.828125 58.75 84.210938 C 58.230469 83.191406 57.398438 82.519531 56.25 82.203125 C 59.582031 80.449219 62.582031 78.1875 65.25 75.414062 C 62.925781 76.570312 60.425781 77.492188 57.75 78.179688 C 56.226562 78.460938 54.726562 78.796875 53.25 79.183594 C 48.839844 79.449219 44.507812 79.03125 40.25 77.929688 C 40.722656 77.683594 41.222656 77.601562 41.75 77.675781 C 43.910156 77.375 45.742188 76.453125 47.25 74.910156 C 44.917969 74.746094 42.582031 74.578125 40.25 74.410156 C 39.339844 74.308594 38.671875 73.890625 38.25 73.152344 C 38.757812 72.5625 39.421875 72.226562 40.25 72.144531 C 43.25 72.816406 46.25 72.816406 49.25 72.144531 C 49.25 73.65625 49.25 75.164062 49.25 76.671875 C 51.351562 76.832031 53.351562 76.664062 55.25 76.167969 C 59.058594 75.757812 62.558594 74.5 65.75 72.398438 C 64.480469 72.304688 63.316406 72.054688 62.25 71.644531 C 63.757812 71.5625 65.257812 71.644531 66.75 71.894531 C 66.09375 72.597656 66.257812 73.097656 67.25 73.402344 C 65.453125 73.894531 65.617188 74.3125 67.75 74.660156 C 67.261719 75.320312 66.761719 75.992188 66.25 76.671875 C 69.070312 77.257812 71.902344 77.339844 74.75 76.921875 C 76.085938 76.585938 77.253906 76 78.25 75.164062 C 79.371094 74.082031 80.121094 72.742188 80.5 71.140625 C 80.699219 68.246094 80.53125 65.398438 80 62.59375 C 80.644531 61.441406 81.476562 60.4375 82.5 59.578125 C 83.535156 53.589844 83.953125 47.554688 83.75 41.476562 C 83.75 39.46875 83.75 37.457031 83.75 35.445312 Z M 83.75 35.445312 "/>
</g>
<mask id="mask7">
  <g filter="url(#alpha)">
<rect x="0" y="0" width="100" height="91" style="fill:rgb(0%,0%,0%);fill-opacity:0.0117647;stroke:none;"/>
  </g>
</mask>
<clipPath id="clip8">
  <rect x="0" y="0" width="100" height="92"/>
</clipPath>
<g id="surface26" clip-path="url(#clip8)">
<path style=" stroke:none;fill-rule:evenodd;fill:rgb(16.470589%,23.137255%,27.450982%);fill-opacity:1;" d="M 3.25 52.035156 C 3.082031 55.59375 3.332031 59.113281 4 62.59375 C 6.367188 66.148438 8.53125 69.835938 10.5 73.65625 C 11.023438 74.71875 11.773438 75.558594 12.75 76.167969 C 21.304688 87.582031 32.640625 91.855469 46.75 88.988281 C 50.199219 88.226562 53.449219 86.96875 56.5 85.21875 C 61.136719 90.304688 66.386719 91.058594 72.25 87.480469 C 73.1875 86.625 74.019531 85.703125 74.75 84.714844 C 75.710938 82.820312 76.378906 80.808594 76.75 78.683594 C 80.765625 76.816406 82.765625 73.628906 82.75 69.128906 C 84.382812 69.542969 86.050781 69.710938 87.75 69.632812 C 86.527344 70.121094 85.191406 70.289062 83.75 70.136719 C 83.226562 74.03125 81.3125 77.050781 78 79.183594 C 76.867188 85.179688 73.453125 89.035156 67.75 90.75 C 66.25 90.75 64.75 90.75 63.25 90.75 C 60.585938 89.871094 58.167969 88.527344 56 86.726562 C 52.042969 88.113281 48.125 89.457031 44.25 90.75 C 44.082031 90.75 43.917969 90.75 43.75 90.75 C 43.582031 90.078125 43.417969 90.078125 43.25 90.75 C 40.25 90.75 37.25 90.75 34.25 90.75 C 28.851562 89.691406 23.851562 87.597656 19.25 84.464844 C 11.574219 77.425781 5.910156 69.042969 2.25 59.324219 C 2.3125 56.890625 2.648438 54.457031 3.25 52.035156 Z M 3.25 52.035156 "/>
</g>
<mask id="mask8">
  <g filter="url(#alpha)">
<rect x="0" y="0" width="100" height="91" style="fill:rgb(0%,0%,0%);fill-opacity:0.992157;stroke:none;"/>
  </g>
</mask>
<clipPath id="clip9">
  <rect x="0" y="0" width="100" height="92"/>
</clipPath>
<g id="surface29" clip-path="url(#clip9)">
<path style=" stroke:none;fill-rule:evenodd;fill:rgb(3.529412%,3.921569%,4.313726%);fill-opacity:1;" d="M 14.25 75.164062 C 19.351562 82.128906 26.183594 86.152344 34.75 87.230469 C 40.695312 88.023438 46.53125 87.269531 52.25 84.96875 C 48.308594 85.628906 44.308594 86.046875 40.25 86.222656 C 39.917969 86.222656 39.582031 86.222656 39.25 86.222656 C 39.632812 85.835938 40.132812 85.585938 40.75 85.46875 C 40.582031 85.300781 40.417969 85.132812 40.25 84.96875 C 41.683594 84.875 43.015625 84.625 44.25 84.210938 C 48.335938 84.015625 52.335938 83.347656 56.25 82.203125 C 57.398438 82.519531 58.230469 83.191406 58.75 84.210938 C 62.5 87.632812 66.664062 88.136719 71.25 85.722656 C 72.183594 85.539062 72.933594 85.039062 73.5 84.210938 C 73.835938 84.589844 74.253906 84.757812 74.75 84.714844 C 74.019531 85.703125 73.1875 86.625 72.25 87.480469 C 66.386719 91.058594 61.136719 90.304688 56.5 85.21875 C 53.449219 86.96875 50.199219 88.226562 46.75 88.988281 C 32.640625 91.855469 21.304688 87.582031 12.75 76.167969 C 13.25 75.832031 13.75 75.5 14.25 75.164062 Z M 14.25 75.164062 "/>
</g>
</defs>
<g id="surface1">
<use xlink:href="#surface5" mask="url(#mask0)"/>
<use xlink:href="#surface8" mask="url(#mask1)"/>
<path style=" stroke:none;fill-rule:evenodd;fill:rgb(94.509804%,67.450982%,46.27451%);fill-opacity:1;" d="M 73.75 10.304688 C 73.515625 10.90625 73.015625 11.242188 72.25 11.3125 C 71.636719 11.300781 71.136719 11.132812 70.75 10.808594 C 69.210938 7.34375 66.625 6.335938 63 7.792969 C 62.082031 7.785156 61.332031 7.449219 60.75 6.789062 C 60.394531 6.332031 59.894531 6.164062 59.25 6.285156 C 59.75 5.613281 60.25 4.945312 60.75 4.273438 C 62.152344 3.578125 63.652344 3.242188 65.25 3.269531 C 70.015625 3.386719 72.847656 5.730469 73.75 10.304688 Z M 73.75 10.304688 "/>
<path style=" stroke:none;fill-rule:evenodd;fill:rgb(74.901962%,41.960785%,27.450982%);fill-opacity:1;" d="M 59.25 6.285156 C 59.894531 6.164062 60.394531 6.332031 60.75 6.789062 C 60.53125 6.753906 60.363281 6.839844 60.25 7.039062 C 61.007812 7.71875 61.675781 8.472656 62.25 9.300781 C 62.1875 9.605469 62.023438 9.773438 61.75 9.804688 C 60.199219 9.445312 58.867188 8.691406 57.75 7.542969 C 58.1875 7.015625 58.6875 6.597656 59.25 6.285156 Z M 59.25 6.285156 "/>
<path style=" stroke:none;fill-rule:evenodd;fill:rgb(42.745098%,23.529412%,18.82353%);fill-opacity:1;" d="M 60.75 6.789062 C 61.332031 7.449219 62.082031 7.785156 63 7.792969 C 66.625 6.335938 69.210938 7.34375 70.75 10.808594 C 68.078125 10.894531 65.410156 10.808594 62.75 10.558594 C 62.292969 10.417969 61.960938 10.167969 61.75 9.804688 C 62.023438 9.773438 62.1875 9.605469 62.25 9.300781 C 61.675781 8.472656 61.007812 7.71875 60.25 7.039062 C 60.363281 6.839844 60.53125 6.753906 60.75 6.789062 Z M 60.75 6.789062 "/>
<path style=" stroke:none;fill-rule:evenodd;fill:rgb(90.980393%,85.490197%,79.607844%);fill-opacity:1;" d="M 47.25 7.289062 C 43.488281 7.890625 39.65625 8.476562 35.75 9.050781 C 34.75 9.386719 33.75 9.71875 32.75 10.054688 C 30.886719 11.320312 29.054688 12.578125 27.25 13.824219 C 22.582031 12.894531 18.082031 13.398438 13.75 15.335938 C 15.5 12.484375 17.835938 10.222656 20.75 8.546875 C 24.101562 6.507812 27.601562 4.914062 31.25 3.769531 C 38.464844 2.585938 45.464844 3.339844 52.25 6.03125 C 50.105469 5.789062 47.9375 5.457031 45.75 5.027344 C 37.097656 3.683594 29.097656 5.359375 21.75 10.054688 C 21.152344 10.382812 21.152344 10.636719 21.75 10.808594 C 29.875 6.964844 38.375 5.789062 47.25 7.289062 Z M 47.25 7.289062 "/>
<path style=" stroke:none;fill-rule:evenodd;fill:rgb(76.078433%,67.058825%,60.000002%);fill-opacity:1;" d="M 47.25 7.289062 C 53.621094 8.109375 59.285156 10.539062 64.25 14.582031 C 64 14.664062 63.75 14.746094 63.5 14.832031 C 55.578125 11.8125 47.492188 11.058594 39.25 12.570312 C 41.898438 14.523438 42.980469 17.121094 42.5 20.363281 C 37.773438 17.246094 32.691406 15.066406 27.25 13.824219 C 29.054688 12.578125 30.886719 11.320312 32.75 10.054688 C 33.75 9.71875 34.75 9.386719 35.75 9.050781 C 39.65625 8.476562 43.488281 7.890625 47.25 7.289062 Z M 47.25 7.289062 "/>
<use xlink:href="#surface11" mask="url(#mask2)"/>
<path style=" stroke:none;fill-rule:evenodd;fill:rgb(72.549021%,62.352943%,52.549022%);fill-opacity:1;" d="M 67.25 17.847656 C 67.730469 18.28125 67.730469 18.617188 67.25 18.855469 C 65.503906 18.050781 63.671875 17.71875 61.75 17.847656 C 59.671875 16.984375 57.503906 16.3125 55.25 15.835938 C 52.082031 15.835938 48.917969 15.835938 45.75 15.835938 C 45.828125 16.527344 45.746094 17.199219 45.5 17.847656 C 45.457031 16.839844 45.207031 16.335938 44.75 16.339844 C 44.199219 15.660156 43.699219 14.90625 43.25 14.078125 C 51.515625 13.648438 59.515625 14.902344 67.25 17.847656 Z M 67.25 17.847656 "/>
<use xlink:href="#surface14" mask="url(#mask3)"/>
<path style=" stroke:none;fill-rule:evenodd;fill:rgb(1.176471%,0.784314%,0.392157%);fill-opacity:1;" d="M 69.75 17.847656 C 72.765625 21.980469 73.515625 26.507812 72 31.421875 C 71.152344 32.859375 70.070312 34.03125 68.75 34.941406 C 63.359375 37.183594 59.109375 35.84375 56 30.917969 C 53.976562 24.765625 55.894531 20.410156 61.75 17.847656 C 63.671875 17.71875 65.503906 18.050781 67.25 18.855469 C 67.730469 18.617188 67.730469 18.28125 67.25 17.847656 C 67.988281 17.5625 68.820312 17.5625 69.75 17.847656 Z M 69.75 17.847656 "/>
<path style=" stroke:none;fill-rule:evenodd;fill:rgb(95.294118%,89.803922%,81.960785%);fill-opacity:1;" d="M 33.75 19.355469 C 32.199219 19.53125 30.78125 19.195312 29.5 18.351562 C 29.359375 18.8125 29.109375 19.144531 28.75 19.355469 C 25.480469 18.414062 22.148438 18.164062 18.75 18.601562 C 26.1875 19.304688 31.6875 22.910156 35.25 29.410156 C 34.894531 30.539062 34.644531 31.714844 34.5 32.929688 C 33.8125 31.664062 33.0625 30.828125 32.25 30.417969 C 30.851562 29.261719 29.519531 28.007812 28.25 26.644531 C 27.628906 26.25 26.960938 25.996094 26.25 25.890625 C 24.855469 25.089844 23.355469 24.585938 21.75 24.382812 C 20.867188 23.902344 19.867188 23.734375 18.75 23.882812 C 16.132812 23.265625 13.46875 23.015625 10.75 23.128906 C 10.519531 22.917969 10.355469 22.667969 10.25 22.371094 C 10.976562 21.695312 11.308594 20.855469 11.25 19.859375 C 12.050781 19.953125 12.71875 19.703125 13.25 19.105469 C 12.953125 18.871094 12.621094 18.789062 12.25 18.855469 C 12.25 18.519531 12.417969 18.351562 12.75 18.351562 C 20.003906 14.195312 27.003906 14.53125 33.75 19.355469 Z M 33.75 19.355469 "/>
<path style=" stroke:none;fill-rule:evenodd;fill:rgb(63.921571%,52.941179%,44.313726%);fill-opacity:1;" d="M 71.25 13.324219 C 76.851562 13.367188 80.183594 16.132812 81.25 21.617188 C 80.636719 23.671875 80.300781 25.765625 80.25 27.902344 C 79.617188 26.695312 79.28125 25.351562 79.25 23.882812 C 79.625 17.722656 76.792969 15.039062 70.75 15.835938 C 73.492188 20.164062 74.574219 24.859375 74 29.914062 C 73.4375 30.871094 73.023438 31.878906 72.75 32.929688 C 71.988281 34.636719 70.652344 35.308594 68.75 34.941406 C 70.070312 34.03125 71.152344 32.859375 72 31.421875 C 73.515625 26.507812 72.765625 21.980469 69.75 17.847656 C 68.878906 16.214844 67.710938 14.789062 66.25 13.574219 C 67.910156 13.324219 69.574219 13.242188 71.25 13.324219 Z M 71.25 13.324219 "/>
<path style=" stroke:none;fill-rule:evenodd;fill:rgb(98.039216%,92.156863%,83.92157%);fill-opacity:1;" d="M 12.25 18.855469 C 12.621094 18.789062 12.953125 18.871094 13.25 19.105469 C 12.71875 19.703125 12.050781 19.953125 11.25 19.859375 C 11.308594 20.855469 10.976562 21.695312 10.25 22.371094 C 10.355469 22.667969 10.519531 22.917969 10.75 23.128906 C 13.46875 23.015625 16.132812 23.265625 18.75 23.882812 C 17.40625 23.796875 16.074219 23.882812 14.75 24.132812 C 16.765625 24.328125 18.765625 24.582031 20.75 24.886719 C 23.113281 25.734375 25.113281 27.074219 26.75 28.910156 C 27.640625 31.382812 28.558594 33.898438 29.5 36.449219 C 30.003906 39.246094 29.671875 41.929688 28.5 44.496094 C 27.042969 42.90625 26.125 41.0625 25.75 38.964844 C 25.003906 35.878906 23.335938 33.535156 20.75 31.925781 C 20.058594 31.367188 19.308594 30.863281 18.5 30.417969 C 18.417969 30.585938 18.332031 30.753906 18.25 30.917969 C 21.566406 34.054688 22.898438 37.910156 22.25 42.484375 C 22.25 42.820312 22.25 43.152344 22.25 43.488281 C 21.105469 46.113281 19.273438 48.125 16.75 49.523438 C 13.441406 50.128906 10.109375 50.128906 6.75 49.523438 C 3.5 44.664062 2.25 39.300781 3 33.433594 C 4.089844 27.207031 7.171875 22.34375 12.25 18.855469 Z M 12.25 18.855469 "/>
<path style=" stroke:none;fill-rule:evenodd;fill:rgb(58.431375%,44.313726%,38.039216%);fill-opacity:1;" d="M 18.75 23.882812 C 19.867188 23.734375 20.867188 23.902344 21.75 24.382812 C 21.253906 24.296875 20.921875 24.464844 20.75 24.886719 C 18.765625 24.582031 16.765625 24.328125 14.75 24.132812 C 16.074219 23.882812 17.40625 23.796875 18.75 23.882812 Z M 18.75 23.882812 "/>
<path style=" stroke:none;fill-rule:evenodd;fill:rgb(92.54902%,60.784316%,40.784314%);fill-opacity:1;" d="M 83.75 23.378906 C 86.933594 23.0625 89.101562 24.402344 90.25 27.402344 C 87.59375 27.847656 84.925781 28.183594 82.25 28.40625 C 82.011719 26.476562 82.511719 24.800781 83.75 23.378906 Z M 83.75 23.378906 "/>
<path style=" stroke:none;fill-rule:evenodd;fill:rgb(86.274511%,78.431374%,70.19608%);fill-opacity:1;" d="M 79.25 23.882812 C 78.5 24.78125 78.167969 25.871094 78.25 27.148438 C 78.714844 29.5 79.382812 31.761719 80.25 33.9375 C 79.789062 33.53125 79.289062 33.449219 78.75 33.683594 C 75.519531 36.734375 72.019531 39.414062 68.25 41.730469 C 68.867188 41.847656 69.367188 42.097656 69.75 42.484375 C 68.574219 43.34375 68.074219 44.519531 68.25 46.003906 C 67.84375 45.101562 67.59375 44.097656 67.5 42.984375 C 67.113281 42.433594 66.699219 42.433594 66.25 42.984375 C 66.082031 42.984375 65.917969 42.984375 65.75 42.984375 C 65.941406 42.265625 66.441406 41.847656 67.25 41.730469 C 66.773438 41.367188 66.691406 40.949219 67 40.472656 C 67.921875 41.144531 68.171875 41.058594 67.75 40.222656 C 70.597656 39.371094 72.429688 37.527344 73.25 34.691406 C 72.832031 34.183594 72.664062 33.59375 72.75 32.929688 C 73.023438 31.878906 73.4375 30.871094 74 29.914062 C 74.574219 24.859375 73.492188 20.164062 70.75 15.835938 C 76.792969 15.039062 79.625 17.722656 79.25 23.882812 Z M 79.25 23.882812 "/>
<path style=" stroke:none;fill-rule:evenodd;fill:rgb(87.058824%,77.254903%,66.274512%);fill-opacity:1;" d="M 55.25 15.835938 C 56.511719 16.769531 56.511719 17.773438 55.25 18.855469 C 55.730469 19.511719 55.648438 20.183594 55 20.863281 C 54.464844 20.472656 53.878906 20.554688 53.25 21.117188 C 54.046875 22.765625 53.378906 23.855469 51.25 24.382812 C 51.25 23.714844 51.25 23.042969 51.25 22.371094 C 49.203125 21.972656 47.621094 22.644531 46.5 24.382812 C 46.085938 26.582031 46.167969 28.761719 46.75 30.917969 C 47.808594 31.648438 48.976562 31.980469 50.25 31.925781 C 49.785156 33.867188 49.035156 35.710938 48 37.457031 C 47.667969 38.796875 47.667969 40.136719 48 41.476562 C 48.328125 40.875 48.578125 40.875 48.75 41.476562 C 47.90625 42.660156 46.90625 43.667969 45.75 44.496094 C 45.832031 41.136719 45.75 37.785156 45.5 34.4375 C 44.921875 30.347656 43.835938 26.410156 42.25 22.625 C 42.707031 22.484375 43.042969 22.234375 43.25 21.871094 C 43.984375 21.445312 44.398438 20.773438 44.5 19.859375 C 44.75 18.699219 44.832031 17.523438 44.75 16.339844 C 45.207031 16.335938 45.457031 16.839844 45.5 17.847656 C 45.746094 17.199219 45.828125 16.527344 45.75 15.835938 C 48.917969 15.835938 52.082031 15.835938 55.25 15.835938 Z M 55.25 15.835938 "/>
<path style=" stroke:none;fill-rule:evenodd;fill:rgb(94.509804%,68.627453%,51.372552%);fill-opacity:1;" d="M 84.75 30.417969 C 87.417969 30.082031 88.582031 31.253906 88.25 33.9375 C 87.25 33.9375 86.25 33.9375 85.25 33.9375 C 85.164062 32.75 84.996094 31.578125 84.75 30.417969 Z M 84.75 30.417969 "/>
<path style=" stroke:none;fill-rule:evenodd;fill:rgb(94.509804%,66.274512%,49.019608%);fill-opacity:1;" d="M 89.25 29.914062 C 91.730469 29.894531 93.398438 31.066406 94.25 33.433594 C 92.957031 33.925781 91.625 34.09375 90.25 33.9375 C 90.019531 32.570312 89.683594 31.226562 89.25 29.914062 Z M 89.25 29.914062 "/>
<path style=" stroke:none;fill-rule:evenodd;fill:rgb(61.960787%,38.82353%,39.607844%);fill-opacity:1;" d="M 20.75 31.925781 C 21.460938 32.640625 21.960938 33.476562 22.25 34.4375 C 22.816406 37.195312 22.816406 39.878906 22.25 42.484375 C 22.898438 37.910156 21.566406 34.054688 18.25 30.917969 C 18.332031 30.753906 18.417969 30.585938 18.5 30.417969 C 19.308594 30.863281 20.058594 31.367188 20.75 31.925781 Z M 20.75 31.925781 "/>
<path style=" stroke:none;fill-rule:evenodd;fill:rgb(8.235294%,4.705882%,4.313726%);fill-opacity:1;" d="M 38.25 19.859375 C 42.878906 27.023438 44.628906 34.902344 43.5 43.488281 C 43.292969 46.503906 42.542969 49.351562 41.25 52.035156 C 40.671875 53.53125 39.839844 54.871094 38.75 56.058594 C 40.601562 59.472656 41.101562 62.992188 40.25 66.617188 C 40.175781 64.59375 40.011719 62.585938 39.75 60.582031 C 39.25 60.582031 38.75 60.582031 38.25 60.582031 C 38.25 60.414062 38.25 60.246094 38.25 60.082031 C 37.09375 56.105469 36.34375 56.273438 36 60.582031 C 35.148438 62.578125 34.0625 64.421875 32.75 66.113281 C 30.554688 67.796875 28.054688 68.636719 25.25 68.628906 C 25.75 68.292969 26.25 67.957031 26.75 67.621094 C 30.179688 66.351562 32.679688 64.007812 34.25 60.582031 C 33.691406 59.941406 33.191406 59.941406 32.75 60.582031 C 31.09375 60.484375 29.761719 60.988281 28.75 62.089844 C 27.4375 62.390625 26.101562 62.554688 24.75 62.59375 C 25.730469 61.761719 26.730469 60.921875 27.75 60.082031 C 29.667969 58.480469 31 56.472656 31.75 54.046875 C 32.742188 52.386719 33.242188 50.542969 33.25 48.515625 C 33.726562 47.804688 33.890625 46.964844 33.75 46.003906 C 34.441406 44.3125 34.273438 42.636719 33.25 40.976562 C 32.359375 41.742188 32.027344 42.746094 32.25 43.992188 C 32.035156 45.644531 31.535156 47.152344 30.75 48.515625 C 30.015625 48.941406 29.601562 49.613281 29.5 50.527344 C 29.417969 50.109375 29.332031 49.691406 29.25 49.269531 C 30.035156 47.804688 30.371094 46.210938 30.25 44.496094 C 31.785156 38.605469 30.617188 33.410156 26.75 28.910156 C 25.113281 27.074219 23.113281 25.734375 20.75 24.886719 C 20.921875 24.464844 21.253906 24.296875 21.75 24.382812 C 23.355469 24.585938 24.855469 25.089844 26.25 25.890625 C 30.300781 29.84375 33.21875 34.535156 35 39.96875 C 36.242188 41.128906 37.242188 42.472656 38 43.992188 C 38.40625 42.050781 38.320312 40.207031 37.75 38.460938 C 37.683594 35.179688 36.851562 32.164062 35.25 29.410156 C 31.6875 22.910156 26.1875 19.304688 18.75 18.601562 C 22.148438 18.164062 25.480469 18.414062 28.75 19.355469 C 31.355469 20.632812 33.523438 22.476562 35.25 24.886719 C 38.023438 28.964844 39.523438 33.488281 39.75 38.460938 C 39.667969 40.980469 39.75 43.496094 40 46.003906 C 40.210938 46.59375 40.542969 47.09375 41 47.511719 C 41.859375 43.265625 41.941406 39.074219 41.25 34.941406 C 41.066406 30.875 39.902344 27.191406 37.75 23.882812 C 37.152344 21.9375 35.988281 20.429688 34.25 19.355469 C 34.539062 18.636719 34.957031 17.964844 35.5 17.34375 C 36.207031 18.445312 37.121094 19.28125 38.25 19.859375 Z M 38.25 19.859375 "/>
<path style=" stroke:none;fill-rule:evenodd;fill:rgb(63.529414%,46.666667%,40.392157%);fill-opacity:1;" d="M 26.25 25.890625 C 26.960938 25.996094 27.628906 26.25 28.25 26.644531 C 29.519531 28.007812 30.851562 29.261719 32.25 30.417969 C 32.773438 32.308594 33.691406 33.984375 35 35.445312 C 35.382812 37.675781 36.21875 39.6875 37.5 41.476562 C 37.746094 40.484375 37.832031 39.480469 37.75 38.460938 C 38.320312 40.207031 38.40625 42.050781 38 43.992188 C 37.242188 42.472656 36.242188 41.128906 35 39.96875 C 33.21875 34.535156 30.300781 29.84375 26.25 25.890625 Z M 26.25 25.890625 "/>
<path style=" stroke:none;fill-rule:evenodd;fill:rgb(65.098041%,58.039218%,52.941179%);fill-opacity:1;" d="M 37.75 23.882812 C 39.902344 27.191406 41.066406 30.875 41.25 34.941406 C 41.394531 36.523438 41.144531 38.035156 40.5 39.46875 C 40.359375 39.007812 40.109375 38.671875 39.75 38.460938 C 39.523438 33.488281 38.023438 28.964844 35.25 24.886719 C 35.792969 24.90625 36.292969 25.074219 36.75 25.390625 C 37.085938 24.835938 37.421875 24.332031 37.75 23.882812 Z M 37.75 23.882812 "/>
<path style=" stroke:none;fill-rule:evenodd;fill:rgb(80.000001%,70.19608%,61.960787%);fill-opacity:1;" d="M 33.75 19.355469 C 33.917969 19.355469 34.082031 19.355469 34.25 19.355469 C 35.988281 20.429688 37.152344 21.9375 37.75 23.882812 C 37.421875 24.332031 37.085938 24.835938 36.75 25.390625 C 36.292969 25.074219 35.792969 24.90625 35.25 24.886719 C 33.523438 22.476562 31.355469 20.632812 28.75 19.355469 C 29.109375 19.144531 29.359375 18.8125 29.5 18.351562 C 30.78125 19.195312 32.199219 19.53125 33.75 19.355469 Z M 33.75 19.355469 "/>
<path style=" stroke:none;fill-rule:evenodd;fill:rgb(82.745099%,74.509805%,65.882355%);fill-opacity:1;" d="M 55.25 15.835938 C 57.503906 16.3125 59.671875 16.984375 61.75 17.847656 C 55.894531 20.410156 53.976562 24.765625 56 30.917969 C 59.109375 35.84375 63.359375 37.183594 68.75 34.941406 C 70.652344 35.308594 71.988281 34.636719 72.75 32.929688 C 72.664062 33.59375 72.832031 34.183594 73.25 34.691406 C 72.429688 37.527344 70.597656 39.371094 67.75 40.222656 C 68.171875 41.058594 67.921875 41.144531 67 40.472656 C 66.691406 40.949219 66.773438 41.367188 67.25 41.730469 C 66.441406 41.847656 65.941406 42.265625 65.75 42.984375 C 61.597656 43.886719 58.183594 42.542969 55.5 38.964844 C 53.90625 36.765625 52.574219 34.417969 51.5 31.925781 C 51.25 29.417969 51.167969 26.902344 51.25 24.382812 C 53.378906 23.855469 54.046875 22.765625 53.25 21.117188 C 53.878906 20.554688 54.464844 20.472656 55 20.863281 C 55.648438 20.183594 55.730469 19.511719 55.25 18.855469 C 56.511719 17.773438 56.511719 16.769531 55.25 15.835938 Z M 55.25 15.835938 "/>
<path style=" stroke:none;fill-rule:evenodd;fill:rgb(85.490197%,76.47059%,69.803923%);fill-opacity:1;" d="M 35.25 29.410156 C 36.851562 32.164062 37.683594 35.179688 37.75 38.460938 C 37.832031 39.480469 37.746094 40.484375 37.5 41.476562 C 36.21875 39.6875 35.382812 37.675781 35 35.445312 C 33.691406 33.984375 32.773438 32.308594 32.25 30.417969 C 33.0625 30.828125 33.8125 31.664062 34.5 32.929688 C 34.644531 31.714844 34.894531 30.539062 35.25 29.410156 Z M 35.25 29.410156 "/>
<path style=" stroke:none;fill-rule:evenodd;fill:rgb(32.941177%,11.372549%,16.862746%);fill-opacity:1;" d="M 22.25 34.4375 C 23.171875 35.621094 23.835938 36.960938 24.25 38.460938 C 23.890625 40.570312 23.226562 42.578125 22.25 44.496094 C 22.25 44.160156 22.25 43.824219 22.25 43.488281 C 22.25 43.152344 22.25 42.820312 22.25 42.484375 C 22.816406 39.878906 22.816406 37.195312 22.25 34.4375 Z M 22.25 34.4375 "/>
<path style=" stroke:none;fill-rule:evenodd;fill:rgb(98.431373%,91.764706%,82.745099%);fill-opacity:1;" d="M 51.25 24.382812 C 51.167969 26.902344 51.25 29.417969 51.5 31.925781 C 52.574219 34.417969 53.90625 36.765625 55.5 38.964844 C 58.183594 42.542969 61.597656 43.886719 65.75 42.984375 C 65.917969 42.984375 66.082031 42.984375 66.25 42.984375 C 66.496094 44.144531 66.664062 45.320312 66.75 46.503906 C 64.316406 46.335938 64.148438 46.921875 66.25 48.265625 C 65.6875 48.390625 65.1875 48.640625 64.75 49.019531 C 65.121094 49.640625 65.289062 50.3125 65.25 51.03125 C 66.59375 50.949219 67.925781 51.03125 69.25 51.28125 C 68.496094 51.710938 67.746094 52.128906 67 52.539062 C 65.105469 52.003906 63.1875 51.921875 61.25 52.289062 C 60.710938 52.957031 60.375 53.710938 60.25 54.550781 C 56.515625 54.78125 53.847656 56.625 52.25 60.082031 C 51.464844 60.300781 50.878906 60.800781 50.5 61.589844 C 49.960938 60.636719 49.292969 60.46875 48.5 61.085938 C 48.402344 60.082031 47.988281 59.160156 47.25 58.320312 C 47.417969 58.152344 47.582031 57.984375 47.75 57.816406 C 46.496094 57.058594 45.246094 56.304688 44 55.554688 C 43.347656 55.796875 42.765625 56.132812 42.25 56.5625 C 42.820312 54.511719 43.484375 52.5 44.25 50.527344 C 44.75 48.507812 45.25 46.496094 45.75 44.496094 C 46.90625 43.667969 47.90625 42.660156 48.75 41.476562 C 48.578125 40.875 48.328125 40.875 48 41.476562 C 47.667969 40.136719 47.667969 38.796875 48 37.457031 C 49.035156 35.710938 49.785156 33.867188 50.25 31.925781 C 48.976562 31.980469 47.808594 31.648438 46.75 30.917969 C 46.167969 28.761719 46.085938 26.582031 46.5 24.382812 C 47.621094 22.644531 49.203125 21.972656 51.25 22.371094 C 51.25 23.042969 51.25 23.714844 51.25 24.382812 Z M 51.25 24.382812 "/>
<path style=" stroke:none;fill-rule:evenodd;fill:rgb(74.117649%,60.000002%,47.843137%);fill-opacity:1;" d="M 79.25 23.882812 C 79.28125 25.351562 79.617188 26.695312 80.25 27.902344 C 80.855469 29.273438 81.773438 30.445312 83 31.421875 C 83.539062 32.710938 83.789062 34.050781 83.75 35.445312 C 83.75 37.457031 83.75 39.46875 83.75 41.476562 C 83.144531 41.109375 82.480469 40.941406 81.75 40.976562 C 81.867188 38.484375 81.367188 36.136719 80.25 33.9375 C 79.382812 31.761719 78.714844 29.5 78.25 27.148438 C 78.167969 25.871094 78.5 24.78125 79.25 23.882812 Z M 79.25 23.882812 "/>
<path style=" stroke:none;fill-rule:evenodd;fill:rgb(96.078432%,72.941178%,54.11765%);fill-opacity:1;" d="M 90.75 40.976562 C 90.75 39.46875 90.75 37.957031 90.75 36.449219 C 92.035156 35.875 93.367188 35.960938 94.75 36.703125 C 96.519531 37.847656 96.6875 39.191406 95.25 40.722656 C 93.757812 40.972656 92.257812 41.058594 90.75 40.976562 Z M 90.75 40.976562 "/>
<use xlink:href="#surface17" mask="url(#mask4)"/>
<path style=" stroke:none;fill-rule:evenodd;fill:rgb(58.431375%,43.529412%,33.725491%);fill-opacity:1;" d="M 38.25 19.859375 C 39.9375 20.542969 41.605469 21.210938 43.25 21.871094 C 43.042969 22.234375 42.707031 22.484375 42.25 22.625 C 43.835938 26.410156 44.921875 30.347656 45.5 34.4375 C 45.75 37.785156 45.832031 41.136719 45.75 44.496094 C 45.25 46.496094 44.75 48.507812 44.25 50.527344 C 43.054688 50.890625 42.304688 51.726562 42 53.042969 C 41.859375 52.582031 41.609375 52.246094 41.25 52.035156 C 42.542969 49.351562 43.292969 46.503906 43.5 43.488281 C 44.628906 34.902344 42.878906 27.023438 38.25 19.859375 Z M 38.25 19.859375 "/>
<path style=" stroke:none;fill-rule:evenodd;fill:rgb(37.64706%,13.725491%,19.607843%);fill-opacity:1;" d="M 33.75 46.003906 C 33.898438 44.945312 33.734375 43.9375 33.25 42.984375 C 32.910156 43.359375 32.574219 43.695312 32.25 43.992188 C 32.027344 42.746094 32.359375 41.742188 33.25 40.976562 C 34.273438 42.636719 34.441406 44.3125 33.75 46.003906 Z M 33.75 46.003906 "/>
<path style=" stroke:none;fill-rule:evenodd;fill:rgb(79.215688%,62.352943%,56.078434%);fill-opacity:1;" d="M 20.75 31.925781 C 23.335938 33.535156 25.003906 35.878906 25.75 38.964844 C 26.34375 46.816406 23.011719 52.097656 15.75 54.800781 C 16.328125 55.746094 17.160156 56.167969 18.25 56.058594 C 17.367188 56.542969 16.367188 56.710938 15.25 56.5625 C 14.953125 56.234375 14.621094 55.898438 14.25 55.554688 C 14.5625 55.09375 14.730469 54.589844 14.75 54.046875 C 22.359375 51.65625 25.527344 46.460938 24.25 38.460938 C 23.835938 36.960938 23.171875 35.621094 22.25 34.4375 C 21.960938 33.476562 21.460938 32.640625 20.75 31.925781 Z M 20.75 31.925781 "/>
<path style=" stroke:none;fill-rule:evenodd;fill:rgb(95.686275%,80.392158%,67.058825%);fill-opacity:1;" d="M 90.75 42.984375 C 92.488281 42.828125 94.15625 43.078125 95.75 43.742188 C 96.820312 47.691406 95.320312 49.199219 91.25 48.265625 C 90.773438 46.558594 90.605469 44.800781 90.75 42.984375 Z M 90.75 42.984375 "/>
<path style=" stroke:none;fill-rule:evenodd;fill:rgb(50.196081%,45.882353%,42.352942%);fill-opacity:1;" d="M 41.25 34.941406 C 41.941406 39.074219 41.859375 43.265625 41 47.511719 C 40.542969 47.09375 40.210938 46.59375 40 46.003906 C 39.75 43.496094 39.667969 40.980469 39.75 38.460938 C 40.109375 38.671875 40.359375 39.007812 40.5 39.46875 C 41.144531 38.035156 41.394531 36.523438 41.25 34.941406 Z M 41.25 34.941406 "/>
<path style=" stroke:none;fill-rule:evenodd;fill:rgb(94.901961%,79.607844%,65.490198%);fill-opacity:1;" d="M 89.75 43.488281 C 89.75 44.996094 89.75 46.503906 89.75 48.015625 C 88.632812 48.535156 87.464844 48.617188 86.25 48.265625 C 85.582031 46.589844 85.582031 44.914062 86.25 43.238281 C 87.441406 42.957031 88.609375 43.042969 89.75 43.488281 Z M 89.75 43.488281 "/>
<path style=" stroke:none;fill-rule:evenodd;fill:rgb(71.764708%,41.960785%,44.705883%);fill-opacity:1;" d="M 22.25 43.488281 C 22.25 43.824219 22.25 44.160156 22.25 44.496094 C 21.324219 47.4375 19.488281 49.617188 16.75 51.03125 C 16.75 50.527344 16.75 50.023438 16.75 49.523438 C 19.273438 48.125 21.105469 46.113281 22.25 43.488281 Z M 22.25 43.488281 "/>
<path style=" stroke:none;fill-rule:evenodd;fill:rgb(92.941177%,83.529413%,76.078433%);fill-opacity:1;" d="M 26.75 28.910156 C 30.617188 33.410156 31.785156 38.605469 30.25 44.496094 C 29.523438 46.34375 28.6875 48.1875 27.75 50.023438 C 25.375 53.242188 22.207031 55.253906 18.25 56.058594 C 17.160156 56.167969 16.328125 55.746094 15.75 54.800781 C 23.011719 52.097656 26.34375 46.816406 25.75 38.964844 C 26.125 41.0625 27.042969 42.90625 28.5 44.496094 C 29.671875 41.929688 30.003906 39.246094 29.5 36.449219 C 28.558594 33.898438 27.640625 31.382812 26.75 28.910156 Z M 26.75 28.910156 "/>
<path style=" stroke:none;fill-rule:evenodd;fill:rgb(96.862745%,90.980393%,82.745099%);fill-opacity:1;" d="M 80.25 33.9375 C 81.367188 36.136719 81.867188 38.484375 81.75 40.976562 C 82.902344 45.222656 82.984375 49.578125 82 54.046875 C 81.859375 54.507812 81.609375 54.84375 81.25 55.050781 C 81.28125 54.832031 81.199219 54.664062 81 54.550781 C 80.832031 54.886719 80.667969 55.21875 80.5 55.554688 C 80.15625 54.910156 80.242188 54.324219 80.75 53.796875 C 80.230469 52.984375 79.648438 52.898438 79 53.542969 C 78.742188 53.035156 78.324219 52.699219 77.75 52.539062 C 76.109375 52.804688 74.441406 52.886719 72.75 52.789062 C 73.082031 52.957031 73.417969 53.125 73.75 53.292969 C 73.855469 54.863281 73.6875 56.539062 73.25 58.320312 C 73.707031 58.507812 74.125 58.761719 74.5 59.074219 C 76.675781 63.199219 76.757812 66.550781 74.75 69.128906 C 74.816406 68.757812 74.730469 68.421875 74.5 68.125 C 74.140625 68.601562 73.722656 68.6875 73.25 68.375 C 73.824219 67.140625 73.824219 65.882812 73.25 64.605469 C 72.832031 56.140625 68.496094 52.789062 60.25 54.550781 C 60.375 53.710938 60.710938 52.957031 61.25 52.289062 C 63.1875 51.921875 65.105469 52.003906 67 52.539062 C 67.746094 52.128906 68.496094 51.710938 69.25 51.28125 C 67.925781 51.03125 66.59375 50.949219 65.25 51.03125 C 65.289062 50.3125 65.121094 49.640625 64.75 49.019531 C 65.1875 48.640625 65.6875 48.390625 66.25 48.265625 C 64.148438 46.921875 64.316406 46.335938 66.75 46.503906 C 66.664062 45.320312 66.496094 44.144531 66.25 42.984375 C 66.699219 42.433594 67.113281 42.433594 67.5 42.984375 C 67.59375 44.097656 67.84375 45.101562 68.25 46.003906 C 70.632812 48.792969 73.632812 50.386719 77.25 50.777344 C 79.828125 49.113281 79.828125 47.355469 77.25 45.5 C 80.589844 41.261719 79.589844 39.503906 74.25 40.222656 C 72.738281 40.980469 71.238281 41.734375 69.75 42.484375 C 69.367188 42.097656 68.867188 41.847656 68.25 41.730469 C 72.019531 39.414062 75.519531 36.734375 78.75 33.683594 C 79.289062 33.449219 79.789062 33.53125 80.25 33.9375 Z M 80.25 33.9375 "/>
<path style=" stroke:none;fill-rule:evenodd;fill:rgb(3.529412%,2.745098%,2.745098%);fill-opacity:1;" d="M 68.25 46.003906 C 68.074219 44.519531 68.574219 43.34375 69.75 42.484375 C 71.238281 41.734375 72.738281 40.980469 74.25 40.222656 C 79.589844 39.503906 80.589844 41.261719 77.25 45.5 C 79.828125 47.355469 79.828125 49.113281 77.25 50.777344 C 73.632812 50.386719 70.632812 48.792969 68.25 46.003906 Z M 68.25 46.003906 "/>
<use xlink:href="#surface20" mask="url(#mask5)"/>
<path style=" stroke:none;fill-rule:evenodd;fill:rgb(63.921571%,34.117648%,37.64706%);fill-opacity:1;" d="M 33.75 46.003906 C 33.890625 46.964844 33.726562 47.804688 33.25 48.515625 C 32.867188 48.898438 32.617188 49.402344 32.5 50.023438 C 31.925781 49.964844 31.34375 49.796875 30.75 49.523438 C 30.75 49.1875 30.75 48.851562 30.75 48.515625 C 31.535156 47.152344 32.035156 45.644531 32.25 43.992188 C 32.574219 43.695312 32.910156 43.359375 33.25 42.984375 C 33.734375 43.9375 33.898438 44.945312 33.75 46.003906 Z M 33.75 46.003906 "/>
<path style=" stroke:none;fill-rule:evenodd;fill:rgb(77.64706%,61.176473%,60.392159%);fill-opacity:1;" d="M 6.75 49.523438 C 10.109375 50.128906 13.441406 50.128906 16.75 49.523438 C 16.75 50.023438 16.75 50.527344 16.75 51.03125 C 13.0625 52.664062 9.730469 52.160156 6.75 49.523438 Z M 6.75 49.523438 "/>
<path style=" stroke:none;fill-rule:evenodd;fill:rgb(61.56863%,44.705883%,43.137255%);fill-opacity:1;" d="M 36.25 44.496094 C 38.808594 45.953125 39.726562 48.132812 39 51.03125 C 38.554688 52.765625 37.722656 54.273438 36.5 55.554688 C 35.804688 56.421875 34.972656 57.09375 34 57.566406 C 33.75 57.398438 33.5 57.230469 33.25 57.0625 C 34.960938 53.03125 35.960938 48.839844 36.25 44.496094 Z M 36.25 44.496094 "/>
<path style=" stroke:none;fill-rule:evenodd;fill:rgb(96.078432%,84.313726%,73.333335%);fill-opacity:1;" d="M 93.75 50.527344 C 94.410156 50.441406 94.996094 50.609375 95.5 51.03125 C 95.832031 52.035156 95.832031 53.042969 95.5 54.046875 C 94.046875 54.914062 92.464844 55.25 90.75 55.050781 C 90.75 53.542969 90.75 52.035156 90.75 50.527344 C 91.75 50.527344 92.75 50.527344 93.75 50.527344 Z M 93.75 50.527344 "/>
<path style=" stroke:none;fill-rule:evenodd;fill:rgb(82.745099%,55.29412%,57.254905%);fill-opacity:1;" d="M 33.25 48.515625 C 33.242188 50.542969 32.742188 52.386719 31.75 54.046875 C 31.390625 53.835938 31.140625 53.503906 31 53.042969 C 29.054688 55.332031 26.804688 57.257812 24.25 58.824219 C 22.46875 59.445312 20.636719 59.695312 18.75 59.578125 C 22.695312 58.554688 26.113281 56.542969 29 53.542969 C 29.726562 52.25 30.308594 50.910156 30.75 49.523438 C 31.34375 49.796875 31.925781 49.964844 32.5 50.023438 C 32.617188 49.402344 32.867188 48.898438 33.25 48.515625 Z M 33.25 48.515625 "/>
<path style=" stroke:none;fill-rule:evenodd;fill:rgb(1.176471%,0.784314%,0.784314%);fill-opacity:1;" d="M 73.25 64.605469 C 72.398438 66.820312 71.398438 69 70.25 71.140625 C 69.59375 72.464844 68.761719 73.640625 67.75 74.660156 C 65.617188 74.3125 65.453125 73.894531 67.25 73.402344 C 66.257812 73.097656 66.09375 72.597656 66.75 71.894531 C 65.257812 71.644531 63.757812 71.5625 62.25 71.644531 C 62.082031 71.644531 61.917969 71.644531 61.75 71.644531 C 56.375 69.660156 54.292969 65.804688 55.5 60.082031 C 56.3125 57.507812 57.898438 55.664062 60.25 54.550781 C 68.496094 52.789062 72.832031 56.140625 73.25 64.605469 Z M 73.25 64.605469 "/>
<path style=" stroke:none;fill-rule:evenodd;fill:rgb(76.47059%,26.666668%,46.27451%);fill-opacity:1;" d="M 14.75 54.046875 C 14.730469 54.589844 14.5625 55.09375 14.25 55.554688 C 14.621094 55.898438 14.953125 56.234375 15.25 56.5625 C 14.25 56.5625 13.25 56.5625 12.25 56.5625 C 10.1875 55.945312 8.355469 54.9375 6.75 53.542969 C 7.082031 53.375 7.417969 53.207031 7.75 53.042969 C 9.960938 53.945312 12.292969 54.28125 14.75 54.046875 Z M 14.75 54.046875 "/>
<path style=" stroke:none;fill-rule:evenodd;fill:rgb(58.039218%,20%,28.627452%);fill-opacity:1;" d="M 27.75 50.023438 C 26.859375 53.191406 24.695312 55.453125 21.25 56.8125 C 18.28125 57.671875 15.28125 57.753906 12.25 57.0625 C 12.25 56.894531 12.25 56.726562 12.25 56.5625 C 13.25 56.5625 14.25 56.5625 15.25 56.5625 C 16.367188 56.710938 17.367188 56.542969 18.25 56.058594 C 22.207031 55.253906 25.375 53.242188 27.75 50.023438 Z M 27.75 50.023438 "/>
<path style=" stroke:none;fill-rule:evenodd;fill:rgb(18.431373%,6.666667%,8.627451%);fill-opacity:1;" d="M 30.25 44.496094 C 30.371094 46.210938 30.035156 47.804688 29.25 49.269531 C 29.332031 49.691406 29.417969 50.109375 29.5 50.527344 C 29.601562 49.613281 30.015625 48.941406 30.75 48.515625 C 30.75 48.851562 30.75 49.1875 30.75 49.523438 C 30.308594 50.910156 29.726562 52.25 29 53.542969 C 26.113281 56.542969 22.695312 58.554688 18.75 59.578125 C 16.742188 59.660156 14.742188 59.578125 12.75 59.324219 C 12.292969 59.1875 11.957031 58.933594 11.75 58.570312 C 12.132812 58.1875 12.632812 57.933594 13.25 57.816406 C 12.792969 57.679688 12.457031 57.425781 12.25 57.0625 C 15.28125 57.753906 18.28125 57.671875 21.25 56.8125 C 24.695312 55.453125 26.859375 53.191406 27.75 50.023438 C 28.6875 48.1875 29.523438 46.34375 30.25 44.496094 Z M 30.25 44.496094 "/>
<path style=" stroke:none;fill-rule:evenodd;fill:rgb(98.823529%,92.54902%,83.529413%);fill-opacity:1;" d="M 52.25 60.082031 C 50.597656 65.253906 51.429688 70.027344 54.75 74.410156 C 54.277344 74.652344 53.777344 74.734375 53.25 74.660156 C 51.953125 74.03125 50.785156 73.191406 49.75 72.144531 C 49.582031 72.144531 49.417969 72.144531 49.25 72.144531 C 46.25 72.816406 43.25 72.816406 40.25 72.144531 C 40.25 71.980469 40.25 71.8125 40.25 71.644531 C 43.332031 66.953125 44 61.921875 42.25 56.5625 C 42.765625 56.132812 43.347656 55.796875 44 55.554688 C 45.246094 56.304688 46.496094 57.058594 47.75 57.816406 C 47.582031 57.984375 47.417969 58.152344 47.25 58.320312 C 47.988281 59.160156 48.402344 60.082031 48.5 61.085938 C 49.292969 60.46875 49.960938 60.636719 50.5 61.589844 C 50.878906 60.800781 51.464844 60.300781 52.25 60.082031 Z M 52.25 60.082031 "/>
<path style=" stroke:none;fill-rule:evenodd;fill:rgb(85.882354%,75.686276%,67.058825%);fill-opacity:1;" d="M 60.25 54.550781 C 57.898438 55.664062 56.3125 57.507812 55.5 60.082031 C 54.292969 65.804688 56.375 69.660156 61.75 71.644531 C 61.6875 72.691406 61.1875 73.445312 60.25 73.90625 C 58.433594 74.40625 56.601562 74.824219 54.75 75.164062 C 54.136719 75.152344 53.636719 74.984375 53.25 74.660156 C 53.777344 74.734375 54.277344 74.652344 54.75 74.410156 C 51.429688 70.027344 50.597656 65.253906 52.25 60.082031 C 53.847656 56.625 56.515625 54.78125 60.25 54.550781 Z M 60.25 54.550781 "/>
<path style=" stroke:none;fill-rule:evenodd;fill:rgb(94.117647%,83.137256%,74.901962%);fill-opacity:1;" d="M 85.75 57.566406 C 86.707031 57.421875 87.539062 57.589844 88.25 58.070312 C 88.355469 58.894531 88.191406 59.648438 87.75 60.332031 C 86.761719 60.582031 85.761719 60.664062 84.75 60.582031 C 84.511719 59.285156 84.847656 58.277344 85.75 57.566406 Z M 85.75 57.566406 "/>
<path style=" stroke:none;fill-rule:evenodd;fill:rgb(94.901961%,78.823531%,66.666669%);fill-opacity:1;" d="M 91.75 60.582031 C 91.207031 60.601562 90.707031 60.769531 90.25 61.085938 C 89.851562 60.855469 89.683594 60.519531 89.75 60.082031 C 89.917969 57.996094 91.082031 57.15625 93.25 57.566406 C 93.171875 58.808594 92.671875 59.8125 91.75 60.582031 Z M 91.75 60.582031 "/>
<path style=" stroke:none;fill-rule:evenodd;fill:rgb(68.627453%,35.294119%,46.27451%);fill-opacity:1;" d="M 10.25 58.570312 C 10.175781 59.101562 10.257812 59.601562 10.5 60.082031 C 11.347656 60.683594 12.097656 61.351562 12.75 62.089844 C 12.417969 62.089844 12.25 62.257812 12.25 62.59375 C 11.917969 62.425781 11.582031 62.257812 11.25 62.089844 C 9.734375 60.402344 8.234375 58.726562 6.75 57.0625 C 6.683594 56.691406 6.769531 56.355469 7 56.058594 C 7.984375 57.089844 9.066406 57.925781 10.25 58.570312 Z M 10.25 58.570312 "/>
<path style=" stroke:none;fill-rule:evenodd;fill:rgb(90.980393%,74.901962%,74.901962%);fill-opacity:1;" d="M 31.75 54.046875 C 31 56.472656 29.667969 58.480469 27.75 60.082031 C 27.519531 59.386719 27.019531 59.050781 26.25 59.074219 C 22.53125 60.359375 18.699219 61.03125 14.75 61.085938 C 14.75 61.589844 14.75 62.089844 14.75 62.59375 C 16.546875 63.074219 18.378906 63.410156 20.25 63.597656 C 21.292969 63.5625 22.292969 63.394531 23.25 63.097656 C 23.457031 63.460938 23.792969 63.710938 24.25 63.851562 C 22.46875 64.472656 20.636719 64.722656 18.75 64.605469 C 16.667969 63.964844 14.667969 63.125 12.75 62.089844 C 12.097656 61.351562 11.347656 60.683594 10.5 60.082031 C 10.257812 59.601562 10.175781 59.101562 10.25 58.570312 C 10.75 58.570312 11.25 58.570312 11.75 58.570312 C 11.957031 58.933594 12.292969 59.1875 12.75 59.324219 C 14.742188 59.578125 16.742188 59.660156 18.75 59.578125 C 20.636719 59.695312 22.46875 59.445312 24.25 58.824219 C 26.804688 57.257812 29.054688 55.332031 31 53.042969 C 31.140625 53.503906 31.390625 53.835938 31.75 54.046875 Z M 31.75 54.046875 "/>
<path style=" stroke:none;fill-rule:evenodd;fill:rgb(96.078432%,88.235295%,86.666667%);fill-opacity:1;" d="M 27.75 60.082031 C 26.730469 60.921875 25.730469 61.761719 24.75 62.59375 C 24.195312 62.621094 23.695312 62.789062 23.25 63.097656 C 22.292969 63.394531 21.292969 63.5625 20.25 63.597656 C 18.378906 63.410156 16.546875 63.074219 14.75 62.59375 C 14.75 62.089844 14.75 61.589844 14.75 61.085938 C 18.699219 61.03125 22.53125 60.359375 26.25 59.074219 C 27.019531 59.050781 27.519531 59.386719 27.75 60.082031 Z M 27.75 60.082031 "/>
<path style=" stroke:none;fill-rule:evenodd;fill:rgb(63.921571%,45.09804%,38.039216%);fill-opacity:1;" d="M 38.25 60.082031 C 36.976562 61.125 36.058594 62.464844 35.5 64.101562 C 34.773438 65.089844 33.859375 65.761719 32.75 66.113281 C 34.0625 64.421875 35.148438 62.578125 36 60.582031 C 36.34375 56.273438 37.09375 56.105469 38.25 60.082031 Z M 38.25 60.082031 "/>
<path style=" stroke:none;fill-rule:evenodd;fill:rgb(96.470588%,83.137256%,69.411767%);fill-opacity:1;" d="M 90.75 62.59375 C 89.925781 66.363281 87.589844 67.875 83.75 67.117188 C 82.460938 65.941406 81.960938 64.429688 82.25 62.59375 C 85.089844 63.191406 87.925781 63.191406 90.75 62.59375 Z M 90.75 62.59375 "/>
<path style=" stroke:none;fill-rule:evenodd;fill:rgb(26.274511%,6.666667%,10.980392%);fill-opacity:1;" d="M 6.75 57.0625 C 8.234375 58.726562 9.734375 60.402344 11.25 62.089844 C 10.753906 62.132812 10.335938 61.964844 10 61.589844 C 9.667969 61.921875 9.667969 62.257812 10 62.59375 C 11.90625 64.171875 13.824219 65.679688 15.75 67.117188 C 15.417969 67.117188 15.082031 67.117188 14.75 67.117188 C 11.199219 65.417969 8.363281 62.902344 6.25 59.578125 C 6.726562 58.863281 6.890625 58.027344 6.75 57.0625 Z M 6.75 57.0625 "/>
<path style=" stroke:none;fill-rule:evenodd;fill:rgb(71.764708%,54.901963%,43.137255%);fill-opacity:1;" d="M 44.25 50.527344 C 43.484375 52.5 42.820312 54.511719 42.25 56.5625 C 44 61.921875 43.332031 66.953125 40.25 71.644531 C 39.503906 71.6875 39.003906 71.351562 38.75 70.636719 C 39.644531 69.453125 40.144531 68.113281 40.25 66.617188 C 41.101562 62.992188 40.601562 59.472656 38.75 56.058594 C 39.839844 54.871094 40.671875 53.53125 41.25 52.035156 C 41.609375 52.246094 41.859375 52.582031 42 53.042969 C 42.304688 51.726562 43.054688 50.890625 44.25 50.527344 Z M 44.25 50.527344 "/>
<path style=" stroke:none;fill-rule:evenodd;fill:rgb(82.745099%,70.588237%,59.215689%);fill-opacity:1;" d="M 81.75 40.976562 C 82.480469 40.941406 83.144531 41.109375 83.75 41.476562 C 83.953125 47.554688 83.535156 53.589844 82.5 59.578125 C 81.476562 60.4375 80.644531 61.441406 80 62.59375 C 80.53125 65.398438 80.699219 68.246094 80.5 71.140625 C 80.121094 72.742188 79.371094 74.082031 78.25 75.164062 C 78.847656 71.75 78.847656 68.230469 78.25 64.605469 C 79.785156 61.617188 80.785156 58.433594 81.25 55.050781 C 81.609375 54.84375 81.859375 54.507812 82 54.046875 C 82.984375 49.578125 82.902344 45.222656 81.75 40.976562 Z M 81.75 40.976562 "/>
<path style=" stroke:none;fill-rule:evenodd;fill:rgb(89.803922%,81.176472%,74.901962%);fill-opacity:1;" d="M 6.25 59.578125 C 8.363281 62.902344 11.199219 65.417969 14.75 67.117188 C 15.867188 68.097656 17.199219 68.683594 18.75 68.878906 C 21.011719 69.289062 23.175781 69.203125 25.25 68.628906 C 28.054688 68.636719 30.554688 67.796875 32.75 66.113281 C 33.859375 65.761719 34.773438 65.089844 35.5 64.101562 C 36.058594 62.464844 36.976562 61.125 38.25 60.082031 C 38.25 60.246094 38.25 60.414062 38.25 60.582031 C 38.789062 62.214844 38.875 63.890625 38.5 65.609375 C 35.949219 71.851562 31.28125 74.871094 24.5 74.660156 C 14.429688 73.832031 8.011719 68.554688 5.25 58.824219 C 5.800781 58.078125 6.136719 58.328125 6.25 59.578125 Z M 6.25 59.578125 "/>
<path style=" stroke:none;fill-rule:evenodd;fill:rgb(27.843139%,5.098039%,10.980392%);fill-opacity:1;" d="M 32.75 60.582031 C 31.214844 61.871094 29.714844 63.296875 28.25 64.855469 C 27.457031 65.289062 26.625 65.625 25.75 65.863281 C 26.949219 66.050781 28.117188 66.050781 29.25 65.863281 C 28.382812 66.460938 27.550781 67.046875 26.75 67.621094 C 26.417969 67.621094 26.082031 67.621094 25.75 67.621094 C 23.675781 67.207031 21.507812 66.957031 19.25 66.867188 C 18.972656 66.675781 18.804688 66.421875 18.75 66.113281 C 20.4375 66.332031 21.9375 65.996094 23.25 65.109375 C 25.179688 64.640625 27.015625 63.886719 28.75 62.84375 C 29.371094 62.5 29.371094 62.246094 28.75 62.089844 C 29.761719 60.988281 31.09375 60.484375 32.75 60.582031 Z M 32.75 60.582031 "/>
<path style=" stroke:none;fill-rule:evenodd;fill:rgb(12.54902%,5.882353%,6.666667%);fill-opacity:1;" d="M 11.25 62.089844 C 11.582031 62.257812 11.917969 62.425781 12.25 62.59375 C 13.921875 64.613281 16.089844 65.785156 18.75 66.113281 C 18.804688 66.421875 18.972656 66.675781 19.25 66.867188 C 21.507812 66.957031 23.675781 67.207031 25.75 67.621094 C 22.359375 68.398438 19.027344 68.230469 15.75 67.117188 C 13.824219 65.679688 11.90625 64.171875 10 62.59375 C 9.667969 62.257812 9.667969 61.921875 10 61.589844 C 10.335938 61.964844 10.753906 62.132812 11.25 62.089844 Z M 11.25 62.089844 "/>
<path style=" stroke:none;fill-rule:evenodd;fill:rgb(76.47059%,45.490196%,54.509807%);fill-opacity:1;" d="M 28.75 62.089844 C 29.371094 62.246094 29.371094 62.5 28.75 62.84375 C 27.015625 63.886719 25.179688 64.640625 23.25 65.109375 C 21.644531 65.261719 20.144531 65.097656 18.75 64.605469 C 20.636719 64.722656 22.46875 64.472656 24.25 63.851562 C 23.792969 63.710938 23.457031 63.460938 23.25 63.097656 C 23.695312 62.789062 24.195312 62.621094 24.75 62.59375 C 26.101562 62.554688 27.4375 62.390625 28.75 62.089844 Z M 28.75 62.089844 "/>
<path style=" stroke:none;fill-rule:evenodd;fill:rgb(71.764708%,25.098041%,35.294119%);fill-opacity:1;" d="M 26.75 67.621094 C 27.550781 67.046875 28.382812 66.460938 29.25 65.863281 C 28.117188 66.050781 26.949219 66.050781 25.75 65.863281 C 26.625 65.625 27.457031 65.289062 28.25 64.855469 C 29.714844 63.296875 31.214844 61.871094 32.75 60.582031 C 33.191406 59.941406 33.691406 59.941406 34.25 60.582031 C 32.679688 64.007812 30.179688 66.351562 26.75 67.621094 Z M 26.75 67.621094 "/>
<path style=" stroke:none;fill-rule:evenodd;fill:rgb(62.7451%,20%,30.588236%);fill-opacity:1;" d="M 12.75 62.089844 C 14.667969 63.125 16.667969 63.964844 18.75 64.605469 C 20.144531 65.097656 21.644531 65.261719 23.25 65.109375 C 21.9375 65.996094 20.4375 66.332031 18.75 66.113281 C 16.089844 65.785156 13.921875 64.613281 12.25 62.59375 C 12.25 62.257812 12.417969 62.089844 12.75 62.089844 Z M 12.75 62.089844 "/>
<use xlink:href="#surface23" mask="url(#mask6)"/>
<path style=" stroke:none;fill-rule:evenodd;fill:rgb(93.333334%,80.784315%,69.411767%);fill-opacity:1;" d="M 89.25 55.554688 C 88.082031 55.554688 86.917969 55.554688 85.75 55.554688 C 85.292969 53.933594 85.125 52.257812 85.25 50.527344 C 86.558594 50.394531 87.808594 50.558594 89 51.03125 C 89.25 52.53125 89.332031 54.039062 89.25 55.554688 Z M 89.25 55.554688 "/>
<path style=" stroke:none;fill-rule:evenodd;fill:rgb(96.862745%,72.941178%,52.941179%);fill-opacity:1;" d="M 89.25 36.449219 C 89.25 37.957031 89.25 39.46875 89.25 40.976562 C 88.082031 40.976562 86.917969 40.976562 85.75 40.976562 C 85.75 39.46875 85.75 37.957031 85.75 36.449219 C 86.917969 35.78125 88.082031 35.78125 89.25 36.449219 Z M 89.25 36.449219 "/>
<path style=" stroke:none;fill-rule:evenodd;fill:rgb(67.058825%,41.960785%,40.000001%);fill-opacity:1;" d="M 14.75 67.117188 C 15.082031 67.117188 15.417969 67.117188 15.75 67.117188 C 19.027344 68.230469 22.359375 68.398438 25.75 67.621094 C 26.082031 67.621094 26.417969 67.621094 26.75 67.621094 C 26.25 67.957031 25.75 68.292969 25.25 68.628906 C 23.175781 69.203125 21.011719 69.289062 18.75 68.878906 C 17.199219 68.683594 15.867188 68.097656 14.75 67.117188 Z M 14.75 67.117188 "/>
<path style=" stroke:none;fill-rule:evenodd;fill:rgb(74.509805%,65.098041%,54.901963%);fill-opacity:1;" d="M 73.25 64.605469 C 73.824219 65.882812 73.824219 67.140625 73.25 68.375 C 73.722656 68.6875 74.140625 68.601562 74.5 68.125 C 74.730469 68.421875 74.816406 68.757812 74.75 69.128906 C 73.1875 69.664062 71.6875 70.332031 70.25 71.140625 C 71.398438 69 72.398438 66.820312 73.25 64.605469 Z M 73.25 64.605469 "/>
<path style=" stroke:none;fill-rule:evenodd;fill:rgb(97.647059%,92.54902%,84.313726%);fill-opacity:1;" d="M 81.25 55.050781 C 80.785156 58.433594 79.785156 61.617188 78.25 64.605469 C 78.847656 68.230469 78.847656 71.75 78.25 75.164062 C 77.253906 76 76.085938 76.585938 74.75 76.921875 C 71.902344 77.339844 69.070312 77.257812 66.25 76.671875 C 66.761719 75.992188 67.261719 75.320312 67.75 74.660156 C 68.761719 73.640625 69.59375 72.464844 70.25 71.140625 C 71.6875 70.332031 73.1875 69.664062 74.75 69.128906 C 76.757812 66.550781 76.675781 63.199219 74.5 59.074219 C 74.125 58.761719 73.707031 58.507812 73.25 58.320312 C 73.6875 56.539062 73.855469 54.863281 73.75 53.292969 C 73.417969 53.125 73.082031 52.957031 72.75 52.789062 C 74.441406 52.886719 76.109375 52.804688 77.75 52.539062 C 78.324219 52.699219 78.742188 53.035156 79 53.542969 C 79.648438 52.898438 80.230469 52.984375 80.75 53.796875 C 80.242188 54.324219 80.15625 54.910156 80.5 55.554688 C 80.667969 55.21875 80.832031 54.886719 81 54.550781 C 81.199219 54.664062 81.28125 54.832031 81.25 55.050781 Z M 81.25 55.050781 "/>
<use xlink:href="#surface26" mask="url(#mask7)"/>
<use xlink:href="#surface29" mask="url(#mask8)"/>
<path style=" stroke:none;fill-rule:evenodd;fill:rgb(75.686276%,76.078433%,74.901962%);fill-opacity:1;" d="M 34.75 87.230469 C 36.710938 87.265625 38.546875 86.929688 40.25 86.222656 C 44.308594 86.046875 48.308594 85.628906 52.25 84.96875 C 46.53125 87.269531 40.695312 88.023438 34.75 87.230469 Z M 34.75 87.230469 "/>
<path style=" stroke:none;fill-rule:evenodd;fill:rgb(12.941177%,10.196079%,9.803922%);fill-opacity:1;" d="M 21.25 78.179688 C 28.179688 82.855469 35.847656 84.867188 44.25 84.210938 C 43.015625 84.625 41.683594 84.875 40.25 84.96875 C 40.417969 85.132812 40.582031 85.300781 40.75 85.46875 C 40.132812 85.585938 39.632812 85.835938 39.25 86.222656 C 31.804688 85.664062 25.304688 82.898438 19.75 77.929688 C 20.289062 77.691406 20.789062 77.777344 21.25 78.179688 Z M 21.25 78.179688 "/>
<path style=" stroke:none;fill-rule:evenodd;fill:rgb(98.039216%,87.058824%,69.803923%);fill-opacity:1;" d="M 70.75 79.6875 C 71.929688 79.605469 73.09375 79.6875 74.25 79.9375 C 73.707031 82.121094 72.707031 84.046875 71.25 85.722656 C 66.664062 88.136719 62.5 87.632812 58.75 84.210938 C 58.980469 82.828125 59.816406 81.988281 61.25 81.699219 C 65.246094 84.835938 68.414062 84.167969 70.75 79.6875 Z M 70.75 79.6875 "/>
<path style=" stroke:none;fill-rule:evenodd;fill:rgb(94.117647%,87.058824%,78.039217%);fill-opacity:1;" d="M 33.75 75.164062 C 36.347656 76.304688 39.015625 77.144531 41.75 77.675781 C 41.222656 77.601562 40.722656 77.683594 40.25 77.929688 C 44.507812 79.03125 48.839844 79.449219 53.25 79.183594 C 51.425781 80.175781 49.425781 80.761719 47.25 80.945312 C 50.65625 81.03125 53.988281 80.527344 57.25 79.4375 C 57.625 79.097656 57.792969 78.679688 57.75 78.179688 C 60.425781 77.492188 62.925781 76.570312 65.25 75.414062 C 62.582031 78.1875 59.582031 80.449219 56.25 82.203125 C 52.335938 83.347656 48.335938 84.015625 44.25 84.210938 C 35.847656 84.867188 28.179688 82.855469 21.25 78.179688 C 25.945312 78.839844 30.527344 79.84375 35 81.195312 C 35.75 81.027344 36.5 80.859375 37.25 80.695312 C 37.167969 80.527344 37.082031 80.359375 37 80.191406 C 34.539062 79.351562 32.453125 78.007812 30.75 76.167969 C 31.605469 75.546875 32.605469 75.210938 33.75 75.164062 Z M 33.75 75.164062 "/>
<path style=" stroke:none;fill-rule:evenodd;fill:rgb(46.666667%,32.941177%,25.490198%);fill-opacity:1;" d="M 70.75 79.6875 C 68.414062 84.167969 65.246094 84.835938 61.25 81.699219 C 62.136719 81 63.136719 80.414062 64.25 79.9375 C 66.410156 79.6875 68.578125 79.605469 70.75 79.6875 Z M 70.75 79.6875 "/>
<path style=" stroke:none;fill-rule:evenodd;fill:rgb(65.882355%,57.254905%,47.450981%);fill-opacity:1;" d="M 57.75 78.179688 C 57.792969 78.679688 57.625 79.097656 57.25 79.4375 C 53.988281 80.527344 50.65625 81.03125 47.25 80.945312 C 49.425781 80.761719 51.425781 80.175781 53.25 79.183594 C 54.726562 78.796875 56.226562 78.460938 57.75 78.179688 Z M 57.75 78.179688 "/>
<path style=" stroke:none;fill-rule:evenodd;fill:rgb(92.54902%,89.411765%,85.09804%);fill-opacity:1;" d="M 30.75 76.167969 C 32.453125 78.007812 34.539062 79.351562 37 80.191406 C 37.082031 80.359375 37.167969 80.527344 37.25 80.695312 C 36.5 80.859375 35.75 81.027344 35 81.195312 C 30.527344 79.84375 25.945312 78.839844 21.25 78.179688 C 20.789062 77.777344 20.289062 77.691406 19.75 77.929688 C 25.304688 82.898438 31.804688 85.664062 39.25 86.222656 C 39.582031 86.222656 39.917969 86.222656 40.25 86.222656 C 38.546875 86.929688 36.710938 87.265625 34.75 87.230469 C 26.183594 86.152344 19.351562 82.128906 14.25 75.164062 C 14.023438 74.679688 13.691406 74.261719 13.25 73.90625 C 13.417969 73.820312 13.582031 73.738281 13.75 73.65625 C 19.078125 76.644531 24.746094 77.480469 30.75 76.167969 Z M 30.75 76.167969 "/>
<path style=" stroke:none;fill-rule:evenodd;fill:rgb(77.254903%,63.529414%,52.941179%);fill-opacity:1;" d="M 61.75 71.644531 C 61.917969 71.644531 62.082031 71.644531 62.25 71.644531 C 63.316406 72.054688 64.480469 72.304688 65.75 72.398438 C 62.558594 74.5 59.058594 75.757812 55.25 76.167969 C 52.265625 76.34375 50.433594 75.003906 49.75 72.144531 C 50.785156 73.191406 51.953125 74.03125 53.25 74.660156 C 53.636719 74.984375 54.136719 75.152344 54.75 75.164062 C 56.601562 74.824219 58.433594 74.40625 60.25 73.90625 C 61.1875 73.445312 61.6875 72.691406 61.75 71.644531 Z M 61.75 71.644531 "/>
<path style=" stroke:none;fill-rule:evenodd;fill:rgb(54.901963%,41.960785%,35.294119%);fill-opacity:1;" d="M 49.25 72.144531 C 49.417969 72.144531 49.582031 72.144531 49.75 72.144531 C 50.433594 75.003906 52.265625 76.34375 55.25 76.167969 C 53.351562 76.664062 51.351562 76.832031 49.25 76.671875 C 49.25 75.164062 49.25 73.65625 49.25 72.144531 Z M 49.25 72.144531 "/>
<path style=" stroke:none;fill-rule:evenodd;fill:rgb(68.235296%,58.431375%,51.372552%);fill-opacity:1;" d="M 38.25 73.152344 C 38.671875 73.890625 39.339844 74.308594 40.25 74.410156 C 42.582031 74.578125 44.917969 74.746094 47.25 74.910156 C 45.742188 76.453125 43.910156 77.375 41.75 77.675781 C 39.015625 77.144531 36.347656 76.304688 33.75 75.164062 C 35.292969 74.636719 36.792969 73.96875 38.25 73.152344 Z M 38.25 73.152344 "/>
<path style=" stroke:none;fill-rule:evenodd;fill:rgb(97.647059%,92.156863%,87.843138%);fill-opacity:1;" d="M 26.75 69.632812 C 27.929688 69.550781 29.09375 69.632812 30.25 69.882812 C 30.863281 70.683594 30.695312 71.351562 29.75 71.894531 C 26.019531 74.0625 22.183594 74.230469 18.25 72.398438 C 17.582031 71.726562 17.582031 71.058594 18.25 70.386719 C 21.175781 70.300781 24.007812 70.046875 26.75 69.632812 Z M 26.75 69.632812 "/>
</g>
</svg>
