<?xml version="1.0" encoding="UTF-8"?>
<svg xmlns="http://www.w3.org/2000/svg" xmlns:xlink="http://www.w3.org/1999/xlink" width="px" height="px" viewBox="0 0 100 106" version="1.1">
<defs>
<filter id="alpha" filterUnits="objectBoundingBox" x="0%" y="0%" width="100%" height="100%">
  <feColorMatrix type="matrix" in="SourceGraphic" values="0 0 0 0 1 0 0 0 0 1 0 0 0 0 1 0 0 0 1 0"/>
</filter>
<mask id="mask0">
  <g filter="url(#alpha)">
<rect x="0" y="0" width="100" height="106" style="fill:rgb(0%,0%,0%);fill-opacity:0.101961;stroke:none;"/>
  </g>
</mask>
<clipPath id="clip1">
  <rect x="0" y="0" width="100" height="106"/>
</clipPath>
<g id="surface5" clip-path="url(#clip1)">
<path style=" stroke:none;fill-rule:evenodd;fill:rgb(16.862745%,23.529412%,27.45098%);fill-opacity:1;" d="M 46.75 1.75 C 48.574219 2.492188 50.40625 3.242188 52.25 4 C 53.308594 4.523438 54.140625 5.273438 54.75 6.25 C 51.917969 5 49.25 3.5 46.75 1.75 Z M 46.75 1.75 "/>
</g>
<mask id="mask1">
  <g filter="url(#alpha)">
<rect x="0" y="0" width="100" height="106" style="fill:rgb(0%,0%,0%);fill-opacity:0.0117647;stroke:none;"/>
  </g>
</mask>
<clipPath id="clip2">
  <rect x="0" y="0" width="100" height="106"/>
</clipPath>
<g id="surface8" clip-path="url(#clip2)">
<path style=" stroke:none;fill-rule:evenodd;fill:rgb(16.862745%,23.137255%,26.27451%);fill-opacity:1;" d="M 84.75 29.25 C 83.136719 25.554688 80.554688 22.71875 77 20.75 C 75.640625 14.144531 71.558594 10.644531 64.75 10.25 C 62.695312 6.515625 59.527344 5.179688 55.25 6.25 C 56.039062 5.457031 57.039062 4.957031 58.25 4.75 C 61.621094 5.269531 64.121094 7.019531 65.75 10 C 72.308594 10.394531 76.226562 13.808594 77.5 20.25 C 79.90625 21.039062 81.738281 22.539062 83 24.75 C 84.144531 26.035156 84.726562 27.535156 84.75 29.25 Z M 84.75 29.25 "/>
</g>
<mask id="mask2">
  <g filter="url(#alpha)">
<rect x="0" y="0" width="100" height="106" style="fill:rgb(0%,0%,0%);fill-opacity:0.180392;stroke:none;"/>
  </g>
</mask>
<clipPath id="clip3">
  <rect x="0" y="0" width="100" height="106"/>
</clipPath>
<g id="surface11" clip-path="url(#clip3)">
<path style=" stroke:none;fill-rule:evenodd;fill:rgb(15.686275%,21.568627%,25.490196%);fill-opacity:1;" d="M 10.75 28.75 C 10.75 29.917969 10.75 31.082031 10.75 32.25 C 9.671875 32.1875 8.671875 32.4375 7.75 33 C 6.851562 33.90625 6.015625 34.824219 5.25 35.75 C 6.039062 33.375 7.625 31.707031 10 30.75 C 10.105469 29.972656 10.355469 29.304688 10.75 28.75 Z M 10.75 28.75 "/>
</g>
<mask id="mask3">
  <g filter="url(#alpha)">
<rect x="0" y="0" width="100" height="106" style="fill:rgb(0%,0%,0%);fill-opacity:0.0470588;stroke:none;"/>
  </g>
</mask>
<clipPath id="clip4">
  <rect x="0" y="0" width="100" height="106"/>
</clipPath>
<g id="surface14" clip-path="url(#clip4)">
<path style=" stroke:none;fill-rule:evenodd;fill:rgb(17.647059%,22.745098%,25.882353%);fill-opacity:1;" d="M 85.75 30.75 C 87.660156 31.492188 89.660156 31.90625 91.75 32 C 92.332031 32.582031 92.917969 33.167969 93.5 33.75 C 94.832031 36.082031 96.167969 38.417969 97.5 40.75 C 97.578125 42.550781 98.078125 44.214844 99 45.75 C 99.371094 47.28125 99.289062 48.78125 98.75 50.25 C 98.925781 50.761719 99.261719 51.09375 99.75 51.25 C 99.75 51.75 99.75 52.25 99.75 52.75 C 99.464844 54.761719 98.964844 56.761719 98.25 58.75 C 98.734375 55.101562 98.734375 51.351562 98.25 47.5 C 97.980469 45.964844 97.316406 44.628906 96.25 43.5 C 96.835938 42.082031 96.753906 40.664062 96 39.25 C 94.183594 37.027344 92.433594 34.777344 90.75 32.5 C 88.820312 32.410156 86.988281 32.160156 85.25 31.75 C 85.667969 31.578125 85.835938 31.246094 85.75 30.75 Z M 85.75 30.75 "/>
</g>
<mask id="mask4">
  <g filter="url(#alpha)">
<rect x="0" y="0" width="100" height="106" style="fill:rgb(0%,0%,0%);fill-opacity:0.0196078;stroke:none;"/>
  </g>
</mask>
<clipPath id="clip5">
  <rect x="0" y="0" width="100" height="106"/>
</clipPath>
<g id="surface17" clip-path="url(#clip5)">
<path style=" stroke:none;fill-rule:evenodd;fill:rgb(16.470588%,20.784314%,24.705882%);fill-opacity:1;" d="M 2.25 41.75 C 3.820312 43.734375 5.652344 45.484375 7.75 47 C 2.617188 48.042969 0.28125 51.125 0.75 56.25 C 0.417969 55.082031 0.0820312 53.917969 -0.25 52.75 C -0.25 52.582031 -0.25 52.417969 -0.25 52.25 C 1.15625 49.761719 3.15625 47.84375 5.75 46.5 C 4.074219 45.25 2.910156 43.664062 2.25 41.75 Z M 2.25 41.75 "/>
</g>
<mask id="mask5">
  <g filter="url(#alpha)">
<rect x="0" y="0" width="100" height="106" style="fill:rgb(0%,0%,0%);fill-opacity:0.12549;stroke:none;"/>
  </g>
</mask>
<clipPath id="clip6">
  <rect x="0" y="0" width="100" height="106"/>
</clipPath>
<g id="surface20" clip-path="url(#clip6)">
<path style=" stroke:none;fill-rule:evenodd;fill:rgb(14.117647%,19.215686%,23.921569%);fill-opacity:1;" d="M 76.75 88.25 C 76.496094 93.753906 73.664062 97.003906 68.25 98 C 67.140625 99.945312 65.554688 101.359375 63.5 102.25 C 61.289062 102.050781 58.871094 101.632812 56.25 101 C 54.921875 103.25 53.089844 104.832031 50.75 105.75 C 50.417969 105.75 50.082031 105.75 49.75 105.75 C 48.25 105.417969 46.75 105.082031 45.25 104.75 C 47.632812 104.90625 49.96875 104.65625 52.25 104 C 53.835938 102.578125 55.253906 100.996094 56.5 99.25 C 60.769531 102.394531 64.351562 101.8125 67.25 97.5 C 72.652344 96.679688 75.820312 93.597656 76.75 88.25 Z M 76.75 88.25 "/>
</g>
</defs>
<g id="surface1">
<use xlink:href="#surface5" mask="url(#mask0)"/>
<path style=" stroke:none;fill-rule:evenodd;fill:rgb(5.490196%,3.921569%,4.313725%);fill-opacity:1;" d="M 38.25 -0.25 C 40.082031 -0.25 41.917969 -0.25 43.75 -0.25 C 44.90625 0.164062 45.90625 0.828125 46.75 1.75 C 49.25 3.5 51.917969 5 54.75 6.25 C 54.917969 6.25 55.082031 6.25 55.25 6.25 C 59.527344 5.179688 62.695312 6.515625 64.75 10.25 C 71.558594 10.644531 75.640625 14.144531 77 20.75 C 80.554688 22.71875 83.136719 25.554688 84.75 29.25 C 85.199219 29.644531 85.535156 30.144531 85.75 30.75 C 85.332031 30.921875 85.164062 31.253906 85.25 31.75 C 86.988281 32.160156 88.820312 32.410156 90.75 32.5 C 92.433594 34.777344 94.183594 37.027344 96 39.25 C 96.753906 40.664062 96.835938 42.082031 96.25 43.5 C 97.316406 44.628906 97.980469 45.964844 98.25 47.5 C 98.734375 51.351562 98.734375 55.101562 98.25 58.75 C 98.351562 62.40625 97.933594 66.074219 97 69.75 C 96.644531 70.191406 96.230469 70.523438 95.75 70.75 C 94.898438 70.234375 94.0625 70.234375 93.25 70.75 C 92.738281 70.574219 92.40625 70.238281 92.25 69.75 C 94.363281 69.035156 95.363281 67.535156 95.25 65.25 C 93.582031 65.25 91.917969 65.25 90.25 65.25 C 90.304688 64.941406 90.472656 64.691406 90.75 64.5 C 92.476562 64.441406 93.8125 64.191406 94.75 63.75 C 96.117188 62.570312 96.535156 61.070312 96 59.25 C 94.960938 58.519531 93.796875 58.1875 92.5 58.25 C 91.507812 58.285156 90.757812 58.617188 90.25 59.25 C 89.917969 59.082031 89.582031 58.917969 89.25 58.75 C 87.6875 58.261719 86.019531 58.09375 84.25 58.25 C 83.917969 57.75 83.582031 57.25 83.25 56.75 C 85.21875 57.179688 87.21875 57.347656 89.25 57.25 C 89.25 55.417969 89.25 53.582031 89.25 51.75 C 89.582031 53.582031 89.917969 55.417969 90.25 57.25 C 91.925781 57.332031 93.589844 57.25 95.25 57 C 96.644531 55.917969 97.058594 54.5 96.5 52.75 C 95.777344 51.921875 94.859375 51.589844 93.75 51.75 C 92.554688 51.394531 91.304688 51.0625 90 50.75 C 89.910156 48.820312 89.660156 46.988281 89.25 45.25 C 87.183594 44.417969 85.265625 44.75 83.5 46.25 C 83.117188 47.550781 83.199219 48.800781 83.75 50 C 85.574219 50.25 87.410156 50.332031 89.25 50.25 C 89.25 50.582031 89.25 50.917969 89.25 51.25 C 86.984375 50.941406 84.984375 51.441406 83.25 52.75 C 82.917969 53.75 82.582031 54.75 82.25 55.75 C 82.308594 50.242188 82.144531 44.742188 81.75 39.25 C 81.261719 38.464844 81.179688 37.632812 81.5 36.75 C 83.207031 35.136719 83.542969 33.300781 82.5 31.25 C 81.761719 29.109375 80.761719 27.109375 79.5 25.25 C 78.421875 24.253906 77.171875 23.585938 75.75 23.25 C 71.746094 23.332031 67.746094 23.25 63.75 23 C 58.570312 21.679688 53.40625 21.429688 48.25 22.25 C 39.136719 24.441406 32.886719 29.941406 29.5 38.75 C 26.851562 47.8125 26.519531 56.980469 28.5 66.25 C 32.621094 79.019531 41.371094 85.851562 54.75 86.75 C 58.914062 86.136719 63.078125 85.636719 67.25 85.25 C 70.4375 85.996094 73.601562 85.914062 76.75 85 C 79.882812 82.410156 81.882812 79.074219 82.75 75 C 82.199219 73.984375 81.867188 72.898438 81.75 71.75 C 82.066406 69.589844 82.316406 67.425781 82.5 65.25 C 82.597656 66.191406 82.847656 67.023438 83.25 67.75 C 83.898438 69.367188 85.148438 70.035156 87 69.75 C 87.992188 69.714844 88.742188 69.382812 89.25 68.75 C 89.582031 68.75 89.917969 68.75 90.25 68.75 C 90.25 69.082031 90.25 69.417969 90.25 69.75 C 87.910156 70.445312 85.578125 70.945312 83.25 71.25 C 83.371094 72.632812 84.039062 73.714844 85.25 74.5 C 86.917969 74.832031 88.582031 74.832031 90.25 74.5 C 90.707031 74.359375 91.039062 74.109375 91.25 73.75 C 92.421875 73.886719 92.421875 74.304688 91.25 75 C 91.917969 75.5 91.917969 76 91.25 76.5 C 89.230469 76.585938 87.230469 76.835938 85.25 77.25 C 84.300781 79.984375 82.964844 82.484375 81.25 84.75 C 80.335938 86.660156 78.835938 87.828125 76.75 88.25 C 75.820312 93.597656 72.652344 96.679688 67.25 97.5 C 64.351562 101.8125 60.769531 102.394531 56.5 99.25 C 55.253906 100.996094 53.835938 102.578125 52.25 104 C 49.96875 104.65625 47.632812 104.90625 45.25 104.75 C 43.539062 104.289062 42.371094 103.207031 41.75 101.5 C 39.398438 101.441406 37.480469 100.523438 36 98.75 C 33.746094 100.808594 31.164062 101.476562 28.25 100.75 C 27.140625 99.167969 26.472656 97.417969 26.25 95.5 C 26.417969 95.332031 26.582031 95.167969 26.75 95 C 24.492188 94.660156 23.160156 93.410156 22.75 91.25 C 18.21875 91.804688 15.636719 89.804688 15 85.25 C 13.496094 83.910156 12.160156 82.410156 11 80.75 C 10.832031 79.417969 10.667969 78.082031 10.5 76.75 C 8.789062 75.769531 7.039062 74.851562 5.25 74 C 1.261719 70.101562 1.261719 66.183594 5.25 62.25 C 3.921875 61.003906 2.671875 59.671875 1.5 58.25 C 1.105469 57.628906 0.855469 56.960938 0.75 56.25 C 0.28125 51.125 2.617188 48.042969 7.75 47 C 5.652344 45.484375 3.820312 43.734375 2.25 41.75 C 0.761719 38.722656 1.761719 36.722656 5.25 35.75 C 6.015625 34.824219 6.851562 33.90625 7.75 33 C 8.671875 32.4375 9.671875 32.1875 10.75 32.25 C 10.75 31.082031 10.75 29.917969 10.75 28.75 C 10.6875 27.671875 10.9375 26.671875 11.5 25.75 C 13.921875 24.320312 15.003906 22.15625 14.75 19.25 C 15.953125 19.304688 16.867188 18.804688 17.5 17.75 C 17.667969 17.917969 17.832031 18.082031 18 18.25 C 18.3125 15.425781 19.230469 12.839844 20.75 10.5 C 22.945312 10.113281 25.113281 10.195312 27.25 10.75 C 29.304688 8.941406 30.886719 6.777344 32 4.25 C 33.789062 2.316406 35.871094 0.816406 38.25 -0.25 Z M 38.25 -0.25 "/>
<path style=" stroke:none;fill-rule:evenodd;fill:rgb(91.764706%,37.254902%,7.843137%);fill-opacity:1;" d="M 32.25 10.25 C 31.199219 13.058594 29.449219 15.390625 27 17.25 C 23.457031 14.078125 22.042969 14.910156 22.75 19.75 C 21.082031 17.996094 20.832031 15.996094 22 13.75 C 22.402344 13.097656 22.984375 12.765625 23.75 12.75 C 25.203125 13.488281 26.703125 13.902344 28.25 14 C 29.519531 12.648438 30.851562 11.398438 32.25 10.25 Z M 32.25 10.25 "/>
<path style=" stroke:none;fill-rule:evenodd;fill:rgb(11.372549%,10.588235%,9.803922%);fill-opacity:1;" d="M 62.75 13.25 C 69.070312 12.148438 72.90625 14.648438 74.25 20.75 C 72.195312 20.738281 70.195312 20.40625 68.25 19.75 C 67.222656 20.785156 65.972656 21.285156 64.5 21.25 C 57.496094 19.992188 56.914062 17.324219 62.75 13.25 Z M 62.75 13.25 "/>
<path style=" stroke:none;fill-rule:evenodd;fill:rgb(99.607843%,40.784314%,6.666667%);fill-opacity:1;" d="M 43.25 6.75 C 44.050781 6.617188 44.714844 6.78125 45.25 7.25 C 44.476562 9.59375 45.140625 11.511719 47.25 13 C 48.410156 13.003906 49.410156 12.585938 50.25 11.75 C 50.738281 11.59375 51.074219 11.261719 51.25 10.75 C 50.878906 10.132812 50.710938 9.464844 50.75 8.75 C 52.394531 9.105469 54.058594 9.269531 55.75 9.25 C 55.367188 9.632812 54.867188 9.882812 54.25 10 C 54.332031 10.558594 54.5 11.140625 54.75 11.75 C 53.089844 12.078125 52.421875 13.078125 52.75 14.75 C 50.324219 16.730469 47.90625 16.730469 45.5 14.75 C 43.457031 15.699219 41.371094 16.53125 39.25 17.25 C 38.484375 17.234375 37.902344 16.902344 37.5 16.25 C 36.914062 18.25 35.832031 19.917969 34.25 21.25 C 33.117188 22.320312 31.785156 23.15625 30.25 23.75 C 29.472656 23.640625 28.804688 23.304688 28.25 22.75 C 27.273438 23.851562 26.109375 24.6875 24.75 25.25 C 26.28125 23.523438 27.28125 21.523438 27.75 19.25 C 28.148438 21.886719 29.648438 22.804688 32.25 22 C 33.019531 21.445312 33.351562 20.695312 33.25 19.75 C 34.269531 16.773438 35.355469 13.773438 36.5 10.75 C 36.640625 11.207031 36.890625 11.542969 37.25 11.75 C 38.605469 14.152344 40.1875 14.320312 42 12.25 C 42.167969 10.582031 42.332031 8.917969 42.5 7.25 C 42.691406 6.972656 42.941406 6.804688 43.25 6.75 Z M 43.25 6.75 "/>
<path style=" stroke:none;fill-rule:evenodd;fill:rgb(96.470588%,30.980392%,9.803922%);fill-opacity:1;" d="M 55.75 9.25 C 57.578125 9.472656 59.410156 9.636719 61.25 9.75 C 61.941406 9.980469 62.273438 10.480469 62.25 11.25 C 61.949219 12.234375 61.285156 12.734375 60.25 12.75 C 59.589844 12.835938 59.003906 12.667969 58.5 12.25 C 58.347656 12.652344 58.097656 12.988281 57.75 13.25 C 56.785156 12.738281 55.785156 12.65625 54.75 13 C 54.148438 13.6875 53.480469 14.269531 52.75 14.75 C 52.421875 13.078125 53.089844 12.078125 54.75 11.75 C 54.5 11.140625 54.332031 10.558594 54.25 10 C 54.867188 9.882812 55.367188 9.632812 55.75 9.25 Z M 55.75 9.25 "/>
<path style=" stroke:none;fill-rule:evenodd;fill:rgb(100%,60.784314%,24.313725%);fill-opacity:1;" d="M 45.25 7.25 C 48.8125 6.707031 50.476562 8.207031 50.25 11.75 C 49.410156 12.585938 48.410156 13.003906 47.25 13 C 45.140625 11.511719 44.476562 9.59375 45.25 7.25 Z M 45.25 7.25 "/>
<path style=" stroke:none;fill-rule:evenodd;fill:rgb(99.607843%,53.72549%,14.509804%);fill-opacity:1;" d="M 38.25 6.25 C 37.453125 7.984375 37.121094 9.816406 37.25 11.75 C 36.890625 11.542969 36.640625 11.207031 36.5 10.75 C 35.355469 13.773438 34.269531 16.773438 33.25 19.75 C 31.917969 19.0625 30.503906 18.5625 29 18.25 C 28.347656 18.320312 27.933594 18.652344 27.75 19.25 C 27.28125 21.523438 26.28125 23.523438 24.75 25.25 C 24.75 25.582031 24.582031 25.75 24.25 25.75 C 24.25 25.25 24.25 24.75 24.25 24.25 C 23.5625 24.328125 22.898438 24.246094 22.25 24 C 20.851562 23.230469 19.851562 22.148438 19.25 20.75 C 20.695312 21.003906 21.859375 20.671875 22.75 19.75 C 22.042969 14.910156 23.457031 14.078125 27 17.25 C 29.449219 15.390625 31.199219 13.058594 32.25 10.25 C 34.144531 9.46875 35.644531 8.21875 36.75 6.5 C 37.222656 6.257812 37.722656 6.175781 38.25 6.25 Z M 38.25 6.25 "/>
<path style=" stroke:none;fill-rule:evenodd;fill:rgb(100%,62.745098%,21.960784%);fill-opacity:1;" d="M 43.25 6.75 C 42.941406 6.804688 42.691406 6.972656 42.5 7.25 C 42.332031 8.917969 42.167969 10.582031 42 12.25 C 40.1875 14.320312 38.605469 14.152344 37.25 11.75 C 37.121094 9.816406 37.453125 7.984375 38.25 6.25 C 39.617188 5.164062 41.117188 4.996094 42.75 5.75 C 43.148438 5.976562 43.316406 6.3125 43.25 6.75 Z M 43.25 6.75 "/>
<path style=" stroke:none;fill-rule:evenodd;fill:rgb(95.686275%,45.882353%,14.901961%);fill-opacity:1;" d="M 61.25 9.75 C 59.410156 9.636719 57.578125 9.472656 55.75 9.25 C 54.058594 9.269531 52.394531 9.105469 50.75 8.75 C 50.710938 9.464844 50.878906 10.132812 51.25 10.75 C 51.074219 11.261719 50.738281 11.59375 50.25 11.75 C 50.476562 8.207031 48.8125 6.707031 45.25 7.25 C 44.714844 6.78125 44.050781 6.617188 43.25 6.75 C 43.316406 6.3125 43.148438 5.976562 42.75 5.75 C 41.117188 4.996094 39.617188 5.164062 38.25 6.25 C 37.722656 6.175781 37.222656 6.257812 36.75 6.5 C 35.644531 8.21875 34.144531 9.46875 32.25 10.25 C 33.710938 6.035156 36.628906 3.535156 41 2.75 C 45.054688 4.320312 48.972656 6.234375 52.75 8.5 C 55.25 8.667969 57.75 8.832031 60.25 9 C 60.707031 9.140625 61.039062 9.390625 61.25 9.75 Z M 61.25 9.75 "/>
<path style=" stroke:none;fill-rule:evenodd;fill:rgb(100%,65.490196%,18.431373%);fill-opacity:1;" d="M 33.25 19.75 C 33.351562 20.695312 33.019531 21.445312 32.25 22 C 29.648438 22.804688 28.148438 21.886719 27.75 19.25 C 27.933594 18.652344 28.347656 18.320312 29 18.25 C 30.503906 18.5625 31.917969 19.0625 33.25 19.75 Z M 33.25 19.75 "/>
<path style=" stroke:none;fill-rule:evenodd;fill:rgb(18.431373%,21.568627%,25.098039%);fill-opacity:1;" d="M 48.25 22.25 C 49.757812 22.167969 51.257812 22.25 52.75 22.5 C 53.152344 22.652344 53.488281 22.902344 53.75 23.25 C 54.347656 24.773438 54.347656 26.4375 53.75 28.25 C 53.222656 28.175781 52.722656 28.257812 52.25 28.5 C 50.386719 31.457031 49.46875 34.875 49.5 38.75 C 49.144531 39.191406 48.730469 39.523438 48.25 39.75 C 47.359375 38.386719 46.527344 36.972656 45.75 35.5 C 44.488281 35.050781 43.402344 35.300781 42.5 36.25 C 40.832031 39.835938 39.246094 43.417969 37.75 47 C 37.832031 47.582031 37.917969 48.167969 38 48.75 C 39.839844 50.507812 41.589844 52.339844 43.25 54.25 C 40.984375 56.207031 38.984375 58.371094 37.25 60.75 C 39.175781 64.6875 41.175781 68.605469 43.25 72.5 C 44.082031 72.832031 44.917969 72.832031 45.75 72.5 C 47.152344 69.855469 48.820312 67.441406 50.75 65.25 C 50.609375 66.480469 50.109375 67.566406 49.25 68.5 C 50.554688 70.230469 50.554688 71.980469 49.25 73.75 C 49.527344 75.027344 50.027344 76.195312 50.75 77.25 C 50.644531 77.542969 50.476562 77.792969 50.25 78 C 51.261719 78.199219 51.925781 78.785156 52.25 79.75 C 53.023438 80.226562 53.855469 80.390625 54.75 80.25 C 59.753906 82.085938 64.917969 82.667969 70.25 82 C 71.347656 81.535156 72.347656 80.953125 73.25 80.25 C 73.472656 80.617188 73.554688 81.117188 73.5 81.75 C 74.035156 81.898438 74.621094 81.898438 75.25 81.75 C 75.042969 82.875 74.375 83.625 73.25 84 C 71.179688 84.417969 69.179688 84.835938 67.25 85.25 C 63.078125 85.636719 58.914062 86.136719 54.75 86.75 C 41.371094 85.851562 32.621094 79.019531 28.5 66.25 C 26.519531 56.980469 26.851562 47.8125 29.5 38.75 C 32.886719 29.941406 39.136719 24.441406 48.25 22.25 Z M 48.25 22.25 "/>
<path style=" stroke:none;fill-rule:evenodd;fill:rgb(99.607843%,32.54902%,2.352941%);fill-opacity:1;" d="M 34.25 21.25 C 34.324219 21.777344 34.242188 22.277344 34 22.75 C 31.042969 25.851562 28.460938 29.183594 26.25 32.75 C 26.082031 32.25 25.75 31.917969 25.25 31.75 C 23.914062 30.828125 23.414062 29.492188 23.75 27.75 C 23.714844 27.019531 23.882812 26.355469 24.25 25.75 C 24.582031 25.75 24.75 25.582031 24.75 25.25 C 26.109375 24.6875 27.273438 23.851562 28.25 22.75 C 28.804688 23.304688 29.472656 23.640625 30.25 23.75 C 31.785156 23.15625 33.117188 22.320312 34.25 21.25 Z M 34.25 21.25 "/>
<use xlink:href="#surface8" mask="url(#mask1)"/>
<path style=" stroke:none;fill-rule:evenodd;fill:rgb(99.215686%,66.27451%,29.411765%);fill-opacity:1;" d="M 19.25 20.75 C 19.851562 22.148438 20.851562 23.230469 22.25 24 C 22.898438 24.246094 23.5625 24.328125 24.25 24.25 C 24.25 24.75 24.25 25.25 24.25 25.75 C 23.882812 26.355469 23.714844 27.019531 23.75 27.75 C 21.488281 29.234375 19.488281 28.902344 17.75 26.75 C 16.855469 25.386719 16.605469 23.886719 17 22.25 C 17.566406 21.429688 18.316406 20.929688 19.25 20.75 Z M 19.25 20.75 "/>
<path style=" stroke:none;fill-rule:evenodd;fill:rgb(83.137255%,11.372549%,7.843137%);fill-opacity:1;" d="M 39.25 23.25 C 32.953125 27.847656 28.621094 33.847656 26.25 41.25 C 26.097656 40.039062 26.261719 38.871094 26.75 37.75 C 28.582031 34.585938 30 31.253906 31 27.75 C 31.554688 27.144531 32.140625 27.144531 32.75 27.75 C 33.148438 26.960938 33.398438 26.128906 33.5 25.25 C 33.855469 25.988281 34.4375 26.320312 35.25 26.25 C 35.25 25.582031 35.25 24.917969 35.25 24.25 C 36.097656 24.332031 36.933594 24.246094 37.75 24 C 37.144531 23.554688 37.144531 23.136719 37.75 22.75 C 38.207031 23.0625 38.707031 23.230469 39.25 23.25 Z M 39.25 23.25 "/>
<path style=" stroke:none;fill-rule:evenodd;fill:rgb(12.941176%,11.764706%,12.941176%);fill-opacity:1;" d="M 75.75 23.25 C 77.171875 23.585938 78.421875 24.253906 79.5 25.25 C 80.761719 27.109375 81.761719 29.109375 82.5 31.25 C 83.542969 33.300781 83.207031 35.136719 81.5 36.75 C 81.179688 37.632812 81.261719 38.464844 81.75 39.25 C 80.503906 39.085938 79.421875 38.585938 78.5 37.75 C 77.945312 34.925781 77.445312 32.09375 77 29.25 C 76.375 27.710938 75.460938 26.378906 74.25 25.25 C 74.761719 24.574219 75.261719 23.90625 75.75 23.25 Z M 75.75 23.25 "/>
<use xlink:href="#surface11" mask="url(#mask2)"/>
<path style=" stroke:none;fill-rule:evenodd;fill:rgb(46.27451%,10.588235%,4.313725%);fill-opacity:1;" d="M 14.25 32.75 C 14.71875 33.285156 14.882812 33.949219 14.75 34.75 C 13.25 34.75 11.75 34.75 10.25 34.75 C 11.472656 34.261719 12.808594 34.097656 14.25 34.25 C 14.25 33.75 14.25 33.25 14.25 32.75 Z M 14.25 32.75 "/>
<path style=" stroke:none;fill-rule:evenodd;fill:rgb(93.333333%,92.54902%,91.764706%);fill-opacity:1;" d="M 85.25 34.25 C 86.925781 34.167969 88.589844 34.25 90.25 34.5 C 91.664062 35.761719 91.496094 36.761719 89.75 37.5 C 87.589844 37.75 85.421875 37.832031 83.25 37.75 C 83.480469 36.347656 84.148438 35.183594 85.25 34.25 Z M 85.25 34.25 "/>
<path style=" stroke:none;fill-rule:evenodd;fill:rgb(99.607843%,38.823529%,5.490196%);fill-opacity:1;" d="M 25.25 31.75 C 25.75 31.917969 26.082031 32.25 26.25 32.75 C 25.414062 34 24.332031 35 23 35.75 C 21.535156 38.796875 20.703125 41.964844 20.5 45.25 C 21.039062 46.035156 21.453125 46.867188 21.75 47.75 C 21.347656 49.222656 21.183594 50.722656 21.25 52.25 C 20.855469 51.695312 20.605469 51.027344 20.5 50.25 C 20.339844 51.152344 20.007812 51.316406 19.5 50.75 C 18.65625 51.164062 18.574219 51.664062 19.25 52.25 C 18.476562 52.8125 17.8125 52.644531 17.25 51.75 C 16.957031 51.855469 16.707031 52.023438 16.5 52.25 C 14.960938 51.855469 13.378906 51.605469 11.75 51.5 C 12.371094 51.15625 12.371094 50.90625 11.75 50.75 C 11.695312 50.441406 11.527344 50.191406 11.25 50 C 12.238281 49.753906 13.238281 49.667969 14.25 49.75 C 14.28125 48.703125 14.78125 47.953125 15.75 47.5 C 15.082031 47.332031 14.417969 47.167969 13.75 47 C 14.335938 46.789062 14.835938 46.457031 15.25 46 C 14.417969 45.832031 13.582031 45.667969 12.75 45.5 C 13.855469 45.40625 14.855469 45.15625 15.75 44.75 C 18.503906 43.574219 19.335938 41.574219 18.25 38.75 C 17.550781 36.390625 17.882812 34.222656 19.25 32.25 C 20.082031 32.25 20.917969 32.25 21.75 32.25 C 22.894531 32.121094 23.980469 32.289062 25 32.75 C 25.230469 32.453125 25.316406 32.121094 25.25 31.75 Z M 25.25 31.75 "/>
<path style=" stroke:none;fill-rule:evenodd;fill:rgb(91.764706%,92.156863%,92.156863%);fill-opacity:1;" d="M 84.75 39.25 C 86.417969 39.25 88.082031 39.25 89.75 39.25 C 89.75 40.75 89.75 42.25 89.75 43.75 C 87.558594 43.914062 85.390625 43.746094 83.25 43.25 C 82.382812 41.386719 82.882812 40.050781 84.75 39.25 Z M 84.75 39.25 "/>
<use xlink:href="#surface14" mask="url(#mask3)"/>
<path style=" stroke:none;fill-rule:evenodd;fill:rgb(87.058824%,86.666667%,86.666667%);fill-opacity:1;" d="M 90.25 38.75 C 93.507812 38.53125 94.839844 40.03125 94.25 43.25 C 92.917969 43.25 91.582031 43.25 90.25 43.25 C 90.25 41.75 90.25 40.25 90.25 38.75 Z M 90.25 38.75 "/>
<path style=" stroke:none;fill-rule:evenodd;fill:rgb(100%,61.960784%,21.176471%);fill-opacity:1;" d="M 18.25 38.75 C 19.335938 41.574219 18.503906 43.574219 15.75 44.75 C 13.847656 44.917969 12.011719 44.667969 10.25 44 C 8.902344 42.671875 8.484375 41.089844 9 39.25 C 11.980469 38.082031 15.0625 37.914062 18.25 38.75 Z M 18.25 38.75 "/>
<path style=" stroke:none;fill-rule:evenodd;fill:rgb(90.588235%,90.588235%,90.588235%);fill-opacity:1;" d="M 90.25 44.75 C 92.027344 44.574219 93.695312 44.90625 95.25 45.75 C 96.726562 47.429688 96.5625 48.84375 94.75 50 C 93.257812 50.25 91.757812 50.332031 90.25 50.25 C 90.25 48.417969 90.25 46.582031 90.25 44.75 Z M 90.25 44.75 "/>
<use xlink:href="#surface17" mask="url(#mask4)"/>
<path style=" stroke:none;fill-rule:evenodd;fill:rgb(18.431373%,20%,23.137255%);fill-opacity:1;" d="M 48.25 22.25 C 53.40625 21.429688 58.570312 21.679688 63.75 23 C 67.746094 23.25 71.746094 23.332031 75.75 23.25 C 75.261719 23.90625 74.761719 24.574219 74.25 25.25 C 75.460938 26.378906 76.375 27.710938 77 29.25 C 77.445312 32.09375 77.945312 34.925781 78.5 37.75 C 79.421875 38.585938 80.503906 39.085938 81.75 39.25 C 82.144531 44.742188 82.308594 50.242188 82.25 55.75 C 82.507812 60.082031 82.171875 64.417969 81.25 68.75 C 80.425781 69.324219 79.675781 69.992188 79 70.75 C 77.589844 74.425781 76.339844 78.09375 75.25 81.75 C 74.621094 81.898438 74.035156 81.898438 73.5 81.75 C 73.554688 81.117188 73.472656 80.617188 73.25 80.25 C 78.183594 67.792969 73.933594 60.960938 60.5 59.75 C 58.53125 60.898438 56.863281 62.398438 55.5 64.25 C 55.140625 63.773438 54.722656 63.691406 54.25 64 C 49.417969 69.582031 49.582031 74.996094 54.75 80.25 C 53.855469 80.390625 53.023438 80.226562 52.25 79.75 C 51.925781 78.785156 51.261719 78.199219 50.25 78 C 50.476562 77.792969 50.644531 77.542969 50.75 77.25 C 50.027344 76.195312 49.527344 75.027344 49.25 73.75 C 50.554688 71.980469 50.554688 70.230469 49.25 68.5 C 50.109375 67.566406 50.609375 66.480469 50.75 65.25 C 53.550781 61.449219 56.550781 57.78125 59.75 54.25 C 55.714844 49.550781 51.882812 44.71875 48.25 39.75 C 48.730469 39.523438 49.144531 39.191406 49.5 38.75 C 49.46875 34.875 50.386719 31.457031 52.25 28.5 C 52.722656 28.257812 53.222656 28.175781 53.75 28.25 C 54.347656 26.4375 54.347656 24.773438 53.75 23.25 C 53.488281 22.902344 53.152344 22.652344 52.75 22.5 C 51.257812 22.25 49.757812 22.167969 48.25 22.25 Z M 48.25 22.25 "/>
<path style=" stroke:none;fill-rule:evenodd;fill:rgb(13.72549%,13.333333%,14.509804%);fill-opacity:1;" d="M 56.75 26.25 C 61.085938 26.167969 65.421875 26.25 69.75 26.5 C 70.871094 27.019531 71.957031 27.601562 73 28.25 C 77.003906 34.386719 76.585938 40.136719 71.75 45.5 C 66.894531 49.140625 61.894531 49.476562 56.75 46.5 C 54.824219 44.660156 52.992188 42.742188 51.25 40.75 C 49.355469 34.390625 51.1875 29.558594 56.75 26.25 Z M 56.75 26.25 "/>
<path style=" stroke:none;fill-rule:evenodd;fill:rgb(1.176471%,1.176471%,1.568627%);fill-opacity:1;" d="M 61.25 27.25 C 71.433594 26.84375 75.183594 31.511719 72.5 41.25 C 68.371094 46.585938 63.285156 47.667969 57.25 44.5 C 54.097656 41.464844 53.347656 37.882812 55 33.75 C 55.839844 30.328125 57.925781 28.160156 61.25 27.25 Z M 61.25 27.25 "/>
<path style=" stroke:none;fill-rule:evenodd;fill:rgb(93.333333%,93.72549%,93.72549%);fill-opacity:1;" d="M 89.25 45.25 C 89.25 46.917969 89.25 48.582031 89.25 50.25 C 87.410156 50.332031 85.574219 50.25 83.75 50 C 83.199219 48.800781 83.117188 47.550781 83.5 46.25 C 85.265625 44.75 87.183594 44.417969 89.25 45.25 Z M 89.25 45.25 "/>
<path style=" stroke:none;fill-rule:evenodd;fill:rgb(1.176471%,1.568627%,2.352941%);fill-opacity:1;" d="M 76.25 50.25 C 80.464844 50.804688 80.796875 52.21875 77.25 54.5 C 79.398438 55.421875 79.730469 56.757812 78.25 58.5 C 74.765625 58.636719 71.683594 57.554688 69 55.25 C 68.65625 54.609375 68.742188 54.023438 69.25 53.5 C 71.554688 52.265625 73.886719 51.179688 76.25 50.25 Z M 76.25 50.25 "/>
<path style=" stroke:none;fill-rule:evenodd;fill:rgb(20%,21.176471%,21.568627%);fill-opacity:1;" d="M 89.25 45.25 C 89.660156 46.988281 89.910156 48.820312 90 50.75 C 91.304688 51.0625 92.554688 51.394531 93.75 51.75 C 92.582031 51.75 91.417969 51.75 90.25 51.75 C 90.25 53.582031 90.25 55.417969 90.25 57.25 C 89.917969 55.417969 89.582031 53.582031 89.25 51.75 C 89.25 51.582031 89.25 51.417969 89.25 51.25 C 89.25 50.917969 89.25 50.582031 89.25 50.25 C 89.25 48.582031 89.25 46.917969 89.25 45.25 Z M 89.25 45.25 "/>
<path style=" stroke:none;fill-rule:evenodd;fill:rgb(94.901961%,95.294118%,94.901961%);fill-opacity:1;" d="M 93.75 51.75 C 94.859375 51.589844 95.777344 51.921875 96.5 52.75 C 97.058594 54.5 96.644531 55.917969 95.25 57 C 93.589844 57.25 91.925781 57.332031 90.25 57.25 C 90.25 55.417969 90.25 53.582031 90.25 51.75 C 91.417969 51.75 92.582031 51.75 93.75 51.75 Z M 93.75 51.75 "/>
<path style=" stroke:none;fill-rule:evenodd;fill:rgb(90.588235%,10.980392%,5.490196%);fill-opacity:1;" d="M 60.25 12.75 C 59.746094 13.667969 58.996094 14.335938 58 14.75 C 57.226562 16.15625 56.808594 17.65625 56.75 19.25 C 50.507812 18.945312 44.671875 20.277344 39.25 23.25 C 38.707031 23.230469 38.207031 23.0625 37.75 22.75 C 37.144531 23.136719 37.144531 23.554688 37.75 24 C 36.933594 24.246094 36.097656 24.332031 35.25 24.25 C 35.25 24.917969 35.25 25.582031 35.25 26.25 C 34.4375 26.320312 33.855469 25.988281 33.5 25.25 C 33.398438 26.128906 33.148438 26.960938 32.75 27.75 C 32.140625 27.144531 31.554688 27.144531 31 27.75 C 30 31.253906 28.582031 34.585938 26.75 37.75 C 26.261719 38.871094 26.097656 40.039062 26.25 41.25 C 26.230469 42.992188 25.898438 44.660156 25.25 46.25 C 24.667969 52.828125 24.585938 59.496094 25 66.25 C 25.679688 66.683594 26.261719 67.183594 26.75 67.75 C 29.976562 76.808594 35.976562 83.308594 44.75 87.25 C 44.902344 87.574219 45.070312 87.910156 45.25 88.25 C 46.890625 88.660156 48.558594 88.910156 50.25 89 C 50.082031 89.167969 49.917969 89.332031 49.75 89.5 C 52.078125 89.75 54.410156 89.832031 56.75 89.75 C 56.617188 90.550781 56.78125 91.214844 57.25 91.75 C 57.25 92.25 57.25 92.75 57.25 93.25 C 56.753906 93.292969 56.335938 93.125 56 92.75 C 55.832031 93.25 55.667969 93.75 55.5 94.25 C 54.140625 93.683594 52.890625 92.933594 51.75 92 C 50.425781 91.75 49.09375 91.667969 47.75 91.75 C 45.996094 90 43.914062 88.832031 41.5 88.25 C 40.945312 88.292969 40.445312 88.460938 40 88.75 C 38.886719 86.265625 37.386719 86.097656 35.5 88.25 C 35.75 87.238281 35.664062 86.238281 35.25 85.25 C 34.242188 84.914062 33.410156 84.328125 32.75 83.5 C 31.59375 83.167969 30.425781 82.917969 29.25 82.75 C 29.15625 81.398438 28.65625 80.230469 27.75 79.25 C 26.84375 74.285156 25.179688 69.617188 22.75 65.25 C 21.527344 64.546875 20.441406 64.710938 19.5 65.75 C 19.167969 64.75 19.167969 63.75 19.5 62.75 C 20.550781 61.953125 21.300781 60.953125 21.75 59.75 C 22.5 57.183594 22.335938 54.683594 21.25 52.25 C 21.183594 50.722656 21.347656 49.222656 21.75 47.75 C 21.453125 46.867188 21.039062 46.035156 20.5 45.25 C 20.703125 41.964844 21.535156 38.796875 23 35.75 C 24.332031 35 25.414062 34 26.25 32.75 C 28.460938 29.183594 31.042969 25.851562 34 22.75 C 34.242188 22.277344 34.324219 21.777344 34.25 21.25 C 35.832031 19.917969 36.914062 18.25 37.5 16.25 C 37.902344 16.902344 38.484375 17.234375 39.25 17.25 C 41.371094 16.53125 43.457031 15.699219 45.5 14.75 C 47.90625 16.730469 50.324219 16.730469 52.75 14.75 C 53.480469 14.269531 54.148438 13.6875 54.75 13 C 55.785156 12.65625 56.785156 12.738281 57.75 13.25 C 58.097656 12.988281 58.347656 12.652344 58.5 12.25 C 59.003906 12.667969 59.589844 12.835938 60.25 12.75 Z M 60.25 12.75 "/>
<path style=" stroke:none;fill-rule:evenodd;fill:rgb(91.764706%,92.941176%,92.941176%);fill-opacity:1;" d="M 89.25 51.25 C 89.25 51.417969 89.25 51.582031 89.25 51.75 C 89.25 53.582031 89.25 55.417969 89.25 57.25 C 87.21875 57.347656 85.21875 57.179688 83.25 56.75 C 83.25 55.417969 83.25 54.082031 83.25 52.75 C 84.984375 51.441406 86.984375 50.941406 89.25 51.25 Z M 89.25 51.25 "/>
<path style=" stroke:none;fill-rule:evenodd;fill:rgb(100%,63.921569%,21.960784%);fill-opacity:1;" d="M 11.25 52.25 C 15.972656 51.558594 18.222656 53.558594 18 58.25 C 17.644531 58.691406 17.230469 59.023438 16.75 59.25 C 14.144531 59.03125 11.8125 58.113281 9.75 56.5 C 7.90625 56.621094 6.574219 55.871094 5.75 54.25 C 6.332031 53.707031 7 53.292969 7.75 53 C 9.019531 52.90625 10.183594 52.65625 11.25 52.25 Z M 11.25 52.25 "/>
<path style=" stroke:none;fill-rule:evenodd;fill:rgb(96.862745%,42.745098%,10.980392%);fill-opacity:1;" d="M 17.75 26.75 C 19.488281 28.902344 21.488281 29.234375 23.75 27.75 C 23.414062 29.492188 23.914062 30.828125 25.25 31.75 C 25.316406 32.121094 25.230469 32.453125 25 32.75 C 23.980469 32.289062 22.894531 32.121094 21.75 32.25 C 21.976562 31.769531 22.308594 31.355469 22.75 31 C 20.816406 28.710938 18.980469 28.710938 17.25 31 C 17.515625 32.011719 18.183594 32.425781 19.25 32.25 C 17.882812 34.222656 17.550781 36.390625 18.25 38.75 C 15.0625 37.914062 11.980469 38.082031 9 39.25 C 8.484375 41.089844 8.902344 42.671875 10.25 44 C 12.011719 44.667969 13.847656 44.917969 15.75 44.75 C 14.855469 45.15625 13.855469 45.40625 12.75 45.5 C 13.582031 45.667969 14.417969 45.832031 15.25 46 C 14.835938 46.457031 14.335938 46.789062 13.75 47 C 14.417969 47.167969 15.082031 47.332031 15.75 47.5 C 14.78125 47.953125 14.28125 48.703125 14.25 49.75 C 13.238281 49.667969 12.238281 49.753906 11.25 50 C 11.527344 50.191406 11.695312 50.441406 11.75 50.75 C 10.242188 50.667969 8.742188 50.75 7.25 51 C 9.074219 51.054688 10.40625 51.472656 11.25 52.25 C 10.183594 52.65625 9.019531 52.90625 7.75 53 C 7 53.292969 6.332031 53.707031 5.75 54.25 C 6.574219 55.871094 7.90625 56.621094 9.75 56.5 C 11.8125 58.113281 14.144531 59.03125 16.75 59.25 C 16.097656 59.734375 15.761719 60.402344 15.75 61.25 C 14.582031 61.25 13.417969 61.25 12.25 61.25 C 9.09375 60.515625 6.34375 59.015625 4 56.75 C 2.386719 52.675781 3.800781 50.261719 8.25 49.5 C 9.941406 49.410156 11.609375 49.160156 13.25 48.75 C 11.617188 47.097656 9.785156 45.679688 7.75 44.5 C 6.359375 43.445312 5.359375 42.109375 4.75 40.5 C 6.175781 39.070312 7.425781 37.484375 8.5 35.75 C 8.90625 35.089844 9.492188 34.753906 10.25 34.75 C 11.75 34.75 13.25 34.75 14.75 34.75 C 14.882812 33.949219 14.71875 33.285156 14.25 32.75 C 12.078125 28.761719 13.242188 26.761719 17.75 26.75 Z M 17.75 26.75 "/>
<path style=" stroke:none;fill-rule:evenodd;fill:rgb(99.607843%,68.235294%,32.941176%);fill-opacity:1;" d="M 21.75 32.25 C 20.917969 32.25 20.082031 32.25 19.25 32.25 C 18.183594 32.425781 17.515625 32.011719 17.25 31 C 18.980469 28.710938 20.816406 28.710938 22.75 31 C 22.308594 31.355469 21.976562 31.769531 21.75 32.25 Z M 21.75 32.25 "/>
<path style=" stroke:none;fill-rule:evenodd;fill:rgb(94.117647%,94.901961%,95.294118%);fill-opacity:1;" d="M 84.25 58.25 C 86.019531 58.09375 87.6875 58.261719 89.25 58.75 C 89.25 60.417969 89.25 62.082031 89.25 63.75 C 87.328125 63.878906 85.496094 63.546875 83.75 62.75 C 83.042969 61.101562 83.210938 59.601562 84.25 58.25 Z M 84.25 58.25 "/>
<path style=" stroke:none;fill-rule:evenodd;fill:rgb(93.333333%,93.72549%,94.117647%);fill-opacity:1;" d="M 94.75 63.75 C 93.25 63.75 91.75 63.75 90.25 63.75 C 90.25 62.25 90.25 60.75 90.25 59.25 C 90.757812 58.617188 91.507812 58.285156 92.5 58.25 C 93.796875 58.1875 94.960938 58.519531 96 59.25 C 96.535156 61.070312 96.117188 62.570312 94.75 63.75 Z M 94.75 63.75 "/>
<path style=" stroke:none;fill-rule:evenodd;fill:rgb(98.039216%,41.568627%,9.019608%);fill-opacity:1;" d="M 21.25 52.25 C 22.335938 54.683594 22.5 57.183594 21.75 59.75 C 20.277344 60.65625 18.777344 61.570312 17.25 62.5 C 18.472656 63.785156 19.058594 65.367188 19 67.25 C 19.730469 68.210938 20.5625 68.542969 21.5 68.25 C 21.71875 69.039062 22.136719 69.703125 22.75 70.25 C 22.6875 70.554688 22.523438 70.71875 22.25 70.75 C 20.507812 69.929688 19.007812 70.265625 17.75 71.75 C 16.484375 69.644531 14.816406 67.894531 12.75 66.5 C 9.03125 65.878906 8.03125 67.214844 9.75 70.5 C 10.625 70.734375 11.457031 71.070312 12.25 71.5 C 14.070312 73.242188 16.070312 74.742188 18.25 76 C 16.59375 76.96875 16.011719 78.386719 16.5 80.25 C 16.835938 80.625 17.253906 80.792969 17.75 80.75 C 17.75 80.917969 17.75 81.082031 17.75 81.25 C 16.738281 81.332031 15.738281 81.246094 14.75 81 C 14.441406 79.070312 14.023438 77.152344 13.5 75.25 C 11.609375 73.679688 9.523438 72.429688 7.25 71.5 C 5.316406 70.417969 4.566406 68.835938 5 66.75 C 7.226562 64.601562 9.640625 62.765625 12.25 61.25 C 13.417969 61.25 14.582031 61.25 15.75 61.25 C 15.761719 60.402344 16.097656 59.734375 16.75 59.25 C 17.230469 59.023438 17.644531 58.691406 18 58.25 C 18.222656 53.558594 15.972656 51.558594 11.25 52.25 C 10.40625 51.472656 9.074219 51.054688 7.25 51 C 8.742188 50.75 10.242188 50.667969 11.75 50.75 C 12.371094 50.90625 12.371094 51.15625 11.75 51.5 C 13.378906 51.605469 14.960938 51.855469 16.5 52.25 C 16.707031 52.023438 16.957031 51.855469 17.25 51.75 C 17.8125 52.644531 18.476562 52.8125 19.25 52.25 C 18.574219 51.664062 18.65625 51.164062 19.5 50.75 C 20.007812 51.316406 20.339844 51.152344 20.5 50.25 C 20.605469 51.027344 20.855469 51.695312 21.25 52.25 Z M 21.25 52.25 "/>
<path style=" stroke:none;fill-rule:evenodd;fill:rgb(12.54902%,12.156863%,13.72549%);fill-opacity:1;" d="M 73.25 80.25 C 72.347656 80.953125 71.347656 81.535156 70.25 82 C 64.917969 82.667969 59.753906 82.085938 54.75 80.25 C 49.582031 74.996094 49.417969 69.582031 54.25 64 C 54.722656 63.691406 55.140625 63.773438 55.5 64.25 C 56.863281 62.398438 58.53125 60.898438 60.5 59.75 C 73.933594 60.960938 78.183594 67.792969 73.25 80.25 Z M 73.25 80.25 "/>
<path style=" stroke:none;fill-rule:evenodd;fill:rgb(95.686275%,96.862745%,97.254902%);fill-opacity:1;" d="M 48.25 39.75 C 51.882812 44.71875 55.714844 49.550781 59.75 54.25 C 56.550781 57.78125 53.550781 61.449219 50.75 65.25 C 48.820312 67.441406 47.152344 69.855469 45.75 72.5 C 44.917969 72.832031 44.082031 72.832031 43.25 72.5 C 41.175781 68.605469 39.175781 64.6875 37.25 60.75 C 38.984375 58.371094 40.984375 56.207031 43.25 54.25 C 41.589844 52.339844 39.839844 50.507812 38 48.75 C 37.917969 48.167969 37.832031 47.582031 37.75 47 C 39.246094 43.417969 40.832031 39.835938 42.5 36.25 C 43.402344 35.300781 44.488281 35.050781 45.75 35.5 C 46.527344 36.972656 47.359375 38.386719 48.25 39.75 Z M 48.25 39.75 "/>
<path style=" stroke:none;fill-rule:evenodd;fill:rgb(16.078431%,18.431373%,21.568627%);fill-opacity:1;" d="M 44.25 42.75 C 47.890625 46.230469 51.222656 50.0625 54.25 54.25 C 51.257812 58.242188 48.089844 62.074219 44.75 65.75 C 43.605469 64.550781 42.773438 63.132812 42.25 61.5 C 44.132812 59.617188 46.050781 57.699219 48 55.75 C 48.332031 54.917969 48.332031 54.082031 48 53.25 C 46.351562 51.101562 44.519531 49.101562 42.5 47.25 C 42.511719 45.554688 43.09375 44.054688 44.25 42.75 Z M 44.25 42.75 "/>
<path style=" stroke:none;fill-rule:evenodd;fill:rgb(0.392157%,0.392157%,0.784314%);fill-opacity:1;" d="M 60.75 63.75 C 63.632812 63.574219 66.464844 63.824219 69.25 64.5 C 74.164062 68.003906 75.082031 72.421875 72 77.75 C 68.96875 81.089844 65.21875 82.175781 60.75 81 C 55.445312 78.425781 53.863281 74.339844 56 68.75 C 57.011719 66.488281 58.59375 64.824219 60.75 63.75 Z M 60.75 63.75 "/>
<path style=" stroke:none;fill-rule:evenodd;fill:rgb(79.607843%,17.647059%,12.54902%);fill-opacity:1;" d="M 25.25 46.25 C 25.015625 53.480469 25.515625 60.648438 26.75 67.75 C 26.261719 67.183594 25.679688 66.683594 25 66.25 C 24.585938 59.496094 24.667969 52.828125 25.25 46.25 Z M 25.25 46.25 "/>
<path style=" stroke:none;fill-rule:evenodd;fill:rgb(92.941176%,94.117647%,94.509804%);fill-opacity:1;" d="M 89.25 68.75 C 88.742188 69.382812 87.992188 69.714844 87 69.75 C 85.148438 70.035156 83.898438 69.367188 83.25 67.75 C 83.128906 66.765625 83.296875 65.847656 83.75 65 C 85.574219 64.75 87.410156 64.667969 89.25 64.75 C 89.25 66.082031 89.25 67.417969 89.25 68.75 Z M 89.25 68.75 "/>
<path style=" stroke:none;fill-rule:evenodd;fill:rgb(99.607843%,61.568627%,25.098039%);fill-opacity:1;" d="M 22.25 70.75 C 22.25 71.082031 22.25 71.417969 22.25 71.75 C 22.757812 73.695312 22.757812 75.613281 22.25 77.5 C 22.828125 78.003906 23.164062 78.671875 23.25 79.5 C 22.953125 80.539062 22.953125 81.453125 23.25 82.25 C 22.492188 83.386719 21.40625 84.050781 20 84.25 C 19.5625 85.335938 19.8125 86.171875 20.75 86.75 C 20.355469 87.199219 19.855469 87.535156 19.25 87.75 C 17.453125 85.941406 17.285156 83.941406 18.75 81.75 C 19.238281 81.59375 19.570312 81.261719 19.75 80.75 C 19.148438 80.355469 18.484375 80.355469 17.75 80.75 C 17.253906 80.792969 16.835938 80.625 16.5 80.25 C 16.011719 78.386719 16.59375 76.96875 18.25 76 C 16.070312 74.742188 14.070312 73.242188 12.25 71.5 C 11.457031 71.070312 10.625 70.734375 9.75 70.5 C 8.03125 67.214844 9.03125 65.878906 12.75 66.5 C 14.816406 67.894531 16.484375 69.644531 17.75 71.75 C 19.007812 70.265625 20.507812 69.929688 22.25 70.75 Z M 22.25 70.75 "/>
<path style=" stroke:none;fill-rule:evenodd;fill:rgb(95.294118%,95.686275%,96.078431%);fill-opacity:1;" d="M 90.25 65.25 C 91.917969 65.25 93.582031 65.25 95.25 65.25 C 95.363281 67.535156 94.363281 69.035156 92.25 69.75 C 91.582031 69.75 90.917969 69.75 90.25 69.75 C 90.25 69.417969 90.25 69.082031 90.25 68.75 C 90.25 67.582031 90.25 66.417969 90.25 65.25 Z M 90.25 65.25 "/>
<path style=" stroke:none;fill-rule:evenodd;fill:rgb(99.607843%,36.862745%,9.411765%);fill-opacity:1;" d="M 21.75 59.75 C 21.300781 60.953125 20.550781 61.953125 19.5 62.75 C 19.167969 63.75 19.167969 64.75 19.5 65.75 C 20.441406 64.710938 21.527344 64.546875 22.75 65.25 C 25.179688 69.617188 26.84375 74.285156 27.75 79.25 C 26.722656 78.527344 25.640625 77.859375 24.5 77.25 C 24.363281 75.804688 23.945312 74.46875 23.25 73.25 C 24.140625 72.03125 23.804688 71.53125 22.25 71.75 C 22.25 71.417969 22.25 71.082031 22.25 70.75 C 22.523438 70.71875 22.6875 70.554688 22.75 70.25 C 22.136719 69.703125 21.71875 69.039062 21.5 68.25 C 20.5625 68.542969 19.730469 68.210938 19 67.25 C 19.058594 65.367188 18.472656 63.785156 17.25 62.5 C 18.777344 61.570312 20.277344 60.65625 21.75 59.75 Z M 21.75 59.75 "/>
<path style=" stroke:none;fill-rule:evenodd;fill:rgb(12.54902%,12.156863%,13.72549%);fill-opacity:1;" d="M 83.25 52.75 C 83.25 54.082031 83.25 55.417969 83.25 56.75 C 83.582031 57.25 83.917969 57.75 84.25 58.25 C 83.210938 59.601562 83.042969 61.101562 83.75 62.75 C 85.496094 63.546875 87.328125 63.878906 89.25 63.75 C 89.25 62.082031 89.25 60.417969 89.25 58.75 C 89.582031 58.917969 89.917969 59.082031 90.25 59.25 C 90.25 60.75 90.25 62.25 90.25 63.75 C 91.75 63.75 93.25 63.75 94.75 63.75 C 93.8125 64.191406 92.476562 64.441406 90.75 64.5 C 90.472656 64.691406 90.304688 64.941406 90.25 65.25 C 90.25 66.417969 90.25 67.582031 90.25 68.75 C 89.917969 68.75 89.582031 68.75 89.25 68.75 C 89.25 67.417969 89.25 66.082031 89.25 64.75 C 87.410156 64.667969 85.574219 64.75 83.75 65 C 83.296875 65.847656 83.128906 66.765625 83.25 67.75 C 82.847656 67.023438 82.597656 66.191406 82.5 65.25 C 82.316406 67.425781 82.066406 69.589844 81.75 71.75 C 81.867188 72.898438 82.199219 73.984375 82.75 75 C 81.882812 79.074219 79.882812 82.410156 76.75 85 C 73.601562 85.914062 70.4375 85.996094 67.25 85.25 C 69.179688 84.835938 71.179688 84.417969 73.25 84 C 74.375 83.625 75.042969 82.875 75.25 81.75 C 76.339844 78.09375 77.589844 74.425781 79 70.75 C 79.675781 69.992188 80.425781 69.324219 81.25 68.75 C 82.171875 64.417969 82.507812 60.082031 82.25 55.75 C 82.582031 54.75 82.917969 53.75 83.25 52.75 Z M 83.25 52.75 "/>
<path style=" stroke:none;fill-rule:evenodd;fill:rgb(11.372549%,13.333333%,14.901961%);fill-opacity:1;" d="M 90.25 69.75 C 90.917969 69.75 91.582031 69.75 92.25 69.75 C 92.40625 70.238281 92.738281 70.574219 93.25 70.75 C 94.0625 70.234375 94.898438 70.234375 95.75 70.75 C 95.425781 71.40625 94.925781 71.90625 94.25 72.25 C 93.949219 73.921875 93.285156 75.421875 92.25 76.75 C 90.117188 77.21875 87.949219 77.386719 85.75 77.25 C 85.117188 79.515625 84.203125 81.683594 83 83.75 C 82.59375 84.410156 82.007812 84.746094 81.25 84.75 C 82.964844 82.484375 84.300781 79.984375 85.25 77.25 C 87.230469 76.835938 89.230469 76.585938 91.25 76.5 C 91.917969 76 91.917969 75.5 91.25 75 C 92.421875 74.304688 92.421875 73.886719 91.25 73.75 C 91.351562 72.804688 91.019531 72.054688 90.25 71.5 C 87.921875 71.25 85.589844 71.167969 83.25 71.25 C 85.578125 70.945312 87.910156 70.445312 90.25 69.75 Z M 90.25 69.75 "/>
<path style=" stroke:none;fill-rule:evenodd;fill:rgb(92.54902%,93.333333%,93.333333%);fill-opacity:1;" d="M 83.25 71.25 C 85.589844 71.167969 87.921875 71.25 90.25 71.5 C 91.019531 72.054688 91.351562 72.804688 91.25 73.75 C 91.039062 74.109375 90.707031 74.359375 90.25 74.5 C 88.582031 74.832031 86.917969 74.832031 85.25 74.5 C 84.039062 73.714844 83.371094 72.632812 83.25 71.25 Z M 83.25 71.25 "/>
<path style=" stroke:none;fill-rule:evenodd;fill:rgb(44.705882%,14.509804%,5.882353%);fill-opacity:1;" d="M 18.75 81.75 C 18.578125 81.332031 18.246094 81.164062 17.75 81.25 C 17.75 81.082031 17.75 80.917969 17.75 80.75 C 18.484375 80.355469 19.148438 80.355469 19.75 80.75 C 19.570312 81.261719 19.238281 81.59375 18.75 81.75 Z M 18.75 81.75 "/>
<path style=" stroke:none;fill-rule:evenodd;fill:rgb(100%,69.803922%,32.941176%);fill-opacity:1;" d="M 23.25 82.25 C 25.003906 81.996094 26.585938 82.328125 28 83.25 C 28.128906 85.125 28.464844 86.957031 29 88.75 C 30.453125 89.613281 32.035156 89.945312 33.75 89.75 C 33.792969 91.371094 33.460938 92.871094 32.75 94.25 C 32.222656 94.324219 31.722656 94.242188 31.25 94 C 31.882812 93.101562 31.882812 92.183594 31.25 91.25 C 29.003906 90.128906 27.167969 88.546875 25.75 86.5 C 24.066406 86.226562 22.398438 86.3125 20.75 86.75 C 19.8125 86.171875 19.5625 85.335938 20 84.25 C 21.40625 84.050781 22.492188 83.386719 23.25 82.25 Z M 23.25 82.25 "/>
<path style=" stroke:none;fill-rule:evenodd;fill:rgb(44.705882%,10.980392%,5.098039%);fill-opacity:1;" d="M 23.25 87.75 C 23.960938 87.273438 24.792969 87.109375 25.75 87.25 C 25.75 88.582031 25.75 89.917969 25.75 91.25 C 25.265625 90.195312 25.097656 89.03125 25.25 87.75 C 24.582031 87.75 23.917969 87.75 23.25 87.75 Z M 23.25 87.75 "/>
<path style=" stroke:none;fill-rule:evenodd;fill:rgb(80.392157%,18.431373%,12.54902%);fill-opacity:1;" d="M 44.75 87.25 C 48.828125 88.433594 52.996094 88.933594 57.25 88.75 C 57.25 89.75 57.25 90.75 57.25 91.75 C 56.78125 91.214844 56.617188 90.550781 56.75 89.75 C 54.410156 89.832031 52.078125 89.75 49.75 89.5 C 49.917969 89.332031 50.082031 89.167969 50.25 89 C 48.558594 88.910156 46.890625 88.660156 45.25 88.25 C 45.070312 87.910156 44.902344 87.574219 44.75 87.25 Z M 44.75 87.25 "/>
<path style=" stroke:none;fill-rule:evenodd;fill:rgb(17.647059%,17.647059%,19.215686%);fill-opacity:1;" d="M 62.75 87.25 C 66.589844 87.976562 70.421875 88.308594 74.25 88.25 C 72.699219 94.359375 68.867188 96.609375 62.75 95 C 59.929688 94.097656 58.59375 92.179688 58.75 89.25 C 60.316406 89.011719 61.648438 88.347656 62.75 87.25 Z M 62.75 87.25 "/>
<path style=" stroke:none;fill-rule:evenodd;fill:rgb(98.823529%,43.921569%,11.372549%);fill-opacity:1;" d="M 22.25 71.75 C 23.804688 71.53125 24.140625 72.03125 23.25 73.25 C 23.945312 74.46875 24.363281 75.804688 24.5 77.25 C 25.640625 77.859375 26.722656 78.527344 27.75 79.25 C 28.65625 80.230469 29.15625 81.398438 29.25 82.75 C 30.425781 82.917969 31.59375 83.167969 32.75 83.5 C 33.410156 84.328125 34.242188 84.914062 35.25 85.25 C 35.664062 86.238281 35.75 87.238281 35.5 88.25 C 37.386719 86.097656 38.886719 86.265625 40 88.75 C 40.445312 88.460938 40.945312 88.292969 41.5 88.25 C 43.914062 88.832031 45.996094 90 47.75 91.75 C 48.632812 92.230469 49.632812 92.398438 50.75 92.25 C 50.898438 94.21875 50.730469 96.136719 50.25 98 C 51.007812 98.949219 51.339844 100.03125 51.25 101.25 C 48.050781 103.675781 45.71875 103.007812 44.25 99.25 C 44.398438 98.132812 44.230469 97.132812 43.75 96.25 C 42.257812 93.613281 40.507812 91.113281 38.5 88.75 C 36.8125 91.324219 37.230469 93.574219 39.75 95.5 C 40.902344 95.996094 42.070312 96.410156 43.25 96.75 C 42.242188 98.070312 40.910156 98.488281 39.25 98 C 37.863281 96.808594 36.78125 95.390625 36 93.75 C 35.808594 94.027344 35.558594 94.195312 35.25 94.25 C 35.25 92.582031 35.25 90.917969 35.25 89.25 C 34.605469 89.132812 34.105469 89.296875 33.75 89.75 C 32.035156 89.945312 30.453125 89.613281 29 88.75 C 28.464844 86.957031 28.128906 85.125 28 83.25 C 26.585938 82.328125 25.003906 81.996094 23.25 82.25 C 22.953125 81.453125 22.953125 80.539062 23.25 79.5 C 23.164062 78.671875 22.828125 78.003906 22.25 77.5 C 22.757812 75.613281 22.757812 73.695312 22.25 71.75 Z M 22.25 71.75 "/>
<path style=" stroke:none;fill-rule:evenodd;fill:rgb(37.647059%,10.980392%,6.666667%);fill-opacity:1;" d="M 28.75 91.75 C 30.613281 91.679688 31.027344 92.34375 30 93.75 C 29.75 95.074219 29.667969 96.40625 29.75 97.75 C 29.105469 96.148438 29.105469 94.484375 29.75 92.75 C 29.378906 92.410156 29.046875 92.074219 28.75 91.75 Z M 28.75 91.75 "/>
<path style=" stroke:none;fill-rule:evenodd;fill:rgb(94.117647%,28.235294%,9.411765%);fill-opacity:1;" d="M 47.75 91.75 C 49.09375 91.667969 50.425781 91.75 51.75 92 C 52.890625 92.933594 54.140625 93.683594 55.5 94.25 C 55.667969 93.75 55.832031 93.25 56 92.75 C 56.335938 93.125 56.753906 93.292969 57.25 93.25 C 57.644531 93.898438 58.144531 94.480469 58.75 95 C 58.273438 95.359375 58.191406 95.777344 58.5 96.25 C 60.15625 95.773438 60.15625 95.941406 58.5 96.75 C 57.929688 96.503906 57.347656 96.339844 56.75 96.25 C 55.941406 95.980469 55.109375 95.816406 54.25 95.75 C 54.152344 98.113281 53.152344 99.945312 51.25 101.25 C 51.339844 100.03125 51.007812 98.949219 50.25 98 C 50.730469 96.136719 50.898438 94.21875 50.75 92.25 C 49.632812 92.398438 48.632812 92.230469 47.75 91.75 Z M 47.75 91.75 "/>
<path style=" stroke:none;fill-rule:evenodd;fill:rgb(100%,70.980392%,34.509804%);fill-opacity:1;" d="M 43.75 96.25 C 43.417969 96.25 43.25 96.417969 43.25 96.75 C 42.070312 96.410156 40.902344 95.996094 39.75 95.5 C 37.230469 93.574219 36.8125 91.324219 38.5 88.75 C 40.507812 91.113281 42.257812 93.613281 43.75 96.25 Z M 43.75 96.25 "/>
<path style=" stroke:none;fill-rule:evenodd;fill:rgb(97.254902%,55.686275%,21.568627%);fill-opacity:1;" d="M 33.75 89.75 C 34.105469 89.296875 34.605469 89.132812 35.25 89.25 C 35.25 90.917969 35.25 92.582031 35.25 94.25 C 34.21875 96.988281 32.386719 98.15625 29.75 97.75 C 29.667969 96.40625 29.75 95.074219 30 93.75 C 31.027344 92.34375 30.613281 91.679688 28.75 91.75 C 27.632812 91.898438 26.632812 91.730469 25.75 91.25 C 25.75 89.917969 25.75 88.582031 25.75 87.25 C 24.792969 87.109375 23.960938 87.273438 23.25 87.75 C 21.824219 88.128906 20.492188 88.128906 19.25 87.75 C 19.855469 87.535156 20.355469 87.199219 20.75 86.75 C 22.398438 86.3125 24.066406 86.226562 25.75 86.5 C 27.167969 88.546875 29.003906 90.128906 31.25 91.25 C 31.882812 92.183594 31.882812 93.101562 31.25 94 C 31.722656 94.242188 32.222656 94.324219 32.75 94.25 C 33.460938 92.871094 33.792969 91.371094 33.75 89.75 Z M 33.75 89.75 "/>
<path style=" stroke:none;fill-rule:evenodd;fill:rgb(100%,54.117647%,8.235294%);fill-opacity:1;" d="M 47.25 92.75 C 48.25 92.75 49.25 92.75 50.25 92.75 C 50.664062 95.601562 49.996094 98.101562 48.25 100.25 C 47.085938 99.675781 46.421875 98.757812 46.25 97.5 C 46.625 95.917969 46.957031 94.335938 47.25 92.75 Z M 47.25 92.75 "/>
<path style=" stroke:none;fill-rule:evenodd;fill:rgb(55.686275%,20.784314%,8.627451%);fill-opacity:1;" d="M 43.25 96.75 C 43.25 96.417969 43.417969 96.25 43.75 96.25 C 44.230469 97.132812 44.398438 98.132812 44.25 99.25 C 43.917969 98.417969 43.582031 97.582031 43.25 96.75 Z M 43.25 96.75 "/>
<use xlink:href="#surface20" mask="url(#mask5)"/>
<path style=" stroke:none;fill-rule:evenodd;fill:rgb(87.843137%,33.72549%,14.901961%);fill-opacity:1;" d="M 57.25 91.75 C 58.722656 94.875 61.222656 96.710938 64.75 97.25 C 63.367188 99.410156 61.535156 99.828125 59.25 98.5 C 58.191406 97.976562 57.359375 97.226562 56.75 96.25 C 57.347656 96.339844 57.929688 96.503906 58.5 96.75 C 60.15625 95.941406 60.15625 95.773438 58.5 96.25 C 58.191406 95.777344 58.273438 95.359375 58.75 95 C 58.144531 94.480469 57.644531 93.898438 57.25 93.25 C 57.25 92.75 57.25 92.25 57.25 91.75 Z M 57.25 91.75 "/>
</g>
</svg>
