<?xml version="1.0" encoding="UTF-8"?>
<svg xmlns="http://www.w3.org/2000/svg" xmlns:xlink="http://www.w3.org/1999/xlink" width="px" height="px" viewBox="0 0 102 98" version="1.1">
<defs>
<filter id="alpha" filterUnits="objectBoundingBox" x="0%" y="0%" width="100%" height="100%">
  <feColorMatrix type="matrix" in="SourceGraphic" values="0 0 0 0 1 0 0 0 0 1 0 0 0 0 1 0 0 0 1 0"/>
</filter>
<mask id="mask0">
  <g filter="url(#alpha)">
<rect x="0" y="0" width="102" height="98" style="fill:rgb(0%,0%,0%);fill-opacity:0.996078;stroke:none;"/>
  </g>
</mask>
<clipPath id="clip1">
  <rect x="0" y="0" width="102" height="98"/>
</clipPath>
<g id="surface5" clip-path="url(#clip1)">
<path style=" stroke:none;fill-rule:evenodd;fill:rgb(3.529412%,3.137255%,3.529412%);fill-opacity:1;" d="M 50.25 -0.25 C 50.582031 -0.25 50.917969 -0.25 51.25 -0.25 C 54.023438 0.210938 56.859375 0.710938 59.75 1.25 C 62.566406 2.496094 65.066406 4.246094 67.25 6.5 C 74.984375 6.488281 79.652344 10.238281 81.25 17.75 C 81.589844 17.929688 81.925781 18.097656 82.25 18.25 C 83.25 19.082031 84.25 19.917969 85.25 20.75 C 86.199219 22.140625 87.03125 23.640625 87.75 25.25 C 90.203125 25.296875 92.703125 25.382812 95.25 25.5 C 97.429688 26.613281 98.179688 28.363281 97.5 30.75 C 97.25 31.332031 96.832031 31.75 96.25 32 C 99.117188 33.59375 99.949219 35.925781 98.75 39 C 99.523438 39.605469 100.109375 40.355469 100.5 41.25 C 100.550781 43.375 100.632812 45.457031 100.75 47.5 C 100.601562 48.960938 99.933594 50.128906 98.75 51 C 99.046875 53.574219 99.214844 56.15625 99.25 58.75 C 99.117188 60.570312 98.449219 62.15625 97.25 63.5 C 99.28125 71.636719 96.113281 75.304688 87.75 74.5 C 86.429688 77.988281 84.179688 80.738281 81 82.75 C 80.636719 86.347656 79.054688 89.265625 76.25 91.5 C 71.40625 93.066406 66.570312 94.648438 61.75 96.25 C 59.410156 96.332031 57.078125 96.25 54.75 96 C 55.082031 95.832031 55.417969 95.667969 55.75 95.5 C 54.605469 95.089844 53.4375 94.753906 52.25 94.5 C 53.066406 94.253906 53.902344 94.171875 54.75 94.25 C 57.988281 94.460938 61.152344 94.125 64.25 93.25 C 60.28125 90.363281 56.53125 87.199219 53 83.75 C 53.863281 72.515625 52.613281 61.515625 49.25 50.75 C 51.734375 50.335938 54.234375 50.085938 56.75 50 C 51.460938 44.355469 45.292969 39.9375 38.25 36.75 C 43.605469 29.320312 50.773438 24.570312 59.75 22.5 C 60.011719 22.21875 60.175781 21.886719 60.25 21.5 C 58.152344 17.050781 55.070312 13.46875 51 10.75 C 50.746094 10 50.996094 9.417969 51.75 9 C 52.542969 8.570312 53.378906 8.234375 54.25 8 C 49.386719 5.972656 44.300781 5.054688 39 5.25 C 36.058594 5.253906 33.144531 5.503906 30.25 6 C 29.253906 6.1875 28.421875 6.601562 27.75 7.25 C 18.558594 15.625 11.308594 25.460938 6 36.75 C 4.292969 40.789062 3.042969 44.957031 2.25 49.25 C 2.75 49.25 3.25 49.25 3.75 49.25 C 4.378906 49.230469 4.878906 49.480469 5.25 50 C 3.855469 51.054688 2.519531 50.972656 1.25 49.75 C 0.660156 48.933594 0.660156 48.097656 1.25 47.25 C 0.898438 47.105469 0.566406 46.941406 0.25 46.75 C 0.25 46.582031 0.25 46.417969 0.25 46.25 C 1.335938 43.324219 2.335938 40.324219 3.25 37.25 C 5.445312 32.691406 7.78125 28.191406 10.25 23.75 C 11.703125 22.007812 13.039062 20.175781 14.25 18.25 C 17.757812 12.988281 21.921875 8.238281 26.75 4 C 28.53125 3.382812 30.363281 3.132812 32.25 3.25 C 37.25 3.25 42.25 3.25 47.25 3.25 C 47.25 2.75 47.25 2.25 47.25 1.75 C 48.09375 0.828125 49.09375 0.164062 50.25 -0.25 Z M 50.25 -0.25 "/>
</g>
<mask id="mask1">
  <g filter="url(#alpha)">
<rect x="0" y="0" width="102" height="98" style="fill:rgb(0%,0%,0%);fill-opacity:0.211765;stroke:none;"/>
  </g>
</mask>
<clipPath id="clip2">
  <rect x="0" y="0" width="102" height="98"/>
</clipPath>
<g id="surface8" clip-path="url(#clip2)">
<path style=" stroke:none;fill-rule:evenodd;fill:rgb(10.980392%,18.431373%,22.745098%);fill-opacity:1;" d="M 47.25 1.75 C 47.25 2.25 47.25 2.75 47.25 3.25 C 42.25 3.25 37.25 3.25 32.25 3.25 C 37.289062 3.058594 42.289062 2.558594 47.25 1.75 Z M 47.25 1.75 "/>
</g>
<mask id="mask2">
  <g filter="url(#alpha)">
<rect x="0" y="0" width="102" height="98" style="fill:rgb(0%,0%,0%);fill-opacity:0.133333;stroke:none;"/>
  </g>
</mask>
<clipPath id="clip3">
  <rect x="0" y="0" width="102" height="98"/>
</clipPath>
<g id="surface11" clip-path="url(#clip3)">
<path style=" stroke:none;fill-rule:evenodd;fill:rgb(14.117647%,21.176471%,26.27451%);fill-opacity:1;" d="M 82.25 18.25 C 81.925781 18.097656 81.589844 17.929688 81.25 17.75 C 79.652344 10.238281 74.984375 6.488281 67.25 6.5 C 65.066406 4.246094 62.566406 2.496094 59.75 1.25 C 59.78125 0.976562 59.945312 0.8125 60.25 0.75 C 63.148438 1.949219 65.816406 3.53125 68.25 5.5 C 76.347656 6.015625 81.011719 10.265625 82.25 18.25 Z M 82.25 18.25 "/>
</g>
<mask id="mask3">
  <g filter="url(#alpha)">
<rect x="0" y="0" width="102" height="98" style="fill:rgb(0%,0%,0%);fill-opacity:0.247059;stroke:none;"/>
  </g>
</mask>
<clipPath id="clip4">
  <rect x="0" y="0" width="102" height="98"/>
</clipPath>
<g id="surface14" clip-path="url(#clip4)">
<path style=" stroke:none;fill-rule:evenodd;fill:rgb(14.117647%,22.352941%,27.45098%);fill-opacity:1;" d="M 14.25 18.25 C 13.039062 20.175781 11.703125 22.007812 10.25 23.75 C 10.972656 21.46875 12.304688 19.636719 14.25 18.25 Z M 14.25 18.25 "/>
</g>
<mask id="mask4">
  <g filter="url(#alpha)">
<rect x="0" y="0" width="102" height="98" style="fill:rgb(0%,0%,0%);fill-opacity:0.0823529;stroke:none;"/>
  </g>
</mask>
<clipPath id="clip5">
  <rect x="0" y="0" width="102" height="98"/>
</clipPath>
<g id="surface17" clip-path="url(#clip5)">
<path style=" stroke:none;fill-rule:evenodd;fill:rgb(12.941176%,22.352941%,27.058824%);fill-opacity:1;" d="M 10.25 23.75 C 7.78125 28.191406 5.445312 32.691406 3.25 37.25 C 4.40625 32.097656 6.742188 27.597656 10.25 23.75 Z M 10.25 23.75 "/>
</g>
<mask id="mask5">
  <g filter="url(#alpha)">
<rect x="0" y="0" width="102" height="98" style="fill:rgb(0%,0%,0%);fill-opacity:0.0156863;stroke:none;"/>
  </g>
</mask>
<clipPath id="clip6">
  <rect x="0" y="0" width="102" height="98"/>
</clipPath>
<g id="surface20" clip-path="url(#clip6)">
<path style=" stroke:none;fill-rule:evenodd;fill:rgb(14.117647%,23.137255%,28.235294%);fill-opacity:1;" d="M 3.25 37.25 C 2.335938 40.324219 1.335938 43.324219 0.25 46.25 C 0.566406 42.960938 1.566406 39.960938 3.25 37.25 Z M 3.25 37.25 "/>
</g>
<mask id="mask6">
  <g filter="url(#alpha)">
<rect x="0" y="0" width="102" height="98" style="fill:rgb(0%,0%,0%);fill-opacity:0.0823529;stroke:none;"/>
  </g>
</mask>
<clipPath id="clip7">
  <rect x="0" y="0" width="102" height="98"/>
</clipPath>
<g id="surface23" clip-path="url(#clip7)">
<path style=" stroke:none;fill-rule:evenodd;fill:rgb(14.509804%,20%,25.490196%);fill-opacity:1;" d="M 85.25 20.75 C 86.753906 21.917969 88.085938 23.253906 89.25 24.75 C 94.109375 22.929688 97.277344 24.429688 98.75 29.25 C 98.757812 30.296875 98.425781 31.214844 97.75 32 C 99.945312 34.074219 100.859375 36.660156 100.5 39.75 C 100.925781 40.285156 101.34375 40.785156 101.75 41.25 C 101.75 42.582031 101.75 43.917969 101.75 45.25 C 101.082031 45.75 101.082031 46.25 101.75 46.75 C 101.75 47.25 101.75 47.75 101.75 48.25 C 100.304688 49.734375 99.96875 51.484375 100.75 53.5 C 100.492188 54.539062 100.15625 55.539062 99.75 56.5 C 100.671875 59.125 100.171875 61.457031 98.25 63.5 C 98.703125 66.609375 98.453125 69.695312 97.5 72.75 C 96.371094 73.714844 95.121094 74.464844 93.75 75 C 91.894531 75.085938 90.0625 75.335938 88.25 75.75 C 86.636719 78.613281 84.554688 81.113281 82 83.25 C 81.628906 85.191406 80.964844 87.027344 80 88.75 C 78.582031 90.167969 77.167969 91.582031 75.75 93 C 70.699219 94.058594 65.867188 95.644531 61.25 97.75 C 59.417969 97.75 57.582031 97.75 55.75 97.75 C 52.570312 97.328125 49.570312 96.328125 46.75 94.75 C 49.308594 95.074219 51.808594 95.65625 54.25 96.5 C 56.84375 96.90625 59.34375 96.824219 61.75 96.25 C 66.570312 94.648438 71.40625 93.066406 76.25 91.5 C 79.054688 89.265625 80.636719 86.347656 81 82.75 C 84.179688 80.738281 86.429688 77.988281 87.75 74.5 C 96.113281 75.304688 99.28125 71.636719 97.25 63.5 C 98.449219 62.15625 99.117188 60.570312 99.25 58.75 C 99.214844 56.15625 99.046875 53.574219 98.75 51 C 99.933594 50.128906 100.601562 48.960938 100.75 47.5 C 100.632812 45.457031 100.550781 43.375 100.5 41.25 C 100.109375 40.355469 99.523438 39.605469 98.75 39 C 99.949219 35.925781 99.117188 33.59375 96.25 32 C 96.832031 31.75 97.25 31.332031 97.5 30.75 C 98.179688 28.363281 97.429688 26.613281 95.25 25.5 C 92.703125 25.382812 90.203125 25.296875 87.75 25.25 C 87.03125 23.640625 86.199219 22.140625 85.25 20.75 Z M 85.25 20.75 "/>
</g>
<mask id="mask7">
  <g filter="url(#alpha)">
<rect x="0" y="0" width="102" height="98" style="fill:rgb(0%,0%,0%);fill-opacity:0.984314;stroke:none;"/>
  </g>
</mask>
<clipPath id="clip8">
  <rect x="0" y="0" width="102" height="98"/>
</clipPath>
<g id="surface26" clip-path="url(#clip8)">
<path style=" stroke:none;fill-rule:evenodd;fill:rgb(4.313725%,7.058824%,8.235294%);fill-opacity:1;" d="M -0.25 46.75 C -0.0820312 46.75 0.0820312 46.75 0.25 46.75 C 0.566406 46.941406 0.898438 47.105469 1.25 47.25 C 0.660156 48.097656 0.660156 48.933594 1.25 49.75 C 2.519531 50.972656 3.855469 51.054688 5.25 50 C 4.878906 49.480469 4.378906 49.230469 3.75 49.25 C 4.71875 48.59375 5.71875 47.929688 6.75 47.25 C 6.917969 47.5 7.082031 47.75 7.25 48 C 5.621094 54.273438 6.203125 60.359375 9 66.25 C 14.015625 75.515625 20.429688 83.679688 28.25 90.75 C 29.011719 91.566406 30.011719 91.980469 31.25 92 C 35.714844 92.542969 40.046875 92.292969 44.25 91.25 C 45.882812 91.660156 47.550781 91.828125 49.25 91.75 C 50.917969 92.082031 52.582031 92.417969 54.25 92.75 C 54.039062 93.109375 53.707031 93.359375 53.25 93.5 C 53.867188 93.617188 54.367188 93.867188 54.75 94.25 C 53.902344 94.171875 53.066406 94.253906 52.25 94.5 C 53.4375 94.753906 54.605469 95.089844 55.75 95.5 C 55.417969 95.667969 55.082031 95.832031 54.75 96 C 57.078125 96.25 59.410156 96.332031 61.75 96.25 C 59.34375 96.824219 56.84375 96.90625 54.25 96.5 C 51.808594 95.65625 49.308594 95.074219 46.75 94.75 C 40.382812 95.472656 34.046875 95.222656 27.75 94 C 26.613281 93.53125 25.613281 92.863281 24.75 92 C 19.457031 85.878906 14.375 79.628906 9.5 73.25 C 5.316406 66.6875 3.402344 59.519531 3.75 51.75 C 2.359375 51.859375 1.027344 51.695312 -0.25 51.25 C -0.25 49.75 -0.25 48.25 -0.25 46.75 Z M -0.25 46.75 "/>
</g>
</defs>
<g id="surface1">
<use xlink:href="#surface5" mask="url(#mask0)"/>
<use xlink:href="#surface8" mask="url(#mask1)"/>
<use xlink:href="#surface11" mask="url(#mask2)"/>
<path style=" stroke:none;fill-rule:evenodd;fill:rgb(5.490196%,63.921569%,69.019608%);fill-opacity:1;" d="M 49.75 2.75 C 55.511719 1.976562 60.511719 3.558594 64.75 7.5 C 62 8.917969 59.917969 11 58.5 13.75 C 57.324219 12.492188 56.074219 11.324219 54.75 10.25 C 55.457031 9.6875 56.207031 9.1875 57 8.75 C 57.332031 8.417969 57.332031 8.082031 57 7.75 C 54.941406 6.09375 52.691406 4.761719 50.25 3.75 C 49.851562 3.523438 49.683594 3.1875 49.75 2.75 Z M 49.75 2.75 "/>
<path style=" stroke:none;fill-rule:evenodd;fill:rgb(1.960784%,80%,84.705882%);fill-opacity:1;" d="M 27.75 7.25 C 28.324219 7.394531 28.65625 7.8125 28.75 8.5 C 28.460938 9.222656 28.460938 9.804688 28.75 10.25 C 34.632812 8.035156 40.632812 7.703125 46.75 9.25 C 42.769531 9.949219 38.769531 10.535156 34.75 11 C 40.523438 12.035156 46.023438 13.867188 51.25 16.5 C 52.65625 17.488281 53.988281 18.570312 55.25 19.75 C 44.890625 22.699219 36.722656 28.617188 30.75 37.5 C 37.496094 39.414062 43.746094 42.332031 49.5 46.25 C 49.84375 46.664062 49.761719 47 49.25 47.25 C 46.136719 46.367188 42.972656 46.117188 39.75 46.5 C 43.5 51.253906 45.664062 56.671875 46.25 62.75 C 45.773438 64.578125 45.773438 66.496094 46.25 68.5 C 46.292969 69.855469 45.960938 71.105469 45.25 72.25 C 45.492188 72.722656 45.660156 73.222656 45.75 73.75 C 45.238281 74.5 44.738281 75.25 44.25 76 C 44.410156 76.828125 44.910156 77.328125 45.75 77.5 C 44.519531 78.078125 44.519531 78.742188 45.75 79.5 C 45.441406 80.738281 45.105469 81.988281 44.75 83.25 C 44.707031 82.148438 44.707031 81.066406 44.75 80 C 44.582031 79.917969 44.417969 79.832031 44.25 79.75 C 43.875 80.1875 43.625 80.6875 43.5 81.25 C 43.34375 80.617188 43.09375 80.035156 42.75 79.5 C 42.917969 79.332031 43.082031 79.167969 43.25 79 C 42.75 78.832031 42.25 78.667969 41.75 78.5 C 41.992188 77.996094 42.074219 77.414062 42 76.75 C 42.332031 77.417969 42.667969 77.417969 43 76.75 C 43.332031 76.25 43.332031 75.75 43 75.25 C 42.386719 74.488281 41.800781 74.074219 41.25 74 C 41.871094 73.175781 42.289062 72.257812 42.5 71.25 C 42.957031 71.828125 43.375 71.742188 43.75 71 C 43.628906 69.957031 43.628906 68.957031 43.75 68 C 42.410156 67.875 41.246094 67.375 40.25 66.5 C 38.582031 66.332031 36.917969 66.167969 35.25 66 C 35.8125 65.875 36.3125 65.625 36.75 65.25 C 36.15625 65.222656 35.488281 65.054688 34.75 64.75 C 35.492188 63.644531 35.242188 62.8125 34 62.25 C 33.832031 61.582031 33.667969 60.917969 33.5 60.25 C 32.027344 59.238281 30.441406 58.074219 28.75 56.75 C 22.832031 54.757812 17.746094 51.421875 13.5 46.75 C 12.121094 44.824219 10.621094 42.992188 9 41.25 C 9.199219 45.289062 9.785156 49.289062 10.75 53.25 C 9.726562 53.960938 9.226562 54.960938 9.25 56.25 C 10.058594 61.421875 11.808594 66.253906 14.5 70.75 C 18.238281 73.574219 21.820312 76.574219 25.25 79.75 C 24.617188 80.238281 23.949219 80.738281 23.25 81.25 C 24.589844 82.132812 24.421875 82.714844 22.75 83 C 25.328125 83.78125 26.746094 85.695312 27 88.75 C 27.335938 89.125 27.753906 89.292969 28.25 89.25 C 28.25 89.75 28.25 90.25 28.25 90.75 C 20.429688 83.679688 14.015625 75.515625 9 66.25 C 6.203125 60.359375 5.621094 54.273438 7.25 48 C 7.082031 47.75 6.917969 47.5 6.75 47.25 C 5.71875 47.929688 4.71875 48.59375 3.75 49.25 C 3.25 49.25 2.75 49.25 2.25 49.25 C 3.042969 44.957031 4.292969 40.789062 6 36.75 C 11.308594 25.460938 18.558594 15.625 27.75 7.25 Z M 27.75 7.25 "/>
<path style=" stroke:none;fill-rule:evenodd;fill:rgb(96.470588%,76.470588%,50.588235%);fill-opacity:1;" d="M 74.75 10.75 C 71.5625 10.933594 71.230469 11.765625 73.75 13.25 C 73.6875 13.554688 73.523438 13.71875 73.25 13.75 C 72.917969 13.582031 72.582031 13.417969 72.25 13.25 C 72.039062 12.890625 71.707031 12.640625 71.25 12.5 C 67.910156 11.980469 65.242188 13.148438 63.25 16 C 62.777344 16.242188 62.277344 16.324219 61.75 16.25 C 61.117188 15.113281 61.199219 13.945312 62 12.75 C 65.800781 8.929688 70.050781 8.261719 74.75 10.75 Z M 74.75 10.75 "/>
<path style=" stroke:none;fill-rule:evenodd;fill:rgb(80.784314%,41.960784%,29.019608%);fill-opacity:1;" d="M 72.25 13.25 C 72.574219 14.21875 72.742188 15.21875 72.75 16.25 C 69 16.652344 65.332031 16.652344 61.75 16.25 C 62.277344 16.324219 62.777344 16.242188 63.25 16 C 65.242188 13.148438 67.910156 11.980469 71.25 12.5 C 71.707031 12.640625 72.039062 12.890625 72.25 13.25 Z M 72.25 13.25 "/>
<path style=" stroke:none;fill-rule:evenodd;fill:rgb(94.509804%,66.27451%,44.313725%);fill-opacity:1;" d="M 74.75 10.75 C 76.757812 12.257812 77.921875 14.257812 78.25 16.75 C 75.703125 17.199219 74.035156 16.199219 73.25 13.75 C 73.523438 13.71875 73.6875 13.554688 73.75 13.25 C 71.230469 11.765625 71.5625 10.933594 74.75 10.75 Z M 74.75 10.75 "/>
<path style=" stroke:none;fill-rule:evenodd;fill:rgb(94.901961%,72.941176%,53.333333%);fill-opacity:1;" d="M 78.25 19.75 C 77.027344 19.675781 76.695312 20.09375 77.25 21 C 73.421875 21.25 69.585938 21.332031 65.75 21.25 C 64.949219 21.34375 64.28125 21.09375 63.75 20.5 C 64.082031 20.332031 64.417969 20.167969 64.75 20 C 64.132812 19.882812 63.632812 19.632812 63.25 19.25 C 67.542969 18.683594 71.878906 18.597656 76.25 19 C 77.027344 19.105469 77.695312 19.355469 78.25 19.75 Z M 78.25 19.75 "/>
<path style=" stroke:none;fill-rule:evenodd;fill:rgb(3.529412%,66.27451%,70.196078%);fill-opacity:1;" d="M 54.75 94.25 C 54.367188 93.867188 53.867188 93.617188 53.25 93.5 C 53.707031 93.359375 54.039062 93.109375 54.25 92.75 C 54.417969 92.75 54.582031 92.75 54.75 92.75 C 55.417969 92.75 56.082031 92.75 56.75 92.75 C 56.824219 92.222656 56.742188 91.722656 56.5 91.25 C 52.777344 88.191406 49.363281 84.855469 46.25 81.25 C 47.535156 75.085938 47.535156 68.921875 46.25 62.75 C 45.664062 56.671875 43.5 51.253906 39.75 46.5 C 42.972656 46.117188 46.136719 46.367188 49.25 47.25 C 49.761719 47 49.84375 46.664062 49.5 46.25 C 43.746094 42.332031 37.496094 39.414062 30.75 37.5 C 36.722656 28.617188 44.890625 22.699219 55.25 19.75 C 53.988281 18.570312 52.65625 17.488281 51.25 16.5 C 46.023438 13.867188 40.523438 12.035156 34.75 11 C 38.769531 10.535156 42.769531 9.949219 46.75 9.25 C 40.632812 7.703125 34.632812 8.035156 28.75 10.25 C 28.460938 9.804688 28.460938 9.222656 28.75 8.5 C 28.65625 7.8125 28.324219 7.394531 27.75 7.25 C 28.421875 6.601562 29.253906 6.1875 30.25 6 C 33.144531 5.503906 36.058594 5.253906 39 5.25 C 44.300781 5.054688 49.386719 5.972656 54.25 8 C 53.378906 8.234375 52.542969 8.570312 51.75 9 C 50.996094 9.417969 50.746094 10 51 10.75 C 55.070312 13.46875 58.152344 17.050781 60.25 21.5 C 60.175781 21.886719 60.011719 22.21875 59.75 22.5 C 50.773438 24.570312 43.605469 29.320312 38.25 36.75 C 45.292969 39.9375 51.460938 44.355469 56.75 50 C 54.234375 50.085938 51.734375 50.335938 49.25 50.75 C 52.613281 61.515625 53.863281 72.515625 53 83.75 C 56.53125 87.199219 60.28125 90.363281 64.25 93.25 C 61.152344 94.125 57.988281 94.460938 54.75 94.25 Z M 54.75 94.25 "/>
<use xlink:href="#surface14" mask="url(#mask3)"/>
<path style=" stroke:none;fill-rule:evenodd;fill:rgb(85.098039%,53.333333%,36.078431%);fill-opacity:1;" d="M 63.25 19.25 C 63.632812 19.632812 64.132812 19.882812 64.75 20 C 64.417969 20.167969 64.082031 20.332031 63.75 20.5 C 64.28125 21.09375 64.949219 21.34375 65.75 21.25 C 66.046875 21.574219 66.378906 21.910156 66.75 22.25 C 66.644531 22.542969 66.476562 22.792969 66.25 23 C 67.75 23.167969 69.25 23.332031 70.75 23.5 C 71.285156 23.925781 71.785156 24.34375 72.25 24.75 C 69.269531 24.347656 66.269531 24.179688 63.25 24.25 C 63.175781 22.777344 62.84375 21.363281 62.25 20 C 62.417969 19.484375 62.75 19.234375 63.25 19.25 Z M 63.25 19.25 "/>
<path style=" stroke:none;fill-rule:evenodd;fill:rgb(83.921569%,52.54902%,32.941176%);fill-opacity:1;" d="M 79.25 19.75 C 85.8125 23.277344 87.0625 28.277344 83 34.75 C 82.75 36.242188 82.667969 37.742188 82.75 39.25 C 82.394531 38.054688 82.0625 36.804688 81.75 35.5 C 83.300781 31.445312 83.464844 27.363281 82.25 23.25 C 80.433594 22.785156 79.433594 21.617188 79.25 19.75 Z M 79.25 19.75 "/>
<path style=" stroke:none;fill-rule:evenodd;fill:rgb(54.509804%,30.196078%,23.137255%);fill-opacity:1;" d="M 57.75 28.75 C 57.515625 27.898438 57.515625 27.148438 57.75 26.5 C 56.789062 26.566406 55.789062 26.652344 54.75 26.75 C 56.894531 25.507812 59.226562 24.925781 61.75 25 C 60.152344 26.015625 58.820312 27.265625 57.75 28.75 Z M 57.75 28.75 "/>
<use xlink:href="#surface17" mask="url(#mask4)"/>
<path style=" stroke:none;fill-rule:evenodd;fill:rgb(14.509804%,54.901961%,68.235294%);fill-opacity:1;" d="M 90.75 27.25 C 92.503906 26.996094 94.085938 27.332031 95.5 28.25 C 95.832031 28.917969 95.832031 29.582031 95.5 30.25 C 92.964844 31.046875 90.382812 31.714844 87.75 32.25 C 86.996094 29.492188 87.996094 27.828125 90.75 27.25 Z M 90.75 27.25 "/>
<path style=" stroke:none;fill-rule:evenodd;fill:rgb(70.588235%,31.372549%,21.960784%);fill-opacity:1;" d="M 57.75 28.75 C 57.75 28.917969 57.75 29.082031 57.75 29.25 C 55.589844 29.707031 53.507812 30.371094 51.5 31.25 C 50.945312 31.207031 50.445312 31.039062 50 30.75 C 47.019531 32.59375 45.9375 35.257812 46.75 38.75 C 45.429688 37.921875 44.097656 37.089844 42.75 36.25 C 42.207031 35.816406 42.125 35.316406 42.5 34.75 C 45.988281 31.132812 50.070312 28.46875 54.75 26.75 C 55.789062 26.652344 56.789062 26.566406 57.75 26.5 C 57.515625 27.148438 57.515625 27.898438 57.75 28.75 Z M 57.75 28.75 "/>
<path style=" stroke:none;fill-rule:evenodd;fill:rgb(82.352941%,38.823529%,26.27451%);fill-opacity:1;" d="M 57.75 29.25 C 57.75 29.75 57.75 30.25 57.75 30.75 C 53.855469 31.53125 50.523438 33.363281 47.75 36.25 C 52.828125 39.957031 57.496094 44.121094 61.75 48.75 C 63.050781 50.558594 64.382812 52.390625 65.75 54.25 C 65.199219 54.589844 64.699219 54.921875 64.25 55.25 C 63.25 55.25 62.25 55.25 61.25 55.25 C 60.617188 54.664062 59.617188 54.164062 58.25 53.75 C 58.429688 53.410156 58.597656 53.074219 58.75 52.75 C 59.59375 52.347656 60.425781 51.847656 61.25 51.25 C 57.183594 46.179688 52.347656 42.015625 46.75 38.75 C 45.9375 35.257812 47.019531 32.59375 50 30.75 C 50.445312 31.039062 50.945312 31.207031 51.5 31.25 C 53.507812 30.371094 55.589844 29.707031 57.75 29.25 Z M 57.75 29.25 "/>
<path style=" stroke:none;fill-rule:evenodd;fill:rgb(92.54902%,59.607843%,34.509804%);fill-opacity:1;" d="M 76.75 28.75 C 77.15625 29.816406 77.40625 30.980469 77.5 32.25 C 78.253906 32.542969 79.003906 32.878906 79.75 33.25 C 79.246094 35.019531 78.328125 36.519531 77 37.75 C 76.144531 36.550781 75.226562 36.550781 74.25 37.75 C 76.09375 35.054688 76.925781 32.054688 76.75 28.75 Z M 76.75 28.75 "/>
<path style=" stroke:none;fill-rule:evenodd;fill:rgb(9.803922%,57.647059%,73.333333%);fill-opacity:1;" d="M 89.75 33.75 C 91.984375 33.566406 94.148438 33.816406 96.25 34.5 C 97.113281 35.394531 97.449219 36.476562 97.25 37.75 C 94.417969 37.75 91.582031 37.75 88.75 37.75 C 88.839844 36.703125 88.675781 35.703125 88.25 34.75 C 88.800781 34.414062 89.300781 34.078125 89.75 33.75 Z M 89.75 33.75 "/>
<path style=" stroke:none;fill-rule:evenodd;fill:rgb(98.823529%,75.294118%,48.627451%);fill-opacity:1;" d="M 57.75 30.75 C 57.671875 31.4375 57.753906 32.101562 58 32.75 C 60.542969 36.007812 62.960938 39.34375 65.25 42.75 C 64.988281 44.285156 64.574219 45.785156 64 47.25 C 63.433594 48.070312 62.683594 48.570312 61.75 48.75 C 57.496094 44.121094 52.828125 39.957031 47.75 36.25 C 50.523438 33.363281 53.855469 31.53125 57.75 30.75 Z M 57.75 30.75 "/>
<path style=" stroke:none;fill-rule:evenodd;fill:rgb(74.117647%,39.607843%,27.843137%);fill-opacity:1;" d="M 85.25 35.75 C 85.910156 35.664062 86.496094 35.832031 87 36.25 C 87.601562 37.339844 87.851562 38.503906 87.75 39.75 C 86.417969 39.75 85.082031 39.75 83.75 39.75 C 83.695312 38.191406 84.195312 36.859375 85.25 35.75 Z M 85.25 35.75 "/>
<use xlink:href="#surface20" mask="url(#mask5)"/>
<use xlink:href="#surface23" mask="url(#mask6)"/>
<path style=" stroke:none;fill-rule:evenodd;fill:rgb(97.254902%,67.058824%,43.921569%);fill-opacity:1;" d="M 78.25 19.75 C 78.582031 19.75 78.917969 19.75 79.25 19.75 C 79.433594 21.617188 80.433594 22.785156 82.25 23.25 C 83.464844 27.363281 83.300781 31.445312 81.75 35.5 C 82.0625 36.804688 82.394531 38.054688 82.75 39.25 C 82.664062 39.910156 82.832031 40.496094 83.25 41 C 84.910156 41.25 86.574219 41.332031 88.25 41.25 C 87.859375 46.839844 87.691406 52.339844 87.75 57.75 C 87.90625 56.375 87.738281 55.042969 87.25 53.75 C 85.976562 54.367188 85.976562 54.949219 87.25 55.5 C 86.261719 55.84375 85.425781 55.59375 84.75 54.75 C 84.152344 54.921875 84.152344 55.171875 84.75 55.5 C 84.28125 55.847656 83.949219 55.761719 83.75 55.25 C 83.445312 54.804688 83.277344 54.304688 83.25 53.75 C 83.863281 52.996094 83.863281 52.246094 83.25 51.5 C 82.140625 50.976562 80.976562 50.644531 79.75 50.5 C 80.890625 50.007812 82.054688 49.589844 83.25 49.25 C 83.726562 48.476562 83.890625 47.644531 83.75 46.75 C 82.25 46.75 80.75 46.75 79.25 46.75 C 79.039062 46.390625 78.707031 46.140625 78.25 46 C 80.464844 39.753906 81.714844 33.335938 82 26.75 C 81.089844 24.160156 79.339844 22.742188 76.75 22.5 C 77.558594 22.808594 78.222656 23.308594 78.75 24 C 78.125 25.300781 77.460938 26.550781 76.75 27.75 C 75.492188 26.371094 73.992188 25.371094 72.25 24.75 C 71.785156 24.34375 71.285156 23.925781 70.75 23.5 C 69.25 23.332031 67.75 23.167969 66.25 23 C 66.476562 22.792969 66.644531 22.542969 66.75 22.25 C 66.378906 21.910156 66.046875 21.574219 65.75 21.25 C 69.585938 21.332031 73.421875 21.25 77.25 21 C 76.695312 20.09375 77.027344 19.675781 78.25 19.75 Z M 78.25 19.75 "/>
<path style=" stroke:none;fill-rule:evenodd;fill:rgb(11.764706%,55.294118%,70.980392%);fill-opacity:1;" d="M 89.25 40.25 C 92.089844 40.167969 94.921875 40.25 97.75 40.5 C 98.640625 41.566406 98.972656 42.816406 98.75 44.25 C 95.746094 44.332031 92.746094 44.25 89.75 44 C 89.28125 42.808594 89.117188 41.558594 89.25 40.25 Z M 89.25 40.25 "/>
<path style=" stroke:none;fill-rule:evenodd;fill:rgb(30.980392%,9.803922%,7.058824%);fill-opacity:1;" d="M 74.25 46.25 C 74.25 46.75 74.25 47.25 74.25 47.75 C 73.417969 47.75 72.582031 47.75 71.75 47.75 C 70.859375 47.164062 70.359375 46.332031 70.25 45.25 C 71.664062 45.347656 72.996094 45.679688 74.25 46.25 Z M 74.25 46.25 "/>
<path style=" stroke:none;fill-rule:evenodd;fill:rgb(4.705882%,1.960784%,1.568627%);fill-opacity:1;" d="M 79.25 46.75 C 80.75 46.75 82.25 46.75 83.75 46.75 C 83.890625 47.644531 83.726562 48.476562 83.25 49.25 C 82.054688 49.589844 80.890625 50.007812 79.75 50.5 C 80.976562 50.644531 82.140625 50.976562 83.25 51.5 C 83.863281 52.246094 83.863281 52.996094 83.25 53.75 C 80.28125 54.617188 77.53125 54.117188 75 52.25 C 73.878906 50.441406 74.296875 49.023438 76.25 48 C 77.203125 47.4375 78.203125 47.023438 79.25 46.75 Z M 79.25 46.75 "/>
<path style=" stroke:none;fill-rule:evenodd;fill:rgb(14.117647%,56.862745%,72.156863%);fill-opacity:1;" d="M 89.25 45.75 C 92.089844 45.667969 94.921875 45.75 97.75 46 C 98.835938 46.933594 99.003906 48.015625 98.25 49.25 C 95.253906 49.789062 92.253906 49.789062 89.25 49.25 C 89.25 48.082031 89.25 46.917969 89.25 45.75 Z M 89.25 45.75 "/>
<path style=" stroke:none;fill-rule:evenodd;fill:rgb(94.509804%,55.294118%,34.117647%);fill-opacity:1;" d="M 68.75 41.75 C 69.851562 42.625 71.351562 43.207031 73.25 43.5 C 73.621094 44.40625 73.957031 45.324219 74.25 46.25 C 72.996094 45.679688 71.664062 45.347656 70.25 45.25 C 70.359375 46.332031 70.859375 47.164062 71.75 47.75 C 71.28125 50.933594 70.699219 54.097656 70 57.25 C 69.113281 57.769531 68.195312 57.769531 67.25 57.25 C 65.75 58.917969 64.25 60.582031 62.75 62.25 C 63.300781 60.140625 63.964844 58.058594 64.75 56 C 64.714844 55.617188 64.546875 55.367188 64.25 55.25 C 64.699219 54.921875 65.199219 54.589844 65.75 54.25 C 64.382812 52.390625 63.050781 50.558594 61.75 48.75 C 62.683594 48.570312 63.433594 48.070312 64 47.25 C 64.574219 45.785156 64.988281 44.285156 65.25 42.75 C 65.574219 43.046875 65.910156 43.378906 66.25 43.75 C 67.09375 43.070312 67.925781 42.40625 68.75 41.75 Z M 68.75 41.75 "/>
<path style=" stroke:none;fill-rule:evenodd;fill:rgb(96.862745%,65.098039%,72.156863%);fill-opacity:1;" d="M 90.25 50.75 C 92.257812 50.667969 94.257812 50.75 96.25 51 C 97.957031 52.160156 98.125 53.492188 96.75 55 C 94.136719 55.582031 91.71875 55.164062 89.5 53.75 C 89.125 52.578125 89.375 51.578125 90.25 50.75 Z M 90.25 50.75 "/>
<path style=" stroke:none;fill-rule:evenodd;fill:rgb(98.823529%,76.862745%,51.372549%);fill-opacity:1;" d="M 79.25 46.75 C 78.203125 47.023438 77.203125 47.4375 76.25 48 C 74.296875 49.023438 73.878906 50.441406 75 52.25 C 77.53125 54.117188 80.28125 54.617188 83.25 53.75 C 83.277344 54.304688 83.445312 54.804688 83.75 55.25 C 81.867188 55.046875 80.035156 55.046875 78.25 55.25 C 79.757812 58.320312 80.757812 61.484375 81.25 64.75 C 81.25 65.917969 81.25 67.082031 81.25 68.25 C 80.625 66.527344 80.210938 64.695312 80 62.75 C 79.832031 62.917969 79.667969 63.082031 79.5 63.25 C 79.539062 65.121094 79.457031 66.953125 79.25 68.75 C 79.925781 71.269531 80.09375 73.769531 79.75 76.25 C 77.710938 77.261719 75.542969 77.761719 73.25 77.75 C 71.058594 77.8125 68.890625 77.648438 66.75 77.25 C 69.507812 77.054688 72.171875 76.304688 74.75 75 C 76.417969 74.078125 77.085938 72.664062 76.75 70.75 C 76.675781 67.9375 75.757812 65.4375 74 63.25 C 71.761719 61.183594 69.511719 59.183594 67.25 57.25 C 68.195312 57.769531 69.113281 57.769531 70 57.25 C 70.699219 54.097656 71.28125 50.933594 71.75 47.75 C 72.582031 47.75 73.417969 47.75 74.25 47.75 C 74.25 47.25 74.25 46.75 74.25 46.25 C 73.957031 45.324219 73.621094 44.40625 73.25 43.5 C 71.351562 43.207031 69.851562 42.625 68.75 41.75 C 70.671875 40.539062 72.503906 39.207031 74.25 37.75 C 75.226562 36.550781 76.144531 36.550781 77 37.75 C 78.328125 36.519531 79.246094 35.019531 79.75 33.25 C 79.003906 32.878906 78.253906 32.542969 77.5 32.25 C 77.40625 30.980469 77.15625 29.816406 76.75 28.75 C 76.75 28.417969 76.75 28.082031 76.75 27.75 C 77.460938 26.550781 78.125 25.300781 78.75 24 C 78.222656 23.308594 77.558594 22.808594 76.75 22.5 C 79.339844 22.742188 81.089844 24.160156 82 26.75 C 81.714844 33.335938 80.464844 39.753906 78.25 46 C 78.707031 46.140625 79.039062 46.390625 79.25 46.75 Z M 79.25 46.75 "/>
<path style=" stroke:none;fill-rule:evenodd;fill:rgb(44.313725%,88.627451%,90.588235%);fill-opacity:1;" d="M 28.75 56.75 C 28.546875 57.378906 28.214844 57.960938 27.75 58.5 C 28.707031 59.417969 29.875 60 31.25 60.25 C 31.144531 60.542969 30.980469 60.792969 30.75 61 C 28.335938 61.171875 26 60.753906 23.75 59.75 C 23.417969 59.917969 23.082031 60.082031 22.75 60.25 C 23.917969 61.710938 25.332031 62.875 27 63.75 C 27.574219 68.570312 30.324219 71.070312 35.25 71.25 C 35.25 71.75 35.25 72.25 35.25 72.75 C 25.914062 71.710938 18.832031 67.210938 14 59.25 C 13.03125 57.140625 11.945312 55.140625 10.75 53.25 C 9.785156 49.289062 9.199219 45.289062 9 41.25 C 10.621094 42.992188 12.121094 44.824219 13.5 46.75 C 17.746094 51.421875 22.832031 54.757812 28.75 56.75 Z M 28.75 56.75 "/>
<path style=" stroke:none;fill-rule:evenodd;fill:rgb(97.254902%,62.745098%,37.647059%);fill-opacity:1;" d="M 87.75 57.75 C 87.75 58.25 87.75 58.75 87.75 59.25 C 86.582031 59.25 85.417969 59.25 84.25 59.25 C 83.753906 59.164062 83.421875 59.332031 83.25 59.75 C 82.796875 60.105469 82.632812 60.605469 82.75 61.25 C 82.34375 62.316406 82.09375 63.480469 82 64.75 C 81.609375 63.453125 81.359375 63.453125 81.25 64.75 C 80.757812 61.484375 79.757812 58.320312 78.25 55.25 C 80.035156 55.046875 81.867188 55.046875 83.75 55.25 C 83.949219 55.761719 84.28125 55.847656 84.75 55.5 C 84.152344 55.171875 84.152344 54.921875 84.75 54.75 C 85.425781 55.59375 86.261719 55.84375 87.25 55.5 C 85.976562 54.949219 85.976562 54.367188 87.25 53.75 C 87.738281 55.042969 87.90625 56.375 87.75 57.75 Z M 87.75 57.75 "/>
<path style=" stroke:none;fill-rule:evenodd;fill:rgb(98.823529%,74.117647%,52.156863%);fill-opacity:1;" d="M 61.25 55.25 C 62.25 55.25 63.25 55.25 64.25 55.25 C 64.546875 55.367188 64.714844 55.617188 64.75 56 C 63.964844 58.058594 63.300781 60.140625 62.75 62.25 C 61.75 63.75 60.75 65.25 59.75 66.75 C 58.773438 63.199219 58.109375 59.53125 57.75 55.75 C 59.03125 55.902344 60.195312 55.734375 61.25 55.25 Z M 61.25 55.25 "/>
<path style=" stroke:none;fill-rule:evenodd;fill:rgb(1.568627%,0.784314%,0.392157%);fill-opacity:1;" d="M 67.25 57.25 C 69.511719 59.183594 71.761719 61.183594 74 63.25 C 75.757812 65.4375 76.675781 67.9375 76.75 70.75 C 77.085938 72.664062 76.417969 74.078125 74.75 75 C 72.171875 76.304688 69.507812 77.054688 66.75 77.25 C 66.082031 77.417969 65.417969 77.582031 64.75 77.75 C 59.136719 76.953125 57.136719 73.789062 58.75 68.25 C 59.082031 67.75 59.417969 67.25 59.75 66.75 C 60.75 65.25 61.75 63.75 62.75 62.25 C 64.25 60.582031 65.75 58.917969 67.25 57.25 Z M 67.25 57.25 "/>
<path style=" stroke:none;fill-rule:evenodd;fill:rgb(94.509804%,72.941176%,76.862745%);fill-opacity:1;" d="M 89.75 56.75 C 92.148438 56.558594 94.480469 56.808594 96.75 57.5 C 97.789062 60.167969 96.875 61.585938 94 61.75 C 92.492188 61.636719 91.078125 61.21875 89.75 60.5 C 88.457031 59.253906 88.457031 58.003906 89.75 56.75 Z M 89.75 56.75 "/>
<path style=" stroke:none;fill-rule:evenodd;fill:rgb(99.215686%,68.235294%,78.823529%);fill-opacity:1;" d="M 93.25 57.25 C 93.9375 57.171875 94.601562 57.253906 95.25 57.5 C 95.082031 57.667969 94.917969 57.832031 94.75 58 C 96.074219 59.277344 95.824219 60.195312 94 60.75 C 92.75 60.5 91.5 60.25 90.25 60 C 89.808594 59.320312 89.644531 58.570312 89.75 57.75 C 91.03125 57.902344 92.195312 57.734375 93.25 57.25 Z M 93.25 57.25 "/>
<path style=" stroke:none;fill-rule:evenodd;fill:rgb(80.392157%,44.705882%,29.019608%);fill-opacity:1;" d="M 58.75 52.75 C 58.597656 53.074219 58.429688 53.410156 58.25 53.75 C 59.617188 54.164062 60.617188 54.664062 61.25 55.25 C 60.195312 55.734375 59.03125 55.902344 57.75 55.75 C 58.109375 59.53125 58.773438 63.199219 59.75 66.75 C 59.417969 67.25 59.082031 67.75 58.75 68.25 C 58.15625 67.976562 57.574219 67.808594 57 67.75 C 56.792969 68.378906 56.375 68.710938 55.75 68.75 C 55.132812 63.378906 54.300781 58.046875 53.25 52.75 C 55.082031 52.75 56.917969 52.75 58.75 52.75 Z M 58.75 52.75 "/>
<path style=" stroke:none;fill-rule:evenodd;fill:rgb(75.294118%,38.039216%,32.941176%);fill-opacity:1;" d="M 83.25 59.75 C 83.421875 59.332031 83.753906 59.164062 84.25 59.25 C 87.734375 59.617188 88.566406 61.367188 86.75 64.5 C 85.804688 64.582031 85.054688 64.164062 84.5 63.25 C 84.050781 62.035156 83.632812 60.871094 83.25 59.75 Z M 83.25 59.75 "/>
<path style=" stroke:none;fill-rule:evenodd;fill:rgb(97.254902%,65.490196%,64.313725%);fill-opacity:1;" d="M 88.75 62.75 C 90.84375 62.699219 92.84375 63.113281 94.75 64 C 96.375 66.089844 95.875 67.171875 93.25 67.25 C 91.554688 67.019531 89.890625 66.683594 88.25 66.25 C 88.222656 65.046875 88.390625 63.882812 88.75 62.75 Z M 88.75 62.75 "/>
<path style=" stroke:none;fill-rule:evenodd;fill:rgb(95.294118%,80.392157%,70.980392%);fill-opacity:1;" d="M 87.25 67.75 C 89.578125 68.140625 91.910156 68.558594 94.25 69 C 95.140625 69.535156 95.390625 70.285156 95 71.25 C 92.660156 72.453125 90.242188 72.535156 87.75 71.5 C 87.28125 70.308594 87.117188 69.058594 87.25 67.75 Z M 87.25 67.75 "/>
<path style=" stroke:none;fill-rule:evenodd;fill:rgb(47.45098%,89.411765%,90.980392%);fill-opacity:1;" d="M 9.25 56.25 C 9.746094 56.207031 10.164062 56.375 10.5 56.75 C 11.878906 60.046875 13.546875 63.210938 15.5 66.25 C 18.589844 69.660156 22.003906 72.660156 25.75 75.25 C 26.746094 76.574219 27.246094 78.074219 27.25 79.75 C 26.582031 79.75 25.917969 79.75 25.25 79.75 C 21.820312 76.574219 18.238281 73.574219 14.5 70.75 C 11.808594 66.253906 10.058594 61.421875 9.25 56.25 Z M 9.25 56.25 "/>
<path style=" stroke:none;fill-rule:evenodd;fill:rgb(4.705882%,81.176471%,85.882353%);fill-opacity:1;" d="M 10.75 53.25 C 11.945312 55.140625 13.03125 57.140625 14 59.25 C 18.832031 67.210938 25.914062 71.710938 35.25 72.75 C 35.25 72.25 35.25 71.75 35.25 71.25 C 30.324219 71.070312 27.574219 68.570312 27 63.75 C 25.332031 62.875 23.917969 61.710938 22.75 60.25 C 23.082031 60.082031 23.417969 59.917969 23.75 59.75 C 26 60.753906 28.335938 61.171875 30.75 61 C 30.980469 60.792969 31.144531 60.542969 31.25 60.25 C 29.875 60 28.707031 59.417969 27.75 58.5 C 28.214844 57.960938 28.546875 57.378906 28.75 56.75 C 30.441406 58.074219 32.027344 59.238281 33.5 60.25 C 33.667969 60.917969 33.832031 61.582031 34 62.25 C 35.242188 62.8125 35.492188 63.644531 34.75 64.75 C 35.488281 65.054688 36.15625 65.222656 36.75 65.25 C 36.3125 65.625 35.8125 65.875 35.25 66 C 36.917969 66.167969 38.582031 66.332031 40.25 66.5 C 41.246094 67.375 42.410156 67.875 43.75 68 C 43.628906 68.957031 43.628906 69.957031 43.75 71 C 43.375 71.742188 42.957031 71.828125 42.5 71.25 C 42.289062 72.257812 41.871094 73.175781 41.25 74 C 41.800781 74.074219 42.386719 74.488281 43 75.25 C 43.332031 75.75 43.332031 76.25 43 76.75 C 42.667969 77.417969 42.332031 77.417969 42 76.75 C 42.074219 77.414062 41.992188 77.996094 41.75 78.5 C 42.25 78.667969 42.75 78.832031 43.25 79 C 43.082031 79.167969 42.917969 79.332031 42.75 79.5 C 43.09375 80.035156 43.34375 80.617188 43.5 81.25 C 43.625 80.6875 43.875 80.1875 44.25 79.75 C 44.417969 79.832031 44.582031 79.917969 44.75 80 C 44.707031 81.066406 44.707031 82.148438 44.75 83.25 C 45.105469 81.988281 45.441406 80.738281 45.75 79.5 C 44.519531 78.742188 44.519531 78.078125 45.75 77.5 C 44.910156 77.328125 44.410156 76.828125 44.25 76 C 44.738281 75.25 45.238281 74.5 45.75 73.75 C 45.660156 73.222656 45.492188 72.722656 45.25 72.25 C 45.960938 71.105469 46.292969 69.855469 46.25 68.5 C 45.773438 66.496094 45.773438 64.578125 46.25 62.75 C 47.535156 68.921875 47.535156 75.085938 46.25 81.25 C 49.363281 84.855469 52.777344 88.191406 56.5 91.25 C 56.742188 91.722656 56.824219 92.222656 56.75 92.75 C 56.082031 92.75 55.417969 92.75 54.75 92.75 C 53.15625 91.792969 51.324219 91.460938 49.25 91.75 C 47.550781 91.828125 45.882812 91.660156 44.25 91.25 C 43.871094 90.804688 43.371094 90.472656 42.75 90.25 C 42.152344 90.421875 42.152344 90.671875 42.75 91 C 37.25 91.292969 32.5 89.542969 28.5 85.75 C 28.25 86.90625 28.167969 88.070312 28.25 89.25 C 27.753906 89.292969 27.335938 89.125 27 88.75 C 26.746094 85.695312 25.328125 83.78125 22.75 83 C 24.421875 82.714844 24.589844 82.132812 23.25 81.25 C 23.949219 80.738281 24.617188 80.238281 25.25 79.75 C 25.917969 79.75 26.582031 79.75 27.25 79.75 C 27.246094 78.074219 26.746094 76.574219 25.75 75.25 C 22.003906 72.660156 18.589844 69.660156 15.5 66.25 C 13.546875 63.210938 11.878906 60.046875 10.5 56.75 C 10.164062 56.375 9.746094 56.207031 9.25 56.25 C 9.226562 54.960938 9.726562 53.960938 10.75 53.25 Z M 10.75 53.25 "/>
<path style=" stroke:none;fill-rule:evenodd;fill:rgb(99.607843%,85.882353%,65.882353%);fill-opacity:1;" d="M 81.25 68.25 C 82.691406 71.542969 82.523438 74.710938 80.75 77.75 C 80.859375 76.910156 80.523438 76.410156 79.75 76.25 C 80.09375 73.769531 79.925781 71.269531 79.25 68.75 C 79.457031 66.953125 79.539062 65.121094 79.5 63.25 C 79.667969 63.082031 79.832031 62.917969 80 62.75 C 80.210938 64.695312 80.625 66.527344 81.25 68.25 Z M 81.25 68.25 "/>
<path style=" stroke:none;fill-rule:evenodd;fill:rgb(87.45098%,56.470588%,35.686275%);fill-opacity:1;" d="M 82.75 61.25 C 82.667969 62.925781 82.75 64.589844 83 66.25 C 83.691406 68.488281 84.273438 70.738281 84.75 73 C 84.632812 75.984375 83.300781 78.234375 80.75 79.75 C 80.082031 79.082031 80.082031 78.417969 80.75 77.75 C 82.523438 74.710938 82.691406 71.542969 81.25 68.25 C 81.25 67.082031 81.25 65.917969 81.25 64.75 C 81.359375 63.453125 81.609375 63.453125 82 64.75 C 82.09375 63.480469 82.34375 62.316406 82.75 61.25 Z M 82.75 61.25 "/>
<path style=" stroke:none;fill-rule:evenodd;fill:rgb(75.294118%,49.411765%,32.54902%);fill-opacity:1;" d="M 58.75 68.25 C 57.136719 73.789062 59.136719 76.953125 64.75 77.75 C 63.867188 78.230469 62.867188 78.398438 61.75 78.25 C 60.070312 78.191406 58.402344 78.027344 56.75 77.75 C 56.664062 78.808594 56.828125 79.808594 57.25 80.75 C 56.347656 76.941406 55.847656 72.941406 55.75 68.75 C 56.375 68.710938 56.792969 68.378906 57 67.75 C 57.574219 67.808594 58.15625 67.976562 58.75 68.25 Z M 58.75 68.25 "/>
<use xlink:href="#surface26" mask="url(#mask7)"/>
<path style=" stroke:none;fill-rule:evenodd;fill:rgb(98.823529%,84.313725%,67.45098%);fill-opacity:1;" d="M 66.75 77.25 C 68.890625 77.648438 71.058594 77.8125 73.25 77.75 C 69.4375 78.660156 65.601562 78.824219 61.75 78.25 C 62.867188 78.398438 63.867188 78.230469 64.75 77.75 C 65.417969 77.582031 66.082031 77.417969 66.75 77.25 Z M 66.75 77.25 "/>
<path style=" stroke:none;fill-rule:evenodd;fill:rgb(95.294118%,89.803922%,82.745098%);fill-opacity:1;" d="M 79.75 76.25 C 80.523438 76.410156 80.859375 76.910156 80.75 77.75 C 80.082031 78.417969 80.082031 79.082031 80.75 79.75 C 79.1875 80.578125 77.519531 81.160156 75.75 81.5 C 69.527344 81.921875 63.363281 81.671875 57.25 80.75 C 56.828125 79.808594 56.664062 78.808594 56.75 77.75 C 58.402344 78.027344 60.070312 78.191406 61.75 78.25 C 65.601562 78.824219 69.4375 78.660156 73.25 77.75 C 75.542969 77.761719 77.710938 77.261719 79.75 76.25 Z M 79.75 76.25 "/>
<path style=" stroke:none;fill-rule:evenodd;fill:rgb(39.607843%,45.882353%,46.666667%);fill-opacity:1;" d="M 57.75 84.25 C 58.355469 83.609375 59.019531 83.609375 59.75 84.25 C 59.203125 86.0625 58.535156 86.0625 57.75 84.25 Z M 57.75 84.25 "/>
<path style=" stroke:none;fill-rule:evenodd;fill:rgb(83.137255%,46.666667%,32.156863%);fill-opacity:1;" d="M 72.75 87.25 C 71.152344 88.519531 69.320312 88.933594 67.25 88.5 C 65.046875 87.832031 63.378906 86.582031 62.25 84.75 C 65.488281 84.253906 68.824219 84.089844 72.25 84.25 C 72.101562 85.367188 72.269531 86.367188 72.75 87.25 Z M 72.75 87.25 "/>
<path style=" stroke:none;fill-rule:evenodd;fill:rgb(94.901961%,67.843137%,49.019608%);fill-opacity:1;" d="M 75.25 89.25 C 74.972656 88.605469 74.472656 88.1875 73.75 88 C 74.167969 87.496094 74.335938 86.910156 74.25 86.25 C 74.652344 83.839844 75.984375 83.175781 78.25 84.25 C 77.746094 86.265625 76.746094 87.929688 75.25 89.25 Z M 75.25 89.25 "/>
<path style=" stroke:none;fill-rule:evenodd;fill:rgb(2.352941%,66.666667%,72.156863%);fill-opacity:1;" d="M 44.25 91.25 C 40.046875 92.292969 35.714844 92.542969 31.25 92 C 30.011719 91.980469 29.011719 91.566406 28.25 90.75 C 28.25 90.25 28.25 89.75 28.25 89.25 C 28.167969 88.070312 28.25 86.90625 28.5 85.75 C 32.5 89.542969 37.25 91.292969 42.75 91 C 42.152344 90.671875 42.152344 90.421875 42.75 90.25 C 43.371094 90.472656 43.871094 90.804688 44.25 91.25 Z M 44.25 91.25 "/>
<path style=" stroke:none;fill-rule:evenodd;fill:rgb(97.647059%,80.392157%,63.529412%);fill-opacity:1;" d="M 62.25 84.75 C 63.378906 86.582031 65.046875 87.832031 67.25 88.5 C 69.320312 88.933594 71.152344 88.519531 72.75 87.25 C 73.25 86.917969 73.75 86.582031 74.25 86.25 C 74.335938 86.910156 74.167969 87.496094 73.75 88 C 74.472656 88.1875 74.972656 88.605469 75.25 89.25 C 70.613281 92.789062 66.195312 92.453125 62 88.25 C 60.9375 86.914062 61.019531 85.746094 62.25 84.75 Z M 62.25 84.75 "/>
<path style=" stroke:none;fill-rule:evenodd;fill:rgb(8.235294%,39.607843%,42.352941%);fill-opacity:1;" d="M 49.25 91.75 C 51.324219 91.460938 53.15625 91.792969 54.75 92.75 C 54.582031 92.75 54.417969 92.75 54.25 92.75 C 52.582031 92.417969 50.917969 92.082031 49.25 91.75 Z M 49.25 91.75 "/>
</g>
</svg>
