<?xml version="1.0" encoding="UTF-8"?>
<svg xmlns="http://www.w3.org/2000/svg" xmlns:xlink="http://www.w3.org/1999/xlink" width="px" height="px" viewBox="0 0 100 99" version="1.1">
<defs>
<filter id="alpha" filterUnits="objectBoundingBox" x="0%" y="0%" width="100%" height="100%">
  <feColorMatrix type="matrix" in="SourceGraphic" values="0 0 0 0 1 0 0 0 0 1 0 0 0 0 1 0 0 0 1 0"/>
</filter>
<mask id="mask0">
  <g filter="url(#alpha)">
<rect x="0" y="0" width="100" height="99" style="fill:rgb(0%,0%,0%);fill-opacity:0.12549;stroke:none;"/>
  </g>
</mask>
<clipPath id="clip1">
  <rect x="0" y="0" width="100" height="99"/>
</clipPath>
<g id="surface5" clip-path="url(#clip1)">
<path style=" stroke:none;fill-rule:evenodd;fill:rgb(15.686275%,18.431373%,23.137255%);fill-opacity:1;" d="M 38.25 -0.25 C 39.917969 -0.25 41.582031 -0.25 43.25 -0.25 C 45.828125 1.515625 46.996094 4.015625 46.75 7.25 C 46.191406 5.003906 45.191406 2.921875 43.75 1 C 41.785156 0.0898438 39.785156 0.00390625 37.75 0.75 C 37.917969 0.417969 38.082031 0.0820312 38.25 -0.25 Z M 38.25 -0.25 "/>
</g>
<mask id="mask1">
  <g filter="url(#alpha)">
<rect x="0" y="0" width="100" height="99" style="fill:rgb(0%,0%,0%);fill-opacity:0.0431373;stroke:none;"/>
  </g>
</mask>
<clipPath id="clip2">
  <rect x="0" y="0" width="100" height="99"/>
</clipPath>
<g id="surface8" clip-path="url(#clip2)">
<path style=" stroke:none;fill-rule:evenodd;fill:rgb(15.294118%,17.254902%,22.352941%);fill-opacity:1;" d="M 25.25 6.25 C 24.878906 7.214844 24.378906 8.128906 23.75 9 C 20.917969 9.167969 18.082031 9.332031 15.25 9.5 C 12.191406 10.699219 10.691406 12.949219 10.75 16.25 C 11.105469 18.597656 11.355469 20.929688 11.5 23.25 C 10.089844 25 8.339844 26.335938 6.25 27.25 C 6.207031 26.753906 6.375 26.335938 6.75 26 C 8.28125 25.46875 9.53125 24.554688 10.5 23.25 C 10.578125 20.292969 10.328125 17.378906 9.75 14.5 C 10.535156 11.878906 12.203125 10.046875 14.75 9 C 17.582031 8.832031 20.417969 8.667969 23.25 8.5 C 23.664062 7.503906 24.332031 6.753906 25.25 6.25 Z M 25.25 6.25 "/>
</g>
<mask id="mask2">
  <g filter="url(#alpha)">
<rect x="0" y="0" width="100" height="99" style="fill:rgb(0%,0%,0%);fill-opacity:0.0196078;stroke:none;"/>
  </g>
</mask>
<clipPath id="clip3">
  <rect x="0" y="0" width="100" height="99"/>
</clipPath>
<g id="surface11" clip-path="url(#clip3)">
<path style=" stroke:none;fill-rule:evenodd;fill:rgb(15.686275%,17.647059%,22.352941%);fill-opacity:1;" d="M 6.25 27.25 C 4.722656 28.695312 3.472656 30.363281 2.5 32.25 C 2.464844 35.496094 1.964844 38.664062 1 41.75 C 0.667969 44.917969 0.667969 48.082031 1 51.25 C 1.925781 56.210938 2.507812 61.210938 2.75 66.25 C 1.234375 64.441406 0.902344 62.441406 1.75 60.25 C 1.308594 56.617188 0.644531 52.953125 -0.25 49.25 C -0.25 47.25 -0.25 45.25 -0.25 43.25 C 0.121094 41.414062 0.703125 39.582031 1.5 37.75 C 1.640625 35.902344 1.640625 34.070312 1.5 32.25 C 2.507812 29.992188 4.089844 28.328125 6.25 27.25 Z M 6.25 27.25 "/>
</g>
<mask id="mask3">
  <g filter="url(#alpha)">
<rect x="0" y="0" width="100" height="99" style="fill:rgb(0%,0%,0%);fill-opacity:0.0117647;stroke:none;"/>
  </g>
</mask>
<clipPath id="clip4">
  <rect x="0" y="0" width="100" height="99"/>
</clipPath>
<g id="surface14" clip-path="url(#clip4)">
<path style=" stroke:none;fill-rule:evenodd;fill:rgb(16.078431%,20.392157%,24.705882%);fill-opacity:1;" d="M 99.75 41.75 C 99.75 46.917969 99.75 52.082031 99.75 57.25 C 98.550781 61.929688 96.800781 66.429688 94.5 70.75 C 92.191406 73.785156 89.359375 74.453125 86 72.75 C 84.300781 76.230469 82.050781 79.3125 79.25 82 C 78.828125 84.597656 77.910156 87.015625 76.5 89.25 C 75.613281 90.394531 74.527344 91.226562 73.25 91.75 C 76.03125 89.015625 77.617188 85.683594 78 81.75 C 81.234375 78.941406 83.734375 75.605469 85.5 71.75 C 89.285156 73.621094 92.285156 72.789062 94.5 69.25 C 98.511719 60.675781 99.84375 51.675781 98.5 42.25 C 98.445312 41.011719 97.945312 40.011719 97 39.25 C 96.832031 37.582031 96.667969 35.917969 96.5 34.25 C 96.191406 33.441406 95.691406 32.773438 95 32.25 C 94.171875 26.210938 90.921875 24.375 85.25 26.75 C 83.53125 23.15625 81.199219 19.988281 78.25 17.25 C 77.953125 14.773438 77.203125 12.4375 76 10.25 C 70.105469 3.179688 64.019531 3.015625 57.75 9.75 C 54.902344 7.789062 51.820312 7.289062 48.5 8.25 C 47.769531 8.097656 47.1875 7.761719 46.75 7.25 C 50.554688 6.265625 54.222656 6.597656 57.75 8.25 C 64.347656 2.023438 70.597656 2.355469 76.5 9.25 C 77.828125 11.40625 78.664062 13.742188 79 16.25 C 81.570312 18.726562 83.65625 21.5625 85.25 24.75 C 87.371094 24.828125 89.539062 24.910156 91.75 25 C 92.980469 25.730469 94.0625 26.644531 95 27.75 C 95.699219 30.226562 96.699219 32.5625 98 34.75 C 98.019531 37.292969 98.601562 39.625 99.75 41.75 Z M 99.75 41.75 "/>
</g>
<mask id="mask4">
  <g filter="url(#alpha)">
<rect x="0" y="0" width="100" height="99" style="fill:rgb(0%,0%,0%);fill-opacity:0.0235294;stroke:none;"/>
  </g>
</mask>
<clipPath id="clip5">
  <rect x="0" y="0" width="100" height="99"/>
</clipPath>
<g id="surface17" clip-path="url(#clip5)">
<path style=" stroke:none;fill-rule:evenodd;fill:rgb(14.901961%,17.254902%,21.960784%);fill-opacity:1;" d="M 73.25 91.75 C 69.625 95.1875 65.625 95.601562 61.25 93 C 59.675781 92.011719 58.34375 90.761719 57.25 89.25 C 54.558594 90.878906 51.808594 91.210938 49 90.25 C 47.714844 92.320312 46.546875 94.488281 45.5 96.75 C 44.632812 97.726562 43.550781 98.226562 42.25 98.25 C 43.667969 97.65625 44.753906 96.65625 45.5 95.25 C 46.140625 93.421875 46.890625 91.671875 47.75 90 C 50.96875 90.058594 54.054688 89.476562 57 88.25 C 58.25 89.640625 59.667969 90.890625 61.25 92 C 65.300781 94.265625 69.300781 94.183594 73.25 91.75 Z M 73.25 91.75 "/>
</g>
</defs>
<g id="surface1">
<use xlink:href="#surface5" mask="url(#mask0)"/>
<use xlink:href="#surface8" mask="url(#mask1)"/>
<path style=" stroke:none;fill-rule:evenodd;fill:rgb(6.27451%,4.705882%,4.705882%);fill-opacity:1;" d="M 46.75 7.25 C 47.1875 7.761719 47.769531 8.097656 48.5 8.25 C 51.820312 7.289062 54.902344 7.789062 57.75 9.75 C 64.019531 3.015625 70.105469 3.179688 76 10.25 C 77.203125 12.4375 77.953125 14.773438 78.25 17.25 C 81.199219 19.988281 83.53125 23.15625 85.25 26.75 C 90.921875 24.375 94.171875 26.210938 95 32.25 C 95.691406 32.773438 96.191406 33.441406 96.5 34.25 C 96.667969 35.917969 96.832031 37.582031 97 39.25 C 97.945312 40.011719 98.445312 41.011719 98.5 42.25 C 99.84375 51.675781 98.511719 60.675781 94.5 69.25 C 92.285156 72.789062 89.285156 73.621094 85.5 71.75 C 83.734375 75.605469 81.234375 78.941406 78 81.75 C 77.617188 85.683594 76.03125 89.015625 73.25 91.75 C 69.300781 94.183594 65.300781 94.265625 61.25 92 C 59.667969 90.890625 58.25 89.640625 57 88.25 C 54.054688 89.476562 50.96875 90.058594 47.75 90 C 46.890625 91.671875 46.140625 93.421875 45.5 95.25 C 44.753906 96.65625 43.667969 97.65625 42.25 98.25 C 42.25 98.417969 42.25 98.582031 42.25 98.75 C 41.25 98.75 40.25 98.75 39.25 98.75 C 38.011719 97.929688 37.011719 96.84375 36.25 95.5 C 33.449219 94.9375 30.617188 94.605469 27.75 94.5 C 25.917969 93.167969 24.082031 91.832031 22.25 90.5 C 19.933594 90.695312 17.601562 90.695312 15.25 90.5 C 10.789062 87.78125 9.289062 83.949219 10.75 79 C 10.015625 76.925781 9.265625 74.84375 8.5 72.75 C 6.953125 71.660156 5.453125 70.496094 4 69.25 C 3.21875 68.390625 2.804688 67.390625 2.75 66.25 C 2.507812 61.210938 1.925781 56.210938 1 51.25 C 0.667969 48.082031 0.667969 44.917969 1 41.75 C 1.964844 38.664062 2.464844 35.496094 2.5 32.25 C 3.472656 30.363281 4.722656 28.695312 6.25 27.25 C 8.339844 26.335938 10.089844 25 11.5 23.25 C 11.355469 20.929688 11.105469 18.597656 10.75 16.25 C 10.691406 12.949219 12.191406 10.699219 15.25 9.5 C 18.082031 9.332031 20.917969 9.167969 23.75 9 C 24.378906 8.128906 24.878906 7.214844 25.25 6.25 C 25.8125 5.273438 26.644531 4.523438 27.75 4 C 30.21875 3.457031 32.71875 3.125 35.25 3 C 35.855469 1.976562 36.691406 1.226562 37.75 0.75 C 39.785156 0.00390625 41.785156 0.0898438 43.75 1 C 45.191406 2.921875 46.191406 5.003906 46.75 7.25 Z M 46.75 7.25 "/>
<path style=" stroke:none;fill-rule:evenodd;fill:rgb(85.882353%,73.72549%,61.568627%);fill-opacity:1;" d="M 86.75 33.75 C 87.917969 33.75 89.082031 33.75 90.25 33.75 C 90.578125 35.226562 90.746094 36.726562 90.75 38.25 C 89.582031 38.25 88.417969 38.25 87.25 38.25 C 87.019531 36.757812 86.851562 35.257812 86.75 33.75 Z M 86.75 33.75 "/>
<path style=" stroke:none;fill-rule:evenodd;fill:rgb(84.313725%,72.941176%,62.745098%);fill-opacity:1;" d="M 91.25 33.75 C 93.949219 33.953125 95.113281 35.453125 94.75 38.25 C 93.75 38.25 92.75 38.25 91.75 38.25 C 91.648438 36.742188 91.480469 35.242188 91.25 33.75 Z M 91.25 33.75 "/>
<path style=" stroke:none;fill-rule:evenodd;fill:rgb(26.666667%,21.960784%,20.392157%);fill-opacity:1;" d="M 19.25 31.75 C 20.34375 32.375 20.511719 33.207031 19.75 34.25 C 19.25 34.25 18.75 34.25 18.25 34.25 C 18.058594 33.152344 18.394531 32.316406 19.25 31.75 Z M 19.25 31.75 "/>
<path style=" stroke:none;fill-rule:evenodd;fill:rgb(3.529412%,2.745098%,2.745098%);fill-opacity:1;" d="M 16.25 35.75 C 16.25 35.917969 16.25 36.082031 16.25 36.25 C 13.761719 39.9375 11.179688 40.101562 8.5 36.75 C 8.25 35.59375 8.167969 34.429688 8.25 33.25 C 10.78125 30.652344 13.363281 30.652344 16 33.25 C 16.246094 34.066406 16.332031 34.902344 16.25 35.75 Z M 16.25 35.75 "/>
<path style=" stroke:none;fill-rule:evenodd;fill:rgb(53.72549%,48.235294%,46.27451%);fill-opacity:1;" d="M 19.75 28.25 C 20.824219 28.996094 21.988281 29.496094 23.25 29.75 C 23.25 29.25 23.25 28.75 23.25 28.25 C 23.75 28.582031 24.25 28.917969 24.75 29.25 C 24.542969 29.609375 24.207031 29.859375 23.75 30 C 25.039062 31.089844 25.957031 32.175781 26.5 33.25 C 26.582031 33.667969 26.667969 34.082031 26.75 34.5 C 26.65625 35.1875 26.324219 35.605469 25.75 35.75 C 24.082031 35.53125 22.582031 35.867188 21.25 36.75 C 21.25 36.417969 21.082031 36.25 20.75 36.25 C 20.886719 35.308594 20.550781 34.644531 19.75 34.25 C 20.511719 33.207031 20.34375 32.375 19.25 31.75 C 17.871094 31.015625 18.039062 30.683594 19.75 30.75 C 19.75 29.917969 19.75 29.082031 19.75 28.25 Z M 19.75 28.25 "/>
<path style=" stroke:none;fill-rule:evenodd;fill:rgb(80%,63.921569%,53.72549%);fill-opacity:1;" d="M 88.75 28.25 C 91.347656 27.925781 92.515625 29.09375 92.25 31.75 C 91.25 31.75 90.25 31.75 89.25 31.75 C 89.277344 30.546875 89.109375 29.382812 88.75 28.25 Z M 88.75 28.25 "/>
<path style=" stroke:none;fill-rule:evenodd;fill:rgb(86.27451%,71.372549%,56.470588%);fill-opacity:1;" d="M 85.25 28.75 C 86.25 28.75 87.25 28.75 88.25 28.75 C 88.496094 29.902344 88.664062 31.070312 88.75 32.25 C 87.75 32.25 86.75 32.25 85.75 32.25 C 85.664062 31.070312 85.496094 29.902344 85.25 28.75 Z M 85.25 28.75 "/>
<path style=" stroke:none;fill-rule:evenodd;fill:rgb(86.27451%,74.117647%,66.27451%);fill-opacity:1;" d="M 16.75 34.25 C 16.867188 34.894531 16.703125 35.394531 16.25 35.75 C 16.332031 34.902344 16.246094 34.066406 16 33.25 C 13.363281 30.652344 10.78125 30.652344 8.25 33.25 C 6.882812 32.507812 6.132812 33.007812 6 34.75 C 5.792969 34.519531 5.542969 34.355469 5.25 34.25 C 4.914062 35.484375 4.582031 36.652344 4.25 37.75 C 4.027344 35.464844 4.359375 33.296875 5.25 31.25 C 6.46875 31.058594 7.46875 30.472656 8.25 29.5 C 10.5625 28.917969 12.894531 28.753906 15.25 29 C 15.925781 29.386719 16.339844 29.96875 16.5 30.75 C 16.75 31.90625 16.832031 33.070312 16.75 34.25 Z M 16.75 34.25 "/>
<path style=" stroke:none;fill-rule:evenodd;fill:rgb(99.607843%,85.490196%,50.588235%);fill-opacity:1;" d="M 71.25 40.25 C 71.835938 40.851562 72.503906 40.851562 73.25 40.25 C 73.652344 41.210938 73.902344 42.210938 74 43.25 C 74.621094 42.289062 75.371094 42.121094 76.25 42.75 C 75.75 43.167969 75.25 43.582031 74.75 44 C 75.558594 44.117188 76.058594 44.535156 76.25 45.25 C 68.269531 47.921875 68.269531 50.671875 76.25 53.5 C 77.441406 53.777344 78.609375 53.695312 79.75 53.25 C 80.121094 53.183594 80.453125 53.269531 80.75 53.5 C 80.0625 54.121094 79.5625 54.871094 79.25 55.75 C 78.101562 56.140625 77.015625 56.640625 76 57.25 C 75.175781 57.070312 74.339844 56.902344 73.5 56.75 C 73.082031 57.167969 72.667969 57.582031 72.25 58 C 74.136719 58.855469 74.136719 59.191406 72.25 59 C 70.816406 57.855469 69.152344 57.441406 67.25 57.75 C 62.152344 57.757812 58.570312 60.089844 56.5 64.75 C 55.621094 69.652344 57.203125 73.488281 61.25 76.25 C 61.613281 76.855469 62.113281 77.355469 62.75 77.75 C 60.769531 78.328125 58.769531 78.414062 56.75 78 C 56.5 77.75 56.25 77.5 56 77.25 C 47.078125 79.496094 40.246094 76.664062 35.5 68.75 C 35.855469 70.472656 36.523438 72.140625 37.5 73.75 C 39 75.054688 39.75 76.554688 39.75 78.25 C 36.519531 76.136719 34.519531 73.136719 33.75 69.25 C 34.027344 68.03125 34.027344 66.863281 33.75 65.75 C 34.304688 64.808594 34.722656 63.808594 35 62.75 C 36.023438 53.574219 35.941406 44.40625 34.75 35.25 C 34.832031 34.082031 34.917969 32.917969 35 31.75 C 35.546875 30.960938 35.964844 30.128906 36.25 29.25 C 38.105469 27.480469 40.273438 26.230469 42.75 25.5 C 45.917969 25.167969 49.082031 25.167969 52.25 25.5 C 52.707031 25.6875 53.125 25.9375 53.5 26.25 C 53.570312 31.632812 55.488281 36.214844 59.25 40 C 63.203125 42.84375 67.203125 42.925781 71.25 40.25 Z M 71.25 40.25 "/>
<path style=" stroke:none;fill-rule:evenodd;fill:rgb(34.901961%,37.254902%,41.568627%);fill-opacity:1;" d="M 31.25 14.25 C 31.894531 14.132812 32.394531 14.296875 32.75 14.75 C 35.253906 21.402344 33.753906 27.152344 28.25 32 C 27.582031 32 26.917969 32 26.25 32 C 28.722656 33.6875 29.722656 35.9375 29.25 38.75 C 28.21875 37.550781 27.054688 36.550781 25.75 35.75 C 26.324219 35.605469 26.65625 35.1875 26.75 34.5 C 26.667969 34.082031 26.582031 33.667969 26.5 33.25 C 25.957031 32.175781 25.039062 31.089844 23.75 30 C 24.207031 29.859375 24.542969 29.609375 24.75 29.25 C 26.402344 28.660156 27.816406 27.660156 29 26.25 C 29.1875 22.90625 29.1875 19.570312 29 16.25 C 29.6875 15.480469 30.4375 14.8125 31.25 14.25 Z M 31.25 14.25 "/>
<path style=" stroke:none;fill-rule:evenodd;fill:rgb(87.058824%,59.607843%,36.078431%);fill-opacity:1;" d="M 83.75 40.25 C 81.898438 35.453125 79.980469 30.617188 78 25.75 C 76.800781 24.464844 75.550781 23.300781 74.25 22.25 C 75.832031 22.734375 77.246094 23.566406 78.5 24.75 C 78.851562 23.515625 78.6875 22.347656 78 21.25 C 75.757812 20.167969 73.507812 19.085938 71.25 18 C 65.066406 17.589844 60.230469 17.675781 56.75 18.25 C 56.835938 18.910156 56.667969 19.496094 56.25 20 C 57.941406 20.03125 59.355469 20.613281 60.5 21.75 C 63.347656 20.785156 66.265625 20.535156 69.25 21 C 69.707031 21.140625 70.039062 21.390625 70.25 21.75 C 70.25 21.917969 70.25 22.082031 70.25 22.25 C 63.609375 20.03125 59.023438 22.195312 56.5 28.75 C 56.335938 36.753906 60.253906 40.503906 68.25 40 C 73.949219 37.59375 76.03125 33.34375 74.5 27.25 C 73.863281 25.703125 72.945312 24.367188 71.75 23.25 C 72.417969 23.25 73.082031 23.25 73.75 23.25 C 76.980469 27.941406 77.066406 32.773438 74 37.75 C 73.148438 38.6875 72.230469 39.519531 71.25 40.25 C 67.203125 42.925781 63.203125 42.84375 59.25 40 C 55.488281 36.214844 53.570312 31.632812 53.5 26.25 C 53.125 25.9375 52.707031 25.6875 52.25 25.5 C 49.082031 25.167969 45.917969 25.167969 42.75 25.5 C 40.273438 26.230469 38.105469 27.480469 36.25 29.25 C 35.601562 29.644531 35.019531 30.144531 34.5 30.75 C 34.332031 29.578125 34.417969 28.410156 34.75 27.25 C 35.664062 21.917969 38.832031 18.835938 44.25 18 C 49.277344 17.011719 54.363281 16.59375 59.5 16.75 C 64.863281 16.4375 70.113281 17.019531 75.25 18.5 C 79.53125 21.460938 82.28125 25.546875 83.5 30.75 C 83.871094 31.71875 83.789062 32.636719 83.25 33.5 C 83.707031 33.6875 84.125 33.9375 84.5 34.25 C 85.023438 35.878906 85.273438 37.546875 85.25 39.25 C 84.410156 39.144531 83.910156 39.476562 83.75 40.25 Z M 83.75 40.25 "/>
<path style=" stroke:none;fill-rule:evenodd;fill:rgb(1.960784%,1.176471%,1.568627%);fill-opacity:1;" d="M 70.25 22.25 C 70.75 22.582031 71.25 22.917969 71.75 23.25 C 72.945312 24.367188 73.863281 25.703125 74.5 27.25 C 76.03125 33.34375 73.949219 37.59375 68.25 40 C 60.253906 40.503906 56.335938 36.753906 56.5 28.75 C 59.023438 22.195312 63.609375 20.03125 70.25 22.25 Z M 70.25 22.25 "/>
<path style=" stroke:none;fill-rule:evenodd;fill:rgb(90.196078%,58.431373%,32.156863%);fill-opacity:1;" d="M 74.25 22.25 C 72.9375 21.953125 71.601562 21.789062 70.25 21.75 C 70.039062 21.390625 69.707031 21.140625 69.25 21 C 66.265625 20.535156 63.347656 20.785156 60.5 21.75 C 59.355469 20.613281 57.941406 20.03125 56.25 20 C 56.667969 19.496094 56.835938 18.910156 56.75 18.25 C 60.230469 17.675781 65.066406 17.589844 71.25 18 C 73.507812 19.085938 75.757812 20.167969 78 21.25 C 78.6875 22.347656 78.851562 23.515625 78.5 24.75 C 77.246094 23.566406 75.832031 22.734375 74.25 22.25 Z M 74.25 22.25 "/>
<path style=" stroke:none;fill-rule:evenodd;fill:rgb(90.980392%,79.607843%,70.980392%);fill-opacity:1;" d="M 21.25 26.75 C 18.675781 25.773438 16.011719 25.273438 13.25 25.25 C 13.191406 21.707031 12.941406 18.207031 12.5 14.75 C 13.773438 12.488281 15.691406 11.324219 18.25 11.25 C 19.597656 12.433594 20.933594 13.601562 22.25 14.75 C 22.96875 14.640625 23.636719 14.390625 24.25 14 C 25.507812 12.660156 26.839844 11.410156 28.25 10.25 C 29.777344 11.425781 30.113281 12.925781 29.25 14.75 C 28.273438 15.980469 27.1875 17.144531 26 18.25 C 25.976562 21.179688 25.476562 24.015625 24.5 26.75 C 23.3125 27.042969 22.230469 27.042969 21.25 26.75 Z M 21.25 26.75 "/>
<path style=" stroke:none;fill-rule:evenodd;fill:rgb(10.588235%,7.843137%,6.27451%);fill-opacity:1;" d="M 17.25 13.75 C 19.832031 13.554688 20.664062 14.636719 19.75 17 C 17.304688 17.140625 16.472656 16.058594 17.25 13.75 Z M 17.25 13.75 "/>
<path style=" stroke:none;fill-rule:evenodd;fill:rgb(90.196078%,63.529412%,41.176471%);fill-opacity:1;" d="M 71.75 9.25 C 74.035156 10.824219 74.953125 12.992188 74.5 15.75 C 70.023438 14.496094 65.4375 13.996094 60.75 14.25 C 60.910156 13.476562 61.410156 13.144531 62.25 13.25 C 65.503906 13.773438 68.835938 14.023438 72.25 14 C 72.785156 13.628906 73.121094 13.128906 73.25 12.5 C 72.683594 11.617188 72.183594 10.699219 71.75 9.75 C 71.75 9.582031 71.75 9.417969 71.75 9.25 Z M 71.75 9.25 "/>
<path style=" stroke:none;fill-rule:evenodd;fill:rgb(35.686275%,38.431373%,39.215686%);fill-opacity:1;" d="M 48.75 12.25 C 48.351562 13.019531 48.183594 13.855469 48.25 14.75 C 44.308594 15.148438 40.640625 16.316406 37.25 18.25 C 37.988281 15.800781 39.320312 13.71875 41.25 12 C 43.746094 11.957031 46.246094 12.039062 48.75 12.25 Z M 48.75 12.25 "/>
<path style=" stroke:none;fill-rule:evenodd;fill:rgb(92.941176%,60.784314%,30.196078%);fill-opacity:1;" d="M 71.75 9.75 C 72.183594 10.699219 72.683594 11.617188 73.25 12.5 C 73.121094 13.128906 72.785156 13.628906 72.25 14 C 68.835938 14.023438 65.503906 13.773438 62.25 13.25 C 65.164062 11.375 68.332031 10.207031 71.75 9.75 Z M 71.75 9.75 "/>
<path style=" stroke:none;fill-rule:evenodd;fill:rgb(98.823529%,81.568627%,49.803922%);fill-opacity:1;" d="M 71.75 9.25 C 71.75 9.417969 71.75 9.582031 71.75 9.75 C 68.332031 10.207031 65.164062 11.375 62.25 13.25 C 61.410156 13.144531 60.910156 13.476562 60.75 14.25 C 60.082031 14.25 59.417969 14.25 58.75 14.25 C 59.402344 10.84375 61.402344 8.59375 64.75 7.5 C 67.367188 7.011719 69.703125 7.597656 71.75 9.25 Z M 71.75 9.25 "/>
<path style=" stroke:none;fill-rule:evenodd;fill:rgb(58.431373%,54.509804%,50.980392%);fill-opacity:1;" d="M 48.75 12.25 C 46.246094 12.039062 43.746094 11.957031 41.25 12 C 39.320312 13.71875 37.988281 15.800781 37.25 18.25 C 36.601562 18.644531 36.019531 19.144531 35.5 19.75 C 34.703125 17.988281 33.789062 16.324219 32.75 14.75 C 32.394531 14.296875 31.894531 14.132812 31.25 14.25 C 32.09375 13.949219 32.84375 13.449219 33.5 12.75 C 33.710938 13.335938 34.042969 13.835938 34.5 14.25 C 35.007812 13.25 35.425781 12.25 35.75 11.25 C 35.640625 11.835938 35.808594 12.335938 36.25 12.75 C 37.359375 9.917969 36.691406 7.667969 34.25 6 C 34.832031 5.917969 35.417969 5.832031 36 5.75 C 39.53125 7.09375 43.113281 8.34375 46.75 9.5 C 49.851562 8.972656 52.851562 9.308594 55.75 10.5 C 56.453125 10.683594 56.953125 11.101562 57.25 11.75 C 56.84375 12.535156 56.679688 13.367188 56.75 14.25 C 54.25 14.25 51.75 14.25 49.25 14.25 C 49.425781 13.117188 49.261719 12.449219 48.75 12.25 Z M 48.75 12.25 "/>
<path style=" stroke:none;fill-rule:evenodd;fill:rgb(67.843137%,59.215686%,54.117647%);fill-opacity:1;" d="M 35.75 11.25 C 35.425781 12.25 35.007812 13.25 34.5 14.25 C 34.042969 13.835938 33.710938 13.335938 33.5 12.75 C 32.84375 13.449219 32.09375 13.949219 31.25 14.25 C 30.4375 14.8125 29.6875 15.480469 29 16.25 C 29.1875 19.570312 29.1875 22.90625 29 26.25 C 27.816406 27.660156 26.402344 28.660156 24.75 29.25 C 24.25 28.917969 23.75 28.582031 23.25 28.25 C 22.582031 27.75 21.917969 27.25 21.25 26.75 C 22.230469 27.042969 23.3125 27.042969 24.5 26.75 C 25.476562 24.015625 25.976562 21.179688 26 18.25 C 27.1875 17.144531 28.273438 15.980469 29.25 14.75 C 30.113281 12.925781 29.777344 11.425781 28.25 10.25 C 26.839844 11.410156 25.507812 12.660156 24.25 14 C 23.636719 14.390625 22.96875 14.640625 22.25 14.75 C 20.933594 13.601562 19.597656 12.433594 18.25 11.25 C 20.089844 11.332031 21.925781 11.25 23.75 11 C 25.035156 9.761719 26.199219 8.425781 27.25 7 C 31.71875 5.234375 34.550781 6.652344 35.75 11.25 Z M 35.75 11.25 "/>
<path style=" stroke:none;fill-rule:evenodd;fill:rgb(36.078431%,37.254902%,39.215686%);fill-opacity:1;" d="M 39.25 1.75 C 42.644531 1.476562 44.144531 2.976562 43.75 6.25 C 42.273438 5.757812 40.773438 5.339844 39.25 5 C 38.113281 3.980469 38.113281 2.898438 39.25 1.75 Z M 39.25 1.75 "/>
<use xlink:href="#surface11" mask="url(#mask2)"/>
<path style=" stroke:none;fill-rule:evenodd;fill:rgb(94.509804%,83.529412%,73.333333%);fill-opacity:1;" d="M 16.75 34.25 C 17.109375 34.457031 17.359375 34.792969 17.5 35.25 C 17.410156 40.019531 17.996094 44.683594 19.25 49.25 C 18.941406 50.867188 18.359375 52.367188 17.5 53.75 C 17.089844 56.675781 17.175781 59.507812 17.75 62.25 C 17.945312 63.140625 18.28125 63.976562 18.75 64.75 C 18.59375 65.367188 18.34375 65.367188 18 64.75 C 17.5 66.085938 16.75 67.253906 15.75 68.25 C 16.097656 68.757812 16.429688 69.257812 16.75 69.75 C 15.027344 69.59375 13.359375 69.175781 11.75 68.5 C 13.753906 67.828125 15.503906 66.746094 17 65.25 C 17.097656 63.816406 16.847656 62.484375 16.25 61.25 C 15.917969 61.25 15.75 61.082031 15.75 60.75 C 16.652344 60.039062 16.988281 59.039062 16.75 57.75 C 15.128906 57.308594 13.542969 56.808594 12 56.25 C 10.632812 56.308594 9.382812 56.722656 8.25 57.5 C 7.601562 60.035156 7.101562 62.617188 6.75 65.25 C 6.457031 65.144531 6.207031 64.976562 6 64.75 C 5.792969 62.578125 5.875 60.414062 6.25 58.25 C 4.9375 52.3125 4.519531 46.3125 5 40.25 C 5.457031 39.835938 5.789062 39.335938 6 38.75 C 6.617188 39.769531 7.535156 40.351562 8.75 40.5 C 11.113281 40.8125 13.445312 40.644531 15.75 40 C 17.332031 38.8125 17.5 37.5625 16.25 36.25 C 16.25 36.082031 16.25 35.917969 16.25 35.75 C 16.703125 35.394531 16.867188 34.894531 16.75 34.25 Z M 16.75 34.25 "/>
<path style=" stroke:none;fill-rule:evenodd;fill:rgb(87.843137%,76.470588%,65.098039%);fill-opacity:1;" d="M 87.75 40.25 C 89.082031 40.25 90.417969 40.25 91.75 40.25 C 91.753906 41.773438 91.921875 43.273438 92.25 44.75 C 90.917969 44.75 89.582031 44.75 88.25 44.75 C 88.148438 43.242188 87.980469 41.742188 87.75 40.25 Z M 87.75 40.25 "/>
<path style=" stroke:none;fill-rule:evenodd;fill:rgb(93.333333%,81.176471%,69.803922%);fill-opacity:1;" d="M 92.75 40.25 C 93.734375 40.128906 94.652344 40.296875 95.5 40.75 C 95.75 42.074219 95.832031 43.40625 95.75 44.75 C 94.855469 44.894531 94.023438 44.726562 93.25 44.25 C 92.804688 42.957031 92.636719 41.625 92.75 40.25 Z M 92.75 40.25 "/>
<use xlink:href="#surface14" mask="url(#mask3)"/>
<path style=" stroke:none;fill-rule:evenodd;fill:rgb(30.980392%,34.117647%,38.823529%);fill-opacity:1;" d="M 24.75 36.75 C 29.019531 39.207031 30.851562 42.957031 30.25 48 C 30.175781 51.515625 29.59375 54.933594 28.5 58.25 C 27.148438 60.125 25.398438 61.292969 23.25 61.75 C 22 61.585938 21.414062 60.921875 21.5 59.75 C 23.648438 61.382812 24.898438 60.882812 25.25 58.25 C 24.148438 55.40625 23.984375 52.488281 24.75 49.5 C 24.605469 46.808594 24.269531 44.144531 23.75 41.5 C 24.535156 40.039062 24.871094 38.457031 24.75 36.75 Z M 24.75 36.75 "/>
<path style=" stroke:none;fill-rule:evenodd;fill:rgb(85.098039%,60.784314%,37.647059%);fill-opacity:1;" d="M 34.75 27.25 C 34.417969 28.410156 34.332031 29.578125 34.5 30.75 C 35.019531 30.144531 35.601562 29.644531 36.25 29.25 C 35.964844 30.128906 35.546875 30.960938 35 31.75 C 34.917969 32.917969 34.832031 34.082031 34.75 35.25 C 35.941406 44.40625 36.023438 53.574219 35 62.75 C 34.722656 63.808594 34.304688 64.808594 33.75 65.75 C 34.027344 66.863281 34.027344 68.03125 33.75 69.25 C 32.710938 68.339844 32.042969 67.175781 31.75 65.75 C 32.921875 62.351562 32.921875 58.933594 31.75 55.5 C 32.324219 49.523438 32.324219 43.605469 31.75 37.75 C 31.710938 36.339844 31.378906 35.007812 30.75 33.75 C 32.09375 31.574219 33.429688 29.410156 34.75 27.25 Z M 34.75 27.25 "/>
<path style=" stroke:none;fill-rule:evenodd;fill:rgb(67.843137%,58.039216%,53.333333%);fill-opacity:1;" d="M 20.75 36.25 C 21.082031 36.25 21.25 36.417969 21.25 36.75 C 21.183594 37.121094 21.269531 37.453125 21.5 37.75 C 22.449219 36.992188 23.53125 36.660156 24.75 36.75 C 24.871094 38.457031 24.535156 40.039062 23.75 41.5 C 24.269531 44.144531 24.605469 46.808594 24.75 49.5 C 23.984375 52.488281 24.148438 55.40625 25.25 58.25 C 24.898438 60.882812 23.648438 61.382812 21.5 59.75 C 21.414062 60.921875 22 61.585938 23.25 61.75 C 24.167969 63.757812 24.5 65.921875 24.25 68.25 C 23.363281 68.941406 22.613281 68.773438 22 67.75 C 21.574219 68.285156 21.15625 68.785156 20.75 69.25 C 20.269531 68.269531 19.601562 67.4375 18.75 66.75 C 19.429688 65.984375 20.015625 65.152344 20.5 64.25 C 20.378906 61.660156 21.128906 59.410156 22.75 57.5 C 22.582031 57.332031 22.417969 57.167969 22.25 57 C 23.679688 55.902344 23.929688 54.652344 23 53.25 C 22.574219 54.0625 22.074219 54.230469 21.5 53.75 C 21.035156 52.769531 20.617188 51.769531 20.25 50.75 C 20.816406 49.601562 21.484375 48.515625 22.25 47.5 C 21.121094 46.257812 21.121094 45.089844 22.25 44 C 21.820312 41.394531 21.320312 38.8125 20.75 36.25 Z M 20.75 36.25 "/>
<path style=" stroke:none;fill-rule:evenodd;fill:rgb(5.490196%,3.529412%,2.352941%);fill-opacity:1;" d="M 79.75 53.25 C 78.609375 53.695312 77.441406 53.777344 76.25 53.5 C 68.269531 50.671875 68.269531 47.921875 76.25 45.25 C 77.746094 44.414062 78.910156 44.75 79.75 46.25 C 78.582031 47.25 77.417969 48.25 76.25 49.25 C 77.089844 50.378906 78.171875 51.214844 79.5 51.75 C 79.742188 52.222656 79.824219 52.722656 79.75 53.25 Z M 79.75 53.25 "/>
<path style=" stroke:none;fill-rule:evenodd;fill:rgb(75.294118%,62.745098%,55.686275%);fill-opacity:1;" d="M 19.75 28.25 C 19.75 29.082031 19.75 29.917969 19.75 30.75 C 18.039062 30.683594 17.871094 31.015625 19.25 31.75 C 18.394531 32.316406 18.058594 33.152344 18.25 34.25 C 18.75 34.25 19.25 34.25 19.75 34.25 C 20.550781 34.644531 20.886719 35.308594 20.75 36.25 C 21.320312 38.8125 21.820312 41.394531 22.25 44 C 21.121094 45.089844 21.121094 46.257812 22.25 47.5 C 21.484375 48.515625 20.816406 49.601562 20.25 50.75 C 20.617188 51.769531 21.035156 52.769531 21.5 53.75 C 22.074219 54.230469 22.574219 54.0625 23 53.25 C 23.929688 54.652344 23.679688 55.902344 22.25 57 C 22.417969 57.167969 22.582031 57.332031 22.75 57.5 C 21.128906 59.410156 20.378906 61.660156 20.5 64.25 C 20.015625 65.152344 19.429688 65.984375 18.75 66.75 C 19.601562 67.4375 20.269531 68.269531 20.75 69.25 C 19.941406 70.15625 18.941406 70.824219 17.75 71.25 C 17.417969 70.75 17.082031 70.25 16.75 69.75 C 16.429688 69.257812 16.097656 68.757812 15.75 68.25 C 16.75 67.253906 17.5 66.085938 18 64.75 C 18.34375 65.367188 18.59375 65.367188 18.75 64.75 C 20.882812 63.171875 20.550781 62.339844 17.75 62.25 C 17.175781 59.507812 17.089844 56.675781 17.5 53.75 C 18.359375 52.367188 18.941406 50.867188 19.25 49.25 C 17.996094 44.683594 17.410156 40.019531 17.5 35.25 C 17.359375 34.792969 17.109375 34.457031 16.75 34.25 C 16.832031 33.070312 16.75 31.90625 16.5 30.75 C 16.339844 29.96875 15.925781 29.386719 15.25 29 C 12.894531 28.753906 10.5625 28.917969 8.25 29.5 C 7.46875 30.472656 6.46875 31.058594 5.25 31.25 C 9.234375 26.441406 14.066406 25.441406 19.75 28.25 Z M 19.75 28.25 "/>
<path style=" stroke:none;fill-rule:evenodd;fill:rgb(83.529412%,60.392157%,34.901961%);fill-opacity:1;" d="M 83.75 40.25 C 84.417969 40.25 85.082031 40.25 85.75 40.25 C 85.9375 41.324219 86.105469 42.40625 86.25 43.5 C 85.953125 44.621094 85.621094 45.703125 85.25 46.75 C 85.75 46.75 86.25 46.75 86.75 46.75 C 87.097656 49.304688 86.597656 51.636719 85.25 53.75 C 85.65625 54.109375 85.988281 54.523438 86.25 55 C 85.9375 56.066406 85.6875 57.152344 85.5 58.25 C 85.144531 58.988281 84.5625 59.320312 83.75 59.25 C 85.066406 52.917969 85.066406 46.585938 83.75 40.25 Z M 83.75 40.25 "/>
<path style=" stroke:none;fill-rule:evenodd;fill:rgb(85.098039%,69.019608%,53.72549%);fill-opacity:1;" d="M 88.75 46.75 C 91.25 46.75 93.75 46.75 96.25 46.75 C 96.25 48.75 96.25 50.75 96.25 52.75 C 93.582031 52.75 90.917969 52.75 88.25 52.75 C 88.582031 50.765625 88.746094 48.765625 88.75 46.75 Z M 88.75 46.75 "/>
<path style=" stroke:none;fill-rule:evenodd;fill:rgb(86.666667%,77.254902%,66.666667%);fill-opacity:1;" d="M 93.25 54.25 C 94.097656 54.171875 94.933594 54.253906 95.75 54.5 C 96.132812 55.917969 95.964844 57.335938 95.25 58.75 C 94.300781 59.234375 93.300781 59.398438 92.25 59.25 C 92.425781 57.546875 92.757812 55.882812 93.25 54.25 Z M 93.25 54.25 "/>
<path style=" stroke:none;fill-rule:evenodd;fill:rgb(98.823529%,85.882353%,54.117647%);fill-opacity:1;" d="M 70.25 22.25 C 70.25 22.082031 70.25 21.917969 70.25 21.75 C 71.601562 21.789062 72.9375 21.953125 74.25 22.25 C 75.550781 23.300781 76.800781 24.464844 78 25.75 C 79.980469 30.617188 81.898438 35.453125 83.75 40.25 C 85.066406 46.585938 85.066406 52.917969 83.75 59.25 C 83.910156 60.023438 84.410156 60.359375 85.25 60.25 C 84.390625 65.472656 82.808594 70.472656 80.5 75.25 C 78.320312 78.589844 75.238281 80.507812 71.25 81 C 63.417969 81.332031 55.582031 81.332031 47.75 81 C 44.914062 80.527344 42.246094 79.609375 39.75 78.25 C 39.75 76.554688 39 75.054688 37.5 73.75 C 36.523438 72.140625 35.855469 70.472656 35.5 68.75 C 40.246094 76.664062 47.078125 79.496094 56 77.25 C 56.25 77.5 56.5 77.75 56.75 78 C 58.769531 78.414062 60.769531 78.328125 62.75 77.75 C 62.113281 77.355469 61.613281 76.855469 61.25 76.25 C 67.511719 78.140625 71.929688 76.140625 74.5 70.25 C 75.6875 63.953125 73.269531 59.785156 67.25 57.75 C 69.152344 57.441406 70.816406 57.855469 72.25 59 C 74.136719 59.191406 74.136719 58.855469 72.25 58 C 72.667969 57.582031 73.082031 57.167969 73.5 56.75 C 74.339844 56.902344 75.175781 57.070312 76 57.25 C 77.015625 56.640625 78.101562 56.140625 79.25 55.75 C 79.5625 54.871094 80.0625 54.121094 80.75 53.5 C 80.453125 53.269531 80.121094 53.183594 79.75 53.25 C 79.824219 52.722656 79.742188 52.222656 79.5 51.75 C 78.171875 51.214844 77.089844 50.378906 76.25 49.25 C 77.417969 48.25 78.582031 47.25 79.75 46.25 C 78.910156 44.75 77.746094 44.414062 76.25 45.25 C 76.058594 44.535156 75.558594 44.117188 74.75 44 C 75.25 43.582031 75.75 43.167969 76.25 42.75 C 75.371094 42.121094 74.621094 42.289062 74 43.25 C 73.902344 42.210938 73.652344 41.210938 73.25 40.25 C 72.503906 40.851562 71.835938 40.851562 71.25 40.25 C 72.230469 39.519531 73.148438 38.6875 74 37.75 C 77.066406 32.773438 76.980469 27.941406 73.75 23.25 C 73.082031 23.25 72.417969 23.25 71.75 23.25 C 71.25 22.917969 70.75 22.582031 70.25 22.25 Z M 70.25 22.25 "/>
<path style=" stroke:none;fill-rule:evenodd;fill:rgb(87.843137%,74.509804%,60.392157%);fill-opacity:1;" d="M 88.25 54.25 C 89.582031 54.25 90.917969 54.25 92.25 54.25 C 92.152344 55.800781 91.820312 57.300781 91.25 58.75 C 89.957031 59.238281 88.625 59.40625 87.25 59.25 C 87.476562 57.546875 87.8125 55.878906 88.25 54.25 Z M 88.25 54.25 "/>
<path style=" stroke:none;fill-rule:evenodd;fill:rgb(1.960784%,1.568627%,1.568627%);fill-opacity:1;" d="M 67.25 57.75 C 73.269531 59.785156 75.6875 63.953125 74.5 70.25 C 71.929688 76.140625 67.511719 78.140625 61.25 76.25 C 57.203125 73.488281 55.621094 69.652344 56.5 64.75 C 58.570312 60.089844 62.152344 57.757812 67.25 57.75 Z M 67.25 57.75 "/>
<path style=" stroke:none;fill-rule:evenodd;fill:rgb(4.313725%,3.529412%,3.529412%);fill-opacity:1;" d="M 15.75 60.75 C 15.75 61.082031 15.917969 61.25 16.25 61.25 C 16.53125 64.472656 15.03125 66.136719 11.75 66.25 C 9.199219 66.15625 8.03125 64.824219 8.25 62.25 C 8.40625 59.011719 10.074219 57.761719 13.25 58.5 C 14.492188 58.828125 15.328125 59.578125 15.75 60.75 Z M 15.75 60.75 "/>
<path style=" stroke:none;fill-rule:evenodd;fill:rgb(29.019608%,30.980392%,36.862745%);fill-opacity:1;" d="M 24.25 68.25 C 24.5 65.921875 24.167969 63.757812 23.25 61.75 C 26.003906 61.859375 28.253906 60.859375 30 58.75 C 31.097656 63.738281 29.179688 66.902344 24.25 68.25 Z M 24.25 68.25 "/>
<path style=" stroke:none;fill-rule:evenodd;fill:rgb(90.196078%,79.607843%,69.019608%);fill-opacity:1;" d="M 91.75 60.75 C 92.800781 60.601562 93.800781 60.765625 94.75 61.25 C 94.417969 62.25 94.082031 63.25 93.75 64.25 C 92.789062 64.820312 91.789062 64.902344 90.75 64.5 C 91.175781 63.28125 91.511719 62.03125 91.75 60.75 Z M 91.75 60.75 "/>
<path style=" stroke:none;fill-rule:evenodd;fill:rgb(90.196078%,81.568627%,72.941176%);fill-opacity:1;" d="M 86.75 60.75 C 88.082031 60.75 89.417969 60.75 90.75 60.75 C 90.957031 64.195312 89.457031 65.363281 86.25 64.25 C 86.6875 63.125 86.855469 61.960938 86.75 60.75 Z M 86.75 60.75 "/>
<path style=" stroke:none;fill-rule:evenodd;fill:rgb(18.823529%,14.509804%,12.941176%);fill-opacity:1;" d="M 17.75 62.25 C 20.550781 62.339844 20.882812 63.171875 18.75 64.75 C 18.28125 63.976562 17.945312 63.140625 17.75 62.25 Z M 17.75 62.25 "/>
<path style=" stroke:none;fill-rule:evenodd;fill:rgb(96.470588%,89.411765%,81.568627%);fill-opacity:1;" d="M 8.25 33.25 C 8.167969 34.429688 8.25 35.59375 8.5 36.75 C 11.179688 40.101562 13.761719 39.9375 16.25 36.25 C 17.5 37.5625 17.332031 38.8125 15.75 40 C 13.445312 40.644531 11.113281 40.8125 8.75 40.5 C 7.535156 40.351562 6.617188 39.769531 6 38.75 C 5.789062 39.335938 5.457031 39.835938 5 40.25 C 4.519531 46.3125 4.9375 52.3125 6.25 58.25 C 5.875 60.414062 5.792969 62.578125 6 64.75 C 6.207031 64.976562 6.457031 65.144531 6.75 65.25 C 7.101562 62.617188 7.601562 60.035156 8.25 57.5 C 9.382812 56.722656 10.632812 56.308594 12 56.25 C 13.542969 56.808594 15.128906 57.308594 16.75 57.75 C 16.988281 59.039062 16.652344 60.039062 15.75 60.75 C 15.328125 59.578125 14.492188 58.828125 13.25 58.5 C 10.074219 57.761719 8.40625 59.011719 8.25 62.25 C 8.03125 64.824219 9.199219 66.15625 11.75 66.25 C 15.03125 66.136719 16.53125 64.472656 16.25 61.25 C 16.847656 62.484375 17.097656 63.816406 17 65.25 C 15.503906 66.746094 13.753906 67.828125 11.75 68.5 C 13.359375 69.175781 15.027344 69.59375 16.75 69.75 C 17.082031 70.25 17.417969 70.75 17.75 71.25 C 11.832031 72.367188 7.417969 70.367188 4.5 65.25 C 4.035156 59.152344 3.453125 53.066406 2.75 47 C 2.519531 43.773438 3.019531 40.6875 4.25 37.75 C 4.582031 36.652344 4.914062 35.484375 5.25 34.25 C 5.542969 34.355469 5.792969 34.519531 6 34.75 C 6.132812 33.007812 6.882812 32.507812 8.25 33.25 Z M 8.25 33.25 "/>
<path style=" stroke:none;fill-rule:evenodd;fill:rgb(29.411765%,34.509804%,40.392157%);fill-opacity:1;" d="M 32.75 82.25 C 32.511719 82.953125 32.011719 83.285156 31.25 83.25 C 29.847656 82.511719 29.011719 81.34375 28.75 79.75 C 29.28125 77.265625 29.363281 74.765625 29 72.25 C 27.699219 70.808594 26.117188 69.976562 24.25 69.75 C 25.886719 68.933594 27.554688 68.097656 29.25 67.25 C 33.707031 71.457031 34.871094 76.457031 32.75 82.25 Z M 32.75 82.25 "/>
<path style=" stroke:none;fill-rule:evenodd;fill:rgb(83.529412%,76.078431%,69.019608%);fill-opacity:1;" d="M 89.75 66.75 C 90.582031 66.75 91.417969 66.75 92.25 66.75 C 92.25 69.082031 91.082031 70.25 88.75 70.25 C 88.695312 68.960938 89.03125 67.792969 89.75 66.75 Z M 89.75 66.75 "/>
<path style=" stroke:none;fill-rule:evenodd;fill:rgb(85.490196%,78.431373%,73.333333%);fill-opacity:1;" d="M 86.25 66.25 C 87.082031 66.25 87.917969 66.25 88.75 66.25 C 88.816406 67.925781 88.148438 69.09375 86.75 69.75 C 85.867188 69.78125 85.367188 69.367188 85.25 68.5 C 85.523438 67.707031 85.855469 66.957031 86.25 66.25 Z M 86.25 66.25 "/>
<path style=" stroke:none;fill-rule:evenodd;fill:rgb(72.156863%,60.392157%,51.764706%);fill-opacity:1;" d="M 24.25 69.75 C 26.117188 69.976562 27.699219 70.808594 29 72.25 C 29.363281 74.765625 29.28125 77.265625 28.75 79.75 C 29.011719 81.34375 29.847656 82.511719 31.25 83.25 C 31.355469 83.960938 31.605469 84.628906 32 85.25 C 33.164062 86.101562 34.082031 87.101562 34.75 88.25 C 34.835938 88.746094 34.667969 89.078125 34.25 89.25 C 32.890625 87.96875 31.808594 86.46875 31 84.75 C 26.59375 82.273438 24.507812 78.441406 24.75 73.25 C 22.574219 73.292969 20.410156 73.460938 18.25 73.75 C 16.457031 73.726562 14.789062 73.390625 13.25 72.75 C 15.457031 72.847656 17.625 72.597656 19.75 72 C 21.121094 70.980469 22.621094 70.230469 24.25 69.75 Z M 24.25 69.75 "/>
<path style=" stroke:none;fill-rule:evenodd;fill:rgb(91.372549%,82.352941%,72.54902%);fill-opacity:1;" d="M 13.25 72.75 C 14.789062 73.390625 16.457031 73.726562 18.25 73.75 C 20.410156 73.460938 22.574219 73.292969 24.75 73.25 C 24.507812 78.441406 26.59375 82.273438 31 84.75 C 31.808594 86.46875 32.890625 87.96875 34.25 89.25 C 32.660156 92.121094 30.328125 92.871094 27.25 91.5 C 25.75 90.332031 24.25 89.167969 22.75 88 C 20.992188 87.75 19.242188 87.832031 17.5 88.25 C 15.332031 88.25 13.832031 87.25 13 85.25 C 12.832031 82.082031 12.667969 78.917969 12.5 75.75 C 12.082031 74.917969 11.667969 74.082031 11.25 73.25 C 11.84375 72.785156 12.511719 72.617188 13.25 72.75 Z M 13.25 72.75 "/>
<path style=" stroke:none;fill-rule:evenodd;fill:rgb(37.647059%,37.647059%,38.039216%);fill-opacity:1;" d="M 37.25 79.75 C 40.507812 81.613281 44.007812 82.78125 47.75 83.25 C 47.574219 84.746094 48.074219 85.246094 49.25 84.75 C 48.652344 85.386719 47.820312 85.722656 46.75 85.75 C 44.566406 86.210938 42.398438 86.210938 40.25 85.75 C 39.335938 83.660156 38.335938 81.660156 37.25 79.75 Z M 37.25 79.75 "/>
<path style=" stroke:none;fill-rule:evenodd;fill:rgb(62.352941%,57.647059%,54.117647%);fill-opacity:1;" d="M 37.25 79.75 C 38.335938 81.660156 39.335938 83.660156 40.25 85.75 C 42.398438 86.210938 44.566406 86.210938 46.75 85.75 C 47.820312 85.722656 48.652344 85.386719 49.25 84.75 C 51.527344 83.777344 54.027344 83.445312 56.75 83.75 C 56.960938 85.164062 56.460938 86.246094 55.25 87 C 50.535156 87.507812 45.871094 88.34375 41.25 89.5 C 39.417969 90.25 37.75 91.25 36.25 92.5 C 35.417969 92.832031 34.582031 92.832031 33.75 92.5 C 36.105469 90.429688 36.855469 87.847656 36 84.75 C 35.652344 86.003906 35.234375 87.167969 34.75 88.25 C 34.082031 87.101562 33.164062 86.101562 32 85.25 C 31.605469 84.628906 31.355469 83.960938 31.25 83.25 C 32.011719 83.285156 32.511719 82.953125 32.75 82.25 C 33.871094 81.175781 34.621094 79.84375 35 78.25 C 35.636719 78.941406 36.386719 79.441406 37.25 79.75 Z M 37.25 79.75 "/>
<path style=" stroke:none;fill-rule:evenodd;fill:rgb(17.254902%,13.72549%,10.588235%);fill-opacity:1;" d="M 17.75 81.75 C 20.078125 81.507812 20.746094 82.425781 19.75 84.5 C 17 84.902344 16.335938 83.988281 17.75 81.75 Z M 17.75 81.75 "/>
<path style=" stroke:none;fill-rule:evenodd;fill:rgb(83.529412%,65.490196%,43.921569%);fill-opacity:1;" d="M 73.75 87.25 C 73.75 86.917969 73.582031 86.75 73.25 86.75 C 73.859375 85.859375 74.191406 84.859375 74.25 83.75 C 70.269531 84.203125 66.269531 84.367188 62.25 84.25 C 61.753906 84.335938 61.421875 84.167969 61.25 83.75 C 65.976562 83.988281 70.644531 83.65625 75.25 82.75 C 75.234375 84.457031 74.734375 85.957031 73.75 87.25 Z M 73.75 87.25 "/>
<path style=" stroke:none;fill-rule:evenodd;fill:rgb(99.215686%,85.882353%,56.470588%);fill-opacity:1;" d="M 61.25 83.75 C 61.421875 84.167969 61.753906 84.335938 62.25 84.25 C 64.734375 86.582031 67.734375 87.746094 71.25 87.75 C 72.011719 87.503906 72.679688 87.167969 73.25 86.75 C 73.582031 86.75 73.75 86.917969 73.75 87.25 C 71.488281 90.710938 68.320312 91.960938 64.25 91 C 60.980469 89.652344 59.148438 87.234375 58.75 83.75 C 59.582031 83.75 60.417969 83.75 61.25 83.75 Z M 61.25 83.75 "/>
<path style=" stroke:none;fill-rule:evenodd;fill:rgb(96.862745%,67.45098%,36.470588%);fill-opacity:1;" d="M 73.25 86.75 C 72.679688 87.167969 72.011719 87.503906 71.25 87.75 C 67.734375 87.746094 64.734375 86.582031 62.25 84.25 C 66.269531 84.367188 70.269531 84.203125 74.25 83.75 C 74.191406 84.859375 73.859375 85.859375 73.25 86.75 Z M 73.25 86.75 "/>
<path style=" stroke:none;fill-rule:evenodd;fill:rgb(20%,23.137255%,24.705882%);fill-opacity:1;" d="M 42.25 95.75 C 42.25 94.417969 42.25 93.082031 42.25 91.75 C 44.96875 90.363281 45.550781 91.195312 44 94.25 C 43.480469 94.855469 42.898438 95.355469 42.25 95.75 Z M 42.25 95.75 "/>
<use xlink:href="#surface17" mask="url(#mask4)"/>
<path style=" stroke:none;fill-rule:evenodd;fill:rgb(42.745098%,46.666667%,49.019608%);fill-opacity:1;" d="M 42.25 91.75 C 42.25 93.082031 42.25 94.417969 42.25 95.75 C 39.515625 96.652344 38.515625 95.652344 39.25 92.75 C 40.226562 92.3125 41.226562 91.980469 42.25 91.75 Z M 42.25 91.75 "/>
</g>
</svg>
