<?xml version="1.0" encoding="UTF-8"?>
<svg xmlns="http://www.w3.org/2000/svg" xmlns:xlink="http://www.w3.org/1999/xlink" width="px" height="px" viewBox="0 0 110 110" version="1.1">
<defs>
<filter id="alpha" filterUnits="objectBoundingBox" x="0%" y="0%" width="100%" height="100%">
  <feColorMatrix type="matrix" in="SourceGraphic" values="0 0 0 0 1 0 0 0 0 1 0 0 0 0 1 0 0 0 1 0"/>
</filter>
<mask id="mask0">
  <g filter="url(#alpha)">
<rect x="0" y="0" width="110" height="110" style="fill:rgb(0%,0%,0%);fill-opacity:0.14902;stroke:none;"/>
  </g>
</mask>
<clipPath id="clip1">
  <rect x="0" y="0" width="110" height="110"/>
</clipPath>
<g id="surface5" clip-path="url(#clip1)">
<path style=" stroke:none;fill-rule:evenodd;fill:rgb(14.509804%,19.607843%,25.098039%);fill-opacity:1;" d="M 41.4375 1.757812 C 45.523438 2.628906 49.207031 4.304688 52.488281 6.78125 C 48.769531 5.085938 45.085938 3.414062 41.4375 1.757812 Z M 41.4375 1.757812 "/>
</g>
<mask id="mask1">
  <g filter="url(#alpha)">
<rect x="0" y="0" width="110" height="110" style="fill:rgb(0%,0%,0%);fill-opacity:0.00784314;stroke:none;"/>
  </g>
</mask>
<clipPath id="clip2">
  <rect x="0" y="0" width="110" height="110"/>
</clipPath>
<g id="surface8" clip-path="url(#clip2)">
<path style=" stroke:none;fill-rule:evenodd;fill:rgb(14.509804%,21.176471%,26.27451%);fill-opacity:1;" d="M 52.488281 6.78125 C 56.59375 8.121094 59.523438 10.796875 61.277344 14.816406 C 62.476562 16.183594 63.816406 17.355469 65.296875 18.332031 C 70.199219 12.066406 76.308594 10.640625 83.628906 14.0625 C 86.269531 16.585938 87.609375 19.683594 87.648438 23.355469 C 89.367188 24.070312 90.539062 25.242188 91.164062 26.871094 C 89.800781 25.8125 88.375 24.804688 86.894531 23.859375 C 87.03125 16.964844 83.683594 13.28125 76.847656 12.808594 C 74.863281 12.949219 72.9375 13.367188 71.074219 14.0625 C 68.800781 15.5 66.875 17.257812 65.296875 19.339844 C 62.910156 17.707031 60.984375 15.695312 59.519531 13.308594 C 59.167969 12.199219 58.496094 11.277344 57.511719 10.546875 C 55.714844 9.402344 54.039062 8.148438 52.488281 6.78125 Z M 52.488281 6.78125 "/>
</g>
<mask id="mask2">
  <g filter="url(#alpha)">
<rect x="0" y="0" width="110" height="110" style="fill:rgb(0%,0%,0%);fill-opacity:0.996078;stroke:none;"/>
  </g>
</mask>
<clipPath id="clip3">
  <rect x="0" y="0" width="110" height="110"/>
</clipPath>
<g id="surface11" clip-path="url(#clip3)">
<path style=" stroke:none;fill-rule:evenodd;fill:rgb(6.27451%,5.882353%,6.27451%);fill-opacity:1;" d="M 91.164062 26.871094 C 92.617188 27.699219 93.789062 28.871094 94.679688 30.386719 C 98.671875 30.398438 102.105469 31.738281 104.976562 34.40625 C 105.496094 36.039062 105.832031 37.714844 105.980469 39.429688 C 107.671875 40.953125 108.257812 42.792969 107.738281 44.953125 C 108.777344 45.972656 109.445312 47.144531 109.75 48.46875 C 109.75 48.804688 109.75 49.140625 109.75 49.476562 C 109.078125 49.640625 109.078125 49.808594 109.75 49.976562 C 109.75 51.820312 109.75 53.660156 109.75 55.503906 C 109.394531 58.617188 109.0625 61.800781 108.746094 65.046875 C 109.234375 66.882812 109.152344 68.726562 108.492188 70.570312 C 107.972656 71.179688 107.386719 71.679688 106.734375 72.078125 C 106.714844 71.144531 107.132812 70.472656 107.992188 70.070312 C 108.324219 68.226562 108.324219 66.386719 107.992188 64.542969 C 107.640625 63.945312 107.222656 63.441406 106.734375 63.035156 C 106.734375 62.871094 106.734375 62.703125 106.734375 62.535156 C 107.140625 59.769531 107.472656 56.925781 107.738281 53.996094 C 106.914062 52.105469 106.582031 50.09375 106.734375 47.96875 C 103.882812 47.882812 101.039062 47.96875 98.195312 48.21875 C 97.753906 48.574219 97.417969 48.992188 97.191406 49.476562 C 96.363281 51.445312 96.695312 53.203125 98.195312 54.75 C 100.417969 55.132812 102.59375 55.050781 104.726562 54.496094 C 105.347656 54.652344 105.347656 54.90625 104.726562 55.25 C 105.023438 55.484375 105.359375 55.566406 105.730469 55.503906 C 103.554688 55.835938 101.378906 56.171875 99.199219 56.507812 C 96.195312 57.566406 95.441406 59.578125 96.941406 62.535156 C 99.488281 63.023438 102.082031 63.191406 104.726562 63.035156 C 102.289062 63.371094 99.777344 63.707031 97.191406 64.042969 C 99.171875 64.539062 101.183594 64.707031 103.21875 64.542969 C 100.652344 64.765625 98.140625 65.269531 95.683594 66.050781 C 95.238281 65.742188 94.734375 65.578125 94.179688 65.546875 C 94.652344 63.085938 94.820312 60.574219 94.679688 58.015625 C 95.363281 57.238281 95.867188 56.316406 96.1875 55.25 C 95.203125 52.632812 94.867188 50.035156 95.183594 47.464844 C 94.589844 45.488281 94.085938 43.480469 93.675781 41.4375 C 92.992188 41.78125 92.324219 42.113281 91.667969 42.441406 C 90.8125 41.535156 90.394531 40.363281 90.410156 38.925781 C 89.199219 42.863281 87.105469 46.214844 84.132812 48.972656 C 83.796875 48.972656 83.628906 49.140625 83.628906 49.476562 C 82.484375 50.03125 81.394531 50.703125 80.367188 51.484375 C 80.113281 53.65625 80.03125 55.832031 80.113281 58.015625 C 79.617188 55.769531 79.453125 53.425781 79.613281 50.980469 C 77.832031 51.140625 76.160156 50.972656 74.589844 50.480469 C 76.910156 50.734375 79.085938 50.316406 81.117188 49.222656 C 85.875 45.15625 88.886719 40.050781 90.160156 33.902344 C 90.246094 29.367188 87.902344 26.601562 83.128906 25.617188 C 78.105469 25.28125 73.082031 25.28125 68.058594 25.617188 C 67.363281 26.253906 66.863281 27.007812 66.550781 27.875 C 66.289062 28.785156 65.953125 29.621094 65.546875 30.386719 C 65.367188 29.539062 64.867188 29.035156 64.042969 28.882812 C 64.027344 27.835938 64.363281 26.914062 65.046875 26.117188 C 61.582031 25.648438 58.230469 26.066406 55 27.375 C 54.289062 26.464844 53.28125 26.132812 51.984375 26.371094 C 56.269531 23.792969 60.957031 22.789062 66.050781 23.355469 C 66.050781 22.855469 66.050781 22.351562 66.050781 21.847656 C 64.632812 21.976562 63.292969 21.726562 62.03125 21.097656 C 60.660156 18.933594 58.902344 17.175781 56.757812 15.820312 C 56.386719 15.195312 56.46875 14.691406 57.007812 14.316406 C 57.769531 14.320312 58.355469 14.65625 58.765625 15.320312 C 58.871094 14.535156 59.125 13.867188 59.519531 13.308594 C 60.984375 15.695312 62.910156 17.707031 65.296875 19.339844 C 66.875 17.257812 68.800781 15.5 71.074219 14.0625 C 72.9375 13.367188 74.863281 12.949219 76.847656 12.808594 C 83.683594 13.28125 87.03125 16.964844 86.894531 23.859375 C 88.375 24.804688 89.800781 25.8125 91.164062 26.871094 Z M 91.164062 26.871094 "/>
</g>
<mask id="mask3">
  <g filter="url(#alpha)">
<rect x="0" y="0" width="110" height="110" style="fill:rgb(0%,0%,0%);fill-opacity:0.137255;stroke:none;"/>
  </g>
</mask>
<clipPath id="clip4">
  <rect x="0" y="0" width="110" height="110"/>
</clipPath>
<g id="surface14" clip-path="url(#clip4)">
<path style=" stroke:none;fill-rule:evenodd;fill:rgb(15.294118%,18.039216%,23.137255%);fill-opacity:1;" d="M 14.316406 19.839844 C 16.726562 21.652344 19.40625 22.992188 22.351562 23.859375 C 22.121094 24.257812 21.789062 24.425781 21.347656 24.359375 C 19.410156 23.402344 17.402344 22.480469 15.320312 21.597656 C 14.65625 21.1875 14.320312 20.601562 14.316406 19.839844 Z M 14.316406 19.839844 "/>
</g>
<mask id="mask4">
  <g filter="url(#alpha)">
<rect x="0" y="0" width="110" height="110" style="fill:rgb(0%,0%,0%);fill-opacity:0.152941;stroke:none;"/>
  </g>
</mask>
<clipPath id="clip5">
  <rect x="0" y="0" width="110" height="110"/>
</clipPath>
<g id="surface17" clip-path="url(#clip5)">
<path style=" stroke:none;fill-rule:evenodd;fill:rgb(15.294118%,18.431373%,24.313725%);fill-opacity:1;" d="M 22.351562 28.882812 C 20.769531 29.632812 19.175781 30.46875 17.578125 31.394531 C 17.261719 32.601562 17.683594 33.519531 18.835938 34.15625 C 14.964844 35.796875 11.363281 37.890625 8.035156 40.433594 C 7.789062 41.082031 7.707031 41.753906 7.785156 42.441406 C 6.929688 40.65625 7.433594 39.234375 9.292969 38.171875 C 11.90625 36.613281 14.585938 35.191406 17.328125 33.902344 C 16.6875 32.796875 16.6875 31.710938 17.328125 30.640625 C 18.867188 29.617188 20.539062 29.03125 22.351562 28.882812 Z M 22.351562 28.882812 "/>
</g>
<mask id="mask5">
  <g filter="url(#alpha)">
<rect x="0" y="0" width="110" height="110" style="fill:rgb(0%,0%,0%);fill-opacity:0.00784314;stroke:none;"/>
  </g>
</mask>
<clipPath id="clip6">
  <rect x="0" y="0" width="110" height="110"/>
</clipPath>
<g id="surface20" clip-path="url(#clip6)">
<path style=" stroke:none;fill-rule:evenodd;fill:rgb(15.294118%,18.039216%,24.313725%);fill-opacity:1;" d="M 10.296875 48.46875 C 7.296875 49.222656 4.285156 50.144531 1.253906 51.234375 C 0.0546875 52.441406 0.0546875 53.695312 1.253906 55 C 0.613281 54.859375 0.113281 54.523438 -0.25 53.996094 C -0.25 53.15625 -0.25 52.320312 -0.25 51.484375 C 2.941406 49.472656 6.457031 48.464844 10.296875 48.46875 Z M 10.296875 48.46875 "/>
</g>
<mask id="mask6">
  <g filter="url(#alpha)">
<rect x="0" y="0" width="110" height="110" style="fill:rgb(0%,0%,0%);fill-opacity:0.0313725;stroke:none;"/>
  </g>
</mask>
<clipPath id="clip7">
  <rect x="0" y="0" width="110" height="110"/>
</clipPath>
<g id="surface23" clip-path="url(#clip7)">
<path style=" stroke:none;fill-rule:evenodd;fill:rgb(14.509804%,16.862745%,22.352941%);fill-opacity:1;" d="M 5.777344 66.550781 C 9.28125 70.132812 13.296875 73.0625 17.832031 75.34375 C 16.457031 75.550781 15.121094 75.886719 13.8125 76.347656 C 13.183594 77.265625 13.183594 78.1875 13.8125 79.109375 C 13.214844 78.875 12.878906 78.371094 12.808594 77.601562 C 12.890625 77.101562 12.976562 76.597656 13.058594 76.097656 C 13.867188 75.769531 14.621094 75.351562 15.320312 74.839844 C 12.671875 73.363281 10.160156 71.6875 7.785156 69.816406 C 6.914062 68.828125 6.246094 67.738281 5.777344 66.550781 Z M 5.777344 66.550781 "/>
</g>
<mask id="mask7">
  <g filter="url(#alpha)">
<rect x="0" y="0" width="110" height="110" style="fill:rgb(0%,0%,0%);fill-opacity:0.00392157;stroke:none;"/>
  </g>
</mask>
<clipPath id="clip8">
  <rect x="0" y="0" width="110" height="110"/>
</clipPath>
<g id="surface26" clip-path="url(#clip8)">
<path style=" stroke:none;fill-rule:evenodd;fill:rgb(15.294118%,22.352941%,26.666667%);fill-opacity:1;" d="M 106.734375 72.078125 C 106.339844 72.882812 105.671875 73.21875 104.726562 73.082031 C 104.847656 74.285156 104.511719 75.292969 103.722656 76.097656 C 103.808594 74.910156 103.976562 73.738281 104.222656 72.578125 C 105.085938 72.515625 105.921875 72.347656 106.734375 72.078125 Z M 106.734375 72.078125 "/>
</g>
<mask id="mask8">
  <g filter="url(#alpha)">
<rect x="0" y="0" width="110" height="110" style="fill:rgb(0%,0%,0%);fill-opacity:0.00784314;stroke:none;"/>
  </g>
</mask>
<clipPath id="clip9">
  <rect x="0" y="0" width="110" height="110"/>
</clipPath>
<g id="surface29" clip-path="url(#clip9)">
<path style=" stroke:none;fill-rule:evenodd;fill:rgb(15.294118%,16.862745%,22.352941%);fill-opacity:1;" d="M 15.820312 81.117188 C 19.125 83.523438 22.640625 85.53125 26.371094 87.144531 C 22.105469 86.386719 18.589844 84.375 15.820312 81.117188 Z M 15.820312 81.117188 "/>
</g>
<mask id="mask9">
  <g filter="url(#alpha)">
<rect x="0" y="0" width="110" height="110" style="fill:rgb(0%,0%,0%);fill-opacity:0.0588235;stroke:none;"/>
  </g>
</mask>
<clipPath id="clip10">
  <rect x="0" y="0" width="110" height="110"/>
</clipPath>
<g id="surface32" clip-path="url(#clip10)">
<path style=" stroke:none;fill-rule:evenodd;fill:rgb(14.117647%,16.470588%,21.568627%);fill-opacity:1;" d="M 25.867188 88.152344 C 23.472656 89.539062 20.964844 90.796875 18.332031 91.917969 C 17.222656 93.042969 17.054688 94.300781 17.832031 95.683594 C 15.90625 94.417969 15.90625 92.996094 17.832031 91.414062 C 20.339844 89.910156 23.019531 88.820312 25.867188 88.152344 Z M 25.867188 88.152344 "/>
</g>
<mask id="mask10">
  <g filter="url(#alpha)">
<rect x="0" y="0" width="110" height="110" style="fill:rgb(0%,0%,0%);fill-opacity:0.00392157;stroke:none;"/>
  </g>
</mask>
<clipPath id="clip11">
  <rect x="0" y="0" width="110" height="110"/>
</clipPath>
<g id="surface35" clip-path="url(#clip11)">
<path style=" stroke:none;fill-rule:evenodd;fill:rgb(14.509804%,20.784314%,25.098039%);fill-opacity:1;" d="M 89.15625 88.152344 C 87.761719 90.566406 86.503906 93.078125 85.386719 95.683594 C 84.597656 96.902344 83.511719 97.570312 82.125 97.695312 C 82.289062 97.191406 82.625 96.855469 83.128906 96.691406 C 85.3125 94.667969 86.738281 92.15625 87.398438 89.15625 C 87.957031 88.75 88.542969 88.414062 89.15625 88.152344 Z M 89.15625 88.152344 "/>
</g>
<mask id="mask11">
  <g filter="url(#alpha)">
<rect x="0" y="0" width="110" height="110" style="fill:rgb(0%,0%,0%);fill-opacity:0.00784314;stroke:none;"/>
  </g>
</mask>
<clipPath id="clip12">
  <rect x="0" y="0" width="110" height="110"/>
</clipPath>
<g id="surface38" clip-path="url(#clip12)">
<path style=" stroke:none;fill-rule:evenodd;fill:rgb(14.901961%,18.431373%,24.313725%);fill-opacity:1;" d="M 42.441406 100.707031 C 42.578125 99.082031 42.914062 97.488281 43.449219 95.9375 C 43.28125 95.683594 43.113281 95.433594 42.945312 95.183594 C 41.238281 96.253906 39.398438 96.921875 37.421875 97.191406 C 39.382812 96.210938 41.390625 95.207031 43.449219 94.179688 C 43.992188 96.511719 43.65625 98.691406 42.441406 100.707031 Z M 42.441406 100.707031 "/>
</g>
<mask id="mask12">
  <g filter="url(#alpha)">
<rect x="0" y="0" width="110" height="110" style="fill:rgb(0%,0%,0%);fill-opacity:0.0431373;stroke:none;"/>
  </g>
</mask>
<clipPath id="clip13">
  <rect x="0" y="0" width="110" height="110"/>
</clipPath>
<g id="surface41" clip-path="url(#clip13)">
<path style=" stroke:none;fill-rule:evenodd;fill:rgb(13.333333%,18.431373%,22.745098%);fill-opacity:1;" d="M 66.050781 94.179688 C 64.53125 96.222656 63.027344 98.230469 61.53125 100.207031 C 62.179688 98.234375 63.101562 96.394531 64.292969 94.679688 C 64.816406 93.769531 65.402344 93.601562 66.050781 94.179688 Z M 66.050781 94.179688 "/>
</g>
<mask id="mask13">
  <g filter="url(#alpha)">
<rect x="0" y="0" width="110" height="110" style="fill:rgb(0%,0%,0%);fill-opacity:0.0235294;stroke:none;"/>
  </g>
</mask>
<clipPath id="clip14">
  <rect x="0" y="0" width="110" height="110"/>
</clipPath>
<g id="surface44" clip-path="url(#clip14)">
<path style=" stroke:none;fill-rule:evenodd;fill:rgb(15.294118%,17.647059%,22.745098%);fill-opacity:1;" d="M 22.351562 97.695312 C 26.539062 98.304688 30.726562 98.304688 34.910156 97.695312 C 33.039062 98.445312 31.03125 98.78125 28.882812 98.699219 C 26.574219 98.757812 24.398438 98.425781 22.351562 97.695312 Z M 22.351562 97.695312 "/>
</g>
<mask id="mask14">
  <g filter="url(#alpha)">
<rect x="0" y="0" width="110" height="110" style="fill:rgb(0%,0%,0%);fill-opacity:0.972549;stroke:none;"/>
  </g>
</mask>
<clipPath id="clip15">
  <rect x="0" y="0" width="110" height="110"/>
</clipPath>
<g id="surface47" clip-path="url(#clip15)">
<path style=" stroke:none;fill-rule:evenodd;fill:rgb(6.666667%,3.921569%,5.098039%);fill-opacity:1;" d="M 33.902344 -0.25 C 34.742188 -0.25 35.578125 -0.25 36.414062 -0.25 C 38.125 0.320312 39.796875 0.988281 41.4375 1.757812 C 45.085938 3.414062 48.769531 5.085938 52.488281 6.78125 C 54.039062 8.148438 55.714844 9.402344 57.511719 10.546875 C 58.496094 11.277344 59.167969 12.199219 59.519531 13.308594 C 59.125 13.867188 58.871094 14.535156 58.765625 15.320312 C 58.355469 14.65625 57.769531 14.320312 57.007812 14.316406 C 57.0625 13.109375 56.5625 12.1875 55.503906 11.550781 C 49.566406 7.664062 43.203125 4.734375 36.414062 2.761719 C 36.5625 4.398438 37.234375 5.738281 38.425781 6.78125 C 40.65625 10.410156 42.5 14.261719 43.949219 18.332031 C 43.613281 18.5 43.28125 18.667969 42.945312 18.835938 C 40.480469 18.128906 37.96875 17.796875 35.410156 17.832031 C 33.636719 17.054688 31.710938 16.71875 29.632812 16.828125 C 27.246094 16.757812 24.984375 17.09375 22.855469 17.832031 C 20.871094 17.820312 19.03125 18.324219 17.328125 19.339844 C 17.925781 20.222656 18.761719 20.726562 19.839844 20.84375 C 21.71875 21.863281 23.726562 22.703125 25.867188 23.355469 C 26.539062 23.859375 26.539062 24.359375 25.867188 24.863281 C 25 25.128906 24.328125 25.628906 23.859375 26.371094 C 24.089844 26.769531 24.421875 26.9375 24.863281 26.871094 C 25.800781 27.207031 26.804688 27.539062 27.875 27.875 C 27.695312 28.21875 27.527344 28.554688 27.375 28.882812 C 24.832031 29.953125 22.320312 31.125 19.839844 32.398438 C 20.453125 33.640625 21.457031 34.144531 22.855469 33.902344 C 23.691406 33.902344 24.527344 33.902344 25.367188 33.902344 C 25.75 34.289062 26.25 34.539062 26.871094 34.65625 C 20.75 35.078125 15.308594 37.171875 10.546875 40.9375 C 10.238281 41.414062 10.320312 41.832031 10.800781 42.191406 C 13.398438 43.394531 16.078125 44.398438 18.835938 45.207031 C 17.632812 46.574219 16.628906 48.082031 15.820312 49.726562 C 12.167969 50.371094 8.652344 51.289062 5.273438 52.488281 C 2.816406 52.558594 2.652344 53.3125 4.773438 54.75 C 8.316406 56.625 12 58.050781 15.820312 59.019531 C 16.179688 59.472656 16.679688 59.640625 17.328125 59.519531 C 17.515625 61.28125 17.011719 62.785156 15.820312 64.042969 C 13.234375 64.675781 10.558594 65.175781 7.785156 65.546875 C 8.632812 66.730469 9.636719 67.734375 10.800781 68.5625 C 12.277344 69.972656 13.953125 71.144531 15.820312 72.078125 C 17.15625 73.082031 18.664062 73.835938 20.34375 74.339844 C 21.402344 74.972656 21.902344 75.894531 21.847656 77.101562 C 19.765625 77.015625 17.757812 77.351562 15.820312 78.105469 C 15.882812 78.410156 16.050781 78.578125 16.324219 78.605469 C 18.710938 80.726562 21.390625 82.484375 24.359375 83.882812 C 26.21875 85.0625 28.230469 85.816406 30.386719 86.140625 C 31.082031 87.03125 30.914062 87.785156 29.886719 88.402344 C 27.484375 89.617188 25.140625 90.871094 22.855469 92.167969 C 22.6875 92.167969 22.519531 92.167969 22.351562 92.167969 C 21.402344 92.445312 20.5625 92.945312 19.839844 93.675781 C 19.945312 93.96875 20.113281 94.222656 20.34375 94.429688 C 29.027344 96.882812 37.230469 95.792969 44.953125 91.164062 C 45.597656 91.765625 45.929688 92.601562 45.957031 93.675781 C 45.703125 95.871094 45.367188 98.046875 44.953125 100.207031 C 44.953125 100.371094 44.953125 100.539062 44.953125 100.707031 C 44.214844 102.464844 43.546875 104.308594 42.945312 106.234375 C 43.195312 106.398438 43.449219 106.566406 43.699219 106.734375 C 48.625 104.820312 52.894531 101.972656 56.507812 98.195312 C 57.765625 96.894531 58.601562 97.230469 59.019531 99.199219 C 60.101562 97.871094 60.773438 96.363281 61.027344 94.679688 C 61.925781 93.601562 62.59375 92.34375 63.035156 90.914062 C 64.351562 90.5 65.691406 90.25 67.054688 90.160156 C 67.707031 91.121094 68.210938 92.125 68.5625 93.171875 C 69.125 93.992188 69.796875 94.746094 70.570312 95.433594 C 76.660156 98.351562 81.347656 96.929688 84.632812 91.164062 C 84.71875 92.851562 84.050781 94.359375 82.625 95.683594 C 82.808594 96.027344 82.976562 96.363281 83.128906 96.691406 C 82.625 96.855469 82.289062 97.191406 82.125 97.695312 C 78.695312 99.773438 75.011719 100.191406 71.074219 98.949219 C 70.074219 98.660156 69.320312 98.074219 68.8125 97.191406 C 68.644531 97.359375 68.476562 97.527344 68.308594 97.695312 C 67.011719 96.824219 66.261719 95.652344 66.050781 94.179688 C 65.402344 93.601562 64.816406 93.769531 64.292969 94.679688 C 63.101562 96.394531 62.179688 98.234375 61.53125 100.207031 C 60.753906 102.621094 59.164062 103.289062 56.757812 102.214844 C 52.667969 105.730469 48.066406 108.238281 42.945312 109.75 C 42.609375 109.75 42.277344 109.75 41.941406 109.75 C 40.625 106.671875 40.792969 103.660156 42.441406 100.707031 C 43.65625 98.691406 43.992188 96.511719 43.449219 94.179688 C 41.390625 95.207031 39.382812 96.210938 37.421875 97.191406 C 36.707031 97.667969 35.871094 97.835938 34.910156 97.695312 C 30.726562 98.304688 26.539062 98.304688 22.351562 97.695312 C 20.476562 97.671875 18.96875 97.003906 17.832031 95.683594 C 17.054688 94.300781 17.222656 93.042969 18.332031 91.917969 C 20.964844 90.796875 23.472656 89.539062 25.867188 88.152344 C 26.035156 87.816406 26.203125 87.480469 26.371094 87.144531 C 22.640625 85.53125 19.125 83.523438 15.820312 81.117188 C 14.9375 80.703125 14.265625 80.035156 13.8125 79.109375 C 13.183594 78.1875 13.183594 77.265625 13.8125 76.347656 C 15.121094 75.886719 16.457031 75.550781 17.832031 75.34375 C 13.296875 73.0625 9.28125 70.132812 5.777344 66.550781 C 5.011719 65.070312 5.347656 63.8125 6.78125 62.785156 C 9.429688 62.550781 11.941406 62.214844 14.316406 61.78125 C 9.550781 60.152344 5.199219 57.894531 1.253906 55 C 0.0546875 53.695312 0.0546875 52.441406 1.253906 51.234375 C 4.285156 50.144531 7.296875 49.222656 10.296875 48.46875 C 11.761719 47.855469 13.269531 47.269531 14.816406 46.710938 C 12.601562 45.855469 10.425781 44.851562 8.289062 43.699219 C 7.910156 43.363281 7.742188 42.941406 7.785156 42.441406 C 7.707031 41.753906 7.789062 41.082031 8.035156 40.433594 C 11.363281 37.890625 14.964844 35.796875 18.835938 34.15625 C 17.683594 33.519531 17.261719 32.601562 17.578125 31.394531 C 19.175781 30.46875 20.769531 29.632812 22.351562 28.882812 C 21.304688 28.160156 20.632812 27.15625 20.34375 25.867188 C 20.414062 25.097656 20.746094 24.597656 21.347656 24.359375 C 21.789062 24.425781 22.121094 24.257812 22.351562 23.859375 C 19.40625 22.992188 16.726562 21.652344 14.316406 19.839844 C 13.777344 19.464844 13.691406 18.960938 14.0625 18.332031 C 15.933594 16.480469 18.195312 15.390625 20.84375 15.070312 C 23.582031 14.578125 26.347656 14.328125 29.132812 14.316406 C 31.390625 14.53125 33.566406 14.53125 35.660156 14.316406 C 36.921875 15 38.175781 15.167969 39.429688 14.816406 C 37.175781 10.390625 34.996094 5.953125 32.898438 1.507812 C 33.140625 0.851562 33.476562 0.265625 33.902344 -0.25 Z M 33.902344 -0.25 "/>
</g>
</defs>
<g id="surface1">
<use xlink:href="#surface5" mask="url(#mask0)"/>
<use xlink:href="#surface8" mask="url(#mask1)"/>
<use xlink:href="#surface11" mask="url(#mask2)"/>
<path style=" stroke:none;fill-rule:evenodd;fill:rgb(68.627451%,0%,12.54902%);fill-opacity:1;" d="M 57.007812 14.316406 C 56.46875 14.691406 56.386719 15.195312 56.757812 15.820312 C 58.902344 17.175781 60.660156 18.933594 62.03125 21.097656 C 63.292969 21.726562 64.632812 21.976562 66.050781 21.847656 C 66.050781 22.351562 66.050781 22.855469 66.050781 23.355469 C 60.957031 22.789062 56.269531 23.792969 51.984375 26.371094 C 44.632812 30.042969 39.609375 35.734375 36.917969 43.449219 C 37.351562 42.246094 37.351562 41.074219 36.917969 39.929688 C 36.414062 40.601562 35.914062 41.269531 35.410156 41.941406 C 35.105469 41.878906 34.9375 41.710938 34.910156 41.4375 C 37.972656 33.183594 43.496094 27.15625 51.484375 23.355469 C 53.375 22.769531 55.214844 22.433594 57.007812 22.351562 C 56.304688 19.699219 55.382812 17.1875 54.246094 14.816406 C 53.328125 14.515625 52.410156 14.179688 51.484375 13.8125 C 49.558594 11.96875 47.546875 10.210938 45.457031 8.539062 C 43.117188 7.375 40.855469 6.117188 38.675781 4.773438 C 38.429688 5.421875 38.347656 6.089844 38.425781 6.78125 C 37.234375 5.738281 36.5625 4.398438 36.414062 2.761719 C 43.203125 4.734375 49.566406 7.664062 55.503906 11.550781 C 56.5625 12.1875 57.0625 13.109375 57.007812 14.316406 Z M 57.007812 14.316406 "/>
<path style=" stroke:none;fill-rule:evenodd;fill:rgb(80%,0%,14.117647%);fill-opacity:1;" d="M 51.484375 23.355469 C 52.824219 22.519531 54.164062 21.679688 55.503906 20.84375 C 54.484375 19.910156 53.398438 19.074219 52.238281 18.332031 C 51.902344 16.703125 52.152344 16.535156 52.992188 17.832031 C 53.492188 17.664062 53.828125 17.328125 53.996094 16.828125 C 53.503906 16.082031 52.917969 15.414062 52.238281 14.816406 C 52.023438 16.671875 51.605469 16.753906 50.980469 15.070312 C 49.675781 15.269531 48.671875 16.023438 47.96875 17.328125 C 48.230469 17.675781 48.566406 17.925781 48.972656 18.082031 C 47.8125 18.332031 46.640625 18.414062 45.457031 18.332031 C 45.457031 19.339844 45.457031 20.34375 45.457031 21.347656 C 40.773438 20.484375 36.085938 19.5625 31.394531 18.585938 C 28.210938 18.25 25.03125 18.25 21.847656 18.585938 C 23.199219 19.273438 24.539062 19.941406 25.867188 20.59375 C 30.132812 21.277344 34.316406 22.285156 38.425781 23.605469 C 36.429688 24.035156 34.421875 24.371094 32.398438 24.613281 C 31.234375 25.265625 30.230469 26.015625 29.382812 26.871094 C 28.882812 26.871094 28.378906 26.871094 27.875 26.871094 C 27.320312 26.476562 26.648438 26.222656 25.867188 26.117188 C 27.390625 25.191406 29.066406 24.691406 30.890625 24.613281 C 28.753906 23.953125 26.742188 23.117188 24.863281 22.101562 C 25.03125 21.933594 25.199219 21.765625 25.367188 21.597656 C 23.523438 21.324219 21.679688 21.070312 19.839844 20.84375 C 18.761719 20.726562 17.925781 20.222656 17.328125 19.339844 C 19.03125 18.324219 20.871094 17.820312 22.855469 17.832031 C 27.039062 17.832031 31.226562 17.832031 35.410156 17.832031 C 37.96875 17.796875 40.480469 18.128906 42.945312 18.835938 C 43.28125 18.667969 43.613281 18.5 43.949219 18.332031 C 42.5 14.261719 40.65625 10.410156 38.425781 6.78125 C 38.347656 6.089844 38.429688 5.421875 38.675781 4.773438 C 40.855469 6.117188 43.117188 7.375 45.457031 8.539062 C 47.546875 10.210938 49.558594 11.96875 51.484375 13.8125 C 52.410156 14.179688 53.328125 14.515625 54.246094 14.816406 C 55.382812 17.1875 56.304688 19.699219 57.007812 22.351562 C 55.214844 22.433594 53.375 22.769531 51.484375 23.355469 Z M 51.484375 23.355469 "/>
<path style=" stroke:none;fill-rule:evenodd;fill:rgb(46.27451%,0.392157%,10.588235%);fill-opacity:1;" d="M 46.460938 12.808594 C 47.371094 12.804688 48.207031 13.054688 48.972656 13.5625 C 49.515625 14.71875 49.097656 15.472656 47.71875 15.820312 C 46.695312 15.097656 46.277344 14.09375 46.460938 12.808594 Z M 46.460938 12.808594 "/>
<path style=" stroke:none;fill-rule:evenodd;fill:rgb(54.901961%,48.627451%,46.27451%);fill-opacity:1;" d="M 72.078125 17.328125 C 74.066406 17.121094 75.910156 17.539062 77.601562 18.585938 C 78.589844 19.746094 78.757812 21 78.105469 22.351562 C 75.453125 22.914062 72.773438 22.996094 70.070312 22.601562 C 69.035156 20.183594 69.703125 18.425781 72.078125 17.328125 Z M 72.078125 17.328125 "/>
<use xlink:href="#surface14" mask="url(#mask3)"/>
<path style=" stroke:none;fill-rule:evenodd;fill:rgb(61.568627%,1.176471%,13.72549%);fill-opacity:1;" d="M 19.839844 20.84375 C 21.679688 21.070312 23.523438 21.324219 25.367188 21.597656 C 25.199219 21.765625 25.03125 21.933594 24.863281 22.101562 C 26.742188 23.117188 28.753906 23.953125 30.890625 24.613281 C 29.066406 24.691406 27.390625 25.191406 25.867188 26.117188 C 26.648438 26.222656 27.320312 26.476562 27.875 26.871094 C 26.871094 26.871094 25.867188 26.871094 24.863281 26.871094 C 24.421875 26.9375 24.089844 26.769531 23.859375 26.371094 C 24.328125 25.628906 25 25.128906 25.867188 24.863281 C 26.539062 24.359375 26.539062 23.859375 25.867188 23.355469 C 23.726562 22.703125 21.71875 21.863281 19.839844 20.84375 Z M 19.839844 20.84375 "/>
<path style=" stroke:none;fill-rule:evenodd;fill:rgb(2.745098%,1.568627%,1.568627%);fill-opacity:1;" d="M 51.984375 26.371094 C 53.28125 26.132812 54.289062 26.464844 55 27.375 C 52.917969 28.164062 51.074219 29.335938 49.476562 30.890625 C 54.082031 35.3125 54.75 40.335938 51.484375 45.957031 C 51.652344 46.125 51.820312 46.292969 51.984375 46.460938 C 55.1875 43.902344 56.613281 40.554688 56.253906 36.414062 C 56.757812 35.410156 57.261719 34.40625 57.761719 33.402344 C 59.792969 31.6875 61.886719 30.179688 64.042969 28.882812 C 64.867188 29.035156 65.367188 29.539062 65.546875 30.386719 C 64.859375 37.949219 67.203125 44.394531 72.578125 49.726562 C 73.207031 50.125 73.875 50.375 74.589844 50.480469 C 76.160156 50.972656 77.832031 51.140625 79.613281 50.980469 C 79.453125 53.425781 79.617188 55.769531 80.113281 58.015625 C 80.027344 58.675781 80.195312 59.265625 80.617188 59.773438 C 84.632812 61.78125 88.652344 63.789062 92.671875 65.800781 C 93.296875 66.171875 93.800781 66.085938 94.179688 65.546875 C 94.734375 65.578125 95.238281 65.742188 95.683594 66.050781 C 95.28125 67.109375 94.949219 68.195312 94.679688 69.316406 C 94.722656 69.871094 94.890625 70.375 95.183594 70.820312 C 98.574219 71.261719 101.921875 71.09375 105.226562 70.320312 C 106.5625 68.648438 107.0625 66.722656 106.734375 64.542969 C 105.5625 64.542969 104.390625 64.542969 103.21875 64.542969 C 101.183594 64.707031 99.171875 64.539062 97.191406 64.042969 C 99.777344 63.707031 102.289062 63.371094 104.726562 63.035156 C 105.394531 63.035156 106.066406 63.035156 106.734375 63.035156 C 107.222656 63.441406 107.640625 63.945312 107.992188 64.542969 C 108.324219 66.386719 108.324219 68.226562 107.992188 70.070312 C 107.132812 70.472656 106.714844 71.144531 106.734375 72.078125 C 105.921875 72.347656 105.085938 72.515625 104.222656 72.578125 C 103.976562 73.738281 103.808594 74.910156 103.722656 76.097656 C 103.378906 77.863281 102.375 79.121094 100.707031 79.863281 C 98.589844 80.46875 96.414062 80.800781 94.179688 80.867188 C 93.804688 84.21875 92.128906 86.648438 89.15625 88.152344 C 88.542969 88.414062 87.957031 88.75 87.398438 89.15625 C 86.738281 92.15625 85.3125 94.667969 83.128906 96.691406 C 82.976562 96.363281 82.808594 96.027344 82.625 95.683594 C 84.050781 94.359375 84.71875 92.851562 84.632812 91.164062 C 84.632812 90.660156 84.632812 90.160156 84.632812 89.65625 C 83.460938 89.65625 82.289062 89.65625 81.117188 89.65625 C 80.839844 91.441406 79.835938 92.613281 78.105469 93.171875 C 78.601562 92.183594 79.101562 91.179688 79.613281 90.160156 C 78.601562 89.320312 77.429688 88.984375 76.097656 89.15625 C 73.175781 88.65625 70.164062 88.492188 67.054688 88.652344 C 57.890625 88.835938 50.023438 85.820312 43.449219 79.613281 C 34.992188 68.734375 32.816406 56.679688 36.917969 43.449219 C 39.609375 35.734375 44.632812 30.042969 51.984375 26.371094 Z M 51.984375 26.371094 "/>
<path style=" stroke:none;fill-rule:evenodd;fill:rgb(38.039216%,1.960784%,8.627451%);fill-opacity:1;" d="M 24.863281 26.871094 C 25.867188 26.871094 26.871094 26.871094 27.875 26.871094 C 28.378906 26.871094 28.882812 26.871094 29.382812 26.871094 C 30.1875 26.738281 30.855469 26.90625 31.394531 27.375 C 30.097656 27.871094 28.757812 28.371094 27.375 28.882812 C 27.527344 28.554688 27.695312 28.21875 27.875 27.875 C 26.804688 27.539062 25.800781 27.207031 24.863281 26.871094 Z M 24.863281 26.871094 "/>
<path style=" stroke:none;fill-rule:evenodd;fill:rgb(84.313725%,74.509804%,63.529412%);fill-opacity:1;" d="M 90.160156 33.902344 C 89.984375 32.589844 89.230469 31.753906 87.898438 31.394531 C 86.648438 33.757812 85.394531 35.769531 84.132812 37.421875 C 83.421875 31.445312 80.074219 29.015625 74.085938 30.136719 C 70.214844 32.445312 69.125 35.710938 70.820312 39.929688 C 71.9375 42.519531 73.527344 44.695312 75.59375 46.460938 C 74.125 47.027344 73.035156 46.523438 72.328125 44.953125 C 67.511719 38.601562 68.097656 32.824219 74.085938 27.625 C 71.828125 27.199219 69.652344 27.449219 67.558594 28.378906 C 67.214844 28.195312 66.878906 28.03125 66.550781 27.875 C 66.863281 27.007812 67.363281 26.253906 68.058594 25.617188 C 73.082031 25.28125 78.105469 25.28125 83.128906 25.617188 C 87.902344 26.601562 90.246094 29.367188 90.160156 33.902344 Z M 90.160156 33.902344 "/>
<path style=" stroke:none;fill-rule:evenodd;fill:rgb(85.490196%,74.117647%,65.098039%);fill-opacity:1;" d="M 64.042969 28.882812 C 61.886719 30.179688 59.792969 31.6875 57.761719 33.402344 C 57.261719 34.40625 56.757812 35.410156 56.253906 36.414062 C 56.613281 40.554688 55.1875 43.902344 51.984375 46.460938 C 51.820312 46.292969 51.652344 46.125 51.484375 45.957031 C 54.75 40.335938 54.082031 35.3125 49.476562 30.890625 C 51.074219 29.335938 52.917969 28.164062 55 27.375 C 58.230469 26.066406 61.582031 25.648438 65.046875 26.117188 C 64.363281 26.914062 64.027344 27.835938 64.042969 28.882812 Z M 64.042969 28.882812 "/>
<path style=" stroke:none;fill-rule:evenodd;fill:rgb(74.117647%,1.568627%,13.333333%);fill-opacity:1;" d="M 31.394531 27.375 C 33.742188 27.292969 36.085938 27.375 38.425781 27.625 C 35.351562 27.488281 32.503906 28.160156 29.886719 29.632812 C 30.554688 29.800781 31.226562 29.96875 31.894531 30.136719 C 31.726562 30.304688 31.558594 30.472656 31.394531 30.640625 C 28.558594 31.121094 25.714844 31.539062 22.855469 31.894531 C 22.199219 32.582031 22.199219 33.25 22.855469 33.902344 C 21.457031 34.144531 20.453125 33.640625 19.839844 32.398438 C 22.320312 31.125 24.832031 29.953125 27.375 28.882812 C 28.757812 28.371094 30.097656 27.871094 31.394531 27.375 Z M 31.394531 27.375 "/>
<path style=" stroke:none;fill-rule:evenodd;fill:rgb(4.705882%,2.352941%,1.960784%);fill-opacity:1;" d="M 84.132812 37.421875 C 83.304688 42.429688 80.460938 45.445312 75.59375 46.460938 C 73.527344 44.695312 71.9375 42.519531 70.820312 39.929688 C 69.125 35.710938 70.214844 32.445312 74.085938 30.136719 C 80.074219 29.015625 83.421875 31.445312 84.132812 37.421875 Z M 84.132812 37.421875 "/>
<path style=" stroke:none;fill-rule:evenodd;fill:rgb(96.862745%,92.156863%,85.882353%);fill-opacity:1;" d="M 75.59375 46.460938 C 80.460938 45.445312 83.304688 42.429688 84.132812 37.421875 C 85.394531 35.769531 86.648438 33.757812 87.898438 31.394531 C 89.230469 31.753906 89.984375 32.589844 90.160156 33.902344 C 88.886719 40.050781 85.875 45.15625 81.117188 49.222656 C 79.085938 50.316406 76.910156 50.734375 74.589844 50.480469 C 73.875 50.375 73.207031 50.125 72.578125 49.726562 C 67.203125 44.394531 64.859375 37.949219 65.546875 30.386719 C 65.953125 29.621094 66.289062 28.785156 66.550781 27.875 C 66.878906 28.03125 67.214844 28.195312 67.558594 28.378906 C 69.652344 27.449219 71.828125 27.199219 74.085938 27.625 C 68.097656 32.824219 67.511719 38.601562 72.328125 44.953125 C 73.035156 46.523438 74.125 47.027344 75.59375 46.460938 Z M 75.59375 46.460938 "/>
<path style=" stroke:none;fill-rule:evenodd;fill:rgb(97.254902%,7.843137%,26.27451%);fill-opacity:1;" d="M 76.097656 34.40625 C 79.695312 33.910156 81.453125 35.417969 81.371094 38.925781 C 79.40625 42 77.226562 42.167969 74.839844 39.429688 C 74.269531 37.460938 74.6875 35.785156 76.097656 34.40625 Z M 76.097656 34.40625 "/>
<path style=" stroke:none;fill-rule:evenodd;fill:rgb(75.686275%,65.882353%,57.647059%);fill-opacity:1;" d="M 100.707031 34.40625 C 99.414062 34.773438 98.074219 35.023438 96.691406 35.160156 C 97.191406 35.328125 97.695312 35.496094 98.195312 35.660156 C 97.359375 35.828125 96.523438 35.996094 95.683594 36.164062 C 95.015625 36.835938 95.015625 37.503906 95.683594 38.171875 C 95.226562 38.3125 94.890625 38.566406 94.679688 38.925781 C 92.902344 35.785156 93.824219 33.941406 97.441406 33.402344 C 98.691406 33.398438 99.777344 33.734375 100.707031 34.40625 Z M 100.707031 34.40625 "/>
<path style=" stroke:none;fill-rule:evenodd;fill:rgb(83.137255%,74.901961%,66.666667%);fill-opacity:1;" d="M 100.707031 34.40625 C 102.820312 35.328125 103.492188 36.835938 102.71875 38.925781 C 99.972656 39.582031 97.292969 39.582031 94.679688 38.925781 C 94.890625 38.566406 95.226562 38.3125 95.683594 38.171875 C 95.015625 37.503906 95.015625 36.835938 95.683594 36.164062 C 96.523438 35.996094 97.359375 35.828125 98.195312 35.660156 C 97.695312 35.496094 97.191406 35.328125 96.691406 35.160156 C 98.074219 35.023438 99.414062 34.773438 100.707031 34.40625 Z M 100.707031 34.40625 "/>
<use xlink:href="#surface17" mask="url(#mask4)"/>
<path style=" stroke:none;fill-rule:evenodd;fill:rgb(97.647059%,92.156863%,84.313725%);fill-opacity:1;" d="M 45.457031 34.40625 C 46.839844 35.1875 47.257812 36.359375 46.710938 37.921875 C 45.625 41.53125 43.53125 44.460938 40.433594 46.710938 C 40.714844 46.90625 40.878906 47.15625 40.9375 47.464844 C 40.097656 47.464844 39.261719 47.464844 38.425781 47.464844 C 39.265625 42.277344 41.613281 37.925781 45.457031 34.40625 Z M 45.457031 34.40625 "/>
<path style=" stroke:none;fill-rule:evenodd;fill:rgb(92.54902%,1.960784%,16.470588%);fill-opacity:1;" d="M 28.882812 34.910156 C 29.339844 35.53125 29.421875 36.199219 29.132812 36.917969 C 27.597656 39.347656 25.839844 41.523438 23.859375 43.449219 C 23.925781 43.007812 23.757812 42.671875 23.355469 42.441406 C 21.65625 41.882812 20.148438 41.046875 18.835938 39.929688 C 22.292969 38.339844 25.640625 36.667969 28.882812 34.910156 Z M 28.882812 34.910156 "/>
<path style=" stroke:none;fill-rule:evenodd;fill:rgb(88.627451%,80%,69.411765%);fill-opacity:1;" d="M 40.9375 47.464844 C 40.878906 47.15625 40.714844 46.90625 40.433594 46.710938 C 43.53125 44.460938 45.625 41.53125 46.710938 37.921875 C 47.257812 36.359375 46.839844 35.1875 45.457031 34.40625 C 46.632812 33.082031 47.71875 33.25 48.722656 34.910156 C 49.964844 41.453125 47.371094 45.640625 40.9375 47.464844 Z M 40.9375 47.464844 "/>
<path style=" stroke:none;fill-rule:evenodd;fill:rgb(69.019608%,0.392157%,12.156863%);fill-opacity:1;" d="M 25.367188 33.902344 C 26.816406 33.648438 27.988281 33.984375 28.882812 34.910156 C 25.640625 36.667969 22.292969 38.339844 18.835938 39.929688 C 20.148438 41.046875 21.65625 41.882812 23.355469 42.441406 C 23.757812 42.671875 23.925781 43.007812 23.859375 43.449219 C 23.859375 43.613281 23.859375 43.78125 23.859375 43.949219 C 22.796875 44.59375 22.292969 45.597656 22.351562 46.964844 C 21.847656 46.964844 21.347656 46.964844 20.84375 46.964844 C 20.972656 48.113281 20.804688 49.203125 20.34375 50.226562 C 15.449219 51.769531 10.425781 52.519531 5.273438 52.488281 C 8.652344 51.289062 12.167969 50.371094 15.820312 49.726562 C 16.628906 48.082031 17.632812 46.574219 18.835938 45.207031 C 16.078125 44.398438 13.398438 43.394531 10.800781 42.191406 C 10.320312 41.832031 10.238281 41.414062 10.546875 40.9375 C 15.308594 37.171875 20.75 35.078125 26.871094 34.65625 C 26.25 34.539062 25.75 34.289062 25.367188 33.902344 Z M 25.367188 33.902344 "/>
<path style=" stroke:none;fill-rule:evenodd;fill:rgb(99.607843%,20.784314%,14.901961%);fill-opacity:1;" d="M 29.382812 44.453125 C 27.644531 43.960938 25.804688 43.792969 23.859375 43.949219 C 23.859375 43.78125 23.859375 43.613281 23.859375 43.449219 C 25.839844 41.523438 27.597656 39.347656 29.132812 36.917969 C 29.421875 36.199219 29.339844 35.53125 28.882812 34.910156 C 30.484375 33.414062 32.160156 33.246094 33.902344 34.40625 C 32.195312 37.710938 30.6875 41.058594 29.382812 44.453125 Z M 29.382812 44.453125 "/>
<path style=" stroke:none;fill-rule:evenodd;fill:rgb(84.313725%,76.470588%,67.843137%);fill-opacity:1;" d="M 97.191406 40.9375 C 99.570312 40.796875 101.914062 40.964844 104.222656 41.4375 C 105.535156 42.878906 105.535156 44.304688 104.222656 45.707031 C 101.878906 46.042969 99.535156 46.042969 97.191406 45.707031 C 96.589844 44.136719 96.589844 42.542969 97.191406 40.9375 Z M 97.191406 40.9375 "/>
<path style=" stroke:none;fill-rule:evenodd;fill:rgb(72.941176%,59.607843%,48.235294%);fill-opacity:1;" d="M 95.183594 47.464844 C 94.683594 47.507812 94.265625 47.339844 93.925781 46.964844 C 90.824219 48.027344 87.726562 49.03125 84.632812 49.976562 C 84.136719 50.0625 83.800781 49.894531 83.628906 49.476562 C 83.628906 49.140625 83.796875 48.972656 84.132812 48.972656 C 86.480469 48.273438 88.824219 47.519531 91.164062 46.710938 C 92.238281 45.421875 92.238281 44.25 91.164062 43.195312 C 91.445312 43.003906 91.609375 42.753906 91.667969 42.441406 C 92.324219 42.113281 92.992188 41.78125 93.675781 41.4375 C 94.085938 43.480469 94.589844 45.488281 95.183594 47.464844 Z M 95.183594 47.464844 "/>
<path style=" stroke:none;fill-rule:evenodd;fill:rgb(64.313725%,50.588235%,39.607843%);fill-opacity:1;" d="M 91.667969 42.441406 C 91.609375 42.753906 91.445312 43.003906 91.164062 43.195312 C 92.238281 44.25 92.238281 45.421875 91.164062 46.710938 C 88.824219 47.519531 86.480469 48.273438 84.132812 48.972656 C 87.105469 46.214844 89.199219 42.863281 90.410156 38.925781 C 90.394531 40.363281 90.8125 41.535156 91.667969 42.441406 Z M 91.667969 42.441406 "/>
<use xlink:href="#surface20" mask="url(#mask5)"/>
<path style=" stroke:none;fill-rule:evenodd;fill:rgb(82.352941%,72.941176%,62.745098%);fill-opacity:1;" d="M 95.183594 47.464844 C 94.867188 50.035156 95.203125 52.632812 96.1875 55.25 C 95.867188 56.316406 95.363281 57.238281 94.679688 58.015625 C 93.351562 57.710938 92.179688 57.042969 91.164062 56.003906 C 90.859375 56.066406 90.691406 56.234375 90.660156 56.507812 C 86.777344 56.097656 86.777344 55.34375 90.660156 54.246094 C 91.171875 53.71875 91.257812 53.132812 90.914062 52.488281 C 89.546875 52.015625 88.125 51.847656 86.644531 51.984375 C 87.375 51.582031 88.210938 51.332031 89.15625 51.234375 C 87.160156 51.203125 85.652344 50.785156 84.632812 49.976562 C 87.726562 49.03125 90.824219 48.027344 93.925781 46.964844 C 94.265625 47.339844 94.683594 47.507812 95.183594 47.464844 Z M 95.183594 47.464844 "/>
<path style=" stroke:none;fill-rule:evenodd;fill:rgb(92.156863%,3.921569%,18.431373%);fill-opacity:1;" d="M 23.859375 43.949219 C 22.1875 47.597656 21.347656 51.445312 21.347656 55.503906 C 19.246094 55.480469 17.152344 55.3125 15.070312 55 C 13.71875 55.160156 12.460938 55.578125 11.300781 56.253906 C 13.292969 56.671875 14.96875 57.59375 16.324219 59.019531 C 16.15625 59.019531 15.988281 59.019531 15.820312 59.019531 C 12 58.050781 8.316406 56.625 4.773438 54.75 C 2.652344 53.3125 2.816406 52.558594 5.273438 52.488281 C 10.425781 52.519531 15.449219 51.769531 20.34375 50.226562 C 20.804688 49.203125 20.972656 48.113281 20.84375 46.964844 C 21.347656 46.964844 21.847656 46.964844 22.351562 46.964844 C 22.292969 45.597656 22.796875 44.59375 23.859375 43.949219 Z M 23.859375 43.949219 "/>
<path style=" stroke:none;fill-rule:evenodd;fill:rgb(4.705882%,3.137255%,2.745098%);fill-opacity:1;" d="M 86.644531 51.984375 C 88.125 51.847656 89.546875 52.015625 90.914062 52.488281 C 91.257812 53.132812 91.171875 53.71875 90.660156 54.246094 C 86.777344 55.34375 86.777344 56.097656 90.660156 56.507812 C 91.417969 58.609375 90.582031 59.613281 88.152344 59.519531 C 85.753906 59.417969 83.660156 58.582031 81.871094 57.007812 C 81.75 53.863281 83.34375 52.1875 86.644531 51.984375 Z M 86.644531 51.984375 "/>
<path style=" stroke:none;fill-rule:evenodd;fill:rgb(100%,31.764706%,17.254902%);fill-opacity:1;" d="M 23.859375 43.949219 C 25.804688 43.792969 27.644531 43.960938 29.382812 44.453125 C 28.992188 47.480469 28.488281 50.496094 27.875 53.492188 C 28.109375 54.996094 28.277344 56.503906 28.378906 58.015625 C 28.539062 59.558594 28.371094 61.0625 27.875 62.535156 C 26.433594 60.253906 24.425781 58.746094 21.847656 58.015625 C 21.371094 57.238281 21.203125 56.398438 21.347656 55.503906 C 21.347656 51.445312 22.1875 47.597656 23.859375 43.949219 Z M 23.859375 43.949219 "/>
<path style=" stroke:none;fill-rule:evenodd;fill:rgb(92.54902%,87.45098%,81.960784%);fill-opacity:1;" d="M 97.191406 49.476562 C 99.855469 49.808594 102.535156 50.144531 105.226562 50.480469 C 105.757812 50.949219 106.09375 51.535156 106.234375 52.238281 C 105.824219 53.0625 105.320312 53.816406 104.726562 54.496094 C 102.59375 55.050781 100.417969 55.132812 98.195312 54.75 C 96.695312 53.203125 96.363281 51.445312 97.191406 49.476562 Z M 97.191406 49.476562 "/>
<path style=" stroke:none;fill-rule:evenodd;fill:rgb(78.039216%,72.156863%,65.098039%);fill-opacity:1;" d="M 106.734375 62.535156 C 106.894531 60.421875 106.726562 58.414062 106.234375 56.507812 C 106.320312 56.007812 106.152344 55.675781 105.730469 55.503906 C 105.359375 55.566406 105.023438 55.484375 104.726562 55.25 C 105.347656 54.90625 105.347656 54.652344 104.726562 54.496094 C 105.320312 53.816406 105.824219 53.0625 106.234375 52.238281 C 106.09375 51.535156 105.757812 50.949219 105.226562 50.480469 C 102.535156 50.144531 99.855469 49.808594 97.191406 49.476562 C 97.417969 48.992188 97.753906 48.574219 98.195312 48.21875 C 101.039062 47.96875 103.882812 47.882812 106.734375 47.96875 C 106.582031 50.09375 106.914062 52.105469 107.738281 53.996094 C 107.472656 56.925781 107.140625 59.769531 106.734375 62.535156 Z M 106.734375 62.535156 "/>
<path style=" stroke:none;fill-rule:evenodd;fill:rgb(30.980392%,31.372549%,31.764706%);fill-opacity:1;" d="M 45.457031 55 C 46.125 55 46.796875 55 47.464844 55 C 47.625 56.84375 46.789062 57.679688 44.953125 57.511719 C 44.886719 56.609375 45.054688 55.773438 45.457031 55 Z M 45.457031 55 "/>
<path style=" stroke:none;fill-rule:evenodd;fill:rgb(48.627451%,47.843137%,44.705882%);fill-opacity:1;" d="M 62.535156 55 C 63.503906 54.863281 64.339844 55.117188 65.046875 55.753906 C 64.042969 56.089844 63.035156 56.089844 62.03125 55.753906 C 62.3125 55.5625 62.476562 55.308594 62.535156 55 Z M 62.535156 55 "/>
<path style=" stroke:none;fill-rule:evenodd;fill:rgb(38.431373%,28.235294%,19.607843%);fill-opacity:1;" d="M 105.730469 55.503906 C 106.152344 55.675781 106.320312 56.007812 106.234375 56.507812 C 103.890625 56.507812 101.546875 56.507812 99.199219 56.507812 C 101.378906 56.171875 103.554688 55.835938 105.730469 55.503906 Z M 105.730469 55.503906 "/>
<path style=" stroke:none;fill-rule:evenodd;fill:rgb(88.627451%,78.823529%,67.45098%);fill-opacity:1;" d="M 67.558594 61.53125 C 66.453125 63.054688 65.113281 64.308594 63.539062 65.296875 C 61.054688 66.003906 59.046875 65.417969 57.511719 63.539062 C 58.316406 62.945312 58.480469 62.277344 58.015625 61.53125 C 56.886719 61.039062 55.714844 60.871094 54.496094 61.027344 C 57.691406 57.757812 61.375 57.171875 65.546875 59.269531 C 66.320312 59.957031 66.992188 60.710938 67.558594 61.53125 Z M 67.558594 61.53125 "/>
<path style=" stroke:none;fill-rule:evenodd;fill:rgb(93.333333%,88.627451%,83.529412%);fill-opacity:1;" d="M 83.628906 49.476562 C 83.800781 49.894531 84.136719 50.0625 84.632812 49.976562 C 85.652344 50.785156 87.160156 51.203125 89.15625 51.234375 C 88.210938 51.332031 87.375 51.582031 86.644531 51.984375 C 83.34375 52.1875 81.75 53.863281 81.871094 57.007812 C 83.660156 58.582031 85.753906 59.417969 88.152344 59.519531 C 90.582031 59.613281 91.417969 58.609375 90.660156 56.507812 C 90.691406 56.234375 90.859375 56.066406 91.164062 56.003906 C 92.179688 57.042969 93.351562 57.710938 94.679688 58.015625 C 94.820312 60.574219 94.652344 63.085938 94.179688 65.546875 C 93.800781 66.085938 93.296875 66.171875 92.671875 65.800781 C 88.652344 63.789062 84.632812 61.78125 80.617188 59.773438 C 80.195312 59.265625 80.027344 58.675781 80.113281 58.015625 C 80.03125 55.832031 80.113281 53.65625 80.367188 51.484375 C 81.394531 50.703125 82.484375 50.03125 83.628906 49.476562 Z M 83.628906 49.476562 "/>
<path style=" stroke:none;fill-rule:evenodd;fill:rgb(99.607843%,18.823529%,19.215686%);fill-opacity:1;" d="M 21.347656 55.503906 C 21.203125 56.398438 21.371094 57.238281 21.847656 58.015625 C 24.425781 58.746094 26.433594 60.253906 27.875 62.535156 C 28.371094 61.0625 28.539062 59.558594 28.378906 58.015625 C 28.695312 61.152344 28.863281 64.332031 28.882812 67.558594 C 26.871094 67.558594 24.863281 67.558594 22.855469 67.558594 C 22.9375 65.539062 22.851562 63.53125 22.601562 61.53125 C 22.410156 61.25 22.160156 61.082031 21.847656 61.027344 C 21.890625 60.527344 21.726562 60.109375 21.347656 59.773438 C 20.222656 59.28125 19.050781 59.03125 17.832031 59.019531 C 17.328125 59.019531 16.828125 59.019531 16.324219 59.019531 C 14.96875 57.59375 13.292969 56.671875 11.300781 56.253906 C 12.460938 55.578125 13.71875 55.160156 15.070312 55 C 17.152344 55.3125 19.246094 55.480469 21.347656 55.503906 Z M 21.347656 55.503906 "/>
<path style=" stroke:none;fill-rule:evenodd;fill:rgb(53.72549%,53.72549%,52.54902%);fill-opacity:1;" d="M 40.9375 58.515625 C 43.285156 58.601562 44.625 59.855469 44.953125 62.28125 C 44.21875 64.441406 42.710938 65.109375 40.433594 64.292969 C 39.074219 63.355469 38.65625 62.101562 39.179688 60.523438 C 39.867188 59.917969 40.453125 59.25 40.9375 58.515625 Z M 40.9375 58.515625 "/>
<path style=" stroke:none;fill-rule:evenodd;fill:rgb(96.470588%,92.156863%,85.490196%);fill-opacity:1;" d="M 99.199219 56.507812 C 101.546875 56.507812 103.890625 56.507812 106.234375 56.507812 C 106.726562 58.414062 106.894531 60.421875 106.734375 62.535156 C 106.734375 62.703125 106.734375 62.871094 106.734375 63.035156 C 106.066406 63.035156 105.394531 63.035156 104.726562 63.035156 C 102.082031 63.191406 99.488281 63.023438 96.941406 62.535156 C 95.441406 59.578125 96.195312 57.566406 99.199219 56.507812 Z M 99.199219 56.507812 "/>
<path style=" stroke:none;fill-rule:evenodd;fill:rgb(47.058824%,0.392157%,10.196078%);fill-opacity:1;" d="M 15.820312 59.019531 C 15.988281 59.019531 16.15625 59.019531 16.324219 59.019531 C 16.828125 59.019531 17.328125 59.019531 17.832031 59.019531 C 18.1875 59.472656 18.6875 59.640625 19.339844 59.519531 C 19.363281 60.933594 19.695312 62.273438 20.34375 63.539062 C 18.871094 64.03125 17.363281 64.199219 15.820312 64.042969 C 17.011719 62.785156 17.515625 61.28125 17.328125 59.519531 C 16.679688 59.640625 16.179688 59.472656 15.820312 59.019531 Z M 15.820312 59.019531 "/>
<path style=" stroke:none;fill-rule:evenodd;fill:rgb(85.098039%,75.294118%,67.058824%);fill-opacity:1;" d="M 82.625 64.042969 C 82.546875 64.730469 82.628906 65.402344 82.875 66.050781 C 83.78125 66.699219 84.367188 67.535156 84.632812 68.5625 C 83.683594 67.957031 82.761719 67.289062 81.871094 66.550781 C 82.050781 67.285156 81.96875 67.957031 81.621094 68.5625 C 78.488281 65.050781 75.558594 65.21875 72.832031 69.0625 C 69.878906 72.695312 69.460938 76.542969 71.574219 80.617188 C 70.625 81.6875 69.871094 81.351562 69.316406 79.613281 C 69.148438 76.429688 68.980469 73.25 68.8125 70.070312 C 68.671875 69.609375 68.421875 69.273438 68.058594 69.0625 C 69.445312 66.425781 71.285156 64.164062 73.585938 62.28125 C 76.984375 60.984375 80 61.574219 82.625 64.042969 Z M 82.625 64.042969 "/>
<path style=" stroke:none;fill-rule:evenodd;fill:rgb(71.372549%,64.705882%,55.686275%);fill-opacity:1;" d="M 82.625 64.042969 C 87.375 67.824219 88.964844 72.679688 87.398438 78.605469 C 86.804688 80.125 86.21875 81.632812 85.640625 83.128906 C 85.171875 83.847656 84.585938 84.519531 83.882812 85.136719 C 83.648438 84.839844 83.5625 84.503906 83.628906 84.132812 C 84.378906 82.636719 85.132812 81.128906 85.890625 79.613281 C 87.183594 75.664062 86.761719 71.980469 84.632812 68.5625 C 84.367188 67.535156 83.78125 66.699219 82.875 66.050781 C 82.628906 65.402344 82.546875 64.730469 82.625 64.042969 Z M 82.625 64.042969 "/>
<path style=" stroke:none;fill-rule:evenodd;fill:rgb(80%,5.098039%,16.078431%);fill-opacity:1;" d="M 17.832031 59.019531 C 19.050781 59.03125 20.222656 59.28125 21.347656 59.773438 C 21.726562 60.109375 21.890625 60.527344 21.847656 61.027344 C 21.019531 62.011719 20.6875 63.183594 20.84375 64.542969 C 20.175781 64.542969 19.503906 64.542969 18.835938 64.542969 C 18.835938 65.046875 18.835938 65.546875 18.835938 66.050781 C 19.425781 65.941406 19.929688 66.109375 20.34375 66.550781 C 17.007812 66.96875 13.65625 67.222656 10.296875 67.304688 C 10.675781 67.644531 10.84375 68.0625 10.800781 68.5625 C 9.636719 67.734375 8.632812 66.730469 7.785156 65.546875 C 10.558594 65.175781 13.234375 64.675781 15.820312 64.042969 C 17.363281 64.199219 18.871094 64.03125 20.34375 63.539062 C 19.695312 62.273438 19.363281 60.933594 19.339844 59.519531 C 18.6875 59.640625 18.1875 59.472656 17.832031 59.019531 Z M 17.832031 59.019531 "/>
<path style=" stroke:none;fill-rule:evenodd;fill:rgb(5.490196%,2.352941%,1.960784%);fill-opacity:1;" d="M 81.621094 68.5625 C 85.691406 74.261719 84.683594 78.863281 78.605469 82.375 C 76.933594 82.710938 75.257812 82.710938 73.585938 82.375 C 72.667969 82.042969 72 81.457031 71.574219 80.617188 C 69.460938 76.542969 69.878906 72.695312 72.832031 69.0625 C 75.558594 65.21875 78.488281 65.050781 81.621094 68.5625 Z M 81.621094 68.5625 "/>
<path style=" stroke:none;fill-rule:evenodd;fill:rgb(96.470588%,90.980392%,82.745098%);fill-opacity:1;" d="M 103.21875 64.542969 C 104.390625 64.542969 105.5625 64.542969 106.734375 64.542969 C 107.0625 66.722656 106.5625 68.648438 105.226562 70.320312 C 101.921875 71.09375 98.574219 71.261719 95.183594 70.820312 C 94.890625 70.375 94.722656 69.871094 94.679688 69.316406 C 94.949219 68.195312 95.28125 67.109375 95.683594 66.050781 C 98.140625 65.269531 100.652344 64.765625 103.21875 64.542969 Z M 103.21875 64.542969 "/>
<path style=" stroke:none;fill-rule:evenodd;fill:rgb(82.745098%,70.196078%,60.392157%);fill-opacity:1;" d="M 67.558594 61.53125 C 68.1875 63.34375 67.851562 65.015625 66.550781 66.550781 C 66 66 65.328125 65.917969 64.542969 66.300781 C 61.441406 69.996094 60.101562 74.265625 60.523438 79.109375 C 61.027344 79.109375 61.53125 79.109375 62.03125 79.109375 C 62.195312 80.707031 61.523438 81.292969 60.023438 80.867188 C 59.347656 78.761719 58.59375 76.667969 57.761719 74.589844 C 54.519531 71.890625 50.753906 70.800781 46.460938 71.324219 C 45.585938 71.085938 44.746094 70.753906 43.949219 70.320312 C 48.910156 70.964844 53.265625 69.710938 57.007812 66.550781 C 56.390625 66.160156 55.722656 65.910156 55 65.800781 C 55.773438 64.941406 56.609375 64.1875 57.511719 63.539062 C 59.046875 65.417969 61.054688 66.003906 63.539062 65.296875 C 65.113281 64.308594 66.453125 63.054688 67.558594 61.53125 Z M 67.558594 61.53125 "/>
<path style=" stroke:none;fill-rule:evenodd;fill:rgb(98.823529%,24.313725%,19.215686%);fill-opacity:1;" d="M 10.800781 68.5625 C 11.683594 68.75 12.519531 69.085938 13.308594 69.566406 C 13.867188 69.304688 14.453125 69.136719 15.070312 69.0625 C 19.964844 69.953125 24.902344 70.289062 29.886719 70.070312 C 29.886719 70.738281 29.886719 71.40625 29.886719 72.078125 C 25.867188 72.078125 21.847656 72.078125 17.832031 72.078125 C 17.160156 72.078125 16.492188 72.078125 15.820312 72.078125 C 13.953125 71.144531 12.277344 69.972656 10.800781 68.5625 Z M 10.800781 68.5625 "/>
<path style=" stroke:none;fill-rule:evenodd;fill:rgb(96.862745%,90.980392%,79.607843%);fill-opacity:1;" d="M 54.496094 61.027344 C 55.714844 60.871094 56.886719 61.039062 58.015625 61.53125 C 58.480469 62.277344 58.316406 62.945312 57.511719 63.539062 C 56.609375 64.1875 55.773438 64.941406 55 65.800781 C 55.722656 65.910156 56.390625 66.160156 57.007812 66.550781 C 53.265625 69.710938 48.910156 70.964844 43.949219 70.320312 C 44.746094 70.753906 45.585938 71.085938 46.460938 71.324219 C 50.753906 70.800781 54.519531 71.890625 57.761719 74.589844 C 58.59375 76.667969 59.347656 78.761719 60.023438 80.867188 C 61.523438 81.292969 62.195312 80.707031 62.03125 79.109375 C 61.53125 79.109375 61.027344 79.109375 60.523438 79.109375 C 60.101562 74.265625 61.441406 69.996094 64.542969 66.300781 C 65.328125 65.917969 66 66 66.550781 66.550781 C 64.988281 70.164062 63.980469 73.929688 63.539062 77.855469 C 63.621094 80.601562 64.289062 83.199219 65.546875 85.640625 C 56.863281 86.449219 49.746094 83.433594 44.199219 76.597656 C 41.125 73.132812 39.453125 69.113281 39.179688 64.542969 C 42.457031 66.300781 45.886719 66.554688 49.476562 65.296875 C 51.234375 63.957031 52.90625 62.535156 54.496094 61.027344 Z M 54.496094 61.027344 "/>
<use xlink:href="#surface23" mask="url(#mask6)"/>
<use xlink:href="#surface26" mask="url(#mask7)"/>
<path style=" stroke:none;fill-rule:evenodd;fill:rgb(92.54902%,87.843137%,81.176471%);fill-opacity:1;" d="M 95.183594 72.578125 C 97.527344 72.578125 99.871094 72.578125 102.214844 72.578125 C 101.714844 77.703125 99.121094 79.375 94.429688 77.601562 C 93.945312 75.769531 94.195312 74.097656 95.183594 72.578125 Z M 95.183594 72.578125 "/>
<path style=" stroke:none;fill-rule:evenodd;fill:rgb(63.137255%,1.568627%,11.372549%);fill-opacity:1;" d="M 15.820312 72.078125 C 16.492188 72.078125 17.160156 72.078125 17.832031 72.078125 C 20.207031 73.210938 22.714844 74.050781 25.367188 74.589844 C 25.53125 75.257812 25.699219 75.929688 25.867188 76.597656 C 25.675781 77.316406 25.175781 77.734375 24.359375 77.855469 C 21.589844 77.941406 18.910156 78.191406 16.324219 78.605469 C 16.050781 78.578125 15.882812 78.410156 15.820312 78.105469 C 17.757812 77.351562 19.765625 77.015625 21.847656 77.101562 C 21.902344 75.894531 21.402344 74.972656 20.34375 74.339844 C 18.664062 73.835938 17.15625 73.082031 15.820312 72.078125 Z M 15.820312 72.078125 "/>
<path style=" stroke:none;fill-rule:evenodd;fill:rgb(100%,24.313725%,18.823529%);fill-opacity:1;" d="M 25.867188 76.597656 C 25.699219 75.929688 25.53125 75.257812 25.367188 74.589844 C 25.367188 74.085938 25.367188 73.585938 25.367188 73.082031 C 27.5 72.921875 29.507812 73.339844 31.394531 74.339844 C 34.003906 78.554688 37.019531 82.488281 40.433594 86.140625 C 38.492188 86.980469 36.484375 87.230469 34.40625 86.894531 C 31.21875 83.636719 28.371094 80.203125 25.867188 76.597656 Z M 25.867188 76.597656 "/>
<path style=" stroke:none;fill-rule:evenodd;fill:rgb(96.078431%,89.803922%,81.960784%);fill-opacity:1;" d="M 84.632812 68.5625 C 86.761719 71.980469 87.183594 75.664062 85.890625 79.613281 C 85.132812 81.128906 84.378906 82.636719 83.628906 84.132812 C 82.960938 84.46875 82.457031 84.96875 82.125 85.640625 C 66.644531 89.410156 61.957031 83.886719 68.058594 69.0625 C 68.421875 69.273438 68.671875 69.609375 68.8125 70.070312 C 68.980469 73.25 69.148438 76.429688 69.316406 79.613281 C 69.871094 81.351562 70.625 81.6875 71.574219 80.617188 C 72 81.457031 72.667969 82.042969 73.585938 82.375 C 75.257812 82.710938 76.933594 82.710938 78.605469 82.375 C 84.683594 78.863281 85.691406 74.261719 81.621094 68.5625 C 81.96875 67.957031 82.050781 67.285156 81.871094 66.550781 C 82.761719 67.289062 83.683594 67.957031 84.632812 68.5625 Z M 84.632812 68.5625 "/>
<path style=" stroke:none;fill-rule:evenodd;fill:rgb(96.470588%,5.490196%,25.882353%);fill-opacity:1;" d="M 76.097656 71.074219 C 79.695312 70.578125 81.453125 72.085938 81.371094 75.59375 C 79.589844 78.460938 77.414062 78.796875 74.839844 76.597656 C 74.242188 74.46875 74.660156 72.625 76.097656 71.074219 Z M 76.097656 71.074219 "/>
<path style=" stroke:none;fill-rule:evenodd;fill:rgb(94.901961%,1.568627%,18.823529%);fill-opacity:1;" d="M 51.484375 23.355469 C 43.496094 27.15625 37.972656 33.183594 34.910156 41.4375 C 33.652344 44.121094 32.730469 46.96875 32.144531 49.976562 C 30.175781 63.171875 33.945312 74.304688 43.449219 83.378906 C 44.546875 83.84375 45.554688 84.429688 46.460938 85.136719 C 46.59375 85.878906 46.425781 86.550781 45.957031 87.144531 C 44.421875 88.761719 43 90.4375 41.691406 92.167969 C 40.902344 92.601562 40.0625 92.933594 39.179688 93.171875 C 38.144531 92.441406 36.972656 92.105469 35.660156 92.167969 C 32.320312 92.578125 28.972656 92.914062 25.617188 93.171875 C 24.304688 93.15625 23.21875 92.820312 22.351562 92.167969 C 22.519531 92.167969 22.6875 92.167969 22.855469 92.167969 C 27.019531 92.289062 30.871094 91.203125 34.40625 88.902344 C 35.074219 87.980469 34.992188 87.730469 34.15625 88.152344 C 33.070312 87.148438 31.816406 86.480469 30.386719 86.140625 C 28.230469 85.816406 26.21875 85.0625 24.359375 83.882812 C 21.390625 82.484375 18.710938 80.726562 16.324219 78.605469 C 18.910156 78.191406 21.589844 77.941406 24.359375 77.855469 C 25.175781 77.734375 25.675781 77.316406 25.867188 76.597656 C 28.371094 80.203125 31.21875 83.636719 34.40625 86.894531 C 36.484375 87.230469 38.492188 86.980469 40.433594 86.140625 C 37.019531 82.488281 34.003906 78.554688 31.394531 74.339844 C 29.507812 73.339844 27.5 72.921875 25.367188 73.082031 C 25.367188 73.585938 25.367188 74.085938 25.367188 74.589844 C 22.714844 74.050781 20.207031 73.210938 17.832031 72.078125 C 21.847656 72.078125 25.867188 72.078125 29.886719 72.078125 C 29.886719 71.40625 29.886719 70.738281 29.886719 70.070312 C 24.902344 70.289062 19.964844 69.953125 15.070312 69.0625 C 14.453125 69.136719 13.867188 69.304688 13.308594 69.566406 C 12.519531 69.085938 11.683594 68.75 10.800781 68.5625 C 10.84375 68.0625 10.675781 67.644531 10.296875 67.304688 C 13.65625 67.222656 17.007812 66.96875 20.34375 66.550781 C 19.929688 66.109375 19.425781 65.941406 18.835938 66.050781 C 18.835938 65.546875 18.835938 65.046875 18.835938 64.542969 C 19.503906 64.542969 20.175781 64.542969 20.84375 64.542969 C 20.6875 63.183594 21.019531 62.011719 21.847656 61.027344 C 22.160156 61.082031 22.410156 61.25 22.601562 61.53125 C 22.851562 63.53125 22.9375 65.539062 22.855469 67.558594 C 24.863281 67.558594 26.871094 67.558594 28.882812 67.558594 C 28.863281 64.332031 28.695312 61.152344 28.378906 58.015625 C 28.277344 56.503906 28.109375 54.996094 27.875 53.492188 C 28.488281 50.496094 28.992188 47.480469 29.382812 44.453125 C 30.6875 41.058594 32.195312 37.710938 33.902344 34.40625 C 32.160156 33.246094 30.484375 33.414062 28.882812 34.910156 C 27.988281 33.984375 26.816406 33.648438 25.367188 33.902344 C 24.527344 33.902344 23.691406 33.902344 22.855469 33.902344 C 22.199219 33.25 22.199219 32.582031 22.855469 31.894531 C 25.714844 31.539062 28.558594 31.121094 31.394531 30.640625 C 31.558594 30.472656 31.726562 30.304688 31.894531 30.136719 C 31.226562 29.96875 30.554688 29.800781 29.886719 29.632812 C 32.503906 28.160156 35.351562 27.488281 38.425781 27.625 C 36.085938 27.375 33.742188 27.292969 31.394531 27.375 C 30.855469 26.90625 30.1875 26.738281 29.382812 26.871094 C 30.230469 26.015625 31.234375 25.265625 32.398438 24.613281 C 34.421875 24.371094 36.429688 24.035156 38.425781 23.605469 C 34.316406 22.285156 30.132812 21.277344 25.867188 20.59375 C 24.539062 19.941406 23.199219 19.273438 21.847656 18.585938 C 25.03125 18.25 28.210938 18.25 31.394531 18.585938 C 36.085938 19.5625 40.773438 20.484375 45.457031 21.347656 C 45.457031 20.34375 45.457031 19.339844 45.457031 18.332031 C 46.640625 18.414062 47.8125 18.332031 48.972656 18.082031 C 48.566406 17.925781 48.230469 17.675781 47.96875 17.328125 C 48.671875 16.023438 49.675781 15.269531 50.980469 15.070312 C 51.605469 16.753906 52.023438 16.671875 52.238281 14.816406 C 52.917969 15.414062 53.503906 16.082031 53.996094 16.828125 C 53.828125 17.328125 53.492188 17.664062 52.992188 17.832031 C 52.152344 16.535156 51.902344 16.703125 52.238281 18.332031 C 53.398438 19.074219 54.484375 19.910156 55.503906 20.84375 C 54.164062 21.679688 52.824219 22.519531 51.484375 23.355469 Z M 51.484375 23.355469 "/>
<use xlink:href="#surface29" mask="url(#mask8)"/>
<path style=" stroke:none;fill-rule:evenodd;fill:rgb(78.039216%,0.784314%,14.509804%);fill-opacity:1;" d="M 36.917969 43.449219 C 32.816406 56.679688 34.992188 68.734375 43.449219 79.613281 C 43.71875 80.425781 43.886719 81.261719 43.949219 82.125 C 44.476562 82.046875 44.980469 82.132812 45.457031 82.375 C 45.175781 83.160156 45.511719 83.832031 46.460938 84.382812 C 47.777344 84.460938 48.949219 84.878906 49.976562 85.640625 C 48.792969 86.21875 48.710938 86.886719 49.726562 87.648438 C 49.988281 87.136719 50.40625 86.804688 50.980469 86.644531 C 54.320312 87.453125 57.332031 88.289062 60.023438 89.15625 C 60.933594 90.863281 61.269531 92.703125 61.027344 94.679688 C 60.773438 96.363281 60.101562 97.871094 59.019531 99.199219 C 58.601562 97.230469 57.765625 96.894531 56.507812 98.195312 C 56.742188 96.101562 57.582031 95.765625 59.019531 97.191406 C 59.445312 95.707031 59.78125 94.199219 60.023438 92.671875 C 60.007812 91.902344 59.671875 91.316406 59.019531 90.914062 C 57.679688 90.578125 56.339844 90.578125 55 90.914062 C 54.730469 92.730469 53.722656 93.820312 51.984375 94.179688 C 51.984375 93.507812 51.984375 92.839844 51.984375 92.167969 C 50.144531 92.839844 48.304688 93.507812 46.460938 94.179688 C 46.828125 96.496094 46.328125 98.503906 44.953125 100.207031 C 45.367188 98.046875 45.703125 95.871094 45.957031 93.675781 C 45.929688 92.601562 45.597656 91.765625 44.953125 91.164062 C 45.59375 89.933594 46.347656 88.761719 47.214844 87.648438 C 47.65625 86.554688 47.402344 85.71875 46.460938 85.136719 C 45.554688 84.429688 44.546875 83.84375 43.449219 83.378906 C 33.945312 74.304688 30.175781 63.171875 32.144531 49.976562 C 32.730469 46.96875 33.652344 44.121094 34.910156 41.4375 C 34.9375 41.710938 35.105469 41.878906 35.410156 41.941406 C 35.914062 41.269531 36.414062 40.601562 36.917969 39.929688 C 37.351562 41.074219 37.351562 42.246094 36.917969 43.449219 Z M 36.917969 43.449219 "/>
<path style=" stroke:none;fill-rule:evenodd;fill:rgb(34.117647%,31.372549%,29.411765%);fill-opacity:1;" d="M 85.640625 83.128906 C 86.753906 83.386719 87.757812 83.890625 88.652344 84.632812 C 87.433594 87.273438 85.425781 88.195312 82.625 87.398438 C 82.207031 86.890625 82.039062 86.304688 82.125 85.640625 C 82.457031 84.96875 82.960938 84.46875 83.628906 84.132812 C 83.5625 84.503906 83.648438 84.839844 83.882812 85.136719 C 84.585938 84.519531 85.171875 83.847656 85.640625 83.128906 Z M 85.640625 83.128906 "/>
<path style=" stroke:none;fill-rule:evenodd;fill:rgb(52.54902%,35.294118%,31.764706%);fill-opacity:1;" d="M 67.054688 88.652344 C 70.164062 88.492188 73.175781 88.65625 76.097656 89.15625 C 74.058594 88.992188 72.050781 89.160156 70.070312 89.65625 C 69.886719 90 69.71875 90.335938 69.566406 90.660156 C 69.09375 91.441406 68.757812 92.277344 68.5625 93.171875 C 68.210938 92.125 67.707031 91.121094 67.054688 90.160156 C 67.621094 89.734375 67.621094 89.230469 67.054688 88.652344 Z M 67.054688 88.652344 "/>
<use xlink:href="#surface32" mask="url(#mask9)"/>
<path style=" stroke:none;fill-rule:evenodd;fill:rgb(83.529412%,59.607843%,41.568627%);fill-opacity:1;" d="M 76.097656 89.15625 C 77.429688 88.984375 78.601562 89.320312 79.613281 90.160156 C 79.101562 91.179688 78.601562 92.183594 78.105469 93.171875 C 74.761719 94.273438 71.914062 93.4375 69.566406 90.660156 C 69.71875 90.335938 69.886719 90 70.070312 89.65625 C 72.050781 89.160156 74.058594 88.992188 76.097656 89.15625 Z M 76.097656 89.15625 "/>
<path style=" stroke:none;fill-rule:evenodd;fill:rgb(73.333333%,0.392157%,10.980392%);fill-opacity:1;" d="M 30.386719 86.140625 C 31.816406 86.480469 33.070312 87.148438 34.15625 88.152344 C 34.992188 87.730469 35.074219 87.980469 34.40625 88.902344 C 30.871094 91.203125 27.019531 92.289062 22.855469 92.167969 C 25.140625 90.871094 27.484375 89.617188 29.886719 88.402344 C 30.914062 87.785156 31.082031 87.03125 30.386719 86.140625 Z M 30.386719 86.140625 "/>
<path style=" stroke:none;fill-rule:evenodd;fill:rgb(70.980392%,0.784314%,15.294118%);fill-opacity:1;" d="M 43.449219 79.613281 C 50.023438 85.820312 57.890625 88.835938 67.054688 88.652344 C 67.621094 89.230469 67.621094 89.734375 67.054688 90.160156 C 65.691406 90.25 64.351562 90.5 63.035156 90.914062 C 62.59375 92.34375 61.925781 93.601562 61.027344 94.679688 C 61.269531 92.703125 60.933594 90.863281 60.023438 89.15625 C 57.332031 88.289062 54.320312 87.453125 50.980469 86.644531 C 50.40625 86.804688 49.988281 87.136719 49.726562 87.648438 C 48.710938 86.886719 48.792969 86.21875 49.976562 85.640625 C 48.949219 84.878906 47.777344 84.460938 46.460938 84.382812 C 45.511719 83.832031 45.175781 83.160156 45.457031 82.375 C 44.980469 82.132812 44.476562 82.046875 43.949219 82.125 C 43.886719 81.261719 43.71875 80.425781 43.449219 79.613281 Z M 43.449219 79.613281 "/>
<path style=" stroke:none;fill-rule:evenodd;fill:rgb(96.470588%,25.882353%,23.921569%);fill-opacity:1;" d="M 46.460938 85.136719 C 47.402344 85.71875 47.65625 86.554688 47.214844 87.648438 C 46.347656 88.761719 45.59375 89.933594 44.953125 91.164062 C 37.230469 95.792969 29.027344 96.882812 20.34375 94.429688 C 20.113281 94.222656 19.945312 93.96875 19.839844 93.675781 C 20.5625 92.945312 21.402344 92.445312 22.351562 92.167969 C 23.21875 92.820312 24.304688 93.15625 25.617188 93.171875 C 28.972656 92.914062 32.320312 92.578125 35.660156 92.167969 C 36.972656 92.105469 38.144531 92.441406 39.179688 93.171875 C 40.0625 92.933594 40.902344 92.601562 41.691406 92.167969 C 43 90.4375 44.421875 88.761719 45.957031 87.144531 C 46.425781 86.550781 46.59375 85.878906 46.460938 85.136719 Z M 46.460938 85.136719 "/>
<path style=" stroke:none;fill-rule:evenodd;fill:rgb(94.509804%,88.235294%,82.745098%);fill-opacity:1;" d="M 84.632812 91.164062 C 81.347656 96.929688 76.660156 98.351562 70.570312 95.433594 C 69.796875 94.746094 69.125 93.992188 68.5625 93.171875 C 68.757812 92.277344 69.09375 91.441406 69.566406 90.660156 C 71.914062 93.4375 74.761719 94.273438 78.105469 93.171875 C 79.835938 92.613281 80.839844 91.441406 81.117188 89.65625 C 82.289062 89.65625 83.460938 89.65625 84.632812 89.65625 C 84.632812 90.160156 84.632812 90.660156 84.632812 91.164062 Z M 84.632812 91.164062 "/>
<use xlink:href="#surface35" mask="url(#mask10)"/>
<use xlink:href="#surface38" mask="url(#mask11)"/>
<use xlink:href="#surface41" mask="url(#mask12)"/>
<use xlink:href="#surface44" mask="url(#mask13)"/>
<use xlink:href="#surface47" mask="url(#mask14)"/>
<path style=" stroke:none;fill-rule:evenodd;fill:rgb(96.470588%,25.882353%,23.529412%);fill-opacity:1;" d="M 56.507812 98.195312 C 52.894531 101.972656 48.625 104.820312 43.699219 106.734375 C 43.449219 106.566406 43.195312 106.398438 42.945312 106.234375 C 43.546875 104.308594 44.214844 102.464844 44.953125 100.707031 C 44.777344 101.898438 44.695312 103.070312 44.703125 104.222656 C 47.761719 102.167969 50.527344 99.742188 52.992188 96.941406 C 53.46875 96.628906 53.886719 96.714844 54.246094 97.191406 C 54.113281 97.921875 54.199219 98.589844 54.496094 99.199219 C 54.875 98.761719 55.125 98.257812 55.25 97.695312 C 55.589844 98.070312 56.007812 98.238281 56.507812 98.195312 Z M 56.507812 98.195312 "/>
<path style=" stroke:none;fill-rule:evenodd;fill:rgb(97.647059%,7.843137%,16.862745%);fill-opacity:1;" d="M 56.507812 98.195312 C 56.007812 98.238281 55.589844 98.070312 55.25 97.695312 C 55.125 98.257812 54.875 98.761719 54.496094 99.199219 C 54.199219 98.589844 54.113281 97.921875 54.246094 97.191406 C 53.886719 96.714844 53.46875 96.628906 52.992188 96.941406 C 50.527344 99.742188 47.761719 102.167969 44.703125 104.222656 C 44.695312 103.070312 44.777344 101.898438 44.953125 100.707031 C 44.953125 100.539062 44.953125 100.371094 44.953125 100.207031 C 46.328125 98.503906 46.828125 96.496094 46.460938 94.179688 C 48.304688 93.507812 50.144531 92.839844 51.984375 92.167969 C 51.984375 92.839844 51.984375 93.507812 51.984375 94.179688 C 53.722656 93.820312 54.730469 92.730469 55 90.914062 C 56.339844 90.578125 57.679688 90.578125 59.019531 90.914062 C 59.671875 91.316406 60.007812 91.902344 60.023438 92.671875 C 59.78125 94.199219 59.445312 95.707031 59.019531 97.191406 C 57.582031 95.765625 56.742188 96.101562 56.507812 98.195312 Z M 56.507812 98.195312 "/>
<path style=" stroke:none;fill-rule:evenodd;fill:rgb(57.254902%,0%,12.941176%);fill-opacity:1;" d="M 35.410156 17.832031 C 31.226562 17.832031 27.039062 17.832031 22.855469 17.832031 C 24.984375 17.09375 27.246094 16.757812 29.632812 16.828125 C 31.710938 16.71875 33.636719 17.054688 35.410156 17.832031 Z M 35.410156 17.832031 "/>
</g>
</svg>
