<?xml version="1.0" encoding="UTF-8"?>
<svg xmlns="http://www.w3.org/2000/svg" xmlns:xlink="http://www.w3.org/1999/xlink" width="px" height="px" viewBox="0 0 116 94" version="1.1">
<defs>
<filter id="alpha" filterUnits="objectBoundingBox" x="0%" y="0%" width="100%" height="100%">
  <feColorMatrix type="matrix" in="SourceGraphic" values="0 0 0 0 1 0 0 0 0 1 0 0 0 0 1 0 0 0 1 0"/>
</filter>
<mask id="mask0">
  <g filter="url(#alpha)">
<rect x="0" y="0" width="116" height="94" style="fill:rgb(0%,0%,0%);fill-opacity:0.0823529;stroke:none;"/>
  </g>
</mask>
<clipPath id="clip1">
  <rect x="0" y="0" width="116" height="94"/>
</clipPath>
<g id="surface5" clip-path="url(#clip1)">
<path style=" stroke:none;fill-rule:evenodd;fill:rgb(12.941176%,17.254902%,23.529412%);fill-opacity:1;" d="M 51.25 -0.25 C 54.082031 -0.25 56.917969 -0.25 59.75 -0.25 C 63.621094 0.359375 67.453125 1.359375 71.25 2.75 C 73.390625 1.59375 75.554688 0.59375 77.75 -0.25 C 80.082031 -0.25 82.417969 -0.25 84.75 -0.25 C 90.539062 1.960938 94.121094 6.125 95.5 12.25 C 98.171875 14.160156 99.921875 16.660156 100.75 19.75 C 104.976562 19.15625 108.394531 20.488281 111 23.75 C 113.253906 29.53125 114.589844 35.53125 115 41.75 C 115.140625 42.207031 115.390625 42.542969 115.75 42.75 C 115.75 45.082031 115.75 47.417969 115.75 49.75 C 115.535156 52.484375 114.871094 55.152344 113.75 57.75 C 113.390625 57.539062 113.140625 57.207031 113 56.75 C 112.640625 57.226562 112.222656 57.308594 111.75 57 C 112.605469 56.433594 112.855469 55.683594 112.5 54.75 C 112.292969 55.378906 111.875 55.710938 111.25 55.75 C 112.265625 53.910156 112.429688 51.996094 111.75 50 C 113.839844 47.199219 113.671875 44.53125 111.25 42 C 112.140625 39.609375 111.804688 37.445312 110.25 35.5 C 111.15625 33.097656 110.65625 31.011719 108.75 29.25 C 109.390625 25.960938 108.058594 23.875 104.75 23 C 102.714844 22.523438 100.796875 22.773438 99 23.75 C 98.191406 19.628906 96.027344 16.464844 92.5 14.25 C 91.097656 5.511719 86.011719 1.761719 77.25 3 C 75.183594 4.066406 73.433594 5.484375 72 7.25 C 61.890625 2.039062 51.476562 1.457031 40.75 5.5 C 28.15625 11.339844 19.992188 20.921875 16.25 34.25 C 14.359375 34.617188 12.859375 35.617188 11.75 37.25 C 12.925781 37.507812 13.925781 38.007812 14.75 38.75 C 13.019531 39.53125 11.183594 39.949219 9.25 40 C 11.082031 40.167969 12.917969 40.332031 14.75 40.5 C 14.308594 41.179688 14.144531 41.929688 14.25 42.75 C 12.46875 43.140625 10.800781 43.808594 9.25 44.75 C 8.898438 44.222656 8.730469 44.386719 8.75 45.25 C 8.441406 43.847656 7.859375 42.511719 7 41.25 C 6.667969 40.582031 6.667969 39.917969 7 39.25 C 8.433594 36.144531 10.601562 33.644531 13.5 31.75 C 19.816406 13.503906 32.402344 2.835938 51.25 -0.25 Z M 51.25 -0.25 "/>
</g>
<mask id="mask1">
  <g filter="url(#alpha)">
<rect x="0" y="0" width="116" height="94" style="fill:rgb(0%,0%,0%);fill-opacity:0.513725;stroke:none;"/>
  </g>
</mask>
<clipPath id="clip2">
  <rect x="0" y="0" width="116" height="94"/>
</clipPath>
<g id="surface8" clip-path="url(#clip2)">
<path style=" stroke:none;fill-rule:evenodd;fill:rgb(79.607843%,80%,80%);fill-opacity:1;" d="M 14.25 42.75 C 14.25 43.417969 14.25 44.082031 14.25 44.75 C 12.472656 44.925781 10.804688 44.925781 9.25 44.75 C 10.800781 43.808594 12.46875 43.140625 14.25 42.75 Z M 14.25 42.75 "/>
</g>
<mask id="mask2">
  <g filter="url(#alpha)">
<rect x="0" y="0" width="116" height="94" style="fill:rgb(0%,0%,0%);fill-opacity:0.996078;stroke:none;"/>
  </g>
</mask>
<clipPath id="clip3">
  <rect x="0" y="0" width="116" height="94"/>
</clipPath>
<g id="surface11" clip-path="url(#clip3)">
<path style=" stroke:none;fill-rule:evenodd;fill:rgb(45.098039%,51.372549%,54.117647%);fill-opacity:1;" d="M 10.75 48.75 C 11.917969 48.75 13.082031 48.75 14.25 48.75 C 14.25 49.417969 14.25 50.082031 14.25 50.75 C 11.746094 50.554688 9.246094 50.304688 6.75 50 C 8.125 49.527344 9.457031 49.113281 10.75 48.75 Z M 10.75 48.75 "/>
</g>
<mask id="mask3">
  <g filter="url(#alpha)">
<rect x="0" y="0" width="116" height="94" style="fill:rgb(0%,0%,0%);fill-opacity:0.792157;stroke:none;"/>
  </g>
</mask>
<clipPath id="clip4">
  <rect x="0" y="0" width="116" height="94"/>
</clipPath>
<g id="surface14" clip-path="url(#clip4)">
<path style=" stroke:none;fill-rule:evenodd;fill:rgb(71.764706%,73.333333%,73.72549%);fill-opacity:1;" d="M 15.25 35.25 C 15.964844 36.1875 15.714844 36.855469 14.5 37.25 C 14.25 37.082031 14 36.917969 13.75 36.75 C 14.167969 36.132812 14.667969 35.632812 15.25 35.25 Z M 15.25 35.25 "/>
</g>
<mask id="mask4">
  <g filter="url(#alpha)">
<rect x="0" y="0" width="116" height="94" style="fill:rgb(0%,0%,0%);fill-opacity:0.105882;stroke:none;"/>
  </g>
</mask>
<clipPath id="clip5">
  <rect x="0" y="0" width="116" height="94"/>
</clipPath>
<g id="surface17" clip-path="url(#clip5)">
<path style=" stroke:none;fill-rule:evenodd;fill:rgb(12.941176%,19.607843%,25.490196%);fill-opacity:1;" d="M 8.75 45.75 C 10.007812 45.875 11.171875 46.292969 12.25 47 C 8.332031 47.75 4.996094 49.582031 2.25 52.5 C 4.890625 52.246094 7.558594 52.246094 10.25 52.5 C 11.832031 53.75 13.417969 55 15 56.25 C 15.246094 56.898438 15.328125 57.5625 15.25 58.25 C 13.535156 58.445312 11.953125 58.113281 10.5 57.25 C 10.417969 57.417969 10.332031 57.582031 10.25 57.75 C 11.179688 58.761719 12.011719 59.84375 12.75 61 C 14.707031 60.949219 16.207031 61.699219 17.25 63.25 C 16.027344 63.515625 15.191406 63.847656 14.75 64.25 C 14.582031 64.582031 14.417969 64.917969 14.25 65.25 C 14.289062 65.875 14.621094 66.292969 15.25 66.5 C 16.550781 66.960938 17.882812 67.292969 19.25 67.5 C 31.585938 87.789062 49.003906 94.039062 71.5 86.25 C 73.105469 87.6875 74.855469 88.9375 76.75 90 C 78.054688 90.410156 79.386719 90.660156 80.75 90.75 C 88.367188 90.382812 92.117188 86.382812 92 78.75 C 96 76.585938 98.417969 73.253906 99.25 68.75 C 102.527344 70.203125 105.609375 69.871094 108.5 67.75 C 109.886719 63.828125 110.800781 59.828125 111.25 55.75 C 111.875 55.710938 112.292969 55.378906 112.5 54.75 C 112.855469 55.683594 112.605469 56.433594 111.75 57 C 112.222656 57.308594 112.640625 57.226562 113 56.75 C 113.140625 57.207031 113.390625 57.539062 113.75 57.75 C 113.464844 61.496094 112.714844 65.164062 111.5 68.75 C 108.789062 71.785156 105.371094 73.203125 101.25 73 C 99.941406 76.199219 97.855469 78.78125 95 80.75 C 94.394531 88.160156 90.476562 92.492188 83.25 93.75 C 81.75 93.75 80.25 93.75 78.75 93.75 C 75.855469 92.96875 73.191406 91.636719 70.75 89.75 C 51.804688 95.953125 35.554688 91.785156 22 77.25 C 20.667969 75.25 19.332031 73.25 18 71.25 C 17.007812 70.171875 15.84375 69.339844 14.5 68.75 C 13.578125 67.214844 13.078125 65.550781 13 63.75 C 10.859375 62.777344 9.191406 61.277344 8 59.25 C 7.644531 58.050781 7.726562 56.882812 8.25 55.75 C 6.257812 55.332031 4.257812 55.25 2.25 55.5 C 1.15625 54.988281 0.324219 54.238281 -0.25 53.25 C -0.25 52.582031 -0.25 51.917969 -0.25 51.25 C 0.96875 49.78125 2.300781 48.363281 3.75 47 C 5.398438 46.46875 7.066406 46.050781 8.75 45.75 Z M 8.75 45.75 "/>
</g>
<mask id="mask5">
  <g filter="url(#alpha)">
<rect x="0" y="0" width="116" height="94" style="fill:rgb(0%,0%,0%);fill-opacity:0.996078;stroke:none;"/>
  </g>
</mask>
<clipPath id="clip6">
  <rect x="0" y="0" width="116" height="94"/>
</clipPath>
<g id="surface20" clip-path="url(#clip6)">
<path style=" stroke:none;fill-rule:evenodd;fill:rgb(92.941176%,70.588235%,56.078431%);fill-opacity:1;" d="M 98.75 63.75 C 100.589844 63.667969 102.425781 63.75 104.25 64 C 108.003906 64.496094 108.171875 65.496094 104.75 67 C 102.730469 67.425781 100.816406 67.175781 99 66.25 C 98.753906 65.433594 98.671875 64.597656 98.75 63.75 Z M 98.75 63.75 "/>
</g>
<mask id="mask6">
  <g filter="url(#alpha)">
<rect x="0" y="0" width="116" height="94" style="fill:rgb(0%,0%,0%);fill-opacity:0.188235;stroke:none;"/>
  </g>
</mask>
<clipPath id="clip7">
  <rect x="0" y="0" width="116" height="94"/>
</clipPath>
<g id="surface23" clip-path="url(#clip7)">
<path style=" stroke:none;fill-rule:evenodd;fill:rgb(81.568627%,83.137255%,84.313725%);fill-opacity:1;" d="M 14.75 64.25 C 15.988281 64.027344 16.988281 64.359375 17.75 65.25 C 16.613281 65.679688 15.449219 65.679688 14.25 65.25 C 14.417969 64.917969 14.582031 64.582031 14.75 64.25 Z M 14.75 64.25 "/>
</g>
<mask id="mask7">
  <g filter="url(#alpha)">
<rect x="0" y="0" width="116" height="94" style="fill:rgb(0%,0%,0%);fill-opacity:0.470588;stroke:none;"/>
  </g>
</mask>
<clipPath id="clip8">
  <rect x="0" y="0" width="116" height="94"/>
</clipPath>
<g id="surface26" clip-path="url(#clip8)">
<path style=" stroke:none;fill-rule:evenodd;fill:rgb(88.627451%,90.980392%,90.980392%);fill-opacity:1;" d="M 14.25 58.75 C 15.171875 58.609375 15.839844 58.945312 16.25 59.75 C 15.175781 60.417969 14.175781 60.335938 13.25 59.5 C 13.707031 59.359375 14.042969 59.109375 14.25 58.75 Z M 14.25 58.75 "/>
</g>
</defs>
<g id="surface1">
<use xlink:href="#surface5" mask="url(#mask0)"/>
<use xlink:href="#surface8" mask="url(#mask1)"/>
<path style=" stroke:none;fill-rule:evenodd;fill:rgb(3.529412%,3.137255%,4.705882%);fill-opacity:1;" d="M 111.25 55.75 C 110.800781 59.828125 109.886719 63.828125 108.5 67.75 C 105.609375 69.871094 102.527344 70.203125 99.25 68.75 C 98.417969 73.253906 96 76.585938 92 78.75 C 92.117188 86.382812 88.367188 90.382812 80.75 90.75 C 79.386719 90.660156 78.054688 90.410156 76.75 90 C 74.855469 88.9375 73.105469 87.6875 71.5 86.25 C 49.003906 94.039062 31.585938 87.789062 19.25 67.5 C 17.882812 67.292969 16.550781 66.960938 15.25 66.5 C 14.621094 66.292969 14.289062 65.875 14.25 65.25 C 15.449219 65.679688 16.613281 65.679688 17.75 65.25 C 16.988281 64.359375 15.988281 64.027344 14.75 64.25 C 15.191406 63.847656 16.027344 63.515625 17.25 63.25 C 16.207031 61.699219 14.707031 60.949219 12.75 61 C 12.011719 59.84375 11.179688 58.761719 10.25 57.75 C 10.332031 57.582031 10.417969 57.417969 10.5 57.25 C 11.953125 58.113281 13.535156 58.445312 15.25 58.25 C 15.328125 57.5625 15.246094 56.898438 15 56.25 C 13.417969 55 11.832031 53.75 10.25 52.5 C 7.558594 52.246094 4.890625 52.246094 2.25 52.5 C 4.996094 49.582031 8.332031 47.75 12.25 47 C 11.171875 46.292969 10.007812 45.875 8.75 45.75 C 8.75 45.582031 8.75 45.417969 8.75 45.25 C 8.730469 44.386719 8.898438 44.222656 9.25 44.75 C 10.804688 44.925781 12.472656 44.925781 14.25 44.75 C 14.25 44.082031 14.25 43.417969 14.25 42.75 C 14.144531 41.929688 14.308594 41.179688 14.75 40.5 C 12.917969 40.332031 11.082031 40.167969 9.25 40 C 11.183594 39.949219 13.019531 39.53125 14.75 38.75 C 13.925781 38.007812 12.925781 37.507812 11.75 37.25 C 12.859375 35.617188 14.359375 34.617188 16.25 34.25 C 19.992188 20.921875 28.15625 11.339844 40.75 5.5 C 51.476562 1.457031 61.890625 2.039062 72 7.25 C 73.433594 5.484375 75.183594 4.066406 77.25 3 C 86.011719 1.761719 91.097656 5.511719 92.5 14.25 C 96.027344 16.464844 98.191406 19.628906 99 23.75 C 100.796875 22.773438 102.714844 22.523438 104.75 23 C 108.058594 23.875 109.390625 25.960938 108.75 29.25 C 110.65625 31.011719 111.15625 33.097656 110.25 35.5 C 111.804688 37.445312 112.140625 39.609375 111.25 42 C 113.671875 44.53125 113.839844 47.199219 111.75 50 C 112.429688 51.996094 112.265625 53.910156 111.25 55.75 Z M 111.25 55.75 "/>
<path style=" stroke:none;fill-rule:evenodd;fill:rgb(85.882353%,57.647059%,41.176471%);fill-opacity:1;" d="M 102.25 51.25 C 104.324219 50.675781 106.488281 50.59375 108.75 51 C 110.378906 53.179688 109.878906 54.679688 107.25 55.5 C 105.816406 55.902344 104.484375 55.816406 103.25 55.25 C 103.917969 55.25 104.582031 55.25 105.25 55.25 C 105.25 53.917969 105.25 52.582031 105.25 51.25 C 104.25 51.25 103.25 51.25 102.25 51.25 Z M 102.25 51.25 "/>
<path style=" stroke:none;fill-rule:evenodd;fill:rgb(96.078431%,80.784314%,69.411765%);fill-opacity:1;" d="M 102.25 51.25 C 103.25 51.25 104.25 51.25 105.25 51.25 C 105.25 52.582031 105.25 53.917969 105.25 55.25 C 104.582031 55.25 103.917969 55.25 103.25 55.25 C 102.753906 55.292969 102.335938 55.125 102 54.75 C 101.601562 53.480469 101.683594 52.3125 102.25 51.25 Z M 102.25 51.25 "/>
<use xlink:href="#surface11" mask="url(#mask2)"/>
<path style=" stroke:none;fill-rule:evenodd;fill:rgb(85.882353%,52.941176%,34.117647%);fill-opacity:1;" d="M 102.75 44.25 C 105.417969 43.441406 108 43.777344 110.5 45.25 C 110.914062 46.351562 110.664062 47.265625 109.75 48 C 108.492188 48.625 107.160156 48.875 105.75 48.75 C 105.746094 47.226562 105.578125 45.726562 105.25 44.25 C 104.417969 44.25 103.582031 44.25 102.75 44.25 Z M 102.75 44.25 "/>
<path style=" stroke:none;fill-rule:evenodd;fill:rgb(96.470588%,81.568627%,69.019608%);fill-opacity:1;" d="M 102.75 44.25 C 103.582031 44.25 104.417969 44.25 105.25 44.25 C 105.578125 45.726562 105.746094 47.226562 105.75 48.75 C 102.164062 49.582031 100.914062 48.246094 102 44.75 C 102.191406 44.472656 102.441406 44.304688 102.75 44.25 Z M 102.75 44.25 "/>
<path style=" stroke:none;fill-rule:evenodd;fill:rgb(1.568627%,1.960784%,5.882353%);fill-opacity:1;" d="M 94.25 51.75 C 90.65625 51.617188 87.320312 50.617188 84.25 48.75 C 83.488281 47.148438 83.65625 45.648438 84.75 44.25 C 87.304688 42.953125 89.972656 41.953125 92.75 41.25 C 94.253906 42.25 94.585938 43.585938 93.75 45.25 C 92.808594 45.804688 91.808594 46.222656 90.75 46.5 C 93.808594 46.976562 94.972656 48.726562 94.25 51.75 Z M 94.25 51.75 "/>
<path style=" stroke:none;fill-rule:evenodd;fill:rgb(97.254902%,79.607843%,64.313725%);fill-opacity:1;" d="M 102.75 37.25 C 103.75 37.25 104.75 37.25 105.75 37.25 C 105.867188 38.804688 105.703125 40.304688 105.25 41.75 C 104.105469 41.878906 103.019531 41.710938 102 41.25 C 101.917969 40.582031 101.832031 39.917969 101.75 39.25 C 101.792969 38.332031 102.125 37.667969 102.75 37.25 Z M 102.75 37.25 "/>
<path style=" stroke:none;fill-rule:evenodd;fill:rgb(80%,52.941176%,36.862745%);fill-opacity:1;" d="M 102.75 37.25 C 105.28125 36.285156 107.53125 36.785156 109.5 38.75 C 109.859375 39.554688 109.777344 40.304688 109.25 41 C 107.992188 41.625 106.660156 41.875 105.25 41.75 C 105.703125 40.304688 105.867188 38.804688 105.75 37.25 C 104.75 37.25 103.75 37.25 102.75 37.25 Z M 102.75 37.25 "/>
<use xlink:href="#surface14" mask="url(#mask3)"/>
<path style=" stroke:none;fill-rule:evenodd;fill:rgb(21.960784%,23.529412%,22.352941%);fill-opacity:1;" d="M 71.25 28.25 C 70.140625 28.28125 69.640625 28.863281 69.75 30 C 69.878906 33.195312 71.460938 35.109375 74.5 35.75 C 75.1875 35.65625 75.605469 35.324219 75.75 34.75 C 79.027344 36.277344 81.363281 38.695312 82.75 42 C 81.949219 44.339844 82.117188 46.589844 83.25 48.75 C 83.714844 49.273438 84.046875 49.273438 84.25 48.75 C 87.320312 50.617188 90.65625 51.617188 94.25 51.75 C 94.292969 52.246094 94.125 52.664062 93.75 53 C 92.441406 53.46875 91.105469 53.886719 89.75 54.25 C 89.582031 54.582031 89.417969 54.917969 89.25 55.25 C 90.320312 56.738281 91.488281 58.15625 92.75 59.5 C 92.390625 62.570312 92.558594 65.652344 93.25 68.75 C 91.300781 70.941406 88.96875 72.691406 86.25 74 C 76.601562 77.59375 70.601562 74.511719 68.25 64.75 C 67.0625 65.273438 66.5625 66.191406 66.75 67.5 C 67.101562 69.953125 67.9375 72.203125 69.25 74.25 C 69.28125 74.46875 69.199219 74.636719 69 74.75 C 65.09375 70.292969 64.257812 65.292969 66.5 59.75 C 70.847656 53.078125 71.929688 45.910156 69.75 38.25 C 70.050781 37.332031 70.21875 36.414062 70.25 35.5 C 69.03125 34.351562 68.28125 32.9375 68 31.25 C 67.066406 27.285156 67.902344 23.785156 70.5 20.75 C 70.597656 21.703125 71.015625 22.453125 71.75 23 C 71.417969 23.167969 71.082031 23.332031 70.75 23.5 C 71.226562 25.027344 71.390625 26.613281 71.25 28.25 Z M 71.25 28.25 "/>
<path style=" stroke:none;fill-rule:evenodd;fill:rgb(90.980392%,66.666667%,52.156863%);fill-opacity:1;" d="M 101.75 30.25 C 104.058594 29.960938 106.140625 30.460938 108 31.75 C 108.246094 32.738281 108.332031 33.738281 108.25 34.75 C 105.910156 34.832031 103.578125 34.75 101.25 34.5 C 100.507812 32.949219 100.671875 31.53125 101.75 30.25 Z M 101.75 30.25 "/>
<path style=" stroke:none;fill-rule:evenodd;fill:rgb(92.941176%,66.27451%,50.196078%);fill-opacity:1;" d="M 100.75 25.25 C 102.847656 25.089844 104.761719 25.589844 106.5 26.75 C 106.742188 27.222656 106.824219 27.722656 106.75 28.25 C 104.269531 28.75 101.769531 28.832031 99.25 28.5 C 98.742188 27.976562 98.65625 27.390625 99 26.75 C 99.574219 26.183594 100.15625 25.683594 100.75 25.25 Z M 100.75 25.25 "/>
<path style=" stroke:none;fill-rule:evenodd;fill:rgb(19.215686%,20.784314%,21.176471%);fill-opacity:1;" d="M 94.75 28.25 C 94.601562 29.300781 94.765625 30.300781 95.25 31.25 C 96.375 30.8125 97.539062 30.644531 98.75 30.75 C 99.761719 39.210938 100.011719 47.710938 99.5 56.25 C 99.179688 58.109375 98.761719 59.945312 98.25 61.75 C 97.25 63.082031 96.25 63.082031 95.25 61.75 C 95.082031 62.25 94.917969 62.75 94.75 63.25 C 98.035156 70.761719 95.703125 75.34375 87.75 77 C 83.433594 77.683594 79.101562 77.851562 74.75 77.5 C 73.753906 77.3125 72.921875 76.898438 72.25 76.25 C 78.664062 77.035156 84.996094 76.621094 91.25 75 C 92.941406 73.257812 93.609375 71.175781 93.25 68.75 C 92.558594 65.652344 92.390625 62.570312 92.75 59.5 C 91.488281 58.15625 90.320312 56.738281 89.25 55.25 C 89.417969 54.917969 89.582031 54.582031 89.75 54.25 C 91.105469 53.886719 92.441406 53.46875 93.75 53 C 94.125 52.664062 94.292969 52.246094 94.25 51.75 C 94.972656 48.726562 93.808594 46.976562 90.75 46.5 C 91.808594 46.222656 92.808594 45.804688 93.75 45.25 C 94.585938 43.585938 94.253906 42.25 92.75 41.25 C 89.972656 41.953125 87.304688 42.953125 84.75 44.25 C 83.65625 45.648438 83.488281 47.148438 84.25 48.75 C 84.046875 49.273438 83.714844 49.273438 83.25 48.75 C 82.117188 46.589844 81.949219 44.339844 82.75 42 C 81.363281 38.695312 79.027344 36.277344 75.75 34.75 C 73.667969 32.996094 72.167969 30.832031 71.25 28.25 C 71.390625 26.613281 71.226562 25.027344 70.75 23.5 C 71.082031 23.332031 71.417969 23.167969 71.75 23 C 71.015625 22.453125 70.597656 21.703125 70.5 20.75 C 67.902344 23.785156 67.066406 27.285156 68 31.25 C 68.28125 32.9375 69.03125 34.351562 70.25 35.5 C 70.21875 36.414062 70.050781 37.332031 69.75 38.25 C 68.1875 35.960938 67.023438 33.460938 66.25 30.75 C 66.664062 28.507812 66.914062 26.175781 67 23.75 C 67.234375 22.875 67.570312 22.042969 68 21.25 C 70.195312 19.703125 72.445312 18.285156 74.75 17 C 80.453125 16.226562 85.953125 16.890625 91.25 19 C 94.300781 21.355469 95.46875 24.4375 94.75 28.25 Z M 94.75 28.25 "/>
<path style=" stroke:none;fill-rule:evenodd;fill:rgb(86.27451%,83.921569%,75.686275%);fill-opacity:1;" d="M 71.25 28.25 C 72.167969 30.832031 73.667969 32.996094 75.75 34.75 C 75.605469 35.324219 75.1875 35.65625 74.5 35.75 C 71.460938 35.109375 69.878906 33.195312 69.75 30 C 69.640625 28.863281 70.140625 28.28125 71.25 28.25 Z M 71.25 28.25 "/>
<path style=" stroke:none;fill-rule:evenodd;fill:rgb(88.627451%,42.352941%,14.117647%);fill-opacity:1;" d="M 90.25 33.25 C 89.917969 33.25 89.75 33.417969 89.75 33.75 C 87.039062 32.804688 84.789062 31.136719 83 28.75 C 81.5 26.582031 80 24.417969 78.5 22.25 C 78.027344 20.886719 78.527344 20.21875 80 20.25 C 87.15625 21.804688 90.574219 26.140625 90.25 33.25 Z M 90.25 33.25 "/>
<path style=" stroke:none;fill-rule:evenodd;fill:rgb(2.352941%,1.176471%,4.313725%);fill-opacity:1;" d="M 90.25 33.25 C 90.574219 26.140625 87.15625 21.804688 80 20.25 C 78.527344 20.21875 78.027344 20.886719 78.5 22.25 C 80 24.417969 81.5 26.582031 83 28.75 C 84.789062 31.136719 87.039062 32.804688 89.75 33.75 C 86.644531 36.296875 83.144531 36.882812 79.25 35.5 C 72.171875 32.4375 70.421875 27.519531 74 20.75 C 75.65625 19.089844 77.65625 18.425781 80 18.75 C 88.558594 19.148438 92.226562 23.648438 91 32.25 C 90.859375 32.707031 90.609375 33.042969 90.25 33.25 Z M 90.25 33.25 "/>
<path style=" stroke:none;fill-rule:evenodd;fill:rgb(10.980392%,12.54902%,14.901961%);fill-opacity:1;" d="M 94.75 28.25 C 95.46875 24.4375 94.300781 21.355469 91.25 19 C 85.953125 16.890625 80.453125 16.226562 74.75 17 C 72.445312 18.285156 70.195312 19.703125 68 21.25 C 67.570312 22.042969 67.234375 22.875 67 23.75 C 66.914062 26.175781 66.664062 28.507812 66.25 30.75 C 64.460938 25.515625 65.628906 20.929688 69.75 17 C 71.285156 16.078125 72.949219 15.578125 74.75 15.5 C 79.761719 15.195312 84.761719 15.359375 89.75 16 C 94.617188 17.984375 96.699219 21.566406 96 26.75 C 95.574219 27.285156 95.15625 27.785156 94.75 28.25 Z M 94.75 28.25 "/>
<path style=" stroke:none;fill-rule:evenodd;fill:rgb(99.607843%,96.862745%,87.058824%);fill-opacity:1;" d="M 66.25 16.75 C 64.460938 19.585938 63.292969 22.667969 62.75 26 C 62.871094 27.605469 63.121094 29.1875 63.5 30.75 C 65 34.417969 66.5 38.082031 68 41.75 C 69.125 47.742188 67.960938 53.242188 64.5 58.25 C 61.882812 64.917969 62.800781 71.085938 67.25 76.75 C 65.679688 79.609375 66.011719 82.191406 68.25 84.5 C 49.222656 90.351562 34.140625 85.101562 23 68.75 C 19.933594 63.464844 18.015625 57.796875 17.25 51.75 C 17.839844 47.601562 18.339844 43.433594 18.75 39.25 C 20.558594 33.128906 23.308594 27.460938 27 22.25 C 29.238281 20.183594 31.488281 18.183594 33.75 16.25 C 44.761719 10.78125 55.59375 10.949219 66.25 16.75 Z M 66.25 16.75 "/>
<path style=" stroke:none;fill-rule:evenodd;fill:rgb(99.215686%,98.431373%,96.470588%);fill-opacity:1;" d="M 21.25 46.25 C 22.007812 46.253906 22.59375 46.589844 23 47.25 C 24.277344 57.222656 28.527344 65.636719 35.75 72.5 C 41.324219 76.367188 47.492188 78.703125 54.25 79.5 C 55.53125 80.425781 55.53125 81.34375 54.25 82.25 C 50.242188 82.863281 46.242188 82.777344 42.25 82 C 40.714844 81.070312 39.046875 80.488281 37.25 80.25 C 37.25 79.582031 37.25 78.917969 37.25 78.25 C 36.5625 78.328125 35.898438 78.246094 35.25 78 C 26.394531 71.464844 21.394531 62.632812 20.25 51.5 C 20.191406 49.652344 20.523438 47.902344 21.25 46.25 Z M 21.25 46.25 "/>
<path style=" stroke:none;fill-rule:evenodd;fill:rgb(87.45098%,52.156863%,32.941176%);fill-opacity:1;" d="M 69.25 10.25 C 70.582031 11.722656 70.5 13.222656 69 14.75 C 68.050781 13.226562 68.132812 11.726562 69.25 10.25 Z M 69.25 10.25 "/>
<path style=" stroke:none;fill-rule:evenodd;fill:rgb(9.411765%,10.980392%,13.72549%);fill-opacity:1;" d="M 83.25 5.75 C 86.898438 7.046875 88.734375 9.546875 88.75 13.25 C 87.066406 12.984375 85.902344 12.066406 85.25 10.5 C 84.316406 9.847656 83.316406 9.683594 82.25 10 C 83.609375 10.636719 84.277344 11.71875 84.25 13.25 C 80.25 13.25 76.25 13.25 72.25 13.25 C 72.132812 12.605469 72.296875 12.105469 72.75 11.75 C 75.609375 11.363281 78.609375 10.777344 81.75 10 C 81.25 9.582031 80.75 9.167969 80.25 8.75 C 82.113281 8.890625 83.113281 7.890625 83.25 5.75 Z M 83.25 5.75 "/>
<path style=" stroke:none;fill-rule:evenodd;fill:rgb(98.039216%,85.490196%,72.941176%);fill-opacity:1;" d="M 66.25 13.75 C 66.644531 14.84375 66.644531 15.84375 66.25 16.75 C 55.59375 10.949219 44.761719 10.78125 33.75 16.25 C 33.707031 15.753906 33.875 15.335938 34.25 15 C 41.929688 10.257812 50.179688 9.007812 59 11.25 C 59.191406 10.757812 59.605469 10.425781 60.25 10.25 C 62.007812 10.757812 63.589844 11.589844 65 12.75 C 65.167969 12.582031 65.332031 12.417969 65.5 12.25 C 65.617188 12.867188 65.867188 13.367188 66.25 13.75 Z M 66.25 13.75 "/>
<path style=" stroke:none;fill-rule:evenodd;fill:rgb(88.235294%,72.54902%,59.215686%);fill-opacity:1;" d="M 66.25 13.75 C 65.867188 13.367188 65.617188 12.867188 65.5 12.25 C 65.332031 12.417969 65.167969 12.582031 65 12.75 C 63.589844 11.589844 62.007812 10.757812 60.25 10.25 C 59.605469 10.425781 59.191406 10.757812 59 11.25 C 50.179688 9.007812 41.929688 10.257812 34.25 15 C 33.875 15.335938 33.707031 15.753906 33.75 16.25 C 31.488281 18.183594 29.238281 20.183594 27 22.25 C 23.308594 27.460938 20.558594 33.128906 18.75 39.25 C 18.339844 43.433594 17.839844 47.601562 17.25 51.75 C 15.855469 36.117188 21.1875 23.199219 33.25 13 C 44.292969 5.242188 56.128906 3.742188 68.75 8.5 C 68 9.25 67.25 10 66.5 10.75 C 66.253906 11.738281 66.167969 12.738281 66.25 13.75 Z M 66.25 13.75 "/>
<path style=" stroke:none;fill-rule:evenodd;fill:rgb(21.568627%,23.921569%,24.705882%);fill-opacity:1;" d="M 83.25 5.75 C 83.113281 7.890625 82.113281 8.890625 80.25 8.75 C 80.75 9.167969 81.25 9.582031 81.75 10 C 78.609375 10.777344 75.609375 11.363281 72.75 11.75 C 73.851562 7.90625 76.433594 5.738281 80.5 5.25 C 81.414062 5.472656 82.328125 5.636719 83.25 5.75 Z M 83.25 5.75 "/>
<use xlink:href="#surface17" mask="url(#mask4)"/>
<path style=" stroke:none;fill-rule:evenodd;fill:rgb(85.098039%,83.137255%,77.254902%);fill-opacity:1;" d="M 74.25 79.75 C 75.804688 84.488281 78.722656 85.65625 83 83.25 C 85.027344 83.605469 85.859375 84.769531 85.5 86.75 C 83.539062 87.65625 81.457031 87.988281 79.25 87.75 C 75.449219 86.675781 73.117188 84.175781 72.25 80.25 C 72.417969 79.917969 72.582031 79.582031 72.75 79.25 C 73.207031 79.5625 73.707031 79.730469 74.25 79.75 Z M 74.25 79.75 "/>
<path style=" stroke:none;fill-rule:evenodd;fill:rgb(19.215686%,20%,21.568627%);fill-opacity:1;" d="M 79.25 87.75 C 81.457031 87.988281 83.539062 87.65625 85.5 86.75 C 85.859375 84.769531 85.027344 83.605469 83 83.25 C 78.722656 85.65625 75.804688 84.488281 74.25 79.75 C 79.089844 79.765625 83.925781 79.597656 88.75 79.25 C 89.285156 82.726562 88.285156 85.640625 85.75 88 C 83.488281 88.40625 81.324219 88.324219 79.25 87.75 Z M 79.25 87.75 "/>
<path style=" stroke:none;fill-rule:evenodd;fill:rgb(87.058824%,46.27451%,21.176471%);fill-opacity:1;" d="M 68.75 77.25 C 69.058594 77.304688 69.308594 77.472656 69.5 77.75 C 69.730469 79.726562 70.148438 81.640625 70.75 83.5 C 70.582031 83.582031 70.417969 83.667969 70.25 83.75 C 68.320312 81.921875 67.820312 79.753906 68.75 77.25 Z M 68.75 77.25 "/>
<path style=" stroke:none;fill-rule:evenodd;fill:rgb(87.45098%,84.313725%,76.470588%);fill-opacity:1;" d="M 93.25 68.75 C 93.609375 71.175781 92.941406 73.257812 91.25 75 C 84.996094 76.621094 78.664062 77.035156 72.25 76.25 C 71.113281 75.78125 70.113281 75.113281 69.25 74.25 C 67.9375 72.203125 67.101562 69.953125 66.75 67.5 C 66.5625 66.191406 67.0625 65.273438 68.25 64.75 C 70.601562 74.511719 76.601562 77.59375 86.25 74 C 88.96875 72.691406 91.300781 70.941406 93.25 68.75 Z M 93.25 68.75 "/>
<use xlink:href="#surface20" mask="url(#mask5)"/>
<use xlink:href="#surface23" mask="url(#mask6)"/>
<path style=" stroke:none;fill-rule:evenodd;fill:rgb(89.411765%,59.607843%,39.607843%);fill-opacity:1;" d="M 105.25 57.75 C 108.054688 57.039062 109.140625 58.039062 108.5 60.75 C 108.164062 61.125 107.746094 61.292969 107.25 61.25 C 106.75 61.25 106.25 61.25 105.75 61.25 C 105.804688 60.046875 105.304688 59.132812 104.25 58.5 C 104.707031 58.359375 105.039062 58.109375 105.25 57.75 Z M 105.25 57.75 "/>
<path style=" stroke:none;fill-rule:evenodd;fill:rgb(96.078431%,75.294118%,58.431373%);fill-opacity:1;" d="M 105.25 57.75 C 105.039062 58.109375 104.707031 58.359375 104.25 58.5 C 105.304688 59.132812 105.804688 60.046875 105.75 61.25 C 106.25 61.25 106.75 61.25 107.25 61.25 C 105.136719 62.570312 102.972656 62.570312 100.75 61.25 C 100.046875 60.027344 100.210938 58.941406 101.25 58 C 102.574219 57.75 103.90625 57.667969 105.25 57.75 Z M 105.25 57.75 "/>
<use xlink:href="#surface26" mask="url(#mask7)"/>
<path style=" stroke:none;fill-rule:evenodd;fill:rgb(81.960784%,81.960784%,77.254902%);fill-opacity:1;" d="M 91.25 63.75 C 90.191406 59.527344 87.527344 57.027344 83.25 56.25 C 83.195312 55.941406 83.027344 55.691406 82.75 55.5 C 83.4375 55.0625 84.1875 54.8125 85 54.75 C 86.824219 55.238281 88.40625 56.152344 89.75 57.5 C 91.6875 59.296875 92.1875 61.378906 91.25 63.75 Z M 91.25 63.75 "/>
<path style=" stroke:none;fill-rule:evenodd;fill:rgb(1.568627%,1.568627%,3.921569%);fill-opacity:1;" d="M 83.25 56.25 C 87.527344 57.027344 90.191406 59.527344 91.25 63.75 C 91.96875 67.5625 90.632812 70.3125 87.25 72 C 83.289062 72.785156 79.289062 72.949219 75.25 72.5 C 72.71875 71.1875 71.71875 69.105469 72.25 66.25 C 72.617188 59.214844 76.28125 55.882812 83.25 56.25 Z M 83.25 56.25 "/>
<path style=" stroke:none;fill-rule:evenodd;fill:rgb(97.254902%,69.019608%,20.392157%);fill-opacity:1;" d="M 82.25 58.25 C 82.917969 58.25 83.582031 58.25 84.25 58.25 C 84.066406 62.363281 82.398438 65.777344 79.25 68.5 C 78.046875 69.351562 76.710938 69.769531 75.25 69.75 C 76.1875 65.039062 78.519531 61.203125 82.25 58.25 Z M 82.25 58.25 "/>
</g>
</svg>
