<?xml version="1.0" encoding="UTF-8"?>
<svg xmlns="http://www.w3.org/2000/svg" xmlns:xlink="http://www.w3.org/1999/xlink" width="px" height="px" viewBox="0 0 105 89" version="1.1">
<defs>
<filter id="alpha" filterUnits="objectBoundingBox" x="0%" y="0%" width="100%" height="100%">
  <feColorMatrix type="matrix" in="SourceGraphic" values="0 0 0 0 1 0 0 0 0 1 0 0 0 0 1 0 0 0 1 0"/>
</filter>
<mask id="mask0">
  <g filter="url(#alpha)">
<rect x="0" y="0" width="105" height="89" style="fill:rgb(0%,0%,0%);fill-opacity:0.0470588;stroke:none;"/>
  </g>
</mask>
<clipPath id="clip1">
  <rect x="0" y="0" width="105" height="89"/>
</clipPath>
<g id="surface5" clip-path="url(#clip1)">
<path style=" stroke:none;fill-rule:evenodd;fill:rgb(14.901961%,17.254902%,22.745098%);fill-opacity:1;" d="M 66.75 -0.25 C 68.75 -0.25 70.75 -0.25 72.75 -0.25 C 77.652344 1.914062 80.902344 5.601562 82.5 10.8125 C 85.46875 12.789062 87.71875 15.386719 89.25 18.605469 C 94.613281 18.304688 98.03125 20.734375 99.5 25.894531 C 100.6875 26.921875 101.6875 28.09375 102.5 29.414062 C 102.539062 32.316406 103.125 35.082031 104.25 37.710938 C 103.472656 39.480469 103.640625 41.074219 104.75 42.488281 C 104.75 43.660156 104.75 44.835938 104.75 46.007812 C 103.160156 47.066406 102.828125 48.492188 103.75 50.28125 C 103.117188 53.007812 102.699219 55.773438 102.5 58.578125 C 101.6875 59.902344 100.6875 61.074219 99.5 62.097656 C 98.320312 67.308594 95.070312 69.90625 89.75 69.894531 C 88.023438 72.804688 85.773438 75.234375 83 77.183594 C 81.605469 82.683594 78.355469 86.539062 73.25 88.75 C 71.082031 88.75 68.917969 88.75 66.75 88.75 C 64.039062 87.792969 61.789062 86.117188 60 83.71875 C 56.179688 84.90625 52.261719 85.746094 48.25 86.234375 C 47.042969 86.28125 46.128906 85.777344 45.5 84.726562 C 42.652344 85.507812 39.738281 86.011719 36.75 86.234375 C 33.035156 85.027344 29.199219 84.105469 25.25 83.46875 C 24.972656 83.277344 24.804688 83.023438 24.75 82.714844 C 28.929688 83.09375 32.929688 83.929688 36.75 85.230469 C 39.703125 84.9375 42.621094 84.433594 45.5 83.71875 C 46.066406 84.367188 46.734375 84.867188 47.5 85.230469 C 51.652344 84.699219 55.738281 83.863281 59.75 82.714844 C 60.992188 83.710938 62.160156 84.800781 63.25 85.984375 C 66.925781 87.910156 70.757812 88.246094 74.75 86.988281 C 78.796875 84.757812 81.046875 81.324219 81.5 76.679688 C 85.015625 75.238281 87.433594 72.726562 88.75 69.136719 C 90.390625 68.722656 92.058594 68.472656 93.75 68.382812 C 97.011719 67.285156 98.429688 65.023438 98 61.597656 C 101.515625 60.1875 102.429688 57.839844 100.75 54.554688 C 102.878906 52.609375 103.210938 50.433594 101.75 48.019531 C 103.582031 45.585938 103.75 42.988281 102.25 40.226562 C 103.101562 37.6875 102.769531 35.34375 101.25 33.1875 C 102.199219 30.152344 101.199219 28.058594 98.25 26.902344 C 97.292969 21.429688 94.042969 19.082031 88.5 19.863281 C 87.253906 16.34375 85.003906 13.660156 81.75 11.816406 C 81.140625 8.542969 79.640625 5.777344 77.25 3.519531 C 70.820312 -0.714844 65.070312 0.0390625 60 5.78125 C 55.984375 4.332031 51.898438 3.160156 47.75 2.261719 C 46.789062 2.308594 46.203125 2.8125 46 3.769531 C 43.703125 2.582031 41.285156 1.742188 38.75 1.257812 C 37.019531 0.890625 36.1875 1.5625 36.25 3.269531 C 34.25 3.269531 32.25 3.269531 30.25 3.269531 C 30.304688 2.957031 30.472656 2.707031 30.75 2.515625 C 32.25 2.347656 33.75 2.179688 35.25 2.011719 C 36.03125 0.636719 37.195312 0.0507812 38.75 0.25 C 41.160156 0.417969 43.410156 1.085938 45.5 2.261719 C 46 1.761719 46.5 1.257812 47 0.753906 C 51.484375 1.589844 55.820312 2.929688 60 4.777344 C 61.765625 2.410156 64.015625 0.734375 66.75 -0.25 Z M 66.75 -0.25 "/>
</g>
</defs>
<g id="surface1">
<path style=" stroke:none;fill-rule:evenodd;fill:rgb(3.529412%,2.352941%,3.529412%);fill-opacity:1;" d="M 24.75 82.714844 C 15.503906 79.117188 8.585938 72.917969 4 64.109375 C 2.105469 59.5 0.691406 54.804688 -0.25 50.03125 C -0.25 45.839844 -0.25 41.652344 -0.25 37.460938 C 1.398438 24.5 7.566406 14.363281 18.25 7.039062 C 21.96875 4.847656 25.96875 3.589844 30.25 3.269531 C 32.25 3.269531 34.25 3.269531 36.25 3.269531 C 36.1875 1.5625 37.019531 0.890625 38.75 1.257812 C 41.285156 1.742188 43.703125 2.582031 46 3.769531 C 46.203125 2.8125 46.789062 2.308594 47.75 2.261719 C 51.898438 3.160156 55.984375 4.332031 60 5.78125 C 65.070312 0.0390625 70.820312 -0.714844 77.25 3.519531 C 79.640625 5.777344 81.140625 8.542969 81.75 11.816406 C 85.003906 13.660156 87.253906 16.34375 88.5 19.863281 C 94.042969 19.082031 97.292969 21.429688 98.25 26.902344 C 101.199219 28.058594 102.199219 30.152344 101.25 33.1875 C 102.769531 35.34375 103.101562 37.6875 102.25 40.226562 C 103.75 42.988281 103.582031 45.585938 101.75 48.019531 C 103.210938 50.433594 102.878906 52.609375 100.75 54.554688 C 102.429688 57.839844 101.515625 60.1875 98 61.597656 C 98.429688 65.023438 97.011719 67.285156 93.75 68.382812 C 92.058594 68.472656 90.390625 68.722656 88.75 69.136719 C 87.433594 72.726562 85.015625 75.238281 81.5 76.679688 C 81.046875 81.324219 78.796875 84.757812 74.75 86.988281 C 70.757812 88.246094 66.925781 87.910156 63.25 85.984375 C 62.160156 84.800781 60.992188 83.710938 59.75 82.714844 C 55.738281 83.863281 51.652344 84.699219 47.5 85.230469 C 46.734375 84.867188 46.066406 84.367188 45.5 83.71875 C 42.621094 84.433594 39.703125 84.9375 36.75 85.230469 C 32.929688 83.929688 28.929688 83.09375 24.75 82.714844 Z M 24.75 82.714844 "/>
<path style=" stroke:none;fill-rule:evenodd;fill:rgb(25.882353%,45.098039%,58.431373%);fill-opacity:1;" d="M 72.75 7.289062 C 72.695312 6.980469 72.527344 6.730469 72.25 6.535156 C 68.140625 5.390625 65.304688 6.816406 63.75 10.8125 C 60.601562 9.636719 60.433594 7.875 63.25 5.53125 C 68.503906 2.078125 73.253906 2.667969 77.5 7.289062 C 77.964844 8.277344 78.382812 9.28125 78.75 10.308594 C 77.859375 10.863281 76.941406 10.863281 76 10.308594 C 74.992188 9.210938 73.910156 8.203125 72.75 7.289062 Z M 72.75 7.289062 "/>
<path style=" stroke:none;fill-rule:evenodd;fill:rgb(91.764706%,42.352941%,27.843137%);fill-opacity:1;" d="M 52.75 25.894531 C 49.535156 24.757812 46.367188 23.417969 43.25 21.871094 C 47.769531 18.425781 52.101562 14.738281 56.25 10.8125 C 55.222656 9.960938 54.054688 9.371094 52.75 9.050781 C 49.082031 8.714844 45.417969 8.714844 41.75 9.050781 C 40.8125 9.828125 40.0625 10.75 39.5 11.816406 C 39.257812 13.84375 38.925781 15.855469 38.5 17.851562 C 38.402344 18.75 37.984375 19.417969 37.25 19.863281 C 34.65625 17.339844 31.992188 14.90625 29.25 12.570312 C 26.378906 11.238281 23.378906 10.316406 20.25 9.804688 C 20.429688 9.460938 20.597656 9.125 20.75 8.800781 C 22.507812 7.496094 24.507812 6.574219 26.75 6.035156 C 30.746094 5.78125 34.746094 5.699219 38.75 5.78125 C 38.75 5.113281 38.75 4.441406 38.75 3.769531 C 41.664062 4.300781 44.5 5.140625 47.25 6.285156 C 51.238281 5.179688 54.988281 5.851562 58.5 8.296875 C 59.820312 10.171875 60.238281 12.183594 59.75 14.332031 C 57.066406 15.21875 54.652344 16.558594 52.5 18.351562 C 52.167969 18.855469 52.167969 19.359375 52.5 19.863281 C 53.316406 21.421875 54.066406 23.015625 54.75 24.636719 C 54.484375 25.652344 53.816406 26.074219 52.75 25.894531 Z M 52.75 25.894531 "/>
<path style=" stroke:none;fill-rule:evenodd;fill:rgb(14.901961%,25.098039%,35.686275%);fill-opacity:1;" d="M 72.75 7.289062 C 73.074219 8.265625 73.242188 9.269531 73.25 10.308594 C 70.085938 10.507812 66.917969 10.675781 63.75 10.8125 C 65.304688 6.816406 68.140625 5.390625 72.25 6.535156 C 72.527344 6.730469 72.695312 6.980469 72.75 7.289062 Z M 72.75 7.289062 "/>
<path style=" stroke:none;fill-rule:evenodd;fill:rgb(20%,36.078431%,47.058824%);fill-opacity:1;" d="M 83.25 32.433594 C 82.941406 32.375 82.691406 32.207031 82.5 31.929688 C 82.25 30.597656 82.167969 29.257812 82.25 27.90625 C 83.210938 23.398438 81.878906 19.792969 78.25 17.097656 C 76.445312 16.273438 74.777344 15.265625 73.25 14.078125 C 70.253906 13.828125 67.253906 13.742188 64.25 13.828125 C 68.300781 12.875 72.46875 12.625 76.75 13.074219 C 86.085938 15.335938 88.335938 20.613281 83.5 28.914062 C 83.25 30.074219 83.167969 31.246094 83.25 32.433594 Z M 83.25 32.433594 "/>
<path style=" stroke:none;fill-rule:evenodd;fill:rgb(2.745098%,1.960784%,3.137255%);fill-opacity:1;" d="M 71.25 19.359375 C 71.417969 19.359375 71.582031 19.359375 71.75 19.359375 C 74.972656 22.714844 76.304688 26.734375 75.75 31.425781 C 75.113281 33.171875 74.277344 34.847656 73.25 36.453125 C 71.484375 37.84375 69.484375 38.683594 67.25 38.96875 C 67.15625 37.929688 66.90625 36.925781 66.5 35.953125 C 64.625 32.351562 62.625 28.832031 60.5 25.394531 C 59.382812 20.933594 61.050781 18.25 65.5 17.347656 C 67.53125 17.777344 69.449219 18.449219 71.25 19.359375 Z M 71.25 19.359375 "/>
<path style=" stroke:none;fill-rule:evenodd;fill:rgb(99.215686%,78.823529%,55.294118%);fill-opacity:1;" d="M 30.25 57.574219 C 29.1875 56.59375 28.019531 55.671875 26.75 54.808594 C 24.566406 54.492188 22.398438 54.574219 20.25 55.058594 C 20.25 55.898438 20.25 56.734375 20.25 57.574219 C 19.769531 56.6875 19.601562 55.679688 19.75 54.554688 C 12.859375 55.871094 8.027344 53.355469 5.25 47.015625 C 4.65625 46.546875 3.988281 46.378906 3.25 46.511719 C 2.929688 53.003906 4.929688 58.621094 9.25 63.355469 C 14.152344 65.792969 18.984375 65.625 23.75 62.851562 C 24.125 62.515625 24.292969 62.097656 24.25 61.597656 C 25.695312 61.707031 27.027344 61.371094 28.25 60.589844 C 28.691406 61.003906 28.859375 61.507812 28.75 62.097656 C 25.03125 68.542969 19.53125 71.726562 12.25 71.652344 C 5.777344 64.621094 2.359375 56.242188 2 46.511719 C 1.261719 37.085938 3.34375 28.371094 8.25 20.363281 C 17.367188 16.941406 24.449219 19.453125 29.5 27.90625 C 34.753906 37.683594 35.003906 47.574219 30.25 57.574219 Z M 30.25 57.574219 "/>
<path style=" stroke:none;fill-rule:evenodd;fill:rgb(55.686275%,65.098039%,72.156863%);fill-opacity:1;" d="M 95.25 24.386719 C 94.636719 24.152344 94.136719 24.488281 93.75 25.394531 C 91.953125 24.925781 90.121094 24.757812 88.25 24.890625 C 88.675781 23.207031 89.757812 22.371094 91.5 22.375 C 93.164062 22.332031 94.414062 23.003906 95.25 24.386719 Z M 95.25 24.386719 "/>
<path style=" stroke:none;fill-rule:evenodd;fill:rgb(66.666667%,87.45098%,94.509804%);fill-opacity:1;" d="M 77.25 34.445312 C 76.953125 30.578125 76.539062 26.726562 76 22.878906 C 74.792969 21.410156 73.378906 20.238281 71.75 19.359375 C 71.640625 18.769531 71.808594 18.265625 72.25 17.851562 C 78.132812 20.742188 80.214844 25.4375 78.5 31.929688 C 78.3125 32.929688 77.898438 33.769531 77.25 34.445312 Z M 77.25 34.445312 "/>
<path style=" stroke:none;fill-rule:evenodd;fill:rgb(29.803922%,40.392157%,47.843137%);fill-opacity:1;" d="M 95.25 24.386719 C 95.886719 24.734375 95.886719 25.152344 95.25 25.644531 C 92.917969 25.8125 90.582031 25.980469 88.25 26.148438 C 88 26.398438 87.75 26.648438 87.5 26.902344 C 87.324219 26.078125 87.574219 25.40625 88.25 24.890625 C 90.121094 24.757812 91.953125 24.925781 93.75 25.394531 C 94.136719 24.488281 94.636719 24.152344 95.25 24.386719 Z M 95.25 24.386719 "/>
<path style=" stroke:none;fill-rule:evenodd;fill:rgb(28.235294%,54.901961%,69.411765%);fill-opacity:1;" d="M 64.25 13.828125 C 67.253906 13.742188 70.253906 13.828125 73.25 14.078125 C 74.777344 15.265625 76.445312 16.273438 78.25 17.097656 C 81.878906 19.792969 83.210938 23.398438 82.25 27.90625 C 81.628906 32.546875 79.542969 36.402344 76 39.472656 C 75.835938 41.25 74.917969 41.839844 73.25 41.230469 C 73.417969 41.0625 73.582031 40.894531 73.75 40.730469 C 73.292969 40.589844 72.960938 40.335938 72.75 39.972656 C 72.722656 38.765625 72.890625 37.59375 73.25 36.453125 C 74.277344 34.847656 75.113281 33.171875 75.75 31.425781 C 75.667969 32.945312 75.75 34.453125 76 35.953125 C 76.332031 36.621094 76.667969 36.621094 77 35.953125 C 77.242188 35.476562 77.324219 34.972656 77.25 34.445312 C 77.898438 33.769531 78.3125 32.929688 78.5 31.929688 C 80.214844 25.4375 78.132812 20.742188 72.25 17.851562 C 71.808594 18.265625 71.640625 18.769531 71.75 19.359375 C 71.582031 19.359375 71.417969 19.359375 71.25 19.359375 C 70.675781 18.316406 70.007812 17.308594 69.25 16.34375 C 67.308594 15.863281 65.644531 15.023438 64.25 13.828125 Z M 64.25 13.828125 "/>
<path style=" stroke:none;fill-rule:evenodd;fill:rgb(98.039216%,44.705882%,51.372549%);fill-opacity:1;" d="M 68.25 21.371094 C 71.171875 22.042969 73.089844 23.886719 74 26.902344 C 74.332031 29.246094 74.332031 31.59375 74 33.941406 C 73.816406 34.648438 73.398438 35.152344 72.75 35.449219 C 70.113281 31.996094 68.449219 28.140625 67.75 23.882812 C 67.796875 23 67.960938 22.164062 68.25 21.371094 Z M 68.25 21.371094 "/>
<path style=" stroke:none;fill-rule:evenodd;fill:rgb(43.921569%,73.72549%,85.490196%);fill-opacity:1;" d="M 71.75 19.359375 C 73.378906 20.238281 74.792969 21.410156 76 22.878906 C 76.539062 26.726562 76.953125 30.578125 77.25 34.445312 C 77.324219 34.972656 77.242188 35.476562 77 35.953125 C 76.667969 36.621094 76.332031 36.621094 76 35.953125 C 75.75 34.453125 75.667969 32.945312 75.75 31.425781 C 76.304688 26.734375 74.972656 22.714844 71.75 19.359375 Z M 71.75 19.359375 "/>
<path style=" stroke:none;fill-rule:evenodd;fill:rgb(91.764706%,90.980392%,91.372549%);fill-opacity:1;" d="M 94.25 28.914062 C 95.789062 28.792969 97.289062 28.960938 98.75 29.414062 C 99.5625 30.105469 99.8125 30.941406 99.5 31.929688 C 97.9375 32.578125 96.355469 32.578125 94.75 31.929688 C 94.324219 30.96875 94.160156 29.964844 94.25 28.914062 Z M 94.25 28.914062 "/>
<path style=" stroke:none;fill-rule:evenodd;fill:rgb(84.313725%,85.882353%,87.058824%);fill-opacity:1;" d="M 89.25 28.410156 C 92.347656 27.917969 93.679688 29.257812 93.25 32.433594 C 92.238281 32.515625 91.238281 32.429688 90.25 32.179688 C 89.824219 30.957031 89.488281 29.699219 89.25 28.410156 Z M 89.25 28.410156 "/>
<path style=" stroke:none;fill-rule:evenodd;fill:rgb(19.607843%,32.941176%,43.529412%);fill-opacity:1;" d="M 86.75 29.414062 C 87.671875 30.445312 88.339844 31.703125 88.75 33.1875 C 87.59375 33.4375 86.429688 33.519531 85.25 33.4375 C 85.007812 31.785156 85.507812 30.445312 86.75 29.414062 Z M 86.75 29.414062 "/>
<path style=" stroke:none;fill-rule:evenodd;fill:rgb(88.235294%,89.803922%,90.980392%);fill-opacity:1;" d="M 90.25 34.945312 C 91.582031 34.945312 92.917969 34.945312 94.25 34.945312 C 94.25 36.289062 94.25 37.628906 94.25 38.96875 C 91.25 39.304688 89.917969 37.964844 90.25 34.945312 Z M 90.25 34.945312 "/>
<path style=" stroke:none;fill-rule:evenodd;fill:rgb(92.941176%,92.941176%,92.54902%);fill-opacity:1;" d="M 95.25 34.945312 C 96.757812 34.863281 98.257812 34.949219 99.75 35.199219 C 100.808594 36.3125 100.976562 37.570312 100.25 38.96875 C 96.4375 40.242188 94.773438 38.902344 95.25 34.945312 Z M 95.25 34.945312 "/>
<path style=" stroke:none;fill-rule:evenodd;fill:rgb(99.215686%,58.431373%,34.117647%);fill-opacity:1;" d="M 20.75 8.800781 C 20.597656 9.125 20.429688 9.460938 20.25 9.804688 C 23.378906 10.316406 26.378906 11.238281 29.25 12.570312 C 31.992188 14.90625 34.65625 17.339844 37.25 19.863281 C 37.984375 19.417969 38.402344 18.75 38.5 17.851562 C 38.925781 15.855469 39.257812 13.84375 39.5 11.816406 C 40.0625 10.75 40.8125 9.828125 41.75 9.050781 C 45.417969 8.714844 49.082031 8.714844 52.75 9.050781 C 54.054688 9.371094 55.222656 9.960938 56.25 10.8125 C 52.101562 14.738281 47.769531 18.425781 43.25 21.871094 C 46.367188 23.417969 49.535156 24.757812 52.75 25.894531 C 50.867188 26.644531 48.867188 27.148438 46.75 27.402344 C 43.929688 27.089844 41.09375 26.835938 38.25 26.648438 C 35.964844 25.195312 33.464844 24.273438 30.75 23.882812 C 30.878906 25.148438 31.292969 26.324219 32 27.402344 C 34.574219 29.867188 37.238281 32.214844 40 34.445312 C 40.28125 35.480469 40.03125 36.402344 39.25 37.210938 C 40.535156 40.542969 40.953125 43.980469 40.5 47.515625 C 39.964844 48.078125 39.378906 48.582031 38.75 49.027344 C 41.023438 52.144531 41.855469 55.664062 41.25 59.585938 C 39.34375 59.015625 37.84375 57.84375 36.75 56.066406 C 36.855469 58.449219 37.9375 60.457031 40 62.097656 C 40.246094 62.75 40.328125 63.417969 40.25 64.109375 C 39.324219 63.996094 38.90625 64.332031 39 65.117188 C 41.257812 68.816406 44.089844 72 47.5 74.667969 C 47.828125 75.476562 47.578125 76.066406 46.75 76.429688 C 42.921875 77.398438 39.253906 76.894531 35.75 74.921875 C 35.097656 74.515625 34.765625 73.929688 34.75 73.160156 C 35.597656 71.875 36.097656 70.449219 36.25 68.886719 C 36.371094 67.707031 35.953125 66.785156 35 66.121094 C 35.371094 68.746094 34.453125 70.671875 32.25 71.902344 C 26.597656 74.1875 20.765625 74.941406 14.75 74.167969 C 13.75 73.496094 12.917969 72.65625 12.25 71.652344 C 19.53125 71.726562 25.03125 68.542969 28.75 62.097656 C 29.402344 61.234375 29.402344 60.308594 28.75 59.332031 C 29.355469 58.8125 29.855469 58.222656 30.25 57.574219 C 35.003906 47.574219 34.753906 37.683594 29.5 27.90625 C 24.449219 19.453125 17.367188 16.941406 8.25 20.363281 C 11.3125 15.273438 15.476562 11.417969 20.75 8.800781 Z M 20.75 8.800781 "/>
<path style=" stroke:none;fill-rule:evenodd;fill:rgb(26.666667%,50.980392%,67.843137%);fill-opacity:1;" d="M 56.25 27.402344 C 57.097656 27.324219 57.933594 27.40625 58.75 27.65625 C 62.570312 30.734375 64.738281 34.671875 65.25 39.472656 C 66.625 48.253906 64.289062 55.796875 58.25 62.097656 C 56.917969 60.925781 55.417969 60.003906 53.75 59.332031 C 52.8125 58.558594 52.0625 57.636719 51.5 56.566406 C 51.25 54.304688 51 52.042969 50.75 49.78125 C 50.996094 47.613281 51.660156 45.601562 52.75 43.746094 C 51.820312 41.625 50.820312 39.527344 49.75 37.460938 C 50.769531 35.742188 51.519531 33.898438 52 31.929688 C 52.339844 30.875 52.253906 29.867188 51.75 28.914062 C 53.210938 28.3125 54.710938 27.808594 56.25 27.402344 Z M 56.25 27.402344 "/>
<path style=" stroke:none;fill-rule:evenodd;fill:rgb(91.372549%,92.156863%,92.54902%);fill-opacity:1;" d="M 91.75 41.484375 C 92.734375 41.363281 93.652344 41.53125 94.5 41.984375 C 94.75 43.484375 94.832031 44.992188 94.75 46.511719 C 90.90625 46.488281 89.90625 44.8125 91.75 41.484375 Z M 91.75 41.484375 "/>
<path style=" stroke:none;fill-rule:evenodd;fill:rgb(94.117647%,93.72549%,93.333333%);fill-opacity:1;" d="M 96.25 41.484375 C 99.992188 40.476562 101.574219 41.816406 101 45.503906 C 96.320312 47.859375 94.734375 46.519531 96.25 41.484375 Z M 96.25 41.484375 "/>
<use xlink:href="#surface5" mask="url(#mask0)"/>
<path style=" stroke:none;fill-rule:evenodd;fill:rgb(2.745098%,1.568627%,2.745098%);fill-opacity:1;" d="M 71.75 50.03125 C 72.417969 50.703125 73.082031 51.371094 73.75 52.042969 C 73.75 52.210938 73.75 52.378906 73.75 52.546875 C 73.15625 51.949219 72.574219 51.949219 72 52.546875 C 70.832031 54.554688 69.667969 56.566406 68.5 58.578125 C 67.832031 61.210938 67.582031 63.894531 67.75 66.625 C 69.9375 66.359375 71.523438 65.1875 72.5 63.105469 C 73.691406 60.382812 74.273438 57.535156 74.25 54.554688 C 74.824219 56.640625 74.90625 58.820312 74.5 61.09375 C 74.035156 62.980469 73.449219 64.824219 72.75 66.625 C 72.488281 67.496094 71.988281 68.164062 71.25 68.636719 C 70.417969 69.136719 69.75 69.808594 69.25 70.648438 C 66.691406 70.953125 64.359375 70.367188 62.25 68.886719 C 61.039062 67.625 60.371094 66.113281 60.25 64.363281 C 62.605469 59.367188 64.773438 54.253906 66.75 49.027344 C 67 48.859375 67.25 48.691406 67.5 48.523438 C 68.949219 48.980469 70.363281 49.480469 71.75 50.03125 Z M 71.75 50.03125 "/>
<path style=" stroke:none;fill-rule:evenodd;fill:rgb(23.137255%,47.843137%,61.960784%);fill-opacity:1;" d="M 82.25 27.90625 C 82.167969 29.257812 82.25 30.597656 82.5 31.929688 C 82.691406 32.207031 82.941406 32.375 83.25 32.433594 C 84.242188 34.445312 85.910156 35.449219 88.25 35.449219 C 88.914062 36.953125 89.582031 38.460938 90.25 39.972656 C 88.902344 42.492188 89.070312 44.921875 90.75 47.265625 C 88.824219 48.824219 88.324219 50.753906 89.25 53.046875 C 87.066406 53.066406 84.898438 52.898438 82.75 52.546875 C 82.710938 53.90625 82.546875 55.246094 82.25 56.566406 C 81.511719 56.28125 80.679688 56.28125 79.75 56.566406 C 79.710938 55.847656 79.878906 55.179688 80.25 54.554688 C 78.894531 53.84375 78.394531 52.839844 78.75 51.539062 C 78.167969 50.03125 77.332031 48.6875 76.25 47.515625 C 75.417969 48.867188 74.917969 50.546875 74.75 52.546875 C 74.417969 52.378906 74.082031 52.210938 73.75 52.042969 C 73.082031 51.371094 72.417969 50.703125 71.75 50.03125 C 71.667969 47.175781 71.75 44.328125 72 41.484375 C 72.117188 40.859375 72.367188 40.359375 72.75 39.972656 C 72.960938 40.335938 73.292969 40.589844 73.75 40.730469 C 73.582031 40.894531 73.417969 41.0625 73.25 41.230469 C 74.917969 41.839844 75.835938 41.25 76 39.472656 C 79.542969 36.402344 81.628906 32.546875 82.25 27.90625 Z M 82.25 27.90625 "/>
<path style=" stroke:none;fill-rule:evenodd;fill:rgb(2.745098%,3.137255%,4.313725%);fill-opacity:1;" d="M 79.75 40.476562 C 81.554688 40.332031 83.304688 40.5 85 40.980469 C 85.332031 41.652344 85.332031 42.320312 85 42.992188 C 84.027344 43.296875 83.109375 43.71875 82.25 44.25 C 83.390625 44.367188 84.390625 44.785156 85.25 45.503906 C 85.824219 46.207031 85.824219 46.875 85.25 47.515625 C 81.789062 48.9375 78.707031 48.265625 76 45.503906 C 75.667969 44.835938 75.667969 44.164062 76 43.496094 C 77.058594 42.175781 78.308594 41.171875 79.75 40.476562 Z M 79.75 40.476562 "/>
<path style=" stroke:none;fill-rule:evenodd;fill:rgb(89.411765%,89.803922%,90.196078%);fill-opacity:1;" d="M 91.75 49.027344 C 92.582031 49.027344 93.417969 49.027344 94.25 49.027344 C 94.332031 50.210938 94.25 51.382812 94 52.546875 C 92.253906 54.054688 91.003906 53.71875 90.25 51.539062 C 90.546875 50.574219 91.046875 49.734375 91.75 49.027344 Z M 91.75 49.027344 "/>
<path style=" stroke:none;fill-rule:evenodd;fill:rgb(92.941176%,92.941176%,92.156863%);fill-opacity:1;" d="M 95.75 49.027344 C 97.257812 48.941406 98.757812 49.027344 100.25 49.277344 C 101.019531 52.527344 99.6875 53.867188 96.25 53.300781 C 95.132812 52 94.964844 50.574219 95.75 49.027344 Z M 95.75 49.027344 "/>
<path style=" stroke:none;fill-rule:evenodd;fill:rgb(12.156863%,21.568627%,30.588235%);fill-opacity:1;" d="M 73.75 52.042969 C 74.082031 52.210938 74.417969 52.378906 74.75 52.546875 C 74.664062 53.042969 74.832031 53.378906 75.25 53.550781 C 75.722656 56.21875 75.804688 58.902344 75.5 61.597656 C 74.957031 63.53125 74.039062 65.207031 72.75 66.625 C 73.449219 64.824219 74.035156 62.980469 74.5 61.09375 C 74.90625 58.820312 74.824219 56.640625 74.25 54.554688 C 74.285156 53.824219 74.117188 53.152344 73.75 52.546875 C 73.75 52.378906 73.75 52.210938 73.75 52.042969 Z M 73.75 52.042969 "/>
<path style=" stroke:none;fill-rule:evenodd;fill:rgb(99.607843%,92.54902%,83.137255%);fill-opacity:1;" d="M 20.25 57.574219 C 20.75 59.753906 22.082031 61.09375 24.25 61.597656 C 24.292969 62.097656 24.125 62.515625 23.75 62.851562 C 18.984375 65.625 14.152344 65.792969 9.25 63.355469 C 4.929688 58.621094 2.929688 53.003906 3.25 46.511719 C 3.988281 46.378906 4.65625 46.546875 5.25 47.015625 C 8.027344 53.355469 12.859375 55.871094 19.75 54.554688 C 19.601562 55.679688 19.769531 56.6875 20.25 57.574219 Z M 20.25 57.574219 "/>
<path style=" stroke:none;fill-rule:evenodd;fill:rgb(97.647059%,46.27451%,51.764706%);fill-opacity:1;" d="M 73.75 52.546875 C 74.117188 53.152344 74.285156 53.824219 74.25 54.554688 C 74.273438 57.535156 73.691406 60.382812 72.5 63.105469 C 71.523438 65.1875 69.9375 66.359375 67.75 66.625 C 67.582031 63.894531 67.832031 61.210938 68.5 58.578125 C 69.667969 56.566406 70.832031 54.554688 72 52.546875 C 72.574219 51.949219 73.15625 51.949219 73.75 52.546875 Z M 73.75 52.546875 "/>
<path style=" stroke:none;fill-rule:evenodd;fill:rgb(89.803922%,89.803922%,90.196078%);fill-opacity:1;" d="M 94.75 55.5625 C 96.257812 55.480469 97.757812 55.5625 99.25 55.8125 C 99.921875 57.644531 99.253906 58.816406 97.25 59.332031 C 93.691406 59.910156 92.859375 58.65625 94.75 55.5625 Z M 94.75 55.5625 "/>
<path style=" stroke:none;fill-rule:evenodd;fill:rgb(99.215686%,70.196078%,45.490196%);fill-opacity:1;" d="M 30.25 57.574219 C 29.855469 58.222656 29.355469 58.8125 28.75 59.332031 C 29.402344 60.308594 29.402344 61.234375 28.75 62.097656 C 28.859375 61.507812 28.691406 61.003906 28.25 60.589844 C 27.027344 61.371094 25.695312 61.707031 24.25 61.597656 C 22.082031 61.09375 20.75 59.753906 20.25 57.574219 C 20.25 56.734375 20.25 55.898438 20.25 55.058594 C 22.398438 54.574219 24.566406 54.492188 26.75 54.808594 C 28.019531 55.671875 29.1875 56.59375 30.25 57.574219 Z M 30.25 57.574219 "/>
<path style=" stroke:none;fill-rule:evenodd;fill:rgb(89.411765%,89.803922%,90.588235%);fill-opacity:1;" d="M 90.25 56.066406 C 91.25 56.066406 92.25 56.066406 93.25 56.066406 C 93.351562 59.433594 91.851562 60.4375 88.75 59.082031 C 89.066406 57.957031 89.566406 56.949219 90.25 56.066406 Z M 90.25 56.066406 "/>
<path style=" stroke:none;fill-rule:evenodd;fill:rgb(90.980392%,40.784314%,27.45098%);fill-opacity:1;" d="M 46.75 27.402344 C 45.519531 27.921875 44.1875 28.257812 42.75 28.410156 C 43.574219 31.15625 44.738281 33.753906 46.25 36.203125 C 45.648438 37.34375 44.8125 38.265625 43.75 38.96875 C 44.324219 40.128906 44.992188 41.21875 45.75 42.238281 C 44.878906 43.332031 44.046875 44.421875 43.25 45.503906 C 44.964844 47.78125 46.296875 50.292969 47.25 53.046875 C 47.105469 54.089844 46.523438 54.757812 45.5 55.058594 C 45.167969 56.066406 45.167969 57.070312 45.5 58.078125 C 48.128906 61.726562 51.128906 65.082031 54.5 68.132812 C 55.507812 71.675781 57.59375 74.359375 60.75 76.179688 C 59.03125 80.929688 55.617188 82.941406 50.5 82.210938 C 49.253906 82.105469 48.085938 81.773438 47 81.207031 C 43.492188 82.222656 39.910156 82.726562 36.25 82.714844 C 36.25 82.210938 36.25 81.710938 36.25 81.207031 C 27.980469 82 20.8125 79.652344 14.75 74.167969 C 20.765625 74.941406 26.597656 74.1875 32.25 71.902344 C 34.453125 70.671875 35.371094 68.746094 35 66.121094 C 35.953125 66.785156 36.371094 67.707031 36.25 68.886719 C 36.097656 70.449219 35.597656 71.875 34.75 73.160156 C 34.765625 73.929688 35.097656 74.515625 35.75 74.921875 C 39.253906 76.894531 42.921875 77.398438 46.75 76.429688 C 47.578125 76.066406 47.828125 75.476562 47.5 74.667969 C 44.089844 72 41.257812 68.816406 39 65.117188 C 38.90625 64.332031 39.324219 63.996094 40.25 64.109375 C 40.328125 63.417969 40.246094 62.75 40 62.097656 C 37.9375 60.457031 36.855469 58.449219 36.75 56.066406 C 37.84375 57.84375 39.34375 59.015625 41.25 59.585938 C 41.855469 55.664062 41.023438 52.144531 38.75 49.027344 C 39.378906 48.582031 39.964844 48.078125 40.5 47.515625 C 40.953125 43.980469 40.535156 40.542969 39.25 37.210938 C 40.03125 36.402344 40.28125 35.480469 40 34.445312 C 37.238281 32.214844 34.574219 29.867188 32 27.402344 C 31.292969 26.324219 30.878906 25.148438 30.75 23.882812 C 33.464844 24.273438 35.964844 25.195312 38.25 26.648438 C 41.09375 26.835938 43.929688 27.089844 46.75 27.402344 Z M 46.75 27.402344 "/>
<path style=" stroke:none;fill-rule:evenodd;fill:rgb(32.941176%,42.745098%,49.803922%);fill-opacity:1;" d="M 95.75 63.105469 C 95.257812 63.425781 94.757812 63.761719 94.25 64.109375 C 93.652344 63.9375 93.652344 63.683594 94.25 63.355469 C 92.320312 62.949219 90.488281 63.03125 88.75 63.605469 C 88.296875 63.25 88.132812 62.746094 88.25 62.097656 C 90.589844 62.015625 92.921875 62.097656 95.25 62.351562 C 95.527344 62.542969 95.695312 62.792969 95.75 63.105469 Z M 95.75 63.105469 "/>
<path style=" stroke:none;fill-rule:evenodd;fill:rgb(61.568627%,67.843137%,72.941176%);fill-opacity:1;" d="M 95.75 63.105469 C 95.480469 65.300781 94.230469 66.308594 92 66.121094 C 89.964844 66.503906 88.882812 65.664062 88.75 63.605469 C 90.488281 63.03125 92.320312 62.949219 94.25 63.355469 C 93.652344 63.683594 93.652344 63.9375 94.25 64.109375 C 94.757812 63.761719 95.257812 63.425781 95.75 63.105469 Z M 95.75 63.105469 "/>
<path style=" stroke:none;fill-rule:evenodd;fill:rgb(17.647059%,32.54902%,45.098039%);fill-opacity:1;" d="M 64.25 13.828125 C 65.644531 15.023438 67.308594 15.863281 69.25 16.34375 C 70.007812 17.308594 70.675781 18.316406 71.25 19.359375 C 69.449219 18.449219 67.53125 17.777344 65.5 17.347656 C 61.050781 18.25 59.382812 20.933594 60.5 25.394531 C 62.625 28.832031 64.625 32.351562 66.5 35.953125 C 66.90625 36.925781 67.15625 37.929688 67.25 38.96875 C 69.484375 38.683594 71.484375 37.84375 73.25 36.453125 C 72.890625 37.59375 72.722656 38.765625 72.75 39.972656 C 72.367188 40.359375 72.117188 40.859375 72 41.484375 C 71.75 44.328125 71.667969 47.175781 71.75 50.03125 C 70.363281 49.480469 68.949219 48.980469 67.5 48.523438 C 67.25 48.691406 67 48.859375 66.75 49.027344 C 64.773438 54.253906 62.605469 59.367188 60.25 64.363281 C 60.371094 66.113281 61.039062 67.625 62.25 68.886719 C 64.359375 70.367188 66.691406 70.953125 69.25 70.648438 C 69.761719 70.847656 69.847656 71.179688 69.5 71.652344 C 68.75 72.59375 68 73.515625 67.25 74.417969 C 81.25 76.011719 86.25 70.0625 82.25 56.566406 C 82.546875 55.246094 82.710938 53.90625 82.75 52.546875 C 84.898438 52.898438 87.066406 53.066406 89.25 53.046875 C 88.601562 54.851562 88.101562 56.695312 87.75 58.578125 C 87.0625 58.65625 86.398438 58.574219 85.75 58.328125 C 85.136719 57.296875 84.636719 56.207031 84.25 55.058594 C 83.769531 58.476562 84.519531 61.660156 86.5 64.613281 C 86.683594 70.339844 83.933594 73.777344 78.25 74.921875 C 73.75 75.257812 69.25 75.257812 64.75 74.921875 C 62.632812 74.191406 60.632812 73.183594 58.75 71.902344 C 57.109375 67.742188 54.527344 64.304688 51 61.597656 C 49.621094 60.125 48.539062 58.449219 47.75 56.566406 C 48.578125 55.816406 49.414062 55.058594 50.25 54.304688 C 49.246094 51.371094 47.914062 48.605469 46.25 46.007812 C 49.414062 44.332031 49.578125 42.320312 46.75 39.972656 C 47.4375 38.789062 48.101562 37.617188 48.75 36.453125 C 47.757812 34.460938 46.757812 32.449219 45.75 30.421875 C 47.671875 29.601562 49.671875 29.097656 51.75 28.914062 C 52.253906 29.867188 52.339844 30.875 52 31.929688 C 51.519531 33.898438 50.769531 35.742188 49.75 37.460938 C 50.820312 39.527344 51.820312 41.625 52.75 43.746094 C 51.660156 45.601562 50.996094 47.613281 50.75 49.78125 C 51 52.042969 51.25 54.304688 51.5 56.566406 C 52.0625 57.636719 52.8125 58.558594 53.75 59.332031 C 55.417969 60.003906 56.917969 60.925781 58.25 62.097656 C 64.289062 55.796875 66.625 48.253906 65.25 39.472656 C 64.738281 34.671875 62.570312 30.734375 58.75 27.65625 C 57.933594 27.40625 57.097656 27.324219 56.25 27.402344 C 56.734375 26.953125 57.070312 26.367188 57.25 25.644531 C 56.78125 23.558594 56.113281 21.546875 55.25 19.609375 C 58.289062 17.726562 61.289062 15.800781 64.25 13.828125 Z M 64.25 13.828125 "/>
<path style=" stroke:none;fill-rule:evenodd;fill:rgb(62.745098%,86.27451%,94.901961%);fill-opacity:1;" d="M 71.25 68.636719 C 71.988281 68.164062 72.488281 67.496094 72.75 66.625 C 74.039062 65.207031 74.957031 63.53125 75.5 61.597656 C 75.804688 58.902344 75.722656 56.21875 75.25 53.550781 C 75.585938 53.164062 76.003906 52.828125 76.5 52.546875 C 78.578125 56.296875 79.246094 60.320312 78.5 64.613281 C 76.882812 68.046875 74.300781 69.890625 70.75 70.144531 C 71.0625 69.683594 71.230469 69.179688 71.25 68.636719 Z M 71.25 68.636719 "/>
<path style=" stroke:none;fill-rule:evenodd;fill:rgb(29.411765%,53.72549%,68.627451%);fill-opacity:1;" d="M 82.25 56.566406 C 86.25 70.0625 81.25 76.011719 67.25 74.417969 C 68 73.515625 68.75 72.59375 69.5 71.652344 C 69.847656 71.179688 69.761719 70.847656 69.25 70.648438 C 69.75 69.808594 70.417969 69.136719 71.25 68.636719 C 71.230469 69.179688 71.0625 69.683594 70.75 70.144531 C 74.300781 69.890625 76.882812 68.046875 78.5 64.613281 C 79.246094 60.320312 78.578125 56.296875 76.5 52.546875 C 76.003906 52.828125 75.585938 53.164062 75.25 53.550781 C 74.832031 53.378906 74.664062 53.042969 74.75 52.546875 C 74.917969 50.546875 75.417969 48.867188 76.25 47.515625 C 77.332031 48.6875 78.167969 50.03125 78.75 51.539062 C 78.394531 52.839844 78.894531 53.84375 80.25 54.554688 C 79.878906 55.179688 79.710938 55.847656 79.75 56.566406 C 80.679688 56.28125 81.511719 56.28125 82.25 56.566406 Z M 82.25 56.566406 "/>
<path style=" stroke:none;fill-rule:evenodd;fill:rgb(12.941176%,27.058824%,38.431373%);fill-opacity:1;" d="M 62.25 78.1875 C 65.828125 77.609375 69.492188 77.523438 73.25 77.9375 C 73.476562 78.144531 73.644531 78.398438 73.75 78.691406 C 73.023438 79.96875 72.191406 81.140625 71.25 82.210938 C 70.1875 82.78125 69.019531 82.863281 67.75 82.464844 C 65.679688 81.300781 63.847656 79.875 62.25 78.1875 Z M 62.25 78.1875 "/>
<path style=" stroke:none;fill-rule:evenodd;fill:rgb(34.901961%,54.509804%,66.27451%);fill-opacity:1;" d="M 62.25 78.1875 C 63.847656 79.875 65.679688 81.300781 67.75 82.464844 C 69.019531 82.863281 70.1875 82.78125 71.25 82.210938 C 73.714844 81.667969 75.546875 80.242188 76.75 77.9375 C 77.398438 77.691406 78.0625 77.609375 78.75 77.6875 C 77.03125 84.253906 72.863281 86.683594 66.25 84.976562 C 62.828125 83.828125 61.496094 81.566406 62.25 78.1875 Z M 62.25 78.1875 "/>
</g>
</svg>
