<?xml version="1.0" encoding="UTF-8"?>
<svg xmlns="http://www.w3.org/2000/svg" xmlns:xlink="http://www.w3.org/1999/xlink" width="px" height="px" viewBox="0 0 102 100" version="1.1">
<defs>
<filter id="alpha" filterUnits="objectBoundingBox" x="0%" y="0%" width="100%" height="100%">
  <feColorMatrix type="matrix" in="SourceGraphic" values="0 0 0 0 1 0 0 0 0 1 0 0 0 0 1 0 0 0 1 0"/>
</filter>
<mask id="mask0">
  <g filter="url(#alpha)">
<rect x="0" y="0" width="102" height="100" style="fill:rgb(0%,0%,0%);fill-opacity:0.027451;stroke:none;"/>
  </g>
</mask>
<clipPath id="clip1">
  <rect x="0" y="0" width="102" height="100"/>
</clipPath>
<g id="surface5" clip-path="url(#clip1)">
<path style=" stroke:none;fill-rule:evenodd;fill:rgb(18.431373%,25.882353%,29.411765%);fill-opacity:1;" d="M 46.25 0.753906 C 52.335938 1.507812 57.75 3.851562 62.5 7.789062 C 62.277344 6.589844 61.695312 5.503906 60.75 4.523438 C 61.058594 3.640625 61.644531 3.054688 62.5 2.765625 C 71.398438 3.628906 78.230469 7.816406 83 15.328125 C 83.167969 16.105469 82.917969 16.773438 82.25 17.335938 C 84.820312 20.003906 86.902344 23.019531 88.5 26.382812 C 90.390625 27.109375 92.304688 27.863281 94.25 28.644531 C 95.746094 30.984375 97.328125 33.246094 99 35.425781 C 100.105469 37.09375 100.355469 38.851562 99.75 40.703125 C 101.210938 42.96875 101.542969 45.398438 100.75 47.988281 C 100.972656 48.613281 101.304688 49.113281 101.75 49.496094 C 101.75 49.664062 101.75 49.832031 101.75 50 C 101.0625 53.242188 100.644531 56.59375 100.5 60.050781 C 99.359375 62.621094 98.527344 65.300781 98 68.089844 C 96.472656 69.570312 95.386719 71.328125 94.75 73.367188 C 94.082031 73.703125 93.417969 74.035156 92.75 74.371094 C 90.894531 74.460938 89.0625 74.710938 87.25 75.125 C 87.023438 76.742188 86.359375 78.082031 85.25 79.144531 C 85.824219 77.675781 86.324219 76.167969 86.75 74.625 C 88.5625 74.207031 90.394531 73.957031 92.25 73.871094 C 94.335938 72.949219 95.417969 71.359375 95.5 69.09375 C 97.847656 67.351562 98.847656 65.003906 98.5 62.058594 C 100.105469 60.109375 100.523438 57.929688 99.75 55.527344 C 100.378906 54.265625 100.710938 52.925781 100.75 51.507812 C 100.585938 46.425781 99.835938 41.402344 98.5 36.433594 C 97.984375 35.496094 97.234375 34.828125 96.25 34.421875 C 95.363281 29.683594 92.53125 27.671875 87.75 28.390625 C 86.503906 23.886719 84.003906 20.203125 80.25 17.335938 C 80.8125 16.953125 81.398438 16.617188 82 16.332031 C 81.847656 14.757812 80.929688 13.917969 79.25 13.820312 C 79.589844 11.921875 78.921875 10.5 77.25 9.546875 C 72.6875 5.953125 67.523438 4.277344 61.75 4.523438 C 62.679688 5.710938 63.515625 6.96875 64.25 8.292969 C 64.1875 8.597656 64.023438 8.765625 63.75 8.792969 C 63.582031 8.125 63.417969 8.125 63.25 8.792969 C 60.25 7.285156 57.25 5.777344 54.25 4.269531 C 51.742188 2.707031 49.078125 1.535156 46.25 0.753906 Z M 46.25 0.753906 "/>
</g>
<mask id="mask1">
  <g filter="url(#alpha)">
<rect x="0" y="0" width="102" height="100" style="fill:rgb(0%,0%,0%);fill-opacity:0.0862745;stroke:none;"/>
  </g>
</mask>
<clipPath id="clip2">
  <rect x="0" y="0" width="102" height="100"/>
</clipPath>
<g id="surface8" clip-path="url(#clip2)">
<path style=" stroke:none;fill-rule:evenodd;fill:rgb(16.862745%,23.921569%,27.843137%);fill-opacity:1;" d="M 11.25 14.320312 C 8.949219 17.773438 6.785156 21.289062 4.75 24.875 C 5.582031 22.027344 6.832031 19.347656 8.5 16.835938 C 9.375 15.867188 10.292969 15.03125 11.25 14.320312 Z M 11.25 14.320312 "/>
</g>
<mask id="mask2">
  <g filter="url(#alpha)">
<rect x="0" y="0" width="102" height="100" style="fill:rgb(0%,0%,0%);fill-opacity:0.968627;stroke:none;"/>
  </g>
</mask>
<clipPath id="clip3">
  <rect x="0" y="0" width="102" height="100"/>
</clipPath>
<g id="surface11" clip-path="url(#clip3)">
<path style=" stroke:none;fill-rule:evenodd;fill:rgb(5.882353%,3.529412%,2.745098%);fill-opacity:1;" d="M 54.25 4.269531 C 57.25 5.777344 60.25 7.285156 63.25 8.792969 C 63.417969 8.792969 63.582031 8.792969 63.75 8.792969 C 64.023438 8.765625 64.1875 8.597656 64.25 8.292969 C 63.515625 6.96875 62.679688 5.710938 61.75 4.523438 C 67.523438 4.277344 72.6875 5.953125 77.25 9.546875 C 78.921875 10.5 79.589844 11.921875 79.25 13.820312 C 80.929688 13.917969 81.847656 14.757812 82 16.332031 C 81.398438 16.617188 80.8125 16.953125 80.25 17.335938 C 84.003906 20.203125 86.503906 23.886719 87.75 28.390625 C 92.53125 27.671875 95.363281 29.683594 96.25 34.421875 C 97.234375 34.828125 97.984375 35.496094 98.5 36.433594 C 99.835938 41.402344 100.585938 46.425781 100.75 51.507812 C 100.710938 52.925781 100.378906 54.265625 99.75 55.527344 C 100.523438 57.929688 100.105469 60.109375 98.5 62.058594 C 98.847656 65.003906 97.847656 67.351562 95.5 69.09375 C 95.417969 71.359375 94.335938 72.949219 92.25 73.871094 C 90.394531 73.957031 88.5625 74.207031 86.75 74.625 C 86.324219 76.167969 85.824219 77.675781 85.25 79.144531 C 85.253906 80.054688 85.003906 80.890625 84.5 81.660156 C 82.839844 83.195312 81.089844 84.535156 79.25 85.679688 C 78.257812 87.820312 77.339844 90 76.5 92.210938 C 76.144531 92.652344 75.730469 92.988281 75.25 93.214844 C 73.734375 95.652344 71.566406 96.742188 68.75 96.480469 C 68.046875 95.351562 67.046875 94.765625 65.75 94.722656 C 60.542969 96.15625 55.378906 97.496094 50.25 98.742188 C 50.082031 98.742188 49.917969 98.742188 49.75 98.742188 C 47.976562 98.714844 46.308594 98.296875 44.75 97.488281 C 45.207031 97.347656 45.542969 97.097656 45.75 96.734375 C 52.304688 95.601562 58.804688 94.175781 65.25 92.460938 C 66.574219 92.210938 67.90625 92.128906 69.25 92.210938 C 69.089844 93.808594 69.753906 94.394531 71.25 93.96875 C 72.574219 92.5625 73.574219 90.972656 74.25 89.195312 C 74.742188 88.242188 75.242188 87.238281 75.75 86.179688 C 65.878906 86.128906 56.542969 83.867188 47.75 79.398438 C 44.277344 76.855469 41.691406 73.589844 40 69.597656 C 34.789062 56.027344 35.789062 42.960938 43 30.402344 C 44.589844 28.46875 46.171875 26.542969 47.75 24.625 C 46.230469 22.925781 44.5625 21.335938 42.75 19.847656 C 42.832031 19.683594 42.917969 19.515625 43 19.347656 C 43.664062 19.890625 44.414062 20.226562 45.25 20.351562 C 46.980469 21.890625 48.980469 22.898438 51.25 23.367188 C 51.328125 22.675781 51.246094 22.007812 51 21.355469 C 49.96875 20.234375 48.886719 19.230469 47.75 18.339844 C 48.417969 18.507812 49.082031 18.675781 49.75 18.84375 C 51.203125 19.628906 52.535156 20.632812 53.75 21.859375 C 54.089844 21.675781 54.425781 21.507812 54.75 21.355469 C 57.703125 20.453125 60.703125 19.699219 63.75 19.09375 C 68.621094 19.171875 73.289062 18.25 77.75 16.332031 C 78.191406 15.917969 78.359375 15.414062 78.25 14.824219 C 77.25 14.65625 76.25 14.488281 75.25 14.320312 C 73.550781 14.484375 71.882812 14.316406 70.25 13.820312 C 72.117188 13.226562 73.949219 12.554688 75.75 11.808594 C 73.347656 9.71875 70.597656 8.214844 67.5 7.285156 C 67.542969 10.910156 65.792969 12.335938 62.25 11.558594 C 60.722656 10.789062 59.222656 10.035156 57.75 9.296875 C 56 8 54.167969 6.824219 52.25 5.777344 C 52.796875 5.097656 53.460938 4.59375 54.25 4.269531 Z M 54.25 4.269531 "/>
</g>
<mask id="mask3">
  <g filter="url(#alpha)">
<rect x="0" y="0" width="102" height="100" style="fill:rgb(0%,0%,0%);fill-opacity:0.992157;stroke:none;"/>
  </g>
</mask>
<clipPath id="clip4">
  <rect x="0" y="0" width="102" height="100"/>
</clipPath>
<g id="surface14" clip-path="url(#clip4)">
<path style=" stroke:none;fill-rule:evenodd;fill:rgb(7.058824%,7.058824%,6.666667%);fill-opacity:1;" d="M 36.25 -0.25 C 36.417969 -0.25 36.582031 -0.25 36.75 -0.25 C 39.867188 0.101562 43.03125 0.4375 46.25 0.753906 C 49.078125 1.535156 51.742188 2.707031 54.25 4.269531 C 53.460938 4.59375 52.796875 5.097656 52.25 5.777344 C 45.605469 3.214844 38.773438 2.628906 31.75 4.019531 C 18.488281 8.554688 9.652344 17.515625 5.25 30.90625 C 2.625 40.632812 2.042969 50.515625 3.5 60.554688 C 3.773438 62 4.191406 63.339844 4.75 64.574219 C 6.417969 73.285156 10.417969 80.65625 16.75 86.683594 C 24.714844 94.710938 34.382812 98.0625 45.75 96.734375 C 45.542969 97.097656 45.207031 97.347656 44.75 97.488281 C 46.308594 98.296875 47.976562 98.714844 49.75 98.742188 C 48.417969 99.078125 47.082031 99.414062 45.75 99.75 C 42.25 99.75 38.75 99.75 35.25 99.75 C 20.386719 96.296875 9.972656 87.417969 4 73.117188 C 1.9375 67.167969 0.519531 61.136719 -0.25 55.023438 C -0.25 51.003906 -0.25 46.984375 -0.25 42.964844 C 0.152344 41.203125 0.488281 39.363281 0.75 37.4375 C 0.695312 36.964844 0.527344 36.546875 0.25 36.179688 C 1.230469 34.914062 1.566406 33.574219 1.25 32.160156 C 2.382812 29.644531 3.546875 27.214844 4.75 24.875 C 6.785156 21.289062 8.949219 17.773438 11.25 14.320312 C 17.59375 6.105469 25.929688 1.246094 36.25 -0.25 Z M 36.25 -0.25 "/>
</g>
<mask id="mask4">
  <g filter="url(#alpha)">
<rect x="0" y="0" width="102" height="100" style="fill:rgb(0%,0%,0%);fill-opacity:0.0235294;stroke:none;"/>
  </g>
</mask>
<clipPath id="clip5">
  <rect x="0" y="0" width="102" height="100"/>
</clipPath>
<g id="surface17" clip-path="url(#clip5)">
<path style=" stroke:none;fill-rule:evenodd;fill:rgb(18.039216%,23.921569%,27.45098%);fill-opacity:1;" d="M 75.25 93.214844 C 74.046875 96.835938 71.546875 98.09375 67.75 96.984375 C 67.15625 96.304688 66.492188 95.71875 65.75 95.226562 C 61.347656 96.664062 56.929688 98.003906 52.5 99.246094 C 51.699219 99.058594 50.949219 98.890625 50.25 98.742188 C 55.378906 97.496094 60.542969 96.15625 65.75 94.722656 C 67.046875 94.765625 68.046875 95.351562 68.75 96.480469 C 71.566406 96.742188 73.734375 95.652344 75.25 93.214844 Z M 75.25 93.214844 "/>
</g>
</defs>
<g id="surface1">
<path style=" stroke:none;fill-rule:evenodd;fill:rgb(93.72549%,61.176471%,14.901961%);fill-opacity:1;" d="M 52.25 5.777344 C 54.167969 6.824219 56 8 57.75 9.296875 C 56.445312 9.734375 55.109375 10.070312 53.75 10.300781 C 53.519531 11.515625 52.851562 12.4375 51.75 13.066406 C 52.535156 14.78125 52.367188 16.375 51.25 17.839844 C 51.582031 18.175781 51.917969 18.507812 52.25 18.84375 C 51.554688 19 50.722656 19 49.75 18.84375 C 49.082031 18.675781 48.417969 18.507812 47.75 18.339844 C 47.417969 18.339844 47.25 18.507812 47.25 18.84375 C 46.296875 18.652344 45.546875 18.148438 45 17.335938 C 44.332031 17.335938 43.667969 17.335938 43 17.335938 C 42.367188 18.242188 41.535156 18.914062 40.5 19.347656 C 39.71875 21.871094 38.46875 24.046875 36.75 25.878906 C 37.027344 23.675781 36.195312 22.082031 34.25 21.105469 C 29.609375 19.980469 25.109375 20.230469 20.75 21.859375 C 18.28125 22.175781 15.949219 22.929688 13.75 24.121094 C 10.664062 26.160156 7.832031 28.421875 5.25 30.90625 C 9.652344 17.515625 18.488281 8.554688 31.75 4.019531 C 38.773438 2.628906 45.605469 3.214844 52.25 5.777344 Z M 52.25 5.777344 "/>
<use xlink:href="#surface5" mask="url(#mask0)"/>
<path style=" stroke:none;fill-rule:evenodd;fill:rgb(87.45098%,55.294118%,11.764706%);fill-opacity:1;" d="M 75.25 14.320312 C 75.902344 14.976562 75.902344 15.644531 75.25 16.332031 C 68.714844 17.214844 62.214844 18.21875 55.75 19.347656 C 55.144531 19.734375 55.144531 20.15625 55.75 20.601562 C 55.292969 20.742188 54.960938 20.996094 54.75 21.355469 C 54.425781 21.507812 54.089844 21.675781 53.75 21.859375 C 52.535156 20.632812 51.203125 19.628906 49.75 18.84375 C 50.722656 19 51.554688 19 52.25 18.84375 C 51.917969 18.507812 51.582031 18.175781 51.25 17.839844 C 52.367188 16.375 52.535156 14.78125 51.75 13.066406 C 52.851562 12.4375 53.519531 11.515625 53.75 10.300781 C 55.109375 10.070312 56.445312 9.734375 57.75 9.296875 C 59.222656 10.035156 60.722656 10.789062 62.25 11.558594 C 65.792969 12.335938 67.542969 10.910156 67.5 7.285156 C 70.597656 8.214844 73.347656 9.71875 75.75 11.808594 C 73.949219 12.554688 72.117188 13.226562 70.25 13.820312 C 71.882812 14.316406 73.550781 14.484375 75.25 14.320312 Z M 75.25 14.320312 "/>
<path style=" stroke:none;fill-rule:evenodd;fill:rgb(75.686275%,46.27451%,12.941176%);fill-opacity:1;" d="M 75.25 14.320312 C 76.25 14.488281 77.25 14.65625 78.25 14.824219 C 78.359375 15.414062 78.191406 15.917969 77.75 16.332031 C 73.289062 18.25 68.621094 19.171875 63.75 19.09375 C 60.703125 19.699219 57.703125 20.453125 54.75 21.355469 C 54.960938 20.996094 55.292969 20.742188 55.75 20.601562 C 55.144531 20.15625 55.144531 19.734375 55.75 19.347656 C 62.214844 18.21875 68.714844 17.214844 75.25 16.332031 C 75.902344 15.644531 75.902344 14.976562 75.25 14.320312 Z M 75.25 14.320312 "/>
<use xlink:href="#surface8" mask="url(#mask1)"/>
<path style=" stroke:none;fill-rule:evenodd;fill:rgb(83.529412%,47.058824%,14.117647%);fill-opacity:1;" d="M 47.75 18.339844 C 48.886719 19.230469 49.96875 20.234375 51 21.355469 C 51.246094 22.007812 51.328125 22.675781 51.25 23.367188 C 48.980469 22.898438 46.980469 21.890625 45.25 20.351562 C 46.203125 20.230469 46.867188 19.730469 47.25 18.84375 C 47.25 18.507812 47.417969 18.339844 47.75 18.339844 Z M 47.75 18.339844 "/>
<use xlink:href="#surface11" mask="url(#mask2)"/>
<path style=" stroke:none;fill-rule:evenodd;fill:rgb(88.627451%,55.294118%,33.72549%);fill-opacity:1;" d="M 88.75 39.445312 C 88.261719 40.191406 87.597656 40.445312 86.75 40.199219 C 85.542969 39.21875 84.292969 38.296875 83 37.4375 C 82.375 34.308594 82.042969 31.125 82 27.890625 C 81.390625 25.496094 79.976562 24.488281 77.75 24.875 C 78.578125 27.3125 78.910156 29.824219 78.75 32.410156 C 78.382812 33.070312 77.96875 33.738281 77.5 34.421875 C 77.304688 33.113281 76.886719 31.941406 76.25 30.90625 C 75.484375 27.035156 73.152344 24.777344 69.25 24.121094 C 67.589844 23.871094 65.925781 23.785156 64.25 23.871094 C 65.789062 23.1875 67.453125 22.769531 69.25 22.613281 C 67.972656 22.613281 66.972656 22.191406 66.25 21.355469 C 69.445312 21.265625 72.609375 20.929688 75.75 20.351562 C 82.289062 20.808594 85.371094 24.328125 85 30.90625 C 82.09375 34.496094 83.007812 36.253906 87.75 36.179688 C 88.507812 37.132812 88.839844 38.222656 88.75 39.445312 Z M 88.75 39.445312 "/>
<path style=" stroke:none;fill-rule:evenodd;fill:rgb(99.607843%,86.666667%,38.431373%);fill-opacity:1;" d="M 20.75 21.859375 C 23.257812 24.636719 26.007812 27.484375 29 30.402344 C 29.332031 31.238281 29.332031 32.078125 29 32.914062 C 21.773438 49.738281 23.105469 65.820312 33 81.15625 C 37.25 86.585938 42.835938 89.683594 49.75 90.453125 C 55.792969 90.90625 61.792969 90.570312 67.75 89.445312 C 68.207031 89.308594 68.539062 89.054688 68.75 88.695312 C 69.582031 88.695312 70.417969 88.695312 71.25 88.695312 C 71.4375 90.417969 70.769531 91.589844 69.25 92.210938 C 67.90625 92.128906 66.574219 92.210938 65.25 92.460938 C 58.804688 94.175781 52.304688 95.601562 45.75 96.734375 C 34.382812 98.0625 24.714844 94.710938 16.75 86.683594 C 16.898438 85.195312 17.730469 84.355469 19.25 84.171875 C 24.8125 86.644531 30.644531 88.320312 36.75 89.195312 C 36.855469 88.371094 36.691406 87.617188 36.25 86.933594 C 21.148438 82.308594 13.980469 72.007812 14.75 56.03125 C 14.082031 56.03125 13.417969 56.03125 12.75 56.03125 C 13.199219 60.886719 13.449219 65.742188 13.5 70.601562 C 12.804688 71.132812 12.054688 71.214844 11.25 70.855469 C 9.507812 68.417969 8.257812 68.667969 7.5 71.609375 C 6.617188 69.191406 5.703125 66.847656 4.75 64.574219 C 4.191406 63.339844 3.773438 62 3.5 60.554688 C 2.042969 50.515625 2.625 40.632812 5.25 30.90625 C 7.832031 28.421875 10.664062 26.160156 13.75 24.121094 C 15.949219 22.929688 18.28125 22.175781 20.75 21.859375 Z M 20.75 21.859375 "/>
<path style=" stroke:none;fill-rule:evenodd;fill:rgb(1.568627%,0.784314%,0.784314%);fill-opacity:1;" d="M 64.25 23.871094 C 65.925781 23.785156 67.589844 23.871094 69.25 24.121094 C 73.152344 24.777344 75.484375 27.035156 76.25 30.90625 C 76.261719 39.34375 72.097656 42.777344 63.75 41.207031 C 57.8125 37.859375 56.3125 33.085938 59.25 26.882812 C 60.75 25.625 62.417969 24.621094 64.25 23.871094 Z M 64.25 23.871094 "/>
<use xlink:href="#surface14" mask="url(#mask3)"/>
<path style=" stroke:none;fill-rule:evenodd;fill:rgb(87.45098%,58.039216%,42.352941%);fill-opacity:1;" d="M 87.75 30.402344 C 89.730469 30.195312 91.566406 30.613281 93.25 31.660156 C 93.691406 32.339844 93.855469 33.09375 93.75 33.917969 C 91.746094 34.1875 89.746094 34.523438 87.75 34.925781 C 86.113281 35.085938 85.363281 34.414062 85.5 32.914062 C 86.011719 31.816406 86.761719 30.976562 87.75 30.402344 Z M 87.75 30.402344 "/>
<path style=" stroke:none;fill-rule:evenodd;fill:rgb(99.607843%,88.235294%,78.823529%);fill-opacity:1;" d="M 88.75 39.445312 C 89.613281 48.203125 89.277344 56.914062 87.75 65.578125 C 84.023438 63.476562 81.855469 64.5625 81.25 68.84375 C 82 71.507812 81.835938 74.105469 80.75 76.632812 C 79.90625 78.578125 78.738281 80.335938 77.25 81.910156 C 73.070312 82.265625 68.902344 82.179688 64.75 81.660156 C 63.792969 81.800781 62.960938 81.632812 62.25 81.15625 C 61.867188 80.769531 61.367188 80.519531 60.75 80.402344 C 62.804688 79.925781 64.804688 79.507812 66.75 79.144531 C 68.703125 79.03125 70.535156 78.53125 72.25 77.636719 C 74.925781 77.378906 76.839844 76.039062 78 73.617188 C 78.855469 68.21875 76.9375 64.113281 72.25 61.304688 C 67.769531 58.292969 63.269531 58.292969 58.75 61.304688 C 55.976562 63.253906 53.726562 65.683594 52 68.59375 C 51.917969 69.429688 51.832031 70.269531 51.75 71.105469 C 52.027344 72.980469 52.277344 74.820312 52.5 76.632812 C 49.601562 73.65625 47.601562 70.140625 46.5 66.082031 C 45.027344 56.933594 45.777344 47.972656 48.75 39.195312 C 49.371094 37.277344 50.371094 35.605469 51.75 34.171875 C 52.222656 33.859375 52.640625 33.945312 53 34.421875 C 55.585938 40.542969 60.085938 44.230469 66.5 45.476562 C 74.492188 44.734375 78.574219 40.378906 78.75 32.410156 C 78.910156 29.824219 78.578125 27.3125 77.75 24.875 C 79.976562 24.488281 81.390625 25.496094 82 27.890625 C 82.042969 31.125 82.375 34.308594 83 37.4375 C 84.292969 38.296875 85.542969 39.21875 86.75 40.199219 C 87.597656 40.445312 88.261719 40.191406 88.75 39.445312 Z M 88.75 39.445312 "/>
<path style=" stroke:none;fill-rule:evenodd;fill:rgb(96.470588%,83.137255%,71.764706%);fill-opacity:1;" d="M 95.75 40.453125 C 93.917969 40.453125 92.082031 40.453125 90.25 40.453125 C 90.367188 39.804688 90.203125 39.300781 89.75 38.945312 C 89.75 37.941406 89.75 36.933594 89.75 35.929688 C 92.0625 35.738281 94.230469 36.15625 96.25 37.1875 C 97.011719 38.46875 96.84375 39.558594 95.75 40.453125 Z M 95.75 40.453125 "/>
<path style=" stroke:none;fill-rule:evenodd;fill:rgb(27.45098%,25.098039%,21.960784%);fill-opacity:1;" d="M 89.75 38.945312 C 90.203125 39.300781 90.367188 39.804688 90.25 40.453125 C 92.082031 40.453125 93.917969 40.453125 95.75 40.453125 C 93.851562 40.945312 91.851562 41.113281 89.75 40.953125 C 89.75 40.285156 89.75 39.613281 89.75 38.945312 Z M 89.75 38.945312 "/>
<path style=" stroke:none;fill-rule:evenodd;fill:rgb(47.45098%,36.470588%,28.627451%);fill-opacity:1;" d="M 95.75 42.460938 C 94.082031 42.460938 92.417969 42.460938 90.75 42.460938 C 90.75 43.46875 90.75 44.472656 90.75 45.476562 C 90.265625 44.417969 90.097656 43.246094 90.25 41.960938 C 92.183594 41.800781 94.019531 41.96875 95.75 42.460938 Z M 95.75 42.460938 "/>
<path style=" stroke:none;fill-rule:evenodd;fill:rgb(96.470588%,89.803922%,83.921569%);fill-opacity:1;" d="M 95.75 42.460938 C 96.707031 42.5 97.289062 43.003906 97.5 43.96875 C 97.832031 44.976562 97.832031 45.980469 97.5 46.984375 C 95.300781 47.472656 93.050781 47.636719 90.75 47.488281 C 90.75 46.816406 90.75 46.148438 90.75 45.476562 C 90.75 44.472656 90.75 43.46875 90.75 42.460938 C 92.417969 42.460938 94.082031 42.460938 95.75 42.460938 Z M 95.75 42.460938 "/>
<path style=" stroke:none;fill-rule:evenodd;fill:rgb(5.098039%,3.529412%,3.137255%);fill-opacity:1;" d="M 78.75 47.988281 C 79.894531 47.859375 80.980469 48.027344 82 48.492188 C 82.519531 50.152344 81.9375 51.242188 80.25 51.757812 C 82.113281 52.390625 82.613281 53.5625 81.75 55.277344 C 78.3125 55.578125 75.226562 54.65625 72.5 52.511719 C 72.277344 51.460938 72.695312 50.707031 73.75 50.25 C 75.519531 49.609375 77.1875 48.855469 78.75 47.988281 Z M 78.75 47.988281 "/>
<path style=" stroke:none;fill-rule:evenodd;fill:rgb(95.686275%,90.980392%,87.058824%);fill-opacity:1;" d="M 90.75 48.996094 C 92.921875 48.910156 95.089844 48.996094 97.25 49.246094 C 98.351562 50.632812 98.519531 52.140625 97.75 53.769531 C 95.46875 54.425781 93.132812 54.679688 90.75 54.523438 C 90.75 52.679688 90.75 50.835938 90.75 48.996094 Z M 90.75 48.996094 "/>
<path style=" stroke:none;fill-rule:evenodd;fill:rgb(76.078431%,39.607843%,20.392157%);fill-opacity:1;" d="M 66.25 21.355469 C 66.972656 22.191406 67.972656 22.613281 69.25 22.613281 C 67.453125 22.769531 65.789062 23.1875 64.25 23.871094 C 62.417969 24.621094 60.75 25.625 59.25 26.882812 C 53.207031 27.6875 48.957031 30.867188 46.5 36.433594 C 43.570312 44.207031 42.152344 52.246094 42.25 60.554688 C 42.300781 61.585938 41.964844 62.421875 41.25 63.066406 C 39.429688 58.253906 38.847656 53.230469 39.5 47.988281 C 41.132812 42.730469 42.96875 37.535156 45 32.410156 C 50.136719 25.097656 57.222656 21.410156 66.25 21.355469 Z M 66.25 21.355469 "/>
<path style=" stroke:none;fill-rule:evenodd;fill:rgb(94.117647%,62.745098%,44.313725%);fill-opacity:1;" d="M 59.25 26.882812 C 56.3125 33.085938 57.8125 37.859375 63.75 41.207031 C 72.097656 42.777344 76.261719 39.34375 76.25 30.90625 C 76.886719 31.941406 77.304688 33.113281 77.5 34.421875 C 77.96875 33.738281 78.382812 33.070312 78.75 32.410156 C 78.574219 40.378906 74.492188 44.734375 66.5 45.476562 C 60.085938 44.230469 55.585938 40.542969 53 34.421875 C 52.640625 33.945312 52.222656 33.859375 51.75 34.171875 C 50.371094 35.605469 49.371094 37.277344 48.75 39.195312 C 45.777344 47.972656 45.027344 56.933594 46.5 66.082031 C 47.601562 70.140625 49.601562 73.65625 52.5 76.632812 C 52.277344 74.820312 52.027344 72.980469 51.75 71.105469 C 51.832031 70.269531 51.917969 69.429688 52 68.59375 C 53.726562 65.683594 55.976562 63.253906 58.75 61.304688 C 63.269531 58.292969 67.769531 58.292969 72.25 61.304688 C 76.9375 64.113281 78.855469 68.21875 78 73.617188 C 76.839844 76.039062 74.925781 77.378906 72.25 77.636719 C 75.09375 74.699219 76.011719 71.179688 75 67.085938 C 71.574219 61.21875 66.824219 59.796875 60.75 62.8125 C 55.628906 67.710938 55.460938 72.738281 60.25 77.890625 C 62.273438 78.980469 64.441406 79.402344 66.75 79.144531 C 64.804688 79.507812 62.804688 79.925781 60.75 80.402344 C 61.367188 80.519531 61.867188 80.769531 62.25 81.15625 C 53.976562 79.984375 48.058594 75.628906 44.5 68.089844 C 43.574219 65.558594 42.824219 63.046875 42.25 60.554688 C 42.152344 52.246094 43.570312 44.207031 46.5 36.433594 C 48.957031 30.867188 53.207031 27.6875 59.25 26.882812 Z M 59.25 26.882812 "/>
<path style=" stroke:none;fill-rule:evenodd;fill:rgb(99.607843%,74.509804%,23.529412%);fill-opacity:1;" d="M 36.75 25.878906 C 31.066406 37.109375 29.148438 49.003906 31 61.558594 C 32.726562 69.640625 36.476562 76.589844 42.25 82.410156 C 46.335938 85.175781 50.835938 86.851562 55.75 87.4375 C 60.070312 88.023438 64.40625 88.441406 68.75 88.695312 C 68.539062 89.054688 68.207031 89.308594 67.75 89.445312 C 61.792969 90.570312 55.792969 90.90625 49.75 90.453125 C 42.835938 89.683594 37.25 86.585938 33 81.15625 C 23.105469 65.820312 21.773438 49.738281 29 32.914062 C 29.332031 32.078125 29.332031 31.238281 29 30.402344 C 26.007812 27.484375 23.257812 24.636719 20.75 21.859375 C 25.109375 20.230469 29.609375 19.980469 34.25 21.105469 C 36.195312 22.082031 37.027344 23.675781 36.75 25.878906 Z M 36.75 25.878906 "/>
<path style=" stroke:none;fill-rule:evenodd;fill:rgb(95.686275%,92.156863%,88.235294%);fill-opacity:1;" d="M 90.25 56.03125 C 92.75 56.03125 95.25 56.03125 97.75 56.03125 C 97.921875 57.589844 97.589844 59.011719 96.75 60.300781 C 94.648438 60.988281 92.484375 61.238281 90.25 61.054688 C 90.25 59.378906 90.25 57.703125 90.25 56.03125 Z M 90.25 56.03125 "/>
<path style=" stroke:none;fill-rule:evenodd;fill:rgb(1.960784%,1.176471%,1.176471%);fill-opacity:1;" d="M 72.25 77.636719 C 70.535156 78.53125 68.703125 79.03125 66.75 79.144531 C 64.441406 79.402344 62.273438 78.980469 60.25 77.890625 C 55.460938 72.738281 55.628906 67.710938 60.75 62.8125 C 66.824219 59.796875 71.574219 61.21875 75 67.085938 C 76.011719 71.179688 75.09375 74.699219 72.25 77.636719 Z M 72.25 77.636719 "/>
<path style=" stroke:none;fill-rule:evenodd;fill:rgb(94.117647%,87.843137%,81.176471%);fill-opacity:1;" d="M 89.75 62.5625 C 91.75 62.5625 93.75 62.5625 95.75 62.5625 C 96.125 65.785156 94.710938 67.292969 91.5 67.085938 C 90.582031 66.917969 89.667969 66.75 88.75 66.582031 C 89.085938 65.226562 89.417969 63.886719 89.75 62.5625 Z M 89.75 62.5625 "/>
<path style=" stroke:none;fill-rule:evenodd;fill:rgb(73.333333%,39.215686%,23.921569%);fill-opacity:1;" d="M 42.25 60.554688 C 42.824219 63.046875 43.574219 65.558594 44.5 68.089844 C 48.058594 75.628906 53.976562 79.984375 62.25 81.15625 C 62.960938 81.632812 63.792969 81.800781 64.75 81.660156 C 64.25 81.992188 63.75 82.328125 63.25 82.664062 C 56.460938 81.871094 50.542969 79.191406 45.5 74.625 C 43.144531 71.125 41.726562 67.269531 41.25 63.066406 C 41.964844 62.421875 42.300781 61.585938 42.25 60.554688 Z M 42.25 60.554688 "/>
<path style=" stroke:none;fill-rule:evenodd;fill:rgb(93.72549%,86.666667%,79.607843%);fill-opacity:1;" d="M 84.75 68.089844 C 87.289062 67.964844 89.789062 68.214844 92.25 68.84375 C 93.726562 70.417969 93.394531 71.421875 91.25 71.859375 C 88.78125 72.546875 86.699219 71.960938 85 70.101562 C 84.753906 69.449219 84.671875 68.78125 84.75 68.089844 Z M 84.75 68.089844 "/>
<path style=" stroke:none;fill-rule:evenodd;fill:rgb(89.803922%,56.078431%,14.117647%);fill-opacity:1;" d="M 47.25 18.84375 C 46.867188 19.730469 46.203125 20.230469 45.25 20.351562 C 44.414062 20.226562 43.664062 19.890625 43 19.347656 C 42.917969 19.515625 42.832031 19.683594 42.75 19.847656 C 44.5625 21.335938 46.230469 22.925781 47.75 24.625 C 46.171875 26.542969 44.589844 28.46875 43 30.402344 C 35.789062 42.960938 34.789062 56.027344 40 69.597656 C 41.691406 73.589844 44.277344 76.855469 47.75 79.398438 C 56.542969 83.867188 65.878906 86.128906 75.75 86.179688 C 75.242188 87.238281 74.742188 88.242188 74.25 89.195312 C 73.367188 88.714844 72.367188 88.546875 71.25 88.695312 C 70.417969 88.695312 69.582031 88.695312 68.75 88.695312 C 64.40625 88.441406 60.070312 88.023438 55.75 87.4375 C 50.835938 86.851562 46.335938 85.175781 42.25 82.410156 C 36.476562 76.589844 32.726562 69.640625 31 61.558594 C 29.148438 49.003906 31.066406 37.109375 36.75 25.878906 C 38.46875 24.046875 39.71875 21.871094 40.5 19.347656 C 41.535156 18.914062 42.367188 18.242188 43 17.335938 C 43.667969 17.335938 44.332031 17.335938 45 17.335938 C 45.546875 18.148438 46.296875 18.652344 47.25 18.84375 Z M 47.25 18.84375 "/>
<path style=" stroke:none;fill-rule:evenodd;fill:rgb(97.647059%,70.980392%,52.941176%);fill-opacity:1;" d="M 87.75 65.578125 C 86.382812 66.371094 84.882812 67.042969 83.25 67.589844 C 82.683594 68.378906 82.601562 69.214844 83 70.101562 C 84.988281 71.992188 85.070312 74.003906 83.25 76.128906 C 81.804688 75.988281 81.054688 76.660156 81 78.140625 C 80.757812 77.664062 80.675781 77.160156 80.75 76.632812 C 81.835938 74.105469 82 71.507812 81.25 68.84375 C 81.855469 64.5625 84.023438 63.476562 87.75 65.578125 Z M 87.75 65.578125 "/>
<path style=" stroke:none;fill-rule:evenodd;fill:rgb(99.607843%,91.372549%,52.941176%);fill-opacity:1;" d="M 16.75 86.683594 C 10.417969 80.65625 6.417969 73.285156 4.75 64.574219 C 5.703125 66.847656 6.617188 69.191406 7.5 71.609375 C 8.257812 68.667969 9.507812 68.417969 11.25 70.855469 C 12.054688 71.214844 12.804688 71.132812 13.5 70.601562 C 13.449219 65.742188 13.199219 60.886719 12.75 56.03125 C 13.417969 56.03125 14.082031 56.03125 14.75 56.03125 C 13.980469 72.007812 21.148438 82.308594 36.25 86.933594 C 36.691406 87.617188 36.855469 88.371094 36.75 89.195312 C 30.644531 88.320312 24.8125 86.644531 19.25 84.171875 C 17.730469 84.355469 16.898438 85.195312 16.75 86.683594 Z M 16.75 86.683594 "/>
<path style=" stroke:none;fill-rule:evenodd;fill:rgb(92.941176%,74.901961%,61.960784%);fill-opacity:1;" d="M 83.25 76.128906 C 82.675781 78.875 81.175781 80.96875 78.75 82.410156 C 73.574219 83.296875 68.410156 83.378906 63.25 82.664062 C 63.75 82.328125 64.25 81.992188 64.75 81.660156 C 68.902344 82.179688 73.070312 82.265625 77.25 81.910156 C 78.738281 80.335938 79.90625 78.578125 80.75 76.632812 C 80.675781 77.160156 80.757812 77.664062 81 78.140625 C 81.054688 76.660156 81.804688 75.988281 83.25 76.128906 Z M 83.25 76.128906 "/>
<path style=" stroke:none;fill-rule:evenodd;fill:rgb(96.470588%,71.372549%,27.843137%);fill-opacity:1;" d="M 71.25 88.695312 C 72.367188 88.546875 73.367188 88.714844 74.25 89.195312 C 73.574219 90.972656 72.574219 92.5625 71.25 93.96875 C 69.753906 94.394531 69.089844 93.808594 69.25 92.210938 C 70.769531 91.589844 71.4375 90.417969 71.25 88.695312 Z M 71.25 88.695312 "/>
<use xlink:href="#surface17" mask="url(#mask4)"/>
</g>
</svg>
