<?xml version="1.0" encoding="UTF-8"?>
<svg xmlns="http://www.w3.org/2000/svg" xmlns:xlink="http://www.w3.org/1999/xlink" width="px" height="px" viewBox="0 0 100 99" version="1.1">
<defs>
<filter id="alpha" filterUnits="objectBoundingBox" x="0%" y="0%" width="100%" height="100%">
  <feColorMatrix type="matrix" in="SourceGraphic" values="0 0 0 0 1 0 0 0 0 1 0 0 0 0 1 0 0 0 1 0"/>
</filter>
<mask id="mask0">
  <g filter="url(#alpha)">
<rect x="0" y="0" width="100" height="99" style="fill:rgb(0%,0%,0%);fill-opacity:0.968627;stroke:none;"/>
  </g>
</mask>
<clipPath id="clip1">
  <rect x="0" y="0" width="100" height="99"/>
</clipPath>
<g id="surface5" clip-path="url(#clip1)">
<path style=" stroke:none;fill-rule:evenodd;fill:rgb(2.352941%,3.921569%,5.490196%);fill-opacity:1;" d="M 79.75 80.839844 C 79.476562 80.8125 79.3125 80.644531 79.25 80.34375 C 80.058594 78.898438 80.726562 77.40625 81.25 75.867188 C 81.785156 74.144531 82.285156 72.40625 82.75 70.644531 C 82.359375 69.351562 81.691406 68.273438 80.75 67.410156 C 81.082031 65.242188 82.414062 64.246094 84.75 64.425781 C 84.425781 54.957031 84.425781 45.503906 84.75 36.066406 C 84.792969 35.574219 84.625 35.15625 84.25 34.824219 C 82.863281 34.792969 81.777344 34.210938 81 33.082031 C 81.332031 30.761719 81.667969 28.441406 82 26.117188 C 80.375 21.09375 76.957031 18.441406 71.75 18.160156 C 68.761719 18.527344 65.761719 18.691406 62.75 18.65625 C 55.785156 16.296875 48.949219 16.710938 42.25 19.898438 C 40.835938 20.894531 39.5 21.972656 38.25 23.132812 C 38.082031 22.46875 37.917969 21.804688 37.75 21.144531 C 40.363281 18.097656 43.699219 16.191406 47.75 15.421875 C 49.742188 15.175781 51.742188 15.089844 53.75 15.171875 C 54.800781 15.320312 55.800781 15.15625 56.75 14.675781 C 55.9375 13.996094 55.6875 13.164062 56 12.1875 C 56.867188 10.328125 58.117188 8.75 59.75 7.460938 C 55.511719 4.847656 51.011719 4.101562 46.25 5.222656 C 45.582031 5.222656 44.917969 5.222656 44.25 5.222656 C 44.542969 3.851562 44.042969 3.019531 42.75 2.734375 C 40.570312 3.496094 38.570312 4.574219 36.75 5.96875 C 34.730469 6.050781 32.730469 5.800781 30.75 5.222656 C 29.894531 5.335938 29.0625 5.503906 28.25 5.722656 C 27.480469 5.390625 26.644531 5.058594 25.75 4.726562 C 25.929688 4.386719 26.097656 4.054688 26.25 3.730469 C 29.320312 2.421875 32.402344 2.421875 35.5 3.730469 C 37.796875 1.96875 40.378906 0.808594 43.25 0.25 C 44.636719 0.191406 45.636719 0.773438 46.25 1.988281 C 52.03125 1.632812 57.28125 3.039062 62 6.21875 C 69.789062 4.703125 74.289062 7.855469 75.5 15.671875 C 77.589844 16.421875 79.425781 17.585938 81 19.152344 C 82.675781 21.496094 84.09375 23.984375 85.25 26.617188 C 90.199219 25.296875 92.949219 27.121094 93.5 32.089844 C 94.585938 32.628906 95.585938 33.292969 96.5 34.078125 C 96.960938 36.253906 97.460938 38.40625 98 40.546875 C 98.484375 42.34375 98.234375 44.003906 97.25 45.519531 C 99.152344 47.914062 99.152344 50.320312 97.25 52.734375 C 98.253906 54.148438 98.503906 55.722656 98 57.460938 C 97.460938 59.597656 96.960938 61.753906 96.5 63.925781 C 95.65625 64.847656 94.742188 65.675781 93.75 66.414062 C 93.835938 68.824219 92.835938 70.566406 90.75 71.636719 C 88.757812 71.886719 86.757812 71.96875 84.75 71.886719 C 84.144531 75.46875 82.480469 78.453125 79.75 80.839844 Z M 79.75 80.839844 "/>
</g>
<mask id="mask1">
  <g filter="url(#alpha)">
<rect x="0" y="0" width="100" height="99" style="fill:rgb(0%,0%,0%);fill-opacity:0.992157;stroke:none;"/>
  </g>
</mask>
<clipPath id="clip2">
  <rect x="0" y="0" width="100" height="99"/>
</clipPath>
<g id="surface8" clip-path="url(#clip2)">
<path style=" stroke:none;fill-rule:evenodd;fill:rgb(4.313725%,5.490196%,6.27451%);fill-opacity:1;" d="M 26.25 3.730469 C 26.097656 4.054688 25.929688 4.386719 25.75 4.726562 C 26.644531 5.058594 27.480469 5.390625 28.25 5.722656 C 24.839844 8.121094 22.339844 11.273438 20.75 15.171875 C 20.4375 12.980469 20.019531 10.824219 19.5 8.707031 C 18 9.617188 16.75 10.777344 15.75 12.1875 C 11.984375 16.625 9.984375 21.765625 9.75 27.609375 C 8.964844 26.199219 8.378906 24.375 8 22.136719 C 7.425781 21.660156 6.925781 21.828125 6.5 22.636719 C 4.632812 26.578125 3.46875 30.726562 3 35.074219 C 1.757812 45.941406 2.175781 56.71875 4.25 67.410156 C 3.84375 67.871094 3.425781 68.371094 3 68.902344 C 2.613281 68.355469 2.199219 68.355469 1.75 68.902344 C 1.03125 66.09375 0.363281 63.273438 -0.25 60.445312 C -0.25 60.277344 -0.25 60.113281 -0.25 59.945312 C 0.417969 59.617188 0.417969 59.285156 -0.25 58.953125 C -0.25 52.152344 -0.25 45.355469 -0.25 38.554688 C 0.417969 38.222656 0.417969 37.890625 -0.25 37.558594 C -0.25 36.898438 -0.25 36.234375 -0.25 35.570312 C 0.304688 31.421875 1.472656 27.441406 3.25 23.628906 C 4.148438 22.1875 5.0625 20.695312 6 19.152344 C 6.984375 18.1875 8.070312 18.019531 9.25 18.65625 C 9.691406 18.246094 9.859375 17.746094 9.75 17.164062 C 11.730469 12.953125 14.5625 9.386719 18.25 6.46875 C 19.324219 5.765625 20.492188 5.351562 21.75 5.222656 C 21.992188 5.707031 22.242188 6.207031 22.5 6.714844 C 23.308594 5.851562 24.058594 4.9375 24.75 3.980469 C 25.222656 3.738281 25.722656 3.65625 26.25 3.730469 Z M 26.25 3.730469 "/>
</g>
<mask id="mask2">
  <g filter="url(#alpha)">
<rect x="0" y="0" width="100" height="99" style="fill:rgb(0%,0%,0%);fill-opacity:0.133333;stroke:none;"/>
  </g>
</mask>
<clipPath id="clip3">
  <rect x="0" y="0" width="100" height="99"/>
</clipPath>
<g id="surface11" clip-path="url(#clip3)">
<path style=" stroke:none;fill-rule:evenodd;fill:rgb(14.901961%,21.568627%,26.666667%);fill-opacity:1;" d="M 40.75 -0.25 C 42.25 -0.25 43.75 -0.25 45.25 -0.25 C 46.066406 0.53125 46.980469 1.195312 48 1.742188 C 53.269531 0.832031 58.019531 1.996094 62.25 5.222656 C 69.820312 4.035156 74.570312 7.1875 76.5 14.675781 C 80.582031 16.996094 83.5 20.3125 85.25 24.625 C 90.097656 24.417969 93.183594 26.570312 94.5 31.09375 C 95.851562 32.273438 97.019531 33.597656 98 35.074219 C 98.214844 37.613281 98.628906 40.097656 99.25 42.535156 C 99.214844 43.558594 99.046875 44.554688 98.75 45.519531 C 98.972656 46.136719 99.304688 46.632812 99.75 47.011719 C 99.75 48.339844 99.75 49.664062 99.75 50.992188 C 98.890625 52.265625 98.722656 53.757812 99.25 55.46875 C 98.84375 58.714844 98.09375 61.867188 97 64.921875 C 96.226562 65.855469 95.3125 66.601562 94.25 67.160156 C 94.835938 68.089844 94.753906 69.003906 94 69.898438 C 91.84375 72.355469 89.09375 73.515625 85.75 73.378906 C 84.210938 77.894531 81.378906 81.378906 77.25 83.828125 C 74.757812 91.617188 69.421875 95.019531 61.25 94.023438 C 58.214844 96.496094 54.714844 97.742188 50.75 97.757812 C 49.652344 97.621094 48.820312 97.125 48.25 96.265625 C 53.558594 97.042969 58.226562 95.71875 62.25 92.285156 C 69.792969 93.875 74.378906 90.890625 76 83.328125 C 77.410156 82.671875 78.660156 81.84375 79.75 80.839844 C 82.480469 78.453125 84.144531 75.46875 84.75 71.886719 C 86.757812 71.96875 88.757812 71.886719 90.75 71.636719 C 92.835938 70.566406 93.835938 68.824219 93.75 66.414062 C 94.742188 65.675781 95.65625 64.847656 96.5 63.925781 C 96.960938 61.753906 97.460938 59.597656 98 57.460938 C 98.503906 55.722656 98.253906 54.148438 97.25 52.734375 C 99.152344 50.320312 99.152344 47.914062 97.25 45.519531 C 98.234375 44.003906 98.484375 42.34375 98 40.546875 C 97.460938 38.40625 96.960938 36.253906 96.5 34.078125 C 95.585938 33.292969 94.585938 32.628906 93.5 32.089844 C 92.949219 27.121094 90.199219 25.296875 85.25 26.617188 C 84.09375 23.984375 82.675781 21.496094 81 19.152344 C 79.425781 17.585938 77.589844 16.421875 75.5 15.671875 C 74.289062 7.855469 69.789062 4.703125 62 6.21875 C 57.28125 3.039062 52.03125 1.632812 46.25 1.988281 C 45.636719 0.773438 44.636719 0.191406 43.25 0.25 C 40.378906 0.808594 37.796875 1.96875 35.5 3.730469 C 32.402344 2.421875 29.320312 2.421875 26.25 3.730469 C 27.457031 2.558594 28.957031 2.058594 30.75 2.238281 C 32.421875 2.230469 34.003906 2.5625 35.5 3.234375 C 37.152344 1.875 38.902344 0.714844 40.75 -0.25 Z M 40.75 -0.25 "/>
</g>
<mask id="mask3">
  <g filter="url(#alpha)">
<rect x="0" y="0" width="100" height="99" style="fill:rgb(0%,0%,0%);fill-opacity:0.160784;stroke:none;"/>
  </g>
</mask>
<clipPath id="clip4">
  <rect x="0" y="0" width="100" height="99"/>
</clipPath>
<g id="surface14" clip-path="url(#clip4)">
<path style=" stroke:none;fill-rule:evenodd;fill:rgb(15.686275%,20.392157%,25.490196%);fill-opacity:1;" d="M 21.75 5.222656 C 20.492188 5.351562 19.324219 5.765625 18.25 6.46875 C 14.5625 9.386719 11.730469 12.953125 9.75 17.164062 C 11.121094 12.558594 13.785156 8.828125 17.75 5.96875 C 19.039062 4.894531 20.375 4.648438 21.75 5.222656 Z M 21.75 5.222656 "/>
</g>
<mask id="mask4">
  <g filter="url(#alpha)">
<rect x="0" y="0" width="100" height="99" style="fill:rgb(0%,0%,0%);fill-opacity:0.215686;stroke:none;"/>
  </g>
</mask>
<clipPath id="clip5">
  <rect x="0" y="0" width="100" height="99"/>
</clipPath>
<g id="surface17" clip-path="url(#clip5)">
<path style=" stroke:none;fill-rule:evenodd;fill:rgb(15.294118%,19.215686%,22.745098%);fill-opacity:1;" d="M 9.75 17.164062 C 9.859375 17.746094 9.691406 18.246094 9.25 18.65625 C 8.070312 18.019531 6.984375 18.1875 6 19.152344 C 5.0625 20.695312 4.148438 22.1875 3.25 23.628906 C 3.59375 19.640625 5.757812 17.488281 9.75 17.164062 Z M 9.75 17.164062 "/>
</g>
<mask id="mask5">
  <g filter="url(#alpha)">
<rect x="0" y="0" width="100" height="99" style="fill:rgb(0%,0%,0%);fill-opacity:0.984314;stroke:none;"/>
  </g>
</mask>
<clipPath id="clip6">
  <rect x="0" y="0" width="100" height="99"/>
</clipPath>
<g id="surface20" clip-path="url(#clip6)">
<path style=" stroke:none;fill-rule:evenodd;fill:rgb(3.529412%,5.098039%,7.058824%);fill-opacity:1;" d="M 37.75 21.144531 C 37.917969 21.804688 38.082031 22.46875 38.25 23.132812 C 36.40625 25.144531 35.070312 27.464844 34.25 30.097656 C 33.4375 31.269531 32.851562 32.597656 32.5 34.078125 C 32.085938 43.617188 32.167969 53.066406 32.75 62.433594 C 32.910156 65.644531 33.824219 68.628906 35.5 71.390625 C 42.429688 80.761719 51.511719 83.75 62.75 80.34375 C 67.171875 80.597656 71.507812 80.597656 75.75 80.34375 C 76.277344 80.417969 76.777344 80.335938 77.25 80.09375 C 78.699219 78.738281 80.03125 77.328125 81.25 75.867188 C 80.726562 77.40625 80.058594 78.898438 79.25 80.34375 C 79.3125 80.644531 79.476562 80.8125 79.75 80.839844 C 78.660156 81.84375 77.410156 82.671875 76 83.328125 C 74.378906 90.890625 69.792969 93.875 62.25 92.285156 C 58.226562 95.71875 53.558594 97.042969 48.25 96.265625 C 47.917969 96.59375 47.582031 96.925781 47.25 97.257812 C 46.289062 97.644531 45.375 97.8125 44.5 97.757812 C 44.125 97.445312 43.707031 97.195312 43.25 97.011719 C 44.058594 96.894531 44.558594 96.476562 44.75 95.765625 C 45.144531 94.867188 45.144531 93.871094 44.75 92.78125 C 45.480469 92.75 46.144531 92.914062 46.75 93.277344 C 51.035156 94.242188 55.203125 93.746094 59.25 91.785156 C 59.761719 91.535156 59.84375 91.207031 59.5 90.792969 C 58.027344 89.660156 56.941406 88.25 56.25 86.5625 C 56.488281 85.6875 56.820312 84.855469 57.25 84.074219 C 51.347656 84.140625 45.847656 82.730469 40.75 79.847656 C 33.839844 74.890625 30.171875 68.089844 29.75 59.449219 C 29.164062 59.558594 28.664062 59.394531 28.25 58.953125 C 28.765625 58.355469 29.183594 57.691406 29.5 56.960938 C 29.632812 49.160156 29.882812 41.367188 30.25 33.582031 C 31.011719 32.390625 31.511719 31.066406 31.75 29.601562 C 33.140625 26.328125 35.140625 23.507812 37.75 21.144531 Z M 37.75 21.144531 "/>
</g>
<mask id="mask6">
  <g filter="url(#alpha)">
<rect x="0" y="0" width="100" height="99" style="fill:rgb(0%,0%,0%);fill-opacity:0.980392;stroke:none;"/>
  </g>
</mask>
<clipPath id="clip7">
  <rect x="0" y="0" width="100" height="99"/>
</clipPath>
<g id="surface23" clip-path="url(#clip7)">
<path style=" stroke:none;fill-rule:evenodd;fill:rgb(5.490196%,6.666667%,7.45098%);fill-opacity:1;" d="M 4.25 67.410156 C 4.898438 71.003906 6.230469 74.320312 8.25 77.359375 C 9.050781 75.804688 9.632812 74.144531 10 72.382812 C 11.328125 79.179688 14.578125 84.816406 19.75 89.300781 C 19.890625 89.691406 20.140625 90.023438 20.5 90.292969 C 20.957031 88.15625 21.289062 86 21.5 83.828125 C 21.640625 84.28125 21.890625 84.613281 22.25 84.820312 C 22.953125 87.429688 24.203125 89.75 26 91.785156 C 27.664062 93.734375 29.746094 94.480469 32.25 94.023438 C 33.46875 93.375 34.71875 92.796875 36 92.285156 C 37.949219 93.296875 39.867188 94.375 41.75 95.519531 C 42.738281 95.765625 43.738281 95.847656 44.75 95.765625 C 44.558594 96.476562 44.058594 96.894531 43.25 97.011719 C 43.707031 97.195312 44.125 97.445312 44.5 97.757812 C 45.375 97.8125 46.289062 97.644531 47.25 97.257812 C 47.25 97.757812 47.25 98.253906 47.25 98.75 C 45.25 98.75 43.25 98.75 41.25 98.75 C 39.65625 97.832031 38.074219 96.835938 36.5 95.765625 C 31.1875 98.476562 26.6875 97.480469 23 92.78125 C 22.066406 94.570312 20.816406 94.734375 19.25 93.277344 C 17.230469 91.519531 15.3125 89.695312 13.5 87.804688 C 12.5 85.816406 11.5 83.828125 10.5 81.835938 C 7.277344 80.957031 4.945312 78.96875 3.5 75.867188 C 2.757812 73.574219 2.175781 71.253906 1.75 68.902344 C 2.199219 68.355469 2.613281 68.355469 3 68.902344 C 3.425781 68.371094 3.84375 67.871094 4.25 67.410156 Z M 4.25 67.410156 "/>
</g>
</defs>
<g id="surface1">
<use xlink:href="#surface5" mask="url(#mask0)"/>
<path style=" stroke:none;fill-rule:evenodd;fill:rgb(63.921569%,74.117647%,79.215686%);fill-opacity:1;" d="M 46.25 5.222656 C 46.503906 5.640625 46.171875 5.890625 45.25 5.96875 C 48.203125 6.484375 50.785156 7.730469 53 9.699219 C 53.246094 10.34375 53.328125 11.007812 53.25 11.691406 C 51.292969 11.882812 49.460938 11.550781 47.75 10.695312 C 46.972656 10.132812 46.054688 9.800781 45 9.699219 C 43.683594 10.355469 42.515625 11.183594 41.5 12.1875 C 40.601562 11.78125 39.683594 11.449219 38.75 11.195312 C 38.71875 10.921875 38.554688 10.757812 38.25 10.695312 C 37.015625 13.96875 35.097656 14.464844 32.5 12.1875 C 32.410156 13.175781 32.492188 14.171875 32.75 15.171875 C 30.636719 14.648438 28.554688 14.648438 26.5 15.171875 C 26.167969 15.835938 26.167969 16.5 26.5 17.164062 C 28.535156 19.054688 29.617188 21.375 29.75 24.128906 C 29.832031 25.136719 29.746094 26.132812 29.5 27.113281 C 29.164062 27.488281 28.746094 27.652344 28.25 27.609375 C 26.253906 26.453125 24.085938 25.875 21.75 25.871094 C 21.25 28.273438 21.25 30.597656 21.75 32.835938 C 21.679688 33.480469 21.347656 33.894531 20.75 34.078125 C 20.46875 29.085938 18.800781 24.609375 15.75 20.644531 C 15.832031 20.480469 15.917969 20.3125 16 20.148438 C 17.472656 21.003906 19.054688 21.503906 20.75 21.640625 C 20.769531 19.945312 20.519531 18.285156 20 16.664062 C 19.167969 15.339844 18.332031 14.011719 17.5 12.6875 C 16.996094 12.269531 16.410156 12.105469 15.75 12.1875 C 16.75 10.777344 18 9.617188 19.5 8.707031 C 20.019531 10.824219 20.4375 12.980469 20.75 15.171875 C 22.339844 11.273438 24.839844 8.121094 28.25 5.722656 C 29.0625 5.503906 29.894531 5.335938 30.75 5.222656 C 32.730469 5.800781 34.730469 6.050781 36.75 5.96875 C 38.570312 4.574219 40.570312 3.496094 42.75 2.734375 C 44.042969 3.019531 44.542969 3.851562 44.25 5.222656 C 44.917969 5.222656 45.582031 5.222656 46.25 5.222656 Z M 46.25 5.222656 "/>
<path style=" stroke:none;fill-rule:evenodd;fill:rgb(38.039216%,49.803922%,56.078431%);fill-opacity:1;" d="M 46.25 5.222656 C 51.011719 4.101562 55.511719 4.847656 59.75 7.460938 C 58.117188 8.75 56.867188 10.328125 56 12.1875 C 55.6875 13.164062 55.9375 13.996094 56.75 14.675781 C 55.800781 15.15625 54.800781 15.320312 53.75 15.171875 C 52.4375 14.511719 51.269531 13.597656 50.25 12.4375 C 49.78125 12.09375 49.449219 12.175781 49.25 12.6875 C 48.1875 12.167969 47.6875 11.507812 47.75 10.695312 C 49.460938 11.550781 51.292969 11.882812 53.25 11.691406 C 53.328125 11.007812 53.246094 10.34375 53 9.699219 C 50.785156 7.730469 48.203125 6.484375 45.25 5.96875 C 46.171875 5.890625 46.503906 5.640625 46.25 5.222656 Z M 46.25 5.222656 "/>
<use xlink:href="#surface8" mask="url(#mask1)"/>
<path style=" stroke:none;fill-rule:evenodd;fill:rgb(1.960784%,50.588235%,67.058824%);fill-opacity:1;" d="M 69.25 15.171875 C 66.078125 13.652344 62.746094 13.324219 59.25 14.179688 C 57.441406 13.5625 57.273438 12.570312 58.75 11.195312 C 63.316406 7.117188 67.730469 7.285156 72 11.691406 C 72.601562 12.773438 72.851562 13.933594 72.75 15.171875 C 71.582031 15.171875 70.417969 15.171875 69.25 15.171875 Z M 69.25 15.171875 "/>
<use xlink:href="#surface11" mask="url(#mask2)"/>
<use xlink:href="#surface14" mask="url(#mask3)"/>
<path style=" stroke:none;fill-rule:evenodd;fill:rgb(49.411765%,60.392157%,66.27451%);fill-opacity:1;" d="M 47.75 10.695312 C 47.6875 11.507812 48.1875 12.167969 49.25 12.6875 C 49.570312 13.175781 49.902344 13.671875 50.25 14.179688 C 47.480469 14.621094 44.8125 14.621094 42.25 14.179688 C 41.722656 17.265625 39.886719 18.34375 36.75 17.410156 C 36.292969 17.273438 35.957031 17.023438 35.75 16.664062 C 37.417969 15.953125 39.167969 15.289062 41 14.675781 C 41.332031 14.179688 41.332031 13.679688 41 13.183594 C 40.167969 12.570312 39.417969 11.90625 38.75 11.195312 C 39.683594 11.449219 40.601562 11.78125 41.5 12.1875 C 42.515625 11.183594 43.683594 10.355469 45 9.699219 C 46.054688 9.800781 46.972656 10.132812 47.75 10.695312 Z M 47.75 10.695312 "/>
<path style=" stroke:none;fill-rule:evenodd;fill:rgb(1.176471%,32.54902%,47.45098%);fill-opacity:1;" d="M 69.25 15.171875 C 65.675781 16.695312 62.34375 16.363281 59.25 14.179688 C 62.746094 13.324219 66.078125 13.652344 69.25 15.171875 Z M 69.25 15.171875 "/>
<path style=" stroke:none;fill-rule:evenodd;fill:rgb(54.901961%,66.666667%,71.764706%);fill-opacity:1;" d="M 38.75 11.195312 C 39.417969 11.90625 40.167969 12.570312 41 13.183594 C 41.332031 13.679688 41.332031 14.179688 41 14.675781 C 39.167969 15.289062 37.417969 15.953125 35.75 16.664062 C 35.25 16.664062 34.75 16.664062 34.25 16.664062 C 34.519531 18.257812 34.183594 19.582031 33.25 20.644531 C 32.511719 20.324219 31.761719 20.15625 31 20.148438 C 30.46875 21.472656 30.054688 22.800781 29.75 24.128906 C 29.617188 21.375 28.535156 19.054688 26.5 17.164062 C 26.167969 16.5 26.167969 15.835938 26.5 15.171875 C 28.554688 14.648438 30.636719 14.648438 32.75 15.171875 C 32.492188 14.171875 32.410156 13.175781 32.5 12.1875 C 35.097656 14.464844 37.015625 13.96875 38.25 10.695312 C 38.554688 10.757812 38.71875 10.921875 38.75 11.195312 Z M 38.75 11.195312 "/>
<path style=" stroke:none;fill-rule:evenodd;fill:rgb(1.176471%,49.411765%,67.058824%);fill-opacity:1;" d="M 62.75 18.65625 C 62.75 19.152344 62.75 19.652344 62.75 20.148438 C 67 19.738281 70.832031 20.730469 74.25 23.132812 C 78.183594 32.960938 75.351562 40.011719 65.75 44.277344 C 64.019531 44.503906 62.351562 44.257812 60.75 43.53125 C 58.265625 41.308594 55.851562 38.988281 53.5 36.566406 C 52.484375 35.042969 51.898438 33.382812 51.75 31.589844 C 51.789062 28.78125 52.457031 26.125 53.75 23.628906 C 53.082031 22.210938 51.917969 21.382812 50.25 21.144531 C 44.386719 22.34375 39.71875 25.328125 36.25 30.097656 C 35.6875 30.476562 35.101562 30.808594 34.5 31.09375 C 34.269531 30.796875 34.183594 30.464844 34.25 30.097656 C 35.070312 27.464844 36.40625 25.144531 38.25 23.132812 C 39.5 21.972656 40.835938 20.894531 42.25 19.898438 C 48.949219 16.710938 55.785156 16.296875 62.75 18.65625 Z M 62.75 18.65625 "/>
<path style=" stroke:none;fill-rule:evenodd;fill:rgb(32.54902%,39.607843%,44.313725%);fill-opacity:1;" d="M 53.75 15.171875 C 51.742188 15.089844 49.742188 15.175781 47.75 15.421875 C 43.699219 16.191406 40.363281 18.097656 37.75 21.144531 C 35.140625 23.507812 33.140625 26.328125 31.75 29.601562 C 31.417969 29.765625 31.082031 29.933594 30.75 30.097656 C 31.289062 26.4375 32.121094 23.285156 33.25 20.644531 C 34.183594 19.582031 34.519531 18.257812 34.25 16.664062 C 34.75 16.664062 35.25 16.664062 35.75 16.664062 C 35.957031 17.023438 36.292969 17.273438 36.75 17.410156 C 39.886719 18.34375 41.722656 17.265625 42.25 14.179688 C 44.8125 14.621094 47.480469 14.621094 50.25 14.179688 C 49.902344 13.671875 49.570312 13.175781 49.25 12.6875 C 49.449219 12.175781 49.78125 12.09375 50.25 12.4375 C 51.269531 13.597656 52.4375 14.511719 53.75 15.171875 Z M 53.75 15.171875 "/>
<use xlink:href="#surface17" mask="url(#mask4)"/>
<path style=" stroke:none;fill-rule:evenodd;fill:rgb(0.392157%,0.784314%,1.960784%);fill-opacity:1;" d="M 69.75 23.132812 C 74.632812 26.917969 75.546875 31.5625 72.5 37.0625 C 69.257812 39.855469 65.507812 40.769531 61.25 39.800781 C 55.078125 36.339844 53.578125 31.445312 56.75 25.125 C 60.609375 21.914062 64.941406 21.25 69.75 23.132812 Z M 69.75 23.132812 "/>
<path style=" stroke:none;fill-rule:evenodd;fill:rgb(90.980392%,94.117647%,95.294118%);fill-opacity:1;" d="M 15.75 12.1875 C 16.410156 12.105469 16.996094 12.269531 17.5 12.6875 C 18.332031 14.011719 19.167969 15.339844 20 16.664062 C 20.519531 18.285156 20.769531 19.945312 20.75 21.640625 C 19.054688 21.503906 17.472656 21.003906 16 20.148438 C 15.917969 20.3125 15.832031 20.480469 15.75 20.644531 C 18.800781 24.609375 20.46875 29.085938 20.75 34.078125 C 20.035156 35.042969 19.199219 35.953125 18.25 36.8125 C 16.152344 37.9375 14.152344 39.183594 12.25 40.546875 C 11.0625 37.914062 10.0625 35.175781 9.25 32.335938 C 10.058594 31.523438 10.722656 30.609375 11.25 29.601562 C 11.125 28.648438 10.625 27.984375 9.75 27.609375 C 9.984375 21.765625 11.984375 16.625 15.75 12.1875 Z M 15.75 12.1875 "/>
<path style=" stroke:none;fill-rule:evenodd;fill:rgb(0%,36.078431%,50.588235%);fill-opacity:1;" d="M 69.75 23.132812 C 64.941406 21.25 60.609375 21.914062 56.75 25.125 C 56.925781 22.707031 58.261719 21.296875 60.75 20.894531 C 62.582031 20.5625 64.417969 20.5625 66.25 20.894531 C 65.082031 21.058594 63.917969 21.226562 62.75 21.390625 C 64.933594 21.476562 67.101562 21.726562 69.25 22.136719 C 69.429688 22.476562 69.597656 22.808594 69.75 23.132812 Z M 69.75 23.132812 "/>
<path style=" stroke:none;fill-rule:evenodd;fill:rgb(42.352941%,50.980392%,56.078431%);fill-opacity:1;" d="M 33.25 20.644531 C 32.121094 23.285156 31.289062 26.4375 30.75 30.097656 C 29.496094 30.792969 28.328125 30.628906 27.25 29.601562 C 27.800781 29.050781 28.132812 28.386719 28.25 27.609375 C 28.746094 27.652344 29.164062 27.488281 29.5 27.113281 C 29.746094 26.132812 29.832031 25.136719 29.75 24.128906 C 30.054688 22.800781 30.46875 21.472656 31 20.148438 C 31.761719 20.15625 32.511719 20.324219 33.25 20.644531 Z M 33.25 20.644531 "/>
<path style=" stroke:none;fill-rule:evenodd;fill:rgb(0%,60.784314%,76.862745%);fill-opacity:1;" d="M 51.75 31.589844 C 51.273438 30.882812 51.109375 30.054688 51.25 29.101562 C 42.972656 29.363281 37.390625 33.34375 34.5 41.042969 C 34.25 42.359375 34.167969 43.6875 34.25 45.023438 C 33.785156 50.757812 33.285156 56.5625 32.75 62.433594 C 32.167969 53.066406 32.085938 43.617188 32.5 34.078125 C 32.851562 32.597656 33.4375 31.269531 34.25 30.097656 C 34.183594 30.464844 34.269531 30.796875 34.5 31.09375 C 35.101562 30.808594 35.6875 30.476562 36.25 30.097656 C 39.71875 25.328125 44.386719 22.34375 50.25 21.144531 C 51.917969 21.382812 53.082031 22.210938 53.75 23.628906 C 52.457031 26.125 51.789062 28.78125 51.75 31.589844 Z M 51.75 31.589844 "/>
<path style=" stroke:none;fill-rule:evenodd;fill:rgb(96.862745%,97.647059%,97.647059%);fill-opacity:1;" d="M 9.75 27.609375 C 10.625 27.984375 11.125 28.648438 11.25 29.601562 C 10.722656 30.609375 10.058594 31.523438 9.25 32.335938 C 10.0625 35.175781 11.0625 37.914062 12.25 40.546875 C 11.75 40.710938 11.417969 41.042969 11.25 41.539062 C 9.6875 41.722656 8.1875 42.136719 6.75 42.785156 C 7.222656 43.023438 7.722656 43.105469 8.25 43.03125 C 8.804688 43.425781 9.472656 43.675781 10.25 43.777344 C 7.644531 44.382812 6.726562 45.957031 7.5 48.503906 C 8.769531 50.003906 10.183594 51.332031 11.75 52.484375 C 13.183594 53.683594 14.851562 54.515625 16.75 54.972656 C 16.476562 55.5625 16.308594 56.144531 16.25 56.714844 C 13.515625 57.136719 10.847656 56.886719 8.25 55.96875 C 8.082031 56.132812 7.917969 56.300781 7.75 56.464844 C 9.617188 58.242188 11.203125 60.230469 12.5 62.433594 C 12.667969 65.085938 12.832031 67.742188 13 70.394531 C 14.667969 71.058594 16.332031 71.722656 18 72.382812 C 18.46875 75.195312 19.386719 77.847656 20.75 80.34375 C 20.300781 83.078125 19.964844 86.066406 19.75 89.300781 C 14.578125 84.816406 11.328125 79.179688 10 72.382812 C 9.632812 74.144531 9.050781 75.804688 8.25 77.359375 C 6.230469 74.320312 4.898438 71.003906 4.25 67.410156 C 2.175781 56.71875 1.757812 45.941406 3 35.074219 C 3.46875 30.726562 4.632812 26.578125 6.5 22.636719 C 6.925781 21.828125 7.425781 21.660156 8 22.136719 C 8.378906 24.375 8.964844 26.199219 9.75 27.609375 Z M 9.75 27.609375 "/>
<path style=" stroke:none;fill-rule:evenodd;fill:rgb(2.745098%,55.686275%,71.764706%);fill-opacity:1;" d="M 84.75 36.066406 C 84.269531 36.292969 83.855469 36.625 83.5 37.0625 C 81.617188 36.378906 80.117188 35.214844 79 33.582031 C 78.832031 30.761719 78.667969 27.941406 78.5 25.125 C 77.816406 23.699219 76.734375 22.703125 75.25 22.136719 C 74.738281 22.316406 74.40625 22.648438 74.25 23.132812 C 70.832031 20.730469 67 19.738281 62.75 20.148438 C 62.75 19.652344 62.75 19.152344 62.75 18.65625 C 65.761719 18.691406 68.761719 18.527344 71.75 18.160156 C 76.957031 18.441406 80.375 21.09375 82 26.117188 C 81.667969 28.441406 81.332031 30.761719 81 33.082031 C 81.777344 34.210938 82.863281 34.792969 84.25 34.824219 C 84.625 35.15625 84.792969 35.574219 84.75 36.066406 Z M 84.75 36.066406 "/>
<path style=" stroke:none;fill-rule:evenodd;fill:rgb(56.862745%,67.843137%,73.333333%);fill-opacity:1;" d="M 28.25 27.609375 C 28.132812 28.386719 27.800781 29.050781 27.25 29.601562 C 27.851562 31.316406 27.769531 32.972656 27 34.574219 C 25.785156 35.046875 24.535156 35.046875 23.25 34.574219 C 23.28125 36.589844 22.445312 38.164062 20.75 39.300781 C 18.550781 40.480469 16.21875 41.226562 13.75 41.539062 C 12.917969 41.539062 12.082031 41.539062 11.25 41.539062 C 11.417969 41.042969 11.75 40.710938 12.25 40.546875 C 14.152344 39.183594 16.152344 37.9375 18.25 36.8125 C 19.199219 35.953125 20.035156 35.042969 20.75 34.078125 C 21.347656 33.894531 21.679688 33.480469 21.75 32.835938 C 21.25 30.597656 21.25 28.273438 21.75 25.871094 C 24.085938 25.875 26.253906 26.453125 28.25 27.609375 Z M 28.25 27.609375 "/>
<path style=" stroke:none;fill-rule:evenodd;fill:rgb(9.019608%,57.647059%,70.980392%);fill-opacity:1;" d="M 84.75 28.605469 C 86.789062 28.527344 88.789062 28.777344 90.75 29.351562 C 91.417969 30.015625 91.417969 30.679688 90.75 31.339844 C 88.378906 32.554688 85.878906 33.050781 83.25 32.835938 C 82.421875 32.472656 82.171875 31.894531 82.5 31.09375 C 83.351562 30.328125 84.101562 29.5 84.75 28.605469 Z M 84.75 28.605469 "/>
<path style=" stroke:none;fill-rule:evenodd;fill:rgb(16.470588%,80.392157%,91.372549%);fill-opacity:1;" d="M 51.75 31.589844 C 51.898438 33.382812 52.484375 35.042969 53.5 36.566406 C 55.851562 38.988281 58.265625 41.308594 60.75 43.53125 C 60.765625 44.027344 60.515625 44.359375 60 44.523438 C 59.351562 44.050781 58.765625 44.050781 58.25 44.523438 C 58.660156 45.328125 59.328125 45.660156 60.25 45.519531 C 60.390625 46.957031 59.722656 47.703125 58.25 47.757812 C 58.628906 48.820312 59.292969 49.648438 60.25 50.246094 C 59.9375 50.621094 59.6875 51.035156 59.5 51.488281 C 59.289062 50.90625 58.957031 50.410156 58.5 49.996094 C 57.761719 49.8125 57.011719 50.0625 56.25 50.742188 C 57.082031 50.910156 57.917969 51.074219 58.75 51.242188 C 58.871094 52.191406 58.871094 53.1875 58.75 54.226562 C 59.742188 54.316406 60.742188 54.234375 61.75 53.976562 C 61.671875 53.292969 61.753906 52.628906 62 51.988281 C 62.847656 52.074219 63.597656 52.324219 64.25 52.734375 C 63.917969 52.898438 63.582031 53.066406 63.25 53.230469 C 63.8125 53.355469 64.3125 53.605469 64.75 53.976562 C 63.855469 54.3125 63.019531 54.640625 62.25 54.972656 C 55.0625 57.320312 51.5625 62.296875 51.75 69.898438 C 51.816406 70.265625 51.730469 70.597656 51.5 70.890625 C 51.332031 69.898438 51.167969 68.902344 51 67.90625 C 50.917969 68.488281 50.832031 69.066406 50.75 69.648438 C 51.136719 71.382812 51.472656 73.125 51.75 74.871094 C 46.546875 75.398438 43.132812 73.242188 41.5 68.40625 C 41.339844 69.300781 41.007812 69.464844 40.5 68.902344 C 40.859375 68.203125 41.109375 67.207031 41.25 65.917969 C 39.324219 65.910156 38.40625 66.90625 38.5 68.902344 C 36.644531 65.488281 35.480469 61.839844 35 57.957031 C 34.757812 58.429688 34.675781 58.925781 34.75 59.449219 C 34.253906 54.730469 34.085938 49.921875 34.25 45.023438 C 34.167969 43.6875 34.25 42.359375 34.5 41.042969 C 37.390625 33.34375 42.972656 29.363281 51.25 29.101562 C 51.109375 30.054688 51.273438 30.882812 51.75 31.589844 Z M 51.75 31.589844 "/>
<path style=" stroke:none;fill-rule:evenodd;fill:rgb(11.764706%,14.901961%,17.254902%);fill-opacity:1;" d="M 27.25 29.601562 C 28.328125 30.628906 29.496094 30.792969 30.75 30.097656 C 31.082031 29.933594 31.417969 29.765625 31.75 29.601562 C 31.511719 31.066406 31.011719 32.390625 30.25 33.582031 C 28.613281 34.894531 26.78125 35.972656 24.75 36.8125 C 24.332031 37.316406 24.164062 37.898438 24.25 38.554688 C 23.078125 39.964844 21.578125 40.875 19.75 41.292969 C 17.113281 41.933594 14.445312 42.347656 11.75 42.535156 C 12.417969 42.203125 13.082031 41.871094 13.75 41.539062 C 16.21875 41.226562 18.550781 40.480469 20.75 39.300781 C 22.445312 38.164062 23.28125 36.589844 23.25 34.574219 C 24.535156 35.046875 25.785156 35.046875 27 34.574219 C 27.769531 32.972656 27.851562 31.316406 27.25 29.601562 Z M 27.25 29.601562 "/>
<path style=" stroke:none;fill-rule:evenodd;fill:rgb(14.509804%,71.764706%,84.313725%);fill-opacity:1;" d="M 90.75 34.078125 C 93.675781 33.839844 95.175781 35.164062 95.25 38.058594 C 93.75 38.058594 92.25 38.058594 90.75 38.058594 C 90.75 36.730469 90.75 35.40625 90.75 34.078125 Z M 90.75 34.078125 "/>
<path style=" stroke:none;fill-rule:evenodd;fill:rgb(21.176471%,81.568627%,92.54902%);fill-opacity:1;" d="M 86.25 34.078125 C 89.453125 33.535156 90.617188 34.859375 89.75 38.058594 C 88.417969 38.058594 87.082031 38.058594 85.75 38.058594 C 85.640625 36.675781 85.804688 35.347656 86.25 34.078125 Z M 86.25 34.078125 "/>
<path style=" stroke:none;fill-rule:evenodd;fill:rgb(38.823529%,45.098039%,48.235294%);fill-opacity:1;" d="M 11.25 41.539062 C 12.082031 41.539062 12.917969 41.539062 13.75 41.539062 C 13.082031 41.871094 12.417969 42.203125 11.75 42.535156 C 10.695312 43.015625 9.53125 43.183594 8.25 43.03125 C 7.722656 43.105469 7.222656 43.023438 6.75 42.785156 C 8.1875 42.136719 9.6875 41.722656 11.25 41.539062 Z M 11.25 41.539062 "/>
<path style=" stroke:none;fill-rule:evenodd;fill:rgb(9.411765%,76.862745%,88.627451%);fill-opacity:1;" d="M 90.75 40.046875 C 92.257812 39.964844 93.757812 40.046875 95.25 40.296875 C 96.582031 41.789062 96.582031 43.28125 95.25 44.773438 C 93.757812 45.023438 92.257812 45.105469 90.75 45.023438 C 90.75 43.363281 90.75 41.707031 90.75 40.046875 Z M 90.75 40.046875 "/>
<path style=" stroke:none;fill-rule:evenodd;fill:rgb(18.823529%,80.784314%,92.54902%);fill-opacity:1;" d="M 86.25 40.046875 C 87.417969 40.046875 88.582031 40.046875 89.75 40.046875 C 89.75 41.707031 89.75 43.363281 89.75 45.023438 C 88.417969 45.023438 87.082031 45.023438 85.75 45.023438 C 85.625 43.3125 85.792969 41.652344 86.25 40.046875 Z M 86.25 40.046875 "/>
<path style=" stroke:none;fill-rule:evenodd;fill:rgb(90.196078%,93.72549%,94.901961%);fill-opacity:1;" d="M 24.25 38.554688 C 24.71875 39.085938 24.882812 39.75 24.75 40.546875 C 22.910156 42.128906 20.742188 43.039062 18.25 43.28125 C 19.289062 43.378906 20.289062 43.625 21.25 44.027344 C 19.132812 47.488281 16.132812 49.894531 12.25 51.242188 C 11.875 51.574219 11.707031 51.988281 11.75 52.484375 C 10.183594 51.332031 8.769531 50.003906 7.5 48.503906 C 6.726562 45.957031 7.644531 44.382812 10.25 43.777344 C 9.472656 43.675781 8.804688 43.425781 8.25 43.03125 C 9.53125 43.183594 10.695312 43.015625 11.75 42.535156 C 14.445312 42.347656 17.113281 41.933594 19.75 41.292969 C 21.578125 40.875 23.078125 39.964844 24.25 38.554688 Z M 24.25 38.554688 "/>
<path style=" stroke:none;fill-rule:evenodd;fill:rgb(15.686275%,80.392157%,92.156863%);fill-opacity:1;" d="M 84.75 36.066406 C 84.425781 45.503906 84.425781 54.957031 84.75 64.425781 C 82.414062 64.246094 81.082031 65.242188 80.75 67.410156 C 80.402344 67.347656 79.984375 67.347656 79.5 67.410156 C 79.226562 68.84375 78.808594 70.167969 78.25 71.390625 C 77.320312 71.671875 76.488281 71.671875 75.75 71.390625 C 77.445312 63.734375 74.613281 58.511719 67.25 55.71875 C 65.636719 55.121094 63.96875 54.875 62.25 54.972656 C 63.019531 54.640625 63.855469 54.3125 64.75 53.976562 C 64.3125 53.605469 63.8125 53.355469 63.25 53.230469 C 63.582031 53.066406 63.917969 52.898438 64.25 52.734375 C 63.597656 52.324219 62.847656 52.074219 62 51.988281 C 61.753906 52.628906 61.671875 53.292969 61.75 53.976562 C 60.742188 54.234375 59.742188 54.316406 58.75 54.226562 C 58.871094 53.1875 58.871094 52.191406 58.75 51.242188 C 57.917969 51.074219 57.082031 50.910156 56.25 50.742188 C 57.011719 50.0625 57.761719 49.8125 58.5 49.996094 C 58.957031 50.410156 59.289062 50.90625 59.5 51.488281 C 59.6875 51.035156 59.9375 50.621094 60.25 50.246094 C 59.292969 49.648438 58.628906 48.820312 58.25 47.757812 C 59.722656 47.703125 60.390625 46.957031 60.25 45.519531 C 59.328125 45.660156 58.660156 45.328125 58.25 44.523438 C 58.765625 44.050781 59.351562 44.050781 60 44.523438 C 60.515625 44.359375 60.765625 44.027344 60.75 43.53125 C 62.351562 44.257812 64.019531 44.503906 65.75 44.277344 C 75.351562 40.011719 78.183594 32.960938 74.25 23.132812 C 74.40625 22.648438 74.738281 22.316406 75.25 22.136719 C 76.734375 22.703125 77.816406 23.699219 78.5 25.125 C 78.667969 27.941406 78.832031 30.761719 79 33.582031 C 80.117188 35.214844 81.617188 36.378906 83.5 37.0625 C 83.855469 36.625 84.269531 36.292969 84.75 36.066406 Z M 84.75 36.066406 "/>
<path style=" stroke:none;fill-rule:evenodd;fill:rgb(1.960784%,3.921569%,5.098039%);fill-opacity:1;" d="M 76.25 45.023438 C 80.484375 45.230469 81.148438 46.808594 78.25 49.75 C 79.425781 50.035156 79.925781 50.78125 79.75 51.988281 C 79.644531 52.730469 79.3125 53.3125 78.75 53.730469 C 74.847656 53.761719 71.511719 52.433594 68.75 49.75 C 69.050781 48.949219 69.550781 48.285156 70.25 47.757812 C 72.320312 46.882812 74.320312 45.972656 76.25 45.023438 Z M 76.25 45.023438 "/>
<path style=" stroke:none;fill-rule:evenodd;fill:rgb(9.803922%,80.784314%,90.196078%);fill-opacity:1;" d="M 91.25 47.011719 C 92.917969 47.011719 94.582031 47.011719 96.25 47.011719 C 96.386719 48.480469 96.222656 49.886719 95.75 51.242188 C 94.257812 51.488281 92.757812 51.570312 91.25 51.488281 C 91.25 49.996094 91.25 48.503906 91.25 47.011719 Z M 91.25 47.011719 "/>
<path style=" stroke:none;fill-rule:evenodd;fill:rgb(17.647059%,79.215686%,89.803922%);fill-opacity:1;" d="M 86.25 46.515625 C 87.417969 46.515625 88.582031 46.515625 89.75 46.515625 C 89.75 48.171875 89.75 49.832031 89.75 51.488281 C 85.820312 51.933594 84.652344 50.277344 86.25 46.515625 Z M 86.25 46.515625 "/>
<path style=" stroke:none;fill-rule:evenodd;fill:rgb(63.921569%,74.509804%,79.215686%);fill-opacity:1;" d="M 35.25 77.359375 C 36.402344 79.007812 37.570312 80.667969 38.75 82.335938 C 40.796875 83.519531 42.964844 84.429688 45.25 85.070312 C 46.296875 85.5 46.796875 86.078125 46.75 86.8125 C 49.203125 86.078125 51.703125 85.578125 54.25 85.320312 C 53.253906 88.386719 51.253906 90.625 48.25 92.035156 C 48.417969 92.199219 48.582031 92.367188 48.75 92.53125 C 48.050781 92.738281 47.382812 92.984375 46.75 93.277344 C 46.144531 92.914062 45.480469 92.75 44.75 92.78125 C 42.984375 87.746094 39.902344 86.917969 35.5 90.292969 C 35.574219 88.472656 36.242188 86.816406 37.5 85.320312 C 37.898438 84.445312 37.816406 83.613281 37.25 82.832031 C 35.03125 84.101562 32.699219 85.097656 30.25 85.816406 C 29.539062 85.566406 29.207031 85.066406 29.25 84.324219 C 30.710938 82.214844 31.042969 79.894531 30.25 77.359375 C 29.507812 77.847656 28.84375 78.425781 28.25 79.101562 C 27.621094 79.589844 26.953125 79.753906 26.25 79.597656 C 27.078125 78.289062 27.328125 76.878906 27 75.371094 C 25.609375 74.355469 24.109375 73.523438 22.5 72.882812 C 21.421875 69.269531 21.171875 65.621094 21.75 61.9375 C 19.597656 62.347656 17.429688 62.679688 15.25 62.933594 C 15.964844 60.308594 17.546875 58.320312 20 56.960938 C 20.242188 56.492188 20.324219 55.992188 20.25 55.46875 C 19.046875 55.496094 17.882812 55.328125 16.75 54.972656 C 14.851562 54.515625 13.183594 53.683594 11.75 52.484375 C 11.707031 51.988281 11.875 51.574219 12.25 51.242188 C 16.132812 49.894531 19.132812 47.488281 21.25 44.027344 C 20.289062 43.625 19.289062 43.378906 18.25 43.28125 C 20.742188 43.039062 22.910156 42.128906 24.75 40.546875 C 25.519531 40.148438 26.355469 39.980469 27.25 40.046875 C 27.332031 42.707031 27.25 45.359375 27 48.007812 C 25.71875 52.359375 24.636719 56.753906 23.75 61.191406 C 23.839844 62.980469 24.175781 64.722656 24.75 66.414062 C 25.902344 65.453125 26.820312 64.292969 27.5 62.933594 C 27.832031 63.265625 28.167969 63.59375 28.5 63.925781 C 29.84375 67.976562 30.761719 72.121094 31.25 76.363281 C 32.757812 76.167969 34.089844 76.5 35.25 77.359375 Z M 35.25 77.359375 "/>
<path style=" stroke:none;fill-rule:evenodd;fill:rgb(44.313725%,53.333333%,58.823529%);fill-opacity:1;" d="M 30.25 33.582031 C 29.882812 41.367188 29.632812 49.160156 29.5 56.960938 C 29.183594 57.691406 28.765625 58.355469 28.25 58.953125 C 28.664062 59.394531 29.164062 59.558594 29.75 59.449219 C 30.171875 68.089844 33.839844 74.890625 40.75 79.847656 C 40.0625 79.925781 39.398438 79.839844 38.75 79.597656 C 37.632812 78.726562 36.464844 77.980469 35.25 77.359375 C 34.089844 76.5 32.757812 76.167969 31.25 76.363281 C 30.761719 72.121094 29.84375 67.976562 28.5 63.925781 C 28.167969 63.59375 27.832031 63.265625 27.5 62.933594 C 26.820312 64.292969 25.902344 65.453125 24.75 66.414062 C 24.175781 64.722656 23.839844 62.980469 23.75 61.191406 C 24.636719 56.753906 25.71875 52.359375 27 48.007812 C 27.25 45.359375 27.332031 42.707031 27.25 40.046875 C 26.355469 39.980469 25.519531 40.148438 24.75 40.546875 C 24.882812 39.75 24.71875 39.085938 24.25 38.554688 C 24.164062 37.898438 24.332031 37.316406 24.75 36.8125 C 26.78125 35.972656 28.613281 34.894531 30.25 33.582031 Z M 30.25 33.582031 "/>
<path style=" stroke:none;fill-rule:evenodd;fill:rgb(17.254902%,80.784314%,91.372549%);fill-opacity:1;" d="M 86.25 52.980469 C 87.417969 52.980469 88.582031 52.980469 89.75 52.980469 C 89.75 54.808594 89.75 56.628906 89.75 58.453125 C 88.582031 58.453125 87.417969 58.453125 86.25 58.453125 C 86.25 56.628906 86.25 54.808594 86.25 52.980469 Z M 86.25 52.980469 "/>
<path style=" stroke:none;fill-rule:evenodd;fill:rgb(8.627451%,80%,91.764706%);fill-opacity:1;" d="M 91.25 53.480469 C 92.785156 53.320312 94.285156 53.488281 95.75 53.976562 C 96.613281 55.65625 96.28125 56.980469 94.75 57.957031 C 93.582031 57.957031 92.417969 57.957031 91.25 57.957031 C 91.25 56.464844 91.25 54.972656 91.25 53.480469 Z M 91.25 53.480469 "/>
<path style=" stroke:none;fill-rule:evenodd;fill:rgb(89.411765%,93.333333%,94.509804%);fill-opacity:1;" d="M 16.75 54.972656 C 17.882812 55.328125 19.046875 55.496094 20.25 55.46875 C 20.324219 55.992188 20.242188 56.492188 20 56.960938 C 17.546875 58.320312 15.964844 60.308594 15.25 62.933594 C 17.429688 62.679688 19.597656 62.347656 21.75 61.9375 C 21.171875 65.621094 21.421875 69.269531 22.5 72.882812 C 24.109375 73.523438 25.609375 74.355469 27 75.371094 C 27.328125 76.878906 27.078125 78.289062 26.25 79.597656 C 26.953125 79.753906 27.621094 79.589844 28.25 79.101562 C 28.84375 78.425781 29.507812 77.847656 30.25 77.359375 C 31.042969 79.894531 30.710938 82.214844 29.25 84.324219 C 28.761719 83.324219 27.929688 82.660156 26.75 82.335938 C 25.675781 82.960938 24.59375 82.960938 23.5 82.335938 C 22.5625 82.890625 22.144531 83.71875 22.25 84.820312 C 21.890625 84.613281 21.640625 84.28125 21.5 83.828125 C 21.289062 86 20.957031 88.15625 20.5 90.292969 C 20.140625 90.023438 19.890625 89.691406 19.75 89.300781 C 19.964844 86.066406 20.300781 83.078125 20.75 80.34375 C 19.386719 77.847656 18.46875 75.195312 18 72.382812 C 16.332031 71.722656 14.667969 71.058594 13 70.394531 C 12.832031 67.742188 12.667969 65.085938 12.5 62.433594 C 11.203125 60.230469 9.617188 58.242188 7.75 56.464844 C 7.917969 56.300781 8.082031 56.132812 8.25 55.96875 C 10.847656 56.886719 13.515625 57.136719 16.25 56.714844 C 16.308594 56.144531 16.476562 55.5625 16.75 54.972656 Z M 16.75 54.972656 "/>
<path style=" stroke:none;fill-rule:evenodd;fill:rgb(16.470588%,52.941176%,59.607843%);fill-opacity:1;" d="M 91.25 53.480469 C 91.25 54.972656 91.25 56.464844 91.25 57.957031 C 92.417969 57.957031 93.582031 57.957031 94.75 57.957031 C 93.527344 58.441406 92.191406 58.605469 90.75 58.453125 C 90.59375 56.691406 90.761719 55.035156 91.25 53.480469 Z M 91.25 53.480469 "/>
<path style=" stroke:none;fill-rule:evenodd;fill:rgb(0.392157%,1.176471%,2.352941%);fill-opacity:1;" d="M 68.75 75.867188 C 67.597656 76.113281 66.429688 76.277344 65.25 76.363281 C 60.273438 76.75 57.023438 74.59375 55.5 69.898438 C 54.839844 61.765625 58.589844 57.871094 66.75 58.207031 C 72.914062 59.769531 75.328125 63.667969 74 69.898438 C 73.019531 72.609375 71.269531 74.601562 68.75 75.867188 Z M 68.75 75.867188 "/>
<path style=" stroke:none;fill-rule:evenodd;fill:rgb(21.568627%,74.509804%,85.098039%);fill-opacity:1;" d="M 90.75 59.945312 C 92.25 59.945312 93.75 59.945312 95.25 59.945312 C 95.140625 62.871094 93.640625 64.53125 90.75 64.921875 C 90.75 63.265625 90.75 61.605469 90.75 59.945312 Z M 90.75 59.945312 "/>
<path style=" stroke:none;fill-rule:evenodd;fill:rgb(23.921569%,74.117647%,83.529412%);fill-opacity:1;" d="M 85.75 59.945312 C 87.082031 59.945312 88.417969 59.945312 89.75 59.945312 C 89.75 61.441406 89.75 62.933594 89.75 64.425781 C 88.417969 64.425781 87.082031 64.425781 85.75 64.425781 C 85.75 62.933594 85.75 61.441406 85.75 59.945312 Z M 85.75 59.945312 "/>
<path style=" stroke:none;fill-rule:evenodd;fill:rgb(0.784314%,50.588235%,69.019608%);fill-opacity:1;" d="M 62.25 54.972656 C 63.96875 54.875 65.636719 55.121094 67.25 55.71875 C 74.613281 58.511719 77.445312 63.734375 75.75 71.390625 C 74.761719 73.367188 73.261719 74.859375 71.25 75.867188 C 70.417969 75.867188 69.582031 75.867188 68.75 75.867188 C 71.269531 74.601562 73.019531 72.609375 74 69.898438 C 75.328125 63.667969 72.914062 59.769531 66.75 58.207031 C 58.589844 57.871094 54.839844 61.765625 55.5 69.898438 C 57.023438 74.59375 60.273438 76.75 65.25 76.363281 C 58.53125 78.910156 54.03125 76.753906 51.75 69.898438 C 51.5625 62.296875 55.0625 57.320312 62.25 54.972656 Z M 62.25 54.972656 "/>
<path style=" stroke:none;fill-rule:evenodd;fill:rgb(54.509804%,81.568627%,88.627451%);fill-opacity:1;" d="M 83.25 65.917969 C 85.625 65.804688 87.957031 66.054688 90.25 66.664062 C 91.515625 67.699219 91.515625 68.695312 90.25 69.648438 C 88.582031 69.980469 86.917969 69.980469 85.25 69.648438 C 84.222656 69.1875 83.472656 68.4375 83 67.410156 C 82.765625 66.875 82.847656 66.375 83.25 65.917969 Z M 83.25 65.917969 "/>
<path style=" stroke:none;fill-rule:evenodd;fill:rgb(41.960784%,84.705882%,94.117647%);fill-opacity:1;" d="M 51.75 74.871094 C 51.75 75.371094 51.75 75.867188 51.75 76.363281 C 45.171875 76.199219 40.085938 73.378906 36.5 67.90625 C 35.359375 65.195312 34.777344 62.378906 34.75 59.449219 C 34.675781 58.925781 34.757812 58.429688 35 57.957031 C 35.480469 61.839844 36.644531 65.488281 38.5 68.902344 C 38.40625 66.90625 39.324219 65.910156 41.25 65.917969 C 41.109375 67.207031 40.859375 68.203125 40.5 68.902344 C 41.007812 69.464844 41.339844 69.300781 41.5 68.40625 C 43.132812 73.242188 46.546875 75.398438 51.75 74.871094 Z M 51.75 74.871094 "/>
<path style=" stroke:none;fill-rule:evenodd;fill:rgb(37.647059%,80.784314%,92.156863%);fill-opacity:1;" d="M 75.75 71.390625 C 76.488281 71.671875 77.320312 71.671875 78.25 71.390625 C 77.570312 74.433594 76.734375 77.417969 75.75 80.34375 C 71.507812 80.597656 67.171875 80.597656 62.75 80.34375 C 62.1875 79.371094 61.355469 78.625 60.25 78.105469 C 62.582031 77.941406 64.917969 77.773438 67.25 77.609375 C 68.699219 77.171875 70.035156 76.59375 71.25 75.867188 C 73.261719 74.859375 74.761719 73.367188 75.75 71.390625 Z M 75.75 71.390625 "/>
<path style=" stroke:none;fill-rule:evenodd;fill:rgb(17.254902%,66.27451%,80.392157%);fill-opacity:1;" d="M 80.75 67.410156 C 81.691406 68.273438 82.359375 69.351562 82.75 70.644531 C 82.285156 72.40625 81.785156 74.144531 81.25 75.867188 C 80.03125 77.328125 78.699219 78.738281 77.25 80.09375 C 76.777344 80.335938 76.277344 80.417969 75.75 80.34375 C 76.734375 77.417969 77.570312 74.433594 78.25 71.390625 C 78.808594 70.167969 79.226562 68.84375 79.5 67.410156 C 79.984375 67.347656 80.402344 67.347656 80.75 67.410156 Z M 80.75 67.410156 "/>
<path style=" stroke:none;fill-rule:evenodd;fill:rgb(23.137255%,75.294118%,89.019608%);fill-opacity:1;" d="M 34.25 45.023438 C 34.085938 49.921875 34.253906 54.730469 34.75 59.449219 C 34.777344 62.378906 35.359375 65.195312 36.5 67.90625 C 40.085938 73.378906 45.171875 76.199219 51.75 76.363281 C 51.75 75.867188 51.75 75.371094 51.75 74.871094 C 51.472656 73.125 51.136719 71.382812 50.75 69.648438 C 50.832031 69.066406 50.917969 68.488281 51 67.90625 C 51.167969 68.902344 51.332031 69.898438 51.5 70.890625 C 51.730469 70.597656 51.816406 70.265625 51.75 69.898438 C 54.03125 76.753906 58.53125 78.910156 65.25 76.363281 C 66.429688 76.277344 67.597656 76.113281 68.75 75.867188 C 69.582031 75.867188 70.417969 75.867188 71.25 75.867188 C 70.035156 76.59375 68.699219 77.171875 67.25 77.609375 C 64.917969 77.773438 62.582031 77.941406 60.25 78.105469 C 61.355469 78.625 62.1875 79.371094 62.75 80.34375 C 51.511719 83.75 42.429688 80.761719 35.5 71.390625 C 33.824219 68.628906 32.910156 65.644531 32.75 62.433594 C 33.285156 56.5625 33.785156 50.757812 34.25 45.023438 Z M 34.25 45.023438 "/>
<use xlink:href="#surface20" mask="url(#mask5)"/>
<path style=" stroke:none;fill-rule:evenodd;fill:rgb(94.509804%,96.470588%,97.254902%);fill-opacity:1;" d="M 29.25 84.324219 C 29.207031 85.066406 29.539062 85.566406 30.25 85.816406 C 32.699219 85.097656 35.03125 84.101562 37.25 82.832031 C 37.816406 83.613281 37.898438 84.445312 37.5 85.320312 C 36.242188 86.816406 35.574219 88.472656 35.5 90.292969 C 39.902344 86.917969 42.984375 87.746094 44.75 92.78125 C 45.144531 93.871094 45.144531 94.867188 44.75 95.765625 C 43.738281 95.847656 42.738281 95.765625 41.75 95.519531 C 39.867188 94.375 37.949219 93.296875 36 92.285156 C 34.71875 92.796875 33.46875 93.375 32.25 94.023438 C 29.746094 94.480469 27.664062 93.734375 26 91.785156 C 24.203125 89.75 22.953125 87.429688 22.25 84.820312 C 22.144531 83.71875 22.5625 82.890625 23.5 82.335938 C 24.59375 82.960938 25.675781 82.960938 26.75 82.335938 C 27.929688 82.660156 28.761719 83.324219 29.25 84.324219 Z M 29.25 84.324219 "/>
<path style=" stroke:none;fill-rule:evenodd;fill:rgb(2.352941%,40.392157%,58.823529%);fill-opacity:1;" d="M 72.75 83.328125 C 71.316406 85.160156 69.398438 85.988281 67 85.816406 C 64.527344 85.578125 62.109375 85.078125 59.75 84.324219 C 60.574219 83.613281 61.574219 83.199219 62.75 83.082031 C 66.097656 82.75 69.429688 82.832031 72.75 83.328125 Z M 72.75 83.328125 "/>
<use xlink:href="#surface23" mask="url(#mask6)"/>
<path style=" stroke:none;fill-rule:evenodd;fill:rgb(23.137255%,73.333333%,88.627451%);fill-opacity:1;" d="M 72.75 83.328125 C 73.101562 85.871094 72.101562 87.945312 69.75 89.546875 C 65.558594 91.660156 61.976562 90.914062 59 87.308594 C 58.53125 86.070312 58.78125 85.074219 59.75 84.324219 C 62.109375 85.078125 64.527344 85.578125 67 85.816406 C 69.398438 85.988281 71.316406 85.160156 72.75 83.328125 Z M 72.75 83.328125 "/>
<path style=" stroke:none;fill-rule:evenodd;fill:rgb(48.235294%,59.215686%,64.705882%);fill-opacity:1;" d="M 35.25 77.359375 C 36.464844 77.980469 37.632812 78.726562 38.75 79.597656 C 39.398438 79.839844 40.0625 79.925781 40.75 79.847656 C 45.847656 82.730469 51.347656 84.140625 57.25 84.074219 C 56.820312 84.855469 56.488281 85.6875 56.25 86.5625 C 56.941406 88.25 58.027344 89.660156 59.5 90.792969 C 59.84375 91.207031 59.761719 91.535156 59.25 91.785156 C 55.203125 93.746094 51.035156 94.242188 46.75 93.277344 C 47.382812 92.984375 48.050781 92.738281 48.75 92.53125 C 48.582031 92.367188 48.417969 92.199219 48.25 92.035156 C 51.253906 90.625 53.253906 88.386719 54.25 85.320312 C 51.703125 85.578125 49.203125 86.078125 46.75 86.8125 C 46.796875 86.078125 46.296875 85.5 45.25 85.070312 C 42.964844 84.429688 40.796875 83.519531 38.75 82.335938 C 37.570312 80.667969 36.402344 79.007812 35.25 77.359375 Z M 35.25 77.359375 "/>
</g>
</svg>
