<?xml version="1.0" encoding="UTF-8"?>
<svg xmlns="http://www.w3.org/2000/svg" xmlns:xlink="http://www.w3.org/1999/xlink" width="px" height="px" viewBox="0 0 105 100" version="1.1">
<defs>
<filter id="alpha" filterUnits="objectBoundingBox" x="0%" y="0%" width="100%" height="100%">
  <feColorMatrix type="matrix" in="SourceGraphic" values="0 0 0 0 1 0 0 0 0 1 0 0 0 0 1 0 0 0 1 0"/>
</filter>
<mask id="mask0">
  <g filter="url(#alpha)">
<rect x="0" y="0" width="105" height="100" style="fill:rgb(0%,0%,0%);fill-opacity:0.976471;stroke:none;"/>
  </g>
</mask>
<clipPath id="clip1">
  <rect x="0" y="0" width="105" height="100"/>
</clipPath>
<g id="surface5" clip-path="url(#clip1)">
<path style=" stroke:none;fill-rule:evenodd;fill:rgb(5.490196%,2.745098%,2.352941%);fill-opacity:1;" d="M 87.164062 22.863281 C 87.082031 24.214844 87.167969 25.554688 87.417969 26.882812 C 88.222656 27.070312 88.976562 27.238281 89.675781 27.386719 C 87.976562 28.613281 87.222656 30.289062 87.417969 32.410156 C 87.667969 32.160156 87.917969 31.910156 88.167969 31.660156 C 90.371094 31.511719 92.546875 31.261719 94.699219 30.90625 C 94.070312 32.601562 94.574219 33.351562 96.207031 33.164062 C 95.929688 33.359375 95.761719 33.609375 95.707031 33.917969 C 95.203125 33.917969 94.699219 33.917969 94.199219 33.917969 C 94.105469 35.695312 94.4375 37.371094 95.203125 38.945312 C 95.570312 39.550781 95.738281 40.222656 95.707031 40.953125 C 95.488281 42.652344 95.824219 44.160156 96.710938 45.476562 C 97.882812 46.140625 98.886719 46.976562 99.726562 47.988281 C 98.613281 47.433594 97.523438 47.433594 96.460938 47.988281 C 96.210938 49.320312 96.125 50.660156 96.207031 52.011719 C 95.871094 51.84375 95.539062 51.675781 95.203125 51.507812 C 96.078125 47.941406 94.90625 46.851562 91.6875 48.242188 C 90.402344 49.710938 90.402344 51.21875 91.6875 52.765625 C 92.90625 53.117188 94.078125 53.035156 95.203125 52.511719 C 93.613281 53.246094 91.9375 53.917969 90.179688 54.523438 C 89.847656 53.019531 89.511719 51.511719 89.175781 50 C 89.265625 48.648438 89.765625 47.476562 90.683594 46.480469 C 89.753906 44.613281 89.421875 42.605469 89.675781 40.453125 C 88.671875 40.453125 87.667969 40.453125 86.664062 40.453125 C 86.160156 40.117188 85.65625 39.78125 85.15625 39.445312 C 86.375 39.601562 87.546875 39.433594 88.671875 38.945312 C 88.375 37.222656 87.707031 35.714844 86.664062 34.421875 C 85.492188 35.089844 84.820312 36.097656 84.652344 37.4375 C 84.257812 37.996094 84.003906 38.664062 83.898438 39.445312 C 83.648438 38.285156 83.566406 37.113281 83.648438 35.929688 C 83.648438 34.925781 83.648438 33.917969 83.648438 32.914062 C 85.628906 29.792969 86.046875 26.441406 84.90625 22.863281 C 84.425781 22.0625 83.839844 21.394531 83.144531 20.855469 C 81.980469 19.449219 80.472656 18.527344 78.625 18.089844 C 75.726562 17.554688 72.796875 17.304688 69.832031 17.335938 C 66.671875 17.234375 63.574219 17.566406 60.539062 18.339844 C 61.316406 18.9375 62.152344 19.4375 63.050781 19.847656 C 62.496094 20.1875 61.996094 20.523438 61.542969 20.855469 C 59.027344 21.191406 56.851562 22.195312 55.011719 23.871094 C 52.109375 25.359375 49.429688 27.117188 46.972656 29.144531 C 47.5 29.734375 48 30.320312 48.480469 30.90625 C 46.371094 30.746094 44.359375 30.914062 42.453125 31.40625 C 41.550781 31.339844 40.714844 31.507812 39.941406 31.910156 C 39.777344 31.132812 39.277344 30.796875 38.433594 30.90625 C 39.617188 30.085938 40.957031 29.5 42.453125 29.144531 C 36.878906 26.539062 37.128906 25.785156 43.207031 26.882812 C 44.675781 26.871094 46.097656 26.621094 47.476562 26.128906 C 50.824219 24.121094 54.175781 22.109375 57.523438 20.101562 C 58 19.738281 58.085938 19.320312 57.773438 18.84375 C 56.757812 18.199219 55.671875 17.695312 54.507812 17.335938 C 53.902344 16.949219 53.902344 16.527344 54.507812 16.082031 C 57.371094 15.996094 60.21875 15.742188 63.050781 15.328125 C 60.941406 12.875 58.429688 11.035156 55.515625 9.800781 C 53.269531 8.9375 50.925781 8.601562 48.480469 8.792969 C 49.777344 6.65625 51.449219 4.816406 53.503906 3.265625 C 50.167969 2.71875 46.988281 3.21875 43.960938 4.773438 C 42.558594 3.863281 41.050781 3.695312 39.4375 4.269531 C 41.214844 2.5 43.390625 1.496094 45.96875 1.257812 C 49.578125 0.378906 53.09375 0.628906 56.519531 2.011719 C 57.136719 2.605469 57.136719 3.191406 56.519531 3.769531 C 55.347656 4.691406 54.175781 5.613281 53.003906 6.53125 C 55.515625 7.285156 57.859375 8.375 60.035156 9.800781 C 66.152344 3.785156 72.261719 3.785156 78.375 9.800781 C 79.847656 11.742188 80.769531 13.917969 81.136719 16.332031 C 83.867188 17.886719 85.875 20.066406 87.164062 22.863281 Z M 87.164062 22.863281 "/>
</g>
<mask id="mask1">
  <g filter="url(#alpha)">
<rect x="0" y="0" width="105" height="100" style="fill:rgb(0%,0%,0%);fill-opacity:0.992157;stroke:none;"/>
  </g>
</mask>
<clipPath id="clip2">
  <rect x="0" y="0" width="105" height="100"/>
</clipPath>
<g id="surface8" clip-path="url(#clip2)">
<path style=" stroke:none;fill-rule:evenodd;fill:rgb(2.352941%,2.745098%,2.352941%);fill-opacity:1;" d="M 43.960938 4.773438 C 40.589844 6.335938 37.492188 8.34375 34.664062 10.804688 C 35.132812 12.179688 35.71875 13.519531 36.421875 14.824219 C 36.257812 14.824219 36.089844 14.824219 35.921875 14.824219 C 33.046875 14.8125 30.535156 15.734375 28.386719 17.589844 C 30.320312 18.652344 32.328125 19.574219 34.414062 20.351562 C 29.753906 23.101562 25.566406 26.453125 21.855469 30.402344 C 23.066406 31.003906 24.070312 31.84375 24.867188 32.914062 C 23.191406 35.175781 21.433594 37.355469 19.59375 39.445312 C 19.9375 37.078125 20.855469 34.902344 22.355469 32.914062 C 22.125 32.515625 21.792969 32.347656 21.351562 32.410156 C 20.746094 32.042969 20.074219 31.875 19.34375 31.910156 C 19.34375 31.238281 19.34375 30.570312 19.34375 29.898438 C 21.519531 27.890625 23.695312 25.878906 25.875 23.871094 C 27.359375 23.054688 28.699219 22.050781 29.890625 20.855469 C 27.574219 19.863281 25.226562 19.191406 22.859375 18.84375 C 23.195312 18.84375 23.359375 18.675781 23.359375 18.339844 C 26.011719 16.28125 28.855469 14.523438 31.902344 13.066406 C 30.53125 12.046875 29.023438 11.292969 27.378906 10.804688 C 28.699219 9.636719 30.039062 8.464844 31.398438 7.285156 C 27.792969 6.410156 24.441406 6.910156 21.351562 8.792969 C 18.488281 9.597656 16.058594 11.105469 14.066406 13.316406 C 13.769531 13.8125 13.9375 14.144531 14.570312 14.320312 C 15.800781 13.824219 17.058594 13.738281 18.335938 14.070312 C 15.078125 16.410156 12.0625 19.007812 9.292969 21.859375 C 8.597656 22.398438 8.011719 23.070312 7.535156 23.871094 C 7.011719 23.304688 6.675781 22.636719 6.53125 21.859375 C 5.308594 24.105469 4.554688 26.449219 4.269531 28.894531 C 4.347656 28.203125 4.265625 27.535156 4.019531 26.882812 C 3.734375 28 3.316406 29.007812 2.761719 29.898438 C 1.84375 31.964844 1.339844 31.796875 1.257812 29.398438 C 1.773438 25.261719 3.449219 21.660156 6.28125 18.59375 C 7.265625 18.28125 8.105469 18.53125 8.792969 19.347656 C 9.800781 18.589844 10.636719 17.667969 11.304688 16.582031 C 10.667969 15.496094 10.667969 14.40625 11.304688 13.316406 C 17.804688 5.46875 26.007812 2.957031 35.921875 5.777344 C 37.03125 5.140625 38.203125 4.636719 39.4375 4.269531 C 41.050781 3.695312 42.558594 3.863281 43.960938 4.773438 Z M 43.960938 4.773438 "/>
</g>
<mask id="mask2">
  <g filter="url(#alpha)">
<rect x="0" y="0" width="105" height="100" style="fill:rgb(0%,0%,0%);fill-opacity:0.0745098;stroke:none;"/>
  </g>
</mask>
<clipPath id="clip3">
  <rect x="0" y="0" width="105" height="100"/>
</clipPath>
<g id="surface11" clip-path="url(#clip3)">
<path style=" stroke:none;fill-rule:evenodd;fill:rgb(14.509804%,17.254902%,23.137255%);fill-opacity:1;" d="M 35.921875 5.777344 C 26.007812 2.957031 17.804688 5.46875 11.304688 13.316406 C 12.117188 11.234375 13.457031 9.476562 15.324219 8.039062 C 21.199219 4.21875 27.5625 3.046875 34.414062 4.523438 C 35.136719 4.710938 35.640625 5.128906 35.921875 5.777344 Z M 35.921875 5.777344 "/>
</g>
<mask id="mask3">
  <g filter="url(#alpha)">
<rect x="0" y="0" width="105" height="100" style="fill:rgb(0%,0%,0%);fill-opacity:0.0235294;stroke:none;"/>
  </g>
</mask>
<clipPath id="clip4">
  <rect x="0" y="0" width="105" height="100"/>
</clipPath>
<g id="surface14" clip-path="url(#clip4)">
<path style=" stroke:none;fill-rule:evenodd;fill:rgb(14.509804%,18.039216%,22.745098%);fill-opacity:1;" d="M 11.304688 13.316406 C 10.667969 14.40625 10.667969 15.496094 11.304688 16.582031 C 10.636719 17.667969 9.800781 18.589844 8.792969 19.347656 C 8.105469 18.53125 7.265625 18.28125 6.28125 18.59375 C 3.449219 21.660156 1.773438 25.261719 1.257812 29.398438 C 0.289062 36.144531 1.296875 42.679688 4.269531 48.996094 C 4.941406 49.664062 5.609375 49.664062 6.28125 48.996094 C 7.613281 47.742188 8.871094 46.402344 10.046875 44.976562 C 10.585938 47.726562 11.671875 50.238281 13.3125 52.511719 C 11.546875 54.464844 10.792969 56.8125 11.050781 59.546875 C 9.675781 58.84375 8.417969 58.007812 7.285156 57.035156 C 8.507812 56.941406 9.597656 57.277344 10.550781 58.039062 C 10.609375 55.648438 11.109375 53.472656 12.058594 51.507812 C 11.261719 50.082031 10.339844 48.738281 9.292969 47.488281 C 8.457031 48.15625 7.621094 48.828125 6.78125 49.496094 C 5.777344 50.167969 4.773438 50.167969 3.769531 49.496094 C 2.046875 45.707031 0.707031 41.855469 -0.25 37.941406 C -0.25 35.257812 -0.25 32.578125 -0.25 29.898438 C 0.65625 25.441406 2.664062 21.503906 5.777344 18.089844 C 6.949219 17.921875 8.121094 17.753906 9.292969 17.589844 C 9.886719 16.058594 10.558594 14.632812 11.304688 13.316406 Z M 11.304688 13.316406 "/>
</g>
<mask id="mask4">
  <g filter="url(#alpha)">
<rect x="0" y="0" width="105" height="100" style="fill:rgb(0%,0%,0%);fill-opacity:0.984314;stroke:none;"/>
  </g>
</mask>
<clipPath id="clip5">
  <rect x="0" y="0" width="105" height="100"/>
</clipPath>
<g id="surface17" clip-path="url(#clip5)">
<path style=" stroke:none;fill-rule:evenodd;fill:rgb(4.313725%,5.490196%,5.098039%);fill-opacity:1;" d="M 1.257812 29.398438 C 1.339844 31.796875 1.84375 31.964844 2.761719 29.898438 C 2.285156 35.550781 3.289062 40.910156 5.777344 45.980469 C 7.808594 43.609375 9.652344 41.097656 11.304688 38.441406 C 11.394531 40.519531 11.480469 42.699219 11.554688 44.976562 C 11.976562 46.835938 12.898438 48.34375 14.316406 49.496094 C 14.484375 49.832031 14.652344 50.167969 14.820312 50.503906 C 16.210938 52.707031 18.222656 53.878906 20.847656 54.019531 C 19.953125 54.5 18.949219 54.835938 17.835938 55.023438 C 16.382812 54.429688 14.960938 54.429688 13.566406 55.023438 C 13.3125 57.363281 13.230469 59.710938 13.3125 62.058594 C 10.882812 61.515625 8.539062 60.679688 6.28125 59.546875 C 5.703125 59.707031 5.285156 60.042969 5.023438 60.554688 C 4.28125 62.527344 3.695312 64.539062 3.265625 66.582031 C 2.382812 72.886719 3.804688 78.582031 7.535156 83.667969 C 7.496094 81.273438 7.078125 78.929688 6.28125 76.632812 C 8.296875 79.300781 10.558594 81.8125 13.0625 84.171875 C 13.875 85.28125 14.460938 86.457031 14.820312 87.6875 C 16.378906 90.167969 18.386719 92.261719 20.847656 93.96875 C 22.710938 95.152344 24.71875 95.90625 26.878906 96.230469 C 28.449219 96.722656 30.121094 96.890625 31.902344 96.734375 C 30.605469 97.097656 29.265625 97.515625 27.882812 97.988281 C 30.019531 98.589844 32.195312 98.839844 34.414062 98.742188 C 28.457031 100.140625 22.929688 99.054688 17.835938 95.476562 C 15.363281 92.84375 13.105469 90.078125 11.050781 87.1875 C 8.769531 87.636719 6.761719 86.964844 5.023438 85.175781 C -0.476562 76.351562 -1.144531 67.140625 3.015625 57.539062 C 4.347656 55.808594 5.773438 55.640625 7.285156 57.035156 C 8.417969 58.007812 9.675781 58.84375 11.050781 59.546875 C 10.792969 56.8125 11.546875 54.464844 13.3125 52.511719 C 11.671875 50.238281 10.585938 47.726562 10.046875 44.976562 C 8.871094 46.402344 7.613281 47.742188 6.28125 48.996094 C 5.609375 49.664062 4.941406 49.664062 4.269531 48.996094 C 1.296875 42.679688 0.289062 36.144531 1.257812 29.398438 Z M 1.257812 29.398438 "/>
</g>
<mask id="mask5">
  <g filter="url(#alpha)">
<rect x="0" y="0" width="105" height="100" style="fill:rgb(0%,0%,0%);fill-opacity:0.976471;stroke:none;"/>
  </g>
</mask>
<clipPath id="clip6">
  <rect x="0" y="0" width="105" height="100"/>
</clipPath>
<g id="surface20" clip-path="url(#clip6)">
<path style=" stroke:none;fill-rule:evenodd;fill:rgb(3.529412%,3.137255%,3.137255%);fill-opacity:1;" d="M 87.164062 22.863281 C 87.882812 23.507812 88.21875 24.34375 88.167969 25.375 C 93.539062 24.480469 96.46875 26.65625 96.960938 31.910156 C 100.570312 33.429688 101.660156 35.941406 100.226562 39.445312 C 102.179688 41.277344 102.683594 43.457031 101.734375 45.980469 C 103.863281 48.875 103.695312 51.636719 101.230469 54.269531 C 102.726562 56.78125 102.390625 59.042969 100.226562 61.054688 C 101.519531 64.675781 100.347656 66.855469 96.710938 67.589844 C 96.980469 69.554688 96.3125 71.0625 94.699219 72.109375 C 93.925781 71.707031 93.089844 71.539062 92.1875 71.609375 C 93.6875 70.941406 94.355469 69.765625 94.199219 68.089844 C 93.195312 68.089844 92.1875 68.089844 91.183594 68.089844 C 90.527344 67.722656 89.855469 67.304688 89.175781 66.835938 C 90.175781 66.644531 91.011719 66.226562 91.6875 65.578125 C 92.453125 65.613281 92.957031 65.28125 93.195312 64.574219 C 93.527344 64.738281 93.863281 64.90625 94.199219 65.074219 C 95.402344 65.734375 96.65625 65.734375 97.964844 65.074219 C 99.222656 63.242188 98.804688 62.070312 96.710938 61.558594 C 95.433594 61.210938 94.179688 60.710938 92.941406 60.050781 C 92.136719 60.835938 91.214844 61.085938 90.179688 60.804688 C 90.558594 60.46875 90.726562 60.046875 90.683594 59.546875 C 91.855469 59.546875 93.027344 59.546875 94.199219 59.546875 C 94.324219 58.183594 94.40625 56.84375 94.449219 55.527344 C 93.070312 54.816406 91.816406 54.984375 90.683594 56.03125 C 90.226562 55.675781 90.058594 55.171875 90.179688 54.523438 C 91.9375 53.917969 93.613281 53.246094 95.203125 52.511719 C 95.203125 52.175781 95.203125 51.84375 95.203125 51.507812 C 95.539062 51.675781 95.871094 51.84375 96.207031 52.011719 C 97.886719 53.421875 99.476562 53.253906 100.980469 51.507812 C 101.527344 49.941406 101.109375 48.769531 99.726562 47.988281 C 98.886719 46.976562 97.882812 46.140625 96.710938 45.476562 C 99.53125 46.191406 100.617188 45.1875 99.976562 42.460938 C 98.894531 41.144531 97.46875 40.640625 95.707031 40.953125 C 95.738281 40.222656 95.570312 39.550781 95.203125 38.945312 C 98.992188 38.664062 99.664062 37.070312 97.214844 34.171875 C 96.738281 33.929688 96.234375 33.84375 95.707031 33.917969 C 95.761719 33.609375 95.929688 33.359375 96.207031 33.164062 C 94.574219 33.351562 94.070312 32.601562 94.699219 30.90625 C 94.128906 28.265625 92.453125 27.09375 89.675781 27.386719 C 88.976562 27.238281 88.222656 27.070312 87.417969 26.882812 C 87.167969 25.554688 87.082031 24.214844 87.164062 22.863281 Z M 87.164062 22.863281 "/>
</g>
<mask id="mask6">
  <g filter="url(#alpha)">
<rect x="0" y="0" width="105" height="100" style="fill:rgb(0%,0%,0%);fill-opacity:0.996078;stroke:none;"/>
  </g>
</mask>
<clipPath id="clip7">
  <rect x="0" y="0" width="105" height="100"/>
</clipPath>
<g id="surface23" clip-path="url(#clip7)">
<path style=" stroke:none;fill-rule:evenodd;fill:rgb(81.176471%,78.039216%,75.294118%);fill-opacity:1;" d="M 95.707031 33.917969 C 96.234375 33.84375 96.738281 33.929688 97.214844 34.171875 C 99.664062 37.070312 98.992188 38.664062 95.203125 38.945312 C 94.4375 37.371094 94.105469 35.695312 94.199219 33.917969 C 94.699219 33.917969 95.203125 33.917969 95.707031 33.917969 Z M 95.707031 33.917969 "/>
</g>
<mask id="mask7">
  <g filter="url(#alpha)">
<rect x="0" y="0" width="105" height="100" style="fill:rgb(0%,0%,0%);fill-opacity:0.054902;stroke:none;"/>
  </g>
</mask>
<clipPath id="clip8">
  <rect x="0" y="0" width="105" height="100"/>
</clipPath>
<g id="surface26" clip-path="url(#clip8)">
<path style=" stroke:none;fill-rule:evenodd;fill:rgb(14.901961%,21.960784%,27.058824%);fill-opacity:1;" d="M 51.996094 -0.25 C 52.835938 -0.25 53.671875 -0.25 54.507812 -0.25 C 56.066406 0.386719 57.238281 1.472656 58.027344 3.015625 C 57.460938 4.167969 56.621094 5.089844 55.515625 5.777344 C 56.941406 6.742188 58.449219 7.582031 60.035156 8.292969 C 65.121094 3.65625 70.648438 3.066406 76.613281 6.53125 C 79.566406 8.984375 81.492188 12.082031 82.390625 15.828125 C 85.289062 17.722656 87.46875 20.234375 88.921875 23.367188 C 93.875 23.628906 97.058594 26.140625 98.46875 30.90625 C 100.023438 32.125 101.199219 33.632812 101.984375 35.425781 C 102.027344 38.316406 102.613281 41.078125 103.742188 43.71875 C 102.859375 45.621094 103.195312 47.214844 104.75 48.492188 C 104.75 49.328125 104.75 50.167969 104.75 51.003906 C 104.289062 52.171875 103.617188 53.261719 102.738281 54.269531 C 103.59375 56.710938 103.257812 58.972656 101.734375 61.054688 C 102.644531 64.585938 101.390625 67.101562 97.964844 68.59375 C 96.398438 73.046875 93.386719 75.058594 88.921875 74.625 C 87.511719 78.214844 85.167969 81.0625 81.890625 83.164062 C 79.648438 92.035156 74.035156 95.636719 65.058594 93.96875 C 63.464844 93.039062 61.875 92.117188 60.285156 91.207031 C 58.3125 91.75 56.554688 92.671875 55.011719 93.96875 C 56.257812 94.628906 57.261719 95.546875 58.027344 96.734375 C 56.632812 98.265625 54.957031 99.269531 53.003906 99.75 C 52.667969 99.75 52.332031 99.75 51.996094 99.75 C 51.824219 99.328125 51.492188 99.160156 50.992188 99.246094 C 53.085938 98.714844 55.097656 97.878906 57.023438 96.734375 C 55.710938 95.40625 54.203125 94.316406 52.5 93.46875 C 55.304688 92.449219 57.984375 91.195312 60.539062 89.699219 C 61.050781 90.046875 61.550781 90.382812 62.046875 90.703125 C 63.878906 92.761719 66.222656 93.765625 69.078125 93.71875 C 75.839844 93.058594 79.773438 89.371094 80.886719 82.664062 C 84.492188 80.816406 86.917969 77.96875 88.167969 74.121094 C 89.820312 73.707031 91.496094 73.457031 93.195312 73.367188 C 93.917969 73.175781 94.421875 72.757812 94.699219 72.109375 C 96.3125 71.0625 96.980469 69.554688 96.710938 67.589844 C 100.347656 66.855469 101.519531 64.675781 100.226562 61.054688 C 102.390625 59.042969 102.726562 56.78125 101.230469 54.269531 C 103.695312 51.636719 103.863281 48.875 101.734375 45.980469 C 102.683594 43.457031 102.179688 41.277344 100.226562 39.445312 C 101.660156 35.941406 100.570312 33.429688 96.960938 31.910156 C 96.46875 26.65625 93.539062 24.480469 88.167969 25.375 C 88.21875 24.34375 87.882812 23.507812 87.164062 22.863281 C 85.875 20.066406 83.867188 17.886719 81.136719 16.332031 C 80.769531 13.917969 79.847656 11.742188 78.375 9.800781 C 72.261719 3.785156 66.152344 3.785156 60.035156 9.800781 C 57.859375 8.375 55.515625 7.285156 53.003906 6.53125 C 54.175781 5.613281 55.347656 4.691406 56.519531 3.769531 C 57.136719 3.191406 57.136719 2.605469 56.519531 2.011719 C 53.09375 0.628906 49.578125 0.378906 45.96875 1.257812 C 47.925781 0.535156 49.9375 0.0351562 51.996094 -0.25 Z M 51.996094 -0.25 "/>
</g>
<mask id="mask8">
  <g filter="url(#alpha)">
<rect x="0" y="0" width="105" height="100" style="fill:rgb(0%,0%,0%);fill-opacity:0.92549;stroke:none;"/>
  </g>
</mask>
<clipPath id="clip9">
  <rect x="0" y="0" width="105" height="100"/>
</clipPath>
<g id="surface29" clip-path="url(#clip9)">
<path style=" stroke:none;fill-rule:evenodd;fill:rgb(6.27451%,2.745098%,2.745098%);fill-opacity:1;" d="M 90.179688 54.523438 C 90.058594 55.171875 90.226562 55.675781 90.683594 56.03125 C 90.117188 57.277344 90.117188 58.449219 90.683594 59.546875 C 90.726562 60.046875 90.558594 60.46875 90.179688 60.804688 C 91.214844 61.085938 92.136719 60.835938 92.941406 60.050781 C 94.179688 60.710938 95.433594 61.210938 96.710938 61.558594 C 95.871094 61.558594 95.035156 61.558594 94.199219 61.558594 C 94.199219 62.730469 94.199219 63.902344 94.199219 65.074219 C 93.863281 64.90625 93.527344 64.738281 93.195312 64.574219 C 93.195312 63.566406 93.195312 62.5625 93.195312 61.558594 C 89.675781 60.71875 88.335938 62.058594 89.175781 65.578125 C 90.011719 65.578125 90.847656 65.578125 91.6875 65.578125 C 91.011719 66.226562 90.175781 66.644531 89.175781 66.835938 C 89.855469 67.304688 90.527344 67.722656 91.183594 68.089844 C 87.15625 66.8125 86.320312 67.816406 88.671875 71.105469 C 89.800781 71.542969 90.972656 71.710938 92.1875 71.609375 C 93.089844 71.539062 93.925781 71.707031 94.699219 72.109375 C 94.421875 72.757812 93.917969 73.175781 93.195312 73.367188 C 91.496094 73.457031 89.820312 73.707031 88.167969 74.121094 C 86.917969 77.96875 84.492188 80.816406 80.886719 82.664062 C 79.773438 89.371094 75.839844 93.058594 69.078125 93.71875 C 66.222656 93.765625 63.878906 92.761719 62.046875 90.703125 C 62.574219 90.777344 63.078125 90.695312 63.550781 90.453125 C 63.175781 90.113281 63.007812 89.695312 63.050781 89.195312 C 63.808594 89.867188 64.644531 90.453125 65.5625 90.953125 C 68 91.363281 70.34375 91.28125 72.59375 90.703125 C 75.488281 89.652344 77.332031 87.640625 78.121094 84.671875 C 78.578125 84.316406 78.742188 83.816406 78.625 83.164062 C 77.785156 83.164062 76.949219 83.164062 76.113281 83.164062 C 76.113281 82.664062 76.113281 82.160156 76.113281 81.660156 C 76.113281 81.492188 76.113281 81.324219 76.113281 81.15625 C 77.96875 81.230469 79.644531 80.730469 81.136719 79.648438 C 85.929688 76.339844 86.847656 72.152344 83.898438 67.085938 C 83.410156 64.425781 83.15625 61.746094 83.144531 59.046875 C 84.964844 59.132812 86.640625 58.800781 88.167969 58.039062 C 88.972656 56.933594 89.644531 55.761719 90.179688 54.523438 Z M 90.179688 54.523438 "/>
</g>
<mask id="mask9">
  <g filter="url(#alpha)">
<rect x="0" y="0" width="105" height="100" style="fill:rgb(0%,0%,0%);fill-opacity:0.996078;stroke:none;"/>
  </g>
</mask>
<clipPath id="clip10">
  <rect x="0" y="0" width="105" height="100"/>
</clipPath>
<g id="surface32" clip-path="url(#clip10)">
<path style=" stroke:none;fill-rule:evenodd;fill:rgb(2.352941%,3.137255%,2.352941%);fill-opacity:1;" d="M 20.847656 63.566406 C 21.015625 63.566406 21.183594 63.566406 21.351562 63.566406 C 25.636719 71.035156 31.328125 77.234375 38.433594 82.160156 C 38.488281 82.472656 38.65625 82.722656 38.933594 82.914062 C 38.339844 83.59375 37.671875 84.179688 36.925781 84.671875 C 38.320312 85.515625 39.660156 86.355469 40.945312 87.1875 C 40.441406 88.023438 39.773438 88.695312 38.933594 89.195312 C 37.25 90.320312 35.40625 91.15625 33.410156 91.707031 C 39.1875 95.835938 45.554688 97.257812 52.5 95.980469 C 50.863281 95.246094 49.523438 94.15625 48.480469 92.714844 C 49.53125 92.203125 50.539062 91.699219 51.496094 91.207031 C 55.253906 90.332031 58.601562 88.65625 61.542969 86.179688 C 62.320312 86.34375 62.65625 86.84375 62.546875 87.6875 C 62.429688 88.335938 62.597656 88.839844 63.050781 89.195312 C 63.007812 89.695312 63.175781 90.113281 63.550781 90.453125 C 63.078125 90.695312 62.574219 90.777344 62.046875 90.703125 C 61.550781 90.382812 61.050781 90.046875 60.539062 89.699219 C 57.984375 91.195312 55.304688 92.449219 52.5 93.46875 C 54.203125 94.316406 55.710938 95.40625 57.023438 96.734375 C 55.097656 97.878906 53.085938 98.714844 50.992188 99.246094 C 46.394531 99.605469 41.957031 98.9375 37.679688 97.234375 C 36.6875 97.941406 35.597656 98.445312 34.414062 98.742188 C 32.195312 98.839844 30.019531 98.589844 27.882812 97.988281 C 29.265625 97.515625 30.605469 97.097656 31.902344 96.734375 C 32.8125 96.597656 33.648438 96.261719 34.414062 95.730469 C 31.523438 93.59375 28.84375 91.164062 26.375 88.441406 C 28.027344 88.625 29.699219 88.875 31.398438 89.195312 C 33.359375 89.082031 35.199219 88.582031 36.925781 87.6875 C 34.886719 86.789062 33.042969 85.617188 31.398438 84.171875 C 32.726562 83.71875 34.066406 83.300781 35.417969 82.914062 C 34.140625 81.882812 32.800781 80.960938 31.398438 80.152344 C 26.429688 75.769531 22.746094 70.492188 20.347656 64.320312 C 20.382812 63.9375 20.550781 63.6875 20.847656 63.566406 Z M 20.847656 63.566406 "/>
</g>
</defs>
<g id="surface1">
<use xlink:href="#surface5" mask="url(#mask0)"/>
<use xlink:href="#surface8" mask="url(#mask1)"/>
<use xlink:href="#surface11" mask="url(#mask2)"/>
<path style=" stroke:none;fill-rule:evenodd;fill:rgb(18.039216%,30.980392%,6.666667%);fill-opacity:1;" d="M 48.480469 8.792969 C 48.144531 8.792969 47.8125 8.792969 47.476562 8.792969 C 44.355469 8.847656 41.507812 9.765625 38.933594 11.558594 C 37.949219 12.285156 37.277344 13.207031 36.925781 14.320312 C 36.925781 14.65625 36.757812 14.824219 36.421875 14.824219 C 35.71875 13.519531 35.132812 12.179688 34.664062 10.804688 C 37.492188 8.34375 40.589844 6.335938 43.960938 4.773438 C 46.988281 3.21875 50.167969 2.71875 53.503906 3.265625 C 51.449219 4.816406 49.777344 6.65625 48.480469 8.792969 Z M 48.480469 8.792969 "/>
<path style=" stroke:none;fill-rule:evenodd;fill:rgb(96.862745%,25.882353%,30.980392%);fill-opacity:1;" d="M 65.5625 7.789062 C 70.011719 6.90625 73.78125 8.078125 76.867188 11.304688 C 77.722656 12.515625 78.140625 13.855469 78.121094 15.328125 C 76.066406 15.726562 74.472656 15.054688 73.347656 13.316406 C 73.105469 13.792969 73.023438 14.296875 73.097656 14.824219 C 70.414062 14.90625 67.734375 14.824219 65.058594 14.574219 C 63.960938 13.558594 62.957031 12.472656 62.046875 11.304688 C 63.074219 9.941406 64.246094 8.769531 65.5625 7.789062 Z M 65.5625 7.789062 "/>
<path style=" stroke:none;fill-rule:evenodd;fill:rgb(92.156863%,0.392157%,20.392157%);fill-opacity:1;" d="M 67.570312 10.300781 C 70.925781 9.640625 72.601562 10.980469 72.59375 14.320312 C 69.761719 14.625 67.082031 14.203125 64.558594 13.066406 C 64.390625 12.898438 64.222656 12.730469 64.054688 12.5625 C 65.429688 12.046875 66.601562 11.292969 67.570312 10.300781 Z M 67.570312 10.300781 "/>
<path style=" stroke:none;fill-rule:evenodd;fill:rgb(18.823529%,27.45098%,7.45098%);fill-opacity:1;" d="M 23.359375 18.339844 C 23.183594 17.152344 23.101562 15.976562 23.109375 14.824219 C 24.144531 13.335938 25.230469 11.910156 26.375 10.554688 C 25.085938 8.984375 23.410156 8.398438 21.351562 8.792969 C 24.441406 6.910156 27.792969 6.410156 31.398438 7.285156 C 30.039062 8.464844 28.699219 9.636719 27.378906 10.804688 C 29.023438 11.292969 30.53125 12.046875 31.902344 13.066406 C 28.855469 14.523438 26.011719 16.28125 23.359375 18.339844 Z M 23.359375 18.339844 "/>
<path style=" stroke:none;fill-rule:evenodd;fill:rgb(26.666667%,38.039216%,8.627451%);fill-opacity:1;" d="M 21.351562 8.792969 C 23.410156 8.398438 25.085938 8.984375 26.375 10.554688 C 25.230469 11.910156 24.144531 13.335938 23.109375 14.824219 C 23.101562 15.976562 23.183594 17.152344 23.359375 18.339844 C 23.359375 18.675781 23.195312 18.84375 22.859375 18.84375 C 22.585938 18.875 22.417969 19.042969 22.355469 19.347656 C 24.367188 20.183594 25.539062 21.691406 25.875 23.871094 C 23.695312 25.878906 21.519531 27.890625 19.34375 29.898438 C 19.425781 29.234375 19.261719 28.648438 18.839844 28.140625 C 19.34375 27.972656 19.84375 27.804688 20.347656 27.636719 C 20.167969 26.820312 20.167969 25.898438 20.347656 24.875 C 21.265625 25.152344 22.105469 25.152344 22.859375 24.875 C 22.285156 24.410156 22.285156 23.992188 22.859375 23.617188 C 22.523438 23.28125 22.1875 22.949219 21.855469 22.613281 C 20.617188 22.414062 19.613281 21.828125 18.839844 20.855469 C 18.117188 21.585938 17.277344 22.085938 16.328125 22.363281 C 16.554688 21.878906 16.890625 21.460938 17.332031 21.105469 C 16.015625 20.199219 14.675781 20.199219 13.3125 21.105469 C 11.890625 22.109375 10.550781 23.199219 9.292969 24.371094 C 9.292969 23.535156 9.292969 22.695312 9.292969 21.859375 C 12.0625 19.007812 15.078125 16.410156 18.335938 14.070312 C 17.058594 13.738281 15.800781 13.824219 14.570312 14.320312 C 13.9375 14.144531 13.769531 13.8125 14.066406 13.316406 C 16.058594 11.105469 18.488281 9.597656 21.351562 8.792969 Z M 21.351562 8.792969 "/>
<path style=" stroke:none;fill-rule:evenodd;fill:rgb(41.176471%,55.294118%,16.078431%);fill-opacity:1;" d="M 47.476562 8.792969 C 47.53125 9.105469 47.699219 9.355469 47.976562 9.546875 C 46.785156 10.640625 45.613281 11.730469 44.460938 12.8125 C 45.34375 13.917969 46.515625 14.503906 47.976562 14.574219 C 44.59375 16.851562 41.078125 18.691406 37.429688 20.101562 C 38.203125 18.636719 39.039062 17.210938 39.941406 15.828125 C 39.21875 14.796875 38.210938 14.296875 36.925781 14.320312 C 37.277344 13.207031 37.949219 12.285156 38.933594 11.558594 C 41.507812 9.765625 44.355469 8.847656 47.476562 8.792969 Z M 47.476562 8.792969 "/>
<path style=" stroke:none;fill-rule:evenodd;fill:rgb(20%,28.235294%,6.27451%);fill-opacity:1;" d="M 55.515625 9.800781 C 58.429688 11.035156 60.941406 12.875 63.050781 15.328125 C 60.21875 15.742188 57.371094 15.996094 54.507812 16.082031 C 53.902344 16.527344 53.902344 16.949219 54.507812 17.335938 C 55.671875 17.695312 56.757812 18.199219 57.773438 18.84375 C 58.085938 19.320312 58 19.738281 57.523438 20.101562 C 54.175781 22.109375 50.824219 24.121094 47.476562 26.128906 C 46.097656 26.621094 44.675781 26.871094 43.207031 26.882812 C 37.128906 25.785156 36.878906 26.539062 42.453125 29.144531 C 40.957031 29.5 39.617188 30.085938 38.433594 30.90625 C 37.074219 31 35.902344 31.5 34.917969 32.410156 C 34.832031 31.746094 35 31.160156 35.417969 30.652344 C 37.53125 30.726562 38.117188 29.972656 37.175781 28.390625 C 35.769531 27.753906 34.847656 26.746094 34.414062 25.375 C 36.097656 25.460938 37.769531 25.375 39.4375 25.125 C 41.746094 23.882812 44.089844 22.796875 46.472656 21.859375 C 48.257812 21.636719 49.761719 20.882812 50.992188 19.597656 C 50.324219 18.089844 49.652344 16.582031 48.984375 15.074219 C 51.382812 13.546875 53.5625 11.789062 55.515625 9.800781 Z M 55.515625 9.800781 "/>
<path style=" stroke:none;fill-rule:evenodd;fill:rgb(27.058824%,40.784314%,7.843137%);fill-opacity:1;" d="M 47.476562 8.792969 C 47.8125 8.792969 48.144531 8.792969 48.480469 8.792969 C 50.925781 8.601562 53.269531 8.9375 55.515625 9.800781 C 53.5625 11.789062 51.382812 13.546875 48.984375 15.074219 C 49.652344 16.582031 50.324219 18.089844 50.992188 19.597656 C 49.761719 20.882812 48.257812 21.636719 46.472656 21.859375 C 42.660156 22.925781 38.808594 23.09375 34.917969 22.363281 C 34.917969 21.859375 34.917969 21.355469 34.917969 20.855469 C 35.964844 20.878906 36.636719 20.375 36.925781 19.347656 C 36.042969 17.984375 35.707031 16.476562 35.921875 14.824219 C 36.089844 14.824219 36.257812 14.824219 36.421875 14.824219 C 36.757812 14.824219 36.925781 14.65625 36.925781 14.320312 C 38.210938 14.296875 39.21875 14.796875 39.941406 15.828125 C 39.039062 17.210938 38.203125 18.636719 37.429688 20.101562 C 41.078125 18.691406 44.59375 16.851562 47.976562 14.574219 C 46.515625 14.503906 45.34375 13.917969 44.460938 12.8125 C 45.613281 11.730469 46.785156 10.640625 47.976562 9.546875 C 47.699219 9.355469 47.53125 9.105469 47.476562 8.792969 Z M 47.476562 8.792969 "/>
<path style=" stroke:none;fill-rule:evenodd;fill:rgb(18.823529%,26.666667%,7.058824%);fill-opacity:1;" d="M 22.859375 18.84375 C 25.226562 19.191406 27.574219 19.863281 29.890625 20.855469 C 28.699219 22.050781 27.359375 23.054688 25.875 23.871094 C 25.539062 21.691406 24.367188 20.183594 22.355469 19.347656 C 22.417969 19.042969 22.585938 18.875 22.859375 18.84375 Z M 22.859375 18.84375 "/>
<path style=" stroke:none;fill-rule:evenodd;fill:rgb(97.254902%,10.980392%,25.490196%);fill-opacity:1;" d="M 80.132812 32.410156 C 79.796875 32.578125 79.460938 32.746094 79.125 32.914062 C 78.710938 34.179688 78.628906 35.519531 78.875 36.933594 C 77.003906 38.546875 75.914062 40.558594 75.609375 42.964844 C 77.351562 43.277344 78.777344 42.777344 79.878906 41.457031 C 80.332031 39.277344 80.75 37.101562 81.136719 34.925781 C 81.136719 34.421875 81.136719 33.917969 81.136719 33.417969 C 81.699219 30.777344 82.703125 28.265625 84.152344 25.878906 C 83.542969 24.214844 82.707031 22.710938 81.640625 21.355469 C 81.722656 21.023438 81.804688 20.6875 81.890625 20.351562 C 82.226562 20.730469 82.644531 20.898438 83.144531 20.855469 C 83.839844 21.394531 84.425781 22.0625 84.90625 22.863281 C 86.046875 26.441406 85.628906 29.792969 83.648438 32.914062 C 82.839844 35.804688 82.335938 38.816406 82.140625 41.960938 C 81.160156 43.222656 80.320312 44.5625 79.628906 45.980469 C 78.863281 46.386719 78.023438 46.722656 77.117188 46.984375 C 75.910156 46.800781 74.738281 46.464844 73.601562 45.980469 C 72.632812 46.023438 72.046875 46.527344 71.84375 47.488281 C 71.25 51.640625 72.003906 55.492188 74.101562 59.046875 C 74.636719 59.585938 74.636719 60.089844 74.101562 60.554688 C 73.640625 60.238281 73.140625 60.070312 72.59375 60.050781 C 70.609375 58.984375 69.019531 57.476562 67.824219 55.527344 C 67.683594 55.988281 67.433594 56.324219 67.070312 56.53125 C 66.707031 55.394531 66.539062 54.222656 66.566406 53.015625 C 66.066406 53.015625 65.5625 53.015625 65.058594 53.015625 C 64.984375 52.488281 65.066406 51.984375 65.3125 51.507812 C 69.097656 49.960938 70.4375 47.28125 69.332031 43.46875 C 68.953125 45.222656 68.367188 45.222656 67.570312 43.46875 C 67.957031 43.085938 68.207031 42.582031 68.324219 41.960938 C 71.070312 39.839844 73.582031 37.492188 75.859375 34.925781 C 79.078125 29.929688 77.992188 26.328125 72.59375 24.121094 C 68.488281 22.953125 64.46875 23.121094 60.539062 24.625 C 59.414062 25.445312 58.746094 26.535156 58.527344 27.890625 C 58.121094 28.960938 57.867188 30.132812 57.773438 31.40625 C 56.785156 29.53125 56.285156 27.523438 56.269531 25.375 C 56 26.679688 55.578125 27.9375 55.011719 29.144531 C 55.699219 30.660156 56.035156 32.25 56.015625 33.917969 C 55.847656 33.917969 55.683594 33.917969 55.515625 33.917969 C 54.871094 32.464844 54.371094 30.957031 54.007812 29.398438 C 54.554688 27.589844 54.890625 25.746094 55.011719 23.871094 C 56.851562 22.195312 59.027344 21.191406 61.542969 20.855469 C 65.996094 19.863281 70.515625 19.613281 75.109375 20.101562 C 78.539062 20.695312 80.882812 22.539062 82.140625 25.628906 C 82.058594 26.046875 81.972656 26.464844 81.890625 26.882812 C 81.621094 24.214844 81.03125 23.964844 80.132812 26.128906 C 81.433594 28.230469 81.433594 30.324219 80.132812 32.410156 Z M 80.132812 32.410156 "/>
<path style=" stroke:none;fill-rule:evenodd;fill:rgb(16.470588%,27.45098%,7.45098%);fill-opacity:1;" d="M 9.292969 21.859375 C 9.292969 22.695312 9.292969 23.535156 9.292969 24.371094 C 8.820312 25.152344 8.488281 25.988281 8.289062 26.882812 C 6.9375 26.621094 6.1875 25.785156 6.027344 24.371094 C 5.464844 26.507812 5.128906 28.683594 5.023438 30.90625 C 4.625 30.277344 4.375 29.609375 4.269531 28.894531 C 4.554688 26.449219 5.308594 24.105469 6.53125 21.859375 C 6.675781 22.636719 7.011719 23.304688 7.535156 23.871094 C 8.011719 23.070312 8.597656 22.398438 9.292969 21.859375 Z M 9.292969 21.859375 "/>
<path style=" stroke:none;fill-rule:evenodd;fill:rgb(2.745098%,0.392157%,0.392157%);fill-opacity:1;" d="M 67.570312 43.46875 C 66.238281 41.464844 64.730469 39.625 63.050781 37.941406 C 61.539062 35.667969 60.117188 33.324219 58.78125 30.90625 C 58.53125 29.914062 58.449219 28.90625 58.527344 27.890625 C 58.746094 26.535156 59.414062 25.445312 60.539062 24.625 C 64.46875 23.121094 68.488281 22.953125 72.59375 24.121094 C 77.992188 26.328125 79.078125 29.929688 75.859375 34.925781 C 73.582031 37.492188 71.070312 39.839844 68.324219 41.960938 C 68.207031 42.582031 67.957031 43.085938 67.570312 43.46875 Z M 67.570312 43.46875 "/>
<path style=" stroke:none;fill-rule:evenodd;fill:rgb(46.27451%,59.215686%,20.784314%);fill-opacity:1;" d="M 16.328125 22.363281 C 12.480469 25.371094 9.882812 29.222656 8.539062 33.917969 C 7.652344 31.59375 7.566406 29.246094 8.289062 26.882812 C 8.488281 25.988281 8.820312 25.152344 9.292969 24.371094 C 10.550781 23.199219 11.890625 22.109375 13.3125 21.105469 C 14.675781 20.199219 16.015625 20.199219 17.332031 21.105469 C 16.890625 21.460938 16.554688 21.878906 16.328125 22.363281 Z M 16.328125 22.363281 "/>
<path style=" stroke:none;fill-rule:evenodd;fill:rgb(99.215686%,40%,40%);fill-opacity:1;" d="M 83.144531 20.855469 C 82.644531 20.898438 82.226562 20.730469 81.890625 20.351562 C 81.804688 20.6875 81.722656 21.023438 81.640625 21.355469 C 82.707031 22.710938 83.542969 24.214844 84.152344 25.878906 C 82.703125 28.265625 81.699219 30.777344 81.136719 33.417969 C 81.136719 32.746094 80.800781 32.410156 80.132812 32.410156 C 81.433594 30.324219 81.433594 28.230469 80.132812 26.128906 C 81.03125 23.964844 81.621094 24.214844 81.890625 26.882812 C 81.972656 26.464844 82.058594 26.046875 82.140625 25.628906 C 80.882812 22.539062 78.539062 20.695312 75.109375 20.101562 C 70.515625 19.613281 65.996094 19.863281 61.542969 20.855469 C 61.996094 20.523438 62.496094 20.1875 63.050781 19.847656 C 62.152344 19.4375 61.316406 18.9375 60.539062 18.339844 C 63.574219 17.566406 66.671875 17.234375 69.832031 17.335938 C 72.796875 17.304688 75.726562 17.554688 78.625 18.089844 C 80.472656 18.527344 81.980469 19.449219 83.144531 20.855469 Z M 83.144531 20.855469 "/>
<path style=" stroke:none;fill-rule:evenodd;fill:rgb(30.196078%,42.352941%,10.588235%);fill-opacity:1;" d="M 19.34375 29.898438 C 19.34375 30.570312 19.34375 31.238281 19.34375 31.910156 C 20.074219 31.875 20.746094 32.042969 21.351562 32.410156 C 21.015625 33.417969 20.683594 34.421875 20.347656 35.425781 C 19.15625 35.761719 18.152344 36.429688 17.332031 37.4375 C 17.347656 40.261719 16.011719 41.769531 13.3125 41.960938 C 13.171875 40.105469 12.921875 38.265625 12.558594 36.433594 C 12.011719 37.03125 11.589844 37.703125 11.304688 38.441406 C 9.652344 41.097656 7.808594 43.609375 5.777344 45.980469 C 3.289062 40.910156 2.285156 35.550781 2.761719 29.898438 C 3.316406 29.007812 3.734375 28 4.019531 26.882812 C 4.265625 27.535156 4.347656 28.203125 4.269531 28.894531 C 4.375 29.609375 4.625 30.277344 5.023438 30.90625 C 5.128906 28.683594 5.464844 26.507812 6.027344 24.371094 C 6.1875 25.785156 6.9375 26.621094 8.289062 26.882812 C 7.566406 29.246094 7.652344 31.59375 8.539062 33.917969 C 9.882812 29.222656 12.480469 25.371094 16.328125 22.363281 C 17.277344 22.085938 18.117188 21.585938 18.839844 20.855469 C 19.613281 21.828125 20.617188 22.414062 21.855469 22.613281 C 22.1875 22.949219 22.523438 23.28125 22.859375 23.617188 C 22.285156 23.992188 22.285156 24.410156 22.859375 24.875 C 22.105469 25.152344 21.265625 25.152344 20.347656 24.875 C 20.167969 25.898438 20.167969 26.820312 20.347656 27.636719 C 19.84375 27.804688 19.34375 27.972656 18.839844 28.140625 C 19.261719 28.648438 19.425781 29.234375 19.34375 29.898438 Z M 19.34375 29.898438 "/>
<path style=" stroke:none;fill-rule:evenodd;fill:rgb(84.705882%,2.352941%,16.862745%);fill-opacity:1;" d="M 55.011719 23.871094 C 54.890625 25.746094 54.554688 27.589844 54.007812 29.398438 C 54.371094 30.957031 54.871094 32.464844 55.515625 33.917969 C 54.550781 32.507812 53.464844 31.167969 52.25 29.898438 C 51.027344 30.390625 49.769531 30.726562 48.480469 30.90625 C 48 30.320312 47.5 29.734375 46.972656 29.144531 C 49.429688 27.117188 52.109375 25.359375 55.011719 23.871094 Z M 55.011719 23.871094 "/>
<path style=" stroke:none;fill-rule:evenodd;fill:rgb(25.490196%,35.294118%,7.843137%);fill-opacity:1;" d="M 35.921875 14.824219 C 35.707031 16.476562 36.042969 17.984375 36.925781 19.347656 C 36.636719 20.375 35.964844 20.878906 34.917969 20.855469 C 34.917969 21.355469 34.917969 21.859375 34.917969 22.363281 C 38.808594 23.09375 42.660156 22.925781 46.472656 21.859375 C 44.089844 22.796875 41.746094 23.882812 39.4375 25.125 C 37.769531 25.375 36.097656 25.460938 34.414062 25.375 C 34.847656 26.746094 35.769531 27.753906 37.175781 28.390625 C 38.117188 29.972656 37.53125 30.726562 35.417969 30.652344 C 35 31.160156 34.832031 31.746094 34.917969 32.410156 C 34.273438 33.019531 34.273438 33.6875 34.917969 34.421875 C 38.71875 35.328125 42.402344 36.582031 45.96875 38.191406 C 46.304688 38.527344 46.640625 38.859375 46.972656 39.195312 C 44.539062 39.46875 42.195312 39.972656 39.941406 40.703125 C 42.132812 41.378906 44.3125 42.132812 46.472656 42.964844 C 46.929688 43.761719 46.929688 44.515625 46.472656 45.226562 C 46.753906 46.066406 47.253906 46.738281 47.976562 47.234375 C 47.199219 48.96875 45.859375 49.972656 43.960938 50.25 C 42.582031 51.585938 41.574219 52.925781 40.945312 54.269531 C 38.753906 55.148438 36.742188 56.320312 34.917969 57.789062 C 34.042969 58.117188 33.207031 58.03125 32.40625 57.539062 C 31.804688 57.710938 31.804688 57.960938 32.40625 58.292969 C 30.175781 58.820312 28.164062 59.742188 26.375 61.054688 C 25.257812 60.777344 24.417969 60.105469 23.863281 59.046875 C 31.03125 58.222656 37.230469 55.375 42.453125 50.503906 C 42.011719 50.125 41.507812 49.875 40.945312 49.75 C 39.101562 49.582031 37.261719 49.414062 35.417969 49.246094 C 34.75 48.742188 34.75 48.242188 35.417969 47.738281 C 38.351562 46.671875 41.363281 45.917969 44.460938 45.476562 C 42.753906 43.988281 40.746094 43.234375 38.433594 43.214844 C 34.570312 42.890625 30.71875 42.976562 26.878906 43.46875 C 26.792969 42.804688 26.960938 42.214844 27.378906 41.707031 C 29.390625 40.535156 31.398438 39.363281 33.410156 38.191406 C 26.800781 37.992188 21.023438 40.085938 16.078125 44.472656 C 15.054688 46.011719 14.46875 47.6875 14.316406 49.496094 C 12.898438 48.34375 11.976562 46.835938 11.554688 44.976562 C 11.480469 42.699219 11.394531 40.519531 11.304688 38.441406 C 11.589844 37.703125 12.011719 37.03125 12.558594 36.433594 C 12.921875 38.265625 13.171875 40.105469 13.3125 41.960938 C 16.011719 41.769531 17.347656 40.261719 17.332031 37.4375 C 18.152344 36.429688 19.15625 35.761719 20.347656 35.425781 C 20.683594 34.421875 21.015625 33.417969 21.351562 32.410156 C 21.792969 32.347656 22.125 32.515625 22.355469 32.914062 C 20.855469 34.902344 19.9375 37.078125 19.59375 39.445312 C 21.433594 37.355469 23.191406 35.175781 24.867188 32.914062 C 24.070312 31.84375 23.066406 31.003906 21.855469 30.402344 C 25.566406 26.453125 29.753906 23.101562 34.414062 20.351562 C 32.328125 19.574219 30.320312 18.652344 28.386719 17.589844 C 30.535156 15.734375 33.046875 14.8125 35.921875 14.824219 Z M 35.921875 14.824219 "/>
<use xlink:href="#surface14" mask="url(#mask3)"/>
<use xlink:href="#surface17" mask="url(#mask4)"/>
<path style=" stroke:none;fill-rule:evenodd;fill:rgb(81.960784%,78.039216%,71.764706%);fill-opacity:1;" d="M 89.675781 27.386719 C 92.453125 27.09375 94.128906 28.265625 94.699219 30.90625 C 92.546875 31.261719 90.371094 31.511719 88.167969 31.660156 C 87.917969 31.910156 87.667969 32.160156 87.417969 32.410156 C 87.222656 30.289062 87.976562 28.613281 89.675781 27.386719 Z M 89.675781 27.386719 "/>
<path style=" stroke:none;fill-rule:evenodd;fill:rgb(94.117647%,18.039216%,25.882353%);fill-opacity:1;" d="M 55.515625 33.917969 C 55.703125 34.804688 56.039062 35.640625 56.519531 36.433594 C 56.351562 36.601562 56.183594 36.765625 56.015625 36.933594 C 54.386719 35.535156 52.546875 34.527344 50.492188 33.917969 C 48.089844 32.339844 45.410156 31.671875 42.453125 31.910156 C 42.453125 31.742188 42.453125 31.574219 42.453125 31.40625 C 44.359375 30.914062 46.371094 30.746094 48.480469 30.90625 C 49.769531 30.726562 51.027344 30.390625 52.25 29.898438 C 53.464844 31.167969 54.550781 32.507812 55.515625 33.917969 Z M 55.515625 33.917969 "/>
<use xlink:href="#surface20" mask="url(#mask5)"/>
<path style=" stroke:none;fill-rule:evenodd;fill:rgb(70.196078%,9.019608%,17.647059%);fill-opacity:1;" d="M 42.453125 31.40625 C 42.453125 31.574219 42.453125 31.742188 42.453125 31.910156 C 38.539062 32.703125 38.707031 33.371094 42.953125 33.917969 C 43.59375 34.316406 44.09375 34.816406 44.460938 35.425781 C 42.316406 34.765625 40.140625 34.179688 37.929688 33.667969 C 37.261719 33.332031 37.261719 33 37.929688 32.664062 C 38.554688 32.265625 39.226562 32.015625 39.941406 31.910156 C 40.714844 31.507812 41.550781 31.339844 42.453125 31.40625 Z M 42.453125 31.40625 "/>
<path style=" stroke:none;fill-rule:evenodd;fill:rgb(99.215686%,80%,78.823529%);fill-opacity:1;" d="M 80.132812 32.410156 C 80.800781 32.410156 81.136719 32.746094 81.136719 33.417969 C 81.136719 33.917969 81.136719 34.421875 81.136719 34.925781 C 79.628906 35.09375 78.960938 34.421875 79.125 32.914062 C 79.460938 32.746094 79.796875 32.578125 80.132812 32.410156 Z M 80.132812 32.410156 "/>
<path style=" stroke:none;fill-rule:evenodd;fill:rgb(85.098039%,3.137255%,15.686275%);fill-opacity:1;" d="M 42.453125 31.910156 C 45.410156 31.671875 48.089844 32.339844 50.492188 33.917969 C 47.375 32.835938 46.875 33.421875 48.984375 35.679688 C 49.460938 35.921875 49.960938 36.003906 50.492188 35.929688 C 50.863281 37.035156 51.03125 38.039062 50.992188 38.945312 C 48.730469 37.898438 46.554688 36.726562 44.460938 35.425781 C 44.09375 34.816406 43.59375 34.316406 42.953125 33.917969 C 38.707031 33.371094 38.539062 32.703125 42.453125 31.910156 Z M 42.453125 31.910156 "/>
<path style=" stroke:none;fill-rule:evenodd;fill:rgb(89.019608%,19.215686%,23.921569%);fill-opacity:1;" d="M 85.15625 39.445312 C 84.6875 38.910156 84.519531 38.242188 84.652344 37.4375 C 84.820312 36.097656 85.492188 35.089844 86.664062 34.421875 C 87.707031 35.714844 88.375 37.222656 88.671875 38.945312 C 87.546875 39.433594 86.375 39.601562 85.15625 39.445312 Z M 85.15625 39.445312 "/>
<use xlink:href="#surface23" mask="url(#mask6)"/>
<path style=" stroke:none;fill-rule:evenodd;fill:rgb(31.372549%,1.176471%,5.490196%);fill-opacity:1;" d="M 83.648438 35.929688 C 83.566406 37.113281 83.648438 38.285156 83.898438 39.445312 C 84.003906 38.664062 84.257812 37.996094 84.652344 37.4375 C 84.519531 38.242188 84.6875 38.910156 85.15625 39.445312 C 85.65625 39.78125 86.160156 40.117188 86.664062 40.453125 C 85.511719 40.582031 84.421875 40.414062 83.398438 39.949219 C 82.996094 38.507812 83.078125 37.167969 83.648438 35.929688 Z M 83.648438 35.929688 "/>
<path style=" stroke:none;fill-rule:evenodd;fill:rgb(5.098039%,2.352941%,1.176471%);fill-opacity:1;" d="M 38.433594 30.90625 C 39.277344 30.796875 39.777344 31.132812 39.941406 31.910156 C 39.226562 32.015625 38.554688 32.265625 37.929688 32.664062 C 37.261719 33 37.261719 33.332031 37.929688 33.667969 C 40.140625 34.179688 42.316406 34.765625 44.460938 35.425781 C 46.554688 36.726562 48.730469 37.898438 50.992188 38.945312 C 50.992188 39.445312 50.992188 39.949219 50.992188 40.453125 C 50.1875 40.359375 49.515625 40.609375 48.984375 41.207031 C 52.289062 44.230469 55.304688 47.496094 58.027344 51.003906 C 58.394531 51.613281 58.5625 52.28125 58.527344 53.015625 C 52.9375 51.921875 48.25 53.429688 44.460938 57.539062 C 42.96875 58.621094 41.460938 59.710938 39.941406 60.804688 C 41.671875 60.757812 43.175781 60.171875 44.460938 59.046875 C 45.203125 58.914062 45.875 59.082031 46.472656 59.546875 C 45.363281 61.09375 44.527344 62.769531 43.960938 64.574219 C 42.71875 65.902344 41.546875 67.324219 40.441406 68.84375 C 41.824219 69.648438 43.328125 70.070312 44.964844 70.101562 C 45.871094 70.582031 46.875 70.917969 47.976562 71.105469 C 47.976562 71.609375 47.976562 72.109375 47.976562 72.613281 C 48.820312 72.503906 49.324219 72.839844 49.484375 73.617188 C 44.953125 72.359375 40.429688 71.019531 35.921875 69.597656 C 38.433594 68.089844 40.441406 66.082031 41.949219 63.566406 C 39.792969 63.152344 37.613281 62.902344 35.417969 62.8125 C 34.679688 62.457031 34.34375 61.871094 34.414062 61.054688 C 36.332031 60.601562 38.171875 59.847656 39.941406 58.792969 C 42.640625 56.257812 45.488281 53.914062 48.480469 51.757812 C 50.476562 51.332031 52.484375 50.996094 54.507812 50.753906 C 52.558594 47.378906 49.882812 44.785156 46.472656 42.964844 C 44.3125 42.132812 42.132812 41.378906 39.941406 40.703125 C 42.195312 39.972656 44.539062 39.46875 46.972656 39.195312 C 46.640625 38.859375 46.304688 38.527344 45.96875 38.191406 C 42.402344 36.582031 38.71875 35.328125 34.917969 34.421875 C 34.273438 33.6875 34.273438 33.019531 34.917969 32.410156 C 35.902344 31.5 37.074219 31 38.433594 30.90625 Z M 38.433594 30.90625 "/>
<path style=" stroke:none;fill-rule:evenodd;fill:rgb(85.098039%,82.352941%,79.215686%);fill-opacity:1;" d="M 88.671875 33.417969 C 92.277344 33.277344 93.785156 34.953125 93.195312 38.441406 C 92.234375 38.867188 91.230469 39.035156 90.179688 38.945312 C 89.777344 37.066406 89.273438 35.226562 88.671875 33.417969 Z M 88.671875 33.417969 "/>
<path style=" stroke:none;fill-rule:evenodd;fill:rgb(100%,37.254902%,36.470588%);fill-opacity:1;" d="M 79.125 32.914062 C 78.960938 34.421875 79.628906 35.09375 81.136719 34.925781 C 80.75 37.101562 80.332031 39.277344 79.878906 41.457031 C 78.777344 42.777344 77.351562 43.277344 75.609375 42.964844 C 75.914062 40.558594 77.003906 38.546875 78.875 36.933594 C 78.628906 35.519531 78.710938 34.179688 79.125 32.914062 Z M 79.125 32.914062 "/>
<path style=" stroke:none;fill-rule:evenodd;fill:rgb(99.215686%,34.901961%,31.764706%);fill-opacity:1;" d="M 58.527344 27.890625 C 58.449219 28.90625 58.53125 29.914062 58.78125 30.90625 C 60.117188 33.324219 61.539062 35.667969 63.050781 37.941406 C 64.328125 40.660156 64.746094 43.507812 64.304688 46.480469 C 63.410156 47.71875 62.234375 48.554688 60.789062 48.996094 C 58.195312 45.648438 56.269531 41.960938 55.011719 37.941406 C 57.039062 38.199219 58.628906 39.207031 59.785156 40.953125 C 59.867188 40.789062 59.953125 40.621094 60.035156 40.453125 C 58.5625 38.34375 57.226562 36.167969 56.015625 33.917969 C 56.035156 32.25 55.699219 30.660156 55.011719 29.144531 C 55.578125 27.9375 56 26.679688 56.269531 25.375 C 56.285156 27.523438 56.785156 29.53125 57.773438 31.40625 C 57.867188 30.132812 58.121094 28.960938 58.527344 27.890625 Z M 58.527344 27.890625 "/>
<path style=" stroke:none;fill-rule:evenodd;fill:rgb(87.843137%,85.490196%,81.176471%);fill-opacity:1;" d="M 90.683594 40.953125 C 92.023438 40.953125 93.359375 40.953125 94.699219 40.953125 C 94.699219 42.460938 94.699219 43.96875 94.699219 45.476562 C 91.652344 45.59375 90.3125 44.085938 90.683594 40.953125 Z M 90.683594 40.953125 "/>
<path style=" stroke:none;fill-rule:evenodd;fill:rgb(83.137255%,79.607843%,76.470588%);fill-opacity:1;" d="M 95.707031 40.953125 C 97.46875 40.640625 98.894531 41.144531 99.976562 42.460938 C 100.617188 45.1875 99.53125 46.191406 96.710938 45.476562 C 95.824219 44.160156 95.488281 42.652344 95.707031 40.953125 Z M 95.707031 40.953125 "/>
<path style=" stroke:none;fill-rule:evenodd;fill:rgb(38.039216%,53.72549%,20%);fill-opacity:1;" d="M 26.375 61.054688 C 27.851562 62.300781 29.527344 63.304688 31.398438 64.070312 C 31.988281 64.671875 31.820312 65.003906 30.898438 65.074219 C 27.644531 64.875 24.464844 64.375 21.351562 63.566406 C 21.183594 63.566406 21.015625 63.566406 20.847656 63.566406 C 19.269531 62.523438 17.761719 61.351562 16.328125 60.050781 C 15.546875 58.835938 15.214844 57.496094 15.324219 56.03125 C 17.546875 55.878906 19.722656 55.546875 21.855469 55.023438 C 24.339844 54.726562 26.683594 53.972656 28.886719 52.765625 C 29.660156 52.207031 29.996094 51.453125 29.890625 50.503906 C 24.726562 50.292969 19.703125 50.292969 14.820312 50.503906 C 14.652344 50.167969 14.484375 49.832031 14.316406 49.496094 C 14.46875 47.6875 15.054688 46.011719 16.078125 44.472656 C 21.023438 40.085938 26.800781 37.992188 33.410156 38.191406 C 31.398438 39.363281 29.390625 40.535156 27.378906 41.707031 C 26.960938 42.214844 26.792969 42.804688 26.878906 43.46875 C 30.71875 42.976562 34.570312 42.890625 38.433594 43.214844 C 40.746094 43.234375 42.753906 43.988281 44.460938 45.476562 C 41.363281 45.917969 38.351562 46.671875 35.417969 47.738281 C 34.75 48.242188 34.75 48.742188 35.417969 49.246094 C 37.261719 49.414062 39.101562 49.582031 40.945312 49.75 C 41.507812 49.875 42.011719 50.125 42.453125 50.503906 C 37.230469 55.375 31.03125 58.222656 23.863281 59.046875 C 24.417969 60.105469 25.257812 60.777344 26.375 61.054688 Z M 26.375 61.054688 "/>
<path style=" stroke:none;fill-rule:evenodd;fill:rgb(7.843137%,1.176471%,0.784314%);fill-opacity:1;" d="M 79.628906 45.980469 C 81.109375 45.839844 82.535156 46.007812 83.898438 46.480469 C 84.242188 47.128906 84.160156 47.714844 83.648438 48.242188 C 82.140625 48.742188 80.632812 49.246094 79.125 49.75 C 80.671875 49.921875 82.179688 50.257812 83.648438 50.753906 C 84.398438 51.769531 84.230469 52.605469 83.144531 53.265625 C 81.625 53.515625 80.117188 53.433594 78.625 53.015625 C 77.054688 52.363281 75.878906 51.277344 75.109375 49.75 C 75.308594 48.460938 75.980469 47.539062 77.117188 46.984375 C 78.023438 46.722656 78.863281 46.386719 79.628906 45.980469 Z M 79.628906 45.980469 "/>
<path style=" stroke:none;fill-rule:evenodd;fill:rgb(97.254902%,31.764706%,34.509804%);fill-opacity:1;" d="M 83.648438 32.914062 C 83.648438 33.917969 83.648438 34.925781 83.648438 35.929688 C 83.078125 37.167969 82.996094 38.507812 83.398438 39.949219 C 84.421875 40.414062 85.511719 40.582031 86.664062 40.453125 C 87.667969 40.453125 88.671875 40.453125 89.675781 40.453125 C 89.421875 42.605469 89.753906 44.613281 90.683594 46.480469 C 89.765625 47.476562 89.265625 48.648438 89.175781 50 C 89.511719 51.511719 89.847656 53.019531 90.179688 54.523438 C 89.644531 55.761719 88.972656 56.933594 88.167969 58.039062 C 88.066406 56.824219 88.234375 55.652344 88.671875 54.523438 C 88.300781 54.128906 87.882812 53.792969 87.417969 53.519531 C 84.402344 54.652344 81.472656 54.484375 78.625 53.015625 C 80.117188 53.433594 81.625 53.515625 83.144531 53.265625 C 84.230469 52.605469 84.398438 51.769531 83.648438 50.753906 C 82.179688 50.257812 80.671875 49.921875 79.125 49.75 C 80.632812 49.246094 82.140625 48.742188 83.648438 48.242188 C 84.160156 47.714844 84.242188 47.128906 83.898438 46.480469 C 82.535156 46.007812 81.109375 45.839844 79.628906 45.980469 C 80.320312 44.5625 81.160156 43.222656 82.140625 41.960938 C 82.335938 38.816406 82.839844 35.804688 83.648438 32.914062 Z M 83.648438 32.914062 "/>
<path style=" stroke:none;fill-rule:evenodd;fill:rgb(86.666667%,85.098039%,83.529412%);fill-opacity:1;" d="M 95.203125 51.507812 C 95.203125 51.84375 95.203125 52.175781 95.203125 52.511719 C 94.078125 53.035156 92.90625 53.117188 91.6875 52.765625 C 90.402344 51.21875 90.402344 49.710938 91.6875 48.242188 C 94.90625 46.851562 96.078125 47.941406 95.203125 51.507812 Z M 95.203125 51.507812 "/>
<use xlink:href="#surface26" mask="url(#mask7)"/>
<path style=" stroke:none;fill-rule:evenodd;fill:rgb(93.72549%,2.352941%,20.392157%);fill-opacity:1;" d="M 50.492188 33.917969 C 52.546875 34.527344 54.386719 35.535156 56.015625 36.933594 C 56.183594 36.765625 56.351562 36.601562 56.519531 36.433594 C 56.039062 35.640625 55.703125 34.804688 55.515625 33.917969 C 55.683594 33.917969 55.847656 33.917969 56.015625 33.917969 C 57.226562 36.167969 58.5625 38.34375 60.035156 40.453125 C 59.953125 40.621094 59.867188 40.789062 59.785156 40.953125 C 58.628906 39.207031 57.039062 38.199219 55.011719 37.941406 C 56.269531 41.960938 58.195312 45.648438 60.789062 48.996094 C 62.234375 48.554688 63.410156 47.71875 64.304688 46.480469 C 64.746094 43.507812 64.328125 40.660156 63.050781 37.941406 C 64.730469 39.625 66.238281 41.464844 67.570312 43.46875 C 68.367188 45.222656 68.953125 45.222656 69.332031 43.46875 C 70.4375 47.28125 69.097656 49.960938 65.3125 51.507812 C 65.066406 51.984375 64.984375 52.488281 65.058594 53.015625 C 65.5625 53.015625 66.066406 53.015625 66.566406 53.015625 C 66.539062 54.222656 66.707031 55.394531 67.070312 56.53125 C 66.417969 58.007812 65.410156 59.179688 64.054688 60.050781 C 65.605469 55.675781 64.433594 52.324219 60.539062 50 C 60.59375 51.074219 60.425781 52.246094 60.035156 53.519531 C 59.539062 52.46875 58.871094 51.632812 58.027344 51.003906 C 55.304688 47.496094 52.289062 44.230469 48.984375 41.207031 C 49.515625 40.609375 50.1875 40.359375 50.992188 40.453125 C 50.992188 39.949219 50.992188 39.445312 50.992188 38.945312 C 51.03125 38.039062 50.863281 37.035156 50.492188 35.929688 C 49.960938 36.003906 49.460938 35.921875 48.984375 35.679688 C 46.875 33.421875 47.375 32.835938 50.492188 33.917969 Z M 50.492188 33.917969 "/>
<path style=" stroke:none;fill-rule:evenodd;fill:rgb(84.705882%,80.392157%,77.254902%);fill-opacity:1;" d="M 99.726562 47.988281 C 101.109375 48.769531 101.527344 49.941406 100.980469 51.507812 C 99.476562 53.253906 97.886719 53.421875 96.207031 52.011719 C 96.125 50.660156 96.210938 49.320312 96.460938 47.988281 C 97.523438 47.433594 98.613281 47.433594 99.726562 47.988281 Z M 99.726562 47.988281 "/>
<path style=" stroke:none;fill-rule:evenodd;fill:rgb(30.980392%,40.392157%,11.372549%);fill-opacity:1;" d="M 21.855469 55.023438 C 21.855469 54.355469 21.519531 54.019531 20.847656 54.019531 C 18.222656 53.878906 16.210938 52.707031 14.820312 50.503906 C 19.703125 50.292969 24.726562 50.292969 29.890625 50.503906 C 29.996094 51.453125 29.660156 52.207031 28.886719 52.765625 C 26.683594 53.972656 24.339844 54.726562 21.855469 55.023438 Z M 21.855469 55.023438 "/>
<path style=" stroke:none;fill-rule:evenodd;fill:rgb(99.215686%,32.54902%,30.196078%);fill-opacity:1;" d="M 64.054688 60.050781 C 62.207031 62.75 60.363281 65.429688 58.527344 68.089844 C 58.644531 67.160156 58.308594 66.738281 57.523438 66.835938 C 56.34375 68.121094 55.421875 69.546875 54.761719 71.105469 C 54.558594 70.992188 54.476562 70.824219 54.507812 70.601562 C 54.566406 67.050781 55.574219 63.785156 57.523438 60.804688 C 56.4375 61.21875 55.601562 62.054688 55.011719 63.316406 C 52.082031 63.503906 49.902344 62.25 48.480469 59.546875 C 48.71875 59.054688 49.054688 58.636719 49.484375 58.292969 C 50.457031 58.164062 51.378906 57.914062 52.25 57.539062 C 52.496094 57.011719 52.414062 56.507812 51.996094 56.03125 C 52.566406 55.464844 52.902344 54.796875 53.003906 54.019531 C 54.898438 53.71875 56.738281 53.382812 58.527344 53.015625 C 58.5625 52.28125 58.394531 51.613281 58.027344 51.003906 C 58.871094 51.632812 59.539062 52.46875 60.035156 53.519531 C 60.425781 52.246094 60.59375 51.074219 60.539062 50 C 64.433594 52.324219 65.605469 55.675781 64.054688 60.050781 Z M 64.054688 60.050781 "/>
<path style=" stroke:none;fill-rule:evenodd;fill:rgb(99.215686%,50.588235%,44.705882%);fill-opacity:1;" d="M 77.117188 46.984375 C 75.980469 47.539062 75.308594 48.460938 75.109375 49.75 C 75.878906 51.277344 77.054688 52.363281 78.625 53.015625 C 78.183594 52.949219 77.847656 53.117188 77.621094 53.519531 C 78.945312 55.332031 79.867188 57.34375 80.382812 59.546875 C 81.128906 63.367188 81.628906 67.21875 81.890625 71.105469 C 82.25 71.378906 82.5 71.714844 82.644531 72.109375 C 82.230469 73.269531 81.558594 74.277344 80.632812 75.125 C 81.457031 69.820312 80.203125 65.128906 76.867188 61.054688 C 76.136719 60.066406 75.214844 59.398438 74.101562 59.046875 C 72.003906 55.492188 71.25 51.640625 71.84375 47.488281 C 72.046875 46.527344 72.632812 46.023438 73.601562 45.980469 C 74.738281 46.464844 75.910156 46.800781 77.117188 46.984375 Z M 77.117188 46.984375 "/>
<path style=" stroke:none;fill-rule:evenodd;fill:rgb(3.921569%,0.784314%,0.392157%);fill-opacity:1;" d="M 72.59375 60.050781 C 76.246094 63.410156 77.667969 67.597656 76.867188 72.613281 C 76.339844 73.050781 75.921875 73.554688 75.609375 74.121094 C 75.054688 74.148438 74.550781 74.316406 74.101562 74.625 C 72.214844 75.117188 70.289062 75.453125 68.324219 75.628906 C 66.144531 75.125 64.054688 75.125 62.046875 75.628906 C 61.578125 76.164062 61.410156 76.835938 61.542969 77.636719 C 64.222656 77.636719 66.902344 77.636719 69.582031 77.636719 C 69.917969 77.636719 70.25 77.636719 70.585938 77.636719 C 70.921875 77.972656 71.253906 78.308594 71.589844 78.644531 C 70.339844 79.523438 69.167969 80.53125 68.074219 81.660156 C 69.375 82.152344 70.714844 82.316406 72.09375 82.160156 C 73.097656 82.160156 74.101562 82.160156 75.109375 82.160156 C 75.109375 82.664062 75.109375 83.164062 75.109375 83.667969 C 71.996094 83.507812 68.984375 83.671875 66.066406 84.171875 C 66.066406 84.339844 66.066406 84.507812 66.066406 84.671875 C 65.730469 84.671875 65.5625 84.839844 65.5625 85.175781 C 64.558594 86.011719 63.550781 86.851562 62.546875 87.6875 C 62.65625 86.84375 62.320312 86.34375 61.542969 86.179688 C 62.144531 85.792969 62.644531 85.289062 63.050781 84.671875 C 64.464844 83.191406 65.636719 81.519531 66.566406 79.648438 C 66.679688 79.25 66.261719 79.082031 65.3125 79.144531 C 61.640625 80.714844 57.871094 80.964844 54.007812 79.898438 C 55.683594 78.894531 57.355469 77.890625 59.03125 76.882812 C 55.980469 75.449219 52.796875 74.359375 49.484375 73.617188 C 49.324219 72.839844 48.820312 72.503906 47.976562 72.613281 C 47.976562 72.109375 47.976562 71.609375 47.976562 71.105469 C 51.773438 72.371094 55.625 73.542969 59.535156 74.625 C 58.691406 72.570312 58.355469 70.390625 58.527344 68.089844 C 60.363281 65.429688 62.207031 62.75 64.054688 60.050781 C 65.410156 59.179688 66.417969 58.007812 67.070312 56.53125 C 67.433594 56.324219 67.683594 55.988281 67.824219 55.527344 C 69.019531 57.476562 70.609375 58.984375 72.59375 60.050781 Z M 72.59375 60.050781 "/>
<path style=" stroke:none;fill-rule:evenodd;fill:rgb(83.137255%,81.960784%,80%);fill-opacity:1;" d="M 90.683594 59.546875 C 90.117188 58.449219 90.117188 57.277344 90.683594 56.03125 C 91.816406 54.984375 93.070312 54.816406 94.449219 55.527344 C 94.40625 56.84375 94.324219 58.183594 94.199219 59.546875 C 93.027344 59.546875 91.855469 59.546875 90.683594 59.546875 Z M 90.683594 59.546875 "/>
<path style=" stroke:none;fill-rule:evenodd;fill:rgb(83.529412%,81.176471%,79.607843%);fill-opacity:1;" d="M 95.707031 55.023438 C 96.890625 54.941406 98.0625 55.027344 99.222656 55.277344 C 100.5625 56.449219 100.5625 57.621094 99.222656 58.792969 C 98.097656 59.285156 96.925781 59.535156 95.707031 59.546875 C 95.707031 58.039062 95.707031 56.53125 95.707031 55.023438 Z M 95.707031 55.023438 "/>
<path style=" stroke:none;fill-rule:evenodd;fill:rgb(38.823529%,16.470588%,13.333333%);fill-opacity:1;" d="M 44.460938 57.539062 C 44.152344 58.191406 44.152344 58.691406 44.460938 59.046875 C 43.175781 60.171875 41.671875 60.757812 39.941406 60.804688 C 41.460938 59.710938 42.96875 58.621094 44.460938 57.539062 Z M 44.460938 57.539062 "/>
<path style=" stroke:none;fill-rule:evenodd;fill:rgb(87.843137%,84.705882%,82.352941%);fill-opacity:1;" d="M 93.195312 64.574219 C 92.957031 65.28125 92.453125 65.613281 91.6875 65.578125 C 90.847656 65.578125 90.011719 65.578125 89.175781 65.578125 C 88.335938 62.058594 89.675781 60.71875 93.195312 61.558594 C 93.195312 62.5625 93.195312 63.566406 93.195312 64.574219 Z M 93.195312 64.574219 "/>
<path style=" stroke:none;fill-rule:evenodd;fill:rgb(83.921569%,81.176471%,78.431373%);fill-opacity:1;" d="M 96.710938 61.558594 C 98.804688 62.070312 99.222656 63.242188 97.964844 65.074219 C 96.65625 65.734375 95.402344 65.734375 94.199219 65.074219 C 94.199219 63.902344 94.199219 62.730469 94.199219 61.558594 C 95.035156 61.558594 95.871094 61.558594 96.710938 61.558594 Z M 96.710938 61.558594 "/>
<path style=" stroke:none;fill-rule:evenodd;fill:rgb(16.862745%,27.058824%,6.27451%);fill-opacity:1;" d="M 20.847656 54.019531 C 21.519531 54.019531 21.855469 54.355469 21.855469 55.023438 C 19.722656 55.546875 17.546875 55.878906 15.324219 56.03125 C 15.214844 57.496094 15.546875 58.835938 16.328125 60.050781 C 16 63.316406 15.914062 66.667969 16.078125 70.101562 C 13.554688 67.40625 10.625 65.3125 7.285156 63.820312 C 6.449219 63.484375 5.609375 63.484375 4.773438 63.820312 C 4.527344 64.929688 4.023438 65.851562 3.265625 66.582031 C 3.695312 64.539062 4.28125 62.527344 5.023438 60.554688 C 5.285156 60.042969 5.703125 59.707031 6.28125 59.546875 C 8.539062 60.679688 10.882812 61.515625 13.3125 62.058594 C 13.230469 59.710938 13.3125 57.363281 13.566406 55.023438 C 14.960938 54.429688 16.382812 54.429688 17.835938 55.023438 C 18.949219 54.835938 19.953125 54.5 20.847656 54.019531 Z M 20.847656 54.019531 "/>
<path style=" stroke:none;fill-rule:evenodd;fill:rgb(21.568627%,30.196078%,7.058824%);fill-opacity:1;" d="M 46.472656 42.964844 C 49.882812 44.785156 52.558594 47.378906 54.507812 50.753906 C 52.484375 50.996094 50.476562 51.332031 48.480469 51.757812 C 45.488281 53.914062 42.640625 56.257812 39.941406 58.792969 C 38.171875 59.847656 36.332031 60.601562 34.414062 61.054688 C 34.34375 61.871094 34.679688 62.457031 35.417969 62.8125 C 37.613281 62.902344 39.792969 63.152344 41.949219 63.566406 C 40.441406 66.082031 38.433594 68.089844 35.921875 69.597656 C 40.429688 71.019531 44.953125 72.359375 49.484375 73.617188 C 52.796875 74.359375 55.980469 75.449219 59.03125 76.882812 C 57.355469 77.890625 55.683594 78.894531 54.007812 79.898438 C 57.871094 80.964844 61.640625 80.714844 65.3125 79.144531 C 66.261719 79.082031 66.679688 79.25 66.566406 79.648438 C 64.511719 80.09375 62.585938 80.929688 60.789062 82.160156 C 59.425781 81.339844 58.253906 81.507812 57.273438 82.664062 C 55.082031 81.980469 52.820312 81.5625 50.492188 81.40625 C 49.820312 81.070312 49.152344 80.738281 48.480469 80.402344 C 49.460938 79.90625 50.382812 79.320312 51.242188 78.644531 C 51.554688 78.167969 51.46875 77.746094 50.992188 77.386719 C 45.902344 76.066406 40.878906 74.558594 35.921875 72.863281 C 34.714844 71.933594 33.542969 71.011719 32.40625 70.101562 C 31.9375 68.121094 31.433594 66.445312 30.898438 65.074219 C 31.820312 65.003906 31.988281 64.671875 31.398438 64.070312 C 29.527344 63.304688 27.851562 62.300781 26.375 61.054688 C 28.164062 59.742188 30.175781 58.820312 32.40625 58.292969 C 31.804688 57.960938 31.804688 57.710938 32.40625 57.539062 C 33.207031 58.03125 34.042969 58.117188 34.917969 57.789062 C 36.742188 56.320312 38.753906 55.148438 40.945312 54.269531 C 41.574219 52.925781 42.582031 51.585938 43.960938 50.25 C 45.859375 49.972656 47.199219 48.96875 47.976562 47.234375 C 47.253906 46.738281 46.753906 46.066406 46.472656 45.226562 C 46.929688 44.515625 46.929688 43.761719 46.472656 42.964844 Z M 46.472656 42.964844 "/>
<path style=" stroke:none;fill-rule:evenodd;fill:rgb(94.901961%,9.803922%,18.431373%);fill-opacity:1;" d="M 53.003906 54.019531 C 52.902344 54.796875 52.566406 55.464844 51.996094 56.03125 C 52.414062 56.507812 52.496094 57.011719 52.25 57.539062 C 51.378906 57.914062 50.457031 58.164062 49.484375 58.292969 C 49.054688 58.636719 48.71875 59.054688 48.480469 59.546875 C 49.902344 62.25 52.082031 63.503906 55.011719 63.316406 C 55.601562 62.054688 56.4375 61.21875 57.523438 60.804688 C 55.574219 63.785156 54.566406 67.050781 54.507812 70.601562 C 54.125 70.21875 53.871094 69.71875 53.757812 69.09375 C 53.511719 69.570312 53.429688 70.074219 53.503906 70.601562 C 52.003906 70.6875 51 70.019531 50.492188 68.59375 C 48.777344 68.445312 47.355469 67.773438 46.21875 66.582031 C 45.546875 67.289062 45.128906 67.121094 44.964844 66.082031 C 46.101562 64.78125 46.4375 63.355469 45.96875 61.808594 C 47.117188 59.355469 48.621094 57.175781 50.492188 55.277344 C 50.324219 55.109375 50.15625 54.941406 49.988281 54.773438 C 50.867188 54.109375 51.871094 53.859375 53.003906 54.019531 Z M 53.003906 54.019531 "/>
<path style=" stroke:none;fill-rule:evenodd;fill:rgb(25.882353%,35.686275%,9.803922%);fill-opacity:1;" d="M 21.351562 63.566406 C 24.464844 64.375 27.644531 64.875 30.898438 65.074219 C 31.433594 66.445312 31.9375 68.121094 32.40625 70.101562 C 30.09375 72.867188 30.425781 75.296875 33.410156 77.386719 C 34.972656 78.238281 36.644531 78.742188 38.433594 78.894531 C 38.675781 79.914062 38.675781 81 38.433594 82.160156 C 31.328125 77.234375 25.636719 71.035156 21.351562 63.566406 Z M 21.351562 63.566406 "/>
<path style=" stroke:none;fill-rule:evenodd;fill:rgb(74.117647%,8.627451%,16.470588%);fill-opacity:1;" d="M 43.960938 64.574219 C 42.851562 66.589844 43.1875 68.429688 44.964844 70.101562 C 43.328125 70.070312 41.824219 69.648438 40.441406 68.84375 C 41.546875 67.324219 42.71875 65.902344 43.960938 64.574219 Z M 43.960938 64.574219 "/>
<path style=" stroke:none;fill-rule:evenodd;fill:rgb(85.882353%,3.921569%,17.647059%);fill-opacity:1;" d="M 58.527344 53.015625 C 56.738281 53.382812 54.898438 53.71875 53.003906 54.019531 C 51.871094 53.859375 50.867188 54.109375 49.988281 54.773438 C 50.15625 54.941406 50.324219 55.109375 50.492188 55.277344 C 48.621094 57.175781 47.117188 59.355469 45.96875 61.808594 C 46.4375 63.355469 46.101562 64.78125 44.964844 66.082031 C 45.128906 67.121094 45.546875 67.289062 46.21875 66.582031 C 47.355469 67.773438 48.777344 68.445312 50.492188 68.59375 C 51 70.019531 52.003906 70.6875 53.503906 70.601562 C 53.429688 70.074219 53.511719 69.570312 53.757812 69.09375 C 53.871094 69.71875 54.125 70.21875 54.507812 70.601562 C 54.476562 70.824219 54.558594 70.992188 54.761719 71.105469 C 55.421875 69.546875 56.34375 68.121094 57.523438 66.835938 C 58.308594 66.738281 58.644531 67.160156 58.527344 68.089844 C 58.355469 70.390625 58.691406 72.570312 59.535156 74.625 C 55.625 73.542969 51.773438 72.371094 47.976562 71.105469 C 46.875 70.917969 45.871094 70.582031 44.964844 70.101562 C 43.1875 68.429688 42.851562 66.589844 43.960938 64.574219 C 44.527344 62.769531 45.363281 61.09375 46.472656 59.546875 C 45.875 59.082031 45.203125 58.914062 44.460938 59.046875 C 44.152344 58.691406 44.152344 58.191406 44.460938 57.539062 C 48.25 53.429688 52.9375 51.921875 58.527344 53.015625 Z M 58.527344 53.015625 "/>
<path style=" stroke:none;fill-rule:evenodd;fill:rgb(98.823529%,35.686275%,36.470588%);fill-opacity:1;" d="M 74.101562 59.046875 C 75.214844 59.398438 76.136719 60.066406 76.867188 61.054688 C 80.203125 65.128906 81.457031 69.820312 80.632812 75.125 C 79.53125 75.929688 78.359375 76.597656 77.117188 77.136719 C 77.300781 76.160156 77.636719 75.238281 78.121094 74.371094 C 77.808594 73.996094 77.554688 73.574219 77.367188 73.117188 C 76.957031 73.78125 76.371094 74.113281 75.609375 74.121094 C 75.921875 73.554688 76.339844 73.050781 76.867188 72.613281 C 77.667969 67.597656 76.246094 63.410156 72.59375 60.050781 C 73.140625 60.070312 73.640625 60.238281 74.101562 60.554688 C 74.636719 60.089844 74.636719 59.585938 74.101562 59.046875 Z M 74.101562 59.046875 "/>
<use xlink:href="#surface29" mask="url(#mask8)"/>
<path style=" stroke:none;fill-rule:evenodd;fill:rgb(94.117647%,3.137255%,23.921569%);fill-opacity:1;" d="M 85.65625 64.070312 C 85.15625 63.902344 84.820312 63.566406 84.652344 63.066406 C 84.652344 62.226562 84.652344 61.390625 84.652344 60.554688 C 85.671875 60.472656 86.675781 60.554688 87.667969 60.804688 C 87.203125 61.828125 87.035156 62.917969 87.164062 64.070312 C 86.664062 64.070312 86.160156 64.070312 85.65625 64.070312 Z M 85.65625 64.070312 "/>
<path style=" stroke:none;fill-rule:evenodd;fill:rgb(74.509804%,12.156863%,22.745098%);fill-opacity:1;" d="M 85.65625 64.070312 C 86.160156 64.070312 86.664062 64.070312 87.164062 64.070312 C 87.035156 62.917969 87.203125 61.828125 87.667969 60.804688 C 86.675781 60.554688 85.671875 60.472656 84.652344 60.554688 C 84.652344 61.390625 84.652344 62.226562 84.652344 63.066406 C 84.167969 62.007812 84 60.832031 84.152344 59.546875 C 85.65625 59.546875 87.164062 59.546875 88.671875 59.546875 C 87.910156 61.097656 87.574219 62.773438 87.667969 64.574219 C 86.863281 64.707031 86.195312 64.539062 85.65625 64.070312 Z M 85.65625 64.070312 "/>
<path style=" stroke:none;fill-rule:evenodd;fill:rgb(91.764706%,82.745098%,74.901961%);fill-opacity:1;" d="M 91.183594 68.089844 C 92.1875 68.089844 93.195312 68.089844 94.199219 68.089844 C 94.355469 69.765625 93.6875 70.941406 92.1875 71.609375 C 90.972656 71.710938 89.800781 71.542969 88.671875 71.105469 C 86.320312 67.816406 87.15625 66.8125 91.183594 68.089844 Z M 91.183594 68.089844 "/>
<path style=" stroke:none;fill-rule:evenodd;fill:rgb(96.470588%,20.392157%,29.411765%);fill-opacity:1;" d="M 78.625 53.015625 C 81.472656 54.484375 84.402344 54.652344 87.417969 53.519531 C 87.882812 53.792969 88.300781 54.128906 88.671875 54.523438 C 88.234375 55.652344 88.066406 56.824219 88.167969 58.039062 C 86.640625 58.800781 84.964844 59.132812 83.144531 59.046875 C 83.15625 61.746094 83.410156 64.425781 83.898438 67.085938 C 86.847656 72.152344 85.929688 76.339844 81.136719 79.648438 C 81.472656 78.308594 81.804688 76.96875 82.140625 75.628906 C 82.503906 74.492188 82.667969 73.316406 82.644531 72.109375 C 82.5 71.714844 82.25 71.378906 81.890625 71.105469 C 81.628906 67.21875 81.128906 63.367188 80.382812 59.546875 C 79.867188 57.34375 78.945312 55.332031 77.621094 53.519531 C 77.847656 53.117188 78.183594 52.949219 78.625 53.015625 Z M 78.625 53.015625 "/>
<path style=" stroke:none;fill-rule:evenodd;fill:rgb(29.803922%,44.705882%,12.156863%);fill-opacity:1;" d="M 10.300781 69.597656 C 11.289062 75.828125 13.128906 81.773438 15.824219 87.4375 C 15.527344 87.671875 15.191406 87.753906 14.820312 87.6875 C 14.460938 86.457031 13.875 85.28125 13.0625 84.171875 C 10.558594 81.8125 8.296875 79.300781 6.28125 76.632812 C 5.277344 77.316406 4.691406 76.980469 4.523438 75.628906 C 4.367188 73.699219 4.285156 71.859375 4.269531 70.101562 C 5.378906 69.660156 6.300781 69.996094 7.035156 71.105469 C 7.132812 70.246094 7.132812 69.410156 7.035156 68.59375 C 7.636719 69.804688 8.472656 70.808594 9.546875 71.609375 C 9.652344 70.824219 9.902344 70.15625 10.300781 69.597656 Z M 10.300781 69.597656 "/>
<path style=" stroke:none;fill-rule:evenodd;fill:rgb(84.705882%,13.72549%,21.960784%);fill-opacity:1;" d="M 74.101562 74.625 C 73.507812 75.410156 72.671875 75.828125 71.589844 75.878906 C 71.820312 76.085938 71.988281 76.339844 72.09375 76.632812 C 71.539062 76.972656 71.039062 77.308594 70.585938 77.636719 C 70.25 77.636719 69.917969 77.636719 69.582031 77.636719 C 67.167969 77.140625 64.65625 76.972656 62.046875 77.136719 C 62.046875 76.632812 62.046875 76.128906 62.046875 75.628906 C 64.054688 75.125 66.144531 75.125 68.324219 75.628906 C 70.289062 75.453125 72.214844 75.117188 74.101562 74.625 Z M 74.101562 74.625 "/>
<path style=" stroke:none;fill-rule:evenodd;fill:rgb(43.921569%,2.352941%,9.019608%);fill-opacity:1;" d="M 62.046875 75.628906 C 62.046875 76.128906 62.046875 76.632812 62.046875 77.136719 C 64.65625 76.972656 67.167969 77.140625 69.582031 77.636719 C 66.902344 77.636719 64.222656 77.636719 61.542969 77.636719 C 61.410156 76.835938 61.578125 76.164062 62.046875 75.628906 Z M 62.046875 75.628906 "/>
<path style=" stroke:none;fill-rule:evenodd;fill:rgb(99.215686%,24.705882%,28.627451%);fill-opacity:1;" d="M 77.117188 77.136719 C 75.425781 78.144531 73.582031 78.648438 71.589844 78.644531 C 71.253906 78.308594 70.921875 77.972656 70.585938 77.636719 C 71.039062 77.308594 71.539062 76.972656 72.09375 76.632812 C 71.988281 76.339844 71.820312 76.085938 71.589844 75.878906 C 72.671875 75.828125 73.507812 75.410156 74.101562 74.625 C 74.550781 74.316406 75.054688 74.148438 75.609375 74.121094 C 76.371094 74.113281 76.957031 73.78125 77.367188 73.117188 C 77.554688 73.574219 77.808594 73.996094 78.121094 74.371094 C 77.636719 75.238281 77.300781 76.160156 77.117188 77.136719 Z M 77.117188 77.136719 "/>
<path style=" stroke:none;fill-rule:evenodd;fill:rgb(98.823529%,50.980392%,47.45098%);fill-opacity:1;" d="M 82.140625 75.628906 C 81.804688 76.96875 81.472656 78.308594 81.136719 79.648438 C 79.644531 80.730469 77.96875 81.230469 76.113281 81.15625 C 77.058594 80.246094 78.230469 79.660156 79.628906 79.398438 C 80.539062 78.152344 81.378906 76.894531 82.140625 75.628906 Z M 82.140625 75.628906 "/>
<path style=" stroke:none;fill-rule:evenodd;fill:rgb(99.215686%,81.176471%,72.941176%);fill-opacity:1;" d="M 82.644531 72.109375 C 82.667969 73.316406 82.503906 74.492188 82.140625 75.628906 C 81.378906 76.894531 80.539062 78.152344 79.628906 79.398438 C 78.230469 79.660156 77.058594 80.246094 76.113281 81.15625 C 76.113281 81.324219 76.113281 81.492188 76.113281 81.660156 C 74.664062 81.503906 73.324219 81.671875 72.09375 82.160156 C 70.714844 82.316406 69.375 82.152344 68.074219 81.660156 C 69.167969 80.53125 70.339844 79.523438 71.589844 78.644531 C 73.582031 78.648438 75.425781 78.144531 77.117188 77.136719 C 78.359375 76.597656 79.53125 75.929688 80.632812 75.125 C 81.558594 74.277344 82.230469 73.269531 82.644531 72.109375 Z M 82.644531 72.109375 "/>
<path style=" stroke:none;fill-rule:evenodd;fill:rgb(26.666667%,40.392157%,9.019608%);fill-opacity:1;" d="M 32.40625 70.101562 C 33.542969 71.011719 34.714844 71.933594 35.921875 72.863281 C 40.878906 74.558594 45.902344 76.066406 50.992188 77.386719 C 51.46875 77.746094 51.554688 78.167969 51.242188 78.644531 C 50.382812 79.320312 49.460938 79.90625 48.480469 80.402344 C 49.152344 80.738281 49.820312 81.070312 50.492188 81.40625 C 52.820312 81.5625 55.082031 81.980469 57.273438 82.664062 C 58.253906 81.507812 59.425781 81.339844 60.789062 82.160156 C 62.585938 80.929688 64.511719 80.09375 66.566406 79.648438 C 65.636719 81.519531 64.464844 83.191406 63.050781 84.671875 C 63.050781 84.171875 63.050781 83.667969 63.050781 83.164062 C 61.546875 83.0625 60.207031 83.398438 59.03125 84.171875 C 55.605469 84.359375 52.253906 83.941406 48.984375 82.914062 C 45.785156 81.648438 42.605469 80.390625 39.4375 79.144531 C 39.765625 81.695312 40.9375 83.785156 42.953125 85.425781 C 42.519531 86.109375 42.019531 86.695312 41.449219 87.1875 C 41.28125 87.1875 41.113281 87.1875 40.945312 87.1875 C 39.660156 86.355469 38.320312 85.515625 36.925781 84.671875 C 37.671875 84.179688 38.339844 83.59375 38.933594 82.914062 C 38.65625 82.722656 38.488281 82.472656 38.433594 82.160156 C 38.675781 81 38.675781 79.914062 38.433594 78.894531 C 36.644531 78.742188 34.972656 78.238281 33.410156 77.386719 C 30.425781 75.296875 30.09375 72.867188 32.40625 70.101562 Z M 32.40625 70.101562 "/>
<path style=" stroke:none;fill-rule:evenodd;fill:rgb(29.803922%,8.235294%,9.411765%);fill-opacity:1;" d="M 72.09375 82.160156 C 73.324219 81.671875 74.664062 81.503906 76.113281 81.660156 C 76.113281 82.160156 76.113281 82.664062 76.113281 83.164062 C 76.949219 83.164062 77.785156 83.164062 78.625 83.164062 C 78.742188 83.816406 78.578125 84.316406 78.121094 84.671875 C 78.0625 84.128906 77.726562 83.792969 77.117188 83.667969 C 75.042969 83.738281 73.703125 84.742188 73.097656 86.683594 C 72.621094 85.96875 72.453125 85.132812 72.59375 84.171875 C 70.417969 84.171875 68.242188 84.171875 66.066406 84.171875 C 68.984375 83.671875 71.996094 83.507812 75.109375 83.667969 C 75.109375 83.164062 75.109375 82.664062 75.109375 82.160156 C 74.101562 82.160156 73.097656 82.160156 72.09375 82.160156 Z M 72.09375 82.160156 "/>
<path style=" stroke:none;fill-rule:evenodd;fill:rgb(25.882353%,39.215686%,9.803922%);fill-opacity:1;" d="M 16.328125 60.050781 C 17.761719 61.351562 19.269531 62.523438 20.847656 63.566406 C 20.550781 63.6875 20.382812 63.9375 20.347656 64.320312 C 22.746094 70.492188 26.429688 75.769531 31.398438 80.152344 C 31.667969 81.21875 32.335938 81.972656 33.410156 82.410156 C 31.085938 82.3125 30.082031 83.402344 30.394531 85.679688 C 29.890625 85.679688 29.390625 85.679688 28.886719 85.679688 C 28.886719 86.179688 28.886719 86.683594 28.886719 87.1875 C 27.542969 87.328125 26.371094 87.496094 25.371094 87.6875 C 26.371094 88.851562 26.875 90.191406 26.878906 91.707031 C 27.847656 91.574219 28.683594 91.824219 29.390625 92.460938 C 28.605469 92.84375 28.101562 93.429688 27.882812 94.222656 C 22.78125 90.128906 18.597656 85.269531 15.324219 79.648438 C 15.40625 79.480469 15.492188 79.3125 15.574219 79.144531 C 18.246094 82.113281 21.511719 83.957031 25.371094 84.671875 C 25.453125 83.488281 25.367188 82.316406 25.121094 81.15625 C 22.082031 78.957031 19.570312 76.277344 17.582031 73.117188 C 16.859375 71.691406 15.9375 71.441406 14.820312 72.363281 C 15.738281 72.921875 16.160156 73.675781 16.078125 74.625 C 14.363281 72.65625 12.4375 70.980469 10.300781 69.597656 C 9.902344 70.15625 9.652344 70.824219 9.546875 71.609375 C 8.472656 70.808594 7.636719 69.804688 7.035156 68.59375 C 7.132812 69.410156 7.132812 70.246094 7.035156 71.105469 C 6.300781 69.996094 5.378906 69.660156 4.269531 70.101562 C 4.285156 71.859375 4.367188 73.699219 4.523438 75.628906 C 4.691406 76.980469 5.277344 77.316406 6.28125 76.632812 C 7.078125 78.929688 7.496094 81.273438 7.535156 83.667969 C 3.804688 78.582031 2.382812 72.886719 3.265625 66.582031 C 4.023438 65.851562 4.527344 64.929688 4.773438 63.820312 C 5.609375 63.484375 6.449219 63.484375 7.285156 63.820312 C 10.625 65.3125 13.554688 67.40625 16.078125 70.101562 C 15.914062 66.667969 16 63.316406 16.328125 60.050781 Z M 16.328125 60.050781 "/>
<path style=" stroke:none;fill-rule:evenodd;fill:rgb(75.294118%,5.490196%,18.823529%);fill-opacity:1;" d="M 66.066406 84.171875 C 68.242188 84.171875 70.417969 84.171875 72.59375 84.171875 C 72.453125 85.132812 72.621094 85.96875 73.097656 86.683594 C 73.097656 86.851562 73.097656 87.019531 73.097656 87.1875 C 72.929688 87.1875 72.761719 87.1875 72.59375 87.1875 C 70.816406 86.613281 68.976562 86.113281 67.070312 85.679688 C 66.460938 85.554688 66.125 85.21875 66.066406 84.671875 C 66.066406 84.507812 66.066406 84.339844 66.066406 84.171875 Z M 66.066406 84.171875 "/>
<path style=" stroke:none;fill-rule:evenodd;fill:rgb(49.019608%,61.960784%,25.490196%);fill-opacity:1;" d="M 59.03125 84.171875 C 58.085938 84.800781 57.082031 85.386719 56.015625 85.929688 C 57.355469 86.265625 57.355469 86.597656 56.015625 86.933594 C 51.085938 87.660156 46.230469 87.742188 41.449219 87.1875 C 42.019531 86.695312 42.519531 86.109375 42.953125 85.425781 C 40.9375 83.785156 39.765625 81.695312 39.4375 79.144531 C 42.605469 80.390625 45.785156 81.648438 48.984375 82.914062 C 52.253906 83.941406 55.605469 84.359375 59.03125 84.171875 Z M 59.03125 84.171875 "/>
<path style=" stroke:none;fill-rule:evenodd;fill:rgb(43.921569%,58.039216%,21.568627%);fill-opacity:1;" d="M 10.300781 69.597656 C 12.4375 70.980469 14.363281 72.65625 16.078125 74.625 C 16.160156 73.675781 15.738281 72.921875 14.820312 72.363281 C 15.9375 71.441406 16.859375 71.691406 17.582031 73.117188 C 19.570312 76.277344 22.082031 78.957031 25.121094 81.15625 C 25.367188 82.316406 25.453125 83.488281 25.371094 84.671875 C 21.511719 83.957031 18.246094 82.113281 15.574219 79.144531 C 15.492188 79.3125 15.40625 79.480469 15.324219 79.648438 C 18.597656 85.269531 22.78125 90.128906 27.882812 94.222656 C 28.304688 95.0625 28.976562 95.648438 29.890625 95.980469 C 28.902344 96.230469 27.898438 96.3125 26.878906 96.230469 C 24.71875 95.90625 22.710938 95.152344 20.847656 93.96875 C 18.386719 92.261719 16.378906 90.167969 14.820312 87.6875 C 15.191406 87.753906 15.527344 87.671875 15.824219 87.4375 C 13.128906 81.773438 11.289062 75.828125 10.300781 69.597656 Z M 10.300781 69.597656 "/>
<path style=" stroke:none;fill-rule:evenodd;fill:rgb(97.647059%,12.941176%,26.27451%);fill-opacity:1;" d="M 66.066406 84.671875 C 66.125 85.21875 66.460938 85.554688 67.070312 85.679688 C 68.976562 86.113281 70.816406 86.613281 72.59375 87.1875 C 72.386719 87.546875 72.050781 87.800781 71.589844 87.941406 C 69.925781 88.191406 68.25 88.273438 66.566406 88.191406 C 65.835938 87.789062 65 87.535156 64.054688 87.4375 C 64.878906 86.871094 65.382812 86.117188 65.5625 85.175781 C 65.5625 84.839844 65.730469 84.671875 66.066406 84.671875 Z M 66.066406 84.671875 "/>
<path style=" stroke:none;fill-rule:evenodd;fill:rgb(24.313725%,35.294118%,10.196078%);fill-opacity:1;" d="M 31.398438 80.152344 C 32.800781 80.960938 34.140625 81.882812 35.417969 82.914062 C 34.066406 83.300781 32.726562 83.71875 31.398438 84.171875 C 33.042969 85.617188 34.886719 86.789062 36.925781 87.6875 C 35.199219 88.582031 33.359375 89.082031 31.398438 89.195312 C 29.699219 88.875 28.027344 88.625 26.375 88.441406 C 28.84375 91.164062 31.523438 93.59375 34.414062 95.730469 C 33.648438 96.261719 32.8125 96.597656 31.902344 96.734375 C 30.121094 96.890625 28.449219 96.722656 26.878906 96.230469 C 27.898438 96.3125 28.902344 96.230469 29.890625 95.980469 C 28.976562 95.648438 28.304688 95.0625 27.882812 94.222656 C 28.101562 93.429688 28.605469 92.84375 29.390625 92.460938 C 28.683594 91.824219 27.847656 91.574219 26.878906 91.707031 C 26.875 90.191406 26.371094 88.851562 25.371094 87.6875 C 26.371094 87.496094 27.542969 87.328125 28.886719 87.1875 C 28.886719 86.683594 28.886719 86.179688 28.886719 85.679688 C 29.390625 85.679688 29.890625 85.679688 30.394531 85.679688 C 30.082031 83.402344 31.085938 82.3125 33.410156 82.410156 C 32.335938 81.972656 31.667969 81.21875 31.398438 80.152344 Z M 31.398438 80.152344 "/>
<path style=" stroke:none;fill-rule:evenodd;fill:rgb(96.078431%,32.156863%,35.686275%);fill-opacity:1;" d="M 78.121094 84.671875 C 77.332031 87.640625 75.488281 89.652344 72.59375 90.703125 C 72.59375 90.367188 72.59375 90.035156 72.59375 89.699219 C 73.074219 88.984375 73.242188 88.148438 73.097656 87.1875 C 73.097656 87.019531 73.097656 86.851562 73.097656 86.683594 C 73.703125 84.742188 75.042969 83.738281 77.117188 83.667969 C 77.726562 83.792969 78.0625 84.128906 78.121094 84.671875 Z M 78.121094 84.671875 "/>
<use xlink:href="#surface32" mask="url(#mask9)"/>
<path style=" stroke:none;fill-rule:evenodd;fill:rgb(95.294118%,51.372549%,40.784314%);fill-opacity:1;" d="M 65.5625 85.175781 C 65.382812 86.117188 64.878906 86.871094 64.054688 87.4375 C 65 87.535156 65.835938 87.789062 66.566406 88.191406 C 63.894531 88.617188 63.894531 89.203125 66.566406 89.949219 C 68.621094 90.332031 70.628906 90.25 72.59375 89.699219 C 72.59375 90.035156 72.59375 90.367188 72.59375 90.703125 C 70.34375 91.28125 68 91.363281 65.5625 90.953125 C 64.644531 90.453125 63.808594 89.867188 63.050781 89.195312 C 62.597656 88.839844 62.429688 88.335938 62.546875 87.6875 C 63.550781 86.851562 64.558594 86.011719 65.5625 85.175781 Z M 65.5625 85.175781 "/>
<path style=" stroke:none;fill-rule:evenodd;fill:rgb(100%,65.882353%,58.823529%);fill-opacity:1;" d="M 72.59375 87.1875 C 72.761719 87.1875 72.929688 87.1875 73.097656 87.1875 C 73.242188 88.148438 73.074219 88.984375 72.59375 89.699219 C 70.628906 90.25 68.621094 90.332031 66.566406 89.949219 C 63.894531 89.203125 63.894531 88.617188 66.566406 88.191406 C 68.25 88.273438 69.925781 88.191406 71.589844 87.941406 C 72.050781 87.800781 72.386719 87.546875 72.59375 87.1875 Z M 72.59375 87.1875 "/>
<path style=" stroke:none;fill-rule:evenodd;fill:rgb(38.431373%,52.156863%,17.647059%);fill-opacity:1;" d="M 63.050781 84.671875 C 62.644531 85.289062 62.144531 85.792969 61.542969 86.179688 C 58.601562 88.65625 55.253906 90.332031 51.496094 91.207031 C 47.347656 92.152344 43.328125 91.820312 39.4375 90.199219 C 39.039062 89.972656 38.871094 89.636719 38.933594 89.195312 C 39.773438 88.695312 40.441406 88.023438 40.945312 87.1875 C 41.113281 87.1875 41.28125 87.1875 41.449219 87.1875 C 46.230469 87.742188 51.085938 87.660156 56.015625 86.933594 C 57.355469 86.597656 57.355469 86.265625 56.015625 85.929688 C 57.082031 85.386719 58.085938 84.800781 59.03125 84.171875 C 60.207031 83.398438 61.546875 83.0625 63.050781 83.164062 C 63.050781 83.667969 63.050781 84.171875 63.050781 84.671875 Z M 63.050781 84.671875 "/>
<path style=" stroke:none;fill-rule:evenodd;fill:rgb(21.176471%,32.156863%,10.980392%);fill-opacity:1;" d="M 38.933594 89.195312 C 38.871094 89.636719 39.039062 89.972656 39.4375 90.199219 C 43.328125 91.820312 47.347656 92.152344 51.496094 91.207031 C 50.539062 91.699219 49.53125 92.203125 48.480469 92.714844 C 49.523438 94.15625 50.863281 95.246094 52.5 95.980469 C 45.554688 97.257812 39.1875 95.835938 33.410156 91.707031 C 35.40625 91.15625 37.25 90.320312 38.933594 89.195312 Z M 38.933594 89.195312 "/>
</g>
</svg>
