<?xml version="1.0" encoding="UTF-8"?>
<svg xmlns="http://www.w3.org/2000/svg" xmlns:xlink="http://www.w3.org/1999/xlink" width="px" height="px" viewBox="0 0 103 100" version="1.1">
<defs>
<filter id="alpha" filterUnits="objectBoundingBox" x="0%" y="0%" width="100%" height="100%">
  <feColorMatrix type="matrix" in="SourceGraphic" values="0 0 0 0 1 0 0 0 0 1 0 0 0 0 1 0 0 0 1 0"/>
</filter>
<mask id="mask0">
  <g filter="url(#alpha)">
<rect x="0" y="0" width="103" height="100" style="fill:rgb(0%,0%,0%);fill-opacity:0.952941;stroke:none;"/>
  </g>
</mask>
<clipPath id="clip1">
  <rect x="0" y="0" width="103" height="100"/>
</clipPath>
<g id="surface5" clip-path="url(#clip1)">
<path style=" stroke:none;fill-rule:evenodd;fill:rgb(5.882353%,2.352941%,2.745098%);fill-opacity:1;" d="M 33.914062 4.773438 C 36.183594 5.824219 38.363281 6.996094 40.445312 8.292969 C 40.511719 8.730469 40.34375 9.066406 39.945312 9.296875 C 39.324219 8.921875 38.652344 8.753906 37.933594 8.792969 C 30.730469 6.0625 23.527344 6.230469 16.328125 9.296875 C 17.03125 8.1875 18.035156 7.433594 19.34375 7.035156 C 24.097656 5.609375 28.953125 4.855469 33.914062 4.773438 Z M 33.914062 4.773438 "/>
</g>
<mask id="mask1">
  <g filter="url(#alpha)">
<rect x="0" y="0" width="103" height="100" style="fill:rgb(0%,0%,0%);fill-opacity:0.972549;stroke:none;"/>
  </g>
</mask>
<clipPath id="clip2">
  <rect x="0" y="0" width="103" height="100"/>
</clipPath>
<g id="surface8" clip-path="url(#clip2)">
<path style=" stroke:none;fill-rule:evenodd;fill:rgb(5.490196%,2.352941%,2.745098%);fill-opacity:1;" d="M 16.328125 9.296875 C 20.890625 10.171875 25.410156 11.597656 29.894531 13.566406 C 26.378906 13.734375 22.859375 13.902344 19.34375 14.070312 C 16.960938 14.390625 14.785156 15.144531 12.8125 16.332031 C 12.644531 16.332031 12.476562 16.332031 12.308594 16.332031 C 9.488281 17.410156 6.972656 19 4.773438 21.105469 C 8.03125 20.792969 11.210938 20.878906 14.320312 21.355469 C 10.402344 22.308594 6.71875 23.816406 3.265625 25.878906 C 4.03125 24.0625 5.371094 22.804688 7.285156 22.109375 C 6.292969 21.863281 5.289062 21.777344 4.269531 21.859375 C 6.074219 17.96875 9.085938 15.375 13.316406 14.070312 C 16.121094 13.238281 18.96875 12.570312 21.855469 12.058594 C 19.519531 11.441406 17.171875 10.855469 14.820312 10.300781 C 15.074219 9.589844 15.578125 9.253906 16.328125 9.296875 Z M 16.328125 9.296875 "/>
</g>
<mask id="mask2">
  <g filter="url(#alpha)">
<rect x="0" y="0" width="103" height="100" style="fill:rgb(0%,0%,0%);fill-opacity:0.0431373;stroke:none;"/>
  </g>
</mask>
<clipPath id="clip3">
  <rect x="0" y="0" width="103" height="100"/>
</clipPath>
<g id="surface11" clip-path="url(#clip3)">
<path style=" stroke:none;fill-rule:evenodd;fill:rgb(16.862745%,20.392157%,25.098039%);fill-opacity:1;" d="M 31.402344 3.265625 C 31.929688 4.148438 32.769531 4.484375 33.914062 4.269531 C 33.914062 4.4375 33.914062 4.605469 33.914062 4.773438 C 28.953125 4.855469 24.097656 5.609375 19.34375 7.035156 C 18.035156 7.433594 17.03125 8.1875 16.328125 9.296875 C 15.578125 9.253906 15.074219 9.589844 14.820312 10.300781 C 17.171875 10.855469 19.519531 11.441406 21.855469 12.058594 C 18.96875 12.570312 16.121094 13.238281 13.316406 14.070312 C 9.085938 15.375 6.074219 17.96875 4.269531 21.859375 C 5.289062 21.777344 6.292969 21.863281 7.285156 22.109375 C 5.371094 22.804688 4.03125 24.0625 3.265625 25.878906 C 2.707031 25.90625 2.207031 26.074219 1.757812 26.382812 C 2.375 25.085938 3.214844 23.914062 4.269531 22.863281 C 3.9375 22.363281 3.601562 21.859375 3.265625 21.355469 C 6.425781 16.335938 10.949219 13.152344 16.832031 11.808594 C 13.71875 11.660156 13.214844 10.570312 15.324219 8.542969 C 16.496094 7.707031 17.667969 6.867188 18.839844 6.03125 C 22.980469 5.15625 27.167969 4.234375 31.402344 3.265625 Z M 31.402344 3.265625 "/>
</g>
<mask id="mask3">
  <g filter="url(#alpha)">
<rect x="0" y="0" width="103" height="100" style="fill:rgb(0%,0%,0%);fill-opacity:0.996078;stroke:none;"/>
  </g>
</mask>
<clipPath id="clip4">
  <rect x="0" y="0" width="103" height="100"/>
</clipPath>
<g id="surface14" clip-path="url(#clip4)">
<path style=" stroke:none;fill-rule:evenodd;fill:rgb(5.098039%,3.529412%,2.745098%);fill-opacity:1;" d="M 100.238281 40.953125 C 99.902344 40.789062 99.566406 40.621094 99.230469 40.453125 C 99.230469 40.285156 99.230469 40.117188 99.230469 39.949219 C 99.722656 38.378906 99.890625 36.703125 99.734375 34.925781 C 99.0625 34.925781 98.394531 34.925781 97.722656 34.925781 C 96.109375 35.082031 94.601562 34.914062 93.203125 34.421875 C 94.433594 34.667969 95.269531 34.25 95.714844 33.164062 C 94.230469 29.410156 91.71875 28.488281 88.179688 30.402344 C 87.675781 30.402344 87.171875 30.402344 86.671875 30.402344 C 86.226562 31.136719 85.722656 32.058594 85.164062 33.164062 C 85.605469 33.523438 85.941406 33.941406 86.167969 34.421875 C 85.222656 34.316406 84.550781 33.8125 84.160156 32.914062 C 84.914062 31.742188 85.664062 30.570312 86.417969 29.398438 C 86.714844 28.011719 86.546875 26.671875 85.917969 25.375 C 85.019531 22.894531 83.429688 21.050781 81.144531 19.847656 C 80.761719 19.464844 80.257812 19.210938 79.636719 19.09375 C 74.90625 18.691406 70.21875 18.773438 65.566406 19.347656 C 64.25 18.269531 62.742188 17.597656 61.046875 17.335938 C 57.691406 17.253906 54.34375 17.335938 50.996094 17.589844 C 49.96875 18.410156 49.464844 19.5 49.492188 20.855469 C 48.988281 20.6875 48.652344 20.351562 48.484375 19.847656 C 48.558594 19.320312 48.476562 18.816406 48.234375 18.339844 C 46.285156 20.125 44.191406 21.71875 41.953125 23.117188 C 40.175781 24.722656 38.585938 26.484375 37.179688 28.390625 C 36.417969 30.339844 36.25 32.347656 36.679688 34.421875 C 36.890625 35.390625 37.476562 35.890625 38.4375 35.929688 C 39.558594 36.859375 40.730469 37.695312 41.953125 38.441406 C 40.949219 38.273438 39.945312 38.105469 38.9375 37.941406 C 37.230469 37.402344 36.226562 36.230469 35.925781 34.421875 C 35.644531 33.265625 35.390625 32.09375 35.171875 30.90625 C 33.5 34.078125 32.328125 37.425781 31.652344 40.953125 C 31.238281 46.738281 31.324219 52.433594 31.90625 58.039062 C 31.761719 59.714844 32.097656 61.21875 32.910156 62.5625 C 34.898438 69.496094 38.917969 74.9375 44.96875 78.894531 C 46.0625 79.5 47.234375 79.75 48.484375 79.648438 C 49.617188 79.1875 50.621094 78.519531 51.5 77.636719 C 51.878906 79.203125 52.046875 80.710938 52.003906 82.160156 C 54.816406 82.640625 57.664062 82.808594 60.542969 82.664062 C 57.289062 83.160156 53.9375 83.328125 50.496094 83.164062 C 50.496094 82.496094 50.496094 81.824219 50.496094 81.15625 C 50.511719 80.65625 50.257812 80.320312 49.742188 80.152344 C 48.914062 80.558594 48.160156 81.0625 47.480469 81.660156 C 38.566406 78.015625 32.957031 71.484375 30.648438 62.058594 C 29.792969 58.59375 29.371094 55.074219 29.394531 51.507812 C 29.574219 46.785156 30.078125 42.09375 30.898438 37.4375 C 31.625 35.679688 32.210938 33.835938 32.660156 31.910156 C 33.71875 30.289062 34.640625 28.613281 35.421875 26.882812 C 38.300781 23.757812 41.566406 21.078125 45.21875 18.84375 C 45.394531 17.421875 44.808594 16.417969 43.460938 15.828125 C 43.460938 15.492188 43.628906 15.328125 43.964844 15.328125 C 44.921875 15.445312 45.589844 15.949219 45.972656 16.835938 C 46.089844 17.132812 46.34375 17.300781 46.726562 17.335938 C 48.191406 16.457031 49.78125 15.871094 51.5 15.578125 C 54.847656 15.269531 58.199219 15.019531 61.546875 14.824219 C 61.222656 13.164062 60.382812 11.824219 59.035156 10.804688 C 54.140625 5.59375 48.113281 2.660156 40.949219 2.011719 C 43.371094 3.214844 45.378906 4.890625 46.976562 7.035156 C 46.726562 7.117188 46.476562 7.203125 46.222656 7.285156 C 42.359375 5.378906 38.253906 4.371094 33.914062 4.269531 C 32.769531 4.484375 31.929688 4.148438 31.402344 3.265625 C 34.253906 3.351562 37.101562 3.265625 39.945312 3.015625 C 38.878906 2.605469 37.871094 2.101562 36.929688 1.507812 C 46.792969 -0.0507812 55.082031 2.878906 61.800781 10.300781 C 65.914062 5.820312 70.6875 5.066406 76.121094 8.039062 C 79.011719 10.265625 80.515625 13.199219 80.640625 16.835938 C 82.824219 17.300781 84.582031 18.472656 85.917969 20.351562 C 87.269531 22.390625 88.359375 24.566406 89.183594 26.882812 C 91.269531 27.21875 93.28125 27.804688 95.210938 28.644531 C 96.070312 29.605469 96.742188 30.695312 97.222656 31.910156 C 101.234375 32.894531 102.65625 35.40625 101.492188 39.445312 C 101.140625 40.046875 100.722656 40.546875 100.238281 40.953125 Z M 100.238281 40.953125 "/>
</g>
<mask id="mask4">
  <g filter="url(#alpha)">
<rect x="0" y="0" width="103" height="100" style="fill:rgb(0%,0%,0%);fill-opacity:0.00392157;stroke:none;"/>
  </g>
</mask>
<clipPath id="clip5">
  <rect x="0" y="0" width="103" height="100"/>
</clipPath>
<g id="surface17" clip-path="url(#clip5)">
<path style=" stroke:none;fill-rule:evenodd;fill:rgb(14.901961%,19.607843%,24.705882%);fill-opacity:1;" d="M 6.28125 28.390625 C 8.921875 28.421875 11.433594 29.011719 13.816406 30.152344 C 13.441406 30.671875 12.941406 30.925781 12.308594 30.90625 C 8.628906 34.066406 5.53125 37.753906 3.015625 41.960938 C 2.652344 42.769531 2.738281 43.523438 3.265625 44.222656 C 2.199219 45.429688 1.195312 46.6875 0.25 47.988281 C 1.789062 49.261719 3.464844 50.265625 5.277344 51.003906 C 3.28125 50.761719 1.4375 50.089844 -0.25 48.996094 C -0.25 48.324219 -0.25 47.65625 -0.25 46.984375 C 0.65625 45.988281 1.492188 44.902344 2.261719 43.71875 C 1.871094 42.828125 1.953125 41.90625 2.511719 40.953125 C 4.800781 37.070312 7.734375 33.722656 11.304688 30.90625 C 9.800781 29.679688 8.128906 28.84375 6.28125 28.390625 Z M 6.28125 28.390625 "/>
</g>
<mask id="mask5">
  <g filter="url(#alpha)">
<rect x="0" y="0" width="103" height="100" style="fill:rgb(0%,0%,0%);fill-opacity:0.996078;stroke:none;"/>
  </g>
</mask>
<clipPath id="clip6">
  <rect x="0" y="0" width="103" height="100"/>
</clipPath>
<g id="surface20" clip-path="url(#clip6)">
<path style=" stroke:none;fill-rule:evenodd;fill:rgb(98.823529%,51.372549%,59.607843%);fill-opacity:1;" d="M 2.761719 46.984375 C 3.097656 46.984375 3.433594 46.984375 3.769531 46.984375 C 9.855469 48.484375 15.886719 50.242188 21.855469 52.261719 C 22.464844 52.710938 22.464844 53.128906 21.855469 53.519531 C 21.257812 54.191406 20.503906 54.527344 19.59375 54.523438 C 17.699219 53.984375 15.773438 53.648438 13.816406 53.519531 C 10.128906 50.972656 6.109375 49.046875 1.757812 47.738281 C 2.03125 47.378906 2.367188 47.128906 2.761719 46.984375 Z M 2.761719 46.984375 "/>
</g>
<mask id="mask6">
  <g filter="url(#alpha)">
<rect x="0" y="0" width="103" height="100" style="fill:rgb(0%,0%,0%);fill-opacity:0.0313725;stroke:none;"/>
  </g>
</mask>
<clipPath id="clip7">
  <rect x="0" y="0" width="103" height="100"/>
</clipPath>
<g id="surface23" clip-path="url(#clip7)">
<path style=" stroke:none;fill-rule:evenodd;fill:rgb(18.431373%,24.313725%,27.843137%);fill-opacity:1;" d="M 37.933594 -0.25 C 39.945312 -0.25 41.953125 -0.25 43.964844 -0.25 C 44.132812 0.417969 44.296875 0.417969 44.464844 -0.25 C 44.632812 -0.25 44.800781 -0.25 44.96875 -0.25 C 51.171875 1.308594 56.785156 4.324219 61.800781 8.792969 C 62.742188 7.683594 63.828125 6.761719 65.066406 6.03125 C 73.546875 3.65625 79.074219 6.671875 81.644531 15.074219 C 83.5625 16.992188 85.488281 18.917969 87.425781 20.855469 C 88.382812 22.21875 89.054688 23.726562 89.433594 25.375 C 91.199219 26.46875 93.125 27.222656 95.210938 27.636719 C 96.40625 28.664062 97.410156 29.835938 98.226562 31.15625 C 100.34375 32.015625 101.847656 33.441406 102.75 35.425781 C 102.75 36.601562 102.75 37.773438 102.75 38.945312 C 101.546875 40.152344 101.546875 41.324219 102.75 42.460938 C 102.75 44.472656 102.75 46.480469 102.75 48.492188 C 101.824219 49.332031 100.820312 50.085938 99.734375 50.753906 C 101.480469 52.15625 102.484375 53.917969 102.75 56.03125 C 102.75 57.035156 102.75 58.039062 102.75 59.046875 C 102.078125 60.21875 102.078125 61.390625 102.75 62.5625 C 102.75 62.730469 102.75 62.898438 102.75 63.066406 C 102.078125 63.234375 102.078125 63.402344 102.75 63.566406 C 102.75 64.40625 102.75 65.242188 102.75 66.082031 C 102.269531 68.144531 100.929688 69.230469 98.730469 69.347656 C 97.722656 70.519531 96.71875 71.691406 95.714844 72.863281 C 94.949219 73.371094 94.109375 73.621094 93.203125 73.617188 C 95.464844 72.691406 96.804688 71.019531 97.222656 68.59375 C 101.4375 68.730469 102.859375 66.71875 101.492188 62.5625 C 101.242188 61.640625 100.65625 61.054688 99.734375 60.804688 C 100.851562 60.476562 101.4375 59.722656 101.492188 58.542969 C 102.65625 54.5 101.234375 51.988281 97.222656 51.003906 C 98.765625 50.359375 100.1875 49.523438 101.492188 48.492188 C 101.828125 46.316406 101.828125 44.136719 101.492188 41.960938 C 100.992188 41.675781 100.574219 41.339844 100.238281 40.953125 C 100.722656 40.546875 101.140625 40.046875 101.492188 39.445312 C 102.65625 35.40625 101.234375 32.894531 97.222656 31.910156 C 96.742188 30.695312 96.070312 29.605469 95.210938 28.644531 C 93.28125 27.804688 91.269531 27.21875 89.183594 26.882812 C 88.359375 24.566406 87.269531 22.390625 85.917969 20.351562 C 84.582031 18.472656 82.824219 17.300781 80.640625 16.835938 C 80.515625 13.199219 79.011719 10.265625 76.121094 8.039062 C 70.6875 5.066406 65.914062 5.820312 61.800781 10.300781 C 55.082031 2.878906 46.792969 -0.0507812 36.929688 1.507812 C 37.871094 2.101562 38.878906 2.605469 39.945312 3.015625 C 37.101562 3.265625 34.253906 3.351562 31.402344 3.265625 C 32.671875 2.820312 34.011719 2.402344 35.421875 2.011719 C 36.195312 1.136719 37.035156 0.382812 37.933594 -0.25 Z M 37.933594 -0.25 "/>
</g>
<mask id="mask7">
  <g filter="url(#alpha)">
<rect x="0" y="0" width="103" height="100" style="fill:rgb(0%,0%,0%);fill-opacity:0.0588235;stroke:none;"/>
  </g>
</mask>
<clipPath id="clip8">
  <rect x="0" y="0" width="103" height="100"/>
</clipPath>
<g id="surface26" clip-path="url(#clip8)">
<path style=" stroke:none;fill-rule:evenodd;fill:rgb(16.078431%,19.215686%,23.921569%);fill-opacity:1;" d="M 14.820312 70.101562 C 11.058594 70.515625 7.207031 70.769531 3.265625 70.855469 C 4.046875 72.003906 4.882812 73.09375 5.777344 74.121094 C 4.050781 73.355469 3.046875 72.015625 2.761719 70.101562 C 6.371094 69.816406 9.972656 69.480469 13.566406 69.09375 C 14.21875 69.164062 14.636719 69.5 14.820312 70.101562 Z M 14.820312 70.101562 "/>
</g>
<mask id="mask8">
  <g filter="url(#alpha)">
<rect x="0" y="0" width="103" height="100" style="fill:rgb(0%,0%,0%);fill-opacity:0.992157;stroke:none;"/>
  </g>
</mask>
<clipPath id="clip9">
  <rect x="0" y="0" width="103" height="100"/>
</clipPath>
<g id="surface29" clip-path="url(#clip9)">
<path style=" stroke:none;fill-rule:evenodd;fill:rgb(33.72549%,1.568627%,9.019608%);fill-opacity:1;" d="M 20.347656 79.648438 C 20.40625 79.339844 20.570312 79.085938 20.851562 78.894531 C 19.742188 78.796875 18.738281 78.546875 17.835938 78.140625 C 20.027344 78.011719 22.207031 77.929688 24.367188 77.890625 C 23.179688 78.816406 21.839844 79.402344 20.347656 79.648438 Z M 20.347656 79.648438 "/>
</g>
<mask id="mask9">
  <g filter="url(#alpha)">
<rect x="0" y="0" width="103" height="100" style="fill:rgb(0%,0%,0%);fill-opacity:0.333333;stroke:none;"/>
  </g>
</mask>
<clipPath id="clip10">
  <rect x="0" y="0" width="103" height="100"/>
</clipPath>
<g id="surface32" clip-path="url(#clip10)">
<path style=" stroke:none;fill-rule:evenodd;fill:rgb(29.019608%,3.921569%,10.980392%);fill-opacity:1;" d="M 11.304688 81.15625 C 9.128906 81.492188 6.949219 81.824219 4.773438 82.160156 C 4.375 82.019531 4.042969 81.765625 3.769531 81.40625 C 6.273438 81.15625 8.785156 81.074219 11.304688 81.15625 Z M 11.304688 81.15625 "/>
</g>
<mask id="mask10">
  <g filter="url(#alpha)">
<rect x="0" y="0" width="103" height="100" style="fill:rgb(0%,0%,0%);fill-opacity:0.533333;stroke:none;"/>
  </g>
</mask>
<clipPath id="clip11">
  <rect x="0" y="0" width="103" height="100"/>
</clipPath>
<g id="surface35" clip-path="url(#clip11)">
<path style=" stroke:none;fill-rule:evenodd;fill:rgb(32.54902%,0.784314%,6.666667%);fill-opacity:1;" d="M 30.898438 88.695312 C 30.738281 87.914062 30.234375 87.582031 29.394531 87.6875 C 30.390625 87.265625 31.480469 86.929688 32.660156 86.683594 C 32.910156 86.851562 33.160156 87.019531 33.414062 87.1875 C 32.644531 87.820312 31.808594 88.324219 30.898438 88.695312 Z M 30.898438 88.695312 "/>
</g>
<mask id="mask11">
  <g filter="url(#alpha)">
<rect x="0" y="0" width="103" height="100" style="fill:rgb(0%,0%,0%);fill-opacity:0.0588235;stroke:none;"/>
  </g>
</mask>
<clipPath id="clip12">
  <rect x="0" y="0" width="103" height="100"/>
</clipPath>
<g id="surface38" clip-path="url(#clip12)">
<path style=" stroke:none;fill-rule:evenodd;fill:rgb(14.901961%,20%,24.705882%);fill-opacity:1;" d="M 11.304688 87.6875 C 14.765625 88.664062 18.28125 89.417969 21.855469 89.949219 C 20.882812 90.359375 19.878906 90.609375 18.839844 90.703125 C 18.785156 90.394531 18.617188 90.140625 18.339844 89.949219 C 15.765625 89.734375 13.421875 88.980469 11.304688 87.6875 Z M 11.304688 87.6875 "/>
</g>
<mask id="mask12">
  <g filter="url(#alpha)">
<rect x="0" y="0" width="103" height="100" style="fill:rgb(0%,0%,0%);fill-opacity:0.964706;stroke:none;"/>
  </g>
</mask>
<clipPath id="clip13">
  <rect x="0" y="0" width="103" height="100"/>
</clipPath>
<g id="surface41" clip-path="url(#clip13)">
<path style=" stroke:none;fill-rule:evenodd;fill:rgb(3.137255%,3.921569%,3.921569%);fill-opacity:1;" d="M 99.230469 40.453125 C 99.566406 40.621094 99.902344 40.789062 100.238281 40.953125 C 100.574219 41.339844 100.992188 41.675781 101.492188 41.960938 C 101.828125 44.136719 101.828125 46.316406 101.492188 48.492188 C 100.1875 49.523438 98.765625 50.359375 97.222656 51.003906 C 101.234375 51.988281 102.65625 54.5 101.492188 58.542969 C 101.4375 59.722656 100.851562 60.476562 99.734375 60.804688 C 100.65625 61.054688 101.242188 61.640625 101.492188 62.5625 C 102.859375 66.71875 101.4375 68.730469 97.222656 68.59375 C 96.804688 71.019531 95.464844 72.691406 93.203125 73.617188 C 92.152344 74.523438 90.980469 74.691406 89.683594 74.121094 C 88.285156 78.53125 85.605469 81.882812 81.644531 84.171875 C 81.230469 85.105469 80.730469 85.941406 80.140625 86.683594 C 76.859375 93 71.832031 94.925781 65.066406 92.460938 C 63.828125 91.730469 62.742188 90.808594 61.800781 89.699219 C 61.609375 89.976562 61.355469 90.144531 61.046875 90.199219 C 60.878906 89.195312 60.710938 88.191406 60.542969 87.1875 C 60.542969 87.019531 60.542969 86.851562 60.542969 86.683594 C 60.992188 86.300781 61.328125 85.796875 61.546875 85.175781 C 57.667969 84.828125 53.816406 84.324219 49.992188 83.667969 C 49.851562 82.707031 50.015625 81.867188 50.496094 81.15625 C 50.496094 81.824219 50.496094 82.496094 50.496094 83.164062 C 53.9375 83.328125 57.289062 83.160156 60.542969 82.664062 C 61.046875 82.664062 61.546875 82.664062 62.050781 82.664062 C 67.695312 81.746094 73.386719 81.410156 79.132812 81.660156 C 80.5625 81.320312 81.820312 80.652344 82.902344 79.648438 C 84.035156 77.886719 85.039062 76.042969 85.917969 74.121094 C 87.105469 72.191406 86.855469 70.515625 85.164062 69.09375 C 85.273438 66.863281 85.691406 64.683594 86.417969 62.5625 C 86.925781 62.140625 87.515625 61.976562 88.179688 62.058594 C 88.867188 61.980469 89.539062 62.066406 90.1875 62.3125 C 89.726562 62.453125 89.394531 62.703125 89.183594 63.066406 C 88.679688 63.066406 88.179688 63.066406 87.675781 63.066406 C 87.675781 64.238281 87.675781 65.410156 87.675781 66.582031 C 89.289062 66.425781 90.796875 66.59375 92.199219 67.085938 C 90.628906 67.578125 88.953125 67.746094 87.171875 67.589844 C 86.609375 68.015625 86.609375 68.515625 87.171875 69.09375 C 87.4375 70.203125 88.105469 70.957031 89.183594 71.355469 C 92.652344 72.320312 94.832031 71.066406 95.714844 67.589844 C 96.945312 67.097656 98.285156 66.933594 99.734375 67.085938 C 99.859375 65.355469 99.691406 63.683594 99.230469 62.058594 C 97.832031 61.570312 96.324219 61.402344 94.710938 61.558594 C 94.710938 61.222656 94.710938 60.886719 94.710938 60.554688 C 94.710938 60.050781 94.710938 59.546875 94.710938 59.046875 C 96.488281 59.203125 98.164062 59.035156 99.734375 58.542969 C 99.734375 57.371094 99.734375 56.199219 99.734375 55.023438 C 99.714844 54.480469 99.546875 53.976562 99.230469 53.519531 C 97.761719 53.023438 96.253906 52.855469 94.710938 53.015625 C 94.75 52.296875 94.582031 51.625 94.207031 51.003906 C 94.964844 50.332031 95.296875 49.492188 95.210938 48.492188 C 96.695312 48.632812 98.117188 48.464844 99.484375 47.988281 C 99.734375 46.324219 99.816406 44.648438 99.734375 42.964844 C 99.199219 42.496094 98.527344 42.328125 97.722656 42.460938 C 97.722656 41.960938 97.722656 41.457031 97.722656 40.953125 C 96.714844 41.214844 95.707031 41.296875 94.710938 41.207031 C 96.105469 40.507812 97.613281 40.253906 99.230469 40.453125 Z M 99.230469 40.453125 "/>
</g>
<mask id="mask13">
  <g filter="url(#alpha)">
<rect x="0" y="0" width="103" height="100" style="fill:rgb(0%,0%,0%);fill-opacity:0.835294;stroke:none;"/>
  </g>
</mask>
<clipPath id="clip14">
  <rect x="0" y="0" width="103" height="100"/>
</clipPath>
<g id="surface44" clip-path="url(#clip14)">
<path style=" stroke:none;fill-rule:evenodd;fill:rgb(7.058824%,3.921569%,4.705882%);fill-opacity:1;" d="M 3.265625 25.878906 C 8.105469 26.886719 12.960938 28.058594 17.835938 29.398438 C 14.710938 31.382812 11.863281 33.726562 9.296875 36.433594 C 7.214844 37.992188 5.539062 39.917969 4.269531 42.210938 C 7.578125 42 10.925781 41.917969 14.320312 41.960938 C 14.472656 42.285156 14.640625 42.621094 14.820312 42.964844 C 11.472656 43.433594 8.292969 44.269531 5.277344 45.476562 C 4.183594 45.601562 3.347656 46.105469 2.761719 46.984375 C 2.367188 47.128906 2.03125 47.378906 1.757812 47.738281 C 6.109375 49.046875 10.128906 50.972656 13.816406 53.519531 C 14.214844 53.96875 14.714844 54.304688 15.324219 54.523438 C 11.871094 55.765625 8.269531 55.765625 4.523438 54.523438 C 3.660156 54.789062 3.574219 55.125 4.269531 55.527344 C 6.0625 58.265625 7.988281 60.945312 10.046875 63.566406 C 11.609375 65.476562 13.535156 66.816406 15.828125 67.589844 C 15.828125 67.921875 15.996094 68.089844 16.328125 68.089844 C 17.476562 68.5 18.480469 69.167969 19.34375 70.101562 C 17.765625 70.914062 16.089844 71.417969 14.320312 71.609375 C 11.300781 71.523438 8.285156 71.609375 5.277344 71.859375 C 5.550781 72.21875 5.882812 72.472656 6.28125 72.613281 C 7.800781 73.875 9.476562 74.882812 11.304688 75.628906 C 13.183594 77.148438 15.359375 77.988281 17.835938 78.140625 C 18.738281 78.546875 19.742188 78.796875 20.851562 78.894531 C 20.570312 79.085938 20.40625 79.339844 20.347656 79.648438 C 17.414062 80.582031 14.402344 81.085938 11.304688 81.15625 C 8.785156 81.074219 6.273438 81.15625 3.769531 81.40625 C 4.042969 81.765625 4.375 82.019531 4.773438 82.160156 C 12.253906 87.007812 20.460938 88.851562 29.394531 87.6875 C 30.234375 87.582031 30.738281 87.914062 30.898438 88.695312 C 27.410156 89.828125 23.890625 90.917969 20.347656 91.960938 C 21.714844 92.917969 23.21875 93.589844 24.871094 93.96875 C 30.726562 94.925781 36.589844 94.925781 42.457031 93.96875 C 49.246094 91.070312 49.75 92.074219 43.964844 96.984375 C 50.722656 95.78125 56.25 92.515625 60.542969 87.1875 C 60.710938 88.191406 60.878906 89.195312 61.046875 90.199219 C 55.046875 96.046875 47.84375 98.8125 39.441406 98.492188 C 40.445312 97.824219 41.453125 97.152344 42.457031 96.480469 C 43.058594 96.152344 43.058594 95.902344 42.457031 95.730469 C 34.640625 97.625 27.101562 96.871094 19.847656 93.46875 C 19.0625 92.996094 18.390625 92.40625 17.835938 91.707031 C 18.210938 91.367188 18.542969 91.03125 18.839844 90.703125 C 19.878906 90.609375 20.882812 90.359375 21.855469 89.949219 C 18.28125 89.417969 14.765625 88.664062 11.304688 87.6875 C 7.839844 86.492188 4.996094 84.398438 2.761719 81.40625 C 3.246094 80.671875 3.914062 80.253906 4.773438 80.152344 C 9.167969 80.789062 13.523438 80.539062 17.835938 79.398438 C 13.558594 78.003906 9.539062 76.246094 5.777344 74.121094 C 4.882812 73.09375 4.046875 72.003906 3.265625 70.855469 C 7.207031 70.769531 11.058594 70.515625 14.820312 70.101562 C 15.839844 70.183594 16.84375 70.097656 17.835938 69.847656 C 16.25 69.378906 14.828125 68.625 13.566406 67.589844 C 12.996094 68.449219 12.242188 68.699219 11.304688 68.339844 C 6.199219 64.046875 3.015625 58.769531 1.757812 52.511719 C 3.339844 52.117188 4.929688 51.78125 6.53125 51.507812 C 7.65625 52.449219 8.910156 53.203125 10.300781 53.769531 C 10.96875 54.105469 11.640625 54.105469 12.308594 53.769531 C 10.636719 52.765625 8.960938 51.757812 7.285156 50.753906 C 6.566406 50.460938 5.898438 50.546875 5.277344 51.003906 C 3.464844 50.265625 1.789062 49.261719 0.25 47.988281 C 1.195312 46.6875 2.199219 45.429688 3.265625 44.222656 C 2.738281 43.523438 2.652344 42.769531 3.015625 41.960938 C 5.53125 37.753906 8.628906 34.066406 12.308594 30.90625 C 12.941406 30.925781 13.441406 30.671875 13.816406 30.152344 C 11.433594 29.011719 8.921875 28.421875 6.28125 28.390625 C 4.378906 28.488281 2.871094 27.816406 1.757812 26.382812 C 2.207031 26.074219 2.707031 25.90625 3.265625 25.878906 Z M 22.359375 89.195312 C 23.9375 88.621094 25.609375 88.539062 27.382812 88.945312 C 25.714844 89.757812 24.039062 89.839844 22.359375 89.195312 Z M 22.359375 89.195312 "/>
</g>
<mask id="mask14">
  <g filter="url(#alpha)">
<rect x="0" y="0" width="103" height="100" style="fill:rgb(0%,0%,0%);fill-opacity:0.0392157;stroke:none;"/>
  </g>
</mask>
<clipPath id="clip15">
  <rect x="0" y="0" width="103" height="100"/>
</clipPath>
<g id="surface47" clip-path="url(#clip15)">
<path style=" stroke:none;fill-rule:evenodd;fill:rgb(16.470588%,21.568627%,25.882353%);fill-opacity:1;" d="M 80.140625 86.683594 C 79.515625 89.90625 77.671875 92.167969 74.613281 93.46875 C 69.9375 95.339844 65.667969 94.421875 61.800781 90.703125 C 56.753906 94.859375 51.144531 97.875 44.96875 99.75 C 43.796875 99.75 42.625 99.75 41.453125 99.75 C 41.285156 99.078125 41.117188 99.078125 40.949219 99.75 C 40.78125 99.75 40.613281 99.75 40.445312 99.75 C 40.089844 99.292969 39.585938 99.128906 38.9375 99.246094 C 38.9375 98.742188 38.9375 98.242188 38.9375 97.738281 C 33.644531 98.003906 28.453125 97.417969 23.363281 95.980469 C 21.0625 95.039062 18.96875 93.785156 17.082031 92.210938 C 16.914062 90.988281 17.5 90.484375 18.839844 90.703125 C 18.542969 91.03125 18.210938 91.367188 17.835938 91.707031 C 18.390625 92.40625 19.0625 92.996094 19.847656 93.46875 C 27.101562 96.871094 34.640625 97.625 42.457031 95.730469 C 43.058594 95.902344 43.058594 96.152344 42.457031 96.480469 C 41.453125 97.152344 40.445312 97.824219 39.441406 98.492188 C 47.84375 98.8125 55.046875 96.046875 61.046875 90.199219 C 61.355469 90.144531 61.609375 89.976562 61.800781 89.699219 C 62.742188 90.808594 63.828125 91.730469 65.066406 92.460938 C 71.832031 94.925781 76.859375 93 80.140625 86.683594 Z M 80.140625 86.683594 "/>
</g>
</defs>
<g id="surface1">
<use xlink:href="#surface5" mask="url(#mask0)"/>
<path style=" stroke:none;fill-rule:evenodd;fill:rgb(76.078431%,0.392157%,15.294118%);fill-opacity:1;" d="M 52.503906 9.800781 C 52.859375 11.449219 53.027344 13.125 53.007812 14.824219 C 51.324219 14.742188 49.648438 14.824219 47.984375 15.074219 C 47.363281 15.773438 46.691406 16.359375 45.972656 16.835938 C 45.589844 15.949219 44.921875 15.445312 43.964844 15.328125 C 43.375 14.902344 42.703125 14.566406 41.953125 14.320312 C 40.375 13.953125 38.78125 13.449219 37.179688 12.8125 C 36.980469 12.929688 36.894531 13.097656 36.929688 13.316406 C 36.566406 13.105469 36.316406 12.773438 36.175781 12.3125 C 36.097656 13.496094 36.097656 14.667969 36.175781 15.828125 C 35.097656 14.835938 33.839844 14.167969 32.40625 13.820312 C 32.671875 13.472656 33.007812 13.21875 33.414062 13.066406 C 32.453125 12.5 31.449219 12.082031 30.398438 11.808594 C 30.023438 10.988281 30.191406 10.148438 30.898438 9.296875 C 33.222656 8.796875 35.566406 8.628906 37.933594 8.792969 C 38.652344 8.753906 39.324219 8.921875 39.945312 9.296875 C 40.34375 9.066406 40.511719 8.730469 40.445312 8.292969 C 40.609375 7.511719 41.109375 7.179688 41.953125 7.285156 C 42.046875 8.324219 42.300781 9.328125 42.707031 10.300781 C 42.957031 10.050781 43.210938 9.800781 43.460938 9.546875 C 43.039062 9.039062 42.875 8.453125 42.957031 7.789062 C 45.023438 8.117188 46.78125 7.613281 48.234375 6.28125 C 49.609375 6.714844 49.691406 7.132812 48.484375 7.539062 C 49.824219 7.539062 51.164062 7.539062 52.503906 7.539062 C 52.738281 8.191406 52.738281 8.945312 52.503906 9.800781 Z M 52.503906 9.800781 "/>
<path style=" stroke:none;fill-rule:evenodd;fill:rgb(69.019608%,3.529412%,14.117647%);fill-opacity:1;" d="M 59.035156 10.804688 C 59.164062 11.644531 59.496094 12.398438 60.042969 13.066406 C 59.875 13.148438 59.707031 13.234375 59.539062 13.316406 C 58.847656 12.457031 58.007812 11.785156 57.027344 11.304688 C 54.960938 12.253906 53.453125 11.75 52.503906 9.800781 C 52.738281 8.945312 52.738281 8.191406 52.503906 7.539062 C 51.164062 7.539062 49.824219 7.539062 48.484375 7.539062 C 49.691406 7.132812 49.609375 6.714844 48.234375 6.28125 C 46.78125 7.613281 45.023438 8.117188 42.957031 7.789062 C 42.875 8.453125 43.039062 9.039062 43.460938 9.546875 C 43.210938 9.800781 42.957031 10.050781 42.707031 10.300781 C 42.300781 9.328125 42.046875 8.324219 41.953125 7.285156 C 41.109375 7.179688 40.609375 7.511719 40.445312 8.292969 C 38.363281 6.996094 36.183594 5.824219 33.914062 4.773438 C 33.914062 4.605469 33.914062 4.4375 33.914062 4.269531 C 38.253906 4.371094 42.359375 5.378906 46.222656 7.285156 C 46.476562 7.203125 46.726562 7.117188 46.976562 7.035156 C 45.378906 4.890625 43.371094 3.214844 40.949219 2.011719 C 48.113281 2.660156 54.140625 5.59375 59.035156 10.804688 Z M 59.035156 10.804688 "/>
<path style=" stroke:none;fill-rule:evenodd;fill:rgb(68.235294%,7.45098%,16.470588%);fill-opacity:1;" d="M 37.933594 8.792969 C 35.566406 8.628906 33.222656 8.796875 30.898438 9.296875 C 30.191406 10.148438 30.023438 10.988281 30.398438 11.808594 C 30.964844 12.722656 31.300781 13.726562 31.402344 14.824219 C 26.710938 14.742188 22.019531 14.824219 17.335938 15.074219 C 15.902344 15.792969 14.394531 16.210938 12.8125 16.332031 C 14.785156 15.144531 16.960938 14.390625 19.34375 14.070312 C 22.859375 13.902344 26.378906 13.734375 29.894531 13.566406 C 25.410156 11.597656 20.890625 10.171875 16.328125 9.296875 C 23.527344 6.230469 30.730469 6.0625 37.933594 8.792969 Z M 37.933594 8.792969 "/>
<use xlink:href="#surface8" mask="url(#mask1)"/>
<path style=" stroke:none;fill-rule:evenodd;fill:rgb(50.588235%,2.352941%,9.019608%);fill-opacity:1;" d="M 52.503906 9.800781 C 53.453125 11.75 54.960938 12.253906 57.027344 11.304688 C 58.007812 11.785156 58.847656 12.457031 59.539062 13.316406 C 59.707031 13.234375 59.875 13.148438 60.042969 13.066406 C 59.496094 12.398438 59.164062 11.644531 59.035156 10.804688 C 60.382812 11.824219 61.222656 13.164062 61.546875 14.824219 C 58.199219 15.019531 54.847656 15.269531 51.5 15.578125 C 49.78125 15.871094 48.191406 16.457031 46.726562 17.335938 C 46.34375 17.300781 46.089844 17.132812 45.972656 16.835938 C 46.691406 16.359375 47.363281 15.773438 47.984375 15.074219 C 49.648438 14.824219 51.324219 14.742188 53.007812 14.824219 C 53.027344 13.125 52.859375 11.449219 52.503906 9.800781 Z M 52.503906 9.800781 "/>
<use xlink:href="#surface11" mask="url(#mask2)"/>
<use xlink:href="#surface14" mask="url(#mask3)"/>
<path style=" stroke:none;fill-rule:evenodd;fill:rgb(36.078431%,54.901961%,28.235294%);fill-opacity:1;" d="M 76.121094 11.808594 C 76.207031 12.410156 76.375 12.996094 76.621094 13.566406 C 76.539062 14.320312 76.121094 14.742188 75.367188 14.824219 C 74.066406 13.9375 72.644531 13.4375 71.09375 13.316406 C 68.789062 13.976562 66.445312 14.480469 64.0625 14.824219 C 63.085938 14.066406 62.835938 13.058594 63.308594 11.808594 C 66.207031 8.796875 69.640625 8.042969 73.605469 9.546875 C 74.691406 10.046875 75.53125 10.800781 76.121094 11.808594 Z M 76.121094 11.808594 "/>
<path style=" stroke:none;fill-rule:evenodd;fill:rgb(32.54902%,0.392157%,4.705882%);fill-opacity:1;" d="M 41.953125 14.320312 C 42.703125 14.566406 43.375 14.902344 43.964844 15.328125 C 43.628906 15.328125 43.460938 15.492188 43.460938 15.828125 C 42.078125 15.566406 40.738281 15.148438 39.441406 14.574219 C 40.261719 14.324219 41.101562 14.242188 41.953125 14.320312 Z M 41.953125 14.320312 "/>
<path style=" stroke:none;fill-rule:evenodd;fill:rgb(21.176471%,34.117647%,19.215686%);fill-opacity:1;" d="M 76.121094 11.808594 C 77.457031 12.984375 78.128906 14.488281 78.128906 16.332031 C 76.949219 16.246094 75.777344 16.078125 74.613281 15.828125 C 71.8125 16.679688 68.964844 16.929688 66.070312 16.582031 C 65.152344 16.25 64.484375 15.664062 64.0625 14.824219 C 66.445312 14.480469 68.789062 13.976562 71.09375 13.316406 C 72.644531 13.4375 74.066406 13.9375 75.367188 14.824219 C 76.121094 14.742188 76.539062 14.320312 76.621094 13.566406 C 76.375 12.996094 76.207031 12.410156 76.121094 11.808594 Z M 76.121094 11.808594 "/>
<path style=" stroke:none;fill-rule:evenodd;fill:rgb(59.215686%,1.568627%,10.980392%);fill-opacity:1;" d="M 41.953125 14.320312 C 41.101562 14.242188 40.261719 14.324219 39.441406 14.574219 C 40.738281 15.148438 42.078125 15.566406 43.460938 15.828125 C 44.808594 16.417969 45.394531 17.421875 45.21875 18.84375 C 41.566406 21.078125 38.300781 23.757812 35.421875 26.882812 C 35.34375 26.195312 35.425781 25.523438 35.671875 24.875 C 37.355469 23.734375 38.277344 22.140625 38.4375 20.101562 C 38.207031 17.765625 37.707031 15.503906 36.929688 13.316406 C 36.894531 13.097656 36.980469 12.929688 37.179688 12.8125 C 38.78125 13.449219 40.375 13.953125 41.953125 14.320312 Z M 41.953125 14.320312 "/>
<path style=" stroke:none;fill-rule:evenodd;fill:rgb(62.352941%,6.27451%,14.901961%);fill-opacity:1;" d="M 12.308594 16.332031 C 11.671875 16.976562 11.839844 17.480469 12.8125 17.839844 C 10.871094 18.390625 10.871094 18.808594 12.8125 19.09375 C 11.976562 19.261719 11.136719 19.429688 10.300781 19.597656 C 14.921875 19.988281 19.441406 20.574219 23.867188 21.355469 C 20.683594 21.355469 17.5 21.355469 14.320312 21.355469 C 11.210938 20.878906 8.03125 20.792969 4.773438 21.105469 C 6.972656 19 9.488281 17.410156 12.308594 16.332031 Z M 12.308594 16.332031 "/>
<path style=" stroke:none;fill-rule:evenodd;fill:rgb(33.72549%,40.784314%,27.058824%);fill-opacity:1;" d="M 61.046875 17.335938 C 61.046875 17.503906 61.046875 17.671875 61.046875 17.839844 C 58.039062 20.925781 54.355469 22.183594 49.992188 21.609375 C 49.714844 21.414062 49.546875 21.164062 49.492188 20.855469 C 49.464844 19.5 49.96875 18.410156 50.996094 17.589844 C 54.34375 17.335938 57.691406 17.253906 61.046875 17.335938 Z M 61.046875 17.335938 "/>
<path style=" stroke:none;fill-rule:evenodd;fill:rgb(58.431373%,11.764706%,15.686275%);fill-opacity:1;" d="M 61.046875 17.839844 C 61.046875 17.671875 61.046875 17.503906 61.046875 17.335938 C 62.742188 17.597656 64.25 18.269531 65.566406 19.347656 C 65.566406 19.847656 65.566406 20.351562 65.566406 20.855469 C 65.039062 20.929688 64.539062 20.84375 64.0625 20.601562 C 62.902344 19.785156 61.898438 18.863281 61.046875 17.839844 Z M 61.046875 17.839844 "/>
<path style=" stroke:none;fill-rule:evenodd;fill:rgb(32.156863%,41.960784%,23.529412%);fill-opacity:1;" d="M 81.144531 19.847656 C 79.960938 19.765625 78.789062 19.851562 77.625 20.101562 C 77.792969 20.269531 77.960938 20.433594 78.128906 20.601562 C 77.347656 20.707031 76.675781 20.960938 76.121094 21.355469 C 74.78125 21.355469 73.441406 21.355469 72.101562 21.355469 C 72.101562 21.859375 72.101562 22.363281 72.101562 22.863281 C 70.417969 22.78125 68.742188 22.863281 67.074219 23.117188 C 68.183594 23.210938 69.191406 23.460938 70.089844 23.871094 C 67.210938 23.859375 64.367188 23.945312 61.546875 24.121094 C 63.238281 23.375 64.574219 22.285156 65.566406 20.855469 C 65.566406 20.351562 65.566406 19.847656 65.566406 19.347656 C 70.21875 18.773438 74.90625 18.691406 79.636719 19.09375 C 80.257812 19.210938 80.761719 19.464844 81.144531 19.847656 Z M 81.144531 19.847656 "/>
<path style=" stroke:none;fill-rule:evenodd;fill:rgb(31.372549%,46.27451%,20%);fill-opacity:1;" d="M 81.144531 19.847656 C 83.429688 21.050781 85.019531 22.894531 85.917969 25.375 C 86.546875 26.671875 86.714844 28.011719 86.417969 29.398438 C 85.664062 30.570312 84.914062 31.742188 84.160156 32.914062 C 84.550781 33.8125 85.222656 34.316406 86.167969 34.421875 C 86.777344 34.921875 86.695312 35.425781 85.917969 35.929688 C 85.265625 38.25 85.851562 40.175781 87.675781 41.707031 C 87.300781 42.230469 86.800781 42.480469 86.167969 42.460938 C 85.183594 41.730469 84.261719 40.890625 83.40625 39.949219 C 83.152344 37.105469 83.070312 34.257812 83.152344 31.40625 C 83.464844 27.910156 82.460938 24.894531 80.140625 22.363281 C 78.871094 21.714844 77.53125 21.382812 76.121094 21.355469 C 76.675781 20.960938 77.347656 20.707031 78.128906 20.601562 C 77.960938 20.433594 77.792969 20.269531 77.625 20.101562 C 78.789062 19.851562 79.960938 19.765625 81.144531 19.847656 Z M 81.144531 19.847656 "/>
<path style=" stroke:none;fill-rule:evenodd;fill:rgb(42.745098%,58.039216%,30.588235%);fill-opacity:1;" d="M 76.121094 21.355469 C 77.53125 21.382812 78.871094 21.714844 80.140625 22.363281 C 82.460938 24.894531 83.464844 27.910156 83.152344 31.40625 C 82.660156 31.085938 82.15625 30.75 81.644531 30.402344 C 81.136719 33.851562 80.464844 37.203125 79.636719 40.453125 C 80.347656 36.242188 80.265625 32.054688 79.386719 27.890625 C 78.089844 26.027344 76.332031 24.855469 74.109375 24.371094 C 72.769531 24.203125 71.429688 24.035156 70.089844 23.871094 C 69.191406 23.460938 68.183594 23.210938 67.074219 23.117188 C 68.742188 22.863281 70.417969 22.78125 72.101562 22.863281 C 72.101562 22.363281 72.101562 21.859375 72.101562 21.355469 C 73.441406 21.355469 74.78125 21.355469 76.121094 21.355469 Z M 76.121094 21.355469 "/>
<path style=" stroke:none;fill-rule:evenodd;fill:rgb(34.509804%,35.294118%,32.941176%);fill-opacity:1;" d="M 69.585938 24.875 C 69.753906 25.210938 69.921875 25.542969 70.089844 25.878906 C 67.40625 25.960938 64.726562 25.878906 62.050781 25.628906 C 64.5625 25.320312 67.074219 25.070312 69.585938 24.875 Z M 69.585938 24.875 "/>
<path style=" stroke:none;fill-rule:evenodd;fill:rgb(14.509804%,17.254902%,11.372549%);fill-opacity:1;" d="M 74.109375 24.371094 C 76.332031 24.855469 78.089844 26.027344 79.386719 27.890625 C 80.265625 32.054688 80.347656 36.242188 79.636719 40.453125 C 78.855469 41.671875 77.851562 42.679688 76.621094 43.46875 C 76.285156 43.46875 75.953125 43.46875 75.617188 43.46875 C 75.617188 43.132812 75.449219 42.964844 75.113281 42.964844 C 76.105469 42.308594 76.941406 41.472656 77.625 40.453125 C 78.84375 39.050781 79.34375 37.375 79.132812 35.425781 C 79.183594 33.609375 78.851562 31.933594 78.128906 30.402344 C 77.628906 29.417969 77.128906 28.414062 76.621094 27.386719 C 76.664062 26.886719 76.496094 26.46875 76.121094 26.128906 C 75.207031 25.75 74.371094 25.332031 73.605469 24.875 C 73.941406 24.875 74.109375 24.707031 74.109375 24.371094 Z M 74.109375 24.371094 "/>
<path style=" stroke:none;fill-rule:evenodd;fill:rgb(76.470588%,5.882353%,16.470588%);fill-opacity:1;" d="M 48.484375 19.847656 C 48.003906 20.734375 47.835938 21.742188 47.984375 22.863281 C 49.0625 23.054688 50.148438 23.222656 51.25 23.367188 C 53.964844 22.804688 56.5625 21.882812 59.035156 20.601562 C 60.527344 20.152344 61.867188 20.40625 63.054688 21.355469 C 60.589844 23.296875 59 25.808594 58.28125 28.894531 C 57.574219 29.351562 56.820312 29.351562 56.023438 28.894531 C 55.664062 28.441406 55.164062 28.273438 54.515625 28.390625 C 51.480469 27.261719 48.300781 26.84375 44.96875 27.136719 C 43.3125 28.203125 42.140625 29.625 41.453125 31.40625 C 41.578125 32.964844 41.914062 34.472656 42.457031 35.929688 C 42.300781 36.550781 42.050781 36.550781 41.703125 35.929688 C 40.65625 30.691406 39.570312 30.691406 38.4375 35.929688 C 37.476562 35.890625 36.890625 35.390625 36.679688 34.421875 C 36.25 32.347656 36.417969 30.339844 37.179688 28.390625 C 38.585938 26.484375 40.175781 24.722656 41.953125 23.117188 C 44.191406 21.71875 46.285156 20.125 48.234375 18.339844 C 48.476562 18.816406 48.558594 19.320312 48.484375 19.847656 Z M 48.484375 19.847656 "/>
<path style=" stroke:none;fill-rule:evenodd;fill:rgb(72.54902%,74.117647%,69.411765%);fill-opacity:1;" d="M 69.585938 24.875 C 70.929688 24.875 72.265625 24.875 73.605469 24.875 C 74.371094 25.332031 75.207031 25.75 76.121094 26.128906 C 76.496094 26.46875 76.664062 26.886719 76.621094 27.386719 C 74.589844 26.335938 72.410156 25.832031 70.089844 25.878906 C 69.921875 25.542969 69.753906 25.210938 69.585938 24.875 Z M 69.585938 24.875 "/>
<path style=" stroke:none;fill-rule:evenodd;fill:rgb(5.098039%,3.137255%,1.960784%);fill-opacity:1;" d="M 61.046875 17.839844 C 61.898438 18.863281 62.902344 19.785156 64.0625 20.601562 C 64.539062 20.84375 65.039062 20.929688 65.566406 20.855469 C 64.574219 22.285156 63.238281 23.375 61.546875 24.121094 C 64.367188 23.945312 67.210938 23.859375 70.089844 23.871094 C 71.429688 24.035156 72.769531 24.203125 74.109375 24.371094 C 74.109375 24.707031 73.941406 24.875 73.605469 24.875 C 72.265625 24.875 70.929688 24.875 69.585938 24.875 C 67.074219 25.070312 64.5625 25.320312 62.050781 25.628906 C 64.726562 25.878906 67.40625 25.960938 70.089844 25.878906 C 72.410156 25.832031 74.589844 26.335938 76.621094 27.386719 C 77.128906 28.414062 77.628906 29.417969 78.128906 30.402344 C 78.371094 33.679688 78.035156 36.859375 77.125 39.949219 C 73.03125 39.503906 71.023438 37.15625 71.09375 32.914062 C 70.816406 30.835938 71.316406 28.996094 72.601562 27.386719 C 69.117188 26.605469 65.601562 26.355469 62.050781 26.632812 C 60.300781 27.949219 59.460938 29.707031 59.539062 31.910156 C 62.121094 31.558594 64.464844 32.0625 66.574219 33.417969 C 68.808594 36.382812 70.0625 39.734375 70.339844 43.46875 C 70.789062 43.757812 71.292969 43.925781 71.847656 43.96875 C 72.96875 43.703125 74.054688 43.367188 75.113281 42.964844 C 75.449219 42.964844 75.617188 43.132812 75.617188 43.46875 C 74.949219 43.800781 74.277344 44.136719 73.605469 44.472656 C 72.707031 44.707031 71.789062 44.875 70.84375 44.976562 C 68.875 44.535156 66.949219 44.117188 65.066406 43.71875 C 66.570312 44.359375 67.40625 45.445312 67.578125 46.984375 C 67.667969 48.804688 67.332031 50.480469 66.574219 52.011719 C 66.65625 50.160156 66.574219 48.316406 66.320312 46.480469 C 65.828125 45.242188 65.078125 44.238281 64.0625 43.46875 C 62.976562 43.007812 61.800781 43.007812 60.542969 43.46875 C 59.519531 39.023438 58.347656 34.667969 57.027344 30.402344 C 56.691406 29.898438 56.355469 29.398438 56.023438 28.894531 C 56.820312 29.351562 57.574219 29.351562 58.28125 28.894531 C 59 25.808594 60.589844 23.296875 63.054688 21.355469 C 61.867188 20.40625 60.527344 20.152344 59.035156 20.601562 C 56.5625 21.882812 53.964844 22.804688 51.25 23.367188 C 50.148438 23.222656 49.0625 23.054688 47.984375 22.863281 C 47.835938 21.742188 48.003906 20.734375 48.484375 19.847656 C 48.652344 20.351562 48.988281 20.6875 49.492188 20.855469 C 49.546875 21.164062 49.714844 21.414062 49.992188 21.609375 C 54.355469 22.183594 58.039062 20.925781 61.046875 17.839844 Z M 61.046875 17.839844 "/>
<path style=" stroke:none;fill-rule:evenodd;fill:rgb(58.823529%,36.078431%,4.313725%);fill-opacity:1;" d="M 71.09375 32.914062 C 70.699219 32.359375 70.445312 31.6875 70.339844 30.90625 C 70.175781 31.238281 70.007812 31.574219 69.839844 31.910156 C 68.941406 31.972656 68.019531 31.972656 67.074219 31.910156 C 66.628906 32.324219 66.464844 32.828125 66.574219 33.417969 C 64.464844 32.0625 62.121094 31.558594 59.539062 31.910156 C 59.460938 29.707031 60.300781 27.949219 62.050781 26.632812 C 65.601562 26.355469 69.117188 26.605469 72.601562 27.386719 C 71.316406 28.996094 70.816406 30.835938 71.09375 32.914062 Z M 71.09375 32.914062 "/>
<use xlink:href="#surface17" mask="url(#mask4)"/>
<path style=" stroke:none;fill-rule:evenodd;fill:rgb(89.411765%,34.509804%,46.666667%);fill-opacity:1;" d="M 54.515625 28.390625 C 53.007812 30.066406 51.5 31.742188 49.992188 33.417969 C 49.019531 29.753906 46.675781 28.578125 42.957031 29.898438 C 42.613281 30.582031 42.109375 31.082031 41.453125 31.40625 C 42.140625 29.625 43.3125 28.203125 44.96875 27.136719 C 48.300781 26.84375 51.480469 27.261719 54.515625 28.390625 Z M 54.515625 28.390625 "/>
<path style=" stroke:none;fill-rule:evenodd;fill:rgb(96.078431%,48.627451%,61.568627%);fill-opacity:1;" d="M 49.992188 33.417969 C 49.789062 33.992188 49.453125 34.492188 48.988281 34.925781 C 47.988281 33.917969 46.816406 33.5 45.472656 33.667969 C 45.15625 35.144531 44.820312 36.570312 44.464844 37.941406 C 43.976562 37.117188 43.308594 36.445312 42.457031 35.929688 C 41.914062 34.472656 41.578125 32.964844 41.453125 31.40625 C 42.109375 31.082031 42.613281 30.582031 42.957031 29.898438 C 46.675781 28.578125 49.019531 29.753906 49.992188 33.417969 Z M 49.992188 33.417969 "/>
<path style=" stroke:none;fill-rule:evenodd;fill:rgb(92.156863%,67.45098%,41.960784%);fill-opacity:1;" d="M 93.203125 34.421875 C 94.054688 32.78125 93.554688 31.777344 91.695312 31.40625 C 90.625 31.859375 89.621094 32.445312 88.679688 33.164062 C 87.953125 33.558594 87.285156 33.472656 86.671875 32.914062 C 87.050781 31.980469 87.554688 31.140625 88.179688 30.402344 C 91.71875 28.488281 94.230469 29.410156 95.714844 33.164062 C 95.269531 34.25 94.433594 34.667969 93.203125 34.421875 Z M 93.203125 34.421875 "/>
<path style=" stroke:none;fill-rule:evenodd;fill:rgb(63.529412%,7.843137%,15.686275%);fill-opacity:1;" d="M 17.835938 29.398438 C 19.246094 29.699219 20.585938 30.203125 21.855469 30.90625 C 17.441406 32.363281 13.253906 34.203125 9.296875 36.433594 C 11.863281 33.726562 14.710938 31.382812 17.835938 29.398438 Z M 17.835938 29.398438 "/>
<path style=" stroke:none;fill-rule:evenodd;fill:rgb(96.862745%,33.72549%,44.705882%);fill-opacity:1;" d="M 25.375 44.976562 C 25.039062 44.808594 24.703125 44.640625 24.367188 44.472656 C 22.074219 43.695312 19.730469 43.027344 17.335938 42.460938 C 16.296875 42.453125 15.292969 42.285156 14.320312 41.960938 C 10.925781 41.917969 7.578125 42 4.269531 42.210938 C 5.539062 39.917969 7.214844 37.992188 9.296875 36.433594 C 13.253906 34.203125 17.441406 32.363281 21.855469 30.90625 C 20.585938 30.203125 19.246094 29.699219 17.835938 29.398438 C 12.960938 28.058594 8.105469 26.886719 3.265625 25.878906 C 6.71875 23.816406 10.402344 22.308594 14.320312 21.355469 C 17.5 21.355469 20.683594 21.355469 23.867188 21.355469 C 24.96875 22.007812 26.140625 22.007812 27.382812 21.355469 C 27.144531 20.867188 26.808594 20.445312 26.378906 20.101562 C 16.863281 17.453125 17.03125 16.449219 26.878906 17.085938 C 30.898438 17.078125 33.746094 18.835938 35.421875 22.363281 C 35.40625 23.128906 35.074219 23.714844 34.417969 24.121094 C 32.449219 24.847656 30.773438 25.9375 29.394531 27.386719 C 30.582031 30.375 29.828125 32.722656 27.132812 34.421875 C 26.699219 35.21875 26.363281 36.058594 26.125 36.933594 C 26.019531 39.65625 25.765625 42.335938 25.375 44.976562 Z M 25.375 44.976562 "/>
<path style=" stroke:none;fill-rule:evenodd;fill:rgb(100%,70.196078%,77.647059%);fill-opacity:1;" d="M 9.296875 24.875 C 15.070312 23.886719 20.429688 25.058594 25.375 28.390625 C 23.097656 28.503906 20.921875 27.917969 18.839844 26.632812 C 15.640625 26.019531 12.460938 25.433594 9.296875 24.875 Z M 9.296875 24.875 "/>
<path style=" stroke:none;fill-rule:evenodd;fill:rgb(61.960784%,64.313725%,56.862745%);fill-opacity:1;" d="M 78.128906 30.402344 C 78.851562 31.933594 79.183594 33.609375 79.132812 35.425781 C 79.34375 37.375 78.84375 39.050781 77.625 40.453125 C 77.625 40.117188 77.460938 39.949219 77.125 39.949219 C 78.035156 36.859375 78.371094 33.679688 78.128906 30.402344 Z M 78.128906 30.402344 "/>
<path style=" stroke:none;fill-rule:evenodd;fill:rgb(54.117647%,68.627451%,33.72549%);fill-opacity:1;" d="M 56.023438 28.894531 C 56.355469 29.398438 56.691406 29.898438 57.027344 30.402344 C 57.230469 34.449219 57.230469 38.46875 57.027344 42.460938 C 54.460938 40.3125 52.117188 37.882812 49.992188 35.175781 C 51.3125 33.460938 52.566406 31.703125 53.761719 29.898438 C 54.320312 29.128906 55.074219 28.792969 56.023438 28.894531 Z M 56.023438 28.894531 "/>
<path style=" stroke:none;fill-rule:evenodd;fill:rgb(10.588235%,11.372549%,6.27451%);fill-opacity:1;" d="M 54.515625 28.390625 C 55.164062 28.273438 55.664062 28.441406 56.023438 28.894531 C 55.074219 28.792969 54.320312 29.128906 53.761719 29.898438 C 52.566406 31.703125 51.3125 33.460938 49.992188 35.175781 C 52.117188 37.882812 54.460938 40.3125 57.027344 42.460938 C 57.714844 42.96875 58.386719 43.472656 59.035156 43.96875 C 58.304688 43.9375 57.632812 44.101562 57.027344 44.472656 C 56.859375 44.472656 56.691406 44.472656 56.523438 44.472656 C 54.199219 41.308594 51.519531 38.460938 48.484375 35.929688 C 47.980469 35.003906 47.226562 34.335938 46.222656 33.917969 C 45.605469 35.328125 45.269531 36.835938 45.21875 38.441406 C 44.078125 39.101562 42.988281 39.101562 41.953125 38.441406 C 42.914062 38.585938 43.753906 38.417969 44.464844 37.941406 C 44.820312 36.570312 45.15625 35.144531 45.472656 33.667969 C 46.816406 33.5 47.988281 33.917969 48.988281 34.925781 C 49.453125 34.492188 49.789062 33.992188 49.992188 33.417969 C 51.5 31.742188 53.007812 30.066406 54.515625 28.390625 Z M 54.515625 28.390625 "/>
<path style=" stroke:none;fill-rule:evenodd;fill:rgb(91.764706%,91.764706%,90.980392%);fill-opacity:1;" d="M 97.722656 34.925781 C 98.394531 34.925781 99.0625 34.925781 99.734375 34.925781 C 99.890625 36.703125 99.722656 38.378906 99.230469 39.949219 C 96.875 39.917969 94.53125 40.085938 92.199219 40.453125 C 90.542969 40.339844 88.953125 40.003906 87.425781 39.445312 C 87.039062 38.140625 87.121094 36.886719 87.675781 35.679688 C 91.117188 35.59375 94.464844 35.339844 97.722656 34.925781 Z M 97.722656 34.925781 "/>
<path style=" stroke:none;fill-rule:evenodd;fill:rgb(84.705882%,32.156863%,35.294118%);fill-opacity:1;" d="M 42.457031 35.929688 C 43.308594 36.445312 43.976562 37.117188 44.464844 37.941406 C 43.753906 38.417969 42.914062 38.585938 41.953125 38.441406 C 40.730469 37.695312 39.558594 36.859375 38.4375 35.929688 C 39.570312 30.691406 40.65625 30.691406 41.703125 35.929688 C 42.050781 36.550781 42.300781 36.550781 42.457031 35.929688 Z M 42.457031 35.929688 "/>
<path style=" stroke:none;fill-rule:evenodd;fill:rgb(34.509804%,53.333333%,29.019608%);fill-opacity:1;" d="M 35.925781 34.421875 C 36.226562 36.230469 37.230469 37.402344 38.9375 37.941406 C 38.089844 38.429688 37.335938 39.097656 36.679688 39.949219 C 35.871094 41.953125 35.117188 43.964844 34.417969 45.980469 C 33.65625 46.972656 33.238281 48.144531 33.160156 49.496094 C 32.910156 53.847656 32.824219 58.203125 32.910156 62.5625 C 32.097656 61.21875 31.761719 59.714844 31.90625 58.039062 C 31.78125 50.058594 32.621094 42.1875 34.417969 34.421875 C 34.917969 34.421875 35.421875 34.421875 35.925781 34.421875 Z M 35.925781 34.421875 "/>
<path style=" stroke:none;fill-rule:evenodd;fill:rgb(100%,70.980392%,74.117647%);fill-opacity:1;" d="M 10.800781 37.941406 C 15.121094 37.671875 19.308594 38.257812 23.363281 39.699219 C 23.980469 40.089844 24.484375 40.59375 24.871094 41.207031 C 24.703125 41.457031 24.535156 41.707031 24.367188 41.960938 C 23.195312 41.375 22.023438 40.789062 20.851562 40.199219 C 17.167969 39.769531 13.484375 39.351562 9.796875 38.945312 C 10.171875 38.601562 10.503906 38.265625 10.800781 37.941406 Z M 10.800781 37.941406 "/>
<path style=" stroke:none;fill-rule:evenodd;fill:rgb(40.392157%,61.176471%,29.803922%);fill-opacity:1;" d="M 48.484375 35.929688 C 51.519531 38.460938 54.199219 41.308594 56.523438 44.472656 C 56.285156 45.179688 55.785156 45.515625 55.015625 45.476562 C 53.734375 44.953125 52.644531 44.117188 51.75 42.964844 C 50.300781 40.769531 49.214844 38.425781 48.484375 35.929688 Z M 48.484375 35.929688 "/>
<path style=" stroke:none;fill-rule:evenodd;fill:rgb(28.627451%,43.529412%,23.137255%);fill-opacity:1;" d="M 57.027344 30.402344 C 58.347656 34.667969 59.519531 39.023438 60.542969 43.46875 C 60.1875 43.921875 59.683594 44.089844 59.035156 43.96875 C 58.386719 43.472656 57.714844 42.96875 57.027344 42.460938 C 57.230469 38.46875 57.230469 34.449219 57.027344 30.402344 Z M 57.027344 30.402344 "/>
<path style=" stroke:none;fill-rule:evenodd;fill:rgb(49.019608%,69.411765%,36.078431%);fill-opacity:1;" d="M 83.152344 31.40625 C 83.070312 34.257812 83.152344 37.105469 83.40625 39.949219 C 84.261719 40.890625 85.183594 41.730469 86.167969 42.460938 C 86.085938 44.3125 86.167969 46.15625 86.417969 47.988281 C 86.8125 48.886719 87.398438 49.640625 88.179688 50.25 C 87.589844 50.835938 87.003906 51.421875 86.417969 52.011719 C 86.085938 54.1875 86.085938 56.367188 86.417969 58.542969 C 87.613281 59.28125 88.871094 59.78125 90.1875 60.050781 C 88.847656 60.050781 87.507812 60.050781 86.167969 60.050781 C 86.003906 62.546875 85.167969 64.722656 83.65625 66.582031 C 82.878906 66.949219 82.460938 67.621094 82.398438 68.59375 C 82.066406 68.257812 81.730469 67.921875 81.394531 67.589844 C 81.339844 65.59375 80.921875 63.753906 80.140625 62.058594 C 79.773438 60.828125 79.269531 59.65625 78.632812 58.542969 C 75.734375 56.574219 72.886719 54.480469 70.089844 52.261719 C 70.425781 52.09375 70.761719 51.925781 71.09375 51.757812 C 69.847656 50.609375 69.761719 49.355469 70.84375 47.988281 C 72.71875 46.359375 74.644531 44.851562 76.621094 43.46875 C 77.851562 42.679688 78.855469 41.671875 79.636719 40.453125 C 80.464844 37.203125 81.136719 33.851562 81.644531 30.402344 C 82.15625 30.75 82.660156 31.085938 83.152344 31.40625 Z M 83.152344 31.40625 "/>
<path style=" stroke:none;fill-rule:evenodd;fill:rgb(55.294118%,74.901961%,40.392157%);fill-opacity:1;" d="M 48.484375 35.929688 C 49.214844 38.425781 50.300781 40.769531 51.75 42.964844 C 52.644531 44.117188 53.734375 44.953125 55.015625 45.476562 C 53.84375 46.734375 52.757812 48.074219 51.75 49.496094 C 51.417969 52.34375 51.417969 55.191406 51.75 58.039062 C 52.433594 56.773438 53.355469 55.765625 54.515625 55.023438 C 55.519531 54.691406 56.523438 54.355469 57.527344 54.019531 C 56.554688 57.96875 56.304688 61.988281 56.777344 66.082031 C 57.125 67.339844 57.542969 68.511719 58.03125 69.597656 C 58.28125 70.757812 58.445312 71.929688 58.535156 73.117188 C 58.90625 74.363281 59.410156 75.535156 60.042969 76.632812 C 60.175781 78.460938 61.015625 79.882812 62.554688 80.90625 C 59.203125 81.238281 59.203125 81.574219 62.554688 81.910156 C 62.273438 82.101562 62.105469 82.351562 62.050781 82.664062 C 61.546875 82.664062 61.046875 82.664062 60.542969 82.664062 C 57.664062 82.808594 54.816406 82.640625 52.003906 82.160156 C 52.046875 80.710938 51.878906 79.203125 51.5 77.636719 C 50.621094 78.519531 49.617188 79.1875 48.484375 79.648438 C 47.199219 78.667969 45.691406 77.914062 43.964844 77.386719 C 44.191406 77.179688 44.359375 76.925781 44.464844 76.632812 C 43.621094 75.996094 43.035156 75.15625 42.707031 74.121094 C 42.539062 74.289062 42.371094 74.457031 42.203125 74.625 C 40.191406 72.257812 38.179688 69.914062 36.175781 67.589844 C 34.238281 60.480469 33.652344 53.277344 34.417969 45.980469 C 35.117188 43.964844 35.871094 41.953125 36.679688 39.949219 C 37.335938 39.097656 38.089844 38.429688 38.9375 37.941406 C 39.945312 38.105469 40.949219 38.273438 41.953125 38.441406 C 42.988281 39.101562 44.078125 39.101562 45.21875 38.441406 C 45.269531 36.835938 45.605469 35.328125 46.222656 33.917969 C 47.226562 34.335938 47.980469 35.003906 48.484375 35.929688 Z M 48.484375 35.929688 "/>
<path style=" stroke:none;fill-rule:evenodd;fill:rgb(96.078431%,79.607843%,36.862745%);fill-opacity:1;" d="M 71.09375 32.914062 C 71.023438 37.15625 73.03125 39.503906 77.125 39.949219 C 77.460938 39.949219 77.625 40.117188 77.625 40.453125 C 76.941406 41.472656 76.105469 42.308594 75.113281 42.964844 C 74.054688 43.367188 72.96875 43.703125 71.847656 43.96875 C 71.292969 43.925781 70.789062 43.757812 70.339844 43.46875 C 70.0625 39.734375 68.808594 36.382812 66.574219 33.417969 C 66.464844 32.828125 66.628906 32.324219 67.074219 31.910156 C 68.019531 31.972656 68.941406 31.972656 69.839844 31.910156 C 70.007812 31.574219 70.175781 31.238281 70.339844 30.90625 C 70.445312 31.6875 70.699219 32.359375 71.09375 32.914062 Z M 71.09375 32.914062 "/>
<path style=" stroke:none;fill-rule:evenodd;fill:rgb(19.215686%,3.137255%,3.137255%);fill-opacity:1;" d="M 30.898438 37.4375 C 30.078125 42.09375 29.574219 46.785156 29.394531 51.507812 C 28.574219 46.695312 29.078125 42.007812 30.898438 37.4375 Z M 30.898438 37.4375 "/>
<path style=" stroke:none;fill-rule:evenodd;fill:rgb(72.941176%,69.803922%,60.392157%);fill-opacity:1;" d="M 97.722656 42.460938 C 98.527344 42.328125 99.199219 42.496094 99.734375 42.964844 C 99.28125 43.320312 99.113281 43.824219 99.230469 44.472656 C 95.882812 44.472656 92.53125 44.472656 89.183594 44.472656 C 89.183594 44.304688 89.183594 44.136719 89.183594 43.96875 C 92.371094 44.054688 95.550781 43.96875 98.730469 43.71875 C 96.023438 43.585938 93.34375 43.335938 90.691406 42.964844 C 91.207031 42.589844 91.792969 42.253906 92.449219 41.960938 C 94.152344 42.441406 95.914062 42.609375 97.722656 42.460938 Z M 97.722656 42.460938 "/>
<path style=" stroke:none;fill-rule:evenodd;fill:rgb(50.196078%,14.901961%,19.607843%);fill-opacity:1;" d="M 14.320312 41.960938 C 15.292969 42.285156 16.296875 42.453125 17.335938 42.460938 C 17.886719 42.996094 18.558594 43.414062 19.34375 43.71875 C 14.597656 43.90625 9.90625 44.492188 5.277344 45.476562 C 8.292969 44.269531 11.472656 43.433594 14.820312 42.964844 C 14.640625 42.621094 14.472656 42.285156 14.320312 41.960938 Z M 14.320312 41.960938 "/>
<path style=" stroke:none;fill-rule:evenodd;fill:rgb(93.72549%,91.372549%,83.529412%);fill-opacity:1;" d="M 90.691406 42.964844 C 93.34375 43.335938 96.023438 43.585938 98.730469 43.71875 C 95.550781 43.96875 92.371094 44.054688 89.183594 43.96875 C 88.742188 44.035156 88.40625 43.867188 88.179688 43.46875 C 88.953125 42.988281 89.792969 42.820312 90.691406 42.964844 Z M 90.691406 42.964844 "/>
<path style=" stroke:none;fill-rule:evenodd;fill:rgb(30.980392%,7.058824%,10.588235%);fill-opacity:1;" d="M 64.0625 43.46875 C 63.03125 43.417969 62.191406 43.753906 61.546875 44.472656 C 60.949219 44.5625 60.363281 44.730469 59.789062 44.976562 C 59.273438 44.804688 59.023438 44.472656 59.035156 43.96875 C 59.683594 44.089844 60.1875 43.921875 60.542969 43.46875 C 61.800781 43.007812 62.976562 43.007812 64.0625 43.46875 Z M 64.0625 43.46875 "/>
<path style=" stroke:none;fill-rule:evenodd;fill:rgb(75.294118%,4.313725%,18.431373%);fill-opacity:1;" d="M 30.398438 11.808594 C 31.449219 12.082031 32.453125 12.5 33.414062 13.066406 C 33.007812 13.21875 32.671875 13.472656 32.40625 13.820312 C 33.839844 14.167969 35.097656 14.835938 36.175781 15.828125 C 36.097656 14.667969 36.097656 13.496094 36.175781 12.3125 C 36.316406 12.773438 36.566406 13.105469 36.929688 13.316406 C 37.707031 15.503906 38.207031 17.765625 38.4375 20.101562 C 38.277344 22.140625 37.355469 23.734375 35.671875 24.875 C 35.425781 25.523438 35.34375 26.195312 35.421875 26.882812 C 34.640625 28.613281 33.71875 30.289062 32.660156 31.910156 C 32.210938 33.835938 31.625 35.679688 30.898438 37.4375 C 29.078125 42.007812 28.574219 46.695312 29.394531 51.507812 C 29.371094 55.074219 29.792969 58.59375 30.648438 62.058594 C 32.957031 71.484375 38.566406 78.015625 47.480469 81.660156 C 47.15625 82.484375 46.652344 83.152344 45.972656 83.667969 C 43.898438 83.378906 41.890625 82.875 39.945312 82.160156 C 38.230469 82.183594 36.554688 81.929688 34.917969 81.40625 C 34.292969 78.949219 33.539062 76.519531 32.660156 74.121094 C 32.101562 73.347656 31.347656 73.011719 30.398438 73.117188 C 30.664062 70.710938 30.078125 68.53125 28.640625 66.582031 C 27.375 65.875 26.117188 65.203125 24.871094 64.574219 C 24.792969 63.027344 25.128906 61.601562 25.875 60.300781 C 25.429688 59.015625 24.757812 57.839844 23.867188 56.785156 C 25.058594 55.914062 25.898438 54.742188 26.378906 53.265625 C 24.804688 50.679688 24.46875 47.914062 25.375 44.976562 C 25.765625 42.335938 26.019531 39.65625 26.125 36.933594 C 26.363281 36.058594 26.699219 35.21875 27.132812 34.421875 C 29.828125 32.722656 30.582031 30.375 29.394531 27.386719 C 30.773438 25.9375 32.449219 24.847656 34.417969 24.121094 C 35.074219 23.714844 35.40625 23.128906 35.421875 22.363281 C 33.746094 18.835938 30.898438 17.078125 26.878906 17.085938 C 17.03125 16.449219 16.863281 17.453125 26.378906 20.101562 C 26.808594 20.445312 27.144531 20.867188 27.382812 21.355469 C 26.140625 22.007812 24.96875 22.007812 23.867188 21.355469 C 19.441406 20.574219 14.921875 19.988281 10.300781 19.597656 C 11.136719 19.429688 11.976562 19.261719 12.8125 19.09375 C 10.871094 18.808594 10.871094 18.390625 12.8125 17.839844 C 11.839844 17.480469 11.671875 16.976562 12.308594 16.332031 C 12.476562 16.332031 12.644531 16.332031 12.8125 16.332031 C 14.394531 16.210938 15.902344 15.792969 17.335938 15.074219 C 22.019531 14.824219 26.710938 14.742188 31.402344 14.824219 C 31.300781 13.726562 30.964844 12.722656 30.398438 11.808594 Z M 30.398438 11.808594 "/>
<path style=" stroke:none;fill-rule:evenodd;fill:rgb(27.058824%,28.627451%,16.470588%);fill-opacity:1;" d="M 73.605469 44.472656 C 73.550781 44.78125 73.382812 45.035156 73.105469 45.226562 C 71.269531 45.476562 69.429688 45.558594 67.578125 45.476562 C 67.578125 45.980469 67.578125 46.480469 67.578125 46.984375 C 67.40625 45.445312 66.570312 44.359375 65.066406 43.71875 C 66.949219 44.117188 68.875 44.535156 70.84375 44.976562 C 71.789062 44.875 72.707031 44.707031 73.605469 44.472656 Z M 73.605469 44.472656 "/>
<path style=" stroke:none;fill-rule:evenodd;fill:rgb(94.117647%,94.117647%,92.54902%);fill-opacity:1;" d="M 99.734375 42.964844 C 99.816406 44.648438 99.734375 46.324219 99.484375 47.988281 C 98.117188 48.464844 96.695312 48.632812 95.210938 48.492188 C 94.410156 48.917969 93.824219 49.589844 93.453125 50.503906 C 92.855469 49.96875 92.605469 49.296875 92.699219 48.492188 C 91.214844 48.160156 89.707031 47.992188 88.179688 47.988281 C 87.921875 46.539062 88.257812 45.367188 89.183594 44.472656 C 92.53125 44.472656 95.882812 44.472656 99.230469 44.472656 C 99.113281 43.824219 99.28125 43.320312 99.734375 42.964844 Z M 99.734375 42.964844 "/>
<path style=" stroke:none;fill-rule:evenodd;fill:rgb(63.137255%,7.843137%,16.862745%);fill-opacity:1;" d="M 17.335938 42.460938 C 19.730469 43.027344 22.074219 43.695312 24.367188 44.472656 C 19.6875 44.816406 15 45.070312 10.300781 45.226562 C 7.960938 45.433594 5.78125 46.019531 3.769531 46.984375 C 3.433594 46.984375 3.097656 46.984375 2.761719 46.984375 C 3.347656 46.105469 4.183594 45.601562 5.277344 45.476562 C 9.90625 44.492188 14.597656 43.90625 19.34375 43.71875 C 18.558594 43.414062 17.886719 42.996094 17.335938 42.460938 Z M 17.335938 42.460938 "/>
<path style=" stroke:none;fill-rule:evenodd;fill:rgb(98.431373%,33.333333%,46.27451%);fill-opacity:1;" d="M 24.367188 44.472656 C 24.703125 44.640625 25.039062 44.808594 25.375 44.976562 C 24.46875 47.914062 24.804688 50.679688 26.378906 53.265625 C 25.898438 54.742188 25.058594 55.914062 23.867188 56.785156 C 24.757812 57.839844 25.429688 59.015625 25.875 60.300781 C 25.128906 61.601562 24.792969 63.027344 24.871094 64.574219 C 24.402344 64.035156 24.234375 63.367188 24.367188 62.5625 C 22.320312 62.703125 20.3125 63.039062 18.339844 63.566406 C 13.652344 63.066406 9.96875 60.890625 7.285156 57.035156 C 12.039062 57.761719 16.730469 57.425781 21.355469 56.03125 C 19.453125 55.203125 17.445312 54.699219 15.324219 54.523438 C 14.714844 54.304688 14.214844 53.96875 13.816406 53.519531 C 15.773438 53.648438 17.699219 53.984375 19.59375 54.523438 C 20.503906 54.527344 21.257812 54.191406 21.855469 53.519531 C 22.464844 53.128906 22.464844 52.710938 21.855469 52.261719 C 15.886719 50.242188 9.855469 48.484375 3.769531 46.984375 C 5.78125 46.019531 7.960938 45.433594 10.300781 45.226562 C 15 45.070312 19.6875 44.816406 24.367188 44.472656 Z M 24.367188 44.472656 "/>
<path style=" stroke:none;fill-rule:evenodd;fill:rgb(2.745098%,3.529412%,1.960784%);fill-opacity:1;" d="M 80.140625 46.480469 C 81.453125 46.347656 82.710938 46.515625 83.90625 46.984375 C 84.242188 47.65625 84.242188 48.324219 83.90625 48.996094 C 83.160156 49.324219 82.574219 49.828125 82.148438 50.503906 C 84.210938 51.40625 84.546875 52.660156 83.152344 54.269531 C 79.648438 54.40625 76.546875 53.316406 73.859375 51.003906 C 73.636719 49.953125 74.054688 49.199219 75.113281 48.742188 C 76.820312 47.929688 78.492188 47.175781 80.140625 46.480469 Z M 80.140625 46.480469 "/>
<path style=" stroke:none;fill-rule:evenodd;fill:rgb(29.411765%,42.352941%,24.705882%);fill-opacity:1;" d="M 35.925781 34.421875 C 35.421875 34.421875 34.917969 34.421875 34.417969 34.421875 C 32.621094 42.1875 31.78125 50.058594 31.90625 58.039062 C 31.324219 52.433594 31.238281 46.738281 31.652344 40.953125 C 32.328125 37.425781 33.5 34.078125 35.171875 30.90625 C 35.390625 32.09375 35.644531 33.265625 35.925781 34.421875 Z M 35.925781 34.421875 "/>
<path style=" stroke:none;fill-rule:evenodd;fill:rgb(11.372549%,11.764706%,10.980392%);fill-opacity:1;" d="M 88.179688 30.402344 C 87.554688 31.140625 87.050781 31.980469 86.671875 32.914062 C 87.285156 33.472656 87.953125 33.558594 88.679688 33.164062 C 89.621094 32.445312 90.625 31.859375 91.695312 31.40625 C 93.554688 31.777344 94.054688 32.78125 93.203125 34.421875 C 94.601562 34.914062 96.109375 35.082031 97.722656 34.925781 C 94.464844 35.339844 91.117188 35.59375 87.675781 35.679688 C 87.121094 36.886719 87.039062 38.140625 87.425781 39.445312 C 88.953125 40.003906 90.542969 40.339844 92.199219 40.453125 C 94.53125 40.085938 96.875 39.917969 99.230469 39.949219 C 99.230469 40.117188 99.230469 40.285156 99.230469 40.453125 C 97.613281 40.253906 96.105469 40.507812 94.710938 41.207031 C 95.707031 41.296875 96.714844 41.214844 97.722656 40.953125 C 97.722656 41.457031 97.722656 41.960938 97.722656 42.460938 C 95.914062 42.609375 94.152344 42.441406 92.449219 41.960938 C 91.792969 42.253906 91.207031 42.589844 90.691406 42.964844 C 89.792969 42.820312 88.953125 42.988281 88.179688 43.46875 C 88.40625 43.867188 88.742188 44.035156 89.183594 43.96875 C 89.183594 44.136719 89.183594 44.304688 89.183594 44.472656 C 88.257812 45.367188 87.921875 46.539062 88.179688 47.988281 C 89.707031 47.992188 91.214844 48.160156 92.699219 48.492188 C 92.605469 49.296875 92.855469 49.96875 93.453125 50.503906 C 93.824219 49.589844 94.410156 48.917969 95.210938 48.492188 C 95.296875 49.492188 94.964844 50.332031 94.207031 51.003906 C 94.582031 51.625 94.75 52.296875 94.710938 53.015625 C 92.414062 52.75 90.070312 52.75 87.675781 53.015625 C 87.675781 53.683594 87.675781 54.355469 87.675781 55.023438 C 87.675781 56.199219 87.675781 57.371094 87.675781 58.542969 C 89.457031 58.386719 91.128906 58.554688 92.699219 59.046875 C 92.644531 59.355469 92.476562 59.605469 92.199219 59.800781 C 92.964844 60.304688 93.800781 60.558594 94.710938 60.554688 C 94.710938 60.886719 94.710938 61.222656 94.710938 61.558594 C 92.53125 61.558594 90.355469 61.558594 88.179688 61.558594 C 87.546875 61.578125 87.042969 61.324219 86.671875 60.804688 C 87.945312 60.710938 89.117188 60.460938 90.1875 60.050781 C 88.871094 59.78125 87.613281 59.28125 86.417969 58.542969 C 86.085938 56.367188 86.085938 54.1875 86.417969 52.011719 C 87.003906 51.421875 87.589844 50.835938 88.179688 50.25 C 87.398438 49.640625 86.8125 48.886719 86.417969 47.988281 C 86.167969 46.15625 86.085938 44.3125 86.167969 42.460938 C 86.800781 42.480469 87.300781 42.230469 87.675781 41.707031 C 85.851562 40.175781 85.265625 38.25 85.917969 35.929688 C 86.695312 35.425781 86.777344 34.921875 86.167969 34.421875 C 85.941406 33.941406 85.605469 33.523438 85.164062 33.164062 C 85.722656 32.058594 86.226562 31.136719 86.671875 30.402344 C 87.171875 30.402344 87.675781 30.402344 88.179688 30.402344 Z M 88.179688 30.402344 "/>
<path style=" stroke:none;fill-rule:evenodd;fill:rgb(22.745098%,13.72549%,9.803922%);fill-opacity:1;" d="M 56.523438 44.472656 C 56.691406 44.472656 56.859375 44.472656 57.027344 44.472656 C 57.371094 45.316406 58.039062 45.648438 59.035156 45.476562 C 58.925781 46.875 59.09375 48.214844 59.539062 49.496094 C 59.640625 50.59375 59.976562 51.601562 60.542969 52.511719 C 59.164062 52.015625 58.15625 52.519531 57.527344 54.019531 C 56.523438 54.355469 55.519531 54.691406 54.515625 55.023438 C 53.355469 55.765625 52.433594 56.773438 51.75 58.039062 C 51.417969 55.191406 51.417969 52.34375 51.75 49.496094 C 52.757812 48.074219 53.84375 46.734375 55.015625 45.476562 C 55.785156 45.515625 56.285156 45.179688 56.523438 44.472656 Z M 56.523438 44.472656 "/>
<path style=" stroke:none;fill-rule:evenodd;fill:rgb(60.784314%,5.882353%,14.509804%);fill-opacity:1;" d="M 64.0625 43.46875 C 65.078125 44.238281 65.828125 45.242188 66.320312 46.480469 C 66.574219 48.316406 66.65625 50.160156 66.574219 52.011719 C 65.804688 53.714844 64.464844 54.386719 62.554688 54.019531 C 62.21875 54.019531 62.050781 53.851562 62.050781 53.519531 C 62.722656 53.519531 63.390625 53.519531 64.0625 53.519531 C 64.542969 53.289062 64.960938 52.957031 65.316406 52.511719 C 65.652344 51.003906 65.652344 49.496094 65.316406 47.988281 C 65.148438 48.15625 64.980469 48.324219 64.816406 48.492188 C 64.640625 47.628906 64.390625 46.792969 64.0625 45.980469 C 63.484375 45.359375 62.898438 45.359375 62.300781 45.980469 C 61.78125 45.605469 61.527344 45.105469 61.546875 44.472656 C 62.191406 43.753906 63.03125 43.417969 64.0625 43.46875 Z M 64.0625 43.46875 "/>
<use xlink:href="#surface20" mask="url(#mask5)"/>
<path style=" stroke:none;fill-rule:evenodd;fill:rgb(96.470588%,48.235294%,49.803922%);fill-opacity:1;" d="M 54.515625 55.023438 C 53.703125 55.296875 52.863281 55.460938 52.003906 55.527344 C 51.246094 51.9375 52.25 49.007812 55.015625 46.734375 C 56.007812 46.484375 57.011719 46.402344 58.03125 46.480469 C 58.472656 48.140625 58.554688 49.816406 58.28125 51.507812 C 57.105469 52.769531 55.847656 53.941406 54.515625 55.023438 Z M 54.515625 55.023438 "/>
<path style=" stroke:none;fill-rule:evenodd;fill:rgb(95.686275%,48.235294%,55.294118%);fill-opacity:1;" d="M 64.0625 53.519531 C 63.390625 53.519531 62.722656 53.519531 62.050781 53.519531 C 61.285156 53.554688 60.78125 53.21875 60.542969 52.511719 C 59.976562 51.601562 59.640625 50.59375 59.539062 49.496094 C 62.78125 47.769531 63.953125 48.691406 63.054688 52.261719 C 63.5 52.617188 63.832031 53.035156 64.0625 53.519531 Z M 64.0625 53.519531 "/>
<path style=" stroke:none;fill-rule:evenodd;fill:rgb(91.372549%,31.764706%,38.039216%);fill-opacity:1;" d="M 59.035156 43.96875 C 59.023438 44.472656 59.273438 44.804688 59.789062 44.976562 C 60.363281 44.730469 60.949219 44.5625 61.546875 44.472656 C 61.527344 45.105469 61.78125 45.605469 62.300781 45.980469 C 62.898438 45.359375 63.484375 45.359375 64.0625 45.980469 C 64.390625 46.792969 64.640625 47.628906 64.816406 48.492188 C 64.980469 48.324219 65.148438 48.15625 65.316406 47.988281 C 65.652344 49.496094 65.652344 51.003906 65.316406 52.511719 C 64.960938 52.957031 64.542969 53.289062 64.0625 53.519531 C 63.832031 53.035156 63.5 52.617188 63.054688 52.261719 C 63.953125 48.691406 62.78125 47.769531 59.539062 49.496094 C 59.09375 48.214844 58.925781 46.875 59.035156 45.476562 C 58.039062 45.648438 57.371094 45.316406 57.027344 44.472656 C 57.632812 44.101562 58.304688 43.9375 59.035156 43.96875 Z M 59.035156 43.96875 "/>
<path style=" stroke:none;fill-rule:evenodd;fill:rgb(30.980392%,46.27451%,26.27451%);fill-opacity:1;" d="M 75.617188 43.46875 C 75.953125 43.46875 76.285156 43.46875 76.621094 43.46875 C 74.644531 44.851562 72.71875 46.359375 70.84375 47.988281 C 69.761719 49.355469 69.847656 50.609375 71.09375 51.757812 C 70.761719 51.925781 70.425781 52.09375 70.089844 52.261719 C 72.886719 54.480469 75.734375 56.574219 78.632812 58.542969 C 78.402344 59.425781 78.402344 60.433594 78.632812 61.558594 C 78.242188 60.957031 77.742188 60.457031 77.125 60.050781 C 77.125 59.714844 77.125 59.378906 77.125 59.046875 C 75.085938 56.527344 72.40625 55.355469 69.085938 55.527344 C 68.273438 54.78125 67.269531 54.277344 66.070312 54.019531 C 66.445312 53.398438 66.613281 52.730469 66.574219 52.011719 C 67.332031 50.480469 67.667969 48.804688 67.578125 46.984375 C 67.578125 46.480469 67.578125 45.980469 67.578125 45.476562 C 69.429688 45.558594 71.269531 45.476562 73.105469 45.226562 C 73.382812 45.035156 73.550781 44.78125 73.605469 44.472656 C 74.277344 44.136719 74.949219 43.800781 75.617188 43.46875 Z M 75.617188 43.46875 "/>
<use xlink:href="#surface23" mask="url(#mask6)"/>
<path style=" stroke:none;fill-rule:evenodd;fill:rgb(74.117647%,78.431373%,78.039216%);fill-opacity:1;" d="M 94.710938 53.015625 C 96.253906 52.855469 97.761719 53.023438 99.230469 53.519531 C 99.546875 53.976562 99.714844 54.480469 99.734375 55.023438 C 95.714844 55.023438 91.695312 55.023438 87.675781 55.023438 C 87.675781 54.355469 87.675781 53.683594 87.675781 53.015625 C 90.070312 52.75 92.414062 52.75 94.710938 53.015625 Z M 94.710938 53.015625 "/>
<path style=" stroke:none;fill-rule:evenodd;fill:rgb(70.980392%,10.980392%,22.352941%);fill-opacity:1;" d="M 15.324219 54.523438 C 17.445312 54.699219 19.453125 55.203125 21.355469 56.03125 C 16.730469 57.425781 12.039062 57.761719 7.285156 57.035156 C 6.28125 56.53125 5.277344 56.03125 4.269531 55.527344 C 3.574219 55.125 3.660156 54.789062 4.523438 54.523438 C 8.269531 55.765625 11.871094 55.765625 15.324219 54.523438 Z M 15.324219 54.523438 "/>
<path style=" stroke:none;fill-rule:evenodd;fill:rgb(96.078431%,96.470588%,96.078431%);fill-opacity:1;" d="M 87.675781 55.023438 C 91.695312 55.023438 95.714844 55.023438 99.734375 55.023438 C 99.734375 56.199219 99.734375 57.371094 99.734375 58.542969 C 97.367188 58.46875 95.019531 58.636719 92.699219 59.046875 C 91.128906 58.554688 89.457031 58.386719 87.675781 58.542969 C 87.675781 57.371094 87.675781 56.199219 87.675781 55.023438 Z M 87.675781 55.023438 "/>
<path style=" stroke:none;fill-rule:evenodd;fill:rgb(3.137255%,2.745098%,1.960784%);fill-opacity:1;" d="M 69.085938 55.527344 C 72.40625 55.355469 75.085938 56.527344 77.125 59.046875 C 75.007812 57.585938 72.664062 57 70.089844 57.285156 C 68.644531 59.941406 67.390625 62.703125 66.320312 65.578125 C 65.792969 66.640625 65.042969 67.480469 64.0625 68.089844 C 61.050781 69.082031 60.382812 70.925781 62.050781 73.617188 C 65.464844 74.277344 68.816406 74.277344 72.101562 73.617188 C 72.84375 73.75 73.511719 73.582031 74.109375 73.117188 C 71.292969 69.144531 71.457031 65.375 74.613281 61.808594 C 75.378906 61.300781 76.214844 61.050781 77.125 61.054688 C 78.0625 64.128906 78.398438 67.3125 78.128906 70.601562 C 77.707031 70.773438 77.539062 71.109375 77.625 71.609375 C 76.371094 72.78125 75.03125 73.867188 73.605469 74.875 C 72.277344 75.125 70.9375 75.207031 69.585938 75.125 C 67.96875 74.929688 66.460938 75.179688 65.066406 75.878906 C 67.003906 75.96875 68.84375 76.21875 70.59375 76.632812 C 67.90625 76.714844 65.226562 76.632812 62.554688 76.382812 C 61.132812 75.375 59.792969 74.289062 58.535156 73.117188 C 58.445312 71.929688 58.28125 70.757812 58.03125 69.597656 C 58.03125 67.753906 58.03125 65.914062 58.03125 64.070312 C 58.699219 63.339844 59.117188 63.507812 59.289062 64.574219 C 60.074219 58.84375 63.339844 55.828125 69.085938 55.527344 Z M 69.085938 55.527344 "/>
<path style=" stroke:none;fill-rule:evenodd;fill:rgb(56.470588%,58.823529%,58.039216%);fill-opacity:1;" d="M 99.734375 58.542969 C 98.164062 59.035156 96.488281 59.203125 94.710938 59.046875 C 94.710938 59.546875 94.710938 60.050781 94.710938 60.554688 C 93.800781 60.558594 92.964844 60.304688 92.199219 59.800781 C 92.476562 59.605469 92.644531 59.355469 92.699219 59.046875 C 95.019531 58.636719 97.367188 58.46875 99.734375 58.542969 Z M 99.734375 58.542969 "/>
<path style=" stroke:none;fill-rule:evenodd;fill:rgb(13.72549%,21.176471%,14.117647%);fill-opacity:1;" d="M 66.574219 52.011719 C 66.613281 52.730469 66.445312 53.398438 66.070312 54.019531 C 67.269531 54.277344 68.273438 54.78125 69.085938 55.527344 C 63.339844 55.828125 60.074219 58.84375 59.289062 64.574219 C 59.117188 63.507812 58.699219 63.339844 58.03125 64.070312 C 58.445312 60.722656 59.867188 57.875 62.300781 55.527344 C 62.546875 55.050781 62.628906 54.546875 62.554688 54.019531 C 64.464844 54.386719 65.804688 53.714844 66.574219 52.011719 Z M 66.574219 52.011719 "/>
<path style=" stroke:none;fill-rule:evenodd;fill:rgb(42.745098%,62.745098%,31.372549%);fill-opacity:1;" d="M 60.542969 52.511719 C 60.78125 53.21875 61.285156 53.554688 62.050781 53.519531 C 62.050781 53.851562 62.21875 54.019531 62.554688 54.019531 C 62.628906 54.546875 62.546875 55.050781 62.300781 55.527344 C 59.867188 57.875 58.445312 60.722656 58.03125 64.070312 C 58.03125 65.914062 58.03125 67.753906 58.03125 69.597656 C 57.542969 68.511719 57.125 67.339844 56.777344 66.082031 C 56.304688 61.988281 56.554688 57.96875 57.527344 54.019531 C 58.15625 52.519531 59.164062 52.015625 60.542969 52.511719 Z M 60.542969 52.511719 "/>
<path style=" stroke:none;fill-rule:evenodd;fill:rgb(43.137255%,61.960784%,32.156863%);fill-opacity:1;" d="M 34.417969 45.980469 C 33.652344 53.277344 34.238281 60.480469 36.175781 67.589844 C 38.179688 69.914062 40.191406 72.257812 42.203125 74.625 C 42.371094 74.457031 42.539062 74.289062 42.707031 74.121094 C 43.035156 75.15625 43.621094 75.996094 44.464844 76.632812 C 44.359375 76.925781 44.191406 77.179688 43.964844 77.386719 C 45.691406 77.914062 47.199219 78.667969 48.484375 79.648438 C 47.234375 79.75 46.0625 79.5 44.96875 78.894531 C 38.917969 74.9375 34.898438 69.496094 32.910156 62.5625 C 32.824219 58.203125 32.910156 53.847656 33.160156 49.496094 C 33.238281 48.144531 33.65625 46.972656 34.417969 45.980469 Z M 34.417969 45.980469 "/>
<path style=" stroke:none;fill-rule:evenodd;fill:rgb(54.509804%,57.647059%,54.901961%);fill-opacity:1;" d="M 88.179688 62.058594 C 88.179688 61.894531 88.179688 61.726562 88.179688 61.558594 C 90.355469 61.558594 92.53125 61.558594 94.710938 61.558594 C 96.324219 61.402344 97.832031 61.570312 99.230469 62.058594 C 95.816406 61.875 92.464844 62.207031 89.183594 63.066406 C 89.394531 62.703125 89.726562 62.453125 90.1875 62.3125 C 89.539062 62.066406 88.867188 61.980469 88.179688 62.058594 Z M 88.179688 62.058594 "/>
<path style=" stroke:none;fill-rule:evenodd;fill:rgb(98.823529%,56.470588%,63.921569%);fill-opacity:1;" d="M 4.269531 55.527344 C 5.277344 56.03125 6.28125 56.53125 7.285156 57.035156 C 9.96875 60.890625 13.652344 63.066406 18.339844 63.566406 C 17.550781 64.746094 17.71875 65.75 18.839844 66.582031 C 17.769531 66.917969 16.765625 67.253906 15.828125 67.589844 C 13.535156 66.816406 11.609375 65.476562 10.046875 63.566406 C 7.988281 60.945312 6.0625 58.265625 4.269531 55.527344 Z M 4.269531 55.527344 "/>
<path style=" stroke:none;fill-rule:evenodd;fill:rgb(98.431373%,85.882353%,36.078431%);fill-opacity:1;" d="M 77.125 59.046875 C 77.125 59.378906 77.125 59.714844 77.125 60.050781 C 77.125 60.386719 77.125 60.71875 77.125 61.054688 C 76.214844 61.050781 75.378906 61.300781 74.613281 61.808594 C 71.457031 65.375 71.292969 69.144531 74.109375 73.117188 C 73.511719 73.582031 72.84375 73.75 72.101562 73.617188 C 68.09375 73.8125 65.414062 71.96875 64.0625 68.089844 C 65.042969 67.480469 65.792969 66.640625 66.320312 65.578125 C 67.390625 62.703125 68.644531 59.941406 70.089844 57.285156 C 72.664062 57 75.007812 57.585938 77.125 59.046875 Z M 77.125 59.046875 "/>
<path style=" stroke:none;fill-rule:evenodd;fill:rgb(61.960784%,59.215686%,53.72549%);fill-opacity:1;" d="M 77.125 60.050781 C 77.742188 60.457031 78.242188 60.957031 78.632812 61.558594 C 79.136719 64.21875 79.222656 66.898438 78.882812 69.597656 C 78.742188 70.058594 78.492188 70.394531 78.128906 70.601562 C 78.398438 67.3125 78.0625 64.128906 77.125 61.054688 C 77.125 60.71875 77.125 60.386719 77.125 60.050781 Z M 77.125 60.050781 "/>
<path style=" stroke:none;fill-rule:evenodd;fill:rgb(18.039216%,27.058824%,14.117647%);fill-opacity:1;" d="M 90.1875 60.050781 C 89.117188 60.460938 87.945312 60.710938 86.671875 60.804688 C 87.042969 61.324219 87.546875 61.578125 88.179688 61.558594 C 88.179688 61.726562 88.179688 61.894531 88.179688 62.058594 C 87.515625 61.976562 86.925781 62.140625 86.417969 62.5625 C 85.691406 64.683594 85.273438 66.863281 85.164062 69.09375 C 84.660156 68.761719 84.160156 68.425781 83.65625 68.089844 C 83.65625 67.589844 83.65625 67.085938 83.65625 66.582031 C 85.167969 64.722656 86.003906 62.546875 86.167969 60.050781 C 87.507812 60.050781 88.847656 60.050781 90.1875 60.050781 Z M 90.1875 60.050781 "/>
<use xlink:href="#surface26" mask="url(#mask7)"/>
<path style=" stroke:none;fill-rule:evenodd;fill:rgb(51.372549%,69.411765%,39.607843%);fill-opacity:1;" d="M 80.140625 62.058594 C 80.921875 63.753906 81.339844 65.59375 81.394531 67.589844 C 81.730469 67.921875 82.066406 68.257812 82.398438 68.59375 C 82.460938 67.621094 82.878906 66.949219 83.65625 66.582031 C 83.65625 67.085938 83.65625 67.589844 83.65625 68.089844 C 84.230469 73.34375 82.722656 77.867188 79.132812 81.660156 C 73.386719 81.410156 67.695312 81.746094 62.050781 82.664062 C 62.105469 82.351562 62.273438 82.101562 62.554688 81.910156 C 59.203125 81.574219 59.203125 81.238281 62.554688 80.90625 C 61.015625 79.882812 60.175781 78.460938 60.042969 76.632812 C 61.640625 77.867188 63.480469 78.371094 65.566406 78.140625 C 68.042969 77.929688 70.386719 77.429688 72.601562 76.632812 C 75.53125 76.386719 77.792969 75.042969 79.386719 72.613281 C 80.03125 69.128906 80.285156 65.609375 80.140625 62.058594 Z M 80.140625 62.058594 "/>
<path style=" stroke:none;fill-rule:evenodd;fill:rgb(30.980392%,3.921569%,7.45098%);fill-opacity:1;" d="M 14.320312 71.609375 C 12.242188 72.101562 10.066406 72.269531 7.789062 72.109375 C 7.140625 71.992188 6.636719 72.160156 6.28125 72.613281 C 5.882812 72.472656 5.550781 72.21875 5.277344 71.859375 C 8.285156 71.609375 11.300781 71.523438 14.320312 71.609375 Z M 14.320312 71.609375 "/>
<path style=" stroke:none;fill-rule:evenodd;fill:rgb(81.176471%,60.392157%,15.294118%);fill-opacity:1;" d="M 64.0625 68.089844 C 65.414062 71.96875 68.09375 73.8125 72.101562 73.617188 C 68.816406 74.277344 65.464844 74.277344 62.050781 73.617188 C 60.382812 70.925781 61.050781 69.082031 64.0625 68.089844 Z M 64.0625 68.089844 "/>
<path style=" stroke:none;fill-rule:evenodd;fill:rgb(84.313725%,20%,33.72549%);fill-opacity:1;" d="M 22.359375 71.609375 C 17.535156 74.066406 12.679688 74.234375 7.789062 72.109375 C 10.066406 72.269531 12.242188 72.101562 14.320312 71.609375 C 16.089844 71.417969 17.765625 70.914062 19.34375 70.101562 C 18.480469 69.167969 17.476562 68.5 16.328125 68.089844 C 19.691406 67.238281 22.875 67.738281 25.875 69.597656 C 24.59375 70.152344 23.421875 70.824219 22.359375 71.609375 Z M 22.359375 71.609375 "/>
<path style=" stroke:none;fill-rule:evenodd;fill:rgb(98.823529%,50.588235%,61.960784%);fill-opacity:1;" d="M 22.359375 71.609375 C 24.660156 72.148438 24.828125 73.070312 22.859375 74.371094 C 19.078125 75.40625 15.226562 75.828125 11.304688 75.628906 C 9.476562 74.882812 7.800781 73.875 6.28125 72.613281 C 6.636719 72.160156 7.140625 71.992188 7.789062 72.109375 C 12.679688 74.234375 17.535156 74.066406 22.359375 71.609375 Z M 22.359375 71.609375 "/>
<path style=" stroke:none;fill-rule:evenodd;fill:rgb(81.960784%,76.862745%,64.705882%);fill-opacity:1;" d="M 77.625 71.609375 C 76.140625 75.476562 73.460938 76.648438 69.585938 75.125 C 70.9375 75.207031 72.277344 75.125 73.605469 74.875 C 75.03125 73.867188 76.371094 72.78125 77.625 71.609375 Z M 77.625 71.609375 "/>
<path style=" stroke:none;fill-rule:evenodd;fill:rgb(14.901961%,17.254902%,12.941176%);fill-opacity:1;" d="M 78.632812 58.542969 C 79.269531 59.65625 79.773438 60.828125 80.140625 62.058594 C 80.285156 65.609375 80.03125 69.128906 79.386719 72.613281 C 77.792969 75.042969 75.53125 76.386719 72.601562 76.632812 C 71.933594 76.632812 71.261719 76.632812 70.59375 76.632812 C 68.84375 76.21875 67.003906 75.96875 65.066406 75.878906 C 66.460938 75.179688 67.96875 74.929688 69.585938 75.125 C 73.460938 76.648438 76.140625 75.476562 77.625 71.609375 C 77.539062 71.109375 77.707031 70.773438 78.128906 70.601562 C 78.492188 70.394531 78.742188 70.058594 78.882812 69.597656 C 79.222656 66.898438 79.136719 64.21875 78.632812 61.558594 C 78.402344 60.433594 78.402344 59.425781 78.632812 58.542969 Z M 78.632812 58.542969 "/>
<path style=" stroke:none;fill-rule:evenodd;fill:rgb(35.686275%,58.823529%,32.941176%);fill-opacity:1;" d="M 83.65625 68.089844 C 84.160156 68.425781 84.660156 68.761719 85.164062 69.09375 C 86.855469 70.515625 87.105469 72.191406 85.917969 74.121094 C 85.039062 76.042969 84.035156 77.886719 82.902344 79.648438 C 81.820312 80.652344 80.5625 81.320312 79.132812 81.660156 C 82.722656 77.867188 84.230469 73.34375 83.65625 68.089844 Z M 83.65625 68.089844 "/>
<path style=" stroke:none;fill-rule:evenodd;fill:rgb(27.843137%,34.901961%,16.470588%);fill-opacity:1;" d="M 58.535156 73.117188 C 59.792969 74.289062 61.132812 75.375 62.554688 76.382812 C 65.226562 76.632812 67.90625 76.714844 70.59375 76.632812 C 71.261719 76.632812 71.933594 76.632812 72.601562 76.632812 C 70.386719 77.429688 68.042969 77.929688 65.566406 78.140625 C 63.480469 78.371094 61.640625 77.867188 60.042969 76.632812 C 59.410156 75.535156 58.90625 74.363281 58.535156 73.117188 Z M 58.535156 73.117188 "/>
<use xlink:href="#surface29" mask="url(#mask8)"/>
<use xlink:href="#surface32" mask="url(#mask9)"/>
<path style=" stroke:none;fill-rule:evenodd;fill:rgb(81.960784%,14.509804%,27.058824%);fill-opacity:1;" d="M 50.496094 81.15625 C 50.015625 81.867188 49.851562 82.707031 49.992188 83.667969 C 53.816406 84.324219 57.667969 84.828125 61.546875 85.175781 C 61.328125 85.796875 60.992188 86.300781 60.542969 86.683594 C 59.078125 86.503906 57.902344 87.007812 57.027344 88.191406 C 56.859375 88.105469 56.691406 88.023438 56.523438 87.941406 C 57.585938 87.351562 57.921875 86.597656 57.527344 85.679688 C 56.136719 87.285156 54.628906 88.789062 53.007812 90.199219 C 52.839844 89.78125 52.671875 89.363281 52.503906 88.945312 C 52.917969 87.703125 53.253906 86.445312 53.507812 85.175781 C 52.445312 85.089844 51.4375 85.253906 50.496094 85.679688 C 49.679688 85.535156 49.179688 85.03125 48.988281 84.171875 C 48.035156 83.683594 47.03125 83.519531 45.972656 83.667969 C 46.652344 83.152344 47.15625 82.484375 47.480469 81.660156 C 48.160156 81.0625 48.914062 80.558594 49.742188 80.152344 C 50.257812 80.320312 50.511719 80.65625 50.496094 81.15625 Z M 50.496094 81.15625 "/>
<path style=" stroke:none;fill-rule:evenodd;fill:rgb(96.862745%,37.254902%,50.588235%);fill-opacity:1;" d="M 24.871094 64.574219 C 26.117188 65.203125 27.375 65.875 28.640625 66.582031 C 30.078125 68.53125 30.664062 70.710938 30.398438 73.117188 C 31.347656 73.011719 32.101562 73.347656 32.660156 74.121094 C 33.539062 76.519531 34.292969 78.949219 34.917969 81.40625 C 36.554688 81.929688 38.230469 82.183594 39.945312 82.160156 C 40.152344 84.332031 39.816406 86.339844 38.9375 88.191406 C 37.808594 88.546875 36.636719 88.800781 35.421875 88.945312 C 34.480469 90.003906 33.308594 90.671875 31.90625 90.953125 C 29.535156 91.351562 27.1875 91.851562 24.871094 92.460938 C 31.90625 94.335938 38.769531 93.917969 45.472656 91.207031 C 45.804688 90.703125 46.140625 90.199219 46.476562 89.699219 C 46.246094 89.296875 45.910156 89.128906 45.472656 89.195312 C 46.707031 88.496094 48.046875 87.910156 49.492188 87.4375 C 50.15625 87.027344 50.488281 86.441406 50.496094 85.679688 C 51.4375 85.253906 52.445312 85.089844 53.507812 85.175781 C 53.253906 86.445312 52.917969 87.703125 52.503906 88.945312 C 52.671875 89.363281 52.839844 89.78125 53.007812 90.199219 C 54.628906 88.789062 56.136719 87.285156 57.527344 85.679688 C 57.921875 86.597656 57.585938 87.351562 56.523438 87.941406 C 56.691406 88.023438 56.859375 88.105469 57.027344 88.191406 C 57.902344 87.007812 59.078125 86.503906 60.542969 86.683594 C 60.542969 86.851562 60.542969 87.019531 60.542969 87.1875 C 56.25 92.515625 50.722656 95.78125 43.964844 96.984375 C 49.75 92.074219 49.246094 91.070312 42.457031 93.96875 C 36.589844 94.925781 30.726562 94.925781 24.871094 93.96875 C 23.21875 93.589844 21.714844 92.917969 20.347656 91.960938 C 23.890625 90.917969 27.410156 89.828125 30.898438 88.695312 C 31.808594 88.324219 32.644531 87.820312 33.414062 87.1875 C 33.160156 87.019531 32.910156 86.851562 32.660156 86.683594 C 31.480469 86.929688 30.390625 87.265625 29.394531 87.6875 C 20.460938 88.851562 12.253906 87.007812 4.773438 82.160156 C 6.949219 81.824219 9.128906 81.492188 11.304688 81.15625 C 14.402344 81.085938 17.414062 80.582031 20.347656 79.648438 C 21.839844 79.402344 23.179688 78.816406 24.367188 77.890625 C 22.207031 77.929688 20.027344 78.011719 17.835938 78.140625 C 15.359375 77.988281 13.183594 77.148438 11.304688 75.628906 C 15.226562 75.828125 19.078125 75.40625 22.859375 74.371094 C 24.828125 73.070312 24.660156 72.148438 22.359375 71.609375 C 23.421875 70.824219 24.59375 70.152344 25.875 69.597656 C 22.875 67.738281 19.691406 67.238281 16.328125 68.089844 C 15.996094 68.089844 15.828125 67.921875 15.828125 67.589844 C 16.765625 67.253906 17.769531 66.917969 18.839844 66.582031 C 17.71875 65.75 17.550781 64.746094 18.339844 63.566406 C 20.3125 63.039062 22.320312 62.703125 24.367188 62.5625 C 24.234375 63.367188 24.402344 64.035156 24.871094 64.574219 Z M 24.871094 64.574219 "/>
<path style=" stroke:none;fill-rule:evenodd;fill:rgb(100%,56.862745%,66.666667%);fill-opacity:1;" d="M 23.867188 83.667969 C 25.273438 84.238281 26.78125 84.324219 28.386719 83.917969 C 29.203125 83.800781 29.703125 83.382812 29.894531 82.664062 C 30.613281 83.984375 30.277344 85.074219 28.890625 85.929688 C 24.355469 86.234375 19.832031 86.066406 15.324219 85.425781 C 13.757812 84.851562 12.25 84.179688 10.800781 83.417969 C 14.074219 82.5625 17.421875 81.894531 20.851562 81.40625 C 23.214844 80.394531 25.390625 79.140625 27.382812 77.636719 C 28.101562 77.753906 28.351562 78.089844 28.136719 78.644531 C 24.738281 81.507812 20.804688 83.097656 16.328125 83.417969 C 18.835938 83.667969 21.347656 83.75 23.867188 83.667969 Z M 23.867188 83.667969 "/>
<path style=" stroke:none;fill-rule:evenodd;fill:rgb(99.215686%,77.647059%,82.352941%);fill-opacity:1;" d="M 29.894531 82.664062 C 29.703125 83.382812 29.203125 83.800781 28.386719 83.917969 C 26.78125 84.324219 25.273438 84.238281 23.867188 83.667969 C 25.753906 82.785156 27.761719 82.453125 29.894531 82.664062 Z M 29.894531 82.664062 "/>
<path style=" stroke:none;fill-rule:evenodd;fill:rgb(94.117647%,23.529412%,40.392157%);fill-opacity:1;" d="M 39.945312 82.160156 C 41.890625 82.875 43.898438 83.378906 45.972656 83.667969 C 47.03125 83.519531 48.035156 83.683594 48.988281 84.171875 C 49.179688 85.03125 49.679688 85.535156 50.496094 85.679688 C 50.488281 86.441406 50.15625 87.027344 49.492188 87.4375 C 48.046875 87.910156 46.707031 88.496094 45.472656 89.195312 C 43.375 89.980469 41.195312 90.316406 38.9375 90.199219 C 38.9375 89.53125 38.9375 88.859375 38.9375 88.191406 C 39.816406 86.339844 40.152344 84.332031 39.945312 82.160156 Z M 39.945312 82.160156 "/>
<use xlink:href="#surface35" mask="url(#mask10)"/>
<use xlink:href="#surface38" mask="url(#mask11)"/>
<use xlink:href="#surface41" mask="url(#mask12)"/>
<path style=" stroke:none;fill-rule:evenodd;fill:rgb(52.54902%,69.803922%,39.607843%);fill-opacity:1;" d="M 77.625 84.671875 C 76.792969 88.941406 74.195312 91.117188 69.839844 91.207031 C 66.042969 91.335938 63.695312 89.660156 62.804688 86.179688 C 62.996094 85.902344 63.25 85.734375 63.558594 85.679688 C 66.160156 85.722656 68.671875 86.222656 71.09375 87.1875 C 73.492188 87.035156 75.417969 86.03125 76.875 84.171875 C 77.257812 84.207031 77.507812 84.375 77.625 84.671875 Z M 77.625 84.671875 "/>
<path style=" stroke:none;fill-rule:evenodd;fill:rgb(29.803922%,47.058824%,22.352941%);fill-opacity:1;" d="M 77.625 84.671875 C 77.507812 84.375 77.257812 84.207031 76.875 84.171875 C 75.417969 86.03125 73.492188 87.035156 71.09375 87.1875 C 68.671875 86.222656 66.160156 85.722656 63.558594 85.679688 C 66.261719 83.945312 69.277344 83.273438 72.601562 83.667969 C 74.445312 83.835938 76.285156 84.003906 78.128906 84.171875 C 78.066406 84.476562 77.898438 84.644531 77.625 84.671875 Z M 77.625 84.671875 "/>
<path style=" stroke:none;fill-rule:evenodd;fill:rgb(93.333333%,81.960784%,49.411765%);fill-opacity:1;" d="M 95.714844 67.589844 C 94.832031 71.066406 92.652344 72.320312 89.183594 71.355469 C 88.105469 70.957031 87.4375 70.203125 87.171875 69.09375 C 88.199219 69.363281 89.039062 69.949219 89.683594 70.855469 C 90.507812 71.101562 91.34375 71.1875 92.199219 71.105469 C 92.199219 70.601562 92.199219 70.101562 92.199219 69.597656 C 92.699219 69.429688 93.035156 69.09375 93.203125 68.59375 C 93.589844 68.210938 93.839844 67.707031 93.957031 67.085938 C 94.464844 67.507812 95.050781 67.671875 95.714844 67.589844 Z M 95.714844 67.589844 "/>
<path style=" stroke:none;fill-rule:evenodd;fill:rgb(95.686275%,61.568627%,26.666667%);fill-opacity:1;" d="M 87.171875 67.589844 C 88.488281 69.035156 90.164062 69.703125 92.199219 69.597656 C 92.199219 70.101562 92.199219 70.601562 92.199219 71.105469 C 91.34375 71.1875 90.507812 71.101562 89.683594 70.855469 C 89.039062 69.949219 88.199219 69.363281 87.171875 69.09375 C 86.609375 68.515625 86.609375 68.015625 87.171875 67.589844 Z M 87.171875 67.589844 "/>
<path style=" stroke:none;fill-rule:evenodd;fill:rgb(22.745098%,8.235294%,7.45098%);fill-opacity:1;" d="M 92.199219 67.085938 C 92.976562 67.246094 93.308594 67.75 93.203125 68.59375 C 93.035156 69.09375 92.699219 69.429688 92.199219 69.597656 C 90.164062 69.703125 88.488281 69.035156 87.171875 67.589844 C 88.953125 67.746094 90.628906 67.578125 92.199219 67.085938 Z M 92.199219 67.085938 "/>
<path style=" stroke:none;fill-rule:evenodd;fill:rgb(92.54902%,92.156863%,90.196078%);fill-opacity:1;" d="M 99.230469 62.058594 C 99.691406 63.683594 99.859375 65.355469 99.734375 67.085938 C 98.285156 66.933594 96.945312 67.097656 95.714844 67.589844 C 95.050781 67.671875 94.464844 67.507812 93.957031 67.085938 C 93.839844 67.707031 93.589844 68.210938 93.203125 68.59375 C 93.308594 67.75 92.976562 67.246094 92.199219 67.085938 C 90.796875 66.59375 89.289062 66.425781 87.675781 66.582031 C 87.675781 65.410156 87.675781 64.238281 87.675781 63.066406 C 88.179688 63.066406 88.679688 63.066406 89.183594 63.066406 C 92.464844 62.207031 95.816406 61.875 99.230469 62.058594 Z M 99.230469 62.058594 "/>
<use xlink:href="#surface44" mask="url(#mask13)"/>
<path style=" stroke:none;fill-rule:evenodd;fill:rgb(100%,50.196078%,62.745098%);fill-opacity:1;" d="M 38.9375 88.191406 C 38.9375 88.859375 38.9375 89.53125 38.9375 90.199219 C 41.195312 90.316406 43.375 89.980469 45.472656 89.195312 C 45.910156 89.128906 46.246094 89.296875 46.476562 89.699219 C 46.140625 90.199219 45.804688 90.703125 45.472656 91.207031 C 38.769531 93.917969 31.90625 94.335938 24.871094 92.460938 C 27.1875 91.851562 29.535156 91.351562 31.90625 90.953125 C 33.308594 90.671875 34.480469 90.003906 35.421875 88.945312 C 36.636719 88.800781 37.808594 88.546875 38.9375 88.191406 Z M 38.9375 88.191406 "/>
<use xlink:href="#surface47" mask="url(#mask14)"/>
</g>
</svg>
