<?xml version="1.0" encoding="UTF-8"?>
<svg xmlns="http://www.w3.org/2000/svg" xmlns:xlink="http://www.w3.org/1999/xlink" width="px" height="px" viewBox="0 0 89 96" version="1.1">
<defs>
<filter id="alpha" filterUnits="objectBoundingBox" x="0%" y="0%" width="100%" height="100%">
  <feColorMatrix type="matrix" in="SourceGraphic" values="0 0 0 0 1 0 0 0 0 1 0 0 0 0 1 0 0 0 1 0"/>
</filter>
<mask id="mask0">
  <g filter="url(#alpha)">
<rect x="0" y="0" width="89" height="96" style="fill:rgb(0%,0%,0%);fill-opacity:0.976471;stroke:none;"/>
  </g>
</mask>
<clipPath id="clip1">
  <rect x="0" y="0" width="89" height="96"/>
</clipPath>
<g id="surface5" clip-path="url(#clip1)">
<path style=" stroke:none;fill-rule:evenodd;fill:rgb(7.45098%,7.843137%,9.411765%);fill-opacity:1;" d="M 40.75 7.210938 C 40.792969 7.707031 40.625 8.121094 40.25 8.457031 C 35.25 8.621094 30.25 8.789062 25.25 8.953125 C 23.582031 9.617188 21.917969 10.28125 20.25 10.941406 C 19.875 11.277344 19.707031 11.691406 19.75 12.1875 C 12.738281 15.851562 8.070312 21.488281 5.75 29.097656 C 4.992188 29.09375 4.40625 28.761719 4 28.105469 C 3.363281 29.277344 2.777344 30.4375 2.25 31.585938 C 7.539062 12.691406 20.039062 4.816406 39.75 7.957031 C 40.023438 7.601562 40.355469 7.351562 40.75 7.210938 Z M 40.75 7.210938 "/>
</g>
<mask id="mask1">
  <g filter="url(#alpha)">
<rect x="0" y="0" width="89" height="96" style="fill:rgb(0%,0%,0%);fill-opacity:0.00784314;stroke:none;"/>
  </g>
</mask>
<clipPath id="clip2">
  <rect x="0" y="0" width="89" height="96"/>
</clipPath>
<g id="surface8" clip-path="url(#clip2)">
<path style=" stroke:none;fill-rule:evenodd;fill:rgb(13.72549%,23.921569%,29.803922%);fill-opacity:1;" d="M 59.75 3.234375 C 61.714844 5.046875 63.714844 6.871094 65.75 8.703125 C 66.550781 10.507812 67.300781 12.332031 68 14.175781 C 71.167969 16.175781 73.085938 18.992188 73.75 22.632812 C 75.578125 22.460938 77.246094 22.792969 78.75 23.625 C 76.917969 23.625 75.082031 23.625 73.25 23.625 C 72.605469 19.863281 70.605469 17.042969 67.25 15.171875 C 66.617188 10.757812 64.367188 7.441406 60.5 5.222656 C 60.105469 4.605469 59.855469 3.941406 59.75 3.234375 Z M 59.75 3.234375 "/>
</g>
<mask id="mask2">
  <g filter="url(#alpha)">
<rect x="0" y="0" width="89" height="96" style="fill:rgb(0%,0%,0%);fill-opacity:0.992157;stroke:none;"/>
  </g>
</mask>
<clipPath id="clip3">
  <rect x="0" y="0" width="89" height="96"/>
</clipPath>
<g id="surface11" clip-path="url(#clip3)">
<path style=" stroke:none;fill-rule:evenodd;fill:rgb(5.098039%,2.745098%,2.745098%);fill-opacity:1;" d="M 52.75 -0.25 C 53.582031 -0.25 54.417969 -0.25 55.25 -0.25 C 57.191406 0.355469 58.691406 1.515625 59.75 3.234375 C 59.855469 3.941406 60.105469 4.605469 60.5 5.222656 C 64.367188 7.441406 66.617188 10.757812 67.25 15.171875 C 70.605469 17.042969 72.605469 19.863281 73.25 23.625 C 75.082031 23.625 76.917969 23.625 78.75 23.625 C 78.917969 23.625 79.082031 23.625 79.25 23.625 C 85.199219 26.257812 87.53125 30.816406 86.25 37.304688 C 87.339844 39.109375 87.507812 41.019531 86.75 43.027344 C 88.046875 45.667969 87.878906 48.238281 86.25 50.734375 C 86.945312 51.601562 87.28125 52.59375 87.25 53.71875 C 86.46875 56.886719 86.050781 60.121094 86 63.417969 C 85.664062 64.75 85.082031 65.910156 84.25 66.902344 C 84.183594 66.046875 84.019531 65.21875 83.75 64.414062 C 84.136719 62.449219 84.300781 60.460938 84.25 58.445312 C 83.582031 58.445312 82.917969 58.445312 82.25 58.445312 C 82.222656 57.894531 82.054688 57.398438 81.75 56.953125 C 84.058594 56.566406 85.144531 55.238281 85 52.972656 C 84.808594 52.699219 84.558594 52.53125 84.25 52.476562 C 82.984375 52.144531 81.652344 51.8125 80.25 51.480469 C 81.511719 50.890625 82.675781 50.226562 83.75 49.492188 C 85.507812 48.292969 85.671875 46.886719 84.25 45.265625 C 81.753906 45.015625 79.253906 44.933594 76.75 45.015625 C 76.582031 45.015625 76.417969 45.015625 76.25 45.015625 C 75.707031 44.957031 75.375 44.625 75.25 44.019531 C 75.632812 42.71875 75.800781 41.394531 75.75 40.042969 C 75.207031 36.214844 74.207031 32.566406 72.75 29.097656 C 72.257812 26.382812 71.507812 23.730469 70.5 21.140625 C 69.269531 19 67.519531 17.507812 65.25 16.664062 C 65.25 16.332031 65.082031 16.164062 64.75 16.164062 C 64.746094 15.410156 64.410156 14.832031 63.75 14.425781 C 64.679688 14.125 64.847656 13.710938 64.25 13.179688 C 63.703125 9.492188 61.539062 7.5 57.75 7.210938 C 57.039062 6.738281 56.207031 6.574219 55.25 6.714844 C 54.679688 6.296875 54.011719 5.964844 53.25 5.71875 C 51.542969 6.015625 50.042969 6.675781 48.75 7.710938 C 49.3125 6.898438 49.980469 6.152344 50.75 5.472656 C 52.644531 5.046875 54.476562 4.464844 56.25 3.730469 C 56.144531 3.4375 55.976562 3.191406 55.75 2.984375 C 47.773438 2.9375 42.359375 6.667969 39.5 14.175781 C 37.9375 18.410156 36.6875 22.722656 35.75 27.109375 C 35.113281 27.394531 35.113281 27.726562 35.75 28.105469 C 36.820312 28.136719 37.820312 28.386719 38.75 28.851562 C 37.582031 29.367188 36.417969 29.78125 35.25 30.09375 C 34.796875 30.445312 34.632812 30.941406 34.75 31.585938 C 34.75 31.75 34.75 31.917969 34.75 32.082031 C 34.441406 32.027344 34.191406 31.863281 34 31.585938 C 33.832031 32.25 33.667969 32.910156 33.5 33.574219 C 33.15625 34.191406 32.90625 34.191406 32.75 33.574219 C 32.75 32.582031 32.75 31.585938 32.75 30.589844 C 33.382812 29.394531 33.71875 28.066406 33.75 26.613281 C 34.445312 21.058594 35.945312 15.753906 38.25 10.695312 C 35.410156 10.613281 32.578125 10.695312 29.75 10.941406 C 28.886719 13.121094 27.886719 15.195312 26.75 17.160156 C 26.613281 16.007812 26.949219 15.011719 27.75 14.175781 C 27.378906 13.5625 27.210938 12.898438 27.25 12.1875 C 26.832031 11.566406 26.167969 11.234375 25.25 11.191406 C 24.476562 11.195312 23.8125 11.363281 23.25 11.6875 C 22.070312 11.777344 20.902344 11.941406 19.75 12.1875 C 19.707031 11.691406 19.875 11.277344 20.25 10.941406 C 21.917969 10.28125 23.582031 9.617188 25.25 8.953125 C 30.25 8.789062 35.25 8.621094 40.25 8.457031 C 40.625 8.121094 40.792969 7.707031 40.75 7.210938 C 42.160156 4.734375 44.160156 2.828125 46.75 1.492188 C 48.742188 0.660156 50.742188 0.0820312 52.75 -0.25 Z M 52.75 -0.25 "/>
</g>
<mask id="mask3">
  <g filter="url(#alpha)">
<rect x="0" y="0" width="89" height="96" style="fill:rgb(0%,0%,0%);fill-opacity:0.0705882;stroke:none;"/>
  </g>
</mask>
<clipPath id="clip4">
  <rect x="0" y="0" width="89" height="96"/>
</clipPath>
<g id="surface14" clip-path="url(#clip4)">
<path style=" stroke:none;fill-rule:evenodd;fill:rgb(12.941176%,21.960784%,28.235294%);fill-opacity:1;" d="M 79.25 23.625 C 83.085938 24.203125 85.667969 26.359375 87 30.09375 C 87.84375 32.308594 87.925781 34.546875 87.25 36.808594 C 88.144531 38.761719 88.3125 40.75 87.75 42.777344 C 87.902344 43.503906 88.238281 44.082031 88.75 44.519531 C 88.75 45.347656 88.75 46.175781 88.75 47.003906 C 87.710938 49.3125 87.542969 51.714844 88.25 54.21875 C 87.296875 55.976562 87.128906 57.800781 87.75 59.6875 C 87.15625 67.585938 82.988281 71.5625 75.25 71.625 C 73.523438 73.484375 72.109375 75.554688 71 77.84375 C 69.441406 78.914062 68.027344 80.15625 66.75 81.574219 C 66.917969 81.742188 67.082031 81.90625 67.25 82.074219 C 65.035156 86.601562 62.035156 90.582031 58.25 94.011719 C 57.039062 94.613281 55.871094 95.195312 54.75 95.75 C 54.582031 95.75 54.417969 95.75 54.25 95.75 C 54.082031 95.089844 53.917969 95.089844 53.75 95.75 C 52.917969 95.75 52.082031 95.75 51.25 95.75 C 48.5625 95.074219 46.230469 93.75 44.25 91.773438 C 46.164062 92.804688 48.164062 93.71875 50.25 94.507812 C 52.882812 95.039062 55.382812 94.707031 57.75 93.511719 C 59.492188 91.300781 61.410156 89.226562 63.5 87.296875 C 65.046875 85.214844 66.046875 82.894531 66.5 80.332031 C 69.949219 78.226562 72.28125 75.242188 73.5 71.378906 C 75.734375 71 77.984375 70.585938 80.25 70.132812 C 81.96875 69.5 83.300781 68.421875 84.25 66.902344 C 85.082031 65.910156 85.664062 64.75 86 63.417969 C 86.050781 60.121094 86.46875 56.886719 87.25 53.71875 C 87.28125 52.59375 86.945312 51.601562 86.25 50.734375 C 87.878906 48.238281 88.046875 45.667969 86.75 43.027344 C 87.507812 41.019531 87.339844 39.109375 86.25 37.304688 C 87.53125 30.816406 85.199219 26.257812 79.25 23.625 Z M 79.25 23.625 "/>
</g>
<mask id="mask4">
  <g filter="url(#alpha)">
<rect x="0" y="0" width="89" height="96" style="fill:rgb(0%,0%,0%);fill-opacity:0.996078;stroke:none;"/>
  </g>
</mask>
<clipPath id="clip5">
  <rect x="0" y="0" width="89" height="96"/>
</clipPath>
<g id="surface17" clip-path="url(#clip5)">
<path style=" stroke:none;fill-rule:evenodd;fill:rgb(4.313725%,2.352941%,2.352941%);fill-opacity:1;" d="M 5.75 29.097656 C 5.445312 29.542969 5.277344 30.039062 5.25 30.589844 C 4.761719 31.867188 4.429688 33.195312 4.25 34.570312 C 0.796875 48.167969 2.546875 61.097656 9.5 73.367188 C 13.375 79.3125 18.792969 82.460938 25.75 82.820312 C 24.28125 80.71875 22.945312 78.5625 21.75 76.351562 C 24.75 76.019531 27.75 75.6875 30.75 75.359375 C 29.878906 72.921875 29.210938 70.4375 28.75 67.894531 C 27.75 67.894531 26.75 67.894531 25.75 67.894531 C 25.683594 67.527344 25.769531 67.195312 26 66.902344 C 26.359375 67.375 26.777344 67.457031 27.25 67.148438 C 26.421875 66.433594 26.089844 65.519531 26.25 64.414062 C 27.316406 64.433594 27.984375 64.765625 28.25 65.410156 C 29.582031 65.410156 30.917969 65.410156 32.25 65.410156 C 32.867188 65.300781 33.367188 64.96875 33.75 64.414062 C 34.429688 64.972656 34.929688 65.636719 35.25 66.402344 C 35.984375 70.792969 37.066406 75.101562 38.5 79.335938 C 40.597656 86.066406 45.011719 90.457031 51.75 92.519531 C 53.949219 92.84375 55.785156 92.179688 57.25 90.527344 C 52.496094 90.488281 48.996094 88.414062 46.75 84.3125 C 47.230469 83.921875 47.5625 83.339844 47.75 82.570312 C 47.621094 81.910156 47.289062 81.414062 46.75 81.078125 C 47.695312 80.691406 48.527344 80.773438 49.25 81.328125 C 48.222656 81.601562 48.058594 82.097656 48.75 82.820312 C 49.0625 83.941406 49.726562 84.769531 50.75 85.304688 C 51.742188 86.628906 53.074219 87.460938 54.75 87.792969 C 60.050781 88.640625 63.050781 86.484375 63.75 81.328125 C 62.917969 81.328125 62.082031 81.328125 61.25 81.328125 C 60.582031 81.328125 59.917969 81.328125 59.25 81.328125 C 58.917969 81.328125 58.582031 81.328125 58.25 81.328125 C 58.503906 80.464844 58.921875 80.296875 59.5 80.828125 C 60.796875 80.074219 62.214844 79.660156 63.75 79.585938 C 63.453125 79.355469 63.121094 79.273438 62.75 79.335938 C 67.269531 77.988281 70.101562 75.003906 71.25 70.382812 C 71.882812 70.089844 72.550781 69.839844 73.25 69.636719 C 72.785156 69.445312 72.453125 69.113281 72.25 68.640625 C 73.261719 66.304688 73.929688 66.390625 74.25 68.890625 C 78.429688 69.382812 81.59375 67.890625 83.75 64.414062 C 84.019531 65.21875 84.183594 66.046875 84.25 66.902344 C 83.300781 68.421875 81.96875 69.5 80.25 70.132812 C 77.984375 70.585938 75.734375 71 73.5 71.378906 C 72.28125 75.242188 69.949219 78.226562 66.5 80.332031 C 66.046875 82.894531 65.046875 85.214844 63.5 87.296875 C 61.410156 89.226562 59.492188 91.300781 57.75 93.511719 C 55.382812 94.707031 52.882812 95.039062 50.25 94.507812 C 48.164062 93.71875 46.164062 92.804688 44.25 91.773438 C 42.5 89.949219 40.835938 88.042969 39.25 86.050781 C 17.476562 88.429688 4.726562 78.894531 1 57.449219 C 0.347656 52.332031 0.0976562 47.191406 0.25 42.03125 C 0.105469 38.339844 0.773438 34.859375 2.25 31.585938 C 2.777344 30.4375 3.363281 29.277344 4 28.105469 C 4.40625 28.761719 4.992188 29.09375 5.75 29.097656 Z M 5.75 29.097656 "/>
</g>
<mask id="mask5">
  <g filter="url(#alpha)">
<rect x="0" y="0" width="89" height="96" style="fill:rgb(0%,0%,0%);fill-opacity:0.00784314;stroke:none;"/>
  </g>
</mask>
<clipPath id="clip6">
  <rect x="0" y="0" width="89" height="96"/>
</clipPath>
<g id="surface20" clip-path="url(#clip6)">
<path style=" stroke:none;fill-rule:evenodd;fill:rgb(12.941176%,21.568627%,27.45098%);fill-opacity:1;" d="M -0.25 42.03125 C -0.0820312 42.03125 0.0820312 42.03125 0.25 42.03125 C 0.0976562 47.191406 0.347656 52.332031 1 57.449219 C 4.726562 78.894531 17.476562 88.429688 39.25 86.050781 C 40.835938 88.042969 42.5 89.949219 44.25 91.773438 C 42.035156 90.316406 40.035156 88.574219 38.25 86.550781 C 21.800781 89.273438 10.21875 83.222656 3.5 68.394531 C 1.925781 64.113281 0.675781 59.800781 -0.25 55.460938 C -0.25 50.984375 -0.25 46.507812 -0.25 42.03125 Z M -0.25 42.03125 "/>
</g>
</defs>
<g id="surface1">
<use xlink:href="#surface5" mask="url(#mask0)"/>
<use xlink:href="#surface8" mask="url(#mask1)"/>
<path style=" stroke:none;fill-rule:evenodd;fill:rgb(15.686275%,13.333333%,14.509804%);fill-opacity:1;" d="M 33.75 26.613281 C 32.734375 27.605469 31.570312 27.773438 30.25 27.109375 C 30.8125 24.511719 31.8125 22.109375 33.25 19.894531 C 33.082031 19.648438 32.917969 19.398438 32.75 19.148438 C 30.527344 18.800781 28.527344 18.136719 26.75 17.160156 C 27.886719 15.195312 28.886719 13.121094 29.75 10.941406 C 32.578125 10.695312 35.410156 10.613281 38.25 10.695312 C 35.945312 15.753906 34.445312 21.058594 33.75 26.613281 Z M 33.75 26.613281 "/>
<path style=" stroke:none;fill-rule:evenodd;fill:rgb(92.54902%,50.980392%,19.607843%);fill-opacity:1;" d="M 23.25 11.6875 C 24.53125 11.539062 25.695312 11.703125 26.75 12.1875 C 25.515625 14.710938 24.683594 17.363281 24.25 20.144531 C 26.289062 20.066406 28.289062 20.316406 30.25 20.890625 C 29.972656 21.082031 29.804688 21.332031 29.75 21.636719 C 29.417969 21.96875 29.082031 22.300781 28.75 22.632812 C 28.542969 22.273438 28.207031 22.023438 27.75 21.886719 C 25.917969 21.71875 24.082031 21.554688 22.25 21.386719 C 21.039062 20.636719 20.539062 19.558594 20.75 18.15625 C 14.078125 18.734375 9.660156 22.21875 7.5 28.601562 C 6.652344 29.199219 5.902344 29.859375 5.25 30.589844 C 5.277344 30.039062 5.445312 29.542969 5.75 29.097656 C 8.070312 21.488281 12.738281 15.851562 19.75 12.1875 C 20.902344 11.941406 22.070312 11.777344 23.25 11.6875 Z M 23.25 11.6875 "/>
<path style=" stroke:none;fill-rule:evenodd;fill:rgb(95.686275%,63.921569%,15.294118%);fill-opacity:1;" d="M 65.25 16.664062 C 67.519531 17.507812 69.269531 19 70.5 21.140625 C 71.507812 23.730469 72.257812 26.382812 72.75 29.097656 C 72.5 31.042969 72.5 33.035156 72.75 35.066406 C 71.246094 31.394531 69.996094 27.578125 69 23.625 C 68.242188 21.957031 66.992188 20.960938 65.25 20.640625 C 64.539062 19.933594 63.707031 19.4375 62.75 19.148438 C 61.535156 18.125 60.203125 17.214844 58.75 16.414062 C 60.925781 16.207031 63.089844 16.289062 65.25 16.664062 Z M 65.25 16.664062 "/>
<path style=" stroke:none;fill-rule:evenodd;fill:rgb(5.098039%,1.960784%,1.176471%);fill-opacity:1;" d="M 55.25 6.714844 C 54.417969 7.046875 53.582031 7.378906 52.75 7.710938 C 50.90625 9.046875 49.40625 10.707031 48.25 12.683594 C 52.410156 13.144531 56.574219 13.476562 60.75 13.679688 C 62.03125 13.828125 63.195312 13.664062 64.25 13.179688 C 64.847656 13.710938 64.679688 14.125 63.75 14.425781 C 64.410156 14.832031 64.746094 15.410156 64.75 16.164062 C 59.9375 15.707031 55.101562 15.542969 50.25 15.667969 C 47.503906 15.671875 46.589844 16.996094 47.5 19.648438 C 49.847656 17.632812 52.597656 16.804688 55.75 17.160156 C 59.09375 17.746094 61.925781 19.238281 64.25 21.636719 C 65.359375 23.632812 65.945312 25.789062 66 28.105469 C 66.09375 26.84375 66.34375 25.683594 66.75 24.621094 C 66.75 26.777344 66.75 28.933594 66.75 31.089844 C 65.914062 34.230469 64.414062 37.046875 62.25 39.542969 C 61.753906 39.457031 61.421875 39.625 61.25 40.042969 C 56.503906 41.257812 51.667969 41.757812 46.75 41.535156 C 46.75 45.347656 46.75 49.160156 46.75 52.972656 C 46.335938 49.25 46.085938 45.433594 46 41.535156 C 45.519531 44.414062 45.101562 47.230469 44.75 49.988281 C 44.894531 45.921875 44.394531 41.941406 43.25 38.050781 C 41.714844 35.765625 40.714844 33.28125 40.25 30.589844 C 38.617188 30.179688 36.949219 30.015625 35.25 30.09375 C 36.417969 29.78125 37.582031 29.367188 38.75 28.851562 C 37.820312 28.386719 36.820312 28.136719 35.75 28.105469 C 35.113281 27.726562 35.113281 27.394531 35.75 27.109375 C 37.28125 27.203125 38.863281 27.371094 40.5 27.605469 C 41.90625 21.992188 43.738281 16.519531 46 11.191406 C 46.847656 9.9375 47.765625 8.777344 48.75 7.710938 C 50.042969 6.675781 51.542969 6.015625 53.25 5.71875 C 54.011719 5.964844 54.679688 6.296875 55.25 6.714844 Z M 55.25 6.714844 "/>
<path style=" stroke:none;fill-rule:evenodd;fill:rgb(98.431373%,65.098039%,29.019608%);fill-opacity:1;" d="M 28.75 22.632812 C 28.035156 24.027344 27.703125 25.519531 27.75 27.109375 C 26.917969 27.109375 26.082031 27.109375 25.25 27.109375 C 23.492188 26.921875 21.824219 26.421875 20.25 25.617188 C 19.390625 26.199219 19.058594 27.027344 19.25 28.105469 C 21.546875 28.757812 23.878906 29.253906 26.25 29.597656 C 26.164062 30.769531 25.996094 31.929688 25.75 33.078125 C 24.136719 33.175781 22.550781 33.011719 21 32.582031 C 19.328125 33.1875 18.910156 34.265625 19.75 35.8125 C 21.398438 35.914062 22.898438 36.328125 24.25 37.058594 C 22.464844 37.1875 21.800781 38.179688 22.25 40.042969 C 22.25 40.539062 22.25 41.035156 22.25 41.535156 C 20.082031 41.824219 17.914062 42.15625 15.75 42.527344 C 15.035156 42.644531 14.785156 42.976562 15 43.523438 C 15.679688 43.960938 16.429688 44.125 17.25 44.019531 C 17.25 47.003906 17.25 49.988281 17.25 52.972656 C 19.082031 52.972656 20.917969 52.972656 22.75 52.972656 C 22.882812 55.734375 22.714844 58.46875 22.25 61.179688 C 22.324219 61.566406 22.488281 61.898438 22.75 62.175781 C 23.738281 62.421875 24.738281 62.503906 25.75 62.425781 C 25.75 63.585938 25.75 64.746094 25.75 65.90625 C 23.367188 65.917969 21.03125 66.25 18.75 66.902344 C 18.863281 69.9375 20.027344 70.519531 22.25 68.640625 C 23.460938 68.5 24.625 68.25 25.75 67.894531 C 26.75 67.894531 27.75 67.894531 28.75 67.894531 C 29.210938 70.4375 29.878906 72.921875 30.75 75.359375 C 27.582031 75.359375 24.417969 75.359375 21.25 75.359375 C 21.007812 76.578125 21.007812 77.902344 21.25 79.335938 C 20.050781 79.0625 18.882812 78.648438 17.75 78.09375 C 18.179688 77.75 18.511719 77.335938 18.75 76.851562 C 17.945312 76.441406 17.113281 76.109375 16.25 75.855469 C 15.933594 74.828125 15.433594 73.914062 14.75 73.121094 C 15.851562 72.03125 17.1875 71.285156 18.75 70.878906 C 18.378906 70.488281 17.960938 70.15625 17.5 69.886719 C 17 70.550781 16.5 70.550781 16 69.886719 C 14.75 67.730469 13.835938 65.574219 13.25 63.417969 C 12.339844 63.882812 11.671875 63.550781 11.25 62.425781 C 12.40625 62.058594 13.324219 61.394531 14 60.433594 C 14.382812 59.65625 14.300781 58.992188 13.75 58.445312 C 12.777344 58.121094 11.941406 57.542969 11.25 56.703125 C 8.914062 56.4375 6.582031 56.1875 4.25 55.957031 C 3.84375 53.90625 3.511719 51.832031 3.25 49.742188 C 3.242188 47.933594 3.574219 46.191406 4.25 44.519531 C 3.730469 42.378906 3.644531 40.222656 4 38.050781 C 4.324219 39.761719 4.574219 39.84375 4.75 38.300781 C 4.421875 37.074219 4.253906 35.832031 4.25 34.570312 C 4.429688 33.195312 4.761719 31.867188 5.25 30.589844 C 5.902344 29.859375 6.652344 29.199219 7.5 28.601562 C 9.660156 22.21875 14.078125 18.734375 20.75 18.15625 C 20.539062 19.558594 21.039062 20.636719 22.25 21.386719 C 24.082031 21.554688 25.917969 21.71875 27.75 21.886719 C 28.207031 22.023438 28.542969 22.273438 28.75 22.632812 Z M 28.75 22.632812 "/>
<path style=" stroke:none;fill-rule:evenodd;fill:rgb(63.137255%,26.27451%,8.235294%);fill-opacity:1;" d="M 29.75 21.636719 C 29.414062 23.472656 28.996094 25.296875 28.5 27.109375 C 27.363281 27.761719 26.28125 27.761719 25.25 27.109375 C 26.082031 27.109375 26.917969 27.109375 27.75 27.109375 C 27.703125 25.519531 28.035156 24.027344 28.75 22.632812 C 29.082031 22.300781 29.417969 21.96875 29.75 21.636719 Z M 29.75 21.636719 "/>
<path style=" stroke:none;fill-rule:evenodd;fill:rgb(32.156863%,17.647059%,12.54902%);fill-opacity:1;" d="M 45.75 18.15625 C 46.046875 18.273438 46.214844 18.519531 46.25 18.902344 C 43.644531 24.277344 43.0625 29.832031 44.5 35.566406 C 42.796875 32.671875 42.296875 29.523438 43 26.113281 C 43.78125 23.402344 44.699219 20.746094 45.75 18.15625 Z M 45.75 18.15625 "/>
<path style=" stroke:none;fill-rule:evenodd;fill:rgb(81.176471%,45.882353%,15.686275%);fill-opacity:1;" d="M 35.25 30.09375 C 36.949219 30.015625 38.617188 30.179688 40.25 30.589844 C 40.238281 33.351562 39.902344 36.003906 39.25 38.550781 C 39.402344 37.113281 39.238281 35.789062 38.75 34.570312 C 38.628906 33.589844 38.796875 32.679688 39.25 31.835938 C 38.667969 31.585938 38.25 31.171875 38 30.589844 C 37.105469 31.449219 36.023438 31.78125 34.75 31.585938 C 34.632812 30.941406 34.796875 30.445312 35.25 30.09375 Z M 35.25 30.09375 "/>
<path style=" stroke:none;fill-rule:evenodd;fill:rgb(8.235294%,3.529412%,2.352941%);fill-opacity:1;" d="M 26.75 12.1875 C 26.917969 12.1875 27.082031 12.1875 27.25 12.1875 C 27.210938 12.898438 27.378906 13.5625 27.75 14.175781 C 26.949219 15.011719 26.613281 16.007812 26.75 17.160156 C 28.527344 18.136719 30.527344 18.800781 32.75 19.148438 C 32.917969 19.398438 33.082031 19.648438 33.25 19.894531 C 31.8125 22.109375 30.8125 24.511719 30.25 27.109375 C 31.570312 27.773438 32.734375 27.605469 33.75 26.613281 C 33.71875 28.066406 33.382812 29.394531 32.75 30.589844 C 31.355469 30.105469 29.855469 29.9375 28.25 30.09375 C 28.25 31.089844 28.25 32.082031 28.25 33.078125 C 29.757812 33.179688 31.257812 33.34375 32.75 33.574219 C 32.90625 34.191406 33.15625 34.191406 33.5 33.574219 C 33.667969 32.910156 33.832031 32.25 34 31.585938 C 34.191406 31.863281 34.441406 32.027344 34.75 32.082031 C 33.617188 41.65625 33.453125 51.269531 34.25 60.933594 C 36.148438 61.421875 38.148438 61.585938 40.25 61.429688 C 40.390625 60.476562 40.226562 59.648438 39.75 58.941406 C 39.371094 53.3125 39.203125 47.675781 39.25 42.03125 C 39.25 40.871094 39.25 39.710938 39.25 38.550781 C 39.902344 36.003906 40.238281 33.351562 40.25 30.589844 C 40.714844 33.28125 41.714844 35.765625 43.25 38.050781 C 42.84375 37.589844 42.425781 37.09375 42 36.558594 C 40.40625 44.519531 40.40625 52.476562 42 60.433594 C 42.617188 58.382812 43.367188 56.394531 44.25 54.464844 C 44.609375 54.675781 44.859375 55.003906 45 55.460938 C 45.167969 55.296875 45.332031 55.128906 45.5 54.964844 C 45.871094 55.585938 45.785156 56.082031 45.25 56.457031 C 41.925781 63.210938 42.011719 70.007812 45.5 76.851562 C 45.730469 76.554688 45.816406 76.222656 45.75 75.855469 C 47.523438 78.046875 47.023438 78.792969 44.25 78.09375 C 43.96875 77.597656 43.632812 77.183594 43.25 76.851562 C 41.632812 73.242188 40.550781 69.429688 40 65.410156 C 38.886719 64.128906 37.46875 63.464844 35.75 63.417969 C 35.835938 64.476562 35.671875 65.46875 35.25 66.402344 C 34.929688 65.636719 34.429688 64.972656 33.75 64.414062 C 33.367188 64.96875 32.867188 65.300781 32.25 65.410156 C 32.25 64.25 32.25 63.089844 32.25 61.925781 C 30.917969 61.925781 29.582031 61.925781 28.25 61.925781 C 28.25 63.089844 28.25 64.25 28.25 65.410156 C 27.984375 64.765625 27.316406 64.433594 26.25 64.414062 C 26.089844 65.519531 26.421875 66.433594 27.25 67.148438 C 26.777344 67.457031 26.359375 67.375 26 66.902344 C 25.769531 67.195312 25.683594 67.527344 25.75 67.894531 C 24.625 68.25 23.460938 68.5 22.25 68.640625 C 20.027344 70.519531 18.863281 69.9375 18.75 66.902344 C 21.03125 66.25 23.367188 65.917969 25.75 65.90625 C 25.75 64.746094 25.75 63.585938 25.75 62.425781 C 24.738281 62.503906 23.738281 62.421875 22.75 62.175781 C 22.488281 61.898438 22.324219 61.566406 22.25 61.179688 C 22.714844 58.46875 22.882812 55.734375 22.75 52.972656 C 20.917969 52.972656 19.082031 52.972656 17.25 52.972656 C 17.25 49.988281 17.25 47.003906 17.25 44.019531 C 16.429688 44.125 15.679688 43.960938 15 43.523438 C 14.785156 42.976562 15.035156 42.644531 15.75 42.527344 C 17.914062 42.15625 20.082031 41.824219 22.25 41.535156 C 22.25 41.035156 22.25 40.539062 22.25 40.042969 C 23.902344 39.722656 24.570312 38.726562 24.25 37.058594 C 22.898438 36.328125 21.398438 35.914062 19.75 35.8125 C 18.910156 34.265625 19.328125 33.1875 21 32.582031 C 22.550781 33.011719 24.136719 33.175781 25.75 33.078125 C 25.996094 31.929688 26.164062 30.769531 26.25 29.597656 C 23.878906 29.253906 21.546875 28.757812 19.25 28.105469 C 19.058594 27.027344 19.390625 26.199219 20.25 25.617188 C 21.824219 26.421875 23.492188 26.921875 25.25 27.109375 C 26.28125 27.761719 27.363281 27.761719 28.5 27.109375 C 28.996094 25.296875 29.414062 23.472656 29.75 21.636719 C 29.804688 21.332031 29.972656 21.082031 30.25 20.890625 C 28.289062 20.316406 26.289062 20.066406 24.25 20.144531 C 24.683594 17.363281 25.515625 14.710938 26.75 12.1875 Z M 26.75 12.1875 "/>
<path style=" stroke:none;fill-rule:evenodd;fill:rgb(92.941176%,58.431373%,19.607843%);fill-opacity:1;" d="M 38.75 34.570312 C 38.71875 36.421875 38.46875 38.242188 38 40.042969 C 37.90625 38.78125 37.65625 37.621094 37.25 36.558594 C 37.648438 35.101562 37.816406 33.609375 37.75 32.082031 C 36.328125 32.238281 35.578125 33.066406 35.5 34.570312 C 34.613281 43.351562 34.53125 52.140625 35.25 60.933594 C 34.917969 60.933594 34.582031 60.933594 34.25 60.933594 C 33.453125 51.269531 33.617188 41.65625 34.75 32.082031 C 34.75 31.917969 34.75 31.75 34.75 31.585938 C 36.023438 31.78125 37.105469 31.449219 38 30.589844 C 38.25 31.171875 38.667969 31.585938 39.25 31.835938 C 38.796875 32.679688 38.628906 33.589844 38.75 34.570312 Z M 38.75 34.570312 "/>
<path style=" stroke:none;fill-rule:evenodd;fill:rgb(88.235294%,50.588235%,19.215686%);fill-opacity:1;" d="M 32.75 30.589844 C 32.75 31.585938 32.75 32.582031 32.75 33.574219 C 31.257812 33.34375 29.757812 33.179688 28.25 33.078125 C 28.25 32.082031 28.25 31.089844 28.25 30.09375 C 29.855469 29.9375 31.355469 30.105469 32.75 30.589844 Z M 32.75 30.589844 "/>
<path style=" stroke:none;fill-rule:evenodd;fill:rgb(71.764706%,58.431373%,34.901961%);fill-opacity:1;" d="M 60.25 32.582031 C 60.679688 33.730469 60.929688 34.894531 61 36.0625 C 60.214844 37.265625 59.132812 37.929688 57.75 38.050781 C 57.417969 38.050781 57.25 37.886719 57.25 37.554688 C 58.917969 37.554688 59.75 36.726562 59.75 35.066406 C 59.25 35.066406 58.75 35.066406 58.25 35.066406 C 58.605469 34.617188 59.105469 34.453125 59.75 34.570312 C 59.617188 33.773438 59.78125 33.113281 60.25 32.582031 Z M 60.25 32.582031 "/>
<path style=" stroke:none;fill-rule:evenodd;fill:rgb(8.627451%,5.882353%,3.137255%);fill-opacity:1;" d="M 58.25 35.066406 C 58.75 35.066406 59.25 35.066406 59.75 35.066406 C 59.75 36.726562 58.917969 37.554688 57.25 37.554688 C 56.917969 37.554688 56.75 37.386719 56.75 37.058594 C 57.011719 36.195312 57.511719 35.53125 58.25 35.066406 Z M 58.25 35.066406 "/>
<path style=" stroke:none;fill-rule:evenodd;fill:rgb(85.098039%,61.176471%,29.411765%);fill-opacity:1;" d="M 47.25 35.066406 C 48.714844 35.214844 49.714844 35.960938 50.25 37.304688 C 49.269531 38.292969 48.101562 39.039062 46.75 39.542969 C 46.582031 39.378906 46.417969 39.210938 46.25 39.046875 C 47.113281 37.878906 47.449219 36.550781 47.25 35.066406 Z M 47.25 35.066406 "/>
<path style=" stroke:none;fill-rule:evenodd;fill:rgb(81.960784%,50.588235%,7.843137%);fill-opacity:1;" d="M 72.75 29.097656 C 74.207031 32.566406 75.207031 36.214844 75.75 40.042969 C 75.25 39.710938 74.75 39.378906 74.25 39.046875 C 73.347656 38.679688 72.515625 38.183594 71.75 37.554688 C 72.523438 37.660156 73.355469 37.660156 74.25 37.554688 C 73.871094 36.628906 73.371094 35.800781 72.75 35.066406 C 72.5 33.035156 72.5 31.042969 72.75 29.097656 Z M 72.75 29.097656 "/>
<path style=" stroke:none;fill-rule:evenodd;fill:rgb(85.098039%,62.352941%,20.784314%);fill-opacity:1;" d="M 60.25 32.582031 C 59.78125 33.113281 59.617188 33.773438 59.75 34.570312 C 59.105469 34.453125 58.605469 34.617188 58.25 35.066406 C 57.511719 35.53125 57.011719 36.195312 56.75 37.058594 C 55.257812 37.9375 53.589844 38.269531 51.75 38.050781 C 53.203125 37.328125 54.703125 36.582031 56.25 35.8125 C 57.324219 34.25 58.324219 32.671875 59.25 31.089844 C 59.558594 31.03125 59.808594 30.867188 60 30.589844 C 60.246094 31.234375 60.328125 31.898438 60.25 32.582031 Z M 60.25 32.582031 "/>
<path style=" stroke:none;fill-rule:evenodd;fill:rgb(78.431373%,59.215686%,28.235294%);fill-opacity:1;" d="M 66.75 31.089844 C 66.632812 31.730469 66.796875 32.226562 67.25 32.582031 C 66.621094 34.832031 65.703125 36.988281 64.5 39.046875 C 64.164062 39.421875 63.746094 39.585938 63.25 39.542969 C 62.917969 39.542969 62.582031 39.542969 62.25 39.542969 C 64.414062 37.046875 65.914062 34.230469 66.75 31.089844 Z M 66.75 31.089844 "/>
<path style=" stroke:none;fill-rule:evenodd;fill:rgb(31.372549%,17.647059%,9.803922%);fill-opacity:1;" d="M 56.75 37.058594 C 56.75 37.386719 56.917969 37.554688 57.25 37.554688 C 57.25 37.886719 57.417969 38.050781 57.75 38.050781 C 55.75 38.714844 53.75 38.714844 51.75 38.050781 C 53.589844 38.269531 55.257812 37.9375 56.75 37.058594 Z M 56.75 37.058594 "/>
<path style=" stroke:none;fill-rule:evenodd;fill:rgb(25.098039%,12.54902%,6.27451%);fill-opacity:1;" d="M 63.25 39.542969 C 63.746094 39.585938 64.164062 39.421875 64.5 39.046875 C 65.703125 36.988281 66.621094 34.832031 67.25 32.582031 C 67.867188 32.546875 67.953125 33.375 67.5 35.066406 C 66.796875 37.472656 65.378906 39.296875 63.25 40.539062 C 62.769531 40.304688 62.769531 39.972656 63.25 39.542969 Z M 63.25 39.542969 "/>
<path style=" stroke:none;fill-rule:evenodd;fill:rgb(32.941176%,17.254902%,12.156863%);fill-opacity:1;" d="M 24.25 37.058594 C 24.570312 38.726562 23.902344 39.722656 22.25 40.042969 C 21.800781 38.179688 22.464844 37.1875 24.25 37.058594 Z M 24.25 37.058594 "/>
<path style=" stroke:none;fill-rule:evenodd;fill:rgb(21.568627%,19.215686%,19.215686%);fill-opacity:1;" d="M 26.75 35.066406 C 28.582031 35.066406 30.417969 35.066406 32.25 35.066406 C 32.25 37.554688 32.25 40.042969 32.25 42.527344 C 29.917969 42.527344 27.582031 42.527344 25.25 42.527344 C 25.6875 40.015625 26.1875 37.527344 26.75 35.066406 Z M 26.75 35.066406 "/>
<path style=" stroke:none;fill-rule:evenodd;fill:rgb(98.823529%,75.686275%,27.45098%);fill-opacity:1;" d="M 65.25 20.640625 C 66.992188 20.960938 68.242188 21.957031 69 23.625 C 69.996094 27.578125 71.246094 31.394531 72.75 35.066406 C 73.371094 35.800781 73.871094 36.628906 74.25 37.554688 C 73.355469 37.660156 72.523438 37.660156 71.75 37.554688 C 72.515625 38.183594 73.347656 38.679688 74.25 39.046875 C 74.207031 39.542969 74.375 39.957031 74.75 40.289062 C 73.988281 41.582031 73.574219 42.992188 73.5 44.519531 C 73.25 46.832031 73.167969 49.15625 73.25 51.480469 C 74.277344 51.414062 75.109375 51.746094 75.75 52.476562 C 76.082031 54.890625 75.582031 57.046875 74.25 58.941406 C 74.527344 58.03125 74.527344 57.203125 74.25 56.457031 C 73.375 57.703125 72.625 59.027344 72 60.433594 C 70.90625 64.136719 69.824219 67.785156 68.75 71.378906 C 68.253906 71.464844 67.921875 71.296875 67.75 70.878906 C 67.722656 70.328125 67.554688 69.832031 67.25 69.386719 C 68 67.914062 67.832031 66.589844 66.75 65.410156 C 66.582031 64.414062 66.417969 63.417969 66.25 62.425781 C 66.917969 62.425781 67.582031 62.425781 68.25 62.425781 C 68.25 61.925781 68.25 61.429688 68.25 60.933594 C 66.976562 56.765625 64.3125 54.03125 60.25 52.726562 C 56.253906 52.476562 52.253906 52.394531 48.25 52.476562 C 47.753906 49.253906 47.589844 45.9375 47.75 42.527344 C 51.085938 42.609375 54.421875 42.527344 57.75 42.28125 C 58.804688 42.101562 59.804688 41.769531 60.75 41.285156 C 61.125 40.953125 61.292969 40.535156 61.25 40.042969 C 61.421875 39.625 61.753906 39.457031 62.25 39.542969 C 62.582031 39.542969 62.917969 39.542969 63.25 39.542969 C 62.769531 39.972656 62.769531 40.304688 63.25 40.539062 C 65.378906 39.296875 66.796875 37.472656 67.5 35.066406 C 67.953125 33.375 67.867188 32.546875 67.25 32.582031 C 66.796875 32.226562 66.632812 31.730469 66.75 31.089844 C 66.75 28.933594 66.75 26.777344 66.75 24.621094 C 66.25 23.292969 65.75 21.964844 65.25 20.640625 Z M 65.25 20.640625 "/>
<path style=" stroke:none;fill-rule:evenodd;fill:rgb(99.607843%,80.392157%,42.745098%);fill-opacity:1;" d="M 37.25 36.558594 C 36.5 44.726562 36.664062 52.851562 37.75 60.933594 C 36.917969 60.933594 36.082031 60.933594 35.25 60.933594 C 34.53125 52.140625 34.613281 43.351562 35.5 34.570312 C 35.578125 33.066406 36.328125 32.238281 37.75 32.082031 C 37.816406 33.609375 37.648438 35.101562 37.25 36.558594 Z M 37.25 36.558594 "/>
<path style=" stroke:none;fill-rule:evenodd;fill:rgb(80.392157%,49.411765%,10.588235%);fill-opacity:1;" d="M 61.25 40.042969 C 61.292969 40.535156 61.125 40.953125 60.75 41.285156 C 59.804688 41.769531 58.804688 42.101562 57.75 42.28125 C 54.421875 42.527344 51.085938 42.609375 47.75 42.527344 C 47.589844 45.9375 47.753906 49.253906 48.25 52.476562 C 48.25 52.640625 48.25 52.808594 48.25 52.972656 C 47.75 52.972656 47.25 52.972656 46.75 52.972656 C 46.75 49.160156 46.75 45.347656 46.75 41.535156 C 51.667969 41.757812 56.503906 41.257812 61.25 40.042969 Z M 61.25 40.042969 "/>
<use xlink:href="#surface11" mask="url(#mask2)"/>
<path style=" stroke:none;fill-rule:evenodd;fill:rgb(92.156863%,65.882353%,22.745098%);fill-opacity:1;" d="M 78.75 38.050781 C 80.652344 37.882812 82.488281 38.132812 84.25 38.796875 C 85.796875 41.589844 84.878906 42.832031 81.5 42.527344 C 79.980469 42.597656 78.5625 42.265625 77.25 41.535156 C 76.691406 40.925781 76.609375 40.261719 77 39.542969 C 77.574219 38.980469 78.15625 38.480469 78.75 38.050781 Z M 78.75 38.050781 "/>
<path style=" stroke:none;fill-rule:evenodd;fill:rgb(92.156863%,61.176471%,20%);fill-opacity:1;" d="M 74.25 25.617188 C 81.667969 25.285156 85.085938 28.765625 84.5 36.0625 C 83.378906 36.398438 82.296875 36.148438 81.25 35.316406 C 79.761719 34.96875 78.261719 34.722656 76.75 34.570312 C 75.917969 31.585938 75.082031 28.601562 74.25 25.617188 Z M 74.25 25.617188 "/>
<path style=" stroke:none;fill-rule:evenodd;fill:rgb(87.45098%,70.980392%,36.470588%);fill-opacity:1;" d="M 60.25 32.582031 C 60.328125 31.898438 60.246094 31.234375 60 30.589844 C 59.808594 30.867188 59.558594 31.03125 59.25 31.089844 C 59.46875 28.582031 59.136719 26.179688 58.25 23.875 C 59.226562 23.984375 60.144531 24.402344 61 25.121094 C 60.921875 26.78125 60.671875 28.4375 60.25 30.09375 C 60.917969 30.09375 61.582031 30.09375 62.25 30.09375 C 62.328125 31.507812 61.660156 32.335938 60.25 32.582031 Z M 60.25 32.582031 "/>
<path style=" stroke:none;fill-rule:evenodd;fill:rgb(51.372549%,29.019608%,15.294118%);fill-opacity:1;" d="M 62.75 19.148438 C 63.707031 19.4375 64.539062 19.933594 65.25 20.640625 C 65.75 21.964844 66.25 23.292969 66.75 24.621094 C 66.34375 25.683594 66.09375 26.84375 66 28.105469 C 65.945312 25.789062 65.359375 23.632812 64.25 21.636719 C 64.46875 21.667969 64.636719 21.585938 64.75 21.386719 C 63.980469 20.707031 63.3125 19.960938 62.75 19.148438 Z M 62.75 19.148438 "/>
<path style=" stroke:none;fill-rule:evenodd;fill:rgb(83.921569%,55.686275%,19.215686%);fill-opacity:1;" d="M 50.25 15.667969 C 55.101562 15.542969 59.9375 15.707031 64.75 16.164062 C 65.082031 16.164062 65.25 16.332031 65.25 16.664062 C 63.089844 16.289062 60.925781 16.207031 58.75 16.414062 C 60.203125 17.214844 61.535156 18.125 62.75 19.148438 C 63.3125 19.960938 63.980469 20.707031 64.75 21.386719 C 64.636719 21.585938 64.46875 21.667969 64.25 21.636719 C 61.925781 19.238281 59.09375 17.746094 55.75 17.160156 C 53.84375 16.914062 52.011719 16.417969 50.25 15.667969 Z M 50.25 15.667969 "/>
<path style=" stroke:none;fill-rule:evenodd;fill:rgb(70.588235%,44.705882%,15.686275%);fill-opacity:1;" d="M 50.25 15.667969 C 52.011719 16.417969 53.84375 16.914062 55.75 17.160156 C 52.597656 16.804688 49.847656 17.632812 47.5 19.648438 C 46.589844 16.996094 47.503906 15.671875 50.25 15.667969 Z M 50.25 15.667969 "/>
<path style=" stroke:none;fill-rule:evenodd;fill:rgb(61.568627%,32.54902%,9.411765%);fill-opacity:1;" d="M 52.75 7.710938 C 53.753906 8.214844 54.421875 9.046875 54.75 10.195312 C 55.847656 10.828125 56.929688 10.828125 58 10.195312 C 58.632812 11.246094 59.546875 11.742188 60.75 11.6875 C 60.75 12.351562 60.75 13.015625 60.75 13.679688 C 56.574219 13.476562 52.410156 13.144531 48.25 12.683594 C 49.40625 10.707031 50.90625 9.046875 52.75 7.710938 Z M 52.75 7.710938 "/>
<path style=" stroke:none;fill-rule:evenodd;fill:rgb(47.058824%,25.098039%,15.686275%);fill-opacity:1;" d="M 23.25 11.6875 C 23.8125 11.363281 24.476562 11.195312 25.25 11.191406 C 26.167969 11.234375 26.832031 11.566406 27.25 12.1875 C 27.082031 12.1875 26.917969 12.1875 26.75 12.1875 C 25.695312 11.703125 24.53125 11.539062 23.25 11.6875 Z M 23.25 11.6875 "/>
<path style=" stroke:none;fill-rule:evenodd;fill:rgb(96.862745%,67.843137%,12.54902%);fill-opacity:1;" d="M 57.75 7.210938 C 61.539062 7.5 63.703125 9.492188 64.25 13.179688 C 63.195312 13.664062 62.03125 13.828125 60.75 13.679688 C 60.75 13.015625 60.75 12.351562 60.75 11.6875 C 59.742188 9.28125 57.910156 8.285156 55.25 8.703125 C 55.25 8.207031 55.25 7.710938 55.25 7.210938 C 56.082031 7.210938 56.917969 7.210938 57.75 7.210938 Z M 57.75 7.210938 "/>
<path style=" stroke:none;fill-rule:evenodd;fill:rgb(16.862745%,14.117647%,15.686275%);fill-opacity:1;" d="M 48.75 7.710938 C 47.765625 8.777344 46.847656 9.9375 46 11.191406 C 43.738281 16.519531 41.90625 21.992188 40.5 27.605469 C 38.863281 27.371094 37.28125 27.203125 35.75 27.109375 C 36.6875 22.722656 37.9375 18.410156 39.5 14.175781 C 42.359375 6.667969 47.773438 2.9375 55.75 2.984375 C 55.976562 3.191406 56.144531 3.4375 56.25 3.730469 C 54.476562 4.464844 52.644531 5.046875 50.75 5.472656 C 49.980469 6.152344 49.3125 6.898438 48.75 7.710938 Z M 48.75 7.710938 "/>
<path style=" stroke:none;fill-rule:evenodd;fill:rgb(76.862745%,45.882353%,8.627451%);fill-opacity:1;" d="M 55.25 6.714844 C 56.207031 6.574219 57.039062 6.738281 57.75 7.210938 C 56.917969 7.210938 56.082031 7.210938 55.25 7.210938 C 55.25 7.710938 55.25 8.207031 55.25 8.703125 C 57.910156 8.285156 59.742188 9.28125 60.75 11.6875 C 59.546875 11.742188 58.632812 11.246094 58 10.195312 C 56.929688 10.828125 55.847656 10.828125 54.75 10.195312 C 54.421875 9.046875 53.753906 8.214844 52.75 7.710938 C 53.582031 7.378906 54.417969 7.046875 55.25 6.714844 Z M 55.25 6.714844 "/>
<path style=" stroke:none;fill-rule:evenodd;fill:rgb(64.705882%,38.823529%,14.901961%);fill-opacity:1;" d="M 31.75 44.019531 C 28.386719 43.894531 25.054688 44.058594 21.75 44.519531 C 21.089844 44.601562 20.503906 44.4375 20 44.019531 C 19.75 46.335938 19.667969 48.65625 19.75 50.984375 C 19.257812 48.59375 19.089844 46.105469 19.25 43.523438 C 23.507812 43.359375 27.675781 43.527344 31.75 44.019531 Z M 31.75 44.019531 "/>
<path style=" stroke:none;fill-rule:evenodd;fill:rgb(7.058824%,3.529412%,1.960784%);fill-opacity:1;" d="M 67.25 43.027344 C 66.765625 46.027344 66.765625 49.011719 67.25 51.980469 C 66.292969 52.121094 65.460938 51.953125 64.75 51.480469 C 65.121094 51.546875 65.453125 51.464844 65.75 51.234375 C 64.339844 49.203125 62.503906 48.292969 60.25 48.496094 C 59.601562 47.675781 59.765625 46.929688 60.75 46.257812 C 62.65625 44.601562 64.824219 43.523438 67.25 43.027344 Z M 67.25 43.027344 "/>
<path style=" stroke:none;fill-rule:evenodd;fill:rgb(38.039216%,21.568627%,4.313725%);fill-opacity:1;" d="M 76.25 45.015625 C 76.417969 45.015625 76.582031 45.015625 76.75 45.015625 C 76.625 46.726562 76.792969 48.382812 77.25 49.988281 C 76.75 49.988281 76.25 49.988281 75.75 49.988281 C 76.160156 48.367188 76.328125 46.707031 76.25 45.015625 Z M 76.25 45.015625 "/>
<path style=" stroke:none;fill-rule:evenodd;fill:rgb(89.019608%,63.529412%,23.137255%);fill-opacity:1;" d="M 76.75 45.015625 C 79.253906 44.933594 81.753906 45.015625 84.25 45.265625 C 85.671875 46.886719 85.507812 48.292969 83.75 49.492188 C 81.617188 49.925781 79.449219 50.09375 77.25 49.988281 C 76.792969 48.382812 76.625 46.726562 76.75 45.015625 Z M 76.75 45.015625 "/>
<path style=" stroke:none;fill-rule:evenodd;fill:rgb(92.54902%,64.313725%,17.254902%);fill-opacity:1;" d="M 74.25 39.046875 C 74.75 39.378906 75.25 39.710938 75.75 40.042969 C 75.800781 41.394531 75.632812 42.71875 75.25 44.019531 C 75.375 44.625 75.707031 44.957031 76.25 45.015625 C 76.328125 46.707031 76.160156 48.367188 75.75 49.988281 C 75.75 50.820312 75.75 51.648438 75.75 52.476562 C 75.109375 51.746094 74.277344 51.414062 73.25 51.480469 C 73.167969 49.15625 73.25 46.832031 73.5 44.519531 C 73.574219 42.992188 73.988281 41.582031 74.75 40.289062 C 74.375 39.957031 74.207031 39.542969 74.25 39.046875 Z M 74.25 39.046875 "/>
<path style=" stroke:none;fill-rule:evenodd;fill:rgb(86.27451%,53.333333%,18.039216%);fill-opacity:1;" d="M 21.75 44.519531 C 22.667969 46.515625 23 48.667969 22.75 50.984375 C 21.75 50.984375 20.75 50.984375 19.75 50.984375 C 19.667969 48.65625 19.75 46.335938 20 44.019531 C 20.503906 44.4375 21.089844 44.601562 21.75 44.519531 Z M 21.75 44.519531 "/>
<path style=" stroke:none;fill-rule:evenodd;fill:rgb(66.27451%,45.882353%,20%);fill-opacity:1;" d="M 67.25 43.027344 C 67.558594 43.082031 67.808594 43.246094 68 43.523438 C 68.332031 46.175781 68.332031 48.828125 68 51.480469 C 67.808594 51.757812 67.558594 51.925781 67.25 51.980469 C 66.765625 49.011719 66.765625 46.027344 67.25 43.027344 Z M 67.25 43.027344 "/>
<path style=" stroke:none;fill-rule:evenodd;fill:rgb(96.078431%,65.098039%,21.960784%);fill-opacity:1;" d="M 31.75 44.019531 C 31.75 46.507812 31.75 48.996094 31.75 51.480469 C 28.71875 51.605469 25.71875 51.4375 22.75 50.984375 C 23 48.667969 22.667969 46.515625 21.75 44.519531 C 25.054688 44.058594 28.386719 43.894531 31.75 44.019531 Z M 31.75 44.019531 "/>
<path style=" stroke:none;fill-rule:evenodd;fill:rgb(81.176471%,62.352941%,36.470588%);fill-opacity:1;" d="M 64.75 51.480469 C 62.976562 50.875 61.476562 49.878906 60.25 48.496094 C 62.503906 48.292969 64.339844 49.203125 65.75 51.234375 C 65.453125 51.464844 65.121094 51.546875 64.75 51.480469 Z M 64.75 51.480469 "/>
<path style=" stroke:none;fill-rule:evenodd;fill:rgb(71.372549%,43.137255%,14.509804%);fill-opacity:1;" d="M 39.25 42.03125 C 39.203125 47.675781 39.371094 53.3125 39.75 58.941406 C 39.75 59.441406 39.75 59.9375 39.75 60.433594 C 39.039062 56.644531 38.707031 52.75 38.75 48.746094 C 38.75 46.417969 38.917969 44.179688 39.25 42.03125 Z M 39.25 42.03125 "/>
<path style=" stroke:none;fill-rule:evenodd;fill:rgb(69.019608%,29.411765%,10.196078%);fill-opacity:1;" d="M 43.25 38.050781 C 44.394531 41.941406 44.894531 45.921875 44.75 49.988281 C 44.816406 51.515625 44.648438 53.007812 44.25 54.464844 C 43.367188 56.394531 42.617188 58.382812 42 60.433594 C 40.40625 52.476562 40.40625 44.519531 42 36.558594 C 42.425781 37.09375 42.84375 37.589844 43.25 38.050781 Z M 43.25 38.050781 "/>
<path style=" stroke:none;fill-rule:evenodd;fill:rgb(90.588235%,51.372549%,14.117647%);fill-opacity:1;" d="M 38.75 34.570312 C 39.238281 35.789062 39.402344 37.113281 39.25 38.550781 C 39.25 39.710938 39.25 40.871094 39.25 42.03125 C 38.917969 44.179688 38.75 46.417969 38.75 48.746094 C 38.707031 52.75 39.039062 56.644531 39.75 60.433594 C 39.214844 60.898438 38.550781 61.066406 37.75 60.933594 C 36.664062 52.851562 36.5 44.726562 37.25 36.558594 C 37.65625 37.621094 37.90625 38.78125 38 40.042969 C 38.46875 38.242188 38.71875 36.421875 38.75 34.570312 Z M 38.75 34.570312 "/>
<path style=" stroke:none;fill-rule:evenodd;fill:rgb(18.431373%,16.470588%,16.470588%);fill-opacity:1;" d="M 24.75 52.972656 C 27.082031 52.972656 29.417969 52.972656 31.75 52.972656 C 32.164062 55.4375 32.332031 57.925781 32.25 60.433594 C 29.917969 60.433594 27.582031 60.433594 25.25 60.433594 C 25.292969 57.929688 25.128906 55.441406 24.75 52.972656 Z M 24.75 52.972656 "/>
<path style=" stroke:none;fill-rule:evenodd;fill:rgb(79.607843%,55.686275%,23.137255%);fill-opacity:1;" d="M 48.25 52.972656 C 48.25 52.808594 48.25 52.640625 48.25 52.476562 C 52.253906 52.394531 56.253906 52.476562 60.25 52.726562 C 64.3125 54.03125 66.976562 56.765625 68.25 60.933594 C 67.417969 62.257812 66.582031 62.257812 65.75 60.933594 C 65.476562 59.738281 65.058594 58.578125 64.5 57.449219 C 62.722656 55.851562 60.808594 54.441406 58.75 53.222656 C 55.253906 52.972656 51.753906 52.890625 48.25 52.972656 Z M 48.25 52.972656 "/>
<path style=" stroke:none;fill-rule:evenodd;fill:rgb(90.196078%,65.490196%,24.313725%);fill-opacity:1;" d="M 84.25 52.476562 C 84.558594 52.53125 84.808594 52.699219 85 52.972656 C 85.144531 55.238281 84.058594 56.566406 81.75 56.953125 C 80.117188 56.464844 78.453125 56.132812 76.75 55.957031 C 76.550781 54.691406 76.886719 53.617188 77.75 52.726562 C 79.910156 52.476562 82.078125 52.394531 84.25 52.476562 Z M 84.25 52.476562 "/>
<path style=" stroke:none;fill-rule:evenodd;fill:rgb(3.137255%,0.784314%,0.784314%);fill-opacity:1;" d="M 46.75 52.972656 C 47.25 52.972656 47.75 52.972656 48.25 52.972656 C 51.753906 52.890625 55.253906 52.972656 58.75 53.222656 C 60.808594 54.441406 62.722656 55.851562 64.5 57.449219 C 65.058594 58.578125 65.476562 59.738281 65.75 60.933594 C 65.320312 60.453125 64.984375 60.453125 64.75 60.933594 C 65.582031 64.226562 65.75 67.542969 65.25 70.878906 C 64.070312 73.714844 62.070312 75.703125 59.25 76.851562 C 58.917969 76.851562 58.582031 76.851562 58.25 76.851562 C 54.328125 77.894531 50.746094 77.230469 47.5 74.859375 C 47.101562 76.285156 47.183594 77.613281 47.75 78.839844 C 52.660156 79.332031 57.660156 79.5 62.75 79.335938 C 63.121094 79.273438 63.453125 79.355469 63.75 79.585938 C 62.214844 79.660156 60.796875 80.074219 59.5 80.828125 C 58.921875 80.296875 58.503906 80.464844 58.25 81.328125 C 55.25 81.328125 52.25 81.328125 49.25 81.328125 C 48.527344 80.773438 47.695312 80.691406 46.75 81.078125 C 47.289062 81.414062 47.621094 81.910156 47.75 82.570312 C 47.5625 83.339844 47.230469 83.921875 46.75 84.3125 C 45.109375 82.085938 43.945312 79.597656 43.25 76.851562 C 43.632812 77.183594 43.96875 77.597656 44.25 78.09375 C 47.023438 78.792969 47.523438 78.046875 45.75 75.855469 C 44.648438 72.714844 43.980469 69.484375 43.75 66.15625 C 44.023438 62.882812 44.523438 59.648438 45.25 56.457031 C 45.785156 56.082031 45.871094 55.585938 45.5 54.964844 C 45.332031 55.128906 45.167969 55.296875 45 55.460938 C 44.859375 55.003906 44.609375 54.675781 44.25 54.464844 C 44.648438 53.007812 44.816406 51.515625 44.75 49.988281 C 45.101562 47.230469 45.519531 44.414062 46 41.535156 C 46.085938 45.433594 46.335938 49.25 46.75 52.972656 Z M 46.75 52.972656 "/>
<path style=" stroke:none;fill-rule:evenodd;fill:rgb(61.176471%,46.27451%,29.411765%);fill-opacity:1;" d="M 51.75 56.953125 C 52.472656 56.398438 53.304688 56.316406 54.25 56.703125 C 53.429688 57.460938 52.597656 57.542969 51.75 56.953125 Z M 51.75 56.953125 "/>
<path style=" stroke:none;fill-rule:evenodd;fill:rgb(87.843137%,62.352941%,24.313725%);fill-opacity:1;" d="M 47.25 54.964844 C 50.839844 56.265625 51.007812 57.757812 47.75 59.441406 C 47.257812 57.984375 47.089844 56.492188 47.25 54.964844 Z M 47.25 54.964844 "/>
<path style=" stroke:none;fill-rule:evenodd;fill:rgb(10.196078%,4.705882%,2.352941%);fill-opacity:1;" d="M 83.75 49.492188 C 82.675781 50.226562 81.511719 50.890625 80.25 51.480469 C 81.652344 51.8125 82.984375 52.144531 84.25 52.476562 C 82.078125 52.394531 79.910156 52.476562 77.75 52.726562 C 76.886719 53.617188 76.550781 54.691406 76.75 55.957031 C 78.453125 56.132812 80.117188 56.464844 81.75 56.953125 C 82.054688 57.398438 82.222656 57.894531 82.25 58.445312 C 81.917969 58.777344 81.582031 59.109375 81.25 59.441406 C 79.761719 59.730469 78.261719 60.0625 76.75 60.433594 C 76.4375 60.890625 76.269531 61.390625 76.25 61.925781 C 75.128906 64.070312 74.460938 66.390625 74.25 68.890625 C 73.929688 66.390625 73.261719 66.304688 72.25 68.640625 C 72.453125 69.113281 72.785156 69.445312 73.25 69.636719 C 72.550781 69.839844 71.882812 70.089844 71.25 70.382812 C 71.25 70.21875 71.25 70.050781 71.25 69.886719 C 72.550781 66.332031 73.550781 62.683594 74.25 58.941406 C 75.582031 57.046875 76.082031 54.890625 75.75 52.476562 C 75.75 51.648438 75.75 50.820312 75.75 49.988281 C 76.25 49.988281 76.75 49.988281 77.25 49.988281 C 79.449219 50.09375 81.617188 49.925781 83.75 49.492188 Z M 83.75 49.492188 "/>
<path style=" stroke:none;fill-rule:evenodd;fill:rgb(83.921569%,63.921569%,32.54902%);fill-opacity:1;" d="M 61.75 61.925781 C 61.582031 61.925781 61.417969 61.925781 61.25 61.925781 C 61.21875 61.65625 61.054688 61.492188 60.75 61.429688 C 60.25 61.761719 59.75 62.09375 59.25 62.425781 C 58.5625 59.839844 57.0625 57.933594 54.75 56.703125 C 56.074219 56.457031 57.40625 56.375 58.75 56.457031 C 58.75 57.449219 58.75 58.445312 58.75 59.441406 C 60.96875 58.90625 61.96875 59.734375 61.75 61.925781 Z M 61.75 61.925781 "/>
<path style=" stroke:none;fill-rule:evenodd;fill:rgb(87.45098%,53.333333%,7.45098%);fill-opacity:1;" d="M 81.25 59.441406 C 81.058594 60.152344 80.558594 60.566406 79.75 60.683594 C 80.960938 61.433594 81.460938 62.511719 81.25 63.917969 C 80.210938 63.929688 79.292969 63.597656 78.5 62.921875 C 78.332031 63.089844 78.167969 63.253906 78 63.417969 C 77.421875 63.003906 76.839844 62.503906 76.25 61.925781 C 76.269531 61.390625 76.4375 60.890625 76.75 60.433594 C 78.261719 60.0625 79.761719 59.730469 81.25 59.441406 Z M 81.25 59.441406 "/>
<path style=" stroke:none;fill-rule:evenodd;fill:rgb(42.352941%,19.607843%,4.705882%);fill-opacity:1;" d="M 39.75 58.941406 C 40.226562 59.648438 40.390625 60.476562 40.25 61.429688 C 38.148438 61.585938 36.148438 61.421875 34.25 60.933594 C 34.582031 60.933594 34.917969 60.933594 35.25 60.933594 C 36.082031 60.933594 36.917969 60.933594 37.75 60.933594 C 38.550781 61.066406 39.214844 60.898438 39.75 60.433594 C 39.75 59.9375 39.75 59.441406 39.75 58.941406 Z M 39.75 58.941406 "/>
<path style=" stroke:none;fill-rule:evenodd;fill:rgb(95.686275%,65.098039%,34.117647%);fill-opacity:1;" d="M 4.25 34.570312 C 4.253906 35.832031 4.421875 37.074219 4.75 38.300781 C 4.574219 39.84375 4.324219 39.761719 4 38.050781 C 3.644531 40.222656 3.730469 42.378906 4.25 44.519531 C 3.574219 46.191406 3.242188 47.933594 3.25 49.742188 C 3.511719 51.832031 3.84375 53.90625 4.25 55.957031 C 6.582031 56.1875 8.914062 56.4375 11.25 56.703125 C 11.941406 57.542969 12.777344 58.121094 13.75 58.445312 C 14.300781 58.992188 14.382812 59.65625 14 60.433594 C 13.324219 61.394531 12.40625 62.058594 11.25 62.425781 C 11.671875 63.550781 12.339844 63.882812 13.25 63.417969 C 13.835938 65.574219 14.75 67.730469 16 69.886719 C 16.5 70.550781 17 70.550781 17.5 69.886719 C 17.960938 70.15625 18.378906 70.488281 18.75 70.878906 C 17.1875 71.285156 15.851562 72.03125 14.75 73.121094 C 15.433594 73.914062 15.933594 74.828125 16.25 75.855469 C 17.113281 76.109375 17.945312 76.441406 18.75 76.851562 C 18.511719 77.335938 18.179688 77.75 17.75 78.09375 C 18.882812 78.648438 20.050781 79.0625 21.25 79.335938 C 21.007812 77.902344 21.007812 76.578125 21.25 75.359375 C 21.164062 75.851562 21.332031 76.183594 21.75 76.351562 C 22.945312 78.5625 24.28125 80.71875 25.75 82.820312 C 18.792969 82.460938 13.375 79.3125 9.5 73.367188 C 2.546875 61.097656 0.796875 48.167969 4.25 34.570312 Z M 4.25 34.570312 "/>
<path style=" stroke:none;fill-rule:evenodd;fill:rgb(10.588235%,3.921569%,1.568627%);fill-opacity:1;" d="M 13.75 58.445312 C 13.324219 60.699219 11.90625 61.695312 9.5 61.429688 C 7.386719 61.582031 5.804688 60.753906 4.75 58.941406 C 4.917969 58.777344 5.082031 58.609375 5.25 58.445312 C 8.082031 59.738281 10.914062 59.738281 13.75 58.445312 Z M 13.75 58.445312 "/>
<path style=" stroke:none;fill-rule:evenodd;fill:rgb(40.784314%,32.54902%,25.098039%);fill-opacity:1;" d="M 61.25 61.925781 C 61.417969 61.925781 61.582031 61.925781 61.75 61.925781 C 62.308594 62.832031 62.558594 63.824219 62.5 64.910156 C 61.839844 64.023438 61.425781 63.027344 61.25 61.925781 Z M 61.25 61.925781 "/>
<path style=" stroke:none;fill-rule:evenodd;fill:rgb(96.470588%,67.058824%,20.784314%);fill-opacity:1;" d="M 82.25 58.445312 C 82.917969 58.445312 83.582031 58.445312 84.25 58.445312 C 84.300781 60.460938 84.136719 62.449219 83.75 64.414062 C 81.59375 67.890625 78.429688 69.382812 74.25 68.890625 C 74.460938 66.390625 75.128906 64.070312 76.25 61.925781 C 76.839844 62.503906 77.421875 63.003906 78 63.417969 C 78.167969 63.253906 78.332031 63.089844 78.5 62.921875 C 79.292969 63.597656 80.210938 63.929688 81.25 63.917969 C 81.460938 62.511719 80.960938 61.433594 79.75 60.683594 C 80.558594 60.566406 81.058594 60.152344 81.25 59.441406 C 81.582031 59.109375 81.917969 58.777344 82.25 58.445312 Z M 82.25 58.445312 "/>
<path style=" stroke:none;fill-rule:evenodd;fill:rgb(88.235294%,56.862745%,20.784314%);fill-opacity:1;" d="M 32.25 65.410156 C 30.917969 65.410156 29.582031 65.410156 28.25 65.410156 C 28.25 64.25 28.25 63.089844 28.25 61.925781 C 29.582031 61.925781 30.917969 61.925781 32.25 61.925781 C 32.25 63.089844 32.25 64.25 32.25 65.410156 Z M 32.25 65.410156 "/>
<path style=" stroke:none;fill-rule:evenodd;fill:rgb(93.72549%,64.313725%,12.941176%);fill-opacity:1;" d="M 74.25 58.941406 C 73.550781 62.683594 72.550781 66.332031 71.25 69.886719 C 70.464844 70.472656 70.050781 71.300781 70 72.375 C 69.832031 72.207031 69.667969 72.042969 69.5 71.875 C 69.007812 75.042969 68.757812 74.875 68.75 71.378906 C 69.824219 67.785156 70.90625 64.136719 72 60.433594 C 72.625 59.027344 73.375 57.703125 74.25 56.457031 C 74.527344 57.203125 74.527344 58.03125 74.25 58.941406 Z M 74.25 58.941406 "/>
<path style=" stroke:none;fill-rule:evenodd;fill:rgb(16.078431%,7.843137%,5.098039%);fill-opacity:1;" d="M 65.75 60.933594 C 66.582031 62.257812 67.417969 62.257812 68.25 60.933594 C 68.25 61.429688 68.25 61.925781 68.25 62.425781 C 67.582031 62.425781 66.917969 62.425781 66.25 62.425781 C 66.417969 63.417969 66.582031 64.414062 66.75 65.410156 C 66.742188 67.414062 66.242188 69.238281 65.25 70.878906 C 65.75 67.542969 65.582031 64.226562 64.75 60.933594 C 64.984375 60.453125 65.320312 60.453125 65.75 60.933594 Z M 65.75 60.933594 "/>
<path style=" stroke:none;fill-rule:evenodd;fill:rgb(45.098039%,26.27451%,13.333333%);fill-opacity:1;" d="M 45.25 56.457031 C 44.523438 59.648438 44.023438 62.882812 43.75 66.15625 C 43.980469 69.484375 44.648438 72.714844 45.75 75.855469 C 45.816406 76.222656 45.730469 76.554688 45.5 76.851562 C 42.011719 70.007812 41.925781 63.210938 45.25 56.457031 Z M 45.25 56.457031 "/>
<use xlink:href="#surface14" mask="url(#mask3)"/>
<path style=" stroke:none;fill-rule:evenodd;fill:rgb(17.254902%,14.509804%,16.470588%);fill-opacity:1;" d="M 43.25 76.851562 C 43.945312 79.597656 45.109375 82.085938 46.75 84.3125 C 48.996094 88.414062 52.496094 90.488281 57.25 90.527344 C 55.785156 92.179688 53.949219 92.84375 51.75 92.519531 C 45.011719 90.457031 40.597656 86.066406 38.5 79.335938 C 37.066406 75.101562 35.984375 70.792969 35.25 66.402344 C 35.671875 65.46875 35.835938 64.476562 35.75 63.417969 C 37.46875 63.464844 38.886719 64.128906 40 65.410156 C 40.550781 69.429688 41.632812 73.242188 43.25 76.851562 Z M 43.25 76.851562 "/>
<use xlink:href="#surface17" mask="url(#mask4)"/>
<path style=" stroke:none;fill-rule:evenodd;fill:rgb(79.607843%,52.156863%,21.960784%);fill-opacity:1;" d="M 58.25 76.851562 C 58.195312 77.15625 58.027344 77.40625 57.75 77.597656 C 54.347656 78.035156 51.011719 78.449219 47.75 78.839844 C 47.183594 77.613281 47.101562 76.285156 47.5 74.859375 C 50.746094 77.230469 54.328125 77.894531 58.25 76.851562 Z M 58.25 76.851562 "/>
<path style=" stroke:none;fill-rule:evenodd;fill:rgb(31.372549%,17.647059%,7.058824%);fill-opacity:1;" d="M 21.25 75.359375 C 24.417969 75.359375 27.582031 75.359375 30.75 75.359375 C 27.75 75.6875 24.75 76.019531 21.75 76.351562 C 21.332031 76.183594 21.164062 75.851562 21.25 75.359375 Z M 21.25 75.359375 "/>
<path style=" stroke:none;fill-rule:evenodd;fill:rgb(94.509804%,69.411765%,26.666667%);fill-opacity:1;" d="M 71.25 69.886719 C 71.25 70.050781 71.25 70.21875 71.25 70.382812 C 70.101562 75.003906 67.269531 77.988281 62.75 79.335938 C 57.660156 79.5 52.660156 79.332031 47.75 78.839844 C 51.011719 78.449219 54.347656 78.035156 57.75 77.597656 C 58.027344 77.40625 58.195312 77.15625 58.25 76.851562 C 58.582031 76.851562 58.917969 76.851562 59.25 76.851562 C 61.742188 77.097656 63.742188 76.269531 65.25 74.363281 C 66.210938 73.269531 67.046875 72.109375 67.75 70.878906 C 67.921875 71.296875 68.253906 71.464844 68.75 71.378906 C 68.757812 74.875 69.007812 75.042969 69.5 71.875 C 69.667969 72.042969 69.832031 72.207031 70 72.375 C 70.050781 71.300781 70.464844 70.472656 71.25 69.886719 Z M 71.25 69.886719 "/>
<path style=" stroke:none;fill-rule:evenodd;fill:rgb(17.647059%,15.686275%,17.254902%);fill-opacity:1;" d="M 30.25 67.398438 C 31.25 67.398438 32.25 67.398438 33.25 67.398438 C 34.09375 72.816406 35.59375 78.042969 37.75 83.066406 C 34.570312 84.039062 31.402344 84.039062 28.25 83.066406 C 27.082031 81.242188 25.917969 79.417969 24.75 77.597656 C 27.082031 77.429688 29.417969 77.265625 31.75 77.097656 C 32.3125 76.972656 32.8125 76.726562 33.25 76.351562 C 32.246094 73.363281 31.246094 70.378906 30.25 67.398438 Z M 30.25 67.398438 "/>
<path style=" stroke:none;fill-rule:evenodd;fill:rgb(24.705882%,10.980392%,4.313725%);fill-opacity:1;" d="M 67.25 69.386719 C 67.554688 69.832031 67.722656 70.328125 67.75 70.878906 C 67.046875 72.109375 66.210938 73.269531 65.25 74.363281 C 64.976562 74.332031 64.8125 74.167969 64.75 73.867188 C 65.492188 72.292969 66.328125 70.800781 67.25 69.386719 Z M 67.25 69.386719 "/>
<path style=" stroke:none;fill-rule:evenodd;fill:rgb(79.215686%,56.862745%,24.705882%);fill-opacity:1;" d="M 66.75 65.410156 C 67.832031 66.589844 68 67.914062 67.25 69.386719 C 66.328125 70.800781 65.492188 72.292969 64.75 73.867188 C 64.8125 74.167969 64.976562 74.332031 65.25 74.363281 C 63.742188 76.269531 61.742188 77.097656 59.25 76.851562 C 62.070312 75.703125 64.070312 73.714844 65.25 70.878906 C 66.242188 69.238281 66.742188 67.414062 66.75 65.410156 Z M 66.75 65.410156 "/>
<path style=" stroke:none;fill-rule:evenodd;fill:rgb(41.960784%,19.607843%,6.666667%);fill-opacity:1;" d="M 49.25 81.328125 C 52.25 81.328125 55.25 81.328125 58.25 81.328125 C 58.582031 81.328125 58.917969 81.328125 59.25 81.328125 C 59.25 81.492188 59.25 81.65625 59.25 81.824219 C 57.574219 81.742188 55.910156 81.824219 54.25 82.074219 C 53.71875 82.71875 53.136719 83.296875 52.5 83.8125 C 51.355469 83.257812 50.273438 82.59375 49.25 81.824219 C 48.851562 82.050781 48.683594 82.382812 48.75 82.820312 C 48.058594 82.097656 48.222656 81.601562 49.25 81.328125 Z M 49.25 81.328125 "/>
<path style=" stroke:none;fill-rule:evenodd;fill:rgb(59.607843%,30.980392%,9.411765%);fill-opacity:1;" d="M 59.25 81.824219 C 57.976562 82.570312 56.644531 83.316406 55.25 84.0625 C 53.503906 84.027344 52.003906 84.441406 50.75 85.304688 C 49.726562 84.769531 49.0625 83.941406 48.75 82.820312 C 48.683594 82.382812 48.851562 82.050781 49.25 81.824219 C 50.273438 82.59375 51.355469 83.257812 52.5 83.8125 C 53.136719 83.296875 53.71875 82.71875 54.25 82.074219 C 55.910156 81.824219 57.574219 81.742188 59.25 81.824219 Z M 59.25 81.824219 "/>
<use xlink:href="#surface20" mask="url(#mask5)"/>
<path style=" stroke:none;fill-rule:evenodd;fill:rgb(70.980392%,40.392157%,8.235294%);fill-opacity:1;" d="M 59.25 81.328125 C 59.917969 81.328125 60.582031 81.328125 61.25 81.328125 C 60.894531 81.777344 60.394531 81.941406 59.75 81.824219 C 59.851562 82.765625 59.519531 83.511719 58.75 84.0625 C 57.324219 84.703125 55.824219 84.953125 54.25 84.808594 C 54.164062 85.863281 54.328125 86.859375 54.75 87.792969 C 53.074219 87.460938 51.742188 86.628906 50.75 85.304688 C 52.003906 84.441406 53.503906 84.027344 55.25 84.0625 C 56.644531 83.316406 57.976562 82.570312 59.25 81.824219 C 59.25 81.65625 59.25 81.492188 59.25 81.328125 Z M 59.25 81.328125 "/>
<path style=" stroke:none;fill-rule:evenodd;fill:rgb(97.254902%,70.980392%,20.392157%);fill-opacity:1;" d="M 61.25 81.328125 C 62.082031 81.328125 62.917969 81.328125 63.75 81.328125 C 63.050781 86.484375 60.050781 88.640625 54.75 87.792969 C 54.328125 86.859375 54.164062 85.863281 54.25 84.808594 C 55.824219 84.953125 57.324219 84.703125 58.75 84.0625 C 59.519531 83.511719 59.851562 82.765625 59.75 81.824219 C 60.394531 81.941406 60.894531 81.777344 61.25 81.328125 Z M 61.25 81.328125 "/>
</g>
</svg>
