<?xml version="1.0" encoding="UTF-8"?>
<svg xmlns="http://www.w3.org/2000/svg" xmlns:xlink="http://www.w3.org/1999/xlink" width="px" height="px" viewBox="0 0 96 101" version="1.1">
<defs>
<filter id="alpha" filterUnits="objectBoundingBox" x="0%" y="0%" width="100%" height="100%">
  <feColorMatrix type="matrix" in="SourceGraphic" values="0 0 0 0 1 0 0 0 0 1 0 0 0 0 1 0 0 0 1 0"/>
</filter>
<mask id="mask0">
  <g filter="url(#alpha)">
<rect x="0" y="0" width="96" height="101" style="fill:rgb(0%,0%,0%);fill-opacity:0.992157;stroke:none;"/>
  </g>
</mask>
<clipPath id="clip1">
  <rect x="0" y="0" width="96" height="102"/>
</clipPath>
<g id="surface5" clip-path="url(#clip1)">
<path style=" stroke:none;fill-rule:evenodd;fill:rgb(4.705882%,3.137255%,3.921569%);fill-opacity:1;" d="M 36.941406 -0.25 C 39.789062 -0.25 42.640625 -0.25 45.488281 -0.25 C 48.441406 0.304688 51.125 1.558594 53.527344 3.515625 C 54.320312 4.386719 54.992188 5.308594 55.539062 6.28125 C 55.871094 7.28125 56.460938 8.117188 57.296875 8.792969 C 63.339844 4.972656 68.867188 5.644531 73.886719 10.804688 C 75.222656 12.972656 76.058594 15.316406 76.398438 17.839844 C 77.625 18.90625 78.878906 19.914062 80.167969 20.851562 C 81.210938 22.4375 82.132812 24.109375 82.933594 25.878906 C 85.011719 24.621094 87.273438 24.121094 89.71875 24.371094 C 90.21875 24.328125 90.636719 24.496094 90.972656 24.875 C 91.332031 27.503906 91.921875 30.015625 92.734375 32.410156 C 92.734375 32.746094 92.734375 33.082031 92.734375 33.414062 C 92.398438 33.917969 92.0625 34.421875 91.726562 34.921875 C 91.390625 34.753906 91.058594 34.585938 90.722656 34.421875 C 88.285156 33.4375 85.773438 33.4375 83.183594 34.421875 C 82.847656 35.929688 82.511719 37.433594 82.179688 38.941406 C 81.335938 38.746094 80.496094 38.496094 79.664062 38.1875 C 80.898438 37.261719 81.402344 36.003906 81.171875 34.421875 C 80.335938 34.421875 79.496094 34.421875 78.660156 34.421875 C 78.75 31.796875 79.082031 29.199219 79.664062 26.632812 C 79.53125 24.621094 78.695312 23.027344 77.152344 21.859375 C 76.453125 20.75 75.445312 19.996094 74.136719 19.597656 C 69.570312 18.0625 64.882812 17.476562 60.0625 17.839844 C 57.179688 17.535156 54.5 18.121094 52.019531 19.597656 C 51.101562 19.679688 50.179688 19.765625 49.257812 19.847656 C 42.253906 17.046875 36.558594 18.71875 32.167969 24.875 C 31.527344 27.714844 31.191406 30.5625 31.164062 33.414062 C 31.847656 32.148438 32.765625 31.144531 33.925781 30.402344 C 34.75 30.1875 35.421875 30.1875 35.9375 30.402344 C 35.601562 30.902344 35.265625 31.40625 34.933594 31.90625 C 32.757812 34.425781 30.746094 37.105469 28.902344 39.949219 C 29.824219 41.742188 31.164062 43.082031 32.921875 43.96875 C 31.75 43.96875 30.574219 43.96875 29.402344 43.96875 C 26.558594 43.222656 24.550781 41.464844 23.371094 38.691406 C 25.046875 37.6875 26.722656 36.679688 28.398438 35.675781 C 29.230469 34.949219 29.566406 34.03125 29.402344 32.914062 C 29.773438 32.304688 29.941406 31.636719 29.90625 30.902344 C 30.234375 30.339844 30.402344 29.667969 30.410156 28.894531 C 30.019531 27.46875 29.515625 26.128906 28.902344 24.875 C 28.902344 24.707031 28.902344 24.539062 28.902344 24.371094 C 32.097656 20.332031 36.117188 17.484375 40.964844 15.828125 C 42.839844 15.738281 44.683594 15.90625 46.492188 16.332031 C 48.238281 16.90625 50.082031 16.988281 52.019531 16.582031 C 55.109375 14.96875 55.863281 12.539062 54.28125 9.296875 C 49.050781 2.273438 42.433594 0.433594 34.429688 3.769531 C 33.984375 4.183594 33.816406 4.6875 33.925781 5.277344 C 33.71875 5.589844 33.382812 5.757812 32.921875 5.777344 C 31.234375 4.769531 29.390625 4.269531 27.394531 4.269531 C 23.777344 3.546875 20.257812 3.714844 16.835938 4.773438 C 15.632812 4.652344 14.628906 4.988281 13.820312 5.777344 C 12.402344 6.027344 11.230469 6.699219 10.304688 7.789062 C 9.011719 8.238281 8.007812 9.074219 7.289062 10.300781 C 8.539062 10.441406 9.878906 10.441406 11.308594 10.300781 C 12.054688 12.796875 11.71875 15.140625 10.304688 17.335938 C 8.792969 18.671875 7.789062 20.347656 7.289062 22.359375 C 6.804688 23.246094 6.636719 24.253906 6.785156 25.375 C 7.746094 25.234375 8.585938 25.398438 9.296875 25.878906 C 7.558594 28.179688 6.21875 30.691406 5.277344 33.414062 C 5.277344 33.582031 5.277344 33.75 5.277344 33.917969 C 3.621094 36.824219 2.78125 40.003906 2.765625 43.464844 C 2.347656 46.054688 2.097656 48.734375 2.011719 51.503906 C 1.824219 51.042969 1.570312 50.625 1.257812 50.25 C 1.722656 46.847656 1.722656 43.414062 1.257812 39.949219 C 2.058594 35.195312 3.566406 30.671875 5.78125 26.378906 C 5.269531 24.554688 5.1875 22.714844 5.527344 20.851562 C 7.066406 18.449219 8.324219 15.9375 9.296875 13.316406 C 7.957031 13.316406 6.617188 13.316406 5.277344 13.316406 C 5.15625 11.660156 5.574219 10.152344 6.535156 8.792969 C 7.726562 7.6875 8.816406 6.515625 9.800781 5.277344 C 11.496094 3.421875 13.671875 2.335938 16.335938 2.011719 C 21.359375 1.195312 26.386719 1.277344 31.414062 2.261719 C 33.335938 1.550781 35.179688 0.714844 36.941406 -0.25 Z M 36.941406 -0.25 "/>
</g>
<mask id="mask1">
  <g filter="url(#alpha)">
<rect x="0" y="0" width="96" height="101" style="fill:rgb(0%,0%,0%);fill-opacity:0.0196078;stroke:none;"/>
  </g>
</mask>
<clipPath id="clip2">
  <rect x="0" y="0" width="96" height="102"/>
</clipPath>
<g id="surface8" clip-path="url(#clip2)">
<path style=" stroke:none;fill-rule:evenodd;fill:rgb(14.509804%,20.784314%,26.27451%);fill-opacity:1;" d="M 80.167969 20.851562 C 78.878906 19.914062 77.625 18.90625 76.398438 17.839844 C 76.058594 15.316406 75.222656 12.972656 73.886719 10.804688 C 68.867188 5.644531 63.339844 4.972656 57.296875 8.792969 C 56.460938 8.117188 55.871094 7.28125 55.539062 6.28125 C 56.316406 6.382812 56.984375 6.71875 57.550781 7.285156 C 67.640625 3.328125 74.089844 6.507812 76.902344 16.832031 C 78.285156 17.960938 79.371094 19.300781 80.167969 20.851562 Z M 80.167969 20.851562 "/>
</g>
<mask id="mask2">
  <g filter="url(#alpha)">
<rect x="0" y="0" width="96" height="101" style="fill:rgb(0%,0%,0%);fill-opacity:0.0745098;stroke:none;"/>
  </g>
</mask>
<clipPath id="clip3">
  <rect x="0" y="0" width="96" height="102"/>
</clipPath>
<g id="surface11" clip-path="url(#clip3)">
<path style=" stroke:none;fill-rule:evenodd;fill:rgb(14.117647%,16.470588%,22.352941%);fill-opacity:1;" d="M 9.800781 5.277344 C 8.816406 6.515625 7.726562 7.6875 6.535156 8.792969 C 5.574219 10.152344 5.15625 11.660156 5.277344 13.316406 C 6.617188 13.316406 7.957031 13.316406 9.296875 13.316406 C 8.324219 15.9375 7.066406 18.449219 5.527344 20.851562 C 5.1875 22.714844 5.269531 24.554688 5.78125 26.378906 C 3.566406 30.671875 2.058594 35.195312 1.257812 39.949219 C 1.089844 39.949219 0.921875 39.949219 0.753906 39.949219 C 1.300781 35.203125 2.8125 30.765625 5.277344 26.632812 C 4.710938 24.582031 4.625 22.488281 5.027344 20.351562 C 6.105469 18.371094 7.027344 16.359375 7.789062 14.320312 C 5.144531 14.300781 4.222656 12.960938 5.027344 10.300781 C 5.664062 8.828125 6.503906 7.488281 7.539062 6.28125 C 8.207031 5.738281 8.960938 5.402344 9.800781 5.277344 Z M 9.800781 5.277344 "/>
</g>
<mask id="mask3">
  <g filter="url(#alpha)">
<rect x="0" y="0" width="96" height="101" style="fill:rgb(0%,0%,0%);fill-opacity:0.00784314;stroke:none;"/>
  </g>
</mask>
<clipPath id="clip4">
  <rect x="0" y="0" width="96" height="102"/>
</clipPath>
<g id="surface14" clip-path="url(#clip4)">
<path style=" stroke:none;fill-rule:evenodd;fill:rgb(14.901961%,21.176471%,26.27451%);fill-opacity:1;" d="M 80.167969 20.851562 C 81.425781 22.039062 82.683594 23.210938 83.9375 24.371094 C 85.941406 23.777344 87.871094 23.777344 89.71875 24.371094 C 87.273438 24.121094 85.011719 24.621094 82.933594 25.878906 C 82.132812 24.109375 81.210938 22.4375 80.167969 20.851562 Z M 80.167969 20.851562 "/>
</g>
<mask id="mask4">
  <g filter="url(#alpha)">
<rect x="0" y="0" width="96" height="101" style="fill:rgb(0%,0%,0%);fill-opacity:0.992157;stroke:none;"/>
  </g>
</mask>
<clipPath id="clip5">
  <rect x="0" y="0" width="96" height="102"/>
</clipPath>
<g id="surface17" clip-path="url(#clip5)">
<path style=" stroke:none;fill-rule:evenodd;fill:rgb(6.666667%,4.705882%,5.098039%);fill-opacity:1;" d="M 90.722656 34.421875 C 89.882812 34.421875 89.046875 34.421875 88.210938 34.421875 C 88.183594 37.125 89.441406 37.960938 91.980469 36.933594 C 92.269531 36.214844 92.1875 35.546875 91.726562 34.921875 C 92.0625 34.421875 92.398438 33.917969 92.734375 33.414062 C 93.855469 33.808594 94.359375 34.648438 94.242188 35.929688 C 94.152344 36.699219 93.988281 37.453125 93.738281 38.1875 C 94.449219 39.519531 94.785156 40.941406 94.742188 42.460938 C 94.679688 46.824219 94.679688 51.179688 94.742188 55.523438 C 94.742188 55.691406 94.742188 55.859375 94.742188 56.027344 C 93.996094 58.46875 93.578125 60.980469 93.488281 63.566406 C 92.894531 64.40625 92.140625 65.078125 91.226562 65.574219 C 90.972656 68.175781 90.46875 70.6875 89.71875 73.113281 C 87.414062 73.8125 85.234375 73.476562 83.183594 72.105469 C 83.027344 71.617188 82.691406 71.28125 82.179688 71.101562 C 81.289062 74.996094 79.109375 77.84375 75.644531 79.644531 C 74.691406 88.714844 69.664062 92.652344 60.566406 91.453125 C 59.550781 91.226562 58.628906 90.808594 57.800781 90.195312 C 53.597656 94.8125 48.320312 97.15625 41.96875 97.230469 C 41.730469 97.722656 41.394531 98.140625 40.964844 98.488281 C 38.574219 99.3125 36.226562 100.066406 33.925781 100.75 C 31.414062 100.75 28.902344 100.75 26.386719 100.75 C 22.25 98.875 19.152344 95.859375 17.089844 91.703125 C 12.207031 93.457031 8.101562 92.285156 4.773438 88.1875 C 4.054688 86.761719 3.71875 85.253906 3.769531 83.664062 C 6.449219 84.085938 8.292969 83.078125 9.296875 80.648438 C 8.1875 77.21875 7.601562 73.703125 7.539062 70.097656 C 6.367188 68.589844 5.195312 67.082031 4.019531 65.574219 C 1.019531 58.453125 -0.402344 51.082031 -0.25 43.464844 C -0.25 42.796875 -0.25 42.125 -0.25 41.457031 C 0.203125 41.058594 0.535156 40.554688 0.753906 39.949219 C 0.921875 39.949219 1.089844 39.949219 1.257812 39.949219 C 1.722656 43.414062 1.722656 46.847656 1.257812 50.25 C 1.570312 50.625 1.824219 51.042969 2.011719 51.503906 C 2.097656 48.734375 2.347656 46.054688 2.765625 43.464844 C 2.679688 46.820312 2.765625 50.167969 3.015625 53.515625 C 3.332031 56.214844 4.085938 58.726562 5.277344 61.050781 C 6.304688 64.277344 7.980469 67.125 10.304688 69.59375 C 10.113281 70.671875 9.945312 71.761719 9.800781 72.859375 C 10.820312 75.339844 11.492188 77.933594 11.8125 80.648438 C 11.96875 82.679688 11.296875 84.355469 9.800781 85.675781 C 8.699219 85.707031 7.691406 86.042969 6.785156 86.679688 C 9.980469 90.722656 13.667969 91.222656 17.84375 88.1875 C 19.503906 92.445312 22.351562 95.710938 26.386719 97.984375 C 28.054688 98.234375 29.730469 98.320312 31.414062 98.234375 C 39.425781 97.726562 39.761719 96.300781 32.417969 93.964844 C 30.855469 92.839844 29.851562 91.417969 29.402344 89.695312 C 30.609375 89.667969 31.785156 89.835938 32.921875 90.195312 C 32.835938 90.859375 33.003906 91.445312 33.425781 91.957031 C 37.117188 94.109375 40.972656 94.695312 44.984375 93.714844 C 45.320312 93.714844 45.65625 93.714844 45.988281 93.714844 C 49.988281 93.058594 53.171875 91.132812 55.539062 87.933594 C 55.113281 87.097656 54.609375 86.34375 54.03125 85.675781 C 53.546875 84.3125 52.875 83.058594 52.019531 81.90625 C 52.464844 81.222656 52.632812 80.46875 52.523438 79.644531 C 49.699219 79.214844 46.851562 79.046875 43.980469 79.140625 C 38.542969 80.121094 34.019531 78.613281 30.410156 74.621094 C 29.105469 70.796875 26.59375 68.453125 22.867188 67.585938 C 24.359375 65.257812 26.203125 63.246094 28.398438 61.554688 C 26.902344 60.972656 25.394531 60.46875 23.875 60.046875 C 24.457031 58.378906 25.628906 57.289062 27.394531 56.78125 C 29.394531 56.53125 31.40625 56.445312 33.425781 56.53125 C 36.550781 56.957031 39.566406 57.792969 42.472656 59.042969 C 42.804688 58.875 43.140625 58.707031 43.476562 58.539062 C 42.792969 57.691406 42.125 56.855469 41.464844 56.027344 C 41.894531 55.257812 41.894531 54.585938 41.464844 54.015625 C 40.246094 51.898438 38.570312 50.222656 36.441406 48.992188 C 35.433594 48.324219 34.429688 47.652344 33.425781 46.984375 C 32.238281 45.800781 30.898438 44.796875 29.402344 43.96875 C 30.574219 43.96875 31.75 43.96875 32.921875 43.96875 C 34.550781 44.589844 36.058594 45.425781 37.445312 46.480469 C 41.542969 49.660156 44.390625 53.679688 45.988281 58.539062 C 46.160156 59.875 45.824219 61.046875 44.984375 62.058594 C 43.40625 61.097656 41.730469 60.429688 39.957031 60.046875 C 38.566406 59.464844 37.058594 59.128906 35.433594 59.042969 C 33.183594 58.464844 30.835938 58.382812 28.398438 58.792969 C 30.253906 59.550781 32.097656 60.304688 33.925781 61.050781 C 35.542969 61.296875 35.710938 61.800781 34.429688 62.558594 C 33.980469 62.867188 33.480469 63.035156 32.921875 63.0625 C 30.09375 64.132812 29.171875 66.140625 30.15625 69.09375 C 30.886719 71.914062 32.480469 74.089844 34.933594 75.625 C 36.96875 77.132812 39.144531 77.46875 41.464844 76.628906 C 45.246094 77.453125 49.097656 77.875 53.027344 77.886719 C 57.441406 79.992188 61.964844 80.578125 66.597656 79.644531 C 70.125 79.363281 73.304688 78.191406 76.148438 76.125 C 77.878906 74.757812 79.050781 73 79.664062 70.851562 C 79.144531 68.710938 78.476562 66.617188 77.65625 64.570312 C 77.835938 64.226562 78.003906 63.890625 78.15625 63.566406 C 79.164062 63.566406 80.167969 63.566406 81.171875 63.566406 C 81.050781 62.578125 81.21875 61.65625 81.675781 60.800781 C 79.554688 59.363281 79.71875 58.609375 82.179688 58.539062 C 82.886719 55.292969 82.71875 52.027344 81.675781 48.742188 C 82.574219 46.75 83.078125 44.65625 83.183594 42.460938 C 83.113281 41.148438 82.777344 39.972656 82.179688 38.941406 C 82.511719 37.433594 82.847656 35.929688 83.183594 34.421875 C 85.773438 33.4375 88.285156 33.4375 90.722656 34.421875 Z M 90.722656 34.421875 "/>
</g>
<mask id="mask5">
  <g filter="url(#alpha)">
<rect x="0" y="0" width="96" height="101" style="fill:rgb(0%,0%,0%);fill-opacity:0.0470588;stroke:none;"/>
  </g>
</mask>
<clipPath id="clip6">
  <rect x="0" y="0" width="96" height="102"/>
</clipPath>
<g id="surface20" clip-path="url(#clip6)">
<path style=" stroke:none;fill-rule:evenodd;fill:rgb(15.294118%,19.607843%,24.705882%);fill-opacity:1;" d="M 92.734375 32.410156 C 94.246094 33.164062 95.082031 34.417969 95.246094 36.179688 C 94.898438 37.144531 94.730469 38.066406 94.742188 38.941406 C 94.964844 39.566406 95.300781 40.066406 95.75 40.449219 C 95.75 41.957031 95.75 43.464844 95.75 44.972656 C 95.078125 45.976562 95.078125 46.984375 95.75 47.988281 C 95.75 48.824219 95.75 49.664062 95.75 50.5 C 94.753906 52.113281 94.421875 53.789062 94.742188 55.523438 C 94.679688 51.179688 94.679688 46.824219 94.742188 42.460938 C 94.785156 40.941406 94.449219 39.519531 93.738281 38.1875 C 93.988281 37.453125 94.152344 36.699219 94.242188 35.929688 C 94.359375 34.648438 93.855469 33.808594 92.734375 33.414062 C 92.734375 33.082031 92.734375 32.746094 92.734375 32.410156 Z M 92.734375 32.410156 "/>
</g>
<mask id="mask6">
  <g filter="url(#alpha)">
<rect x="0" y="0" width="96" height="101" style="fill:rgb(0%,0%,0%);fill-opacity:0.00392157;stroke:none;"/>
  </g>
</mask>
<clipPath id="clip7">
  <rect x="0" y="0" width="96" height="102"/>
</clipPath>
<g id="surface23" clip-path="url(#clip7)">
<path style=" stroke:none;fill-rule:evenodd;fill:rgb(14.901961%,20%,24.313725%);fill-opacity:1;" d="M 94.742188 56.027344 C 95.140625 57.253906 94.972656 58.511719 94.242188 59.796875 C 94.984375 62.421875 94.230469 64.515625 91.980469 66.078125 C 91.644531 68.085938 91.308594 70.097656 90.972656 72.105469 C 90.765625 72.738281 90.34375 73.074219 89.71875 73.113281 C 90.46875 70.6875 90.972656 68.175781 91.226562 65.574219 C 92.140625 65.078125 92.894531 64.40625 93.488281 63.566406 C 93.578125 60.980469 93.996094 58.46875 94.742188 56.027344 Z M 94.742188 56.027344 "/>
</g>
<mask id="mask7">
  <g filter="url(#alpha)">
<rect x="0" y="0" width="96" height="101" style="fill:rgb(0%,0%,0%);fill-opacity:0.00784314;stroke:none;"/>
  </g>
</mask>
<clipPath id="clip8">
  <rect x="0" y="0" width="96" height="102"/>
</clipPath>
<g id="surface26" clip-path="url(#clip8)">
<path style=" stroke:none;fill-rule:evenodd;fill:rgb(13.333333%,18.823529%,23.921569%);fill-opacity:1;" d="M 83.183594 72.105469 C 82.070312 73.148438 81.316406 74.488281 80.921875 76.125 C 79.609375 78.035156 77.847656 79.210938 75.644531 79.644531 C 79.109375 77.84375 81.289062 74.996094 82.179688 71.101562 C 82.691406 71.28125 83.027344 71.617188 83.183594 72.105469 Z M 83.183594 72.105469 "/>
</g>
</defs>
<g id="surface1">
<use xlink:href="#surface5" mask="url(#mask0)"/>
<path style=" stroke:none;fill-rule:evenodd;fill:rgb(60%,9.411765%,17.254902%);fill-opacity:1;" d="M 27.394531 4.269531 C 28.359375 4.554688 29.195312 5.058594 29.90625 5.777344 C 25.605469 4.898438 21.25 4.566406 16.835938 4.773438 C 20.257812 3.714844 23.777344 3.546875 27.394531 4.269531 Z M 27.394531 4.269531 "/>
<path style=" stroke:none;fill-rule:evenodd;fill:rgb(74.901961%,0.392157%,15.294118%);fill-opacity:1;" d="M 46.492188 16.332031 C 44.683594 15.90625 42.839844 15.738281 40.964844 15.828125 C 37.445312 16.582031 33.929688 17.335938 30.410156 18.089844 C 29.304688 20 28.800781 22.09375 28.902344 24.371094 C 28.902344 24.539062 28.902344 24.707031 28.902344 24.875 C 27.996094 25.523438 27.160156 26.277344 26.386719 27.132812 C 24.101562 27.351562 21.925781 27.769531 19.851562 28.390625 C 18.847656 28.222656 17.84375 28.054688 16.835938 27.886719 C 16.757812 27.035156 16.839844 26.195312 17.089844 25.375 C 18.289062 24.179688 19.042969 22.757812 19.351562 21.105469 C 19.015625 20.769531 18.679688 20.433594 18.34375 20.097656 C 19.347656 19.015625 20.019531 17.757812 20.355469 16.332031 C 21.085938 13.445312 21.003906 10.597656 20.105469 7.789062 C 19.351562 7.035156 18.597656 6.28125 17.84375 5.527344 C 16.507812 5.441406 15.167969 5.523438 13.820312 5.777344 C 14.628906 4.988281 15.632812 4.652344 16.835938 4.773438 C 21.25 4.566406 25.605469 4.898438 29.90625 5.777344 C 31.234375 6.257812 32.574219 6.761719 33.925781 7.285156 C 34.28125 7.742188 34.785156 7.90625 35.433594 7.789062 C 35.433594 6.617188 35.433594 5.445312 35.433594 4.269531 C 37.324219 4.054688 39.082031 4.390625 40.710938 5.277344 C 40.734375 6.542969 40.3125 7.71875 39.457031 8.792969 C 43.753906 8.476562 47.191406 9.984375 49.757812 13.316406 C 50.007812 14.308594 50.09375 15.3125 50.011719 16.332031 C 48.835938 16.332031 47.664062 16.332031 46.492188 16.332031 Z M 46.492188 16.332031 "/>
<path style=" stroke:none;fill-rule:evenodd;fill:rgb(27.45098%,2.745098%,6.666667%);fill-opacity:1;" d="M 27.394531 4.269531 C 29.390625 4.269531 31.234375 4.769531 32.921875 5.777344 C 33.382812 5.757812 33.71875 5.589844 33.925781 5.277344 C 35.195312 6.03125 35.195312 6.699219 33.925781 7.285156 C 32.574219 6.761719 31.234375 6.257812 29.90625 5.777344 C 29.195312 5.058594 28.359375 4.554688 27.394531 4.269531 Z M 27.394531 4.269531 "/>
<use xlink:href="#surface8" mask="url(#mask1)"/>
<path style=" stroke:none;fill-rule:evenodd;fill:rgb(99.215686%,0%,16.078431%);fill-opacity:1;" d="M 20.355469 16.332031 C 18.28125 17.816406 16.273438 19.40625 14.324219 21.105469 C 12.796875 22.113281 11.125 22.53125 9.296875 22.359375 C 9.839844 20.734375 10.175781 19.058594 10.304688 17.335938 C 11.914062 16.292969 12.582031 14.785156 12.3125 12.8125 C 12.285156 11.738281 11.949219 10.902344 11.308594 10.300781 C 10.578125 9.898438 9.742188 9.648438 8.796875 9.546875 C 9.402344 9.023438 9.90625 8.4375 10.304688 7.789062 C 11.230469 6.699219 12.402344 6.027344 13.820312 5.777344 C 15.167969 5.523438 16.507812 5.441406 17.84375 5.527344 C 18.597656 6.28125 19.351562 7.035156 20.105469 7.789062 C 21.003906 10.597656 21.085938 13.445312 20.355469 16.332031 Z M 20.355469 16.332031 "/>
<path style=" stroke:none;fill-rule:evenodd;fill:rgb(75.686275%,16.470588%,20.392157%);fill-opacity:1;" d="M 10.304688 7.789062 C 9.90625 8.4375 9.402344 9.023438 8.796875 9.546875 C 9.742188 9.648438 10.578125 9.898438 11.308594 10.300781 C 9.878906 10.441406 8.539062 10.441406 7.289062 10.300781 C 8.007812 9.074219 9.011719 8.238281 10.304688 7.789062 Z M 10.304688 7.789062 "/>
<path style=" stroke:none;fill-rule:evenodd;fill:rgb(67.45098%,58.039216%,55.686275%);fill-opacity:1;" d="M 71.121094 11.808594 C 70.636719 11.757812 70.050781 11.925781 69.359375 12.3125 C 67.734375 11.738281 66.058594 11.402344 64.335938 11.304688 C 62.324219 11.605469 60.394531 12.109375 58.554688 12.8125 C 58.554688 11.976562 58.554688 11.136719 58.554688 10.300781 C 63.191406 7.277344 67.378906 7.78125 71.121094 11.808594 Z M 71.121094 11.808594 "/>
<path style=" stroke:none;fill-rule:evenodd;fill:rgb(43.529412%,3.137255%,11.764706%);fill-opacity:1;" d="M 46.492188 16.332031 C 47.664062 16.332031 48.835938 16.332031 50.011719 16.332031 C 50.09375 15.3125 50.007812 14.308594 49.757812 13.316406 C 47.191406 9.984375 43.753906 8.476562 39.457031 8.792969 C 40.3125 7.71875 40.734375 6.542969 40.710938 5.277344 C 39.082031 4.390625 37.324219 4.054688 35.433594 4.269531 C 35.433594 5.445312 35.433594 6.617188 35.433594 7.789062 C 34.785156 7.90625 34.28125 7.742188 33.925781 7.285156 C 35.195312 6.699219 35.195312 6.03125 33.925781 5.277344 C 33.816406 4.6875 33.984375 4.183594 34.429688 3.769531 C 42.433594 0.433594 49.050781 2.273438 54.28125 9.296875 C 55.863281 12.539062 55.109375 14.96875 52.019531 16.582031 C 50.082031 16.988281 48.238281 16.90625 46.492188 16.332031 Z M 46.492188 16.332031 "/>
<use xlink:href="#surface11" mask="url(#mask2)"/>
<path style=" stroke:none;fill-rule:evenodd;fill:rgb(40.784314%,32.54902%,31.764706%);fill-opacity:1;" d="M 58.554688 10.300781 C 58.554688 11.136719 58.554688 11.976562 58.554688 12.8125 C 60.394531 12.109375 62.324219 11.605469 64.335938 11.304688 C 66.058594 11.402344 67.734375 11.738281 69.359375 12.3125 C 70.050781 11.925781 70.636719 11.757812 71.121094 11.808594 C 72.355469 12.9375 72.691406 14.277344 72.125 15.828125 C 67.914062 14.667969 63.640625 14.5 59.308594 15.324219 C 58.722656 15.242188 58.136719 15.160156 57.550781 15.074219 C 57.867188 13.429688 58.203125 11.839844 58.554688 10.300781 Z M 58.554688 10.300781 "/>
<path style=" stroke:none;fill-rule:evenodd;fill:rgb(72.54902%,1.960784%,14.509804%);fill-opacity:1;" d="M 11.308594 10.300781 C 11.949219 10.902344 12.285156 11.738281 12.3125 12.8125 C 12.582031 14.785156 11.914062 16.292969 10.304688 17.335938 C 11.71875 15.140625 12.054688 12.796875 11.308594 10.300781 Z M 11.308594 10.300781 "/>
<path style=" stroke:none;fill-rule:evenodd;fill:rgb(49.019608%,6.666667%,11.372549%);fill-opacity:1;" d="M 40.964844 15.828125 C 36.117188 17.484375 32.097656 20.332031 28.902344 24.371094 C 28.800781 22.09375 29.304688 20 30.410156 18.089844 C 33.929688 17.335938 37.445312 16.582031 40.964844 15.828125 Z M 40.964844 15.828125 "/>
<use xlink:href="#surface14" mask="url(#mask3)"/>
<path style=" stroke:none;fill-rule:evenodd;fill:rgb(72.156863%,63.921569%,62.352941%);fill-opacity:1;" d="M 60.0625 17.839844 C 64.882812 17.476562 69.570312 18.0625 74.136719 19.597656 C 75.445312 19.996094 76.453125 20.75 77.152344 21.859375 C 76.878906 21.886719 76.710938 22.054688 76.648438 22.359375 C 77.984375 24.65625 78.316406 27 77.65625 29.394531 C 77.652344 26.214844 76.230469 23.871094 73.382812 22.359375 C 72.511719 22.476562 72.09375 22.980469 72.125 23.867188 C 72.757812 25.128906 72.757812 26.386719 72.125 27.636719 C 72.253906 28.269531 72.589844 28.773438 73.132812 29.144531 C 72.851562 29.335938 72.683594 29.585938 72.628906 29.898438 C 72.011719 29.492188 71.507812 28.992188 71.121094 28.390625 C 71.273438 27.171875 71.105469 26 70.617188 24.875 C 68.945312 23.742188 67.105469 22.988281 65.089844 22.613281 C 62.074219 22.277344 59.058594 22.277344 56.042969 22.613281 C 55.316406 22.800781 54.816406 23.21875 54.535156 23.867188 C 54.035156 23.824219 53.613281 23.992188 53.277344 24.371094 C 52.828125 27.953125 53.082031 31.46875 54.03125 34.921875 C 54.03125 35.257812 53.863281 35.425781 53.527344 35.425781 C 52.503906 33.601562 51.917969 31.589844 51.769531 29.394531 C 49.214844 26.234375 45.949219 24.644531 41.96875 24.621094 C 39.34375 25.992188 37.332031 27.917969 35.9375 30.402344 C 35.421875 30.1875 34.75 30.1875 33.925781 30.402344 C 33.375 29.847656 33.289062 29.175781 33.675781 28.390625 C 36.125 24.9375 39.222656 22.175781 42.972656 20.097656 C 44.574219 19.90625 46.082031 20.238281 47.496094 21.105469 C 52.316406 21.613281 56.839844 20.777344 61.066406 18.59375 C 60.609375 18.453125 60.273438 18.199219 60.0625 17.839844 Z M 60.0625 17.839844 "/>
<path style=" stroke:none;fill-rule:evenodd;fill:rgb(56.862745%,47.45098%,46.27451%);fill-opacity:1;" d="M 71.121094 28.390625 C 70.367188 26.96875 69.195312 26.128906 67.601562 25.878906 C 63.425781 24.167969 59.070312 23.496094 54.535156 23.867188 C 54.816406 23.21875 55.316406 22.800781 56.042969 22.613281 C 59.058594 22.277344 62.074219 22.277344 65.089844 22.613281 C 67.105469 22.988281 68.945312 23.742188 70.617188 24.875 C 71.105469 26 71.273438 27.171875 71.121094 28.390625 Z M 71.121094 28.390625 "/>
<path style=" stroke:none;fill-rule:evenodd;fill:rgb(3.137255%,1.960784%,1.960784%);fill-opacity:1;" d="M 54.535156 23.867188 C 59.070312 23.496094 63.425781 24.167969 67.601562 25.878906 C 68.46875 27.042969 68.804688 28.382812 68.605469 29.898438 C 70.535156 36.851562 67.855469 40.371094 60.566406 40.449219 C 57.3125 39.875 55.132812 38.035156 54.03125 34.921875 C 53.082031 31.46875 52.828125 27.953125 53.277344 24.371094 C 53.613281 23.992188 54.035156 23.824219 54.535156 23.867188 Z M 54.535156 23.867188 "/>
<path style=" stroke:none;fill-rule:evenodd;fill:rgb(31.372549%,5.490196%,9.019608%);fill-opacity:1;" d="M 7.289062 22.359375 C 7.289062 23.199219 7.289062 24.035156 7.289062 24.875 C 8.457031 25 9.464844 24.664062 10.304688 23.867188 C 10.753906 24.796875 10.417969 25.464844 9.296875 25.878906 C 8.585938 25.398438 7.746094 25.234375 6.785156 25.375 C 6.636719 24.253906 6.804688 23.246094 7.289062 22.359375 Z M 7.289062 22.359375 "/>
<path style=" stroke:none;fill-rule:evenodd;fill:rgb(84.313725%,0.392157%,15.294118%);fill-opacity:1;" d="M 20.355469 16.332031 C 20.019531 17.757812 19.347656 19.015625 18.34375 20.097656 C 18.679688 20.433594 19.015625 20.769531 19.351562 21.105469 C 19.042969 22.757812 18.289062 24.179688 17.089844 25.375 C 16.839844 26.195312 16.757812 27.035156 16.835938 27.886719 C 16.167969 27.886719 15.496094 27.886719 14.828125 27.886719 C 14.28125 31.3125 15.289062 34.160156 17.84375 36.429688 C 18.179688 37.269531 18.511719 38.105469 18.847656 38.941406 C 17.957031 38.257812 17.121094 37.503906 16.335938 36.679688 C 14.925781 36.195312 13.921875 36.613281 13.320312 37.9375 C 14.324219 39.503906 14.910156 41.179688 15.078125 42.960938 C 11.078125 39.625 8.816406 35.355469 8.292969 30.148438 C 8.125 30.066406 7.957031 29.980469 7.789062 29.898438 C 7.382812 30.863281 7.132812 31.871094 7.035156 32.914062 C 6.867188 32.746094 6.703125 32.578125 6.535156 32.410156 C 6.179688 32.851562 5.757812 33.1875 5.277344 33.414062 C 6.21875 30.691406 7.558594 28.179688 9.296875 25.878906 C 10.417969 25.464844 10.753906 24.796875 10.304688 23.867188 C 9.464844 24.664062 8.457031 25 7.289062 24.875 C 7.289062 24.035156 7.289062 23.199219 7.289062 22.359375 C 7.789062 20.347656 8.792969 18.671875 10.304688 17.335938 C 10.175781 19.058594 9.839844 20.734375 9.296875 22.359375 C 11.125 22.53125 12.796875 22.113281 14.324219 21.105469 C 16.273438 19.40625 18.28125 17.816406 20.355469 16.332031 Z M 20.355469 16.332031 "/>
<path style=" stroke:none;fill-rule:evenodd;fill:rgb(15.686275%,2.745098%,1.960784%);fill-opacity:1;" d="M 28.902344 24.875 C 29.515625 26.128906 30.019531 27.46875 30.410156 28.894531 C 30.402344 29.667969 30.234375 30.339844 29.90625 30.902344 C 30.058594 29.683594 29.894531 28.511719 29.402344 27.386719 C 26.460938 29.722656 23.277344 30.054688 19.851562 28.390625 C 21.925781 27.769531 24.101562 27.351562 26.386719 27.132812 C 27.160156 26.277344 27.996094 25.523438 28.902344 24.875 Z M 28.902344 24.875 "/>
<path style=" stroke:none;fill-rule:evenodd;fill:rgb(93.72549%,91.764706%,88.627451%);fill-opacity:1;" d="M 68.605469 29.898438 C 68.617188 34.792969 66.269531 36.386719 61.570312 34.671875 C 59.082031 32.886719 58.496094 30.625 59.8125 27.886719 C 63.289062 25.773438 66.21875 26.445312 68.605469 29.898438 Z M 68.605469 29.898438 "/>
<path style=" stroke:none;fill-rule:evenodd;fill:rgb(45.490196%,38.431373%,40.392157%);fill-opacity:1;" d="M 60.0625 17.839844 C 60.273438 18.199219 60.609375 18.453125 61.066406 18.59375 C 56.839844 20.777344 52.316406 21.613281 47.496094 21.105469 C 46.082031 20.238281 44.574219 19.90625 42.972656 20.097656 C 39.222656 22.175781 36.125 24.9375 33.675781 28.390625 C 33.289062 29.175781 33.375 29.847656 33.925781 30.402344 C 32.765625 31.144531 31.847656 32.148438 31.164062 33.414062 C 31.191406 30.5625 31.527344 27.714844 32.167969 24.875 C 36.558594 18.71875 42.253906 17.046875 49.257812 19.847656 C 50.179688 19.765625 51.101562 19.679688 52.019531 19.597656 C 54.5 18.121094 57.179688 17.535156 60.0625 17.839844 Z M 60.0625 17.839844 "/>
<path style=" stroke:none;fill-rule:evenodd;fill:rgb(80.392157%,72.941176%,67.058824%);fill-opacity:1;" d="M 87.707031 26.378906 C 88.195312 27.609375 88.363281 28.949219 88.210938 30.402344 C 86.480469 30.0625 85.140625 30.566406 84.1875 31.90625 C 83.351562 31.90625 82.511719 31.90625 81.675781 31.90625 C 81.453125 30.46875 81.785156 29.210938 82.679688 28.140625 C 84.242188 27.199219 85.917969 26.613281 87.707031 26.378906 Z M 87.707031 26.378906 "/>
<path style=" stroke:none;fill-rule:evenodd;fill:rgb(88.235294%,81.176471%,77.647059%);fill-opacity:1;" d="M 77.65625 29.394531 C 76.835938 30.382812 75.832031 31.050781 74.640625 31.40625 C 73.769531 31.140625 73.097656 30.640625 72.628906 29.898438 C 72.683594 29.585938 72.851562 29.335938 73.132812 29.144531 C 72.589844 28.773438 72.253906 28.269531 72.125 27.636719 C 72.757812 26.386719 72.757812 25.128906 72.125 23.867188 C 72.09375 22.980469 72.511719 22.476562 73.382812 22.359375 C 76.230469 23.871094 77.652344 26.214844 77.65625 29.394531 Z M 77.65625 29.394531 "/>
<path style=" stroke:none;fill-rule:evenodd;fill:rgb(96.078431%,0.392157%,17.254902%);fill-opacity:1;" d="M 29.90625 30.902344 C 29.941406 31.636719 29.773438 32.304688 29.402344 32.914062 C 26.476562 37.140625 22.625 38.3125 17.84375 36.429688 C 15.289062 34.160156 14.28125 31.3125 14.828125 27.886719 C 15.496094 27.886719 16.167969 27.886719 16.835938 27.886719 C 17.84375 28.054688 18.847656 28.222656 19.851562 28.390625 C 23.277344 30.054688 26.460938 29.722656 29.402344 27.386719 C 29.894531 28.511719 30.058594 29.683594 29.90625 30.902344 Z M 29.90625 30.902344 "/>
<path style=" stroke:none;fill-rule:evenodd;fill:rgb(44.705882%,38.431373%,35.294118%);fill-opacity:1;" d="M 87.707031 26.378906 C 87.738281 26.109375 87.90625 25.941406 88.210938 25.878906 C 88.84375 27.726562 88.84375 29.570312 88.210938 31.40625 C 86.910156 31.898438 85.570312 32.066406 84.1875 31.90625 C 85.140625 30.566406 86.480469 30.0625 88.210938 30.402344 C 88.363281 28.949219 88.195312 27.609375 87.707031 26.378906 Z M 87.707031 26.378906 "/>
<use xlink:href="#surface17" mask="url(#mask4)"/>
<path style=" stroke:none;fill-rule:evenodd;fill:rgb(98.039216%,0%,16.078431%);fill-opacity:1;" d="M 18.847656 38.941406 C 20.089844 40.601562 21.597656 42.027344 23.371094 43.214844 C 26.667969 44.570312 30.015625 45.828125 33.425781 46.984375 C 34.429688 47.652344 35.433594 48.324219 36.441406 48.992188 C 36.734375 49.628906 36.734375 50.132812 36.441406 50.5 C 31.226562 48.429688 25.863281 47.84375 20.355469 48.742188 C 25.019531 49.277344 29.542969 50.367188 33.925781 52.007812 C 33.925781 52.511719 33.925781 53.011719 33.925781 53.515625 C 34.457031 53.441406 34.957031 53.523438 35.433594 53.765625 C 34.597656 54.269531 33.757812 54.769531 32.921875 55.273438 C 30.484375 55.359375 28.136719 55.613281 25.886719 56.027344 C 22.40625 56.230469 19.726562 57.820312 17.84375 60.800781 C 19.269531 60.988281 20.691406 60.902344 22.113281 60.550781 C 23.664062 60.621094 25.089844 61.042969 26.386719 61.804688 C 23.113281 63.65625 20.601562 66.25 18.847656 69.59375 C 18.511719 69.59375 18.34375 69.761719 18.34375 70.097656 C 16.519531 70.640625 14.675781 70.640625 12.816406 70.097656 C 12.167969 70.214844 11.664062 70.046875 11.308594 69.59375 C 11.144531 67.058594 11.3125 64.546875 11.8125 62.058594 C 12.996094 61.179688 13.496094 60.007812 13.320312 58.539062 C 12.515625 58.675781 11.84375 58.507812 11.308594 58.039062 C 10.941406 57.429688 10.773438 56.761719 10.804688 56.027344 C 9.96875 56.027344 9.132812 56.027344 8.292969 56.027344 C 8.175781 53.90625 8.339844 51.8125 8.796875 49.746094 C 9.992188 48.832031 11.332031 48.160156 12.816406 47.734375 C 11.277344 47.203125 10.019531 46.28125 9.046875 44.972656 C 8.457031 43.449219 7.617188 42.109375 6.535156 40.953125 C 5.621094 41.769531 4.949219 42.773438 4.523438 43.96875 C 4.085938 40.542969 4.335938 37.195312 5.277344 33.917969 C 5.277344 33.75 5.277344 33.582031 5.277344 33.414062 C 5.757812 33.1875 6.179688 32.851562 6.535156 32.410156 C 6.703125 32.578125 6.867188 32.746094 7.035156 32.914062 C 7.132812 31.871094 7.382812 30.863281 7.789062 29.898438 C 7.957031 29.980469 8.125 30.066406 8.292969 30.148438 C 8.816406 35.355469 11.078125 39.625 15.078125 42.960938 C 14.910156 41.179688 14.324219 39.503906 13.320312 37.9375 C 13.921875 36.613281 14.925781 36.195312 16.335938 36.679688 C 17.121094 37.503906 17.957031 38.257812 18.847656 38.941406 Z M 18.847656 38.941406 "/>
<path style=" stroke:none;fill-rule:evenodd;fill:rgb(40.392157%,32.156863%,33.333333%);fill-opacity:1;" d="M 67.601562 25.878906 C 69.195312 26.128906 70.367188 26.96875 71.121094 28.390625 C 71.507812 28.992188 72.011719 29.492188 72.628906 29.898438 C 73.097656 30.640625 73.769531 31.140625 74.640625 31.40625 C 72.449219 35.019531 69.601562 38.121094 66.09375 40.703125 C 64.15625 41.109375 62.3125 41.023438 60.566406 40.449219 C 67.855469 40.371094 70.535156 36.851562 68.605469 29.898438 C 68.804688 28.382812 68.46875 27.042969 67.601562 25.878906 Z M 67.601562 25.878906 "/>
<path style=" stroke:none;fill-rule:evenodd;fill:rgb(81.960784%,73.72549%,70.980392%);fill-opacity:1;" d="M 83.183594 34.421875 C 84.523438 34.421875 85.863281 34.421875 87.203125 34.421875 C 87.203125 35.425781 87.203125 36.429688 87.203125 37.433594 C 85.863281 37.433594 84.523438 37.433594 83.183594 37.433594 C 83.183594 36.429688 83.183594 35.425781 83.183594 34.421875 Z M 83.183594 34.421875 "/>
<path style=" stroke:none;fill-rule:evenodd;fill:rgb(80.392157%,73.333333%,70.588235%);fill-opacity:1;" d="M 90.722656 34.421875 C 91.058594 34.585938 91.390625 34.753906 91.726562 34.921875 C 92.1875 35.546875 92.269531 36.214844 91.980469 36.933594 C 89.441406 37.960938 88.183594 37.125 88.210938 34.421875 C 89.046875 34.421875 89.882812 34.421875 90.722656 34.421875 Z M 90.722656 34.421875 "/>
<path style=" stroke:none;fill-rule:evenodd;fill:rgb(56.078431%,46.27451%,45.882353%);fill-opacity:1;" d="M 77.152344 21.859375 C 78.695312 23.027344 79.53125 24.621094 79.664062 26.632812 C 79.082031 29.199219 78.75 31.796875 78.660156 34.421875 C 76.542969 36.472656 75.371094 38.988281 75.140625 41.957031 C 74.152344 42.078125 73.230469 41.910156 72.378906 41.457031 C 72.210938 39.949219 72.042969 38.441406 71.875 36.933594 C 67.980469 40.996094 63.203125 43.175781 57.550781 43.464844 C 55.421875 41.21875 54.082031 38.539062 53.527344 35.425781 C 53.863281 35.425781 54.03125 35.257812 54.03125 34.921875 C 55.132812 38.035156 57.3125 39.875 60.566406 40.449219 C 62.3125 41.023438 64.15625 41.109375 66.09375 40.703125 C 69.601562 38.121094 72.449219 35.019531 74.640625 31.40625 C 75.832031 31.050781 76.835938 30.382812 77.65625 29.394531 C 78.316406 27 77.984375 24.65625 76.648438 22.359375 C 76.710938 22.054688 76.878906 21.886719 77.152344 21.859375 Z M 77.152344 21.859375 "/>
<path style=" stroke:none;fill-rule:evenodd;fill:rgb(7.843137%,11.372549%,12.941176%);fill-opacity:1;" d="M 37.949219 45.476562 C 32.886719 42.417969 32.214844 38.566406 35.9375 33.917969 C 39.351562 33.480469 41.027344 34.988281 40.964844 38.441406 C 41.800781 38.441406 42.640625 38.441406 43.476562 38.441406 C 43.394531 36.589844 43.476562 34.746094 43.726562 32.914062 C 47.277344 31.082031 49.792969 32.085938 51.265625 35.929688 C 52.171875 41.390625 49.910156 44.65625 44.480469 45.726562 C 42.289062 45.996094 40.113281 45.910156 37.949219 45.476562 Z M 37.949219 45.476562 "/>
<path style=" stroke:none;fill-rule:evenodd;fill:rgb(83.921569%,79.215686%,76.470588%);fill-opacity:1;" d="M 85.195312 39.445312 C 89.113281 38.894531 90.285156 40.488281 88.710938 44.21875 C 87.550781 44.46875 86.378906 44.550781 85.195312 44.46875 C 85.195312 42.796875 85.195312 41.121094 85.195312 39.445312 Z M 85.195312 39.445312 "/>
<path style=" stroke:none;fill-rule:evenodd;fill:rgb(41.960784%,65.490196%,70.980392%);fill-opacity:1;" d="M 45.988281 34.421875 C 48.066406 34.652344 49.070312 35.828125 49.003906 37.9375 C 49.03125 39.976562 48.195312 41.566406 46.492188 42.710938 C 42.972656 43.992188 39.707031 43.574219 36.691406 41.457031 C 35.546875 39.5625 35.796875 37.886719 37.445312 36.429688 C 38.136719 37.429688 38.636719 38.519531 38.953125 39.695312 C 44.480469 42.300781 46.824219 40.542969 45.988281 34.421875 Z M 45.988281 34.421875 "/>
<path style=" stroke:none;fill-rule:evenodd;fill:rgb(77.647059%,69.803922%,67.843137%);fill-opacity:1;" d="M 78.660156 34.421875 C 79.496094 34.421875 80.335938 34.421875 81.171875 34.421875 C 81.402344 36.003906 80.898438 37.261719 79.664062 38.1875 C 80.496094 38.496094 81.335938 38.746094 82.179688 38.941406 C 82.777344 39.972656 83.113281 41.148438 83.183594 42.460938 C 83.078125 44.65625 82.574219 46.75 81.675781 48.742188 C 82.71875 52.027344 82.886719 55.292969 82.179688 58.539062 C 80.804688 58.09375 79.800781 57.171875 79.164062 55.777344 C 77.503906 55.429688 75.996094 54.84375 74.640625 54.015625 C 79.824219 53.261719 79.988281 51.671875 75.140625 49.242188 C 76.148438 48.742188 77.152344 48.238281 78.15625 47.734375 C 78.847656 45.683594 78.09375 44.597656 75.894531 44.46875 C 74.285156 44.53125 72.859375 45.035156 71.621094 45.976562 C 71.277344 45.335938 70.859375 45.335938 70.367188 45.976562 C 69.523438 45.695312 68.855469 45.191406 68.355469 44.46875 C 64.523438 46.78125 63.179688 50.132812 64.335938 54.519531 C 65.546875 56.738281 67.140625 58.664062 69.109375 60.296875 C 68.996094 60.5 68.828125 60.582031 68.605469 60.550781 C 65.507812 57.472656 61.988281 56.886719 58.050781 58.792969 C 57.480469 59.367188 56.980469 59.953125 56.542969 60.550781 C 56.84375 58.140625 56.507812 55.964844 55.539062 54.015625 C 55.234375 53.570312 55.066406 53.066406 55.035156 52.511719 C 56.015625 51.269531 56.933594 49.929688 57.800781 48.488281 C 58.132812 46.789062 58.046875 45.113281 57.550781 43.464844 C 63.203125 43.175781 67.980469 40.996094 71.875 36.933594 C 72.042969 38.441406 72.210938 39.949219 72.378906 41.457031 C 73.230469 41.910156 74.152344 42.078125 75.140625 41.957031 C 75.371094 38.988281 76.542969 36.472656 78.660156 34.421875 Z M 78.660156 34.421875 "/>
<path style=" stroke:none;fill-rule:evenodd;fill:rgb(79.215686%,74.117647%,72.54902%);fill-opacity:1;" d="M 90.21875 39.445312 C 92.023438 39.507812 92.863281 40.425781 92.734375 42.207031 C 92.9375 44.097656 92.101562 44.851562 90.21875 44.46875 C 90.21875 42.796875 90.21875 41.121094 90.21875 39.445312 Z M 90.21875 39.445312 "/>
<path style=" stroke:none;fill-rule:evenodd;fill:rgb(88.235294%,1.176471%,14.901961%);fill-opacity:1;" d="M 5.277344 33.917969 C 4.335938 37.195312 4.085938 40.542969 4.523438 43.96875 C 4.949219 42.773438 5.621094 41.769531 6.535156 40.953125 C 7.617188 42.109375 8.457031 43.449219 9.046875 44.972656 C 10.019531 46.28125 11.277344 47.203125 12.816406 47.734375 C 11.332031 48.160156 9.992188 48.832031 8.796875 49.746094 C 8.339844 51.8125 8.175781 53.90625 8.292969 56.027344 C 9.132812 56.027344 9.96875 56.027344 10.804688 56.027344 C 10.773438 56.761719 10.941406 57.429688 11.308594 58.039062 C 10.675781 57.835938 10.089844 57.5 9.550781 57.03125 C 8.535156 57.300781 8.117188 57.96875 8.292969 59.042969 C 6.773438 58.84375 6.269531 59.347656 6.785156 60.550781 C 6.371094 60.996094 5.867188 61.164062 5.277344 61.050781 C 4.085938 58.726562 3.332031 56.214844 3.015625 53.515625 C 2.765625 50.167969 2.679688 46.820312 2.765625 43.464844 C 2.78125 40.003906 3.621094 36.824219 5.277344 33.917969 Z M 5.277344 33.917969 "/>
<path style=" stroke:none;fill-rule:evenodd;fill:rgb(45.882353%,49.019608%,51.764706%);fill-opacity:1;" d="M 34.933594 31.90625 C 34.796875 32.851562 35.132812 33.523438 35.9375 33.917969 C 32.214844 38.566406 32.886719 42.417969 37.949219 45.476562 C 37.78125 45.808594 37.613281 46.144531 37.445312 46.480469 C 36.058594 45.425781 34.550781 44.589844 32.921875 43.96875 C 31.164062 43.082031 29.824219 41.742188 28.902344 39.949219 C 30.746094 37.105469 32.757812 34.425781 34.933594 31.90625 Z M 34.933594 31.90625 "/>
<path style=" stroke:none;fill-rule:evenodd;fill:rgb(50.980392%,5.490196%,9.803922%);fill-opacity:1;" d="M 29.402344 32.914062 C 29.566406 34.03125 29.230469 34.949219 28.398438 35.675781 C 26.722656 36.679688 25.046875 37.6875 23.371094 38.691406 C 24.550781 41.464844 26.558594 43.222656 29.402344 43.96875 C 30.898438 44.796875 32.238281 45.800781 33.425781 46.984375 C 30.015625 45.828125 26.667969 44.570312 23.371094 43.214844 C 21.597656 42.027344 20.089844 40.601562 18.847656 38.941406 C 18.511719 38.105469 18.179688 37.269531 17.84375 36.429688 C 22.625 38.3125 26.476562 37.140625 29.402344 32.914062 Z M 29.402344 32.914062 "/>
<path style=" stroke:none;fill-rule:evenodd;fill:rgb(4.313725%,3.137255%,2.745098%);fill-opacity:1;" d="M 74.640625 54.015625 C 71.597656 53.507812 69.253906 52 67.601562 49.496094 C 68.519531 47.859375 69.859375 46.6875 71.621094 45.976562 C 72.859375 45.035156 74.285156 44.53125 75.894531 44.46875 C 78.09375 44.597656 78.847656 45.683594 78.15625 47.734375 C 77.152344 48.238281 76.148438 48.742188 75.140625 49.242188 C 79.988281 51.671875 79.824219 53.261719 74.640625 54.015625 Z M 74.640625 54.015625 "/>
<use xlink:href="#surface20" mask="url(#mask5)"/>
<path style=" stroke:none;fill-rule:evenodd;fill:rgb(82.745098%,77.254902%,74.117647%);fill-opacity:1;" d="M 53.527344 35.425781 C 54.082031 38.539062 55.421875 41.21875 57.550781 43.464844 C 58.046875 45.113281 58.132812 46.789062 57.800781 48.488281 C 56.933594 49.929688 56.015625 51.269531 55.035156 52.511719 C 54.007812 51.867188 53.003906 51.953125 52.019531 52.761719 C 49.746094 54.453125 47.734375 56.378906 45.988281 58.539062 C 44.390625 53.679688 41.542969 49.660156 37.445312 46.480469 C 37.613281 46.144531 37.78125 45.808594 37.949219 45.476562 C 40.113281 45.910156 42.289062 45.996094 44.480469 45.726562 C 49.910156 44.65625 52.171875 41.390625 51.265625 35.929688 C 49.792969 32.085938 47.277344 31.082031 43.726562 32.914062 C 43.476562 34.746094 43.394531 36.589844 43.476562 38.441406 C 42.640625 38.441406 41.800781 38.441406 40.964844 38.441406 C 41.027344 34.988281 39.351562 33.480469 35.9375 33.917969 C 35.132812 33.523438 34.796875 32.851562 34.933594 31.90625 C 35.265625 31.40625 35.601562 30.902344 35.9375 30.402344 C 37.332031 27.917969 39.34375 25.992188 41.96875 24.621094 C 45.949219 24.644531 49.214844 26.234375 51.769531 29.394531 C 51.917969 31.589844 52.503906 33.601562 53.527344 35.425781 Z M 53.527344 35.425781 "/>
<path style=" stroke:none;fill-rule:evenodd;fill:rgb(84.705882%,79.607843%,76.470588%);fill-opacity:1;" d="M 90.21875 46.480469 C 92.226562 46.140625 93.0625 46.976562 92.734375 48.992188 C 93.0625 51.007812 92.226562 51.84375 90.21875 51.503906 C 90.21875 49.828125 90.21875 48.15625 90.21875 46.480469 Z M 90.21875 46.480469 "/>
<path style=" stroke:none;fill-rule:evenodd;fill:rgb(52.156863%,3.137255%,9.803922%);fill-opacity:1;" d="M 36.441406 48.992188 C 38.570312 50.222656 40.246094 51.898438 41.464844 54.015625 C 39.527344 52.839844 37.515625 51.75 35.433594 50.75 C 32.929688 50.332031 32.761719 50.753906 34.933594 52.007812 C 34.597656 52.007812 34.261719 52.007812 33.925781 52.007812 C 29.542969 50.367188 25.019531 49.277344 20.355469 48.742188 C 25.863281 47.84375 31.226562 48.429688 36.441406 50.5 C 36.734375 50.132812 36.734375 49.628906 36.441406 48.992188 Z M 36.441406 48.992188 "/>
<path style=" stroke:none;fill-rule:evenodd;fill:rgb(84.705882%,80.392157%,76.078431%);fill-opacity:1;" d="M 84.1875 46.480469 C 88.628906 45.265625 90.136719 46.773438 88.710938 51.003906 C 84.171875 52.46875 82.664062 50.960938 84.1875 46.480469 Z M 84.1875 46.480469 "/>
<path style=" stroke:none;fill-rule:evenodd;fill:rgb(21.568627%,3.529412%,5.882353%);fill-opacity:1;" d="M 41.464844 54.015625 C 41.894531 54.585938 41.894531 55.257812 41.464844 56.027344 C 39.691406 55.015625 37.847656 54.09375 35.9375 53.265625 C 35.496094 52.90625 35.160156 52.488281 34.933594 52.007812 C 32.761719 50.753906 32.929688 50.332031 35.433594 50.75 C 37.515625 51.75 39.527344 52.839844 41.464844 54.015625 Z M 41.464844 54.015625 "/>
<path style=" stroke:none;fill-rule:evenodd;fill:rgb(85.490196%,78.431373%,74.901961%);fill-opacity:1;" d="M 71.621094 45.976562 C 69.859375 46.6875 68.519531 47.859375 67.601562 49.496094 C 69.253906 52 71.597656 53.507812 74.640625 54.015625 C 75.996094 54.84375 77.503906 55.429688 79.164062 55.777344 C 79.800781 57.171875 80.804688 58.09375 82.179688 58.539062 C 79.71875 58.609375 79.554688 59.363281 81.675781 60.800781 C 81.21875 61.65625 81.050781 62.578125 81.171875 63.566406 C 80.167969 63.566406 79.164062 63.566406 78.15625 63.566406 C 77.773438 61.328125 77.019531 59.148438 75.894531 57.03125 C 73.839844 55.515625 72.25 55.851562 71.121094 58.039062 C 71.960938 60.058594 72.796875 62.070312 73.632812 64.066406 C 73.445312 67.292969 72.273438 70.140625 70.113281 72.609375 C 70.71875 69.855469 70.71875 67.175781 70.113281 64.570312 C 69.894531 63.121094 69.390625 61.78125 68.605469 60.550781 C 68.828125 60.582031 68.996094 60.5 69.109375 60.296875 C 67.140625 58.664062 65.546875 56.738281 64.335938 54.519531 C 63.179688 50.132812 64.523438 46.78125 68.355469 44.46875 C 68.855469 45.191406 69.523438 45.695312 70.367188 45.976562 C 70.859375 45.335938 71.277344 45.335938 71.621094 45.976562 Z M 71.621094 45.976562 "/>
<path style=" stroke:none;fill-rule:evenodd;fill:rgb(79.215686%,74.117647%,71.372549%);fill-opacity:1;" d="M 84.691406 53.515625 C 86.03125 53.515625 87.371094 53.515625 88.710938 53.515625 C 88.792969 54.863281 88.710938 56.207031 88.460938 57.535156 C 87.289062 58.203125 86.113281 58.203125 84.941406 57.535156 C 84.691406 56.207031 84.609375 54.863281 84.691406 53.515625 Z M 84.691406 53.515625 "/>
<path style=" stroke:none;fill-rule:evenodd;fill:rgb(89.803922%,3.529412%,17.254902%);fill-opacity:1;" d="M 33.925781 52.007812 C 34.261719 52.007812 34.597656 52.007812 34.933594 52.007812 C 35.160156 52.488281 35.496094 52.90625 35.9375 53.265625 C 37.847656 54.09375 39.691406 55.015625 41.464844 56.027344 C 42.125 56.855469 42.792969 57.691406 43.476562 58.539062 C 43.140625 58.707031 42.804688 58.875 42.472656 59.042969 C 39.566406 57.792969 36.550781 56.957031 33.425781 56.53125 C 31.347656 56.035156 29.167969 55.867188 26.890625 56.027344 C 26.554688 56.027344 26.21875 56.027344 25.886719 56.027344 C 28.136719 55.613281 30.484375 55.359375 32.921875 55.273438 C 33.757812 54.769531 34.597656 54.269531 35.433594 53.765625 C 34.957031 53.523438 34.457031 53.441406 33.925781 53.515625 C 33.925781 53.011719 33.925781 52.511719 33.925781 52.007812 Z M 33.925781 52.007812 "/>
<path style=" stroke:none;fill-rule:evenodd;fill:rgb(79.215686%,74.509804%,72.941176%);fill-opacity:1;" d="M 90.21875 53.515625 C 91.773438 53.179688 92.609375 53.765625 92.734375 55.273438 C 92.75 57.351562 91.742188 58.269531 89.71875 58.039062 C 89.597656 56.476562 89.765625 54.96875 90.21875 53.515625 Z M 90.21875 53.515625 "/>
<path style=" stroke:none;fill-rule:evenodd;fill:rgb(45.098039%,0.784314%,9.803922%);fill-opacity:1;" d="M 26.890625 56.027344 C 29.167969 55.867188 31.347656 56.035156 33.425781 56.53125 C 31.40625 56.445312 29.394531 56.53125 27.394531 56.78125 C 25.628906 57.289062 24.457031 58.378906 23.875 60.046875 C 23.132812 60.179688 22.460938 60.011719 21.863281 59.542969 C 23.582031 58.3125 25.257812 57.140625 26.890625 56.027344 Z M 26.890625 56.027344 "/>
<path style=" stroke:none;fill-rule:evenodd;fill:rgb(3.921569%,2.745098%,2.745098%);fill-opacity:1;" d="M 68.605469 60.550781 C 69.390625 61.78125 69.894531 63.121094 70.113281 64.570312 C 70.535156 68.503906 69.027344 71.433594 65.589844 73.363281 C 63.84375 73.917969 62.167969 74.503906 60.566406 75.121094 C 58.050781 75.121094 55.539062 75.121094 53.027344 75.121094 C 52.445312 69.828125 53.621094 64.972656 56.542969 60.550781 C 56.980469 59.953125 57.480469 59.367188 58.050781 58.792969 C 61.988281 56.886719 65.507812 57.472656 68.605469 60.550781 Z M 68.605469 60.550781 "/>
<path style=" stroke:none;fill-rule:evenodd;fill:rgb(49.019608%,48.235294%,52.156863%);fill-opacity:1;" d="M 35.433594 59.042969 C 35.011719 59.757812 34.507812 60.429688 33.925781 61.050781 C 32.097656 60.304688 30.253906 59.550781 28.398438 58.792969 C 30.835938 58.382812 33.183594 58.464844 35.433594 59.042969 Z M 35.433594 59.042969 "/>
<path style=" stroke:none;fill-rule:evenodd;fill:rgb(67.843137%,59.215686%,57.254902%);fill-opacity:1;" d="M 78.15625 63.566406 C 78.003906 63.890625 77.835938 64.226562 77.65625 64.570312 C 78.476562 66.617188 79.144531 68.710938 79.664062 70.851562 C 79.050781 73 77.878906 74.757812 76.148438 76.125 C 75.636719 75.324219 75.890625 74.652344 76.902344 74.117188 C 77.367188 70.238281 76.277344 66.886719 73.632812 64.066406 C 72.796875 62.070312 71.960938 60.058594 71.121094 58.039062 C 72.25 55.851562 73.839844 55.515625 75.894531 57.03125 C 77.019531 59.148438 77.773438 61.328125 78.15625 63.566406 Z M 78.15625 63.566406 "/>
<path style=" stroke:none;fill-rule:evenodd;fill:rgb(74.509804%,70.196078%,68.627451%);fill-opacity:1;" d="M 88.210938 60.046875 C 89.382812 60.046875 90.554688 60.046875 91.726562 60.046875 C 91.910156 63.316406 90.652344 64.152344 87.957031 62.558594 C 87.636719 61.671875 87.71875 60.835938 88.210938 60.046875 Z M 88.210938 60.046875 "/>
<path style=" stroke:none;fill-rule:evenodd;fill:rgb(84.313725%,76.470588%,69.411765%);fill-opacity:1;" d="M 59.058594 61.050781 C 64.015625 60.546875 65.523438 62.472656 63.582031 66.832031 C 60.589844 67.429688 58.578125 66.34375 57.550781 63.566406 C 57.679688 62.464844 58.179688 61.625 59.058594 61.050781 Z M 59.058594 61.050781 "/>
<path style=" stroke:none;fill-rule:evenodd;fill:rgb(70.980392%,66.27451%,64.705882%);fill-opacity:1;" d="M 84.1875 60.046875 C 87.230469 59.765625 87.902344 60.855469 86.199219 63.3125 C 85.207031 63.5625 84.203125 63.644531 83.183594 63.566406 C 83.015625 62.214844 83.351562 61.042969 84.1875 60.046875 Z M 84.1875 60.046875 "/>
<path style=" stroke:none;fill-rule:evenodd;fill:rgb(79.607843%,0.784314%,14.509804%);fill-opacity:1;" d="M 11.308594 58.039062 C 11.84375 58.507812 12.515625 58.675781 13.320312 58.539062 C 13.496094 60.007812 12.996094 61.179688 11.8125 62.058594 C 11.3125 64.546875 11.144531 67.058594 11.308594 69.59375 C 10.972656 69.59375 10.640625 69.59375 10.304688 69.59375 C 7.980469 67.125 6.304688 64.277344 5.277344 61.050781 C 5.867188 61.164062 6.371094 60.996094 6.785156 60.550781 C 6.269531 59.347656 6.773438 58.84375 8.292969 59.042969 C 8.117188 57.96875 8.535156 57.300781 9.550781 57.03125 C 10.089844 57.5 10.675781 57.835938 11.308594 58.039062 Z M 11.308594 58.039062 "/>
<path style=" stroke:none;fill-rule:evenodd;fill:rgb(60.392157%,1.176471%,10.588235%);fill-opacity:1;" d="M 25.886719 56.027344 C 26.21875 56.027344 26.554688 56.027344 26.890625 56.027344 C 25.257812 57.140625 23.582031 58.3125 21.863281 59.542969 C 22.460938 60.011719 23.132812 60.179688 23.875 60.046875 C 25.394531 60.46875 26.902344 60.972656 28.398438 61.554688 C 26.203125 63.246094 24.359375 65.257812 22.867188 67.585938 C 21.574219 68.351562 20.234375 69.019531 18.847656 69.59375 C 20.601562 66.25 23.113281 63.65625 26.386719 61.804688 C 25.089844 61.042969 23.664062 60.621094 22.113281 60.550781 C 20.691406 60.902344 19.269531 60.988281 17.84375 60.800781 C 19.726562 57.820312 22.40625 56.230469 25.886719 56.027344 Z M 25.886719 56.027344 "/>
<path style=" stroke:none;fill-rule:evenodd;fill:rgb(94.509804%,87.843137%,83.921569%);fill-opacity:1;" d="M 55.035156 52.511719 C 55.066406 53.066406 55.234375 53.570312 55.539062 54.015625 C 54.859375 58.71875 53.6875 63.242188 52.019531 67.585938 C 52.097656 67.054688 52.011719 66.554688 51.769531 66.078125 C 51.433594 69.425781 51.101562 69.425781 50.765625 66.078125 C 50.597656 66.246094 50.429688 66.414062 50.261719 66.578125 C 49.914062 66.148438 49.496094 65.8125 49.003906 65.574219 C 47.582031 66.734375 46.160156 67.90625 44.734375 69.09375 C 43.605469 68.824219 42.6875 68.234375 41.96875 67.332031 C 40.214844 66.53125 38.453125 66.445312 36.691406 67.082031 C 36.441406 67.902344 36.359375 68.742188 36.441406 69.59375 C 35.863281 67.847656 35.78125 66.003906 36.1875 64.066406 C 37.835938 62.769531 39.09375 61.429688 39.957031 60.046875 C 41.730469 60.429688 43.40625 61.097656 44.984375 62.058594 C 45.824219 61.046875 46.160156 59.875 45.988281 58.539062 C 47.734375 56.378906 49.746094 54.453125 52.019531 52.761719 C 53.003906 51.953125 54.007812 51.867188 55.035156 52.511719 Z M 55.035156 52.511719 "/>
<use xlink:href="#surface23" mask="url(#mask6)"/>
<path style=" stroke:none;fill-rule:evenodd;fill:rgb(76.470588%,70.196078%,67.058824%);fill-opacity:1;" d="M 81.171875 65.574219 C 83.6875 65.574219 86.199219 65.574219 88.710938 65.574219 C 88.796875 67.257812 88.710938 68.933594 88.460938 70.597656 C 88.179688 70.863281 87.84375 71.027344 87.457031 71.101562 C 85.609375 70.554688 83.851562 69.800781 82.179688 68.839844 C 81.589844 67.832031 81.253906 66.742188 81.171875 65.574219 Z M 81.171875 65.574219 "/>
<path style=" stroke:none;fill-rule:evenodd;fill:rgb(80%,0%,14.117647%);fill-opacity:1;" d="M 12.816406 70.097656 C 14.675781 70.640625 16.519531 70.640625 18.34375 70.097656 C 20.804688 71.074219 23.488281 71.410156 26.386719 71.101562 C 26.289062 72.144531 26.203125 73.148438 26.136719 74.117188 C 28.113281 73.652344 29.199219 74.492188 29.402344 76.628906 C 32.101562 77.308594 34.445312 78.648438 36.441406 80.648438 C 37.445312 81.066406 38.449219 81.488281 39.457031 81.90625 C 39.121094 82.074219 38.785156 82.242188 38.449219 82.40625 C 39.648438 82.230469 40.820312 82.316406 41.96875 82.660156 C 41.375 83.511719 41.375 84.351562 41.96875 85.171875 C 43.089844 85.710938 44.261719 86.046875 45.488281 86.175781 C 45.6875 87.777344 46.1875 89.285156 46.996094 90.699219 C 46.335938 91.714844 46.667969 92.300781 48 92.457031 C 47.027344 92.519531 46.355469 92.9375 45.988281 93.714844 C 45.65625 93.714844 45.320312 93.714844 44.984375 93.714844 C 45.175781 91.375 44.675781 89.199219 43.476562 87.179688 C 42.464844 86.34375 41.292969 86.007812 39.957031 86.175781 C 39.851562 85.351562 40.019531 84.597656 40.460938 83.914062 C 39.085938 83.074219 37.742188 83.242188 36.441406 84.417969 C 35.601562 84.753906 34.765625 84.753906 33.925781 84.417969 C 34.382812 83.5625 34.550781 82.644531 34.429688 81.652344 C 31.558594 81.957031 28.710938 81.957031 25.886719 81.652344 C 25.625 80.789062 25.289062 79.949219 24.878906 79.140625 C 23.011719 78.632812 21.167969 78.046875 19.351562 77.382812 C 17.425781 75.792969 15.496094 74.199219 13.570312 72.609375 C 13.691406 75.605469 13.773438 78.621094 13.820312 81.652344 C 13.488281 81.988281 13.152344 82.324219 12.816406 82.660156 C 12.871094 78.394531 12.871094 74.207031 12.816406 70.097656 Z M 12.816406 70.097656 "/>
<path style=" stroke:none;fill-rule:evenodd;fill:rgb(56.078431%,49.411765%,52.941176%);fill-opacity:1;" d="M 32.921875 63.0625 C 32.675781 66.675781 33.09375 70.191406 34.179688 73.613281 C 35.1875 74.148438 35.441406 74.820312 34.933594 75.625 C 32.480469 74.089844 30.886719 71.914062 30.15625 69.09375 C 29.171875 66.140625 30.09375 64.132812 32.921875 63.0625 Z M 32.921875 63.0625 "/>
<path style=" stroke:none;fill-rule:evenodd;fill:rgb(43.921569%,4.705882%,9.019608%);fill-opacity:1;" d="M 22.867188 67.585938 C 26.59375 68.453125 29.105469 70.796875 30.410156 74.621094 C 28.742188 73.960938 27.570312 72.789062 26.890625 71.101562 C 24.011719 70.917969 21.328125 70.414062 18.847656 69.59375 C 20.234375 69.019531 21.574219 68.351562 22.867188 67.585938 Z M 22.867188 67.585938 "/>
<path style=" stroke:none;fill-rule:evenodd;fill:rgb(97.254902%,90.196078%,85.882353%);fill-opacity:1;" d="M 73.632812 64.066406 C 76.277344 66.886719 77.367188 70.238281 76.902344 74.117188 C 75.890625 74.652344 75.636719 75.324219 76.148438 76.125 C 73.304688 78.191406 70.125 79.363281 66.597656 79.644531 C 64.394531 79.808594 62.214844 79.640625 60.0625 79.140625 C 59.558594 78.722656 59.058594 78.304688 58.554688 77.886719 C 60.792969 77.582031 62.804688 76.828125 64.585938 75.625 C 66.675781 75.035156 68.519531 74.03125 70.113281 72.609375 C 72.273438 70.140625 73.445312 67.292969 73.632812 64.066406 Z M 73.632812 64.066406 "/>
<path style=" stroke:none;fill-rule:evenodd;fill:rgb(71.764706%,61.568627%,63.921569%);fill-opacity:1;" d="M 34.429688 62.558594 C 34.347656 65.746094 34.429688 68.929688 34.679688 72.105469 C 36.359375 74.546875 38.621094 76.054688 41.464844 76.628906 C 39.144531 77.46875 36.96875 77.132812 34.933594 75.625 C 35.441406 74.820312 35.1875 74.148438 34.179688 73.613281 C 33.09375 70.191406 32.675781 66.675781 32.921875 63.0625 C 33.480469 63.035156 33.980469 62.867188 34.429688 62.558594 Z M 34.429688 62.558594 "/>
<path style=" stroke:none;fill-rule:evenodd;fill:rgb(67.843137%,60%,56.862745%);fill-opacity:1;" d="M 70.113281 64.570312 C 70.71875 67.175781 70.71875 69.855469 70.113281 72.609375 C 68.519531 74.03125 66.675781 75.035156 64.585938 75.625 C 63.136719 75.777344 61.796875 75.609375 60.566406 75.121094 C 62.167969 74.503906 63.84375 73.917969 65.589844 73.363281 C 69.027344 71.433594 70.535156 68.503906 70.113281 64.570312 Z M 70.113281 64.570312 "/>
<path style=" stroke:none;fill-rule:evenodd;fill:rgb(98.039216%,0%,16.078431%);fill-opacity:1;" d="M 44.984375 93.714844 C 40.394531 94.359375 36.375 93.1875 32.921875 90.195312 C 32.683594 89.488281 32.179688 89.15625 31.414062 89.191406 C 26.992188 86.898438 22.46875 84.722656 17.84375 82.660156 C 17.355469 84.652344 16.9375 86.664062 16.585938 88.6875 C 14.992188 87.71875 13.734375 86.378906 12.816406 84.667969 C 13.445312 83.753906 13.777344 82.75 13.820312 81.652344 C 13.773438 78.621094 13.691406 75.605469 13.570312 72.609375 C 15.496094 74.199219 17.425781 75.792969 19.351562 77.382812 C 21.167969 78.046875 23.011719 78.632812 24.878906 79.140625 C 25.289062 79.949219 25.625 80.789062 25.886719 81.652344 C 28.710938 81.957031 31.558594 81.957031 34.429688 81.652344 C 34.550781 82.644531 34.382812 83.5625 33.925781 84.417969 C 34.765625 84.753906 35.601562 84.753906 36.441406 84.417969 C 37.742188 83.242188 39.085938 83.074219 40.460938 83.914062 C 40.019531 84.597656 39.851562 85.351562 39.957031 86.175781 C 41.292969 86.007812 42.464844 86.34375 43.476562 87.179688 C 44.675781 89.199219 45.175781 91.375 44.984375 93.714844 Z M 44.984375 93.714844 "/>
<use xlink:href="#surface26" mask="url(#mask7)"/>
<path style=" stroke:none;fill-rule:evenodd;fill:rgb(67.058824%,1.176471%,11.372549%);fill-opacity:1;" d="M 10.304688 69.59375 C 10.640625 69.59375 10.972656 69.59375 11.308594 69.59375 C 11.664062 70.046875 12.167969 70.214844 12.816406 70.097656 C 12.871094 74.207031 12.871094 78.394531 12.816406 82.660156 C 12.253906 84.136719 11.246094 85.140625 9.800781 85.675781 C 11.296875 84.355469 11.96875 82.679688 11.8125 80.648438 C 11.492188 77.933594 10.820312 75.339844 9.800781 72.859375 C 9.945312 71.761719 10.113281 70.671875 10.304688 69.59375 Z M 10.304688 69.59375 "/>
<path style=" stroke:none;fill-rule:evenodd;fill:rgb(89.019608%,81.176471%,78.823529%);fill-opacity:1;" d="M 55.539062 54.015625 C 56.507812 55.964844 56.84375 58.140625 56.542969 60.550781 C 53.621094 64.972656 52.445312 69.828125 53.027344 75.121094 C 55.539062 75.121094 58.050781 75.121094 60.566406 75.121094 C 61.796875 75.609375 63.136719 75.777344 64.585938 75.625 C 62.804688 76.828125 60.792969 77.582031 58.554688 77.886719 C 59.058594 78.304688 59.558594 78.722656 60.0625 79.140625 C 62.214844 79.640625 64.394531 79.808594 66.597656 79.644531 C 61.964844 80.578125 57.441406 79.992188 53.027344 77.886719 C 49.097656 77.875 45.246094 77.453125 41.464844 76.628906 C 38.621094 76.054688 36.359375 74.546875 34.679688 72.105469 C 34.429688 68.929688 34.347656 65.746094 34.429688 62.558594 C 35.710938 61.800781 35.542969 61.296875 33.925781 61.050781 C 34.507812 60.429688 35.011719 59.757812 35.433594 59.042969 C 37.058594 59.128906 38.566406 59.464844 39.957031 60.046875 C 39.09375 61.429688 37.835938 62.769531 36.1875 64.066406 C 35.78125 66.003906 35.863281 67.847656 36.441406 69.59375 C 36.53125 71.390625 37.203125 72.898438 38.449219 74.117188 C 41.777344 73.921875 45.125 73.839844 48.503906 73.867188 C 50.90625 72.496094 52.078125 70.402344 52.019531 67.585938 C 53.6875 63.242188 54.859375 58.71875 55.539062 54.015625 Z M 55.539062 54.015625 "/>
<path style=" stroke:none;fill-rule:evenodd;fill:rgb(98.431373%,94.117647%,89.411765%);fill-opacity:1;" d="M 52.019531 67.585938 C 52.078125 70.402344 50.90625 72.496094 48.503906 73.867188 C 45.125 73.839844 41.777344 73.921875 38.449219 74.117188 C 37.203125 72.898438 36.53125 71.390625 36.441406 69.59375 C 36.359375 68.742188 36.441406 67.902344 36.691406 67.082031 C 38.453125 66.445312 40.214844 66.53125 41.96875 67.332031 C 42.6875 68.234375 43.605469 68.824219 44.734375 69.09375 C 46.160156 67.90625 47.582031 66.734375 49.003906 65.574219 C 49.496094 65.8125 49.914062 66.148438 50.261719 66.578125 C 50.429688 66.414062 50.597656 66.246094 50.765625 66.078125 C 51.101562 69.425781 51.433594 69.425781 51.769531 66.078125 C 52.011719 66.554688 52.097656 67.054688 52.019531 67.585938 Z M 52.019531 67.585938 "/>
<path style=" stroke:none;fill-rule:evenodd;fill:rgb(38.431373%,5.098039%,10.588235%);fill-opacity:1;" d="M 43.980469 79.140625 C 46.851562 79.046875 49.699219 79.214844 52.523438 79.644531 C 52.632812 80.46875 52.464844 81.222656 52.019531 81.90625 C 52.875 83.058594 53.546875 84.3125 54.03125 85.675781 C 52.179688 84.746094 50.167969 84.414062 48 84.667969 C 48 84.167969 48 83.664062 48 83.160156 C 50.804688 83.148438 51.472656 82.0625 50.011719 79.894531 C 47.90625 79.808594 45.894531 79.554688 43.980469 79.140625 Z M 43.980469 79.140625 "/>
<path style=" stroke:none;fill-rule:evenodd;fill:rgb(59.607843%,53.333333%,52.54902%);fill-opacity:1;" d="M 70.113281 81.652344 C 69.800781 82.578125 69.132812 83.164062 68.105469 83.414062 C 63.996094 83.410156 59.972656 83.496094 56.042969 83.664062 C 55.394531 83.140625 55.394531 82.554688 56.042969 81.90625 C 59.066406 81.878906 62.082031 82.128906 65.089844 82.660156 C 66.835938 82.632812 68.511719 82.300781 70.113281 81.652344 Z M 70.113281 81.652344 "/>
<path style=" stroke:none;fill-rule:evenodd;fill:rgb(74.509804%,67.45098%,65.098039%);fill-opacity:1;" d="M 71.621094 83.160156 C 71.347656 81.316406 71.183594 81.484375 71.121094 83.664062 C 69.582031 84.261719 68.074219 85.015625 66.597656 85.925781 C 63.484375 86.03125 60.46875 86.113281 57.550781 86.175781 C 56.671875 85.59375 56.167969 84.757812 56.042969 83.664062 C 59.972656 83.496094 63.996094 83.410156 68.105469 83.414062 C 69.132812 83.164062 69.800781 82.578125 70.113281 81.652344 C 72.082031 80.316406 72.585938 80.816406 71.621094 83.160156 Z M 71.621094 83.160156 "/>
<path style=" stroke:none;fill-rule:evenodd;fill:rgb(71.764706%,1.176471%,14.117647%);fill-opacity:1;" d="M 18.847656 69.59375 C 21.328125 70.414062 24.011719 70.917969 26.890625 71.101562 C 27.570312 72.789062 28.742188 73.960938 30.410156 74.621094 C 34.019531 78.613281 38.542969 80.121094 43.980469 79.140625 C 45.894531 79.554688 47.90625 79.808594 50.011719 79.894531 C 51.472656 82.0625 50.804688 83.148438 48 83.160156 C 48 83.664062 48 84.167969 48 84.667969 C 50.167969 84.414062 52.179688 84.746094 54.03125 85.675781 C 54.609375 86.34375 55.113281 87.097656 55.539062 87.933594 C 53.171875 91.132812 49.988281 93.058594 45.988281 93.714844 C 46.355469 92.9375 47.027344 92.519531 48 92.457031 C 46.667969 92.300781 46.335938 91.714844 46.996094 90.699219 C 46.1875 89.285156 45.6875 87.777344 45.488281 86.175781 C 44.261719 86.046875 43.089844 85.710938 41.96875 85.171875 C 41.375 84.351562 41.375 83.511719 41.96875 82.660156 C 40.820312 82.316406 39.648438 82.230469 38.449219 82.40625 C 38.785156 82.242188 39.121094 82.074219 39.457031 81.90625 C 38.449219 81.488281 37.445312 81.066406 36.441406 80.648438 C 34.445312 78.648438 32.101562 77.308594 29.402344 76.628906 C 29.199219 74.492188 28.113281 73.652344 26.136719 74.117188 C 26.203125 73.148438 26.289062 72.144531 26.386719 71.101562 C 23.488281 71.410156 20.804688 71.074219 18.34375 70.097656 C 18.34375 69.761719 18.511719 69.59375 18.847656 69.59375 Z M 18.847656 69.59375 "/>
<path style=" stroke:none;fill-rule:evenodd;fill:rgb(88.627451%,82.745098%,79.607843%);fill-opacity:1;" d="M 71.621094 83.160156 C 71.113281 85.765625 69.605469 87.523438 67.097656 88.4375 C 64.921875 88.773438 62.742188 88.773438 60.566406 88.4375 C 59.253906 88.039062 58.25 87.285156 57.550781 86.175781 C 60.46875 86.113281 63.484375 86.03125 66.597656 85.925781 C 68.074219 85.015625 69.582031 84.261719 71.121094 83.664062 C 71.183594 81.484375 71.347656 81.316406 71.621094 83.160156 Z M 71.621094 83.160156 "/>
<path style=" stroke:none;fill-rule:evenodd;fill:rgb(93.72549%,1.176471%,15.686275%);fill-opacity:1;" d="M 13.820312 81.652344 C 13.777344 82.75 13.445312 83.753906 12.816406 84.667969 C 13.734375 86.378906 14.992188 87.71875 16.585938 88.6875 C 16.9375 86.664062 17.355469 84.652344 17.84375 82.660156 C 22.46875 84.722656 26.992188 86.898438 31.414062 89.191406 C 29.15625 88.996094 26.980469 88.496094 24.878906 87.683594 C 24.742188 92.273438 26.753906 95.457031 30.910156 97.230469 C 31.078125 97.566406 31.246094 97.902344 31.414062 98.234375 C 29.730469 98.320312 28.054688 98.234375 26.386719 97.984375 C 22.351562 95.710938 19.503906 92.445312 17.84375 88.1875 C 13.667969 91.222656 9.980469 90.722656 6.785156 86.679688 C 7.691406 86.042969 8.699219 85.707031 9.800781 85.675781 C 11.246094 85.140625 12.253906 84.136719 12.816406 82.660156 C 13.152344 82.324219 13.488281 81.988281 13.820312 81.652344 Z M 13.820312 81.652344 "/>
<path style=" stroke:none;fill-rule:evenodd;fill:rgb(60.784314%,5.098039%,13.72549%);fill-opacity:1;" d="M 32.921875 90.195312 C 36.375 93.1875 40.394531 94.359375 44.984375 93.714844 C 40.972656 94.695312 37.117188 94.109375 33.425781 91.957031 C 33.003906 91.445312 32.835938 90.859375 32.921875 90.195312 Z M 32.921875 90.195312 "/>
<path style=" stroke:none;fill-rule:evenodd;fill:rgb(49.411765%,1.960784%,12.941176%);fill-opacity:1;" d="M 29.402344 89.695312 C 29.851562 91.417969 30.855469 92.839844 32.417969 93.964844 C 39.761719 96.300781 39.425781 97.726562 31.414062 98.234375 C 31.246094 97.902344 31.078125 97.566406 30.910156 97.230469 C 30.855469 96.921875 30.6875 96.671875 30.410156 96.476562 C 32.300781 95.785156 32.132812 95.28125 29.90625 94.96875 C 30.46875 94.160156 30.21875 93.574219 29.152344 93.210938 C 28.941406 92.28125 28.6875 91.359375 28.398438 90.449219 C 28.566406 89.929688 28.902344 89.679688 29.402344 89.695312 Z M 29.402344 89.695312 "/>
<path style=" stroke:none;fill-rule:evenodd;fill:rgb(60.784314%,0%,12.54902%);fill-opacity:1;" d="M 31.414062 89.191406 C 32.179688 89.15625 32.683594 89.488281 32.921875 90.195312 C 31.785156 89.835938 30.609375 89.667969 29.402344 89.695312 C 28.902344 89.679688 28.566406 89.929688 28.398438 90.449219 C 28.6875 91.359375 28.941406 92.28125 29.152344 93.210938 C 30.21875 93.574219 30.46875 94.160156 29.90625 94.96875 C 32.132812 95.28125 32.300781 95.785156 30.410156 96.476562 C 30.6875 96.671875 30.855469 96.921875 30.910156 97.230469 C 26.753906 95.457031 24.742188 92.273438 24.878906 87.683594 C 26.980469 88.496094 29.15625 88.996094 31.414062 89.191406 Z M 31.414062 89.191406 "/>
</g>
</svg>
