<?xml version="1.0" encoding="UTF-8"?>
<svg xmlns="http://www.w3.org/2000/svg" xmlns:xlink="http://www.w3.org/1999/xlink" width="px" height="px" viewBox="0 0 99 102" version="1.1">
<defs>
<filter id="alpha" filterUnits="objectBoundingBox" x="0%" y="0%" width="100%" height="100%">
  <feColorMatrix type="matrix" in="SourceGraphic" values="0 0 0 0 1 0 0 0 0 1 0 0 0 0 1 0 0 0 1 0"/>
</filter>
<mask id="mask0">
  <g filter="url(#alpha)">
<rect x="0" y="0" width="99" height="102" style="fill:rgb(0%,0%,0%);fill-opacity:0.0705882;stroke:none;"/>
  </g>
</mask>
<clipPath id="clip1">
  <rect x="0" y="0" width="99" height="103"/>
</clipPath>
<g id="surface5" clip-path="url(#clip1)">
<path style=" stroke:none;fill-rule:evenodd;fill:rgb(14.901961%,22.745098%,29.411765%);fill-opacity:1;" d="M 49.5 12.308594 C 44.878906 11.21875 40.1875 10.550781 35.429688 10.300781 C 30.792969 10.449219 26.4375 11.621094 22.363281 13.816406 C 25.824219 11.183594 29.761719 9.675781 34.171875 9.296875 C 39.394531 9.578125 44.503906 10.582031 49.5 12.308594 Z M 49.5 12.308594 "/>
</g>
<mask id="mask1">
  <g filter="url(#alpha)">
<rect x="0" y="0" width="99" height="102" style="fill:rgb(0%,0%,0%);fill-opacity:0.988235;stroke:none;"/>
  </g>
</mask>
<clipPath id="clip2">
  <rect x="0" y="0" width="99" height="103"/>
</clipPath>
<g id="surface8" clip-path="url(#clip2)">
<path style=" stroke:none;fill-rule:evenodd;fill:rgb(2.352941%,2.352941%,4.313725%);fill-opacity:1;" d="M 58.042969 6.28125 C 65.984375 5.929688 70.757812 9.617188 72.367188 17.335938 C 76.117188 19.492188 78.378906 22.671875 79.148438 26.882812 C 81.09375 26.722656 82.9375 26.890625 84.675781 27.382812 C 82.699219 27.238281 80.773438 27.402344 78.898438 27.886719 C 78.371094 26.777344 77.617188 25.941406 76.636719 25.375 C 75.589844 22.734375 73.746094 20.808594 71.109375 19.597656 C 68.203125 18.988281 65.273438 18.570312 62.316406 18.339844 C 60.730469 18.269531 59.308594 18.605469 58.042969 19.34375 C 56.101562 19.949219 55.097656 21.289062 55.027344 23.363281 C 54.113281 23.53125 53.273438 23.867188 52.515625 24.371094 C 52.515625 23.699219 52.515625 23.03125 52.515625 22.359375 C 50.738281 22.09375 49.566406 21.089844 48.996094 19.34375 C 48.628906 18.738281 48.460938 18.066406 48.496094 17.335938 C 42.804688 17.273438 37.277344 18.027344 31.910156 19.597656 C 34 17.949219 36.347656 16.777344 38.945312 16.078125 C 42.640625 15.652344 45.65625 15.234375 47.992188 14.824219 C 49.878906 13.613281 51.890625 12.609375 54.023438 11.808594 C 54.128906 10.980469 53.960938 10.226562 53.519531 9.546875 C 54.882812 8.199219 56.390625 7.113281 58.042969 6.28125 Z M 58.042969 6.28125 "/>
</g>
<mask id="mask2">
  <g filter="url(#alpha)">
<rect x="0" y="0" width="99" height="102" style="fill:rgb(0%,0%,0%);fill-opacity:0.972549;stroke:none;"/>
  </g>
</mask>
<clipPath id="clip3">
  <rect x="0" y="0" width="99" height="103"/>
</clipPath>
<g id="surface11" clip-path="url(#clip3)">
<path style=" stroke:none;fill-rule:evenodd;fill:rgb(4.313725%,4.705882%,5.882353%);fill-opacity:1;" d="M 58.042969 6.28125 C 56.390625 7.113281 54.882812 8.199219 53.519531 9.546875 C 53.960938 10.226562 54.128906 10.980469 54.023438 11.808594 C 51.890625 12.609375 49.878906 13.613281 47.992188 14.824219 C 45.171875 14.207031 42.324219 13.621094 39.449219 13.0625 C 30.839844 11.9375 23.804688 14.703125 18.34375 21.355469 C 18.007812 21.355469 17.839844 21.523438 17.839844 21.855469 C 14.933594 24.816406 12.925781 28.332031 11.808594 32.410156 C 14.59375 33.109375 17.441406 33.945312 20.351562 34.921875 C 22.898438 36.210938 24.65625 38.222656 25.628906 40.949219 C 25.210938 47.148438 25.296875 53.34375 25.878906 59.542969 C 25.53125 60.9375 25.027344 62.277344 24.375 63.5625 C 22.449219 65.820312 20.105469 67.496094 17.335938 68.585938 C 15.464844 68.425781 13.621094 68.589844 11.808594 69.089844 C 13.765625 76.058594 17.785156 81.421875 23.871094 85.167969 C 23.828125 85.667969 23.996094 86.085938 24.375 86.421875 C 28.789062 88.71875 33.480469 89.972656 38.445312 90.191406 C 24.960938 90.851562 15.664062 84.820312 10.554688 72.101562 C 6.535156 58.433594 6.285156 44.699219 9.800781 30.902344 C 11.132812 25.632812 13.644531 21.027344 17.335938 17.082031 C 18.957031 15.859375 20.628906 14.769531 22.363281 13.816406 C 26.4375 11.621094 30.792969 10.449219 35.429688 10.300781 C 40.1875 10.550781 44.878906 11.21875 49.5 12.308594 C 51.183594 10.882812 52.859375 9.292969 54.523438 7.535156 C 55.605469 6.828125 56.777344 6.410156 58.042969 6.28125 Z M 58.042969 6.28125 "/>
</g>
<mask id="mask3">
  <g filter="url(#alpha)">
<rect x="0" y="0" width="99" height="102" style="fill:rgb(0%,0%,0%);fill-opacity:0.00392157;stroke:none;"/>
  </g>
</mask>
<clipPath id="clip4">
  <rect x="0" y="0" width="99" height="103"/>
</clipPath>
<g id="surface14" clip-path="url(#clip4)">
<path style=" stroke:none;fill-rule:evenodd;fill:rgb(15.686275%,23.137255%,29.019608%);fill-opacity:1;" d="M 58.042969 6.28125 C 66.0625 4.980469 71.171875 8.328125 73.371094 16.328125 C 74.890625 17.851562 76.398438 19.359375 77.894531 20.851562 C 78.832031 22.414062 79.417969 24.085938 79.652344 25.875 C 81.816406 26.195312 83.992188 26.445312 86.183594 26.628906 C 87.6875 28.132812 88.777344 29.890625 89.453125 31.90625 C 92.785156 43.613281 93.121094 55.171875 90.457031 66.578125 C 89.320312 69.292969 87.894531 71.804688 86.183594 74.113281 C 87.886719 70.375 89.308594 66.523438 90.457031 62.558594 C 91.214844 55.539062 91.382812 48.503906 90.960938 41.453125 C 90.324219 37.039062 88.984375 32.851562 86.9375 28.890625 C 86.371094 28.066406 85.617188 27.566406 84.675781 27.382812 C 82.9375 26.890625 81.09375 26.722656 79.148438 26.882812 C 78.378906 22.671875 76.117188 19.492188 72.367188 17.335938 C 70.757812 9.617188 65.984375 5.929688 58.042969 6.28125 Z M 58.042969 6.28125 "/>
</g>
<mask id="mask4">
  <g filter="url(#alpha)">
<rect x="0" y="0" width="99" height="102" style="fill:rgb(0%,0%,0%);fill-opacity:0.0156863;stroke:none;"/>
  </g>
</mask>
<clipPath id="clip5">
  <rect x="0" y="0" width="99" height="103"/>
</clipPath>
<g id="surface17" clip-path="url(#clip5)">
<path style=" stroke:none;fill-rule:evenodd;fill:rgb(13.333333%,21.176471%,27.058824%);fill-opacity:1;" d="M 86.183594 74.113281 C 85.871094 74.679688 85.453125 75.183594 84.929688 75.621094 C 83.214844 75.058594 81.457031 74.972656 79.652344 75.371094 C 79.035156 76.746094 78.53125 78.167969 78.144531 79.640625 C 77.914062 80.042969 77.578125 80.207031 77.140625 80.144531 C 77.765625 78.515625 78.269531 76.839844 78.648438 75.117188 C 80.628906 74.621094 82.640625 74.453125 84.675781 74.617188 C 85.125 74.308594 85.628906 74.140625 86.183594 74.113281 Z M 86.183594 74.113281 "/>
</g>
<mask id="mask5">
  <g filter="url(#alpha)">
<rect x="0" y="0" width="99" height="102" style="fill:rgb(0%,0%,0%);fill-opacity:0.996078;stroke:none;"/>
  </g>
</mask>
<clipPath id="clip6">
  <rect x="0" y="0" width="99" height="103"/>
</clipPath>
<g id="surface20" clip-path="url(#clip6)">
<path style=" stroke:none;fill-rule:evenodd;fill:rgb(3.137255%,3.137255%,4.313725%);fill-opacity:1;" d="M 78.648438 65.070312 C 79.238281 64.957031 79.738281 65.125 80.15625 65.570312 C 79.722656 66.792969 78.886719 67.460938 77.640625 67.582031 C 77.507812 68.382812 77.675781 69.054688 78.144531 69.589844 C 78.058594 70.84375 78.5625 71.765625 79.652344 72.355469 C 81.152344 72.605469 82.660156 72.6875 84.175781 72.605469 C 83.273438 73.011719 82.269531 73.261719 81.160156 73.359375 C 82.132812 73.484375 83.050781 73.738281 83.925781 74.113281 C 84.480469 73.503906 84.730469 73.671875 84.675781 74.617188 C 82.640625 74.453125 80.628906 74.621094 78.648438 75.117188 C 78.269531 76.839844 77.765625 78.515625 77.140625 80.144531 C 75.8125 81.886719 74.222656 83.394531 72.367188 84.664062 C 70.496094 92.898438 65.386719 96.332031 57.039062 94.964844 C 53.730469 93.753906 51.550781 91.492188 50.503906 88.183594 C 51.265625 88.1875 51.855469 88.523438 52.265625 89.1875 C 54.011719 92.519531 56.773438 94.363281 60.554688 94.714844 C 63.722656 94.554688 65.898438 93.046875 67.089844 90.191406 C 68.167969 88.875 68.835938 87.367188 69.097656 85.671875 C 67.757812 85.671875 66.417969 85.671875 65.078125 85.671875 C 64.242188 85.671875 63.402344 85.671875 62.566406 85.671875 C 62.949219 85.285156 63.453125 85.03125 64.074219 84.917969 C 62.214844 84.574219 60.371094 84.65625 58.546875 85.167969 C 57.53125 85.160156 57.03125 84.65625 57.039062 83.660156 C 56.859375 82.015625 57.363281 80.675781 58.546875 79.640625 C 58.9375 80.710938 59.441406 80.792969 60.054688 79.890625 C 59.296875 78.046875 59.964844 77.292969 62.0625 77.628906 C 61.707031 78.085938 61.203125 78.253906 60.554688 78.132812 C 60.554688 78.96875 60.554688 79.808594 60.554688 80.644531 C 62.40625 80.5625 64.25 80.644531 66.082031 80.898438 C 64.082031 81.148438 62.070312 81.230469 60.054688 81.148438 C 60.09375 81.867188 59.925781 82.535156 59.550781 83.15625 C 63.402344 83.960938 67.089844 83.625 70.605469 82.152344 C 72.1875 81.835938 73.441406 80.996094 74.375 79.640625 C 75.988281 76.820312 76.492188 73.804688 75.882812 70.597656 C 75.304688 68.953125 74.886719 67.28125 74.625 65.570312 C 76.078125 65.726562 77.417969 65.558594 78.648438 65.070312 Z M 78.648438 65.070312 "/>
</g>
<mask id="mask6">
  <g filter="url(#alpha)">
<rect x="0" y="0" width="99" height="102" style="fill:rgb(0%,0%,0%);fill-opacity:0.0470588;stroke:none;"/>
  </g>
</mask>
<clipPath id="clip7">
  <rect x="0" y="0" width="99" height="103"/>
</clipPath>
<g id="surface23" clip-path="url(#clip7)">
<path style=" stroke:none;fill-rule:evenodd;fill:rgb(15.294118%,22.745098%,27.843137%);fill-opacity:1;" d="M 9.800781 30.902344 C 6.285156 44.699219 6.535156 58.433594 10.554688 72.101562 C 15.664062 84.820312 24.960938 90.851562 38.445312 90.191406 C 42.523438 89.847656 46.542969 89.175781 50.503906 88.183594 C 51.550781 91.492188 53.730469 93.753906 57.039062 94.964844 C 65.386719 96.332031 70.496094 92.898438 72.367188 84.664062 C 74.222656 83.394531 75.8125 81.886719 77.140625 80.144531 C 76.242188 82.308594 74.816406 84.152344 72.867188 85.671875 C 69.761719 95.386719 63.480469 98.316406 54.023438 94.464844 C 52.371094 92.726562 50.695312 91.132812 48.996094 89.691406 C 27.730469 95.347656 14.078125 87.644531 8.039062 66.578125 C 5.628906 56.226562 5.710938 45.925781 8.292969 35.675781 C 8.125 35.507812 7.957031 35.339844 7.789062 35.171875 C 8.425781 33.6875 9.09375 32.261719 9.800781 30.902344 Z M 9.800781 30.902344 "/>
</g>
</defs>
<g id="surface1">
<use xlink:href="#surface5" mask="url(#mask0)"/>
<use xlink:href="#surface8" mask="url(#mask1)"/>
<path style=" stroke:none;fill-rule:evenodd;fill:rgb(90.980392%,85.490196%,77.647059%);fill-opacity:1;" d="M 63.570312 9.296875 C 63.96875 10.03125 63.96875 10.703125 63.570312 11.304688 C 61.957031 11.53125 60.617188 12.203125 59.550781 13.316406 C 57.609375 14.546875 55.429688 15.21875 53.019531 15.324219 C 52.964844 14.03125 53.300781 12.855469 54.023438 11.808594 C 56.675781 9.027344 59.855469 8.191406 63.570312 9.296875 Z M 63.570312 9.296875 "/>
<path style=" stroke:none;fill-rule:evenodd;fill:rgb(57.254902%,56.862745%,52.941176%);fill-opacity:1;" d="M 57.039062 15.828125 C 55.589844 15.980469 54.246094 15.8125 53.019531 15.324219 C 55.429688 15.21875 57.609375 14.546875 59.550781 13.316406 C 60.558594 12.980469 61.480469 12.980469 62.316406 13.316406 C 62.734375 14.070312 63.320312 14.65625 64.074219 15.074219 C 61.734375 15.410156 59.386719 15.660156 57.039062 15.828125 Z M 57.039062 15.828125 "/>
<path style=" stroke:none;fill-rule:evenodd;fill:rgb(45.098039%,45.882353%,45.098039%);fill-opacity:1;" d="M 63.570312 9.296875 C 66.855469 10.566406 68.863281 12.914062 69.601562 16.328125 C 65.320312 16.492188 61.132812 16.328125 57.039062 15.828125 C 59.386719 15.660156 61.734375 15.410156 64.074219 15.074219 C 63.320312 14.65625 62.734375 14.070312 62.316406 13.316406 C 61.480469 12.980469 60.558594 12.980469 59.550781 13.316406 C 60.617188 12.203125 61.957031 11.53125 63.570312 11.304688 C 63.96875 10.703125 63.96875 10.03125 63.570312 9.296875 Z M 63.570312 9.296875 "/>
<path style=" stroke:none;fill-rule:evenodd;fill:rgb(81.960784%,74.117647%,67.45098%);fill-opacity:1;" d="M 47.992188 14.824219 C 45.65625 15.234375 42.640625 15.652344 38.945312 16.078125 C 36.347656 16.777344 34 17.949219 31.910156 19.597656 C 37.277344 18.027344 42.804688 17.273438 48.496094 17.335938 C 48.460938 18.066406 48.628906 18.738281 48.996094 19.34375 C 42.484375 19.523438 36.203125 20.863281 30.152344 23.363281 C 29.261719 24.316406 28.253906 25.152344 27.136719 25.875 C 26.566406 25.632812 25.980469 25.464844 25.378906 25.375 C 23.152344 23.820312 20.808594 22.480469 18.34375 21.355469 C 23.804688 14.703125 30.839844 11.9375 39.449219 13.0625 C 42.324219 13.621094 45.171875 14.207031 47.992188 14.824219 Z M 47.992188 14.824219 "/>
<path style=" stroke:none;fill-rule:evenodd;fill:rgb(57.254902%,53.72549%,49.411765%);fill-opacity:1;" d="M 76.636719 25.375 C 76.734375 28.085938 76.480469 30.765625 75.882812 33.414062 C 75.671875 34.683594 75.085938 35.6875 74.125 36.429688 C 73.589844 34.082031 73.589844 31.65625 74.125 29.144531 C 73.855469 23.257812 70.839844 20.832031 65.078125 21.855469 C 66.59375 21.941406 68.101562 21.855469 69.601562 21.605469 C 66.027344 19.964844 62.34375 19.546875 58.546875 20.351562 C 57.441406 20.394531 57.273438 20.0625 58.042969 19.34375 C 59.308594 18.605469 60.730469 18.269531 62.316406 18.339844 C 65.273438 18.570312 68.203125 18.988281 71.109375 19.597656 C 73.746094 20.808594 75.589844 22.734375 76.636719 25.375 Z M 76.636719 25.375 "/>
<path style=" stroke:none;fill-rule:evenodd;fill:rgb(94.509804%,87.843137%,80.392157%);fill-opacity:1;" d="M 48.996094 19.34375 C 49.566406 21.089844 50.738281 22.09375 52.515625 22.359375 C 52.515625 23.03125 52.515625 23.699219 52.515625 24.371094 C 51.753906 24.375 51.167969 24.710938 50.757812 25.375 C 50.433594 28.402344 50.519531 31.417969 51.007812 34.417969 C 50.699219 36.675781 51.199219 38.683594 52.515625 40.449219 C 52.582031 40.820312 52.496094 41.15625 52.265625 41.453125 C 51.40625 40.820312 50.570312 40.652344 49.75 40.949219 C 49.261719 40 48.925781 38.996094 48.746094 37.9375 C 48.578125 38.101562 48.410156 38.269531 48.242188 38.4375 C 48.121094 36.734375 47.867188 35.058594 47.488281 33.414062 C 47.996094 32.144531 47.660156 31.054688 46.484375 30.148438 C 46.980469 29.316406 47.480469 28.476562 47.992188 27.636719 C 47.195312 27.59375 46.527344 27.507812 45.980469 27.382812 C 47.269531 26.320312 47.519531 25.148438 46.734375 23.867188 C 46.191406 25.089844 45.9375 24.921875 45.980469 23.363281 C 46.757812 22.746094 45.921875 22.664062 43.46875 23.113281 C 44.367188 23.210938 45.039062 23.628906 45.480469 24.371094 C 44.125 24.972656 43.203125 25.976562 42.714844 27.382812 C 42.238281 26.332031 41.566406 26.164062 40.707031 26.882812 C 40.539062 26.546875 40.371094 26.210938 40.203125 25.875 C 39.902344 26.578125 39.988281 27.25 40.453125 27.886719 C 40.191406 28.234375 39.855469 28.484375 39.449219 28.640625 C 40.179688 28.851562 40.433594 29.269531 40.203125 29.898438 C 39.367188 29.5625 38.527344 29.226562 37.691406 28.890625 C 37.1875 30.230469 36.683594 31.570312 36.183594 32.910156 C 36.015625 32.074219 35.847656 31.238281 35.679688 30.398438 C 34.863281 30.855469 34.445312 30.523438 34.425781 29.394531 C 34.824219 27.925781 35.492188 26.585938 36.433594 25.375 C 34.613281 24.792969 32.769531 24.707031 30.90625 25.125 C 29.722656 26.761719 28.886719 28.519531 28.394531 30.398438 C 28.257812 29.429688 27.753906 28.757812 26.886719 28.390625 C 27.105469 28.421875 27.273438 28.339844 27.386719 28.136719 C 26.652344 27.246094 25.980469 26.324219 25.378906 25.375 C 25.980469 25.464844 26.566406 25.632812 27.136719 25.875 C 28.253906 25.152344 29.261719 24.316406 30.152344 23.363281 C 36.203125 20.863281 42.484375 19.523438 48.996094 19.34375 Z M 48.996094 19.34375 "/>
<path style=" stroke:none;fill-rule:evenodd;fill:rgb(16.470588%,15.294118%,15.294118%);fill-opacity:1;" d="M 65.078125 21.855469 C 63.476562 21.828125 61.882812 21.660156 60.304688 21.355469 C 59.460938 21.300781 58.875 20.964844 58.546875 20.351562 C 62.34375 19.546875 66.027344 19.964844 69.601562 21.605469 C 68.101562 21.855469 66.59375 21.941406 65.078125 21.855469 Z M 65.078125 21.855469 "/>
<path style=" stroke:none;fill-rule:evenodd;fill:rgb(94.901961%,88.627451%,81.960784%);fill-opacity:1;" d="M 52.515625 40.449219 C 54.582031 42.152344 56.925781 43.324219 59.550781 43.964844 C 59.394531 44.457031 59.058594 44.792969 58.546875 44.96875 C 57.945312 44.796875 57.945312 44.546875 58.546875 44.214844 C 57.875 43.882812 57.207031 43.882812 56.535156 44.214844 C 57.136719 44.546875 57.136719 44.796875 56.535156 44.96875 C 55.371094 44.46875 54.535156 43.632812 54.023438 42.457031 C 52.53125 43.046875 52.363281 43.714844 53.519531 44.46875 C 52.945312 44.933594 52.945312 45.351562 53.519531 45.722656 C 53.042969 45.964844 52.542969 46.050781 52.011719 45.976562 C 52.148438 46.777344 51.980469 47.449219 51.511719 47.984375 C 51.511719 46.144531 51.511719 44.300781 51.511719 42.457031 C 51.007812 42.457031 50.503906 42.457031 50.003906 42.457031 C 50.164062 44.332031 49.996094 46.171875 49.5 47.984375 C 48.371094 47.546875 47.199219 47.378906 45.980469 47.484375 C 45.980469 46.8125 45.980469 46.144531 45.980469 45.472656 C 44.230469 46.203125 42.386719 46.539062 40.453125 46.476562 C 41.039062 46.09375 41.539062 45.589844 41.960938 44.96875 C 41.855469 44.675781 41.6875 44.425781 41.460938 44.214844 C 40.128906 43.96875 38.789062 43.882812 37.4375 43.964844 C 37.4375 44.46875 37.4375 44.96875 37.4375 45.472656 C 37.96875 45.398438 38.46875 45.480469 38.945312 45.722656 C 38.222656 46.117188 37.550781 46.03125 36.9375 45.472656 C 36.339844 44.792969 35.671875 44.207031 34.925781 43.714844 C 35.207031 43.523438 35.375 43.269531 35.429688 42.960938 C 34.523438 39.832031 33.851562 36.652344 33.417969 33.414062 C 33.359375 31.914062 33.695312 30.574219 34.425781 29.394531 C 34.445312 30.523438 34.863281 30.855469 35.679688 30.398438 C 35.847656 31.238281 36.015625 32.074219 36.183594 32.910156 C 36.683594 31.570312 37.1875 30.230469 37.691406 28.890625 C 38.527344 29.226562 39.367188 29.5625 40.203125 29.898438 C 40.433594 29.269531 40.179688 28.851562 39.449219 28.640625 C 39.855469 28.484375 40.191406 28.234375 40.453125 27.886719 C 39.988281 27.25 39.902344 26.578125 40.203125 25.875 C 40.371094 26.210938 40.539062 26.546875 40.707031 26.882812 C 41.566406 26.164062 42.238281 26.332031 42.714844 27.382812 C 43.203125 25.976562 44.125 24.972656 45.480469 24.371094 C 45.039062 23.628906 44.367188 23.210938 43.46875 23.113281 C 45.921875 22.664062 46.757812 22.746094 45.980469 23.363281 C 45.9375 24.921875 46.191406 25.089844 46.734375 23.867188 C 47.519531 25.148438 47.269531 26.320312 45.980469 27.382812 C 46.527344 27.507812 47.195312 27.59375 47.992188 27.636719 C 47.480469 28.476562 46.980469 29.316406 46.484375 30.148438 C 47.660156 31.054688 47.996094 32.144531 47.488281 33.414062 C 47.867188 35.058594 48.121094 36.734375 48.242188 38.4375 C 48.410156 38.269531 48.578125 38.101562 48.746094 37.9375 C 48.925781 38.996094 49.261719 40 49.75 40.949219 C 50.570312 40.652344 51.40625 40.820312 52.265625 41.453125 C 52.496094 41.15625 52.582031 40.820312 52.515625 40.449219 Z M 52.515625 40.449219 "/>
<path style=" stroke:none;fill-rule:evenodd;fill:rgb(0.784314%,1.176471%,4.313725%);fill-opacity:1;" d="M 55.027344 23.363281 C 58.839844 23.101562 62.527344 23.605469 66.082031 24.871094 C 69.078125 27.429688 69.832031 30.613281 68.34375 34.417969 C 66.207031 40.050781 62.273438 41.976562 56.535156 40.195312 C 53.949219 38.941406 52.105469 37.015625 51.007812 34.417969 C 50.519531 31.417969 50.433594 28.402344 50.757812 25.375 C 51.167969 24.710938 51.753906 24.375 52.515625 24.371094 C 53.273438 23.867188 54.113281 23.53125 55.027344 23.363281 Z M 55.027344 23.363281 "/>
<path style=" stroke:none;fill-rule:evenodd;fill:rgb(85.098039%,76.862745%,68.627451%);fill-opacity:1;" d="M 18.34375 22.863281 C 21.128906 24.140625 23.640625 25.816406 25.878906 27.886719 C 23.253906 29.667969 21.414062 32.011719 20.351562 34.921875 C 17.441406 33.945312 14.59375 33.109375 11.808594 32.410156 C 12.472656 32.496094 13.058594 32.328125 13.570312 31.90625 C 14.527344 28.476562 16.117188 25.464844 18.34375 22.863281 Z M 18.34375 22.863281 "/>
<path style=" stroke:none;fill-rule:evenodd;fill:rgb(23.921569%,20.784314%,18.431373%);fill-opacity:1;" d="M 18.34375 21.355469 C 20.808594 22.480469 23.152344 23.820312 25.378906 25.375 C 25.980469 26.324219 26.652344 27.246094 27.386719 28.136719 C 27.273438 28.339844 27.105469 28.421875 26.886719 28.390625 C 26.550781 28.222656 26.214844 28.054688 25.878906 27.886719 C 23.640625 25.816406 21.128906 24.140625 18.34375 22.863281 C 18.175781 22.527344 18.007812 22.191406 17.839844 21.855469 C 17.839844 21.523438 18.007812 21.355469 18.34375 21.355469 Z M 18.34375 21.355469 "/>
<path style=" stroke:none;fill-rule:evenodd;fill:rgb(64.705882%,59.215686%,56.078431%);fill-opacity:1;" d="M 17.839844 21.855469 C 18.007812 22.191406 18.175781 22.527344 18.34375 22.863281 C 16.117188 25.464844 14.527344 28.476562 13.570312 31.90625 C 13.058594 32.328125 12.472656 32.496094 11.808594 32.410156 C 12.925781 28.332031 14.933594 24.816406 17.839844 21.855469 Z M 17.839844 21.855469 "/>
<path style=" stroke:none;fill-rule:evenodd;fill:rgb(20%,17.254902%,17.647059%);fill-opacity:1;" d="M 34.425781 29.394531 C 33.695312 30.574219 33.359375 31.914062 33.417969 33.414062 C 33.851562 36.652344 34.523438 39.832031 35.429688 42.960938 C 33.78125 43.101562 32.191406 42.9375 30.65625 42.457031 C 29.285156 38.546875 28.53125 34.527344 28.394531 30.398438 C 28.886719 28.519531 29.722656 26.761719 30.90625 25.125 C 32.769531 24.707031 34.613281 24.792969 36.433594 25.375 C 35.492188 26.585938 34.824219 27.925781 34.425781 29.394531 Z M 34.425781 29.394531 "/>
<path style=" stroke:none;fill-rule:evenodd;fill:rgb(3.137255%,3.137255%,4.313725%);fill-opacity:1;" d="M 76.636719 25.375 C 77.617188 25.941406 78.371094 26.777344 78.898438 27.886719 C 80.773438 27.402344 82.699219 27.238281 84.675781 27.382812 C 85.617188 27.566406 86.371094 28.066406 86.9375 28.890625 C 88.984375 32.851562 90.324219 37.039062 90.960938 41.453125 C 91.382812 48.503906 91.214844 55.539062 90.457031 62.558594 C 89.308594 66.523438 87.886719 70.375 86.183594 74.113281 C 85.628906 74.140625 85.125 74.308594 84.675781 74.617188 C 84.730469 73.671875 84.480469 73.503906 83.925781 74.113281 C 83.050781 73.738281 82.132812 73.484375 81.160156 73.359375 C 82.269531 73.261719 83.273438 73.011719 84.175781 72.605469 C 84.875 71.347656 85.378906 70.007812 85.683594 68.585938 C 86.105469 68.414062 86.273438 68.078125 86.183594 67.582031 C 87.476562 64.933594 88.230469 62.085938 88.445312 59.039062 C 88.78125 52.675781 88.78125 46.308594 88.445312 39.945312 C 87.492188 36.824219 86.402344 33.808594 85.179688 30.902344 C 85.144531 29.941406 84.640625 29.355469 83.671875 29.144531 C 80.691406 28.117188 79.019531 29.121094 78.648438 32.15625 C 78.550781 33.167969 78.886719 33.921875 79.652344 34.417969 C 79.484375 35.089844 79.316406 35.757812 79.148438 36.429688 C 77.390625 36.179688 75.714844 36.179688 74.125 36.429688 C 75.085938 35.6875 75.671875 34.683594 75.882812 33.414062 C 76.480469 30.765625 76.734375 28.085938 76.636719 25.375 Z M 76.636719 25.375 "/>
<path style=" stroke:none;fill-rule:evenodd;fill:rgb(89.019608%,83.529412%,77.647059%);fill-opacity:1;" d="M 85.179688 30.902344 C 85.179688 31.570312 85.179688 32.242188 85.179688 32.910156 C 83.246094 32.75 81.652344 33.417969 80.40625 34.921875 C 80.214844 34.640625 79.960938 34.472656 79.652344 34.417969 C 78.886719 33.921875 78.550781 33.167969 78.648438 32.15625 C 79.019531 29.121094 80.691406 28.117188 83.671875 29.144531 C 84.640625 29.355469 85.144531 29.941406 85.179688 30.902344 Z M 85.179688 30.902344 "/>
<path style=" stroke:none;fill-rule:evenodd;fill:rgb(91.372549%,86.666667%,80.392157%);fill-opacity:1;" d="M 58.042969 19.34375 C 57.273438 20.0625 57.441406 20.394531 58.546875 20.351562 C 58.875 20.964844 59.460938 21.300781 60.304688 21.355469 C 61.882812 21.660156 63.476562 21.828125 65.078125 21.855469 C 70.839844 20.832031 73.855469 23.257812 74.125 29.144531 C 73.589844 31.65625 73.589844 34.082031 74.125 36.429688 C 75.714844 36.179688 77.390625 36.179688 79.148438 36.429688 C 79.441406 38.59375 79.609375 40.773438 79.652344 42.960938 C 79.730469 43.652344 79.648438 44.320312 79.402344 44.96875 C 78.726562 44.613281 78.054688 44.78125 77.390625 45.472656 C 77.199219 46.324219 77.28125 47.164062 77.640625 47.984375 C 77.332031 47.929688 77.082031 47.761719 76.886719 47.484375 C 76.722656 49.492188 76.554688 51.503906 76.386719 53.511719 C 76.171875 54.480469 75.585938 54.984375 74.625 55.019531 C 75.085938 54.398438 75.167969 53.726562 74.878906 53.011719 C 74.09375 52.074219 73.175781 51.320312 72.113281 50.75 C 75.839844 49.164062 76.007812 47.402344 72.617188 45.472656 C 72.117188 44.886719 71.445312 44.550781 70.605469 44.46875 C 69.765625 44.8125 68.925781 45.148438 68.09375 45.472656 C 67.746094 44.148438 67.914062 42.808594 68.597656 41.453125 C 68.367188 41.050781 68.03125 40.886719 67.589844 40.949219 C 71.078125 36.714844 71.832031 32.027344 69.851562 26.882812 C 68.90625 25.613281 67.648438 24.945312 66.082031 24.871094 C 62.527344 23.605469 58.839844 23.101562 55.027344 23.363281 C 55.097656 21.289062 56.101562 19.949219 58.042969 19.34375 Z M 58.042969 19.34375 "/>
<use xlink:href="#surface11" mask="url(#mask2)"/>
<path style=" stroke:none;fill-rule:evenodd;fill:rgb(94.509804%,93.72549%,91.764706%);fill-opacity:1;" d="M 18.84375 65.570312 C 18.652344 64.851562 18.152344 64.433594 17.335938 64.316406 C 17.671875 63.980469 18.007812 63.644531 18.34375 63.308594 C 16.585938 63.34375 15.082031 62.925781 13.820312 62.054688 C 19.03125 62.53125 21.125 60.183594 20.101562 55.019531 C 19.378906 53.738281 18.789062 52.398438 18.34375 51 C 19.21875 48.875 19.890625 46.695312 20.351562 44.46875 C 19.527344 39.742188 16.929688 38.402344 12.5625 40.449219 C 12.144531 41.285156 11.726562 42.125 11.308594 42.960938 C 11.371094 43.265625 11.535156 43.433594 11.808594 43.464844 C 11.339844 44.203125 10.667969 44.707031 9.800781 44.96875 C 9.679688 41.753906 10.183594 38.652344 11.308594 35.675781 C 16.871094 34.5625 20.976562 36.488281 23.621094 41.453125 C 23.328125 47.648438 23.328125 53.84375 23.621094 60.042969 C 22.832031 62.589844 21.238281 64.433594 18.84375 65.570312 Z M 18.84375 65.570312 "/>
<path style=" stroke:none;fill-rule:evenodd;fill:rgb(47.058824%,62.352941%,65.882353%);fill-opacity:1;" d="M 66.082031 24.871094 C 67.648438 24.945312 68.90625 25.613281 69.851562 26.882812 C 71.832031 32.027344 71.078125 36.714844 67.589844 40.949219 C 65.445312 43.230469 62.765625 44.234375 59.550781 43.964844 C 56.925781 43.324219 54.582031 42.152344 52.515625 40.449219 C 51.199219 38.683594 50.699219 36.675781 51.007812 34.417969 C 52.105469 37.015625 53.949219 38.941406 56.535156 40.195312 C 62.273438 41.976562 66.207031 40.050781 68.34375 34.417969 C 69.832031 30.613281 69.078125 27.429688 66.082031 24.871094 Z M 66.082031 24.871094 "/>
<path style=" stroke:none;fill-rule:evenodd;fill:rgb(5.098039%,5.098039%,5.098039%);fill-opacity:1;" d="M 13.820312 62.054688 C 13.066406 61.210938 12.394531 60.292969 11.808594 59.289062 C 15.703125 59.917969 17.460938 58.324219 17.085938 54.515625 C 15.875 53.5625 14.957031 52.386719 14.324219 51 C 14.609375 49.875 15.277344 49.035156 16.332031 48.488281 C 17.132812 46.597656 16.964844 44.839844 15.828125 43.210938 C 14.328125 42.140625 12.988281 42.222656 11.808594 43.464844 C 11.535156 43.433594 11.371094 43.265625 11.308594 42.960938 C 11.726562 42.125 12.144531 41.285156 12.5625 40.449219 C 16.929688 38.402344 19.527344 39.742188 20.351562 44.46875 C 19.890625 46.695312 19.21875 48.875 18.34375 51 C 18.789062 52.398438 19.378906 53.738281 20.101562 55.019531 C 21.125 60.183594 19.03125 62.53125 13.820312 62.054688 Z M 13.820312 62.054688 "/>
<path style=" stroke:none;fill-rule:evenodd;fill:rgb(94.117647%,87.45098%,80.392157%);fill-opacity:1;" d="M 25.878906 27.886719 C 26.214844 28.054688 26.550781 28.222656 26.886719 28.390625 C 27.753906 28.757812 28.257812 29.429688 28.394531 30.398438 C 28.53125 34.527344 29.285156 38.546875 30.65625 42.457031 C 32.191406 42.9375 33.78125 43.101562 35.429688 42.960938 C 35.375 43.269531 35.207031 43.523438 34.925781 43.714844 C 35.671875 44.207031 36.339844 44.792969 36.9375 45.472656 C 37.550781 46.03125 38.222656 46.117188 38.945312 45.722656 C 38.46875 45.480469 37.96875 45.398438 37.4375 45.472656 C 37.4375 44.96875 37.4375 44.46875 37.4375 43.964844 C 38.789062 43.882812 40.128906 43.96875 41.460938 44.214844 C 41.6875 44.425781 41.855469 44.675781 41.960938 44.96875 C 41.539062 45.589844 41.039062 46.09375 40.453125 46.476562 C 39.28125 46.476562 38.109375 46.476562 36.9375 46.476562 C 36.9375 47.148438 36.9375 47.816406 36.9375 48.488281 C 39.121094 48.40625 41.296875 48.488281 43.46875 48.738281 C 44.746094 49.644531 45.25 50.902344 44.976562 52.507812 C 44.945312 52.78125 44.78125 52.949219 44.476562 53.011719 C 43.984375 51.882812 43.816406 50.710938 43.972656 49.492188 C 41.972656 49.074219 39.964844 48.992188 37.941406 49.242188 C 36.453125 49.664062 36.285156 50.167969 37.4375 50.75 C 36.875 50.875 36.371094 51.125 35.929688 51.503906 C 36.804688 51.550781 37.808594 51.632812 38.945312 51.753906 C 39.539062 52.714844 40.039062 52.632812 40.453125 51.503906 C 41.402344 51.6875 41.824219 52.191406 41.710938 53.011719 C 41.035156 52.652344 40.367188 52.820312 39.699219 53.511719 C 39.171875 53 38.585938 52.917969 37.941406 53.261719 C 38.851562 53.726562 39.6875 54.3125 40.453125 55.019531 C 41.105469 54.722656 41.527344 54.222656 41.710938 53.511719 C 44.527344 55.050781 45.78125 57.394531 45.480469 60.546875 C 45.078125 64.074219 44.574219 67.59375 43.972656 71.097656 C 43.074219 71.242188 42.234375 71.074219 41.460938 70.597656 C 39.054688 67.710938 37.378906 64.445312 36.433594 60.796875 C 35.625 60.4375 34.871094 60.519531 34.171875 61.050781 C 33.992188 63.0625 34.078125 65.074219 34.425781 67.078125 C 32.820312 66.945312 31.480469 66.277344 30.402344 65.070312 C 28.765625 63.285156 27.257812 61.441406 25.878906 59.542969 C 25.296875 53.34375 25.210938 47.148438 25.628906 40.949219 C 24.65625 38.222656 22.898438 36.210938 20.351562 34.921875 C 21.414062 32.011719 23.253906 29.667969 25.878906 27.886719 Z M 25.878906 27.886719 "/>
<path style=" stroke:none;fill-rule:evenodd;fill:rgb(7.45098%,6.666667%,6.27451%);fill-opacity:1;" d="M 85.179688 32.910156 C 87.277344 38.039062 88.28125 43.398438 88.195312 48.988281 C 88.128906 55.261719 87.457031 61.457031 86.183594 67.582031 C 86.273438 68.078125 86.105469 68.414062 85.683594 68.585938 C 84.988281 69.144531 84.234375 69.648438 83.421875 70.09375 C 81.957031 68.648438 80.199219 67.980469 78.144531 68.082031 C 78.144531 68.585938 78.144531 69.089844 78.144531 69.589844 C 77.675781 69.054688 77.507812 68.382812 77.640625 67.582031 C 78.886719 67.460938 79.722656 66.792969 80.15625 65.570312 C 79.738281 65.125 79.238281 64.957031 78.648438 65.070312 C 79.160156 61.707031 79.664062 58.355469 80.15625 55.019531 C 80.320312 50.90625 80.152344 46.886719 79.652344 42.960938 C 79.609375 40.773438 79.441406 38.59375 79.148438 36.429688 C 79.316406 35.757812 79.484375 35.089844 79.652344 34.417969 C 79.960938 34.472656 80.214844 34.640625 80.40625 34.921875 C 81.652344 33.417969 83.246094 32.75 85.179688 32.910156 Z M 85.179688 32.910156 "/>
<path style=" stroke:none;fill-rule:evenodd;fill:rgb(89.803922%,85.882353%,82.745098%);fill-opacity:1;" d="M 82.164062 34.921875 C 83.113281 34.820312 83.867188 35.152344 84.425781 35.925781 C 85.054688 37.1875 85.308594 38.527344 85.179688 39.945312 C 83.992188 40.035156 82.820312 40.199219 81.664062 40.449219 C 80.847656 38.5 81.015625 36.660156 82.164062 34.921875 Z M 82.164062 34.921875 "/>
<path style=" stroke:none;fill-rule:evenodd;fill:rgb(92.156863%,85.882353%,78.431373%);fill-opacity:1;" d="M 67.589844 40.949219 C 68.03125 40.886719 68.367188 41.050781 68.597656 41.453125 C 67.914062 42.808594 67.746094 44.148438 68.09375 45.472656 C 67.253906 46.730469 66.167969 47.734375 64.828125 48.488281 C 64.175781 49.214844 64.089844 49.882812 64.574219 50.496094 C 66.523438 53.792969 69.371094 55.632812 73.121094 56.023438 C 71.710938 56.597656 70.203125 56.679688 68.597656 56.277344 C 67.824219 55.417969 66.984375 54.664062 66.082031 54.015625 C 64.324219 53.515625 62.734375 52.679688 61.308594 51.503906 C 60.851562 52.082031 60.433594 52 60.054688 51.25 C 57.78125 51.164062 55.605469 50.910156 53.519531 50.496094 C 55.699219 50.496094 57.875 50.496094 60.054688 50.496094 C 60.140625 49.832031 59.972656 49.246094 59.550781 48.738281 C 56.777344 48.652344 54.097656 48.402344 51.511719 47.984375 C 51.980469 47.449219 52.148438 46.777344 52.011719 45.976562 C 52.542969 46.050781 53.042969 45.964844 53.519531 45.722656 C 52.945312 45.351562 52.945312 44.933594 53.519531 44.46875 C 52.363281 43.714844 52.53125 43.046875 54.023438 42.457031 C 54.535156 43.632812 55.371094 44.46875 56.535156 44.96875 C 57.136719 44.796875 57.136719 44.546875 56.535156 44.214844 C 57.207031 43.882812 57.875 43.882812 58.546875 44.214844 C 57.945312 44.546875 57.945312 44.796875 58.546875 44.96875 C 59.058594 44.792969 59.394531 44.457031 59.550781 43.964844 C 62.765625 44.234375 65.445312 43.230469 67.589844 40.949219 Z M 67.589844 40.949219 "/>
<path style=" stroke:none;fill-rule:evenodd;fill:rgb(91.372549%,88.627451%,86.666667%);fill-opacity:1;" d="M 83.671875 41.453125 C 84.5 41.347656 85.253906 41.511719 85.933594 41.957031 C 86.183594 43.621094 86.269531 45.296875 86.183594 46.980469 C 85.011719 46.980469 83.839844 46.980469 82.667969 46.980469 C 82.621094 45.875 82.453125 44.789062 82.164062 43.714844 C 82.195312 42.605469 82.695312 41.851562 83.671875 41.453125 Z M 83.671875 41.453125 "/>
<path style=" stroke:none;fill-rule:evenodd;fill:rgb(43.529412%,62.352941%,65.490196%);fill-opacity:1;" d="M 72.617188 45.472656 C 69.554688 46.523438 66.875 48.195312 64.574219 50.496094 C 64.089844 49.882812 64.175781 49.214844 64.828125 48.488281 C 66.167969 47.734375 67.253906 46.730469 68.09375 45.472656 C 68.925781 45.148438 69.765625 44.8125 70.605469 44.46875 C 71.445312 44.550781 72.117188 44.886719 72.617188 45.472656 Z M 72.617188 45.472656 "/>
<path style=" stroke:none;fill-rule:evenodd;fill:rgb(3.137255%,3.137255%,5.098039%);fill-opacity:1;" d="M 72.617188 45.472656 C 76.007812 47.402344 75.839844 49.164062 72.113281 50.75 C 73.175781 51.320312 74.09375 52.074219 74.878906 53.011719 C 75.167969 53.726562 75.085938 54.398438 74.625 55.019531 C 74.230469 55.472656 73.726562 55.808594 73.121094 56.023438 C 69.371094 55.632812 66.523438 53.792969 64.574219 50.496094 C 66.875 48.195312 69.554688 46.523438 72.617188 45.472656 Z M 72.617188 45.472656 "/>
<path style=" stroke:none;fill-rule:evenodd;fill:rgb(10.588235%,9.803922%,10.196078%);fill-opacity:1;" d="M 51.511719 47.984375 C 54.097656 48.402344 56.777344 48.652344 59.550781 48.738281 C 59.972656 49.246094 60.140625 49.832031 60.054688 50.496094 C 57.875 50.496094 55.699219 50.496094 53.519531 50.496094 C 52.683594 50.496094 51.84375 50.496094 51.007812 50.496094 C 51.140625 51.238281 50.972656 51.910156 50.503906 52.507812 C 49.867188 51.601562 49.53125 50.597656 49.5 49.492188 C 48.496094 49.492188 47.488281 49.492188 46.484375 49.492188 C 46.484375 50.496094 46.484375 51.503906 46.484375 52.507812 C 45.980469 52.507812 45.480469 52.507812 44.976562 52.507812 C 45.25 50.902344 44.746094 49.644531 43.46875 48.738281 C 41.296875 48.488281 39.121094 48.40625 36.9375 48.488281 C 36.9375 47.816406 36.9375 47.148438 36.9375 46.476562 C 38.109375 46.476562 39.28125 46.476562 40.453125 46.476562 C 42.386719 46.539062 44.230469 46.203125 45.980469 45.472656 C 45.980469 46.144531 45.980469 46.8125 45.980469 47.484375 C 47.199219 47.378906 48.371094 47.546875 49.5 47.984375 C 49.996094 46.171875 50.164062 44.332031 50.003906 42.457031 C 50.503906 42.457031 51.007812 42.457031 51.511719 42.457031 C 51.511719 44.300781 51.511719 46.144531 51.511719 47.984375 Z M 51.511719 47.984375 "/>
<path style=" stroke:none;fill-rule:evenodd;fill:rgb(73.72549%,63.529412%,56.470588%);fill-opacity:1;" d="M 79.652344 42.960938 C 80.152344 46.886719 80.320312 50.90625 80.15625 55.019531 C 79.742188 53.609375 79.492188 52.101562 79.402344 50.496094 C 78.898438 49.582031 78.3125 48.742188 77.640625 47.984375 C 77.28125 47.164062 77.199219 46.324219 77.390625 45.472656 C 78.054688 44.78125 78.726562 44.613281 79.402344 44.96875 C 79.648438 44.320312 79.730469 43.652344 79.652344 42.960938 Z M 79.652344 42.960938 "/>
<path style=" stroke:none;fill-rule:evenodd;fill:rgb(67.058824%,63.921569%,63.137255%);fill-opacity:1;" d="M 85.179688 30.902344 C 86.402344 33.808594 87.492188 36.824219 88.445312 39.945312 C 88.78125 46.308594 88.78125 52.675781 88.445312 59.039062 C 88.230469 62.085938 87.476562 64.933594 86.183594 67.582031 C 87.457031 61.457031 88.128906 55.261719 88.195312 48.988281 C 88.28125 43.398438 87.277344 38.039062 85.179688 32.910156 C 85.179688 32.242188 85.179688 31.570312 85.179688 30.902344 Z M 85.179688 30.902344 "/>
<path style=" stroke:none;fill-rule:evenodd;fill:rgb(94.509804%,93.72549%,91.764706%);fill-opacity:1;" d="M 13.820312 62.054688 C 15.082031 62.925781 16.585938 63.34375 18.34375 63.308594 C 18.007812 63.644531 17.671875 63.980469 17.335938 64.316406 C 18.152344 64.433594 18.652344 64.851562 18.84375 65.570312 C 16.207031 66.847656 13.609375 66.847656 11.054688 65.570312 C 9.570312 58.679688 9.148438 51.8125 9.800781 44.96875 C 10.667969 44.707031 11.339844 44.203125 11.808594 43.464844 C 12.988281 42.222656 14.328125 42.140625 15.828125 43.210938 C 16.964844 44.839844 17.132812 46.597656 16.332031 48.488281 C 15.277344 49.035156 14.609375 49.875 14.324219 51 C 14.957031 52.386719 15.875 53.5625 17.085938 54.515625 C 17.460938 58.324219 15.703125 59.917969 11.808594 59.289062 C 12.394531 60.292969 13.066406 61.210938 13.820312 62.054688 Z M 13.820312 62.054688 "/>
<path style=" stroke:none;fill-rule:evenodd;fill:rgb(92.156863%,89.803922%,87.843137%);fill-opacity:1;" d="M 83.171875 48.488281 C 84.175781 48.488281 85.179688 48.488281 86.183594 48.488281 C 86.183594 50.832031 86.183594 53.175781 86.183594 55.523438 C 84.792969 55.664062 83.535156 55.328125 82.417969 54.515625 C 82.007812 52.410156 82.261719 50.402344 83.171875 48.488281 Z M 83.171875 48.488281 "/>
<path style=" stroke:none;fill-rule:evenodd;fill:rgb(93.72549%,87.45098%,80%);fill-opacity:1;" d="M 44.976562 52.507812 C 45.480469 52.507812 45.980469 52.507812 46.484375 52.507812 C 46.484375 51.503906 46.484375 50.496094 46.484375 49.492188 C 47.488281 49.492188 48.496094 49.492188 49.5 49.492188 C 49.53125 50.597656 49.867188 51.601562 50.503906 52.507812 C 50.972656 51.910156 51.140625 51.238281 51.007812 50.496094 C 51.84375 50.496094 52.683594 50.496094 53.519531 50.496094 C 55.605469 50.910156 57.78125 51.164062 60.054688 51.25 C 60.433594 52 60.851562 52.082031 61.308594 51.503906 C 62.734375 52.679688 64.324219 53.515625 66.082031 54.015625 C 66.003906 54.703125 66.089844 55.375 66.335938 56.023438 C 67.425781 56.777344 68.34375 57.699219 69.097656 58.789062 C 68.375 58.898438 67.707031 59.148438 67.089844 59.542969 C 67.882812 60.585938 68.386719 61.757812 68.597656 63.058594 C 64.535156 57.910156 59.675781 57.15625 54.023438 60.796875 C 53.601562 61.304688 53.433594 61.890625 53.519531 62.558594 C 52.921875 60.691406 52.171875 58.851562 51.257812 57.03125 C 51.089844 59.378906 51.175781 61.722656 51.511719 64.0625 C 51.015625 65.703125 50.679688 67.378906 50.503906 69.089844 C 50.171875 70.359375 49.835938 71.699219 49.5 73.109375 C 49.164062 73.445312 48.828125 73.777344 48.496094 74.113281 C 47.667969 73.535156 46.914062 72.867188 46.234375 72.101562 C 46.621094 67.683594 47.039062 63.246094 47.488281 58.789062 C 47.40625 58.035156 47.324219 57.28125 47.238281 56.527344 C 47.03125 56.296875 46.777344 56.128906 46.484375 56.023438 C 45.894531 57.476562 45.558594 58.984375 45.480469 60.546875 C 45.78125 57.394531 44.527344 55.050781 41.710938 53.511719 C 41.527344 54.222656 41.105469 54.722656 40.453125 55.019531 C 39.6875 54.3125 38.851562 53.726562 37.941406 53.261719 C 38.585938 52.917969 39.171875 53 39.699219 53.511719 C 40.367188 52.820312 41.035156 52.652344 41.710938 53.011719 C 41.824219 52.191406 41.402344 51.6875 40.453125 51.503906 C 40.039062 52.632812 39.539062 52.714844 38.945312 51.753906 C 37.808594 51.632812 36.804688 51.550781 35.929688 51.503906 C 36.371094 51.125 36.875 50.875 37.4375 50.75 C 36.285156 50.167969 36.453125 49.664062 37.941406 49.242188 C 39.964844 48.992188 41.972656 49.074219 43.972656 49.492188 C 43.816406 50.710938 43.984375 51.882812 44.476562 53.011719 C 44.78125 52.949219 44.945312 52.78125 44.976562 52.507812 Z M 44.976562 52.507812 "/>
<path style=" stroke:none;fill-rule:evenodd;fill:rgb(94.509804%,89.411765%,83.137255%);fill-opacity:1;" d="M 77.640625 47.984375 C 78.3125 48.742188 78.898438 49.582031 79.402344 50.496094 C 79.492188 52.101562 79.742188 53.609375 80.15625 55.019531 C 79.664062 58.355469 79.160156 61.707031 78.648438 65.070312 C 77.417969 65.558594 76.078125 65.726562 74.625 65.570312 C 73.410156 66.171875 72.90625 67.175781 73.121094 68.585938 C 73.617188 71.757812 73.699219 74.941406 73.371094 78.132812 C 72.730469 79.6875 71.808594 81.027344 70.605469 82.152344 C 67.089844 83.625 63.402344 83.960938 59.550781 83.15625 C 59.925781 82.535156 60.09375 81.867188 60.054688 81.148438 C 62.070312 81.230469 64.082031 81.148438 66.082031 80.898438 C 64.25 80.644531 62.40625 80.5625 60.554688 80.644531 C 60.554688 79.808594 60.554688 78.96875 60.554688 78.132812 C 61.203125 78.253906 61.707031 78.085938 62.0625 77.628906 C 62.734375 77.628906 63.402344 77.628906 64.074219 77.628906 C 70.097656 76.980469 72.273438 73.796875 70.605469 68.082031 C 70.207031 66.28125 69.535156 64.605469 68.597656 63.058594 C 68.386719 61.757812 67.882812 60.585938 67.089844 59.542969 C 67.707031 59.148438 68.375 58.898438 69.097656 58.789062 C 68.34375 57.699219 67.425781 56.777344 66.335938 56.023438 C 66.089844 55.375 66.003906 54.703125 66.082031 54.015625 C 66.984375 54.664062 67.824219 55.417969 68.597656 56.277344 C 70.203125 56.679688 71.710938 56.597656 73.121094 56.023438 C 73.726562 55.808594 74.230469 55.472656 74.625 55.019531 C 75.585938 54.984375 76.171875 54.480469 76.386719 53.511719 C 76.554688 51.503906 76.722656 49.492188 76.886719 47.484375 C 77.082031 47.761719 77.332031 47.929688 77.640625 47.984375 Z M 77.640625 47.984375 "/>
<path style=" stroke:none;fill-rule:evenodd;fill:rgb(92.54902%,89.019608%,86.666667%);fill-opacity:1;" d="M 82.164062 57.03125 C 83.503906 57.03125 84.84375 57.03125 86.183594 57.03125 C 85.910156 58.695312 85.660156 60.367188 85.429688 62.054688 C 84.59375 63.160156 83.585938 63.328125 82.417969 62.558594 C 82.164062 60.722656 82.082031 58.878906 82.164062 57.03125 Z M 82.164062 57.03125 "/>
<path style=" stroke:none;fill-rule:evenodd;fill:rgb(97.647059%,96.470588%,93.72549%);fill-opacity:1;" d="M 25.878906 59.542969 C 27.257812 61.441406 28.765625 63.285156 30.402344 65.070312 C 31.480469 66.277344 32.820312 66.945312 34.425781 67.078125 C 34.078125 65.074219 33.992188 63.0625 34.171875 61.050781 C 34.871094 60.519531 35.625 60.4375 36.433594 60.796875 C 37.378906 64.445312 39.054688 67.710938 41.460938 70.597656 C 42.234375 71.074219 43.074219 71.242188 43.972656 71.097656 C 43.890625 72.28125 43.972656 73.453125 44.222656 74.617188 C 46.078125 75.671875 48.171875 76.761719 50.503906 77.882812 C 51.328125 78.128906 52.164062 78.214844 53.019531 78.132812 C 52.792969 80.058594 52.125 81.816406 51.007812 83.410156 C 48.207031 84.085938 45.359375 84.339844 42.464844 84.164062 C 37.128906 83.847656 31.9375 82.675781 26.886719 80.644531 C 26.734375 80.320312 26.566406 79.984375 26.382812 79.640625 C 30.5625 79.222656 34.75 78.972656 38.945312 78.886719 C 31.648438 76.105469 26.792969 70.996094 24.375 63.5625 C 25.027344 62.277344 25.53125 60.9375 25.878906 59.542969 Z M 25.878906 59.542969 "/>
<path style=" stroke:none;fill-rule:evenodd;fill:rgb(0.392157%,0.392157%,3.921569%);fill-opacity:1;" d="M 68.09375 73.609375 C 67.242188 75.46875 65.898438 76.808594 64.074219 77.628906 C 63.402344 77.628906 62.734375 77.628906 62.0625 77.628906 C 59.964844 77.292969 59.296875 78.046875 60.054688 79.890625 C 59.441406 80.792969 58.9375 80.710938 58.546875 79.640625 C 58.546875 79.136719 58.546875 78.636719 58.546875 78.132812 C 56.726562 77.757812 54.882812 77.59375 53.019531 77.628906 C 51.914062 77.597656 50.910156 77.261719 50.003906 76.625 C 51.246094 75.824219 51.246094 75.070312 50.003906 74.363281 C 50.484375 72.660156 50.648438 70.902344 50.503906 69.089844 C 50.679688 67.378906 51.015625 65.703125 51.511719 64.0625 C 52.46875 63.945312 53.136719 63.441406 53.519531 62.558594 C 60.316406 58.429688 65.261719 60.105469 68.34375 67.582031 C 68.726562 69.636719 68.644531 71.644531 68.09375 73.609375 Z M 68.09375 73.609375 "/>
<path style=" stroke:none;fill-rule:evenodd;fill:rgb(25.490196%,21.568627%,19.215686%);fill-opacity:1;" d="M 53.519531 62.558594 C 53.136719 63.441406 52.46875 63.945312 51.511719 64.0625 C 51.175781 61.722656 51.089844 59.378906 51.257812 57.03125 C 52.171875 58.851562 52.921875 60.691406 53.519531 62.558594 Z M 53.519531 62.558594 "/>
<use xlink:href="#surface14" mask="url(#mask3)"/>
<path style=" stroke:none;fill-rule:evenodd;fill:rgb(43.529412%,64.705882%,69.411765%);fill-opacity:1;" d="M 68.597656 63.058594 C 69.535156 64.605469 70.207031 66.28125 70.605469 68.082031 C 70.679688 70.453125 70.09375 72.628906 68.847656 74.617188 C 68.707031 74.15625 68.457031 73.820312 68.09375 73.609375 C 68.644531 71.644531 68.726562 69.636719 68.34375 67.582031 C 65.261719 60.105469 60.316406 58.429688 53.519531 62.558594 C 53.433594 61.890625 53.601562 61.304688 54.023438 60.796875 C 59.675781 57.15625 64.535156 57.910156 68.597656 63.058594 Z M 68.597656 63.058594 "/>
<path style=" stroke:none;fill-rule:evenodd;fill:rgb(90.196078%,86.27451%,82.352941%);fill-opacity:1;" d="M 80.65625 64.0625 C 84.132812 63.507812 84.96875 64.679688 83.171875 67.582031 C 82.394531 68.207031 81.640625 68.207031 80.910156 67.582031 C 80.660156 66.421875 80.574219 65.25 80.65625 64.0625 Z M 80.65625 64.0625 "/>
<path style=" stroke:none;fill-rule:evenodd;fill:rgb(94.509804%,87.843137%,80.784314%);fill-opacity:1;" d="M 24.375 63.5625 C 26.792969 70.996094 31.648438 76.105469 38.945312 78.886719 C 34.75 78.972656 30.5625 79.222656 26.382812 79.640625 C 26.566406 79.984375 26.734375 80.320312 26.886719 80.644531 C 26.886719 80.8125 26.886719 80.980469 26.886719 81.148438 C 23.085938 77.394531 19.90625 73.207031 17.335938 68.585938 C 20.105469 67.496094 22.449219 65.820312 24.375 63.5625 Z M 24.375 63.5625 "/>
<path style=" stroke:none;fill-rule:evenodd;fill:rgb(9.803922%,8.627451%,8.627451%);fill-opacity:1;" d="M 50.503906 69.089844 C 50.648438 70.902344 50.484375 72.660156 50.003906 74.363281 C 51.246094 75.070312 51.246094 75.824219 50.003906 76.625 C 50.910156 77.261719 51.914062 77.597656 53.019531 77.628906 C 53.019531 77.796875 53.019531 77.964844 53.019531 78.132812 C 52.164062 78.214844 51.328125 78.128906 50.503906 77.882812 C 48.171875 76.761719 46.078125 75.671875 44.222656 74.617188 C 43.972656 73.453125 43.890625 72.28125 43.972656 71.097656 C 44.574219 67.59375 45.078125 64.074219 45.480469 60.546875 C 45.558594 58.984375 45.894531 57.476562 46.484375 56.023438 C 46.777344 56.128906 47.03125 56.296875 47.238281 56.527344 C 47.324219 57.28125 47.40625 58.035156 47.488281 58.789062 C 47.039062 63.246094 46.621094 67.683594 46.234375 72.101562 C 46.914062 72.867188 47.667969 73.535156 48.496094 74.113281 C 48.828125 73.777344 49.164062 73.445312 49.5 73.109375 C 49.835938 71.699219 50.171875 70.359375 50.503906 69.089844 Z M 50.503906 69.089844 "/>
<path style=" stroke:none;fill-rule:evenodd;fill:rgb(96.862745%,96.862745%,95.294118%);fill-opacity:1;" d="M 17.335938 68.585938 C 19.90625 73.207031 23.085938 77.394531 26.886719 81.148438 C 29.265625 84.109375 32.28125 86.203125 35.929688 87.429688 C 34.433594 87.679688 32.925781 87.761719 31.410156 87.679688 C 28.722656 87.34375 26.210938 86.503906 23.871094 85.167969 C 17.785156 81.421875 13.765625 76.058594 11.808594 69.089844 C 13.621094 68.589844 15.464844 68.425781 17.335938 68.585938 Z M 17.335938 68.585938 "/>
<path style=" stroke:none;fill-rule:evenodd;fill:rgb(86.27451%,82.352941%,77.647059%);fill-opacity:1;" d="M 85.683594 68.585938 C 85.378906 70.007812 84.875 71.347656 84.175781 72.605469 C 82.660156 72.6875 81.152344 72.605469 79.652344 72.355469 C 78.5625 71.765625 78.058594 70.84375 78.144531 69.589844 C 78.144531 69.089844 78.144531 68.585938 78.144531 68.082031 C 80.199219 67.980469 81.957031 68.648438 83.421875 70.09375 C 84.234375 69.648438 84.988281 69.144531 85.683594 68.585938 Z M 85.683594 68.585938 "/>
<path style=" stroke:none;fill-rule:evenodd;fill:rgb(63.529412%,63.529412%,59.215686%);fill-opacity:1;" d="M 70.605469 68.082031 C 72.273438 73.796875 70.097656 76.980469 64.074219 77.628906 C 65.898438 76.808594 67.242188 75.46875 68.09375 73.609375 C 68.457031 73.820312 68.707031 74.15625 68.847656 74.617188 C 70.09375 72.628906 70.679688 70.453125 70.605469 68.082031 Z M 70.605469 68.082031 "/>
<path style=" stroke:none;fill-rule:evenodd;fill:rgb(60.392157%,56.078431%,52.54902%);fill-opacity:1;" d="M 74.625 65.570312 C 74.886719 67.28125 75.304688 68.953125 75.882812 70.597656 C 76.492188 73.804688 75.988281 76.820312 74.375 79.640625 C 73.441406 80.996094 72.1875 81.835938 70.605469 82.152344 C 71.808594 81.027344 72.730469 79.6875 73.371094 78.132812 C 73.699219 74.941406 73.617188 71.757812 73.121094 68.585938 C 72.90625 67.175781 73.410156 66.171875 74.625 65.570312 Z M 74.625 65.570312 "/>
<path style=" stroke:none;fill-rule:evenodd;fill:rgb(87.843137%,85.098039%,82.352941%);fill-opacity:1;" d="M 53.019531 78.132812 C 53.019531 77.964844 53.019531 77.796875 53.019531 77.628906 C 54.882812 77.59375 56.726562 77.757812 58.546875 78.132812 C 58.546875 78.636719 58.546875 79.136719 58.546875 79.640625 C 57.363281 80.675781 56.859375 82.015625 57.039062 83.660156 C 56.210938 83.769531 55.457031 83.601562 54.777344 83.15625 C 54.769531 81.226562 54.183594 79.550781 53.019531 78.132812 Z M 53.019531 78.132812 "/>
<use xlink:href="#surface17" mask="url(#mask4)"/>
<path style=" stroke:none;fill-rule:evenodd;fill:rgb(3.921569%,4.313725%,4.313725%);fill-opacity:1;" d="M 53.019531 78.132812 C 54.183594 79.550781 54.769531 81.226562 54.777344 83.15625 C 55.457031 83.601562 56.210938 83.769531 57.039062 83.660156 C 57.03125 84.65625 57.53125 85.160156 58.546875 85.167969 C 60.371094 84.65625 62.214844 84.574219 64.074219 84.917969 C 63.453125 85.03125 62.949219 85.285156 62.566406 85.671875 C 61.167969 85.558594 59.828125 85.726562 58.546875 86.171875 C 58.210938 86.171875 57.875 86.171875 57.539062 86.171875 C 55.890625 85.816406 54.214844 85.648438 52.515625 85.671875 C 52.6875 89.609375 54.695312 92.039062 58.546875 92.957031 C 61.84375 93.671875 64.523438 92.75 66.585938 90.191406 C 66.753906 90.191406 66.921875 90.191406 67.089844 90.191406 C 65.898438 93.046875 63.722656 94.554688 60.554688 94.714844 C 56.773438 94.363281 54.011719 92.519531 52.265625 89.1875 C 51.855469 88.523438 51.265625 88.1875 50.503906 88.183594 C 46.542969 89.175781 42.523438 89.847656 38.445312 90.191406 C 33.480469 89.972656 28.789062 88.71875 24.375 86.421875 C 23.996094 86.085938 23.828125 85.667969 23.871094 85.167969 C 26.210938 86.503906 28.722656 87.34375 31.410156 87.679688 C 34.683594 88.273438 38.035156 88.273438 41.460938 87.679688 C 44.289062 87.0625 47.136719 86.476562 50.003906 85.921875 C 47.324219 85.753906 44.640625 85.585938 41.960938 85.417969 C 40.84375 85.132812 39.839844 84.714844 38.945312 84.164062 C 40.121094 84.164062 41.292969 84.164062 42.464844 84.164062 C 45.359375 84.339844 48.207031 84.085938 51.007812 83.410156 C 52.125 81.816406 52.792969 80.058594 53.019531 78.132812 Z M 53.019531 78.132812 "/>
<use xlink:href="#surface20" mask="url(#mask5)"/>
<use xlink:href="#surface23" mask="url(#mask6)"/>
<path style=" stroke:none;fill-rule:evenodd;fill:rgb(57.647059%,56.078431%,54.117647%);fill-opacity:1;" d="M 38.945312 84.164062 C 39.839844 84.714844 40.84375 85.132812 41.960938 85.417969 C 44.640625 85.585938 47.324219 85.753906 50.003906 85.921875 C 47.136719 86.476562 44.289062 87.0625 41.460938 87.679688 C 40.050781 87.269531 38.542969 87.015625 36.9375 86.925781 C 37.507812 86.554688 37.507812 86.132812 36.9375 85.671875 C 37.617188 85.15625 38.285156 84.652344 38.945312 84.164062 Z M 38.945312 84.164062 "/>
<path style=" stroke:none;fill-rule:evenodd;fill:rgb(80%,75.294118%,69.803922%);fill-opacity:1;" d="M 26.886719 80.644531 C 31.9375 82.675781 37.128906 83.847656 42.464844 84.164062 C 41.292969 84.164062 40.121094 84.164062 38.945312 84.164062 C 38.285156 84.652344 37.617188 85.15625 36.9375 85.671875 C 37.507812 86.132812 37.507812 86.554688 36.9375 86.925781 C 38.542969 87.015625 40.050781 87.269531 41.460938 87.679688 C 38.035156 88.273438 34.683594 88.273438 31.410156 87.679688 C 32.925781 87.761719 34.433594 87.679688 35.929688 87.429688 C 32.28125 86.203125 29.265625 84.109375 26.886719 81.148438 C 26.886719 80.980469 26.886719 80.8125 26.886719 80.644531 Z M 26.886719 80.644531 "/>
<path style=" stroke:none;fill-rule:evenodd;fill:rgb(84.705882%,82.352941%,75.294118%);fill-opacity:1;" d="M 57.539062 86.171875 C 57.863281 87.925781 58.867188 89.179688 60.554688 89.941406 C 62.613281 89.9375 64.625 90.019531 66.585938 90.191406 C 64.523438 92.75 61.84375 93.671875 58.546875 92.957031 C 54.695312 92.039062 52.6875 89.609375 52.515625 85.671875 C 54.214844 85.648438 55.890625 85.816406 57.539062 86.171875 Z M 57.539062 86.171875 "/>
<path style=" stroke:none;fill-rule:evenodd;fill:rgb(56.470588%,64.705882%,64.705882%);fill-opacity:1;" d="M 62.566406 85.671875 C 63.402344 85.671875 64.242188 85.671875 65.078125 85.671875 C 64.726562 88.617188 63.050781 89.707031 60.054688 88.9375 C 58.996094 88.300781 58.492188 87.378906 58.546875 86.171875 C 59.828125 85.726562 61.167969 85.558594 62.566406 85.671875 Z M 62.566406 85.671875 "/>
<path style=" stroke:none;fill-rule:evenodd;fill:rgb(32.941176%,41.568627%,42.745098%);fill-opacity:1;" d="M 65.078125 85.671875 C 66.417969 85.671875 67.757812 85.671875 69.097656 85.671875 C 68.835938 87.367188 68.167969 88.875 67.089844 90.191406 C 66.921875 90.191406 66.753906 90.191406 66.585938 90.191406 C 64.625 90.019531 62.613281 89.9375 60.554688 89.941406 C 58.867188 89.179688 57.863281 87.925781 57.539062 86.171875 C 57.875 86.171875 58.210938 86.171875 58.546875 86.171875 C 58.492188 87.378906 58.996094 88.300781 60.054688 88.9375 C 63.050781 89.707031 64.726562 88.617188 65.078125 85.671875 Z M 65.078125 85.671875 "/>
</g>
</svg>
