<?xml version="1.0" encoding="UTF-8"?>
<svg xmlns="http://www.w3.org/2000/svg" xmlns:xlink="http://www.w3.org/1999/xlink" width="px" height="px" viewBox="0 0 114 114" version="1.1">
<defs>
<filter id="alpha" filterUnits="objectBoundingBox" x="0%" y="0%" width="100%" height="100%">
  <feColorMatrix type="matrix" in="SourceGraphic" values="0 0 0 0 1 0 0 0 0 1 0 0 0 0 1 0 0 0 1 0"/>
</filter>
<mask id="mask0">
  <g filter="url(#alpha)">
<rect x="0" y="0" width="114" height="114" style="fill:rgb(0%,0%,0%);fill-opacity:0.0509804;stroke:none;"/>
  </g>
</mask>
<clipPath id="clip1">
  <rect x="0" y="0" width="114" height="114"/>
</clipPath>
<g id="surface5" clip-path="url(#clip1)">
<path style=" stroke:none;fill-rule:evenodd;fill:rgb(12.941176%,25.490196%,32.54902%);fill-opacity:1;" d="M 69.054688 1.757812 C 63.289062 2.5 58.265625 4.84375 53.988281 8.789062 C 53.382812 8.246094 53.046875 7.578125 52.980469 6.78125 C 53.464844 7.007812 53.882812 7.34375 54.238281 7.785156 C 58.1875 4.386719 62.707031 2.042969 67.796875 0.753906 C 68.449219 0.824219 68.867188 1.15625 69.054688 1.757812 Z M 69.054688 1.757812 "/>
</g>
<mask id="mask1">
  <g filter="url(#alpha)">
<rect x="0" y="0" width="114" height="114" style="fill:rgb(0%,0%,0%);fill-opacity:0.337255;stroke:none;"/>
  </g>
</mask>
<clipPath id="clip2">
  <rect x="0" y="0" width="114" height="114"/>
</clipPath>
<g id="surface8" clip-path="url(#clip2)">
<path style=" stroke:none;fill-rule:evenodd;fill:rgb(12.941176%,23.137255%,29.411765%);fill-opacity:1;" d="M 47.960938 -0.25 C 48.796875 -0.25 49.632812 -0.25 50.472656 -0.25 C 51.3125 2.097656 52.148438 4.441406 52.980469 6.78125 C 51.726562 4.605469 50.472656 2.429688 49.214844 0.25 C 43.507812 2.363281 38.90625 5.878906 35.40625 10.796875 C 33.566406 10.410156 31.890625 9.742188 30.382812 8.789062 C 31.929688 8.914062 33.4375 9.246094 34.902344 9.792969 C 36.976562 7.300781 39.320312 5.039062 41.933594 3.011719 C 44.054688 2.039062 46.0625 0.949219 47.960938 -0.25 Z M 47.960938 -0.25 "/>
</g>
<mask id="mask2">
  <g filter="url(#alpha)">
<rect x="0" y="0" width="114" height="114" style="fill:rgb(0%,0%,0%);fill-opacity:0.113725;stroke:none;"/>
  </g>
</mask>
<clipPath id="clip3">
  <rect x="0" y="0" width="114" height="114"/>
</clipPath>
<g id="surface11" clip-path="url(#clip3)">
<path style=" stroke:none;fill-rule:evenodd;fill:rgb(10.980392%,20.392157%,25.882353%);fill-opacity:1;" d="M 30.382812 8.789062 C 29.023438 8.3125 27.683594 8.3125 26.367188 8.789062 C 24.6875 11.136719 23.265625 13.648438 22.097656 16.320312 C 21.847656 18.15625 21.761719 19.996094 21.847656 21.847656 C 17.136719 21.488281 12.449219 20.988281 7.785156 20.339844 C 7.800781 23.371094 8.054688 26.382812 8.539062 29.378906 C 9.304688 31.910156 10.058594 34.417969 10.796875 36.910156 C 7.964844 36.6875 5.289062 37.1875 2.761719 38.417969 C 3.390625 37.597656 4.226562 37.011719 5.273438 36.660156 C 6.792969 36.390625 8.300781 36.054688 9.792969 35.65625 C 7.84375 30.578125 7.007812 25.304688 7.28125 19.835938 C 12.019531 19.902344 16.703125 20.402344 21.34375 21.34375 C 21.261719 19.496094 21.34375 17.652344 21.59375 15.820312 C 22.632812 13.578125 23.804688 11.402344 25.109375 9.289062 C 26.722656 7.453125 28.480469 7.289062 30.382812 8.789062 Z M 30.382812 8.789062 "/>
</g>
<mask id="mask3">
  <g filter="url(#alpha)">
<rect x="0" y="0" width="114" height="114" style="fill:rgb(0%,0%,0%);fill-opacity:0.2;stroke:none;"/>
  </g>
</mask>
<clipPath id="clip4">
  <rect x="0" y="0" width="114" height="114"/>
</clipPath>
<g id="surface14" clip-path="url(#clip4)">
<path style=" stroke:none;fill-rule:evenodd;fill:rgb(12.941176%,26.27451%,32.54902%);fill-opacity:1;" d="M 69.054688 1.757812 C 71.527344 4.863281 73.367188 8.378906 74.578125 12.304688 C 83.554688 11.300781 88.996094 15.152344 90.898438 23.855469 C 92.199219 24.882812 93.457031 25.972656 94.664062 27.117188 C 98.371094 26.546875 101.050781 27.96875 102.699219 31.386719 C 103.960938 32.003906 104.96875 32.839844 105.714844 33.898438 C 104.496094 33.539062 103.324219 33.039062 102.199219 32.390625 C 100.722656 28.726562 98.046875 27.300781 94.164062 28.125 C 93.042969 26.75 91.703125 25.660156 90.144531 24.859375 C 88.578125 15.957031 83.386719 12.441406 74.578125 14.3125 C 73.726562 12.257812 72.890625 10.25 72.066406 8.285156 C 70.664062 6.320312 69.660156 4.144531 69.054688 1.757812 Z M 69.054688 1.757812 "/>
</g>
<mask id="mask4">
  <g filter="url(#alpha)">
<rect x="0" y="0" width="114" height="114" style="fill:rgb(0%,0%,0%);fill-opacity:0.992157;stroke:none;"/>
  </g>
</mask>
<clipPath id="clip5">
  <rect x="0" y="0" width="114" height="114"/>
</clipPath>
<g id="surface17" clip-path="url(#clip5)">
<path style=" stroke:none;fill-rule:evenodd;fill:rgb(3.921569%,4.705882%,3.137255%);fill-opacity:1;" d="M 52.980469 6.78125 C 53.046875 7.578125 53.382812 8.246094 53.988281 8.789062 C 58.265625 4.84375 63.289062 2.5 69.054688 1.757812 C 69.660156 4.144531 70.664062 6.320312 72.066406 8.285156 C 71.417969 8.167969 70.914062 8.335938 70.558594 8.789062 C 69.527344 7.605469 68.1875 7.101562 66.542969 7.28125 C 66.820312 6.050781 66.820312 4.878906 66.542969 3.765625 C 61.464844 5.671875 57.03125 8.519531 53.234375 12.304688 C 52.074219 10.496094 50.984375 8.65625 49.96875 6.78125 C 49.550781 7.28125 49.132812 7.785156 48.714844 8.285156 C 48.464844 6.621094 48.378906 4.945312 48.460938 3.265625 C 47.660156 3.128906 46.988281 3.296875 46.453125 3.765625 C 44.328125 4.722656 42.488281 6.058594 40.929688 7.785156 C 40.042969 8.167969 39.542969 8.835938 39.421875 9.792969 C 38.515625 10.589844 37.847656 11.59375 37.414062 12.804688 C 36.910156 12.972656 36.410156 13.140625 35.90625 13.308594 C 33.398438 12.308594 30.890625 11.304688 28.375 10.296875 C 27.414062 11.375 26.578125 12.546875 25.863281 13.8125 C 23.992188 15.78125 23.40625 18.125 24.105469 20.839844 C 25.636719 22.621094 27.058594 24.460938 28.375 26.367188 C 27.222656 26.722656 26.21875 26.304688 25.359375 25.109375 C 21.261719 24.417969 17.242188 23.667969 13.308594 22.851562 C 12.25 22.363281 11.078125 22.195312 9.792969 22.347656 C 9.640625 23.796875 9.804688 25.136719 10.296875 26.367188 C 10.152344 27.328125 10.320312 28.164062 10.796875 28.875 C 10.75 30.207031 11.085938 31.378906 11.800781 32.390625 C 12.195312 34.851562 13.367188 36.859375 15.316406 38.417969 C 15.085938 38.820312 14.753906 38.988281 14.3125 38.921875 C 11.964844 38.835938 9.621094 38.921875 7.28125 39.171875 C 6.660156 39.289062 6.160156 39.539062 5.773438 39.925781 C 4.347656 39.9375 3.761719 40.609375 4.019531 41.933594 C 6.890625 45.644531 9.570312 49.496094 12.054688 53.484375 C 13.054688 54.195312 14.140625 54.695312 15.316406 54.992188 C 15.957031 56.699219 15.285156 57.367188 13.308594 57 C 11.910156 56.199219 10.402344 55.695312 8.789062 55.492188 C 8.019531 54.847656 7.179688 54.847656 6.277344 55.492188 C 6.339844 55.796875 6.507812 55.964844 6.78125 55.996094 C 8.332031 63.539062 12.015625 69.816406 17.828125 74.828125 C 14.824219 74.585938 11.808594 74.167969 8.789062 73.574219 C 8.171875 73.582031 7.671875 73.75 7.28125 74.074219 C 6.707031 74.722656 6.875 75.308594 7.785156 75.832031 C 7.132812 76.078125 6.464844 76.164062 5.773438 76.082031 C 5.128906 74.625 4.628906 73.117188 4.269531 71.5625 C 6.46875 71.726562 8.648438 71.558594 10.796875 71.0625 C 7.195312 65.535156 5.019531 59.507812 4.269531 52.980469 C 5.609375 52.980469 6.945312 52.980469 8.285156 52.980469 C 6.597656 48.855469 4.167969 45.171875 1.003906 41.933594 C 0.667969 41.433594 0.667969 40.929688 1.003906 40.425781 C 1.695312 39.820312 2.28125 39.152344 2.761719 38.417969 C 5.289062 37.1875 7.964844 36.6875 10.796875 36.910156 C 10.058594 34.417969 9.304688 31.910156 8.539062 29.378906 C 8.054688 26.382812 7.800781 23.371094 7.785156 20.339844 C 12.449219 20.988281 17.136719 21.488281 21.847656 21.847656 C 21.761719 19.996094 21.847656 18.15625 22.097656 16.320312 C 23.265625 13.648438 24.6875 11.136719 26.367188 8.789062 C 27.683594 8.3125 29.023438 8.3125 30.382812 8.789062 C 31.890625 9.742188 33.566406 10.410156 35.40625 10.796875 C 38.90625 5.878906 43.507812 2.363281 49.214844 0.25 C 50.472656 2.429688 51.726562 4.605469 52.980469 6.78125 Z M 52.980469 6.78125 "/>
</g>
<mask id="mask5">
  <g filter="url(#alpha)">
<rect x="0" y="0" width="114" height="114" style="fill:rgb(0%,0%,0%);fill-opacity:0.984314;stroke:none;"/>
  </g>
</mask>
<clipPath id="clip6">
  <rect x="0" y="0" width="114" height="114"/>
</clipPath>
<g id="surface20" clip-path="url(#clip6)">
<path style=" stroke:none;fill-rule:evenodd;fill:rgb(6.666667%,5.882353%,6.27451%);fill-opacity:1;" d="M 72.066406 8.285156 C 72.890625 10.25 73.726562 12.257812 74.578125 14.3125 C 83.386719 12.441406 88.578125 15.957031 90.144531 24.859375 C 91.703125 25.660156 93.042969 26.75 94.164062 28.125 C 98.046875 27.300781 100.722656 28.726562 102.199219 32.390625 C 103.324219 33.039062 104.496094 33.539062 105.714844 33.898438 C 106.761719 34.445312 107.429688 35.28125 107.722656 36.410156 C 107.953125 37.90625 108.121094 39.414062 108.226562 40.929688 C 112.28125 41.683594 113.285156 43.863281 111.238281 47.457031 C 112.542969 49.601562 112.542969 51.777344 111.238281 53.988281 C 112.496094 56.527344 112.496094 59.121094 111.238281 61.769531 C 112.578125 63.78125 112.578125 65.789062 111.238281 67.796875 C 112.707031 71.40625 111.621094 73.832031 107.972656 75.078125 C 107.117188 76.121094 106.53125 77.292969 106.214844 78.59375 C 105.507812 79.808594 104.503906 80.644531 103.203125 81.105469 C 100.867188 81.523438 98.523438 81.941406 96.171875 82.359375 C 95.644531 84.007812 94.808594 85.429688 93.660156 86.628906 C 93.769531 85.785156 93.433594 85.285156 92.65625 85.125 C 93.902344 81.472656 94.992188 77.792969 95.921875 74.074219 C 96.339844 73.65625 96.757812 73.238281 97.175781 72.820312 C 99.113281 72.730469 100.953125 72.480469 102.699219 72.066406 C 103.183594 71.179688 103.351562 70.175781 103.203125 69.054688 C 101.863281 69.054688 100.523438 69.054688 99.183594 69.054688 C 98.628906 69.023438 98.125 68.855469 97.679688 68.550781 C 96.117188 66.796875 95.785156 64.789062 96.675781 62.523438 C 95.992188 61.675781 95.324219 60.839844 94.664062 60.011719 C 93.890625 56.699219 94.894531 54.1875 97.679688 52.480469 C 96.359375 50.394531 96.359375 48.300781 97.679688 46.203125 C 96.996094 45.234375 96.578125 44.148438 96.421875 42.9375 C 94.929688 42.152344 93.507812 41.316406 92.152344 40.425781 C 91.40625 39.351562 90.902344 38.179688 90.648438 36.910156 C 90.566406 35.5625 90.648438 34.222656 90.898438 32.894531 C 91.582031 31.710938 92.082031 30.539062 92.40625 29.378906 C 90.429688 26.878906 87.835938 25.621094 84.621094 25.613281 C 78.09375 25.277344 71.5625 25.277344 65.035156 25.613281 C 60.617188 26.816406 56.429688 28.574219 52.480469 30.886719 C 52.546875 30.515625 52.460938 30.179688 52.230469 29.882812 C 50.882812 31.398438 49.875 32.90625 49.214844 34.402344 C 48.964844 33.242188 48.882812 32.070312 48.964844 30.886719 C 49.925781 30.175781 50.847656 29.339844 51.726562 28.375 C 51.820312 26.425781 51.90625 24.585938 51.976562 22.851562 C 51.976562 23.183594 52.144531 23.351562 52.480469 23.351562 C 52.648438 23.6875 52.816406 24.023438 52.980469 24.355469 C 52.953125 27.671875 54.292969 28.257812 57 26.113281 C 57.773438 25.558594 58.105469 24.804688 58.003906 23.855469 C 57.921875 21.839844 58.003906 19.828125 58.253906 17.828125 C 59.183594 19.203125 59.769531 20.707031 60.011719 22.347656 C 59.871094 23.246094 60.039062 24.082031 60.515625 24.859375 C 62.832031 24.179688 65.175781 23.59375 67.546875 23.101562 C 68.394531 20.664062 69.566406 18.40625 71.0625 16.320312 C 71.640625 16.175781 71.972656 15.757812 72.066406 15.066406 C 71.445312 12.996094 70.941406 10.902344 70.558594 8.789062 C 70.914062 8.335938 71.417969 8.167969 72.066406 8.285156 Z M 72.066406 8.285156 "/>
</g>
<mask id="mask6">
  <g filter="url(#alpha)">
<rect x="0" y="0" width="114" height="114" style="fill:rgb(0%,0%,0%);fill-opacity:0.435294;stroke:none;"/>
  </g>
</mask>
<clipPath id="clip7">
  <rect x="0" y="0" width="114" height="114"/>
</clipPath>
<g id="surface23" clip-path="url(#clip7)">
<path style=" stroke:none;fill-rule:evenodd;fill:rgb(11.372549%,17.647059%,21.960784%);fill-opacity:1;" d="M 2.761719 38.417969 C 2.28125 39.152344 1.695312 39.820312 1.003906 40.425781 C 0.667969 40.929688 0.667969 41.433594 1.003906 41.933594 C 4.167969 45.171875 6.597656 48.855469 8.285156 52.980469 C 6.945312 52.980469 5.609375 52.980469 4.269531 52.980469 C 5.019531 59.507812 7.195312 65.535156 10.796875 71.0625 C 8.648438 71.558594 6.46875 71.726562 4.269531 71.5625 C 4.628906 73.117188 5.128906 74.625 5.773438 76.082031 C 4.289062 74.777344 3.617188 73.105469 3.765625 71.0625 C 5.609375 71.0625 7.449219 71.0625 9.289062 71.0625 C 6.59375 65.652344 4.585938 59.960938 3.265625 53.988281 C 3.300781 53.347656 3.464844 52.761719 3.765625 52.230469 C 4.835938 51.957031 5.839844 51.539062 6.78125 50.972656 C 4.792969 47.492188 2.449219 44.308594 -0.25 41.433594 C -0.25 41.097656 -0.25 40.761719 -0.25 40.425781 C 0.625 39.546875 1.628906 38.878906 2.761719 38.417969 Z M 2.761719 38.417969 "/>
</g>
<mask id="mask7">
  <g filter="url(#alpha)">
<rect x="0" y="0" width="114" height="114" style="fill:rgb(0%,0%,0%);fill-opacity:0.0784314;stroke:none;"/>
  </g>
</mask>
<clipPath id="clip8">
  <rect x="0" y="0" width="114" height="114"/>
</clipPath>
<g id="surface26" clip-path="url(#clip8)">
<path style=" stroke:none;fill-rule:evenodd;fill:rgb(12.941176%,25.098039%,31.764706%);fill-opacity:1;" d="M 107.722656 36.410156 C 108.40625 37.273438 108.910156 38.277344 109.230469 39.421875 C 112.460938 41.71875 113.71875 44.898438 112.996094 48.964844 C 113.1875 49.242188 113.4375 49.410156 113.75 49.46875 C 113.75 50.136719 113.75 50.804688 113.75 51.476562 C 113.386719 51.6875 113.136719 52.019531 112.996094 52.480469 C 112.722656 54.414062 112.808594 56.339844 113.246094 58.253906 C 113.277344 59.390625 112.941406 60.394531 112.242188 61.269531 C 113.5625 63.546875 113.5625 65.808594 112.242188 68.046875 C 113.328125 71.574219 112.15625 74.003906 108.726562 75.332031 C 107.957031 76.511719 107.121094 77.601562 106.214844 78.59375 C 106.53125 77.292969 107.117188 76.121094 107.972656 75.078125 C 111.621094 73.832031 112.707031 71.40625 111.238281 67.796875 C 112.578125 65.789062 112.578125 63.78125 111.238281 61.769531 C 112.496094 59.121094 112.496094 56.527344 111.238281 53.988281 C 112.542969 51.777344 112.542969 49.601562 111.238281 47.457031 C 113.285156 43.863281 112.28125 41.683594 108.226562 40.929688 C 108.121094 39.414062 107.953125 37.90625 107.722656 36.410156 Z M 107.722656 36.410156 "/>
</g>
<mask id="mask8">
  <g filter="url(#alpha)">
<rect x="0" y="0" width="114" height="114" style="fill:rgb(0%,0%,0%);fill-opacity:0.984314;stroke:none;"/>
  </g>
</mask>
<clipPath id="clip9">
  <rect x="0" y="0" width="114" height="114"/>
</clipPath>
<g id="surface29" clip-path="url(#clip9)">
<path style=" stroke:none;fill-rule:evenodd;fill:rgb(5.490196%,5.882353%,5.098039%);fill-opacity:1;" d="M 43.441406 25.359375 C 45.113281 26.699219 46.789062 28.039062 48.460938 29.378906 C 48.492188 29.9375 48.660156 30.4375 48.964844 30.886719 C 48.882812 32.070312 48.964844 33.242188 49.214844 34.402344 C 49.875 32.90625 50.882812 31.398438 52.230469 29.882812 C 52.460938 30.179688 52.546875 30.515625 52.480469 30.886719 C 51.304688 32.484375 50.21875 34.15625 49.214844 35.90625 C 48.652344 40.609375 48.066406 45.292969 47.457031 49.96875 C 48.191406 49.933594 48.859375 50.101562 49.46875 50.472656 C 53.035156 52.199219 55.546875 54.875 57 58.507812 C 56.296875 61.414062 54.707031 63.757812 52.230469 65.539062 C 51.988281 66.011719 51.902344 66.515625 51.976562 67.042969 C 50.804688 67.042969 49.632812 67.042969 48.460938 67.042969 C 48.710938 71.980469 49.046875 76.835938 49.46875 81.609375 C 53.296875 85.699219 57.984375 88.210938 63.527344 89.140625 C 63.695312 89.140625 63.863281 89.140625 64.03125 89.140625 C 70.976562 89.722656 78.003906 89.808594 85.125 89.390625 C 85.746094 89.277344 86.246094 89.023438 86.628906 88.640625 C 87.1875 88.609375 87.6875 88.441406 88.136719 88.136719 C 89.90625 87.539062 91.414062 86.535156 92.65625 85.125 C 93.433594 85.285156 93.769531 85.785156 93.660156 86.628906 C 92.65625 88.136719 91.316406 89.308594 89.644531 90.144531 C 87.765625 99.285156 82.410156 102.464844 73.574219 99.6875 C 71.898438 102.113281 69.972656 104.289062 67.796875 106.214844 C 67.710938 107.550781 67.792969 108.890625 68.046875 110.234375 C 66.03125 110.316406 64.023438 110.234375 62.023438 109.980469 C 59.753906 109.203125 57.578125 108.28125 55.492188 107.21875 C 54.667969 106.058594 53.664062 105.054688 52.480469 104.207031 C 50.589844 107.1875 48.414062 109.949219 45.953125 112.492188 C 45.132812 112.742188 44.292969 112.824219 43.441406 112.746094 C 40.394531 110.367188 37.882812 107.523438 35.90625 104.207031 C 35.492188 103.761719 34.992188 103.59375 34.402344 103.703125 C 31.902344 103.867188 29.894531 104.953125 28.375 106.96875 C 27.871094 107.304688 27.371094 107.304688 26.867188 106.96875 C 25.644531 105.609375 24.890625 104.019531 24.609375 102.199219 C 24.355469 99.355469 24.273438 96.511719 24.355469 93.660156 C 24.355469 92.65625 24.355469 91.652344 24.355469 90.648438 C 21.507812 90.285156 18.828125 89.363281 16.320312 87.886719 C 11.972656 84.628906 8.457031 80.695312 5.773438 76.082031 C 6.464844 76.164062 7.132812 76.078125 7.785156 75.832031 C 6.875 75.308594 6.707031 74.722656 7.28125 74.074219 C 9.105469 76.886719 11.285156 79.398438 13.8125 81.609375 C 17.664062 86.378906 22.6875 88.722656 28.875 88.640625 C 28.875 89.140625 28.875 89.644531 28.875 90.144531 C 27.605469 91.34375 26.855469 92.851562 26.617188 94.664062 C 26.132812 97.753906 26.382812 100.765625 27.371094 103.703125 C 27.539062 103.871094 27.703125 104.039062 27.871094 104.207031 C 30.429688 102.015625 33.445312 100.925781 36.910156 100.941406 C 37.507812 100.261719 38.175781 99.675781 38.921875 99.183594 C 39.367188 99.597656 39.53125 100.101562 39.421875 100.691406 C 38.621094 101.34375 38.367188 102.179688 38.667969 103.203125 C 40.035156 104.816406 41.289062 106.488281 42.4375 108.226562 C 43.035156 109.589844 44.039062 110.175781 45.449219 109.980469 C 47.082031 108.601562 48.421875 107.011719 49.46875 105.210938 C 50.457031 103.570312 51.460938 101.894531 52.480469 100.1875 C 55.332031 104.167969 59.097656 106.84375 63.78125 108.226562 C 64.199219 108.058594 64.617188 107.890625 65.035156 107.722656 C 64.789062 106.957031 64.453125 106.285156 64.03125 105.714844 C 67.386719 104.425781 69.898438 102.082031 71.5625 98.683594 C 71.050781 97.835938 70.382812 97.164062 69.554688 96.675781 C 69.476562 95.84375 69.140625 95.175781 68.550781 94.664062 C 68.363281 93.78125 68.027344 92.945312 67.546875 92.152344 C 65.128906 91.75 62.699219 91.414062 60.265625 91.148438 C 59.726562 91.164062 59.308594 91.332031 59.007812 91.652344 C 58.804688 94.578125 58.722656 97.589844 58.757812 100.691406 C 58.664062 99.417969 58.414062 98.246094 58.003906 97.175781 C 57.453125 96.621094 57.117188 95.953125 57 95.167969 C 57.164062 93.132812 56.996094 91.121094 56.496094 89.140625 C 54.386719 87.582031 52.042969 86.578125 49.46875 86.128906 C 49.507812 87.710938 49.007812 89.046875 47.960938 90.144531 C 47.507812 89.789062 47.339844 89.289062 47.457031 88.640625 C 47.457031 88.136719 47.457031 87.632812 47.457031 87.132812 C 48.109375 86.03125 48.109375 84.859375 47.457031 83.617188 C 45.457031 83.355469 43.78125 84.109375 42.4375 85.875 C 40.8125 86.773438 39.136719 87.527344 37.414062 88.136719 C 37.078125 88.136719 36.910156 87.96875 36.910156 87.632812 C 36.910156 87.46875 36.910156 87.300781 36.910156 87.132812 C 39.160156 86.550781 41 85.378906 42.4375 83.617188 C 44.28125 82.859375 45.539062 81.519531 46.203125 79.597656 C 46.621094 76.238281 46.535156 72.890625 45.953125 69.554688 C 42.933594 71.433594 39.75 72.773438 36.410156 73.574219 C 35.738281 73.574219 35.070312 73.574219 34.402344 73.574219 C 33.117188 73.722656 31.945312 73.554688 30.886719 73.070312 C 32.226562 72.902344 33.5625 72.734375 34.902344 72.566406 C 36.238281 72.351562 37.410156 71.847656 38.417969 71.0625 C 38.585938 71.0625 38.753906 71.0625 38.921875 71.0625 C 41.535156 70.109375 43.710938 68.601562 45.449219 66.542969 C 46.585938 63.117188 46.667969 59.601562 45.699219 55.996094 C 44.964844 56.691406 44.546875 56.523438 44.445312 55.492188 C 44.882812 54.378906 45.046875 53.207031 44.945312 51.976562 C 45.820312 48.582031 46.320312 45.066406 46.453125 41.433594 C 46.535156 39.914062 46.453125 38.410156 46.203125 36.910156 C 44.378906 35.628906 42.621094 34.289062 40.929688 32.894531 C 41.265625 32.726562 41.597656 32.558594 41.933594 32.390625 C 43.460938 32.863281 44.882812 33.53125 46.203125 34.402344 C 46.589844 34.328125 46.925781 34.160156 47.207031 33.898438 C 47.542969 32.726562 47.542969 31.554688 47.207031 30.382812 C 45.511719 28.746094 44.257812 27.070312 43.441406 25.359375 Z M 43.441406 25.359375 "/>
</g>
<mask id="mask9">
  <g filter="url(#alpha)">
<rect x="0" y="0" width="114" height="114" style="fill:rgb(0%,0%,0%);fill-opacity:0.156863;stroke:none;"/>
  </g>
</mask>
<clipPath id="clip10">
  <rect x="0" y="0" width="114" height="114"/>
</clipPath>
<g id="surface32" clip-path="url(#clip10)">
<path style=" stroke:none;fill-rule:evenodd;fill:rgb(10.980392%,18.431373%,23.529412%);fill-opacity:1;" d="M 24.355469 93.660156 C 24.273438 96.511719 24.355469 99.355469 24.609375 102.199219 C 24.890625 104.019531 25.644531 105.609375 26.867188 106.96875 C 27.371094 107.304688 27.871094 107.304688 28.375 106.96875 C 29.894531 104.953125 31.902344 103.867188 34.402344 103.703125 C 32.382812 104.621094 30.542969 105.875 28.875 107.472656 C 28.039062 107.804688 27.203125 107.804688 26.367188 107.472656 C 25.285156 106.230469 24.53125 104.808594 24.105469 103.203125 C 23.695312 99.929688 23.777344 96.75 24.355469 93.660156 Z M 24.355469 93.660156 "/>
</g>
<mask id="mask10">
  <g filter="url(#alpha)">
<rect x="0" y="0" width="114" height="114" style="fill:rgb(0%,0%,0%);fill-opacity:0.0156863;stroke:none;"/>
  </g>
</mask>
<clipPath id="clip11">
  <rect x="0" y="0" width="114" height="114"/>
</clipPath>
<g id="surface35" clip-path="url(#clip11)">
<path style=" stroke:none;fill-rule:evenodd;fill:rgb(12.156863%,21.176471%,27.058824%);fill-opacity:1;" d="M 103.203125 81.105469 C 101.316406 82.789062 99.140625 83.460938 96.675781 83.113281 C 95.472656 86.691406 93.210938 89.371094 89.894531 91.148438 C 88.09375 100.046875 82.820312 103.226562 74.074219 100.691406 C 72.488281 103.03125 70.5625 105.039062 68.300781 106.71875 C 68.277344 107.746094 68.527344 108.75 69.054688 109.730469 C 68.8125 110.222656 68.480469 110.640625 68.046875 110.988281 C 63.277344 111.488281 59.09375 110.230469 55.492188 107.21875 C 57.578125 108.28125 59.753906 109.203125 62.023438 109.980469 C 64.023438 110.234375 66.03125 110.316406 68.046875 110.234375 C 67.792969 108.890625 67.710938 107.550781 67.796875 106.214844 C 69.972656 104.289062 71.898438 102.113281 73.574219 99.6875 C 82.410156 102.464844 87.765625 99.285156 89.644531 90.144531 C 91.316406 89.308594 92.65625 88.136719 93.660156 86.628906 C 94.808594 85.429688 95.644531 84.007812 96.171875 82.359375 C 98.523438 81.941406 100.867188 81.523438 103.203125 81.105469 Z M 103.203125 81.105469 "/>
</g>
<mask id="mask11">
  <g filter="url(#alpha)">
<rect x="0" y="0" width="114" height="114" style="fill:rgb(0%,0%,0%);fill-opacity:0.105882;stroke:none;"/>
  </g>
</mask>
<clipPath id="clip12">
  <rect x="0" y="0" width="114" height="114"/>
</clipPath>
<g id="surface38" clip-path="url(#clip12)">
<path style=" stroke:none;fill-rule:evenodd;fill:rgb(14.117647%,21.568627%,27.843137%);fill-opacity:1;" d="M 55.492188 107.21875 C 54.378906 106.867188 53.460938 106.199219 52.730469 105.210938 C 50.921875 108.609375 48.496094 111.457031 45.449219 113.75 C 44.945312 113.75 44.445312 113.75 43.941406 113.75 C 43.773438 113.414062 43.609375 113.078125 43.441406 112.746094 C 44.292969 112.824219 45.132812 112.742188 45.953125 112.492188 C 48.414062 109.949219 50.589844 107.1875 52.480469 104.207031 C 53.664062 105.054688 54.667969 106.058594 55.492188 107.21875 Z M 55.492188 107.21875 "/>
</g>
</defs>
<g id="surface1">
<use xlink:href="#surface5" mask="url(#mask0)"/>
<use xlink:href="#surface8" mask="url(#mask1)"/>
<path style=" stroke:none;fill-rule:evenodd;fill:rgb(74.509804%,87.45098%,36.078431%);fill-opacity:1;" d="M 48.460938 9.289062 C 48.460938 8.957031 48.628906 8.789062 48.964844 8.789062 C 48.964844 10.796875 48.964844 12.804688 48.964844 14.816406 C 45.65625 13.328125 42.476562 11.652344 39.421875 9.792969 C 39.542969 8.835938 40.042969 8.167969 40.929688 7.785156 C 41.429688 7.828125 41.847656 7.660156 42.183594 7.28125 C 43.710938 8.710938 45.46875 9.714844 47.457031 10.296875 C 48.066406 10.171875 48.402344 9.835938 48.460938 9.289062 Z M 48.460938 9.289062 "/>
<path style=" stroke:none;fill-rule:evenodd;fill:rgb(42.352941%,70.196078%,30.980392%);fill-opacity:1;" d="M 46.453125 3.765625 C 46.988281 3.296875 47.660156 3.128906 48.460938 3.265625 C 48.378906 4.945312 48.464844 6.621094 48.714844 8.285156 C 49.132812 7.785156 49.550781 7.28125 49.96875 6.78125 C 50.984375 8.65625 52.074219 10.496094 53.234375 12.304688 C 57.03125 8.519531 61.464844 5.671875 66.542969 3.765625 C 66.820312 4.878906 66.820312 6.050781 66.542969 7.28125 C 68.1875 7.101562 69.527344 7.605469 70.558594 8.789062 C 70.941406 10.902344 71.445312 12.996094 72.066406 15.066406 C 71.972656 15.757812 71.640625 16.175781 71.0625 16.320312 C 70.378906 16.066406 69.878906 15.566406 69.554688 14.816406 C 68.316406 16.976562 66.976562 19.066406 65.539062 21.09375 C 63.800781 22.320312 61.957031 22.738281 60.011719 22.347656 C 59.769531 20.707031 59.183594 19.203125 58.253906 17.828125 C 58.003906 19.828125 57.921875 21.839844 58.003906 23.855469 C 57.148438 24.960938 56.058594 25.796875 54.738281 26.367188 C 53.851562 25.941406 53.265625 25.269531 52.980469 24.355469 C 52.816406 24.023438 52.648438 23.6875 52.480469 23.351562 C 53.253906 23.25 53.925781 22.914062 54.488281 22.347656 C 55.109375 22.722656 55.78125 22.890625 56.496094 22.851562 C 57.519531 19.933594 57.9375 16.917969 57.753906 13.8125 C 57.3125 12.6875 56.558594 11.847656 55.492188 11.300781 C 54.429688 12.253906 53.257812 13.089844 51.976562 13.8125 C 50.859375 13.519531 50.441406 12.847656 50.722656 11.800781 C 51.09375 12.878906 51.515625 12.960938 51.976562 12.054688 C 50.839844 11.289062 50.253906 10.199219 50.21875 8.789062 C 49.832031 9.339844 49.414062 9.339844 48.964844 8.789062 C 48.628906 8.789062 48.460938 8.957031 48.460938 9.289062 C 48.027344 8.042969 47.691406 6.703125 47.457031 5.273438 C 48.351562 4.050781 48.015625 3.546875 46.453125 3.765625 Z M 46.453125 3.765625 "/>
<path style=" stroke:none;fill-rule:evenodd;fill:rgb(42.745098%,73.72549%,32.54902%);fill-opacity:1;" d="M 48.964844 8.789062 C 49.414062 9.339844 49.832031 9.339844 50.21875 8.789062 C 50.253906 10.199219 50.839844 11.289062 51.976562 12.054688 C 51.515625 12.960938 51.09375 12.878906 50.722656 11.800781 C 50.441406 12.847656 50.859375 13.519531 51.976562 13.8125 C 53.257812 13.089844 54.429688 12.253906 55.492188 11.300781 C 56.558594 11.847656 57.3125 12.6875 57.753906 13.8125 C 57.9375 16.917969 57.519531 19.933594 56.496094 22.851562 C 55.78125 22.890625 55.109375 22.722656 54.488281 22.347656 C 53.925781 22.914062 53.253906 23.25 52.480469 23.351562 C 52.144531 23.351562 51.976562 23.183594 51.976562 22.851562 C 51.949219 22.578125 51.78125 22.410156 51.476562 22.347656 C 51.140625 24.1875 50.804688 26.03125 50.472656 27.871094 C 49.898438 28.539062 49.226562 29.039062 48.460938 29.378906 C 46.789062 28.039062 45.113281 26.699219 43.441406 25.359375 C 42.695312 24.148438 41.691406 23.8125 40.425781 24.355469 C 39.859375 25.148438 39.777344 25.984375 40.175781 26.867188 C 41.46875 27.175781 42.890625 27.675781 44.445312 28.375 C 45.65625 29.621094 45.742188 30.957031 44.695312 32.390625 C 43.152344 31.832031 41.5625 31.746094 39.925781 32.140625 C 39.503906 32.648438 39.335938 33.234375 39.421875 33.898438 C 41.140625 33.765625 41.644531 34.4375 40.929688 35.90625 C 41.839844 36.984375 42.34375 38.242188 42.4375 39.675781 C 42.207031 41.769531 41.953125 43.863281 41.683594 45.953125 C 41.308594 46.871094 40.804688 47.707031 40.175781 48.460938 C 39.878906 51.3125 39.542969 54.160156 39.171875 57 C 38.8125 57.273438 38.558594 57.609375 38.417969 58.003906 C 38.363281 58.3125 38.195312 58.566406 37.917969 58.757812 C 35.074219 59.007812 32.230469 59.09375 29.378906 59.007812 C 29.378906 58.839844 29.378906 58.675781 29.378906 58.507812 C 31.722656 58.507812 34.066406 58.507812 36.410156 58.507812 C 38.773438 49.421875 35.925781 42.640625 27.871094 38.167969 C 26.21875 35.542969 24.210938 33.199219 21.847656 31.136719 C 18.585938 28.355469 15.40625 25.59375 12.304688 22.851562 C 12.640625 22.851562 12.972656 22.851562 13.308594 22.851562 C 17.242188 23.667969 21.261719 24.417969 25.359375 25.109375 C 26.21875 26.304688 27.222656 26.722656 28.375 26.367188 C 31.855469 28.246094 35.539062 28.75 39.421875 27.871094 C 35.40625 23.9375 31.640625 19.753906 28.125 15.316406 C 27.554688 14.492188 26.804688 13.992188 25.863281 13.8125 C 26.578125 12.546875 27.414062 11.375 28.375 10.296875 C 30.890625 11.304688 33.398438 12.308594 35.90625 13.308594 C 36.410156 13.140625 36.910156 12.972656 37.414062 12.804688 C 37.847656 11.59375 38.515625 10.589844 39.421875 9.792969 C 42.476562 11.652344 45.65625 13.328125 48.964844 14.816406 C 48.964844 12.804688 48.964844 10.796875 48.964844 8.789062 Z M 48.964844 8.789062 "/>
<use xlink:href="#surface11" mask="url(#mask2)"/>
<path style=" stroke:none;fill-rule:evenodd;fill:rgb(29.019608%,55.294118%,24.705882%);fill-opacity:1;" d="M 71.0625 16.320312 C 69.566406 18.40625 68.394531 20.664062 67.546875 23.101562 C 65.175781 23.59375 62.832031 24.179688 60.515625 24.859375 C 60.039062 24.082031 59.871094 23.246094 60.011719 22.347656 C 61.957031 22.738281 63.800781 22.320312 65.539062 21.09375 C 66.976562 19.066406 68.316406 16.976562 69.554688 14.816406 C 69.878906 15.566406 70.378906 16.066406 71.0625 16.320312 Z M 71.0625 16.320312 "/>
<path style=" stroke:none;fill-rule:evenodd;fill:rgb(75.294118%,84.313725%,33.333333%);fill-opacity:1;" d="M 25.863281 13.8125 C 26.804688 13.992188 27.554688 14.492188 28.125 15.316406 C 31.640625 19.753906 35.40625 23.9375 39.421875 27.871094 C 35.539062 28.75 31.855469 28.246094 28.375 26.367188 C 27.058594 24.460938 25.636719 22.621094 24.105469 20.839844 C 23.40625 18.125 23.992188 15.78125 25.863281 13.8125 Z M 25.863281 13.8125 "/>
<path style=" stroke:none;fill-rule:evenodd;fill:rgb(59.215686%,50.588235%,50.980392%);fill-opacity:1;" d="M 90.648438 36.910156 C 90.851562 31.425781 88.175781 28.746094 82.613281 28.875 C 81.609375 28.960938 80.605469 29.042969 79.597656 29.128906 C 80.113281 29.386719 80.617188 29.636719 81.105469 29.882812 C 81.132812 30.4375 81.300781 30.941406 81.609375 31.386719 C 76.523438 28.914062 72.085938 29.75 68.300781 33.898438 C 65.59375 40.195312 67.183594 45.050781 73.070312 48.460938 C 72.285156 48.472656 71.535156 48.640625 70.8125 48.964844 C 70.105469 48.503906 69.351562 48.171875 68.550781 47.960938 C 66.59375 46.050781 65.421875 43.707031 65.035156 40.929688 C 65.058594 36.277344 66.902344 32.511719 70.558594 29.628906 C 65.292969 29.375 60.269531 30.378906 55.492188 32.644531 C 51.84375 35.34375 50.167969 38.941406 50.472656 43.441406 C 49.761719 45.550781 49.429688 47.726562 49.46875 49.96875 C 49.46875 50.136719 49.46875 50.304688 49.46875 50.472656 C 48.859375 50.101562 48.191406 49.933594 47.457031 49.96875 C 48.066406 45.292969 48.652344 40.609375 49.214844 35.90625 C 50.21875 34.15625 51.304688 32.484375 52.480469 30.886719 C 56.429688 28.574219 60.617188 26.816406 65.035156 25.613281 C 71.5625 25.277344 78.09375 25.277344 84.621094 25.613281 C 87.835938 25.621094 90.429688 26.878906 92.40625 29.378906 C 92.082031 30.539062 91.582031 31.710938 90.898438 32.894531 C 90.648438 34.222656 90.566406 35.5625 90.648438 36.910156 Z M 90.648438 36.910156 "/>
<use xlink:href="#surface14" mask="url(#mask3)"/>
<path style=" stroke:none;fill-rule:evenodd;fill:rgb(34.509804%,55.686275%,26.27451%);fill-opacity:1;" d="M 51.976562 22.851562 C 51.90625 24.585938 51.820312 26.425781 51.726562 28.375 C 50.847656 29.339844 49.925781 30.175781 48.964844 30.886719 C 48.660156 30.4375 48.492188 29.9375 48.460938 29.378906 C 49.226562 29.039062 49.898438 28.539062 50.472656 27.871094 C 50.804688 26.03125 51.140625 24.1875 51.476562 22.347656 C 51.78125 22.410156 51.949219 22.578125 51.976562 22.851562 Z M 51.976562 22.851562 "/>
<path style=" stroke:none;fill-rule:evenodd;fill:rgb(34.509804%,39.215686%,18.039216%);fill-opacity:1;" d="M 10.796875 28.875 C 11.511719 29.886719 11.847656 31.058594 11.800781 32.390625 C 11.085938 31.378906 10.75 30.207031 10.796875 28.875 Z M 10.796875 28.875 "/>
<path style=" stroke:none;fill-rule:evenodd;fill:rgb(2.352941%,1.176471%,1.176471%);fill-opacity:1;" d="M 81.609375 31.386719 C 85.59375 35.597656 86.179688 40.285156 83.367188 45.449219 C 80.464844 48.34375 77.03125 49.347656 73.070312 48.460938 C 67.183594 45.050781 65.59375 40.195312 68.300781 33.898438 C 72.085938 29.75 76.523438 28.914062 81.609375 31.386719 Z M 81.609375 31.386719 "/>
<path style=" stroke:none;fill-rule:evenodd;fill:rgb(78.431373%,72.156863%,76.078431%);fill-opacity:1;" d="M 65.035156 40.929688 C 64.660156 40.410156 64.324219 39.824219 64.03125 39.171875 C 60.175781 38.539062 56.492188 39.039062 52.980469 40.679688 C 52.078125 41.589844 51.242188 42.507812 50.472656 43.441406 C 50.167969 38.941406 51.84375 35.34375 55.492188 32.644531 C 60.269531 30.378906 65.292969 29.375 70.558594 29.628906 C 66.902344 32.511719 65.058594 36.277344 65.035156 40.929688 Z M 65.035156 40.929688 "/>
<path style=" stroke:none;fill-rule:evenodd;fill:rgb(78.823529%,73.333333%,74.509804%);fill-opacity:1;" d="M 90.648438 36.910156 C 90.902344 38.179688 91.40625 39.351562 92.152344 40.425781 C 92.417969 42.660156 92.921875 44.835938 93.660156 46.957031 C 93.097656 48.625 93.097656 50.296875 93.660156 51.976562 C 93.050781 50.078125 92.214844 48.234375 91.148438 46.453125 C 91.484375 46.117188 91.820312 45.785156 92.152344 45.449219 C 91.132812 44.46875 90.964844 43.382812 91.652344 42.183594 C 91.484375 42.101562 91.316406 42.019531 91.148438 41.933594 C 90.757812 42.550781 90.507812 43.21875 90.394531 43.941406 C 90.371094 42.253906 89.867188 40.75 88.890625 39.421875 C 88.613281 40.558594 88.027344 41.394531 87.132812 41.933594 C 87.214844 39.75 87.132812 37.574219 86.882812 35.40625 C 85.585938 34 84.664062 32.574219 84.117188 31.136719 C 83.257812 30.355469 82.253906 29.933594 81.105469 29.882812 C 80.617188 29.636719 80.113281 29.386719 79.597656 29.128906 C 80.605469 29.042969 81.609375 28.960938 82.613281 28.875 C 88.175781 28.746094 90.851562 31.425781 90.648438 36.910156 Z M 90.648438 36.910156 "/>
<use xlink:href="#surface17" mask="url(#mask4)"/>
<path style=" stroke:none;fill-rule:evenodd;fill:rgb(34.901961%,40.784314%,19.215686%);fill-opacity:1;" d="M 13.308594 22.851562 C 12.972656 22.851562 12.640625 22.851562 12.304688 22.851562 C 11.632812 22.851562 10.964844 22.851562 10.296875 22.851562 C 10.296875 24.023438 10.296875 25.195312 10.296875 26.367188 C 9.804688 25.136719 9.640625 23.796875 9.792969 22.347656 C 11.078125 22.195312 12.25 22.363281 13.308594 22.851562 Z M 13.308594 22.851562 "/>
<path style=" stroke:none;fill-rule:evenodd;fill:rgb(53.72549%,74.901961%,25.882353%);fill-opacity:1;" d="M 46.453125 3.765625 C 48.015625 3.546875 48.351562 4.050781 47.457031 5.273438 C 47.691406 6.703125 48.027344 8.042969 48.460938 9.289062 C 48.402344 9.835938 48.066406 10.171875 47.457031 10.296875 C 45.46875 9.714844 43.710938 8.710938 42.183594 7.28125 C 41.847656 7.660156 41.429688 7.828125 40.929688 7.785156 C 42.488281 6.058594 44.328125 4.722656 46.453125 3.765625 Z M 46.453125 3.765625 "/>
<path style=" stroke:none;fill-rule:evenodd;fill:rgb(78.039216%,84.705882%,36.862745%);fill-opacity:1;" d="M 12.304688 22.851562 C 15.40625 25.59375 18.585938 28.355469 21.847656 31.136719 C 24.210938 33.199219 26.21875 35.542969 27.871094 38.167969 C 35.925781 42.640625 38.773438 49.421875 36.410156 58.507812 C 34.066406 58.507812 31.722656 58.507812 29.378906 58.507812 C 28.574219 58.640625 27.90625 58.472656 27.371094 58.003906 C 23.484375 56.699219 19.464844 55.691406 15.316406 54.992188 C 14.140625 54.695312 13.054688 54.195312 12.054688 53.484375 C 9.570312 49.496094 6.890625 45.644531 4.019531 41.933594 C 3.761719 40.609375 4.347656 39.9375 5.773438 39.925781 C 8.703125 39.691406 11.546875 39.355469 14.3125 38.921875 C 14.753906 38.988281 15.085938 38.820312 15.316406 38.417969 C 13.367188 36.859375 12.195312 34.851562 11.800781 32.390625 C 11.847656 31.058594 11.511719 29.886719 10.796875 28.875 C 10.320312 28.164062 10.152344 27.328125 10.296875 26.367188 C 10.296875 25.195312 10.296875 24.023438 10.296875 22.851562 C 10.964844 22.851562 11.632812 22.851562 12.304688 22.851562 Z M 12.304688 22.851562 "/>
<use xlink:href="#surface20" mask="url(#mask5)"/>
<path style=" stroke:none;fill-rule:evenodd;fill:rgb(80.392157%,77.647059%,76.862745%);fill-opacity:1;" d="M 101.195312 40.425781 C 100.691406 40.425781 100.1875 40.425781 99.6875 40.425781 C 99.6875 39.925781 99.6875 39.421875 99.6875 38.921875 C 99.707031 38.375 99.875 37.875 100.1875 37.414062 C 99.351562 36.40625 99.015625 35.234375 99.183594 33.898438 C 98.515625 33.898438 97.84375 33.898438 97.175781 33.898438 C 97.175781 33.394531 97.175781 32.894531 97.175781 32.390625 C 98.402344 32.464844 98.738281 32.046875 98.179688 31.136719 C 97.679688 30.800781 97.175781 30.800781 96.675781 31.136719 C 95.238281 32.726562 94.070312 34.148438 93.160156 35.40625 C 93.902344 37.324219 95.242188 38.496094 97.175781 38.921875 C 95.898438 38.746094 94.726562 38.746094 93.660156 38.921875 C 92.332031 37.910156 91.914062 36.570312 92.40625 34.902344 C 93.210938 32.425781 94.804688 30.753906 97.175781 29.882812 C 100.007812 30.5 100.929688 32.171875 99.9375 34.902344 C 100.855469 35.699219 101.859375 36.367188 102.953125 36.910156 C 103.386719 38.574219 102.800781 39.746094 101.195312 40.425781 Z M 101.195312 40.425781 "/>
<path style=" stroke:none;fill-rule:evenodd;fill:rgb(94.509804%,93.333333%,92.54902%);fill-opacity:1;" d="M 99.6875 38.921875 C 98.851562 38.921875 98.011719 38.921875 97.175781 38.921875 C 95.242188 38.496094 93.902344 37.324219 93.160156 35.40625 C 94.070312 34.148438 95.238281 32.726562 96.675781 31.136719 C 97.175781 30.800781 97.679688 30.800781 98.179688 31.136719 C 98.738281 32.046875 98.402344 32.464844 97.175781 32.390625 C 97.175781 32.894531 97.175781 33.394531 97.175781 33.898438 C 97.84375 33.898438 98.515625 33.898438 99.183594 33.898438 C 99.015625 35.234375 99.351562 36.40625 100.1875 37.414062 C 99.875 37.875 99.707031 38.375 99.6875 38.921875 Z M 99.6875 38.921875 "/>
<path style=" stroke:none;fill-rule:evenodd;fill:rgb(36.078431%,49.803922%,28.235294%);fill-opacity:1;" d="M 58.003906 23.855469 C 58.105469 24.804688 57.773438 25.558594 57 26.113281 C 54.292969 28.257812 52.953125 27.671875 52.980469 24.355469 C 53.265625 25.269531 53.851562 25.941406 54.738281 26.367188 C 56.058594 25.796875 57.148438 24.960938 58.003906 23.855469 Z M 58.003906 23.855469 "/>
<path style=" stroke:none;fill-rule:evenodd;fill:rgb(58.823529%,50.980392%,53.72549%);fill-opacity:1;" d="M 72.566406 18.332031 C 72.613281 18.832031 72.445312 19.25 72.066406 19.585938 C 76.082031 19.753906 80.101562 19.921875 84.117188 20.089844 C 85.027344 21.160156 85.695312 21.078125 86.128906 19.835938 C 86.964844 20.808594 87.296875 21.980469 87.132812 23.351562 C 81.457031 22.894531 75.765625 22.726562 70.058594 22.851562 C 70.273438 20.96875 71.109375 19.464844 72.566406 18.332031 Z M 72.566406 18.332031 "/>
<path style=" stroke:none;fill-rule:evenodd;fill:rgb(72.941176%,67.843137%,68.235294%);fill-opacity:1;" d="M 86.128906 19.835938 C 85.695312 21.078125 85.027344 21.160156 84.117188 20.089844 C 80.101562 19.921875 76.082031 19.753906 72.066406 19.585938 C 72.445312 19.25 72.613281 18.832031 72.566406 18.332031 C 74.894531 15.953125 77.738281 15.199219 81.105469 16.070312 C 83.3125 16.695312 84.988281 17.953125 86.128906 19.835938 Z M 86.128906 19.835938 "/>
<path style=" stroke:none;fill-rule:evenodd;fill:rgb(64.313725%,68.627451%,37.647059%);fill-opacity:1;" d="M 14.3125 38.921875 C 11.546875 39.355469 8.703125 39.691406 5.773438 39.925781 C 6.160156 39.539062 6.660156 39.289062 7.28125 39.171875 C 9.621094 38.921875 11.964844 38.835938 14.3125 38.921875 Z M 14.3125 38.921875 "/>
<path style=" stroke:none;fill-rule:evenodd;fill:rgb(36.078431%,60%,29.411765%);fill-opacity:1;" d="M 43.441406 25.359375 C 44.257812 27.070312 45.511719 28.746094 47.207031 30.382812 C 47.542969 31.554688 47.542969 32.726562 47.207031 33.898438 C 46.925781 34.160156 46.589844 34.328125 46.203125 34.402344 C 44.882812 33.53125 43.460938 32.863281 41.933594 32.390625 C 41.597656 32.558594 41.265625 32.726562 40.929688 32.894531 C 42.621094 34.289062 44.378906 35.628906 46.203125 36.910156 C 46.453125 38.410156 46.535156 39.914062 46.453125 41.433594 C 45.472656 44.8125 44.972656 48.328125 44.945312 51.976562 C 45.046875 53.207031 44.882812 54.378906 44.445312 55.492188 C 42.667969 56.78125 40.65625 57.617188 38.417969 58.003906 C 38.558594 57.609375 38.8125 57.273438 39.171875 57 C 39.542969 54.160156 39.878906 51.3125 40.175781 48.460938 C 40.804688 47.707031 41.308594 46.871094 41.683594 45.953125 C 41.953125 43.863281 42.207031 41.769531 42.4375 39.675781 C 42.34375 38.242188 41.839844 36.984375 40.929688 35.90625 C 41.644531 34.4375 41.140625 33.765625 39.421875 33.898438 C 39.335938 33.234375 39.503906 32.648438 39.925781 32.140625 C 41.5625 31.746094 43.152344 31.832031 44.695312 32.390625 C 45.742188 30.957031 45.65625 29.621094 44.445312 28.375 C 42.890625 27.675781 41.46875 27.175781 40.175781 26.867188 C 39.777344 25.984375 39.859375 25.148438 40.425781 24.355469 C 41.691406 23.8125 42.695312 24.148438 43.441406 25.359375 Z M 43.441406 25.359375 "/>
<path style=" stroke:none;fill-rule:evenodd;fill:rgb(59.215686%,56.470588%,55.686275%);fill-opacity:1;" d="M 97.175781 38.921875 C 98.011719 38.921875 98.851562 38.921875 99.6875 38.921875 C 99.6875 39.421875 99.6875 39.925781 99.6875 40.425781 C 100.1875 40.425781 100.691406 40.425781 101.195312 40.425781 C 98.433594 41.34375 95.921875 40.84375 93.660156 38.921875 C 94.726562 38.746094 95.898438 38.746094 97.175781 38.921875 Z M 97.175781 38.921875 "/>
<path style=" stroke:none;fill-rule:evenodd;fill:rgb(94.117647%,93.333333%,91.764706%);fill-opacity:1;" d="M 65.035156 40.929688 C 65.421875 43.707031 66.59375 46.050781 68.550781 47.960938 C 69.097656 49.429688 70.101562 50.519531 71.5625 51.226562 C 80.203125 53.742188 85.394531 50.644531 87.132812 41.933594 C 88.027344 41.394531 88.613281 40.558594 88.890625 39.421875 C 89.867188 40.75 90.371094 42.253906 90.394531 43.941406 C 90.507812 43.21875 90.757812 42.550781 91.148438 41.933594 C 91.316406 42.019531 91.484375 42.101562 91.652344 42.183594 C 90.964844 43.382812 91.132812 44.46875 92.152344 45.449219 C 91.820312 45.785156 91.484375 46.117188 91.148438 46.453125 C 92.214844 48.234375 93.050781 50.078125 93.660156 51.976562 C 93.660156 52.480469 93.660156 52.980469 93.660156 53.484375 C 92.925781 57.691406 93.011719 61.875 93.910156 66.039062 C 94.589844 66.632812 95.175781 67.304688 95.667969 68.046875 C 96.265625 68.515625 96.9375 68.683594 97.679688 68.550781 C 98.125 68.855469 98.628906 69.023438 99.183594 69.054688 C 100.355469 69.386719 101.527344 69.722656 102.699219 70.058594 C 99.839844 70.800781 96.910156 71.304688 93.910156 71.5625 C 92.664062 75.71875 91.492188 79.902344 90.394531 84.117188 C 89.730469 85.53125 88.980469 86.867188 88.136719 88.136719 C 87.6875 88.441406 87.1875 88.609375 86.628906 88.640625 C 79.113281 89.109375 71.578125 89.277344 64.03125 89.140625 C 63.863281 89.140625 63.695312 89.140625 63.527344 89.140625 C 60.777344 87.683594 57.929688 86.261719 54.992188 84.871094 C 54.035156 83.960938 53.199219 82.957031 52.480469 81.859375 C 51.285156 81.828125 50.949219 81.40625 51.476562 80.605469 C 51.300781 80.003906 51.050781 80.003906 50.722656 80.605469 C 50.636719 76.328125 50.386719 72.144531 49.96875 68.046875 C 51.585938 67.867188 53.007812 67.199219 54.238281 66.039062 C 55.199219 64.238281 56.371094 62.5625 57.753906 61.019531 C 58.847656 59.050781 58.679688 57.210938 57.25 55.492188 C 55.492188 54.070312 53.902344 52.480469 52.480469 50.722656 C 51.554688 50.15625 50.550781 49.90625 49.46875 49.96875 C 49.429688 47.726562 49.761719 45.550781 50.472656 43.441406 C 51.242188 42.507812 52.078125 41.589844 52.980469 40.679688 C 56.492188 39.039062 60.175781 38.539062 64.03125 39.171875 C 64.324219 39.824219 64.660156 40.410156 65.035156 40.929688 Z M 65.035156 40.929688 "/>
<path style=" stroke:none;fill-rule:evenodd;fill:rgb(12.156863%,18.039216%,10.196078%);fill-opacity:1;" d="M 46.453125 41.433594 C 46.320312 45.066406 45.820312 48.582031 44.945312 51.976562 C 44.972656 48.328125 45.472656 44.8125 46.453125 41.433594 Z M 46.453125 41.433594 "/>
<path style=" stroke:none;fill-rule:evenodd;fill:rgb(67.058824%,61.960784%,59.607843%);fill-opacity:1;" d="M 99.6875 42.9375 C 100.859375 42.9375 102.03125 42.9375 103.203125 42.9375 C 103.203125 43.941406 103.203125 44.945312 103.203125 45.953125 C 101.863281 45.953125 100.523438 45.953125 99.183594 45.953125 C 99.097656 44.886719 99.265625 43.882812 99.6875 42.9375 Z M 99.6875 42.9375 "/>
<path style=" stroke:none;fill-rule:evenodd;fill:rgb(70.980392%,66.27451%,65.882353%);fill-opacity:1;" d="M 104.207031 42.4375 C 106.257812 42.207031 108.183594 42.542969 109.980469 43.441406 C 110.355469 44.414062 110.273438 45.335938 109.730469 46.203125 C 107.898438 46.453125 106.054688 46.535156 104.207031 46.453125 C 104.207031 45.113281 104.207031 43.773438 104.207031 42.4375 Z M 104.207031 42.4375 "/>
<path style=" stroke:none;fill-rule:evenodd;fill:rgb(84.705882%,90.196078%,52.54902%);fill-opacity:1;" d="M 12.304688 42.4375 C 17.203125 42.875 21.554688 44.714844 25.359375 47.960938 C 24.691406 48.128906 24.023438 48.296875 23.351562 48.460938 C 21.8125 48.046875 20.308594 48.046875 18.832031 48.460938 C 20.386719 49.578125 21.726562 50.917969 22.851562 52.480469 C 22.414062 53.023438 21.914062 53.109375 21.34375 52.730469 C 16.945312 51.046875 13.597656 48.199219 11.300781 44.195312 C 11.480469 43.472656 11.816406 42.886719 12.304688 42.4375 Z M 12.304688 42.4375 "/>
<path style=" stroke:none;fill-rule:evenodd;fill:rgb(66.666667%,64.705882%,61.568627%);fill-opacity:1;" d="M 60.011719 42.9375 C 60.453125 42.871094 60.789062 43.039062 61.019531 43.441406 C 62.378906 46.25 64.054688 48.84375 66.039062 51.226562 C 62.449219 49.710938 60.441406 46.949219 60.011719 42.9375 Z M 60.011719 42.9375 "/>
<path style=" stroke:none;fill-rule:evenodd;fill:rgb(69.019608%,60%,63.921569%);fill-opacity:1;" d="M 81.105469 29.882812 C 82.253906 29.933594 83.257812 30.355469 84.117188 31.136719 C 84.664062 32.574219 85.585938 34 86.882812 35.40625 C 87.132812 37.574219 87.214844 39.75 87.132812 41.933594 C 85.394531 50.644531 80.203125 53.742188 71.5625 51.226562 C 70.101562 50.519531 69.097656 49.429688 68.550781 47.960938 C 69.351562 48.171875 70.105469 48.503906 70.8125 48.964844 C 71.535156 48.640625 72.285156 48.472656 73.070312 48.460938 C 77.03125 49.347656 80.464844 48.34375 83.367188 45.449219 C 86.179688 40.285156 85.59375 35.597656 81.609375 31.386719 C 81.300781 30.941406 81.132812 30.4375 81.105469 29.882812 Z M 81.105469 29.882812 "/>
<path style=" stroke:none;fill-rule:evenodd;fill:rgb(71.764706%,70.588235%,71.764706%);fill-opacity:1;" d="M 99.183594 48.964844 C 100.523438 48.964844 101.863281 48.964844 103.203125 48.964844 C 103.203125 49.800781 103.203125 50.636719 103.203125 51.476562 C 102.875 52.089844 102.289062 52.425781 101.445312 52.480469 C 99.667969 52.621094 98.746094 51.785156 98.683594 49.96875 C 98.703125 49.507812 98.871094 49.175781 99.183594 48.964844 Z M 99.183594 48.964844 "/>
<path style=" stroke:none;fill-rule:evenodd;fill:rgb(65.490196%,59.607843%,61.176471%);fill-opacity:1;" d="M 92.152344 40.425781 C 93.507812 41.316406 94.929688 42.152344 96.421875 42.9375 C 96.578125 44.148438 96.996094 45.234375 97.679688 46.203125 C 96.359375 48.300781 96.359375 50.394531 97.679688 52.480469 C 94.894531 54.1875 93.890625 56.699219 94.664062 60.011719 C 94.332031 57.835938 93.996094 55.660156 93.660156 53.484375 C 93.660156 52.980469 93.660156 52.480469 93.660156 51.976562 C 93.097656 50.296875 93.097656 48.625 93.660156 46.957031 C 92.921875 44.835938 92.417969 42.660156 92.152344 40.425781 Z M 92.152344 40.425781 "/>
<path style=" stroke:none;fill-rule:evenodd;fill:rgb(34.901961%,30.588235%,29.803922%);fill-opacity:1;" d="M 99.183594 48.964844 C 100.808594 48.320312 102.480469 48.320312 104.207031 48.964844 C 104.207031 49.96875 104.207031 50.972656 104.207031 51.976562 C 103.871094 51.8125 103.539062 51.644531 103.203125 51.476562 C 103.203125 50.636719 103.203125 49.800781 103.203125 48.964844 C 101.863281 48.964844 100.523438 48.964844 99.183594 48.964844 Z M 99.183594 48.964844 "/>
<path style=" stroke:none;fill-rule:evenodd;fill:rgb(78.039216%,73.72549%,72.941176%);fill-opacity:1;" d="M 104.207031 51.976562 C 104.207031 50.972656 104.207031 49.96875 104.207031 48.964844 C 104.417969 48.601562 104.75 48.351562 105.210938 48.210938 C 107.964844 47.261719 109.808594 48.097656 110.734375 50.722656 C 110.097656 52.632812 108.761719 53.386719 106.71875 52.980469 C 105.644531 52.953125 104.808594 52.621094 104.207031 51.976562 Z M 104.207031 51.976562 "/>
<path style=" stroke:none;fill-rule:evenodd;fill:rgb(5.490196%,5.098039%,5.098039%);fill-opacity:1;" d="M 88.136719 52.480469 C 88.972656 52.480469 89.808594 52.480469 90.648438 52.480469 C 90.648438 55.660156 90.648438 58.839844 90.648438 62.023438 C 87.515625 61.148438 85.003906 59.390625 83.113281 56.75 C 84.558594 55.054688 86.234375 53.628906 88.136719 52.480469 Z M 88.136719 52.480469 "/>
<path style=" stroke:none;fill-rule:evenodd;fill:rgb(45.490196%,49.019608%,28.235294%);fill-opacity:1;" d="M 8.789062 55.492188 C 7.984375 55.359375 7.316406 55.527344 6.78125 55.996094 C 6.507812 55.964844 6.339844 55.796875 6.277344 55.492188 C 7.179688 54.847656 8.019531 54.847656 8.789062 55.492188 Z M 8.789062 55.492188 "/>
<path style=" stroke:none;fill-rule:evenodd;fill:rgb(63.921569%,60.392157%,59.607843%);fill-opacity:1;" d="M 104.207031 55.492188 C 103.824219 56.796875 103.65625 58.136719 103.703125 59.511719 C 103.371094 59.847656 103.035156 60.179688 102.699219 60.515625 C 102.699219 59.175781 102.699219 57.835938 102.699219 56.496094 C 100.859375 56.496094 99.019531 56.496094 97.175781 56.496094 C 97.132812 55.996094 97.300781 55.578125 97.679688 55.242188 C 98.597656 55.160156 99.519531 55.074219 100.441406 54.992188 C 101.597656 55.042969 102.601562 55.375 103.453125 55.996094 C 103.644531 55.714844 103.898438 55.550781 104.207031 55.492188 Z M 104.207031 55.492188 "/>
<path style=" stroke:none;fill-rule:evenodd;fill:rgb(7.058824%,9.411765%,5.490196%);fill-opacity:1;" d="M 44.445312 55.492188 C 44.546875 56.523438 44.964844 56.691406 45.699219 55.996094 C 46.667969 59.601562 46.585938 63.117188 45.449219 66.542969 C 45.605469 65.164062 45.4375 63.824219 44.945312 62.523438 C 42.144531 64.839844 38.964844 66.179688 35.40625 66.542969 C 34.785156 66.386719 34.785156 66.136719 35.40625 65.789062 C 37.492188 65.460938 39.332031 64.707031 40.929688 63.527344 C 42.175781 62.945312 42.84375 61.941406 42.9375 60.515625 C 41.488281 60.363281 40.148438 60.527344 38.921875 61.019531 C 35.03125 61.09375 31.179688 60.757812 27.371094 60.011719 C 26.476562 59.460938 25.472656 59.042969 24.355469 58.757812 C 26.027344 58.671875 27.699219 58.753906 29.378906 59.007812 C 32.230469 59.09375 35.074219 59.007812 37.917969 58.757812 C 38.195312 58.566406 38.363281 58.3125 38.417969 58.003906 C 40.65625 57.617188 42.667969 56.78125 44.445312 55.492188 Z M 44.445312 55.492188 "/>
<use xlink:href="#surface23" mask="url(#mask6)"/>
<path style=" stroke:none;fill-rule:evenodd;fill:rgb(24.313725%,41.568627%,14.901961%);fill-opacity:1;" d="M 27.371094 58.003906 C 27.90625 58.472656 28.574219 58.640625 29.378906 58.507812 C 29.378906 58.675781 29.378906 58.839844 29.378906 59.007812 C 27.699219 58.753906 26.027344 58.671875 24.355469 58.757812 C 25.472656 59.042969 26.476562 59.460938 27.371094 60.011719 C 25.21875 59.992188 23.375 59.242188 21.847656 57.753906 C 23.65625 57.871094 25.5 57.957031 27.371094 58.003906 Z M 27.371094 58.003906 "/>
<path style=" stroke:none;fill-rule:evenodd;fill:rgb(62.745098%,57.647059%,54.117647%);fill-opacity:1;" d="M 49.46875 50.472656 C 49.46875 50.304688 49.46875 50.136719 49.46875 49.96875 C 50.550781 49.90625 51.554688 50.15625 52.480469 50.722656 C 53.902344 52.480469 55.492188 54.070312 57.25 55.492188 C 58.679688 57.210938 58.847656 59.050781 57.753906 61.019531 C 56.371094 62.5625 55.199219 64.238281 54.238281 66.039062 C 53.007812 67.199219 51.585938 67.867188 49.96875 68.046875 C 49.507812 72.546875 49.34375 77.066406 49.46875 81.609375 C 49.046875 76.835938 48.710938 71.980469 48.460938 67.042969 C 49.632812 67.042969 50.804688 67.042969 51.976562 67.042969 C 51.902344 66.515625 51.988281 66.011719 52.230469 65.539062 C 54.707031 63.757812 56.296875 61.414062 57 58.507812 C 55.546875 54.875 53.035156 52.199219 49.46875 50.472656 Z M 49.46875 50.472656 "/>
<path style=" stroke:none;fill-rule:evenodd;fill:rgb(83.529412%,80.784314%,78.823529%);fill-opacity:1;" d="M 97.175781 56.496094 C 99.019531 56.496094 100.859375 56.496094 102.699219 56.496094 C 102.699219 57.835938 102.699219 59.175781 102.699219 60.515625 C 101.019531 60.597656 99.34375 60.515625 97.679688 60.265625 C 96.601562 59.082031 96.433594 57.824219 97.175781 56.496094 Z M 97.175781 56.496094 "/>
<use xlink:href="#surface26" mask="url(#mask7)"/>
<path style=" stroke:none;fill-rule:evenodd;fill:rgb(83.137255%,80%,78.823529%);fill-opacity:1;" d="M 103.703125 59.511719 C 103.65625 58.136719 103.824219 56.796875 104.207031 55.492188 C 104.261719 55.183594 104.429688 54.933594 104.710938 54.738281 C 106.589844 54.273438 108.347656 54.523438 109.980469 55.492188 C 111.222656 60.527344 109.296875 62.199219 104.207031 60.515625 C 104.023438 60.171875 103.859375 59.835938 103.703125 59.511719 Z M 103.703125 59.511719 "/>
<path style=" stroke:none;fill-rule:evenodd;fill:rgb(36.862745%,56.862745%,29.803922%);fill-opacity:1;" d="M 38.921875 61.019531 C 40.148438 60.527344 41.488281 60.363281 42.9375 60.515625 C 42.84375 61.941406 42.175781 62.945312 40.929688 63.527344 C 41.03125 62.753906 41.367188 62.082031 41.933594 61.519531 C 40.980469 61.035156 39.976562 60.867188 38.921875 61.019531 Z M 38.921875 61.019531 "/>
<path style=" stroke:none;fill-rule:evenodd;fill:rgb(64.313725%,79.607843%,33.72549%);fill-opacity:1;" d="M 15.316406 54.992188 C 19.464844 55.691406 23.484375 56.699219 27.371094 58.003906 C 25.5 57.957031 23.65625 57.871094 21.847656 57.753906 C 23.375 59.242188 25.21875 59.992188 27.371094 60.011719 C 31.179688 60.757812 35.03125 61.09375 38.921875 61.019531 C 37.761719 61.804688 36.421875 62.222656 34.902344 62.273438 C 34.375 62.96875 33.707031 63.472656 32.894531 63.78125 C 31.246094 64.355469 29.574219 64.773438 27.871094 65.035156 C 27.070312 65.167969 26.398438 65.003906 25.863281 64.53125 C 27.046875 64.613281 28.21875 64.53125 29.378906 64.28125 C 27.148438 63.222656 24.804688 62.46875 22.347656 62.023438 C 22.347656 61.519531 22.347656 61.019531 22.347656 60.515625 C 18.914062 60.25 15.902344 59.078125 13.308594 57 C 15.285156 57.367188 15.957031 56.699219 15.316406 54.992188 Z M 15.316406 54.992188 "/>
<path style=" stroke:none;fill-rule:evenodd;fill:rgb(72.156863%,70.588235%,70.980392%);fill-opacity:1;" d="M 93.660156 53.484375 C 93.996094 55.660156 94.332031 57.835938 94.664062 60.011719 C 95.324219 60.839844 95.992188 61.675781 96.675781 62.523438 C 95.785156 64.789062 96.117188 66.796875 97.679688 68.550781 C 96.9375 68.683594 96.265625 68.515625 95.667969 68.046875 C 95.175781 67.304688 94.589844 66.632812 93.910156 66.039062 C 93.011719 61.875 92.925781 57.691406 93.660156 53.484375 Z M 93.660156 53.484375 "/>
<path style=" stroke:none;fill-rule:evenodd;fill:rgb(83.529412%,89.803922%,52.54902%);fill-opacity:1;" d="M 25.863281 64.53125 C 26.398438 65.003906 27.070312 65.167969 27.871094 65.035156 C 27.566406 65.484375 27.398438 65.984375 27.371094 66.542969 C 25.074219 67.015625 22.730469 67.183594 20.339844 67.042969 C 20.265625 67.574219 20.347656 68.074219 20.589844 68.550781 C 21.464844 69.28125 22.386719 69.953125 23.351562 70.558594 C 20.859375 71.144531 18.347656 71.226562 15.820312 70.8125 C 15.398438 70.304688 15.230469 69.714844 15.316406 69.054688 C 19.835938 69.703125 19.835938 69.285156 15.316406 67.796875 C 13.183594 66.425781 12.011719 64.5 11.800781 62.023438 C 16.289062 63.734375 20.976562 64.570312 25.863281 64.53125 Z M 25.863281 64.53125 "/>
<path style=" stroke:none;fill-rule:evenodd;fill:rgb(87.843137%,83.921569%,81.960784%);fill-opacity:1;" d="M 104.207031 62.523438 C 106.054688 62.441406 107.898438 62.523438 109.730469 62.773438 C 111.085938 64.417969 110.917969 65.925781 109.230469 67.296875 C 107.5625 67.546875 105.890625 67.628906 104.207031 67.546875 C 104.207031 65.871094 104.207031 64.199219 104.207031 62.523438 Z M 104.207031 62.523438 "/>
<path style=" stroke:none;fill-rule:evenodd;fill:rgb(41.568627%,74.509804%,29.803922%);fill-opacity:1;" d="M 38.921875 61.019531 C 39.976562 60.867188 40.980469 61.035156 41.933594 61.519531 C 41.367188 62.082031 41.03125 62.753906 40.929688 63.527344 C 39.332031 64.707031 37.492188 65.460938 35.40625 65.789062 C 34.785156 66.136719 34.785156 66.386719 35.40625 66.542969 C 35.40625 66.710938 35.40625 66.875 35.40625 67.042969 C 32.628906 67.207031 29.953125 67.039062 27.371094 66.542969 C 27.398438 65.984375 27.566406 65.484375 27.871094 65.035156 C 29.574219 64.773438 31.246094 64.355469 32.894531 63.78125 C 33.707031 63.472656 34.375 62.96875 34.902344 62.273438 C 36.421875 62.222656 37.761719 61.804688 38.921875 61.019531 Z M 38.921875 61.019531 "/>
<path style=" stroke:none;fill-rule:evenodd;fill:rgb(2.352941%,1.176471%,1.176471%);fill-opacity:1;" d="M 82.109375 83.113281 C 81.441406 83.449219 80.769531 83.785156 80.101562 84.117188 C 72.34375 86.261719 67.824219 83.332031 66.542969 75.332031 C 68.433594 67.242188 73.289062 64.5625 81.105469 67.296875 C 86.085938 72.269531 86.421875 77.542969 82.109375 83.113281 Z M 82.109375 83.113281 "/>
<path style=" stroke:none;fill-rule:evenodd;fill:rgb(82.745098%,77.254902%,76.078431%);fill-opacity:1;" d="M 99.183594 63.027344 C 100.523438 63.027344 101.863281 63.027344 103.203125 63.027344 C 103.675781 67.132812 102.085938 68.136719 98.433594 66.039062 C 98.054688 64.863281 98.308594 63.859375 99.183594 63.027344 Z M 99.183594 63.027344 "/>
<path style=" stroke:none;fill-rule:evenodd;fill:rgb(36.078431%,64.705882%,27.058824%);fill-opacity:1;" d="M 45.449219 66.542969 C 43.710938 68.601562 41.535156 70.109375 38.921875 71.0625 C 38.277344 69.90625 37.609375 68.734375 36.910156 67.546875 C 36.496094 67.101562 35.996094 66.933594 35.40625 67.042969 C 35.40625 66.875 35.40625 66.710938 35.40625 66.542969 C 38.964844 66.179688 42.144531 64.839844 44.945312 62.523438 C 45.4375 63.824219 45.605469 65.164062 45.449219 66.542969 Z M 45.449219 66.542969 "/>
<path style=" stroke:none;fill-rule:evenodd;fill:rgb(43.529412%,41.568627%,41.176471%);fill-opacity:1;" d="M 99.183594 69.054688 C 100.523438 69.054688 101.863281 69.054688 103.203125 69.054688 C 103.351562 70.175781 103.183594 71.179688 102.699219 72.066406 C 102.699219 71.398438 102.699219 70.726562 102.699219 70.058594 C 101.527344 69.722656 100.355469 69.386719 99.183594 69.054688 Z M 99.183594 69.054688 "/>
<path style=" stroke:none;fill-rule:evenodd;fill:rgb(83.529412%,82.352941%,82.352941%);fill-opacity:1;" d="M 104.710938 69.054688 C 106.382812 69.054688 108.058594 69.054688 109.730469 69.054688 C 109.851562 70.039062 109.683594 70.960938 109.230469 71.816406 C 107.628906 72.476562 105.953125 72.726562 104.207031 72.566406 C 104.105469 71.335938 104.273438 70.167969 104.710938 69.054688 Z M 104.710938 69.054688 "/>
<path style=" stroke:none;fill-rule:evenodd;fill:rgb(52.54902%,58.823529%,33.333333%);fill-opacity:1;" d="M 38.417969 71.0625 C 37.410156 71.847656 36.238281 72.351562 34.902344 72.566406 C 35.816406 71.589844 36.988281 71.085938 38.417969 71.0625 Z M 38.417969 71.0625 "/>
<path style=" stroke:none;fill-rule:evenodd;fill:rgb(61.960784%,56.470588%,58.039216%);fill-opacity:1;" d="M 86.128906 70.558594 C 85.855469 70.589844 85.6875 70.757812 85.625 71.0625 C 87.195312 74.578125 86.941406 77.925781 84.871094 81.105469 C 84.144531 82.09375 83.222656 82.761719 82.109375 83.113281 C 86.421875 77.542969 86.085938 72.269531 81.105469 67.296875 C 73.289062 64.5625 68.433594 67.242188 66.542969 75.332031 C 67.824219 83.332031 72.34375 86.261719 80.101562 84.117188 C 79.675781 84.855469 79.007812 85.273438 78.09375 85.375 C 68.546875 85.78125 64.53125 81.179688 66.039062 71.5625 C 69.421875 63.878906 74.945312 61.785156 82.613281 65.285156 C 84.480469 66.597656 85.652344 68.355469 86.128906 70.558594 Z M 86.128906 70.558594 "/>
<path style=" stroke:none;fill-rule:evenodd;fill:rgb(22.745098%,32.54902%,16.862745%);fill-opacity:1;" d="M 30.886719 73.070312 C 31.945312 73.554688 33.117188 73.722656 34.402344 73.574219 C 31.480469 74.152344 28.464844 74.234375 25.359375 73.824219 C 27.097656 73.113281 28.9375 72.863281 30.886719 73.070312 Z M 30.886719 73.070312 "/>
<path style=" stroke:none;fill-rule:evenodd;fill:rgb(38.431373%,65.882353%,31.372549%);fill-opacity:1;" d="M 42.4375 83.617188 C 42.71875 79.832031 41.378906 76.816406 38.417969 74.578125 C 38.023438 73.773438 37.355469 73.4375 36.410156 73.574219 C 39.75 72.773438 42.933594 71.433594 45.953125 69.554688 C 46.535156 72.890625 46.621094 76.238281 46.203125 79.597656 C 45.539062 81.519531 44.28125 82.859375 42.4375 83.617188 Z M 42.4375 83.617188 "/>
<path style=" stroke:none;fill-rule:evenodd;fill:rgb(26.666667%,27.843137%,30.588235%);fill-opacity:1;" d="M 104.207031 75.078125 C 104.648438 75.011719 104.980469 75.179688 105.210938 75.582031 C 103.496094 78.726562 100.816406 80.066406 97.175781 79.597656 C 96.953125 78.160156 97.289062 76.90625 98.179688 75.832031 C 100.285156 75.746094 102.292969 75.492188 104.207031 75.078125 Z M 104.207031 75.078125 "/>
<path style=" stroke:none;fill-rule:evenodd;fill:rgb(76.470588%,83.921569%,37.647059%);fill-opacity:1;" d="M 8.789062 55.492188 C 10.402344 55.695312 11.910156 56.199219 13.308594 57 C 15.902344 59.078125 18.914062 60.25 22.347656 60.515625 C 22.347656 61.019531 22.347656 61.519531 22.347656 62.023438 C 24.804688 62.46875 27.148438 63.222656 29.378906 64.28125 C 28.21875 64.53125 27.046875 64.613281 25.863281 64.53125 C 20.976562 64.570312 16.289062 63.734375 11.800781 62.023438 C 12.011719 64.5 13.183594 66.425781 15.316406 67.796875 C 19.835938 69.285156 19.835938 69.703125 15.316406 69.054688 C 15.230469 69.714844 15.398438 70.304688 15.820312 70.8125 C 18.347656 71.226562 20.859375 71.144531 23.351562 70.558594 C 22.386719 69.953125 21.464844 69.28125 20.589844 68.550781 C 20.347656 68.074219 20.265625 67.574219 20.339844 67.042969 C 22.730469 67.183594 25.074219 67.015625 27.371094 66.542969 C 29.953125 67.039062 32.628906 67.207031 35.40625 67.042969 C 35.996094 66.933594 36.496094 67.101562 36.910156 67.546875 C 37.609375 68.734375 38.277344 69.90625 38.921875 71.0625 C 38.753906 71.0625 38.585938 71.0625 38.417969 71.0625 C 36.988281 71.085938 35.816406 71.589844 34.902344 72.566406 C 33.5625 72.734375 32.226562 72.902344 30.886719 73.070312 C 28.9375 72.863281 27.097656 73.113281 25.359375 73.824219 C 28.464844 74.234375 31.480469 74.152344 34.402344 73.574219 C 35.070312 73.574219 35.738281 73.574219 36.410156 73.574219 C 37.355469 73.4375 38.023438 73.773438 38.417969 74.578125 C 34.0625 74.492188 29.710938 74.578125 25.359375 74.828125 C 25.195312 74.996094 25.027344 75.164062 24.859375 75.332031 C 25.773438 75.660156 26.445312 76.246094 26.867188 77.089844 C 24.980469 76.125 22.972656 75.453125 20.839844 75.078125 C 20.722656 77.265625 20.304688 79.273438 19.585938 81.105469 C 20.902344 83.195312 22.828125 84.199219 25.359375 84.117188 C 25.0625 84.441406 24.644531 84.605469 24.105469 84.621094 C 22.851562 84.371094 21.59375 84.117188 20.339844 83.867188 C 21.035156 83.421875 20.953125 83.171875 20.089844 83.113281 C 19.417969 83.449219 18.75 83.785156 18.078125 84.117188 C 16.59375 83.335938 15.171875 82.5 13.8125 81.609375 C 11.285156 79.398438 9.105469 76.886719 7.28125 74.074219 C 7.671875 73.75 8.171875 73.582031 8.789062 73.574219 C 11.808594 74.167969 14.824219 74.585938 17.828125 74.828125 C 12.015625 69.816406 8.332031 63.539062 6.78125 55.996094 C 7.316406 55.527344 7.984375 55.359375 8.789062 55.492188 Z M 8.789062 55.492188 "/>
<path style=" stroke:none;fill-rule:evenodd;fill:rgb(76.470588%,76.078431%,74.901961%);fill-opacity:1;" d="M 49.96875 68.046875 C 50.386719 72.144531 50.636719 76.328125 50.722656 80.605469 C 51.050781 80.003906 51.300781 80.003906 51.476562 80.605469 C 50.949219 81.40625 51.285156 81.828125 52.480469 81.859375 C 53.199219 82.957031 54.035156 83.960938 54.992188 84.871094 C 57.929688 86.261719 60.777344 87.683594 63.527344 89.140625 C 57.984375 88.210938 53.296875 85.699219 49.46875 81.609375 C 49.34375 77.066406 49.507812 72.546875 49.96875 68.046875 Z M 49.96875 68.046875 "/>
<path style=" stroke:none;fill-rule:evenodd;fill:rgb(72.54902%,68.627451%,68.627451%);fill-opacity:1;" d="M 102.699219 70.058594 C 102.699219 70.726562 102.699219 71.398438 102.699219 72.066406 C 100.953125 72.480469 99.113281 72.730469 97.175781 72.820312 C 96.757812 73.238281 96.339844 73.65625 95.921875 74.074219 C 94.992188 77.792969 93.902344 81.472656 92.65625 85.125 C 91.414062 86.535156 89.90625 87.539062 88.136719 88.136719 C 88.980469 86.867188 89.730469 85.53125 90.394531 84.117188 C 91.492188 79.902344 92.664062 75.71875 93.910156 71.5625 C 96.910156 71.304688 99.839844 70.800781 102.699219 70.058594 Z M 102.699219 70.058594 "/>
<use xlink:href="#surface29" mask="url(#mask8)"/>
<path style=" stroke:none;fill-rule:evenodd;fill:rgb(79.215686%,86.666667%,44.313725%);fill-opacity:1;" d="M 13.8125 81.609375 C 15.171875 82.5 16.59375 83.335938 18.078125 84.117188 C 18.75 83.785156 19.417969 83.449219 20.089844 83.113281 C 20.953125 83.171875 21.035156 83.421875 20.339844 83.867188 C 21.59375 84.117188 22.851562 84.371094 24.105469 84.621094 C 24.644531 84.605469 25.0625 84.441406 25.359375 84.117188 C 28.429688 85.714844 31.613281 85.964844 34.902344 84.871094 C 34.441406 84.734375 34.109375 84.480469 33.898438 84.117188 C 34.894531 84.058594 35.730469 84.394531 36.410156 85.125 C 35.730469 85.636719 35.394531 86.308594 35.40625 87.132812 C 35.90625 87.132812 36.410156 87.132812 36.910156 87.132812 C 36.910156 87.300781 36.910156 87.46875 36.910156 87.632812 C 35.386719 87.890625 33.878906 88.226562 32.390625 88.640625 C 31.644531 89.941406 30.472656 90.441406 28.875 90.144531 C 28.875 89.644531 28.875 89.140625 28.875 88.640625 C 22.6875 88.722656 17.664062 86.378906 13.8125 81.609375 Z M 13.8125 81.609375 "/>
<path style=" stroke:none;fill-rule:evenodd;fill:rgb(75.686275%,83.921569%,33.72549%);fill-opacity:1;" d="M 38.417969 74.578125 C 41.378906 76.816406 42.71875 79.832031 42.4375 83.617188 C 41 85.378906 39.160156 86.550781 36.910156 87.132812 C 36.410156 87.132812 35.90625 87.132812 35.40625 87.132812 C 35.394531 86.308594 35.730469 85.636719 36.410156 85.125 C 35.730469 84.394531 34.894531 84.058594 33.898438 84.117188 C 31.132812 83.140625 28.453125 81.96875 25.863281 80.605469 C 27.476562 80.332031 28.984375 79.828125 30.382812 79.097656 C 29.4375 78.054688 28.265625 77.382812 26.867188 77.089844 C 26.445312 76.246094 25.773438 75.660156 24.859375 75.332031 C 25.027344 75.164062 25.195312 74.996094 25.359375 74.828125 C 29.710938 74.578125 34.0625 74.492188 38.417969 74.578125 Z M 38.417969 74.578125 "/>
<path style=" stroke:none;fill-rule:evenodd;fill:rgb(85.098039%,90.588235%,54.117647%);fill-opacity:1;" d="M 26.867188 77.089844 C 28.265625 77.382812 29.4375 78.054688 30.382812 79.097656 C 28.984375 79.828125 27.476562 80.332031 25.863281 80.605469 C 28.453125 81.96875 31.132812 83.140625 33.898438 84.117188 C 34.109375 84.480469 34.441406 84.734375 34.902344 84.871094 C 31.613281 85.964844 28.429688 85.714844 25.359375 84.117188 C 22.828125 84.199219 20.902344 83.195312 19.585938 81.105469 C 20.304688 79.273438 20.722656 77.265625 20.839844 75.078125 C 22.972656 75.453125 24.980469 76.125 26.867188 77.089844 Z M 26.867188 77.089844 "/>
<path style=" stroke:none;fill-rule:evenodd;fill:rgb(54.117647%,74.117647%,33.72549%);fill-opacity:1;" d="M 47.960938 59.511719 C 50.136719 59.847656 52.3125 60.179688 54.488281 60.515625 C 53.503906 62.421875 52.078125 63.929688 50.21875 65.035156 C 47.144531 63.925781 46.390625 62.085938 47.960938 59.511719 Z M 47.960938 59.511719 "/>
<path style=" stroke:none;fill-rule:evenodd;fill:rgb(23.137255%,26.666667%,14.901961%);fill-opacity:1;" d="M 47.960938 59.511719 C 50.328125 59.347656 52.671875 59.515625 54.992188 60.011719 C 54.929688 60.316406 54.761719 60.484375 54.488281 60.515625 C 52.3125 60.179688 50.136719 59.847656 47.960938 59.511719 Z M 47.960938 59.511719 "/>
<path style=" stroke:none;fill-rule:evenodd;fill:rgb(59.607843%,76.078431%,30.588235%);fill-opacity:1;" d="M 46.957031 51.976562 C 50.230469 52.816406 52.742188 54.742188 54.488281 57.753906 C 54.417969 58.140625 54.25 58.476562 53.988281 58.757812 C 51.640625 58.925781 49.296875 58.839844 46.957031 58.507812 C 46.957031 56.332031 46.957031 54.152344 46.957031 51.976562 Z M 46.957031 51.976562 "/>
<path style=" stroke:none;fill-rule:evenodd;fill:rgb(71.372549%,66.27451%,65.490196%);fill-opacity:1;" d="M 86.128906 70.558594 C 88.269531 75.839844 87.265625 80.441406 83.113281 84.371094 C 78.914062 86.898438 74.5625 87.234375 70.058594 85.375 C 65.09375 81.785156 63.753906 77.179688 66.039062 71.5625 C 64.53125 81.179688 68.546875 85.78125 78.09375 85.375 C 79.007812 85.273438 79.675781 84.855469 80.101562 84.117188 C 80.769531 83.785156 81.441406 83.449219 82.109375 83.113281 C 83.222656 82.761719 84.144531 82.09375 84.871094 81.105469 C 86.941406 77.925781 87.195312 74.578125 85.625 71.0625 C 85.6875 70.757812 85.855469 70.589844 86.128906 70.558594 Z M 86.128906 70.558594 "/>
<path style=" stroke:none;fill-rule:evenodd;fill:rgb(34.509804%,56.470588%,21.960784%);fill-opacity:1;" d="M 47.457031 87.132812 C 47.3125 86.554688 46.894531 86.21875 46.203125 86.128906 C 42.8125 87.285156 39.382812 88.289062 35.90625 89.140625 C 36.410156 88.804688 36.910156 88.472656 37.414062 88.136719 C 39.136719 87.527344 40.8125 86.773438 42.4375 85.875 C 43.78125 84.109375 45.457031 83.355469 47.457031 83.617188 C 48.109375 84.859375 48.109375 86.03125 47.457031 87.132812 Z M 47.457031 87.132812 "/>
<path style=" stroke:none;fill-rule:evenodd;fill:rgb(16.078431%,30.588235%,9.803922%);fill-opacity:1;" d="M 36.910156 87.632812 C 36.910156 87.96875 37.078125 88.136719 37.414062 88.136719 C 36.910156 88.472656 36.410156 88.804688 35.90625 89.140625 C 34.769531 89.503906 33.597656 89.667969 32.390625 89.644531 C 32.390625 89.308594 32.390625 88.972656 32.390625 88.640625 C 33.878906 88.226562 35.386719 87.890625 36.910156 87.632812 Z M 36.910156 87.632812 "/>
<path style=" stroke:none;fill-rule:evenodd;fill:rgb(33.72549%,32.941176%,32.54902%);fill-opacity:1;" d="M 86.628906 88.640625 C 86.246094 89.023438 85.746094 89.277344 85.125 89.390625 C 78.003906 89.808594 70.976562 89.722656 64.03125 89.140625 C 71.578125 89.277344 79.113281 89.109375 86.628906 88.640625 Z M 86.628906 88.640625 "/>
<path style=" stroke:none;fill-rule:evenodd;fill:rgb(10.980392%,17.254902%,8.235294%);fill-opacity:1;" d="M 47.457031 88.640625 C 47.339844 89.289062 47.507812 89.789062 47.960938 90.144531 C 47.960938 90.480469 47.960938 90.816406 47.960938 91.148438 C 47.214844 91.949219 46.460938 92.785156 45.699219 93.660156 C 45.445312 91.664062 46.03125 89.992188 47.457031 88.640625 Z M 47.457031 88.640625 "/>
<path style=" stroke:none;fill-rule:evenodd;fill:rgb(39.215686%,62.745098%,24.313725%);fill-opacity:1;" d="M 57 95.167969 C 55.289062 94.367188 53.949219 93.113281 52.980469 91.402344 C 52.195312 91.015625 51.527344 91.101562 50.972656 91.652344 C 49.96875 91.484375 48.964844 91.316406 47.960938 91.148438 C 47.960938 90.816406 47.960938 90.480469 47.960938 90.144531 C 49.007812 89.046875 49.507812 87.710938 49.46875 86.128906 C 52.042969 86.578125 54.386719 87.582031 56.496094 89.140625 C 56.996094 91.121094 57.164062 93.132812 57 95.167969 Z M 57 95.167969 "/>
<path style=" stroke:none;fill-rule:evenodd;fill:rgb(32.941176%,47.843137%,24.313725%);fill-opacity:1;" d="M 59.007812 91.652344 C 59.308594 91.332031 59.726562 91.164062 60.265625 91.148438 C 62.699219 91.414062 65.128906 91.75 67.546875 92.152344 C 68.027344 92.945312 68.363281 93.78125 68.550781 94.664062 C 67.339844 94.566406 66.835938 93.898438 67.042969 92.65625 C 64.339844 92.515625 61.660156 92.183594 59.007812 91.652344 Z M 59.007812 91.652344 "/>
<path style=" stroke:none;fill-rule:evenodd;fill:rgb(75.294118%,83.529412%,36.470588%);fill-opacity:1;" d="M 32.390625 88.640625 C 32.390625 88.972656 32.390625 89.308594 32.390625 89.644531 C 31.105469 90.738281 31.105469 91.824219 32.390625 92.90625 C 36.046875 93.441406 39.730469 93.859375 43.441406 94.164062 C 42.953125 95.3125 42.285156 96.316406 41.433594 97.175781 C 40.914062 97.773438 40.242188 98.191406 39.421875 98.433594 C 40.078125 99.242188 40.078125 99.996094 39.421875 100.691406 C 39.53125 100.101562 39.367188 99.597656 38.921875 99.183594 C 38.175781 99.675781 37.507812 100.261719 36.910156 100.941406 C 33.445312 100.925781 30.429688 102.015625 27.871094 104.207031 C 27.703125 104.039062 27.539062 103.871094 27.371094 103.703125 C 26.382812 100.765625 26.132812 97.753906 26.617188 94.664062 C 26.855469 92.851562 27.605469 91.34375 28.875 90.144531 C 30.472656 90.441406 31.644531 89.941406 32.390625 88.640625 Z M 32.390625 88.640625 "/>
<path style=" stroke:none;fill-rule:evenodd;fill:rgb(63.529412%,60.392157%,59.215686%);fill-opacity:1;" d="M 82.613281 91.652344 C 81.203125 92.0625 79.695312 92.3125 78.09375 92.40625 C 78.816406 92.902344 79.316406 93.574219 79.597656 94.414062 C 77.355469 94.703125 75.179688 94.453125 73.070312 93.660156 C 72.292969 93.667969 71.625 93.832031 71.0625 94.164062 C 70.34375 93.519531 70.007812 92.683594 70.058594 91.652344 C 74.242188 91.652344 78.425781 91.652344 82.613281 91.652344 Z M 82.613281 91.652344 "/>
<path style=" stroke:none;fill-rule:evenodd;fill:rgb(46.666667%,72.156863%,28.627451%);fill-opacity:1;" d="M 47.457031 87.132812 C 47.457031 87.632812 47.457031 88.136719 47.457031 88.640625 C 46.03125 89.992188 45.445312 91.664062 45.699219 93.660156 C 46.460938 92.785156 47.214844 91.949219 47.960938 91.148438 C 48.964844 91.316406 49.96875 91.484375 50.972656 91.652344 C 50.722656 97.019531 49.382812 102.039062 46.957031 106.71875 C 46.515625 106.785156 46.179688 106.617188 45.953125 106.214844 C 47.398438 103.5 48.402344 100.652344 48.964844 97.679688 C 47.808594 97.359375 46.722656 96.855469 45.699219 96.171875 C 44.324219 97.226562 42.898438 97.5625 41.433594 97.175781 C 42.285156 96.316406 42.953125 95.3125 43.441406 94.164062 C 39.730469 93.859375 36.046875 93.441406 32.390625 92.90625 C 31.105469 91.824219 31.105469 90.738281 32.390625 89.644531 C 33.597656 89.667969 34.769531 89.503906 35.90625 89.140625 C 39.382812 88.289062 42.8125 87.285156 46.203125 86.128906 C 46.894531 86.21875 47.3125 86.554688 47.457031 87.132812 Z M 47.457031 87.132812 "/>
<path style=" stroke:none;fill-rule:evenodd;fill:rgb(40.392157%,62.352941%,26.27451%);fill-opacity:1;" d="M 59.007812 91.652344 C 61.660156 92.183594 64.339844 92.515625 67.042969 92.65625 C 66.835938 93.898438 67.339844 94.566406 68.550781 94.664062 C 69.140625 95.175781 69.476562 95.84375 69.554688 96.675781 C 67.242188 96.390625 65.0625 95.71875 63.027344 94.664062 C 62.066406 95.089844 61.0625 95.257812 60.011719 95.167969 C 59.355469 95.347656 59.191406 97.019531 59.511719 100.1875 C 59.375 101.097656 59.039062 101.9375 58.507812 102.699219 C 58.011719 100.890625 57.84375 99.046875 58.003906 97.175781 C 58.414062 98.246094 58.664062 99.417969 58.757812 100.691406 C 58.722656 97.589844 58.804688 94.578125 59.007812 91.652344 Z M 59.007812 91.652344 "/>
<path style=" stroke:none;fill-rule:evenodd;fill:rgb(79.215686%,77.647059%,76.862745%);fill-opacity:1;" d="M 82.613281 91.652344 C 83.953125 91.652344 85.289062 91.652344 86.628906 91.652344 C 86.765625 92.453125 86.597656 93.125 86.128906 93.660156 C 85.75 93.121094 85.25 93.039062 84.621094 93.410156 C 81.453125 94.660156 78.4375 96.164062 75.582031 97.929688 C 76.203125 98.046875 76.703125 98.296875 77.089844 98.683594 C 76.753906 98.683594 76.417969 98.683594 76.082031 98.683594 C 73.78125 97.886719 72.109375 96.382812 71.0625 94.164062 C 71.625 93.832031 72.292969 93.667969 73.070312 93.660156 C 75.179688 94.453125 77.355469 94.703125 79.597656 94.414062 C 79.316406 93.574219 78.816406 92.902344 78.09375 92.40625 C 79.695312 92.3125 81.203125 92.0625 82.613281 91.652344 Z M 82.613281 91.652344 "/>
<path style=" stroke:none;fill-rule:evenodd;fill:rgb(93.333333%,92.54902%,92.156863%);fill-opacity:1;" d="M 86.128906 93.660156 C 85.792969 95.84375 84.621094 97.351562 82.613281 98.179688 C 80.792969 98.554688 78.953125 98.722656 77.089844 98.683594 C 76.703125 98.296875 76.203125 98.046875 75.582031 97.929688 C 78.4375 96.164062 81.453125 94.660156 84.621094 93.410156 C 85.25 93.039062 85.75 93.121094 86.128906 93.660156 Z M 86.128906 93.660156 "/>
<path style=" stroke:none;fill-rule:evenodd;fill:rgb(36.862745%,36.470588%,36.078431%);fill-opacity:1;" d="M 82.613281 98.179688 C 81.539062 98.949219 80.285156 99.285156 78.847656 99.183594 C 77.824219 99.183594 76.90625 99.015625 76.082031 98.683594 C 76.417969 98.683594 76.753906 98.683594 77.089844 98.683594 C 78.953125 98.722656 80.792969 98.554688 82.613281 98.179688 Z M 82.613281 98.179688 "/>
<path style=" stroke:none;fill-rule:evenodd;fill:rgb(50.980392%,74.901961%,30.980392%);fill-opacity:1;" d="M 69.554688 96.675781 C 70.382812 97.164062 71.050781 97.835938 71.5625 98.683594 C 69.898438 102.082031 67.386719 104.425781 64.03125 105.714844 C 62.945312 105.90625 62.105469 105.570312 61.519531 104.710938 C 62.8125 102.476562 63.144531 100.132812 62.523438 97.679688 C 60.867188 97.835938 59.863281 98.671875 59.511719 100.1875 C 59.191406 97.019531 59.355469 95.347656 60.011719 95.167969 C 61.0625 95.257812 62.066406 95.089844 63.027344 94.664062 C 65.0625 95.71875 67.242188 96.390625 69.554688 96.675781 Z M 69.554688 96.675781 "/>
<use xlink:href="#surface32" mask="url(#mask9)"/>
<path style=" stroke:none;fill-rule:evenodd;fill:rgb(70.588235%,85.098039%,36.078431%);fill-opacity:1;" d="M 46.957031 106.71875 C 45.976562 108.683594 44.46875 109.183594 42.4375 108.226562 C 41.289062 106.488281 40.035156 104.816406 38.667969 103.203125 C 38.367188 102.179688 38.621094 101.34375 39.421875 100.691406 C 40.078125 99.996094 40.078125 99.242188 39.421875 98.433594 C 40.242188 98.191406 40.914062 97.773438 41.433594 97.175781 C 42.898438 97.5625 44.324219 97.226562 45.699219 96.171875 C 46.722656 96.855469 47.808594 97.359375 48.964844 97.679688 C 48.402344 100.652344 47.398438 103.5 45.953125 106.214844 C 46.179688 106.617188 46.515625 106.785156 46.957031 106.71875 Z M 46.957031 106.71875 "/>
<path style=" stroke:none;fill-rule:evenodd;fill:rgb(64.313725%,82.745098%,36.078431%);fill-opacity:1;" d="M 57 95.167969 C 57.117188 95.953125 57.453125 96.621094 58.003906 97.175781 C 57.84375 99.046875 58.011719 100.890625 58.507812 102.699219 C 59.039062 101.9375 59.375 101.097656 59.511719 100.1875 C 59.863281 98.671875 60.867188 97.835938 62.523438 97.679688 C 63.144531 100.132812 62.8125 102.476562 61.519531 104.710938 C 62.105469 105.570312 62.945312 105.90625 64.03125 105.714844 C 64.453125 106.285156 64.789062 106.957031 65.035156 107.722656 C 64.617188 107.890625 64.199219 108.058594 63.78125 108.226562 C 59.097656 106.84375 55.332031 104.167969 52.480469 100.1875 C 51.460938 101.894531 50.457031 103.570312 49.46875 105.210938 C 48.507812 105.5 47.671875 106.003906 46.957031 106.71875 C 49.382812 102.039062 50.722656 97.019531 50.972656 91.652344 C 51.527344 91.101562 52.195312 91.015625 52.980469 91.402344 C 53.949219 93.113281 55.289062 94.367188 57 95.167969 Z M 57 95.167969 "/>
<path style=" stroke:none;fill-rule:evenodd;fill:rgb(64.705882%,75.686275%,39.215686%);fill-opacity:1;" d="M 49.46875 105.210938 C 48.421875 107.011719 47.082031 108.601562 45.449219 109.980469 C 44.039062 110.175781 43.035156 109.589844 42.4375 108.226562 C 44.46875 109.183594 45.976562 108.683594 46.957031 106.71875 C 47.671875 106.003906 48.507812 105.5 49.46875 105.210938 Z M 49.46875 105.210938 "/>
<use xlink:href="#surface35" mask="url(#mask10)"/>
<use xlink:href="#surface38" mask="url(#mask11)"/>
</g>
</svg>
