<?xml version="1.0" encoding="UTF-8"?>
<svg xmlns="http://www.w3.org/2000/svg" xmlns:xlink="http://www.w3.org/1999/xlink" width="px" height="px" viewBox="0 0 107 102" version="1.1">
<defs>
<filter id="alpha" filterUnits="objectBoundingBox" x="0%" y="0%" width="100%" height="100%">
  <feColorMatrix type="matrix" in="SourceGraphic" values="0 0 0 0 1 0 0 0 0 1 0 0 0 0 1 0 0 0 1 0"/>
</filter>
<mask id="mask0">
  <g filter="url(#alpha)">
<rect x="0" y="0" width="107" height="102" style="fill:rgb(0%,0%,0%);fill-opacity:0.0431373;stroke:none;"/>
  </g>
</mask>
<clipPath id="clip1">
  <rect x="0" y="0" width="107" height="103"/>
</clipPath>
<g id="surface5" clip-path="url(#clip1)">
<path style=" stroke:none;fill-rule:evenodd;fill:rgb(13.333334%,21.176471%,25.882354%);fill-opacity:1;" d="M 47.75 0.25 C 47.148438 2.066406 46.648438 3.90625 46.25 5.777344 C 43.628906 5.121094 40.960938 4.785156 38.25 4.773438 C 38.25 5.777344 38.25 6.785156 38.25 7.789062 C 37.582031 7.789062 36.917969 7.789062 36.25 7.789062 C 36.351562 6.757812 36.769531 6.589844 37.5 7.285156 C 37.507812 5.574219 38.171875 4.234375 39.5 3.265625 C 41.417969 3.703125 43.417969 4.375 45.5 5.277344 C 45.957031 3.863281 46.371094 2.441406 46.75 1.003906 C 46.917969 0.488281 47.25 0.234375 47.75 0.25 Z M 47.75 0.25 "/>
</g>
<mask id="mask1">
  <g filter="url(#alpha)">
<rect x="0" y="0" width="107" height="102" style="fill:rgb(0%,0%,0%);fill-opacity:0.00784314;stroke:none;"/>
  </g>
</mask>
<clipPath id="clip2">
  <rect x="0" y="0" width="107" height="103"/>
</clipPath>
<g id="surface8" clip-path="url(#clip2)">
<path style=" stroke:none;fill-rule:evenodd;fill:rgb(16.862746%,22.745098%,27.058825%);fill-opacity:1;" d="M 47.75 0.25 C 47.75 0.0820312 47.75 -0.0820312 47.75 -0.25 C 48.75 -0.25 49.75 -0.25 50.75 -0.25 C 51.957031 0.949219 53.289062 2.035156 54.75 3.015625 C 58.910156 3.597656 62.742188 5.023438 66.25 7.285156 C 75.664062 4.144531 81.664062 7.324219 84.25 16.832031 C 87.71875 18.726562 89.96875 21.574219 91 25.375 C 93.246094 25.574219 95.496094 26.160156 97.75 27.132812 C 101.734375 31.933594 104.484375 37.378906 106 43.464844 C 106.363281 44.835938 106.28125 46.175781 105.75 47.484375 C 105.925781 47.996094 106.261719 48.332031 106.75 48.488281 C 106.75 50.164062 106.75 51.835938 106.75 53.511719 C 106.355469 53.65625 106.023438 53.90625 105.75 54.265625 C 106.210938 56.121094 106.292969 58.046875 106 60.042969 C 104.714844 64.308594 102.878906 68.328125 100.5 72.101562 C 99.039062 73.910156 97.289062 75.332031 95.25 76.375 C 94.066406 76.171875 92.898438 76.085938 91.75 76.125 C 90.796875 80.5625 88.296875 83.746094 84.25 85.671875 C 84.03125 88.121094 83.03125 90.132812 81.25 91.699219 C 82.082031 89.777344 82.664062 87.765625 83 85.671875 C 87.246094 83.671875 89.664062 80.324219 90.25 75.621094 C 94.0625 76.339844 97.144531 75.167969 99.5 72.101562 C 101.75 68.082031 103.585938 63.894531 105 59.542969 C 105.320312 58.015625 105.234375 56.507812 104.75 55.019531 C 105.121094 53.605469 105.457031 52.179688 105.75 50.75 C 105.648438 49.539062 105.148438 48.535156 104.25 47.734375 C 105.667969 45.316406 105.417969 43.054688 103.5 40.949219 C 103.332031 39.777344 103.167969 38.605469 103 37.433594 C 101.707031 35.335938 100.539062 33.160156 99.5 30.902344 C 97.332031 27.574219 94.25 26.234375 90.25 26.882812 C 89.988281 24.175781 88.820312 22 86.75 20.351562 C 85.882812 19.152344 84.714844 18.316406 83.25 17.835938 C 81.417969 7.871094 75.753906 4.6875 66.25 8.289062 C 62.664062 5.722656 58.664062 4.296875 54.25 4.019531 C 52.5 1.96875 50.332031 0.714844 47.75 0.25 Z M 47.75 0.25 "/>
</g>
<mask id="mask2">
  <g filter="url(#alpha)">
<rect x="0" y="0" width="107" height="102" style="fill:rgb(0%,0%,0%);fill-opacity:0.00392157;stroke:none;"/>
  </g>
</mask>
<clipPath id="clip3">
  <rect x="0" y="0" width="107" height="103"/>
</clipPath>
<g id="surface11" clip-path="url(#clip3)">
<path style=" stroke:none;fill-rule:evenodd;fill:rgb(12.54902%,19.215687%,23.137255%);fill-opacity:1;" d="M 34.75 9.296875 C 34.792969 9.796875 34.625 10.214844 34.25 10.550781 C 29.917969 10.804688 25.585938 10.886719 21.25 10.804688 C 21.542969 13.191406 22.042969 15.539062 22.75 17.835938 C 21.71875 17.847656 20.71875 18.011719 19.75 18.339844 C 20.171875 17.5 20.839844 16.914062 21.75 16.582031 C 18.894531 10.628906 20.644531 8.535156 27 10.300781 C 29.59375 9.984375 32.175781 9.648438 34.75 9.296875 Z M 34.75 9.296875 "/>
</g>
<mask id="mask3">
  <g filter="url(#alpha)">
<rect x="0" y="0" width="107" height="102" style="fill:rgb(0%,0%,0%);fill-opacity:0.972549;stroke:none;"/>
  </g>
</mask>
<clipPath id="clip4">
  <rect x="0" y="0" width="107" height="103"/>
</clipPath>
<g id="surface14" clip-path="url(#clip4)">
<path style=" stroke:none;fill-rule:evenodd;fill:rgb(4.705882%,3.529412%,3.529412%);fill-opacity:1;" d="M 83.75 20.351562 C 84.75 20.351562 85.75 20.351562 86.75 20.351562 C 88.820312 22 89.988281 24.175781 90.25 26.882812 C 94.25 26.234375 97.332031 27.574219 99.5 30.902344 C 100.539062 33.160156 101.707031 35.335938 103 37.433594 C 103.167969 38.605469 103.332031 39.777344 103.5 40.949219 C 105.417969 43.054688 105.667969 45.316406 104.25 47.734375 C 105.148438 48.535156 105.648438 49.539062 105.75 50.75 C 105.457031 52.179688 105.121094 53.605469 104.75 55.019531 C 105.234375 56.507812 105.320312 58.015625 105 59.542969 C 103.585938 63.894531 101.75 68.082031 99.5 72.101562 C 97.144531 75.167969 94.0625 76.339844 90.25 75.621094 C 89.664062 80.324219 87.246094 83.671875 83 85.671875 C 82.664062 87.765625 82.082031 89.777344 81.25 91.699219 C 81.183594 93.355469 80.351562 94.191406 78.75 94.210938 C 77.199219 95.160156 75.53125 95.828125 73.75 96.222656 C 72.667969 95.734375 71.503906 95.316406 70.25 94.964844 C 69.699219 94.578125 69.699219 94.160156 70.25 93.710938 C 76.140625 94.484375 79.640625 91.96875 80.75 86.171875 C 79.75 86.171875 78.75 86.171875 77.75 86.171875 C 74.285156 86.277344 70.949219 86.777344 67.75 87.679688 C 67.695312 87.371094 67.527344 87.117188 67.25 86.925781 C 66.261719 86.675781 65.261719 86.59375 64.25 86.675781 C 64.25 87.175781 64.25 87.679688 64.25 88.183594 C 63.929688 87.40625 63.429688 86.738281 62.75 86.171875 C 60.921875 86.808594 59.089844 86.808594 57.25 86.171875 C 61.167969 85.609375 65 85.191406 68.75 84.917969 C 66.757812 84.664062 64.757812 84.582031 62.75 84.664062 C 67.332031 84.199219 72 83.863281 76.75 83.660156 C 80.878906 84.175781 84.214844 82.839844 86.75 79.640625 C 87.515625 78.152344 88.015625 76.5625 88.25 74.867188 C 87.402344 72.667969 87.152344 70.40625 87.5 68.082031 C 90.007812 65.042969 91.089844 61.527344 90.75 57.53125 C 91.382812 51.40625 91.296875 45.210938 90.5 38.941406 C 89.878906 37.191406 88.878906 35.683594 87.5 34.417969 C 87.152344 32.097656 87.402344 29.835938 88.25 27.636719 C 87.8125 24.484375 86.3125 22.058594 83.75 20.351562 Z M 83.75 20.351562 "/>
</g>
<mask id="mask4">
  <g filter="url(#alpha)">
<rect x="0" y="0" width="107" height="102" style="fill:rgb(0%,0%,0%);fill-opacity:0.0313725;stroke:none;"/>
  </g>
</mask>
<clipPath id="clip5">
  <rect x="0" y="0" width="107" height="103"/>
</clipPath>
<g id="surface17" clip-path="url(#clip5)">
<path style=" stroke:none;fill-rule:evenodd;fill:rgb(16.470589%,21.568628%,25.882354%);fill-opacity:1;" d="M 0.25 48.988281 C 1.667969 49.953125 3.167969 50.792969 4.75 51.503906 C 5.625 52.367188 6.625 53.121094 7.75 53.761719 C 5.394531 54.945312 3.226562 56.367188 1.25 58.035156 C 1.65625 58.695312 2.15625 59.28125 2.75 59.792969 C 5.667969 61.511719 8.5 63.351562 11.25 65.320312 C 9.050781 66.589844 6.882812 67.847656 4.75 69.089844 C 4.988281 69.582031 5.320312 70 5.75 70.34375 C 7.101562 71.019531 8.433594 71.6875 9.75 72.355469 C 8.117188 74.214844 6.953125 76.308594 6.25 78.636719 C 9.613281 77.699219 12.78125 78.03125 15.75 79.640625 C 12.34375 79.214844 9.09375 79.050781 6 79.136719 C 5.75 78.636719 5.5 78.132812 5.25 77.628906 C 6.125 76.035156 7.125 74.53125 8.25 73.109375 C 6.65625 71.886719 5.15625 70.546875 3.75 69.089844 C 5.390625 67.589844 7.226562 66.335938 9.25 65.320312 C 6.25 62.976562 3.25 60.628906 0.25 58.285156 C 1.585938 56.1875 3.417969 54.679688 5.75 53.761719 C 3.820312 52.238281 1.988281 50.648438 0.25 48.988281 Z M 0.25 48.988281 "/>
</g>
<mask id="mask5">
  <g filter="url(#alpha)">
<rect x="0" y="0" width="107" height="102" style="fill:rgb(0%,0%,0%);fill-opacity:0.0823529;stroke:none;"/>
  </g>
</mask>
<clipPath id="clip6">
  <rect x="0" y="0" width="107" height="103"/>
</clipPath>
<g id="surface20" clip-path="url(#clip6)">
<path style=" stroke:none;fill-rule:evenodd;fill:rgb(17.254902%,20.392157%,24.705882%);fill-opacity:1;" d="M 78.75 94.210938 C 77.117188 96.375 74.867188 97.378906 72 97.226562 C 70.550781 97.15625 69.132812 96.90625 67.75 96.472656 C 66.839844 96.140625 66.171875 95.554688 65.75 94.714844 C 68.265625 95.945312 70.933594 96.449219 73.75 96.222656 C 75.53125 95.828125 77.199219 95.160156 78.75 94.210938 Z M 78.75 94.210938 "/>
</g>
</defs>
<g id="surface1">
<path style=" stroke:none;fill-rule:evenodd;fill:rgb(2.745098%,1.960784%,2.352941%);fill-opacity:1;" d="M 47.75 0.25 C 50.332031 0.714844 52.5 1.96875 54.25 4.019531 C 58.664062 4.296875 62.664062 5.722656 66.25 8.289062 C 75.753906 4.6875 81.417969 7.871094 83.25 17.835938 C 84.714844 18.316406 85.882812 19.152344 86.75 20.351562 C 85.75 20.351562 84.75 20.351562 83.75 20.351562 C 73.136719 19.003906 62.472656 18.585938 51.75 19.09375 C 45.058594 21.292969 40.476562 25.734375 38 32.410156 C 37.425781 33.882812 37.011719 35.390625 36.75 36.929688 C 35.542969 41.046875 35.042969 45.316406 35.25 49.742188 C 35.1875 53.789062 35.519531 57.726562 36.25 61.550781 C 36.097656 62.835938 36.265625 64.011719 36.75 65.070312 C 38.125 75.578125 43.957031 82.027344 54.25 84.414062 C 57.078125 84.664062 59.910156 84.75 62.75 84.664062 C 64.757812 84.582031 66.757812 84.664062 68.75 84.917969 C 65 85.191406 61.167969 85.609375 57.25 86.171875 C 59.089844 86.808594 60.921875 86.808594 62.75 86.171875 C 63.429688 86.738281 63.929688 87.40625 64.25 88.183594 C 65.285156 91.0625 67.285156 92.90625 70.25 93.710938 C 69.699219 94.160156 69.699219 94.578125 70.25 94.964844 C 71.503906 95.316406 72.667969 95.734375 73.75 96.222656 C 70.933594 96.449219 68.265625 95.945312 65.75 94.714844 C 65.441406 94.660156 65.191406 94.492188 65 94.210938 C 63.957031 94.863281 62.871094 95.449219 61.75 95.96875 C 56.894531 96.570312 52.726562 98.496094 49.25 101.75 C 48.917969 101.75 48.582031 101.75 48.25 101.75 C 47.554688 100.234375 46.722656 98.8125 45.75 97.476562 C 43.234375 97.515625 40.734375 97.683594 38.25 97.980469 C 37.789062 96.953125 37.621094 95.867188 37.75 94.714844 C 36.847656 94.71875 36.011719 94.46875 35.25 93.960938 C 34.5625 93.101562 33.726562 92.429688 32.75 91.949219 C 28.90625 91.652344 25.074219 91.734375 21.25 92.203125 C 21.441406 89.605469 21.859375 87.09375 22.5 84.664062 C 20.757812 83.761719 19.671875 82.335938 19.25 80.394531 C 18.09375 80.0625 16.925781 79.808594 15.75 79.640625 C 12.78125 78.03125 9.613281 77.699219 6.25 78.636719 C 6.953125 76.308594 8.117188 74.214844 9.75 72.355469 C 8.433594 71.6875 7.101562 71.019531 5.75 70.34375 C 5.320312 70 4.988281 69.582031 4.75 69.089844 C 6.882812 67.847656 9.050781 66.589844 11.25 65.320312 C 8.5 63.351562 5.667969 61.511719 2.75 59.792969 C 2.15625 59.28125 1.65625 58.695312 1.25 58.035156 C 3.226562 56.367188 5.394531 54.945312 7.75 53.761719 C 6.625 53.121094 5.625 52.367188 4.75 51.503906 C 5.582031 51.167969 6.417969 50.832031 7.25 50.496094 C 8.917969 51.503906 10.582031 52.507812 12.25 53.511719 C 11.105469 54.921875 9.769531 56.09375 8.25 57.03125 C 7.289062 57.179688 6.453125 57.597656 5.75 58.285156 C 9.164062 60.632812 12.5 63.0625 15.75 65.570312 C 13.820312 67.148438 11.652344 68.40625 9.25 69.339844 C 11.015625 70.160156 12.847656 70.746094 14.75 71.097656 C 14.917969 71.433594 15.082031 71.769531 15.25 72.101562 C 13.511719 73.0625 11.84375 74.152344 10.25 75.371094 C 14.019531 76.527344 17.855469 77.28125 21.75 77.628906 C 21.359375 80.125 22.359375 81.546875 24.75 81.902344 C 24.871094 84.152344 26.039062 85.492188 28.25 85.921875 C 26.277344 86.492188 24.777344 87.664062 23.75 89.4375 C 26.890625 89.167969 30.058594 89.167969 33.25 89.4375 C 34.679688 89.90625 35.847656 90.742188 36.75 91.949219 C 37.25 92.035156 37.75 92.117188 38.25 92.203125 C 39.421875 91.859375 40.585938 91.523438 41.75 91.195312 C 41.03125 92.433594 40.53125 93.773438 40.25 95.214844 C 42.832031 95.113281 45.332031 94.609375 47.75 93.710938 C 48.242188 95.324219 48.742188 97 49.25 98.734375 C 50.417969 97.894531 51.417969 96.890625 52.25 95.71875 C 55.859375 95.273438 59.359375 94.433594 62.75 93.207031 C 63.144531 93.066406 63.476562 92.8125 63.75 92.453125 C 62.886719 91.554688 62.550781 90.464844 62.75 89.1875 C 59.414062 89.269531 56.078125 89.1875 52.75 88.9375 C 51.566406 87.746094 50.148438 86.992188 48.5 86.675781 C 47.425781 86.746094 46.589844 87.25 46 88.183594 C 45.558594 85.058594 43.808594 83.300781 40.75 82.90625 C 39.417969 81.902344 38.082031 80.898438 36.75 79.890625 C 37.378906 79.429688 38.046875 79.007812 38.75 78.636719 C 37.773438 78 36.773438 77.414062 35.75 76.875 C 36.582031 76.710938 37.417969 76.542969 38.25 76.375 C 34.964844 72.585938 33.296875 68.148438 33.25 63.058594 C 32.683594 55.042969 32.597656 47.003906 33 38.941406 C 33.507812 36.738281 34.089844 34.5625 34.75 32.410156 C 33.417969 32.074219 32.082031 31.738281 30.75 31.402344 C 32.265625 30.867188 33.765625 30.28125 35.25 29.644531 C 37.019531 27.515625 38.601562 25.253906 40 22.863281 C 44.945312 17.683594 51.03125 14.917969 58.25 14.570312 C 59.855469 12.875 61.519531 11.285156 63.25 9.796875 C 62.273438 8.800781 61.105469 8.046875 59.75 7.535156 C 57.136719 6.714844 54.46875 6.128906 51.75 5.777344 C 51.0625 4.917969 50.226562 4.246094 49.25 3.769531 C 48.902344 4.03125 48.652344 4.367188 48.5 4.773438 C 48.453125 6.660156 48.371094 8.5 48.25 10.300781 C 46.035156 8.613281 43.535156 7.605469 40.75 7.285156 C 40.75 8.882812 41.25 10.304688 42.25 11.558594 C 41.75 11.890625 41.25 11.890625 40.75 11.558594 C 40.136719 10.769531 39.386719 10.183594 38.5 9.796875 C 37.277344 10.523438 36.191406 11.445312 35.25 12.5625 C 31.570312 12.644531 27.90625 12.898438 24.25 13.316406 C 24.941406 15.015625 26.109375 16.1875 27.75 16.832031 C 26.046875 17.375 25.046875 18.546875 24.75 20.351562 C 23.730469 20.382812 22.5625 20.464844 21.25 20.601562 C 20.082031 21.773438 18.917969 22.945312 17.75 24.117188 C 15.003906 24.660156 12.339844 25.246094 9.75 25.875 C 10.355469 27.15625 11.355469 27.824219 12.75 27.886719 C 13.519531 28.207031 14.1875 28.710938 14.75 29.394531 C 13.035156 30.390625 11.199219 31.140625 9.25 31.65625 C 8.644531 32.210938 8.8125 32.460938 9.75 32.410156 C 9.816406 32.78125 9.730469 33.113281 9.5 33.414062 C 8.316406 33.460938 7.066406 33.292969 5.75 32.910156 C 5.195312 32.175781 5.445312 31.671875 6.5 31.402344 C 6.742188 30.925781 6.824219 30.425781 6.75 29.898438 C 7.671875 30.035156 8.339844 29.703125 8.75 28.890625 C 7.738281 27.183594 6.738281 25.511719 5.75 23.867188 C 5.730469 23.324219 5.5625 22.820312 5.25 22.359375 C 6.972656 21.753906 8.636719 21.921875 10.25 22.863281 C 12.382812 22.140625 14.550781 21.554688 16.75 21.101562 C 16.582031 20.9375 16.417969 20.769531 16.25 20.601562 C 17.617188 20.148438 18.785156 19.394531 19.75 18.339844 C 20.71875 18.011719 21.71875 17.847656 22.75 17.835938 C 22.042969 15.539062 21.542969 13.191406 21.25 10.804688 C 25.585938 10.886719 29.917969 10.804688 34.25 10.550781 C 34.625 10.214844 34.792969 9.796875 34.75 9.296875 C 34.90625 8.46875 35.40625 7.96875 36.25 7.789062 C 36.917969 7.789062 37.582031 7.789062 38.25 7.789062 C 38.25 6.785156 38.25 5.777344 38.25 4.773438 C 40.960938 4.785156 43.628906 5.121094 46.25 5.777344 C 46.648438 3.90625 47.148438 2.066406 47.75 0.25 Z M 47.75 0.25 "/>
<use xlink:href="#surface5" mask="url(#mask0)"/>
<path style=" stroke:none;fill-rule:evenodd;fill:rgb(95.686275%,75.294119%,56.078434%);fill-opacity:1;" d="M 77.75 16.832031 C 76.03125 13.519531 73.367188 12.429688 69.75 13.566406 C 68.488281 14.347656 67.65625 15.4375 67.25 16.832031 C 64.203125 16.941406 63.453125 15.601562 65 12.8125 C 67.792969 9.429688 71.375 8.339844 75.75 9.546875 C 78.984375 11.101562 80.652344 13.699219 80.75 17.335938 C 79.632812 17.484375 78.632812 17.316406 77.75 16.832031 Z M 77.75 16.832031 "/>
<path style=" stroke:none;fill-rule:evenodd;fill:rgb(7.450981%,6.27451%,7.843138%);fill-opacity:1;" d="M 33.25 63.058594 C 32.039062 61.886719 30.953125 60.546875 30 59.039062 C 29.039062 60.925781 27.789062 62.601562 26.25 64.0625 C 24.347656 63.605469 23.847656 62.515625 24.75 60.796875 C 23.597656 59.628906 22.847656 58.207031 22.5 56.527344 C 20.433594 54.953125 18.515625 53.195312 16.75 51.25 C 13.925781 49.835938 11.09375 48.496094 8.25 47.230469 C 7.058594 46.859375 6.058594 47.113281 5.25 47.984375 C 4.878906 47.917969 4.546875 48.003906 4.25 48.238281 C 5.34375 48.921875 6.34375 49.675781 7.25 50.496094 C 6.417969 50.832031 5.582031 51.167969 4.75 51.503906 C 3.167969 50.792969 1.667969 49.953125 0.25 48.988281 C 0.25 48.65625 0.0820312 48.488281 -0.25 48.488281 C -0.25 48.152344 -0.25 47.816406 -0.25 47.484375 C 2.917969 46.011719 2.917969 44.671875 -0.25 43.464844 C -0.25 42.960938 -0.25 42.457031 -0.25 41.957031 C 2.90625 39.933594 6.40625 37.921875 10.25 35.925781 C 8.757812 35.050781 7.175781 34.382812 5.5 33.917969 C 4.863281 33.394531 4.28125 32.808594 3.75 32.15625 C 4.855469 30.625 6.191406 29.367188 7.75 28.390625 C 6.917969 27.050781 6.082031 25.710938 5.25 24.371094 C 5.3125 24.066406 5.476562 23.898438 5.75 23.867188 C 6.738281 25.511719 7.738281 27.183594 8.75 28.890625 C 8.339844 29.703125 7.671875 30.035156 6.75 29.898438 C 6.824219 30.425781 6.742188 30.925781 6.5 31.402344 C 5.445312 31.671875 5.195312 32.175781 5.75 32.910156 C 7.066406 33.292969 8.316406 33.460938 9.5 33.414062 C 9.730469 33.113281 9.816406 32.78125 9.75 32.410156 C 11.730469 32.820312 13.5625 33.574219 15.25 34.671875 C 17.363281 35.140625 18.199219 34.386719 17.75 32.410156 C 16.417969 31.992188 15.085938 31.570312 13.75 31.152344 C 14.453125 30.515625 15.285156 30.265625 16.25 30.398438 C 16.320312 29.582031 15.988281 28.996094 15.25 28.640625 C 15.527344 28.449219 15.695312 28.195312 15.75 27.886719 C 17.011719 27.695312 18.175781 27.277344 19.25 26.628906 C 16.058594 26.507812 12.890625 26.253906 9.75 25.875 C 12.339844 25.246094 15.003906 24.660156 17.75 24.117188 C 18.917969 22.945312 20.082031 21.773438 21.25 20.601562 C 22.5625 20.464844 23.730469 20.382812 24.75 20.351562 C 25.339844 21.523438 26.175781 22.53125 27.25 23.363281 C 27.992188 22.871094 28.65625 22.285156 29.25 21.605469 C 31.042969 21.5 32.792969 21.25 34.5 20.851562 C 34.195312 19.363281 33.28125 18.277344 31.75 17.585938 C 30.492188 16.957031 29.160156 16.707031 27.75 16.832031 C 26.109375 16.1875 24.941406 15.015625 24.25 13.316406 C 27.90625 12.898438 31.570312 12.644531 35.25 12.5625 C 36.191406 11.445312 37.277344 10.523438 38.5 9.796875 C 39.386719 10.183594 40.136719 10.769531 40.75 11.558594 C 41.25 11.890625 41.75 11.890625 42.25 11.558594 C 41.25 10.304688 40.75 8.882812 40.75 7.285156 C 43.535156 7.605469 46.035156 8.613281 48.25 10.300781 C 48.371094 8.5 48.453125 6.660156 48.5 4.773438 C 48.652344 4.367188 48.902344 4.03125 49.25 3.769531 C 50.226562 4.246094 51.0625 4.917969 51.75 5.777344 C 54.46875 6.128906 57.136719 6.714844 59.75 7.535156 C 61.105469 8.046875 62.273438 8.800781 63.25 9.796875 C 61.519531 11.285156 59.855469 12.875 58.25 14.570312 C 51.03125 14.917969 44.945312 17.683594 40 22.863281 C 38.601562 25.253906 37.019531 27.515625 35.25 29.644531 C 33.765625 30.28125 32.265625 30.867188 30.75 31.402344 C 32.082031 31.738281 33.417969 32.074219 34.75 32.410156 C 34.089844 34.5625 33.507812 36.738281 33 38.941406 C 32.597656 47.003906 32.683594 55.042969 33.25 63.058594 Z M 33.25 63.058594 "/>
<use xlink:href="#surface8" mask="url(#mask1)"/>
<path style=" stroke:none;fill-rule:evenodd;fill:rgb(44.313726%,24.705882%,20.392157%);fill-opacity:1;" d="M 77.75 16.832031 C 74.25 16.832031 70.75 16.832031 67.25 16.832031 C 67.65625 15.4375 68.488281 14.347656 69.75 13.566406 C 73.367188 12.429688 76.03125 13.519531 77.75 16.832031 Z M 77.75 16.832031 "/>
<use xlink:href="#surface11" mask="url(#mask2)"/>
<path style=" stroke:none;fill-rule:evenodd;fill:rgb(16.078432%,14.509805%,14.509805%);fill-opacity:1;" d="M 27.75 16.832031 C 29.160156 16.707031 30.492188 16.957031 31.75 17.585938 C 33.28125 18.277344 34.195312 19.363281 34.5 20.851562 C 32.792969 21.25 31.042969 21.5 29.25 21.605469 C 28.65625 22.285156 27.992188 22.871094 27.25 23.363281 C 26.175781 22.53125 25.339844 21.523438 24.75 20.351562 C 25.046875 18.546875 26.046875 17.375 27.75 16.832031 Z M 27.75 16.832031 "/>
<use xlink:href="#surface14" mask="url(#mask3)"/>
<path style=" stroke:none;fill-rule:evenodd;fill:rgb(91.37255%,61.960787%,38.431373%);fill-opacity:1;" d="M 83.75 20.351562 C 86.3125 22.058594 87.8125 24.484375 88.25 27.636719 C 87.402344 29.835938 87.152344 32.097656 87.5 34.417969 C 88.878906 35.683594 89.878906 37.191406 90.5 38.941406 C 91.296875 45.210938 91.382812 51.40625 90.75 57.53125 C 90.75 56.527344 90.75 55.523438 90.75 54.515625 C 90.804688 50.511719 90.304688 46.574219 89.25 42.710938 C 88.730469 41.074219 87.894531 39.648438 86.75 38.4375 C 86.4375 37.871094 86.023438 37.371094 85.5 36.929688 C 85.304688 34.417969 85.386719 31.90625 85.75 29.394531 C 85.960938 25.878906 84.460938 23.449219 81.25 22.109375 C 78.652344 20.953125 75.984375 20.703125 73.25 21.355469 C 75.960938 21.75 77.960938 23.089844 79.25 25.375 C 78.230469 24.261719 77.0625 23.925781 75.75 24.371094 C 73.113281 23.917969 70.449219 23.75 67.75 23.867188 C 66.960938 23.582031 66.292969 23.082031 65.75 22.359375 C 66.082031 22.023438 66.417969 21.691406 66.75 21.355469 C 66.5 21.1875 66.25 21.019531 66 20.851562 C 61.679688 21.167969 57.429688 21.5 53.25 21.855469 C 46.019531 23.679688 41.269531 28.199219 39 35.421875 C 38.402344 37.285156 37.820312 39.125 37.25 40.949219 C 36.761719 39.722656 36.597656 38.378906 36.75 36.929688 C 37.011719 35.390625 37.425781 33.882812 38 32.410156 C 40.476562 25.734375 45.058594 21.292969 51.75 19.09375 C 62.472656 18.585938 73.136719 19.003906 83.75 20.351562 Z M 83.75 20.351562 "/>
<path style=" stroke:none;fill-rule:evenodd;fill:rgb(37.254903%,38.82353%,39.607844%);fill-opacity:1;" d="M 9.75 25.875 C 12.890625 26.253906 16.058594 26.507812 19.25 26.628906 C 18.175781 27.277344 17.011719 27.695312 15.75 27.886719 C 14.75 27.886719 13.75 27.886719 12.75 27.886719 C 11.355469 27.824219 10.355469 27.15625 9.75 25.875 Z M 9.75 25.875 "/>
<path style=" stroke:none;fill-rule:evenodd;fill:rgb(92.941177%,71.372551%,55.686277%);fill-opacity:1;" d="M 97.75 32.910156 C 95.917969 33.246094 94.082031 33.582031 92.25 33.917969 C 89.664062 34.414062 88.746094 33.410156 89.5 30.902344 C 93.023438 28.398438 95.773438 29.070312 97.75 32.910156 Z M 97.75 32.910156 "/>
<path style=" stroke:none;fill-rule:evenodd;fill:rgb(99.607843%,83.137256%,60.784316%);fill-opacity:1;" d="M 53.25 21.855469 C 56.582031 21.855469 59.917969 21.855469 63.25 21.855469 C 63.328125 22.710938 63.246094 23.546875 63 24.371094 C 61.671875 25.871094 60.753906 27.546875 60.25 29.394531 C 59.476562 28.742188 58.476562 28.410156 57.25 28.390625 C 54.90625 28.558594 52.574219 28.808594 50.25 29.144531 C 47.792969 30.4375 45.460938 31.945312 43.25 33.664062 C 41.050781 36.027344 39.050781 38.457031 37.25 40.949219 C 37.820312 39.125 38.402344 37.285156 39 35.421875 C 41.269531 28.199219 46.019531 23.679688 53.25 21.855469 Z M 53.25 21.855469 "/>
<path style=" stroke:none;fill-rule:evenodd;fill:rgb(99.607843%,89.411765%,68.235296%);fill-opacity:1;" d="M 60.25 29.394531 C 59.191406 36.230469 61.191406 42.007812 66.25 46.730469 C 69.496094 48.105469 72.828125 48.355469 76.25 47.484375 C 76.25 46.980469 76.25 46.476562 76.25 45.976562 C 77.855469 45.503906 79.355469 44.75 80.75 43.714844 C 82.539062 41.664062 84.539062 39.90625 86.75 38.4375 C 87.894531 39.648438 88.730469 41.074219 89.25 42.710938 C 90.304688 46.574219 90.804688 50.511719 90.75 54.515625 C 90.417969 55.019531 90.082031 55.523438 89.75 56.023438 C 89.832031 53.003906 89.75 49.992188 89.5 46.980469 C 89.144531 46.238281 88.5625 45.90625 87.75 45.976562 C 87.527344 48.160156 87.113281 48.328125 86.5 46.476562 C 86.164062 46.101562 85.746094 45.933594 85.25 45.976562 C 83.742188 45.894531 82.242188 45.976562 80.75 46.226562 C 78.890625 47.160156 77.058594 48.082031 75.25 48.988281 C 74.113281 49.117188 73.527344 49.789062 73.5 51 C 72.5 50.332031 71.5 50.332031 70.5 51 C 70.167969 50.664062 69.832031 50.332031 69.5 49.996094 C 68.496094 50.582031 67.414062 50.917969 66.25 51 C 66.335938 52 66.003906 52.839844 65.25 53.511719 C 61.09375 53.929688 56.925781 54.179688 52.75 54.265625 C 47.089844 55.09375 42.675781 57.855469 39.5 62.558594 C 38.925781 62.074219 38.425781 62.242188 38 63.058594 C 37.832031 62.222656 37.667969 61.382812 37.5 60.546875 C 37.25 62.046875 37.167969 63.550781 37.25 65.070312 C 37.082031 65.070312 36.917969 65.070312 36.75 65.070312 C 36.265625 64.011719 36.097656 62.835938 36.25 61.550781 C 36.324219 56.234375 36.40625 50.875 36.5 45.472656 C 36.976562 44 37.226562 42.492188 37.25 40.949219 C 39.050781 38.457031 41.050781 36.027344 43.25 33.664062 C 45.460938 31.945312 47.792969 30.4375 50.25 29.144531 C 52.574219 28.808594 54.90625 28.558594 57.25 28.390625 C 58.476562 28.410156 59.476562 28.742188 60.25 29.394531 Z M 60.25 29.394531 "/>
<path style=" stroke:none;fill-rule:evenodd;fill:rgb(99.215686%,77.254903%,55.29412%);fill-opacity:1;" d="M 67.75 23.867188 C 63.578125 26.394531 61.992188 30.078125 63 34.921875 C 66.074219 41.445312 70.824219 43.035156 77.25 39.695312 C 79.890625 37.171875 80.890625 34.070312 80.25 30.398438 C 80.996094 28.550781 80.664062 26.875 79.25 25.375 C 77.960938 23.089844 75.960938 21.75 73.25 21.355469 C 75.984375 20.703125 78.652344 20.953125 81.25 22.109375 C 84.460938 23.449219 85.960938 25.878906 85.75 29.394531 C 85.386719 31.90625 85.304688 34.417969 85.5 36.929688 C 86.023438 37.371094 86.4375 37.871094 86.75 38.4375 C 84.539062 39.90625 82.539062 41.664062 80.75 43.714844 C 79.355469 44.75 77.855469 45.503906 76.25 45.976562 C 76.25 46.476562 76.25 46.980469 76.25 47.484375 C 72.828125 48.355469 69.496094 48.105469 66.25 46.730469 C 61.191406 42.007812 59.191406 36.230469 60.25 29.394531 C 60.753906 27.546875 61.671875 25.871094 63 24.371094 C 63.246094 23.546875 63.328125 22.710938 63.25 21.855469 C 59.917969 21.855469 56.582031 21.855469 53.25 21.855469 C 57.429688 21.5 61.679688 21.167969 66 20.851562 C 66.25 21.019531 66.5 21.1875 66.75 21.355469 C 66.417969 21.691406 66.082031 22.023438 65.75 22.359375 C 66.292969 23.082031 66.960938 23.582031 67.75 23.867188 Z M 67.75 23.867188 "/>
<path style=" stroke:none;fill-rule:evenodd;fill:rgb(90.588236%,54.509807%,30.19608%);fill-opacity:1;" d="M 79.25 25.375 C 80.664062 26.875 80.996094 28.550781 80.25 30.398438 C 79.519531 27.820312 78.019531 25.8125 75.75 24.371094 C 77.0625 23.925781 78.230469 24.261719 79.25 25.375 Z M 79.25 25.375 "/>
<path style=" stroke:none;fill-rule:evenodd;fill:rgb(1.960784%,0.392157%,0.392157%);fill-opacity:1;" d="M 67.75 23.867188 C 70.449219 23.75 73.113281 23.917969 75.75 24.371094 C 78.019531 25.8125 79.519531 27.820312 80.25 30.398438 C 80.890625 34.070312 79.890625 37.171875 77.25 39.695312 C 70.824219 43.035156 66.074219 41.445312 63 34.921875 C 61.992188 30.078125 63.578125 26.394531 67.75 23.867188 Z M 67.75 23.867188 "/>
<path style=" stroke:none;fill-rule:evenodd;fill:rgb(37.254903%,23.529412%,16.078432%);fill-opacity:1;" d="M 97.75 32.910156 C 98.023438 32.941406 98.1875 33.109375 98.25 33.414062 C 96.277344 33.910156 94.277344 34.078125 92.25 33.917969 C 94.082031 33.582031 95.917969 33.246094 97.75 32.910156 Z M 97.75 32.910156 "/>
<path style=" stroke:none;fill-rule:evenodd;fill:rgb(31.764707%,32.156864%,33.333334%);fill-opacity:1;" d="M 12.75 27.886719 C 13.75 27.886719 14.75 27.886719 15.75 27.886719 C 15.695312 28.195312 15.527344 28.449219 15.25 28.640625 C 15.988281 28.996094 16.320312 29.582031 16.25 30.398438 C 15.285156 30.265625 14.453125 30.515625 13.75 31.152344 C 15.085938 31.570312 16.417969 31.992188 17.75 32.410156 C 18.199219 34.386719 17.363281 35.140625 15.25 34.671875 C 13.5625 33.574219 11.730469 32.820312 9.75 32.410156 C 8.8125 32.460938 8.644531 32.210938 9.25 31.65625 C 11.199219 31.140625 13.035156 30.390625 14.75 29.394531 C 14.1875 28.710938 13.519531 28.207031 12.75 27.886719 Z M 12.75 27.886719 "/>
<path style=" stroke:none;fill-rule:evenodd;fill:rgb(92.941177%,82.745099%,74.117649%);fill-opacity:1;" d="M 91.75 35.925781 C 94.347656 35.601562 95.515625 36.773438 95.25 39.441406 C 92.417969 39.945312 91.25 38.773438 91.75 35.925781 Z M 91.75 35.925781 "/>
<path style=" stroke:none;fill-rule:evenodd;fill:rgb(89.411765%,73.725492%,58.431375%);fill-opacity:1;" d="M 96.25 35.925781 C 98.574219 35.773438 100.242188 36.695312 101.25 38.691406 C 101.175781 39.078125 101.011719 39.414062 100.75 39.695312 C 99.59375 39.945312 98.429688 40.027344 97.25 39.945312 C 97.019531 38.578125 96.683594 37.238281 96.25 35.925781 Z M 96.25 35.925781 "/>
<path style=" stroke:none;fill-rule:evenodd;fill:rgb(32.941177%,32.941177%,34.901962%);fill-opacity:1;" d="M 14.25 37.9375 C 15.175781 37.820312 15.59375 38.15625 15.5 38.941406 C 14.046875 40.214844 12.464844 41.304688 10.75 42.207031 C 11.6875 42.800781 12.6875 43.304688 13.75 43.714844 C 10.558594 44.910156 7.558594 44.574219 4.75 42.710938 C 7.960938 41.09375 11.128906 39.503906 14.25 37.9375 Z M 14.25 37.9375 "/>
<path style=" stroke:none;fill-rule:evenodd;fill:rgb(90.980393%,77.64706%,67.058825%);fill-opacity:1;" d="M 98.25 41.957031 C 100.761719 41.457031 102.425781 42.378906 103.25 44.71875 C 103.121094 45.351562 102.785156 45.855469 102.25 46.226562 C 100.757812 46.476562 99.257812 46.558594 97.75 46.476562 C 97.632812 44.914062 97.796875 43.410156 98.25 41.957031 Z M 98.25 41.957031 "/>
<path style=" stroke:none;fill-rule:evenodd;fill:rgb(85.09804%,77.64706%,69.411767%);fill-opacity:1;" d="M 93.25 41.957031 C 95.285156 41.457031 96.285156 42.210938 96.25 44.214844 C 96.21875 44.9375 96.054688 45.609375 95.75 46.226562 C 94.761719 46.476562 93.761719 46.558594 92.75 46.476562 C 92.632812 44.914062 92.796875 43.410156 93.25 41.957031 Z M 93.25 41.957031 "/>
<path style=" stroke:none;fill-rule:evenodd;fill:rgb(83.137256%,59.607846%,43.137255%);fill-opacity:1;" d="M 36.75 36.929688 C 36.597656 38.378906 36.761719 39.722656 37.25 40.949219 C 37.226562 42.492188 36.976562 44 36.5 45.472656 C 36.40625 50.875 36.324219 56.234375 36.25 61.550781 C 35.519531 57.726562 35.1875 53.789062 35.25 49.742188 C 35.042969 45.316406 35.542969 41.046875 36.75 36.929688 Z M 36.75 36.929688 "/>
<path style=" stroke:none;fill-rule:evenodd;fill:rgb(2.352941%,1.568628%,1.176471%);fill-opacity:1;" d="M 85.25 45.976562 C 86.230469 48.109375 85.730469 49.785156 83.75 51 C 85.699219 52.128906 86.199219 53.71875 85.25 55.773438 C 81.191406 56.289062 77.773438 55.03125 75 52.003906 C 74.660156 50.949219 74.746094 49.945312 75.25 48.988281 C 77.058594 48.082031 78.890625 47.160156 80.75 46.226562 C 82.242188 45.976562 83.742188 45.894531 85.25 45.976562 Z M 85.25 45.976562 "/>
<path style=" stroke:none;fill-rule:evenodd;fill:rgb(46.27451%,46.27451%,47.843137%);fill-opacity:1;" d="M 5.25 47.984375 C 8.628906 48.675781 11.628906 50.183594 14.25 52.507812 C 13.710938 53.113281 13.042969 53.449219 12.25 53.511719 C 10.582031 52.507812 8.917969 51.503906 7.25 50.496094 C 6.34375 49.675781 5.34375 48.921875 4.25 48.238281 C 4.546875 48.003906 4.878906 47.917969 5.25 47.984375 Z M 5.25 47.984375 "/>
<path style=" stroke:none;fill-rule:evenodd;fill:rgb(94.509804%,87.843138%,79.215688%);fill-opacity:1;" d="M 97.75 48.988281 C 99.425781 48.90625 101.089844 48.992188 102.75 49.242188 C 103.417969 50.582031 103.417969 51.921875 102.75 53.261719 C 101.089844 53.511719 99.425781 53.59375 97.75 53.511719 C 97.75 52.003906 97.75 50.496094 97.75 48.988281 Z M 97.75 48.988281 "/>
<path style=" stroke:none;fill-rule:evenodd;fill:rgb(89.411765%,87.058824%,81.960785%);fill-opacity:1;" d="M 93.25 48.988281 C 94.25 48.988281 95.25 48.988281 96.25 48.988281 C 96.25 50.496094 96.25 52.003906 96.25 53.511719 C 92.8125 53.796875 91.8125 52.289062 93.25 48.988281 Z M 93.25 48.988281 "/>
<path style=" stroke:none;fill-rule:evenodd;fill:rgb(99.607843%,91.37255%,71.764708%);fill-opacity:1;" d="M 85.25 45.976562 C 85.746094 45.933594 86.164062 46.101562 86.5 46.476562 C 87.113281 48.328125 87.527344 48.160156 87.75 45.976562 C 88.5625 45.90625 89.144531 46.238281 89.5 46.980469 C 89.75 49.992188 89.832031 53.003906 89.75 56.023438 C 89.644531 58.621094 89.144531 61.132812 88.25 63.5625 C 87.617188 63.859375 86.949219 64.109375 86.25 64.316406 C 86.890625 64.96875 86.808594 65.554688 86 66.074219 C 84.761719 64.78125 83.425781 63.609375 82 62.558594 C 81.832031 63.058594 81.667969 63.5625 81.5 64.0625 C 81.148438 63.269531 80.730469 62.515625 80.25 61.804688 C 79.609375 61.460938 79.023438 61.542969 78.5 62.054688 C 77.976562 61.246094 77.226562 60.910156 76.25 61.050781 C 71.074219 58.796875 66.910156 59.972656 63.75 64.566406 C 63.300781 64.015625 62.886719 64.015625 62.5 64.566406 C 61.863281 66.039062 61.03125 67.378906 60 68.585938 C 58.9375 71.355469 59.019531 74.035156 60.25 76.625 C 59.855469 76.484375 59.523438 76.230469 59.25 75.871094 C 54.21875 75.785156 49.386719 74.777344 44.75 72.855469 C 42.992188 71.554688 41.324219 70.128906 39.75 68.585938 C 39.445312 68.648438 39.28125 68.816406 39.25 69.089844 C 38.75 69.089844 38.25 69.089844 37.75 69.089844 C 37.902344 67.640625 37.738281 66.300781 37.25 65.070312 C 37.167969 63.550781 37.25 62.046875 37.5 60.546875 C 37.667969 61.382812 37.832031 62.222656 38 63.058594 C 38.425781 62.242188 38.925781 62.074219 39.5 62.558594 C 42.675781 57.855469 47.089844 55.09375 52.75 54.265625 C 56.925781 54.179688 61.09375 53.929688 65.25 53.511719 C 66.003906 52.839844 66.335938 52 66.25 51 C 67.414062 50.917969 68.496094 50.582031 69.5 49.996094 C 69.832031 50.332031 70.167969 50.664062 70.5 51 C 71.5 50.332031 72.5 50.332031 73.5 51 C 73.527344 49.789062 74.113281 49.117188 75.25 48.988281 C 74.746094 49.945312 74.660156 50.949219 75 52.003906 C 77.773438 55.03125 81.191406 56.289062 85.25 55.773438 C 86.199219 53.71875 85.699219 52.128906 83.75 51 C 85.730469 49.785156 86.230469 48.109375 85.25 45.976562 Z M 85.25 45.976562 "/>
<path style=" stroke:none;fill-rule:evenodd;fill:rgb(18.039216%,16.470589%,16.078432%);fill-opacity:1;" d="M 33.25 63.058594 C 33.296875 68.148438 34.964844 72.585938 38.25 76.375 C 37.417969 76.542969 36.582031 76.710938 35.75 76.875 C 36.773438 77.414062 37.773438 78 38.75 78.636719 C 38.046875 79.007812 37.378906 79.429688 36.75 79.890625 C 38.082031 80.898438 39.417969 81.902344 40.75 82.90625 C 43.808594 83.300781 45.558594 85.058594 46 88.183594 C 46.589844 87.25 47.425781 86.746094 48.5 86.675781 C 50.148438 86.992188 51.566406 87.746094 52.75 88.9375 C 56.078125 89.1875 59.414062 89.269531 62.75 89.1875 C 62.550781 90.464844 62.886719 91.554688 63.75 92.453125 C 63.476562 92.8125 63.144531 93.066406 62.75 93.207031 C 62.695312 92.898438 62.527344 92.644531 62.25 92.453125 C 61.082031 92.371094 59.917969 92.285156 58.75 92.203125 C 53.492188 92.367188 48.328125 92.367188 43.25 92.203125 C 42.351562 92.839844 42.183594 92.671875 42.75 91.699219 C 42.566406 90.996094 42.152344 90.492188 41.5 90.191406 C 37.792969 89.175781 34.378906 87.585938 31.25 85.417969 C 28.054688 82.039062 24.722656 78.855469 21.25 75.871094 C 18.988281 75.503906 16.824219 74.835938 14.75 73.863281 C 15.632812 73.007812 16.632812 72.339844 17.75 71.851562 C 16.902344 71.660156 16.070312 71.742188 15.25 72.101562 C 15.082031 71.769531 14.917969 71.433594 14.75 71.097656 C 15.960938 71.253906 17.128906 71.085938 18.25 70.597656 C 17.160156 69.796875 15.992188 69.125 14.75 68.585938 C 16.261719 67.570312 17.425781 66.230469 18.25 64.566406 C 17.175781 63.234375 16.007812 61.976562 14.75 60.796875 C 12.351562 59.765625 10.1875 58.511719 8.25 57.03125 C 9.769531 56.09375 11.105469 54.921875 12.25 53.511719 C 13.042969 53.449219 13.710938 53.113281 14.25 52.507812 C 11.628906 50.183594 8.628906 48.675781 5.25 47.984375 C 6.058594 47.113281 7.058594 46.859375 8.25 47.230469 C 11.09375 48.496094 13.925781 49.835938 16.75 51.25 C 18.515625 53.195312 20.433594 54.953125 22.5 56.527344 C 22.847656 58.207031 23.597656 59.628906 24.75 60.796875 C 23.847656 62.515625 24.347656 63.605469 26.25 64.0625 C 27.789062 62.601562 29.039062 60.925781 30 59.039062 C 30.953125 60.546875 32.039062 61.886719 33.25 63.058594 Z M 33.25 63.058594 "/>
<path style=" stroke:none;fill-rule:evenodd;fill:rgb(93.333334%,88.627452%,84.313726%);fill-opacity:1;" d="M 92.75 56.023438 C 93.917969 56.023438 95.082031 56.023438 96.25 56.023438 C 96.25 57.363281 96.25 58.703125 96.25 60.042969 C 95.082031 60.042969 93.917969 60.042969 92.75 60.042969 C 92.75 58.703125 92.75 57.363281 92.75 56.023438 Z M 92.75 56.023438 "/>
<path style=" stroke:none;fill-rule:evenodd;fill:rgb(95.686275%,88.627452%,81.960785%);fill-opacity:1;" d="M 97.75 56.023438 C 99.425781 55.941406 101.089844 56.027344 102.75 56.277344 C 103.492188 57.578125 103.324219 58.75 102.25 59.792969 C 100.757812 60.042969 99.257812 60.128906 97.75 60.042969 C 97.75 58.703125 97.75 57.363281 97.75 56.023438 Z M 97.75 56.023438 "/>
<path style=" stroke:none;fill-rule:evenodd;fill:rgb(1.568628%,1.176471%,0.784314%);fill-opacity:1;" d="M 76.25 61.050781 C 80.136719 63.511719 81.554688 67.027344 80.5 71.601562 C 77.359375 78.011719 72.609375 79.605469 66.25 76.375 C 62.667969 73.03125 61.832031 69.097656 63.75 64.566406 C 66.910156 59.972656 71.074219 58.796875 76.25 61.050781 Z M 76.25 61.050781 "/>
<path style=" stroke:none;fill-rule:evenodd;fill:rgb(92.941177%,87.450981%,82.745099%);fill-opacity:1;" d="M 97.25 62.558594 C 98.582031 62.558594 99.917969 62.558594 101.25 62.558594 C 101.21875 65.511719 99.71875 66.683594 96.75 66.074219 C 96.996094 64.914062 97.164062 63.742188 97.25 62.558594 Z M 97.25 62.558594 "/>
<path style=" stroke:none;fill-rule:evenodd;fill:rgb(90.980393%,86.274511%,83.529413%);fill-opacity:1;" d="M 92.25 62.558594 C 93.25 62.558594 94.25 62.558594 95.25 62.558594 C 95.917969 65.570312 94.75 66.742188 91.75 66.074219 C 91.722656 64.867188 91.890625 63.695312 92.25 62.558594 Z M 92.25 62.558594 "/>
<use xlink:href="#surface17" mask="url(#mask4)"/>
<path style=" stroke:none;fill-rule:evenodd;fill:rgb(38.431373%,39.215687%,40.784314%);fill-opacity:1;" d="M 8.25 57.03125 C 10.1875 58.511719 12.351562 59.765625 14.75 60.796875 C 16.007812 61.976562 17.175781 63.234375 18.25 64.566406 C 17.425781 66.230469 16.261719 67.570312 14.75 68.585938 C 15.992188 69.125 17.160156 69.796875 18.25 70.597656 C 17.128906 71.085938 15.960938 71.253906 14.75 71.097656 C 12.847656 70.746094 11.015625 70.160156 9.25 69.339844 C 11.652344 68.40625 13.820312 67.148438 15.75 65.570312 C 12.5 63.0625 9.164062 60.632812 5.75 58.285156 C 6.453125 57.597656 7.289062 57.179688 8.25 57.03125 Z M 8.25 57.03125 "/>
<path style=" stroke:none;fill-rule:evenodd;fill:rgb(94.509804%,83.92157%,73.725492%);fill-opacity:1;" d="M 89.75 68.082031 C 92.570312 68.445312 95.402344 68.613281 98.25 68.585938 C 97.449219 72.425781 95.117188 73.847656 91.25 72.855469 C 89.25 71.78125 88.75 70.191406 89.75 68.082031 Z M 89.75 68.082031 "/>
<path style=" stroke:none;fill-rule:evenodd;fill:rgb(99.215686%,96.862745%,90.196079%);fill-opacity:1;" d="M 60.25 76.625 C 61.171875 77.394531 61.671875 78.398438 61.75 79.640625 C 59.25 79.640625 56.75 79.640625 54.25 79.640625 C 48.949219 78.355469 44.367188 75.675781 40.5 71.601562 C 39.953125 70.808594 39.535156 69.96875 39.25 69.089844 C 39.28125 68.816406 39.445312 68.648438 39.75 68.585938 C 41.324219 70.128906 42.992188 71.554688 44.75 72.855469 C 49.386719 74.777344 54.21875 75.785156 59.25 75.871094 C 59.523438 76.230469 59.855469 76.484375 60.25 76.625 Z M 60.25 76.625 "/>
<path style=" stroke:none;fill-rule:evenodd;fill:rgb(98.823529%,87.058824%,67.058825%);fill-opacity:1;" d="M 76.25 61.050781 C 77.226562 60.910156 77.976562 61.246094 78.5 62.054688 C 79.023438 61.542969 79.609375 61.460938 80.25 61.804688 C 80.730469 62.515625 81.148438 63.269531 81.5 64.0625 C 81.667969 63.5625 81.832031 63.058594 82 62.558594 C 83.425781 63.609375 84.761719 64.78125 86 66.074219 C 86.808594 65.554688 86.890625 64.96875 86.25 64.316406 C 86.949219 64.109375 87.617188 63.859375 88.25 63.5625 C 87.691406 65.558594 86.773438 67.402344 85.5 69.089844 C 85.167969 72.773438 85.167969 76.457031 85.5 80.144531 C 85.835938 79.765625 86.253906 79.597656 86.75 79.640625 C 84.214844 82.839844 80.878906 84.175781 76.75 83.660156 C 76.894531 83.082031 77.3125 82.746094 78 82.65625 C 79.410156 82.375 80.828125 82.125 82.25 81.902344 C 82.8125 80.835938 83.5625 79.914062 84.5 79.136719 C 84.832031 75.789062 84.832031 72.4375 84.5 69.089844 C 83.871094 70.835938 83.539062 72.675781 83.5 74.617188 C 83.011719 76.1875 82.09375 77.441406 80.75 78.382812 C 77.613281 78.585938 74.613281 79.257812 71.75 80.394531 C 66.582031 80.730469 61.417969 80.730469 56.25 80.394531 C 55.472656 80.289062 54.804688 80.039062 54.25 79.640625 C 56.75 79.640625 59.25 79.640625 61.75 79.640625 C 61.671875 78.398438 61.171875 77.394531 60.25 76.625 C 59.019531 74.035156 58.9375 71.355469 60 68.585938 C 61.03125 67.378906 61.863281 66.039062 62.5 64.566406 C 62.886719 64.015625 63.300781 64.015625 63.75 64.566406 C 61.832031 69.097656 62.667969 73.03125 66.25 76.375 C 72.609375 79.605469 77.359375 78.011719 80.5 71.601562 C 81.554688 67.027344 80.136719 63.511719 76.25 61.050781 Z M 76.25 61.050781 "/>
<path style=" stroke:none;fill-rule:evenodd;fill:rgb(94.901961%,71.372551%,49.803922%);fill-opacity:1;" d="M 90.75 54.515625 C 90.75 55.523438 90.75 56.527344 90.75 57.53125 C 91.089844 61.527344 90.007812 65.042969 87.5 68.082031 C 87.152344 70.40625 87.402344 72.667969 88.25 74.867188 C 88.015625 76.5625 87.515625 78.152344 86.75 79.640625 C 86.253906 79.597656 85.835938 79.765625 85.5 80.144531 C 85.167969 76.457031 85.167969 72.773438 85.5 69.089844 C 86.773438 67.402344 87.691406 65.558594 88.25 63.5625 C 89.144531 61.132812 89.644531 58.621094 89.75 56.023438 C 90.082031 55.523438 90.417969 55.019531 90.75 54.515625 Z M 90.75 54.515625 "/>
<path style=" stroke:none;fill-rule:evenodd;fill:rgb(98.431373%,91.764706%,78.039217%);fill-opacity:1;" d="M 36.75 65.070312 C 36.917969 65.070312 37.082031 65.070312 37.25 65.070312 C 37.738281 66.300781 37.902344 67.640625 37.75 69.089844 C 38.25 69.089844 38.75 69.089844 39.25 69.089844 C 39.535156 69.96875 39.953125 70.808594 40.5 71.601562 C 44.367188 75.675781 48.949219 78.355469 54.25 79.640625 C 54.804688 80.039062 55.472656 80.289062 56.25 80.394531 C 61.417969 80.730469 66.582031 80.730469 71.75 80.394531 C 74.613281 79.257812 77.613281 78.585938 80.75 78.382812 C 82.09375 77.441406 83.011719 76.1875 83.5 74.617188 C 83.539062 72.675781 83.871094 70.835938 84.5 69.089844 C 84.832031 72.4375 84.832031 75.789062 84.5 79.136719 C 83.5625 79.914062 82.8125 80.835938 82.25 81.902344 C 80.828125 82.125 79.410156 82.375 78 82.65625 C 77.3125 82.746094 76.894531 83.082031 76.75 83.660156 C 72 83.863281 67.332031 84.199219 62.75 84.664062 C 59.910156 84.75 57.078125 84.664062 54.25 84.414062 C 43.957031 82.027344 38.125 75.578125 36.75 65.070312 Z M 36.75 65.070312 "/>
<path style=" stroke:none;fill-rule:evenodd;fill:rgb(39.607844%,39.215687%,40.000001%);fill-opacity:1;" d="M 43.25 92.203125 C 44.949219 92.042969 46.617188 92.207031 48.25 92.703125 C 48.070312 93.046875 47.902344 93.382812 47.75 93.710938 C 45.332031 94.609375 42.832031 95.113281 40.25 95.214844 C 40.53125 93.773438 41.03125 92.433594 41.75 91.195312 C 40.585938 91.523438 39.421875 91.859375 38.25 92.203125 C 37.75 92.117188 37.25 92.035156 36.75 91.949219 C 35.847656 90.742188 34.679688 89.90625 33.25 89.4375 C 30.058594 89.167969 26.890625 89.167969 23.75 89.4375 C 24.777344 87.664062 26.277344 86.492188 28.25 85.921875 C 26.039062 85.492188 24.871094 84.152344 24.75 81.902344 C 22.359375 81.546875 21.359375 80.125 21.75 77.628906 C 17.855469 77.28125 14.019531 76.527344 10.25 75.371094 C 11.84375 74.152344 13.511719 73.0625 15.25 72.101562 C 16.070312 71.742188 16.902344 71.660156 17.75 71.851562 C 16.632812 72.339844 15.632812 73.007812 14.75 73.863281 C 16.824219 74.835938 18.988281 75.503906 21.25 75.871094 C 24.722656 78.855469 28.054688 82.039062 31.25 85.417969 C 34.378906 87.585938 37.792969 89.175781 41.5 90.191406 C 42.152344 90.492188 42.566406 90.996094 42.75 91.699219 C 42.183594 92.671875 42.351562 92.839844 43.25 92.203125 Z M 43.25 92.203125 "/>
<path style=" stroke:none;fill-rule:evenodd;fill:rgb(37.64706%,27.058825%,22.745098%);fill-opacity:1;" d="M 77.75 86.171875 C 76.207031 89.292969 73.707031 90.550781 70.25 89.941406 C 69.171875 89.441406 68.335938 88.6875 67.75 87.679688 C 70.949219 86.777344 74.285156 86.277344 77.75 86.171875 Z M 77.75 86.171875 "/>
<path style=" stroke:none;fill-rule:evenodd;fill:rgb(97.647059%,90.196079%,78.431374%);fill-opacity:1;" d="M 77.75 86.171875 C 78.75 86.171875 79.75 86.171875 80.75 86.171875 C 79.640625 91.96875 76.140625 94.484375 70.25 93.710938 C 67.285156 92.90625 65.285156 91.0625 64.25 88.183594 C 64.25 87.679688 64.25 87.175781 64.25 86.675781 C 65.261719 86.59375 66.261719 86.675781 67.25 86.925781 C 67.527344 87.117188 67.695312 87.371094 67.75 87.679688 C 68.335938 88.6875 69.171875 89.441406 70.25 89.941406 C 73.707031 90.550781 76.207031 89.292969 77.75 86.171875 Z M 77.75 86.171875 "/>
<path style=" stroke:none;fill-rule:evenodd;fill:rgb(25.098041%,25.098041%,25.098041%);fill-opacity:1;" d="M 43.25 92.203125 C 48.328125 92.367188 53.492188 92.367188 58.75 92.203125 C 59.917969 92.285156 61.082031 92.371094 62.25 92.453125 C 62.527344 92.644531 62.695312 92.898438 62.75 93.207031 C 59.359375 94.433594 55.859375 95.273438 52.25 95.71875 C 51.417969 96.890625 50.417969 97.894531 49.25 98.734375 C 48.742188 97 48.242188 95.324219 47.75 93.710938 C 47.902344 93.382812 48.070312 93.046875 48.25 92.703125 C 46.617188 92.207031 44.949219 92.042969 43.25 92.203125 Z M 43.25 92.203125 "/>
<use xlink:href="#surface20" mask="url(#mask5)"/>
</g>
</svg>
