<?xml version="1.0" encoding="UTF-8"?>
<svg xmlns="http://www.w3.org/2000/svg" xmlns:xlink="http://www.w3.org/1999/xlink" width="px" height="px" viewBox="0 0 100 101" version="1.1">
<defs>
<filter id="alpha" filterUnits="objectBoundingBox" x="0%" y="0%" width="100%" height="100%">
  <feColorMatrix type="matrix" in="SourceGraphic" values="0 0 0 0 1 0 0 0 0 1 0 0 0 0 1 0 0 0 1 0"/>
</filter>
<mask id="mask0">
  <g filter="url(#alpha)">
<rect x="0" y="0" width="100" height="101" style="fill:rgb(0%,0%,0%);fill-opacity:0.027451;stroke:none;"/>
  </g>
</mask>
<clipPath id="clip1">
  <rect x="0" y="0" width="100" height="101"/>
</clipPath>
<g id="surface5" clip-path="url(#clip1)">
<path style=" stroke:none;fill-rule:evenodd;fill:rgb(13.333334%,26.274511%,31.37255%);fill-opacity:1;" d="M 41.25 1.75 C 43.179688 2.214844 45.015625 2.964844 46.75 4 C 48.46875 5.566406 50.386719 6.816406 52.5 7.75 C 52.828125 6.089844 53.828125 5.089844 55.5 4.75 C 57.925781 5.757812 60.011719 7.257812 61.75 9.25 C 72.03125 4.09375 78.78125 7.09375 82 18.25 C 84.902344 20.066406 86.984375 22.566406 88.25 25.75 C 90.179688 26.445312 92.011719 27.359375 93.75 28.5 C 95.492188 31.15625 97.492188 33.574219 99.75 35.75 C 99.75 36.582031 99.75 37.417969 99.75 38.25 C 97.769531 34.675781 95.269531 31.425781 92.25 28.5 C 90.65625 28.054688 89.074219 27.640625 87.5 27.25 C 86.453125 23.300781 84.117188 20.46875 80.5 18.75 C 79.191406 9.800781 74.109375 6.382812 65.25 8.5 C 63.851562 9.148438 62.519531 9.898438 61.25 10.75 C 59.824219 8.90625 58.15625 7.324219 56.25 6 C 54.175781 5.652344 53.007812 6.566406 52.75 8.75 C 48.898438 6.386719 45.0625 4.050781 41.25 1.75 Z M 41.25 1.75 "/>
</g>
<mask id="mask1">
  <g filter="url(#alpha)">
<rect x="0" y="0" width="100" height="101" style="fill:rgb(0%,0%,0%);fill-opacity:0.00784314;stroke:none;"/>
  </g>
</mask>
<clipPath id="clip2">
  <rect x="0" y="0" width="100" height="101"/>
</clipPath>
<g id="surface8" clip-path="url(#clip2)">
<path style=" stroke:none;fill-rule:evenodd;fill:rgb(14.117648%,24.705882%,30.588236%);fill-opacity:1;" d="M 16.25 12.75 C 14.824219 14.277344 13.660156 15.945312 12.75 17.75 C 12.636719 15.339844 13.804688 13.675781 16.25 12.75 Z M 16.25 12.75 "/>
</g>
<mask id="mask2">
  <g filter="url(#alpha)">
<rect x="0" y="0" width="100" height="101" style="fill:rgb(0%,0%,0%);fill-opacity:0.0745098;stroke:none;"/>
  </g>
</mask>
<clipPath id="clip3">
  <rect x="0" y="0" width="100" height="101"/>
</clipPath>
<g id="surface11" clip-path="url(#clip3)">
<path style=" stroke:none;fill-rule:evenodd;fill:rgb(14.901961%,24.313726%,30.588236%);fill-opacity:1;" d="M 12.75 17.75 C 12.75 18.917969 12.75 20.082031 12.75 21.25 C 11.25 21.25 9.75 21.25 8.25 21.25 C 10.78125 21.386719 12.28125 20.21875 12.75 17.75 Z M 12.75 17.75 "/>
</g>
<mask id="mask3">
  <g filter="url(#alpha)">
<rect x="0" y="0" width="100" height="101" style="fill:rgb(0%,0%,0%);fill-opacity:0.054902;stroke:none;"/>
  </g>
</mask>
<clipPath id="clip4">
  <rect x="0" y="0" width="100" height="101"/>
</clipPath>
<g id="surface14" clip-path="url(#clip4)">
<path style=" stroke:none;fill-rule:evenodd;fill:rgb(14.509805%,23.529412%,28.627452%);fill-opacity:1;" d="M 8.25 21.25 C 5.265625 23.054688 3.101562 25.554688 1.75 28.75 C 2.320312 24.847656 4.484375 22.347656 8.25 21.25 Z M 8.25 21.25 "/>
</g>
<mask id="mask4">
  <g filter="url(#alpha)">
<rect x="0" y="0" width="100" height="101" style="fill:rgb(0%,0%,0%);fill-opacity:0.0392157;stroke:none;"/>
  </g>
</mask>
<clipPath id="clip5">
  <rect x="0" y="0" width="100" height="101"/>
</clipPath>
<g id="surface17" clip-path="url(#clip5)">
<path style=" stroke:none;fill-rule:evenodd;fill:rgb(14.509805%,25.490198%,30.980393%);fill-opacity:1;" d="M 99.75 63.25 C 99.75 64.082031 99.75 64.917969 99.75 65.75 C 98.40625 68.492188 96.742188 71.078125 94.75 73.5 C 92.835938 74.804688 90.753906 75.722656 88.5 76.25 C 87.46875 80.03125 85.21875 82.867188 81.75 84.75 C 81.113281 88.695312 79.195312 91.859375 76 94.25 C 75.808594 93.972656 75.558594 93.804688 75.25 93.75 C 78.28125 91.363281 80.03125 88.195312 80.5 84.25 C 84.71875 82.480469 86.96875 79.3125 87.25 74.75 C 89.855469 74.992188 92.1875 74.324219 94.25 72.75 C 96.222656 69.632812 98.054688 66.46875 99.75 63.25 Z M 99.75 63.25 "/>
</g>
<mask id="mask5">
  <g filter="url(#alpha)">
<rect x="0" y="0" width="100" height="101" style="fill:rgb(0%,0%,0%);fill-opacity:0.0196078;stroke:none;"/>
  </g>
</mask>
<clipPath id="clip6">
  <rect x="0" y="0" width="100" height="101"/>
</clipPath>
<g id="surface20" clip-path="url(#clip6)">
<path style=" stroke:none;fill-rule:evenodd;fill:rgb(16.470589%,25.098041%,30.19608%);fill-opacity:1;" d="M 75.25 93.75 C 72.355469 96.34375 69.023438 96.929688 65.25 95.5 C 63.828125 94.742188 62.410156 93.992188 61 93.25 C 59.132812 95.035156 57.046875 96.535156 54.75 97.75 C 53.570312 96.988281 52.65625 95.988281 52 94.75 C 50.785156 94.808594 49.535156 95.140625 48.25 95.75 C 49.296875 94.617188 50.628906 93.949219 52.25 93.75 C 53.210938 94.734375 54.125 95.734375 55 96.75 C 55.992188 96.550781 56.742188 96.050781 57.25 95.25 C 58.574219 94.09375 59.90625 92.929688 61.25 91.75 C 65.433594 95.585938 70.097656 96.253906 75.25 93.75 Z M 75.25 93.75 "/>
</g>
<mask id="mask6">
  <g filter="url(#alpha)">
<rect x="0" y="0" width="100" height="101" style="fill:rgb(0%,0%,0%);fill-opacity:0.996078;stroke:none;"/>
  </g>
</mask>
<clipPath id="clip7">
  <rect x="0" y="0" width="100" height="101"/>
</clipPath>
<g id="surface23" clip-path="url(#clip7)">
<path style=" stroke:none;fill-rule:evenodd;fill:rgb(6.27451%,7.058824%,7.843138%);fill-opacity:1;" d="M 41.25 1.75 C 38.082031 2.332031 34.914062 2.414062 31.75 2 C 32.417969 2.167969 33.082031 2.332031 33.75 2.5 C 31.585938 3.28125 29.417969 4.113281 27.25 5 C 26.226562 5.613281 26.058594 6.363281 26.75 7.25 C 25.679688 9.460938 24.511719 11.628906 23.25 13.75 C 20.320312 13.59375 17.902344 14.59375 16 16.75 C 15.605469 18.863281 14.941406 20.863281 14 22.75 C 12.757812 23.65625 11.34375 23.988281 9.75 23.75 C 7.09375 24.738281 5.261719 26.574219 4.25 29.25 C 4.507812 33.898438 4.589844 38.566406 4.5 43.25 C 5.289062 45.28125 5.871094 47.363281 6.25 49.5 C 5.390625 51.976562 4.304688 54.390625 3 56.75 C 2.917969 57.917969 2.832031 59.082031 2.75 60.25 C 3.238281 65.125 3.988281 69.960938 5 74.75 C 5.75 76.167969 6.832031 77.25 8.25 78 C 10.257812 78.09375 12.257812 78.09375 14.25 78 C 14.894531 80.601562 15.644531 83.183594 16.5 85.75 C 18.222656 87.4375 20.304688 88.351562 22.75 88.5 C 24.441406 90.132812 25.691406 92.050781 26.5 94.25 C 31.410156 98.066406 36.660156 98.734375 42.25 96.25 C 45.085938 95.164062 47.753906 93.746094 50.25 92 C 52.613281 91.257812 54.445312 91.84375 55.75 93.75 C 55.75 94.75 56.25 95.25 57.25 95.25 C 56.742188 96.050781 55.992188 96.550781 55 96.75 C 54.125 95.734375 53.210938 94.734375 52.25 93.75 C 50.628906 93.949219 49.296875 94.617188 48.25 95.75 C 46.128906 98.050781 43.464844 99.46875 40.25 100 C 31.8125 101.757812 25.648438 98.921875 21.75 91.5 C 16.308594 90.144531 12.976562 86.726562 11.75 81.25 C 9.683594 80.992188 7.683594 80.492188 5.75 79.75 C 4.714844 78.527344 3.632812 77.359375 2.5 76.25 C 1.507812 71.195312 0.589844 66.195312 -0.25 61.25 C -0.25 60.582031 -0.25 59.917969 -0.25 59.25 C 0.1875 57.488281 0.601562 55.65625 1 53.75 C 2.085938 52.328125 2.835938 50.742188 3.25 49 C 2.472656 46.511719 1.808594 44.011719 1.25 41.5 C 1.324219 37.378906 1.492188 33.128906 1.75 28.75 C 3.101562 25.554688 5.265625 23.054688 8.25 21.25 C 9.75 21.25 11.25 21.25 12.75 21.25 C 12.75 20.082031 12.75 18.917969 12.75 17.75 C 13.660156 15.945312 14.824219 14.277344 16.25 12.75 C 16.304688 12.441406 16.472656 12.191406 16.75 12 C 18.210938 11.507812 19.710938 11.171875 21.25 11 C 25.273438 2.078125 31.941406 -1.003906 41.25 1.75 Z M 41.25 1.75 "/>
</g>
</defs>
<g id="surface1">
<path style=" stroke:none;fill-rule:evenodd;fill:rgb(96.470588%,86.274511%,64.313728%);fill-opacity:1;" d="M 58.25 11.25 C 58.257812 12.03125 58.425781 12.78125 58.75 13.5 C 57.414062 15.167969 56.578125 17.085938 56.25 19.25 C 53.804688 18.296875 51.386719 17.296875 49 16.25 C 49.304688 17.515625 49.554688 18.851562 49.75 20.25 C 47.652344 20.160156 45.902344 19.328125 44.5 17.75 C 45.1875 19.308594 45.769531 20.976562 46.25 22.75 C 44.039062 22.097656 41.789062 21.597656 39.5 21.25 C 38.476562 21.210938 37.558594 21.460938 36.75 22 C 39.867188 23.058594 42.867188 24.390625 45.75 26 C 46.851562 27.019531 47.851562 28.101562 48.75 29.25 C 46.320312 29.566406 43.988281 30.066406 41.75 30.75 C 38.75 33.835938 35.082031 35.75 30.75 36.5 C 31.578125 36.804688 32.410156 37.054688 33.25 37.25 C 33.417969 37.25 33.582031 37.25 33.75 37.25 C 36.597656 40.609375 38.679688 44.441406 40 48.75 C 40.199219 52.609375 39.949219 56.441406 39.25 60.25 C 38.726562 62.132812 38.058594 63.964844 37.25 65.75 C 35.019531 67.617188 32.6875 69.367188 30.25 71 C 34.53125 71.382812 38.78125 71.96875 43 72.75 C 44.441406 72.695312 45.859375 72.53125 47.25 72.25 C 45 75.210938 42 76.875 38.25 77.25 C 35.890625 77.113281 35.722656 77.53125 37.75 78.5 C 40.417969 78.667969 43.082031 78.832031 45.75 79 C 46.011719 79.347656 46.347656 79.597656 46.75 79.75 C 47.164062 78.820312 47.664062 77.988281 48.25 77.25 C 49.75 78.582031 51.25 79.917969 52.75 81.25 C 52.558594 82.949219 51.890625 84.449219 50.75 85.75 C 49.839844 86.109375 49.507812 86.609375 49.75 87.25 C 50.804688 86.949219 51.886719 86.78125 53 86.75 C 55.113281 86.929688 57.199219 87.261719 59.25 87.75 C 59.25 88.25 59.25 88.75 59.25 89.25 C 58.257812 90.90625 57.09375 92.40625 55.75 93.75 C 54.445312 91.84375 52.613281 91.257812 50.25 92 C 47.753906 93.746094 45.085938 95.164062 42.25 96.25 C 40.941406 96.363281 40.109375 95.777344 39.75 94.5 C 36.164062 94.480469 32.664062 94.148438 29.25 93.5 C 30.777344 92.53125 32.441406 91.867188 34.25 91.5 C 34.832031 90.140625 34.5 88.976562 33.25 88 C 30.875 86.742188 28.375 85.824219 25.75 85.25 C 29.203125 82.113281 28.871094 79.28125 24.75 76.75 C 23.96875 75.6875 22.96875 74.855469 21.75 74.25 C 23.890625 71.800781 25.390625 68.96875 26.25 65.75 C 26.179688 64.089844 25.347656 63.257812 23.75 63.25 C 25.078125 60.257812 26.410156 57.257812 27.75 54.25 C 25.941406 46.519531 21.109375 42.269531 13.25 41.5 C 18.984375 39.101562 23.066406 35.015625 25.5 29.25 C 26.300781 25.394531 24.882812 22.726562 21.25 21.25 C 19.6875 20.949219 19.519531 20.367188 20.75 19.5 C 23.527344 18.707031 26.363281 18.207031 29.25 18 C 31.167969 16.953125 31.832031 15.453125 31.25 13.5 C 28.558594 13.132812 25.890625 13.214844 23.25 13.75 C 24.511719 11.628906 25.679688 9.460938 26.75 7.25 C 30.457031 3.941406 34.789062 2.859375 39.75 4 C 43.769531 5.359375 47.269531 7.523438 50.25 10.5 C 51.75 10.832031 53.25 10.832031 54.75 10.5 C 55.125 9.632812 55.375 8.714844 55.5 7.75 C 56.664062 8.75 57.578125 9.917969 58.25 11.25 Z M 58.25 11.25 "/>
<use xlink:href="#surface5" mask="url(#mask0)"/>
<path style=" stroke:none;fill-rule:evenodd;fill:rgb(96.862745%,90.588236%,74.509805%);fill-opacity:1;" d="M 21.25 21.25 C 18.558594 21.035156 17.058594 22.285156 16.75 25 C 14.445312 25.820312 12.277344 26.902344 10.25 28.25 C 7.871094 26.921875 7.703125 25.421875 9.75 23.75 C 11.34375 23.988281 12.757812 23.65625 14 22.75 C 14.941406 20.863281 15.605469 18.863281 16 16.75 C 17.902344 14.59375 20.320312 13.59375 23.25 13.75 C 25.890625 13.214844 28.558594 13.132812 31.25 13.5 C 31.832031 15.453125 31.167969 16.953125 29.25 18 C 26.363281 18.207031 23.527344 18.707031 20.75 19.5 C 19.519531 20.367188 19.6875 20.949219 21.25 21.25 Z M 21.25 21.25 "/>
<use xlink:href="#surface8" mask="url(#mask1)"/>
<use xlink:href="#surface11" mask="url(#mask2)"/>
<use xlink:href="#surface14" mask="url(#mask3)"/>
<path style=" stroke:none;fill-rule:evenodd;fill:rgb(70.19608%,51.372552%,25.490198%);fill-opacity:1;" d="M 58.25 11.25 C 59.015625 12.175781 59.851562 13.09375 60.75 14 C 62.839844 14.757812 64.675781 15.921875 66.25 17.5 C 63.738281 17.414062 61.238281 17.246094 58.75 17 C 59.898438 18.378906 60.398438 19.960938 60.25 21.75 C 56.097656 22.46875 51.929688 23.136719 47.75 23.75 C 48.847656 25.277344 49.679688 26.945312 50.25 28.75 C 49.835938 29.191406 49.335938 29.359375 48.75 29.25 C 47.851562 28.101562 46.851562 27.019531 45.75 26 C 42.867188 24.390625 39.867188 23.058594 36.75 22 C 37.558594 21.460938 38.476562 21.210938 39.5 21.25 C 41.789062 21.597656 44.039062 22.097656 46.25 22.75 C 45.769531 20.976562 45.1875 19.308594 44.5 17.75 C 45.902344 19.328125 47.652344 20.160156 49.75 20.25 C 49.554688 18.851562 49.304688 17.515625 49 16.25 C 51.386719 17.296875 53.804688 18.296875 56.25 19.25 C 56.578125 17.085938 57.414062 15.167969 58.75 13.5 C 58.425781 12.78125 58.257812 12.03125 58.25 11.25 Z M 58.25 11.25 "/>
<path style=" stroke:none;fill-rule:evenodd;fill:rgb(5.098039%,3.529412%,2.745098%);fill-opacity:1;" d="M 41.25 1.75 C 45.0625 4.050781 48.898438 6.386719 52.75 8.75 C 53.007812 6.566406 54.175781 5.652344 56.25 6 C 58.15625 7.324219 59.824219 8.90625 61.25 10.75 C 62.519531 9.898438 63.851562 9.148438 65.25 8.5 C 74.109375 6.382812 79.191406 9.800781 80.5 18.75 C 84.117188 20.46875 86.453125 23.300781 87.5 27.25 C 89.074219 27.640625 90.65625 28.054688 92.25 28.5 C 95.269531 31.425781 97.769531 34.675781 99.75 38.25 C 99.75 39.917969 99.75 41.582031 99.75 43.25 C 98.085938 41.695312 96.085938 41.027344 93.75 41.25 C 94.121094 43.058594 94.289062 44.894531 94.25 46.75 C 96.207031 46.945312 98.039062 46.609375 99.75 45.75 C 99.75 47.082031 99.75 48.417969 99.75 49.75 C 94.636719 47.253906 92.804688 48.671875 94.25 54 C 96.328125 54.527344 98.160156 54.109375 99.75 52.75 C 99.75 56.25 99.75 59.75 99.75 63.25 C 98.054688 66.46875 96.222656 69.632812 94.25 72.75 C 92.1875 74.324219 89.855469 74.992188 87.25 74.75 C 86.96875 79.3125 84.71875 82.480469 80.5 84.25 C 80.03125 88.195312 78.28125 91.363281 75.25 93.75 C 70.097656 96.253906 65.433594 95.585938 61.25 91.75 C 59.90625 92.929688 58.574219 94.09375 57.25 95.25 C 56.25 95.25 55.75 94.75 55.75 93.75 C 57.09375 92.40625 58.257812 90.90625 59.25 89.25 C 60.082031 88.75 60.75 88.082031 61.25 87.25 C 62.675781 86.652344 63.09375 85.816406 62.5 84.75 C 60.972656 85.039062 59.472656 85.371094 58 85.75 C 57.75 84.59375 57.667969 83.429688 57.75 82.25 C 55.960938 82.34375 54.292969 82.007812 52.75 81.25 C 51.25 79.917969 49.75 78.582031 48.25 77.25 C 47.933594 76.527344 47.347656 76.195312 46.5 76.25 C 44.726562 77.257812 42.808594 77.925781 40.75 78.25 C 39.722656 78.28125 38.886719 77.949219 38.25 77.25 C 42 76.875 45 75.210938 47.25 72.25 C 47.964844 71.582031 48.632812 70.832031 49.25 70 C 46.75 69.832031 44.25 69.667969 41.75 69.5 C 39.863281 68.695312 38.363281 67.445312 37.25 65.75 C 38.058594 63.964844 38.726562 62.132812 39.25 60.25 C 41.558594 57.144531 42.308594 53.644531 41.5 49.75 C 40.414062 44.5625 37.832031 40.394531 33.75 37.25 C 33.582031 37.25 33.417969 37.25 33.25 37.25 C 36.386719 36.304688 39.136719 34.636719 41.5 32.25 C 41.742188 31.777344 41.824219 31.277344 41.75 30.75 C 43.988281 30.066406 46.320312 29.566406 48.75 29.25 C 49.335938 29.359375 49.835938 29.191406 50.25 28.75 C 49.679688 26.945312 48.847656 25.277344 47.75 23.75 C 51.929688 23.136719 56.097656 22.46875 60.25 21.75 C 60.398438 19.960938 59.898438 18.378906 58.75 17 C 61.238281 17.246094 63.738281 17.414062 66.25 17.5 C 64.675781 15.921875 62.839844 14.757812 60.75 14 C 59.851562 13.09375 59.015625 12.175781 58.25 11.25 C 57.578125 9.917969 56.664062 8.75 55.5 7.75 C 55.375 8.714844 55.125 9.632812 54.75 10.5 C 53.25 10.832031 51.75 10.832031 50.25 10.5 C 47.269531 7.523438 43.769531 5.359375 39.75 4 C 34.789062 2.859375 30.457031 3.941406 26.75 7.25 C 26.058594 6.363281 26.226562 5.613281 27.25 5 C 29.417969 4.113281 31.585938 3.28125 33.75 2.5 C 33.082031 2.332031 32.417969 2.167969 31.75 2 C 34.914062 2.414062 38.082031 2.332031 41.25 1.75 Z M 41.25 1.75 "/>
<path style=" stroke:none;fill-rule:evenodd;fill:rgb(96.470588%,70.980394%,27.450982%);fill-opacity:1;" d="M 58.25 25.75 C 59.984375 25.445312 60.984375 26.109375 61.25 27.75 C 61.171875 28.578125 60.835938 29.242188 60.25 29.75 C 59.75 29.75 59.25 29.75 58.75 29.75 C 58.585938 32.601562 58.753906 35.4375 59.25 38.25 C 60.265625 39.15625 61.097656 40.15625 61.75 41.25 C 61.261719 41.992188 60.597656 42.242188 59.75 42 C 59.195312 41.0625 58.695312 40.144531 58.25 39.25 C 57.917969 36.753906 57.585938 34.253906 57.25 31.75 C 57.265625 29.6875 57.597656 27.6875 58.25 25.75 Z M 58.25 25.75 "/>
<path style=" stroke:none;fill-rule:evenodd;fill:rgb(2.352941%,1.176471%,0.392157%);fill-opacity:1;" d="M 66.25 24.25 C 74.867188 24.113281 78.617188 28.28125 77.5 36.75 C 76.703125 38.183594 75.785156 39.519531 74.75 40.75 C 67.859375 44.007812 62.945312 42.175781 60 35.25 C 59.710938 33.398438 59.792969 31.566406 60.25 29.75 C 60.835938 29.242188 61.171875 28.578125 61.25 27.75 C 62.929688 26.566406 64.59375 25.402344 66.25 24.25 Z M 66.25 24.25 "/>
<path style=" stroke:none;fill-rule:evenodd;fill:rgb(77.64706%,46.666667%,13.725491%);fill-opacity:1;" d="M 83.75 24.25 C 82.601562 23 81.265625 22.667969 79.75 23.25 C 79.582031 23.25 79.417969 23.25 79.25 23.25 C 80.070312 22.4375 79.902344 21.9375 78.75 21.75 C 74.246094 20.75 69.746094 20.664062 65.25 21.5 C 65.417969 21.667969 65.582031 21.832031 65.75 22 C 65.347656 22.152344 65.011719 22.402344 64.75 22.75 C 65.273438 23.273438 65.773438 23.773438 66.25 24.25 C 64.59375 25.402344 62.929688 26.566406 61.25 27.75 C 60.984375 26.109375 59.984375 25.445312 58.25 25.75 C 57.75 25.75 57.25 25.75 56.75 25.75 C 54.527344 26.332031 53.363281 27.832031 53.25 30.25 C 52.488281 28.707031 51.988281 27.042969 51.75 25.25 C 55.210938 24.554688 58.710938 24.222656 62.25 24.25 C 62.25 22.917969 62.25 21.582031 62.25 20.25 C 67.253906 20.167969 72.253906 20.25 77.25 20.5 C 80.101562 20.753906 82.269531 22.003906 83.75 24.25 Z M 83.75 24.25 "/>
<path style=" stroke:none;fill-rule:evenodd;fill:rgb(91.764706%,58.431375%,15.686275%);fill-opacity:1;" d="M 79.25 23.25 C 78.417969 23.25 77.582031 23.25 76.75 23.25 C 76.578125 25.484375 77.160156 27.484375 78.5 29.25 C 78.832031 31.917969 78.832031 34.582031 78.5 37.25 C 77.957031 39.210938 76.707031 40.375 74.75 40.75 C 75.785156 39.519531 76.703125 38.183594 77.5 36.75 C 78.617188 28.28125 74.867188 24.113281 66.25 24.25 C 65.773438 23.773438 65.273438 23.273438 64.75 22.75 C 65.011719 22.402344 65.347656 22.152344 65.75 22 C 65.582031 21.832031 65.417969 21.667969 65.25 21.5 C 69.746094 20.664062 74.246094 20.75 78.75 21.75 C 79.902344 21.9375 80.070312 22.4375 79.25 23.25 Z M 79.25 23.25 "/>
<path style=" stroke:none;fill-rule:evenodd;fill:rgb(37.64706%,25.882354%,14.901961%);fill-opacity:1;" d="M 75.25 18.25 C 72.578125 18.09375 69.910156 17.84375 67.25 17.5 C 66.644531 16.980469 66.144531 16.398438 65.75 15.75 C 69.804688 13.152344 72.972656 13.988281 75.25 18.25 Z M 75.25 18.25 "/>
<path style=" stroke:none;fill-rule:evenodd;fill:rgb(90.196079%,73.725492%,44.705883%);fill-opacity:1;" d="M 75.25 18.25 C 72.972656 13.988281 69.804688 13.152344 65.75 15.75 C 65.292969 14.621094 64.625 13.621094 63.75 12.75 C 64.460938 11.640625 65.460938 10.890625 66.75 10.5 C 70.566406 9.554688 73.816406 10.46875 76.5 13.25 C 77.628906 14.71875 78.210938 16.386719 78.25 18.25 C 77.25 18.25 76.25 18.25 75.25 18.25 Z M 75.25 18.25 "/>
<path style=" stroke:none;fill-rule:evenodd;fill:rgb(88.627452%,55.686277%,15.686275%);fill-opacity:1;" d="M 83.75 24.25 C 86.035156 27.320312 86.367188 30.652344 84.75 34.25 C 85.351562 35.9375 86.265625 37.4375 87.5 38.75 C 88.136719 41.375 88.386719 44.042969 88.25 46.75 C 87.890625 46.957031 87.640625 47.292969 87.5 47.75 C 86.527344 45.3125 85.445312 42.976562 84.25 40.75 C 83.839844 39.59375 83.421875 38.425781 83 37.25 C 82.832031 33.75 82.667969 30.25 82.5 26.75 C 81.667969 25.503906 80.75 24.335938 79.75 23.25 C 81.265625 22.667969 82.601562 23 83.75 24.25 Z M 83.75 24.25 "/>
<path style=" stroke:none;fill-rule:evenodd;fill:rgb(34.117648%,28.235295%,23.921569%);fill-opacity:1;" d="M 89.25 30.75 C 90.332031 30.441406 91.164062 30.941406 91.75 32.25 C 90.945312 33.042969 89.945312 33.542969 88.75 33.75 C 88.101562 32.847656 88.183594 32.011719 89 31.25 C 89.226562 32.464844 89.640625 32.546875 90.25 31.5 C 89.976562 31.140625 89.644531 30.890625 89.25 30.75 Z M 89.25 30.75 "/>
<path style=" stroke:none;fill-rule:evenodd;fill:rgb(74.901962%,42.352942%,8.627451%);fill-opacity:1;" d="M 50.25 31.25 C 46.195312 32.796875 43.03125 35.464844 40.75 39.25 C 40.050781 40.027344 39.71875 39.859375 39.75 38.75 C 39.945312 37.148438 40.613281 35.816406 41.75 34.75 C 43.804688 31.808594 46.640625 30.640625 50.25 31.25 Z M 50.25 31.25 "/>
<path style=" stroke:none;fill-rule:evenodd;fill:rgb(70.980394%,54.11765%,28.235295%);fill-opacity:1;" d="M 41.75 30.75 C 41.824219 31.277344 41.742188 31.777344 41.5 32.25 C 39.136719 34.636719 36.386719 36.304688 33.25 37.25 C 32.410156 37.054688 31.578125 36.804688 30.75 36.5 C 35.082031 35.75 38.75 33.835938 41.75 30.75 Z M 41.75 30.75 "/>
<path style=" stroke:none;fill-rule:evenodd;fill:rgb(99.215686%,76.862746%,38.039216%);fill-opacity:1;" d="M 56.75 25.75 C 56.609375 26.144531 56.359375 26.476562 56 26.75 C 55.914062 29.265625 55.664062 31.765625 55.25 34.25 C 51.542969 35.535156 48.625 37.871094 46.5 41.25 C 46.714844 45.578125 46.878906 49.914062 47 54.25 C 45.699219 56.148438 44.78125 58.234375 44.25 60.5 C 44.710938 62.128906 45.710938 63.292969 47.25 64 C 49.554688 65.488281 52.054688 66.40625 54.75 66.75 C 55.054688 67.195312 55.222656 67.695312 55.25 68.25 C 53.757812 68.019531 52.257812 67.851562 50.75 67.75 C 49.582031 67.75 48.417969 67.75 47.25 67.75 C 45.894531 66.988281 44.394531 66.488281 42.75 66.25 C 42.582031 65.667969 42.417969 65.082031 42.25 64.5 C 42.902344 60.972656 43.902344 57.554688 45.25 54.25 C 45.558594 54.304688 45.808594 54.472656 46 54.75 C 46.523438 51.242188 45.773438 48.074219 43.75 45.25 C 43.539062 42.824219 42.539062 40.824219 40.75 39.25 C 43.03125 35.464844 46.195312 32.796875 50.25 31.25 C 51.539062 31.488281 52.539062 31.152344 53.25 30.25 C 53.363281 27.832031 54.527344 26.332031 56.75 25.75 Z M 56.75 25.75 "/>
<path style=" stroke:none;fill-rule:evenodd;fill:rgb(89.803922%,66.274512%,41.176471%);fill-opacity:1;" d="M 92.75 35.25 C 95.257812 35.089844 96.757812 36.257812 97.25 38.75 C 96.25 39.417969 95.25 39.417969 94.25 38.75 C 93.605469 37.628906 93.105469 36.464844 92.75 35.25 Z M 92.75 35.25 "/>
<path style=" stroke:none;fill-rule:evenodd;fill:rgb(99.607843%,80.392158%,38.82353%);fill-opacity:1;" d="M 79.25 23.25 C 79.417969 23.25 79.582031 23.25 79.75 23.25 C 80.75 24.335938 81.667969 25.503906 82.5 26.75 C 82.667969 30.25 82.832031 33.75 83 37.25 C 83.421875 38.425781 83.839844 39.59375 84.25 40.75 C 83.410156 40.945312 82.578125 41.195312 81.75 41.5 C 79.234375 43.421875 76.570312 45.089844 73.75 46.5 C 72.136719 49.527344 69.636719 50.527344 66.25 49.5 C 64.519531 49.105469 63.019531 48.273438 61.75 47 C 61.101562 46.753906 60.4375 46.671875 59.75 46.75 C 59.632812 46.105469 59.796875 45.605469 60.25 45.25 C 60.25 45.582031 60.417969 45.75 60.75 45.75 C 61.515625 46.394531 62.351562 46.394531 63.25 45.75 C 62.863281 44.800781 62.363281 43.96875 61.75 43.25 C 61.75 42.917969 61.75 42.582031 61.75 42.25 C 62.746094 41.042969 63.246094 41.375 63.25 43.25 C 66.421875 43.332031 69.585938 43.25 72.75 43 C 73.875 42.625 74.542969 41.875 74.75 40.75 C 76.707031 40.375 77.957031 39.210938 78.5 37.25 C 78.832031 34.582031 78.832031 31.917969 78.5 29.25 C 77.160156 27.484375 76.578125 25.484375 76.75 23.25 C 77.582031 23.25 78.417969 23.25 79.25 23.25 Z M 79.25 23.25 "/>
<path style=" stroke:none;fill-rule:evenodd;fill:rgb(85.882354%,58.823532%,34.901962%);fill-opacity:1;" d="M 88.25 35.75 C 89.417969 35.75 90.582031 35.75 91.75 35.75 C 91.75 36.75 91.75 37.75 91.75 38.75 C 90.75 38.75 89.75 38.75 88.75 38.75 C 88.582031 37.75 88.417969 36.75 88.25 35.75 Z M 88.25 35.75 "/>
<path style=" stroke:none;fill-rule:evenodd;fill:rgb(98.823529%,94.117647%,82.745099%);fill-opacity:1;" d="M 21.25 21.25 C 24.882812 22.726562 26.300781 25.394531 25.5 29.25 C 23.066406 35.015625 18.984375 39.101562 13.25 41.5 C 21.109375 42.269531 25.941406 46.519531 27.75 54.25 C 26.410156 57.257812 25.078125 60.257812 23.75 63.25 C 25.347656 63.257812 26.179688 64.089844 26.25 65.75 C 25.390625 68.96875 23.890625 71.800781 21.75 74.25 C 22.96875 74.855469 23.96875 75.6875 24.75 76.75 C 24.078125 76.414062 23.492188 76.414062 23 76.75 C 22.242188 75.824219 21.324219 75.074219 20.25 74.5 C 20.867188 73.910156 20.867188 73.324219 20.25 72.75 C 18.988281 71.570312 17.65625 70.488281 16.25 69.5 C 16.769531 68.613281 16.769531 67.695312 16.25 66.75 C 18.015625 66.351562 18.097656 65.851562 16.5 65.25 C 16.15625 64.214844 16.238281 63.214844 16.75 62.25 C 16.582031 62.082031 16.417969 61.917969 16.25 61.75 C 15.742188 62.097656 15.242188 62.429688 14.75 62.75 C 14.238281 62.550781 14.152344 62.21875 14.5 61.75 C 17.144531 61.628906 17.726562 60.542969 16.25 58.5 C 15.09375 58.25 13.929688 58.167969 12.75 58.25 C 11.90625 55.589844 11.324219 52.253906 11 48.25 C 9.460938 46.851562 7.710938 45.769531 5.75 45 C 6.417969 44.667969 6.917969 44.167969 7.25 43.5 C 9.066406 43.421875 10.734375 42.921875 12.25 42 C 12.925781 40.472656 12.507812 40.054688 11 40.75 C 9.273438 40.4375 7.855469 39.605469 6.75 38.25 C 6.632812 34.984375 5.800781 31.984375 4.25 29.25 C 5.261719 26.574219 7.09375 24.738281 9.75 23.75 C 7.703125 25.421875 7.871094 26.921875 10.25 28.25 C 12.277344 26.902344 14.445312 25.820312 16.75 25 C 17.058594 22.285156 18.558594 21.035156 21.25 21.25 Z M 21.25 21.25 "/>
<path style=" stroke:none;fill-rule:evenodd;fill:rgb(72.549021%,62.7451%,45.09804%);fill-opacity:1;" d="M 10.25 30.75 C 11.285156 30.792969 11.453125 31.292969 10.75 32.25 C 10.765625 33.015625 11.097656 33.597656 11.75 34 C 10.554688 34.433594 9.804688 34.015625 9.5 32.75 C 9.257812 31.902344 9.507812 31.238281 10.25 30.75 Z M 10.25 30.75 "/>
<path style=" stroke:none;fill-rule:evenodd;fill:rgb(88.235295%,61.176473%,23.529412%);fill-opacity:1;" d="M 60.25 29.75 C 59.792969 31.566406 59.710938 33.398438 60 35.25 C 62.945312 42.175781 67.859375 44.007812 74.75 40.75 C 74.542969 41.875 73.875 42.625 72.75 43 C 69.585938 43.25 66.421875 43.332031 63.25 43.25 C 63.246094 41.375 62.746094 41.042969 61.75 42.25 C 61.75 41.917969 61.75 41.582031 61.75 41.25 C 61.097656 40.15625 60.265625 39.15625 59.25 38.25 C 58.753906 35.4375 58.585938 32.601562 58.75 29.75 C 59.25 29.75 59.75 29.75 60.25 29.75 Z M 60.25 29.75 "/>
<path style=" stroke:none;fill-rule:evenodd;fill:rgb(65.882355%,37.254903%,16.470589%);fill-opacity:1;" d="M 41.75 34.75 C 40.613281 35.816406 39.945312 37.148438 39.75 38.75 C 39.71875 39.859375 40.050781 40.027344 40.75 39.25 C 42.539062 40.824219 43.539062 42.824219 43.75 45.25 C 43.730469 46.710938 44.148438 48.046875 45 49.25 C 45.25 50.910156 45.332031 52.574219 45.25 54.25 C 43.902344 57.554688 42.902344 60.972656 42.25 64.5 C 42.417969 65.082031 42.582031 65.667969 42.75 66.25 C 44.394531 66.488281 45.894531 66.988281 47.25 67.75 C 44.734375 68.046875 42.398438 67.546875 40.25 66.25 C 40.082031 65.832031 39.917969 65.417969 39.75 65 C 41.003906 61.902344 42.253906 58.816406 43.5 55.75 C 44.503906 48.589844 42.417969 42.507812 37.25 37.5 C 38.777344 36.570312 40.277344 35.65625 41.75 34.75 Z M 41.75 34.75 "/>
<path style=" stroke:none;fill-rule:evenodd;fill:rgb(95.686275%,83.137256%,61.960787%);fill-opacity:1;" d="M 99.75 43.25 C 99.75 44.082031 99.75 44.917969 99.75 45.75 C 98.039062 46.609375 96.207031 46.945312 94.25 46.75 C 94.289062 44.894531 94.121094 43.058594 93.75 41.25 C 96.085938 41.027344 98.085938 41.695312 99.75 43.25 Z M 99.75 43.25 "/>
<path style=" stroke:none;fill-rule:evenodd;fill:rgb(93.725491%,83.529413%,64.313728%);fill-opacity:1;" d="M 89.75 41.25 C 90.734375 41.128906 91.652344 41.296875 92.5 41.75 C 92.75 43.242188 92.832031 44.742188 92.75 46.25 C 91.917969 46.25 91.082031 46.25 90.25 46.25 C 89.972656 44.597656 89.808594 42.929688 89.75 41.25 Z M 89.75 41.25 "/>
<path style=" stroke:none;fill-rule:evenodd;fill:rgb(72.549021%,58.431375%,35.686275%);fill-opacity:1;" d="M 33.75 37.25 C 37.832031 40.394531 40.414062 44.5625 41.5 49.75 C 42.308594 53.644531 41.558594 57.144531 39.25 60.25 C 39.949219 56.441406 40.199219 52.609375 40 48.75 C 38.679688 44.441406 36.597656 40.609375 33.75 37.25 Z M 33.75 37.25 "/>
<path style=" stroke:none;fill-rule:evenodd;fill:rgb(22.352941%,12.941177%,6.27451%);fill-opacity:1;" d="M 58.25 39.25 C 58.695312 40.144531 59.195312 41.0625 59.75 42 C 60.597656 42.242188 61.261719 41.992188 61.75 41.25 C 61.75 41.582031 61.75 41.917969 61.75 42.25 C 61.75 42.582031 61.75 42.917969 61.75 43.25 C 61.800781 44.277344 61.464844 45.109375 60.75 45.75 C 60.417969 45.75 60.25 45.582031 60.25 45.25 C 59.304688 43.554688 58.46875 41.804688 57.75 40 C 57.785156 39.617188 57.953125 39.367188 58.25 39.25 Z M 58.25 39.25 "/>
<path style=" stroke:none;fill-rule:evenodd;fill:rgb(97.647059%,90.588236%,74.509805%);fill-opacity:1;" d="M 99.75 49.75 C 99.75 50.75 99.75 51.75 99.75 52.75 C 98.160156 54.109375 96.328125 54.527344 94.25 54 C 92.804688 48.671875 94.636719 47.253906 99.75 49.75 Z M 99.75 49.75 "/>
<path style=" stroke:none;fill-rule:evenodd;fill:rgb(87.843138%,53.333336%,23.921569%);fill-opacity:1;" d="M 43.75 45.25 C 45.773438 48.074219 46.523438 51.242188 46 54.75 C 45.808594 54.472656 45.558594 54.304688 45.25 54.25 C 45.332031 52.574219 45.25 50.910156 45 49.25 C 44.148438 48.046875 43.730469 46.710938 43.75 45.25 Z M 43.75 45.25 "/>
<path style=" stroke:none;fill-rule:evenodd;fill:rgb(89.803922%,81.568629%,69.01961%);fill-opacity:1;" d="M 90.25 49.25 C 92.605469 49.234375 93.355469 50.402344 92.5 52.75 C 91.667969 54.082031 90.832031 54.082031 90 52.75 C 89.722656 51.558594 89.804688 50.390625 90.25 49.25 Z M 90.25 49.25 "/>
<path style=" stroke:none;fill-rule:evenodd;fill:rgb(99.607843%,92.156863%,61.56863%);fill-opacity:1;" d="M 56.75 25.75 C 57.25 25.75 57.75 25.75 58.25 25.75 C 57.597656 27.6875 57.265625 29.6875 57.25 31.75 C 57.585938 34.253906 57.917969 36.753906 58.25 39.25 C 57.953125 39.367188 57.785156 39.617188 57.75 40 C 58.46875 41.804688 59.304688 43.554688 60.25 45.25 C 59.796875 45.605469 59.632812 46.105469 59.75 46.75 C 60.4375 46.671875 61.101562 46.753906 61.75 47 C 63.019531 48.273438 64.519531 49.105469 66.25 49.5 C 69.636719 50.527344 72.136719 49.527344 73.75 46.5 C 76.570312 45.089844 79.234375 43.421875 81.75 41.5 C 82.578125 41.195312 83.410156 40.945312 84.25 40.75 C 85.445312 42.976562 86.527344 45.3125 87.5 47.75 C 87.640625 47.292969 87.890625 46.957031 88.25 46.75 C 87.585938 49.914062 87.585938 53.078125 88.25 56.25 C 88.175781 58.199219 87.84375 60.03125 87.25 61.75 C 87.5 59.414062 87.585938 57.082031 87.5 54.75 C 87.234375 56.519531 86.816406 58.1875 86.25 59.75 C 86.671875 57.542969 86.085938 55.710938 84.5 54.25 C 84.183594 55.453125 84.601562 56.367188 85.75 57 C 85.1875 57.125 84.6875 57.375 84.25 57.75 C 84.941406 58.277344 85.441406 58.941406 85.75 59.75 C 85.335938 60.191406 84.835938 60.359375 84.25 60.25 C 82.742188 62.101562 81.40625 64.101562 80.25 66.25 C 79.949219 64.867188 79.28125 63.703125 78.25 62.75 C 79.066406 62.160156 79.902344 62.160156 80.75 62.75 C 81.226562 61.976562 81.390625 61.144531 81.25 60.25 C 81.988281 60.382812 82.65625 60.214844 83.25 59.75 C 83.167969 59.582031 83.082031 59.417969 83 59.25 C 82.320312 59.691406 81.570312 59.855469 80.75 59.75 C 80.75 59.25 80.75 58.75 80.75 58.25 C 79.628906 58.65625 78.460938 58.988281 77.25 59.25 C 74.964844 58.597656 72.632812 58.265625 70.25 58.25 C 68.078125 58.167969 65.910156 58.25 63.75 58.5 C 63.027344 59.050781 62.359375 59.632812 61.75 60.25 C 62.109375 59.429688 62.191406 58.597656 62 57.75 C 61.640625 57.273438 61.222656 57.191406 60.75 57.5 C 59.605469 60.210938 58.523438 62.960938 57.5 65.75 C 56.777344 66.578125 55.859375 66.910156 54.75 66.75 C 52.054688 66.40625 49.554688 65.488281 47.25 64 C 45.710938 63.292969 44.710938 62.128906 44.25 60.5 C 44.78125 58.234375 45.699219 56.148438 47 54.25 C 46.878906 49.914062 46.714844 45.578125 46.5 41.25 C 48.625 37.871094 51.542969 35.535156 55.25 34.25 C 55.664062 31.765625 55.914062 29.265625 56 26.75 C 56.359375 26.476562 56.609375 26.144531 56.75 25.75 Z M 56.75 25.75 "/>
<path style=" stroke:none;fill-rule:evenodd;fill:rgb(91.37255%,41.176471%,12.54902%);fill-opacity:1;" d="M 55.25 46.75 C 55.964844 47.390625 56.300781 48.222656 56.25 49.25 C 56.75 49.25 57.25 49.25 57.75 49.25 C 58.132812 51.570312 57.546875 53.570312 56 55.25 C 55.734375 52.414062 55.484375 49.582031 55.25 46.75 Z M 55.25 46.75 "/>
<path style=" stroke:none;fill-rule:evenodd;fill:rgb(88.627452%,42.745098%,12.54902%);fill-opacity:1;" d="M 49.25 42.25 C 52.511719 48.367188 52.429688 54.53125 49 60.75 C 49.375 57.441406 49.792969 54.109375 50.25 50.75 C 50.007812 47.902344 49.675781 45.066406 49.25 42.25 Z M 49.25 42.25 "/>
<path style=" stroke:none;fill-rule:evenodd;fill:rgb(3.529412%,2.352941%,1.568628%);fill-opacity:1;" d="M 78.75 46.25 C 83.867188 45.679688 84.867188 47.347656 81.75 51.25 C 84.882812 54.871094 84.050781 56.621094 79.25 56.5 C 76.960938 55.566406 74.875 54.316406 73 52.75 C 72.667969 51.75 72.667969 50.75 73 49.75 C 74.90625 48.507812 76.824219 47.339844 78.75 46.25 Z M 78.75 46.25 "/>
<path style=" stroke:none;fill-rule:evenodd;fill:rgb(62.7451%,43.921569%,18.039216%);fill-opacity:1;" d="M 61.75 43.25 C 62.363281 43.96875 62.863281 44.800781 63.25 45.75 C 62.351562 46.394531 61.515625 46.394531 60.75 45.75 C 61.464844 45.109375 61.800781 44.277344 61.75 43.25 Z M 61.75 43.25 "/>
<path style=" stroke:none;fill-rule:evenodd;fill:rgb(99.607843%,93.333334%,66.274512%);fill-opacity:1;" d="M 86.25 59.75 C 85.523438 62.203125 84.523438 64.535156 83.25 66.75 C 83.007812 67.238281 82.757812 67.738281 82.5 68.25 C 82.332031 71.082031 82.167969 73.917969 82 76.75 C 81.152344 78.179688 80.070312 79.34375 78.75 80.25 C 76.914062 80.949219 75 81.285156 73 81.25 C 71.695312 81.234375 70.613281 80.898438 69.75 80.25 C 69.917969 79.75 70.25 79.417969 70.75 79.25 C 72.632812 78.722656 74.46875 78.058594 76.25 77.25 C 77.5625 76.949219 78.898438 76.699219 80.25 76.5 C 80.910156 75.726562 80.742188 75.144531 79.75 74.75 C 79.417969 71.671875 79.082031 68.671875 78.75 65.75 C 78.339844 63.980469 77.339844 63.3125 75.75 63.75 C 75.582031 63.417969 75.417969 63.082031 75.25 62.75 C 75.21875 61.703125 74.71875 60.953125 73.75 60.5 C 74.152344 60.347656 74.488281 60.097656 74.75 59.75 C 73.246094 59.089844 71.746094 58.589844 70.25 58.25 C 72.632812 58.265625 74.964844 58.597656 77.25 59.25 C 78.460938 58.988281 79.628906 58.65625 80.75 58.25 C 80.75 58.75 80.75 59.25 80.75 59.75 C 81.570312 59.855469 82.320312 59.691406 83 59.25 C 83.082031 59.417969 83.167969 59.582031 83.25 59.75 C 82.65625 60.214844 81.988281 60.382812 81.25 60.25 C 81.390625 61.144531 81.226562 61.976562 80.75 62.75 C 79.902344 62.160156 79.066406 62.160156 78.25 62.75 C 79.28125 63.703125 79.949219 64.867188 80.25 66.25 C 81.40625 64.101562 82.742188 62.101562 84.25 60.25 C 84.835938 60.359375 85.335938 60.191406 85.75 59.75 C 85.441406 58.941406 84.941406 58.277344 84.25 57.75 C 84.6875 57.375 85.1875 57.125 85.75 57 C 84.601562 56.367188 84.183594 55.453125 84.5 54.25 C 86.085938 55.710938 86.671875 57.542969 86.25 59.75 Z M 86.25 59.75 "/>
<path style=" stroke:none;fill-rule:evenodd;fill:rgb(96.078432%,86.274511%,70.19608%);fill-opacity:1;" d="M 89.75 56.75 C 90.75 56.75 91.75 56.75 92.75 56.75 C 92.75 58.25 92.75 59.75 92.75 61.25 C 91.75 61.25 90.75 61.25 89.75 61.25 C 89.75 59.75 89.75 58.25 89.75 56.75 Z M 89.75 56.75 "/>
<path style=" stroke:none;fill-rule:evenodd;fill:rgb(91.37255%,85.882354%,72.549021%);fill-opacity:1;" d="M 93.75 56.25 C 95.257812 56.167969 96.757812 56.25 98.25 56.5 C 99.582031 57.832031 99.582031 59.167969 98.25 60.5 C 96.824219 61.144531 95.324219 61.394531 93.75 61.25 C 93.75 59.582031 93.75 57.917969 93.75 56.25 Z M 93.75 56.25 "/>
<path style=" stroke:none;fill-rule:evenodd;fill:rgb(98.039216%,92.54902%,72.549021%);fill-opacity:1;" d="M 70.25 58.25 C 71.746094 58.589844 73.246094 59.089844 74.75 59.75 C 74.488281 60.097656 74.152344 60.347656 73.75 60.5 C 74.71875 60.953125 75.21875 61.703125 75.25 62.75 C 72.097656 60.351562 68.597656 59.683594 64.75 60.75 C 63.867188 60.679688 63.035156 60.84375 62.25 61.25 C 61.851562 61.023438 61.683594 60.6875 61.75 60.25 C 62.359375 59.632812 63.027344 59.050781 63.75 58.5 C 65.910156 58.25 68.078125 58.167969 70.25 58.25 Z M 70.25 58.25 "/>
<path style=" stroke:none;fill-rule:evenodd;fill:rgb(1.176471%,0.784314%,0.392157%);fill-opacity:1;" d="M 75.25 62.75 C 75.417969 63.082031 75.582031 63.417969 75.75 63.75 C 77.660156 67.328125 77.742188 70.996094 76 74.75 C 73.75 77.53125 70.832031 78.695312 67.25 78.25 C 61.632812 76.785156 59.132812 73.121094 59.75 67.25 C 60.339844 64.234375 62.003906 62.066406 64.75 60.75 C 68.597656 59.683594 72.097656 60.351562 75.25 62.75 Z M 75.25 62.75 "/>
<path style=" stroke:none;fill-rule:evenodd;fill:rgb(99.215686%,82.745099%,43.529412%);fill-opacity:1;" d="M 61.75 60.25 C 61.683594 60.6875 61.851562 61.023438 62.25 61.25 C 63.035156 60.84375 63.867188 60.679688 64.75 60.75 C 62.003906 62.066406 60.339844 64.234375 59.75 67.25 C 59.339844 68.484375 59.089844 69.816406 59 71.25 C 58.832031 69.917969 58.667969 68.582031 58.5 67.25 C 57.820312 70.203125 57.570312 73.203125 57.75 76.25 C 56.75 76.25 55.75 76.25 54.75 76.25 C 54.082031 74.417969 54.082031 72.582031 54.75 70.75 C 54.816406 69.890625 54.980469 69.058594 55.25 68.25 C 55.222656 67.695312 55.054688 67.195312 54.75 66.75 C 55.859375 66.910156 56.777344 66.578125 57.5 65.75 C 58.523438 62.960938 59.605469 60.210938 60.75 57.5 C 61.222656 57.191406 61.640625 57.273438 62 57.75 C 62.191406 58.597656 62.109375 59.429688 61.75 60.25 Z M 61.75 60.25 "/>
<path style=" stroke:none;fill-rule:evenodd;fill:rgb(98.039216%,94.117647%,85.490197%);fill-opacity:1;" d="M 4.25 29.25 C 5.800781 31.984375 6.632812 34.984375 6.75 38.25 C 7.855469 39.605469 9.273438 40.4375 11 40.75 C 12.507812 40.054688 12.925781 40.472656 12.25 42 C 10.734375 42.921875 9.066406 43.421875 7.25 43.5 C 6.917969 44.167969 6.417969 44.667969 5.75 45 C 7.710938 45.769531 9.460938 46.851562 11 48.25 C 11.324219 52.253906 11.90625 55.589844 12.75 58.25 C 13.929688 58.167969 15.09375 58.25 16.25 58.5 C 17.726562 60.542969 17.144531 61.628906 14.5 61.75 C 14.152344 62.21875 14.238281 62.550781 14.75 62.75 C 14.507812 64.414062 15.007812 65.75 16.25 66.75 C 16.769531 67.695312 16.769531 68.613281 16.25 69.5 C 17.65625 70.488281 18.988281 71.570312 20.25 72.75 C 20.867188 73.324219 20.867188 73.910156 20.25 74.5 C 21.324219 75.074219 22.242188 75.824219 23 76.75 C 23.492188 76.414062 24.078125 76.414062 24.75 76.75 C 28.871094 79.28125 29.203125 82.113281 25.75 85.25 C 28.375 85.824219 30.875 86.742188 33.25 88 C 34.5 88.976562 34.832031 90.140625 34.25 91.5 C 32.441406 91.867188 30.777344 92.53125 29.25 93.5 C 32.664062 94.148438 36.164062 94.480469 39.75 94.5 C 40.109375 95.777344 40.941406 96.363281 42.25 96.25 C 36.660156 98.734375 31.410156 98.066406 26.5 94.25 C 25.691406 92.050781 24.441406 90.132812 22.75 88.5 C 20.304688 88.351562 18.222656 87.4375 16.5 85.75 C 15.644531 83.183594 14.894531 80.601562 14.25 78 C 12.257812 78.09375 10.257812 78.09375 8.25 78 C 6.832031 77.25 5.75 76.167969 5 74.75 C 3.988281 69.960938 3.238281 65.125 2.75 60.25 C 2.832031 59.082031 2.917969 57.917969 3 56.75 C 4.304688 54.390625 5.390625 51.976562 6.25 49.5 C 5.871094 47.363281 5.289062 45.28125 4.5 43.25 C 4.589844 38.566406 4.507812 33.898438 4.25 29.25 Z M 4.25 29.25 "/>
<path style=" stroke:none;fill-rule:evenodd;fill:rgb(92.54902%,72.156864%,38.431373%);fill-opacity:1;" d="M 87.25 61.75 C 87.039062 63.804688 86.289062 65.636719 85 67.25 C 84.671875 68.945312 84.753906 70.609375 85.25 72.25 C 84.582031 70.417969 83.917969 68.582031 83.25 66.75 C 84.523438 64.535156 85.523438 62.203125 86.25 59.75 C 86.816406 58.1875 87.234375 56.519531 87.5 54.75 C 87.585938 57.082031 87.5 59.414062 87.25 61.75 Z M 87.25 61.75 "/>
<path style=" stroke:none;fill-rule:evenodd;fill:rgb(90.196079%,81.176472%,66.274512%);fill-opacity:1;" d="M 88.75 63.25 C 89.917969 63.25 91.082031 63.25 92.25 63.25 C 92.058594 66.292969 90.726562 66.960938 88.25 65.25 C 88.621094 64.632812 88.789062 63.964844 88.75 63.25 Z M 88.75 63.25 "/>
<path style=" stroke:none;fill-rule:evenodd;fill:rgb(87.843138%,78.431374%,61.960787%);fill-opacity:1;" d="M 96.25 62.75 C 96.753906 64.863281 95.835938 66.195312 93.5 66.75 C 93.074219 64.421875 93.992188 63.089844 96.25 62.75 Z M 96.25 62.75 "/>
<path style=" stroke:none;fill-rule:evenodd;fill:rgb(68.235296%,55.686277%,45.882353%);fill-opacity:1;" d="M 16.25 66.75 C 15.007812 65.75 14.507812 64.414062 14.75 62.75 C 15.242188 62.429688 15.742188 62.097656 16.25 61.75 C 16.417969 61.917969 16.582031 62.082031 16.75 62.25 C 16.238281 63.214844 16.15625 64.214844 16.5 65.25 C 18.097656 65.851562 18.015625 66.351562 16.25 66.75 Z M 16.25 66.75 "/>
<path style=" stroke:none;fill-rule:evenodd;fill:rgb(70.19608%,53.333336%,27.843139%);fill-opacity:1;" d="M 37.25 65.75 C 38.363281 67.445312 39.863281 68.695312 41.75 69.5 C 44.25 69.667969 46.75 69.832031 49.25 70 C 48.632812 70.832031 47.964844 71.582031 47.25 72.25 C 45.859375 72.53125 44.441406 72.695312 43 72.75 C 38.78125 71.96875 34.53125 71.382812 30.25 71 C 32.6875 69.367188 35.019531 67.617188 37.25 65.75 Z M 37.25 65.75 "/>
<path style=" stroke:none;fill-rule:evenodd;fill:rgb(63.529414%,56.862748%,45.882353%);fill-opacity:1;" d="M 6.75 65.25 C 6.976562 66.96875 7.644531 68.550781 8.75 70 C 8.582031 70.25 8.417969 70.5 8.25 70.75 C 5.640625 69.476562 5.140625 67.644531 6.75 65.25 Z M 6.75 65.25 "/>
<path style=" stroke:none;fill-rule:evenodd;fill:rgb(94.901961%,81.960785%,56.470591%);fill-opacity:1;" d="M 86.75 68.25 C 88.925781 68.382812 91.09375 68.632812 93.25 69 C 93.75 70.046875 93.417969 70.878906 92.25 71.5 C 88.53125 73.359375 86.699219 72.273438 86.75 68.25 Z M 86.75 68.25 "/>
<path style=" stroke:none;fill-rule:evenodd;fill:rgb(90.980393%,72.941178%,35.686275%);fill-opacity:1;" d="M 78.75 65.75 C 78.832031 67.921875 78.75 70.089844 78.5 72.25 C 77.59375 73.890625 76.84375 75.554688 76.25 77.25 C 74.46875 78.058594 72.632812 78.722656 70.75 79.25 C 69.582031 78.917969 68.417969 78.582031 67.25 78.25 C 70.832031 78.695312 73.75 77.53125 76 74.75 C 77.742188 70.996094 77.660156 67.328125 75.75 63.75 C 77.339844 63.3125 78.339844 63.980469 78.75 65.75 Z M 78.75 65.75 "/>
<path style=" stroke:none;fill-rule:evenodd;fill:rgb(65.098041%,34.901962%,10.196079%);fill-opacity:1;" d="M 52.25 68.25 C 52.738281 68.40625 53.074219 68.738281 53.25 69.25 C 51.785156 71.714844 51.117188 74.382812 51.25 77.25 C 50.339844 76.59375 49.507812 75.84375 48.75 75 C 50.246094 72.925781 51.410156 70.675781 52.25 68.25 Z M 52.25 68.25 "/>
<path style=" stroke:none;fill-rule:evenodd;fill:rgb(100%,85.490197%,44.705883%);fill-opacity:1;" d="M 78.75 65.75 C 79.082031 68.671875 79.417969 71.671875 79.75 74.75 C 80.742188 75.144531 80.910156 75.726562 80.25 76.5 C 78.898438 76.699219 77.5625 76.949219 76.25 77.25 C 76.84375 75.554688 77.59375 73.890625 78.5 72.25 C 78.75 70.089844 78.832031 67.921875 78.75 65.75 Z M 78.75 65.75 "/>
<path style=" stroke:none;fill-rule:evenodd;fill:rgb(81.960785%,50.588238%,14.901961%);fill-opacity:1;" d="M 50.75 67.75 C 52.257812 67.851562 53.757812 68.019531 55.25 68.25 C 54.980469 69.058594 54.816406 69.890625 54.75 70.75 C 53.960938 71.824219 53.296875 72.988281 52.75 74.25 C 53.722656 75.394531 54.222656 76.730469 54.25 78.25 C 56.34375 78.605469 58.34375 79.105469 60.25 79.75 C 60.082031 79.75 59.917969 79.75 59.75 79.75 C 56.460938 80.3125 53.625 79.476562 51.25 77.25 C 51.117188 74.382812 51.785156 71.714844 53.25 69.25 C 53.074219 68.738281 52.738281 68.40625 52.25 68.25 C 51.605469 68.367188 51.105469 68.203125 50.75 67.75 Z M 50.75 67.75 "/>
<path style=" stroke:none;fill-rule:evenodd;fill:rgb(98.431373%,74.901962%,34.509805%);fill-opacity:1;" d="M 83.25 66.75 C 83.917969 68.582031 84.582031 70.417969 85.25 72.25 C 85.515625 74.949219 84.933594 77.449219 83.5 79.75 C 82.933594 80.570312 82.183594 81.070312 81.25 81.25 C 80.109375 81.460938 79.277344 81.128906 78.75 80.25 C 80.070312 79.34375 81.152344 78.179688 82 76.75 C 82.167969 73.917969 82.332031 71.082031 82.5 68.25 C 82.757812 67.738281 83.007812 67.238281 83.25 66.75 Z M 83.25 66.75 "/>
<path style=" stroke:none;fill-rule:evenodd;fill:rgb(65.098041%,46.666667%,26.274511%);fill-opacity:1;" d="M 48.25 77.25 C 47.664062 77.988281 47.164062 78.820312 46.75 79.75 C 46.347656 79.597656 46.011719 79.347656 45.75 79 C 43.082031 78.832031 40.417969 78.667969 37.75 78.5 C 35.722656 77.53125 35.890625 77.113281 38.25 77.25 C 38.886719 77.949219 39.722656 78.28125 40.75 78.25 C 42.808594 77.925781 44.726562 77.257812 46.5 76.25 C 47.347656 76.195312 47.933594 76.527344 48.25 77.25 Z M 48.25 77.25 "/>
<path style=" stroke:none;fill-rule:evenodd;fill:rgb(97.254902%,74.117649%,32.941177%);fill-opacity:1;" d="M 59.75 67.25 C 59.132812 73.121094 61.632812 76.785156 67.25 78.25 C 68.417969 78.582031 69.582031 78.917969 70.75 79.25 C 70.25 79.417969 69.917969 79.75 69.75 80.25 C 68.40625 80.167969 67.074219 80.25 65.75 80.5 C 67.253906 81.164062 68.753906 81.746094 70.25 82.25 C 68.246094 82.070312 66.246094 81.820312 64.25 81.5 C 63.066406 80.578125 61.734375 79.996094 60.25 79.75 C 58.34375 79.105469 56.34375 78.605469 54.25 78.25 C 54.222656 76.730469 53.722656 75.394531 52.75 74.25 C 53.296875 72.988281 53.960938 71.824219 54.75 70.75 C 54.082031 72.582031 54.082031 74.417969 54.75 76.25 C 55.75 76.25 56.75 76.25 57.75 76.25 C 57.570312 73.203125 57.820312 70.203125 58.5 67.25 C 58.667969 68.582031 58.832031 69.917969 59 71.25 C 59.089844 69.816406 59.339844 68.484375 59.75 67.25 Z M 59.75 67.25 "/>
<path style=" stroke:none;fill-rule:evenodd;fill:rgb(98.823529%,85.09804%,48.627451%);fill-opacity:1;" d="M 69.75 80.25 C 70.613281 80.898438 71.695312 81.234375 73 81.25 C 75 81.285156 76.914062 80.949219 78.75 80.25 C 79.277344 81.128906 80.109375 81.460938 81.25 81.25 C 79.394531 82.066406 77.394531 82.402344 75.25 82.25 C 73.582031 82.25 71.917969 82.25 70.25 82.25 C 68.753906 81.746094 67.253906 81.164062 65.75 80.5 C 67.074219 80.25 68.40625 80.167969 69.75 80.25 Z M 69.75 80.25 "/>
<path style=" stroke:none;fill-rule:evenodd;fill:rgb(67.450982%,45.882353%,19.607843%);fill-opacity:1;" d="M 59.75 79.75 C 59.917969 79.75 60.082031 79.75 60.25 79.75 C 61.734375 79.996094 63.066406 80.578125 64.25 81.5 C 66.246094 81.820312 68.246094 82.070312 70.25 82.25 C 71.917969 82.25 73.582031 82.25 75.25 82.25 C 70.171875 82.746094 65.007812 82.914062 59.75 82.75 C 59.75 81.75 59.75 80.75 59.75 79.75 Z M 59.75 79.75 "/>
<path style=" stroke:none;fill-rule:evenodd;fill:rgb(84.313726%,67.450982%,43.137255%);fill-opacity:1;" d="M 61.25 87.25 C 60.75 88.082031 60.082031 88.75 59.25 89.25 C 59.25 88.75 59.25 88.25 59.25 87.75 C 57.199219 87.261719 55.113281 86.929688 53 86.75 C 51.886719 86.78125 50.804688 86.949219 49.75 87.25 C 49.507812 86.609375 49.839844 86.109375 50.75 85.75 C 51.878906 86.402344 52.796875 86.066406 53.5 84.75 C 54.199219 85.214844 54.949219 85.214844 55.75 84.75 C 57.332031 86.058594 59.164062 86.890625 61.25 87.25 Z M 61.25 87.25 "/>
<path style=" stroke:none;fill-rule:evenodd;fill:rgb(60.000002%,41.960785%,23.921569%);fill-opacity:1;" d="M 52.75 81.25 C 54.292969 82.007812 55.960938 82.34375 57.75 82.25 C 57.667969 83.429688 57.75 84.59375 58 85.75 C 59.472656 85.371094 60.972656 85.039062 62.5 84.75 C 63.09375 85.816406 62.675781 86.652344 61.25 87.25 C 59.164062 86.890625 57.332031 86.058594 55.75 84.75 C 54.949219 85.214844 54.199219 85.214844 53.5 84.75 C 52.796875 86.066406 51.878906 86.402344 50.75 85.75 C 51.890625 84.449219 52.558594 82.949219 52.75 81.25 Z M 52.75 81.25 "/>
<path style=" stroke:none;fill-rule:evenodd;fill:rgb(49.803922%,32.156864%,16.862746%);fill-opacity:1;" d="M 73.75 86.25 C 73.1875 87.066406 72.519531 87.816406 71.75 88.5 C 69.148438 89.140625 66.8125 88.722656 64.75 87.25 C 65.898438 85.503906 67.566406 84.839844 69.75 85.25 C 71.21875 85.308594 72.554688 85.644531 73.75 86.25 Z M 73.75 86.25 "/>
<path style=" stroke:none;fill-rule:evenodd;fill:rgb(97.647059%,88.627452%,67.058825%);fill-opacity:1;" d="M 64.75 87.25 C 66.8125 88.722656 69.148438 89.140625 71.75 88.5 C 72.519531 87.816406 73.1875 87.066406 73.75 86.25 C 74.691406 84.949219 76.027344 84.449219 77.75 84.75 C 76.71875 91.277344 72.886719 93.859375 66.25 92.5 C 62.492188 91.398438 61.992188 89.648438 64.75 87.25 Z M 64.75 87.25 "/>
<use xlink:href="#surface17" mask="url(#mask4)"/>
<use xlink:href="#surface20" mask="url(#mask5)"/>
<use xlink:href="#surface23" mask="url(#mask6)"/>
</g>
</svg>
