<?xml version="1.0" encoding="UTF-8"?>
<svg xmlns="http://www.w3.org/2000/svg" xmlns:xlink="http://www.w3.org/1999/xlink" width="px" height="px" viewBox="0 0 100 99" version="1.1">
<defs>
<filter id="alpha" filterUnits="objectBoundingBox" x="0%" y="0%" width="100%" height="100%">
  <feColorMatrix type="matrix" in="SourceGraphic" values="0 0 0 0 1 0 0 0 0 1 0 0 0 0 1 0 0 0 1 0"/>
</filter>
<mask id="mask0">
  <g filter="url(#alpha)">
<rect x="0" y="0" width="100" height="99" style="fill:rgb(0%,0%,0%);fill-opacity:0.054902;stroke:none;"/>
  </g>
</mask>
<clipPath id="clip1">
  <rect x="0" y="0" width="100" height="99"/>
</clipPath>
<g id="surface5" clip-path="url(#clip1)">
<path style=" stroke:none;fill-rule:evenodd;fill:rgb(16.470588%,22.745098%,29.019608%);fill-opacity:1;" d="M 43.75 0.25 C 43.75 0.0820312 43.75 -0.0820312 43.75 -0.25 C 45.75 -0.25 47.75 -0.25 49.75 -0.25 C 50.457031 0.265625 51.289062 0.597656 52.25 0.75 C 53.664062 0.167969 54.996094 0.167969 56.25 0.75 C 54.675781 0.480469 53.425781 0.980469 52.5 2.25 C 49.84375 0.523438 46.925781 -0.144531 43.75 0.25 Z M 43.75 0.25 "/>
</g>
<mask id="mask1">
  <g filter="url(#alpha)">
<rect x="0" y="0" width="100" height="99" style="fill:rgb(0%,0%,0%);fill-opacity:0.0509804;stroke:none;"/>
  </g>
</mask>
<clipPath id="clip2">
  <rect x="0" y="0" width="100" height="99"/>
</clipPath>
<g id="surface8" clip-path="url(#clip2)">
<path style=" stroke:none;fill-rule:evenodd;fill:rgb(15.686275%,21.176471%,27.45098%);fill-opacity:1;" d="M 58.75 1.75 C 60.113281 2.355469 61.28125 3.273438 62.25 4.5 C 64.523438 4.074219 66.6875 4.324219 68.75 5.25 C 67.25 5.25 65.75 5.25 64.25 5.25 C 61.792969 5.136719 59.960938 3.96875 58.75 1.75 Z M 58.75 1.75 "/>
</g>
<mask id="mask2">
  <g filter="url(#alpha)">
<rect x="0" y="0" width="100" height="99" style="fill:rgb(0%,0%,0%);fill-opacity:0.0862745;stroke:none;"/>
  </g>
</mask>
<clipPath id="clip3">
  <rect x="0" y="0" width="100" height="99"/>
</clipPath>
<g id="surface11" clip-path="url(#clip3)">
<path style=" stroke:none;fill-rule:evenodd;fill:rgb(16.078431%,21.960784%,28.235294%);fill-opacity:1;" d="M 43.75 0.25 C 42.460938 0.730469 41.296875 1.480469 40.25 2.5 C 37.726562 2.636719 35.226562 2.886719 32.75 3.25 C 32.804688 2.941406 32.972656 2.691406 33.25 2.5 C 35.417969 2.332031 37.582031 2.167969 39.75 2 C 40.6875 0.527344 42.019531 -0.0546875 43.75 0.25 Z M 43.75 0.25 "/>
</g>
<mask id="mask3">
  <g filter="url(#alpha)">
<rect x="0" y="0" width="100" height="99" style="fill:rgb(0%,0%,0%);fill-opacity:0.0705882;stroke:none;"/>
  </g>
</mask>
<clipPath id="clip4">
  <rect x="0" y="0" width="100" height="99"/>
</clipPath>
<g id="surface14" clip-path="url(#clip4)">
<path style=" stroke:none;fill-rule:evenodd;fill:rgb(15.294118%,21.176471%,27.058824%);fill-opacity:1;" d="M 31.75 3.75 C 30.808594 4.527344 30.308594 5.527344 30.25 6.75 C 26.871094 6.65625 23.871094 7.65625 21.25 9.75 C 21.738281 8.902344 22.402344 8.152344 23.25 7.5 C 25.167969 6.6875 27.167969 6.1875 29.25 6 C 29.707031 4.792969 30.539062 4.042969 31.75 3.75 Z M 31.75 3.75 "/>
</g>
<mask id="mask4">
  <g filter="url(#alpha)">
<rect x="0" y="0" width="100" height="99" style="fill:rgb(0%,0%,0%);fill-opacity:0.00784314;stroke:none;"/>
  </g>
</mask>
<clipPath id="clip5">
  <rect x="0" y="0" width="100" height="99"/>
</clipPath>
<g id="surface17" clip-path="url(#clip5)">
<path style=" stroke:none;fill-rule:evenodd;fill:rgb(13.72549%,21.568627%,27.843137%);fill-opacity:1;" d="M 68.75 5.25 C 73.082031 5.917969 75.582031 8.417969 76.25 12.75 C 75.347656 11.28125 74.429688 9.78125 73.5 8.25 C 72.078125 6.917969 70.496094 5.917969 68.75 5.25 Z M 68.75 5.25 "/>
</g>
<mask id="mask5">
  <g filter="url(#alpha)">
<rect x="0" y="0" width="100" height="99" style="fill:rgb(0%,0%,0%);fill-opacity:0.992157;stroke:none;"/>
  </g>
</mask>
<clipPath id="clip6">
  <rect x="0" y="0" width="100" height="99"/>
</clipPath>
<g id="surface20" clip-path="url(#clip6)">
<path style=" stroke:none;fill-rule:evenodd;fill:rgb(5.490196%,2.745098%,4.705882%);fill-opacity:1;" d="M 43.75 0.25 C 46.925781 -0.144531 49.84375 0.523438 52.5 2.25 C 53.425781 0.980469 54.675781 0.480469 56.25 0.75 C 57.347656 0.558594 58.183594 0.894531 58.75 1.75 C 59.960938 3.96875 61.792969 5.136719 64.25 5.25 C 64.25 6.082031 64.25 6.917969 64.25 7.75 C 63.292969 7.609375 62.460938 7.773438 61.75 8.25 C 59.117188 9.386719 57.617188 11.386719 57.25 14.25 C 57.917969 14.582031 58.582031 14.917969 59.25 15.25 C 59.285156 16.207031 59.785156 16.789062 60.75 17 C 64.171875 17.085938 67.507812 17.335938 70.75 17.75 C 64.496094 17.730469 58.246094 17.5625 52 17.25 C 39.972656 16.34375 31.808594 21.511719 27.5 32.75 C 24.5 42.753906 24.5 52.753906 27.5 62.75 C 28.304688 64.527344 29.21875 66.195312 30.25 67.75 C 34.113281 74.277344 39.78125 78.277344 47.25 79.75 C 48.917969 79.75 50.582031 79.75 52.25 79.75 C 54.75 79.75 57.25 79.75 59.75 79.75 C 64.601562 80.414062 69.4375 80.328125 74.25 79.5 C 76.761719 78.65625 78.679688 77.070312 80 74.75 C 80.460938 73.449219 80.792969 72.117188 81 70.75 C 81.839844 71.433594 81.925781 72.183594 81.25 73 C 81.761719 73.257812 82.261719 73.507812 82.75 73.75 C 81.878906 77.039062 79.964844 79.539062 77 81.25 C 75.363281 89.304688 70.445312 93.136719 62.25 92.75 C 61.683594 94.484375 60.515625 95.484375 58.75 95.75 C 57.449219 96.183594 56.117188 96.515625 54.75 96.75 C 53.757812 96.78125 52.925781 96.449219 52.25 95.75 C 49.425781 97.289062 46.425781 97.871094 43.25 97.5 C 42.078125 97.144531 41.078125 96.558594 40.25 95.75 C 37.726562 95.414062 35.226562 95 32.75 94.5 C 30.9375 94.105469 29.9375 93.023438 29.75 91.25 C 23.972656 91.472656 20.304688 88.804688 18.75 83.25 C 18.25 83.25 17.75 83.25 17.25 83.25 C 14.046875 82.464844 11.628906 80.632812 10 77.75 C 9.210938 76.171875 8.710938 74.503906 8.5 72.75 C 6.109375 71.359375 4.441406 69.359375 3.5 66.75 C 2.945312 63.441406 2.613281 60.109375 2.5 56.75 C 1.570312 55.214844 0.988281 53.546875 0.75 51.75 C 0.09375 47.355469 1.011719 43.355469 3.5 39.75 C 3.667969 36.25 3.832031 32.75 4 29.25 C 5.125 25.828125 7.289062 23.328125 10.5 21.75 C 11.476562 16.691406 14.558594 13.691406 19.75 12.75 C 20.191406 12.335938 20.359375 11.835938 20.25 11.25 C 20.144531 10.410156 20.476562 9.910156 21.25 9.75 C 23.871094 7.65625 26.871094 6.65625 30.25 6.75 C 30.308594 5.527344 30.808594 4.527344 31.75 3.75 C 31.921875 3.332031 32.253906 3.164062 32.75 3.25 C 35.226562 2.886719 37.726562 2.636719 40.25 2.5 C 41.296875 1.480469 42.460938 0.730469 43.75 0.25 Z M 43.75 0.25 "/>
</g>
<mask id="mask6">
  <g filter="url(#alpha)">
<rect x="0" y="0" width="100" height="99" style="fill:rgb(0%,0%,0%);fill-opacity:0.968627;stroke:none;"/>
  </g>
</mask>
<clipPath id="clip7">
  <rect x="0" y="0" width="100" height="99"/>
</clipPath>
<g id="surface23" clip-path="url(#clip7)">
<path style=" stroke:none;fill-rule:evenodd;fill:rgb(9.803922%,14.117647%,19.215686%);fill-opacity:1;" d="M 76.75 14.75 C 78.296875 16.175781 79.878906 17.675781 81.5 19.25 C 82.296875 20.894531 83.046875 22.5625 83.75 24.25 C 86.574219 24.011719 89.410156 24.261719 92.25 25 C 94.304688 27.152344 95.46875 29.734375 95.75 32.75 C 95.269531 32.523438 94.855469 32.191406 94.5 31.75 C 94.605469 27.105469 92.355469 24.9375 87.75 25.25 C 86.386719 25.273438 85.054688 25.441406 83.75 25.75 C 83.402344 25.488281 83.152344 25.152344 83 24.75 C 82.832031 24.917969 82.667969 25.082031 82.5 25.25 C 81.792969 23.710938 81.042969 22.210938 80.25 20.75 C 80.355469 20.457031 80.523438 20.207031 80.75 20 C 79.984375 18.484375 78.820312 17.402344 77.25 16.75 C 76.785156 16.15625 76.617188 15.488281 76.75 14.75 Z M 76.75 14.75 "/>
</g>
<mask id="mask7">
  <g filter="url(#alpha)">
<rect x="0" y="0" width="100" height="99" style="fill:rgb(0%,0%,0%);fill-opacity:0.0470588;stroke:none;"/>
  </g>
</mask>
<clipPath id="clip8">
  <rect x="0" y="0" width="100" height="99"/>
</clipPath>
<g id="surface26" clip-path="url(#clip8)">
<path style=" stroke:none;fill-rule:evenodd;fill:rgb(14.509804%,20.784314%,27.058824%);fill-opacity:1;" d="M 20.25 11.25 C 20.359375 11.835938 20.191406 12.335938 19.75 12.75 C 14.558594 13.691406 11.476562 16.691406 10.5 21.75 C 7.289062 23.328125 5.125 25.828125 4 29.25 C 3.832031 32.75 3.667969 36.25 3.5 39.75 C 1.011719 43.355469 0.09375 47.355469 0.75 51.75 C 0.417969 51.25 0.0820312 50.75 -0.25 50.25 C -0.25 48.417969 -0.25 46.582031 -0.25 44.75 C 2.699219 40.191406 3.78125 35.191406 3 29.75 C 4.144531 25.773438 6.558594 22.859375 10.25 21 C 9.957031 18.984375 10.625 17.234375 12.25 15.75 C 12.992188 15.261719 13.65625 14.675781 14.25 14 C 16.410156 13.3125 18.410156 12.394531 20.25 11.25 Z M 20.25 11.25 "/>
</g>
<mask id="mask8">
  <g filter="url(#alpha)">
<rect x="0" y="0" width="100" height="99" style="fill:rgb(0%,0%,0%);fill-opacity:0.992157;stroke:none;"/>
  </g>
</mask>
<clipPath id="clip9">
  <rect x="0" y="0" width="100" height="99"/>
</clipPath>
<g id="surface29" clip-path="url(#clip9)">
<path style=" stroke:none;fill-rule:evenodd;fill:rgb(1.960784%,2.352941%,5.490196%);fill-opacity:1;" d="M 64.25 5.25 C 65.75 5.25 67.25 5.25 68.75 5.25 C 70.496094 5.917969 72.078125 6.917969 73.5 8.25 C 74.429688 9.78125 75.347656 11.28125 76.25 12.75 C 76.71875 13.285156 76.882812 13.949219 76.75 14.75 C 76.617188 15.488281 76.785156 16.15625 77.25 16.75 C 78.820312 17.402344 79.984375 18.484375 80.75 20 C 80.523438 20.207031 80.355469 20.457031 80.25 20.75 C 81.042969 22.210938 81.792969 23.710938 82.5 25.25 C 82.667969 25.082031 82.832031 24.917969 83 24.75 C 83.152344 25.152344 83.402344 25.488281 83.75 25.75 C 85.054688 25.441406 86.386719 25.273438 87.75 25.25 C 92.355469 24.9375 94.605469 27.105469 94.5 31.75 C 94.855469 32.191406 95.269531 32.523438 95.75 32.75 C 96.386719 34.328125 96.386719 35.910156 95.75 37.5 C 97.902344 39.667969 98.234375 42.082031 96.75 44.75 C 98.972656 47.195312 99.304688 49.863281 97.75 52.75 C 97.75 53.082031 97.582031 53.25 97.25 53.25 C 97.046875 54.640625 97.046875 56.140625 97.25 57.75 C 96.167969 57.640625 95.335938 57.140625 94.75 56.25 C 94.511719 55.546875 94.011719 55.214844 93.25 55.25 C 92.261719 54.414062 91.09375 54.082031 89.75 54.25 C 90.613281 53.882812 91.113281 53.214844 91.25 52.25 C 93.175781 52.304688 94.757812 51.640625 96 50.25 C 96.464844 48.019531 95.550781 46.851562 93.25 46.75 C 92.367188 46.269531 91.367188 46.101562 90.25 46.25 C 90.164062 45.589844 90.332031 45.003906 90.75 44.5 C 92.347656 44.300781 93.765625 43.71875 95 42.75 C 95.332031 42.082031 95.332031 41.417969 95 40.75 C 93.710938 39.742188 92.292969 38.992188 90.75 38.5 C 91.5 37.566406 92.5 37.066406 93.75 37 C 93.292969 36.859375 92.960938 36.609375 92.75 36.25 C 93.59375 34.667969 93.09375 33.667969 91.25 33.25 C 90.53125 32.785156 89.867188 32.203125 89.25 31.5 C 89.867188 31.382812 90.367188 31.132812 90.75 30.75 C 91.828125 29.695312 91.496094 28.863281 89.75 28.25 C 87.84375 27.675781 85.84375 27.59375 83.75 28 C 82.921875 28.722656 82.589844 29.640625 82.75 30.75 C 83.75 30.75 84.75 30.75 85.75 30.75 C 84.515625 31.160156 83.183594 31.410156 81.75 31.5 C 82.5 31.792969 83.167969 32.207031 83.75 32.75 C 83.6875 33.054688 83.523438 33.21875 83.25 33.25 C 83.21875 32.976562 83.054688 32.8125 82.75 32.75 C 81.933594 33.148438 81.183594 33.648438 80.5 34.25 C 80.25 34.082031 80 33.917969 79.75 33.75 C 79.210938 32.261719 79.210938 30.761719 79.75 29.25 C 80.058594 29.195312 80.308594 29.027344 80.5 28.75 C 81.054688 21.722656 77.804688 18.054688 70.75 17.75 C 67.507812 17.335938 64.171875 17.085938 60.75 17 C 59.785156 16.789062 59.285156 16.207031 59.25 15.25 C 62.25 15.25 65.25 15.25 68.25 15.25 C 68.519531 13.675781 68.019531 12.425781 66.75 11.5 C 68.78125 11.429688 70.28125 12.34375 71.25 14.25 C 71.84375 14.714844 72.511719 14.882812 73.25 14.75 C 72.472656 9.648438 69.472656 7.316406 64.25 7.75 C 64.25 6.917969 64.25 6.082031 64.25 5.25 Z M 64.25 5.25 "/>
</g>
<mask id="mask9">
  <g filter="url(#alpha)">
<rect x="0" y="0" width="100" height="99" style="fill:rgb(0%,0%,0%);fill-opacity:0.0117647;stroke:none;"/>
  </g>
</mask>
<clipPath id="clip10">
  <rect x="0" y="0" width="100" height="99"/>
</clipPath>
<g id="surface32" clip-path="url(#clip10)">
<path style=" stroke:none;fill-rule:evenodd;fill:rgb(14.117647%,21.176471%,27.45098%);fill-opacity:1;" d="M 95.75 32.75 C 96.058594 32.804688 96.308594 32.972656 96.5 33.25 C 96.886719 34.714844 96.804688 36.132812 96.25 37.5 C 98.746094 39.476562 99.246094 41.8125 97.75 44.5 C 98.339844 45.503906 99.007812 46.417969 99.75 47.25 C 99.75 47.917969 99.75 48.582031 99.75 49.25 C 99.347656 49.976562 99.097656 50.808594 99 51.75 C 98.644531 52.191406 98.230469 52.523438 97.75 52.75 C 99.304688 49.863281 98.972656 47.195312 96.75 44.75 C 98.234375 42.082031 97.902344 39.667969 95.75 37.5 C 96.386719 35.910156 96.386719 34.328125 95.75 32.75 Z M 95.75 32.75 "/>
</g>
<mask id="mask10">
  <g filter="url(#alpha)">
<rect x="0" y="0" width="100" height="99" style="fill:rgb(0%,0%,0%);fill-opacity:0.0392157;stroke:none;"/>
  </g>
</mask>
<clipPath id="clip11">
  <rect x="0" y="0" width="100" height="99"/>
</clipPath>
<g id="surface35" clip-path="url(#clip11)">
<path style=" stroke:none;fill-rule:evenodd;fill:rgb(12.941176%,18.823529%,24.705882%);fill-opacity:1;" d="M 93.75 69.75 C 93.449219 71.085938 92.617188 72 91.25 72.5 C 88.753906 72.75 86.253906 72.832031 83.75 72.75 C 83.035156 76.675781 80.949219 79.675781 77.5 81.75 C 75.96875 90.230469 70.886719 93.898438 62.25 92.75 C 70.445312 93.136719 75.363281 89.304688 77 81.25 C 79.964844 79.539062 81.878906 77.039062 82.75 73.75 C 82.785156 72.84375 83.203125 72.179688 84 71.75 C 87.710938 72.929688 90.960938 72.261719 93.75 69.75 Z M 93.75 69.75 "/>
</g>
<mask id="mask11">
  <g filter="url(#alpha)">
<rect x="0" y="0" width="100" height="99" style="fill:rgb(0%,0%,0%);fill-opacity:0.0431373;stroke:none;"/>
  </g>
</mask>
<clipPath id="clip12">
  <rect x="0" y="0" width="100" height="99"/>
</clipPath>
<g id="surface38" clip-path="url(#clip12)">
<path style=" stroke:none;fill-rule:evenodd;fill:rgb(14.901961%,18.823529%,23.921569%);fill-opacity:1;" d="M 17.25 83.25 C 17.75 83.25 18.25 83.25 18.75 83.25 C 20.304688 88.804688 23.972656 91.472656 29.75 91.25 C 29.9375 93.023438 30.9375 94.105469 32.75 94.5 C 35.226562 95 37.726562 95.414062 40.25 95.75 C 41.078125 96.558594 42.078125 97.144531 43.25 97.5 C 46.425781 97.871094 49.425781 97.289062 52.25 95.75 C 52.925781 96.449219 53.757812 96.78125 54.75 96.75 C 56.117188 96.515625 57.449219 96.183594 58.75 95.75 C 58.558594 96.464844 58.058594 96.882812 57.25 97 C 55.386719 97.378906 53.554688 97.296875 51.75 96.75 C 50.257812 97.582031 48.757812 98.25 47.25 98.75 C 46.917969 98.75 46.582031 98.75 46.25 98.75 C 46.082031 98.082031 45.917969 98.082031 45.75 98.75 C 45.582031 98.75 45.417969 98.75 45.25 98.75 C 42.511719 98.050781 39.84375 97.050781 37.25 95.75 C 33.460938 96.230469 30.378906 94.898438 28 91.75 C 26.210938 91.988281 24.460938 91.570312 22.75 90.5 C 20.238281 88.539062 18.402344 86.121094 17.25 83.25 Z M 17.25 83.25 "/>
</g>
</defs>
<g id="surface1">
<use xlink:href="#surface5" mask="url(#mask0)"/>
<use xlink:href="#surface8" mask="url(#mask1)"/>
<use xlink:href="#surface11" mask="url(#mask2)"/>
<use xlink:href="#surface14" mask="url(#mask3)"/>
<use xlink:href="#surface17" mask="url(#mask4)"/>
<path style=" stroke:none;fill-rule:evenodd;fill:rgb(7.45098%,8.627451%,13.72549%);fill-opacity:1;" d="M 61.75 8.25 C 62.460938 7.773438 63.292969 7.609375 64.25 7.75 C 69.472656 7.316406 72.472656 9.648438 73.25 14.75 C 72.511719 14.882812 71.84375 14.714844 71.25 14.25 C 70.28125 12.34375 68.78125 11.429688 66.75 11.5 C 68.019531 12.425781 68.519531 13.675781 68.25 15.25 C 65.25 15.25 62.25 15.25 59.25 15.25 C 58.582031 14.917969 57.917969 14.582031 57.25 14.25 C 59.683594 13.992188 61.765625 12.992188 63.5 11.25 C 63.808594 9.699219 63.226562 8.699219 61.75 8.25 Z M 61.75 8.25 "/>
<path style=" stroke:none;fill-rule:evenodd;fill:rgb(23.921569%,22.352941%,22.745098%);fill-opacity:1;" d="M 61.75 8.25 C 63.226562 8.699219 63.808594 9.699219 63.5 11.25 C 61.765625 12.992188 59.683594 13.992188 57.25 14.25 C 57.617188 11.386719 59.117188 9.386719 61.75 8.25 Z M 61.75 8.25 "/>
<use xlink:href="#surface20" mask="url(#mask5)"/>
<path style=" stroke:none;fill-rule:evenodd;fill:rgb(38.431373%,2.352941%,11.372549%);fill-opacity:1;" d="M 55.75 10.25 C 55.878906 13.515625 54.378906 14.597656 51.25 13.5 C 50.792969 13.359375 50.460938 13.109375 50.25 12.75 C 50.917969 12.75 51.582031 12.75 52.25 12.75 C 52.25 11.917969 52.25 11.082031 52.25 10.25 C 53.417969 10.25 54.582031 10.25 55.75 10.25 Z M 55.75 10.25 "/>
<path style=" stroke:none;fill-rule:evenodd;fill:rgb(54.509804%,0.392157%,12.54902%);fill-opacity:1;" d="M 57.75 7.75 C 57.082031 8.582031 56.417969 9.417969 55.75 10.25 C 54.582031 10.25 53.417969 10.25 52.25 10.25 C 52.25 11.082031 52.25 11.917969 52.25 12.75 C 51.582031 12.75 50.917969 12.75 50.25 12.75 C 48.800781 12.277344 47.632812 11.445312 46.75 10.25 C 48.046875 10.632812 49.382812 10.800781 50.75 10.75 C 50.671875 9.902344 50.753906 9.066406 51 8.25 C 52.121094 9.140625 53.371094 9.390625 54.75 9 C 54.523438 8.792969 54.355469 8.542969 54.25 8.25 C 55.371094 7.761719 56.539062 7.597656 57.75 7.75 Z M 57.75 7.75 "/>
<path style=" stroke:none;fill-rule:evenodd;fill:rgb(78.823529%,0%,15.294118%);fill-opacity:1;" d="M 39.25 13.25 C 36.160156 13.796875 33.492188 15.128906 31.25 17.25 C 30.917969 17.417969 30.582031 17.582031 30.25 17.75 C 30.25 16.417969 30.25 15.082031 30.25 13.75 C 28.582031 13.25 26.917969 12.75 25.25 12.25 C 25.25 12.75 25.25 13.25 25.25 13.75 C 24.503906 13.503906 23.835938 13.171875 23.25 12.75 C 23.25 12.25 23.25 11.75 23.25 11.25 C 24.914062 11.324219 26.496094 10.988281 28 10.25 C 29.476562 10.296875 29.558594 10.546875 28.25 11 C 29.175781 11.277344 29.84375 10.941406 30.25 10 C 30.082031 9.832031 29.917969 9.667969 29.75 9.5 C 31.753906 9.320312 33.753906 9.40625 35.75 9.75 C 35.921875 8.757812 35.589844 8.089844 34.75 7.75 C 34.25 7.582031 33.917969 7.25 33.75 6.75 C 33.707031 6.253906 33.875 5.835938 34.25 5.5 C 36.082031 5.167969 37.917969 5.167969 39.75 5.5 C 39.347656 5.652344 39.011719 5.902344 38.75 6.25 C 39.691406 8.410156 40.523438 10.578125 41.25 12.75 C 40.449219 12.617188 39.785156 12.78125 39.25 13.25 Z M 39.25 13.25 "/>
<path style=" stroke:none;fill-rule:evenodd;fill:rgb(69.411765%,3.921569%,16.078431%);fill-opacity:1;" d="M 34.75 7.75 C 35.589844 8.089844 35.921875 8.757812 35.75 9.75 C 33.753906 9.40625 31.753906 9.320312 29.75 9.5 C 29.917969 9.667969 30.082031 9.832031 30.25 10 C 29.84375 10.941406 29.175781 11.277344 28.25 11 C 29.558594 10.546875 29.476562 10.296875 28 10.25 C 26.496094 10.988281 24.914062 11.324219 23.25 11.25 C 23.25 11.75 23.25 12.25 23.25 12.75 C 22.386719 12.578125 22.136719 12.078125 22.5 11.25 C 25.796875 8.410156 29.546875 7.578125 33.75 8.75 C 34.355469 8.625 34.691406 8.292969 34.75 7.75 Z M 34.75 7.75 "/>
<path style=" stroke:none;fill-rule:evenodd;fill:rgb(67.45098%,0.392157%,13.72549%);fill-opacity:1;" d="M 57.75 7.75 C 56.539062 7.597656 55.371094 7.761719 54.25 8.25 C 54.355469 8.542969 54.523438 8.792969 54.75 9 C 53.371094 9.390625 52.121094 9.140625 51 8.25 C 50.753906 9.066406 50.671875 9.902344 50.75 10.75 C 49.382812 10.800781 48.046875 10.632812 46.75 10.25 C 45.671875 9.714844 44.671875 9.714844 43.75 10.25 C 43.707031 10.746094 43.875 11.164062 44.25 11.5 C 43.417969 11.667969 42.582031 11.832031 41.75 12 C 42.082031 12.332031 42.417969 12.667969 42.75 13 C 41.59375 13.25 40.429688 13.332031 39.25 13.25 C 39.785156 12.78125 40.449219 12.617188 41.25 12.75 C 40.523438 10.578125 39.691406 8.410156 38.75 6.25 C 39.011719 5.902344 39.347656 5.652344 39.75 5.5 C 37.917969 5.167969 36.082031 5.167969 34.25 5.5 C 33.875 5.835938 33.707031 6.253906 33.75 6.75 C 32.535156 6.359375 32.535156 5.777344 33.75 5 C 37.320312 4.382812 40.738281 4.796875 44 6.25 C 44.25 6.082031 44.5 5.917969 44.75 5.75 C 44.113281 5.355469 43.613281 4.855469 43.25 4.25 C 43.847656 3.613281 44.679688 3.277344 45.75 3.25 C 48.074219 3.742188 50.410156 4.242188 52.75 4.75 C 52.75 5.25 52.75 5.75 52.75 6.25 C 53.894531 6.121094 54.980469 6.289062 56 6.75 C 55.789062 4.414062 56.703125 4.078125 58.75 5.75 C 58.074219 6.261719 57.738281 6.929688 57.75 7.75 Z M 57.75 7.75 "/>
<path style=" stroke:none;fill-rule:evenodd;fill:rgb(56.470588%,3.137255%,14.509804%);fill-opacity:1;" d="M 57.75 7.75 C 57.738281 6.929688 58.074219 6.261719 58.75 5.75 C 56.703125 4.078125 55.789062 4.414062 56 6.75 C 54.980469 6.289062 53.894531 6.121094 52.75 6.25 C 52.75 5.75 52.75 5.25 52.75 4.75 C 50.410156 4.242188 48.074219 3.742188 45.75 3.25 C 44.679688 3.277344 43.847656 3.613281 43.25 4.25 C 42.796875 3.894531 42.632812 3.394531 42.75 2.75 C 45.066406 2.257812 47.398438 2.175781 49.75 2.5 C 51.542969 3.519531 53.292969 4.605469 55 5.75 C 54.703125 4.824219 54.453125 3.824219 54.25 2.75 C 56.347656 2.839844 58.097656 3.671875 59.5 5.25 C 59.621094 6.503906 59.035156 7.339844 57.75 7.75 Z M 57.75 7.75 "/>
<path style=" stroke:none;fill-rule:evenodd;fill:rgb(64.313725%,5.098039%,14.901961%);fill-opacity:1;" d="M 25.25 13.75 C 25.644531 13.890625 25.976562 14.140625 26.25 14.5 C 24.257812 14.75 22.257812 14.832031 20.25 14.75 C 20.25 15.25 20.25 15.75 20.25 16.25 C 19.402344 16.167969 18.566406 16.253906 17.75 16.5 C 17.917969 16.667969 18.082031 16.832031 18.25 17 C 16.40625 17.445312 14.738281 18.195312 13.25 19.25 C 13.214844 19.980469 13.382812 20.644531 13.75 21.25 C 12.875 21.292969 12.375 20.875 12.25 20 C 13.882812 17.089844 16.382812 15.257812 19.75 14.5 C 21.679688 14.410156 23.511719 14.160156 25.25 13.75 Z M 25.25 13.75 "/>
<path style=" stroke:none;fill-rule:evenodd;fill:rgb(86.27451%,0.392157%,14.901961%);fill-opacity:1;" d="M 30.25 17.75 C 22.507812 26.304688 19.007812 36.472656 19.75 48.25 C 19.667969 53.25 20.5 58.085938 22.25 62.75 C 23.253906 64.570312 23.335938 66.40625 22.5 68.25 C 21.890625 67.070312 21.472656 67.238281 21.25 68.75 C 20.246094 68.164062 19.496094 67.328125 19 66.25 C 17.75 62.003906 16.917969 57.671875 16.5 53.25 C 16.308594 52.972656 16.058594 52.804688 15.75 52.75 C 15.203125 51.132812 14.035156 50.214844 12.25 50 C 14.574219 48.773438 15.992188 46.855469 16.5 44.25 C 15.808594 35.699219 17.808594 27.867188 22.5 20.75 C 22.746094 19.933594 22.832031 19.097656 22.75 18.25 C 20.574219 18.402344 18.488281 18.902344 16.5 19.75 C 16.15625 20.390625 16.242188 20.976562 16.75 21.5 C 16.046875 21.683594 15.546875 22.101562 15.25 22.75 C 16.019531 23.601562 16.6875 24.519531 17.25 25.5 C 17.175781 25.886719 17.011719 26.21875 16.75 26.5 C 14.835938 26.917969 13.085938 27.667969 11.5 28.75 C 11.417969 28.917969 11.332031 29.082031 11.25 29.25 C 11.84375 29.714844 12.511719 29.882812 13.25 29.75 C 13.308594 31.457031 12.476562 32.121094 10.75 31.75 C 10.957031 31.390625 11.292969 31.140625 11.75 31 C 11.25 30.917969 10.75 30.832031 10.25 30.75 C 8.8125 31.382812 7.3125 31.882812 5.75 32.25 C 5.75 31.582031 5.75 30.917969 5.75 30.25 C 7.390625 26.023438 10.390625 23.273438 14.75 22 C 14.476562 21.640625 14.144531 21.390625 13.75 21.25 C 13.382812 20.644531 13.214844 19.980469 13.25 19.25 C 14.738281 18.195312 16.40625 17.445312 18.25 17 C 18.082031 16.832031 17.917969 16.667969 17.75 16.5 C 18.566406 16.253906 19.402344 16.167969 20.25 16.25 C 20.25 15.75 20.25 15.25 20.25 14.75 C 22.257812 14.832031 24.257812 14.75 26.25 14.5 C 25.976562 14.140625 25.644531 13.890625 25.25 13.75 C 25.25 13.25 25.25 12.75 25.25 12.25 C 26.917969 12.75 28.582031 13.25 30.25 13.75 C 30.25 15.082031 30.25 16.417969 30.25 17.75 Z M 30.25 17.75 "/>
<path style=" stroke:none;fill-rule:evenodd;fill:rgb(61.960784%,0.392157%,12.941176%);fill-opacity:1;" d="M 43.75 10.25 C 45.8125 11.144531 47.144531 12.644531 47.75 14.75 C 39.242188 14.960938 32.660156 18.628906 28 25.75 C 26.789062 28.160156 25.539062 30.492188 24.25 32.75 C 25.066406 30.320312 25.648438 27.820312 26 25.25 C 26.34375 23.789062 27.261719 23.121094 28.75 23.25 C 29.390625 21.492188 30.222656 19.492188 31.25 17.25 C 33.492188 15.128906 36.160156 13.796875 39.25 13.25 C 40.429688 13.332031 41.59375 13.25 42.75 13 C 42.417969 12.667969 42.082031 12.332031 41.75 12 C 42.582031 11.832031 43.417969 11.667969 44.25 11.5 C 43.875 11.164062 43.707031 10.746094 43.75 10.25 Z M 43.75 10.25 "/>
<use xlink:href="#surface23" mask="url(#mask6)"/>
<path style=" stroke:none;fill-rule:evenodd;fill:rgb(12.54902%,13.333333%,17.647059%);fill-opacity:1;" d="M 70.75 17.75 C 77.804688 18.054688 81.054688 21.722656 80.5 28.75 C 80.308594 29.027344 80.058594 29.195312 79.75 29.25 C 79.457031 24.871094 77.292969 21.789062 73.25 20 C 67.925781 19.449219 62.589844 19.035156 57.25 18.75 C 57.304688 19.953125 56.804688 20.867188 55.75 21.5 C 53.660156 21.511719 51.910156 22.261719 50.5 23.75 C 50.253906 24.738281 50.167969 25.738281 50.25 26.75 C 45.976562 25.929688 42.5625 27.261719 40 30.75 C 40.140625 32.570312 40.140625 34.402344 40 36.25 C 38.578125 38.070312 36.992188 38.152344 35.25 36.5 C 34.582031 36.167969 33.917969 36.167969 33.25 36.5 C 32.441406 37.6875 31.773438 38.9375 31.25 40.25 C 30.335938 40.886719 30.167969 41.636719 30.75 42.5 C 29.628906 44.96875 28.964844 47.550781 28.75 50.25 C 28.003906 55.816406 29.003906 60.984375 31.75 65.75 C 31.25 65.75 30.75 65.75 30.25 65.75 C 30.25 66.417969 30.25 67.082031 30.25 67.75 C 29.21875 66.195312 28.304688 64.527344 27.5 62.75 C 24.5 52.753906 24.5 42.753906 27.5 32.75 C 31.808594 21.511719 39.972656 16.34375 52 17.25 C 58.246094 17.5625 64.496094 17.730469 70.75 17.75 Z M 70.75 17.75 "/>
<path style=" stroke:none;fill-rule:evenodd;fill:rgb(24.313725%,24.705882%,22.745098%);fill-opacity:1;" d="M 79.75 29.25 C 79.210938 30.761719 79.210938 32.261719 79.75 33.75 C 80 33.917969 80.25 34.082031 80.5 34.25 C 81.183594 33.648438 81.933594 33.148438 82.75 32.75 C 83.054688 32.8125 83.21875 32.976562 83.25 33.25 C 84.054688 35.503906 84.390625 37.835938 84.25 40.25 C 83.582031 40.25 82.917969 40.25 82.25 40.25 C 82.8125 45.746094 82.8125 51.246094 82.25 56.75 C 82.917969 56.75 83.582031 56.75 84.25 56.75 C 84.367188 58.988281 84.03125 61.15625 83.25 63.25 C 81.335938 63.859375 80.085938 63.195312 79.5 61.25 C 79.101562 64.390625 79.351562 67.472656 80.25 70.5 C 80.242188 71.191406 80.074219 71.777344 79.75 72.25 C 79.828125 71.5625 79.746094 70.898438 79.5 70.25 C 76.472656 75.808594 71.722656 78.308594 65.25 77.75 C 60.746094 77.71875 56.414062 78.386719 52.25 79.75 C 50.582031 79.75 48.917969 79.75 47.25 79.75 C 47.804688 79.355469 48.472656 79.105469 49.25 79 C 47.171875 78.792969 45.171875 78.292969 43.25 77.5 C 42.226562 77.25 41.5625 76.667969 41.25 75.75 C 45.980469 77.898438 50.8125 78.230469 55.75 76.75 C 54.808594 75.453125 53.808594 74.203125 52.75 73 C 50.421875 72.75 48.089844 72.667969 45.75 72.75 C 47.488281 72.339844 49.320312 72.089844 51.25 72 C 52.320312 70.605469 52.320312 69.191406 51.25 67.75 C 50.449219 66.964844 49.449219 66.628906 48.25 66.75 C 47.976562 66.71875 47.8125 66.554688 47.75 66.25 C 48.363281 65.859375 49.03125 65.609375 49.75 65.5 C 48.605469 64.378906 48.4375 63.128906 49.25 61.75 C 47.699219 61.792969 47.535156 61.542969 48.75 61 C 47.753906 60.714844 47.003906 60.128906 46.5 59.25 C 44.222656 60.804688 42.972656 59.972656 42.75 56.75 C 46.734375 58.132812 49.316406 56.800781 50.5 52.75 C 50.917969 50.039062 50.753906 47.371094 50 44.75 C 49.3125 43.445312 48.226562 42.695312 46.75 42.5 C 43.480469 42.113281 40.230469 42.195312 37 42.75 C 35.625 42.207031 34.375 41.457031 33.25 40.5 C 32.601562 40.253906 31.9375 40.171875 31.25 40.25 C 31.773438 38.9375 32.441406 37.6875 33.25 36.5 C 33.917969 36.167969 34.582031 36.167969 35.25 36.5 C 36.992188 38.152344 38.578125 38.070312 40 36.25 C 40.140625 34.402344 40.140625 32.570312 40 30.75 C 42.5625 27.261719 45.976562 25.929688 50.25 26.75 C 50.167969 25.738281 50.253906 24.738281 50.5 23.75 C 51.910156 22.261719 53.660156 21.511719 55.75 21.5 C 56.804688 20.867188 57.304688 19.953125 57.25 18.75 C 62.589844 19.035156 67.925781 19.449219 73.25 20 C 77.292969 21.789062 79.457031 24.871094 79.75 29.25 Z M 79.75 29.25 "/>
<path style=" stroke:none;fill-rule:evenodd;fill:rgb(0.784314%,0.392157%,5.490196%);fill-opacity:1;" d="M 71.25 23.25 C 73.800781 27.277344 73.882812 31.445312 71.5 35.75 C 67.945312 39.71875 63.863281 40.304688 59.25 37.5 C 57.609375 36.113281 56.273438 34.53125 55.25 32.75 C 54.253906 30.207031 54.003906 27.539062 54.5 24.75 C 56.007812 22.203125 58.257812 21.039062 61.25 21.25 C 64.707031 21.382812 68.039062 22.046875 71.25 23.25 Z M 71.25 23.25 "/>
<use xlink:href="#surface26" mask="url(#mask7)"/>
<path style=" stroke:none;fill-rule:evenodd;fill:rgb(67.45098%,0.784314%,12.54902%);fill-opacity:1;" d="M 31.25 17.25 C 30.222656 19.492188 29.390625 21.492188 28.75 23.25 C 27.261719 23.121094 26.34375 23.789062 26 25.25 C 25.648438 27.820312 25.066406 30.320312 24.25 32.75 C 21.644531 44.492188 22.394531 55.992188 26.5 67.25 C 30.851562 75.433594 37.601562 80.347656 46.75 82 C 47.066406 83.175781 47.066406 84.261719 46.75 85.25 C 47.660156 84.625 48.660156 84.292969 49.75 84.25 C 50.75 84.25 51.75 84.25 52.75 84.25 C 52.765625 85.289062 52.429688 86.207031 51.75 87 C 52.742188 87.089844 53.742188 87.007812 54.75 86.75 C 56.71875 88.132812 58.636719 89.632812 60.5 91.25 C 60.832031 91.582031 60.832031 91.917969 60.5 92.25 C 59.691406 92.691406 58.941406 93.191406 58.25 93.75 C 58.25 92.917969 58.25 92.082031 58.25 91.25 C 55.757812 90.75 53.257812 90.667969 50.75 91 C 51.371094 90.0625 52.039062 89.144531 52.75 88.25 C 52.046875 87.878906 51.378906 87.460938 50.75 87 C 48.390625 86.402344 46.058594 86.152344 43.75 86.25 C 43.375 85.292969 43.375 84.292969 43.75 83.25 C 42.574219 83.082031 41.40625 82.832031 40.25 82.5 C 39.640625 81.628906 38.808594 81.128906 37.75 81 C 38.082031 80.832031 38.417969 80.667969 38.75 80.5 C 36.945312 79.929688 35.28125 79.097656 33.75 78 C 32.375 78.121094 31.042969 78.035156 29.75 77.75 C 29.269531 77.019531 28.6875 76.351562 28 75.75 C 27.417969 73.589844 26.832031 71.421875 26.25 69.25 C 25.917969 69.082031 25.582031 68.917969 25.25 68.75 C 24.757812 66.429688 23.757812 64.429688 22.25 62.75 C 20.5 58.085938 19.667969 53.25 19.75 48.25 C 19.007812 36.472656 22.507812 26.304688 30.25 17.75 C 30.582031 17.582031 30.917969 17.417969 31.25 17.25 Z M 31.25 17.25 "/>
<use xlink:href="#surface29" mask="url(#mask8)"/>
<path style=" stroke:none;fill-rule:evenodd;fill:rgb(23.921569%,22.745098%,24.313725%);fill-opacity:1;" d="M 89.75 28.25 C 88.808594 28.113281 88.144531 28.449219 87.75 29.25 C 87.296875 29.605469 87.132812 30.105469 87.25 30.75 C 86.75 30.75 86.25 30.75 85.75 30.75 C 84.75 30.75 83.75 30.75 82.75 30.75 C 82.589844 29.640625 82.921875 28.722656 83.75 28 C 85.84375 27.59375 87.84375 27.675781 89.75 28.25 Z M 89.75 28.25 "/>
<path style=" stroke:none;fill-rule:evenodd;fill:rgb(80.392157%,72.54902%,67.058824%);fill-opacity:1;" d="M 89.75 28.25 C 91.496094 28.863281 91.828125 29.695312 90.75 30.75 C 89.75 30.75 88.75 30.75 87.75 30.75 C 87.75 30.25 87.75 29.75 87.75 29.25 C 88.144531 28.449219 88.808594 28.113281 89.75 28.25 Z M 89.75 28.25 "/>
<path style=" stroke:none;fill-rule:evenodd;fill:rgb(32.54902%,3.529412%,8.235294%);fill-opacity:1;" d="M 5.75 30.25 C 5.75 30.917969 5.75 31.582031 5.75 32.25 C 7.3125 31.882812 8.8125 31.382812 10.25 30.75 C 10.75 30.832031 11.25 30.917969 11.75 31 C 11.292969 31.140625 10.957031 31.390625 10.75 31.75 C 9.335938 32 8.171875 32.664062 7.25 33.75 C 7.082031 33.75 6.917969 33.75 6.75 33.75 C 6.589844 32.976562 6.089844 32.644531 5.25 32.75 C 5.109375 31.792969 5.273438 30.960938 5.75 30.25 Z M 5.75 30.25 "/>
<path style=" stroke:none;fill-rule:evenodd;fill:rgb(99.215686%,4.705882%,18.039216%);fill-opacity:1;" d="M 15.75 52.75 C 13.964844 52.089844 12.382812 52.425781 11 53.75 C 10.640625 53.273438 10.222656 53.191406 9.75 53.5 C 9.972656 54.605469 10.804688 55.441406 12.25 56 C 12.082031 56.167969 11.917969 56.332031 11.75 56.5 C 12.511719 57.183594 13.261719 57.433594 14 57.25 C 14.09375 58.03125 13.675781 58.363281 12.75 58.25 C 12.824219 58.777344 12.742188 59.277344 12.5 59.75 C 12.101562 58.425781 11.351562 57.34375 10.25 56.5 C 8.539062 55.382812 6.875 54.132812 5.25 52.75 C 4.953125 54.921875 5.953125 56.503906 8.25 57.5 C 7.699219 57.886719 7.699219 58.300781 8.25 58.75 C 8.082031 58.75 7.917969 58.75 7.75 58.75 C 4.191406 56.46875 2.691406 53.300781 3.25 49.25 C 6.730469 48.875 6.980469 47.875 4 46.25 C 3.917969 45.832031 3.832031 45.417969 3.75 45 C 4.707031 43.03125 5.707031 41.113281 6.75 39.25 C 6.75 38.917969 6.917969 38.75 7.25 38.75 C 7.523438 38.71875 7.6875 38.554688 7.75 38.25 C 7.15625 37.785156 6.488281 37.617188 5.75 37.75 C 5.507812 36.105469 6.007812 34.773438 7.25 33.75 C 8.171875 32.664062 9.335938 32 10.75 31.75 C 12.476562 32.121094 13.308594 31.457031 13.25 29.75 C 12.511719 29.882812 11.84375 29.714844 11.25 29.25 C 11.332031 29.082031 11.417969 28.917969 11.5 28.75 C 13.085938 27.667969 14.835938 26.917969 16.75 26.5 C 17.011719 26.21875 17.175781 25.886719 17.25 25.5 C 16.6875 24.519531 16.019531 23.601562 15.25 22.75 C 15.546875 22.101562 16.046875 21.683594 16.75 21.5 C 16.242188 20.976562 16.15625 20.390625 16.5 19.75 C 18.488281 18.902344 20.574219 18.402344 22.75 18.25 C 22.832031 19.097656 22.746094 19.933594 22.5 20.75 C 17.808594 27.867188 15.808594 35.699219 16.5 44.25 C 15.992188 46.855469 14.574219 48.773438 12.25 50 C 14.035156 50.214844 15.203125 51.132812 15.75 52.75 Z M 15.75 52.75 "/>
<path style=" stroke:none;fill-rule:evenodd;fill:rgb(71.372549%,67.843137%,65.882353%);fill-opacity:1;" d="M 91.25 33.25 C 93.09375 33.667969 93.59375 34.667969 92.75 36.25 C 91.132812 36.976562 90.296875 36.394531 90.25 34.5 C 90.34375 33.8125 90.675781 33.394531 91.25 33.25 Z M 91.25 33.25 "/>
<path style=" stroke:none;fill-rule:evenodd;fill:rgb(58.823529%,10.196078%,15.294118%);fill-opacity:1;" d="M 6.75 33.75 C 6.917969 33.75 7.082031 33.75 7.25 33.75 C 6.007812 34.773438 5.507812 36.105469 5.75 37.75 C 6.488281 37.617188 7.15625 37.785156 7.75 38.25 C 7.6875 38.554688 7.523438 38.71875 7.25 38.75 C 6.714844 38.28125 6.050781 38.117188 5.25 38.25 C 5.167969 37.070312 5.25 35.90625 5.5 34.75 C 5.855469 34.308594 6.269531 33.976562 6.75 33.75 Z M 6.75 33.75 "/>
<path style=" stroke:none;fill-rule:evenodd;fill:rgb(11.764706%,12.54902%,16.078431%);fill-opacity:1;" d="M 55.25 32.75 C 56.273438 34.53125 57.609375 36.113281 59.25 37.5 C 63.863281 40.304688 67.945312 39.71875 71.5 35.75 C 73.882812 31.445312 73.800781 27.277344 71.25 23.25 C 71.777344 23.324219 72.277344 23.242188 72.75 23 C 72.144531 22.554688 72.144531 22.136719 72.75 21.75 C 75.132812 27.277344 75.382812 32.941406 73.5 38.75 C 70.269531 43.996094 65.851562 45.414062 60.25 43 C 57.578125 40.070312 55.914062 36.65625 55.25 32.75 Z M 55.25 32.75 "/>
<use xlink:href="#surface32" mask="url(#mask9)"/>
<path style=" stroke:none;fill-rule:evenodd;fill:rgb(1.568627%,1.176471%,5.490196%);fill-opacity:1;" d="M 77.75 43.25 C 79.984375 43.8125 80.648438 45.148438 79.75 47.25 C 78.542969 47.789062 77.378906 48.371094 76.25 49 C 77.882812 49.558594 79.214844 50.476562 80.25 51.75 C 80.050781 54.007812 78.886719 54.757812 76.75 54 C 74.128906 53.15625 71.628906 52.074219 69.25 50.75 C 68.46875 49.191406 68.636719 47.777344 69.75 46.5 C 72.445312 45.355469 75.113281 44.269531 77.75 43.25 Z M 77.75 43.25 "/>
<path style=" stroke:none;fill-rule:evenodd;fill:rgb(76.078431%,11.372549%,18.823529%);fill-opacity:1;" d="M 6.75 39.25 C 5.707031 41.113281 4.707031 43.03125 3.75 45 C 3.832031 45.417969 3.917969 45.832031 4 46.25 C 6.980469 47.875 6.730469 48.875 3.25 49.25 C 5.949219 48.335938 5.867188 47.503906 3 46.75 C 2.910156 43.59375 4.160156 41.09375 6.75 39.25 Z M 6.75 39.25 "/>
<path style=" stroke:none;fill-rule:evenodd;fill:rgb(15.686275%,18.823529%,21.960784%);fill-opacity:1;" d="M 93.25 46.75 C 95.550781 46.851562 96.464844 48.019531 96 50.25 C 94.757812 51.640625 93.175781 52.304688 91.25 52.25 C 90.636719 51.925781 90.304688 51.339844 90.25 50.5 C 90.457031 49.25 90.625 48 90.75 46.75 C 91.582031 46.75 92.417969 46.75 93.25 46.75 Z M 93.25 46.75 "/>
<path style=" stroke:none;fill-rule:evenodd;fill:rgb(26.666667%,26.27451%,23.921569%);fill-opacity:1;" d="M 42.75 56.75 C 42.972656 59.972656 44.222656 60.804688 46.5 59.25 C 47.003906 60.128906 47.753906 60.714844 48.75 61 C 47.535156 61.542969 47.699219 61.792969 49.25 61.75 C 48.4375 63.128906 48.605469 64.378906 49.75 65.5 C 49.03125 65.609375 48.363281 65.859375 47.75 66.25 C 47.8125 66.554688 47.976562 66.71875 48.25 66.75 C 46.675781 69.433594 47.507812 70.351562 50.75 69.5 C 51.167969 68.996094 51.335938 68.410156 51.25 67.75 C 52.320312 69.191406 52.320312 70.605469 51.25 72 C 49.320312 72.089844 47.488281 72.339844 45.75 72.75 C 42.507812 72.128906 39.675781 70.714844 37.25 68.5 C 34.863281 65.972656 32.78125 63.222656 31 60.25 C 32.164062 66.40625 35.246094 71.40625 40.25 75.25 C 39.605469 75.75 38.9375 75.667969 38.25 75 C 35.355469 72.367188 33.1875 69.285156 31.75 65.75 C 29.003906 60.984375 28.003906 55.816406 28.75 50.25 C 30.730469 49.78125 32.730469 49.695312 34.75 50 C 36.742188 53.078125 39.410156 55.328125 42.75 56.75 Z M 42.75 56.75 "/>
<path style=" stroke:none;fill-rule:evenodd;fill:rgb(82.352941%,80%,75.294118%);fill-opacity:1;" d="M 84.25 40.25 C 84.855469 45.777344 84.855469 51.277344 84.25 56.75 C 83.582031 56.75 82.917969 56.75 82.25 56.75 C 82.8125 51.246094 82.8125 45.746094 82.25 40.25 C 82.917969 40.25 83.582031 40.25 84.25 40.25 Z M 84.25 40.25 "/>
<path style=" stroke:none;fill-rule:evenodd;fill:rgb(16.470588%,16.862745%,17.254902%);fill-opacity:1;" d="M 31.25 40.25 C 31.9375 40.171875 32.601562 40.253906 33.25 40.5 C 34.375 41.457031 35.625 42.207031 37 42.75 C 40.230469 42.195312 43.480469 42.113281 46.75 42.5 C 48.226562 42.695312 49.3125 43.445312 50 44.75 C 50.753906 47.371094 50.917969 50.039062 50.5 52.75 C 49.316406 56.800781 46.734375 58.132812 42.75 56.75 C 39.410156 55.328125 36.742188 53.078125 34.75 50 C 32.730469 49.695312 30.730469 49.78125 28.75 50.25 C 28.964844 47.550781 29.628906 44.96875 30.75 42.5 C 30.167969 41.636719 30.335938 40.886719 31.25 40.25 Z M 31.25 40.25 "/>
<path style=" stroke:none;fill-rule:evenodd;fill:rgb(27.843137%,28.235294%,25.098039%);fill-opacity:1;" d="M 44.25 43.75 C 47.71875 43.890625 49.21875 45.726562 48.75 49.25 C 48.402344 55.195312 45.734375 56.613281 40.75 53.5 C 39.085938 52.257812 37.917969 50.675781 37.25 48.75 C 37.285156 48.113281 37.453125 47.53125 37.75 47 C 39.699219 45.382812 41.867188 44.300781 44.25 43.75 Z M 44.25 43.75 "/>
<path style=" stroke:none;fill-rule:evenodd;fill:rgb(6.27451%,6.27451%,7.45098%);fill-opacity:1;" d="M 87.75 29.25 C 87.75 29.75 87.75 30.25 87.75 30.75 C 88.75 30.75 89.75 30.75 90.75 30.75 C 90.367188 31.132812 89.867188 31.382812 89.25 31.5 C 89.867188 32.203125 90.53125 32.785156 91.25 33.25 C 90.675781 33.394531 90.34375 33.8125 90.25 34.5 C 90.296875 36.394531 91.132812 36.976562 92.75 36.25 C 92.960938 36.609375 93.292969 36.859375 93.75 37 C 92.5 37.066406 91.5 37.566406 90.75 38.5 C 92.292969 38.992188 93.710938 39.742188 95 40.75 C 95.332031 41.417969 95.332031 42.082031 95 42.75 C 93.765625 43.71875 92.347656 44.300781 90.75 44.5 C 90.332031 45.003906 90.164062 45.589844 90.25 46.25 C 91.367188 46.101562 92.367188 46.269531 93.25 46.75 C 92.417969 46.75 91.582031 46.75 90.75 46.75 C 90.625 48 90.457031 49.25 90.25 50.5 C 90.304688 51.339844 90.636719 51.925781 91.25 52.25 C 91.113281 53.214844 90.613281 53.882812 89.75 54.25 C 91.09375 54.082031 92.261719 54.414062 93.25 55.25 C 92.34375 56.230469 91.84375 57.398438 91.75 58.75 C 93.597656 58.839844 94.597656 58.003906 94.75 56.25 C 95.335938 57.140625 96.167969 57.640625 97.25 57.75 C 97.046875 56.140625 97.046875 54.640625 97.25 53.25 C 98.210938 56.007812 97.792969 58.507812 96 60.75 C 95.355469 63.839844 94.605469 66.839844 93.75 69.75 C 90.960938 72.261719 87.710938 72.929688 84 71.75 C 83.203125 72.179688 82.785156 72.84375 82.75 73.75 C 82.261719 73.507812 81.761719 73.257812 81.25 73 C 81.925781 72.183594 81.839844 71.433594 81 70.75 C 80.792969 72.117188 80.460938 73.449219 80 74.75 C 78.679688 77.070312 76.761719 78.65625 74.25 79.5 C 69.4375 80.328125 64.601562 80.414062 59.75 79.75 C 63.917969 79.417969 68.082031 79.082031 72.25 78.75 C 76.140625 78.195312 78.640625 76.027344 79.75 72.25 C 80.074219 71.777344 80.242188 71.191406 80.25 70.5 C 79.351562 67.472656 79.101562 64.390625 79.5 61.25 C 80.085938 63.195312 81.335938 63.859375 83.25 63.25 C 84.03125 61.15625 84.367188 58.988281 84.25 56.75 C 84.855469 51.277344 84.855469 45.777344 84.25 40.25 C 84.390625 37.835938 84.054688 35.503906 83.25 33.25 C 83.523438 33.21875 83.6875 33.054688 83.75 32.75 C 83.167969 32.207031 82.5 31.792969 81.75 31.5 C 83.183594 31.410156 84.515625 31.160156 85.75 30.75 C 86.25 30.75 86.75 30.75 87.25 30.75 C 87.132812 30.105469 87.296875 29.605469 87.75 29.25 Z M 87.75 29.25 "/>
<path style=" stroke:none;fill-rule:evenodd;fill:rgb(41.176471%,43.921569%,44.313725%);fill-opacity:1;" d="M 93.25 55.25 C 94.011719 55.214844 94.511719 55.546875 94.75 56.25 C 94.597656 58.003906 93.597656 58.839844 91.75 58.75 C 91.84375 57.398438 92.34375 56.230469 93.25 55.25 Z M 93.25 55.25 "/>
<path style=" stroke:none;fill-rule:evenodd;fill:rgb(43.137255%,38.431373%,34.901961%);fill-opacity:1;" d="M 89.75 54.25 C 89.75 55.75 89.75 57.25 89.75 58.75 C 88.75 58.75 87.75 58.75 86.75 58.75 C 86.75 57.25 86.75 55.75 86.75 54.25 C 87.75 54.25 88.75 54.25 89.75 54.25 Z M 89.75 54.25 "/>
<path style=" stroke:none;fill-rule:evenodd;fill:rgb(38.823529%,37.647059%,35.294118%);fill-opacity:1;" d="M 87.25 46.75 C 88.082031 46.75 88.917969 46.75 89.75 46.75 C 89.75 48.582031 89.75 50.417969 89.75 52.25 C 88.640625 52.410156 87.722656 52.078125 87 51.25 C 86.632812 49.703125 86.714844 48.203125 87.25 46.75 Z M 87.25 46.75 "/>
<path style=" stroke:none;fill-rule:evenodd;fill:rgb(40%,38.823529%,39.215686%);fill-opacity:1;" d="M 86.25 39.75 C 87.417969 39.75 88.582031 39.75 89.75 39.75 C 89.75 41.25 89.75 42.75 89.75 44.25 C 88.75 44.25 87.75 44.25 86.75 44.25 C 86.648438 42.742188 86.480469 41.242188 86.25 39.75 Z M 86.25 39.75 "/>
<path style=" stroke:none;fill-rule:evenodd;fill:rgb(43.529412%,38.431373%,36.862745%);fill-opacity:1;" d="M 85.75 32.75 C 86.582031 32.75 87.417969 32.75 88.25 32.75 C 88.289062 34.101562 88.453125 35.4375 88.75 36.75 C 87.75 36.75 86.75 36.75 85.75 36.75 C 85.75 35.417969 85.75 34.082031 85.75 32.75 Z M 85.75 32.75 "/>
<path style=" stroke:none;fill-rule:evenodd;fill:rgb(0.784314%,0.784314%,5.490196%);fill-opacity:1;" d="M 68.75 59.25 C 70.75 60.25 72.25 61.75 73.25 63.75 C 75.992188 70.785156 73.660156 74.871094 66.25 76 C 57.027344 77.941406 53.277344 74.359375 55 65.25 C 57.773438 59.070312 62.355469 57.070312 68.75 59.25 Z M 68.75 59.25 "/>
<path style=" stroke:none;fill-rule:evenodd;fill:rgb(53.72549%,6.27451%,12.156863%);fill-opacity:1;" d="M 7.75 58.75 C 7.917969 58.75 8.082031 58.75 8.25 58.75 C 7.578125 59.558594 6.664062 60.058594 5.5 60.25 C 5.253906 61.066406 5.167969 61.902344 5.25 62.75 C 4.765625 61.695312 4.597656 60.53125 4.75 59.25 C 5.867188 59.398438 6.867188 59.230469 7.75 58.75 Z M 7.75 58.75 "/>
<path style=" stroke:none;fill-rule:evenodd;fill:rgb(78.039216%,78.823529%,72.941176%);fill-opacity:1;" d="M 73.25 63.75 C 72.25 61.75 70.75 60.25 68.75 59.25 C 68.734375 58.75 68.984375 58.417969 69.5 58.25 C 71.492188 58.910156 72.828125 60.242188 73.5 62.25 C 73.871094 62.875 73.785156 63.375 73.25 63.75 Z M 73.25 63.75 "/>
<path style=" stroke:none;fill-rule:evenodd;fill:rgb(65.490196%,66.666667%,66.27451%);fill-opacity:1;" d="M 90.75 61.75 C 91.25 61.75 91.75 61.75 92.25 61.75 C 92.25 62.582031 92.25 63.417969 92.25 64.25 C 91.582031 64.25 90.917969 64.25 90.25 64.25 C 90.183594 63.355469 90.347656 62.519531 90.75 61.75 Z M 90.75 61.75 "/>
<path style=" stroke:none;fill-rule:evenodd;fill:rgb(43.137255%,38.039216%,34.509804%);fill-opacity:1;" d="M 86.25 60.75 C 86.917969 60.75 87.582031 60.75 88.25 60.75 C 88.332031 61.929688 88.25 63.09375 88 64.25 C 87.152344 64.703125 86.234375 64.871094 85.25 64.75 C 85.054688 63.242188 85.386719 61.910156 86.25 60.75 Z M 86.25 60.75 "/>
<path style=" stroke:none;fill-rule:evenodd;fill:rgb(89.803922%,85.882353%,72.941176%);fill-opacity:1;" d="M 33.75 59.25 C 36.742188 61.738281 39.742188 64.238281 42.75 66.75 C 43.472656 67.902344 43.140625 68.570312 41.75 68.75 C 37.238281 67.078125 34.570312 63.910156 33.75 59.25 Z M 33.75 59.25 "/>
<path style=" stroke:none;fill-rule:evenodd;fill:rgb(29.411765%,32.54902%,32.941176%);fill-opacity:1;" d="M 86.75 66.75 C 86.25 67.503906 85.914062 68.339844 85.75 69.25 C 86.75 69.25 87.75 69.25 88.75 69.25 C 86.972656 69.824219 85.140625 69.742188 83.25 69 C 82.808594 68.320312 82.644531 67.570312 82.75 66.75 C 84.082031 66.75 85.417969 66.75 86.75 66.75 Z M 86.75 66.75 "/>
<path style=" stroke:none;fill-rule:evenodd;fill:rgb(77.254902%,72.941176%,67.45098%);fill-opacity:1;" d="M 86.75 66.75 C 87.894531 66.621094 88.980469 66.789062 90 67.25 C 90.453125 68.472656 90.039062 69.140625 88.75 69.25 C 87.75 69.25 86.75 69.25 85.75 69.25 C 85.914062 68.339844 86.25 67.503906 86.75 66.75 Z M 86.75 66.75 "/>
<path style=" stroke:none;fill-rule:evenodd;fill:rgb(85.490196%,83.137255%,75.686275%);fill-opacity:1;" d="M 48.25 66.75 C 49.449219 66.628906 50.449219 66.964844 51.25 67.75 C 51.335938 68.410156 51.167969 68.996094 50.75 69.5 C 47.507812 70.351562 46.675781 69.433594 48.25 66.75 Z M 48.25 66.75 "/>
<path style=" stroke:none;fill-rule:evenodd;fill:rgb(80.784314%,0%,13.72549%);fill-opacity:1;" d="M 22.25 62.75 C 23.757812 64.429688 24.757812 66.429688 25.25 68.75 C 25.582031 68.917969 25.917969 69.082031 26.25 69.25 C 26.832031 71.421875 27.417969 73.589844 28 75.75 C 28.6875 76.351562 29.269531 77.019531 29.75 77.75 C 26.222656 75.390625 23.390625 72.390625 21.25 68.75 C 21.472656 67.238281 21.890625 67.070312 22.5 68.25 C 23.335938 66.40625 23.253906 64.570312 22.25 62.75 Z M 22.25 62.75 "/>
<path style=" stroke:none;fill-rule:evenodd;fill:rgb(89.803922%,85.490196%,77.254902%);fill-opacity:1;" d="M 45.75 72.75 C 48.089844 72.667969 50.421875 72.75 52.75 73 C 53.808594 74.203125 54.808594 75.453125 55.75 76.75 C 50.8125 78.230469 45.980469 77.898438 41.25 75.75 C 40.917969 75.582031 40.582031 75.417969 40.25 75.25 C 35.246094 71.40625 32.164062 66.40625 31 60.25 C 32.78125 63.222656 34.863281 65.972656 37.25 68.5 C 39.675781 70.714844 42.507812 72.128906 45.75 72.75 Z M 45.75 72.75 "/>
<path style=" stroke:none;fill-rule:evenodd;fill:rgb(16.862745%,19.607843%,25.098039%);fill-opacity:1;" d="M 31.75 65.75 C 33.1875 69.285156 35.355469 72.367188 38.25 75 C 38.9375 75.667969 39.605469 75.75 40.25 75.25 C 40.582031 75.417969 40.917969 75.582031 41.25 75.75 C 41.5625 76.667969 42.226562 77.25 43.25 77.5 C 45.171875 78.292969 47.171875 78.792969 49.25 79 C 48.472656 79.105469 47.804688 79.355469 47.25 79.75 C 39.78125 78.277344 34.113281 74.277344 30.25 67.75 C 30.25 67.082031 30.25 66.417969 30.25 65.75 C 30.75 65.75 31.25 65.75 31.75 65.75 Z M 31.75 65.75 "/>
<path style=" stroke:none;fill-rule:evenodd;fill:rgb(95.686275%,76.862745%,66.27451%);fill-opacity:1;" d="M 15.25 73.25 C 16.144531 74.214844 16.644531 75.378906 16.75 76.75 C 15.417969 76.75 14.082031 76.75 12.75 76.75 C 11.84375 75.769531 11.34375 74.601562 11.25 73.25 C 12.582031 73.25 13.917969 73.25 15.25 73.25 Z M 15.25 73.25 "/>
<path style=" stroke:none;fill-rule:evenodd;fill:rgb(87.843137%,84.705882%,79.607843%);fill-opacity:1;" d="M 79.75 72.25 C 78.640625 76.027344 76.140625 78.195312 72.25 78.75 C 69.792969 78.820312 67.460938 78.484375 65.25 77.75 C 71.722656 78.308594 76.472656 75.808594 79.5 70.25 C 79.746094 70.898438 79.828125 71.5625 79.75 72.25 Z M 79.75 72.25 "/>
<path style=" stroke:none;fill-rule:evenodd;fill:rgb(74.509804%,73.72549%,70.980392%);fill-opacity:1;" d="M 65.25 77.75 C 67.460938 78.484375 69.792969 78.820312 72.25 78.75 C 68.082031 79.082031 63.917969 79.417969 59.75 79.75 C 57.25 79.75 54.75 79.75 52.25 79.75 C 56.414062 78.386719 60.746094 77.71875 65.25 77.75 Z M 65.25 77.75 "/>
<path style=" stroke:none;fill-rule:evenodd;fill:rgb(98.431373%,9.019608%,18.431373%);fill-opacity:1;" d="M 15.75 52.75 C 16.058594 52.804688 16.308594 52.972656 16.5 53.25 C 16.917969 57.671875 17.75 62.003906 19 66.25 C 19.496094 67.328125 20.246094 68.164062 21.25 68.75 C 23.390625 72.390625 26.222656 75.390625 29.75 77.75 C 31.480469 79.367188 33.480469 80.617188 35.75 81.5 C 35.871094 82.535156 35.703125 83.621094 35.25 84.75 C 36.742188 84.550781 38.074219 84.886719 39.25 85.75 C 38.917969 86.25 38.582031 86.75 38.25 87.25 C 40.0625 87.664062 41.894531 87.914062 43.75 88 C 44.289062 88.476562 44.871094 88.894531 45.5 89.25 C 45.515625 90.089844 45.601562 90.839844 45.75 91.5 C 47.75 92 49.75 92.5 51.75 93 C 49.375 94.0625 46.875 94.480469 44.25 94.25 C 44.367188 93.605469 44.203125 93.105469 43.75 92.75 C 40.683594 92.617188 37.515625 92.617188 34.25 92.75 C 33.753906 92.835938 33.421875 92.667969 33.25 92.25 C 33.25 91.25 33.25 90.25 33.25 89.25 C 31.082031 89.25 28.917969 89.25 26.75 89.25 C 24.554688 88.777344 22.804688 87.609375 21.5 85.75 C 21.128906 85.125 21.214844 84.625 21.75 84.25 C 21.789062 84.875 22.121094 85.292969 22.75 85.5 C 25.332031 85.953125 27.832031 85.703125 30.25 84.75 C 30.011719 84.261719 29.679688 83.84375 29.25 83.5 C 27.589844 83.25 25.925781 83.167969 24.25 83.25 C 24.023438 82.769531 23.691406 82.355469 23.25 82 C 21.023438 81.789062 18.855469 81.375 16.75 80.75 C 14.890625 79.890625 13.558594 78.558594 12.75 76.75 C 14.082031 76.75 15.417969 76.75 16.75 76.75 C 16.644531 75.378906 16.144531 74.214844 15.25 73.25 C 15.023438 72.769531 14.691406 72.355469 14.25 72 C 9.136719 70.96875 6.136719 67.886719 5.25 62.75 C 5.167969 61.902344 5.253906 61.066406 5.5 60.25 C 6.664062 60.058594 7.578125 59.558594 8.25 58.75 C 7.699219 58.300781 7.699219 57.886719 8.25 57.5 C 5.953125 56.503906 4.953125 54.921875 5.25 52.75 C 6.875 54.132812 8.539062 55.382812 10.25 56.5 C 11.351562 57.34375 12.101562 58.425781 12.5 59.75 C 12.742188 59.277344 12.824219 58.777344 12.75 58.25 C 13.675781 58.363281 14.09375 58.03125 14 57.25 C 13.261719 57.433594 12.511719 57.183594 11.75 56.5 C 11.917969 56.332031 12.082031 56.167969 12.25 56 C 10.804688 55.441406 9.972656 54.605469 9.75 53.5 C 10.222656 53.191406 10.640625 53.273438 11 53.75 C 12.382812 52.425781 13.964844 52.089844 15.75 52.75 Z M 15.75 52.75 "/>
<path style=" stroke:none;fill-rule:evenodd;fill:rgb(98.823529%,89.411765%,79.215686%);fill-opacity:1;" d="M 14.25 62.25 C 16.359375 66.300781 18.609375 70.300781 21 74.25 C 22.671875 76.503906 24.585938 78.503906 26.75 80.25 C 25.550781 80.863281 24.382812 80.777344 23.25 80 C 18.613281 75.308594 15.613281 69.726562 14.25 63.25 C 14.25 62.917969 14.25 62.582031 14.25 62.25 Z M 14.25 62.25 "/>
<path style=" stroke:none;fill-rule:evenodd;fill:rgb(99.215686%,54.901961%,47.058824%);fill-opacity:1;" d="M 14.25 62.25 C 14.25 62.582031 14.25 62.917969 14.25 63.25 C 13.460938 61.886719 13.210938 60.386719 13.5 58.75 C 14.101562 59.839844 14.351562 61.003906 14.25 62.25 Z M 14.25 62.25 "/>
<path style=" stroke:none;fill-rule:evenodd;fill:rgb(63.921569%,12.54902%,16.470588%);fill-opacity:1;" d="M 16.75 80.75 C 18.855469 81.375 21.023438 81.789062 23.25 82 C 23.691406 82.355469 24.023438 82.769531 24.25 83.25 C 23.917969 83.417969 23.582031 83.582031 23.25 83.75 C 23.292969 83.253906 23.125 82.835938 22.75 82.5 C 20.523438 82.488281 18.523438 81.902344 16.75 80.75 Z M 16.75 80.75 "/>
<path style=" stroke:none;fill-rule:evenodd;fill:rgb(22.745098%,23.137255%,22.352941%);fill-opacity:1;" d="M 59.75 82.25 C 62.75 82.25 65.75 82.25 68.75 82.25 C 68.75 83.25 68.75 84.25 68.75 85.25 C 68.488281 86.109375 67.988281 86.777344 67.25 87.25 C 63.28125 87.6875 60.78125 86.023438 59.75 82.25 Z M 59.75 82.25 "/>
<path style=" stroke:none;fill-rule:evenodd;fill:rgb(98.823529%,78.431373%,69.803922%);fill-opacity:1;" d="M 24.25 83.25 C 25.925781 83.167969 27.589844 83.25 29.25 83.5 C 29.679688 83.84375 30.011719 84.261719 30.25 84.75 C 27.832031 85.703125 25.332031 85.953125 22.75 85.5 C 22.121094 85.292969 21.789062 84.875 21.75 84.25 C 22.195312 83.945312 22.695312 83.777344 23.25 83.75 C 23.582031 83.582031 23.917969 83.417969 24.25 83.25 Z M 24.25 83.25 "/>
<path style=" stroke:none;fill-rule:evenodd;fill:rgb(91.372549%,83.137255%,70.196078%);fill-opacity:1;" d="M 59.75 82.25 C 60.78125 86.023438 63.28125 87.6875 67.25 87.25 C 67.214844 88.207031 66.714844 88.789062 65.75 89 C 64.761719 89.246094 63.761719 89.332031 62.75 89.25 C 59.15625 88.320312 57.15625 85.988281 56.75 82.25 C 57.75 82.25 58.75 82.25 59.75 82.25 Z M 59.75 82.25 "/>
<path style=" stroke:none;fill-rule:evenodd;fill:rgb(15.686275%,16.078431%,21.176471%);fill-opacity:1;" d="M 62.75 89.25 C 63.761719 89.332031 64.761719 89.246094 65.75 89 C 66.714844 88.789062 67.214844 88.207031 67.25 87.25 C 67.988281 86.777344 68.488281 86.109375 68.75 85.25 C 70.113281 84.644531 71.28125 83.726562 72.25 82.5 C 72.722656 82.257812 73.222656 82.175781 73.75 82.25 C 72.960938 86.625 70.375 89.289062 66 90.25 C 64.800781 90.097656 63.71875 89.765625 62.75 89.25 Z M 62.75 89.25 "/>
<path style=" stroke:none;fill-rule:evenodd;fill:rgb(41.176471%,3.137255%,8.627451%);fill-opacity:1;" d="M 49.75 84.25 C 50.972656 83.761719 52.308594 83.597656 53.75 83.75 C 53.625 84.929688 53.960938 85.929688 54.75 86.75 C 53.742188 87.007812 52.742188 87.089844 51.75 87 C 52.429688 86.207031 52.765625 85.289062 52.75 84.25 C 51.75 84.25 50.75 84.25 49.75 84.25 Z M 49.75 84.25 "/>
<use xlink:href="#surface35" mask="url(#mask10)"/>
<path style=" stroke:none;fill-rule:evenodd;fill:rgb(85.490196%,2.352941%,13.72549%);fill-opacity:1;" d="M 29.75 77.75 C 31.042969 78.035156 32.375 78.121094 33.75 78 C 35.28125 79.097656 36.945312 79.929688 38.75 80.5 C 38.417969 80.667969 38.082031 80.832031 37.75 81 C 38.808594 81.128906 39.640625 81.628906 40.25 82.5 C 41.40625 82.832031 42.574219 83.082031 43.75 83.25 C 43.375 84.292969 43.375 85.292969 43.75 86.25 C 46.058594 86.152344 48.390625 86.402344 50.75 87 C 51.378906 87.460938 52.046875 87.878906 52.75 88.25 C 52.039062 89.144531 51.371094 90.0625 50.75 91 C 53.257812 90.667969 55.757812 90.75 58.25 91.25 C 58.25 92.082031 58.25 92.917969 58.25 93.75 C 57.699219 94.300781 57.03125 94.632812 56.25 94.75 C 55.75 94.75 55.25 94.75 54.75 94.75 C 54.644531 93.929688 54.808594 93.179688 55.25 92.5 C 54.324219 92.113281 53.65625 92.363281 53.25 93.25 C 50.179688 95.011719 46.847656 95.675781 43.25 95.25 C 43.183594 94.355469 43.351562 93.519531 43.75 92.75 C 44.203125 93.105469 44.367188 93.605469 44.25 94.25 C 46.875 94.480469 49.375 94.0625 51.75 93 C 49.75 92.5 47.75 92 45.75 91.5 C 45.601562 90.839844 45.515625 90.089844 45.5 89.25 C 44.871094 88.894531 44.289062 88.476562 43.75 88 C 41.894531 87.914062 40.0625 87.664062 38.25 87.25 C 38.582031 86.75 38.917969 86.25 39.25 85.75 C 38.074219 84.886719 36.742188 84.550781 35.25 84.75 C 35.703125 83.621094 35.871094 82.535156 35.75 81.5 C 33.480469 80.617188 31.480469 79.367188 29.75 77.75 Z M 29.75 77.75 "/>
<path style=" stroke:none;fill-rule:evenodd;fill:rgb(59.607843%,10.980392%,14.117647%);fill-opacity:1;" d="M 26.75 89.25 C 28.917969 89.25 31.082031 89.25 33.25 89.25 C 33.25 90.25 33.25 91.25 33.25 92.25 C 32.09375 91.910156 31.925781 91.242188 32.75 90.25 C 30.675781 89.917969 28.675781 89.582031 26.75 89.25 Z M 26.75 89.25 "/>
<path style=" stroke:none;fill-rule:evenodd;fill:rgb(72.54902%,18.431373%,21.568627%);fill-opacity:1;" d="M 43.75 92.75 C 40.507812 93.339844 37.339844 93.339844 34.25 92.75 C 37.515625 92.617188 40.683594 92.617188 43.75 92.75 Z M 43.75 92.75 "/>
<path style=" stroke:none;fill-rule:evenodd;fill:rgb(34.901961%,10.588235%,10.588235%);fill-opacity:1;" d="M 56.25 94.75 C 55.714844 95.21875 55.050781 95.382812 54.25 95.25 C 54.421875 94.257812 54.089844 93.589844 53.25 93.25 C 53.65625 92.363281 54.324219 92.113281 55.25 92.5 C 54.808594 93.179688 54.644531 93.929688 54.75 94.75 C 55.25 94.75 55.75 94.75 56.25 94.75 Z M 56.25 94.75 "/>
<use xlink:href="#surface38" mask="url(#mask11)"/>
</g>
</svg>
