<?xml version="1.0" encoding="UTF-8"?>
<svg xmlns="http://www.w3.org/2000/svg" xmlns:xlink="http://www.w3.org/1999/xlink" width="px" height="px" viewBox="0 0 101 99" version="1.1">
<defs>
<filter id="alpha" filterUnits="objectBoundingBox" x="0%" y="0%" width="100%" height="100%">
  <feColorMatrix type="matrix" in="SourceGraphic" values="0 0 0 0 1 0 0 0 0 1 0 0 0 0 1 0 0 0 1 0"/>
</filter>
<mask id="mask0">
  <g filter="url(#alpha)">
<rect x="0" y="0" width="101" height="99" style="fill:rgb(0%,0%,0%);fill-opacity:0.992157;stroke:none;"/>
  </g>
</mask>
<clipPath id="clip1">
  <rect x="0" y="0" width="101" height="99"/>
</clipPath>
<g id="surface5" clip-path="url(#clip1)">
<path style=" stroke:none;fill-rule:evenodd;fill:rgb(3.137255%,3.137255%,3.921569%);fill-opacity:1;" d="M 73.25 91.75 C 71.519531 92.242188 69.683594 92.40625 67.75 92.25 C 66.078125 91.996094 64.414062 91.914062 62.75 92 C 61.601562 93.648438 60.269531 95.148438 58.75 96.5 C 57.535156 96.851562 56.367188 96.769531 55.25 96.25 C 54.476562 96.089844 54.140625 95.589844 54.25 94.75 C 53.324219 93.566406 52.660156 92.234375 52.25 90.75 C 50.574219 92.59375 48.90625 94.425781 47.25 96.25 C 46.78125 96.988281 46.113281 97.488281 45.25 97.75 C 44.582031 97.75 44.25 97.417969 44.25 96.75 C 44.75 96.082031 45.25 95.417969 45.75 94.75 C 47.582031 93.332031 49.164062 91.667969 50.5 89.75 C 51.046875 88.960938 51.464844 88.128906 51.75 87.25 C 52.414062 85.96875 52.25 84.71875 51.25 83.5 C 49.535156 83.234375 47.867188 82.816406 46.25 82.25 C 45.917969 82.25 45.582031 82.25 45.25 82.25 C 43.394531 81.574219 41.5625 80.742188 39.75 79.75 C 38.511719 78.339844 37.011719 77.339844 35.25 76.75 C 35.226562 74.621094 34.5625 72.703125 33.25 71 C 31.117188 71.289062 28.949219 71.539062 26.75 71.75 C 26.25 71.582031 25.917969 71.25 25.75 70.75 C 26.195312 70.445312 26.695312 70.277344 27.25 70.25 C 32.941406 68.8125 34.191406 65.648438 31 60.75 C 29.132812 59.292969 27.382812 57.792969 25.75 56.25 C 26.953125 56.277344 28.117188 56.109375 29.25 55.75 C 31.648438 55.265625 32.898438 53.765625 33 51.25 C 33.714844 48.09375 32.796875 45.507812 30.25 43.5 C 28.296875 42.121094 26.296875 40.871094 24.25 39.75 C 24.75 39.75 25.25 39.75 25.75 39.75 C 28.332031 39.960938 30.746094 39.460938 33 38.25 C 34.046875 36.097656 33.796875 34.097656 32.25 32.25 C 32.609375 32.042969 32.859375 31.707031 33 31.25 C 33.207031 31.480469 33.457031 31.644531 33.75 31.75 C 34.367188 31.175781 34.367188 30.589844 33.75 30 C 34.207031 29.859375 34.542969 29.609375 34.75 29.25 C 34.75 29.082031 34.75 28.917969 34.75 28.75 C 35.121094 26.78125 35.203125 24.78125 35 22.75 C 35.417969 23.503906 36 23.753906 36.75 23.5 C 38.878906 21.289062 41.042969 19.203125 43.25 17.25 C 44.195312 17.871094 45.195312 17.871094 46.25 17.25 C 46.75 17.25 47.25 17.25 47.75 17.25 C 49.628906 17.0625 51.128906 16.226562 52.25 14.75 C 53.945312 15.746094 55.777344 15.996094 57.75 15.5 C 58.132812 14.765625 58.464844 14.015625 58.75 13.25 C 59.046875 11.320312 59.882812 9.65625 61.25 8.25 C 60.90625 7.574219 60.40625 7.074219 59.75 6.75 C 59.101562 5.191406 58.101562 4.109375 56.75 3.5 C 54.125 5.835938 52.957031 8.75 53.25 12.25 C 52.941406 12.304688 52.691406 12.472656 52.5 12.75 C 52.359375 12.292969 52.109375 11.957031 51.75 11.75 C 51.8125 10.671875 51.5625 9.671875 51 8.75 C 49.164062 6.5 47.25 4.332031 45.25 2.25 C 45.582031 2.082031 45.917969 1.917969 46.25 1.75 C 48.238281 3.40625 50.074219 5.238281 51.75 7.25 C 53.230469 4.9375 55.0625 2.9375 57.25 1.25 C 59.574219 2.742188 61.574219 4.578125 63.25 6.75 C 73.023438 4.175781 78.773438 7.839844 80.5 17.75 C 84.109375 19.527344 86.441406 22.359375 87.5 26.25 C 89.675781 24.75 92.011719 24.414062 94.5 25.25 C 95.109375 27.527344 95.441406 29.859375 95.5 32.25 C 96.832031 32.917969 97.832031 33.917969 98.5 35.25 C 98.804688 42.203125 99.054688 49.203125 99.25 56.25 C 98.519531 59.03125 98.101562 61.863281 98 64.75 C 97.3125 65.605469 96.476562 66.273438 95.5 66.75 C 95.332031 68.75 95.167969 70.75 95 72.75 C 94.527344 73.976562 93.613281 74.476562 92.25 74.25 C 90.242188 74.21875 88.492188 73.554688 87 72.25 C 86.136719 76.613281 83.636719 79.613281 79.5 81.25 C 79.34375 85.96875 77.261719 89.46875 73.25 91.75 Z M 73.25 91.75 "/>
</g>
<mask id="mask1">
  <g filter="url(#alpha)">
<rect x="0" y="0" width="101" height="99" style="fill:rgb(0%,0%,0%);fill-opacity:0.988235;stroke:none;"/>
  </g>
</mask>
<clipPath id="clip2">
  <rect x="0" y="0" width="101" height="99"/>
</clipPath>
<g id="surface8" clip-path="url(#clip2)">
<path style=" stroke:none;fill-rule:evenodd;fill:rgb(5.098039%,5.882353%,5.882353%);fill-opacity:1;" d="M 42.75 0.25 C 44.316406 -0.046875 45.480469 0.453125 46.25 1.75 C 45.917969 1.917969 45.582031 2.082031 45.25 2.25 C 44.457031 1.792969 43.707031 1.792969 43 2.25 C 41.699219 4.238281 40.949219 6.402344 40.75 8.75 C 40.417969 9.25 40.082031 9.75 39.75 10.25 C 37.492188 8.746094 35.15625 7.332031 32.75 6 C 31.628906 5.511719 30.464844 5.261719 29.25 5.25 C 29.011719 9.15625 29.347656 12.988281 30.25 16.75 C 30.25 17.082031 30.25 17.417969 30.25 17.75 C 30.082031 17.75 29.917969 17.75 29.75 17.75 C 25.445312 14.011719 20.609375 13.261719 15.25 15.5 C 12.898438 16.621094 12.648438 18.203125 14.5 20.25 C 17.78125 23.679688 21.695312 26.015625 26.25 27.25 C 29.082031 27.664062 31.914062 28.332031 34.75 29.25 C 34.542969 29.609375 34.207031 29.859375 33.75 30 C 34.367188 30.589844 34.367188 31.175781 33.75 31.75 C 33.457031 31.644531 33.207031 31.480469 33 31.25 C 32.859375 31.707031 32.609375 32.042969 32.25 32.25 C 30.441406 30.339844 28.273438 28.925781 25.75 28 C 24.804688 27.609375 23.972656 27.695312 23.25 28.25 C 22.644531 28.617188 21.980469 28.785156 21.25 28.75 C 15.699219 27.136719 10.699219 28.21875 6.25 32 C 7.867188 35.285156 10.199219 37.949219 13.25 40 C 12.179688 40.285156 11.179688 40.703125 10.25 41.25 C 6.550781 43.035156 3.550781 45.617188 1.25 49 C 2.195312 50.949219 3.53125 52.617188 5.25 54 C 7.398438 55.820312 9.730469 57.238281 12.25 58.25 C 9.910156 60.011719 7.992188 62.175781 6.5 64.75 C 6.167969 65.25 6.167969 65.75 6.5 66.25 C 10.714844 69.628906 15.464844 70.796875 20.75 69.75 C 21.757812 69.71875 22.589844 70.050781 23.25 70.75 C 23.417969 71.082031 23.582031 71.417969 23.75 71.75 C 18.78125 73.3125 15.113281 76.398438 12.75 81 C 14.054688 82.492188 15.722656 83.492188 17.75 84 C 19.742188 84.25 21.742188 84.332031 23.75 84.25 C 24.246094 84.164062 24.578125 84.332031 24.75 84.75 C 20.742188 85.699219 16.910156 85.199219 13.25 83.25 C 12.957031 83.355469 12.707031 83.523438 12.5 83.75 C 10.546875 82.453125 10.296875 80.953125 11.75 79.25 C 13.65625 76.261719 16.15625 73.847656 19.25 72 C 16.746094 71.75 14.246094 71.5 11.75 71.25 C 9.316406 70.070312 7.066406 68.570312 5 66.75 C 4.667969 65.917969 4.667969 65.082031 5 64.25 C 5.796875 62.816406 6.714844 61.480469 7.75 60.25 C 8.238281 60.007812 8.738281 59.757812 9.25 59.5 C 5.792969 56.625 2.625 53.539062 -0.25 50.25 C -0.25 49.582031 -0.25 48.917969 -0.25 48.25 C 1.953125 46.632812 3.703125 44.632812 5 42.25 C 6.203125 41.191406 7.453125 40.191406 8.75 39.25 C 7.582031 38.582031 6.917969 37.582031 6.75 36.25 C 6.027344 34.890625 5.363281 33.472656 4.75 32 C 5.21875 31.027344 5.886719 30.195312 6.75 29.5 C 10.339844 27.523438 14.175781 26.359375 18.25 26 C 15.449219 24.199219 13.363281 21.78125 12 18.75 C 11.417969 17.015625 11.835938 15.679688 13.25 14.75 C 14.90625 13.464844 16.824219 12.632812 19 12.25 C 21.804688 12.496094 24.554688 12.996094 27.25 13.75 C 27.554688 13.6875 27.71875 13.523438 27.75 13.25 C 27.546875 10.191406 27.796875 7.191406 28.5 4.25 C 29.03125 3.953125 29.613281 3.785156 30.25 3.75 C 31.589844 4.085938 32.921875 4.421875 34.25 4.75 C 36.039062 4.957031 37.121094 5.957031 37.5 7.75 C 38.042969 8.148438 38.625 8.480469 39.25 8.75 C 39.601562 6.566406 40.019531 4.398438 40.5 2.25 C 41.1875 1.480469 41.9375 0.8125 42.75 0.25 Z M 42.75 0.25 "/>
</g>
<mask id="mask2">
  <g filter="url(#alpha)">
<rect x="0" y="0" width="101" height="99" style="fill:rgb(0%,0%,0%);fill-opacity:0.152941;stroke:none;"/>
  </g>
</mask>
<clipPath id="clip3">
  <rect x="0" y="0" width="101" height="99"/>
</clipPath>
<g id="surface11" clip-path="url(#clip3)">
<path style=" stroke:none;fill-rule:evenodd;fill:rgb(14.509804%,18.039216%,23.137255%);fill-opacity:1;" d="M 34.25 4.75 C 32.921875 4.421875 31.589844 4.085938 30.25 3.75 C 29.613281 3.785156 29.03125 3.953125 28.5 4.25 C 27.796875 7.191406 27.546875 10.191406 27.75 13.25 C 27.28125 10.882812 26.949219 8.550781 26.75 6.25 C 28.476562 2.121094 30.976562 1.621094 34.25 4.75 Z M 34.25 4.75 "/>
</g>
<mask id="mask3">
  <g filter="url(#alpha)">
<rect x="0" y="0" width="101" height="99" style="fill:rgb(0%,0%,0%);fill-opacity:0.184314;stroke:none;"/>
  </g>
</mask>
<clipPath id="clip4">
  <rect x="0" y="0" width="101" height="99"/>
</clipPath>
<g id="surface14" clip-path="url(#clip4)">
<path style=" stroke:none;fill-rule:evenodd;fill:rgb(14.509804%,18.431373%,23.921569%);fill-opacity:1;" d="M 13.25 14.75 C 11.835938 15.679688 11.417969 17.015625 12 18.75 C 13.363281 21.78125 15.449219 24.199219 18.25 26 C 14.175781 26.359375 10.339844 27.523438 6.75 29.5 C 5.886719 30.195312 5.21875 31.027344 4.75 32 C 5.363281 33.472656 6.027344 34.890625 6.75 36.25 C 3.773438 33.96875 3.605469 31.550781 6.25 29 C 9.199219 27.601562 12.199219 26.351562 15.25 25.25 C 13.160156 22.820312 11.660156 20.070312 10.75 17 C 10.894531 15.441406 11.730469 14.691406 13.25 14.75 Z M 13.25 14.75 "/>
</g>
<mask id="mask4">
  <g filter="url(#alpha)">
<rect x="0" y="0" width="101" height="99" style="fill:rgb(0%,0%,0%);fill-opacity:0.105882;stroke:none;"/>
  </g>
</mask>
<clipPath id="clip5">
  <rect x="0" y="0" width="101" height="99"/>
</clipPath>
<g id="surface17" clip-path="url(#clip5)">
<path style=" stroke:none;fill-rule:evenodd;fill:rgb(14.509804%,18.431373%,23.921569%);fill-opacity:1;" d="M 42.75 0.25 C 42.75 0.0820312 42.75 -0.0820312 42.75 -0.25 C 43.75 -0.25 44.75 -0.25 45.75 -0.25 C 47.414062 1.914062 49.414062 3.746094 51.75 5.25 C 53.449219 3.546875 55.285156 2.046875 57.25 0.75 C 59.851562 1.761719 61.9375 3.425781 63.5 5.75 C 73.332031 3.425781 79.496094 7.257812 82 17.25 C 84.636719 18.886719 86.554688 21.136719 87.75 24 C 89.257812 24 90.757812 23.75 92.25 23.25 C 93.828125 23.574219 95.078125 24.410156 96 25.75 C 96.496094 27.722656 96.828125 29.722656 97 31.75 C 99.417969 33.835938 100.417969 36.503906 100 39.75 C 100.140625 40.207031 100.390625 40.542969 100.75 40.75 C 100.75 42.082031 100.75 43.417969 100.75 44.75 C 100.082031 45.75 100.082031 46.75 100.75 47.75 C 100.75 48.25 100.75 48.75 100.75 49.25 C 100.351562 50.585938 100.015625 52.003906 99.75 53.5 C 100.167969 55.210938 100.335938 56.878906 100.25 58.5 C 99.785156 59.097656 99.453125 59.761719 99.25 60.5 C 100.144531 63.136719 99.394531 65.21875 97 66.75 C 96.816406 69.160156 96.316406 71.492188 95.5 73.75 C 94.746094 74.941406 93.664062 75.441406 92.25 75.25 C 90.699219 75.03125 89.199219 74.78125 87.75 74.5 C 86.175781 77.324219 84.007812 79.574219 81.25 81.25 C 80.453125 86.011719 78.039062 89.679688 74 92.25 C 73.808594 91.972656 73.558594 91.804688 73.25 91.75 C 77.261719 89.46875 79.34375 85.96875 79.5 81.25 C 83.636719 79.613281 86.136719 76.613281 87 72.25 C 88.492188 73.554688 90.242188 74.21875 92.25 74.25 C 93.613281 74.476562 94.527344 73.976562 95 72.75 C 95.167969 70.75 95.332031 68.75 95.5 66.75 C 96.476562 66.273438 97.3125 65.605469 98 64.75 C 98.101562 61.863281 98.519531 59.03125 99.25 56.25 C 99.054688 49.203125 98.804688 42.203125 98.5 35.25 C 97.832031 33.917969 96.832031 32.917969 95.5 32.25 C 95.441406 29.859375 95.109375 27.527344 94.5 25.25 C 92.011719 24.414062 89.675781 24.75 87.5 26.25 C 86.441406 22.359375 84.109375 19.527344 80.5 17.75 C 78.773438 7.839844 73.023438 4.175781 63.25 6.75 C 61.574219 4.578125 59.574219 2.742188 57.25 1.25 C 55.0625 2.9375 53.230469 4.9375 51.75 7.25 C 50.074219 5.238281 48.238281 3.40625 46.25 1.75 C 45.480469 0.453125 44.316406 -0.046875 42.75 0.25 Z M 42.75 0.25 "/>
</g>
<mask id="mask5">
  <g filter="url(#alpha)">
<rect x="0" y="0" width="101" height="99" style="fill:rgb(0%,0%,0%);fill-opacity:0.0156863;stroke:none;"/>
  </g>
</mask>
<clipPath id="clip6">
  <rect x="0" y="0" width="101" height="99"/>
</clipPath>
<g id="surface20" clip-path="url(#clip6)">
<path style=" stroke:none;fill-rule:evenodd;fill:rgb(13.333333%,18.431373%,23.137255%);fill-opacity:1;" d="M 7.75 60.25 C 6.714844 61.480469 5.796875 62.816406 5 64.25 C 4.667969 65.082031 4.667969 65.917969 5 66.75 C 7.066406 68.570312 9.316406 70.070312 11.75 71.25 C 8.800781 70.886719 6.386719 69.554688 4.5 67.25 C 3.851562 64.046875 4.9375 61.714844 7.75 60.25 Z M 7.75 60.25 "/>
</g>
<mask id="mask6">
  <g filter="url(#alpha)">
<rect x="0" y="0" width="101" height="99" style="fill:rgb(0%,0%,0%);fill-opacity:0.227451;stroke:none;"/>
  </g>
</mask>
<clipPath id="clip7">
  <rect x="0" y="0" width="101" height="99"/>
</clipPath>
<g id="surface23" clip-path="url(#clip7)">
<path style=" stroke:none;fill-rule:evenodd;fill:rgb(12.156863%,16.470588%,21.176471%);fill-opacity:1;" d="M 11.75 71.25 C 14.246094 71.5 16.746094 71.75 19.25 72 C 16.15625 73.847656 13.65625 76.261719 11.75 79.25 C 12.527344 76.710938 14.027344 74.628906 16.25 73 C 14.746094 72.335938 13.246094 71.753906 11.75 71.25 Z M 11.75 71.25 "/>
</g>
<mask id="mask7">
  <g filter="url(#alpha)">
<rect x="0" y="0" width="101" height="99" style="fill:rgb(0%,0%,0%);fill-opacity:0.752941;stroke:none;"/>
  </g>
</mask>
<clipPath id="clip8">
  <rect x="0" y="0" width="101" height="99"/>
</clipPath>
<g id="surface26" clip-path="url(#clip8)">
<path style=" stroke:none;fill-rule:evenodd;fill:rgb(8.235294%,9.803922%,10.588235%);fill-opacity:1;" d="M 29.75 80.75 C 30.082031 80.75 30.25 80.917969 30.25 81.25 C 29.855469 81.804688 29.605469 82.472656 29.5 83.25 C 29.25 86.578125 29.167969 89.914062 29.25 93.25 C 33.285156 92.105469 36.867188 90.105469 40 87.25 C 40.15625 89.886719 40.824219 92.386719 42 94.75 C 42.4375 95.816406 43.1875 96.484375 44.25 96.75 C 44.25 97.417969 44.582031 97.75 45.25 97.75 C 45.082031 98.082031 44.917969 98.417969 44.75 98.75 C 43.917969 98.75 43.082031 98.75 42.25 98.75 C 40.742188 96.402344 39.492188 93.902344 38.5 91.25 C 35.527344 93.40625 32.277344 94.65625 28.75 95 C 27.613281 93.527344 26.949219 91.859375 26.75 90 C 27.097656 88.84375 27.097656 87.59375 26.75 86.25 C 27.179688 85.246094 27.429688 84.246094 27.5 83.25 C 26.609375 83.820312 25.691406 84.320312 24.75 84.75 C 24.578125 84.332031 24.246094 84.164062 23.75 84.25 C 25.878906 83.351562 27.878906 82.183594 29.75 80.75 Z M 29.75 80.75 "/>
</g>
<mask id="mask8">
  <g filter="url(#alpha)">
<rect x="0" y="0" width="101" height="99" style="fill:rgb(0%,0%,0%);fill-opacity:0.0941176;stroke:none;"/>
  </g>
</mask>
<clipPath id="clip9">
  <rect x="0" y="0" width="101" height="99"/>
</clipPath>
<g id="surface29" clip-path="url(#clip9)">
<path style=" stroke:none;fill-rule:evenodd;fill:rgb(14.901961%,21.960784%,27.45098%);fill-opacity:1;" d="M 54.25 94.75 C 53.125 94.542969 52.375 93.875 52 92.75 C 50.46875 94.039062 48.886719 95.203125 47.25 96.25 C 48.90625 94.425781 50.574219 92.59375 52.25 90.75 C 52.660156 92.234375 53.324219 93.566406 54.25 94.75 Z M 54.25 94.75 "/>
</g>
<mask id="mask9">
  <g filter="url(#alpha)">
<rect x="0" y="0" width="101" height="99" style="fill:rgb(0%,0%,0%);fill-opacity:0.0156863;stroke:none;"/>
  </g>
</mask>
<clipPath id="clip10">
  <rect x="0" y="0" width="101" height="99"/>
</clipPath>
<g id="surface32" clip-path="url(#clip10)">
<path style=" stroke:none;fill-rule:evenodd;fill:rgb(13.72549%,19.607843%,25.098039%);fill-opacity:1;" d="M 67.75 92.25 C 67.3125 92.761719 66.730469 93.097656 66 93.25 C 65.105469 92.796875 64.1875 92.710938 63.25 93 C 61.460938 95.125 59.375 96.875 57 98.25 C 56.1875 97.734375 55.601562 97.066406 55.25 96.25 C 56.367188 96.769531 57.535156 96.851562 58.75 96.5 C 60.269531 95.148438 61.601562 93.648438 62.75 92 C 64.414062 91.914062 66.078125 91.996094 67.75 92.25 Z M 67.75 92.25 "/>
</g>
</defs>
<g id="surface1">
<use xlink:href="#surface5" mask="url(#mask0)"/>
<use xlink:href="#surface8" mask="url(#mask1)"/>
<path style=" stroke:none;fill-rule:evenodd;fill:rgb(86.666667%,87.058824%,83.529412%);fill-opacity:1;" d="M 59.75 6.75 C 58.898438 8.613281 57.898438 10.449219 56.75 12.25 C 55.535156 12.089844 54.371094 12.421875 53.25 13.25 C 53.25 12.917969 53.25 12.582031 53.25 12.25 C 52.957031 8.75 54.125 5.835938 56.75 3.5 C 58.101562 4.109375 59.101562 5.191406 59.75 6.75 Z M 59.75 6.75 "/>
<path style=" stroke:none;fill-rule:evenodd;fill:rgb(84.313725%,88.627451%,83.529412%);fill-opacity:1;" d="M 45.25 2.25 C 47.25 4.332031 49.164062 6.5 51 8.75 C 51.5625 9.671875 51.8125 10.671875 51.75 11.75 C 51.390625 11.542969 51.140625 11.207031 51 10.75 C 49.609375 11.171875 48.191406 11.257812 46.75 11 C 46.289062 12.019531 46.121094 13.105469 46.25 14.25 C 44.125 14.214844 42.792969 13.128906 42.25 11 C 41.777344 10.757812 41.277344 10.675781 40.75 10.75 C 40.75 10.082031 40.75 9.417969 40.75 8.75 C 40.949219 6.402344 41.699219 4.238281 43 2.25 C 43.707031 1.792969 44.457031 1.792969 45.25 2.25 Z M 45.25 2.25 "/>
<use xlink:href="#surface11" mask="url(#mask2)"/>
<path style=" stroke:none;fill-rule:evenodd;fill:rgb(13.72549%,29.803922%,40.784314%);fill-opacity:1;" d="M 74.25 10.25 C 72.410156 10.167969 70.574219 10.25 68.75 10.5 C 65.941406 11.695312 63.191406 12.945312 60.5 14.25 C 60.269531 13.953125 60.183594 13.621094 60.25 13.25 C 62.082031 8.75 65.417969 7 70.25 8 C 71.984375 8.113281 73.316406 8.863281 74.25 10.25 Z M 74.25 10.25 "/>
<path style=" stroke:none;fill-rule:evenodd;fill:rgb(83.921569%,91.372549%,84.705882%);fill-opacity:1;" d="M 39.75 10.25 C 39.804688 10.558594 39.972656 10.808594 40.25 11 C 39.375 12.53125 38.539062 14.113281 37.75 15.75 C 36.800781 16.234375 35.800781 16.398438 34.75 16.25 C 33.066406 14.8125 31.566406 14.980469 30.25 16.75 C 29.347656 12.988281 29.011719 9.15625 29.25 5.25 C 30.464844 5.261719 31.628906 5.511719 32.75 6 C 35.15625 7.332031 37.492188 8.746094 39.75 10.25 Z M 39.75 10.25 "/>
<path style=" stroke:none;fill-rule:evenodd;fill:rgb(68.627451%,69.803922%,66.666667%);fill-opacity:1;" d="M 59.75 6.75 C 60.40625 7.074219 60.90625 7.574219 61.25 8.25 C 59.882812 9.65625 59.046875 11.320312 58.75 13.25 C 56.527344 13.472656 54.695312 13.472656 53.25 13.25 C 54.371094 12.421875 55.535156 12.089844 56.75 12.25 C 57.898438 10.449219 58.898438 8.613281 59.75 6.75 Z M 59.75 6.75 "/>
<path style=" stroke:none;fill-rule:evenodd;fill:rgb(10.588235%,18.039216%,26.27451%);fill-opacity:1;" d="M 74.25 10.25 C 75.871094 11.492188 76.703125 13.15625 76.75 15.25 C 75.035156 14.761719 73.285156 14.429688 71.5 14.25 C 67.617188 14.976562 63.699219 15.3125 59.75 15.25 C 59.617188 14.449219 59.78125 13.785156 60.25 13.25 C 60.183594 13.621094 60.269531 13.953125 60.5 14.25 C 63.191406 12.945312 65.941406 11.695312 68.75 10.5 C 70.574219 10.25 72.410156 10.167969 74.25 10.25 Z M 74.25 10.25 "/>
<path style=" stroke:none;fill-rule:evenodd;fill:rgb(67.45098%,54.509804%,53.72549%);fill-opacity:1;" d="M 51.75 11.75 C 51.570312 12.792969 51.238281 13.792969 50.75 14.75 C 50.082031 14.082031 49.417969 14.082031 48.75 14.75 C 48.339844 15.570312 48.003906 16.402344 47.75 17.25 C 47.25 17.25 46.75 17.25 46.25 17.25 C 46.25 16.25 46.25 15.25 46.25 14.25 C 46.121094 13.105469 46.289062 12.019531 46.75 11 C 48.191406 11.257812 49.609375 11.171875 51 10.75 C 51.140625 11.207031 51.390625 11.542969 51.75 11.75 Z M 51.75 11.75 "/>
<path style=" stroke:none;fill-rule:evenodd;fill:rgb(56.470588%,45.882353%,44.705882%);fill-opacity:1;" d="M 51.75 11.75 C 52.109375 11.957031 52.359375 12.292969 52.5 12.75 C 52.691406 12.472656 52.941406 12.304688 53.25 12.25 C 53.25 12.582031 53.25 12.917969 53.25 13.25 C 54.695312 13.472656 56.527344 13.472656 58.75 13.25 C 58.464844 14.015625 58.132812 14.765625 57.75 15.5 C 55.777344 15.996094 53.945312 15.746094 52.25 14.75 C 51.128906 16.226562 49.628906 17.0625 47.75 17.25 C 48.003906 16.402344 48.339844 15.570312 48.75 14.75 C 49.417969 14.082031 50.082031 14.082031 50.75 14.75 C 51.238281 13.792969 51.570312 12.792969 51.75 11.75 Z M 51.75 11.75 "/>
<path style=" stroke:none;fill-rule:evenodd;fill:rgb(71.372549%,75.686275%,72.156863%);fill-opacity:1;" d="M 40.75 8.75 C 40.75 9.417969 40.75 10.082031 40.75 10.75 C 41.277344 10.675781 41.777344 10.757812 42.25 11 C 42.792969 13.128906 44.125 14.214844 46.25 14.25 C 46.25 15.25 46.25 16.25 46.25 17.25 C 45.195312 17.871094 44.195312 17.871094 43.25 17.25 C 43.082031 16.75 42.75 16.417969 42.25 16.25 C 40.652344 15.523438 39.484375 16.023438 38.75 17.75 C 37.277344 17.511719 35.945312 17.011719 34.75 16.25 C 35.800781 16.398438 36.800781 16.234375 37.75 15.75 C 38.539062 14.113281 39.375 12.53125 40.25 11 C 39.972656 10.808594 39.804688 10.558594 39.75 10.25 C 40.082031 9.75 40.417969 9.25 40.75 8.75 Z M 40.75 8.75 "/>
<path style=" stroke:none;fill-rule:evenodd;fill:rgb(90.196078%,92.156863%,87.843137%);fill-opacity:1;" d="M 29.75 17.75 C 30.847656 18.949219 31.679688 20.28125 32.25 21.75 C 32.332031 22.929688 32.25 24.09375 32 25.25 C 29.976562 24.539062 27.894531 24.289062 25.75 24.5 C 26.25 25.332031 26.75 26.167969 27.25 27 C 26.953125 27.230469 26.621094 27.316406 26.25 27.25 C 21.695312 26.015625 17.78125 23.679688 14.5 20.25 C 12.648438 18.203125 12.898438 16.621094 15.25 15.5 C 20.609375 13.261719 25.445312 14.011719 29.75 17.75 Z M 29.75 17.75 "/>
<path style=" stroke:none;fill-rule:evenodd;fill:rgb(65.490196%,64.705882%,66.666667%);fill-opacity:1;" d="M 34.75 16.25 C 35.945312 17.011719 37.277344 17.511719 38.75 17.75 C 35.988281 18.914062 33.152344 18.914062 30.25 17.75 C 30.25 17.417969 30.25 17.082031 30.25 16.75 C 31.566406 14.980469 33.066406 14.8125 34.75 16.25 Z M 34.75 16.25 "/>
<path style=" stroke:none;fill-rule:evenodd;fill:rgb(61.568627%,53.72549%,56.470588%);fill-opacity:1;" d="M 42.25 16.25 C 42.292969 16.746094 42.125 17.164062 41.75 17.5 C 39.734375 18.582031 37.734375 19.667969 35.75 20.75 C 34.664062 20.636719 33.582031 20.46875 32.5 20.25 C 32.257812 20.722656 32.175781 21.222656 32.25 21.75 C 31.679688 20.28125 30.847656 18.949219 29.75 17.75 C 29.917969 17.75 30.082031 17.75 30.25 17.75 C 33.152344 18.914062 35.988281 18.914062 38.75 17.75 C 39.484375 16.023438 40.652344 15.523438 42.25 16.25 Z M 42.25 16.25 "/>
<path style=" stroke:none;fill-rule:evenodd;fill:rgb(16.862745%,34.117647%,43.921569%);fill-opacity:1;" d="M 86.25 38.75 C 86.652344 39.363281 87.152344 39.863281 87.75 40.25 C 86.40625 40.332031 85.074219 40.25 83.75 40 C 83.523438 39.792969 83.355469 39.542969 83.25 39.25 C 83.84375 38.785156 84.511719 38.617188 85.25 38.75 C 85.25 37.582031 85.25 36.417969 85.25 35.25 C 84.25 35.25 83.25 35.25 82.25 35.25 C 82.332031 32.410156 82.25 29.578125 82 26.75 C 81.792969 26.519531 81.542969 26.355469 81.25 26.25 C 80.527344 27.332031 79.941406 28.5 79.5 29.75 C 79.445312 31.710938 79.03125 33.542969 78.25 35.25 C 74.570312 41.097656 69.238281 44.429688 62.25 45.25 C 62.25 48.417969 62.25 51.582031 62.25 54.75 C 61.753906 50.84375 61.585938 46.84375 61.75 42.75 C 68.082031 43.042969 73.164062 40.707031 77 35.75 C 77.535156 32.929688 77.703125 30.097656 77.5 27.25 C 76.484375 25.652344 75.234375 24.320312 73.75 23.25 C 75.203125 23.894531 76.703125 24.394531 78.25 24.75 C 78.285156 23.238281 77.617188 22.15625 76.25 21.5 C 73.964844 20.273438 71.628906 19.191406 69.25 18.25 C 64.339844 17.753906 59.339844 17.585938 54.25 17.75 C 59 17.347656 63.835938 17.015625 68.75 16.75 C 72.796875 17.070312 76.628906 18.15625 80.25 20 C 83.519531 22.285156 84.769531 25.367188 84 29.25 C 83.503906 31.074219 83.085938 32.90625 82.75 34.75 C 83.75 34.75 84.75 34.75 85.75 34.75 C 85.699219 36.117188 85.867188 37.453125 86.25 38.75 Z M 86.25 38.75 "/>
<path style=" stroke:none;fill-rule:evenodd;fill:rgb(8.235294%,8.627451%,11.764706%);fill-opacity:1;" d="M 68.75 20.25 C 69.257812 20.835938 69.921875 21.171875 70.75 21.25 C 70.917969 21.582031 71.082031 21.917969 71.25 22.25 C 70.753906 22.292969 70.335938 22.125 70 21.75 C 67.742188 22.703125 65.324219 23.035156 62.75 22.75 C 63.917969 22.4375 65.082031 22.023438 66.25 21.5 C 64.582031 21.167969 62.917969 21.167969 61.25 21.5 C 60.207031 21.847656 59.375 22.433594 58.75 23.25 C 56.277344 24.6875 54.945312 26.855469 54.75 29.75 C 54.355469 30.304688 54.105469 30.972656 54 31.75 C 53.917969 31.167969 53.832031 30.582031 53.75 30 C 54.179688 28.222656 54.679688 26.472656 55.25 24.75 C 58.722656 20.265625 63.222656 18.765625 68.75 20.25 Z M 68.75 20.25 "/>
<path style=" stroke:none;fill-rule:evenodd;fill:rgb(23.921569%,54.901961%,69.803922%);fill-opacity:1;" d="M 69.25 18.25 C 71.628906 19.191406 73.964844 20.273438 76.25 21.5 C 77.617188 22.15625 78.285156 23.238281 78.25 24.75 C 76.703125 24.394531 75.203125 23.894531 73.75 23.25 C 72.878906 22.375 71.878906 21.707031 70.75 21.25 C 69.921875 21.171875 69.257812 20.835938 68.75 20.25 C 64.617188 18.890625 64.785156 18.222656 69.25 18.25 Z M 69.25 18.25 "/>
<path style=" stroke:none;fill-rule:evenodd;fill:rgb(55.686275%,43.921569%,43.137255%);fill-opacity:1;" d="M 42.25 16.25 C 42.75 16.417969 43.082031 16.75 43.25 17.25 C 41.042969 19.203125 38.878906 21.289062 36.75 23.5 C 36 23.753906 35.417969 23.503906 35 22.75 C 35.203125 24.78125 35.121094 26.78125 34.75 28.75 C 34.242188 26.632812 33.660156 24.464844 33 22.25 C 32.808594 21.972656 32.558594 21.804688 32.25 21.75 C 32.175781 21.222656 32.257812 20.722656 32.5 20.25 C 33.582031 20.46875 34.664062 20.636719 35.75 20.75 C 37.734375 19.667969 39.734375 18.582031 41.75 17.5 C 42.125 17.164062 42.292969 16.746094 42.25 16.25 Z M 42.25 16.25 "/>
<path style=" stroke:none;fill-rule:evenodd;fill:rgb(0.392157%,0.392157%,0.784314%);fill-opacity:1;" d="M 71.25 22.25 C 73.757812 24.34375 75.589844 26.925781 76.75 30 C 76.085938 33.171875 74.75 36.003906 72.75 38.5 C 70.449219 39.933594 67.949219 40.515625 65.25 40.25 C 57.558594 37.601562 55.476562 32.601562 59 25.25 C 60.0625 24.097656 61.3125 23.261719 62.75 22.75 C 65.324219 23.035156 67.742188 22.703125 70 21.75 C 70.335938 22.125 70.753906 22.292969 71.25 22.25 Z M 71.25 22.25 "/>
<path style=" stroke:none;fill-rule:evenodd;fill:rgb(64.705882%,52.156863%,48.627451%);fill-opacity:1;" d="M 32.25 21.75 C 32.558594 21.804688 32.808594 21.972656 33 22.25 C 33.660156 24.464844 34.242188 26.632812 34.75 28.75 C 34.75 28.917969 34.75 29.082031 34.75 29.25 C 31.914062 28.332031 29.082031 27.664062 26.25 27.25 C 26.621094 27.316406 26.953125 27.230469 27.25 27 C 26.75 26.167969 26.25 25.332031 25.75 24.5 C 27.894531 24.289062 29.976562 24.539062 32 25.25 C 32.25 24.09375 32.332031 22.929688 32.25 21.75 Z M 32.25 21.75 "/>
<path style=" stroke:none;fill-rule:evenodd;fill:rgb(19.215686%,12.54902%,9.803922%);fill-opacity:1;" d="M 50.25 30.25 C 50.25 30.582031 50.082031 30.75 49.75 30.75 C 49.742188 28.492188 48.910156 28.160156 47.25 29.75 C 45.660156 30.171875 44.328125 31.003906 43.25 32.25 C 43.429688 31.316406 43.929688 30.566406 44.75 30 C 46.109375 28.988281 47.609375 28.238281 49.25 27.75 C 50.109375 28.335938 50.441406 29.167969 50.25 30.25 Z M 50.25 30.25 "/>
<path style=" stroke:none;fill-rule:evenodd;fill:rgb(26.666667%,30.980392%,40%);fill-opacity:1;" d="M 62.75 22.75 C 61.3125 23.261719 60.0625 24.097656 59 25.25 C 55.476562 32.601562 57.558594 37.601562 65.25 40.25 C 65.476562 40.730469 65.808594 41.144531 66.25 41.5 C 63.082031 42.277344 60.414062 41.527344 58.25 39.25 C 57.609375 36.476562 57.109375 33.558594 56.75 30.5 C 56.632812 27.796875 57.46875 25.464844 59.25 23.5 C 59.136719 23.300781 58.96875 23.21875 58.75 23.25 C 59.375 22.433594 60.207031 21.847656 61.25 21.5 C 62.917969 21.167969 64.582031 21.167969 66.25 21.5 C 65.082031 22.023438 63.917969 22.4375 62.75 22.75 Z M 62.75 22.75 "/>
<use xlink:href="#surface14" mask="url(#mask3)"/>
<path style=" stroke:none;fill-rule:evenodd;fill:rgb(70.980392%,67.45098%,68.627451%);fill-opacity:1;" d="M 23.25 28.25 C 24.339844 28.421875 25.257812 28.921875 26 29.75 C 26.511719 31.308594 27.09375 32.808594 27.75 34.25 C 25.71875 32.214844 23.550781 30.378906 21.25 28.75 C 21.980469 28.785156 22.644531 28.617188 23.25 28.25 Z M 23.25 28.25 "/>
<path style=" stroke:none;fill-rule:evenodd;fill:rgb(18.823529%,41.960784%,52.54902%);fill-opacity:1;" d="M 52.75 28.75 C 52.25 28.75 51.75 28.75 51.25 28.75 C 51.359375 29.589844 51.023438 30.089844 50.25 30.25 C 50.441406 29.167969 50.109375 28.335938 49.25 27.75 C 47.609375 28.238281 46.109375 28.988281 44.75 30 C 43.929688 30.566406 43.429688 31.316406 43.25 32.25 C 43.285156 33.011719 42.953125 33.511719 42.25 33.75 C 39.195312 36.019531 37.945312 39.019531 38.5 42.75 C 39.054688 43.519531 39.804688 43.851562 40.75 43.75 C 40.160156 44.535156 39.328125 44.949219 38.25 45 C 37.640625 46.140625 36.972656 47.222656 36.25 48.25 C 35.890625 48.457031 35.640625 48.792969 35.5 49.25 C 35.125 51.746094 34.792969 54.246094 34.5 56.75 C 34.25 55.425781 34.167969 54.09375 34.25 52.75 C 34.25 50.75 34.25 48.75 34.25 46.75 C 34.25 45.417969 34.25 44.082031 34.25 42.75 C 35.246094 42.664062 36.078125 42.996094 36.75 43.75 C 37.042969 43.644531 37.292969 43.480469 37.5 43.25 C 38.003906 41.113281 37.753906 39.113281 36.75 37.25 C 37.644531 36.84375 38.476562 36.34375 39.25 35.75 C 39.011719 35.261719 38.679688 34.84375 38.25 34.5 C 38.679688 34.15625 39.011719 33.738281 39.25 33.25 C 38.753906 31.558594 39.167969 30.058594 40.5 28.75 C 40.695312 29.214844 41.027344 29.546875 41.5 29.75 C 42.246094 29.339844 42.996094 28.925781 43.75 28.5 C 43.582031 28.332031 43.417969 28.167969 43.25 28 C 43.59375 27.464844 43.84375 26.882812 44 26.25 C 44.972656 25.945312 45.890625 25.527344 46.75 25 C 46.25 24.832031 45.75 24.667969 45.25 24.5 C 48.21875 22.953125 51.382812 22.285156 54.75 22.5 C 55.320312 22.871094 55.320312 23.289062 54.75 23.75 C 54.136719 24.140625 53.46875 24.390625 52.75 24.5 C 53.261719 25.886719 53.261719 27.304688 52.75 28.75 Z M 52.75 28.75 "/>
<path style=" stroke:none;fill-rule:evenodd;fill:rgb(79.215686%,73.333333%,68.235294%);fill-opacity:1;" d="M 92.75 31.75 C 90.546875 30.441406 88.382812 30.609375 86.25 32.25 C 86.167969 31.238281 86.253906 30.238281 86.5 29.25 C 88.234375 27.921875 90.152344 26.921875 92.25 26.25 C 92.746094 28.054688 92.910156 29.886719 92.75 31.75 Z M 92.75 31.75 "/>
<path style=" stroke:none;fill-rule:evenodd;fill:rgb(45.098039%,38.431373%,32.941176%);fill-opacity:1;" d="M 92.75 31.75 C 92.695312 32.058594 92.527344 32.308594 92.25 32.5 C 90.15625 32.90625 88.15625 32.824219 86.25 32.25 C 88.382812 30.609375 90.546875 30.441406 92.75 31.75 Z M 92.75 31.75 "/>
<path style=" stroke:none;fill-rule:evenodd;fill:rgb(89.411765%,91.764706%,85.882353%);fill-opacity:1;" d="M 21.25 28.75 C 23.550781 30.378906 25.71875 32.214844 27.75 34.25 C 27.816406 35.144531 27.648438 35.980469 27.25 36.75 C 20.132812 38.503906 19.96875 40.839844 26.75 43.75 C 27.800781 44.6875 28.46875 45.851562 28.75 47.25 C 29.277344 50.363281 28.445312 53.03125 26.25 55.25 C 25.632812 55.621094 24.964844 55.789062 24.25 55.75 C 22.640625 55.554688 21.140625 55.804688 19.75 56.5 C 22.066406 58.242188 24.566406 59.660156 27.25 60.75 C 27.949219 61.410156 28.28125 62.242188 28.25 63.25 C 27.796875 65.074219 27.132812 66.824219 26.25 68.5 C 26.488281 69.152344 26.824219 69.734375 27.25 70.25 C 26.695312 70.277344 26.195312 70.445312 25.75 70.75 C 24.917969 70.75 24.082031 70.75 23.25 70.75 C 22.589844 70.050781 21.757812 69.71875 20.75 69.75 C 15.464844 70.796875 10.714844 69.628906 6.5 66.25 C 6.167969 65.75 6.167969 65.25 6.5 64.75 C 7.992188 62.175781 9.910156 60.011719 12.25 58.25 C 13.589844 57.074219 14.757812 55.742188 15.75 54.25 C 13.511719 52.414062 11.011719 51 8.25 50 C 12.171875 49.039062 16.171875 48.539062 20.25 48.5 C 16.03125 47.722656 12.363281 45.890625 9.25 43 C 9.988281 42.644531 10.320312 42.0625 10.25 41.25 C 11.179688 40.703125 12.179688 40.285156 13.25 40 C 10.199219 37.949219 7.867188 35.285156 6.25 32 C 10.699219 28.21875 15.699219 27.136719 21.25 28.75 Z M 21.25 28.75 "/>
<path style=" stroke:none;fill-rule:evenodd;fill:rgb(13.333333%,37.647059%,49.411765%);fill-opacity:1;" d="M 54.25 17.75 C 59.339844 17.585938 64.339844 17.753906 69.25 18.25 C 64.785156 18.222656 64.617188 18.890625 68.75 20.25 C 63.222656 18.765625 58.722656 20.265625 55.25 24.75 C 54.113281 25.804688 53.449219 27.140625 53.25 28.75 C 53.082031 28.75 52.917969 28.75 52.75 28.75 C 53.261719 27.304688 53.261719 25.886719 52.75 24.5 C 53.46875 24.390625 54.136719 24.140625 54.75 23.75 C 55.320312 23.289062 55.320312 22.871094 54.75 22.5 C 51.382812 22.285156 48.21875 22.953125 45.25 24.5 C 45.75 24.667969 46.25 24.832031 46.75 25 C 45.890625 25.527344 44.972656 25.945312 44 26.25 C 43.84375 26.882812 43.59375 27.464844 43.25 28 C 43.417969 28.167969 43.582031 28.332031 43.75 28.5 C 42.996094 28.925781 42.246094 29.339844 41.5 29.75 C 41.027344 29.546875 40.695312 29.214844 40.5 28.75 C 39.167969 30.058594 38.753906 31.558594 39.25 33.25 C 39.011719 33.738281 38.679688 34.15625 38.25 34.5 C 38.679688 34.84375 39.011719 35.261719 39.25 35.75 C 38.476562 36.34375 37.644531 36.84375 36.75 37.25 C 37.753906 39.113281 38.003906 41.113281 37.5 43.25 C 37.292969 43.480469 37.042969 43.644531 36.75 43.75 C 36.078125 42.996094 35.246094 42.664062 34.25 42.75 C 34.25 44.082031 34.25 45.417969 34.25 46.75 C 33.917969 45.511719 33.75 44.179688 33.75 42.75 C 34.132812 38.914062 34.550781 35.082031 35 31.25 C 36.585938 23.230469 41.503906 18.816406 49.75 18 C 51.242188 17.75 52.742188 17.667969 54.25 17.75 Z M 54.25 17.75 "/>
<path style=" stroke:none;fill-rule:evenodd;fill:rgb(97.254902%,56.078431%,8.235294%);fill-opacity:1;" d="M 47.25 29.75 C 47.976562 30.34375 48.476562 31.59375 48.75 33.5 C 48.695312 34.339844 48.363281 34.925781 47.75 35.25 C 47.105469 35.132812 46.605469 35.296875 46.25 35.75 C 45.871094 36.992188 45.871094 38.324219 46.25 39.75 C 45.75 39.75 45.25 39.75 44.75 39.75 C 43.882812 39.21875 43.050781 39.21875 42.25 39.75 C 41.75 39.75 41.25 39.75 40.75 39.75 C 40.757812 38.71875 40.925781 37.71875 41.25 36.75 C 41.582031 35.75 41.917969 34.75 42.25 33.75 C 42.953125 33.511719 43.285156 33.011719 43.25 32.25 C 44.328125 31.003906 45.660156 30.171875 47.25 29.75 Z M 47.25 29.75 "/>
<path style=" stroke:none;fill-rule:evenodd;fill:rgb(18.823529%,3.921569%,5.098039%);fill-opacity:1;" d="M 49.75 30.75 C 49.53125 32.417969 49.867188 33.917969 50.75 35.25 C 50.253906 35.292969 49.835938 35.125 49.5 34.75 C 49.101562 33.316406 49.183594 31.984375 49.75 30.75 Z M 49.75 30.75 "/>
<use xlink:href="#surface17" mask="url(#mask4)"/>
<path style=" stroke:none;fill-rule:evenodd;fill:rgb(37.254902%,45.490196%,58.039216%);fill-opacity:1;" d="M 58.75 23.25 C 58.96875 23.21875 59.136719 23.300781 59.25 23.5 C 57.46875 25.464844 56.632812 27.796875 56.75 30.5 C 57.109375 33.558594 57.609375 36.476562 58.25 39.25 C 57.917969 39.082031 57.582031 38.917969 57.25 38.75 C 55.40625 36.054688 54.574219 33.054688 54.75 29.75 C 54.945312 26.855469 56.277344 24.6875 58.75 23.25 Z M 58.75 23.25 "/>
<path style=" stroke:none;fill-rule:evenodd;fill:rgb(62.745098%,49.019608%,50.980392%);fill-opacity:1;" d="M 23.25 28.25 C 23.972656 27.695312 24.804688 27.609375 25.75 28 C 28.273438 28.925781 30.441406 30.339844 32.25 32.25 C 33.796875 34.097656 34.046875 36.097656 33 38.25 C 30.746094 39.460938 28.332031 39.960938 25.75 39.75 C 25.695312 39.441406 25.527344 39.191406 25.25 39 C 26.089844 38.394531 26.757812 37.644531 27.25 36.75 C 27.648438 35.980469 27.816406 35.144531 27.75 34.25 C 27.09375 32.808594 26.511719 31.308594 26 29.75 C 25.257812 28.921875 24.339844 28.421875 23.25 28.25 Z M 23.25 28.25 "/>
<path style=" stroke:none;fill-rule:evenodd;fill:rgb(30.196078%,38.431373%,49.019608%);fill-opacity:1;" d="M 52.75 28.75 C 52.917969 28.75 53.082031 28.75 53.25 28.75 C 53.75 31.921875 54.5 35.089844 55.5 38.25 C 56.3125 39.5625 57.3125 40.730469 58.5 41.75 C 58.742188 42.222656 58.824219 42.722656 58.75 43.25 C 57.742188 42.25 56.578125 41.417969 55.25 40.75 C 54.765625 41.699219 54.601562 42.699219 54.75 43.75 C 53.535156 43.863281 52.699219 43.363281 52.25 42.25 C 52.917969 40.75 52.917969 39.25 52.25 37.75 C 52.363281 36.535156 51.863281 35.699219 50.75 35.25 C 49.867188 33.917969 49.53125 32.417969 49.75 30.75 C 50.082031 30.75 50.25 30.582031 50.25 30.25 C 51.023438 30.089844 51.359375 29.589844 51.25 28.75 C 51.75 28.75 52.25 28.75 52.75 28.75 Z M 52.75 28.75 "/>
<path style=" stroke:none;fill-rule:evenodd;fill:rgb(79.607843%,76.078431%,74.901961%);fill-opacity:1;" d="M 91.25 35.25 C 91.25 36.25 91.25 37.25 91.25 38.25 C 88.535156 38.953125 87.367188 37.953125 87.75 35.25 C 88.917969 34.582031 90.082031 34.582031 91.25 35.25 Z M 91.25 35.25 "/>
<path style=" stroke:none;fill-rule:evenodd;fill:rgb(18.039216%,56.470588%,68.627451%);fill-opacity:1;" d="M 87.75 40.25 C 87.75 41.75 87.75 43.25 87.75 44.75 C 86.40625 44.667969 85.074219 44.75 83.75 45 C 84.707031 46.582031 85.542969 48.25 86.25 50 C 86.289062 51.378906 85.621094 51.960938 84.25 51.75 C 84.171875 52.4375 84.253906 53.101562 84.5 53.75 C 85.753906 55.234375 86.835938 56.734375 87.75 58.25 C 86.527344 58.738281 85.191406 58.902344 83.75 58.75 C 83.96875 57.851562 83.96875 56.851562 83.75 55.75 C 82.386719 55.914062 81.21875 55.582031 80.25 54.75 C 83.503906 54.929688 84.335938 53.679688 82.75 51 C 82.082031 50.667969 81.417969 50.332031 80.75 50 C 82.746094 49.191406 83.660156 47.773438 83.5 45.75 C 83.003906 45.46875 82.585938 45.132812 82.25 44.75 C 82.839844 44.246094 83.507812 43.832031 84.25 43.5 C 83.140625 42.804688 83.140625 41.972656 84.25 41 C 83.777344 40.757812 83.277344 40.675781 82.75 40.75 C 81.597656 37.929688 80.847656 34.929688 80.5 31.75 C 80.339844 33.351562 79.589844 34.519531 78.25 35.25 C 79.03125 33.542969 79.445312 31.710938 79.5 29.75 C 79.941406 28.5 80.527344 27.332031 81.25 26.25 C 81.542969 26.355469 81.792969 26.519531 82 26.75 C 82.25 29.578125 82.332031 32.410156 82.25 35.25 C 83.25 35.25 84.25 35.25 85.25 35.25 C 85.25 36.417969 85.25 37.582031 85.25 38.75 C 84.511719 38.617188 83.84375 38.785156 83.25 39.25 C 83.355469 39.542969 83.523438 39.792969 83.75 40 C 85.074219 40.25 86.40625 40.332031 87.75 40.25 Z M 87.75 40.25 "/>
<path style=" stroke:none;fill-rule:evenodd;fill:rgb(27.058824%,9.803922%,5.882353%);fill-opacity:1;" d="M 47.75 35.25 C 47.96875 36.039062 48.46875 36.621094 49.25 37 C 47.535156 38.730469 46.535156 38.316406 46.25 35.75 C 46.605469 35.296875 47.105469 35.132812 47.75 35.25 Z M 47.75 35.25 "/>
<path style=" stroke:none;fill-rule:evenodd;fill:rgb(75.686275%,70.196078%,68.627451%);fill-opacity:1;" d="M 95.75 38.25 C 94.75 38.25 93.75 38.25 92.75 38.25 C 92.390625 37.117188 92.222656 35.953125 92.25 34.75 C 93.429688 34.667969 94.59375 34.75 95.75 35 C 97.066406 36.148438 97.066406 37.230469 95.75 38.25 Z M 95.75 38.25 "/>
<path style=" stroke:none;fill-rule:evenodd;fill:rgb(88.627451%,52.54902%,16.078431%);fill-opacity:1;" d="M 49.75 30.75 C 49.183594 31.984375 49.101562 33.316406 49.5 34.75 C 49.835938 35.125 50.253906 35.292969 50.75 35.25 C 51.863281 35.699219 52.363281 36.535156 52.25 37.75 C 52.292969 38.246094 52.125 38.664062 51.75 39 C 50.636719 39.28125 49.636719 39.78125 48.75 40.5 C 47.257812 40.851562 45.925781 40.601562 44.75 39.75 C 45.25 39.75 45.75 39.75 46.25 39.75 C 45.871094 38.324219 45.871094 36.992188 46.25 35.75 C 46.535156 38.316406 47.535156 38.730469 49.25 37 C 48.46875 36.621094 47.96875 36.039062 47.75 35.25 C 48.363281 34.925781 48.695312 34.339844 48.75 33.5 C 48.476562 31.59375 47.976562 30.34375 47.25 29.75 C 48.910156 28.160156 49.742188 28.492188 49.75 30.75 Z M 49.75 30.75 "/>
<path style=" stroke:none;fill-rule:evenodd;fill:rgb(88.627451%,56.078431%,27.843137%);fill-opacity:1;" d="M 41.25 36.75 C 40.925781 37.71875 40.757812 38.71875 40.75 39.75 C 41.25 39.75 41.75 39.75 42.25 39.75 C 41.59375 40.660156 40.84375 41.492188 40 42.25 C 38.246094 40.109375 38.664062 38.277344 41.25 36.75 Z M 41.25 36.75 "/>
<path style=" stroke:none;fill-rule:evenodd;fill:rgb(16.470588%,12.156863%,10.980392%);fill-opacity:1;" d="M 42.25 33.75 C 41.917969 34.75 41.582031 35.75 41.25 36.75 C 38.664062 38.277344 38.246094 40.109375 40 42.25 C 40.84375 41.492188 41.59375 40.660156 42.25 39.75 C 43.050781 39.21875 43.882812 39.21875 44.75 39.75 C 45.925781 40.601562 47.257812 40.851562 48.75 40.5 C 49.636719 39.78125 50.636719 39.28125 51.75 39 C 52.125 38.664062 52.292969 38.246094 52.25 37.75 C 52.917969 39.25 52.917969 40.75 52.25 42.25 C 52.214844 41.34375 51.796875 40.679688 51 40.25 C 49.722656 41.054688 48.390625 41.722656 47 42.25 C 45.847656 41.777344 44.679688 41.277344 43.5 40.75 C 42.285156 41.503906 41.367188 42.503906 40.75 43.75 C 39.804688 43.851562 39.054688 43.519531 38.5 42.75 C 37.945312 39.019531 39.195312 36.019531 42.25 33.75 Z M 42.25 33.75 "/>
<path style=" stroke:none;fill-rule:evenodd;fill:rgb(72.941176%,70.980392%,71.372549%);fill-opacity:1;" d="M 27.25 36.75 C 26.757812 37.644531 26.089844 38.394531 25.25 39 C 25.527344 39.191406 25.695312 39.441406 25.75 39.75 C 25.25 39.75 24.75 39.75 24.25 39.75 C 23.671875 40.15625 23.671875 40.65625 24.25 41.25 C 24.832031 41.792969 25.5 42.207031 26.25 42.5 C 26.625 42.835938 26.792969 43.253906 26.75 43.75 C 19.96875 40.839844 20.132812 38.503906 27.25 36.75 Z M 27.25 36.75 "/>
<path style=" stroke:none;fill-rule:evenodd;fill:rgb(82.745098%,78.039216%,75.294118%);fill-opacity:1;" d="M 94.75 40.25 C 95.695312 40.148438 96.445312 40.480469 97 41.25 C 97.351562 42.464844 97.269531 43.632812 96.75 44.75 C 96.144531 45.117188 95.480469 45.285156 94.75 45.25 C 94.75 43.582031 94.75 41.917969 94.75 40.25 Z M 94.75 40.25 "/>
<path style=" stroke:none;fill-rule:evenodd;fill:rgb(13.72549%,59.607843%,72.156863%);fill-opacity:1;" d="M 52.25 42.25 C 52.699219 43.363281 53.535156 43.863281 54.75 43.75 C 54.601562 42.699219 54.765625 41.699219 55.25 40.75 C 56.578125 41.417969 57.742188 42.25 58.75 43.25 C 58.75 48.082031 58.75 52.917969 58.75 57.75 C 58.417969 58.417969 57.917969 58.917969 57.25 59.25 C 58.253906 54.324219 58.503906 49.324219 58 44.25 C 57.832031 44.082031 57.667969 43.917969 57.5 43.75 C 57.332031 45.417969 57.167969 47.082031 57 48.75 C 56.828125 47.210938 56.492188 45.710938 56 44.25 C 54.785156 44.726562 53.535156 44.726562 52.25 44.25 C 52.082031 46.25 51.917969 46.25 51.75 44.25 C 49.75 44.917969 47.75 44.917969 45.75 44.25 C 45.777344 45.976562 44.941406 47.058594 43.25 47.5 C 43.910156 47.90625 44.246094 48.492188 44.25 49.25 C 41.363281 49.554688 38.699219 49.222656 36.25 48.25 C 36.972656 47.222656 37.640625 46.140625 38.25 45 C 39.328125 44.949219 40.160156 44.535156 40.75 43.75 C 41.367188 42.503906 42.285156 41.503906 43.5 40.75 C 44.679688 41.277344 45.847656 41.777344 47 42.25 C 48.390625 41.722656 49.722656 41.054688 51 40.25 C 51.796875 40.679688 52.214844 41.34375 52.25 42.25 Z M 52.25 42.25 "/>
<path style=" stroke:none;fill-rule:evenodd;fill:rgb(1.176471%,65.098039%,78.823529%);fill-opacity:1;" d="M 57.25 59.25 C 56.566406 60.09375 55.902344 60.929688 55.25 61.75 C 55.664062 58.59375 55.996094 55.425781 56.25 52.25 C 56.386719 51.273438 56.054688 50.523438 55.25 50 C 50.875 49.40625 46.792969 49.824219 43 51.25 C 42.664062 50.875 42.246094 50.707031 41.75 50.75 C 42.535156 50.15625 43.371094 49.65625 44.25 49.25 C 44.246094 48.492188 43.910156 47.90625 43.25 47.5 C 44.941406 47.058594 45.777344 45.976562 45.75 44.25 C 47.75 44.917969 49.75 44.917969 51.75 44.25 C 51.917969 46.25 52.082031 46.25 52.25 44.25 C 53.535156 44.726562 54.785156 44.726562 56 44.25 C 56.492188 45.710938 56.828125 47.210938 57 48.75 C 57.167969 47.082031 57.332031 45.417969 57.5 43.75 C 57.667969 43.917969 57.832031 44.082031 58 44.25 C 58.503906 49.324219 58.253906 54.324219 57.25 59.25 Z M 57.25 59.25 "/>
<path style=" stroke:none;fill-rule:evenodd;fill:rgb(7.843137%,7.45098%,7.45098%);fill-opacity:1;" d="M 87.75 35.25 C 87.367188 37.953125 88.535156 38.953125 91.25 38.25 C 91.25 37.25 91.25 36.25 91.25 35.25 C 91.46875 36.421875 91.96875 37.421875 92.75 38.25 C 93.75 38.25 94.75 38.25 95.75 38.25 C 94.890625 38.613281 93.972656 38.945312 93 39.25 C 92.046875 39.289062 91.046875 39.125 90 38.75 C 89.769531 39.046875 89.683594 39.378906 89.75 39.75 C 89.75 41.417969 89.75 43.082031 89.75 44.75 C 93.863281 45.074219 94.863281 43.40625 92.75 39.75 C 93.410156 39.835938 93.996094 39.667969 94.5 39.25 C 94.730469 39.546875 94.816406 39.878906 94.75 40.25 C 94.75 41.917969 94.75 43.582031 94.75 45.25 C 95.480469 45.285156 96.144531 45.117188 96.75 44.75 C 97.035156 45.679688 97.035156 46.511719 96.75 47.25 C 96.144531 46.882812 95.480469 46.714844 94.75 46.75 C 94.75 48.25 94.75 49.75 94.75 51.25 C 94.417969 50.582031 94.082031 49.917969 93.75 49.25 C 93.75 48.417969 93.75 47.582031 93.75 46.75 C 92.195312 46.632812 90.695312 46.796875 89.25 47.25 C 89.09375 46.628906 88.84375 46.628906 88.5 47.25 C 88.167969 49.582031 88.167969 51.917969 88.5 54.25 C 88.835938 53.875 89.253906 53.707031 89.75 53.75 C 89.59375 55.519531 89.761719 57.1875 90.25 58.75 C 90.183594 59.1875 90.351562 59.523438 90.75 59.75 C 92.605469 59.179688 94.273438 59.511719 95.75 60.75 C 94.738281 60.667969 93.738281 60.753906 92.75 61 C 92.308594 61.679688 92.144531 62.429688 92.25 63.25 C 91.917969 63.082031 91.582031 62.917969 91.25 62.75 C 91.25 62.082031 91.25 61.417969 91.25 60.75 C 90.191406 60.664062 89.191406 60.828125 88.25 61.25 C 87.882812 60.644531 87.714844 59.980469 87.75 59.25 C 86.902344 59.171875 86.066406 59.253906 85.25 59.5 C 85.527344 59.691406 85.695312 59.941406 85.75 60.25 C 84.917969 60.25 84.082031 60.25 83.25 60.25 C 83.277344 59.695312 83.445312 59.195312 83.75 58.75 C 85.191406 58.902344 86.527344 58.738281 87.75 58.25 C 87.75 53.75 87.75 49.25 87.75 44.75 C 87.75 43.25 87.75 41.75 87.75 40.25 C 87.152344 39.863281 86.652344 39.363281 86.25 38.75 C 87.042969 37.746094 87.542969 36.578125 87.75 35.25 Z M 87.75 35.25 "/>
<path style=" stroke:none;fill-rule:evenodd;fill:rgb(85.098039%,80.784314%,77.647059%);fill-opacity:1;" d="M 89.75 39.75 C 90.75 39.75 91.75 39.75 92.75 39.75 C 94.863281 43.40625 93.863281 45.074219 89.75 44.75 C 89.75 43.082031 89.75 41.417969 89.75 39.75 Z M 89.75 39.75 "/>
<path style=" stroke:none;fill-rule:evenodd;fill:rgb(19.607843%,23.921569%,32.54902%);fill-opacity:1;" d="M 55.25 24.75 C 54.679688 26.472656 54.179688 28.222656 53.75 30 C 53.832031 30.582031 53.917969 31.167969 54 31.75 C 54.105469 30.972656 54.355469 30.304688 54.75 29.75 C 54.574219 33.054688 55.40625 36.054688 57.25 38.75 C 57.515625 39.773438 58.097656 40.605469 59 41.25 C 59.523438 44.390625 59.773438 47.554688 59.75 50.75 C 59.746094 53.277344 59.414062 55.609375 58.75 57.75 C 58.75 52.917969 58.75 48.082031 58.75 43.25 C 58.824219 42.722656 58.742188 42.222656 58.5 41.75 C 57.3125 40.730469 56.3125 39.5625 55.5 38.25 C 54.5 35.089844 53.75 31.921875 53.25 28.75 C 53.449219 27.140625 54.113281 25.804688 55.25 24.75 Z M 55.25 24.75 "/>
<path style=" stroke:none;fill-rule:evenodd;fill:rgb(9.019608%,61.960784%,76.862745%);fill-opacity:1;" d="M 82.25 44.75 C 80.292969 44.8125 78.460938 45.3125 76.75 46.25 C 71.015625 47.046875 69.601562 49.882812 72.5 54.75 C 74 56.25 75.5 57.75 77 59.25 C 77.347656 60.738281 77.597656 62.238281 77.75 63.75 C 77.417969 63.417969 77.082031 63.082031 76.75 62.75 C 73.785156 56.847656 68.949219 54.179688 62.25 54.75 C 62.25 51.582031 62.25 48.417969 62.25 45.25 C 69.238281 44.429688 74.570312 41.097656 78.25 35.25 C 79.589844 34.519531 80.339844 33.351562 80.5 31.75 C 80.847656 34.929688 81.597656 37.929688 82.75 40.75 C 83.277344 40.675781 83.777344 40.757812 84.25 41 C 83.140625 41.972656 83.140625 42.804688 84.25 43.5 C 83.507812 43.832031 82.839844 44.246094 82.25 44.75 Z M 82.25 44.75 "/>
<path style=" stroke:none;fill-rule:evenodd;fill:rgb(2.352941%,3.921569%,5.098039%);fill-opacity:1;" d="M 82.25 44.75 C 82.585938 45.132812 83.003906 45.46875 83.5 45.75 C 83.660156 47.773438 82.746094 49.191406 80.75 50 C 81.417969 50.332031 82.082031 50.667969 82.75 51 C 84.335938 53.679688 83.503906 54.929688 80.25 54.75 C 78.5625 54.46875 77.0625 53.800781 75.75 52.75 C 74.660156 52.074219 73.824219 51.15625 73.25 50 C 74.175781 48.492188 75.339844 47.242188 76.75 46.25 C 78.460938 45.3125 80.292969 44.8125 82.25 44.75 Z M 82.25 44.75 "/>
<path style=" stroke:none;fill-rule:evenodd;fill:rgb(65.098039%,53.72549%,52.156863%);fill-opacity:1;" d="M 24.25 39.75 C 26.296875 40.871094 28.296875 42.121094 30.25 43.5 C 32.796875 45.507812 33.714844 48.09375 33 51.25 C 32.898438 53.765625 31.648438 55.265625 29.25 55.75 C 29.007812 55.292969 28.84375 54.792969 28.75 54.25 C 29.714844 51.664062 29.964844 48.996094 29.5 46.25 C 29.359375 46.707031 29.109375 47.042969 28.75 47.25 C 28.46875 45.851562 27.800781 44.6875 26.75 43.75 C 26.792969 43.253906 26.625 42.835938 26.25 42.5 C 25.5 42.207031 24.832031 41.792969 24.25 41.25 C 23.671875 40.65625 23.671875 40.15625 24.25 39.75 Z M 24.25 39.75 "/>
<path style=" stroke:none;fill-rule:evenodd;fill:rgb(85.098039%,80.784314%,77.254902%);fill-opacity:1;" d="M 96.75 47.25 C 97.277344 48.535156 97.359375 49.871094 97 51.25 C 96.097656 52.492188 95.347656 52.492188 94.75 51.25 C 94.75 49.75 94.75 48.25 94.75 46.75 C 95.480469 46.714844 96.144531 46.882812 96.75 47.25 Z M 96.75 47.25 "/>
<path style=" stroke:none;fill-rule:evenodd;fill:rgb(3.921569%,47.843137%,60%);fill-opacity:1;" d="M 36.25 48.25 C 38.699219 49.222656 41.363281 49.554688 44.25 49.25 C 43.371094 49.65625 42.535156 50.15625 41.75 50.75 C 38.535156 52.550781 36.285156 55.21875 35 58.75 C 34.871094 60.292969 34.621094 61.792969 34.25 63.25 C 33.582031 59.75 33.582031 56.25 34.25 52.75 C 34.167969 54.09375 34.25 55.425781 34.5 56.75 C 34.792969 54.246094 35.125 51.746094 35.5 49.25 C 35.640625 48.792969 35.890625 48.457031 36.25 48.25 Z M 36.25 48.25 "/>
<path style=" stroke:none;fill-rule:evenodd;fill:rgb(10.196078%,45.098039%,57.254902%);fill-opacity:1;" d="M 87.75 44.75 C 87.75 49.25 87.75 53.75 87.75 58.25 C 86.835938 56.734375 85.753906 55.234375 84.5 53.75 C 84.253906 53.101562 84.171875 52.4375 84.25 51.75 C 85.621094 51.960938 86.289062 51.378906 86.25 50 C 85.542969 48.25 84.707031 46.582031 83.75 45 C 85.074219 44.75 86.40625 44.667969 87.75 44.75 Z M 87.75 44.75 "/>
<path style=" stroke:none;fill-rule:evenodd;fill:rgb(83.137255%,77.647059%,73.72549%);fill-opacity:1;" d="M 93.75 49.25 C 94.125 52.035156 92.957031 52.949219 90.25 52 C 89.328125 50.597656 88.996094 49.015625 89.25 47.25 C 90.695312 46.796875 92.195312 46.632812 93.75 46.75 C 93.75 47.582031 93.75 48.417969 93.75 49.25 Z M 93.75 49.25 "/>
<path style=" stroke:none;fill-rule:evenodd;fill:rgb(85.098039%,87.058824%,81.960784%);fill-opacity:1;" d="M 10.25 41.25 C 10.320312 42.0625 9.988281 42.644531 9.25 43 C 12.363281 45.890625 16.03125 47.722656 20.25 48.5 C 16.171875 48.539062 12.171875 49.039062 8.25 50 C 11.011719 51 13.511719 52.414062 15.75 54.25 C 14.757812 55.742188 13.589844 57.074219 12.25 58.25 C 9.730469 57.238281 7.398438 55.820312 5.25 54 C 3.53125 52.617188 2.195312 50.949219 1.25 49 C 3.550781 45.617188 6.550781 43.035156 10.25 41.25 Z M 10.25 41.25 "/>
<path style=" stroke:none;fill-rule:evenodd;fill:rgb(5.490196%,69.411765%,84.313725%);fill-opacity:1;" d="M 56.25 52.25 C 52.011719 53.917969 47.847656 55.832031 43.75 58 C 42.667969 59.082031 41.582031 60.167969 40.5 61.25 C 38.8125 64.8125 37.644531 68.480469 37 72.25 C 37.664062 73.496094 38.582031 74.496094 39.75 75.25 C 39.917969 75.917969 40.082031 76.582031 40.25 77.25 C 35.800781 73.679688 33.800781 69.011719 34.25 63.25 C 34.621094 61.792969 34.871094 60.292969 35 58.75 C 36.285156 55.21875 38.535156 52.550781 41.75 50.75 C 42.246094 50.707031 42.664062 50.875 43 51.25 C 46.792969 49.824219 50.875 49.40625 55.25 50 C 56.054688 50.523438 56.386719 51.273438 56.25 52.25 Z M 56.25 52.25 "/>
<path style=" stroke:none;fill-rule:evenodd;fill:rgb(4.313725%,79.215686%,93.72549%);fill-opacity:1;" d="M 56.25 52.25 C 55.996094 55.425781 55.664062 58.59375 55.25 61.75 C 55.25 61.917969 55.25 62.082031 55.25 62.25 C 53.539062 65.734375 53.289062 69.402344 54.5 73.25 C 55.5 74.664062 56.582031 76 57.75 77.25 C 57.75 77.75 57.75 78.25 57.75 78.75 C 50.152344 79.136719 43.734375 76.636719 38.5 71.25 C 38.476562 72.707031 38.890625 74.039062 39.75 75.25 C 38.582031 74.496094 37.664062 73.496094 37 72.25 C 37.644531 68.480469 38.8125 64.8125 40.5 61.25 C 41.582031 60.167969 42.667969 59.082031 43.75 58 C 47.847656 55.832031 52.011719 53.917969 56.25 52.25 Z M 56.25 52.25 "/>
<path style=" stroke:none;fill-rule:evenodd;fill:rgb(75.686275%,65.882353%,63.921569%);fill-opacity:1;" d="M 29.25 55.75 C 28.117188 56.109375 26.953125 56.277344 25.75 56.25 C 25.25 56.25 24.75 56.25 24.25 56.25 C 24.25 56.082031 24.25 55.917969 24.25 55.75 C 24.964844 55.789062 25.632812 55.621094 26.25 55.25 C 28.445312 53.03125 29.277344 50.363281 28.75 47.25 C 29.109375 47.042969 29.359375 46.707031 29.5 46.25 C 29.964844 48.996094 29.714844 51.664062 28.75 54.25 C 28.84375 54.792969 29.007812 55.292969 29.25 55.75 Z M 29.25 55.75 "/>
<path style=" stroke:none;fill-rule:evenodd;fill:rgb(76.862745%,74.117647%,72.54902%);fill-opacity:1;" d="M 94.75 53.75 C 96.292969 53.710938 97.125 54.460938 97.25 56 C 97.125 57.875 96.125 58.789062 94.25 58.75 C 94.171875 57.050781 94.339844 55.382812 94.75 53.75 Z M 94.75 53.75 "/>
<path style=" stroke:none;fill-rule:evenodd;fill:rgb(11.372549%,13.333333%,18.823529%);fill-opacity:1;" d="M 70.75 21.25 C 71.878906 21.707031 72.878906 22.375 73.75 23.25 C 75.234375 24.320312 76.484375 25.652344 77.5 27.25 C 77.703125 30.097656 77.535156 32.929688 77 35.75 C 73.164062 40.707031 68.082031 43.042969 61.75 42.75 C 61.585938 46.84375 61.753906 50.84375 62.25 54.75 C 68.949219 54.179688 73.785156 56.847656 76.75 62.75 C 76.90625 64.683594 76.742188 66.519531 76.25 68.25 C 76.273438 60.941406 72.605469 57.605469 65.25 58.25 C 65.546875 57.925781 65.878906 57.589844 66.25 57.25 C 63.589844 56.371094 61.257812 56.871094 59.25 58.75 C 57.347656 59.886719 56.179688 61.554688 55.75 63.75 C 55.296875 63.394531 55.132812 62.894531 55.25 62.25 C 55.25 62.082031 55.25 61.917969 55.25 61.75 C 55.902344 60.929688 56.566406 60.09375 57.25 59.25 C 57.917969 58.917969 58.417969 58.417969 58.75 57.75 C 59.414062 55.609375 59.746094 53.277344 59.75 50.75 C 59.773438 47.554688 59.523438 44.390625 59 41.25 C 58.097656 40.605469 57.515625 39.773438 57.25 38.75 C 57.582031 38.917969 57.917969 39.082031 58.25 39.25 C 60.414062 41.527344 63.082031 42.277344 66.25 41.5 C 65.808594 41.144531 65.476562 40.730469 65.25 40.25 C 67.949219 40.515625 70.449219 39.933594 72.75 38.5 C 74.75 36.003906 76.085938 33.171875 76.75 30 C 75.589844 26.925781 73.757812 24.34375 71.25 22.25 C 71.082031 21.917969 70.917969 21.582031 70.75 21.25 Z M 70.75 21.25 "/>
<path style=" stroke:none;fill-rule:evenodd;fill:rgb(18.823529%,70.980392%,82.745098%);fill-opacity:1;" d="M 75.75 52.75 C 77.0625 53.800781 78.5625 54.46875 80.25 54.75 C 81.21875 55.582031 82.386719 55.914062 83.75 55.75 C 83.96875 56.851562 83.96875 57.851562 83.75 58.75 C 83.445312 59.195312 83.277344 59.695312 83.25 60.25 C 82.847656 61.019531 82.683594 61.855469 82.75 62.75 C 82.28125 63.285156 82.117188 63.949219 82.25 64.75 C 81.75 64.75 81.25 64.75 80.75 64.75 C 80.839844 69.265625 80.671875 73.765625 80.25 78.25 C 77.988281 79.773438 75.488281 80.609375 72.75 80.75 C 70.410156 80.832031 68.078125 80.75 65.75 80.5 C 67.679688 80.410156 69.511719 80.160156 71.25 79.75 C 79.128906 78.929688 82.046875 74.597656 80 66.75 C 79.289062 64.84375 79.207031 62.925781 79.75 61 C 79.210938 58.507812 77.960938 56.425781 76 54.75 C 75.753906 54.101562 75.671875 53.4375 75.75 52.75 Z M 75.75 52.75 "/>
<path style=" stroke:none;fill-rule:evenodd;fill:rgb(81.960784%,78.039216%,76.078431%);fill-opacity:1;" d="M 89.75 53.75 C 90.929688 53.667969 92.09375 53.75 93.25 54 C 94.632812 57.183594 93.632812 58.769531 90.25 58.75 C 89.761719 57.1875 89.59375 55.519531 89.75 53.75 Z M 89.75 53.75 "/>
<path style=" stroke:none;fill-rule:evenodd;fill:rgb(73.72549%,74.117647%,71.372549%);fill-opacity:1;" d="M 24.25 55.75 C 24.25 55.917969 24.25 56.082031 24.25 56.25 C 24.03125 56.21875 23.863281 56.300781 23.75 56.5 C 24.25 56.667969 24.75 56.832031 25.25 57 C 25.082031 57.167969 24.917969 57.332031 24.75 57.5 C 25.363281 58.265625 26.113281 58.847656 27 59.25 C 27.242188 59.722656 27.324219 60.222656 27.25 60.75 C 24.566406 59.660156 22.066406 58.242188 19.75 56.5 C 21.140625 55.804688 22.640625 55.554688 24.25 55.75 Z M 24.25 55.75 "/>
<path style=" stroke:none;fill-rule:evenodd;fill:rgb(0.392157%,0.392157%,1.176471%);fill-opacity:1;" d="M 65.25 58.25 C 72.605469 57.605469 76.273438 60.941406 76.25 68.25 C 74.640625 73.859375 70.972656 77.195312 65.25 78.25 C 62.691406 78.554688 60.359375 77.972656 58.25 76.5 C 57.710938 75.835938 57.375 75.085938 57.25 74.25 C 57.417969 74.25 57.582031 74.25 57.75 74.25 C 58.445312 75.355469 59.445312 76.105469 60.75 76.5 C 62.679688 76.957031 64.515625 76.789062 66.25 76 C 58.277344 74.304688 55.945312 69.71875 59.25 62.25 C 60.582031 59.917969 62.582031 58.585938 65.25 58.25 Z M 65.25 58.25 "/>
<path style=" stroke:none;fill-rule:evenodd;fill:rgb(34.901961%,40.392157%,49.411765%);fill-opacity:1;" d="M 65.25 58.25 C 62.582031 58.585938 60.582031 59.917969 59.25 62.25 C 58.917969 62.25 58.582031 62.25 58.25 62.25 C 58.898438 61.046875 59.730469 59.964844 60.75 59 C 60.277344 58.757812 59.777344 58.675781 59.25 58.75 C 61.257812 56.871094 63.589844 56.371094 66.25 57.25 C 65.878906 57.589844 65.546875 57.925781 65.25 58.25 Z M 65.25 58.25 "/>
<path style=" stroke:none;fill-rule:evenodd;fill:rgb(45.490196%,54.509804%,65.882353%);fill-opacity:1;" d="M 59.25 58.75 C 59.777344 58.675781 60.277344 58.757812 60.75 59 C 59.730469 59.964844 58.898438 61.046875 58.25 62.25 C 57.613281 63.355469 57.113281 64.523438 56.75 65.75 C 56.441406 65.804688 56.191406 65.972656 56 66.25 C 55.75 67.742188 55.667969 69.242188 55.75 70.75 C 55.101562 68.46875 55.101562 66.132812 55.75 63.75 C 56.179688 61.554688 57.347656 59.886719 59.25 58.75 Z M 59.25 58.75 "/>
<path style=" stroke:none;fill-rule:evenodd;fill:rgb(32.156863%,56.862745%,69.019608%);fill-opacity:1;" d="M 83.25 60.25 C 84.082031 60.25 84.917969 60.25 85.75 60.25 C 86.238281 61.472656 86.402344 62.808594 86.25 64.25 C 85.082031 64.25 83.917969 64.25 82.75 64.25 C 82.75 63.75 82.75 63.25 82.75 62.75 C 82.683594 61.855469 82.847656 61.019531 83.25 60.25 Z M 83.25 60.25 "/>
<path style=" stroke:none;fill-rule:evenodd;fill:rgb(80.392157%,77.254902%,76.470588%);fill-opacity:1;" d="M 91.25 62.75 C 91.292969 63.246094 91.125 63.664062 90.75 64 C 89.75 64.332031 88.75 64.332031 87.75 64 C 88.203125 63.152344 88.371094 62.234375 88.25 61.25 C 89.191406 60.828125 90.191406 60.664062 91.25 60.75 C 91.25 61.417969 91.25 62.082031 91.25 62.75 Z M 91.25 62.75 "/>
<path style=" stroke:none;fill-rule:evenodd;fill:rgb(78.431373%,75.294118%,73.72549%);fill-opacity:1;" d="M 95.75 60.75 C 97.007812 63.746094 96.007812 64.828125 92.75 64 C 92.472656 63.808594 92.304688 63.558594 92.25 63.25 C 92.144531 62.429688 92.308594 61.679688 92.75 61 C 93.738281 60.753906 94.738281 60.667969 95.75 60.75 Z M 95.75 60.75 "/>
<path style=" stroke:none;fill-rule:evenodd;fill:rgb(66.666667%,55.686275%,54.117647%);fill-opacity:1;" d="M 24.25 56.25 C 24.75 56.25 25.25 56.25 25.75 56.25 C 27.382812 57.792969 29.132812 59.292969 31 60.75 C 34.191406 65.648438 32.941406 68.8125 27.25 70.25 C 26.824219 69.734375 26.488281 69.152344 26.25 68.5 C 27.132812 66.824219 27.796875 65.074219 28.25 63.25 C 28.28125 62.242188 27.949219 61.410156 27.25 60.75 C 27.324219 60.222656 27.242188 59.722656 27 59.25 C 26.113281 58.847656 25.363281 58.265625 24.75 57.5 C 24.917969 57.332031 25.082031 57.167969 25.25 57 C 24.75 56.832031 24.25 56.667969 23.75 56.5 C 23.863281 56.300781 24.03125 56.21875 24.25 56.25 Z M 24.25 56.25 "/>
<path style=" stroke:none;fill-rule:evenodd;fill:rgb(43.529412%,40.784314%,39.215686%);fill-opacity:1;" d="M 92.75 66.75 C 90.351562 66.453125 88.1875 66.785156 86.25 67.75 C 85.796875 67.394531 85.632812 66.894531 85.75 66.25 C 88.179688 66.089844 90.515625 66.257812 92.75 66.75 Z M 92.75 66.75 "/>
<path style=" stroke:none;fill-rule:evenodd;fill:rgb(9.411765%,62.745098%,76.078431%);fill-opacity:1;" d="M 82.75 62.75 C 82.75 63.25 82.75 63.75 82.75 64.25 C 82.632812 66.203125 83.046875 68.039062 84 69.75 C 84.660156 73.433594 83.410156 76.265625 80.25 78.25 C 80.671875 73.765625 80.839844 69.265625 80.75 64.75 C 81.25 64.75 81.75 64.75 82.25 64.75 C 82.117188 63.949219 82.28125 63.285156 82.75 62.75 Z M 82.75 62.75 "/>
<use xlink:href="#surface20" mask="url(#mask5)"/>
<path style=" stroke:none;fill-rule:evenodd;fill:rgb(79.215686%,74.901961%,71.764706%);fill-opacity:1;" d="M 92.75 66.75 C 94.105469 72.496094 92.273438 73.664062 87.25 70.25 C 86.523438 69.574219 86.191406 68.742188 86.25 67.75 C 88.1875 66.785156 90.351562 66.453125 92.75 66.75 Z M 92.75 66.75 "/>
<path style=" stroke:none;fill-rule:evenodd;fill:rgb(29.411765%,37.647059%,51.764706%);fill-opacity:1;" d="M 56.75 65.75 C 56.730469 68.429688 57.230469 71.011719 58.25 73.5 C 58.214844 73.882812 58.046875 74.132812 57.75 74.25 C 57.582031 74.25 57.417969 74.25 57.25 74.25 C 56.503906 73.175781 56.003906 72.011719 55.75 70.75 C 55.667969 69.242188 55.75 67.742188 56 66.25 C 56.191406 65.972656 56.441406 65.804688 56.75 65.75 Z M 56.75 65.75 "/>
<path style=" stroke:none;fill-rule:evenodd;fill:rgb(14.509804%,21.568627%,30.196078%);fill-opacity:1;" d="M 55.25 62.25 C 55.132812 62.894531 55.296875 63.394531 55.75 63.75 C 55.101562 66.132812 55.101562 68.46875 55.75 70.75 C 56.003906 72.011719 56.503906 73.175781 57.25 74.25 C 57.375 75.085938 57.710938 75.835938 58.25 76.5 C 60.359375 77.972656 62.691406 78.554688 65.25 78.25 C 64.027344 78.738281 62.691406 78.902344 61.25 78.75 C 59.898438 78.65625 58.730469 78.15625 57.75 77.25 C 56.582031 76 55.5 74.664062 54.5 73.25 C 53.289062 69.402344 53.539062 65.734375 55.25 62.25 Z M 55.25 62.25 "/>
<path style=" stroke:none;fill-rule:evenodd;fill:rgb(10.980392%,35.686275%,46.666667%);fill-opacity:1;" d="M 76.75 62.75 C 77.082031 63.082031 77.417969 63.417969 77.75 63.75 C 77.75 63.917969 77.75 64.082031 77.75 64.25 C 77.832031 66.921875 77.75 69.589844 77.5 72.25 C 76.179688 73.449219 74.929688 74.699219 73.75 76 C 71.628906 76.949219 69.628906 78.03125 67.75 79.25 C 65.46875 79.96875 63.300781 79.800781 61.25 78.75 C 62.691406 78.902344 64.027344 78.738281 65.25 78.25 C 70.972656 77.195312 74.640625 73.859375 76.25 68.25 C 76.742188 66.519531 76.90625 64.683594 76.75 62.75 Z M 76.75 62.75 "/>
<path style=" stroke:none;fill-rule:evenodd;fill:rgb(40.392157%,87.843137%,95.294118%);fill-opacity:1;" d="M 46.75 70.75 C 47.859375 70.589844 48.777344 70.921875 49.5 71.75 C 50.222656 75.84375 48.722656 76.84375 45 74.75 C 45.15625 73.269531 45.738281 71.9375 46.75 70.75 Z M 46.75 70.75 "/>
<path style=" stroke:none;fill-rule:evenodd;fill:rgb(54.901961%,85.882353%,92.156863%);fill-opacity:1;" d="M 76.75 46.25 C 75.339844 47.242188 74.175781 48.492188 73.25 50 C 73.824219 51.15625 74.660156 52.074219 75.75 52.75 C 75.671875 53.4375 75.753906 54.101562 76 54.75 C 77.960938 56.425781 79.210938 58.507812 79.75 61 C 79.207031 62.925781 79.289062 64.84375 80 66.75 C 82.046875 74.597656 79.128906 78.929688 71.25 79.75 C 70.003906 79.933594 69.671875 79.601562 70.25 78.75 C 77.875 76.480469 80.375 71.648438 77.75 64.25 C 77.75 64.082031 77.75 63.917969 77.75 63.75 C 77.597656 62.238281 77.347656 60.738281 77 59.25 C 75.5 57.75 74 56.25 72.5 54.75 C 69.601562 49.882812 71.015625 47.046875 76.75 46.25 Z M 76.75 46.25 "/>
<path style=" stroke:none;fill-rule:evenodd;fill:rgb(60%,48.627451%,47.45098%);fill-opacity:1;" d="M 39.75 79.75 C 38.746094 79.757812 37.746094 79.925781 36.75 80.25 C 36.195312 80.222656 35.695312 80.054688 35.25 79.75 C 34.753906 79.792969 34.335938 79.625 34 79.25 C 33.890625 78.53125 33.640625 77.863281 33.25 77.25 C 32.957031 77.355469 32.707031 77.523438 32.5 77.75 C 32.167969 74.167969 30.25 72.167969 26.75 71.75 C 28.949219 71.539062 31.117188 71.289062 33.25 71 C 34.5625 72.703125 35.226562 74.621094 35.25 76.75 C 37.011719 77.339844 38.511719 78.339844 39.75 79.75 Z M 39.75 79.75 "/>
<path style=" stroke:none;fill-rule:evenodd;fill:rgb(12.156863%,55.294118%,67.45098%);fill-opacity:1;" d="M 77.75 64.25 C 80.375 71.648438 77.875 76.480469 70.25 78.75 C 69.441406 79.019531 68.609375 79.183594 67.75 79.25 C 69.628906 78.03125 71.628906 76.949219 73.75 76 C 74.929688 74.699219 76.179688 73.449219 77.5 72.25 C 77.75 69.589844 77.832031 66.921875 77.75 64.25 Z M 77.75 64.25 "/>
<path style=" stroke:none;fill-rule:evenodd;fill:rgb(23.137255%,25.882353%,34.509804%);fill-opacity:1;" d="M 58.25 62.25 C 58.582031 62.25 58.917969 62.25 59.25 62.25 C 55.945312 69.71875 58.277344 74.304688 66.25 76 C 64.515625 76.789062 62.679688 76.957031 60.75 76.5 C 59.445312 76.105469 58.445312 75.355469 57.75 74.25 C 58.046875 74.132812 58.214844 73.882812 58.25 73.5 C 57.230469 71.011719 56.730469 68.429688 56.75 65.75 C 57.113281 64.523438 57.613281 63.355469 58.25 62.25 Z M 58.25 62.25 "/>
<use xlink:href="#surface23" mask="url(#mask6)"/>
<path style=" stroke:none;fill-rule:evenodd;fill:rgb(89.019608%,90.588235%,85.882353%);fill-opacity:1;" d="M 23.75 71.75 C 24.417969 71.75 25.082031 71.75 25.75 71.75 C 25.46875 72.953125 25.21875 74.121094 25 75.25 C 26.601562 74.152344 28.351562 73.738281 30.25 74 C 32.191406 76.34375 32.027344 78.59375 29.75 80.75 C 27.878906 82.183594 25.878906 83.351562 23.75 84.25 C 21.742188 84.332031 19.742188 84.25 17.75 84 C 15.722656 83.492188 14.054688 82.492188 12.75 81 C 15.113281 76.398438 18.78125 73.3125 23.75 71.75 Z M 23.75 71.75 "/>
<path style=" stroke:none;fill-rule:evenodd;fill:rgb(49.411765%,85.490196%,94.901961%);fill-opacity:1;" d="M 57.75 78.75 C 57.804688 79.058594 57.972656 79.308594 58.25 79.5 C 53.566406 80.003906 48.980469 79.589844 44.5 78.25 C 44.050781 78.371094 43.632812 78.539062 43.25 78.75 C 42.109375 78.511719 41.109375 78.011719 40.25 77.25 C 40.082031 76.582031 39.917969 75.917969 39.75 75.25 C 38.890625 74.039062 38.476562 72.707031 38.5 71.25 C 43.734375 76.636719 50.152344 79.136719 57.75 78.75 Z M 57.75 78.75 "/>
<path style=" stroke:none;fill-rule:evenodd;fill:rgb(60%,58.039216%,56.078431%);fill-opacity:1;" d="M 23.25 70.75 C 24.082031 70.75 24.917969 70.75 25.75 70.75 C 25.917969 71.25 26.25 71.582031 26.75 71.75 C 30.25 72.167969 32.167969 74.167969 32.5 77.75 C 32.707031 77.523438 32.957031 77.355469 33.25 77.25 C 33.640625 77.863281 33.890625 78.53125 34 79.25 C 34.335938 79.625 34.753906 79.792969 35.25 79.75 C 33.679688 80.394531 32.011719 80.894531 30.25 81.25 C 30.25 80.917969 30.082031 80.75 29.75 80.75 C 32.027344 78.59375 32.191406 76.34375 30.25 74 C 28.351562 73.738281 26.601562 74.152344 25 75.25 C 25.21875 74.121094 25.46875 72.953125 25.75 71.75 C 25.082031 71.75 24.417969 71.75 23.75 71.75 C 23.582031 71.417969 23.417969 71.082031 23.25 70.75 Z M 23.25 70.75 "/>
<path style=" stroke:none;fill-rule:evenodd;fill:rgb(37.647059%,69.803922%,81.568627%);fill-opacity:1;" d="M 57.75 77.25 C 58.730469 78.15625 59.898438 78.65625 61.25 78.75 C 63.300781 79.800781 65.46875 79.96875 67.75 79.25 C 68.609375 79.183594 69.441406 79.019531 70.25 78.75 C 69.671875 79.601562 70.003906 79.933594 71.25 79.75 C 69.511719 80.160156 67.679688 80.410156 65.75 80.5 C 68.078125 80.75 70.410156 80.832031 72.75 80.75 C 71.007812 81.082031 69.175781 81.25 67.25 81.25 C 60.75 80.964844 54.25 80.714844 47.75 80.5 C 46.140625 80.050781 44.640625 79.464844 43.25 78.75 C 43.632812 78.539062 44.050781 78.371094 44.5 78.25 C 48.980469 79.589844 53.566406 80.003906 58.25 79.5 C 57.972656 79.308594 57.804688 79.058594 57.75 78.75 C 57.75 78.25 57.75 77.75 57.75 77.25 Z M 57.75 77.25 "/>
<path style=" stroke:none;fill-rule:evenodd;fill:rgb(63.529412%,60%,56.470588%);fill-opacity:1;" d="M 36.75 80.25 C 37.746094 79.925781 38.746094 79.757812 39.75 79.75 C 41.5625 80.742188 43.394531 81.574219 45.25 82.25 C 43.28125 83.234375 41.28125 84.234375 39.25 85.25 C 38.84375 84.117188 38.59375 82.949219 38.5 81.75 C 38.121094 80.96875 37.539062 80.46875 36.75 80.25 Z M 36.75 80.25 "/>
<path style=" stroke:none;fill-rule:evenodd;fill:rgb(58.431373%,49.803922%,45.490196%);fill-opacity:1;" d="M 46.25 82.25 C 47.867188 82.816406 49.535156 83.234375 51.25 83.5 C 52.25 84.71875 52.414062 85.96875 51.75 87.25 C 50.15625 86.292969 48.324219 85.960938 46.25 86.25 C 46.25 84.917969 46.25 83.582031 46.25 82.25 Z M 46.25 82.25 "/>
<use xlink:href="#surface26" mask="url(#mask7)"/>
<path style=" stroke:none;fill-rule:evenodd;fill:rgb(87.843137%,87.843137%,83.529412%);fill-opacity:1;" d="M 35.25 79.75 C 35.695312 80.054688 36.195312 80.222656 36.75 80.25 C 37.539062 80.46875 38.121094 80.96875 38.5 81.75 C 38.59375 82.949219 38.84375 84.117188 39.25 85.25 C 41.28125 84.234375 43.28125 83.234375 45.25 82.25 C 45.582031 82.25 45.917969 82.25 46.25 82.25 C 46.25 83.582031 46.25 84.917969 46.25 86.25 C 46.355469 87.191406 46.855469 87.859375 47.75 88.25 C 46.957031 90.386719 46.289062 92.550781 45.75 94.75 C 45.25 95.417969 44.75 96.082031 44.25 96.75 C 43.1875 96.484375 42.4375 95.816406 42 94.75 C 40.824219 92.386719 40.15625 89.886719 40 87.25 C 36.867188 90.105469 33.285156 92.105469 29.25 93.25 C 29.167969 89.914062 29.25 86.578125 29.5 83.25 C 29.605469 82.472656 29.855469 81.804688 30.25 81.25 C 32.011719 80.894531 33.679688 80.394531 35.25 79.75 Z M 35.25 79.75 "/>
<path style=" stroke:none;fill-rule:evenodd;fill:rgb(57.254902%,51.764706%,49.411765%);fill-opacity:1;" d="M 59.25 92.75 C 59.898438 90.441406 59.398438 88.359375 57.75 86.5 C 56.265625 86.414062 54.847656 86.332031 53.5 86.25 C 53.269531 86.546875 53.183594 86.878906 53.25 87.25 C 52.601562 86.152344 52.601562 84.988281 53.25 83.75 C 54.71875 83.210938 56.21875 83.128906 57.75 83.5 C 58.71875 85.851562 59.882812 88.101562 61.25 90.25 C 60.695312 91.210938 60.027344 92.042969 59.25 92.75 Z M 59.25 92.75 "/>
<path style=" stroke:none;fill-rule:evenodd;fill:rgb(33.333333%,67.058824%,77.254902%);fill-opacity:1;" d="M 76.25 84.75 C 74.21875 89.613281 70.550781 91.363281 65.25 90 C 62.597656 88.949219 60.929688 87.03125 60.25 84.25 C 60.625 83.714844 61.125 83.628906 61.75 84 C 63.082031 85.167969 64.417969 86.332031 65.75 87.5 C 69.996094 88.417969 73.414062 87.167969 76 83.75 C 76.230469 84.046875 76.316406 84.378906 76.25 84.75 Z M 76.25 84.75 "/>
<path style=" stroke:none;fill-rule:evenodd;fill:rgb(6.27451%,37.254902%,47.45098%);fill-opacity:1;" d="M 76.25 84.75 C 76.316406 84.378906 76.230469 84.046875 76 83.75 C 73.414062 87.167969 69.996094 88.417969 65.75 87.5 C 64.417969 86.332031 63.082031 85.167969 61.75 84 C 61.125 83.628906 60.625 83.714844 60.25 84.25 C 59.976562 84.21875 59.8125 84.054688 59.75 83.75 C 62.652344 83.277344 65.570312 83.277344 68.5 83.75 C 71.179688 83.730469 73.765625 83.230469 76.25 82.25 C 76.894531 83.148438 76.894531 83.984375 76.25 84.75 Z M 76.25 84.75 "/>
<path style=" stroke:none;fill-rule:evenodd;fill:rgb(88.627451%,85.098039%,80.784314%);fill-opacity:1;" d="M 59.25 92.75 C 58.800781 93.953125 58.050781 94.953125 57 95.75 C 54.652344 93.390625 53.402344 90.554688 53.25 87.25 C 53.183594 86.878906 53.269531 86.546875 53.5 86.25 C 54.847656 86.332031 56.265625 86.414062 57.75 86.5 C 59.398438 88.359375 59.898438 90.441406 59.25 92.75 Z M 59.25 92.75 "/>
<path style=" stroke:none;fill-rule:evenodd;fill:rgb(78.823529%,78.431373%,74.509804%);fill-opacity:1;" d="M 46.25 86.25 C 48.324219 85.960938 50.15625 86.292969 51.75 87.25 C 51.464844 88.128906 51.046875 88.960938 50.5 89.75 C 49.164062 91.667969 47.582031 93.332031 45.75 94.75 C 46.289062 92.550781 46.957031 90.386719 47.75 88.25 C 46.855469 87.859375 46.355469 87.191406 46.25 86.25 Z M 46.25 86.25 "/>
<use xlink:href="#surface29" mask="url(#mask8)"/>
<use xlink:href="#surface32" mask="url(#mask9)"/>
</g>
</svg>
