<?xml version="1.0" encoding="UTF-8"?>
<svg xmlns="http://www.w3.org/2000/svg" xmlns:xlink="http://www.w3.org/1999/xlink" width="px" height="px" viewBox="0 0 114 97" version="1.1">
<defs>
<filter id="alpha" filterUnits="objectBoundingBox" x="0%" y="0%" width="100%" height="100%">
  <feColorMatrix type="matrix" in="SourceGraphic" values="0 0 0 0 1 0 0 0 0 1 0 0 0 0 1 0 0 0 1 0"/>
</filter>
<mask id="mask0">
  <g filter="url(#alpha)">
<rect x="0" y="0" width="114" height="97" style="fill:rgb(0%,0%,0%);fill-opacity:0.0392157;stroke:none;"/>
  </g>
</mask>
<clipPath id="clip1">
  <rect x="0" y="0" width="114" height="97"/>
</clipPath>
<g id="surface5" clip-path="url(#clip1)">
<path style=" stroke:none;fill-rule:evenodd;fill:rgb(13.72549%,20.392157%,26.27451%);fill-opacity:1;" d="M 52.519531 -0.25 C 53.183594 -0.25 53.847656 -0.25 54.511719 -0.25 C 54.84375 0.417969 55.175781 0.417969 55.507812 -0.25 C 55.671875 -0.25 55.839844 -0.25 56.003906 -0.25 C 61.351562 0.472656 66.496094 2.054688 71.4375 4.5 C 71.8125 4.835938 71.976562 5.253906 71.933594 5.75 C 65.359375 2.097656 58.386719 0.597656 51.027344 1.25 C 42.007812 2.976562 36.363281 8.308594 34.101562 17.25 C 35.148438 9.777344 39.128906 4.527344 46.046875 1.5 C 48.273438 0.941406 50.433594 0.355469 52.519531 -0.25 Z M 52.519531 -0.25 "/>
</g>
<mask id="mask1">
  <g filter="url(#alpha)">
<rect x="0" y="0" width="114" height="97" style="fill:rgb(0%,0%,0%);fill-opacity:0.992157;stroke:none;"/>
  </g>
</mask>
<clipPath id="clip2">
  <rect x="0" y="0" width="114" height="97"/>
</clipPath>
<g id="surface8" clip-path="url(#clip2)">
<path style=" stroke:none;fill-rule:evenodd;fill:rgb(4.313725%,3.137255%,3.529412%);fill-opacity:1;" d="M 71.933594 5.75 C 70.90625 6.386719 69.746094 6.804688 68.449219 7 C 70.246094 8.191406 71.988281 9.441406 73.675781 10.75 C 84.90625 5.570312 91.875 9.070312 94.585938 21.25 C 96.984375 22.578125 98.558594 24.578125 99.3125 27.25 C 99.644531 27.417969 99.976562 27.582031 100.308594 27.75 C 106.875 24.210938 109.53125 26.046875 108.273438 33.25 C 109.601562 34.164062 110.679688 35.332031 111.511719 36.75 C 111.683594 39.140625 112.097656 41.476562 112.753906 43.75 C 112.785156 45.042969 112.453125 46.210938 111.761719 47.25 C 112.054688 50.589844 112.222656 53.925781 112.257812 57.25 C 112.085938 60.335938 111.585938 63.335938 110.765625 66.25 C 109.960938 66.519531 109.128906 66.683594 108.273438 66.75 C 108.464844 69.148438 108.214844 71.480469 107.527344 73.75 C 106.96875 74.472656 106.222656 74.804688 105.289062 74.75 C 103.570312 74.429688 101.996094 73.761719 100.558594 72.75 C 99.34375 76.550781 97.101562 79.550781 93.839844 81.75 C 93.34375 81.707031 92.929688 81.875 92.59375 82.25 C 92.402344 84.328125 91.90625 86.328125 91.101562 88.25 C 89.589844 89.851562 88.011719 91.351562 86.371094 92.75 C 85.992188 93.132812 85.492188 93.382812 84.878906 93.5 C 80.851562 94.371094 77.203125 93.621094 73.925781 91.25 C 73.527344 91.023438 73.363281 90.6875 73.429688 90.25 C 73.449219 89.621094 73.199219 89.121094 72.679688 88.75 C 71.011719 90.027344 69.4375 90.027344 67.953125 88.75 C 69.246094 87.761719 70.574219 86.761719 71.933594 85.75 C 72.597656 85.417969 72.597656 85.082031 71.933594 84.75 C 67.179688 85.648438 62.53125 85.234375 57.996094 83.5 C 54.496094 81.074219 51.175781 78.40625 48.039062 75.5 C 48.335938 75.269531 48.667969 75.183594 49.035156 75.25 C 49.53125 75.25 50.03125 75.25 50.527344 75.25 C 55.226562 76.144531 59.875 75.726562 64.46875 74 C 63.289062 73.78125 62.128906 73.53125 60.984375 73.25 C 55.488281 71.234375 51.175781 67.734375 48.039062 62.75 C 48.761719 62.347656 49.589844 62.097656 50.527344 62 C 49.699219 60.5 48.539062 59.332031 47.042969 58.5 C 47.855469 58.253906 48.6875 58.171875 49.53125 58.25 C 51.359375 58.25 53.183594 58.25 55.007812 58.25 C 58.261719 58.328125 61.414062 57.828125 64.46875 56.75 C 65.6875 56.113281 66.847656 55.363281 67.953125 54.5 C 62.390625 54.253906 57.660156 52.167969 53.765625 48.25 C 53.417969 47.78125 53.503906 47.449219 54.011719 47.25 C 55.351562 47.332031 56.679688 47.25 57.996094 47 C 55.023438 45.285156 52.78125 42.867188 51.273438 39.75 C 49.847656 36.105469 48.769531 32.355469 48.039062 28.5 C 47.835938 28.027344 47.503906 27.695312 47.042969 27.5 C 47.6875 27.253906 48.351562 27.171875 49.035156 27.25 C 51.5625 27.300781 53.886719 27.96875 56.003906 29.25 C 57.957031 30.457031 59.699219 31.957031 61.230469 33.75 C 61.460938 33.453125 61.546875 33.121094 61.480469 32.75 C 61.5625 30.742188 61.480469 28.742188 61.230469 26.75 C 59.886719 24 58.476562 21.332031 57 18.75 C 58.09375 18.21875 59.257812 17.882812 60.484375 17.75 C 62.132812 17.472656 63.789062 17.308594 65.460938 17.25 C 68.628906 17.539062 71.78125 17.789062 74.921875 18 C 74.355469 17.011719 73.691406 16.097656 72.929688 15.25 C 73.042969 13.492188 72.210938 12.15625 70.441406 11.25 C 67.332031 9.234375 64.015625 7.652344 60.484375 6.5 C 61.589844 5.863281 62.75 5.363281 63.96875 5 C 61.804688 3.878906 59.480469 3.296875 57 3.25 C 56.835938 3.25 56.667969 3.25 56.503906 3.25 C 54.605469 2.839844 52.613281 2.589844 50.527344 2.5 C 50.363281 2.332031 50.195312 2.167969 50.03125 2 C 50.488281 1.859375 50.816406 1.609375 51.027344 1.25 C 58.386719 0.597656 65.359375 2.097656 71.933594 5.75 Z M 71.933594 5.75 "/>
</g>
<mask id="mask2">
  <g filter="url(#alpha)">
<rect x="0" y="0" width="114" height="97" style="fill:rgb(0%,0%,0%);fill-opacity:0.0509804;stroke:none;"/>
  </g>
</mask>
<clipPath id="clip3">
  <rect x="0" y="0" width="114" height="97"/>
</clipPath>
<g id="surface11" clip-path="url(#clip3)">
<path style=" stroke:none;fill-rule:evenodd;fill:rgb(14.117647%,18.431373%,23.921569%);fill-opacity:1;" d="M 71.933594 5.75 C 72.203125 5.78125 72.371094 5.945312 72.433594 6.25 C 71.933594 6.667969 71.4375 7.082031 70.9375 7.5 C 71.84375 8.371094 72.839844 9.121094 73.925781 9.75 C 84.882812 4.695312 92.101562 8.195312 95.582031 20.25 C 97.347656 22.191406 98.925781 24.273438 100.308594 26.5 C 101.699219 26.1875 103.109375 25.773438 104.542969 25.25 C 108.953125 26.023438 110.53125 28.605469 109.269531 33 C 112.269531 34.691406 113.511719 37.273438 113.003906 40.75 C 113.144531 41.207031 113.390625 41.542969 113.75 41.75 C 113.75 43.082031 113.75 44.417969 113.75 45.75 C 112.546875 46.644531 112.546875 47.476562 113.75 48.25 C 113.75 49.582031 113.75 50.917969 113.75 52.25 C 112.789062 53.660156 112.789062 55.160156 113.75 56.75 C 113.75 56.917969 113.75 57.082031 113.75 57.25 C 112.625 59.636719 112.210938 61.972656 112.507812 64.25 C 112.257812 65.273438 111.675781 65.9375 110.765625 66.25 C 111.585938 63.335938 112.085938 60.335938 112.257812 57.25 C 112.222656 53.925781 112.054688 50.589844 111.761719 47.25 C 112.453125 46.210938 112.785156 45.042969 112.753906 43.75 C 112.097656 41.476562 111.683594 39.140625 111.511719 36.75 C 110.679688 35.332031 109.601562 34.164062 108.273438 33.25 C 109.53125 26.046875 106.875 24.210938 100.308594 27.75 C 99.976562 27.582031 99.644531 27.417969 99.3125 27.25 C 98.558594 24.578125 96.984375 22.578125 94.585938 21.25 C 91.875 9.070312 84.90625 5.570312 73.675781 10.75 C 71.988281 9.441406 70.246094 8.191406 68.449219 7 C 69.746094 6.804688 70.90625 6.386719 71.933594 5.75 Z M 71.933594 5.75 "/>
</g>
<mask id="mask3">
  <g filter="url(#alpha)">
<rect x="0" y="0" width="114" height="97" style="fill:rgb(0%,0%,0%);fill-opacity:0.00392157;stroke:none;"/>
  </g>
</mask>
<clipPath id="clip4">
  <rect x="0" y="0" width="114" height="97"/>
</clipPath>
<g id="surface14" clip-path="url(#clip4)">
<path style=" stroke:none;fill-rule:evenodd;fill:rgb(13.72549%,20.784314%,26.27451%);fill-opacity:1;" d="M 34.101562 17.75 C 32.785156 21.730469 31.457031 25.730469 30.117188 29.75 C 27.988281 31.136719 26.082031 32.804688 24.394531 34.75 C 22.109375 38.839844 19.953125 43.003906 17.921875 47.25 C 13.714844 53.492188 7.824219 56.824219 0.25 57.25 C 0.582031 56.164062 1.160156 55.996094 1.992188 56.75 C 4.574219 55.914062 7.148438 54.996094 9.707031 54 C 12.011719 52.546875 14.085938 50.796875 15.929688 48.75 C 18.679688 44.226562 21.167969 39.558594 23.398438 34.75 C 25.535156 32.585938 27.691406 30.421875 29.867188 28.25 C 31.027344 24.597656 32.4375 21.097656 34.101562 17.75 Z M 34.101562 17.75 "/>
</g>
<mask id="mask4">
  <g filter="url(#alpha)">
<rect x="0" y="0" width="114" height="97" style="fill:rgb(0%,0%,0%);fill-opacity:0.996078;stroke:none;"/>
  </g>
</mask>
<clipPath id="clip5">
  <rect x="0" y="0" width="114" height="97"/>
</clipPath>
<g id="surface17" clip-path="url(#clip5)">
<path style=" stroke:none;fill-rule:evenodd;fill:rgb(3.137255%,5.490196%,7.45098%);fill-opacity:1;" d="M 51.027344 1.25 C 50.816406 1.609375 50.488281 1.859375 50.03125 2 C 50.195312 2.167969 50.363281 2.332031 50.527344 2.5 C 52.613281 2.589844 54.605469 2.839844 56.503906 3.25 C 47.980469 2.335938 41.839844 5.667969 38.082031 13.25 C 36.808594 15.53125 36.0625 18.03125 35.84375 20.75 C 34.5625 21.988281 33.816406 23.488281 33.601562 25.25 C 32.792969 27.113281 32.292969 29.113281 32.109375 31.25 C 28.429688 33.113281 25.773438 35.945312 24.144531 39.75 C 22.496094 43.398438 20.585938 46.898438 18.417969 50.25 C 14.445312 55.074219 9.386719 57.992188 3.234375 59 C 3.507812 59.359375 3.839844 59.609375 4.230469 59.75 C 4.457031 60.230469 4.789062 60.644531 5.226562 61 C 11.816406 64.816406 18.617188 65.230469 25.636719 62.25 C 25.105469 65.234375 25.105469 68.234375 25.636719 71.25 C 27.050781 76 28.042969 80.835938 28.625 85.75 C 28.542969 87.425781 28.625 89.089844 28.875 90.75 C 33.09375 86.609375 35.335938 81.609375 35.59375 75.75 C 37.417969 82.261719 41.070312 87.425781 46.546875 91.25 C 51.28125 94.320312 56.425781 95.070312 61.976562 93.5 C 59.804688 93.078125 57.644531 92.578125 55.507812 92 C 58.519531 91.300781 61.503906 90.550781 64.46875 89.75 C 65.671875 89.5625 66.832031 89.226562 67.953125 88.75 C 69.4375 90.027344 71.011719 90.027344 72.679688 88.75 C 73.199219 89.121094 73.449219 89.621094 73.429688 90.25 C 71.179688 90.292969 69.191406 91.042969 67.453125 92.5 C 68.070312 92.617188 68.566406 92.867188 68.949219 93.25 C 68.910156 93.875 68.578125 94.292969 67.953125 94.5 C 63.890625 95.734375 59.742188 96.320312 55.507812 96.25 C 47.628906 96.382812 41.820312 93.046875 38.082031 86.25 C 37.675781 85.09375 37.261719 83.925781 36.839844 82.75 C 35.714844 85.175781 34.46875 87.507812 33.105469 89.75 C 31.425781 92.429688 29.105469 94.429688 26.136719 95.75 C 25.65625 91.15625 25.65625 86.65625 26.136719 82.25 C 25.421875 78.449219 24.429688 74.78125 23.148438 71.25 C 22.851562 69.828125 22.851562 68.328125 23.148438 66.75 C 23.148438 66.25 23.148438 65.75 23.148438 65.25 C 18.332031 65.902344 13.519531 65.902344 8.710938 65.25 C 7.503906 65.238281 6.34375 64.988281 5.226562 64.5 C 3.453125 62.683594 1.628906 60.933594 -0.25 59.25 C -0.25 58.582031 -0.25 57.917969 -0.25 57.25 C -0.0820312 57.25 0.0820312 57.25 0.25 57.25 C 7.824219 56.824219 13.714844 53.492188 17.921875 47.25 C 19.953125 43.003906 22.109375 38.839844 24.394531 34.75 C 26.082031 32.804688 27.988281 31.136719 30.117188 29.75 C 31.457031 25.730469 32.785156 21.730469 34.101562 17.75 C 34.101562 17.582031 34.101562 17.417969 34.101562 17.25 C 36.363281 8.308594 42.007812 2.976562 51.027344 1.25 Z M 51.027344 1.25 "/>
</g>
<mask id="mask5">
  <g filter="url(#alpha)">
<rect x="0" y="0" width="114" height="97" style="fill:rgb(0%,0%,0%);fill-opacity:0.0470588;stroke:none;"/>
  </g>
</mask>
<clipPath id="clip6">
  <rect x="0" y="0" width="114" height="97"/>
</clipPath>
<g id="surface20" clip-path="url(#clip6)">
<path style=" stroke:none;fill-rule:evenodd;fill:rgb(11.764706%,18.823529%,24.313725%);fill-opacity:1;" d="M 8.710938 65.25 C 13.519531 65.902344 18.332031 65.902344 23.148438 65.25 C 23.148438 65.75 23.148438 66.25 23.148438 66.75 C 22.789062 66.539062 22.539062 66.207031 22.402344 65.75 C 21.097656 66.328125 19.773438 66.828125 18.417969 67.25 C 17.136719 67.15625 15.894531 67.15625 14.6875 67.25 C 14.355469 67.167969 14.023438 67.082031 13.691406 67 C 14.1875 66.832031 14.6875 66.667969 15.183594 66.5 C 12.804688 66.554688 10.648438 66.136719 8.710938 65.25 Z M 8.710938 65.25 "/>
</g>
<mask id="mask6">
  <g filter="url(#alpha)">
<rect x="0" y="0" width="114" height="97" style="fill:rgb(0%,0%,0%);fill-opacity:0.0431373;stroke:none;"/>
  </g>
</mask>
<clipPath id="clip7">
  <rect x="0" y="0" width="114" height="97"/>
</clipPath>
<g id="surface23" clip-path="url(#clip7)">
<path style=" stroke:none;fill-rule:evenodd;fill:rgb(13.72549%,19.607843%,23.921569%);fill-opacity:1;" d="M 23.148438 71.25 C 24.429688 74.78125 25.421875 78.449219 26.136719 82.25 C 24.777344 81.078125 24.28125 79.660156 24.640625 78 C 23.472656 75.914062 22.972656 73.664062 23.148438 71.25 Z M 23.148438 71.25 "/>
</g>
<mask id="mask7">
  <g filter="url(#alpha)">
<rect x="0" y="0" width="114" height="97" style="fill:rgb(0%,0%,0%);fill-opacity:0.00784314;stroke:none;"/>
  </g>
</mask>
<clipPath id="clip8">
  <rect x="0" y="0" width="114" height="97"/>
</clipPath>
<g id="surface26" clip-path="url(#clip8)">
<path style=" stroke:none;fill-rule:evenodd;fill:rgb(14.117647%,17.647059%,23.137255%);fill-opacity:1;" d="M 110.765625 66.25 C 110.164062 67.199219 109.585938 68.199219 109.023438 69.25 C 109.230469 75.460938 106.574219 76.960938 101.058594 73.75 C 99.890625 77.621094 97.484375 80.289062 93.839844 81.75 C 97.101562 79.550781 99.34375 76.550781 100.558594 72.75 C 101.996094 73.761719 103.570312 74.429688 105.289062 74.75 C 106.222656 74.804688 106.96875 74.472656 107.527344 73.75 C 108.214844 71.480469 108.464844 69.148438 108.273438 66.75 C 109.128906 66.683594 109.960938 66.519531 110.765625 66.25 Z M 110.765625 66.25 "/>
</g>
<mask id="mask8">
  <g filter="url(#alpha)">
<rect x="0" y="0" width="114" height="97" style="fill:rgb(0%,0%,0%);fill-opacity:0.00392157;stroke:none;"/>
  </g>
</mask>
<clipPath id="clip9">
  <rect x="0" y="0" width="114" height="97"/>
</clipPath>
<g id="surface29" clip-path="url(#clip9)">
<path style=" stroke:none;fill-rule:evenodd;fill:rgb(13.333333%,21.176471%,25.882353%);fill-opacity:1;" d="M 25.140625 82.75 C 25.648438 82.949219 25.734375 83.28125 25.386719 83.75 C 25.15625 83.453125 25.074219 83.121094 25.140625 82.75 Z M 25.140625 82.75 "/>
</g>
<mask id="mask9">
  <g filter="url(#alpha)">
<rect x="0" y="0" width="114" height="97" style="fill:rgb(0%,0%,0%);fill-opacity:0.0627451;stroke:none;"/>
  </g>
</mask>
<clipPath id="clip10">
  <rect x="0" y="0" width="114" height="97"/>
</clipPath>
<g id="surface32" clip-path="url(#clip10)">
<path style=" stroke:none;fill-rule:evenodd;fill:rgb(12.941176%,20%,25.490196%);fill-opacity:1;" d="M 38.082031 86.25 C 37.585938 86.292969 37.171875 86.125 36.839844 85.75 C 36.175781 86.75 35.511719 87.75 34.847656 88.75 C 34.441406 89.410156 33.859375 89.746094 33.105469 89.75 C 34.46875 87.507812 35.714844 85.175781 36.839844 82.75 C 37.261719 83.925781 37.675781 85.09375 38.082031 86.25 Z M 38.082031 86.25 "/>
</g>
<mask id="mask10">
  <g filter="url(#alpha)">
<rect x="0" y="0" width="114" height="97" style="fill:rgb(0%,0%,0%);fill-opacity:0.0784314;stroke:none;"/>
  </g>
</mask>
<clipPath id="clip11">
  <rect x="0" y="0" width="114" height="97"/>
</clipPath>
<g id="surface35" clip-path="url(#clip11)">
<path style=" stroke:none;fill-rule:evenodd;fill:rgb(13.72549%,16.862745%,22.352941%);fill-opacity:1;" d="M 93.839844 81.75 C 93.382812 85.320312 91.890625 88.570312 89.359375 91.5 C 88.503906 92.28125 87.507812 92.695312 86.371094 92.75 C 88.011719 91.351562 89.589844 89.851562 91.101562 88.25 C 91.90625 86.328125 92.402344 84.328125 92.59375 82.25 C 92.929688 81.875 93.34375 81.707031 93.839844 81.75 Z M 93.839844 81.75 "/>
</g>
<mask id="mask11">
  <g filter="url(#alpha)">
<rect x="0" y="0" width="114" height="97" style="fill:rgb(0%,0%,0%);fill-opacity:0.027451;stroke:none;"/>
  </g>
</mask>
<clipPath id="clip12">
  <rect x="0" y="0" width="114" height="97"/>
</clipPath>
<g id="surface38" clip-path="url(#clip12)">
<path style=" stroke:none;fill-rule:evenodd;fill:rgb(14.901961%,18.431373%,23.529412%);fill-opacity:1;" d="M 68.949219 93.25 C 69.582031 93.691406 69.582031 94.191406 68.949219 94.75 C 66.605469 95.585938 64.285156 96.253906 61.976562 96.75 C 59.820312 96.75 57.664062 96.75 55.507812 96.75 C 55.507812 96.582031 55.507812 96.417969 55.507812 96.25 C 59.742188 96.320312 63.890625 95.734375 67.953125 94.5 C 68.578125 94.292969 68.910156 93.875 68.949219 93.25 Z M 68.949219 93.25 "/>
</g>
</defs>
<g id="surface1">
<use xlink:href="#surface5" mask="url(#mask0)"/>
<use xlink:href="#surface8" mask="url(#mask1)"/>
<path style=" stroke:none;fill-rule:evenodd;fill:rgb(0%,40.392157%,50.588235%);fill-opacity:1;" d="M 54.011719 5.75 C 54.695312 5.671875 55.359375 5.753906 56.003906 6 C 54.667969 6.390625 53.507812 7.054688 52.519531 8 C 54.84375 8.167969 57.164062 8.332031 59.488281 8.5 C 60.105469 8.617188 60.601562 8.867188 60.984375 9.25 C 57.089844 8.984375 53.273438 8.652344 49.53125 8.25 C 50.90625 7.203125 52.402344 6.367188 54.011719 5.75 Z M 54.011719 5.75 "/>
<path style=" stroke:none;fill-rule:evenodd;fill:rgb(0%,78.039216%,96.078431%);fill-opacity:1;" d="M 56.503906 3.25 C 56.667969 3.25 56.835938 3.25 57 3.25 C 57.042969 3.746094 56.875 4.164062 56.503906 4.5 C 55.511719 4.6875 54.679688 5.101562 54.011719 5.75 C 52.402344 6.367188 50.90625 7.203125 49.53125 8.25 C 48.617188 8.753906 47.953125 9.503906 47.542969 10.5 C 50.003906 10.253906 52.496094 10.253906 55.007812 10.5 C 51.511719 12.757812 48.191406 15.257812 45.050781 18 C 40.886719 19.421875 38.5625 17.839844 38.082031 13.25 C 41.839844 5.667969 47.980469 2.335938 56.503906 3.25 Z M 56.503906 3.25 "/>
<use xlink:href="#surface11" mask="url(#mask2)"/>
<path style=" stroke:none;fill-rule:evenodd;fill:rgb(0%,38.431373%,49.803922%);fill-opacity:1;" d="M 60.984375 9.25 C 63.394531 9.6875 65.714844 10.4375 67.953125 11.5 C 68.367188 12.003906 68.535156 12.589844 68.449219 13.25 C 63.246094 12.519531 58.601562 13.769531 54.511719 17 C 55.734375 17.03125 56.980469 16.949219 58.246094 16.75 C 59.234375 16.785156 59.980469 17.117188 60.484375 17.75 C 59.257812 17.882812 58.09375 18.21875 57 18.75 C 56.152344 18.667969 55.324219 18.753906 54.511719 19 C 53.757812 19.835938 53.425781 20.671875 53.515625 21.5 C 55.246094 23.238281 56.988281 24.988281 58.742188 26.75 C 59.246094 27.511719 59.492188 28.347656 59.488281 29.25 C 57.535156 25.875 54.714844 23.457031 51.027344 22 C 51.847656 20.59375 52.84375 19.34375 54.011719 18.25 C 53.488281 18.046875 52.824219 18.046875 52.023438 18.25 C 51.890625 17.511719 52.058594 16.84375 52.519531 16.25 C 53.882812 15.214844 55.042969 14.046875 56.003906 12.75 C 57.707031 12.3125 59.367188 11.730469 60.984375 11 C 61.316406 10.507812 61.316406 9.921875 60.984375 9.25 Z M 60.984375 9.25 "/>
<path style=" stroke:none;fill-rule:evenodd;fill:rgb(85.490196%,59.215686%,36.470588%);fill-opacity:1;" d="M 86.867188 11.75 C 86.910156 12.246094 86.746094 12.664062 86.371094 13 C 82.789062 13.0625 79.304688 13.644531 75.917969 14.75 C 75.371094 14.199219 75.289062 13.53125 75.667969 12.75 C 79.160156 9.800781 82.894531 9.46875 86.867188 11.75 Z M 86.867188 11.75 "/>
<path style=" stroke:none;fill-rule:evenodd;fill:rgb(1.568627%,14.901961%,21.176471%);fill-opacity:1;" d="M 70.441406 11.25 C 72.210938 12.15625 73.042969 13.492188 72.929688 15.25 C 73.691406 16.097656 74.355469 17.011719 74.921875 18 C 71.78125 17.789062 68.628906 17.539062 65.460938 17.25 C 65.613281 16.925781 65.78125 16.589844 65.960938 16.25 C 64.152344 15.695312 62.324219 15.195312 60.484375 14.75 C 64.292969 13.25 67.941406 13.582031 71.4375 15.75 C 72.101562 14.589844 71.769531 13.757812 70.441406 13.25 C 70.871094 12.636719 70.871094 11.96875 70.441406 11.25 Z M 70.441406 11.25 "/>
<path style=" stroke:none;fill-rule:evenodd;fill:rgb(1.176471%,23.137255%,31.764706%);fill-opacity:1;" d="M 57 3.25 C 59.480469 3.296875 61.804688 3.878906 63.96875 5 C 62.75 5.363281 61.589844 5.863281 60.484375 6.5 C 64.015625 7.652344 67.332031 9.234375 70.441406 11.25 C 70.871094 11.96875 70.871094 12.636719 70.441406 13.25 C 71.769531 13.757812 72.101562 14.589844 71.4375 15.75 C 67.941406 13.582031 64.292969 13.25 60.484375 14.75 C 62.324219 15.195312 64.152344 15.695312 65.960938 16.25 C 65.78125 16.589844 65.613281 16.925781 65.460938 17.25 C 63.789062 17.308594 62.132812 17.472656 60.484375 17.75 C 59.980469 17.117188 59.234375 16.785156 58.246094 16.75 C 56.980469 16.949219 55.734375 17.03125 54.511719 17 C 58.601562 13.769531 63.246094 12.519531 68.449219 13.25 C 68.535156 12.589844 68.367188 12.003906 67.953125 11.5 C 65.714844 10.4375 63.394531 9.6875 60.984375 9.25 C 60.601562 8.867188 60.105469 8.617188 59.488281 8.5 C 57.164062 8.332031 54.84375 8.167969 52.519531 8 C 53.507812 7.054688 54.667969 6.390625 56.003906 6 C 55.359375 5.753906 54.695312 5.671875 54.011719 5.75 C 54.679688 5.101562 55.511719 4.6875 56.503906 4.5 C 56.875 4.164062 57.042969 3.746094 57 3.25 Z M 57 3.25 "/>
<path style=" stroke:none;fill-rule:evenodd;fill:rgb(53.72549%,30.196078%,17.647059%);fill-opacity:1;" d="M 86.867188 11.75 C 88.914062 13.195312 89.910156 15.195312 89.855469 17.75 C 86.050781 16.417969 82.234375 16.417969 78.40625 17.75 C 77.121094 17.1875 76.289062 16.1875 75.917969 14.75 C 79.304688 13.644531 82.789062 13.0625 86.371094 13 C 86.746094 12.664062 86.910156 12.246094 86.867188 11.75 Z M 86.867188 11.75 "/>
<path style=" stroke:none;fill-rule:evenodd;fill:rgb(0%,71.372549%,89.803922%);fill-opacity:1;" d="M 49.53125 8.25 C 53.273438 8.652344 57.089844 8.984375 60.984375 9.25 C 61.316406 9.921875 61.316406 10.507812 60.984375 11 C 59.367188 11.730469 57.707031 12.3125 56.003906 12.75 C 54.308594 13.960938 52.566406 15.128906 50.777344 16.25 C 50.53125 17.066406 50.449219 17.902344 50.527344 18.75 C 51.453125 18.636719 51.867188 18.96875 51.773438 19.75 C 50.484375 20.878906 49.074219 21.796875 47.542969 22.5 C 49.261719 22.589844 50.921875 22.921875 52.519531 23.5 C 51.554688 24.453125 50.390625 24.867188 49.035156 24.75 C 47.273438 24.59375 45.613281 24.761719 44.058594 25.25 C 40.914062 25.039062 37.761719 25.371094 34.597656 26.25 C 33.996094 26.125 33.664062 25.792969 33.601562 25.25 C 33.816406 23.488281 34.5625 21.988281 35.84375 20.75 C 36.0625 18.03125 36.808594 15.53125 38.082031 13.25 C 38.5625 17.839844 40.886719 19.421875 45.050781 18 C 48.191406 15.257812 51.511719 12.757812 55.007812 10.5 C 52.496094 10.253906 50.003906 10.253906 47.542969 10.5 C 47.953125 9.503906 48.617188 8.753906 49.53125 8.25 Z M 49.53125 8.25 "/>
<use xlink:href="#surface14" mask="url(#mask3)"/>
<path style=" stroke:none;fill-rule:evenodd;fill:rgb(83.921569%,67.45098%,47.843137%);fill-opacity:1;" d="M 83.882812 20.25 C 80.800781 20.308594 77.816406 20.722656 74.921875 21.5 C 75.902344 21.746094 76.898438 21.832031 77.910156 21.75 C 75.726562 22.605469 73.40625 22.9375 70.9375 22.75 C 71.074219 23.550781 70.90625 24.214844 70.441406 24.75 C 70.441406 23.917969 70.441406 23.082031 70.441406 22.25 C 68.808594 22.109375 67.234375 22.273438 65.710938 22.75 C 66.058594 27.707031 65.976562 32.542969 65.460938 37.25 C 64.71875 33.652344 63.972656 29.984375 63.222656 26.25 C 62.449219 24.332031 61.539062 22.5 60.484375 20.75 C 61.949219 19.648438 63.605469 19.148438 65.460938 19.25 C 71.660156 20.234375 77.796875 20.566406 83.882812 20.25 Z M 83.882812 20.25 "/>
<path style=" stroke:none;fill-rule:evenodd;fill:rgb(94.901961%,80.392157%,56.078431%);fill-opacity:1;" d="M 83.882812 20.25 C 88.699219 20.085938 92.515625 21.921875 95.332031 25.75 C 95.347656 26.25 95.097656 26.582031 94.585938 26.75 C 93.648438 25.992188 92.570312 25.660156 91.347656 25.75 C 90.460938 25.894531 89.628906 25.726562 88.859375 25.25 C 85.800781 22.394531 82.152344 21.230469 77.910156 21.75 C 76.898438 21.832031 75.902344 21.746094 74.921875 21.5 C 77.816406 20.722656 80.800781 20.308594 83.882812 20.25 Z M 83.882812 20.25 "/>
<path style=" stroke:none;fill-rule:evenodd;fill:rgb(1.176471%,20.784314%,28.627451%);fill-opacity:1;" d="M 57 18.75 C 58.476562 21.332031 59.886719 24 61.230469 26.75 C 61.480469 28.742188 61.5625 30.742188 61.480469 32.75 C 60.699219 31.683594 60.035156 30.515625 59.488281 29.25 C 59.492188 28.347656 59.246094 27.511719 58.742188 26.75 C 56.988281 24.988281 55.246094 23.238281 53.515625 21.5 C 53.425781 20.671875 53.757812 19.835938 54.511719 19 C 55.324219 18.753906 56.152344 18.667969 57 18.75 Z M 57 18.75 "/>
<path style=" stroke:none;fill-rule:evenodd;fill:rgb(2.352941%,60.392157%,74.901961%);fill-opacity:1;" d="M 56.003906 12.75 C 55.042969 14.046875 53.882812 15.214844 52.519531 16.25 C 52.058594 16.84375 51.890625 17.511719 52.023438 18.25 C 52.824219 18.046875 53.488281 18.046875 54.011719 18.25 C 52.84375 19.34375 51.847656 20.59375 51.027344 22 C 54.714844 23.457031 57.535156 25.875 59.488281 29.25 C 60.035156 30.515625 60.699219 31.683594 61.480469 32.75 C 61.546875 33.121094 61.460938 33.453125 61.230469 33.75 C 59.699219 31.957031 57.957031 30.457031 56.003906 29.25 C 55.738281 28.1875 55.074219 27.4375 54.011719 27 C 52.339844 26.195312 50.683594 25.445312 49.035156 24.75 C 50.390625 24.867188 51.554688 24.453125 52.519531 23.5 C 50.921875 22.921875 49.261719 22.589844 47.542969 22.5 C 49.074219 21.796875 50.484375 20.878906 51.773438 19.75 C 51.867188 18.96875 51.453125 18.636719 50.527344 18.75 C 50.449219 17.902344 50.53125 17.066406 50.777344 16.25 C 52.566406 15.128906 54.308594 13.960938 56.003906 12.75 Z M 56.003906 12.75 "/>
<path style=" stroke:none;fill-rule:evenodd;fill:rgb(0.392157%,49.803922%,63.921569%);fill-opacity:1;" d="M 33.601562 25.25 C 33.664062 25.792969 33.996094 26.125 34.597656 26.25 C 37.761719 25.371094 40.914062 25.039062 44.058594 25.25 C 44.355469 29.789062 44.519531 34.289062 44.554688 38.75 C 42.980469 35.839844 41.320312 32.921875 39.578125 30 C 38.523438 30.660156 37.363281 31.324219 36.089844 32 C 34.941406 32.25 33.78125 32.332031 32.605469 32.25 C 32.605469 33.917969 32.605469 35.582031 32.605469 37.25 C 32.671875 37.621094 32.589844 37.953125 32.359375 38.25 C 32.308594 36.738281 31.894531 35.40625 31.113281 34.25 C 31.726562 33.351562 32.058594 32.351562 32.109375 31.25 C 32.292969 29.113281 32.792969 27.113281 33.601562 25.25 Z M 33.601562 25.25 "/>
<path style=" stroke:none;fill-rule:evenodd;fill:rgb(32.54902%,22.745098%,17.254902%);fill-opacity:1;" d="M 91.347656 25.75 C 92.570312 25.660156 93.648438 25.992188 94.585938 26.75 C 95.097656 26.582031 95.347656 26.25 95.332031 25.75 C 96.109375 27.320312 96.9375 28.902344 97.820312 30.5 C 97.246094 31.410156 96.667969 32.328125 96.078125 33.25 C 95.472656 36.339844 95.390625 39.421875 95.828125 42.5 C 95.996094 43.015625 96.328125 43.265625 96.824219 43.25 C 96.472656 43.703125 95.972656 43.867188 95.332031 43.75 C 95.4375 42.660156 95.023438 41.828125 94.085938 41.25 C 93.828125 38.511719 93.328125 35.84375 92.59375 33.25 C 91.355469 32.339844 90.441406 31.175781 89.855469 29.75 C 89.5625 29.855469 89.316406 30.019531 89.109375 30.25 C 88.996094 28.953125 88.746094 27.703125 88.363281 26.5 C 89.460938 26.40625 90.457031 26.15625 91.347656 25.75 Z M 91.347656 25.75 "/>
<path style=" stroke:none;fill-rule:evenodd;fill:rgb(76.078431%,66.666667%,61.176471%);fill-opacity:1;" d="M 104.789062 27.75 C 105.289062 27.75 105.785156 27.75 106.285156 27.75 C 106.285156 29.582031 106.285156 31.417969 106.285156 33.25 C 104.292969 33.25 102.300781 33.25 100.308594 33.25 C 100.230469 32.070312 100.3125 30.90625 100.558594 29.75 C 102.035156 29.132812 103.449219 28.464844 104.789062 27.75 Z M 104.789062 27.75 "/>
<path style=" stroke:none;fill-rule:evenodd;fill:rgb(0%,76.078431%,92.54902%);fill-opacity:1;" d="M 44.554688 38.75 C 44.667969 39.675781 44.335938 40.09375 43.558594 40 C 39.714844 34.8125 39.21875 35.0625 42.066406 40.75 C 42.800781 42.914062 43.878906 44.914062 45.300781 46.75 C 48.90625 50.539062 52.804688 53.957031 57 57 C 56.09375 57.101562 55.429688 57.515625 55.007812 58.25 C 53.183594 58.25 51.359375 58.25 49.53125 58.25 C 44.234375 56.433594 40.085938 53.101562 37.085938 48.25 C 35.179688 45.339844 33.851562 42.175781 33.105469 38.75 C 33.222656 38.105469 33.058594 37.605469 32.605469 37.25 C 32.605469 35.582031 32.605469 33.917969 32.605469 32.25 C 33.78125 32.332031 34.941406 32.25 36.089844 32 C 37.363281 31.324219 38.523438 30.660156 39.578125 30 C 41.320312 32.921875 42.980469 35.839844 44.554688 38.75 Z M 44.554688 38.75 "/>
<path style=" stroke:none;fill-rule:evenodd;fill:rgb(2.745098%,36.862745%,49.803922%);fill-opacity:1;" d="M 32.109375 31.25 C 32.058594 32.351562 31.726562 33.351562 31.113281 34.25 C 28.472656 35.746094 26.148438 37.578125 24.144531 39.75 C 25.773438 35.945312 28.429688 33.113281 32.109375 31.25 Z M 32.109375 31.25 "/>
<path style=" stroke:none;fill-rule:evenodd;fill:rgb(1.176471%,20.392157%,28.235294%);fill-opacity:1;" d="M 49.035156 27.25 C 48.351562 27.171875 47.6875 27.253906 47.042969 27.5 C 47.503906 27.695312 47.835938 28.027344 48.039062 28.5 C 48.769531 32.355469 49.847656 36.105469 51.273438 39.75 C 52.78125 42.867188 55.023438 45.285156 57.996094 47 C 56.679688 47.25 55.351562 47.332031 54.011719 47.25 C 53.527344 45.761719 52.53125 44.761719 51.027344 44.25 C 47.285156 39.0625 45.460938 33.226562 45.550781 26.75 C 46.824219 26.597656 47.984375 26.765625 49.035156 27.25 Z M 49.035156 27.25 "/>
<path style=" stroke:none;fill-rule:evenodd;fill:rgb(78.431373%,70.196078%,65.882353%);fill-opacity:1;" d="M 106.285156 36.25 C 108.691406 35.839844 109.855469 36.839844 109.769531 39.25 C 108.5625 39.402344 107.402344 39.238281 106.285156 38.75 C 105.769531 37.9375 105.769531 37.101562 106.285156 36.25 Z M 106.285156 36.25 "/>
<path style=" stroke:none;fill-rule:evenodd;fill:rgb(0.392157%,61.176471%,74.901961%);fill-opacity:1;" d="M 31.113281 34.25 C 31.894531 35.40625 32.308594 36.738281 32.359375 38.25 C 32.589844 37.953125 32.671875 37.621094 32.605469 37.25 C 33.058594 37.605469 33.222656 38.105469 33.105469 38.75 C 33.160156 47 30.171875 53.917969 24.144531 59.5 C 20.851562 60.765625 17.449219 61.515625 13.9375 61.75 C 10.652344 61.34375 7.414062 60.675781 4.230469 59.75 C 3.839844 59.609375 3.507812 59.359375 3.234375 59 C 9.386719 57.992188 14.445312 55.074219 18.417969 50.25 C 20.585938 46.898438 22.496094 43.398438 24.144531 39.75 C 26.148438 37.578125 28.472656 35.746094 31.113281 34.25 Z M 31.113281 34.25 "/>
<path style=" stroke:none;fill-rule:evenodd;fill:rgb(81.568627%,73.72549%,69.019608%);fill-opacity:1;" d="M 101.804688 36.25 C 102.800781 36.25 103.792969 36.25 104.789062 36.25 C 104.789062 37.25 104.789062 38.25 104.789062 39.25 C 101.847656 39.960938 100.851562 38.960938 101.804688 36.25 Z M 101.804688 36.25 "/>
<path style=" stroke:none;fill-rule:evenodd;fill:rgb(93.333333%,78.039216%,55.294118%);fill-opacity:1;" d="M 57.496094 32.75 C 59.902344 34.75 62.058594 37 63.96875 39.5 C 64.441406 39.742188 64.9375 39.824219 65.460938 39.75 C 66.890625 40.773438 67.96875 42.105469 68.699219 43.75 C 68.835938 45.625 69.25 47.457031 69.941406 49.25 C 70.683594 49.621094 71.433594 49.957031 72.183594 50.25 C 72.835938 52.726562 72.335938 54.890625 70.691406 56.75 C 70.308594 57.53125 70.390625 58.199219 70.9375 58.75 C 69.976562 59.40625 68.980469 60.070312 67.953125 60.75 C 67.46875 61.871094 67.300781 63.039062 67.453125 64.25 C 67.09375 64.039062 66.847656 63.707031 66.707031 63.25 C 65.863281 63.703125 64.949219 63.871094 63.96875 63.75 C 63.96875 64.25 63.96875 64.75 63.96875 65.25 C 64.957031 65.191406 65.785156 65.523438 66.457031 66.25 C 65.867188 66.714844 65.203125 66.882812 64.46875 66.75 C 64.46875 67.582031 64.46875 68.417969 64.46875 69.25 C 63.332031 69.011719 62.335938 68.511719 61.480469 67.75 C 61.425781 67.441406 61.257812 67.191406 60.984375 67 C 61.644531 66.667969 62.308594 66.332031 62.972656 66 C 61.257812 65.296875 60.507812 64.046875 60.734375 62.25 C 63.585938 61.105469 66.492188 60.023438 69.445312 59 C 68.886719 58.875 68.386719 58.625 67.953125 58.25 C 68.863281 57.417969 69.777344 56.582031 70.691406 55.75 C 70.929688 55.277344 71.011719 54.777344 70.9375 54.25 C 71.855469 53.105469 72.019531 51.9375 71.4375 50.75 C 64.941406 47.136719 60.210938 41.800781 57.25 34.75 C 56.867188 33.96875 56.953125 33.300781 57.496094 32.75 Z M 57.496094 32.75 "/>
<path style=" stroke:none;fill-rule:evenodd;fill:rgb(0.392157%,39.215686%,50.980392%);fill-opacity:1;" d="M 49.035156 24.75 C 50.683594 25.445312 52.339844 26.195312 54.011719 27 C 55.074219 27.4375 55.738281 28.1875 56.003906 29.25 C 53.886719 27.96875 51.5625 27.300781 49.035156 27.25 C 47.984375 26.765625 46.824219 26.597656 45.550781 26.75 C 45.460938 33.226562 47.285156 39.0625 51.027344 44.25 C 51.136719 44.835938 50.96875 45.335938 50.527344 45.75 C 48.742188 45.542969 47.164062 44.878906 45.800781 43.75 C 45.601562 43.863281 45.519531 44.03125 45.550781 44.25 C 44.273438 43.179688 43.113281 42.011719 42.066406 40.75 C 39.21875 35.0625 39.714844 34.8125 43.558594 40 C 44.335938 40.09375 44.667969 39.675781 44.554688 38.75 C 44.519531 34.289062 44.355469 29.789062 44.058594 25.25 C 45.613281 24.761719 47.273438 24.59375 49.035156 24.75 Z M 49.035156 24.75 "/>
<path style=" stroke:none;fill-rule:evenodd;fill:rgb(39.607843%,31.372549%,24.705882%);fill-opacity:1;" d="M 77.910156 21.75 C 82.152344 21.230469 85.800781 22.394531 88.859375 25.25 C 89.628906 25.726562 90.460938 25.894531 91.347656 25.75 C 90.457031 26.15625 89.460938 26.40625 88.363281 26.5 C 88.746094 27.703125 88.996094 28.953125 89.109375 30.25 C 89.316406 30.019531 89.5625 29.855469 89.855469 29.75 C 90.441406 31.175781 91.355469 32.339844 92.59375 33.25 C 93.328125 35.84375 93.828125 38.511719 94.085938 41.25 C 95.023438 41.828125 95.4375 42.660156 95.332031 43.75 C 95.167969 43.75 95 43.75 94.835938 43.75 C 92.625 42.246094 91.710938 40.082031 92.097656 37.25 C 91.789062 36.441406 91.292969 35.773438 90.601562 35.25 C 89.96875 40.46875 87.066406 43.46875 81.890625 44.25 C 77.90625 45.097656 74.671875 43.929688 72.183594 40.75 C 71.1875 39.082031 70.191406 37.417969 69.195312 35.75 C 67.855469 33.148438 67.6875 30.480469 68.699219 27.75 C 69.417969 26.804688 69.996094 25.804688 70.441406 24.75 C 70.90625 24.214844 71.074219 23.550781 70.9375 22.75 C 73.40625 22.9375 75.726562 22.605469 77.910156 21.75 Z M 77.910156 21.75 "/>
<path style=" stroke:none;fill-rule:evenodd;fill:rgb(0.784314%,0.392157%,0.392157%);fill-opacity:1;" d="M 77.410156 24.25 C 85.535156 23.523438 89.269531 27.1875 88.613281 35.25 C 86.664062 41.074219 82.765625 42.988281 76.914062 41 C 70.933594 36.929688 69.9375 31.929688 73.925781 26 C 75.132812 25.394531 76.292969 24.808594 77.410156 24.25 Z M 77.410156 24.25 "/>
<path style=" stroke:none;fill-rule:evenodd;fill:rgb(75.294118%,44.705882%,23.529412%);fill-opacity:1;" d="M 57.496094 32.75 C 56.953125 33.300781 56.867188 33.96875 57.25 34.75 C 60.210938 41.800781 64.941406 47.136719 71.4375 50.75 C 71.230469 51.109375 70.898438 51.359375 70.441406 51.5 C 66.320312 52.121094 62.503906 51.289062 58.992188 49 C 60.371094 48.738281 61.699219 48.320312 62.972656 47.75 C 58.992188 45.5 55.921875 42.335938 53.765625 38.25 C 52.613281 35.476562 52.199219 32.644531 52.519531 29.75 C 54.503906 30.292969 56.164062 31.292969 57.496094 32.75 Z M 57.496094 32.75 "/>
<path style=" stroke:none;fill-rule:evenodd;fill:rgb(87.45098%,81.176471%,77.254902%);fill-opacity:1;" d="M 103.296875 41.25 C 106.527344 41.078125 107.523438 42.496094 106.285156 45.5 C 105.300781 45.746094 104.304688 45.832031 103.296875 45.75 C 103.296875 44.25 103.296875 42.75 103.296875 41.25 Z M 103.296875 41.25 "/>
<path style=" stroke:none;fill-rule:evenodd;fill:rgb(83.137255%,76.862745%,73.333333%);fill-opacity:1;" d="M 108.273438 41.25 C 109.03125 41.253906 109.609375 41.589844 110.015625 42.25 C 110.347656 43.417969 110.347656 44.582031 110.015625 45.75 C 109.355469 46.417969 108.691406 46.417969 108.027344 45.75 C 107.660156 44.203125 107.742188 42.703125 108.273438 41.25 Z M 108.273438 41.25 "/>
<path style=" stroke:none;fill-rule:evenodd;fill:rgb(96.862745%,85.882353%,65.882353%);fill-opacity:1;" d="M 70.441406 24.75 C 69.996094 25.804688 69.417969 26.804688 68.699219 27.75 C 67.6875 30.480469 67.855469 33.148438 69.195312 35.75 C 70.191406 37.417969 71.1875 39.082031 72.183594 40.75 C 74.671875 43.929688 77.90625 45.097656 81.890625 44.25 C 80.828125 44.65625 79.667969 44.90625 78.40625 45 C 80.398438 45.167969 82.386719 45.332031 84.378906 45.5 C 83.917969 46.199219 83.917969 46.949219 84.378906 47.75 C 83.882812 49.082031 83.382812 50.417969 82.886719 51.75 C 84.085938 56.039062 86.660156 59.207031 90.601562 61.25 C 91.171875 63.050781 91.585938 64.882812 91.847656 66.75 C 91.746094 68.167969 91.414062 69.5 90.851562 70.75 C 90.699219 68.675781 90.617188 66.511719 90.601562 64.25 C 89.441406 62.5 88.03125 61 86.371094 59.75 C 83.324219 58.039062 80.007812 57.375 76.414062 57.75 C 75.691406 56.003906 74.945312 54.167969 74.175781 52.25 C 73.644531 54.5 72.898438 56.667969 71.933594 58.75 C 71.601562 58.75 71.269531 58.75 70.9375 58.75 C 70.390625 58.199219 70.308594 57.53125 70.691406 56.75 C 72.335938 54.890625 72.835938 52.726562 72.183594 50.25 C 71.433594 49.957031 70.683594 49.621094 69.941406 49.25 C 69.25 47.457031 68.835938 45.625 68.699219 43.75 C 67.96875 42.105469 66.890625 40.773438 65.460938 39.75 C 65.460938 38.917969 65.460938 38.082031 65.460938 37.25 C 65.976562 32.542969 66.058594 27.707031 65.710938 22.75 C 67.234375 22.273438 68.808594 22.109375 70.441406 22.25 C 70.441406 23.082031 70.441406 23.917969 70.441406 24.75 Z M 70.441406 24.75 "/>
<path style=" stroke:none;fill-rule:evenodd;fill:rgb(4.705882%,3.529412%,2.745098%);fill-opacity:1;" d="M 93.839844 46.25 C 95.054688 46.308594 96.050781 46.808594 96.824219 47.75 C 96.195312 49.628906 94.867188 50.710938 92.84375 51 C 96.507812 51.703125 97.339844 53.453125 95.332031 56.25 C 94.835938 56.25 94.335938 56.25 93.839844 56.25 C 84.550781 52.9375 84.550781 49.605469 93.839844 46.25 Z M 93.839844 46.25 "/>
<path style=" stroke:none;fill-rule:evenodd;fill:rgb(83.529412%,78.431373%,75.294118%);fill-opacity:1;" d="M 108.273438 47.75 C 109.992188 47.785156 110.65625 48.703125 110.265625 50.5 C 110.71875 52.628906 109.886719 53.546875 107.777344 53.25 C 107.648438 51.367188 107.816406 49.53125 108.273438 47.75 Z M 108.273438 47.75 "/>
<path style=" stroke:none;fill-rule:evenodd;fill:rgb(86.666667%,79.607843%,75.294118%);fill-opacity:1;" d="M 103.296875 47.75 C 104.292969 47.75 105.289062 47.75 106.285156 47.75 C 106.285156 49.417969 106.285156 51.082031 106.285156 52.75 C 105.121094 52.75 103.960938 52.75 102.800781 52.75 C 102.675781 51.03125 102.84375 49.363281 103.296875 47.75 Z M 103.296875 47.75 "/>
<path style=" stroke:none;fill-rule:evenodd;fill:rgb(94.117647%,81.176471%,65.098039%);fill-opacity:1;" d="M 96.824219 47.75 C 97.644531 47.644531 98.390625 47.808594 99.066406 48.25 C 99.332031 52.042969 99.746094 55.792969 100.308594 59.5 C 99.695312 59.617188 99.195312 59.867188 98.816406 60.25 C 98.597656 60.21875 98.433594 60.300781 98.320312 60.5 C 100.132812 61.695312 100.296875 63.113281 98.816406 64.75 C 98.214844 63.34375 97.46875 62.011719 96.578125 60.75 C 96.332031 60.101562 96.25 59.4375 96.328125 58.75 C 97.0625 58.882812 97.726562 58.714844 98.320312 58.25 C 97.574219 57.164062 96.578125 56.496094 95.332031 56.25 C 97.339844 53.453125 96.507812 51.703125 92.84375 51 C 94.867188 50.710938 96.195312 49.628906 96.824219 47.75 Z M 96.824219 47.75 "/>
<path style=" stroke:none;fill-rule:evenodd;fill:rgb(83.137255%,64.705882%,47.058824%);fill-opacity:1;" d="M 98.816406 60.25 C 99.195312 59.867188 99.695312 59.617188 100.308594 59.5 C 99.746094 55.792969 99.332031 52.042969 99.066406 48.25 C 98.390625 47.808594 97.644531 47.644531 96.824219 47.75 C 96.050781 46.808594 95.054688 46.308594 93.839844 46.25 C 94.570312 45.609375 94.902344 44.777344 94.835938 43.75 C 95 43.75 95.167969 43.75 95.332031 43.75 C 95.972656 43.867188 96.472656 43.703125 96.824219 43.25 C 98.199219 42.453125 99.113281 41.285156 99.5625 39.75 C 99.773438 40.335938 100.101562 40.835938 100.558594 41.25 C 100.808594 47.582031 100.890625 53.914062 100.808594 60.25 C 100.144531 60.25 99.480469 60.25 98.816406 60.25 Z M 98.816406 60.25 "/>
<path style=" stroke:none;fill-rule:evenodd;fill:rgb(1.568627%,29.019608%,41.568627%);fill-opacity:1;" d="M 51.027344 44.25 C 52.53125 44.761719 53.527344 45.761719 54.011719 47.25 C 53.503906 47.449219 53.417969 47.78125 53.765625 48.25 C 57.660156 52.167969 62.390625 54.253906 67.953125 54.5 C 66.847656 55.363281 65.6875 56.113281 64.46875 56.75 C 60.613281 56.265625 56.964844 55.015625 53.515625 53 C 50.574219 50.296875 47.917969 47.382812 45.550781 44.25 C 45.519531 44.03125 45.601562 43.863281 45.800781 43.75 C 47.164062 44.878906 48.742188 45.542969 50.527344 45.75 C 50.96875 45.335938 51.136719 44.835938 51.027344 44.25 Z M 51.027344 44.25 "/>
<path style=" stroke:none;fill-rule:evenodd;fill:rgb(36.078431%,28.235294%,16.862745%);fill-opacity:1;" d="M 75.917969 46.25 C 76.746094 46.25 77.578125 46.25 78.40625 46.25 C 78.488281 49.421875 78.40625 52.585938 78.15625 55.75 C 77.480469 56.191406 76.734375 56.355469 75.917969 56.25 C 75.917969 52.917969 75.917969 49.582031 75.917969 46.25 Z M 75.917969 46.25 "/>
<path style=" stroke:none;fill-rule:evenodd;fill:rgb(1.960784%,64.705882%,80%);fill-opacity:1;" d="M 42.066406 40.75 C 43.113281 42.011719 44.273438 43.179688 45.550781 44.25 C 47.917969 47.382812 50.574219 50.296875 53.515625 53 C 56.964844 55.015625 60.613281 56.265625 64.46875 56.75 C 61.414062 57.828125 58.261719 58.328125 55.007812 58.25 C 55.429688 57.515625 56.09375 57.101562 57 57 C 52.804688 53.957031 48.90625 50.539062 45.300781 46.75 C 43.878906 44.914062 42.800781 42.914062 42.066406 40.75 Z M 42.066406 40.75 "/>
<path style=" stroke:none;fill-rule:evenodd;fill:rgb(3.137255%,11.372549%,16.862745%);fill-opacity:1;" d="M 37.085938 48.25 C 40.085938 53.101562 44.234375 56.433594 49.53125 58.25 C 48.6875 58.171875 47.855469 58.253906 47.042969 58.5 C 48.539062 59.332031 49.699219 60.5 50.527344 62 C 49.589844 62.097656 48.761719 62.347656 48.039062 62.75 C 45.699219 60.867188 43.710938 58.703125 42.066406 56.25 C 39.765625 54.191406 37.941406 51.777344 36.589844 49 C 36.625 48.617188 36.789062 48.367188 37.085938 48.25 Z M 37.085938 48.25 "/>
<path style=" stroke:none;fill-rule:evenodd;fill:rgb(78.039216%,72.54902%,69.803922%);fill-opacity:1;" d="M 108.273438 54.75 C 109.886719 54.617188 110.550781 55.367188 110.265625 57 C 110.378906 58.800781 109.550781 59.71875 107.777344 59.75 C 107.65625 58.03125 107.820312 56.363281 108.273438 54.75 Z M 108.273438 54.75 "/>
<path style=" stroke:none;fill-rule:evenodd;fill:rgb(84.705882%,78.431373%,74.901961%);fill-opacity:1;" d="M 103.296875 55.25 C 104.292969 55.25 105.289062 55.25 106.285156 55.25 C 106.367188 56.59375 106.28125 57.925781 106.035156 59.25 C 105.1875 59.703125 104.277344 59.871094 103.296875 59.75 C 103.296875 58.25 103.296875 56.75 103.296875 55.25 Z M 103.296875 55.25 "/>
<path style=" stroke:none;fill-rule:evenodd;fill:rgb(1.568627%,36.078431%,48.235294%);fill-opacity:1;" d="M 33.105469 38.75 C 33.851562 42.175781 35.179688 45.339844 37.085938 48.25 C 36.789062 48.367188 36.625 48.617188 36.589844 49 C 37.941406 51.777344 39.765625 54.191406 42.066406 56.25 C 42.191406 57.085938 42.523438 57.835938 43.0625 58.5 C 42.894531 58.667969 42.730469 58.832031 42.5625 59 C 43.878906 59.644531 44.378906 60.726562 44.058594 62.25 C 42.730469 60.582031 41.402344 58.917969 40.074219 57.25 C 39.46875 56.886719 38.972656 56.386719 38.582031 55.75 C 37.339844 57.910156 36.09375 60.078125 34.847656 62.25 C 34.679688 61.417969 34.515625 60.582031 34.347656 59.75 C 31.21875 61.316406 28.648438 63.480469 26.632812 66.25 C 26.273438 66.039062 26.023438 65.707031 25.886719 65.25 C 25.636719 67.242188 25.554688 69.242188 25.636719 71.25 C 25.105469 68.234375 25.105469 65.234375 25.636719 62.25 C 18.617188 65.230469 11.816406 64.816406 5.226562 61 C 4.789062 60.644531 4.457031 60.230469 4.230469 59.75 C 7.414062 60.675781 10.652344 61.34375 13.9375 61.75 C 17.449219 61.515625 20.851562 60.765625 24.144531 59.5 C 30.171875 53.917969 33.160156 47 33.105469 38.75 Z M 33.105469 38.75 "/>
<path style=" stroke:none;fill-rule:evenodd;fill:rgb(1.960784%,10.588235%,17.647059%);fill-opacity:1;" d="M 33.601562 44.25 C 34.117188 48.902344 32.625 52.902344 29.121094 56.25 C 28.957031 56.082031 28.789062 55.917969 28.625 55.75 C 31.40625 52.429688 33.0625 48.59375 33.601562 44.25 Z M 33.601562 44.25 "/>
<path style=" stroke:none;fill-rule:evenodd;fill:rgb(35.294118%,28.235294%,22.745098%);fill-opacity:1;" d="M 86.371094 59.75 C 88.03125 61 89.441406 62.5 90.601562 64.25 C 90.617188 66.511719 90.699219 68.675781 90.851562 70.75 C 91.585938 71.964844 91.503906 73.128906 90.601562 74.25 C 89.703125 76.070312 88.292969 77.238281 86.371094 77.75 C 82.371094 78.476562 78.386719 78.390625 74.421875 77.5 C 73.324219 76.746094 72.410156 75.828125 71.6875 74.75 C 71.367188 73.867188 71.449219 73.035156 71.933594 72.25 C 72.625 74.527344 74.117188 76.113281 76.414062 77 C 86.007812 78.199219 89.90625 74.117188 88.113281 64.75 C 85.003906 60.828125 81.105469 59.746094 76.414062 61.5 C 74.234375 63.148438 72.738281 65.234375 71.933594 67.75 C 71.445312 64.910156 72.273438 62.410156 74.421875 60.25 C 76.207031 59.855469 77.863281 59.1875 79.402344 58.25 C 81.761719 58.625 84.085938 59.125 86.371094 59.75 Z M 86.371094 59.75 "/>
<path style=" stroke:none;fill-rule:evenodd;fill:rgb(0%,75.294118%,92.156863%);fill-opacity:1;" d="M 40.074219 57.25 C 42.042969 62.96875 45.113281 67.96875 49.285156 72.25 C 49.523438 72.722656 49.605469 73.222656 49.53125 73.75 C 48.890625 73.632812 48.390625 73.796875 48.039062 74.25 C 47.707031 74.25 47.375 74.25 47.042969 74.25 C 45.585938 73.375 44.175781 72.375 42.8125 71.25 C 44.984375 77.773438 48.550781 83.4375 53.515625 88.25 C 52.570312 88.734375 51.574219 88.898438 50.527344 88.75 C 48.238281 88.421875 46.082031 87.835938 44.058594 87 C 45.617188 88.234375 46.445312 89.652344 46.546875 91.25 C 41.070312 87.425781 37.417969 82.261719 35.59375 75.75 C 34.832031 73.789062 34.167969 71.789062 33.601562 69.75 C 33.242188 68.492188 32.578125 68.160156 31.613281 68.75 C 29.214844 68.285156 27.554688 69.121094 26.632812 71.25 C 25.996094 69.632812 25.996094 67.96875 26.632812 66.25 C 28.648438 63.480469 31.21875 61.316406 34.347656 59.75 C 34.515625 60.582031 34.679688 61.417969 34.847656 62.25 C 36.09375 60.078125 37.339844 57.910156 38.582031 55.75 C 38.972656 56.386719 39.46875 56.886719 40.074219 57.25 Z M 40.074219 57.25 "/>
<path style=" stroke:none;fill-rule:evenodd;fill:rgb(40%,21.568627%,9.803922%);fill-opacity:1;" d="M 60.484375 60.25 C 58.511719 60.84375 56.523438 61.34375 54.511719 61.75 C 54.242188 61.71875 54.074219 61.554688 54.011719 61.25 C 56.113281 60.542969 58.269531 60.210938 60.484375 60.25 Z M 60.484375 60.25 "/>
<path style=" stroke:none;fill-rule:evenodd;fill:rgb(37.647059%,29.803922%,21.176471%);fill-opacity:1;" d="M 70.9375 58.75 C 71.269531 58.75 71.601562 58.75 71.933594 58.75 C 72.46875 59.125 72.550781 59.625 72.183594 60.25 C 70.804688 61.886719 69.230469 63.222656 67.453125 64.25 C 67.300781 63.039062 67.46875 61.871094 67.953125 60.75 C 68.980469 60.070312 69.976562 59.40625 70.9375 58.75 Z M 70.9375 58.75 "/>
<path style=" stroke:none;fill-rule:evenodd;fill:rgb(0.784314%,0.392157%,0.392157%);fill-opacity:1;" d="M 71.933594 72.25 C 71.933594 70.75 71.933594 69.25 71.933594 67.75 C 72.738281 65.234375 74.234375 63.148438 76.414062 61.5 C 81.105469 59.746094 85.003906 60.828125 88.113281 64.75 C 89.90625 74.117188 86.007812 78.199219 76.414062 77 C 74.117188 76.113281 72.625 74.527344 71.933594 72.25 Z M 71.933594 72.25 "/>
<path style=" stroke:none;fill-rule:evenodd;fill:rgb(75.686275%,65.882353%,61.176471%);fill-opacity:1;" d="M 106.78125 61.25 C 109.597656 60.839844 110.429688 61.921875 109.269531 64.5 C 105.816406 65.285156 104.988281 64.203125 106.78125 61.25 Z M 106.78125 61.25 "/>
<use xlink:href="#surface17" mask="url(#mask4)"/>
<path style=" stroke:none;fill-rule:evenodd;fill:rgb(80.784314%,70.980392%,64.705882%);fill-opacity:1;" d="M 101.804688 61.75 C 102.964844 61.75 104.125 61.75 105.289062 61.75 C 105.667969 64.453125 104.507812 65.453125 101.804688 64.75 C 101.804688 63.75 101.804688 62.75 101.804688 61.75 Z M 101.804688 61.75 "/>
<path style=" stroke:none;fill-rule:evenodd;fill:rgb(86.666667%,64.705882%,39.215686%);fill-opacity:1;" d="M 70.9375 54.25 C 71.011719 54.777344 70.929688 55.277344 70.691406 55.75 C 69.777344 56.582031 68.863281 57.417969 67.953125 58.25 C 68.386719 58.625 68.886719 58.875 69.445312 59 C 66.492188 60.023438 63.585938 61.105469 60.734375 62.25 C 60.507812 64.046875 61.257812 65.296875 62.972656 66 C 62.308594 66.332031 61.644531 66.667969 60.984375 67 C 61.257812 67.191406 61.425781 67.441406 61.480469 67.75 C 59.84375 66.9375 58.515625 65.773438 57.496094 64.25 C 57.332031 64.25 57.164062 64.25 57 64.25 C 56.324219 63.238281 55.492188 62.402344 54.511719 61.75 C 56.523438 61.34375 58.511719 60.84375 60.484375 60.25 C 64.492188 59.15625 67.976562 57.15625 70.9375 54.25 Z M 70.9375 54.25 "/>
<path style=" stroke:none;fill-rule:evenodd;fill:rgb(65.490196%,36.470588%,18.823529%);fill-opacity:1;" d="M 57 64.25 C 57.164062 64.25 57.332031 64.25 57.496094 64.25 C 58.035156 65.023438 58.035156 65.773438 57.496094 66.5 C 57.625 67.128906 57.957031 67.628906 58.492188 68 C 61.699219 69.53125 65.019531 70.617188 68.449219 71.25 C 68.449219 71.417969 68.449219 71.582031 68.449219 71.75 C 63.238281 72.257812 58.84375 70.59375 55.257812 66.75 C 54.753906 65.988281 54.507812 65.152344 54.511719 64.25 C 55.339844 64.25 56.171875 64.25 57 64.25 Z M 57 64.25 "/>
<use xlink:href="#surface20" mask="url(#mask5)"/>
<path style=" stroke:none;fill-rule:evenodd;fill:rgb(95.294118%,85.882353%,72.54902%);fill-opacity:1;" d="M 76.414062 57.75 C 74.808594 58.605469 73.398438 59.773438 72.183594 61.25 C 70.597656 64.121094 69.351562 67.121094 68.449219 70.25 C 67.09375 70.019531 65.765625 69.683594 64.46875 69.25 C 64.46875 68.417969 64.46875 67.582031 64.46875 66.75 C 65.203125 66.882812 65.867188 66.714844 66.457031 66.25 C 65.785156 65.523438 64.957031 65.191406 63.96875 65.25 C 63.96875 64.75 63.96875 64.25 63.96875 63.75 C 64.949219 63.871094 65.863281 63.703125 66.707031 63.25 C 66.847656 63.707031 67.09375 64.039062 67.453125 64.25 C 69.230469 63.222656 70.804688 61.886719 72.183594 60.25 C 72.550781 59.625 72.46875 59.125 71.933594 58.75 C 72.898438 56.667969 73.644531 54.5 74.175781 52.25 C 74.945312 54.167969 75.691406 56.003906 76.414062 57.75 Z M 76.414062 57.75 "/>
<path style=" stroke:none;fill-rule:evenodd;fill:rgb(81.568627%,47.058824%,23.921569%);fill-opacity:1;" d="M 57.496094 64.25 C 58.515625 65.773438 59.84375 66.9375 61.480469 67.75 C 62.335938 68.511719 63.332031 69.011719 64.46875 69.25 C 65.765625 69.683594 67.09375 70.019531 68.449219 70.25 C 68.449219 70.582031 68.449219 70.917969 68.449219 71.25 C 65.019531 70.617188 61.699219 69.53125 58.492188 68 C 57.957031 67.628906 57.625 67.128906 57.496094 66.5 C 58.035156 65.773438 58.035156 65.023438 57.496094 64.25 Z M 57.496094 64.25 "/>
<path style=" stroke:none;fill-rule:evenodd;fill:rgb(1.176471%,27.843137%,40.784314%);fill-opacity:1;" d="M 42.066406 56.25 C 43.710938 58.703125 45.699219 60.867188 48.039062 62.75 C 51.175781 67.734375 55.488281 71.234375 60.984375 73.25 C 57.992188 73.835938 55.667969 72.917969 54.011719 70.5 C 53.183594 70.332031 52.355469 70.167969 51.523438 70 C 49.203125 68.808594 47.214844 67.226562 45.550781 65.25 C 44.863281 64.355469 44.367188 63.355469 44.058594 62.25 C 44.378906 60.726562 43.878906 59.644531 42.5625 59 C 42.730469 58.832031 42.894531 58.667969 43.0625 58.5 C 42.523438 57.835938 42.191406 57.085938 42.066406 56.25 Z M 42.066406 56.25 "/>
<path style=" stroke:none;fill-rule:evenodd;fill:rgb(50.196078%,43.921569%,40%);fill-opacity:1;" d="M 100.808594 66.75 C 102.632812 66.75 104.457031 66.75 106.285156 66.75 C 106.441406 68.683594 106.273438 70.519531 105.785156 72.25 C 105.785156 70.582031 105.785156 68.917969 105.785156 67.25 C 104.023438 67.40625 102.363281 67.238281 100.808594 66.75 Z M 100.808594 66.75 "/>
<path style=" stroke:none;fill-rule:evenodd;fill:rgb(40.784314%,32.156863%,23.529412%);fill-opacity:1;" d="M 76.414062 57.75 C 80.007812 57.375 83.324219 58.039062 86.371094 59.75 C 84.085938 59.125 81.761719 58.625 79.402344 58.25 C 77.863281 59.1875 76.207031 59.855469 74.421875 60.25 C 72.273438 62.410156 71.445312 64.910156 71.933594 67.75 C 71.933594 69.25 71.933594 70.75 71.933594 72.25 C 71.449219 73.035156 71.367188 73.867188 71.6875 74.75 C 72.410156 75.828125 73.324219 76.746094 74.421875 77.5 C 78.386719 78.390625 82.371094 78.476562 86.371094 77.75 C 82.25 79.957031 77.9375 80.289062 73.429688 78.75 C 72.425781 78.921875 71.429688 79.085938 70.441406 79.25 C 70.519531 78.402344 70.4375 77.566406 70.191406 76.75 C 69.65625 75.460938 68.742188 74.628906 67.453125 74.25 C 68.171875 73.589844 68.503906 72.757812 68.449219 71.75 C 68.449219 71.582031 68.449219 71.417969 68.449219 71.25 C 68.449219 70.917969 68.449219 70.582031 68.449219 70.25 C 69.351562 67.121094 70.597656 64.121094 72.183594 61.25 C 73.398438 59.773438 74.808594 58.605469 76.414062 57.75 Z M 76.414062 57.75 "/>
<path style=" stroke:none;fill-rule:evenodd;fill:rgb(81.568627%,74.117647%,68.627451%);fill-opacity:1;" d="M 100.808594 66.75 C 102.363281 67.238281 104.023438 67.40625 105.785156 67.25 C 105.785156 68.917969 105.785156 70.582031 105.785156 72.25 C 103.773438 72.277344 101.78125 71.695312 99.8125 70.5 C 99.289062 69.308594 98.957031 68.058594 98.816406 66.75 C 99.480469 66.75 100.144531 66.75 100.808594 66.75 Z M 100.808594 66.75 "/>
<path style=" stroke:none;fill-rule:evenodd;fill:rgb(0%,63.921569%,78.823529%);fill-opacity:1;" d="M 40.074219 57.25 C 41.402344 58.917969 42.730469 60.582031 44.058594 62.25 C 44.367188 63.355469 44.863281 64.355469 45.550781 65.25 C 47.617188 69.742188 50.9375 72.992188 55.507812 75 C 53.855469 75.25 52.195312 75.332031 50.527344 75.25 C 50.03125 75.25 49.53125 75.25 49.035156 75.25 C 48.703125 74.917969 48.371094 74.582031 48.039062 74.25 C 48.390625 73.796875 48.890625 73.632812 49.53125 73.75 C 49.605469 73.222656 49.523438 72.722656 49.285156 72.25 C 45.113281 67.96875 42.042969 62.96875 40.074219 57.25 Z M 40.074219 57.25 "/>
<use xlink:href="#surface23" mask="url(#mask6)"/>
<path style=" stroke:none;fill-rule:evenodd;fill:rgb(2.352941%,35.686275%,49.019608%);fill-opacity:1;" d="M 45.550781 65.25 C 47.214844 67.226562 49.203125 68.808594 51.523438 70 C 52.355469 70.167969 53.183594 70.332031 54.011719 70.5 C 55.667969 72.917969 57.992188 73.835938 60.984375 73.25 C 62.128906 73.53125 63.289062 73.78125 64.46875 74 C 59.875 75.726562 55.226562 76.144531 50.527344 75.25 C 52.195312 75.332031 53.855469 75.25 55.507812 75 C 50.9375 72.992188 47.617188 69.742188 45.550781 65.25 Z M 45.550781 65.25 "/>
<path style=" stroke:none;fill-rule:evenodd;fill:rgb(97.647059%,90.588235%,76.862745%);fill-opacity:1;" d="M 94.835938 43.75 C 94.902344 44.777344 94.570312 45.609375 93.839844 46.25 C 84.550781 49.605469 84.550781 52.9375 93.839844 56.25 C 92.8125 56.90625 91.734375 56.90625 90.601562 56.25 C 90.519531 56.582031 90.4375 56.917969 90.355469 57.25 C 91 58.296875 91.746094 59.296875 92.59375 60.25 C 92.585938 62.839844 93.167969 65.253906 94.335938 67.5 C 93.761719 67.957031 93.84375 68.375 94.585938 68.75 C 94.765625 70.933594 94.847656 73.015625 94.835938 75 C 93.804688 75.160156 93.636719 75.578125 94.335938 76.25 C 94.085938 76.75 93.839844 77.25 93.589844 77.75 C 91.960938 78.851562 90.21875 79.769531 88.363281 80.5 C 88.65625 80.730469 88.988281 80.816406 89.359375 80.75 C 86.730469 81.964844 83.910156 82.464844 80.894531 82.25 C 75.09375 81.882812 69.285156 81.71875 63.472656 81.75 C 63.835938 81.144531 64.003906 80.480469 63.96875 79.75 C 65.445312 79.925781 66.605469 79.425781 67.453125 78.25 C 66.511719 77.527344 65.683594 76.695312 64.964844 75.75 C 65.878906 75.375 66.707031 74.875 67.453125 74.25 C 68.742188 74.628906 69.65625 75.460938 70.191406 76.75 C 70.4375 77.566406 70.519531 78.402344 70.441406 79.25 C 71.429688 79.085938 72.425781 78.921875 73.429688 78.75 C 77.9375 80.289062 82.25 79.957031 86.371094 77.75 C 88.292969 77.238281 89.703125 76.070312 90.601562 74.25 C 91.503906 73.128906 91.585938 71.964844 90.851562 70.75 C 91.414062 69.5 91.746094 68.167969 91.847656 66.75 C 91.585938 64.882812 91.171875 63.050781 90.601562 61.25 C 86.660156 59.207031 84.085938 56.039062 82.886719 51.75 C 83.382812 50.417969 83.882812 49.082031 84.378906 47.75 C 83.917969 46.949219 83.917969 46.199219 84.378906 45.5 C 82.386719 45.332031 80.398438 45.167969 78.40625 45 C 79.667969 44.90625 80.828125 44.65625 81.890625 44.25 C 87.066406 43.46875 89.96875 40.46875 90.601562 35.25 C 91.292969 35.773438 91.789062 36.441406 92.097656 37.25 C 91.710938 40.082031 92.625 42.246094 94.835938 43.75 Z M 94.835938 43.75 "/>
<path style=" stroke:none;fill-rule:evenodd;fill:rgb(94.117647%,83.137255%,63.921569%);fill-opacity:1;" d="M 93.839844 56.25 C 94.335938 56.25 94.835938 56.25 95.332031 56.25 C 96.578125 56.496094 97.574219 57.164062 98.320312 58.25 C 97.726562 58.714844 97.0625 58.882812 96.328125 58.75 C 96.25 59.4375 96.332031 60.101562 96.578125 60.75 C 97.46875 62.011719 98.214844 63.34375 98.816406 64.75 C 97.9375 65.230469 96.941406 65.398438 95.828125 65.25 C 96.191406 66.921875 96.605469 68.589844 97.074219 70.25 C 97.667969 76.046875 95.097656 79.546875 89.359375 80.75 C 88.988281 80.816406 88.65625 80.730469 88.363281 80.5 C 90.21875 79.769531 91.960938 78.851562 93.589844 77.75 C 93.839844 77.25 94.085938 76.75 94.335938 76.25 C 93.636719 75.578125 93.804688 75.160156 94.835938 75 C 94.847656 73.015625 94.765625 70.933594 94.585938 68.75 C 93.84375 68.375 93.761719 67.957031 94.335938 67.5 C 93.167969 65.253906 92.585938 62.839844 92.59375 60.25 C 91.746094 59.296875 91 58.296875 90.355469 57.25 C 90.4375 56.917969 90.519531 56.582031 90.601562 56.25 C 91.734375 56.90625 92.8125 56.90625 93.839844 56.25 Z M 93.839844 56.25 "/>
<use xlink:href="#surface26" mask="url(#mask7)"/>
<path style=" stroke:none;fill-rule:evenodd;fill:rgb(0.784314%,18.431373%,25.882353%);fill-opacity:1;" d="M 47.042969 74.25 C 47.375 74.25 47.707031 74.25 48.039062 74.25 C 48.371094 74.582031 48.703125 74.917969 49.035156 75.25 C 48.667969 75.183594 48.335938 75.269531 48.039062 75.5 C 51.175781 78.40625 54.496094 81.074219 57.996094 83.5 C 62.53125 85.234375 67.179688 85.648438 71.933594 84.75 C 72.597656 85.082031 72.597656 85.417969 71.933594 85.75 C 70.574219 86.761719 69.246094 87.761719 67.953125 88.75 C 66.832031 89.226562 65.671875 89.5625 64.46875 89.75 C 63.394531 88.832031 62.066406 88.332031 60.484375 88.25 C 56.742188 87.578125 53.671875 85.742188 51.273438 82.75 C 49.734375 80.148438 48.074219 77.648438 46.296875 75.25 C 46.035156 74.59375 46.28125 74.257812 47.042969 74.25 Z M 47.042969 74.25 "/>
<path style=" stroke:none;fill-rule:evenodd;fill:rgb(62.745098%,47.058824%,33.333333%);fill-opacity:1;" d="M 60.984375 77.25 C 61.191406 77.609375 61.523438 77.859375 61.976562 78 C 60.890625 78.679688 59.894531 79.429688 58.992188 80.25 C 57.871094 79.792969 56.875 79.125 56.003906 78.25 C 57.65625 77.835938 59.316406 77.5 60.984375 77.25 Z M 60.984375 77.25 "/>
<path style=" stroke:none;fill-rule:evenodd;fill:rgb(79.607843%,65.882353%,48.235294%);fill-opacity:1;" d="M 64.964844 75.75 C 65.683594 76.695312 66.511719 77.527344 67.453125 78.25 C 66.605469 79.425781 65.445312 79.925781 63.96875 79.75 C 64.003906 80.480469 63.835938 81.144531 63.472656 81.75 C 61.871094 81.546875 60.378906 81.046875 58.992188 80.25 C 59.894531 79.429688 60.890625 78.679688 61.976562 78 C 61.523438 77.859375 61.191406 77.609375 60.984375 77.25 C 62.390625 76.945312 63.71875 76.445312 64.964844 75.75 Z M 64.964844 75.75 "/>
<path style=" stroke:none;fill-rule:evenodd;fill:rgb(0%,57.647059%,70.980392%);fill-opacity:1;" d="M 26.632812 66.25 C 25.996094 67.96875 25.996094 69.632812 26.632812 71.25 C 26.894531 72.785156 27.308594 74.285156 27.878906 75.75 C 30.800781 77.492188 32.375 76.65625 32.605469 73.25 C 32.476562 71.695312 32.144531 70.195312 31.613281 68.75 C 32.578125 68.160156 33.242188 68.492188 33.601562 69.75 C 33.660156 72.824219 33.414062 75.988281 32.855469 79.25 C 32.691406 79.75 32.523438 80.25 32.359375 80.75 C 32.191406 79.582031 32.027344 78.417969 31.859375 77.25 C 31.707031 80.4375 31.375 83.601562 30.863281 86.75 C 30.699219 86.917969 30.53125 87.082031 30.367188 87.25 C 29.929688 85.605469 29.597656 83.9375 29.371094 82.25 C 29.277344 83.519531 29.03125 84.683594 28.625 85.75 C 28.042969 80.835938 27.050781 76 25.636719 71.25 C 25.554688 69.242188 25.636719 67.242188 25.886719 65.25 C 26.023438 65.707031 26.273438 66.039062 26.632812 66.25 Z M 26.632812 66.25 "/>
<path style=" stroke:none;fill-rule:evenodd;fill:rgb(39.607843%,84.705882%,92.941176%);fill-opacity:1;" d="M 31.613281 68.75 C 32.144531 70.195312 32.476562 71.695312 32.605469 73.25 C 32.375 76.65625 30.800781 77.492188 27.878906 75.75 C 27.308594 74.285156 26.894531 72.785156 26.632812 71.25 C 27.554688 69.121094 29.214844 68.285156 31.613281 68.75 Z M 31.613281 68.75 "/>
<use xlink:href="#surface29" mask="url(#mask8)"/>
<path style=" stroke:none;fill-rule:evenodd;fill:rgb(49.803922%,32.941176%,20%);fill-opacity:1;" d="M 86.371094 84.25 C 83.140625 84.664062 79.824219 84.914062 76.414062 85 C 75.851562 85.507812 76.015625 85.839844 76.914062 86 C 76.121094 86.472656 75.457031 87.058594 74.921875 87.75 C 74.191406 86.449219 74.523438 85.367188 75.917969 84.5 C 79.398438 84.25 82.882812 84.167969 86.371094 84.25 Z M 86.371094 84.25 "/>
<path style=" stroke:none;fill-rule:evenodd;fill:rgb(73.72549%,49.411765%,28.627451%);fill-opacity:1;" d="M 88.859375 83.75 C 88.160156 84.707031 87.328125 85.625 86.371094 86.5 C 83.550781 86.667969 80.730469 86.832031 77.910156 87 C 76.835938 87.050781 76.007812 87.464844 75.417969 88.25 C 75.085938 88.25 74.921875 88.082031 74.921875 87.75 C 75.457031 87.058594 76.121094 86.472656 76.914062 86 C 76.015625 85.839844 75.851562 85.507812 76.414062 85 C 79.824219 84.914062 83.140625 84.664062 86.371094 84.25 C 87.226562 84.183594 88.054688 84.019531 88.859375 83.75 Z M 88.859375 83.75 "/>
<path style=" stroke:none;fill-rule:evenodd;fill:rgb(0.392157%,40.392157%,51.372549%);fill-opacity:1;" d="M 47.042969 74.25 C 46.28125 74.257812 46.035156 74.59375 46.296875 75.25 C 48.074219 77.648438 49.734375 80.148438 51.273438 82.75 C 53.671875 85.742188 56.742188 87.578125 60.484375 88.25 C 59.027344 88.910156 57.367188 89.242188 55.507812 89.25 C 53.753906 89.25 52.097656 89.082031 50.527344 88.75 C 51.574219 88.898438 52.570312 88.734375 53.515625 88.25 C 48.550781 83.4375 44.984375 77.773438 42.8125 71.25 C 44.175781 72.375 45.585938 73.375 47.042969 74.25 Z M 47.042969 74.25 "/>
<use xlink:href="#surface32" mask="url(#mask9)"/>
<path style=" stroke:none;fill-rule:evenodd;fill:rgb(2.352941%,43.921569%,58.039216%);fill-opacity:1;" d="M 33.601562 69.75 C 34.167969 71.789062 34.832031 73.789062 35.59375 75.75 C 35.335938 81.609375 33.09375 86.609375 28.875 90.75 C 28.625 89.089844 28.542969 87.425781 28.625 85.75 C 29.03125 84.683594 29.277344 83.519531 29.371094 82.25 C 29.597656 83.9375 29.929688 85.605469 30.367188 87.25 C 30.53125 87.082031 30.699219 86.917969 30.863281 86.75 C 31.375 83.601562 31.707031 80.4375 31.859375 77.25 C 32.027344 78.417969 32.191406 79.582031 32.359375 80.75 C 32.523438 80.25 32.691406 79.75 32.855469 79.25 C 33.414062 75.988281 33.660156 72.824219 33.601562 69.75 Z M 33.601562 69.75 "/>
<use xlink:href="#surface35" mask="url(#mask10)"/>
<path style=" stroke:none;fill-rule:evenodd;fill:rgb(93.72549%,79.215686%,58.431373%);fill-opacity:1;" d="M 75.417969 88.25 C 76.007812 87.464844 76.835938 87.050781 77.910156 87 C 80.730469 86.832031 83.550781 86.667969 86.371094 86.5 C 87.328125 85.625 88.160156 84.707031 88.859375 83.75 C 89.34375 83.125 89.675781 83.289062 89.855469 84.25 C 88.339844 89.515625 84.855469 91.765625 79.402344 91 C 77.78125 90.441406 76.453125 89.527344 75.417969 88.25 Z M 75.417969 88.25 "/>
<path style=" stroke:none;fill-rule:evenodd;fill:rgb(1.568627%,30.980392%,42.745098%);fill-opacity:1;" d="M 50.527344 88.75 C 52.097656 89.082031 53.753906 89.25 55.507812 89.25 C 57.367188 89.242188 59.027344 88.910156 60.484375 88.25 C 62.066406 88.332031 63.394531 88.832031 64.46875 89.75 C 61.503906 90.550781 58.519531 91.300781 55.507812 92 C 57.644531 92.578125 59.804688 93.078125 61.976562 93.5 C 56.425781 95.070312 51.28125 94.320312 46.546875 91.25 C 46.445312 89.652344 45.617188 88.234375 44.058594 87 C 46.082031 87.835938 48.238281 88.421875 50.527344 88.75 Z M 50.527344 88.75 "/>
<use xlink:href="#surface38" mask="url(#mask11)"/>
</g>
</svg>
