<?xml version="1.0" encoding="UTF-8"?>
<svg xmlns="http://www.w3.org/2000/svg" xmlns:xlink="http://www.w3.org/1999/xlink" width="px" height="px" viewBox="0 0 105 93" version="1.1">
<defs>
<filter id="alpha" filterUnits="objectBoundingBox" x="0%" y="0%" width="100%" height="100%">
  <feColorMatrix type="matrix" in="SourceGraphic" values="0 0 0 0 1 0 0 0 0 1 0 0 0 0 1 0 0 0 1 0"/>
</filter>
<mask id="mask0">
  <g filter="url(#alpha)">
<rect x="0" y="0" width="105" height="93" style="fill:rgb(0%,0%,0%);fill-opacity:0.117647;stroke:none;"/>
  </g>
</mask>
<clipPath id="clip1">
  <rect x="0" y="0" width="105" height="93"/>
</clipPath>
<g id="surface5" clip-path="url(#clip1)">
<path style=" stroke:none;fill-rule:evenodd;fill:rgb(14.509804%,19.215686%,24.705882%);fill-opacity:1;" d="M 41.449219 -0.25 C 42.953125 -0.25 44.460938 -0.25 45.96875 -0.25 C 46.136719 0.417969 46.304688 0.417969 46.472656 -0.25 C 46.640625 -0.25 46.804688 -0.25 46.972656 -0.25 C 52.003906 0.503906 56.523438 2.511719 60.539062 5.78125 C 66.796875 -0.226562 73.078125 -0.226562 79.378906 5.78125 C 81.027344 7.871094 82.199219 10.21875 82.894531 12.820312 C 86.054688 14.71875 88.148438 17.398438 89.175781 20.863281 C 94.078125 20.113281 97.34375 22.292969 98.972656 27.398438 C 100.121094 28.046875 101.128906 28.882812 101.984375 29.910156 C 102.394531 32.679688 103.0625 35.363281 103.996094 37.953125 C 104.367188 39.492188 104.285156 41 103.742188 42.476562 C 103.964844 43.101562 104.300781 43.605469 104.75 43.988281 C 104.75 45.496094 104.75 47.003906 104.75 48.511719 C 103.757812 49.648438 103.59375 50.992188 104.246094 52.53125 C 104.242188 54.222656 103.738281 55.730469 102.738281 57.058594 C 103.496094 59.976562 102.660156 62.324219 100.226562 64.09375 C 99.890625 64.09375 99.558594 64.09375 99.222656 64.09375 C 99.390625 63.757812 99.558594 63.425781 99.726562 63.089844 C 101.703125 61.503906 102.203125 59.496094 101.230469 57.058594 C 102.820312 54.941406 103.152344 52.59375 102.238281 50.019531 C 104.195312 47.523438 104.195312 45.007812 102.238281 42.476562 C 103.089844 39.867188 102.757812 37.4375 101.230469 35.1875 C 101.476562 34.617188 101.644531 34.03125 101.734375 33.429688 C 101.566406 30.65625 100.140625 28.816406 97.464844 27.898438 C 96.910156 22.882812 94.144531 21.039062 89.175781 22.371094 C 87.757812 18.4375 85.246094 15.421875 81.640625 13.320312 C 79.824219 5.285156 74.800781 1.851562 66.566406 3.015625 C 64.320312 3.890625 62.3125 5.144531 60.539062 6.785156 C 56.035156 3.554688 51.011719 1.710938 45.464844 1.257812 C 43.960938 0.585938 42.453125 0.585938 40.945312 1.257812 C 40.972656 0.699219 41.140625 0.195312 41.449219 -0.25 Z M 41.449219 -0.25 "/>
</g>
<mask id="mask1">
  <g filter="url(#alpha)">
<rect x="0" y="0" width="105" height="93" style="fill:rgb(0%,0%,0%);fill-opacity:0.0117647;stroke:none;"/>
  </g>
</mask>
<clipPath id="clip2">
  <rect x="0" y="0" width="105" height="93"/>
</clipPath>
<g id="surface8" clip-path="url(#clip2)">
<path style=" stroke:none;fill-rule:evenodd;fill:rgb(14.117647%,20%,25.490196%);fill-opacity:1;" d="M 40.945312 1.257812 C 40.675781 2.070312 40.507812 2.90625 40.441406 3.769531 C 33.503906 3.566406 27.640625 5.914062 22.859375 10.808594 C 19.554688 11.371094 16.539062 12.628906 13.816406 14.578125 C 12.273438 16.753906 12.609375 18.597656 14.820312 20.109375 C 9.433594 22.480469 5.332031 26.253906 2.511719 31.417969 C 2.175781 32.425781 2.175781 33.429688 2.511719 34.433594 C 3.386719 35.167969 4.308594 35.835938 5.273438 36.445312 C 3.253906 39.675781 2.417969 43.195312 2.761719 47.003906 C 2.746094 50.769531 3.25 54.457031 4.269531 58.0625 C 2.917969 57.894531 1.746094 58.230469 0.753906 59.066406 C 1.21875 57.933594 1.886719 56.925781 2.761719 56.050781 C 1.789062 51.40625 1.539062 46.710938 2.007812 41.976562 C 2.347656 40.210938 2.933594 38.535156 3.769531 36.949219 C 2.605469 35.875 1.769531 34.621094 1.257812 33.179688 C 1.542969 31.476562 2.128906 29.886719 3.015625 28.402344 C 6.003906 24.90625 9.4375 21.972656 13.3125 19.605469 C 11.390625 17.53125 11.558594 15.523438 13.816406 13.574219 C 16.328125 11.828125 19.09375 10.574219 22.105469 9.800781 C 27.058594 4.9375 33.003906 2.59375 39.941406 2.765625 C 39.367188 1.8125 39.703125 1.308594 40.945312 1.257812 Z M 40.945312 1.257812 "/>
</g>
<mask id="mask2">
  <g filter="url(#alpha)">
<rect x="0" y="0" width="105" height="93" style="fill:rgb(0%,0%,0%);fill-opacity:0.211765;stroke:none;"/>
  </g>
</mask>
<clipPath id="clip3">
  <rect x="0" y="0" width="105" height="93"/>
</clipPath>
<g id="surface11" clip-path="url(#clip3)">
<path style=" stroke:none;fill-rule:evenodd;fill:rgb(14.117647%,21.568627%,25.882353%);fill-opacity:1;" d="M -0.25 59.066406 C 0.0820312 59.066406 0.417969 59.066406 0.753906 59.066406 C 0.625 60.484375 0.878906 61.824219 1.507812 63.089844 C 3.84375 65.34375 6.101562 67.6875 8.289062 70.128906 C 4.792969 68.136719 1.945312 65.457031 -0.25 62.082031 C -0.25 61.078125 -0.25 60.074219 -0.25 59.066406 Z M -0.25 59.066406 "/>
</g>
<mask id="mask3">
  <g filter="url(#alpha)">
<rect x="0" y="0" width="105" height="93" style="fill:rgb(0%,0%,0%);fill-opacity:0.992157;stroke:none;"/>
  </g>
</mask>
<clipPath id="clip4">
  <rect x="0" y="0" width="105" height="93"/>
</clipPath>
<g id="surface14" clip-path="url(#clip4)">
<path style=" stroke:none;fill-rule:evenodd;fill:rgb(4.313725%,4.705882%,4.705882%);fill-opacity:1;" d="M 45.464844 1.257812 C 45.082031 1.644531 44.582031 1.894531 43.960938 2.011719 C 45.480469 2.28125 46.988281 2.617188 48.480469 3.015625 C 48.203125 3.207031 48.035156 3.460938 47.976562 3.769531 C 46.292969 3.242188 44.621094 3.242188 42.953125 3.769531 C 43.5625 4.738281 44.234375 5.65625 44.964844 6.535156 C 44.847656 6.734375 44.683594 6.820312 44.460938 6.785156 C 41.125 6.3125 37.773438 6.230469 34.414062 6.535156 C 30.464844 7.417969 27.28125 9.429688 24.867188 12.566406 C 21.328125 13.179688 18.0625 14.433594 15.070312 16.335938 C 14.761719 16.816406 14.84375 17.234375 15.324219 17.59375 C 18.121094 18.273438 20.96875 18.523438 23.863281 18.347656 C 26.546875 19.574219 28.976562 21.25 31.148438 23.375 C 31.339844 23.097656 31.589844 22.929688 31.902344 22.871094 C 31.921875 23.503906 31.671875 24.007812 31.148438 24.382812 C 30.726562 23.625 30.140625 23.371094 29.390625 23.628906 C 29.941406 24.015625 29.941406 24.433594 29.390625 24.882812 C 28.503906 23.921875 27.417969 23.25 26.125 22.871094 C 24.308594 23.910156 22.382812 24.578125 20.347656 24.882812 C 19.714844 24.902344 19.214844 24.652344 18.839844 24.128906 C 19.699219 23.167969 20.367188 22.078125 20.847656 20.863281 C 20.058594 20.292969 19.222656 20.210938 18.335938 20.609375 C 13.660156 22.742188 9.554688 25.675781 6.027344 29.40625 C 5.027344 30.574219 4.441406 31.914062 4.269531 33.429688 C 5.972656 33.363281 7.648438 33.28125 9.292969 33.179688 C 7.050781 36.074219 5.710938 39.34375 5.273438 42.980469 C 4.371094 47.402344 4.789062 51.757812 6.53125 56.050781 C 7.394531 56.285156 8.316406 56.367188 9.292969 56.300781 C 10.066406 56.859375 10.402344 57.613281 10.300781 58.566406 C 9.402344 58.421875 8.5625 58.589844 7.785156 59.066406 C 8.554688 59.988281 8.304688 60.488281 7.035156 60.574219 C 5.628906 60.214844 4.207031 60.046875 2.761719 60.074219 C 2.804688 61.292969 3.308594 62.300781 4.269531 63.089844 C 8.417969 67.632812 13.355469 70.984375 19.089844 73.144531 C 19.507812 72.976562 19.929688 72.808594 20.347656 72.640625 C 19.566406 71.414062 19.230469 70.070312 19.34375 68.617188 C 20.179688 68.617188 21.015625 68.617188 21.855469 68.617188 C 23.441406 70.171875 25.28125 70.675781 27.378906 70.128906 C 28.222656 70.019531 28.726562 70.355469 28.886719 71.132812 C 27.433594 71.78125 26.261719 72.785156 25.371094 74.148438 C 10.835938 74.675781 10.671875 76.941406 24.867188 80.933594 C 26.785156 84.160156 29.632812 86.003906 33.410156 86.464844 C 36.597656 86.6875 39.777344 86.605469 42.953125 86.214844 C 43.484375 86.136719 43.984375 86.222656 44.460938 86.464844 C 43.699219 87.144531 43.027344 87.898438 42.453125 88.726562 C 49.503906 89.617188 55.363281 87.4375 60.035156 82.191406 C 60.488281 81.640625 60.90625 81.640625 61.292969 82.191406 C 61.539062 83.183594 61.625 84.1875 61.542969 85.207031 C 60.894531 85.089844 60.390625 85.257812 60.035156 85.710938 C 54.609375 90.003906 48.414062 91.933594 41.449219 91.492188 C 40.355469 90.902344 39.855469 89.980469 39.941406 88.726562 C 34.46875 89.34375 29.445312 88.167969 24.867188 85.207031 C 24.390625 84.429688 24.222656 83.59375 24.367188 82.695312 C 20.410156 81.972656 16.722656 80.546875 13.3125 78.421875 C 11.886719 76.667969 12.054688 75.074219 13.816406 73.644531 C 12.089844 72.246094 10.25 71.074219 8.289062 70.128906 C 6.101562 67.6875 3.84375 65.34375 1.507812 63.089844 C 0.878906 61.824219 0.625 60.484375 0.753906 59.066406 C 1.746094 58.230469 2.917969 57.894531 4.269531 58.0625 C 3.25 54.457031 2.746094 50.769531 2.761719 47.003906 C 2.417969 43.195312 3.253906 39.675781 5.273438 36.445312 C 4.308594 35.835938 3.386719 35.167969 2.511719 34.433594 C 2.175781 33.429688 2.175781 32.425781 2.511719 31.417969 C 5.332031 26.253906 9.433594 22.480469 14.820312 20.109375 C 12.609375 18.597656 12.273438 16.753906 13.816406 14.578125 C 16.539062 12.628906 19.554688 11.371094 22.859375 10.808594 C 27.640625 5.914062 33.503906 3.566406 40.441406 3.769531 C 40.507812 2.90625 40.675781 2.070312 40.945312 1.257812 C 42.453125 0.585938 43.960938 0.585938 45.464844 1.257812 Z M 45.464844 1.257812 "/>
</g>
<mask id="mask4">
  <g filter="url(#alpha)">
<rect x="0" y="0" width="105" height="93" style="fill:rgb(0%,0%,0%);fill-opacity:0.00784314;stroke:none;"/>
  </g>
</mask>
<clipPath id="clip5">
  <rect x="0" y="0" width="105" height="93"/>
</clipPath>
<g id="surface17" clip-path="url(#clip5)">
<path style=" stroke:none;fill-rule:evenodd;fill:rgb(14.117647%,21.960784%,27.45098%);fill-opacity:1;" d="M 99.222656 64.09375 C 99.558594 64.09375 99.890625 64.09375 100.226562 64.09375 C 99.871094 64.550781 99.367188 64.714844 98.71875 64.597656 C 97.832031 69.753906 94.730469 72.269531 89.425781 72.136719 C 87.96875 75.269531 85.792969 77.785156 82.894531 79.679688 C 79.75 89.65625 73.300781 92.921875 63.550781 89.480469 C 62.457031 88.71875 61.371094 87.964844 60.285156 87.21875 C 56.199219 89.652344 52.09375 91.496094 47.976562 92.75 C 45.96875 92.75 43.960938 92.75 41.949219 92.75 C 40.492188 92.128906 39.320312 91.125 38.433594 89.734375 C 33.316406 90.210938 28.628906 88.953125 24.367188 85.960938 C 23.695312 85.125 23.027344 84.285156 22.355469 83.449219 C 19.429688 82.472656 16.582031 81.300781 13.816406 79.929688 C 11.332031 78.339844 10.832031 76.328125 12.308594 73.898438 C 10.835938 72.75 9.496094 71.492188 8.289062 70.128906 C 10.25 71.074219 12.089844 72.246094 13.816406 73.644531 C 12.054688 75.074219 11.886719 76.667969 13.3125 78.421875 C 16.722656 80.546875 20.410156 81.972656 24.367188 82.695312 C 24.222656 83.59375 24.390625 84.429688 24.867188 85.207031 C 29.445312 88.167969 34.46875 89.34375 39.941406 88.726562 C 39.855469 89.980469 40.355469 90.902344 41.449219 91.492188 C 48.414062 91.933594 54.609375 90.003906 60.035156 85.710938 C 61.160156 86.617188 62.332031 87.539062 63.550781 88.476562 C 72.765625 92.203125 78.710938 89.269531 81.386719 79.679688 C 82.894531 78.503906 84.402344 77.332031 85.910156 76.160156 C 87.21875 74.710938 88.140625 73.035156 88.671875 71.132812 C 90.152344 70.71875 91.660156 70.46875 93.195312 70.378906 C 96.195312 69.664062 97.703125 67.738281 97.714844 64.597656 C 98.175781 64.28125 98.679688 64.113281 99.222656 64.09375 Z M 99.222656 64.09375 "/>
</g>
</defs>
<g id="surface1">
<use xlink:href="#surface5" mask="url(#mask0)"/>
<path style=" stroke:none;fill-rule:evenodd;fill:rgb(2.745098%,3.137255%,4.313725%);fill-opacity:1;" d="M 45.464844 1.257812 C 51.011719 1.710938 56.035156 3.554688 60.539062 6.785156 C 62.3125 5.144531 64.320312 3.890625 66.566406 3.015625 C 74.800781 1.851562 79.824219 5.285156 81.640625 13.320312 C 85.246094 15.421875 87.757812 18.4375 89.175781 22.371094 C 94.144531 21.039062 96.910156 22.882812 97.464844 27.898438 C 100.140625 28.816406 101.566406 30.65625 101.734375 33.429688 C 101.066406 33.261719 100.394531 33.09375 99.726562 32.925781 C 99.207031 31.238281 98.035156 30.402344 96.207031 30.414062 C 95.113281 29.738281 94.105469 29.90625 93.195312 30.917969 C 91.910156 30.46875 90.570312 30.300781 89.175781 30.414062 C 89.121094 31.980469 89.625 33.320312 90.683594 34.433594 C 91.394531 34.914062 92.230469 35.082031 93.195312 34.9375 C 93.195312 35.441406 93.195312 35.941406 93.195312 36.445312 C 92.308594 36.519531 91.472656 36.351562 90.683594 35.941406 C 90.183594 37.757812 90.015625 39.601562 90.179688 41.472656 C 89.6875 39.902344 89.519531 38.226562 89.675781 36.445312 C 88.003906 36.445312 86.328125 36.445312 84.652344 36.445312 C 85.875 35.988281 87.132812 35.484375 88.421875 34.9375 C 88.40625 30.96875 87.066406 30.464844 84.402344 33.429688 C 84.300781 34.375 84.050781 35.214844 83.648438 35.941406 C 83.3125 35.941406 83.144531 35.777344 83.144531 35.441406 C 83.0625 34.089844 83.148438 32.75 83.398438 31.417969 C 84.554688 28.851562 85.644531 26.253906 86.664062 23.628906 C 85.863281 20.066406 83.855469 17.46875 80.632812 15.835938 C 76.257812 14.988281 71.820312 14.488281 67.320312 14.328125 C 61.214844 14.6875 55.101562 14.9375 48.984375 15.082031 C 43.953125 16.171875 39.601562 18.433594 35.921875 21.867188 C 34.738281 23.054688 33.734375 24.394531 32.90625 25.890625 C 32.039062 27.117188 31.285156 28.457031 30.644531 29.910156 C 30.53125 37.285156 30.617188 44.65625 30.898438 52.03125 C 30.8125 56.222656 30.898438 60.410156 31.148438 64.597656 C 32.039062 66.894531 33.296875 68.90625 34.917969 70.628906 C 38.285156 74.328125 42.472656 76.507812 47.476562 77.164062 C 52.125 77.652344 56.8125 77.820312 61.542969 77.667969 C 66.835938 78.320312 72.195312 78.320312 77.621094 77.667969 C 78.289062 77.5 78.960938 77.332031 79.628906 77.164062 C 86.570312 73.828125 88.164062 68.800781 84.402344 62.082031 C 84.152344 60.585938 84.066406 59.078125 84.152344 57.558594 C 84.152344 57.222656 84.316406 57.058594 84.652344 57.058594 C 84.574219 58.828125 85.246094 60.253906 86.664062 61.328125 C 87.289062 61.703125 87.792969 61.617188 88.167969 61.078125 C 88.480469 61.023438 88.730469 60.855469 88.921875 60.574219 C 89.003906 61.667969 89.421875 62.589844 90.179688 63.339844 C 89.207031 63.402344 88.535156 63.820312 88.167969 64.597656 C 88.703125 67.71875 90.542969 68.804688 93.695312 67.863281 C 95.332031 66.808594 95.5 65.71875 94.199219 64.597656 C 93.863281 63.425781 93.527344 62.25 93.195312 61.078125 C 93.527344 61.078125 93.863281 61.078125 94.199219 61.078125 C 94.199219 61.246094 94.199219 61.414062 94.199219 61.582031 C 94.15625 62.332031 94.492188 62.835938 95.203125 63.089844 C 96.449219 62.722656 97.703125 62.386719 98.972656 62.082031 C 99.457031 62.300781 99.707031 62.632812 99.726562 63.089844 C 99.558594 63.425781 99.390625 63.757812 99.222656 64.09375 C 98.679688 64.113281 98.175781 64.28125 97.714844 64.597656 C 97.703125 67.738281 96.195312 69.664062 93.195312 70.378906 C 91.660156 70.46875 90.152344 70.71875 88.671875 71.132812 C 88.140625 73.035156 87.21875 74.710938 85.910156 76.160156 C 84.402344 77.332031 82.894531 78.503906 81.386719 79.679688 C 78.710938 89.269531 72.765625 92.203125 63.550781 88.476562 C 62.332031 87.539062 61.160156 86.617188 60.035156 85.710938 C 60.390625 85.257812 60.894531 85.089844 61.542969 85.207031 C 61.625 84.1875 61.539062 83.183594 61.292969 82.191406 C 60.90625 81.640625 60.488281 81.640625 60.035156 82.191406 C 60.035156 81.523438 60.035156 80.851562 60.035156 80.179688 C 59.367188 80.179688 58.695312 80.179688 58.027344 80.179688 C 49.632812 81.269531 41.929688 79.507812 34.917969 74.902344 C 33.789062 73.652344 32.785156 72.3125 31.902344 70.882812 C 30.902344 70.789062 29.898438 70.875 28.886719 71.132812 C 28.726562 70.355469 28.222656 70.019531 27.378906 70.128906 C 28.292969 69.582031 29.132812 68.910156 29.890625 68.117188 C 28.847656 66.671875 27.507812 65.582031 25.875 64.847656 C 26.65625 64.742188 27.324219 64.492188 27.882812 64.09375 C 28.574219 54.703125 28.492188 45.320312 27.632812 35.941406 C 26.605469 35.003906 25.6875 33.996094 24.867188 32.925781 C 24.382812 32.492188 24.382812 32.15625 24.867188 31.921875 C 25.683594 32.894531 26.605469 33.0625 27.632812 32.425781 C 27.511719 29.800781 28.265625 27.539062 29.890625 25.636719 C 29.613281 25.445312 29.445312 25.195312 29.390625 24.882812 C 29.941406 24.433594 29.941406 24.015625 29.390625 23.628906 C 30.140625 23.371094 30.726562 23.625 31.148438 24.382812 C 31.671875 24.007812 31.921875 23.503906 31.902344 22.871094 C 32.691406 21.324219 33.78125 19.984375 35.167969 18.851562 C 35.414062 18.203125 35.496094 17.53125 35.417969 16.839844 C 36.378906 16.984375 37.21875 16.816406 37.929688 16.335938 C 42.421875 13.730469 47.277344 12.386719 52.5 12.316406 C 53.894531 12.425781 55.234375 12.261719 56.519531 11.8125 C 57.289062 12.28125 58.125 12.617188 59.03125 12.820312 C 59.917969 12.851562 60.421875 12.433594 60.539062 11.5625 C 59.925781 9.941406 58.921875 8.601562 57.523438 7.539062 C 54.550781 5.71875 51.371094 4.460938 47.976562 3.769531 C 48.035156 3.460938 48.203125 3.207031 48.480469 3.015625 C 46.988281 2.617188 45.480469 2.28125 43.960938 2.011719 C 44.582031 1.894531 45.082031 1.644531 45.464844 1.257812 Z M 45.464844 1.257812 "/>
<path style=" stroke:none;fill-rule:evenodd;fill:rgb(33.72549%,53.72549%,62.745098%);fill-opacity:1;" d="M 74.605469 10.304688 C 72.628906 8.5 70.285156 7.914062 67.570312 8.546875 C 66.117188 9.757812 64.609375 10.847656 63.050781 11.8125 C 62.132812 10.832031 61.882812 9.65625 62.296875 8.292969 C 67.773438 4.015625 72.964844 4.351562 77.871094 9.300781 C 78.339844 10.285156 78.757812 11.289062 79.125 12.316406 C 76.964844 13.164062 75.457031 12.492188 74.605469 10.304688 Z M 74.605469 10.304688 "/>
<path style=" stroke:none;fill-rule:evenodd;fill:rgb(15.294118%,28.235294%,39.607843%);fill-opacity:1;" d="M 74.605469 10.304688 C 73.992188 10.925781 73.324219 11.511719 72.59375 12.066406 C 69.324219 12.476562 66.140625 12.394531 63.050781 11.8125 C 64.609375 10.847656 66.117188 9.757812 67.570312 8.546875 C 70.285156 7.914062 72.628906 8.5 74.605469 10.304688 Z M 74.605469 10.304688 "/>
<path style=" stroke:none;fill-rule:evenodd;fill:rgb(63.529412%,67.058824%,65.490196%);fill-opacity:1;" d="M 47.976562 3.769531 C 51.371094 4.460938 54.550781 5.71875 57.523438 7.539062 C 58.921875 8.601562 59.925781 9.941406 60.539062 11.5625 C 60.421875 12.433594 59.917969 12.851562 59.03125 12.820312 C 58.125 12.617188 57.289062 12.28125 56.519531 11.8125 C 54.289062 9.695312 51.609375 8.691406 48.480469 8.796875 C 44.949219 8.808594 44.78125 9.058594 47.976562 9.550781 C 48.640625 10.253906 48.472656 10.753906 47.476562 11.058594 C 43.3125 10.898438 39.796875 12.238281 36.925781 15.082031 C 37.210938 15.582031 37.546875 16 37.929688 16.335938 C 37.21875 16.816406 36.378906 16.984375 35.417969 16.839844 C 35.011719 16.222656 34.511719 15.71875 33.910156 15.332031 C 34.402344 15.085938 34.902344 14.835938 35.417969 14.578125 C 34.75 14.074219 34.75 13.574219 35.417969 13.070312 C 33.410156 12.902344 31.398438 12.734375 29.390625 12.566406 C 29.726562 12.230469 30.058594 11.898438 30.394531 11.5625 C 34.984375 9.496094 39.671875 7.90625 44.460938 6.785156 C 44.683594 6.820312 44.847656 6.734375 44.964844 6.535156 C 44.234375 5.65625 43.5625 4.738281 42.953125 3.769531 C 44.621094 3.242188 46.292969 3.242188 47.976562 3.769531 Z M 47.976562 3.769531 "/>
<path style=" stroke:none;fill-rule:evenodd;fill:rgb(32.54902%,36.470588%,34.901961%);fill-opacity:1;" d="M 48.480469 8.796875 C 51.609375 8.691406 54.289062 9.695312 56.519531 11.8125 C 55.234375 12.261719 53.894531 12.425781 52.5 12.316406 C 52.234375 11.703125 51.898438 11.117188 51.496094 10.558594 C 50.226562 10.34375 49.222656 9.757812 48.480469 8.796875 Z M 48.480469 8.796875 "/>
<path style=" stroke:none;fill-rule:evenodd;fill:rgb(51.764706%,56.470588%,54.901961%);fill-opacity:1;" d="M 48.480469 8.796875 C 49.222656 9.757812 50.226562 10.34375 51.496094 10.558594 C 51.898438 11.117188 52.234375 11.703125 52.5 12.316406 C 47.277344 12.386719 42.421875 13.730469 37.929688 16.335938 C 37.546875 16 37.210938 15.582031 36.925781 15.082031 C 39.796875 12.238281 43.3125 10.898438 47.476562 11.058594 C 48.472656 10.753906 48.640625 10.253906 47.976562 9.550781 C 44.78125 9.058594 44.949219 8.808594 48.480469 8.796875 Z M 48.480469 8.796875 "/>
<path style=" stroke:none;fill-rule:evenodd;fill:rgb(87.45098%,87.058824%,82.352941%);fill-opacity:1;" d="M 44.460938 6.785156 C 39.671875 7.90625 34.984375 9.496094 30.394531 11.5625 C 30.058594 11.898438 29.726562 12.230469 29.390625 12.566406 C 31.398438 12.734375 33.410156 12.902344 35.417969 13.070312 C 34.75 13.574219 34.75 14.074219 35.417969 14.578125 C 34.902344 14.835938 34.402344 15.085938 33.910156 15.332031 C 33.058594 15.25 32.21875 15.335938 31.398438 15.582031 C 29.3125 17.980469 26.800781 18.902344 23.863281 18.347656 C 20.96875 18.523438 18.121094 18.273438 15.324219 17.59375 C 14.84375 17.234375 14.761719 16.816406 15.070312 16.335938 C 18.0625 14.433594 21.328125 13.179688 24.867188 12.566406 C 27.28125 9.429688 30.464844 7.417969 34.414062 6.535156 C 37.773438 6.230469 41.125 6.3125 44.460938 6.785156 Z M 44.460938 6.785156 "/>
<path style=" stroke:none;fill-rule:evenodd;fill:rgb(27.843137%,57.254902%,70.980392%);fill-opacity:1;" d="M 80.632812 15.835938 C 80.910156 16.753906 80.910156 17.59375 80.632812 18.347656 C 81.164062 19.371094 81.667969 20.375 82.140625 21.363281 C 81.945312 25.796875 80.9375 29.988281 79.125 33.933594 C 78.171875 35.730469 77 37.40625 75.609375 38.960938 C 75.109375 38.792969 74.773438 38.457031 74.605469 37.953125 C 75.019531 37.476562 75.105469 36.972656 74.855469 36.445312 C 74.519531 37.117188 74.1875 37.117188 73.851562 36.445312 C 73.683594 36.78125 73.515625 37.117188 73.347656 37.453125 C 72.671875 36.527344 71.753906 36.023438 70.585938 35.941406 C 70.984375 34.082031 71.484375 32.238281 72.09375 30.414062 C 71.425781 28.742188 70.253906 27.570312 68.578125 26.894531 C 69.609375 25.355469 70.949219 24.183594 72.59375 23.375 C 74.515625 24.335938 76.523438 25.007812 78.625 25.386719 C 78.707031 24.367188 78.621094 23.363281 78.375 22.371094 C 76.675781 20.757812 75.085938 19.082031 73.601562 17.34375 C 72.617188 17.96875 71.863281 18.808594 71.339844 19.855469 C 70.214844 18.777344 69.210938 17.605469 68.324219 16.335938 C 66.039062 18.527344 63.277344 19.53125 60.035156 19.355469 C 60.121094 21.371094 60.035156 23.382812 59.785156 25.386719 C 59.246094 25.949219 58.660156 26.453125 58.027344 26.894531 C 58.207031 27.238281 58.375 27.574219 58.527344 27.898438 C 58.21875 27.957031 57.96875 28.125 57.773438 28.402344 C 57.609375 25.554688 57.441406 22.707031 57.273438 19.855469 C 56.917969 19.117188 56.332031 18.78125 55.515625 18.851562 C 52.671875 18.5 49.824219 18.414062 46.972656 18.601562 C 43.992188 19.589844 41.144531 20.847656 38.433594 22.371094 C 37.855469 22.210938 37.4375 21.875 37.175781 21.363281 C 36.839844 21.742188 36.421875 21.910156 35.921875 21.867188 C 39.601562 18.433594 43.953125 16.171875 48.984375 15.082031 C 55.101562 14.9375 61.214844 14.6875 67.320312 14.328125 C 71.820312 14.488281 76.257812 14.988281 80.632812 15.835938 Z M 80.632812 15.835938 "/>
<path style=" stroke:none;fill-rule:evenodd;fill:rgb(1.568627%,2.352941%,3.529412%);fill-opacity:1;" d="M 68.578125 26.894531 C 69.648438 27.953125 70.488281 29.210938 71.089844 30.664062 C 70.738281 32.304688 70.234375 33.894531 69.582031 35.441406 C 69.644531 35.746094 69.8125 35.914062 70.082031 35.941406 C 70.929688 36.78125 71.9375 37.449219 73.097656 37.953125 C 73.738281 38.515625 73.738281 39.015625 73.097656 39.460938 C 71.519531 38.613281 69.84375 38.359375 68.074219 38.707031 C 67.578125 39.796875 66.90625 40.71875 66.066406 41.472656 C 66.066406 40.96875 66.066406 40.46875 66.066406 39.964844 C 66.109375 35.867188 64.4375 32.683594 61.039062 30.414062 C 60.371094 29.40625 59.535156 28.570312 58.527344 27.898438 C 58.375 27.574219 58.207031 27.238281 58.027344 26.894531 C 58.660156 26.453125 59.246094 25.949219 59.785156 25.386719 C 60.035156 23.382812 60.121094 21.371094 60.035156 19.355469 C 63.277344 19.53125 66.039062 18.527344 68.324219 16.335938 C 69.210938 17.605469 70.214844 18.777344 71.339844 19.855469 C 71.863281 18.808594 72.617188 17.96875 73.601562 17.34375 C 75.085938 19.082031 76.675781 20.757812 78.375 22.371094 C 78.621094 23.363281 78.707031 24.367188 78.625 25.386719 C 76.523438 25.007812 74.515625 24.335938 72.59375 23.375 C 70.949219 24.183594 69.609375 25.355469 68.578125 26.894531 Z M 68.578125 26.894531 "/>
<path style=" stroke:none;fill-rule:evenodd;fill:rgb(54.509804%,57.647059%,56.470588%);fill-opacity:1;" d="M 33.910156 15.332031 C 34.511719 15.71875 35.011719 16.222656 35.417969 16.839844 C 35.496094 17.53125 35.414062 18.203125 35.167969 18.851562 C 33.78125 19.984375 32.691406 21.324219 31.902344 22.871094 C 31.589844 22.929688 31.339844 23.097656 31.148438 23.375 C 28.976562 21.25 26.546875 19.574219 23.863281 18.347656 C 26.800781 18.902344 29.3125 17.980469 31.398438 15.582031 C 32.21875 15.335938 33.058594 15.25 33.910156 15.332031 Z M 33.910156 15.332031 "/>
<path style=" stroke:none;fill-rule:evenodd;fill:rgb(22.352941%,41.568627%,53.333333%);fill-opacity:1;" d="M 80.632812 15.835938 C 83.855469 17.46875 85.863281 20.066406 86.664062 23.628906 C 85.644531 26.253906 84.554688 28.851562 83.398438 31.417969 C 83.148438 32.75 83.0625 34.089844 83.144531 35.441406 C 82.75 34.882812 82.496094 34.214844 82.390625 33.429688 C 81.644531 35.296875 81.226562 35.296875 81.136719 33.429688 C 81.460938 31.035156 82.132812 28.773438 83.144531 26.644531 C 83.046875 24.773438 82.710938 23.011719 82.140625 21.363281 C 81.667969 20.375 81.164062 19.371094 80.632812 18.347656 C 80.910156 17.59375 80.910156 16.753906 80.632812 15.835938 Z M 80.632812 15.835938 "/>
<path style=" stroke:none;fill-rule:evenodd;fill:rgb(22.352941%,55.686275%,70.980392%);fill-opacity:1;" d="M 55.515625 18.851562 C 54.199219 23.027344 54.199219 27.214844 55.515625 31.417969 C 53.792969 28.773438 51.613281 26.511719 48.984375 24.632812 C 47.8125 24.296875 46.640625 24.296875 45.464844 24.632812 C 40.3125 26.777344 36.878906 30.546875 35.167969 35.941406 C 34.472656 39.417969 34.222656 42.9375 34.414062 46.5 C 34.414062 46.667969 34.414062 46.835938 34.414062 47.003906 C 33.589844 47.109375 32.835938 46.941406 32.152344 46.5 C 31.871094 40.125 32.035156 33.753906 32.65625 27.398438 C 32.84375 26.9375 33.09375 26.519531 33.410156 26.140625 C 33.292969 25.941406 33.125 25.855469 32.90625 25.890625 C 33.734375 24.394531 34.738281 23.054688 35.921875 21.867188 C 36.421875 21.910156 36.839844 21.742188 37.175781 21.363281 C 37.4375 21.875 37.855469 22.210938 38.433594 22.371094 C 41.144531 20.847656 43.992188 19.589844 46.972656 18.601562 C 49.824219 18.414062 52.671875 18.5 55.515625 18.851562 Z M 55.515625 18.851562 "/>
<path style=" stroke:none;fill-rule:evenodd;fill:rgb(27.843137%,66.27451%,81.176471%);fill-opacity:1;" d="M 55.515625 18.851562 C 56.332031 18.78125 56.917969 19.117188 57.273438 19.855469 C 57.441406 22.707031 57.609375 25.554688 57.773438 28.402344 C 57.96875 28.125 58.21875 27.957031 58.527344 27.898438 C 59.535156 28.570312 60.371094 29.40625 61.039062 30.414062 C 60.132812 30.824219 59.378906 30.488281 58.78125 29.40625 C 58.578125 29.523438 58.496094 29.691406 58.527344 29.910156 C 57.429688 31.136719 56.675781 30.800781 56.269531 28.90625 C 56.222656 30.171875 55.972656 31.007812 55.515625 31.417969 C 54.199219 27.214844 54.199219 23.027344 55.515625 18.851562 Z M 55.515625 18.851562 "/>
<path style=" stroke:none;fill-rule:evenodd;fill:rgb(63.529412%,43.137255%,50.588235%);fill-opacity:1;" d="M 90.179688 24.382812 C 91.558594 24.265625 92.898438 24.433594 94.199219 24.882812 C 95.601562 26.105469 95.515625 27.109375 93.949219 27.898438 C 92 26.769531 90.074219 26.9375 88.167969 28.402344 C 87.742188 26.578125 88.410156 25.238281 90.179688 24.382812 Z M 90.179688 24.382812 "/>
<path style=" stroke:none;fill-rule:evenodd;fill:rgb(90.980392%,89.803922%,84.313725%);fill-opacity:1;" d="M 20.347656 24.882812 C 20.996094 27.585938 20.828125 30.265625 19.84375 32.925781 C 18.832031 31.566406 17.828125 30.226562 16.832031 28.90625 C 16.664062 29.660156 16.496094 30.414062 16.328125 31.167969 C 17.75 36.777344 19.171875 42.390625 20.597656 48.007812 C 20.933594 51.023438 20.933594 54.039062 20.597656 57.058594 C 19.089844 54.878906 17.582031 52.699219 16.078125 50.523438 C 15.828125 51.34375 15.746094 52.179688 15.824219 53.035156 C 15.441406 52.652344 15.1875 52.148438 15.070312 51.527344 C 14.90625 51.863281 14.738281 52.195312 14.570312 52.53125 C 14.5 48.632812 13.078125 45.363281 10.300781 42.730469 C 9.125 42.394531 7.953125 42.394531 6.78125 42.730469 C 6.46875 43.105469 6.214844 43.527344 6.027344 43.988281 C 5.890625 43.527344 5.636719 43.191406 5.273438 42.980469 C 5.710938 39.34375 7.050781 36.074219 9.292969 33.179688 C 7.648438 33.28125 5.972656 33.363281 4.269531 33.429688 C 4.441406 31.914062 5.027344 30.574219 6.027344 29.40625 C 9.554688 25.675781 13.660156 22.742188 18.335938 20.609375 C 19.222656 20.210938 20.058594 20.292969 20.847656 20.863281 C 20.367188 22.078125 19.699219 23.167969 18.839844 24.128906 C 19.214844 24.652344 19.714844 24.902344 20.347656 24.882812 Z M 20.347656 24.882812 "/>
<path style=" stroke:none;fill-rule:evenodd;fill:rgb(68.627451%,81.176471%,88.235294%);fill-opacity:1;" d="M 68.578125 26.894531 C 70.253906 27.570312 71.425781 28.742188 72.09375 30.414062 C 71.484375 32.238281 70.984375 34.082031 70.585938 35.941406 C 70.417969 35.941406 70.25 35.941406 70.082031 35.941406 C 69.8125 35.914062 69.644531 35.746094 69.582031 35.441406 C 70.234375 33.894531 70.738281 32.304688 71.089844 30.664062 C 70.488281 29.210938 69.648438 27.953125 68.578125 26.894531 Z M 68.578125 26.894531 "/>
<path style=" stroke:none;fill-rule:evenodd;fill:rgb(91.764706%,42.352941%,60.392157%);fill-opacity:1;" d="M 93.195312 30.917969 C 93.554688 32.054688 93.722656 33.226562 93.695312 34.433594 C 92.691406 34.433594 91.6875 34.433594 90.683594 34.433594 C 89.625 33.320312 89.121094 31.980469 89.175781 30.414062 C 90.570312 30.300781 91.910156 30.46875 93.195312 30.917969 Z M 93.195312 30.917969 "/>
<use xlink:href="#surface8" mask="url(#mask1)"/>
<path style=" stroke:none;fill-rule:evenodd;fill:rgb(15.294118%,38.431373%,47.45098%);fill-opacity:1;" d="M 61.039062 30.414062 C 64.4375 32.683594 66.109375 35.867188 66.066406 39.964844 C 65.832031 37.082031 64.324219 35.15625 61.542969 34.183594 C 60.59375 32.699219 59.589844 31.277344 58.527344 29.910156 C 58.496094 29.691406 58.578125 29.523438 58.78125 29.40625 C 59.378906 30.488281 60.132812 30.824219 61.039062 30.414062 Z M 61.039062 30.414062 "/>
<path style=" stroke:none;fill-rule:evenodd;fill:rgb(12.54902%,25.882353%,36.470588%);fill-opacity:1;" d="M 84.652344 36.445312 C 84.15625 36.53125 83.820312 36.363281 83.648438 35.941406 C 84.050781 35.214844 84.300781 34.375 84.402344 33.429688 C 87.066406 30.464844 88.40625 30.96875 88.421875 34.9375 C 87.132812 35.484375 85.875 35.988281 84.652344 36.445312 Z M 84.652344 36.445312 "/>
<path style=" stroke:none;fill-rule:evenodd;fill:rgb(81.176471%,42.745098%,55.294118%);fill-opacity:1;" d="M 96.207031 30.414062 C 98.035156 30.402344 99.207031 31.238281 99.726562 32.925781 C 99.769531 33.425781 99.601562 33.847656 99.222656 34.183594 C 98.050781 34.519531 96.878906 34.519531 95.707031 34.183594 C 95.058594 33.167969 94.558594 32.078125 94.199219 30.917969 C 94.796875 30.449219 95.464844 30.28125 96.207031 30.414062 Z M 96.207031 30.414062 "/>
<path style=" stroke:none;fill-rule:evenodd;fill:rgb(64.313725%,68.235294%,66.27451%);fill-opacity:1;" d="M 24.867188 32.925781 C 25.6875 33.996094 26.605469 35.003906 27.632812 35.941406 C 28.492188 45.320312 28.574219 54.703125 27.882812 64.09375 C 24.6875 64.5 23.179688 63.074219 23.359375 59.820312 C 25.046875 51.460938 24.542969 43.25 21.855469 35.1875 C 21.796875 33.910156 22.214844 32.820312 23.109375 31.921875 C 23.519531 32.585938 24.105469 32.921875 24.867188 32.925781 Z M 24.867188 32.925781 "/>
<path style=" stroke:none;fill-rule:evenodd;fill:rgb(17.254902%,73.333333%,87.45098%);fill-opacity:1;" d="M 55.515625 31.417969 C 55.972656 31.007812 56.222656 30.171875 56.269531 28.90625 C 56.675781 30.800781 57.429688 31.136719 58.527344 29.910156 C 59.589844 31.277344 60.59375 32.699219 61.542969 34.183594 C 64.324219 35.15625 65.832031 37.082031 66.066406 39.964844 C 66.066406 40.46875 66.066406 40.96875 66.066406 41.472656 C 65.84375 44.121094 64.335938 45.546875 61.542969 45.746094 C 61.164062 46.082031 60.996094 46.503906 61.039062 47.003906 C 60.214844 47.011719 59.546875 46.675781 59.03125 45.996094 C 58.195312 46.6875 57.527344 46.519531 57.023438 45.496094 C 56.757812 46.550781 56.257812 47.722656 55.515625 49.011719 C 57.015625 50.085938 58.609375 51.089844 60.285156 52.03125 C 60.714844 53.089844 60.382812 53.757812 59.28125 54.039062 C 56.921875 53.613281 54.996094 52.4375 53.503906 50.523438 C 54.851562 49.195312 54.683594 48.859375 53.003906 49.515625 C 52.535156 49.105469 52.035156 48.6875 51.496094 48.257812 C 53.351562 45.4375 52.679688 43.847656 49.484375 43.484375 C 49.820312 41.640625 50.15625 39.796875 50.492188 37.953125 C 51.695312 38.386719 52.867188 38.386719 54.007812 37.953125 C 52.730469 37.191406 51.390625 36.519531 49.988281 35.941406 C 49.007812 37.457031 48.171875 39.050781 47.476562 40.71875 C 44.171875 39.84375 43.082031 41.097656 44.210938 44.488281 C 44.546875 45.496094 44.878906 46.5 45.214844 47.503906 C 46.429688 47.824219 47.515625 48.324219 48.480469 49.011719 C 46.863281 48.808594 45.355469 48.808594 43.960938 49.011719 C 42.285156 49.011719 40.609375 49.011719 38.933594 49.011719 C 38.464844 49.550781 38.296875 50.21875 38.433594 51.023438 C 37.523438 51.027344 36.6875 50.777344 35.921875 50.269531 C 36.871094 48.382812 36.371094 47.125 34.414062 46.5 C 34.222656 42.9375 34.472656 39.417969 35.167969 35.941406 C 36.878906 30.546875 40.3125 26.777344 45.464844 24.632812 C 46.640625 24.296875 47.8125 24.296875 48.984375 24.632812 C 51.613281 26.511719 53.792969 28.773438 55.515625 31.417969 Z M 55.515625 31.417969 "/>
<path style=" stroke:none;fill-rule:evenodd;fill:rgb(6.666667%,3.137255%,3.529412%);fill-opacity:1;" d="M 96.207031 30.414062 C 95.464844 30.28125 94.796875 30.449219 94.199219 30.917969 C 94.558594 32.078125 95.058594 33.167969 95.707031 34.183594 C 96.878906 34.519531 98.050781 34.519531 99.222656 34.183594 C 99.601562 33.847656 99.769531 33.425781 99.726562 32.925781 C 100.394531 33.09375 101.066406 33.261719 101.734375 33.429688 C 101.644531 34.03125 101.476562 34.617188 101.230469 35.1875 C 102.757812 37.4375 103.089844 39.867188 102.238281 42.476562 C 104.195312 45.007812 104.195312 47.523438 102.238281 50.019531 C 103.152344 52.59375 102.820312 54.941406 101.230469 57.058594 C 102.203125 59.496094 101.703125 61.503906 99.726562 63.089844 C 99.707031 62.632812 99.457031 62.300781 98.972656 62.082031 C 97.703125 62.386719 96.449219 62.722656 95.203125 63.089844 C 94.492188 62.835938 94.15625 62.332031 94.199219 61.582031 C 96.726562 62.644531 98.566406 61.976562 99.726562 59.570312 C 99.671875 59.097656 99.503906 58.679688 99.222656 58.3125 C 97.882812 57.976562 96.542969 57.976562 95.203125 58.3125 C 94.371094 59.039062 94.035156 59.960938 94.199219 61.078125 C 93.863281 61.078125 93.527344 61.078125 93.195312 61.078125 C 93.527344 62.25 93.863281 63.425781 94.199219 64.597656 C 92.25 64.78125 90.242188 64.78125 88.167969 64.597656 C 88.535156 63.820312 89.207031 63.402344 90.179688 63.339844 C 89.421875 62.589844 89.003906 61.667969 88.921875 60.574219 C 88.730469 60.855469 88.480469 61.023438 88.167969 61.078125 C 88.613281 58.847656 89.117188 56.671875 89.675781 54.542969 C 90.097656 51.601562 90.097656 48.667969 89.675781 45.746094 C 89.644531 44.601562 89.980469 43.59375 90.683594 42.730469 C 90.558594 42.277344 90.390625 41.855469 90.179688 41.472656 C 90.015625 39.601562 90.183594 37.757812 90.683594 35.941406 C 91.472656 36.351562 92.308594 36.519531 93.195312 36.445312 C 93.195312 35.941406 93.195312 35.441406 93.195312 34.9375 C 92.230469 35.082031 91.394531 34.914062 90.683594 34.433594 C 91.6875 34.433594 92.691406 34.433594 93.695312 34.433594 C 93.722656 33.226562 93.554688 32.054688 93.195312 30.917969 C 94.105469 29.90625 95.113281 29.738281 96.207031 30.414062 Z M 96.207031 30.414062 "/>
<path style=" stroke:none;fill-rule:evenodd;fill:rgb(82.352941%,49.019608%,62.745098%);fill-opacity:1;" d="M 91.6875 36.949219 C 94.613281 36.695312 95.789062 38.039062 95.203125 40.96875 C 94.03125 40.96875 92.859375 40.96875 91.6875 40.96875 C 91.6875 39.628906 91.6875 38.289062 91.6875 36.949219 Z M 91.6875 36.949219 "/>
<path style=" stroke:none;fill-rule:evenodd;fill:rgb(81.960784%,44.313725%,62.352941%);fill-opacity:1;" d="M 96.710938 36.949219 C 99.941406 36.523438 101.113281 37.777344 100.226562 40.71875 C 99.066406 40.96875 97.894531 41.050781 96.710938 40.96875 C 96.191406 39.597656 96.191406 38.257812 96.710938 36.949219 Z M 96.710938 36.949219 "/>
<path style=" stroke:none;fill-rule:evenodd;fill:rgb(17.647059%,43.137255%,54.901961%);fill-opacity:1;" d="M 32.90625 25.890625 C 33.125 25.855469 33.292969 25.941406 33.410156 26.140625 C 33.09375 26.519531 32.84375 26.9375 32.65625 27.398438 C 32.035156 33.753906 31.871094 40.125 32.152344 46.5 C 32.835938 46.941406 33.589844 47.109375 34.414062 47.003906 C 34.414062 47.171875 34.414062 47.335938 34.414062 47.503906 C 33.417969 47.6875 33.082031 48.105469 33.410156 48.761719 C 33.15625 49.011719 32.90625 49.265625 32.65625 49.515625 C 32.488281 48.847656 32.320312 48.175781 32.152344 47.503906 C 31.984375 47.671875 31.816406 47.839844 31.652344 48.007812 C 31.558594 49.449219 31.308594 50.789062 30.898438 52.03125 C 30.617188 44.65625 30.53125 37.285156 30.644531 29.910156 C 31.285156 28.457031 32.039062 27.117188 32.90625 25.890625 Z M 32.90625 25.890625 "/>
<path style=" stroke:none;fill-rule:evenodd;fill:rgb(2.352941%,3.921569%,6.27451%);fill-opacity:1;" d="M 53.003906 49.515625 C 51.753906 50.464844 50.246094 50.800781 48.480469 50.523438 C 48.480469 50.019531 48.480469 49.515625 48.480469 49.011719 C 47.515625 48.324219 46.429688 47.824219 45.214844 47.503906 C 44.878906 46.5 44.546875 45.496094 44.210938 44.488281 C 43.082031 41.097656 44.171875 39.84375 47.476562 40.71875 C 48.171875 39.050781 49.007812 37.457031 49.988281 35.941406 C 51.390625 36.519531 52.730469 37.191406 54.007812 37.953125 C 52.867188 38.386719 51.695312 38.386719 50.492188 37.953125 C 50.15625 39.796875 49.820312 41.640625 49.484375 43.484375 C 52.679688 43.847656 53.351562 45.4375 51.496094 48.257812 C 52.035156 48.6875 52.535156 49.105469 53.003906 49.515625 Z M 53.003906 49.515625 "/>
<path style=" stroke:none;fill-rule:evenodd;fill:rgb(90.980392%,57.647059%,67.45098%);fill-opacity:1;" d="M 100.730469 47.503906 C 99.765625 48.632812 98.59375 48.800781 97.214844 48.007812 C 95.484375 44.695312 96.488281 43.4375 100.226562 44.238281 C 101.285156 45.25 101.453125 46.339844 100.730469 47.503906 Z M 100.730469 47.503906 "/>
<path style=" stroke:none;fill-rule:evenodd;fill:rgb(90.588235%,50.980392%,62.352941%);fill-opacity:1;" d="M 92.1875 43.988281 C 95.574219 43.480469 96.578125 44.820312 95.203125 48.007812 C 94.101562 48.644531 93.011719 48.644531 91.9375 48.007812 C 91.574219 46.621094 91.660156 45.28125 92.1875 43.988281 Z M 92.1875 43.988281 "/>
<path style=" stroke:none;fill-rule:evenodd;fill:rgb(16.862745%,58.039216%,72.941176%);fill-opacity:1;" d="M 73.097656 39.460938 C 72.664062 40.847656 72.078125 42.1875 71.339844 43.484375 C 70.152344 46.960938 70.402344 50.3125 72.09375 53.539062 C 70.175781 53.066406 68.335938 52.394531 66.566406 51.527344 C 66.566406 50.523438 66.066406 50.019531 65.058594 50.019531 C 65.355469 49.691406 65.691406 49.355469 66.066406 49.011719 C 65.960938 48.71875 65.792969 48.46875 65.5625 48.257812 C 64.015625 47.914062 62.507812 47.496094 61.039062 47.003906 C 60.996094 46.503906 61.164062 46.082031 61.542969 45.746094 C 64.335938 45.546875 65.84375 44.121094 66.066406 41.472656 C 66.90625 40.71875 67.578125 39.796875 68.074219 38.707031 C 69.84375 38.359375 71.519531 38.613281 73.097656 39.460938 Z M 73.097656 39.460938 "/>
<path style=" stroke:none;fill-rule:evenodd;fill:rgb(90.980392%,44.705882%,64.705882%);fill-opacity:1;" d="M 100.730469 47.503906 C 99.558594 47.503906 98.386719 47.503906 97.214844 47.503906 C 96.765625 44.417969 97.773438 43.746094 100.226562 45.496094 C 100.695312 46.09375 100.859375 46.761719 100.730469 47.503906 Z M 100.730469 47.503906 "/>
<path style=" stroke:none;fill-rule:evenodd;fill:rgb(23.921569%,51.372549%,66.666667%);fill-opacity:1;" d="M 82.140625 21.363281 C 82.710938 23.011719 83.046875 24.773438 83.144531 26.644531 C 82.132812 28.773438 81.460938 31.035156 81.136719 33.429688 C 81.226562 35.296875 81.644531 35.296875 82.390625 33.429688 C 82.496094 34.214844 82.75 34.882812 83.144531 35.441406 C 83.144531 35.777344 83.3125 35.941406 83.648438 35.941406 C 83.820312 36.363281 84.15625 36.53125 84.652344 36.445312 C 86.328125 36.445312 88.003906 36.445312 89.675781 36.445312 C 89.519531 38.226562 89.6875 39.902344 90.179688 41.472656 C 90.390625 41.855469 90.558594 42.277344 90.683594 42.730469 C 89.980469 43.59375 89.644531 44.601562 89.675781 45.746094 C 90.097656 48.667969 90.097656 51.601562 89.675781 54.542969 C 87.769531 55.003906 86.097656 55.84375 84.652344 57.058594 C 84.316406 57.058594 84.152344 57.222656 84.152344 57.558594 C 83.820312 58.382812 83.652344 59.300781 83.648438 60.324219 C 84.148438 62.574219 84.402344 64.835938 84.402344 67.109375 C 84.234375 67.277344 84.066406 67.445312 83.898438 67.613281 C 83.664062 66.734375 83.328125 65.898438 82.894531 65.101562 C 82.558594 65.476562 82.140625 65.644531 81.640625 65.601562 C 80.628906 60.304688 79.207031 55.109375 77.367188 50.019531 C 73.78125 46.753906 73.78125 43.402344 77.367188 39.964844 C 78.109375 37.988281 78.695312 35.976562 79.125 33.933594 C 80.9375 29.988281 81.945312 25.796875 82.140625 21.363281 Z M 82.140625 21.363281 "/>
<path style=" stroke:none;fill-rule:evenodd;fill:rgb(2.352941%,3.137255%,3.921569%);fill-opacity:1;" d="M 80.632812 41.976562 C 81.816406 41.894531 82.988281 41.976562 84.152344 42.226562 C 85.234375 42.886719 85.402344 43.722656 84.652344 44.742188 C 83.703125 45.230469 82.699219 45.566406 81.640625 45.746094 C 82.71875 46.332031 83.804688 46.917969 84.90625 47.503906 C 85.261719 48.445312 85.011719 49.199219 84.152344 49.765625 C 80.746094 50.070312 77.898438 48.984375 75.609375 46.5 C 76.6875 44.292969 78.363281 42.785156 80.632812 41.976562 Z M 80.632812 41.976562 "/>
<path style=" stroke:none;fill-rule:evenodd;fill:rgb(1.568627%,2.745098%,3.921569%);fill-opacity:1;" d="M 66.566406 51.527344 C 68.335938 52.394531 70.175781 53.066406 72.09375 53.539062 C 72.703125 54.53125 73.121094 55.539062 73.347656 56.554688 C 72.652344 56.027344 72.152344 55.355469 71.84375 54.542969 C 71.261719 55.167969 70.59375 55.671875 69.832031 56.050781 C 69.957031 57.285156 70.210938 58.542969 70.585938 59.820312 C 70.578125 60.742188 70.242188 61.496094 69.582031 62.082031 C 68.449219 62.542969 67.445312 63.214844 66.566406 64.09375 C 67.242188 65.78125 67.914062 67.457031 68.578125 69.121094 C 68.464844 69.710938 68.632812 70.214844 69.078125 70.628906 C 72.101562 71.144531 72.769531 72.652344 71.089844 75.152344 C 70.726562 75.363281 70.472656 75.699219 70.335938 76.160156 C 68.601562 75.304688 66.757812 74.632812 64.808594 74.148438 C 63.984375 74.558594 63.230469 75.0625 62.546875 75.65625 C 61.835938 73.671875 60.582031 71.996094 58.78125 70.628906 C 57.5625 67.703125 58.148438 65.1875 60.539062 63.089844 C 61.207031 62.25 61.878906 61.414062 62.546875 60.574219 C 64.019531 60.027344 65.105469 59.023438 65.8125 57.558594 C 65.902344 55.453125 66.152344 53.441406 66.566406 51.527344 Z M 66.566406 51.527344 "/>
<path style=" stroke:none;fill-rule:evenodd;fill:rgb(23.529412%,71.372549%,85.882353%);fill-opacity:1;" d="M 79.125 33.933594 C 78.695312 35.976562 78.109375 37.988281 77.367188 39.964844 C 73.78125 43.402344 73.78125 46.753906 77.367188 50.019531 C 79.207031 55.109375 80.628906 60.304688 81.640625 65.601562 C 81.640625 66.273438 81.640625 66.945312 81.640625 67.613281 C 81.640625 67.949219 81.472656 68.117188 81.136719 68.117188 C 81.15625 66.417969 80.988281 64.742188 80.632812 63.089844 C 80.042969 63.199219 79.542969 63.03125 79.125 62.585938 C 79.902344 62.066406 80.152344 61.398438 79.878906 60.574219 C 78.335938 61.136719 76.746094 61.222656 75.109375 60.828125 C 74.519531 60.574219 74.101562 60.15625 73.851562 59.570312 C 72.957031 60.828125 72.117188 60.828125 71.339844 59.570312 C 71.171875 60.242188 71.003906 60.910156 70.835938 61.582031 C 70.5 61.960938 70.082031 62.128906 69.582031 62.082031 C 70.242188 61.496094 70.578125 60.742188 70.585938 59.820312 C 70.210938 58.542969 69.957031 57.285156 69.832031 56.050781 C 70.59375 55.671875 71.261719 55.167969 71.84375 54.542969 C 72.152344 55.355469 72.652344 56.027344 73.347656 56.554688 C 73.121094 55.539062 72.703125 54.53125 72.09375 53.539062 C 70.402344 50.3125 70.152344 46.960938 71.339844 43.484375 C 72.078125 42.1875 72.664062 40.847656 73.097656 39.460938 C 73.738281 39.015625 73.738281 38.515625 73.097656 37.953125 C 71.9375 37.449219 70.929688 36.78125 70.082031 35.941406 C 70.25 35.941406 70.417969 35.941406 70.585938 35.941406 C 71.753906 36.023438 72.671875 36.527344 73.347656 37.453125 C 73.515625 37.117188 73.683594 36.78125 73.851562 36.445312 C 74.1875 37.117188 74.519531 37.117188 74.855469 36.445312 C 75.105469 36.972656 75.019531 37.476562 74.605469 37.953125 C 74.773438 38.457031 75.109375 38.792969 75.609375 38.960938 C 77 37.40625 78.171875 35.730469 79.125 33.933594 Z M 79.125 33.933594 "/>
<path style=" stroke:none;fill-rule:evenodd;fill:rgb(94.901961%,46.27451%,69.411765%);fill-opacity:1;" d="M 96.207031 51.023438 C 97.558594 50.941406 98.898438 51.027344 100.226562 51.277344 C 100.972656 52.578125 100.804688 53.75 99.726562 54.792969 C 98.394531 55.042969 97.054688 55.128906 95.707031 55.046875 C 95.65625 53.671875 95.824219 52.328125 96.207031 51.023438 Z M 96.207031 51.023438 "/>
<path style=" stroke:none;fill-rule:evenodd;fill:rgb(92.54902%,46.666667%,68.235294%);fill-opacity:1;" d="M 91.6875 51.023438 C 94.484375 50.648438 95.40625 51.820312 94.449219 54.542969 C 93.40625 55.625 92.234375 55.789062 90.933594 55.046875 C 90.574219 53.585938 90.824219 52.242188 91.6875 51.023438 Z M 91.6875 51.023438 "/>
<path style=" stroke:none;fill-rule:evenodd;fill:rgb(13.72549%,52.156863%,65.882353%);fill-opacity:1;" d="M 34.414062 47.503906 C 34.570312 48.722656 34.402344 49.898438 33.910156 51.023438 C 33.5625 50.761719 33.3125 50.425781 33.15625 50.019531 C 32.5625 54.027344 32.394531 58.050781 32.65625 62.082031 C 32.933594 63.929688 33.605469 65.605469 34.664062 67.109375 C 36.171875 68.234375 37.59375 69.40625 38.933594 70.628906 C 37.582031 70.101562 36.242188 69.597656 34.917969 69.121094 C 34.917969 69.625 34.917969 70.128906 34.917969 70.628906 C 33.296875 68.90625 32.039062 66.894531 31.148438 64.597656 C 30.898438 60.410156 30.8125 56.222656 30.898438 52.03125 C 31.308594 50.789062 31.558594 49.449219 31.652344 48.007812 C 31.816406 47.839844 31.984375 47.671875 32.152344 47.503906 C 32.320312 48.175781 32.488281 48.847656 32.65625 49.515625 C 32.90625 49.265625 33.15625 49.011719 33.410156 48.761719 C 33.082031 48.105469 33.417969 47.6875 34.414062 47.503906 Z M 34.414062 47.503906 "/>
<path style=" stroke:none;fill-rule:evenodd;fill:rgb(16.078431%,75.294118%,88.235294%);fill-opacity:1;" d="M 61.039062 47.003906 C 62.507812 47.496094 64.015625 47.914062 65.5625 48.257812 C 65.792969 48.46875 65.960938 48.71875 66.066406 49.011719 C 65.691406 49.355469 65.355469 49.691406 65.058594 50.019531 C 65.855469 55.226562 63.679688 58.160156 58.527344 58.816406 C 58.109375 59.324219 57.941406 59.910156 58.027344 60.574219 C 59.535156 60.574219 61.039062 60.574219 62.546875 60.574219 C 61.878906 61.414062 61.207031 62.25 60.539062 63.089844 C 60 62.554688 59.496094 62.554688 59.03125 63.089844 C 55.648438 67.03125 55.8125 70.886719 59.535156 74.652344 C 58.246094 74.804688 57.074219 74.636719 56.015625 74.148438 C 55.605469 73.324219 55.1875 72.484375 54.761719 71.636719 C 54.53125 68.769531 54.53125 65.917969 54.761719 63.089844 C 53.585938 66.707031 51.492188 69.640625 48.480469 71.886719 C 47.140625 72.222656 45.800781 72.222656 44.460938 71.886719 C 42.617188 71.410156 40.777344 70.992188 38.933594 70.628906 C 37.59375 69.40625 36.171875 68.234375 34.664062 67.109375 C 33.605469 65.605469 32.933594 63.929688 32.65625 62.082031 C 32.394531 58.050781 32.5625 54.027344 33.15625 50.019531 C 33.3125 50.425781 33.5625 50.761719 33.910156 51.023438 C 34.402344 49.898438 34.570312 48.722656 34.414062 47.503906 C 34.414062 47.335938 34.414062 47.171875 34.414062 47.003906 C 34.414062 46.835938 34.414062 46.667969 34.414062 46.5 C 36.371094 47.125 36.871094 48.382812 35.921875 50.269531 C 36.6875 50.777344 37.523438 51.027344 38.433594 51.023438 C 38.296875 50.21875 38.464844 49.550781 38.933594 49.011719 C 38.933594 49.683594 38.933594 50.355469 38.933594 51.023438 C 40.921875 51.414062 42.929688 51.578125 44.964844 51.527344 C 45.175781 50.378906 44.839844 49.542969 43.960938 49.011719 C 45.355469 48.808594 46.863281 48.808594 48.480469 49.011719 C 48.480469 49.515625 48.480469 50.019531 48.480469 50.523438 C 50.246094 50.800781 51.753906 50.464844 53.003906 49.515625 C 54.683594 48.859375 54.851562 49.195312 53.503906 50.523438 C 54.996094 52.4375 56.921875 53.613281 59.28125 54.039062 C 60.382812 53.757812 60.714844 53.089844 60.285156 52.03125 C 58.609375 51.089844 57.015625 50.085938 55.515625 49.011719 C 56.257812 47.722656 56.757812 46.550781 57.023438 45.496094 C 57.527344 46.519531 58.195312 46.6875 59.03125 45.996094 C 59.546875 46.675781 60.214844 47.011719 61.039062 47.003906 Z M 61.039062 47.003906 "/>
<path style=" stroke:none;fill-rule:evenodd;fill:rgb(9.803922%,17.647059%,21.960784%);fill-opacity:1;" d="M 46.472656 54.039062 C 46.972656 54.039062 47.476562 54.039062 47.976562 54.039062 C 47.976562 54.710938 47.976562 55.382812 47.976562 56.050781 C 46.242188 56.167969 45.742188 55.5 46.472656 54.039062 Z M 46.472656 54.039062 "/>
<path style=" stroke:none;fill-rule:evenodd;fill:rgb(55.294118%,86.666667%,92.54902%);fill-opacity:1;" d="M 38.933594 49.011719 C 40.609375 49.011719 42.285156 49.011719 43.960938 49.011719 C 44.839844 49.542969 45.175781 50.378906 44.964844 51.527344 C 42.929688 51.578125 40.921875 51.414062 38.933594 51.023438 C 38.933594 50.355469 38.933594 49.683594 38.933594 49.011719 Z M 38.933594 49.011719 "/>
<path style=" stroke:none;fill-rule:evenodd;fill:rgb(93.72549%,63.137255%,70.980392%);fill-opacity:1;" d="M 93.195312 61.078125 C 92.199219 61.917969 91.027344 62.25 89.675781 62.082031 C 89.25 58.851562 90.507812 57.675781 93.445312 58.566406 C 93.636719 59.417969 93.554688 60.253906 93.195312 61.078125 Z M 93.195312 61.078125 "/>
<path style=" stroke:none;fill-rule:evenodd;fill:rgb(14.901961%,47.45098%,61.568627%);fill-opacity:1;" d="M 65.058594 50.019531 C 66.066406 50.019531 66.566406 50.523438 66.566406 51.527344 C 66.152344 53.441406 65.902344 55.453125 65.8125 57.558594 C 65.105469 59.023438 64.019531 60.027344 62.546875 60.574219 C 61.039062 60.574219 59.535156 60.574219 58.027344 60.574219 C 57.941406 59.910156 58.109375 59.324219 58.527344 58.816406 C 63.679688 58.160156 65.855469 55.226562 65.058594 50.019531 Z M 65.058594 50.019531 "/>
<path style=" stroke:none;fill-rule:evenodd;fill:rgb(10.980392%,29.803922%,44.313725%);fill-opacity:1;" d="M 89.675781 54.542969 C 89.117188 56.671875 88.613281 58.847656 88.167969 61.078125 C 87.792969 61.617188 87.289062 61.703125 86.664062 61.328125 C 85.246094 60.253906 84.574219 58.828125 84.652344 57.058594 C 86.097656 55.84375 87.769531 55.003906 89.675781 54.542969 Z M 89.675781 54.542969 "/>
<path style=" stroke:none;fill-rule:evenodd;fill:rgb(96.078431%,52.941176%,67.058824%);fill-opacity:1;" d="M 94.199219 61.582031 C 94.199219 61.414062 94.199219 61.246094 94.199219 61.078125 C 94.035156 59.960938 94.371094 59.039062 95.203125 58.3125 C 96.542969 57.976562 97.882812 57.976562 99.222656 58.3125 C 99.503906 58.679688 99.671875 59.097656 99.726562 59.570312 C 98.566406 61.976562 96.726562 62.644531 94.199219 61.582031 Z M 94.199219 61.582031 "/>
<path style=" stroke:none;fill-rule:evenodd;fill:rgb(94.509804%,92.54902%,88.235294%);fill-opacity:1;" d="M 15.824219 53.035156 C 17.246094 58.472656 19.421875 63.582031 22.355469 68.367188 C 22.242188 68.566406 22.074219 68.652344 21.855469 68.617188 C 21.015625 68.617188 20.179688 68.617188 19.34375 68.617188 C 19.230469 70.070312 19.566406 71.414062 20.347656 72.640625 C 19.929688 72.808594 19.507812 72.976562 19.089844 73.144531 C 13.355469 70.984375 8.417969 67.632812 4.269531 63.089844 C 3.308594 62.300781 2.804688 61.292969 2.761719 60.074219 C 4.207031 60.046875 5.628906 60.214844 7.035156 60.574219 C 8.304688 60.488281 8.554688 59.988281 7.785156 59.066406 C 8.5625 58.589844 9.402344 58.421875 10.300781 58.566406 C 10.402344 57.613281 10.066406 56.859375 9.292969 56.300781 C 8.316406 56.367188 7.394531 56.285156 6.53125 56.050781 C 4.789062 51.757812 4.371094 47.402344 5.273438 42.980469 C 5.636719 43.191406 5.890625 43.527344 6.027344 43.988281 C 6.214844 43.527344 6.46875 43.105469 6.78125 42.730469 C 7.953125 42.394531 9.125 42.394531 10.300781 42.730469 C 13.078125 45.363281 14.5 48.632812 14.570312 52.53125 C 14.738281 52.195312 14.90625 51.863281 15.070312 51.527344 C 15.1875 52.148438 15.441406 52.652344 15.824219 53.035156 Z M 15.824219 53.035156 "/>
<path style=" stroke:none;fill-rule:evenodd;fill:rgb(54.117647%,58.431373%,57.254902%);fill-opacity:1;" d="M 29.390625 24.882812 C 29.445312 25.195312 29.613281 25.445312 29.890625 25.636719 C 28.265625 27.539062 27.511719 29.800781 27.632812 32.425781 C 26.605469 33.0625 25.683594 32.894531 24.867188 31.921875 C 24.382812 32.15625 24.382812 32.492188 24.867188 32.925781 C 24.105469 32.921875 23.519531 32.585938 23.109375 31.921875 C 22.214844 32.820312 21.796875 33.910156 21.855469 35.1875 C 24.542969 43.25 25.046875 51.460938 23.359375 59.820312 C 23.179688 63.074219 24.6875 64.5 27.882812 64.09375 C 27.324219 64.492188 26.65625 64.742188 25.875 64.847656 C 27.507812 65.582031 28.847656 66.671875 29.890625 68.117188 C 29.132812 68.910156 28.292969 69.582031 27.378906 70.128906 C 25.28125 70.675781 23.441406 70.171875 21.855469 68.617188 C 22.074219 68.652344 22.242188 68.566406 22.355469 68.367188 C 19.421875 63.582031 17.246094 58.472656 15.824219 53.035156 C 15.746094 52.179688 15.828125 51.34375 16.078125 50.523438 C 17.582031 52.699219 19.089844 54.878906 20.597656 57.058594 C 20.933594 54.039062 20.933594 51.023438 20.597656 48.007812 C 19.171875 42.390625 17.75 36.777344 16.328125 31.167969 C 16.496094 30.414062 16.664062 29.660156 16.832031 28.90625 C 17.828125 30.226562 18.832031 31.566406 19.84375 32.925781 C 20.828125 30.265625 20.996094 27.585938 20.347656 24.882812 C 22.382812 24.578125 24.308594 23.910156 26.125 22.871094 C 27.417969 23.25 28.503906 23.921875 29.390625 24.882812 Z M 29.390625 24.882812 "/>
<use xlink:href="#surface11" mask="url(#mask2)"/>
<path style=" stroke:none;fill-rule:evenodd;fill:rgb(12.54902%,73.72549%,86.666667%);fill-opacity:1;" d="M 81.136719 68.117188 C 81.136719 68.453125 81.136719 68.785156 81.136719 69.121094 C 80.773438 69.332031 80.523438 69.667969 80.382812 70.128906 C 80.046875 69.457031 79.714844 68.785156 79.378906 68.117188 C 79.324219 69.296875 78.738281 70.050781 77.621094 70.378906 C 78.8125 70.867188 78.648438 71.203125 77.117188 71.382812 C 76.300781 71.8125 76.132812 72.316406 76.613281 72.890625 C 74.902344 73.445312 73.5625 73.027344 72.59375 71.636719 C 72.859375 71.289062 73.195312 71.035156 73.601562 70.882812 C 72.429688 70.714844 71.253906 70.546875 70.082031 70.378906 C 69.484375 70.027344 68.984375 69.609375 68.578125 69.121094 C 67.914062 67.457031 67.242188 65.78125 66.566406 64.09375 C 67.445312 63.214844 68.449219 62.542969 69.582031 62.082031 C 70.082031 62.128906 70.5 61.960938 70.835938 61.582031 C 71.003906 60.910156 71.171875 60.242188 71.339844 59.570312 C 72.117188 60.828125 72.957031 60.828125 73.851562 59.570312 C 74.101562 60.15625 74.519531 60.574219 75.109375 60.828125 C 76.746094 61.222656 78.335938 61.136719 79.878906 60.574219 C 80.152344 61.398438 79.902344 62.066406 79.125 62.585938 C 79.542969 63.03125 80.042969 63.199219 80.632812 63.089844 C 80.988281 64.742188 81.15625 66.417969 81.136719 68.117188 Z M 81.136719 68.117188 "/>
<path style=" stroke:none;fill-rule:evenodd;fill:rgb(20.392157%,45.098039%,56.078431%);fill-opacity:1;" d="M 84.152344 57.558594 C 84.066406 59.078125 84.152344 60.585938 84.402344 62.082031 C 88.164062 68.800781 86.570312 73.828125 79.628906 77.164062 C 80.121094 75.171875 81.125 73.5 82.644531 72.136719 C 82.988281 72.777344 83.410156 72.777344 83.898438 72.136719 C 85.441406 69.394531 84.6875 67.886719 81.640625 67.613281 C 81.640625 66.945312 81.640625 66.273438 81.640625 65.601562 C 82.140625 65.644531 82.558594 65.476562 82.894531 65.101562 C 83.328125 65.898438 83.664062 66.734375 83.898438 67.613281 C 84.066406 67.445312 84.234375 67.277344 84.402344 67.109375 C 84.402344 64.835938 84.148438 62.574219 83.648438 60.324219 C 83.652344 59.300781 83.820312 58.382812 84.152344 57.558594 Z M 84.152344 57.558594 "/>
<path style=" stroke:none;fill-rule:evenodd;fill:rgb(85.490196%,47.45098%,50.588235%);fill-opacity:1;" d="M 88.167969 64.597656 C 90.242188 64.78125 92.25 64.78125 94.199219 64.597656 C 95.5 65.71875 95.332031 66.808594 93.695312 67.863281 C 90.542969 68.804688 88.703125 67.71875 88.167969 64.597656 Z M 88.167969 64.597656 "/>
<path style=" stroke:none;fill-rule:evenodd;fill:rgb(6.666667%,11.372549%,15.294118%);fill-opacity:1;" d="M 81.640625 67.613281 C 84.6875 67.886719 85.441406 69.394531 83.898438 72.136719 C 83.410156 72.777344 82.988281 72.777344 82.644531 72.136719 C 83.136719 71.980469 83.46875 71.644531 83.648438 71.132812 C 82.601562 70.636719 81.761719 69.964844 81.136719 69.121094 C 81.136719 68.785156 81.136719 68.453125 81.136719 68.117188 C 81.472656 68.117188 81.640625 67.949219 81.640625 67.613281 Z M 81.640625 67.613281 "/>
<use xlink:href="#surface14" mask="url(#mask3)"/>
<path style=" stroke:none;fill-rule:evenodd;fill:rgb(55.294118%,60.392157%,57.254902%);fill-opacity:1;" d="M 22.859375 20.863281 C 23.601562 20.730469 24.269531 20.898438 24.867188 21.363281 C 24.003906 22.078125 23.082031 22.75 22.105469 23.375 C 22.042969 22.480469 22.296875 21.640625 22.859375 20.863281 Z M 22.859375 20.863281 "/>
<path style=" stroke:none;fill-rule:evenodd;fill:rgb(31.372549%,71.764706%,84.313725%);fill-opacity:1;" d="M 81.136719 69.121094 C 81.761719 69.964844 82.601562 70.636719 83.648438 71.132812 C 83.46875 71.644531 83.136719 71.980469 82.644531 72.136719 C 81.125 73.5 80.121094 75.171875 79.628906 77.164062 C 78.960938 77.332031 78.289062 77.5 77.621094 77.667969 C 76.015625 77.332031 74.34375 76.996094 72.59375 76.664062 C 72.070312 76.136719 71.566406 75.632812 71.089844 75.152344 C 72.769531 72.652344 72.101562 71.144531 69.078125 70.628906 C 68.632812 70.214844 68.464844 69.710938 68.578125 69.121094 C 68.984375 69.609375 69.484375 70.027344 70.082031 70.378906 C 71.253906 70.546875 72.429688 70.714844 73.601562 70.882812 C 73.195312 71.035156 72.859375 71.289062 72.59375 71.636719 C 73.5625 73.027344 74.902344 73.445312 76.613281 72.890625 C 76.132812 72.316406 76.300781 71.8125 77.117188 71.382812 C 78.648438 71.203125 78.8125 70.867188 77.621094 70.378906 C 78.738281 70.050781 79.324219 69.296875 79.378906 68.117188 C 79.714844 68.785156 80.046875 69.457031 80.382812 70.128906 C 80.523438 69.667969 80.773438 69.332031 81.136719 69.121094 Z M 81.136719 69.121094 "/>
<path style=" stroke:none;fill-rule:evenodd;fill:rgb(14.509804%,59.215686%,73.333333%);fill-opacity:1;" d="M 56.015625 74.148438 C 53.167969 74.148438 50.324219 74.148438 47.476562 74.148438 C 44.3125 73.652344 41.464844 72.480469 38.933594 70.628906 C 40.777344 70.992188 42.617188 71.410156 44.460938 71.886719 C 45.800781 72.222656 47.140625 72.222656 48.480469 71.886719 C 51.492188 69.640625 53.585938 66.707031 54.761719 63.089844 C 54.53125 65.917969 54.53125 68.769531 54.761719 71.636719 C 55.1875 72.484375 55.605469 73.324219 56.015625 74.148438 Z M 56.015625 74.148438 "/>
<path style=" stroke:none;fill-rule:evenodd;fill:rgb(17.647059%,56.078431%,68.235294%);fill-opacity:1;" d="M 60.539062 63.089844 C 58.148438 65.1875 57.5625 67.703125 58.78125 70.628906 C 60.582031 71.996094 61.835938 73.671875 62.546875 75.65625 C 62.375 76.078125 62.042969 76.246094 61.542969 76.160156 C 61.074219 75.417969 60.402344 74.914062 59.535156 74.652344 C 55.8125 70.886719 55.648438 67.03125 59.03125 63.089844 C 59.496094 62.554688 60 62.554688 60.539062 63.089844 Z M 60.539062 63.089844 "/>
<path style=" stroke:none;fill-rule:evenodd;fill:rgb(41.176471%,74.509804%,85.882353%);fill-opacity:1;" d="M 38.933594 70.628906 C 41.464844 72.480469 44.3125 73.652344 47.476562 74.148438 C 47.867188 75.210938 47.867188 76.214844 47.476562 77.164062 C 42.472656 76.507812 38.285156 74.328125 34.917969 70.628906 C 34.917969 70.128906 34.917969 69.625 34.917969 69.121094 C 36.242188 69.597656 37.582031 70.101562 38.933594 70.628906 Z M 38.933594 70.628906 "/>
<use xlink:href="#surface17" mask="url(#mask4)"/>
<path style=" stroke:none;fill-rule:evenodd;fill:rgb(65.490196%,68.627451%,67.058824%);fill-opacity:1;" d="M 31.902344 78.171875 C 33.535156 78.652344 35.042969 79.40625 36.421875 80.433594 C 41.390625 81.378906 46.414062 81.882812 51.496094 81.941406 C 51.664062 82.109375 51.832031 82.277344 51.996094 82.441406 C 51.085938 83.105469 50.246094 83.859375 49.484375 84.707031 C 52.914062 84.414062 55.757812 82.90625 58.027344 80.179688 C 58.695312 80.179688 59.367188 80.179688 60.035156 80.179688 C 60.035156 80.851562 60.035156 81.523438 60.035156 82.191406 C 55.363281 87.4375 49.503906 89.617188 42.453125 88.726562 C 43.027344 87.898438 43.699219 87.144531 44.460938 86.464844 C 43.984375 86.222656 43.484375 86.136719 42.953125 86.214844 C 43.683594 85.808594 44.519531 85.558594 45.464844 85.460938 C 39.1875 85.074219 33.492188 83.144531 28.386719 79.679688 C 29.691406 79.359375 30.863281 78.859375 31.902344 78.171875 Z M 31.902344 78.171875 "/>
<path style=" stroke:none;fill-rule:evenodd;fill:rgb(48.235294%,67.058824%,76.862745%);fill-opacity:1;" d="M 72.59375 87.21875 C 72.09375 86.546875 71.589844 85.878906 71.089844 85.207031 C 71.589844 84.871094 72.09375 84.539062 72.59375 84.203125 C 74.152344 83.570312 75.324219 82.480469 76.113281 80.933594 C 76.761719 80.6875 77.433594 80.605469 78.121094 80.683594 C 77.523438 83.960938 75.683594 86.136719 72.59375 87.21875 Z M 72.59375 87.21875 "/>
<path style=" stroke:none;fill-rule:evenodd;fill:rgb(69.411765%,79.607843%,86.27451%);fill-opacity:1;" d="M 63.050781 80.683594 C 64.8125 83.746094 67.492188 85.253906 71.089844 85.207031 C 71.589844 85.878906 72.09375 86.546875 72.59375 87.21875 C 68.519531 88.59375 65.085938 87.589844 62.296875 84.203125 C 61.882812 82.839844 62.132812 81.667969 63.050781 80.683594 Z M 63.050781 80.683594 "/>
<path style=" stroke:none;fill-rule:evenodd;fill:rgb(19.215686%,37.647059%,50.196078%);fill-opacity:1;" d="M 63.050781 80.683594 C 66.070312 80.601562 69.082031 80.683594 72.09375 80.933594 C 73.433594 81.941406 73.433594 82.945312 72.09375 83.953125 C 72.207031 84.152344 72.375 84.234375 72.59375 84.203125 C 72.09375 84.539062 71.589844 84.871094 71.089844 85.207031 C 67.492188 85.253906 64.8125 83.746094 63.050781 80.683594 Z M 63.050781 80.683594 "/>
<path style=" stroke:none;fill-rule:evenodd;fill:rgb(63.921569%,87.058824%,94.117647%);fill-opacity:1;" d="M 47.476562 74.148438 C 50.324219 74.148438 53.167969 74.148438 56.015625 74.148438 C 57.074219 74.636719 58.246094 74.804688 59.535156 74.652344 C 60.402344 74.914062 61.074219 75.417969 61.542969 76.160156 C 62.089844 76.972656 62.925781 77.390625 64.054688 77.417969 C 63.234375 77.664062 62.398438 77.746094 61.542969 77.667969 C 56.8125 77.820312 52.125 77.652344 47.476562 77.164062 C 47.867188 76.214844 47.867188 75.210938 47.476562 74.148438 Z M 47.476562 74.148438 "/>
<path style=" stroke:none;fill-rule:evenodd;fill:rgb(88.627451%,88.235294%,85.098039%);fill-opacity:1;" d="M 25.371094 74.148438 C 27.445312 75.609375 29.621094 76.949219 31.902344 78.171875 C 30.863281 78.859375 29.691406 79.359375 28.386719 79.679688 C 33.492188 83.144531 39.1875 85.074219 45.464844 85.460938 C 44.519531 85.558594 43.683594 85.808594 42.953125 86.214844 C 39.777344 86.605469 36.597656 86.6875 33.410156 86.464844 C 29.632812 86.003906 26.785156 84.160156 24.867188 80.933594 C 10.671875 76.941406 10.835938 74.675781 25.371094 74.148438 Z M 25.371094 74.148438 "/>
<path style=" stroke:none;fill-rule:evenodd;fill:rgb(45.098039%,69.803922%,80%);fill-opacity:1;" d="M 71.089844 75.152344 C 71.566406 75.632812 72.070312 76.136719 72.59375 76.664062 C 74.34375 76.996094 76.015625 77.332031 77.621094 77.667969 C 72.195312 78.320312 66.835938 78.320312 61.542969 77.667969 C 62.398438 77.746094 63.234375 77.664062 64.054688 77.417969 C 62.925781 77.390625 62.089844 76.972656 61.542969 76.160156 C 62.042969 76.246094 62.375 76.078125 62.546875 75.65625 C 63.230469 75.0625 63.984375 74.558594 64.808594 74.148438 C 66.757812 74.632812 68.601562 75.304688 70.335938 76.160156 C 70.472656 75.699219 70.726562 75.363281 71.089844 75.152344 Z M 71.089844 75.152344 "/>
<path style=" stroke:none;fill-rule:evenodd;fill:rgb(7.843137%,13.333333%,20%);fill-opacity:1;" d="M 73.097656 73.644531 C 74.96875 74.074219 76.8125 74.242188 78.625 74.148438 C 76.894531 75.015625 75.054688 75.351562 73.097656 75.152344 C 73.097656 74.652344 73.097656 74.148438 73.097656 73.644531 Z M 73.097656 73.644531 "/>
<path style=" stroke:none;fill-rule:evenodd;fill:rgb(55.294118%,58.431373%,57.647059%);fill-opacity:1;" d="M 58.027344 80.179688 C 55.757812 82.90625 52.914062 84.414062 49.484375 84.707031 C 50.246094 83.859375 51.085938 83.105469 51.996094 82.441406 C 51.832031 82.277344 51.664062 82.109375 51.496094 81.941406 C 46.414062 81.882812 41.390625 81.378906 36.421875 80.433594 C 35.042969 79.40625 33.535156 78.652344 31.902344 78.171875 C 29.621094 76.949219 27.445312 75.609375 25.371094 74.148438 C 26.261719 72.785156 27.433594 71.78125 28.886719 71.132812 C 29.898438 70.875 30.902344 70.789062 31.902344 70.882812 C 32.785156 72.3125 33.789062 73.652344 34.917969 74.902344 C 41.929688 79.507812 49.632812 81.269531 58.027344 80.179688 Z M 58.027344 80.179688 "/>
<path style=" stroke:none;fill-rule:evenodd;fill:rgb(72.156863%,72.54902%,72.156863%);fill-opacity:1;" d="M 20.847656 71.132812 C 21.734375 70.523438 22.574219 70.691406 23.359375 71.636719 C 22.40625 72.214844 21.570312 72.046875 20.847656 71.132812 Z M 20.847656 71.132812 "/>
</g>
</svg>
