<?xml version="1.0" encoding="UTF-8"?>
<svg xmlns="http://www.w3.org/2000/svg" xmlns:xlink="http://www.w3.org/1999/xlink" width="px" height="px" viewBox="0 0 96 104" version="1.1">
<defs>
<filter id="alpha" filterUnits="objectBoundingBox" x="0%" y="0%" width="100%" height="100%">
  <feColorMatrix type="matrix" in="SourceGraphic" values="0 0 0 0 1 0 0 0 0 1 0 0 0 0 1 0 0 0 1 0"/>
</filter>
<mask id="mask0">
  <g filter="url(#alpha)">
<rect x="0" y="0" width="96" height="104" style="fill:rgb(0%,0%,0%);fill-opacity:0.996078;stroke:none;"/>
  </g>
</mask>
<clipPath id="clip1">
  <rect x="0" y="0" width="96" height="104"/>
</clipPath>
<g id="surface5" clip-path="url(#clip1)">
<path style=" stroke:none;fill-rule:evenodd;fill:rgb(4.705882%,1.960784%,2.352941%);fill-opacity:1;" d="M 94.242188 58.75 C 92.972656 57.910156 91.632812 57.160156 90.21875 56.5 C 89.039062 56.332031 87.867188 56.417969 86.703125 56.75 C 86.703125 56.25 86.703125 55.75 86.703125 55.25 C 88.152344 55.402344 89.492188 55.238281 90.722656 54.75 C 91.222656 54.835938 91.554688 54.667969 91.726562 54.25 C 92.328125 54.015625 92.664062 53.515625 92.734375 52.75 C 92.371094 51.5 91.867188 50.335938 91.226562 49.25 C 90.207031 49.332031 89.199219 49.246094 88.210938 49 C 89.453125 48.980469 90.457031 48.566406 91.226562 47.75 C 92.59375 46.410156 92.425781 45.160156 90.722656 44 C 89.5625 43.75 88.390625 43.667969 87.203125 43.75 C 87.117188 43.089844 87.285156 42.503906 87.707031 42 C 88.652344 41.902344 89.488281 41.652344 90.21875 41.25 C 90.015625 38.550781 88.507812 37.386719 85.695312 37.75 C 85.671875 38.953125 85.835938 40.117188 86.199219 41.25 C 86.039062 42.023438 85.535156 42.355469 84.691406 42.25 C 84.832031 41.292969 84.667969 40.460938 84.1875 39.75 C 84.308594 39.105469 84.140625 38.605469 83.6875 38.25 C 82.625 37.765625 81.453125 37.597656 80.167969 37.75 C 80.25 39.257812 80.167969 40.757812 79.917969 42.25 C 79.800781 41.632812 79.546875 41.132812 79.164062 40.75 C 78.757812 39.09375 77.839844 37.761719 76.398438 36.75 C 76.582031 33.554688 76.917969 30.390625 77.402344 27.25 C 76.480469 24.332031 74.554688 22.417969 71.621094 21.5 C 65.75 21.097656 59.886719 20.597656 54.03125 20 C 53.753906 19.808594 53.585938 19.558594 53.527344 19.25 C 52.484375 16.085938 52.988281 13.253906 55.035156 10.75 C 56.363281 9.921875 57.703125 9.089844 59.058594 8.25 C 59.601562 7.816406 59.683594 7.316406 59.308594 6.75 C 57.914062 6.035156 56.492188 5.371094 55.035156 4.75 C 54.253906 5.964844 53.921875 7.300781 54.03125 8.75 C 52.140625 12.183594 51.636719 15.851562 52.523438 19.75 C 49.171875 19.75 45.820312 19.75 42.472656 19.75 C 40.449219 19.996094 38.941406 19.246094 37.949219 17.5 C 39.140625 16.570312 39.476562 15.488281 38.953125 14.25 C 39.394531 13.386719 39.730469 12.46875 39.957031 11.5 C 39.136719 9.449219 38.382812 7.367188 37.695312 5.25 C 35.53125 4.609375 33.601562 5.109375 31.917969 6.75 C 32.472656 7.777344 33.3125 8.441406 34.429688 8.75 C 33.832031 9.480469 33.832031 10.148438 34.429688 10.75 C 35.109375 12.433594 35.78125 14.101562 36.441406 15.75 C 36.484375 17.074219 36.148438 18.242188 35.433594 19.25 C 34.699219 15.117188 32.6875 11.78125 29.402344 9.25 C 27.875 8.046875 26.117188 7.382812 24.125 7.25 C 20.4375 7.527344 17.085938 8.695312 14.074219 10.75 C 13.046875 12.121094 12.292969 13.621094 11.8125 15.25 C 9.195312 19.632812 9.867188 23.382812 13.820312 26.5 C 14.121094 26.730469 14.457031 26.816406 14.828125 26.75 C 16.113281 26.597656 17.285156 26.765625 18.34375 27.25 C 16.835938 27.25 15.328125 27.25 13.820312 27.25 C 13.820312 27.75 13.820312 28.25 13.820312 28.75 C 12.464844 27.898438 11.210938 26.898438 10.050781 25.75 C 8.679688 26.976562 7.671875 28.476562 7.035156 30.25 C 6.355469 29.179688 6.105469 28.097656 6.28125 27 C 6.628906 26.464844 6.882812 25.882812 7.035156 25.25 C 7.203125 25.417969 7.371094 25.582031 7.539062 25.75 C 7.714844 24.890625 7.964844 24.058594 8.292969 23.25 C 8.230469 22.945312 8.0625 22.78125 7.789062 22.75 C 7.789062 22.25 7.789062 21.75 7.789062 21.25 C 8.632812 16.726562 10.304688 12.558594 12.816406 8.75 C 17.917969 5.355469 23.449219 4.269531 29.402344 5.5 C 32.269531 3.492188 35.453125 2.15625 38.953125 1.5 C 46.3125 0.425781 53.347656 1.425781 60.0625 4.5 C 63.976562 7.226562 67.746094 10.140625 71.371094 13.25 C 72.167969 15.210938 72.835938 17.210938 73.382812 19.25 C 76.550781 21.039062 78.644531 23.707031 79.664062 27.25 C 85.347656 27.695312 88.617188 30.695312 89.464844 36.25 C 91.691406 37.847656 92.699219 40.011719 92.480469 42.75 C 94.476562 44.8125 94.730469 47.0625 93.234375 49.5 C 94.5625 51.722656 94.5625 53.972656 93.234375 56.25 C 93.714844 57.039062 94.050781 57.871094 94.242188 58.75 Z M 94.242188 58.75 "/>
</g>
<mask id="mask1">
  <g filter="url(#alpha)">
<rect x="0" y="0" width="96" height="104" style="fill:rgb(0%,0%,0%);fill-opacity:0.270588;stroke:none;"/>
  </g>
</mask>
<clipPath id="clip2">
  <rect x="0" y="0" width="96" height="104"/>
</clipPath>
<g id="surface8" clip-path="url(#clip2)">
<path style=" stroke:none;fill-rule:evenodd;fill:rgb(15.686275%,19.215687%,23.529412%);fill-opacity:1;" d="M 12.816406 8.75 C 10.304688 12.558594 8.632812 16.726562 7.789062 21.25 C 7.398438 19.535156 7.734375 17.867188 8.796875 16.25 C 8.691406 15.957031 8.523438 15.707031 8.292969 15.5 C 9.140625 13.5625 10.0625 11.644531 11.058594 9.75 C 11.46875 9.089844 12.054688 8.753906 12.816406 8.75 Z M 12.816406 8.75 "/>
</g>
<mask id="mask2">
  <g filter="url(#alpha)">
<rect x="0" y="0" width="96" height="104" style="fill:rgb(0%,0%,0%);fill-opacity:0.905882;stroke:none;"/>
  </g>
</mask>
<clipPath id="clip3">
  <rect x="0" y="0" width="96" height="104"/>
</clipPath>
<g id="surface11" clip-path="url(#clip3)">
<path style=" stroke:none;fill-rule:evenodd;fill:rgb(6.27451%,3.529412%,5.098039%);fill-opacity:1;" d="M 83.6875 38.25 C 82.679688 38.25 81.675781 38.25 80.671875 38.25 C 80.671875 39.25 80.671875 40.25 80.671875 41.25 C 81.84375 41.25 83.015625 41.25 84.1875 41.25 C 84.1875 40.75 84.1875 40.25 84.1875 39.75 C 84.667969 40.460938 84.832031 41.292969 84.691406 42.25 C 85.535156 42.355469 86.039062 42.023438 86.199219 41.25 C 87.539062 41.25 88.878906 41.25 90.21875 41.25 C 89.488281 41.652344 88.652344 41.902344 87.707031 42 C 87.285156 42.503906 87.117188 43.089844 87.203125 43.75 C 86.757812 45.027344 86.589844 46.359375 86.703125 47.75 C 88.210938 47.75 89.71875 47.75 91.226562 47.75 C 90.457031 48.566406 89.453125 48.980469 88.210938 49 C 89.199219 49.246094 90.207031 49.332031 91.226562 49.25 C 91.867188 50.335938 92.371094 51.5 92.734375 52.75 C 92.664062 53.515625 92.328125 54.015625 91.726562 54.25 C 92.355469 53.332031 92.355469 52.414062 91.726562 51.5 C 90.0625 51.25 88.386719 51.167969 86.703125 51.25 C 86.703125 52.417969 86.703125 53.582031 86.703125 54.75 C 88.042969 54.75 89.382812 54.75 90.722656 54.75 C 89.492188 55.238281 88.152344 55.402344 86.703125 55.25 C 86.703125 55.75 86.703125 56.25 86.703125 56.75 C 87.867188 56.417969 89.039062 56.332031 90.21875 56.5 C 91.632812 57.160156 92.972656 57.910156 94.242188 58.75 C 93.398438 61.023438 92.644531 63.355469 91.980469 65.75 C 91.609375 67.160156 90.773438 68.160156 89.464844 68.75 C 88.183594 74.285156 84.75 76.785156 79.164062 76.25 C 79.199219 80.710938 77.191406 83.878906 73.132812 85.75 C 72.558594 89.304688 70.882812 92.222656 68.105469 94.5 C 65.089844 96.332031 62.074219 98.167969 59.058594 100 C 56.144531 101.21875 53.128906 101.96875 50.011719 102.25 C 46.023438 102.570312 42.171875 102.152344 38.449219 101 C 39.082031 100.792969 39.417969 100.375 39.457031 99.75 C 40.105469 99.867188 40.605469 99.703125 40.964844 99.25 C 41.816406 99.261719 42.488281 99.597656 42.972656 100.25 C 43.140625 100.25 43.308594 100.25 43.476562 100.25 C 45.171875 101.039062 47.015625 101.375 49.003906 101.25 C 48.832031 100.257812 49.167969 99.589844 50.011719 99.25 C 50.011719 99.582031 50.179688 99.75 50.511719 99.75 C 51.421875 100.144531 52.425781 100.144531 53.527344 99.75 C 53.832031 99.050781 54.332031 98.550781 55.035156 98.25 C 55.414062 98.785156 55.917969 98.871094 56.542969 98.5 C 57.921875 97.988281 59.09375 97.238281 60.0625 96.25 C 59.855469 95.125 59.183594 94.375 58.050781 94 C 58.167969 93.800781 58.335938 93.71875 58.554688 93.75 C 60.738281 93.832031 62.917969 93.75 65.089844 93.5 C 66.816406 92.863281 68.15625 91.78125 69.109375 90.25 C 69.738281 90.210938 70.15625 89.878906 70.367188 89.25 C 70.617188 87.757812 70.699219 86.257812 70.617188 84.75 C 69.96875 84.867188 69.464844 84.703125 69.109375 84.25 C 70.554688 83.835938 72.0625 83.421875 73.632812 83 C 74.242188 82.480469 74.746094 81.898438 75.140625 81.25 C 76.476562 80.085938 77.148438 78.585938 77.152344 76.75 C 76.773438 74.664062 76.105469 72.664062 75.140625 70.75 C 75.554688 69.085938 76.476562 67.753906 77.90625 66.75 C 78.507812 65.136719 78.757812 63.46875 78.660156 61.75 C 79.144531 60.867188 79.3125 59.867188 79.164062 58.75 C 79.796875 52.824219 79.796875 46.824219 79.164062 40.75 C 79.546875 41.132812 79.800781 41.632812 79.917969 42.25 C 80.167969 40.757812 80.25 39.257812 80.167969 37.75 C 81.453125 37.597656 82.625 37.765625 83.6875 38.25 Z M 83.6875 38.25 "/>
</g>
<mask id="mask3">
  <g filter="url(#alpha)">
<rect x="0" y="0" width="96" height="104" style="fill:rgb(0%,0%,0%);fill-opacity:0.0941176;stroke:none;"/>
  </g>
</mask>
<clipPath id="clip4">
  <rect x="0" y="0" width="96" height="104"/>
</clipPath>
<g id="surface14" clip-path="url(#clip4)">
<path style=" stroke:none;fill-rule:evenodd;fill:rgb(16.470589%,21.960784%,27.450982%);fill-opacity:1;" d="M 42.472656 -0.25 C 43.476562 -0.25 44.480469 -0.25 45.488281 -0.25 C 45.65625 0.417969 45.820312 0.417969 45.988281 -0.25 C 46.828125 -0.25 47.664062 -0.25 48.503906 -0.25 C 51.492188 0.328125 54.507812 1.078125 57.550781 2 C 61.234375 4.332031 64.921875 6.667969 68.605469 9 C 69.863281 10.25 71.121094 11.5 72.378906 12.75 C 73.15625 14.433594 73.742188 16.183594 74.136719 18 C 77.003906 20.183594 79.097656 22.933594 80.417969 26.25 C 85.886719 27.191406 89.238281 30.355469 90.472656 35.75 C 92.425781 37.472656 93.429688 39.636719 93.488281 42.25 C 94.253906 43.449219 95.007812 44.617188 95.75 45.75 C 95.75 46.25 95.75 46.75 95.75 47.25 C 95.351562 47.390625 95.015625 47.640625 94.742188 48 C 94.6875 49.4375 95.023438 50.855469 95.75 52.25 C 95.75 52.75 95.75 53.25 95.75 53.75 C 95.34375 54.5 95.007812 55.332031 94.742188 56.25 C 95.289062 57.886719 95.371094 59.554688 94.996094 61.25 C 94.007812 63.167969 93.167969 65.167969 92.480469 67.25 C 90.679688 69.105469 89.339844 71.269531 88.460938 73.75 C 86.371094 76.289062 83.691406 77.621094 80.417969 77.75 C 79.628906 81.710938 77.449219 84.710938 73.886719 86.75 C 73.335938 88.886719 72.5 90.886719 71.371094 92.75 C 65.179688 98.355469 58.058594 102.023438 50.011719 103.75 C 49.003906 103.75 48 103.75 46.996094 103.75 C 46.996094 103.417969 46.996094 103.082031 46.996094 102.75 C 48.117188 102.898438 49.125 102.730469 50.011719 102.25 C 53.128906 101.96875 56.144531 101.21875 59.058594 100 C 62.074219 98.167969 65.089844 96.332031 68.105469 94.5 C 70.882812 92.222656 72.558594 89.304688 73.132812 85.75 C 77.191406 83.878906 79.199219 80.710938 79.164062 76.25 C 84.75 76.785156 88.183594 74.285156 89.464844 68.75 C 90.773438 68.160156 91.609375 67.160156 91.980469 65.75 C 92.644531 63.355469 93.398438 61.023438 94.242188 58.75 C 94.050781 57.871094 93.714844 57.039062 93.234375 56.25 C 94.5625 53.972656 94.5625 51.722656 93.234375 49.5 C 94.730469 47.0625 94.476562 44.8125 92.480469 42.75 C 92.699219 40.011719 91.691406 37.847656 89.464844 36.25 C 88.617188 30.695312 85.347656 27.695312 79.664062 27.25 C 78.644531 23.707031 76.550781 21.039062 73.382812 19.25 C 72.835938 17.210938 72.167969 15.210938 71.371094 13.25 C 67.746094 10.140625 63.976562 7.226562 60.0625 4.5 C 53.347656 1.425781 46.3125 0.425781 38.953125 1.5 C 35.453125 2.15625 32.269531 3.492188 29.402344 5.5 C 23.449219 4.269531 17.917969 5.355469 12.816406 8.75 C 12.996094 7.816406 13.5 7.066406 14.324219 6.5 C 16.285156 5.988281 18.128906 5.238281 19.851562 4.25 C 20.148438 4.355469 20.398438 4.519531 20.605469 4.75 C 23.222656 3.429688 25.820312 3.429688 28.398438 4.75 C 30.640625 3.53125 32.988281 2.445312 35.433594 1.5 C 37.96875 0.894531 40.3125 0.3125 42.472656 -0.25 Z M 42.472656 -0.25 "/>
</g>
<mask id="mask4">
  <g filter="url(#alpha)">
<rect x="0" y="0" width="96" height="104" style="fill:rgb(0%,0%,0%);fill-opacity:0.996078;stroke:none;"/>
  </g>
</mask>
<clipPath id="clip5">
  <rect x="0" y="0" width="96" height="104"/>
</clipPath>
<g id="surface17" clip-path="url(#clip5)">
<path style=" stroke:none;fill-rule:evenodd;fill:rgb(6.27451%,6.27451%,7.058824%);fill-opacity:1;" d="M 7.789062 22.75 C 8.0625 22.78125 8.230469 22.945312 8.292969 23.25 C 7.964844 24.058594 7.714844 24.890625 7.539062 25.75 C 7.371094 25.582031 7.203125 25.417969 7.035156 25.25 C 6.882812 25.882812 6.628906 26.464844 6.28125 27 C 6.105469 28.097656 6.355469 29.179688 7.035156 30.25 C 7.671875 28.476562 8.679688 26.976562 10.050781 25.75 C 11.210938 26.898438 12.464844 27.898438 13.820312 28.75 C 14.945312 28.808594 16.035156 28.644531 17.089844 28.25 C 17.605469 28.417969 17.859375 28.75 17.84375 29.25 C 16.578125 31.1875 15.910156 33.355469 15.832031 35.75 C 12.804688 34.371094 9.621094 33.957031 6.28125 34.5 C 5.367188 34.601562 4.699219 35.015625 4.273438 35.75 C 3.5 38.53125 2.996094 41.363281 2.765625 44.25 C 3.070312 44.695312 3.238281 45.195312 3.265625 45.75 C 2.933594 45.75 2.765625 45.917969 2.765625 46.25 C 2.292969 46.785156 2.128906 47.449219 2.261719 48.25 C 3.257812 48.078125 3.929688 48.410156 4.273438 49.25 C 3.609375 49.164062 3.019531 49.332031 2.511719 49.75 C 2.109375 51.347656 2.191406 52.847656 2.765625 54.25 C 2.734375 54.804688 2.566406 55.304688 2.261719 55.75 C 2.117188 56.644531 2.285156 57.476562 2.765625 58.25 C 4.734375 58.800781 6.746094 59.132812 8.796875 59.25 C 7.394531 59.738281 5.886719 59.90625 4.273438 59.75 C 3.769531 59.75 3.265625 59.75 2.765625 59.75 C 3.332031 62.90625 3.835938 66.070312 4.273438 69.25 C 5.128906 69.9375 5.800781 70.769531 6.28125 71.75 C 7.023438 73.890625 8.03125 75.890625 9.296875 77.75 C 8.703125 78.34375 8.113281 78.34375 7.539062 77.75 C 7.457031 78 7.371094 78.25 7.289062 78.5 C 8.433594 80.945312 9.101562 83.53125 9.296875 86.25 C 9.808594 85.902344 10.3125 85.570312 10.804688 85.25 C 10.671875 86.050781 10.839844 86.714844 11.308594 87.25 C 11.773438 89.179688 12.53125 91.015625 13.570312 92.75 C 16.878906 95.070312 20.566406 96.402344 24.628906 96.75 C 26.628906 96.675781 28.21875 95.839844 29.402344 94.25 C 30.019531 93.847656 30.523438 93.347656 30.910156 92.75 C 31.246094 92.582031 31.582031 92.417969 31.917969 92.25 C 31.917969 93.25 31.917969 94.25 31.917969 95.25 C 31.351562 95.929688 31.351562 96.597656 31.917969 97.25 C 33.484375 98.195312 35.160156 98.863281 36.941406 99.25 C 37.34375 99.023438 37.511719 98.6875 37.445312 98.25 C 37.78125 98.25 37.949219 98.082031 37.949219 97.75 C 38.734375 97.160156 39.152344 96.328125 39.203125 95.25 C 39.4375 95.546875 39.519531 95.878906 39.457031 96.25 C 39.457031 97.417969 39.457031 98.582031 39.457031 99.75 C 39.417969 100.375 39.082031 100.792969 38.449219 101 C 42.171875 102.152344 46.023438 102.570312 50.011719 102.25 C 49.125 102.730469 48.117188 102.898438 46.996094 102.75 C 40.589844 103.328125 34.640625 101.996094 29.152344 98.75 C 16.398438 100.957031 9.28125 95.707031 7.789062 83 C 7.863281 82.613281 8.03125 82.28125 8.292969 82 C 3.519531 75.261719 0.667969 67.84375 -0.25 59.75 C -0.25 54.417969 -0.25 49.082031 -0.25 43.75 C 0.730469 36.125 3.410156 29.125 7.789062 22.75 Z M 7.789062 22.75 "/>
</g>
</defs>
<g id="surface1">
<use xlink:href="#surface5" mask="url(#mask0)"/>
<path style=" stroke:none;fill-rule:evenodd;fill:rgb(67.450982%,14.117648%,10.196079%);fill-opacity:1;" d="M 55.035156 10.75 C 54.378906 10.265625 54.046875 9.601562 54.03125 8.75 C 53.921875 7.300781 54.253906 5.964844 55.035156 4.75 C 56.492188 5.371094 57.914062 6.035156 59.308594 6.75 C 59.683594 7.316406 59.601562 7.816406 59.058594 8.25 C 57.703125 9.089844 56.363281 9.921875 55.035156 10.75 Z M 55.035156 10.75 "/>
<path style=" stroke:none;fill-rule:evenodd;fill:rgb(72.549021%,7.450981%,10.588235%);fill-opacity:1;" d="M 48.503906 3.75 C 48.957031 7.730469 49.125 11.730469 49.003906 15.75 C 41.867188 17.324219 40.527344 15.15625 44.984375 9.25 C 44.902344 9.082031 44.816406 8.917969 44.734375 8.75 C 44.152344 9.371094 43.484375 9.871094 42.722656 10.25 C 42.472656 8.089844 42.386719 5.921875 42.472656 3.75 C 44.480469 3.75 46.492188 3.75 48.503906 3.75 Z M 48.503906 3.75 "/>
<path style=" stroke:none;fill-rule:evenodd;fill:rgb(68.235296%,12.156863%,7.843138%);fill-opacity:1;" d="M 50.511719 3.75 C 51.617188 3.78125 52.621094 4.117188 53.527344 4.75 C 53.15625 6.222656 52.902344 7.722656 52.773438 9.25 C 52.539062 10.390625 52.035156 11.390625 51.265625 12.25 C 50.699219 9.445312 50.445312 6.609375 50.511719 3.75 Z M 50.511719 3.75 "/>
<path style=" stroke:none;fill-rule:evenodd;fill:rgb(94.901961%,80.000001%,61.960787%);fill-opacity:1;" d="M 29.402344 9.25 C 29.402344 9.75 29.402344 10.25 29.402344 10.75 C 29 11.476562 28.75 12.308594 28.648438 13.25 C 28.3125 12.582031 27.980469 11.917969 27.644531 11.25 C 27.316406 10.652344 27.0625 10.652344 26.890625 11.25 C 27.5625 12.765625 28.234375 14.265625 28.902344 15.75 C 29.695312 19.199219 30.03125 22.699219 29.90625 26.25 C 26.183594 27.785156 22.328125 28.117188 18.34375 27.25 C 17.285156 26.765625 16.113281 26.597656 14.828125 26.75 C 14.773438 26.441406 14.605469 26.191406 14.324219 26 C 17 25.75 19.679688 25.667969 22.367188 25.75 C 22.367188 25.25 22.367188 24.75 22.367188 24.25 C 21.316406 24.273438 20.644531 23.773438 20.355469 22.75 C 20.835938 19.949219 21.003906 17.113281 20.859375 14.25 C 18.875 14.554688 16.945312 15.054688 15.078125 15.75 C 14.636719 14.742188 13.96875 14.742188 13.066406 15.75 C 12.894531 14.691406 12.476562 14.523438 11.8125 15.25 C 12.292969 13.621094 13.046875 12.121094 14.074219 10.75 C 17.085938 8.695312 20.4375 7.527344 24.125 7.25 C 26.117188 7.382812 27.875 8.046875 29.402344 9.25 Z M 29.402344 9.25 "/>
<path style=" stroke:none;fill-rule:evenodd;fill:rgb(32.156864%,2.352941%,1.960784%);fill-opacity:1;" d="M 34.429688 8.75 C 34.957031 8.675781 35.460938 8.757812 35.9375 9 C 35.152344 9.378906 34.648438 9.960938 34.429688 10.75 C 33.832031 10.148438 33.832031 9.480469 34.429688 8.75 Z M 34.429688 8.75 "/>
<use xlink:href="#surface8" mask="url(#mask1)"/>
<path style=" stroke:none;fill-rule:evenodd;fill:rgb(55.686277%,10.588235%,9.803922%);fill-opacity:1;" d="M 48.503906 3.75 C 46.492188 3.75 44.480469 3.75 42.472656 3.75 C 42.386719 5.921875 42.472656 8.089844 42.722656 10.25 C 43.484375 9.871094 44.152344 9.371094 44.734375 8.75 C 44.816406 8.917969 44.902344 9.082031 44.984375 9.25 C 40.527344 15.15625 41.867188 17.324219 49.003906 15.75 C 46.886719 16.71875 44.542969 17.050781 41.96875 16.75 C 41.96875 12.25 41.96875 7.75 41.96875 3.25 C 44.246094 3.089844 46.425781 3.257812 48.503906 3.75 Z M 48.503906 3.75 "/>
<path style=" stroke:none;fill-rule:evenodd;fill:rgb(70.588237%,11.372549%,7.843138%);fill-opacity:1;" d="M 38.953125 14.25 C 38.257812 14.785156 37.671875 15.453125 37.195312 16.25 C 37 15.972656 36.75 15.804688 36.441406 15.75 C 35.78125 14.101562 35.109375 12.433594 34.429688 10.75 C 34.648438 9.960938 35.152344 9.378906 35.9375 9 C 35.460938 8.757812 34.957031 8.675781 34.429688 8.75 C 33.3125 8.441406 32.472656 7.777344 31.917969 6.75 C 33.601562 5.109375 35.53125 4.609375 37.695312 5.25 C 38.382812 7.367188 39.136719 9.449219 39.957031 11.5 C 39.730469 12.46875 39.394531 13.386719 38.953125 14.25 Z M 38.953125 14.25 "/>
<path style=" stroke:none;fill-rule:evenodd;fill:rgb(85.490197%,34.509805%,60.000002%);fill-opacity:1;" d="M 64.585938 15.25 C 62.9375 14.753906 61.261719 14.671875 59.558594 15 C 58.355469 16.191406 57.015625 17.105469 55.539062 17.75 C 54.078125 15.984375 54.414062 14.484375 56.542969 13.25 C 59.359375 11.808594 62.375 11.390625 65.589844 12 C 65.996094 12.152344 66.332031 12.402344 66.597656 12.75 C 64.25 13.21875 64.082031 13.96875 66.09375 15 C 65.617188 15.242188 65.113281 15.324219 64.585938 15.25 Z M 64.585938 15.25 "/>
<path style=" stroke:none;fill-rule:evenodd;fill:rgb(56.470591%,47.058824%,36.470589%);fill-opacity:1;" d="M 29.402344 10.75 C 29.738281 11.082031 30.074219 11.417969 30.410156 11.75 C 30.6875 14.242188 30.855469 16.742188 30.910156 19.25 C 30.242188 18.082031 29.570312 16.917969 28.902344 15.75 C 28.234375 14.265625 27.5625 12.765625 26.890625 11.25 C 27.0625 10.652344 27.316406 10.652344 27.644531 11.25 C 27.980469 11.917969 28.3125 12.582031 28.648438 13.25 C 28.75 12.308594 29 11.476562 29.402344 10.75 Z M 29.402344 10.75 "/>
<path style=" stroke:none;fill-rule:evenodd;fill:rgb(80.392158%,38.039216%,58.823532%);fill-opacity:1;" d="M 67.601562 18.25 C 66.75 17.070312 65.746094 16.070312 64.585938 15.25 C 65.113281 15.324219 65.617188 15.242188 66.09375 15 C 64.082031 13.96875 64.25 13.21875 66.597656 12.75 C 66.332031 12.402344 65.996094 12.152344 65.589844 12 C 62.375 11.390625 59.359375 11.808594 56.542969 13.25 C 57.246094 12.144531 58.25 11.394531 59.558594 11 C 65.984375 9.816406 69.671875 12.398438 70.617188 18.75 C 69.496094 18.898438 68.488281 18.730469 67.601562 18.25 Z M 67.601562 18.25 "/>
<path style=" stroke:none;fill-rule:evenodd;fill:rgb(57.254905%,19.215687%,20.784314%);fill-opacity:1;" d="M 54.03125 8.75 C 54.046875 9.601562 54.378906 10.265625 55.035156 10.75 C 52.988281 13.253906 52.484375 16.085938 53.527344 19.25 C 53.164062 19.457031 52.914062 19.792969 52.773438 20.25 C 52.574219 20.136719 52.492188 19.96875 52.523438 19.75 C 51.636719 15.851562 52.140625 12.183594 54.03125 8.75 Z M 54.03125 8.75 "/>
<path style=" stroke:none;fill-rule:evenodd;fill:rgb(39.607844%,12.156863%,34.901962%);fill-opacity:1;" d="M 64.585938 15.25 C 65.746094 16.070312 66.75 17.070312 67.601562 18.25 C 63.5625 18.347656 59.542969 18.183594 55.539062 17.75 C 57.015625 17.105469 58.355469 16.191406 59.558594 15 C 61.261719 14.671875 62.9375 14.753906 64.585938 15.25 Z M 64.585938 15.25 "/>
<path style=" stroke:none;fill-rule:evenodd;fill:rgb(41.568628%,29.803923%,25.882354%);fill-opacity:1;" d="M 29.402344 9.25 C 32.6875 11.78125 34.699219 15.117188 35.433594 19.25 C 34.890625 20.828125 33.96875 22.164062 32.671875 23.25 C 32.371094 20.414062 32.035156 17.578125 31.664062 14.75 C 31.542969 13.574219 31.125 12.574219 30.410156 11.75 C 30.074219 11.417969 29.738281 11.082031 29.402344 10.75 C 29.402344 10.25 29.402344 9.75 29.402344 9.25 Z M 29.402344 9.25 "/>
<path style=" stroke:none;fill-rule:evenodd;fill:rgb(16.862746%,9.411765%,8.627451%);fill-opacity:1;" d="M 21.359375 13.25 C 22.367188 13.25 23.371094 13.25 24.378906 13.25 C 24.722656 16.40625 24.890625 19.570312 24.878906 22.75 C 23.582031 22.542969 22.496094 22.875 21.613281 23.75 C 21.363281 20.253906 21.277344 16.753906 21.359375 13.25 Z M 21.359375 13.25 "/>
<path style=" stroke:none;fill-rule:evenodd;fill:rgb(83.92157%,47.058824%,27.843139%);fill-opacity:1;" d="M 21.863281 15.25 C 23.371094 15.082031 24.042969 15.75 23.875 17.25 C 23.203125 17.25 22.535156 17.25 21.863281 17.25 C 21.863281 16.582031 21.863281 15.917969 21.863281 15.25 Z M 21.863281 15.25 "/>
<path style=" stroke:none;fill-rule:evenodd;fill:rgb(99.215686%,91.37255%,72.941178%);fill-opacity:1;" d="M 14.828125 26.75 C 14.457031 26.816406 14.121094 26.730469 13.820312 26.5 C 9.867188 23.382812 9.195312 19.632812 11.8125 15.25 C 12.476562 14.523438 12.894531 14.691406 13.066406 15.75 C 13.96875 14.742188 14.636719 14.742188 15.078125 15.75 C 16.945312 15.054688 18.875 14.554688 20.859375 14.25 C 21.003906 17.113281 20.835938 19.949219 20.355469 22.75 C 20.644531 23.773438 21.316406 24.273438 22.367188 24.25 C 22.367188 24.75 22.367188 25.25 22.367188 25.75 C 19.679688 25.667969 17 25.75 14.324219 26 C 14.605469 26.191406 14.773438 26.441406 14.828125 26.75 Z M 14.828125 26.75 "/>
<path style=" stroke:none;fill-rule:evenodd;fill:rgb(85.882354%,58.431375%,34.117648%);fill-opacity:1;" d="M 21.863281 19.75 C 22.703125 19.75 23.539062 19.75 24.378906 19.75 C 24.378906 20.25 24.378906 20.75 24.378906 21.25 C 22.976562 21.542969 22.140625 21.042969 21.863281 19.75 Z M 21.863281 19.75 "/>
<path style=" stroke:none;fill-rule:evenodd;fill:rgb(37.254903%,29.803923%,24.313726%);fill-opacity:1;" d="M 28.902344 15.75 C 29.570312 16.917969 30.242188 18.082031 30.910156 19.25 C 31.484375 20.820312 31.566406 22.488281 31.164062 24.25 C 30.855469 25.03125 30.4375 25.699219 29.90625 26.25 C 30.03125 22.699219 29.695312 19.199219 28.902344 15.75 Z M 28.902344 15.75 "/>
<path style=" stroke:none;fill-rule:evenodd;fill:rgb(69.01961%,26.274511%,46.27451%);fill-opacity:1;" d="M 53.527344 19.25 C 53.585938 19.558594 53.753906 19.808594 54.03125 20 C 59.886719 20.597656 65.75 21.097656 71.621094 21.5 C 74.554688 22.417969 76.480469 24.332031 77.402344 27.25 C 76.917969 30.390625 76.582031 33.554688 76.398438 36.75 C 77.839844 37.761719 78.757812 39.09375 79.164062 40.75 C 79.796875 46.824219 79.796875 52.824219 79.164062 58.75 C 79.246094 54.082031 79.164062 49.414062 78.910156 44.75 C 77.257812 42.429688 75.582031 40.097656 73.886719 37.75 C 74.25 34.4375 74.414062 31.101562 74.386719 27.75 C 73.1875 24.246094 70.675781 22.746094 66.847656 23.25 C 66.09375 23.417969 65.339844 23.582031 64.585938 23.75 C 65.164062 24.367188 65.75 24.367188 66.34375 23.75 C 66.777344 25.183594 67.617188 26.351562 68.859375 27.25 C 70.058594 30.65625 70.394531 34.15625 69.863281 37.75 C 68.152344 39.292969 66.808594 41.125 65.84375 43.25 C 62.351562 44.539062 58.835938 44.539062 55.289062 43.25 C 54.1875 43.429688 53.265625 43.929688 52.523438 44.75 C 48.640625 40.242188 47.46875 35.074219 49.003906 29.25 C 50.265625 27.085938 51.773438 25.085938 53.527344 23.25 C 50.695312 22.667969 47.847656 22.585938 44.984375 23 C 41.089844 23.765625 37.234375 24.679688 33.425781 25.75 C 35.28125 21.886719 38.296875 19.886719 42.472656 19.75 C 45.820312 19.75 49.171875 19.75 52.523438 19.75 C 52.492188 19.96875 52.574219 20.136719 52.773438 20.25 C 52.914062 19.792969 53.164062 19.457031 53.527344 19.25 Z M 53.527344 19.25 "/>
<path style=" stroke:none;fill-rule:evenodd;fill:rgb(1.176471%,0%,0.392157%);fill-opacity:1;" d="M 58.050781 24.75 C 68.027344 25.269531 71.128906 30.101562 67.351562 39.25 C 63.144531 43.523438 58.621094 43.855469 53.78125 40.25 C 50.6875 35.753906 50.769531 31.339844 54.03125 27 C 55.335938 26.101562 56.679688 25.351562 58.050781 24.75 Z M 58.050781 24.75 "/>
<path style=" stroke:none;fill-rule:evenodd;fill:rgb(81.176472%,34.901962%,58.823532%);fill-opacity:1;" d="M 49.003906 29.25 C 46.03125 28.691406 43.015625 28.605469 39.957031 29 C 38.277344 29.5 36.769531 30.25 35.433594 31.25 C 31.5625 33.089844 28.96875 36.089844 27.644531 40.25 C 26.496094 48.539062 26.074219 56.871094 26.386719 65.25 C 26.050781 65.582031 25.71875 65.917969 25.382812 66.25 C 24.972656 65.015625 24.71875 63.683594 24.628906 62.25 C 24.292969 54.082031 24.292969 45.917969 24.628906 37.75 C 25.214844 35.085938 26.21875 32.585938 27.644531 30.25 C 28.746094 29.382812 30.003906 28.800781 31.414062 28.5 C 31.910156 27.417969 32.582031 26.5 33.425781 25.75 C 37.234375 24.679688 41.089844 23.765625 44.984375 23 C 47.847656 22.585938 50.695312 22.667969 53.527344 23.25 C 51.773438 25.085938 50.265625 27.085938 49.003906 29.25 Z M 49.003906 29.25 "/>
<path style=" stroke:none;fill-rule:evenodd;fill:rgb(94.509804%,52.941179%,71.372551%);fill-opacity:1;" d="M 35.433594 31.25 C 35.691406 32.425781 36.277344 33.425781 37.195312 34.25 C 37.496094 33.257812 38 33.09375 38.703125 33.75 C 39.988281 32.609375 41.328125 31.941406 42.722656 31.75 C 43.699219 32.574219 44.453125 33.574219 44.984375 34.75 C 44.878906 35.042969 44.710938 35.292969 44.480469 35.5 C 45.160156 36.308594 46 36.890625 46.996094 37.25 C 47.410156 38.066406 47.496094 38.902344 47.246094 39.75 C 47.582031 39.417969 47.917969 39.082031 48.25 38.75 C 48.414062 40.585938 47.742188 42.085938 46.242188 43.25 C 45.878906 44.054688 45.960938 44.804688 46.492188 45.5 C 46.242188 45.75 45.988281 46 45.738281 46.25 C 45.570312 45.582031 45.402344 44.917969 45.234375 44.25 C 44.992188 44.722656 44.910156 45.222656 44.984375 45.75 C 44.050781 45.730469 43.378906 46.148438 42.972656 47 C 44.179688 47.1875 45.351562 47.1875 46.492188 47 C 46.457031 47.8125 46.207031 48.726562 45.738281 49.75 C 44.835938 48.742188 44.167969 48.742188 43.726562 49.75 C 43.515625 47.574219 43.183594 47.40625 42.722656 49.25 C 42.179688 48.304688 41.511719 48.136719 40.710938 48.75 C 39.816406 48.378906 38.894531 48.046875 37.949219 47.75 C 37.308594 48.925781 36.636719 48.839844 35.9375 47.5 C 36.417969 46.789062 36.839844 46.039062 37.195312 45.25 C 37.523438 45.847656 37.773438 45.847656 37.949219 45.25 C 36.378906 44.652344 36.210938 43.902344 37.445312 43 C 36.773438 42.5 36.773438 42 37.445312 41.5 C 36.796875 41.253906 36.125 41.171875 35.433594 41.25 C 35.511719 41.9375 35.429688 42.601562 35.183594 43.25 C 35.015625 42.25 34.847656 41.25 34.679688 40.25 C 34.34375 40.917969 34.011719 41.582031 33.675781 42.25 C 32.816406 41.226562 31.8125 40.394531 30.660156 39.75 C 29.300781 40.824219 29.214844 41.90625 30.410156 43 C 29.207031 43.65625 29.207031 44.15625 30.410156 44.5 C 29.027344 46.832031 29.195312 49 30.910156 51 C 28.804688 53.828125 28.136719 56.664062 28.902344 59.5 C 28.203125 60.296875 27.871094 61.214844 27.894531 62.25 C 27.648438 63.410156 27.144531 64.410156 26.386719 65.25 C 26.074219 56.871094 26.496094 48.539062 27.644531 40.25 C 28.96875 36.089844 31.5625 33.089844 35.433594 31.25 Z M 35.433594 31.25 "/>
<path style=" stroke:none;fill-rule:evenodd;fill:rgb(67.843139%,21.960784%,51.764709%);fill-opacity:1;" d="M 80.167969 30.25 C 83.820312 30.054688 86 31.722656 86.703125 35.25 C 83.851562 35.25 81.003906 35.25 78.15625 35.25 C 78.273438 33.355469 78.945312 31.6875 80.167969 30.25 Z M 80.167969 30.25 "/>
<path style=" stroke:none;fill-rule:evenodd;fill:rgb(61.176473%,14.509805%,9.803922%);fill-opacity:1;" d="M 17.84375 29.25 C 18.511719 29.25 19.183594 29.25 19.851562 29.25 C 19.808594 31.429688 19.640625 33.59375 19.351562 35.75 C 18.179688 35.75 17.003906 35.75 15.832031 35.75 C 15.910156 33.355469 16.578125 31.1875 17.84375 29.25 Z M 17.84375 29.25 "/>
<path style=" stroke:none;fill-rule:evenodd;fill:rgb(60.000002%,10.196079%,10.196079%);fill-opacity:1;" d="M 16.335938 37.25 C 18.023438 37.308594 19.699219 37.472656 21.359375 37.75 C 21.34375 39.351562 20.503906 40.183594 18.847656 40.25 C 18.6875 39.476562 18.183594 39.144531 17.339844 39.25 C 17.328125 38.398438 16.992188 37.734375 16.335938 37.25 Z M 16.335938 37.25 "/>
<path style=" stroke:none;fill-rule:evenodd;fill:rgb(93.725491%,38.82353%,25.882354%);fill-opacity:1;" d="M 4.273438 35.75 C 5.421875 35.796875 6.425781 36.128906 7.289062 36.75 C 6.816406 38.867188 6.648438 41.035156 6.785156 43.25 C 5.578125 43.882812 4.234375 44.21875 2.765625 44.25 C 2.996094 41.363281 3.5 38.53125 4.273438 35.75 Z M 4.273438 35.75 "/>
<path style=" stroke:none;fill-rule:evenodd;fill:rgb(83.529413%,17.647059%,12.941177%);fill-opacity:1;" d="M 7.289062 36.75 C 10.296875 37.035156 13.3125 37.203125 16.335938 37.25 C 16.992188 37.734375 17.328125 38.398438 17.339844 39.25 C 18.183594 39.144531 18.6875 39.476562 18.847656 40.25 C 17.75 40.351562 16.746094 40.683594 15.832031 41.25 C 12.960938 42.421875 9.945312 43.089844 6.785156 43.25 C 6.648438 41.035156 6.816406 38.867188 7.289062 36.75 Z M 7.289062 36.75 "/>
<path style=" stroke:none;fill-rule:evenodd;fill:rgb(65.490198%,20%,49.803922%);fill-opacity:1;" d="M 90.21875 41.25 C 88.878906 41.25 87.539062 41.25 86.199219 41.25 C 85.835938 40.117188 85.671875 38.953125 85.695312 37.75 C 88.507812 37.386719 90.015625 38.550781 90.21875 41.25 Z M 90.21875 41.25 "/>
<path style=" stroke:none;fill-rule:evenodd;fill:rgb(69.411767%,24.313726%,52.549022%);fill-opacity:1;" d="M 83.6875 38.25 C 84.140625 38.605469 84.308594 39.105469 84.1875 39.75 C 84.1875 40.25 84.1875 40.75 84.1875 41.25 C 83.015625 41.25 81.84375 41.25 80.671875 41.25 C 80.671875 40.25 80.671875 39.25 80.671875 38.25 C 81.675781 38.25 82.679688 38.25 83.6875 38.25 Z M 83.6875 38.25 "/>
<path style=" stroke:none;fill-rule:evenodd;fill:rgb(94.509804%,52.941179%,70.588237%);fill-opacity:1;" d="M 49.003906 29.25 C 47.46875 35.074219 48.640625 40.242188 52.523438 44.75 C 53.253906 47.222656 54.929688 48.472656 57.550781 48.5 C 59.195312 50.558594 61.375 51.308594 64.082031 50.75 C 64.082031 51.082031 63.917969 51.25 63.582031 51.25 C 61.898438 51.332031 60.222656 51.25 58.554688 51 C 57.332031 50.183594 56.074219 49.433594 54.785156 48.75 C 54.035156 49.160156 53.28125 49.574219 52.523438 50 C 42.277344 50.097656 34.066406 54.179688 27.894531 62.25 C 27.871094 61.214844 28.203125 60.296875 28.902344 59.5 C 28.136719 56.664062 28.804688 53.828125 30.910156 51 C 29.195312 49 29.027344 46.832031 30.410156 44.5 C 29.207031 44.15625 29.207031 43.65625 30.410156 43 C 29.214844 41.90625 29.300781 40.824219 30.660156 39.75 C 31.8125 40.394531 32.816406 41.226562 33.675781 42.25 C 34.011719 41.582031 34.34375 40.917969 34.679688 40.25 C 34.847656 41.25 35.015625 42.25 35.183594 43.25 C 35.429688 42.601562 35.511719 41.9375 35.433594 41.25 C 36.125 41.171875 36.796875 41.253906 37.445312 41.5 C 36.773438 42 36.773438 42.5 37.445312 43 C 36.210938 43.902344 36.378906 44.652344 37.949219 45.25 C 37.773438 45.847656 37.523438 45.847656 37.195312 45.25 C 36.839844 46.039062 36.417969 46.789062 35.9375 47.5 C 36.636719 48.839844 37.308594 48.925781 37.949219 47.75 C 38.894531 48.046875 39.816406 48.378906 40.710938 48.75 C 41.511719 48.136719 42.179688 48.304688 42.722656 49.25 C 43.183594 47.40625 43.515625 47.574219 43.726562 49.75 C 44.167969 48.742188 44.835938 48.742188 45.738281 49.75 C 46.207031 48.726562 46.457031 47.8125 46.492188 47 C 45.351562 47.1875 44.179688 47.1875 42.972656 47 C 43.378906 46.148438 44.050781 45.730469 44.984375 45.75 C 44.910156 45.222656 44.992188 44.722656 45.234375 44.25 C 45.402344 44.917969 45.570312 45.582031 45.738281 46.25 C 45.988281 46 46.242188 45.75 46.492188 45.5 C 45.960938 44.804688 45.878906 44.054688 46.242188 43.25 C 47.742188 42.085938 48.414062 40.585938 48.25 38.75 C 47.917969 39.082031 47.582031 39.417969 47.246094 39.75 C 47.496094 38.902344 47.410156 38.066406 46.996094 37.25 C 46 36.890625 45.160156 36.308594 44.480469 35.5 C 44.710938 35.292969 44.878906 35.042969 44.984375 34.75 C 44.453125 33.574219 43.699219 32.574219 42.722656 31.75 C 41.328125 31.941406 39.988281 32.609375 38.703125 33.75 C 38 33.09375 37.496094 33.257812 37.195312 34.25 C 36.277344 33.425781 35.691406 32.425781 35.433594 31.25 C 36.769531 30.25 38.277344 29.5 39.957031 29 C 43.015625 28.605469 46.03125 28.691406 49.003906 29.25 Z M 49.003906 29.25 "/>
<path style=" stroke:none;fill-rule:evenodd;fill:rgb(23.137255%,5.490196%,6.27451%);fill-opacity:1;" d="M 15.832031 41.25 C 15.992188 42.023438 16.496094 42.355469 17.339844 42.25 C 17.339844 43.417969 17.339844 44.582031 17.339844 45.75 C 16.503906 45.75 15.664062 45.75 14.828125 45.75 C 15.363281 45.28125 16.035156 45.117188 16.835938 45.25 C 16.835938 44.417969 16.835938 43.582031 16.835938 42.75 C 12.351562 43.894531 7.828125 44.894531 3.265625 45.75 C 3.238281 45.195312 3.070312 44.695312 2.765625 44.25 C 4.234375 44.21875 5.578125 43.882812 6.785156 43.25 C 9.945312 43.089844 12.960938 42.421875 15.832031 41.25 Z M 15.832031 41.25 "/>
<path style=" stroke:none;fill-rule:evenodd;fill:rgb(7.058824%,2.745098%,3.137255%);fill-opacity:1;" d="M 30.410156 11.75 C 31.125 12.574219 31.542969 13.574219 31.664062 14.75 C 32.035156 17.578125 32.371094 20.414062 32.671875 23.25 C 33.96875 22.164062 34.890625 20.828125 35.433594 19.25 C 36.148438 18.242188 36.484375 17.074219 36.441406 15.75 C 36.75 15.804688 37 15.972656 37.195312 16.25 C 37.671875 15.453125 38.257812 14.785156 38.953125 14.25 C 39.476562 15.488281 39.140625 16.570312 37.949219 17.5 C 38.941406 19.246094 40.449219 19.996094 42.472656 19.75 C 38.296875 19.886719 35.28125 21.886719 33.425781 25.75 C 32.582031 26.5 31.910156 27.417969 31.414062 28.5 C 30.003906 28.800781 28.746094 29.382812 27.644531 30.25 C 26.21875 32.585938 25.214844 35.085938 24.628906 37.75 C 24.292969 45.917969 24.292969 54.082031 24.628906 62.25 C 24.71875 63.683594 24.972656 65.015625 25.382812 66.25 C 25.582031 68.714844 26.253906 71.046875 27.394531 73.25 C 28.390625 74.164062 29.5625 74.664062 30.910156 74.75 C 31.734375 75.902344 32.738281 76.902344 33.925781 77.75 C 36.628906 84.683594 41.652344 87.101562 49.003906 85 C 49.792969 83.835938 50.628906 82.753906 51.519531 81.75 C 51.925781 82.816406 52.179688 83.980469 52.273438 85.25 C 56.347656 84.859375 60.453125 84.527344 64.585938 84.25 C 66.09375 84.25 67.601562 84.25 69.109375 84.25 C 69.464844 84.703125 69.96875 84.867188 70.617188 84.75 C 70.699219 86.257812 70.617188 87.757812 70.367188 89.25 C 70.15625 89.878906 69.738281 90.210938 69.109375 90.25 C 69.890625 89.042969 70.222656 87.710938 70.113281 86.25 C 68.929688 86.335938 67.757812 86.503906 66.597656 86.75 C 63.597656 87.121094 60.578125 87.289062 57.550781 87.25 C 56.378906 87.25 55.203125 87.25 54.03125 87.25 C 54.558594 90.105469 56.066406 92.273438 58.554688 93.75 C 58.335938 93.71875 58.167969 93.800781 58.050781 94 C 59.183594 94.375 59.855469 95.125 60.0625 96.25 C 57.792969 95.722656 55.785156 94.722656 54.03125 93.25 C 53 91.34375 52.164062 89.34375 51.519531 87.25 C 50.636719 89.910156 51.136719 92.242188 53.027344 94.25 C 53.476562 95.699219 54.148438 97.03125 55.035156 98.25 C 54.332031 98.550781 53.832031 99.050781 53.527344 99.75 C 53.285156 97.765625 52.617188 95.933594 51.519531 94.25 C 51.371094 93.289062 50.953125 92.453125 50.261719 91.75 C 50.011719 94.246094 49.925781 96.746094 50.011719 99.25 C 49.167969 99.589844 48.832031 100.257812 49.003906 101.25 C 47.015625 101.375 45.171875 101.039062 43.476562 100.25 C 45.152344 100.25 46.828125 100.25 48.503906 100.25 C 48.503906 99.582031 48.503906 98.917969 48.503906 98.25 C 48.503906 95.75 48.503906 93.25 48.503906 90.75 C 48.253906 89.757812 48.003906 88.757812 47.75 87.75 C 46.875 87.4375 45.953125 87.269531 44.984375 87.25 C 41.792969 87.082031 40.789062 88.414062 41.96875 91.25 C 42.078125 92.535156 42.414062 93.699219 42.972656 94.75 C 42.972656 96.082031 42.972656 97.417969 42.972656 98.75 C 42.972656 99.25 42.972656 99.75 42.972656 100.25 C 42.488281 99.597656 41.816406 99.261719 40.964844 99.25 C 41.5 97.265625 41.417969 95.265625 40.710938 93.25 C 40.199219 94.25 39.78125 95.25 39.457031 96.25 C 39.519531 95.878906 39.4375 95.546875 39.203125 95.25 C 39.152344 96.328125 38.734375 97.160156 37.949219 97.75 C 38.386719 95.574219 38.886719 93.410156 39.457031 91.25 C 39.019531 89.484375 38.347656 87.820312 37.445312 86.25 C 36.546875 89.710938 34.871094 92.710938 32.417969 95.25 C 32.25 95.25 32.082031 95.25 31.917969 95.25 C 31.917969 94.25 31.917969 93.25 31.917969 92.25 C 34.285156 90.351562 35.292969 87.851562 34.933594 84.75 C 32.953125 78.617188 31.945312 78.785156 31.917969 85.25 C 32.019531 86.746094 31.683594 88.082031 30.910156 89.25 C 30.910156 88.75 30.910156 88.25 30.910156 87.75 C 30.910156 86.25 30.910156 84.75 30.910156 83.25 C 30.996094 81.011719 30.496094 78.929688 29.402344 77 C 24.75 76.207031 20.058594 76.042969 15.328125 76.5 C 11.878906 78.449219 10.371094 81.367188 10.804688 85.25 C 10.3125 85.570312 9.808594 85.902344 9.296875 86.25 C 9.101562 83.53125 8.433594 80.945312 7.289062 78.5 C 7.371094 78.25 7.457031 78 7.539062 77.75 C 8.113281 78.34375 8.703125 78.34375 9.296875 77.75 C 9.441406 78.144531 9.691406 78.476562 10.050781 78.75 C 10.359375 77.96875 10.777344 77.300781 11.308594 76.75 C 13.148438 75.292969 15.242188 74.460938 17.589844 74.25 C 17.347656 73.296875 17.015625 72.296875 16.585938 71.25 C 15.757812 70.484375 14.753906 70.152344 13.570312 70.25 C 11.476562 70.332031 9.550781 70.832031 7.789062 71.75 C 7.289062 71.75 6.785156 71.75 6.28125 71.75 C 5.800781 70.769531 5.128906 69.9375 4.273438 69.25 C 7.839844 68.664062 11.359375 68.164062 14.828125 67.75 C 15.664062 67.75 16.503906 67.75 17.339844 67.75 C 18.847656 67.75 20.355469 67.75 21.863281 67.75 C 21.863281 66.25 21.863281 64.75 21.863281 63.25 C 19.824219 62.996094 17.8125 62.664062 15.832031 62.25 C 14.972656 61.632812 13.964844 61.296875 12.816406 61.25 C 12.816406 60.582031 13.152344 60.25 13.820312 60.25 C 14.660156 60.25 15.496094 60.25 16.335938 60.25 C 16.335938 59.25 16.335938 58.25 16.335938 57.25 C 15.328125 57.25 14.324219 57.25 13.320312 57.25 C 13.320312 56.917969 13.320312 56.582031 13.320312 56.25 C 14.769531 56.402344 16.109375 56.238281 17.339844 55.75 C 17.507812 55.75 17.675781 55.75 17.84375 55.75 C 18.980469 55.390625 20.152344 55.222656 21.359375 55.25 C 21.859375 52.511719 22.027344 49.679688 21.863281 46.75 C 19.085938 46.589844 16.40625 46.757812 13.820312 47.25 C 13.152344 47.25 12.480469 47.25 11.8125 47.25 C 11.8125 46.917969 11.8125 46.582031 11.8125 46.25 C 12.785156 45.925781 13.789062 45.757812 14.828125 45.75 C 15.664062 45.75 16.503906 45.75 17.339844 45.75 C 17.339844 44.582031 17.339844 43.417969 17.339844 42.25 C 16.496094 42.355469 15.992188 42.023438 15.832031 41.25 C 16.746094 40.683594 17.75 40.351562 18.847656 40.25 C 20.503906 40.183594 21.34375 39.351562 21.359375 37.75 C 19.699219 37.472656 18.023438 37.308594 16.335938 37.25 C 13.3125 37.203125 10.296875 37.035156 7.289062 36.75 C 6.425781 36.128906 5.421875 35.796875 4.273438 35.75 C 4.699219 35.015625 5.367188 34.601562 6.28125 34.5 C 9.621094 33.957031 12.804688 34.371094 15.832031 35.75 C 17.003906 35.75 18.179688 35.75 19.351562 35.75 C 19.640625 33.59375 19.808594 31.429688 19.851562 29.25 C 19.183594 29.25 18.511719 29.25 17.84375 29.25 C 17.859375 28.75 17.605469 28.417969 17.089844 28.25 C 16.035156 28.644531 14.945312 28.808594 13.820312 28.75 C 13.820312 28.25 13.820312 27.75 13.820312 27.25 C 15.328125 27.25 16.835938 27.25 18.34375 27.25 C 22.328125 28.117188 26.183594 27.785156 29.90625 26.25 C 30.4375 25.699219 30.855469 25.03125 31.164062 24.25 C 31.566406 22.488281 31.484375 20.820312 30.910156 19.25 C 30.855469 16.742188 30.6875 14.242188 30.410156 11.75 Z M 30.410156 11.75 "/>
<path style=" stroke:none;fill-rule:evenodd;fill:rgb(52.941179%,10.196079%,12.54902%);fill-opacity:1;" d="M 19.851562 40.75 C 20.355469 40.75 20.859375 40.75 21.359375 40.75 C 21.359375 42.25 21.359375 43.75 21.359375 45.25 C 20.355469 45.25 19.351562 45.25 18.34375 45.25 C 18.261719 44.070312 18.347656 42.90625 18.597656 41.75 C 19.097656 41.46875 19.515625 41.132812 19.851562 40.75 Z M 19.851562 40.75 "/>
<path style=" stroke:none;fill-rule:evenodd;fill:rgb(87.843138%,40.392157%,61.960787%);fill-opacity:1;" d="M 79.164062 58.75 C 79.3125 59.867188 79.144531 60.867188 78.660156 61.75 C 78.296875 58.925781 77.960938 56.089844 77.65625 53.25 C 76.289062 53.308594 75.285156 52.808594 74.640625 51.75 C 75.996094 48.515625 74.910156 47.015625 71.371094 47.25 C 68.785156 48.078125 66.355469 49.246094 64.082031 50.75 C 61.375 51.308594 59.195312 50.558594 57.550781 48.5 C 54.929688 48.472656 53.253906 47.222656 52.523438 44.75 C 53.265625 43.929688 54.1875 43.429688 55.289062 43.25 C 58.835938 44.539062 62.351562 44.539062 65.84375 43.25 C 66.808594 41.125 68.152344 39.292969 69.863281 37.75 C 70.394531 34.15625 70.058594 30.65625 68.859375 27.25 C 67.617188 26.351562 66.777344 25.183594 66.34375 23.75 C 65.75 24.367188 65.164062 24.367188 64.585938 23.75 C 65.339844 23.582031 66.09375 23.417969 66.847656 23.25 C 70.675781 22.746094 73.1875 24.246094 74.386719 27.75 C 74.414062 31.101562 74.25 34.4375 73.886719 37.75 C 75.582031 40.097656 77.257812 42.429688 78.910156 44.75 C 79.164062 49.414062 79.246094 54.082031 79.164062 58.75 Z M 79.164062 58.75 "/>
<path style=" stroke:none;fill-rule:evenodd;fill:rgb(86.274511%,23.137255%,18.431373%);fill-opacity:1;" d="M 14.828125 45.75 C 13.789062 45.757812 12.785156 45.925781 11.8125 46.25 C 8.789062 46.753906 5.773438 47.253906 2.765625 47.75 C 2.765625 47.25 2.765625 46.75 2.765625 46.25 C 2.765625 45.917969 2.933594 45.75 3.265625 45.75 C 7.828125 44.894531 12.351562 43.894531 16.835938 42.75 C 16.835938 43.582031 16.835938 44.417969 16.835938 45.25 C 16.035156 45.117188 15.363281 45.28125 14.828125 45.75 Z M 14.828125 45.75 "/>
<path style=" stroke:none;fill-rule:evenodd;fill:rgb(72.549021%,27.450982%,55.29412%);fill-opacity:1;" d="M 87.203125 43.75 C 88.390625 43.667969 89.5625 43.75 90.722656 44 C 92.425781 45.160156 92.59375 46.410156 91.226562 47.75 C 89.71875 47.75 88.210938 47.75 86.703125 47.75 C 86.589844 46.359375 86.757812 45.027344 87.203125 43.75 Z M 87.203125 43.75 "/>
<path style=" stroke:none;fill-rule:evenodd;fill:rgb(18.431373%,5.490196%,4.313726%);fill-opacity:1;" d="M 2.765625 46.25 C 2.765625 46.75 2.765625 47.25 2.765625 47.75 C 5.773438 47.253906 8.789062 46.753906 11.8125 46.25 C 11.8125 46.582031 11.8125 46.917969 11.8125 47.25 C 11.058594 47.496094 10.390625 47.828125 9.800781 48.25 C 7.910156 48.34375 6.066406 48.679688 4.273438 49.25 C 3.929688 48.410156 3.257812 48.078125 2.261719 48.25 C 2.128906 47.449219 2.292969 46.785156 2.765625 46.25 Z M 2.765625 46.25 "/>
<path style=" stroke:none;fill-rule:evenodd;fill:rgb(3.529412%,2.352941%,3.137255%);fill-opacity:1;" d="M 74.640625 51.75 C 72.902344 52.382812 72.988281 53.21875 74.890625 54.25 C 75.136719 55.066406 75.222656 55.902344 75.140625 56.75 C 70.757812 58.375 66.988281 57.375 63.832031 53.75 C 63.585938 52.933594 63.5 52.097656 63.582031 51.25 C 63.917969 51.25 64.082031 51.082031 64.082031 50.75 C 66.355469 49.246094 68.785156 48.078125 71.371094 47.25 C 74.910156 47.015625 75.996094 48.515625 74.640625 51.75 Z M 74.640625 51.75 "/>
<path style=" stroke:none;fill-rule:evenodd;fill:rgb(97.647059%,84.313726%,87.058824%);fill-opacity:1;" d="M 63.582031 51.25 C 63.5 52.097656 63.585938 52.933594 63.832031 53.75 C 66.988281 57.375 70.757812 58.375 75.140625 56.75 C 75.917969 56.589844 76.253906 56.089844 76.148438 55.25 C 76.648438 55.25 77.152344 55.25 77.65625 55.25 C 77.390625 58.304688 76.804688 61.304688 75.894531 64.25 C 75.65625 65.390625 75.15625 66.390625 74.386719 67.25 C 74.273438 71.441406 74.023438 75.605469 73.632812 79.75 C 70.855469 81.800781 67.839844 83.300781 64.585938 84.25 C 60.453125 84.527344 56.347656 84.859375 52.273438 85.25 C 52.179688 83.980469 51.925781 82.816406 51.519531 81.75 C 51.855469 81.417969 52.1875 81.082031 52.523438 80.75 C 57.4375 82.210938 62.296875 81.960938 67.097656 80 C 66.835938 79.652344 66.5 79.402344 66.09375 79.25 C 62.457031 81.105469 58.773438 81.191406 55.035156 79.5 C 55.414062 79.164062 55.582031 78.746094 55.539062 78.25 C 65.160156 81.101562 69.597656 77.601562 68.859375 67.75 C 65.957031 62.085938 61.519531 60.503906 55.539062 63 C 53.855469 64.25 52.683594 65.835938 52.019531 67.75 C 51.332031 67.671875 50.660156 67.753906 50.011719 68 C 48.09375 70.664062 47.589844 73.582031 48.503906 76.75 C 41.863281 76.6875 35.75 74.855469 30.15625 71.25 C 29.90625 71.417969 29.65625 71.582031 29.402344 71.75 C 30.175781 72.621094 30.679688 73.621094 30.910156 74.75 C 29.5625 74.664062 28.390625 74.164062 27.394531 73.25 C 26.253906 71.046875 25.582031 68.714844 25.382812 66.25 C 25.71875 65.917969 26.050781 65.582031 26.386719 65.25 C 27.144531 64.410156 27.648438 63.410156 27.894531 62.25 C 34.066406 54.179688 42.277344 50.097656 52.523438 50 C 53.28125 49.574219 54.035156 49.160156 54.785156 48.75 C 56.074219 49.433594 57.332031 50.183594 58.554688 51 C 60.222656 51.25 61.898438 51.332031 63.582031 51.25 Z M 63.582031 51.25 "/>
<path style=" stroke:none;fill-rule:evenodd;fill:rgb(58.431375%,4.705882%,9.803922%);fill-opacity:1;" d="M 11.8125 47.25 C 12.480469 47.25 13.152344 47.25 13.820312 47.25 C 16.335938 47.25 18.847656 47.25 21.359375 47.25 C 21.359375 49.917969 21.359375 52.582031 21.359375 55.25 C 20.152344 55.222656 18.980469 55.390625 17.84375 55.75 C 18.378906 54.296875 18.464844 52.796875 18.09375 51.25 C 16.351562 49.507812 14.257812 48.507812 11.8125 48.25 C 11.140625 48.25 10.472656 48.25 9.800781 48.25 C 10.390625 47.828125 11.058594 47.496094 11.8125 47.25 Z M 11.8125 47.25 "/>
<path style=" stroke:none;fill-rule:evenodd;fill:rgb(83.137256%,28.235295%,22.745098%);fill-opacity:1;" d="M 9.800781 48.25 C 10.472656 48.25 11.140625 48.25 11.8125 48.25 C 9.101562 49.1875 6.253906 49.6875 3.265625 49.75 C 3.265625 51.082031 3.265625 52.417969 3.265625 53.75 C 8.027344 54.269531 12.71875 54.933594 17.339844 55.75 C 16.109375 56.238281 14.769531 56.402344 13.320312 56.25 C 9.835938 55.492188 6.316406 54.824219 2.765625 54.25 C 2.191406 52.847656 2.109375 51.347656 2.511719 49.75 C 3.019531 49.332031 3.609375 49.164062 4.273438 49.25 C 6.066406 48.679688 7.910156 48.34375 9.800781 48.25 Z M 9.800781 48.25 "/>
<path style=" stroke:none;fill-rule:evenodd;fill:rgb(31.764707%,5.490196%,7.450981%);fill-opacity:1;" d="M 13.820312 47.25 C 16.40625 46.757812 19.085938 46.589844 21.863281 46.75 C 22.027344 49.679688 21.859375 52.511719 21.359375 55.25 C 21.359375 52.582031 21.359375 49.917969 21.359375 47.25 C 18.847656 47.25 16.335938 47.25 13.820312 47.25 Z M 13.820312 47.25 "/>
<path style=" stroke:none;fill-rule:evenodd;fill:rgb(92.941177%,21.960784%,14.117648%);fill-opacity:1;" d="M 11.8125 48.25 C 14.257812 48.507812 16.351562 49.507812 18.09375 51.25 C 18.464844 52.796875 18.378906 54.296875 17.84375 55.75 C 17.675781 55.75 17.507812 55.75 17.339844 55.75 C 12.71875 54.933594 8.027344 54.269531 3.265625 53.75 C 3.265625 52.417969 3.265625 51.082031 3.265625 49.75 C 6.253906 49.6875 9.101562 49.1875 11.8125 48.25 Z M 11.8125 48.25 "/>
<path style=" stroke:none;fill-rule:evenodd;fill:rgb(71.372551%,32.549021%,56.862748%);fill-opacity:1;" d="M 91.726562 54.25 C 91.554688 54.667969 91.222656 54.835938 90.722656 54.75 C 89.382812 54.75 88.042969 54.75 86.703125 54.75 C 86.703125 53.582031 86.703125 52.417969 86.703125 51.25 C 88.386719 51.167969 90.0625 51.25 91.726562 51.5 C 92.355469 52.414062 92.355469 53.332031 91.726562 54.25 Z M 91.726562 54.25 "/>
<path style=" stroke:none;fill-rule:evenodd;fill:rgb(17.647059%,1.960784%,1.176471%);fill-opacity:1;" d="M 2.765625 54.25 C 6.316406 54.824219 9.835938 55.492188 13.320312 56.25 C 13.320312 56.582031 13.320312 56.917969 13.320312 57.25 C 9.644531 56.667969 5.960938 56.167969 2.261719 55.75 C 2.566406 55.304688 2.734375 54.804688 2.765625 54.25 Z M 2.765625 54.25 "/>
<path style=" stroke:none;fill-rule:evenodd;fill:rgb(80.784315%,27.058825%,21.568628%);fill-opacity:1;" d="M 2.261719 55.75 C 5.960938 56.167969 9.644531 56.667969 13.320312 57.25 C 14.324219 57.25 15.328125 57.25 16.335938 57.25 C 16.335938 58.25 16.335938 59.25 16.335938 60.25 C 15.496094 60.25 14.660156 60.25 13.820312 60.25 C 12.308594 59.414062 10.636719 59.078125 8.796875 59.25 C 6.746094 59.132812 4.734375 58.800781 2.765625 58.25 C 2.285156 57.476562 2.117188 56.644531 2.261719 55.75 Z M 2.261719 55.75 "/>
<path style=" stroke:none;fill-rule:evenodd;fill:rgb(95.294118%,27.450982%,18.431373%);fill-opacity:1;" d="M 3.265625 56.75 C 6.902344 56.847656 10.421875 57.433594 13.820312 58.5 C 10.613281 58.84375 7.429688 58.675781 4.273438 58 C 3.640625 57.792969 3.304688 57.375 3.265625 56.75 Z M 3.265625 56.75 "/>
<use xlink:href="#surface11" mask="url(#mask2)"/>
<path style=" stroke:none;fill-rule:evenodd;fill:rgb(71.764708%,32.941177%,55.29412%);fill-opacity:1;" d="M 81.675781 51.75 C 82.679688 51.75 83.6875 51.75 84.691406 51.75 C 84.691406 52.917969 84.691406 54.082031 84.691406 55.25 C 81.464844 55.875 80.457031 54.710938 81.675781 51.75 Z M 81.675781 51.75 "/>
<path style=" stroke:none;fill-rule:evenodd;fill:rgb(78.431374%,27.450982%,52.156866%);fill-opacity:1;" d="M 81.675781 44.25 C 82.847656 44.25 84.019531 44.25 85.195312 44.25 C 85.195312 45.417969 85.195312 46.582031 85.195312 47.75 C 84.019531 47.75 82.847656 47.75 81.675781 47.75 C 81.675781 46.582031 81.675781 45.417969 81.675781 44.25 Z M 81.675781 44.25 "/>
<path style=" stroke:none;fill-rule:evenodd;fill:rgb(55.29412%,13.333334%,12.941177%);fill-opacity:1;" d="M 17.84375 57.25 C 19.183594 57.25 20.523438 57.25 21.863281 57.25 C 21.863281 58.75 21.863281 60.25 21.863281 61.75 C 20.503906 61.710938 19.164062 61.546875 17.84375 61.25 C 17.84375 59.917969 17.84375 58.582031 17.84375 57.25 Z M 17.84375 57.25 "/>
<path style=" stroke:none;fill-rule:evenodd;fill:rgb(83.137256%,51.764709%,70.19608%);fill-opacity:1;" d="M 82.179688 57.75 C 83.015625 57.75 83.851562 57.75 84.691406 57.75 C 84.691406 59.082031 84.691406 60.417969 84.691406 61.75 C 83.519531 61.75 82.34375 61.75 81.171875 61.75 C 80.976562 60.242188 81.308594 58.910156 82.179688 57.75 Z M 82.179688 57.75 "/>
<path style=" stroke:none;fill-rule:evenodd;fill:rgb(20.784314%,3.921569%,2.745098%);fill-opacity:1;" d="M 8.796875 59.25 C 10.636719 59.078125 12.308594 59.414062 13.820312 60.25 C 13.152344 60.25 12.816406 60.582031 12.816406 61.25 C 11.316406 61.019531 9.808594 60.851562 8.292969 60.75 C 6.953125 60.417969 5.613281 60.082031 4.273438 59.75 C 5.886719 59.90625 7.394531 59.738281 8.796875 59.25 Z M 8.796875 59.25 "/>
<path style=" stroke:none;fill-rule:evenodd;fill:rgb(80.000001%,43.529412%,67.843139%);fill-opacity:1;" d="M 87.203125 57.75 C 88.722656 57.667969 90.230469 57.75 91.726562 58 C 92.398438 59 92.398438 60 91.726562 61 C 90.0625 61.25 88.386719 61.332031 86.703125 61.25 C 86.601562 60.023438 86.765625 58.859375 87.203125 57.75 Z M 87.203125 57.75 "/>
<path style=" stroke:none;fill-rule:evenodd;fill:rgb(1.568628%,0.784314%,1.176471%);fill-opacity:1;" d="M 55.539062 78.25 C 52.058594 75.527344 50.882812 72.027344 52.019531 67.75 C 52.683594 65.835938 53.855469 64.25 55.539062 63 C 61.519531 60.503906 65.957031 62.085938 68.859375 67.75 C 69.597656 77.601562 65.160156 81.101562 55.539062 78.25 Z M 55.539062 78.25 "/>
<path style=" stroke:none;fill-rule:evenodd;fill:rgb(32.941177%,14.901961%,20.784314%);fill-opacity:1;" d="M 70.113281 63.75 C 71.234375 64.160156 71.570312 64.828125 71.121094 65.75 C 70.515625 65.210938 70.179688 64.546875 70.113281 63.75 Z M 70.113281 63.75 "/>
<path style=" stroke:none;fill-rule:evenodd;fill:rgb(92.156863%,23.921569%,12.941177%);fill-opacity:1;" d="M 8.292969 60.75 C 9.808594 60.851562 11.316406 61.019531 12.816406 61.25 C 13.964844 61.296875 14.972656 61.632812 15.832031 62.25 C 15.746094 62.746094 15.914062 63.078125 16.335938 63.25 C 16.734375 64.558594 17.066406 65.890625 17.339844 67.25 C 17.339844 67.417969 17.339844 67.582031 17.339844 67.75 C 16.503906 67.75 15.664062 67.75 14.828125 67.75 C 12.417969 67.136719 9.90625 66.71875 7.289062 66.5 C 6.433594 64.679688 5.929688 62.765625 5.78125 60.75 C 6.617188 60.75 7.457031 60.75 8.292969 60.75 Z M 8.292969 60.75 "/>
<path style=" stroke:none;fill-rule:evenodd;fill:rgb(53.725493%,10.980392%,10.196079%);fill-opacity:1;" d="M 15.832031 62.25 C 17.8125 62.664062 19.824219 62.996094 21.863281 63.25 C 21.863281 64.75 21.863281 66.25 21.863281 67.75 C 20.355469 67.75 18.847656 67.75 17.339844 67.75 C 17.339844 67.582031 17.339844 67.417969 17.339844 67.25 C 18.421875 67.3125 19.429688 67.0625 20.355469 66.5 C 20.285156 63.878906 18.945312 62.796875 16.335938 63.25 C 15.914062 63.078125 15.746094 62.746094 15.832031 62.25 Z M 15.832031 62.25 "/>
<path style=" stroke:none;fill-rule:evenodd;fill:rgb(89.019608%,51.764709%,69.803923%);fill-opacity:1;" d="M 74.640625 51.75 C 75.285156 52.808594 76.289062 53.308594 77.65625 53.25 C 77.960938 56.089844 78.296875 58.925781 78.660156 61.75 C 78.757812 63.46875 78.507812 65.136719 77.90625 66.75 C 76.476562 67.753906 75.554688 69.085938 75.140625 70.75 C 76.105469 72.664062 76.773438 74.664062 77.152344 76.75 C 77.148438 78.585938 76.476562 80.085938 75.140625 81.25 C 74.640625 81.25 74.136719 81.25 73.632812 81.25 C 73.632812 80.75 73.632812 80.25 73.632812 79.75 C 74.023438 75.605469 74.273438 71.441406 74.386719 67.25 C 75.15625 66.390625 75.65625 65.390625 75.894531 64.25 C 76.804688 61.304688 77.390625 58.304688 77.65625 55.25 C 77.152344 55.25 76.648438 55.25 76.148438 55.25 C 76.253906 56.089844 75.917969 56.589844 75.140625 56.75 C 75.222656 55.902344 75.136719 55.066406 74.890625 54.25 C 72.988281 53.21875 72.902344 52.382812 74.640625 51.75 Z M 74.640625 51.75 "/>
<path style=" stroke:none;fill-rule:evenodd;fill:rgb(74.509805%,39.215687%,61.960787%);fill-opacity:1;" d="M 86.703125 63.75 C 88.15625 63.5625 89.496094 63.8125 90.722656 64.5 C 89.804688 67.089844 87.960938 68.089844 85.195312 67.5 C 85.886719 66.316406 86.390625 65.066406 86.703125 63.75 Z M 86.703125 63.75 "/>
<path style=" stroke:none;fill-rule:evenodd;fill:rgb(67.058825%,9.411765%,8.235294%);fill-opacity:1;" d="M 16.335938 63.25 C 18.945312 62.796875 20.285156 63.878906 20.355469 66.5 C 19.429688 67.0625 18.421875 67.3125 17.339844 67.25 C 17.066406 65.890625 16.734375 64.558594 16.335938 63.25 Z M 16.335938 63.25 "/>
<path style=" stroke:none;fill-rule:evenodd;fill:rgb(85.09804%,46.27451%,70.19608%);fill-opacity:1;" d="M 80.671875 64.25 C 81.84375 64.25 83.015625 64.25 84.1875 64.25 C 84.308594 65.234375 84.140625 66.152344 83.6875 67 C 82.523438 67.25 81.351562 67.332031 80.167969 67.25 C 80.078125 66.191406 80.246094 65.191406 80.671875 64.25 Z M 80.671875 64.25 "/>
<use xlink:href="#surface14" mask="url(#mask3)"/>
<path style=" stroke:none;fill-rule:evenodd;fill:rgb(54.11765%,14.117648%,9.803922%);fill-opacity:1;" d="M 38.449219 3.75 C 39.121094 3.75 39.789062 3.75 40.460938 3.75 C 40.570312 9.546875 39.902344 9.546875 38.449219 3.75 Z M 38.449219 3.75 "/>
<path style=" stroke:none;fill-rule:evenodd;fill:rgb(95.294118%,53.333336%,35.294119%);fill-opacity:1;" d="M 4.273438 59.75 C 5.613281 60.082031 6.953125 60.417969 8.292969 60.75 C 7.457031 60.75 6.617188 60.75 5.78125 60.75 C 5.929688 62.765625 6.433594 64.679688 7.289062 66.5 C 9.90625 66.71875 12.417969 67.136719 14.828125 67.75 C 11.359375 68.164062 7.839844 68.664062 4.273438 69.25 C 3.835938 66.070312 3.332031 62.90625 2.765625 59.75 C 3.265625 59.75 3.769531 59.75 4.273438 59.75 Z M 4.273438 59.75 "/>
<path style=" stroke:none;fill-rule:evenodd;fill:rgb(90.980393%,70.19608%,75.294119%);fill-opacity:1;" d="M 78.15625 69.25 C 80.8125 69.671875 83.496094 69.839844 86.199219 69.75 C 85.585938 73.53125 83.410156 74.78125 79.664062 73.5 C 77.691406 72.609375 77.191406 71.191406 78.15625 69.25 Z M 78.15625 69.25 "/>
<path style=" stroke:none;fill-rule:evenodd;fill:rgb(60.784316%,10.980392%,10.588235%);fill-opacity:1;" d="M 16.835938 68.75 C 17.828125 68.628906 18.746094 68.796875 19.601562 69.25 C 20.144531 70.53125 20.394531 71.863281 20.355469 73.25 C 19.828125 73.324219 19.324219 73.242188 18.847656 73 C 18.285156 71.9375 17.53125 71.023438 16.585938 70.25 C 16.351562 69.710938 16.433594 69.210938 16.835938 68.75 Z M 16.835938 68.75 "/>
<path style=" stroke:none;fill-rule:evenodd;fill:rgb(12.54902%,10.980392%,11.764706%);fill-opacity:1;" d="M 11.308594 76.75 C 10.527344 74.804688 9.351562 73.140625 7.789062 71.75 C 9.550781 70.832031 11.476562 70.332031 13.570312 70.25 C 14.753906 70.152344 15.757812 70.484375 16.585938 71.25 C 17.015625 72.296875 17.347656 73.296875 17.589844 74.25 C 15.242188 74.460938 13.148438 75.292969 11.308594 76.75 Z M 11.308594 76.75 "/>
<path style=" stroke:none;fill-rule:evenodd;fill:rgb(35.294119%,35.294119%,37.254903%);fill-opacity:1;" d="M 6.28125 71.75 C 6.785156 71.75 7.289062 71.75 7.789062 71.75 C 9.351562 73.140625 10.527344 74.804688 11.308594 76.75 C 10.777344 77.300781 10.359375 77.96875 10.050781 78.75 C 9.691406 78.476562 9.441406 78.144531 9.296875 77.75 C 8.03125 75.890625 7.023438 73.890625 6.28125 71.75 Z M 6.28125 71.75 "/>
<path style=" stroke:none;fill-rule:evenodd;fill:rgb(99.215686%,98.039216%,98.039216%);fill-opacity:1;" d="M 48.503906 76.75 C 48.976562 77.523438 49.3125 78.359375 49.507812 79.25 C 49.527344 79.792969 49.695312 80.292969 50.011719 80.75 C 46.265625 81.429688 42.578125 81.179688 38.953125 80 C 37.429688 78.894531 35.753906 78.144531 33.925781 77.75 C 32.738281 76.902344 31.734375 75.902344 30.910156 74.75 C 30.679688 73.621094 30.175781 72.621094 29.402344 71.75 C 29.65625 71.582031 29.90625 71.417969 30.15625 71.25 C 35.75 74.855469 41.863281 76.6875 48.503906 76.75 Z M 48.503906 76.75 "/>
<path style=" stroke:none;fill-rule:evenodd;fill:rgb(58.039218%,45.882353%,34.901962%);fill-opacity:1;" d="M 30.910156 83.25 C 28.660156 81.761719 26.652344 80.011719 24.878906 78 C 22.199219 77.667969 19.519531 77.667969 16.835938 78 C 15.355469 78.070312 14.183594 78.652344 13.320312 79.75 C 12.496094 80.375 11.910156 81.207031 11.558594 82.25 C 11.308594 83.910156 11.226562 85.574219 11.308594 87.25 C 10.839844 86.714844 10.671875 86.050781 10.804688 85.25 C 10.371094 81.367188 11.878906 78.449219 15.328125 76.5 C 20.058594 76.042969 24.75 76.207031 29.402344 77 C 30.496094 78.929688 30.996094 81.011719 30.910156 83.25 Z M 30.910156 83.25 "/>
<path style=" stroke:none;fill-rule:evenodd;fill:rgb(94.901961%,64.705884%,75.294119%);fill-opacity:1;" d="M 52.019531 67.75 C 50.882812 72.027344 52.058594 75.527344 55.539062 78.25 C 55.582031 78.746094 55.414062 79.164062 55.035156 79.5 C 58.773438 81.191406 62.457031 81.105469 66.09375 79.25 C 66.5 79.402344 66.835938 79.652344 67.097656 80 C 62.296875 81.960938 57.4375 82.210938 52.523438 80.75 C 51.292969 80.691406 50.289062 80.191406 49.507812 79.25 C 49.3125 78.359375 48.976562 77.523438 48.503906 76.75 C 47.589844 73.582031 48.09375 70.664062 50.011719 68 C 50.660156 67.753906 51.332031 67.671875 52.019531 67.75 Z M 52.019531 67.75 "/>
<path style=" stroke:none;fill-rule:evenodd;fill:rgb(96.470588%,91.764706%,92.941177%);fill-opacity:1;" d="M 33.925781 77.75 C 35.753906 78.144531 37.429688 78.894531 38.953125 80 C 42.578125 81.179688 46.265625 81.429688 50.011719 80.75 C 49.695312 80.292969 49.527344 79.792969 49.507812 79.25 C 50.289062 80.191406 51.292969 80.691406 52.523438 80.75 C 52.1875 81.082031 51.855469 81.417969 51.519531 81.75 C 50.628906 82.753906 49.792969 83.835938 49.003906 85 C 41.652344 87.101562 36.628906 84.683594 33.925781 77.75 Z M 33.925781 77.75 "/>
<path style=" stroke:none;fill-rule:evenodd;fill:rgb(99.607843%,90.588236%,72.549021%);fill-opacity:1;" d="M 13.320312 79.75 C 14.050781 80.261719 14.21875 80.84375 13.820312 81.5 C 15.898438 81.027344 17.570312 81.695312 18.847656 83.5 C 19.667969 83.746094 20.507812 83.828125 21.359375 83.75 C 21.605469 84.238281 21.855469 84.738281 22.113281 85.25 C 22.316406 85.136719 22.398438 84.96875 22.367188 84.75 C 22.996094 84.789062 23.414062 85.121094 23.621094 85.75 C 23.835938 85.023438 24.253906 84.773438 24.878906 85 C 24.648438 85.207031 24.480469 85.457031 24.378906 85.75 C 25.171875 86.148438 26.007812 86.398438 26.890625 86.5 C 26.414062 86.859375 26.328125 87.277344 26.640625 87.75 C 27.476562 87.828125 28.316406 87.496094 29.152344 86.75 C 29.804688 86.820312 30.226562 87.152344 30.410156 87.75 C 30.242188 89.910156 29.40625 91.742188 27.894531 93.25 C 26.839844 93.957031 26.339844 93.625 26.386719 92.25 C 25.535156 92.328125 24.695312 92.246094 23.875 92 C 19.855469 90.039062 15.667969 88.457031 11.308594 87.25 C 11.226562 85.574219 11.308594 83.910156 11.558594 82.25 C 11.910156 81.207031 12.496094 80.375 13.320312 79.75 Z M 13.320312 79.75 "/>
<path style=" stroke:none;fill-rule:evenodd;fill:rgb(93.333334%,65.490198%,80.000001%);fill-opacity:1;" d="M 73.632812 79.75 C 73.632812 80.25 73.632812 80.75 73.632812 81.25 C 74.136719 81.25 74.640625 81.25 75.140625 81.25 C 74.746094 81.898438 74.242188 82.480469 73.632812 83 C 72.0625 83.421875 70.554688 83.835938 69.109375 84.25 C 67.601562 84.25 66.09375 84.25 64.585938 84.25 C 67.839844 83.300781 70.855469 81.800781 73.632812 79.75 Z M 73.632812 79.75 "/>
<path style=" stroke:none;fill-rule:evenodd;fill:rgb(56.078434%,29.803923%,14.117648%);fill-opacity:1;" d="M 21.359375 83.75 C 22.03125 83.75 22.367188 84.082031 22.367188 84.75 C 22.398438 84.96875 22.316406 85.136719 22.113281 85.25 C 21.855469 84.738281 21.605469 84.238281 21.359375 83.75 Z M 21.359375 83.75 "/>
<path style=" stroke:none;fill-rule:evenodd;fill:rgb(45.882353%,29.019609%,21.960784%);fill-opacity:1;" d="M 34.933594 84.75 C 33.953125 84.613281 33.199219 84.945312 32.671875 85.75 C 32.476562 85.472656 32.226562 85.304688 31.917969 85.25 C 31.945312 78.785156 32.953125 78.617188 34.933594 84.75 Z M 34.933594 84.75 "/>
<path style=" stroke:none;fill-rule:evenodd;fill:rgb(98.823529%,85.490197%,65.882355%);fill-opacity:1;" d="M 30.910156 83.25 C 30.910156 84.75 30.910156 86.25 30.910156 87.75 C 30.742188 87.75 30.574219 87.75 30.410156 87.75 C 30.226562 87.152344 29.804688 86.820312 29.152344 86.75 C 28.316406 87.496094 27.476562 87.828125 26.640625 87.75 C 26.328125 87.277344 26.414062 86.859375 26.890625 86.5 C 26.007812 86.398438 25.171875 86.148438 24.378906 85.75 C 24.480469 85.457031 24.648438 85.207031 24.878906 85 C 24.253906 84.773438 23.835938 85.023438 23.621094 85.75 C 23.414062 85.121094 22.996094 84.789062 22.367188 84.75 C 22.367188 84.082031 22.03125 83.75 21.359375 83.75 C 20.507812 83.828125 19.667969 83.746094 18.847656 83.5 C 17.570312 81.695312 15.898438 81.027344 13.820312 81.5 C 14.21875 80.84375 14.050781 80.261719 13.320312 79.75 C 14.183594 78.652344 15.355469 78.070312 16.835938 78 C 19.519531 77.667969 22.199219 77.667969 24.878906 78 C 26.652344 80.011719 28.660156 81.761719 30.910156 83.25 Z M 30.910156 83.25 "/>
<path style=" stroke:none;fill-rule:evenodd;fill:rgb(36.078432%,6.666667%,7.058824%);fill-opacity:1;" d="M 48.503906 90.75 C 47.609375 90.058594 46.855469 90.226562 46.242188 91.25 C 45.558594 87.769531 44.972656 87.601562 44.480469 90.75 C 43.980469 90.75 43.476562 90.75 42.972656 90.75 C 43.105469 90.011719 42.9375 89.34375 42.472656 88.75 C 41.992188 89.523438 41.824219 90.355469 41.96875 91.25 C 40.789062 88.414062 41.792969 87.082031 44.984375 87.25 C 45.953125 87.269531 46.875 87.4375 47.75 87.75 C 48.003906 88.757812 48.253906 89.757812 48.503906 90.75 Z M 48.503906 90.75 "/>
<path style=" stroke:none;fill-rule:evenodd;fill:rgb(77.254903%,51.372552%,35.686275%);fill-opacity:1;" d="M 34.933594 84.75 C 35.292969 87.851562 34.285156 90.351562 31.917969 92.25 C 31.582031 92.417969 31.246094 92.582031 30.910156 92.75 C 30.4375 91.621094 30.4375 90.453125 30.910156 89.25 C 31.683594 88.082031 32.019531 86.746094 31.917969 85.25 C 32.226562 85.304688 32.476562 85.472656 32.671875 85.75 C 33.199219 84.945312 33.953125 84.613281 34.933594 84.75 Z M 34.933594 84.75 "/>
<path style=" stroke:none;fill-rule:evenodd;fill:rgb(50.980395%,17.254902%,47.450981%);fill-opacity:1;" d="M 66.597656 86.75 C 65.949219 89.25 64.273438 90.585938 61.570312 90.75 C 59.265625 90.621094 57.925781 89.453125 57.550781 87.25 C 60.578125 87.289062 63.597656 87.121094 66.597656 86.75 Z M 66.597656 86.75 "/>
<path style=" stroke:none;fill-rule:evenodd;fill:rgb(54.11765%,12.941177%,10.196079%);fill-opacity:1;" d="M 54.03125 93.25 C 53.363281 93.25 53.027344 93.582031 53.027344 94.25 C 51.136719 92.242188 50.636719 89.910156 51.519531 87.25 C 52.164062 89.34375 53 91.34375 54.03125 93.25 Z M 54.03125 93.25 "/>
<path style=" stroke:none;fill-rule:evenodd;fill:rgb(97.647059%,93.725491%,87.058824%);fill-opacity:1;" d="M 11.308594 87.25 C 15.667969 88.457031 19.855469 90.039062 23.875 92 C 24.695312 92.246094 25.535156 92.328125 26.386719 92.25 C 26.339844 93.625 26.839844 93.957031 27.894531 93.25 C 28.398438 93.582031 28.902344 93.917969 29.402344 94.25 C 28.21875 95.839844 26.628906 96.675781 24.628906 96.75 C 20.566406 96.402344 16.878906 95.070312 13.570312 92.75 C 12.53125 91.015625 11.773438 89.179688 11.308594 87.25 Z M 11.308594 87.25 "/>
<path style=" stroke:none;fill-rule:evenodd;fill:rgb(66.274512%,15.686275%,11.764706%);fill-opacity:1;" d="M 48.503906 90.75 C 48.503906 93.25 48.503906 95.75 48.503906 98.25 C 48.082031 98.078125 47.914062 97.746094 48 97.25 C 48 95.75 48 94.25 48 92.75 C 46.347656 92.398438 44.671875 92.230469 42.972656 92.25 C 42.972656 93.082031 42.972656 93.917969 42.972656 94.75 C 42.414062 93.699219 42.078125 92.535156 41.96875 91.25 C 41.824219 90.355469 41.992188 89.523438 42.472656 88.75 C 42.9375 89.34375 43.105469 90.011719 42.972656 90.75 C 43.476562 90.75 43.980469 90.75 44.480469 90.75 C 44.972656 87.601562 45.558594 87.769531 46.242188 91.25 C 46.855469 90.226562 47.609375 90.058594 48.503906 90.75 Z M 48.503906 90.75 "/>
<path style=" stroke:none;fill-rule:evenodd;fill:rgb(94.901961%,74.901962%,81.960785%);fill-opacity:1;" d="M 69.109375 90.25 C 68.15625 91.78125 66.816406 92.863281 65.089844 93.5 C 62.917969 93.75 60.738281 93.832031 58.554688 93.75 C 56.066406 92.273438 54.558594 90.105469 54.03125 87.25 C 55.203125 87.25 56.378906 87.25 57.550781 87.25 C 57.925781 89.453125 59.265625 90.621094 61.570312 90.75 C 64.273438 90.585938 65.949219 89.25 66.597656 86.75 C 67.757812 86.503906 68.929688 86.335938 70.113281 86.25 C 70.222656 87.710938 69.890625 89.042969 69.109375 90.25 Z M 69.109375 90.25 "/>
<path style=" stroke:none;fill-rule:evenodd;fill:rgb(80.784315%,70.19608%,58.431375%);fill-opacity:1;" d="M 30.410156 87.75 C 30.574219 87.75 30.742188 87.75 30.910156 87.75 C 30.910156 88.25 30.910156 88.75 30.910156 89.25 C 30.4375 90.453125 30.4375 91.621094 30.910156 92.75 C 30.523438 93.347656 30.019531 93.847656 29.402344 94.25 C 28.902344 93.917969 28.398438 93.582031 27.894531 93.25 C 29.40625 91.742188 30.242188 89.910156 30.410156 87.75 Z M 30.410156 87.75 "/>
<path style=" stroke:none;fill-rule:evenodd;fill:rgb(61.176473%,14.509805%,9.803922%);fill-opacity:1;" d="M 51.519531 94.25 C 51.207031 94.195312 50.957031 94.027344 50.765625 93.75 C 50.511719 95.742188 50.429688 97.742188 50.511719 99.75 C 50.179688 99.75 50.011719 99.582031 50.011719 99.25 C 49.925781 96.746094 50.011719 94.246094 50.261719 91.75 C 50.953125 92.453125 51.371094 93.289062 51.519531 94.25 Z M 51.519531 94.25 "/>
<path style=" stroke:none;fill-rule:evenodd;fill:rgb(89.411765%,28.627452%,18.431373%);fill-opacity:1;" d="M 37.949219 97.75 C 37.949219 98.082031 37.78125 98.25 37.445312 98.25 C 36.992188 97.894531 36.824219 97.394531 36.941406 96.75 C 35.488281 96.238281 34.066406 96.238281 32.671875 96.75 C 32.425781 96.277344 32.34375 95.777344 32.417969 95.25 C 34.871094 92.710938 36.546875 89.710938 37.445312 86.25 C 38.347656 87.820312 39.019531 89.484375 39.457031 91.25 C 38.886719 93.410156 38.386719 95.574219 37.949219 97.75 Z M 37.949219 97.75 "/>
<use xlink:href="#surface17" mask="url(#mask4)"/>
<path style=" stroke:none;fill-rule:evenodd;fill:rgb(95.294118%,42.745098%,29.411766%);fill-opacity:1;" d="M 54.03125 93.25 C 55.785156 94.722656 57.792969 95.722656 60.0625 96.25 C 59.09375 97.238281 57.921875 97.988281 56.542969 98.5 C 55.917969 98.871094 55.414062 98.785156 55.035156 98.25 C 54.148438 97.03125 53.476562 95.699219 53.027344 94.25 C 53.027344 93.582031 53.363281 93.25 54.03125 93.25 Z M 54.03125 93.25 "/>
<path style=" stroke:none;fill-rule:evenodd;fill:rgb(87.058824%,35.294119%,23.921569%);fill-opacity:1;" d="M 40.964844 99.25 C 40.605469 99.703125 40.105469 99.867188 39.457031 99.75 C 39.457031 98.582031 39.457031 97.417969 39.457031 96.25 C 39.78125 95.25 40.199219 94.25 40.710938 93.25 C 41.417969 95.265625 41.5 97.265625 40.964844 99.25 Z M 40.964844 99.25 "/>
<path style=" stroke:none;fill-rule:evenodd;fill:rgb(87.843138%,23.529412%,13.725491%);fill-opacity:1;" d="M 48 97.25 C 46.597656 97.375 45.089844 97.375 43.476562 97.25 C 43.597656 97.894531 43.429688 98.394531 42.972656 98.75 C 42.972656 97.417969 42.972656 96.082031 42.972656 94.75 C 42.972656 93.917969 42.972656 93.082031 42.972656 92.25 C 44.671875 92.230469 46.347656 92.398438 48 92.75 C 48 94.25 48 95.75 48 97.25 Z M 48 97.25 "/>
<path style=" stroke:none;fill-rule:evenodd;fill:rgb(94.901961%,49.803922%,34.509805%);fill-opacity:1;" d="M 31.917969 95.25 C 32.082031 95.25 32.25 95.25 32.417969 95.25 C 32.34375 95.777344 32.425781 96.277344 32.671875 96.75 C 34.066406 96.238281 35.488281 96.238281 36.941406 96.75 C 36.824219 97.394531 36.992188 97.894531 37.445312 98.25 C 37.511719 98.6875 37.34375 99.023438 36.941406 99.25 C 35.160156 98.863281 33.484375 98.195312 31.917969 97.25 C 31.351562 96.597656 31.351562 95.929688 31.917969 95.25 Z M 31.917969 95.25 "/>
<path style=" stroke:none;fill-rule:evenodd;fill:rgb(91.764706%,36.862746%,22.352941%);fill-opacity:1;" d="M 51.519531 94.25 C 52.617188 95.933594 53.285156 97.765625 53.527344 99.75 C 52.425781 100.144531 51.421875 100.144531 50.511719 99.75 C 50.429688 97.742188 50.511719 95.742188 50.765625 93.75 C 50.957031 94.027344 51.207031 94.195312 51.519531 94.25 Z M 51.519531 94.25 "/>
<path style=" stroke:none;fill-rule:evenodd;fill:rgb(98.039216%,54.11765%,32.941177%);fill-opacity:1;" d="M 48 97.25 C 47.914062 97.746094 48.082031 98.078125 48.503906 98.25 C 48.503906 98.917969 48.503906 99.582031 48.503906 100.25 C 46.828125 100.25 45.152344 100.25 43.476562 100.25 C 43.308594 100.25 43.140625 100.25 42.972656 100.25 C 42.972656 99.75 42.972656 99.25 42.972656 98.75 C 43.429688 98.394531 43.597656 97.894531 43.476562 97.25 C 45.089844 97.375 46.597656 97.375 48 97.25 Z M 48 97.25 "/>
</g>
</svg>
