<?xml version="1.0" encoding="UTF-8"?>
<svg xmlns="http://www.w3.org/2000/svg" xmlns:xlink="http://www.w3.org/1999/xlink" width="px" height="px" viewBox="0 0 103 97" version="1.1">
<defs>
<filter id="alpha" filterUnits="objectBoundingBox" x="0%" y="0%" width="100%" height="100%">
  <feColorMatrix type="matrix" in="SourceGraphic" values="0 0 0 0 1 0 0 0 0 1 0 0 0 0 1 0 0 0 1 0"/>
</filter>
<mask id="mask0">
  <g filter="url(#alpha)">
<rect x="0" y="0" width="103" height="97" style="fill:rgb(0%,0%,0%);fill-opacity:0.054902;stroke:none;"/>
  </g>
</mask>
<clipPath id="clip1">
  <rect x="0" y="0" width="103" height="97"/>
</clipPath>
<g id="surface5" clip-path="url(#clip1)">
<path style=" stroke:none;fill-rule:evenodd;fill:rgb(14.117647%,16.078431%,22.352941%);fill-opacity:1;" d="M 64.933594 -0.25 C 65.101562 -0.25 65.265625 -0.25 65.433594 -0.25 C 65.597656 0.417969 65.765625 0.417969 65.929688 -0.25 C 66.09375 -0.25 66.261719 -0.25 66.425781 -0.25 C 66.757812 0.417969 67.089844 0.417969 67.421875 -0.25 C 68.085938 -0.25 68.75 -0.25 69.414062 -0.25 C 73.492188 1.289062 77.636719 3.207031 81.851562 5.5 C 86.769531 8.632812 87.765625 12.632812 84.839844 17.5 C 86.257812 19.523438 87.421875 21.691406 88.320312 24 C 91.769531 22.511719 94.671875 23.261719 97.027344 26.25 C 99.453125 31.984375 101.363281 37.984375 102.75 44.25 C 102.75 45.75 102.75 47.25 102.75 48.75 C 102.089844 48.917969 102.089844 49.082031 102.75 49.25 C 102.75 49.417969 102.75 49.582031 102.75 49.75 C 102.089844 50.082031 102.089844 50.417969 102.75 50.75 C 102.75 51.082031 102.75 51.417969 102.75 51.75 C 101.699219 59.132812 99.625 66.300781 96.53125 73.25 C 95.46875 74.425781 94.144531 74.925781 92.550781 74.75 C 90.773438 74.570312 89.03125 74.238281 87.324219 73.75 C 87.261719 73.378906 87.34375 73.046875 87.574219 72.75 C 89.660156 74.003906 91.898438 74.417969 94.292969 74 C 95.203125 73.417969 95.949219 72.667969 96.53125 71.75 C 98.023438 66.917969 99.515625 62.082031 101.007812 57.25 C 102.15625 51.203125 101.988281 45.203125 100.511719 39.25 C 99.117188 34.875 97.625 30.539062 96.035156 26.25 C 93.445312 23.808594 90.707031 23.640625 87.824219 25.75 C 86.984375 22.8125 85.660156 20.0625 83.84375 17.5 C 86.457031 14.542969 86.457031 11.625 83.84375 8.75 C 83.625 7.960938 83.128906 7.378906 82.351562 7 C 77.214844 3.726562 71.660156 1.640625 65.679688 0.75 C 62.367188 0.957031 59.632812 2.289062 57.472656 4.75 C 54.785156 2.046875 52.132812 2.132812 49.507812 5 C 46.203125 5.414062 42.886719 5.664062 39.558594 5.75 C 41.558594 5.257812 43.632812 4.757812 45.777344 4.25 C 46.855469 4.203125 47.851562 4.371094 48.761719 4.75 C 51.390625 1.585938 54.375 1.085938 57.71875 3.25 C 59.863281 1.097656 62.265625 -0.0703125 64.933594 -0.25 Z M 64.933594 -0.25 "/>
</g>
<mask id="mask1">
  <g filter="url(#alpha)">
<rect x="0" y="0" width="103" height="97" style="fill:rgb(0%,0%,0%);fill-opacity:0.0431373;stroke:none;"/>
  </g>
</mask>
<clipPath id="clip2">
  <rect x="0" y="0" width="103" height="97"/>
</clipPath>
<g id="surface8" clip-path="url(#clip2)">
<path style=" stroke:none;fill-rule:evenodd;fill:rgb(13.72549%,16.078431%,23.137255%);fill-opacity:1;" d="M 39.558594 5.75 C 34.148438 6.058594 28.675781 6.476562 23.136719 7 C 19.238281 8.207031 15.917969 10.289062 13.1875 13.25 C 15.351562 10 18.339844 7.75 22.140625 6.5 C 24.902344 5.664062 27.71875 5.246094 30.601562 5.25 C 33.671875 5.25 36.65625 5.417969 39.558594 5.75 Z M 39.558594 5.75 "/>
</g>
<mask id="mask2">
  <g filter="url(#alpha)">
<rect x="0" y="0" width="103" height="97" style="fill:rgb(0%,0%,0%);fill-opacity:0.0705882;stroke:none;"/>
  </g>
</mask>
<clipPath id="clip3">
  <rect x="0" y="0" width="103" height="97"/>
</clipPath>
<g id="surface11" clip-path="url(#clip3)">
<path style=" stroke:none;fill-rule:evenodd;fill:rgb(14.509804%,18.823529%,23.529412%);fill-opacity:1;" d="M 0.746094 47.25 C 0.609375 57.390625 2.765625 67.054688 7.214844 76.25 C 5.605469 74.1875 4.363281 71.851562 3.484375 69.25 C 1.75 63.792969 0.507812 58.292969 -0.25 52.75 C -0.25 52.582031 -0.25 52.417969 -0.25 52.25 C 0.414062 52.082031 0.414062 51.917969 -0.25 51.75 C -0.25 50.75 -0.25 49.75 -0.25 48.75 C 0.0820312 48.25 0.414062 47.75 0.746094 47.25 Z M 0.746094 47.25 "/>
</g>
<mask id="mask3">
  <g filter="url(#alpha)">
<rect x="0" y="0" width="103" height="97" style="fill:rgb(0%,0%,0%);fill-opacity:0.0470588;stroke:none;"/>
  </g>
</mask>
<clipPath id="clip4">
  <rect x="0" y="0" width="103" height="97"/>
</clipPath>
<g id="surface14" clip-path="url(#clip4)">
<path style=" stroke:none;fill-rule:evenodd;fill:rgb(14.117647%,16.470588%,22.745098%);fill-opacity:1;" d="M 87.324219 73.75 C 87.113281 75.96875 86.453125 78.054688 85.335938 80 C 85.882812 82.730469 85.964844 85.480469 85.585938 88.25 C 84.46875 90.460938 82.726562 91.792969 80.359375 92.25 C 82.3125 91.203125 83.890625 89.703125 85.085938 87.75 C 85.417969 85.75 85.417969 83.75 85.085938 81.75 C 84.855469 81.035156 84.441406 80.453125 83.84375 80 C 85.335938 78.070312 86.496094 75.984375 87.324219 73.75 Z M 87.324219 73.75 "/>
</g>
<mask id="mask4">
  <g filter="url(#alpha)">
<rect x="0" y="0" width="103" height="97" style="fill:rgb(0%,0%,0%);fill-opacity:0.0392157;stroke:none;"/>
  </g>
</mask>
<clipPath id="clip5">
  <rect x="0" y="0" width="103" height="97"/>
</clipPath>
<g id="surface17" clip-path="url(#clip5)">
<path style=" stroke:none;fill-rule:evenodd;fill:rgb(14.901961%,18.823529%,23.529412%);fill-opacity:1;" d="M 7.214844 76.25 C 11.148438 83.613281 17.117188 88.53125 25.128906 91 C 33.09375 91.21875 41.054688 91.550781 49.011719 92 C 50.066406 92.523438 50.894531 93.273438 51.5 94.25 C 48.984375 93.105469 46.332031 92.523438 43.539062 92.5 C 41.089844 92.402344 38.6875 92.152344 36.324219 91.75 C 32.976562 92.175781 29.660156 92.34375 26.371094 92.25 C 17.402344 90.035156 11.015625 84.703125 7.214844 76.25 Z M 7.214844 76.25 "/>
</g>
</defs>
<g id="surface1">
<use xlink:href="#surface5" mask="url(#mask0)"/>
<use xlink:href="#surface8" mask="url(#mask1)"/>
<path style=" stroke:none;fill-rule:evenodd;fill:rgb(49.803922%,38.823529%,35.686275%);fill-opacity:1;" d="M 83.34375 14.75 C 81.714844 15.457031 80.550781 14.957031 79.863281 13.25 C 79.535156 11.773438 79.367188 10.273438 79.363281 8.75 C 82.652344 9.339844 83.980469 11.339844 83.34375 14.75 Z M 83.34375 14.75 "/>
<path style=" stroke:none;fill-rule:evenodd;fill:rgb(17.254902%,73.333333%,84.705882%);fill-opacity:1;" d="M 68.417969 18.25 C 73.964844 18.03125 77.945312 20.367188 80.359375 25.25 C 80.421875 26.328125 80.175781 27.328125 79.613281 28.25 C 78.964844 26.769531 78.714844 25.269531 78.867188 23.75 C 78.023438 22.988281 77.113281 22.320312 76.128906 21.75 C 75.878906 22.5 76.125 23.082031 76.875 23.5 C 76.601562 23.691406 76.433594 23.941406 76.378906 24.25 C 71.882812 20.148438 67.074219 19.734375 61.949219 23 C 59.691406 25.457031 58.863281 28.375 59.460938 31.75 C 59.101562 31.957031 58.851562 32.292969 58.714844 32.75 C 58.160156 30.851562 57.582031 29.019531 56.972656 27.25 C 58.714844 21.675781 62.53125 18.675781 68.417969 18.25 Z M 68.417969 18.25 "/>
<path style=" stroke:none;fill-rule:evenodd;fill:rgb(1.176471%,1.960784%,5.490196%);fill-opacity:1;" d="M 76.378906 24.25 C 79.863281 30.15625 78.703125 34.90625 72.894531 38.5 C 68.058594 40.289062 63.996094 39.203125 60.707031 35.25 C 60.210938 34.097656 59.796875 32.929688 59.460938 31.75 C 58.863281 28.375 59.691406 25.457031 61.949219 23 C 67.074219 19.734375 71.882812 20.148438 76.378906 24.25 Z M 76.378906 24.25 "/>
<path style=" stroke:none;fill-rule:evenodd;fill:rgb(3.137255%,2.745098%,4.705882%);fill-opacity:1;" d="M 83.84375 8.75 C 83.855469 10.117188 84.1875 11.367188 84.839844 12.5 C 84.417969 13.332031 83.917969 14.082031 83.34375 14.75 C 83.980469 11.339844 82.652344 9.339844 79.363281 8.75 C 79.367188 10.273438 79.535156 11.773438 79.863281 13.25 C 79.375 13.882812 78.878906 14.550781 78.371094 15.25 C 76.839844 15.023438 75.347656 14.859375 73.890625 14.75 C 72.839844 15.039062 71.84375 15.457031 70.90625 16 C 71.238281 16.167969 71.570312 16.332031 71.902344 16.5 C 70.695312 17.105469 69.53125 17.691406 68.417969 18.25 C 62.53125 18.675781 58.714844 21.675781 56.972656 27.25 C 56.519531 28.863281 56.351562 30.53125 56.476562 32.25 C 56.417969 33.980469 56.25 35.5625 55.976562 37 C 57.050781 38.550781 57.546875 40.300781 57.472656 42.25 C 56.605469 47.105469 56.441406 51.855469 56.972656 56.5 C 56.773438 57.238281 56.441406 57.902344 55.976562 58.5 C 56.378906 58.652344 56.710938 58.902344 56.972656 59.25 C 55.839844 60.617188 55.675781 62.117188 56.476562 63.75 C 56.199219 64.804688 55.785156 65.804688 55.230469 66.75 C 55.296875 72.867188 53.226562 78.117188 49.011719 82.5 C 49.289062 82.691406 49.453125 82.941406 49.507812 83.25 C 46.625 85.453125 43.640625 87.535156 40.554688 89.5 C 43.515625 90.164062 46.5 90.332031 49.507812 90 C 51.199219 88.277344 52.527344 86.277344 53.492188 84 C 55.742188 82.933594 58.066406 82.015625 60.457031 81.25 C 65.269531 81.332031 70.078125 81.25 74.886719 81 C 76.320312 80.863281 77.648438 80.445312 78.867188 79.75 C 83.769531 76.039062 84.933594 71.371094 82.351562 65.75 C 82.019531 64.765625 81.6875 63.765625 81.355469 62.75 C 81.761719 61.945312 82.425781 61.609375 83.34375 61.75 C 84.550781 62.609375 85.878906 62.859375 87.324219 62.5 C 87.742188 61.996094 87.910156 61.410156 87.824219 60.75 C 88.164062 61.578125 88.578125 62.414062 89.066406 63.25 C 89.941406 61.46875 90.523438 59.632812 90.808594 57.75 C 90.808594 59.25 90.808594 60.75 90.808594 62.25 C 91.636719 62.25 92.46875 62.25 93.296875 62.25 C 93.296875 62.417969 93.296875 62.582031 93.296875 62.75 C 93.15625 64.425781 92.574219 65.925781 91.554688 67.25 C 90.765625 66.8125 90.019531 66.3125 89.316406 65.75 C 86.714844 67.996094 87.046875 69.910156 90.3125 71.5 C 91.605469 71.882812 92.847656 71.800781 94.042969 71.25 C 95.902344 66.023438 97.3125 60.691406 98.273438 55.25 C 98.847656 51.503906 98.929688 47.671875 98.523438 43.75 C 97.324219 39.394531 96.082031 35.058594 94.789062 30.75 C 94.425781 29.746094 94.011719 28.746094 93.546875 27.75 C 92.992188 26.980469 92.246094 26.648438 91.308594 26.75 C 90.175781 26.339844 89.015625 26.007812 87.824219 25.75 C 90.707031 23.640625 93.445312 23.808594 96.035156 26.25 C 97.625 30.539062 99.117188 34.875 100.511719 39.25 C 101.988281 45.203125 102.15625 51.203125 101.007812 57.25 C 99.515625 62.082031 98.023438 66.917969 96.53125 71.75 C 95.949219 72.667969 95.203125 73.417969 94.292969 74 C 91.898438 74.417969 89.660156 74.003906 87.574219 72.75 C 87.34375 73.046875 87.261719 73.378906 87.324219 73.75 C 86.496094 75.984375 85.335938 78.070312 83.84375 80 C 84.441406 80.453125 84.855469 81.035156 85.085938 81.75 C 85.417969 83.75 85.417969 85.75 85.085938 87.75 C 83.890625 89.703125 82.3125 91.203125 80.359375 92.25 C 78.8125 93.28125 77.152344 94.195312 75.382812 95 C 73.144531 95.519531 70.988281 96.101562 68.914062 96.75 C 67.257812 96.75 65.597656 96.75 63.941406 96.75 C 61.652344 96.058594 59.582031 94.890625 57.71875 93.25 C 55.863281 95.410156 53.789062 95.742188 51.5 94.25 C 50.894531 93.273438 50.066406 92.523438 49.011719 92 C 41.054688 91.550781 33.09375 91.21875 25.128906 91 C 17.117188 88.53125 11.148438 83.613281 7.214844 76.25 C 2.765625 67.054688 0.609375 57.390625 0.746094 47.25 C 0.640625 35.492188 3.875 24.828125 10.449219 15.25 C 11.171875 14.269531 12.082031 13.601562 13.1875 13.25 C 15.917969 10.289062 19.238281 8.207031 23.136719 7 C 28.675781 6.476562 34.148438 6.058594 39.558594 5.75 C 42.886719 5.664062 46.203125 5.414062 49.507812 5 C 52.132812 2.132812 54.785156 2.046875 57.472656 4.75 C 59.632812 2.289062 62.367188 0.957031 65.679688 0.75 C 71.660156 1.640625 77.214844 3.726562 82.351562 7 C 83.128906 7.378906 83.625 7.960938 83.84375 8.75 Z M 83.84375 8.75 "/>
<path style=" stroke:none;fill-rule:evenodd;fill:rgb(97.254902%,96.862745%,92.54902%);fill-opacity:1;" d="M 51.5 46.75 C 52.15625 46.027344 52.984375 45.695312 53.988281 45.75 C 54.351562 48.535156 53.1875 50.285156 50.503906 51 C 51.035156 51.59375 51.699219 51.84375 52.496094 51.75 C 52.574219 52.4375 52.488281 53.101562 52.246094 53.75 C 51.527344 54.695312 50.949219 55.695312 50.503906 56.75 C 46.90625 62.574219 41.765625 66.492188 35.078125 68.5 C 28.316406 71.078125 21.347656 71.996094 14.179688 71.25 C 14.339844 73.15625 13.59375 73.820312 11.941406 73.25 C 11.859375 73.582031 11.777344 73.917969 11.691406 74.25 C 12.871094 76.695312 14.363281 78.945312 16.171875 81 C 15.332031 80.933594 14.5 80.683594 13.683594 80.25 C 8.390625 73.730469 5.15625 66.230469 3.980469 57.75 C 3.523438 56.46875 3.773438 55.386719 4.726562 54.5 C 3.421875 53.757812 2.757812 52.589844 2.738281 51 C 3.355469 45.730469 4.101562 40.480469 4.976562 35.25 C 5.828125 31.714844 7.074219 28.378906 8.707031 25.25 C 14.878906 19.828125 22.011719 18.242188 30.105469 20.5 C 27.550781 21.015625 27.21875 22.015625 29.109375 23.5 C 31.484375 25.410156 34.136719 26.074219 37.070312 25.5 C 42.308594 31.070312 46.535156 37.484375 49.757812 44.75 C 50.003906 45.566406 50.085938 46.402344 50.007812 47.25 C 50.648438 47.367188 51.148438 47.203125 51.5 46.75 Z M 51.5 46.75 "/>
<path style=" stroke:none;fill-rule:evenodd;fill:rgb(81.960784%,73.333333%,70.196078%);fill-opacity:1;" d="M 32.09375 8.75 C 32.050781 9.964844 31.554688 10.964844 30.601562 11.75 C 33.089844 12.082031 35.578125 12.417969 38.066406 12.75 C 37.25 13.457031 36.835938 14.292969 36.820312 15.25 C 46.855469 23.414062 51.75 33.914062 51.5 46.75 C 51.148438 47.203125 50.648438 47.367188 50.007812 47.25 C 50.085938 46.402344 50.003906 45.566406 49.757812 44.75 C 46.535156 37.484375 42.308594 31.070312 37.070312 25.5 C 34.136719 26.074219 31.484375 25.410156 29.109375 23.5 C 27.21875 22.015625 27.550781 21.015625 30.105469 20.5 C 22.011719 18.242188 14.878906 19.828125 8.707031 25.25 C 11.78125 17.742188 17.089844 12.492188 24.628906 9.5 C 27.078125 8.875 29.566406 8.625 32.09375 8.75 Z M 32.09375 8.75 "/>
<path style=" stroke:none;fill-rule:evenodd;fill:rgb(6.27451%,5.098039%,11.764706%);fill-opacity:1;" d="M 43.042969 8.25 C 45.367188 8.167969 47.691406 8.25 50.007812 8.5 C 51.660156 10.769531 53.480469 12.9375 55.480469 15 C 58.605469 15.519531 61.757812 15.9375 64.933594 16.25 C 63.230469 17.527344 61.40625 18.695312 59.460938 19.75 C 58.050781 21.917969 56.640625 24.082031 55.230469 26.25 C 52.339844 19.175781 47.78125 13.425781 41.546875 9 C 42.164062 8.882812 42.660156 8.632812 43.042969 8.25 Z M 43.042969 8.25 "/>
<path style=" stroke:none;fill-rule:evenodd;fill:rgb(57.647059%,48.627451%,48.627451%);fill-opacity:1;" d="M 32.09375 8.75 C 42.398438 11.1875 49.117188 17.519531 52.246094 27.75 C 56.15625 43.179688 55.824219 58.511719 51.25 73.75 C 48.953125 79.808594 44.890625 84.140625 39.058594 86.75 C 39.835938 85.378906 39.503906 84.296875 38.066406 83.5 C 42.492188 80.707031 45.558594 76.789062 47.269531 71.75 C 49.082031 66.902344 50.160156 61.902344 50.503906 56.75 C 50.949219 55.695312 51.527344 54.695312 52.246094 53.75 C 52.488281 53.101562 52.574219 52.4375 52.496094 51.75 C 51.699219 51.84375 51.035156 51.59375 50.503906 51 C 53.1875 50.285156 54.351562 48.535156 53.988281 45.75 C 52.984375 45.695312 52.15625 46.027344 51.5 46.75 C 51.75 33.914062 46.855469 23.414062 36.820312 15.25 C 36.835938 14.292969 37.25 13.457031 38.066406 12.75 C 35.578125 12.417969 33.089844 12.082031 30.601562 11.75 C 31.554688 10.964844 32.050781 9.964844 32.09375 8.75 Z M 32.09375 8.75 "/>
<path style=" stroke:none;fill-rule:evenodd;fill:rgb(41.960784%,34.901961%,34.117647%);fill-opacity:1;" d="M 77.871094 13.25 C 78.140625 13.28125 78.308594 13.445312 78.371094 13.75 C 72.796875 14.472656 67.320312 14.304688 61.949219 13.25 C 67.253906 12.636719 72.5625 12.636719 77.871094 13.25 Z M 77.871094 13.25 "/>
<path style=" stroke:none;fill-rule:evenodd;fill:rgb(90.196078%,61.176471%,16.862745%);fill-opacity:1;" d="M 51.996094 4.75 C 53.300781 4.617188 54.542969 4.78125 55.730469 5.25 C 56.402344 7.179688 56.652344 9.179688 56.476562 11.25 C 55.65625 11.355469 54.910156 11.191406 54.238281 10.75 C 53.449219 9.003906 52.539062 7.335938 51.5 5.75 C 51.679688 5.410156 51.847656 5.074219 51.996094 4.75 Z M 51.996094 4.75 "/>
<path style=" stroke:none;fill-rule:evenodd;fill:rgb(69.411765%,61.176471%,58.823529%);fill-opacity:1;" d="M 77.871094 13.25 C 72.5625 12.636719 67.253906 12.636719 61.949219 13.25 C 58.996094 12.660156 57.75 10.824219 58.21875 7.75 C 59.703125 4.792969 62.109375 3.292969 65.433594 3.25 C 69.960938 3.523438 74.105469 4.941406 77.871094 7.5 C 78.839844 8.578125 79.089844 9.828125 78.617188 11.25 C 78.214844 10.519531 77.800781 10.351562 77.375 10.75 C 77.777344 11.535156 77.941406 12.367188 77.871094 13.25 Z M 77.871094 13.25 "/>
<path style=" stroke:none;fill-rule:evenodd;fill:rgb(94.901961%,90.196078%,87.058824%);fill-opacity:1;" d="M 62.445312 5.75 C 63.984375 6.246094 64.316406 7.246094 63.441406 8.75 C 65.308594 9.425781 67.132812 10.175781 68.914062 11 C 65.984375 12.433594 63.746094 11.683594 62.199219 8.75 C 61.859375 7.703125 61.945312 6.703125 62.445312 5.75 Z M 62.445312 5.75 "/>
<path style=" stroke:none;fill-rule:evenodd;fill:rgb(17.647059%,82.745098%,89.803922%);fill-opacity:1;" d="M 69.414062 26.75 C 72.558594 26.660156 73.800781 28.160156 73.144531 31.25 C 71.074219 33.375 69.25 33.207031 67.671875 30.75 C 67.339844 30.082031 67.339844 29.417969 67.671875 28.75 C 68.21875 28.027344 68.800781 27.359375 69.414062 26.75 Z M 69.414062 26.75 "/>
<path style=" stroke:none;fill-rule:evenodd;fill:rgb(15.686275%,18.039216%,24.313725%);fill-opacity:1;" d="M 91.308594 26.75 C 92.246094 26.648438 92.992188 26.980469 93.546875 27.75 C 94.011719 28.746094 94.425781 29.746094 94.789062 30.75 C 93.507812 31.921875 93.011719 33.421875 93.296875 35.25 C 93.296875 35.417969 93.296875 35.582031 93.296875 35.75 C 92.875 35.164062 92.546875 34.496094 92.300781 33.75 C 92.863281 32.667969 92.613281 31.667969 91.554688 30.75 C 91.308594 29.425781 91.226562 28.09375 91.308594 26.75 Z M 91.308594 26.75 "/>
<path style=" stroke:none;fill-rule:evenodd;fill:rgb(39.215686%,59.607843%,66.27451%);fill-opacity:1;" d="M 92.300781 33.75 C 92.546875 34.496094 92.875 35.164062 93.296875 35.75 C 93.257812 36.464844 93.421875 37.132812 93.792969 37.75 C 92.851562 38.234375 91.855469 38.398438 90.808594 38.25 C 90.671875 36.941406 90.339844 35.691406 89.8125 34.5 C 90.511719 33.867188 91.34375 33.617188 92.300781 33.75 Z M 92.300781 33.75 "/>
<path style=" stroke:none;fill-rule:evenodd;fill:rgb(42.352941%,82.352941%,90.980392%);fill-opacity:1;" d="M 80.359375 25.25 C 82.894531 32.300781 80.902344 37.71875 74.390625 41.5 C 65.546875 43.808594 59.574219 40.726562 56.476562 32.25 C 56.351562 30.53125 56.519531 28.863281 56.972656 27.25 C 57.582031 29.019531 58.160156 30.851562 58.714844 32.75 C 58.851562 32.292969 59.101562 31.957031 59.460938 31.75 C 59.796875 32.929688 60.210938 34.097656 60.707031 35.25 C 63.996094 39.203125 68.058594 40.289062 72.894531 38.5 C 78.703125 34.90625 79.863281 30.15625 76.378906 24.25 C 76.433594 23.941406 76.601562 23.691406 76.875 23.5 C 76.125 23.082031 75.878906 22.5 76.128906 21.75 C 77.113281 22.320312 78.023438 22.988281 78.867188 23.75 C 78.714844 25.269531 78.964844 26.769531 79.613281 28.25 C 80.175781 27.328125 80.421875 26.328125 80.359375 25.25 Z M 80.359375 25.25 "/>
<path style=" stroke:none;fill-rule:evenodd;fill:rgb(8.627451%,7.45098%,12.941176%);fill-opacity:1;" d="M 76.378906 43.75 C 76.152344 44.230469 75.824219 44.644531 75.382812 45 C 75.496094 45.199219 75.664062 45.28125 75.882812 45.25 C 74.421875 45.898438 73.261719 46.898438 72.398438 48.25 C 71.328125 48.796875 70.664062 49.710938 70.410156 51 C 71.1875 52.535156 72.347656 53.617188 73.890625 54.25 C 70.53125 54.367188 67.214844 54.367188 63.941406 54.25 C 62.027344 55.460938 60.203125 56.792969 58.464844 58.25 C 58.597656 52.429688 58.433594 46.597656 57.96875 40.75 C 59.375 40.664062 60.207031 41.328125 60.457031 42.75 C 60.789062 42.582031 61.121094 42.417969 61.453125 42.25 C 66.203125 44.957031 71.179688 45.457031 76.378906 43.75 Z M 76.378906 43.75 "/>
<path style=" stroke:none;fill-rule:evenodd;fill:rgb(50.196078%,73.333333%,80%);fill-opacity:1;" d="M 91.804688 39.75 C 92.648438 39.667969 93.480469 39.753906 94.292969 40 C 94.667969 40.335938 94.832031 40.753906 94.789062 41.25 C 95.058594 42.058594 95.222656 42.890625 95.289062 43.75 C 94.125 43.75 92.964844 43.75 91.804688 43.75 C 91.804688 42.417969 91.804688 41.082031 91.804688 39.75 Z M 91.804688 39.75 "/>
<path style=" stroke:none;fill-rule:evenodd;fill:rgb(1.568627%,1.176471%,5.098039%);fill-opacity:1;" d="M 72.398438 48.25 C 73.261719 46.898438 74.421875 45.898438 75.882812 45.25 C 78.25 44.253906 80.65625 44.085938 83.097656 44.75 C 83.34375 45.25 83.59375 45.75 83.84375 46.25 C 83 47.429688 82.003906 48.429688 80.859375 49.25 C 84.398438 51.667969 84.148438 53.335938 80.109375 54.25 C 77.492188 53.933594 75.171875 52.933594 73.144531 51.25 C 72.582031 50.328125 72.335938 49.328125 72.398438 48.25 Z M 72.398438 48.25 "/>
<path style=" stroke:none;fill-rule:evenodd;fill:rgb(7.45098%,7.843137%,12.156863%);fill-opacity:1;" d="M 92.800781 49.75 C 93.628906 49.75 94.457031 49.75 95.289062 49.75 C 95.289062 48.417969 95.289062 47.082031 95.289062 45.75 C 94.125 45.75 92.964844 45.75 91.804688 45.75 C 92.863281 45.34375 94.027344 45.09375 95.289062 45 C 93.738281 44.433594 92.246094 44.183594 90.808594 44.25 C 91.101562 42.679688 91.433594 41.179688 91.804688 39.75 C 91.804688 41.082031 91.804688 42.417969 91.804688 43.75 C 92.964844 43.75 94.125 43.75 95.289062 43.75 C 95.222656 42.890625 95.058594 42.058594 94.789062 41.25 C 95.207031 41.078125 95.371094 40.746094 95.289062 40.25 C 95.621094 41.917969 95.949219 43.582031 96.28125 45.25 C 96.78125 51.398438 95.785156 57.234375 93.296875 62.75 C 93.296875 62.582031 93.296875 62.417969 93.296875 62.25 C 93.625 60.773438 93.789062 59.273438 93.792969 57.75 C 92.800781 57.75 91.804688 57.75 90.808594 57.75 C 90.523438 59.632812 89.941406 61.46875 89.066406 63.25 C 88.578125 62.414062 88.164062 61.578125 87.824219 60.75 C 86.5 59.867188 85.007812 59.53125 83.34375 59.75 C 83.34375 60.25 83.34375 60.75 83.34375 61.25 C 82.894531 60.894531 82.730469 60.394531 82.847656 59.75 C 80.589844 59.644531 79.261719 58.480469 78.867188 56.25 C 81.398438 57.160156 83.636719 56.660156 85.585938 54.75 C 85.957031 53.074219 85.707031 51.488281 84.839844 50 C 87.035156 46.957031 86.539062 44.457031 83.34375 42.5 C 81.257812 42.09375 79.269531 42.34375 77.375 43.25 C 78.234375 42.023438 78.980469 40.691406 79.613281 39.25 C 80.796875 38.371094 81.875 37.371094 82.847656 36.25 C 84.726562 35.371094 86.71875 35.039062 88.820312 35.25 C 89.957031 39.667969 90.539062 44.167969 90.558594 48.75 C 90.976562 50.132812 91.722656 50.46875 92.800781 49.75 Z M 92.800781 49.75 "/>
<path style=" stroke:none;fill-rule:evenodd;fill:rgb(50.196078%,72.54902%,82.352941%);fill-opacity:1;" d="M 91.804688 45.75 C 92.964844 45.75 94.125 45.75 95.289062 45.75 C 95.289062 47.082031 95.289062 48.417969 95.289062 49.75 C 94.457031 49.75 93.628906 49.75 92.800781 49.75 C 91.871094 48.683594 91.539062 47.347656 91.804688 45.75 Z M 91.804688 45.75 "/>
<path style=" stroke:none;fill-rule:evenodd;fill:rgb(30.980392%,39.607843%,43.921569%);fill-opacity:1;" d="M 94.789062 30.75 C 96.082031 35.058594 97.324219 39.394531 98.523438 43.75 C 98.929688 47.671875 98.847656 51.503906 98.273438 55.25 C 97.984375 53.429688 97.734375 51.59375 97.527344 49.75 C 97.359375 50.082031 97.195312 50.417969 97.027344 50.75 C 96.863281 48.082031 96.695312 45.417969 96.53125 42.75 C 96.285156 43.566406 96.203125 44.402344 96.28125 45.25 C 95.949219 43.582031 95.621094 41.917969 95.289062 40.25 C 95.070312 38.363281 94.410156 36.695312 93.296875 35.25 C 93.011719 33.421875 93.507812 31.921875 94.789062 30.75 Z M 94.789062 30.75 "/>
<path style=" stroke:none;fill-rule:evenodd;fill:rgb(55.294118%,76.078431%,83.529412%);fill-opacity:1;" d="M 91.804688 51.75 C 92.964844 51.75 94.125 51.75 95.289062 51.75 C 96.152344 54.964844 94.992188 56.296875 91.804688 55.75 C 91.804688 54.417969 91.804688 53.082031 91.804688 51.75 Z M 91.804688 51.75 "/>
<path style=" stroke:none;fill-rule:evenodd;fill:rgb(24.705882%,31.372549%,37.647059%);fill-opacity:1;" d="M 78.867188 56.25 C 77.207031 55.582031 75.550781 54.917969 73.890625 54.25 C 72.347656 53.617188 71.1875 52.535156 70.410156 51 C 70.664062 49.710938 71.328125 48.796875 72.398438 48.25 C 72.335938 49.328125 72.582031 50.328125 73.144531 51.25 C 75.171875 52.933594 77.492188 53.933594 80.109375 54.25 C 84.148438 53.335938 84.398438 51.667969 80.859375 49.25 C 82.003906 48.429688 83 47.429688 83.84375 46.25 C 83.59375 45.75 83.34375 45.25 83.097656 44.75 C 80.65625 44.085938 78.25 44.253906 75.882812 45.25 C 75.664062 45.28125 75.496094 45.199219 75.382812 45 C 75.824219 44.644531 76.152344 44.230469 76.378906 43.75 C 76.710938 43.582031 77.042969 43.417969 77.375 43.25 C 79.269531 42.34375 81.257812 42.09375 83.34375 42.5 C 86.539062 44.457031 87.035156 46.957031 84.839844 50 C 85.707031 51.488281 85.957031 53.074219 85.585938 54.75 C 83.636719 56.660156 81.398438 57.160156 78.867188 56.25 Z M 78.867188 56.25 "/>
<path style=" stroke:none;fill-rule:evenodd;fill:rgb(3.529412%,3.921569%,7.45098%);fill-opacity:1;" d="M 83.84375 8.75 C 86.457031 11.625 86.457031 14.542969 83.84375 17.5 C 85.660156 20.0625 86.984375 22.8125 87.824219 25.75 C 89.015625 26.007812 90.175781 26.339844 91.308594 26.75 C 91.226562 28.09375 91.308594 29.425781 91.554688 30.75 C 92.613281 31.667969 92.863281 32.667969 92.300781 33.75 C 91.34375 33.617188 90.511719 33.867188 89.8125 34.5 C 90.339844 35.691406 90.671875 36.941406 90.808594 38.25 C 91.855469 38.398438 92.851562 38.234375 93.792969 37.75 C 93.421875 37.132812 93.257812 36.464844 93.296875 35.75 C 93.296875 35.582031 93.296875 35.417969 93.296875 35.25 C 94.410156 36.695312 95.070312 38.363281 95.289062 40.25 C 95.371094 40.746094 95.207031 41.078125 94.789062 41.25 C 94.832031 40.753906 94.667969 40.335938 94.292969 40 C 93.480469 39.753906 92.648438 39.667969 91.804688 39.75 C 91.433594 41.179688 91.101562 42.679688 90.808594 44.25 C 92.246094 44.183594 93.738281 44.433594 95.289062 45 C 94.027344 45.09375 92.863281 45.34375 91.804688 45.75 C 91.539062 47.347656 91.871094 48.683594 92.800781 49.75 C 91.722656 50.46875 90.976562 50.132812 90.558594 48.75 C 90.539062 44.167969 89.957031 39.667969 88.820312 35.25 C 86.71875 35.039062 84.726562 35.371094 82.847656 36.25 C 81.875 37.371094 80.796875 38.371094 79.613281 39.25 C 78.980469 40.691406 78.234375 42.023438 77.375 43.25 C 77.042969 43.417969 76.710938 43.582031 76.378906 43.75 C 71.179688 45.457031 66.203125 44.957031 61.453125 42.25 C 61.121094 42.417969 60.789062 42.582031 60.457031 42.75 C 60.207031 41.328125 59.375 40.664062 57.96875 40.75 C 58.433594 46.597656 58.597656 52.429688 58.464844 58.25 C 60.203125 56.792969 62.027344 55.460938 63.941406 54.25 C 67.214844 54.367188 70.53125 54.367188 73.890625 54.25 C 75.550781 54.917969 77.207031 55.582031 78.867188 56.25 C 79.261719 58.480469 80.589844 59.644531 82.847656 59.75 C 82.730469 60.394531 82.894531 60.894531 83.34375 61.25 C 83.34375 61.417969 83.34375 61.582031 83.34375 61.75 C 82.425781 61.609375 81.761719 61.945312 81.355469 62.75 C 81.6875 63.765625 82.019531 64.765625 82.351562 65.75 C 82.019531 65.917969 81.6875 66.082031 81.355469 66.25 C 81.488281 65.449219 81.320312 64.785156 80.859375 64.25 C 79.769531 60.074219 77.117188 57.492188 72.894531 56.5 C 65.179688 55.167969 59.789062 58.085938 56.726562 65.25 C 56.320312 67.179688 56.40625 69.011719 56.972656 70.75 C 57.039062 71.609375 57.203125 72.441406 57.472656 73.25 C 54.992188 76.738281 52.335938 80.074219 49.507812 83.25 C 49.453125 82.941406 49.289062 82.691406 49.011719 82.5 C 53.226562 78.117188 55.296875 72.867188 55.230469 66.75 C 55.785156 65.804688 56.199219 64.804688 56.476562 63.75 C 55.675781 62.117188 55.839844 60.617188 56.972656 59.25 C 56.710938 58.902344 56.378906 58.652344 55.976562 58.5 C 56.441406 57.902344 56.773438 57.238281 56.972656 56.5 C 56.441406 51.855469 56.605469 47.105469 57.472656 42.25 C 57.546875 40.300781 57.050781 38.550781 55.976562 37 C 56.25 35.5625 56.417969 33.980469 56.476562 32.25 C 59.574219 40.726562 65.546875 43.808594 74.390625 41.5 C 80.902344 37.71875 82.894531 32.300781 80.359375 25.25 C 77.945312 20.367188 73.964844 18.03125 68.417969 18.25 C 69.53125 17.691406 70.695312 17.105469 71.902344 16.5 C 71.570312 16.332031 71.238281 16.167969 70.90625 16 C 71.84375 15.457031 72.839844 15.039062 73.890625 14.75 C 75.347656 14.859375 76.839844 15.023438 78.371094 15.25 C 78.878906 14.550781 79.375 13.882812 79.863281 13.25 C 80.550781 14.957031 81.714844 15.457031 83.34375 14.75 C 83.917969 14.082031 84.417969 13.332031 84.839844 12.5 C 84.1875 11.367188 83.855469 10.117188 83.84375 8.75 Z M 83.84375 8.75 "/>
<path style=" stroke:none;fill-rule:evenodd;fill:rgb(27.058824%,80%,89.803922%);fill-opacity:1;" d="M 80.859375 64.25 C 81.335938 68.957031 79.84375 72.957031 76.378906 76.25 C 73.578125 76.996094 70.925781 77.996094 68.417969 79.25 C 66.394531 79.308594 64.734375 78.558594 63.441406 77 C 63.914062 76.757812 64.410156 76.675781 64.933594 76.75 C 73.925781 78.128906 78.320312 74.296875 78.121094 65.25 C 75.070312 59.058594 70.34375 57.308594 63.941406 60 C 61.996094 61.203125 60.503906 62.785156 59.460938 64.75 C 58.003906 66.445312 57.175781 68.445312 56.972656 70.75 C 56.40625 69.011719 56.320312 67.179688 56.726562 65.25 C 59.789062 58.085938 65.179688 55.167969 72.894531 56.5 C 77.117188 57.492188 79.769531 60.074219 80.859375 64.25 Z M 80.859375 64.25 "/>
<path style=" stroke:none;fill-rule:evenodd;fill:rgb(1.176471%,1.960784%,5.882353%);fill-opacity:1;" d="M 64.933594 76.75 C 60.179688 74.191406 58.355469 70.191406 59.460938 64.75 C 60.503906 62.785156 61.996094 61.203125 63.941406 60 C 70.34375 57.308594 75.070312 59.058594 78.121094 65.25 C 78.320312 74.296875 73.925781 78.128906 64.933594 76.75 Z M 64.933594 76.75 "/>
<path style=" stroke:none;fill-rule:evenodd;fill:rgb(68.627451%,77.254902%,81.960784%);fill-opacity:1;" d="M 90.808594 57.75 C 91.804688 57.75 92.800781 57.75 93.792969 57.75 C 93.789062 59.273438 93.625 60.773438 93.296875 62.25 C 92.46875 62.25 91.636719 62.25 90.808594 62.25 C 90.808594 60.75 90.808594 59.25 90.808594 57.75 Z M 90.808594 57.75 "/>
<path style=" stroke:none;fill-rule:evenodd;fill:rgb(40.392157%,41.568627%,44.705882%);fill-opacity:1;" d="M 87.824219 60.75 C 87.910156 61.410156 87.742188 61.996094 87.324219 62.5 C 85.878906 62.859375 84.550781 62.609375 83.34375 61.75 C 83.34375 61.582031 83.34375 61.417969 83.34375 61.25 C 83.34375 60.75 83.34375 60.25 83.34375 59.75 C 85.007812 59.53125 86.5 59.867188 87.824219 60.75 Z M 87.824219 60.75 "/>
<path style=" stroke:none;fill-rule:evenodd;fill:rgb(40.784314%,49.803922%,54.901961%);fill-opacity:1;" d="M 98.273438 55.25 C 97.3125 60.691406 95.902344 66.023438 94.042969 71.25 C 92.847656 71.800781 91.605469 71.882812 90.3125 71.5 C 87.046875 69.910156 86.714844 67.996094 89.316406 65.75 C 90.019531 66.3125 90.765625 66.8125 91.554688 67.25 C 92.574219 65.925781 93.15625 64.425781 93.296875 62.75 C 95.785156 57.234375 96.78125 51.398438 96.28125 45.25 C 96.203125 44.402344 96.285156 43.566406 96.53125 42.75 C 96.695312 45.417969 96.863281 48.082031 97.027344 50.75 C 97.195312 50.417969 97.359375 50.082031 97.527344 49.75 C 97.734375 51.59375 97.984375 53.429688 98.273438 55.25 Z M 98.273438 55.25 "/>
<path style=" stroke:none;fill-rule:evenodd;fill:rgb(88.627451%,86.27451%,82.352941%);fill-opacity:1;" d="M 50.503906 56.75 C 50.160156 61.902344 49.082031 66.902344 47.269531 71.75 C 45.558594 76.789062 42.492188 80.707031 38.066406 83.5 C 39.503906 84.296875 39.835938 85.378906 39.058594 86.75 C 38.894531 86.75 38.730469 86.75 38.5625 86.75 C 36.917969 85.183594 35.175781 83.683594 33.339844 82.25 C 33.097656 81.777344 33.015625 81.277344 33.089844 80.75 C 31.410156 80.835938 29.753906 81.085938 28.113281 81.5 C 27.503906 82.292969 27.667969 82.960938 28.609375 83.5 C 29.832031 83.644531 30.992188 83.976562 32.09375 84.5 C 33.007812 85.832031 34 87.082031 35.078125 88.25 C 26.28125 89.90625 19.148438 87.238281 13.683594 80.25 C 14.5 80.683594 15.332031 80.933594 16.171875 81 C 14.363281 78.945312 12.871094 76.695312 11.691406 74.25 C 11.777344 73.917969 11.859375 73.582031 11.941406 73.25 C 13.59375 73.820312 14.339844 73.15625 14.179688 71.25 C 21.347656 71.996094 28.316406 71.078125 35.078125 68.5 C 41.765625 66.492188 46.90625 62.574219 50.503906 56.75 Z M 50.503906 56.75 "/>
<path style=" stroke:none;fill-rule:evenodd;fill:rgb(17.254902%,82.352941%,89.019608%);fill-opacity:1;" d="M 69.910156 64.25 C 73.039062 63.808594 74.445312 65.144531 74.140625 68.25 C 72.46875 70.65625 70.648438 70.820312 68.667969 68.75 C 68.132812 66.949219 68.546875 65.449219 69.910156 64.25 Z M 69.910156 64.25 "/>
<use xlink:href="#surface11" mask="url(#mask2)"/>
<path style=" stroke:none;fill-rule:evenodd;fill:rgb(53.72549%,84.313725%,90.980392%);fill-opacity:1;" d="M 80.859375 64.25 C 81.320312 64.785156 81.488281 65.449219 81.355469 66.25 C 81.578125 69.070312 81.082031 71.738281 79.863281 74.25 C 74.804688 80.394531 68.667969 81.726562 61.453125 78.25 C 59.90625 76.703125 58.582031 75.039062 57.472656 73.25 C 57.203125 72.441406 57.039062 71.609375 56.972656 70.75 C 57.175781 68.445312 58.003906 66.445312 59.460938 64.75 C 58.355469 70.191406 60.179688 74.191406 64.933594 76.75 C 64.410156 76.675781 63.914062 76.757812 63.441406 77 C 64.734375 78.558594 66.394531 79.308594 68.417969 79.25 C 70.925781 77.996094 73.578125 76.996094 76.378906 76.25 C 79.84375 72.957031 81.335938 68.957031 80.859375 64.25 Z M 80.859375 64.25 "/>
<path style=" stroke:none;fill-rule:evenodd;fill:rgb(21.960784%,23.921569%,27.843137%);fill-opacity:1;" d="M 82.351562 65.75 C 84.933594 71.371094 83.769531 76.039062 78.867188 79.75 C 79.277344 77.933594 79.609375 76.097656 79.863281 74.25 C 81.082031 71.738281 81.578125 69.070312 81.355469 66.25 C 81.6875 66.082031 82.019531 65.917969 82.351562 65.75 Z M 82.351562 65.75 "/>
<path style=" stroke:none;fill-rule:evenodd;fill:rgb(43.529412%,52.156863%,55.686275%);fill-opacity:1;" d="M 79.863281 74.25 C 79.609375 76.097656 79.277344 77.933594 78.867188 79.75 C 77.648438 80.445312 76.320312 80.863281 74.886719 81 C 70.078125 81.25 65.269531 81.332031 60.457031 81.25 C 59.265625 80.488281 57.941406 79.988281 56.476562 79.75 C 56.390625 79.089844 56.558594 78.503906 56.972656 78 C 58.492188 77.683594 59.984375 77.765625 61.453125 78.25 C 68.667969 81.726562 74.804688 80.394531 79.863281 74.25 Z M 79.863281 74.25 "/>
<use xlink:href="#surface14" mask="url(#mask3)"/>
<path style=" stroke:none;fill-rule:evenodd;fill:rgb(80%,75.294118%,71.764706%);fill-opacity:1;" d="M 38.5625 86.75 C 37.5625 87.53125 36.402344 88.03125 35.078125 88.25 C 34 87.082031 33.007812 85.832031 32.09375 84.5 C 30.992188 83.976562 29.832031 83.644531 28.609375 83.5 C 27.667969 82.960938 27.503906 82.292969 28.113281 81.5 C 29.753906 81.085938 31.410156 80.835938 33.089844 80.75 C 33.015625 81.277344 33.097656 81.777344 33.339844 82.25 C 35.175781 83.683594 36.917969 85.183594 38.5625 86.75 Z M 38.5625 86.75 "/>
<path style=" stroke:none;fill-rule:evenodd;fill:rgb(17.254902%,14.901961%,16.862745%);fill-opacity:1;" d="M 80.859375 83.25 C 80.859375 85.25 80.859375 87.25 80.859375 89.25 C 80.027344 89.582031 79.199219 89.917969 78.371094 90.25 C 78.371094 89.917969 78.371094 89.582031 78.371094 89.25 C 78.371094 87.417969 78.371094 85.582031 78.371094 83.75 C 79.222656 83.683594 80.054688 83.519531 80.859375 83.25 Z M 80.859375 83.25 "/>
<path style=" stroke:none;fill-rule:evenodd;fill:rgb(66.27451%,63.137255%,60.392157%);fill-opacity:1;" d="M 78.371094 83.75 C 78.371094 85.582031 78.371094 87.417969 78.371094 89.25 C 76.707031 87.75 74.800781 87.417969 72.648438 88.25 C 70.371094 87.171875 68.132812 87.171875 65.929688 88.25 C 65.96875 87.625 66.300781 87.207031 66.925781 87 C 65.246094 85.917969 63.753906 86.167969 62.445312 87.75 C 62.101562 87.488281 61.855469 87.152344 61.699219 86.75 C 61.070312 86.808594 60.40625 86.972656 59.710938 87.25 C 59.570312 86.792969 59.324219 86.460938 58.964844 86.25 C 59.699219 85.296875 60.691406 84.710938 61.949219 84.5 C 67.410156 83.96875 72.882812 83.71875 78.371094 83.75 Z M 78.371094 83.75 "/>
<path style=" stroke:none;fill-rule:evenodd;fill:rgb(34.509804%,32.156863%,34.117647%);fill-opacity:1;" d="M 80.859375 89.25 C 80.859375 87.25 80.859375 85.25 80.859375 83.25 C 82.308594 81.816406 82.972656 82.234375 82.847656 84.5 C 82.992188 86.488281 82.332031 88.074219 80.859375 89.25 Z M 80.859375 89.25 "/>
<path style=" stroke:none;fill-rule:evenodd;fill:rgb(27.843137%,32.156863%,37.254902%);fill-opacity:1;" d="M 57.472656 73.25 C 58.582031 75.039062 59.90625 76.703125 61.453125 78.25 C 59.984375 77.765625 58.492188 77.683594 56.972656 78 C 56.558594 78.503906 56.390625 79.089844 56.476562 79.75 C 57.941406 79.988281 59.265625 80.488281 60.457031 81.25 C 58.066406 82.015625 55.742188 82.933594 53.492188 84 C 52.527344 86.277344 51.199219 88.277344 49.507812 90 C 46.5 90.332031 43.515625 90.164062 40.554688 89.5 C 43.640625 87.535156 46.625 85.453125 49.507812 83.25 C 52.335938 80.074219 54.992188 76.738281 57.472656 73.25 Z M 57.472656 73.25 "/>
<path style=" stroke:none;fill-rule:evenodd;fill:rgb(91.372549%,89.803922%,87.843137%);fill-opacity:1;" d="M 58.964844 86.25 C 59.324219 86.460938 59.570312 86.792969 59.710938 87.25 C 60.40625 86.972656 61.070312 86.808594 61.699219 86.75 C 61.855469 87.152344 62.101562 87.488281 62.445312 87.75 C 63.753906 86.167969 65.246094 85.917969 66.925781 87 C 66.300781 87.207031 65.96875 87.625 65.929688 88.25 C 65.242188 89.304688 65.40625 90.304688 66.425781 91.25 C 69.824219 91.375 73.140625 91.375 76.378906 91.25 C 72.527344 93.507812 68.382812 94.425781 63.941406 94 C 61.082031 93.074219 59.089844 91.238281 57.96875 88.5 C 58.238281 87.707031 58.570312 86.957031 58.964844 86.25 Z M 58.964844 86.25 "/>
<path style=" stroke:none;fill-rule:evenodd;fill:rgb(79.607843%,77.647059%,75.686275%);fill-opacity:1;" d="M 78.371094 89.25 C 78.371094 89.582031 78.371094 89.917969 78.371094 90.25 C 77.707031 90.582031 77.042969 90.917969 76.378906 91.25 C 73.140625 91.375 69.824219 91.375 66.425781 91.25 C 65.40625 90.304688 65.242188 89.304688 65.929688 88.25 C 68.132812 87.171875 70.371094 87.171875 72.648438 88.25 C 74.800781 87.417969 76.707031 87.75 78.371094 89.25 Z M 78.371094 89.25 "/>
<use xlink:href="#surface17" mask="url(#mask4)"/>
<path style=" stroke:none;fill-rule:evenodd;fill:rgb(96.078431%,81.960784%,29.411765%);fill-opacity:1;" d="M 54.484375 85.25 C 55.851562 85.039062 56.511719 85.621094 56.476562 87 C 56.101562 88.757812 55.6875 90.507812 55.230469 92.25 C 53.667969 93.085938 52.425781 92.753906 51.5 91.25 C 52.5 89.238281 53.496094 87.238281 54.484375 85.25 Z M 54.484375 85.25 "/>
</g>
</svg>
