<?xml version="1.0" encoding="UTF-8"?>
<svg xmlns="http://www.w3.org/2000/svg" xmlns:xlink="http://www.w3.org/1999/xlink" width="px" height="px" viewBox="0 0 106 94" version="1.1">
<defs>
<filter id="alpha" filterUnits="objectBoundingBox" x="0%" y="0%" width="100%" height="100%">
  <feColorMatrix type="matrix" in="SourceGraphic" values="0 0 0 0 1 0 0 0 0 1 0 0 0 0 1 0 0 0 1 0"/>
</filter>
<mask id="mask0">
  <g filter="url(#alpha)">
<rect x="0" y="0" width="106" height="94" style="fill:rgb(0%,0%,0%);fill-opacity:0.109804;stroke:none;"/>
  </g>
</mask>
<clipPath id="clip1">
  <rect x="0" y="0" width="106" height="94"/>
</clipPath>
<g id="surface5" clip-path="url(#clip1)">
<path style=" stroke:none;fill-rule:evenodd;fill:rgb(15.686275%,20.392157%,25.098039%);fill-opacity:1;" d="M 40.25 -0.25 C 41.582031 -0.25 42.917969 -0.25 44.25 -0.25 C 46.117188 0.242188 47.867188 1.078125 49.5 2.261719 C 50.128906 1.210938 51.042969 0.707031 52.25 0.753906 C 54.285156 1.074219 56.203125 1.742188 58 2.765625 C 58.894531 2.308594 59.8125 2.222656 60.75 2.511719 C 63.105469 3.542969 65.191406 4.96875 67 6.785156 C 69.855469 3.449219 73.4375 2.359375 77.75 3.519531 C 82.867188 5.3125 85.785156 8.914062 86.5 14.328125 C 89.230469 16.964844 91.0625 20.148438 92 23.878906 C 98.273438 24.644531 102.273438 28.164062 104 34.433594 C 104.554688 36.234375 104.804688 38.078125 104.75 39.960938 C 104.417969 39.960938 104.082031 39.960938 103.75 39.960938 C 103.570312 35.242188 101.984375 31.050781 99 27.394531 C 96.535156 25.691406 93.785156 25.023438 90.75 25.386719 C 90.742188 24.347656 90.574219 23.339844 90.25 22.367188 C 89.296875 19.617188 87.710938 17.273438 85.5 15.332031 C 85.125 9.632812 82.210938 6.03125 76.75 4.523438 C 72.386719 3.617188 69.054688 5.042969 66.75 8.796875 C 65.113281 6.402344 62.949219 4.640625 60.25 3.519531 C 59.269531 3.203125 58.433594 3.457031 57.75 4.273438 C 55.636719 2.835938 53.300781 2 50.75 1.757812 C 50.890625 2.65625 50.726562 3.496094 50.25 4.273438 C 47.339844 1.730469 44.003906 0.726562 40.25 1.257812 C 40.824219 1.957031 40.824219 2.625 40.25 3.265625 C 37.046875 1.867188 33.714844 1.445312 30.25 2.011719 C 29.875 2.347656 29.707031 2.765625 29.75 3.265625 C 29.753906 4.03125 30.089844 4.617188 30.75 5.027344 C 28.417969 5.195312 26.082031 5.363281 23.75 5.53125 C 21.96875 5.882812 20.550781 6.804688 19.5 8.292969 C 19.34375 9 19.507812 9.671875 20 10.304688 C 21.203125 11.261719 22.121094 12.433594 22.75 13.824219 C 18.851562 14.132812 15.183594 15.222656 11.75 17.089844 C 10.992188 17.769531 10.324219 18.523438 9.75 19.351562 C 10.992188 20.851562 12.324219 22.277344 13.75 23.625 C 9.449219 25.597656 5.699219 28.363281 2.5 31.917969 C 2.25 32.421875 2 32.925781 1.75 33.429688 C 3.445312 36.394531 5.613281 38.988281 8.25 41.21875 C 5.132812 43.433594 2.632812 46.195312 0.75 49.511719 C 3.066406 52.679688 5.730469 55.527344 8.75 58.058594 C 6.738281 60.5 4.820312 63.015625 3 65.597656 C 2.839844 66.699219 3.089844 67.703125 3.75 68.613281 C 2.390625 68.015625 1.804688 67.007812 2 65.597656 C 3.757812 63.164062 5.507812 60.734375 7.25 58.308594 C 4.484375 55.78125 1.984375 53.015625 -0.25 50.015625 C -0.25 49.679688 -0.25 49.347656 -0.25 49.011719 C 1.792969 46.171875 4.125 43.574219 6.75 41.21875 C 4.464844 38.835938 2.464844 36.242188 0.75 33.429688 C 3.769531 29.21875 7.4375 25.699219 11.75 22.871094 C 10.925781 21.789062 10.007812 20.785156 9 19.855469 C 10.011719 17.5 11.761719 15.738281 14.25 14.578125 C 16.515625 13.757812 18.847656 13.253906 21.25 13.070312 C 20.152344 11.714844 19.152344 10.289062 18.25 8.796875 C 20.773438 5.101562 24.273438 3.425781 28.75 3.769531 C 28.695312 2.5625 29.195312 1.640625 30.25 1.003906 C 33.125 -0.078125 35.960938 0.00390625 38.75 1.257812 C 39.425781 0.910156 39.925781 0.40625 40.25 -0.25 Z M 40.25 -0.25 "/>
</g>
<mask id="mask1">
  <g filter="url(#alpha)">
<rect x="0" y="0" width="106" height="94" style="fill:rgb(0%,0%,0%);fill-opacity:0.972549;stroke:none;"/>
  </g>
</mask>
<clipPath id="clip2">
  <rect x="0" y="0" width="106" height="94"/>
</clipPath>
<g id="surface8" clip-path="url(#clip2)">
<path style=" stroke:none;fill-rule:evenodd;fill:rgb(2.745098%,4.705882%,6.666667%);fill-opacity:1;" d="M 29.75 3.265625 C 32.015625 3.105469 34.183594 3.273438 36.25 3.769531 C 34.90625 3.6875 33.574219 3.769531 32.25 4.019531 C 33.734375 6.761719 35.402344 9.359375 37.25 11.8125 C 36.257812 12.414062 35.257812 12.414062 34.25 11.8125 C 33.726562 10.078125 32.726562 8.738281 31.25 7.792969 C 27.980469 6.929688 24.816406 7.179688 21.75 8.546875 C 23.359375 10.332031 24.777344 12.257812 26 14.328125 C 27.292969 15.683594 28.710938 16.855469 30.25 17.84375 C 30.042969 18.160156 29.707031 18.324219 29.25 18.347656 C 27.09375 17.765625 24.925781 17.261719 22.75 16.839844 C 20.742188 16.757812 18.742188 16.839844 16.75 17.089844 C 15.171875 17.464844 13.839844 18.21875 12.75 19.351562 C 15.1875 22.421875 18.1875 24.769531 21.75 26.390625 C 21.332031 26.558594 20.917969 26.726562 20.5 26.894531 C 17.683594 25.59375 14.933594 25.59375 12.25 26.894531 C 10.851562 27.175781 9.6875 27.847656 8.75 28.902344 C 7.917969 29.40625 7.25 30.078125 6.75 30.914062 C 5.773438 31.558594 4.941406 32.398438 4.25 33.429688 C 6.730469 37.601562 10.230469 40.449219 14.75 41.972656 C 10.597656 42.339844 7.179688 44.183594 4.5 47.503906 C 4.109375 48.121094 3.859375 48.789062 3.75 49.511719 C 5.949219 53.570312 9.28125 56.082031 13.75 57.054688 C 14.132812 57.441406 14.632812 57.691406 15.25 57.808594 C 10.855469 59.375 7.523438 62.222656 5.25 66.351562 C 7.59375 69.121094 10.59375 70.714844 14.25 71.128906 C 14.582031 71.464844 14.917969 71.796875 15.25 72.132812 C 14.042969 72.003906 13.210938 72.507812 12.75 73.640625 C 14.074219 74.726562 15.574219 75.398438 17.25 75.652344 C 21.164062 75.867188 25.164062 75.949219 29.25 75.902344 C 29.972656 76.09375 30.472656 76.511719 30.75 77.160156 C 29.886719 78.027344 28.886719 78.699219 27.75 79.171875 C 27.824219 78.640625 27.742188 78.140625 27.5 77.664062 C 26.835938 78.207031 26.085938 78.542969 25.25 78.667969 C 25.730469 78.234375 25.730469 77.898438 25.25 77.664062 C 19.679688 79.046875 14.597656 78.042969 10 74.648438 C 9.898438 73.765625 9.648438 72.925781 9.25 72.132812 C 7.304688 71.074219 5.46875 69.902344 3.75 68.613281 C 3.089844 67.703125 2.839844 66.699219 3 65.597656 C 4.820312 63.015625 6.738281 60.5 8.75 58.058594 C 5.730469 55.527344 3.066406 52.679688 0.75 49.511719 C 2.632812 46.195312 5.132812 43.433594 8.25 41.21875 C 5.613281 38.988281 3.445312 36.394531 1.75 33.429688 C 2 32.925781 2.25 32.421875 2.5 31.917969 C 5.699219 28.363281 9.449219 25.597656 13.75 23.625 C 12.324219 22.277344 10.992188 20.851562 9.75 19.351562 C 10.324219 18.523438 10.992188 17.769531 11.75 17.089844 C 15.183594 15.222656 18.851562 14.132812 22.75 13.824219 C 22.121094 12.433594 21.203125 11.261719 20 10.304688 C 19.507812 9.671875 19.34375 9 19.5 8.292969 C 20.550781 6.804688 21.96875 5.882812 23.75 5.53125 C 26.082031 5.363281 28.417969 5.195312 30.75 5.027344 C 30.089844 4.617188 29.753906 4.03125 29.75 3.265625 Z M 29.75 3.265625 "/>
</g>
<mask id="mask2">
  <g filter="url(#alpha)">
<rect x="0" y="0" width="106" height="94" style="fill:rgb(0%,0%,0%);fill-opacity:0.992157;stroke:none;"/>
  </g>
</mask>
<clipPath id="clip3">
  <rect x="0" y="0" width="106" height="94"/>
</clipPath>
<g id="surface11" clip-path="url(#clip3)">
<path style=" stroke:none;fill-rule:evenodd;fill:rgb(4.313725%,3.137255%,3.137255%);fill-opacity:1;" d="M 91.75 48.507812 C 92.21875 49.042969 92.382812 49.714844 92.25 50.519531 C 92.75 50.519531 93.25 50.519531 93.75 50.519531 C 95.082031 50.519531 96.417969 50.519531 97.75 50.519531 C 97.75 49.847656 97.75 49.179688 97.75 48.507812 C 98.132812 49.621094 98.46875 50.792969 98.75 52.027344 C 98.75 52.195312 98.75 52.363281 98.75 52.53125 C 98.25 52.53125 97.75 52.53125 97.25 52.53125 C 95.917969 52.53125 94.582031 52.53125 93.25 52.53125 C 93.25 53.535156 93.25 54.539062 93.25 55.546875 C 92.773438 56.257812 92.609375 57.097656 92.75 58.058594 C 94.191406 58.210938 95.527344 58.046875 96.75 57.554688 C 97.230469 56.667969 97.398438 55.664062 97.25 54.539062 C 98.089844 54.882812 98.421875 55.554688 98.25 56.550781 C 98.25 57.054688 98.25 57.554688 98.25 58.058594 C 98.917969 58.058594 99.582031 58.058594 100.25 58.058594 C 100.691406 58.578125 100.441406 58.914062 99.5 59.0625 C 97.171875 58.675781 94.921875 58.84375 92.75 59.566406 C 92.710938 60.925781 92.546875 62.269531 92.25 63.589844 C 93.847656 63.859375 95.183594 63.523438 96.25 62.582031 C 96.960938 61.8125 97.296875 61.980469 97.25 63.085938 C 97.25 63.253906 97.25 63.421875 97.25 63.589844 C 98.640625 64.128906 99.972656 64.464844 101.25 64.59375 C 99.5 69.511719 96 71.523438 90.75 70.625 C 90.195312 74.921875 88.03125 78.105469 84.25 80.175781 C 83.535156 87.488281 79.535156 90.921875 72.25 90.480469 C 69.628906 90.097656 67.964844 88.675781 67.25 86.207031 C 68.210938 85.351562 68.378906 84.347656 67.75 83.191406 C 67.367188 83.75 66.867188 84.085938 66.25 84.199219 C 66.417969 83.527344 66.582031 82.855469 66.75 82.1875 C 67.058594 82.242188 67.308594 82.410156 67.5 82.691406 C 67.636719 81.886719 67.886719 81.132812 68.25 80.429688 C 68.023438 80.21875 67.855469 79.96875 67.75 79.671875 C 68.816406 79.335938 69.816406 79.003906 70.75 78.667969 C 74.421875 78.75 78.085938 78.667969 81.75 78.417969 C 82.820312 78.128906 83.820312 77.710938 84.75 77.160156 C 86.597656 75.800781 87.597656 73.957031 87.75 71.632812 C 88.078125 71.066406 88.246094 70.398438 88.25 69.621094 C 87.828125 67.09375 87.328125 64.578125 86.75 62.082031 C 86.992188 60.664062 87.65625 60.328125 88.75 61.074219 C 88.476562 61.105469 88.3125 61.273438 88.25 61.578125 C 88.902344 62.289062 89.320312 63.125 89.5 64.089844 C 89.746094 63.441406 89.828125 62.769531 89.75 62.082031 C 90.132812 61.695312 90.382812 61.195312 90.5 60.570312 C 91.148438 56.570312 91.5625 52.550781 91.75 48.507812 Z M 91.75 48.507812 "/>
</g>
<mask id="mask3">
  <g filter="url(#alpha)">
<rect x="0" y="0" width="106" height="94" style="fill:rgb(0%,0%,0%);fill-opacity:0.0235294;stroke:none;"/>
  </g>
</mask>
<clipPath id="clip4">
  <rect x="0" y="0" width="106" height="94"/>
</clipPath>
<g id="surface14" clip-path="url(#clip4)">
<path style=" stroke:none;fill-rule:evenodd;fill:rgb(14.509804%,18.039216%,23.137255%);fill-opacity:1;" d="M 103.75 39.960938 C 104.082031 39.960938 104.417969 39.960938 104.75 39.960938 C 105.082031 40.96875 105.417969 41.972656 105.75 42.980469 C 105.75 46.164062 105.75 49.347656 105.75 52.53125 C 105.464844 58.1875 103.714844 63.378906 100.5 68.113281 C 98.25 70.90625 95.332031 72.078125 91.75 71.632812 C 91.453125 73.234375 90.871094 74.742188 90 76.15625 C 88.5 77.664062 87 79.171875 85.5 80.679688 C 84.179688 88.210938 79.761719 91.816406 72.25 91.488281 C 70.101562 90.910156 68.269531 89.820312 66.75 88.21875 C 64.496094 90.863281 61.660156 92.117188 58.25 91.988281 C 57.824219 91.476562 57.324219 91.058594 56.75 90.734375 C 54.289062 92.980469 51.789062 93.148438 49.25 91.234375 C 47.425781 92.238281 45.59375 93.074219 43.75 93.75 C 43.082031 93.75 42.417969 93.75 41.75 93.75 C 40.929688 93.339844 40.34375 92.667969 40 91.738281 C 37.03125 92.945312 33.949219 93.367188 30.75 92.996094 C 29.511719 92.25 28.425781 91.328125 27.5 90.230469 C 23.960938 90.050781 20.960938 88.710938 18.5 86.207031 C 18.128906 85.582031 18.214844 85.078125 18.75 84.699219 C 19.328125 86.371094 20.496094 87.460938 22.25 87.96875 C 24.875 88.558594 27.542969 88.894531 30.25 88.972656 C 29.039062 90.035156 29.039062 91.039062 30.25 91.988281 C 34.113281 92.617188 37.78125 92.027344 41.25 90.230469 C 41.824219 90.871094 41.824219 91.542969 41.25 92.242188 C 44.734375 92.597656 47.820312 91.59375 50.5 89.222656 C 50.746094 90.046875 50.828125 90.882812 50.75 91.738281 C 53.347656 91.6875 55.515625 90.683594 57.25 88.722656 C 57.621094 89.472656 57.953125 90.226562 58.25 90.984375 C 59.628906 91.277344 60.960938 91.109375 62.25 90.480469 C 64.011719 89.125 65.679688 87.699219 67.25 86.207031 C 67.964844 88.675781 69.628906 90.097656 72.25 90.480469 C 79.535156 90.921875 83.535156 87.488281 84.25 80.175781 C 88.03125 78.105469 90.195312 74.921875 90.75 70.625 C 96 71.523438 99.5 69.511719 101.25 64.59375 C 102.15625 63.644531 102.738281 62.472656 103 61.074219 C 104.273438 54.046875 104.523438 47.007812 103.75 39.960938 Z M 103.75 39.960938 "/>
</g>
<mask id="mask4">
  <g filter="url(#alpha)">
<rect x="0" y="0" width="106" height="94" style="fill:rgb(0%,0%,0%);fill-opacity:0.00392157;stroke:none;"/>
  </g>
</mask>
<clipPath id="clip5">
  <rect x="0" y="0" width="106" height="94"/>
</clipPath>
<g id="surface17" clip-path="url(#clip5)">
<path style=" stroke:none;fill-rule:evenodd;fill:rgb(16.078431%,21.568627%,26.27451%);fill-opacity:1;" d="M 3.75 68.613281 C 5.46875 69.902344 7.304688 71.074219 9.25 72.132812 C 9.648438 72.925781 9.898438 73.765625 10 74.648438 C 14.597656 78.042969 19.679688 79.046875 25.25 77.664062 C 25.730469 77.898438 25.730469 78.234375 25.25 78.667969 C 23.398438 81.03125 21.234375 83.042969 18.75 84.699219 C 20.332031 83.023438 21.832031 81.265625 23.25 79.421875 C 18.515625 79.65625 14.183594 78.484375 10.25 75.902344 C 9.1875 75.066406 8.519531 73.976562 8.25 72.636719 C 6.429688 71.644531 4.929688 70.304688 3.75 68.613281 Z M 3.75 68.613281 "/>
</g>
<mask id="mask5">
  <g filter="url(#alpha)">
<rect x="0" y="0" width="106" height="94" style="fill:rgb(0%,0%,0%);fill-opacity:0.996078;stroke:none;"/>
  </g>
</mask>
<clipPath id="clip6">
  <rect x="0" y="0" width="106" height="94"/>
</clipPath>
<g id="surface20" clip-path="url(#clip6)">
<path style=" stroke:none;fill-rule:evenodd;fill:rgb(2.352941%,3.529412%,5.882353%);fill-opacity:1;" d="M 45.75 73.140625 C 46.25 73.976562 46.917969 74.648438 47.75 75.148438 C 48.410156 76.25 49.410156 77.003906 50.75 77.410156 C 57.421875 77.820312 64.085938 78.238281 70.75 78.667969 C 69.816406 79.003906 68.816406 79.335938 67.75 79.671875 C 67.855469 79.96875 68.023438 80.21875 68.25 80.429688 C 67.886719 81.132812 67.636719 81.886719 67.5 82.691406 C 67.308594 82.410156 67.058594 82.242188 66.75 82.1875 C 66.707031 81.6875 66.875 81.269531 67.25 80.929688 C 64.332031 80.496094 62.414062 81.753906 61.5 84.699219 C 61.09375 85.367188 60.507812 85.699219 59.75 85.707031 C 60.605469 83.90625 61.773438 82.3125 63.25 80.929688 C 61.566406 80.667969 59.984375 80.917969 58.5 81.683594 C 57.261719 81.175781 56.011719 80.921875 54.75 80.929688 C 51.527344 83.832031 48.027344 86.347656 44.25 88.46875 C 43.832031 88.980469 43.664062 89.566406 43.75 90.230469 C 44.78125 90.136719 45.78125 89.882812 46.75 89.476562 C 48.5 88.460938 50.167969 87.371094 51.75 86.207031 C 51.582031 87.542969 51.914062 88.71875 52.75 89.726562 C 54.738281 88.398438 56.570312 86.890625 58.25 85.203125 C 58.960938 84.433594 59.296875 84.601562 59.25 85.707031 C 58.472656 87.1875 58.640625 88.527344 59.75 89.726562 C 62.390625 88.410156 64.558594 86.566406 66.25 84.199219 C 66.867188 84.085938 67.367188 83.75 67.75 83.191406 C 68.378906 84.347656 68.210938 85.351562 67.25 86.207031 C 65.679688 87.699219 64.011719 89.125 62.25 90.480469 C 60.960938 91.109375 59.628906 91.277344 58.25 90.984375 C 57.953125 90.226562 57.621094 89.472656 57.25 88.722656 C 55.515625 90.683594 53.347656 91.6875 50.75 91.738281 C 50.828125 90.882812 50.746094 90.046875 50.5 89.222656 C 47.820312 91.59375 44.734375 92.597656 41.25 92.242188 C 41.824219 91.542969 41.824219 90.871094 41.25 90.230469 C 37.78125 92.027344 34.113281 92.617188 30.25 91.988281 C 29.039062 91.039062 29.039062 90.035156 30.25 88.972656 C 27.542969 88.894531 24.875 88.558594 22.25 87.96875 C 20.496094 87.460938 19.328125 86.371094 18.75 84.699219 C 21.234375 83.042969 23.398438 81.03125 25.25 78.667969 C 26.085938 78.542969 26.835938 78.207031 27.5 77.664062 C 27.742188 78.140625 27.824219 78.640625 27.75 79.171875 C 26.75 79.839844 25.917969 80.679688 25.25 81.683594 C 24.828125 82.273438 24.496094 82.945312 24.25 83.695312 C 20.945312 84.492188 20.945312 85.414062 24.25 86.460938 C 25.574219 86.710938 26.90625 86.792969 28.25 86.710938 C 29.925781 86.792969 31.589844 86.710938 33.25 86.460938 C 33.988281 85.433594 34.988281 85.015625 36.25 85.203125 C 35.296875 86.835938 34.132812 88.34375 32.75 89.726562 C 34.605469 90.144531 36.4375 89.980469 38.25 89.222656 C 40.058594 88.652344 41.726562 87.8125 43.25 86.710938 C 46.160156 85.9375 48.746094 84.261719 51 81.683594 C 51.34375 81.265625 51.261719 80.929688 50.75 80.679688 C 49.964844 80.273438 49.132812 80.105469 48.25 80.175781 C 47.917969 79.507812 47.417969 79.003906 46.75 78.667969 C 46.371094 77.679688 45.789062 77.511719 45 78.164062 C 44.917969 77.328125 44.832031 76.492188 44.75 75.652344 C 44.777344 74.578125 45.113281 73.738281 45.75 73.140625 Z M 45.75 73.140625 "/>
</g>
</defs>
<g id="surface1">
<path style=" stroke:none;fill-rule:evenodd;fill:rgb(1.960784%,1.960784%,3.921569%);fill-opacity:1;" d="M 90.25 22.367188 C 89.628906 23.589844 89.046875 23.589844 88.5 22.367188 C 88.109375 24.007812 88.191406 25.601562 88.75 27.144531 C 88.453125 27.378906 88.121094 27.460938 87.75 27.394531 C 88.765625 21.203125 86.265625 17.683594 80.25 16.839844 C 70.3125 16.179688 60.3125 16.179688 50.25 16.839844 C 46.273438 18.574219 43.359375 21.421875 41.5 25.386719 C 41.421875 27.667969 41.671875 29.929688 42.25 32.171875 C 42.136719 33.433594 41.972656 34.691406 41.75 35.941406 C 42.277344 37.839844 42.945312 39.683594 43.75 41.46875 C 43.898438 42.527344 43.734375 43.535156 43.25 44.488281 C 42.582031 42.816406 41.917969 41.140625 41.25 39.460938 C 41.023438 39.058594 40.6875 38.890625 40.25 38.957031 C 38.011719 37.832031 35.679688 36.996094 33.25 36.445312 C 31.082031 36.109375 28.917969 35.773438 26.75 35.4375 C 26.417969 35.4375 26.082031 35.4375 25.75 35.4375 C 27.773438 34.59375 29.9375 34.261719 32.25 34.433594 C 34.765625 34.433594 37.265625 34.601562 39.75 34.9375 C 40.597656 31.539062 39.765625 28.609375 37.25 26.140625 C 36.28125 25.730469 35.28125 25.480469 34.25 25.386719 C 33.441406 25.113281 32.609375 24.945312 31.75 24.882812 C 34.007812 24.449219 36.34375 24.03125 38.75 23.625 C 40.417969 22.375 41.582031 20.78125 42.25 18.851562 C 41.804688 17.644531 41.054688 16.640625 40 15.835938 C 39.617188 15.046875 39.699219 14.375 40.25 13.824219 C 40.804688 13.851562 41.304688 14.019531 41.75 14.328125 C 42.449219 15.023438 43.28125 15.527344 44.25 15.835938 C 44.457031 16.148438 44.792969 16.316406 45.25 16.335938 C 47.808594 15.863281 48.890625 14.355469 48.5 11.8125 C 47.097656 10.402344 45.679688 8.976562 44.25 7.539062 C 43.460938 6.988281 42.628906 6.570312 41.75 6.285156 C 40.644531 5.644531 39.476562 5.140625 38.25 4.777344 C 37.503906 4.53125 36.835938 4.195312 36.25 3.769531 C 34.183594 3.273438 32.015625 3.105469 29.75 3.265625 C 29.707031 2.765625 29.875 2.347656 30.25 2.011719 C 33.714844 1.445312 37.046875 1.867188 40.25 3.265625 C 40.824219 2.625 40.824219 1.957031 40.25 1.257812 C 44.003906 0.726562 47.339844 1.730469 50.25 4.273438 C 50.726562 3.496094 50.890625 2.65625 50.75 1.757812 C 53.300781 2 55.636719 2.835938 57.75 4.273438 C 58.433594 3.457031 59.269531 3.203125 60.25 3.519531 C 62.949219 4.640625 65.113281 6.402344 66.75 8.796875 C 69.054688 5.042969 72.386719 3.617188 76.75 4.523438 C 82.210938 6.03125 85.125 9.632812 85.5 15.332031 C 87.710938 17.273438 89.296875 19.617188 90.25 22.367188 Z M 90.25 22.367188 "/>
<path style=" stroke:none;fill-rule:evenodd;fill:rgb(16.470588%,17.254902%,25.098039%);fill-opacity:1;" d="M 51.75 19.351562 C 52.421875 20.167969 53.335938 20.671875 54.5 20.859375 C 54.3125 21.671875 53.980469 22.511719 53.5 23.375 C 53.253906 22.722656 53.171875 22.054688 53.25 21.363281 C 52.21875 21.457031 51.21875 21.707031 50.25 22.117188 C 50.757812 22.644531 50.84375 23.230469 50.5 23.878906 C 50.332031 23.710938 50.167969 23.542969 50 23.375 C 49.667969 24.042969 49.667969 24.714844 50 25.386719 C 50.667969 24.714844 51.332031 24.042969 52 23.375 C 52.417969 24.128906 53 24.714844 53.75 25.132812 C 53.417969 25.300781 53.082031 25.46875 52.75 25.636719 C 53.589844 25.652344 54.339844 25.738281 55 25.886719 C 55.324219 24.378906 55.992188 23.207031 57 22.367188 C 57.464844 24.511719 56.714844 25.933594 54.75 26.640625 C 56.472656 28.570312 57.304688 30.832031 57.25 33.429688 C 56.578125 31.507812 55.664062 29.667969 54.5 27.898438 C 54.78125 31.664062 55.199219 35.433594 55.75 39.207031 C 55.6875 41.890625 55.1875 44.488281 54.25 47 C 53.71875 46.234375 53.386719 45.398438 53.25 44.488281 C 52.863281 43.242188 52.863281 42.070312 53.25 40.96875 C 52.902344 41.230469 52.652344 41.566406 52.5 41.972656 C 51.976562 41.460938 51.390625 41.378906 50.75 41.722656 C 50.296875 43.386719 49.632812 44.980469 48.75 46.496094 C 50.003906 48.457031 50.503906 50.636719 50.25 53.03125 C 50.203125 55.734375 49.953125 58.414062 49.5 61.074219 C 49.082031 60.570312 48.667969 60.070312 48.25 59.566406 C 47.75 60.238281 47.25 60.238281 46.75 59.566406 C 46.582031 60.238281 46.417969 60.90625 46.25 61.578125 C 46.632812 61.785156 47.132812 61.867188 47.75 61.828125 C 47.445312 62.265625 47.03125 62.515625 46.5 62.582031 C 45.378906 61.894531 44.464844 61.058594 43.75 60.070312 C 43.863281 56.378906 44.027344 52.695312 44.25 49.011719 C 45.007812 47.453125 45.339844 45.777344 45.25 43.984375 C 45.074219 41.101562 44.660156 38.253906 44 35.4375 C 43.667969 32.253906 43.667969 29.070312 44 25.886719 C 45.917969 22.863281 48.503906 20.6875 51.75 19.351562 Z M 51.75 19.351562 "/>
<path style=" stroke:none;fill-rule:evenodd;fill:rgb(5.490196%,3.137255%,2.745098%);fill-opacity:1;" d="M 90.25 22.367188 C 90.574219 23.339844 90.742188 24.347656 90.75 25.386719 C 93.785156 25.023438 96.535156 25.691406 99 27.394531 C 101.984375 31.050781 103.570312 35.242188 103.75 39.960938 C 104.523438 47.007812 104.273438 54.046875 103 61.074219 C 102.738281 62.472656 102.15625 63.644531 101.25 64.59375 C 99.972656 64.464844 98.640625 64.128906 97.25 63.589844 C 100.359375 63.726562 101.609375 62.21875 101 59.0625 C 100.085938 59.367188 99.171875 59.703125 98.25 60.070312 C 97.976562 61.152344 97.640625 62.160156 97.25 63.085938 C 97.296875 61.980469 96.960938 61.8125 96.25 62.582031 C 96.574219 61.609375 96.742188 60.605469 96.75 59.566406 C 95.417969 59.566406 94.082031 59.566406 92.75 59.566406 C 94.921875 58.84375 97.171875 58.675781 99.5 59.0625 C 100.441406 58.914062 100.691406 58.578125 100.25 58.058594 C 100.605469 57.605469 101.105469 57.4375 101.75 57.554688 C 101.75 55.710938 101.75 53.871094 101.75 52.027344 C 100.75 52.027344 99.75 52.027344 98.75 52.027344 C 98.46875 50.792969 98.132812 49.621094 97.75 48.507812 C 97.75 47.503906 97.75 46.496094 97.75 45.492188 C 96.417969 45.492188 95.082031 45.492188 93.75 45.492188 C 93.75 47.167969 93.75 48.84375 93.75 50.519531 C 93.25 50.519531 92.75 50.519531 92.25 50.519531 C 92.382812 49.714844 92.21875 49.042969 91.75 48.507812 C 91.519531 43.6875 90.855469 38.996094 89.75 34.433594 C 89.667969 32.695312 89.167969 32.527344 88.25 33.929688 C 88.476562 34.332031 88.8125 34.5 89.25 34.433594 C 88.539062 34.910156 87.707031 35.078125 86.75 34.9375 C 86.75 34.097656 86.75 33.261719 86.75 32.421875 C 87.082031 30.746094 87.417969 29.070312 87.75 27.394531 C 88.121094 27.460938 88.453125 27.378906 88.75 27.144531 C 88.191406 25.601562 88.109375 24.007812 88.5 22.367188 C 89.046875 23.589844 89.628906 23.589844 90.25 22.367188 Z M 90.25 22.367188 "/>
<path style=" stroke:none;fill-rule:evenodd;fill:rgb(7.843137%,9.803922%,15.686275%);fill-opacity:1;" d="M 50.25 16.839844 C 50.460938 17.203125 50.792969 17.453125 51.25 17.59375 C 53.964844 17.535156 56.464844 17.953125 58.75 18.851562 C 56.320312 18.691406 53.984375 18.855469 51.75 19.351562 C 48.503906 20.6875 45.917969 22.863281 44 25.886719 C 43.667969 29.070312 43.667969 32.253906 44 35.4375 C 44.660156 38.253906 45.074219 41.101562 45.25 43.984375 C 45.339844 45.777344 45.007812 47.453125 44.25 49.011719 C 43.761719 48.855469 43.429688 48.519531 43.25 48.003906 C 44.316406 45.832031 44.484375 43.652344 43.75 41.46875 C 42.945312 39.683594 42.277344 37.839844 41.75 35.941406 C 41.972656 34.691406 42.136719 33.433594 42.25 32.171875 C 41.671875 29.929688 41.421875 27.667969 41.5 25.386719 C 43.359375 21.421875 46.273438 18.574219 50.25 16.839844 Z M 50.25 16.839844 "/>
<use xlink:href="#surface5" mask="url(#mask0)"/>
<path style=" stroke:none;fill-rule:evenodd;fill:rgb(0%,44.705882%,59.215686%);fill-opacity:1;" d="M 22.75 16.839844 C 24.925781 17.261719 27.09375 17.765625 29.25 18.347656 C 29.707031 18.324219 30.042969 18.160156 30.25 17.84375 C 31.316406 18.664062 32.316406 19.585938 33.25 20.609375 C 34.066406 20.859375 34.902344 20.941406 35.75 20.859375 C 35.578125 21.957031 35.078125 22.878906 34.25 23.625 C 32.589844 23.875 30.925781 23.960938 29.25 23.878906 C 29.382812 23.132812 29.214844 22.464844 28.75 21.867188 C 26.738281 21.3125 24.738281 20.722656 22.75 20.105469 C 23.382812 19.019531 23.382812 17.929688 22.75 16.839844 Z M 22.75 16.839844 "/>
<path style=" stroke:none;fill-rule:evenodd;fill:rgb(8.627451%,7.843137%,12.156863%);fill-opacity:1;" d="M 78.75 17.34375 C 83.203125 17.394531 85.871094 19.570312 86.75 23.878906 C 86.429688 25.570312 86.011719 27.242188 85.5 28.902344 C 85.296875 28.199219 85.046875 27.53125 84.75 26.894531 C 84.824219 25.332031 84.574219 23.824219 84 22.367188 C 83.539062 21.425781 82.789062 20.921875 81.75 20.859375 C 80.234375 19.902344 78.566406 19.234375 76.75 18.851562 C 72.921875 18.199219 69.085938 18.199219 65.25 18.851562 C 65.082031 18.515625 64.917969 18.179688 64.75 17.84375 C 69.402344 17.414062 74.070312 17.25 78.75 17.34375 Z M 78.75 17.34375 "/>
<path style=" stroke:none;fill-rule:evenodd;fill:rgb(40.784314%,41.960784%,48.235294%);fill-opacity:1;" d="M 78.75 17.34375 C 79.105469 16.886719 79.605469 16.71875 80.25 16.839844 C 86.265625 17.683594 88.765625 21.203125 87.75 27.394531 C 87.417969 29.070312 87.082031 30.746094 86.75 32.421875 C 86.878906 29.585938 86.878906 26.738281 86.75 23.878906 C 85.871094 19.570312 83.203125 17.394531 78.75 17.34375 Z M 78.75 17.34375 "/>
<path style=" stroke:none;fill-rule:evenodd;fill:rgb(0.392157%,31.764706%,42.352941%);fill-opacity:1;" d="M 31.25 7.792969 C 32.726562 8.738281 33.726562 10.078125 34.25 11.8125 C 35.257812 12.414062 36.257812 12.414062 37.25 11.8125 C 38.386719 12.289062 39.386719 12.960938 40.25 13.824219 C 39.699219 14.375 39.617188 15.046875 40 15.835938 C 41.054688 16.640625 41.804688 17.644531 42.25 18.851562 C 41.582031 20.78125 40.417969 22.375 38.75 23.625 C 36.34375 24.03125 34.007812 24.449219 31.75 24.882812 C 30.75 24.714844 29.75 24.546875 28.75 24.378906 C 28.75 24.042969 28.917969 23.878906 29.25 23.878906 C 30.925781 23.960938 32.589844 23.875 34.25 23.625 C 35.078125 22.878906 35.578125 21.957031 35.75 20.859375 C 36.75 20.527344 37.75 20.191406 38.75 19.855469 C 39.195312 18.957031 39.695312 18.035156 40.25 17.089844 C 39.519531 16.050781 38.6875 15.628906 37.75 15.835938 C 38.164062 15.390625 38.664062 15.222656 39.25 15.332031 C 39.21875 14.28125 38.71875 13.527344 37.75 13.070312 C 35.917969 12.902344 34.082031 12.734375 32.25 12.566406 C 32.917969 12.230469 32.917969 11.898438 32.25 11.5625 C 31.296875 10.996094 30.296875 10.578125 29.25 10.304688 C 28.410156 10.109375 27.578125 9.855469 26.75 9.550781 C 28.453125 9.222656 29.953125 8.632812 31.25 7.792969 Z M 31.25 7.792969 "/>
<path style=" stroke:none;fill-rule:evenodd;fill:rgb(26.27451%,30.196078%,36.078431%);fill-opacity:1;" d="M 80.25 16.839844 C 79.605469 16.71875 79.105469 16.886719 78.75 17.34375 C 74.070312 17.25 69.402344 17.414062 64.75 17.84375 C 62.710938 18.167969 60.796875 18.839844 59 19.855469 C 58.769531 19.558594 58.683594 19.222656 58.75 18.851562 C 56.464844 17.953125 53.964844 17.535156 51.25 17.59375 C 50.792969 17.453125 50.460938 17.203125 50.25 16.839844 C 60.3125 16.179688 70.3125 16.179688 80.25 16.839844 Z M 80.25 16.839844 "/>
<path style=" stroke:none;fill-rule:evenodd;fill:rgb(0%,47.45098%,61.568627%);fill-opacity:1;" d="M 29.25 10.304688 C 30.296875 10.578125 31.296875 10.996094 32.25 11.5625 C 32.917969 11.898438 32.917969 12.230469 32.25 12.566406 C 34.082031 12.734375 35.917969 12.902344 37.75 13.070312 C 38.71875 13.527344 39.21875 14.28125 39.25 15.332031 C 38.664062 15.222656 38.164062 15.390625 37.75 15.835938 C 38.6875 15.628906 39.519531 16.050781 40.25 17.089844 C 39.695312 18.035156 39.195312 18.957031 38.75 19.855469 C 38.730469 19.3125 38.5625 18.808594 38.25 18.347656 C 37.425781 18.023438 36.757812 17.519531 36.25 16.839844 C 35.675781 16.222656 35.089844 16.222656 34.5 16.839844 C 33.574219 15.96875 33.65625 15.382812 34.75 15.082031 C 33.421875 13.910156 31.921875 13.074219 30.25 12.566406 C 30.582031 12.398438 30.917969 12.230469 31.25 12.0625 C 30.453125 11.585938 29.785156 11 29.25 10.304688 Z M 29.25 10.304688 "/>
<path style=" stroke:none;fill-rule:evenodd;fill:rgb(5.490196%,72.54902%,83.529412%);fill-opacity:1;" d="M 31.25 7.792969 C 29.953125 8.632812 28.453125 9.222656 26.75 9.550781 C 27.578125 9.855469 28.410156 10.109375 29.25 10.304688 C 29.785156 11 30.453125 11.585938 31.25 12.0625 C 30.917969 12.230469 30.582031 12.398438 30.25 12.566406 C 31.921875 13.074219 33.421875 13.910156 34.75 15.082031 C 33.65625 15.382812 33.574219 15.96875 34.5 16.839844 C 35.089844 16.222656 35.675781 16.222656 36.25 16.839844 C 36.757812 17.519531 37.425781 18.023438 38.25 18.347656 C 38.5625 18.808594 38.730469 19.3125 38.75 19.855469 C 37.75 20.191406 36.75 20.527344 35.75 20.859375 C 34.902344 20.941406 34.066406 20.859375 33.25 20.609375 C 32.316406 19.585938 31.316406 18.664062 30.25 17.84375 C 28.710938 16.855469 27.292969 15.683594 26 14.328125 C 24.777344 12.257812 23.359375 10.332031 21.75 8.546875 C 24.816406 7.179688 27.980469 6.929688 31.25 7.792969 Z M 31.25 7.792969 "/>
<path style=" stroke:none;fill-rule:evenodd;fill:rgb(1.176471%,16.078431%,23.921569%);fill-opacity:1;" d="M 51.75 5.277344 C 52.789062 7.53125 54.539062 9.039062 57 9.800781 C 57.246094 9.152344 57.328125 8.480469 57.25 7.792969 C 57.582031 7.792969 57.917969 7.792969 58.25 7.792969 C 58.347656 9.597656 59.179688 10.941406 60.75 11.8125 C 61.082031 10.976562 61.417969 10.136719 61.75 9.300781 C 63.167969 10.550781 64.167969 12.058594 64.75 13.824219 C 60.160156 13.988281 55.660156 13.820312 51.25 13.320312 C 52.925781 13.402344 54.589844 13.320312 56.25 13.070312 C 56.476562 12.863281 56.644531 12.609375 56.75 12.316406 C 55.027344 10.078125 53.027344 8.234375 50.75 6.785156 C 51.082031 6.285156 51.417969 5.78125 51.75 5.277344 Z M 51.75 5.277344 "/>
<path style=" stroke:none;fill-rule:evenodd;fill:rgb(0.784314%,15.294118%,24.705882%);fill-opacity:1;" d="M 41.75 6.285156 C 42.628906 6.570312 43.460938 6.988281 44.25 7.539062 C 45.679688 8.976562 47.097656 10.402344 48.5 11.8125 C 48.890625 14.355469 47.808594 15.863281 45.25 16.335938 C 44.792969 16.316406 44.457031 16.148438 44.25 15.835938 C 44.621094 15.898438 44.953125 15.816406 45.25 15.582031 C 42.59375 14.054688 42.925781 13.46875 46.25 13.824219 C 45.394531 10.929688 43.894531 8.417969 41.75 6.285156 Z M 41.75 6.285156 "/>
<path style=" stroke:none;fill-rule:evenodd;fill:rgb(70.196078%,38.039216%,25.098039%);fill-opacity:1;" d="M 81.25 10.304688 C 82.328125 11.371094 82.828125 12.710938 82.75 14.328125 C 78.589844 14.039062 74.421875 13.785156 70.25 13.570312 C 69.886719 12.558594 69.386719 11.636719 68.75 10.808594 C 72.128906 10.75 75.378906 10.078125 78.5 8.796875 C 79.597656 8.980469 80.511719 9.480469 81.25 10.304688 Z M 81.25 10.304688 "/>
<path style=" stroke:none;fill-rule:evenodd;fill:rgb(2.745098%,34.117647%,44.313725%);fill-opacity:1;" d="M 64.75 13.824219 C 64.167969 12.058594 63.167969 10.550781 61.75 9.300781 C 61.417969 10.136719 61.082031 10.976562 60.75 11.8125 C 59.179688 10.941406 58.347656 9.597656 58.25 7.792969 C 58.519531 6.980469 58.683594 6.140625 58.75 5.277344 C 61.289062 6.058594 63.371094 7.566406 65 9.800781 C 65.996094 10.96875 66.578125 12.308594 66.75 13.824219 C 66.082031 13.824219 65.417969 13.824219 64.75 13.824219 Z M 64.75 13.824219 "/>
<path style=" stroke:none;fill-rule:evenodd;fill:rgb(0%,42.745098%,57.254902%);fill-opacity:1;" d="M 38.25 4.777344 C 39.476562 5.140625 40.644531 5.644531 41.75 6.285156 C 43.894531 8.417969 45.394531 10.929688 46.25 13.824219 C 42.925781 13.46875 42.59375 14.054688 45.25 15.582031 C 44.953125 15.816406 44.621094 15.898438 44.25 15.835938 C 43.28125 15.527344 42.449219 15.023438 41.75 14.328125 C 42.144531 14.183594 42.476562 13.933594 42.75 13.570312 C 40.898438 10.773438 39.398438 7.839844 38.25 4.777344 Z M 38.25 4.777344 "/>
<path style=" stroke:none;fill-rule:evenodd;fill:rgb(7.058824%,72.156863%,85.490196%);fill-opacity:1;" d="M 36.25 3.769531 C 36.835938 4.195312 37.503906 4.53125 38.25 4.777344 C 39.398438 7.839844 40.898438 10.773438 42.75 13.570312 C 42.476562 13.933594 42.144531 14.183594 41.75 14.328125 C 41.304688 14.019531 40.804688 13.851562 40.25 13.824219 C 39.386719 12.960938 38.386719 12.289062 37.25 11.8125 C 35.402344 9.359375 33.734375 6.761719 32.25 4.019531 C 33.574219 3.769531 34.90625 3.6875 36.25 3.769531 Z M 36.25 3.769531 "/>
<path style=" stroke:none;fill-rule:evenodd;fill:rgb(0.784314%,29.019608%,40.392157%);fill-opacity:1;" d="M 50.75 6.785156 C 53.027344 8.234375 55.027344 10.078125 56.75 12.316406 C 56.644531 12.609375 56.476562 12.863281 56.25 13.070312 C 54.589844 13.320312 52.925781 13.402344 51.25 13.320312 C 48.953125 10.257812 46.371094 7.410156 43.5 4.777344 C 43.257812 4.300781 43.175781 3.796875 43.25 3.265625 C 46.195312 3.492188 48.695312 4.664062 50.75 6.785156 Z M 50.75 6.785156 "/>
<path style=" stroke:none;fill-rule:evenodd;fill:rgb(92.54902%,80.392157%,63.137255%);fill-opacity:1;" d="M 81.25 10.304688 C 80.511719 9.480469 79.597656 8.980469 78.5 8.796875 C 75.378906 10.078125 72.128906 10.75 68.75 10.808594 C 69.316406 8.160156 70.984375 6.652344 73.75 6.285156 C 75.457031 6.542969 77.121094 6.964844 78.75 7.539062 C 80.039062 8.082031 80.871094 9.003906 81.25 10.304688 Z M 81.25 10.304688 "/>
<path style=" stroke:none;fill-rule:evenodd;fill:rgb(0.784314%,33.333333%,44.705882%);fill-opacity:1;" d="M 57.25 7.792969 C 57.328125 8.480469 57.246094 9.152344 57 9.800781 C 54.539062 9.039062 52.789062 7.53125 51.75 5.277344 C 52.101562 4.351562 52.769531 4.101562 53.75 4.523438 C 55.164062 5.363281 56.332031 6.449219 57.25 7.792969 Z M 57.25 7.792969 "/>
<path style=" stroke:none;fill-rule:evenodd;fill:rgb(2.745098%,78.431373%,91.372549%);fill-opacity:1;" d="M 22.75 16.839844 C 23.382812 17.929688 23.382812 19.019531 22.75 20.105469 C 24.738281 20.722656 26.738281 21.3125 28.75 21.867188 C 29.214844 22.464844 29.382812 23.132812 29.25 23.878906 C 28.917969 23.878906 28.75 24.042969 28.75 24.378906 C 28.804688 24.691406 28.972656 24.941406 29.25 25.132812 C 27.738281 25.199219 26.402344 25.703125 25.25 26.640625 C 27.042969 27.667969 28.792969 28.757812 30.5 29.910156 C 30.515625 29.066406 30.601562 28.3125 30.75 27.648438 C 30.417969 27.480469 30.082031 27.3125 29.75 27.144531 C 32.019531 26.882812 33.019531 27.972656 32.75 30.410156 C 28.808594 31.035156 24.976562 32.042969 21.25 33.429688 C 20.382812 32.457031 19.464844 32.289062 18.5 32.925781 C 18.25 32.671875 18 32.421875 17.75 32.171875 C 18.542969 31.738281 19.375 31.402344 20.25 31.164062 C 20.019531 30.957031 19.855469 30.707031 19.75 30.410156 C 17.824219 29.996094 15.824219 29.410156 13.75 28.652344 C 13.183594 28.078125 12.683594 27.492188 12.25 26.894531 C 14.933594 25.59375 17.683594 25.59375 20.5 26.894531 C 20.917969 26.726562 21.332031 26.558594 21.75 26.390625 C 18.1875 24.769531 15.1875 22.421875 12.75 19.351562 C 13.839844 18.21875 15.171875 17.464844 16.75 17.089844 C 18.742188 16.839844 20.742188 16.757812 22.75 16.839844 Z M 22.75 16.839844 "/>
<path style=" stroke:none;fill-rule:evenodd;fill:rgb(0.392157%,47.843137%,62.352941%);fill-opacity:1;" d="M 28.75 24.378906 C 29.75 24.546875 30.75 24.714844 31.75 24.882812 C 32.609375 24.945312 33.441406 25.113281 34.25 25.386719 C 39.300781 29.648438 38.632812 32.664062 32.25 34.433594 C 29.9375 34.261719 27.773438 34.59375 25.75 35.4375 C 23.863281 35.234375 22.03125 34.816406 20.25 34.183594 C 20.523438 33.820312 20.855469 33.570312 21.25 33.429688 C 24.976562 32.042969 28.808594 31.035156 32.75 30.410156 C 33.019531 27.972656 32.019531 26.882812 29.75 27.144531 C 30.082031 27.3125 30.417969 27.480469 30.75 27.648438 C 30.601562 28.3125 30.515625 29.066406 30.5 29.910156 C 28.792969 28.757812 27.042969 27.667969 25.25 26.640625 C 26.402344 25.703125 27.738281 25.199219 29.25 25.132812 C 28.972656 24.941406 28.804688 24.691406 28.75 24.378906 Z M 28.75 24.378906 "/>
<path style=" stroke:none;fill-rule:evenodd;fill:rgb(52.54902%,50.980392%,52.941176%);fill-opacity:1;" d="M 81.75 20.859375 C 82.789062 20.921875 83.539062 21.425781 84 22.367188 C 84.574219 23.824219 84.824219 25.332031 84.75 26.894531 C 84.390625 27.101562 84.140625 27.4375 84 27.898438 C 82.90625 25.6875 82.15625 23.339844 81.75 20.859375 Z M 81.75 20.859375 "/>
<use xlink:href="#surface8" mask="url(#mask1)"/>
<path style=" stroke:none;fill-rule:evenodd;fill:rgb(3.529412%,35.294118%,45.098039%);fill-opacity:1;" d="M 8.75 28.902344 C 9.507812 29.359375 10.34375 29.78125 11.25 30.160156 C 9.726562 30.34375 8.226562 30.59375 6.75 30.914062 C 7.25 30.078125 7.917969 29.40625 8.75 28.902344 Z M 8.75 28.902344 "/>
<path style=" stroke:none;fill-rule:evenodd;fill:rgb(88.235294%,60%,37.254902%);fill-opacity:1;" d="M 90.75 27.898438 C 92.125 27.785156 93.457031 27.953125 94.75 28.402344 C 95.214844 29 95.382812 29.667969 95.25 30.410156 C 93.75 30.410156 92.25 30.410156 90.75 30.410156 C 90.75 29.574219 90.75 28.734375 90.75 27.898438 Z M 90.75 27.898438 "/>
<path style=" stroke:none;fill-rule:evenodd;fill:rgb(64.705882%,46.27451%,33.333333%);fill-opacity:1;" d="M 96.25 28.902344 C 97.132812 28.398438 97.800781 28.734375 98.25 29.910156 C 97.835938 30.355469 97.335938 30.523438 96.75 30.410156 C 96.867188 29.761719 96.703125 29.261719 96.25 28.902344 Z M 96.25 28.902344 "/>
<path style=" stroke:none;fill-rule:evenodd;fill:rgb(3.921569%,80%,92.54902%);fill-opacity:1;" d="M 12.25 26.894531 C 12.683594 27.492188 13.183594 28.078125 13.75 28.652344 C 15.824219 29.410156 17.824219 29.996094 19.75 30.410156 C 19.855469 30.707031 20.019531 30.957031 20.25 31.164062 C 19.375 31.402344 18.542969 31.738281 17.75 32.171875 C 18 32.421875 18.25 32.671875 18.5 32.925781 C 19.464844 32.289062 20.382812 32.457031 21.25 33.429688 C 20.855469 33.570312 20.523438 33.820312 20.25 34.183594 C 22.03125 34.816406 23.863281 35.234375 25.75 35.4375 C 26.082031 35.4375 26.417969 35.4375 26.75 35.4375 C 25.28125 36.347656 23.78125 37.269531 22.25 38.203125 C 22.546875 38.4375 22.878906 38.519531 23.25 38.453125 C 23.25 38.621094 23.25 38.789062 23.25 38.957031 C 21.722656 39.175781 20.640625 40.011719 20 41.46875 C 19.832031 40.800781 19.667969 40.128906 19.5 39.460938 C 18.648438 40.386719 18.730469 41.308594 19.75 42.222656 C 19.582031 42.308594 19.417969 42.390625 19.25 42.476562 C 18.65625 41.699219 18.15625 40.859375 17.75 39.960938 C 18.007812 40.59375 17.675781 41.097656 16.75 41.46875 C 16.234375 40.695312 15.566406 40.445312 14.75 40.714844 C 14.199219 41.101562 14.199219 41.523438 14.75 41.972656 C 10.230469 40.449219 6.730469 37.601562 4.25 33.429688 C 4.941406 32.398438 5.773438 31.558594 6.75 30.914062 C 8.226562 30.59375 9.726562 30.34375 11.25 30.160156 C 10.34375 29.78125 9.507812 29.359375 8.75 28.902344 C 9.6875 27.847656 10.851562 27.175781 12.25 26.894531 Z M 12.25 26.894531 "/>
<path style=" stroke:none;fill-rule:evenodd;fill:rgb(0.392157%,17.647059%,28.627451%);fill-opacity:1;" d="M 34.25 25.386719 C 35.28125 25.480469 36.28125 25.730469 37.25 26.140625 C 39.765625 28.609375 40.597656 31.539062 39.75 34.9375 C 37.265625 34.601562 34.765625 34.433594 32.25 34.433594 C 38.632812 32.664062 39.300781 29.648438 34.25 25.386719 Z M 34.25 25.386719 "/>
<path style=" stroke:none;fill-rule:evenodd;fill:rgb(16.470588%,15.686275%,21.960784%);fill-opacity:1;" d="M 76.75 18.851562 C 78.566406 19.234375 80.234375 19.902344 81.75 20.859375 C 82.15625 23.339844 82.90625 25.6875 84 27.898438 C 84.140625 27.4375 84.390625 27.101562 84.75 26.894531 C 85.046875 27.53125 85.296875 28.199219 85.5 28.902344 C 86.011719 27.242188 86.429688 25.570312 86.75 23.878906 C 86.878906 26.738281 86.878906 29.585938 86.75 32.421875 C 86.75 33.261719 86.75 34.097656 86.75 34.9375 C 87.707031 35.078125 88.539062 34.910156 89.25 34.433594 C 89.417969 34.433594 89.582031 34.433594 89.75 34.433594 C 90.855469 38.996094 91.519531 43.6875 91.75 48.507812 C 91.5625 52.550781 91.148438 56.570312 90.5 60.570312 C 90.382812 61.195312 90.132812 61.695312 89.75 62.082031 C 89.75 61.410156 89.417969 61.074219 88.75 61.074219 C 87.65625 60.328125 86.992188 60.664062 86.75 62.082031 C 87.328125 64.578125 87.828125 67.09375 88.25 69.621094 C 88.246094 70.398438 88.078125 71.066406 87.75 71.632812 C 87.125 73.132812 86.292969 74.554688 85.25 75.902344 C 84.40625 75.835938 83.570312 75.585938 82.75 75.148438 C 84.480469 73.453125 84.980469 71.441406 84.25 69.117188 C 83.855469 69.757812 83.355469 70.257812 82.75 70.625 C 83.121094 66.753906 82.457031 62.984375 80.75 59.316406 C 80.863281 59.113281 81.03125 59.03125 81.25 59.0625 C 83.214844 58.996094 84.882812 58.328125 86.25 57.054688 C 86.605469 57.675781 87.105469 57.925781 87.75 57.808594 C 88.960938 55.726562 89.460938 53.464844 89.25 51.019531 C 89.238281 49.46875 88.90625 48.128906 88.25 47 C 88.082031 47 87.917969 47 87.75 47 C 87.75 46.832031 87.75 46.664062 87.75 46.496094 C 88.304688 45.769531 88.390625 44.933594 88 43.984375 C 86.738281 41.03125 85.15625 38.265625 83.25 35.691406 C 82.253906 35.382812 81.417969 35.632812 80.75 36.445312 C 82.148438 32.722656 82.566406 28.867188 82 24.882812 C 80.65625 22.832031 78.90625 21.828125 76.75 21.867188 C 76.648438 21.089844 76.316406 20.417969 75.75 19.855469 C 76.121094 19.511719 76.453125 19.179688 76.75 18.851562 Z M 76.75 18.851562 "/>
<path style=" stroke:none;fill-rule:evenodd;fill:rgb(93.333333%,65.490196%,35.686275%);fill-opacity:1;" d="M 97.25 32.925781 C 99.746094 32.0625 101.078125 33.066406 101.25 35.941406 C 100.289062 36.515625 99.289062 36.597656 98.25 36.191406 C 97.941406 35.046875 97.609375 33.957031 97.25 32.925781 Z M 97.25 32.925781 "/>
<path style=" stroke:none;fill-rule:evenodd;fill:rgb(49.411765%,44.313725%,44.705882%);fill-opacity:1;" d="M 89.75 34.433594 C 89.582031 34.433594 89.417969 34.433594 89.25 34.433594 C 88.8125 34.5 88.476562 34.332031 88.25 33.929688 C 89.167969 32.527344 89.667969 32.695312 89.75 34.433594 Z M 89.75 34.433594 "/>
<path style=" stroke:none;fill-rule:evenodd;fill:rgb(95.686275%,67.45098%,38.039216%);fill-opacity:1;" d="M 92.25 32.421875 C 95.738281 31.644531 97.238281 32.984375 96.75 36.445312 C 95.25 36.445312 93.75 36.445312 92.25 36.445312 C 92.25 35.101562 92.25 33.761719 92.25 32.421875 Z M 92.25 32.421875 "/>
<path style=" stroke:none;fill-rule:evenodd;fill:rgb(16.078431%,16.862745%,24.705882%);fill-opacity:1;" d="M 64.75 17.84375 C 64.917969 18.179688 65.082031 18.515625 65.25 18.851562 C 62.472656 19.714844 60.554688 21.558594 59.5 24.378906 C 57.980469 35.414062 62.730469 40.941406 73.75 40.96875 C 73.859375 42.261719 74.527344 42.683594 75.75 42.222656 C 76.917969 41.386719 78.082031 40.550781 79.25 39.710938 C 80.070312 39.144531 80.570312 38.390625 80.75 37.449219 C 81.414062 36.71875 81.828125 36.886719 82 37.953125 C 82.265625 39 82.015625 39.921875 81.25 40.714844 C 82.050781 41.28125 82.550781 42.035156 82.75 42.980469 C 79.09375 42.644531 76.59375 44.152344 75.25 47.503906 C 75.46875 48.867188 76.136719 49.957031 77.25 50.769531 C 81.628906 52.425781 85.292969 51.503906 88.25 48.003906 C 88.523438 51.253906 87.859375 54.269531 86.25 57.054688 C 84.246094 57.722656 82.578125 57.21875 81.25 55.546875 C 80.855469 54.738281 80.191406 54.402344 79.25 54.539062 C 77.703125 54.015625 76.203125 53.34375 74.75 52.53125 C 74.445312 52.589844 74.28125 52.757812 74.25 53.03125 C 71.550781 52.914062 68.886719 53.082031 66.25 53.535156 C 63.8125 52.808594 63.980469 52.054688 66.75 51.273438 C 65.96875 50.105469 65.132812 49.015625 64.25 48.003906 C 64.25 47.503906 64.25 47 64.25 46.496094 C 64.253906 45.589844 64.003906 44.75 63.5 43.984375 C 61.945312 43.394531 61.863281 43.644531 63.25 44.738281 C 62.582031 44.90625 61.917969 45.074219 61.25 45.242188 C 61.71875 46.4375 61.882812 47.695312 61.75 49.011719 C 60.9375 49.082031 60.355469 48.746094 60 48.003906 C 59.832031 48.339844 59.667969 48.675781 59.5 49.011719 C 58.957031 48.425781 58.542969 47.753906 58.25 47 C 58.90625 43.917969 58.90625 40.902344 58.25 37.953125 C 58.121094 36.394531 57.789062 34.886719 57.25 33.429688 C 57.304688 30.832031 56.472656 28.570312 54.75 26.640625 C 56.714844 25.933594 57.464844 24.511719 57 22.367188 C 55.992188 23.207031 55.324219 24.378906 55 25.886719 C 54.339844 25.738281 53.589844 25.652344 52.75 25.636719 C 53.082031 25.46875 53.417969 25.300781 53.75 25.132812 C 53 24.714844 52.417969 24.128906 52 23.375 C 51.332031 24.042969 50.667969 24.714844 50 25.386719 C 49.667969 24.714844 49.667969 24.042969 50 23.375 C 50.167969 23.542969 50.332031 23.710938 50.5 23.878906 C 50.84375 23.230469 50.757812 22.644531 50.25 22.117188 C 51.21875 21.707031 52.21875 21.457031 53.25 21.363281 C 53.171875 22.054688 53.253906 22.722656 53.5 23.375 C 53.980469 22.511719 54.3125 21.671875 54.5 20.859375 C 53.335938 20.671875 52.421875 20.167969 51.75 19.351562 C 53.984375 18.855469 56.320312 18.691406 58.75 18.851562 C 58.683594 19.222656 58.769531 19.558594 59 19.855469 C 60.796875 18.839844 62.710938 18.167969 64.75 17.84375 Z M 64.75 17.84375 "/>
<path style=" stroke:none;fill-rule:evenodd;fill:rgb(1.960784%,77.647059%,91.372549%);fill-opacity:1;" d="M 23.25 38.957031 C 23.25 38.789062 23.25 38.621094 23.25 38.453125 C 26.09375 38.578125 28.925781 38.828125 31.75 39.207031 C 36.855469 41.238281 37.023438 43.582031 32.25 46.246094 C 29.582031 46.414062 26.917969 46.582031 24.25 46.75 C 26.273438 47.839844 28.441406 48.261719 30.75 48.003906 C 31.246094 47.917969 31.578125 48.085938 31.75 48.507812 C 32.558594 48.984375 33.226562 49.65625 33.75 50.519531 C 32.1875 51.835938 30.6875 53.261719 29.25 54.792969 C 26.433594 55.277344 23.601562 55.613281 20.75 55.796875 C 22.417969 56.46875 24.082031 57.136719 25.75 57.808594 C 24.3125 58.289062 22.976562 58.957031 21.75 59.816406 C 24.957031 60.242188 28.125 60.828125 31.25 61.578125 C 32.21875 62.453125 32.386719 63.460938 31.75 64.59375 C 29.910156 66.523438 27.742188 67.949219 25.25 68.867188 C 26.425781 69.292969 27.59375 69.710938 28.75 70.121094 C 30.558594 70.496094 32.394531 70.664062 34.25 70.625 C 34.292969 71.125 34.125 71.546875 33.75 71.882812 C 29.707031 73.007812 25.707031 74.183594 21.75 75.402344 C 20.257812 75.652344 18.757812 75.734375 17.25 75.652344 C 15.574219 75.398438 14.074219 74.726562 12.75 73.640625 C 13.210938 72.507812 14.042969 72.003906 15.25 72.132812 C 16.089844 71.9375 16.921875 71.683594 17.75 71.378906 C 16.59375 71.128906 15.429688 71.046875 14.25 71.128906 C 10.59375 70.714844 7.59375 69.121094 5.25 66.351562 C 7.523438 62.222656 10.855469 59.375 15.25 57.808594 C 14.632812 57.691406 14.132812 57.441406 13.75 57.054688 C 15.238281 57.113281 16.65625 57.449219 18 58.058594 C 18.242188 57.582031 18.324219 57.078125 18.25 56.550781 C 17.320312 56.570312 16.652344 56.152344 16.25 55.292969 C 15.738281 53.921875 15.738281 52.414062 16.25 50.769531 C 15.9375 50.394531 15.6875 49.972656 15.5 49.511719 C 15.332031 49.679688 15.167969 49.847656 15 50.015625 C 14.667969 49.179688 14.667969 48.339844 15 47.503906 C 16.371094 47.300781 17.785156 46.800781 19.25 45.996094 C 18.65625 46.089844 17.988281 45.839844 17.25 45.242188 C 17.917969 45.074219 18.582031 44.90625 19.25 44.738281 C 18.699219 43.585938 19.117188 42.832031 20.5 42.476562 C 20.859375 42.953125 21.277344 43.039062 21.75 42.726562 C 21.46875 41.941406 21.804688 41.269531 22.75 40.714844 C 22.328125 39.878906 22.578125 39.796875 23.5 40.464844 C 24.046875 39.726562 24.796875 39.308594 25.75 39.207031 C 24.933594 38.960938 24.097656 38.875 23.25 38.957031 Z M 23.25 38.957031 "/>
<path style=" stroke:none;fill-rule:evenodd;fill:rgb(30.980392%,27.843137%,29.803922%);fill-opacity:1;" d="M 76.75 18.851562 C 76.453125 19.179688 76.121094 19.511719 75.75 19.855469 C 76.316406 20.417969 76.648438 21.089844 76.75 21.867188 C 78.90625 21.828125 80.65625 22.832031 82 24.882812 C 82.566406 28.867188 82.148438 32.722656 80.75 36.445312 C 80.75 36.777344 80.75 37.113281 80.75 37.449219 C 79.691406 38.070312 78.691406 38.824219 77.75 39.710938 C 76.453125 40.28125 75.117188 40.699219 73.75 40.96875 C 62.730469 40.941406 57.980469 35.414062 59.5 24.378906 C 60.554688 21.558594 62.472656 19.714844 65.25 18.851562 C 69.085938 18.199219 72.921875 18.199219 76.75 18.851562 Z M 76.75 18.851562 "/>
<path style=" stroke:none;fill-rule:evenodd;fill:rgb(0.392157%,0.392157%,1.568627%);fill-opacity:1;" d="M 76.75 21.867188 C 80.6875 25.941406 81.273438 30.464844 78.5 35.4375 C 73.464844 40.101562 68.464844 40.101562 63.5 35.4375 C 59.921875 28.308594 61.839844 23.367188 69.25 20.609375 C 71.898438 20.167969 74.398438 20.585938 76.75 21.867188 Z M 76.75 21.867188 "/>
<path style=" stroke:none;fill-rule:evenodd;fill:rgb(6.27451%,80%,92.941176%);fill-opacity:1;" d="M 23.25 38.957031 C 24.097656 38.875 24.933594 38.960938 25.75 39.207031 C 24.796875 39.308594 24.046875 39.726562 23.5 40.464844 C 22.578125 39.796875 22.328125 39.878906 22.75 40.714844 C 21.804688 41.269531 21.46875 41.941406 21.75 42.726562 C 21.277344 43.039062 20.859375 42.953125 20.5 42.476562 C 19.117188 42.832031 18.699219 43.585938 19.25 44.738281 C 18.582031 44.90625 17.917969 45.074219 17.25 45.242188 C 17.988281 45.839844 18.65625 46.089844 19.25 45.996094 C 17.785156 46.800781 16.371094 47.300781 15 47.503906 C 14.667969 48.339844 14.667969 49.179688 15 50.015625 C 15.167969 49.847656 15.332031 49.679688 15.5 49.511719 C 15.6875 49.972656 15.9375 50.394531 16.25 50.769531 C 15.738281 52.414062 15.738281 53.921875 16.25 55.292969 C 16.652344 56.152344 17.320312 56.570312 18.25 56.550781 C 18.324219 57.078125 18.242188 57.582031 18 58.058594 C 16.65625 57.449219 15.238281 57.113281 13.75 57.054688 C 9.28125 56.082031 5.949219 53.570312 3.75 49.511719 C 3.859375 48.789062 4.109375 48.121094 4.5 47.503906 C 7.179688 44.183594 10.597656 42.339844 14.75 41.972656 C 14.199219 41.523438 14.199219 41.101562 14.75 40.714844 C 15.566406 40.445312 16.234375 40.695312 16.75 41.46875 C 17.675781 41.097656 18.007812 40.59375 17.75 39.960938 C 18.15625 40.859375 18.65625 41.699219 19.25 42.476562 C 19.417969 42.390625 19.582031 42.308594 19.75 42.222656 C 18.730469 41.308594 18.648438 40.386719 19.5 39.460938 C 19.667969 40.128906 19.832031 40.800781 20 41.46875 C 20.640625 40.011719 21.722656 39.175781 23.25 38.957031 Z M 23.25 38.957031 "/>
<path style=" stroke:none;fill-rule:evenodd;fill:rgb(97.254902%,70.980392%,41.568627%);fill-opacity:1;" d="M 98.25 37.953125 C 99.417969 37.953125 100.582031 37.953125 101.75 37.953125 C 101.75 39.796875 101.75 41.636719 101.75 43.480469 C 100.75 43.480469 99.75 43.480469 98.75 43.480469 C 98.839844 41.605469 98.671875 39.761719 98.25 37.953125 Z M 98.25 37.953125 "/>
<path style=" stroke:none;fill-rule:evenodd;fill:rgb(80%,78.431373%,78.039216%);fill-opacity:1;" d="M 80.75 37.449219 C 80.570312 38.390625 80.070312 39.144531 79.25 39.710938 C 78.082031 40.550781 76.917969 41.386719 75.75 42.222656 C 74.527344 42.683594 73.859375 42.261719 73.75 40.96875 C 75.117188 40.699219 76.453125 40.28125 77.75 39.710938 C 78.691406 38.824219 79.691406 38.070312 80.75 37.449219 Z M 80.75 37.449219 "/>
<path style=" stroke:none;fill-rule:evenodd;fill:rgb(1.568627%,23.137255%,34.901961%);fill-opacity:1;" d="M 33.25 36.445312 C 35.679688 36.996094 38.011719 37.832031 40.25 38.957031 C 41.835938 41.164062 42.085938 43.507812 41 45.996094 C 40.546875 46.597656 39.964844 47.015625 39.25 47.25 C 36.917969 47.417969 34.582031 47.585938 32.25 47.753906 C 33.355469 47.851562 34.355469 48.101562 35.25 48.507812 C 34.082031 48.507812 32.917969 48.507812 31.75 48.507812 C 31.578125 48.085938 31.246094 47.917969 30.75 48.003906 C 30.804688 47.695312 30.972656 47.445312 31.25 47.25 C 33.582031 47.082031 35.917969 46.917969 38.25 46.75 C 39.941406 45.054688 40.191406 43.125 39 40.96875 C 37.273438 39.148438 35.359375 37.636719 33.25 36.445312 Z M 33.25 36.445312 "/>
<path style=" stroke:none;fill-rule:evenodd;fill:rgb(51.764706%,49.803922%,52.156863%);fill-opacity:1;" d="M 87.75 46.496094 C 87.75 46.328125 87.75 46.164062 87.75 45.996094 C 87.765625 44.949219 87.429688 44.027344 86.75 43.230469 C 85.425781 42.980469 84.09375 42.894531 82.75 42.980469 C 82.550781 42.035156 82.050781 41.28125 81.25 40.714844 C 82.015625 39.921875 82.265625 39 82 37.953125 C 81.828125 36.886719 81.414062 36.71875 80.75 37.449219 C 80.75 37.113281 80.75 36.777344 80.75 36.445312 C 81.417969 35.632812 82.253906 35.382812 83.25 35.691406 C 85.15625 38.265625 86.738281 41.03125 88 43.984375 C 88.390625 44.933594 88.304688 45.769531 87.75 46.496094 Z M 87.75 46.496094 "/>
<path style=" stroke:none;fill-rule:evenodd;fill:rgb(94.509804%,75.686275%,49.019608%);fill-opacity:1;" d="M 92.75 37.953125 C 94.25 37.953125 95.75 37.953125 97.25 37.953125 C 97.25 39.796875 97.25 41.636719 97.25 43.480469 C 95.917969 43.480469 94.582031 43.480469 93.25 43.480469 C 93.289062 41.613281 93.121094 39.769531 92.75 37.953125 Z M 92.75 37.953125 "/>
<path style=" stroke:none;fill-rule:evenodd;fill:rgb(0.392157%,46.666667%,61.568627%);fill-opacity:1;" d="M 26.75 35.4375 C 28.917969 35.773438 31.082031 36.109375 33.25 36.445312 C 35.359375 37.636719 37.273438 39.148438 39 40.96875 C 40.191406 43.125 39.941406 45.054688 38.25 46.75 C 35.917969 46.917969 33.582031 47.082031 31.25 47.25 C 30.972656 47.445312 30.804688 47.695312 30.75 48.003906 C 28.441406 48.261719 26.273438 47.839844 24.25 46.75 C 26.917969 46.582031 29.582031 46.414062 32.25 46.246094 C 37.023438 43.582031 36.855469 41.238281 31.75 39.207031 C 28.925781 38.828125 26.09375 38.578125 23.25 38.453125 C 22.878906 38.519531 22.546875 38.4375 22.25 38.203125 C 23.78125 37.269531 25.28125 36.347656 26.75 35.4375 Z M 26.75 35.4375 "/>
<path style=" stroke:none;fill-rule:evenodd;fill:rgb(1.960784%,1.960784%,3.137255%);fill-opacity:1;" d="M 82.75 42.980469 C 84.09375 42.894531 85.425781 42.980469 86.75 43.230469 C 87.429688 44.027344 87.765625 44.949219 87.75 45.996094 C 85.90625 46.5 84.070312 47.085938 82.25 47.753906 C 83.917969 48.089844 85.582031 48.089844 87.25 47.753906 C 87.527344 47.5625 87.695312 47.308594 87.75 47 C 87.917969 47 88.082031 47 88.25 47 C 88.25 47.335938 88.25 47.671875 88.25 48.003906 C 85.292969 51.503906 81.628906 52.425781 77.25 50.769531 C 76.136719 49.957031 75.46875 48.867188 75.25 47.503906 C 76.59375 44.152344 79.09375 42.644531 82.75 42.980469 Z M 82.75 42.980469 "/>
<path style=" stroke:none;fill-rule:evenodd;fill:rgb(68.627451%,62.352941%,63.921569%);fill-opacity:1;" d="M 57.25 33.429688 C 57.789062 34.886719 58.121094 36.394531 58.25 37.953125 C 58.414062 44.84375 57.414062 51.542969 55.25 58.058594 C 53.980469 56.519531 53.398438 54.675781 53.5 52.53125 C 53.1875 54.34375 52.269531 55.683594 50.75 56.550781 C 50.667969 52.023438 50.75 47.5 51 42.980469 C 51.207031 42.75 51.457031 42.582031 51.75 42.476562 C 52.261719 43.179688 52.761719 43.851562 53.25 44.488281 C 53.386719 45.398438 53.71875 46.234375 54.25 47 C 55.1875 44.488281 55.6875 41.890625 55.75 39.207031 C 55.199219 35.433594 54.78125 31.664062 54.5 27.898438 C 55.664062 29.667969 56.578125 31.507812 57.25 33.429688 Z M 57.25 33.429688 "/>
<path style=" stroke:none;fill-rule:evenodd;fill:rgb(68.235294%,61.960784%,63.137255%);fill-opacity:1;" d="M 64.25 46.496094 C 64.25 47 64.25 47.503906 64.25 48.003906 C 63.769531 48.234375 63.355469 48.566406 63 49.011719 C 62.59375 47.804688 62.675781 46.628906 63.25 45.492188 C 63.589844 45.867188 63.925781 46.199219 64.25 46.496094 Z M 64.25 46.496094 "/>
<path style=" stroke:none;fill-rule:evenodd;fill:rgb(96.078431%,71.372549%,40.784314%);fill-opacity:1;" d="M 98.75 45.492188 C 99.917969 45.492188 101.082031 45.492188 102.25 45.492188 C 102.25 47.167969 102.25 48.84375 102.25 50.519531 C 101.082031 50.519531 99.917969 50.519531 98.75 50.519531 C 98.75 48.84375 98.75 47.167969 98.75 45.492188 Z M 98.75 45.492188 "/>
<path style=" stroke:none;fill-rule:evenodd;fill:rgb(75.294118%,77.254902%,78.431373%);fill-opacity:1;" d="M 87.75 45.996094 C 87.75 46.164062 87.75 46.328125 87.75 46.496094 C 87.75 46.664062 87.75 46.832031 87.75 47 C 87.695312 47.308594 87.527344 47.5625 87.25 47.753906 C 85.582031 48.089844 83.917969 48.089844 82.25 47.753906 C 84.070312 47.085938 85.90625 46.5 87.75 45.996094 Z M 87.75 45.996094 "/>
<path style=" stroke:none;fill-rule:evenodd;fill:rgb(92.941176%,71.372549%,37.254902%);fill-opacity:1;" d="M 97.75 48.507812 C 97.75 49.179688 97.75 49.847656 97.75 50.519531 C 96.417969 50.519531 95.082031 50.519531 93.75 50.519531 C 93.75 48.84375 93.75 47.167969 93.75 45.492188 C 95.082031 45.492188 96.417969 45.492188 97.75 45.492188 C 97.75 46.496094 97.75 47.503906 97.75 48.507812 Z M 97.75 48.507812 "/>
<path style=" stroke:none;fill-rule:evenodd;fill:rgb(23.137255%,13.333333%,7.45098%);fill-opacity:1;" d="M 97.25 52.53125 C 97.75 52.53125 98.25 52.53125 98.75 52.53125 C 98.902344 53.980469 98.738281 55.320312 98.25 56.550781 C 98.421875 55.554688 98.089844 54.882812 97.25 54.539062 C 97.25 53.871094 97.25 53.199219 97.25 52.53125 Z M 97.25 52.53125 "/>
<path style=" stroke:none;fill-rule:evenodd;fill:rgb(92.941176%,71.764706%,44.313725%);fill-opacity:1;" d="M 98.75 52.027344 C 99.75 52.027344 100.75 52.027344 101.75 52.027344 C 101.75 53.871094 101.75 55.710938 101.75 57.554688 C 101.105469 57.4375 100.605469 57.605469 100.25 58.058594 C 99.582031 58.058594 98.917969 58.058594 98.25 58.058594 C 98.25 57.554688 98.25 57.054688 98.25 56.550781 C 98.738281 55.320312 98.902344 53.980469 98.75 52.53125 C 98.75 52.363281 98.75 52.195312 98.75 52.027344 Z M 98.75 52.027344 "/>
<path style=" stroke:none;fill-rule:evenodd;fill:rgb(76.078431%,72.941176%,72.941176%);fill-opacity:1;" d="M 79.25 54.539062 C 79.1875 55.339844 78.851562 56.007812 78.25 56.550781 C 76.902344 55.875 75.570312 55.203125 74.25 54.539062 C 73.582031 54.039062 73.582031 53.535156 74.25 53.03125 C 74.28125 52.757812 74.445312 52.589844 74.75 52.53125 C 76.203125 53.34375 77.703125 54.015625 79.25 54.539062 Z M 79.25 54.539062 "/>
<path style=" stroke:none;fill-rule:evenodd;fill:rgb(36.862745%,38.431373%,45.882353%);fill-opacity:1;" d="M 88.25 47 C 88.90625 48.128906 89.238281 49.46875 89.25 51.019531 C 89.460938 53.464844 88.960938 55.726562 87.75 57.808594 C 87.105469 57.925781 86.605469 57.675781 86.25 57.054688 C 87.859375 54.269531 88.523438 51.253906 88.25 48.003906 C 88.25 47.671875 88.25 47.335938 88.25 47 Z M 88.25 47 "/>
<path style=" stroke:none;fill-rule:evenodd;fill:rgb(0.392157%,47.45098%,63.137255%);fill-opacity:1;" d="M 31.75 48.507812 C 32.917969 48.507812 34.082031 48.507812 35.25 48.507812 C 36.132812 48.992188 37.132812 49.160156 38.25 49.011719 C 38.453125 51.019531 38.039062 52.863281 37 54.539062 C 36.667969 53.871094 36.332031 53.871094 36 54.539062 C 35.691406 55.015625 35.773438 55.4375 36.25 55.796875 C 34.207031 57 32.039062 57.839844 29.75 58.308594 C 30.917969 58.476562 32.082031 58.644531 33.25 58.8125 C 33.082031 58.980469 32.917969 59.148438 32.75 59.316406 C 33.25 59.484375 33.75 59.652344 34.25 59.816406 C 33.914062 60.3125 33.914062 60.902344 34.25 61.578125 C 33.207031 60.449219 31.957031 59.613281 30.5 59.0625 C 30.25 59.230469 30 59.398438 29.75 59.566406 C 30.261719 60.246094 30.761719 60.917969 31.25 61.578125 C 28.125 60.828125 24.957031 60.242188 21.75 59.816406 C 22.976562 58.957031 24.3125 58.289062 25.75 57.808594 C 24.082031 57.136719 22.417969 56.46875 20.75 55.796875 C 23.601562 55.613281 26.433594 55.277344 29.25 54.792969 C 30.6875 53.261719 32.1875 51.835938 33.75 50.519531 C 33.226562 49.65625 32.558594 48.984375 31.75 48.507812 Z M 31.75 48.507812 "/>
<path style=" stroke:none;fill-rule:evenodd;fill:rgb(36.078431%,80%,87.058824%);fill-opacity:1;" d="M 34.25 51.019531 C 35.042969 51.273438 35.292969 51.777344 35 52.53125 C 33.816406 53.464844 32.566406 54.304688 31.25 55.042969 C 30.738281 54.789062 30.65625 54.457031 31 54.039062 C 32.378906 53.3125 33.460938 52.304688 34.25 51.019531 Z M 34.25 51.019531 "/>
<path style=" stroke:none;fill-rule:evenodd;fill:rgb(0.392157%,0.392157%,1.176471%);fill-opacity:1;" d="M 80.25 67.609375 C 77.542969 74.074219 72.878906 76 66.25 73.390625 C 62.070312 69.65625 61.152344 65.21875 63.5 60.070312 C 64.53125 58.945312 65.613281 57.941406 66.75 57.054688 C 75.75 54.703125 80.25 58.222656 80.25 67.609375 Z M 80.25 67.609375 "/>
<path style=" stroke:none;fill-rule:evenodd;fill:rgb(98.039216%,73.72549%,44.313725%);fill-opacity:1;" d="M 97.25 52.53125 C 97.25 53.199219 97.25 53.871094 97.25 54.539062 C 97.398438 55.664062 97.230469 56.667969 96.75 57.554688 C 95.582031 57.554688 94.417969 57.554688 93.25 57.554688 C 93.25 56.886719 93.25 56.214844 93.25 55.546875 C 93.25 54.539062 93.25 53.535156 93.25 52.53125 C 94.582031 52.53125 95.917969 52.53125 97.25 52.53125 Z M 97.25 52.53125 "/>
<path style=" stroke:none;fill-rule:evenodd;fill:rgb(17.647059%,18.039216%,25.098039%);fill-opacity:1;" d="M 58.25 37.953125 C 58.90625 40.902344 58.90625 43.917969 58.25 47 C 58.542969 47.753906 58.957031 48.425781 59.5 49.011719 C 59.667969 48.675781 59.832031 48.339844 60 48.003906 C 60.355469 48.746094 60.9375 49.082031 61.75 49.011719 C 61.882812 47.695312 61.71875 46.4375 61.25 45.242188 C 61.917969 45.074219 62.582031 44.90625 63.25 44.738281 C 61.863281 43.644531 61.945312 43.394531 63.5 43.984375 C 64.003906 44.75 64.253906 45.589844 64.25 46.496094 C 63.925781 46.199219 63.589844 45.867188 63.25 45.492188 C 62.675781 46.628906 62.59375 47.804688 63 49.011719 C 63.355469 48.566406 63.769531 48.234375 64.25 48.003906 C 65.132812 49.015625 65.96875 50.105469 66.75 51.273438 C 63.980469 52.054688 63.8125 52.808594 66.25 53.535156 C 62.816406 55.480469 60.480469 58.328125 59.25 62.082031 C 58.707031 63.023438 58.289062 64.363281 58 66.101562 C 57.082031 66.019531 56.082031 65.683594 55 65.097656 C 54.183594 66.320312 53.433594 67.574219 52.75 68.867188 C 52.953125 69.339844 53.285156 69.675781 53.75 69.871094 C 52.945312 70.203125 52.363281 69.949219 52 69.117188 C 51.832031 69.453125 51.667969 69.789062 51.5 70.121094 C 51.167969 69.453125 50.667969 68.949219 50 68.613281 C 49.605469 67.503906 49.6875 66.496094 50.25 65.597656 C 50.171875 66.289062 50.253906 66.960938 50.5 67.609375 C 52.351562 64.554688 53.9375 61.371094 55.25 58.058594 C 57.414062 51.542969 58.414062 44.84375 58.25 37.953125 Z M 58.25 37.953125 "/>
<path style=" stroke:none;fill-rule:evenodd;fill:rgb(60.392157%,58.431373%,60.784314%);fill-opacity:1;" d="M 81.25 55.546875 C 82.578125 57.21875 84.246094 57.722656 86.25 57.054688 C 84.882812 58.328125 83.214844 58.996094 81.25 59.0625 C 79.925781 57.859375 79.925781 56.6875 81.25 55.546875 Z M 81.25 55.546875 "/>
<path style=" stroke:none;fill-rule:evenodd;fill:rgb(28.235294%,27.058824%,29.803922%);fill-opacity:1;" d="M 68.75 54.539062 C 70.503906 54.039062 72.335938 54.039062 74.25 54.539062 C 75.570312 55.203125 76.902344 55.875 78.25 56.550781 C 78.851562 56.007812 79.1875 55.339844 79.25 54.539062 C 80.191406 54.402344 80.855469 54.738281 81.25 55.546875 C 79.925781 56.6875 79.925781 57.859375 81.25 59.0625 C 81.03125 59.03125 80.863281 59.113281 80.75 59.316406 C 82.457031 62.984375 83.121094 66.753906 82.75 70.625 C 81.367188 72.269531 79.867188 73.863281 78.25 75.402344 C 76.296875 76.121094 74.296875 76.289062 72.25 75.902344 C 75.226562 75.199219 77.808594 73.773438 80 71.632812 C 80.757812 70.292969 80.839844 68.953125 80.25 67.609375 C 80.25 58.222656 75.75 54.703125 66.75 57.054688 C 66.53125 57.085938 66.363281 57.003906 66.25 56.800781 C 67.386719 56.328125 68.386719 55.660156 69.25 54.792969 C 69.136719 54.589844 68.96875 54.507812 68.75 54.539062 Z M 68.75 54.539062 "/>
<path style=" stroke:none;fill-rule:evenodd;fill:rgb(58.039216%,53.72549%,57.647059%);fill-opacity:1;" d="M 55.25 58.058594 C 53.9375 61.371094 52.351562 64.554688 50.5 67.609375 C 50.253906 66.960938 50.171875 66.289062 50.25 65.597656 C 50.484375 62.585938 50.648438 59.570312 50.75 56.550781 C 52.269531 55.683594 53.1875 54.34375 53.5 52.53125 C 53.398438 54.675781 53.980469 56.519531 55.25 58.058594 Z M 55.25 58.058594 "/>
<path style=" stroke:none;fill-rule:evenodd;fill:rgb(96.862745%,72.941176%,47.058824%);fill-opacity:1;" d="M 92.75 59.566406 C 94.082031 59.566406 95.417969 59.566406 96.75 59.566406 C 96.742188 60.605469 96.574219 61.609375 96.25 62.582031 C 95.183594 63.523438 93.847656 63.859375 92.25 63.589844 C 92.546875 62.269531 92.710938 60.925781 92.75 59.566406 Z M 92.75 59.566406 "/>
<path style=" stroke:none;fill-rule:evenodd;fill:rgb(93.333333%,69.803922%,45.098039%);fill-opacity:1;" d="M 97.25 63.589844 C 97.25 63.421875 97.25 63.253906 97.25 63.085938 C 97.640625 62.160156 97.976562 61.152344 98.25 60.070312 C 99.171875 59.703125 100.085938 59.367188 101 59.0625 C 101.609375 62.21875 100.359375 63.726562 97.25 63.589844 Z M 97.25 63.589844 "/>
<path style=" stroke:none;fill-rule:evenodd;fill:rgb(17.254902%,18.039216%,25.098039%);fill-opacity:1;" d="M 53.25 44.488281 C 52.761719 43.851562 52.261719 43.179688 51.75 42.476562 C 51.457031 42.582031 51.207031 42.75 51 42.980469 C 50.75 47.5 50.667969 52.023438 50.75 56.550781 C 50.648438 59.570312 50.484375 62.585938 50.25 65.597656 C 49.6875 66.496094 49.605469 67.503906 50 68.613281 C 50.667969 68.949219 51.167969 69.453125 51.5 70.121094 C 51.667969 69.789062 51.832031 69.453125 52 69.117188 C 52.363281 69.949219 52.945312 70.203125 53.75 69.871094 C 53.285156 69.675781 52.953125 69.339844 52.75 68.867188 C 53.433594 67.574219 54.183594 66.320312 55 65.097656 C 56.082031 65.683594 57.082031 66.019531 58 66.101562 C 58.289062 64.363281 58.707031 63.023438 59.25 62.082031 C 58.0625 68.078125 59.898438 72.769531 64.75 76.15625 C 61.730469 76.320312 58.730469 76.152344 55.75 75.652344 C 55.378906 75.257812 54.960938 74.921875 54.5 74.648438 C 53.222656 75.726562 51.804688 75.894531 50.25 75.148438 C 50.820312 74.683594 50.820312 74.265625 50.25 73.894531 C 49.433594 73.644531 48.597656 73.5625 47.75 73.640625 C 47.75 74.144531 47.75 74.648438 47.75 75.148438 C 46.917969 74.648438 46.25 73.976562 45.75 73.140625 C 45.101562 71.929688 44.269531 70.839844 43.25 69.871094 C 43.738281 66.648438 43.90625 63.382812 43.75 60.070312 C 44.464844 61.058594 45.378906 61.894531 46.5 62.582031 C 47.03125 62.515625 47.445312 62.265625 47.75 61.828125 C 47.132812 61.867188 46.632812 61.785156 46.25 61.578125 C 46.417969 60.90625 46.582031 60.238281 46.75 59.566406 C 47.25 60.238281 47.75 60.238281 48.25 59.566406 C 48.667969 60.070312 49.082031 60.570312 49.5 61.074219 C 49.953125 58.414062 50.203125 55.734375 50.25 53.03125 C 50.503906 50.636719 50.003906 48.457031 48.75 46.496094 C 49.632812 44.980469 50.296875 43.386719 50.75 41.722656 C 51.390625 41.378906 51.976562 41.460938 52.5 41.972656 C 52.652344 41.566406 52.902344 41.230469 53.25 40.96875 C 52.863281 42.070312 52.863281 43.242188 53.25 44.488281 Z M 53.25 44.488281 "/>
<path style=" stroke:none;fill-rule:evenodd;fill:rgb(0.392157%,33.72549%,48.627451%);fill-opacity:1;" d="M 35.25 48.507812 C 41.746094 48.917969 42.746094 51.515625 38.25 56.300781 C 36.929688 57.277344 35.429688 57.78125 33.75 57.808594 C 34.28125 58.40625 34.949219 58.65625 35.75 58.5625 C 36.6875 59.136719 37.601562 59.804688 38.5 60.570312 C 38.386719 62.894531 38.304688 65.242188 38.25 67.609375 C 36.371094 67.683594 35.371094 68.6875 35.25 70.625 C 35.03125 71.132812 34.699219 71.132812 34.25 70.625 C 32.394531 70.664062 30.558594 70.496094 28.75 70.121094 C 30.933594 68.808594 33.015625 67.300781 35 65.597656 C 35.359375 64.136719 35.109375 62.796875 34.25 61.578125 C 33.914062 60.902344 33.914062 60.3125 34.25 59.816406 C 33.75 59.652344 33.25 59.484375 32.75 59.316406 C 32.917969 59.148438 33.082031 58.980469 33.25 58.8125 C 32.082031 58.644531 30.917969 58.476562 29.75 58.308594 C 32.039062 57.839844 34.207031 57 36.25 55.796875 C 35.773438 55.4375 35.691406 55.015625 36 54.539062 C 36.332031 53.871094 36.667969 53.871094 37 54.539062 C 38.039062 52.863281 38.453125 51.019531 38.25 49.011719 C 37.132812 49.160156 36.132812 48.992188 35.25 48.507812 Z M 35.25 48.507812 "/>
<use xlink:href="#surface11" mask="url(#mask2)"/>
<path style=" stroke:none;fill-rule:evenodd;fill:rgb(44.313725%,45.490196%,45.882353%);fill-opacity:1;" d="M 88.75 61.074219 C 89.417969 61.074219 89.75 61.410156 89.75 62.082031 C 89.828125 62.769531 89.746094 63.441406 89.5 64.089844 C 89.320312 63.125 88.902344 62.289062 88.25 61.578125 C 88.3125 61.273438 88.476562 61.105469 88.75 61.074219 Z M 88.75 61.074219 "/>
<path style=" stroke:none;fill-rule:evenodd;fill:rgb(52.941176%,39.215686%,20.784314%);fill-opacity:1;" d="M 93.25 55.546875 C 93.25 56.214844 93.25 56.886719 93.25 57.554688 C 94.417969 57.554688 95.582031 57.554688 96.75 57.554688 C 95.527344 58.046875 94.191406 58.210938 92.75 58.058594 C 92.609375 57.097656 92.773438 56.257812 93.25 55.546875 Z M 93.25 55.546875 "/>
<path style=" stroke:none;fill-rule:evenodd;fill:rgb(0.392157%,63.529412%,77.254902%);fill-opacity:1;" d="M 34.25 61.578125 C 35.109375 62.796875 35.359375 64.136719 35 65.597656 C 33.015625 67.300781 30.933594 68.808594 28.75 70.121094 C 27.59375 69.710938 26.425781 69.292969 25.25 68.867188 C 27.742188 67.949219 29.910156 66.523438 31.75 64.59375 C 32.386719 63.460938 32.21875 62.453125 31.25 61.578125 C 30.761719 60.917969 30.261719 60.246094 29.75 59.566406 C 30 59.398438 30.25 59.230469 30.5 59.0625 C 31.957031 59.613281 33.207031 60.449219 34.25 61.578125 Z M 34.25 61.578125 "/>
<path style=" stroke:none;fill-rule:evenodd;fill:rgb(83.137255%,56.470588%,35.294118%);fill-opacity:1;" d="M 97.25 65.597656 C 97.777344 65.523438 98.277344 65.609375 98.75 65.851562 C 97.101562 68.15625 96.601562 68.074219 97.25 65.597656 Z M 97.25 65.597656 "/>
<use xlink:href="#surface14" mask="url(#mask3)"/>
<path style=" stroke:none;fill-rule:evenodd;fill:rgb(89.803922%,63.921569%,38.431373%);fill-opacity:1;" d="M 91.25 65.597656 C 92.785156 65.441406 94.285156 65.605469 95.75 66.101562 C 95.078125 68.320312 93.578125 69.160156 91.25 68.613281 C 91.25 67.609375 91.25 66.605469 91.25 65.597656 Z M 91.25 65.597656 "/>
<path style=" stroke:none;fill-rule:evenodd;fill:rgb(1.960784%,23.529412%,35.686275%);fill-opacity:1;" d="M 35.75 58.5625 C 37.761719 58.652344 39.179688 59.65625 40 61.578125 C 41.058594 65.5 39.808594 68.265625 36.25 69.871094 C 36.527344 70.0625 36.695312 70.316406 36.75 70.625 C 36.25 70.625 35.75 70.625 35.25 70.625 C 35.371094 68.6875 36.371094 67.683594 38.25 67.609375 C 38.304688 65.242188 38.386719 62.894531 38.5 60.570312 C 37.601562 59.804688 36.6875 59.136719 35.75 58.5625 Z M 35.75 58.5625 "/>
<path style=" stroke:none;fill-rule:evenodd;fill:rgb(38.823529%,36.470588%,40%);fill-opacity:1;" d="M 74.25 53.03125 C 73.582031 53.535156 73.582031 54.039062 74.25 54.539062 C 72.335938 54.039062 70.503906 54.039062 68.75 54.539062 C 65.007812 55.535156 62.421875 57.882812 61 61.578125 C 59.886719 67.707031 61.800781 72.566406 66.75 76.15625 C 66.082031 76.824219 65.417969 76.824219 64.75 76.15625 C 59.898438 72.769531 58.0625 68.078125 59.25 62.082031 C 60.480469 58.328125 62.816406 55.480469 66.25 53.535156 C 68.886719 53.082031 71.550781 52.914062 74.25 53.03125 Z M 74.25 53.03125 "/>
<path style=" stroke:none;fill-rule:evenodd;fill:rgb(3.529412%,5.098039%,8.627451%);fill-opacity:1;" d="M 40.25 38.957031 C 40.6875 38.890625 41.023438 39.058594 41.25 39.460938 C 41.917969 41.140625 42.582031 42.816406 43.25 44.488281 C 43.734375 43.535156 43.898438 42.527344 43.75 41.46875 C 44.484375 43.652344 44.316406 45.832031 43.25 48.003906 C 43.429688 48.519531 43.761719 48.855469 44.25 49.011719 C 44.027344 52.695312 43.863281 56.378906 43.75 60.070312 C 43.90625 63.382812 43.738281 66.648438 43.25 69.871094 C 44.269531 70.839844 45.101562 71.929688 45.75 73.140625 C 45.113281 73.738281 44.777344 74.578125 44.75 75.652344 C 44.832031 76.492188 44.917969 77.328125 45 78.164062 C 45.789062 77.511719 46.371094 77.679688 46.75 78.667969 C 44.582031 79.589844 42.582031 80.761719 40.75 82.1875 C 39.75 82.355469 38.75 82.523438 37.75 82.691406 C 36.402344 82.65625 35.902344 82.15625 36.25 81.183594 C 36.746094 81.269531 37.078125 81.101562 37.25 80.679688 C 38.777344 80.164062 40.277344 79.496094 41.75 78.667969 C 43.113281 74.035156 41.449219 71.355469 36.75 70.625 C 36.695312 70.316406 36.527344 70.0625 36.25 69.871094 C 39.808594 68.265625 41.058594 65.5 40 61.578125 C 39.179688 59.65625 37.761719 58.652344 35.75 58.5625 C 34.949219 58.65625 34.28125 58.40625 33.75 57.808594 C 35.429688 57.78125 36.929688 57.277344 38.25 56.300781 C 42.746094 51.515625 41.746094 48.917969 35.25 48.507812 C 34.355469 48.101562 33.355469 47.851562 32.25 47.753906 C 34.582031 47.585938 36.917969 47.417969 39.25 47.25 C 39.964844 47.015625 40.546875 46.597656 41 45.996094 C 42.085938 43.507812 41.835938 41.164062 40.25 38.957031 Z M 40.25 38.957031 "/>
<path style=" stroke:none;fill-rule:evenodd;fill:rgb(0%,36.862745%,47.45098%);fill-opacity:1;" d="M 14.25 71.128906 C 15.429688 71.046875 16.59375 71.128906 17.75 71.378906 C 16.921875 71.683594 16.089844 71.9375 15.25 72.132812 C 14.917969 71.796875 14.582031 71.464844 14.25 71.128906 Z M 14.25 71.128906 "/>
<path style=" stroke:none;fill-rule:evenodd;fill:rgb(67.843137%,65.098039%,66.27451%);fill-opacity:1;" d="M 82.75 75.148438 C 82.164062 75.261719 81.664062 75.09375 81.25 74.648438 C 82.039062 73.402344 82.539062 72.058594 82.75 70.625 C 83.355469 70.257812 83.855469 69.757812 84.25 69.117188 C 84.980469 71.441406 84.480469 73.453125 82.75 75.148438 Z M 82.75 75.148438 "/>
<path style=" stroke:none;fill-rule:evenodd;fill:rgb(1.568627%,40.392157%,54.901961%);fill-opacity:1;" d="M 34.25 70.625 C 34.699219 71.132812 35.03125 71.132812 35.25 70.625 C 35.75 70.625 36.25 70.625 36.75 70.625 C 41.449219 71.355469 43.113281 74.035156 41.75 78.667969 C 40.277344 79.496094 38.777344 80.164062 37.25 80.679688 C 37.058594 79.960938 36.558594 79.542969 35.75 79.421875 C 38.253906 77.695312 38.421875 75.683594 36.25 73.390625 C 35.355469 73.128906 34.523438 73.296875 33.75 73.894531 C 33.578125 75.472656 32.578125 76.5625 30.75 77.160156 C 30.472656 76.511719 29.972656 76.09375 29.25 75.902344 C 25.164062 75.949219 21.164062 75.867188 17.25 75.652344 C 18.757812 75.734375 20.257812 75.652344 21.75 75.402344 C 25.707031 74.183594 29.707031 73.007812 33.75 71.882812 C 34.125 71.546875 34.292969 71.125 34.25 70.625 Z M 34.25 70.625 "/>
<path style=" stroke:none;fill-rule:evenodd;fill:rgb(22.745098%,21.568627%,23.921569%);fill-opacity:1;" d="M 68.75 54.539062 C 68.96875 54.507812 69.136719 54.589844 69.25 54.792969 C 68.386719 55.660156 67.386719 56.328125 66.25 56.800781 C 66.363281 57.003906 66.53125 57.085938 66.75 57.054688 C 65.613281 57.941406 64.53125 58.945312 63.5 60.070312 C 61.152344 65.21875 62.070312 69.65625 66.25 73.390625 C 72.878906 76 77.542969 74.074219 80.25 67.609375 C 80.839844 68.953125 80.757812 70.292969 80 71.632812 C 77.808594 73.773438 75.226562 75.199219 72.25 75.902344 C 74.296875 76.289062 76.296875 76.121094 78.25 75.402344 C 79.867188 73.863281 81.367188 72.269531 82.75 70.625 C 82.539062 72.058594 82.039062 73.402344 81.25 74.648438 C 81.664062 75.09375 82.164062 75.261719 82.75 75.148438 C 83.570312 75.585938 84.40625 75.835938 85.25 75.902344 C 86.292969 74.554688 87.125 73.132812 87.75 71.632812 C 87.597656 73.957031 86.597656 75.800781 84.75 77.160156 C 84.632812 76.859375 84.382812 76.691406 84 76.65625 C 83 76.992188 82 77.328125 81 77.664062 C 76.195312 77.441406 71.445312 76.9375 66.75 76.15625 C 61.800781 72.566406 59.886719 67.707031 61 61.578125 C 62.421875 57.882812 65.007812 55.535156 68.75 54.539062 Z M 68.75 54.539062 "/>
<path style=" stroke:none;fill-rule:evenodd;fill:rgb(50.588235%,50.196078%,52.54902%);fill-opacity:1;" d="M 64.75 76.15625 C 65.417969 76.824219 66.082031 76.824219 66.75 76.15625 C 71.445312 76.9375 76.195312 77.441406 81 77.664062 C 82 77.328125 83 76.992188 84 76.65625 C 84.382812 76.691406 84.632812 76.859375 84.75 77.160156 C 83.820312 77.710938 82.820312 78.128906 81.75 78.417969 C 78.085938 78.667969 74.421875 78.75 70.75 78.667969 C 64.085938 78.238281 57.421875 77.820312 50.75 77.410156 C 49.410156 77.003906 48.410156 76.25 47.75 75.148438 C 47.75 74.648438 47.75 74.144531 47.75 73.640625 C 48.597656 73.5625 49.433594 73.644531 50.25 73.894531 C 50.820312 74.265625 50.820312 74.683594 50.25 75.148438 C 51.804688 75.894531 53.222656 75.726562 54.5 74.648438 C 54.960938 74.921875 55.378906 75.257812 55.75 75.652344 C 58.730469 76.152344 61.730469 76.320312 64.75 76.15625 Z M 64.75 76.15625 "/>
<path style=" stroke:none;fill-rule:evenodd;fill:rgb(0.784314%,70.980392%,84.313725%);fill-opacity:1;" d="M 37.25 80.679688 C 35.292969 80.523438 33.628906 80.273438 32.25 79.925781 C 29.585938 80.199219 29.25 81.039062 31.25 82.4375 C 29.480469 83.195312 27.648438 83.363281 25.75 82.941406 C 25.375 82.605469 25.207031 82.183594 25.25 81.683594 C 25.917969 80.679688 26.75 79.839844 27.75 79.171875 C 28.886719 78.699219 29.886719 78.027344 30.75 77.160156 C 32.578125 76.5625 33.578125 75.472656 33.75 73.894531 C 34.523438 73.296875 35.355469 73.128906 36.25 73.390625 C 38.421875 75.683594 38.253906 77.695312 35.75 79.421875 C 36.558594 79.542969 37.058594 79.960938 37.25 80.679688 Z M 37.25 80.679688 "/>
<use xlink:href="#surface17" mask="url(#mask4)"/>
<path style=" stroke:none;fill-rule:evenodd;fill:rgb(71.764706%,44.705882%,26.666667%);fill-opacity:1;" d="M 79.25 81.183594 C 80.632812 82.921875 80.296875 84.34375 78.25 85.453125 C 75.960938 85.050781 73.625 84.628906 71.25 84.199219 C 70.332031 84.242188 69.667969 84.574219 69.25 85.203125 C 68.792969 84.117188 68.792969 82.945312 69.25 81.683594 C 72.601562 81.765625 75.933594 81.597656 79.25 81.183594 Z M 79.25 81.183594 "/>
<path style=" stroke:none;fill-rule:evenodd;fill:rgb(3.137255%,35.686275%,50.980392%);fill-opacity:1;" d="M 66.75 82.1875 C 66.582031 82.855469 66.417969 83.527344 66.25 84.199219 C 64.558594 86.566406 62.390625 88.410156 59.75 89.726562 C 58.640625 88.527344 58.472656 87.1875 59.25 85.707031 C 59.417969 85.707031 59.582031 85.707031 59.75 85.707031 C 60.507812 85.699219 61.09375 85.367188 61.5 84.699219 C 62.414062 81.753906 64.332031 80.496094 67.25 80.929688 C 66.875 81.269531 66.707031 81.6875 66.75 82.1875 Z M 66.75 82.1875 "/>
<path style=" stroke:none;fill-rule:evenodd;fill:rgb(94.509804%,78.823529%,60.392157%);fill-opacity:1;" d="M 79.25 81.183594 C 80.082031 81.183594 80.917969 81.183594 81.75 81.183594 C 80.785156 86.921875 77.453125 89.183594 71.75 87.96875 C 70.460938 87.425781 69.628906 86.503906 69.25 85.203125 C 69.667969 84.574219 70.332031 84.242188 71.25 84.199219 C 73.625 84.628906 75.960938 85.050781 78.25 85.453125 C 80.296875 84.34375 80.632812 82.921875 79.25 81.183594 Z M 79.25 81.183594 "/>
<use xlink:href="#surface20" mask="url(#mask5)"/>
<path style=" stroke:none;fill-rule:evenodd;fill:rgb(0.784314%,46.27451%,63.529412%);fill-opacity:1;" d="M 58.25 85.203125 C 56.570312 86.890625 54.738281 88.398438 52.75 89.726562 C 51.914062 88.71875 51.582031 87.542969 51.75 86.207031 C 53.117188 84.671875 54.785156 83.5 56.75 82.691406 C 57.632812 83.285156 58.132812 84.125 58.25 85.203125 Z M 58.25 85.203125 "/>
<path style=" stroke:none;fill-rule:evenodd;fill:rgb(1.568627%,33.333333%,44.705882%);fill-opacity:1;" d="M 46.75 78.667969 C 47.417969 79.003906 47.917969 79.507812 48.25 80.175781 C 48.324219 80.707031 48.242188 81.207031 48 81.683594 C 46.484375 83.460938 44.898438 85.136719 43.25 86.710938 C 41.726562 87.8125 40.058594 88.652344 38.25 89.222656 C 39.820312 87.472656 40.988281 85.460938 41.75 83.191406 C 41.625 82.582031 41.292969 82.246094 40.75 82.1875 C 42.582031 80.761719 44.582031 79.589844 46.75 78.667969 Z M 46.75 78.667969 "/>
<path style=" stroke:none;fill-rule:evenodd;fill:rgb(1.176471%,37.254902%,49.803922%);fill-opacity:1;" d="M 36.25 81.183594 C 35.902344 82.15625 36.402344 82.65625 37.75 82.691406 C 37.367188 83.628906 36.867188 84.464844 36.25 85.203125 C 34.988281 85.015625 33.988281 85.433594 33.25 86.460938 C 31.589844 86.710938 29.925781 86.792969 28.25 86.710938 C 28.976562 86.308594 29.808594 86.058594 30.75 85.957031 C 31.191406 85.601562 31.523438 85.183594 31.75 84.699219 C 32.574219 84.207031 33.238281 83.539062 33.75 82.691406 C 33.488281 82.34375 33.152344 82.089844 32.75 81.9375 C 33.933594 81.714844 35.097656 81.464844 36.25 81.183594 Z M 36.25 81.183594 "/>
<path style=" stroke:none;fill-rule:evenodd;fill:rgb(3.921569%,69.803922%,82.745098%);fill-opacity:1;" d="M 24.25 83.695312 C 26.589844 83.613281 28.921875 83.695312 31.25 83.945312 C 31.527344 84.140625 31.695312 84.390625 31.75 84.699219 C 31.523438 85.183594 31.191406 85.601562 30.75 85.957031 C 29.808594 86.058594 28.976562 86.308594 28.25 86.710938 C 26.90625 86.792969 25.574219 86.710938 24.25 86.460938 C 20.945312 85.414062 20.945312 84.492188 24.25 83.695312 Z M 24.25 83.695312 "/>
<path style=" stroke:none;fill-rule:evenodd;fill:rgb(1.960784%,71.764706%,83.921569%);fill-opacity:1;" d="M 40.75 82.1875 C 41.292969 82.246094 41.625 82.582031 41.75 83.191406 C 40.988281 85.460938 39.820312 87.472656 38.25 89.222656 C 36.4375 89.980469 34.605469 90.144531 32.75 89.726562 C 34.132812 88.34375 35.296875 86.835938 36.25 85.203125 C 36.867188 84.464844 37.367188 83.628906 37.75 82.691406 C 38.75 82.523438 39.75 82.355469 40.75 82.1875 Z M 40.75 82.1875 "/>
<path style=" stroke:none;fill-rule:evenodd;fill:rgb(3.137255%,13.72549%,20%);fill-opacity:1;" d="M 48.25 80.175781 C 49.132812 80.105469 49.964844 80.273438 50.75 80.679688 C 51.261719 80.929688 51.34375 81.265625 51 81.683594 C 48.746094 84.261719 46.160156 85.9375 43.25 86.710938 C 44.898438 85.136719 46.484375 83.460938 48 81.683594 C 48.242188 81.207031 48.324219 80.707031 48.25 80.175781 Z M 48.25 80.175781 "/>
<path style=" stroke:none;fill-rule:evenodd;fill:rgb(1.176471%,58.039216%,71.764706%);fill-opacity:1;" d="M 37.25 80.679688 C 37.078125 81.101562 36.746094 81.269531 36.25 81.183594 C 35.097656 81.464844 33.933594 81.714844 32.75 81.9375 C 33.152344 82.089844 33.488281 82.34375 33.75 82.691406 C 33.238281 83.539062 32.574219 84.207031 31.75 84.699219 C 31.695312 84.390625 31.527344 84.140625 31.25 83.945312 C 28.921875 83.695312 26.589844 83.613281 24.25 83.695312 C 24.496094 82.945312 24.828125 82.273438 25.25 81.683594 C 25.207031 82.183594 25.375 82.605469 25.75 82.941406 C 27.648438 83.363281 29.480469 83.195312 31.25 82.4375 C 29.25 81.039062 29.585938 80.199219 32.25 79.925781 C 33.628906 80.273438 35.292969 80.523438 37.25 80.679688 Z M 37.25 80.679688 "/>
<path style=" stroke:none;fill-rule:evenodd;fill:rgb(1.176471%,26.27451%,38.823529%);fill-opacity:1;" d="M 59.75 85.707031 C 59.582031 85.707031 59.417969 85.707031 59.25 85.707031 C 59.296875 84.601562 58.960938 84.433594 58.25 85.203125 C 58.132812 84.125 57.632812 83.285156 56.75 82.691406 C 54.785156 83.5 53.117188 84.671875 51.75 86.207031 C 50.167969 87.371094 48.5 88.460938 46.75 89.476562 C 45.78125 89.882812 44.78125 90.136719 43.75 90.230469 C 43.664062 89.566406 43.832031 88.980469 44.25 88.46875 C 48.027344 86.347656 51.527344 83.832031 54.75 80.929688 C 56.011719 80.921875 57.261719 81.175781 58.5 81.683594 C 59.984375 80.917969 61.566406 80.667969 63.25 80.929688 C 61.773438 82.3125 60.605469 83.90625 59.75 85.707031 Z M 59.75 85.707031 "/>
</g>
</svg>
