<?xml version="1.0" encoding="UTF-8"?>
<svg xmlns="http://www.w3.org/2000/svg" xmlns:xlink="http://www.w3.org/1999/xlink" width="px" height="px" viewBox="0 0 96 90" version="1.1">
<defs>
<filter id="alpha" filterUnits="objectBoundingBox" x="0%" y="0%" width="100%" height="100%">
  <feColorMatrix type="matrix" in="SourceGraphic" values="0 0 0 0 1 0 0 0 0 1 0 0 0 0 1 0 0 0 1 0"/>
</filter>
<mask id="mask0">
  <g filter="url(#alpha)">
<rect x="0" y="0" width="96" height="90" style="fill:rgb(0%,0%,0%);fill-opacity:0.0392157;stroke:none;"/>
  </g>
</mask>
<clipPath id="clip1">
  <rect x="0" y="0" width="96" height="90"/>
</clipPath>
<g id="surface5" clip-path="url(#clip1)">
<path style=" stroke:none;fill-rule:evenodd;fill:rgb(14.901961%,22.352941%,28.235294%);fill-opacity:1;" d="M 35.25 -0.25 C 38.917969 -0.25 42.582031 -0.25 46.25 -0.25 C 49.011719 0.757812 51.761719 1.925781 54.5 3.25 C 56.375 1.945312 58.292969 0.777344 60.25 -0.25 C 62.417969 -0.25 64.582031 -0.25 66.75 -0.25 C 72.089844 2.011719 75.339844 6.011719 76.5 11.75 C 79.054688 13.886719 81.136719 16.386719 82.75 19.25 C 83.554688 19.660156 84.386719 19.992188 85.25 20.25 C 87.558594 18.847656 89.476562 19.347656 91 21.75 C 91.523438 22.855469 91.855469 24.023438 92 25.25 C 93.023438 26.105469 93.855469 27.105469 94.5 28.25 C 94.589844 30.875 95.007812 33.375 95.75 35.75 C 95.75 41.082031 95.75 46.417969 95.75 51.75 C 94.992188 53.78125 94.574219 55.949219 94.5 58.25 C 94.035156 59.679688 93.203125 60.847656 92 61.75 C 92.058594 64.296875 91.390625 66.628906 90 68.75 C 89.332031 69.082031 88.667969 69.417969 88 69.75 C 86.070312 69.25 84.152344 68.832031 82.25 68.5 C 81.09375 71.992188 78.84375 74.578125 75.5 76.25 C 73.992188 85.402344 68.574219 89.152344 59.25 87.5 C 57.359375 86.445312 55.609375 85.195312 54 83.75 C 50.546875 86.367188 46.796875 88.367188 42.75 89.75 C 40.582031 89.75 38.417969 89.75 36.25 89.75 C 30.246094 88.246094 24.914062 85.414062 20.25 81.25 C 17.230469 83.761719 13.894531 85.761719 10.25 87.25 C 6.78125 85.699219 4.449219 83.113281 3.25 79.5 C 4.886719 76.695312 7.054688 74.363281 9.75 72.5 C 4.113281 65.164062 0.777344 56.914062 -0.25 47.75 C -0.25 45.417969 -0.25 43.082031 -0.25 40.75 C 0.570312 32.882812 3.320312 25.714844 8 19.25 C 14.046875 14.539062 19.796875 9.457031 25.25 4 C 28.460938 2.140625 31.792969 0.722656 35.25 -0.25 Z M 35.25 -0.25 "/>
</g>
<mask id="mask1">
  <g filter="url(#alpha)">
<rect x="0" y="0" width="96" height="90" style="fill:rgb(0%,0%,0%);fill-opacity:0.952941;stroke:none;"/>
  </g>
</mask>
<clipPath id="clip2">
  <rect x="0" y="0" width="96" height="90"/>
</clipPath>
<g id="surface8" clip-path="url(#clip2)">
<path style=" stroke:none;fill-rule:evenodd;fill:rgb(6.666667%,3.921569%,2.745098%);fill-opacity:1;" d="M 86.25 22.75 C 85.460938 23.570312 85.125 24.570312 85.25 25.75 C 86.25 25.75 87.25 25.75 88.25 25.75 C 88.25 25.082031 88.25 24.417969 88.25 23.75 C 88.964844 24.96875 88.800781 26.132812 87.75 27.25 C 89.121094 27.964844 90.121094 27.632812 90.75 26.25 C 92.039062 26.425781 92.957031 27.09375 93.5 28.25 C 95.132812 38.402344 95.132812 48.570312 93.5 58.75 C 93.0625 60.109375 92.144531 60.773438 90.75 60.75 C 91.796875 68.554688 88.960938 70.554688 82.25 66.75 C 80.820312 70.679688 78.320312 73.679688 74.75 75.75 C 72.675781 85.785156 66.84375 89.035156 57.25 85.5 C 56.308594 84.390625 55.222656 83.472656 54 82.75 C 45.015625 89.949219 35.601562 90.53125 25.75 84.5 C 23.96875 82.882812 22.050781 81.464844 20 80.25 C 17.21875 82.351562 14.304688 84.265625 11.25 86 C 9.152344 86.492188 7.652344 85.742188 6.75 83.75 C 6.761719 82.386719 6.429688 81.136719 5.75 80 C 5.765625 79.464844 5.929688 79.046875 6.25 78.75 C 6.117188 79.550781 6.28125 80.214844 6.75 80.75 C 7.082031 80.75 7.25 80.917969 7.25 81.25 C 7.582031 81.917969 8.082031 82.417969 8.75 82.75 C 9.328125 83.6875 10.164062 83.9375 11.25 83.5 C 13.25 82.167969 15.25 80.832031 17.25 79.5 C 18.566406 78.367188 18.398438 77.449219 16.75 76.75 C 16.582031 76.25 16.25 75.917969 15.75 75.75 C 15.125 74.253906 14.125 73.753906 12.75 74.25 C 12.582031 74.25 12.417969 74.25 12.25 74.25 C 12.917969 73.582031 13.582031 72.917969 14.25 72.25 C 18.71875 75.824219 23.21875 79.40625 27.75 83 C 30.671875 84.835938 33.839844 85.917969 37.25 86.25 C 37.421875 86.667969 37.753906 86.835938 38.25 86.75 C 41.128906 86.789062 43.792969 86.121094 46.25 84.75 C 48.859375 83.3125 51.191406 81.480469 53.25 79.25 C 41.484375 81.363281 32.566406 77.363281 26.5 67.25 C 22.824219 58.210938 24.410156 50.375 31.25 43.75 C 32.277344 43.800781 33.109375 43.464844 33.75 42.75 C 34.378906 42.730469 34.878906 42.980469 35.25 43.5 C 32.859375 44.726562 30.941406 46.476562 29.5 48.75 C 25.082031 57.234375 26.332031 64.734375 33.25 71.25 C 37.753906 74.859375 42.921875 76.359375 48.75 75.75 C 54.917969 75.832031 61.085938 75.75 67.25 75.5 C 68.433594 75.28125 69.597656 75.03125 70.75 74.75 C 72.710938 74.101562 74.542969 73.1875 76.25 72 C 79.25 69.402344 79.917969 66.320312 78.25 62.75 C 74.628906 62.355469 73.378906 60.355469 74.5 56.75 C 74.875 55.625 75.625 54.957031 76.75 54.75 C 78.71875 54.898438 80.636719 54.730469 82.5 54.25 C 82.832031 47.082031 82.832031 39.917969 82.5 32.75 C 81.140625 32.277344 79.722656 32.113281 78.25 32.25 C 77.492188 32.246094 76.90625 31.910156 76.5 31.25 C 76.25 29.589844 76.167969 27.925781 76.25 26.25 C 76.464844 24.871094 77.300781 24.203125 78.75 24.25 C 78.75 24.75 78.75 25.25 78.75 25.75 C 80.03125 25.902344 81.195312 25.734375 82.25 25.25 C 83.082031 25.25 83.917969 25.25 84.75 25.25 C 85.121094 23.523438 84.453125 22.691406 82.75 22.75 C 82.808594 22.207031 83.144531 21.875 83.75 21.75 C 84.648438 21.953125 85.484375 22.285156 86.25 22.75 Z M 86.25 22.75 "/>
</g>
<mask id="mask2">
  <g filter="url(#alpha)">
<rect x="0" y="0" width="96" height="90" style="fill:rgb(0%,0%,0%);fill-opacity:0.960784;stroke:none;"/>
  </g>
</mask>
<clipPath id="clip3">
  <rect x="0" y="0" width="96" height="90"/>
</clipPath>
<g id="surface11" clip-path="url(#clip3)">
<path style=" stroke:none;fill-rule:evenodd;fill:rgb(2.745098%,1.176471%,1.176471%);fill-opacity:1;" d="M 90.75 26.25 C 90.121094 27.632812 89.121094 27.964844 87.75 27.25 C 88.800781 26.132812 88.964844 24.96875 88.25 23.75 C 87.910156 22.910156 87.242188 22.578125 86.25 22.75 C 85.484375 22.285156 84.648438 21.953125 83.75 21.75 C 83.144531 21.875 82.808594 22.207031 82.75 22.75 C 81.164062 23.394531 80.996094 24.230469 82.25 25.25 C 81.195312 25.734375 80.03125 25.902344 78.75 25.75 C 78.75 25.25 78.75 24.75 78.75 24.25 C 79.289062 23.703125 79.625 23.035156 79.75 22.25 C 78.320312 16.53125 74.652344 13.363281 68.75 12.75 C 64.648438 11.859375 60.480469 11.523438 56.25 11.75 C 51.414062 11.667969 46.582031 11.75 41.75 12 C 35.101562 13.820312 30.515625 17.902344 28 24.25 C 26.714844 30.796875 28.296875 36.460938 32.75 41.25 C 33.082031 41.75 33.417969 42.25 33.75 42.75 C 33.109375 43.464844 32.277344 43.800781 31.25 43.75 C 29.761719 41.425781 28.261719 39.09375 26.75 36.75 C 23.570312 26.457031 26.234375 18.125 34.75 11.75 C 32.300781 11.621094 29.800781 11.621094 27.25 11.75 C 27.082031 10.25 27.75 9.582031 29.25 9.75 C 29.117188 9.011719 29.285156 8.34375 29.75 7.75 C 31.992188 6.128906 34.492188 5.046875 37.25 4.5 C 35.683594 3.714844 34.015625 3.546875 32.25 4 C 26.410156 6.171875 21.746094 9.839844 18.25 15 C 17.25 15.5 16.25 16 15.25 16.5 C 5.972656 24.761719 1.972656 35.011719 3.25 47.25 C 3.125 51.507812 3.957031 55.507812 5.75 59.25 C 7.578125 64.234375 10.410156 68.570312 14.25 72.25 C 13.582031 72.917969 12.917969 73.582031 12.25 74.25 C 10.25 75.75 8.25 77.25 6.25 78.75 C 5.929688 79.046875 5.765625 79.464844 5.75 80 C 6.429688 81.136719 6.761719 82.386719 6.75 83.75 C 4.898438 82.378906 4.148438 80.546875 4.5 78.25 C 6.75 76.332031 9 74.417969 11.25 72.5 C 6.519531 67.292969 3.4375 61.207031 2 54.25 C -1.394531 39.605469 2.023438 26.855469 12.25 16 C 13.917969 15 15.582031 14 17.25 13 C 27.5 -0.0546875 40 -2.804688 54.75 4.75 C 60.625 -0.515625 66.542969 -0.515625 72.5 4.75 C 74.289062 7.113281 75.289062 9.777344 75.5 12.75 C 78.847656 14.4375 81.015625 17.105469 82 20.75 C 84.371094 20.882812 86.789062 20.964844 89.25 21 C 90.550781 22.492188 91.050781 24.242188 90.75 26.25 Z M 90.75 26.25 "/>
</g>
</defs>
<g id="surface1">
<use xlink:href="#surface5" mask="url(#mask0)"/>
<path style=" stroke:none;fill-rule:evenodd;fill:rgb(97.254902%,22.352941%,1.176471%);fill-opacity:1;" d="M 16.75 76.75 C 18.398438 77.449219 18.566406 78.367188 17.25 79.5 C 15.25 80.832031 13.25 82.167969 11.25 83.5 C 10.164062 83.9375 9.328125 83.6875 8.75 82.75 C 11.359375 80.765625 14.023438 78.765625 16.75 76.75 Z M 16.75 76.75 "/>
<path style=" stroke:none;fill-rule:evenodd;fill:rgb(55.294118%,0%,1.960784%);fill-opacity:1;" d="M 15.75 75.75 C 16.25 75.917969 16.582031 76.25 16.75 76.75 C 14.023438 78.765625 11.359375 80.765625 8.75 82.75 C 8.082031 82.417969 7.582031 81.917969 7.25 81.25 C 7.777344 81.324219 8.277344 81.242188 8.75 81 C 11.175781 79.320312 13.507812 77.570312 15.75 75.75 Z M 15.75 75.75 "/>
<path style=" stroke:none;fill-rule:evenodd;fill:rgb(94.901961%,5.098039%,0.392157%);fill-opacity:1;" d="M 15.75 75.75 C 13.507812 77.570312 11.175781 79.320312 8.75 81 C 8.277344 81.242188 7.777344 81.324219 7.25 81.25 C 7.25 80.917969 7.082031 80.75 6.75 80.75 C 6.675781 80.222656 6.757812 79.722656 7 79.25 C 9.011719 77.652344 10.929688 75.984375 12.75 74.25 C 14.125 73.753906 15.125 74.253906 15.75 75.75 Z M 15.75 75.75 "/>
<path style=" stroke:none;fill-rule:evenodd;fill:rgb(34.509804%,0%,1.176471%);fill-opacity:1;" d="M 12.25 74.25 C 12.417969 74.25 12.582031 74.25 12.75 74.25 C 10.929688 75.984375 9.011719 77.652344 7 79.25 C 6.757812 79.722656 6.675781 80.222656 6.75 80.75 C 6.28125 80.214844 6.117188 79.550781 6.25 78.75 C 8.25 77.25 10.25 75.75 12.25 74.25 Z M 12.25 74.25 "/>
<path style=" stroke:none;fill-rule:evenodd;fill:rgb(25.882353%,21.960784%,22.352941%);fill-opacity:1;" d="M 37.25 86.25 C 33.839844 85.917969 30.671875 84.835938 27.75 83 C 23.21875 79.40625 18.71875 75.824219 14.25 72.25 C 10.410156 68.570312 7.578125 64.234375 5.75 59.25 C 5.929688 54.972656 7.429688 51.222656 10.25 48 C 14.25 45.667969 18.25 45.667969 22.25 48 C 22.667969 48.417969 23.082031 48.832031 23.5 49.25 C 22.65625 55.414062 23.320312 61.414062 25.5 67.25 C 26.441406 69.523438 27.773438 71.523438 29.5 73.25 C 31.613281 75.179688 33.863281 76.929688 36.25 78.5 C 35.710938 78.835938 35.378906 79.335938 35.25 80 C 35.769531 81.363281 36.519531 82.613281 37.5 83.75 C 37.890625 84.695312 37.804688 85.527344 37.25 86.25 Z M 37.25 86.25 "/>
<path style=" stroke:none;fill-rule:evenodd;fill:rgb(94.117647%,72.156863%,45.490196%);fill-opacity:1;" d="M 78.75 41.75 C 79.292969 41.808594 79.625 42.144531 79.75 42.75 C 80.367188 45.144531 80.867188 47.5625 81.25 50 C 81.1875 52.300781 80.023438 53.46875 77.75 53.5 C 78.75 53.667969 79.75 53.832031 80.75 54 C 79.316406 54.089844 77.984375 54.339844 76.75 54.75 C 75.625 54.957031 74.875 55.625 74.5 56.75 C 73.378906 60.355469 74.628906 62.355469 78.25 62.75 C 79.917969 66.320312 79.25 69.402344 76.25 72 C 74.542969 73.1875 72.710938 74.101562 70.75 74.75 C 70.582031 74.417969 70.417969 74.082031 70.25 73.75 C 74.28125 72.308594 76.199219 69.476562 76 65.25 C 75.496094 64.832031 74.910156 64.664062 74.25 64.75 C 72.664062 69.550781 69.328125 72.214844 64.25 72.75 C 60.75 72.75 57.25 72.75 53.75 72.75 C 54.027344 72.105469 54.527344 71.6875 55.25 71.5 C 60.597656 71.996094 65.183594 70.410156 69 66.75 C 70.46875 64.28125 71.050781 61.617188 70.75 58.75 C 70.855469 58.039062 71.105469 57.371094 71.5 56.75 C 71.84375 57.367188 72.09375 57.367188 72.25 56.75 C 74.363281 55.246094 74.695312 53.410156 73.25 51.25 C 74.863281 50.476562 76.613281 49.808594 78.5 49.25 C 79.515625 47.355469 79.433594 45.519531 78.25 43.75 C 78.421875 43.074219 78.589844 42.410156 78.75 41.75 Z M 78.75 41.75 "/>
<path style=" stroke:none;fill-rule:evenodd;fill:rgb(94.509804%,83.137255%,60.392157%);fill-opacity:1;" d="M 49.25 33.25 C 49.195312 33.558594 49.027344 33.808594 48.75 34 C 47.261719 34.347656 45.761719 34.597656 44.25 34.75 C 44.382812 35.488281 44.214844 36.15625 43.75 36.75 C 43.402344 36.488281 43.152344 36.152344 43 35.75 C 42.765625 36.464844 42.351562 37.046875 41.75 37.5 C 42.152344 37.652344 42.488281 37.902344 42.75 38.25 C 42.125 39.320312 42.125 40.320312 42.75 41.25 C 44.335938 43.699219 46.171875 43.863281 48.25 41.75 C 48.148438 42.523438 47.816406 43.1875 47.25 43.75 C 47.429688 44.089844 47.597656 44.425781 47.75 44.75 C 45.511719 44.910156 44.761719 46.078125 45.5 48.25 C 45.917969 48.667969 46.332031 49.082031 46.75 49.5 C 48.597656 49.660156 50.429688 49.910156 52.25 50.25 C 54.585938 48.71875 56.835938 47.050781 59 45.25 C 59.488281 44.128906 59.738281 42.964844 59.75 41.75 C 59.917969 41.75 60.082031 41.75 60.25 41.75 C 60.445312 44.5625 59.613281 46.980469 57.75 49 C 58.316406 50.152344 58.316406 51.320312 57.75 52.5 C 57.84375 53.1875 58.175781 53.605469 58.75 53.75 C 52.867188 59.050781 51.199219 65.386719 53.75 72.75 C 57.25 72.75 60.75 72.75 64.25 72.75 C 62.21875 73.507812 60.050781 73.925781 57.75 74 C 61.945312 75.03125 66.113281 74.945312 70.25 73.75 C 70.417969 74.082031 70.582031 74.417969 70.75 74.75 C 69.597656 75.03125 68.433594 75.28125 67.25 75.5 C 61.085938 75.75 54.917969 75.832031 48.75 75.75 C 49.472656 74.917969 50.472656 74.5 51.75 74.5 C 51.582031 74.332031 51.417969 74.167969 51.25 74 C 45.519531 73.242188 39.851562 72.160156 34.25 70.75 C 33.792969 70.773438 33.457031 70.9375 33.25 71.25 C 26.332031 64.734375 25.082031 57.234375 29.5 48.75 C 30.941406 46.476562 32.859375 44.726562 35.25 43.5 C 34.878906 42.980469 34.378906 42.730469 33.75 42.75 C 33.417969 42.25 33.082031 41.75 32.75 41.25 C 34.867188 39.515625 37.03125 37.765625 39.25 36 C 41.023438 35.613281 42.691406 34.945312 44.25 34 C 45.894531 33.585938 47.5625 33.335938 49.25 33.25 Z M 49.25 33.25 "/>
<path style=" stroke:none;fill-rule:evenodd;fill:rgb(47.843137%,47.45098%,49.803922%);fill-opacity:1;" d="M 9.75 56.75 C 12.382812 56.285156 14.632812 56.953125 16.5 58.75 C 18.851562 62.476562 20.1875 66.476562 20.5 70.75 C 19.867188 71.898438 18.953125 72.316406 17.75 72 C 13.144531 69.230469 9.808594 65.394531 7.75 60.5 C 7.964844 58.988281 8.628906 57.738281 9.75 56.75 Z M 9.75 56.75 "/>
<path style=" stroke:none;fill-rule:evenodd;fill:rgb(84.313725%,65.098039%,45.098039%);fill-opacity:1;" d="M 78.75 41.75 C 78.589844 42.410156 78.421875 43.074219 78.25 43.75 C 79.433594 45.519531 79.515625 47.355469 78.5 49.25 C 76.613281 49.808594 74.863281 50.476562 73.25 51.25 C 71.257812 49.925781 69.425781 48.425781 67.75 46.75 C 68.742188 46.691406 69.574219 47.023438 70.25 47.75 C 70.394531 47.398438 70.558594 47.066406 70.75 46.75 C 72.769531 48.511719 75.105469 49.261719 77.75 49 C 79.332031 46.210938 78.5 44.378906 75.25 43.5 C 76.429688 42.910156 77.597656 42.328125 78.75 41.75 Z M 78.75 41.75 "/>
<path style=" stroke:none;fill-rule:evenodd;fill:rgb(91.764706%,71.372549%,41.568627%);fill-opacity:1;" d="M 75.25 36.75 C 73.15625 36.796875 71.492188 37.628906 70.25 39.25 C 68.824219 40.253906 67.738281 41.585938 67 43.25 C 66.582031 44.585938 66.832031 45.753906 67.75 46.75 C 67.195312 47.472656 67.109375 48.304688 67.5 49.25 C 68.984375 51.816406 70.566406 54.316406 72.25 56.75 C 72.09375 57.367188 71.84375 57.367188 71.5 56.75 C 71.105469 57.371094 70.855469 58.039062 70.75 58.75 C 68.050781 54.070312 64.050781 52.402344 58.75 53.75 C 58.175781 53.605469 57.84375 53.1875 57.75 52.5 C 58.316406 51.320312 58.316406 50.152344 57.75 49 C 59.613281 46.980469 60.445312 44.5625 60.25 41.75 C 59.996094 40.230469 59.660156 38.730469 59.25 37.25 C 60.277344 38.464844 61.195312 39.796875 62 41.25 C 64.390625 37.941406 67.304688 35.273438 70.75 33.25 C 71.714844 32.878906 72.628906 32.378906 73.5 31.75 C 74.613281 32.558594 75.863281 32.890625 77.25 32.75 C 77.144531 33.570312 77.308594 34.320312 77.75 35 C 76.703125 35.367188 75.867188 35.953125 75.25 36.75 Z M 75.25 36.75 "/>
<path style=" stroke:none;fill-rule:evenodd;fill:rgb(56.470588%,37.254902%,20.392157%);fill-opacity:1;" d="M 74.25 38.25 C 72.140625 39.4375 70.222656 40.9375 68.5 42.75 C 68.167969 43.417969 68.167969 44.082031 68.5 44.75 C 69.332031 45.367188 70.082031 46.035156 70.75 46.75 C 70.558594 47.066406 70.394531 47.398438 70.25 47.75 C 69.574219 47.023438 68.742188 46.691406 67.75 46.75 C 66.832031 45.753906 66.582031 44.585938 67 43.25 C 67.738281 41.585938 68.824219 40.253906 70.25 39.25 C 71.441406 38.476562 72.773438 38.144531 74.25 38.25 Z M 74.25 38.25 "/>
<path style=" stroke:none;fill-rule:evenodd;fill:rgb(11.764706%,36.862745%,24.313725%);fill-opacity:1;" d="M 45.75 37.25 C 46.21875 37.785156 46.382812 38.449219 46.25 39.25 C 43.921875 39.007812 43.253906 39.925781 44.25 42 C 45.082031 42.332031 45.917969 42.332031 46.75 42 C 47.617188 40.679688 48.285156 39.265625 48.75 37.75 C 49.90625 37.210938 51.070312 37.210938 52.25 37.75 C 53.851562 39.859375 56.019531 40.859375 58.75 40.75 C 59.25 40.917969 59.582031 41.25 59.75 41.75 C 59.738281 42.964844 59.488281 44.128906 59 45.25 C 56.835938 47.050781 54.585938 48.71875 52.25 50.25 C 50.429688 49.910156 48.597656 49.660156 46.75 49.5 C 46.332031 49.082031 45.917969 48.667969 45.5 48.25 C 44.761719 46.078125 45.511719 44.910156 47.75 44.75 C 48.054688 45.195312 48.222656 45.695312 48.25 46.25 C 49.027344 46.957031 49.695312 47.789062 50.25 48.75 C 50.722656 48.992188 51.222656 49.160156 51.75 49.25 C 53.519531 47.710938 55.519531 46.460938 57.75 45.5 C 58.730469 44.34375 58.898438 43.09375 58.25 41.75 C 56.746094 41.367188 55.246094 40.949219 53.75 40.5 C 50.917969 37.09375 49.082031 37.511719 48.25 41.75 C 46.171875 43.863281 44.335938 43.699219 42.75 41.25 C 42.78125 39.214844 43.78125 37.882812 45.75 37.25 Z M 45.75 37.25 "/>
<path style=" stroke:none;fill-rule:evenodd;fill:rgb(86.666667%,93.333333%,86.666667%);fill-opacity:1;" d="M 48.25 46.25 C 48.222656 45.695312 48.054688 45.195312 47.75 44.75 C 47.597656 44.425781 47.429688 44.089844 47.25 43.75 C 47.816406 43.1875 48.148438 42.523438 48.25 41.75 C 49.082031 37.511719 50.917969 37.09375 53.75 40.5 C 55.246094 40.949219 56.746094 41.367188 58.25 41.75 C 58.898438 43.09375 58.730469 44.34375 57.75 45.5 C 55.519531 46.460938 53.519531 47.710938 51.75 49.25 C 51.222656 49.160156 50.722656 48.992188 50.25 48.75 C 49.695312 47.789062 49.027344 46.957031 48.25 46.25 Z M 48.25 46.25 "/>
<path style=" stroke:none;fill-rule:evenodd;fill:rgb(69.803922%,86.666667%,75.294118%);fill-opacity:1;" d="M 45.75 37.25 C 45.78125 36.976562 45.945312 36.8125 46.25 36.75 C 47.027344 39.347656 47.527344 39.347656 47.75 36.75 C 49.09375 36.667969 50.425781 36.75 51.75 37 C 52.027344 37.191406 52.195312 37.441406 52.25 37.75 C 51.070312 37.210938 49.90625 37.210938 48.75 37.75 C 48.285156 39.265625 47.617188 40.679688 46.75 42 C 45.917969 42.332031 45.082031 42.332031 44.25 42 C 43.253906 39.925781 43.921875 39.007812 46.25 39.25 C 46.382812 38.449219 46.21875 37.785156 45.75 37.25 Z M 45.75 37.25 "/>
<path style=" stroke:none;fill-rule:evenodd;fill:rgb(3.137255%,1.568627%,0.784314%);fill-opacity:1;" d="M 74.25 38.25 C 77.386719 37.398438 78.886719 38.566406 78.75 41.75 C 77.597656 42.328125 76.429688 42.910156 75.25 43.5 C 78.5 44.378906 79.332031 46.210938 77.75 49 C 75.105469 49.261719 72.769531 48.511719 70.75 46.75 C 70.082031 46.035156 69.332031 45.367188 68.5 44.75 C 68.167969 44.082031 68.167969 43.417969 68.5 42.75 C 70.222656 40.9375 72.140625 39.4375 74.25 38.25 Z M 74.25 38.25 "/>
<path style=" stroke:none;fill-rule:evenodd;fill:rgb(83.137255%,57.254902%,29.019608%);fill-opacity:1;" d="M 78.25 32.25 C 79.722656 32.113281 81.140625 32.277344 82.5 32.75 C 82.832031 39.917969 82.832031 47.082031 82.5 54.25 C 80.636719 54.730469 78.71875 54.898438 76.75 54.75 C 77.984375 54.339844 79.316406 54.089844 80.75 54 C 79.75 53.832031 78.75 53.667969 77.75 53.5 C 80.023438 53.46875 81.1875 52.300781 81.25 50 C 80.867188 47.5625 80.367188 45.144531 79.75 42.75 C 79.625 42.144531 79.292969 41.808594 78.75 41.75 C 78.886719 38.566406 77.386719 37.398438 74.25 38.25 C 72.773438 38.144531 71.441406 38.476562 70.25 39.25 C 71.492188 37.628906 73.15625 36.796875 75.25 36.75 C 76.960938 36.714844 78.460938 36.132812 79.75 35 C 78.355469 33.8125 78.523438 33.144531 80.25 33 C 79.472656 32.894531 78.804688 32.644531 78.25 32.25 Z M 78.25 32.25 "/>
<path style=" stroke:none;fill-rule:evenodd;fill:rgb(87.843137%,58.823529%,28.235294%);fill-opacity:1;" d="M 69.75 21.75 C 70.246094 21.707031 70.664062 21.875 71 22.25 C 71.355469 23.941406 72.4375 24.691406 74.25 24.5 C 72.847656 25.984375 71.847656 27.734375 71.25 29.75 C 70.886719 30.890625 70.722656 32.058594 70.75 33.25 C 67.304688 35.273438 64.390625 37.941406 62 41.25 C 61.195312 39.796875 60.277344 38.464844 59.25 37.25 C 58.894531 36.035156 58.394531 34.871094 57.75 33.75 C 57.929688 33.410156 58.097656 33.074219 58.25 32.75 C 63.261719 34.773438 67.34375 33.605469 70.5 29.25 C 70.992188 26.640625 70.742188 24.140625 69.75 21.75 Z M 69.75 21.75 "/>
<use xlink:href="#surface8" mask="url(#mask1)"/>
<path style=" stroke:none;fill-rule:evenodd;fill:rgb(82.352941%,64.313725%,40.784314%);fill-opacity:1;" d="M 46.25 84.75 C 43.792969 86.121094 41.128906 86.789062 38.25 86.75 C 38.128906 85.765625 38.296875 84.847656 38.75 84 C 40.917969 83.667969 43.082031 83.667969 45.25 84 C 45.707031 84.140625 46.042969 84.390625 46.25 84.75 Z M 46.25 84.75 "/>
<path style=" stroke:none;fill-rule:evenodd;fill:rgb(92.941176%,72.156863%,46.27451%);fill-opacity:1;" d="M 55.75 78.75 C 57.210938 79.03125 58.542969 79.617188 59.75 80.5 C 62.082031 80.832031 64.417969 80.832031 66.75 80.5 C 67.996094 79.835938 68.996094 78.917969 69.75 77.75 C 70.546875 76.65625 71.214844 76.65625 71.75 77.75 C 70.683594 82.398438 67.769531 84.730469 63 84.75 C 59.207031 84.789062 56.621094 83.039062 55.25 79.5 C 55.285156 79.117188 55.453125 78.867188 55.75 78.75 Z M 55.75 78.75 "/>
<path style=" stroke:none;fill-rule:evenodd;fill:rgb(71.764706%,43.529412%,21.568627%);fill-opacity:1;" d="M 69.75 77.75 C 68.996094 78.917969 67.996094 79.835938 66.75 80.5 C 64.417969 80.832031 62.082031 80.832031 59.75 80.5 C 58.542969 79.617188 57.210938 79.03125 55.75 78.75 C 60.34375 78.378906 65.011719 78.042969 69.75 77.75 Z M 69.75 77.75 "/>
<path style=" stroke:none;fill-rule:evenodd;fill:rgb(95.686275%,88.627451%,77.647059%);fill-opacity:1;" d="M 33.25 71.25 C 33.457031 70.9375 33.792969 70.773438 34.25 70.75 C 39.851562 72.160156 45.519531 73.242188 51.25 74 C 51.417969 74.167969 51.582031 74.332031 51.75 74.5 C 50.472656 74.5 49.472656 74.917969 48.75 75.75 C 42.921875 76.359375 37.753906 74.859375 33.25 71.25 Z M 33.25 71.25 "/>
<path style=" stroke:none;fill-rule:evenodd;fill:rgb(99.215686%,93.333333%,79.607843%);fill-opacity:1;" d="M 70.25 73.75 C 66.113281 74.945312 61.945312 75.03125 57.75 74 C 60.050781 73.925781 62.21875 73.507812 64.25 72.75 C 69.328125 72.214844 72.664062 69.550781 74.25 64.75 C 74.910156 64.664062 75.496094 64.832031 76 65.25 C 76.199219 69.476562 74.28125 72.308594 70.25 73.75 Z M 70.25 73.75 "/>
<path style=" stroke:none;fill-rule:evenodd;fill:rgb(81.176471%,73.333333%,67.45098%);fill-opacity:1;" d="M 86.25 60.75 C 86.917969 60.75 87.582031 60.75 88.25 60.75 C 88.25 62.582031 88.25 64.417969 88.25 66.25 C 85.597656 66.449219 83.347656 65.617188 81.5 63.75 C 81.253906 63.101562 81.171875 62.4375 81.25 61.75 C 83.019531 61.625 84.6875 61.289062 86.25 60.75 Z M 86.25 60.75 "/>
<path style=" stroke:none;fill-rule:evenodd;fill:rgb(81.176471%,72.941176%,66.27451%);fill-opacity:1;" d="M 87.75 55.75 C 89.082031 55.75 90.417969 55.75 91.75 55.75 C 91.90625 58.449219 90.570312 59.613281 87.75 59.25 C 87.75 58.082031 87.75 56.917969 87.75 55.75 Z M 87.75 55.75 "/>
<path style=" stroke:none;fill-rule:evenodd;fill:rgb(82.745098%,74.117647%,67.843137%);fill-opacity:1;" d="M 83.75 56.25 C 84.75 56.25 85.75 56.25 86.75 56.25 C 87.417969 59.25 86.25 60.417969 83.25 59.75 C 83.222656 58.546875 83.390625 57.382812 83.75 56.25 Z M 83.75 56.25 "/>
<path style=" stroke:none;fill-rule:evenodd;fill:rgb(88.627451%,80%,71.764706%);fill-opacity:1;" d="M 76.25 56.25 C 78.25 56.25 80.25 56.25 82.25 56.25 C 82.210938 57.601562 82.046875 58.9375 81.75 60.25 C 79.917969 60.25 78.082031 60.25 76.25 60.25 C 76.25 58.917969 76.25 57.582031 76.25 56.25 Z M 76.25 56.25 "/>
<path style=" stroke:none;fill-rule:evenodd;fill:rgb(48.627451%,41.176471%,32.941176%);fill-opacity:1;" d="M 84.25 51.25 C 84.25 52.082031 84.25 52.917969 84.25 53.75 C 85.25 53.75 86.25 53.75 87.25 53.75 C 86.195312 54.234375 85.03125 54.402344 83.75 54.25 C 83.601562 53.132812 83.769531 52.132812 84.25 51.25 Z M 84.25 51.25 "/>
<path style=" stroke:none;fill-rule:evenodd;fill:rgb(2.745098%,1.176471%,0.784314%);fill-opacity:1;" d="M 70.75 58.75 C 71.050781 61.617188 70.46875 64.28125 69 66.75 C 65.183594 70.410156 60.597656 71.996094 55.25 71.5 C 54.527344 71.6875 54.027344 72.105469 53.75 72.75 C 51.199219 65.386719 52.867188 59.050781 58.75 53.75 C 64.050781 52.402344 68.050781 54.070312 70.75 58.75 Z M 70.75 58.75 "/>
<path style=" stroke:none;fill-rule:evenodd;fill:rgb(98.431373%,94.117647%,83.529412%);fill-opacity:1;" d="M 37.75 53.25 C 41.042969 52.402344 43.042969 53.566406 43.75 56.75 C 43.308594 59.90625 42.390625 62.90625 41 65.75 C 37.730469 68.042969 34.898438 67.542969 32.5 64.25 C 31.105469 62.164062 30.941406 60 32 57.75 C 33.726562 55.9375 35.640625 54.4375 37.75 53.25 Z M 37.75 53.25 "/>
<path style=" stroke:none;fill-rule:evenodd;fill:rgb(92.941176%,73.333333%,53.333333%);fill-opacity:1;" d="M 87.25 53.75 C 86.25 53.75 85.25 53.75 84.25 53.75 C 84.25 52.917969 84.25 52.082031 84.25 51.25 C 84.144531 50.429688 84.308594 49.679688 84.75 49 C 85.90625 48.75 87.070312 48.667969 88.25 48.75 C 88.332031 50.09375 88.25 51.425781 88 52.75 C 87.859375 53.207031 87.609375 53.539062 87.25 53.75 Z M 87.25 53.75 "/>
<path style=" stroke:none;fill-rule:evenodd;fill:rgb(99.215686%,93.333333%,80%);fill-opacity:1;" d="M 67.75 46.75 C 69.425781 48.425781 71.257812 49.925781 73.25 51.25 C 74.695312 53.410156 74.363281 55.246094 72.25 56.75 C 70.566406 54.316406 68.984375 51.816406 67.5 49.25 C 67.109375 48.304688 67.195312 47.472656 67.75 46.75 Z M 67.75 46.75 "/>
<path style=" stroke:none;fill-rule:evenodd;fill:rgb(70.196078%,95.294118%,80.784314%);fill-opacity:1;" d="M 48.25 46.25 C 48.339844 46.847656 48.503906 47.429688 48.75 48 C 48.203125 49.558594 47.453125 49.644531 46.5 48.25 C 46.253906 47.433594 46.167969 46.597656 46.25 45.75 C 46.980469 45.714844 47.644531 45.882812 48.25 46.25 Z M 48.25 46.25 "/>
<path style=" stroke:none;fill-rule:evenodd;fill:rgb(50.196078%,37.254902%,25.098039%);fill-opacity:1;" d="M 88.25 38.75 C 88.917969 41.75 88.917969 44.75 88.25 47.75 C 88.25 46.25 88.25 44.75 88.25 43.25 C 87.75 43.25 87.25 43.25 86.75 43.25 C 86.75 43.082031 86.75 42.917969 86.75 42.75 C 87.25 42.75 87.75 42.75 88.25 42.75 C 88.25 41.417969 88.25 40.082031 88.25 38.75 Z M 88.25 38.75 "/>
<path style=" stroke:none;fill-rule:evenodd;fill:rgb(90.980392%,72.54902%,53.72549%);fill-opacity:1;" d="M 86.75 43.25 C 87.25 43.25 87.75 43.25 88.25 43.25 C 88.25 44.75 88.25 46.25 88.25 47.75 C 86.917969 47.75 85.582031 47.75 84.25 47.75 C 84.25 46.25 84.25 44.75 84.25 43.25 C 85.082031 43.25 85.917969 43.25 86.75 43.25 Z M 86.75 43.25 "/>
<path style=" stroke:none;fill-rule:evenodd;fill:rgb(91.372549%,72.941176%,52.156863%);fill-opacity:1;" d="M 88.25 38.75 C 88.25 40.082031 88.25 41.417969 88.25 42.75 C 87.75 42.75 87.25 42.75 86.75 42.75 C 85.929688 42.855469 85.179688 42.691406 84.5 42.25 C 83.453125 38.542969 84.703125 37.378906 88.25 38.75 Z M 88.25 38.75 "/>
<path style=" stroke:none;fill-rule:evenodd;fill:rgb(89.803922%,65.490196%,40.784314%);fill-opacity:1;" d="M 88.75 33.25 C 89.894531 33.121094 90.980469 33.289062 92 33.75 C 92.332031 39.75 92.332031 45.75 92 51.75 C 91.847656 53.4375 90.929688 54.105469 89.25 53.75 C 89.390625 46.898438 89.222656 40.066406 88.75 33.25 Z M 88.75 33.25 "/>
<path style=" stroke:none;fill-rule:evenodd;fill:rgb(85.490196%,61.960784%,43.137255%);fill-opacity:1;" d="M 84.25 32.25 C 85.296875 32.160156 86.296875 32.324219 87.25 32.75 C 88.089844 34.300781 88.425781 35.96875 88.25 37.75 C 86.917969 37.75 85.582031 37.75 84.25 37.75 C 84.25 35.917969 84.25 34.082031 84.25 32.25 Z M 84.25 32.25 "/>
<path style=" stroke:none;fill-rule:evenodd;fill:rgb(83.921569%,67.45098%,54.509804%);fill-opacity:1;" d="M 87.25 28.25 C 88.625 28.136719 89.957031 28.304688 91.25 28.75 C 91.816406 29.539062 91.898438 30.371094 91.5 31.25 C 88.449219 32.515625 87.03125 31.515625 87.25 28.25 Z M 87.25 28.25 "/>
<path style=" stroke:none;fill-rule:evenodd;fill:rgb(91.372549%,81.568627%,71.372549%);fill-opacity:1;" d="M 81.25 26.75 C 81.609375 27.882812 81.777344 29.046875 81.75 30.25 C 80.527344 30.738281 79.191406 30.902344 77.75 30.75 C 77.75 29.25 77.75 27.75 77.75 26.25 C 78.976562 26.148438 80.140625 26.316406 81.25 26.75 Z M 81.25 26.75 "/>
<path style=" stroke:none;fill-rule:evenodd;fill:rgb(80%,65.098039%,53.72549%);fill-opacity:1;" d="M 81.25 26.75 C 83.050781 27.175781 84.882812 27.507812 86.75 27.75 C 86.75 28.917969 86.75 30.082031 86.75 31.25 C 85.121094 31.492188 83.789062 30.992188 82.75 29.75 C 82.410156 29.929688 82.074219 30.097656 81.75 30.25 C 81.777344 29.046875 81.609375 27.882812 81.25 26.75 Z M 81.25 26.75 "/>
<path style=" stroke:none;fill-rule:evenodd;fill:rgb(17.254902%,10.980392%,12.941176%);fill-opacity:1;" d="M 26.75 36.75 C 28.261719 39.09375 29.761719 41.425781 31.25 43.75 C 24.410156 50.375 22.824219 58.210938 26.5 67.25 C 32.566406 77.363281 41.484375 81.363281 53.25 79.25 C 51.191406 81.480469 48.859375 83.3125 46.25 84.75 C 46.042969 84.390625 45.707031 84.140625 45.25 84 C 43.082031 83.667969 40.917969 83.667969 38.75 84 C 38.296875 84.847656 38.128906 85.765625 38.25 86.75 C 37.753906 86.835938 37.421875 86.667969 37.25 86.25 C 37.804688 85.527344 37.890625 84.695312 37.5 83.75 C 36.519531 82.613281 35.769531 81.363281 35.25 80 C 35.378906 79.335938 35.710938 78.835938 36.25 78.5 C 33.863281 76.929688 31.613281 75.179688 29.5 73.25 C 27.773438 71.523438 26.441406 69.523438 25.5 67.25 C 23.320312 61.414062 22.65625 55.414062 23.5 49.25 C 23.082031 48.832031 22.667969 48.417969 22.25 48 C 18.25 45.667969 14.25 45.667969 10.25 48 C 7.429688 51.222656 5.929688 54.972656 5.75 59.25 C 3.957031 55.507812 3.125 51.507812 3.25 47.25 C 3.074219 39.117188 5.160156 31.617188 9.5 24.75 C 11.476562 22.140625 13.894531 20.054688 16.75 18.5 C 20.34375 18.082031 22.59375 19.667969 23.5 23.25 C 22.996094 28.210938 24.078125 32.710938 26.75 36.75 Z M 26.75 36.75 "/>
<path style=" stroke:none;fill-rule:evenodd;fill:rgb(92.941176%,68.235294%,38.431373%);fill-opacity:1;" d="M 56.25 11.75 C 60.480469 11.523438 64.648438 11.859375 68.75 12.75 C 71.339844 14.082031 73.589844 15.917969 75.5 18.25 C 76.199219 20.855469 76.449219 23.519531 76.25 26.25 C 76.167969 27.925781 76.25 29.589844 76.5 31.25 C 76.90625 31.910156 77.492188 32.246094 78.25 32.25 C 78.804688 32.644531 79.472656 32.894531 80.25 33 C 78.523438 33.144531 78.355469 33.8125 79.75 35 C 78.460938 36.132812 76.960938 36.714844 75.25 36.75 C 75.867188 35.953125 76.703125 35.367188 77.75 35 C 77.308594 34.320312 77.144531 33.570312 77.25 32.75 C 75.863281 32.890625 74.613281 32.558594 73.5 31.75 C 72.628906 32.378906 71.714844 32.878906 70.75 33.25 C 70.722656 32.058594 70.886719 30.890625 71.25 29.75 C 71.847656 27.734375 72.847656 25.984375 74.25 24.5 C 72.4375 24.691406 71.355469 23.941406 71 22.25 C 70.664062 21.875 70.246094 21.707031 69.75 21.75 C 69.023438 20.109375 67.859375 18.859375 66.25 18 C 61.777344 16.46875 57.277344 15.21875 52.75 14.25 C 52.75 16.75 52.75 19.25 52.75 21.75 C 52.191406 19.011719 51.859375 16.179688 51.75 13.25 C 50.835938 12.972656 50 12.972656 49.25 13.25 C 48.652344 13.078125 48.652344 12.828125 49.25 12.5 C 51.675781 12.414062 54.007812 12.164062 56.25 11.75 Z M 56.25 11.75 "/>
<path style=" stroke:none;fill-rule:evenodd;fill:rgb(1.960784%,0.392157%,0.392157%);fill-opacity:1;" d="M 69.75 21.75 C 70.742188 24.140625 70.992188 26.640625 70.5 29.25 C 67.34375 33.605469 63.261719 34.773438 58.25 32.75 C 54.835938 29.921875 53.003906 26.253906 52.75 21.75 C 52.75 19.25 52.75 16.75 52.75 14.25 C 57.277344 15.21875 61.777344 16.46875 66.25 18 C 67.859375 18.859375 69.023438 20.109375 69.75 21.75 Z M 69.75 21.75 "/>
<path style=" stroke:none;fill-rule:evenodd;fill:rgb(93.72549%,74.901961%,46.666667%);fill-opacity:1;" d="M 56.25 11.75 C 54.007812 12.164062 51.675781 12.414062 49.25 12.5 C 48.652344 12.828125 48.652344 13.078125 49.25 13.25 C 50 12.972656 50.835938 12.972656 51.75 13.25 C 51.859375 16.179688 52.191406 19.011719 52.75 21.75 C 53.003906 26.253906 54.835938 29.921875 58.25 32.75 C 58.097656 33.074219 57.929688 33.410156 57.75 33.75 C 58.394531 34.871094 58.894531 36.035156 59.25 37.25 C 59.660156 38.730469 59.996094 40.230469 60.25 41.75 C 60.082031 41.75 59.917969 41.75 59.75 41.75 C 59.582031 41.25 59.25 40.917969 58.75 40.75 C 58.199219 40.300781 58.199219 39.886719 58.75 39.5 C 57.871094 39.398438 57.039062 39.148438 56.25 38.75 C 54.503906 36.171875 52.171875 34.339844 49.25 33.25 C 47.5625 33.335938 45.894531 33.585938 44.25 34 C 42.691406 34.945312 41.023438 35.613281 39.25 36 C 37.03125 37.765625 34.867188 39.515625 32.75 41.25 C 28.296875 36.460938 26.714844 30.796875 28 24.25 C 30.515625 17.902344 35.101562 13.820312 41.75 12 C 46.582031 11.75 51.414062 11.667969 56.25 11.75 Z M 56.25 11.75 "/>
<path style=" stroke:none;fill-rule:evenodd;fill:rgb(90.196078%,85.882353%,63.137255%);fill-opacity:1;" d="M 49.25 33.25 C 52.171875 34.339844 54.503906 36.171875 56.25 38.75 C 57.039062 39.148438 57.871094 39.398438 58.75 39.5 C 58.199219 39.886719 58.199219 40.300781 58.75 40.75 C 56.019531 40.859375 53.851562 39.859375 52.25 37.75 C 52.195312 37.441406 52.027344 37.191406 51.75 37 C 50.425781 36.75 49.09375 36.667969 47.75 36.75 C 47.527344 39.347656 47.027344 39.347656 46.25 36.75 C 45.945312 36.8125 45.78125 36.976562 45.75 37.25 C 43.78125 37.882812 42.78125 39.214844 42.75 41.25 C 42.125 40.320312 42.125 39.320312 42.75 38.25 C 42.488281 37.902344 42.152344 37.652344 41.75 37.5 C 42.351562 37.046875 42.765625 36.464844 43 35.75 C 43.152344 36.152344 43.402344 36.488281 43.75 36.75 C 44.214844 36.15625 44.382812 35.488281 44.25 34.75 C 45.761719 34.597656 47.261719 34.347656 48.75 34 C 49.027344 33.808594 49.195312 33.558594 49.25 33.25 Z M 49.25 33.25 "/>
<path style=" stroke:none;fill-rule:evenodd;fill:rgb(12.54902%,4.705882%,6.27451%);fill-opacity:1;" d="M 26.75 36.75 C 24.078125 32.710938 22.996094 28.210938 23.5 23.25 C 22.59375 19.667969 20.34375 18.082031 16.75 18.5 C 13.894531 20.054688 11.476562 22.140625 9.5 24.75 C 5.160156 31.617188 3.074219 39.117188 3.25 47.25 C 1.972656 35.011719 5.972656 24.761719 15.25 16.5 C 16.25 16 17.25 15.5 18.25 15 C 21.746094 9.839844 26.410156 6.171875 32.25 4 C 34.015625 3.546875 35.683594 3.714844 37.25 4.5 C 34.492188 5.046875 31.992188 6.128906 29.75 7.75 C 29.285156 8.34375 29.117188 9.011719 29.25 9.75 C 27.75 9.582031 27.082031 10.25 27.25 11.75 C 29.800781 11.621094 32.300781 11.621094 34.75 11.75 C 26.234375 18.125 23.570312 26.457031 26.75 36.75 Z M 26.75 36.75 "/>
<use xlink:href="#surface11" mask="url(#mask2)"/>
<path style=" stroke:none;fill-rule:evenodd;fill:rgb(73.333333%,57.647059%,47.843137%);fill-opacity:1;" d="M 86.25 22.75 C 87.242188 22.578125 87.910156 22.910156 88.25 23.75 C 88.25 24.417969 88.25 25.082031 88.25 25.75 C 87.25 25.75 86.25 25.75 85.25 25.75 C 85.125 24.570312 85.460938 23.570312 86.25 22.75 Z M 86.25 22.75 "/>
<path style=" stroke:none;fill-rule:evenodd;fill:rgb(71.764706%,61.176471%,53.333333%);fill-opacity:1;" d="M 82.75 22.75 C 84.453125 22.691406 85.121094 23.523438 84.75 25.25 C 83.917969 25.25 83.082031 25.25 82.25 25.25 C 80.996094 24.230469 81.164062 23.394531 82.75 22.75 Z M 82.75 22.75 "/>
<path style=" stroke:none;fill-rule:evenodd;fill:rgb(60.392157%,34.117647%,12.156863%);fill-opacity:1;" d="M 68.75 12.75 C 74.652344 13.363281 78.320312 16.53125 79.75 22.25 C 79.625 23.035156 79.289062 23.703125 78.75 24.25 C 77.300781 24.203125 76.464844 24.871094 76.25 26.25 C 76.449219 23.519531 76.199219 20.855469 75.5 18.25 C 73.589844 15.917969 71.339844 14.082031 68.75 12.75 Z M 68.75 12.75 "/>
<path style=" stroke:none;fill-rule:evenodd;fill:rgb(60%,33.72549%,18.431373%);fill-opacity:1;" d="M 67.75 3.75 C 70.332031 5.160156 71.664062 7.328125 71.75 10.25 C 69.894531 9.53125 67.980469 9.03125 66 8.75 C 62.773438 9.414062 59.523438 9.664062 56.25 9.5 C 55.972656 9.308594 55.804688 9.058594 55.75 8.75 C 57.421875 7.414062 59.253906 6.332031 61.25 5.5 C 63.277344 5.117188 65.277344 5.199219 67.25 5.75 C 68.351562 5.335938 68.515625 4.671875 67.75 3.75 Z M 67.75 3.75 "/>
<path style=" stroke:none;fill-rule:evenodd;fill:rgb(79.215686%,54.901961%,33.333333%);fill-opacity:1;" d="M 67.75 3.75 C 68.515625 4.671875 68.351562 5.335938 67.25 5.75 C 65.277344 5.199219 63.277344 5.117188 61.25 5.5 C 59.253906 6.332031 57.421875 7.414062 55.75 8.75 C 56.003906 5.90625 57.503906 3.988281 60.25 3 C 62.839844 2.546875 65.339844 2.796875 67.75 3.75 Z M 67.75 3.75 "/>
</g>
</svg>
