<?xml version="1.0" encoding="UTF-8"?>
<svg xmlns="http://www.w3.org/2000/svg" xmlns:xlink="http://www.w3.org/1999/xlink" width="px" height="px" viewBox="0 0 103 99" version="1.1">
<defs>
<filter id="alpha" filterUnits="objectBoundingBox" x="0%" y="0%" width="100%" height="100%">
  <feColorMatrix type="matrix" in="SourceGraphic" values="0 0 0 0 1 0 0 0 0 1 0 0 0 0 1 0 0 0 1 0"/>
</filter>
<mask id="mask0">
  <g filter="url(#alpha)">
<rect x="0" y="0" width="103" height="99" style="fill:rgb(0%,0%,0%);fill-opacity:0.941176;stroke:none;"/>
  </g>
</mask>
<clipPath id="clip1">
  <rect x="0" y="0" width="103" height="99"/>
</clipPath>
<g id="surface5" clip-path="url(#clip1)">
<path style=" stroke:none;fill-rule:evenodd;fill:rgb(3.137255%,2.745098%,4.313725%);fill-opacity:1;" d="M 102.75 28.894531 C 102.75 30.402344 102.75 31.910156 102.75 33.417969 C 102.253906 33.503906 101.921875 33.335938 101.75 32.917969 C 102.3125 31.972656 102.144531 31.050781 101.25 30.152344 C 99.921875 29.679688 98.589844 29.261719 97.25 28.894531 C 95.109375 28.390625 93.609375 29.058594 92.75 30.90625 C 92.179688 30.128906 91.679688 29.292969 91.25 28.394531 C 91.589844 23.457031 89.421875 20.1875 84.75 18.59375 C 76.585938 18.34375 68.417969 18.257812 60.25 18.34375 C 61.28125 17.703125 62.449219 17.28125 63.75 17.085938 C 67.007812 17 70.171875 16.75 73.25 16.332031 C 73.621094 16.398438 73.953125 16.316406 74.25 16.082031 C 71.621094 12.851562 68.285156 10.757812 64.25 9.800781 C 54.785156 8.773438 45.289062 8.523438 35.75 9.046875 C 34.488281 9.257812 33.488281 9.84375 32.75 10.804688 C 31.554688 11.691406 30.722656 12.863281 30.25 14.324219 C 29.285156 14.292969 28.367188 14.792969 27.5 15.828125 C 27.417969 15.664062 27.332031 15.496094 27.25 15.328125 C 28.058594 13.1875 29.058594 11.175781 30.25 9.296875 C 30.566406 8.042969 31.398438 7.371094 32.75 7.285156 C 42.054688 6.332031 51.386719 6.082031 60.75 6.53125 C 63.277344 7.011719 65.777344 7.597656 68.25 8.292969 C 69.71875 7.734375 71.136719 7.066406 72.5 6.28125 C 73.082031 6.625 73.664062 6.710938 74.25 6.53125 C 75.871094 2.453125 78.707031 1.28125 82.75 3.015625 C 84.367188 3.632812 85.699219 4.636719 86.75 6.03125 C 88.210938 6.527344 89.710938 6.863281 91.25 7.035156 C 92.132812 9.230469 91.632812 11.074219 89.75 12.5625 C 87.289062 13.097656 84.957031 13.933594 82.75 15.074219 C 89.058594 16.558594 92.808594 20.492188 94 26.886719 C 97.183594 26.246094 100.101562 26.917969 102.75 28.894531 Z M 102.75 28.894531 "/>
</g>
<mask id="mask1">
  <g filter="url(#alpha)">
<rect x="0" y="0" width="103" height="99" style="fill:rgb(0%,0%,0%);fill-opacity:0.0235294;stroke:none;"/>
  </g>
</mask>
<clipPath id="clip2">
  <rect x="0" y="0" width="103" height="99"/>
</clipPath>
<g id="surface8" clip-path="url(#clip2)">
<path style=" stroke:none;fill-rule:evenodd;fill:rgb(14.117647%,20%,26.666667%);fill-opacity:1;" d="M 102.75 27.386719 C 102.75 27.890625 102.75 28.394531 102.75 28.894531 C 100.101562 26.917969 97.183594 26.246094 94 26.886719 C 92.808594 20.492188 89.058594 16.558594 82.75 15.074219 C 84.957031 13.933594 87.289062 13.097656 89.75 12.5625 C 91.632812 11.074219 92.132812 9.230469 91.25 7.035156 C 89.710938 6.863281 88.210938 6.527344 86.75 6.03125 C 85.699219 4.636719 84.367188 3.632812 82.75 3.015625 C 78.707031 1.28125 75.871094 2.453125 74.25 6.53125 C 73.664062 6.710938 73.082031 6.625 72.5 6.28125 C 71.136719 7.066406 69.71875 7.734375 68.25 8.292969 C 65.777344 7.597656 63.277344 7.011719 60.75 6.53125 C 51.386719 6.082031 42.054688 6.332031 32.75 7.285156 C 34.230469 6.535156 35.8125 5.863281 37.5 5.277344 C 37.707031 5.507812 37.957031 5.675781 38.25 5.777344 C 43.183594 5.449219 48.097656 5.113281 53 4.773438 C 58.167969 4.683594 63.25 5.519531 68.25 7.285156 C 71.726562 6.046875 74.726562 4.121094 77.25 1.507812 C 78 1.257812 78.75 1.003906 79.5 0.753906 C 83.855469 2.804688 88.1875 4.816406 92.5 6.785156 C 93.179688 10.191406 91.929688 12.617188 88.75 14.070312 C 83.582031 14.429688 83.582031 15.265625 88.75 16.582031 C 91.640625 18.730469 93.640625 21.492188 94.75 24.875 C 97.421875 25.714844 100.085938 26.550781 102.75 27.386719 Z M 102.75 27.386719 "/>
</g>
<mask id="mask2">
  <g filter="url(#alpha)">
<rect x="0" y="0" width="103" height="99" style="fill:rgb(0%,0%,0%);fill-opacity:0.980392;stroke:none;"/>
  </g>
</mask>
<clipPath id="clip3">
  <rect x="0" y="0" width="103" height="99"/>
</clipPath>
<g id="surface11" clip-path="url(#clip3)">
<path style=" stroke:none;fill-rule:evenodd;fill:rgb(9.019608%,10.980392%,13.72549%);fill-opacity:1;" d="M 30.25 9.296875 C 29.058594 11.175781 28.058594 13.1875 27.25 15.328125 C 27.332031 15.496094 27.417969 15.664062 27.5 15.828125 C 28.367188 14.792969 29.285156 14.292969 30.25 14.324219 C 29.066406 16.699219 27.898438 19.046875 26.75 21.359375 C 26.390625 21.148438 26.140625 20.8125 26 20.351562 C 24.480469 21.914062 23.230469 23.921875 22.25 26.382812 C 22.195312 26.074219 22.027344 25.820312 21.75 25.628906 C 23.871094 21.046875 25.953125 16.4375 28 11.808594 C 28.523438 10.746094 29.273438 9.90625 30.25 9.296875 Z M 30.25 9.296875 "/>
</g>
<mask id="mask3">
  <g filter="url(#alpha)">
<rect x="0" y="0" width="103" height="99" style="fill:rgb(0%,0%,0%);fill-opacity:0.168627;stroke:none;"/>
  </g>
</mask>
<clipPath id="clip4">
  <rect x="0" y="0" width="103" height="99"/>
</clipPath>
<g id="surface14" clip-path="url(#clip4)">
<path style=" stroke:none;fill-rule:evenodd;fill:rgb(17.254902%,23.529412%,29.803922%);fill-opacity:1;" d="M 22.25 26.382812 C 21.714844 28 21.714844 29.59375 22.25 31.15625 C 21.261719 31.40625 20.261719 31.488281 19.25 31.410156 C 19.640625 30.492188 20.222656 30.15625 21 30.402344 C 21.050781 28.882812 21.464844 27.542969 22.25 26.382812 Z M 22.25 26.382812 "/>
</g>
<mask id="mask4">
  <g filter="url(#alpha)">
<rect x="0" y="0" width="103" height="99" style="fill:rgb(0%,0%,0%);fill-opacity:0.0470588;stroke:none;"/>
  </g>
</mask>
<clipPath id="clip5">
  <rect x="0" y="0" width="103" height="99"/>
</clipPath>
<g id="surface17" clip-path="url(#clip5)">
<path style=" stroke:none;fill-rule:evenodd;fill:rgb(16.078431%,21.960784%,28.235294%);fill-opacity:1;" d="M 19.25 31.410156 C 19.066406 34.050781 19.730469 36.5625 21.25 38.945312 C 19.140625 39.820312 16.972656 40.492188 14.75 40.957031 C 16.039062 39.914062 17.539062 39.242188 19.25 38.945312 C 19.417969 38.613281 19.582031 38.277344 19.75 37.941406 C 19.054688 36.242188 18.554688 34.484375 18.25 32.664062 C 18.34375 31.972656 18.675781 31.554688 19.25 31.410156 Z M 19.25 31.410156 "/>
</g>
<mask id="mask5">
  <g filter="url(#alpha)">
<rect x="0" y="0" width="103" height="99" style="fill:rgb(0%,0%,0%);fill-opacity:0.984314;stroke:none;"/>
  </g>
</mask>
<clipPath id="clip6">
  <rect x="0" y="0" width="103" height="99"/>
</clipPath>
<g id="surface20" clip-path="url(#clip6)">
<path style=" stroke:none;fill-rule:evenodd;fill:rgb(3.921569%,3.529412%,4.705882%);fill-opacity:1;" d="M 26.75 21.359375 C 25.765625 23.902344 24.933594 26.5 24.25 29.148438 C 24.371094 30.898438 25.039062 32.40625 26.25 33.671875 C 24.582031 33.835938 22.917969 34.003906 21.25 34.171875 C 22.082031 35.679688 22.917969 37.1875 23.75 38.695312 C 25.410156 38.945312 27.074219 39.03125 28.75 38.945312 C 31.117188 39.542969 33.453125 40.296875 35.75 41.207031 C 35.101562 41.453125 34.4375 41.539062 33.75 41.460938 C 24.582031 40.160156 16.25 42.171875 8.75 47.488281 C 6.757812 48.824219 4.925781 50.332031 3.25 52.011719 C 2.722656 52.085938 2.222656 52.003906 1.75 51.761719 C 3.371094 50.21875 4.703125 48.457031 5.75 46.484375 C 7.367188 45.511719 9.035156 45.089844 10.75 45.226562 C 11.730469 43.738281 13.0625 42.316406 14.75 40.957031 C 16.972656 40.492188 19.140625 39.820312 21.25 38.945312 C 19.730469 36.5625 19.066406 34.050781 19.25 31.410156 C 20.261719 31.488281 21.261719 31.40625 22.25 31.15625 C 21.714844 29.59375 21.714844 28 22.25 26.382812 C 23.230469 23.921875 24.480469 21.914062 26 20.351562 C 26.140625 20.8125 26.390625 21.148438 26.75 21.359375 Z M 26.75 21.359375 "/>
</g>
<mask id="mask6">
  <g filter="url(#alpha)">
<rect x="0" y="0" width="103" height="99" style="fill:rgb(0%,0%,0%);fill-opacity:0.168627;stroke:none;"/>
  </g>
</mask>
<clipPath id="clip7">
  <rect x="0" y="0" width="103" height="99"/>
</clipPath>
<g id="surface23" clip-path="url(#clip7)">
<path style=" stroke:none;fill-rule:evenodd;fill:rgb(13.72549%,20.392157%,25.098039%);fill-opacity:1;" d="M 12.25 53.519531 C 12.855469 52.875 13.519531 52.875 14.25 53.519531 C 13.15625 55.398438 12.40625 57.410156 12 59.550781 C 11.75 62.730469 11.667969 65.910156 11.75 69.097656 C 10.542969 64.285156 10.875 59.429688 12.75 54.523438 C 12.730469 54.066406 12.5625 53.730469 12.25 53.519531 Z M 12.25 53.519531 "/>
</g>
<mask id="mask7">
  <g filter="url(#alpha)">
<rect x="0" y="0" width="103" height="99" style="fill:rgb(0%,0%,0%);fill-opacity:0.980392;stroke:none;"/>
  </g>
</mask>
<clipPath id="clip8">
  <rect x="0" y="0" width="103" height="99"/>
</clipPath>
<g id="surface26" clip-path="url(#clip8)">
<path style=" stroke:none;fill-rule:evenodd;fill:rgb(5.490196%,6.666667%,8.627451%);fill-opacity:1;" d="M 14.75 40.957031 C 13.0625 42.316406 11.730469 43.738281 10.75 45.226562 C 9.035156 45.089844 7.367188 45.511719 5.75 46.484375 C 4.703125 48.457031 3.371094 50.21875 1.75 51.761719 C 2.222656 52.003906 2.722656 52.085938 3.25 52.011719 C 3.28125 52.285156 3.445312 52.453125 3.75 52.515625 C 8.617188 50.789062 13.617188 50.203125 18.75 50.757812 C 14.40625 55.835938 12.992188 61.613281 14.5 68.09375 C 16.039062 65.164062 17.707031 62.316406 19.5 59.550781 C 21.855469 56.5 24.773438 54.40625 28.25 53.269531 C 25.617188 55.386719 24.449219 58.148438 24.75 61.5625 C 24.390625 61.351562 24.140625 61.015625 24 60.554688 C 23.890625 61.277344 23.640625 61.949219 23.25 62.566406 C 22.957031 62.460938 22.707031 62.292969 22.5 62.0625 C 22.25 65.410156 22.167969 68.761719 22.25 72.113281 C 21.414062 69.160156 20.996094 66.144531 21 63.070312 C 18.730469 66.550781 16.648438 70.148438 14.75 73.875 C 14.417969 74.207031 14.082031 74.207031 13.75 73.875 C 12.253906 72.625 11.589844 71.035156 11.75 69.097656 C 11.667969 65.910156 11.75 62.730469 12 59.550781 C 12.40625 57.410156 13.15625 55.398438 14.25 53.519531 C 13.519531 52.875 12.855469 52.875 12.25 53.519531 C 8.125 54.449219 3.960938 55.121094 -0.25 55.53125 C -0.25 54.191406 -0.25 52.851562 -0.25 51.511719 C 2.855469 47.804688 6.523438 44.707031 10.75 42.214844 C 12.046875 41.640625 13.382812 41.222656 14.75 40.957031 Z M 14.75 40.957031 "/>
</g>
<mask id="mask8">
  <g filter="url(#alpha)">
<rect x="0" y="0" width="103" height="99" style="fill:rgb(0%,0%,0%);fill-opacity:0.00784314;stroke:none;"/>
  </g>
</mask>
<clipPath id="clip9">
  <rect x="0" y="0" width="103" height="99"/>
</clipPath>
<g id="surface29" clip-path="url(#clip9)">
<path style=" stroke:none;fill-rule:evenodd;fill:rgb(12.54902%,18.431373%,24.313725%);fill-opacity:1;" d="M 102.75 71.613281 C 102.75 71.945312 102.75 72.28125 102.75 72.617188 C 100.078125 73.808594 97.246094 74.480469 94.25 74.625 C 93.460938 76.382812 92.542969 78.058594 91.5 79.652344 C 90.679688 80.773438 89.597656 81.445312 88.25 81.664062 C 90.746094 79.585938 92.582031 76.992188 93.75 73.875 C 97.054688 74.109375 100.054688 73.355469 102.75 71.613281 Z M 102.75 71.613281 "/>
</g>
<mask id="mask9">
  <g filter="url(#alpha)">
<rect x="0" y="0" width="103" height="99" style="fill:rgb(0%,0%,0%);fill-opacity:0.972549;stroke:none;"/>
  </g>
</mask>
<clipPath id="clip10">
  <rect x="0" y="0" width="103" height="99"/>
</clipPath>
<g id="surface32" clip-path="url(#clip10)">
<path style=" stroke:none;fill-rule:evenodd;fill:rgb(5.490196%,5.098039%,5.882353%);fill-opacity:1;" d="M 102.75 65.582031 C 102.75 67.589844 102.75 69.601562 102.75 71.613281 C 100.054688 73.355469 97.054688 74.109375 93.75 73.875 C 92.582031 76.992188 90.746094 79.585938 88.25 81.664062 C 86.753906 82.339844 85.253906 83.09375 83.75 83.925781 C 86.28125 84.945312 88.78125 86.117188 91.25 87.441406 C 93.738281 91.070312 92.820312 93.328125 88.5 94.226562 C 88.113281 94.152344 87.78125 93.984375 87.5 93.722656 C 85.972656 95.515625 84.054688 96.519531 81.75 96.738281 C 78.996094 97.300781 76.828125 96.464844 75.25 94.226562 C 72.574219 93.898438 70.40625 92.722656 68.75 90.707031 C 68.828125 89.855469 68.746094 89.015625 68.5 88.195312 C 67.226562 89.003906 65.894531 89.671875 64.5 90.207031 C 64.269531 89.90625 64.183594 89.570312 64.25 89.199219 C 65.738281 88.785156 67.074219 88.117188 68.25 87.191406 C 69.738281 86.363281 71.070312 85.359375 72.25 84.175781 C 72.738281 84.019531 73.074219 83.683594 73.25 83.171875 C 66.386719 82.828125 59.550781 82.492188 52.75 82.164062 C 52.082031 81.996094 51.417969 81.828125 50.75 81.664062 C 50.804688 81.351562 50.972656 81.101562 51.25 80.910156 C 49.253906 80.175781 49.253906 79.589844 51.25 79.148438 C 52.847656 79.796875 54.515625 80.132812 56.25 80.15625 C 62.082031 80.15625 67.917969 80.15625 73.75 80.15625 C 73.75 79.484375 73.75 78.816406 73.75 78.144531 C 67.542969 78.300781 61.375 78.132812 55.25 77.640625 C 55.304688 77.332031 55.472656 77.082031 55.75 76.886719 C 57.742188 76.636719 59.742188 76.554688 61.75 76.636719 C 64.828125 76.972656 67.996094 77.140625 71.25 77.140625 C 75.277344 77.179688 79.277344 76.925781 83.25 76.386719 C 84.292969 75.988281 85.210938 75.402344 86 74.625 C 86.796875 72.789062 87.378906 70.945312 87.75 69.097656 C 89.316406 72.472656 88.816406 75.65625 86.25 78.648438 C 82.734375 79.101562 79.234375 78.933594 75.75 78.144531 C 75.644531 78.972656 75.808594 79.726562 76.25 80.40625 C 79.613281 80.796875 82.945312 80.628906 86.25 79.902344 C 88.386719 78.679688 89.886719 76.917969 90.75 74.625 C 91.605469 74.054688 91.941406 73.21875 91.75 72.113281 C 93.539062 72.792969 95.203125 72.625 96.75 71.613281 C 96.917969 71.613281 97.082031 71.613281 97.25 71.613281 C 98.28125 71.519531 99.28125 71.265625 100.25 70.859375 C 103.214844 68.367188 102.714844 67.445312 98.75 68.09375 C 98.1875 67.667969 98.1875 67.164062 98.75 66.585938 C 100.171875 66.554688 101.503906 66.222656 102.75 65.582031 Z M 102.75 65.582031 "/>
</g>
<mask id="mask10">
  <g filter="url(#alpha)">
<rect x="0" y="0" width="103" height="99" style="fill:rgb(0%,0%,0%);fill-opacity:0.929412;stroke:none;"/>
  </g>
</mask>
<clipPath id="clip11">
  <rect x="0" y="0" width="103" height="99"/>
</clipPath>
<g id="surface35" clip-path="url(#clip11)">
<path style=" stroke:none;fill-rule:evenodd;fill:rgb(3.137255%,4.313725%,5.490196%);fill-opacity:1;" d="M 41.75 56.03125 C 42.023438 56.0625 42.1875 56.230469 42.25 56.535156 C 41.550781 57.046875 40.882812 57.550781 40.25 58.042969 C 36.203125 59.605469 32.703125 61.949219 29.75 65.078125 C 28.417969 66.082031 27.25 67.257812 26.25 68.597656 C 24.878906 69.800781 24.464844 71.308594 25 73.121094 C 27.035156 78.800781 29.785156 84.078125 33.25 88.949219 C 39.019531 89.898438 44.851562 90.316406 50.75 90.207031 C 55.296875 90.300781 59.796875 89.96875 64.25 89.199219 C 64.183594 89.570312 64.269531 89.90625 64.5 90.207031 C 65.894531 89.671875 67.226562 89.003906 68.5 88.195312 C 68.746094 89.015625 68.828125 89.855469 68.75 90.707031 C 68.425781 90.554688 68.089844 90.386719 67.75 90.207031 C 65.964844 90.941406 64.132812 91.527344 62.25 91.964844 C 52.917969 92.214844 43.585938 92.300781 34.25 92.214844 C 32.835938 91.707031 31.585938 90.871094 30.5 89.703125 C 28.902344 86.824219 27.320312 83.976562 25.75 81.160156 C 23.808594 78.503906 22.644531 75.488281 22.25 72.113281 C 22.167969 68.761719 22.25 65.410156 22.5 62.0625 C 22.707031 62.292969 22.957031 62.460938 23.25 62.566406 C 23.640625 61.949219 23.890625 61.277344 24 60.554688 C 24.140625 61.015625 24.390625 61.351562 24.75 61.5625 C 24.59375 62.941406 24.761719 64.28125 25.25 65.582031 C 25.925781 65.234375 26.425781 64.734375 26.75 64.074219 C 29.222656 62.324219 31.722656 60.566406 34.25 58.796875 C 36.664062 57.582031 39.164062 56.660156 41.75 56.03125 Z M 41.75 56.03125 "/>
</g>
<mask id="mask11">
  <g filter="url(#alpha)">
<rect x="0" y="0" width="103" height="99" style="fill:rgb(0%,0%,0%);fill-opacity:0.0352941;stroke:none;"/>
  </g>
</mask>
<clipPath id="clip12">
  <rect x="0" y="0" width="103" height="99"/>
</clipPath>
<g id="surface38" clip-path="url(#clip12)">
<path style=" stroke:none;fill-rule:evenodd;fill:rgb(15.294118%,21.568627%,27.058824%);fill-opacity:1;" d="M 25.75 81.160156 C 27.320312 83.976562 28.902344 86.824219 30.5 89.703125 C 31.585938 90.871094 32.835938 91.707031 34.25 92.214844 C 32.488281 92.292969 31.070312 91.625 30 90.207031 C 28.164062 87.355469 26.75 84.339844 25.75 81.160156 Z M 25.75 81.160156 "/>
</g>
<mask id="mask12">
  <g filter="url(#alpha)">
<rect x="0" y="0" width="103" height="99" style="fill:rgb(0%,0%,0%);fill-opacity:0.00784314;stroke:none;"/>
  </g>
</mask>
<clipPath id="clip13">
  <rect x="0" y="0" width="103" height="99"/>
</clipPath>
<g id="surface41" clip-path="url(#clip13)">
<path style=" stroke:none;fill-rule:evenodd;fill:rgb(14.509804%,20.784314%,25.882353%);fill-opacity:1;" d="M 68.75 90.707031 C 70.40625 92.722656 72.574219 93.898438 75.25 94.226562 C 76.828125 96.464844 78.996094 97.300781 81.75 96.738281 C 79.183594 98.445312 76.851562 97.859375 74.75 94.980469 C 73.660156 94.898438 72.746094 94.480469 72 93.722656 C 71.832031 93.890625 71.667969 94.058594 71.5 94.226562 C 70.039062 93.28125 68.621094 92.277344 67.25 91.210938 C 65.632812 91.941406 63.964844 92.527344 62.25 92.96875 C 53.6875 93.132812 45.269531 93.21875 37 93.222656 C 36.027344 92.914062 35.109375 92.578125 34.25 92.214844 C 43.585938 92.300781 52.917969 92.214844 62.25 91.964844 C 64.132812 91.527344 65.964844 90.941406 67.75 90.207031 C 68.089844 90.386719 68.425781 90.554688 68.75 90.707031 Z M 68.75 90.707031 "/>
</g>
</defs>
<g id="surface1">
<use xlink:href="#surface5" mask="url(#mask0)"/>
<use xlink:href="#surface8" mask="url(#mask1)"/>
<path style=" stroke:none;fill-rule:evenodd;fill:rgb(6.666667%,5.882353%,5.882353%);fill-opacity:1;" d="M 81.25 5.277344 C 82.9375 6.199219 83.101562 7.371094 81.75 8.792969 C 83.449219 9.132812 85.113281 9.550781 86.75 10.050781 C 85.203125 11.25 83.535156 11.5 81.75 10.804688 C 79.007812 9.988281 78.257812 8.3125 79.5 5.777344 C 80.003906 5.359375 80.589844 5.191406 81.25 5.277344 Z M 81.25 5.277344 "/>
<path style=" stroke:none;fill-rule:evenodd;fill:rgb(67.058824%,65.882353%,64.705882%);fill-opacity:1;" d="M 81.75 4.773438 C 82.976562 5.421875 83.976562 6.34375 84.75 7.539062 C 86.324219 8.34375 87.992188 8.847656 89.75 9.046875 C 87.417969 11.417969 84.585938 12.339844 81.25 11.808594 C 81.417969 11.472656 81.582031 11.140625 81.75 10.804688 C 83.535156 11.5 85.203125 11.25 86.75 10.050781 C 85.113281 9.550781 83.449219 9.132812 81.75 8.792969 C 83.101562 7.371094 82.9375 6.199219 81.25 5.277344 C 81.582031 5.277344 81.75 5.109375 81.75 4.773438 Z M 81.75 4.773438 "/>
<path style=" stroke:none;fill-rule:evenodd;fill:rgb(90.980392%,87.058824%,83.137255%);fill-opacity:1;" d="M 81.75 4.773438 C 81.75 5.109375 81.582031 5.277344 81.25 5.277344 C 80.589844 5.191406 80.003906 5.359375 79.5 5.777344 C 78.257812 8.3125 79.007812 9.988281 81.75 10.804688 C 81.582031 11.140625 81.417969 11.472656 81.25 11.808594 C 80.582031 11.808594 79.917969 11.808594 79.25 11.808594 C 78.707031 11.828125 78.207031 11.996094 77.75 12.3125 C 77 11.683594 76.164062 11.179688 75.25 10.804688 C 74.855469 10.203125 74.855469 9.53125 75.25 8.792969 C 76.203125 7.375 77.203125 5.949219 78.25 4.523438 C 79.421875 4.355469 80.589844 4.4375 81.75 4.773438 Z M 81.75 4.773438 "/>
<path style=" stroke:none;fill-rule:evenodd;fill:rgb(92.941176%,86.666667%,79.607843%);fill-opacity:1;" d="M 47.25 19.851562 C 45.117188 21.453125 43.449219 23.464844 42.25 25.878906 C 41.511719 26.1875 40.84375 26.355469 40.25 26.382812 C 42.148438 28.117188 43.648438 30.128906 44.75 32.414062 C 41.191406 30.777344 37.941406 28.597656 35 25.878906 C 34.917969 26.046875 34.832031 26.214844 34.75 26.382812 C 37.605469 29.589844 40.605469 32.605469 43.75 35.429688 C 43.253906 35.472656 42.835938 35.304688 42.5 34.925781 C 42.28125 36.207031 41.53125 36.875 40.25 36.9375 C 39.171875 36.726562 38.171875 36.472656 37.25 36.183594 C 38.105469 36.875 38.773438 37.710938 39.25 38.695312 C 38.75 38.777344 38.25 38.863281 37.75 38.945312 C 34.300781 37.464844 30.800781 36.125 27.25 34.925781 C 27.007812 36.601562 27.507812 37.941406 28.75 38.945312 C 27.074219 39.03125 25.410156 38.945312 23.75 38.695312 C 22.917969 37.1875 22.082031 35.679688 21.25 34.171875 C 22.917969 34.003906 24.582031 33.835938 26.25 33.671875 C 25.039062 32.40625 24.371094 30.898438 24.25 29.148438 C 24.933594 26.5 25.765625 23.902344 26.75 21.359375 C 27.898438 19.046875 29.066406 16.699219 30.25 14.324219 C 30.722656 12.863281 31.554688 11.691406 32.75 10.804688 C 34.324219 10.59375 35.90625 10.425781 37.5 10.300781 C 43.078125 10.65625 48.660156 10.90625 54.25 11.054688 C 52.996094 11.101562 51.914062 11.519531 51 12.3125 C 50.054688 12.011719 49.140625 11.84375 48.25 11.808594 C 47.445312 12.792969 46.945312 13.96875 46.75 15.328125 C 45.761719 15.746094 44.761719 15.828125 43.75 15.578125 C 45.210938 16.792969 46.378906 18.21875 47.25 19.851562 Z M 47.25 19.851562 "/>
<path style=" stroke:none;fill-rule:evenodd;fill:rgb(84.313725%,78.039216%,70.588235%);fill-opacity:1;" d="M 64.25 9.800781 C 64.039062 10.164062 63.707031 10.414062 63.25 10.554688 C 65.488281 11.929688 67.652344 13.4375 69.75 15.074219 C 68.582031 15.410156 67.417969 15.410156 66.25 15.074219 C 64.109375 13.492188 61.773438 12.488281 59.25 12.0625 C 61.164062 12.9375 62.996094 13.945312 64.75 15.074219 C 61.640625 15.738281 58.804688 15.152344 56.25 13.316406 C 55.652344 13.492188 55.652344 13.742188 56.25 14.070312 C 57.449219 14.835938 58.617188 15.589844 59.75 16.332031 C 59.417969 16.332031 59.082031 16.332031 58.75 16.332031 C 57.40625 16.414062 56.074219 16.332031 54.75 16.082031 C 53.566406 14.890625 52.148438 14.136719 50.5 13.820312 C 50.082031 13.902344 49.667969 13.988281 49.25 14.070312 C 50.746094 15.058594 52.078125 16.148438 53.25 17.335938 C 51.007812 17.628906 49.007812 18.464844 47.25 19.851562 C 46.378906 18.21875 45.210938 16.792969 43.75 15.578125 C 44.761719 15.828125 45.761719 15.746094 46.75 15.328125 C 46.945312 13.96875 47.445312 12.792969 48.25 11.808594 C 49.140625 11.84375 50.054688 12.011719 51 12.3125 C 51.914062 11.519531 52.996094 11.101562 54.25 11.054688 C 48.660156 10.90625 43.078125 10.65625 37.5 10.300781 C 35.90625 10.425781 34.324219 10.59375 32.75 10.804688 C 33.488281 9.84375 34.488281 9.257812 35.75 9.046875 C 45.289062 8.523438 54.785156 8.773438 64.25 9.800781 Z M 64.25 9.800781 "/>
<path style=" stroke:none;fill-rule:evenodd;fill:rgb(73.72549%,69.019608%,64.705882%);fill-opacity:1;" d="M 75.25 8.792969 C 74.855469 9.53125 74.855469 10.203125 75.25 10.804688 C 76.164062 11.179688 77 11.683594 77.75 12.3125 C 78.207031 11.996094 78.707031 11.828125 79.25 11.808594 C 80.429688 14.566406 79.59375 15.820312 76.75 15.578125 C 75.066406 13.386719 73.234375 11.375 71.25 9.546875 C 71.417969 9.296875 71.582031 9.046875 71.75 8.792969 C 72.933594 9.457031 74.097656 9.457031 75.25 8.792969 Z M 75.25 8.792969 "/>
<use xlink:href="#surface11" mask="url(#mask2)"/>
<path style=" stroke:none;fill-rule:evenodd;fill:rgb(72.54902%,67.45098%,61.960784%);fill-opacity:1;" d="M 64.25 9.800781 C 68.285156 10.757812 71.621094 12.851562 74.25 16.082031 C 73.953125 16.316406 73.621094 16.398438 73.25 16.332031 C 68.75 16.332031 64.25 16.332031 59.75 16.332031 C 58.617188 15.589844 57.449219 14.835938 56.25 14.070312 C 55.652344 13.742188 55.652344 13.492188 56.25 13.316406 C 58.804688 15.152344 61.640625 15.738281 64.75 15.074219 C 62.996094 13.945312 61.164062 12.9375 59.25 12.0625 C 61.773438 12.488281 64.109375 13.492188 66.25 15.074219 C 67.417969 15.410156 68.582031 15.410156 69.75 15.074219 C 67.652344 13.4375 65.488281 11.929688 63.25 10.554688 C 63.707031 10.414062 64.039062 10.164062 64.25 9.800781 Z M 64.25 9.800781 "/>
<path style=" stroke:none;fill-rule:evenodd;fill:rgb(56.862745%,52.54902%,48.627451%);fill-opacity:1;" d="M 58.75 16.332031 C 56.96875 16.699219 55.136719 17.035156 53.25 17.335938 C 52.078125 16.148438 50.746094 15.058594 49.25 14.070312 C 49.667969 13.988281 50.082031 13.902344 50.5 13.820312 C 52.148438 14.136719 53.566406 14.890625 54.75 16.082031 C 56.074219 16.332031 57.40625 16.414062 58.75 16.332031 Z M 58.75 16.332031 "/>
<path style=" stroke:none;fill-rule:evenodd;fill:rgb(60%,55.294118%,50.588235%);fill-opacity:1;" d="M 80.75 25.378906 C 76.441406 22.503906 71.941406 22.167969 67.25 24.375 C 65.339844 24.039062 63.339844 23.871094 61.25 23.871094 C 53.992188 22.804688 49.660156 25.820312 48.25 32.917969 C 46.804688 31.195312 45.472656 29.355469 44.25 27.386719 C 44.515625 26.503906 45.015625 25.832031 45.75 25.378906 C 46.078125 25.828125 46.414062 26.332031 46.75 26.886719 C 48.667969 24.667969 51 23.074219 53.75 22.113281 C 61.082031 21.777344 68.417969 21.777344 75.75 22.113281 C 77.84375 22.425781 79.679688 23.261719 81.25 24.625 C 80.972656 24.816406 80.804688 25.066406 80.75 25.378906 Z M 80.75 25.378906 "/>
<path style=" stroke:none;fill-rule:evenodd;fill:rgb(67.843137%,60.784314%,54.117647%);fill-opacity:1;" d="M 58.25 18.84375 C 58.785156 18.375 59.449219 18.207031 60.25 18.34375 C 68.417969 18.257812 76.585938 18.34375 84.75 18.59375 C 89.421875 20.1875 91.589844 23.457031 91.25 28.394531 C 90.714844 30.339844 89.878906 32.179688 88.75 33.921875 C 88.3125 33.988281 87.976562 33.820312 87.75 33.417969 C 88.730469 29.808594 88.230469 26.457031 86.25 23.367188 C 86.660156 22.460938 86.324219 21.707031 85.25 21.105469 C 83.917969 20.605469 82.582031 20.101562 81.25 19.597656 C 73.597656 18.9375 65.933594 18.6875 58.25 18.84375 Z M 58.25 18.84375 "/>
<path style=" stroke:none;fill-rule:evenodd;fill:rgb(1.176471%,1.176471%,4.313725%);fill-opacity:1;" d="M 80.75 25.378906 C 82.925781 27.421875 83.675781 29.933594 83 32.917969 C 80.660156 40.164062 76.078125 42.257812 69.25 39.199219 C 66.625 36.851562 65.125 33.917969 64.75 30.402344 C 64.5 27.898438 65.332031 25.886719 67.25 24.375 C 71.941406 22.167969 76.441406 22.503906 80.75 25.378906 Z M 80.75 25.378906 "/>
<path style=" stroke:none;fill-rule:evenodd;fill:rgb(88.235294%,82.352941%,76.470588%);fill-opacity:1;" d="M 97.25 28.894531 C 97.652344 29.671875 97.816406 30.507812 97.75 31.410156 C 97.792969 31.910156 97.625 32.328125 97.25 32.664062 C 95.84375 33.441406 94.34375 33.863281 92.75 33.921875 C 92.75 32.917969 92.75 31.910156 92.75 30.90625 C 93.609375 29.058594 95.109375 28.390625 97.25 28.894531 Z M 97.25 28.894531 "/>
<path style=" stroke:none;fill-rule:evenodd;fill:rgb(94.901961%,87.843137%,80%);fill-opacity:1;" d="M 68.25 42.464844 C 68.605469 42.917969 69.105469 43.085938 69.75 42.96875 C 69.789062 43.59375 70.121094 44.015625 70.75 44.222656 C 69.5 44.289062 68.5 44.789062 67.75 45.730469 C 66.410156 45.960938 65.160156 46.378906 64 46.988281 C 63.3125 46.894531 62.894531 46.558594 62.75 45.980469 C 62.75 45.480469 62.75 44.976562 62.75 44.476562 C 62.25 44.476562 61.75 44.476562 61.25 44.476562 C 61.082031 45.480469 60.917969 46.484375 60.75 47.488281 C 60.28125 48.027344 60.117188 48.695312 60.25 49.5 C 59.75 49.5 59.25 49.5 58.75 49.5 C 58.828125 48.808594 58.746094 48.140625 58.5 47.488281 C 57.613281 46.628906 57.027344 45.625 56.75 44.476562 C 56.75 43.972656 56.75 43.46875 56.75 42.96875 C 56.660156 41.601562 56.410156 40.261719 56 38.945312 C 54.210938 36.285156 52.128906 33.855469 49.75 31.660156 C 52.632812 28.429688 56.132812 27.59375 60.25 29.148438 C 63.710938 32.671875 65.628906 36.945312 66 41.960938 C 66.679688 42.402344 67.429688 42.570312 68.25 42.464844 Z M 68.25 42.464844 "/>
<path style=" stroke:none;fill-rule:evenodd;fill:rgb(78.431373%,72.54902%,64.705882%);fill-opacity:1;" d="M 67.25 24.375 C 65.332031 25.886719 64.5 27.898438 64.75 30.402344 C 64.183594 31.472656 64.101562 32.644531 64.5 33.921875 C 65.546875 36.765625 66.964844 39.359375 68.75 41.710938 C 68.472656 41.902344 68.304688 42.152344 68.25 42.464844 C 67.429688 42.570312 66.679688 42.402344 66 41.960938 C 65.628906 36.945312 63.710938 32.671875 60.25 29.148438 C 56.132812 27.59375 52.632812 28.429688 49.75 31.660156 C 52.128906 33.855469 54.210938 36.285156 56 38.945312 C 56.410156 40.261719 56.660156 41.601562 56.75 42.96875 C 54.304688 39.335938 51.472656 35.984375 48.25 32.917969 C 49.660156 25.820312 53.992188 22.804688 61.25 23.871094 C 63.339844 23.871094 65.339844 24.039062 67.25 24.375 Z M 67.25 24.375 "/>
<use xlink:href="#surface14" mask="url(#mask3)"/>
<path style=" stroke:none;fill-rule:evenodd;fill:rgb(46.666667%,41.568627%,38.431373%);fill-opacity:1;" d="M 97.25 28.894531 C 98.589844 29.261719 99.921875 29.679688 101.25 30.152344 C 102.144531 31.050781 102.3125 31.972656 101.75 32.917969 C 100.234375 32.785156 98.902344 32.28125 97.75 31.410156 C 97.816406 30.507812 97.652344 29.671875 97.25 28.894531 Z M 97.25 28.894531 "/>
<path style=" stroke:none;fill-rule:evenodd;fill:rgb(94.117647%,88.235294%,81.176471%);fill-opacity:1;" d="M 86.25 23.367188 C 88.230469 26.457031 88.730469 29.808594 87.75 33.417969 C 87.976562 33.820312 88.3125 33.988281 88.75 33.921875 C 89.71875 34.105469 90.636719 34.441406 91.5 34.925781 C 91.589844 36.625 91.839844 38.300781 92.25 39.953125 C 92.542969 40.058594 92.792969 40.222656 93 40.453125 C 93.25 42.121094 93.332031 43.796875 93.25 45.480469 C 92.890625 45.269531 92.640625 44.933594 92.5 44.476562 C 92.332031 45.3125 92.167969 46.148438 92 46.988281 C 91.628906 47.558594 91.210938 47.558594 90.75 46.988281 C 90.402344 47.25 90.152344 47.585938 90 47.992188 C 89.9375 47.019531 89.523438 46.347656 88.75 45.980469 C 87.75 44.734375 86.414062 44.234375 84.75 44.476562 C 84.902344 44.148438 85.070312 43.8125 85.25 43.46875 C 84.464844 42.902344 83.628906 42.816406 82.75 43.21875 C 80.578125 44.527344 78.410156 45.78125 76.25 46.988281 C 75.601562 46.433594 75.351562 45.765625 75.5 44.976562 C 83.957031 40.246094 86.457031 33.375 83 24.375 C 82.179688 23.210938 81.097656 22.457031 79.75 22.113281 C 82.238281 20.910156 84.402344 21.328125 86.25 23.367188 Z M 86.25 23.367188 "/>
<path style=" stroke:none;fill-rule:evenodd;fill:rgb(43.137255%,38.039216%,35.294118%);fill-opacity:1;" d="M 98.75 34.425781 C 100.082031 34.589844 101.417969 34.757812 102.75 34.925781 C 102.75 36.097656 102.75 37.273438 102.75 38.445312 C 101.082031 38.613281 99.417969 38.777344 97.75 38.945312 C 98.105469 38.492188 98.605469 38.324219 99.25 38.445312 C 98.953125 37.125 98.789062 35.785156 98.75 34.425781 Z M 98.75 34.425781 "/>
<path style=" stroke:none;fill-rule:evenodd;fill:rgb(86.666667%,79.215686%,72.54902%);fill-opacity:1;" d="M 98.75 34.425781 C 98.789062 35.785156 98.953125 37.125 99.25 38.445312 C 98.605469 38.324219 98.105469 38.492188 97.75 38.945312 C 96.582031 38.945312 95.417969 38.945312 94.25 38.945312 C 93.582031 35.261719 95.082031 33.753906 98.75 34.425781 Z M 98.75 34.425781 "/>
<use xlink:href="#surface17" mask="url(#mask4)"/>
<path style=" stroke:none;fill-rule:evenodd;fill:rgb(75.686275%,69.411765%,61.960784%);fill-opacity:1;" d="M 58.25 18.84375 C 65.933594 18.6875 73.597656 18.9375 81.25 19.597656 C 82.582031 20.101562 83.917969 20.605469 85.25 21.105469 C 86.324219 21.707031 86.660156 22.460938 86.25 23.367188 C 84.402344 21.328125 82.238281 20.910156 79.75 22.113281 C 81.097656 22.457031 82.179688 23.210938 83 24.375 C 86.457031 33.375 83.957031 40.246094 75.5 44.976562 C 75.351562 45.765625 75.601562 46.433594 76.25 46.988281 C 77.160156 47.710938 77.324219 48.546875 76.75 49.5 C 74.734375 49.578125 73.152344 50.417969 72 52.011719 C 71.652344 51.414062 71.234375 50.910156 70.75 50.503906 C 71.78125 50.375 72.449219 49.789062 72.75 48.746094 C 72.332031 47.699219 72.332031 46.613281 72.75 45.480469 C 72.25 45.480469 71.75 45.480469 71.25 45.480469 C 72.316406 45.070312 73.480469 44.820312 74.75 44.726562 C 73.023438 44.273438 71.355469 43.6875 69.75 42.96875 C 69.105469 43.085938 68.605469 42.917969 68.25 42.464844 C 68.304688 42.152344 68.472656 41.902344 68.75 41.710938 C 66.964844 39.359375 65.546875 36.765625 64.5 33.921875 C 64.101562 32.644531 64.183594 31.472656 64.75 30.402344 C 65.125 33.917969 66.625 36.851562 69.25 39.199219 C 76.078125 42.257812 80.660156 40.164062 83 32.917969 C 83.675781 29.933594 82.925781 27.421875 80.75 25.378906 C 80.804688 25.066406 80.972656 24.816406 81.25 24.625 C 79.679688 23.261719 77.84375 22.425781 75.75 22.113281 C 68.417969 21.777344 61.082031 21.777344 53.75 22.113281 C 51 23.074219 48.667969 24.667969 46.75 26.886719 C 46.414062 26.332031 46.078125 25.828125 45.75 25.378906 C 48.695312 20.964844 52.863281 18.789062 58.25 18.84375 Z M 58.25 18.84375 "/>
<use xlink:href="#surface20" mask="url(#mask5)"/>
<path style=" stroke:none;fill-rule:evenodd;fill:rgb(58.039216%,53.72549%,50.196078%);fill-opacity:1;" d="M 44.75 32.414062 C 47.050781 34.980469 49.46875 37.492188 52 39.953125 C 53.523438 41.585938 54.4375 43.515625 54.75 45.730469 C 54.582031 46.316406 54.417969 46.902344 54.25 47.488281 C 51.335938 43.773438 47.503906 41.761719 42.75 41.460938 C 43.492188 40.789062 43.828125 40.121094 43.75 39.449219 C 45.011719 40.09375 46.34375 40.429688 47.75 40.453125 C 47.351562 38.042969 46.019531 36.367188 43.75 35.429688 C 40.605469 32.605469 37.605469 29.589844 34.75 26.382812 C 34.832031 26.214844 34.917969 26.046875 35 25.878906 C 37.941406 28.597656 41.191406 30.777344 44.75 32.414062 Z M 44.75 32.414062 "/>
<path style=" stroke:none;fill-rule:evenodd;fill:rgb(45.882353%,42.352941%,38.039216%);fill-opacity:1;" d="M 99.75 40.453125 C 100.75 40.453125 101.75 40.453125 102.75 40.453125 C 102.75 42.128906 102.75 43.804688 102.75 45.480469 C 102.082031 45.3125 101.417969 45.144531 100.75 44.976562 C 100.898438 43.339844 100.5625 41.835938 99.75 40.453125 Z M 99.75 40.453125 "/>
<path style=" stroke:none;fill-rule:evenodd;fill:rgb(92.156863%,84.313725%,76.470588%);fill-opacity:1;" d="M 33.75 41.460938 C 35.5 41.914062 37.332031 42.246094 39.25 42.464844 C 39.265625 45.160156 39.097656 47.839844 38.75 50.503906 C 37.570312 50.421875 36.40625 50.507812 35.25 50.757812 C 34.390625 51.539062 33.390625 51.957031 32.25 52.011719 C 32.503906 50.667969 32.585938 49.328125 32.5 47.992188 C 29.425781 46.117188 26.007812 45.277344 22.25 45.480469 C 17.789062 45.460938 13.539062 46.296875 9.5 47.992188 C 9.117188 47.957031 8.867188 47.789062 8.75 47.488281 C 16.25 42.171875 24.582031 40.160156 33.75 41.460938 Z M 33.75 41.460938 "/>
<path style=" stroke:none;fill-rule:evenodd;fill:rgb(89.803922%,81.568627%,73.72549%);fill-opacity:1;" d="M 99.75 40.453125 C 100.5625 41.835938 100.898438 43.339844 100.75 44.976562 C 96.042969 47.378906 94.378906 46.039062 95.75 40.957031 C 97.042969 40.507812 98.375 40.339844 99.75 40.453125 Z M 99.75 40.453125 "/>
<path style=" stroke:none;fill-rule:evenodd;fill:rgb(4.313725%,3.529412%,3.921569%);fill-opacity:1;" d="M 84.75 44.476562 C 86.414062 44.234375 87.75 44.734375 88.75 45.980469 C 88.5625 47.761719 87.5625 48.851562 85.75 49.25 C 86.878906 49.941406 87.960938 50.695312 89 51.511719 C 89.28125 52.917969 88.695312 53.835938 87.25 54.273438 C 86.199219 54.613281 85.199219 54.53125 84.25 54.023438 C 82.199219 52.554688 80.199219 50.960938 78.25 49.25 C 80.226562 47.335938 82.394531 45.746094 84.75 44.476562 Z M 84.75 44.476562 "/>
<path style=" stroke:none;fill-rule:evenodd;fill:rgb(80.784314%,73.333333%,65.882353%);fill-opacity:1;" d="M 43.75 35.429688 C 46.019531 36.367188 47.351562 38.042969 47.75 40.453125 C 46.34375 40.429688 45.011719 40.09375 43.75 39.449219 C 43.828125 40.121094 43.492188 40.789062 42.75 41.460938 C 41.488281 41.273438 40.488281 41.691406 39.75 42.714844 C 40.90625 43.046875 42.074219 43.300781 43.25 43.46875 C 45.265625 45.753906 47.015625 48.269531 48.5 51.007812 C 49.117188 52.796875 49.367188 54.640625 49.25 56.535156 C 47.101562 56.597656 45.019531 56.261719 43 55.53125 C 42.464844 55.542969 42.046875 55.710938 41.75 56.03125 C 39.164062 56.660156 36.664062 57.582031 34.25 58.796875 C 31.722656 60.566406 29.222656 62.324219 26.75 64.074219 C 30.5 58.582031 35.5 54.644531 41.75 52.265625 C 40.933594 51.347656 39.933594 50.761719 38.75 50.503906 C 39.097656 47.839844 39.265625 45.160156 39.25 42.464844 C 37.332031 42.246094 35.5 41.914062 33.75 41.460938 C 34.4375 41.539062 35.101562 41.453125 35.75 41.207031 C 33.453125 40.296875 31.117188 39.542969 28.75 38.945312 C 27.507812 37.941406 27.007812 36.601562 27.25 34.925781 C 30.800781 36.125 34.300781 37.464844 37.75 38.945312 C 38.25 38.863281 38.75 38.777344 39.25 38.695312 C 38.773438 37.710938 38.105469 36.875 37.25 36.183594 C 38.171875 36.472656 39.171875 36.726562 40.25 36.9375 C 41.53125 36.875 42.28125 36.207031 42.5 34.925781 C 42.835938 35.304688 43.253906 35.472656 43.75 35.429688 Z M 43.75 35.429688 "/>
<path style=" stroke:none;fill-rule:evenodd;fill:rgb(96.862745%,96.470588%,94.509804%);fill-opacity:1;" d="M 38.75 50.503906 C 39.933594 50.761719 40.933594 51.347656 41.75 52.265625 C 35.5 54.644531 30.5 58.582031 26.75 64.074219 C 26.425781 64.734375 25.925781 65.234375 25.25 65.582031 C 24.761719 64.28125 24.59375 62.941406 24.75 61.5625 C 24.449219 58.148438 25.617188 55.386719 28.25 53.269531 C 24.773438 54.40625 21.855469 56.5 19.5 59.550781 C 17.707031 62.316406 16.039062 65.164062 14.5 68.09375 C 12.992188 61.613281 14.40625 55.835938 18.75 50.757812 C 13.617188 50.203125 8.617188 50.789062 3.75 52.515625 C 3.445312 52.453125 3.28125 52.285156 3.25 52.011719 C 4.925781 50.332031 6.757812 48.824219 8.75 47.488281 C 8.867188 47.789062 9.117188 47.957031 9.5 47.992188 C 13.539062 46.296875 17.789062 45.460938 22.25 45.480469 C 26.007812 45.277344 29.425781 46.117188 32.5 47.992188 C 32.585938 49.328125 32.503906 50.667969 32.25 52.011719 C 33.390625 51.957031 34.390625 51.539062 35.25 50.757812 C 36.40625 50.507812 37.570312 50.421875 38.75 50.503906 Z M 38.75 50.503906 "/>
<path style=" stroke:none;fill-rule:evenodd;fill:rgb(5.490196%,5.098039%,4.705882%);fill-opacity:1;" d="M 58.75 16.332031 C 59.082031 16.332031 59.417969 16.332031 59.75 16.332031 C 64.25 16.332031 68.75 16.332031 73.25 16.332031 C 70.171875 16.75 67.007812 17 63.75 17.085938 C 62.449219 17.28125 61.28125 17.703125 60.25 18.34375 C 59.449219 18.207031 58.785156 18.375 58.25 18.84375 C 52.863281 18.789062 48.695312 20.964844 45.75 25.378906 C 45.015625 25.832031 44.515625 26.503906 44.25 27.386719 C 45.472656 29.355469 46.804688 31.195312 48.25 32.917969 C 51.472656 35.984375 54.304688 39.335938 56.75 42.96875 C 56.75 43.46875 56.75 43.972656 56.75 44.476562 C 56.90625 46.820312 56.574219 49.082031 55.75 51.257812 C 56.171875 53.5 56.339844 55.761719 56.25 58.042969 C 55.757812 60.179688 55.175781 62.355469 54.5 64.574219 C 54.039062 65.578125 53.453125 65.746094 52.75 65.078125 C 52.269531 64.34375 51.6875 63.675781 51 63.070312 C 48.496094 65.914062 46.414062 69.011719 44.75 72.367188 C 44.8125 73.183594 45.0625 73.9375 45.5 74.625 C 47.226562 76.449219 49.140625 77.957031 51.25 79.148438 C 49.253906 79.589844 49.253906 80.175781 51.25 80.910156 C 50.972656 81.101562 50.804688 81.351562 50.75 81.664062 C 50.304688 81.355469 49.804688 81.1875 49.25 81.160156 C 45.90625 78.972656 43.242188 76.125 41.25 72.617188 C 42.707031 70.523438 44.042969 68.34375 45.25 66.082031 C 46.277344 64.863281 47.195312 63.523438 48 62.0625 C 48.398438 61.179688 48.316406 60.339844 47.75 59.550781 C 46.257812 60.800781 44.839844 62.140625 43.5 63.570312 C 43.417969 63.402344 43.332031 63.234375 43.25 63.070312 C 44.644531 61.355469 45.976562 59.597656 47.25 57.792969 C 49.828125 58.105469 51.660156 59.53125 52.75 62.0625 C 56.292969 52.273438 53.125 46.078125 43.25 43.46875 C 42.074219 43.300781 40.90625 43.046875 39.75 42.714844 C 40.488281 41.691406 41.488281 41.273438 42.75 41.460938 C 47.503906 41.761719 51.335938 43.773438 54.25 47.488281 C 54.417969 46.902344 54.582031 46.316406 54.75 45.730469 C 54.4375 43.515625 53.523438 41.585938 52 39.953125 C 49.46875 37.492188 47.050781 34.980469 44.75 32.414062 C 43.648438 30.128906 42.148438 28.117188 40.25 26.382812 C 40.84375 26.355469 41.511719 26.1875 42.25 25.878906 C 43.449219 23.464844 45.117188 21.453125 47.25 19.851562 C 49.007812 18.464844 51.007812 17.628906 53.25 17.335938 C 55.136719 17.035156 56.96875 16.699219 58.75 16.332031 Z M 58.75 16.332031 "/>
<path style=" stroke:none;fill-rule:evenodd;fill:rgb(91.764706%,85.882353%,79.215686%);fill-opacity:1;" d="M 93.25 45.480469 C 92.445312 48.398438 92.613281 51.246094 93.75 54.023438 C 93.511719 56.179688 92.511719 57.855469 90.75 59.046875 C 92.347656 61.484375 92.011719 63.496094 89.75 65.078125 C 89.464844 66.601562 88.800781 67.941406 87.75 69.097656 C 87.378906 70.945312 86.796875 72.789062 86 74.625 C 85.210938 75.402344 84.292969 75.988281 83.25 76.386719 C 79.277344 76.925781 75.277344 77.179688 71.25 77.140625 C 67.996094 77.140625 64.828125 76.972656 61.75 76.636719 C 63.519531 76.792969 65.1875 76.625 66.75 76.132812 C 69.882812 76.332031 72.882812 75.996094 75.75 75.128906 C 76.417969 75.128906 77.082031 75.128906 77.75 75.128906 C 78.917969 75.535156 80.085938 75.367188 81.25 74.625 C 82.074219 73.546875 82.992188 72.542969 84 71.613281 C 84.636719 65.699219 82.886719 60.671875 78.75 56.535156 C 77.683594 55.304688 76.351562 54.464844 74.75 54.023438 C 72.585938 52.167969 72.921875 50.996094 75.75 50.503906 C 78.183594 51.332031 80.683594 52.671875 83.25 54.523438 C 83.589844 54.34375 83.925781 54.175781 84.25 54.023438 C 85.199219 54.53125 86.199219 54.613281 87.25 54.273438 C 88.695312 53.835938 89.28125 52.917969 89 51.511719 C 87.960938 50.695312 86.878906 49.941406 85.75 49.25 C 87.5625 48.851562 88.5625 47.761719 88.75 45.980469 C 89.523438 46.347656 89.9375 47.019531 90 47.992188 C 90.152344 47.585938 90.402344 47.25 90.75 46.988281 C 91.210938 47.558594 91.628906 47.558594 92 46.988281 C 92.167969 46.148438 92.332031 45.3125 92.5 44.476562 C 92.640625 44.933594 92.890625 45.269531 93.25 45.480469 Z M 93.25 45.480469 "/>
<path style=" stroke:none;fill-rule:evenodd;fill:rgb(85.882353%,79.607843%,72.54902%);fill-opacity:1;" d="M 101.25 47.488281 C 101.378906 49.382812 101.210938 51.226562 100.75 53.019531 C 99.03125 53.117188 97.363281 52.867188 95.75 52.265625 C 94.34375 50.609375 94.511719 49.101562 96.25 47.742188 C 97.910156 47.492188 99.574219 47.40625 101.25 47.488281 Z M 101.25 47.488281 "/>
<path style=" stroke:none;fill-rule:evenodd;fill:rgb(45.490196%,41.960784%,38.431373%);fill-opacity:1;" d="M 101.25 47.488281 C 101.75 47.488281 102.25 47.488281 102.75 47.488281 C 102.75 49.332031 102.75 51.175781 102.75 53.019531 C 102.082031 53.019531 101.417969 53.019531 100.75 53.019531 C 101.210938 51.226562 101.378906 49.382812 101.25 47.488281 Z M 101.25 47.488281 "/>
<path style=" stroke:none;fill-rule:evenodd;fill:rgb(66.27451%,60.784314%,54.901961%);fill-opacity:1;" d="M 43.25 43.46875 C 53.125 46.078125 56.292969 52.273438 52.75 62.0625 C 51.660156 59.53125 49.828125 58.105469 47.25 57.792969 C 45.976562 59.597656 44.644531 61.355469 43.25 63.070312 C 43.332031 63.234375 43.417969 63.402344 43.5 63.570312 C 44.839844 62.140625 46.257812 60.800781 47.75 59.550781 C 48.316406 60.339844 48.398438 61.179688 48 62.0625 C 47.195312 63.523438 46.277344 64.863281 45.25 66.082031 C 44.519531 65.324219 43.605469 64.820312 42.5 64.574219 C 39.316406 67.605469 36.316406 70.789062 33.5 74.125 C 33.167969 73.453125 33.167969 72.785156 33.5 72.113281 C 35.570312 69.621094 37.320312 66.941406 38.75 64.074219 C 39.863281 62.6875 40.863281 61.179688 41.75 59.550781 C 41.289062 59.015625 40.789062 59.015625 40.25 59.550781 C 40.25 59.046875 40.25 58.546875 40.25 58.042969 C 40.882812 57.550781 41.550781 57.046875 42.25 56.535156 C 42.1875 56.230469 42.023438 56.0625 41.75 56.03125 C 42.046875 55.710938 42.464844 55.542969 43 55.53125 C 45.019531 56.261719 47.101562 56.597656 49.25 56.535156 C 49.367188 54.640625 49.117188 52.796875 48.5 51.007812 C 47.015625 48.269531 45.265625 45.753906 43.25 43.46875 Z M 43.25 43.46875 "/>
<path style=" stroke:none;fill-rule:evenodd;fill:rgb(88.235294%,81.960784%,75.686275%);fill-opacity:1;" d="M 69.75 42.96875 C 71.355469 43.6875 73.023438 44.273438 74.75 44.726562 C 73.480469 44.820312 72.316406 45.070312 71.25 45.480469 C 70 46.320312 69 47.40625 68.25 48.746094 C 69.097656 49.335938 69.929688 49.921875 70.75 50.503906 C 71.234375 50.910156 71.652344 51.414062 72 52.011719 C 73.152344 50.417969 74.734375 49.578125 76.75 49.5 C 77.324219 48.546875 77.160156 47.710938 76.25 46.988281 C 78.410156 45.78125 80.578125 44.527344 82.75 43.21875 C 83.628906 42.816406 84.464844 42.902344 85.25 43.46875 C 85.070312 43.8125 84.902344 44.148438 84.75 44.476562 C 82.394531 45.746094 80.226562 47.335938 78.25 49.25 C 80.199219 50.960938 82.199219 52.554688 84.25 54.023438 C 83.925781 54.175781 83.589844 54.34375 83.25 54.523438 C 80.683594 52.671875 78.183594 51.332031 75.75 50.503906 C 72.921875 50.996094 72.585938 52.167969 74.75 54.023438 C 72.691406 54.042969 70.691406 54.378906 68.75 55.027344 C 67.539062 53.441406 66.203125 51.933594 64.75 50.503906 C 64.367188 51.070312 64.035156 51.660156 63.75 52.265625 C 61.746094 52.933594 59.746094 53.605469 57.75 54.273438 C 57.113281 54.765625 57.113281 55.183594 57.75 55.53125 C 57.613281 56.648438 57.113281 57.488281 56.25 58.042969 C 56.339844 55.761719 56.171875 53.5 55.75 51.257812 C 56.574219 49.082031 56.90625 46.820312 56.75 44.476562 C 57.027344 45.625 57.613281 46.628906 58.5 47.488281 C 58.746094 48.140625 58.828125 48.808594 58.75 49.5 C 59.25 49.5 59.75 49.5 60.25 49.5 C 60.117188 48.695312 60.28125 48.027344 60.75 47.488281 C 60.75 47.992188 60.75 48.496094 60.75 48.996094 C 61.25 48.996094 61.75 48.996094 62.25 48.996094 C 62.101562 47.875 62.269531 46.867188 62.75 45.980469 C 62.894531 46.558594 63.3125 46.894531 64 46.988281 C 65.160156 46.378906 66.410156 45.960938 67.75 45.730469 C 68.5 44.789062 69.5 44.289062 70.75 44.222656 C 70.121094 44.015625 69.789062 43.59375 69.75 42.96875 Z M 69.75 42.96875 "/>
<path style=" stroke:none;fill-rule:evenodd;fill:rgb(17.254902%,13.333333%,12.156863%);fill-opacity:1;" d="M 71.25 45.480469 C 71.75 45.480469 72.25 45.480469 72.75 45.480469 C 72.332031 46.613281 72.332031 47.699219 72.75 48.746094 C 72.449219 49.789062 71.78125 50.375 70.75 50.503906 C 69.929688 49.921875 69.097656 49.335938 68.25 48.746094 C 69 47.40625 70 46.320312 71.25 45.480469 Z M 71.25 45.480469 "/>
<path style=" stroke:none;fill-rule:evenodd;fill:rgb(15.294118%,12.941176%,11.372549%);fill-opacity:1;" d="M 62.75 45.980469 C 62.269531 46.867188 62.101562 47.875 62.25 48.996094 C 61.75 48.996094 61.25 48.996094 60.75 48.996094 C 60.75 48.496094 60.75 47.992188 60.75 47.488281 C 60.917969 46.484375 61.082031 45.480469 61.25 44.476562 C 61.75 44.476562 62.25 44.476562 62.75 44.476562 C 62.75 44.976562 62.75 45.480469 62.75 45.980469 Z M 62.75 45.980469 "/>
<path style=" stroke:none;fill-rule:evenodd;fill:rgb(7.45098%,6.27451%,6.27451%);fill-opacity:1;" d="M 91.25 28.394531 C 91.679688 29.292969 92.179688 30.128906 92.75 30.90625 C 92.75 31.910156 92.75 32.917969 92.75 33.921875 C 94.34375 33.863281 95.84375 33.441406 97.25 32.664062 C 97.625 32.328125 97.792969 31.910156 97.75 31.410156 C 98.902344 32.28125 100.234375 32.785156 101.75 32.917969 C 101.921875 33.335938 102.253906 33.503906 102.75 33.417969 C 102.75 33.921875 102.75 34.425781 102.75 34.925781 C 101.417969 34.757812 100.082031 34.589844 98.75 34.425781 C 95.082031 33.753906 93.582031 35.261719 94.25 38.945312 C 95.417969 38.945312 96.582031 38.945312 97.75 38.945312 C 99.417969 38.777344 101.082031 38.613281 102.75 38.445312 C 102.75 39.113281 102.75 39.785156 102.75 40.453125 C 101.75 40.453125 100.75 40.453125 99.75 40.453125 C 98.375 40.339844 97.042969 40.507812 95.75 40.957031 C 94.378906 46.039062 96.042969 47.378906 100.75 44.976562 C 101.417969 45.144531 102.082031 45.3125 102.75 45.480469 C 102.75 46.148438 102.75 46.820312 102.75 47.488281 C 102.25 47.488281 101.75 47.488281 101.25 47.488281 C 99.574219 47.40625 97.910156 47.492188 96.25 47.742188 C 94.511719 49.101562 94.34375 50.609375 95.75 52.265625 C 97.363281 52.867188 99.03125 53.117188 100.75 53.019531 C 101.417969 53.019531 102.082031 53.019531 102.75 53.019531 C 102.75 53.6875 102.75 54.359375 102.75 55.027344 C 102.082031 55.027344 101.417969 55.027344 100.75 55.027344 C 96.207031 53.398438 94.539062 54.90625 95.75 59.550781 C 97.023438 60.542969 98.355469 60.710938 99.75 60.054688 C 100.75 60.054688 101.75 60.054688 102.75 60.054688 C 102.75 60.890625 102.75 61.726562 102.75 62.566406 C 101.417969 62.566406 100.082031 62.566406 98.75 62.566406 C 97.226562 62.167969 95.726562 61.664062 94.25 61.058594 C 93.386719 62.785156 93.054688 64.628906 93.25 66.585938 C 94.347656 66.632812 95.429688 66.800781 96.5 67.089844 C 97.347656 67.144531 97.933594 66.8125 98.25 66.082031 C 98.582031 66.082031 98.75 66.25 98.75 66.585938 C 98.1875 67.164062 98.1875 67.667969 98.75 68.09375 C 98.578125 68.515625 98.246094 68.683594 97.75 68.597656 C 96.199219 68.5 94.699219 68.164062 93.25 67.589844 C 92.085938 70.917969 93.25 72.257812 96.75 71.613281 C 95.203125 72.625 93.539062 72.792969 91.75 72.113281 C 91.941406 73.21875 91.605469 74.054688 90.75 74.625 C 90.417969 71.445312 90.082031 68.261719 89.75 65.078125 C 92.011719 63.496094 92.347656 61.484375 90.75 59.046875 C 92.511719 57.855469 93.511719 56.179688 93.75 54.023438 C 92.613281 51.246094 92.445312 48.398438 93.25 45.480469 C 93.332031 43.796875 93.25 42.121094 93 40.453125 C 92.792969 40.222656 92.542969 40.058594 92.25 39.953125 C 91.839844 38.300781 91.589844 36.625 91.5 34.925781 C 90.636719 34.441406 89.71875 34.105469 88.75 33.921875 C 89.878906 32.179688 90.714844 30.339844 91.25 28.394531 Z M 91.25 28.394531 "/>
<path style=" stroke:none;fill-rule:evenodd;fill:rgb(10.196078%,9.411765%,9.019608%);fill-opacity:1;" d="M 68.75 55.027344 C 69.320312 55.449219 69.988281 55.785156 70.75 56.03125 C 71.714844 55.519531 72.714844 55.4375 73.75 55.78125 C 73.25 55.949219 72.75 56.117188 72.25 56.285156 C 72.417969 56.453125 72.582031 56.621094 72.75 56.785156 C 72.101562 57.03125 71.4375 57.117188 70.75 57.039062 C 69.554688 56.777344 68.386719 56.445312 67.25 56.03125 C 66.113281 55.480469 65.03125 54.8125 64 54.023438 C 61.964844 54.75 59.882812 55.253906 57.75 55.53125 C 57.113281 55.183594 57.113281 54.765625 57.75 54.273438 C 59.746094 53.605469 61.746094 52.933594 63.75 52.265625 C 64.035156 51.660156 64.367188 51.070312 64.75 50.503906 C 66.203125 51.933594 67.539062 53.441406 68.75 55.027344 Z M 68.75 55.027344 "/>
<path style=" stroke:none;fill-rule:evenodd;fill:rgb(32.54902%,29.803922%,28.235294%);fill-opacity:1;" d="M 74.75 54.023438 C 76.351562 54.464844 77.683594 55.304688 78.75 56.535156 C 77.277344 56.050781 75.777344 55.964844 74.25 56.285156 C 73.875 56.621094 73.707031 57.039062 73.75 57.539062 C 72.855469 57.472656 72.019531 57.640625 71.25 58.042969 C 71.082031 57.707031 70.917969 57.375 70.75 57.039062 C 71.4375 57.117188 72.101562 57.03125 72.75 56.785156 C 72.582031 56.621094 72.417969 56.453125 72.25 56.285156 C 72.75 56.117188 73.25 55.949219 73.75 55.78125 C 72.714844 55.4375 71.714844 55.519531 70.75 56.03125 C 69.988281 55.785156 69.320312 55.449219 68.75 55.027344 C 70.691406 54.378906 72.691406 54.042969 74.75 54.023438 Z M 74.75 54.023438 "/>
<path style=" stroke:none;fill-rule:evenodd;fill:rgb(89.019608%,83.529412%,76.862745%);fill-opacity:1;" d="M 100.75 55.027344 C 100.730469 56.78125 100.398438 58.457031 99.75 60.054688 C 98.355469 60.710938 97.023438 60.542969 95.75 59.550781 C 94.539062 54.90625 96.207031 53.398438 100.75 55.027344 Z M 100.75 55.027344 "/>
<path style=" stroke:none;fill-rule:evenodd;fill:rgb(64.313725%,63.137255%,58.039216%);fill-opacity:1;" d="M 78.75 56.535156 C 82.886719 60.671875 84.636719 65.699219 84 71.613281 C 82.992188 72.542969 82.074219 73.546875 81.25 74.625 C 80.085938 75.367188 78.917969 75.535156 77.75 75.128906 C 82.261719 73.085938 83.84375 69.570312 82.5 64.574219 C 81.144531 60.253906 78.230469 57.910156 73.75 57.539062 C 73.707031 57.039062 73.875 56.621094 74.25 56.285156 C 75.777344 55.964844 77.277344 56.050781 78.75 56.535156 Z M 78.75 56.535156 "/>
<path style=" stroke:none;fill-rule:evenodd;fill:rgb(0.784314%,0.392157%,3.529412%);fill-opacity:1;" d="M 73.75 57.539062 C 78.230469 57.910156 81.144531 60.253906 82.5 64.574219 C 83.84375 69.570312 82.261719 73.085938 77.75 75.128906 C 77.082031 75.128906 76.417969 75.128906 75.75 75.128906 C 73.75 75.128906 71.75 75.128906 69.75 75.128906 C 66.304688 73.996094 64.636719 71.566406 64.75 67.84375 C 65.058594 63.273438 67.226562 60.003906 71.25 58.042969 C 72.019531 57.640625 72.855469 57.472656 73.75 57.539062 Z M 73.75 57.539062 "/>
<path style=" stroke:none;fill-rule:evenodd;fill:rgb(39.215686%,36.078431%,32.54902%);fill-opacity:1;" d="M 100.75 55.027344 C 101.417969 55.027344 102.082031 55.027344 102.75 55.027344 C 102.75 56.703125 102.75 58.378906 102.75 60.054688 C 101.75 60.054688 100.75 60.054688 99.75 60.054688 C 100.398438 58.457031 100.730469 56.78125 100.75 55.027344 Z M 100.75 55.027344 "/>
<use xlink:href="#surface23" mask="url(#mask6)"/>
<path style=" stroke:none;fill-rule:evenodd;fill:rgb(79.607843%,71.372549%,60.784314%);fill-opacity:1;" d="M 40.25 58.042969 C 40.25 58.546875 40.25 59.046875 40.25 59.550781 C 36.644531 61.160156 33.144531 63 29.75 65.078125 C 32.703125 61.949219 36.203125 59.605469 40.25 58.042969 Z M 40.25 58.042969 "/>
<path style=" stroke:none;fill-rule:evenodd;fill:rgb(90.980392%,83.529412%,77.254902%);fill-opacity:1;" d="M 98.75 62.566406 C 98.851562 63.796875 98.683594 64.96875 98.25 66.082031 C 97.933594 66.8125 97.347656 67.144531 96.5 67.089844 C 95.429688 66.800781 94.347656 66.632812 93.25 66.585938 C 93.054688 64.628906 93.386719 62.785156 94.25 61.058594 C 95.726562 61.664062 97.226562 62.167969 98.75 62.566406 Z M 98.75 62.566406 "/>
<path style=" stroke:none;fill-rule:evenodd;fill:rgb(41.960784%,37.254902%,34.509804%);fill-opacity:1;" d="M 98.75 62.566406 C 100.082031 62.566406 101.417969 62.566406 102.75 62.566406 C 102.75 63.570312 102.75 64.574219 102.75 65.582031 C 101.503906 66.222656 100.171875 66.554688 98.75 66.585938 C 98.75 66.25 98.582031 66.082031 98.25 66.082031 C 98.683594 64.96875 98.851562 63.796875 98.75 62.566406 Z M 98.75 62.566406 "/>
<path style=" stroke:none;fill-rule:evenodd;fill:rgb(92.54902%,87.45098%,80.392157%);fill-opacity:1;" d="M 67.25 56.03125 C 66.441406 57.488281 65.777344 58.996094 65.25 60.554688 C 64.324219 63.074219 63.242188 65.585938 62 68.09375 C 60.984375 69.699219 59.734375 71.039062 58.25 72.113281 C 56.386719 69.574219 54.054688 67.5625 51.25 66.082031 C 51.644531 65.632812 52.144531 65.296875 52.75 65.078125 C 53.453125 65.746094 54.039062 65.578125 54.5 64.574219 C 55.175781 62.355469 55.757812 60.179688 56.25 58.042969 C 57.113281 57.488281 57.613281 56.648438 57.75 55.53125 C 59.882812 55.253906 61.964844 54.75 64 54.023438 C 65.03125 54.8125 66.113281 55.480469 67.25 56.03125 Z M 67.25 56.03125 "/>
<path style=" stroke:none;fill-rule:evenodd;fill:rgb(91.372549%,87.058824%,80.392157%);fill-opacity:1;" d="M 38.75 64.074219 C 38.417969 63.460938 38.085938 62.792969 37.75 62.0625 C 34.425781 65.15625 31.175781 68.335938 28 71.613281 C 27.753906 70.621094 27.667969 69.613281 27.75 68.597656 C 27.25 68.597656 26.75 68.597656 26.25 68.597656 C 27.25 67.257812 28.417969 66.082031 29.75 65.078125 C 33.144531 63 36.644531 61.160156 40.25 59.550781 C 40.789062 59.015625 41.289062 59.015625 41.75 59.550781 C 40.863281 61.179688 39.863281 62.6875 38.75 64.074219 Z M 38.75 64.074219 "/>
<use xlink:href="#surface26" mask="url(#mask7)"/>
<path style=" stroke:none;fill-rule:evenodd;fill:rgb(98.039216%,96.862745%,95.294118%);fill-opacity:1;" d="M 51.25 66.082031 C 54.054688 67.5625 56.386719 69.574219 58.25 72.113281 C 59.601562 72.847656 61.101562 73.269531 62.75 73.371094 C 64.046875 74.433594 65.378906 75.355469 66.75 76.132812 C 65.1875 76.625 63.519531 76.792969 61.75 76.636719 C 59.742188 76.554688 57.742188 76.636719 55.75 76.886719 C 55.472656 77.082031 55.304688 77.332031 55.25 77.640625 C 55.25 77.808594 55.25 77.976562 55.25 78.144531 C 52.214844 77.191406 49.632812 75.515625 47.5 73.121094 C 47.824219 70.289062 49.074219 67.945312 51.25 66.082031 Z M 51.25 66.082031 "/>
<path style=" stroke:none;fill-rule:evenodd;fill:rgb(86.27451%,78.823529%,74.117647%);fill-opacity:1;" d="M 97.75 68.597656 C 97.835938 69.664062 97.671875 70.667969 97.25 71.613281 C 97.082031 71.613281 96.917969 71.613281 96.75 71.613281 C 93.25 72.257812 92.085938 70.917969 93.25 67.589844 C 94.699219 68.164062 96.199219 68.5 97.75 68.597656 Z M 97.75 68.597656 "/>
<path style=" stroke:none;fill-rule:evenodd;fill:rgb(41.960784%,39.607843%,40%);fill-opacity:1;" d="M 98.75 68.09375 C 102.714844 67.445312 103.214844 68.367188 100.25 70.859375 C 99.28125 71.265625 98.28125 71.519531 97.25 71.613281 C 97.671875 70.667969 97.835938 69.664062 97.75 68.597656 C 98.246094 68.683594 98.578125 68.515625 98.75 68.09375 Z M 98.75 68.09375 "/>
<path style=" stroke:none;fill-rule:evenodd;fill:rgb(79.607843%,73.333333%,67.058824%);fill-opacity:1;" d="M 65.25 60.554688 C 65.402344 60.882812 65.570312 61.21875 65.75 61.5625 C 63.164062 65.730469 63.164062 69.832031 65.75 73.875 C 66.902344 74.847656 68.238281 75.265625 69.75 75.128906 C 71.75 75.128906 73.75 75.128906 75.75 75.128906 C 72.882812 75.996094 69.882812 76.332031 66.75 76.132812 C 65.378906 75.355469 64.046875 74.433594 62.75 73.371094 C 61.101562 73.269531 59.601562 72.847656 58.25 72.113281 C 59.734375 71.039062 60.984375 69.699219 62 68.09375 C 63.242188 65.585938 64.324219 63.074219 65.25 60.554688 Z M 65.25 60.554688 "/>
<path style=" stroke:none;fill-rule:evenodd;fill:rgb(68.627451%,61.568627%,55.686275%);fill-opacity:1;" d="M 67.25 56.03125 C 68.386719 56.445312 69.554688 56.777344 70.75 57.039062 C 70.917969 57.375 71.082031 57.707031 71.25 58.042969 C 67.226562 60.003906 65.058594 63.273438 64.75 67.84375 C 64.636719 71.566406 66.304688 73.996094 69.75 75.128906 C 68.238281 75.265625 66.902344 74.847656 65.75 73.875 C 63.164062 69.832031 63.164062 65.730469 65.75 61.5625 C 65.570312 61.21875 65.402344 60.882812 65.25 60.554688 C 65.777344 58.996094 66.441406 57.488281 67.25 56.03125 Z M 67.25 56.03125 "/>
<path style=" stroke:none;fill-rule:evenodd;fill:rgb(95.686275%,94.901961%,92.156863%);fill-opacity:1;" d="M 38.75 64.074219 C 37.320312 66.941406 35.570312 69.621094 33.5 72.113281 C 33.167969 72.785156 33.167969 73.453125 33.5 74.125 C 36.316406 70.789062 39.316406 67.605469 42.5 64.574219 C 43.605469 64.820312 44.519531 65.324219 45.25 66.082031 C 44.042969 68.34375 42.707031 70.523438 41.25 72.617188 C 39.453125 74.464844 37.953125 76.558594 36.75 78.898438 C 36.832031 79.148438 36.917969 79.402344 37 79.652344 C 38.164062 77.878906 39.75 76.875 41.75 76.636719 C 41.75 77.476562 41.75 78.3125 41.75 79.148438 C 42.335938 79.039062 42.835938 79.207031 43.25 79.652344 C 42.703125 80.957031 41.871094 82.042969 40.75 82.917969 C 42.3125 82.042969 44.0625 81.457031 46 81.160156 C 46.1875 81.621094 46.4375 82.039062 46.75 82.417969 C 46.105469 83.566406 45.273438 84.574219 44.25 85.429688 C 46.566406 84.867188 48.234375 83.441406 49.25 81.160156 C 49.804688 81.1875 50.304688 81.355469 50.75 81.664062 C 51.417969 81.828125 52.082031 81.996094 52.75 82.164062 C 52.058594 83.621094 51.058594 84.875 49.75 85.933594 C 50.957031 86.175781 52.121094 86.007812 53.25 85.429688 C 55.636719 82.863281 56.96875 83.117188 57.25 86.183594 C 58.839844 85.84375 60.089844 85.003906 61 83.671875 C 61.777344 84.113281 62.609375 84.113281 63.5 83.671875 C 63.917969 83.757812 64.332031 83.839844 64.75 83.925781 C 63.339844 85.21875 61.839844 86.390625 60.25 87.441406 C 60.910156 87.539062 61.578125 87.457031 62.25 87.191406 C 64.25 87.191406 66.25 87.191406 68.25 87.191406 C 67.074219 88.117188 65.738281 88.785156 64.25 89.199219 C 59.796875 89.96875 55.296875 90.300781 50.75 90.207031 C 44.851562 90.316406 39.019531 89.898438 33.25 88.949219 C 29.785156 84.078125 27.035156 78.800781 25 73.121094 C 24.464844 71.308594 24.878906 69.800781 26.25 68.597656 C 26.75 68.597656 27.25 68.597656 27.75 68.597656 C 27.667969 69.613281 27.753906 70.621094 28 71.613281 C 31.175781 68.335938 34.425781 65.15625 37.75 62.0625 C 38.085938 62.792969 38.417969 63.460938 38.75 64.074219 Z M 38.75 64.074219 "/>
<path style=" stroke:none;fill-rule:evenodd;fill:rgb(67.843137%,62.745098%,56.862745%);fill-opacity:1;" d="M 52.75 65.078125 C 52.144531 65.296875 51.644531 65.632812 51.25 66.082031 C 49.074219 67.945312 47.824219 70.289062 47.5 73.121094 C 49.632812 75.515625 52.214844 77.191406 55.25 78.144531 C 55.527344 78.792969 56.027344 79.210938 56.75 79.402344 C 56.472656 79.59375 56.304688 79.84375 56.25 80.15625 C 54.515625 80.132812 52.847656 79.796875 51.25 79.148438 C 49.140625 77.957031 47.226562 76.449219 45.5 74.625 C 45.0625 73.9375 44.8125 73.183594 44.75 72.367188 C 46.414062 69.011719 48.496094 65.914062 51 63.070312 C 51.6875 63.675781 52.269531 64.34375 52.75 65.078125 Z M 52.75 65.078125 "/>
<use xlink:href="#surface29" mask="url(#mask8)"/>
<use xlink:href="#surface32" mask="url(#mask9)"/>
<path style=" stroke:none;fill-rule:evenodd;fill:rgb(76.470588%,72.156863%,67.45098%);fill-opacity:1;" d="M 55.25 77.640625 C 61.375 78.132812 67.542969 78.300781 73.75 78.144531 C 73.75 78.816406 73.75 79.484375 73.75 80.15625 C 67.917969 80.15625 62.082031 80.15625 56.25 80.15625 C 56.304688 79.84375 56.472656 79.59375 56.75 79.402344 C 56.027344 79.210938 55.527344 78.792969 55.25 78.144531 C 55.25 77.976562 55.25 77.808594 55.25 77.640625 Z M 55.25 77.640625 "/>
<path style=" stroke:none;fill-rule:evenodd;fill:rgb(73.333333%,68.627451%,63.921569%);fill-opacity:1;" d="M 89.75 65.078125 C 90.082031 68.261719 90.417969 71.445312 90.75 74.625 C 89.886719 76.917969 88.386719 78.679688 86.25 79.902344 C 82.945312 80.628906 79.613281 80.796875 76.25 80.40625 C 75.808594 79.726562 75.644531 78.972656 75.75 78.144531 C 79.234375 78.933594 82.734375 79.101562 86.25 78.648438 C 88.816406 75.65625 89.316406 72.472656 87.75 69.097656 C 88.800781 67.941406 89.464844 66.601562 89.75 65.078125 Z M 89.75 65.078125 "/>
<path style=" stroke:none;fill-rule:evenodd;fill:rgb(74.509804%,70.196078%,63.921569%);fill-opacity:1;" d="M 41.25 72.617188 C 43.242188 76.125 45.90625 78.972656 49.25 81.160156 C 48.234375 83.441406 46.566406 84.867188 44.25 85.429688 C 45.273438 84.574219 46.105469 83.566406 46.75 82.417969 C 46.4375 82.039062 46.1875 81.621094 46 81.160156 C 44.0625 81.457031 42.3125 82.042969 40.75 82.917969 C 41.871094 82.042969 42.703125 80.957031 43.25 79.652344 C 42.835938 79.207031 42.335938 79.039062 41.75 79.148438 C 41.75 78.3125 41.75 77.476562 41.75 76.636719 C 39.75 76.875 38.164062 77.878906 37 79.652344 C 36.917969 79.402344 36.832031 79.148438 36.75 78.898438 C 37.953125 76.558594 39.453125 74.464844 41.25 72.617188 Z M 41.25 72.617188 "/>
<path style=" stroke:none;fill-rule:evenodd;fill:rgb(61.176471%,58.039216%,52.156863%);fill-opacity:1;" d="M 52.75 82.164062 C 59.550781 82.492188 66.386719 82.828125 73.25 83.171875 C 73.074219 83.683594 72.738281 84.019531 72.25 84.175781 C 72.195312 83.863281 72.027344 83.613281 71.75 83.421875 C 70.082031 83.085938 68.417969 83.085938 66.75 83.421875 C 65.15625 84.609375 63.65625 85.867188 62.25 87.191406 C 61.578125 87.457031 60.910156 87.539062 60.25 87.441406 C 61.839844 86.390625 63.339844 85.21875 64.75 83.925781 C 64.332031 83.839844 63.917969 83.757812 63.5 83.671875 C 62.609375 84.113281 61.777344 84.113281 61 83.671875 C 60.089844 85.003906 58.839844 85.84375 57.25 86.183594 C 56.96875 83.117188 55.636719 82.863281 53.25 85.429688 C 52.121094 86.007812 50.957031 86.175781 49.75 85.933594 C 51.058594 84.875 52.058594 83.621094 52.75 82.164062 Z M 52.75 82.164062 "/>
<path style=" stroke:none;fill-rule:evenodd;fill:rgb(48.627451%,46.27451%,43.137255%);fill-opacity:1;" d="M 79.25 84.675781 C 78.175781 85.8125 77.089844 86.984375 76 88.195312 C 75.753906 87.667969 75.835938 87.164062 76.25 86.6875 C 75.917969 86.351562 75.582031 86.019531 75.25 85.683594 C 75.5625 85.222656 75.730469 84.71875 75.75 84.175781 C 76.488281 82.710938 77.570312 82.378906 79 83.171875 C 79.242188 83.644531 79.324219 84.148438 79.25 84.675781 Z M 79.25 84.675781 "/>
<path style=" stroke:none;fill-rule:evenodd;fill:rgb(85.882353%,80.784314%,71.372549%);fill-opacity:1;" d="M 72.25 84.175781 C 71.070312 85.359375 69.738281 86.363281 68.25 87.191406 C 66.25 87.191406 64.25 87.191406 62.25 87.191406 C 63.65625 85.867188 65.15625 84.609375 66.75 83.421875 C 68.417969 83.085938 70.082031 83.085938 71.75 83.421875 C 72.027344 83.613281 72.195312 83.863281 72.25 84.175781 Z M 72.25 84.175781 "/>
<path style=" stroke:none;fill-rule:evenodd;fill:rgb(88.627451%,86.666667%,83.137255%);fill-opacity:1;" d="M 75.75 84.175781 C 75.730469 84.71875 75.5625 85.222656 75.25 85.683594 C 75.582031 86.019531 75.917969 86.351562 76.25 86.6875 C 75.835938 87.164062 75.753906 87.667969 76 88.195312 C 77.089844 86.984375 78.175781 85.8125 79.25 84.675781 C 79.996094 86.171875 81.160156 87.175781 82.75 87.691406 C 82.75 87.859375 82.75 88.027344 82.75 88.195312 C 80.226562 88.054688 78.726562 89.226562 78.25 91.714844 C 78.378906 92.675781 78.878906 93.347656 79.75 93.722656 C 79.394531 94.175781 78.894531 94.34375 78.25 94.226562 C 76.816406 92.625 75.316406 91.03125 73.75 89.453125 C 73.25 89.117188 72.75 89.117188 72.25 89.453125 C 72.035156 89.914062 71.867188 90.332031 71.75 90.707031 C 71 90.414062 70.332031 89.996094 69.75 89.453125 C 71.835938 87.773438 73.835938 86.015625 75.75 84.175781 Z M 75.75 84.175781 "/>
<path style=" stroke:none;fill-rule:evenodd;fill:rgb(7.058824%,6.27451%,7.058824%);fill-opacity:1;" d="M 82.75 88.195312 C 83.402344 88.5625 84.070312 88.980469 84.75 89.453125 C 83.414062 89.953125 82.246094 90.707031 81.25 91.714844 C 81.6875 92.089844 82.1875 92.34375 82.75 92.46875 C 82.023438 93.480469 81.023438 93.898438 79.75 93.722656 C 78.878906 93.347656 78.378906 92.675781 78.25 91.714844 C 78.726562 89.226562 80.226562 88.054688 82.75 88.195312 Z M 82.75 88.195312 "/>
<path style=" stroke:none;fill-rule:evenodd;fill:rgb(60.392157%,58.823529%,58.431373%);fill-opacity:1;" d="M 82.75 87.691406 C 85.402344 87.742188 87.738281 88.582031 89.75 90.207031 C 88.03125 90.640625 86.367188 91.226562 84.75 91.964844 C 83.085938 94.488281 80.917969 95.242188 78.25 94.226562 C 78.894531 94.34375 79.394531 94.175781 79.75 93.722656 C 81.023438 93.898438 82.023438 93.480469 82.75 92.46875 C 82.1875 92.34375 81.6875 92.089844 81.25 91.714844 C 82.246094 90.707031 83.414062 89.953125 84.75 89.453125 C 84.070312 88.980469 83.402344 88.5625 82.75 88.195312 C 82.75 88.027344 82.75 87.859375 82.75 87.691406 Z M 82.75 87.691406 "/>
<use xlink:href="#surface35" mask="url(#mask10)"/>
<use xlink:href="#surface38" mask="url(#mask11)"/>
<use xlink:href="#surface41" mask="url(#mask12)"/>
</g>
</svg>
