<?xml version="1.0" encoding="UTF-8"?>
<svg xmlns="http://www.w3.org/2000/svg" xmlns:xlink="http://www.w3.org/1999/xlink" width="px" height="px" viewBox="0 0 96 107" version="1.1">
<defs>
<filter id="alpha" filterUnits="objectBoundingBox" x="0%" y="0%" width="100%" height="100%">
  <feColorMatrix type="matrix" in="SourceGraphic" values="0 0 0 0 1 0 0 0 0 1 0 0 0 0 1 0 0 0 1 0"/>
</filter>
<mask id="mask0">
  <g filter="url(#alpha)">
<rect x="0" y="0" width="96" height="107" style="fill:rgb(0%,0%,0%);fill-opacity:0.0235294;stroke:none;"/>
  </g>
</mask>
<clipPath id="clip1">
  <rect x="0" y="0" width="96" height="108"/>
</clipPath>
<g id="surface5" clip-path="url(#clip1)">
<path style=" stroke:none;fill-rule:evenodd;fill:rgb(16.078431%,19.215686%,23.921569%);fill-opacity:1;" d="M 31.917969 -0.25 C 32.753906 -0.25 33.589844 -0.25 34.429688 -0.25 C 38.171875 1.132812 42.023438 2.390625 45.988281 3.515625 C 47.703125 4.246094 49.296875 5.167969 50.765625 6.28125 C 55.277344 2.601562 59.382812 3.019531 63.078125 7.535156 C 70.414062 8.671875 74.519531 12.941406 75.394531 20.34375 C 78.273438 22.59375 80.285156 25.4375 81.425781 28.886719 C 81.933594 29.304688 82.519531 29.472656 83.183594 29.386719 C 82.554688 30.25 81.800781 30.417969 80.921875 29.890625 C 79.699219 26.160156 77.519531 23.144531 74.386719 20.847656 C 73.628906 13.644531 69.691406 9.457031 62.574219 8.289062 C 58.820312 3.234375 54.886719 3.066406 50.765625 7.785156 C 48.695312 5.453125 46.097656 3.945312 42.972656 3.265625 C 39.65625 2.082031 36.21875 1.410156 32.671875 1.257812 C 29.765625 0.996094 27.167969 1.75 24.878906 3.515625 C 21.824219 3.585938 18.808594 3.921875 15.832031 4.519531 C 11.644531 6.03125 10.136719 8.878906 11.308594 13.0625 C 12.78125 12.832031 14.289062 12.832031 15.832031 13.0625 C 16.253906 13.570312 16.421875 14.15625 16.335938 14.820312 C 12.078125 14.476562 8.644531 15.984375 6.03125 19.339844 C 5.230469 20.421875 4.898438 21.59375 5.027344 22.855469 C 6.671875 23.816406 8.265625 24.824219 9.800781 25.871094 C 7.921875 26.683594 6.164062 27.6875 4.523438 28.886719 C 4.066406 30.632812 3.644531 32.390625 3.265625 34.160156 C 3.449219 35.261719 3.953125 36.183594 4.773438 36.921875 C 3.058594 36.195312 2.054688 34.855469 1.757812 32.902344 C 1.980469 30.882812 2.988281 29.125 4.773438 27.628906 C 5.78125 26.960938 6.785156 26.289062 7.789062 25.621094 C 6.03125 24.910156 4.691406 23.738281 3.769531 22.101562 C 5.347656 18.601562 7.859375 16.003906 11.308594 14.316406 C 9.558594 12.019531 9.476562 9.675781 11.058594 7.285156 C 14.449219 3.417969 18.636719 2.078125 23.621094 3.265625 C 26.234375 1.578125 29 0.40625 31.917969 -0.25 Z M 31.917969 -0.25 "/>
</g>
<mask id="mask1">
  <g filter="url(#alpha)">
<rect x="0" y="0" width="96" height="107" style="fill:rgb(0%,0%,0%);fill-opacity:0.996078;stroke:none;"/>
  </g>
</mask>
<clipPath id="clip2">
  <rect x="0" y="0" width="96" height="108"/>
</clipPath>
<g id="surface8" clip-path="url(#clip2)">
<path style=" stroke:none;fill-rule:evenodd;fill:rgb(8.627451%,3.137255%,3.529412%);fill-opacity:1;" d="M 42.972656 3.265625 C 43.785156 4.1875 44.621094 5.023438 45.488281 5.777344 C 44.851562 5.480469 44.347656 5.480469 43.980469 5.777344 C 46.867188 7.734375 48.875 10.332031 50.011719 13.5625 C 49.996094 14.101562 49.828125 14.519531 49.507812 14.820312 C 49.035156 13.363281 48.195312 12.191406 46.996094 11.304688 C 46.660156 9.964844 45.820312 9.125 44.480469 8.792969 C 42.1875 6.753906 39.671875 4.992188 36.941406 3.515625 C 33.871094 3.058594 30.855469 3.226562 27.894531 4.019531 C 27.726562 4.1875 27.558594 4.355469 27.394531 4.519531 C 28.648438 5.359375 29.820312 6.277344 30.910156 7.285156 C 32.464844 8.886719 33.636719 10.726562 34.429688 12.808594 C 34.496094 13.179688 34.410156 13.515625 34.179688 13.816406 C 32.550781 10.425781 29.953125 8.25 26.386719 7.285156 C 25.394531 6.523438 24.222656 6.105469 22.867188 6.027344 C 18.691406 4.898438 15.257812 5.984375 12.566406 9.292969 C 12.324219 9.769531 12.238281 10.273438 12.3125 10.800781 C 13.152344 10.800781 13.988281 10.800781 14.828125 10.800781 C 16.246094 11.105469 17.589844 11.609375 18.847656 12.308594 C 19.828125 13.171875 20.5 14.261719 20.859375 15.574219 C 23.417969 15.949219 24.675781 17.371094 24.628906 19.84375 C 23.988281 19.148438 23.234375 18.644531 22.367188 18.335938 C 21.539062 17.617188 20.53125 17.199219 19.351562 17.078125 C 16.746094 16.667969 14.230469 16.753906 11.8125 17.332031 C 10.71875 17.457031 9.882812 17.957031 9.296875 18.839844 C 7.683594 19.226562 6.929688 20.234375 7.035156 21.851562 C 8.453125 22.4375 9.875 23.023438 11.308594 23.609375 C 12.160156 25.542969 13.5 27.050781 15.328125 28.132812 C 13.152344 28.300781 10.972656 28.464844 8.796875 28.632812 C 8.007812 28.9375 7.339844 29.359375 6.785156 29.890625 C 5.199219 30.378906 4.699219 31.382812 5.277344 32.902344 C 6.417969 32.378906 7.589844 32.296875 8.796875 32.652344 C 7.429688 33.09375 6.761719 34.011719 6.785156 35.414062 C 7.050781 36.480469 7.722656 37.234375 8.796875 37.675781 C 8.417969 38.011719 8.25 38.429688 8.292969 38.933594 C 6.675781 38.855469 5.335938 39.355469 4.273438 40.4375 C 2.53125 40.746094 2.027344 41.664062 2.765625 43.203125 C 3.585938 43.449219 4.421875 43.535156 5.277344 43.453125 C 4.683594 46.039062 5.691406 47.546875 8.292969 47.972656 C 3.695312 47.96875 1.601562 50.3125 2.011719 55.007812 C 2.992188 57.386719 4.75 58.894531 7.289062 59.527344 C 5.910156 60.769531 4.90625 62.277344 4.273438 64.050781 C 1.886719 63.816406 1.386719 64.570312 2.765625 66.308594 C 5.207031 67.90625 7.886719 68.910156 10.804688 69.324219 C 9.257812 70.0625 7.832031 70.984375 6.535156 72.085938 C 6.308594 73.140625 6.730469 73.890625 7.789062 74.347656 C 3.773438 73.511719 3.269531 74.515625 6.28125 77.363281 C 7.144531 78.144531 8.152344 78.5625 9.296875 78.617188 C 10.359375 79.105469 11.53125 79.269531 12.816406 79.121094 C 12.816406 79.621094 12.816406 80.125 12.816406 80.625 C 11.109375 80.695312 10.941406 81.195312 12.3125 82.132812 C 11.90625 82.792969 11.402344 83.378906 10.804688 83.890625 C 9.382812 84.328125 8.042969 84.914062 6.785156 85.648438 C 8.136719 87.75 9.980469 89.257812 12.3125 90.171875 C 14.324219 90.804688 16.335938 91.476562 18.34375 92.179688 C 19.328125 92.332031 20 92.832031 20.355469 93.6875 C 18.082031 95.625 15.402344 96.796875 12.3125 97.203125 C 13.882812 100.25 16.394531 101.589844 19.851562 101.222656 C 22.761719 101.253906 25.441406 100.585938 27.894531 99.214844 C 28.453125 99.183594 28.957031 99.019531 29.402344 98.710938 C 30.179688 98.871094 30.515625 99.375 30.410156 100.21875 C 29.339844 101.175781 28.167969 102.011719 26.890625 102.730469 C 31.320312 104.808594 35.675781 104.640625 39.957031 102.226562 C 39.738281 103.019531 39.234375 103.605469 38.449219 103.984375 C 35.644531 104.84375 32.796875 105.429688 29.90625 105.742188 C 27.84375 105.550781 26 104.796875 24.378906 103.484375 C 23.589844 103.097656 22.917969 103.183594 22.367188 103.734375 C 17.949219 104.867188 14.179688 103.695312 11.058594 100.21875 C 9.78125 98.199219 9.699219 96.191406 10.804688 94.191406 C 12.710938 94.257812 14.554688 94.089844 16.335938 93.6875 C 10.414062 93.238281 6.226562 90.308594 3.769531 84.898438 C 4.058594 84.183594 4.5625 83.765625 5.277344 83.640625 C 6.6875 83.355469 7.859375 82.6875 8.796875 81.632812 C 7.023438 80.335938 5.265625 78.996094 3.519531 77.613281 C 2.601562 75.640625 2.519531 73.632812 3.265625 71.585938 C 3.664062 70.933594 4.167969 70.347656 4.773438 69.828125 C 2.347656 68.910156 0.839844 67.234375 0.25 64.804688 C 0.335938 64.214844 0.417969 63.628906 0.503906 63.042969 C 1.480469 62.417969 2.402344 61.75 3.265625 61.035156 C 1.824219 58.945312 0.652344 56.769531 -0.25 54.503906 C -0.25 53.835938 -0.25 53.164062 -0.25 52.496094 C 0.507812 50.148438 1.679688 47.96875 3.265625 45.964844 C 2.4375 44.886719 1.515625 43.878906 0.503906 42.949219 C 0.160156 41.386719 0.578125 40.046875 1.757812 38.933594 C 2.917969 38.433594 3.925781 37.765625 4.773438 36.921875 C 3.953125 36.183594 3.449219 35.261719 3.265625 34.160156 C 3.644531 32.390625 4.066406 30.632812 4.523438 28.886719 C 6.164062 27.6875 7.921875 26.683594 9.800781 25.871094 C 8.265625 24.824219 6.671875 23.816406 5.027344 22.855469 C 4.898438 21.59375 5.230469 20.421875 6.03125 19.339844 C 8.644531 15.984375 12.078125 14.476562 16.335938 14.820312 C 16.421875 14.15625 16.253906 13.570312 15.832031 13.0625 C 14.289062 12.832031 12.78125 12.832031 11.308594 13.0625 C 10.136719 8.878906 11.644531 6.03125 15.832031 4.519531 C 18.808594 3.921875 21.824219 3.585938 24.878906 3.515625 C 27.167969 1.75 29.765625 0.996094 32.671875 1.257812 C 36.21875 1.410156 39.65625 2.082031 42.972656 3.265625 Z M 16.335938 93.6875 C 17.277344 93.039062 18.113281 93.121094 18.847656 93.9375 C 17.816406 94.984375 16.976562 94.902344 16.335938 93.6875 Z M 16.335938 93.6875 "/>
</g>
<mask id="mask2">
  <g filter="url(#alpha)">
<rect x="0" y="0" width="96" height="107" style="fill:rgb(0%,0%,0%);fill-opacity:0.156863;stroke:none;"/>
  </g>
</mask>
<clipPath id="clip3">
  <rect x="0" y="0" width="96" height="108"/>
</clipPath>
<g id="surface11" clip-path="url(#clip3)">
<path style=" stroke:none;fill-rule:evenodd;fill:rgb(16.862745%,21.568627%,25.098039%);fill-opacity:1;" d="M 84.1875 29.386719 C 86.570312 28.445312 88.667969 28.945312 90.472656 30.894531 C 93.496094 36.972656 95.257812 43.335938 95.75 49.984375 C 95.75 50.988281 95.75 51.992188 95.75 52.996094 C 95.078125 53.164062 95.078125 53.332031 95.75 53.5 C 95.75 54.839844 95.75 56.179688 95.75 57.519531 C 94.75 63.082031 93.324219 68.609375 91.476562 74.097656 C 90.289062 76.402344 88.527344 77.40625 86.199219 77.109375 C 87.628906 76.773438 88.882812 76.101562 89.96875 75.101562 C 96.085938 61.148438 96.253906 47.085938 90.472656 32.902344 C 89.222656 30.226562 87.128906 29.054688 84.1875 29.386719 Z M 84.1875 29.386719 "/>
</g>
<mask id="mask3">
  <g filter="url(#alpha)">
<rect x="0" y="0" width="96" height="107" style="fill:rgb(0%,0%,0%);fill-opacity:0.0862745;stroke:none;"/>
  </g>
</mask>
<clipPath id="clip4">
  <rect x="0" y="0" width="96" height="108"/>
</clipPath>
<g id="surface14" clip-path="url(#clip4)">
<path style=" stroke:none;fill-rule:evenodd;fill:rgb(17.254902%,20.784314%,25.882353%);fill-opacity:1;" d="M 3.265625 71.585938 C 2.519531 73.632812 2.601562 75.640625 3.519531 77.613281 C 5.265625 78.996094 7.023438 80.335938 8.796875 81.632812 C 7.859375 82.6875 6.6875 83.355469 5.277344 83.640625 C 5.988281 82.859375 6.824219 82.191406 7.789062 81.632812 C 4.394531 80.332031 2.382812 77.902344 1.757812 74.347656 C 1.816406 73.140625 2.320312 72.222656 3.265625 71.585938 Z M 3.265625 71.585938 "/>
</g>
<mask id="mask4">
  <g filter="url(#alpha)">
<rect x="0" y="0" width="96" height="107" style="fill:rgb(0%,0%,0%);fill-opacity:0.996078;stroke:none;"/>
  </g>
</mask>
<clipPath id="clip5">
  <rect x="0" y="0" width="96" height="108"/>
</clipPath>
<g id="surface17" clip-path="url(#clip5)">
<path style=" stroke:none;fill-rule:evenodd;fill:rgb(5.490196%,3.137255%,3.137255%);fill-opacity:1;" d="M 42.972656 3.265625 C 46.097656 3.945312 48.695312 5.453125 50.765625 7.785156 C 54.886719 3.066406 58.820312 3.234375 62.574219 8.289062 C 69.691406 9.457031 73.628906 13.644531 74.386719 20.847656 C 77.519531 23.144531 79.699219 26.160156 80.921875 29.890625 C 81.800781 30.417969 82.554688 30.25 83.183594 29.386719 C 83.519531 29.386719 83.851562 29.386719 84.1875 29.386719 C 87.128906 29.054688 89.222656 30.226562 90.472656 32.902344 C 96.253906 47.085938 96.085938 61.148438 89.96875 75.101562 C 88.882812 76.101562 87.628906 76.773438 86.199219 77.109375 C 85.527344 77.109375 84.859375 77.109375 84.1875 77.109375 C 83.28125 76.304688 82.273438 76.136719 81.171875 76.609375 C 79.925781 80.613281 77.578125 83.792969 74.136719 86.152344 C 73.34375 93.140625 69.488281 97.160156 62.574219 98.207031 C 61.304688 100.179688 59.628906 101.6875 57.550781 102.730469 C 57.519531 103.003906 57.351562 103.171875 57.046875 103.230469 C 55.734375 102.867188 54.394531 102.613281 53.027344 102.480469 C 52.328125 101.359375 51.320312 100.773438 50.011719 100.71875 C 48.195312 101.628906 46.351562 102.550781 44.480469 103.484375 C 41.386719 104.011719 38.371094 104.851562 35.433594 105.996094 C 33.496094 106.402344 31.652344 106.316406 29.90625 105.742188 C 32.796875 105.429688 35.644531 104.84375 38.449219 103.984375 C 39.234375 103.605469 39.738281 103.019531 39.957031 102.226562 C 40.734375 102.125 41.40625 101.789062 41.96875 101.222656 C 42.414062 101.636719 42.582031 102.140625 42.472656 102.730469 C 43.503906 102.777344 44.339844 102.445312 44.984375 101.726562 C 46.457031 100.847656 47.882812 99.84375 49.257812 98.710938 C 50.285156 95.222656 51.207031 91.707031 52.019531 88.160156 C 51.015625 88.160156 50.011719 88.160156 49.003906 88.160156 C 47.3125 88.015625 45.636719 87.933594 43.980469 87.910156 C 41.609375 92.449219 40.9375 92.199219 41.96875 87.15625 C 38.925781 86.691406 36.078125 85.683594 33.425781 84.144531 C 32.652344 84.121094 32.148438 84.453125 31.917969 85.148438 C 31.582031 85.148438 31.246094 85.148438 30.910156 85.148438 C 30.488281 84.976562 30.320312 84.640625 30.410156 84.144531 C 31.300781 83.734375 31.550781 83.0625 31.164062 82.132812 C 27.628906 78.757812 25.117188 74.738281 23.621094 70.078125 C 22.765625 70.847656 22.011719 71.6875 21.359375 72.589844 C 21.195312 72.589844 21.027344 72.589844 20.859375 72.589844 C 20.1875 72.589844 19.851562 72.253906 19.851562 71.585938 C 20.984375 71.269531 21.824219 70.601562 22.367188 69.574219 C 23.144531 68.417969 23.480469 67.078125 23.371094 65.554688 C 22.980469 61.546875 22.8125 57.527344 22.867188 53.5 C 20.691406 53.5 18.511719 53.5 16.335938 53.5 C 16.167969 53.5 16 53.5 15.832031 53.5 C 18.179688 53.164062 20.523438 52.832031 22.867188 52.496094 C 23.171875 47.339844 22.835938 42.316406 21.863281 37.425781 C 21.777344 36.925781 21.945312 36.59375 22.367188 36.421875 C 22.847656 36.648438 23.265625 36.984375 23.621094 37.425781 C 24.890625 32.480469 27.402344 28.292969 31.164062 24.867188 C 31.433594 23.804688 31.011719 23.132812 29.90625 22.855469 C 29.28125 22.117188 28.78125 21.28125 28.398438 20.34375 C 28.765625 20.050781 29.269531 20.050781 29.90625 20.34375 C 30.289062 21.230469 30.960938 21.734375 31.917969 21.851562 C 32.09375 22.539062 32.515625 23.042969 33.171875 23.359375 C 35.878906 21.542969 38.8125 20.371094 41.96875 19.84375 C 41.730469 16.148438 42.402344 15.730469 43.980469 18.585938 C 45.804688 18.53125 47.644531 18.449219 49.507812 18.335938 C 50.511719 18.335938 51.519531 18.335938 52.523438 18.335938 C 52.628906 12.679688 50.285156 8.492188 45.488281 5.777344 C 44.621094 5.023438 43.785156 4.1875 42.972656 3.265625 Z M 42.972656 3.265625 "/>
</g>
<mask id="mask5">
  <g filter="url(#alpha)">
<rect x="0" y="0" width="96" height="107" style="fill:rgb(0%,0%,0%);fill-opacity:0.0392157;stroke:none;"/>
  </g>
</mask>
<clipPath id="clip6">
  <rect x="0" y="0" width="96" height="108"/>
</clipPath>
<g id="surface20" clip-path="url(#clip6)">
<path style=" stroke:none;fill-rule:evenodd;fill:rgb(16.470588%,21.568627%,25.490196%);fill-opacity:1;" d="M 84.1875 77.109375 C 83.289062 76.96875 82.453125 77.132812 81.675781 77.613281 C 80.257812 81.292969 77.996094 84.308594 74.890625 86.65625 C 74.246094 93.914062 70.308594 97.933594 63.078125 98.710938 C 62.011719 101.164062 60.167969 102.503906 57.550781 102.730469 C 59.628906 101.6875 61.304688 100.179688 62.574219 98.207031 C 69.488281 97.160156 73.34375 93.140625 74.136719 86.152344 C 77.578125 83.792969 79.925781 80.613281 81.171875 76.609375 C 82.273438 76.136719 83.28125 76.304688 84.1875 77.109375 Z M 84.1875 77.109375 "/>
</g>
<mask id="mask6">
  <g filter="url(#alpha)">
<rect x="0" y="0" width="96" height="107" style="fill:rgb(0%,0%,0%);fill-opacity:0.00392157;stroke:none;"/>
  </g>
</mask>
<clipPath id="clip7">
  <rect x="0" y="0" width="96" height="108"/>
</clipPath>
<g id="surface23" clip-path="url(#clip7)">
<path style=" stroke:none;fill-rule:evenodd;fill:rgb(17.647059%,21.960784%,25.882353%);fill-opacity:1;" d="M 50.011719 100.71875 C 48.660156 102.160156 46.984375 103.246094 44.984375 103.984375 C 41.839844 104.671875 38.824219 105.59375 35.9375 106.75 C 33.589844 106.75 31.246094 106.75 28.902344 106.75 C 26.757812 105.753906 24.582031 104.746094 22.367188 103.734375 C 22.917969 103.183594 23.589844 103.097656 24.378906 103.484375 C 26 104.796875 27.84375 105.550781 29.90625 105.742188 C 31.652344 106.316406 33.496094 106.402344 35.433594 105.996094 C 38.371094 104.851562 41.386719 104.011719 44.480469 103.484375 C 46.351562 102.550781 48.195312 101.628906 50.011719 100.71875 Z M 50.011719 100.71875 "/>
</g>
</defs>
<g id="surface1">
<use xlink:href="#surface5" mask="url(#mask0)"/>
<use xlink:href="#surface8" mask="url(#mask1)"/>
<path style=" stroke:none;fill-rule:evenodd;fill:rgb(73.72549%,5.490196%,25.882353%);fill-opacity:1;" d="M 44.480469 8.792969 C 44.816406 9.964844 45.152344 11.136719 45.488281 12.308594 C 46.414062 13.847656 46.664062 15.519531 46.242188 17.332031 C 45.558594 17.773438 44.804688 17.941406 43.980469 17.832031 C 43.925781 16.6875 43.507812 15.679688 42.722656 14.820312 C 42.515625 15.050781 42.261719 15.214844 41.96875 15.320312 C 41.59375 14.613281 41.175781 13.945312 40.710938 13.3125 C 40.554688 14.34375 40.304688 15.351562 39.957031 16.328125 C 39.570312 16.933594 39.148438 16.933594 38.703125 16.328125 C 38.589844 17.046875 38.339844 17.71875 37.949219 18.335938 C 36.726562 17.445312 35.386719 17.027344 33.925781 17.078125 C 34.542969 17.847656 35.296875 18.433594 36.1875 18.839844 C 36.433594 19.488281 36.519531 20.15625 36.441406 20.847656 C 35.769531 20.847656 35.097656 20.847656 34.429688 20.847656 C 34.445312 18.949219 34.109375 18.867188 33.425781 20.597656 C 34.121094 22.324219 33.617188 22.746094 31.917969 21.851562 C 30.960938 21.734375 30.289062 21.230469 29.90625 20.34375 C 30.707031 20.554688 31.460938 20.890625 32.167969 21.351562 C 32.417969 21.183594 32.671875 21.015625 32.921875 20.847656 C 31.84375 19.1875 30.671875 17.59375 29.402344 16.074219 C 30.460938 15.894531 31.46875 15.558594 32.417969 15.070312 C 31.738281 13.933594 30.902344 13.011719 29.90625 12.308594 C 29.164062 11.355469 28.328125 10.519531 27.394531 9.796875 C 27.808594 8.765625 27.472656 7.929688 26.386719 7.285156 C 29.953125 8.25 32.550781 10.425781 34.179688 13.816406 C 34.410156 13.515625 34.496094 13.179688 34.429688 12.808594 C 36.152344 14.226562 37.660156 13.972656 38.953125 12.054688 C 37.296875 8.808594 34.78125 6.546875 31.414062 5.273438 C 31.078125 5.441406 30.742188 5.609375 30.410156 5.777344 C 30.722656 6.238281 30.890625 6.738281 30.910156 7.285156 C 29.820312 6.277344 28.648438 5.359375 27.394531 4.519531 C 27.558594 4.355469 27.726562 4.1875 27.894531 4.019531 C 30.855469 3.226562 33.871094 3.058594 36.941406 3.515625 C 39.671875 4.992188 42.1875 6.753906 44.480469 8.792969 Z M 44.480469 8.792969 "/>
<path style=" stroke:none;fill-rule:evenodd;fill:rgb(83.921569%,14.117647%,27.843137%);fill-opacity:1;" d="M 26.386719 7.285156 C 27.472656 7.929688 27.808594 8.765625 27.394531 9.796875 C 23.117188 8.554688 18.761719 8.136719 14.324219 8.539062 C 13.820312 9.042969 13.320312 9.542969 12.816406 10.046875 C 13.601562 10.152344 14.269531 10.402344 14.828125 10.800781 C 13.988281 10.800781 13.152344 10.800781 12.3125 10.800781 C 12.238281 10.273438 12.324219 9.769531 12.566406 9.292969 C 15.257812 5.984375 18.691406 4.898438 22.867188 6.027344 C 24.222656 6.105469 25.394531 6.523438 26.386719 7.285156 Z M 26.386719 7.285156 "/>
<path style=" stroke:none;fill-rule:evenodd;fill:rgb(97.254902%,20.392157%,35.294118%);fill-opacity:1;" d="M 34.429688 12.808594 C 33.636719 10.726562 32.464844 8.886719 30.910156 7.285156 C 30.890625 6.738281 30.722656 6.238281 30.410156 5.777344 C 30.742188 5.609375 31.078125 5.441406 31.414062 5.273438 C 34.78125 6.546875 37.296875 8.808594 38.953125 12.054688 C 37.660156 13.972656 36.152344 14.226562 34.429688 12.808594 Z M 34.429688 12.808594 "/>
<path style=" stroke:none;fill-rule:evenodd;fill:rgb(98.823529%,14.901961%,34.901961%);fill-opacity:1;" d="M 27.394531 9.796875 C 28.328125 10.519531 29.164062 11.355469 29.90625 12.308594 C 29.878906 14.261719 28.957031 15.601562 27.140625 16.328125 C 25.800781 15.320312 24.460938 14.316406 23.121094 13.3125 C 22.867188 13.480469 22.617188 13.648438 22.367188 13.816406 C 23.074219 14.1875 23.746094 14.605469 24.378906 15.070312 C 22.519531 15.894531 21.34375 15.226562 20.859375 13.0625 C 20.234375 12.664062 19.5625 12.414062 18.847656 12.308594 C 17.589844 11.609375 16.246094 11.105469 14.828125 10.800781 C 14.269531 10.402344 13.601562 10.152344 12.816406 10.046875 C 13.320312 9.542969 13.820312 9.042969 14.324219 8.539062 C 18.761719 8.136719 23.117188 8.554688 27.394531 9.796875 Z M 27.394531 9.796875 "/>
<path style=" stroke:none;fill-rule:evenodd;fill:rgb(30.588235%,4.705882%,9.019608%);fill-opacity:1;" d="M 44.480469 8.792969 C 45.820312 9.125 46.660156 9.964844 46.996094 11.304688 C 46.609375 11.6875 46.359375 12.1875 46.242188 12.808594 C 46.046875 12.53125 45.796875 12.363281 45.488281 12.308594 C 45.152344 11.136719 44.816406 9.964844 44.480469 8.792969 Z M 44.480469 8.792969 "/>
<path style=" stroke:none;fill-rule:evenodd;fill:rgb(41.568627%,2.745098%,16.078431%);fill-opacity:1;" d="M 45.488281 5.777344 C 50.285156 8.492188 52.628906 12.679688 52.523438 18.335938 C 51.519531 18.335938 50.511719 18.335938 49.507812 18.335938 C 49.890625 17.949219 50.394531 17.699219 51.015625 17.582031 C 50.441406 16.6875 49.941406 15.765625 49.507812 14.820312 C 49.828125 14.519531 49.996094 14.101562 50.011719 13.5625 C 48.875 10.332031 46.867188 7.734375 43.980469 5.777344 C 44.347656 5.480469 44.851562 5.480469 45.488281 5.777344 Z M 45.488281 5.777344 "/>
<path style=" stroke:none;fill-rule:evenodd;fill:rgb(85.098039%,10.196078%,29.019608%);fill-opacity:1;" d="M 18.847656 12.308594 C 19.5625 12.414062 20.234375 12.664062 20.859375 13.0625 C 21.34375 15.226562 22.519531 15.894531 24.378906 15.070312 C 23.746094 14.605469 23.074219 14.1875 22.367188 13.816406 C 22.617188 13.648438 22.867188 13.480469 23.121094 13.3125 C 24.460938 14.316406 25.800781 15.320312 27.140625 16.328125 C 28.957031 15.601562 29.878906 14.261719 29.90625 12.308594 C 30.902344 13.011719 31.738281 13.933594 32.417969 15.070312 C 31.46875 15.558594 30.460938 15.894531 29.402344 16.074219 C 30.671875 17.59375 31.84375 19.1875 32.921875 20.847656 C 32.671875 21.015625 32.417969 21.183594 32.167969 21.351562 C 31.460938 20.890625 30.707031 20.554688 29.90625 20.34375 C 29.269531 20.050781 28.765625 20.050781 28.398438 20.34375 C 28.78125 21.28125 29.28125 22.117188 29.90625 22.855469 C 30.746094 24.28125 30.410156 24.617188 28.902344 23.863281 C 28.316406 24.359375 27.726562 24.863281 27.140625 25.367188 C 25.976562 24.679688 24.71875 24.34375 23.371094 24.363281 C 23.917969 26.113281 23.917969 27.789062 23.371094 29.386719 C 23.226562 28.496094 22.894531 27.65625 22.367188 26.875 C 22.730469 26.042969 22.816406 25.207031 22.617188 24.363281 C 21.527344 23.867188 20.605469 23.199219 19.851562 22.355469 C 21.308594 22.996094 22.816406 23.5 24.378906 23.863281 C 25.015625 23.828125 25.601562 23.660156 26.136719 23.359375 C 26.929688 20.921875 26.679688 18.578125 25.382812 16.328125 C 25.242188 17.574219 25.242188 18.914062 25.382812 20.34375 C 23.832031 19.96875 22.492188 19.300781 21.359375 18.335938 C 21.695312 18.335938 22.03125 18.335938 22.367188 18.335938 C 23.234375 18.644531 23.988281 19.148438 24.628906 19.84375 C 24.675781 17.371094 23.417969 15.949219 20.859375 15.574219 C 20.5 14.261719 19.828125 13.171875 18.847656 12.308594 Z M 18.847656 12.308594 "/>
<path style=" stroke:none;fill-rule:evenodd;fill:rgb(68.627451%,11.764706%,23.529412%);fill-opacity:1;" d="M 11.8125 17.332031 C 14.230469 16.753906 16.746094 16.667969 19.351562 17.078125 C 20.53125 17.199219 21.539062 17.617188 22.367188 18.335938 C 22.03125 18.335938 21.695312 18.335938 21.359375 18.335938 C 18.203125 17.792969 15.019531 17.460938 11.8125 17.332031 Z M 11.8125 17.332031 "/>
<path style=" stroke:none;fill-rule:evenodd;fill:rgb(62.745098%,6.27451%,23.529412%);fill-opacity:1;" d="M 46.996094 11.304688 C 48.195312 12.191406 49.035156 13.363281 49.507812 14.820312 C 49.941406 15.765625 50.441406 16.6875 51.015625 17.582031 C 50.394531 17.699219 49.890625 17.949219 49.507812 18.335938 C 47.644531 18.449219 45.804688 18.53125 43.980469 18.585938 C 42.402344 15.730469 41.730469 16.148438 41.96875 19.84375 C 38.8125 20.371094 35.878906 21.542969 33.171875 23.359375 C 32.515625 23.042969 32.09375 22.539062 31.917969 21.851562 C 33.617188 22.746094 34.121094 22.324219 33.425781 20.597656 C 34.109375 18.867188 34.445312 18.949219 34.429688 20.847656 C 35.097656 20.847656 35.769531 20.847656 36.441406 20.847656 C 36.519531 20.15625 36.433594 19.488281 36.1875 18.839844 C 35.296875 18.433594 34.542969 17.847656 33.925781 17.078125 C 35.386719 17.027344 36.726562 17.445312 37.949219 18.335938 C 38.339844 17.71875 38.589844 17.046875 38.703125 16.328125 C 39.148438 16.933594 39.570312 16.933594 39.957031 16.328125 C 40.304688 15.351562 40.554688 14.34375 40.710938 13.3125 C 41.175781 13.945312 41.59375 14.613281 41.96875 15.320312 C 42.261719 15.214844 42.515625 15.050781 42.722656 14.820312 C 43.507812 15.679688 43.925781 16.6875 43.980469 17.832031 C 44.804688 17.941406 45.558594 17.773438 46.242188 17.332031 C 46.664062 15.519531 46.414062 13.847656 45.488281 12.308594 C 45.796875 12.363281 46.046875 12.53125 46.242188 12.808594 C 46.359375 12.1875 46.609375 11.6875 46.996094 11.304688 Z M 46.996094 11.304688 "/>
<path style=" stroke:none;fill-rule:evenodd;fill:rgb(98.431373%,12.54902%,32.156863%);fill-opacity:1;" d="M 19.851562 22.355469 C 19.46875 22.738281 19.214844 23.238281 19.097656 23.863281 C 17.515625 21.914062 15.671875 21.582031 13.570312 22.855469 C 12.191406 22.464844 10.769531 22.210938 9.296875 22.101562 C 8.964844 21.101562 8.964844 20.011719 9.296875 18.839844 C 9.882812 17.957031 10.71875 17.457031 11.8125 17.332031 C 15.019531 17.460938 18.203125 17.792969 21.359375 18.335938 C 22.492188 19.300781 23.832031 19.96875 25.382812 20.34375 C 25.242188 18.914062 25.242188 17.574219 25.382812 16.328125 C 26.679688 18.578125 26.929688 20.921875 26.136719 23.359375 C 25.601562 23.660156 25.015625 23.828125 24.378906 23.863281 C 22.816406 23.5 21.308594 22.996094 19.851562 22.355469 Z M 19.851562 22.355469 "/>
<path style=" stroke:none;fill-rule:evenodd;fill:rgb(70.196078%,3.921569%,24.705882%);fill-opacity:1;" d="M 29.90625 22.855469 C 31.011719 23.132812 31.433594 23.804688 31.164062 24.867188 C 27.402344 28.292969 24.890625 32.480469 23.621094 37.425781 C 23.265625 36.984375 22.847656 36.648438 22.367188 36.421875 C 21.738281 35.597656 20.902344 35.011719 19.851562 34.660156 C 18.1875 34.410156 16.511719 34.328125 14.828125 34.410156 C 16.90625 33.917969 19.082031 33.75 21.359375 33.910156 C 21.882812 32.359375 22.554688 30.855469 23.371094 29.386719 C 23.917969 27.789062 23.917969 26.113281 23.371094 24.363281 C 24.71875 24.34375 25.976562 24.679688 27.140625 25.367188 C 27.726562 24.863281 28.316406 24.359375 28.902344 23.863281 C 30.410156 24.617188 30.746094 24.28125 29.90625 22.855469 Z M 29.90625 22.855469 "/>
<path style=" stroke:none;fill-rule:evenodd;fill:rgb(28.627451%,1.568627%,8.627451%);fill-opacity:1;" d="M 14.828125 34.410156 C 16.511719 34.328125 18.1875 34.410156 19.851562 34.660156 C 20.902344 35.011719 21.738281 35.597656 22.367188 36.421875 C 21.945312 36.59375 21.777344 36.925781 21.863281 37.425781 C 20.941406 37.050781 20.105469 36.546875 19.351562 35.917969 C 17.519531 35.359375 16.011719 34.855469 14.828125 34.410156 Z M 14.828125 34.410156 "/>
<path style=" stroke:none;fill-rule:evenodd;fill:rgb(91.764706%,14.901961%,31.764706%);fill-opacity:1;" d="M 9.296875 18.839844 C 8.964844 20.011719 8.964844 21.101562 9.296875 22.101562 C 10.769531 22.210938 12.191406 22.464844 13.570312 22.855469 C 15.671875 21.582031 17.515625 21.914062 19.097656 23.863281 C 19.214844 23.238281 19.46875 22.738281 19.851562 22.355469 C 20.605469 23.199219 21.527344 23.867188 22.617188 24.363281 C 22.816406 25.207031 22.730469 26.042969 22.367188 26.875 C 22.894531 27.65625 23.226562 28.496094 23.371094 29.386719 C 22.554688 30.855469 21.882812 32.359375 21.359375 33.910156 C 19.082031 33.75 16.90625 33.917969 14.828125 34.410156 C 16.011719 34.855469 17.519531 35.359375 19.351562 35.917969 C 19.585938 39.324219 19.417969 42.753906 18.847656 46.214844 C 19.125 47.632812 19.378906 49.058594 19.601562 50.484375 C 20.335938 51.472656 21.253906 52.144531 22.367188 52.496094 C 18.8125 52.324219 15.292969 52.578125 11.8125 53.25 C 13.140625 53.5 14.480469 53.582031 15.832031 53.5 C 16 53.5 16.167969 53.5 16.335938 53.5 C 16.507812 53.921875 16.84375 54.089844 17.339844 54.003906 C 17.933594 54.789062 18.769531 55.207031 19.851562 55.257812 C 19.519531 55.59375 19.183594 55.929688 18.847656 56.261719 C 19.316406 56.457031 19.648438 56.792969 19.851562 57.269531 C 19.378906 58.007812 18.707031 58.511719 17.84375 58.773438 C 18.804688 60.433594 19.308594 62.273438 19.351562 64.300781 C 18.914062 66.648438 18.75 68.90625 18.847656 71.082031 C 18.363281 67.609375 18.195312 64.09375 18.34375 60.53125 C 15.414062 60.5 15.082031 59.578125 17.339844 57.769531 C 17.144531 56.632812 16.476562 55.964844 15.328125 55.761719 C 15.75 55.253906 15.917969 54.667969 15.832031 54.003906 C 12.144531 53.917969 8.457031 54.003906 4.773438 54.253906 C 4.714844 54.890625 4.550781 55.5625 4.273438 56.261719 C 5.359375 57.8125 6.867188 58.566406 8.796875 58.523438 C 8.808594 59.578125 8.472656 60.5 7.789062 61.285156 C 7.863281 61.675781 8.03125 62.007812 8.292969 62.292969 C 7.117188 63.273438 5.777344 63.859375 4.273438 64.050781 C 4.90625 62.277344 5.910156 60.769531 7.289062 59.527344 C 4.75 58.894531 2.992188 57.386719 2.011719 55.007812 C 1.601562 50.3125 3.695312 47.96875 8.292969 47.972656 C 8.691406 48.117188 9.023438 48.367188 9.296875 48.726562 C 7.789062 48.894531 6.28125 49.0625 4.773438 49.230469 C 4.1875 50.238281 3.851562 51.328125 3.769531 52.496094 C 7.910156 52.808594 11.929688 52.308594 15.832031 50.988281 C 15.496094 49.480469 15.164062 47.972656 14.828125 46.46875 C 17.316406 42.730469 16.5625 39.71875 12.566406 37.425781 C 12.640625 38.089844 12.554688 38.675781 12.3125 39.183594 C 9.601562 39.441406 6.921875 39.863281 4.273438 40.4375 C 5.335938 39.355469 6.675781 38.855469 8.292969 38.933594 C 9.136719 38.734375 9.976562 38.484375 10.804688 38.179688 C 9.632812 37.675781 8.796875 36.839844 8.292969 35.667969 C 7.816406 35.425781 7.3125 35.339844 6.785156 35.414062 C 6.761719 34.011719 7.429688 33.09375 8.796875 32.652344 C 7.589844 32.296875 6.417969 32.378906 5.277344 32.902344 C 4.699219 31.382812 5.199219 30.378906 6.785156 29.890625 C 7.339844 29.359375 8.007812 28.9375 8.796875 28.632812 C 10.972656 28.464844 13.152344 28.300781 15.328125 28.132812 C 13.5 27.050781 12.160156 25.542969 11.308594 23.609375 C 9.875 23.023438 8.453125 22.4375 7.035156 21.851562 C 6.929688 20.234375 7.683594 19.226562 9.296875 18.839844 Z M 9.296875 18.839844 "/>
<path style=" stroke:none;fill-rule:evenodd;fill:rgb(98.431373%,13.72549%,32.54902%);fill-opacity:1;" d="M 6.785156 29.890625 C 8.433594 30.03125 10.023438 29.863281 11.558594 29.386719 C 11.804688 30.035156 11.890625 30.707031 11.8125 31.398438 C 16.921875 31.511719 17.929688 29.667969 14.828125 25.871094 C 15.445312 25.476562 16.113281 25.226562 16.835938 25.117188 C 16.671875 24.949219 16.503906 24.78125 16.335938 24.613281 C 17.675781 24.28125 19.015625 24.28125 20.355469 24.613281 C 20.027344 25.421875 20.28125 26.175781 21.109375 26.875 C 21.476562 28.597656 20.890625 29.9375 19.351562 30.894531 C 18.109375 31.207031 16.9375 31.625 15.832031 32.148438 C 19.046875 32.375 19.132812 32.796875 16.082031 33.40625 C 14.699219 32.644531 13.609375 32.894531 12.816406 34.160156 C 13.445312 34.910156 13.445312 35.664062 12.816406 36.421875 C 12.15625 35.507812 11.402344 34.671875 10.554688 33.910156 C 10.386719 34.074219 10.21875 34.242188 10.050781 34.410156 C 9.546875 33.644531 9.292969 32.808594 9.296875 31.898438 C 8.082031 32.054688 6.90625 31.886719 5.78125 31.398438 C 6.128906 30.886719 6.464844 30.382812 6.785156 29.890625 Z M 6.785156 29.890625 "/>
<path style=" stroke:none;fill-rule:evenodd;fill:rgb(32.54902%,1.568627%,7.058824%);fill-opacity:1;" d="M 6.785156 35.414062 C 7.3125 35.339844 7.816406 35.425781 8.292969 35.667969 C 8.796875 36.839844 9.632812 37.675781 10.804688 38.179688 C 9.976562 38.484375 9.136719 38.734375 8.292969 38.933594 C 8.25 38.429688 8.417969 38.011719 8.796875 37.675781 C 7.722656 37.234375 7.050781 36.480469 6.785156 35.414062 Z M 6.785156 35.414062 "/>
<path style=" stroke:none;fill-rule:evenodd;fill:rgb(98.823529%,18.039216%,33.72549%);fill-opacity:1;" d="M 8.292969 47.972656 C 5.691406 47.546875 4.683594 46.039062 5.277344 43.453125 C 4.421875 43.535156 3.585938 43.449219 2.765625 43.203125 C 2.027344 41.664062 2.53125 40.746094 4.273438 40.4375 C 6.921875 39.863281 9.601562 39.441406 12.3125 39.183594 C 12.554688 38.675781 12.640625 38.089844 12.566406 37.425781 C 16.5625 39.71875 17.316406 42.730469 14.828125 46.46875 C 15.164062 47.972656 15.496094 49.480469 15.832031 50.988281 C 11.929688 52.308594 7.910156 52.808594 3.769531 52.496094 C 3.851562 51.328125 4.1875 50.238281 4.773438 49.230469 C 6.28125 49.0625 7.789062 48.894531 9.296875 48.726562 C 9.023438 48.367188 8.691406 48.117188 8.292969 47.972656 Z M 8.292969 47.972656 "/>
<path style=" stroke:none;fill-rule:evenodd;fill:rgb(64.705882%,3.137255%,24.705882%);fill-opacity:1;" d="M 19.351562 35.917969 C 20.105469 36.546875 20.941406 37.050781 21.863281 37.425781 C 22.835938 42.316406 23.171875 47.339844 22.867188 52.496094 C 22.703125 52.496094 22.535156 52.496094 22.367188 52.496094 C 21.253906 52.144531 20.335938 51.472656 19.601562 50.484375 C 19.378906 49.058594 19.125 47.632812 18.847656 46.214844 C 19.417969 42.753906 19.585938 39.324219 19.351562 35.917969 Z M 19.351562 35.917969 "/>
<path style=" stroke:none;fill-rule:evenodd;fill:rgb(34.117647%,8.627451%,11.372549%);fill-opacity:1;" d="M 22.367188 52.496094 C 22.535156 52.496094 22.703125 52.496094 22.867188 52.496094 C 20.523438 52.832031 18.179688 53.164062 15.832031 53.5 C 14.480469 53.582031 13.140625 53.5 11.8125 53.25 C 15.292969 52.578125 18.8125 52.324219 22.367188 52.496094 Z M 22.367188 52.496094 "/>
<path style=" stroke:none;fill-rule:evenodd;fill:rgb(56.470588%,6.27451%,20.784314%);fill-opacity:1;" d="M 16.335938 53.5 C 18.511719 53.5 20.691406 53.5 22.867188 53.5 C 22.8125 57.527344 22.980469 61.546875 23.371094 65.554688 C 23.480469 67.078125 23.144531 68.417969 22.367188 69.574219 C 22.664062 65.402344 22.414062 61.214844 21.613281 57.015625 C 21.40625 57.246094 21.152344 57.414062 20.859375 57.519531 C 20.558594 56.476562 20.390625 55.472656 20.355469 54.503906 C 19.402344 54.019531 18.398438 53.851562 17.339844 54.003906 C 16.84375 54.089844 16.507812 53.921875 16.335938 53.5 Z M 16.335938 53.5 "/>
<path style=" stroke:none;fill-rule:evenodd;fill:rgb(67.843137%,1.176471%,23.529412%);fill-opacity:1;" d="M 17.339844 54.003906 C 18.398438 53.851562 19.402344 54.019531 20.355469 54.503906 C 20.390625 55.472656 20.558594 56.476562 20.859375 57.519531 C 21.152344 57.414062 21.40625 57.246094 21.613281 57.015625 C 22.414062 61.214844 22.664062 65.402344 22.367188 69.574219 C 21.824219 70.601562 20.984375 71.269531 19.851562 71.585938 C 19.40625 71.890625 18.902344 72.058594 18.34375 72.085938 C 18.34375 71.917969 18.34375 71.75 18.34375 71.585938 C 18.34375 71.25 18.511719 71.082031 18.847656 71.082031 C 18.75 68.90625 18.914062 66.648438 19.351562 64.300781 C 19.308594 62.273438 18.804688 60.433594 17.84375 58.773438 C 18.707031 58.511719 19.378906 58.007812 19.851562 57.269531 C 19.648438 56.792969 19.316406 56.457031 18.847656 56.261719 C 19.183594 55.929688 19.519531 55.59375 19.851562 55.257812 C 18.769531 55.207031 17.933594 54.789062 17.339844 54.003906 Z M 17.339844 54.003906 "/>
<path style=" stroke:none;fill-rule:evenodd;fill:rgb(98.823529%,15.294118%,33.72549%);fill-opacity:1;" d="M 18.847656 71.082031 C 18.511719 71.082031 18.34375 71.25 18.34375 71.585938 C 16.410156 71.644531 14.570312 71.308594 12.816406 70.578125 C 12.816406 69.402344 12.394531 68.398438 11.558594 67.566406 C 11.367188 68.03125 11.03125 68.367188 10.554688 68.570312 C 7.636719 68.242188 5.210938 67.070312 3.265625 65.054688 C 3.640625 64.710938 3.976562 64.375 4.273438 64.050781 C 5.777344 63.859375 7.117188 63.273438 8.292969 62.292969 C 8.03125 62.007812 7.863281 61.675781 7.789062 61.285156 C 8.472656 60.5 8.808594 59.578125 8.796875 58.523438 C 6.867188 58.566406 5.359375 57.8125 4.273438 56.261719 C 4.550781 55.5625 4.714844 54.890625 4.773438 54.253906 C 8.457031 54.003906 12.144531 53.917969 15.832031 54.003906 C 15.917969 54.667969 15.75 55.253906 15.328125 55.761719 C 16.476562 55.964844 17.144531 56.632812 17.339844 57.769531 C 15.082031 59.578125 15.414062 60.5 18.34375 60.53125 C 18.195312 64.09375 18.363281 67.609375 18.847656 71.082031 Z M 18.847656 71.082031 "/>
<use xlink:href="#surface11" mask="url(#mask2)"/>
<path style=" stroke:none;fill-rule:evenodd;fill:rgb(40.784314%,1.176471%,9.411765%);fill-opacity:1;" d="M 19.851562 71.585938 C 19.851562 72.253906 20.1875 72.589844 20.859375 72.589844 C 20.503906 73.042969 20 73.210938 19.351562 73.089844 C 17.667969 73.175781 15.992188 73.089844 14.324219 72.839844 C 15.589844 72.210938 16.929688 71.960938 18.34375 72.085938 C 18.902344 72.058594 19.40625 71.890625 19.851562 71.585938 Z M 19.851562 71.585938 "/>
<use xlink:href="#surface14" mask="url(#mask3)"/>
<path style=" stroke:none;fill-rule:evenodd;fill:rgb(36.470588%,8.235294%,10.980392%);fill-opacity:1;" d="M 9.296875 78.617188 C 11.316406 78.535156 13.328125 78.617188 15.328125 78.867188 C 14.476562 79.460938 13.640625 80.046875 12.816406 80.625 C 12.816406 80.125 12.816406 79.621094 12.816406 79.121094 C 11.53125 79.269531 10.359375 79.105469 9.296875 78.617188 Z M 9.296875 78.617188 "/>
<path style=" stroke:none;fill-rule:evenodd;fill:rgb(79.215686%,1.960784%,27.45098%);fill-opacity:1;" d="M 26.890625 82.636719 C 22.691406 82.941406 21.101562 81.097656 22.113281 77.109375 C 21.480469 76.050781 20.558594 75.550781 19.351562 75.601562 C 19.351562 74.933594 19.351562 74.261719 19.351562 73.59375 C 19.351562 73.425781 19.351562 73.257812 19.351562 73.089844 C 20 73.210938 20.503906 73.042969 20.859375 72.589844 C 21.027344 72.589844 21.195312 72.589844 21.359375 72.589844 C 21.863281 72.632812 22.28125 72.464844 22.617188 72.085938 C 22.902344 73.574219 23.488281 74.914062 24.378906 76.105469 C 24.210938 76.441406 24.042969 76.773438 23.875 77.109375 C 24.925781 78.953125 25.933594 80.796875 26.890625 82.636719 Z M 26.890625 82.636719 "/>
<path style=" stroke:none;fill-rule:evenodd;fill:rgb(96.078431%,21.568627%,36.078431%);fill-opacity:1;" d="M 4.273438 64.050781 C 3.976562 64.375 3.640625 64.710938 3.265625 65.054688 C 5.210938 67.070312 7.636719 68.242188 10.554688 68.570312 C 11.03125 68.367188 11.367188 68.03125 11.558594 67.566406 C 12.394531 68.398438 12.816406 69.402344 12.816406 70.578125 C 14.570312 71.308594 16.410156 71.644531 18.34375 71.585938 C 18.34375 71.75 18.34375 71.917969 18.34375 72.085938 C 16.929688 71.960938 15.589844 72.210938 14.324219 72.839844 C 15.992188 73.089844 17.667969 73.175781 19.351562 73.089844 C 19.351562 73.257812 19.351562 73.425781 19.351562 73.59375 C 16.449219 73.214844 13.769531 73.71875 11.308594 75.101562 C 12.3125 75.4375 13.320312 75.769531 14.324219 76.105469 C 14.0625 76.453125 13.726562 76.703125 13.320312 76.859375 C 14.378906 77.039062 15.382812 77.375 16.335938 77.863281 C 15.765625 78.375 15.933594 78.710938 16.835938 78.867188 C 16.59375 79.375 16.511719 79.960938 16.585938 80.625 C 15.726562 81.320312 15.054688 82.15625 14.574219 83.136719 C 13.664062 82.582031 13.246094 82.917969 13.320312 84.144531 C 14.144531 84.25 14.898438 84.082031 15.582031 83.640625 C 16.066406 84.234375 16.320312 84.902344 16.335938 85.648438 C 18.40625 86.167969 20.585938 86.167969 22.867188 85.648438 C 23.382812 86.328125 24.054688 86.664062 24.878906 86.65625 C 24.960938 88.335938 24.878906 90.011719 24.628906 91.679688 C 23.625 92.390625 22.539062 92.890625 21.359375 93.183594 C 21.8125 92.066406 22.652344 91.5625 23.875 91.679688 C 23.875 91.007812 23.875 90.339844 23.875 89.667969 C 24.332031 89.046875 24.417969 88.378906 24.125 87.660156 C 20.460938 89.679688 16.523438 90.519531 12.3125 90.171875 C 9.980469 89.257812 8.136719 87.75 6.785156 85.648438 C 8.042969 84.914062 9.382812 84.328125 10.804688 83.890625 C 11.402344 83.378906 11.90625 82.792969 12.3125 82.132812 C 10.941406 81.195312 11.109375 80.695312 12.816406 80.625 C 13.640625 80.046875 14.476562 79.460938 15.328125 78.867188 C 13.328125 78.617188 11.316406 78.535156 9.296875 78.617188 C 8.152344 78.5625 7.144531 78.144531 6.28125 77.363281 C 3.269531 74.515625 3.773438 73.511719 7.789062 74.347656 C 6.730469 73.890625 6.308594 73.140625 6.535156 72.085938 C 7.832031 70.984375 9.257812 70.0625 10.804688 69.324219 C 7.886719 68.910156 5.207031 67.90625 2.765625 66.308594 C 1.386719 64.570312 1.886719 63.816406 4.273438 64.050781 Z M 4.273438 64.050781 "/>
<path style=" stroke:none;fill-rule:evenodd;fill:rgb(96.862745%,12.941176%,32.941176%);fill-opacity:1;" d="M 19.351562 73.59375 C 19.351562 74.261719 19.351562 74.933594 19.351562 75.601562 C 20.558594 75.550781 21.480469 76.050781 22.113281 77.109375 C 21.101562 81.097656 22.691406 82.941406 26.890625 82.636719 C 27.324219 83.601562 27.660156 84.605469 27.894531 85.648438 C 27.777344 86.296875 27.945312 86.800781 28.398438 87.15625 C 29.234375 87.15625 30.074219 87.15625 30.910156 87.15625 C 31.59375 89.941406 30.589844 91.785156 27.894531 92.683594 C 27.710938 94.191406 27.039062 95.363281 25.886719 96.199219 C 26.363281 94.910156 26.363281 93.652344 25.886719 92.433594 C 24.605469 92.601562 23.347656 93.019531 22.113281 93.6875 C 21.730469 93.652344 21.480469 93.484375 21.359375 93.183594 C 22.539062 92.890625 23.625 92.390625 24.628906 91.679688 C 24.878906 90.011719 24.960938 88.335938 24.878906 86.65625 C 24.054688 86.664062 23.382812 86.328125 22.867188 85.648438 C 20.585938 86.167969 18.40625 86.167969 16.335938 85.648438 C 16.320312 84.902344 16.066406 84.234375 15.582031 83.640625 C 14.898438 84.082031 14.144531 84.25 13.320312 84.144531 C 13.246094 82.917969 13.664062 82.582031 14.574219 83.136719 C 15.054688 82.15625 15.726562 81.320312 16.585938 80.625 C 16.511719 79.960938 16.59375 79.375 16.835938 78.867188 C 15.933594 78.710938 15.765625 78.375 16.335938 77.863281 C 15.382812 77.375 14.378906 77.039062 13.320312 76.859375 C 13.726562 76.703125 14.0625 76.453125 14.324219 76.105469 C 13.320312 75.769531 12.3125 75.4375 11.308594 75.101562 C 13.769531 73.71875 16.449219 73.214844 19.351562 73.59375 Z M 19.351562 73.59375 "/>
<path style=" stroke:none;fill-rule:evenodd;fill:rgb(66.666667%,4.313725%,24.313725%);fill-opacity:1;" d="M 30.410156 84.144531 C 29.652344 84.773438 28.816406 85.273438 27.894531 85.648438 C 27.660156 84.605469 27.324219 83.601562 26.890625 82.636719 C 25.933594 80.796875 24.925781 78.953125 23.875 77.109375 C 24.042969 76.773438 24.210938 76.441406 24.378906 76.105469 C 23.488281 74.914062 22.902344 73.574219 22.617188 72.085938 C 22.28125 72.464844 21.863281 72.632812 21.359375 72.589844 C 22.011719 71.6875 22.765625 70.847656 23.621094 70.078125 C 25.117188 74.738281 27.628906 78.757812 31.164062 82.132812 C 31.550781 83.0625 31.300781 83.734375 30.410156 84.144531 Z M 30.410156 84.144531 "/>
<use xlink:href="#surface17" mask="url(#mask4)"/>
<path style=" stroke:none;fill-rule:evenodd;fill:rgb(90.588235%,87.45098%,85.490196%);fill-opacity:1;" d="M 85.695312 70.578125 C 89.042969 70.628906 89.542969 71.882812 87.203125 74.347656 C 86.554688 74.59375 85.882812 74.675781 85.195312 74.597656 C 85.230469 73.238281 85.398438 71.898438 85.695312 70.578125 Z M 85.695312 70.578125 "/>
<path style=" stroke:none;fill-rule:evenodd;fill:rgb(92.54902%,90.196078%,89.411765%);fill-opacity:1;" d="M 82.179688 70.578125 C 83.015625 70.578125 83.851562 70.578125 84.691406 70.578125 C 84.691406 71.75 84.691406 72.925781 84.691406 74.097656 C 81.800781 74.414062 80.964844 73.238281 82.179688 70.578125 Z M 82.179688 70.578125 "/>
<path style=" stroke:none;fill-rule:evenodd;fill:rgb(86.666667%,82.352941%,80%);fill-opacity:1;" d="M 83.6875 64.550781 C 84.859375 64.550781 86.03125 64.550781 87.203125 64.550781 C 87.371094 66.5625 87.539062 66.5625 87.707031 64.550781 C 88.710938 64.550781 89.71875 64.550781 90.722656 64.550781 C 91.152344 67.40625 89.980469 68.746094 87.203125 68.570312 C 87.292969 66.300781 86.957031 66.132812 86.199219 68.066406 C 85.027344 68.738281 83.851562 68.738281 82.679688 68.066406 C 83.09375 66.914062 83.429688 65.738281 83.6875 64.550781 Z M 83.6875 64.550781 "/>
<path style=" stroke:none;fill-rule:evenodd;fill:rgb(86.27451%,82.745098%,78.431373%);fill-opacity:1;" d="M 84.1875 58.523438 C 85.960938 58.265625 87.554688 58.601562 88.964844 59.527344 C 89.675781 58.59375 90.597656 58.339844 91.726562 58.773438 C 92.28125 60.03125 92.195312 61.285156 91.476562 62.542969 C 90.621094 62.996094 89.699219 63.164062 88.710938 63.042969 C 88.789062 60.125 88.457031 59.957031 87.707031 62.542969 C 86.40625 63.035156 85.066406 63.203125 83.6875 63.042969 C 84.015625 61.558594 84.183594 60.054688 84.1875 58.523438 Z M 84.1875 58.523438 "/>
<path style=" stroke:none;fill-rule:evenodd;fill:rgb(12.54902%,11.764706%,10.588235%);fill-opacity:1;" d="M 73.132812 27.378906 C 73.140625 28.433594 72.808594 29.355469 72.125 30.140625 C 72.628906 31.3125 73.132812 32.484375 73.632812 33.65625 C 73.246094 34.730469 72.914062 35.820312 72.628906 36.921875 C 73.207031 38.058594 73.457031 39.230469 73.382812 40.4375 C 70.929688 42.722656 68.332031 44.816406 65.589844 46.71875 C 63.453125 48.339844 61.945312 50.351562 61.066406 52.746094 C 61.160156 54.53125 61.746094 56.121094 62.828125 57.519531 C 66.21875 60.175781 69.652344 62.769531 73.132812 65.304688 C 73.53125 65.851562 73.863281 66.4375 74.136719 67.0625 C 73.292969 67.992188 72.792969 69.082031 72.628906 70.328125 C 73.011719 73.335938 73.011719 76.265625 72.628906 79.121094 C 72.605469 80.46875 71.933594 81.140625 70.617188 81.128906 C 70.359375 79.863281 69.859375 78.691406 69.109375 77.613281 C 71.804688 68.941406 68.707031 63.414062 59.8125 61.035156 C 59.671875 61.496094 59.421875 61.828125 59.058594 62.039062 C 59.140625 60.855469 59.054688 59.683594 58.804688 58.523438 C 54.785156 59.863281 52.105469 62.542969 50.765625 66.5625 C 49.953125 69.027344 49.367188 71.539062 49.003906 74.097656 C 47.433594 73.875 46.261719 73.035156 45.488281 71.585938 C 46.988281 67.429688 48.410156 63.246094 49.757812 59.027344 C 50.996094 56.953125 52.421875 55.027344 54.03125 53.25 C 52.25 50.960938 50.660156 48.535156 49.257812 45.964844 C 48.199219 42.121094 46.941406 38.351562 45.488281 34.660156 C 46.410156 33.742188 47.328125 32.820312 48.25 31.898438 C 49.332031 35.050781 50.339844 38.234375 51.265625 41.445312 C 52.957031 45.007812 55.722656 47.183594 59.558594 47.972656 C 59.3125 46.816406 59.144531 45.644531 59.058594 44.457031 C 66.109375 44.359375 69.796875 40.757812 70.113281 33.65625 C 70.089844 32.503906 69.757812 31.582031 69.109375 30.894531 C 70.03125 29.546875 70.535156 28.039062 70.617188 26.375 C 70.648438 26.101562 70.816406 25.933594 71.121094 25.871094 C 71.800781 26.386719 72.46875 26.886719 73.132812 27.378906 Z M 73.132812 27.378906 "/>
<path style=" stroke:none;fill-rule:evenodd;fill:rgb(77.254902%,71.764706%,67.058824%);fill-opacity:1;" d="M 81.171875 48.476562 C 81.671875 48.433594 82.09375 48.601562 82.429688 48.980469 C 82.679688 51.652344 82.765625 54.332031 82.679688 57.015625 C 82.179688 57.015625 81.675781 57.015625 81.171875 57.015625 C 81.171875 54.167969 81.171875 51.324219 81.171875 48.476562 Z M 81.171875 48.476562 "/>
<path style=" stroke:none;fill-rule:evenodd;fill:rgb(84.313725%,77.254902%,70.588235%);fill-opacity:1;" d="M 85.195312 49.984375 C 87.539062 49.984375 89.882812 49.984375 92.230469 49.984375 C 92.230469 51.992188 92.230469 54.003906 92.230469 56.011719 C 89.882812 56.011719 87.539062 56.011719 85.195312 56.011719 C 85.195312 55.175781 85.195312 54.335938 85.195312 53.5 C 85.722656 53.574219 86.226562 53.492188 86.703125 53.25 C 85.722656 52.378906 85.21875 51.289062 85.195312 49.984375 Z M 85.195312 49.984375 "/>
<path style=" stroke:none;fill-rule:evenodd;fill:rgb(79.607843%,74.901961%,71.764706%);fill-opacity:1;" d="M 84.1875 42.949219 C 85.503906 42.816406 86.761719 42.984375 87.957031 43.453125 C 88.207031 44.78125 88.292969 46.121094 88.210938 47.472656 C 86.867188 47.472656 85.527344 47.472656 84.1875 47.472656 C 84.1875 45.964844 84.1875 44.457031 84.1875 42.949219 Z M 84.1875 42.949219 "/>
<path style=" stroke:none;fill-rule:evenodd;fill:rgb(63.137255%,59.215686%,55.294118%);fill-opacity:1;" d="M 80.167969 42.949219 C 81.8125 43.210938 82.484375 44.214844 82.179688 45.964844 C 82.066406 46.945312 81.730469 47.785156 81.171875 48.476562 C 80.417969 46.652344 80.085938 44.808594 80.167969 42.949219 Z M 80.167969 42.949219 "/>
<path style=" stroke:none;fill-rule:evenodd;fill:rgb(88.235294%,85.490196%,82.352941%);fill-opacity:1;" d="M 88.710938 42.949219 C 89.828125 42.789062 90.75 43.125 91.476562 43.957031 C 91.726562 45.117188 91.808594 46.289062 91.726562 47.472656 C 90.828125 47.613281 89.992188 47.449219 89.214844 46.96875 C 88.765625 45.671875 88.597656 44.332031 88.710938 42.949219 Z M 88.710938 42.949219 "/>
<path style=" stroke:none;fill-rule:evenodd;fill:rgb(89.803922%,85.098039%,80.784314%);fill-opacity:1;" d="M 87.203125 37.425781 C 89.964844 37.335938 91.136719 38.675781 90.722656 41.445312 C 88.179688 41.421875 87.007812 40.082031 87.203125 37.425781 Z M 87.203125 37.425781 "/>
<path style=" stroke:none;fill-rule:evenodd;fill:rgb(88.627451%,83.137255%,78.431373%);fill-opacity:1;" d="M 82.679688 37.925781 C 83.910156 37.4375 85.25 37.269531 86.703125 37.425781 C 86.703125 38.597656 86.703125 39.769531 86.703125 40.941406 C 85.652344 40.851562 84.644531 41.015625 83.6875 41.445312 C 83.351562 40.203125 83.015625 39.03125 82.679688 37.925781 Z M 82.679688 37.925781 "/>
<path style=" stroke:none;fill-rule:evenodd;fill:rgb(76.470588%,70.980392%,65.490196%);fill-opacity:1;" d="M 79.164062 37.425781 C 79.753906 37.316406 80.253906 37.480469 80.671875 37.925781 C 81.109375 39.054688 81.277344 40.226562 81.171875 41.445312 C 80.671875 41.445312 80.167969 41.445312 79.664062 41.445312 C 79.175781 40.214844 79.007812 38.875 79.164062 37.425781 Z M 79.164062 37.425781 "/>
<path style=" stroke:none;fill-rule:evenodd;fill:rgb(85.098039%,79.607843%,74.509804%);fill-opacity:1;" d="M 85.195312 31.898438 C 87.890625 31.921875 88.894531 33.261719 88.210938 35.917969 C 85.539062 35.917969 84.53125 34.578125 85.195312 31.898438 Z M 85.195312 31.898438 "/>
<path style=" stroke:none;fill-rule:evenodd;fill:rgb(86.27451%,81.176471%,76.862745%);fill-opacity:1;" d="M 81.675781 32.402344 C 82.679688 32.402344 83.6875 32.402344 84.691406 32.402344 C 84.691406 33.574219 84.691406 34.746094 84.691406 35.917969 C 82.179688 36.105469 81.175781 34.933594 81.675781 32.402344 Z M 81.675781 32.402344 "/>
<path style=" stroke:none;fill-rule:evenodd;fill:rgb(98.431373%,95.294118%,88.235294%);fill-opacity:1;" d="M 70.617188 26.375 C 70.535156 28.039062 70.03125 29.546875 69.109375 30.894531 C 64.355469 24.941406 59.078125 24.4375 53.277344 29.386719 C 49.449219 36.632812 51.375 41.65625 59.058594 44.457031 C 59.144531 45.644531 59.3125 46.816406 59.558594 47.972656 C 55.722656 47.183594 52.957031 45.007812 51.265625 41.445312 C 50.339844 38.234375 49.332031 35.050781 48.25 31.898438 C 47.328125 32.820312 46.410156 33.742188 45.488281 34.660156 C 46.941406 38.351562 48.199219 42.121094 49.257812 45.964844 C 50.660156 48.535156 52.25 50.960938 54.03125 53.25 C 52.421875 55.027344 50.996094 56.953125 49.757812 59.027344 C 48.410156 63.246094 46.988281 67.429688 45.488281 71.585938 C 46.261719 73.035156 47.433594 73.875 49.003906 74.097656 C 49.367188 71.539062 49.953125 69.027344 50.765625 66.5625 C 52.105469 62.542969 54.785156 59.863281 58.804688 58.523438 C 59.054688 59.683594 59.140625 60.855469 59.058594 62.039062 C 51.714844 64.660156 49.621094 69.515625 52.773438 76.609375 C 58.25 82.050781 63.609375 81.882812 68.859375 76.105469 C 69.101562 76.582031 69.183594 77.085938 69.109375 77.613281 C 69.859375 78.691406 70.359375 79.863281 70.617188 81.128906 C 71.933594 81.140625 72.605469 80.46875 72.628906 79.121094 C 73.011719 76.265625 73.011719 73.335938 72.628906 70.328125 C 72.792969 69.082031 73.292969 67.992188 74.136719 67.0625 C 73.863281 66.4375 73.53125 65.851562 73.132812 65.304688 C 69.652344 62.769531 66.21875 60.175781 62.828125 57.519531 C 61.746094 56.121094 61.160156 54.53125 61.066406 52.746094 C 61.945312 50.351562 63.453125 48.339844 65.589844 46.71875 C 68.332031 44.816406 70.929688 42.722656 73.382812 40.4375 C 73.457031 39.230469 73.207031 38.058594 72.628906 36.921875 C 72.914062 35.820312 73.246094 34.730469 73.632812 33.65625 C 73.132812 32.484375 72.628906 31.3125 72.125 30.140625 C 72.808594 29.355469 73.140625 28.433594 73.132812 27.378906 C 73.785156 28.074219 73.785156 28.828125 73.132812 29.636719 C 75.75 31.5 77.925781 33.761719 79.664062 36.421875 C 79.242188 36.59375 79.074219 36.925781 79.164062 37.425781 C 79.007812 38.875 79.175781 40.214844 79.664062 41.445312 C 79.546875 42.09375 79.714844 42.59375 80.167969 42.949219 C 80.085938 44.808594 80.417969 46.652344 81.171875 48.476562 C 81.171875 51.324219 81.171875 54.167969 81.171875 57.015625 C 82.019531 58.902344 82.351562 60.914062 82.179688 63.042969 C 81.507812 63.042969 80.835938 63.042969 80.167969 63.042969 C 80.167969 63.546875 80.167969 64.050781 80.167969 64.550781 C 80.671875 64.550781 81.171875 64.550781 81.675781 64.550781 C 81.546875 65.777344 81.210938 66.949219 80.671875 68.066406 C 80.253906 68.511719 79.753906 68.679688 79.164062 68.570312 C 79.226562 69.425781 79.5625 70.179688 80.167969 70.832031 C 79.1875 74.710938 77.597656 78.3125 75.394531 81.632812 C 73.171875 84.039062 70.40625 85.296875 67.097656 85.398438 C 60.566406 85.734375 54.03125 85.734375 47.496094 85.398438 C 40.628906 84.84375 34.847656 82.082031 30.15625 77.109375 C 29.265625 75.824219 28.511719 74.484375 27.894531 73.089844 C 27.332031 63.222656 27.25 53.34375 27.644531 43.453125 C 28.503906 35.390625 32.945312 30.789062 40.964844 29.636719 C 44.070312 29.125 47.085938 29.375 50.011719 30.390625 C 52 28.152344 54.347656 26.390625 57.046875 25.117188 C 61.65625 24.769531 66.179688 25.1875 70.617188 26.375 Z M 70.617188 26.375 "/>
<path style=" stroke:none;fill-rule:evenodd;fill:rgb(1.176471%,1.176471%,1.568627%);fill-opacity:1;" d="M 69.109375 77.613281 C 69.183594 77.085938 69.101562 76.582031 68.859375 76.105469 C 63.609375 81.882812 58.25 82.050781 52.773438 76.609375 C 49.621094 69.515625 51.714844 64.660156 59.058594 62.039062 C 59.421875 61.828125 59.671875 61.496094 59.8125 61.035156 C 68.707031 63.414062 71.804688 68.941406 69.109375 77.613281 Z M 69.109375 77.613281 "/>
<path style=" stroke:none;fill-rule:evenodd;fill:rgb(6.666667%,6.27451%,5.882353%);fill-opacity:1;" d="M 72.125 48.980469 C 73.417969 48.800781 74.589844 49.054688 75.644531 49.730469 C 74.226562 51.027344 72.71875 52.199219 71.121094 53.25 C 73.292969 53.996094 74.632812 55.417969 75.140625 57.519531 C 71.648438 57.40625 68.546875 56.234375 65.84375 54.003906 C 65.5 53.355469 65.582031 52.769531 66.09375 52.242188 C 68.070312 51.007812 70.082031 49.917969 72.125 48.980469 Z M 72.125 48.980469 "/>
<path style=" stroke:none;fill-rule:evenodd;fill:rgb(1.176471%,1.568627%,1.960784%);fill-opacity:1;" d="M 69.109375 30.894531 C 69.757812 31.582031 70.089844 32.503906 70.113281 33.65625 C 69.796875 40.757812 66.109375 44.359375 59.058594 44.457031 C 51.375 41.65625 49.449219 36.632812 53.277344 29.386719 C 59.078125 24.4375 64.355469 24.941406 69.109375 30.894531 Z M 69.109375 30.894531 "/>
<path style=" stroke:none;fill-rule:evenodd;fill:rgb(83.137255%,71.764706%,67.058824%);fill-opacity:1;" d="M 79.664062 36.421875 C 77.925781 33.761719 75.75 31.5 73.132812 29.636719 C 73.785156 28.828125 73.785156 28.074219 73.132812 27.378906 C 72.46875 26.886719 71.800781 26.386719 71.121094 25.871094 C 70.816406 25.933594 70.648438 26.101562 70.617188 26.375 C 66.179688 25.1875 61.65625 24.769531 57.046875 25.117188 C 54.347656 26.390625 52 28.152344 50.011719 30.390625 C 47.085938 29.375 44.070312 29.125 40.964844 29.636719 C 32.945312 30.789062 28.503906 35.390625 27.644531 43.453125 C 27.25 53.34375 27.332031 63.222656 27.894531 73.089844 C 26.046875 70.058594 25.125 66.710938 25.132812 63.042969 C 24.796875 55.84375 24.796875 48.644531 25.132812 41.445312 C 26.3125 33.238281 30.582031 27.292969 37.949219 23.609375 C 41.1875 22.328125 44.535156 21.488281 48 21.097656 C 54.886719 20.691406 61.753906 20.859375 68.605469 21.601562 C 74.023438 22.992188 77.457031 26.425781 78.910156 31.898438 C 79.328125 33.15625 79.75 34.410156 80.167969 35.667969 C 80.132812 36.050781 79.964844 36.300781 79.664062 36.421875 Z M 79.664062 36.421875 "/>
<path style=" stroke:none;fill-rule:evenodd;fill:rgb(70.196078%,61.960784%,59.215686%);fill-opacity:1;" d="M 67.097656 12.308594 C 69.820312 13.894531 71.078125 16.238281 70.867188 19.339844 C 66.816406 18.6875 62.710938 18.355469 58.554688 18.335938 C 58.34375 17.972656 58.011719 17.722656 57.550781 17.582031 C 60.167969 15.5625 63.101562 14.136719 66.34375 13.3125 C 66.863281 13.144531 67.113281 12.808594 67.097656 12.308594 Z M 67.097656 12.308594 "/>
<path style=" stroke:none;fill-rule:evenodd;fill:rgb(87.058824%,77.647059%,72.54902%);fill-opacity:1;" d="M 67.097656 12.308594 C 67.113281 12.808594 66.863281 13.144531 66.34375 13.3125 C 63.101562 14.136719 60.167969 15.5625 57.550781 17.582031 C 58.011719 17.722656 58.34375 17.972656 58.554688 18.335938 C 57.382812 18.335938 56.210938 18.335938 55.035156 18.335938 C 55.640625 13.796875 58.234375 11.453125 62.828125 11.304688 C 64.371094 11.234375 65.796875 11.570312 67.097656 12.308594 Z M 67.097656 12.308594 "/>
<path style=" stroke:none;fill-rule:evenodd;fill:rgb(85.098039%,18.823529%,35.294118%);fill-opacity:1;" d="M 54.535156 6.78125 C 60.804688 7.039062 61.308594 8.460938 56.042969 11.050781 C 55.347656 12.019531 54.59375 12.941406 53.78125 13.816406 C 53.363281 12.558594 52.941406 11.304688 52.523438 10.046875 C 52.902344 8.753906 53.570312 7.667969 54.535156 6.78125 Z M 54.535156 6.78125 "/>
<path style=" stroke:none;fill-rule:evenodd;fill:rgb(37.647059%,0.784314%,8.627451%);fill-opacity:1;" d="M 30.410156 84.144531 C 30.320312 84.640625 30.488281 84.976562 30.910156 85.148438 C 30.164062 85.9375 29.328125 86.609375 28.398438 87.15625 C 27.945312 86.800781 27.777344 86.296875 27.894531 85.648438 C 28.816406 85.273438 29.652344 84.773438 30.410156 84.144531 Z M 30.410156 84.144531 "/>
<path style=" stroke:none;fill-rule:evenodd;fill:rgb(63.921569%,2.745098%,21.176471%);fill-opacity:1;" d="M 49.003906 88.160156 C 49.300781 88.488281 49.636719 88.824219 50.011719 89.167969 C 49.671875 90.355469 49.339844 91.527344 49.003906 92.683594 C 47.988281 94.035156 46.816406 95.207031 45.488281 96.199219 C 45.796875 94.925781 45.714844 93.585938 45.234375 92.179688 C 44.398438 90.839844 43.558594 90.839844 42.722656 92.179688 C 42.214844 91.761719 41.628906 91.59375 40.964844 91.679688 C 40.964844 91.007812 40.964844 90.339844 40.964844 89.667969 C 39.792969 89.796875 38.789062 89.460938 37.949219 88.664062 C 37.433594 88.84375 37.097656 89.175781 36.941406 89.667969 C 36.773438 89.667969 36.605469 89.667969 36.441406 89.667969 C 35.125 89.535156 33.867188 89.703125 32.671875 90.171875 C 32.585938 90.003906 32.503906 89.835938 32.417969 89.667969 C 33.496094 89.136719 34.335938 88.386719 34.933594 87.410156 C 34.632812 86.464844 33.964844 85.960938 32.921875 85.902344 C 33.089844 85.734375 33.257812 85.566406 33.425781 85.398438 C 32.949219 85.15625 32.445312 85.074219 31.917969 85.148438 C 32.148438 84.453125 32.652344 84.121094 33.425781 84.144531 C 36.078125 85.683594 38.925781 86.691406 41.96875 87.15625 C 40.9375 92.199219 41.609375 92.449219 43.980469 87.910156 C 45.636719 87.933594 47.3125 88.015625 49.003906 88.160156 Z M 49.003906 88.160156 "/>
<path style=" stroke:none;fill-rule:evenodd;fill:rgb(16.470588%,3.921569%,3.921569%);fill-opacity:1;" d="M 23.875 89.667969 C 21.847656 90.226562 20.003906 91.0625 18.34375 92.179688 C 16.335938 91.476562 14.324219 90.804688 12.3125 90.171875 C 16.523438 90.519531 20.460938 89.679688 24.125 87.660156 C 24.417969 88.378906 24.332031 89.046875 23.875 89.667969 Z M 23.875 89.667969 "/>
<path style=" stroke:none;fill-rule:evenodd;fill:rgb(84.705882%,76.862745%,70.980392%);fill-opacity:1;" d="M 67.601562 94.191406 C 67.273438 93.535156 66.9375 92.863281 66.597656 92.179688 C 62.949219 91.300781 59.429688 90.128906 56.042969 88.664062 C 55.898438 89.347656 55.730469 90.019531 55.539062 90.671875 C 55.117188 90.101562 54.78125 89.429688 54.535156 88.664062 C 60.0625 88.253906 65.589844 87.921875 71.121094 87.660156 C 70.859375 90.363281 69.683594 92.542969 67.601562 94.191406 Z M 67.601562 94.191406 "/>
<path style=" stroke:none;fill-rule:evenodd;fill:rgb(60.392157%,14.509804%,21.960784%);fill-opacity:1;" d="M 23.875 89.667969 C 23.875 90.339844 23.875 91.007812 23.875 91.679688 C 22.652344 91.5625 21.8125 92.066406 21.359375 93.183594 C 21.027344 93.351562 20.691406 93.519531 20.355469 93.6875 C 20 92.832031 19.328125 92.332031 18.34375 92.179688 C 20.003906 91.0625 21.847656 90.226562 23.875 89.667969 Z M 23.875 89.667969 "/>
<path style=" stroke:none;fill-rule:evenodd;fill:rgb(79.607843%,7.843137%,27.058824%);fill-opacity:1;" d="M 30.910156 85.148438 C 31.246094 85.148438 31.582031 85.148438 31.917969 85.148438 C 32.445312 85.074219 32.949219 85.15625 33.425781 85.398438 C 33.257812 85.566406 33.089844 85.734375 32.921875 85.902344 C 33.964844 85.960938 34.632812 86.464844 34.933594 87.410156 C 34.335938 88.386719 33.496094 89.136719 32.417969 89.667969 C 32.503906 89.835938 32.585938 90.003906 32.671875 90.171875 C 33.867188 89.703125 35.125 89.535156 36.441406 89.667969 C 35.386719 90.828125 34.714844 92.167969 34.429688 93.6875 C 32.765625 95.011719 31.09375 96.6875 29.402344 98.710938 C 28.957031 99.019531 28.453125 99.183594 27.894531 99.214844 C 28.398438 98.453125 28.734375 97.617188 28.902344 96.703125 C 27.777344 96.851562 26.773438 96.683594 25.886719 96.199219 C 27.039062 95.363281 27.710938 94.191406 27.894531 92.683594 C 30.589844 91.785156 31.59375 89.941406 30.910156 87.15625 C 30.074219 87.15625 29.234375 87.15625 28.398438 87.15625 C 29.328125 86.609375 30.164062 85.9375 30.910156 85.148438 Z M 30.910156 85.148438 "/>
<path style=" stroke:none;fill-rule:evenodd;fill:rgb(95.686275%,90.196078%,85.098039%);fill-opacity:1;" d="M 67.601562 94.191406 C 62.449219 96.882812 58.429688 95.710938 55.539062 90.671875 C 55.730469 90.019531 55.898438 89.347656 56.042969 88.664062 C 59.429688 90.128906 62.949219 91.300781 66.597656 92.179688 C 66.9375 92.863281 67.273438 93.535156 67.601562 94.191406 Z M 67.601562 94.191406 "/>
<use xlink:href="#surface20" mask="url(#mask5)"/>
<path style=" stroke:none;fill-rule:evenodd;fill:rgb(76.862745%,1.568627%,27.058824%);fill-opacity:1;" d="M 45.488281 96.199219 C 44.472656 97.550781 43.296875 98.722656 41.96875 99.714844 C 41.917969 96.800781 40.746094 96.128906 38.449219 97.707031 C 37.976562 97.652344 37.558594 97.484375 37.195312 97.203125 C 37.449219 95.84375 37.871094 94.503906 38.449219 93.183594 C 38.148438 91.894531 37.644531 90.722656 36.941406 89.667969 C 37.097656 89.175781 37.433594 88.84375 37.949219 88.664062 C 38.789062 89.460938 39.792969 89.796875 40.964844 89.667969 C 40.964844 90.339844 40.964844 91.007812 40.964844 91.679688 C 41.628906 91.59375 42.214844 91.761719 42.722656 92.179688 C 43.558594 90.839844 44.398438 90.839844 45.234375 92.179688 C 45.714844 93.585938 45.796875 94.925781 45.488281 96.199219 Z M 45.488281 96.199219 "/>
<path style=" stroke:none;fill-rule:evenodd;fill:rgb(94.901961%,18.431373%,34.509804%);fill-opacity:1;" d="M 36.441406 89.667969 C 36.605469 89.667969 36.773438 89.667969 36.941406 89.667969 C 37.644531 90.722656 38.148438 91.894531 38.449219 93.183594 C 37.871094 94.503906 37.449219 95.84375 37.195312 97.203125 C 37.558594 97.484375 37.976562 97.652344 38.449219 97.707031 C 40.746094 96.128906 41.917969 96.800781 41.96875 99.714844 C 41.800781 100.21875 41.464844 100.554688 40.964844 100.71875 C 40.273438 100.640625 39.601562 100.726562 38.953125 100.972656 C 39.121094 101.140625 39.289062 101.308594 39.457031 101.472656 C 36.804688 102.675781 36.46875 102.339844 38.449219 100.46875 C 38.234375 100.007812 38.066406 99.589844 37.949219 99.214844 C 35.875 100.289062 33.78125 101.296875 31.664062 102.226562 C 31.128906 101.878906 30.542969 101.628906 29.90625 101.472656 C 30.347656 101.117188 30.683594 100.699219 30.910156 100.21875 C 31.722656 98.820312 32.644531 97.480469 33.675781 96.199219 C 34.183594 95.433594 34.433594 94.597656 34.429688 93.6875 C 34.714844 92.167969 35.386719 90.828125 36.441406 89.667969 Z M 36.441406 89.667969 "/>
<path style=" stroke:none;fill-rule:evenodd;fill:rgb(13.333333%,3.137255%,3.921569%);fill-opacity:1;" d="M 49.003906 92.683594 C 49.585938 94.066406 49.335938 95.40625 48.25 96.703125 C 47.054688 98.421875 45.632812 99.929688 43.980469 101.222656 C 44.207031 101.625 44.542969 101.792969 44.984375 101.726562 C 44.339844 102.445312 43.503906 102.777344 42.472656 102.730469 C 42.582031 102.140625 42.414062 101.636719 41.96875 101.222656 C 41.40625 101.789062 40.734375 102.125 39.957031 102.226562 C 40.292969 101.726562 40.628906 101.222656 40.964844 100.71875 C 41.464844 100.554688 41.800781 100.21875 41.96875 99.714844 C 43.296875 98.722656 44.472656 97.550781 45.488281 96.199219 C 46.816406 95.207031 47.988281 94.035156 49.003906 92.683594 Z M 49.003906 92.683594 "/>
<path style=" stroke:none;fill-rule:evenodd;fill:rgb(27.843137%,1.960784%,5.098039%);fill-opacity:1;" d="M 34.429688 93.6875 C 34.433594 94.597656 34.183594 95.433594 33.675781 96.199219 C 32.644531 97.480469 31.722656 98.820312 30.910156 100.21875 C 30.742188 100.21875 30.574219 100.21875 30.410156 100.21875 C 30.515625 99.375 30.179688 98.871094 29.402344 98.710938 C 31.09375 96.6875 32.765625 95.011719 34.429688 93.6875 Z M 34.429688 93.6875 "/>
<path style=" stroke:none;fill-rule:evenodd;fill:rgb(93.333333%,27.45098%,37.647059%);fill-opacity:1;" d="M 53.527344 92.683594 C 54.90625 95.300781 57.082031 96.808594 60.0625 97.203125 C 60.136719 97.734375 60.054688 98.234375 59.8125 98.710938 C 55.929688 101.910156 53.5 101.070312 52.523438 96.199219 C 52.496094 94.90625 52.828125 93.734375 53.527344 92.683594 Z M 53.527344 92.683594 "/>
<path style=" stroke:none;fill-rule:evenodd;fill:rgb(50.980392%,1.568627%,17.647059%);fill-opacity:1;" d="M 49.003906 88.160156 C 50.011719 88.160156 51.015625 88.160156 52.019531 88.160156 C 51.207031 91.707031 50.285156 95.222656 49.257812 98.710938 C 47.882812 99.84375 46.457031 100.847656 44.984375 101.726562 C 44.542969 101.792969 44.207031 101.625 43.980469 101.222656 C 45.632812 99.929688 47.054688 98.421875 48.25 96.703125 C 49.335938 95.40625 49.585938 94.066406 49.003906 92.683594 C 49.339844 91.527344 49.671875 90.355469 50.011719 89.167969 C 49.636719 88.824219 49.300781 88.488281 49.003906 88.160156 Z M 49.003906 88.160156 "/>
<path style=" stroke:none;fill-rule:evenodd;fill:rgb(96.470588%,23.529412%,36.470588%);fill-opacity:1;" d="M 25.886719 96.199219 C 26.773438 96.683594 27.777344 96.851562 28.902344 96.703125 C 28.734375 97.617188 28.398438 98.453125 27.894531 99.214844 C 25.441406 100.585938 22.761719 101.253906 19.851562 101.222656 C 16.394531 101.589844 13.882812 100.25 12.3125 97.203125 C 15.402344 96.796875 18.082031 95.625 20.355469 93.6875 C 20.691406 93.519531 21.027344 93.351562 21.359375 93.183594 C 21.480469 93.484375 21.730469 93.652344 22.113281 93.6875 C 23.347656 93.019531 24.605469 92.601562 25.886719 92.433594 C 26.363281 93.652344 26.363281 94.910156 25.886719 96.199219 Z M 25.886719 96.199219 "/>
<path style=" stroke:none;fill-rule:evenodd;fill:rgb(94.509804%,29.019608%,36.862745%);fill-opacity:1;" d="M 40.964844 100.71875 C 40.628906 101.222656 40.292969 101.726562 39.957031 102.226562 C 35.675781 104.640625 31.320312 104.808594 26.890625 102.730469 C 28.167969 102.011719 29.339844 101.175781 30.410156 100.21875 C 30.574219 100.21875 30.742188 100.21875 30.910156 100.21875 C 30.683594 100.699219 30.347656 101.117188 29.90625 101.472656 C 30.542969 101.628906 31.128906 101.878906 31.664062 102.226562 C 33.78125 101.296875 35.875 100.289062 37.949219 99.214844 C 38.066406 99.589844 38.234375 100.007812 38.449219 100.46875 C 36.46875 102.339844 36.804688 102.675781 39.457031 101.472656 C 39.289062 101.308594 39.121094 101.140625 38.953125 100.972656 C 39.601562 100.726562 40.273438 100.640625 40.964844 100.71875 Z M 40.964844 100.71875 "/>
<use xlink:href="#surface23" mask="url(#mask6)"/>
</g>
</svg>
