<?xml version="1.0" encoding="UTF-8"?>
<svg xmlns="http://www.w3.org/2000/svg" xmlns:xlink="http://www.w3.org/1999/xlink" width="px" height="px" viewBox="0 0 96 100" version="1.1">
<defs>
<filter id="alpha" filterUnits="objectBoundingBox" x="0%" y="0%" width="100%" height="100%">
  <feColorMatrix type="matrix" in="SourceGraphic" values="0 0 0 0 1 0 0 0 0 1 0 0 0 0 1 0 0 0 1 0"/>
</filter>
<mask id="mask0">
  <g filter="url(#alpha)">
<rect x="0" y="0" width="96" height="100" style="fill:rgb(0%,0%,0%);fill-opacity:0.0392157;stroke:none;"/>
  </g>
</mask>
<clipPath id="clip1">
  <rect x="0" y="0" width="96" height="100"/>
</clipPath>
<g id="surface5" clip-path="url(#clip1)">
<path style=" stroke:none;fill-rule:evenodd;fill:rgb(14.117648%,26.666668%,32.156864%);fill-opacity:1;" d="M 73.25 16.25 C 77.5625 17.5625 80.394531 20.394531 81.75 24.75 C 83.082031 25.167969 84.414062 25.582031 85.75 26 C 90.238281 30.21875 93.574219 35.136719 95.75 40.75 C 95.75 41.25 95.75 41.75 95.75 42.25 C 94.554688 43.453125 94.554688 44.617188 95.75 45.75 C 95.75 46.917969 95.75 48.082031 95.75 49.25 C 94.539062 50.023438 94.539062 50.855469 95.75 51.75 C 95.75 53.082031 95.75 54.417969 95.75 55.75 C 95.261719 55.90625 94.925781 56.238281 94.75 56.75 C 95.28125 58.050781 95.363281 59.386719 95 60.75 C 93.214844 64.484375 91.050781 67.984375 88.5 71.25 C 86.53125 73.8125 83.945312 75.144531 80.75 75.25 C 79.558594 78.863281 77.308594 81.699219 74 83.75 C 73.152344 88.679688 70.402344 92.011719 65.75 93.75 C 65.292969 93.726562 64.957031 93.5625 64.75 93.25 C 69.574219 91.464844 72.410156 87.964844 73.25 82.75 C 77.136719 80.972656 79.300781 77.972656 79.75 73.75 C 82.058594 74.003906 84.226562 73.585938 86.25 72.5 C 87.609375 70.863281 88.773438 69.113281 89.75 67.25 C 90.230469 67.023438 90.644531 66.691406 91 66.25 C 91.757812 63.585938 92.839844 61.085938 94.25 58.75 C 94.164062 57.980469 93.996094 57.230469 93.75 56.5 C 95.039062 54.464844 95.039062 52.464844 93.75 50.5 C 95.183594 48.214844 95.019531 46.046875 93.25 44 C 94.238281 42.75 94.488281 41.335938 94 39.75 C 92.675781 38.160156 91.84375 36.324219 91.5 34.25 C 89.808594 32.390625 88.308594 30.390625 87 28.25 C 85.058594 26.640625 82.890625 26.140625 80.5 26.75 C 80.253906 24.34375 79.421875 22.179688 78 20.25 C 76.300781 18.957031 74.714844 17.625 73.25 16.25 Z M 73.25 16.25 "/>
</g>
<mask id="mask1">
  <g filter="url(#alpha)">
<rect x="0" y="0" width="96" height="100" style="fill:rgb(0%,0%,0%);fill-opacity:0.12549;stroke:none;"/>
  </g>
</mask>
<clipPath id="clip2">
  <rect x="0" y="0" width="96" height="100"/>
</clipPath>
<g id="surface8" clip-path="url(#clip2)">
<path style=" stroke:none;fill-rule:evenodd;fill:rgb(14.901961%,24.313726%,29.411766%);fill-opacity:1;" d="M 5.75 33.75 C 7.15625 35.199219 6.824219 36.199219 4.75 36.75 C 4.800781 35.648438 5.136719 34.648438 5.75 33.75 Z M 5.75 33.75 "/>
</g>
</defs>
<g id="surface1">
<path style=" stroke:none;fill-rule:evenodd;fill:rgb(3.529412%,1.960784%,1.960784%);fill-opacity:1;" d="M 27.25 -0.25 C 29.082031 -0.25 30.917969 -0.25 32.75 -0.25 C 33.636719 0.445312 34.636719 1.03125 35.75 1.5 C 37.3125 1.601562 38.8125 1.9375 40.25 2.5 C 41.171875 3.78125 42.257812 4.863281 43.5 5.75 C 46.515625 3.359375 49.765625 3.109375 53.25 5 C 54.363281 5.867188 55.527344 6.617188 56.75 7.25 C 65.550781 4.398438 71.050781 7.398438 73.25 16.25 C 74.714844 17.625 76.300781 18.957031 78 20.25 C 79.421875 22.179688 80.253906 24.34375 80.5 26.75 C 82.890625 26.140625 85.058594 26.640625 87 28.25 C 88.308594 30.390625 89.808594 32.390625 91.5 34.25 C 91.84375 36.324219 92.675781 38.160156 94 39.75 C 94.488281 41.335938 94.238281 42.75 93.25 44 C 95.019531 46.046875 95.183594 48.214844 93.75 50.5 C 95.039062 52.464844 95.039062 54.464844 93.75 56.5 C 93.996094 57.230469 94.164062 57.980469 94.25 58.75 C 92.839844 61.085938 91.757812 63.585938 91 66.25 C 90.644531 66.691406 90.230469 67.023438 89.75 67.25 C 89.082031 66.917969 88.417969 66.582031 87.75 66.25 C 89.023438 65.644531 89.6875 64.644531 89.75 63.25 C 88.417969 63.25 87.082031 63.25 85.75 63.25 C 84.746094 62.980469 83.746094 62.648438 82.75 62.25 C 84.253906 62.210938 85.585938 61.878906 86.75 61.25 C 88.191406 61.402344 89.527344 61.238281 90.75 60.75 C 91.246094 60.835938 91.578125 60.667969 91.75 60.25 C 92.445312 59.253906 92.277344 58.339844 91.25 57.5 C 89.925781 57.25 88.59375 57.167969 87.25 57.25 C 86.695312 56.855469 86.027344 56.605469 85.25 56.5 C 86.335938 55.152344 86.503906 53.734375 85.75 52.25 C 84.867188 51.769531 83.867188 51.601562 82.75 51.75 C 81.78125 50.25 81.53125 48.582031 82 46.75 C 82.117188 47.367188 82.367188 47.867188 82.75 48.25 C 82.984375 48.847656 83.484375 49.179688 84.25 49.25 C 85.75 49.417969 86.417969 48.75 86.25 47.25 C 85.949219 45.515625 84.949219 44.933594 83.25 45.5 C 82.972656 45.691406 82.804688 45.941406 82.75 46.25 C 82.125 45.832031 81.792969 45.167969 81.75 44.25 C 81.832031 43.582031 81.917969 42.917969 82 42.25 C 82.191406 42.527344 82.441406 42.695312 82.75 42.75 C 83.476562 43.152344 84.308594 43.402344 85.25 43.5 C 84.871094 44.183594 85.121094 44.765625 86 45.25 C 86.078125 43.90625 86.496094 42.738281 87.25 41.75 C 87.207031 42.246094 87.375 42.664062 87.75 43 C 89.335938 43.488281 90.75 43.238281 92 42.25 C 92.515625 40.34375 91.765625 39.34375 89.75 39.25 C 88.816406 38.917969 87.816406 38.585938 86.75 38.25 C 87.644531 37.914062 88.480469 37.582031 89.25 37.25 C 89.945312 36.253906 89.777344 35.339844 88.75 34.5 C 87.660156 33.898438 86.496094 33.648438 85.25 33.75 C 85.460938 33.390625 85.792969 33.140625 86.25 33 C 85.472656 32.894531 84.804688 32.644531 84.25 32.25 C 84.988281 32.382812 85.65625 32.214844 86.25 31.75 C 84.921875 28.644531 82.835938 27.980469 80 29.75 C 79.4375 30.671875 79.1875 31.671875 79.25 32.75 C 79.917969 32.75 80.582031 32.75 81.25 32.75 C 82.152344 33.421875 83.152344 33.839844 84.25 34 C 83.953125 34.230469 83.621094 34.316406 83.25 34.25 C 82.582031 34.25 81.917969 34.25 81.25 34.25 C 81.125 35.429688 81.460938 36.429688 82.25 37.25 C 81.867188 38.183594 81.367188 39.015625 80.75 39.75 C 80.320312 37.394531 79.238281 35.394531 77.5 33.75 C 77.15625 31.429688 77.40625 29.179688 78.25 27 C 78.054688 22.933594 76.054688 20.269531 72.25 19 C 68.101562 18.4375 63.933594 18.1875 59.75 18.25 C 53.289062 17.675781 46.789062 17.59375 40.25 18 C 33.09375 20.15625 28.175781 24.738281 25.5 31.75 C 24.601562 34.011719 24.019531 36.34375 23.75 38.75 C 23.175781 44.878906 23.09375 51.046875 23.5 57.25 C 23.59375 59.382812 24.011719 61.382812 24.75 63.25 C 24.703125 64.574219 25.039062 65.742188 25.75 66.75 C 26.414062 69.914062 27.75 72.746094 29.75 75.25 C 29.648438 76.195312 29.980469 76.945312 30.75 77.5 C 30.46875 77.996094 30.132812 78.414062 29.75 78.75 C 28.9375 78.1875 28.1875 77.519531 27.5 76.75 C 26.238281 74.550781 24.988281 72.386719 23.75 70.25 C 23.351562 68.726562 22.851562 67.226562 22.25 65.75 C 20.945312 65.339844 19.613281 65.089844 18.25 65 C 18.019531 64.792969 17.855469 64.542969 17.75 64.25 C 20.511719 61.308594 21.511719 57.808594 20.75 53.75 C 20.160156 51.003906 19.660156 48.253906 19.25 45.5 C 20.46875 41.671875 21.386719 37.753906 22 33.75 C 24.675781 23.574219 31.09375 17.324219 41.25 15 C 44.75 14.832031 48.25 14.667969 51.75 14.5 C 52.613281 12.578125 53.28125 10.578125 53.75 8.5 C 52.613281 8.125 51.363281 7.542969 50 6.75 C 48.777344 7.058594 47.527344 6.890625 46.25 6.25 C 45.699219 8.351562 44.367188 9.101562 42.25 8.5 C 40.9375 7.6875 39.769531 6.6875 38.75 5.5 C 35.855469 5.785156 33.855469 4.617188 32.75 2 C 29.8125 1.171875 27.394531 1.921875 25.5 4.25 C 24.648438 5.453125 24.230469 6.789062 24.25 8.25 C 23.890625 8.042969 23.640625 7.707031 23.5 7.25 C 23.332031 7.417969 23.167969 7.582031 23 7.75 C 22.753906 7.101562 22.671875 6.4375 22.75 5.75 C 22.746094 4.847656 22.996094 4.011719 23.5 3.25 C 24.699219 1.964844 25.949219 0.800781 27.25 -0.25 Z M 27.25 -0.25 "/>
<path style=" stroke:none;fill-rule:evenodd;fill:rgb(7.058824%,5.882353%,7.450981%);fill-opacity:1;" d="M 20.75 53.75 C 19.542969 53.160156 19.042969 52.160156 19.25 50.75 C 18.417969 50.75 17.582031 50.75 16.75 50.75 C 16.695312 49.476562 17.027344 48.308594 17.75 47.25 C 17.277344 46.15625 16.445312 45.488281 15.25 45.25 C 15.101562 42.851562 14.351562 40.6875 13 38.75 C 12.910156 35.933594 12.496094 33.183594 11.75 30.5 C 12.027344 28.550781 12.777344 26.800781 14 25.25 C 14.625 23.058594 13.875 21.808594 11.75 21.5 C 12.328125 24.707031 11.496094 27.457031 9.25 29.75 C 9.28125 29.53125 9.199219 29.363281 9 29.25 C 8.832031 29.582031 8.667969 29.917969 8.5 30.25 C 7.726562 29.703125 7.140625 29.039062 6.75 28.25 C 6.78125 27.976562 6.945312 27.8125 7.25 27.75 C 7.648438 29.609375 8.316406 29.695312 9.25 28 C 9.9375 24.59375 10.523438 21.175781 11 17.75 C 12.441406 15.660156 14.355469 14.574219 16.75 14.5 C 17.078125 15.242188 17.578125 15.828125 18.25 16.25 C 19.324219 13.625 21.324219 12.375 24.25 12.5 C 24.414062 11.15625 24.414062 9.742188 24.25 8.25 C 24.230469 6.789062 24.648438 5.453125 25.5 4.25 C 27.394531 1.921875 29.8125 1.171875 32.75 2 C 33.855469 4.617188 35.855469 5.785156 38.75 5.5 C 39.769531 6.6875 40.9375 7.6875 42.25 8.5 C 44.367188 9.101562 45.699219 8.351562 46.25 6.25 C 47.527344 6.890625 48.777344 7.058594 50 6.75 C 51.363281 7.542969 52.613281 8.125 53.75 8.5 C 53.28125 10.578125 52.613281 12.578125 51.75 14.5 C 48.25 14.667969 44.75 14.832031 41.25 15 C 31.09375 17.324219 24.675781 23.574219 22 33.75 C 21.386719 37.753906 20.46875 41.671875 19.25 45.5 C 19.660156 48.253906 20.160156 51.003906 20.75 53.75 Z M 20.75 53.75 "/>
<path style=" stroke:none;fill-rule:evenodd;fill:rgb(93.725491%,67.843139%,38.039216%);fill-opacity:1;" d="M 67.25 16.25 C 66.03125 13.054688 63.699219 11.804688 60.25 12.5 C 59.117188 13.378906 58.285156 14.460938 57.75 15.75 C 54.441406 16.363281 53.523438 15.195312 55 12.25 C 58.96875 7.578125 63.382812 7.078125 68.25 10.75 C 69.914062 12.410156 70.746094 14.410156 70.75 16.75 C 69.570312 16.664062 68.402344 16.496094 67.25 16.25 Z M 67.25 16.25 "/>
<path style=" stroke:none;fill-rule:evenodd;fill:rgb(48.235294%,23.529412%,12.54902%);fill-opacity:1;" d="M 67.25 16.25 C 64.039062 16.394531 60.871094 16.230469 57.75 15.75 C 58.285156 14.460938 59.117188 13.378906 60.25 12.5 C 63.699219 11.804688 66.03125 13.054688 67.25 16.25 Z M 67.25 16.25 "/>
<path style=" stroke:none;fill-rule:evenodd;fill:rgb(99.607843%,85.490197%,46.27451%);fill-opacity:1;" d="M 49.75 28.25 C 38.285156 26.066406 30.535156 30.566406 26.5 41.75 C 25.4375 44.996094 25.019531 48.328125 25.25 51.75 C 25.414062 55.675781 25.246094 59.507812 24.75 63.25 C 24.011719 61.382812 23.59375 59.382812 23.5 57.25 C 23.09375 51.046875 23.175781 44.878906 23.75 38.75 C 24.132812 39.132812 24.382812 39.632812 24.5 40.25 C 26 31.507812 30.75 25.34375 38.75 21.75 C 43.425781 21.125 48.09375 21.125 52.75 21.75 C 52.917969 21.917969 53.082031 22.082031 53.25 22.25 C 52.078125 24.265625 50.910156 26.265625 49.75 28.25 Z M 49.75 28.25 "/>
<path style=" stroke:none;fill-rule:evenodd;fill:rgb(87.843138%,57.254905%,17.254902%);fill-opacity:1;" d="M 59.75 18.25 C 63.933594 18.1875 68.101562 18.4375 72.25 19 C 76.054688 20.269531 78.054688 22.933594 78.25 27 C 77.40625 29.179688 77.15625 31.429688 77.5 33.75 C 79.238281 35.394531 80.320312 37.394531 80.75 39.75 C 80.914062 46.171875 80.746094 52.503906 80.25 58.75 C 80.332031 54.082031 80.25 49.414062 80 44.75 C 79.730469 43.234375 79.398438 41.734375 79 40.25 C 77.863281 39.617188 76.945312 38.785156 76.25 37.75 C 75.640625 36.859375 75.308594 35.859375 75.25 34.75 C 75.332031 31.578125 75.25 28.414062 75 25.25 C 73.847656 22.140625 71.597656 20.808594 68.25 21.25 C 68.847656 22.78125 69.597656 24.28125 70.5 25.75 C 70.988281 26.871094 71.238281 28.035156 71.25 29.25 C 71.332031 31.089844 71.25 32.925781 71 34.75 C 70.664062 35.125 70.246094 35.292969 69.75 35.25 C 71.503906 26.671875 68.003906 22.503906 59.25 22.75 C 61.175781 22.472656 63.007812 21.804688 64.75 20.75 C 65.25 21.082031 65.75 21.417969 66.25 21.75 C 66.847656 21.578125 66.847656 21.328125 66.25 21 C 66.75 20.832031 67.25 20.667969 67.75 20.5 C 65.035156 19.691406 62.367188 18.941406 59.75 18.25 Z M 59.75 18.25 "/>
<use xlink:href="#surface5" mask="url(#mask0)"/>
<path style=" stroke:none;fill-rule:evenodd;fill:rgb(1.176471%,0.392157%,0%);fill-opacity:1;" d="M 59.25 22.75 C 68.003906 22.503906 71.503906 26.671875 69.75 35.25 C 67.421875 39.246094 63.921875 40.828125 59.25 40 C 57.832031 39.539062 56.5 38.957031 55.25 38.25 C 51.636719 33.109375 51.96875 28.277344 56.25 23.75 C 57.15625 23.183594 58.15625 22.851562 59.25 22.75 Z M 59.25 22.75 "/>
<path style=" stroke:none;fill-rule:evenodd;fill:rgb(92.54902%,61.176473%,17.647059%);fill-opacity:1;" d="M 59.75 18.25 C 62.367188 18.941406 65.035156 19.691406 67.75 20.5 C 67.25 20.667969 66.75 20.832031 66.25 21 C 66.847656 21.328125 66.847656 21.578125 66.25 21.75 C 65.75 21.417969 65.25 21.082031 64.75 20.75 C 63.007812 21.804688 61.175781 22.472656 59.25 22.75 C 58.15625 22.851562 57.15625 23.183594 56.25 23.75 C 54.730469 22.90625 54.066406 23.40625 54.25 25.25 C 52.65625 25.332031 52.40625 24.667969 53.5 23.25 C 54.34375 21.988281 55.429688 20.988281 56.75 20.25 C 52.425781 19.667969 48.09375 19.585938 43.75 20 C 41.972656 20.4375 40.308594 21.023438 38.75 21.75 C 30.75 25.34375 26 31.507812 24.5 40.25 C 24.382812 39.632812 24.132812 39.132812 23.75 38.75 C 24.019531 36.34375 24.601562 34.011719 25.5 31.75 C 28.175781 24.738281 33.09375 20.15625 40.25 18 C 46.789062 17.59375 53.289062 17.675781 59.75 18.25 Z M 59.75 18.25 "/>
<path style=" stroke:none;fill-rule:evenodd;fill:rgb(2.745098%,3.137255%,3.921569%);fill-opacity:1;" d="M 22.75 5.75 C 22.671875 6.4375 22.753906 7.101562 23 7.75 C 23.167969 7.582031 23.332031 7.417969 23.5 7.25 C 23.640625 7.707031 23.890625 8.042969 24.25 8.25 C 24.414062 9.742188 24.414062 11.15625 24.25 12.5 C 21.324219 12.375 19.324219 13.625 18.25 16.25 C 17.578125 15.828125 17.078125 15.242188 16.75 14.5 C 14.355469 14.574219 12.441406 15.660156 11 17.75 C 10.523438 21.175781 9.9375 24.59375 9.25 28 C 8.316406 29.695312 7.648438 29.609375 7.25 27.75 C 6.945312 27.8125 6.78125 27.976562 6.75 28.25 C 5.878906 29.058594 5.628906 30.058594 6 31.25 C 7.09375 31.964844 8.09375 32.796875 9 33.75 C 9.332031 34.582031 9.332031 35.417969 9 36.25 C 7.070312 37.683594 5.320312 39.265625 3.75 41 C 4.824219 42.820312 5.992188 44.570312 7.25 46.25 C 6.753906 46.164062 6.421875 46.332031 6.25 46.75 C 1.472656 48.550781 0.554688 51.550781 3.5 55.75 C 6.550781 57.378906 8.300781 59.878906 8.75 63.25 C 7.8125 64.601562 6.980469 66.019531 6.25 67.5 C 6.621094 68.996094 7.207031 70.414062 8 71.75 C 8.34375 72.785156 8.261719 73.785156 7.75 74.75 C 7.972656 75.371094 8.304688 75.871094 8.75 76.25 C 10.023438 78.886719 12.023438 79.886719 14.75 79.25 C 15.246094 79.207031 15.664062 79.375 16 79.75 C 16.679688 81.164062 17.429688 82.496094 18.25 83.75 C 15.746094 84.179688 15.582031 85.097656 17.75 86.5 C 19.164062 87.332031 20.664062 87.914062 22.25 88.25 C 23.015625 88.65625 23.847656 88.988281 24.75 89.25 C 24.914062 93.664062 27.164062 96.332031 31.5 97.25 C 33.226562 97.097656 34.476562 96.265625 35.25 94.75 C 35.730469 94.523438 36.144531 94.191406 36.5 93.75 C 36.84375 94.179688 37.261719 94.511719 37.75 94.75 C 39.191406 93.476562 40.859375 92.640625 42.75 92.25 C 43.222656 92.304688 43.636719 92.46875 44 92.75 C 44.15625 95.246094 45.40625 96.164062 47.75 95.5 C 48.445312 94.914062 48.863281 94.164062 49 93.25 C 49.125 93.8125 49.375 94.3125 49.75 94.75 C 49.917969 94.082031 50.082031 93.417969 50.25 92.75 C 50.75 93.082031 51.25 93.417969 51.75 93.75 C 52.261719 92.90625 52.925781 92.238281 53.75 91.75 C 54.417969 91.75 54.75 92.082031 54.75 92.75 C 53.265625 94.988281 51.265625 96.570312 48.75 97.5 C 45.972656 98.164062 43.972656 97.246094 42.75 94.75 C 41.324219 95.714844 39.992188 96.796875 38.75 98 C 36.378906 98.058594 34.210938 98.640625 32.25 99.75 C 31.417969 99.75 30.582031 99.75 29.75 99.75 C 28.074219 98.53125 26.324219 97.367188 24.5 96.25 C 23.347656 94.539062 22.429688 92.707031 21.75 90.75 C 18.671875 90.085938 16.089844 88.585938 14 86.25 C 14.019531 83.273438 12.601562 81.523438 9.75 81 C 8.644531 80.0625 7.730469 78.980469 7 77.75 C 6.167969 74.308594 5.085938 70.976562 3.75 67.75 C 3.734375 66.285156 4.148438 64.949219 5 63.75 C 5.332031 62.417969 5.332031 61.082031 5 59.75 C 2.527344 58.117188 0.777344 55.953125 -0.25 53.25 C -0.25 52.082031 -0.25 50.917969 -0.25 49.75 C 0.414062 47.664062 1.746094 46.082031 3.75 45 C 0.835938 41.8125 1.171875 39.0625 4.75 36.75 C 6.824219 36.199219 7.15625 35.199219 5.75 33.75 C 3.105469 31.203125 3.105469 28.621094 5.75 26 C 6.566406 25.753906 7.402344 25.667969 8.25 25.75 C 8.363281 23.804688 8.195312 21.886719 7.75 20 C 8 19.25 8.25 18.5 8.5 17.75 C 9.894531 16.003906 11.480469 14.421875 13.25 13 C 14.171875 12.4375 15.171875 12.1875 16.25 12.25 C 16.167969 9.414062 17.503906 8 20.25 8 C 20.832031 8.582031 21.417969 9.167969 22 9.75 C 22.089844 8.316406 22.339844 6.984375 22.75 5.75 Z M 22.75 5.75 "/>
<path style=" stroke:none;fill-rule:evenodd;fill:rgb(99.607843%,94.509804%,66.274512%);fill-opacity:1;" d="M 49.75 28.25 C 49.375 32.242188 49.875 36.078125 51.25 39.75 C 51.375 40.835938 51.875 41.671875 52.75 42.25 C 52.234375 44.316406 50.984375 45.816406 49 46.75 C 48.628906 48.535156 47.546875 49.535156 45.75 49.75 C 42.507812 48.714844 39.671875 47.046875 37.25 44.75 C 37.582031 44.417969 37.917969 44.082031 38.25 43.75 C 37.902344 43.242188 37.570312 42.742188 37.25 42.25 C 35.90625 41.160156 34.40625 40.828125 32.75 41.25 C 32.582031 41.417969 32.417969 41.582031 32.25 41.75 C 34.074219 43.195312 34.160156 44.695312 32.5 46.25 C 30.722656 46.355469 29.054688 46.1875 27.5 45.75 C 27.101562 47.191406 27.6875 47.941406 29.25 48 C 28.964844 49.453125 28.132812 50.453125 26.75 51 C 27.355469 51.445312 27.355469 51.863281 26.75 52.25 C 26.394531 51.28125 25.894531 51.117188 25.25 51.75 C 25.019531 48.328125 25.4375 44.996094 26.5 41.75 C 30.535156 30.566406 38.285156 26.066406 49.75 28.25 Z M 49.75 28.25 "/>
<path style=" stroke:none;fill-rule:evenodd;fill:rgb(100%,82.352942%,40.784314%);fill-opacity:1;" d="M 75.25 34.75 C 74.742188 36.257812 73.742188 37.257812 72.25 37.75 C 72.617188 34.851562 72.285156 32.015625 71.25 29.25 C 71.238281 28.035156 70.988281 26.871094 70.5 25.75 C 69.597656 24.28125 68.847656 22.78125 68.25 21.25 C 71.597656 20.808594 73.847656 22.140625 75 25.25 C 75.25 28.414062 75.332031 31.578125 75.25 34.75 Z M 75.25 34.75 "/>
<path style=" stroke:none;fill-rule:evenodd;fill:rgb(85.09804%,66.666669%,34.901962%);fill-opacity:1;" d="M 84.25 32.25 C 83.132812 32.101562 82.132812 32.269531 81.25 32.75 C 80.582031 32.75 79.917969 32.75 79.25 32.75 C 79.1875 31.671875 79.4375 30.671875 80 29.75 C 82.835938 27.980469 84.921875 28.644531 86.25 31.75 C 85.65625 32.214844 84.988281 32.382812 84.25 32.25 Z M 84.25 32.25 "/>
<path style=" stroke:none;fill-rule:evenodd;fill:rgb(30.588236%,30.980393%,31.37255%);fill-opacity:1;" d="M 6.75 28.25 C 7.140625 29.039062 7.726562 29.703125 8.5 30.25 C 8.667969 29.917969 8.832031 29.582031 9 29.25 C 9.199219 29.363281 9.28125 29.53125 9.25 29.75 C 10.609375 31.519531 11.191406 33.519531 11 35.75 C 10.332031 36.75 9.667969 37.75 9 38.75 C 7.761719 39.492188 6.675781 40.40625 5.75 41.5 C 6.472656 42.722656 7.390625 43.808594 8.5 44.75 C 8.742188 45.222656 8.824219 45.722656 8.75 46.25 C 8.25 46.25 7.75 46.25 7.25 46.25 C 5.992188 44.570312 4.824219 42.820312 3.75 41 C 5.320312 39.265625 7.070312 37.683594 9 36.25 C 9.332031 35.417969 9.332031 34.582031 9 33.75 C 8.09375 32.796875 7.09375 31.964844 6 31.25 C 5.628906 30.058594 5.878906 29.058594 6.75 28.25 Z M 6.75 28.25 "/>
<path style=" stroke:none;fill-rule:evenodd;fill:rgb(81.568629%,69.01961%,41.176471%);fill-opacity:1;" d="M 83.25 34.25 C 83.871094 34.988281 84.371094 35.820312 84.75 36.75 C 83.976562 37.226562 83.144531 37.394531 82.25 37.25 C 81.460938 36.429688 81.125 35.429688 81.25 34.25 C 81.917969 34.25 82.582031 34.25 83.25 34.25 Z M 83.25 34.25 "/>
<path style=" stroke:none;fill-rule:evenodd;fill:rgb(88.235295%,71.764708%,39.215687%);fill-opacity:1;" d="M 85.25 33.75 C 86.496094 33.648438 87.660156 33.898438 88.75 34.5 C 89.777344 35.339844 89.945312 36.253906 89.25 37.25 C 86.539062 37.667969 85.207031 36.5 85.25 33.75 Z M 85.25 33.75 "/>
<use xlink:href="#surface8" mask="url(#mask1)"/>
<path style=" stroke:none;fill-rule:evenodd;fill:rgb(99.215686%,76.862746%,32.156864%);fill-opacity:1;" d="M 71.25 29.25 C 72.285156 32.015625 72.617188 34.851562 72.25 37.75 C 73.742188 37.257812 74.742188 36.257812 75.25 34.75 C 75.308594 35.859375 75.640625 36.859375 76.25 37.75 C 75.5625 37.671875 74.898438 37.753906 74.25 38 C 72.628906 39.875 70.792969 41.457031 68.75 42.75 C 68.253906 42.707031 67.835938 42.875 67.5 43.25 C 66.914062 42.554688 66.164062 42.136719 65.25 42 C 61.566406 41.863281 57.898438 41.613281 54.25 41.25 C 54.25 41.75 54.25 42.25 54.25 42.75 C 54.082031 42.75 53.917969 42.75 53.75 42.75 C 53.644531 41.789062 53.3125 41.621094 52.75 42.25 C 51.875 41.671875 51.375 40.835938 51.25 39.75 C 53.070312 40.136719 54.902344 40.46875 56.75 40.75 C 61.128906 41.835938 65.210938 41.171875 69 38.75 C 69.601562 37.660156 69.851562 36.496094 69.75 35.25 C 70.246094 35.292969 70.664062 35.125 71 34.75 C 71.25 32.925781 71.332031 31.089844 71.25 29.25 Z M 71.25 29.25 "/>
<path style=" stroke:none;fill-rule:evenodd;fill:rgb(99.215686%,87.450981%,53.725493%);fill-opacity:1;" d="M 76.25 37.75 C 76.945312 38.785156 77.863281 39.617188 79 40.25 C 79.398438 41.734375 79.730469 43.234375 80 44.75 C 80.25 49.414062 80.332031 54.082031 80.25 58.75 C 80.25 59.082031 80.25 59.417969 80.25 59.75 C 79.917969 59.082031 79.582031 58.417969 79.25 57.75 C 79.382812 55.785156 78.96875 53.953125 78 52.25 C 77.789062 53.214844 77.207031 53.714844 76.25 53.75 C 76.589844 51.863281 75.921875 50.445312 74.25 49.5 C 76.460938 48.226562 76.796875 46.558594 75.25 44.5 C 71.710938 44.433594 68.542969 45.519531 65.75 47.75 C 65.417969 47.75 65.082031 47.75 64.75 47.75 C 65.300781 47.300781 65.300781 46.886719 64.75 46.5 C 65.390625 46.15625 65.976562 46.242188 66.5 46.75 C 67.242188 46.375 67.328125 45.957031 66.75 45.5 C 67.417969 45.332031 68.082031 45.167969 68.75 45 C 68.292969 44.292969 68.292969 43.542969 68.75 42.75 C 70.792969 41.457031 72.628906 39.875 74.25 38 C 74.898438 37.753906 75.5625 37.671875 76.25 37.75 Z M 76.25 37.75 "/>
<path style=" stroke:none;fill-rule:evenodd;fill:rgb(97.254902%,70.980394%,29.411766%);fill-opacity:1;" d="M 56.25 23.75 C 51.96875 28.277344 51.636719 33.109375 55.25 38.25 C 55.359375 39.332031 55.859375 40.164062 56.75 40.75 C 54.902344 40.46875 53.070312 40.136719 51.25 39.75 C 49.875 36.078125 49.375 32.242188 49.75 28.25 C 50.910156 26.265625 52.078125 24.265625 53.25 22.25 C 53.082031 22.082031 52.917969 21.917969 52.75 21.75 C 48.09375 21.125 43.425781 21.125 38.75 21.75 C 40.308594 21.023438 41.972656 20.4375 43.75 20 C 48.09375 19.585938 52.425781 19.667969 56.75 20.25 C 55.429688 20.988281 54.34375 21.988281 53.5 23.25 C 52.40625 24.667969 52.65625 25.332031 54.25 25.25 C 54.066406 23.40625 54.730469 22.90625 56.25 23.75 Z M 56.25 23.75 "/>
<path style=" stroke:none;fill-rule:evenodd;fill:rgb(83.529413%,55.686277%,15.294118%);fill-opacity:1;" d="M 69.75 35.25 C 69.851562 36.496094 69.601562 37.660156 69 38.75 C 65.210938 41.171875 61.128906 41.835938 56.75 40.75 C 55.859375 40.164062 55.359375 39.332031 55.25 38.25 C 56.5 38.957031 57.832031 39.539062 59.25 40 C 63.921875 40.828125 67.421875 39.246094 69.75 35.25 Z M 69.75 35.25 "/>
<path style=" stroke:none;fill-rule:evenodd;fill:rgb(85.882354%,71.764708%,39.607844%);fill-opacity:1;" d="M 89.75 39.25 C 91.765625 39.34375 92.515625 40.34375 92 42.25 C 90.75 43.238281 89.335938 43.488281 87.75 43 C 87.375 42.664062 87.207031 42.246094 87.25 41.75 C 87.25 40.917969 87.25 40.082031 87.25 39.25 C 88.082031 39.25 88.917969 39.25 89.75 39.25 Z M 89.75 39.25 "/>
<path style=" stroke:none;fill-rule:evenodd;fill:rgb(99.607843%,82.745099%,42.352942%);fill-opacity:1;" d="M 68.75 42.75 C 68.292969 43.542969 68.292969 44.292969 68.75 45 C 68.082031 45.167969 67.417969 45.332031 66.75 45.5 C 67.328125 45.957031 67.242188 46.375 66.5 46.75 C 65.976562 46.242188 65.390625 46.15625 64.75 46.5 C 65.300781 46.886719 65.300781 47.300781 64.75 47.75 C 62.230469 48.464844 59.730469 48.382812 57.25 47.5 C 56.429688 46.433594 56.015625 45.183594 56 43.75 C 55.832031 43.917969 55.667969 44.082031 55.5 44.25 C 55.382812 43.441406 54.964844 42.941406 54.25 42.75 C 54.25 42.25 54.25 41.75 54.25 41.25 C 57.898438 41.613281 61.566406 41.863281 65.25 42 C 66.164062 42.136719 66.914062 42.554688 67.5 43.25 C 67.835938 42.875 68.253906 42.707031 68.75 42.75 Z M 68.75 42.75 "/>
<path style=" stroke:none;fill-rule:evenodd;fill:rgb(4.705882%,3.529412%,1.960784%);fill-opacity:1;" d="M 76.25 53.75 C 75.617188 54.695312 74.699219 55.195312 73.5 55.25 C 70.460938 54.398438 67.792969 52.898438 65.5 50.75 C 65.253906 49.726562 65.339844 48.726562 65.75 47.75 C 68.542969 45.519531 71.710938 44.433594 75.25 44.5 C 76.796875 46.558594 76.460938 48.226562 74.25 49.5 C 75.921875 50.445312 76.589844 51.863281 76.25 53.75 Z M 76.25 53.75 "/>
<path style=" stroke:none;fill-rule:evenodd;fill:rgb(92.156863%,82.745099%,58.431375%);fill-opacity:1;" d="M 82.75 48.25 C 82.75 47.582031 82.75 46.917969 82.75 46.25 C 82.804688 45.941406 82.972656 45.691406 83.25 45.5 C 84.949219 44.933594 85.949219 45.515625 86.25 47.25 C 86.417969 48.75 85.75 49.417969 84.25 49.25 C 83.484375 49.179688 82.984375 48.847656 82.75 48.25 Z M 82.75 48.25 "/>
<path style=" stroke:none;fill-rule:evenodd;fill:rgb(21.568628%,19.215687%,16.470589%);fill-opacity:1;" d="M 53.75 42.75 C 53.609375 43.644531 53.773438 44.476562 54.25 45.25 C 54.804688 44.707031 55.304688 44.707031 55.75 45.25 C 54.9375 46.320312 53.9375 47.152344 52.75 47.75 C 51.902344 47.667969 51.066406 47.753906 50.25 48 C 49.0625 49.515625 47.894531 51.015625 46.75 52.5 C 47.210938 53.839844 47.878906 55.089844 48.75 56.25 C 48.136719 56.640625 47.46875 56.890625 46.75 57 C 46.488281 57.28125 46.324219 57.613281 46.25 58 C 47.289062 58.621094 47.789062 59.539062 47.75 60.75 C 46.917969 60.75 46.082031 60.75 45.25 60.75 C 45.164062 61.746094 45.496094 62.578125 46.25 63.25 C 44.4375 63.664062 42.605469 63.914062 40.75 64 C 40.339844 65.585938 39.503906 66.835938 38.25 67.75 C 38.082031 67.75 37.917969 67.75 37.75 67.75 C 38.273438 65.441406 38.359375 63.109375 38 60.75 C 37.445312 59.359375 36.527344 58.277344 35.25 57.5 C 36.199219 56.597656 36.449219 55.511719 36 54.25 C 33.980469 52.726562 32.066406 51.0625 30.25 49.25 C 31.917969 48.582031 33.582031 47.917969 35.25 47.25 C 34.917969 46.75 34.582031 46.25 34.25 45.75 C 34.925781 45.238281 35.261719 44.570312 35.25 43.75 C 37.144531 43.996094 37.476562 43.578125 36.25 42.5 C 36.546875 42.269531 36.878906 42.183594 37.25 42.25 C 37.570312 42.742188 37.902344 43.242188 38.25 43.75 C 37.917969 44.082031 37.582031 44.417969 37.25 44.75 C 39.671875 47.046875 42.507812 48.714844 45.75 49.75 C 47.546875 49.535156 48.628906 48.535156 49 46.75 C 50.984375 45.816406 52.234375 44.316406 52.75 42.25 C 53.3125 41.621094 53.644531 41.789062 53.75 42.75 Z M 53.75 42.75 "/>
<path style=" stroke:none;fill-rule:evenodd;fill:rgb(90.196079%,76.47059%,50.980395%);fill-opacity:1;" d="M 87.25 45.25 C 88.757812 45.167969 90.257812 45.25 91.75 45.5 C 93.082031 46.667969 93.082031 47.832031 91.75 49 C 88.046875 50.28125 86.546875 49.03125 87.25 45.25 Z M 87.25 45.25 "/>
<path style=" stroke:none;fill-rule:evenodd;fill:rgb(98.823529%,93.333334%,68.235296%);fill-opacity:1;" d="M 37.25 42.25 C 36.878906 42.183594 36.546875 42.269531 36.25 42.5 C 37.476562 43.578125 37.144531 43.996094 35.25 43.75 C 35.261719 44.570312 34.925781 45.238281 34.25 45.75 C 34.582031 46.25 34.917969 46.75 35.25 47.25 C 33.582031 47.917969 31.917969 48.582031 30.25 49.25 C 32.066406 51.0625 33.980469 52.726562 36 54.25 C 36.449219 55.511719 36.199219 56.597656 35.25 57.5 C 36.527344 58.277344 37.445312 59.359375 38 60.75 C 38.359375 63.109375 38.273438 65.441406 37.75 67.75 C 36.699219 68.257812 36.199219 68.925781 36.25 69.75 C 37.09375 69.238281 37.761719 68.574219 38.25 67.75 C 39.503906 66.835938 40.339844 65.585938 40.75 64 C 42.605469 63.914062 44.4375 63.664062 46.25 63.25 C 45.496094 62.578125 45.164062 61.746094 45.25 60.75 C 46.082031 60.75 46.917969 60.75 47.75 60.75 C 47.789062 59.539062 47.289062 58.621094 46.25 58 C 46.324219 57.613281 46.488281 57.28125 46.75 57 C 47.46875 56.890625 48.136719 56.640625 48.75 56.25 C 47.878906 55.089844 47.210938 53.839844 46.75 52.5 C 47.894531 51.015625 49.0625 49.515625 50.25 48 C 51.066406 47.753906 51.902344 47.667969 52.75 47.75 C 52.394531 48.203125 51.894531 48.367188 51.25 48.25 C 51.148438 49.195312 51.480469 49.945312 52.25 50.5 C 51.539062 51.265625 51.039062 52.179688 50.75 53.25 C 50.183594 53.550781 49.683594 53.71875 49.25 53.75 C 50.035156 54.941406 50.453125 56.273438 50.5 57.75 C 50.832031 57.417969 51.167969 57.082031 51.5 56.75 C 51.746094 57.566406 51.828125 58.402344 51.75 59.25 C 50.625 61.289062 49.792969 63.453125 49.25 65.75 C 48.679688 67.675781 48.679688 69.675781 49.25 71.75 C 44.03125 71.984375 38.863281 71.652344 33.75 70.75 C 32.023438 69.300781 30.191406 67.96875 28.25 66.75 C 27.433594 65.425781 26.601562 65.425781 25.75 66.75 C 25.039062 65.742188 24.703125 64.574219 24.75 63.25 C 25.246094 59.507812 25.414062 55.675781 25.25 51.75 C 25.894531 51.117188 26.394531 51.28125 26.75 52.25 C 27.355469 51.863281 27.355469 51.445312 26.75 51 C 28.132812 50.453125 28.964844 49.453125 29.25 48 C 27.6875 47.941406 27.101562 47.191406 27.5 45.75 C 29.054688 46.1875 30.722656 46.355469 32.5 46.25 C 34.160156 44.695312 34.074219 43.195312 32.25 41.75 C 32.417969 41.582031 32.582031 41.417969 32.75 41.25 C 34.40625 40.828125 35.90625 41.160156 37.25 42.25 Z M 37.25 42.25 "/>
<path style=" stroke:none;fill-rule:evenodd;fill:rgb(99.607843%,93.333334%,63.137257%);fill-opacity:1;" d="M 53.75 42.75 C 53.917969 42.75 54.082031 42.75 54.25 42.75 C 54.964844 42.941406 55.382812 43.441406 55.5 44.25 C 55.667969 44.082031 55.832031 43.917969 56 43.75 C 56.015625 45.183594 56.429688 46.433594 57.25 47.5 C 59.730469 48.382812 62.230469 48.464844 64.75 47.75 C 65.082031 47.75 65.417969 47.75 65.75 47.75 C 65.339844 48.726562 65.253906 49.726562 65.5 50.75 C 67.792969 52.898438 70.460938 54.398438 73.5 55.25 C 74.699219 55.195312 75.617188 54.695312 76.25 53.75 C 77.207031 53.714844 77.789062 53.214844 78 52.25 C 78.96875 53.953125 79.382812 55.785156 79.25 57.75 C 78.042969 61.324219 76.710938 64.824219 75.25 68.25 C 74.917969 70.75 74.582031 73.25 74.25 75.75 C 74.402344 74.539062 74.238281 73.371094 73.75 72.25 C 73.238281 72.949219 72.738281 73.617188 72.25 74.25 C 72.332031 71.746094 72.25 69.246094 72 66.75 C 71.582031 66 71.164062 65.835938 70.75 66.25 C 70.582031 66.25 70.417969 66.25 70.25 66.25 C 69.863281 64.472656 69.195312 62.808594 68.25 61.25 C 67.949219 59.363281 66.949219 57.945312 65.25 57 C 61.90625 56.695312 58.570312 56.777344 55.25 57.25 C 55.25 58.582031 55.25 59.917969 55.25 61.25 C 55.25 61.582031 55.082031 61.75 54.75 61.75 C 54.910156 59.886719 54.746094 58.054688 54.25 56.25 C 53.175781 57.082031 52.339844 58.082031 51.75 59.25 C 51.828125 58.402344 51.746094 57.566406 51.5 56.75 C 51.167969 57.082031 50.832031 57.417969 50.5 57.75 C 50.453125 56.273438 50.035156 54.941406 49.25 53.75 C 49.683594 53.71875 50.183594 53.550781 50.75 53.25 C 51.039062 52.179688 51.539062 51.265625 52.25 50.5 C 51.480469 49.945312 51.148438 49.195312 51.25 48.25 C 51.894531 48.367188 52.394531 48.203125 52.75 47.75 C 53.9375 47.152344 54.9375 46.320312 55.75 45.25 C 55.304688 44.707031 54.804688 44.707031 54.25 45.25 C 53.773438 44.476562 53.609375 43.644531 53.75 42.75 Z M 53.75 42.75 "/>
<path style=" stroke:none;fill-rule:evenodd;fill:rgb(87.843138%,77.254903%,52.549022%);fill-opacity:1;" d="M 87.75 51.25 C 89.324219 51.105469 90.824219 51.355469 92.25 52 C 92.601562 55.464844 91.101562 56.464844 87.75 55 C 87.109375 53.75 87.109375 52.5 87.75 51.25 Z M 87.75 51.25 "/>
<path style=" stroke:none;fill-rule:evenodd;fill:rgb(92.941177%,86.274511%,70.588237%);fill-opacity:1;" d="M 82.75 51.75 C 83.867188 51.601562 84.867188 51.769531 85.75 52.25 C 85.832031 53.261719 85.746094 54.261719 85.5 55.25 C 84.667969 55.917969 83.832031 55.917969 83 55.25 C 82.75 54.09375 82.667969 52.929688 82.75 51.75 Z M 82.75 51.75 "/>
<path style=" stroke:none;fill-rule:evenodd;fill:rgb(31.764707%,31.764707%,33.333334%);fill-opacity:1;" d="M 6.25 46.75 C 6.546875 48.160156 5.964844 49.328125 4.5 50.25 C 3.636719 53.5625 4.804688 55.898438 8 57.25 C 9.59375 59.148438 10.09375 61.316406 9.5 63.75 C 9.308594 63.472656 9.058594 63.304688 8.75 63.25 C 8.300781 59.878906 6.550781 57.378906 3.5 55.75 C 0.554688 51.550781 1.472656 48.550781 6.25 46.75 Z M 6.25 46.75 "/>
<path style=" stroke:none;fill-rule:evenodd;fill:rgb(96.862745%,93.333334%,74.117649%);fill-opacity:1;" d="M 68.25 61.25 C 63.917969 57.917969 59.582031 57.917969 55.25 61.25 C 55.25 59.917969 55.25 58.582031 55.25 57.25 C 58.570312 56.777344 61.90625 56.695312 65.25 57 C 66.949219 57.945312 67.949219 59.363281 68.25 61.25 Z M 68.25 61.25 "/>
<path style=" stroke:none;fill-rule:evenodd;fill:rgb(1.176471%,0.784314%,0.392157%);fill-opacity:1;" d="M 68.25 61.25 C 69.195312 62.808594 69.863281 64.472656 70.25 66.25 C 70.761719 71.144531 68.761719 74.5625 64.25 76.5 C 55.445312 77.167969 51.695312 73.085938 53 64.25 C 53.589844 63.402344 54.171875 62.570312 54.75 61.75 C 55.082031 61.75 55.25 61.582031 55.25 61.25 C 59.582031 57.917969 63.917969 57.917969 68.25 61.25 Z M 68.25 61.25 "/>
<path style=" stroke:none;fill-rule:evenodd;fill:rgb(94.509804%,74.509805%,42.745098%);fill-opacity:1;" d="M 91.75 60.25 C 91.578125 60.667969 91.246094 60.835938 90.75 60.75 C 89.203125 61.046875 88.035156 60.546875 87.25 59.25 C 89.523438 56.960938 91.023438 57.292969 91.75 60.25 Z M 91.75 60.25 "/>
<path style=" stroke:none;fill-rule:evenodd;fill:rgb(81.960785%,70.588237%,49.803922%);fill-opacity:1;" d="M 87.25 57.25 C 88.59375 57.167969 89.925781 57.25 91.25 57.5 C 92.277344 58.339844 92.445312 59.253906 91.75 60.25 C 91.023438 57.292969 89.523438 56.960938 87.25 59.25 C 88.035156 60.546875 89.203125 61.046875 90.75 60.75 C 89.527344 61.238281 88.191406 61.402344 86.75 61.25 C 86.597656 59.808594 86.761719 58.472656 87.25 57.25 Z M 87.25 57.25 "/>
<path style=" stroke:none;fill-rule:evenodd;fill:rgb(90.588236%,76.862746%,58.039218%);fill-opacity:1;" d="M 85.75 63.25 C 87.082031 63.25 88.417969 63.25 89.75 63.25 C 89.6875 64.644531 89.023438 65.644531 87.75 66.25 C 84.664062 67.015625 83.996094 66.015625 85.75 63.25 Z M 85.75 63.25 "/>
<path style=" stroke:none;fill-rule:evenodd;fill:rgb(16.862746%,14.901961%,14.509805%);fill-opacity:1;" d="M 20.75 53.75 C 21.511719 57.808594 20.511719 61.308594 17.75 64.25 C 17.855469 64.542969 18.019531 64.792969 18.25 65 C 19.613281 65.089844 20.945312 65.339844 22.25 65.75 C 22.851562 67.226562 23.351562 68.726562 23.75 70.25 C 22.859375 71.089844 22.523438 72.003906 22.75 73 C 23.75 73.832031 24.75 74.667969 25.75 75.5 C 25.082031 75.832031 25.082031 76.167969 25.75 76.5 C 25.417969 76.667969 25.082031 76.832031 24.75 77 C 25.1875 77.792969 25.855469 78.292969 26.75 78.5 C 26.144531 79.054688 26.144531 79.640625 26.75 80.25 C 27.496094 80.265625 28.160156 80.515625 28.75 81 C 28.082031 81.167969 27.417969 81.332031 26.75 81.5 C 27.53125 81.96875 28.199219 82.554688 28.75 83.25 C 28.179688 83.710938 28.179688 84.128906 28.75 84.5 C 27.777344 84.230469 26.777344 84.398438 25.75 85 C 26.222656 85.242188 26.722656 85.324219 27.25 85.25 C 26.660156 86.8125 25.492188 87.8125 23.75 88.25 C 23.75 87.75 23.75 87.25 23.75 86.75 C 24.550781 86.84375 25.21875 86.59375 25.75 86 C 24.433594 86.125 23.101562 86.125 21.75 86 C 20.984375 84.632812 20.234375 84.550781 19.5 85.75 C 18.953125 85.152344 18.535156 84.488281 18.25 83.75 C 17.429688 82.496094 16.679688 81.164062 16 79.75 C 15.664062 79.375 15.246094 79.207031 14.75 79.25 C 15.484375 78.609375 15.816406 77.777344 15.75 76.75 C 14.898438 76.8125 14.148438 77.148438 13.5 77.75 C 12.75 77.5 12 77.25 11.25 77 C 12.390625 76.320312 12.476562 75.570312 11.5 74.75 C 11.332031 74.917969 11.167969 75.082031 11 75.25 C 10.898438 73.433594 10.3125 73.265625 9.25 74.75 C 9.664062 75.226562 9.746094 75.726562 9.5 76.25 C 9.15625 75.632812 8.90625 75.632812 8.75 76.25 C 8.304688 75.871094 7.972656 75.371094 7.75 74.75 C 8.261719 73.785156 8.34375 72.785156 8 71.75 C 7.207031 70.414062 6.621094 68.996094 6.25 67.5 C 6.980469 66.019531 7.8125 64.601562 8.75 63.25 C 9.058594 63.304688 9.308594 63.472656 9.5 63.75 C 10.09375 61.316406 9.59375 59.148438 8 57.25 C 4.804688 55.898438 3.636719 53.5625 4.5 50.25 C 5.964844 49.328125 6.546875 48.160156 6.25 46.75 C 6.421875 46.332031 6.753906 46.164062 7.25 46.25 C 7.75 46.25 8.25 46.25 8.75 46.25 C 8.824219 45.722656 8.742188 45.222656 8.5 44.75 C 7.390625 43.808594 6.472656 42.722656 5.75 41.5 C 6.675781 40.40625 7.761719 39.492188 9 38.75 C 9.667969 37.75 10.332031 36.75 11 35.75 C 11.191406 33.519531 10.609375 31.519531 9.25 29.75 C 11.496094 27.457031 12.328125 24.707031 11.75 21.5 C 13.875 21.808594 14.625 23.058594 14 25.25 C 12.777344 26.800781 12.027344 28.550781 11.75 30.5 C 12.496094 33.183594 12.910156 35.933594 13 38.75 C 14.351562 40.6875 15.101562 42.851562 15.25 45.25 C 16.445312 45.488281 17.277344 46.15625 17.75 47.25 C 17.027344 48.308594 16.695312 49.476562 16.75 50.75 C 17.582031 50.75 18.417969 50.75 19.25 50.75 C 19.042969 52.160156 19.542969 53.160156 20.75 53.75 Z M 20.75 53.75 "/>
<path style=" stroke:none;fill-rule:evenodd;fill:rgb(5.098039%,3.921569%,3.137255%);fill-opacity:1;" d="M 81.25 32.75 C 82.132812 32.269531 83.132812 32.101562 84.25 32.25 C 84.804688 32.644531 85.472656 32.894531 86.25 33 C 85.792969 33.140625 85.460938 33.390625 85.25 33.75 C 85.207031 36.5 86.539062 37.667969 89.25 37.25 C 88.480469 37.582031 87.644531 37.914062 86.75 38.25 C 87.816406 38.585938 88.816406 38.917969 89.75 39.25 C 88.917969 39.25 88.082031 39.25 87.25 39.25 C 87.25 40.082031 87.25 40.917969 87.25 41.75 C 86.496094 42.738281 86.078125 43.90625 86 45.25 C 85.121094 44.765625 84.871094 44.183594 85.25 43.5 C 84.308594 43.402344 83.476562 43.152344 82.75 42.75 C 82.441406 42.695312 82.191406 42.527344 82 42.25 C 81.917969 42.917969 81.832031 43.582031 81.75 44.25 C 81.792969 45.167969 82.125 45.832031 82.75 46.25 C 82.75 46.917969 82.75 47.582031 82.75 48.25 C 82.367188 47.867188 82.117188 47.367188 82 46.75 C 81.53125 48.582031 81.78125 50.25 82.75 51.75 C 82.667969 52.929688 82.75 54.09375 83 55.25 C 83.832031 55.917969 84.667969 55.917969 85.5 55.25 C 85.746094 54.261719 85.832031 53.261719 85.75 52.25 C 86.503906 53.734375 86.335938 55.152344 85.25 56.5 C 86.027344 56.605469 86.695312 56.855469 87.25 57.25 C 86.761719 58.472656 86.597656 59.808594 86.75 61.25 C 85.585938 61.878906 84.253906 62.210938 82.75 62.25 C 83.746094 62.648438 84.746094 62.980469 85.75 63.25 C 83.996094 66.015625 84.664062 67.015625 87.75 66.25 C 88.417969 66.582031 89.082031 66.917969 89.75 67.25 C 88.773438 69.113281 87.609375 70.863281 86.25 72.5 C 84.226562 73.585938 82.058594 74.003906 79.75 73.75 C 79.300781 77.972656 77.136719 80.972656 73.25 82.75 C 72.410156 87.964844 69.574219 91.464844 64.75 93.25 C 61.761719 93.460938 58.84375 93.128906 56 92.25 C 55.550781 92.371094 55.132812 92.539062 54.75 92.75 C 54.75 92.082031 54.417969 91.75 53.75 91.75 C 53.902344 91.425781 54.070312 91.089844 54.25 90.75 C 52.585938 89.089844 51.753906 87.089844 51.75 84.75 C 45.472656 85.445312 39.472656 84.527344 33.75 82 C 32.105469 81.265625 30.773438 80.183594 29.75 78.75 C 30.132812 78.414062 30.46875 77.996094 30.75 77.5 C 29.980469 76.945312 29.648438 76.195312 29.75 75.25 C 32.5 78.246094 35.832031 80.328125 39.75 81.5 C 46.503906 81.914062 53.171875 81.828125 59.75 81.25 C 61.417969 81.25 63.082031 81.25 64.75 81.25 C 69.316406 82.105469 73.234375 80.941406 76.5 77.75 C 78.429688 75.03125 78.679688 72.199219 77.25 69.25 C 77.167969 68.238281 77.253906 67.238281 77.5 66.25 C 78.972656 64.304688 79.890625 62.136719 80.25 59.75 C 80.25 59.417969 80.25 59.082031 80.25 58.75 C 80.746094 52.503906 80.914062 46.171875 80.75 39.75 C 81.367188 39.015625 81.867188 38.183594 82.25 37.25 C 83.144531 37.394531 83.976562 37.226562 84.75 36.75 C 84.371094 35.820312 83.871094 34.988281 83.25 34.25 C 83.621094 34.316406 83.953125 34.230469 84.25 34 C 83.152344 33.839844 82.152344 33.421875 81.25 32.75 Z M 81.25 32.75 "/>
<path style=" stroke:none;fill-rule:evenodd;fill:rgb(90.588236%,85.490197%,70.19608%);fill-opacity:1;" d="M 81.25 63.25 C 83.339844 62.914062 84.003906 63.664062 83.25 65.5 C 82.433594 65.746094 81.597656 65.828125 80.75 65.75 C 80.683594 64.855469 80.847656 64.019531 81.25 63.25 Z M 81.25 63.25 "/>
<path style=" stroke:none;fill-rule:evenodd;fill:rgb(95.294118%,83.137256%,62.7451%);fill-opacity:1;" d="M 82.25 57.75 C 84.832031 57.554688 85.664062 58.636719 84.75 61 C 83.933594 61.246094 83.097656 61.328125 82.25 61.25 C 82.25 60.082031 82.25 58.917969 82.25 57.75 Z M 82.25 57.75 "/>
<path style=" stroke:none;fill-rule:evenodd;fill:rgb(94.509804%,84.313726%,47.843137%);fill-opacity:1;" d="M 82.75 42.75 C 82.667969 41.738281 82.753906 40.738281 83 39.75 C 84.011719 39.003906 84.84375 39.171875 85.5 40.25 C 85.746094 41.066406 85.828125 41.902344 85.75 42.75 C 84.75 42.75 83.75 42.75 82.75 42.75 Z M 82.75 42.75 "/>
<path style=" stroke:none;fill-rule:evenodd;fill:rgb(95.294118%,70.980394%,30.588236%);fill-opacity:1;" d="M 79.25 57.75 C 79.582031 58.417969 79.917969 59.082031 80.25 59.75 C 79.890625 62.136719 78.972656 64.304688 77.5 66.25 C 77.253906 67.238281 77.167969 68.238281 77.25 69.25 C 76.796875 71.167969 76.796875 73.167969 77.25 75.25 C 76.589844 75.164062 76.003906 75.332031 75.5 75.75 C 75.25 73.253906 75.167969 70.753906 75.25 68.25 C 76.710938 64.824219 78.042969 61.324219 79.25 57.75 Z M 79.25 57.75 "/>
<path style=" stroke:none;fill-rule:evenodd;fill:rgb(49.411765%,42.745098%,18.82353%);fill-opacity:1;" d="M 37.75 67.75 C 37.917969 67.75 38.082031 67.75 38.25 67.75 C 37.761719 68.574219 37.09375 69.238281 36.25 69.75 C 36.199219 68.925781 36.699219 68.257812 37.75 67.75 Z M 37.75 67.75 "/>
<path style=" stroke:none;fill-rule:evenodd;fill:rgb(86.666667%,76.47059%,57.254905%);fill-opacity:1;" d="M 79.25 67.75 C 81.503906 67.636719 83.667969 67.96875 85.75 68.75 C 85.574219 70.671875 84.492188 71.671875 82.5 71.75 C 80.421875 71.253906 79.335938 69.917969 79.25 67.75 Z M 79.25 67.75 "/>
<path style=" stroke:none;fill-rule:evenodd;fill:rgb(15.294118%,14.117648%,13.725491%);fill-opacity:1;" d="M 23.75 70.25 C 24.988281 72.386719 26.238281 74.550781 27.5 76.75 C 28.1875 77.519531 28.9375 78.1875 29.75 78.75 C 30.773438 80.183594 32.105469 81.265625 33.75 82 C 39.472656 84.527344 45.472656 85.445312 51.75 84.75 C 51.753906 87.089844 52.585938 89.089844 54.25 90.75 C 54.070312 91.089844 53.902344 91.425781 53.75 91.75 C 52.925781 92.238281 52.261719 92.90625 51.75 93.75 C 51.25 93.417969 50.75 93.082031 50.25 92.75 C 50.082031 93.417969 49.917969 94.082031 49.75 94.75 C 49.375 94.3125 49.125 93.8125 49 93.25 C 48.863281 94.164062 48.445312 94.914062 47.75 95.5 C 45.40625 96.164062 44.15625 95.246094 44 92.75 C 43.636719 92.46875 43.222656 92.304688 42.75 92.25 C 40.859375 92.640625 39.191406 93.476562 37.75 94.75 C 37.261719 94.511719 36.84375 94.179688 36.5 93.75 C 36.144531 94.191406 35.730469 94.523438 35.25 94.75 C 34.617188 94.453125 33.949219 94.203125 33.25 94 C 34.632812 93.664062 34.882812 93.082031 34 92.25 C 31.886719 94.214844 29.722656 94.214844 27.5 92.25 C 27.382812 91.109375 26.96875 90.109375 26.25 89.25 C 25.65625 88.671875 25.15625 88.671875 24.75 89.25 C 23.847656 88.988281 23.015625 88.65625 22.25 88.25 C 22.75 88.25 23.25 88.25 23.75 88.25 C 25.492188 87.8125 26.660156 86.8125 27.25 85.25 C 26.722656 85.324219 26.222656 85.242188 25.75 85 C 26.777344 84.398438 27.777344 84.230469 28.75 84.5 C 28.179688 84.128906 28.179688 83.710938 28.75 83.25 C 28.199219 82.554688 27.53125 81.96875 26.75 81.5 C 27.417969 81.332031 28.082031 81.167969 28.75 81 C 28.160156 80.515625 27.496094 80.265625 26.75 80.25 C 26.144531 79.640625 26.144531 79.054688 26.75 78.5 C 25.855469 78.292969 25.1875 77.792969 24.75 77 C 25.082031 76.832031 25.417969 76.667969 25.75 76.5 C 25.082031 76.167969 25.082031 75.832031 25.75 75.5 C 24.75 74.667969 23.75 73.832031 22.75 73 C 22.523438 72.003906 22.859375 71.089844 23.75 70.25 Z M 23.75 70.25 "/>
<path style=" stroke:none;fill-rule:evenodd;fill:rgb(96.470588%,76.078433%,35.686275%);fill-opacity:1;" d="M 54.75 61.75 C 54.171875 62.570312 53.589844 63.402344 53 64.25 C 51.695312 73.085938 55.445312 77.167969 64.25 76.5 C 68.761719 74.5625 70.761719 71.144531 70.25 66.25 C 70.417969 66.25 70.582031 66.25 70.75 66.25 C 70.828125 68.78125 70.578125 71.28125 70 73.75 C 69.765625 74.464844 69.351562 75.046875 68.75 75.5 C 65.730469 77.464844 62.394531 78.214844 58.75 77.75 C 56.625 77.742188 54.542969 77.574219 52.5 77.25 C 52.332031 76.25 52.167969 75.25 52 74.25 C 49.957031 71.820312 49.039062 68.984375 49.25 65.75 C 49.792969 63.453125 50.625 61.289062 51.75 59.25 C 52.339844 58.082031 53.175781 57.082031 54.25 56.25 C 54.746094 58.054688 54.910156 59.886719 54.75 61.75 Z M 54.75 61.75 "/>
<path style=" stroke:none;fill-rule:evenodd;fill:rgb(99.215686%,97.647059%,92.941177%);fill-opacity:1;" d="M 33.75 70.75 C 38.863281 71.652344 44.03125 71.984375 49.25 71.75 C 49.804688 72.800781 50.140625 73.964844 50.25 75.25 C 48.871094 75.910156 47.289062 76.242188 45.5 76.25 C 43.214844 76.261719 40.964844 76.011719 38.75 75.5 C 36.734375 74.246094 34.570312 73.328125 32.25 72.75 C 30.253906 70.933594 30.753906 70.265625 33.75 70.75 Z M 33.75 70.75 "/>
<path style=" stroke:none;fill-rule:evenodd;fill:rgb(96.470588%,90.588236%,70.588237%);fill-opacity:1;" d="M 28.25 66.75 C 27.878906 66.683594 27.546875 66.769531 27.25 67 C 28.855469 69.675781 30.519531 72.257812 32.25 74.75 C 34.476562 78.449219 37.8125 80.28125 42.25 80.25 C 48.019531 80.601562 53.851562 80.9375 59.75 81.25 C 53.171875 81.828125 46.503906 81.914062 39.75 81.5 C 35.832031 80.328125 32.5 78.246094 29.75 75.25 C 27.75 72.746094 26.414062 69.914062 25.75 66.75 C 26.601562 65.425781 27.433594 65.425781 28.25 66.75 Z M 28.25 66.75 "/>
<path style=" stroke:none;fill-rule:evenodd;fill:rgb(96.078432%,81.176472%,49.803922%);fill-opacity:1;" d="M 75.25 68.25 C 75.167969 70.753906 75.25 73.253906 75.5 75.75 C 76.003906 75.332031 76.589844 75.164062 77.25 75.25 C 76.796875 73.167969 76.796875 71.167969 77.25 69.25 C 78.679688 72.199219 78.429688 75.03125 76.5 77.75 C 73.234375 80.941406 69.316406 82.105469 64.75 81.25 C 64.804688 80.941406 64.972656 80.691406 65.25 80.5 C 68.714844 80.789062 71.628906 79.707031 74 77.25 C 74.242188 76.777344 74.324219 76.277344 74.25 75.75 C 74.582031 73.25 74.917969 70.75 75.25 68.25 Z M 75.25 68.25 "/>
<path style=" stroke:none;fill-rule:evenodd;fill:rgb(99.607843%,97.254902%,91.764706%);fill-opacity:1;" d="M 42.25 80.25 C 37.8125 80.28125 34.476562 78.449219 32.25 74.75 C 32.183594 74.3125 32.351562 73.976562 32.75 73.75 C 35.292969 75.238281 37.960938 76.488281 40.75 77.5 C 44.46875 77.535156 48.136719 77.867188 51.75 78.5 C 52.417969 79 52.417969 79.5 51.75 80 C 48.585938 80.25 45.421875 80.332031 42.25 80.25 Z M 42.25 80.25 "/>
<path style=" stroke:none;fill-rule:evenodd;fill:rgb(99.607843%,84.313726%,46.27451%);fill-opacity:1;" d="M 49.25 65.75 C 49.039062 68.984375 49.957031 71.820312 52 74.25 C 52.167969 75.25 52.332031 76.25 52.5 77.25 C 54.542969 77.574219 56.625 77.742188 58.75 77.75 C 62.394531 78.214844 65.730469 77.464844 68.75 75.5 C 69.351562 75.046875 69.765625 74.464844 70 73.75 C 70.578125 71.28125 70.828125 68.78125 70.75 66.25 C 71.164062 65.835938 71.582031 66 72 66.75 C 72.25 69.246094 72.332031 71.746094 72.25 74.25 C 70.308594 76.136719 67.976562 77.386719 65.25 78 C 60.917969 78.332031 56.582031 78.332031 52.25 78 C 51.757812 76.917969 51.089844 76 50.25 75.25 C 50.140625 73.964844 49.804688 72.800781 49.25 71.75 C 48.679688 69.675781 48.679688 67.675781 49.25 65.75 Z M 49.25 65.75 "/>
<path style=" stroke:none;fill-rule:evenodd;fill:rgb(39.607844%,40.000001%,38.431373%);fill-opacity:1;" d="M 14.75 79.25 C 12.023438 79.886719 10.023438 78.886719 8.75 76.25 C 8.90625 75.632812 9.15625 75.632812 9.5 76.25 C 9.746094 75.726562 9.664062 75.226562 9.25 74.75 C 10.3125 73.265625 10.898438 73.433594 11 75.25 C 11.167969 75.082031 11.332031 74.917969 11.5 74.75 C 12.476562 75.570312 12.390625 76.320312 11.25 77 C 12 77.25 12.75 77.5 13.5 77.75 C 14.148438 77.148438 14.898438 76.8125 15.75 76.75 C 15.816406 77.777344 15.484375 78.609375 14.75 79.25 Z M 14.75 79.25 "/>
<path style=" stroke:none;fill-rule:evenodd;fill:rgb(99.607843%,95.686275%,81.176472%);fill-opacity:1;" d="M 28.25 66.75 C 30.191406 67.96875 32.023438 69.300781 33.75 70.75 C 30.753906 70.265625 30.253906 70.933594 32.25 72.75 C 34.570312 73.328125 36.734375 74.246094 38.75 75.5 C 40.964844 76.011719 43.214844 76.261719 45.5 76.25 C 47.289062 76.242188 48.871094 75.910156 50.25 75.25 C 51.089844 76 51.757812 76.917969 52.25 78 C 56.582031 78.332031 60.917969 78.332031 65.25 78 C 67.976562 77.386719 70.308594 76.136719 72.25 74.25 C 72.738281 73.617188 73.238281 72.949219 73.75 72.25 C 74.238281 73.371094 74.402344 74.539062 74.25 75.75 C 74.324219 76.277344 74.242188 76.777344 74 77.25 C 71.628906 79.707031 68.714844 80.789062 65.25 80.5 C 64.972656 80.691406 64.804688 80.941406 64.75 81.25 C 63.082031 81.25 61.417969 81.25 59.75 81.25 C 53.851562 80.9375 48.019531 80.601562 42.25 80.25 C 45.421875 80.332031 48.585938 80.25 51.75 80 C 52.417969 79.5 52.417969 79 51.75 78.5 C 48.136719 77.867188 44.46875 77.535156 40.75 77.5 C 37.960938 76.488281 35.292969 75.238281 32.75 73.75 C 32.351562 73.976562 32.183594 74.3125 32.25 74.75 C 30.519531 72.257812 28.855469 69.675781 27.25 67 C 27.546875 66.769531 27.878906 66.683594 28.25 66.75 Z M 28.25 66.75 "/>
<path style=" stroke:none;fill-rule:evenodd;fill:rgb(33.725491%,33.333334%,30.980393%);fill-opacity:1;" d="M 18.25 83.75 C 18.535156 84.488281 18.953125 85.152344 19.5 85.75 C 20.234375 84.550781 20.984375 84.632812 21.75 86 C 23.101562 86.125 24.433594 86.125 25.75 86 C 25.21875 86.59375 24.550781 86.84375 23.75 86.75 C 23.75 87.25 23.75 87.75 23.75 88.25 C 23.25 88.25 22.75 88.25 22.25 88.25 C 20.664062 87.914062 19.164062 87.332031 17.75 86.5 C 15.582031 85.097656 15.746094 84.179688 18.25 83.75 Z M 18.25 83.75 "/>
<path style=" stroke:none;fill-rule:evenodd;fill:rgb(97.254902%,88.235295%,66.274512%);fill-opacity:1;" d="M 56.25 83.75 C 57.488281 85.738281 59.238281 87.070312 61.5 87.75 C 64.273438 87.664062 66.023438 86.332031 66.75 83.75 C 67.859375 83.316406 69.023438 83.148438 70.25 83.25 C 69.300781 89.609375 65.632812 92.195312 59.25 91 C 55.90625 89.683594 54.238281 87.351562 54.25 84 C 54.898438 83.753906 55.5625 83.671875 56.25 83.75 Z M 56.25 83.75 "/>
<path style=" stroke:none;fill-rule:evenodd;fill:rgb(50.588238%,33.333334%,23.137255%);fill-opacity:1;" d="M 56.25 83.75 C 59.75 83.75 63.25 83.75 66.75 83.75 C 66.023438 86.332031 64.273438 87.664062 61.5 87.75 C 59.238281 87.070312 57.488281 85.738281 56.25 83.75 Z M 56.25 83.75 "/>
<path style=" stroke:none;fill-rule:evenodd;fill:rgb(35.686275%,34.509805%,33.725491%);fill-opacity:1;" d="M 35.25 94.75 C 34.476562 96.265625 33.226562 97.097656 31.5 97.25 C 27.164062 96.332031 24.914062 93.664062 24.75 89.25 C 25.15625 88.671875 25.65625 88.671875 26.25 89.25 C 26.96875 90.109375 27.382812 91.109375 27.5 92.25 C 29.722656 94.214844 31.886719 94.214844 34 92.25 C 34.882812 93.082031 34.632812 93.664062 33.25 94 C 33.949219 94.203125 34.617188 94.453125 35.25 94.75 Z M 35.25 94.75 "/>
</g>
</svg>
