<?xml version="1.0" encoding="UTF-8"?>
<svg xmlns="http://www.w3.org/2000/svg" xmlns:xlink="http://www.w3.org/1999/xlink" width="px" height="px" viewBox="0 0 105 109" version="1.1">
<defs>
<filter id="alpha" filterUnits="objectBoundingBox" x="0%" y="0%" width="100%" height="100%">
  <feColorMatrix type="matrix" in="SourceGraphic" values="0 0 0 0 1 0 0 0 0 1 0 0 0 0 1 0 0 0 1 0"/>
</filter>
<mask id="mask0">
  <g filter="url(#alpha)">
<rect x="0" y="0" width="105" height="109" style="fill:rgb(0%,0%,0%);fill-opacity:0.00392157;stroke:none;"/>
  </g>
</mask>
<clipPath id="clip1">
  <rect x="0" y="0" width="105" height="110"/>
</clipPath>
<g id="surface5" clip-path="url(#clip1)">
<path style=" stroke:none;fill-rule:evenodd;fill:rgb(14.509804%,23.137255%,29.019608%);fill-opacity:1;" d="M 41.449219 -0.25 C 44.964844 -0.25 48.480469 -0.25 51.996094 -0.25 C 52.5 0.417969 53.003906 0.417969 53.503906 -0.25 C 54.34375 -0.25 55.179688 -0.25 56.015625 -0.25 C 56.351562 0.417969 56.6875 0.417969 57.023438 -0.25 C 57.355469 -0.25 57.691406 -0.25 58.027344 -0.25 C 63.101562 0.382812 66.453125 3.148438 68.074219 8.035156 C 68.878906 8.175781 69.632812 8.425781 70.335938 8.789062 C 78.597656 8.03125 83.707031 12.050781 85.65625 20.84375 C 88.371094 22.96875 90.628906 25.480469 92.441406 28.378906 C 98.796875 25.921875 101.730469 28.265625 101.230469 35.414062 C 103.503906 37.226562 104.339844 39.484375 103.742188 42.195312 C 104.046875 43.007812 104.378906 43.761719 104.75 44.453125 C 104.75 45.625 104.75 46.796875 104.75 47.96875 C 103.628906 48.902344 103.628906 49.90625 104.75 50.984375 C 104.75 52.15625 104.75 53.328125 104.75 54.5 C 104.234375 54.9375 103.898438 55.523438 103.742188 56.257812 C 104.371094 57.921875 104.371094 59.511719 103.742188 61.03125 C 103.621094 56.167969 103.621094 51.3125 103.742188 46.464844 C 103.140625 43.566406 102.640625 40.722656 102.238281 37.925781 C 101.746094 37.097656 101.074219 36.429688 100.226562 35.914062 C 101.1875 28.328125 98.34375 26.320312 91.6875 29.886719 C 90.425781 26.035156 88 23.1875 84.402344 21.347656 C 83.671875 15.089844 80.238281 11.15625 74.101562 9.542969 C 71.765625 9.292969 69.421875 9.210938 67.070312 9.292969 C 66.972656 7.300781 66.300781 5.542969 65.058594 4.019531 C 63.078125 2.609375 60.902344 1.605469 58.527344 1.003906 C 52.835938 0.667969 47.140625 0.667969 41.449219 1.003906 C 38.996094 1.78125 37.152344 3.289062 35.921875 5.523438 C 31.753906 5.257812 27.566406 5.257812 23.359375 5.523438 C 16.847656 7.089844 13.667969 11.195312 13.816406 17.832031 C 10.199219 18.515625 7.9375 20.691406 7.035156 24.363281 C 6.375 27.890625 7.296875 30.902344 9.796875 33.402344 C 10.253906 34.410156 9.835938 35.078125 8.539062 35.414062 C 7.257812 37.8125 6.921875 40.324219 7.535156 42.945312 C 0.375 46.59375 -1.550781 52.121094 1.757812 59.523438 C 1.089844 59.019531 0.417969 58.519531 -0.25 58.015625 C -0.25 55.003906 -0.25 51.988281 -0.25 48.976562 C 1.386719 46.414062 3.480469 44.238281 6.027344 42.445312 C 5.710938 39.144531 6.632812 36.300781 8.792969 33.90625 C 4.0625 27.027344 5.234375 21.335938 12.308594 16.828125 C 14.128906 8.398438 19.40625 4.046875 28.132812 3.765625 C 30.550781 4.246094 32.980469 4.328125 35.417969 4.019531 C 37.214844 2.207031 39.222656 0.785156 41.449219 -0.25 Z M 41.449219 -0.25 "/>
</g>
<mask id="mask1">
  <g filter="url(#alpha)">
<rect x="0" y="0" width="105" height="109" style="fill:rgb(0%,0%,0%);fill-opacity:0.968627;stroke:none;"/>
  </g>
</mask>
<clipPath id="clip2">
  <rect x="0" y="0" width="105" height="110"/>
</clipPath>
<g id="surface8" clip-path="url(#clip2)">
<path style=" stroke:none;fill-rule:evenodd;fill:rgb(4.313725%,3.137255%,3.137255%);fill-opacity:1;" d="M 102.238281 37.925781 C 101.574219 38.007812 100.988281 37.84375 100.476562 37.421875 C 100.246094 37.71875 100.160156 38.054688 100.226562 38.425781 C 100.058594 38.425781 99.890625 38.425781 99.726562 38.425781 C 98.863281 38.0625 97.941406 37.726562 96.960938 37.421875 C 96.460938 37.707031 96.042969 38.039062 95.707031 38.425781 C 94.367188 38.425781 93.027344 38.425781 91.6875 38.425781 C 91.6875 39.429688 91.6875 40.433594 91.6875 41.441406 C 91.109375 42.003906 90.605469 42.003906 90.179688 41.441406 C 90.179688 40.433594 90.179688 39.429688 90.179688 38.425781 C 89.121094 38.578125 88.117188 38.410156 87.164062 37.925781 C 90.359375 29.242188 87.515625 23.882812 78.625 21.851562 C 75.824219 21.148438 72.980469 20.8125 70.082031 20.84375 C 68.074219 21.265625 66.066406 21.519531 64.054688 21.597656 C 64.839844 21.292969 65.511719 20.875 66.066406 20.34375 C 69.238281 18.46875 69.824219 15.957031 67.824219 12.808594 C 65.636719 11.304688 64.296875 9.296875 63.804688 6.78125 C 61.847656 4.234375 59.25 3.0625 56.015625 3.265625 C 51.324219 3.179688 46.636719 3.265625 41.949219 3.515625 C 39.976562 4.203125 39.304688 5.457031 39.941406 7.285156 C 38.65625 7.132812 37.480469 7.300781 36.421875 7.785156 C 31.808594 7.621094 27.289062 7.789062 22.859375 8.289062 C 22.359375 8.203125 22.027344 8.371094 21.855469 8.789062 C 17.136719 10.519531 15.292969 13.871094 16.328125 18.835938 C 15.496094 19.621094 14.492188 20.121094 13.3125 20.34375 C 9.242188 22.695312 8.238281 26.046875 10.300781 30.390625 C 10.300781 30.558594 10.300781 30.722656 10.300781 30.890625 C 10.234375 31.753906 10.066406 32.589844 9.796875 33.402344 C 7.296875 30.902344 6.375 27.890625 7.035156 24.363281 C 7.9375 20.691406 10.199219 18.515625 13.816406 17.832031 C 13.667969 11.195312 16.847656 7.089844 23.359375 5.523438 C 27.566406 5.257812 31.753906 5.257812 35.921875 5.523438 C 37.152344 3.289062 38.996094 1.78125 41.449219 1.003906 C 47.140625 0.667969 52.835938 0.667969 58.527344 1.003906 C 60.902344 1.605469 63.078125 2.609375 65.058594 4.019531 C 66.300781 5.542969 66.972656 7.300781 67.070312 9.292969 C 69.421875 9.210938 71.765625 9.292969 74.101562 9.542969 C 80.238281 11.15625 83.671875 15.089844 84.402344 21.347656 C 88 23.1875 90.425781 26.035156 91.6875 29.886719 C 98.34375 26.320312 101.1875 28.328125 100.226562 35.914062 C 101.074219 36.429688 101.746094 37.097656 102.238281 37.925781 Z M 102.238281 37.925781 "/>
</g>
<mask id="mask2">
  <g filter="url(#alpha)">
<rect x="0" y="0" width="105" height="109" style="fill:rgb(0%,0%,0%);fill-opacity:0.92549;stroke:none;"/>
  </g>
</mask>
<clipPath id="clip3">
  <rect x="0" y="0" width="105" height="110"/>
</clipPath>
<g id="surface11" clip-path="url(#clip3)">
<path style=" stroke:none;fill-rule:evenodd;fill:rgb(5.490196%,3.529412%,2.352941%);fill-opacity:1;" d="M 10.300781 30.890625 C 11.304688 31.730469 12.308594 32.566406 13.3125 33.402344 C 14.410156 34.449219 15.75 34.953125 17.332031 34.910156 C 15.65625 35.246094 13.984375 35.578125 12.308594 35.914062 C 9.453125 37.105469 8.699219 39.113281 10.046875 41.941406 C 12.265625 42.34375 14.527344 42.597656 16.832031 42.695312 C 17.894531 42.828125 18.730469 43.328125 19.34375 44.203125 C 16.425781 43.875 13.578125 43.960938 10.800781 44.453125 C 9.769531 44.40625 8.933594 44.738281 8.289062 45.457031 C 2.921875 47.988281 1.332031 52.007812 3.515625 57.515625 C 4.183594 58.765625 5.105469 59.773438 6.28125 60.527344 C 7.125 61.285156 8.128906 61.789062 9.292969 62.035156 C 10.632812 62.703125 11.972656 62.703125 13.3125 62.035156 C 15.9375 61.753906 18.449219 61.085938 20.847656 60.023438 C 23.953125 59.828125 26.96875 60.246094 29.890625 61.28125 C 28.617188 61.375 27.445312 61.625 26.375 62.035156 C 24.191406 61.953125 22.015625 62.035156 19.84375 62.285156 C 19.0625 62.390625 18.390625 62.640625 17.835938 63.039062 C 14.589844 63.324219 11.910156 64.664062 9.796875 67.058594 C 6.09375 70.246094 5.421875 73.929688 7.785156 78.109375 C 9.300781 81.292969 11.8125 83.136719 15.324219 83.632812 C 16.722656 84.125 18.230469 84.292969 19.84375 84.136719 C 20.265625 84.308594 20.433594 84.640625 20.347656 85.140625 C 18.894531 85.394531 17.472656 85.730469 16.078125 86.144531 C 15.578125 92.359375 18.34375 96.460938 24.367188 98.453125 C 27.070312 98.820312 29.75 98.738281 32.40625 98.199219 C 32.90625 98.199219 33.410156 98.199219 33.910156 98.199219 C 34.152344 99.597656 33.648438 100.601562 32.40625 101.214844 C 33.476562 102.957031 34.980469 104.128906 36.925781 104.730469 C 39.847656 105.308594 42.863281 105.394531 45.96875 104.980469 C 46.429688 104.84375 46.765625 104.589844 46.972656 104.226562 C 48.542969 104.042969 50.050781 103.625 51.496094 102.972656 C 53.496094 102.722656 55.507812 102.636719 57.523438 102.722656 C 57.371094 103.046875 57.203125 103.382812 57.023438 103.726562 C 57.574219 104.066406 58.078125 104.398438 58.527344 104.730469 C 53.980469 104.65625 49.625 105.574219 45.464844 107.492188 C 41.019531 108.296875 36.832031 107.625 32.90625 105.484375 C 31.535156 104.414062 30.53125 103.074219 29.890625 101.464844 C 19.761719 100.960938 14.066406 95.6875 12.8125 85.644531 C 4.546875 81.867188 2.285156 75.839844 6.027344 67.558594 C 6.949219 66.640625 7.871094 65.71875 8.792969 64.796875 C 6.082031 63.511719 3.738281 61.75 1.757812 59.523438 C -1.550781 52.121094 0.375 46.59375 7.535156 42.945312 C 6.921875 40.324219 7.257812 37.8125 8.539062 35.414062 C 9.835938 35.078125 10.253906 34.410156 9.796875 33.402344 C 10.066406 32.589844 10.234375 31.753906 10.300781 30.890625 Z M 10.300781 30.890625 "/>
</g>
<mask id="mask3">
  <g filter="url(#alpha)">
<rect x="0" y="0" width="105" height="109" style="fill:rgb(0%,0%,0%);fill-opacity:0.988235;stroke:none;"/>
  </g>
</mask>
<clipPath id="clip4">
  <rect x="0" y="0" width="105" height="110"/>
</clipPath>
<g id="surface14" clip-path="url(#clip4)">
<path style=" stroke:none;fill-rule:evenodd;fill:rgb(6.27451%,5.882353%,6.27451%);fill-opacity:1;" d="M 99.726562 38.425781 C 98.886719 38.425781 98.050781 38.425781 97.214844 38.425781 C 97.214844 39.429688 97.214844 40.433594 97.214844 41.441406 C 98.386719 41.441406 99.558594 41.441406 100.730469 41.441406 C 100.816406 40.375 100.648438 39.371094 100.226562 38.425781 C 100.160156 38.054688 100.246094 37.71875 100.476562 37.421875 C 100.988281 37.84375 101.574219 38.007812 102.238281 37.925781 C 102.640625 40.722656 103.140625 43.566406 103.742188 46.464844 C 103.621094 51.3125 103.621094 56.167969 103.742188 61.03125 C 103.527344 63.164062 103.445312 65.339844 103.492188 67.558594 C 102.980469 68.78125 102.058594 69.449219 100.730469 69.570312 C 99.933594 71.941406 99.265625 74.453125 98.71875 77.105469 C 98.3125 77.855469 97.640625 78.1875 96.710938 78.109375 C 95.03125 77.855469 93.441406 77.351562 91.9375 76.601562 C 90.972656 78.027344 90.136719 79.535156 89.425781 81.121094 C 87.792969 82.882812 86.035156 84.476562 84.152344 85.894531 C 84.191406 88.769531 83.1875 91.367188 81.136719 93.679688 C 77.375 96.761719 73.1875 98.015625 68.578125 97.445312 C 67.769531 99.546875 66.597656 101.386719 65.058594 102.972656 C 63.296875 103.855469 61.457031 104.441406 59.535156 104.730469 C 59.199219 104.730469 58.863281 104.730469 58.527344 104.730469 C 58.078125 104.398438 57.574219 104.066406 57.023438 103.726562 C 57.203125 103.382812 57.371094 103.046875 57.523438 102.722656 C 59.125 102.101562 60.800781 101.515625 62.546875 100.964844 C 63.15625 100.441406 63.65625 99.855469 64.054688 99.203125 C 64.710938 98.640625 65.046875 97.886719 65.058594 96.945312 C 64.410156 95.910156 64.15625 94.824219 64.304688 93.679688 C 67.230469 92.183594 68.234375 89.839844 67.320312 86.648438 C 66.164062 85.859375 64.90625 85.273438 63.550781 84.890625 C 61.214844 84.640625 58.871094 84.554688 56.519531 84.636719 C 55.871094 84.757812 55.367188 84.589844 55.011719 84.136719 C 53.757812 83.402344 52.421875 82.734375 50.992188 82.125 C 50.40625 81.527344 50.574219 81.191406 51.496094 81.121094 C 52.769531 81.117188 54.027344 80.949219 55.261719 80.621094 C 56.859375 80.96875 58.285156 81.640625 59.535156 82.628906 C 60.648438 82.4375 61.652344 82.105469 62.546875 81.625 C 63.050781 81.625 63.550781 81.625 64.054688 81.625 C 66.210938 82.339844 68.222656 83.425781 70.082031 84.890625 C 72.1875 85.296875 74.199219 85.214844 76.113281 84.636719 C 79.089844 84.316406 81.765625 83.3125 84.152344 81.625 C 86.367188 80.664062 87.789062 78.988281 88.421875 76.601562 C 88.277344 73.734375 87.859375 70.890625 87.164062 68.0625 C 90.769531 68.898438 92.023438 67.558594 90.933594 64.042969 C 90.21875 63.5625 89.464844 63.144531 88.671875 62.789062 C 89.679688 62.277344 90.683594 61.859375 91.6875 61.53125 C 91.75 55.496094 91.835938 49.46875 91.9375 43.449219 C 91.070312 42.964844 90.148438 42.628906 89.175781 42.445312 C 88.839844 42.445312 88.503906 42.445312 88.167969 42.445312 C 88.511719 41.601562 89.183594 41.269531 90.179688 41.441406 C 90.605469 42.003906 91.109375 42.003906 91.6875 41.441406 C 93.027344 41.441406 94.367188 41.441406 95.707031 41.441406 C 95.707031 40.433594 95.707031 39.429688 95.707031 38.425781 C 96.042969 38.039062 96.460938 37.707031 96.960938 37.421875 C 97.941406 37.726562 98.863281 38.0625 99.726562 38.425781 Z M 99.726562 38.425781 "/>
</g>
<mask id="mask4">
  <g filter="url(#alpha)">
<rect x="0" y="0" width="105" height="109" style="fill:rgb(0%,0%,0%);fill-opacity:0.988235;stroke:none;"/>
  </g>
</mask>
<clipPath id="clip5">
  <rect x="0" y="0" width="105" height="110"/>
</clipPath>
<g id="surface17" clip-path="url(#clip5)">
<path style=" stroke:none;fill-rule:evenodd;fill:rgb(72.941176%,40.784314%,14.901961%);fill-opacity:1;" d="M 38.933594 33.402344 C 38.878906 33.714844 38.710938 33.964844 38.433594 34.15625 C 40.625 35.273438 41.378906 37.03125 40.695312 39.429688 C 40.304688 41.214844 39.636719 42.886719 38.683594 44.453125 C 38.117188 45.277344 37.363281 45.78125 36.421875 45.960938 C 36.710938 44.632812 37.046875 43.292969 37.429688 41.941406 C 37.804688 42.382812 38.054688 42.882812 38.183594 43.449219 C 39.527344 41.089844 40.03125 38.578125 39.6875 35.914062 C 38.984375 35.550781 38.234375 35.296875 37.429688 35.160156 C 37.667969 34.292969 38.167969 33.707031 38.933594 33.402344 Z M 38.933594 33.402344 "/>
</g>
<mask id="mask5">
  <g filter="url(#alpha)">
<rect x="0" y="0" width="105" height="109" style="fill:rgb(0%,0%,0%);fill-opacity:0.0705882;stroke:none;"/>
  </g>
</mask>
<clipPath id="clip6">
  <rect x="0" y="0" width="105" height="110"/>
</clipPath>
<g id="surface20" clip-path="url(#clip6)">
<path style=" stroke:none;fill-rule:evenodd;fill:rgb(16.078431%,23.921569%,29.019608%);fill-opacity:1;" d="M 100.730469 69.570312 C 100.148438 71.15625 100.148438 72.746094 100.730469 74.339844 C 100.347656 75.066406 100.011719 75.816406 99.726562 76.601562 C 99.496094 77.003906 99.160156 77.167969 98.71875 77.105469 C 99.265625 74.453125 99.933594 71.941406 100.730469 69.570312 Z M 100.730469 69.570312 "/>
</g>
<mask id="mask6">
  <g filter="url(#alpha)">
<rect x="0" y="0" width="105" height="109" style="fill:rgb(0%,0%,0%);fill-opacity:0.0392157;stroke:none;"/>
  </g>
</mask>
<clipPath id="clip7">
  <rect x="0" y="0" width="105" height="110"/>
</clipPath>
<g id="surface23" clip-path="url(#clip7)">
<path style=" stroke:none;fill-rule:evenodd;fill:rgb(14.509804%,20.392157%,25.098039%);fill-opacity:1;" d="M 1.757812 59.523438 C 3.738281 61.75 6.082031 63.511719 8.792969 64.796875 C 7.871094 65.71875 6.949219 66.640625 6.027344 67.558594 C 2.285156 75.839844 4.546875 81.867188 12.8125 85.644531 C 14.066406 95.6875 19.761719 100.960938 29.890625 101.464844 C 30.53125 103.074219 31.535156 104.414062 32.90625 105.484375 C 36.832031 107.625 41.019531 108.296875 45.464844 107.492188 C 49.625 105.574219 53.980469 104.65625 58.527344 104.730469 C 58.863281 104.730469 59.199219 104.730469 59.535156 104.730469 C 59.585938 105.675781 59.335938 105.839844 58.78125 105.234375 C 54.632812 105.683594 50.613281 106.6875 46.722656 108.246094 C 46.140625 107.710938 45.722656 107.878906 45.464844 108.75 C 43.121094 108.75 40.777344 108.75 38.433594 108.75 C 34.507812 108.035156 31.496094 105.945312 29.390625 102.46875 C 19.058594 101.765625 13.199219 96.324219 11.804688 86.144531 C 2.414062 80.890625 0.742188 73.859375 6.78125 65.046875 C 4.726562 63.5 3.054688 61.65625 1.757812 59.523438 Z M 1.757812 59.523438 "/>
</g>
</defs>
<g id="surface1">
<use xlink:href="#surface5" mask="url(#mask0)"/>
<use xlink:href="#surface8" mask="url(#mask1)"/>
<path style=" stroke:none;fill-rule:evenodd;fill:rgb(86.27451%,48.627451%,9.019608%);fill-opacity:1;" d="M 46.472656 5.777344 C 48.585938 7.828125 49.757812 10.339844 49.988281 13.3125 C 49.867188 14.269531 49.367188 14.9375 48.480469 15.320312 C 47.921875 15.292969 47.421875 15.125 46.972656 14.816406 C 43.738281 13.203125 40.390625 11.863281 36.925781 10.800781 C 36.421875 10.800781 35.921875 10.800781 35.417969 10.800781 C 34.007812 10.386719 32.503906 10.136719 30.898438 10.046875 C 31.566406 9.542969 31.566406 9.042969 30.898438 8.539062 C 32.835938 8.449219 34.675781 8.199219 36.421875 7.785156 C 37.480469 7.300781 38.65625 7.132812 39.941406 7.285156 C 40.957031 7.363281 41.964844 7.28125 42.953125 7.03125 C 42.5 6.179688 42.332031 5.257812 42.453125 4.269531 C 43.960938 4.382812 45.300781 4.882812 46.472656 5.777344 Z M 46.472656 5.777344 "/>
<path style=" stroke:none;fill-rule:evenodd;fill:rgb(93.72549%,74.117647%,38.039216%);fill-opacity:1;" d="M 22.859375 8.289062 C 27.289062 7.789062 31.808594 7.621094 36.421875 7.785156 C 34.675781 8.199219 32.835938 8.449219 30.898438 8.539062 C 31.566406 9.042969 31.566406 9.542969 30.898438 10.046875 C 32.503906 10.136719 34.007812 10.386719 35.417969 10.800781 C 31.558594 10.6875 27.707031 10.4375 23.863281 10.046875 C 21.855469 9.542969 21.855469 9.042969 23.863281 8.539062 C 23.566406 8.304688 23.230469 8.222656 22.859375 8.289062 Z M 22.859375 8.289062 "/>
<path style=" stroke:none;fill-rule:evenodd;fill:rgb(92.941176%,69.019608%,34.117647%);fill-opacity:1;" d="M 56.015625 3.265625 C 56.015625 3.433594 56.015625 3.601562 56.015625 3.765625 C 53.667969 3.683594 51.320312 3.769531 48.984375 4.019531 C 50.972656 5.140625 52.730469 6.5625 54.257812 8.289062 C 54.652344 9.011719 54.566406 9.683594 54.007812 10.296875 C 52.109375 9.15625 50.4375 7.734375 48.984375 6.027344 C 48.164062 5.78125 47.324219 5.695312 46.472656 5.777344 C 45.300781 4.882812 43.960938 4.382812 42.453125 4.269531 C 42.332031 5.257812 42.5 6.179688 42.953125 7.03125 C 41.964844 7.28125 40.957031 7.363281 39.941406 7.285156 C 39.304688 5.457031 39.976562 4.203125 41.949219 3.515625 C 46.636719 3.265625 51.324219 3.179688 56.015625 3.265625 Z M 56.015625 3.265625 "/>
<path style=" stroke:none;fill-rule:evenodd;fill:rgb(97.254902%,61.568627%,9.803922%);fill-opacity:1;" d="M 56.015625 3.765625 C 56.351562 3.765625 56.519531 3.933594 56.519531 4.269531 C 56.867188 5.515625 57.621094 6.519531 58.78125 7.285156 C 59.945312 10.195312 60.277344 13.207031 59.785156 16.324219 C 58.746094 16.875 57.660156 16.957031 56.519531 16.574219 C 55.667969 15.425781 54.664062 14.507812 53.503906 13.8125 C 52.957031 12.878906 52.535156 11.875 52.25 10.800781 C 52.105469 12.199219 51.351562 13.035156 49.988281 13.3125 C 49.757812 10.339844 48.585938 7.828125 46.472656 5.777344 C 47.324219 5.695312 48.164062 5.78125 48.984375 6.027344 C 50.4375 7.734375 52.109375 9.15625 54.007812 10.296875 C 54.566406 9.683594 54.652344 9.011719 54.257812 8.289062 C 52.730469 6.5625 50.972656 5.140625 48.984375 4.019531 C 51.320312 3.769531 53.667969 3.683594 56.015625 3.765625 Z M 56.015625 3.765625 "/>
<path style=" stroke:none;fill-rule:evenodd;fill:rgb(69.803922%,34.901961%,11.372549%);fill-opacity:1;" d="M 56.015625 3.765625 C 56.015625 3.601562 56.015625 3.433594 56.015625 3.265625 C 59.25 3.0625 61.847656 4.234375 63.804688 6.78125 C 64.296875 9.296875 65.636719 11.304688 67.824219 12.808594 C 69.824219 15.957031 69.238281 18.46875 66.066406 20.34375 C 64.808594 20.46875 63.550781 20.636719 62.296875 20.84375 C 60.71875 20.433594 59.128906 20.097656 57.523438 19.839844 C 58.371094 19.4375 59.210938 18.933594 60.035156 18.335938 C 60.835938 14.402344 60.582031 10.550781 59.28125 6.78125 C 58.425781 5.839844 57.503906 5.003906 56.519531 4.269531 C 56.519531 3.933594 56.351562 3.765625 56.015625 3.765625 Z M 56.015625 3.765625 "/>
<path style=" stroke:none;fill-rule:evenodd;fill:rgb(78.431373%,74.117647%,71.764706%);fill-opacity:1;" d="M 79.125 14.816406 C 78.917969 15.132812 78.582031 15.296875 78.121094 15.320312 C 75.835938 14.574219 73.492188 14.238281 71.089844 14.316406 C 70.898438 13.433594 70.5625 12.59375 70.082031 11.804688 C 72.3125 11.308594 74.488281 11.5625 76.613281 12.558594 C 77.699219 13.058594 78.539062 13.8125 79.125 14.816406 Z M 79.125 14.816406 "/>
<path style=" stroke:none;fill-rule:evenodd;fill:rgb(95.686275%,89.019608%,68.235294%);fill-opacity:1;" d="M 21.855469 8.789062 C 20.890625 9.453125 20.804688 10.125 21.601562 10.800781 C 21.9375 11.46875 21.9375 12.140625 21.601562 12.808594 C 19.792969 14.917969 18.371094 17.261719 17.332031 19.839844 C 16.988281 19.46875 16.65625 19.132812 16.328125 18.835938 C 15.292969 13.871094 17.136719 10.519531 21.855469 8.789062 Z M 21.855469 8.789062 "/>
<path style=" stroke:none;fill-rule:evenodd;fill:rgb(95.686275%,77.254902%,35.294118%);fill-opacity:1;" d="M 36.925781 10.800781 C 40.390625 11.863281 43.738281 13.203125 46.972656 14.816406 C 46.753906 15.609375 46.25 16.195312 45.464844 16.574219 C 41.609375 16.816406 37.757812 16.730469 33.910156 16.324219 C 34.398438 15.875 34.734375 15.289062 34.917969 14.566406 C 34.625 13.492188 34.460938 12.40625 34.414062 11.300781 C 35.375 11.445312 36.214844 11.277344 36.925781 10.800781 Z M 36.925781 10.800781 "/>
<path style=" stroke:none;fill-rule:evenodd;fill:rgb(49.411765%,40%,38.823529%);fill-opacity:1;" d="M 71.089844 14.316406 C 73.492188 14.238281 75.835938 14.574219 78.121094 15.320312 C 78.582031 15.296875 78.917969 15.132812 79.125 14.816406 C 80.398438 16.058594 80.816406 17.5625 80.382812 19.339844 C 79.847656 18.992188 79.261719 18.742188 78.625 18.585938 C 76.117188 18.335938 73.605469 18.25 71.089844 18.335938 C 71.089844 16.996094 71.089844 15.65625 71.089844 14.316406 Z M 71.089844 14.316406 "/>
<path style=" stroke:none;fill-rule:evenodd;fill:rgb(98.431373%,66.666667%,12.941176%);fill-opacity:1;" d="M 46.972656 14.816406 C 47.421875 15.125 47.921875 15.292969 48.480469 15.320312 C 46.832031 18.25 44.570312 18.921875 41.699219 17.328125 C 39.984375 17.726562 38.226562 17.980469 36.421875 18.082031 C 35.851562 18.851562 35.351562 19.519531 34.917969 20.09375 C 35.394531 20.453125 35.476562 20.871094 35.167969 21.347656 C 34.523438 21.289062 33.9375 21.539062 33.410156 22.101562 C 34.132812 22.597656 34.632812 23.269531 34.917969 24.109375 C 34.449219 25.570312 33.945312 26.992188 33.410156 28.378906 C 32.90625 28.378906 32.40625 28.378906 31.902344 28.378906 C 32.011719 29.476562 31.59375 30.3125 30.644531 30.890625 C 30.640625 32.332031 30.558594 33.671875 30.394531 34.910156 C 30.226562 33.738281 29.558594 33.066406 28.386719 32.902344 C 28.328125 32.589844 28.160156 32.339844 27.882812 32.148438 C 27.046875 32.0625 26.207031 31.980469 25.371094 31.894531 C 24.398438 32.71875 22.390625 33.222656 19.34375 33.402344 C 17.160156 33.226562 16.320312 32.054688 16.832031 29.886719 C 20.535156 29.945312 24.21875 29.695312 27.882812 29.132812 C 29.367188 29.085938 30.707031 28.667969 31.902344 27.878906 C 32.527344 27.121094 32.527344 26.367188 31.902344 25.617188 C 28.882812 25.40625 26.035156 24.652344 23.359375 23.355469 C 24.425781 22.59375 25.597656 22.09375 26.878906 21.851562 C 29.234375 21.679688 31.414062 20.925781 33.410156 19.589844 C 33.828125 19.082031 33.996094 18.496094 33.910156 17.832031 C 33.910156 17.328125 33.910156 16.828125 33.910156 16.324219 C 37.757812 16.730469 41.609375 16.816406 45.464844 16.574219 C 46.25 16.195312 46.753906 15.609375 46.972656 14.816406 Z M 46.972656 14.816406 "/>
<path style=" stroke:none;fill-rule:evenodd;fill:rgb(98.431373%,89.803922%,71.372549%);fill-opacity:1;" d="M 33.910156 17.832031 C 33.996094 18.496094 33.828125 19.082031 33.410156 19.589844 C 31.414062 20.925781 29.234375 21.679688 26.878906 21.851562 C 26.375 21.851562 25.875 21.851562 25.371094 21.851562 C 22.691406 16.5625 24.367188 14.46875 30.394531 15.570312 C 31.820312 15.992188 32.996094 16.746094 33.910156 17.832031 Z M 33.910156 17.832031 "/>
<path style=" stroke:none;fill-rule:evenodd;fill:rgb(88.627451%,49.803922%,6.666667%);fill-opacity:1;" d="M 56.519531 4.269531 C 57.503906 5.003906 58.425781 5.839844 59.28125 6.78125 C 60.582031 10.550781 60.835938 14.402344 60.035156 18.335938 C 59.210938 18.933594 58.371094 19.4375 57.523438 19.839844 C 55.542969 19.648438 53.699219 19.980469 51.996094 20.84375 C 50.222656 20.75 48.546875 21.085938 46.972656 21.851562 C 48.964844 20.648438 50.890625 19.308594 52.75 17.832031 C 53.292969 16.542969 53.542969 15.203125 53.503906 13.8125 C 54.664062 14.507812 55.667969 15.425781 56.519531 16.574219 C 57.660156 16.957031 58.746094 16.875 59.785156 16.324219 C 60.277344 13.207031 59.945312 10.195312 58.78125 7.285156 C 57.621094 6.519531 56.867188 5.515625 56.519531 4.269531 Z M 56.519531 4.269531 "/>
<path style=" stroke:none;fill-rule:evenodd;fill:rgb(96.078431%,83.921569%,49.411765%);fill-opacity:1;" d="M 22.859375 8.289062 C 23.230469 8.222656 23.566406 8.304688 23.863281 8.539062 C 21.855469 9.042969 21.855469 9.542969 23.863281 10.046875 C 27.707031 10.4375 31.558594 10.6875 35.417969 10.800781 C 35.921875 10.800781 36.421875 10.800781 36.925781 10.800781 C 36.214844 11.277344 35.375 11.445312 34.414062 11.300781 C 34.460938 12.40625 34.625 13.492188 34.917969 14.566406 C 34.734375 15.289062 34.398438 15.875 33.910156 16.324219 C 33.910156 16.828125 33.910156 17.328125 33.910156 17.832031 C 32.996094 16.746094 31.820312 15.992188 30.394531 15.570312 C 24.367188 14.46875 22.691406 16.5625 25.371094 21.851562 C 23.347656 21.671875 21.421875 22.007812 19.59375 22.855469 C 18.816406 22.261719 18.0625 22.34375 17.332031 23.105469 C 17.835938 23.355469 18.335938 23.609375 18.839844 23.859375 C 19.476562 23.394531 20.148438 23.308594 20.847656 23.609375 C 19.945312 23.769531 19.777344 24.101562 20.347656 24.613281 C 19.113281 24.757812 17.941406 25.09375 16.832031 25.617188 C 17.46875 26.242188 17.636719 26.828125 17.332031 27.375 C 17.039062 27.269531 16.785156 27.101562 16.578125 26.875 C 15.730469 27.648438 14.726562 28.152344 13.566406 28.378906 C 12.574219 26.480469 11.988281 26.730469 11.804688 29.132812 C 12.253906 30.609375 12.757812 32.03125 13.3125 33.402344 C 12.308594 32.566406 11.304688 31.730469 10.300781 30.890625 C 10.300781 30.722656 10.300781 30.558594 10.300781 30.390625 C 10.609375 30.332031 10.859375 30.167969 11.050781 29.886719 C 11.078125 26.484375 11.832031 23.304688 13.3125 20.34375 C 14.492188 20.121094 15.496094 19.621094 16.328125 18.835938 C 16.65625 19.132812 16.988281 19.46875 17.332031 19.839844 C 18.371094 17.261719 19.792969 14.917969 21.601562 12.808594 C 21.9375 12.140625 21.9375 11.46875 21.601562 10.800781 C 20.804688 10.125 20.890625 9.453125 21.855469 8.789062 C 22.027344 8.371094 22.359375 8.203125 22.859375 8.289062 Z M 22.859375 8.289062 "/>
<path style=" stroke:none;fill-rule:evenodd;fill:rgb(96.078431%,89.803922%,69.411765%);fill-opacity:1;" d="M 13.3125 20.34375 C 11.832031 23.304688 11.078125 26.484375 11.050781 29.886719 C 10.859375 30.167969 10.609375 30.332031 10.300781 30.390625 C 8.238281 26.046875 9.242188 22.695312 13.3125 20.34375 Z M 13.3125 20.34375 "/>
<path style=" stroke:none;fill-rule:evenodd;fill:rgb(87.843137%,83.137255%,80.392157%);fill-opacity:1;" d="M 70.082031 20.84375 C 72.980469 20.8125 75.824219 21.148438 78.625 21.851562 C 78.652344 22.40625 78.820312 22.910156 79.125 23.355469 C 78.625 23.398438 78.207031 23.234375 77.871094 22.855469 C 77.519531 23.992188 76.933594 24.492188 76.113281 24.363281 C 78.476562 26.222656 80.488281 28.398438 82.140625 30.890625 C 81.746094 33.542969 81.496094 36.222656 81.386719 38.929688 C 81.03125 39.371094 80.613281 39.707031 80.132812 39.933594 C 80.746094 37.855469 80.746094 35.847656 80.132812 33.90625 C 79.800781 31.488281 78.628906 29.5625 76.613281 28.128906 C 73.390625 26.820312 70.042969 25.984375 66.566406 25.617188 C 65.191406 25.101562 64.019531 24.347656 63.050781 23.355469 C 65.457031 22.722656 67.800781 21.886719 70.082031 20.84375 Z M 70.082031 20.84375 "/>
<path style=" stroke:none;fill-rule:evenodd;fill:rgb(65.098039%,33.333333%,5.098039%);fill-opacity:1;" d="M 51.996094 20.84375 C 49.117188 22.035156 46.4375 23.628906 43.960938 25.617188 C 43.644531 27.09375 43.308594 28.515625 42.953125 29.886719 C 42.953125 28.210938 42.953125 26.539062 42.953125 24.863281 C 41.53125 24.222656 40.023438 23.886719 38.433594 23.859375 C 40.222656 22.429688 42.230469 22.097656 44.460938 22.855469 C 45.304688 22.511719 46.140625 22.175781 46.972656 21.851562 C 48.546875 21.085938 50.222656 20.75 51.996094 20.84375 Z M 51.996094 20.84375 "/>
<path style=" stroke:none;fill-rule:evenodd;fill:rgb(1.568627%,1.176471%,1.176471%);fill-opacity:1;" d="M 63.050781 23.355469 C 64.019531 24.347656 65.191406 25.101562 66.566406 25.617188 C 70.042969 25.984375 73.390625 26.820312 76.613281 28.128906 C 78.628906 29.5625 79.800781 31.488281 80.132812 33.90625 C 80.054688 41.992188 76.035156 45.007812 68.074219 42.945312 C 67.238281 42.277344 66.398438 41.609375 65.5625 40.9375 C 62.902344 36.839844 61.730469 32.316406 62.046875 27.375 C 62.046875 26.371094 62.046875 25.367188 62.046875 24.363281 C 62.210938 23.859375 62.546875 23.523438 63.050781 23.355469 Z M 63.050781 23.355469 "/>
<path style=" stroke:none;fill-rule:evenodd;fill:rgb(99.215686%,62.352941%,3.529412%);fill-opacity:1;" d="M 53.503906 13.8125 C 53.542969 15.203125 53.292969 16.542969 52.75 17.832031 C 50.890625 19.308594 48.964844 20.648438 46.972656 21.851562 C 46.140625 22.175781 45.304688 22.511719 44.460938 22.855469 C 42.230469 22.097656 40.222656 22.429688 38.433594 23.859375 C 40.277344 24.808594 40.863281 26.316406 40.191406 28.378906 C 38.121094 29.539062 36.027344 30.628906 33.910156 31.644531 C 33.191406 32.785156 33.359375 33.789062 34.414062 34.660156 C 35.398438 35.125 36.402344 35.546875 37.429688 35.914062 C 37.59375 36.332031 37.761719 36.75 37.929688 37.171875 C 36.171875 39.589844 34.578125 42.1875 33.15625 44.957031 C 32.910156 45.777344 32.828125 46.613281 32.90625 47.46875 C 34.550781 48.402344 36.390625 49.070312 38.433594 49.476562 C 38.773438 51.371094 38.105469 52.796875 36.421875 53.746094 C 34.125 55.132812 31.777344 56.390625 29.390625 57.515625 C 27.519531 58.125 25.59375 58.460938 23.613281 58.519531 C 22.460938 58.496094 21.539062 58.160156 20.847656 57.515625 C 22.601562 56.84375 24.195312 55.835938 25.621094 54.5 C 25.867188 53.851562 25.953125 53.179688 25.875 52.492188 C 24.609375 52.363281 23.4375 51.945312 22.355469 51.234375 C 26.347656 50.453125 29.445312 48.363281 31.652344 44.957031 C 31.898438 43.964844 31.984375 42.960938 31.902344 41.941406 C 30.035156 41.902344 28.195312 42.070312 26.375 42.445312 C 27.570312 39.886719 28.910156 37.375 30.394531 34.910156 C 30.558594 33.671875 30.640625 32.332031 30.644531 30.890625 C 31.59375 30.3125 32.011719 29.476562 31.902344 28.378906 C 32.40625 28.378906 32.90625 28.378906 33.410156 28.378906 C 33.945312 26.992188 34.449219 25.570312 34.917969 24.109375 C 34.632812 23.269531 34.132812 22.597656 33.410156 22.101562 C 33.9375 21.539062 34.523438 21.289062 35.167969 21.347656 C 35.476562 20.871094 35.394531 20.453125 34.917969 20.09375 C 35.351562 19.519531 35.851562 18.851562 36.421875 18.082031 C 38.226562 17.980469 39.984375 17.726562 41.699219 17.328125 C 44.570312 18.921875 46.832031 18.25 48.480469 15.320312 C 49.367188 14.9375 49.867188 14.269531 49.988281 13.3125 C 51.351562 13.035156 52.105469 12.199219 52.25 10.800781 C 52.535156 11.875 52.957031 12.878906 53.503906 13.8125 Z M 53.503906 13.8125 "/>
<path style=" stroke:none;fill-rule:evenodd;fill:rgb(94.901961%,81.176471%,41.960784%);fill-opacity:1;" d="M 25.371094 21.851562 C 25.875 21.851562 26.375 21.851562 26.878906 21.851562 C 25.597656 22.09375 24.425781 22.59375 23.359375 23.355469 C 26.035156 24.652344 28.882812 25.40625 31.902344 25.617188 C 32.527344 26.367188 32.527344 27.121094 31.902344 27.878906 C 30.707031 28.667969 29.367188 29.085938 27.882812 29.132812 C 24.21875 29.695312 20.535156 29.945312 16.832031 29.886719 C 16.320312 32.054688 17.160156 33.226562 19.34375 33.402344 C 20.636719 33.769531 21.976562 34.019531 23.359375 34.15625 C 22.902344 34.296875 22.566406 34.546875 22.355469 34.910156 C 20.683594 34.910156 19.007812 34.910156 17.332031 34.910156 C 15.75 34.953125 14.410156 34.449219 13.3125 33.402344 C 12.757812 32.03125 12.253906 30.609375 11.804688 29.132812 C 11.988281 26.730469 12.574219 26.480469 13.566406 28.378906 C 14.726562 28.152344 15.730469 27.648438 16.578125 26.875 C 16.785156 27.101562 17.039062 27.269531 17.332031 27.375 C 17.636719 26.828125 17.46875 26.242188 16.832031 25.617188 C 17.941406 25.09375 19.113281 24.757812 20.347656 24.613281 C 19.777344 24.101562 19.945312 23.769531 20.847656 23.609375 C 20.148438 23.308594 19.476562 23.394531 18.839844 23.859375 C 18.335938 23.609375 17.835938 23.355469 17.332031 23.105469 C 18.0625 22.34375 18.816406 22.261719 19.59375 22.855469 C 21.421875 22.007812 23.347656 21.671875 25.371094 21.851562 Z M 25.371094 21.851562 "/>
<path style=" stroke:none;fill-rule:evenodd;fill:rgb(76.078431%,69.019608%,63.529412%);fill-opacity:1;" d="M 97.214844 34.910156 C 94.933594 34.875 92.757812 35.210938 90.683594 35.914062 C 89.828125 34.128906 90.328125 32.707031 92.1875 31.644531 C 93.75 30.707031 95.421875 30.121094 97.214844 29.886719 C 97.214844 31.5625 97.214844 33.234375 97.214844 34.910156 Z M 97.214844 34.910156 "/>
<path style=" stroke:none;fill-rule:evenodd;fill:rgb(78.823529%,48.235294%,6.666667%);fill-opacity:1;" d="M 28.386719 32.902344 C 26.558594 34.125 24.546875 34.960938 22.355469 35.414062 C 22.355469 35.246094 22.355469 35.078125 22.355469 34.910156 C 22.566406 34.546875 22.902344 34.296875 23.359375 34.15625 C 21.976562 34.019531 20.636719 33.769531 19.34375 33.402344 C 22.390625 33.222656 24.398438 32.71875 25.371094 31.894531 C 26.207031 31.980469 27.046875 32.0625 27.882812 32.148438 C 28.160156 32.339844 28.328125 32.589844 28.386719 32.902344 Z M 28.386719 32.902344 "/>
<path style=" stroke:none;fill-rule:evenodd;fill:rgb(49.411765%,33.72549%,15.294118%);fill-opacity:1;" d="M 17.332031 34.910156 C 19.007812 34.910156 20.683594 34.910156 22.355469 34.910156 C 22.355469 35.078125 22.355469 35.246094 22.355469 35.414062 C 19.019531 35.769531 15.671875 35.9375 12.308594 35.914062 C 13.984375 35.578125 15.65625 35.246094 17.332031 34.910156 Z M 17.332031 34.910156 "/>
<path style=" stroke:none;fill-rule:evenodd;fill:rgb(27.843137%,21.960784%,19.607843%);fill-opacity:1;" d="M 97.214844 34.910156 C 97.15625 35.21875 96.988281 35.472656 96.710938 35.664062 C 95.203125 35.914062 93.695312 36.164062 92.1875 36.417969 C 91.574219 36.40625 91.070312 36.238281 90.683594 35.914062 C 92.757812 35.210938 94.933594 34.875 97.214844 34.910156 Z M 97.214844 34.910156 "/>
<use xlink:href="#surface11" mask="url(#mask2)"/>
<path style=" stroke:none;fill-rule:evenodd;fill:rgb(78.039216%,72.54902%,69.803922%);fill-opacity:1;" d="M 78.625 21.851562 C 87.515625 23.882812 90.359375 29.242188 87.164062 37.925781 C 88.117188 38.410156 89.121094 38.578125 90.179688 38.425781 C 90.179688 39.429688 90.179688 40.433594 90.179688 41.441406 C 89.183594 41.269531 88.511719 41.601562 88.167969 42.445312 C 86.570312 41.808594 85.734375 40.632812 85.65625 38.929688 C 86.222656 35.789062 86.304688 32.605469 85.910156 29.386719 C 84.5 26.382812 82.238281 24.375 79.125 23.355469 C 78.820312 22.910156 78.652344 22.40625 78.625 21.851562 Z M 78.625 21.851562 "/>
<use xlink:href="#surface14" mask="url(#mask3)"/>
<path style=" stroke:none;fill-rule:evenodd;fill:rgb(87.843137%,84.313725%,81.176471%);fill-opacity:1;" d="M 62.046875 24.363281 C 62.046875 25.367188 62.046875 26.371094 62.046875 27.375 C 59.609375 26.460938 57.097656 26.210938 54.507812 26.621094 C 53.589844 26.875 53.003906 27.460938 52.75 28.378906 C 51.632812 31.308594 51.296875 34.320312 51.746094 37.421875 C 52.25 38.257812 52.75 39.097656 53.253906 39.933594 C 53.589844 43.113281 53.589844 46.296875 53.253906 49.476562 C 52.921875 50.394531 52.335938 51.0625 51.496094 51.484375 C 50.125 50.824219 48.699219 50.824219 47.226562 51.484375 C 47.140625 50.148438 47.058594 48.808594 46.972656 47.46875 C 47.628906 41.097656 48.382812 34.734375 49.234375 28.378906 C 50.109375 26.703125 51.199219 25.195312 52.5 23.859375 C 54.789062 23.726562 57.046875 23.394531 59.28125 22.855469 C 60.640625 22.664062 61.5625 23.167969 62.046875 24.363281 Z M 62.046875 24.363281 "/>
<use xlink:href="#surface17" mask="url(#mask4)"/>
<path style=" stroke:none;fill-rule:evenodd;fill:rgb(79.607843%,71.764706%,68.627451%);fill-opacity:1;" d="M 95.707031 38.425781 C 95.707031 39.429688 95.707031 40.433594 95.707031 41.441406 C 94.367188 41.441406 93.027344 41.441406 91.6875 41.441406 C 91.6875 40.433594 91.6875 39.429688 91.6875 38.425781 C 93.027344 38.425781 94.367188 38.425781 95.707031 38.425781 Z M 95.707031 38.425781 "/>
<path style=" stroke:none;fill-rule:evenodd;fill:rgb(82.352941%,74.901961%,72.941176%);fill-opacity:1;" d="M 99.726562 38.425781 C 99.890625 38.425781 100.058594 38.425781 100.226562 38.425781 C 100.648438 39.371094 100.816406 40.375 100.730469 41.441406 C 99.558594 41.441406 98.386719 41.441406 97.214844 41.441406 C 97.214844 40.433594 97.214844 39.429688 97.214844 38.425781 C 98.050781 38.425781 98.886719 38.425781 99.726562 38.425781 Z M 99.726562 38.425781 "/>
<path style=" stroke:none;fill-rule:evenodd;fill:rgb(84.705882%,46.666667%,9.019608%);fill-opacity:1;" d="M 38.433594 23.859375 C 40.023438 23.886719 41.53125 24.222656 42.953125 24.863281 C 42.953125 26.539062 42.953125 28.210938 42.953125 29.886719 C 41.613281 31.058594 40.273438 32.230469 38.933594 33.402344 C 38.167969 33.707031 37.667969 34.292969 37.429688 35.160156 C 38.234375 35.296875 38.984375 35.550781 39.6875 35.914062 C 40.03125 38.578125 39.527344 41.089844 38.183594 43.449219 C 38.054688 42.882812 37.804688 42.382812 37.429688 41.941406 C 37.046875 43.292969 36.710938 44.632812 36.421875 45.960938 C 35.4375 46.871094 34.265625 47.375 32.90625 47.46875 C 32.828125 46.613281 32.910156 45.777344 33.15625 44.957031 C 34.578125 42.1875 36.171875 39.589844 37.929688 37.171875 C 37.761719 36.75 37.59375 36.332031 37.429688 35.914062 C 36.402344 35.546875 35.398438 35.125 34.414062 34.660156 C 33.359375 33.789062 33.191406 32.785156 33.910156 31.644531 C 36.027344 30.628906 38.121094 29.539062 40.191406 28.378906 C 40.863281 26.316406 40.277344 24.808594 38.433594 23.859375 Z M 38.433594 23.859375 "/>
<path style=" stroke:none;fill-rule:evenodd;fill:rgb(5.490196%,3.137255%,2.745098%);fill-opacity:1;" d="M 57.523438 19.839844 C 59.128906 20.097656 60.71875 20.433594 62.296875 20.84375 C 63.550781 20.636719 64.808594 20.46875 66.066406 20.34375 C 65.511719 20.875 64.839844 21.292969 64.054688 21.597656 C 66.066406 21.519531 68.074219 21.265625 70.082031 20.84375 C 67.800781 21.886719 65.457031 22.722656 63.050781 23.355469 C 62.546875 23.523438 62.210938 23.859375 62.046875 24.363281 C 61.5625 23.167969 60.640625 22.664062 59.28125 22.855469 C 57.046875 23.394531 54.789062 23.726562 52.5 23.859375 C 48.832031 25.179688 46.320312 27.691406 44.964844 31.394531 C 44.058594 32.191406 43.386719 33.195312 42.953125 34.40625 C 43.515625 37.058594 43.601562 39.738281 43.207031 42.445312 C 41.878906 45.851562 41.628906 49.371094 42.453125 52.992188 C 40.933594 54.945312 41.183594 56.621094 43.207031 58.015625 C 43.503906 59.621094 43.417969 61.210938 42.953125 62.789062 C 43.054688 63.847656 43.390625 64.769531 43.960938 65.550781 C 43.875 67.234375 43.960938 68.90625 44.210938 70.574219 C 45.726562 72.054688 46.394531 73.894531 46.21875 76.097656 C 47.59375 78.230469 49.355469 79.902344 51.496094 81.121094 C 50.574219 81.191406 50.40625 81.527344 50.992188 82.125 C 52.421875 82.734375 53.757812 83.402344 55.011719 84.136719 C 53.148438 83.839844 51.308594 83.507812 49.484375 83.132812 C 47.835938 82.152344 46.328125 80.980469 44.964844 79.613281 C 44.609375 79.160156 44.105469 78.992188 43.457031 79.113281 C 43.539062 77.429688 43.457031 75.757812 43.207031 74.089844 C 41.46875 73.265625 39.878906 72.261719 38.433594 71.074219 C 41.171875 68.824219 41.675781 66.144531 39.941406 63.039062 C 39.984375 62.171875 40.152344 61.335938 40.441406 60.527344 C 38.96875 59.867188 37.460938 59.28125 35.921875 58.769531 C 39.347656 56.027344 40.4375 52.59375 39.1875 48.472656 C 38.277344 47.566406 37.355469 46.730469 36.421875 45.960938 C 37.363281 45.78125 38.117188 45.277344 38.683594 44.453125 C 39.636719 42.886719 40.304688 41.214844 40.695312 39.429688 C 41.378906 37.03125 40.625 35.273438 38.433594 34.15625 C 38.710938 33.964844 38.878906 33.714844 38.933594 33.402344 C 40.273438 32.230469 41.613281 31.058594 42.953125 29.886719 C 43.308594 28.515625 43.644531 27.09375 43.960938 25.617188 C 46.4375 23.628906 49.117188 22.035156 51.996094 20.84375 C 53.699219 19.980469 55.542969 19.648438 57.523438 19.839844 Z M 57.523438 19.839844 "/>
<path style=" stroke:none;fill-rule:evenodd;fill:rgb(91.372549%,87.058824%,83.921569%);fill-opacity:1;" d="M 85.65625 38.929688 C 85.734375 40.632812 86.570312 41.808594 88.167969 42.445312 C 88.503906 42.445312 88.839844 42.445312 89.175781 42.445312 C 90.019531 43.546875 90.519531 44.804688 90.683594 46.210938 C 90.609375 47.195312 90.191406 47.949219 89.425781 48.472656 C 89.074219 49.691406 89.15625 50.863281 89.675781 51.988281 C 89.675781 53.160156 89.675781 54.332031 89.675781 55.503906 C 88.839844 55.503906 88.003906 55.503906 87.164062 55.503906 C 86.464844 54.394531 85.460938 53.640625 84.152344 53.246094 C 85.457031 52.800781 86.546875 52.046875 87.417969 50.984375 C 87.773438 50.046875 87.523438 49.292969 86.664062 48.722656 C 83.203125 48.527344 80.1875 49.613281 77.621094 51.988281 C 77.253906 50.519531 77.675781 49.179688 78.875 47.96875 C 79.085938 48.558594 79.421875 49.0625 79.878906 49.476562 C 81.171875 48.546875 82.511719 47.710938 83.898438 46.964844 C 85.265625 44.457031 85.851562 41.777344 85.65625 38.929688 Z M 85.65625 38.929688 "/>
<path style=" stroke:none;fill-rule:evenodd;fill:rgb(83.921569%,78.823529%,76.470588%);fill-opacity:1;" d="M 99.222656 43.449219 C 101.558594 43.789062 102.3125 45.128906 101.484375 47.46875 C 100.925781 48.238281 100.171875 48.574219 99.222656 48.472656 C 99.222656 46.796875 99.222656 45.125 99.222656 43.449219 Z M 99.222656 43.449219 "/>
<path style=" stroke:none;fill-rule:evenodd;fill:rgb(96.078431%,80%,39.607843%);fill-opacity:1;" d="M 28.386719 32.902344 C 29.558594 33.066406 30.226562 33.738281 30.394531 34.910156 C 28.910156 37.375 27.570312 39.886719 26.375 42.445312 C 28.195312 42.070312 30.035156 41.902344 31.902344 41.941406 C 31.984375 42.960938 31.898438 43.964844 31.652344 44.957031 C 29.445312 48.363281 26.347656 50.453125 22.355469 51.234375 C 23.4375 51.945312 24.609375 52.363281 25.875 52.492188 C 25.953125 53.179688 25.867188 53.851562 25.621094 54.5 C 24.195312 55.835938 22.601562 56.84375 20.847656 57.515625 C 17.691406 58.105469 14.507812 58.609375 11.304688 59.019531 C 10.878906 59.980469 10.710938 60.984375 10.800781 62.035156 C 11.640625 62.035156 12.476562 62.035156 13.3125 62.035156 C 11.972656 62.703125 10.632812 62.703125 9.292969 62.035156 C 9.074219 61.242188 8.574219 60.65625 7.785156 60.277344 C 8.121094 59.941406 8.457031 59.605469 8.792969 59.273438 C 8.019531 58.714844 7.683594 57.960938 7.785156 57.011719 C 10.433594 56.015625 13.113281 55.347656 15.824219 55.003906 C 15.992188 55.003906 16.160156 55.003906 16.328125 55.003906 C 17.179688 55.082031 18.019531 55 18.839844 54.75 C 19.597656 54.332031 19.847656 53.746094 19.59375 52.992188 C 17.589844 50.910156 15.164062 49.574219 12.308594 48.976562 C 12.226562 47.289062 11.222656 46.203125 9.292969 45.710938 C 9.964844 45.375 10.632812 45.039062 11.304688 44.703125 C 11.1875 44.503906 11.023438 44.421875 10.800781 44.453125 C 13.578125 43.960938 16.425781 43.875 19.34375 44.203125 C 18.730469 43.328125 17.894531 42.828125 16.832031 42.695312 C 14.527344 42.597656 12.265625 42.34375 10.046875 41.941406 C 8.699219 39.113281 9.453125 37.105469 12.308594 35.914062 C 15.671875 35.9375 19.019531 35.769531 22.355469 35.414062 C 24.546875 34.960938 26.558594 34.125 28.386719 32.902344 Z M 28.386719 32.902344 "/>
<path style=" stroke:none;fill-rule:evenodd;fill:rgb(97.254902%,94.901961%,89.411765%);fill-opacity:1;" d="M 62.046875 27.375 C 61.730469 32.316406 62.902344 36.839844 65.5625 40.9375 C 69.144531 48.28125 69.480469 55.816406 66.566406 63.542969 C 62.425781 68.101562 60.917969 73.460938 62.046875 79.613281 C 58.851562 79.558594 55.835938 78.804688 53.003906 77.355469 C 50.160156 73.777344 48.820312 69.675781 48.984375 65.046875 C 49.03125 60.363281 49.867188 55.84375 51.496094 51.484375 C 52.335938 51.0625 52.921875 50.394531 53.253906 49.476562 C 53.589844 46.296875 53.589844 43.113281 53.253906 39.933594 C 52.75 39.097656 52.25 38.257812 51.746094 37.421875 C 51.296875 34.320312 51.632812 31.308594 52.75 28.378906 C 53.003906 27.460938 53.589844 26.875 54.507812 26.621094 C 57.097656 26.210938 59.609375 26.460938 62.046875 27.375 Z M 62.046875 27.375 "/>
<path style=" stroke:none;fill-rule:evenodd;fill:rgb(87.058824%,82.352941%,79.607843%);fill-opacity:1;" d="M 94.199219 42.945312 C 97.761719 42.789062 98.933594 44.378906 97.714844 47.71875 C 96.554688 47.96875 95.382812 48.050781 94.199219 47.96875 C 94.199219 46.296875 94.199219 44.621094 94.199219 42.945312 Z M 94.199219 42.945312 "/>
<path style=" stroke:none;fill-rule:evenodd;fill:rgb(3.529412%,2.745098%,1.960784%);fill-opacity:1;" d="M 87.164062 55.503906 C 87.546875 57.382812 86.792969 58.21875 84.90625 58.015625 C 82.441406 57.660156 80.179688 56.824219 78.121094 55.503906 C 77.066406 54.457031 76.898438 53.285156 77.621094 51.988281 C 80.1875 49.613281 83.203125 48.527344 86.664062 48.722656 C 87.523438 49.292969 87.773438 50.046875 87.417969 50.984375 C 86.546875 52.046875 85.457031 52.800781 84.152344 53.246094 C 85.460938 53.640625 86.464844 54.394531 87.164062 55.503906 Z M 87.164062 55.503906 "/>
<path style=" stroke:none;fill-rule:evenodd;fill:rgb(90.588235%,85.098039%,82.352941%);fill-opacity:1;" d="M 65.5625 40.9375 C 66.398438 41.609375 67.238281 42.277344 68.074219 42.945312 C 69.042969 44.839844 70.46875 46.347656 72.34375 47.46875 C 72.761719 50.851562 72.59375 54.199219 71.84375 57.515625 C 70.617188 59.132812 69.53125 60.804688 68.578125 62.535156 C 68.019531 63.089844 67.351562 63.425781 66.566406 63.542969 C 69.480469 55.816406 69.144531 48.28125 65.5625 40.9375 Z M 65.5625 40.9375 "/>
<path style=" stroke:none;fill-rule:evenodd;fill:rgb(95.686275%,83.529412%,49.411765%);fill-opacity:1;" d="M 10.800781 44.453125 C 11.023438 44.421875 11.1875 44.503906 11.304688 44.703125 C 10.632812 45.039062 9.964844 45.375 9.292969 45.710938 C 11.222656 46.203125 12.226562 47.289062 12.308594 48.976562 C 15.164062 49.574219 17.589844 50.910156 19.59375 52.992188 C 19.847656 53.746094 19.597656 54.332031 18.839844 54.75 C 18.019531 55 17.179688 55.082031 16.328125 55.003906 C 17.019531 54.632812 17.773438 54.296875 18.589844 53.996094 C 18.84375 53.246094 18.59375 52.660156 17.835938 52.238281 C 15.796875 51.199219 13.621094 50.613281 11.304688 50.480469 C 10.632812 54.164062 12.140625 55.671875 15.824219 55.003906 C 13.113281 55.347656 10.433594 56.015625 7.785156 57.011719 C 7.683594 57.960938 8.019531 58.714844 8.792969 59.273438 C 8.457031 59.605469 8.121094 59.941406 7.785156 60.277344 C 8.574219 60.65625 9.074219 61.242188 9.292969 62.035156 C 8.128906 61.789062 7.125 61.285156 6.28125 60.527344 C 6.054688 56.410156 6.054688 52.308594 6.28125 48.222656 C 6.363281 47.800781 6.449219 47.382812 6.53125 46.964844 C 7.292969 46.632812 7.878906 46.128906 8.289062 45.457031 C 8.933594 44.738281 9.769531 44.40625 10.800781 44.453125 Z M 10.800781 44.453125 "/>
<path style=" stroke:none;fill-rule:evenodd;fill:rgb(94.117647%,86.666667%,63.921569%);fill-opacity:1;" d="M 8.289062 45.457031 C 7.878906 46.128906 7.292969 46.632812 6.53125 46.964844 C 6.449219 47.382812 6.363281 47.800781 6.28125 48.222656 C 6.054688 52.308594 6.054688 56.410156 6.28125 60.527344 C 5.105469 59.773438 4.183594 58.765625 3.515625 57.515625 C 1.332031 52.007812 2.921875 47.988281 8.289062 45.457031 Z M 8.289062 45.457031 "/>
<path style=" stroke:none;fill-rule:evenodd;fill:rgb(68.627451%,61.568627%,56.078431%);fill-opacity:1;" d="M 89.175781 42.445312 C 90.148438 42.628906 91.070312 42.964844 91.9375 43.449219 C 91.835938 49.46875 91.75 55.496094 91.6875 61.53125 C 90.785156 58.726562 90.367188 55.714844 90.429688 52.492188 C 90.238281 52.210938 89.988281 52.042969 89.675781 51.988281 C 89.15625 50.863281 89.074219 49.691406 89.425781 48.472656 C 90.191406 47.949219 90.609375 47.195312 90.683594 46.210938 C 90.519531 44.804688 90.019531 43.546875 89.175781 42.445312 Z M 89.175781 42.445312 "/>
<path style=" stroke:none;fill-rule:evenodd;fill:rgb(60.392157%,65.098039%,64.705882%);fill-opacity:1;" d="M 44.964844 31.394531 C 45.046875 33.242188 44.964844 35.085938 44.714844 36.917969 C 44.546875 36.585938 44.378906 36.25 44.210938 35.914062 C 43.988281 39.507812 44.40625 43.027344 45.464844 46.464844 C 45.191406 47.101562 45.023438 47.773438 44.964844 48.472656 C 46.570312 54.316406 46.234375 60.007812 43.960938 65.550781 C 43.390625 64.769531 43.054688 63.847656 42.953125 62.789062 C 43.417969 61.210938 43.503906 59.621094 43.207031 58.015625 C 41.183594 56.621094 40.933594 54.945312 42.453125 52.992188 C 41.628906 49.371094 41.878906 45.851562 43.207031 42.445312 C 43.601562 39.738281 43.515625 37.058594 42.953125 34.40625 C 43.386719 33.195312 44.058594 32.191406 44.964844 31.394531 Z M 44.964844 31.394531 "/>
<path style=" stroke:none;fill-rule:evenodd;fill:rgb(83.921569%,78.431373%,73.72549%);fill-opacity:1;" d="M 93.695312 49.980469 C 95.175781 49.839844 96.601562 50.007812 97.964844 50.480469 C 99.429688 54.90625 98.007812 56.410156 93.695312 55.003906 C 93.03125 53.3125 93.03125 51.636719 93.695312 49.980469 Z M 93.695312 49.980469 "/>
<path style=" stroke:none;fill-rule:evenodd;fill:rgb(96.078431%,89.803922%,73.72549%);fill-opacity:1;" d="M 16.328125 55.003906 C 16.160156 55.003906 15.992188 55.003906 15.824219 55.003906 C 12.140625 55.671875 10.632812 54.164062 11.304688 50.480469 C 13.621094 50.613281 15.796875 51.199219 17.835938 52.238281 C 18.59375 52.660156 18.84375 53.246094 18.589844 53.996094 C 17.773438 54.296875 17.019531 54.632812 16.328125 55.003906 Z M 16.328125 55.003906 "/>
<path style=" stroke:none;fill-rule:evenodd;fill:rgb(84.705882%,80%,76.862745%);fill-opacity:1;" d="M 99.222656 49.980469 C 101.011719 50.011719 101.847656 50.933594 101.734375 52.742188 C 101.847656 54.550781 101.011719 55.472656 99.222656 55.503906 C 99.222656 53.664062 99.222656 51.820312 99.222656 49.980469 Z M 99.222656 49.980469 "/>
<path style=" stroke:none;fill-rule:evenodd;fill:rgb(89.019608%,54.117647%,13.72549%);fill-opacity:1;" d="M 20.847656 57.515625 C 21.539062 58.160156 22.460938 58.496094 23.613281 58.519531 C 25.59375 58.460938 27.519531 58.125 29.390625 57.515625 C 28.273438 58.257812 27.101562 58.925781 25.875 59.523438 C 24.09375 59.367188 22.417969 59.535156 20.847656 60.023438 C 18.449219 61.085938 15.9375 61.753906 13.3125 62.035156 C 12.476562 62.035156 11.640625 62.035156 10.800781 62.035156 C 10.710938 60.984375 10.878906 59.980469 11.304688 59.019531 C 14.507812 58.609375 17.691406 58.105469 20.847656 57.515625 Z M 20.847656 57.515625 "/>
<path style=" stroke:none;fill-rule:evenodd;fill:rgb(84.313725%,78.431373%,73.72549%);fill-opacity:1;" d="M 89.675781 51.988281 C 89.988281 52.042969 90.238281 52.210938 90.429688 52.492188 C 90.367188 55.714844 90.785156 58.726562 91.6875 61.53125 C 90.683594 61.859375 89.679688 62.277344 88.671875 62.789062 C 89.464844 63.144531 90.21875 63.5625 90.933594 64.042969 C 92.023438 67.558594 90.769531 68.898438 87.164062 68.0625 C 87.859375 70.890625 88.277344 73.734375 88.421875 76.601562 C 87.789062 78.988281 86.367188 80.664062 84.152344 81.625 C 85.652344 76.367188 85.484375 71.175781 83.648438 66.054688 C 84.453125 64.628906 84.703125 63.121094 84.402344 61.53125 C 82.019531 59.734375 79.925781 57.726562 78.121094 55.503906 C 80.179688 56.824219 82.441406 57.660156 84.90625 58.015625 C 86.792969 58.21875 87.546875 57.382812 87.164062 55.503906 C 88.003906 55.503906 88.839844 55.503906 89.675781 55.503906 C 89.675781 54.332031 89.675781 53.160156 89.675781 51.988281 Z M 89.675781 51.988281 "/>
<path style=" stroke:none;fill-rule:evenodd;fill:rgb(76.470588%,72.941176%,70.980392%);fill-opacity:1;" d="M 99.222656 57.011719 C 100.773438 56.96875 101.609375 57.722656 101.734375 59.273438 C 101.609375 61.15625 100.605469 62.074219 98.71875 62.035156 C 98.640625 60.324219 98.808594 58.652344 99.222656 57.011719 Z M 99.222656 57.011719 "/>
<path style=" stroke:none;fill-rule:evenodd;fill:rgb(83.137255%,78.039216%,74.901961%);fill-opacity:1;" d="M 94.199219 57.011719 C 95.382812 56.929688 96.554688 57.011719 97.714844 57.261719 C 99.050781 61.039062 97.710938 62.628906 93.695312 62.035156 C 93.570312 60.308594 93.738281 58.632812 94.199219 57.011719 Z M 94.199219 57.011719 "/>
<path style=" stroke:none;fill-rule:evenodd;fill:rgb(68.235294%,43.921569%,13.72549%);fill-opacity:1;" d="M 20.847656 60.023438 C 22.417969 59.535156 24.09375 59.367188 25.875 59.523438 C 27.679688 59.945312 29.523438 60.113281 31.398438 60.023438 C 31.535156 60.828125 31.367188 61.5 30.898438 62.035156 C 30.226562 62.035156 29.558594 62.035156 28.886719 62.035156 C 28.050781 62.035156 27.214844 62.035156 26.375 62.035156 C 27.445312 61.625 28.617188 61.375 29.890625 61.28125 C 26.96875 60.246094 23.953125 59.828125 20.847656 60.023438 Z M 20.847656 60.023438 "/>
<path style=" stroke:none;fill-rule:evenodd;fill:rgb(1.176471%,0.784314%,0.784314%);fill-opacity:1;" d="M 68.578125 62.535156 C 76.539062 61.710938 80.308594 65.226562 79.878906 73.085938 C 79.191406 75.277344 77.933594 77.035156 76.113281 78.359375 C 72.101562 79.542969 68.082031 80.632812 64.054688 81.625 C 63.550781 81.625 63.050781 81.625 62.546875 81.625 C 62.078125 81.089844 61.910156 80.417969 62.046875 79.613281 C 60.917969 73.460938 62.425781 68.101562 66.566406 63.542969 C 67.351562 63.425781 68.019531 63.089844 68.578125 62.535156 Z M 68.578125 62.535156 "/>
<path style=" stroke:none;fill-rule:evenodd;fill:rgb(76.470588%,72.54902%,70.196078%);fill-opacity:1;" d="M 92.691406 64.042969 C 93.695312 64.042969 94.699219 64.042969 95.707031 64.042969 C 96.375 67.058594 95.203125 68.230469 92.1875 67.558594 C 92.164062 66.351562 92.332031 65.179688 92.691406 64.042969 Z M 92.691406 64.042969 "/>
<path style=" stroke:none;fill-rule:evenodd;fill:rgb(78.823529%,74.117647%,72.54902%);fill-opacity:1;" d="M 96.710938 64.042969 C 98.050781 64.042969 99.390625 64.042969 100.730469 64.042969 C 100.992188 67.050781 99.738281 68.054688 96.960938 67.058594 C 96.714844 66.066406 96.628906 65.0625 96.710938 64.042969 Z M 96.710938 64.042969 "/>
<path style=" stroke:none;fill-rule:evenodd;fill:rgb(98.039216%,63.529412%,11.764706%);fill-opacity:1;" d="M 28.886719 62.035156 C 29.558594 62.035156 30.226562 62.035156 30.898438 62.035156 C 31.253906 62.488281 31.753906 62.65625 32.40625 62.535156 C 33.375 62.402344 34.210938 62.652344 34.917969 63.289062 C 34.632812 64.121094 33.960938 64.957031 32.90625 65.800781 C 33.242188 65.96875 33.578125 66.136719 33.910156 66.304688 C 32.660156 68.117188 31.738281 70.042969 31.148438 72.082031 C 30.492188 72.375 29.90625 72.710938 29.390625 73.085938 C 28.886719 73.085938 28.386719 73.085938 27.882812 73.085938 C 27.933594 71.980469 28.269531 70.972656 28.886719 70.070312 C 29.054688 69.570312 29.390625 69.234375 29.890625 69.066406 C 30.757812 68.4375 30.925781 67.683594 30.394531 66.804688 C 28.628906 66.023438 26.785156 65.601562 24.867188 65.550781 C 24.867188 65.046875 24.867188 64.546875 24.867188 64.042969 C 24.277344 64.152344 23.777344 63.988281 23.359375 63.542969 C 23.527344 63.375 23.695312 63.207031 23.863281 63.039062 C 25.609375 62.738281 27.28125 62.402344 28.886719 62.035156 Z M 28.886719 62.035156 "/>
<path style=" stroke:none;fill-rule:evenodd;fill:rgb(96.078431%,78.431373%,38.431373%);fill-opacity:1;" d="M 26.375 62.035156 C 27.214844 62.035156 28.050781 62.035156 28.886719 62.035156 C 27.28125 62.402344 25.609375 62.738281 23.863281 63.039062 C 23.695312 63.207031 23.527344 63.375 23.359375 63.542969 C 23.777344 63.988281 24.277344 64.152344 24.867188 64.042969 C 24.867188 64.546875 24.867188 65.046875 24.867188 65.550781 C 26.785156 65.601562 28.628906 66.023438 30.394531 66.804688 C 30.925781 67.683594 30.757812 68.4375 29.890625 69.066406 C 29.890625 68.566406 29.890625 68.0625 29.890625 67.558594 C 27.746094 67.675781 25.738281 68.261719 23.863281 69.316406 C 19.832031 70.6875 17.320312 69.347656 16.328125 65.300781 C 16.558594 64.324219 17.058594 63.570312 17.835938 63.039062 C 18.390625 62.640625 19.0625 62.390625 19.84375 62.285156 C 22.015625 62.035156 24.191406 61.953125 26.375 62.035156 Z M 26.375 62.035156 "/>
<path style=" stroke:none;fill-rule:evenodd;fill:rgb(99.215686%,58.431373%,7.058824%);fill-opacity:1;" d="M 32.40625 62.535156 C 37.617188 61.363281 39.207031 63.371094 37.175781 68.566406 C 35.558594 70.015625 33.800781 71.269531 31.902344 72.332031 C 34.550781 72.691406 36.976562 73.613281 39.1875 75.09375 C 39.203125 76.6875 38.449219 77.859375 36.925781 78.609375 C 36.164062 78.152344 35.324219 77.734375 34.414062 77.355469 C 37.382812 77.261719 37.550781 76.757812 34.917969 75.847656 C 35.082031 75.679688 35.25 75.511719 35.417969 75.34375 C 33.667969 73.882812 31.65625 73.128906 29.390625 73.085938 C 29.90625 72.710938 30.492188 72.375 31.148438 72.082031 C 31.738281 70.042969 32.660156 68.117188 33.910156 66.304688 C 33.578125 66.136719 33.242188 65.96875 32.90625 65.800781 C 33.960938 64.957031 34.632812 64.121094 34.917969 63.289062 C 34.210938 62.652344 33.375 62.402344 32.40625 62.535156 Z M 32.40625 62.535156 "/>
<path style=" stroke:none;fill-rule:evenodd;fill:rgb(74.509804%,75.686275%,73.72549%);fill-opacity:1;" d="M 52.5 23.859375 C 51.199219 25.195312 50.109375 26.703125 49.234375 28.378906 C 48.382812 34.734375 47.628906 41.097656 46.972656 47.46875 C 47.058594 48.808594 47.140625 50.148438 47.226562 51.484375 C 48.699219 50.824219 50.125 50.824219 51.496094 51.484375 C 49.867188 55.84375 49.03125 60.363281 48.984375 65.046875 C 48.820312 69.675781 50.160156 73.777344 53.003906 77.355469 C 55.835938 78.804688 58.851562 79.558594 62.046875 79.613281 C 61.910156 80.417969 62.078125 81.089844 62.546875 81.625 C 61.652344 82.105469 60.648438 82.4375 59.535156 82.628906 C 58.285156 81.640625 56.859375 80.96875 55.261719 80.621094 C 54.027344 80.949219 52.769531 81.117188 51.496094 81.121094 C 49.355469 79.902344 47.59375 78.230469 46.21875 76.097656 C 46.394531 73.894531 45.726562 72.054688 44.210938 70.574219 C 43.960938 68.90625 43.875 67.234375 43.960938 65.550781 C 46.234375 60.007812 46.570312 54.316406 44.964844 48.472656 C 45.023438 47.773438 45.191406 47.101562 45.464844 46.464844 C 44.40625 43.027344 43.988281 39.507812 44.210938 35.914062 C 44.378906 36.25 44.546875 36.585938 44.714844 36.917969 C 44.964844 35.085938 45.046875 33.242188 44.964844 31.394531 C 46.320312 27.691406 48.832031 25.179688 52.5 23.859375 Z M 52.5 23.859375 "/>
<path style=" stroke:none;fill-rule:evenodd;fill:rgb(96.078431%,84.313725%,51.764706%);fill-opacity:1;" d="M 17.835938 63.039062 C 17.058594 63.570312 16.558594 64.324219 16.328125 65.300781 C 17.320312 69.347656 19.832031 70.6875 23.863281 69.316406 C 25.738281 68.261719 27.746094 67.675781 29.890625 67.558594 C 29.890625 68.0625 29.890625 68.566406 29.890625 69.066406 C 29.390625 69.234375 29.054688 69.570312 28.886719 70.070312 C 27.324219 71.113281 25.816406 72.285156 24.367188 73.585938 C 24.574219 72.292969 24.242188 71.203125 23.359375 70.324219 C 21.003906 70.019531 18.660156 69.851562 16.328125 69.820312 C 15.269531 74.539062 17.113281 76.296875 21.855469 75.09375 C 19.316406 76.277344 16.804688 77.699219 14.316406 79.363281 C 13.210938 80.429688 13.210938 81.515625 14.316406 82.628906 C 15.09375 83.03125 15.929688 83.199219 16.832031 83.132812 C 16.472656 83.585938 15.972656 83.753906 15.324219 83.632812 C 11.8125 83.136719 9.300781 81.292969 7.785156 78.109375 C 8.746094 77.363281 9.332031 76.359375 9.546875 75.09375 C 9.796875 72.421875 9.878906 69.742188 9.796875 67.058594 C 11.910156 64.664062 14.589844 63.324219 17.835938 63.039062 Z M 17.835938 63.039062 "/>
<path style=" stroke:none;fill-rule:evenodd;fill:rgb(76.470588%,41.176471%,7.45098%);fill-opacity:1;" d="M 36.421875 45.960938 C 37.355469 46.730469 38.277344 47.566406 39.1875 48.472656 C 40.4375 52.59375 39.347656 56.027344 35.921875 58.769531 C 37.460938 59.28125 38.96875 59.867188 40.441406 60.527344 C 40.152344 61.335938 39.984375 62.171875 39.941406 63.039062 C 41.675781 66.144531 41.171875 68.824219 38.433594 71.074219 C 39.878906 72.261719 41.46875 73.265625 43.207031 74.089844 C 43.457031 75.757812 43.539062 77.429688 43.457031 79.113281 C 44.105469 78.992188 44.609375 79.160156 44.964844 79.613281 C 42.292969 80.613281 39.613281 81.621094 36.925781 82.628906 C 36.925781 81.289062 36.925781 79.949219 36.925781 78.609375 C 38.449219 77.859375 39.203125 76.6875 39.1875 75.09375 C 36.976562 73.613281 34.550781 72.691406 31.902344 72.332031 C 33.800781 71.269531 35.558594 70.015625 37.175781 68.566406 C 39.207031 63.371094 37.617188 61.363281 32.40625 62.535156 C 31.753906 62.65625 31.253906 62.488281 30.898438 62.035156 C 31.367188 61.5 31.535156 60.828125 31.398438 60.023438 C 29.523438 60.113281 27.679688 59.945312 25.875 59.523438 C 27.101562 58.925781 28.273438 58.257812 29.390625 57.515625 C 31.777344 56.390625 34.125 55.132812 36.421875 53.746094 C 38.105469 52.796875 38.773438 51.371094 38.433594 49.476562 C 36.390625 49.070312 34.550781 48.402344 32.90625 47.46875 C 34.265625 47.375 35.4375 46.871094 36.421875 45.960938 Z M 36.421875 45.960938 "/>
<path style=" stroke:none;fill-rule:evenodd;fill:rgb(93.72549%,88.235294%,70.588235%);fill-opacity:1;" d="M 9.796875 67.058594 C 9.878906 69.742188 9.796875 72.421875 9.546875 75.09375 C 9.332031 76.359375 8.746094 77.363281 7.785156 78.109375 C 5.421875 73.929688 6.09375 70.246094 9.796875 67.058594 Z M 9.796875 67.058594 "/>
<path style=" stroke:none;fill-rule:evenodd;fill:rgb(97.254902%,92.54902%,78.039216%);fill-opacity:1;" d="M 24.367188 73.585938 C 23.445312 73.964844 22.609375 74.464844 21.855469 75.09375 C 17.113281 76.296875 15.269531 74.539062 16.328125 69.820312 C 18.660156 69.851562 21.003906 70.019531 23.359375 70.324219 C 24.242188 71.203125 24.574219 72.292969 24.367188 73.585938 Z M 24.367188 73.585938 "/>
<use xlink:href="#surface20" mask="url(#mask5)"/>
<path style=" stroke:none;fill-rule:evenodd;fill:rgb(78.431373%,73.333333%,69.803922%);fill-opacity:1;" d="M 90.179688 69.570312 C 92.523438 69.570312 94.867188 69.570312 97.214844 69.570312 C 97.214844 71.410156 97.214844 73.253906 97.214844 75.09375 C 95.046875 75.070312 93.035156 74.484375 91.183594 73.335938 C 90.375 72.21875 90.039062 70.960938 90.179688 69.570312 Z M 90.179688 69.570312 "/>
<path style=" stroke:none;fill-rule:evenodd;fill:rgb(97.647059%,95.294118%,91.764706%);fill-opacity:1;" d="M 79.125 23.355469 C 82.238281 24.375 84.5 26.382812 85.910156 29.386719 C 86.304688 32.605469 86.222656 35.789062 85.65625 38.929688 C 85.851562 41.777344 85.265625 44.457031 83.898438 46.964844 C 82.511719 47.710938 81.171875 48.546875 79.878906 49.476562 C 79.421875 49.0625 79.085938 48.558594 78.875 47.96875 C 77.675781 49.179688 77.253906 50.519531 77.621094 51.988281 C 76.898438 53.285156 77.066406 54.457031 78.121094 55.503906 C 79.925781 57.726562 82.019531 59.734375 84.402344 61.53125 C 84.703125 63.121094 84.453125 64.628906 83.648438 66.054688 C 85.484375 71.175781 85.652344 76.367188 84.152344 81.625 C 81.765625 83.3125 79.089844 84.316406 76.113281 84.636719 C 74.4375 84.636719 72.761719 84.636719 71.089844 84.636719 C 71.089844 84.136719 71.089844 83.632812 71.089844 83.132812 C 71.128906 82.503906 71.460938 82.085938 72.09375 81.875 C 82.9375 80.019531 85.617188 74.410156 80.132812 65.046875 C 74.257812 60.070312 72.5 53.875 74.855469 46.464844 C 76.382812 44.023438 78.140625 41.847656 80.132812 39.933594 C 80.613281 39.707031 81.03125 39.371094 81.386719 38.929688 C 81.496094 36.222656 81.746094 33.542969 82.140625 30.890625 C 80.488281 28.398438 78.476562 26.222656 76.113281 24.363281 C 76.933594 24.492188 77.519531 23.992188 77.871094 22.855469 C 78.207031 23.234375 78.625 23.398438 79.125 23.355469 Z M 79.125 23.355469 "/>
<path style=" stroke:none;fill-rule:evenodd;fill:rgb(96.862745%,78.823529%,36.470588%);fill-opacity:1;" d="M 28.886719 70.070312 C 28.269531 70.972656 27.933594 71.980469 27.882812 73.085938 C 28.386719 73.085938 28.886719 73.085938 29.390625 73.085938 C 30.5625 74.089844 31.734375 75.09375 32.90625 76.097656 C 32.671875 76.699219 32.167969 77.035156 31.398438 77.105469 C 25.648438 77.367188 20.121094 78.621094 14.820312 80.871094 C 14.398438 81.378906 14.234375 81.964844 14.316406 82.628906 C 13.210938 81.515625 13.210938 80.429688 14.316406 79.363281 C 16.804688 77.699219 19.316406 76.277344 21.855469 75.09375 C 22.609375 74.464844 23.445312 73.964844 24.367188 73.585938 C 25.816406 72.285156 27.324219 71.113281 28.886719 70.070312 Z M 28.886719 70.070312 "/>
<path style=" stroke:none;fill-rule:evenodd;fill:rgb(86.27451%,81.568627%,78.039216%);fill-opacity:1;" d="M 80.132812 65.046875 C 85.617188 74.410156 82.9375 80.019531 72.09375 81.875 C 71.460938 82.085938 71.128906 82.503906 71.089844 83.132812 C 70.441406 82.609375 70.441406 82.023438 71.089844 81.375 C 74.8125 80.503906 77.910156 78.578125 80.382812 75.597656 C 81.367188 72.054688 81.285156 68.539062 80.132812 65.046875 Z M 80.132812 65.046875 "/>
<path style=" stroke:none;fill-rule:evenodd;fill:rgb(80%,49.019608%,9.803922%);fill-opacity:1;" d="M 29.390625 79.113281 C 28.507812 79.976562 27.503906 80.730469 26.375 81.375 C 24.152344 82.320312 21.976562 83.242188 19.84375 84.136719 C 18.230469 84.292969 16.722656 84.125 15.324219 83.632812 C 15.972656 83.753906 16.472656 83.585938 16.832031 83.132812 C 20.359375 80.023438 24.546875 78.683594 29.390625 79.113281 Z M 29.390625 79.113281 "/>
<path style=" stroke:none;fill-rule:evenodd;fill:rgb(14.901961%,9.019608%,3.921569%);fill-opacity:1;" d="M 29.390625 79.113281 C 30.617188 79.039062 30.953125 79.457031 30.394531 80.367188 C 28.394531 81.953125 26.21875 83.210938 23.863281 84.136719 C 22.660156 84.394531 21.488281 84.730469 20.347656 85.140625 C 20.433594 84.640625 20.265625 84.308594 19.84375 84.136719 C 21.976562 83.242188 24.152344 82.320312 26.375 81.375 C 27.503906 80.730469 28.507812 79.976562 29.390625 79.113281 Z M 29.390625 79.113281 "/>
<path style=" stroke:none;fill-rule:evenodd;fill:rgb(72.941176%,68.627451%,67.058824%);fill-opacity:1;" d="M 80.132812 33.90625 C 80.746094 35.847656 80.746094 37.855469 80.132812 39.933594 C 78.140625 41.847656 76.382812 44.023438 74.855469 46.464844 C 72.5 53.875 74.257812 60.070312 80.132812 65.046875 C 81.285156 68.539062 81.367188 72.054688 80.382812 75.597656 C 77.910156 78.578125 74.8125 80.503906 71.089844 81.375 C 70.441406 82.023438 70.441406 82.609375 71.089844 83.132812 C 71.089844 83.632812 71.089844 84.136719 71.089844 84.636719 C 72.761719 84.636719 74.4375 84.636719 76.113281 84.636719 C 74.199219 85.214844 72.1875 85.296875 70.082031 84.890625 C 68.222656 83.425781 66.210938 82.339844 64.054688 81.625 C 68.082031 80.632812 72.101562 79.542969 76.113281 78.359375 C 77.933594 77.035156 79.191406 75.277344 79.878906 73.085938 C 80.308594 65.226562 76.539062 61.710938 68.578125 62.535156 C 69.53125 60.804688 70.617188 59.132812 71.84375 57.515625 C 72.59375 54.199219 72.761719 50.851562 72.34375 47.46875 C 70.46875 46.347656 69.042969 44.839844 68.074219 42.945312 C 76.035156 45.007812 80.054688 41.992188 80.132812 33.90625 Z M 80.132812 33.90625 "/>
<path style=" stroke:none;fill-rule:evenodd;fill:rgb(97.254902%,67.45098%,21.568627%);fill-opacity:1;" d="M 32.90625 76.097656 C 33.304688 76.242188 33.636719 76.492188 33.910156 76.851562 C 33.347656 77.375 32.675781 77.710938 31.902344 77.855469 C 32.464844 77.980469 32.96875 78.234375 33.410156 78.609375 C 32.9375 80.753906 32.769531 82.929688 32.90625 85.140625 C 34.75 85.5 36.589844 85.921875 38.433594 86.394531 C 37.8125 86.742188 37.8125 86.992188 38.433594 87.148438 C 38.449219 87.652344 38.195312 87.984375 37.679688 88.15625 C 35.164062 89.1875 32.570312 89.859375 29.890625 90.164062 C 25.777344 90.136719 23.769531 88.128906 23.863281 84.136719 C 26.21875 83.210938 28.394531 81.953125 30.394531 80.367188 C 30.953125 79.457031 30.617188 79.039062 29.390625 79.113281 C 24.546875 78.683594 20.359375 80.023438 16.832031 83.132812 C 15.929688 83.199219 15.09375 83.03125 14.316406 82.628906 C 14.234375 81.964844 14.398438 81.378906 14.820312 80.871094 C 20.121094 78.621094 25.648438 77.367188 31.398438 77.105469 C 32.167969 77.035156 32.671875 76.699219 32.90625 76.097656 Z M 32.90625 76.097656 "/>
<path style=" stroke:none;fill-rule:evenodd;fill:rgb(99.607843%,63.529412%,5.098039%);fill-opacity:1;" d="M 29.390625 73.085938 C 31.65625 73.128906 33.667969 73.882812 35.417969 75.34375 C 35.25 75.511719 35.082031 75.679688 34.917969 75.847656 C 37.550781 76.757812 37.382812 77.261719 34.414062 77.355469 C 35.324219 77.734375 36.164062 78.152344 36.925781 78.609375 C 36.925781 79.949219 36.925781 81.289062 36.925781 82.628906 C 39.613281 81.621094 42.292969 80.613281 44.964844 79.613281 C 44.425781 81.121094 44.507812 82.628906 45.214844 84.136719 C 45.382812 83.800781 45.550781 83.464844 45.71875 83.132812 C 45.777344 84.390625 46.277344 85.394531 47.226562 86.144531 C 48.617188 85.8125 50.042969 85.898438 51.496094 86.394531 C 51.265625 86.605469 51.097656 86.855469 50.992188 87.148438 C 51.882812 87.496094 52.722656 87.914062 53.503906 88.40625 C 53.875 89.292969 53.875 90.296875 53.503906 91.417969 C 54.34375 91.921875 55.179688 92.425781 56.015625 92.925781 C 55.132812 93.027344 54.296875 93.277344 53.503906 93.679688 C 53.125 94.8125 52.457031 95.734375 51.496094 96.441406 C 51.664062 96.609375 51.832031 96.777344 51.996094 96.945312 C 51.519531 97.1875 51.019531 97.269531 50.492188 97.195312 C 50.617188 98.707031 49.945312 99.625 48.480469 99.957031 C 48.648438 100.125 48.816406 100.292969 48.984375 100.460938 C 47.769531 100.921875 46.765625 101.675781 45.96875 102.722656 C 45.179688 103.128906 44.34375 103.296875 43.457031 103.222656 C 46.632812 100.734375 49.226562 97.722656 51.242188 94.183594 C 51.496094 92.515625 51.578125 90.839844 51.496094 89.160156 C 48.214844 90.148438 44.863281 90.816406 41.449219 91.167969 C 41.449219 89.828125 41.449219 88.488281 41.449219 87.148438 C 40.441406 87.148438 39.4375 87.148438 38.433594 87.148438 C 37.8125 86.992188 37.8125 86.742188 38.433594 86.394531 C 36.589844 85.921875 34.75 85.5 32.90625 85.140625 C 32.769531 82.929688 32.9375 80.753906 33.410156 78.609375 C 32.96875 78.234375 32.464844 77.980469 31.902344 77.855469 C 32.675781 77.710938 33.347656 77.375 33.910156 76.851562 C 33.636719 76.492188 33.304688 76.242188 32.90625 76.097656 C 31.734375 75.09375 30.5625 74.089844 29.390625 73.085938 Z M 29.390625 73.085938 "/>
<path style=" stroke:none;fill-rule:evenodd;fill:rgb(67.843137%,59.607843%,56.862745%);fill-opacity:1;" d="M 78.625 86.648438 C 78.835938 88.066406 78.332031 89.15625 77.117188 89.914062 C 74.382812 90.796875 71.707031 91.714844 69.078125 92.675781 C 69.984375 91.132812 70.488281 89.457031 70.585938 87.652344 C 73.34375 87.828125 76.023438 87.492188 78.625 86.648438 Z M 78.625 86.648438 "/>
<use xlink:href="#surface23" mask="url(#mask6)"/>
<path style=" stroke:none;fill-rule:evenodd;fill:rgb(95.294118%,82.745098%,48.627451%);fill-opacity:1;" d="M 23.863281 84.136719 C 23.769531 88.128906 25.777344 90.136719 29.890625 90.164062 C 29.949219 90.472656 30.117188 90.726562 30.394531 90.917969 C 32.738281 91.253906 35.082031 91.585938 37.429688 91.921875 C 36.824219 94.234375 35.316406 95.324219 32.90625 95.1875 C 32.925781 94.644531 33.09375 94.140625 33.410156 93.679688 C 31 92.652344 28.488281 92.152344 25.875 92.171875 C 25.664062 93.59375 26.164062 94.679688 27.378906 95.4375 C 29.0625 95.632812 30.738281 95.546875 32.40625 95.1875 C 32.1875 96.25 32.1875 97.257812 32.40625 98.199219 C 29.75 98.738281 27.070312 98.820312 24.367188 98.453125 C 18.34375 96.460938 15.578125 92.359375 16.078125 86.144531 C 17.472656 85.730469 18.894531 85.394531 20.347656 85.140625 C 21.488281 84.730469 22.660156 84.394531 23.863281 84.136719 Z M 23.863281 84.136719 "/>
<path style=" stroke:none;fill-rule:evenodd;fill:rgb(65.490196%,32.156863%,10.980392%);fill-opacity:1;" d="M 56.519531 84.636719 C 58.871094 84.554688 61.214844 84.640625 63.550781 84.890625 C 64.90625 85.273438 66.164062 85.859375 67.320312 86.648438 C 68.234375 89.839844 67.230469 92.183594 64.304688 93.679688 C 64.15625 94.824219 64.410156 95.910156 65.058594 96.945312 C 65.046875 97.886719 64.710938 98.640625 64.054688 99.203125 C 63.546875 95.878906 63.128906 92.53125 62.800781 89.160156 C 61.496094 86.464844 59.402344 84.957031 56.519531 84.636719 Z M 56.519531 84.636719 "/>
<path style=" stroke:none;fill-rule:evenodd;fill:rgb(95.686275%,80.784314%,41.960784%);fill-opacity:1;" d="M 38.433594 87.148438 C 39.4375 87.148438 40.441406 87.148438 41.449219 87.148438 C 41.449219 88.488281 41.449219 89.828125 41.449219 91.167969 C 44.863281 90.816406 48.214844 90.148438 51.496094 89.160156 C 51.578125 90.839844 51.496094 92.515625 51.242188 94.183594 C 49.226562 97.722656 46.632812 100.734375 43.457031 103.222656 C 41.40625 104.242188 39.230469 104.742188 36.925781 104.730469 C 34.980469 104.128906 33.476562 102.957031 32.40625 101.214844 C 33.648438 100.601562 34.152344 99.597656 33.910156 98.199219 C 33.410156 98.199219 32.90625 98.199219 32.40625 98.199219 C 32.1875 97.257812 32.1875 96.25 32.40625 95.1875 C 32.570312 95.1875 32.738281 95.1875 32.90625 95.1875 C 35.316406 95.324219 36.824219 94.234375 37.429688 91.921875 C 35.082031 91.585938 32.738281 91.253906 30.394531 90.917969 C 30.117188 90.726562 29.949219 90.472656 29.890625 90.164062 C 32.570312 89.859375 35.164062 89.1875 37.679688 88.15625 C 38.195312 87.984375 38.449219 87.652344 38.433594 87.148438 Z M 38.433594 87.148438 "/>
<path style=" stroke:none;fill-rule:evenodd;fill:rgb(92.156863%,88.235294%,85.882353%);fill-opacity:1;" d="M 69.078125 92.675781 C 71.707031 91.714844 74.382812 90.796875 77.117188 89.914062 C 78.332031 89.15625 78.835938 88.066406 78.625 86.648438 C 80.65625 85.03125 81.410156 85.53125 80.886719 88.15625 C 78.582031 93.566406 74.476562 95.660156 68.578125 94.433594 C 68.410156 94.265625 68.242188 94.097656 68.074219 93.929688 C 68.515625 93.574219 68.851562 93.15625 69.078125 92.675781 Z M 69.078125 92.675781 "/>
<path style=" stroke:none;fill-rule:evenodd;fill:rgb(97.254902%,58.039216%,5.098039%);fill-opacity:1;" d="M 44.964844 79.613281 C 46.328125 80.980469 47.835938 82.152344 49.484375 83.132812 C 49.523438 83.757812 49.859375 84.175781 50.492188 84.386719 C 53.457031 84.167969 55.550781 85.421875 56.769531 88.15625 C 57.878906 93.480469 55.953125 97.25 50.992188 99.457031 C 49.359375 100.835938 48.019531 102.425781 46.972656 104.226562 C 46.765625 104.589844 46.429688 104.84375 45.96875 104.980469 C 42.863281 105.394531 39.847656 105.308594 36.925781 104.730469 C 39.230469 104.742188 41.40625 104.242188 43.457031 103.222656 C 44.34375 103.296875 45.179688 103.128906 45.96875 102.722656 C 46.765625 101.675781 47.769531 100.921875 48.984375 100.460938 C 48.816406 100.292969 48.648438 100.125 48.480469 99.957031 C 49.945312 99.625 50.617188 98.707031 50.492188 97.195312 C 51.019531 97.269531 51.519531 97.1875 51.996094 96.945312 C 51.832031 96.777344 51.664062 96.609375 51.496094 96.441406 C 52.457031 95.734375 53.125 94.8125 53.503906 93.679688 C 54.296875 93.277344 55.132812 93.027344 56.015625 92.925781 C 55.179688 92.425781 54.34375 91.921875 53.503906 91.417969 C 53.875 90.296875 53.875 89.292969 53.503906 88.40625 C 52.722656 87.914062 51.882812 87.496094 50.992188 87.148438 C 51.097656 86.855469 51.265625 86.605469 51.496094 86.394531 C 50.042969 85.898438 48.617188 85.8125 47.226562 86.144531 C 46.277344 85.394531 45.777344 84.390625 45.71875 83.132812 C 45.550781 83.464844 45.382812 83.800781 45.214844 84.136719 C 44.507812 82.628906 44.425781 81.121094 44.964844 79.613281 Z M 44.964844 79.613281 "/>
<path style=" stroke:none;fill-rule:evenodd;fill:rgb(96.862745%,88.627451%,66.27451%);fill-opacity:1;" d="M 32.90625 95.1875 C 32.738281 95.1875 32.570312 95.1875 32.40625 95.1875 C 30.738281 95.546875 29.0625 95.632812 27.378906 95.4375 C 26.164062 94.679688 25.664062 93.59375 25.875 92.171875 C 28.488281 92.152344 31 92.652344 33.410156 93.679688 C 33.09375 94.140625 32.925781 94.644531 32.90625 95.1875 Z M 32.90625 95.1875 "/>
<path style=" stroke:none;fill-rule:evenodd;fill:rgb(78.039216%,44.313725%,14.117647%);fill-opacity:1;" d="M 49.484375 83.132812 C 51.308594 83.507812 53.148438 83.839844 55.011719 84.136719 C 55.367188 84.589844 55.871094 84.757812 56.519531 84.636719 C 59.402344 84.957031 61.496094 86.464844 62.800781 89.160156 C 63.128906 92.53125 63.546875 95.878906 64.054688 99.203125 C 63.65625 99.855469 63.15625 100.441406 62.546875 100.964844 C 60.800781 101.515625 59.125 102.101562 57.523438 102.722656 C 55.507812 102.636719 53.496094 102.722656 51.496094 102.972656 C 50.050781 103.625 48.542969 104.042969 46.972656 104.226562 C 48.019531 102.425781 49.359375 100.835938 50.992188 99.457031 C 55.953125 97.25 57.878906 93.480469 56.769531 88.15625 C 55.550781 85.421875 53.457031 84.167969 50.492188 84.386719 C 49.859375 84.175781 49.523438 83.757812 49.484375 83.132812 Z M 49.484375 83.132812 "/>
</g>
</svg>
