<?xml version="1.0" encoding="UTF-8"?>
<svg xmlns="http://www.w3.org/2000/svg" xmlns:xlink="http://www.w3.org/1999/xlink" width="px" height="px" viewBox="0 0 95 89" version="1.1">
<defs>
<filter id="alpha" filterUnits="objectBoundingBox" x="0%" y="0%" width="100%" height="100%">
  <feColorMatrix type="matrix" in="SourceGraphic" values="0 0 0 0 1 0 0 0 0 1 0 0 0 0 1 0 0 0 1 0"/>
</filter>
<mask id="mask0">
  <g filter="url(#alpha)">
<rect x="0" y="0" width="95" height="89" style="fill:rgb(0%,0%,0%);fill-opacity:0.0823529;stroke:none;"/>
  </g>
</mask>
<clipPath id="clip1">
  <rect x="0" y="0" width="95" height="89"/>
</clipPath>
<g id="surface5" clip-path="url(#clip1)">
<path style=" stroke:none;fill-rule:evenodd;fill:rgb(13.333333%,22.352941%,27.058824%);fill-opacity:1;" d="M 53.027344 1.257812 C 51.867188 2.753906 50.527344 4.097656 49.007812 5.28125 C 46.394531 4.347656 43.714844 4.097656 40.964844 4.527344 C 38.867188 5.324219 36.859375 6.246094 34.933594 7.289062 C 36.316406 5.5 38.160156 4.410156 40.464844 4.023438 C 43.496094 3.785156 46.511719 3.785156 49.511719 4.023438 C 50.484375 2.789062 51.660156 1.867188 53.027344 1.257812 Z M 53.027344 1.257812 "/>
</g>
<mask id="mask1">
  <g filter="url(#alpha)">
<rect x="0" y="0" width="95" height="89" style="fill:rgb(0%,0%,0%);fill-opacity:0.145098;stroke:none;"/>
  </g>
</mask>
<clipPath id="clip2">
  <rect x="0" y="0" width="95" height="89"/>
</clipPath>
<g id="surface8" clip-path="url(#clip2)">
<path style=" stroke:none;fill-rule:evenodd;fill:rgb(13.72549%,23.137255%,27.45098%);fill-opacity:1;" d="M 55.039062 -0.25 C 57.554688 -0.25 60.066406 -0.25 62.578125 -0.25 C 67.433594 1.324219 70.367188 4.675781 71.375 9.804688 C 74.738281 11.992188 77.167969 14.925781 78.664062 18.605469 C 80.269531 18.695312 81.777344 18.945312 83.1875 19.359375 C 81.640625 19.238281 80.132812 19.40625 78.664062 19.863281 C 77.121094 15.9375 74.523438 12.921875 70.871094 10.8125 C 68.203125 1.472656 62.253906 -1.710938 53.027344 1.257812 C 53.699219 0.753906 54.371094 0.25 55.039062 -0.25 Z M 55.039062 -0.25 "/>
</g>
<mask id="mask2">
  <g filter="url(#alpha)">
<rect x="0" y="0" width="95" height="89" style="fill:rgb(0%,0%,0%);fill-opacity:0.231373;stroke:none;"/>
  </g>
</mask>
<clipPath id="clip3">
  <rect x="0" y="0" width="95" height="89"/>
</clipPath>
<g id="surface11" clip-path="url(#clip3)">
<path style=" stroke:none;fill-rule:evenodd;fill:rgb(16.078431%,24.705882%,29.019608%);fill-opacity:1;" d="M 83.1875 19.359375 C 86.136719 20.214844 87.308594 22.226562 86.707031 25.394531 C 86.3125 22.929688 85.140625 20.917969 83.1875 19.359375 Z M 83.1875 19.359375 "/>
</g>
<mask id="mask3">
  <g filter="url(#alpha)">
<rect x="0" y="0" width="95" height="89" style="fill:rgb(0%,0%,0%);fill-opacity:0.0392157;stroke:none;"/>
  </g>
</mask>
<clipPath id="clip4">
  <rect x="0" y="0" width="95" height="89"/>
</clipPath>
<g id="surface14" clip-path="url(#clip4)">
<path style=" stroke:none;fill-rule:evenodd;fill:rgb(15.294118%,23.137255%,27.843137%);fill-opacity:1;" d="M 32.921875 9.300781 C 32.988281 9.742188 32.820312 10.078125 32.421875 10.308594 C 22.652344 6.097656 15.363281 8.777344 10.554688 18.351562 C 9.730469 20.65625 9.058594 23 8.546875 25.394531 C 8.351562 33.464844 8.519531 41.507812 9.046875 49.527344 C 8.3125 48.539062 7.476562 47.703125 6.535156 47.015625 C 5.730469 47.300781 5.144531 47.804688 4.773438 48.523438 C 4.839844 46.519531 5.761719 45.847656 7.539062 46.511719 C 7.707031 46.007812 7.875 45.503906 8.042969 45.003906 C 7.972656 39.207031 7.722656 33.507812 7.289062 27.90625 C 7.789062 18.453125 12.3125 11.832031 20.859375 8.046875 C 22.367188 7.792969 23.875 7.542969 25.382812 7.289062 C 28.019531 7.582031 30.53125 8.253906 32.921875 9.300781 Z M 32.921875 9.300781 "/>
</g>
<mask id="mask4">
  <g filter="url(#alpha)">
<rect x="0" y="0" width="95" height="89" style="fill:rgb(0%,0%,0%);fill-opacity:0.117647;stroke:none;"/>
  </g>
</mask>
<clipPath id="clip5">
  <rect x="0" y="0" width="95" height="89"/>
</clipPath>
<g id="surface17" clip-path="url(#clip5)">
<path style=" stroke:none;fill-rule:evenodd;fill:rgb(17.647059%,25.490196%,30.196078%);fill-opacity:1;" d="M 4.773438 49.527344 C 4.917969 51.222656 5.003906 52.898438 5.027344 54.554688 C 3.957031 53.613281 2.703125 53.109375 1.257812 53.046875 C 2.019531 52.425781 2.855469 52.425781 3.769531 53.046875 C 4.105469 51.804688 4.441406 50.632812 4.773438 49.527344 Z M 4.773438 49.527344 "/>
</g>
<mask id="mask5">
  <g filter="url(#alpha)">
<rect x="0" y="0" width="95" height="89" style="fill:rgb(0%,0%,0%);fill-opacity:0.0117647;stroke:none;"/>
  </g>
</mask>
<clipPath id="clip6">
  <rect x="0" y="0" width="95" height="89"/>
</clipPath>
<g id="surface20" clip-path="url(#clip6)">
<path style=" stroke:none;fill-rule:evenodd;fill:rgb(15.294118%,23.529412%,27.45098%);fill-opacity:1;" d="M -0.25 54.054688 C -0.0820312 54.054688 0.0820312 54.054688 0.25 54.054688 C 0.554688 59.691406 3.152344 63.878906 8.042969 66.625 C 8.976562 69.90625 10.734375 72.671875 13.320312 74.921875 C 19.03125 78.8125 25.230469 79.984375 31.917969 78.441406 C 33.644531 79.804688 35.488281 80.894531 37.445312 81.710938 C 35.109375 81.292969 32.929688 80.457031 30.914062 79.195312 C 22.761719 81.09375 15.808594 78.914062 10.054688 72.65625 C 8.828125 71 7.992188 69.15625 7.539062 67.128906 C 3.746094 64.890625 1.148438 61.707031 -0.25 57.574219 C -0.25 56.398438 -0.25 55.226562 -0.25 54.054688 Z M -0.25 54.054688 "/>
</g>
<mask id="mask6">
  <g filter="url(#alpha)">
<rect x="0" y="0" width="95" height="89" style="fill:rgb(0%,0%,0%);fill-opacity:0.0196078;stroke:none;"/>
  </g>
</mask>
<clipPath id="clip7">
  <rect x="0" y="0" width="95" height="89"/>
</clipPath>
<g id="surface23" clip-path="url(#clip7)">
<path style=" stroke:none;fill-rule:evenodd;fill:rgb(16.078431%,23.921569%,28.235294%);fill-opacity:1;" d="M 87.710938 25.894531 C 91.566406 26.640625 93.074219 28.90625 92.234375 32.683594 C 93.742188 34.863281 94.078125 37.210938 93.242188 39.722656 C 93.8125 40.300781 94.3125 40.886719 94.75 41.484375 C 94.75 42.992188 94.75 44.5 94.75 46.007812 C 94.089844 46.332031 93.585938 46.835938 93.242188 47.515625 C 94.613281 50.222656 94.277344 52.738281 92.234375 55.058594 C 93.03125 57.75 92.191406 59.84375 89.722656 61.34375 C 88.71875 61.847656 87.710938 62.351562 86.707031 62.851562 C 86.25 64.082031 85.832031 65.339844 85.449219 66.625 C 84.8125 67.683594 83.894531 68.1875 82.683594 68.132812 C 84.890625 66.566406 85.898438 64.386719 85.699219 61.597656 C 86.554688 61.675781 87.394531 61.59375 88.214844 61.34375 C 91.371094 59.75 92.207031 57.40625 90.726562 54.304688 C 91.445312 54.070312 92.03125 53.652344 92.488281 53.046875 C 93 51.128906 92.75 49.367188 91.734375 47.769531 C 92.511719 47.15625 93.097656 46.402344 93.492188 45.503906 C 94.234375 43.167969 93.648438 41.324219 91.734375 39.972656 C 93.132812 37.585938 92.964844 35.324219 91.230469 33.1875 C 92.28125 29.671875 91.105469 27.242188 87.710938 25.894531 Z M 87.710938 25.894531 "/>
</g>
<mask id="mask7">
  <g filter="url(#alpha)">
<rect x="0" y="0" width="95" height="89" style="fill:rgb(0%,0%,0%);fill-opacity:0.0156863;stroke:none;"/>
  </g>
</mask>
<clipPath id="clip8">
  <rect x="0" y="0" width="95" height="89"/>
</clipPath>
<g id="surface26" clip-path="url(#clip8)">
<path style=" stroke:none;fill-rule:evenodd;fill:rgb(14.901961%,23.137255%,27.843137%);fill-opacity:1;" d="M 82.183594 68.132812 C 80.980469 68.488281 79.722656 68.824219 78.414062 69.136719 C 77.171875 72.5625 74.992188 75.246094 71.878906 77.183594 C 70.292969 83.546875 66.355469 87.402344 60.066406 88.75 C 59.226562 88.75 58.390625 88.75 57.554688 88.75 C 52.964844 87.933594 49.78125 85.335938 48.003906 80.953125 C 45.652344 81.574219 43.222656 81.992188 40.714844 82.210938 C 39.527344 82.210938 38.4375 82.042969 37.445312 81.710938 C 39.132812 81.792969 40.804688 81.707031 42.472656 81.457031 C 44.570312 80.824219 46.582031 80.070312 48.503906 79.195312 C 48.957031 81.6875 50.128906 83.78125 52.023438 85.480469 C 61.847656 90.078125 68.128906 87.144531 70.871094 76.679688 C 74.550781 74.929688 76.8125 72.082031 77.660156 68.132812 C 79.167969 68.132812 80.675781 68.132812 82.183594 68.132812 Z M 82.183594 68.132812 "/>
</g>
</defs>
<g id="surface1">
<use xlink:href="#surface5" mask="url(#mask0)"/>
<use xlink:href="#surface8" mask="url(#mask1)"/>
<use xlink:href="#surface11" mask="url(#mask2)"/>
<use xlink:href="#surface14" mask="url(#mask3)"/>
<use xlink:href="#surface17" mask="url(#mask4)"/>
<path style=" stroke:none;fill-rule:evenodd;fill:rgb(4.705882%,4.313725%,4.313725%);fill-opacity:1;" d="M 83.1875 19.359375 C 85.140625 20.917969 86.3125 22.929688 86.707031 25.394531 C 87.203125 25.304688 87.539062 25.472656 87.710938 25.894531 C 91.105469 27.242188 92.28125 29.671875 91.230469 33.1875 C 92.964844 35.324219 93.132812 37.585938 91.734375 39.972656 C 93.648438 41.324219 94.234375 43.167969 93.492188 45.503906 C 93.097656 46.402344 92.511719 47.15625 91.734375 47.769531 C 92.75 49.367188 93 51.128906 92.488281 53.046875 C 92.03125 53.652344 91.445312 54.070312 90.726562 54.304688 C 92.207031 57.40625 91.371094 59.75 88.214844 61.34375 C 87.394531 61.59375 86.554688 61.675781 85.699219 61.597656 C 85.898438 64.386719 84.890625 66.566406 82.683594 68.132812 C 82.519531 68.132812 82.351562 68.132812 82.183594 68.132812 C 80.675781 68.132812 79.167969 68.132812 77.660156 68.132812 C 76.8125 72.082031 74.550781 74.929688 70.871094 76.679688 C 68.128906 87.144531 61.847656 90.078125 52.023438 85.480469 C 50.128906 83.78125 48.957031 81.6875 48.503906 79.195312 C 46.582031 80.070312 44.570312 80.824219 42.472656 81.457031 C 40.804688 81.707031 39.132812 81.792969 37.445312 81.710938 C 35.488281 80.894531 33.644531 79.804688 31.917969 78.441406 C 25.230469 79.984375 19.03125 78.8125 13.320312 74.921875 C 10.734375 72.671875 8.976562 69.90625 8.042969 66.625 C 3.152344 63.878906 0.554688 59.691406 0.25 54.054688 C 0.417969 53.550781 0.753906 53.214844 1.257812 53.046875 C 2.703125 53.109375 3.957031 53.613281 5.027344 54.554688 C 5.003906 52.898438 4.917969 51.222656 4.773438 49.527344 C 4.773438 49.191406 4.773438 48.859375 4.773438 48.523438 C 5.144531 47.804688 5.730469 47.300781 6.535156 47.015625 C 7.476562 47.703125 8.3125 48.539062 9.046875 49.527344 C 8.519531 41.507812 8.351562 33.464844 8.546875 25.394531 C 9.058594 23 9.730469 20.65625 10.554688 18.351562 C 15.363281 8.777344 22.652344 6.097656 32.421875 10.308594 C 32.820312 10.078125 32.988281 9.742188 32.921875 9.300781 C 33.257812 8.296875 33.929688 7.625 34.933594 7.289062 C 36.859375 6.246094 38.867188 5.324219 40.964844 4.527344 C 43.714844 4.097656 46.394531 4.347656 49.007812 5.28125 C 50.527344 4.097656 51.867188 2.753906 53.027344 1.257812 C 62.253906 -1.710938 68.203125 1.472656 70.871094 10.8125 C 74.523438 12.921875 77.121094 15.9375 78.664062 19.863281 C 80.132812 19.40625 81.640625 19.238281 83.1875 19.359375 Z M 83.1875 19.359375 "/>
<path style=" stroke:none;fill-rule:evenodd;fill:rgb(87.843137%,87.45098%,85.098039%);fill-opacity:1;" d="M 81.175781 48.523438 C 82.164062 48.402344 83.085938 48.570312 83.941406 49.027344 C 85.011719 52.730469 83.753906 53.90625 80.171875 52.546875 C 79.59375 51.007812 79.929688 49.667969 81.175781 48.523438 Z M 81.175781 48.523438 "/>
<path style=" stroke:none;fill-rule:evenodd;fill:rgb(1.176471%,1.176471%,1.176471%);fill-opacity:1;" d="M 61.574219 54.054688 C 64.40625 56.199219 66.082031 59.050781 66.601562 62.601562 C 67.027344 65.785156 65.6875 67.882812 62.578125 68.886719 C 58.34375 69.953125 54.15625 69.871094 50.011719 68.636719 C 48.429688 67.308594 47.84375 65.632812 48.253906 63.605469 C 50.402344 59.871094 52.832031 56.351562 55.542969 53.046875 C 56.410156 52.167969 57.164062 51.160156 57.804688 50.03125 C 58.546875 51.867188 59.800781 53.207031 61.574219 54.054688 Z M 61.574219 54.054688 "/>
<path style=" stroke:none;fill-rule:evenodd;fill:rgb(85.882353%,85.882353%,83.137255%);fill-opacity:1;" d="M 87.210938 50.535156 C 87.816406 51.179688 88.488281 51.179688 89.21875 50.535156 C 88.847656 50.191406 88.511719 49.855469 88.214844 49.527344 C 88.695312 48.417969 89.449219 48.25 90.476562 49.027344 C 90.910156 52.558594 89.320312 53.816406 85.699219 52.796875 C 85.226562 51.429688 85.058594 50.003906 85.199219 48.523438 C 85.867188 48.523438 86.539062 48.523438 87.210938 48.523438 C 86.996094 49.347656 86.996094 50.015625 87.210938 50.535156 Z M 87.210938 50.535156 "/>
<path style=" stroke:none;fill-rule:evenodd;fill:rgb(42.352941%,44.705882%,44.705882%);fill-opacity:1;" d="M 88.214844 49.527344 C 88.511719 49.855469 88.847656 50.191406 89.21875 50.535156 C 88.488281 51.179688 87.816406 51.179688 87.210938 50.535156 C 87.542969 50.199219 87.878906 49.863281 88.214844 49.527344 Z M 88.214844 49.527344 "/>
<path style=" stroke:none;fill-rule:evenodd;fill:rgb(90.588235%,52.54902%,20%);fill-opacity:1;" d="M 10.808594 39.972656 C 11.214844 40.875 11.464844 41.882812 11.5625 42.992188 C 11.726562 42.65625 11.894531 42.320312 12.0625 41.984375 C 12.222656 42.769531 12.640625 43.355469 13.320312 43.746094 C 12.773438 44.785156 12.6875 45.871094 13.070312 47.015625 C 13.167969 46.066406 13.417969 45.230469 13.824219 44.5 C 13.839844 47.734375 14.675781 50.753906 16.335938 53.550781 C 13.320312 53.472656 11.558594 51.796875 11.058594 48.523438 C 10.808594 45.679688 10.722656 42.828125 10.808594 39.972656 Z M 10.808594 39.972656 "/>
<path style=" stroke:none;fill-rule:evenodd;fill:rgb(87.45098%,88.235294%,87.45098%);fill-opacity:1;" d="M 82.183594 41.484375 C 84.0625 41.101562 84.898438 41.855469 84.695312 43.746094 C 84.628906 46.242188 83.457031 46.996094 81.175781 46.007812 C 80.933594 45.53125 80.765625 45.03125 80.675781 44.5 C 81.171875 43.496094 81.675781 42.492188 82.183594 41.484375 Z M 82.183594 41.484375 "/>
<path style=" stroke:none;fill-rule:evenodd;fill:rgb(83.921569%,83.921569%,82.745098%);fill-opacity:1;" d="M 86.707031 40.980469 C 90.136719 40.3125 91.730469 41.652344 91.480469 45.003906 C 89.902344 46.410156 88.144531 46.742188 86.203125 46.007812 C 84.792969 44.175781 84.960938 42.496094 86.707031 40.980469 Z M 86.707031 40.980469 "/>
<path style=" stroke:none;fill-rule:evenodd;fill:rgb(16.470588%,17.647059%,17.254902%);fill-opacity:1;" d="M 87.210938 42.488281 C 87.890625 42.742188 88.394531 43.246094 88.71875 43.996094 C 89.050781 43.496094 89.386719 42.992188 89.722656 42.488281 C 90.355469 43.527344 90.105469 44.363281 88.96875 45.003906 C 88.285156 44.558594 87.53125 44.394531 86.707031 44.5 C 86.671875 43.765625 86.839844 43.097656 87.210938 42.488281 Z M 87.210938 42.488281 "/>
<path style=" stroke:none;fill-rule:evenodd;fill:rgb(94.901961%,93.72549%,90.588235%);fill-opacity:1;" d="M 69.113281 12.820312 C 70.347656 14.945312 71.601562 17.125 72.882812 19.359375 C 73.132812 20.6875 73.21875 22.03125 73.136719 23.382812 C 71.097656 27.644531 70.011719 32.171875 69.867188 36.957031 C 70.851562 36.476562 71.6875 35.808594 72.382812 34.945312 C 74.40625 34.964844 76.5 35.046875 78.664062 35.199219 C 78.496094 35.367188 78.328125 35.53125 78.160156 35.699219 C 78.460938 36.515625 78.796875 37.269531 79.167969 37.964844 C 78.902344 39.625 79.574219 40.714844 81.175781 41.230469 C 80.539062 41.386719 79.953125 41.640625 79.417969 41.984375 C 78.949219 43.867188 79.203125 45.628906 80.171875 47.265625 C 78.839844 48.9375 78.335938 50.867188 78.664062 53.046875 C 78.160156 53.046875 77.660156 53.046875 77.15625 53.046875 C 76.316406 52.378906 75.480469 52.378906 74.644531 53.046875 C 74.308594 53.046875 73.972656 53.046875 73.636719 53.046875 C 72.925781 52.570312 72.085938 52.402344 71.125 52.546875 C 71.378906 55.921875 71.796875 59.273438 72.382812 62.601562 C 72.714844 64.949219 72.714844 67.292969 72.382812 69.640625 C 71.363281 71.402344 70.273438 73.078125 69.113281 74.667969 C 58.089844 75.875 47.03125 75.960938 35.9375 74.921875 C 32.910156 74.414062 30.0625 73.410156 27.394531 71.902344 C 26.605469 71.519531 25.9375 71.601562 25.382812 72.15625 C 24.300781 71.867188 24.132812 71.277344 24.882812 70.394531 C 24.148438 70.183594 23.898438 69.765625 24.128906 69.136719 C 25.660156 68.789062 27.25 68.789062 28.902344 69.136719 C 34.183594 71.4375 39.714844 72.359375 45.488281 71.902344 C 43.96875 69.347656 43.046875 66.582031 42.726562 63.605469 C 42.386719 64.953125 41.800781 66.125 40.964844 67.128906 C 41.195312 64.632812 41.863281 62.285156 42.976562 60.085938 C 43.695312 59.71875 44.285156 59.21875 44.734375 58.578125 C 45.429688 59.109375 45.933594 59.777344 46.242188 60.589844 C 48.027344 57.792969 50.453125 55.613281 53.53125 54.054688 C 54.371094 53.292969 55.039062 52.453125 55.542969 51.539062 C 55.542969 52.042969 55.542969 52.546875 55.542969 53.046875 C 52.832031 56.351562 50.402344 59.871094 48.253906 63.605469 C 47.84375 65.632812 48.429688 67.308594 50.011719 68.636719 C 50.132812 69.59375 50.636719 70.265625 51.519531 70.648438 C 52.753906 71.835938 54.261719 72.339844 56.046875 72.15625 C 58.484375 71.296875 61.332031 70.542969 64.589844 69.894531 C 67.339844 67.878906 68.007812 65.449219 66.601562 62.601562 C 66.082031 59.050781 64.40625 56.199219 61.574219 54.054688 C 61.855469 53.050781 61.605469 52.042969 60.820312 51.035156 C 60.734375 49.78125 60.652344 48.523438 60.570312 47.265625 C 60.988281 42.660156 61.320312 38.050781 61.574219 33.4375 C 65.511719 30.589844 67.269531 26.734375 66.851562 21.871094 C 64.957031 19.253906 62.359375 17.910156 59.0625 17.851562 C 57.820312 17.4375 56.480469 17.1875 55.039062 17.097656 C 59.230469 16.835938 59.394531 16.5 55.542969 16.089844 C 51.960938 15.328125 49.363281 16.585938 47.75 19.863281 C 47.417969 21.371094 47.417969 22.878906 47.75 24.386719 C 47.890625 24.847656 48.144531 25.183594 48.503906 25.394531 C 50.179688 27.90625 51.855469 30.421875 53.53125 32.933594 C 53.300781 33.628906 52.796875 33.964844 52.023438 33.941406 C 50.902344 33.761719 49.898438 33.34375 49.007812 32.683594 C 49.484375 32.441406 49.988281 32.355469 50.515625 32.433594 C 50.136719 31.371094 50.050781 30.363281 50.265625 29.414062 C 49.757812 28.996094 49.167969 28.828125 48.503906 28.914062 C 48.542969 27.398438 47.875 26.308594 46.496094 25.644531 C 46.988281 23.371094 45.980469 22.449219 43.480469 22.878906 C 43.480469 23.382812 43.480469 23.882812 43.480469 24.386719 C 45.6875 24.367188 45.855469 24.617188 43.980469 25.140625 C 45.738281 26.191406 45.820312 27.28125 44.234375 28.410156 C 43.367188 26.726562 42.277344 25.21875 40.964844 23.882812 C 40.023438 23.945312 39.101562 23.945312 38.199219 23.882812 C 37.78125 23.128906 37.195312 22.542969 36.441406 22.125 C 36.945312 21.621094 37.445312 21.117188 37.949219 20.617188 C 37.035156 20.515625 36.363281 20.097656 35.9375 19.359375 C 38.796875 19.78125 40.890625 21.289062 42.222656 23.882812 C 42.984375 20.757812 44.242188 17.828125 45.992188 15.085938 C 38.648438 13.679688 32.363281 15.605469 27.144531 20.867188 C 26.796875 21.285156 26.882812 21.621094 27.394531 21.871094 C 28.667969 21.167969 30.007812 20.667969 31.414062 20.363281 C 30.222656 22.03125 28.546875 22.871094 26.390625 22.878906 C 26.222656 23.046875 26.054688 23.214844 25.886719 23.382812 C 26.328125 23.757812 26.828125 24.011719 27.394531 24.136719 C 27.144531 24.386719 26.890625 24.636719 26.640625 24.890625 C 25.46875 24.21875 24.292969 24.21875 23.121094 24.890625 C 22.292969 25.671875 22.125 26.507812 22.617188 27.402344 C 22.285156 27.070312 21.949219 26.734375 21.613281 26.398438 C 21.386719 27.414062 20.96875 28.335938 20.355469 29.164062 C 20.734375 29.910156 21.15625 29.996094 21.613281 29.414062 C 21.917969 30.949219 22.671875 32.203125 23.875 33.1875 C 23.226562 33.433594 22.554688 33.515625 21.863281 33.4375 C 19.136719 30.585938 18.714844 27.402344 20.609375 23.882812 C 24.699219 17.261719 30.648438 13.324219 38.453125 12.066406 C 47.667969 11.734375 56.882812 11.734375 66.097656 12.066406 C 67.113281 12.320312 68.117188 12.574219 69.113281 12.820312 Z M 69.113281 12.820312 "/>
<path style=" stroke:none;fill-rule:evenodd;fill:rgb(4.705882%,4.313725%,4.313725%);fill-opacity:1;" d="M 69.113281 40.476562 C 70.628906 40.394531 72.140625 40.476562 73.636719 40.730469 C 74.078125 41.410156 74.246094 42.164062 74.140625 42.992188 C 72.726562 43.15625 71.386719 43.574219 70.117188 44.25 C 71.351562 44.394531 72.523438 44.730469 73.636719 45.253906 C 74.414062 47.28125 73.660156 48.203125 71.375 48.019531 C 68.34375 47.890625 66.082031 46.546875 64.589844 43.996094 C 65.859375 42.449219 67.367188 41.277344 69.113281 40.476562 Z M 69.113281 40.476562 "/>
<path style=" stroke:none;fill-rule:evenodd;fill:rgb(92.156863%,91.764706%,91.372549%);fill-opacity:1;" d="M 81.175781 34.445312 C 83.9375 34.445312 84.859375 35.785156 83.941406 38.464844 C 82.992188 39.683594 81.988281 39.683594 80.925781 38.464844 C 80.625 37.097656 80.707031 35.757812 81.175781 34.445312 Z M 81.175781 34.445312 "/>
<path style=" stroke:none;fill-rule:evenodd;fill:rgb(83.137255%,83.137255%,81.960784%);fill-opacity:1;" d="M 85.699219 34.445312 C 87.117188 34.316406 88.457031 34.566406 89.722656 35.199219 C 91.132812 38.15625 90.128906 39.5 86.707031 39.21875 C 85.242188 37.84375 84.90625 36.25 85.699219 34.445312 Z M 85.699219 34.445312 "/>
<path style=" stroke:none;fill-rule:evenodd;fill:rgb(16.862745%,20.392157%,20.784314%);fill-opacity:1;" d="M 82.183594 35.953125 C 83.25 36.386719 83.335938 36.890625 82.433594 37.460938 C 81.589844 37.121094 81.503906 36.617188 82.183594 35.953125 Z M 82.183594 35.953125 "/>
<path style=" stroke:none;fill-rule:evenodd;fill:rgb(95.686275%,38.431373%,23.921569%);fill-opacity:1;" d="M 25.886719 14.332031 C 21.902344 17.261719 19.136719 21.117188 17.59375 25.894531 C 17.257812 27.238281 17.257812 28.578125 17.59375 29.917969 C 18.90625 32.714844 20.082031 35.5625 21.109375 38.464844 C 21.445312 40.140625 21.445312 41.816406 21.109375 43.496094 C 21.011719 44.390625 20.59375 45.0625 19.855469 45.503906 C 18.519531 44.832031 17.347656 43.996094 16.335938 42.992188 C 16.554688 43.023438 16.722656 42.941406 16.839844 42.738281 C 16.027344 39.460938 15.105469 36.195312 14.074219 32.933594 C 12.886719 24.253906 15.820312 17.382812 22.871094 12.320312 C 24.59375 11.621094 26.269531 11.703125 27.898438 12.570312 C 27.25 12.914062 26.664062 12.832031 26.136719 12.320312 C 25.890625 12.96875 25.808594 13.640625 25.886719 14.332031 Z M 25.886719 14.332031 "/>
<path style=" stroke:none;fill-rule:evenodd;fill:rgb(9.803922%,9.803922%,10.196078%);fill-opacity:1;" d="M 86.707031 35.953125 C 87.632812 35.8125 88.304688 36.148438 88.71875 36.957031 C 88.101562 37.519531 87.433594 37.601562 86.707031 37.210938 C 86.15625 36.820312 86.15625 36.402344 86.707031 35.953125 Z M 86.707031 35.953125 "/>
<path style=" stroke:none;fill-rule:evenodd;fill:rgb(76.078431%,81.568627%,83.137255%);fill-opacity:1;" d="M 61.574219 33.4375 C 61.320312 38.050781 60.988281 42.660156 60.570312 47.265625 C 60.652344 48.523438 60.734375 49.78125 60.820312 51.035156 C 61.605469 52.042969 61.855469 53.050781 61.574219 54.054688 C 59.800781 53.207031 58.546875 51.867188 57.804688 50.03125 C 57.164062 51.160156 56.410156 52.167969 55.542969 53.046875 C 55.542969 52.546875 55.542969 52.042969 55.542969 51.539062 C 56.363281 49.398438 56.027344 47.386719 54.535156 45.503906 C 54.960938 44.828125 55.550781 44.328125 56.296875 43.996094 C 56.382812 41.652344 56.296875 39.308594 56.046875 36.957031 C 56.378906 36.453125 56.714844 35.953125 57.050781 35.449219 C 57.082031 35.722656 57.246094 35.890625 57.554688 35.953125 C 58.90625 35.109375 60.246094 34.269531 61.574219 33.4375 Z M 61.574219 33.4375 "/>
<path style=" stroke:none;fill-rule:evenodd;fill:rgb(82.745098%,81.960784%,80%);fill-opacity:1;" d="M 73.136719 23.382812 C 72.941406 24.964844 72.941406 26.472656 73.136719 27.90625 C 72.664062 29.898438 72.578125 31.910156 72.882812 33.941406 C 74.933594 34.34375 77.027344 34.59375 79.167969 34.695312 C 79.308594 35.679688 79.308594 36.769531 79.167969 37.964844 C 78.796875 37.269531 78.460938 36.515625 78.160156 35.699219 C 78.328125 35.53125 78.496094 35.367188 78.664062 35.199219 C 76.5 35.046875 74.40625 34.964844 72.382812 34.945312 C 71.6875 35.808594 70.851562 36.476562 69.867188 36.957031 C 70.011719 32.171875 71.097656 27.644531 73.136719 23.382812 Z M 73.136719 23.382812 "/>
<path style=" stroke:none;fill-rule:evenodd;fill:rgb(70.196078%,69.803922%,68.627451%);fill-opacity:1;" d="M 76.152344 28.410156 C 77.363281 28.226562 78.117188 28.730469 78.414062 29.917969 C 78.832031 29.414062 79.25 28.914062 79.667969 28.410156 C 80.558594 29.765625 80.894531 31.273438 80.675781 32.933594 C 79.601562 32.832031 78.761719 32.332031 78.160156 31.425781 C 77.695312 32.023438 77.527344 32.695312 77.660156 33.4375 C 76.484375 33.4375 75.3125 33.4375 74.140625 33.4375 C 74.257812 31.53125 74.925781 29.855469 76.152344 28.410156 Z M 76.152344 28.410156 "/>
<path style=" stroke:none;fill-rule:evenodd;fill:rgb(87.45098%,86.666667%,85.098039%);fill-opacity:1;" d="M 84.695312 27.90625 C 85.460938 28.210938 85.964844 28.796875 86.203125 29.667969 C 87.199219 30.011719 88.035156 29.757812 88.71875 28.914062 C 89.738281 29.894531 89.90625 30.984375 89.21875 32.179688 C 87.707031 32.332031 86.199219 32.25 84.695312 31.929688 C 84.695312 30.589844 84.695312 29.246094 84.695312 27.90625 Z M 84.695312 27.90625 "/>
<path style=" stroke:none;fill-rule:evenodd;fill:rgb(56.470588%,58.431373%,57.254902%);fill-opacity:1;" d="M 49.007812 22.375 C 48.859375 23.433594 49.023438 24.4375 49.511719 25.394531 C 52.40625 28.457031 54.921875 31.808594 57.050781 35.449219 C 56.714844 35.953125 56.378906 36.453125 56.046875 36.957031 C 55.457031 35.445312 54.621094 34.101562 53.53125 32.933594 C 51.855469 30.421875 50.179688 27.90625 48.503906 25.394531 C 48.355469 24.269531 48.523438 23.261719 49.007812 22.375 Z M 49.007812 22.375 "/>
<path style=" stroke:none;fill-rule:evenodd;fill:rgb(84.705882%,84.313725%,83.137255%);fill-opacity:1;" d="M 81.679688 28.410156 C 82.183594 28.410156 82.683594 28.410156 83.1875 28.410156 C 83.054688 29.726562 83.21875 30.984375 83.691406 32.179688 C 82.871094 32.429688 82.03125 32.511719 81.175781 32.433594 C 81.066406 31.035156 81.234375 29.695312 81.679688 28.410156 Z M 81.679688 28.410156 "/>
<path style=" stroke:none;fill-rule:evenodd;fill:rgb(99.215686%,70.196078%,21.176471%);fill-opacity:1;" d="M 25.886719 10.308594 C 25 10.792969 23.992188 10.957031 22.871094 10.8125 C 22.871094 11.3125 22.871094 11.816406 22.871094 12.320312 C 15.820312 17.382812 12.886719 24.253906 14.074219 32.933594 C 15.105469 36.195312 16.027344 39.460938 16.839844 42.738281 C 16.722656 42.941406 16.554688 43.023438 16.335938 42.992188 C 14.9375 42.699219 14.097656 43.199219 13.824219 44.5 C 13.417969 45.230469 13.167969 46.066406 13.070312 47.015625 C 12.6875 45.871094 12.773438 44.785156 13.320312 43.746094 C 12.640625 43.355469 12.222656 42.769531 12.0625 41.984375 C 11.894531 42.320312 11.726562 42.65625 11.5625 42.992188 C 11.464844 41.882812 11.214844 40.875 10.808594 39.972656 C 9.964844 33.726562 10.214844 27.523438 11.5625 21.371094 C 13.804688 14.34375 18.582031 10.65625 25.886719 10.308594 Z M 25.886719 10.308594 "/>
<path style=" stroke:none;fill-rule:evenodd;fill:rgb(83.921569%,83.137255%,81.568627%);fill-opacity:1;" d="M 79.667969 21.371094 C 81.382812 21.03125 82.722656 21.535156 83.691406 22.878906 C 81.898438 23.691406 80.054688 24.359375 78.160156 24.890625 C 77.25 23.035156 77.753906 21.859375 79.667969 21.371094 Z M 79.667969 21.371094 "/>
<path style=" stroke:none;fill-rule:evenodd;fill:rgb(96.470588%,94.509804%,90.196078%);fill-opacity:1;" d="M 35.9375 19.359375 C 36.363281 20.097656 37.035156 20.515625 37.949219 20.617188 C 37.445312 21.117188 36.945312 21.621094 36.441406 22.125 C 37.195312 22.542969 37.78125 23.128906 38.199219 23.882812 C 39.101562 23.945312 40.023438 23.945312 40.964844 23.882812 C 42.277344 25.21875 43.367188 26.726562 44.234375 28.410156 C 45.820312 27.28125 45.738281 26.191406 43.980469 25.140625 C 45.855469 24.617188 45.6875 24.367188 43.480469 24.386719 C 43.480469 23.882812 43.480469 23.382812 43.480469 22.878906 C 45.980469 22.449219 46.988281 23.371094 46.496094 25.644531 C 47.875 26.308594 48.542969 27.398438 48.503906 28.914062 C 49.167969 28.828125 49.757812 28.996094 50.265625 29.414062 C 50.050781 30.363281 50.136719 31.371094 50.515625 32.433594 C 49.988281 32.355469 49.484375 32.441406 49.007812 32.683594 C 49.898438 33.34375 50.902344 33.761719 52.023438 33.941406 C 52.796875 33.964844 53.300781 33.628906 53.53125 32.933594 C 54.621094 34.101562 55.457031 35.445312 56.046875 36.957031 C 56.296875 39.308594 56.382812 41.652344 56.296875 43.996094 C 55.550781 44.328125 54.960938 44.828125 54.535156 45.503906 C 56.027344 47.386719 56.363281 49.398438 55.542969 51.539062 C 55.039062 52.453125 54.371094 53.292969 53.53125 54.054688 C 50.453125 55.613281 48.027344 57.792969 46.242188 60.589844 C 45.933594 59.777344 45.429688 59.109375 44.734375 58.578125 C 44.285156 59.21875 43.695312 59.71875 42.976562 60.085938 C 41.863281 62.285156 41.195312 64.632812 40.964844 67.128906 C 40.355469 68.109375 39.515625 68.863281 38.453125 69.390625 C 35.359375 69.875 32.34375 69.625 29.40625 68.636719 C 29.101562 68.699219 28.933594 68.867188 28.902344 69.136719 C 27.25 68.789062 25.660156 68.789062 24.128906 69.136719 C 23.898438 69.765625 24.148438 70.183594 24.882812 70.394531 C 24.132812 71.277344 24.300781 71.867188 25.382812 72.15625 C 27.3125 73.316406 29.324219 74.40625 31.414062 75.421875 C 22.109375 78.328125 15.074219 75.5625 10.304688 67.128906 C 10.640625 66.625 10.972656 66.121094 11.308594 65.617188 C 6.679688 64.085938 3.660156 60.984375 2.261719 56.316406 C 2.429688 56.066406 2.597656 55.8125 2.765625 55.5625 C 4.746094 57.476562 7.09375 58.402344 9.800781 58.328125 C 8.023438 56.003906 7.269531 53.40625 7.539062 50.535156 C 10.441406 54.710938 14.378906 56.472656 19.351562 55.8125 C 18.480469 52.976562 17.390625 50.210938 16.085938 47.515625 C 15.75 46.679688 15.75 45.839844 16.085938 45.003906 C 17.828125 46.753906 19.921875 47.761719 22.367188 48.019531 C 23.871094 43.085938 23.703125 38.226562 21.863281 33.4375 C 22.554688 33.515625 23.226562 33.433594 23.875 33.1875 C 22.671875 32.203125 21.917969 30.949219 21.613281 29.414062 C 21.15625 29.996094 20.734375 29.910156 20.355469 29.164062 C 20.96875 28.335938 21.386719 27.414062 21.613281 26.398438 C 21.949219 26.734375 22.285156 27.070312 22.617188 27.402344 C 22.125 26.507812 22.292969 25.671875 23.121094 24.890625 C 24.292969 24.21875 25.46875 24.21875 26.640625 24.890625 C 26.890625 24.636719 27.144531 24.386719 27.394531 24.136719 C 26.828125 24.011719 26.328125 23.757812 25.886719 23.382812 C 26.054688 23.214844 26.222656 23.046875 26.390625 22.878906 C 28.546875 22.871094 30.222656 22.03125 31.414062 20.363281 C 32.757812 19.550781 34.265625 19.214844 35.9375 19.359375 Z M 35.9375 19.359375 "/>
<path style=" stroke:none;fill-rule:evenodd;fill:rgb(62.745098%,69.803922%,70.588235%);fill-opacity:1;" d="M 39.457031 40.476562 C 40.964844 40.476562 42.472656 40.476562 43.980469 40.476562 C 43.980469 41.148438 43.980469 41.816406 43.980469 42.488281 C 42.042969 42.578125 40.535156 41.90625 39.457031 40.476562 Z M 39.457031 40.476562 "/>
<path style=" stroke:none;fill-rule:evenodd;fill:rgb(71.764706%,73.333333%,71.764706%);fill-opacity:1;" d="M 69.113281 12.820312 C 76.210938 16.316406 77.550781 21.34375 73.136719 27.90625 C 72.941406 26.472656 72.941406 24.964844 73.136719 23.382812 C 73.21875 22.03125 73.132812 20.6875 72.882812 19.359375 C 71.601562 17.125 70.347656 14.945312 69.113281 12.820312 Z M 69.113281 12.820312 "/>
<path style=" stroke:none;fill-rule:evenodd;fill:rgb(79.607843%,81.176471%,80.392157%);fill-opacity:1;" d="M 59.0625 17.851562 C 57.042969 17.765625 55.03125 17.851562 53.027344 18.101562 C 50.894531 18.8125 49.554688 20.238281 49.007812 22.375 C 48.523438 23.261719 48.355469 24.269531 48.503906 25.394531 C 48.144531 25.183594 47.890625 24.847656 47.75 24.386719 C 47.417969 22.878906 47.417969 21.371094 47.75 19.863281 C 49.363281 16.585938 51.960938 15.328125 55.542969 16.089844 C 59.394531 16.5 59.230469 16.835938 55.039062 17.097656 C 56.480469 17.1875 57.820312 17.4375 59.0625 17.851562 Z M 59.0625 17.851562 "/>
<path style=" stroke:none;fill-rule:evenodd;fill:rgb(71.372549%,81.176471%,86.666667%);fill-opacity:1;" d="M 35.9375 19.359375 C 34.265625 19.214844 32.757812 19.550781 31.414062 20.363281 C 30.007812 20.667969 28.667969 21.167969 27.394531 21.871094 C 26.882812 21.621094 26.796875 21.285156 27.144531 20.867188 C 32.363281 15.605469 38.648438 13.679688 45.992188 15.085938 C 44.242188 17.828125 42.984375 20.757812 42.222656 23.882812 C 40.890625 21.289062 38.796875 19.78125 35.9375 19.359375 Z M 35.9375 19.359375 "/>
<path style=" stroke:none;fill-rule:evenodd;fill:rgb(1.176471%,1.176471%,1.176471%);fill-opacity:1;" d="M 59.0625 17.851562 C 62.359375 17.910156 64.957031 19.253906 66.851562 21.871094 C 67.269531 26.734375 65.511719 30.589844 61.574219 33.4375 C 60.246094 34.269531 58.90625 35.109375 57.554688 35.953125 C 57.246094 35.890625 57.082031 35.722656 57.050781 35.449219 C 54.921875 31.808594 52.40625 28.457031 49.511719 25.394531 C 49.023438 24.4375 48.859375 23.433594 49.007812 22.375 C 49.554688 20.238281 50.894531 18.8125 53.027344 18.101562 C 55.03125 17.851562 57.042969 17.765625 59.0625 17.851562 Z M 59.0625 17.851562 "/>
<path style=" stroke:none;fill-rule:evenodd;fill:rgb(92.941176%,43.529412%,24.705882%);fill-opacity:1;" d="M 25.886719 10.308594 C 27.488281 10.605469 28.996094 11.191406 30.410156 12.066406 C 29.03125 13.09375 27.523438 13.847656 25.886719 14.332031 C 25.808594 13.640625 25.890625 12.96875 26.136719 12.320312 C 26.664062 12.832031 27.25 12.914062 27.898438 12.570312 C 26.269531 11.703125 24.59375 11.621094 22.871094 12.320312 C 22.871094 11.816406 22.871094 11.3125 22.871094 10.8125 C 23.992188 10.957031 25 10.792969 25.886719 10.308594 Z M 25.886719 10.308594 "/>
<path style=" stroke:none;fill-rule:evenodd;fill:rgb(20.784314%,14.509804%,15.294118%);fill-opacity:1;" d="M 40.464844 6.285156 C 42.648438 6.203125 44.824219 6.285156 46.996094 6.535156 C 47.878906 7.417969 48.210938 8.507812 48.003906 9.804688 C 43.785156 9.769531 39.59375 9.851562 35.4375 10.054688 C 37.054688 8.667969 38.730469 7.410156 40.464844 6.285156 Z M 40.464844 6.285156 "/>
<path style=" stroke:none;fill-rule:evenodd;fill:rgb(90.588235%,89.803922%,87.45098%);fill-opacity:1;" d="M 62.578125 7.289062 C 62.300781 6.640625 61.796875 6.222656 61.070312 6.035156 C 59.730469 5.699219 58.390625 5.699219 57.050781 6.035156 C 55.277344 7.070312 53.601562 8.160156 52.023438 9.300781 C 51.519531 9.300781 51.019531 9.300781 50.515625 9.300781 C 51.128906 5.917969 53.136719 3.65625 56.546875 2.515625 C 62.394531 1.664062 66.25 4.011719 68.109375 9.554688 C 67.941406 9.804688 67.773438 10.054688 67.605469 10.308594 C 66.628906 9.960938 65.625 9.710938 64.589844 9.554688 C 64.171875 8.550781 63.503906 7.796875 62.578125 7.289062 Z M 62.578125 7.289062 "/>
<path style=" stroke:none;fill-rule:evenodd;fill:rgb(66.666667%,66.27451%,65.490196%);fill-opacity:1;" d="M 62.578125 7.289062 C 62.578125 7.960938 62.578125 8.632812 62.578125 9.300781 C 59.0625 9.300781 55.542969 9.300781 52.023438 9.300781 C 53.601562 8.160156 55.277344 7.070312 57.050781 6.035156 C 58.390625 5.699219 59.730469 5.699219 61.070312 6.035156 C 61.796875 6.222656 62.300781 6.640625 62.578125 7.289062 Z M 62.578125 7.289062 "/>
<path style=" stroke:none;fill-rule:evenodd;fill:rgb(64.705882%,65.098039%,63.529412%);fill-opacity:1;" d="M 74.644531 53.046875 C 75.480469 52.378906 76.316406 52.378906 77.15625 53.046875 C 77.875 53.417969 78.378906 54.003906 78.664062 54.808594 C 78.582031 58.613281 77.15625 59.367188 74.390625 57.070312 C 73.910156 55.621094 74.160156 54.367188 75.144531 53.300781 C 75.03125 53.097656 74.863281 53.015625 74.644531 53.046875 Z M 74.644531 53.046875 "/>
<path style=" stroke:none;fill-rule:evenodd;fill:rgb(55.686275%,56.078431%,57.647059%);fill-opacity:1;" d="M 89.21875 56.066406 C 89.890625 56.566406 89.890625 57.070312 89.21875 57.574219 C 88.238281 57.160156 87.230469 57.074219 86.203125 57.320312 C 85.78125 57.832031 85.617188 58.417969 85.699219 59.082031 C 85.222656 58.367188 85.054688 57.53125 85.199219 56.566406 C 86.574219 56.617188 87.914062 56.449219 89.21875 56.066406 Z M 89.21875 56.066406 "/>
<path style=" stroke:none;fill-rule:evenodd;fill:rgb(88.235294%,88.627451%,89.019608%);fill-opacity:1;" d="M 89.21875 56.066406 C 87.914062 56.449219 86.574219 56.617188 85.199219 56.566406 C 85.054688 57.53125 85.222656 58.367188 85.699219 59.082031 C 85.671875 59.355469 85.503906 59.523438 85.199219 59.585938 C 84.703125 58.113281 84.535156 56.605469 84.695312 55.058594 C 86.046875 54.976562 87.386719 55.0625 88.71875 55.3125 C 88.996094 55.503906 89.164062 55.753906 89.21875 56.066406 Z M 89.21875 56.066406 "/>
<path style=" stroke:none;fill-rule:evenodd;fill:rgb(85.098039%,85.490196%,85.882353%);fill-opacity:1;" d="M 89.21875 57.574219 C 88.179688 58.300781 87.007812 58.804688 85.699219 59.082031 C 85.617188 58.417969 85.78125 57.832031 86.203125 57.320312 C 87.230469 57.074219 88.238281 57.160156 89.21875 57.574219 Z M 89.21875 57.574219 "/>
<path style=" stroke:none;fill-rule:evenodd;fill:rgb(77.647059%,78.431373%,77.647059%);fill-opacity:1;" d="M 80.171875 55.5625 C 81.34375 55.5625 82.519531 55.5625 83.691406 55.5625 C 83.410156 57.46875 82.40625 58.808594 80.675781 59.585938 C 79.785156 59.617188 79.285156 59.199219 79.167969 58.328125 C 79.457031 57.371094 79.792969 56.449219 80.171875 55.5625 Z M 80.171875 55.5625 "/>
<path style=" stroke:none;fill-rule:evenodd;fill:rgb(8.235294%,8.235294%,9.019608%);fill-opacity:1;" d="M 80.171875 57.574219 C 80.550781 57.035156 81.050781 56.949219 81.679688 57.320312 C 81.25 58.191406 80.75 58.273438 80.171875 57.574219 Z M 80.171875 57.574219 "/>
<use xlink:href="#surface20" mask="url(#mask5)"/>
<use xlink:href="#surface23" mask="url(#mask6)"/>
<path style=" stroke:none;fill-rule:evenodd;fill:rgb(87.843137%,87.058824%,84.705882%);fill-opacity:1;" d="M 76.652344 61.09375 C 78.917969 61.902344 81.265625 62.238281 83.691406 62.097656 C 83.902344 64.484375 82.8125 65.660156 80.421875 65.617188 C 79.402344 65.691406 78.5625 65.355469 77.910156 64.613281 C 77.339844 63.484375 76.917969 62.3125 76.652344 61.09375 Z M 76.652344 61.09375 "/>
<path style=" stroke:none;fill-rule:evenodd;fill:rgb(75.686275%,76.078431%,74.901961%);fill-opacity:1;" d="M 73.636719 53.046875 C 72.898438 53.882812 72.5625 54.886719 72.632812 56.066406 C 72.996094 59.25 73.917969 62.269531 75.398438 65.117188 C 75.582031 69.769531 73.488281 72.953125 69.113281 74.667969 C 70.273438 73.078125 71.363281 71.402344 72.382812 69.640625 C 72.714844 67.292969 72.714844 64.949219 72.382812 62.601562 C 71.796875 59.273438 71.378906 55.921875 71.125 52.546875 C 72.085938 52.402344 72.925781 52.570312 73.636719 53.046875 Z M 73.636719 53.046875 "/>
<path style=" stroke:none;fill-rule:evenodd;fill:rgb(69.411765%,82.352941%,86.27451%);fill-opacity:1;" d="M 28.902344 69.136719 C 28.933594 68.867188 29.101562 68.699219 29.40625 68.636719 C 32.34375 69.625 35.359375 69.875 38.453125 69.390625 C 39.515625 68.863281 40.355469 68.109375 40.964844 67.128906 C 41.800781 66.125 42.386719 64.953125 42.726562 63.605469 C 43.046875 66.582031 43.96875 69.347656 45.488281 71.902344 C 39.714844 72.359375 34.183594 71.4375 28.902344 69.136719 Z M 28.902344 69.136719 "/>
<path style=" stroke:none;fill-rule:evenodd;fill:rgb(70.980392%,71.764706%,70.980392%);fill-opacity:1;" d="M 66.601562 62.601562 C 68.007812 65.449219 67.339844 67.878906 64.589844 69.894531 C 61.332031 70.542969 58.484375 71.296875 56.046875 72.15625 C 56.597656 71.703125 56.597656 71.285156 56.046875 70.898438 C 54.476562 70.21875 52.96875 70.136719 51.519531 70.648438 C 50.636719 70.265625 50.132812 69.59375 50.011719 68.636719 C 54.15625 69.871094 58.34375 69.953125 62.578125 68.886719 C 65.6875 67.882812 67.027344 65.785156 66.601562 62.601562 Z M 66.601562 62.601562 "/>
<path style=" stroke:none;fill-rule:evenodd;fill:rgb(9.803922%,10.588235%,9.803922%);fill-opacity:1;" d="M 56.046875 72.15625 C 54.261719 72.339844 52.753906 71.835938 51.519531 70.648438 C 52.96875 70.136719 54.476562 70.21875 56.046875 70.898438 C 56.597656 71.285156 56.597656 71.703125 56.046875 72.15625 Z M 56.046875 72.15625 "/>
<path style=" stroke:none;fill-rule:evenodd;fill:rgb(37.254902%,28.627451%,23.529412%);fill-opacity:1;" d="M 34.933594 76.679688 C 36.742188 76.496094 38.082031 77.167969 38.953125 78.691406 C 37.148438 79.453125 35.640625 79.03125 34.429688 77.433594 C 34.710938 77.242188 34.878906 76.992188 34.933594 76.679688 Z M 34.933594 76.679688 "/>
<path style=" stroke:none;fill-rule:evenodd;fill:rgb(90.588235%,90.196078%,88.235294%);fill-opacity:1;" d="M 52.527344 78.1875 C 53.382812 80.140625 54.890625 81.398438 57.050781 81.960938 C 58.492188 82.363281 59.832031 82.277344 61.070312 81.710938 C 63.023438 81.265625 64.367188 80.089844 65.09375 78.1875 C 66.046875 77.703125 67.050781 77.535156 68.109375 77.6875 C 67.152344 82.664062 64.136719 85.347656 59.0625 85.730469 C 55.878906 85.523438 53.28125 84.179688 51.269531 81.710938 C 49.949219 79.757812 50.367188 78.585938 52.527344 78.1875 Z M 52.527344 78.1875 "/>
<path style=" stroke:none;fill-rule:evenodd;fill:rgb(65.490196%,66.27451%,64.705882%);fill-opacity:1;" d="M 52.527344 78.1875 C 55.878906 78.1875 59.226562 78.1875 62.578125 78.1875 C 62.484375 79.550781 61.980469 80.722656 61.070312 81.710938 C 59.832031 82.277344 58.492188 82.363281 57.050781 81.960938 C 54.890625 81.398438 53.382812 80.140625 52.527344 78.1875 Z M 52.527344 78.1875 "/>
<use xlink:href="#surface26" mask="url(#mask7)"/>
</g>
</svg>
