<?xml version="1.0" encoding="UTF-8"?>
<svg xmlns="http://www.w3.org/2000/svg" xmlns:xlink="http://www.w3.org/1999/xlink" width="px" height="px" viewBox="0 0 86 87" version="1.1">
<defs>
<filter id="alpha" filterUnits="objectBoundingBox" x="0%" y="0%" width="100%" height="100%">
  <feColorMatrix type="matrix" in="SourceGraphic" values="0 0 0 0 1 0 0 0 0 1 0 0 0 0 1 0 0 0 1 0"/>
</filter>
<mask id="mask0">
  <g filter="url(#alpha)">
<rect x="0" y="0" width="86" height="87" style="fill:rgb(0%,0%,0%);fill-opacity:0.0196078;stroke:none;"/>
  </g>
</mask>
<clipPath id="clip1">
  <rect x="0" y="0" width="86" height="87"/>
</clipPath>
<g id="surface5" clip-path="url(#clip1)">
<path style=" stroke:none;fill-rule:evenodd;fill:rgb(17.647059%,24.313725%,27.45098%);fill-opacity:1;" d="M 26.75 1.738281 C 32.898438 0.523438 38.816406 1.351562 44.5 4.226562 C 44.855469 3.789062 45.269531 3.457031 45.75 3.230469 C 45.792969 4.101562 45.375 4.597656 44.5 4.722656 C 41.613281 3.710938 38.695312 2.800781 35.75 1.988281 C 32.753906 1.742188 29.753906 1.65625 26.75 1.738281 Z M 26.75 1.738281 "/>
</g>
<mask id="mask1">
  <g filter="url(#alpha)">
<rect x="0" y="0" width="86" height="87" style="fill:rgb(0%,0%,0%);fill-opacity:0.00392157;stroke:none;"/>
  </g>
</mask>
<clipPath id="clip2">
  <rect x="0" y="0" width="86" height="87"/>
</clipPath>
<g id="surface8" clip-path="url(#clip2)">
<path style=" stroke:none;fill-rule:evenodd;fill:rgb(18.039216%,24.705882%,28.235294%);fill-opacity:1;" d="M 50.25 0.25 C 50.25 0.0820312 50.25 -0.0820312 50.25 -0.25 C 52.917969 -0.25 55.582031 -0.25 58.25 -0.25 C 60.007812 0.546875 61.507812 1.707031 62.75 3.230469 C 63.8125 4.347656 64.3125 5.671875 64.25 7.207031 C 61.550781 1.226562 56.882812 -1.09375 50.25 0.25 Z M 50.25 0.25 "/>
</g>
<mask id="mask2">
  <g filter="url(#alpha)">
<rect x="0" y="0" width="86" height="87" style="fill:rgb(0%,0%,0%);fill-opacity:0.996078;stroke:none;"/>
  </g>
</mask>
<clipPath id="clip3">
  <rect x="0" y="0" width="86" height="87"/>
</clipPath>
<g id="surface11" clip-path="url(#clip3)">
<path style=" stroke:none;fill-rule:evenodd;fill:rgb(6.27451%,3.529412%,3.137255%);fill-opacity:1;" d="M 50.25 0.25 C 56.882812 -1.09375 61.550781 1.226562 64.25 7.207031 C 64.171875 8.054688 64.253906 8.882812 64.5 9.695312 C 69.363281 11.796875 72.28125 15.441406 73.25 20.632812 C 73.917969 20.632812 74.582031 20.632812 75.25 20.632812 C 75.417969 20.632812 75.582031 20.632812 75.75 20.632812 C 79.144531 20.695312 81.144531 22.355469 81.75 25.601562 C 82.1875 27.128906 82.1875 28.789062 81.75 30.574219 C 81.230469 29.378906 80.5625 28.21875 79.75 27.09375 C 79.457031 27.199219 79.207031 27.363281 79 27.589844 C 78.753906 28.570312 78.667969 29.566406 78.75 30.574219 C 78.75 30.90625 78.582031 31.070312 78.25 31.070312 C 78.25 30.078125 78.25 29.082031 78.25 28.089844 C 77.082031 28.089844 75.917969 28.089844 74.75 28.089844 C 74.75 28.75 74.75 29.414062 74.75 30.078125 C 74.75 37.535156 74.75 44.992188 74.75 52.449219 C 74.875 54.144531 74.707031 55.800781 74.25 57.421875 C 75.144531 58.105469 76.144531 58.601562 77.25 58.910156 C 77.417969 58.664062 77.582031 58.414062 77.75 58.164062 C 78.171875 54.117188 78.503906 50.058594 78.75 45.984375 C 79.121094 50.375 79.121094 54.847656 78.75 59.410156 C 78.582031 59.738281 78.417969 60.070312 78.25 60.402344 C 76.195312 59.4375 74.03125 59.1875 71.75 59.65625 C 70.683594 60.429688 70.515625 61.34375 71.25 62.390625 C 70.753906 62.304688 70.421875 62.472656 70.25 62.886719 C 69.636719 62.488281 69.136719 61.992188 68.75 61.398438 C 68.675781 60.875 68.757812 60.378906 69 59.90625 C 70.125 58.972656 71.375 58.226562 72.75 57.667969 C 73.167969 57.164062 73.335938 56.585938 73.25 55.929688 C 73.746094 53.039062 73.910156 50.058594 73.75 46.980469 C 73.75 46.316406 73.75 45.652344 73.75 44.992188 C 74.417969 39.855469 74.417969 34.71875 73.75 29.578125 C 72.808594 28.679688 71.640625 28.097656 70.25 27.839844 C 69.195312 27.210938 68.695312 26.300781 68.75 25.105469 C 70.65625 23.789062 71.242188 21.964844 70.5 19.636719 C 69.664062 16.484375 67.746094 14.246094 64.75 12.925781 C 59.917969 12.675781 55.085938 12.59375 50.25 12.675781 C 46.03125 11.835938 41.699219 11.503906 37.25 11.683594 C 35.957031 11.917969 34.957031 11.585938 34.25 10.6875 C 38.546875 9.664062 42.878906 9.417969 47.25 9.941406 C 43.097656 6.800781 38.433594 4.898438 33.25 4.226562 C 28.625 3.699219 24.292969 4.527344 20.25 6.710938 C 19.65625 6.121094 19.65625 5.539062 20.25 4.972656 C 22.636719 4.117188 24.804688 3.039062 26.75 1.738281 C 29.753906 1.65625 32.753906 1.742188 35.75 1.988281 C 38.695312 2.800781 41.613281 3.710938 44.5 4.722656 C 45.375 4.597656 45.792969 4.101562 45.75 3.230469 C 46.648438 1.375 48.148438 0.378906 50.25 0.25 Z M 50.25 0.25 "/>
</g>
<mask id="mask3">
  <g filter="url(#alpha)">
<rect x="0" y="0" width="86" height="87" style="fill:rgb(0%,0%,0%);fill-opacity:0.121569;stroke:none;"/>
  </g>
</mask>
<clipPath id="clip4">
  <rect x="0" y="0" width="86" height="87"/>
</clipPath>
<g id="surface14" clip-path="url(#clip4)">
<path style=" stroke:none;fill-rule:evenodd;fill:rgb(18.431373%,25.490196%,29.019608%);fill-opacity:1;" d="M 64.25 7.207031 C 64.667969 7.777344 65.003906 8.4375 65.25 9.195312 C 69.949219 11.410156 72.867188 15.058594 74 20.132812 C 74.578125 19.605469 74.996094 19.769531 75.25 20.632812 C 74.582031 20.632812 73.917969 20.632812 73.25 20.632812 C 72.28125 15.441406 69.363281 11.796875 64.5 9.695312 C 64.253906 8.882812 64.171875 8.054688 64.25 7.207031 Z M 64.25 7.207031 "/>
</g>
<mask id="mask4">
  <g filter="url(#alpha)">
<rect x="0" y="0" width="86" height="87" style="fill:rgb(0%,0%,0%);fill-opacity:0.992157;stroke:none;"/>
  </g>
</mask>
<clipPath id="clip5">
  <rect x="0" y="0" width="86" height="87"/>
</clipPath>
<g id="surface17" clip-path="url(#clip5)">
<path style=" stroke:none;fill-rule:evenodd;fill:rgb(6.27451%,7.45098%,7.843137%);fill-opacity:1;" d="M 26.75 1.738281 C 24.804688 3.039062 22.636719 4.117188 20.25 4.972656 C 19.65625 5.539062 19.65625 6.121094 20.25 6.710938 C 17.617188 8.171875 15.285156 9.992188 13.25 12.179688 C 9.261719 16.625 6.429688 21.765625 4.75 27.589844 C 4.257812 29.386719 3.839844 31.210938 3.5 33.058594 C 3.167969 39.027344 3.167969 44.992188 3.5 50.957031 C 3.972656 55.824219 5.222656 60.464844 7.25 64.878906 C 12.058594 75.714844 20.390625 81.351562 32.25 81.78125 C 31.152344 82.109375 29.984375 82.441406 28.75 82.773438 C 31.5625 83.285156 34.398438 83.617188 37.25 83.769531 C 37.042969 84.898438 36.460938 85.0625 35.5 84.265625 C 34.617188 84.5 33.785156 84.832031 33 85.261719 C 31.613281 84.671875 30.195312 84.671875 28.75 85.261719 C 27.90625 85.128906 27.15625 84.800781 26.5 84.265625 C 26.292969 84.492188 26.042969 84.660156 25.75 84.761719 C 22.453125 83.621094 19.289062 82.214844 16.25 80.539062 C 15.402344 79.886719 14.738281 79.140625 14.25 78.300781 C 6.855469 71.214844 2.355469 62.601562 0.75 52.449219 C 0.453125 50.738281 0.117188 49.082031 -0.25 47.476562 C -0.25 45.984375 -0.25 44.496094 -0.25 43.003906 C 0.195312 38.609375 0.609375 34.132812 1 29.578125 C 1.117188 28.964844 1.367188 28.46875 1.75 28.089844 C 2.703125 26.242188 3.371094 24.253906 3.75 22.121094 C 6.632812 13.367188 12.300781 6.988281 20.75 2.984375 C 22.6875 2.253906 24.6875 1.835938 26.75 1.738281 Z M 26.75 1.738281 "/>
</g>
<mask id="mask5">
  <g filter="url(#alpha)">
<rect x="0" y="0" width="86" height="87" style="fill:rgb(0%,0%,0%);fill-opacity:0.0313725;stroke:none;"/>
  </g>
</mask>
<clipPath id="clip6">
  <rect x="0" y="0" width="86" height="87"/>
</clipPath>
<g id="surface20" clip-path="url(#clip6)">
<path style=" stroke:none;fill-rule:evenodd;fill:rgb(18.431373%,25.098039%,29.019608%);fill-opacity:1;" d="M 75.75 20.632812 C 77.773438 20.101562 79.605469 20.597656 81.25 22.121094 C 83.1875 25.472656 84.6875 28.953125 85.75 32.5625 C 85.75 33.390625 85.75 34.21875 85.75 35.046875 C 85.417969 34.882812 85.082031 34.71875 84.75 34.550781 C 84.355469 31.316406 83.355469 28.332031 81.75 25.601562 C 81.144531 22.355469 79.144531 20.695312 75.75 20.632812 Z M 75.75 20.632812 "/>
</g>
<mask id="mask6">
  <g filter="url(#alpha)">
<rect x="0" y="0" width="86" height="87" style="fill:rgb(0%,0%,0%);fill-opacity:0.0117647;stroke:none;"/>
  </g>
</mask>
<clipPath id="clip7">
  <rect x="0" y="0" width="86" height="87"/>
</clipPath>
<g id="surface23" clip-path="url(#clip7)">
<path style=" stroke:none;fill-rule:evenodd;fill:rgb(17.254902%,25.098039%,28.627451%);fill-opacity:1;" d="M 3.75 22.121094 C 3.371094 24.253906 2.703125 26.242188 1.75 28.089844 C 1.734375 25.8125 2.402344 23.824219 3.75 22.121094 Z M 3.75 22.121094 "/>
</g>
<mask id="mask7">
  <g filter="url(#alpha)">
<rect x="0" y="0" width="86" height="87" style="fill:rgb(0%,0%,0%);fill-opacity:0.996078;stroke:none;"/>
  </g>
</mask>
<clipPath id="clip8">
  <rect x="0" y="0" width="86" height="87"/>
</clipPath>
<g id="surface26" clip-path="url(#clip8)">
<path style=" stroke:none;fill-rule:evenodd;fill:rgb(4.705882%,3.137255%,2.745098%);fill-opacity:1;" d="M 81.75 25.601562 C 83.355469 28.332031 84.355469 31.316406 84.75 34.550781 C 84.75 34.882812 84.75 35.214844 84.75 35.546875 C 84.75 39.6875 84.75 43.832031 84.75 47.972656 C 84.75 48.304688 84.75 48.636719 84.75 48.96875 C 84.496094 54.117188 83.082031 58.921875 80.5 63.386719 C 79.894531 64.15625 79.144531 64.734375 78.25 65.125 C 76.394531 65.210938 74.5625 65.460938 72.75 65.871094 C 71.730469 70.527344 69.0625 73.84375 64.75 75.8125 C 61.953125 85.058594 56.121094 87.625 47.25 83.519531 C 46.355469 82.636719 45.519531 81.722656 44.75 80.785156 C 42.273438 81.988281 39.773438 82.984375 37.25 83.769531 C 34.398438 83.617188 31.5625 83.285156 28.75 82.773438 C 29.984375 82.441406 31.152344 82.109375 32.25 81.78125 C 37.277344 81.632812 41.777344 80.058594 45.75 77.058594 C 42.890625 76.929688 40.058594 76.679688 37.25 76.3125 C 36.917969 75.648438 36.582031 74.984375 36.25 74.324219 C 41.289062 75.042969 46.289062 74.792969 51.25 73.578125 C 55.578125 73.328125 59.914062 73.246094 64.25 73.328125 C 65.925781 72.65625 67.09375 71.496094 67.75 69.847656 C 69.5625 67.925781 70.394531 65.605469 70.25 62.886719 C 70.421875 62.472656 70.753906 62.304688 71.25 62.390625 C 73.304688 63.359375 75.46875 63.605469 77.75 63.136719 C 79.46875 62.417969 79.636719 61.507812 78.25 60.402344 C 78.417969 60.070312 78.582031 59.738281 78.75 59.410156 C 79.246094 59.453125 79.664062 59.285156 80 58.910156 C 80.972656 57.03125 81.640625 55.042969 82 52.945312 C 82.390625 45.472656 82.308594 38.015625 81.75 30.574219 C 82.1875 28.789062 82.1875 27.128906 81.75 25.601562 Z M 81.75 25.601562 "/>
</g>
<mask id="mask8">
  <g filter="url(#alpha)">
<rect x="0" y="0" width="86" height="87" style="fill:rgb(0%,0%,0%);fill-opacity:0.00784314;stroke:none;"/>
  </g>
</mask>
<clipPath id="clip9">
  <rect x="0" y="0" width="86" height="87"/>
</clipPath>
<g id="surface29" clip-path="url(#clip9)">
<path style=" stroke:none;fill-rule:evenodd;fill:rgb(18.039216%,23.921569%,27.058824%);fill-opacity:1;" d="M 0.75 52.449219 C 2.355469 62.601562 6.855469 71.214844 14.25 78.300781 C 13.722656 78.375 13.222656 78.292969 12.75 78.050781 C 5.714844 70.9375 1.714844 62.402344 0.75 52.449219 Z M 0.75 52.449219 "/>
</g>
<mask id="mask9">
  <g filter="url(#alpha)">
<rect x="0" y="0" width="86" height="87" style="fill:rgb(0%,0%,0%);fill-opacity:0.0313725;stroke:none;"/>
  </g>
</mask>
<clipPath id="clip10">
  <rect x="0" y="0" width="86" height="87"/>
</clipPath>
<g id="surface32" clip-path="url(#clip10)">
<path style=" stroke:none;fill-rule:evenodd;fill:rgb(17.647059%,24.313725%,27.843137%);fill-opacity:1;" d="M 84.75 35.546875 C 85.082031 35.546875 85.417969 35.546875 85.75 35.546875 C 85.75 35.710938 85.75 35.878906 85.75 36.042969 C 85.082031 36.707031 85.082031 37.367188 85.75 38.03125 C 85.75 38.195312 85.75 38.363281 85.75 38.527344 C 85.082031 38.695312 85.082031 38.859375 85.75 39.027344 C 85.75 39.191406 85.75 39.355469 85.75 39.523438 C 85.082031 41.179688 85.082031 42.835938 85.75 44.496094 C 85.75 45.324219 85.75 46.152344 85.75 46.980469 C 85.082031 47.144531 85.082031 47.3125 85.75 47.476562 C 85.75 49.132812 85.75 50.792969 85.75 52.449219 C 84.871094 57.425781 82.707031 61.816406 79.25 65.621094 C 77.886719 65.757812 76.554688 66.003906 75.25 66.367188 C 74.957031 66.265625 74.707031 66.097656 74.5 65.871094 C 72.832031 68.523438 71.167969 71.175781 69.5 73.824219 C 68 74.984375 66.5 76.144531 65 77.304688 C 62.953125 84.035156 58.453125 87.019531 51.5 86.253906 C 48.757812 85.390625 46.425781 83.898438 44.5 81.78125 C 42.179688 83.132812 39.765625 83.796875 37.25 83.769531 C 39.773438 82.984375 42.273438 81.988281 44.75 80.785156 C 45.519531 81.722656 46.355469 82.636719 47.25 83.519531 C 56.121094 87.625 61.953125 85.058594 64.75 75.8125 C 69.0625 73.84375 71.730469 70.527344 72.75 65.871094 C 74.5625 65.460938 76.394531 65.210938 78.25 65.125 C 79.144531 64.734375 79.894531 64.15625 80.5 63.386719 C 83.082031 58.921875 84.496094 54.117188 84.75 48.96875 C 85.417969 48.636719 85.417969 48.304688 84.75 47.972656 C 84.75 43.832031 84.75 39.6875 84.75 35.546875 Z M 84.75 35.546875 "/>
</g>
<mask id="mask10">
  <g filter="url(#alpha)">
<rect x="0" y="0" width="86" height="87" style="fill:rgb(0%,0%,0%);fill-opacity:0.00392157;stroke:none;"/>
  </g>
</mask>
<clipPath id="clip11">
  <rect x="0" y="0" width="86" height="87"/>
</clipPath>
<g id="surface35" clip-path="url(#clip11)">
<path style=" stroke:none;fill-rule:evenodd;fill:rgb(17.647059%,24.705882%,28.627451%);fill-opacity:1;" d="M 54.25 86.75 C 53.917969 86.089844 53.917969 86.089844 54.25 86.75 Z M 54.25 86.75 "/>
</g>
</defs>
<g id="surface1">
<use xlink:href="#surface5" mask="url(#mask0)"/>
<use xlink:href="#surface8" mask="url(#mask1)"/>
<use xlink:href="#surface11" mask="url(#mask2)"/>
<path style=" stroke:none;fill-rule:evenodd;fill:rgb(79.607843%,47.843137%,32.156863%);fill-opacity:1;" d="M 62.25 9.695312 C 57.71875 7.453125 52.886719 6.625 47.75 7.207031 C 46.570312 6.765625 46.488281 6.105469 47.5 5.21875 C 50.132812 2.859375 53.21875 2.113281 56.75 2.984375 C 59.824219 4.203125 61.65625 6.4375 62.25 9.695312 Z M 62.25 9.695312 "/>
<path style=" stroke:none;fill-rule:evenodd;fill:rgb(56.470588%,26.27451%,16.078431%);fill-opacity:1;" d="M 47.75 7.207031 C 52.886719 6.625 57.71875 7.453125 62.25 9.695312 C 59.085938 9.617188 55.835938 9.78125 52.5 10.191406 C 50.582031 9.6875 49 8.691406 47.75 7.207031 Z M 47.75 7.207031 "/>
<path style=" stroke:none;fill-rule:evenodd;fill:rgb(85.098039%,72.156863%,58.823529%);fill-opacity:1;" d="M 33.25 4.226562 C 38.433594 4.898438 43.097656 6.800781 47.25 9.941406 C 42.878906 9.417969 38.546875 9.664062 34.25 10.6875 C 29.609375 12.167969 25.609375 14.652344 22.25 18.144531 C 21.867188 17.21875 21.367188 16.386719 20.75 15.660156 C 20.722656 15.109375 20.554688 14.613281 20.25 14.167969 C 20.867188 14.277344 21.367188 14.609375 21.75 15.164062 C 24.410156 13.859375 26.074219 11.871094 26.75 9.195312 C 26.898438 10.597656 27.566406 10.929688 28.75 10.191406 C 29.230469 9.007812 28.730469 8.507812 27.25 8.699219 C 28.113281 8.050781 29.027344 8.050781 30 8.699219 C 31.425781 7.582031 31.84375 6.257812 31.25 4.722656 C 32.050781 4.855469 32.714844 4.691406 33.25 4.226562 Z M 33.25 4.226562 "/>
<path style=" stroke:none;fill-rule:evenodd;fill:rgb(50.588235%,19.215686%,9.411765%);fill-opacity:1;" d="M 27.25 8.699219 C 28.730469 8.507812 29.230469 9.007812 28.75 10.191406 C 27.566406 10.929688 26.898438 10.597656 26.75 9.195312 C 26.75 8.867188 26.917969 8.699219 27.25 8.699219 Z M 27.25 8.699219 "/>
<use xlink:href="#surface14" mask="url(#mask3)"/>
<path style=" stroke:none;fill-rule:evenodd;fill:rgb(58.431373%,22.745098%,12.941176%);fill-opacity:1;" d="M 20.25 14.167969 C 20.554688 14.613281 20.722656 15.109375 20.75 15.660156 C 19.0625 16.308594 18.398438 15.644531 18.75 13.671875 C 19.394531 13.554688 19.894531 13.71875 20.25 14.167969 Z M 20.25 14.167969 "/>
<path style=" stroke:none;fill-rule:evenodd;fill:rgb(96.470588%,87.45098%,76.078431%);fill-opacity:1;" d="M 33.25 4.226562 C 32.714844 4.691406 32.050781 4.855469 31.25 4.722656 C 31.84375 6.257812 31.425781 7.582031 30 8.699219 C 29.027344 8.050781 28.113281 8.050781 27.25 8.699219 C 26.917969 8.699219 26.75 8.867188 26.75 9.195312 C 26.074219 11.871094 24.410156 13.859375 21.75 15.164062 C 21.367188 14.609375 20.867188 14.277344 20.25 14.167969 C 19.894531 13.71875 19.394531 13.554688 18.75 13.671875 C 18.398438 15.644531 19.0625 16.308594 20.75 15.660156 C 21.367188 16.386719 21.867188 17.21875 22.25 18.144531 C 21.25 19.472656 20.25 20.796875 19.25 22.121094 C 18.359375 21.429688 17.359375 21.179688 16.25 21.378906 C 16.582031 21.542969 16.917969 21.707031 17.25 21.875 C 16.816406 23.148438 15.984375 24.058594 14.75 24.609375 C 15.09375 25.386719 15.007812 26.214844 14.5 27.09375 C 13.3125 26.015625 12.394531 24.855469 11.75 23.613281 C 10.558594 23.761719 9.390625 23.511719 8.25 22.867188 C 8.917969 22.539062 8.917969 22.207031 8.25 21.875 C 9.722656 21.148438 9.886719 20.320312 8.75 19.386719 C 10.441406 17.097656 11.941406 14.695312 13.25 12.179688 C 15.285156 9.992188 17.617188 8.171875 20.25 6.710938 C 24.292969 4.527344 28.625 3.699219 33.25 4.226562 Z M 33.25 4.226562 "/>
<path style=" stroke:none;fill-rule:evenodd;fill:rgb(1.960784%,0.784314%,0.784314%);fill-opacity:1;" d="M 60.25 31.070312 C 53.097656 36.121094 47.511719 34.792969 43.5 27.09375 C 42.652344 21.984375 44.570312 18.339844 49.25 16.15625 C 55.09375 14.878906 59.34375 16.867188 62 22.121094 C 62.683594 25.375 62.097656 28.359375 60.25 31.070312 Z M 60.25 31.070312 "/>
<use xlink:href="#surface17" mask="url(#mask4)"/>
<path style=" stroke:none;fill-rule:evenodd;fill:rgb(39.607843%,19.215686%,7.843137%);fill-opacity:1;" d="M 12.75 16.15625 C 13.523438 16.316406 13.855469 16.8125 13.75 17.648438 C 12.375 17.699219 12.042969 17.199219 12.75 16.15625 Z M 12.75 16.15625 "/>
<path style=" stroke:none;fill-rule:evenodd;fill:rgb(75.686275%,41.568627%,24.705882%);fill-opacity:1;" d="M 50.25 12.675781 C 55.085938 12.59375 59.917969 12.675781 64.75 12.925781 C 67.746094 14.246094 69.664062 16.484375 70.5 19.636719 C 71.242188 21.964844 70.65625 23.789062 68.75 25.105469 C 68.269531 23.199219 67.851562 21.210938 67.5 19.140625 C 66.628906 17.445312 65.296875 16.285156 63.5 15.660156 C 63.25 15.824219 63 15.992188 62.75 16.15625 C 64.429688 20.535156 64.679688 25.007812 63.5 29.578125 C 63.074219 30.113281 62.65625 30.609375 62.25 31.070312 C 61.683594 30.648438 61.015625 30.648438 60.25 31.070312 C 62.097656 28.359375 62.683594 25.375 62 22.121094 C 59.34375 16.867188 55.09375 14.878906 49.25 16.15625 C 47.1875 15.289062 45.769531 15.949219 45 18.144531 C 43.953125 18.359375 42.953125 19.023438 42 20.132812 C 41.492188 22.613281 41.074219 25.097656 40.75 27.589844 C 39.28125 24.144531 39.617188 20.828125 41.75 17.648438 C 44.722656 16.175781 47.554688 14.515625 50.25 12.675781 Z M 50.25 12.675781 "/>
<path style=" stroke:none;fill-rule:evenodd;fill:rgb(82.745098%,51.372549%,31.764706%);fill-opacity:1;" d="M 37.25 11.683594 C 41.699219 11.503906 46.03125 11.835938 50.25 12.675781 C 47.554688 14.515625 44.722656 16.175781 41.75 17.648438 C 41.695312 17.339844 41.527344 17.09375 41.25 16.902344 C 36.015625 15.457031 31.515625 16.617188 27.75 20.382812 C 26.261719 20.875 24.761719 21.289062 23.25 21.625 C 24.25 20.132812 25.25 18.644531 26.25 17.152344 C 29.542969 14.519531 33.210938 12.695312 37.25 11.683594 Z M 37.25 11.683594 "/>
<path style=" stroke:none;fill-rule:evenodd;fill:rgb(86.666667%,59.215686%,39.215686%);fill-opacity:1;" d="M 41.75 17.648438 C 39.617188 20.828125 39.28125 24.144531 40.75 27.589844 C 40.75 27.921875 40.75 28.253906 40.75 28.585938 C 40.351562 29.351562 40.183594 30.179688 40.25 31.070312 C 38.871094 29.117188 37.371094 27.210938 35.75 25.355469 C 34.917969 25.023438 34.082031 25.023438 33.25 25.355469 C 32.152344 26.199219 30.984375 26.945312 29.75 27.589844 C 28.4375 26.640625 27.355469 25.480469 26.5 24.113281 C 25.757812 24.992188 25.589844 25.988281 26 27.09375 C 28.601562 32.328125 31.601562 37.296875 35 42.007812 C 35.246094 43.027344 35.160156 44.019531 34.75 44.992188 C 32.722656 47.523438 30.804688 50.171875 29 52.945312 C 28.128906 54.34375 27.546875 55.832031 27.25 57.421875 C 26.921875 57.867188 26.585938 58.363281 26.25 58.910156 C 25.6875 58.351562 25.023438 58.019531 24.25 57.917969 C 23.730469 56.804688 23.648438 55.644531 24 54.4375 C 26.605469 50.828125 29.023438 47.097656 31.25 43.25 C 27.945312 38.0625 24.613281 33.007812 21.25 28.089844 C 21.230469 27.550781 21.0625 27.054688 20.75 26.597656 C 20.921875 26.003906 21.171875 26.003906 21.5 26.597656 C 21.996094 24.878906 22.578125 23.222656 23.25 21.625 C 24.761719 21.289062 26.261719 20.875 27.75 20.382812 C 31.515625 16.617188 36.015625 15.457031 41.25 16.902344 C 41.527344 17.09375 41.695312 17.339844 41.75 17.648438 Z M 41.75 17.648438 "/>
<path style=" stroke:none;fill-rule:evenodd;fill:rgb(82.745098%,52.941176%,37.647059%);fill-opacity:1;" d="M 72.75 23.117188 C 74.589844 23.035156 76.425781 23.117188 78.25 23.367188 C 79.738281 25.207031 79.238281 26.367188 76.75 26.847656 C 74.917969 27.175781 73.082031 27.175781 71.25 26.847656 C 71.023438 26.640625 70.855469 26.390625 70.75 26.101562 C 71.234375 24.960938 71.898438 23.96875 72.75 23.117188 Z M 72.75 23.117188 "/>
<path style=" stroke:none;fill-rule:evenodd;fill:rgb(67.45098%,34.901961%,18.823529%);fill-opacity:1;" d="M 49.25 16.15625 C 44.570312 18.339844 42.652344 21.984375 43.5 27.09375 C 47.511719 34.792969 53.097656 36.121094 60.25 31.070312 C 61.015625 30.648438 61.683594 30.648438 62.25 31.070312 C 61.960938 32.023438 61.460938 32.851562 60.75 33.558594 C 52.441406 38.226562 45.773438 36.570312 40.75 28.585938 C 40.75 28.253906 40.75 27.921875 40.75 27.589844 C 41.074219 25.097656 41.492188 22.613281 42 20.132812 C 42.953125 19.023438 43.953125 18.359375 45 18.144531 C 45.769531 15.949219 47.1875 15.289062 49.25 16.15625 Z M 49.25 16.15625 "/>
<use xlink:href="#surface20" mask="url(#mask5)"/>
<use xlink:href="#surface23" mask="url(#mask6)"/>
<path style=" stroke:none;fill-rule:evenodd;fill:rgb(98.431373%,98.431373%,98.039216%);fill-opacity:1;" d="M 11.75 45.488281 C 11.945312 46.21875 12.113281 46.964844 12.25 47.726562 C 12.121094 48.386719 11.789062 48.882812 11.25 49.21875 C 11.863281 50.007812 11.695312 50.667969 10.75 51.207031 C 9.621094 51.324219 8.621094 51.40625 7.75 51.453125 C 7.890625 52.578125 8.390625 53.40625 9.25 53.941406 C 9.917969 53.941406 10.582031 53.941406 11.25 53.941406 C 11.25 53.441406 11.25 52.945312 11.25 52.449219 C 12.515625 52.613281 13.015625 53.191406 12.75 54.1875 C 13.960938 56.847656 14.960938 59.582031 15.75 62.390625 C 15.367188 62.597656 14.867188 62.679688 14.25 62.640625 C 14.945312 63.082031 14.859375 63.332031 14 63.386719 C 13.28125 63.0625 12.53125 62.898438 11.75 62.886719 C 11.75 63.386719 11.75 63.882812 11.75 64.378906 C 11.417969 64.378906 11.25 64.546875 11.25 64.878906 C 10.753906 64.917969 10.335938 64.753906 10 64.378906 C 9.855469 65.148438 9.523438 65.808594 9 66.367188 C 8.789062 65.410156 8.207031 64.914062 7.25 64.878906 C 5.222656 60.464844 3.972656 55.824219 3.5 50.957031 C 3.167969 44.992188 3.167969 39.027344 3.5 33.058594 C 3.839844 31.210938 4.257812 29.386719 4.75 27.589844 C 6.132812 26.800781 7.46875 25.890625 8.75 24.855469 C 12.027344 24.476562 13.109375 25.886719 12 29.082031 C 11.324219 30.683594 10.90625 32.339844 10.75 34.054688 C 9.75 34.054688 8.75 34.054688 7.75 34.054688 C 8.414062 37.003906 8.996094 39.984375 9.5 43.003906 C 10.03125 44.078125 10.78125 44.90625 11.75 45.488281 Z M 11.75 45.488281 "/>
<use xlink:href="#surface26" mask="url(#mask7)"/>
<path style=" stroke:none;fill-rule:evenodd;fill:rgb(94.509804%,85.882353%,78.039216%);fill-opacity:1;" d="M 40.25 31.070312 C 41.894531 35.015625 44.476562 38.164062 48 40.515625 C 49.074219 42.324219 48.988281 43.980469 47.75 45.488281 C 47.648438 44.425781 47.148438 43.597656 46.25 43.003906 C 46.664062 42.53125 46.746094 42.03125 46.5 41.511719 C 45.71875 41.789062 45.050781 41.457031 44.5 40.515625 C 44.242188 41.027344 43.992188 41.523438 43.75 42.007812 C 40.402344 37.757812 37.320312 33.285156 34.5 28.585938 C 33.007812 27.859375 31.757812 28.191406 30.75 29.578125 C 33.714844 33.988281 36.550781 38.464844 39.25 43.003906 C 37.996094 46.230469 36.160156 49.046875 33.75 51.453125 C 33.667969 50.609375 33.753906 49.78125 34 48.96875 C 34.167969 49.132812 34.332031 49.300781 34.5 49.464844 C 35.957031 47.21875 37.039062 45.0625 37.75 43.003906 C 37.652344 42.113281 37.234375 41.453125 36.5 41.015625 C 36.25 41.261719 36 41.511719 35.75 41.761719 C 36.53125 43.222656 36.195312 44.300781 34.75 44.992188 C 35.160156 44.019531 35.246094 43.027344 35 42.007812 C 31.601562 37.296875 28.601562 32.328125 26 27.09375 C 25.589844 25.988281 25.757812 24.992188 26.5 24.113281 C 27.355469 25.480469 28.4375 26.640625 29.75 27.589844 C 30.984375 26.945312 32.152344 26.199219 33.25 25.355469 C 34.082031 25.023438 34.917969 25.023438 35.75 25.355469 C 37.371094 27.210938 38.871094 29.117188 40.25 31.070312 Z M 40.25 31.070312 "/>
<path style=" stroke:none;fill-rule:evenodd;fill:rgb(94.509804%,87.843137%,78.823529%);fill-opacity:1;" d="M 13.25 12.179688 C 11.941406 14.695312 10.441406 17.097656 8.75 19.386719 C 9.886719 20.320312 9.722656 21.148438 8.25 21.875 C 8.917969 22.207031 8.917969 22.539062 8.25 22.867188 C 9.390625 23.511719 10.558594 23.761719 11.75 23.613281 C 12.394531 24.855469 13.3125 26.015625 14.5 27.09375 C 15.007812 26.214844 15.09375 25.386719 14.75 24.609375 C 15.984375 24.058594 16.816406 23.148438 17.25 21.875 C 16.917969 21.707031 16.582031 21.542969 16.25 21.378906 C 17.359375 21.179688 18.359375 21.429688 19.25 22.121094 C 14.636719 30.3125 12.96875 39.09375 14.25 48.472656 C 13.84375 47.582031 13.59375 46.585938 13.5 45.488281 C 13.332031 45.820312 13.167969 46.152344 13 46.484375 C 12.644531 46.046875 12.230469 45.714844 11.75 45.488281 C 10.78125 44.90625 10.03125 44.078125 9.5 43.003906 C 8.996094 39.984375 8.414062 37.003906 7.75 34.054688 C 8.75 34.054688 9.75 34.054688 10.75 34.054688 C 10.90625 32.339844 11.324219 30.683594 12 29.082031 C 13.109375 25.886719 12.027344 24.476562 8.75 24.855469 C 7.46875 25.890625 6.132812 26.800781 4.75 27.589844 C 6.429688 21.765625 9.261719 16.625 13.25 12.179688 Z M 13.25 12.179688 "/>
<path style=" stroke:none;fill-rule:evenodd;fill:rgb(87.45098%,58.823529%,40%);fill-opacity:1;" d="M 68.75 25.105469 C 68.695312 26.300781 69.195312 27.210938 70.25 27.839844 C 71.640625 28.097656 72.808594 28.679688 73.75 29.578125 C 73.914062 33.648438 73.746094 37.625 73.25 41.511719 C 73.179688 40.597656 72.847656 40.433594 72.25 41.015625 C 71.902344 42.300781 71.320312 43.460938 70.5 44.496094 C 69.339844 43.308594 68.425781 41.980469 67.75 40.515625 C 67.34375 39.773438 66.675781 39.445312 65.75 39.523438 C 64.742188 39.691406 63.742188 39.855469 62.75 40.019531 C 61.976562 39.65625 61.5625 38.996094 61.5 38.03125 C 61.253906 38.84375 61.171875 39.671875 61.25 40.515625 C 60.203125 40.609375 59.203125 40.441406 58.25 40.019531 C 57.445312 41.707031 56.113281 42.371094 54.25 42.007812 C 54.183594 41.640625 54.269531 41.308594 54.5 41.015625 C 56.59375 39.308594 58.59375 37.484375 60.5 35.546875 C 60.746094 34.902344 60.828125 34.238281 60.75 33.558594 C 61.460938 32.851562 61.960938 32.023438 62.25 31.070312 C 62.65625 30.609375 63.074219 30.113281 63.5 29.578125 C 64.679688 25.007812 64.429688 20.535156 62.75 16.15625 C 63 15.992188 63.25 15.824219 63.5 15.660156 C 65.296875 16.285156 66.628906 17.445312 67.5 19.140625 C 67.851562 21.210938 68.269531 23.199219 68.75 25.105469 Z M 68.75 25.105469 "/>
<path style=" stroke:none;fill-rule:evenodd;fill:rgb(84.313725%,57.254902%,39.607843%);fill-opacity:1;" d="M 26.25 17.152344 C 25.25 18.644531 24.25 20.132812 23.25 21.625 C 22.578125 23.222656 21.996094 24.878906 21.5 26.597656 C 21.171875 26.003906 20.921875 26.003906 20.75 26.597656 C 21.0625 27.054688 21.230469 27.550781 21.25 28.089844 C 20.753906 29.71875 20.671875 31.375 21 33.058594 C 22.832031 36.703125 24.914062 40.183594 27.25 43.5 C 25.078125 47.160156 22.910156 50.804688 20.75 54.4375 C 20.410156 55.261719 19.992188 56.089844 19.5 56.921875 C 18.191406 56.148438 17.527344 54.988281 17.5 53.441406 C 16.789062 46.570312 16.539062 39.777344 16.75 33.058594 C 18.28125 26.746094 21.445312 21.441406 26.25 17.152344 Z M 26.25 17.152344 "/>
<path style=" stroke:none;fill-rule:evenodd;fill:rgb(33.333333%,23.529412%,19.215686%);fill-opacity:1;" d="M 78.75 30.574219 C 79.417969 34.21875 79.417969 37.867188 78.75 41.511719 C 78.253906 38.125 78.085938 34.644531 78.25 31.070312 C 78.582031 31.070312 78.75 30.90625 78.75 30.574219 Z M 78.75 30.574219 "/>
<path style=" stroke:none;fill-rule:evenodd;fill:rgb(24.313725%,10.980392%,6.27451%);fill-opacity:1;" d="M 73.75 29.578125 C 74.417969 34.71875 74.417969 39.855469 73.75 44.992188 C 73.886719 43.835938 73.550781 42.84375 72.75 42.007812 C 72.8125 41.707031 72.976562 41.542969 73.25 41.511719 C 73.746094 37.625 73.914062 33.648438 73.75 29.578125 Z M 73.75 29.578125 "/>
<path style=" stroke:none;fill-rule:evenodd;fill:rgb(35.686275%,25.882353%,19.607843%);fill-opacity:1;" d="M 74.75 30.078125 C 75.246094 37.28125 75.414062 44.574219 75.25 51.953125 C 77.75 52.203125 77.582031 52.367188 74.75 52.449219 C 74.75 44.992188 74.75 37.535156 74.75 30.078125 Z M 74.75 30.078125 "/>
<path style=" stroke:none;fill-rule:evenodd;fill:rgb(4.705882%,2.352941%,1.568627%);fill-opacity:1;" d="M 67.75 40.515625 C 67.703125 41.894531 67.035156 42.890625 65.75 43.5 C 66.164062 43.953125 66.664062 44.285156 67.25 44.496094 C 68.160156 46.3125 67.578125 47.140625 65.5 46.980469 C 62.488281 46.601562 59.90625 45.359375 57.75 43.25 C 59.210938 41.785156 60.878906 40.707031 62.75 40.019531 C 63.742188 39.855469 64.742188 39.691406 65.75 39.523438 C 66.675781 39.445312 67.34375 39.773438 67.75 40.515625 Z M 67.75 40.515625 "/>
<path style=" stroke:none;fill-rule:evenodd;fill:rgb(92.941176%,85.882353%,78.431373%);fill-opacity:1;" d="M 21.25 28.089844 C 24.613281 33.007812 27.945312 38.0625 31.25 43.25 C 29.023438 47.097656 26.605469 50.828125 24 54.4375 C 23.648438 55.644531 23.730469 56.804688 24.25 57.917969 C 28.042969 63.535156 33.210938 67.347656 39.75 69.351562 C 31.648438 69.191406 25.566406 65.546875 21.5 58.414062 C 20.960938 57.140625 20.710938 55.816406 20.75 54.4375 C 22.910156 50.804688 25.078125 47.160156 27.25 43.5 C 24.914062 40.183594 22.832031 36.703125 21 33.058594 C 20.671875 31.375 20.753906 29.71875 21.25 28.089844 Z M 21.25 28.089844 "/>
<path style=" stroke:none;fill-rule:evenodd;fill:rgb(97.254902%,82.352941%,67.843137%);fill-opacity:1;" d="M 78.25 31.070312 C 78.085938 34.644531 78.253906 38.125 78.75 41.511719 C 78.960938 41.871094 79.292969 42.117188 79.75 42.257812 C 78.417969 43.25 78.417969 44.246094 79.75 45.238281 C 79.292969 45.378906 78.960938 45.628906 78.75 45.984375 C 78.503906 50.058594 78.171875 54.117188 77.75 58.164062 C 77.582031 58.414062 77.417969 58.664062 77.25 58.910156 C 76.144531 58.601562 75.144531 58.105469 74.25 57.421875 C 74.707031 55.800781 74.875 54.144531 74.75 52.449219 C 77.582031 52.367188 77.75 52.203125 75.25 51.953125 C 75.414062 44.574219 75.246094 37.28125 74.75 30.078125 C 74.75 29.414062 74.75 28.75 74.75 28.089844 C 75.917969 28.089844 77.082031 28.089844 78.25 28.089844 C 78.25 29.082031 78.25 30.078125 78.25 31.070312 Z M 78.25 31.070312 "/>
<path style=" stroke:none;fill-rule:evenodd;fill:rgb(79.215686%,45.098039%,27.058824%);fill-opacity:1;" d="M 40.75 28.585938 C 45.773438 36.570312 52.441406 38.226562 60.75 33.558594 C 60.828125 34.238281 60.746094 34.902344 60.5 35.546875 C 58.59375 37.484375 56.59375 39.308594 54.5 41.015625 C 54.269531 41.308594 54.183594 41.640625 54.25 42.007812 C 53.695312 42.726562 53.609375 43.554688 54 44.496094 C 62.167969 49.296875 65.253906 56.257812 63.25 65.375 C 62.367188 66.257812 61.367188 66.921875 60.25 67.363281 C 63.046875 64.433594 63.964844 60.953125 63 56.921875 C 61.171875 55.769531 60.253906 54.113281 60.25 51.953125 C 57.863281 51.34375 55.527344 50.597656 53.25 49.714844 C 50.832031 49.273438 48.5 49.523438 46.25 50.460938 C 43.640625 52.636719 41.722656 55.289062 40.5 58.414062 C 40.25 59.730469 40.167969 61.054688 40.25 62.390625 C 39.917969 61.410156 39.75 60.332031 39.75 59.160156 C 39.910156 56.960938 40.410156 54.890625 41.25 52.945312 C 42.914062 49.96875 45.082031 47.484375 47.75 45.488281 C 48.988281 43.980469 49.074219 42.324219 48 40.515625 C 44.476562 38.164062 41.894531 35.015625 40.25 31.070312 C 40.183594 30.179688 40.351562 29.351562 40.75 28.585938 Z M 40.75 28.585938 "/>
<path style=" stroke:none;fill-rule:evenodd;fill:rgb(92.54902%,74.117647%,56.862745%);fill-opacity:1;" d="M 81.75 30.574219 C 82.308594 38.015625 82.390625 45.472656 82 52.945312 C 81.640625 55.042969 80.972656 57.03125 80 58.910156 C 79.664062 59.285156 79.246094 59.453125 78.75 59.410156 C 79.121094 54.847656 79.121094 50.375 78.75 45.984375 C 78.960938 45.628906 79.292969 45.378906 79.75 45.238281 C 78.417969 44.246094 78.417969 43.25 79.75 42.257812 C 79.292969 42.117188 78.960938 41.871094 78.75 41.511719 C 79.417969 37.867188 79.417969 34.21875 78.75 30.574219 C 78.667969 29.566406 78.753906 28.570312 79 27.589844 C 79.207031 27.363281 79.457031 27.199219 79.75 27.09375 C 80.5625 28.21875 81.230469 29.378906 81.75 30.574219 Z M 81.75 30.574219 "/>
<path style=" stroke:none;fill-rule:evenodd;fill:rgb(85.490196%,58.823529%,41.568627%);fill-opacity:1;" d="M 62.75 40.019531 C 60.878906 40.707031 59.210938 41.785156 57.75 43.25 C 59.90625 45.359375 62.488281 46.601562 65.5 46.980469 C 67.578125 47.140625 68.160156 46.3125 67.25 44.496094 C 66.664062 44.285156 66.164062 43.953125 65.75 43.5 C 67.035156 42.890625 67.703125 41.894531 67.75 40.515625 C 68.425781 41.980469 69.339844 43.308594 70.5 44.496094 C 71.320312 43.460938 71.902344 42.300781 72.25 41.015625 C 72.847656 40.433594 73.179688 40.597656 73.25 41.511719 C 72.976562 41.542969 72.8125 41.707031 72.75 42.007812 C 73.550781 42.84375 73.886719 43.835938 73.75 44.992188 C 73.75 45.652344 73.75 46.316406 73.75 46.980469 C 73.472656 48.339844 72.972656 49.667969 72.25 50.957031 C 73.152344 52.464844 73.484375 54.125 73.25 55.929688 C 73.335938 56.585938 73.167969 57.164062 72.75 57.667969 C 71.375 58.226562 70.125 58.972656 69 59.90625 C 68.757812 60.378906 68.675781 60.875 68.75 61.398438 C 68.390625 61.1875 68.140625 60.859375 68 60.402344 C 66.484375 63.023438 65.984375 65.839844 66.5 68.855469 C 66.707031 69.480469 67.125 69.808594 67.75 69.847656 C 67.09375 71.496094 65.925781 72.65625 64.25 73.328125 C 64.257812 72.300781 64.425781 71.308594 64.75 70.347656 C 64.75 69.683594 64.75 69.019531 64.75 68.355469 C 61.351562 69.574219 57.851562 70.402344 54.25 70.84375 C 52.410156 70.925781 50.574219 70.84375 48.75 70.59375 C 48.132812 70.480469 47.632812 70.230469 47.25 69.847656 C 48.960938 69.914062 49.128906 69.582031 47.75 68.855469 C 51.53125 69.6875 55.199219 69.355469 58.75 67.859375 C 59.304688 67.832031 59.804688 67.667969 60.25 67.363281 C 61.367188 66.921875 62.367188 66.257812 63.25 65.375 C 65.253906 56.257812 62.167969 49.296875 54 44.496094 C 53.609375 43.554688 53.695312 42.726562 54.25 42.007812 C 56.113281 42.371094 57.445312 41.707031 58.25 40.019531 C 59.203125 40.441406 60.203125 40.609375 61.25 40.515625 C 61.171875 39.671875 61.253906 38.84375 61.5 38.03125 C 61.5625 38.996094 61.976562 39.65625 62.75 40.019531 Z M 62.75 40.019531 "/>
<path style=" stroke:none;fill-rule:evenodd;fill:rgb(93.333333%,87.058824%,81.568627%);fill-opacity:1;" d="M 47.75 45.488281 C 45.082031 47.484375 42.914062 49.96875 41.25 52.945312 C 39.15625 56.1875 36.992188 59.417969 34.75 62.640625 C 31.445312 62.148438 28.945312 60.40625 27.25 57.421875 C 27.546875 55.832031 28.128906 54.34375 29 52.945312 C 30.804688 50.171875 32.722656 47.523438 34.75 44.992188 C 36.195312 44.300781 36.53125 43.222656 35.75 41.761719 C 36 41.511719 36.25 41.261719 36.5 41.015625 C 37.234375 41.453125 37.652344 42.113281 37.75 43.003906 C 37.039062 45.0625 35.957031 47.21875 34.5 49.464844 C 34.332031 49.300781 34.167969 49.132812 34 48.96875 C 33.753906 49.78125 33.667969 50.609375 33.75 51.453125 C 32.609375 53.636719 31.277344 55.710938 29.75 57.667969 C 30.683594 58.464844 31.683594 58.960938 32.75 59.160156 C 35.9375 54.558594 39.1875 50.003906 42.5 45.488281 C 43.207031 44.417969 43.621094 43.257812 43.75 42.007812 C 43.992188 41.523438 44.242188 41.027344 44.5 40.515625 C 45.050781 41.457031 45.71875 41.789062 46.5 41.511719 C 46.746094 42.03125 46.664062 42.53125 46.25 43.003906 C 47.148438 43.597656 47.648438 44.425781 47.75 45.488281 Z M 47.75 45.488281 "/>
<path style=" stroke:none;fill-rule:evenodd;fill:rgb(36.470588%,19.215686%,11.764706%);fill-opacity:1;" d="M 73.75 46.980469 C 73.910156 50.058594 73.746094 53.039062 73.25 55.929688 C 73.484375 54.125 73.152344 52.464844 72.25 50.957031 C 72.972656 49.667969 73.472656 48.339844 73.75 46.980469 Z M 73.75 46.980469 "/>
<path style=" stroke:none;fill-rule:evenodd;fill:rgb(1.960784%,0.784314%,0.784314%);fill-opacity:1;" d="M 58.75 67.859375 C 55.199219 69.355469 51.53125 69.6875 47.75 68.855469 C 43.121094 65.503906 42.039062 61.195312 44.5 55.929688 C 49.050781 50.710938 54.132812 50.132812 59.75 54.1875 C 63.199219 58.992188 62.867188 63.546875 58.75 67.859375 Z M 58.75 67.859375 "/>
<path style=" stroke:none;fill-rule:evenodd;fill:rgb(85.882353%,58.039216%,37.647059%);fill-opacity:1;" d="M 43.75 42.007812 C 43.621094 43.257812 43.207031 44.417969 42.5 45.488281 C 39.1875 50.003906 35.9375 54.558594 32.75 59.160156 C 31.683594 58.960938 30.683594 58.464844 29.75 57.667969 C 31.277344 55.710938 32.609375 53.636719 33.75 51.453125 C 36.160156 49.046875 37.996094 46.230469 39.25 43.003906 C 36.550781 38.464844 33.714844 33.988281 30.75 29.578125 C 31.757812 28.191406 33.007812 27.859375 34.5 28.585938 C 37.320312 33.285156 40.402344 37.757812 43.75 42.007812 Z M 43.75 42.007812 "/>
<path style=" stroke:none;fill-rule:evenodd;fill:rgb(70.196078%,38.039216%,22.352941%);fill-opacity:1;" d="M 60.25 67.363281 C 59.804688 67.667969 59.304688 67.832031 58.75 67.859375 C 62.867188 63.546875 63.199219 58.992188 59.75 54.1875 C 54.132812 50.132812 49.050781 50.710938 44.5 55.929688 C 42.039062 61.195312 43.121094 65.503906 47.75 68.855469 C 49.128906 69.582031 48.960938 69.914062 47.25 69.847656 C 43.214844 68.984375 40.882812 66.5 40.25 62.390625 C 40.167969 61.054688 40.25 59.730469 40.5 58.414062 C 41.722656 55.289062 43.640625 52.636719 46.25 50.460938 C 48.5 49.523438 50.832031 49.273438 53.25 49.714844 C 55.527344 50.597656 57.863281 51.34375 60.25 51.953125 C 60.253906 54.113281 61.171875 55.769531 63 56.921875 C 63.964844 60.953125 63.046875 64.433594 60.25 67.363281 Z M 60.25 67.363281 "/>
<path style=" stroke:none;fill-rule:evenodd;fill:rgb(89.411765%,75.294118%,61.960784%);fill-opacity:1;" d="M 78.25 60.402344 C 79.636719 61.507812 79.46875 62.417969 77.75 63.136719 C 75.46875 63.605469 73.304688 63.359375 71.25 62.390625 C 70.515625 61.34375 70.683594 60.429688 71.75 59.65625 C 74.03125 59.1875 76.195312 59.4375 78.25 60.402344 Z M 78.25 60.402344 "/>
<path style=" stroke:none;fill-rule:evenodd;fill:rgb(96.862745%,96.470588%,96.470588%);fill-opacity:1;" d="M 11.75 45.488281 C 12.230469 45.714844 12.644531 46.046875 13 46.484375 C 13.167969 46.152344 13.332031 45.820312 13.5 45.488281 C 13.59375 46.585938 13.84375 47.582031 14.25 48.472656 C 14.972656 59.449219 19.972656 67.816406 29.25 73.578125 C 31.804688 74.839844 34.46875 75.75 37.25 76.3125 C 40.058594 76.679688 42.890625 76.929688 45.75 77.058594 C 41.777344 80.058594 37.277344 81.632812 32.25 81.78125 C 20.390625 81.351562 12.058594 75.714844 7.25 64.878906 C 8.207031 64.914062 8.789062 65.410156 9 66.367188 C 9.523438 65.808594 9.855469 65.148438 10 64.378906 C 10.335938 64.753906 10.753906 64.917969 11.25 64.878906 C 11.089844 66.457031 11.753906 67.039062 13.25 66.617188 C 14.082031 65.050781 13.582031 64.304688 11.75 64.378906 C 11.75 63.882812 11.75 63.386719 11.75 62.886719 C 12.53125 62.898438 13.28125 63.0625 14 63.386719 C 14.859375 63.332031 14.945312 63.082031 14.25 62.640625 C 14.867188 62.679688 15.367188 62.597656 15.75 62.390625 C 14.960938 59.582031 13.960938 56.847656 12.75 54.1875 C 13.015625 53.191406 12.515625 52.613281 11.25 52.449219 C 10.539062 51.976562 9.707031 51.808594 8.75 51.953125 C 8.714844 52.675781 8.882812 53.339844 9.25 53.941406 C 8.390625 53.40625 7.890625 52.578125 7.75 51.453125 C 8.621094 51.40625 9.621094 51.324219 10.75 51.207031 C 11.695312 50.667969 11.863281 50.007812 11.25 49.21875 C 11.789062 48.882812 12.121094 48.386719 12.25 47.726562 C 12.113281 46.964844 11.945312 46.21875 11.75 45.488281 Z M 11.75 45.488281 "/>
<path style=" stroke:none;fill-rule:evenodd;fill:rgb(78.431373%,20.392157%,18.823529%);fill-opacity:1;" d="M 11.25 52.449219 C 11.25 52.945312 11.25 53.441406 11.25 53.941406 C 10.582031 53.941406 9.917969 53.941406 9.25 53.941406 C 8.882812 53.339844 8.714844 52.675781 8.75 51.953125 C 9.707031 51.808594 10.539062 51.976562 11.25 52.449219 Z M 11.25 52.449219 "/>
<path style=" stroke:none;fill-rule:evenodd;fill:rgb(7.45098%,4.313725%,3.137255%);fill-opacity:1;" d="M 34.25 10.6875 C 34.957031 11.585938 35.957031 11.917969 37.25 11.683594 C 33.210938 12.695312 29.542969 14.519531 26.25 17.152344 C 21.445312 21.441406 18.28125 26.746094 16.75 33.058594 C 14.976562 42.222656 15.726562 51.167969 19 59.90625 C 22.734375 67.191406 28.484375 71.996094 36.25 74.324219 C 36.582031 74.984375 36.917969 75.648438 37.25 76.3125 C 34.46875 75.75 31.804688 74.839844 29.25 73.578125 C 19.972656 67.816406 14.972656 59.449219 14.25 48.472656 C 12.96875 39.09375 14.636719 30.3125 19.25 22.121094 C 20.25 20.796875 21.25 19.472656 22.25 18.144531 C 25.609375 14.652344 29.609375 12.167969 34.25 10.6875 Z M 34.25 10.6875 "/>
<path style=" stroke:none;fill-rule:evenodd;fill:rgb(77.647059%,42.352941%,25.490196%);fill-opacity:1;" d="M 68.75 61.398438 C 69.136719 61.992188 69.636719 62.488281 70.25 62.886719 C 70.394531 65.605469 69.5625 67.925781 67.75 69.847656 C 67.125 69.808594 66.707031 69.480469 66.5 68.855469 C 65.984375 65.839844 66.484375 63.023438 68 60.402344 C 68.140625 60.859375 68.390625 61.1875 68.75 61.398438 Z M 68.75 61.398438 "/>
<path style=" stroke:none;fill-rule:evenodd;fill:rgb(9.019608%,9.411765%,9.411765%);fill-opacity:1;" d="M 11.75 64.378906 C 13.582031 64.304688 14.082031 65.050781 13.25 66.617188 C 11.753906 67.039062 11.089844 66.457031 11.25 64.878906 C 11.25 64.546875 11.417969 64.378906 11.75 64.378906 Z M 11.75 64.378906 "/>
<use xlink:href="#surface29" mask="url(#mask8)"/>
<path style=" stroke:none;fill-rule:evenodd;fill:rgb(87.058824%,63.137255%,46.27451%);fill-opacity:1;" d="M 16.75 33.058594 C 16.539062 39.777344 16.789062 46.570312 17.5 53.441406 C 17.527344 54.988281 18.191406 56.148438 19.5 56.921875 C 19.992188 56.089844 20.410156 55.261719 20.75 54.4375 C 20.710938 55.816406 20.960938 57.140625 21.5 58.414062 C 25.566406 65.546875 31.648438 69.191406 39.75 69.351562 C 33.210938 67.347656 28.042969 63.535156 24.25 57.917969 C 25.023438 58.019531 25.6875 58.351562 26.25 58.910156 C 26.585938 58.363281 26.921875 57.867188 27.25 57.421875 C 28.945312 60.40625 31.445312 62.148438 34.75 62.640625 C 36.992188 59.417969 39.15625 56.1875 41.25 52.945312 C 40.410156 54.890625 39.910156 56.960938 39.75 59.160156 C 39.75 60.332031 39.917969 61.410156 40.25 62.390625 C 40.882812 66.5 43.214844 68.984375 47.25 69.847656 C 47.632812 70.230469 48.132812 70.480469 48.75 70.59375 C 50.574219 70.84375 52.410156 70.925781 54.25 70.84375 C 54.25 71.339844 54.25 71.835938 54.25 72.335938 C 56.921875 72.417969 59.589844 72.332031 62.25 72.085938 C 63.160156 71.589844 63.996094 71.011719 64.75 70.347656 C 64.425781 71.308594 64.257812 72.300781 64.25 73.328125 C 59.914062 73.246094 55.578125 73.328125 51.25 73.578125 C 46.289062 74.792969 41.289062 75.042969 36.25 74.324219 C 28.484375 71.996094 22.734375 67.191406 19 59.90625 C 15.726562 51.167969 14.976562 42.222656 16.75 33.058594 Z M 16.75 33.058594 "/>
<path style=" stroke:none;fill-rule:evenodd;fill:rgb(93.72549%,76.470588%,63.529412%);fill-opacity:1;" d="M 64.75 70.347656 C 63.996094 71.011719 63.160156 71.589844 62.25 72.085938 C 59.589844 72.332031 56.921875 72.417969 54.25 72.335938 C 54.25 71.835938 54.25 71.339844 54.25 70.84375 C 57.851562 70.402344 61.351562 69.574219 64.75 68.355469 C 64.75 69.019531 64.75 69.683594 64.75 70.347656 Z M 64.75 70.347656 "/>
<use xlink:href="#surface32" mask="url(#mask9)"/>
<path style=" stroke:none;fill-rule:evenodd;fill:rgb(12.941176%,14.901961%,14.509804%);fill-opacity:1;" d="M 19.25 72.832031 C 20.761719 72.765625 21.511719 73.425781 21.5 74.820312 C 19.664062 75.570312 18.914062 74.90625 19.25 72.832031 Z M 19.25 72.832031 "/>
<path style=" stroke:none;fill-rule:evenodd;fill:rgb(63.921569%,30.980392%,18.431373%);fill-opacity:1;" d="M 60.25 75.8125 C 59.703125 77.269531 58.703125 78.347656 57.25 79.046875 C 54.25 78.964844 51.25 78.714844 48.25 78.300781 C 49.125 77.445312 50.125 76.699219 51.25 76.0625 C 54.246094 75.816406 57.246094 75.730469 60.25 75.8125 Z M 60.25 75.8125 "/>
<path style=" stroke:none;fill-rule:evenodd;fill:rgb(86.666667%,60.392157%,43.137255%);fill-opacity:1;" d="M 60.25 75.8125 C 60.75 75.8125 61.25 75.8125 61.75 75.8125 C 60.667969 81.605469 57.167969 84.007812 51.25 83.023438 C 49.605469 82.371094 48.269531 81.378906 47.25 80.039062 C 47.402344 79.316406 47.738281 78.734375 48.25 78.300781 C 51.25 78.714844 54.25 78.964844 57.25 79.046875 C 58.703125 78.347656 59.703125 77.269531 60.25 75.8125 Z M 60.25 75.8125 "/>
<use xlink:href="#surface35" mask="url(#mask10)"/>
</g>
</svg>
