<?xml version="1.0" encoding="UTF-8"?>
<svg xmlns="http://www.w3.org/2000/svg" xmlns:xlink="http://www.w3.org/1999/xlink" width="px" height="px" viewBox="0 0 96 106" version="1.1">
<defs>
<filter id="alpha" filterUnits="objectBoundingBox" x="0%" y="0%" width="100%" height="100%">
  <feColorMatrix type="matrix" in="SourceGraphic" values="0 0 0 0 1 0 0 0 0 1 0 0 0 0 1 0 0 0 1 0"/>
</filter>
<mask id="mask0">
  <g filter="url(#alpha)">
<rect x="0" y="0" width="96" height="106" style="fill:rgb(0%,0%,0%);fill-opacity:0.996078;stroke:none;"/>
  </g>
</mask>
<clipPath id="clip1">
  <rect x="0" y="0" width="96" height="106"/>
</clipPath>
<g id="surface5" clip-path="url(#clip1)">
<path style=" stroke:none;fill-rule:evenodd;fill:rgb(0.392157%,0.392157%,4.313725%);fill-opacity:1;" d="M 45.488281 3.25 C 45.988281 3.417969 46.324219 3.75 46.492188 4.25 C 48.996094 6.660156 51.257812 9.328125 53.277344 12.25 C 56.015625 9.257812 59.285156 8.257812 63.078125 9.25 C 62.386719 9.171875 61.71875 9.253906 61.066406 9.5 C 62.074219 9.667969 63.078125 9.832031 64.082031 10 C 61.527344 10.085938 59.015625 10.417969 56.542969 11 C 55.878906 11.40625 55.542969 11.992188 55.539062 12.75 C 54.3125 14.023438 53.476562 15.523438 53.027344 17.25 C 52.570312 17.605469 52.40625 18.105469 52.523438 18.75 C 52.195312 18.597656 51.863281 18.429688 51.519531 18.25 C 50.453125 18.847656 49.277344 19.179688 48 19.25 C 46.277344 18.964844 44.601562 18.964844 42.972656 19.25 C 42.382812 19.039062 41.882812 18.707031 41.464844 18.25 C 41.296875 18.582031 41.132812 18.917969 40.964844 19.25 C 40.753906 17.539062 40.503906 15.707031 40.210938 13.75 C 40.015625 14.027344 39.765625 14.195312 39.457031 14.25 C 39.289062 13.917969 39.121094 13.582031 38.953125 13.25 C 39.453125 13.265625 39.789062 13.015625 39.957031 12.5 C 39.960938 11.136719 39.457031 9.804688 38.449219 8.5 C 39.121094 8 39.121094 7.5 38.449219 7 C 39.328125 6.238281 40.164062 5.488281 40.964844 4.75 C 41.378906 6.871094 42.550781 7.539062 44.480469 6.75 C 45.320312 5.746094 45.65625 4.578125 45.488281 3.25 Z M 45.488281 3.25 "/>
</g>
<mask id="mask1">
  <g filter="url(#alpha)">
<rect x="0" y="0" width="96" height="106" style="fill:rgb(0%,0%,0%);fill-opacity:0.0392157;stroke:none;"/>
  </g>
</mask>
<clipPath id="clip2">
  <rect x="0" y="0" width="96" height="106"/>
</clipPath>
<g id="surface8" clip-path="url(#clip2)">
<path style=" stroke:none;fill-rule:evenodd;fill:rgb(14.509804%,20%,27.45098%);fill-opacity:1;" d="M 36.941406 -0.25 C 38.113281 -0.25 39.289062 -0.25 40.460938 -0.25 C 42.300781 0.738281 43.976562 1.90625 45.488281 3.25 C 43.144531 2.390625 40.882812 1.390625 38.703125 0.25 C 34.921875 1.726562 31.234375 3.390625 27.644531 5.25 C 26.730469 4.699219 25.976562 3.949219 25.382812 3 C 20.90625 3.390625 17.054688 5.140625 13.820312 8.25 C 12.816406 9.082031 11.8125 9.917969 10.804688 10.75 C 14.289062 5.265625 19.316406 2.515625 25.886719 2.5 C 26.5 3.28125 27.253906 3.863281 28.148438 4.25 C 31.199219 2.882812 34.128906 1.382812 36.941406 -0.25 Z M 36.941406 -0.25 "/>
</g>
<mask id="mask2">
  <g filter="url(#alpha)">
<rect x="0" y="0" width="96" height="106" style="fill:rgb(0%,0%,0%);fill-opacity:0.988235;stroke:none;"/>
  </g>
</mask>
<clipPath id="clip3">
  <rect x="0" y="0" width="96" height="106"/>
</clipPath>
<g id="surface11" clip-path="url(#clip3)">
<path style=" stroke:none;fill-rule:evenodd;fill:rgb(5.098039%,1.568627%,3.529412%);fill-opacity:1;" d="M 45.488281 3.25 C 45.65625 4.578125 45.320312 5.746094 44.480469 6.75 C 42.550781 7.539062 41.378906 6.871094 40.964844 4.75 C 40.164062 5.488281 39.328125 6.238281 38.449219 7 C 39.121094 7.5 39.121094 8 38.449219 8.5 C 39.457031 9.804688 39.960938 11.136719 39.957031 12.5 C 39.789062 13.015625 39.453125 13.265625 38.953125 13.25 C 38.234375 11.355469 37.566406 9.441406 36.941406 7.5 C 37.363281 5.609375 37.949219 3.859375 38.703125 2.25 C 35.5625 3.851562 32.460938 5.519531 29.402344 7.25 C 31.707031 10.835938 33.464844 14.667969 34.679688 18.75 C 38.339844 19.464844 39.929688 17.964844 39.457031 14.25 C 39.765625 14.195312 40.015625 14.027344 40.210938 13.75 C 40.503906 15.707031 40.753906 17.539062 40.964844 19.25 C 41.132812 18.917969 41.296875 18.582031 41.464844 18.25 C 41.882812 18.707031 42.382812 19.039062 42.972656 19.25 C 44.601562 18.964844 46.277344 18.964844 48 19.25 C 49.277344 19.179688 50.453125 18.847656 51.519531 18.25 C 51.863281 18.429688 52.195312 18.597656 52.523438 18.75 C 57.246094 19.070312 61.769531 18.734375 66.09375 17.75 C 70.601562 19.636719 71.523438 18.636719 68.859375 14.75 C 68.292969 13.929688 67.539062 13.429688 66.597656 13.25 C 63.046875 10.851562 59.359375 10.6875 55.539062 12.75 C 55.542969 11.992188 55.878906 11.40625 56.542969 11 C 59.015625 10.417969 61.527344 10.085938 64.082031 10 C 63.078125 9.832031 62.074219 9.667969 61.066406 9.5 C 61.71875 9.253906 62.386719 9.171875 63.078125 9.25 C 66.285156 9.636719 68.878906 11.136719 70.867188 13.75 C 72.039062 15.828125 72.960938 17.996094 73.632812 20.25 C 72.824219 21.039062 71.816406 21.371094 70.617188 21.25 C 59.710938 20.519531 48.820312 20.601562 37.949219 21.5 C 32.296875 23.703125 28.441406 27.621094 26.386719 33.25 C 24.417969 37.824219 23.582031 42.660156 23.875 47.75 C 23.5625 47.695312 23.3125 47.527344 23.121094 47.25 C 22.953125 44.082031 22.785156 40.917969 22.617188 37.75 C 22.476562 38.207031 22.226562 38.542969 21.863281 38.75 C 22.207031 36.855469 21.707031 35.273438 20.355469 34 C 17.890625 32.765625 15.378906 31.683594 12.816406 30.75 C 11.519531 29.992188 10.515625 30.324219 9.800781 31.75 C 7.324219 34.175781 5.484375 37.007812 4.273438 40.25 C 4.386719 38.410156 4.550781 36.578125 4.773438 34.75 C 5.875 32.320312 7.550781 30.320312 9.800781 28.75 C 9.457031 28.074219 8.953125 27.574219 8.292969 27.25 C 6.734375 25.320312 5.5625 23.152344 4.773438 20.75 C 5.023438 19.285156 5.863281 18.453125 7.289062 18.25 C 7.605469 16.082031 8.777344 14.417969 10.804688 13.25 C 10.640625 12.917969 10.472656 12.582031 10.304688 12.25 C 11.574219 11.234375 12.914062 10.320312 14.324219 9.5 C 13.945312 9.164062 13.777344 8.746094 13.820312 8.25 C 17.054688 5.140625 20.90625 3.390625 25.382812 3 C 25.976562 3.949219 26.730469 4.699219 27.644531 5.25 C 31.234375 3.390625 34.921875 1.726562 38.703125 0.25 C 40.882812 1.390625 43.144531 2.390625 45.488281 3.25 Z M 45.488281 3.25 "/>
</g>
<mask id="mask3">
  <g filter="url(#alpha)">
<rect x="0" y="0" width="96" height="106" style="fill:rgb(0%,0%,0%);fill-opacity:0.976471;stroke:none;"/>
  </g>
</mask>
<clipPath id="clip4">
  <rect x="0" y="0" width="96" height="106"/>
</clipPath>
<g id="surface14" clip-path="url(#clip4)">
<path style=" stroke:none;fill-rule:evenodd;fill:rgb(8.627451%,10.196078%,14.117647%);fill-opacity:1;" d="M 13.820312 8.25 C 13.777344 8.746094 13.945312 9.164062 14.324219 9.5 C 12.914062 10.320312 11.574219 11.234375 10.304688 12.25 C 10.472656 12.582031 10.640625 12.917969 10.804688 13.25 C 8.777344 14.417969 7.605469 16.082031 7.289062 18.25 C 5.863281 18.453125 5.023438 19.285156 4.773438 20.75 C 5.5625 23.152344 6.734375 25.320312 8.292969 27.25 C 7.53125 27.246094 6.945312 26.910156 6.535156 26.25 C 2.539062 21.160156 3.207031 16.824219 8.542969 13.25 C 8.703125 11.84375 9.457031 11.011719 10.804688 10.75 C 11.8125 9.917969 12.816406 9.082031 13.820312 8.25 Z M 13.820312 8.25 "/>
</g>
<mask id="mask4">
  <g filter="url(#alpha)">
<rect x="0" y="0" width="96" height="106" style="fill:rgb(0%,0%,0%);fill-opacity:0.0588235;stroke:none;"/>
  </g>
</mask>
<clipPath id="clip5">
  <rect x="0" y="0" width="96" height="106"/>
</clipPath>
<g id="surface17" clip-path="url(#clip5)">
<path style=" stroke:none;fill-rule:evenodd;fill:rgb(15.294118%,21.960784%,28.235294%);fill-opacity:1;" d="M 46.492188 4.25 C 47.019531 4.175781 47.523438 4.257812 48 4.5 C 50.058594 6.351562 51.816406 8.433594 53.277344 10.75 C 58.34375 7 63.621094 6.917969 69.109375 10.5 C 71.542969 12.757812 73.136719 15.507812 73.886719 18.75 C 77.605469 21.082031 80.035156 24.332031 81.171875 28.5 C 83.144531 28.894531 85.070312 28.8125 86.953125 28.25 C 88.078125 28.527344 89.082031 29.027344 89.96875 29.75 C 90.628906 30.976562 91.214844 32.226562 91.726562 33.5 C 91.558594 33.667969 91.390625 33.832031 91.226562 34 C 93.410156 36.027344 94.25 38.441406 93.738281 41.25 C 94.824219 42.804688 95.496094 44.46875 95.75 46.25 C 95.75 46.417969 95.75 46.582031 95.75 46.75 C 95.03125 47.839844 94.695312 49.089844 94.742188 50.5 C 95.214844 52.269531 95.214844 54.019531 94.742188 55.75 C 94.960938 57.015625 95.292969 58.179688 95.75 59.25 C 95.75 59.75 95.75 60.25 95.75 60.75 C 95.226562 61.949219 94.554688 63.117188 93.738281 64.25 C 94.214844 66.851562 93.292969 69.183594 90.972656 71.25 C 90.664062 76.164062 88.234375 77.996094 83.6875 76.75 C 88.246094 77.050781 90.589844 74.882812 90.722656 70.25 C 91.574219 69.816406 92.160156 69.152344 92.480469 68.25 C 92.648438 66.75 92.816406 65.25 92.984375 63.75 C 94.878906 61.488281 95.132812 59.074219 93.738281 56.5 C 94.542969 54.300781 94.375 52.21875 93.234375 50.25 C 95.367188 47.191406 95.203125 44.277344 92.734375 41.5 C 93.609375 38.824219 92.855469 36.742188 90.472656 35.25 C 90.625 32.929688 89.871094 31.011719 88.210938 29.5 C 85.511719 29.160156 82.828125 29.246094 80.167969 29.75 C 79.765625 25.351562 77.585938 22.1875 73.632812 20.25 C 72.960938 17.996094 72.039062 15.828125 70.867188 13.75 C 68.878906 11.136719 66.285156 9.636719 63.078125 9.25 C 59.285156 8.257812 56.015625 9.257812 53.277344 12.25 C 51.257812 9.328125 48.996094 6.660156 46.492188 4.25 Z M 46.492188 4.25 "/>
</g>
<mask id="mask5">
  <g filter="url(#alpha)">
<rect x="0" y="0" width="96" height="106" style="fill:rgb(0%,0%,0%);fill-opacity:0.0235294;stroke:none;"/>
  </g>
</mask>
<clipPath id="clip6">
  <rect x="0" y="0" width="96" height="106"/>
</clipPath>
<g id="surface20" clip-path="url(#clip6)">
<path style=" stroke:none;fill-rule:evenodd;fill:rgb(14.901961%,20%,26.666667%);fill-opacity:1;" d="M 8.292969 27.25 C 8.953125 27.574219 9.457031 28.074219 9.800781 28.75 C 7.550781 30.320312 5.875 32.320312 4.773438 34.75 C 4.605469 34.75 4.441406 34.75 4.273438 34.75 C 4.792969 32.46875 6.050781 30.636719 8.042969 29.25 C 8.289062 28.601562 8.371094 27.9375 8.292969 27.25 Z M 8.292969 27.25 "/>
</g>
<mask id="mask6">
  <g filter="url(#alpha)">
<rect x="0" y="0" width="96" height="106" style="fill:rgb(0%,0%,0%);fill-opacity:0.0196078;stroke:none;"/>
  </g>
</mask>
<clipPath id="clip7">
  <rect x="0" y="0" width="96" height="106"/>
</clipPath>
<g id="surface23" clip-path="url(#clip7)">
<path style=" stroke:none;fill-rule:evenodd;fill:rgb(14.901961%,20.392157%,25.490196%);fill-opacity:1;" d="M 1.757812 63.75 C 2.84375 67.074219 4.351562 70.242188 6.28125 73.25 C 5.78125 73.292969 5.363281 73.125 5.027344 72.75 C 3.226562 70.003906 2.136719 67.003906 1.757812 63.75 Z M 1.757812 63.75 "/>
</g>
<mask id="mask7">
  <g filter="url(#alpha)">
<rect x="0" y="0" width="96" height="106" style="fill:rgb(0%,0%,0%);fill-opacity:0.988235;stroke:none;"/>
  </g>
</mask>
<clipPath id="clip8">
  <rect x="0" y="0" width="96" height="106"/>
</clipPath>
<g id="surface26" clip-path="url(#clip8)">
<path style=" stroke:none;fill-rule:evenodd;fill:rgb(5.098039%,6.666667%,8.235294%);fill-opacity:1;" d="M 6.28125 73.25 C 7.871094 73.660156 9.210938 74.492188 10.304688 75.75 C 9.597656 76.421875 9.765625 76.839844 10.804688 77 C 9.726562 77.597656 9.390625 78.347656 9.800781 79.25 C 8.792969 80.675781 7.871094 82.175781 7.035156 83.75 C 6.597656 84.835938 6.847656 85.671875 7.789062 86.25 C 11.320312 92.011719 16.179688 96.261719 22.367188 99 C 23.203125 99.332031 24.042969 99.332031 24.878906 99 C 26.996094 96.648438 29.007812 94.230469 30.910156 91.75 C 31.246094 91.582031 31.582031 91.417969 31.917969 91.25 C 32.417969 91.292969 32.835938 91.125 33.171875 90.75 C 33.3125 91.207031 33.5625 91.539062 33.925781 91.75 C 32.441406 93.730469 30.933594 95.730469 29.402344 97.75 C 32.386719 100.078125 35.734375 101.742188 39.457031 102.75 C 39.394531 103.097656 39.394531 103.515625 39.457031 104 C 40.082031 104.226562 40.5 103.976562 40.710938 103.25 C 41.839844 103.585938 42.929688 103.335938 43.980469 102.5 C 43.441406 102.074219 42.9375 101.65625 42.472656 101.25 C 43.644531 101.082031 44.3125 100.417969 44.480469 99.25 C 45.070312 100.140625 45.90625 100.640625 46.996094 100.75 C 45.0625 102.773438 42.886719 104.4375 40.460938 105.75 C 39.957031 105.75 39.457031 105.75 38.953125 105.75 C 35.132812 104.144531 31.363281 102.308594 27.644531 100.25 C 26.640625 101.582031 25.296875 102.25 23.621094 102.25 C 20.898438 101.519531 18.300781 100.4375 15.832031 99 C 12.0625 94.917969 8.292969 90.832031 4.523438 86.75 C 4.078125 82.589844 5.5 79.171875 8.796875 76.5 C 7.605469 75.605469 6.769531 74.523438 6.28125 73.25 Z M 6.28125 73.25 "/>
</g>
<mask id="mask8">
  <g filter="url(#alpha)">
<rect x="0" y="0" width="96" height="106" style="fill:rgb(0%,0%,0%);fill-opacity:0.00784314;stroke:none;"/>
  </g>
</mask>
<clipPath id="clip9">
  <rect x="0" y="0" width="96" height="106"/>
</clipPath>
<g id="surface29" clip-path="url(#clip9)">
<path style=" stroke:none;fill-rule:evenodd;fill:rgb(13.72549%,21.960784%,29.019608%);fill-opacity:1;" d="M 82.679688 76.75 C 81.730469 76.648438 80.976562 76.980469 80.417969 77.75 C 80.140625 79.585938 79.46875 81.253906 78.410156 82.75 C 76.695312 84.226562 74.9375 85.644531 73.132812 87 C 73.40625 88.824219 72.988281 90.574219 71.875 92.25 C 71.308594 93.070312 70.554688 93.570312 69.613281 93.75 C 71.519531 91.621094 72.605469 89.121094 72.878906 86.25 C 76.5625 84.003906 78.992188 80.839844 80.167969 76.75 C 81.070312 76.105469 81.910156 76.105469 82.679688 76.75 Z M 82.679688 76.75 "/>
</g>
<mask id="mask9">
  <g filter="url(#alpha)">
<rect x="0" y="0" width="96" height="106" style="fill:rgb(0%,0%,0%);fill-opacity:0.00392157;stroke:none;"/>
  </g>
</mask>
<clipPath id="clip10">
  <rect x="0" y="0" width="96" height="106"/>
</clipPath>
<g id="surface32" clip-path="url(#clip10)">
<path style=" stroke:none;fill-rule:evenodd;fill:rgb(14.901961%,21.568627%,27.45098%);fill-opacity:1;" d="M 55.035156 95.25 C 59.609375 97.34375 64.132812 97.175781 68.605469 94.75 C 67.402344 96.5625 65.640625 97.5625 63.328125 97.75 C 60.882812 97.792969 58.453125 97.542969 56.042969 97 C 54.980469 96.429688 54.0625 95.679688 53.277344 94.75 C 51.570312 97.199219 49.476562 99.199219 46.996094 100.75 C 49.183594 98.574219 51.191406 96.242188 53.027344 93.75 C 53.707031 94.261719 54.375 94.761719 55.035156 95.25 Z M 55.035156 95.25 "/>
</g>
</defs>
<g id="surface1">
<use xlink:href="#surface5" mask="url(#mask0)"/>
<use xlink:href="#surface8" mask="url(#mask1)"/>
<use xlink:href="#surface11" mask="url(#mask2)"/>
<path style=" stroke:none;fill-rule:evenodd;fill:rgb(85.098039%,25.490196%,42.352941%);fill-opacity:1;" d="M 41.96875 4.25 C 43.308594 4.03125 43.894531 4.53125 43.726562 5.75 C 42.390625 6.347656 41.804688 5.847656 41.96875 4.25 Z M 41.96875 4.25 "/>
<path style=" stroke:none;fill-rule:evenodd;fill:rgb(96.862745%,47.843137%,61.960784%);fill-opacity:1;" d="M 38.953125 13.25 C 39.121094 13.582031 39.289062 13.917969 39.457031 14.25 C 39.929688 17.964844 38.339844 19.464844 34.679688 18.75 C 33.464844 14.667969 31.707031 10.835938 29.402344 7.25 C 32.460938 5.519531 35.5625 3.851562 38.703125 2.25 C 37.949219 3.859375 37.363281 5.609375 36.941406 7.5 C 37.566406 9.441406 38.234375 11.355469 38.953125 13.25 Z M 38.953125 13.25 "/>
<path style=" stroke:none;fill-rule:evenodd;fill:rgb(100%,40.784314%,56.862745%);fill-opacity:1;" d="M 20.859375 20.25 C 19.832031 20.515625 18.992188 21.097656 18.34375 22 C 17.523438 22.246094 16.6875 22.332031 15.832031 22.25 C 15.890625 20.574219 16.058594 18.910156 16.335938 17.25 C 16.40625 16.058594 16.070312 15.058594 15.328125 14.25 C 16.824219 12.847656 18.417969 11.515625 20.105469 10.25 C 20.753906 11.394531 21.589844 12.394531 22.617188 13.25 C 23.332031 14.515625 23.5 15.847656 23.121094 17.25 C 22.449219 18.328125 21.695312 19.328125 20.859375 20.25 Z M 20.859375 20.25 "/>
<path style=" stroke:none;fill-rule:evenodd;fill:rgb(95.686275%,30.980392%,48.627451%);fill-opacity:1;" d="M 30.910156 16.25 C 30.992188 17.757812 30.910156 19.257812 30.660156 20.75 C 29.878906 20.398438 29.289062 20.730469 28.902344 21.75 C 28.109375 22.148438 27.269531 22.398438 26.386719 22.5 C 25.71875 23.167969 25.71875 23.832031 26.386719 24.5 C 25.910156 24.808594 25.492188 24.726562 25.132812 24.25 C 24.78125 24.84375 24.359375 25.34375 23.875 25.75 C 23.089844 25.867188 22.417969 26.199219 21.863281 26.75 C 21.367188 26.835938 21.03125 26.667969 20.859375 26.25 C 21.367188 25.246094 21.871094 24.246094 22.367188 23.25 C 21.855469 22.246094 21.351562 21.246094 20.859375 20.25 C 21.695312 19.328125 22.449219 18.328125 23.121094 17.25 C 23.5 15.847656 23.332031 14.515625 22.617188 13.25 C 21.589844 12.394531 20.753906 11.394531 20.105469 10.25 C 18.417969 11.515625 16.824219 12.847656 15.328125 14.25 C 13.421875 15.898438 11.578125 17.648438 9.800781 19.5 C 8.914062 19.820312 8.078125 19.738281 7.289062 19.25 C 7.289062 18.917969 7.289062 18.582031 7.289062 18.25 C 10.203125 15.265625 13.050781 12.179688 15.832031 9 C 18.34375 7.414062 21.027344 6.164062 23.875 5.25 C 27.234375 8.273438 29.582031 11.9375 30.910156 16.25 Z M 30.910156 16.25 "/>
<path style=" stroke:none;fill-rule:evenodd;fill:rgb(98.039216%,59.215686%,69.411765%);fill-opacity:1;" d="M 66.597656 13.25 C 65.238281 12.613281 63.898438 12.695312 62.574219 13.5 C 60.605469 13.980469 58.929688 14.980469 57.550781 16.5 C 56.445312 16.6875 55.355469 16.9375 54.28125 17.25 C 53.765625 17.417969 53.515625 17.75 53.527344 18.25 C 53.109375 18.078125 52.941406 17.746094 53.027344 17.25 C 53.476562 15.523438 54.3125 14.023438 55.539062 12.75 C 59.359375 10.6875 63.046875 10.851562 66.597656 13.25 Z M 66.597656 13.25 "/>
<path style=" stroke:none;fill-rule:evenodd;fill:rgb(96.470588%,39.215686%,55.294118%);fill-opacity:1;" d="M 66.597656 13.25 C 67.539062 13.429688 68.292969 13.929688 68.859375 14.75 C 71.523438 18.636719 70.601562 19.636719 66.09375 17.75 C 61.949219 18.234375 57.761719 18.402344 53.527344 18.25 C 53.515625 17.75 53.765625 17.417969 54.28125 17.25 C 55.355469 16.9375 56.445312 16.6875 57.550781 16.5 C 58.929688 14.980469 60.605469 13.980469 62.574219 13.5 C 63.898438 12.695312 65.238281 12.613281 66.597656 13.25 Z M 66.597656 13.25 "/>
<use xlink:href="#surface14" mask="url(#mask3)"/>
<path style=" stroke:none;fill-rule:evenodd;fill:rgb(74.901961%,32.941176%,47.45098%);fill-opacity:1;" d="M 53.027344 17.25 C 52.941406 17.746094 53.109375 18.078125 53.527344 18.25 C 57.761719 18.402344 61.949219 18.234375 66.09375 17.75 C 61.769531 18.734375 57.246094 19.070312 52.523438 18.75 C 52.40625 18.105469 52.570312 17.605469 53.027344 17.25 Z M 53.027344 17.25 "/>
<path style=" stroke:none;fill-rule:evenodd;fill:rgb(99.215686%,53.333333%,66.27451%);fill-opacity:1;" d="M 15.328125 14.25 C 16.070312 15.058594 16.40625 16.058594 16.335938 17.25 C 16.058594 18.910156 15.890625 20.574219 15.832031 22.25 C 16.6875 22.332031 17.523438 22.246094 18.34375 22 C 18.992188 21.097656 19.832031 20.515625 20.859375 20.25 C 21.351562 21.246094 21.855469 22.246094 22.367188 23.25 C 21.871094 24.246094 21.367188 25.246094 20.859375 26.25 C 20.496094 26.457031 20.246094 26.792969 20.105469 27.25 C 18.375 27.261719 16.613281 27.09375 14.828125 26.75 C 13.636719 26.945312 13.300781 27.445312 13.820312 28.25 C 10.1875 26.542969 7.839844 23.710938 6.785156 19.75 C 6.847656 19.445312 7.015625 19.28125 7.289062 19.25 C 8.078125 19.738281 8.914062 19.820312 9.800781 19.5 C 11.578125 17.648438 13.421875 15.898438 15.328125 14.25 Z M 15.328125 14.25 "/>
<path style=" stroke:none;fill-rule:evenodd;fill:rgb(77.647059%,23.137255%,40.784314%);fill-opacity:1;" d="M 30.910156 16.25 C 32.089844 17.988281 32.175781 19.820312 31.164062 21.75 C 29.421875 22.980469 27.828125 24.398438 26.386719 26 C 25.578125 25.992188 24.742188 25.90625 23.875 25.75 C 24.359375 25.34375 24.78125 24.84375 25.132812 24.25 C 25.492188 24.726562 25.910156 24.808594 26.386719 24.5 C 25.71875 23.832031 25.71875 23.167969 26.386719 22.5 C 27.269531 22.398438 28.109375 22.148438 28.902344 21.75 C 29.289062 20.730469 29.878906 20.398438 30.660156 20.75 C 30.910156 19.257812 30.992188 17.757812 30.910156 16.25 Z M 30.910156 16.25 "/>
<path style=" stroke:none;fill-rule:evenodd;fill:rgb(96.862745%,41.176471%,54.509804%);fill-opacity:1;" d="M 70.617188 21.25 C 77.984375 24.582031 79.742188 29.914062 75.894531 37.25 C 75.394531 37.53125 74.976562 37.867188 74.640625 38.25 C 74.472656 38.25 74.304688 38.25 74.136719 38.25 C 74.976562 35.136719 75.226562 31.96875 74.890625 28.75 C 73.800781 25.597656 72.042969 25.011719 69.613281 27 C 71.605469 31.082031 71.605469 35.167969 69.613281 39.25 C 68.769531 38.910156 68.433594 38.242188 68.605469 37.25 C 71.089844 30.941406 69.082031 26.859375 62.574219 25 C 59.832031 24.625 57.148438 24.875 54.535156 25.75 C 52.558594 25.28125 52.558594 24.78125 54.535156 24.25 C 41.253906 22.769531 31.703125 27.9375 25.886719 39.75 C 25.570312 39.542969 25.402344 39.207031 25.382812 38.75 C 25.847656 36.933594 26.183594 35.101562 26.386719 33.25 C 28.441406 27.621094 32.296875 23.703125 37.949219 21.5 C 48.820312 20.601562 59.710938 20.519531 70.617188 21.25 Z M 70.617188 21.25 "/>
<use xlink:href="#surface17" mask="url(#mask4)"/>
<path style=" stroke:none;fill-rule:evenodd;fill:rgb(99.215686%,60%,69.803922%);fill-opacity:1;" d="M 54.535156 25.75 C 50.117188 29.085938 49.28125 33.25 52.019531 38.25 C 51.476562 38.308594 51.140625 38.644531 51.015625 39.25 C 51.96875 42.125 52.640625 45.042969 53.027344 48 C 56.46875 49.074219 59.820312 48.988281 63.078125 47.75 C 63.191406 48.367188 63.523438 48.867188 64.082031 49.25 C 63.816406 50.136719 63.394531 50.300781 62.828125 49.75 C 62.480469 50.21875 62.5625 50.550781 63.078125 50.75 C 62.609375 51.96875 63.109375 52.804688 64.585938 53.25 C 62.46875 53.402344 62.132812 54.152344 63.582031 55.5 C 62.800781 56.324219 61.960938 56.488281 61.066406 56 C 61.675781 56.445312 61.675781 56.863281 61.066406 57.25 C 59.507812 56.554688 59.007812 56.96875 59.558594 58.5 C 59.226562 58.667969 58.890625 58.832031 58.554688 59 C 59.828125 59.09375 61.003906 59.34375 62.074219 59.75 C 60.722656 59.667969 59.382812 59.75 58.050781 60 C 56.738281 60.535156 56.738281 60.953125 58.050781 61.25 C 52.21875 64.1875 49.875 68.851562 51.015625 75.25 C 50.109375 73.648438 49.609375 71.816406 49.507812 69.75 C 50.363281 67.296875 50.027344 65.046875 48.503906 63 C 49.773438 62.664062 49.773438 62.25 48.503906 61.75 C 48.167969 59.339844 47.832031 57.007812 47.496094 54.75 C 47.496094 53.417969 47.496094 52.082031 47.496094 50.75 C 39.957031 50.75 32.417969 50.75 24.878906 50.75 C 25.050781 47.066406 25.386719 43.398438 25.886719 39.75 C 31.703125 27.9375 41.253906 22.769531 54.535156 24.25 C 52.558594 24.78125 52.558594 25.28125 54.535156 25.75 Z M 54.535156 25.75 "/>
<path style=" stroke:none;fill-rule:evenodd;fill:rgb(1.568627%,0.392157%,3.921569%);fill-opacity:1;" d="M 68.605469 37.25 C 65.742188 42.839844 61.386719 44.421875 55.539062 42 C 54.25 40.800781 53.078125 39.550781 52.019531 38.25 C 49.28125 33.25 50.117188 29.085938 54.535156 25.75 C 57.148438 24.875 59.832031 24.625 62.574219 25 C 69.082031 26.859375 71.089844 30.941406 68.605469 37.25 Z M 68.605469 37.25 "/>
<use xlink:href="#surface20" mask="url(#mask5)"/>
<path style=" stroke:none;fill-rule:evenodd;fill:rgb(93.72549%,39.215686%,56.078431%);fill-opacity:1;" d="M 20.859375 26.25 C 21.03125 26.667969 21.367188 26.835938 21.863281 26.75 C 21.113281 28.1875 21.28125 29.523438 22.367188 30.75 C 19.242188 30.949219 16.390625 30.117188 13.820312 28.25 C 13.300781 27.445312 13.636719 26.945312 14.828125 26.75 C 16.613281 27.09375 18.375 27.261719 20.105469 27.25 C 20.246094 26.792969 20.496094 26.457031 20.859375 26.25 Z M 20.859375 26.25 "/>
<path style=" stroke:none;fill-rule:evenodd;fill:rgb(98.431373%,98.039216%,96.862745%);fill-opacity:1;" d="M 35.9375 32.75 C 41.585938 32.125 45.355469 34.457031 47.246094 39.75 C 47.496094 43.246094 47.582031 46.746094 47.496094 50.25 C 40.125 50.25 32.753906 50.25 25.382812 50.25 C 25.8125 42.503906 29.332031 36.671875 35.9375 32.75 Z M 35.9375 32.75 "/>
<path style=" stroke:none;fill-rule:evenodd;fill:rgb(98.431373%,37.254902%,53.72549%);fill-opacity:1;" d="M 12.816406 30.75 C 12.707031 32.140625 12.875 33.472656 13.320312 34.75 C 12.820312 34.707031 12.398438 34.875 12.0625 35.25 C 9.863281 39.671875 8.605469 44.339844 8.292969 49.25 C 7.332031 49.390625 6.492188 49.226562 5.78125 48.75 C 6.28125 48.75 6.785156 48.75 7.289062 48.75 C 8.085938 44.53125 9.09375 40.363281 10.304688 36.25 C 10.351562 35.042969 9.847656 34.128906 8.796875 33.5 C 9.460938 33.09375 9.796875 32.507812 9.800781 31.75 C 10.515625 30.324219 11.519531 29.992188 12.816406 30.75 Z M 12.816406 30.75 "/>
<path style=" stroke:none;fill-rule:evenodd;fill:rgb(5.882353%,3.137255%,4.705882%);fill-opacity:1;" d="M 73.632812 20.25 C 77.585938 22.1875 79.765625 25.351562 80.167969 29.75 C 82.828125 29.246094 85.511719 29.160156 88.210938 29.5 C 89.871094 31.011719 90.625 32.929688 90.472656 35.25 C 92.855469 36.742188 93.609375 38.824219 92.734375 41.5 C 95.203125 44.277344 95.367188 47.191406 93.234375 50.25 C 94.375 52.21875 94.542969 54.300781 93.738281 56.5 C 95.132812 59.074219 94.878906 61.488281 92.984375 63.75 C 92.816406 65.25 92.648438 66.75 92.480469 68.25 C 92.160156 69.152344 91.574219 69.816406 90.722656 70.25 C 90.589844 74.882812 88.246094 77.050781 83.6875 76.75 C 83.351562 76.75 83.015625 76.75 82.679688 76.75 C 81.910156 76.105469 81.070312 76.105469 80.167969 76.75 C 78.992188 80.839844 76.5625 84.003906 72.878906 86.25 C 72.605469 89.121094 71.519531 91.621094 69.613281 93.75 C 69.445312 94.25 69.109375 94.582031 68.605469 94.75 C 64.132812 97.175781 59.609375 97.34375 55.035156 95.25 C 55.074219 93.746094 54.40625 92.660156 53.027344 92 C 53.503906 91.757812 54.003906 91.675781 54.535156 91.75 C 57.253906 94.671875 60.605469 95.507812 64.585938 94.25 C 66.042969 93.777344 67.214844 92.945312 68.105469 91.75 C 69.699219 90.503906 70.539062 88.835938 70.617188 86.75 C 69.386719 86.648438 68.214844 86.816406 67.097656 87.25 C 62.410156 87.25 57.71875 87.25 53.027344 87.25 C 52.90625 87.894531 53.074219 88.394531 53.527344 88.75 C 53.496094 89.480469 53.664062 90.144531 54.03125 90.75 C 51.117188 88.355469 51.621094 86.855469 55.539062 86.25 C 54.980469 85.867188 54.644531 85.367188 54.535156 84.75 C 59.074219 84.859375 63.597656 84.691406 68.105469 84.25 C 75.75 83.21875 78.851562 78.886719 77.402344 71.25 C 76.886719 69.878906 76.132812 68.714844 75.140625 67.75 C 75.289062 67.175781 75.707031 66.84375 76.398438 66.75 C 77.394531 66.871094 78.316406 67.203125 79.164062 67.75 C 79.835938 65.242188 80.503906 62.742188 81.171875 60.25 C 81.160156 55.914062 81.328125 51.496094 81.675781 47 C 80.6875 44.035156 80.101562 40.953125 79.917969 37.75 C 79.632812 37.488281 79.300781 37.324219 78.910156 37.25 C 77.925781 37.949219 76.835938 38.449219 75.644531 38.75 C 75.183594 38.730469 74.847656 38.5625 74.640625 38.25 C 74.976562 37.867188 75.394531 37.53125 75.894531 37.25 C 79.742188 29.914062 77.984375 24.582031 70.617188 21.25 C 71.816406 21.371094 72.824219 21.039062 73.632812 20.25 Z M 73.632812 20.25 "/>
<path style=" stroke:none;fill-rule:evenodd;fill:rgb(92.941176%,54.509804%,65.490196%);fill-opacity:1;" d="M 83.183594 31.25 C 84.535156 31.167969 85.875 31.25 87.203125 31.5 C 88.726562 33.277344 88.476562 34.695312 86.449219 35.75 C 85.710938 35.1875 84.875 34.851562 83.9375 34.75 C 82.695312 35.160156 81.4375 35.496094 80.167969 35.75 C 80.085938 34.570312 80.167969 33.40625 80.417969 32.25 C 81.398438 31.945312 82.320312 31.613281 83.183594 31.25 Z M 83.183594 31.25 "/>
<path style=" stroke:none;fill-rule:evenodd;fill:rgb(92.156863%,47.45098%,60.784314%);fill-opacity:1;" d="M 84.691406 37.75 C 84.292969 38.398438 83.792969 38.980469 83.183594 39.5 C 83.996094 39.617188 84.5 40.035156 84.691406 40.75 C 83.804688 40.679688 82.96875 40.84375 82.179688 41.25 C 81.535156 39.984375 81.535156 38.734375 82.179688 37.5 C 83.125 37.109375 83.964844 37.195312 84.691406 37.75 Z M 84.691406 37.75 "/>
<path style=" stroke:none;fill-rule:evenodd;fill:rgb(59.607843%,27.45098%,35.686275%);fill-opacity:1;" d="M 84.691406 37.75 C 85.027344 37.75 85.359375 37.75 85.695312 37.75 C 85.8125 38.53125 86.148438 39.199219 86.703125 39.75 C 86.214844 40.402344 85.546875 40.738281 84.691406 40.75 C 84.5 40.035156 83.996094 39.617188 83.183594 39.5 C 83.792969 38.980469 84.292969 38.398438 84.691406 37.75 Z M 84.691406 37.75 "/>
<path style=" stroke:none;fill-rule:evenodd;fill:rgb(94.901961%,49.019608%,63.921569%);fill-opacity:1;" d="M 86.703125 39.75 C 86.148438 39.199219 85.8125 38.53125 85.695312 37.75 C 86.195312 36.988281 86.949219 36.652344 87.957031 36.75 C 88.980469 36.675781 89.816406 37.011719 90.472656 37.75 C 90.859375 39.050781 90.773438 40.300781 90.21875 41.5 C 88.378906 42.15625 87.203125 41.574219 86.703125 39.75 Z M 86.703125 39.75 "/>
<path style=" stroke:none;fill-rule:evenodd;fill:rgb(99.607843%,61.568627%,72.54902%);fill-opacity:1;" d="M 74.136719 38.25 C 73.597656 38.625 73.511719 39.125 73.886719 39.75 C 75.960938 40.484375 77.386719 41.898438 78.15625 44 C 78.789062 44.554688 79.375 44.640625 79.917969 44.25 C 80.21875 45.070312 80.46875 45.902344 80.671875 46.75 C 80.1875 48.140625 79.601562 49.472656 78.910156 50.75 C 78.046875 50.792969 77.128906 50.628906 76.148438 50.25 C 74.921875 50.964844 74.082031 51.964844 73.632812 53.25 C 73.003906 53.269531 72.5 53.019531 72.125 52.5 C 73.683594 51.796875 74.605469 50.714844 74.890625 49.25 C 73.417969 48.125 71.828125 47.957031 70.113281 48.75 C 69.789062 48.597656 69.453125 48.429688 69.109375 48.25 C 67.863281 48.949219 66.523438 49.367188 65.089844 49.5 C 64.710938 49.835938 64.542969 50.253906 64.585938 50.75 C 64.082031 51.417969 63.582031 51.417969 63.078125 50.75 C 62.5625 50.550781 62.480469 50.21875 62.828125 49.75 C 63.394531 50.300781 63.816406 50.136719 64.082031 49.25 C 63.523438 48.867188 63.191406 48.367188 63.078125 47.75 C 66.199219 45.644531 68.378906 42.808594 69.613281 39.25 C 71.605469 35.167969 71.605469 31.082031 69.613281 27 C 72.042969 25.011719 73.800781 25.597656 74.890625 28.75 C 75.226562 31.96875 74.976562 35.136719 74.136719 38.25 Z M 74.136719 38.25 "/>
<path style=" stroke:none;fill-rule:evenodd;fill:rgb(87.058824%,41.960784%,57.647059%);fill-opacity:1;" d="M 26.386719 33.25 C 26.183594 35.101562 25.847656 36.933594 25.382812 38.75 C 25.402344 39.207031 25.570312 39.542969 25.886719 39.75 C 25.386719 43.398438 25.050781 47.066406 24.878906 50.75 C 24.390625 51.972656 24.222656 53.308594 24.378906 54.75 C 24.210938 54.75 24.042969 54.75 23.875 54.75 C 23.875 52.417969 23.875 50.082031 23.875 47.75 C 23.582031 42.660156 24.417969 37.824219 26.386719 33.25 Z M 26.386719 33.25 "/>
<path style=" stroke:none;fill-rule:evenodd;fill:rgb(98.431373%,32.156863%,50.588235%);fill-opacity:1;" d="M 14.828125 35.75 C 16.445312 35.949219 17.785156 36.613281 18.847656 37.75 C 17.144531 40.085938 16.390625 42.75 16.585938 45.75 C 15.730469 46.203125 14.8125 46.371094 13.820312 46.25 C 13.492188 45.6875 13.324219 45.023438 13.320312 44.25 C 13.886719 41.425781 14.390625 38.589844 14.828125 35.75 Z M 14.828125 35.75 "/>
<path style=" stroke:none;fill-rule:evenodd;fill:rgb(99.607843%,44.313725%,64.705882%);fill-opacity:1;" d="M 37.949219 41.25 C 40.84375 41.390625 41.683594 42.808594 40.460938 45.5 C 36.898438 45.738281 36.0625 44.320312 37.949219 41.25 Z M 37.949219 41.25 "/>
<path style=" stroke:none;fill-rule:evenodd;fill:rgb(84.313725%,21.568627%,38.823529%);fill-opacity:1;" d="M 12.816406 30.75 C 15.378906 31.683594 17.890625 32.765625 20.355469 34 C 21.707031 35.273438 22.207031 36.855469 21.863281 38.75 C 21.863281 43.75 21.863281 48.75 21.863281 53.75 C 20.355469 53.75 18.847656 53.75 17.339844 53.75 C 17.339844 52.75 17.339844 51.75 17.339844 50.75 C 17.84375 50.75 18.34375 50.75 18.847656 50.75 C 19.320312 46.335938 19.320312 42 18.847656 37.75 C 17.785156 36.613281 16.445312 35.949219 14.828125 35.75 C 14.21875 35.535156 13.714844 35.199219 13.320312 34.75 C 12.875 33.472656 12.707031 32.140625 12.816406 30.75 Z M 12.816406 30.75 "/>
<path style=" stroke:none;fill-rule:evenodd;fill:rgb(99.215686%,48.235294%,61.176471%);fill-opacity:1;" d="M 68.605469 37.25 C 68.433594 38.242188 68.769531 38.910156 69.613281 39.25 C 68.378906 42.808594 66.199219 45.644531 63.078125 47.75 C 59.820312 48.988281 56.46875 49.074219 53.027344 48 C 52.640625 45.042969 51.96875 42.125 51.015625 39.25 C 51.140625 38.644531 51.476562 38.308594 52.019531 38.25 C 53.078125 39.550781 54.25 40.800781 55.539062 42 C 61.386719 44.421875 65.742188 42.839844 68.605469 37.25 Z M 68.605469 37.25 "/>
<path style=" stroke:none;fill-rule:evenodd;fill:rgb(98.431373%,50.588235%,72.54902%);fill-opacity:1;" d="M 90.21875 43.25 C 92.144531 44.117188 92.730469 45.617188 91.980469 47.75 C 90.660156 49.070312 89.40625 49.070312 88.210938 47.75 C 88.066406 46.363281 87.898438 44.945312 87.707031 43.5 C 88.527344 43.253906 89.367188 43.167969 90.21875 43.25 Z M 90.21875 43.25 "/>
<path style=" stroke:none;fill-rule:evenodd;fill:rgb(82.745098%,45.098039%,57.647059%);fill-opacity:1;" d="M 90.21875 43.25 C 89.367188 43.167969 88.527344 43.253906 87.707031 43.5 C 87.898438 44.945312 88.066406 46.363281 88.210938 47.75 C 84.386719 48.789062 82.964844 47.457031 83.9375 43.75 C 86.058594 42.933594 88.152344 42.765625 90.21875 43.25 Z M 90.21875 43.25 "/>
<path style=" stroke:none;fill-rule:evenodd;fill:rgb(99.607843%,56.470588%,69.019608%);fill-opacity:1;" d="M 9.800781 31.75 C 9.796875 32.507812 9.460938 33.09375 8.796875 33.5 C 9.847656 34.128906 10.351562 35.042969 10.304688 36.25 C 9.09375 40.363281 8.085938 44.53125 7.289062 48.75 C 6.785156 48.75 6.28125 48.75 5.78125 48.75 C 3.933594 48.910156 3.097656 48.074219 3.265625 46.25 C 3.601562 44.25 3.9375 42.25 4.273438 40.25 C 5.484375 37.007812 7.324219 34.175781 9.800781 31.75 Z M 9.800781 31.75 "/>
<path style=" stroke:none;fill-rule:evenodd;fill:rgb(99.607843%,55.686275%,68.627451%);fill-opacity:1;" d="M 13.320312 34.75 C 13.714844 35.199219 14.21875 35.535156 14.828125 35.75 C 14.390625 38.589844 13.886719 41.425781 13.320312 44.25 C 13.324219 45.023438 13.492188 45.6875 13.820312 46.25 C 13.820312 46.417969 13.820312 46.582031 13.820312 46.75 C 12.984375 47.71875 12.652344 48.886719 12.816406 50.25 C 12.648438 50.25 12.480469 50.25 12.3125 50.25 C 10.972656 49.917969 9.632812 49.582031 8.292969 49.25 C 8.605469 44.339844 9.863281 39.671875 12.0625 35.25 C 12.398438 34.875 12.820312 34.707031 13.320312 34.75 Z M 13.320312 34.75 "/>
<path style=" stroke:none;fill-rule:evenodd;fill:rgb(87.058824%,38.431373%,52.941176%);fill-opacity:1;" d="M 70.113281 48.75 C 68.976562 49.488281 67.800781 50.238281 66.597656 51 C 66.21875 51.335938 66.050781 51.753906 66.09375 52.25 C 65.707031 51.652344 65.203125 51.152344 64.585938 50.75 C 64.542969 50.253906 64.710938 49.835938 65.089844 49.5 C 66.523438 49.367188 67.863281 48.949219 69.109375 48.25 C 69.453125 48.429688 69.789062 48.597656 70.113281 48.75 Z M 70.113281 48.75 "/>
<path style=" stroke:none;fill-rule:evenodd;fill:rgb(98.823529%,58.039216%,70.588235%);fill-opacity:1;" d="M 81.171875 60.25 C 80.035156 60.070312 79.113281 60.402344 78.410156 61.25 C 77.847656 60.621094 77.765625 60.035156 78.15625 59.5 C 77.53125 59.273438 77.113281 59.523438 76.902344 60.25 C 76.746094 59.617188 76.492188 59.035156 76.148438 58.5 C 76.628906 57.925781 76.460938 57.425781 75.644531 57 C 76.6875 56.210938 76.6875 55.292969 75.644531 54.25 C 75.339844 54.3125 75.171875 54.476562 75.140625 54.75 C 74.472656 54.417969 73.96875 53.917969 73.632812 53.25 C 74.082031 51.964844 74.921875 50.964844 76.148438 50.25 C 77.128906 50.628906 78.046875 50.792969 78.910156 50.75 C 79.601562 49.472656 80.1875 48.140625 80.671875 46.75 C 80.46875 45.902344 80.21875 45.070312 79.917969 44.25 C 79.375 44.640625 78.789062 44.554688 78.15625 44 C 77.386719 41.898438 75.960938 40.484375 73.886719 39.75 C 73.511719 39.125 73.597656 38.625 74.136719 38.25 C 74.304688 38.25 74.472656 38.25 74.640625 38.25 C 74.847656 38.5625 75.183594 38.730469 75.644531 38.75 C 76.835938 38.449219 77.925781 37.949219 78.910156 37.25 C 79.300781 37.324219 79.632812 37.488281 79.917969 37.75 C 80.101562 40.953125 80.6875 44.035156 81.675781 47 C 81.328125 51.496094 81.160156 55.914062 81.171875 60.25 Z M 81.171875 60.25 "/>
<path style=" stroke:none;fill-rule:evenodd;fill:rgb(5.490196%,2.745098%,4.313725%);fill-opacity:1;" d="M 73.632812 53.25 C 73.96875 53.917969 74.472656 54.417969 75.140625 54.75 C 74.617188 56.84375 73.277344 57.59375 71.121094 57 C 68.863281 56.003906 67.1875 54.421875 66.09375 52.25 C 66.050781 51.753906 66.21875 51.335938 66.597656 51 C 67.800781 50.238281 68.976562 49.488281 70.113281 48.75 C 71.828125 47.957031 73.417969 48.125 74.890625 49.25 C 74.605469 50.714844 73.683594 51.796875 72.125 52.5 C 72.5 53.019531 73.003906 53.269531 73.632812 53.25 Z M 73.632812 53.25 "/>
<path style=" stroke:none;fill-rule:evenodd;fill:rgb(98.039216%,18.823529%,38.431373%);fill-opacity:1;" d="M 24.878906 50.75 C 32.417969 50.75 39.957031 50.75 47.496094 50.75 C 47.496094 52.082031 47.496094 53.417969 47.496094 54.75 C 39.789062 54.75 32.082031 54.75 24.378906 54.75 C 24.222656 53.308594 24.390625 51.972656 24.878906 50.75 Z M 24.878906 50.75 "/>
<path style=" stroke:none;fill-rule:evenodd;fill:rgb(83.921569%,43.529412%,56.078431%);fill-opacity:1;" d="M 88.210938 50.25 C 88.210938 52.082031 88.210938 53.917969 88.210938 55.75 C 84.164062 56.3125 82.824219 54.730469 84.1875 51 C 85.574219 50.863281 86.914062 50.613281 88.210938 50.25 Z M 88.210938 50.25 "/>
<path style=" stroke:none;fill-rule:evenodd;fill:rgb(98.431373%,54.117647%,70.588235%);fill-opacity:1;" d="M 88.210938 50.25 C 90.855469 49.570312 92.195312 50.570312 92.230469 53.25 C 91.890625 55.496094 90.550781 56.328125 88.210938 55.75 C 88.210938 53.917969 88.210938 52.082031 88.210938 50.25 Z M 88.210938 50.25 "/>
<path style=" stroke:none;fill-rule:evenodd;fill:rgb(97.647059%,97.254902%,96.078431%);fill-opacity:1;" d="M 23.875 54.75 C 24.042969 54.75 24.210938 54.75 24.378906 54.75 C 32.082031 54.75 39.789062 54.75 47.496094 54.75 C 47.894531 60.050781 47.308594 65.21875 45.738281 70.25 C 43.386719 73.148438 40.289062 74.734375 36.441406 75 C 42.167969 76.257812 47.863281 77.671875 53.527344 79.25 C 57.222656 80.90625 61.074219 81.15625 65.089844 80 C 67.609375 78.992188 70.125 77.910156 72.628906 76.75 C 73.074219 77.164062 73.242188 77.664062 73.132812 78.25 C 72.71875 81.324219 71.046875 83.324219 68.105469 84.25 C 63.597656 84.691406 59.074219 84.859375 54.535156 84.75 C 49.996094 84.839844 45.472656 84.671875 40.964844 84.25 C 32.425781 82.171875 27.148438 76.839844 25.132812 68.25 C 24.1875 63.796875 23.769531 59.296875 23.875 54.75 Z M 23.875 54.75 "/>
<path style=" stroke:none;fill-rule:evenodd;fill:rgb(99.607843%,61.176471%,72.156863%);fill-opacity:1;" d="M 63.078125 50.75 C 63.582031 51.417969 64.082031 51.417969 64.585938 50.75 C 65.203125 51.152344 65.707031 51.652344 66.09375 52.25 C 67.1875 54.421875 68.863281 56.003906 71.121094 57 C 73.277344 57.59375 74.617188 56.84375 75.140625 54.75 C 75.171875 54.476562 75.339844 54.3125 75.644531 54.25 C 76.6875 55.292969 76.6875 56.210938 75.644531 57 C 76.460938 57.425781 76.628906 57.925781 76.148438 58.5 C 76.492188 59.035156 76.746094 59.617188 76.902344 60.25 C 77.113281 59.523438 77.53125 59.273438 78.15625 59.5 C 77.765625 60.035156 77.847656 60.621094 78.410156 61.25 C 79.113281 60.402344 80.035156 60.070312 81.171875 60.25 C 80.503906 62.742188 79.835938 65.242188 79.164062 67.75 C 78.316406 67.203125 77.394531 66.871094 76.398438 66.75 C 75.707031 66.84375 75.289062 67.175781 75.140625 67.75 C 74.964844 71.199219 74.460938 74.53125 73.632812 77.75 C 73.875 76.347656 74.042969 74.933594 74.136719 73.5 C 74.183594 72.3125 73.933594 71.230469 73.382812 70.25 C 73.839844 73.273438 72.75 75.441406 70.113281 76.75 C 71.730469 70.527344 70.054688 65.277344 65.089844 61 C 64.128906 60.4375 63.125 60.023438 62.074219 59.75 C 61.003906 59.34375 59.828125 59.09375 58.554688 59 C 58.890625 58.832031 59.226562 58.667969 59.558594 58.5 C 59.007812 56.96875 59.507812 56.554688 61.066406 57.25 C 61.675781 56.863281 61.675781 56.445312 61.066406 56 C 61.960938 56.488281 62.800781 56.324219 63.582031 55.5 C 62.132812 54.152344 62.46875 53.402344 64.585938 53.25 C 63.109375 52.804688 62.609375 51.96875 63.078125 50.75 Z M 63.078125 50.75 "/>
<path style=" stroke:none;fill-rule:evenodd;fill:rgb(96.078431%,49.019608%,59.607843%);fill-opacity:1;" d="M 62.074219 59.75 C 63.125 60.023438 64.128906 60.4375 65.089844 61 C 70.054688 65.277344 71.730469 70.527344 70.113281 76.75 C 68.859375 77.25 67.6875 77.914062 66.597656 78.75 C 66.292969 78.6875 66.125 78.523438 66.09375 78.25 C 68.910156 75.933594 70 72.933594 69.359375 69.25 C 67.582031 63.722656 63.8125 61.054688 58.050781 61.25 C 56.738281 60.953125 56.738281 60.535156 58.050781 60 C 59.382812 59.75 60.722656 59.667969 62.074219 59.75 Z M 62.074219 59.75 "/>
<path style=" stroke:none;fill-rule:evenodd;fill:rgb(98.431373%,59.215686%,75.294118%);fill-opacity:1;" d="M 84.691406 62.25 C 85.578125 61.769531 86.582031 61.601562 87.707031 61.75 C 87.8125 60.929688 87.648438 60.179688 87.203125 59.5 C 87.609375 58.945312 87.945312 58.359375 88.210938 57.75 C 91.859375 56.804688 92.945312 58.136719 91.476562 61.75 C 90.753906 62.359375 89.914062 62.691406 88.964844 62.75 C 87.558594 62.390625 86.136719 62.226562 84.691406 62.25 Z M 84.691406 62.25 "/>
<path style=" stroke:none;fill-rule:evenodd;fill:rgb(78.823529%,42.352941%,54.901961%);fill-opacity:1;" d="M 88.210938 57.75 C 87.945312 58.359375 87.609375 58.945312 87.203125 59.5 C 87.648438 60.179688 87.8125 60.929688 87.707031 61.75 C 86.582031 61.601562 85.578125 61.769531 84.691406 62.25 C 84.382812 62.195312 84.128906 62.027344 83.9375 61.75 C 83.6875 60.425781 83.601562 59.09375 83.6875 57.75 C 85.195312 57.75 86.703125 57.75 88.210938 57.75 Z M 88.210938 57.75 "/>
<path style=" stroke:none;fill-rule:evenodd;fill:rgb(1.568627%,0.784314%,4.313725%);fill-opacity:1;" d="M 58.050781 61.25 C 63.8125 61.054688 67.582031 63.722656 69.359375 69.25 C 70 72.933594 68.910156 75.933594 66.09375 78.25 C 62.695312 79.738281 59.175781 80.070312 55.539062 79.25 C 53.71875 78.273438 52.210938 76.941406 51.015625 75.25 C 49.875 68.851562 52.21875 64.1875 58.050781 61.25 Z M 58.050781 61.25 "/>
<use xlink:href="#surface23" mask="url(#mask6)"/>
<path style=" stroke:none;fill-rule:evenodd;fill:rgb(99.607843%,65.098039%,72.941176%);fill-opacity:1;" d="M 47.496094 54.75 C 47.832031 57.007812 48.167969 59.339844 48.503906 61.75 C 49.773438 62.25 49.773438 62.664062 48.503906 63 C 50.027344 65.046875 50.363281 67.296875 49.507812 69.75 C 49.609375 71.816406 50.109375 73.648438 51.015625 75.25 C 52.210938 76.941406 53.71875 78.273438 55.539062 79.25 C 54.871094 79.25 54.199219 79.25 53.527344 79.25 C 47.863281 77.671875 42.167969 76.257812 36.441406 75 C 40.289062 74.734375 43.386719 73.148438 45.738281 70.25 C 47.308594 65.21875 47.894531 60.050781 47.496094 54.75 Z M 47.496094 54.75 "/>
<path style=" stroke:none;fill-rule:evenodd;fill:rgb(92.941176%,52.941176%,62.352941%);fill-opacity:1;" d="M 87.203125 64.25 C 91.292969 64.46875 91.796875 66.054688 88.710938 69 C 86.167969 69.1875 83.738281 68.769531 81.425781 67.75 C 80.671875 65.167969 81.589844 64.25 84.1875 65 C 85.109375 65.136719 85.863281 65.554688 86.449219 66.25 C 86.847656 65.628906 87.097656 64.960938 87.203125 64.25 Z M 87.203125 64.25 "/>
<path style=" stroke:none;fill-rule:evenodd;fill:rgb(96.470588%,65.098039%,70.588235%);fill-opacity:1;" d="M 80.167969 70.25 C 82.53125 70.730469 84.875 70.8125 87.203125 70.5 C 87.753906 71.53125 87.835938 72.617188 87.457031 73.75 C 85.039062 74.515625 82.691406 74.347656 80.417969 73.25 C 80.171875 72.261719 80.085938 71.261719 80.167969 70.25 Z M 80.167969 70.25 "/>
<path style=" stroke:none;fill-rule:evenodd;fill:rgb(4.313725%,4.313725%,5.098039%);fill-opacity:1;" d="M 4.273438 34.75 C 4.441406 34.75 4.605469 34.75 4.773438 34.75 C 4.550781 36.578125 4.386719 38.410156 4.273438 40.25 C 3.9375 42.25 3.601562 44.25 3.265625 46.25 C 2.773438 47.980469 2.605469 49.8125 2.765625 51.75 C 2.605469 54.015625 2.773438 56.183594 3.265625 58.25 C 3.632812 64.390625 5.976562 69.640625 10.304688 74 C 11.140625 74.332031 11.980469 74.332031 12.816406 74 C 13.417969 73.453125 14.085938 73.035156 14.828125 72.75 C 17.019531 71.828125 19.03125 70.660156 20.859375 69.25 C 21.167969 69.195312 21.421875 69.027344 21.613281 68.75 C 21.863281 63.753906 21.949219 58.753906 21.863281 53.75 C 21.863281 48.75 21.863281 43.75 21.863281 38.75 C 22.226562 38.542969 22.476562 38.207031 22.617188 37.75 C 22.785156 40.917969 22.953125 44.082031 23.121094 47.25 C 23.3125 47.527344 23.5625 47.695312 23.875 47.75 C 23.875 50.082031 23.875 52.417969 23.875 54.75 C 23.769531 59.296875 24.1875 63.796875 25.132812 68.25 C 27.148438 76.839844 32.425781 82.171875 40.964844 84.25 C 38.660156 84.507812 38.324219 85.507812 39.957031 87.25 C 37.78125 88.503906 35.773438 90.003906 33.925781 91.75 C 33.5625 91.539062 33.3125 91.207031 33.171875 90.75 C 32.835938 91.125 32.417969 91.292969 31.917969 91.25 C 33.320312 89.621094 34.324219 87.789062 34.933594 85.75 C 31.621094 83.292969 28.605469 80.460938 25.886719 77.25 C 25.320312 77.816406 24.652344 78.148438 23.875 78.25 C 22.871094 77.242188 22.03125 76.078125 21.359375 74.75 C 21.785156 74.078125 22.375 73.578125 23.121094 73.25 C 23.417969 72.757812 23.25 72.425781 22.617188 72.25 C 20.375 72.851562 18.277344 73.683594 16.335938 74.75 C 13.75 75.652344 11.574219 77.152344 9.800781 79.25 C 9.390625 78.347656 9.726562 77.597656 10.804688 77 C 9.765625 76.839844 9.597656 76.421875 10.304688 75.75 C 9.210938 74.492188 7.871094 73.660156 6.28125 73.25 C 4.351562 70.242188 2.84375 67.074219 1.757812 63.75 C 0.761719 60.136719 0.09375 56.46875 -0.25 52.75 C -0.25 52.082031 -0.25 51.417969 -0.25 50.75 C 0.417969 50.25 0.417969 49.75 -0.25 49.25 C -0.25 48.917969 -0.25 48.582031 -0.25 48.25 C 0.125 45.5 0.796875 42.75 1.757812 40 C 2.175781 37.988281 3.011719 36.238281 4.273438 34.75 Z M 4.273438 34.75 "/>
<path style=" stroke:none;fill-rule:evenodd;fill:rgb(97.254902%,96.470588%,94.509804%);fill-opacity:1;" d="M 14.828125 70.25 C 14.828125 71.082031 14.828125 71.917969 14.828125 72.75 C 14.085938 73.035156 13.417969 73.453125 12.816406 74 C 11.980469 74.332031 11.140625 74.332031 10.304688 74 C 5.976562 69.640625 3.632812 64.390625 3.265625 58.25 C 3.199219 57.878906 3.285156 57.546875 3.519531 57.25 C 4.542969 57.710938 5.632812 57.878906 6.785156 57.75 C 7.050781 61.125 7.972656 64.292969 9.550781 67.25 C 9.21875 64.09375 8.800781 60.929688 8.292969 57.75 C 9.148438 57.515625 9.902344 57.515625 10.554688 57.75 C 11.746094 62.058594 13.171875 66.226562 14.828125 70.25 Z M 14.828125 70.25 "/>
<path style=" stroke:none;fill-rule:evenodd;fill:rgb(81.960784%,76.078431%,69.803922%);fill-opacity:1;" d="M 16.835938 58.75 C 17.207031 62.28125 17.792969 65.78125 18.597656 69.25 C 18.945312 69.867188 19.195312 69.867188 19.351562 69.25 C 19.851562 69.25 20.355469 69.25 20.859375 69.25 C 19.03125 70.660156 17.019531 71.828125 14.828125 72.75 C 14.828125 71.917969 14.828125 71.082031 14.828125 70.25 C 14.324219 67.414062 13.90625 64.414062 13.570312 61.25 C 12.554688 60.4375 12.640625 59.773438 13.820312 59.25 C 14.886719 59.335938 15.894531 59.171875 16.835938 58.75 Z M 16.835938 58.75 "/>
<path style=" stroke:none;fill-rule:evenodd;fill:rgb(94.509804%,90.588235%,86.666667%);fill-opacity:1;" d="M 16.835938 54.25 C 17.339844 54.25 17.84375 54.25 18.34375 54.25 C 18.546875 59.257812 18.882812 64.257812 19.351562 69.25 C 19.195312 69.867188 18.945312 69.867188 18.597656 69.25 C 17.792969 65.78125 17.207031 62.28125 16.835938 58.75 C 16.835938 57.25 16.835938 55.75 16.835938 54.25 Z M 16.835938 54.25 "/>
<path style=" stroke:none;fill-rule:evenodd;fill:rgb(68.627451%,60.392157%,56.862745%);fill-opacity:1;" d="M 16.835938 54.25 C 16.835938 54.082031 16.835938 53.917969 16.835938 53.75 C 17.003906 53.75 17.171875 53.75 17.339844 53.75 C 18.847656 53.75 20.355469 53.75 21.863281 53.75 C 21.949219 58.753906 21.863281 63.753906 21.613281 68.75 C 21.421875 69.027344 21.167969 69.195312 20.859375 69.25 C 20.355469 69.25 19.851562 69.25 19.351562 69.25 C 18.882812 64.257812 18.546875 59.257812 18.34375 54.25 C 17.84375 54.25 17.339844 54.25 16.835938 54.25 Z M 16.835938 54.25 "/>
<path style=" stroke:none;fill-rule:evenodd;fill:rgb(90.980392%,85.098039%,78.431373%);fill-opacity:1;" d="M 2.765625 51.75 C 4.683594 52.5625 6.695312 53.0625 8.796875 53.25 C 10.027344 53.738281 11.367188 53.902344 12.816406 53.75 C 13.257812 53.683594 13.59375 53.851562 13.820312 54.25 C 13.15625 55.933594 13.15625 57.597656 13.820312 59.25 C 12.640625 59.773438 12.554688 60.4375 13.570312 61.25 C 13.90625 64.414062 14.324219 67.414062 14.828125 70.25 C 13.171875 66.226562 11.746094 62.058594 10.554688 57.75 C 9.902344 57.515625 9.148438 57.515625 8.292969 57.75 C 8.800781 60.929688 9.21875 64.09375 9.550781 67.25 C 7.972656 64.292969 7.050781 61.125 6.785156 57.75 C 5.632812 57.878906 4.542969 57.710938 3.519531 57.25 C 3.285156 57.546875 3.199219 57.878906 3.265625 58.25 C 2.773438 56.183594 2.605469 54.015625 2.765625 51.75 Z M 2.765625 51.75 "/>
<path style=" stroke:none;fill-rule:evenodd;fill:rgb(77.254902%,31.372549%,36.470588%);fill-opacity:1;" d="M 12.3125 50.25 C 12.480469 50.25 12.648438 50.25 12.816406 50.25 C 12.816406 51.417969 12.816406 52.582031 12.816406 53.75 C 11.367188 53.902344 10.027344 53.738281 8.796875 53.25 C 9.96875 53.25 11.140625 53.25 12.3125 53.25 C 12.3125 52.25 12.3125 51.25 12.3125 50.25 Z M 12.3125 50.25 "/>
<path style=" stroke:none;fill-rule:evenodd;fill:rgb(92.54902%,14.901961%,33.72549%);fill-opacity:1;" d="M 3.265625 46.25 C 3.097656 48.074219 3.933594 48.910156 5.78125 48.75 C 6.492188 49.226562 7.332031 49.390625 8.292969 49.25 C 9.632812 49.582031 10.972656 49.917969 12.3125 50.25 C 12.3125 51.25 12.3125 52.25 12.3125 53.25 C 11.140625 53.25 9.96875 53.25 8.796875 53.25 C 6.695312 53.0625 4.683594 52.5625 2.765625 51.75 C 2.605469 49.8125 2.773438 47.980469 3.265625 46.25 Z M 3.265625 46.25 "/>
<path style=" stroke:none;fill-rule:evenodd;fill:rgb(7.058824%,3.921569%,5.882353%);fill-opacity:1;" d="M 13.820312 46.75 C 14.660156 46.75 15.496094 46.75 16.335938 46.75 C 16.585938 49.074219 16.753906 51.410156 16.835938 53.75 C 16.835938 53.917969 16.835938 54.082031 16.835938 54.25 C 16.835938 55.75 16.835938 57.25 16.835938 58.75 C 15.894531 59.171875 14.886719 59.335938 13.820312 59.25 C 13.15625 57.597656 13.15625 55.933594 13.820312 54.25 C 13.59375 53.851562 13.257812 53.683594 12.816406 53.75 C 12.816406 52.582031 12.816406 51.417969 12.816406 50.25 C 12.652344 48.886719 12.984375 47.71875 13.820312 46.75 Z M 13.820312 46.75 "/>
<path style=" stroke:none;fill-rule:evenodd;fill:rgb(96.470588%,40.392157%,56.078431%);fill-opacity:1;" d="M 18.847656 37.75 C 19.320312 42 19.320312 46.335938 18.847656 50.75 C 18.34375 50.75 17.84375 50.75 17.339844 50.75 C 17.339844 51.75 17.339844 52.75 17.339844 53.75 C 17.171875 53.75 17.003906 53.75 16.835938 53.75 C 16.753906 51.410156 16.585938 49.074219 16.335938 46.75 C 15.496094 46.75 14.660156 46.75 13.820312 46.75 C 13.820312 46.582031 13.820312 46.417969 13.820312 46.25 C 14.8125 46.371094 15.730469 46.203125 16.585938 45.75 C 16.390625 42.75 17.144531 40.085938 18.847656 37.75 Z M 18.847656 37.75 "/>
<path style=" stroke:none;fill-rule:evenodd;fill:rgb(98.039216%,50.980392%,65.098039%);fill-opacity:1;" d="M 75.140625 67.75 C 76.132812 68.714844 76.886719 69.878906 77.402344 71.25 C 78.851562 78.886719 75.75 83.21875 68.105469 84.25 C 71.046875 83.324219 72.71875 81.324219 73.132812 78.25 C 73.464844 78.25 73.632812 78.082031 73.632812 77.75 C 74.460938 74.53125 74.964844 71.199219 75.140625 67.75 Z M 75.140625 67.75 "/>
<path style=" stroke:none;fill-rule:evenodd;fill:rgb(98.823529%,72.156863%,74.901961%);fill-opacity:1;" d="M 73.632812 77.75 C 73.632812 78.082031 73.464844 78.25 73.132812 78.25 C 73.242188 77.664062 73.074219 77.164062 72.628906 76.75 C 70.125 77.910156 67.609375 78.992188 65.089844 80 C 61.074219 81.15625 57.222656 80.90625 53.527344 79.25 C 54.199219 79.25 54.871094 79.25 55.539062 79.25 C 59.175781 80.070312 62.695312 79.738281 66.09375 78.25 C 66.125 78.523438 66.292969 78.6875 66.597656 78.75 C 67.6875 77.914062 68.859375 77.25 70.113281 76.75 C 72.75 75.441406 73.839844 73.273438 73.382812 70.25 C 73.933594 71.230469 74.183594 72.3125 74.136719 73.5 C 74.042969 74.933594 73.875 76.347656 73.632812 77.75 Z M 73.632812 77.75 "/>
<path style=" stroke:none;fill-rule:evenodd;fill:rgb(89.019608%,81.960784%,74.117647%);fill-opacity:1;" d="M 16.335938 74.75 C 16.699219 74.960938 16.949219 75.292969 17.089844 75.75 C 17.785156 75.222656 18.539062 75.140625 19.351562 75.5 C 20.320312 77.039062 21.15625 78.621094 21.863281 80.25 C 20.511719 79.398438 19.503906 78.230469 18.847656 76.75 C 17.902344 77.347656 17.648438 78.179688 18.09375 79.25 C 21.109375 82 23.871094 85 26.386719 88.25 C 25.636719 90.832031 23.964844 92.332031 21.359375 92.75 C 23.003906 89.648438 22.503906 86.898438 19.851562 84.5 C 19.351562 84.167969 18.847656 84.167969 18.34375 84.5 C 17.699219 85.203125 17.113281 85.953125 16.585938 86.75 C 15.542969 85.449219 14.871094 83.949219 14.574219 82.25 C 13.464844 81.625 12.375 81.710938 11.308594 82.5 C 10.066406 83.761719 8.890625 85.011719 7.789062 86.25 C 6.847656 85.671875 6.597656 84.835938 7.035156 83.75 C 7.871094 82.175781 8.792969 80.675781 9.800781 79.25 C 11.574219 77.152344 13.75 75.652344 16.335938 74.75 Z M 16.335938 74.75 "/>
<path style=" stroke:none;fill-rule:evenodd;fill:rgb(78.039216%,72.156863%,66.27451%);fill-opacity:1;" d="M 23.875 78.25 C 23.792969 79.097656 23.878906 79.933594 24.125 80.75 C 26.496094 83.535156 29.429688 85.367188 32.921875 86.25 C 33.636719 86.1875 34.308594 86.023438 34.933594 85.75 C 34.324219 87.789062 33.320312 89.621094 31.917969 91.25 C 31.582031 91.417969 31.246094 91.582031 30.910156 91.75 C 29.0625 91.734375 28.476562 90.898438 29.152344 89.25 C 27.796875 87.238281 26.457031 85.238281 25.132812 83.25 C 24.09375 82.132812 23.003906 81.132812 21.863281 80.25 C 21.15625 78.621094 20.320312 77.039062 19.351562 75.5 C 18.539062 75.140625 17.785156 75.222656 17.089844 75.75 C 16.949219 75.292969 16.699219 74.960938 16.335938 74.75 C 18.277344 73.683594 20.375 72.851562 22.617188 72.25 C 23.25 72.425781 23.417969 72.757812 23.121094 73.25 C 22.375 73.578125 21.785156 74.078125 21.359375 74.75 C 22.03125 76.078125 22.871094 77.242188 23.875 78.25 Z M 23.875 78.25 "/>
<path style=" stroke:none;fill-rule:evenodd;fill:rgb(70.588235%,63.529412%,56.078431%);fill-opacity:1;" d="M 34.933594 85.75 C 34.308594 86.023438 33.636719 86.1875 32.921875 86.25 C 29.429688 85.367188 26.496094 83.535156 24.125 80.75 C 23.878906 79.933594 23.792969 79.097656 23.875 78.25 C 24.652344 78.148438 25.320312 77.816406 25.886719 77.25 C 28.605469 80.460938 31.621094 83.292969 34.933594 85.75 Z M 34.933594 85.75 "/>
<use xlink:href="#surface26" mask="url(#mask7)"/>
<path style=" stroke:none;fill-rule:evenodd;fill:rgb(97.647059%,97.254902%,96.078431%);fill-opacity:1;" d="M 21.863281 80.25 C 23.003906 81.132812 24.09375 82.132812 25.132812 83.25 C 26.457031 85.238281 27.796875 87.238281 29.152344 89.25 C 28.476562 90.898438 29.0625 91.734375 30.910156 91.75 C 29.007812 94.230469 26.996094 96.648438 24.878906 99 C 24.042969 99.332031 23.203125 99.332031 22.367188 99 C 16.179688 96.261719 11.320312 92.011719 7.789062 86.25 C 8.890625 85.011719 10.066406 83.761719 11.308594 82.5 C 12.375 81.710938 13.464844 81.625 14.574219 82.25 C 14.871094 83.949219 15.542969 85.449219 16.585938 86.75 C 17.113281 85.953125 17.699219 85.203125 18.34375 84.5 C 18.847656 84.167969 19.351562 84.167969 19.851562 84.5 C 22.503906 86.898438 23.003906 89.648438 21.359375 92.75 C 23.964844 92.332031 25.636719 90.832031 26.386719 88.25 C 23.871094 85 21.109375 82 18.09375 79.25 C 17.648438 78.179688 17.902344 77.347656 18.847656 76.75 C 19.503906 78.230469 20.511719 79.398438 21.863281 80.25 Z M 21.863281 80.25 "/>
<use xlink:href="#surface29" mask="url(#mask8)"/>
<path style=" stroke:none;fill-rule:evenodd;fill:rgb(0.392157%,0.784314%,4.313725%);fill-opacity:1;" d="M 40.964844 84.25 C 45.472656 84.671875 49.996094 84.839844 54.535156 84.75 C 54.644531 85.367188 54.980469 85.867188 55.539062 86.25 C 51.621094 86.855469 51.117188 88.355469 54.03125 90.75 C 54.199219 91.082031 54.367188 91.417969 54.535156 91.75 C 54.003906 91.675781 53.503906 91.757812 53.027344 92 C 54.40625 92.660156 55.074219 93.746094 55.035156 95.25 C 54.375 94.761719 53.707031 94.261719 53.027344 93.75 C 51.191406 96.242188 49.183594 98.574219 46.996094 100.75 C 45.90625 100.640625 45.070312 100.140625 44.480469 99.25 C 43.191406 97.867188 42.1875 98.117188 41.464844 100 C 41.535156 100.652344 41.871094 101.066406 42.472656 101.25 C 42.9375 101.65625 43.441406 102.074219 43.980469 102.5 C 42.929688 103.335938 41.839844 103.585938 40.710938 103.25 C 40.5 103.976562 40.082031 104.226562 39.457031 104 C 39.394531 103.515625 39.394531 103.097656 39.457031 102.75 C 37.703125 101.015625 36.53125 98.929688 35.9375 96.5 C 36.824219 94.65625 37.914062 92.90625 39.203125 91.25 C 39.746094 89.96875 39.996094 88.636719 39.957031 87.25 C 38.324219 85.507812 38.660156 84.507812 40.964844 84.25 Z M 40.964844 84.25 "/>
<path style=" stroke:none;fill-rule:evenodd;fill:rgb(95.686275%,48.235294%,61.960784%);fill-opacity:1;" d="M 68.105469 91.75 C 65.886719 92.878906 64.042969 92.296875 62.574219 90 C 62.742188 89.832031 62.910156 89.667969 63.078125 89.5 C 61.851562 89.480469 60.847656 89.066406 60.0625 88.25 C 62.484375 87.917969 64.828125 87.582031 67.097656 87.25 C 68.214844 86.816406 69.386719 86.648438 70.617188 86.75 C 70.539062 88.835938 69.699219 90.503906 68.105469 91.75 Z M 68.105469 91.75 "/>
<path style=" stroke:none;fill-rule:evenodd;fill:rgb(98.431373%,60%,69.411765%);fill-opacity:1;" d="M 67.097656 87.25 C 64.828125 87.582031 62.484375 87.917969 60.0625 88.25 C 60.847656 89.066406 61.851562 89.480469 63.078125 89.5 C 62.910156 89.667969 62.742188 89.832031 62.574219 90 C 64.042969 92.296875 65.886719 92.878906 68.105469 91.75 C 67.214844 92.945312 66.042969 93.777344 64.585938 94.25 C 64.507812 93.089844 63.921875 92.257812 62.828125 91.75 C 59.730469 90.695312 56.628906 89.695312 53.527344 88.75 C 53.074219 88.394531 52.90625 87.894531 53.027344 87.25 C 57.71875 87.25 62.410156 87.25 67.097656 87.25 Z M 67.097656 87.25 "/>
<path style=" stroke:none;fill-rule:evenodd;fill:rgb(95.294118%,91.372549%,90.588235%);fill-opacity:1;" d="M 53.527344 88.75 C 56.628906 89.695312 59.730469 90.695312 62.828125 91.75 C 63.921875 92.257812 64.507812 93.089844 64.585938 94.25 C 60.605469 95.507812 57.253906 94.671875 54.535156 91.75 C 54.367188 91.417969 54.199219 91.082031 54.03125 90.75 C 53.664062 90.144531 53.496094 89.480469 53.527344 88.75 Z M 53.527344 88.75 "/>
<path style=" stroke:none;fill-rule:evenodd;fill:rgb(92.54902%,92.156863%,90.980392%);fill-opacity:1;" d="M 39.957031 87.25 C 39.996094 88.636719 39.746094 89.96875 39.203125 91.25 C 37.914062 92.90625 36.824219 94.65625 35.9375 96.5 C 36.53125 98.929688 37.703125 101.015625 39.457031 102.75 C 35.734375 101.742188 32.386719 100.078125 29.402344 97.75 C 30.933594 95.730469 32.441406 93.730469 33.925781 91.75 C 35.773438 90.003906 37.78125 88.503906 39.957031 87.25 Z M 39.957031 87.25 "/>
<use xlink:href="#surface32" mask="url(#mask9)"/>
<path style=" stroke:none;fill-rule:evenodd;fill:rgb(89.803922%,82.745098%,76.470588%);fill-opacity:1;" d="M 44.480469 99.25 C 44.3125 100.417969 43.644531 101.082031 42.472656 101.25 C 41.871094 101.066406 41.535156 100.652344 41.464844 100 C 42.1875 98.117188 43.191406 97.867188 44.480469 99.25 Z M 44.480469 99.25 "/>
</g>
</svg>
