<?xml version="1.0" encoding="UTF-8"?>
<svg xmlns="http://www.w3.org/2000/svg" xmlns:xlink="http://www.w3.org/1999/xlink" width="px" height="px" viewBox="0 0 100 100" version="1.1">
<defs>
<filter id="alpha" filterUnits="objectBoundingBox" x="0%" y="0%" width="100%" height="100%">
  <feColorMatrix type="matrix" in="SourceGraphic" values="0 0 0 0 1 0 0 0 0 1 0 0 0 0 1 0 0 0 1 0"/>
</filter>
<mask id="mask0">
  <g filter="url(#alpha)">
<rect x="0" y="0" width="100" height="100" style="fill:rgb(0%,0%,0%);fill-opacity:0.0156863;stroke:none;"/>
  </g>
</mask>
<clipPath id="clip1">
  <rect x="0" y="0" width="100" height="100"/>
</clipPath>
<g id="surface5" clip-path="url(#clip1)">
<path style=" stroke:none;fill-rule:evenodd;fill:rgb(16.470588%,20.392157%,25.098039%);fill-opacity:1;" d="M 48.492188 -0.25 C 49.164062 -0.25 49.832031 -0.25 50.503906 -0.25 C 52.980469 1.0625 55.15625 2.726562 57.035156 4.75 C 54.425781 3.324219 51.828125 1.824219 49.246094 0.25 C 49 0.898438 48.917969 1.5625 48.996094 2.25 C 42.5 0.523438 35.96875 0.355469 29.398438 1.75 C 30.390625 0.996094 31.5625 0.578125 32.914062 0.5 C 37.621094 -0.03125 42.226562 0.21875 46.734375 1.25 C 47.875 1.359375 48.464844 0.859375 48.492188 -0.25 Z M 48.492188 -0.25 "/>
</g>
<mask id="mask1">
  <g filter="url(#alpha)">
<rect x="0" y="0" width="100" height="100" style="fill:rgb(0%,0%,0%);fill-opacity:0.996078;stroke:none;"/>
  </g>
</mask>
<clipPath id="clip2">
  <rect x="0" y="0" width="100" height="100"/>
</clipPath>
<g id="surface8" clip-path="url(#clip2)">
<path style=" stroke:none;fill-rule:evenodd;fill:rgb(7.45098%,4.313725%,5.490196%);fill-opacity:1;" d="M 57.035156 4.75 C 57.96875 5.46875 58.808594 6.300781 59.546875 7.25 C 59.242188 7.695312 59.074219 8.195312 59.046875 8.75 C 57.429688 7.363281 55.585938 6.363281 53.519531 5.75 C 53.195312 5.09375 52.691406 4.59375 52.011719 4.25 C 51.339844 6.582031 50.671875 8.914062 50 11.25 C 49.875 11.855469 49.539062 12.191406 48.996094 12.25 C 49.128906 10.304688 49.460938 8.386719 50 6.5 C 50.113281 5.363281 49.609375 4.78125 48.492188 4.75 C 37.207031 1.011719 26.90625 2.84375 17.589844 10.25 C 17.511719 9.046875 17.765625 7.878906 18.339844 6.75 C 18.175781 6.417969 18.007812 6.082031 17.839844 5.75 C 16.640625 7.828125 15.636719 9.996094 14.824219 12.25 C 14.414062 13.316406 14.164062 14.480469 14.070312 15.75 C 13.902344 15.417969 13.734375 15.082031 13.566406 14.75 C 13.453125 15.367188 13.199219 15.867188 12.8125 16.25 C 12.8125 14.917969 12.8125 13.582031 12.8125 12.25 C 12.660156 11.925781 12.492188 11.589844 12.3125 11.25 C 13.351562 8.894531 14.441406 6.5625 15.578125 4.25 C 16.488281 3.296875 17.496094 2.464844 18.59375 1.75 C 19.597656 2.75 20.351562 3.917969 20.855469 5.25 C 23.558594 3.652344 26.40625 2.484375 29.398438 1.75 C 35.96875 0.355469 42.5 0.523438 48.996094 2.25 C 48.917969 1.5625 49 0.898438 49.246094 0.25 C 51.828125 1.824219 54.425781 3.324219 57.035156 4.75 Z M 57.035156 4.75 "/>
</g>
<mask id="mask2">
  <g filter="url(#alpha)">
<rect x="0" y="0" width="100" height="100" style="fill:rgb(0%,0%,0%);fill-opacity:0.992157;stroke:none;"/>
  </g>
</mask>
<clipPath id="clip3">
  <rect x="0" y="0" width="100" height="100"/>
</clipPath>
<g id="surface11" clip-path="url(#clip3)">
<path style=" stroke:none;fill-rule:evenodd;fill:rgb(5.098039%,3.137255%,3.137255%);fill-opacity:1;" d="M 59.546875 7.25 C 60.527344 7.859375 61.28125 8.691406 61.808594 9.75 C 63.25 8.058594 65.09375 7.390625 67.335938 7.75 C 74.074219 8.035156 77.84375 11.535156 78.644531 18.25 C 82.308594 20.378906 84.320312 23.546875 84.671875 27.75 C 87.472656 27.496094 90.152344 27.910156 92.714844 29 C 95.933594 32.660156 97.859375 36.910156 98.492188 41.75 C 99.285156 49.722656 98.617188 57.554688 96.480469 65.25 C 95.109375 68.28125 93.015625 70.699219 90.199219 72.5 C 88.367188 72.886719 86.527344 73.21875 84.671875 73.5 C 83.835938 76.085938 82.664062 78.5 81.15625 80.75 C 80.527344 81.589844 79.691406 82.253906 78.644531 82.75 C 78.296875 87.800781 75.785156 91.132812 71.105469 92.75 C 68.933594 93.125 66.757812 93.207031 64.574219 93 C 63.003906 92.636719 61.664062 91.886719 60.554688 90.75 C 59.1875 92.109375 57.679688 93.273438 56.03125 94.25 C 55.035156 93.6875 54.027344 93.6875 53.015625 94.25 C 53.742188 93.46875 54.578125 92.800781 55.527344 92.25 C 56.554688 91.359375 57.644531 90.527344 58.792969 89.75 C 58.988281 87.195312 58.738281 84.695312 58.039062 82.25 C 57.484375 81.855469 56.8125 81.605469 56.03125 81.5 C 53.015625 81.332031 50 81.167969 46.984375 81 C 46.648438 80.832031 46.316406 80.667969 45.980469 80.5 C 46.925781 80.402344 47.761719 80.152344 48.492188 79.75 C 52.875 79.835938 57.230469 80.253906 61.558594 81 C 65.914062 81.332031 70.269531 81.332031 74.625 81 C 77.558594 80.820312 79.570312 79.402344 80.652344 76.75 C 81.800781 75.238281 82.300781 73.488281 82.160156 71.5 C 82.089844 69.535156 81.753906 67.621094 81.15625 65.75 C 81.324219 65.25 81.492188 64.75 81.660156 64.25 C 82.410156 64.851562 83.078125 64.851562 83.667969 64.25 C 84.386719 62.859375 84.976562 61.359375 85.425781 59.75 C 85.984375 54.765625 86.238281 49.765625 86.179688 44.75 C 86.019531 43.050781 86.1875 41.382812 86.683594 39.75 C 88.207031 38.980469 88.710938 39.3125 88.191406 40.75 C 87.613281 40.894531 87.277344 41.3125 87.1875 42 C 87.371094 43.355469 87.707031 44.605469 88.191406 45.75 C 89.460938 46.082031 90.800781 46.417969 92.210938 46.75 C 92.394531 47.089844 92.5625 47.425781 92.714844 47.75 C 91.230469 47.613281 89.808594 47.777344 88.441406 48.25 C 88.191406 49.742188 88.109375 51.242188 88.191406 52.75 C 89.699219 52.75 91.207031 52.75 92.714844 52.75 C 92.714844 53.25 92.714844 53.75 92.714844 54.25 C 91.097656 54.09375 89.589844 54.261719 88.191406 54.75 C 87.699219 56.3125 87.53125 57.980469 87.6875 59.75 C 89.070312 59.90625 90.410156 59.738281 91.707031 59.25 C 92.113281 58.464844 92.28125 57.632812 92.210938 56.75 C 92.632812 56.921875 92.800781 57.253906 92.714844 57.75 C 92.714844 58.417969 92.714844 59.082031 92.714844 59.75 C 93.769531 59.898438 94.777344 59.734375 95.730469 59.25 C 96.1875 57.621094 96.355469 55.953125 96.230469 54.25 C 95.394531 54.25 94.554688 54.25 93.71875 54.25 C 93.933594 53.789062 94.605469 53.539062 95.730469 53.5 C 94.945312 53.394531 94.277344 53.144531 93.71875 52.75 C 94.707031 52.871094 95.628906 52.703125 96.480469 52.25 C 96.734375 50.757812 96.816406 49.257812 96.734375 47.75 C 95.730469 47.75 94.722656 47.75 93.71875 47.75 C 93.71875 47.25 93.71875 46.75 93.71875 46.25 C 94.722656 46.25 95.730469 46.25 96.734375 46.25 C 96.886719 44.808594 96.71875 43.472656 96.230469 42.25 C 96.351562 41.605469 96.183594 41.105469 95.730469 40.75 C 95 40.347656 94.160156 40.097656 93.214844 40 C 94.039062 39.753906 94.875 39.667969 95.730469 39.75 C 95.847656 39.105469 95.679688 38.605469 95.226562 38.25 C 95.46875 36.210938 94.632812 35.042969 92.714844 34.75 C 92.714844 36.082031 92.714844 37.417969 92.714844 38.75 C 92.148438 39.472656 91.394531 39.972656 90.453125 40.25 C 90.367188 40.082031 90.285156 39.917969 90.199219 39.75 C 90.753906 39.414062 91.257812 39.078125 91.707031 38.75 C 91.410156 37.4375 91.242188 36.101562 91.207031 34.75 C 89.699219 34.75 88.191406 34.75 86.683594 34.75 C 86.683594 35.417969 86.683594 36.082031 86.683594 36.75 C 86.761719 37.4375 86.679688 38.101562 86.433594 38.75 C 86.09375 38.375 85.675781 38.207031 85.175781 38.25 C 84.929688 37.503906 84.59375 36.835938 84.171875 36.25 C 83.085938 35.792969 81.910156 35.792969 80.652344 36.25 C 81.539062 32.292969 81.789062 28.292969 81.40625 24.25 C 81.007812 22.945312 80.253906 21.945312 79.144531 21.25 C 78.476562 20.917969 77.804688 20.582031 77.136719 20.25 C 71.796875 19.785156 66.433594 19.617188 61.054688 19.75 C 60.84375 19.390625 60.511719 19.140625 60.050781 19 C 60.21875 18.832031 60.386719 18.667969 60.554688 18.5 C 64.496094 18.414062 68.347656 18.164062 72.109375 17.75 C 73.28125 17.75 74.457031 17.75 75.628906 17.75 C 75.777344 16.632812 75.609375 15.632812 75.125 14.75 C 72.210938 9.570312 68.191406 8.402344 63.066406 11.25 C 62.519531 11.269531 62.019531 11.4375 61.558594 11.75 C 60.878906 11.238281 60.207031 10.738281 59.546875 10.25 C 59.519531 9.695312 59.351562 9.195312 59.046875 8.75 C 59.074219 8.195312 59.242188 7.695312 59.546875 7.25 Z M 59.546875 7.25 "/>
</g>
<mask id="mask3">
  <g filter="url(#alpha)">
<rect x="0" y="0" width="100" height="100" style="fill:rgb(0%,0%,0%);fill-opacity:0.0117647;stroke:none;"/>
  </g>
</mask>
<clipPath id="clip4">
  <rect x="0" y="0" width="100" height="100"/>
</clipPath>
<g id="surface14" clip-path="url(#clip4)">
<path style=" stroke:none;fill-rule:evenodd;fill:rgb(17.647059%,22.352941%,25.882353%);fill-opacity:1;" d="M 57.035156 4.75 C 58.898438 5.550781 60.65625 6.550781 62.3125 7.75 C 68.632812 5.402344 73.824219 6.902344 77.890625 12.25 C 78.695312 13.824219 79.199219 15.492188 79.398438 17.25 C 82.625 19.457031 84.632812 22.457031 85.425781 26.25 C 87.824219 26.894531 90.25 27.476562 92.714844 28 C 96.894531 31.898438 99.238281 36.648438 99.75 42.25 C 99.75 42.417969 99.75 42.582031 99.75 42.75 C 99.078125 42.917969 99.078125 43.082031 99.75 43.25 C 99.75 44.917969 99.75 46.582031 99.75 48.25 C 99.078125 48.417969 99.078125 48.582031 99.75 48.75 C 99.75 49.25 99.75 49.75 99.75 50.25 C 99.078125 50.917969 99.078125 51.582031 99.75 52.25 C 99.75 52.417969 99.75 52.582031 99.75 52.75 C 99.078125 52.917969 99.078125 53.082031 99.75 53.25 C 99.75 53.582031 99.75 53.917969 99.75 54.25 C 99.195312 59.28125 97.769531 64.113281 95.476562 68.75 C 94.105469 70.238281 92.683594 71.652344 91.207031 73 C 89.8125 73.207031 88.472656 73.625 87.1875 74.25 C 86.707031 73.835938 86.207031 73.753906 85.679688 74 C 84.734375 75.472656 83.980469 77.054688 83.417969 78.75 C 82.976562 79.816406 82.222656 80.484375 81.15625 80.75 C 82.664062 78.5 83.835938 76.085938 84.671875 73.5 C 86.527344 73.21875 88.367188 72.886719 90.199219 72.5 C 93.015625 70.699219 95.109375 68.28125 96.480469 65.25 C 98.617188 57.554688 99.285156 49.722656 98.492188 41.75 C 97.859375 36.910156 95.933594 32.660156 92.714844 29 C 90.152344 27.910156 87.472656 27.496094 84.671875 27.75 C 84.320312 23.546875 82.308594 20.378906 78.644531 18.25 C 77.84375 11.535156 74.074219 8.035156 67.335938 7.75 C 65.09375 7.390625 63.25 8.058594 61.808594 9.75 C 61.28125 8.691406 60.527344 7.859375 59.546875 7.25 C 58.808594 6.300781 57.96875 5.46875 57.035156 4.75 Z M 57.035156 4.75 "/>
</g>
<mask id="mask4">
  <g filter="url(#alpha)">
<rect x="0" y="0" width="100" height="100" style="fill:rgb(0%,0%,0%);fill-opacity:0.129412;stroke:none;"/>
  </g>
</mask>
<clipPath id="clip5">
  <rect x="0" y="0" width="100" height="100"/>
</clipPath>
<g id="surface17" clip-path="url(#clip5)">
<path style=" stroke:none;fill-rule:evenodd;fill:rgb(14.901961%,16.862745%,22.745098%);fill-opacity:1;" d="M 12.8125 12.25 C 12.8125 13.582031 12.8125 14.917969 12.8125 16.25 C 8.585938 19.132812 4.902344 22.632812 1.757812 26.75 C 3.496094 28.21875 5.507812 29.21875 7.789062 29.75 C 6.550781 30.894531 6.550781 31.976562 7.789062 33 C 4.328125 35.972656 2.230469 39.722656 1.507812 44.25 C 1.09375 48.277344 1.261719 52.277344 2.011719 56.25 C 3.101562 59.507812 4.527344 62.589844 6.28125 65.5 C 5.5625 65.789062 4.894531 65.707031 4.269531 65.25 C 3.773438 65.335938 3.4375 65.167969 3.265625 64.75 C 3.957031 64.828125 4.625 64.746094 5.277344 64.5 C 2.476562 60.171875 0.882812 55.421875 0.503906 50.25 C 0.308594 49.972656 0.0585938 49.804688 -0.25 49.75 C -0.25 49.25 -0.25 48.75 -0.25 48.25 C 0.332031 42.441406 2.507812 37.273438 6.28125 32.75 C 6.117188 31.746094 5.949219 30.746094 5.777344 29.75 C 3.878906 29.222656 2.203125 28.304688 0.753906 27 C 3.832031 22.769531 7.433594 19.019531 11.558594 15.75 C 11.503906 14.503906 11.921875 13.339844 12.8125 12.25 Z M 12.8125 12.25 "/>
</g>
<mask id="mask5">
  <g filter="url(#alpha)">
<rect x="0" y="0" width="100" height="100" style="fill:rgb(0%,0%,0%);fill-opacity:0.992157;stroke:none;"/>
  </g>
</mask>
<clipPath id="clip6">
  <rect x="0" y="0" width="100" height="100"/>
</clipPath>
<g id="surface20" clip-path="url(#clip6)">
<path style=" stroke:none;fill-rule:evenodd;fill:rgb(7.843137%,1.960784%,2.745098%);fill-opacity:1;" d="M 14.824219 12.25 C 14.824219 13.25 14.824219 14.25 14.824219 15.25 C 15.492188 15.25 16.164062 15.25 16.835938 15.25 C 17.167969 15.25 17.335938 15.417969 17.335938 15.75 C 12.410156 18.3125 8.222656 21.8125 4.773438 26.25 C 4.878906 26.542969 5.046875 26.792969 5.277344 27 C 6.113281 27.082031 6.953125 27.167969 7.789062 27.25 C 10.207031 26.789062 12.550781 26.203125 14.824219 25.5 C 12.835938 26.617188 11.078125 28.035156 9.546875 29.75 C 9.171875 30.316406 9.253906 30.816406 9.800781 31.25 C 10.386719 31.460938 10.890625 31.792969 11.304688 32.25 C 7.960938 34.910156 5.613281 38.242188 4.269531 42.25 C 3.039062 46.816406 2.957031 51.480469 4.019531 56.25 C 4.917969 57.867188 5.671875 59.535156 6.28125 61.25 C 6.898438 62.539062 7.734375 63.703125 8.792969 64.75 C 7.988281 65.589844 7.652344 66.589844 7.789062 67.75 C 7.117188 67.75 6.449219 67.75 5.777344 67.75 C 5.339844 67.683594 5.003906 67.851562 4.773438 68.25 C 5.34375 68.8125 5.675781 69.476562 5.777344 70.25 C 3.78125 68.8125 3.28125 67.148438 4.269531 65.25 C 4.894531 65.707031 5.5625 65.789062 6.28125 65.5 C 4.527344 62.589844 3.101562 59.507812 2.011719 56.25 C 1.261719 52.277344 1.09375 48.277344 1.507812 44.25 C 2.230469 39.722656 4.328125 35.972656 7.789062 33 C 6.550781 31.976562 6.550781 30.894531 7.789062 29.75 C 5.507812 29.21875 3.496094 28.21875 1.757812 26.75 C 4.902344 22.632812 8.585938 19.132812 12.8125 16.25 C 13.199219 15.867188 13.453125 15.367188 13.566406 14.75 C 13.734375 15.082031 13.902344 15.417969 14.070312 15.75 C 14.164062 14.480469 14.414062 13.316406 14.824219 12.25 Z M 14.824219 12.25 "/>
</g>
</defs>
<g id="surface1">
<use xlink:href="#surface5" mask="url(#mask0)"/>
<use xlink:href="#surface8" mask="url(#mask1)"/>
<path style=" stroke:none;fill-rule:evenodd;fill:rgb(98.431373%,5.098039%,25.882353%);fill-opacity:1;" d="M 48.492188 4.75 C 48.390625 5.773438 47.96875 5.941406 47.234375 5.25 C 46.671875 5.972656 45.917969 6.304688 44.976562 6.25 C 40.535156 5.398438 36.179688 5.648438 31.910156 7 C 35.070312 7.035156 38.085938 7.703125 40.953125 9 C 42.273438 10.707031 43.527344 12.457031 44.722656 14.25 C 44.878906 13.617188 45.128906 13.035156 45.476562 12.5 C 46.636719 12.25 47.8125 12.167969 48.996094 12.25 C 49.539062 12.191406 49.875 11.855469 50 11.25 C 50.671875 8.914062 51.339844 6.582031 52.011719 4.25 C 52.691406 4.59375 53.195312 5.09375 53.519531 5.75 C 54.929688 8.566406 55.347656 11.566406 54.773438 14.75 C 54.351562 15.921875 53.683594 16.921875 52.765625 17.75 C 52.042969 16.480469 51.207031 15.3125 50.25 14.25 C 45.566406 15.71875 40.957031 15.550781 36.433594 13.75 C 36.265625 13.832031 36.097656 13.917969 35.929688 14 C 38.183594 15.566406 39.269531 17.652344 39.195312 20.25 C 37.433594 22.171875 35.507812 23.921875 33.417969 25.5 C 30.386719 25.972656 27.371094 26.472656 24.371094 27 C 27.476562 27.671875 28.984375 29.589844 28.894531 32.75 C 28.644531 32.917969 28.390625 33.082031 28.140625 33.25 C 26.457031 32.511719 24.699219 32.179688 22.863281 32.25 C 21.429688 32.941406 20.257812 32.609375 19.347656 31.25 C 19.011719 31.757812 18.425781 32.257812 17.589844 32.75 C 16.703125 32.527344 16.785156 32.277344 17.839844 32 C 15.355469 31.867188 13.007812 32.367188 10.804688 33.5 C 9.1875 35.601562 8.6875 37.769531 9.296875 40 C 9.035156 40.476562 8.699219 40.890625 8.292969 41.25 C 8.945312 42.292969 8.695312 43.128906 7.539062 43.75 C 7.035156 43.417969 6.53125 43.082031 6.03125 42.75 C 5.445312 43.644531 5.109375 44.644531 5.023438 45.75 C 4.917969 44.972656 4.667969 44.304688 4.269531 43.75 C 4.269531 43.25 4.269531 42.75 4.269531 42.25 C 5.613281 38.242188 7.960938 34.910156 11.304688 32.25 C 10.890625 31.792969 10.386719 31.460938 9.800781 31.25 C 9.253906 30.816406 9.171875 30.316406 9.546875 29.75 C 11.078125 28.035156 12.835938 26.617188 14.824219 25.5 C 12.550781 26.203125 10.207031 26.789062 7.789062 27.25 C 6.953125 27.167969 6.113281 27.082031 5.277344 27 C 5.046875 26.792969 4.878906 26.542969 4.773438 26.25 C 8.222656 21.8125 12.410156 18.3125 17.335938 15.75 C 19.152344 15.257812 20.996094 14.839844 22.863281 14.5 C 20.714844 14.101562 18.703125 14.351562 16.835938 15.25 C 16.164062 15.25 15.492188 15.25 14.824219 15.25 C 14.824219 14.25 14.824219 13.25 14.824219 12.25 C 15.636719 9.996094 16.640625 7.828125 17.839844 5.75 C 18.007812 6.082031 18.175781 6.417969 18.339844 6.75 C 17.765625 7.878906 17.511719 9.046875 17.589844 10.25 C 26.90625 2.84375 37.207031 1.011719 48.492188 4.75 Z M 48.492188 4.75 "/>
<path style=" stroke:none;fill-rule:evenodd;fill:rgb(77.647059%,0%,14.117647%);fill-opacity:1;" d="M 48.492188 4.75 C 49.609375 4.78125 50.113281 5.363281 50 6.5 C 49.460938 8.386719 49.128906 10.304688 48.996094 12.25 C 47.8125 12.167969 46.636719 12.25 45.476562 12.5 C 45.128906 13.035156 44.878906 13.617188 44.722656 14.25 C 43.527344 12.457031 42.273438 10.707031 40.953125 9 C 38.085938 7.703125 35.070312 7.035156 31.910156 7 C 36.179688 5.648438 40.535156 5.398438 44.976562 6.25 C 45.917969 6.304688 46.671875 5.972656 47.234375 5.25 C 47.96875 5.941406 48.390625 5.773438 48.492188 4.75 Z M 48.492188 4.75 "/>
<path style=" stroke:none;fill-rule:evenodd;fill:rgb(90.588235%,72.156863%,56.470588%);fill-opacity:1;" d="M 75.125 14.75 C 73.558594 13.296875 71.628906 12.460938 69.347656 12.25 C 67.855469 12.71875 66.347656 13.21875 64.824219 13.75 C 63.902344 13.742188 63.148438 13.40625 62.5625 12.75 C 62.589844 12.195312 62.757812 11.695312 63.066406 11.25 C 68.191406 8.402344 72.210938 9.570312 75.125 14.75 Z M 75.125 14.75 "/>
<path style=" stroke:none;fill-rule:evenodd;fill:rgb(50.196078%,0.392157%,7.45098%);fill-opacity:1;" d="M 17.335938 15.75 C 17.335938 15.417969 17.167969 15.25 16.835938 15.25 C 18.703125 14.351562 20.714844 14.101562 22.863281 14.5 C 20.996094 14.839844 19.152344 15.257812 17.335938 15.75 Z M 17.335938 15.75 "/>
<path style=" stroke:none;fill-rule:evenodd;fill:rgb(71.372549%,36.862745%,24.313725%);fill-opacity:1;" d="M 75.125 14.75 C 75.609375 15.632812 75.777344 16.632812 75.628906 17.75 C 74.457031 17.75 73.28125 17.75 72.109375 17.75 C 68.242188 17.914062 64.390625 17.75 60.554688 17.25 C 60.851562 15.535156 61.519531 14.035156 62.5625 12.75 C 63.148438 13.40625 63.902344 13.742188 64.824219 13.75 C 66.347656 13.21875 67.855469 12.71875 69.347656 12.25 C 71.628906 12.460938 73.558594 13.296875 75.125 14.75 Z M 75.125 14.75 "/>
<use xlink:href="#surface11" mask="url(#mask2)"/>
<path style=" stroke:none;fill-rule:evenodd;fill:rgb(8.627451%,1.568627%,1.568627%);fill-opacity:1;" d="M 59.546875 10.25 C 60.207031 10.738281 60.878906 11.238281 61.558594 11.75 C 62.019531 11.4375 62.519531 11.269531 63.066406 11.25 C 62.757812 11.695312 62.589844 12.195312 62.5625 12.75 C 61.519531 14.035156 60.851562 15.535156 60.554688 17.25 C 64.390625 17.75 68.242188 17.914062 72.109375 17.75 C 68.347656 18.164062 64.496094 18.414062 60.554688 18.5 C 60.386719 18.667969 60.21875 18.832031 60.050781 19 C 60.511719 19.140625 60.84375 19.390625 61.054688 19.75 C 59.1875 19.710938 57.347656 19.878906 55.527344 20.25 C 51.59375 20.011719 47.742188 20.347656 43.96875 21.25 C 39.503906 22.945312 36.238281 25.945312 34.171875 30.25 C 34.003906 37.417969 33.835938 44.582031 33.667969 51.75 C 30.421875 58.875 30.757812 65.875 34.671875 72.75 C 35.53125 73.6875 36.449219 74.519531 37.4375 75.25 C 40.601562 77.914062 44.289062 79.414062 48.492188 79.75 C 47.761719 80.152344 46.925781 80.402344 45.980469 80.5 C 46.316406 80.667969 46.648438 80.832031 46.984375 81 C 50 81.167969 53.015625 81.332031 56.03125 81.5 C 56.8125 81.605469 57.484375 81.855469 58.039062 82.25 C 51.277344 82.082031 44.578125 81.414062 37.941406 80.25 C 37.496094 77.640625 35.988281 75.976562 33.417969 75.25 C 33.25 74.917969 33.082031 74.582031 32.914062 74.25 C 31.953125 72.878906 31.28125 71.378906 30.90625 69.75 C 30.90625 69.417969 30.738281 69.25 30.402344 69.25 C 30.308594 68.21875 30.058594 67.21875 29.648438 66.25 C 29.480469 61.082031 29.3125 55.917969 29.144531 50.75 C 28.625 49.625 28.035156 48.542969 27.386719 47.5 C 27.5 47.300781 27.667969 47.21875 27.890625 47.25 C 29.269531 48.617188 30.441406 50.117188 31.40625 51.75 C 31.332031 52.277344 31.414062 52.777344 31.660156 53.25 C 32.871094 48.996094 33.207031 44.664062 32.664062 40.25 C 32.546875 39.632812 32.296875 39.132812 31.910156 38.75 C 32.078125 38.082031 32.246094 37.417969 32.410156 36.75 C 32.328125 34.246094 32.414062 31.746094 32.664062 29.25 C 38.15625 20.0625 46.28125 16.3125 57.035156 18 C 57.621094 17.417969 58.207031 16.832031 58.792969 16.25 C 58.945312 14.226562 59.199219 12.226562 59.546875 10.25 Z M 59.546875 10.25 "/>
<use xlink:href="#surface14" mask="url(#mask3)"/>
<path style=" stroke:none;fill-rule:evenodd;fill:rgb(89.411765%,56.862745%,39.607843%);fill-opacity:1;" d="M 61.054688 19.75 C 66.433594 19.617188 71.796875 19.785156 77.136719 20.25 C 74.242188 21 71.226562 21.332031 68.089844 21.25 C 63.800781 21.21875 59.613281 20.882812 55.527344 20.25 C 57.347656 19.878906 59.1875 19.710938 61.054688 19.75 Z M 61.054688 19.75 "/>
<path style=" stroke:none;fill-rule:evenodd;fill:rgb(78.431373%,38.823529%,26.27451%);fill-opacity:1;" d="M 55.527344 20.25 C 59.613281 20.882812 63.800781 21.21875 68.089844 21.25 C 71.226562 21.332031 74.242188 21 77.136719 20.25 C 77.804688 20.582031 78.476562 20.917969 79.144531 21.25 C 80.484375 25.386719 80.402344 29.554688 78.894531 33.75 C 78.726562 33.917969 78.558594 34.082031 78.390625 34.25 C 78.148438 33.777344 78.066406 33.277344 78.140625 32.75 C 79.753906 29.359375 79.253906 26.273438 76.632812 23.5 C 75.21875 22.640625 73.710938 22.304688 72.109375 22.5 C 75.5 24.664062 76.925781 27.746094 76.382812 31.75 C 76.261719 32.925781 75.84375 33.925781 75.125 34.75 C 75.125 34.417969 75.125 34.082031 75.125 33.75 C 75.53125 26.902344 72.265625 23.234375 65.328125 22.75 C 61.605469 22.703125 59.011719 24.371094 57.539062 27.75 C 58.609375 25.597656 57.9375 24.347656 55.527344 24 C 48.335938 22.191406 42.476562 24.105469 37.941406 29.75 C 37.773438 30.25 37.4375 30.582031 36.933594 30.75 C 36.9375 29.242188 37.441406 27.90625 38.441406 26.75 C 40.207031 24.957031 42.21875 23.542969 44.472656 22.5 C 44.09375 22.164062 43.925781 21.746094 43.96875 21.25 C 47.742188 20.347656 51.59375 20.011719 55.527344 20.25 Z M 55.527344 20.25 "/>
<path style=" stroke:none;fill-rule:evenodd;fill:rgb(5.098039%,1.960784%,1.960784%);fill-opacity:1;" d="M 75.125 33.75 C 72.042969 38.109375 67.855469 39.609375 62.5625 38.25 C 61.089844 37.375 59.667969 36.375 58.292969 35.25 C 57.605469 33.148438 57.351562 30.984375 57.539062 28.75 C 57.539062 28.417969 57.539062 28.082031 57.539062 27.75 C 59.011719 24.371094 61.605469 22.703125 65.328125 22.75 C 72.265625 23.234375 75.53125 26.902344 75.125 33.75 Z M 75.125 33.75 "/>
<path style=" stroke:none;fill-rule:evenodd;fill:rgb(98.039216%,81.176471%,5.882353%);fill-opacity:1;" d="M 69.09375 36.75 C 66.699219 37.597656 64.523438 37.265625 62.5625 35.75 C 64.695312 36.769531 65.871094 36.105469 66.082031 33.75 C 66.042969 32.851562 65.789062 32.015625 65.328125 31.25 C 65.082031 31.898438 64.996094 32.5625 65.074219 33.25 C 64.238281 33.25 63.402344 33.25 62.5625 33.25 C 62.464844 31.371094 63.132812 29.871094 64.574219 28.75 C 64.394531 28.238281 64.058594 27.90625 63.566406 27.75 C 64.054688 27.34375 64.472656 26.84375 64.824219 26.25 C 69.734375 26.472656 71.574219 28.972656 70.351562 33.75 C 69.566406 34.609375 69.148438 35.609375 69.09375 36.75 Z M 69.09375 36.75 "/>
<path style=" stroke:none;fill-rule:evenodd;fill:rgb(99.215686%,73.333333%,52.156863%);fill-opacity:1;" d="M 54.019531 33.75 C 51.375 36.585938 50.871094 39.753906 52.511719 43.25 C 51.96875 43.269531 51.464844 43.4375 51.003906 43.75 C 50.726562 44.664062 50.222656 45.332031 49.496094 45.75 C 50.28125 44.933594 50.113281 44.351562 48.996094 44 C 45.632812 43.214844 43.035156 44.296875 41.207031 47.25 C 40.957031 48.40625 40.871094 49.570312 40.953125 50.75 C 40.953125 51.25 40.953125 51.75 40.953125 52.25 C 40.140625 52.179688 39.550781 52.511719 39.195312 53.25 C 39.011719 52.546875 38.59375 52.046875 37.941406 51.75 C 37.273438 53.074219 36.433594 54.242188 35.425781 55.25 C 36.328125 52.492188 36.832031 49.660156 36.933594 46.75 C 36.324219 41.40625 36.324219 36.070312 36.933594 30.75 C 37.4375 30.582031 37.773438 30.25 37.941406 29.75 C 39.140625 29.3125 40.144531 28.5625 40.953125 27.5 C 42.160156 27.144531 43.332031 27.226562 44.472656 27.75 C 45.535156 27.484375 46.457031 26.984375 47.234375 26.25 C 48.253906 26.492188 49.34375 26.492188 50.503906 26.25 C 50.425781 25.722656 50.511719 25.222656 50.753906 24.75 C 51.671875 25.050781 52.59375 25.386719 53.519531 25.75 C 53.253906 26.097656 52.917969 26.347656 52.511719 26.5 C 53.785156 26.804688 54.203125 27.554688 53.769531 28.75 C 52.566406 27.007812 51.140625 26.925781 49.496094 28.5 C 50.035156 29.125 50.035156 29.792969 49.496094 30.5 C 49.628906 31.128906 49.960938 31.628906 50.503906 32 C 50.023438 32.359375 49.941406 32.777344 50.25 33.25 C 51.605469 31.8125 52.359375 32.144531 52.511719 34.25 C 52.890625 33.8125 53.140625 33.3125 53.265625 32.75 C 53.601562 33.417969 53.9375 33.417969 54.269531 32.75 C 54.617188 33.21875 54.535156 33.550781 54.019531 33.75 Z M 54.019531 33.75 "/>
<path style=" stroke:none;fill-rule:evenodd;fill:rgb(97.254902%,73.333333%,49.411765%);fill-opacity:1;" d="M 57.539062 27.75 C 57.539062 28.082031 57.539062 28.417969 57.539062 28.75 C 57.152344 29.132812 56.902344 29.632812 56.785156 30.25 C 56.097656 33.558594 56.683594 36.558594 58.542969 39.25 C 61.242188 42.039062 64.59375 43.371094 68.59375 43.25 C 68.683594 43.847656 68.851562 44.429688 69.09375 45 C 68.121094 46.605469 67.28125 48.273438 66.582031 50 C 66.597656 51.449219 67.101562 52.699219 68.089844 53.75 C 67.457031 53.492188 66.957031 53.824219 66.582031 54.75 C 67.109375 55.273438 67.613281 55.773438 68.089844 56.25 C 68.035156 56.558594 67.867188 56.808594 67.589844 57 C 65.757812 57.496094 63.914062 57.914062 62.058594 58.25 C 62.78125 57.785156 63.453125 57.203125 64.070312 56.5 C 62.070312 56.175781 60.230469 56.589844 58.542969 57.75 C 58.066406 57.507812 57.566406 57.339844 57.035156 57.25 C 56.355469 57.683594 55.9375 58.183594 55.777344 58.75 C 54.800781 58.648438 54.214844 58.148438 54.019531 57.25 C 56.882812 56.449219 59.3125 54.949219 61.304688 52.75 C 62.296875 46.632812 59.867188 42.546875 54.019531 40.5 C 53.707031 40.125 53.453125 39.707031 53.265625 39.25 C 53.136719 37.375 53.390625 35.542969 54.019531 33.75 C 54.535156 33.550781 54.617188 33.21875 54.269531 32.75 C 53.9375 33.417969 53.601562 33.417969 53.265625 32.75 C 53.140625 33.3125 52.890625 33.8125 52.511719 34.25 C 52.359375 32.144531 51.605469 31.8125 50.25 33.25 C 49.941406 32.777344 50.023438 32.359375 50.503906 32 C 49.960938 31.628906 49.628906 31.128906 49.496094 30.5 C 50.035156 29.792969 50.035156 29.125 49.496094 28.5 C 51.140625 26.925781 52.566406 27.007812 53.769531 28.75 C 54.203125 27.554688 53.785156 26.804688 52.511719 26.5 C 52.917969 26.347656 53.253906 26.097656 53.519531 25.75 C 52.59375 25.386719 51.671875 25.050781 50.753906 24.75 C 50.511719 25.222656 50.425781 25.722656 50.503906 26.25 C 49.34375 26.492188 48.253906 26.492188 47.234375 26.25 C 46.457031 26.984375 45.535156 27.484375 44.472656 27.75 C 43.332031 27.226562 42.160156 27.144531 40.953125 27.5 C 40.144531 28.5625 39.140625 29.3125 37.941406 29.75 C 42.476562 24.105469 48.335938 22.191406 55.527344 24 C 57.9375 24.347656 58.609375 25.597656 57.539062 27.75 Z M 57.539062 27.75 "/>
<path style=" stroke:none;fill-rule:evenodd;fill:rgb(85.490196%,66.666667%,1.960784%);fill-opacity:1;" d="M 69.09375 36.75 C 69.148438 35.609375 69.566406 34.609375 70.351562 33.75 C 71.574219 28.972656 69.734375 26.472656 64.824219 26.25 C 64.472656 26.84375 64.054688 27.34375 63.566406 27.75 C 62.730469 28.417969 61.894531 29.082031 61.054688 29.75 C 62.511719 25.960938 65.191406 24.710938 69.09375 26 C 73.011719 29.59375 73.011719 33.175781 69.09375 36.75 Z M 69.09375 36.75 "/>
<path style=" stroke:none;fill-rule:evenodd;fill:rgb(71.764706%,0.392157%,13.72549%);fill-opacity:1;" d="M 53.519531 5.75 C 55.585938 6.363281 57.429688 7.363281 59.046875 8.75 C 59.351562 9.195312 59.519531 9.695312 59.546875 10.25 C 59.199219 12.226562 58.945312 14.226562 58.792969 16.25 C 58.207031 16.832031 57.621094 17.417969 57.035156 18 C 46.28125 16.3125 38.15625 20.0625 32.664062 29.25 C 32.414062 31.746094 32.328125 34.246094 32.410156 36.75 C 31.296875 36.398438 30.378906 35.730469 29.648438 34.75 C 29.835938 36.363281 30.589844 37.699219 31.910156 38.75 C 32.296875 39.132812 32.546875 39.632812 32.664062 40.25 C 33.207031 44.664062 32.871094 48.996094 31.660156 53.25 C 31.414062 52.777344 31.332031 52.277344 31.40625 51.75 C 31.253906 45.730469 29.914062 39.980469 27.386719 34.5 C 25.898438 33.648438 24.394531 32.898438 22.863281 32.25 C 24.699219 32.179688 26.457031 32.511719 28.140625 33.25 C 28.390625 33.082031 28.644531 32.917969 28.894531 32.75 C 28.984375 29.589844 27.476562 27.671875 24.371094 27 C 27.371094 26.472656 30.386719 25.972656 33.417969 25.5 C 35.507812 23.921875 37.433594 22.171875 39.195312 20.25 C 39.269531 17.652344 38.183594 15.566406 35.929688 14 C 36.097656 13.917969 36.265625 13.832031 36.433594 13.75 C 40.957031 15.550781 45.566406 15.71875 50.25 14.25 C 51.207031 15.3125 52.042969 16.480469 52.765625 17.75 C 53.683594 16.921875 54.351562 15.921875 54.773438 14.75 C 55.347656 11.566406 54.929688 8.566406 53.519531 5.75 Z M 53.519531 5.75 "/>
<path style=" stroke:none;fill-rule:evenodd;fill:rgb(85.098039%,77.647059%,69.803922%);fill-opacity:1;" d="M 85.175781 30.25 C 86.527344 30.167969 87.867188 30.25 89.195312 30.5 C 89.636719 31.179688 89.804688 31.929688 89.699219 32.75 C 88.347656 32.832031 87.007812 32.75 85.679688 32.5 C 85.234375 31.820312 85.066406 31.070312 85.175781 30.25 Z M 85.175781 30.25 "/>
<path style=" stroke:none;fill-rule:evenodd;fill:rgb(56.862745%,54.509804%,53.333333%);fill-opacity:1;" d="M 90.703125 31.25 C 90.734375 30.976562 90.902344 30.8125 91.207031 30.75 C 93.585938 32.03125 93.585938 32.699219 91.207031 32.75 C 91.324219 32.105469 91.15625 31.605469 90.703125 31.25 Z M 90.703125 31.25 "/>
<path style=" stroke:none;fill-rule:evenodd;fill:rgb(41.960784%,23.137255%,14.117647%);fill-opacity:1;" d="M 57.539062 28.75 C 57.351562 30.984375 57.605469 33.148438 58.292969 35.25 C 59.667969 36.375 61.089844 37.375 62.5625 38.25 C 61.46875 38.207031 60.464844 37.875 59.546875 37.25 C 59.101562 37.664062 58.933594 38.164062 59.046875 38.75 C 58.710938 38.75 58.542969 38.917969 58.542969 39.25 C 56.683594 36.558594 56.097656 33.558594 56.785156 30.25 C 56.902344 29.632812 57.152344 29.132812 57.539062 28.75 Z M 57.539062 28.75 "/>
<path style=" stroke:none;fill-rule:evenodd;fill:rgb(99.215686%,5.882353%,25.098039%);fill-opacity:1;" d="M 22.863281 32.25 C 24.394531 32.898438 25.898438 33.648438 27.386719 34.5 C 29.914062 39.980469 31.253906 45.730469 31.40625 51.75 C 30.441406 50.117188 29.269531 48.617188 27.890625 47.25 C 27.515625 46.324219 27.015625 45.992188 26.382812 46.25 C 25.753906 45.433594 24.917969 44.847656 23.871094 44.5 C 24.539062 44.167969 24.539062 43.832031 23.871094 43.5 C 21.558594 42.707031 20.636719 43.457031 21.105469 45.75 C 21.902344 46.429688 22.824219 46.765625 23.871094 46.75 C 24.363281 49.996094 24.78125 49.996094 25.125 46.75 C 25.328125 47.4375 25.578125 48.101562 25.878906 48.75 C 25.226562 50.347656 25.226562 51.933594 25.878906 53.5 C 25.605469 53.960938 25.269531 54.378906 24.875 54.75 C 24.046875 54.175781 23.292969 53.507812 22.613281 52.75 C 22.476562 53.550781 22.222656 54.300781 21.859375 55 C 21.839844 55.621094 22.007812 56.289062 22.363281 57 C 21.191406 57.726562 21.191406 58.558594 22.363281 59.5 C 22.097656 60.714844 21.425781 61.632812 20.351562 62.25 C 19.675781 61.550781 19.257812 61.714844 19.09375 62.75 C 17.449219 62.636719 16.277344 61.636719 15.578125 59.75 C 15.335938 60.222656 15.25 60.722656 15.328125 61.25 C 13.195312 57.5 11.4375 53.5 10.050781 49.25 C 9.46875 52.507812 10.472656 55.175781 13.066406 57.25 C 13.398438 59.082031 13.398438 60.917969 13.066406 62.75 C 11.933594 62.144531 10.847656 61.480469 9.800781 60.75 C 9.503906 60.855469 9.253906 61.023438 9.046875 61.25 C 5.046875 55.886719 3.457031 50.054688 4.269531 43.75 C 4.667969 44.304688 4.917969 44.972656 5.023438 45.75 C 5.109375 44.644531 5.445312 43.644531 6.03125 42.75 C 6.53125 43.082031 7.035156 43.417969 7.539062 43.75 C 8.695312 43.128906 8.945312 42.292969 8.292969 41.25 C 8.699219 40.890625 9.035156 40.476562 9.296875 40 C 8.6875 37.769531 9.1875 35.601562 10.804688 33.5 C 13.007812 32.367188 15.355469 31.867188 17.839844 32 C 16.785156 32.277344 16.703125 32.527344 17.589844 32.75 C 18.425781 32.257812 19.011719 31.757812 19.347656 31.25 C 20.257812 32.609375 21.429688 32.941406 22.863281 32.25 Z M 22.863281 32.25 "/>
<path style=" stroke:none;fill-rule:evenodd;fill:rgb(98.431373%,94.117647%,6.27451%);fill-opacity:1;" d="M 63.566406 27.75 C 64.058594 27.90625 64.394531 28.238281 64.574219 28.75 C 63.132812 29.871094 62.464844 31.371094 62.5625 33.25 C 63.402344 33.25 64.238281 33.25 65.074219 33.25 C 64.996094 32.5625 65.082031 31.898438 65.328125 31.25 C 65.789062 32.015625 66.042969 32.851562 66.082031 33.75 C 65.871094 36.105469 64.695312 36.769531 62.5625 35.75 C 60.832031 34.074219 60.328125 32.074219 61.054688 29.75 C 61.894531 29.082031 62.730469 28.417969 63.566406 27.75 Z M 63.566406 27.75 "/>
<use xlink:href="#surface17" mask="url(#mask4)"/>
<path style=" stroke:none;fill-rule:evenodd;fill:rgb(95.686275%,90.196078%,85.098039%);fill-opacity:1;" d="M 91.707031 38.75 C 90.199219 38.75 88.695312 38.75 87.1875 38.75 C 87.320312 37.949219 87.152344 37.285156 86.683594 36.75 C 86.683594 36.082031 86.683594 35.417969 86.683594 34.75 C 88.191406 34.75 89.699219 34.75 91.207031 34.75 C 91.242188 36.101562 91.410156 37.4375 91.707031 38.75 Z M 91.707031 38.75 "/>
<path style=" stroke:none;fill-rule:evenodd;fill:rgb(89.803922%,83.529412%,76.862745%);fill-opacity:1;" d="M 95.226562 38.25 C 94.511719 38.726562 93.675781 38.890625 92.714844 38.75 C 92.714844 37.417969 92.714844 36.082031 92.714844 34.75 C 94.632812 35.042969 95.46875 36.210938 95.226562 38.25 Z M 95.226562 38.25 "/>
<path style=" stroke:none;fill-rule:evenodd;fill:rgb(34.901961%,1.568627%,6.27451%);fill-opacity:1;" d="M 32.410156 36.75 C 32.246094 37.417969 32.078125 38.082031 31.910156 38.75 C 30.589844 37.699219 29.835938 36.363281 29.648438 34.75 C 30.378906 35.730469 31.296875 36.398438 32.410156 36.75 Z M 32.410156 36.75 "/>
<path style=" stroke:none;fill-rule:evenodd;fill:rgb(62.352941%,34.901961%,18.039216%);fill-opacity:1;" d="M 75.125 33.75 C 75.125 34.082031 75.125 34.417969 75.125 34.75 C 74.742188 36.007812 74.238281 37.175781 73.617188 38.25 C 73.652344 38.03125 73.566406 37.863281 73.367188 37.75 C 70.894531 41.066406 67.628906 42.152344 63.566406 41 C 62.046875 40.242188 60.539062 39.492188 59.046875 38.75 C 58.933594 38.164062 59.101562 37.664062 59.546875 37.25 C 60.464844 37.875 61.46875 38.207031 62.5625 38.25 C 67.855469 39.609375 72.042969 38.109375 75.125 33.75 Z M 75.125 33.75 "/>
<path style=" stroke:none;fill-rule:evenodd;fill:rgb(15.686275%,12.941176%,11.372549%);fill-opacity:1;" d="M 86.683594 36.75 C 87.152344 37.285156 87.320312 37.949219 87.1875 38.75 C 88.695312 38.75 90.199219 38.75 91.707031 38.75 C 91.257812 39.078125 90.753906 39.414062 90.199219 39.75 C 90.285156 39.917969 90.367188 40.082031 90.453125 40.25 C 91.394531 39.972656 92.148438 39.472656 92.714844 38.75 C 93.675781 38.890625 94.511719 38.726562 95.226562 38.25 C 95.679688 38.605469 95.847656 39.105469 95.730469 39.75 C 94.875 39.667969 94.039062 39.753906 93.214844 40 C 94.160156 40.097656 95 40.347656 95.730469 40.75 C 94.890625 40.75 94.054688 40.75 93.214844 40.75 C 93.570312 42.394531 93.738281 44.058594 93.71875 45.75 C 94.554688 45.75 95.394531 45.75 96.230469 45.75 C 96.230469 44.582031 96.230469 43.417969 96.230469 42.25 C 96.71875 43.472656 96.886719 44.808594 96.734375 46.25 C 95.730469 46.25 94.722656 46.25 93.71875 46.25 C 93.71875 46.75 93.71875 47.25 93.71875 47.75 C 93.71875 49.417969 93.71875 51.082031 93.71875 52.75 C 94.277344 53.144531 94.945312 53.394531 95.730469 53.5 C 94.605469 53.539062 93.933594 53.789062 93.71875 54.25 C 93.433594 55.476562 93.097656 56.640625 92.714844 57.75 C 92.800781 57.253906 92.632812 56.921875 92.210938 56.75 C 92.210938 56.082031 92.210938 55.417969 92.210938 54.75 C 90.871094 54.75 89.53125 54.75 88.191406 54.75 C 89.589844 54.261719 91.097656 54.09375 92.714844 54.25 C 92.714844 53.75 92.714844 53.25 92.714844 52.75 C 92.714844 51.082031 92.714844 49.417969 92.714844 47.75 C 92.5625 47.425781 92.394531 47.089844 92.210938 46.75 C 90.800781 46.417969 89.460938 46.082031 88.191406 45.75 C 89.53125 45.75 90.871094 45.75 92.210938 45.75 C 92.210938 44.082031 92.210938 42.417969 92.210938 40.75 C 90.871094 40.75 89.53125 40.75 88.191406 40.75 C 88.710938 39.3125 88.207031 38.980469 86.683594 39.75 C 86.1875 41.382812 86.019531 43.050781 86.179688 44.75 C 85.75 42.664062 85.414062 40.496094 85.175781 38.25 C 85.675781 38.207031 86.09375 38.375 86.433594 38.75 C 86.679688 38.101562 86.761719 37.4375 86.683594 36.75 Z M 86.683594 36.75 "/>
<path style=" stroke:none;fill-rule:evenodd;fill:rgb(21.568627%,10.980392%,9.019608%);fill-opacity:1;" d="M 73.617188 38.25 C 73.335938 39.648438 72.664062 40.8125 71.609375 41.75 C 70.441406 41.996094 69.4375 42.496094 68.59375 43.25 C 64.59375 43.371094 61.242188 42.039062 58.542969 39.25 C 58.542969 38.917969 58.710938 38.75 59.046875 38.75 C 60.539062 39.492188 62.046875 40.242188 63.566406 41 C 67.628906 42.152344 70.894531 41.066406 73.367188 37.75 C 73.566406 37.863281 73.652344 38.03125 73.617188 38.25 Z M 73.617188 38.25 "/>
<path style=" stroke:none;fill-rule:evenodd;fill:rgb(97.647059%,91.764706%,85.882353%);fill-opacity:1;" d="M 95.730469 40.75 C 96.183594 41.105469 96.351562 41.605469 96.230469 42.25 C 96.230469 43.417969 96.230469 44.582031 96.230469 45.75 C 95.394531 45.75 94.554688 45.75 93.71875 45.75 C 93.738281 44.058594 93.570312 42.394531 93.214844 40.75 C 94.054688 40.75 94.890625 40.75 95.730469 40.75 Z M 95.730469 40.75 "/>
<path style=" stroke:none;fill-rule:evenodd;fill:rgb(96.862745%,69.019608%,43.921569%);fill-opacity:1;" d="M 79.144531 21.25 C 80.253906 21.945312 81.007812 22.945312 81.40625 24.25 C 81.789062 28.292969 81.539062 32.292969 80.652344 36.25 C 81.910156 35.792969 83.085938 35.792969 84.171875 36.25 C 84.484375 40.410156 84.652344 44.574219 84.671875 48.75 C 84.308594 47.457031 83.890625 46.125 83.417969 44.75 C 83.332031 47.597656 83.082031 50.429688 82.664062 53.25 C 82.171875 53.488281 81.753906 53.820312 81.40625 54.25 C 81.070312 53.875 80.652344 53.707031 80.152344 53.75 C 80.378906 53.269531 80.714844 52.855469 81.15625 52.5 C 79.390625 51.472656 77.550781 50.636719 75.628906 50 C 77.246094 49.324219 78.921875 48.90625 80.652344 48.75 C 80.519531 46.335938 79.179688 45.335938 76.632812 45.75 C 74.023438 45.601562 71.847656 46.433594 70.101562 48.25 C 69.511719 48.359375 69.007812 48.191406 68.59375 47.75 C 69.28125 46.679688 69.78125 45.515625 70.101562 44.25 C 70.484375 43.695312 70.988281 43.359375 71.609375 43.25 C 72.078125 43.785156 72.246094 44.449219 72.109375 45.25 C 74.832031 44.722656 77.511719 44.054688 80.152344 43.25 C 80.117188 42.300781 80.285156 41.382812 80.652344 40.5 C 79.78125 39 78.609375 37.832031 77.136719 37 C 76.941406 35.527344 77.273438 34.109375 78.140625 32.75 C 78.066406 33.277344 78.148438 33.777344 78.390625 34.25 C 78.558594 34.082031 78.726562 33.917969 78.894531 33.75 C 80.402344 29.554688 80.484375 25.386719 79.144531 21.25 Z M 79.144531 21.25 "/>
<path style=" stroke:none;fill-rule:evenodd;fill:rgb(92.941176%,87.45098%,80.392157%);fill-opacity:1;" d="M 88.191406 40.75 C 89.53125 40.75 90.871094 40.75 92.210938 40.75 C 92.210938 42.417969 92.210938 44.082031 92.210938 45.75 C 90.871094 45.75 89.53125 45.75 88.191406 45.75 C 87.707031 44.605469 87.371094 43.355469 87.1875 42 C 87.277344 41.3125 87.613281 40.894531 88.191406 40.75 Z M 88.191406 40.75 "/>
<path style=" stroke:none;fill-rule:evenodd;fill:rgb(98.431373%,77.647059%,56.078431%);fill-opacity:1;" d="M 78.140625 32.75 C 77.273438 34.109375 76.941406 35.527344 77.136719 37 C 78.609375 37.832031 79.78125 39 80.652344 40.5 C 80.285156 41.382812 80.117188 42.300781 80.152344 43.25 C 77.511719 44.054688 74.832031 44.722656 72.109375 45.25 C 72.246094 44.449219 72.078125 43.785156 71.609375 43.25 C 71.609375 42.75 71.609375 42.25 71.609375 41.75 C 72.664062 40.8125 73.335938 39.648438 73.617188 38.25 C 74.238281 37.175781 74.742188 36.007812 75.125 34.75 C 75.84375 33.925781 76.261719 32.925781 76.382812 31.75 C 76.925781 27.746094 75.5 24.664062 72.109375 22.5 C 73.710938 22.304688 75.21875 22.640625 76.632812 23.5 C 79.253906 26.273438 79.753906 29.359375 78.140625 32.75 Z M 78.140625 32.75 "/>
<path style=" stroke:none;fill-rule:evenodd;fill:rgb(10.980392%,4.705882%,3.921569%);fill-opacity:1;" d="M 54.019531 33.75 C 53.390625 35.542969 53.136719 37.375 53.265625 39.25 C 53.453125 39.707031 53.707031 40.125 54.019531 40.5 C 59.867188 42.546875 62.296875 46.632812 61.304688 52.75 C 59.3125 54.949219 56.882812 56.449219 54.019531 57.25 C 53.351562 57.582031 52.847656 58.082031 52.511719 58.75 C 51.847656 59.476562 51.429688 59.308594 51.257812 58.25 C 50.859375 57.144531 50.945312 56.144531 51.507812 55.25 C 56.679688 54.941406 58.855469 52.273438 58.039062 47.25 C 57.574219 47.84375 57.40625 48.511719 57.539062 49.25 C 56.519531 49.167969 55.515625 49.253906 54.523438 49.5 C 56.535156 51.230469 56.113281 52.144531 53.265625 52.25 C 51.261719 52.128906 49.667969 51.296875 48.492188 49.75 C 50.164062 48.667969 51.753906 47.503906 53.265625 46.25 C 55.636719 48.519531 56.644531 48.019531 56.28125 44.75 C 55.160156 43.898438 53.902344 43.398438 52.511719 43.25 C 50.871094 39.753906 51.375 36.585938 54.019531 33.75 Z M 54.019531 33.75 "/>
<path style=" stroke:none;fill-rule:evenodd;fill:rgb(8.235294%,4.313725%,5.098039%);fill-opacity:1;" d="M 49.496094 45.75 C 46.144531 46.589844 43.296875 48.257812 40.953125 50.75 C 40.871094 49.570312 40.957031 48.40625 41.207031 47.25 C 43.035156 44.296875 45.632812 43.214844 48.996094 44 C 50.113281 44.351562 50.28125 44.933594 49.496094 45.75 Z M 49.496094 45.75 "/>
<use xlink:href="#surface20" mask="url(#mask5)"/>
<path style=" stroke:none;fill-rule:evenodd;fill:rgb(95.294118%,20.392157%,19.215686%);fill-opacity:1;" d="M 52.511719 43.25 C 53.902344 43.398438 55.160156 43.898438 56.28125 44.75 C 56.644531 48.019531 55.636719 48.519531 53.265625 46.25 C 51.753906 47.503906 50.164062 48.667969 48.492188 49.75 C 47.996094 49.664062 47.660156 49.832031 47.488281 50.25 C 45.832031 51.230469 44.324219 52.394531 42.964844 53.75 C 42.292969 53.25 41.625 52.75 40.953125 52.25 C 40.953125 51.75 40.953125 51.25 40.953125 50.75 C 43.296875 48.257812 46.144531 46.589844 49.496094 45.75 C 50.222656 45.332031 50.726562 44.664062 51.003906 43.75 C 51.464844 43.4375 51.96875 43.269531 52.511719 43.25 Z M 52.511719 43.25 "/>
<path style=" stroke:none;fill-rule:evenodd;fill:rgb(7.058824%,4.313725%,3.137255%);fill-opacity:1;" d="M 80.152344 53.75 C 77.859375 54.765625 75.511719 54.933594 73.117188 54.25 C 70.230469 53.175781 69.226562 51.175781 70.101562 48.25 C 71.847656 46.433594 74.023438 45.601562 76.632812 45.75 C 79.179688 45.335938 80.519531 46.335938 80.652344 48.75 C 78.921875 48.90625 77.246094 49.324219 75.628906 50 C 77.550781 50.636719 79.390625 51.472656 81.15625 52.5 C 80.714844 52.855469 80.378906 53.269531 80.152344 53.75 Z M 80.152344 53.75 "/>
<path style=" stroke:none;fill-rule:evenodd;fill:rgb(93.72549%,88.627451%,83.137255%);fill-opacity:1;" d="M 93.71875 47.75 C 94.722656 47.75 95.730469 47.75 96.734375 47.75 C 96.816406 49.257812 96.734375 50.757812 96.480469 52.25 C 95.628906 52.703125 94.707031 52.871094 93.71875 52.75 C 93.71875 51.082031 93.71875 49.417969 93.71875 47.75 Z M 93.71875 47.75 "/>
<path style=" stroke:none;fill-rule:evenodd;fill:rgb(99.215686%,1.960784%,24.705882%);fill-opacity:1;" d="M 26.382812 46.25 C 26.394531 52.390625 26.5625 58.558594 26.882812 64.75 C 26.980469 66.300781 27.316406 67.800781 27.890625 69.25 C 28.488281 69.714844 29.15625 69.882812 29.898438 69.75 C 29.984375 71.921875 29.898438 74.089844 29.648438 76.25 C 28.753906 77.394531 27.667969 78.226562 26.382812 78.75 C 26.46875 78.253906 26.300781 77.921875 25.878906 77.75 C 24.214844 76.875 24.046875 75.789062 25.375 74.5 C 24.554688 73.78125 24.050781 72.867188 23.871094 71.75 C 22.945312 71.402344 22.027344 71.570312 21.105469 72.25 C 21.257812 71.277344 21.257812 70.277344 21.105469 69.25 C 19.402344 67.722656 17.5625 66.390625 15.578125 65.25 C 15.328125 63.925781 15.246094 62.59375 15.328125 61.25 C 15.25 60.722656 15.335938 60.222656 15.578125 59.75 C 16.277344 61.636719 17.449219 62.636719 19.09375 62.75 C 19.257812 61.714844 19.675781 61.550781 20.351562 62.25 C 21.425781 61.632812 22.097656 60.714844 22.363281 59.5 C 21.191406 58.558594 21.191406 57.726562 22.363281 57 C 22.007812 56.289062 21.839844 55.621094 21.859375 55 C 22.222656 54.300781 22.476562 53.550781 22.613281 52.75 C 23.292969 53.507812 24.046875 54.175781 24.875 54.75 C 25.269531 54.378906 25.605469 53.960938 25.878906 53.5 C 25.226562 51.933594 25.226562 50.347656 25.878906 48.75 C 25.578125 48.101562 25.328125 47.4375 25.125 46.75 C 24.78125 49.996094 24.363281 49.996094 23.871094 46.75 C 22.824219 46.765625 21.902344 46.429688 21.105469 45.75 C 20.636719 43.457031 21.558594 42.707031 23.871094 43.5 C 24.539062 43.832031 24.539062 44.167969 23.871094 44.5 C 24.917969 44.847656 25.753906 45.433594 26.382812 46.25 Z M 26.382812 46.25 "/>
<path style=" stroke:none;fill-rule:evenodd;fill:rgb(97.254902%,85.098039%,67.45098%);fill-opacity:1;" d="M 71.609375 41.75 C 71.609375 42.25 71.609375 42.75 71.609375 43.25 C 70.988281 43.359375 70.484375 43.695312 70.101562 44.25 C 69.78125 45.515625 69.28125 46.679688 68.59375 47.75 C 69.007812 48.191406 69.511719 48.359375 70.101562 48.25 C 69.226562 51.175781 70.230469 53.175781 73.117188 54.25 C 72.261719 54.171875 71.425781 54.253906 70.601562 54.5 C 71.761719 56.070312 73.269531 57.15625 75.125 57.75 C 75.804688 58.261719 76.140625 58.929688 76.128906 59.75 C 76.21875 60.246094 76.050781 60.578125 75.628906 60.75 C 72.867188 59.164062 70.4375 57.164062 68.339844 54.75 C 68.097656 55.222656 68.015625 55.722656 68.089844 56.25 C 67.613281 55.773438 67.109375 55.273438 66.582031 54.75 C 66.957031 53.824219 67.457031 53.492188 68.089844 53.75 C 67.101562 52.699219 66.597656 51.449219 66.582031 50 C 67.28125 48.273438 68.121094 46.605469 69.09375 45 C 68.851562 44.429688 68.683594 43.847656 68.59375 43.25 C 69.4375 42.496094 70.441406 41.996094 71.609375 41.75 Z M 71.609375 41.75 "/>
<path style=" stroke:none;fill-rule:evenodd;fill:rgb(92.54902%,86.666667%,80.784314%);fill-opacity:1;" d="M 92.714844 47.75 C 92.714844 49.417969 92.714844 51.082031 92.714844 52.75 C 91.207031 52.75 89.699219 52.75 88.191406 52.75 C 88.109375 51.242188 88.191406 49.742188 88.441406 48.25 C 89.808594 47.777344 91.230469 47.613281 92.714844 47.75 Z M 92.714844 47.75 "/>
<path style=" stroke:none;fill-rule:evenodd;fill:rgb(8.235294%,1.960784%,1.960784%);fill-opacity:1;" d="M 47.488281 50.25 C 47.992188 51.515625 48.832031 52.597656 50 53.5 C 49.539062 53.640625 49.203125 53.890625 48.996094 54.25 C 46.882812 55.066406 44.871094 54.898438 42.964844 53.75 C 44.324219 52.394531 45.832031 51.230469 47.488281 50.25 Z M 47.488281 50.25 "/>
<path style=" stroke:none;fill-rule:evenodd;fill:rgb(69.803922%,30.196078%,25.098039%);fill-opacity:1;" d="M 43.96875 21.25 C 43.925781 21.746094 44.09375 22.164062 44.472656 22.5 C 42.21875 23.542969 40.207031 24.957031 38.441406 26.75 C 37.441406 27.90625 36.9375 29.242188 36.933594 30.75 C 36.324219 36.070312 36.324219 41.40625 36.933594 46.75 C 36.832031 49.660156 36.328125 52.492188 35.425781 55.25 C 35.023438 56.019531 34.855469 56.855469 34.925781 57.75 C 34.015625 60.121094 33.765625 62.621094 34.171875 65.25 C 34.953125 68.699219 36.042969 72.03125 37.4375 75.25 C 36.449219 74.519531 35.53125 73.6875 34.671875 72.75 C 30.757812 65.875 30.421875 58.875 33.667969 51.75 C 33.835938 44.582031 34.003906 37.417969 34.171875 30.25 C 36.238281 25.945312 39.503906 22.945312 43.96875 21.25 Z M 43.96875 21.25 "/>
<path style=" stroke:none;fill-rule:evenodd;fill:rgb(84.705882%,21.960784%,19.215686%);fill-opacity:1;" d="M 51.507812 55.25 C 51.335938 54.832031 51 54.664062 50.503906 54.75 C 50.054688 54.445312 49.550781 54.277344 48.996094 54.25 C 49.203125 53.890625 49.539062 53.640625 50 53.5 C 48.832031 52.597656 47.992188 51.515625 47.488281 50.25 C 47.660156 49.832031 47.996094 49.664062 48.492188 49.75 C 49.667969 51.296875 51.261719 52.128906 53.265625 52.25 C 56.113281 52.144531 56.535156 51.230469 54.523438 49.5 C 55.515625 49.253906 56.519531 49.167969 57.539062 49.25 C 57.40625 48.511719 57.574219 47.84375 58.039062 47.25 C 58.855469 52.273438 56.679688 54.941406 51.507812 55.25 Z M 51.507812 55.25 "/>
<path style=" stroke:none;fill-rule:evenodd;fill:rgb(96.862745%,71.764706%,47.45098%);fill-opacity:1;" d="M 84.671875 48.75 C 84.570312 53.375 84.070312 57.957031 83.164062 62.5 C 83.171875 63.191406 83.339844 63.777344 83.667969 64.25 C 83.078125 64.851562 82.410156 64.851562 81.660156 64.25 C 81.492188 64.75 81.324219 65.25 81.15625 65.75 C 81.753906 67.621094 82.089844 69.535156 82.160156 71.5 C 82.300781 73.488281 81.800781 75.238281 80.652344 76.75 C 80.242188 75.347656 79.992188 73.847656 79.898438 72.25 C 79.5625 71.917969 79.230469 71.582031 78.894531 71.25 C 78.199219 68.28125 77.695312 65.28125 77.386719 62.25 C 77.011719 61.9375 76.589844 61.6875 76.128906 61.5 C 76.78125 60.855469 76.78125 60.269531 76.128906 59.75 C 76.140625 58.929688 75.804688 58.261719 75.125 57.75 C 73.269531 57.15625 71.761719 56.070312 70.601562 54.5 C 71.425781 54.253906 72.261719 54.171875 73.117188 54.25 C 75.511719 54.933594 77.859375 54.765625 80.152344 53.75 C 80.652344 53.707031 81.070312 53.875 81.40625 54.25 C 81.753906 53.820312 82.171875 53.488281 82.664062 53.25 C 83.082031 50.429688 83.332031 47.597656 83.417969 44.75 C 83.890625 46.125 84.308594 47.457031 84.671875 48.75 Z M 84.671875 48.75 "/>
<path style=" stroke:none;fill-rule:evenodd;fill:rgb(89.803922%,85.098039%,81.176471%);fill-opacity:1;" d="M 93.71875 54.25 C 94.554688 54.25 95.394531 54.25 96.230469 54.25 C 96.355469 55.953125 96.1875 57.621094 95.730469 59.25 C 94.777344 59.734375 93.769531 59.898438 92.714844 59.75 C 92.714844 59.082031 92.714844 58.417969 92.714844 57.75 C 93.097656 56.640625 93.433594 55.476562 93.71875 54.25 Z M 93.71875 54.25 "/>
<path style=" stroke:none;fill-rule:evenodd;fill:rgb(94.901961%,89.411765%,84.313725%);fill-opacity:1;" d="M 88.191406 54.75 C 89.53125 54.75 90.871094 54.75 92.210938 54.75 C 92.210938 55.417969 92.210938 56.082031 92.210938 56.75 C 92.28125 57.632812 92.113281 58.464844 91.707031 59.25 C 90.410156 59.738281 89.070312 59.90625 87.6875 59.75 C 87.53125 57.980469 87.699219 56.3125 88.191406 54.75 Z M 88.191406 54.75 "/>
<path style=" stroke:none;fill-rule:evenodd;fill:rgb(63.529412%,0%,10.588235%);fill-opacity:1;" d="M 27.890625 47.25 C 27.667969 47.21875 27.5 47.300781 27.386719 47.5 C 28.035156 48.542969 28.625 49.625 29.144531 50.75 C 29.3125 55.917969 29.480469 61.082031 29.648438 66.25 C 30.058594 67.21875 30.308594 68.21875 30.402344 69.25 C 29.730469 69.25 29.0625 69.25 28.390625 69.25 C 28.578125 67.476562 28.074219 65.976562 26.882812 64.75 C 26.5625 58.558594 26.394531 52.390625 26.382812 46.25 C 27.015625 45.992188 27.515625 46.324219 27.890625 47.25 Z M 27.890625 47.25 "/>
<path style=" stroke:none;fill-rule:evenodd;fill:rgb(78.039216%,44.313725%,24.313725%);fill-opacity:1;" d="M 84.171875 36.25 C 84.59375 36.835938 84.929688 37.503906 85.175781 38.25 C 85.414062 40.496094 85.75 42.664062 86.179688 44.75 C 86.238281 49.765625 85.984375 54.765625 85.425781 59.75 C 84.976562 61.359375 84.386719 62.859375 83.667969 64.25 C 83.339844 63.777344 83.171875 63.191406 83.164062 62.5 C 84.070312 57.957031 84.570312 53.375 84.671875 48.75 C 84.652344 44.574219 84.484375 40.410156 84.171875 36.25 Z M 84.171875 36.25 "/>
<path style=" stroke:none;fill-rule:evenodd;fill:rgb(51.372549%,27.058824%,20%);fill-opacity:1;" d="M 50.503906 54.75 C 51 54.664062 51.335938 54.832031 51.507812 55.25 C 50.945312 56.144531 50.859375 57.144531 51.257812 58.25 C 51.429688 59.308594 51.847656 59.476562 52.511719 58.75 C 52.421875 60.199219 52.589844 61.613281 53.015625 63 C 52.960938 63.859375 52.707031 63.945312 52.261719 63.25 C 50.554688 60.59375 49.96875 57.761719 50.503906 54.75 Z M 50.503906 54.75 "/>
<path style=" stroke:none;fill-rule:evenodd;fill:rgb(56.078431%,30.588235%,16.470588%);fill-opacity:1;" d="M 75.628906 60.75 C 75.628906 61.25 75.628906 61.75 75.628906 62.25 C 74.558594 61.4375 73.554688 60.519531 72.613281 59.5 C 71.351562 58.875 70.011719 58.625 68.59375 58.75 C 69.199219 57.78125 69.03125 56.949219 68.089844 56.25 C 68.015625 55.722656 68.097656 55.222656 68.339844 54.75 C 70.4375 57.164062 72.867188 59.164062 75.628906 60.75 Z M 75.628906 60.75 "/>
<path style=" stroke:none;fill-rule:evenodd;fill:rgb(98.431373%,74.117647%,54.117647%);fill-opacity:1;" d="M 34.925781 57.75 C 34.839844 59.425781 34.925781 61.089844 35.175781 62.75 C 35.34375 62.082031 35.511719 61.417969 35.679688 60.75 C 36.183594 60.507812 36.769531 60.425781 37.4375 60.5 C 36.820312 59.910156 36.820312 59.324219 37.4375 58.75 C 37.816406 59.1875 38.066406 59.6875 38.191406 60.25 C 39.933594 59.324219 40.855469 59.824219 40.953125 61.75 C 42.511719 61.707031 42.679688 61.957031 41.457031 62.5 C 42.878906 63.929688 44.304688 64.015625 45.730469 62.75 C 46.21875 63.652344 46.804688 64.484375 47.488281 65.25 C 48.242188 64.972656 49.078125 64.972656 50 65.25 C 50.023438 66.542969 50.523438 67.628906 51.507812 68.5 C 49.914062 69.453125 49.914062 70.621094 51.507812 72 C 50.238281 72.507812 50.238281 73.09375 51.507812 73.75 C 50.890625 74.140625 50.21875 74.390625 49.496094 74.5 C 51.238281 75.203125 53.082031 75.703125 55.023438 76 C 53.183594 76.167969 51.339844 76.332031 49.496094 76.5 C 52.121094 77.117188 54.800781 77.449219 57.539062 77.5 C 58.257812 77.734375 58.84375 78.148438 59.296875 78.75 C 60.304688 78.164062 61.394531 77.832031 62.5625 77.75 C 68.953125 78.945312 73.5625 76.613281 76.382812 70.75 C 76.949219 68.054688 76.53125 65.554688 75.125 63.25 C 75.308594 62.910156 75.476562 62.574219 75.628906 62.25 C 75.628906 61.75 75.628906 61.25 75.628906 60.75 C 76.050781 60.578125 76.21875 60.246094 76.128906 59.75 C 76.78125 60.269531 76.78125 60.855469 76.128906 61.5 C 76.589844 61.6875 77.011719 61.9375 77.386719 62.25 C 77.695312 65.28125 78.199219 68.28125 78.894531 71.25 C 79.230469 71.582031 79.5625 71.917969 79.898438 72.25 C 79.992188 73.847656 80.242188 75.347656 80.652344 76.75 C 79.570312 79.402344 77.558594 80.820312 74.625 81 C 70.269531 81.332031 65.914062 81.332031 61.558594 81 C 57.230469 80.253906 52.875 79.835938 48.492188 79.75 C 44.289062 79.414062 40.601562 77.914062 37.4375 75.25 C 36.042969 72.03125 34.953125 68.699219 34.171875 65.25 C 33.765625 62.621094 34.015625 60.121094 34.925781 57.75 Z M 34.925781 57.75 "/>
<path style=" stroke:none;fill-rule:evenodd;fill:rgb(6.666667%,3.137255%,2.352941%);fill-opacity:1;" d="M 68.089844 56.25 C 69.03125 56.949219 69.199219 57.78125 68.59375 58.75 C 67.796875 59.074219 66.957031 59.324219 66.082031 59.5 C 69.304688 60.0625 72.066406 61.476562 74.371094 63.75 C 76.707031 70.191406 74.613281 74.605469 68.089844 77 C 65.550781 77.542969 63.203125 77.128906 61.054688 75.75 C 57.351562 72.613281 56.097656 68.613281 57.285156 63.75 C 57.75 62.652344 58.339844 61.652344 59.046875 60.75 C 59.746094 59.554688 60.75 58.722656 62.058594 58.25 C 63.914062 57.914062 65.757812 57.496094 67.589844 57 C 67.867188 56.808594 68.035156 56.558594 68.089844 56.25 Z M 68.089844 56.25 "/>
<path style=" stroke:none;fill-rule:evenodd;fill:rgb(97.647059%,74.509804%,0.392157%);fill-opacity:1;" d="M 64.070312 73.75 C 64.832031 73.746094 65.417969 73.410156 65.828125 72.75 C 66.945312 70.519531 66.609375 68.519531 64.824219 66.75 C 63.632812 66.597656 62.375 66.761719 61.054688 67.25 C 62.613281 62.648438 65.625 61.398438 70.101562 63.5 C 72.582031 66.433594 72.75 69.519531 70.601562 72.75 C 70.101562 73.167969 69.597656 73.582031 69.09375 74 C 67.324219 74.402344 65.648438 74.320312 64.070312 73.75 Z M 64.070312 73.75 "/>
<path style=" stroke:none;fill-rule:evenodd;fill:rgb(90.588235%,85.098039%,81.568627%);fill-opacity:1;" d="M 87.1875 61.75 C 88.527344 61.75 89.867188 61.75 91.207031 61.75 C 91.800781 65.746094 90.210938 67.078125 86.433594 65.75 C 86.207031 64.332031 86.460938 63 87.1875 61.75 Z M 87.1875 61.75 "/>
<path style=" stroke:none;fill-rule:evenodd;fill:rgb(89.803922%,85.098039%,83.137255%);fill-opacity:1;" d="M 94.722656 61.25 C 95.355469 63.484375 94.519531 64.984375 92.210938 65.75 C 91.664062 63.359375 92.5 61.859375 94.722656 61.25 Z M 94.722656 61.25 "/>
<path style=" stroke:none;fill-rule:evenodd;fill:rgb(99.215686%,74.901961%,53.72549%);fill-opacity:1;" d="M 40.953125 52.25 C 41.625 52.75 42.292969 53.25 42.964844 53.75 C 44.871094 54.898438 46.882812 55.066406 48.996094 54.25 C 49.550781 54.277344 50.054688 54.445312 50.503906 54.75 C 49.96875 57.761719 50.554688 60.59375 52.261719 63.25 C 52.707031 63.945312 52.960938 63.859375 53.015625 63 C 52.589844 61.613281 52.421875 60.199219 52.511719 58.75 C 52.847656 58.082031 53.351562 57.582031 54.019531 57.25 C 54.214844 58.148438 54.800781 58.648438 55.777344 58.75 C 55.9375 58.183594 56.355469 57.683594 57.035156 57.25 C 57.566406 57.339844 58.066406 57.507812 58.542969 57.75 C 60.230469 56.589844 62.070312 56.175781 64.070312 56.5 C 63.453125 57.203125 62.78125 57.785156 62.058594 58.25 C 60.75 58.722656 59.746094 59.554688 59.046875 60.75 C 58.734375 60.695312 58.484375 60.527344 58.292969 60.25 C 55.941406 63.792969 55.4375 67.625 56.785156 71.75 C 57.425781 73.46875 58.511719 74.800781 60.050781 75.75 C 60.886719 76.417969 61.726562 77.082031 62.5625 77.75 C 61.394531 77.832031 60.304688 78.164062 59.296875 78.75 C 58.84375 78.148438 58.257812 77.734375 57.539062 77.5 C 54.800781 77.449219 52.121094 77.117188 49.496094 76.5 C 51.339844 76.332031 53.183594 76.167969 55.023438 76 C 53.082031 75.703125 51.238281 75.203125 49.496094 74.5 C 50.21875 74.390625 50.890625 74.140625 51.507812 73.75 C 50.238281 73.09375 50.238281 72.507812 51.507812 72 C 49.914062 70.621094 49.914062 69.453125 51.507812 68.5 C 50.523438 67.628906 50.023438 66.542969 50 65.25 C 49.078125 64.972656 48.242188 64.972656 47.488281 65.25 C 46.804688 64.484375 46.21875 63.652344 45.730469 62.75 C 44.304688 64.015625 42.878906 63.929688 41.457031 62.5 C 42.679688 61.957031 42.511719 61.707031 40.953125 61.75 C 40.855469 59.824219 39.933594 59.324219 38.191406 60.25 C 38.066406 59.6875 37.816406 59.1875 37.4375 58.75 C 36.820312 59.324219 36.820312 59.910156 37.4375 60.5 C 36.769531 60.425781 36.183594 60.507812 35.679688 60.75 C 35.511719 61.417969 35.34375 62.082031 35.175781 62.75 C 34.925781 61.089844 34.839844 59.425781 34.925781 57.75 C 34.855469 56.855469 35.023438 56.019531 35.425781 55.25 C 36.433594 54.242188 37.273438 53.074219 37.941406 51.75 C 38.59375 52.046875 39.011719 52.546875 39.195312 53.25 C 39.550781 52.511719 40.140625 52.179688 40.953125 52.25 Z M 40.953125 52.25 "/>
<path style=" stroke:none;fill-rule:evenodd;fill:rgb(32.54902%,1.176471%,3.529412%);fill-opacity:1;" d="M 6.28125 61.25 C 7.945312 62.738281 9.621094 64.238281 11.304688 65.75 C 10.484375 66.339844 9.648438 66.339844 8.792969 65.75 C 8.292969 67.121094 8.792969 68.121094 10.300781 68.75 C 10.132812 68.917969 9.964844 69.082031 9.800781 69.25 C 8.347656 68.894531 7.007812 68.394531 5.777344 67.75 C 6.449219 67.75 7.117188 67.75 7.789062 67.75 C 7.652344 66.589844 7.988281 65.589844 8.792969 64.75 C 7.734375 63.703125 6.898438 62.539062 6.28125 61.25 Z M 6.28125 61.25 "/>
<path style=" stroke:none;fill-rule:evenodd;fill:rgb(74.509804%,73.72549%,71.764706%);fill-opacity:1;" d="M 91.207031 67.75 C 92.46875 68.109375 92.46875 68.609375 91.207031 69.25 C 90.671875 68.789062 90.671875 68.289062 91.207031 67.75 Z M 91.207031 67.75 "/>
<path style=" stroke:none;fill-rule:evenodd;fill:rgb(99.215686%,94.509804%,14.509804%);fill-opacity:1;" d="M 64.070312 73.75 C 62.585938 73.320312 61.664062 72.320312 61.304688 70.75 C 61.058594 69.59375 60.972656 68.429688 61.054688 67.25 C 62.375 66.761719 63.632812 66.597656 64.824219 66.75 C 66.609375 68.519531 66.945312 70.519531 65.828125 72.75 C 65.417969 73.410156 64.832031 73.746094 64.070312 73.75 Z M 64.070312 73.75 "/>
<path style=" stroke:none;fill-rule:evenodd;fill:rgb(72.941176%,67.843137%,65.098039%);fill-opacity:1;" d="M 86.179688 67.75 C 87.199219 67.667969 88.203125 67.753906 89.195312 68 C 89.824219 68.746094 89.824219 69.496094 89.195312 70.25 C 87.855469 70.867188 86.515625 70.867188 85.175781 70.25 C 85.65625 69.460938 85.992188 68.628906 86.179688 67.75 Z M 86.179688 67.75 "/>
<path style=" stroke:none;fill-rule:evenodd;fill:rgb(98.431373%,95.686275%,92.156863%);fill-opacity:1;" d="M 41.960938 69.25 C 45.285156 68.976562 46.878906 70.476562 46.734375 73.75 C 44.675781 76.402344 42.664062 76.402344 40.703125 73.75 C 40.164062 71.949219 40.582031 70.449219 41.960938 69.25 Z M 41.960938 69.25 "/>
<path style=" stroke:none;fill-rule:evenodd;fill:rgb(64.705882%,36.862745%,25.490196%);fill-opacity:1;" d="M 59.046875 60.75 C 58.339844 61.652344 57.75 62.652344 57.285156 63.75 C 56.097656 68.613281 57.351562 72.613281 61.054688 75.75 C 60.71875 75.75 60.386719 75.75 60.050781 75.75 C 58.511719 74.800781 57.425781 73.46875 56.785156 71.75 C 55.4375 67.625 55.941406 63.792969 58.292969 60.25 C 58.484375 60.527344 58.734375 60.695312 59.046875 60.75 Z M 59.046875 60.75 "/>
<path style=" stroke:none;fill-rule:evenodd;fill:rgb(79.607843%,0%,14.901961%);fill-opacity:1;" d="M 26.882812 64.75 C 28.074219 65.976562 28.578125 67.476562 28.390625 69.25 C 29.0625 69.25 29.730469 69.25 30.402344 69.25 C 30.738281 69.25 30.90625 69.417969 30.90625 69.75 C 30.746094 71.683594 30.914062 73.519531 31.40625 75.25 C 29.765625 77.980469 27.421875 79.566406 24.371094 80 C 25.160156 79.695312 25.828125 79.277344 26.382812 78.75 C 27.667969 78.226562 28.753906 77.394531 29.648438 76.25 C 29.898438 74.089844 29.984375 71.921875 29.898438 69.75 C 29.15625 69.882812 28.488281 69.714844 27.890625 69.25 C 27.316406 67.800781 26.980469 66.300781 26.882812 64.75 Z M 26.882812 64.75 "/>
<path style=" stroke:none;fill-rule:evenodd;fill:rgb(98.039216%,16.862745%,27.843137%);fill-opacity:1;" d="M 4.269531 42.25 C 4.269531 42.75 4.269531 43.25 4.269531 43.75 C 3.457031 50.054688 5.046875 55.886719 9.046875 61.25 C 9.253906 61.023438 9.503906 60.855469 9.800781 60.75 C 10.847656 61.480469 11.933594 62.144531 13.066406 62.75 C 13.398438 60.917969 13.398438 59.082031 13.066406 57.25 C 10.472656 55.175781 9.46875 52.507812 10.050781 49.25 C 11.4375 53.5 13.195312 57.5 15.328125 61.25 C 15.246094 62.59375 15.328125 63.925781 15.578125 65.25 C 17.5625 66.390625 19.402344 67.722656 21.105469 69.25 C 21.257812 70.277344 21.257812 71.277344 21.105469 72.25 C 22.027344 71.570312 22.945312 71.402344 23.871094 71.75 C 24.050781 72.867188 24.554688 73.78125 25.375 74.5 C 24.046875 75.789062 24.214844 76.875 25.878906 77.75 C 25.160156 77.789062 24.492188 77.621094 23.871094 77.25 C 23.261719 77.636719 23.261719 78.054688 23.871094 78.5 C 22.890625 78.996094 21.886719 79.164062 20.855469 79 C 21.367188 78.476562 21.449219 77.890625 21.105469 77.25 C 20.011719 78.917969 18.585938 79.667969 16.835938 79.5 C 16.605469 79.707031 16.4375 79.957031 16.332031 80.25 C 17 80.808594 17.253906 81.476562 17.085938 82.25 C 16.167969 82.550781 15.246094 82.886719 14.320312 83.25 C 16.433594 84.980469 18.777344 85.648438 21.355469 85.25 C 21.785156 85.761719 22.289062 86.175781 22.863281 86.5 C 22.140625 86.609375 21.472656 86.859375 20.855469 87.25 C 21.183594 88.058594 21.433594 88.890625 21.609375 89.75 C 22.066406 89.171875 22.484375 89.257812 22.863281 90 C 22.527344 90.167969 22.195312 90.332031 21.859375 90.5 C 23.136719 90.570312 24.308594 90.902344 25.375 91.5 C 24.753906 91.617188 24.253906 91.867188 23.871094 92.25 C 19.65625 90.804688 16.222656 88.304688 13.566406 84.75 C 12.859375 83.675781 12.441406 82.507812 12.3125 81.25 C 13.496094 81.335938 14.671875 81.503906 15.828125 81.75 C 15.375 79.621094 16.214844 78.371094 18.339844 78 C 13.5 76.425781 9.3125 73.84375 5.777344 70.25 C 5.675781 69.476562 5.34375 68.8125 4.773438 68.25 C 5.003906 67.851562 5.339844 67.683594 5.777344 67.75 C 7.007812 68.394531 8.347656 68.894531 9.800781 69.25 C 9.964844 69.082031 10.132812 68.917969 10.300781 68.75 C 8.792969 68.121094 8.292969 67.121094 8.792969 65.75 C 9.648438 66.339844 10.484375 66.339844 11.304688 65.75 C 9.621094 64.238281 7.945312 62.738281 6.28125 61.25 C 5.671875 59.535156 4.917969 57.867188 4.019531 56.25 C 2.957031 51.480469 3.039062 46.816406 4.269531 42.25 Z M 4.269531 42.25 "/>
<path style=" stroke:none;fill-rule:evenodd;fill:rgb(34.509804%,0%,5.490196%);fill-opacity:1;" d="M 30.90625 69.75 C 31.28125 71.378906 31.953125 72.878906 32.914062 74.25 C 32.097656 73.753906 31.597656 74.089844 31.40625 75.25 C 30.914062 73.519531 30.746094 71.683594 30.90625 69.75 Z M 30.90625 69.75 "/>
<path style=" stroke:none;fill-rule:evenodd;fill:rgb(86.666667%,58.823529%,38.823529%);fill-opacity:1;" d="M 68.59375 58.75 C 70.011719 58.625 71.351562 58.875 72.613281 59.5 C 73.554688 60.519531 74.558594 61.4375 75.628906 62.25 C 75.476562 62.574219 75.308594 62.910156 75.125 63.25 C 76.53125 65.554688 76.949219 68.054688 76.382812 70.75 C 73.5625 76.613281 68.953125 78.945312 62.5625 77.75 C 61.726562 77.082031 60.886719 76.417969 60.050781 75.75 C 60.386719 75.75 60.71875 75.75 61.054688 75.75 C 63.203125 77.128906 65.550781 77.542969 68.089844 77 C 74.613281 74.605469 76.707031 70.191406 74.371094 63.75 C 72.066406 61.476562 69.304688 60.0625 66.082031 59.5 C 66.957031 59.324219 67.796875 59.074219 68.59375 58.75 Z M 68.59375 58.75 "/>
<path style=" stroke:none;fill-rule:evenodd;fill:rgb(98.823529%,3.529412%,24.705882%);fill-opacity:1;" d="M 32.914062 74.25 C 33.082031 74.582031 33.25 74.917969 33.417969 75.25 C 35.382812 78.683594 34.546875 81.097656 30.90625 82.5 C 33.152344 82.515625 35.414062 82.433594 37.6875 82.25 C 43.09375 82.984375 48.535156 83.398438 54.019531 83.5 C 52.671875 84.664062 52.839844 84.914062 54.523438 84.25 C 55.261719 86.863281 55.597656 89.53125 55.527344 92.25 C 54.578125 92.800781 53.742188 93.46875 53.015625 94.25 C 52.359375 94.578125 51.6875 94.910156 51.003906 95.25 C 50.585938 93.75 50.167969 92.25 49.75 90.75 C 48.839844 92.988281 47.25 94.570312 44.976562 95.5 C 42.394531 96.644531 39.714844 97.144531 36.933594 97 C 37.710938 96.316406 38.378906 95.566406 38.945312 94.75 C 39.21875 94.71875 39.386719 94.554688 39.445312 94.25 C 36.449219 93.753906 33.4375 93.585938 30.402344 93.75 C 28.121094 93.640625 25.945312 93.140625 23.871094 92.25 C 24.253906 91.867188 24.753906 91.617188 25.375 91.5 C 24.308594 90.902344 23.136719 90.570312 21.859375 90.5 C 22.195312 90.332031 22.527344 90.167969 22.863281 90 C 22.484375 89.257812 22.066406 89.171875 21.609375 89.75 C 21.433594 88.890625 21.183594 88.058594 20.855469 87.25 C 21.472656 86.859375 22.140625 86.609375 22.863281 86.5 C 22.289062 86.175781 21.785156 85.761719 21.355469 85.25 C 18.777344 85.648438 16.433594 84.980469 14.320312 83.25 C 15.246094 82.886719 16.167969 82.550781 17.085938 82.25 C 17.253906 81.476562 17 80.808594 16.332031 80.25 C 16.4375 79.957031 16.605469 79.707031 16.835938 79.5 C 18.585938 79.667969 20.011719 78.917969 21.105469 77.25 C 21.449219 77.890625 21.367188 78.476562 20.855469 79 C 21.886719 79.164062 22.890625 78.996094 23.871094 78.5 C 23.261719 78.054688 23.261719 77.636719 23.871094 77.25 C 24.492188 77.621094 25.160156 77.789062 25.878906 77.75 C 26.300781 77.921875 26.46875 78.253906 26.382812 78.75 C 25.828125 79.277344 25.160156 79.695312 24.371094 80 C 27.421875 79.566406 29.765625 77.980469 31.40625 75.25 C 31.597656 74.089844 32.097656 73.753906 32.914062 74.25 Z M 32.914062 74.25 "/>
<path style=" stroke:none;fill-rule:evenodd;fill:rgb(72.54902%,0%,12.156863%);fill-opacity:1;" d="M 33.417969 75.25 C 35.988281 75.976562 37.496094 77.640625 37.941406 80.25 C 44.578125 81.414062 51.277344 82.082031 58.039062 82.25 C 58.738281 84.695312 58.988281 87.195312 58.792969 89.75 C 57.644531 90.527344 56.554688 91.359375 55.527344 92.25 C 55.597656 89.53125 55.261719 86.863281 54.523438 84.25 C 52.839844 84.914062 52.671875 84.664062 54.019531 83.5 C 48.535156 83.398438 43.09375 82.984375 37.6875 82.25 C 35.414062 82.433594 33.152344 82.515625 30.90625 82.5 C 34.546875 81.097656 35.382812 78.683594 33.417969 75.25 Z M 33.417969 75.25 "/>
<path style=" stroke:none;fill-rule:evenodd;fill:rgb(77.647059%,41.960784%,25.882353%);fill-opacity:1;" d="M 73.117188 83.25 C 73.503906 85.542969 72.496094 87.125 70.101562 88 C 68.273438 87.484375 66.347656 87.070312 64.320312 86.75 C 63.378906 86.847656 62.457031 87.015625 61.558594 87.25 C 61.070312 86.027344 60.902344 84.691406 61.054688 83.25 C 65.074219 83.25 69.09375 83.25 73.117188 83.25 Z M 73.117188 83.25 "/>
<path style=" stroke:none;fill-rule:evenodd;fill:rgb(96.078431%,76.078431%,60.784314%);fill-opacity:1;" d="M 73.117188 83.25 C 73.785156 83.25 74.457031 83.25 75.125 83.25 C 74.246094 89.6875 70.5625 92.105469 64.070312 90.5 C 62.546875 89.90625 61.707031 88.820312 61.558594 87.25 C 62.457031 87.015625 63.378906 86.847656 64.320312 86.75 C 66.347656 87.070312 68.273438 87.484375 70.101562 88 C 72.496094 87.125 73.503906 85.542969 73.117188 83.25 Z M 73.117188 83.25 "/>
<path style=" stroke:none;fill-rule:evenodd;fill:rgb(8.235294%,5.882353%,7.45098%);fill-opacity:1;" d="M 3.265625 64.75 C 3.4375 65.167969 3.773438 65.335938 4.269531 65.25 C 3.28125 67.148438 3.78125 68.8125 5.777344 70.25 C 9.3125 73.84375 13.5 76.425781 18.339844 78 C 16.214844 78.371094 15.375 79.621094 15.828125 81.75 C 14.671875 81.503906 13.496094 81.335938 12.3125 81.25 C 12.441406 82.507812 12.859375 83.675781 13.566406 84.75 C 16.222656 88.304688 19.65625 90.804688 23.871094 92.25 C 25.945312 93.140625 28.121094 93.640625 30.402344 93.75 C 33.25 94.082031 36.097656 94.417969 38.945312 94.75 C 38.378906 95.566406 37.710938 96.316406 36.933594 97 C 39.714844 97.144531 42.394531 96.644531 44.976562 95.5 C 47.25 94.570312 48.839844 92.988281 49.75 90.75 C 50.167969 92.25 50.585938 93.75 51.003906 95.25 C 51.6875 94.910156 52.359375 94.578125 53.015625 94.25 C 54.027344 93.6875 55.035156 93.6875 56.03125 94.25 C 57.679688 93.273438 59.1875 92.109375 60.554688 90.75 C 61.664062 91.886719 63.003906 92.636719 64.574219 93 C 66.757812 93.207031 68.933594 93.125 71.105469 92.75 C 67.410156 94.253906 63.808594 93.921875 60.300781 91.75 C 56.851562 95.085938 52.914062 97.585938 48.492188 99.25 C 48.636719 98.355469 48.46875 97.523438 47.988281 96.75 C 45.21875 98.140625 42.371094 99.140625 39.445312 99.75 C 36.765625 99.75 34.085938 99.75 31.40625 99.75 C 31.136719 98.382812 31.640625 97.464844 32.914062 97 C 24.699219 96.414062 17.832031 93.164062 12.3125 87.25 C 9.894531 84.339844 9.222656 81.089844 10.300781 77.5 C 7.53125 74.824219 4.851562 72.074219 2.261719 69.25 C 1.605469 67.644531 1.273438 65.980469 1.257812 64.25 C 2.058594 64.117188 2.730469 64.28125 3.265625 64.75 Z M 3.265625 64.75 "/>
<path style=" stroke:none;fill-rule:evenodd;fill:rgb(46.666667%,0.784314%,10.196078%);fill-opacity:1;" d="M 30.402344 93.75 C 33.4375 93.585938 36.449219 93.753906 39.445312 94.25 C 39.386719 94.554688 39.21875 94.71875 38.945312 94.75 C 36.097656 94.417969 33.25 94.082031 30.402344 93.75 Z M 30.402344 93.75 "/>
</g>
</svg>
