<?xml version="1.0" encoding="UTF-8"?>
<svg xmlns="http://www.w3.org/2000/svg" xmlns:xlink="http://www.w3.org/1999/xlink" width="px" height="px" viewBox="0 0 104 91" version="1.1">
<defs>
<filter id="alpha" filterUnits="objectBoundingBox" x="0%" y="0%" width="100%" height="100%">
  <feColorMatrix type="matrix" in="SourceGraphic" values="0 0 0 0 1 0 0 0 0 1 0 0 0 0 1 0 0 0 1 0"/>
</filter>
<mask id="mask0">
  <g filter="url(#alpha)">
<rect x="0" y="0" width="104" height="91" style="fill:rgb(0%,0%,0%);fill-opacity:0.984314;stroke:none;"/>
  </g>
</mask>
<clipPath id="clip1">
  <rect x="0" y="0" width="104" height="91"/>
</clipPath>
<g id="surface5" clip-path="url(#clip1)">
<path style=" stroke:none;fill-rule:evenodd;fill:rgb(5.098039%,3.921569%,2.352941%);fill-opacity:1;" d="M 86.832031 19.75 C 85.847656 20.160156 85.351562 20.910156 85.339844 22 C 85.753906 23.152344 86.253906 24.238281 86.832031 25.25 C 86.742188 25.847656 86.578125 26.429688 86.335938 27 C 86.503906 27.515625 86.835938 27.765625 87.332031 27.75 C 86.289062 28.398438 85.292969 29.148438 84.34375 30 C 84.621094 30.191406 84.785156 30.441406 84.84375 30.75 C 83.5625 31.921875 83.0625 33.421875 83.347656 35.25 C 87.113281 35.8125 88.109375 34.480469 86.335938 31.25 C 86.109375 30.851562 85.777344 30.683594 85.339844 30.75 C 86.054688 29.8125 86.882812 29.476562 87.828125 29.75 C 87.78125 31.347656 88.113281 32.847656 88.824219 34.25 C 88.386719 34.183594 88.054688 34.351562 87.828125 34.75 C 89.699219 35.308594 91.523438 35.808594 93.300781 36.25 C 91.835938 36.113281 90.425781 36.277344 89.070312 36.75 C 88.464844 38.6875 89.046875 40.023438 90.8125 40.75 C 91.476562 41.417969 91.476562 42.082031 90.8125 42.75 C 88.863281 44.480469 88.863281 46.230469 90.8125 48 C 92.140625 48.332031 93.46875 48.332031 94.792969 48 C 95.253906 46.980469 95.417969 45.894531 95.292969 44.75 C 95.683594 45.304688 95.933594 45.972656 96.039062 46.75 C 96.28125 46.101562 96.363281 45.4375 96.285156 44.75 C 96.617188 45.75 96.949219 46.75 97.28125 47.75 C 97.507812 48.230469 97.839844 48.644531 98.277344 49 C 98.113281 49.167969 97.945312 49.332031 97.78125 49.5 C 98.398438 49.726562 98.8125 49.476562 99.023438 48.75 C 99.269531 49.398438 99.351562 50.0625 99.273438 50.75 C 98.167969 50.316406 97.007812 50.148438 95.789062 50.25 C 95.789062 51.082031 95.789062 51.917969 95.789062 52.75 C 95.457031 52.75 95.292969 52.917969 95.292969 53.25 C 94.960938 53.25 94.628906 53.25 94.296875 53.25 C 94.621094 52.28125 94.785156 51.28125 94.792969 50.25 C 93.128906 50.167969 91.46875 50.25 89.816406 50.5 C 88.914062 51.742188 88.585938 53.15625 88.824219 54.75 C 88.539062 55.515625 88.210938 56.265625 87.828125 57 C 87.941406 57.199219 88.105469 57.28125 88.324219 57.25 C 87.945312 58.546875 87.777344 59.882812 87.828125 61.25 C 87.332031 61.207031 86.917969 61.375 86.582031 61.75 C 86.351562 61.453125 86.269531 61.121094 86.335938 60.75 C 87.09375 59.183594 87.425781 57.515625 87.332031 55.75 C 86.003906 55.75 84.675781 55.75 83.347656 55.75 C 84.578125 55.339844 85.90625 55.089844 87.332031 55 C 85.679688 54.75 84.019531 54.667969 82.355469 54.75 C 82.355469 54.417969 82.519531 54.25 82.851562 54.25 C 84.34375 54.25 85.835938 54.25 87.332031 54.25 C 87.269531 52.09375 87.601562 50.011719 88.324219 48 C 87.714844 45.996094 87.714844 43.996094 88.324219 42 C 87.59375 40.332031 87.261719 38.582031 87.332031 36.75 C 85.503906 36.75 83.679688 36.75 81.855469 36.75 C 81.480469 32.300781 82.390625 28.132812 84.59375 24.25 C 84.8125 18.292969 81.910156 14.875 75.886719 14 C 67.261719 13.667969 58.632812 13.667969 50.007812 14 C 42.171875 14.976562 36.617188 19.058594 33.339844 26.25 C 33.09375 27.574219 33.007812 28.90625 33.089844 30.25 C 33.089844 30.417969 33.089844 30.582031 33.089844 30.75 C 33.546875 33.886719 33.714844 37.054688 33.589844 40.25 C 32.996094 43.105469 32.332031 45.9375 31.597656 48.75 C 31.671875 42.097656 31.503906 35.429688 31.101562 28.75 C 32.183594 21.074219 36.332031 15.824219 43.539062 13 C 45.453125 12.191406 47.445312 11.691406 49.511719 11.5 C 52.421875 11.414062 55.242188 11.164062 57.972656 10.75 C 58.332031 10.542969 58.578125 10.207031 58.71875 9.75 C 58.882812 10.25 59.050781 10.75 59.214844 11.25 C 59.3125 10.308594 59.5625 9.476562 59.960938 8.75 C 59.828125 9.550781 59.996094 10.214844 60.460938 10.75 C 63.851562 11.328125 67.335938 11.410156 70.910156 11 C 71.347656 10.320312 71.511719 9.570312 71.40625 8.75 C 72.167969 9.675781 73 10.59375 73.894531 11.5 C 74.875 11.746094 75.871094 11.832031 76.878906 11.75 C 76.496094 8.804688 75 6.640625 72.402344 5.25 C 68.289062 3.566406 64.472656 4.066406 60.957031 6.75 C 59.5 6.542969 59.167969 5.878906 59.960938 4.75 C 66.078125 0.351562 71.800781 0.851562 77.128906 6.25 C 78.507812 8.019531 79.335938 10.019531 79.617188 12.25 C 82.792969 14.023438 85.199219 16.523438 86.832031 19.75 Z M 86.832031 19.75 "/>
</g>
<mask id="mask1">
  <g filter="url(#alpha)">
<rect x="0" y="0" width="104" height="91" style="fill:rgb(0%,0%,0%);fill-opacity:0.0509804;stroke:none;"/>
  </g>
</mask>
<clipPath id="clip2">
  <rect x="0" y="0" width="104" height="91"/>
</clipPath>
<g id="surface8" clip-path="url(#clip2)">
<path style=" stroke:none;fill-rule:evenodd;fill:rgb(14.509804%,20%,25.490196%);fill-opacity:1;" d="M 103.75 43.75 C 103.75 44.917969 103.75 46.082031 103.75 47.25 C 101.957031 48.601562 101.792969 50.183594 103.253906 52 C 102.96875 53.535156 102.304688 54.867188 101.261719 56 C 102.335938 59.761719 101.089844 62.511719 97.53125 64.25 C 97.410156 65.425781 96.996094 66.425781 96.285156 67.25 C 96.121094 67.25 95.957031 67.25 95.789062 67.25 C 96.089844 65.9375 96.339844 64.601562 96.535156 63.25 C 100.207031 62.046875 101.28125 59.714844 99.769531 56.25 C 102.132812 54.023438 102.300781 51.6875 100.269531 49.25 C 103.347656 47.035156 103.511719 44.617188 100.765625 42 C 102.328125 39.300781 101.996094 36.882812 99.769531 34.75 C 100.960938 31.472656 99.964844 29.140625 96.785156 27.75 C 96.371094 26.25 95.957031 24.75 95.539062 23.25 C 94.957031 22.554688 94.210938 22.136719 93.300781 22 C 91.316406 21.75 89.328125 21.667969 87.332031 21.75 C 87.363281 21.019531 87.199219 20.355469 86.832031 19.75 C 85.199219 16.523438 82.792969 14.023438 79.617188 12.25 C 79.335938 10.019531 78.507812 8.019531 77.128906 6.25 C 71.800781 0.851562 66.078125 0.351562 59.960938 4.75 C 59.234375 4.785156 58.574219 4.617188 57.972656 4.25 C 57.972656 3.917969 58.136719 3.75 58.46875 3.75 C 60.710938 2.710938 63.03125 1.792969 65.433594 1 C 73.207031 0.363281 78.265625 3.777344 80.613281 11.25 C 84.058594 13.710938 86.796875 16.796875 88.824219 20.5 C 93.71875 19.675781 96.621094 21.757812 97.53125 26.75 C 100.808594 28.617188 102.050781 31.199219 101.261719 34.5 C 102.195312 35.871094 102.859375 37.371094 103.253906 39 C 103.132812 39.992188 102.800781 40.910156 102.257812 41.75 C 102.765625 42.449219 103.265625 43.117188 103.75 43.75 Z M 103.75 43.75 "/>
</g>
<mask id="mask2">
  <g filter="url(#alpha)">
<rect x="0" y="0" width="104" height="91" style="fill:rgb(0%,0%,0%);fill-opacity:0.933333;stroke:none;"/>
  </g>
</mask>
<clipPath id="clip3">
  <rect x="0" y="0" width="104" height="91"/>
</clipPath>
<g id="surface11" clip-path="url(#clip3)">
<path style=" stroke:none;fill-rule:evenodd;fill:rgb(2.745098%,3.137255%,4.313725%);fill-opacity:1;" d="M 57.972656 4.25 C 58.574219 4.617188 59.234375 4.785156 59.960938 4.75 C 59.167969 5.878906 59.5 6.542969 60.957031 6.75 C 60.625 7.417969 60.292969 8.082031 59.960938 8.75 C 59.5625 9.476562 59.3125 10.308594 59.214844 11.25 C 59.050781 10.75 58.882812 10.25 58.71875 9.75 C 58.578125 10.207031 58.332031 10.542969 57.972656 10.75 C 58.054688 9.40625 57.96875 8.074219 57.722656 6.75 C 56.171875 6.011719 54.59375 5.34375 52.996094 4.75 C 50.902344 4.042969 48.746094 3.710938 46.527344 3.75 C 39.574219 2.980469 32.9375 4.066406 26.621094 7 C 27.15625 7.371094 27.488281 7.871094 27.617188 8.5 C 27.125 10.03125 26.214844 10.613281 24.878906 10.25 C 18.417969 12.453125 12.695312 15.871094 7.714844 20.5 C 9.230469 20.589844 10.726562 20.839844 12.191406 21.25 C 11.054688 23.367188 10.058594 25.535156 9.207031 27.75 C 6.390625 33.484375 4.316406 39.484375 2.984375 45.75 C 3.933594 43.792969 5.261719 42.128906 6.964844 40.75 C 6.515625 49.652344 7.925781 58.234375 11.195312 66.5 C 10.714844 67.367188 9.96875 67.785156 8.957031 67.75 C 7.851562 67.390625 6.773438 67.140625 5.722656 67 C 10.824219 72.144531 16.792969 75.894531 23.636719 78.25 C 24.03125 78.699219 24.527344 79.035156 25.128906 79.25 C 26.746094 79.757812 27.242188 80.757812 26.621094 82.25 C 32.03125 85.234375 37.835938 86.566406 44.039062 86.25 C 48.875 86.242188 53.351562 85.078125 57.472656 82.75 C 57.9375 82.214844 58.105469 81.550781 57.972656 80.75 C 58.359375 81.664062 59.023438 82.332031 59.960938 82.75 C 59.960938 82.917969 59.960938 83.082031 59.960938 83.25 C 60.027344 84.144531 59.863281 84.980469 59.464844 85.75 C 59.140625 85.597656 58.808594 85.429688 58.46875 85.25 C 46.839844 90.25 35.394531 89.832031 24.132812 84 C 23.421875 83.042969 22.925781 81.957031 22.640625 80.75 C 15.058594 77.90625 8.671875 73.40625 3.484375 67.25 C 1.429688 64.625 2.011719 63.539062 5.226562 64 C 6.207031 64.769531 7.203125 65.019531 8.210938 64.75 C 6.332031 59.035156 5.003906 53.203125 4.230469 47.25 C 2.054688 48.917969 0.894531 48.417969 0.746094 45.75 C 2.367188 37.953125 5.019531 30.535156 8.707031 23.5 C 7.265625 23.46875 5.941406 23.886719 4.726562 24.75 C 3.847656 24.78125 3.351562 24.367188 3.234375 23.5 C 4.640625 19.921875 6.960938 17.085938 10.199219 15 C 14.328125 12.027344 18.808594 9.695312 23.636719 8 C 23.332031 6.90625 23.664062 5.90625 24.632812 5 C 35.660156 0.324219 46.773438 0.0742188 57.972656 4.25 Z M 57.972656 4.25 "/>
</g>
<mask id="mask3">
  <g filter="url(#alpha)">
<rect x="0" y="0" width="104" height="91" style="fill:rgb(0%,0%,0%);fill-opacity:0.992157;stroke:none;"/>
  </g>
</mask>
<clipPath id="clip4">
  <rect x="0" y="0" width="104" height="91"/>
</clipPath>
<g id="surface14" clip-path="url(#clip4)">
<path style=" stroke:none;fill-rule:evenodd;fill:rgb(3.529412%,2.745098%,2.352941%);fill-opacity:1;" d="M 86.832031 19.75 C 87.199219 20.355469 87.363281 21.019531 87.332031 21.75 C 89.328125 21.667969 91.316406 21.75 93.300781 22 C 94.210938 22.136719 94.957031 22.554688 95.539062 23.25 C 95.957031 24.75 96.371094 26.25 96.785156 27.75 C 99.964844 29.140625 100.960938 31.472656 99.769531 34.75 C 101.996094 36.882812 102.328125 39.300781 100.765625 42 C 103.511719 44.617188 103.347656 47.035156 100.269531 49.25 C 102.300781 51.6875 102.132812 54.023438 99.769531 56.25 C 101.28125 59.714844 100.207031 62.046875 96.535156 63.25 C 96.339844 64.601562 96.089844 65.9375 95.789062 67.25 C 93.410156 69.582031 90.59375 70.332031 87.332031 69.5 C 86.085938 73.582031 83.597656 76.664062 79.867188 78.75 C 78.226562 86.652344 73.414062 90.234375 65.433594 89.5 C 63.011719 88.867188 61.019531 87.617188 59.464844 85.75 C 59.863281 84.980469 60.027344 84.144531 59.960938 83.25 C 62.691406 86.914062 66.339844 88.164062 70.910156 87 C 74.242188 85.726562 76.234375 83.308594 76.878906 79.75 C 75.058594 79.4375 73.816406 80.101562 73.148438 81.75 C 72.4375 82.71875 71.523438 83.386719 70.410156 83.75 C 70.734375 82.921875 71.066406 82.089844 71.40625 81.25 C 71.351562 80.777344 71.1875 80.363281 70.910156 80 C 68.089844 79.667969 65.269531 79.667969 62.449219 80 C 61.835938 80.117188 61.335938 80.367188 60.957031 80.75 C 60.121094 81.089844 59.792969 81.757812 59.960938 82.75 C 59.023438 82.332031 58.359375 81.664062 57.972656 80.75 C 54.339844 79.878906 50.527344 79.296875 46.527344 79 C 36.695312 76.542969 31.222656 70.292969 30.105469 60.25 C 30.84375 56.445312 31.34375 52.613281 31.597656 48.75 C 32.332031 45.9375 32.996094 43.105469 33.589844 40.25 C 33.589844 44.417969 33.589844 48.582031 33.589844 52.75 C 31.65625 58.8125 32.402344 64.480469 35.828125 69.75 C 37.074219 71.425781 38.648438 72.589844 40.554688 73.25 C 42.574219 74.851562 44.898438 75.933594 47.523438 76.5 C 56.960938 77.285156 66.414062 77.453125 75.886719 77 C 78.40625 76.800781 80.394531 75.71875 81.855469 73.75 C 83.539062 72.449219 84.371094 70.699219 84.34375 68.5 C 83.820312 66.027344 83.074219 63.609375 82.105469 61.25 C 81.699219 58.988281 81.785156 56.824219 82.355469 54.75 C 84.019531 54.667969 85.679688 54.75 87.332031 55 C 85.90625 55.089844 84.578125 55.339844 83.347656 55.75 C 82.78125 57.035156 82.863281 58.367188 83.597656 59.75 C 84.386719 60.429688 85.300781 60.765625 86.335938 60.75 C 86.269531 61.121094 86.351562 61.453125 86.582031 61.75 C 86.917969 61.375 87.332031 61.207031 87.828125 61.25 C 91.609375 62.113281 93.433594 60.613281 93.300781 56.75 C 91.589844 56.625 89.929688 56.792969 88.324219 57.25 C 88.105469 57.28125 87.941406 57.199219 87.828125 57 C 88.210938 56.265625 88.539062 55.515625 88.824219 54.75 C 90.488281 54.832031 92.148438 54.75 93.800781 54.5 C 94.171875 54.164062 94.339844 53.746094 94.296875 53.25 C 94.628906 53.25 94.960938 53.25 95.292969 53.25 C 95.292969 53.75 95.292969 54.25 95.292969 54.75 C 96.566406 54.902344 97.726562 54.734375 98.773438 54.25 C 99.894531 53.273438 100.0625 52.109375 99.273438 50.75 C 99.351562 50.0625 99.269531 49.398438 99.023438 48.75 C 98.8125 49.476562 98.398438 49.726562 97.78125 49.5 C 97.945312 49.332031 98.113281 49.167969 98.277344 49 C 97.839844 48.644531 97.507812 48.230469 97.28125 47.75 C 98.800781 47.492188 99.960938 46.742188 100.765625 45.5 C 99.839844 43.703125 98.347656 42.953125 96.285156 43.25 C 96.285156 43.75 96.285156 44.25 96.285156 44.75 C 96.363281 45.4375 96.28125 46.101562 96.039062 46.75 C 95.933594 45.972656 95.683594 45.304688 95.292969 44.75 C 95.375 44.089844 95.210938 43.503906 94.792969 43 C 93.476562 42.75 92.152344 42.667969 90.8125 42.75 C 91.476562 42.082031 91.476562 41.417969 90.8125 40.75 C 91.972656 40.75 93.136719 40.75 94.296875 40.75 C 94.574219 38.992188 94.242188 37.492188 93.300781 36.25 C 91.523438 35.808594 89.699219 35.308594 87.828125 34.75 C 88.054688 34.351562 88.386719 34.183594 88.824219 34.25 C 90.351562 34.410156 91.84375 34.242188 93.300781 33.75 C 92.96875 32.582031 92.636719 31.417969 92.304688 30.25 C 90.847656 29.757812 89.355469 29.589844 87.828125 29.75 C 86.882812 29.476562 86.054688 29.8125 85.339844 30.75 C 85.175781 30.75 85.007812 30.75 84.84375 30.75 C 84.785156 30.441406 84.621094 30.191406 84.34375 30 C 85.292969 29.148438 86.289062 28.398438 87.332031 27.75 C 88.734375 27.875 90.058594 27.625 91.3125 27 C 91.9375 26.09375 91.9375 25.175781 91.3125 24.25 C 89.476562 23.359375 87.984375 23.691406 86.832031 25.25 C 86.253906 24.238281 85.753906 23.152344 85.339844 22 C 85.351562 20.910156 85.847656 20.160156 86.832031 19.75 Z M 86.832031 19.75 "/>
</g>
<mask id="mask4">
  <g filter="url(#alpha)">
<rect x="0" y="0" width="104" height="91" style="fill:rgb(0%,0%,0%);fill-opacity:0.0235294;stroke:none;"/>
  </g>
</mask>
<clipPath id="clip5">
  <rect x="0" y="0" width="104" height="91"/>
</clipPath>
<g id="surface17" clip-path="url(#clip5)">
<path style=" stroke:none;fill-rule:evenodd;fill:rgb(14.509804%,15.686275%,20.784314%);fill-opacity:1;" d="M 40.554688 -0.25 C 41.050781 -0.25 41.550781 -0.25 42.046875 -0.25 C 42.214844 0.417969 42.378906 0.417969 42.546875 -0.25 C 43.707031 -0.25 44.867188 -0.25 46.027344 -0.25 C 50.417969 0.277344 54.566406 1.609375 58.46875 3.75 C 58.136719 3.75 57.972656 3.917969 57.972656 4.25 C 46.773438 0.0742188 35.660156 0.324219 24.632812 5 C 23.664062 5.90625 23.332031 6.90625 23.636719 8 C 18.808594 9.695312 14.328125 12.027344 10.199219 15 C 6.960938 17.085938 4.640625 19.921875 3.234375 23.5 C 3.351562 24.367188 3.847656 24.78125 4.726562 24.75 C 5.941406 23.886719 7.265625 23.46875 8.707031 23.5 C 5.019531 30.535156 2.367188 37.953125 0.746094 45.75 C 0.894531 48.417969 2.054688 48.917969 4.230469 47.25 C 5.003906 53.203125 6.332031 59.035156 8.210938 64.75 C 7.203125 65.019531 6.207031 64.769531 5.226562 64 C 2.011719 63.539062 1.429688 64.625 3.484375 67.25 C 8.671875 73.40625 15.058594 77.90625 22.640625 80.75 C 22.925781 81.957031 23.421875 83.042969 24.132812 84 C 35.394531 89.832031 46.839844 90.25 58.46875 85.25 C 58.808594 85.429688 59.140625 85.597656 59.464844 85.75 C 61.019531 87.617188 63.011719 88.867188 65.433594 89.5 C 73.414062 90.234375 78.226562 86.652344 79.867188 78.75 C 83.597656 76.664062 86.085938 73.582031 87.332031 69.5 C 90.59375 70.332031 93.410156 69.582031 95.789062 67.25 C 95.957031 67.25 96.121094 67.25 96.285156 67.25 C 95.699219 68.921875 94.539062 70.003906 92.804688 70.5 C 91.121094 70.589844 89.460938 70.839844 87.828125 71.25 C 86.246094 74.757812 83.839844 77.589844 80.613281 79.75 C 78.980469 85.136719 75.582031 88.804688 70.410156 90.75 C 68.917969 90.75 67.425781 90.75 65.933594 90.75 C 63.140625 89.96875 60.734375 88.46875 58.71875 86.25 C 47.441406 91.019531 36.246094 90.769531 25.128906 85.5 C 23.324219 84.605469 22.164062 83.1875 21.644531 81.25 C 14.597656 78.503906 8.542969 74.335938 3.484375 68.75 C 0.351562 64.238281 1.429688 62.324219 6.71875 63 C 5.195312 58.898438 4.28125 54.648438 3.980469 50.25 C 2.492188 49.566406 1.082031 48.730469 -0.25 47.75 C -0.25 46.417969 -0.25 45.082031 -0.25 43.75 C 1.84375 37.359375 4.082031 31.027344 6.46875 24.75 C 4.707031 26.203125 3.296875 25.871094 2.238281 23.75 C 4.398438 18.996094 7.71875 15.246094 12.191406 12.5 C 15.386719 10.5625 18.703125 8.894531 22.144531 7.5 C 22.570312 6.066406 23.402344 4.898438 24.632812 4 C 29.410156 1.480469 34.304688 0.398438 39.3125 0.75 C 39.804688 0.46875 40.21875 0.132812 40.554688 -0.25 Z M 40.554688 -0.25 "/>
</g>
</defs>
<g id="surface1">
<use xlink:href="#surface5" mask="url(#mask0)"/>
<path style=" stroke:none;fill-rule:evenodd;fill:rgb(90.588235%,76.470588%,38.431373%);fill-opacity:1;" d="M 72.402344 5.25 C 71.511719 5.65625 70.515625 5.90625 69.417969 6 C 69.789062 6.335938 69.957031 6.753906 69.914062 7.25 C 66.867188 6.617188 64.542969 7.617188 62.949219 10.25 C 62.179688 10.726562 61.347656 10.894531 60.460938 10.75 C 59.996094 10.214844 59.828125 9.550781 59.960938 8.75 C 60.292969 8.082031 60.625 7.417969 60.957031 6.75 C 64.472656 4.066406 68.289062 3.566406 72.402344 5.25 Z M 72.402344 5.25 "/>
<path style=" stroke:none;fill-rule:evenodd;fill:rgb(58.039216%,47.843137%,12.941176%);fill-opacity:1;" d="M 69.914062 7.25 C 70.578125 7.582031 71.074219 8.082031 71.40625 8.75 C 71.511719 9.570312 71.347656 10.320312 70.910156 11 C 67.335938 11.410156 63.851562 11.328125 60.460938 10.75 C 61.347656 10.894531 62.179688 10.726562 62.949219 10.25 C 64.542969 7.617188 66.867188 6.617188 69.914062 7.25 Z M 69.914062 7.25 "/>
<path style=" stroke:none;fill-rule:evenodd;fill:rgb(80%,66.666667%,29.803922%);fill-opacity:1;" d="M 72.402344 5.25 C 75 6.640625 76.496094 8.804688 76.878906 11.75 C 75.871094 11.832031 74.875 11.746094 73.894531 11.5 C 73 10.59375 72.167969 9.675781 71.40625 8.75 C 71.074219 8.082031 70.578125 7.582031 69.914062 7.25 C 69.957031 6.753906 69.789062 6.335938 69.417969 6 C 70.515625 5.90625 71.511719 5.65625 72.402344 5.25 Z M 72.402344 5.25 "/>
<path style=" stroke:none;fill-rule:evenodd;fill:rgb(69.411765%,79.215686%,82.745098%);fill-opacity:1;" d="M 46.527344 3.75 C 36.09375 5.8125 28.878906 11.8125 24.878906 21.75 C 23.5 24.960938 22.589844 28.292969 22.144531 31.75 C 21.550781 31.476562 20.972656 31.308594 20.402344 31.25 C 20.070312 31.917969 19.574219 32.417969 18.910156 32.75 C 18.410156 32.082031 17.914062 32.082031 17.417969 32.75 C 17.109375 32.277344 17.191406 31.859375 17.664062 31.5 C 16.9375 30.710938 16.109375 30.042969 15.175781 29.5 C 15.75 29.042969 15.667969 28.625 14.929688 28.25 C 14.761719 28.75 14.597656 29.25 14.429688 29.75 C 13.910156 29.242188 13.328125 29.15625 12.6875 29.5 C 12.855469 29.667969 13.019531 29.832031 13.1875 30 C 12.523438 30.167969 11.859375 30.332031 11.195312 30.5 C 11.363281 30.667969 11.527344 30.832031 11.695312 31 C 10.585938 32 9.757812 31.75 9.207031 30.25 C 9.722656 29.4375 9.722656 28.601562 9.207031 27.75 C 10.058594 25.535156 11.054688 23.367188 12.191406 21.25 C 10.726562 20.839844 9.230469 20.589844 7.714844 20.5 C 12.695312 15.871094 18.417969 12.453125 24.878906 10.25 C 26.214844 10.613281 27.125 10.03125 27.617188 8.5 C 27.488281 7.871094 27.15625 7.371094 26.621094 7 C 32.9375 4.066406 39.574219 2.980469 46.527344 3.75 Z M 46.527344 3.75 "/>
<use xlink:href="#surface8" mask="url(#mask1)"/>
<path style=" stroke:none;fill-rule:evenodd;fill:rgb(0.784314%,0.784314%,0.392157%);fill-opacity:1;" d="M 63.941406 36.25 C 62.351562 33.148438 60.359375 30.316406 57.972656 27.75 C 56.429688 23.679688 57.589844 20.765625 61.453125 19 C 66.855469 17.386719 71.75 18.304688 76.132812 21.75 C 77.3125 25.386719 76.980469 28.886719 75.140625 32.25 C 72.242188 34.984375 69.339844 37.652344 66.429688 40.25 C 65.601562 38.917969 64.773438 37.585938 63.941406 36.25 Z M 63.941406 36.25 "/>
<path style=" stroke:none;fill-rule:evenodd;fill:rgb(71.764706%,63.529412%,16.470588%);fill-opacity:1;" d="M 54.984375 17.75 C 54.121094 18.546875 53.542969 19.546875 53.242188 20.75 C 53.078125 22.75 52.914062 24.75 52.746094 26.75 C 50.8125 24.496094 48.410156 23.746094 45.53125 24.5 C 43.304688 25.65625 41.480469 27.238281 40.058594 29.25 C 40.785156 28.199219 40.703125 27.199219 39.808594 26.25 C 39.648438 27.285156 39.234375 27.449219 38.566406 26.75 C 37.753906 27.648438 36.757812 28.230469 35.578125 28.5 C 35.273438 29.589844 34.691406 30.507812 33.835938 31.25 C 33.648438 30.972656 33.398438 30.804688 33.089844 30.75 C 33.089844 30.582031 33.089844 30.417969 33.089844 30.25 C 34.734375 28.175781 36.308594 26.007812 37.816406 23.75 C 42.433594 18.289062 48.15625 16.289062 54.984375 17.75 Z M 54.984375 17.75 "/>
<path style=" stroke:none;fill-rule:evenodd;fill:rgb(48.627451%,53.333333%,63.529412%);fill-opacity:1;" d="M 46.527344 3.75 C 48.746094 3.710938 50.902344 4.042969 52.996094 4.75 C 52.550781 6.230469 51.554688 7.148438 50.007812 7.5 C 41.59375 8.476562 34.957031 12.390625 30.105469 19.25 C 30.269531 19.582031 30.4375 19.917969 30.601562 20.25 C 28.371094 24.648438 27.042969 29.3125 26.621094 34.25 C 27.617188 34.082031 28.613281 33.917969 29.609375 33.75 C 29.523438 35.765625 29.273438 37.765625 28.859375 39.75 C 27.953125 42.394531 27.207031 45.0625 26.621094 47.75 C 27.121094 47.75 27.617188 47.75 28.113281 47.75 C 27.765625 52.796875 27.105469 57.796875 26.125 62.75 C 25.886719 66.109375 26.796875 69.109375 28.859375 71.75 C 30.601562 73.5 32.34375 75.25 34.085938 77 C 36.164062 78.292969 38.320312 79.460938 40.554688 80.5 C 46.328125 81.289062 51.96875 82.039062 57.472656 82.75 C 53.351562 85.078125 48.875 86.242188 44.039062 86.25 C 38.558594 84.742188 33.917969 81.828125 30.105469 77.5 C 27.984375 76.820312 25.828125 76.652344 23.636719 77 C 24.453125 77.566406 24.949219 78.316406 25.128906 79.25 C 24.527344 79.035156 24.03125 78.699219 23.636719 78.25 C 22.023438 76.667969 20.945312 74.835938 20.402344 72.75 C 22.261719 74.320312 24.335938 74.652344 26.621094 73.75 C 23.171875 67.761719 21.265625 61.261719 20.898438 54.25 C 20.398438 46.6875 20.8125 39.1875 22.144531 31.75 C 22.589844 28.292969 23.5 24.960938 24.878906 21.75 C 28.878906 11.8125 36.09375 5.8125 46.527344 3.75 Z M 46.527344 3.75 "/>
<path style=" stroke:none;fill-rule:evenodd;fill:rgb(87.45098%,73.72549%,36.470588%);fill-opacity:1;" d="M 87.332031 27.75 C 86.835938 27.765625 86.503906 27.515625 86.335938 27 C 86.578125 26.429688 86.742188 25.847656 86.832031 25.25 C 87.984375 23.691406 89.476562 23.359375 91.3125 24.25 C 91.9375 25.175781 91.9375 26.09375 91.3125 27 C 90.058594 27.625 88.734375 27.875 87.332031 27.75 Z M 87.332031 27.75 "/>
<path style=" stroke:none;fill-rule:evenodd;fill:rgb(70.196078%,60.392157%,20%);fill-opacity:1;" d="M 40.058594 29.25 C 38.441406 34.617188 37.613281 40.117188 37.570312 45.75 C 37.253906 50.214844 36.675781 54.714844 35.828125 59.25 C 35.6875 58.792969 35.441406 58.460938 35.082031 58.25 C 34.695312 54.105469 34.449219 49.941406 34.335938 45.75 C 34.25 48.175781 34 50.507812 33.589844 52.75 C 33.589844 48.582031 33.589844 44.417969 33.589844 40.25 C 33.714844 37.054688 33.546875 33.886719 33.089844 30.75 C 33.398438 30.804688 33.648438 30.972656 33.835938 31.25 C 34.691406 30.507812 35.273438 29.589844 35.578125 28.5 C 36.757812 28.230469 37.753906 27.648438 38.566406 26.75 C 39.234375 27.449219 39.648438 27.285156 39.808594 26.25 C 40.703125 27.199219 40.785156 28.199219 40.058594 29.25 Z M 40.058594 29.25 "/>
<path style=" stroke:none;fill-rule:evenodd;fill:rgb(91.372549%,82.352941%,27.843137%);fill-opacity:1;" d="M 58.46875 17.25 C 57.589844 19.582031 56.925781 21.996094 56.476562 24.5 C 56.554688 25.835938 57.054688 26.921875 57.972656 27.75 C 60.359375 30.316406 62.351562 33.148438 63.941406 36.25 C 63.941406 37.25 63.941406 38.25 63.941406 39.25 C 61.144531 38.878906 58.492188 38.046875 55.980469 36.75 C 55.351562 35.773438 54.773438 34.773438 54.238281 33.75 C 52.722656 34.925781 52.636719 36.175781 53.992188 37.5 C 57.398438 39.085938 60.800781 40.667969 64.191406 42.25 C 64.101562 43.542969 63.6875 44.792969 62.949219 46 C 63.96875 47.515625 64.136719 49.097656 63.445312 50.75 C 63.101562 53.375 62.105469 55.792969 60.460938 58 C 59.628906 58.167969 58.800781 58.332031 57.972656 58.5 C 57.675781 60.21875 56.847656 61.632812 55.484375 62.75 C 55.105469 64.554688 54.855469 66.390625 54.738281 68.25 C 54.277344 66.105469 54.027344 63.9375 53.992188 61.75 C 54.042969 60.808594 53.792969 60.644531 53.242188 61.25 C 52.382812 63.285156 51.304688 65.203125 50.007812 67 C 48.25 67.753906 46.425781 67.917969 44.535156 67.5 C 40.175781 64.625 38.019531 60.542969 38.066406 55.25 C 40.390625 56.125 42.796875 56.625 45.28125 56.75 C 46.359375 56.667969 47.4375 56.582031 48.515625 56.5 C 49.25 56.144531 49.582031 55.5625 49.511719 54.75 C 46.523438 54.832031 43.535156 54.75 40.554688 54.5 C 39.488281 54.214844 38.496094 53.796875 37.570312 53.25 C 37.570312 50.75 37.570312 48.25 37.570312 45.75 C 37.613281 40.117188 38.441406 34.617188 40.058594 29.25 C 41.480469 27.238281 43.304688 25.65625 45.53125 24.5 C 48.410156 23.746094 50.8125 24.496094 52.746094 26.75 C 52.914062 24.75 53.078125 22.75 53.242188 20.75 C 53.542969 19.546875 54.121094 18.546875 54.984375 17.75 C 55.191406 18.0625 55.523438 18.230469 55.980469 18.25 C 56.753906 17.726562 57.585938 17.394531 58.46875 17.25 Z M 58.46875 17.25 "/>
<path style=" stroke:none;fill-rule:evenodd;fill:rgb(68.627451%,78.823529%,82.352941%);fill-opacity:1;" d="M 9.207031 27.75 C 9.722656 28.601562 9.722656 29.4375 9.207031 30.25 C 9.757812 31.75 10.585938 32 11.695312 31 C 11.527344 30.832031 11.363281 30.667969 11.195312 30.5 C 11.859375 30.332031 12.523438 30.167969 13.1875 30 C 13.019531 29.832031 12.855469 29.667969 12.6875 29.5 C 13.328125 29.15625 13.910156 29.242188 14.429688 29.75 C 14.597656 29.25 14.761719 28.75 14.929688 28.25 C 15.667969 28.625 15.75 29.042969 15.175781 29.5 C 16.109375 30.042969 16.9375 30.710938 17.664062 31.5 C 17.191406 31.859375 17.109375 32.277344 17.417969 32.75 C 17.914062 32.082031 18.410156 32.082031 18.910156 32.75 C 19.574219 32.417969 20.070312 31.917969 20.402344 31.25 C 20.972656 31.308594 21.550781 31.476562 22.144531 31.75 C 20.8125 39.1875 20.398438 46.6875 20.898438 54.25 C 21.265625 61.261719 23.171875 67.761719 26.621094 73.75 C 24.335938 74.652344 22.261719 74.320312 20.402344 72.75 C 20.945312 74.835938 22.023438 76.667969 23.636719 78.25 C 16.792969 75.894531 10.824219 72.144531 5.722656 67 C 6.773438 67.140625 7.851562 67.390625 8.957031 67.75 C 9.96875 67.785156 10.714844 67.367188 11.195312 66.5 C 7.925781 58.234375 6.515625 49.652344 6.964844 40.75 C 5.261719 42.128906 3.933594 43.792969 2.984375 45.75 C 4.316406 39.484375 6.390625 33.484375 9.207031 27.75 Z M 9.207031 27.75 "/>
<path style=" stroke:none;fill-rule:evenodd;fill:rgb(90.980392%,75.294118%,38.039216%);fill-opacity:1;" d="M 87.828125 29.75 C 89.355469 29.589844 90.847656 29.757812 92.304688 30.25 C 92.636719 31.417969 92.96875 32.582031 93.300781 33.75 C 91.84375 34.242188 90.351562 34.410156 88.824219 34.25 C 88.113281 32.847656 87.78125 31.347656 87.828125 29.75 Z M 87.828125 29.75 "/>
<path style=" stroke:none;fill-rule:evenodd;fill:rgb(69.803922%,50.588235%,21.568627%);fill-opacity:1;" d="M 84.84375 30.75 C 85.007812 30.75 85.175781 30.75 85.339844 30.75 C 85.777344 30.683594 86.109375 30.851562 86.335938 31.25 C 88.109375 34.480469 87.113281 35.8125 83.347656 35.25 C 83.0625 33.421875 83.5625 31.921875 84.84375 30.75 Z M 84.84375 30.75 "/>
<path style=" stroke:none;fill-rule:evenodd;fill:rgb(92.54902%,80%,35.686275%);fill-opacity:1;" d="M 82.851562 54.25 C 81.164062 53.515625 80.5 52.183594 80.859375 50.25 C 80.335938 50.324219 79.839844 50.242188 79.367188 50 C 80.304688 49.902344 81.132812 49.652344 81.855469 49.25 C 83.136719 49.140625 83.554688 48.472656 83.101562 47.25 C 82.203125 46.339844 81.128906 45.757812 79.867188 45.5 C 81.457031 45.199219 82.621094 44.367188 83.347656 43 C 83.148438 42.527344 82.816406 42.195312 82.355469 42 C 79.671875 41.484375 77.183594 41.984375 74.890625 43.5 C 73.378906 45.511719 73.710938 47.097656 75.886719 48.25 C 74.988281 48.953125 73.992188 49.203125 72.898438 49 C 73.21875 47.84375 73.21875 46.59375 72.898438 45.25 C 73.4375 44 74.101562 42.835938 74.890625 41.75 C 75.976562 41.390625 77.054688 41.054688 78.125 40.75 C 78.609375 38.585938 79.023438 36.417969 79.367188 34.25 C 78.710938 34.164062 78.128906 34.332031 77.625 34.75 C 77.488281 34.292969 77.238281 33.957031 76.878906 33.75 C 78.449219 31.714844 79.28125 29.382812 79.367188 26.75 C 78.796875 25.28125 78.546875 23.78125 78.621094 22.25 C 81.25 21.222656 81.5 19.808594 79.367188 18 C 72.488281 15.367188 65.519531 15.117188 58.46875 17.25 C 57.585938 17.394531 56.753906 17.726562 55.980469 18.25 C 55.523438 18.230469 55.191406 18.0625 54.984375 17.75 C 48.15625 16.289062 42.433594 18.289062 37.816406 23.75 C 36.308594 26.007812 34.734375 28.175781 33.089844 30.25 C 33.007812 28.90625 33.09375 27.574219 33.339844 26.25 C 36.617188 19.058594 42.171875 14.976562 50.007812 14 C 58.632812 13.667969 67.261719 13.667969 75.886719 14 C 81.910156 14.875 84.8125 18.292969 84.59375 24.25 C 82.390625 28.132812 81.480469 32.300781 81.855469 36.75 C 83.679688 36.75 85.503906 36.75 87.332031 36.75 C 87.261719 38.582031 87.59375 40.332031 88.324219 42 C 87.714844 43.996094 87.714844 45.996094 88.324219 48 C 87.601562 50.011719 87.269531 52.09375 87.332031 54.25 C 85.835938 54.25 84.34375 54.25 82.851562 54.25 Z M 82.851562 54.25 "/>
<path style=" stroke:none;fill-rule:evenodd;fill:rgb(92.156863%,81.960784%,43.137255%);fill-opacity:1;" d="M 93.300781 36.25 C 94.242188 37.492188 94.574219 38.992188 94.296875 40.75 C 93.136719 40.75 91.972656 40.75 90.8125 40.75 C 89.046875 40.023438 88.464844 38.6875 89.070312 36.75 C 90.425781 36.277344 91.835938 36.113281 93.300781 36.25 Z M 93.300781 36.25 "/>
<use xlink:href="#surface11" mask="url(#mask2)"/>
<path style=" stroke:none;fill-rule:evenodd;fill:rgb(73.72549%,65.098039%,20.392157%);fill-opacity:1;" d="M 76.878906 33.75 C 72.484375 36.238281 70.078125 40.070312 69.664062 45.25 C 69.363281 47.269531 69.445312 49.269531 69.914062 51.25 C 68.980469 50.828125 67.984375 50.664062 66.929688 50.75 C 65.722656 52.671875 64.394531 54.503906 62.949219 56.25 C 63.273438 54.921875 63.605469 53.589844 63.941406 52.25 C 63.933594 51.636719 63.765625 51.136719 63.445312 50.75 C 64.136719 49.097656 63.96875 47.515625 62.949219 46 C 63.6875 44.792969 64.101562 43.542969 64.191406 42.25 C 60.800781 40.667969 57.398438 39.085938 53.992188 37.5 C 52.636719 36.175781 52.722656 34.925781 54.238281 33.75 C 54.773438 34.773438 55.351562 35.773438 55.980469 36.75 C 58.492188 38.046875 61.144531 38.878906 63.941406 39.25 C 63.941406 38.25 63.941406 37.25 63.941406 36.25 C 64.773438 37.585938 65.601562 38.917969 66.429688 40.25 C 69.339844 37.652344 72.242188 34.984375 75.140625 32.25 C 76.980469 28.886719 77.3125 25.386719 76.132812 21.75 C 71.75 18.304688 66.855469 17.386719 61.453125 19 C 57.589844 20.765625 56.429688 23.679688 57.972656 27.75 C 57.054688 26.921875 56.554688 25.835938 56.476562 24.5 C 56.925781 21.996094 57.589844 19.582031 58.46875 17.25 C 65.519531 15.117188 72.488281 15.367188 79.367188 18 C 81.5 19.808594 81.25 21.222656 78.621094 22.25 C 78.546875 23.78125 78.796875 25.28125 79.367188 26.75 C 79.28125 29.382812 78.449219 31.714844 76.878906 33.75 Z M 76.878906 33.75 "/>
<path style=" stroke:none;fill-rule:evenodd;fill:rgb(94.117647%,83.529412%,34.509804%);fill-opacity:1;" d="M 76.878906 33.75 C 77.238281 33.957031 77.488281 34.292969 77.625 34.75 C 78.128906 34.332031 78.710938 34.164062 79.367188 34.25 C 79.023438 36.417969 78.609375 38.585938 78.125 40.75 C 77.054688 41.054688 75.976562 41.390625 74.890625 41.75 C 74.101562 42.835938 73.4375 44 72.898438 45.25 C 73.21875 46.59375 73.21875 47.84375 72.898438 49 C 73.992188 49.203125 74.988281 48.953125 75.886719 48.25 C 76.050781 48.25 76.21875 48.25 76.382812 48.25 C 75.957031 48.902344 75.707031 49.566406 75.636719 50.25 C 76.3125 49.808594 77.058594 49.644531 77.875 49.75 C 79.238281 56.152344 80.566406 62.566406 81.855469 69 C 81.84375 69.535156 81.675781 69.953125 81.359375 70.25 C 81.488281 69.511719 81.324219 68.84375 80.859375 68.25 C 80.363281 69.582031 79.867188 70.917969 79.367188 72.25 C 78.460938 72.875 77.464844 73.207031 76.382812 73.25 C 77.097656 72.785156 77.761719 72.203125 78.375 71.5 C 77.964844 70.023438 77.300781 68.773438 76.382812 67.75 C 76.382812 66.417969 76.382812 65.082031 76.382812 63.75 C 76.121094 61.105469 75.292969 58.941406 73.894531 57.25 C 74.546875 56.871094 74.796875 56.371094 74.640625 55.75 C 72.863281 54.410156 71.289062 52.910156 69.914062 51.25 C 69.445312 49.269531 69.363281 47.269531 69.664062 45.25 C 70.078125 40.070312 72.484375 36.238281 76.878906 33.75 Z M 76.878906 33.75 "/>
<path style=" stroke:none;fill-rule:evenodd;fill:rgb(34.901961%,36.862745%,49.019608%);fill-opacity:1;" d="M 52.996094 4.75 C 54.59375 5.34375 56.171875 6.011719 57.722656 6.75 C 57.96875 8.074219 58.054688 9.40625 57.972656 10.75 C 55.242188 11.164062 52.421875 11.414062 49.511719 11.5 C 47.445312 11.691406 45.453125 12.191406 43.539062 13 C 36.332031 15.824219 32.183594 21.074219 31.101562 28.75 C 31.503906 35.429688 31.671875 42.097656 31.597656 48.75 C 31.34375 52.613281 30.84375 56.445312 30.105469 60.25 C 31.222656 70.292969 36.695312 76.542969 46.527344 79 C 50.527344 79.296875 54.339844 79.878906 57.972656 80.75 C 58.105469 81.550781 57.9375 82.214844 57.472656 82.75 C 51.96875 82.039062 46.328125 81.289062 40.554688 80.5 C 38.320312 79.460938 36.164062 78.292969 34.085938 77 C 32.34375 75.25 30.601562 73.5 28.859375 71.75 C 26.796875 69.109375 25.886719 66.109375 26.125 62.75 C 27.105469 57.796875 27.765625 52.796875 28.113281 47.75 C 27.617188 47.75 27.121094 47.75 26.621094 47.75 C 27.207031 45.0625 27.953125 42.394531 28.859375 39.75 C 29.273438 37.765625 29.523438 35.765625 29.609375 33.75 C 28.613281 33.917969 27.617188 34.082031 26.621094 34.25 C 27.042969 29.3125 28.371094 24.648438 30.601562 20.25 C 30.4375 19.917969 30.269531 19.582031 30.105469 19.25 C 34.957031 12.390625 41.59375 8.476562 50.007812 7.5 C 51.554688 7.148438 52.550781 6.230469 52.996094 4.75 Z M 52.996094 4.75 "/>
<use xlink:href="#surface14" mask="url(#mask3)"/>
<path style=" stroke:none;fill-rule:evenodd;fill:rgb(90.588235%,80.392157%,32.941176%);fill-opacity:1;" d="M 63.445312 50.75 C 63.765625 51.136719 63.933594 51.636719 63.941406 52.25 C 63.605469 53.589844 63.273438 54.921875 62.949219 56.25 C 61.046875 59.070312 59.136719 61.902344 57.226562 64.75 C 56.894531 66.25 56.894531 67.75 57.226562 69.25 C 58.019531 70.683594 58.933594 72.019531 59.960938 73.25 C 58.59375 73.382812 57.097656 73.382812 55.484375 73.25 C 52.855469 69.652344 52.355469 65.820312 53.992188 61.75 C 54.027344 63.9375 54.277344 66.105469 54.738281 68.25 C 54.855469 66.390625 55.105469 64.554688 55.484375 62.75 C 56.847656 61.632812 57.675781 60.21875 57.972656 58.5 C 58.800781 58.332031 59.628906 58.167969 60.460938 58 C 62.105469 55.792969 63.101562 53.375 63.445312 50.75 Z M 63.445312 50.75 "/>
<path style=" stroke:none;fill-rule:evenodd;fill:rgb(93.333333%,76.862745%,35.686275%);fill-opacity:1;" d="M 85.835938 63.25 C 87.828125 63.25 89.816406 63.25 91.808594 63.25 C 92.105469 67.039062 90.527344 68.207031 87.082031 66.75 C 86.378906 65.675781 85.964844 64.507812 85.835938 63.25 Z M 85.835938 63.25 "/>
<path style=" stroke:none;fill-rule:evenodd;fill:rgb(50.588235%,41.568627%,25.098039%);fill-opacity:1;" d="M 92.804688 63.75 C 93.300781 63.75 93.800781 63.75 94.296875 63.75 C 93.574219 66.984375 93.078125 66.984375 92.804688 63.75 Z M 92.804688 63.75 "/>
<path style=" stroke:none;fill-rule:evenodd;fill:rgb(91.764706%,79.215686%,36.862745%);fill-opacity:1;" d="M 35.082031 58.25 C 35.226562 63.71875 37.550781 67.886719 42.046875 70.75 C 42.707031 71.84375 43.703125 72.59375 45.035156 73 C 44.25 73.21875 43.585938 73.636719 43.042969 74.25 C 42.257812 73.773438 41.429688 73.4375 40.554688 73.25 C 38.648438 72.589844 37.074219 71.425781 35.828125 69.75 C 32.402344 64.480469 31.65625 58.8125 33.589844 52.75 C 34 50.507812 34.25 48.175781 34.335938 45.75 C 34.449219 49.941406 34.695312 54.105469 35.082031 58.25 Z M 35.082031 58.25 "/>
<path style=" stroke:none;fill-rule:evenodd;fill:rgb(89.019608%,78.823529%,37.647059%);fill-opacity:1;" d="M 87.828125 61.25 C 87.777344 59.882812 87.945312 58.546875 88.324219 57.25 C 89.929688 56.792969 91.589844 56.625 93.300781 56.75 C 93.433594 60.613281 91.609375 62.113281 87.828125 61.25 Z M 87.828125 61.25 "/>
<path style=" stroke:none;fill-rule:evenodd;fill:rgb(62.745098%,50.196078%,22.745098%);fill-opacity:1;" d="M 83.347656 55.75 C 84.675781 55.75 86.003906 55.75 87.332031 55.75 C 87.425781 57.515625 87.09375 59.183594 86.335938 60.75 C 85.300781 60.765625 84.386719 60.429688 83.597656 59.75 C 82.863281 58.367188 82.78125 57.035156 83.347656 55.75 Z M 83.347656 55.75 "/>
<path style=" stroke:none;fill-rule:evenodd;fill:rgb(67.058824%,63.921569%,27.45098%);fill-opacity:1;" d="M 66.929688 50.75 C 67.984375 50.664062 68.980469 50.828125 69.914062 51.25 C 71.289062 52.910156 72.863281 54.410156 74.640625 55.75 C 74.796875 56.371094 74.546875 56.871094 73.894531 57.25 C 75.292969 58.941406 76.121094 61.105469 76.382812 63.75 C 75.59375 61.496094 74.515625 59.328125 73.148438 57.25 C 70.640625 55.480469 68.566406 53.3125 66.929688 50.75 Z M 66.929688 50.75 "/>
<path style=" stroke:none;fill-rule:evenodd;fill:rgb(90.980392%,78.431373%,39.607843%);fill-opacity:1;" d="M 94.792969 56.75 C 96.570312 56.445312 97.898438 57.03125 98.773438 58.5 C 97.945312 60.484375 96.453125 61.234375 94.296875 60.75 C 94.1875 59.359375 94.351562 58.027344 94.792969 56.75 Z M 94.792969 56.75 "/>
<path style=" stroke:none;fill-rule:evenodd;fill:rgb(95.294118%,89.411765%,54.117647%);fill-opacity:1;" d="M 37.570312 53.25 C 38.496094 53.796875 39.488281 54.214844 40.554688 54.5 C 43.535156 54.75 46.523438 54.832031 49.511719 54.75 C 49.582031 55.5625 49.25 56.144531 48.515625 56.5 C 47.4375 56.582031 46.359375 56.667969 45.28125 56.75 C 42.796875 56.625 40.390625 56.125 38.066406 55.25 C 37.703125 54.644531 37.535156 53.980469 37.570312 53.25 Z M 37.570312 53.25 "/>
<path style=" stroke:none;fill-rule:evenodd;fill:rgb(81.176471%,69.803922%,27.45098%);fill-opacity:1;" d="M 76.382812 48.25 C 78.085938 49.109375 79.910156 49.445312 81.855469 49.25 C 81.132812 49.652344 80.304688 49.902344 79.367188 50 C 79.839844 50.242188 80.335938 50.324219 80.859375 50.25 C 80.5 52.183594 81.164062 53.515625 82.851562 54.25 C 82.519531 54.25 82.355469 54.417969 82.355469 54.75 C 81.785156 56.824219 81.699219 58.988281 82.105469 61.25 C 83.074219 63.609375 83.820312 66.027344 84.34375 68.5 C 84.371094 70.699219 83.539062 72.449219 81.855469 73.75 C 81.488281 73.816406 81.15625 73.730469 80.859375 73.5 C 82.023438 72.578125 82.1875 71.496094 81.359375 70.25 C 81.675781 69.953125 81.84375 69.535156 81.855469 69 C 80.566406 62.566406 79.238281 56.152344 77.875 49.75 C 77.058594 49.644531 76.3125 49.808594 75.636719 50.25 C 75.707031 49.566406 75.957031 48.902344 76.382812 48.25 Z M 76.382812 48.25 "/>
<path style=" stroke:none;fill-rule:evenodd;fill:rgb(33.72549%,29.411765%,10.980392%);fill-opacity:1;" d="M 95.789062 52.75 C 95.789062 53.25 95.789062 53.75 95.789062 54.25 C 96.785156 54.25 97.78125 54.25 98.773438 54.25 C 97.726562 54.734375 96.566406 54.902344 95.292969 54.75 C 95.292969 54.25 95.292969 53.75 95.292969 53.25 C 95.292969 52.917969 95.457031 52.75 95.789062 52.75 Z M 95.789062 52.75 "/>
<path style=" stroke:none;fill-rule:evenodd;fill:rgb(92.941176%,80.392157%,33.72549%);fill-opacity:1;" d="M 99.273438 50.75 C 100.0625 52.109375 99.894531 53.273438 98.773438 54.25 C 97.78125 54.25 96.785156 54.25 95.789062 54.25 C 95.789062 53.75 95.789062 53.25 95.789062 52.75 C 95.789062 51.917969 95.789062 51.082031 95.789062 50.25 C 97.007812 50.148438 98.167969 50.316406 99.273438 50.75 Z M 99.273438 50.75 "/>
<path style=" stroke:none;fill-rule:evenodd;fill:rgb(94.117647%,80.784314%,37.254902%);fill-opacity:1;" d="M 94.296875 53.25 C 94.339844 53.746094 94.171875 54.164062 93.800781 54.5 C 92.148438 54.75 90.488281 54.832031 88.824219 54.75 C 88.585938 53.15625 88.914062 51.742188 89.816406 50.5 C 91.46875 50.25 93.128906 50.167969 94.792969 50.25 C 94.785156 51.28125 94.621094 52.28125 94.296875 53.25 Z M 94.296875 53.25 "/>
<path style=" stroke:none;fill-rule:evenodd;fill:rgb(1.176471%,0.784314%,0.392157%);fill-opacity:1;" d="M 66.929688 50.75 C 68.566406 53.3125 70.640625 55.480469 73.148438 57.25 C 74.515625 59.328125 75.59375 61.496094 76.382812 63.75 C 76.382812 65.082031 76.382812 66.417969 76.382812 67.75 C 75 70.203125 72.84375 71.535156 69.914062 71.75 C 67.734375 71.855469 65.578125 71.6875 63.445312 71.25 C 63.113281 71.417969 62.78125 71.582031 62.449219 71.75 C 62.855469 72.40625 63.351562 72.992188 63.941406 73.5 C 63.300781 73.746094 62.636719 73.828125 61.953125 73.75 C 61.289062 73.582031 60.625 73.417969 59.960938 73.25 C 58.933594 72.019531 58.019531 70.683594 57.226562 69.25 C 56.894531 67.75 56.894531 66.25 57.226562 64.75 C 59.136719 61.902344 61.046875 59.070312 62.949219 56.25 C 64.394531 54.503906 65.722656 52.671875 66.929688 50.75 Z M 66.929688 50.75 "/>
<path style=" stroke:none;fill-rule:evenodd;fill:rgb(90.980392%,80.392157%,33.72549%);fill-opacity:1;" d="M 97.28125 47.75 C 96.949219 46.75 96.617188 45.75 96.285156 44.75 C 96.285156 44.25 96.285156 43.75 96.285156 43.25 C 98.347656 42.953125 99.839844 43.703125 100.765625 45.5 C 99.960938 46.742188 98.800781 47.492188 97.28125 47.75 Z M 97.28125 47.75 "/>
<path style=" stroke:none;fill-rule:evenodd;fill:rgb(6.27451%,4.313725%,2.352941%);fill-opacity:1;" d="M 81.855469 49.25 C 79.910156 49.445312 78.085938 49.109375 76.382812 48.25 C 76.21875 48.25 76.050781 48.25 75.886719 48.25 C 73.710938 47.097656 73.378906 45.511719 74.890625 43.5 C 77.183594 41.984375 79.671875 41.484375 82.355469 42 C 82.816406 42.195312 83.148438 42.527344 83.347656 43 C 82.621094 44.367188 81.457031 45.199219 79.867188 45.5 C 81.128906 45.757812 82.203125 46.339844 83.101562 47.25 C 83.554688 48.472656 83.136719 49.140625 81.855469 49.25 Z M 81.855469 49.25 "/>
<path style=" stroke:none;fill-rule:evenodd;fill:rgb(91.372549%,80%,41.568627%);fill-opacity:1;" d="M 90.8125 42.75 C 92.152344 42.667969 93.476562 42.75 94.792969 43 C 95.210938 43.503906 95.375 44.089844 95.292969 44.75 C 95.417969 45.894531 95.253906 46.980469 94.792969 48 C 93.46875 48.332031 92.140625 48.332031 90.8125 48 C 88.863281 46.230469 88.863281 44.480469 90.8125 42.75 Z M 90.8125 42.75 "/>
<path style=" stroke:none;fill-rule:evenodd;fill:rgb(88.235294%,77.254902%,37.647059%);fill-opacity:1;" d="M 95.789062 36.25 C 99.296875 35.851562 100.457031 37.265625 99.273438 40.5 C 98.125 40.75 96.960938 40.832031 95.789062 40.75 C 95.789062 39.25 95.789062 37.75 95.789062 36.25 Z M 95.789062 36.25 "/>
<path style=" stroke:none;fill-rule:evenodd;fill:rgb(85.882353%,72.54902%,35.686275%);fill-opacity:1;" d="M 94.296875 29.75 C 97.605469 29.484375 98.765625 30.902344 97.78125 34 C 96.628906 34.25 95.46875 34.332031 94.296875 34.25 C 93.863281 32.710938 93.863281 31.210938 94.296875 29.75 Z M 94.296875 29.75 "/>
<path style=" stroke:none;fill-rule:evenodd;fill:rgb(64.705882%,56.470588%,33.333333%);fill-opacity:1;" d="M 92.804688 24.75 C 93.300781 24.75 93.800781 24.75 94.296875 24.75 C 94.425781 25.488281 94.261719 26.15625 93.800781 26.75 C 92.996094 26.339844 92.664062 25.671875 92.804688 24.75 Z M 92.804688 24.75 "/>
<path style=" stroke:none;fill-rule:evenodd;fill:rgb(71.372549%,64.705882%,17.647059%);fill-opacity:1;" d="M 37.570312 45.75 C 37.570312 48.25 37.570312 50.75 37.570312 53.25 C 37.535156 53.980469 37.703125 54.644531 38.066406 55.25 C 38.019531 60.542969 40.175781 64.625 44.535156 67.5 C 46.425781 67.917969 48.25 67.753906 50.007812 67 C 51.304688 65.203125 52.382812 63.285156 53.242188 61.25 C 53.792969 60.644531 54.042969 60.808594 53.992188 61.75 C 52.355469 65.820312 52.855469 69.652344 55.484375 73.25 C 50.71875 73.800781 46.242188 72.96875 42.046875 70.75 C 37.550781 67.886719 35.226562 63.71875 35.082031 58.25 C 35.441406 58.460938 35.6875 58.792969 35.828125 59.25 C 36.675781 54.714844 37.253906 50.214844 37.570312 45.75 Z M 37.570312 45.75 "/>
<use xlink:href="#surface17" mask="url(#mask4)"/>
<path style=" stroke:none;fill-rule:evenodd;fill:rgb(53.72549%,44.705882%,13.72549%);fill-opacity:1;" d="M 70.410156 83.75 C 69.015625 84.320312 67.523438 84.402344 65.933594 84 C 64.199219 83.003906 62.539062 81.917969 60.957031 80.75 C 61.335938 80.367188 61.835938 80.117188 62.449219 80 C 65.269531 79.667969 68.089844 79.667969 70.910156 80 C 71.1875 80.363281 71.351562 80.777344 71.40625 81.25 C 71.066406 82.089844 70.734375 82.921875 70.410156 83.75 Z M 70.410156 83.75 "/>
<path style=" stroke:none;fill-rule:evenodd;fill:rgb(70.980392%,77.647059%,80%);fill-opacity:1;" d="M 44.039062 86.25 C 37.835938 86.566406 32.03125 85.234375 26.621094 82.25 C 27.242188 80.757812 26.746094 79.757812 25.128906 79.25 C 24.949219 78.316406 24.453125 77.566406 23.636719 77 C 25.828125 76.652344 27.984375 76.820312 30.105469 77.5 C 33.917969 81.828125 38.558594 84.742188 44.039062 86.25 Z M 44.039062 86.25 "/>
<path style=" stroke:none;fill-rule:evenodd;fill:rgb(96.470588%,87.058824%,52.941176%);fill-opacity:1;" d="M 81.359375 70.25 C 82.1875 71.496094 82.023438 72.578125 80.859375 73.5 C 81.15625 73.730469 81.488281 73.816406 81.855469 73.75 C 80.394531 75.71875 78.40625 76.800781 75.886719 77 C 66.414062 77.453125 56.960938 77.285156 47.523438 76.5 C 44.898438 75.933594 42.574219 74.851562 40.554688 73.25 C 41.429688 73.4375 42.257812 73.773438 43.042969 74.25 C 43.585938 73.636719 44.25 73.21875 45.035156 73 C 43.703125 72.59375 42.707031 71.84375 42.046875 70.75 C 46.242188 72.96875 50.71875 73.800781 55.484375 73.25 C 57.097656 73.382812 58.59375 73.382812 59.960938 73.25 C 60.625 73.417969 61.289062 73.582031 61.953125 73.75 C 63 74.234375 64.160156 74.402344 65.433594 74.25 C 69.136719 74.390625 72.785156 74.054688 76.382812 73.25 C 77.464844 73.207031 78.460938 72.875 79.367188 72.25 C 79.867188 70.917969 80.363281 69.582031 80.859375 68.25 C 81.324219 68.84375 81.488281 69.511719 81.359375 70.25 Z M 81.359375 70.25 "/>
<path style=" stroke:none;fill-rule:evenodd;fill:rgb(73.333333%,63.137255%,21.176471%);fill-opacity:1;" d="M 76.382812 67.75 C 77.300781 68.773438 77.964844 70.023438 78.375 71.5 C 77.761719 72.203125 77.097656 72.785156 76.382812 73.25 C 72.785156 74.054688 69.136719 74.390625 65.433594 74.25 C 64.871094 73.761719 64.371094 73.179688 63.941406 72.5 C 66.027344 72.410156 68.015625 72.160156 69.914062 71.75 C 72.84375 71.535156 75 70.203125 76.382812 67.75 Z M 76.382812 67.75 "/>
<path style=" stroke:none;fill-rule:evenodd;fill:rgb(51.372549%,43.529412%,20%);fill-opacity:1;" d="M 69.914062 71.75 C 68.015625 72.160156 66.027344 72.410156 63.941406 72.5 C 64.371094 73.179688 64.871094 73.761719 65.433594 74.25 C 64.160156 74.402344 63 74.234375 61.953125 73.75 C 62.636719 73.828125 63.300781 73.746094 63.941406 73.5 C 63.351562 72.992188 62.855469 72.40625 62.449219 71.75 C 62.78125 71.582031 63.113281 71.417969 63.445312 71.25 C 65.578125 71.6875 67.734375 71.855469 69.914062 71.75 Z M 69.914062 71.75 "/>
<path style=" stroke:none;fill-rule:evenodd;fill:rgb(93.333333%,80.784314%,41.960784%);fill-opacity:1;" d="M 59.960938 83.25 C 59.960938 83.082031 59.960938 82.917969 59.960938 82.75 C 59.792969 81.757812 60.121094 81.089844 60.957031 80.75 C 62.539062 81.917969 64.199219 83.003906 65.933594 84 C 67.523438 84.402344 69.015625 84.320312 70.410156 83.75 C 71.523438 83.386719 72.4375 82.71875 73.148438 81.75 C 73.816406 80.101562 75.058594 79.4375 76.878906 79.75 C 76.234375 83.308594 74.242188 85.726562 70.910156 87 C 66.339844 88.164062 62.691406 86.914062 59.960938 83.25 Z M 59.960938 83.25 "/>
</g>
</svg>
