<?xml version="1.0" encoding="UTF-8"?>
<svg xmlns="http://www.w3.org/2000/svg" xmlns:xlink="http://www.w3.org/1999/xlink" width="px" height="px" viewBox="0 0 111 118" version="1.1">
<defs>
<filter id="alpha" filterUnits="objectBoundingBox" x="0%" y="0%" width="100%" height="100%">
  <feColorMatrix type="matrix" in="SourceGraphic" values="0 0 0 0 1 0 0 0 0 1 0 0 0 0 1 0 0 0 1 0"/>
</filter>
<mask id="mask0">
  <g filter="url(#alpha)">
<rect x="0" y="0" width="111" height="118" style="fill:rgb(0%,0%,0%);fill-opacity:0.996078;stroke:none;"/>
  </g>
</mask>
<clipPath id="clip1">
  <rect x="0" y="0" width="111" height="118"/>
</clipPath>
<g id="surface5" clip-path="url(#clip1)">
<path style=" stroke:none;fill-rule:evenodd;fill:rgb(2.745098%,3.921569%,3.529412%);fill-opacity:1;" d="M 49.976562 10.796875 C 51.445312 11.425781 52.617188 12.429688 53.492188 13.808594 C 55.011719 16.160156 56.519531 18.503906 58.011719 20.839844 C 57.675781 21.339844 57.339844 21.84375 57.007812 22.34375 C 54.976562 20.152344 52.632812 18.308594 49.976562 16.820312 C 51.074219 14.847656 50.402344 13.507812 47.964844 12.804688 C 43.429688 10.824219 38.742188 10.320312 33.902344 11.296875 C 28.699219 12.269531 24.597656 14.945312 21.597656 19.332031 C 20.851562 20.640625 20.265625 21.980469 19.839844 23.347656 C 18.242188 26.320312 17.738281 29.5 18.332031 32.890625 C 18.636719 32.828125 18.804688 32.660156 18.835938 32.386719 C 18.949219 33.164062 19.113281 34 19.335938 34.898438 C 20.457031 34.164062 21.628906 33.746094 22.851562 33.640625 C 21.730469 34.449219 20.726562 35.371094 19.839844 36.402344 C 18.847656 36.820312 17.84375 36.90625 16.824219 36.65625 C 14.632812 38.289062 13.125 40.382812 12.304688 42.933594 C 9.464844 48.742188 8.292969 54.9375 8.789062 61.511719 C 7.800781 62.085938 7.128906 63.09375 6.78125 64.523438 C 6.109375 60.339844 6.109375 56.15625 6.78125 51.96875 C 8.074219 45.03125 11.003906 38.839844 15.570312 33.390625 C 15.820312 31.222656 15.90625 29.046875 15.820312 26.863281 C 21.730469 10.1875 33.117188 4.832031 49.976562 10.796875 Z M 49.976562 10.796875 "/>
</g>
<mask id="mask1">
  <g filter="url(#alpha)">
<rect x="0" y="0" width="111" height="118" style="fill:rgb(0%,0%,0%);fill-opacity:0.0588235;stroke:none;"/>
  </g>
</mask>
<clipPath id="clip2">
  <rect x="0" y="0" width="111" height="118"/>
</clipPath>
<g id="surface8" clip-path="url(#clip2)">
<path style=" stroke:none;fill-rule:evenodd;fill:rgb(15.686275%,20.392157%,25.098041%);fill-opacity:1;" d="M 49.976562 10.796875 C 33.117188 4.832031 21.730469 10.1875 15.820312 26.863281 C 17.402344 16.492188 23.429688 10.21875 33.902344 8.035156 C 38.488281 7.535156 43.007812 7.871094 47.464844 9.039062 C 48.511719 9.386719 49.347656 9.972656 49.976562 10.796875 Z M 49.976562 10.796875 "/>
</g>
<mask id="mask2">
  <g filter="url(#alpha)">
<rect x="0" y="0" width="111" height="118" style="fill:rgb(0%,0%,0%);fill-opacity:0.117647;stroke:none;"/>
  </g>
</mask>
<clipPath id="clip3">
  <rect x="0" y="0" width="111" height="118"/>
</clipPath>
<g id="surface11" clip-path="url(#clip3)">
<path style=" stroke:none;fill-rule:evenodd;fill:rgb(16.470589%,23.137255%,27.843139%);fill-opacity:1;" d="M 53.492188 13.808594 C 53.992188 13.765625 54.410156 13.933594 54.746094 14.3125 C 56.058594 16.460938 57.566406 18.46875 59.265625 20.335938 C 64.3125 14.804688 70.085938 13.882812 76.59375 17.574219 C 79.167969 19.953125 80.757812 22.882812 81.367188 26.363281 C 85.351562 28.296875 87.609375 31.476562 88.148438 35.902344 C 90.636719 36.203125 92.980469 36.953125 95.179688 38.160156 C 97.355469 40.929688 99.195312 43.859375 100.703125 46.949219 C 98.425781 43.988281 96.082031 41.058594 93.671875 38.160156 C 91.621094 37.128906 89.441406 36.710938 87.140625 36.90625 C 87.347656 34.917969 86.929688 33.074219 85.886719 31.382812 C 84.347656 29.511719 82.507812 28.003906 80.363281 26.863281 C 78.953125 18.761719 74.179688 15.328125 66.046875 16.570312 C 63.695312 17.335938 61.851562 18.757812 60.523438 20.839844 C 60.113281 21.304688 59.695312 21.808594 59.265625 22.34375 C 59.078125 21.621094 58.660156 21.117188 58.011719 20.839844 C 56.519531 18.503906 55.011719 16.160156 53.492188 13.808594 Z M 53.492188 13.808594 "/>
</g>
<mask id="mask3">
  <g filter="url(#alpha)">
<rect x="0" y="0" width="111" height="118" style="fill:rgb(0%,0%,0%);fill-opacity:0.996078;stroke:none;"/>
  </g>
</mask>
<clipPath id="clip4">
  <rect x="0" y="0" width="111" height="118"/>
</clipPath>
<g id="surface14" clip-path="url(#clip4)">
<path style=" stroke:none;fill-rule:evenodd;fill:rgb(5.490196%,3.921569%,1.960784%);fill-opacity:1;" d="M 47.464844 20.839844 C 49.003906 21.101562 50.511719 21.519531 51.984375 22.09375 C 54.265625 23.40625 56.613281 24.410156 59.015625 25.105469 C 58.429688 24.105469 57.761719 23.1875 57.007812 22.34375 C 57.339844 21.84375 57.675781 21.339844 58.011719 20.839844 C 58.660156 21.117188 59.078125 21.621094 59.265625 22.34375 C 59.695312 21.808594 60.113281 21.304688 60.523438 20.839844 C 61.367188 20.730469 61.867188 21.066406 62.03125 21.84375 C 61.867188 22.503906 61.699219 23.171875 61.527344 23.851562 C 61.503906 24.625 61.839844 25.125 62.53125 25.359375 C 63.261719 25.761719 64.097656 26.011719 65.042969 26.109375 C 68.21875 26.363281 71.402344 26.445312 74.585938 26.363281 C 75.882812 26.601562 76.886719 26.265625 77.597656 25.359375 C 78.136719 25.734375 78.222656 26.238281 77.851562 26.863281 C 77.148438 27.230469 76.394531 27.480469 75.589844 27.617188 C 77.074219 27.757812 78.414062 28.175781 79.609375 28.871094 C 75.941406 28.445312 72.257812 28.277344 68.558594 28.371094 C 67.050781 28.371094 65.546875 28.371094 64.039062 28.371094 C 59.265625 27.277344 54.410156 27.195312 49.472656 28.121094 C 50.015625 28.597656 50.601562 29.019531 51.230469 29.375 C 52.636719 32.3125 53.894531 35.324219 54.996094 38.414062 C 52.78125 39.234375 50.4375 39.738281 47.964844 39.917969 C 47.464844 39.917969 46.960938 39.917969 46.460938 39.917969 C 47.28125 39.429688 47.953125 38.761719 48.46875 37.910156 C 49.6875 38.066406 50.859375 37.898438 51.984375 37.410156 C 51.667969 36.949219 51.5 36.445312 51.480469 35.902344 C 51.132812 33.441406 49.960938 31.515625 47.964844 30.128906 C 42.648438 29.410156 37.289062 29.160156 31.894531 29.375 C 32.445312 28.84375 33.117188 28.425781 33.902344 28.121094 C 37.398438 27.257812 40.914062 26.503906 44.449219 25.859375 C 47.09375 26.011719 49.6875 25.84375 52.234375 25.359375 C 51.984375 23.605469 50.894531 22.6875 48.96875 22.597656 C 48.300781 22.09375 47.632812 21.589844 46.960938 21.089844 C 47.078125 20.890625 47.242188 20.804688 47.464844 20.839844 Z M 47.464844 20.839844 "/>
</g>
<mask id="mask4">
  <g filter="url(#alpha)">
<rect x="0" y="0" width="111" height="118" style="fill:rgb(0%,0%,0%);fill-opacity:0.988235;stroke:none;"/>
  </g>
</mask>
<clipPath id="clip5">
  <rect x="0" y="0" width="111" height="118"/>
</clipPath>
<g id="surface17" clip-path="url(#clip5)">
<path style=" stroke:none;fill-rule:evenodd;fill:rgb(4.705882%,3.137255%,2.745098%);fill-opacity:1;" d="M 100.703125 46.949219 C 101.011719 47.003906 101.265625 47.171875 101.457031 47.449219 C 101.578125 49.402344 101.996094 51.242188 102.710938 52.972656 C 103.261719 57.738281 103.261719 62.507812 102.710938 67.285156 C 100.871094 73.308594 97.859375 78.667969 93.671875 83.351562 C 91.933594 83.851562 90.175781 84.269531 88.398438 84.609375 C 87.519531 85.472656 86.933594 86.476562 86.640625 87.621094 C 85.5 86.113281 85.332031 84.4375 86.136719 82.601562 C 85.875 80.9375 85.371094 79.347656 84.632812 77.828125 C 85.769531 76.835938 86.4375 75.582031 86.640625 74.0625 C 87.296875 71.769531 87.632812 69.425781 87.644531 67.035156 C 88.226562 61.429688 88.3125 55.738281 87.894531 49.960938 C 87.519531 47.351562 86.265625 45.34375 84.128906 43.9375 C 84.761719 40.785156 85.011719 37.605469 84.882812 34.394531 C 84.0625 31.652344 82.304688 29.8125 79.609375 28.871094 C 78.414062 28.175781 77.074219 27.757812 75.589844 27.617188 C 76.394531 27.480469 77.148438 27.230469 77.851562 26.863281 C 78.222656 26.238281 78.136719 25.734375 77.597656 25.359375 C 77.472656 24.09375 77.050781 22.921875 76.34375 21.84375 C 71.535156 17.167969 66.765625 17.167969 62.03125 21.84375 C 61.867188 21.066406 61.367188 20.730469 60.523438 20.839844 C 61.851562 18.757812 63.695312 17.335938 66.046875 16.570312 C 74.179688 15.328125 78.953125 18.761719 80.363281 26.863281 C 82.507812 28.003906 84.347656 29.511719 85.886719 31.382812 C 86.929688 33.074219 87.347656 34.917969 87.140625 36.90625 C 89.441406 36.710938 91.621094 37.128906 93.671875 38.160156 C 96.082031 41.058594 98.425781 43.988281 100.703125 46.949219 Z M 100.703125 46.949219 "/>
</g>
<mask id="mask5">
  <g filter="url(#alpha)">
<rect x="0" y="0" width="111" height="118" style="fill:rgb(0%,0%,0%);fill-opacity:0.0588235;stroke:none;"/>
  </g>
</mask>
<clipPath id="clip6">
  <rect x="0" y="0" width="111" height="118"/>
</clipPath>
<g id="surface20" clip-path="url(#clip6)">
<path style=" stroke:none;fill-rule:evenodd;fill:rgb(15.686275%,20%,24.313726%);fill-opacity:1;" d="M 15.820312 26.863281 C 15.90625 29.046875 15.820312 31.222656 15.570312 33.390625 C 11.003906 38.839844 8.074219 45.03125 6.78125 51.96875 C 6.882812 49.023438 7.46875 46.175781 8.539062 43.433594 C 10.460938 39.585938 12.636719 35.902344 15.066406 32.386719 C 15.15625 30.449219 15.40625 28.609375 15.820312 26.863281 Z M 15.820312 26.863281 "/>
</g>
<mask id="mask6">
  <g filter="url(#alpha)">
<rect x="0" y="0" width="111" height="118" style="fill:rgb(0%,0%,0%);fill-opacity:0.988235;stroke:none;"/>
  </g>
</mask>
<clipPath id="clip7">
  <rect x="0" y="0" width="111" height="118"/>
</clipPath>
<g id="surface23" clip-path="url(#clip7)">
<path style=" stroke:none;fill-rule:evenodd;fill:rgb(5.882353%,7.450981%,7.450981%);fill-opacity:1;" d="M 8.789062 61.511719 C 8.65625 62.3125 8.824219 62.984375 9.292969 63.519531 C 9.433594 67.710938 10.355469 71.730469 12.054688 75.570312 C 13.503906 78.992188 15.761719 81.671875 18.835938 83.605469 C 20.0625 83.660156 21.066406 84.164062 21.847656 85.109375 C 22.128906 85.757812 22.628906 86.175781 23.355469 86.367188 C 23.019531 86.449219 22.683594 86.53125 22.351562 86.617188 C 21.214844 86.132812 20.042969 85.796875 18.835938 85.613281 C 18.96875 86.414062 18.800781 87.085938 18.332031 87.621094 C 18.472656 97.574219 23.492188 103.851562 33.402344 106.449219 C 39.828125 107.4375 45.855469 106.351562 51.480469 103.1875 C 52.144531 103.273438 52.730469 103.105469 53.238281 102.683594 C 53.601562 102.957031 53.851562 103.292969 53.992188 103.6875 C 53.992188 103.855469 53.992188 104.023438 53.992188 104.191406 C 52.269531 105.8125 50.261719 107.066406 47.964844 107.957031 C 34.757812 112.207031 24.460938 108.609375 17.078125 97.160156 C 15.867188 93.582031 15.195312 89.902344 15.066406 86.113281 C 10.066406 79.796875 7.304688 72.597656 6.78125 64.523438 C 7.128906 63.09375 7.800781 62.085938 8.789062 61.511719 Z M 8.789062 61.511719 "/>
</g>
<mask id="mask7">
  <g filter="url(#alpha)">
<rect x="0" y="0" width="111" height="118" style="fill:rgb(0%,0%,0%);fill-opacity:0.898039;stroke:none;"/>
  </g>
</mask>
<clipPath id="clip8">
  <rect x="0" y="0" width="111" height="118"/>
</clipPath>
<g id="surface26" clip-path="url(#clip8)">
<path style=" stroke:none;fill-rule:evenodd;fill:rgb(6.27451%,2.352941%,1.960784%);fill-opacity:1;" d="M 86.640625 74.0625 C 86.4375 75.582031 85.769531 76.835938 84.632812 77.828125 C 85.371094 79.347656 85.875 80.9375 86.136719 82.601562 C 85.332031 84.4375 85.5 86.113281 86.640625 87.621094 C 85.898438 91.125 83.808594 93.46875 80.363281 94.652344 C 78.558594 103.464844 73.285156 106.726562 64.539062 104.441406 C 63.355469 103.683594 62.183594 102.929688 61.023438 102.183594 C 60.3125 100.589844 59.476562 99.085938 58.511719 97.664062 C 59.023438 95.894531 60.195312 94.808594 62.03125 94.398438 C 58.421875 94.3125 54.90625 94.0625 51.480469 93.648438 C 60.03125 93.78125 68.570312 93.53125 77.097656 92.894531 C 78.875 92.832031 80.382812 92.246094 81.617188 91.136719 C 82.726562 90.9375 83.398438 90.269531 83.625 89.128906 C 84.15625 88.574219 84.578125 87.90625 84.882812 87.121094 C 85.179688 83.984375 84.929688 80.890625 84.128906 77.828125 C 84.222656 76.636719 84.722656 75.714844 85.636719 75.066406 C 85.972656 74.734375 86.304688 74.398438 86.640625 74.0625 Z M 86.640625 74.0625 "/>
</g>
<mask id="mask8">
  <g filter="url(#alpha)">
<rect x="0" y="0" width="111" height="118" style="fill:rgb(0%,0%,0%);fill-opacity:0.0156863;stroke:none;"/>
  </g>
</mask>
<clipPath id="clip9">
  <rect x="0" y="0" width="111" height="118"/>
</clipPath>
<g id="surface29" clip-path="url(#clip9)">
<path style=" stroke:none;fill-rule:evenodd;fill:rgb(16.078432%,24.313726%,29.411766%);fill-opacity:1;" d="M 102.710938 52.972656 C 103.050781 55.707031 103.550781 58.46875 104.21875 61.257812 C 103.808594 62.832031 103.476562 64.421875 103.214844 66.03125 C 103.242188 66.832031 103.40625 67.585938 103.71875 68.289062 C 101.992188 70.652344 100.734375 73.246094 99.949219 76.074219 C 98.453125 78.980469 96.527344 81.574219 94.175781 83.855469 C 92.355469 84.4375 90.511719 84.9375 88.648438 85.363281 C 87.75 88.664062 86.078125 91.511719 83.625 93.898438 C 82.859375 94.40625 82.023438 94.65625 81.117188 94.652344 C 79.351562 104.03125 73.828125 107.628906 64.539062 105.445312 C 63.535156 104.777344 62.53125 104.109375 61.527344 103.4375 C 61.148438 103.101562 60.980469 102.683594 61.023438 102.183594 C 62.183594 102.929688 63.355469 103.683594 64.539062 104.441406 C 73.285156 106.726562 78.558594 103.464844 80.363281 94.652344 C 83.808594 93.46875 85.898438 91.125 86.640625 87.621094 C 86.933594 86.476562 87.519531 85.472656 88.398438 84.609375 C 90.175781 84.269531 91.933594 83.851562 93.671875 83.351562 C 97.859375 78.667969 100.871094 73.308594 102.710938 67.285156 C 103.261719 62.507812 103.261719 57.738281 102.710938 52.972656 Z M 102.710938 52.972656 "/>
</g>
<mask id="mask9">
  <g filter="url(#alpha)">
<rect x="0" y="0" width="111" height="118" style="fill:rgb(0%,0%,0%);fill-opacity:0.137255;stroke:none;"/>
  </g>
</mask>
<clipPath id="clip10">
  <rect x="0" y="0" width="111" height="118"/>
</clipPath>
<g id="surface32" clip-path="url(#clip10)">
<path style=" stroke:none;fill-rule:evenodd;fill:rgb(16.470589%,23.137255%,28.235295%);fill-opacity:1;" d="M 58.511719 97.664062 C 59.476562 99.085938 60.3125 100.589844 61.023438 102.183594 C 60.199219 101.691406 59.527344 101.023438 59.015625 100.175781 C 57.46875 101.726562 55.792969 103.066406 53.992188 104.191406 C 53.992188 104.023438 53.992188 103.855469 53.992188 103.6875 C 56.238281 102.199219 57.746094 100.191406 58.511719 97.664062 Z M 58.511719 97.664062 "/>
</g>
</defs>
<g id="surface1">
<use xlink:href="#surface5" mask="url(#mask0)"/>
<use xlink:href="#surface8" mask="url(#mask1)"/>
<path style=" stroke:none;fill-rule:evenodd;fill:rgb(7.843138%,14.117648%,6.666667%);fill-opacity:1;" d="M 47.964844 12.804688 C 50.402344 13.507812 51.074219 14.847656 49.976562 16.820312 C 47.988281 16.1875 45.980469 15.601562 43.949219 15.0625 C 45.410156 14.445312 46.75 13.691406 47.964844 12.804688 Z M 47.964844 12.804688 "/>
<path style=" stroke:none;fill-rule:evenodd;fill:rgb(30.980393%,51.372552%,16.078432%);fill-opacity:1;" d="M 33.902344 11.296875 C 38.742188 10.320312 43.429688 10.824219 47.964844 12.804688 C 46.75 13.691406 45.410156 14.445312 43.949219 15.0625 C 45.980469 15.601562 47.988281 16.1875 49.976562 16.820312 C 52.632812 18.308594 54.976562 20.152344 57.007812 22.34375 C 57.761719 23.1875 58.429688 24.105469 59.015625 25.105469 C 56.613281 24.410156 54.265625 23.40625 51.984375 22.09375 C 50.511719 21.519531 49.003906 21.101562 47.464844 20.839844 C 46.394531 20.269531 45.222656 20.1875 43.949219 20.585938 C 44.511719 20.710938 45.015625 20.964844 45.453125 21.339844 C 44.121094 21.828125 42.949219 22.5 41.9375 23.347656 C 40.757812 23.179688 39.585938 22.929688 38.421875 22.597656 C 40.058594 21.855469 41.734375 21.269531 43.445312 20.839844 C 43.445312 20.335938 43.445312 19.835938 43.445312 19.332031 C 39.253906 19.007812 35.070312 18.589844 30.890625 18.078125 C 34.261719 15.890625 37.609375 13.714844 40.933594 11.550781 C 38.597656 11.296875 36.253906 11.214844 33.902344 11.296875 Z M 33.902344 11.296875 "/>
<use xlink:href="#surface11" mask="url(#mask2)"/>
<path style=" stroke:none;fill-rule:evenodd;fill:rgb(56.078434%,78.431374%,34.509805%);fill-opacity:1;" d="M 33.902344 11.296875 C 36.253906 11.214844 38.597656 11.296875 40.933594 11.550781 C 37.609375 13.714844 34.261719 15.890625 30.890625 18.078125 C 35.070312 18.589844 39.253906 19.007812 43.445312 19.332031 C 43.445312 19.835938 43.445312 20.335938 43.445312 20.839844 C 41.734375 21.269531 40.058594 21.855469 38.421875 22.597656 C 39.585938 22.929688 40.757812 23.179688 41.9375 23.347656 C 43.390625 23.460938 44.730469 23.878906 45.957031 24.605469 C 45.417969 25.03125 44.917969 25.449219 44.449219 25.859375 C 40.914062 26.503906 37.398438 27.257812 33.902344 28.121094 C 33.117188 28.425781 32.445312 28.84375 31.894531 29.375 C 33.019531 29.839844 34.863281 30.089844 37.417969 30.128906 C 34.082031 31.460938 30.902344 33.050781 27.875 34.898438 C 28.289062 35.34375 28.792969 35.511719 29.382812 35.398438 C 30.621094 35.808594 31.960938 36.0625 33.402344 36.152344 C 32.222656 36.511719 31.21875 37.097656 30.386719 37.910156 C 31.347656 39.671875 32.855469 40.339844 34.90625 39.917969 C 35.671875 40.375 36.507812 40.792969 37.417969 41.175781 C 33.835938 41.980469 30.488281 43.234375 27.375 44.941406 C 26.386719 44.820312 25.464844 44.988281 24.609375 45.441406 C 23.664062 44.445312 22.992188 43.273438 22.601562 41.925781 C 22.265625 42.261719 21.933594 42.597656 21.597656 42.933594 C 20.875 42.242188 20.035156 41.742188 19.085938 41.425781 C 18.417969 41.425781 17.746094 41.425781 17.078125 41.425781 C 16.757812 42.445312 16.171875 43.28125 15.320312 43.9375 C 14.71875 43.761719 14.71875 43.511719 15.320312 43.183594 C 14.328125 42.933594 13.324219 42.851562 12.304688 42.933594 C 13.125 40.382812 14.632812 38.289062 16.824219 36.65625 C 17.84375 36.90625 18.847656 36.820312 19.839844 36.402344 C 20.726562 35.371094 21.730469 34.449219 22.851562 33.640625 C 21.628906 33.746094 20.457031 34.164062 19.335938 34.898438 C 19.113281 34 18.949219 33.164062 18.835938 32.386719 C 19.46875 29.429688 19.804688 26.414062 19.839844 23.347656 C 20.265625 21.980469 20.851562 20.640625 21.597656 19.332031 C 24.597656 14.945312 28.699219 12.269531 33.902344 11.296875 Z M 33.902344 11.296875 "/>
<path style=" stroke:none;fill-rule:evenodd;fill:rgb(76.862746%,34.901962%,15.686275%);fill-opacity:1;" d="M 77.597656 25.359375 C 76.886719 26.265625 75.882812 26.601562 74.585938 26.363281 C 73.570312 23.925781 71.730469 22.585938 69.0625 22.34375 C 66.628906 22.976562 64.453125 23.980469 62.53125 25.359375 C 61.839844 25.125 61.503906 24.625 61.527344 23.851562 C 61.699219 23.171875 61.867188 22.503906 62.03125 21.84375 C 66.765625 17.167969 71.535156 17.167969 76.34375 21.84375 C 77.050781 22.921875 77.472656 24.09375 77.597656 25.359375 Z M 77.597656 25.359375 "/>
<use xlink:href="#surface14" mask="url(#mask3)"/>
<path style=" stroke:none;fill-rule:evenodd;fill:rgb(13.333334%,27.450982%,5.882353%);fill-opacity:1;" d="M 47.464844 20.839844 C 47.242188 20.804688 47.078125 20.890625 46.960938 21.089844 C 47.632812 21.589844 48.300781 22.09375 48.96875 22.597656 C 50.894531 22.6875 51.984375 23.605469 52.234375 25.359375 C 49.6875 25.84375 47.09375 26.011719 44.449219 25.859375 C 44.917969 25.449219 45.417969 25.03125 45.957031 24.605469 C 44.730469 23.878906 43.390625 23.460938 41.9375 23.347656 C 42.949219 22.5 44.121094 21.828125 45.453125 21.339844 C 45.015625 20.964844 44.511719 20.710938 43.949219 20.585938 C 45.222656 20.1875 46.394531 20.269531 47.464844 20.839844 Z M 47.464844 20.839844 "/>
<path style=" stroke:none;fill-rule:evenodd;fill:rgb(34.509805%,12.941177%,11.372549%);fill-opacity:1;" d="M 74.585938 26.363281 C 71.402344 26.445312 68.21875 26.363281 65.042969 26.109375 C 64.097656 26.011719 63.261719 25.761719 62.53125 25.359375 C 64.453125 23.980469 66.628906 22.976562 69.0625 22.34375 C 71.730469 22.585938 73.570312 23.925781 74.585938 26.363281 Z M 74.585938 26.363281 "/>
<path style=" stroke:none;fill-rule:evenodd;fill:rgb(72.549021%,83.92157%,54.11765%);fill-opacity:1;" d="M 19.839844 23.347656 C 19.804688 26.414062 19.46875 29.429688 18.835938 32.386719 C 18.804688 32.660156 18.636719 32.828125 18.332031 32.890625 C 17.738281 29.5 18.242188 26.320312 19.839844 23.347656 Z M 19.839844 23.347656 "/>
<path style=" stroke:none;fill-rule:evenodd;fill:rgb(54.509807%,13.725491%,7.450981%);fill-opacity:1;" d="M 64.039062 28.371094 C 60.6875 28.285156 57.335938 28.371094 53.992188 28.621094 C 53.335938 29.761719 53.335938 30.851562 53.992188 31.886719 C 54.804688 33.988281 55.308594 36.164062 55.5 38.414062 C 55.332031 38.414062 55.164062 38.414062 54.996094 38.414062 C 53.894531 35.324219 52.636719 32.3125 51.230469 29.375 C 50.601562 29.019531 50.015625 28.597656 49.472656 28.121094 C 54.410156 27.195312 59.265625 27.277344 64.039062 28.371094 Z M 64.039062 28.371094 "/>
<path style=" stroke:none;fill-rule:evenodd;fill:rgb(67.843139%,21.176471%,8.627451%);fill-opacity:1;" d="M 64.039062 28.371094 C 65.546875 28.371094 67.050781 28.371094 68.558594 28.371094 C 68.613281 28.679688 68.78125 28.929688 69.0625 29.125 C 72.890625 28.882812 76.40625 29.632812 79.609375 31.382812 C 78.25 31.421875 76.910156 31.589844 75.589844 31.886719 C 75.757812 32.890625 75.925781 33.894531 76.09375 34.898438 C 75.316406 34.738281 74.980469 34.234375 75.089844 33.390625 C 72.636719 32.3125 70.042969 31.644531 67.304688 31.382812 C 65.753906 32.011719 64.164062 32.511719 62.53125 32.890625 C 62.53125 33.390625 62.53125 33.894531 62.53125 34.394531 C 59.167969 38.230469 58.667969 42.414062 61.023438 46.949219 C 60.128906 46.335938 59.292969 46.335938 58.511719 46.949219 C 58.179688 46.949219 58.011719 47.117188 58.011719 47.449219 C 57.84375 47.449219 57.675781 47.449219 57.507812 47.449219 C 58.179688 46.28125 58.179688 45.109375 57.507812 43.9375 C 57.507812 43.433594 57.507812 42.933594 57.507812 42.429688 C 57.382812 38.449219 58.390625 34.769531 60.523438 31.382812 C 59.421875 30.746094 58.332031 30.746094 57.257812 31.382812 C 56.585938 30.324219 55.75 29.992188 54.746094 30.378906 C 54.578125 30.042969 54.410156 29.710938 54.246094 29.375 C 53.996094 30.195312 53.914062 31.03125 53.992188 31.886719 C 53.335938 30.851562 53.335938 29.761719 53.992188 28.621094 C 57.335938 28.371094 60.6875 28.285156 64.039062 28.371094 Z M 64.039062 28.371094 "/>
<path style=" stroke:none;fill-rule:evenodd;fill:rgb(59.607846%,19.215687%,10.196079%);fill-opacity:1;" d="M 68.558594 28.371094 C 72.257812 28.277344 75.941406 28.445312 79.609375 28.871094 C 82.304688 29.8125 84.0625 31.652344 84.882812 34.394531 C 85.011719 37.605469 84.761719 40.785156 84.128906 43.9375 C 83.792969 41.925781 83.460938 39.917969 83.125 37.910156 C 83.4375 34.890625 82.265625 32.714844 79.609375 31.382812 C 76.40625 29.632812 72.890625 28.882812 69.0625 29.125 C 68.78125 28.929688 68.613281 28.679688 68.558594 28.371094 Z M 68.558594 28.371094 "/>
<path style=" stroke:none;fill-rule:evenodd;fill:rgb(55.29412%,19.607843%,9.019608%);fill-opacity:1;" d="M 76.09375 34.898438 C 76.09375 35.398438 76.09375 35.902344 76.09375 36.402344 C 72.035156 32.613281 67.511719 31.941406 62.53125 34.394531 C 62.53125 33.894531 62.53125 33.390625 62.53125 32.890625 C 64.164062 32.511719 65.753906 32.011719 67.304688 31.382812 C 70.042969 31.644531 72.636719 32.3125 75.089844 33.390625 C 74.980469 34.234375 75.316406 34.738281 76.09375 34.898438 Z M 76.09375 34.898438 "/>
<path style=" stroke:none;fill-rule:evenodd;fill:rgb(30.980393%,51.372552%,15.686275%);fill-opacity:1;" d="M 31.894531 29.375 C 37.289062 29.160156 42.648438 29.410156 47.964844 30.128906 C 49.960938 31.515625 51.132812 33.441406 51.480469 35.902344 C 51.097656 36.113281 50.679688 36.28125 50.226562 36.402344 C 46.832031 35.183594 43.316406 34.679688 39.679688 34.898438 C 36.242188 35.003906 32.808594 35.171875 29.382812 35.398438 C 28.792969 35.511719 28.289062 35.34375 27.875 34.898438 C 30.902344 33.050781 34.082031 31.460938 37.417969 30.128906 C 34.863281 30.089844 33.019531 29.839844 31.894531 29.375 Z M 31.894531 29.375 "/>
<path style=" stroke:none;fill-rule:evenodd;fill:rgb(0.784314%,0%,0%);fill-opacity:1;" d="M 76.09375 36.402344 C 76.644531 36.960938 76.980469 37.628906 77.097656 38.414062 C 78.328125 47.308594 74.476562 51.410156 65.546875 50.714844 C 63.957031 49.542969 62.449219 48.289062 61.023438 46.949219 C 58.667969 42.414062 59.167969 38.230469 62.53125 34.394531 C 67.511719 31.941406 72.035156 32.613281 76.09375 36.402344 Z M 76.09375 36.402344 "/>
<path style=" stroke:none;fill-rule:evenodd;fill:rgb(89.411765%,38.039216%,14.509805%);fill-opacity:1;" d="M 57.507812 42.429688 C 57.113281 42.289062 56.777344 42.035156 56.503906 41.675781 C 53.65625 41.410156 50.808594 41.160156 47.964844 40.921875 C 50.546875 40.425781 53.226562 40.261719 56.003906 40.421875 C 56.121094 39.773438 55.953125 39.269531 55.5 38.914062 C 55.5 38.746094 55.5 38.582031 55.5 38.414062 C 55.308594 36.164062 54.804688 33.988281 53.992188 31.886719 C 53.914062 31.03125 53.996094 30.195312 54.246094 29.375 C 54.410156 29.710938 54.578125 30.042969 54.746094 30.378906 C 55.75 29.992188 56.585938 30.324219 57.257812 31.382812 C 58.332031 30.746094 59.421875 30.746094 60.523438 31.382812 C 58.390625 34.769531 57.382812 38.449219 57.507812 42.429688 Z M 57.507812 42.429688 "/>
<use xlink:href="#surface17" mask="url(#mask4)"/>
<path style=" stroke:none;fill-rule:evenodd;fill:rgb(67.058825%,80.392158%,41.176471%);fill-opacity:1;" d="M 51.480469 35.902344 C 51.5 36.445312 51.667969 36.949219 51.984375 37.410156 C 50.859375 37.898438 49.6875 38.066406 48.46875 37.910156 C 43.957031 38.578125 39.4375 39.246094 34.90625 39.917969 C 32.855469 40.339844 31.347656 39.671875 30.386719 37.910156 C 31.21875 37.097656 32.222656 36.511719 33.402344 36.152344 C 31.960938 36.0625 30.621094 35.808594 29.382812 35.398438 C 32.808594 35.171875 36.242188 35.003906 39.679688 34.898438 C 43.316406 34.679688 46.832031 35.183594 50.226562 36.402344 C 50.679688 36.28125 51.097656 36.113281 51.480469 35.902344 Z M 51.480469 35.902344 "/>
<path style=" stroke:none;fill-rule:evenodd;fill:rgb(27.843139%,11.372549%,6.666667%);fill-opacity:1;" d="M 54.996094 38.414062 C 55.164062 38.414062 55.332031 38.414062 55.5 38.414062 C 55.5 38.582031 55.5 38.746094 55.5 38.914062 C 53.210938 39.890625 50.699219 40.222656 47.964844 39.917969 C 50.4375 39.738281 52.78125 39.234375 54.996094 38.414062 Z M 54.996094 38.414062 "/>
<path style=" stroke:none;fill-rule:evenodd;fill:rgb(27.450982%,10.196079%,6.666667%);fill-opacity:1;" d="M 40.933594 40.921875 C 40.878906 41.234375 40.710938 41.484375 40.433594 41.675781 C 41.523438 42.515625 42.527344 43.4375 43.445312 44.4375 C 42.015625 43.765625 40.675781 42.925781 39.425781 41.925781 C 39.679688 41.214844 40.183594 40.878906 40.933594 40.921875 Z M 40.933594 40.921875 "/>
<use xlink:href="#surface20" mask="url(#mask5)"/>
<path style=" stroke:none;fill-rule:evenodd;fill:rgb(80.784315%,47.843137%,18.82353%);fill-opacity:1;" d="M 87.644531 39.417969 C 90.960938 38.730469 93.304688 39.902344 94.675781 42.933594 C 91.851562 43.433594 89.003906 43.597656 86.136719 43.433594 C 86.085938 41.871094 86.585938 40.53125 87.644531 39.417969 Z M 87.644531 39.417969 "/>
<path style=" stroke:none;fill-rule:evenodd;fill:rgb(50.980395%,14.117648%,5.098039%);fill-opacity:1;" d="M 55.5 38.914062 C 55.953125 39.269531 56.121094 39.773438 56.003906 40.421875 C 53.226562 40.261719 50.546875 40.425781 47.964844 40.921875 C 47.296875 41.089844 46.625 41.257812 45.957031 41.425781 C 43.777344 41.875 43.609375 42.378906 45.453125 42.933594 C 45.453125 43.601562 45.453125 44.269531 45.453125 44.941406 C 44.785156 44.773438 44.117188 44.605469 43.445312 44.4375 C 42.527344 43.4375 41.523438 42.515625 40.433594 41.675781 C 40.710938 41.484375 40.878906 41.234375 40.933594 40.921875 C 42.777344 40.589844 44.617188 40.253906 46.460938 39.917969 C 46.960938 39.917969 47.464844 39.917969 47.964844 39.917969 C 50.699219 40.222656 53.210938 39.890625 55.5 38.914062 Z M 55.5 38.914062 "/>
<path style=" stroke:none;fill-rule:evenodd;fill:rgb(85.490197%,32.156864%,9.803922%);fill-opacity:1;" d="M 79.609375 31.382812 C 82.265625 32.714844 83.4375 34.890625 83.125 37.910156 C 83.144531 39.851562 82.976562 41.773438 82.621094 43.683594 C 82.773438 45.238281 83.277344 46.664062 84.128906 47.953125 C 82.90625 48.730469 81.652344 48.898438 80.363281 48.457031 C 80.027344 48.789062 79.691406 49.125 79.359375 49.460938 C 79.019531 49.082031 78.601562 48.914062 78.101562 48.957031 C 78.417969 45.234375 78.082031 41.71875 77.097656 38.414062 C 76.980469 37.628906 76.644531 36.960938 76.09375 36.402344 C 76.09375 35.902344 76.09375 35.398438 76.09375 34.898438 C 75.925781 33.894531 75.757812 32.890625 75.589844 31.886719 C 76.910156 31.589844 78.25 31.421875 79.609375 31.382812 Z M 79.609375 31.382812 "/>
<path style=" stroke:none;fill-rule:evenodd;fill:rgb(98.823529%,49.803922%,18.82353%);fill-opacity:1;" d="M 47.964844 40.921875 C 50.808594 41.160156 53.65625 41.410156 56.503906 41.675781 C 56.777344 42.035156 57.113281 42.289062 57.507812 42.429688 C 57.507812 42.933594 57.507812 43.433594 57.507812 43.9375 C 56.914062 44.210938 56.328125 44.378906 55.75 44.4375 C 55.109375 45.878906 55.027344 47.300781 55.5 48.707031 C 54.679688 48.953125 53.84375 49.039062 52.988281 48.957031 C 52.859375 50.851562 53.027344 52.691406 53.492188 54.480469 C 52.722656 54.515625 52.222656 54.183594 51.984375 53.476562 C 52.042969 51.789062 52.210938 50.117188 52.488281 48.457031 C 52.832031 47.816406 53.25 47.816406 53.742188 48.457031 C 53.878906 47.058594 53.292969 45.972656 51.984375 45.191406 C 49.277344 44.894531 47.265625 43.636719 45.957031 41.425781 C 46.625 41.257812 47.296875 41.089844 47.964844 40.921875 Z M 47.964844 40.921875 "/>
<path style=" stroke:none;fill-rule:evenodd;fill:rgb(56.862748%,78.823531%,34.117648%);fill-opacity:1;" d="M 27.375 44.941406 C 29.046875 44.941406 30.722656 44.941406 32.394531 44.941406 C 31.605469 45.332031 30.933594 45.917969 30.386719 46.699219 C 30.683594 46.929688 31.019531 47.015625 31.390625 46.949219 C 31.757812 47.558594 32.261719 48.058594 32.898438 48.457031 C 31.933594 48.859375 30.925781 49.113281 29.882812 49.207031 C 31.09375 50.066406 32.433594 50.484375 33.902344 50.464844 C 33.257812 51.523438 32.253906 52.027344 30.890625 51.96875 C 27.417969 51.523438 26.917969 52.109375 29.382812 53.726562 C 33.535156 54.132812 37.636719 54.71875 41.6875 55.484375 C 41.878906 55.207031 42.132812 55.039062 42.441406 54.984375 C 44.183594 55.289062 44.683594 56.210938 43.949219 57.746094 C 40.261719 57.929688 36.578125 57.847656 32.898438 57.492188 C 31.171875 57.636719 29.496094 57.972656 27.875 58.496094 C 24.507812 59.429688 21.492188 61.019531 18.835938 63.269531 C 23.652344 63.898438 28.507812 64.234375 33.402344 64.273438 C 34.476562 64.558594 35.480469 64.976562 36.414062 65.527344 C 36.582031 65.863281 36.75 66.195312 36.917969 66.53125 C 34.566406 67.230469 32.222656 67.984375 29.882812 68.792969 C 32.363281 69.234375 34.792969 69.820312 37.167969 70.550781 C 37.476562 71.027344 37.394531 71.445312 36.917969 71.804688 C 35.578125 72.472656 34.238281 73.144531 32.898438 73.8125 C 33.414062 74.070312 33.917969 74.320312 34.40625 74.566406 C 34.90625 74.566406 35.410156 74.566406 35.910156 74.566406 C 37.25 74.871094 38.589844 75.289062 39.929688 75.820312 C 39.207031 75.929688 38.539062 76.183594 37.921875 76.574219 C 38.027344 76.867188 38.191406 77.121094 38.421875 77.328125 C 37.148438 77.421875 35.976562 77.671875 34.90625 78.082031 C 33.902344 78.082031 32.898438 78.082031 31.894531 78.082031 C 30.898438 77.832031 29.894531 77.582031 28.878906 77.328125 C 29.382812 77.160156 29.882812 76.992188 30.386719 76.824219 C 27.375 76.503906 24.609375 75.917969 22.097656 75.066406 C 21.789062 75.878906 21.289062 76.550781 20.59375 77.078125 C 19.863281 76.515625 19.195312 76.015625 18.582031 75.570312 C 18.59375 77.347656 19.515625 78.519531 21.347656 79.085938 C 21.164062 79.429688 20.996094 79.761719 20.84375 80.089844 C 15.804688 77.054688 13.042969 72.535156 12.554688 66.53125 C 11.351562 59.269531 11.605469 52.070312 13.308594 44.941406 C 13.339844 43.824219 13.007812 43.65625 12.304688 44.4375 C 12.304688 43.9375 12.304688 43.433594 12.304688 42.933594 C 13.324219 42.851562 14.328125 42.933594 15.320312 43.183594 C 14.71875 43.511719 14.71875 43.761719 15.320312 43.9375 C 16.171875 43.28125 16.757812 42.445312 17.078125 41.425781 C 17.746094 41.425781 18.417969 41.425781 19.085938 41.425781 C 20.035156 41.742188 20.875 42.242188 21.597656 42.933594 C 21.933594 42.597656 22.265625 42.261719 22.601562 41.925781 C 22.992188 43.273438 23.664062 44.445312 24.609375 45.441406 C 25.464844 44.988281 26.386719 44.820312 27.375 44.941406 Z M 27.375 44.941406 "/>
<path style=" stroke:none;fill-rule:evenodd;fill:rgb(85.09804%,32.549021%,9.411765%);fill-opacity:1;" d="M 45.957031 41.425781 C 47.265625 43.636719 49.277344 44.894531 51.984375 45.191406 C 53.292969 45.972656 53.878906 47.058594 53.742188 48.457031 C 53.25 47.816406 52.832031 47.816406 52.488281 48.457031 C 51.753906 47.972656 51.082031 47.386719 50.476562 46.699219 C 48.910156 45.832031 47.234375 45.246094 45.453125 44.941406 C 45.453125 44.269531 45.453125 43.601562 45.453125 42.933594 C 43.609375 42.378906 43.777344 41.875 45.957031 41.425781 Z M 45.957031 41.425781 "/>
<path style=" stroke:none;fill-rule:evenodd;fill:rgb(32.156864%,50.196081%,15.294118%);fill-opacity:1;" d="M 32.394531 44.941406 C 35.644531 44.832031 38.828125 45.25 41.9375 46.195312 C 43.851562 46.734375 45.527344 47.652344 46.960938 48.957031 C 46.960938 49.792969 46.960938 50.632812 46.960938 51.46875 C 46.460938 51.46875 45.957031 51.46875 45.453125 51.46875 C 43.804688 51.113281 42.128906 50.945312 40.433594 50.964844 C 40.433594 50.796875 40.433594 50.632812 40.433594 50.464844 C 42.273438 50.464844 44.117188 50.464844 45.957031 50.464844 C 45.957031 49.960938 45.957031 49.460938 45.957031 48.957031 C 43.90625 49.027344 42.0625 48.441406 40.433594 47.199219 C 37.421875 46.949219 34.410156 46.867188 31.390625 46.949219 C 31.019531 47.015625 30.683594 46.929688 30.386719 46.699219 C 30.933594 45.917969 31.605469 45.332031 32.394531 44.941406 Z M 32.394531 44.941406 "/>
<path style=" stroke:none;fill-rule:evenodd;fill:rgb(78.431374%,63.921571%,35.294119%);fill-opacity:1;" d="M 88.648438 45.945312 C 92 45.28125 93.339844 46.617188 92.667969 49.960938 C 91.648438 50.042969 90.644531 49.960938 89.652344 49.710938 C 89.222656 48.488281 88.890625 47.230469 88.648438 45.945312 Z M 88.648438 45.945312 "/>
<path style=" stroke:none;fill-rule:evenodd;fill:rgb(80.000001%,65.882355%,39.607844%);fill-opacity:1;" d="M 93.671875 45.945312 C 95.0625 45.90625 96.402344 46.15625 97.691406 46.699219 C 98.558594 47.597656 98.894531 48.683594 98.695312 49.960938 C 97.355469 49.960938 96.015625 49.960938 94.675781 49.960938 C 94.445312 48.59375 94.109375 47.257812 93.671875 45.945312 Z M 93.671875 45.945312 "/>
<path style=" stroke:none;fill-rule:evenodd;fill:rgb(43.921569%,64.705884%,21.568628%);fill-opacity:1;" d="M 31.390625 46.949219 C 34.410156 46.867188 37.421875 46.949219 40.433594 47.199219 C 42.0625 48.441406 43.90625 49.027344 45.957031 48.957031 C 45.957031 49.460938 45.957031 49.960938 45.957031 50.464844 C 44.117188 50.464844 42.273438 50.464844 40.433594 50.464844 C 38.253906 50.464844 36.078125 50.464844 33.902344 50.464844 C 32.433594 50.484375 31.09375 50.066406 29.882812 49.207031 C 30.925781 49.113281 31.933594 48.859375 32.898438 48.457031 C 32.261719 48.058594 31.757812 47.558594 31.390625 46.949219 Z M 31.390625 46.949219 "/>
<path style=" stroke:none;fill-rule:evenodd;fill:rgb(96.078432%,67.843139%,38.431373%);fill-opacity:1;" d="M 58.511719 46.949219 C 60.449219 47.480469 60.949219 48.652344 60.019531 50.464844 C 58.375 50.152344 57.707031 49.148438 58.011719 47.449219 C 58.011719 47.117188 58.179688 46.949219 58.511719 46.949219 Z M 58.511719 46.949219 "/>
<path style=" stroke:none;fill-rule:evenodd;fill:rgb(12.54902%,21.960784%,7.058824%);fill-opacity:1;" d="M 33.902344 50.464844 C 36.078125 50.464844 38.253906 50.464844 40.433594 50.464844 C 40.433594 50.632812 40.433594 50.796875 40.433594 50.964844 C 38.917969 50.882812 37.410156 50.96875 35.910156 51.21875 C 34.714844 51.328125 33.878906 51.914062 33.402344 52.972656 C 32.382812 53.054688 31.378906 52.972656 30.386719 52.722656 C 30.667969 52.53125 30.832031 52.28125 30.890625 51.96875 C 32.253906 52.027344 33.257812 51.523438 33.902344 50.464844 Z M 33.902344 50.464844 "/>
<path style=" stroke:none;fill-rule:evenodd;fill:rgb(30.980393%,36.078432%,16.470589%);fill-opacity:1;" d="M 46.960938 48.957031 C 50.722656 52.886719 50.222656 53.722656 45.453125 51.46875 C 45.957031 51.46875 46.460938 51.46875 46.960938 51.46875 C 46.960938 50.632812 46.960938 49.792969 46.960938 48.957031 Z M 46.960938 48.957031 "/>
<path style=" stroke:none;fill-rule:evenodd;fill:rgb(62.7451%,21.176471%,5.882353%);fill-opacity:1;" d="M 45.453125 44.941406 C 47.234375 45.246094 48.910156 45.832031 50.476562 46.699219 C 51.082031 47.386719 51.753906 47.972656 52.488281 48.457031 C 52.210938 50.117188 52.042969 51.789062 51.984375 53.476562 C 51.699219 54.441406 51.199219 55.277344 50.476562 55.988281 C 50.953125 54.230469 50.953125 52.558594 50.476562 50.964844 C 49.738281 48.214844 48.066406 46.207031 45.453125 44.941406 Z M 45.453125 44.941406 "/>
<path style=" stroke:none;fill-rule:evenodd;fill:rgb(21.960784%,6.666667%,4.313726%);fill-opacity:1;" d="M 57.507812 47.449219 C 57.675781 47.449219 57.84375 47.449219 58.011719 47.449219 C 57.707031 49.148438 58.375 50.152344 60.019531 50.464844 C 60.523438 50.464844 61.023438 50.464844 61.527344 50.464844 C 61.253906 52.046875 61.757812 53.300781 63.035156 54.230469 C 61.210938 54.492188 59.703125 53.90625 58.511719 52.472656 C 57.082031 51.003906 56.746094 49.328125 57.507812 47.449219 Z M 57.507812 47.449219 "/>
<path style=" stroke:none;fill-rule:evenodd;fill:rgb(99.215686%,57.647061%,24.705882%);fill-opacity:1;" d="M 57.507812 43.9375 C 58.179688 45.109375 58.179688 46.28125 57.507812 47.449219 C 56.746094 49.328125 57.082031 51.003906 58.511719 52.472656 C 57.785156 52.789062 57.453125 53.375 57.507812 54.230469 C 57.523438 54.765625 57.691406 55.183594 58.011719 55.484375 C 56.5 55.738281 54.992188 55.402344 53.492188 54.480469 C 53.027344 52.691406 52.859375 50.851562 52.988281 48.957031 C 53.84375 49.039062 54.679688 48.953125 55.5 48.707031 C 55.027344 47.300781 55.109375 45.878906 55.75 44.4375 C 56.328125 44.378906 56.914062 44.210938 57.507812 43.9375 Z M 57.507812 43.9375 "/>
<path style=" stroke:none;fill-rule:evenodd;fill:rgb(71.372551%,26.274511%,7.843138%);fill-opacity:1;" d="M 77.097656 38.414062 C 78.082031 41.71875 78.417969 45.234375 78.101562 48.957031 C 74.621094 52.285156 70.433594 54.125 65.546875 54.480469 C 65.621094 55.007812 65.535156 55.511719 65.292969 55.988281 C 63.191406 54.539062 61.265625 54.707031 59.519531 56.488281 C 58.894531 56.265625 58.394531 55.933594 58.011719 55.484375 C 57.691406 55.183594 57.523438 54.765625 57.507812 54.230469 C 57.453125 53.375 57.785156 52.789062 58.511719 52.472656 C 59.703125 53.90625 61.210938 54.492188 63.035156 54.230469 C 61.757812 53.300781 61.253906 52.046875 61.527344 50.464844 C 61.023438 50.464844 60.523438 50.464844 60.019531 50.464844 C 60.949219 48.652344 60.449219 47.480469 58.511719 46.949219 C 59.292969 46.335938 60.128906 46.335938 61.023438 46.949219 C 62.449219 48.289062 63.957031 49.542969 65.546875 50.714844 C 74.476562 51.410156 78.328125 47.308594 77.097656 38.414062 Z M 77.097656 38.414062 "/>
<path style=" stroke:none;fill-rule:evenodd;fill:rgb(69.411767%,25.882354%,8.627451%);fill-opacity:1;" d="M 83.125 37.910156 C 83.460938 39.917969 83.792969 41.925781 84.128906 43.9375 C 86.265625 45.34375 87.519531 47.351562 87.894531 49.960938 C 88.3125 55.738281 88.226562 61.429688 87.644531 67.035156 C 88.085938 61.398438 87.25 56.039062 85.132812 50.964844 C 85.082031 49.859375 84.746094 48.855469 84.128906 47.953125 C 83.277344 46.664062 82.773438 45.238281 82.621094 43.683594 C 82.976562 41.773438 83.144531 39.851562 83.125 37.910156 Z M 83.125 37.910156 "/>
<path style=" stroke:none;fill-rule:evenodd;fill:rgb(69.01961%,60.392159%,34.117648%);fill-opacity:1;" d="M 95.179688 51.96875 C 97.066406 51.753906 98.824219 52.089844 100.453125 52.972656 C 100.902344 54.242188 100.652344 55.332031 99.699219 56.238281 C 98.203125 56.488281 96.695312 56.570312 95.179688 56.488281 C 95.179688 54.984375 95.179688 53.476562 95.179688 51.96875 Z M 95.179688 51.96875 "/>
<path style=" stroke:none;fill-rule:evenodd;fill:rgb(88.627452%,73.725492%,34.901962%);fill-opacity:1;" d="M 95.679688 52.472656 C 98.191406 52.304688 99.363281 53.476562 99.195312 55.988281 C 98.023438 55.988281 96.851562 55.988281 95.679688 55.988281 C 95.679688 54.816406 95.679688 53.644531 95.679688 52.472656 Z M 95.679688 52.472656 "/>
<path style=" stroke:none;fill-rule:evenodd;fill:rgb(30.588236%,51.372552%,18.039216%);fill-opacity:1;" d="M 30.890625 51.96875 C 30.832031 52.28125 30.667969 52.53125 30.386719 52.722656 C 31.378906 52.972656 32.382812 53.054688 33.402344 52.972656 C 36.566406 53.21875 39.582031 53.890625 42.441406 54.984375 C 42.132812 55.039062 41.878906 55.207031 41.6875 55.484375 C 37.636719 54.71875 33.535156 54.132812 29.382812 53.726562 C 26.917969 52.109375 27.417969 51.523438 30.890625 51.96875 Z M 30.890625 51.96875 "/>
<path style=" stroke:none;fill-rule:evenodd;fill:rgb(69.01961%,58.823532%,34.509805%);fill-opacity:1;" d="M 93.671875 55.484375 C 93.1875 54.597656 93.023438 53.59375 93.167969 52.472656 C 92.425781 52.339844 91.757812 52.507812 91.160156 52.972656 C 90.863281 53.917969 90.527344 54.839844 90.15625 55.734375 C 91.316406 55.984375 92.488281 56.070312 93.671875 55.988281 C 92.441406 56.476562 91.101562 56.644531 89.652344 56.488281 C 89.570312 55.140625 89.65625 53.800781 89.90625 52.472656 C 91.101562 52.003906 92.355469 51.835938 93.671875 51.96875 C 93.671875 53.140625 93.671875 54.3125 93.671875 55.484375 Z M 93.671875 55.484375 "/>
<path style=" stroke:none;fill-rule:evenodd;fill:rgb(90.588236%,76.862746%,42.745098%);fill-opacity:1;" d="M 93.671875 55.484375 C 93.671875 55.652344 93.671875 55.820312 93.671875 55.988281 C 92.488281 56.070312 91.316406 55.984375 90.15625 55.734375 C 90.527344 54.839844 90.863281 53.917969 91.160156 52.972656 C 91.757812 52.507812 92.425781 52.339844 93.167969 52.472656 C 93.023438 53.59375 93.1875 54.597656 93.671875 55.484375 Z M 93.671875 55.484375 "/>
<path style=" stroke:none;fill-rule:evenodd;fill:rgb(7.058824%,6.27451%,3.921569%);fill-opacity:1;" d="M 48.46875 37.910156 C 47.953125 38.761719 47.28125 39.429688 46.460938 39.917969 C 44.617188 40.253906 42.777344 40.589844 40.933594 40.921875 C 40.183594 40.878906 39.679688 41.214844 39.425781 41.925781 C 40.675781 42.925781 42.015625 43.765625 43.445312 44.4375 C 44.117188 44.605469 44.785156 44.773438 45.453125 44.941406 C 48.066406 46.207031 49.738281 48.214844 50.476562 50.964844 C 50.441406 52.324219 50.273438 53.664062 49.976562 54.984375 C 48.613281 54.859375 47.273438 54.773438 45.957031 54.730469 C 46.46875 54.992188 46.800781 55.410156 46.960938 55.988281 C 46.789062 56.664062 46.621094 57.335938 46.460938 57.996094 C 44.875 59.710938 42.863281 60.464844 40.433594 60.253906 C 40.890625 60.394531 41.226562 60.644531 41.4375 61.007812 C 41.269531 61.007812 41.101562 61.007812 40.933594 61.007812 C 38.023438 60.574219 35.175781 59.90625 32.394531 59 C 32.425781 58.441406 32.59375 57.941406 32.898438 57.492188 C 36.578125 57.847656 40.261719 57.929688 43.949219 57.746094 C 44.683594 56.210938 44.183594 55.289062 42.441406 54.984375 C 39.582031 53.890625 36.566406 53.21875 33.402344 52.972656 C 33.878906 51.914062 34.714844 51.328125 35.910156 51.21875 C 37.410156 50.96875 38.917969 50.882812 40.433594 50.964844 C 42.128906 50.945312 43.804688 51.113281 45.453125 51.46875 C 50.222656 53.722656 50.722656 52.886719 46.960938 48.957031 C 45.527344 47.652344 43.851562 46.734375 41.9375 46.195312 C 38.828125 45.25 35.644531 44.832031 32.394531 44.941406 C 30.722656 44.941406 29.046875 44.941406 27.375 44.941406 C 30.488281 43.234375 33.835938 41.980469 37.417969 41.175781 C 36.507812 40.792969 35.671875 40.375 34.90625 39.917969 C 39.4375 39.246094 43.957031 38.578125 48.46875 37.910156 Z M 48.46875 37.910156 "/>
<path style=" stroke:none;fill-rule:evenodd;fill:rgb(48.235294%,20%,9.411765%);fill-opacity:1;" d="M 50.476562 50.964844 C 50.953125 52.558594 50.953125 54.230469 50.476562 55.988281 C 49.742188 56.609375 48.90625 57.109375 47.964844 57.492188 C 47.753906 59.015625 47.753906 60.523438 47.964844 62.011719 C 47.152344 61.742188 46.316406 61.574219 45.453125 61.511719 C 44.871094 60.65625 45.207031 60.320312 46.460938 60.507812 C 46.460938 59.667969 46.460938 58.832031 46.460938 57.996094 C 46.621094 57.335938 46.789062 56.664062 46.960938 55.988281 C 46.800781 55.410156 46.46875 54.992188 45.957031 54.730469 C 47.273438 54.773438 48.613281 54.859375 49.976562 54.984375 C 50.273438 53.664062 50.441406 52.324219 50.476562 50.964844 Z M 50.476562 50.964844 "/>
<path style=" stroke:none;fill-rule:evenodd;fill:rgb(5.098039%,1.176471%,0.784314%);fill-opacity:1;" d="M 82.621094 65.527344 C 78.503906 66.109375 75.070312 64.769531 72.324219 61.511719 C 72.003906 60.625 72.089844 59.789062 72.578125 59 C 74.589844 57.488281 76.769531 56.234375 79.105469 55.234375 C 81.183594 54.683594 82.691406 55.351562 83.625 57.242188 C 83.332031 58.707031 82.496094 59.710938 81.117188 60.253906 C 83.105469 61.585938 83.609375 63.34375 82.621094 65.527344 Z M 82.621094 65.527344 "/>
<path style=" stroke:none;fill-rule:evenodd;fill:rgb(97.647059%,43.921569%,11.372549%);fill-opacity:1;" d="M 84.128906 47.953125 C 84.746094 48.855469 85.082031 49.859375 85.132812 50.964844 C 81.316406 48.625 79.644531 49.796875 80.109375 54.480469 C 78.914062 54.507812 77.742188 54.339844 76.59375 53.980469 C 75.8125 54.503906 74.976562 54.839844 74.082031 54.984375 C 74.050781 53.226562 73.382812 52.976562 72.074219 54.230469 C 72.78125 54.414062 73.285156 54.832031 73.582031 55.484375 C 72.855469 56.546875 72.519531 57.71875 72.578125 59 C 69.28125 59.914062 65.933594 60.667969 62.53125 61.257812 C 61.980469 61.644531 61.980469 62.066406 62.53125 62.515625 C 57.566406 62.089844 52.796875 60.917969 48.21875 59 C 47.976562 58.523438 47.890625 58.023438 47.964844 57.492188 C 48.90625 57.109375 49.742188 56.609375 50.476562 55.988281 C 51.199219 55.277344 51.699219 54.441406 51.984375 53.476562 C 52.222656 54.183594 52.722656 54.515625 53.492188 54.480469 C 54.992188 55.402344 56.5 55.738281 58.011719 55.484375 C 58.394531 55.933594 58.894531 56.265625 59.519531 56.488281 C 61.265625 54.707031 63.191406 54.539062 65.292969 55.988281 C 65.535156 55.511719 65.621094 55.007812 65.546875 54.480469 C 70.433594 54.125 74.621094 52.285156 78.101562 48.957031 C 78.601562 48.914062 79.019531 49.082031 79.359375 49.460938 C 79.691406 49.125 80.027344 48.789062 80.363281 48.457031 C 81.652344 48.898438 82.90625 48.730469 84.128906 47.953125 Z M 84.128906 47.953125 "/>
<path style=" stroke:none;fill-rule:evenodd;fill:rgb(6.666667%,23.921569%,8.627451%);fill-opacity:1;" d="M 32.898438 57.492188 C 32.59375 57.941406 32.425781 58.441406 32.394531 59 C 30.78125 59.15625 29.273438 58.988281 27.875 58.496094 C 29.496094 57.972656 31.171875 57.636719 32.898438 57.492188 Z M 32.898438 57.492188 "/>
<path style=" stroke:none;fill-rule:evenodd;fill:rgb(32.156864%,13.725491%,10.980392%);fill-opacity:1;" d="M 46.460938 57.996094 C 46.460938 58.832031 46.460938 59.667969 46.460938 60.507812 C 45.207031 60.320312 44.871094 60.65625 45.453125 61.511719 C 44.316406 61.148438 43.144531 60.980469 41.9375 61.007812 C 41.773438 61.007812 41.605469 61.007812 41.4375 61.007812 C 41.226562 60.644531 40.890625 60.394531 40.433594 60.253906 C 42.863281 60.464844 44.875 59.710938 46.460938 57.996094 Z M 46.460938 57.996094 "/>
<path style=" stroke:none;fill-rule:evenodd;fill:rgb(98.431373%,56.470591%,25.098041%);fill-opacity:1;" d="M 72.578125 59 C 72.089844 59.789062 72.003906 60.625 72.324219 61.511719 C 75.070312 64.769531 78.503906 66.109375 82.621094 65.527344 C 82.566406 65.835938 82.398438 66.089844 82.121094 66.28125 C 81.117188 66.449219 80.109375 66.617188 79.105469 66.78125 C 80.375 67.800781 81.714844 68.722656 83.125 69.542969 C 82.800781 70.164062 82.71875 70.832031 82.875 71.554688 C 81.164062 69.332031 78.90625 67.992188 76.09375 67.535156 C 75.089844 67.035156 74.082031 66.53125 73.078125 66.03125 C 71.40625 66.03125 69.730469 66.03125 68.054688 66.03125 C 67.21875 66.03125 66.382812 66.03125 65.546875 66.03125 C 64.554688 64.871094 63.550781 63.699219 62.53125 62.515625 C 61.980469 62.066406 61.980469 61.644531 62.53125 61.257812 C 65.933594 60.667969 69.28125 59.914062 72.578125 59 Z M 72.578125 59 "/>
<path style=" stroke:none;fill-rule:evenodd;fill:rgb(89.411765%,79.607844%,51.372552%);fill-opacity:1;" d="M 99.699219 59 C 100.199219 58.957031 100.617188 59.125 100.953125 59.503906 C 101.429688 60.933594 101.179688 62.1875 100.203125 63.269531 C 98.703125 63.519531 97.195312 63.601562 95.679688 63.519531 C 95.679688 62.011719 95.679688 60.507812 95.679688 59 C 97.019531 59 98.359375 59 99.699219 59 Z M 99.699219 59 "/>
<path style=" stroke:none;fill-rule:evenodd;fill:rgb(63.921571%,21.960784%,9.803922%);fill-opacity:1;" d="M 47.964844 57.492188 C 47.890625 58.023438 47.976562 58.523438 48.21875 59 C 52.796875 60.917969 57.566406 62.089844 62.53125 62.515625 C 63.550781 63.699219 64.554688 64.871094 65.546875 66.03125 C 65.148438 66.480469 64.644531 66.816406 64.039062 67.035156 C 63.113281 66.527344 62.445312 65.773438 62.03125 64.773438 C 57.363281 63.691406 52.675781 62.769531 47.964844 62.011719 C 47.753906 60.523438 47.753906 59.015625 47.964844 57.492188 Z M 47.964844 57.492188 "/>
<path style=" stroke:none;fill-rule:evenodd;fill:rgb(94.509804%,85.490197%,58.431375%);fill-opacity:1;" d="M 90.15625 59 C 91.328125 59 92.5 59 93.671875 59 C 93.671875 60.507812 93.671875 62.011719 93.671875 63.519531 C 92.5 63.519531 91.328125 63.519531 90.15625 63.519531 C 90.15625 62.011719 90.15625 60.507812 90.15625 59 Z M 90.15625 59 "/>
<path style=" stroke:none;fill-rule:evenodd;fill:rgb(58.039218%,52.941179%,38.431373%);fill-opacity:1;" d="M 99.699219 59 C 98.359375 59 97.019531 59 95.679688 59 C 95.679688 60.507812 95.679688 62.011719 95.679688 63.519531 C 95.1875 61.949219 95.023438 60.277344 95.179688 58.496094 C 96.792969 58.34375 98.300781 58.507812 99.699219 59 Z M 99.699219 59 "/>
<path style=" stroke:none;fill-rule:evenodd;fill:rgb(55.29412%,72.941178%,36.862746%);fill-opacity:1;" d="M 12.304688 42.933594 C 12.304688 43.433594 12.304688 43.9375 12.304688 44.4375 C 10.3125 50.707031 9.308594 57.066406 9.292969 63.519531 C 8.824219 62.984375 8.65625 62.3125 8.789062 61.511719 C 8.292969 54.9375 9.464844 48.742188 12.304688 42.933594 Z M 12.304688 42.933594 "/>
<path style=" stroke:none;fill-rule:evenodd;fill:rgb(29.803923%,52.549022%,16.470589%);fill-opacity:1;" d="M 27.875 58.496094 C 29.273438 58.988281 30.78125 59.15625 32.394531 59 C 35.175781 59.90625 38.023438 60.574219 40.933594 61.007812 C 40.933594 62.011719 40.933594 63.015625 40.933594 64.019531 C 42.152344 64.03125 43.324219 64.285156 44.449219 64.773438 C 41.769531 65.058594 39.089844 65.308594 36.414062 65.527344 C 35.480469 64.976562 34.476562 64.558594 33.402344 64.273438 C 28.507812 64.234375 23.652344 63.898438 18.835938 63.269531 C 21.492188 61.019531 24.507812 59.429688 27.875 58.496094 Z M 27.875 58.496094 "/>
<path style=" stroke:none;fill-rule:evenodd;fill:rgb(96.862745%,47.450981%,16.862746%);fill-opacity:1;" d="M 85.132812 50.964844 C 87.25 56.039062 88.085938 61.398438 87.644531 67.035156 C 87.632812 69.425781 87.296875 71.769531 86.640625 74.0625 C 86.304688 74.398438 85.972656 74.734375 85.636719 75.066406 C 85.089844 75.046875 84.589844 74.878906 84.128906 74.566406 C 83.726562 75.359375 83.476562 76.195312 83.375 77.078125 C 82.976562 75.585938 82.640625 74.078125 82.371094 72.558594 C 82.117188 76.09375 82.117188 79.605469 82.371094 83.101562 C 81.355469 82.671875 80.605469 82.003906 80.109375 81.09375 C 79.75 80.882812 79.496094 80.550781 79.359375 80.089844 C 78.804688 83.476562 77.214844 86.238281 74.585938 88.375 C 73.96875 88.65625 73.46875 88.488281 73.078125 87.871094 C 74.707031 87.332031 75.710938 86.246094 76.09375 84.609375 C 77.707031 80.726562 77.371094 77.042969 75.089844 73.5625 C 75.339844 72.453125 75.84375 71.785156 76.59375 71.554688 C 77.3125 70.148438 77.144531 68.808594 76.09375 67.535156 C 78.90625 67.992188 81.164062 69.332031 82.875 71.554688 C 82.71875 70.832031 82.800781 70.164062 83.125 69.542969 C 81.714844 68.722656 80.375 67.800781 79.105469 66.78125 C 80.109375 66.617188 81.117188 66.449219 82.121094 66.28125 C 82.398438 66.089844 82.566406 65.835938 82.621094 65.527344 C 83.609375 63.34375 83.105469 61.585938 81.117188 60.253906 C 82.496094 59.710938 83.332031 58.707031 83.625 57.242188 C 82.691406 55.351562 81.183594 54.683594 79.105469 55.234375 C 76.769531 56.234375 74.589844 57.488281 72.578125 59 C 72.519531 57.71875 72.855469 56.546875 73.582031 55.484375 C 73.285156 54.832031 72.78125 54.414062 72.074219 54.230469 C 73.382812 52.976562 74.050781 53.226562 74.082031 54.984375 C 74.976562 54.839844 75.8125 54.503906 76.59375 53.980469 C 77.742188 54.339844 78.914062 54.507812 80.109375 54.480469 C 79.644531 49.796875 81.316406 48.625 85.132812 50.964844 Z M 85.132812 50.964844 "/>
<path style=" stroke:none;fill-rule:evenodd;fill:rgb(34.509805%,53.333336%,9.803922%);fill-opacity:1;" d="M 52.988281 67.535156 C 51.929688 68.023438 50.757812 68.191406 49.472656 68.039062 C 47.855469 68.1875 46.347656 67.851562 44.953125 67.035156 C 44.28125 66.53125 44.28125 66.03125 44.953125 65.527344 C 47.027344 65.917969 49.121094 66.25 51.230469 66.53125 C 51.847656 66.460938 52.433594 66.292969 52.988281 66.03125 C 53.523438 66.496094 53.523438 66.996094 52.988281 67.535156 Z M 52.988281 67.535156 "/>
<path style=" stroke:none;fill-rule:evenodd;fill:rgb(59.607846%,18.431373%,9.803922%);fill-opacity:1;" d="M 68.054688 66.03125 C 69.730469 66.03125 71.40625 66.03125 73.078125 66.03125 C 73.078125 66.363281 72.910156 66.53125 72.578125 66.53125 C 71.328125 66.429688 70.15625 66.679688 69.0625 67.285156 C 69.339844 67.476562 69.507812 67.726562 69.5625 68.039062 C 68.40625 67.757812 67.234375 67.507812 66.046875 67.285156 C 66.835938 66.980469 67.503906 66.5625 68.054688 66.03125 Z M 68.054688 66.03125 "/>
<path style=" stroke:none;fill-rule:evenodd;fill:rgb(89.411765%,78.039217%,55.686277%);fill-opacity:1;" d="M 89.652344 66.03125 C 90.992188 66.03125 92.332031 66.03125 93.671875 66.03125 C 93.671875 67.367188 93.671875 68.707031 93.671875 70.046875 C 92.332031 70.046875 90.992188 70.046875 89.652344 70.046875 C 89.652344 68.707031 89.652344 67.367188 89.652344 66.03125 Z M 89.652344 66.03125 "/>
<path style=" stroke:none;fill-rule:evenodd;fill:rgb(27.843139%,45.09804%,10.980392%);fill-opacity:1;" d="M 40.933594 61.007812 C 41.101562 61.007812 41.269531 61.007812 41.4375 61.007812 C 41.605469 61.007812 41.773438 61.007812 41.9375 61.007812 C 42.644531 61.726562 43.480469 62.3125 44.449219 62.765625 C 47.753906 63.742188 51.101562 64.496094 54.496094 65.027344 C 54.496094 65.695312 54.496094 66.363281 54.496094 67.035156 C 54.046875 67.339844 53.546875 67.507812 52.988281 67.535156 C 53.523438 66.996094 53.523438 66.496094 52.988281 66.03125 C 52.433594 66.292969 51.847656 66.460938 51.230469 66.53125 C 49.121094 66.25 47.027344 65.917969 44.953125 65.527344 C 44.28125 66.03125 44.28125 66.53125 44.953125 67.035156 C 46.347656 67.851562 47.855469 68.1875 49.472656 68.039062 C 46.632812 69.792969 43.621094 71.296875 40.433594 72.558594 C 40.710938 71.910156 41.214844 71.492188 41.9375 71.300781 C 41.078125 70.734375 40.828125 69.980469 41.183594 69.042969 C 42.257812 70.835938 43.011719 70.835938 43.445312 69.042969 C 42.308594 68.722656 41.304688 68.136719 40.433594 67.285156 C 39.269531 66.953125 38.097656 66.703125 36.917969 66.53125 C 36.75 66.195312 36.582031 65.863281 36.414062 65.527344 C 39.089844 65.308594 41.769531 65.058594 44.449219 64.773438 C 43.324219 64.285156 42.152344 64.03125 40.933594 64.019531 C 40.933594 63.015625 40.933594 62.011719 40.933594 61.007812 Z M 40.933594 61.007812 "/>
<path style=" stroke:none;fill-rule:evenodd;fill:rgb(34.901962%,54.901963%,14.901961%);fill-opacity:1;" d="M 36.917969 66.53125 C 38.097656 66.703125 39.269531 66.953125 40.433594 67.285156 C 41.304688 68.136719 42.308594 68.722656 43.445312 69.042969 C 43.011719 70.835938 42.257812 70.835938 41.183594 69.042969 C 40.828125 69.980469 41.078125 70.734375 41.9375 71.300781 C 41.214844 71.492188 40.710938 71.910156 40.433594 72.558594 C 40.265625 72.558594 40.097656 72.558594 39.929688 72.558594 C 38.339844 72.863281 36.75 73.199219 35.160156 73.5625 C 34.640625 73.730469 34.390625 74.066406 34.40625 74.566406 C 33.917969 74.320312 33.414062 74.070312 32.898438 73.8125 C 34.238281 73.144531 35.578125 72.472656 36.917969 71.804688 C 37.394531 71.445312 37.476562 71.027344 37.167969 70.550781 C 34.792969 69.820312 32.363281 69.234375 29.882812 68.792969 C 32.222656 67.984375 34.566406 67.230469 36.917969 66.53125 Z M 36.917969 66.53125 "/>
<path style=" stroke:none;fill-rule:evenodd;fill:rgb(94.901961%,45.09804%,25.098041%);fill-opacity:1;" d="M 72.578125 66.53125 C 73.742188 66.992188 74.832031 67.664062 75.839844 68.539062 C 76.21875 69.109375 76.132812 69.613281 75.589844 70.046875 C 73.792969 69.230469 71.949219 68.5625 70.066406 68.039062 C 69.898438 68.039062 69.730469 68.039062 69.5625 68.039062 C 69.507812 67.726562 69.339844 67.476562 69.0625 67.285156 C 70.15625 66.679688 71.328125 66.429688 72.578125 66.53125 Z M 72.578125 66.53125 "/>
<path style=" stroke:none;fill-rule:evenodd;fill:rgb(90.196079%,81.568629%,58.823532%);fill-opacity:1;" d="M 95.179688 66.03125 C 96.851562 66.03125 98.527344 66.03125 100.203125 66.03125 C 100.53125 69.710938 98.855469 71.050781 95.179688 70.046875 C 95.179688 68.707031 95.179688 67.367188 95.179688 66.03125 Z M 95.179688 66.03125 "/>
<path style=" stroke:none;fill-rule:evenodd;fill:rgb(73.333335%,23.529412%,5.490196%);fill-opacity:1;" d="M 73.078125 66.03125 C 74.082031 66.53125 75.089844 67.035156 76.09375 67.535156 C 77.144531 68.808594 77.3125 70.148438 76.59375 71.554688 C 74.441406 70.390625 72.265625 69.386719 70.066406 68.539062 C 70.066406 68.375 70.066406 68.207031 70.066406 68.039062 C 71.949219 68.5625 73.792969 69.230469 75.589844 70.046875 C 76.132812 69.613281 76.21875 69.109375 75.839844 68.539062 C 74.832031 67.664062 73.742188 66.992188 72.578125 66.53125 C 72.910156 66.53125 73.078125 66.363281 73.078125 66.03125 Z M 73.078125 66.03125 "/>
<path style=" stroke:none;fill-rule:evenodd;fill:rgb(41.568628%,13.725491%,9.411765%);fill-opacity:1;" d="M 65.546875 66.03125 C 66.382812 66.03125 67.21875 66.03125 68.054688 66.03125 C 67.503906 66.5625 66.835938 66.980469 66.046875 67.285156 C 67.234375 67.507812 68.40625 67.757812 69.5625 68.039062 C 69.730469 68.039062 69.898438 68.039062 70.066406 68.039062 C 70.066406 68.207031 70.066406 68.375 70.066406 68.539062 C 69.226562 68.539062 68.390625 68.539062 67.554688 68.539062 C 67.554688 69.042969 67.554688 69.542969 67.554688 70.046875 C 68.203125 69.929688 68.703125 70.09375 69.0625 70.550781 C 65.464844 70.421875 62.617188 71.761719 60.523438 74.566406 C 60.355469 73.5625 60.1875 72.558594 60.019531 71.554688 C 58.699219 71.851562 57.363281 72.019531 56.003906 72.054688 C 59.273438 71.265625 62.285156 69.84375 65.042969 67.789062 C 64.582031 67.648438 64.25 67.398438 64.039062 67.035156 C 64.644531 66.816406 65.148438 66.480469 65.546875 66.03125 Z M 65.546875 66.03125 "/>
<path style=" stroke:none;fill-rule:evenodd;fill:rgb(1.960784%,0.392157%,0%);fill-opacity:1;" d="M 69.0625 70.550781 C 71.351562 71.023438 73.363281 72.027344 75.089844 73.5625 C 77.371094 77.042969 77.707031 80.726562 76.09375 84.609375 C 73 88.246094 69.148438 89.417969 64.539062 88.125 C 63.214844 86.964844 61.875 85.792969 60.523438 84.609375 C 59.210938 81.246094 59.210938 77.898438 60.523438 74.566406 C 62.617188 71.761719 65.464844 70.421875 69.0625 70.550781 Z M 69.0625 70.550781 "/>
<path style=" stroke:none;fill-rule:evenodd;fill:rgb(5.098039%,5.098039%,2.745098%);fill-opacity:1;" d="M 41.9375 61.007812 C 43.144531 60.980469 44.316406 61.148438 45.453125 61.511719 C 46.316406 61.574219 47.152344 61.742188 47.964844 62.011719 C 52.675781 62.769531 57.363281 63.691406 62.03125 64.773438 C 62.445312 65.773438 63.113281 66.527344 64.039062 67.035156 C 64.25 67.398438 64.582031 67.648438 65.042969 67.789062 C 62.285156 69.84375 59.273438 71.265625 56.003906 72.054688 C 55.355469 71.9375 54.851562 72.105469 54.496094 72.558594 C 52.449219 72.761719 50.941406 73.765625 49.976562 75.570312 C 49.003906 75.875 48.167969 76.378906 47.464844 77.078125 C 41.304688 79.351562 41.640625 80.523438 48.46875 80.589844 C 51.148438 80.589844 53.824219 80.589844 56.503906 80.589844 C 56.460938 82.777344 56.292969 84.953125 56.003906 87.121094 C 55.605469 87.675781 55.355469 88.34375 55.25 89.128906 C 54.089844 89.9375 52.832031 90.605469 51.480469 91.136719 C 51.082031 91.367188 50.914062 91.699219 50.980469 92.140625 C 46.253906 93.347656 46.421875 93.847656 51.480469 93.648438 C 54.90625 94.0625 58.421875 94.3125 62.03125 94.398438 C 60.195312 94.808594 59.023438 95.894531 58.511719 97.664062 C 57.746094 100.191406 56.238281 102.199219 53.992188 103.6875 C 53.851562 103.292969 53.601562 102.957031 53.238281 102.683594 C 52.730469 103.105469 52.144531 103.273438 51.480469 103.1875 C 51.480469 103.019531 51.480469 102.851562 51.480469 102.683594 C 53.601562 101.828125 54.855469 100.320312 55.25 98.164062 C 51.398438 100.960938 47.128906 101.878906 42.441406 100.925781 C 44.324219 100.417969 46.164062 99.832031 47.964844 99.171875 C 49.464844 98.753906 50.804688 98.085938 51.984375 97.160156 C 54.125 96.8125 54.292969 96.394531 52.488281 95.90625 C 47.144531 95.074219 41.789062 94.402344 36.414062 93.898438 C 36.875 93.757812 37.207031 93.507812 37.417969 93.144531 C 38.222656 93.277344 38.890625 93.113281 39.425781 92.640625 C 43.472656 91.882812 47.492188 90.960938 51.480469 89.878906 C 52.394531 89.78125 53.066406 89.363281 53.492188 88.625 C 53.984375 86.550781 54.152344 84.375 53.992188 82.097656 C 49.410156 82.335938 44.890625 82 40.433594 81.09375 C 39.351562 81.15625 38.34375 80.90625 37.417969 80.339844 C 37.753906 80.171875 38.089844 80.003906 38.421875 79.839844 C 36.109375 79.53125 33.929688 78.945312 31.894531 78.082031 C 32.898438 78.082031 33.902344 78.082031 34.90625 78.082031 C 41.582031 78.402344 46.941406 75.972656 50.980469 70.800781 C 48.632812 71.964844 46.121094 72.886719 43.445312 73.5625 C 42.425781 73.644531 41.421875 73.558594 40.433594 73.3125 C 40.152344 73.117188 39.984375 72.867188 39.929688 72.558594 C 40.097656 72.558594 40.265625 72.558594 40.433594 72.558594 C 43.621094 71.296875 46.632812 69.792969 49.472656 68.039062 C 50.757812 68.191406 51.929688 68.023438 52.988281 67.535156 C 53.546875 67.507812 54.046875 67.339844 54.496094 67.035156 C 54.496094 66.363281 54.496094 65.695312 54.496094 65.027344 C 51.101562 64.496094 47.753906 63.742188 44.449219 62.765625 C 43.480469 62.3125 42.644531 61.726562 41.9375 61.007812 Z M 41.9375 61.007812 "/>
<path style=" stroke:none;fill-rule:evenodd;fill:rgb(38.039216%,55.29412%,31.37255%);fill-opacity:1;" d="M 54.496094 67.035156 C 55.144531 66.753906 55.5625 66.25 55.75 65.527344 C 57.773438 66.292969 59.863281 66.878906 62.03125 67.285156 C 58.984375 68.804688 55.886719 70.226562 52.738281 71.554688 C 53.027344 69.964844 53.613281 68.457031 54.496094 67.035156 Z M 54.496094 67.035156 "/>
<path style=" stroke:none;fill-rule:evenodd;fill:rgb(91.37255%,44.313726%,25.490198%);fill-opacity:1;" d="M 70.066406 68.539062 C 72.265625 69.386719 74.441406 70.390625 76.59375 71.554688 C 75.84375 71.785156 75.339844 72.453125 75.089844 73.5625 C 73.363281 72.027344 71.351562 71.023438 69.0625 70.550781 C 68.703125 70.09375 68.203125 69.929688 67.554688 70.046875 C 67.554688 69.542969 67.554688 69.042969 67.554688 68.539062 C 68.390625 68.539062 69.226562 68.539062 70.066406 68.539062 Z M 70.066406 68.539062 "/>
<path style=" stroke:none;fill-rule:evenodd;fill:rgb(70.980394%,88.627452%,54.509807%);fill-opacity:1;" d="M 20.84375 80.089844 C 21.132812 80.953125 21.132812 81.707031 20.84375 82.347656 C 20.160156 82.816406 19.492188 83.238281 18.835938 83.605469 C 15.761719 81.671875 13.503906 78.992188 12.054688 75.570312 C 10.355469 71.730469 9.433594 67.710938 9.292969 63.519531 C 9.308594 57.066406 10.3125 50.707031 12.304688 44.4375 C 13.007812 43.65625 13.339844 43.824219 13.308594 44.941406 C 11.605469 52.070312 11.351562 59.269531 12.554688 66.53125 C 13.042969 72.535156 15.804688 77.054688 20.84375 80.089844 Z M 20.84375 80.089844 "/>
<path style=" stroke:none;fill-rule:evenodd;fill:rgb(9.019608%,17.254902%,7.450981%);fill-opacity:1;" d="M 39.929688 72.558594 C 39.984375 72.867188 40.152344 73.117188 40.433594 73.3125 C 41.421875 73.558594 42.425781 73.644531 43.445312 73.5625 C 41.039062 74.175781 38.527344 74.511719 35.910156 74.566406 C 35.410156 74.566406 34.90625 74.566406 34.40625 74.566406 C 34.390625 74.066406 34.640625 73.730469 35.160156 73.5625 C 36.75 73.199219 38.339844 72.863281 39.929688 72.558594 Z M 39.929688 72.558594 "/>
<path style=" stroke:none;fill-rule:evenodd;fill:rgb(90.980393%,78.823531%,56.078434%);fill-opacity:1;" d="M 88.648438 72.558594 C 89.988281 72.558594 91.328125 72.558594 92.667969 72.558594 C 92.667969 73.5625 92.667969 74.566406 92.667969 75.570312 C 91.125 75.730469 89.617188 75.5625 88.148438 75.066406 C 88.554688 74.277344 88.722656 73.441406 88.648438 72.558594 Z M 88.648438 72.558594 "/>
<path style=" stroke:none;fill-rule:evenodd;fill:rgb(91.764706%,82.352942%,64.313728%);fill-opacity:1;" d="M 94.175781 72.558594 C 95.691406 72.472656 97.195312 72.558594 98.695312 72.808594 C 97.875 74.890625 96.367188 75.808594 94.175781 75.570312 C 94.175781 74.566406 94.175781 73.5625 94.175781 72.558594 Z M 94.175781 72.558594 "/>
<path style=" stroke:none;fill-rule:evenodd;fill:rgb(60.784316%,72.549021%,40.392157%);fill-opacity:1;" d="M 34.90625 78.082031 C 35.976562 77.671875 37.148438 77.421875 38.421875 77.328125 C 38.191406 77.121094 38.027344 76.867188 37.921875 76.574219 C 38.539062 76.183594 39.207031 75.929688 39.929688 75.820312 C 38.589844 75.289062 37.25 74.871094 35.910156 74.566406 C 38.527344 74.511719 41.039062 74.175781 43.445312 73.5625 C 46.121094 72.886719 48.632812 71.964844 50.980469 70.800781 C 46.941406 75.972656 41.582031 78.402344 34.90625 78.082031 Z M 34.90625 78.082031 "/>
<path style=" stroke:none;fill-rule:evenodd;fill:rgb(54.901963%,78.823531%,33.725491%);fill-opacity:1;" d="M 31.894531 78.082031 C 33.929688 78.945312 36.109375 79.53125 38.421875 79.839844 C 38.089844 80.003906 37.753906 80.171875 37.417969 80.339844 C 38.34375 80.90625 39.351562 81.15625 40.433594 81.09375 C 39.761719 81.429688 39.09375 81.761719 38.421875 82.097656 C 37.40625 82.015625 36.398438 82.101562 35.410156 82.347656 C 36.011719 82.675781 36.011719 82.929688 35.410156 83.101562 C 33.097656 82.628906 30.753906 82.460938 28.378906 82.601562 C 27.871094 85.195312 28.792969 86.03125 31.140625 85.109375 C 32.285156 85.421875 33.371094 85.753906 34.40625 86.113281 C 31.675781 85.769531 31.339844 86.355469 33.402344 87.871094 C 35.460938 88.921875 37.636719 89.507812 39.929688 89.628906 C 38.183594 90.203125 36.34375 90.289062 34.40625 89.878906 C 32.050781 89.261719 29.707031 88.675781 27.375 88.125 C 26.644531 87.71875 25.808594 87.46875 24.863281 87.371094 C 24.316406 86.007812 23.3125 85.253906 21.847656 85.109375 C 21.066406 84.164062 20.0625 83.660156 18.835938 83.605469 C 19.492188 83.238281 20.160156 82.816406 20.84375 82.347656 C 21.132812 81.707031 21.132812 80.953125 20.84375 80.089844 C 20.996094 79.761719 21.164062 79.429688 21.347656 79.085938 C 19.515625 78.519531 18.59375 77.347656 18.582031 75.570312 C 19.195312 76.015625 19.863281 76.515625 20.59375 77.078125 C 21.289062 76.550781 21.789062 75.878906 22.097656 75.066406 C 24.609375 75.917969 27.375 76.503906 30.386719 76.824219 C 29.882812 76.992188 29.382812 77.160156 28.878906 77.328125 C 29.894531 77.582031 30.898438 77.832031 31.894531 78.082031 Z M 31.894531 78.082031 "/>
<path style=" stroke:none;fill-rule:evenodd;fill:rgb(43.137255%,18.039216%,9.803922%);fill-opacity:1;" d="M 47.464844 77.078125 C 47.042969 78.019531 46.875 79.023438 46.960938 80.089844 C 47.609375 79.96875 48.113281 80.136719 48.46875 80.589844 C 41.640625 80.523438 41.304688 79.351562 47.464844 77.078125 Z M 47.464844 77.078125 "/>
<path style=" stroke:none;fill-rule:evenodd;fill:rgb(92.156863%,49.019608%,17.254902%);fill-opacity:1;" d="M 54.496094 72.558594 C 54.910156 74.148438 55.242188 75.820312 55.5 77.578125 C 55.332031 77.914062 55.164062 78.25 54.996094 78.582031 C 52.820312 79.253906 50.644531 79.253906 48.46875 78.582031 C 48.300781 78.332031 48.132812 78.082031 47.964844 77.828125 C 48.730469 77.152344 49.398438 76.398438 49.976562 75.570312 C 50.941406 73.765625 52.449219 72.761719 54.496094 72.558594 Z M 54.496094 72.558594 "/>
<path style=" stroke:none;fill-rule:evenodd;fill:rgb(65.098041%,19.607843%,8.235294%);fill-opacity:1;" d="M 85.636719 75.066406 C 84.722656 75.714844 84.222656 76.636719 84.128906 77.828125 C 84.929688 80.890625 85.179688 83.984375 84.882812 87.121094 C 84.578125 87.90625 84.15625 88.574219 83.625 89.128906 C 83.546875 88.109375 83.628906 87.105469 83.878906 86.113281 C 84.324219 86.8125 84.574219 86.726562 84.632812 85.863281 C 84.023438 85.210938 83.691406 84.457031 83.625 83.605469 C 82.621094 83.605469 81.617188 83.605469 80.613281 83.605469 C 80.34375 82.792969 80.175781 81.957031 80.109375 81.09375 C 80.605469 82.003906 81.355469 82.671875 82.371094 83.101562 C 82.117188 79.605469 82.117188 76.09375 82.371094 72.558594 C 82.640625 74.078125 82.976562 75.585938 83.375 77.078125 C 83.476562 76.195312 83.726562 75.359375 84.128906 74.566406 C 84.589844 74.878906 85.089844 75.046875 85.636719 75.066406 Z M 85.636719 75.066406 "/>
<path style=" stroke:none;fill-rule:evenodd;fill:rgb(60.392159%,18.82353%,9.411765%);fill-opacity:1;" d="M 60.523438 74.566406 C 59.210938 77.898438 59.210938 81.246094 60.523438 84.609375 C 60.070312 84.058594 59.652344 84.058594 59.265625 84.609375 C 58.644531 86.355469 57.890625 88.027344 57.007812 89.628906 C 56.769531 90.335938 56.265625 90.671875 55.5 90.632812 C 55.859375 89.496094 56.027344 88.324219 56.003906 87.121094 C 56.292969 84.953125 56.460938 82.777344 56.503906 80.589844 C 53.824219 80.589844 51.148438 80.589844 48.46875 80.589844 C 48.113281 80.136719 47.609375 79.96875 46.960938 80.089844 C 46.875 79.023438 47.042969 78.019531 47.464844 77.078125 C 48.167969 76.378906 49.003906 75.875 49.976562 75.570312 C 49.398438 76.398438 48.730469 77.152344 47.964844 77.828125 C 48.132812 78.082031 48.300781 78.332031 48.46875 78.582031 C 50.644531 79.253906 52.820312 79.253906 54.996094 78.582031 C 55.164062 78.25 55.332031 77.914062 55.5 77.578125 C 55.242188 75.820312 54.910156 74.148438 54.496094 72.558594 C 54.851562 72.105469 55.355469 71.9375 56.003906 72.054688 C 57.363281 72.019531 58.699219 71.851562 60.019531 71.554688 C 60.1875 72.558594 60.355469 73.5625 60.523438 74.566406 Z M 60.523438 74.566406 "/>
<path style=" stroke:none;fill-rule:evenodd;fill:rgb(85.09804%,75.294119%,53.333336%);fill-opacity:1;" d="M 87.140625 77.578125 C 89.914062 77.355469 92.59375 77.605469 95.179688 78.332031 C 93.285156 81.628906 90.605469 82.632812 87.140625 81.34375 C 89.054688 80.59375 88.886719 80.175781 86.640625 80.089844 C 86.574219 79.191406 86.738281 78.351562 87.140625 77.578125 Z M 87.140625 77.578125 "/>
<path style=" stroke:none;fill-rule:evenodd;fill:rgb(63.529414%,84.313726%,42.745098%);fill-opacity:1;" d="M 38.421875 82.097656 C 41.957031 82.269531 45.472656 82.601562 48.96875 83.101562 C 48.816406 84.53125 47.976562 85.285156 46.460938 85.363281 C 42.472656 86.023438 38.453125 86.277344 34.40625 86.113281 C 33.371094 85.753906 32.285156 85.421875 31.140625 85.109375 C 28.792969 86.03125 27.871094 85.195312 28.378906 82.601562 C 30.753906 82.460938 33.097656 82.628906 35.410156 83.101562 C 36.011719 82.929688 36.011719 82.675781 35.410156 82.347656 C 36.398438 82.101562 37.40625 82.015625 38.421875 82.097656 Z M 38.421875 82.097656 "/>
<path style=" stroke:none;fill-rule:evenodd;fill:rgb(32.941177%,57.254905%,16.470589%);fill-opacity:1;" d="M 40.433594 81.09375 C 44.890625 82 49.410156 82.335938 53.992188 82.097656 C 54.152344 84.375 53.984375 86.550781 53.492188 88.625 C 53.492188 88.125 53.492188 87.621094 53.492188 87.121094 C 49.058594 88.324219 44.539062 89.160156 39.929688 89.628906 C 37.636719 89.507812 35.460938 88.921875 33.402344 87.871094 C 31.339844 86.355469 31.675781 85.769531 34.40625 86.113281 C 38.453125 86.277344 42.472656 86.023438 46.460938 85.363281 C 47.976562 85.285156 48.816406 84.53125 48.96875 83.101562 C 45.472656 82.601562 41.957031 82.269531 38.421875 82.097656 C 39.09375 81.761719 39.761719 81.429688 40.433594 81.09375 Z M 40.433594 81.09375 "/>
<path style=" stroke:none;fill-rule:evenodd;fill:rgb(89.411765%,31.37255%,11.764706%);fill-opacity:1;" d="M 80.613281 83.605469 C 81.617188 83.605469 82.621094 83.605469 83.625 83.605469 C 83.691406 84.457031 84.023438 85.210938 84.632812 85.863281 C 84.574219 86.726562 84.324219 86.8125 83.878906 86.113281 C 83.628906 87.105469 83.546875 88.109375 83.625 89.128906 C 83.398438 90.269531 82.726562 90.9375 81.617188 91.136719 C 80.144531 91.539062 78.640625 91.703125 77.097656 91.636719 C 78.542969 91.035156 79.714844 90.03125 80.613281 88.625 C 78.203125 88.121094 78.203125 87.285156 80.613281 86.113281 C 80.914062 85.394531 80.914062 84.558594 80.613281 83.605469 Z M 80.613281 83.605469 "/>
<path style=" stroke:none;fill-rule:evenodd;fill:rgb(37.254903%,20%,12.54902%);fill-opacity:1;" d="M 56.003906 87.121094 C 56.027344 88.324219 55.859375 89.496094 55.5 90.632812 C 55.5 90.800781 55.5 90.96875 55.5 91.136719 C 53.972656 91.390625 52.46875 91.726562 50.980469 92.140625 C 50.914062 91.699219 51.082031 91.367188 51.480469 91.136719 C 52.832031 90.605469 54.089844 89.9375 55.25 89.128906 C 55.355469 88.34375 55.605469 87.675781 56.003906 87.121094 Z M 56.003906 87.121094 "/>
<path style=" stroke:none;fill-rule:evenodd;fill:rgb(98.039216%,47.843137%,19.607843%);fill-opacity:1;" d="M 60.523438 84.609375 C 61.875 85.792969 63.214844 86.964844 64.539062 88.125 C 64.597656 88.433594 64.765625 88.683594 65.042969 88.875 C 66.214844 89.042969 67.386719 89.210938 68.558594 89.378906 C 65.5 89.316406 62.65625 89.734375 60.019531 90.632812 C 58.90625 90.578125 57.902344 90.242188 57.007812 89.628906 C 57.890625 88.027344 58.644531 86.355469 59.265625 84.609375 C 59.652344 84.058594 60.070312 84.058594 60.523438 84.609375 Z M 60.523438 84.609375 "/>
<path style=" stroke:none;fill-rule:evenodd;fill:rgb(98.039216%,56.078434%,29.803923%);fill-opacity:1;" d="M 80.109375 81.09375 C 80.175781 81.957031 80.34375 82.792969 80.613281 83.605469 C 80.914062 84.558594 80.914062 85.394531 80.613281 86.113281 C 80.472656 85.71875 80.21875 85.382812 79.859375 85.109375 C 78.925781 86.449219 77.835938 87.621094 76.59375 88.625 C 71.238281 90.410156 65.710938 91.078125 60.019531 90.632812 C 62.65625 89.734375 65.5 89.316406 68.558594 89.378906 C 67.386719 89.210938 66.214844 89.042969 65.042969 88.875 C 64.765625 88.683594 64.597656 88.433594 64.539062 88.125 C 69.148438 89.417969 73 88.246094 76.09375 84.609375 C 75.710938 86.246094 74.707031 87.332031 73.078125 87.871094 C 73.46875 88.488281 73.96875 88.65625 74.585938 88.375 C 77.214844 86.238281 78.804688 83.476562 79.359375 80.089844 C 79.496094 80.550781 79.75 80.882812 80.109375 81.09375 Z M 80.109375 81.09375 "/>
<path style=" stroke:none;fill-rule:evenodd;fill:rgb(65.882355%,83.529413%,44.705883%);fill-opacity:1;" d="M 53.492188 88.625 C 53.066406 89.363281 52.394531 89.78125 51.480469 89.878906 C 47.492188 90.960938 43.472656 91.882812 39.425781 92.640625 C 35.230469 92.597656 31.210938 91.675781 27.375 89.878906 C 26.152344 89.101562 26.152344 88.515625 27.375 88.125 C 29.707031 88.675781 32.050781 89.261719 34.40625 89.878906 C 36.34375 90.289062 38.183594 90.203125 39.929688 89.628906 C 44.539062 89.160156 49.058594 88.324219 53.492188 87.121094 C 53.492188 87.621094 53.492188 88.125 53.492188 88.625 Z M 53.492188 88.625 "/>
<path style=" stroke:none;fill-rule:evenodd;fill:rgb(99.215686%,67.450982%,40.000001%);fill-opacity:1;" d="M 80.613281 86.113281 C 78.203125 87.285156 78.203125 88.121094 80.613281 88.625 C 79.714844 90.03125 78.542969 91.035156 77.097656 91.636719 C 74.617188 92.085938 72.105469 92.253906 69.5625 92.140625 C 72.605469 90.832031 75.785156 89.742188 79.105469 88.875 C 78.285156 88.628906 77.449219 88.546875 76.59375 88.625 C 77.835938 87.621094 78.925781 86.449219 79.859375 85.109375 C 80.21875 85.382812 80.472656 85.71875 80.613281 86.113281 Z M 80.613281 86.113281 "/>
<use xlink:href="#surface23" mask="url(#mask6)"/>
<path style=" stroke:none;fill-rule:evenodd;fill:rgb(56.862748%,78.823531%,35.686275%);fill-opacity:1;" d="M 21.847656 85.109375 C 23.3125 85.253906 24.316406 86.007812 24.863281 87.371094 C 25.808594 87.46875 26.644531 87.71875 27.375 88.125 C 26.152344 88.515625 26.152344 89.101562 27.375 89.878906 C 31.210938 91.675781 35.230469 92.597656 39.425781 92.640625 C 38.890625 93.113281 38.222656 93.277344 37.417969 93.144531 C 35.902344 93.0625 34.394531 93.144531 32.898438 93.394531 C 34.417969 93.988281 35.925781 94.574219 37.417969 95.152344 C 39.109375 95.9375 40.953125 96.355469 42.945312 96.410156 C 44.851562 97.09375 46.523438 98.015625 47.964844 99.171875 C 46.164062 99.832031 44.324219 100.417969 42.441406 100.925781 C 47.128906 101.878906 51.398438 100.960938 55.25 98.164062 C 54.855469 100.320312 53.601562 101.828125 51.480469 102.683594 C 50.527344 102.71875 49.605469 102.550781 48.71875 102.183594 C 41.742188 104.875 34.792969 104.789062 27.875 101.933594 C 25.808594 100.703125 23.882812 99.28125 22.097656 97.664062 C 20.683594 94.335938 19.429688 90.988281 18.332031 87.621094 C 18.800781 87.085938 18.96875 86.414062 18.835938 85.613281 C 20.042969 85.796875 21.214844 86.132812 22.351562 86.617188 C 22.683594 86.53125 23.019531 86.449219 23.355469 86.367188 C 22.628906 86.175781 22.128906 85.757812 21.847656 85.109375 Z M 21.847656 85.109375 "/>
<path style=" stroke:none;fill-rule:evenodd;fill:rgb(99.607843%,75.686276%,56.078434%);fill-opacity:1;" d="M 76.59375 88.625 C 77.449219 88.546875 78.285156 88.628906 79.105469 88.875 C 75.785156 89.742188 72.605469 90.832031 69.5625 92.140625 C 65.039062 92.222656 60.519531 92.140625 56.003906 91.890625 C 55.722656 91.695312 55.554688 91.445312 55.5 91.136719 C 55.5 90.96875 55.5 90.800781 55.5 90.632812 C 56.265625 90.671875 56.769531 90.335938 57.007812 89.628906 C 57.902344 90.242188 58.90625 90.578125 60.019531 90.632812 C 65.710938 91.078125 71.238281 90.410156 76.59375 88.625 Z M 76.59375 88.625 "/>
<use xlink:href="#surface26" mask="url(#mask7)"/>
<path style=" stroke:none;fill-rule:evenodd;fill:rgb(89.411765%,45.490196%,23.921569%);fill-opacity:1;" d="M 55.5 91.136719 C 55.554688 91.445312 55.722656 91.695312 56.003906 91.890625 C 60.519531 92.140625 65.039062 92.222656 69.5625 92.140625 C 72.105469 92.253906 74.617188 92.085938 77.097656 91.636719 C 78.640625 91.703125 80.144531 91.539062 81.617188 91.136719 C 80.382812 92.246094 78.875 92.832031 77.097656 92.894531 C 68.570312 93.53125 60.03125 93.78125 51.480469 93.648438 C 46.421875 93.847656 46.253906 93.347656 50.980469 92.140625 C 52.46875 91.726562 53.972656 91.390625 55.5 91.136719 Z M 55.5 91.136719 "/>
<use xlink:href="#surface29" mask="url(#mask8)"/>
<path style=" stroke:none;fill-rule:evenodd;fill:rgb(28.235295%,41.568628%,16.470589%);fill-opacity:1;" d="M 37.417969 93.144531 C 37.207031 93.507812 36.875 93.757812 36.414062 93.898438 C 41.789062 94.402344 47.144531 95.074219 52.488281 95.90625 C 54.292969 96.394531 54.125 96.8125 51.984375 97.160156 C 51.476562 96.527344 50.722656 96.191406 49.722656 96.15625 C 48.621094 96.234375 47.53125 96.402344 46.460938 96.660156 C 46.207031 96.027344 45.539062 95.609375 44.449219 95.402344 C 42.113281 95.152344 39.769531 95.070312 37.417969 95.152344 C 35.925781 94.574219 34.417969 93.988281 32.898438 93.394531 C 34.394531 93.144531 35.902344 93.0625 37.417969 93.144531 Z M 37.417969 93.144531 "/>
<path style=" stroke:none;fill-rule:evenodd;fill:rgb(31.37255%,53.333336%,14.509805%);fill-opacity:1;" d="M 37.417969 95.152344 C 39.769531 95.070312 42.113281 95.152344 44.449219 95.402344 C 45.539062 95.609375 46.207031 96.027344 46.460938 96.660156 C 47.53125 96.402344 48.621094 96.234375 49.722656 96.15625 C 50.722656 96.191406 51.476562 96.527344 51.984375 97.160156 C 50.804688 98.085938 49.464844 98.753906 47.964844 99.171875 C 46.523438 98.015625 44.851562 97.09375 42.945312 96.410156 C 40.953125 96.355469 39.109375 95.9375 37.417969 95.152344 Z M 37.417969 95.152344 "/>
<path style=" stroke:none;fill-rule:evenodd;fill:rgb(38.039216%,16.862746%,12.941177%);fill-opacity:1;" d="M 74.585938 95.152344 C 72.832031 99.042969 69.984375 100.128906 66.046875 98.417969 C 65.03125 96.640625 63.523438 95.890625 61.527344 96.15625 C 65.800781 95.746094 70.152344 95.410156 74.585938 95.152344 Z M 74.585938 95.152344 "/>
<path style=" stroke:none;fill-rule:evenodd;fill:rgb(90.196079%,50.588238%,23.529412%);fill-opacity:1;" d="M 74.585938 95.152344 C 75.589844 95.152344 76.59375 95.152344 77.597656 95.152344 C 77.050781 100.222656 74.203125 102.898438 69.0625 103.1875 C 65.359375 102.886719 62.765625 101.046875 61.277344 97.664062 C 60.90625 97.035156 60.988281 96.535156 61.527344 96.15625 C 63.523438 95.890625 65.03125 96.640625 66.046875 98.417969 C 69.984375 100.128906 72.832031 99.042969 74.585938 95.152344 Z M 74.585938 95.152344 "/>
<use xlink:href="#surface32" mask="url(#mask9)"/>
<path style=" stroke:none;fill-rule:evenodd;fill:rgb(72.941178%,85.490197%,55.29412%);fill-opacity:1;" d="M 18.332031 87.621094 C 19.429688 90.988281 20.683594 94.335938 22.097656 97.664062 C 23.882812 99.28125 25.808594 100.703125 27.875 101.933594 C 34.792969 104.789062 41.742188 104.875 48.71875 102.183594 C 49.605469 102.550781 50.527344 102.71875 51.480469 102.683594 C 51.480469 102.851562 51.480469 103.019531 51.480469 103.1875 C 45.855469 106.351562 39.828125 107.4375 33.402344 106.449219 C 23.492188 103.851562 18.472656 97.574219 18.332031 87.621094 Z M 18.332031 87.621094 "/>
</g>
</svg>
