<?xml version="1.0" encoding="UTF-8"?>
<svg xmlns="http://www.w3.org/2000/svg" xmlns:xlink="http://www.w3.org/1999/xlink" width="px" height="px" viewBox="0 0 105 91" version="1.1">
<defs>
<filter id="alpha" filterUnits="objectBoundingBox" x="0%" y="0%" width="100%" height="100%">
  <feColorMatrix type="matrix" in="SourceGraphic" values="0 0 0 0 1 0 0 0 0 1 0 0 0 0 1 0 0 0 1 0"/>
</filter>
<mask id="mask0">
  <g filter="url(#alpha)">
<rect x="0" y="0" width="105" height="91" style="fill:rgb(0%,0%,0%);fill-opacity:0.0196078;stroke:none;"/>
  </g>
</mask>
<clipPath id="clip1">
  <rect x="0" y="0" width="105" height="92"/>
</clipPath>
<g id="surface5" clip-path="url(#clip1)">
<path style=" stroke:none;fill-rule:evenodd;fill:rgb(15.686275%,19.215686%,24.705882%);fill-opacity:1;" d="M 64.75 3.769531 C 64.191406 4.46875 63.691406 5.222656 63.25 6.03125 C 61.257812 6.285156 59.257812 6.367188 57.25 6.285156 C 56.304688 2.367188 53.804688 0.859375 49.75 1.757812 C 52.597656 0.144531 55.097656 0.644531 57.25 3.269531 C 57.65625 4.058594 57.820312 4.894531 57.75 5.78125 C 59.449219 5.941406 61.117188 5.773438 62.75 5.277344 C 63.140625 4.378906 63.808594 3.878906 64.75 3.769531 Z M 64.75 3.769531 "/>
</g>
<mask id="mask1">
  <g filter="url(#alpha)">
<rect x="0" y="0" width="105" height="91" style="fill:rgb(0%,0%,0%);fill-opacity:0.0117647;stroke:none;"/>
  </g>
</mask>
<clipPath id="clip2">
  <rect x="0" y="0" width="105" height="92"/>
</clipPath>
<g id="surface8" clip-path="url(#clip2)">
<path style=" stroke:none;fill-rule:evenodd;fill:rgb(15.294118%,17.254902%,22.352941%);fill-opacity:1;" d="M 48.75 1.757812 C 45.003906 2.175781 41.171875 2.429688 37.25 2.515625 C 36.507812 2.847656 35.839844 3.265625 35.25 3.769531 C 34.722656 4.324219 34.304688 4.996094 34 5.78125 C 34.070312 10.503906 33.65625 15.027344 32.75 19.355469 C 32.632812 18.292969 32.46875 17.203125 32.25 16.089844 C 32.636719 12.839844 32.886719 9.570312 33 6.285156 C 33.234375 5.40625 33.570312 4.570312 34 3.769531 C 35.644531 2.566406 37.394531 1.5625 39.25 0.753906 C 42.429688 1.089844 45.597656 1.425781 48.75 1.757812 Z M 48.75 1.757812 "/>
</g>
<mask id="mask2">
  <g filter="url(#alpha)">
<rect x="0" y="0" width="105" height="91" style="fill:rgb(0%,0%,0%);fill-opacity:0.996078;stroke:none;"/>
  </g>
</mask>
<clipPath id="clip3">
  <rect x="0" y="0" width="105" height="92"/>
</clipPath>
<g id="surface11" clip-path="url(#clip3)">
<path style=" stroke:none;fill-rule:evenodd;fill:rgb(2.352941%,2.745098%,4.313725%);fill-opacity:1;" d="M 96.75 21.871094 C 98.265625 22.8125 99.347656 24.152344 100 25.890625 C 101.578125 29.433594 102.742188 33.117188 103.5 36.953125 C 103.890625 43.167969 103.726562 49.371094 103 55.554688 C 102.289062 58.601562 101.207031 61.449219 99.75 64.101562 C 99.371094 63.039062 99.289062 62.035156 99.5 61.085938 C 99.164062 61.464844 98.746094 61.632812 98.25 61.589844 C 98.886719 60.335938 99.21875 58.996094 99.25 57.566406 C 98.058594 57.445312 97.058594 57.78125 96.25 58.570312 C 96.140625 57.980469 96.308594 57.476562 96.75 57.0625 C 97.828125 56.785156 98.828125 56.453125 99.75 56.058594 C 100.632812 54.738281 100.964844 53.230469 100.75 51.53125 C 99.359375 51.238281 98.523438 51.742188 98.25 53.042969 C 97.796875 52.683594 97.632812 52.183594 97.75 51.53125 C 96.242188 51.617188 94.742188 51.53125 93.25 51.28125 C 94.417969 50.757812 95.582031 50.339844 96.75 50.023438 C 97.25 50.023438 97.75 50.023438 98.25 50.023438 C 99.25 50.023438 100.25 50.023438 101.25 50.023438 C 101.332031 47.671875 101.25 45.328125 101 42.984375 C 98.632812 42.5 96.214844 42.332031 93.75 42.484375 C 93.75 43.320312 93.75 44.160156 93.75 44.996094 C 93.019531 46.355469 92.601562 47.863281 92.5 49.523438 C 91.945312 50.132812 91.695312 49.964844 91.75 49.019531 C 91.75 46.839844 91.75 44.660156 91.75 42.484375 C 91.378906 40.667969 91.042969 38.824219 90.75 36.953125 C 90.539062 36.363281 90.207031 35.859375 89.75 35.445312 C 90.082031 35.109375 90.417969 34.773438 90.75 34.4375 C 89.773438 30.558594 88.691406 26.703125 87.5 22.875 C 86.113281 18.042969 83.03125 15.027344 78.25 13.824219 C 69.929688 13.269531 61.597656 13.183594 53.25 13.574219 C 47.96875 14.636719 43.300781 16.902344 39.25 20.363281 C 39.285156 19.59375 38.953125 19.089844 38.25 18.855469 C 42.09375 15.160156 46.59375 12.648438 51.75 11.3125 C 52.917969 11.3125 54.082031 11.3125 55.25 11.3125 C 55.40625 9.367188 55.242188 7.523438 54.75 5.78125 C 54.714844 4.820312 54.214844 4.234375 53.25 4.023438 C 49.25 3.9375 45.25 4.023438 41.25 4.273438 C 39.457031 4.097656 37.789062 4.433594 36.25 5.277344 C 35.722656 4.914062 35.390625 4.414062 35.25 3.769531 C 35.839844 3.265625 36.507812 2.847656 37.25 2.515625 C 41.171875 2.429688 45.003906 2.175781 48.75 1.757812 C 49.082031 1.757812 49.417969 1.757812 49.75 1.757812 C 53.804688 0.859375 56.304688 2.367188 57.25 6.285156 C 59.257812 6.367188 61.257812 6.285156 63.25 6.03125 C 63.691406 5.222656 64.191406 4.46875 64.75 3.769531 C 72.636719 -0.804688 78.554688 1.039062 82.5 9.300781 C 82.667969 10.472656 82.832031 11.648438 83 12.820312 C 86.703125 15.234375 89.203125 18.585938 90.5 22.875 C 92.476562 22.011719 94.5625 21.675781 96.75 21.871094 Z M 96.75 21.871094 "/>
</g>
<mask id="mask3">
  <g filter="url(#alpha)">
<rect x="0" y="0" width="105" height="91" style="fill:rgb(0%,0%,0%);fill-opacity:0.00392157;stroke:none;"/>
  </g>
</mask>
<clipPath id="clip4">
  <rect x="0" y="0" width="105" height="92"/>
</clipPath>
<g id="surface14" clip-path="url(#clip4)">
<path style=" stroke:none;fill-rule:evenodd;fill:rgb(14.509804%,18.431373%,23.921569%);fill-opacity:1;" d="M 70.75 -0.25 C 71.25 -0.25 71.75 -0.25 72.25 -0.25 C 72.417969 0.417969 72.582031 0.417969 72.75 -0.25 C 72.917969 -0.25 73.082031 -0.25 73.25 -0.25 C 79.351562 1.699219 83.019531 5.890625 84.25 12.316406 C 87.328125 14.578125 89.496094 17.507812 90.75 21.117188 C 92.378906 21.511719 93.964844 21.425781 95.5 20.863281 C 95.996094 21.148438 96.414062 21.484375 96.75 21.871094 C 94.5625 21.675781 92.476562 22.011719 90.5 22.875 C 89.203125 18.585938 86.703125 15.234375 83 12.820312 C 82.832031 11.648438 82.667969 10.472656 82.5 9.300781 C 78.554688 1.039062 72.636719 -0.804688 64.75 3.769531 C 65.238281 3.109375 65.738281 2.4375 66.25 1.757812 C 67.78125 1.03125 69.28125 0.359375 70.75 -0.25 Z M 70.75 -0.25 "/>
</g>
<mask id="mask4">
  <g filter="url(#alpha)">
<rect x="0" y="0" width="105" height="91" style="fill:rgb(0%,0%,0%);fill-opacity:0.992157;stroke:none;"/>
  </g>
</mask>
<clipPath id="clip5">
  <rect x="0" y="0" width="105" height="92"/>
</clipPath>
<g id="surface17" clip-path="url(#clip5)">
<path style=" stroke:none;fill-rule:evenodd;fill:rgb(3.529412%,5.490196%,6.666667%);fill-opacity:1;" d="M 35.25 3.769531 C 35.390625 4.414062 35.722656 4.914062 36.25 5.277344 C 35.953125 5.914062 35.703125 6.585938 35.5 7.289062 C 35.25 10.804688 35.167969 14.324219 35.25 17.847656 C 36.152344 18.328125 37.152344 18.664062 38.25 18.855469 C 38.953125 19.089844 39.285156 19.59375 39.25 20.363281 C 38.582031 21.199219 37.917969 22.039062 37.25 22.875 C 36.722656 23.429688 36.304688 24.097656 36 24.886719 C 35.917969 26.480469 35.832031 28.070312 35.75 29.664062 C 37.027344 40.132812 37.027344 50.605469 35.75 61.085938 C 35.75 62.855469 35.917969 64.53125 36.25 66.113281 C 36.25 66.28125 36.25 66.449219 36.25 66.617188 C 35.625 66.578125 35.207031 66.242188 35 65.609375 C 34.832031 64.605469 34.667969 63.597656 34.5 62.59375 C 34.320312 64.609375 34.40625 66.621094 34.75 68.628906 C 34.355469 68.070312 34.105469 67.398438 34 66.617188 C 33.613281 59.136719 33.863281 51.679688 34.75 44.242188 C 34.355469 40.140625 34.019531 36.035156 33.75 31.925781 C 33.667969 29.238281 33.75 26.558594 34 23.882812 C 34.082031 22.789062 34.5 21.867188 35.25 21.117188 C 34.5 20.859375 33.917969 21.113281 33.5 21.871094 C 32.667969 23.292969 32.085938 24.800781 31.75 26.394531 C 31.371094 28.550781 30.703125 30.558594 29.75 32.429688 C 29.894531 31.527344 29.726562 30.691406 29.25 29.914062 C 28.910156 30.289062 28.574219 30.621094 28.25 30.917969 C 28.078125 29.589844 28.414062 28.417969 29.25 27.402344 C 29.082031 27.066406 28.917969 26.730469 28.75 26.394531 C 29.816406 25.0625 30.484375 23.722656 30.75 22.371094 C 30.375 20.796875 31.042969 19.789062 32.75 19.355469 C 33.65625 15.027344 34.070312 10.503906 34 5.78125 C 34.304688 4.996094 34.722656 4.324219 35.25 3.769531 Z M 35.25 3.769531 "/>
</g>
<mask id="mask5">
  <g filter="url(#alpha)">
<rect x="0" y="0" width="105" height="91" style="fill:rgb(0%,0%,0%);fill-opacity:0.192157;stroke:none;"/>
  </g>
</mask>
<clipPath id="clip6">
  <rect x="0" y="0" width="105" height="92"/>
</clipPath>
<g id="surface20" clip-path="url(#clip6)">
<path style=" stroke:none;fill-rule:evenodd;fill:rgb(16.078431%,17.647059%,23.137255%);fill-opacity:1;" d="M 28.25 30.917969 C 28.390625 32.3125 28.058594 33.570312 27.25 34.691406 C 23.316406 33.945312 20.566406 35.367188 19 38.964844 C 15.617188 35.402344 11.535156 34.226562 6.75 35.445312 C 7.648438 34.664062 8.734375 34.164062 10 33.9375 C 13.394531 33.984375 16.308594 35.15625 18.75 37.457031 C 19.761719 36.019531 21.011719 34.847656 22.5 33.9375 C 24.054688 34.476562 25.640625 34.476562 27.25 33.9375 C 27.296875 32.789062 27.628906 31.78125 28.25 30.917969 Z M 28.25 30.917969 "/>
</g>
<mask id="mask6">
  <g filter="url(#alpha)">
<rect x="0" y="0" width="105" height="91" style="fill:rgb(0%,0%,0%);fill-opacity:0.054902;stroke:none;"/>
  </g>
</mask>
<clipPath id="clip7">
  <rect x="0" y="0" width="105" height="92"/>
</clipPath>
<g id="surface23" clip-path="url(#clip7)">
<path style=" stroke:none;fill-rule:evenodd;fill:rgb(15.294118%,18.039216%,22.745098%);fill-opacity:1;" d="M 5.75 35.949219 C 0.785156 39.75 -0.546875 44.609375 1.75 50.527344 C 0.734375 49.980469 0.0664062 49.140625 -0.25 48.015625 C -0.25 47.847656 -0.25 47.679688 -0.25 47.511719 C 0.417969 47.34375 0.417969 47.175781 -0.25 47.007812 C -0.25 45.667969 -0.25 44.328125 -0.25 42.984375 C 0.921875 40.558594 2.421875 38.296875 4.25 36.199219 C 4.722656 35.957031 5.222656 35.871094 5.75 35.949219 Z M 5.75 35.949219 "/>
</g>
<mask id="mask7">
  <g filter="url(#alpha)">
<rect x="0" y="0" width="105" height="91" style="fill:rgb(0%,0%,0%);fill-opacity:0.960784;stroke:none;"/>
  </g>
</mask>
<clipPath id="clip8">
  <rect x="0" y="0" width="105" height="92"/>
</clipPath>
<g id="surface26" clip-path="url(#clip8)">
<path style=" stroke:none;fill-rule:evenodd;fill:rgb(4.313725%,3.921569%,4.705882%);fill-opacity:1;" d="M 29.75 32.429688 C 29.667969 33.28125 29.753906 34.121094 30 34.941406 C 31.292969 36.960938 32.210938 39.140625 32.75 41.476562 C 33.417969 46.75 32.25 51.523438 29.25 55.804688 C 30.507812 59.175781 31.507812 62.613281 32.25 66.113281 C 32.515625 67.160156 33.015625 68.082031 33.75 68.878906 C 34.21875 69.226562 34.550781 69.140625 34.75 68.628906 C 34.40625 66.621094 34.320312 64.609375 34.5 62.59375 C 34.667969 63.597656 34.832031 64.605469 35 65.609375 C 35.207031 66.242188 35.625 66.578125 36.25 66.617188 C 37.109375 68.679688 38.441406 70.355469 40.25 71.644531 C 44.230469 74.902344 48.730469 76.914062 53.75 77.675781 C 52.308594 77.75 51.140625 78.25 50.25 79.183594 C 47.429688 78.523438 44.765625 77.433594 42.25 75.917969 C 40.441406 74.175781 38.441406 72.75 36.25 71.644531 C 36.09375 71.019531 35.84375 71.019531 35.5 71.644531 C 35.167969 75.164062 35.167969 78.683594 35.5 82.203125 C 36.40625 84.289062 37.988281 85.296875 40.25 85.21875 C 44.527344 85.632812 48.859375 86.132812 53.25 86.726562 C 53.292969 87.226562 53.125 87.644531 52.75 87.984375 C 51.761719 88.230469 50.761719 88.316406 49.75 88.234375 C 46.484375 87.460938 43.152344 87.042969 39.75 86.976562 C 36.464844 86.886719 34.382812 85.292969 33.5 82.203125 C 33.132812 78.921875 33.214844 75.652344 33.75 72.398438 C 33.023438 71.324219 32.273438 70.234375 31.5 69.128906 C 30.082031 64.421875 28.664062 59.730469 27.25 55.050781 C 25.582031 55.050781 23.917969 55.050781 22.25 55.050781 C 21.722656 55.128906 21.222656 55.042969 20.75 54.800781 C 20.3125 54.003906 19.8125 53.25 19.25 52.539062 C 18.742188 52.886719 18.242188 53.222656 17.75 53.542969 C 12.765625 57.015625 7.933594 56.847656 3.25 53.042969 C 1.957031 52.765625 1.457031 51.929688 1.75 50.527344 C -0.546875 44.609375 0.785156 39.75 5.75 35.949219 C 5.921875 35.527344 6.253906 35.359375 6.75 35.445312 C 11.535156 34.226562 15.617188 35.402344 19 38.964844 C 20.566406 35.367188 23.316406 33.945312 27.25 34.691406 C 28.058594 33.570312 28.390625 32.3125 28.25 30.917969 C 28.574219 30.621094 28.910156 30.289062 29.25 29.914062 C 29.726562 30.691406 29.894531 31.527344 29.75 32.429688 Z M 29.75 32.429688 "/>
</g>
<mask id="mask8">
  <g filter="url(#alpha)">
<rect x="0" y="0" width="105" height="91" style="fill:rgb(0%,0%,0%);fill-opacity:0.0470588;stroke:none;"/>
  </g>
</mask>
<clipPath id="clip9">
  <rect x="0" y="0" width="105" height="92"/>
</clipPath>
<g id="surface29" clip-path="url(#clip9)">
<path style=" stroke:none;fill-rule:evenodd;fill:rgb(15.294118%,18.039216%,22.745098%);fill-opacity:1;" d="M 3.25 53.042969 C 7.933594 56.847656 12.765625 57.015625 17.75 53.542969 C 16.15625 56.023438 13.820312 57.195312 10.75 57.0625 C 8.328125 57 6.164062 56.246094 4.25 54.800781 C 3.589844 54.390625 3.253906 53.804688 3.25 53.042969 Z M 3.25 53.042969 "/>
</g>
<mask id="mask9">
  <g filter="url(#alpha)">
<rect x="0" y="0" width="105" height="91" style="fill:rgb(0%,0%,0%);fill-opacity:0.00784314;stroke:none;"/>
  </g>
</mask>
<clipPath id="clip10">
  <rect x="0" y="0" width="105" height="92"/>
</clipPath>
<g id="surface32" clip-path="url(#clip10)">
<path style=" stroke:none;fill-rule:evenodd;fill:rgb(16.078431%,20%,23.921569%);fill-opacity:1;" d="M 22.25 55.050781 C 23.917969 55.050781 25.582031 55.050781 27.25 55.050781 C 28.664062 59.730469 30.082031 64.421875 31.5 69.128906 C 32.273438 70.234375 33.023438 71.324219 33.75 72.398438 C 33.214844 75.652344 33.132812 78.921875 33.5 82.203125 C 34.382812 85.292969 36.464844 86.886719 39.75 86.976562 C 43.152344 87.042969 46.484375 87.460938 49.75 88.234375 C 50.804688 88.722656 51.96875 88.890625 53.25 88.738281 C 53.09375 89.230469 52.761719 89.566406 52.25 89.742188 C 48.277344 88.859375 44.109375 88.269531 39.75 87.984375 C 34.285156 87.179688 31.785156 83.992188 32.25 78.429688 C 33.375 74.929688 32.792969 71.832031 30.5 69.128906 C 29.355469 64.90625 28.023438 60.71875 26.5 56.5625 C 25.296875 56.171875 24.046875 55.921875 22.75 55.804688 C 22.472656 55.613281 22.304688 55.363281 22.25 55.050781 Z M 22.25 55.050781 "/>
</g>
<mask id="mask10">
  <g filter="url(#alpha)">
<rect x="0" y="0" width="105" height="91" style="fill:rgb(0%,0%,0%);fill-opacity:0.0235294;stroke:none;"/>
  </g>
</mask>
<clipPath id="clip11">
  <rect x="0" y="0" width="105" height="92"/>
</clipPath>
<g id="surface35" clip-path="url(#clip11)">
<path style=" stroke:none;fill-rule:evenodd;fill:rgb(15.686275%,20.392157%,24.705882%);fill-opacity:1;" d="M 96.75 21.871094 C 98.132812 21.992188 99.214844 22.664062 100 23.882812 C 102.148438 28.429688 103.730469 33.125 104.75 37.957031 C 104.75 42.316406 104.75 46.671875 104.75 51.03125 C 103.710938 56.476562 102.125 61.835938 100 67.117188 C 97.488281 70.402344 94.238281 71.492188 90.25 70.386719 C 89.097656 73.597656 87.015625 76.359375 84 78.683594 C 83.246094 84.546875 80.164062 88.570312 74.75 90.75 C 73.082031 90.75 71.417969 90.75 69.75 90.75 C 66.675781 89.933594 64.175781 88.175781 62.25 85.46875 C 60.917969 85.132812 59.582031 85.132812 58.25 85.46875 C 57.949219 86.511719 57.28125 87.097656 56.25 87.230469 C 56.863281 86.324219 57.199219 85.320312 57.25 84.210938 C 59.089844 84.128906 60.925781 84.214844 62.75 84.464844 C 64.140625 86.867188 66.140625 88.542969 68.75 89.492188 C 77.328125 90.585938 82.078125 86.816406 83 78.179688 C 86.464844 76.039062 88.796875 73.023438 90 69.128906 C 90.207031 68.898438 90.457031 68.730469 90.75 68.628906 C 95.671875 70.847656 98.671875 69.339844 99.75 64.101562 C 101.207031 61.449219 102.289062 58.601562 103 55.554688 C 103.726562 49.371094 103.890625 43.167969 103.5 36.953125 C 102.742188 33.117188 101.578125 29.433594 100 25.890625 C 99.347656 24.152344 98.265625 22.8125 96.75 21.871094 Z M 96.75 21.871094 "/>
</g>
</defs>
<g id="surface1">
<use xlink:href="#surface5" mask="url(#mask0)"/>
<path style=" stroke:none;fill-rule:evenodd;fill:rgb(81.568627%,49.803922%,14.509804%);fill-opacity:1;" d="M 54.75 5.78125 C 54.75 7.457031 54.75 9.132812 54.75 10.808594 C 54.082031 10.808594 53.417969 10.808594 52.75 10.808594 C 52.90625 9.027344 52.738281 7.351562 52.25 5.78125 C 52.042969 5.46875 51.707031 5.300781 51.25 5.277344 C 49.742188 5.617188 48.242188 5.949219 46.75 6.285156 C 43.824219 6.453125 40.988281 6.871094 38.25 7.542969 C 39.875 6.679688 40.875 5.589844 41.25 4.273438 C 45.25 4.023438 49.25 3.9375 53.25 4.023438 C 54.214844 4.234375 54.714844 4.820312 54.75 5.78125 Z M 54.75 5.78125 "/>
<use xlink:href="#surface8" mask="url(#mask1)"/>
<use xlink:href="#surface11" mask="url(#mask2)"/>
<path style=" stroke:none;fill-rule:evenodd;fill:rgb(33.72549%,76.862745%,81.176471%);fill-opacity:1;" d="M 76.25 5.277344 C 72.660156 6.339844 69.328125 7.933594 66.25 10.054688 C 65.46875 10.441406 64.800781 10.355469 64.25 9.804688 C 65.902344 5.058594 69.238281 3.128906 74.25 4.023438 C 75.160156 4.121094 75.828125 4.542969 76.25 5.277344 Z M 76.25 5.277344 "/>
<path style=" stroke:none;fill-rule:evenodd;fill:rgb(98.039216%,67.45098%,4.705882%);fill-opacity:1;" d="M 41.25 4.273438 C 40.875 5.589844 39.875 6.679688 38.25 7.542969 C 40.988281 6.871094 43.824219 6.453125 46.75 6.285156 C 46.082031 6.789062 45.417969 7.289062 44.75 7.792969 C 41.347656 9.601562 38.847656 12.285156 37.25 15.835938 C 36.882812 16.445312 36.714844 17.113281 36.75 17.847656 C 36.25 17.847656 35.75 17.847656 35.25 17.847656 C 35.167969 14.324219 35.25 10.804688 35.5 7.289062 C 35.703125 6.585938 35.953125 5.914062 36.25 5.277344 C 37.789062 4.433594 39.457031 4.097656 41.25 4.273438 Z M 41.25 4.273438 "/>
<path style=" stroke:none;fill-rule:evenodd;fill:rgb(14.901961%,41.568627%,52.156863%);fill-opacity:1;" d="M 76.25 5.277344 C 77.183594 5.460938 77.933594 5.960938 78.5 6.789062 C 79.523438 8.117188 80.109375 9.625 80.25 11.3125 C 74.75 11.035156 69.25 10.703125 63.75 10.304688 C 63.8125 10 63.976562 9.835938 64.25 9.804688 C 64.800781 10.355469 65.46875 10.441406 66.25 10.054688 C 69.328125 7.933594 72.660156 6.339844 76.25 5.277344 Z M 76.25 5.277344 "/>
<path style=" stroke:none;fill-rule:evenodd;fill:rgb(62.352941%,34.117647%,7.45098%);fill-opacity:1;" d="M 52.25 5.78125 C 51.757812 7.523438 51.59375 9.367188 51.75 11.3125 C 46.59375 12.648438 42.09375 15.160156 38.25 18.855469 C 37.152344 18.664062 36.152344 18.328125 35.25 17.847656 C 35.75 17.847656 36.25 17.847656 36.75 17.847656 C 36.714844 17.113281 36.882812 16.445312 37.25 15.835938 C 37.578125 16.289062 37.914062 16.792969 38.25 17.34375 C 39.097656 16.3125 39.679688 15.140625 40 13.824219 C 40.492188 14.980469 40.910156 14.8125 41.25 13.324219 C 43.226562 12.699219 44.226562 11.355469 44.25 9.300781 C 46.144531 9.332031 47.230469 8.492188 47.5 6.789062 C 46.707031 7.472656 45.792969 7.808594 44.75 7.792969 C 45.417969 7.289062 46.082031 6.789062 46.75 6.285156 C 48.242188 5.949219 49.742188 5.617188 51.25 5.277344 C 51.707031 5.300781 52.042969 5.46875 52.25 5.78125 Z M 52.25 5.78125 "/>
<path style=" stroke:none;fill-rule:evenodd;fill:rgb(23.921569%,10.980392%,5.882353%);fill-opacity:1;" d="M 52.25 5.78125 C 52.738281 7.351562 52.90625 9.027344 52.75 10.808594 C 53.417969 10.808594 54.082031 10.808594 54.75 10.808594 C 54.75 9.132812 54.75 7.457031 54.75 5.78125 C 55.242188 7.523438 55.40625 9.367188 55.25 11.3125 C 54.082031 11.3125 52.917969 11.3125 51.75 11.3125 C 51.59375 9.367188 51.757812 7.523438 52.25 5.78125 Z M 52.25 5.78125 "/>
<path style=" stroke:none;fill-rule:evenodd;fill:rgb(20%,40%,48.235294%);fill-opacity:1;" d="M 57.25 8.296875 C 58.75 8.296875 60.25 8.296875 61.75 8.296875 C 61.75 9.132812 61.75 9.972656 61.75 10.808594 C 60.050781 10.96875 58.382812 10.804688 56.75 10.304688 C 57.121094 9.683594 57.289062 9.015625 57.25 8.296875 Z M 57.25 8.296875 "/>
<path style=" stroke:none;fill-rule:evenodd;fill:rgb(69.803922%,35.686275%,5.098039%);fill-opacity:1;" d="M 37.25 15.835938 C 38.847656 12.285156 41.347656 9.601562 44.75 7.792969 C 45.792969 7.808594 46.707031 7.472656 47.5 6.789062 C 47.230469 8.492188 46.144531 9.332031 44.25 9.300781 C 44.226562 11.355469 43.226562 12.699219 41.25 13.324219 C 40.910156 14.8125 40.492188 14.980469 40 13.824219 C 39.679688 15.140625 39.097656 16.3125 38.25 17.34375 C 37.914062 16.792969 37.578125 16.289062 37.25 15.835938 Z M 37.25 15.835938 "/>
<use xlink:href="#surface14" mask="url(#mask3)"/>
<path style=" stroke:none;fill-rule:evenodd;fill:rgb(11.372549%,47.058824%,61.568627%);fill-opacity:1;" d="M 78.25 13.824219 C 73.84375 13.871094 69.34375 13.953125 64.75 14.078125 C 63.191406 14.652344 61.691406 15.324219 60.25 16.089844 C 61.351562 16.613281 62.515625 17.03125 63.75 17.34375 C 62.503906 17.886719 61.335938 18.558594 60.25 19.355469 C 59.808594 19.769531 59.640625 20.273438 59.75 20.863281 C 56.035156 20.945312 52.367188 20.945312 48.75 20.863281 C 47.597656 21.097656 46.929688 21.769531 46.75 22.875 C 43.351562 23.660156 40.515625 25.335938 38.25 27.902344 C 37.625 27.863281 37.207031 27.527344 37 26.898438 C 36.832031 27.566406 36.667969 28.238281 36.5 28.910156 C 36.335938 26.828125 36.585938 24.816406 37.25 22.875 C 37.917969 22.039062 38.582031 21.199219 39.25 20.363281 C 43.300781 16.902344 47.96875 14.636719 53.25 13.574219 C 61.597656 13.183594 69.929688 13.269531 78.25 13.824219 Z M 78.25 13.824219 "/>
<path style=" stroke:none;fill-rule:evenodd;fill:rgb(13.72549%,45.490196%,57.647059%);fill-opacity:1;" d="M 78.25 13.824219 C 83.03125 15.027344 86.113281 18.042969 87.5 22.875 C 88.691406 26.703125 89.773438 30.558594 90.75 34.4375 C 90.417969 34.773438 90.082031 35.109375 89.75 35.445312 C 90.207031 35.859375 90.539062 36.363281 90.75 36.953125 C 91.042969 38.824219 91.378906 40.667969 91.75 42.484375 C 91.25 42.484375 90.75 42.484375 90.25 42.484375 C 88.421875 36.542969 86.835938 30.507812 85.5 24.382812 C 83.789062 26.855469 82.457031 29.535156 81.5 32.429688 C 80.351562 33.921875 79.101562 35.265625 77.75 36.449219 C 71.140625 40.355469 65.554688 39.179688 61 32.929688 C 59.976562 29.921875 59.226562 26.90625 58.75 23.882812 C 58.75 23.042969 58.75 22.207031 58.75 21.367188 C 57.773438 21.230469 57.023438 21.566406 56.5 22.371094 C 55.675781 21.605469 54.675781 21.269531 53.5 21.367188 C 51.171875 21.597656 48.921875 22.097656 46.75 22.875 C 46.929688 21.769531 47.597656 21.097656 48.75 20.863281 C 52.367188 20.945312 56.035156 20.945312 59.75 20.863281 C 59.640625 20.273438 59.808594 19.769531 60.25 19.355469 C 61.335938 18.558594 62.503906 17.886719 63.75 17.34375 C 62.515625 17.03125 61.351562 16.613281 60.25 16.089844 C 61.691406 15.324219 63.191406 14.652344 64.75 14.078125 C 69.34375 13.953125 73.84375 13.871094 78.25 13.824219 Z M 78.25 13.824219 "/>
<path style=" stroke:none;fill-rule:evenodd;fill:rgb(0.392157%,1.176471%,1.960784%);fill-opacity:1;" d="M 68.25 17.847656 C 76.300781 17.144531 80.214844 20.832031 80 28.910156 C 78.230469 35.285156 74.148438 37.71875 67.75 36.199219 C 62.558594 33.71875 60.644531 29.613281 62 23.882812 C 63.371094 21.074219 65.457031 19.066406 68.25 17.847656 Z M 68.25 17.847656 "/>
<use xlink:href="#surface17" mask="url(#mask4)"/>
<path style=" stroke:none;fill-rule:evenodd;fill:rgb(16.078431%,38.431373%,47.843137%);fill-opacity:1;" d="M 33.75 31.925781 C 33.417969 30.320312 33.082031 28.644531 32.75 26.898438 C 32.410156 26.714844 32.074219 26.546875 31.75 26.394531 C 32.085938 24.800781 32.667969 23.292969 33.5 21.871094 C 33.917969 21.113281 34.5 20.859375 35.25 21.117188 C 34.5 21.867188 34.082031 22.789062 34 23.882812 C 33.75 26.558594 33.667969 29.238281 33.75 31.925781 Z M 33.75 31.925781 "/>
<path style=" stroke:none;fill-rule:evenodd;fill:rgb(14.117647%,26.666667%,35.294118%);fill-opacity:1;" d="M 93.25 24.382812 C 96.09375 23.898438 97.59375 25.070312 97.75 27.902344 C 95.589844 28.117188 93.421875 28.285156 91.25 28.40625 C 91.164062 27.21875 90.996094 26.046875 90.75 24.886719 C 91.707031 25.03125 92.539062 24.863281 93.25 24.382812 Z M 93.25 24.382812 "/>
<path style=" stroke:none;fill-rule:evenodd;fill:rgb(41.176471%,84.705882%,83.529412%);fill-opacity:1;" d="M 58.75 23.882812 C 59.226562 26.90625 59.976562 29.921875 61 32.929688 C 65.554688 39.179688 71.140625 40.355469 77.75 36.449219 C 78.292969 36.46875 78.792969 36.636719 79.25 36.953125 C 79.660156 35.824219 80.160156 35.738281 80.75 36.703125 C 80.167969 37.246094 79.5 37.664062 78.75 37.957031 C 78.308594 38.375 78.140625 38.875 78.25 39.46875 C 77.75 39.46875 77.25 39.46875 76.75 39.46875 C 76.613281 40.632812 76.949219 41.640625 77.75 42.484375 C 77.15625 42.949219 76.488281 43.117188 75.75 42.984375 C 75.296875 39.070312 74.632812 39.070312 73.75 42.984375 C 72.820312 42.964844 72.152344 43.386719 71.75 44.242188 C 72.355469 45.171875 73.023438 45.589844 73.75 45.5 C 72.839844 46 72.089844 46.667969 71.5 47.511719 C 71.15625 46.867188 71.242188 46.277344 71.75 45.75 C 71.125 44.835938 70.542969 44.917969 70 46.003906 C 69.546875 45.027344 68.796875 44.523438 67.75 44.496094 C 67.816406 44.121094 67.730469 43.789062 67.5 43.488281 C 67.167969 44.160156 66.832031 44.160156 66.5 43.488281 C 65.667969 44.160156 64.832031 44.828125 64 45.5 C 62.226562 44.585938 60.476562 43.75 58.75 42.984375 C 58.972656 41.464844 59.390625 41.296875 60 42.484375 C 60.25 42.230469 60.5 41.980469 60.75 41.730469 C 60.082031 41.226562 60.082031 40.722656 60.75 40.222656 C 60.128906 39.992188 59.710938 40.242188 59.5 40.976562 C 59.136719 39.738281 58.472656 39.234375 57.5 39.46875 C 56.945312 38.832031 56.859375 38.246094 57.25 37.707031 C 56.277344 38.078125 55.359375 38.328125 54.5 38.460938 C 53.761719 36.871094 52.511719 35.949219 50.75 35.695312 C 51.957031 35.113281 52.957031 34.273438 53.75 33.183594 C 53.027344 32.621094 52.191406 32.285156 51.25 32.175781 C 52.164062 32.039062 52.914062 31.621094 53.5 30.917969 C 53.988281 32.117188 54.320312 31.949219 54.5 30.417969 C 55.664062 32.378906 56.414062 32.128906 56.75 29.664062 C 56.101562 28.207031 55.765625 26.613281 55.75 24.886719 C 56.46875 24.816406 57.136719 24.316406 57.75 23.378906 C 58.089844 23.5625 58.425781 23.726562 58.75 23.882812 Z M 58.75 23.882812 "/>
<path style=" stroke:none;fill-rule:evenodd;fill:rgb(43.529412%,84.313725%,83.529412%);fill-opacity:1;" d="M 90.25 42.484375 C 90.023438 46.707031 89.523438 50.894531 88.75 55.050781 C 88.210938 57.597656 87.542969 60.109375 86.75 62.59375 C 85.832031 62.90625 85.25 63.578125 85 64.605469 C 84.371094 67.03125 83.621094 69.378906 82.75 71.644531 C 81.242188 71.5625 79.742188 71.644531 78.25 71.894531 C 75.109375 73.054688 75.109375 73.808594 78.25 74.15625 C 80.363281 74.140625 82.113281 73.300781 83.5 71.644531 C 84.011719 70.265625 84.761719 69.09375 85.75 68.125 C 85.617188 68.929688 85.78125 69.597656 86.25 70.136719 C 84.605469 74.488281 81.441406 76.921875 76.75 77.425781 C 74.589844 77.675781 72.421875 77.761719 70.25 77.675781 C 70.25 77.175781 70.25 76.671875 70.25 76.167969 C 65.082031 75.847656 59.914062 75.425781 54.75 74.910156 C 52.394531 74.535156 50.226562 73.78125 48.25 72.648438 C 50.183594 73.28125 52.183594 73.617188 54.25 73.65625 C 55.851562 73.730469 57.351562 73.394531 58.75 72.648438 C 59.097656 72.914062 59.347656 73.25 59.5 73.65625 C 59.882812 71.613281 59.800781 69.601562 59.25 67.621094 C 59.664062 67.175781 60.164062 67.007812 60.75 67.117188 C 60.925781 68.144531 60.925781 69.066406 60.75 69.882812 C 61.222656 70.125 61.722656 70.210938 62.25 70.136719 C 60.9375 65.773438 60.9375 61.414062 62.25 57.0625 C 62.75 57.0625 63.25 57.0625 63.75 57.0625 C 60.960938 61.597656 61.128906 66.039062 64.25 70.386719 C 68.035156 72.992188 72.035156 73.328125 76.25 71.390625 C 80.601562 67.386719 81.351562 62.777344 78.5 57.566406 C 77.441406 56.25 76.191406 55.242188 74.75 54.550781 C 76.589844 54.664062 78.421875 54.832031 80.25 55.050781 C 80.210938 56.566406 80.878906 57.65625 82.25 58.320312 C 82.082031 58.488281 81.917969 58.65625 81.75 58.824219 C 82.933594 59.867188 84.265625 60.625 85.75 61.085938 C 85.09375 58.886719 85.261719 56.792969 86.25 54.800781 C 85.769531 54.222656 85.9375 53.722656 86.75 53.292969 C 86.582031 53.125 86.417969 52.957031 86.25 52.789062 C 87.011719 52.28125 87.847656 52.03125 88.75 52.035156 C 89.128906 48.519531 89.210938 45.003906 89 41.476562 C 87.746094 39.546875 85.996094 38.792969 83.75 39.214844 C 84.863281 39.496094 85.863281 40 86.75 40.722656 C 86.277344 40.964844 85.777344 41.050781 85.25 40.976562 C 85.488281 42.273438 85.152344 43.277344 84.25 43.992188 C 85.144531 42.335938 84.644531 41.5 82.75 41.476562 C 80.476562 42.117188 78.3125 43.039062 76.25 44.242188 C 74.914062 45.671875 75.082031 46.929688 76.75 48.015625 C 75.738281 48.09375 74.738281 48.011719 73.75 47.761719 C 74.144531 46.621094 74.476562 45.449219 74.75 44.242188 C 74.679688 43.589844 74.347656 43.171875 73.75 42.984375 C 74.632812 39.070312 75.296875 39.070312 75.75 42.984375 C 76.488281 43.117188 77.15625 42.949219 77.75 42.484375 C 76.949219 41.640625 76.613281 40.632812 76.75 39.46875 C 77.25 39.46875 77.75 39.46875 78.25 39.46875 C 78.140625 38.875 78.308594 38.375 78.75 37.957031 C 79.5 37.664062 80.167969 37.246094 80.75 36.703125 C 80.160156 35.738281 79.660156 35.824219 79.25 36.953125 C 78.792969 36.636719 78.292969 36.46875 77.75 36.449219 C 79.101562 35.265625 80.351562 33.921875 81.5 32.429688 C 82.457031 29.535156 83.789062 26.855469 85.5 24.382812 C 86.835938 30.507812 88.421875 36.542969 90.25 42.484375 Z M 90.25 42.484375 "/>
<path style=" stroke:none;fill-rule:evenodd;fill:rgb(15.294118%,40.784314%,50.196078%);fill-opacity:1;" d="M 96.75 30.417969 C 99.410156 30.378906 100.410156 31.722656 99.75 34.4375 C 98.917969 34.4375 98.082031 34.4375 97.25 34.4375 C 97.300781 33.0625 97.132812 31.722656 96.75 30.417969 Z M 96.75 30.417969 "/>
<path style=" stroke:none;fill-rule:evenodd;fill:rgb(18.039216%,50.980392%,61.176471%);fill-opacity:1;" d="M 92.25 30.417969 C 93.417969 30.417969 94.582031 30.417969 95.75 30.417969 C 96.046875 31.738281 96.210938 33.078125 96.25 34.4375 C 95.082031 34.4375 93.917969 34.4375 92.75 34.4375 C 92.710938 33.078125 92.546875 31.738281 92.25 30.417969 Z M 92.25 30.417969 "/>
<path style=" stroke:none;fill-rule:evenodd;fill:rgb(38.039216%,83.529412%,83.137255%);fill-opacity:1;" d="M 58.75 23.882812 C 58.425781 23.726562 58.089844 23.5625 57.75 23.378906 C 57.136719 24.316406 56.46875 24.816406 55.75 24.886719 C 55.765625 26.613281 56.101562 28.207031 56.75 29.664062 C 56.414062 32.128906 55.664062 32.378906 54.5 30.417969 C 54.320312 31.949219 53.988281 32.117188 53.5 30.917969 C 52.914062 31.621094 52.164062 32.039062 51.25 32.175781 C 52.191406 32.285156 53.027344 32.621094 53.75 33.183594 C 52.957031 34.273438 51.957031 35.113281 50.75 35.695312 C 52.511719 35.949219 53.761719 36.871094 54.5 38.460938 C 55.359375 38.328125 56.277344 38.078125 57.25 37.707031 C 56.859375 38.246094 56.945312 38.832031 57.5 39.46875 C 58.472656 39.234375 59.136719 39.738281 59.5 40.976562 C 59.710938 40.242188 60.128906 39.992188 60.75 40.222656 C 60.082031 40.722656 60.082031 41.226562 60.75 41.730469 C 60.5 41.980469 60.25 42.230469 60 42.484375 C 59.390625 41.296875 58.972656 41.464844 58.75 42.984375 C 58.125 42.949219 57.707031 42.613281 57.5 41.980469 C 57.390625 42.929688 57.058594 43.765625 56.5 44.496094 C 56.433594 43.234375 55.933594 42.230469 55 41.476562 C 54.75 42.066406 54.332031 42.484375 53.75 42.734375 C 54.644531 42.945312 55.3125 43.445312 55.75 44.242188 C 55.417969 44.410156 55.082031 44.578125 54.75 44.746094 C 55.3125 45.269531 55.976562 45.605469 56.75 45.75 C 55.78125 46.207031 55.28125 46.960938 55.25 48.015625 C 54.5625 47.933594 53.898438 48.019531 53.25 48.265625 C 53.417969 48.769531 53.582031 49.269531 53.75 49.773438 C 53.5 50.023438 53.25 50.277344 53 50.527344 C 52.300781 50.25 51.632812 50.082031 51 50.023438 C 50.257812 50.402344 50.171875 50.820312 50.75 51.28125 C 49.773438 51.761719 48.9375 52.429688 48.25 53.292969 C 48.320312 54.097656 48.320312 54.851562 48.25 55.554688 C 46.285156 56.300781 44.285156 56.71875 42.25 56.8125 C 42.152344 55.332031 41.902344 53.90625 41.5 52.539062 C 41.332031 54.046875 41.167969 55.554688 41 57.0625 C 40.832031 57.230469 40.667969 57.398438 40.5 57.566406 C 40.402344 56.523438 40.152344 55.515625 39.75 54.550781 C 39.332031 56.542969 38.664062 58.386719 37.75 60.082031 C 38.394531 54.820312 38.894531 49.542969 39.25 44.242188 C 38.914062 39.789062 38.414062 35.347656 37.75 30.917969 C 37.835938 29.890625 38.003906 28.886719 38.25 27.902344 C 40.515625 25.335938 43.351562 23.660156 46.75 22.875 C 48.921875 22.097656 51.171875 21.597656 53.5 21.367188 C 54.675781 21.269531 55.675781 21.605469 56.5 22.371094 C 57.023438 21.566406 57.773438 21.230469 58.75 21.367188 C 58.75 22.207031 58.75 23.042969 58.75 23.882812 Z M 58.75 23.882812 "/>
<use xlink:href="#surface20" mask="url(#mask5)"/>
<path style=" stroke:none;fill-rule:evenodd;fill:rgb(21.960784%,65.098039%,73.72549%);fill-opacity:1;" d="M 93.25 36.449219 C 94.582031 36.449219 95.917969 36.449219 97.25 36.449219 C 97.25 37.957031 97.25 39.46875 97.25 40.976562 C 96.082031 40.976562 94.917969 40.976562 93.75 40.976562 C 93.519531 39.476562 93.351562 37.96875 93.25 36.449219 Z M 93.25 36.449219 "/>
<path style=" stroke:none;fill-rule:evenodd;fill:rgb(18.823529%,62.352941%,71.764706%);fill-opacity:1;" d="M 31.75 26.394531 C 32.074219 26.546875 32.410156 26.714844 32.75 26.898438 C 33.082031 28.644531 33.417969 30.320312 33.75 31.925781 C 34.019531 36.035156 34.355469 40.140625 34.75 44.242188 C 33.863281 51.679688 33.613281 59.136719 34 66.617188 C 34.105469 67.398438 34.355469 68.070312 34.75 68.628906 C 34.550781 69.140625 34.21875 69.226562 33.75 68.878906 C 33.015625 68.082031 32.515625 67.160156 32.25 66.113281 C 32.5625 65.902344 32.730469 65.566406 32.75 65.109375 C 32.425781 61.164062 32.089844 57.226562 31.75 53.292969 C 33.226562 49.375 33.558594 45.4375 32.75 41.476562 C 32.210938 39.140625 31.292969 36.960938 30 34.941406 C 29.753906 34.121094 29.667969 33.28125 29.75 32.429688 C 30.703125 30.558594 31.371094 28.550781 31.75 26.394531 Z M 31.75 26.394531 "/>
<path style=" stroke:none;fill-rule:evenodd;fill:rgb(24.313725%,57.647059%,64.313725%);fill-opacity:1;" d="M 98.25 36.449219 C 99.144531 36.308594 99.976562 36.472656 100.75 36.953125 C 101.195312 38.253906 101.363281 39.59375 101.25 40.976562 C 100.25 40.976562 99.25 40.976562 98.25 40.976562 C 98.25 39.46875 98.25 37.957031 98.25 36.449219 Z M 98.25 36.449219 "/>
<use xlink:href="#surface23" mask="url(#mask6)"/>
<path style=" stroke:none;fill-rule:evenodd;fill:rgb(38.823529%,83.921569%,82.745098%);fill-opacity:1;" d="M 58.75 42.984375 C 60.476562 43.75 62.226562 44.585938 64 45.5 C 64.832031 44.828125 65.667969 44.160156 66.5 43.488281 C 66.832031 44.160156 67.167969 44.160156 67.5 43.488281 C 67.730469 43.789062 67.816406 44.121094 67.75 44.496094 C 67.402344 45.285156 67.234375 46.039062 67.25 46.757812 C 68.164062 47.132812 69 47.636719 69.75 48.265625 C 69.144531 48.714844 69.144531 49.132812 69.75 49.523438 C 70.367188 49.898438 71.035156 50.066406 71.75 50.023438 C 71.75 50.695312 71.75 51.367188 71.75 52.035156 C 71.003906 51.554688 70.089844 51.21875 69 51.03125 C 68.417969 51.199219 67.832031 51.367188 67.25 51.53125 C 67.285156 52.195312 67.285156 52.867188 67.25 53.542969 C 67.738281 53.304688 68.15625 52.96875 68.5 52.539062 C 70.398438 52.957031 72.3125 53.375 74.25 53.796875 C 74.527344 53.988281 74.695312 54.238281 74.75 54.550781 C 70.578125 53.296875 66.914062 54.136719 63.75 57.0625 C 63.25 57.0625 62.75 57.0625 62.25 57.0625 C 60.9375 61.414062 60.9375 65.773438 62.25 70.136719 C 61.722656 70.210938 61.222656 70.125 60.75 69.882812 C 60.925781 69.066406 60.925781 68.144531 60.75 67.117188 C 60.164062 67.007812 59.664062 67.175781 59.25 67.621094 C 59.800781 69.601562 59.882812 71.613281 59.5 73.65625 C 59.347656 73.25 59.097656 72.914062 58.75 72.648438 C 57.351562 73.394531 55.851562 73.730469 54.25 73.65625 C 52.183594 73.617188 50.183594 73.28125 48.25 72.648438 C 43.347656 70.988281 39.765625 67.804688 37.5 63.097656 C 37.636719 65.011719 38.386719 66.6875 39.75 68.125 C 39.9375 69.007812 40.273438 69.847656 40.75 70.636719 C 40.570312 70.980469 40.402344 71.316406 40.25 71.644531 C 38.441406 70.355469 37.109375 68.679688 36.25 66.617188 C 36.25 66.449219 36.25 66.28125 36.25 66.113281 C 36.191406 63.90625 36.691406 61.894531 37.75 60.082031 C 38.664062 58.386719 39.332031 56.542969 39.75 54.550781 C 40.152344 55.515625 40.402344 56.523438 40.5 57.566406 C 40.667969 57.398438 40.832031 57.230469 41 57.0625 C 41.167969 55.554688 41.332031 54.046875 41.5 52.539062 C 41.902344 53.90625 42.152344 55.332031 42.25 56.8125 C 44.285156 56.71875 46.285156 56.300781 48.25 55.554688 C 48.320312 54.851562 48.320312 54.097656 48.25 53.292969 C 48.9375 52.429688 49.773438 51.761719 50.75 51.28125 C 50.171875 50.820312 50.257812 50.402344 51 50.023438 C 51.632812 50.082031 52.300781 50.25 53 50.527344 C 53.25 50.277344 53.5 50.023438 53.75 49.773438 C 53.582031 49.269531 53.417969 48.769531 53.25 48.265625 C 53.898438 48.019531 54.5625 47.933594 55.25 48.015625 C 55.28125 46.960938 55.78125 46.207031 56.75 45.75 C 55.976562 45.605469 55.3125 45.269531 54.75 44.746094 C 55.082031 44.578125 55.417969 44.410156 55.75 44.242188 C 55.3125 43.445312 54.644531 42.945312 53.75 42.734375 C 54.332031 42.484375 54.75 42.066406 55 41.476562 C 55.933594 42.230469 56.433594 43.234375 56.5 44.496094 C 57.058594 43.765625 57.390625 42.929688 57.5 41.980469 C 57.707031 42.613281 58.125 42.949219 58.75 42.984375 Z M 58.75 42.984375 "/>
<path style=" stroke:none;fill-rule:evenodd;fill:rgb(1.960784%,3.529412%,3.529412%);fill-opacity:1;" d="M 84.25 43.992188 C 80.65625 44.886719 80.492188 46.0625 83.75 47.511719 C 84.515625 49.816406 83.679688 50.570312 81.25 49.773438 C 79.738281 49.179688 78.238281 48.59375 76.75 48.015625 C 75.082031 46.929688 74.914062 45.671875 76.25 44.242188 C 78.3125 43.039062 80.476562 42.117188 82.75 41.476562 C 84.644531 41.5 85.144531 42.335938 84.25 43.992188 Z M 84.25 43.992188 "/>
<path style=" stroke:none;fill-rule:evenodd;fill:rgb(18.431373%,43.921569%,50.588235%);fill-opacity:1;" d="M 98.25 50.023438 C 98.183594 49.652344 98.269531 49.316406 98.5 49.019531 C 99.179688 49.460938 99.929688 49.628906 100.75 49.523438 C 100.910156 47.976562 100.742188 46.46875 100.25 44.996094 C 99.910156 45.179688 99.574219 45.347656 99.25 45.5 C 97.519531 45.007812 95.683594 44.839844 93.75 44.996094 C 93.75 44.160156 93.75 43.320312 93.75 42.484375 C 96.214844 42.332031 98.632812 42.5 101 42.984375 C 101.25 45.328125 101.332031 47.671875 101.25 50.023438 C 100.25 50.023438 99.25 50.023438 98.25 50.023438 Z M 98.25 50.023438 "/>
<path style=" stroke:none;fill-rule:evenodd;fill:rgb(18.431373%,53.72549%,59.215686%);fill-opacity:1;" d="M 90.25 42.484375 C 90.75 42.484375 91.25 42.484375 91.75 42.484375 C 91.75 44.660156 91.75 46.839844 91.75 49.019531 C 91.390625 49.230469 91.140625 49.5625 91 50.023438 C 90.550781 55.207031 89.636719 60.234375 88.25 65.109375 C 88.121094 62.367188 88.457031 59.6875 89.25 57.0625 C 89.078125 56.386719 88.910156 55.714844 88.75 55.050781 C 89.523438 50.894531 90.023438 46.707031 90.25 42.484375 Z M 90.25 42.484375 "/>
<path style=" stroke:none;fill-rule:evenodd;fill:rgb(26.666667%,62.352941%,68.235294%);fill-opacity:1;" d="M 98.25 50.023438 C 97.75 50.023438 97.25 50.023438 96.75 50.023438 C 95.539062 50.179688 94.371094 50.011719 93.25 49.523438 C 93.695312 48.222656 93.863281 46.882812 93.75 45.5 C 95.582031 45.5 97.417969 45.5 99.25 45.5 C 99.574219 45.347656 99.910156 45.179688 100.25 44.996094 C 100.742188 46.46875 100.910156 47.976562 100.75 49.523438 C 99.929688 49.628906 99.179688 49.460938 98.5 49.019531 C 98.269531 49.316406 98.183594 49.652344 98.25 50.023438 Z M 98.25 50.023438 "/>
<path style=" stroke:none;fill-rule:evenodd;fill:rgb(38.823529%,84.705882%,83.529412%);fill-opacity:1;" d="M 74.75 54.550781 C 74.695312 54.238281 74.527344 53.988281 74.25 53.796875 C 72.3125 53.375 70.398438 52.957031 68.5 52.539062 C 68.15625 52.96875 67.738281 53.304688 67.25 53.542969 C 67.285156 52.867188 67.285156 52.195312 67.25 51.53125 C 67.832031 51.367188 68.417969 51.199219 69 51.03125 C 70.089844 51.21875 71.003906 51.554688 71.75 52.035156 C 71.75 51.367188 71.75 50.695312 71.75 50.023438 C 71.035156 50.066406 70.367188 49.898438 69.75 49.523438 C 69.144531 49.132812 69.144531 48.714844 69.75 48.265625 C 69 47.636719 68.164062 47.132812 67.25 46.757812 C 67.234375 46.039062 67.402344 45.285156 67.75 44.496094 C 68.796875 44.523438 69.546875 45.027344 70 46.003906 C 70.542969 44.917969 71.125 44.835938 71.75 45.75 C 71.242188 46.277344 71.15625 46.867188 71.5 47.511719 C 72.089844 46.667969 72.839844 46 73.75 45.5 C 73.023438 45.589844 72.355469 45.171875 71.75 44.242188 C 72.152344 43.386719 72.820312 42.964844 73.75 42.984375 C 74.347656 43.171875 74.679688 43.589844 74.75 44.242188 C 74.476562 45.449219 74.144531 46.621094 73.75 47.761719 C 74.738281 48.011719 75.738281 48.09375 76.75 48.015625 C 78.238281 48.59375 79.738281 49.179688 81.25 49.773438 C 83.679688 50.570312 84.515625 49.816406 83.75 47.511719 C 80.492188 46.0625 80.65625 44.886719 84.25 43.992188 C 85.152344 43.277344 85.488281 42.273438 85.25 40.976562 C 85.777344 41.050781 86.277344 40.964844 86.75 40.722656 C 85.863281 40 84.863281 39.496094 83.75 39.214844 C 85.996094 38.792969 87.746094 39.546875 89 41.476562 C 89.210938 45.003906 89.128906 48.519531 88.75 52.035156 C 87.847656 52.03125 87.011719 52.28125 86.25 52.789062 C 86.417969 52.957031 86.582031 53.125 86.75 53.292969 C 85.9375 53.722656 85.769531 54.222656 86.25 54.800781 C 85.261719 56.792969 85.09375 58.886719 85.75 61.085938 C 84.265625 60.625 82.933594 59.867188 81.75 58.824219 C 81.917969 58.65625 82.082031 58.488281 82.25 58.320312 C 80.878906 57.65625 80.210938 56.566406 80.25 55.050781 C 78.421875 54.832031 76.589844 54.664062 74.75 54.550781 Z M 74.75 54.550781 "/>
<path style=" stroke:none;fill-rule:evenodd;fill:rgb(38.431373%,70.980392%,75.294118%);fill-opacity:1;" d="M 99.75 56.058594 C 99.082031 56.058594 98.417969 56.058594 97.75 56.058594 C 97.664062 54.992188 97.828125 53.984375 98.25 53.042969 C 98.523438 51.742188 99.359375 51.238281 100.75 51.53125 C 100.964844 53.230469 100.632812 54.738281 99.75 56.058594 Z M 99.75 56.058594 "/>
<use xlink:href="#surface26" mask="url(#mask7)"/>
<path style=" stroke:none;fill-rule:evenodd;fill:rgb(91.764706%,23.137255%,31.764706%);fill-opacity:1;" d="M 21.75 38.460938 C 21.667969 42.320312 21.75 46.175781 22 50.023438 C 22.097656 48.980469 22.347656 47.976562 22.75 47.007812 C 23.917969 48.347656 24.835938 49.855469 25.5 51.53125 C 26.054688 52.304688 26.804688 52.640625 27.75 52.539062 C 27.75 52.707031 27.75 52.875 27.75 53.042969 C 25.867188 53.171875 24.03125 53.003906 22.25 52.539062 C 21.320312 48.601562 20.988281 44.582031 21.25 40.472656 C 21.117188 39.667969 21.28125 39 21.75 38.460938 Z M 21.75 38.460938 "/>
<path style=" stroke:none;fill-rule:evenodd;fill:rgb(58.039216%,0%,6.666667%);fill-opacity:1;" d="M 22.25 37.457031 C 24.492188 36.878906 26.824219 36.792969 29.25 37.203125 C 29.625 37.542969 29.792969 37.960938 29.75 38.460938 C 30.582031 43.042969 30.414062 47.566406 29.25 52.035156 C 29.023438 52.4375 28.6875 52.605469 28.25 52.539062 C 28.449219 48.640625 28.199219 44.785156 27.5 40.976562 C 26.472656 38.679688 24.722656 37.507812 22.25 37.457031 Z M 22.25 37.457031 "/>
<path style=" stroke:none;fill-rule:evenodd;fill:rgb(17.647059%,0.784314%,0%);fill-opacity:1;" d="M 21.25 40.472656 C 20.988281 44.582031 21.320312 48.601562 22.25 52.539062 C 21.605469 52.257812 21.1875 51.753906 21 51.03125 C 20.589844 47.421875 20.671875 43.902344 21.25 40.472656 Z M 21.25 40.472656 "/>
<path style=" stroke:none;fill-rule:evenodd;fill:rgb(49.019608%,0.392157%,10.980392%);fill-opacity:1;" d="M 29.75 38.460938 C 30.503906 39.453125 30.921875 40.628906 31 41.980469 C 31.410156 45.566406 31.078125 49.085938 30 52.539062 C 29.320312 52.980469 28.570312 53.148438 27.75 53.042969 C 27.75 52.875 27.75 52.707031 27.75 52.539062 C 27.917969 52.539062 28.082031 52.539062 28.25 52.539062 C 28.6875 52.605469 29.023438 52.4375 29.25 52.035156 C 30.414062 47.566406 30.582031 43.042969 29.75 38.460938 Z M 29.75 38.460938 "/>
<path style=" stroke:none;fill-rule:evenodd;fill:rgb(34.117647%,76.862745%,80.392157%);fill-opacity:1;" d="M 7.25 38.460938 C 9.453125 39.421875 10.871094 41.101562 11.5 43.488281 C 12.441406 46.605469 12.859375 49.789062 12.75 53.042969 C 6.796875 54.023438 3.464844 51.425781 2.75 45.25 C 2.828125 41.980469 4.328125 39.71875 7.25 38.460938 Z M 7.25 38.460938 "/>
<path style=" stroke:none;fill-rule:evenodd;fill:rgb(74.901961%,92.54902%,91.764706%);fill-opacity:1;" d="M 5.25 44.496094 C 7.648438 45.433594 8.984375 47.277344 9.25 50.023438 C 6.113281 49.605469 4.78125 47.761719 5.25 44.496094 Z M 5.25 44.496094 "/>
<path style=" stroke:none;fill-rule:evenodd;fill:rgb(4.313725%,51.764706%,63.921569%);fill-opacity:1;" d="M 12.75 53.042969 C 12.859375 49.789062 12.441406 46.605469 11.5 43.488281 C 10.871094 41.101562 9.453125 39.421875 7.25 38.460938 C 11.828125 36.5625 15.246094 37.902344 17.5 42.484375 C 18.605469 47.292969 17.023438 50.8125 12.75 53.042969 Z M 12.75 53.042969 "/>
<path style=" stroke:none;fill-rule:evenodd;fill:rgb(91.764706%,0.784314%,19.215686%);fill-opacity:1;" d="M 22.25 37.457031 C 24.722656 37.507812 26.472656 38.679688 27.5 40.976562 C 28.199219 44.785156 28.449219 48.640625 28.25 52.539062 C 28.082031 52.539062 27.917969 52.539062 27.75 52.539062 C 26.804688 52.640625 26.054688 52.304688 25.5 51.53125 C 24.835938 49.855469 23.917969 48.347656 22.75 47.007812 C 22.347656 47.976562 22.097656 48.980469 22 50.023438 C 21.75 46.175781 21.667969 42.320312 21.75 38.460938 C 21.917969 38.125 22.082031 37.789062 22.25 37.457031 Z M 22.25 37.457031 "/>
<path style=" stroke:none;fill-rule:evenodd;fill:rgb(0.392157%,1.568627%,2.352941%);fill-opacity:1;" d="M 74.75 54.550781 C 76.191406 55.242188 77.441406 56.25 78.5 57.566406 C 81.351562 62.777344 80.601562 67.386719 76.25 71.390625 C 72.035156 73.328125 68.035156 72.992188 64.25 70.386719 C 61.128906 66.039062 60.960938 61.597656 63.75 57.0625 C 66.914062 54.136719 70.578125 53.296875 74.75 54.550781 Z M 74.75 54.550781 "/>
<use xlink:href="#surface29" mask="url(#mask8)"/>
<path style=" stroke:none;fill-rule:evenodd;fill:rgb(40%,76.470588%,82.745098%);fill-opacity:1;" d="M 32.75 41.476562 C 33.558594 45.4375 33.226562 49.375 31.75 53.292969 C 32.089844 57.226562 32.425781 61.164062 32.75 65.109375 C 32.730469 65.566406 32.5625 65.902344 32.25 66.113281 C 31.507812 62.613281 30.507812 59.175781 29.25 55.804688 C 32.25 51.523438 33.417969 46.75 32.75 41.476562 Z M 32.75 41.476562 "/>
<path style=" stroke:none;fill-rule:evenodd;fill:rgb(16.470588%,56.862745%,63.137255%);fill-opacity:1;" d="M 37.25 22.875 C 36.585938 24.816406 36.335938 26.828125 36.5 28.910156 C 36.667969 28.238281 36.832031 27.566406 37 26.898438 C 37.207031 27.527344 37.625 27.863281 38.25 27.902344 C 38.003906 28.886719 37.835938 29.890625 37.75 30.917969 C 38.414062 35.347656 38.914062 39.789062 39.25 44.242188 C 38.894531 49.542969 38.394531 54.820312 37.75 60.082031 C 36.691406 61.894531 36.191406 63.90625 36.25 66.113281 C 35.917969 64.53125 35.75 62.855469 35.75 61.085938 C 37.027344 50.605469 37.027344 40.132812 35.75 29.664062 C 35.832031 28.070312 35.917969 26.480469 36 24.886719 C 36.304688 24.097656 36.722656 23.429688 37.25 22.875 Z M 37.25 22.875 "/>
<path style=" stroke:none;fill-rule:evenodd;fill:rgb(35.294118%,64.313725%,68.627451%);fill-opacity:1;" d="M 98.25 61.589844 C 97.480469 61.992188 96.644531 62.160156 95.75 62.089844 C 95.835938 60.902344 96.003906 59.730469 96.25 58.570312 C 97.058594 57.78125 98.058594 57.445312 99.25 57.566406 C 99.21875 58.996094 98.886719 60.335938 98.25 61.589844 Z M 98.25 61.589844 "/>
<path style=" stroke:none;fill-rule:evenodd;fill:rgb(4.705882%,5.490196%,5.882353%);fill-opacity:1;" d="M 93.75 44.996094 C 95.683594 44.839844 97.519531 45.007812 99.25 45.5 C 97.417969 45.5 95.582031 45.5 93.75 45.5 C 93.863281 46.882812 93.695312 48.222656 93.25 49.523438 C 94.371094 50.011719 95.539062 50.179688 96.75 50.023438 C 95.582031 50.339844 94.417969 50.757812 93.25 51.28125 C 94.742188 51.53125 96.242188 51.617188 97.75 51.53125 C 97.632812 52.183594 97.796875 52.683594 98.25 53.042969 C 97.828125 53.984375 97.664062 54.992188 97.75 56.058594 C 98.417969 56.058594 99.082031 56.058594 99.75 56.058594 C 98.828125 56.453125 97.828125 56.785156 96.75 57.0625 C 96.308594 57.476562 96.140625 57.980469 96.25 58.570312 C 96.003906 59.730469 95.835938 60.902344 95.75 62.089844 C 96.644531 62.160156 97.480469 61.992188 98.25 61.589844 C 98.746094 61.632812 99.164062 61.464844 99.5 61.085938 C 99.289062 62.035156 99.371094 63.039062 99.75 64.101562 C 98.671875 69.339844 95.671875 70.847656 90.75 68.628906 C 90.457031 68.730469 90.207031 68.898438 90 69.128906 C 88.796875 73.023438 86.464844 76.039062 83 78.179688 C 82.078125 86.816406 77.328125 90.585938 68.75 89.492188 C 66.140625 88.542969 64.140625 86.867188 62.75 84.464844 C 60.925781 84.214844 59.089844 84.128906 57.25 84.210938 C 57.199219 85.320312 56.863281 86.324219 56.25 87.230469 C 55.609375 88.292969 54.609375 88.792969 53.25 88.738281 C 51.96875 88.890625 50.804688 88.722656 49.75 88.234375 C 50.761719 88.316406 51.761719 88.230469 52.75 87.984375 C 53.125 87.644531 53.292969 87.226562 53.25 86.726562 C 53.5625 86.160156 53.976562 85.65625 54.5 85.21875 C 54.75 83.382812 54.832031 81.539062 54.75 79.6875 C 54.082031 79.6875 53.417969 79.6875 52.75 79.6875 C 52.421875 81.171875 52.253906 82.683594 52.25 84.210938 C 51.761719 82.640625 51.59375 80.964844 51.75 79.183594 C 51.25 79.183594 50.75 79.183594 50.25 79.183594 C 51.140625 78.25 52.308594 77.75 53.75 77.675781 C 54.082031 77.675781 54.417969 77.675781 54.75 77.675781 C 59.917969 77.675781 65.082031 77.675781 70.25 77.675781 C 72.421875 77.761719 74.589844 77.675781 76.75 77.425781 C 81.441406 76.921875 84.605469 74.488281 86.25 70.136719 C 87.199219 68.617188 87.867188 66.941406 88.25 65.109375 C 89.636719 60.234375 90.550781 55.207031 91 50.023438 C 91.140625 49.5625 91.390625 49.230469 91.75 49.019531 C 91.695312 49.964844 91.945312 50.132812 92.5 49.523438 C 92.601562 47.863281 93.019531 46.355469 93.75 44.996094 Z M 93.75 44.996094 "/>
<path style=" stroke:none;fill-rule:evenodd;fill:rgb(38.431373%,65.490196%,72.941176%);fill-opacity:1;" d="M 91.75 58.070312 C 93.082031 58.070312 94.417969 58.070312 95.75 58.070312 C 95.953125 61.546875 94.453125 62.71875 91.25 61.589844 C 91.6875 60.457031 91.855469 59.285156 91.75 58.070312 Z M 91.75 58.070312 "/>
<path style=" stroke:none;fill-rule:evenodd;fill:rgb(33.72549%,72.54902%,77.254902%);fill-opacity:1;" d="M 92.75 52.035156 C 94.25 52.035156 95.75 52.035156 97.25 52.035156 C 97.5 55.90625 95.832031 57.082031 92.25 55.554688 C 92.6875 54.425781 92.855469 53.253906 92.75 52.035156 Z M 92.75 52.035156 "/>
<path style=" stroke:none;fill-rule:evenodd;fill:rgb(40.784314%,65.882353%,70.196078%);fill-opacity:1;" d="M 95.25 63.597656 C 95.917969 63.597656 96.582031 63.597656 97.25 63.597656 C 97.46875 66.1875 96.300781 67.527344 93.75 67.621094 C 93.859375 66.109375 94.359375 64.769531 95.25 63.597656 Z M 95.25 63.597656 "/>
<path style=" stroke:none;fill-rule:evenodd;fill:rgb(42.352941%,67.058824%,71.764706%);fill-opacity:1;" d="M 90.75 63.597656 C 91.75 63.597656 92.75 63.597656 93.75 63.597656 C 93.664062 64.785156 93.496094 65.960938 93.25 67.117188 C 90.429688 67.304688 89.597656 66.132812 90.75 63.597656 Z M 90.75 63.597656 "/>
<path style=" stroke:none;fill-rule:evenodd;fill:rgb(26.666667%,67.45098%,68.627451%);fill-opacity:1;" d="M 88.75 55.050781 C 88.910156 55.714844 89.078125 56.386719 89.25 57.0625 C 88.457031 59.6875 88.121094 62.367188 88.25 65.109375 C 87.867188 66.941406 87.199219 68.617188 86.25 70.136719 C 85.78125 69.597656 85.617188 68.929688 85.75 68.125 C 86.210938 66.308594 86.542969 64.464844 86.75 62.59375 C 87.542969 60.109375 88.210938 57.597656 88.75 55.050781 Z M 88.75 55.050781 "/>
<use xlink:href="#surface32" mask="url(#mask9)"/>
<path style=" stroke:none;fill-rule:evenodd;fill:rgb(74.117647%,93.72549%,92.941176%);fill-opacity:1;" d="M 86.75 62.59375 C 86.542969 64.464844 86.210938 66.308594 85.75 68.125 C 84.761719 69.09375 84.011719 70.265625 83.5 71.644531 C 82.113281 73.300781 80.363281 74.140625 78.25 74.15625 C 75.109375 73.808594 75.109375 73.054688 78.25 71.894531 C 79.742188 71.644531 81.242188 71.5625 82.75 71.644531 C 83.621094 69.378906 84.371094 67.03125 85 64.605469 C 85.25 63.578125 85.832031 62.90625 86.75 62.59375 Z M 86.75 62.59375 "/>
<path style=" stroke:none;fill-rule:evenodd;fill:rgb(64.313725%,83.529412%,83.137255%);fill-opacity:1;" d="M 39.75 68.125 C 43 71.796875 47 74.390625 51.75 75.917969 C 54.070312 76.335938 56.40625 76.667969 58.75 76.921875 C 57.316406 77.015625 55.984375 77.265625 54.75 77.675781 C 54.417969 77.675781 54.082031 77.675781 53.75 77.675781 C 48.730469 76.914062 44.230469 74.902344 40.25 71.644531 C 40.402344 71.316406 40.570312 70.980469 40.75 70.636719 C 40.273438 69.847656 39.9375 69.007812 39.75 68.125 Z M 39.75 68.125 "/>
<path style=" stroke:none;fill-rule:evenodd;fill:rgb(77.254902%,94.117647%,94.117647%);fill-opacity:1;" d="M 48.25 72.648438 C 50.226562 73.78125 52.394531 74.535156 54.75 74.910156 C 59.914062 75.425781 65.082031 75.847656 70.25 76.167969 C 70.25 76.671875 70.25 77.175781 70.25 77.675781 C 65.082031 77.675781 59.917969 77.675781 54.75 77.675781 C 55.984375 77.265625 57.316406 77.015625 58.75 76.921875 C 56.40625 76.667969 54.070312 76.335938 51.75 75.917969 C 47 74.390625 43 71.796875 39.75 68.125 C 38.386719 66.6875 37.636719 65.011719 37.5 63.097656 C 39.765625 67.804688 43.347656 70.988281 48.25 72.648438 Z M 48.25 72.648438 "/>
<path style=" stroke:none;fill-rule:evenodd;fill:rgb(98.039216%,73.72549%,3.137255%);fill-opacity:1;" d="M 36.25 71.644531 C 36.996094 75.234375 38.828125 78.167969 41.75 80.441406 C 44.050781 81.847656 46.382812 83.105469 48.75 84.210938 C 48.695312 84.523438 48.527344 84.773438 48.25 84.96875 C 45.589844 85.21875 42.921875 85.300781 40.25 85.21875 C 37.988281 85.296875 36.40625 84.289062 35.5 82.203125 C 35.167969 78.683594 35.167969 75.164062 35.5 71.644531 C 35.84375 71.019531 36.09375 71.019531 36.25 71.644531 Z M 36.25 71.644531 "/>
<path style=" stroke:none;fill-rule:evenodd;fill:rgb(76.470588%,43.137255%,2.352941%);fill-opacity:1;" d="M 36.25 71.644531 C 38.441406 72.75 40.441406 74.175781 42.25 75.917969 C 44.765625 77.433594 47.429688 78.523438 50.25 79.183594 C 50.75 79.183594 51.25 79.183594 51.75 79.183594 C 51.59375 80.964844 51.761719 82.640625 52.25 84.210938 C 51.15625 84.777344 49.988281 84.777344 48.75 84.210938 C 46.382812 83.105469 44.050781 81.847656 41.75 80.441406 C 38.828125 78.167969 36.996094 75.234375 36.25 71.644531 Z M 36.25 71.644531 "/>
<use xlink:href="#surface35" mask="url(#mask10)"/>
<path style=" stroke:none;fill-rule:evenodd;fill:rgb(34.117647%,52.54902%,59.215686%);fill-opacity:1;" d="M 57.25 80.191406 C 58.75 80.191406 60.25 80.191406 61.75 80.191406 C 61.75 80.859375 61.75 81.53125 61.75 82.203125 C 60.25 82.203125 58.75 82.203125 57.25 82.203125 C 57.25 81.53125 57.25 80.859375 57.25 80.191406 Z M 57.25 80.191406 "/>
<path style=" stroke:none;fill-rule:evenodd;fill:rgb(13.72549%,58.039216%,64.705882%);fill-opacity:1;" d="M 77.25 85.722656 C 77.097656 85.394531 76.929688 85.058594 76.75 84.714844 C 73.515625 83.996094 70.515625 82.738281 67.75 80.945312 C 66.59375 80.695312 65.429688 80.613281 64.25 80.695312 C 69.503906 80.28125 74.835938 79.945312 80.25 79.6875 C 80.035156 82.136719 79.035156 84.144531 77.25 85.722656 Z M 77.25 85.722656 "/>
<path style=" stroke:none;fill-rule:evenodd;fill:rgb(92.941176%,66.666667%,16.470588%);fill-opacity:1;" d="M 53.25 86.726562 C 48.859375 86.132812 44.527344 85.632812 40.25 85.21875 C 42.921875 85.300781 45.589844 85.21875 48.25 84.96875 C 48.527344 84.773438 48.695312 84.523438 48.75 84.210938 C 49.988281 84.777344 51.15625 84.777344 52.25 84.210938 C 52.253906 82.683594 52.421875 81.171875 52.75 79.6875 C 53.417969 79.6875 54.082031 79.6875 54.75 79.6875 C 54.832031 81.539062 54.75 83.382812 54.5 85.21875 C 53.976562 85.65625 53.5625 86.160156 53.25 86.726562 Z M 53.25 86.726562 "/>
<path style=" stroke:none;fill-rule:evenodd;fill:rgb(49.019608%,81.960784%,83.921569%);fill-opacity:1;" d="M 64.25 80.695312 C 65.429688 80.613281 66.59375 80.695312 67.75 80.945312 C 70.515625 82.738281 73.515625 83.996094 76.75 84.714844 C 76.929688 85.058594 77.097656 85.394531 77.25 85.722656 C 73.386719 88.535156 69.636719 88.367188 66 85.21875 C 64.976562 83.886719 64.390625 82.378906 64.25 80.695312 Z M 64.25 80.695312 "/>
</g>
</svg>
