<?xml version="1.0" encoding="UTF-8"?>
<svg xmlns="http://www.w3.org/2000/svg" xmlns:xlink="http://www.w3.org/1999/xlink" width="px" height="px" viewBox="0 0 97 97" version="1.1">
<defs>
<filter id="alpha" filterUnits="objectBoundingBox" x="0%" y="0%" width="100%" height="100%">
  <feColorMatrix type="matrix" in="SourceGraphic" values="0 0 0 0 1 0 0 0 0 1 0 0 0 0 1 0 0 0 1 0"/>
</filter>
<mask id="mask0">
  <g filter="url(#alpha)">
<rect x="0" y="0" width="97" height="97" style="fill:rgb(0%,0%,0%);fill-opacity:0.152941;stroke:none;"/>
  </g>
</mask>
<clipPath id="clip1">
  <rect x="0" y="0" width="97" height="97"/>
</clipPath>
<g id="surface5" clip-path="url(#clip1)">
<path style=" stroke:none;fill-rule:evenodd;fill:rgb(15.686275%,21.176471%,25.490196%);fill-opacity:1;" d="M 46.992188 -0.25 C 48.5 -0.25 50.007812 -0.25 51.515625 -0.25 C 54.4375 0.371094 57.117188 1.535156 59.558594 3.25 C 55.40625 1.757812 51.21875 0.59375 46.992188 -0.25 Z M 46.992188 -0.25 "/>
</g>
<mask id="mask1">
  <g filter="url(#alpha)">
<rect x="0" y="0" width="97" height="97" style="fill:rgb(0%,0%,0%);fill-opacity:0.996078;stroke:none;"/>
  </g>
</mask>
<clipPath id="clip2">
  <rect x="0" y="0" width="97" height="97"/>
</clipPath>
<g id="surface8" clip-path="url(#clip2)">
<path style=" stroke:none;fill-rule:evenodd;fill:rgb(3.137255%,1.568627%,1.960784%);fill-opacity:1;" d="M 68.101562 6.25 C 72.46875 8.09375 74.730469 11.425781 74.886719 16.25 C 77.71875 18.40625 79.8125 21.15625 81.167969 24.5 C 85.375 23.5625 88.808594 24.8125 91.472656 28.25 C 96.214844 40.871094 96.382812 53.539062 91.972656 66.25 C 90.007812 70.515625 86.742188 72.347656 82.171875 71.75 C 81.9375 71.046875 81.433594 70.714844 80.664062 70.75 C 81.050781 70.367188 81.550781 70.117188 82.171875 70 C 81.742188 69.65625 81.40625 69.238281 81.167969 68.75 C 81.300781 67.328125 81.804688 66.160156 82.675781 65.25 C 81.511719 69.175781 82.851562 70.425781 86.695312 69 C 88.300781 68.152344 89.476562 66.902344 90.214844 65.25 C 89.984375 64.851562 89.648438 64.683594 89.210938 64.75 C 89.546875 64.25 89.878906 63.75 90.214844 63.25 C 90.785156 61.832031 91.289062 60.332031 91.722656 58.75 C 89.570312 58.253906 87.390625 58.085938 85.1875 58.25 C 84.828125 58.460938 84.574219 58.792969 84.433594 59.25 C 84.296875 58.792969 84.042969 58.460938 83.679688 58.25 C 82.339844 58.25 81 58.25 79.660156 58.25 C 80.707031 57.761719 82.046875 57.261719 83.679688 56.75 C 84.066406 56.367188 84.320312 55.867188 84.433594 55.25 C 84.539062 56.027344 84.792969 56.695312 85.1875 57.25 C 87.535156 57.25 89.878906 57.25 92.226562 57.25 C 92.457031 55.757812 92.625 54.257812 92.726562 52.75 C 91.722656 52.75 90.71875 52.75 89.710938 52.75 C 90.84375 52.492188 91.847656 51.992188 92.726562 51.25 C 93.035156 48.902344 93.535156 46.566406 94.234375 44.25 C 93.734375 44.25 93.230469 44.25 92.726562 44.25 C 92.871094 43.292969 92.703125 42.460938 92.226562 41.75 C 92.3125 41.089844 92.144531 40.503906 91.722656 40 C 89.550781 39.75 87.375 39.667969 85.1875 39.75 C 85.21875 39.195312 85.386719 38.695312 85.691406 38.25 C 87.535156 38.25 89.378906 38.25 91.21875 38.25 C 91.199219 36.507812 90.863281 34.839844 90.214844 33.25 C 89.546875 32.75 88.875 32.25 88.203125 31.75 C 90.144531 31.582031 90.5625 30.75 89.460938 29.25 C 88.03125 27.820312 86.355469 26.820312 84.433594 26.25 C 83.574219 26.21875 82.90625 26.554688 82.425781 27.25 C 82.121094 28.609375 82.207031 29.945312 82.675781 31.25 C 82.945312 32.058594 83.113281 32.890625 83.179688 33.75 C 81.960938 33.902344 80.789062 33.738281 79.660156 33.25 C 80.605469 32.644531 80.773438 31.976562 80.164062 31.25 C 78.886719 26.691406 76.707031 22.605469 73.628906 19 C 72.289062 18.332031 70.949219 17.667969 69.609375 17 C 61.917969 16.238281 54.210938 16.070312 46.488281 16.5 C 37.773438 17.628906 31.324219 22.046875 27.140625 29.75 C 23.519531 37.738281 22.429688 45.90625 23.875 54.25 C 24.433594 58.753906 25.605469 63.085938 27.390625 67.25 C 27.632812 68.503906 28.136719 69.667969 28.898438 70.75 C 28.835938 71.054688 28.667969 71.21875 28.394531 71.25 C 27.949219 70.945312 27.445312 70.777344 26.886719 70.75 C 27.714844 69.5625 27.382812 68.898438 25.882812 68.75 C 25.5625 67.601562 24.894531 66.769531 23.875 66.25 C 22.710938 67.183594 21.371094 67.433594 19.851562 67 C 20.796875 66.40625 21.800781 65.90625 22.867188 65.5 C 22.589844 65.308594 22.421875 65.058594 22.367188 64.75 C 22.8125 64.371094 23.148438 63.871094 23.371094 63.25 C 20.410156 53.769531 20.242188 44.269531 22.867188 34.75 C 23.804688 33.394531 24.140625 31.976562 23.875 30.5 C 19.777344 28.710938 15.757812 26.796875 11.8125 24.75 C 12.039062 24.269531 12.375 23.855469 12.816406 23.5 C 12.25 23.375 11.75 23.125 11.308594 22.75 C 11.371094 22.445312 11.539062 22.28125 11.8125 22.25 C 13.230469 22.34375 14.066406 21.675781 14.324219 20.25 C 13.78125 19.648438 13.113281 19.3125 12.3125 19.25 C 12.679688 18.476562 13.351562 18.0625 14.324219 18 C 13.683594 17.511719 13.683594 17.09375 14.324219 16.75 C 16.257812 18.296875 18.433594 19.464844 20.859375 20.25 C 23.015625 21.554688 25.277344 22.71875 27.640625 23.75 C 29.546875 22.359375 31.304688 20.773438 32.917969 19 C 38.945312 14.757812 45.644531 13.007812 53.023438 13.75 C 53.617188 11.820312 54.453125 9.988281 55.535156 8.25 C 56.53125 7.765625 57.539062 7.265625 58.550781 6.75 C 58.984375 7.230469 59.320312 7.230469 59.558594 6.75 C 59.355469 5.78125 58.851562 5.03125 58.050781 4.5 C 58.597656 3.816406 59.269531 3.652344 60.058594 4 C 59.890625 4.167969 59.722656 4.332031 59.558594 4.5 C 61.957031 5.285156 64.386719 6.035156 66.84375 6.75 C 67.183594 6.375 67.601562 6.207031 68.101562 6.25 Z M 68.101562 6.25 "/>
</g>
<mask id="mask2">
  <g filter="url(#alpha)">
<rect x="0" y="0" width="97" height="97" style="fill:rgb(0%,0%,0%);fill-opacity:0.996078;stroke:none;"/>
  </g>
</mask>
<clipPath id="clip3">
  <rect x="0" y="0" width="97" height="97"/>
</clipPath>
<g id="surface11" clip-path="url(#clip3)">
<path style=" stroke:none;fill-rule:evenodd;fill:rgb(5.490196%,3.921569%,3.529412%);fill-opacity:1;" d="M 80.164062 31.25 C 80.773438 31.976562 80.605469 32.644531 79.660156 33.25 C 80.789062 33.738281 81.960938 33.902344 83.179688 33.75 C 83.113281 32.890625 82.945312 32.058594 82.675781 31.25 C 84.324219 33.058594 86.167969 33.226562 88.203125 31.75 C 88.875 32.25 89.546875 32.75 90.214844 33.25 C 88.496094 34.042969 86.652344 34.375 84.6875 34.25 C 84.839844 35.6875 85.171875 37.019531 85.691406 38.25 C 85.386719 38.695312 85.21875 39.195312 85.1875 39.75 C 85.1875 41.417969 85.1875 43.082031 85.1875 44.75 C 87.375 44.832031 89.550781 44.75 91.722656 44.5 C 92.179688 43.648438 92.34375 42.734375 92.226562 41.75 C 92.703125 42.460938 92.871094 43.292969 92.726562 44.25 C 93.230469 44.25 93.734375 44.25 94.234375 44.25 C 93.535156 46.566406 93.035156 48.902344 92.726562 51.25 C 91.847656 51.992188 90.84375 52.492188 89.710938 52.75 C 88.203125 52.75 86.695312 52.75 85.1875 52.75 C 85.1875 54.25 85.1875 55.75 85.1875 57.25 C 84.792969 56.695312 84.539062 56.027344 84.433594 55.25 C 84.320312 55.867188 84.066406 56.367188 83.679688 56.75 C 82.046875 57.261719 80.707031 57.761719 79.660156 58.25 C 77.957031 59.011719 77.285156 60.347656 77.648438 62.25 C 79.660156 62.25 81.671875 62.25 83.679688 62.25 C 83.679688 60.917969 83.679688 59.582031 83.679688 58.25 C 84.042969 58.460938 84.296875 58.792969 84.433594 59.25 C 84.574219 58.792969 84.828125 58.460938 85.1875 58.25 C 85.1875 59.582031 85.1875 60.917969 85.1875 62.25 C 86.84375 62.6875 88.519531 63.019531 90.214844 63.25 C 89.878906 63.75 89.546875 64.25 89.210938 64.75 C 87.875 64.421875 86.535156 64.085938 85.1875 63.75 C 83.960938 63.644531 83.125 64.144531 82.675781 65.25 C 81.804688 66.160156 81.300781 67.328125 81.167969 68.75 C 81.40625 69.238281 81.742188 69.65625 82.171875 70 C 81.550781 70.117188 81.050781 70.367188 80.664062 70.75 C 79.933594 73.871094 78.425781 76.539062 76.140625 78.75 C 75.816406 78.902344 75.480469 79.070312 75.136719 79.25 C 74.589844 84.867188 71.742188 88.699219 66.59375 90.75 C 64.910156 90.667969 63.234375 90.75 61.566406 91 C 56.976562 93.9375 51.953125 95.523438 46.488281 95.75 C 44.050781 95.417969 41.539062 95.082031 38.949219 94.75 C 39.324219 94.410156 39.660156 94.074219 39.957031 93.75 C 44.304688 93.980469 48.492188 93.480469 52.519531 92.25 C 54.886719 91.910156 57.0625 91.078125 59.054688 89.75 C 57.753906 88.808594 56.496094 87.808594 55.285156 86.75 C 54.59375 85.292969 53.839844 83.878906 53.023438 82.5 C 42.59375 83.308594 34.386719 79.558594 28.394531 71.25 C 28.667969 71.21875 28.835938 71.054688 28.898438 70.75 C 28.136719 69.667969 27.632812 68.503906 27.390625 67.25 C 32.019531 73.589844 38.21875 77.675781 45.988281 79.5 C 47.59375 79.902344 49.101562 79.820312 50.511719 79.25 C 51.683594 79.25 52.855469 79.25 54.027344 79.25 C 60.132812 80.09375 66.164062 79.507812 72.121094 77.5 C 72.921875 77.027344 73.59375 76.441406 74.132812 75.75 C 75.304688 74.996094 76.226562 73.996094 76.894531 72.75 C 77.96875 70.132812 78.890625 67.46875 79.660156 64.75 C 77.75 64.019531 76.578125 62.683594 76.140625 60.75 C 77.074219 57.867188 78.164062 55.035156 79.410156 52.25 C 79.492188 50.917969 79.578125 49.582031 79.660156 48.25 C 78.949219 42.816406 77.945312 37.480469 76.644531 32.25 C 78.097656 32.503906 79.269531 32.171875 80.164062 31.25 Z M 80.164062 31.25 "/>
</g>
<mask id="mask3">
  <g filter="url(#alpha)">
<rect x="0" y="0" width="97" height="97" style="fill:rgb(0%,0%,0%);fill-opacity:0.0352941;stroke:none;"/>
  </g>
</mask>
<clipPath id="clip4">
  <rect x="0" y="0" width="97" height="97"/>
</clipPath>
<g id="surface14" clip-path="url(#clip4)">
<path style=" stroke:none;fill-rule:evenodd;fill:rgb(16.470588%,20.784314%,25.098039%);fill-opacity:1;" d="M 68.101562 6.25 C 68.101562 6.082031 68.101562 5.917969 68.101562 5.75 C 72.898438 7.484375 75.328125 10.816406 75.386719 15.75 C 78.035156 17.671875 79.960938 20.171875 81.167969 23.25 C 85.882812 22.734375 89.652344 24.398438 92.476562 28.25 C 94.550781 34.019531 95.972656 40.183594 96.75 46.75 C 96.75 47.25 96.75 47.75 96.75 48.25 C 95.972656 51.175781 95.472656 54.089844 95.242188 57 C 94.753906 60.777344 93.664062 64.527344 91.972656 68.25 C 90.25 70.878906 87.824219 72.378906 84.6875 72.75 C 83.652344 72.78125 82.816406 72.449219 82.171875 71.75 C 86.742188 72.347656 90.007812 70.515625 91.972656 66.25 C 96.382812 53.539062 96.214844 40.871094 91.472656 28.25 C 88.808594 24.8125 85.375 23.5625 81.167969 24.5 C 79.8125 21.15625 77.71875 18.40625 74.886719 16.25 C 74.730469 11.425781 72.46875 8.09375 68.101562 6.25 Z M 68.101562 6.25 "/>
</g>
<mask id="mask4">
  <g filter="url(#alpha)">
<rect x="0" y="0" width="97" height="97" style="fill:rgb(0%,0%,0%);fill-opacity:0.00784314;stroke:none;"/>
  </g>
</mask>
<clipPath id="clip5">
  <rect x="0" y="0" width="97" height="97"/>
</clipPath>
<g id="surface17" clip-path="url(#clip5)">
<path style=" stroke:none;fill-rule:evenodd;fill:rgb(16.078431%,19.607843%,23.921569%);fill-opacity:1;" d="M 80.664062 70.75 C 81.433594 70.714844 81.9375 71.046875 82.171875 71.75 C 81.734375 71.683594 81.398438 71.851562 81.167969 72.25 C 80.558594 75.273438 78.882812 77.441406 76.140625 78.75 C 78.425781 76.539062 79.933594 73.871094 80.664062 70.75 Z M 80.664062 70.75 "/>
</g>
<mask id="mask5">
  <g filter="url(#alpha)">
<rect x="0" y="0" width="97" height="97" style="fill:rgb(0%,0%,0%);fill-opacity:0.980392;stroke:none;"/>
  </g>
</mask>
<clipPath id="clip6">
  <rect x="0" y="0" width="97" height="97"/>
</clipPath>
<g id="surface20" clip-path="url(#clip6)">
<path style=" stroke:none;fill-rule:evenodd;fill:rgb(6.666667%,5.490196%,5.882353%);fill-opacity:1;" d="M 37.441406 -0.25 C 40.625 -0.25 43.808594 -0.25 46.992188 -0.25 C 51.21875 0.59375 55.40625 1.757812 59.558594 3.25 C 62.410156 4.257812 65.257812 5.09375 68.101562 5.75 C 68.101562 5.917969 68.101562 6.082031 68.101562 6.25 C 67.601562 6.207031 67.183594 6.375 66.84375 6.75 C 64.386719 6.035156 61.957031 5.285156 59.558594 4.5 C 59.722656 4.332031 59.890625 4.167969 60.058594 4 C 59.269531 3.652344 58.597656 3.816406 58.050781 4.5 C 58.851562 5.03125 59.355469 5.78125 59.558594 6.75 C 59.320312 7.230469 58.984375 7.230469 58.550781 6.75 C 58.59375 6.253906 58.425781 5.835938 58.050781 5.5 C 56.78125 4.828125 55.441406 4.414062 54.027344 4.25 C 45.859375 1.339844 37.816406 1.675781 29.902344 5.25 C 23.703125 7.753906 18.511719 11.585938 14.324219 16.75 C 13.683594 17.09375 13.683594 17.511719 14.324219 18 C 13.351562 18.0625 12.679688 18.476562 12.3125 19.25 C 11.292969 20.125 11.125 21.125 11.8125 22.25 C 11.539062 22.28125 11.371094 22.445312 11.308594 22.75 C 11.75 23.125 12.25 23.375 12.816406 23.5 C 12.375 23.855469 12.039062 24.269531 11.8125 24.75 C 11.199219 24.484375 10.609375 24.152344 10.050781 23.75 C 8.996094 25.351562 8.074219 27.015625 7.289062 28.75 C 7.121094 29.082031 6.953125 29.417969 6.785156 29.75 C 5.257812 33.058594 4.167969 36.558594 3.519531 40.25 C 2.074219 51.113281 3.75 61.449219 8.542969 71.25 C 10.089844 71.664062 11.34375 71.164062 12.3125 69.75 C 15.507812 67.828125 18.859375 66.160156 22.367188 64.75 C 22.421875 65.058594 22.589844 65.308594 22.867188 65.5 C 21.800781 65.90625 20.796875 66.40625 19.851562 67 C 21.371094 67.433594 22.710938 67.183594 23.875 66.25 C 23.71875 67.792969 24.390625 68.628906 25.882812 68.75 C 27.382812 68.898438 27.714844 69.5625 26.886719 70.75 C 23.972656 72.285156 21.125 73.949219 18.34375 75.75 C 16.441406 76.449219 14.765625 77.53125 13.320312 79 C 13.433594 79.199219 13.601562 79.28125 13.820312 79.25 C 20.414062 87.699219 29.125 92.53125 39.957031 93.75 C 39.660156 94.074219 39.324219 94.410156 38.949219 94.75 C 41.539062 95.082031 44.050781 95.417969 46.488281 95.75 C 46.488281 95.917969 46.488281 96.082031 46.488281 96.25 C 45.6875 96.117188 45.015625 96.28125 44.480469 96.75 C 43.304688 96.75 42.132812 96.75 40.960938 96.75 C 21.539062 93.851562 8.722656 83.019531 2.511719 64.25 C 1.125 57.742188 0.203125 51.242188 -0.25 44.75 C -0.25 44.582031 -0.25 44.417969 -0.25 44.25 C 0.417969 44.082031 0.417969 43.917969 -0.25 43.75 C -0.25 43.582031 -0.25 43.417969 -0.25 43.25 C 0.589844 41.523438 1.09375 39.605469 1.257812 37.5 C 1.082031 36.246094 1.417969 34.996094 2.261719 33.75 C 2.15625 33.457031 1.988281 33.207031 1.757812 33 C 5.378906 23.613281 10.738281 15.445312 17.84375 8.5 C 23.722656 4.1875 30.253906 1.269531 37.441406 -0.25 Z M 37.441406 -0.25 "/>
</g>
<mask id="mask6">
  <g filter="url(#alpha)">
<rect x="0" y="0" width="97" height="97" style="fill:rgb(0%,0%,0%);fill-opacity:0.00784314;stroke:none;"/>
  </g>
</mask>
<clipPath id="clip7">
  <rect x="0" y="0" width="97" height="97"/>
</clipPath>
<g id="surface23" clip-path="url(#clip7)">
<path style=" stroke:none;fill-rule:evenodd;fill:rgb(16.078431%,19.607843%,23.921569%);fill-opacity:1;" d="M 76.140625 78.75 C 75.699219 83.050781 73.855469 86.636719 70.613281 89.5 C 69.402344 90.351562 68.0625 90.769531 66.59375 90.75 C 71.742188 88.699219 74.589844 84.867188 75.136719 79.25 C 75.480469 79.070312 75.816406 78.902344 76.140625 78.75 Z M 76.140625 78.75 "/>
</g>
<mask id="mask7">
  <g filter="url(#alpha)">
<rect x="0" y="0" width="97" height="97" style="fill:rgb(0%,0%,0%);fill-opacity:0.0235294;stroke:none;"/>
  </g>
</mask>
<clipPath id="clip8">
  <rect x="0" y="0" width="97" height="97"/>
</clipPath>
<g id="surface26" clip-path="url(#clip8)">
<path style=" stroke:none;fill-rule:evenodd;fill:rgb(15.686275%,18.431373%,22.745098%);fill-opacity:1;" d="M 66.59375 90.75 C 65.070312 91.507812 63.394531 91.925781 61.566406 92 C 58.203125 94.089844 54.515625 95.425781 50.511719 96 C 50.230469 96.191406 50.0625 96.441406 50.007812 96.75 C 49.839844 96.75 49.671875 96.75 49.503906 96.75 C 49.335938 96.082031 49.171875 96.082031 49.003906 96.75 C 48.667969 96.75 48.332031 96.75 47.996094 96.75 C 47.640625 96.296875 47.136719 96.132812 46.488281 96.25 C 46.488281 96.082031 46.488281 95.917969 46.488281 95.75 C 51.953125 95.523438 56.976562 93.9375 61.566406 91 C 63.234375 90.75 64.910156 90.667969 66.59375 90.75 Z M 66.59375 90.75 "/>
</g>
</defs>
<g id="surface1">
<use xlink:href="#surface5" mask="url(#mask0)"/>
<use xlink:href="#surface8" mask="url(#mask1)"/>
<path style=" stroke:none;fill-rule:evenodd;fill:rgb(95.686275%,58.039216%,19.215686%);fill-opacity:1;" d="M 54.027344 4.25 C 55.441406 4.414062 56.78125 4.828125 58.050781 5.5 C 58.425781 5.835938 58.59375 6.253906 58.550781 6.75 C 57.539062 7.265625 56.53125 7.765625 55.535156 8.25 C 45.90625 6.382812 37.027344 8.132812 28.898438 13.5 C 26.273438 15.867188 23.59375 18.117188 20.859375 20.25 C 18.433594 19.464844 16.257812 18.296875 14.324219 16.75 C 18.511719 11.585938 23.703125 7.753906 29.902344 5.25 C 32.714844 5.257812 35.398438 4.671875 37.945312 3.5 C 43.347656 3.070312 48.707031 3.320312 54.027344 4.25 Z M 54.027344 4.25 "/>
<path style=" stroke:none;fill-rule:evenodd;fill:rgb(8.627451%,5.490196%,8.235294%);fill-opacity:1;" d="M 60.058594 8.25 C 62.636719 8.054688 65.148438 8.304688 67.597656 9 C 68.082031 9.710938 68.5 10.460938 68.855469 11.25 C 69.652344 10.636719 70.324219 10.804688 70.867188 11.75 C 71.113281 12.566406 71.195312 13.402344 71.117188 14.25 C 66.136719 13.394531 61.109375 13.0625 56.039062 13.25 C 56.664062 10.996094 58.007812 9.328125 60.058594 8.25 Z M 60.058594 8.25 "/>
<path style=" stroke:none;fill-rule:evenodd;fill:rgb(8.627451%,6.27451%,8.235294%);fill-opacity:1;" d="M 80.164062 31.25 C 79.269531 32.171875 78.097656 32.503906 76.644531 32.25 C 75.601562 30.324219 74.34375 28.492188 72.875 26.75 C 72.539062 27.082031 72.207031 27.417969 71.871094 27.75 C 71.773438 28.855469 71.523438 29.855469 71.117188 30.75 C 70.886719 21.796875 66.363281 18.378906 57.546875 20.5 C 51.9375 24.066406 50.683594 28.816406 53.777344 34.75 C 56.332031 37.8125 59.601562 39.144531 63.578125 38.75 C 61.5 39.242188 59.320312 39.410156 57.042969 39.25 C 55.226562 38.359375 53.800781 37.023438 52.773438 35.25 C 50.894531 31.644531 49.636719 27.894531 49.003906 24 C 42.957031 23.25 37.425781 24.585938 32.417969 28 C 33.039062 28.117188 33.542969 28.367188 33.925781 28.75 C 32.832031 28.875 31.996094 29.375 31.410156 30.25 C 31.140625 30.28125 30.972656 30.445312 30.910156 30.75 C 31.578125 31.75 32.25 32.75 32.917969 33.75 C 29.390625 35.179688 26.960938 37.679688 25.632812 41.25 C 24.335938 45.488281 23.75 49.820312 23.875 54.25 C 22.429688 45.90625 23.519531 37.738281 27.140625 29.75 C 31.324219 22.046875 37.773438 17.628906 46.488281 16.5 C 54.210938 16.070312 61.917969 16.238281 69.609375 17 C 70.949219 17.667969 72.289062 18.332031 73.628906 19 C 76.707031 22.605469 78.886719 26.691406 80.164062 31.25 Z M 80.164062 31.25 "/>
<path style=" stroke:none;fill-rule:evenodd;fill:rgb(49.803922%,24.705882%,12.941176%);fill-opacity:1;" d="M 55.535156 8.25 C 54.453125 9.988281 53.617188 11.820312 53.023438 13.75 C 45.644531 13.007812 38.945312 14.757812 32.917969 19 C 31.304688 20.773438 29.546875 22.359375 27.640625 23.75 C 25.277344 22.71875 23.015625 21.554688 20.859375 20.25 C 23.59375 18.117188 26.273438 15.867188 28.898438 13.5 C 37.027344 8.132812 45.90625 6.382812 55.535156 8.25 Z M 55.535156 8.25 "/>
<path style=" stroke:none;fill-rule:evenodd;fill:rgb(0.392157%,0.784314%,1.568627%);fill-opacity:1;" d="M 71.117188 30.75 C 70.34375 35.019531 67.832031 37.6875 63.578125 38.75 C 59.601562 39.144531 56.332031 37.8125 53.777344 34.75 C 50.683594 28.816406 51.9375 24.066406 57.546875 20.5 C 66.363281 18.378906 70.886719 21.796875 71.117188 30.75 Z M 71.117188 30.75 "/>
<path style=" stroke:none;fill-rule:evenodd;fill:rgb(31.764706%,29.019608%,30.196078%);fill-opacity:1;" d="M 12.3125 19.25 C 13.113281 19.3125 13.78125 19.648438 14.324219 20.25 C 14.066406 21.675781 13.230469 22.34375 11.8125 22.25 C 11.125 21.125 11.292969 20.125 12.3125 19.25 Z M 12.3125 19.25 "/>
<path style=" stroke:none;fill-rule:evenodd;fill:rgb(29.019608%,26.666667%,28.627451%);fill-opacity:1;" d="M 15.832031 21.75 C 18.738281 21.964844 19.074219 22.964844 16.835938 24.75 C 15.335938 24.101562 15 23.101562 15.832031 21.75 Z M 15.832031 21.75 "/>
<path style=" stroke:none;fill-rule:evenodd;fill:rgb(28.235294%,27.45098%,30.196078%);fill-opacity:1;" d="M 19.851562 23.75 C 22.496094 23.671875 22.996094 24.671875 21.359375 26.75 C 19.488281 26.359375 18.984375 25.359375 19.851562 23.75 Z M 19.851562 23.75 "/>
<path style=" stroke:none;fill-rule:evenodd;fill:rgb(20.784314%,17.647059%,15.294118%);fill-opacity:1;" d="M 57.042969 39.25 C 57.445312 40.285156 58.117188 41.121094 59.054688 41.75 C 57.84375 42.34375 56.671875 43.09375 55.535156 44 C 54.480469 44.339844 53.476562 44.253906 52.519531 43.75 C 51.453125 42.96875 50.617188 41.96875 50.007812 40.75 C 48.617188 42.453125 46.941406 42.703125 44.980469 41.5 C 44.378906 41.046875 43.960938 40.464844 43.726562 39.75 C 43.558594 38.25 43.390625 36.75 43.222656 35.25 C 43.054688 35.917969 42.886719 36.582031 42.71875 37.25 C 42.21875 37.917969 41.714844 37.917969 41.210938 37.25 C 39.835938 34.476562 38.664062 31.640625 37.695312 28.75 C 37.015625 29.34375 36.429688 30.007812 35.933594 30.75 C 35.261719 30.066406 34.589844 29.398438 33.925781 28.75 C 33.542969 28.367188 33.039062 28.117188 32.417969 28 C 37.425781 24.585938 42.957031 23.25 49.003906 24 C 49.636719 27.894531 50.894531 31.644531 52.773438 35.25 C 53.800781 37.023438 55.226562 38.359375 57.042969 39.25 Z M 57.042969 39.25 "/>
<path style=" stroke:none;fill-rule:evenodd;fill:rgb(21.568627%,22.745098%,26.666667%);fill-opacity:1;" d="M 24.375 25.25 C 26.703125 25.761719 26.953125 26.761719 25.128906 28.25 C 23.097656 27.757812 22.84375 26.757812 24.375 25.25 Z M 24.375 25.25 "/>
<path style=" stroke:none;fill-rule:evenodd;fill:rgb(38.823529%,17.647059%,9.803922%);fill-opacity:1;" d="M 11.8125 24.75 C 15.757812 26.796875 19.777344 28.710938 23.875 30.5 C 24.140625 31.976562 23.804688 33.394531 22.867188 34.75 C 17.839844 32.332031 12.644531 30.332031 7.289062 28.75 C 8.074219 27.015625 8.996094 25.351562 10.050781 23.75 C 10.609375 24.152344 11.199219 24.484375 11.8125 24.75 Z M 11.8125 24.75 "/>
<path style=" stroke:none;fill-rule:evenodd;fill:rgb(99.607843%,74.509804%,28.627451%);fill-opacity:1;" d="M 7.289062 28.75 C 12.644531 30.332031 17.839844 32.332031 22.867188 34.75 C 20.242188 44.269531 20.410156 53.769531 23.371094 63.25 C 23.148438 63.871094 22.8125 64.371094 22.367188 64.75 C 18.859375 66.160156 15.507812 67.828125 12.3125 69.75 C 11.8125 69.75 11.308594 69.75 10.804688 69.75 C 10.925781 69.105469 10.757812 68.605469 10.304688 68.25 C 8.59375 61.976562 7.085938 55.644531 5.78125 49.25 C 5.28125 51.054688 5.113281 52.886719 5.277344 54.75 C 5.414062 55.714844 5.160156 56.546875 4.523438 57.25 C 3.585938 51.253906 3.585938 45.253906 4.523438 39.25 C 4.703125 40.773438 5.039062 40.9375 5.527344 39.75 C 5.507812 37.835938 5.929688 36.085938 6.785156 34.5 C 6.167969 33.089844 6.167969 31.507812 6.785156 29.75 C 6.953125 29.417969 7.121094 29.082031 7.289062 28.75 Z M 7.289062 28.75 "/>
<path style=" stroke:none;fill-rule:evenodd;fill:rgb(82.352941%,72.54902%,67.45098%);fill-opacity:1;" d="M 88.203125 31.75 C 86.167969 33.226562 84.324219 33.058594 82.675781 31.25 C 82.207031 29.945312 82.121094 28.609375 82.425781 27.25 C 82.90625 26.554688 83.574219 26.21875 84.433594 26.25 C 86.355469 26.820312 88.03125 27.820312 89.460938 29.25 C 90.5625 30.75 90.144531 31.582031 88.203125 31.75 Z M 88.203125 31.75 "/>
<path style=" stroke:none;fill-rule:evenodd;fill:rgb(94.117647%,85.882353%,78.431373%);fill-opacity:1;" d="M 90.214844 33.25 C 90.863281 34.839844 91.199219 36.507812 91.21875 38.25 C 89.378906 38.25 87.535156 38.25 85.691406 38.25 C 85.171875 37.019531 84.839844 35.6875 84.6875 34.25 C 86.652344 34.375 88.496094 34.042969 90.214844 33.25 Z M 90.214844 33.25 "/>
<path style=" stroke:none;fill-rule:evenodd;fill:rgb(90.196078%,83.137255%,76.862745%);fill-opacity:1;" d="M 85.1875 39.75 C 87.375 39.667969 89.550781 39.75 91.722656 40 C 92.144531 40.503906 92.3125 41.089844 92.226562 41.75 C 92.34375 42.734375 92.179688 43.648438 91.722656 44.5 C 89.550781 44.75 87.375 44.832031 85.1875 44.75 C 85.1875 43.082031 85.1875 41.417969 85.1875 39.75 Z M 85.1875 39.75 "/>
<path style=" stroke:none;fill-rule:evenodd;fill:rgb(84.705882%,64.313725%,33.72549%);fill-opacity:1;" d="M 59.054688 41.75 C 58.382812 44.082031 56.875 45.582031 54.53125 46.25 C 54.1875 45.410156 53.515625 45.078125 52.519531 45.25 C 52.519531 44.75 52.519531 44.25 52.519531 43.75 C 53.476562 44.253906 54.480469 44.339844 55.535156 44 C 56.671875 43.09375 57.84375 42.34375 59.054688 41.75 Z M 59.054688 41.75 "/>
<path style=" stroke:none;fill-rule:evenodd;fill:rgb(98.039216%,74.901961%,33.333333%);fill-opacity:1;" d="M 33.925781 28.75 C 34.589844 29.398438 35.261719 30.066406 35.933594 30.75 C 36.429688 30.007812 37.015625 29.34375 37.695312 28.75 C 38.664062 31.640625 39.835938 34.476562 41.210938 37.25 C 41.714844 37.917969 42.21875 37.917969 42.71875 37.25 C 42.886719 36.582031 43.054688 35.917969 43.222656 35.25 C 43.390625 36.75 43.558594 38.25 43.726562 39.75 C 43.960938 40.464844 44.378906 41.046875 44.980469 41.5 C 46.941406 42.703125 48.617188 42.453125 50.007812 40.75 C 50.617188 41.96875 51.453125 42.96875 52.519531 43.75 C 52.519531 44.25 52.519531 44.75 52.519531 45.25 C 53.515625 45.078125 54.1875 45.410156 54.53125 46.25 C 53.253906 46.246094 52 46.078125 50.761719 45.75 C 45.800781 47.078125 45.800781 48.578125 50.761719 50.25 C 51.925781 49.5625 53.183594 49.230469 54.53125 49.25 C 55.703125 50.25 56.875 51.25 58.050781 52.25 C 58.347656 52.574219 58.679688 52.910156 59.054688 53.25 C 58.804688 53.417969 58.550781 53.582031 58.300781 53.75 C 57.21875 53.007812 56.128906 52.257812 55.035156 51.5 C 52.660156 51.476562 50.898438 52.5625 49.757812 54.75 C 47.394531 52.585938 45.382812 52.917969 43.726562 55.75 C 43.558594 57.25 43.390625 58.75 43.222656 60.25 C 42.863281 58.882812 42.109375 58.550781 40.960938 59.25 C 39.558594 62.871094 38.304688 66.539062 37.191406 70.25 C 35.910156 69.140625 34.820312 67.890625 33.925781 66.5 C 34.386719 63.496094 34.890625 60.496094 35.433594 57.5 C 35.160156 55.394531 34.40625 55.308594 33.171875 57.25 C 33.402344 55.050781 34.492188 53.300781 36.4375 52 C 39.28125 50.5625 42.128906 49.230469 44.980469 48 C 42.050781 46.964844 39.203125 45.632812 36.4375 44 C 34.453125 42.300781 33.363281 40.214844 33.171875 37.75 C 33.414062 38.222656 33.496094 38.722656 33.421875 39.25 C 34.09375 39.25 34.761719 39.25 35.433594 39.25 C 35.183594 35.753906 33.839844 32.753906 31.410156 30.25 C 31.996094 29.375 32.832031 28.875 33.925781 28.75 Z M 33.925781 28.75 "/>
<path style=" stroke:none;fill-rule:evenodd;fill:rgb(25.098039%,18.431373%,11.372549%);fill-opacity:1;" d="M 54.53125 46.25 C 53.996094 46.71875 53.324219 46.882812 52.519531 46.75 C 52.472656 48.199219 53.144531 49.035156 54.53125 49.25 C 53.183594 49.230469 51.925781 49.5625 50.761719 50.25 C 45.800781 48.578125 45.800781 47.078125 50.761719 45.75 C 52 46.078125 53.253906 46.246094 54.53125 46.25 Z M 54.53125 46.25 "/>
<path style=" stroke:none;fill-rule:evenodd;fill:rgb(18.039216%,16.078431%,15.294118%);fill-opacity:1;" d="M 76.644531 32.25 C 77.945312 37.480469 78.949219 42.816406 79.660156 48.25 C 79.578125 49.582031 79.492188 50.917969 79.410156 52.25 C 78.164062 55.035156 77.074219 57.867188 76.140625 60.75 C 76.578125 62.683594 77.75 64.019531 79.660156 64.75 C 78.890625 67.46875 77.96875 70.132812 76.894531 72.75 C 76.226562 73.996094 75.304688 74.996094 74.132812 75.75 C 73.796875 75.75 73.460938 75.75 73.125 75.75 C 73.007812 75.453125 72.757812 75.285156 72.375 75.25 C 71.476562 75.65625 70.554688 75.988281 69.609375 76.25 C 68.710938 75.519531 67.703125 75.019531 66.59375 74.75 C 71.773438 70.386719 72.441406 65.386719 68.605469 59.75 C 63.066406 55.398438 58.039062 55.898438 53.527344 61.25 C 53.46875 60.941406 53.304688 60.691406 53.023438 60.5 C 53.582031 59.714844 54.253906 59.046875 55.035156 58.5 C 54.859375 57.714844 54.773438 56.800781 54.78125 55.75 C 55.984375 56.996094 56.570312 56.664062 56.542969 54.75 C 58.167969 54.824219 59.339844 54.160156 60.058594 52.75 C 59.460938 52.285156 58.792969 52.117188 58.050781 52.25 C 56.875 51.25 55.703125 50.25 54.53125 49.25 C 53.144531 49.035156 52.472656 48.199219 52.519531 46.75 C 53.324219 46.882812 53.996094 46.71875 54.53125 46.25 C 56.875 45.582031 58.382812 44.082031 59.054688 41.75 C 58.117188 41.121094 57.445312 40.285156 57.042969 39.25 C 59.320312 39.410156 61.5 39.242188 63.578125 38.75 C 67.832031 37.6875 70.34375 35.019531 71.117188 30.75 C 71.523438 29.855469 71.773438 28.855469 71.871094 27.75 C 72.207031 27.417969 72.539062 27.082031 72.875 26.75 C 74.34375 28.492188 75.601562 30.324219 76.644531 32.25 Z M 76.644531 32.25 "/>
<path style=" stroke:none;fill-rule:evenodd;fill:rgb(6.666667%,5.098039%,4.313725%);fill-opacity:1;" d="M 75.640625 42.75 C 75.445312 41.476562 74.691406 40.808594 73.378906 40.75 C 69.910156 41.398438 66.894531 42.898438 64.332031 45.25 C 63.5625 47.917969 64.148438 50.171875 66.089844 52 C 68.890625 53.761719 71.90625 54.597656 75.136719 54.5 C 75.824219 53.347656 76.160156 52.097656 76.140625 50.75 C 63.117188 48.929688 62.949219 46.761719 75.640625 44.25 C 76.003906 44.042969 76.253906 43.707031 76.394531 43.25 C 76.941406 44.746094 76.605469 45.246094 75.386719 44.75 C 74.476562 45.039062 73.558594 45.289062 72.625 45.5 C 74.167969 45.574219 75.589844 45.988281 76.894531 46.75 C 77.6875 49.441406 77.6875 52.109375 76.894531 54.75 C 75.433594 56.195312 73.675781 56.613281 71.621094 56 C 68.4375 54.875 65.507812 53.292969 62.824219 51.25 C 61.054688 46.03125 62.8125 42.613281 68.101562 41 C 70.511719 39.863281 73.027344 39.363281 75.640625 39.5 C 75.808594 40.585938 75.808594 41.667969 75.640625 42.75 Z M 75.640625 42.75 "/>
<path style=" stroke:none;fill-rule:evenodd;fill:rgb(85.490196%,81.960784%,79.607843%);fill-opacity:1;" d="M 70.613281 46.75 C 72.128906 46.667969 73.636719 46.75 75.136719 47 C 75.808594 47.5 75.808594 48 75.136719 48.5 C 73.019531 48.960938 71.011719 48.710938 69.105469 47.75 C 69.660156 47.414062 70.164062 47.078125 70.613281 46.75 Z M 70.613281 46.75 "/>
<path style=" stroke:none;fill-rule:evenodd;fill:rgb(21.568627%,18.823529%,16.078431%);fill-opacity:1;" d="M 31.410156 30.25 C 33.839844 32.753906 35.183594 35.753906 35.433594 39.25 C 34.761719 39.25 34.09375 39.25 33.421875 39.25 C 33.496094 38.722656 33.414062 38.222656 33.171875 37.75 C 33.363281 40.214844 34.453125 42.300781 36.4375 44 C 39.203125 45.632812 42.050781 46.964844 44.980469 48 C 42.128906 49.230469 39.28125 50.5625 36.4375 52 C 34.492188 53.300781 33.402344 55.050781 33.171875 57.25 C 34.40625 55.308594 35.160156 55.394531 35.433594 57.5 C 34.890625 60.496094 34.386719 63.496094 33.925781 66.5 C 34.820312 67.890625 35.910156 69.140625 37.191406 70.25 C 38.304688 66.539062 39.558594 62.871094 40.960938 59.25 C 42.109375 58.550781 42.863281 58.882812 43.222656 60.25 C 43.390625 58.75 43.558594 57.25 43.726562 55.75 C 45.382812 52.917969 47.394531 52.585938 49.757812 54.75 C 50.898438 52.5625 52.660156 51.476562 55.035156 51.5 C 56.128906 52.257812 57.21875 53.007812 58.300781 53.75 C 58.550781 53.582031 58.804688 53.417969 59.054688 53.25 C 58.679688 52.910156 58.347656 52.574219 58.050781 52.25 C 58.792969 52.117188 59.460938 52.285156 60.058594 52.75 C 59.339844 54.160156 58.167969 54.824219 56.542969 54.75 C 56.570312 56.664062 55.984375 56.996094 54.78125 55.75 C 54.773438 56.800781 54.859375 57.714844 55.035156 58.5 C 54.253906 59.046875 53.582031 59.714844 53.023438 60.5 C 53.304688 60.691406 53.46875 60.941406 53.527344 61.25 C 50.816406 67.578125 52.492188 72.328125 58.550781 75.5 C 61.308594 75.925781 63.988281 75.675781 66.59375 74.75 C 67.703125 75.019531 68.710938 75.519531 69.609375 76.25 C 70.554688 75.988281 71.476562 75.65625 72.375 75.25 C 72.757812 75.285156 73.007812 75.453125 73.125 75.75 C 68.816406 78.207031 64.125 79.207031 59.054688 78.75 C 51.875 78.726562 45.007812 77.308594 38.449219 74.5 C 34.8125 71.382812 31.714844 67.800781 29.148438 63.75 C 31.335938 70.59375 35.945312 75.175781 42.972656 77.5 C 45.558594 78.0625 48.070312 78.644531 50.511719 79.25 C 49.101562 79.820312 47.59375 79.902344 45.988281 79.5 C 38.21875 77.675781 32.019531 73.589844 27.390625 67.25 C 25.605469 63.085938 24.433594 58.753906 23.875 54.25 C 23.75 49.820312 24.335938 45.488281 25.632812 41.25 C 26.960938 37.679688 29.390625 35.179688 32.917969 33.75 C 32.25 32.75 31.578125 31.75 30.910156 30.75 C 30.972656 30.445312 31.140625 30.28125 31.410156 30.25 Z M 31.410156 30.25 "/>
<path style=" stroke:none;fill-rule:evenodd;fill:rgb(93.333333%,85.882353%,78.431373%);fill-opacity:1;" d="M 75.640625 42.75 C 75.640625 43.25 75.640625 43.75 75.640625 44.25 C 62.949219 46.761719 63.117188 48.929688 76.140625 50.75 C 76.160156 52.097656 75.824219 53.347656 75.136719 54.5 C 71.90625 54.597656 68.890625 53.761719 66.089844 52 C 64.148438 50.171875 63.5625 47.917969 64.332031 45.25 C 66.894531 42.898438 69.910156 41.398438 73.378906 40.75 C 74.691406 40.808594 75.445312 41.476562 75.640625 42.75 Z M 75.640625 42.75 "/>
<path style=" stroke:none;fill-rule:evenodd;fill:rgb(89.803922%,82.352941%,74.509804%);fill-opacity:1;" d="M 89.710938 52.75 C 90.71875 52.75 91.722656 52.75 92.726562 52.75 C 92.625 54.257812 92.457031 55.757812 92.226562 57.25 C 89.878906 57.25 87.535156 57.25 85.1875 57.25 C 85.1875 55.75 85.1875 54.25 85.1875 52.75 C 86.695312 52.75 88.203125 52.75 89.710938 52.75 Z M 89.710938 52.75 "/>
<path style=" stroke:none;fill-rule:evenodd;fill:rgb(0.392157%,0.784314%,1.568627%);fill-opacity:1;" d="M 66.59375 74.75 C 63.988281 75.675781 61.308594 75.925781 58.550781 75.5 C 52.492188 72.328125 50.816406 67.578125 53.527344 61.25 C 58.039062 55.898438 63.066406 55.398438 68.605469 59.75 C 72.441406 65.386719 71.773438 70.386719 66.59375 74.75 Z M 66.59375 74.75 "/>
<path style=" stroke:none;fill-rule:evenodd;fill:rgb(97.254902%,75.294118%,35.294118%);fill-opacity:1;" d="M 6.785156 29.75 C 6.167969 31.507812 6.167969 33.089844 6.785156 34.5 C 5.929688 36.085938 5.507812 37.835938 5.527344 39.75 C 5.039062 40.9375 4.703125 40.773438 4.523438 39.25 C 3.585938 45.253906 3.585938 51.253906 4.523438 57.25 C 5.160156 56.546875 5.414062 55.714844 5.277344 54.75 C 6.148438 59.367188 7.570312 63.867188 9.550781 68.25 C 9.894531 68.867188 10.148438 68.867188 10.304688 68.25 C 10.757812 68.605469 10.925781 69.105469 10.804688 69.75 C 11.308594 69.75 11.8125 69.75 12.3125 69.75 C 11.34375 71.164062 10.089844 71.664062 8.542969 71.25 C 3.75 61.449219 2.074219 51.113281 3.519531 40.25 C 4.167969 36.558594 5.257812 33.058594 6.785156 29.75 Z M 6.785156 29.75 "/>
<path style=" stroke:none;fill-rule:evenodd;fill:rgb(91.372549%,83.529412%,75.686275%);fill-opacity:1;" d="M 85.1875 58.25 C 87.390625 58.085938 89.570312 58.253906 91.722656 58.75 C 91.289062 60.332031 90.785156 61.832031 90.214844 63.25 C 88.519531 63.019531 86.84375 62.6875 85.1875 62.25 C 85.1875 60.917969 85.1875 59.582031 85.1875 58.25 Z M 85.1875 58.25 "/>
<path style=" stroke:none;fill-rule:evenodd;fill:rgb(99.607843%,92.156863%,63.921569%);fill-opacity:1;" d="M 10.304688 68.25 C 10.148438 68.867188 9.894531 68.867188 9.550781 68.25 C 7.570312 63.867188 6.148438 59.367188 5.277344 54.75 C 5.113281 52.886719 5.28125 51.054688 5.78125 49.25 C 7.085938 55.644531 8.59375 61.976562 10.304688 68.25 Z M 10.304688 68.25 "/>
<use xlink:href="#surface11" mask="url(#mask2)"/>
<path style=" stroke:none;fill-rule:evenodd;fill:rgb(92.941176%,84.705882%,77.254902%);fill-opacity:1;" d="M 79.660156 58.25 C 81 58.25 82.339844 58.25 83.679688 58.25 C 83.679688 59.582031 83.679688 60.917969 83.679688 62.25 C 81.671875 62.25 79.660156 62.25 77.648438 62.25 C 77.285156 60.347656 77.957031 59.011719 79.660156 58.25 Z M 79.660156 58.25 "/>
<path style=" stroke:none;fill-rule:evenodd;fill:rgb(94.901961%,87.843137%,81.176471%);fill-opacity:1;" d="M 83.679688 56.75 C 82.171875 56.75 80.664062 56.75 79.15625 56.75 C 79.089844 53.695312 80.597656 52.363281 83.679688 52.75 C 83.679688 54.082031 83.679688 55.417969 83.679688 56.75 Z M 83.679688 56.75 "/>
<path style=" stroke:none;fill-rule:evenodd;fill:rgb(93.333333%,83.921569%,74.901961%);fill-opacity:1;" d="M 92.726562 51.25 C 90.214844 51.25 87.703125 51.25 85.1875 51.25 C 85.1875 49.417969 85.1875 47.582031 85.1875 45.75 C 87.703125 45.75 90.214844 45.75 92.726562 45.75 C 92.726562 47.582031 92.726562 49.417969 92.726562 51.25 Z M 92.726562 51.25 "/>
<path style=" stroke:none;fill-rule:evenodd;fill:rgb(85.882353%,81.176471%,75.686275%);fill-opacity:1;" d="M 81.671875 45.75 C 82.507812 45.75 83.347656 45.75 84.183594 45.75 C 84.183594 47.582031 84.183594 49.417969 84.183594 51.25 C 83.347656 51.25 82.507812 51.25 81.671875 51.25 C 81.671875 49.417969 81.671875 47.582031 81.671875 45.75 Z M 81.671875 45.75 "/>
<path style=" stroke:none;fill-rule:evenodd;fill:rgb(92.54902%,87.843137%,83.137255%);fill-opacity:1;" d="M 79.660156 40.25 C 80.890625 39.761719 82.230469 39.597656 83.679688 39.75 C 83.679688 41.25 83.679688 42.75 83.679688 44.25 C 82.828125 44.332031 81.988281 44.246094 81.167969 44 C 80.773438 42.664062 80.273438 41.414062 79.660156 40.25 Z M 79.660156 40.25 "/>
<path style=" stroke:none;fill-rule:evenodd;fill:rgb(90.980392%,83.921569%,76.470588%);fill-opacity:1;" d="M 78.152344 34.25 C 79.996094 34.25 81.839844 34.25 83.679688 34.25 C 83.679688 35.582031 83.679688 36.917969 83.679688 38.25 C 82.164062 38.332031 80.65625 38.25 79.15625 38 C 78.265625 36.933594 77.929688 35.683594 78.152344 34.25 Z M 78.152344 34.25 "/>
<path style=" stroke:none;fill-rule:evenodd;fill:rgb(63.921569%,59.215686%,54.509804%);fill-opacity:1;" d="M 23.875 66.25 C 24.894531 66.769531 25.5625 67.601562 25.882812 68.75 C 24.390625 68.628906 23.71875 67.792969 23.875 66.25 Z M 23.875 66.25 "/>
<use xlink:href="#surface14" mask="url(#mask3)"/>
<path style=" stroke:none;fill-rule:evenodd;fill:rgb(86.666667%,78.039216%,70.980392%);fill-opacity:1;" d="M 89.210938 64.75 C 89.648438 64.683594 89.984375 64.851562 90.214844 65.25 C 89.476562 66.902344 88.300781 68.152344 86.695312 69 C 82.851562 70.425781 81.511719 69.175781 82.675781 65.25 C 83.125 64.144531 83.960938 63.644531 85.1875 63.75 C 86.535156 64.085938 87.875 64.421875 89.210938 64.75 Z M 89.210938 64.75 "/>
<use xlink:href="#surface17" mask="url(#mask4)"/>
<path style=" stroke:none;fill-rule:evenodd;fill:rgb(78.039216%,74.509804%,70.196078%);fill-opacity:1;" d="M 59.054688 78.75 C 57.484375 79.238281 55.808594 79.40625 54.027344 79.25 C 52.855469 79.25 51.683594 79.25 50.511719 79.25 C 48.070312 78.644531 45.558594 78.0625 42.972656 77.5 C 35.945312 75.175781 31.335938 70.59375 29.148438 63.75 C 31.714844 67.800781 34.8125 71.382812 38.449219 74.5 C 45.007812 77.308594 51.875 78.726562 59.054688 78.75 Z M 59.054688 78.75 "/>
<path style=" stroke:none;fill-rule:evenodd;fill:rgb(32.941176%,29.411765%,26.27451%);fill-opacity:1;" d="M 73.125 75.75 C 73.460938 75.75 73.796875 75.75 74.132812 75.75 C 73.59375 76.441406 72.921875 77.027344 72.121094 77.5 C 66.164062 79.507812 60.132812 80.09375 54.027344 79.25 C 55.808594 79.40625 57.484375 79.238281 59.054688 78.75 C 64.125 79.207031 68.816406 78.207031 73.125 75.75 Z M 73.125 75.75 "/>
<use xlink:href="#surface20" mask="url(#mask5)"/>
<path style=" stroke:none;fill-rule:evenodd;fill:rgb(76.470588%,69.803922%,62.352941%);fill-opacity:1;" d="M 11.8125 72.75 C 13.0625 73.054688 13.734375 73.886719 13.820312 75.25 C 13.855469 76.132812 13.433594 76.632812 12.566406 76.75 C 11.632812 75.988281 10.878906 75.070312 10.304688 74 C 11.027344 73.8125 11.53125 73.394531 11.8125 72.75 Z M 11.8125 72.75 "/>
<path style=" stroke:none;fill-rule:evenodd;fill:rgb(79.607843%,74.509804%,71.372549%);fill-opacity:1;" d="M 15.832031 70.25 C 16.929688 70.648438 17.765625 71.398438 18.34375 72.5 C 16.566406 74.367188 15.394531 74.035156 14.828125 71.5 C 15.105469 70.996094 15.441406 70.578125 15.832031 70.25 Z M 15.832031 70.25 "/>
<path style=" stroke:none;fill-rule:evenodd;fill:rgb(58.039216%,51.372549%,45.882353%);fill-opacity:1;" d="M 20.859375 68.25 C 20.886719 67.976562 21.054688 67.8125 21.359375 67.75 C 21.890625 68.21875 22.222656 68.800781 22.367188 69.5 C 21.621094 70.238281 20.867188 70.988281 20.105469 71.75 C 19.351562 70.773438 19.269531 69.773438 19.851562 68.75 C 20.34375 68.988281 20.761719 69.320312 21.109375 69.75 C 21.480469 69.125 21.398438 68.625 20.859375 68.25 Z M 20.859375 68.25 "/>
<path style=" stroke:none;fill-rule:evenodd;fill:rgb(82.745098%,53.333333%,24.313725%);fill-opacity:1;" d="M 54.027344 4.25 C 48.707031 3.320312 43.347656 3.070312 37.945312 3.5 C 35.398438 4.671875 32.714844 5.257812 29.902344 5.25 C 37.816406 1.675781 45.859375 1.339844 54.027344 4.25 Z M 54.027344 4.25 "/>
<path style=" stroke:none;fill-rule:evenodd;fill:rgb(99.215686%,68.627451%,23.137255%);fill-opacity:1;" d="M 26.886719 70.75 C 27.445312 70.777344 27.949219 70.945312 28.394531 71.25 C 34.386719 79.558594 42.59375 83.308594 53.023438 82.5 C 53.839844 83.878906 54.59375 85.292969 55.285156 86.75 C 56.496094 87.808594 57.753906 88.808594 59.054688 89.75 C 57.0625 91.078125 54.886719 91.910156 52.519531 92.25 C 50.816406 92.582031 50.316406 92.082031 51.011719 90.75 C 50.890625 90.144531 50.554688 89.808594 50.007812 89.75 C 37.417969 89.664062 26.695312 85.246094 17.84375 76.5 C 18.121094 76.308594 18.289062 76.058594 18.34375 75.75 C 21.125 73.949219 23.972656 72.285156 26.886719 70.75 Z M 26.886719 70.75 "/>
<path style=" stroke:none;fill-rule:evenodd;fill:rgb(15.686275%,14.901961%,14.509804%);fill-opacity:1;" d="M 69.105469 85.75 C 65.480469 86.601562 61.960938 86.269531 58.550781 84.75 C 58.246094 84.8125 58.078125 84.976562 58.050781 85.25 C 56.902344 84.566406 56.570312 83.648438 57.042969 82.5 C 61.941406 82.429688 66.800781 82.015625 71.621094 81.25 C 71.667969 83.324219 70.832031 84.824219 69.105469 85.75 Z M 69.105469 85.75 "/>
<use xlink:href="#surface23" mask="url(#mask6)"/>
<path style=" stroke:none;fill-rule:evenodd;fill:rgb(99.607843%,90.980392%,67.843137%);fill-opacity:1;" d="M 18.34375 75.75 C 18.289062 76.058594 18.121094 76.308594 17.84375 76.5 C 26.695312 85.246094 37.417969 89.664062 50.007812 89.75 C 50.703125 90.636719 50.535156 91.386719 49.503906 92 C 35.335938 94.082031 23.695312 89.664062 14.574219 78.75 C 14.382812 79.027344 14.132812 79.195312 13.820312 79.25 C 13.601562 79.28125 13.433594 79.199219 13.320312 79 C 14.765625 77.53125 16.441406 76.449219 18.34375 75.75 Z M 18.34375 75.75 "/>
<path style=" stroke:none;fill-rule:evenodd;fill:rgb(75.294118%,66.666667%,54.901961%);fill-opacity:1;" d="M 69.105469 85.75 C 67.871094 87.152344 66.277344 87.820312 64.332031 87.75 C 61.855469 87.738281 59.761719 86.902344 58.050781 85.25 C 58.078125 84.976562 58.246094 84.8125 58.550781 84.75 C 61.960938 86.269531 65.480469 86.601562 69.105469 85.75 Z M 69.105469 85.75 "/>
<path style=" stroke:none;fill-rule:evenodd;fill:rgb(94.901961%,71.372549%,34.901961%);fill-opacity:1;" d="M 50.007812 89.75 C 50.554688 89.808594 50.890625 90.144531 51.011719 90.75 C 50.316406 92.082031 50.816406 92.582031 52.519531 92.25 C 48.492188 93.480469 44.304688 93.980469 39.957031 93.75 C 29.125 92.53125 20.414062 87.699219 13.820312 79.25 C 14.132812 79.195312 14.382812 79.027344 14.574219 78.75 C 23.695312 89.664062 35.335938 94.082031 49.503906 92 C 50.535156 91.386719 50.703125 90.636719 50.007812 89.75 Z M 50.007812 89.75 "/>
<use xlink:href="#surface26" mask="url(#mask7)"/>
</g>
</svg>
