<?xml version="1.0" encoding="UTF-8"?>
<svg xmlns="http://www.w3.org/2000/svg" xmlns:xlink="http://www.w3.org/1999/xlink" width="px" height="px" viewBox="0 0 109 104" version="1.1">
<defs>
<filter id="alpha" filterUnits="objectBoundingBox" x="0%" y="0%" width="100%" height="100%">
  <feColorMatrix type="matrix" in="SourceGraphic" values="0 0 0 0 1 0 0 0 0 1 0 0 0 0 1 0 0 0 1 0"/>
</filter>
<mask id="mask0">
  <g filter="url(#alpha)">
<rect x="0" y="0" width="109" height="104" style="fill:rgb(0%,0%,0%);fill-opacity:0.0431373;stroke:none;"/>
  </g>
</mask>
<clipPath id="clip1">
  <rect x="0" y="0" width="109" height="104"/>
</clipPath>
<g id="surface5" clip-path="url(#clip1)">
<path style=" stroke:none;fill-rule:evenodd;fill:rgb(11.372549%,20.784314%,27.058824%);fill-opacity:1;" d="M 31.75 -0.25 C 32.417969 -0.25 33.082031 -0.25 33.75 -0.25 C 36.03125 1.058594 38.363281 2.058594 40.75 2.75 C 37.84375 2.726562 35.175781 1.890625 32.75 0.25 C 32.261719 1.542969 32.09375 2.875 32.25 4.25 C 31.589844 2.792969 31.421875 1.292969 31.75 -0.25 Z M 31.75 -0.25 "/>
</g>
<mask id="mask1">
  <g filter="url(#alpha)">
<rect x="0" y="0" width="109" height="104" style="fill:rgb(0%,0%,0%);fill-opacity:0.976471;stroke:none;"/>
  </g>
</mask>
<clipPath id="clip2">
  <rect x="0" y="0" width="109" height="104"/>
</clipPath>
<g id="surface8" clip-path="url(#clip2)">
<path style=" stroke:none;fill-rule:evenodd;fill:rgb(1.568627%,2.352941%,5.490196%);fill-opacity:1;" d="M 86.75 18.25 C 86.085938 18.976562 85.671875 18.808594 85.5 17.75 C 85 18.582031 84.5 19.417969 84 20.25 C 82.855469 19.761719 81.855469 19.097656 81 18.25 C 80.320312 18.691406 79.570312 18.855469 78.75 18.75 C 77.121094 14.308594 78.121094 14.058594 81.75 18 C 82.550781 18.136719 83.300781 18.386719 84 18.75 C 83.28125 13.785156 80.363281 11.117188 75.25 10.75 C 73.535156 10.765625 72.035156 11.265625 70.75 12.25 C 68.25 13.742188 66.582031 15.910156 65.75 18.75 C 66.25 19.503906 66.585938 20.339844 66.75 21.25 C 65.75 21.25 64.75 21.25 63.75 21.25 C 62.347656 20.839844 60.847656 20.589844 59.25 20.5 C 59.785156 19.859375 60.453125 19.691406 61.25 20 C 59.324219 18.574219 59.574219 18.160156 62 18.75 C 62.660156 17.34375 63.410156 16.011719 64.25 14.75 C 64.703125 14.394531 64.867188 13.894531 64.75 13.25 C 64.828125 12.066406 64.996094 10.902344 65.25 9.75 C 65.632812 10.332031 66.132812 10.832031 66.75 11.25 C 70.851562 8.226562 75.351562 7.476562 80.25 9 C 84.085938 10.921875 86.25 14.003906 86.75 18.25 Z M 86.75 18.25 "/>
</g>
<mask id="mask2">
  <g filter="url(#alpha)">
<rect x="0" y="0" width="109" height="104" style="fill:rgb(0%,0%,0%);fill-opacity:0.196078;stroke:none;"/>
  </g>
</mask>
<clipPath id="clip3">
  <rect x="0" y="0" width="109" height="104"/>
</clipPath>
<g id="surface11" clip-path="url(#clip3)">
<path style=" stroke:none;fill-rule:evenodd;fill:rgb(12.941176%,21.960784%,28.627451%);fill-opacity:1;" d="M 32.25 4.25 C 32.910156 6.117188 32.910156 8.03125 32.25 10 C 28.953125 10.664062 25.621094 10.914062 22.25 10.75 C 22.25 15.082031 22.25 19.417969 22.25 23.75 C 20.691406 26.109375 19.191406 28.527344 17.75 31 C 15.917969 31.136719 14.253906 30.722656 12.75 29.75 C 14.261719 29.9375 15.761719 30.023438 17.25 30 C 18.726562 27.960938 20.144531 25.875 21.5 23.75 C 21.75 19.253906 21.832031 14.753906 21.75 10.25 C 23.808594 9.996094 25.640625 9.996094 27.25 10.25 C 28.582031 9.917969 29.917969 9.582031 31.25 9.25 C 31.644531 8.878906 31.976562 8.460938 32.25 8 C 32.132812 6.855469 32.132812 5.605469 32.25 4.25 Z M 32.25 4.25 "/>
</g>
<mask id="mask3">
  <g filter="url(#alpha)">
<rect x="0" y="0" width="109" height="104" style="fill:rgb(0%,0%,0%);fill-opacity:0.0666667;stroke:none;"/>
  </g>
</mask>
<clipPath id="clip4">
  <rect x="0" y="0" width="109" height="104"/>
</clipPath>
<g id="surface14" clip-path="url(#clip4)">
<path style=" stroke:none;fill-rule:evenodd;fill:rgb(12.941176%,20%,25.882353%);fill-opacity:1;" d="M 108.75 43.75 C 108.75 44.917969 108.75 46.082031 108.75 47.25 C 105.511719 50.527344 105.511719 53.863281 108.75 57.25 C 108.75 58.75 108.75 60.25 108.75 61.75 C 107.511719 63.359375 106.59375 65.195312 106 67.25 C 106.320312 71.859375 104.40625 75.109375 100.25 77 C 98.75 77.332031 97.25 77.332031 95.75 77 C 95.292969 76.859375 94.960938 76.609375 94.75 76.25 C 98.125 76.851562 101.042969 76.019531 103.5 73.75 C 104.027344 70.140625 104.945312 66.640625 106.25 63.25 C 108.433594 60.210938 108.183594 57.375 105.5 54.75 C 104.761719 51.851562 105.429688 49.351562 107.5 47.25 C 107.582031 46.667969 107.667969 46.082031 107.75 45.5 C 106.804688 43.183594 106.21875 40.765625 106 38.25 C 105.535156 37.152344 104.953125 36.152344 104.25 35.25 C 104.578125 33.082031 104.078125 31.164062 102.75 29.5 C 99.882812 28.351562 96.882812 27.9375 93.75 28.25 C 92.855469 24.375 90.6875 21.457031 87.25 19.5 C 86.875 19.164062 86.707031 18.746094 86.75 18.25 C 86.25 14.003906 84.085938 10.921875 80.25 9 C 75.351562 7.476562 70.851562 8.226562 66.75 11.25 C 66.132812 10.832031 65.632812 10.332031 65.25 9.75 C 62.71875 6.640625 59.550781 4.390625 55.75 3 C 50.9375 2.097656 46.101562 2.015625 41.25 2.75 C 43.984375 1.445312 46.816406 0.777344 49.75 0.75 C 50.84375 0.796875 51.84375 1.128906 52.75 1.75 C 53.222656 1.507812 53.722656 1.339844 54.25 1.25 C 59.371094 2.871094 63.703125 5.703125 67.25 9.75 C 77.679688 4.5 84.761719 7.5 88.5 18.75 C 91.421875 20.761719 93.503906 23.429688 94.75 26.75 C 98.617188 26.066406 101.867188 27.234375 104.5 30.25 C 105.449219 34.128906 106.449219 37.960938 107.5 41.75 C 107.96875 42.429688 108.382812 43.097656 108.75 43.75 Z M 108.75 43.75 "/>
</g>
<mask id="mask4">
  <g filter="url(#alpha)">
<rect x="0" y="0" width="109" height="104" style="fill:rgb(0%,0%,0%);fill-opacity:0.25098;stroke:none;"/>
  </g>
</mask>
<clipPath id="clip5">
  <rect x="0" y="0" width="109" height="104"/>
</clipPath>
<g id="surface17" clip-path="url(#clip5)">
<path style=" stroke:none;fill-rule:evenodd;fill:rgb(13.333333%,20.784314%,28.235294%);fill-opacity:1;" d="M 10.75 43.25 C 11.246094 43.207031 11.664062 43.375 12 43.75 C 12.515625 46.15625 12.015625 48.324219 10.5 50.25 C 8.355469 52.449219 5.769531 53.78125 2.75 54.25 C 6.121094 53.132812 8.871094 51.132812 11 48.25 C 12.0625 46.507812 11.976562 44.839844 10.75 43.25 Z M 10.75 43.25 "/>
</g>
<mask id="mask5">
  <g filter="url(#alpha)">
<rect x="0" y="0" width="109" height="104" style="fill:rgb(0%,0%,0%);fill-opacity:0.972549;stroke:none;"/>
  </g>
</mask>
<clipPath id="clip6">
  <rect x="0" y="0" width="109" height="104"/>
</clipPath>
<g id="surface20" clip-path="url(#clip6)">
<path style=" stroke:none;fill-rule:evenodd;fill:rgb(71.764706%,71.372549%,70.588235%);fill-opacity:1;" d="M 72.75 59.25 C 73.710938 59.398438 74.546875 59.8125 75.25 60.5 C 73.816406 60.902344 72.484375 60.816406 71.25 60.25 C 71.410156 59.476562 71.910156 59.140625 72.75 59.25 Z M 72.75 59.25 "/>
</g>
<mask id="mask6">
  <g filter="url(#alpha)">
<rect x="0" y="0" width="109" height="104" style="fill:rgb(0%,0%,0%);fill-opacity:0.984314;stroke:none;"/>
  </g>
</mask>
<clipPath id="clip7">
  <rect x="0" y="0" width="109" height="104"/>
</clipPath>
<g id="surface23" clip-path="url(#clip7)">
<path style=" stroke:none;fill-rule:evenodd;fill:rgb(3.137255%,3.921569%,5.882353%);fill-opacity:1;" d="M 106.25 63.25 C 104.945312 66.640625 104.027344 70.140625 103.5 73.75 C 101.042969 76.019531 98.125 76.851562 94.75 76.25 C 94.394531 75.796875 93.894531 75.632812 93.25 75.75 C 92.621094 79.789062 90.539062 82.789062 87 84.75 C 86.789062 87.722656 85.789062 90.386719 84 92.75 C 82.90625 93.769531 81.65625 94.4375 80.25 94.75 C 78.035156 95.414062 75.871094 95.332031 73.75 94.5 C 74.75 94.332031 75.75 94.167969 76.75 94 C 75.386719 93.636719 74.050781 93.71875 72.75 94.25 C 71.121094 94.109375 70.121094 93.273438 69.75 91.75 C 73.328125 93.65625 76.996094 93.742188 80.75 92 C 81.355469 91.480469 81.855469 90.898438 82.25 90.25 C 83.292969 89.15625 83.792969 87.824219 83.75 86.25 C 82.003906 86.65625 80.671875 87.65625 79.75 89.25 C 78.980469 89.652344 78.144531 89.816406 77.25 89.75 C 77.34375 88.902344 77.757812 88.234375 78.5 87.75 C 78.746094 86.933594 78.828125 86.097656 78.75 85.25 C 75.417969 85.25 72.082031 85.25 68.75 85.25 C 67.949219 85.117188 67.285156 85.28125 66.75 85.75 C 65.71875 85.65625 64.71875 85.40625 63.75 85 C 64.3125 84.476562 64.976562 84.144531 65.75 84 C 65.132812 83.882812 64.632812 83.632812 64.25 83.25 C 67.675781 83.410156 71.011719 83.246094 74.25 82.75 C 74.25 82.25 74.25 81.75 74.25 81.25 C 74.75 81.25 75.25 81.25 75.75 81.25 C 76.027344 81.894531 76.527344 82.3125 77.25 82.5 C 77.082031 82.667969 76.917969 82.832031 76.75 83 C 79.675781 83.410156 82.507812 83.324219 85.25 82.75 C 88.078125 81.777344 89.746094 79.777344 90.25 76.75 C 90.570312 76.453125 90.734375 76.035156 90.75 75.5 C 90.195312 73.589844 89.695312 71.671875 89.25 69.75 C 90.59375 69.667969 91.925781 69.75 93.25 70 C 92.210938 70.636719 92.042969 71.386719 92.75 72.25 C 95.082031 74.113281 97.582031 74.195312 100.25 72.5 C 101.074219 71.722656 101.238281 70.890625 100.75 70 C 99.425781 69.75 98.09375 69.667969 96.75 69.75 C 96.3125 69.816406 95.976562 69.648438 95.75 69.25 C 96.644531 68.914062 97.480469 68.582031 98.25 68.25 C 100.109375 68.660156 101.277344 67.992188 101.75 66.25 C 102.394531 65.730469 102.394531 65.144531 101.75 64.5 C 103.359375 64.359375 104.859375 63.945312 106.25 63.25 Z M 106.25 63.25 "/>
</g>
<mask id="mask7">
  <g filter="url(#alpha)">
<rect x="0" y="0" width="109" height="104" style="fill:rgb(0%,0%,0%);fill-opacity:0.996078;stroke:none;"/>
  </g>
</mask>
<clipPath id="clip8">
  <rect x="0" y="0" width="109" height="104"/>
</clipPath>
<g id="surface26" clip-path="url(#clip8)">
<path style=" stroke:none;fill-rule:evenodd;fill:rgb(2.352941%,3.529412%,5.882353%);fill-opacity:1;" d="M 59.75 83.25 C 61.25 83.25 62.75 83.25 64.25 83.25 C 64.632812 83.632812 65.132812 83.882812 65.75 84 C 64.976562 84.144531 64.3125 84.476562 63.75 85 C 64.71875 85.40625 65.71875 85.65625 66.75 85.75 C 66.964844 88.183594 67.964844 90.183594 69.75 91.75 C 70.121094 93.273438 71.121094 94.109375 72.75 94.25 C 74.050781 93.71875 75.386719 93.636719 76.75 94 C 75.75 94.167969 74.75 94.332031 73.75 94.5 C 75.871094 95.332031 78.035156 95.414062 80.25 94.75 C 74.824219 97.246094 70.074219 96.246094 66 91.75 C 61.691406 97.863281 55.773438 101.03125 48.25 101.25 C 44.921875 100.808594 41.589844 100.726562 38.25 101 C 36.597656 101.332031 35.097656 101.914062 33.75 102.75 C 33.253906 102.707031 32.835938 102.875 32.5 103.25 C 33.203125 98.472656 31.789062 94.640625 28.25 91.75 C 27.546875 91.511719 27.214844 91.011719 27.25 90.25 C 26.757812 88.582031 25.589844 87.832031 23.75 88 C 24.125 87.664062 24.292969 87.246094 24.25 86.75 C 25.234375 86.089844 26.234375 85.421875 27.25 84.75 C 28.699219 87.617188 30.449219 90.285156 32.5 92.75 C 33.457031 91.671875 34.289062 90.503906 35 89.25 C 35.394531 89.871094 35.644531 90.539062 35.75 91.25 C 34.8125 94 34.5625 96.835938 35 99.75 C 35.191406 99.472656 35.441406 99.304688 35.75 99.25 C 37.675781 98.539062 39.675781 98.207031 41.75 98.25 C 47.300781 99.390625 52.632812 98.808594 57.75 96.5 C 59.164062 95.667969 60.332031 94.585938 61.25 93.25 C 62.273438 92.710938 62.9375 91.878906 63.25 90.75 C 64.492188 89.957031 64.824219 88.957031 64.25 87.75 C 63.367188 87.269531 62.367188 87.101562 61.25 87.25 C 61.25 86.417969 61.25 85.582031 61.25 84.75 C 59.742188 84.832031 58.242188 84.75 56.75 84.5 C 57.75 83.992188 58.75 83.574219 59.75 83.25 Z M 59.75 83.25 "/>
</g>
<mask id="mask8">
  <g filter="url(#alpha)">
<rect x="0" y="0" width="109" height="104" style="fill:rgb(0%,0%,0%);fill-opacity:0.117647;stroke:none;"/>
  </g>
</mask>
<clipPath id="clip9">
  <rect x="0" y="0" width="109" height="104"/>
</clipPath>
<g id="surface29" clip-path="url(#clip9)">
<path style=" stroke:none;fill-rule:evenodd;fill:rgb(13.72549%,20.392157%,25.882353%);fill-opacity:1;" d="M 94.75 76.25 C 93.875 78 92.957031 79.835938 92 81.75 C 90.445312 83.207031 89.195312 84.539062 88.25 85.75 C 85.574219 95.421875 79.40625 98.839844 69.75 96 C 68.511719 95.179688 67.34375 94.261719 66.25 93.25 C 63.992188 95.425781 61.65625 97.507812 59.25 99.5 C 57.222656 100.328125 55.140625 101.078125 53 101.75 C 49.203125 102.109375 45.453125 102.109375 41.75 101.75 C 38.84375 101.710938 36.175781 102.046875 33.75 102.75 C 35.097656 101.914062 36.597656 101.332031 38.25 101 C 41.589844 100.726562 44.921875 100.808594 48.25 101.25 C 55.773438 101.03125 61.691406 97.863281 66 91.75 C 70.074219 96.246094 74.824219 97.246094 80.25 94.75 C 81.65625 94.4375 82.90625 93.769531 84 92.75 C 85.789062 90.386719 86.789062 87.722656 87 84.75 C 90.539062 82.789062 92.621094 79.789062 93.25 75.75 C 93.894531 75.632812 94.394531 75.796875 94.75 76.25 Z M 94.75 76.25 "/>
</g>
<mask id="mask9">
  <g filter="url(#alpha)">
<rect x="0" y="0" width="109" height="104" style="fill:rgb(0%,0%,0%);fill-opacity:0.0470588;stroke:none;"/>
  </g>
</mask>
<clipPath id="clip10">
  <rect x="0" y="0" width="109" height="104"/>
</clipPath>
<g id="surface32" clip-path="url(#clip10)">
<path style=" stroke:none;fill-rule:evenodd;fill:rgb(12.941176%,21.568627%,27.45098%);fill-opacity:1;" d="M 28.25 91.75 C 31.789062 94.640625 33.203125 98.472656 32.5 103.25 C 32.835938 102.875 33.253906 102.707031 33.75 102.75 C 33.582031 103.082031 33.417969 103.417969 33.25 103.75 C 32.75 103.75 32.25 103.75 31.75 103.75 C 31.832031 101.246094 31.75 98.746094 31.5 96.25 C 29.917969 95.074219 28.832031 93.574219 28.25 91.75 Z M 28.25 91.75 "/>
</g>
</defs>
<g id="surface1">
<use xlink:href="#surface5" mask="url(#mask0)"/>
<path style=" stroke:none;fill-rule:evenodd;fill:rgb(1.568627%,3.137255%,6.27451%);fill-opacity:1;" d="M 40.75 2.75 C 40.917969 2.75 41.082031 2.75 41.25 2.75 C 46.101562 2.015625 50.9375 2.097656 55.75 3 C 59.550781 4.390625 62.71875 6.640625 65.25 9.75 C 64.996094 10.902344 64.828125 12.066406 64.75 13.25 C 60.84375 7.378906 55.34375 4.546875 48.25 4.75 C 45.414062 4.898438 42.578125 5.066406 39.75 5.25 C 38.34375 5.226562 37.011719 4.894531 35.75 4.25 C 35.582031 4.5 35.417969 4.75 35.25 5 C 35.773438 7.054688 36.105469 9.136719 36.25 11.25 C 32.582031 12.792969 28.75 13.457031 24.75 13.25 C 24.15625 13.84375 23.574219 13.84375 23 13.25 C 22.914062 16.839844 22.664062 20.339844 22.25 23.75 C 22.25 19.417969 22.25 15.082031 22.25 10.75 C 25.621094 10.914062 28.953125 10.664062 32.25 10 C 32.910156 8.03125 32.910156 6.117188 32.25 4.25 C 32.09375 2.875 32.261719 1.542969 32.75 0.25 C 35.175781 1.890625 37.84375 2.726562 40.75 2.75 Z M 40.75 2.75 "/>
<path style=" stroke:none;fill-rule:evenodd;fill:rgb(3.529412%,47.058824%,58.039216%);fill-opacity:1;" d="M 64.75 13.25 C 64.867188 13.894531 64.703125 14.394531 64.25 14.75 C 62.917969 14.582031 61.582031 14.417969 60.25 14.25 C 60.25 15.417969 60.25 16.582031 60.25 17.75 C 58.449219 17.695312 56.699219 17.363281 55 16.75 C 54.75 16.832031 54.5 16.917969 54.25 17 C 55.058594 17.308594 55.722656 17.808594 56.25 18.5 C 54.820312 19.148438 53.320312 19.566406 51.75 19.75 C 50.414062 19.320312 49.082031 19.070312 47.75 19 C 48.578125 19.722656 48.910156 20.640625 48.75 21.75 C 46.625 21.589844 44.625 22.003906 42.75 23 C 41.167969 25.25 39.582031 27.5 38 29.75 C 37.859375 29.292969 37.609375 28.957031 37.25 28.75 C 36.019531 27.222656 34.519531 26.054688 32.75 25.25 C 33.582031 25.25 34.417969 25.25 35.25 25.25 C 35.304688 24.109375 35.71875 23.109375 36.5 22.25 C 40.554688 18.714844 45.304688 16.882812 50.75 16.75 C 52.3125 17.078125 53.726562 16.578125 55 15.25 C 55.167969 15.417969 55.332031 15.582031 55.5 15.75 C 56.136719 15.148438 56.46875 14.480469 56.5 13.75 C 53.800781 11.648438 50.71875 10.734375 47.25 11 C 46.289062 10.820312 45.457031 10.402344 44.75 9.75 C 47.082031 9.082031 49.417969 8.417969 51.75 7.75 C 49.601562 7.335938 47.4375 7.085938 45.25 7 C 43.417969 6.203125 41.585938 5.621094 39.75 5.25 C 42.578125 5.066406 45.414062 4.898438 48.25 4.75 C 55.34375 4.546875 60.84375 7.378906 64.75 13.25 Z M 64.75 13.25 "/>
<path style=" stroke:none;fill-rule:evenodd;fill:rgb(0.784314%,55.686275%,66.27451%);fill-opacity:1;" d="M 39.75 5.25 C 41.585938 5.621094 43.417969 6.203125 45.25 7 C 47.4375 7.085938 49.601562 7.335938 51.75 7.75 C 49.417969 8.417969 47.082031 9.082031 44.75 9.75 C 45.457031 10.402344 46.289062 10.820312 47.25 11 C 50.71875 10.734375 53.800781 11.648438 56.5 13.75 C 56.46875 14.480469 56.136719 15.148438 55.5 15.75 C 55.332031 15.582031 55.167969 15.417969 55 15.25 C 53.726562 16.578125 52.3125 17.078125 50.75 16.75 C 51.453125 16.035156 52.285156 15.449219 53.25 15 C 52.648438 14.546875 52.234375 13.964844 52 13.25 C 50.96875 13.796875 49.882812 13.878906 48.75 13.5 C 46.265625 12.535156 43.765625 11.617188 41.25 10.75 C 41.867188 10.320312 42.535156 9.988281 43.25 9.75 C 43.792969 9.316406 43.875 8.816406 43.5 8.25 C 41.335938 8.324219 39.171875 8.492188 37 8.75 C 36.933594 10.554688 36.851562 12.304688 36.75 14 C 37.25 14.167969 37.75 14.332031 38.25 14.5 C 34.207031 15.300781 30.207031 15.882812 26.25 16.25 C 25.550781 18.296875 25.21875 20.460938 25.25 22.75 C 24.753906 19.675781 24.589844 16.511719 24.75 13.25 C 28.75 13.457031 32.582031 12.792969 36.25 11.25 C 36.105469 9.136719 35.773438 7.054688 35.25 5 C 35.417969 4.75 35.582031 4.5 35.75 4.25 C 37.011719 4.894531 38.34375 5.226562 39.75 5.25 Z M 39.75 5.25 "/>
<use xlink:href="#surface8" mask="url(#mask1)"/>
<path style=" stroke:none;fill-rule:evenodd;fill:rgb(59.607843%,82.352941%,83.921569%);fill-opacity:1;" d="M 70.75 12.25 C 71.265625 12.957031 71.597656 13.789062 71.75 14.75 C 71.246094 16.089844 70.746094 17.425781 70.25 18.75 C 68.75 18.75 67.25 18.75 65.75 18.75 C 66.582031 15.910156 68.25 13.742188 70.75 12.25 Z M 70.75 12.25 "/>
<path style=" stroke:none;fill-rule:evenodd;fill:rgb(17.254902%,53.333333%,63.137255%);fill-opacity:1;" d="M 78.75 18.75 C 75.917969 18.75 73.082031 18.75 70.25 18.75 C 70.746094 17.425781 71.246094 16.089844 71.75 14.75 C 71.597656 13.789062 71.265625 12.957031 70.75 12.25 C 72.035156 11.265625 73.535156 10.765625 75.25 10.75 C 80.363281 11.117188 83.28125 13.785156 84 18.75 C 83.300781 18.386719 82.550781 18.136719 81.75 18 C 78.121094 14.058594 77.121094 14.308594 78.75 18.75 Z M 78.75 18.75 "/>
<path style=" stroke:none;fill-rule:evenodd;fill:rgb(0%,60%,70.196078%);fill-opacity:1;" d="M 50.75 16.75 C 45.304688 16.882812 40.554688 18.714844 36.5 22.25 C 35.71875 23.109375 35.304688 24.109375 35.25 25.25 C 34.417969 25.25 33.582031 25.25 32.75 25.25 C 31.796875 25.101562 30.964844 24.769531 30.25 24.25 C 30.101562 23.007812 30.101562 21.675781 30.25 20.25 C 31.023438 19.1875 32.023438 18.355469 33.25 17.75 C 33.011719 17.261719 32.679688 16.84375 32.25 16.5 C 30.257812 16.25 28.257812 16.167969 26.25 16.25 C 30.207031 15.882812 34.207031 15.300781 38.25 14.5 C 37.75 14.332031 37.25 14.167969 36.75 14 C 36.851562 12.304688 36.933594 10.554688 37 8.75 C 39.171875 8.492188 41.335938 8.324219 43.5 8.25 C 43.875 8.816406 43.792969 9.316406 43.25 9.75 C 42.535156 9.988281 41.867188 10.320312 41.25 10.75 C 43.765625 11.617188 46.265625 12.535156 48.75 13.5 C 49.882812 13.878906 50.96875 13.796875 52 13.25 C 52.234375 13.964844 52.648438 14.546875 53.25 15 C 52.285156 15.449219 51.453125 16.035156 50.75 16.75 Z M 50.75 16.75 "/>
<path style=" stroke:none;fill-rule:evenodd;fill:rgb(26.27451%,80.784314%,86.27451%);fill-opacity:1;" d="M 26.25 16.25 C 28.257812 16.167969 30.257812 16.25 32.25 16.5 C 32.679688 16.84375 33.011719 17.261719 33.25 17.75 C 32.023438 18.355469 31.023438 19.1875 30.25 20.25 C 30.101562 21.675781 30.101562 23.007812 30.25 24.25 C 28.519531 23.949219 26.851562 23.449219 25.25 22.75 C 25.21875 20.460938 25.550781 18.296875 26.25 16.25 Z M 26.25 16.25 "/>
<path style=" stroke:none;fill-rule:evenodd;fill:rgb(77.254902%,81.176471%,78.039216%);fill-opacity:1;" d="M 87.75 22.75 C 87.917969 24.25 87.25 24.917969 85.75 24.75 C 84.117188 24.257812 82.453125 23.925781 80.75 23.75 C 79.074219 23.414062 77.742188 22.582031 76.75 21.25 C 80.667969 20.253906 84.332031 20.753906 87.75 22.75 Z M 87.75 22.75 "/>
<path style=" stroke:none;fill-rule:evenodd;fill:rgb(3.921569%,4.705882%,6.27451%);fill-opacity:1;" d="M 86.75 18.25 C 86.707031 18.746094 86.875 19.164062 87.25 19.5 C 90.6875 21.457031 92.855469 24.375 93.75 28.25 C 96.882812 27.9375 99.882812 28.351562 102.75 29.5 C 104.078125 31.164062 104.578125 33.082031 104.25 35.25 C 103.695312 35.910156 103.695312 36.660156 104.25 37.5 C 104.179688 38.152344 103.847656 38.566406 103.25 38.75 C 101.511719 36.484375 99.175781 35.652344 96.25 36.25 C 96.351562 37.757812 96.519531 39.257812 96.75 40.75 C 97.4375 40.828125 98.101562 40.746094 98.75 40.5 C 99.523438 39.5625 100.4375 38.8125 101.5 38.25 C 101.757812 38.761719 102.007812 39.261719 102.25 39.75 C 100.957031 39.773438 99.871094 40.273438 99 41.25 C 98.84375 41.871094 99.09375 42.371094 99.75 42.75 C 99.570312 43.089844 99.402344 43.425781 99.25 43.75 C 98.519531 43.15625 97.851562 43.15625 97.25 43.75 C 96.917969 43.75 96.582031 43.75 96.25 43.75 C 95.355469 43.1875 94.355469 43.105469 93.25 43.5 C 92.480469 44.054688 92.148438 44.804688 92.25 45.75 C 91.867188 45.367188 91.617188 44.867188 91.5 44.25 C 91.003906 44.53125 90.585938 44.867188 90.25 45.25 C 90.082031 45.25 89.917969 45.25 89.75 45.25 C 89.25 45.25 88.75 45.25 88.25 45.25 C 89.460938 43.726562 90.960938 42.558594 92.75 41.75 C 93.519531 41.351562 94.355469 41.183594 95.25 41.25 C 95.402344 38.71875 94.402344 36.886719 92.25 35.75 C 91.503906 36.417969 90.671875 36.917969 89.75 37.25 C 89.75 37.082031 89.75 36.917969 89.75 36.75 C 89.851562 35.007812 90.269531 33.339844 91 31.75 C 91.734375 28.058594 90.652344 25.058594 87.75 22.75 C 84.332031 20.753906 80.667969 20.253906 76.75 21.25 C 74.582031 21.25 72.417969 21.25 70.25 21.25 C 69.082031 21.25 67.917969 21.25 66.75 21.25 C 66.585938 20.339844 66.25 19.503906 65.75 18.75 C 67.25 18.75 68.75 18.75 70.25 18.75 C 73.082031 18.75 75.917969 18.75 78.75 18.75 C 79.570312 18.855469 80.320312 18.691406 81 18.25 C 81.855469 19.097656 82.855469 19.761719 84 20.25 C 84.5 19.417969 85 18.582031 85.5 17.75 C 85.671875 18.808594 86.085938 18.976562 86.75 18.25 Z M 86.75 18.25 "/>
<path style=" stroke:none;fill-rule:evenodd;fill:rgb(68.627451%,78.431373%,78.431373%);fill-opacity:1;" d="M 63.75 21.25 C 64.75 21.25 65.75 21.25 66.75 21.25 C 67.917969 21.25 69.082031 21.25 70.25 21.25 C 69.523438 21.914062 69.691406 22.328125 70.75 22.5 C 72.933594 22.921875 75.101562 23.421875 77.25 24 C 76.777344 24.242188 76.277344 24.324219 75.75 24.25 C 72.746094 24.167969 69.746094 24.25 66.75 24.5 C 66.3125 25.023438 65.8125 25.4375 65.25 25.75 C 63.328125 23.023438 61.078125 22.691406 58.5 24.75 C 57.667969 24.417969 56.832031 24.082031 56 23.75 C 55.347656 23.820312 54.933594 24.152344 54.75 24.75 C 54.105469 25.382812 53.605469 25.21875 53.25 24.25 C 52.503906 24.554688 51.667969 24.554688 50.75 24.25 C 49.207031 24.605469 47.707031 25.105469 46.25 25.75 C 47.265625 26.484375 47.183594 27.316406 46 28.25 C 45.894531 27.472656 45.644531 26.804688 45.25 26.25 C 44.898438 25.941406 44.398438 25.941406 43.75 26.25 C 46.53125 24.789062 49.367188 23.375 52.25 22 C 56.046875 21.320312 59.882812 21.070312 63.75 21.25 Z M 63.75 21.25 "/>
<use xlink:href="#surface11" mask="url(#mask2)"/>
<path style=" stroke:none;fill-rule:evenodd;fill:rgb(31.764706%,41.176471%,41.176471%);fill-opacity:1;" d="M 70.25 21.25 C 72.417969 21.25 74.582031 21.25 76.75 21.25 C 77.742188 22.582031 79.074219 23.414062 80.75 23.75 C 81.828125 24.921875 83.078125 25.921875 84.5 26.75 C 84.636719 27.550781 84.886719 28.300781 85.25 29 C 85 29.25 84.75 29.5 84.5 29.75 C 84.292969 29.121094 83.875 28.789062 83.25 28.75 C 81.40625 26.082031 78.90625 24.582031 75.75 24.25 C 76.277344 24.324219 76.777344 24.242188 77.25 24 C 75.101562 23.421875 72.933594 22.921875 70.75 22.5 C 69.691406 22.328125 69.523438 21.914062 70.25 21.25 Z M 70.25 21.25 "/>
<path style=" stroke:none;fill-rule:evenodd;fill:rgb(3.921569%,6.666667%,9.019608%);fill-opacity:1;" d="M 24.75 13.25 C 24.589844 16.511719 24.753906 19.675781 25.25 22.75 C 26.851562 23.449219 28.519531 23.949219 30.25 24.25 C 30.964844 24.769531 31.796875 25.101562 32.75 25.25 C 34.519531 26.054688 36.019531 27.222656 37.25 28.75 C 36.371094 29.277344 36.039062 30.109375 36.25 31.25 C 35.703125 30.449219 35.035156 29.699219 34.25 29 C 30.976562 27.601562 27.640625 26.351562 24.25 25.25 C 23.578125 26.265625 22.910156 27.265625 22.25 28.25 C 21.378906 29.820312 20.378906 31.320312 19.25 32.75 C 17.957031 33.195312 16.625 33.363281 15.25 33.25 C 15.132812 33.894531 15.296875 34.394531 15.75 34.75 C 16.050781 36.148438 16.550781 37.480469 17.25 38.75 C 14.761719 38.738281 12.261719 39.15625 9.75 40 C 11.847656 41.128906 13.847656 42.378906 15.75 43.75 C 16.25 43.917969 16.582031 44.25 16.75 44.75 C 16.011719 44.617188 15.34375 44.785156 14.75 45.25 C 14.175781 46.875 13.761719 48.539062 13.5 50.25 C 10.585938 52.992188 7.335938 55.160156 3.75 56.75 C 2.675781 56.847656 2.59375 57.347656 3.5 58.25 C 4.917969 60.332031 6.667969 62.082031 8.75 63.5 C 11 64.460938 12.582031 63.710938 13.5 61.25 C 13.746094 62.066406 13.832031 62.902344 13.75 63.75 C 12.449219 66.195312 11.78125 68.863281 11.75 71.75 C 11.195312 72.472656 11.109375 73.304688 11.5 74.25 C 14.277344 73.488281 16.695312 72.15625 18.75 70.25 C 19.398438 69.855469 19.980469 69.355469 20.5 68.75 C 20.75 70.742188 20.832031 72.742188 20.75 74.75 C 24.070312 74.089844 26.738281 72.421875 28.75 69.75 C 28.785156 70.480469 28.617188 71.144531 28.25 71.75 C 27.515625 72.203125 27.015625 72.871094 26.75 73.75 C 26.027344 74.085938 25.359375 74.417969 24.75 74.75 C 22.785156 75.339844 21.785156 76.671875 21.75 78.75 C 21.109375 81.261719 21.109375 83.84375 21.75 86.5 C 21.496094 87.085938 21.078125 87.5 20.5 87.75 C 19.558594 83.289062 18.972656 78.789062 18.75 74.25 C 17.722656 74.199219 16.890625 74.535156 16.25 75.25 C 13.609375 76.515625 10.773438 77.183594 7.75 77.25 C 8.335938 73.917969 8.753906 70.585938 9 67.25 C 6.855469 66.363281 5.023438 65.03125 3.5 63.25 C 2.246094 61.40625 0.996094 59.574219 -0.25 57.75 C -0.25 56.582031 -0.25 55.417969 -0.25 54.25 C 0.75 54.25 1.75 54.25 2.75 54.25 C 5.769531 53.78125 8.355469 52.449219 10.5 50.25 C 12.015625 48.324219 12.515625 46.15625 12 43.75 C 11.664062 43.375 11.246094 43.207031 10.75 43.25 C 8.648438 42.269531 6.648438 41.105469 4.75 39.75 C 7.132812 38.007812 9.800781 36.84375 12.75 36.25 C 12.835938 34.179688 12.503906 32.179688 11.75 30.25 C 11.929688 29.289062 12.265625 29.125 12.75 29.75 C 14.253906 30.722656 15.917969 31.136719 17.75 31 C 19.191406 28.527344 20.691406 26.109375 22.25 23.75 C 22.664062 20.339844 22.914062 16.839844 23 13.25 C 23.574219 13.84375 24.15625 13.84375 24.75 13.25 Z M 24.75 13.25 "/>
<path style=" stroke:none;fill-rule:evenodd;fill:rgb(54.117647%,81.176471%,79.215686%);fill-opacity:1;" d="M 54.75 24.75 C 53.671875 26.90625 52.589844 29.074219 51.5 31.25 C 51.226562 32.933594 51.3125 34.601562 51.75 36.25 C 50.875 34.824219 50.457031 33.15625 50.5 31.25 C 48.957031 34.199219 48.375 37.367188 48.75 40.75 C 48.261719 39.527344 48.097656 38.191406 48.25 36.75 C 47.535156 36.789062 46.867188 36.621094 46.25 36.25 C 45.480469 33.90625 45.8125 31.738281 47.25 29.75 C 47.167969 29.582031 47.082031 29.417969 47 29.25 C 46.5 29.917969 46 30.582031 45.5 31.25 C 45.25 29.589844 45.167969 27.925781 45.25 26.25 C 45.644531 26.804688 45.894531 27.472656 46 28.25 C 47.183594 27.316406 47.265625 26.484375 46.25 25.75 C 47.707031 25.105469 49.207031 24.605469 50.75 24.25 C 51.667969 24.554688 52.503906 24.554688 53.25 24.25 C 53.605469 25.21875 54.105469 25.382812 54.75 24.75 Z M 54.75 24.75 "/>
<path style=" stroke:none;fill-rule:evenodd;fill:rgb(5.098039%,6.27451%,8.235294%);fill-opacity:1;" d="M 64.25 14.75 C 63.410156 16.011719 62.660156 17.34375 62 18.75 C 59.574219 18.160156 59.324219 18.574219 61.25 20 C 60.453125 19.691406 59.785156 19.859375 59.25 20.5 C 60.847656 20.589844 62.347656 20.839844 63.75 21.25 C 59.882812 21.070312 56.046875 21.320312 52.25 22 C 49.367188 23.375 46.53125 24.789062 43.75 26.25 C 42.664062 26.917969 41.832031 27.835938 41.25 29 C 42.054688 28.992188 42.886719 28.90625 43.75 28.75 C 42.789062 32.046875 41.957031 35.378906 41.25 38.75 C 41.417969 38.917969 41.582031 39.082031 41.75 39.25 C 43.449219 38.183594 45.28125 37.515625 47.25 37.25 C 45.773438 43.238281 47.273438 48.320312 51.75 52.5 C 52.597656 52.921875 53.429688 53.339844 54.25 53.75 C 54.402344 54.074219 54.570312 54.410156 54.75 54.75 C 52.015625 59.953125 50.179688 65.453125 49.25 71.25 C 49.410156 72.785156 49.242188 74.285156 48.75 75.75 C 46.539062 75.832031 44.371094 75.832031 42.25 75.75 C 42.972656 77.039062 43.804688 78.203125 44.75 79.25 C 45.789062 81.265625 47.457031 82.265625 49.75 82.25 C 50.117188 79.9375 51.117188 79.855469 52.75 82 C 54.84375 82.816406 57.011719 83.230469 59.25 83.25 C 59.417969 83.25 59.582031 83.25 59.75 83.25 C 58.75 83.574219 57.75 83.992188 56.75 84.5 C 58.242188 84.75 59.742188 84.832031 61.25 84.75 C 61.25 85.582031 61.25 86.417969 61.25 87.25 C 62.367188 87.101562 63.367188 87.269531 64.25 87.75 C 63.082031 87.75 61.917969 87.75 60.75 87.75 C 60.75 86.917969 60.75 86.082031 60.75 85.25 C 59.242188 85.332031 57.742188 85.25 56.25 85 C 53.996094 84.054688 51.664062 83.46875 49.25 83.25 C 47.601562 83.371094 46.101562 82.953125 44.75 82 C 42 79.574219 39.667969 76.824219 37.75 73.75 C 37.277344 73.507812 36.777344 73.339844 36.25 73.25 C 35.398438 73.773438 34.648438 74.4375 34 75.25 C 33.9375 72.5 34.1875 69.832031 34.75 67.25 C 37.0625 71.574219 40.726562 73.574219 45.75 73.25 C 46.246094 73.292969 46.664062 73.125 47 72.75 C 47.167969 71.082031 47.332031 69.417969 47.5 67.75 C 48.289062 63.597656 49.539062 59.597656 51.25 55.75 C 45.902344 51.960938 43.484375 46.792969 44 40.25 C 43.347656 40.542969 42.765625 40.875 42.25 41.25 C 40.648438 41.839844 39.066406 42.507812 37.5 43.25 C 37.25 43.082031 37 42.917969 36.75 42.75 C 38.71875 38.847656 40.050781 34.847656 40.75 30.75 C 38.882812 32.117188 37.382812 33.78125 36.25 35.75 C 35.945312 34.347656 35.945312 32.847656 36.25 31.25 C 36.039062 30.109375 36.371094 29.277344 37.25 28.75 C 37.609375 28.957031 37.859375 29.292969 38 29.75 C 39.582031 27.5 41.167969 25.25 42.75 23 C 44.625 22.003906 46.625 21.589844 48.75 21.75 C 48.910156 20.640625 48.578125 19.722656 47.75 19 C 49.082031 19.070312 50.414062 19.320312 51.75 19.75 C 53.320312 19.566406 54.820312 19.148438 56.25 18.5 C 55.722656 17.808594 55.058594 17.308594 54.25 17 C 54.5 16.917969 54.75 16.832031 55 16.75 C 56.699219 17.363281 58.449219 17.695312 60.25 17.75 C 60.25 16.582031 60.25 15.417969 60.25 14.25 C 61.582031 14.417969 62.917969 14.582031 64.25 14.75 Z M 64.25 14.75 "/>
<path style=" stroke:none;fill-rule:evenodd;fill:rgb(1.568627%,45.882353%,57.254902%);fill-opacity:1;" d="M 36.25 31.25 C 35.945312 32.847656 35.945312 34.347656 36.25 35.75 C 36 36.542969 35.5 36.792969 34.75 36.5 C 34.082031 35.167969 33.417969 33.832031 32.75 32.5 C 29.40625 31.527344 26.40625 29.945312 23.75 27.75 C 23.292969 28.0625 22.792969 28.230469 22.25 28.25 C 22.910156 27.265625 23.578125 26.265625 24.25 25.25 C 27.640625 26.351562 30.976562 27.601562 34.25 29 C 35.035156 29.699219 35.703125 30.449219 36.25 31.25 Z M 36.25 31.25 "/>
<use xlink:href="#surface14" mask="url(#mask3)"/>
<path style=" stroke:none;fill-rule:evenodd;fill:rgb(86.27451%,86.27451%,83.137255%);fill-opacity:1;" d="M 95.75 30.75 C 97.324219 30.605469 98.824219 30.855469 100.25 31.5 C 101.078125 32.222656 101.410156 33.140625 101.25 34.25 C 98.914062 34.5 96.582031 34.585938 94.25 34.5 C 92.625 32.335938 93.125 31.085938 95.75 30.75 Z M 95.75 30.75 "/>
<path style=" stroke:none;fill-rule:evenodd;fill:rgb(5.882353%,67.843137%,75.294118%);fill-opacity:1;" d="M 32.75 41.75 C 31.269531 43.898438 29.601562 45.898438 27.75 47.75 C 26.59375 45.871094 25.679688 43.871094 25 41.75 C 22.695312 40.316406 20.527344 40.484375 18.5 42.25 C 17.605469 41.796875 16.6875 41.710938 15.75 42 C 15.414062 42.492188 15.414062 43.078125 15.75 43.75 C 13.847656 42.378906 11.847656 41.128906 9.75 40 C 12.261719 39.15625 14.761719 38.738281 17.25 38.75 C 16.550781 37.480469 16.050781 36.148438 15.75 34.75 C 15.71875 34.53125 15.800781 34.363281 16 34.25 C 16.800781 35.019531 17.714844 35.269531 18.75 35 C 18.582031 34.832031 18.417969 34.667969 18.25 34.5 C 19.390625 34.394531 20.390625 33.976562 21.25 33.25 C 24.398438 36.480469 27.480469 39.816406 30.5 43.25 C 30.746094 42.601562 30.828125 41.9375 30.75 41.25 C 31.480469 41.214844 32.144531 41.382812 32.75 41.75 Z M 32.75 41.75 "/>
<path style=" stroke:none;fill-rule:evenodd;fill:rgb(12.941176%,16.470588%,17.254902%);fill-opacity:1;" d="M 65.25 25.75 C 65.25 25.917969 65.25 26.082031 65.25 26.25 C 62.253906 25.070312 59.253906 25.238281 56.25 26.75 C 51.910156 31.941406 52.410156 36.691406 57.75 41 C 59.703125 41.375 61.535156 41.125 63.25 40.25 C 63.582031 40.25 63.917969 40.25 64.25 40.25 C 65.839844 41.585938 66.503906 41.085938 66.25 38.75 C 66.671875 39.335938 67.003906 40.003906 67.25 40.75 C 66.066406 43.726562 66.898438 46.0625 69.75 47.75 C 71.414062 46.851562 73.25 46.519531 75.25 46.75 C 75.25 46.25 75.25 45.75 75.25 45.25 C 75.554688 44.804688 75.722656 44.304688 75.75 43.75 C 77.0625 43.449219 78.398438 43.199219 79.75 43 C 82.167969 40.25 84.582031 37.5 87 34.75 C 87.332031 34.25 87.332031 33.75 87 33.25 C 86.308594 32.726562 85.808594 32.058594 85.5 31.25 C 84.820312 30.808594 84.070312 30.644531 83.25 30.75 C 83.25 30.082031 83.25 29.417969 83.25 28.75 C 83.875 28.789062 84.292969 29.121094 84.5 29.75 C 84.75 29.5 85 29.25 85.25 29 C 84.886719 28.300781 84.636719 27.550781 84.5 26.75 C 83.078125 25.921875 81.828125 24.921875 80.75 23.75 C 82.453125 23.925781 84.117188 24.257812 85.75 24.75 C 85.667969 26.09375 85.75 27.425781 86 28.75 C 87.257812 30.421875 88.175781 32.253906 88.75 34.25 C 87.128906 36.625 85.210938 38.792969 83 40.75 C 81.863281 42.246094 82.28125 42.910156 84.25 42.75 C 83.78125 43.488281 83.113281 43.988281 82.25 44.25 C 81.402344 44.167969 80.566406 44.253906 79.75 44.5 C 78.136719 45.554688 76.46875 46.472656 74.75 47.25 C 73.417969 47.25 72.082031 47.25 70.75 47.25 C 71.121094 48.976562 70.453125 49.808594 68.75 49.75 C 67.257812 47.589844 65.589844 45.589844 63.75 43.75 C 63.71875 43.476562 63.554688 43.3125 63.25 43.25 C 61.832031 43.964844 60.332031 44.300781 58.75 44.25 C 57.570312 43.78125 56.484375 43.117188 55.5 42.25 C 54.105469 40.285156 52.855469 38.285156 51.75 36.25 C 51.3125 34.601562 51.226562 32.933594 51.5 31.25 C 52.589844 29.074219 53.671875 26.90625 54.75 24.75 C 54.933594 24.152344 55.347656 23.820312 56 23.75 C 56.832031 24.082031 57.667969 24.417969 58.5 24.75 C 61.078125 22.691406 63.328125 23.023438 65.25 25.75 Z M 65.25 25.75 "/>
<path style=" stroke:none;fill-rule:evenodd;fill:rgb(40%,41.568627%,40.784314%);fill-opacity:1;" d="M 83.25 30.75 C 84.070312 30.644531 84.820312 30.808594 85.5 31.25 C 85.808594 32.058594 86.308594 32.726562 87 33.25 C 87.332031 33.75 87.332031 34.25 87 34.75 C 84.582031 37.5 82.167969 40.25 79.75 43 C 78.398438 43.199219 77.0625 43.449219 75.75 43.75 C 80.347656 40.648438 82.847656 36.3125 83.25 30.75 Z M 83.25 30.75 "/>
<path style=" stroke:none;fill-rule:evenodd;fill:rgb(47.45098%,47.843137%,43.921569%);fill-opacity:1;" d="M 65.25 26.25 C 64.660156 30.476562 64.992188 34.640625 66.25 38.75 C 66.503906 41.085938 65.839844 41.585938 64.25 40.25 C 64.632812 39.867188 65.132812 39.617188 65.75 39.5 C 64.910156 36.429688 63.746094 33.847656 62.25 31.75 C 61.800781 32.253906 61.46875 32.253906 61.25 31.75 C 63.296875 30.722656 63.714844 29.222656 62.5 27.25 C 60.164062 26.722656 58.664062 27.722656 58 30.25 C 56.753906 33.894531 57.171875 37.3125 59.25 40.5 C 60.128906 40.328125 61.046875 40.078125 62 39.75 C 62.535156 39.765625 62.953125 39.929688 63.25 40.25 C 61.535156 41.125 59.703125 41.375 57.75 41 C 52.410156 36.691406 51.910156 31.941406 56.25 26.75 C 59.253906 25.238281 62.253906 25.070312 65.25 26.25 Z M 65.25 26.25 "/>
<path style=" stroke:none;fill-rule:evenodd;fill:rgb(56.470588%,56.078431%,51.372549%);fill-opacity:1;" d="M 64.25 40.25 C 63.917969 40.25 63.582031 40.25 63.25 40.25 C 62.953125 39.929688 62.535156 39.765625 62 39.75 C 61.046875 40.078125 60.128906 40.328125 59.25 40.5 C 57.171875 37.3125 56.753906 33.894531 58 30.25 C 58.664062 27.722656 60.164062 26.722656 62.5 27.25 C 63.714844 29.222656 63.296875 30.722656 61.25 31.75 C 61.46875 32.253906 61.800781 32.253906 62.25 31.75 C 63.746094 33.847656 64.910156 36.429688 65.75 39.5 C 65.132812 39.617188 64.632812 39.867188 64.25 40.25 Z M 64.25 40.25 "/>
<path style=" stroke:none;fill-rule:evenodd;fill:rgb(0.784314%,0.784314%,5.490196%);fill-opacity:1;" d="M 75.75 24.25 C 78.90625 24.582031 81.40625 26.082031 83.25 28.75 C 83.25 29.417969 83.25 30.082031 83.25 30.75 C 82.847656 36.3125 80.347656 40.648438 75.75 43.75 C 74.25 43.75 72.75 43.75 71.25 43.75 C 71.25 44.25 71.25 44.75 71.25 45.25 C 72.582031 45.25 73.917969 45.25 75.25 45.25 C 75.25 45.75 75.25 46.25 75.25 46.75 C 73.25 46.519531 71.414062 46.851562 69.75 47.75 C 69.695312 45.082031 68.863281 42.75 67.25 40.75 C 67.003906 40.003906 66.671875 39.335938 66.25 38.75 C 64.992188 34.640625 64.660156 30.476562 65.25 26.25 C 65.25 26.082031 65.25 25.917969 65.25 25.75 C 65.8125 25.4375 66.3125 25.023438 66.75 24.5 C 69.746094 24.25 72.746094 24.167969 75.75 24.25 Z M 75.75 24.25 "/>
<path style=" stroke:none;fill-rule:evenodd;fill:rgb(1.176471%,57.647059%,67.45098%);fill-opacity:1;" d="M 36.25 35.75 C 37.382812 33.78125 38.882812 32.117188 40.75 30.75 C 40.050781 34.847656 38.71875 38.847656 36.75 42.75 C 37 42.917969 37.25 43.082031 37.5 43.25 C 39.066406 42.507812 40.648438 41.839844 42.25 41.25 C 42.621094 41.183594 42.953125 41.269531 43.25 41.5 C 42.886719 42.507812 42.386719 43.425781 41.75 44.25 C 40.535156 44.136719 39.699219 44.636719 39.25 45.75 C 37.914062 46.753906 36.746094 47.917969 35.75 49.25 C 35.144531 46.546875 34.144531 44.046875 32.75 41.75 C 32.144531 41.382812 31.480469 41.214844 30.75 41.25 C 30.828125 41.9375 30.746094 42.601562 30.5 43.25 C 27.480469 39.816406 24.398438 36.480469 21.25 33.25 C 20.390625 33.976562 19.390625 34.394531 18.25 34.5 C 18.417969 34.667969 18.582031 34.832031 18.75 35 C 17.714844 35.269531 16.800781 35.019531 16 34.25 C 15.800781 34.363281 15.71875 34.53125 15.75 34.75 C 15.296875 34.394531 15.132812 33.894531 15.25 33.25 C 16.625 33.363281 17.957031 33.195312 19.25 32.75 C 20.378906 31.320312 21.378906 29.820312 22.25 28.25 C 22.792969 28.230469 23.292969 28.0625 23.75 27.75 C 26.40625 29.945312 29.40625 31.527344 32.75 32.5 C 33.417969 33.832031 34.082031 35.167969 34.75 36.5 C 35.5 36.792969 36 36.542969 36.25 35.75 Z M 36.25 35.75 "/>
<path style=" stroke:none;fill-rule:evenodd;fill:rgb(67.45098%,76.470588%,74.901961%);fill-opacity:1;" d="M 87.75 22.75 C 90.652344 25.058594 91.734375 28.058594 91 31.75 C 90.269531 33.339844 89.851562 35.007812 89.75 36.75 C 89.261719 36.105469 88.761719 36.105469 88.25 36.75 C 87.917969 38.082031 87.582031 39.417969 87.25 40.75 C 86.230469 41.441406 85.230469 42.109375 84.25 42.75 C 82.28125 42.910156 81.863281 42.246094 83 40.75 C 85.210938 38.792969 87.128906 36.625 88.75 34.25 C 88.175781 32.253906 87.257812 30.421875 86 28.75 C 85.75 27.425781 85.667969 26.09375 85.75 24.75 C 87.25 24.917969 87.917969 24.25 87.75 22.75 Z M 87.75 22.75 "/>
<path style=" stroke:none;fill-rule:evenodd;fill:rgb(88.235294%,87.45098%,85.098039%);fill-opacity:1;" d="M 103.25 38.75 C 103.25 39.417969 102.917969 39.75 102.25 39.75 C 102.007812 39.261719 101.757812 38.761719 101.5 38.25 C 100.4375 38.8125 99.523438 39.5625 98.75 40.5 C 98.101562 40.746094 97.4375 40.828125 96.75 40.75 C 96.519531 39.257812 96.351562 37.757812 96.25 36.25 C 99.175781 35.652344 101.511719 36.484375 103.25 38.75 Z M 103.25 38.75 "/>
<path style=" stroke:none;fill-rule:evenodd;fill:rgb(66.666667%,78.823529%,76.078431%);fill-opacity:1;" d="M 92.75 41.75 C 90.78125 41.289062 90.113281 40.121094 90.75 38.25 C 90.378906 37.910156 90.046875 37.574219 89.75 37.25 C 90.671875 36.917969 91.503906 36.417969 92.25 35.75 C 94.402344 36.886719 95.402344 38.71875 95.25 41.25 C 94.355469 41.183594 93.519531 41.351562 92.75 41.75 Z M 92.75 41.75 "/>
<path style=" stroke:none;fill-rule:evenodd;fill:rgb(89.019608%,87.058824%,83.137255%);fill-opacity:1;" d="M 67.25 40.75 C 68.863281 42.75 69.695312 45.082031 69.75 47.75 C 66.898438 46.0625 66.066406 43.726562 67.25 40.75 Z M 67.25 40.75 "/>
<path style=" stroke:none;fill-rule:evenodd;fill:rgb(45.490196%,56.862745%,53.333333%);fill-opacity:1;" d="M 63.75 43.75 C 62.792969 44.988281 61.457031 45.488281 59.75 45.25 C 59.417969 44.917969 59.082031 44.582031 58.75 44.25 C 60.332031 44.300781 61.832031 43.964844 63.25 43.25 C 63.554688 43.3125 63.71875 43.476562 63.75 43.75 Z M 63.75 43.75 "/>
<path style=" stroke:none;fill-rule:evenodd;fill:rgb(87.843137%,85.882353%,82.745098%);fill-opacity:1;" d="M 75.75 43.75 C 75.722656 44.304688 75.554688 44.804688 75.25 45.25 C 73.917969 45.25 72.582031 45.25 71.25 45.25 C 71.25 44.75 71.25 44.25 71.25 43.75 C 72.75 43.75 74.25 43.75 75.75 43.75 Z M 75.75 43.75 "/>
<path style=" stroke:none;fill-rule:evenodd;fill:rgb(72.54902%,90.196078%,87.843137%);fill-opacity:1;" d="M 51.75 36.25 C 52.855469 38.285156 54.105469 40.285156 55.5 42.25 C 56.484375 43.117188 57.570312 43.78125 58.75 44.25 C 59.082031 44.582031 59.417969 44.917969 59.75 45.25 C 60.300781 45.699219 60.300781 46.113281 59.75 46.5 C 58.945312 46.859375 58.195312 46.777344 57.5 46.25 C 57.289062 46.835938 56.957031 47.335938 56.5 47.75 C 56.15625 48.390625 56.242188 48.976562 56.75 49.5 C 55.804688 50.050781 55.46875 50.71875 55.75 51.5 C 56.902344 52.816406 57.566406 54.398438 57.75 56.25 C 59.230469 57.824219 61.066406 58.574219 63.25 58.5 C 63.867188 58.84375 63.867188 59.09375 63.25 59.25 C 60.464844 58.167969 58.296875 58.835938 56.75 61.25 C 55.382812 62.472656 54.382812 63.972656 53.75 65.75 C 53.476562 65.71875 53.3125 65.554688 53.25 65.25 C 53.613281 63.039062 54.113281 60.875 54.75 58.75 C 56.433594 57.046875 56.933594 55.046875 56.25 52.75 C 51.722656 50.03125 49.222656 46.03125 48.75 40.75 C 48.375 37.367188 48.957031 34.199219 50.5 31.25 C 50.457031 33.15625 50.875 34.824219 51.75 36.25 Z M 51.75 36.25 "/>
<path style=" stroke:none;fill-rule:evenodd;fill:rgb(79.607843%,81.176471%,78.431373%);fill-opacity:1;" d="M 96.25 43.75 C 96.25 49.582031 96.25 55.417969 96.25 61.25 C 95.320312 62.421875 94.15625 62.589844 92.75 61.75 C 92.714844 56.410156 92.550781 51.078125 92.25 45.75 C 92.148438 44.804688 92.480469 44.054688 93.25 43.5 C 94.355469 43.105469 95.355469 43.1875 96.25 43.75 Z M 96.25 43.75 "/>
<path style=" stroke:none;fill-rule:evenodd;fill:rgb(74.117647%,76.470588%,76.470588%);fill-opacity:1;" d="M 99.25 43.75 C 99.550781 45.148438 100.050781 46.480469 100.75 47.75 C 99.503906 48.316406 98.339844 48.148438 97.25 47.25 C 97.25 46.082031 97.25 44.917969 97.25 43.75 C 97.851562 43.15625 98.519531 43.15625 99.25 43.75 Z M 99.25 43.75 "/>
<path style=" stroke:none;fill-rule:evenodd;fill:rgb(42.745098%,7.843137%,14.901961%);fill-opacity:1;" d="M 89.75 45.25 C 89.917969 45.25 90.082031 45.25 90.25 45.25 C 90.6875 45.183594 91.023438 45.351562 91.25 45.75 C 90.84375 46.535156 90.679688 47.367188 90.75 48.25 C 89.808594 47.828125 88.808594 47.664062 87.75 47.75 C 88.054688 46.613281 88.722656 45.78125 89.75 45.25 Z M 89.75 45.25 "/>
<path style=" stroke:none;fill-rule:evenodd;fill:rgb(82.352941%,96.078431%,96.862745%);fill-opacity:1;" d="M 17.25 46.25 C 18.054688 46.886719 18.972656 47.386719 20 47.75 C 20.625 49.007812 20.875 50.339844 20.75 51.75 C 20.222656 51.824219 19.722656 51.742188 19.25 51.5 C 18.480469 50.648438 17.648438 49.894531 16.75 49.25 C 16.136719 48.351562 15.800781 47.351562 15.75 46.25 C 16.25 46.25 16.75 46.25 17.25 46.25 Z M 17.25 46.25 "/>
<path style=" stroke:none;fill-rule:evenodd;fill:rgb(34.901961%,87.843137%,90.588235%);fill-opacity:1;" d="M 32.75 41.75 C 34.144531 44.046875 35.144531 46.546875 35.75 49.25 C 36.746094 47.917969 37.914062 46.753906 39.25 45.75 C 39.453125 46.378906 39.785156 46.960938 40.25 47.5 C 39.257812 49.566406 38.339844 51.652344 37.5 53.75 C 36.503906 52.910156 35.417969 52.160156 34.25 51.5 C 34.652344 51.347656 34.988281 51.097656 35.25 50.75 C 34.523438 48.121094 33.023438 47.457031 30.75 48.75 C 31.539062 49.148438 32.371094 49.398438 33.25 49.5 C 31.957031 50.097656 30.621094 50.597656 29.25 51 C 30.339844 51.222656 30.671875 51.722656 30.25 52.5 C 30.5625 52.875 30.8125 53.292969 31 53.75 C 31.328125 53.152344 31.578125 53.152344 31.75 53.75 C 31.1875 54.457031 30.6875 55.207031 30.25 56 C 30.8125 56.523438 31.476562 56.855469 32.25 57 C 31.074219 57.972656 29.65625 58.554688 28 58.75 C 27.707031 58 27.292969 57.332031 26.75 56.75 C 26.800781 57.308594 26.550781 57.808594 26 58.25 C 24.640625 57.390625 23.554688 57.640625 22.75 59 C 23.273438 59.246094 23.773438 59.164062 24.25 58.75 C 24.78125 59.210938 24.78125 59.710938 24.25 60.25 C 22.863281 60.210938 21.53125 60.460938 20.25 61 C 20.917969 61.167969 21.582031 61.332031 22.25 61.5 C 21.347656 61.660156 21.183594 61.992188 21.75 62.5 C 19.921875 63.46875 18.085938 64.382812 16.25 65.25 C 15.867188 64.367188 15.203125 63.867188 14.25 63.75 C 14.332031 62.40625 14.25 61.074219 14 59.75 C 13.613281 59.199219 13.199219 59.199219 12.75 59.75 C 12.75 59.25 12.75 58.75 12.75 58.25 C 11.25 57.917969 9.75 57.582031 8.25 57.25 C 7.714844 56.78125 7.050781 56.617188 6.25 56.75 C 9.070312 55.753906 11.738281 54.339844 14.25 52.5 C 15.082031 52.332031 15.917969 52.167969 16.75 52 C 15.59375 50.898438 15.59375 49.980469 16.75 49.25 C 17.648438 49.894531 18.480469 50.648438 19.25 51.5 C 19.722656 51.742188 20.222656 51.824219 20.75 51.75 C 20.875 50.339844 20.625 49.007812 20 47.75 C 18.972656 47.386719 18.054688 46.886719 17.25 46.25 C 18.066406 45.402344 17.898438 44.902344 16.75 44.75 C 16.582031 44.25 16.25 43.917969 15.75 43.75 C 15.414062 43.078125 15.414062 42.492188 15.75 42 C 16.6875 41.710938 17.605469 41.796875 18.5 42.25 C 20.527344 40.484375 22.695312 40.316406 25 41.75 C 25.679688 43.871094 26.59375 45.871094 27.75 47.75 C 29.601562 45.898438 31.269531 43.898438 32.75 41.75 Z M 32.75 41.75 "/>
<path style=" stroke:none;fill-rule:evenodd;fill:rgb(78.431373%,91.372549%,88.627451%);fill-opacity:1;" d="M 63.75 43.75 C 65.589844 45.589844 67.257812 47.589844 68.75 49.75 C 69.378906 51.601562 69.378906 53.433594 68.75 55.25 C 67.269531 56.53125 66.019531 58.03125 65 59.75 C 64.664062 60.125 64.246094 60.292969 63.75 60.25 C 63.582031 59.917969 63.417969 59.582031 63.25 59.25 C 63.867188 59.09375 63.867188 58.84375 63.25 58.5 C 61.066406 58.574219 59.230469 57.824219 57.75 56.25 C 57.566406 54.398438 56.902344 52.816406 55.75 51.5 C 55.46875 50.71875 55.804688 50.050781 56.75 49.5 C 56.242188 48.976562 56.15625 48.390625 56.5 47.75 C 56.957031 47.335938 57.289062 46.835938 57.5 46.25 C 58.195312 46.777344 58.945312 46.859375 59.75 46.5 C 60.300781 46.113281 60.300781 45.699219 59.75 45.25 C 61.457031 45.488281 62.792969 44.988281 63.75 43.75 Z M 63.75 43.75 "/>
<path style=" stroke:none;fill-rule:evenodd;fill:rgb(4.705882%,5.098039%,6.666667%);fill-opacity:1;" d="M 104.25 35.25 C 104.953125 36.152344 105.535156 37.152344 106 38.25 C 106.21875 40.765625 106.804688 43.183594 107.75 45.5 C 107.667969 46.082031 107.582031 46.667969 107.5 47.25 C 105.429688 49.351562 104.761719 51.851562 105.5 54.75 C 108.183594 57.375 108.433594 60.210938 106.25 63.25 C 104.859375 63.945312 103.359375 64.359375 101.75 64.5 C 102.394531 65.144531 102.394531 65.730469 101.75 66.25 C 101.792969 65.753906 101.625 65.335938 101.25 65 C 99.6875 64.324219 98.1875 64.242188 96.75 64.75 C 96.105469 64.867188 95.605469 64.703125 95.25 64.25 C 94.214844 63.527344 93.046875 63.027344 91.75 62.75 C 88.171875 61.675781 86.007812 59.34375 85.25 55.75 C 85.738281 56.570312 86.402344 57.238281 87.25 57.75 C 88.25 58.582031 89.25 59.417969 90.25 60.25 C 90.421875 60.667969 90.753906 60.835938 91.25 60.75 C 91.644531 61.199219 92.144531 61.535156 92.75 61.75 C 94.15625 62.589844 95.320312 62.421875 96.25 61.25 C 96.582031 61.582031 96.917969 61.917969 97.25 62.25 C 99.257812 62.554688 100.257812 61.722656 100.25 59.75 C 100.582031 58.980469 100.914062 58.144531 101.25 57.25 C 101.417969 57.417969 101.582031 57.582031 101.75 57.75 C 102.179688 59.226562 102.179688 60.726562 101.75 62.25 C 105.117188 61.96875 105.953125 60.386719 104.25 57.5 C 103.488281 56.996094 102.652344 56.746094 101.75 56.75 C 101.207031 55.710938 100.457031 55.542969 99.5 56.25 C 99.269531 55.953125 99.183594 55.621094 99.25 55.25 C 100.394531 55.378906 101.480469 55.210938 102.5 54.75 C 103.535156 50.054688 101.785156 48.554688 97.25 50.25 C 96.628906 49.195312 96.628906 48.195312 97.25 47.25 C 98.339844 48.148438 99.503906 48.316406 100.75 47.75 C 100.050781 46.480469 99.550781 45.148438 99.25 43.75 C 99.402344 43.425781 99.570312 43.089844 99.75 42.75 C 99.09375 42.371094 98.84375 41.871094 99 41.25 C 99.871094 40.273438 100.957031 39.773438 102.25 39.75 C 102.917969 39.75 103.25 39.417969 103.25 38.75 C 103.847656 38.566406 104.179688 38.152344 104.25 37.5 C 103.695312 36.660156 103.695312 35.910156 104.25 35.25 Z M 104.25 35.25 "/>
<path style=" stroke:none;fill-rule:evenodd;fill:rgb(52.156863%,50.196078%,49.803922%);fill-opacity:1;" d="M 100.25 42.75 C 104.402344 42.640625 105.570312 44.390625 103.75 48 C 103.109375 48.34375 102.523438 48.257812 102 47.75 C 101.265625 46.121094 100.683594 44.453125 100.25 42.75 Z M 100.25 42.75 "/>
<path style=" stroke:none;fill-rule:evenodd;fill:rgb(24.313725%,66.27451%,67.45098%);fill-opacity:1;" d="M 45.25 26.25 C 45.167969 27.925781 45.25 29.589844 45.5 31.25 C 46 30.582031 46.5 29.917969 47 29.25 C 47.082031 29.417969 47.167969 29.582031 47.25 29.75 C 45.8125 31.738281 45.480469 33.90625 46.25 36.25 C 46.867188 36.621094 47.535156 36.789062 48.25 36.75 C 48.097656 38.191406 48.261719 39.527344 48.75 40.75 C 49.222656 46.03125 51.722656 50.03125 56.25 52.75 C 56.933594 55.046875 56.433594 57.046875 54.75 58.75 C 54.699219 57.390625 54.867188 56.058594 55.25 54.75 C 55.125 54.144531 54.792969 53.808594 54.25 53.75 C 53.429688 53.339844 52.597656 52.921875 51.75 52.5 C 47.273438 48.320312 45.773438 43.238281 47.25 37.25 C 45.28125 37.515625 43.449219 38.183594 41.75 39.25 C 41.582031 39.082031 41.417969 38.917969 41.25 38.75 C 41.957031 35.378906 42.789062 32.046875 43.75 28.75 C 42.886719 28.90625 42.054688 28.992188 41.25 29 C 41.832031 27.835938 42.664062 26.917969 43.75 26.25 C 44.398438 25.941406 44.898438 25.941406 45.25 26.25 Z M 45.25 26.25 "/>
<use xlink:href="#surface17" mask="url(#mask4)"/>
<path style=" stroke:none;fill-rule:evenodd;fill:rgb(2.352941%,52.941176%,63.137255%);fill-opacity:1;" d="M 45.75 73.25 C 45.445312 72.804688 45.277344 72.304688 45.25 71.75 C 45.546875 71.632812 45.714844 71.382812 45.75 71 C 45.414062 67.542969 44.828125 64.125 44 60.75 C 43.042969 58.957031 41.875 57.289062 40.5 55.75 C 40.257812 55.277344 40.175781 54.777344 40.25 54.25 C 40.859375 50.933594 41.359375 47.601562 41.75 44.25 C 42.386719 43.425781 42.886719 42.507812 43.25 41.5 C 42.953125 41.269531 42.621094 41.183594 42.25 41.25 C 42.765625 40.875 43.347656 40.542969 44 40.25 C 43.484375 46.792969 45.902344 51.960938 51.25 55.75 C 49.539062 59.597656 48.289062 63.597656 47.5 67.75 C 47.332031 69.417969 47.167969 71.082031 47 72.75 C 46.664062 73.125 46.246094 73.292969 45.75 73.25 Z M 45.75 73.25 "/>
<path style=" stroke:none;fill-rule:evenodd;fill:rgb(78.039216%,89.019608%,86.27451%);fill-opacity:1;" d="M 82.25 44.25 C 82.386719 45.722656 82.222656 47.140625 81.75 48.5 C 82.824219 51.402344 82.492188 54.234375 80.75 57 C 81.570312 57.566406 82.070312 58.316406 82.25 59.25 C 80.917969 59.082031 79.582031 58.917969 78.25 58.75 C 77.863281 57.804688 77.863281 56.804688 78.25 55.75 C 77.222656 55.699219 76.390625 56.035156 75.75 56.75 C 75.582031 56.75 75.417969 56.75 75.25 56.75 C 74.753906 53.675781 74.589844 50.511719 74.75 47.25 C 76.46875 46.472656 78.136719 45.554688 79.75 44.5 C 80.566406 44.253906 81.402344 44.167969 82.25 44.25 Z M 82.25 44.25 "/>
<path style=" stroke:none;fill-rule:evenodd;fill:rgb(21.176471%,24.313725%,24.313725%);fill-opacity:1;" d="M 96.25 43.75 C 96.582031 43.75 96.917969 43.75 97.25 43.75 C 97.25 44.917969 97.25 46.082031 97.25 47.25 C 96.628906 48.195312 96.628906 49.195312 97.25 50.25 C 97.089844 51.785156 97.257812 53.285156 97.75 54.75 C 98.207031 55.0625 98.707031 55.230469 99.25 55.25 C 99.183594 55.621094 99.269531 55.953125 99.5 56.25 C 100.457031 55.542969 101.207031 55.710938 101.75 56.75 C 100.75 56.917969 99.75 57.082031 98.75 57.25 C 98.25 57.25 97.75 57.25 97.25 57.25 C 97.25 58.917969 97.25 60.582031 97.25 62.25 C 96.917969 61.917969 96.582031 61.582031 96.25 61.25 C 96.25 55.417969 96.25 49.582031 96.25 43.75 Z M 96.25 43.75 "/>
<path style=" stroke:none;fill-rule:evenodd;fill:rgb(14.509804%,4.705882%,5.490196%);fill-opacity:1;" d="M 88.25 45.25 C 88.75 45.25 89.25 45.25 89.75 45.25 C 88.722656 45.78125 88.054688 46.613281 87.75 47.75 C 85.929688 50.957031 85.761719 54.289062 87.25 57.75 C 86.402344 57.238281 85.738281 56.570312 85.25 55.75 C 84.675781 53.675781 84.59375 51.511719 85 49.25 C 85.636719 47.53125 86.71875 46.199219 88.25 45.25 Z M 88.25 45.25 "/>
<path style=" stroke:none;fill-rule:evenodd;fill:rgb(34.901961%,72.156863%,74.901961%);fill-opacity:1;" d="M 74.75 47.25 C 74.589844 50.511719 74.753906 53.675781 75.25 56.75 C 73.308594 57.648438 71.640625 57.230469 70.25 55.5 C 69.777344 55.257812 69.277344 55.175781 68.75 55.25 C 69.378906 53.433594 69.378906 51.601562 68.75 49.75 C 70.453125 49.808594 71.121094 48.976562 70.75 47.25 C 72.082031 47.25 73.417969 47.25 74.75 47.25 Z M 74.75 47.25 "/>
<path style=" stroke:none;fill-rule:evenodd;fill:rgb(86.666667%,85.882353%,84.705882%);fill-opacity:1;" d="M 99.25 55.25 C 98.707031 55.230469 98.207031 55.0625 97.75 54.75 C 97.257812 53.285156 97.089844 51.785156 97.25 50.25 C 101.785156 48.554688 103.535156 50.054688 102.5 54.75 C 101.480469 55.210938 100.394531 55.378906 99.25 55.25 Z M 99.25 55.25 "/>
<path style=" stroke:none;fill-rule:evenodd;fill:rgb(85.882353%,88.627451%,85.882353%);fill-opacity:1;" d="M 89.75 36.75 C 89.75 36.917969 89.75 37.082031 89.75 37.25 C 90.046875 37.574219 90.378906 37.910156 90.75 38.25 C 90.113281 40.121094 90.78125 41.289062 92.75 41.75 C 90.960938 42.558594 89.460938 43.726562 88.25 45.25 C 86.71875 46.199219 85.636719 47.53125 85 49.25 C 84.59375 51.511719 84.675781 53.675781 85.25 55.75 C 86.007812 59.34375 88.171875 61.675781 91.75 62.75 C 91.320312 64.023438 90.65625 65.1875 89.75 66.25 C 89.292969 65.9375 88.792969 65.769531 88.25 65.75 C 86.742188 64.664062 85.160156 63.664062 83.5 62.75 C 83.515625 61.320312 83.097656 60.152344 82.25 59.25 C 82.070312 58.316406 81.570312 57.566406 80.75 57 C 82.492188 54.234375 82.824219 51.402344 81.75 48.5 C 82.222656 47.140625 82.386719 45.722656 82.25 44.25 C 83.113281 43.988281 83.78125 43.488281 84.25 42.75 C 85.230469 42.109375 86.230469 41.441406 87.25 40.75 C 87.582031 39.417969 87.917969 38.082031 88.25 36.75 C 88.761719 36.105469 89.261719 36.105469 89.75 36.75 Z M 89.75 36.75 "/>
<path style=" stroke:none;fill-rule:evenodd;fill:rgb(8.627451%,61.568627%,70.588235%);fill-opacity:1;" d="M 16.75 44.75 C 17.898438 44.902344 18.066406 45.402344 17.25 46.25 C 16.75 46.25 16.25 46.25 15.75 46.25 C 15.800781 47.351562 16.136719 48.351562 16.75 49.25 C 15.59375 49.980469 15.59375 50.898438 16.75 52 C 15.917969 52.167969 15.082031 52.332031 14.25 52.5 C 11.738281 54.339844 9.070312 55.753906 6.25 56.75 C 5.417969 56.75 4.582031 56.75 3.75 56.75 C 7.335938 55.160156 10.585938 52.992188 13.5 50.25 C 13.761719 48.539062 14.175781 46.875 14.75 45.25 C 15.34375 44.785156 16.011719 44.617188 16.75 44.75 Z M 16.75 44.75 "/>
<path style=" stroke:none;fill-rule:evenodd;fill:rgb(23.137255%,12.156863%,15.686275%);fill-opacity:1;" d="M 92.25 45.75 C 92.550781 51.078125 92.714844 56.410156 92.75 61.75 C 92.144531 61.535156 91.644531 61.199219 91.25 60.75 C 91.917969 57.582031 91.917969 54.417969 91.25 51.25 C 90.828125 50.308594 90.664062 49.308594 90.75 48.25 C 90.679688 47.367188 90.84375 46.535156 91.25 45.75 C 91.023438 45.351562 90.6875 45.183594 90.25 45.25 C 90.585938 44.867188 91.003906 44.53125 91.5 44.25 C 91.617188 44.867188 91.867188 45.367188 92.25 45.75 Z M 92.25 45.75 "/>
<path style=" stroke:none;fill-rule:evenodd;fill:rgb(89.019608%,3.137255%,23.529412%);fill-opacity:1;" d="M 87.75 47.75 C 88.808594 47.664062 89.808594 47.828125 90.75 48.25 C 90.664062 49.308594 90.828125 50.308594 91.25 51.25 C 91.558594 54.464844 91.226562 57.464844 90.25 60.25 C 89.25 59.417969 88.25 58.582031 87.25 57.75 C 85.761719 54.289062 85.929688 50.957031 87.75 47.75 Z M 87.75 47.75 "/>
<path style=" stroke:none;fill-rule:evenodd;fill:rgb(24.313725%,45.490196%,45.490196%);fill-opacity:1;" d="M 78.25 58.75 C 77.214844 58.351562 76.378906 57.683594 75.75 56.75 C 76.390625 56.035156 77.222656 55.699219 78.25 55.75 C 77.863281 56.804688 77.863281 57.804688 78.25 58.75 Z M 78.25 58.75 "/>
<path style=" stroke:none;fill-rule:evenodd;fill:rgb(58.431373%,9.803922%,20.784314%);fill-opacity:1;" d="M 91.25 51.25 C 91.917969 54.417969 91.917969 57.582031 91.25 60.75 C 90.753906 60.835938 90.421875 60.667969 90.25 60.25 C 91.226562 57.464844 91.558594 54.464844 91.25 51.25 Z M 91.25 51.25 "/>
<path style=" stroke:none;fill-rule:evenodd;fill:rgb(91.764706%,98.039216%,97.647059%);fill-opacity:1;" d="M 8.25 57.25 C 9.75 57.582031 11.25 57.917969 12.75 58.25 C 12.75 58.75 12.75 59.25 12.75 59.75 C 11.550781 60.605469 10.21875 60.855469 8.75 60.5 C 7.378906 59.835938 6.210938 58.917969 5.25 57.75 C 6.199219 57.265625 7.199219 57.101562 8.25 57.25 Z M 8.25 57.25 "/>
<path style=" stroke:none;fill-rule:evenodd;fill:rgb(38.823529%,87.843137%,90.196078%);fill-opacity:1;" d="M 31.75 66.75 C 31.347656 70.402344 31.183594 74.070312 31.25 77.75 C 31.316406 78.121094 31.230469 78.453125 31 78.75 C 29.769531 77.035156 29.519531 75.199219 30.25 73.25 C 30.054688 71.882812 29.554688 70.714844 28.75 69.75 C 26.738281 72.421875 24.070312 74.089844 20.75 74.75 C 20.832031 72.742188 20.75 70.742188 20.5 68.75 C 19.980469 69.355469 19.398438 69.855469 18.75 70.25 C 17.902344 70.328125 17.066406 70.246094 16.25 70 C 16.5625 68.828125 17.0625 67.746094 17.75 66.75 C 17.5 66.582031 17.25 66.417969 17 66.25 C 16.210938 66.898438 15.460938 67.566406 14.75 68.25 C 14.988281 67.109375 15.488281 66.109375 16.25 65.25 C 18.085938 64.382812 19.921875 63.46875 21.75 62.5 C 21.183594 61.992188 21.347656 61.660156 22.25 61.5 C 21.582031 61.332031 20.917969 61.167969 20.25 61 C 21.53125 60.460938 22.863281 60.210938 24.25 60.25 C 24.835938 60.359375 25.335938 60.191406 25.75 59.75 C 25.246094 59.300781 25.246094 58.96875 25.75 58.75 C 26.46875 59.609375 26.882812 60.609375 27 61.75 C 28.03125 61.203125 29.117188 61.121094 30.25 61.5 C 29.511719 61.855469 29.179688 62.4375 29.25 63.25 C 30.144531 63.109375 30.976562 63.273438 31.75 63.75 C 31.707031 64.78125 31.707031 65.78125 31.75 66.75 Z M 31.75 66.75 "/>
<path style=" stroke:none;fill-rule:evenodd;fill:rgb(36.862745%,87.843137%,90.588235%);fill-opacity:1;" d="M 41.75 44.25 C 41.359375 47.601562 40.859375 50.933594 40.25 54.25 C 39.925781 54.636719 39.757812 55.136719 39.75 55.75 C 40.203125 61.609375 42.035156 66.941406 45.25 71.75 C 45.277344 72.304688 45.445312 72.804688 45.75 73.25 C 40.726562 73.574219 37.0625 71.574219 34.75 67.25 C 34.03125 66.636719 33.199219 66.136719 32.25 65.75 C 31.851562 65.976562 31.683594 66.3125 31.75 66.75 C 31.707031 65.78125 31.707031 64.78125 31.75 63.75 C 30.976562 63.273438 30.144531 63.109375 29.25 63.25 C 29.179688 62.4375 29.511719 61.855469 30.25 61.5 C 29.117188 61.121094 28.03125 61.203125 27 61.75 C 26.882812 60.609375 26.46875 59.609375 25.75 58.75 C 25.246094 58.96875 25.246094 59.300781 25.75 59.75 C 25.335938 60.191406 24.835938 60.359375 24.25 60.25 C 24.78125 59.710938 24.78125 59.210938 24.25 58.75 C 23.773438 59.164062 23.273438 59.246094 22.75 59 C 23.554688 57.640625 24.640625 57.390625 26 58.25 C 26.550781 57.808594 26.800781 57.308594 26.75 56.75 C 27.292969 57.332031 27.707031 58 28 58.75 C 29.65625 58.554688 31.074219 57.972656 32.25 57 C 31.476562 56.855469 30.8125 56.523438 30.25 56 C 30.6875 55.207031 31.1875 54.457031 31.75 53.75 C 31.578125 53.152344 31.328125 53.152344 31 53.75 C 30.8125 53.292969 30.5625 52.875 30.25 52.5 C 30.671875 51.722656 30.339844 51.222656 29.25 51 C 30.621094 50.597656 31.957031 50.097656 33.25 49.5 C 32.371094 49.398438 31.539062 49.148438 30.75 48.75 C 33.023438 47.457031 34.523438 48.121094 35.25 50.75 C 34.988281 51.097656 34.652344 51.347656 34.25 51.5 C 35.417969 52.160156 36.503906 52.910156 37.5 53.75 C 38.339844 51.652344 39.257812 49.566406 40.25 47.5 C 39.785156 46.960938 39.453125 46.378906 39.25 45.75 C 39.699219 44.636719 40.535156 44.136719 41.75 44.25 Z M 41.75 44.25 "/>
<path style=" stroke:none;fill-rule:evenodd;fill:rgb(28.627451%,43.137255%,41.960784%);fill-opacity:1;" d="M 63.25 59.25 C 63.417969 59.582031 63.582031 59.917969 63.75 60.25 C 61.300781 59.617188 58.964844 59.953125 56.75 61.25 C 58.296875 58.835938 60.464844 58.167969 63.25 59.25 Z M 63.25 59.25 "/>
<path style=" stroke:none;fill-rule:evenodd;fill:rgb(81.960784%,81.960784%,78.823529%);fill-opacity:1;" d="M 98.75 57.25 C 99.105469 57.703125 99.605469 57.867188 100.25 57.75 C 100.25 58.417969 100.25 59.082031 100.25 59.75 C 100.257812 61.722656 99.257812 62.554688 97.25 62.25 C 97.25 60.582031 97.25 58.917969 97.25 57.25 C 97.75 57.25 98.25 57.25 98.75 57.25 Z M 98.75 57.25 "/>
<path style=" stroke:none;fill-rule:evenodd;fill:rgb(55.686275%,56.470588%,54.901961%);fill-opacity:1;" d="M 101.75 56.75 C 102.652344 56.746094 103.488281 56.996094 104.25 57.5 C 105.953125 60.386719 105.117188 61.96875 101.75 62.25 C 102.179688 60.726562 102.179688 59.226562 101.75 57.75 C 101.582031 57.582031 101.417969 57.417969 101.25 57.25 C 100.914062 58.144531 100.582031 58.980469 100.25 59.75 C 100.25 59.082031 100.25 58.417969 100.25 57.75 C 99.605469 57.867188 99.105469 57.703125 98.75 57.25 C 99.75 57.082031 100.75 56.917969 101.75 56.75 Z M 101.75 56.75 "/>
<path style=" stroke:none;fill-rule:evenodd;fill:rgb(51.372549%,87.058824%,90.196078%);fill-opacity:1;" d="M 3.75 56.75 C 4.582031 56.75 5.417969 56.75 6.25 56.75 C 7.050781 56.617188 7.714844 56.78125 8.25 57.25 C 7.199219 57.101562 6.199219 57.265625 5.25 57.75 C 6.210938 58.917969 7.378906 59.835938 8.75 60.5 C 10.21875 60.855469 11.550781 60.605469 12.75 59.75 C 13.199219 59.199219 13.613281 59.199219 14 59.75 C 14.25 61.074219 14.332031 62.40625 14.25 63.75 C 14.082031 63.75 13.917969 63.75 13.75 63.75 C 13.832031 62.902344 13.746094 62.066406 13.5 61.25 C 12.582031 63.710938 11 64.460938 8.75 63.5 C 6.667969 62.082031 4.917969 60.332031 3.5 58.25 C 2.59375 57.347656 2.675781 56.847656 3.75 56.75 Z M 3.75 56.75 "/>
<path style=" stroke:none;fill-rule:evenodd;fill:rgb(15.294118%,17.254902%,18.039216%);fill-opacity:1;" d="M 68.75 55.25 C 69.277344 55.175781 69.777344 55.257812 70.25 55.5 C 71.640625 57.230469 73.308594 57.648438 75.25 56.75 C 75.417969 56.75 75.582031 56.75 75.75 56.75 C 76.378906 57.683594 77.214844 58.351562 78.25 58.75 C 79.582031 58.917969 80.917969 59.082031 82.25 59.25 C 83.097656 60.152344 83.515625 61.320312 83.5 62.75 C 85.160156 63.664062 86.742188 64.664062 88.25 65.75 C 88.550781 66.839844 88.886719 67.921875 89.25 69 C 90.742188 69.25 92.242188 69.332031 93.75 69.25 C 94.066406 67.476562 94.566406 65.808594 95.25 64.25 C 95.605469 64.703125 96.105469 64.867188 96.75 64.75 C 96.316406 65.859375 96.148438 67.023438 96.25 68.25 C 96.917969 68.25 97.582031 68.25 98.25 68.25 C 97.480469 68.582031 96.644531 68.914062 95.75 69.25 C 95.976562 69.648438 96.3125 69.816406 96.75 69.75 C 95.628906 70.132812 94.464844 70.550781 93.25 71 C 92.875 71.335938 92.707031 71.753906 92.75 72.25 C 92.042969 71.386719 92.210938 70.636719 93.25 70 C 91.925781 69.75 90.59375 69.667969 89.25 69.75 C 89.695312 71.671875 90.195312 73.589844 90.75 75.5 C 90.734375 76.035156 90.570312 76.453125 90.25 76.75 C 88.984375 76.246094 87.902344 75.414062 87 74.25 C 86.941406 71.859375 86.609375 69.527344 86 67.25 C 83.570312 66.152344 81.820312 64.402344 80.75 62 C 79.367188 61.261719 78.035156 61.179688 76.75 61.75 C 76.265625 60.695312 76.097656 59.53125 76.25 58.25 C 74.804688 57.996094 73.640625 58.328125 72.75 59.25 C 71.910156 59.140625 71.410156 59.476562 71.25 60.25 C 70.796875 59.894531 70.632812 59.394531 70.75 58.75 C 71.335938 58.859375 71.835938 58.691406 72.25 58.25 C 71.238281 58.09375 70.238281 57.925781 69.25 57.75 C 68.960938 57.113281 68.628906 57.113281 68.25 57.75 C 66.921875 59.398438 66.171875 61.230469 66 63.25 C 66.335938 63.625 66.753906 63.792969 67.25 63.75 C 67.035156 64.355469 66.699219 64.855469 66.25 65.25 C 64.917969 65.25 63.582031 65.25 62.25 65.25 C 62.25 64.417969 62.25 63.582031 62.25 62.75 C 60.917969 62.75 59.582031 62.75 58.25 62.75 C 57.339844 65.414062 56.089844 67.914062 54.5 70.25 C 53.527344 73.445312 54.445312 75.863281 57.25 77.5 C 59.71875 78.042969 62.21875 78.375 64.75 78.5 C 64.917969 78.667969 65.082031 78.832031 65.25 79 C 64.792969 79.140625 64.460938 79.390625 64.25 79.75 C 62.945312 80.390625 61.777344 81.222656 60.75 82.25 C 60.582031 82.25 60.417969 82.25 60.25 82.25 C 60.417969 81.917969 60.582031 81.582031 60.75 81.25 C 61.238281 81.09375 61.574219 80.761719 61.75 80.25 C 57.847656 80.089844 54.761719 78.421875 52.5 75.25 C 51.824219 73.320312 51.574219 71.320312 51.75 69.25 C 52.535156 68.183594 53.203125 67.015625 53.75 65.75 C 54.382812 63.972656 55.382812 62.472656 56.75 61.25 C 58.964844 59.953125 61.300781 59.617188 63.75 60.25 C 64.246094 60.292969 64.664062 60.125 65 59.75 C 66.019531 58.03125 67.269531 56.53125 68.75 55.25 Z M 68.75 55.25 "/>
<path style=" stroke:none;fill-rule:evenodd;fill:rgb(88.627451%,87.45098%,85.882353%);fill-opacity:1;" d="M 69.25 57.75 C 69.269531 60.023438 68.605469 62.023438 67.25 63.75 C 66.753906 63.792969 66.335938 63.625 66 63.25 C 66.171875 61.230469 66.921875 59.398438 68.25 57.75 C 68.628906 57.113281 68.960938 57.113281 69.25 57.75 Z M 69.25 57.75 "/>
<path style=" stroke:none;fill-rule:evenodd;fill:rgb(1.176471%,1.176471%,5.882353%);fill-opacity:1;" d="M 69.25 57.75 C 70.238281 57.925781 71.238281 58.09375 72.25 58.25 C 71.835938 58.691406 71.335938 58.859375 70.75 58.75 C 70.632812 59.394531 70.796875 59.894531 71.25 60.25 C 72.484375 60.816406 73.816406 60.902344 75.25 60.5 C 74.546875 59.8125 73.710938 59.398438 72.75 59.25 C 73.640625 58.328125 74.804688 57.996094 76.25 58.25 C 76.097656 59.53125 76.265625 60.695312 76.75 61.75 C 81.992188 64.902344 84.328125 69.570312 83.75 75.75 C 83.417969 76.359375 83.085938 77.027344 82.75 77.75 C 82.167969 78.027344 81.667969 78.195312 81.25 78.25 C 76.648438 79.980469 71.980469 80.480469 67.25 79.75 C 65.417969 78.332031 64.585938 76.414062 64.75 74 C 65.027344 71.039062 65.527344 68.121094 66.25 65.25 C 66.699219 64.855469 67.035156 64.355469 67.25 63.75 C 68.605469 62.023438 69.269531 60.023438 69.25 57.75 Z M 69.25 57.75 "/>
<use xlink:href="#surface20" mask="url(#mask5)"/>
<path style=" stroke:none;fill-rule:evenodd;fill:rgb(0%,67.843137%,75.686275%);fill-opacity:1;" d="M 40.25 54.25 C 40.175781 54.777344 40.257812 55.277344 40.5 55.75 C 41.875 57.289062 43.042969 58.957031 44 60.75 C 44.828125 64.125 45.414062 67.542969 45.75 71 C 45.714844 71.382812 45.546875 71.632812 45.25 71.75 C 42.035156 66.941406 40.203125 61.609375 39.75 55.75 C 39.757812 55.136719 39.925781 54.636719 40.25 54.25 Z M 40.25 54.25 "/>
<path style=" stroke:none;fill-rule:evenodd;fill:rgb(87.843137%,87.45098%,85.882353%);fill-opacity:1;" d="M 101.75 66.25 C 101.277344 67.992188 100.109375 68.660156 98.25 68.25 C 97.582031 68.25 96.917969 68.25 96.25 68.25 C 96.148438 67.023438 96.316406 65.859375 96.75 64.75 C 98.1875 64.242188 99.6875 64.324219 101.25 65 C 101.625 65.335938 101.792969 65.753906 101.75 66.25 Z M 101.75 66.25 "/>
<path style=" stroke:none;fill-rule:evenodd;fill:rgb(12.54902%,69.803922%,77.254902%);fill-opacity:1;" d="M 13.75 63.75 C 13.917969 63.75 14.082031 63.75 14.25 63.75 C 15.203125 63.867188 15.867188 64.367188 16.25 65.25 C 15.488281 66.109375 14.988281 67.109375 14.75 68.25 C 13.921875 69.578125 12.921875 70.742188 11.75 71.75 C 11.78125 68.863281 12.449219 66.195312 13.75 63.75 Z M 13.75 63.75 "/>
<path style=" stroke:none;fill-rule:evenodd;fill:rgb(80%,96.862745%,97.647059%);fill-opacity:1;" d="M 21.75 64.75 C 22.417969 64.75 23.082031 64.75 23.75 64.75 C 23.96875 66.402344 23.636719 67.902344 22.75 69.25 C 21.863281 67.902344 21.53125 66.402344 21.75 64.75 Z M 21.75 64.75 "/>
<path style=" stroke:none;fill-rule:evenodd;fill:rgb(69.019608%,76.862745%,75.686275%);fill-opacity:1;" d="M 91.75 62.75 C 93.046875 63.027344 94.214844 63.527344 95.25 64.25 C 94.566406 65.808594 94.066406 67.476562 93.75 69.25 C 92.242188 69.332031 90.742188 69.25 89.25 69 C 88.886719 67.921875 88.550781 66.839844 88.25 65.75 C 88.792969 65.769531 89.292969 65.9375 89.75 66.25 C 90.65625 65.1875 91.320312 64.023438 91.75 62.75 Z M 91.75 62.75 "/>
<path style=" stroke:none;fill-rule:evenodd;fill:rgb(33.72549%,59.215686%,62.745098%);fill-opacity:1;" d="M 54.25 53.75 C 54.792969 53.808594 55.125 54.144531 55.25 54.75 C 54.867188 56.058594 54.699219 57.390625 54.75 58.75 C 54.113281 60.875 53.613281 63.039062 53.25 65.25 C 53.3125 65.554688 53.476562 65.71875 53.75 65.75 C 53.203125 67.015625 52.535156 68.183594 51.75 69.25 C 51.027344 70.03125 50.195312 70.699219 49.25 71.25 C 50.179688 65.453125 52.015625 59.953125 54.75 54.75 C 54.570312 54.410156 54.402344 54.074219 54.25 53.75 Z M 54.25 53.75 "/>
<path style=" stroke:none;fill-rule:evenodd;fill:rgb(70.980392%,92.156863%,94.117647%);fill-opacity:1;" d="M 18.75 70.25 C 16.695312 72.15625 14.277344 73.488281 11.5 74.25 C 11.109375 73.304688 11.195312 72.472656 11.75 71.75 C 12.921875 70.742188 13.921875 69.578125 14.75 68.25 C 15.460938 67.566406 16.210938 66.898438 17 66.25 C 17.25 66.417969 17.5 66.582031 17.75 66.75 C 17.0625 67.746094 16.5625 68.828125 16.25 70 C 17.066406 70.246094 17.902344 70.328125 18.75 70.25 Z M 18.75 70.25 "/>
<path style=" stroke:none;fill-rule:evenodd;fill:rgb(18.039216%,39.607843%,45.882353%);fill-opacity:1;" d="M 28.25 71.75 C 28.425781 73.738281 27.589844 75.070312 25.75 75.75 C 25.410156 75.378906 25.074219 75.046875 24.75 74.75 C 25.359375 74.417969 26.027344 74.085938 26.75 73.75 C 27.015625 72.871094 27.515625 72.203125 28.25 71.75 Z M 28.25 71.75 "/>
<path style=" stroke:none;fill-rule:evenodd;fill:rgb(56.470588%,56.470588%,52.54902%);fill-opacity:1;" d="M 66.25 65.25 C 65.527344 68.121094 65.027344 71.039062 64.75 74 C 64.585938 76.414062 65.417969 78.332031 67.25 79.75 C 66.25 79.75 65.25 79.75 64.25 79.75 C 64.460938 79.390625 64.792969 79.140625 65.25 79 C 65.082031 78.832031 64.917969 78.667969 64.75 78.5 C 62.21875 78.375 59.71875 78.042969 57.25 77.5 C 54.445312 75.863281 53.527344 73.445312 54.5 70.25 C 56.089844 67.914062 57.339844 65.414062 58.25 62.75 C 59.582031 62.75 60.917969 62.75 62.25 62.75 C 62.25 63.582031 62.25 64.417969 62.25 65.25 C 63.582031 65.25 64.917969 65.25 66.25 65.25 Z M 66.25 65.25 "/>
<path style=" stroke:none;fill-rule:evenodd;fill:rgb(53.333333%,53.333333%,50.196078%);fill-opacity:1;" d="M 90.25 76.75 C 89.746094 79.777344 88.078125 81.777344 85.25 82.75 C 85.03125 82.78125 84.863281 82.699219 84.75 82.5 C 86.261719 80.871094 86.011719 79.621094 84 78.75 C 83.753906 77.761719 83.667969 76.761719 83.75 75.75 C 84.328125 69.570312 81.992188 64.902344 76.75 61.75 C 78.035156 61.179688 79.367188 61.261719 80.75 62 C 81.820312 64.402344 83.570312 66.152344 86 67.25 C 86.609375 69.527344 86.941406 71.859375 87 74.25 C 87.902344 75.414062 88.984375 76.246094 90.25 76.75 Z M 90.25 76.75 "/>
<path style=" stroke:none;fill-rule:evenodd;fill:rgb(51.372549%,71.764706%,72.941176%);fill-opacity:1;" d="M 51.75 69.25 C 51.574219 71.320312 51.824219 73.320312 52.5 75.25 C 54.761719 78.421875 57.847656 80.089844 61.75 80.25 C 61.574219 80.761719 61.238281 81.09375 60.75 81.25 C 59.179688 80.839844 57.511719 80.589844 55.75 80.5 C 53.25 79.144531 50.664062 78.558594 48 78.75 C 47.050781 78.691406 46.21875 78.359375 45.5 77.75 C 45.242188 78.261719 44.992188 78.761719 44.75 79.25 C 43.804688 78.203125 42.972656 77.039062 42.25 75.75 C 44.371094 75.832031 46.539062 75.832031 48.75 75.75 C 49.242188 74.285156 49.410156 72.785156 49.25 71.25 C 50.195312 70.699219 51.027344 70.03125 51.75 69.25 Z M 51.75 69.25 "/>
<path style=" stroke:none;fill-rule:evenodd;fill:rgb(35.686275%,88.627451%,90.980392%);fill-opacity:1;" d="M 28.75 69.75 C 29.554688 70.714844 30.054688 71.882812 30.25 73.25 C 29.519531 75.199219 29.769531 77.035156 31 78.75 C 31.230469 78.453125 31.316406 78.121094 31.25 77.75 C 32.050781 78.257812 32.714844 78.007812 33.25 77 C 34.082031 76.667969 34.917969 76.667969 35.75 77 C 37.410156 79.75 39.242188 82.332031 41.25 84.75 C 41.644531 85.484375 41.644531 86.148438 41.25 86.75 C 40.332031 86.375 39.5 85.875 38.75 85.25 C 37.808594 85.847656 37.558594 86.679688 38 87.75 C 38.445312 87.144531 38.863281 87.144531 39.25 87.75 C 38.582031 88.082031 37.917969 88.417969 37.25 88.75 C 37.867188 89.140625 38.367188 89.640625 38.75 90.25 C 37.78125 90.605469 37.617188 91.105469 38.25 91.75 C 37.441406 91.480469 36.609375 91.316406 35.75 91.25 C 35.644531 90.539062 35.394531 89.871094 35 89.25 C 34.289062 90.503906 33.457031 91.671875 32.5 92.75 C 30.449219 90.285156 28.699219 87.617188 27.25 84.75 C 26.234375 85.421875 25.234375 86.089844 24.25 86.75 C 23.757812 87.070312 23.257812 87.402344 22.75 87.75 C 21.882812 84.820312 21.550781 81.820312 21.75 78.75 C 21.785156 76.671875 22.785156 75.339844 24.75 74.75 C 25.074219 75.046875 25.410156 75.378906 25.75 75.75 C 27.589844 75.070312 28.425781 73.738281 28.25 71.75 C 28.617188 71.144531 28.785156 70.480469 28.75 69.75 Z M 28.75 69.75 "/>
<path style=" stroke:none;fill-rule:evenodd;fill:rgb(16.862745%,20%,23.137255%);fill-opacity:1;" d="M 83.75 75.75 C 83.667969 76.761719 83.753906 77.761719 84 78.75 C 86.011719 79.621094 86.261719 80.871094 84.75 82.5 C 84.863281 82.699219 85.03125 82.78125 85.25 82.75 C 82.507812 83.324219 79.675781 83.410156 76.75 83 C 76.917969 82.832031 77.082031 82.667969 77.25 82.5 C 76.527344 82.3125 76.027344 81.894531 75.75 81.25 C 77.625 81.300781 79.292969 80.714844 80.75 79.5 C 81.125 79.164062 81.292969 78.746094 81.25 78.25 C 81.667969 78.195312 82.167969 78.027344 82.75 77.75 C 83.085938 77.027344 83.417969 76.359375 83.75 75.75 Z M 83.75 75.75 "/>
<path style=" stroke:none;fill-rule:evenodd;fill:rgb(85.490196%,90.196078%,89.411765%);fill-opacity:1;" d="M 60.75 81.25 C 60.582031 81.582031 60.417969 81.917969 60.25 82.25 C 59.75 82.417969 59.417969 82.75 59.25 83.25 C 57.011719 83.230469 54.84375 82.816406 52.75 82 C 51.117188 79.855469 50.117188 79.9375 49.75 82.25 C 47.457031 82.265625 45.789062 81.265625 44.75 79.25 C 44.992188 78.761719 45.242188 78.261719 45.5 77.75 C 46.21875 78.359375 47.050781 78.691406 48 78.75 C 50.664062 78.558594 53.25 79.144531 55.75 80.5 C 57.511719 80.589844 59.179688 80.839844 60.75 81.25 Z M 60.75 81.25 "/>
<path style=" stroke:none;fill-rule:evenodd;fill:rgb(80.392157%,86.27451%,83.529412%);fill-opacity:1;" d="M 81.25 78.25 C 81.292969 78.746094 81.125 79.164062 80.75 79.5 C 79.292969 80.714844 77.625 81.300781 75.75 81.25 C 75.25 81.25 74.75 81.25 74.25 81.25 C 74.25 81.75 74.25 82.25 74.25 82.75 C 69.660156 82.914062 65.160156 82.746094 60.75 82.25 C 61.777344 81.222656 62.945312 80.390625 64.25 79.75 C 65.25 79.75 66.25 79.75 67.25 79.75 C 71.980469 80.480469 76.648438 79.980469 81.25 78.25 Z M 81.25 78.25 "/>
<path style=" stroke:none;fill-rule:evenodd;fill:rgb(2.745098%,63.921569%,72.54902%);fill-opacity:1;" d="M 34.75 67.25 C 34.1875 69.832031 33.9375 72.5 34 75.25 C 34.648438 74.4375 35.398438 73.773438 36.25 73.25 C 36.777344 73.339844 37.277344 73.507812 37.75 73.75 C 39.667969 76.824219 42 79.574219 44.75 82 C 46.101562 82.953125 47.601562 83.371094 49.25 83.25 C 50.128906 83.894531 51.128906 84.394531 52.25 84.75 C 51.988281 85.097656 51.652344 85.347656 51.25 85.5 C 52.539062 86.53125 53.707031 87.695312 54.75 89 C 57.570312 90.023438 60.402344 90.605469 63.25 90.75 C 62.9375 91.878906 62.273438 92.710938 61.25 93.25 C 60.058594 91.160156 58.394531 90.746094 56.25 92 C 53.75 92.332031 51.25 92.332031 48.75 92 C 50.515625 90.835938 51.515625 89.25 51.75 87.25 C 47.914062 87.746094 44.414062 86.914062 41.25 84.75 C 39.242188 82.332031 37.410156 79.75 35.75 77 C 34.917969 76.667969 34.082031 76.667969 33.25 77 C 32.714844 78.007812 32.050781 78.257812 31.25 77.75 C 31.183594 74.070312 31.347656 70.402344 31.75 66.75 C 31.683594 66.3125 31.851562 65.976562 32.25 65.75 C 33.199219 66.136719 34.03125 66.636719 34.75 67.25 Z M 34.75 67.25 "/>
<path style=" stroke:none;fill-rule:evenodd;fill:rgb(65.098039%,68.627451%,68.235294%);fill-opacity:1;" d="M 60.25 82.25 C 60.417969 82.25 60.582031 82.25 60.75 82.25 C 65.160156 82.746094 69.660156 82.914062 74.25 82.75 C 71.011719 83.246094 67.675781 83.410156 64.25 83.25 C 62.75 83.25 61.25 83.25 59.75 83.25 C 59.582031 83.25 59.417969 83.25 59.25 83.25 C 59.417969 82.75 59.75 82.417969 60.25 82.25 Z M 60.25 82.25 "/>
<use xlink:href="#surface23" mask="url(#mask6)"/>
<path style=" stroke:none;fill-rule:evenodd;fill:rgb(83.529412%,83.921569%,81.568627%);fill-opacity:1;" d="M 96.75 69.75 C 98.09375 69.667969 99.425781 69.75 100.75 70 C 101.238281 70.890625 101.074219 71.722656 100.25 72.5 C 97.582031 74.195312 95.082031 74.113281 92.75 72.25 C 92.707031 71.753906 92.875 71.335938 93.25 71 C 94.464844 70.550781 95.628906 70.132812 96.75 69.75 Z M 96.75 69.75 "/>
<path style=" stroke:none;fill-rule:evenodd;fill:rgb(69.411765%,72.941176%,70.980392%);fill-opacity:1;" d="M 68.75 85.25 C 72.082031 85.25 75.417969 85.25 78.75 85.25 C 78.828125 86.097656 78.746094 86.933594 78.5 87.75 C 77.757812 88.234375 77.34375 88.902344 77.25 89.75 C 74.972656 87.820312 72.308594 86.652344 69.25 86.25 C 68.851562 86.023438 68.683594 85.6875 68.75 85.25 Z M 68.75 85.25 "/>
<path style=" stroke:none;fill-rule:evenodd;fill:rgb(0.784314%,52.54902%,62.352941%);fill-opacity:1;" d="M 49.25 83.25 C 51.664062 83.46875 53.996094 84.054688 56.25 85 C 57.742188 85.25 59.242188 85.332031 60.75 85.25 C 60.75 86.082031 60.75 86.917969 60.75 87.75 C 61.917969 87.75 63.082031 87.75 64.25 87.75 C 64.824219 88.957031 64.492188 89.957031 63.25 90.75 C 60.402344 90.605469 57.570312 90.023438 54.75 89 C 53.707031 87.695312 52.539062 86.53125 51.25 85.5 C 51.652344 85.347656 51.988281 85.097656 52.25 84.75 C 51.128906 84.394531 50.128906 83.894531 49.25 83.25 Z M 49.25 83.25 "/>
<path style=" stroke:none;fill-rule:evenodd;fill:rgb(8.235294%,12.941176%,16.470588%);fill-opacity:1;" d="M 21.75 78.75 C 21.550781 81.820312 21.882812 84.820312 22.75 87.75 C 23.257812 87.402344 23.757812 87.070312 24.25 86.75 C 24.292969 87.246094 24.125 87.664062 23.75 88 C 25.589844 87.832031 26.757812 88.582031 27.25 90.25 C 26.59375 89.761719 25.925781 89.261719 25.25 88.75 C 24.171875 89.707031 23.003906 90.539062 21.75 91.25 C 21.261719 91.011719 20.84375 90.679688 20.5 90.25 C 19.136719 85.171875 18.300781 80.003906 18 74.75 C 17.496094 75.167969 16.910156 75.335938 16.25 75.25 C 16.890625 74.535156 17.722656 74.199219 18.75 74.25 C 18.972656 78.789062 19.558594 83.289062 20.5 87.75 C 21.078125 87.5 21.496094 87.085938 21.75 86.5 C 21.109375 83.84375 21.109375 81.261719 21.75 78.75 Z M 21.75 78.75 "/>
<path style=" stroke:none;fill-rule:evenodd;fill:rgb(92.941176%,92.156863%,88.627451%);fill-opacity:1;" d="M 68.75 85.25 C 68.683594 85.6875 68.851562 86.023438 69.25 86.25 C 72.308594 86.652344 74.972656 87.820312 77.25 89.75 C 78.144531 89.816406 78.980469 89.652344 79.75 89.25 C 80.277344 90.128906 81.109375 90.460938 82.25 90.25 C 81.855469 90.898438 81.355469 91.480469 80.75 92 C 76.996094 93.742188 73.328125 93.65625 69.75 91.75 C 67.964844 90.183594 66.964844 88.183594 66.75 85.75 C 67.285156 85.28125 67.949219 85.117188 68.75 85.25 Z M 68.75 85.25 "/>
<path style=" stroke:none;fill-rule:evenodd;fill:rgb(65.098039%,68.627451%,66.666667%);fill-opacity:1;" d="M 82.25 90.25 C 81.109375 90.460938 80.277344 90.128906 79.75 89.25 C 80.671875 87.65625 82.003906 86.65625 83.75 86.25 C 83.792969 87.824219 83.292969 89.15625 82.25 90.25 Z M 82.25 90.25 "/>
<use xlink:href="#surface26" mask="url(#mask7)"/>
<path style=" stroke:none;fill-rule:evenodd;fill:rgb(35.294118%,87.843137%,90.196078%);fill-opacity:1;" d="M 41.25 84.75 C 44.414062 86.914062 47.914062 87.746094 51.75 87.25 C 51.515625 89.25 50.515625 90.835938 48.75 92 C 51.25 92.332031 53.75 92.332031 56.25 92 C 58.394531 90.746094 60.058594 91.160156 61.25 93.25 C 60.332031 94.585938 59.164062 95.667969 57.75 96.5 C 52.632812 98.808594 47.300781 99.390625 41.75 98.25 C 39.675781 98.207031 37.675781 98.539062 35.75 99.25 C 36.195312 96.695312 37.195312 94.359375 38.75 92.25 C 38.6875 91.945312 38.523438 91.78125 38.25 91.75 C 37.617188 91.105469 37.78125 90.605469 38.75 90.25 C 38.367188 89.640625 37.867188 89.140625 37.25 88.75 C 37.917969 88.417969 38.582031 88.082031 39.25 87.75 C 38.863281 87.144531 38.445312 87.144531 38 87.75 C 37.558594 86.679688 37.808594 85.847656 38.75 85.25 C 39.5 85.875 40.332031 86.375 41.25 86.75 C 41.644531 86.148438 41.644531 85.484375 41.25 84.75 Z M 41.25 84.75 "/>
<path style=" stroke:none;fill-rule:evenodd;fill:rgb(1.568627%,51.764706%,60%);fill-opacity:1;" d="M 35.75 91.25 C 36.609375 91.316406 37.441406 91.480469 38.25 91.75 C 38.523438 91.78125 38.6875 91.945312 38.75 92.25 C 37.195312 94.359375 36.195312 96.695312 35.75 99.25 C 35.441406 99.304688 35.191406 99.472656 35 99.75 C 34.5625 96.835938 34.8125 94 35.75 91.25 Z M 35.75 91.25 "/>
<use xlink:href="#surface29" mask="url(#mask8)"/>
<use xlink:href="#surface32" mask="url(#mask9)"/>
</g>
</svg>
