<?xml version="1.0" encoding="UTF-8"?>
<svg xmlns="http://www.w3.org/2000/svg" xmlns:xlink="http://www.w3.org/1999/xlink" width="px" height="px" viewBox="0 0 101 102" version="1.1">
<defs>
<filter id="alpha" filterUnits="objectBoundingBox" x="0%" y="0%" width="100%" height="100%">
  <feColorMatrix type="matrix" in="SourceGraphic" values="0 0 0 0 1 0 0 0 0 1 0 0 0 0 1 0 0 0 1 0"/>
</filter>
<mask id="mask0">
  <g filter="url(#alpha)">
<rect x="0" y="0" width="101" height="102" style="fill:rgb(0%,0%,0%);fill-opacity:0.0117647;stroke:none;"/>
  </g>
</mask>
<clipPath id="clip1">
  <rect x="0" y="0" width="101" height="102"/>
</clipPath>
<g id="surface5" clip-path="url(#clip1)">
<path style=" stroke:none;fill-rule:evenodd;fill:rgb(17.647059%,23.137255%,28.235294%);fill-opacity:1;" d="M 52.25 4.75 C 51.589844 5.867188 50.589844 6.535156 49.25 6.75 C 48.714844 5.234375 48.132812 3.734375 47.5 2.25 C 47.128906 1.503906 46.542969 1.003906 45.75 0.75 C 41.5 2.53125 37.25 4.363281 33 6.25 C 32.023438 5.640625 31.273438 4.808594 30.75 3.75 C 31.6875 3.949219 32.4375 4.449219 33 5.25 C 37.230469 3.507812 41.480469 1.839844 45.75 0.25 C 46.386719 0.285156 46.96875 0.453125 47.5 0.75 C 48.289062 2.496094 49.207031 4.164062 50.25 5.75 C 50.8125 5.183594 51.476562 4.851562 52.25 4.75 Z M 52.25 4.75 "/>
</g>
<mask id="mask1">
  <g filter="url(#alpha)">
<rect x="0" y="0" width="101" height="102" style="fill:rgb(0%,0%,0%);fill-opacity:0.996078;stroke:none;"/>
  </g>
</mask>
<clipPath id="clip2">
  <rect x="0" y="0" width="101" height="102"/>
</clipPath>
<g id="surface8" clip-path="url(#clip2)">
<path style=" stroke:none;fill-rule:evenodd;fill:rgb(5.882353%,3.921569%,4.705882%);fill-opacity:1;" d="M 54.25 -0.25 C 54.917969 -0.25 55.582031 -0.25 56.25 -0.25 C 58.175781 1.765625 59.84375 4.015625 61.25 6.5 C 60.644531 7.054688 60.808594 7.304688 61.75 7.25 C 66.550781 5.960938 70.886719 6.792969 74.75 9.75 C 74.832031 10.914062 75.164062 11.996094 75.75 13 C 75.128906 13.226562 74.710938 12.976562 74.5 12.25 C 74.269531 12.546875 74.183594 12.878906 74.25 13.25 C 71.578125 9.886719 68.078125 8.636719 63.75 9.5 C 60.769531 10.558594 59.269531 12.640625 59.25 15.75 C 58.53125 14.703125 57.949219 13.535156 57.5 12.25 C 57.382812 12.867188 57.132812 13.367188 56.75 13.75 C 56.882812 12.0625 57.382812 10.480469 58.25 9 C 57.980469 7.757812 57.480469 6.675781 56.75 5.75 C 56.554688 4.910156 56.304688 4.078125 56 3.25 C 55.4375 4.625 54.6875 5.875 53.75 7 C 50.746094 8.460938 47.578125 9.375 44.25 9.75 C 42.960938 9.625 42.542969 8.960938 43 7.75 C 43.210938 8.335938 43.542969 8.835938 44 9.25 C 44.128906 8.191406 44.628906 7.359375 45.5 6.75 C 45.90625 5.550781 45.824219 4.382812 45.25 3.25 C 39.664062 5.441406 34.332031 8.109375 29.25 11.25 C 28.238281 11.332031 27.238281 11.246094 26.25 11 C 27.867188 10.882812 29.117188 10.132812 30 8.75 C 30.386719 7.796875 30.21875 6.964844 29.5 6.25 C 27.96875 7.867188 26.386719 9.367188 24.75 10.75 C 23.988281 10.714844 23.488281 11.046875 23.25 11.75 C 22.582031 12.082031 22.082031 12.582031 21.75 13.25 C 21.101562 13.644531 20.519531 14.144531 20 14.75 C 19.75 16.410156 19.667969 18.074219 19.75 19.75 C 18.308594 19.308594 16.972656 18.640625 15.75 17.75 C 15.121094 17.769531 14.621094 17.519531 14.25 17 C 17.308594 14.527344 20.140625 11.777344 22.75 8.75 C 23.628906 7.289062 24.878906 6.289062 26.5 5.75 C 26.957031 3.613281 28.207031 2.699219 30.25 3 C 30.527344 3.191406 30.695312 3.441406 30.75 3.75 C 31.273438 4.808594 32.023438 5.640625 33 6.25 C 37.25 4.363281 41.5 2.53125 45.75 0.75 C 46.542969 1.003906 47.128906 1.503906 47.5 2.25 C 48.132812 3.734375 48.714844 5.234375 49.25 6.75 C 50.589844 6.535156 51.589844 5.867188 52.25 4.75 C 52.648438 2.957031 53.316406 1.289062 54.25 -0.25 Z M 54.25 -0.25 "/>
</g>
<mask id="mask2">
  <g filter="url(#alpha)">
<rect x="0" y="0" width="101" height="102" style="fill:rgb(0%,0%,0%);fill-opacity:0.0117647;stroke:none;"/>
  </g>
</mask>
<clipPath id="clip3">
  <rect x="0" y="0" width="101" height="102"/>
</clipPath>
<g id="surface11" clip-path="url(#clip3)">
<path style=" stroke:none;fill-rule:evenodd;fill:rgb(14.901961%,21.176471%,26.666667%);fill-opacity:1;" d="M 74.75 9.75 C 70.886719 6.792969 66.550781 5.960938 61.75 7.25 C 61.804688 6.941406 61.972656 6.691406 62.25 6.5 C 66.023438 5.9375 69.691406 6.269531 73.25 7.5 C 74.070312 8.066406 74.570312 8.816406 74.75 9.75 Z M 74.75 9.75 "/>
</g>
<mask id="mask3">
  <g filter="url(#alpha)">
<rect x="0" y="0" width="101" height="102" style="fill:rgb(0%,0%,0%);fill-opacity:0.0117647;stroke:none;"/>
  </g>
</mask>
<clipPath id="clip4">
  <rect x="0" y="0" width="101" height="102"/>
</clipPath>
<g id="surface14" clip-path="url(#clip4)">
<path style=" stroke:none;fill-rule:evenodd;fill:rgb(16.078431%,21.568627%,27.058824%);fill-opacity:1;" d="M 7.25 22.25 C 5.464844 25.796875 5.296875 29.464844 6.75 33.25 C 6.011719 34.035156 5.179688 34.703125 4.25 35.25 C 4.429688 34.316406 4.929688 33.566406 5.75 33 C 4.351562 29.554688 4.433594 26.136719 6 22.75 C 6.335938 22.375 6.753906 22.207031 7.25 22.25 Z M 7.25 22.25 "/>
</g>
<mask id="mask4">
  <g filter="url(#alpha)">
<rect x="0" y="0" width="101" height="102" style="fill:rgb(0%,0%,0%);fill-opacity:0.00784314;stroke:none;"/>
  </g>
</mask>
<clipPath id="clip5">
  <rect x="0" y="0" width="101" height="102"/>
</clipPath>
<g id="surface17" clip-path="url(#clip5)">
<path style=" stroke:none;fill-rule:evenodd;fill:rgb(17.254902%,22.745098%,27.843137%);fill-opacity:1;" d="M 80.75 19.25 C 81.953125 19.460938 82.871094 20.128906 83.5 21.25 C 84.386719 23.191406 85.386719 25.027344 86.5 26.75 C 89.027344 25.941406 91.441406 26.109375 93.75 27.25 C 97.09375 31.285156 98.761719 35.953125 98.75 41.25 C 98.011719 36.816406 96.425781 32.648438 94 28.75 C 93.480469 28.144531 92.898438 27.644531 92.25 27.25 C 89.917969 26.832031 87.582031 26.832031 85.25 27.25 C 84.519531 24.121094 83.019531 21.453125 80.75 19.25 Z M 80.75 19.25 "/>
</g>
<mask id="mask5">
  <g filter="url(#alpha)">
<rect x="0" y="0" width="101" height="102" style="fill:rgb(0%,0%,0%);fill-opacity:0.996078;stroke:none;"/>
  </g>
</mask>
<clipPath id="clip6">
  <rect x="0" y="0" width="101" height="102"/>
</clipPath>
<g id="surface20" clip-path="url(#clip6)">
<path style=" stroke:none;fill-rule:evenodd;fill:rgb(5.098039%,1.568627%,2.745098%);fill-opacity:1;" d="M 92.25 27.25 C 92.898438 27.644531 93.480469 28.144531 94 28.75 C 96.425781 32.648438 98.011719 36.816406 98.75 41.25 C 99.886719 49.738281 99.300781 58.074219 97 66.25 C 95.75 68.816406 94.5 71.398438 93.25 74 C 91.125 74.882812 88.960938 74.964844 86.75 74.25 C 86.582031 74.25 86.417969 74.25 86.25 74.25 C 86.25 74.082031 86.25 73.917969 86.25 73.75 C 86.195312 73.441406 86.027344 73.191406 85.75 73 C 86.378906 72.792969 86.710938 72.375 86.75 71.75 C 88.703125 73.019531 90.617188 73.019531 92.5 71.75 C 92.746094 70.761719 92.832031 69.761719 92.75 68.75 C 91.523438 68.851562 90.359375 68.683594 89.25 68.25 C 90.582031 67.917969 91.917969 67.582031 93.25 67.25 C 95.652344 65.808594 96.570312 63.640625 96 60.75 C 95.8125 60.027344 95.394531 59.527344 94.75 59.25 C 94.75 58.917969 94.917969 58.75 95.25 58.75 C 96.082031 58.027344 96.5 57.027344 96.5 55.75 C 96.757812 51.578125 96.675781 47.410156 96.25 43.25 C 95.582031 43.25 94.917969 43.25 94.25 43.25 C 94.390625 42.609375 94.722656 42.109375 95.25 41.75 C 95.558594 41.695312 95.808594 41.527344 96 41.25 C 96.457031 39.097656 96.207031 37.097656 95.25 35.25 C 95.246094 34.492188 94.910156 33.90625 94.25 33.5 C 90.035156 32.417969 87.203125 33.835938 85.75 37.75 C 85.1875 38.84375 85.1875 40.011719 85.75 41.25 C 85.75 41.582031 85.75 41.917969 85.75 42.25 C 85.199219 41.699219 84.53125 41.367188 83.75 41.25 C 83.828125 40.5625 83.746094 39.898438 83.5 39.25 C 80.574219 37.691406 79.992188 35.523438 81.75 32.75 C 82.917969 32.75 84.082031 32.75 85.25 32.75 C 87.828125 32.851562 90.328125 32.519531 92.75 31.75 C 92.839844 29.902344 92.003906 28.902344 90.25 28.75 C 91.109375 28.488281 91.777344 27.988281 92.25 27.25 Z M 92.25 27.25 "/>
</g>
<mask id="mask6">
  <g filter="url(#alpha)">
<rect x="0" y="0" width="101" height="102" style="fill:rgb(0%,0%,0%);fill-opacity:0.00784314;stroke:none;"/>
  </g>
</mask>
<clipPath id="clip7">
  <rect x="0" y="0" width="101" height="102"/>
</clipPath>
<g id="surface23" clip-path="url(#clip7)">
<path style=" stroke:none;fill-rule:evenodd;fill:rgb(76.078431%,50.196078%,39.215686%);fill-opacity:1;" d="M 6.75 64.25 C 6.75 64.082031 6.75 63.917969 6.75 63.75 C 6.417969 63.75 6.25 63.917969 6.25 64.25 C 6.082031 64.25 5.917969 64.25 5.75 64.25 C 5.722656 63.695312 5.554688 63.195312 5.25 62.75 C 4.976562 62.71875 4.8125 62.554688 4.75 62.25 C 7.007812 61.207031 7.925781 61.871094 7.5 64.25 C 7.15625 64.867188 6.90625 64.867188 6.75 64.25 Z M 6.75 63.75 C 7.386719 63.460938 7.386719 63.128906 6.75 62.75 C 6.269531 62.984375 6.269531 63.320312 6.75 63.75 Z M 6.75 63.75 "/>
</g>
<mask id="mask7">
  <g filter="url(#alpha)">
<rect x="0" y="0" width="101" height="102" style="fill:rgb(0%,0%,0%);fill-opacity:0.00784314;stroke:none;"/>
  </g>
</mask>
<clipPath id="clip8">
  <rect x="0" y="0" width="101" height="102"/>
</clipPath>
<g id="surface26" clip-path="url(#clip8)">
<path style=" stroke:none;fill-rule:evenodd;fill:rgb(14.117647%,18.431373%,23.137255%);fill-opacity:1;" d="M 98.75 41.25 C 99.46875 43.738281 100.136719 46.238281 100.75 48.75 C 100.75 49.417969 100.75 50.082031 100.75 50.75 C 100.539062 55.113281 99.789062 59.449219 98.5 63.75 C 96.695312 66.890625 95.363281 70.222656 94.5 73.75 C 93.347656 74.945312 91.929688 75.445312 90.25 75.25 C 88.898438 75.34375 87.730469 75.007812 86.75 74.25 C 88.960938 74.964844 91.125 74.882812 93.25 74 C 94.5 71.398438 95.75 68.816406 97 66.25 C 99.300781 58.074219 99.886719 49.738281 98.75 41.25 Z M 98.75 41.25 "/>
</g>
<mask id="mask8">
  <g filter="url(#alpha)">
<rect x="0" y="0" width="101" height="102" style="fill:rgb(0%,0%,0%);fill-opacity:0.992157;stroke:none;"/>
  </g>
</mask>
<clipPath id="clip9">
  <rect x="0" y="0" width="101" height="102"/>
</clipPath>
<g id="surface29" clip-path="url(#clip9)">
<path style=" stroke:none;fill-rule:evenodd;fill:rgb(7.45098%,7.45098%,8.235294%);fill-opacity:1;" d="M 2.25 61.75 C 3.238281 62.578125 4.074219 63.578125 4.75 64.75 C 5.089844 64.570312 5.425781 64.402344 5.75 64.25 C 5.917969 64.25 6.082031 64.25 6.25 64.25 C 6.234375 64.75 6.484375 65.082031 7 65.25 C 7.550781 64.855469 7.96875 64.855469 8.25 65.25 C 7.539062 66.167969 6.957031 67.167969 6.5 68.25 C 6.167969 71.082031 6.167969 73.917969 6.5 76.75 C 7.398438 75.144531 7.980469 73.480469 8.25 71.75 C 8.25 73.082031 8.25 74.417969 8.25 75.75 C 9.8125 76.238281 11.480469 76.40625 13.25 76.25 C 13.25 76.582031 13.25 76.917969 13.25 77.25 C 11.867188 80.15625 12.78125 82.15625 16 83.25 C 16.820312 83.011719 17.40625 82.511719 17.75 81.75 C 18.582031 81.75 19.417969 81.75 20.25 81.75 C 20.207031 82.839844 19.875 83.839844 19.25 84.75 C 20.5 86.746094 22 88.496094 23.75 90 C 24.53125 90.382812 25.199219 90.300781 25.75 89.75 C 27.417969 89.082031 29.082031 89.082031 30.75 89.75 C 32.285156 91.289062 33.953125 92.621094 35.75 93.75 C 34.367188 93.765625 33.117188 93.433594 32 92.75 C 31.582031 92.917969 31.167969 93.082031 30.75 93.25 C 31.496094 94.441406 31.328125 94.777344 30.25 94.25 C 30.75 91.417969 29.582031 90.25 26.75 90.75 C 26.675781 91.277344 26.757812 91.777344 27 92.25 C 27.996094 92.664062 28.746094 93.332031 29.25 94.25 C 27.253906 94.378906 25.835938 93.542969 25 91.75 C 24.832031 91.917969 24.667969 92.082031 24.5 92.25 C 23.699219 91.480469 22.785156 91.230469 21.75 91.5 C 23.460938 92.347656 24.960938 93.433594 26.25 94.75 C 22.253906 93.007812 19.085938 90.257812 16.75 86.5 C 12.890625 85.808594 10.472656 83.558594 9.5 79.75 C 7.183594 79.433594 5.851562 78.101562 5.5 75.75 C 5.335938 72.738281 5.335938 69.738281 5.5 66.75 C 3.785156 65.480469 2.699219 63.816406 2.25 61.75 Z M 2.25 61.75 "/>
</g>
<mask id="mask9">
  <g filter="url(#alpha)">
<rect x="0" y="0" width="101" height="102" style="fill:rgb(0%,0%,0%);fill-opacity:0.988235;stroke:none;"/>
  </g>
</mask>
<clipPath id="clip10">
  <rect x="0" y="0" width="101" height="102"/>
</clipPath>
<g id="surface32" clip-path="url(#clip10)">
<path style=" stroke:none;fill-rule:evenodd;fill:rgb(6.666667%,6.666667%,7.843137%);fill-opacity:1;" d="M 29.25 94.25 C 29.582031 94.917969 29.917969 94.917969 30.25 94.25 C 31.328125 94.777344 31.496094 94.441406 30.75 93.25 C 31.167969 93.082031 31.582031 92.917969 32 92.75 C 33.117188 93.433594 34.367188 93.765625 35.75 93.75 C 38.855469 94.800781 41.855469 96.136719 44.75 97.75 C 45.042969 97.644531 45.292969 97.476562 45.5 97.25 C 45.75 96.09375 45.832031 94.929688 45.75 93.75 C 45.417969 93.082031 44.917969 92.582031 44.25 92.25 C 45.472656 91.761719 46.808594 91.597656 48.25 91.75 C 51.808594 92.402344 54.226562 94.402344 55.5 97.75 C 55.691406 97.472656 55.941406 97.304688 56.25 97.25 C 56.652344 98.019531 56.816406 98.855469 56.75 99.75 C 56.613281 100.714844 56.113281 101.382812 55.25 101.75 C 55.082031 101.75 54.917969 101.75 54.75 101.75 C 54.03125 101.285156 53.367188 100.703125 52.75 100 C 52.917969 99.832031 53.082031 99.667969 53.25 99.5 C 52.382812 97.628906 51.132812 96.046875 49.5 94.75 C 49.203125 97.777344 47.703125 99.945312 45 101.25 C 41.121094 99.1875 37.207031 97.1875 33.25 95.25 C 32.25 95.917969 31.417969 96.75 30.75 97.75 C 28.523438 98.050781 27.023438 97.050781 26.25 94.75 C 24.960938 93.433594 23.460938 92.347656 21.75 91.5 C 22.785156 91.230469 23.699219 91.480469 24.5 92.25 C 24.667969 92.082031 24.832031 91.917969 25 91.75 C 25.835938 93.542969 27.253906 94.378906 29.25 94.25 Z M 29.25 94.25 "/>
</g>
<mask id="mask10">
  <g filter="url(#alpha)">
<rect x="0" y="0" width="101" height="102" style="fill:rgb(0%,0%,0%);fill-opacity:0.0431373;stroke:none;"/>
  </g>
</mask>
<clipPath id="clip11">
  <rect x="0" y="0" width="101" height="102"/>
</clipPath>
<g id="surface35" clip-path="url(#clip11)">
<path style=" stroke:none;fill-rule:evenodd;fill:rgb(14.509804%,19.607843%,25.098039%);fill-opacity:1;" d="M 86.25 73.75 C 86.25 73.917969 86.25 74.082031 86.25 74.25 C 85.296875 78.621094 82.882812 81.957031 79 84.25 C 76.667969 93.6875 70.917969 97.023438 61.75 94.25 C 60.476562 95.285156 59.558594 96.617188 59 98.25 C 58.59375 98.910156 58.007812 99.246094 57.25 99.25 C 58.800781 97.316406 59.96875 95.148438 60.75 92.75 C 70.015625 96.535156 75.847656 93.535156 78.25 83.75 C 82.085938 81.835938 84.421875 78.753906 85.25 74.5 C 85.417969 73.984375 85.75 73.734375 86.25 73.75 Z M 86.25 73.75 "/>
</g>
</defs>
<g id="surface1">
<use xlink:href="#surface5" mask="url(#mask0)"/>
<use xlink:href="#surface8" mask="url(#mask1)"/>
<use xlink:href="#surface11" mask="url(#mask2)"/>
<path style=" stroke:none;fill-rule:evenodd;fill:rgb(62.745098%,38.431373%,22.352941%);fill-opacity:1;" d="M 29.25 11.25 C 28.777344 11.578125 28.191406 11.742188 27.5 11.75 C 26.503906 11.539062 25.589844 11.207031 24.75 10.75 C 26.386719 9.367188 27.96875 7.867188 29.5 6.25 C 30.21875 6.964844 30.386719 7.796875 30 8.75 C 29.117188 10.132812 27.867188 10.882812 26.25 11 C 27.238281 11.246094 28.238281 11.332031 29.25 11.25 Z M 29.25 11.25 "/>
<path style=" stroke:none;fill-rule:evenodd;fill:rgb(85.490196%,47.843137%,19.607843%);fill-opacity:1;" d="M 56.75 5.75 C 56.019531 6.730469 55.1875 7.648438 54.25 8.5 C 51.339844 9.703125 48.507812 11.039062 45.75 12.5 C 42.945312 13.304688 40.113281 13.972656 37.25 14.5 C 34.523438 16.890625 31.523438 18.890625 28.25 20.5 C 27.464844 21.199219 26.796875 21.949219 26.25 22.75 C 26.59375 21.394531 26.929688 20.230469 27.25 19.25 C 28.898438 17.851562 30.480469 16.351562 32 14.75 C 32.246094 14.101562 32.328125 13.4375 32.25 12.75 C 30.949219 12.773438 29.867188 13.273438 29 14.25 C 27.632812 13.054688 26.300781 13.054688 25 14.25 C 24.332031 13.582031 23.667969 13.582031 23 14.25 C 22.808594 13.402344 22.890625 12.570312 23.25 11.75 C 23.488281 11.046875 23.988281 10.714844 24.75 10.75 C 25.589844 11.207031 26.503906 11.539062 27.5 11.75 C 28.191406 11.742188 28.777344 11.578125 29.25 11.25 C 34.332031 8.109375 39.664062 5.441406 45.25 3.25 C 45.824219 4.382812 45.90625 5.550781 45.5 6.75 C 44.628906 7.359375 44.128906 8.191406 44 9.25 C 43.542969 8.835938 43.210938 8.335938 43 7.75 C 42.542969 8.960938 42.960938 9.625 44.25 9.75 C 47.578125 9.375 50.746094 8.460938 53.75 7 C 54.6875 5.875 55.4375 4.625 56 3.25 C 56.304688 4.078125 56.554688 4.910156 56.75 5.75 Z M 56.75 5.75 "/>
<path style=" stroke:none;fill-rule:evenodd;fill:rgb(70.196078%,42.745098%,20%);fill-opacity:1;" d="M 74.25 13.25 C 74.574219 14.21875 74.742188 15.21875 74.75 16.25 C 74.019531 16.285156 73.355469 16.117188 72.75 15.75 C 71.511719 14.929688 70.511719 13.84375 69.75 12.5 C 65.40625 10.417969 62.074219 11.5 59.75 15.75 C 59.582031 15.75 59.417969 15.75 59.25 15.75 C 59.269531 12.640625 60.769531 10.558594 63.75 9.5 C 68.078125 8.636719 71.578125 9.886719 74.25 13.25 Z M 74.25 13.25 "/>
<path style=" stroke:none;fill-rule:evenodd;fill:rgb(49.411765%,26.27451%,12.156863%);fill-opacity:1;" d="M 72.75 15.75 C 68.417969 15.75 64.082031 15.75 59.75 15.75 C 62.074219 11.5 65.40625 10.417969 69.75 12.5 C 70.511719 13.84375 71.511719 14.929688 72.75 15.75 Z M 72.75 15.75 "/>
<path style=" stroke:none;fill-rule:evenodd;fill:rgb(96.078431%,62.352941%,30.196078%);fill-opacity:1;" d="M 23.25 11.75 C 22.890625 12.570312 22.808594 13.402344 23 14.25 C 23.667969 13.582031 24.332031 13.582031 25 14.25 C 26.300781 13.054688 27.632812 13.054688 29 14.25 C 29.867188 13.273438 30.949219 12.773438 32.25 12.75 C 32.328125 13.4375 32.246094 14.101562 32 14.75 C 30.480469 16.351562 28.898438 17.851562 27.25 19.25 C 24.902344 20.089844 22.902344 21.421875 21.25 23.25 C 20.9375 22.6875 20.523438 22.1875 20 21.75 C 19.476562 22.257812 18.890625 22.34375 18.25 22 C 17.296875 21.09375 16.464844 20.09375 15.75 19 C 16.972656 19.042969 17.804688 19.710938 18.25 21 C 19.054688 21.359375 19.804688 21.277344 20.5 20.75 C 20.667969 21.082031 20.832031 21.417969 21 21.75 C 21.078125 19.976562 20.828125 18.226562 20.25 16.5 C 21.089844 15.5625 21.589844 14.480469 21.75 13.25 C 22.082031 12.582031 22.582031 12.082031 23.25 11.75 Z M 23.25 11.75 "/>
<path style=" stroke:none;fill-rule:evenodd;fill:rgb(67.058824%,36.862745%,19.215686%);fill-opacity:1;" d="M 56.75 5.75 C 57.480469 6.675781 57.980469 7.757812 58.25 9 C 57.382812 10.480469 56.882812 12.0625 56.75 13.75 C 56.855469 14.570312 56.691406 15.320312 56.25 16 C 49.039062 15.96875 42.375 17.800781 36.25 21.5 C 30.875 26.5 27.542969 32.585938 26.25 39.75 C 23.625 40.316406 22.457031 41.984375 22.75 44.75 C 22.15625 43.566406 21.320312 42.566406 20.25 41.75 C 19.535156 40.722656 19.199219 39.554688 19.25 38.25 C 21.503906 38.136719 23.667969 38.46875 25.75 39.25 C 26.082031 36.921875 26.414062 34.589844 26.75 32.25 C 26.199219 30.453125 25.535156 28.703125 24.75 27 C 25.007812 25.480469 25.507812 24.066406 26.25 22.75 C 26.796875 21.949219 27.464844 21.199219 28.25 20.5 C 31.523438 18.890625 34.523438 16.890625 37.25 14.5 C 40.113281 13.972656 42.945312 13.304688 45.75 12.5 C 48.507812 11.039062 51.339844 9.703125 54.25 8.5 C 55.1875 7.648438 56.019531 6.730469 56.75 5.75 Z M 56.75 5.75 "/>
<path style=" stroke:none;fill-rule:evenodd;fill:rgb(7.843137%,7.058824%,13.333333%);fill-opacity:1;" d="M 72.25 19.25 C 77.339844 19.082031 80.589844 21.414062 82 26.25 C 82.316406 28.433594 82.230469 30.601562 81.75 32.75 C 79.992188 35.523438 80.574219 37.691406 83.5 39.25 C 83.746094 39.898438 83.828125 40.5625 83.75 41.25 C 82.082031 42.75 80.417969 44.25 78.75 45.75 C 77.617188 46.109375 76.453125 46.277344 75.25 46.25 C 75.320312 45.367188 75.15625 44.535156 74.75 43.75 C 73.457031 43.261719 72.125 43.09375 70.75 43.25 C 69.160156 42.703125 67.660156 42.035156 66.25 41.25 C 72.246094 41.421875 75.910156 38.589844 77.25 32.75 C 77.175781 33.277344 77.257812 33.777344 77.5 34.25 C 79.921875 27.0625 77.335938 22.730469 69.75 21.25 C 68.988281 20.433594 67.988281 20.019531 66.75 20 C 68.511719 19.332031 70.347656 19.082031 72.25 19.25 Z M 72.25 19.25 "/>
<path style=" stroke:none;fill-rule:evenodd;fill:rgb(96.862745%,71.372549%,45.490196%);fill-opacity:1;" d="M 21.75 13.25 C 21.589844 14.480469 21.089844 15.5625 20.25 16.5 C 20.828125 18.226562 21.078125 19.976562 21 21.75 C 20.832031 21.417969 20.667969 21.082031 20.5 20.75 C 19.804688 21.277344 19.054688 21.359375 18.25 21 C 17.804688 19.710938 16.972656 19.042969 15.75 19 C 16.464844 20.09375 17.296875 21.09375 18.25 22 C 18.890625 22.34375 19.476562 22.257812 20 21.75 C 20.523438 22.1875 20.9375 22.6875 21.25 23.25 C 22.320312 25.582031 21.820312 27.414062 19.75 28.75 C 19.332031 29.894531 18.832031 31.0625 18.25 32.25 C 18.042969 31.867188 17.960938 31.367188 18 30.75 C 17.832031 30.917969 17.667969 31.082031 17.5 31.25 C 16.382812 30.398438 15.132812 29.898438 13.75 29.75 C 13.75 29.25 13.75 28.75 13.75 28.25 C 15.550781 28.160156 15.550781 27.660156 13.75 26.75 C 14.597656 24.472656 14.097656 24.140625 12.25 25.75 C 12.925781 26.335938 12.84375 26.835938 12 27.25 C 11.355469 26.605469 10.769531 26.605469 10.25 27.25 C 9.941406 27.195312 9.691406 27.027344 9.5 26.75 C 9.417969 27.332031 9.332031 27.917969 9.25 28.5 C 9.296875 30.820312 9.796875 32.902344 10.75 34.75 C 10.417969 35.25 10.082031 35.75 9.75 36.25 C 8.433594 32.582031 8.015625 28.75 8.5 24.75 C 10.054688 24.214844 11.640625 24.214844 13.25 24.75 C 12.125 21.675781 12.957031 19.34375 15.75 17.75 C 16.972656 18.640625 18.308594 19.308594 19.75 19.75 C 19.667969 18.074219 19.75 16.410156 20 14.75 C 20.519531 14.144531 21.101562 13.644531 21.75 13.25 Z M 21.75 13.25 "/>
<path style=" stroke:none;fill-rule:evenodd;fill:rgb(0.784314%,0%,5.098039%);fill-opacity:1;" d="M 68.75 22.25 C 74.324219 23.492188 77.15625 26.992188 77.25 32.75 C 75.910156 38.589844 72.246094 41.421875 66.25 41.25 C 63.617188 40.265625 61.117188 39.097656 58.75 37.75 C 59.769531 32.9375 57.769531 31.105469 52.75 32.25 C 54.136719 31.671875 55.636719 31.339844 57.25 31.25 C 57.597656 26.984375 59.765625 24.066406 63.75 22.5 C 65.410156 22.25 67.074219 22.167969 68.75 22.25 Z M 68.75 22.25 "/>
<path style=" stroke:none;fill-rule:evenodd;fill:rgb(90.980392%,50.588235%,20.784314%);fill-opacity:1;" d="M 27.25 19.25 C 26.929688 20.230469 26.59375 21.394531 26.25 22.75 C 25.507812 24.066406 25.007812 25.480469 24.75 27 C 25.535156 28.703125 26.199219 30.453125 26.75 32.25 C 26.414062 34.589844 26.082031 36.921875 25.75 39.25 C 23.667969 38.46875 21.503906 38.136719 19.25 38.25 C 19.199219 39.554688 19.535156 40.722656 20.25 41.75 C 19.429688 41.738281 18.761719 42.074219 18.25 42.75 C 17.910156 42.570312 17.574219 42.402344 17.25 42.25 C 14.472656 40.554688 14.136719 38.46875 16.25 36 C 17.382812 35.679688 18.464844 35.261719 19.5 34.75 C 19.75 32.757812 19.832031 30.757812 19.75 28.75 C 21.820312 27.414062 22.320312 25.582031 21.25 23.25 C 22.902344 21.421875 24.902344 20.089844 27.25 19.25 Z M 27.25 19.25 "/>
<path style=" stroke:none;fill-rule:evenodd;fill:rgb(17.647059%,18.823529%,21.960784%);fill-opacity:1;" d="M 69.75 21.25 C 77.335938 22.730469 79.921875 27.0625 77.5 34.25 C 77.257812 33.777344 77.175781 33.277344 77.25 32.75 C 77.15625 26.992188 74.324219 23.492188 68.75 22.25 C 68.367188 21.867188 67.867188 21.617188 67.25 21.5 C 68.066406 21.253906 68.902344 21.167969 69.75 21.25 Z M 69.75 21.25 "/>
<path style=" stroke:none;fill-rule:evenodd;fill:rgb(6.666667%,6.27451%,7.45098%);fill-opacity:1;" d="M 22.75 8.75 C 20.140625 11.777344 17.308594 14.527344 14.25 17 C 14.621094 17.519531 15.121094 17.769531 15.75 17.75 C 12.957031 19.34375 12.125 21.675781 13.25 24.75 C 11.640625 24.214844 10.054688 24.214844 8.5 24.75 C 8.015625 28.75 8.433594 32.582031 9.75 36.25 C 9.75 36.582031 9.75 36.917969 9.75 37.25 C 9.769531 40.171875 8.269531 41.671875 5.25 41.75 C 4.75 41.75 4.25 41.75 3.75 41.75 C 4.632812 44.667969 5.632812 47.503906 6.75 50.25 C 6.75 50.417969 6.75 50.582031 6.75 50.75 C 5.753906 53.402344 4.753906 56.070312 3.75 58.75 C 4.929688 59.355469 6.097656 59.355469 7.25 58.75 C 7.945312 59.785156 8.863281 60.617188 10 61.25 C 10.242188 61.722656 10.324219 62.222656 10.25 62.75 C 9.113281 65.636719 8.445312 68.636719 8.25 71.75 C 7.980469 73.480469 7.398438 75.144531 6.5 76.75 C 6.167969 73.917969 6.167969 71.082031 6.5 68.25 C 6.957031 67.167969 7.539062 66.167969 8.25 65.25 C 7.96875 64.855469 7.550781 64.855469 7 65.25 C 6.484375 65.082031 6.234375 64.75 6.25 64.25 C 6.417969 64.25 6.582031 64.25 6.75 64.25 C 6.90625 64.867188 7.15625 64.867188 7.5 64.25 C 7.925781 61.871094 7.007812 61.207031 4.75 62.25 C 4.8125 62.554688 4.976562 62.71875 5.25 62.75 C 5.554688 63.195312 5.722656 63.695312 5.75 64.25 C 5.425781 64.402344 5.089844 64.570312 4.75 64.75 C 4.074219 63.578125 3.238281 62.578125 2.25 61.75 C 1.078125 61.511719 0.410156 60.761719 0.25 59.5 C 1.59375 57.050781 2.59375 54.46875 3.25 51.75 C 2.757812 48.28125 1.59375 45.113281 -0.25 42.25 C -0.25 41.917969 -0.25 41.582031 -0.25 41.25 C 1.25 39.277344 2.75 37.277344 4.25 35.25 C 5.179688 34.703125 6.011719 34.035156 6.75 33.25 C 5.296875 29.464844 5.464844 25.796875 7.25 22.25 C 8.019531 21.472656 8.933594 20.808594 10 20.25 C 10.226562 19.242188 10.640625 18.324219 11.25 17.5 C 13.101562 16.074219 15.101562 14.90625 17.25 14 C 18.386719 11.445312 20.21875 9.695312 22.75 8.75 Z M 6.75 63.75 C 6.269531 63.320312 6.269531 62.984375 6.75 62.75 C 7.386719 63.128906 7.386719 63.460938 6.75 63.75 Z M 6.75 63.75 "/>
<path style=" stroke:none;fill-rule:evenodd;fill:rgb(3.921569%,1.960784%,3.137255%);fill-opacity:1;" d="M 74.75 9.75 C 75.246094 9.707031 75.664062 9.875 76 10.25 C 77.226562 12.265625 78.058594 14.433594 78.5 16.75 C 79.695312 17.195312 80.445312 18.027344 80.75 19.25 C 83.019531 21.453125 84.519531 24.121094 85.25 27.25 C 87.582031 26.832031 89.917969 26.832031 92.25 27.25 C 91.777344 27.988281 91.109375 28.488281 90.25 28.75 C 88.535156 28.773438 87.035156 29.355469 85.75 30.5 C 85.308594 31.179688 85.144531 31.929688 85.25 32.75 C 84.082031 32.75 82.917969 32.75 81.75 32.75 C 82.230469 30.601562 82.316406 28.433594 82 26.25 C 80.589844 21.414062 77.339844 19.082031 72.25 19.25 C 65.917969 18.582031 59.582031 18.582031 53.25 19.25 C 51.570312 19.308594 49.902344 19.472656 48.25 19.75 C 47.917969 19.75 47.75 19.917969 47.75 20.25 C 46.144531 20.453125 44.644531 20.953125 43.25 21.75 C 38.332031 22.839844 34.75 25.675781 32.5 30.25 C 29.210938 36.625 27.628906 43.460938 27.75 50.75 C 28.039062 54.761719 28.453125 58.761719 29 62.75 C 29.140625 63.207031 29.390625 63.539062 29.75 63.75 C 30.625 68.5 32.789062 72.5 36.25 75.75 C 37.613281 77.355469 39.28125 78.605469 41.25 79.5 C 44.667969 80.765625 48.167969 81.683594 51.75 82.25 C 50.683594 82.65625 49.519531 82.90625 48.25 83 C 49.964844 83.53125 51.628906 84.113281 53.25 84.75 C 43.667969 84.667969 36.085938 80.835938 30.5 73.25 C 25.460938 62.550781 24.042969 51.382812 26.25 39.75 C 27.542969 32.585938 30.875 26.5 36.25 21.5 C 42.375 17.800781 49.039062 15.96875 56.25 16 C 56.691406 15.320312 56.855469 14.570312 56.75 13.75 C 57.132812 13.367188 57.382812 12.867188 57.5 12.25 C 57.949219 13.535156 58.53125 14.703125 59.25 15.75 C 59.417969 15.75 59.582031 15.75 59.75 15.75 C 64.082031 15.75 68.417969 15.75 72.75 15.75 C 73.355469 16.117188 74.019531 16.285156 74.75 16.25 C 74.742188 15.21875 74.574219 14.21875 74.25 13.25 C 74.183594 12.878906 74.269531 12.546875 74.5 12.25 C 74.710938 12.976562 75.128906 13.226562 75.75 13 C 75.164062 11.996094 74.832031 10.914062 74.75 9.75 Z M 74.75 9.75 "/>
<path style=" stroke:none;fill-rule:evenodd;fill:rgb(16.862745%,17.647059%,22.352941%);fill-opacity:1;" d="M 47.75 20.25 C 48.132812 21.285156 48.796875 22.117188 49.75 22.75 C 48.417969 23.917969 46.917969 24.832031 45.25 25.5 C 44.226562 25.746094 43.226562 25.660156 42.25 25.25 C 42.234375 23.960938 42.566406 22.796875 43.25 21.75 C 44.644531 20.953125 46.144531 20.453125 47.75 20.25 Z M 47.75 20.25 "/>
<path style=" stroke:none;fill-rule:evenodd;fill:rgb(16.862745%,17.254902%,20.784314%);fill-opacity:1;" d="M 53.25 19.25 C 54.460938 19.097656 55.628906 19.261719 56.75 19.75 C 56.667969 19.917969 56.582031 20.082031 56.5 20.25 C 54.8125 21.21875 52.976562 21.882812 51 22.25 C 49.84375 21.675781 48.925781 20.839844 48.25 19.75 C 49.902344 19.472656 51.570312 19.308594 53.25 19.25 Z M 53.25 19.25 "/>
<use xlink:href="#surface14" mask="url(#mask3)"/>
<path style=" stroke:none;fill-rule:evenodd;fill:rgb(7.058824%,5.882353%,11.372549%);fill-opacity:1;" d="M 53.25 19.25 C 59.582031 18.582031 65.917969 18.582031 72.25 19.25 C 70.347656 19.082031 68.511719 19.332031 66.75 20 C 67.988281 20.019531 68.988281 20.433594 69.75 21.25 C 68.902344 21.167969 68.066406 21.253906 67.25 21.5 C 67.867188 21.617188 68.367188 21.867188 68.75 22.25 C 67.074219 22.167969 65.410156 22.25 63.75 22.5 C 59.765625 24.066406 57.597656 26.984375 57.25 31.25 C 55.636719 31.339844 54.136719 31.671875 52.75 32.25 C 52.578125 32.667969 52.246094 32.835938 51.75 32.75 C 50.496094 32.917969 49.328125 32.917969 48.25 32.75 C 47.859375 33.363281 47.609375 34.03125 47.5 34.75 C 47.171875 33.234375 47.421875 31.816406 48.25 30.5 C 47.90625 29.964844 47.65625 29.382812 47.5 28.75 C 47.332031 28.917969 47.167969 29.082031 47 29.25 C 46.582031 28.75 46.167969 28.25 45.75 27.75 C 45.136719 28.179688 44.46875 28.179688 43.75 27.75 C 42.5625 26.621094 41.226562 26.453125 39.75 27.25 C 39.542969 26.890625 39.207031 26.640625 38.75 26.5 C 39.207031 26.3125 39.625 26.0625 40 25.75 C 40.695312 26.277344 41.445312 26.359375 42.25 26 C 41.628906 25.65625 41.628906 25.40625 42.25 25.25 C 43.226562 25.660156 44.226562 25.746094 45.25 25.5 C 46.917969 24.832031 48.417969 23.917969 49.75 22.75 C 48.796875 22.117188 48.132812 21.285156 47.75 20.25 C 47.75 19.917969 47.917969 19.75 48.25 19.75 C 48.925781 20.839844 49.84375 21.675781 51 22.25 C 52.976562 21.882812 54.8125 21.21875 56.5 20.25 C 56.582031 20.082031 56.667969 19.917969 56.75 19.75 C 55.628906 19.261719 54.460938 19.097656 53.25 19.25 Z M 53.25 19.25 "/>
<path style=" stroke:none;fill-rule:evenodd;fill:rgb(98.039216%,71.764706%,10.196078%);fill-opacity:1;" d="M 43.75 27.75 C 44.75 28.835938 45.667969 30.003906 46.5 31.25 C 46.75 34.246094 46.832031 37.246094 46.75 40.25 C 45.640625 40.410156 44.722656 40.078125 44 39.25 C 42.625 36.996094 41.125 34.828125 39.5 32.75 C 38.898438 31.660156 38.648438 30.496094 38.75 29.25 C 38.867188 28.46875 39.199219 27.800781 39.75 27.25 C 41.226562 26.453125 42.5625 26.621094 43.75 27.75 Z M 43.75 27.75 "/>
<path style=" stroke:none;fill-rule:evenodd;fill:rgb(99.607843%,91.372549%,77.254902%);fill-opacity:1;" d="M 10.25 27.25 C 11.332031 29.730469 11.5 32.230469 10.75 34.75 C 9.796875 32.902344 9.296875 30.820312 9.25 28.5 C 9.332031 27.917969 9.417969 27.332031 9.5 26.75 C 9.691406 27.027344 9.941406 27.195312 10.25 27.25 Z M 10.25 27.25 "/>
<path style=" stroke:none;fill-rule:evenodd;fill:rgb(68.627451%,16.470588%,24.705882%);fill-opacity:1;" d="M 90.25 28.75 C 92.003906 28.902344 92.839844 29.902344 92.75 31.75 C 90.328125 32.519531 87.828125 32.851562 85.25 32.75 C 85.144531 31.929688 85.308594 31.179688 85.75 30.5 C 87.035156 29.355469 88.535156 28.773438 90.25 28.75 Z M 90.25 28.75 "/>
<use xlink:href="#surface17" mask="url(#mask4)"/>
<path style=" stroke:none;fill-rule:evenodd;fill:rgb(56.862745%,52.941176%,52.156863%);fill-opacity:1;" d="M 52.75 32.25 C 57.769531 31.105469 59.769531 32.9375 58.75 37.75 C 56.730469 38.761719 54.566406 39.011719 52.25 38.5 C 50.492188 36.703125 50.328125 34.785156 51.75 32.75 C 52.246094 32.835938 52.578125 32.667969 52.75 32.25 Z M 52.75 32.25 "/>
<path style=" stroke:none;fill-rule:evenodd;fill:rgb(98.823529%,71.764706%,42.352941%);fill-opacity:1;" d="M 19.75 28.75 C 19.832031 30.757812 19.75 32.757812 19.5 34.75 C 18.464844 35.261719 17.382812 35.679688 16.25 36 C 14.136719 38.46875 14.472656 40.554688 17.25 42.25 C 16.289062 43.347656 15.453125 44.515625 14.75 45.75 C 14.78125 45.53125 14.699219 45.363281 14.5 45.25 C 14.332031 45.582031 14.167969 45.917969 14 46.25 C 13.546875 45.648438 12.964844 45.234375 12.25 45 C 11.886719 44.300781 11.636719 43.550781 11.5 42.75 C 10.816406 43.128906 10.234375 42.878906 9.75 42 C 10.410156 40.367188 10.410156 38.78125 9.75 37.25 C 9.75 36.917969 9.75 36.582031 9.75 36.25 C 10.082031 35.75 10.417969 35.25 10.75 34.75 C 11.5 32.230469 11.332031 29.730469 10.25 27.25 C 10.769531 26.605469 11.355469 26.605469 12 27.25 C 12.84375 26.835938 12.925781 26.335938 12.25 25.75 C 14.097656 24.140625 14.597656 24.472656 13.75 26.75 C 15.550781 27.660156 15.550781 28.160156 13.75 28.25 C 13.75 28.75 13.75 29.25 13.75 29.75 C 15.132812 29.898438 16.382812 30.398438 17.5 31.25 C 17.667969 31.082031 17.832031 30.917969 18 30.75 C 17.960938 31.367188 18.042969 31.867188 18.25 32.25 C 18.832031 31.0625 19.332031 29.894531 19.75 28.75 Z M 19.75 28.75 "/>
<path style=" stroke:none;fill-rule:evenodd;fill:rgb(96.862745%,76.078431%,7.45098%);fill-opacity:1;" d="M 36.75 33.75 C 38.570312 35.152344 40.152344 36.820312 41.5 38.75 C 42.125 40.007812 42.375 41.339844 42.25 42.75 C 41.867188 42.960938 41.449219 43.128906 41 43.25 C 39.355469 42.679688 37.773438 42.011719 36.25 41.25 C 34.226562 40.308594 33.058594 38.722656 32.75 36.5 C 32.917969 34.035156 34.25 33.117188 36.75 33.75 Z M 36.75 33.75 "/>
<use xlink:href="#surface20" mask="url(#mask5)"/>
<path style=" stroke:none;fill-rule:evenodd;fill:rgb(92.156863%,28.235294%,27.058824%);fill-opacity:1;" d="M 95.25 35.25 C 95.328125 36.097656 95.246094 36.933594 95 37.75 C 91.460938 36.015625 88.460938 36.683594 86 39.75 C 85.753906 39.101562 85.671875 38.4375 85.75 37.75 C 87.203125 33.835938 90.035156 32.417969 94.25 33.5 C 94.910156 33.90625 95.246094 34.492188 95.25 35.25 Z M 95.25 35.25 "/>
<path style=" stroke:none;fill-rule:evenodd;fill:rgb(12.54902%,10.588235%,10.588235%);fill-opacity:1;" d="M 53.75 33.75 C 56.65625 33.53125 57.488281 34.78125 56.25 37.5 C 53.390625 37.699219 52.558594 36.449219 53.75 33.75 Z M 53.75 33.75 "/>
<path style=" stroke:none;fill-rule:evenodd;fill:rgb(59.215686%,40%,35.686275%);fill-opacity:1;" d="M 83.25 36.25 C 84.871094 36.234375 85.039062 36.898438 83.75 38.25 C 82.21875 37.628906 82.050781 36.964844 83.25 36.25 Z M 83.25 36.25 "/>
<path style=" stroke:none;fill-rule:evenodd;fill:rgb(74.509804%,54.509804%,40.392157%);fill-opacity:1;" d="M 6.25 36.25 C 7.757812 36.679688 8.089844 37.59375 7.25 39 C 6.371094 39.398438 5.539062 39.316406 4.75 38.75 C 5.382812 37.984375 5.882812 37.152344 6.25 36.25 Z M 6.25 36.25 "/>
<path style=" stroke:none;fill-rule:evenodd;fill:rgb(15.294118%,14.901961%,18.823529%);fill-opacity:1;" d="M 43.75 27.75 C 44.46875 28.179688 45.136719 28.179688 45.75 27.75 C 46.167969 28.25 46.582031 28.75 47 29.25 C 47.167969 29.082031 47.332031 28.917969 47.5 28.75 C 47.65625 29.382812 47.90625 29.964844 48.25 30.5 C 47.421875 31.816406 47.171875 33.234375 47.5 34.75 C 47.609375 34.03125 47.859375 33.363281 48.25 32.75 C 49.328125 32.917969 50.496094 32.917969 51.75 32.75 C 50.328125 34.785156 50.492188 36.703125 52.25 38.5 C 54.566406 39.011719 56.730469 38.761719 58.75 37.75 C 61.117188 39.097656 63.617188 40.265625 66.25 41.25 C 67.660156 42.035156 69.160156 42.703125 70.75 43.25 C 67.507812 43.664062 64.171875 43.914062 60.75 44 C 60.375 44.335938 60.207031 44.753906 60.25 45.25 C 60.046875 46.695312 59.464844 48.195312 58.5 49.75 C 58.332031 48.75 58.167969 47.75 58 46.75 C 57.90625 48.019531 57.65625 49.183594 57.25 50.25 C 57.390625 45.945312 55.390625 43.195312 51.25 42 C 49.539062 41.625 47.871094 41.710938 46.25 42.25 C 45.6875 40.9375 44.6875 40.519531 43.25 41 C 43.417969 41.167969 43.582031 41.332031 43.75 41.5 C 43.15625 41.847656 42.65625 42.265625 42.25 42.75 C 42.375 41.339844 42.125 40.007812 41.5 38.75 C 40.152344 36.820312 38.570312 35.152344 36.75 33.75 C 37.710938 32.367188 38.375 30.867188 38.75 29.25 C 38.648438 30.496094 38.898438 31.660156 39.5 32.75 C 41.125 34.828125 42.625 36.996094 44 39.25 C 44.722656 40.078125 45.640625 40.410156 46.75 40.25 C 46.832031 37.246094 46.75 34.246094 46.5 31.25 C 45.667969 30.003906 44.75 28.835938 43.75 27.75 Z M 43.75 27.75 "/>
<path style=" stroke:none;fill-rule:evenodd;fill:rgb(94.509804%,50.588235%,45.098039%);fill-opacity:1;" d="M 95.25 35.25 C 96.207031 37.097656 96.457031 39.097656 96 41.25 C 95.808594 41.527344 95.558594 41.695312 95.25 41.75 C 94.75 41.75 94.25 41.75 93.75 41.75 C 93.925781 40.683594 93.511719 40.015625 92.5 39.75 C 91.589844 40.300781 90.839844 41.050781 90.25 42 C 88.589844 42.464844 87.089844 42.214844 85.75 41.25 C 85.1875 40.011719 85.1875 38.84375 85.75 37.75 C 85.671875 38.4375 85.753906 39.101562 86 39.75 C 88.460938 36.683594 91.460938 36.015625 95 37.75 C 95.246094 36.933594 95.328125 36.097656 95.25 35.25 Z M 95.25 35.25 "/>
<path style=" stroke:none;fill-rule:evenodd;fill:rgb(7.843137%,7.058824%,13.333333%);fill-opacity:1;" d="M 43.25 21.75 C 42.566406 22.796875 42.234375 23.960938 42.25 25.25 C 41.628906 25.40625 41.628906 25.65625 42.25 26 C 41.445312 26.359375 40.695312 26.277344 40 25.75 C 39.625 26.0625 39.207031 26.3125 38.75 26.5 C 39.207031 26.640625 39.542969 26.890625 39.75 27.25 C 39.199219 27.800781 38.867188 28.46875 38.75 29.25 C 38.375 30.867188 37.710938 32.367188 36.75 33.75 C 34.25 33.117188 32.917969 34.035156 32.75 36.5 C 33.058594 38.722656 34.226562 40.308594 36.25 41.25 C 35.589844 41.335938 35.003906 41.167969 34.5 40.75 C 31.574219 43.433594 30.160156 46.765625 30.25 50.75 C 29.417969 50.75 28.582031 50.75 27.75 50.75 C 27.628906 43.460938 29.210938 36.625 32.5 30.25 C 34.75 25.675781 38.332031 22.839844 43.25 21.75 Z M 43.25 21.75 "/>
<path style=" stroke:none;fill-rule:evenodd;fill:rgb(98.431373%,81.176471%,9.411765%);fill-opacity:1;" d="M 57.25 50.25 C 56.957031 52.675781 55.789062 54.507812 53.75 55.75 C 53.207031 55.730469 52.707031 55.5625 52.25 55.25 C 51.652344 55.421875 51.652344 55.671875 52.25 56 C 50.566406 56.941406 48.898438 56.941406 47.25 56 C 47.582031 55.332031 47.917969 54.667969 48.25 54 C 49.355469 53.90625 50.355469 53.65625 51.25 53.25 C 53.988281 52.203125 54.65625 50.453125 53.25 48 C 52.75 47.667969 52.25 47.667969 51.75 48 C 51.371094 48.71875 51.035156 49.46875 50.75 50.25 C 49.683594 50.585938 48.683594 50.917969 47.75 51.25 C 47.097656 51.941406 47.097656 52.691406 47.75 53.5 C 46.671875 54.757812 45.503906 54.925781 44.25 54 C 46.226562 53.441406 46.226562 53.027344 44.25 52.75 C 44.3125 50.558594 44.148438 48.394531 43.75 46.25 C 43.832031 44.410156 44.667969 43.078125 46.25 42.25 C 47.871094 41.710938 49.539062 41.625 51.25 42 C 55.390625 43.195312 57.390625 45.945312 57.25 50.25 Z M 57.25 50.25 "/>
<path style=" stroke:none;fill-rule:evenodd;fill:rgb(98.039216%,71.764706%,42.745098%);fill-opacity:1;" d="M 9.75 37.25 C 10.410156 38.78125 10.410156 40.367188 9.75 42 C 10.234375 42.878906 10.816406 43.128906 11.5 42.75 C 11.636719 43.550781 11.886719 44.300781 12.25 45 C 12.964844 45.234375 13.546875 45.648438 14 46.25 C 14.167969 45.917969 14.332031 45.582031 14.5 45.25 C 14.699219 45.363281 14.78125 45.53125 14.75 45.75 C 14.546875 47.84375 15.296875 49.511719 17 50.75 C 17.742188 52.351562 17.910156 54.019531 17.5 55.75 C 16.742188 56.839844 15.992188 57.921875 15.25 59 C 16.425781 60.675781 17.761719 62.175781 19.25 63.5 C 18.402344 64.609375 17.902344 65.859375 17.75 67.25 C 16.496094 66.945312 15.246094 66.609375 14 66.25 C 13.011719 67.960938 12.34375 69.628906 12 71.25 C 11.914062 67.738281 11.664062 64.238281 11.25 60.75 C 10.058594 59.65625 8.722656 58.820312 7.25 58.25 C 7.804688 55.960938 7.886719 53.625 7.5 51.25 C 7.308594 50.972656 7.058594 50.804688 6.75 50.75 C 6.75 50.582031 6.75 50.417969 6.75 50.25 C 7.484375 49.441406 7.820312 48.441406 7.75 47.25 C 7.050781 45.351562 6.21875 43.519531 5.25 41.75 C 8.269531 41.671875 9.769531 40.171875 9.75 37.25 Z M 9.75 37.25 "/>
<path style=" stroke:none;fill-rule:evenodd;fill:rgb(96.862745%,89.019608%,79.607843%);fill-opacity:1;" d="M 5.25 41.75 C 6.21875 43.519531 7.050781 45.351562 7.75 47.25 C 7.820312 48.441406 7.484375 49.441406 6.75 50.25 C 5.632812 47.503906 4.632812 44.667969 3.75 41.75 C 4.25 41.75 4.75 41.75 5.25 41.75 Z M 5.25 41.75 "/>
<path style=" stroke:none;fill-rule:evenodd;fill:rgb(85.490196%,35.294118%,32.941176%);fill-opacity:1;" d="M 83.75 41.25 C 84.53125 41.367188 85.199219 41.699219 85.75 42.25 C 86.605469 43.257812 87.605469 44.089844 88.75 44.75 C 87.511719 46.113281 87.511719 47.445312 88.75 48.75 C 88.574219 49.925781 87.910156 50.589844 86.75 50.75 C 86.027344 49.386719 85.527344 47.886719 85.25 46.25 C 84.59375 46.65625 84.007812 47.15625 83.5 47.75 C 83.191406 47.277344 83.273438 46.859375 83.75 46.5 C 83.277344 46.257812 82.777344 46.175781 82.25 46.25 C 82.382812 47.050781 82.21875 47.714844 81.75 48.25 C 81.597656 46.496094 80.597656 45.664062 78.75 45.75 C 80.417969 44.25 82.082031 42.75 83.75 41.25 Z M 83.75 41.25 "/>
<path style=" stroke:none;fill-rule:evenodd;fill:rgb(2.745098%,1.960784%,4.313725%);fill-opacity:1;" d="M 78.75 45.75 C 80.597656 45.664062 81.597656 46.496094 81.75 48.25 C 81.09375 49.238281 80.261719 50.074219 79.25 50.75 C 80.351562 51.433594 81.1875 52.351562 81.75 53.5 C 81.460938 54.871094 80.628906 55.621094 79.25 55.75 C 77.035156 55.453125 74.871094 54.953125 72.75 54.25 C 72.195312 54.222656 71.695312 54.054688 71.25 53.75 C 69.429688 52.773438 68.679688 51.273438 69 49.25 C 71.207031 48.382812 73.292969 47.382812 75.25 46.25 C 76.453125 46.277344 77.617188 46.109375 78.75 45.75 Z M 78.75 45.75 "/>
<path style=" stroke:none;fill-rule:evenodd;fill:rgb(99.215686%,45.490196%,38.431373%);fill-opacity:1;" d="M 93.75 43.25 C 93.917969 43.25 94.082031 43.25 94.25 43.25 C 94.25 44.582031 94.25 45.917969 94.25 47.25 C 93.039062 47.402344 91.871094 47.238281 90.75 46.75 C 91.34375 46.285156 92.011719 46.117188 92.75 46.25 C 92.625 45.070312 92.960938 44.070312 93.75 43.25 Z M 93.75 43.25 "/>
<path style=" stroke:none;fill-rule:evenodd;fill:rgb(93.333333%,55.294118%,48.235294%);fill-opacity:1;" d="M 93.75 43.25 C 92.960938 44.070312 92.625 45.070312 92.75 46.25 C 92.011719 46.117188 91.34375 46.285156 90.75 46.75 C 91.871094 47.238281 93.039062 47.402344 94.25 47.25 C 94.417969 47.582031 94.582031 47.917969 94.75 48.25 C 93.277344 48.386719 91.859375 48.222656 90.5 47.75 C 90.167969 46.25 90.167969 44.75 90.5 43.25 C 91.582031 42.617188 92.664062 42.617188 93.75 43.25 Z M 93.75 43.25 "/>
<path style=" stroke:none;fill-rule:evenodd;fill:rgb(17.254902%,20.784314%,25.098039%);fill-opacity:1;" d="M 36.25 41.25 C 37.773438 42.011719 39.355469 42.679688 41 43.25 C 41.449219 43.128906 41.867188 42.960938 42.25 42.75 C 42.65625 42.265625 43.15625 41.847656 43.75 41.5 C 43.582031 41.332031 43.417969 41.167969 43.25 41 C 44.6875 40.519531 45.6875 40.9375 46.25 42.25 C 44.667969 43.078125 43.832031 44.410156 43.75 46.25 C 41.21875 51.582031 42.71875 55.246094 48.25 57.25 C 50.691406 58.113281 53.191406 58.199219 55.75 57.5 C 57.917969 57.167969 60.082031 57.167969 62.25 57.5 C 60.40625 57.710938 60.320312 58.128906 62 58.75 C 61.976562 59.65625 62.058594 60.488281 62.25 61.25 C 61.683594 61.800781 61.265625 61.636719 61 60.75 C 60.582031 62.546875 59.832031 63.796875 58.75 64.5 C 58.988281 65.152344 59.324219 65.734375 59.75 66.25 C 58.828125 67.085938 57.828125 67.835938 56.75 68.5 C 56.089844 68.90625 55.753906 69.492188 55.75 70.25 C 53.378906 72.484375 53.542969 74.734375 56.25 77 C 57.691406 77.804688 59.191406 78.46875 60.75 79 C 60.472656 79.191406 60.304688 79.441406 60.25 79.75 C 55.359375 78.984375 50.527344 77.984375 45.75 76.75 C 43.433594 75.089844 41.101562 73.421875 38.75 71.75 C 35.117188 67.15625 32.535156 61.988281 31 56.25 C 30.257812 56.578125 29.671875 57.078125 29.25 57.75 C 29.714844 59.714844 29.882812 61.714844 29.75 63.75 C 29.390625 63.539062 29.140625 63.207031 29 62.75 C 28.453125 58.761719 28.039062 54.761719 27.75 50.75 C 28.582031 50.75 29.417969 50.75 30.25 50.75 C 30.160156 46.765625 31.574219 43.433594 34.5 40.75 C 35.003906 41.167969 35.589844 41.335938 36.25 41.25 Z M 36.25 41.25 "/>
<path style=" stroke:none;fill-rule:evenodd;fill:rgb(61.568627%,9.803922%,16.078431%);fill-opacity:1;" d="M 94.25 43.25 C 94.917969 43.25 95.582031 43.25 96.25 43.25 C 96.675781 47.410156 96.757812 51.578125 96.5 55.75 C 96.5 57.027344 96.082031 58.027344 95.25 58.75 C 95.089844 57.976562 94.589844 57.640625 93.75 57.75 C 93.835938 56.691406 93.671875 55.691406 93.25 54.75 C 93.800781 54.199219 94.132812 53.53125 94.25 52.75 C 94.25 51.75 94.25 50.75 94.25 49.75 C 93.25 49.75 92.25 49.75 91.25 49.75 C 92.578125 49.542969 93.746094 49.042969 94.75 48.25 C 94.582031 47.917969 94.417969 47.582031 94.25 47.25 C 94.25 45.917969 94.25 44.582031 94.25 43.25 Z M 94.25 43.25 "/>
<path style=" stroke:none;fill-rule:evenodd;fill:rgb(95.686275%,94.509804%,92.54902%);fill-opacity:1;" d="M 70.75 43.25 C 72.125 43.09375 73.457031 43.261719 74.75 43.75 C 75.15625 44.535156 75.320312 45.367188 75.25 46.25 C 73.292969 47.382812 71.207031 48.382812 69 49.25 C 68.679688 51.273438 69.429688 52.773438 71.25 53.75 C 71.195312 54.058594 71.027344 54.308594 70.75 54.5 C 69.101562 54.601562 67.601562 55.019531 66.25 55.75 C 64.25 55.75 62.25 55.75 60.25 55.75 C 60.011719 54.15625 60.34375 52.742188 61.25 51.5 C 63.179688 51.128906 65.015625 50.542969 66.75 49.75 C 65.082031 49.378906 63.414062 49.046875 61.75 48.75 C 61.066406 47.617188 60.566406 46.453125 60.25 45.25 C 60.207031 44.753906 60.375 44.335938 60.75 44 C 64.171875 43.914062 67.507812 43.664062 70.75 43.25 Z M 70.75 43.25 "/>
<path style=" stroke:none;fill-rule:evenodd;fill:rgb(21.176471%,23.137255%,14.117647%);fill-opacity:1;" d="M 51.25 53.25 C 50.238281 53.332031 49.238281 53.246094 48.25 53 C 47.832031 52.496094 47.664062 51.910156 47.75 51.25 C 48.683594 50.917969 49.683594 50.585938 50.75 50.25 C 51.035156 49.46875 51.371094 48.71875 51.75 48 C 52.25 47.667969 52.75 47.667969 53.25 48 C 54.65625 50.453125 53.988281 52.203125 51.25 53.25 Z M 51.25 53.25 "/>
<path style=" stroke:none;fill-rule:evenodd;fill:rgb(91.764706%,61.176471%,49.411765%);fill-opacity:1;" d="M 91.25 49.75 C 92.25 49.75 93.25 49.75 94.25 49.75 C 94.25 50.75 94.25 51.75 94.25 52.75 C 92.90625 52.832031 91.574219 52.75 90.25 52.5 C 89.546875 51.195312 89.878906 50.277344 91.25 49.75 Z M 91.25 49.75 "/>
<path style=" stroke:none;fill-rule:evenodd;fill:rgb(96.862745%,42.352941%,40.784314%);fill-opacity:1;" d="M 86.25 50.75 C 87.089844 51.597656 87.753906 52.597656 88.25 53.75 C 87.296875 55.40625 86.464844 57.070312 85.75 58.75 C 85.390625 58.539062 85.140625 58.207031 85 57.75 C 84.847656 58.152344 84.597656 58.488281 84.25 58.75 C 83.011719 56.632812 82.929688 54.46875 84 52.25 C 84.566406 51.429688 85.316406 50.929688 86.25 50.75 Z M 86.25 50.75 "/>
<path style=" stroke:none;fill-rule:evenodd;fill:rgb(12.941176%,5.882353%,5.098039%);fill-opacity:1;" d="M 95.25 41.75 C 94.722656 42.109375 94.390625 42.609375 94.25 43.25 C 94.082031 43.25 93.917969 43.25 93.75 43.25 C 92.664062 42.617188 91.582031 42.617188 90.5 43.25 C 90.167969 44.75 90.167969 46.25 90.5 47.75 C 91.859375 48.222656 93.277344 48.386719 94.75 48.25 C 93.746094 49.042969 92.578125 49.542969 91.25 49.75 C 89.878906 50.277344 89.546875 51.195312 90.25 52.5 C 91.574219 52.75 92.90625 52.832031 94.25 52.75 C 94.132812 53.53125 93.800781 54.199219 93.25 54.75 C 92.238281 54.667969 91.238281 54.753906 90.25 55 C 89.570312 55.96875 89.738281 56.800781 90.75 57.5 C 91.738281 57.746094 92.738281 57.832031 93.75 57.75 C 94.589844 57.640625 95.089844 57.976562 95.25 58.75 C 94.917969 58.75 94.75 58.917969 94.75 59.25 C 93.679688 58.699219 93.011719 59.117188 92.75 60.5 C 91.222656 60.929688 89.890625 60.59375 88.75 59.5 C 87.097656 58.980469 86.015625 59.5625 85.5 61.25 C 85.253906 62.238281 85.167969 63.238281 85.25 64.25 C 84.96875 62.847656 84.46875 61.515625 83.75 60.25 C 84.703125 60.132812 85.367188 59.632812 85.75 58.75 C 86.464844 57.070312 87.296875 55.40625 88.25 53.75 C 87.753906 52.597656 87.089844 51.597656 86.25 50.75 C 86.417969 50.75 86.582031 50.75 86.75 50.75 C 87.910156 50.589844 88.574219 49.925781 88.75 48.75 C 87.511719 47.445312 87.511719 46.113281 88.75 44.75 C 87.605469 44.089844 86.605469 43.257812 85.75 42.25 C 85.75 41.917969 85.75 41.582031 85.75 41.25 C 87.089844 42.214844 88.589844 42.464844 90.25 42 C 90.839844 41.050781 91.589844 40.300781 92.5 39.75 C 93.511719 40.015625 93.925781 40.683594 93.75 41.75 C 94.25 41.75 94.75 41.75 95.25 41.75 Z M 95.25 41.75 "/>
<path style=" stroke:none;fill-rule:evenodd;fill:rgb(17.647059%,20%,25.098039%);fill-opacity:1;" d="M 72.75 54.25 C 74.871094 54.953125 77.035156 55.453125 79.25 55.75 C 80.847656 57.136719 82.347656 58.636719 83.75 60.25 C 83.144531 60.75 83.226562 61.25 84 61.75 C 84.25 62.90625 84.332031 64.070312 84.25 65.25 C 82.875 65.09375 81.542969 65.261719 80.25 65.75 C 83.234375 70.800781 82.898438 75.550781 79.25 80 C 77.335938 81 75.335938 81.75 73.25 82.25 C 73.039062 81.890625 72.707031 81.640625 72.25 81.5 C 75.894531 80.855469 78.3125 78.773438 79.5 75.25 C 80.644531 72.949219 80.480469 70.78125 79 68.75 C 78.792969 69.378906 78.375 69.710938 77.75 69.75 C 77.890625 68.792969 77.726562 67.960938 77.25 67.25 C 75.4375 62.113281 71.769531 59.445312 66.25 59.25 C 67.480469 58.734375 68.8125 58.402344 70.25 58.25 C 70.25 57.75 70.25 57.25 70.25 56.75 C 71.191406 56.886719 71.855469 56.550781 72.25 55.75 C 72.554688 55.304688 72.722656 54.804688 72.75 54.25 Z M 72.75 54.25 "/>
<path style=" stroke:none;fill-rule:evenodd;fill:rgb(95.294118%,78.431373%,23.529412%);fill-opacity:1;" d="M 43.75 46.25 C 44.148438 48.394531 44.3125 50.558594 44.25 52.75 C 46.226562 53.027344 46.226562 53.441406 44.25 54 C 45.503906 54.925781 46.671875 54.757812 47.75 53.5 C 47.097656 52.691406 47.097656 51.941406 47.75 51.25 C 47.664062 51.910156 47.832031 52.496094 48.25 53 C 49.238281 53.246094 50.238281 53.332031 51.25 53.25 C 50.355469 53.65625 49.355469 53.90625 48.25 54 C 47.917969 54.667969 47.582031 55.332031 47.25 56 C 48.898438 56.941406 50.566406 56.941406 52.25 56 C 51.652344 55.671875 51.652344 55.421875 52.25 55.25 C 52.707031 55.5625 53.207031 55.730469 53.75 55.75 C 52.15625 56.9375 50.324219 57.4375 48.25 57.25 C 42.71875 55.246094 41.21875 51.582031 43.75 46.25 Z M 43.75 46.25 "/>
<path style=" stroke:none;fill-rule:evenodd;fill:rgb(60%,63.921569%,64.313725%);fill-opacity:1;" d="M 71.25 53.75 C 71.695312 54.054688 72.195312 54.222656 72.75 54.25 C 72.722656 54.804688 72.554688 55.304688 72.25 55.75 C 70.25 55.75 68.25 55.75 66.25 55.75 C 67.601562 55.019531 69.101562 54.601562 70.75 54.5 C 71.027344 54.308594 71.195312 54.058594 71.25 53.75 Z M 71.25 53.75 "/>
<path style=" stroke:none;fill-rule:evenodd;fill:rgb(98.039216%,54.901961%,47.843137%);fill-opacity:1;" d="M 86.75 50.75 C 86.582031 50.75 86.417969 50.75 86.25 50.75 C 85.316406 50.929688 84.566406 51.429688 84 52.25 C 82.929688 54.46875 83.011719 56.632812 84.25 58.75 C 84.597656 58.488281 84.847656 58.152344 85 57.75 C 85.140625 58.207031 85.390625 58.539062 85.75 58.75 C 85.367188 59.632812 84.703125 60.132812 83.75 60.25 C 82.347656 58.636719 80.847656 57.136719 79.25 55.75 C 80.628906 55.621094 81.460938 54.871094 81.75 53.5 C 81.1875 52.351562 80.351562 51.433594 79.25 50.75 C 80.261719 50.074219 81.09375 49.238281 81.75 48.25 C 82.21875 47.714844 82.382812 47.050781 82.25 46.25 C 82.777344 46.175781 83.277344 46.257812 83.75 46.5 C 83.273438 46.859375 83.191406 47.277344 83.5 47.75 C 84.007812 47.15625 84.59375 46.65625 85.25 46.25 C 85.527344 47.886719 86.027344 49.386719 86.75 50.75 Z M 86.75 50.75 "/>
<path style=" stroke:none;fill-rule:evenodd;fill:rgb(15.686275%,19.215686%,23.529412%);fill-opacity:1;" d="M 60.25 45.25 C 60.566406 46.453125 61.066406 47.617188 61.75 48.75 C 63.414062 49.046875 65.082031 49.378906 66.75 49.75 C 65.015625 50.542969 63.179688 51.128906 61.25 51.5 C 60.34375 52.742188 60.011719 54.15625 60.25 55.75 C 62.25 55.75 64.25 55.75 66.25 55.75 C 68.25 55.75 70.25 55.75 72.25 55.75 C 71.855469 56.550781 71.191406 56.886719 70.25 56.75 C 70.25 57.25 70.25 57.75 70.25 58.25 C 68.8125 58.402344 67.480469 58.734375 66.25 59.25 C 64.320312 61.753906 62.152344 64.085938 59.75 66.25 C 59.324219 65.734375 58.988281 65.152344 58.75 64.5 C 59.832031 63.796875 60.582031 62.546875 61 60.75 C 61.265625 61.636719 61.683594 61.800781 62.25 61.25 C 62.058594 60.488281 61.976562 59.65625 62 58.75 C 60.320312 58.128906 60.40625 57.710938 62.25 57.5 C 60.082031 57.167969 57.917969 57.167969 55.75 57.5 C 53.191406 58.199219 50.691406 58.113281 48.25 57.25 C 50.324219 57.4375 52.15625 56.9375 53.75 55.75 C 55.789062 54.507812 56.957031 52.675781 57.25 50.25 C 57.65625 49.183594 57.90625 48.019531 58 46.75 C 58.167969 47.75 58.332031 48.75 58.5 49.75 C 59.464844 48.195312 60.046875 46.695312 60.25 45.25 Z M 60.25 45.25 "/>
<path style=" stroke:none;fill-rule:evenodd;fill:rgb(98.039216%,89.803922%,78.823529%);fill-opacity:1;" d="M 6.75 50.75 C 7.058594 50.804688 7.308594 50.972656 7.5 51.25 C 7.886719 53.625 7.804688 55.960938 7.25 58.25 C 7.25 58.417969 7.25 58.582031 7.25 58.75 C 6.097656 59.355469 4.929688 59.355469 3.75 58.75 C 4.753906 56.070312 5.753906 53.402344 6.75 50.75 Z M 6.75 50.75 "/>
<path style=" stroke:none;fill-rule:evenodd;fill:rgb(90.980392%,39.215686%,37.647059%);fill-opacity:1;" d="M 93.25 54.75 C 93.671875 55.691406 93.835938 56.691406 93.75 57.75 C 92.738281 57.832031 91.738281 57.746094 90.75 57.5 C 89.738281 56.800781 89.570312 55.96875 90.25 55 C 91.238281 54.753906 92.238281 54.667969 93.25 54.75 Z M 93.25 54.75 "/>
<path style=" stroke:none;fill-rule:evenodd;fill:rgb(23.529412%,33.72549%,40.392157%);fill-opacity:1;" d="M 38.75 71.75 C 38.25 71.75 37.75 71.75 37.25 71.75 C 37.25 72.417969 37.25 73.082031 37.25 73.75 C 36.410156 74.089844 36.078125 74.757812 36.25 75.75 C 32.789062 72.5 30.625 68.5 29.75 63.75 C 29.882812 61.714844 29.714844 59.714844 29.25 57.75 C 29.671875 57.078125 30.257812 56.578125 31 56.25 C 32.535156 61.988281 35.117188 67.15625 38.75 71.75 Z M 38.75 71.75 "/>
<path style=" stroke:none;fill-rule:evenodd;fill:rgb(0.784314%,0%,5.098039%);fill-opacity:1;" d="M 66.25 59.25 C 71.769531 59.445312 75.4375 62.113281 77.25 67.25 C 76.050781 76.515625 70.886719 80.101562 61.75 78 C 58.863281 76.199219 57.363281 73.617188 57.25 70.25 C 56.75 70.25 56.25 70.25 55.75 70.25 C 55.753906 69.492188 56.089844 68.90625 56.75 68.5 C 57.828125 67.835938 58.828125 67.085938 59.75 66.25 C 62.152344 64.085938 64.320312 61.753906 66.25 59.25 Z M 66.25 59.25 "/>
<path style=" stroke:none;fill-rule:evenodd;fill:rgb(65.882353%,36.470588%,18.039216%);fill-opacity:1;" d="M 26.25 39.75 C 24.042969 51.382812 25.460938 62.550781 30.5 73.25 C 36.085938 80.835938 43.667969 84.667969 53.25 84.75 C 54.25 84.75 55.25 84.75 56.25 84.75 C 56.4375 86.835938 56.9375 88.835938 57.75 90.75 C 57.425781 90.597656 57.089844 90.429688 56.75 90.25 C 56.480469 89.015625 55.980469 87.933594 55.25 87 C 55.667969 86.496094 55.835938 85.910156 55.75 85.25 C 53.25 85.25 50.75 85.25 48.25 85.25 C 44.695312 84.402344 41.195312 83.320312 37.75 82 C 36.8125 80.929688 35.8125 79.929688 34.75 79 C 33.933594 78.730469 33.265625 78.980469 32.75 79.75 C 31.855469 79.0625 30.855469 78.5625 29.75 78.25 C 29.375 77.8125 29.125 77.3125 29 76.75 C 28.636719 77.578125 28.054688 77.828125 27.25 77.5 C 25.59375 75.992188 24.84375 74.074219 25 71.75 C 24.8125 71.027344 24.394531 70.527344 23.75 70.25 C 23.667969 68.574219 23.75 66.910156 24 65.25 C 25.132812 64.542969 25.714844 63.542969 25.75 62.25 C 23.632812 62.066406 22.046875 61.066406 21 59.25 C 21.578125 54.441406 22.160156 49.609375 22.75 44.75 C 22.457031 41.984375 23.625 40.316406 26.25 39.75 Z M 26.25 39.75 "/>
<path style=" stroke:none;fill-rule:evenodd;fill:rgb(87.843137%,49.411765%,22.352941%);fill-opacity:1;" d="M 20.25 41.75 C 21.320312 42.566406 22.15625 43.566406 22.75 44.75 C 22.160156 49.609375 21.578125 54.441406 21 59.25 C 22.046875 61.066406 23.632812 62.066406 25.75 62.25 C 25.714844 63.542969 25.132812 64.542969 24 65.25 C 23.75 66.910156 23.667969 68.574219 23.75 70.25 C 23.777344 70.804688 23.945312 71.304688 24.25 71.75 C 23.207031 71.765625 22.292969 71.429688 21.5 70.75 C 21.332031 68.75 21.167969 66.75 21 64.75 C 20.496094 65.511719 20.246094 66.347656 20.25 67.25 C 19.417969 67.917969 18.582031 67.917969 17.75 67.25 C 17.902344 65.859375 18.402344 64.609375 19.25 63.5 C 17.761719 62.175781 16.425781 60.675781 15.25 59 C 15.992188 57.921875 16.742188 56.839844 17.5 55.75 C 17.910156 54.019531 17.742188 52.351562 17 50.75 C 15.296875 49.511719 14.546875 47.84375 14.75 45.75 C 15.453125 44.515625 16.289062 43.347656 17.25 42.25 C 17.574219 42.402344 17.910156 42.570312 18.25 42.75 C 18.761719 42.074219 19.429688 41.738281 20.25 41.75 Z M 20.25 41.75 "/>
<use xlink:href="#surface23" mask="url(#mask6)"/>
<path style=" stroke:none;fill-rule:evenodd;fill:rgb(98.431373%,51.372549%,47.058824%);fill-opacity:1;" d="M 94.75 59.25 C 95.394531 59.527344 95.8125 60.027344 96 60.75 C 96.570312 63.640625 95.652344 65.808594 93.25 67.25 C 91.75 67.25 90.25 67.25 88.75 67.25 C 87.261719 66.59375 86.097656 65.59375 85.25 64.25 C 85.167969 63.238281 85.253906 62.238281 85.5 61.25 C 86.015625 59.5625 87.097656 58.980469 88.75 59.5 C 89.890625 60.59375 91.222656 60.929688 92.75 60.5 C 93.011719 59.117188 93.679688 58.699219 94.75 59.25 Z M 94.75 59.25 "/>
<path style=" stroke:none;fill-rule:evenodd;fill:rgb(92.54902%,91.764706%,89.803922%);fill-opacity:1;" d="M 54.25 59.75 C 55.644531 59.726562 56.5625 60.390625 57 61.75 C 57.332031 63.25 57.332031 64.75 57 66.25 C 55.726562 68.777344 54.140625 71.113281 52.25 73.25 C 52.3125 68.695312 52.980469 64.195312 54.25 59.75 Z M 54.25 59.75 "/>
<path style=" stroke:none;fill-rule:evenodd;fill:rgb(92.941176%,92.941176%,92.941176%);fill-opacity:1;" d="M 42.25 57.75 C 44.769531 57.519531 47.101562 58.019531 49.25 59.25 C 50.566406 61.183594 50.566406 63.101562 49.25 65 C 49.722656 65.242188 50.222656 65.324219 50.75 65.25 C 50.832031 67.089844 50.75 68.925781 50.5 70.75 C 49.820312 71.191406 49.070312 71.355469 48.25 71.25 C 48.25 69.25 48.25 67.25 48.25 65.25 C 42.410156 65.59375 40.410156 63.09375 42.25 57.75 Z M 42.25 57.75 "/>
<path style=" stroke:none;fill-rule:evenodd;fill:rgb(23.137255%,23.529412%,25.882353%);fill-opacity:1;" d="M 44.75 59.25 C 48.074219 58.988281 48.90625 60.238281 47.25 63 C 44.394531 63.214844 43.5625 61.964844 44.75 59.25 Z M 44.75 59.25 "/>
<path style=" stroke:none;fill-rule:evenodd;fill:rgb(46.27451%,14.509804%,13.72549%);fill-opacity:1;" d="M 88.75 67.25 C 90.25 67.25 91.75 67.25 93.25 67.25 C 91.917969 67.582031 90.582031 67.917969 89.25 68.25 C 88.25 68.25 87.25 68.25 86.25 68.25 C 87.082031 67.917969 87.917969 67.582031 88.75 67.25 Z M 88.75 67.25 "/>
<use xlink:href="#surface26" mask="url(#mask7)"/>
<path style=" stroke:none;fill-rule:evenodd;fill:rgb(90.588235%,30.588235%,32.156863%);fill-opacity:1;" d="M 86.25 68.25 C 87.25 68.25 88.25 68.25 89.25 68.25 C 90.359375 68.683594 91.523438 68.851562 92.75 68.75 C 92.832031 69.761719 92.746094 70.761719 92.5 71.75 C 90.617188 73.019531 88.703125 73.019531 86.75 71.75 C 86.003906 71.34375 85.671875 70.675781 85.75 69.75 C 85.761719 69.136719 85.925781 68.636719 86.25 68.25 Z M 86.25 68.25 "/>
<path style=" stroke:none;fill-rule:evenodd;fill:rgb(98.431373%,89.803922%,71.372549%);fill-opacity:1;" d="M 11.25 74.25 C 10.375 74.933594 9.375 75.433594 8.25 75.75 C 8.25 74.417969 8.25 73.082031 8.25 71.75 C 8.445312 68.636719 9.113281 65.636719 10.25 62.75 C 10.609375 62.539062 10.859375 62.207031 11 61.75 C 10.984375 65.941406 11.066406 70.109375 11.25 74.25 Z M 11.25 74.25 "/>
<path style=" stroke:none;fill-rule:evenodd;fill:rgb(50.980392%,65.490196%,69.019608%);fill-opacity:1;" d="M 38.75 71.75 C 41.101562 73.421875 43.433594 75.089844 45.75 76.75 C 44.855469 77.3125 43.855469 77.394531 42.75 77 C 40.964844 75.789062 39.132812 74.707031 37.25 73.75 C 37.25 73.082031 37.25 72.417969 37.25 71.75 C 37.75 71.75 38.25 71.75 38.75 71.75 Z M 38.75 71.75 "/>
<path style=" stroke:none;fill-rule:evenodd;fill:rgb(65.490196%,40.784314%,18.431373%);fill-opacity:1;" d="M 11.25 74.25 C 13.226562 74.527344 13.226562 74.941406 11.25 75.5 C 12.027344 75.605469 12.695312 75.855469 13.25 76.25 C 11.480469 76.40625 9.8125 76.238281 8.25 75.75 C 9.375 75.433594 10.375 74.933594 11.25 74.25 Z M 11.25 74.25 "/>
<use xlink:href="#surface29" mask="url(#mask8)"/>
<path style=" stroke:none;fill-rule:evenodd;fill:rgb(98.039216%,72.156863%,44.705882%);fill-opacity:1;" d="M 7.25 58.75 C 7.25 58.582031 7.25 58.417969 7.25 58.25 C 8.722656 58.820312 10.058594 59.65625 11.25 60.75 C 11.664062 64.238281 11.914062 67.738281 12 71.25 C 12.34375 69.628906 13.011719 67.960938 14 66.25 C 15.246094 66.609375 16.496094 66.945312 17.75 67.25 C 18.582031 67.917969 19.417969 67.917969 20.25 67.25 C 20.816406 68.484375 20.898438 69.816406 20.5 71.25 C 20.167969 70.582031 19.832031 70.582031 19.5 71.25 C 19.253906 72.066406 19.167969 72.902344 19.25 73.75 C 19.910156 73.835938 20.496094 73.667969 21 73.25 C 20.773438 74.714844 20.773438 76.214844 21 77.75 C 23.636719 82.308594 27.386719 85.472656 32.25 87.25 C 31.75 87.25 31.25 87.25 30.75 87.25 C 30.75 88.082031 30.75 88.917969 30.75 89.75 C 29.082031 89.082031 27.417969 89.082031 25.75 89.75 C 24.511719 89.527344 24.429688 89.027344 25.5 88.25 C 25.832031 87.417969 25.832031 86.582031 25.5 85.75 C 24.976562 86.257812 24.390625 86.34375 23.75 86 C 23.980469 85.792969 24.144531 85.542969 24.25 85.25 C 21.636719 85.371094 20.804688 84.121094 21.75 81.5 C 18.746094 81.496094 16.246094 80.414062 14.25 78.25 C 13.917969 77.917969 13.582031 77.582031 13.25 77.25 C 13.25 76.917969 13.25 76.582031 13.25 76.25 C 12.695312 75.855469 12.027344 75.605469 11.25 75.5 C 13.226562 74.941406 13.226562 74.527344 11.25 74.25 C 11.066406 70.109375 10.984375 65.941406 11 61.75 C 10.859375 62.207031 10.609375 62.539062 10.25 62.75 C 10.324219 62.222656 10.242188 61.722656 10 61.25 C 8.863281 60.617188 7.945312 59.785156 7.25 58.75 Z M 7.25 58.75 "/>
<path style=" stroke:none;fill-rule:evenodd;fill:rgb(25.490196%,38.823529%,44.705882%);fill-opacity:1;" d="M 37.25 73.75 C 39.132812 74.707031 40.964844 75.789062 42.75 77 C 43.855469 77.394531 44.855469 77.3125 45.75 76.75 C 50.527344 77.984375 55.359375 78.984375 60.25 79.75 C 60.980469 79.714844 61.644531 79.882812 62.25 80.25 C 61.824219 81.046875 61.160156 81.628906 60.25 82 C 61.847656 82.089844 63.347656 82.339844 64.75 82.75 C 60.410156 82.707031 56.078125 82.542969 51.75 82.25 C 48.167969 81.683594 44.667969 80.765625 41.25 79.5 C 39.28125 78.605469 37.613281 77.355469 36.25 75.75 C 36.078125 74.757812 36.410156 74.089844 37.25 73.75 Z M 37.25 73.75 "/>
<path style=" stroke:none;fill-rule:evenodd;fill:rgb(9.803922%,9.803922%,14.117647%);fill-opacity:1;" d="M 77.25 67.25 C 77.726562 67.960938 77.890625 68.792969 77.75 69.75 C 75.742188 77.738281 70.578125 81.238281 62.25 80.25 C 61.644531 79.882812 60.980469 79.714844 60.25 79.75 C 60.304688 79.441406 60.472656 79.191406 60.75 79 C 59.191406 78.46875 57.691406 77.804688 56.25 77 C 53.542969 74.734375 53.378906 72.484375 55.75 70.25 C 56.25 70.25 56.75 70.25 57.25 70.25 C 57.363281 73.617188 58.863281 76.199219 61.75 78 C 70.886719 80.101562 76.050781 76.515625 77.25 67.25 Z M 77.25 67.25 "/>
<path style=" stroke:none;fill-rule:evenodd;fill:rgb(22.352941%,28.235294%,32.941176%);fill-opacity:1;" d="M 73.25 82.25 C 70.425781 82.566406 67.59375 82.734375 64.75 82.75 C 63.347656 82.339844 61.847656 82.089844 60.25 82 C 61.160156 81.628906 61.824219 81.046875 62.25 80.25 C 70.578125 81.238281 75.742188 77.738281 77.75 69.75 C 78.375 69.710938 78.792969 69.378906 79 68.75 C 80.480469 70.78125 80.644531 72.949219 79.5 75.25 C 78.3125 78.773438 75.894531 80.855469 72.25 81.5 C 72.707031 81.640625 73.039062 81.890625 73.25 82.25 Z M 73.25 82.25 "/>
<path style=" stroke:none;fill-rule:evenodd;fill:rgb(72.54902%,39.215686%,16.862745%);fill-opacity:1;" d="M 23.75 70.25 C 24.394531 70.527344 24.8125 71.027344 25 71.75 C 24.84375 74.074219 25.59375 75.992188 27.25 77.5 C 28.054688 77.828125 28.636719 77.578125 29 76.75 C 29.125 77.3125 29.375 77.8125 29.75 78.25 C 30.855469 78.5625 31.855469 79.0625 32.75 79.75 C 33.265625 78.980469 33.933594 78.730469 34.75 79 C 35.8125 79.929688 36.8125 80.929688 37.75 82 C 41.195312 83.320312 44.695312 84.402344 48.25 85.25 C 47.054688 86.632812 45.472656 87.300781 43.5 87.25 C 41.988281 87.257812 40.570312 86.925781 39.25 86.25 C 38.582031 85.75 37.917969 85.25 37.25 84.75 C 35.253906 82.753906 33.085938 80.921875 30.75 79.25 C 30.015625 79.363281 29.265625 79.527344 28.5 79.75 C 26.988281 78.820312 25.738281 77.652344 24.75 76.25 C 24.867188 74.695312 24.703125 73.195312 24.25 71.75 C 23.945312 71.304688 23.777344 70.804688 23.75 70.25 Z M 23.75 70.25 "/>
<path style=" stroke:none;fill-rule:evenodd;fill:rgb(91.372549%,83.529412%,72.54902%);fill-opacity:1;" d="M 13.25 77.25 C 13.582031 77.582031 13.917969 77.917969 14.25 78.25 C 14.4375 80.503906 15.605469 81.667969 17.75 81.75 C 17.40625 82.511719 16.820312 83.011719 16 83.25 C 12.78125 82.15625 11.867188 80.15625 13.25 77.25 Z M 13.25 77.25 "/>
<path style=" stroke:none;fill-rule:evenodd;fill:rgb(88.627451%,49.019608%,21.568627%);fill-opacity:1;" d="M 24.75 76.25 C 25.738281 77.652344 26.988281 78.820312 28.5 79.75 C 29.265625 79.527344 30.015625 79.363281 30.75 79.25 C 33.085938 80.921875 35.253906 82.753906 37.25 84.75 C 35.386719 84.910156 33.554688 84.746094 31.75 84.25 C 29.148438 83.195312 26.648438 82.03125 24.25 80.75 C 24.351562 79.804688 24.019531 79.054688 23.25 78.5 C 23.730469 77.925781 23.5625 77.425781 22.75 77 C 23.355469 76.445312 23.355469 75.859375 22.75 75.25 C 23.164062 74.808594 23.664062 74.640625 24.25 74.75 C 24.132812 75.394531 24.296875 75.894531 24.75 76.25 Z M 24.75 76.25 "/>
<path style=" stroke:none;fill-rule:evenodd;fill:rgb(3.137255%,2.352941%,4.705882%);fill-opacity:1;" d="M 83.75 60.25 C 84.46875 61.515625 84.96875 62.847656 85.25 64.25 C 86.097656 65.59375 87.261719 66.59375 88.75 67.25 C 87.917969 67.582031 87.082031 67.917969 86.25 68.25 C 85.925781 68.636719 85.761719 69.136719 85.75 69.75 C 85.671875 70.675781 86.003906 71.34375 86.75 71.75 C 86.710938 72.375 86.378906 72.792969 85.75 73 C 86.027344 73.191406 86.195312 73.441406 86.25 73.75 C 85.75 73.734375 85.417969 73.984375 85.25 74.5 C 84.421875 78.753906 82.085938 81.835938 78.25 83.75 C 75.847656 93.535156 70.015625 96.535156 60.75 92.75 C 59.96875 95.148438 58.800781 97.316406 57.25 99.25 C 57.25 99.582031 57.082031 99.75 56.75 99.75 C 56.816406 98.855469 56.652344 98.019531 56.25 97.25 C 56.519531 96.441406 56.683594 95.609375 56.75 94.75 C 57.613281 93.609375 57.945312 92.277344 57.75 90.75 C 56.9375 88.835938 56.4375 86.835938 56.25 84.75 C 55.25 84.75 54.25 84.75 53.25 84.75 C 51.628906 84.113281 49.964844 83.53125 48.25 83 C 49.519531 82.90625 50.683594 82.65625 51.75 82.25 C 56.078125 82.542969 60.410156 82.707031 64.75 82.75 C 67.59375 82.734375 70.425781 82.566406 73.25 82.25 C 75.335938 81.75 77.335938 81 79.25 80 C 82.898438 75.550781 83.234375 70.800781 80.25 65.75 C 81.542969 65.261719 82.875 65.09375 84.25 65.25 C 84.332031 64.070312 84.25 62.90625 84 61.75 C 83.226562 61.25 83.144531 60.75 83.75 60.25 Z M 83.75 60.25 "/>
<path style=" stroke:none;fill-rule:evenodd;fill:rgb(96.862745%,78.039216%,52.54902%);fill-opacity:1;" d="M 14.25 78.25 C 16.246094 80.414062 18.746094 81.496094 21.75 81.5 C 20.804688 84.121094 21.636719 85.371094 24.25 85.25 C 24.144531 85.542969 23.980469 85.792969 23.75 86 C 24.390625 86.34375 24.976562 86.257812 25.5 85.75 C 25.832031 86.582031 25.832031 87.417969 25.5 88.25 C 24.429688 89.027344 24.511719 89.527344 25.75 89.75 C 25.199219 90.300781 24.53125 90.382812 23.75 90 C 22 88.496094 20.5 86.746094 19.25 84.75 C 19.875 83.839844 20.207031 82.839844 20.25 81.75 C 19.417969 81.75 18.582031 81.75 17.75 81.75 C 15.605469 81.667969 14.4375 80.503906 14.25 78.25 Z M 14.25 78.25 "/>
<path style=" stroke:none;fill-rule:evenodd;fill:rgb(94.509804%,58.431373%,28.627451%);fill-opacity:1;" d="M 24.25 71.75 C 24.703125 73.195312 24.867188 74.695312 24.75 76.25 C 24.296875 75.894531 24.132812 75.394531 24.25 74.75 C 23.664062 74.640625 23.164062 74.808594 22.75 75.25 C 23.355469 75.859375 23.355469 76.445312 22.75 77 C 23.5625 77.425781 23.730469 77.925781 23.25 78.5 C 24.019531 79.054688 24.351562 79.804688 24.25 80.75 C 26.648438 82.03125 29.148438 83.195312 31.75 84.25 C 33.554688 84.746094 35.386719 84.910156 37.25 84.75 C 37.917969 85.25 38.582031 85.75 39.25 86.25 C 40.339844 88.089844 41.925781 89.257812 44 89.75 C 44.6875 89.65625 45.105469 89.324219 45.25 88.75 C 45.71875 89.285156 45.882812 89.949219 45.75 90.75 C 44.902344 90.671875 44.066406 90.753906 43.25 91 C 43.058594 92.164062 42.558594 93.078125 41.75 93.75 C 41.0625 93.828125 40.398438 93.746094 39.75 93.5 C 37.3125 91.3125 34.8125 89.226562 32.25 87.25 C 27.386719 85.472656 23.636719 82.308594 21 77.75 C 20.773438 76.214844 20.773438 74.714844 21 73.25 C 20.496094 73.667969 19.910156 73.835938 19.25 73.75 C 19.167969 72.902344 19.253906 72.066406 19.5 71.25 C 19.832031 70.582031 20.167969 70.582031 20.5 71.25 C 20.898438 69.816406 20.816406 68.484375 20.25 67.25 C 20.246094 66.347656 20.496094 65.511719 21 64.75 C 21.167969 66.75 21.332031 68.75 21.5 70.75 C 22.292969 71.429688 23.207031 71.765625 24.25 71.75 Z M 24.25 71.75 "/>
<path style=" stroke:none;fill-rule:evenodd;fill:rgb(82.352941%,46.666667%,19.215686%);fill-opacity:1;" d="M 48.25 85.25 C 50.75 85.25 53.25 85.25 55.75 85.25 C 55.835938 85.910156 55.667969 86.496094 55.25 87 C 55.980469 87.933594 56.480469 89.015625 56.75 90.25 C 57.089844 90.429688 57.425781 90.597656 57.75 90.75 C 57.945312 92.277344 57.613281 93.609375 56.75 94.75 C 56.394531 95.371094 55.894531 95.621094 55.25 95.5 C 54.917969 94.667969 54.582031 93.832031 54.25 93 C 51.378906 91.359375 48.628906 89.609375 46 87.75 C 45.484375 87.917969 45.234375 88.25 45.25 88.75 C 45.105469 89.324219 44.6875 89.65625 44 89.75 C 41.925781 89.257812 40.339844 88.089844 39.25 86.25 C 40.570312 86.925781 41.988281 87.257812 43.5 87.25 C 45.472656 87.300781 47.054688 86.632812 48.25 85.25 Z M 48.25 85.25 "/>
<path style=" stroke:none;fill-rule:evenodd;fill:rgb(22.745098%,29.019608%,33.72549%);fill-opacity:1;" d="M 59.25 85.25 C 61.390625 86.320312 63.558594 87.402344 65.75 88.5 C 68.0625 88.992188 70.394531 89.40625 72.75 89.75 C 68.683594 93.726562 64.601562 93.726562 60.5 89.75 C 59.546875 88.398438 59.128906 86.898438 59.25 85.25 Z M 59.25 85.25 "/>
<path style=" stroke:none;fill-rule:evenodd;fill:rgb(85.098039%,58.823529%,38.039216%);fill-opacity:1;" d="M 30.25 94.25 C 29.917969 94.917969 29.582031 94.917969 29.25 94.25 C 28.746094 93.332031 27.996094 92.664062 27 92.25 C 26.757812 91.777344 26.675781 91.277344 26.75 90.75 C 29.582031 90.25 30.75 91.417969 30.25 94.25 Z M 30.25 94.25 "/>
<use xlink:href="#surface32" mask="url(#mask9)"/>
<path style=" stroke:none;fill-rule:evenodd;fill:rgb(95.294118%,84.705882%,70.980392%);fill-opacity:1;" d="M 32.25 87.25 C 34.8125 89.226562 37.3125 91.3125 39.75 93.5 C 40.398438 93.746094 41.0625 93.828125 41.75 93.75 C 43.09375 95.019531 44.425781 95.019531 45.75 93.75 C 45.832031 94.929688 45.75 96.09375 45.5 97.25 C 45.292969 97.476562 45.042969 97.644531 44.75 97.75 C 41.855469 96.136719 38.855469 94.800781 35.75 93.75 C 33.953125 92.621094 32.285156 91.289062 30.75 89.75 C 30.75 88.917969 30.75 88.082031 30.75 87.25 C 31.25 87.25 31.75 87.25 32.25 87.25 Z M 32.25 87.25 "/>
<use xlink:href="#surface35" mask="url(#mask10)"/>
<path style=" stroke:none;fill-rule:evenodd;fill:rgb(92.941176%,65.490196%,37.647059%);fill-opacity:1;" d="M 56.75 94.75 C 56.683594 95.609375 56.519531 96.441406 56.25 97.25 C 55.941406 97.304688 55.691406 97.472656 55.5 97.75 C 54.226562 94.402344 51.808594 92.402344 48.25 91.75 C 46.824219 91.097656 45.324219 91.097656 43.75 91.75 C 43.8125 92.054688 43.976562 92.21875 44.25 92.25 C 44.917969 92.582031 45.417969 93.082031 45.75 93.75 C 44.425781 95.019531 43.09375 95.019531 41.75 93.75 C 42.558594 93.078125 43.058594 92.164062 43.25 91 C 44.066406 90.753906 44.902344 90.671875 45.75 90.75 C 45.882812 89.949219 45.71875 89.285156 45.25 88.75 C 45.234375 88.25 45.484375 87.917969 46 87.75 C 48.628906 89.609375 51.378906 91.359375 54.25 93 C 54.582031 93.832031 54.917969 94.667969 55.25 95.5 C 55.894531 95.621094 56.394531 95.371094 56.75 94.75 Z M 56.75 94.75 "/>
<path style=" stroke:none;fill-rule:evenodd;fill:rgb(38.431373%,20.392157%,5.490196%);fill-opacity:1;" d="M 48.25 91.75 C 46.808594 91.597656 45.472656 91.761719 44.25 92.25 C 43.976562 92.21875 43.8125 92.054688 43.75 91.75 C 45.324219 91.097656 46.824219 91.097656 48.25 91.75 Z M 48.25 91.75 "/>
</g>
</svg>
