<?xml version="1.0" encoding="UTF-8"?>
<svg xmlns="http://www.w3.org/2000/svg" xmlns:xlink="http://www.w3.org/1999/xlink" width="px" height="px" viewBox="0 0 111 101" version="1.1">
<defs>
<filter id="alpha" filterUnits="objectBoundingBox" x="0%" y="0%" width="100%" height="100%">
  <feColorMatrix type="matrix" in="SourceGraphic" values="0 0 0 0 1 0 0 0 0 1 0 0 0 0 1 0 0 0 1 0"/>
</filter>
<mask id="mask0">
  <g filter="url(#alpha)">
<rect x="0" y="0" width="111" height="101" style="fill:rgb(0%,0%,0%);fill-opacity:0.054902;stroke:none;"/>
  </g>
</mask>
<clipPath id="clip1">
  <rect x="0" y="0" width="111" height="101"/>
</clipPath>
<g id="surface5" clip-path="url(#clip1)">
<path style=" stroke:none;fill-rule:evenodd;fill:rgb(13.333333%,17.254902%,24.705882%);fill-opacity:1;" d="M 52.25 -0.25 C 53.082031 -0.25 53.917969 -0.25 54.75 -0.25 C 57.425781 0.664062 60.089844 1.75 62.75 3 C 64.710938 4.707031 66.378906 6.625 67.75 8.75 C 72.648438 5.289062 77.816406 4.875 83.25 7.5 C 85.824219 9.734375 87.574219 12.484375 88.5 15.75 C 89.792969 17.3125 91.292969 18.648438 93 19.75 C 94.042969 21.335938 94.960938 23.003906 95.75 24.75 C 104.902344 25.550781 109.320312 30.550781 109 39.75 C 109.519531 40.355469 110.101562 40.855469 110.75 41.25 C 110.75 42.917969 110.75 44.582031 110.75 46.25 C 109.503906 47.519531 109.003906 49.101562 109.25 51 C 109.003906 52.898438 109.503906 54.480469 110.75 55.75 C 110.75 57.25 110.75 58.75 110.75 60.25 C 108.542969 62.570312 107.628906 65.40625 108 68.75 C 107.199219 71.4375 105.617188 73.523438 103.25 75 C 100.789062 75.828125 98.289062 76.492188 95.75 77 C 94.195312 80.535156 91.78125 83.285156 88.5 85.25 C 86 94.589844 80.085938 97.839844 70.75 95 C 69.449219 94.558594 68.367188 93.808594 67.5 92.75 C 66.769531 94.757812 65.851562 96.675781 64.75 98.5 C 62.910156 98.839844 61.660156 98.089844 61 96.25 C 57.152344 98.503906 53.070312 100.003906 48.75 100.75 C 48.25 100.75 47.75 100.75 47.25 100.75 C 46.722656 100.390625 46.390625 99.890625 46.25 99.25 C 46.582031 99.25 46.917969 99.25 47.25 99.25 C 51.167969 98.691406 54.832031 97.523438 58.25 95.75 C 59.484375 95.214844 60.652344 94.550781 61.75 93.75 C 62.628906 94.894531 63.210938 96.230469 63.5 97.75 C 64.726562 94.980469 65.8125 92.148438 66.75 89.25 C 69.71875 93.898438 73.882812 95.480469 79.25 94 C 83.632812 92.492188 86.050781 89.410156 86.5 84.75 C 90.238281 82.757812 92.824219 79.757812 94.25 75.75 C 98.378906 75.460938 101.960938 73.960938 105 71.25 C 106.664062 68.679688 107.082031 65.929688 106.25 63 C 106.804688 61.945312 107.554688 61.027344 108.5 60.25 C 108.9375 59.5625 109.1875 58.8125 109.25 58 C 108.945312 56.277344 108.113281 54.859375 106.75 53.75 C 108.039062 51.882812 108.039062 50.046875 106.75 48.25 C 107.597656 47.320312 108.347656 46.320312 109 45.25 C 109.332031 44.417969 109.332031 43.582031 109 42.75 C 108.179688 41.511719 107.261719 40.34375 106.25 39.25 C 107.171875 30.507812 103.171875 26.507812 94.25 27.25 C 93.980469 25.542969 93.3125 24.042969 92.25 22.75 C 91.089844 20.507812 89.339844 18.839844 87 17.75 C 84.765625 8.589844 79.179688 5.671875 70.25 9 C 69.324219 10.007812 68.324219 10.925781 67.25 11.75 C 65.6875 9.710938 64.1875 7.628906 62.75 5.5 C 59.84375 3.546875 56.679688 2.132812 53.25 1.25 C 52.675781 1.886719 52.675781 2.554688 53.25 3.25 C 52.832031 3.417969 52.417969 3.582031 52 3.75 C 49.433594 3.316406 46.851562 3.148438 44.25 3.25 C 39.328125 3.179688 38.996094 4.429688 43.25 7 C 36.476562 6.332031 30.476562 8.082031 25.25 12.25 C 26.644531 8.625 29.308594 6.542969 33.25 6 C 35.09375 5.789062 36.929688 5.539062 38.75 5.25 C 38.488281 3.597656 39.152344 2.511719 40.75 2 C 44.230469 1.46875 47.730469 1.132812 51.25 1 C 51.691406 0.644531 52.023438 0.230469 52.25 -0.25 Z M 52.25 -0.25 "/>
</g>
<mask id="mask1">
  <g filter="url(#alpha)">
<rect x="0" y="0" width="111" height="101" style="fill:rgb(0%,0%,0%);fill-opacity:0.968627;stroke:none;"/>
  </g>
</mask>
<clipPath id="clip2">
  <rect x="0" y="0" width="111" height="101"/>
</clipPath>
<g id="surface8" clip-path="url(#clip2)">
<path style=" stroke:none;fill-rule:evenodd;fill:rgb(5.490196%,2.352941%,1.568627%);fill-opacity:1;" d="M 92.25 22.75 C 92.25 24.25 92.25 25.75 92.25 27.25 C 91.347656 23.679688 89.179688 21.179688 85.75 19.75 C 84.792969 19.40625 83.792969 19.15625 82.75 19 C 75.582031 18.667969 68.417969 18.667969 61.25 19 C 59.84375 19.453125 58.511719 20.035156 57.25 20.75 C 56.515625 20.109375 56.183594 19.277344 56.25 18.25 C 57.050781 18.382812 57.714844 18.21875 58.25 17.75 C 59.484375 17.339844 60.816406 17.089844 62.25 17 C 62.433594 16.199219 62.601562 15.449219 62.75 14.75 C 62.917969 14.75 63.082031 14.75 63.25 14.75 C 64.191406 16.359375 65.523438 16.859375 67.25 16.25 C 66.609375 14.457031 65.609375 12.957031 64.25 11.75 C 62.707031 10.046875 60.875 8.710938 58.75 7.75 C 55.019531 6.089844 51.101562 5.089844 47 4.75 C 43.613281 4.402344 43.363281 5.070312 46.25 6.75 C 46.25 6.917969 46.25 7.082031 46.25 7.25 C 44.816406 7.984375 43.316406 8.484375 41.75 8.75 C 39.058594 8.664062 36.394531 8.828125 33.75 9.25 C 33.984375 8.652344 34.484375 8.320312 35.25 8.25 C 38.089844 7.988281 40.925781 7.652344 43.75 7.25 C 44.324219 6.207031 43.988281 5.457031 42.75 5 C 43.53125 4.621094 44.03125 4.039062 44.25 3.25 C 46.851562 3.148438 49.433594 3.316406 52 3.75 C 52.417969 3.582031 52.832031 3.417969 53.25 3.25 C 52.675781 2.554688 52.675781 1.886719 53.25 1.25 C 56.679688 2.132812 59.84375 3.546875 62.75 5.5 C 64.1875 7.628906 65.6875 9.710938 67.25 11.75 C 68.324219 10.925781 69.324219 10.007812 70.25 9 C 79.179688 5.671875 84.765625 8.589844 87 17.75 C 89.339844 18.839844 91.089844 20.507812 92.25 22.75 Z M 92.25 22.75 "/>
</g>
<mask id="mask2">
  <g filter="url(#alpha)">
<rect x="0" y="0" width="111" height="101" style="fill:rgb(0%,0%,0%);fill-opacity:0.996078;stroke:none;"/>
  </g>
</mask>
<clipPath id="clip3">
  <rect x="0" y="0" width="111" height="101"/>
</clipPath>
<g id="surface11" clip-path="url(#clip3)">
<path style=" stroke:none;fill-rule:evenodd;fill:rgb(81.176471%,58.823529%,18.431373%);fill-opacity:1;" d="M 41.75 8.75 C 43.292969 9.390625 44.960938 9.726562 46.75 9.75 C 46.75 10.75 46.75 11.75 46.75 12.75 C 46.578125 13.167969 46.246094 13.335938 45.75 13.25 C 46.019531 12.441406 46.1875 11.609375 46.25 10.75 C 45.417969 10.75 44.582031 10.75 43.75 10.75 C 41.015625 10.625 38.347656 10.957031 35.75 11.75 C 29.933594 13.648438 25.765625 17.398438 23.25 23 C 21.117188 23.265625 19.117188 23.933594 17.25 25 C 13.777344 28.191406 11.527344 32.105469 10.5 36.75 C 10.085938 42.003906 10.171875 47.171875 10.75 52.25 C 10.757812 53.28125 10.925781 54.28125 11.25 55.25 C 10.441406 54.707031 10.023438 53.871094 10 52.75 C 9.832031 53.25 9.667969 53.75 9.5 54.25 C 8.355469 53.988281 7.273438 54.324219 6.25 55.25 C 5.917969 54.75 5.582031 54.25 5.25 53.75 C 4.851562 53.976562 4.683594 54.3125 4.75 54.75 C 4.417969 54.75 4.082031 54.75 3.75 54.75 C 3.1875 53.855469 3.105469 52.855469 3.5 51.75 C 4.714844 53.078125 6.132812 53.578125 7.75 53.25 C 8.242188 51.617188 8.410156 49.949219 8.25 48.25 C 9.292969 42.320312 9.957031 36.320312 10.25 30.25 C 12.117188 24.964844 15.785156 21.714844 21.25 20.5 C 23.945312 15.144531 28.113281 11.394531 33.75 9.25 C 36.394531 8.828125 39.058594 8.664062 41.75 8.75 Z M 41.75 8.75 "/>
</g>
<mask id="mask3">
  <g filter="url(#alpha)">
<rect x="0" y="0" width="111" height="101" style="fill:rgb(0%,0%,0%);fill-opacity:0.937255;stroke:none;"/>
  </g>
</mask>
<clipPath id="clip4">
  <rect x="0" y="0" width="111" height="101"/>
</clipPath>
<g id="surface14" clip-path="url(#clip4)">
<path style=" stroke:none;fill-rule:evenodd;fill:rgb(4.313725%,1.960784%,1.960784%);fill-opacity:1;" d="M 92.25 22.75 C 93.3125 24.042969 93.980469 25.542969 94.25 27.25 C 103.171875 26.507812 107.171875 30.507812 106.25 39.25 C 107.261719 40.34375 108.179688 41.511719 109 42.75 C 109.332031 43.582031 109.332031 44.417969 109 45.25 C 108.347656 46.320312 107.597656 47.320312 106.75 48.25 C 108.039062 50.046875 108.039062 51.882812 106.75 53.75 C 108.113281 54.859375 108.945312 56.277344 109.25 58 C 109.1875 58.8125 108.9375 59.5625 108.5 60.25 C 107.554688 61.027344 106.804688 61.945312 106.25 63 C 107.082031 65.929688 106.664062 68.679688 105 71.25 C 101.960938 73.960938 98.378906 75.460938 94.25 75.75 C 92.824219 79.757812 90.238281 82.757812 86.5 84.75 C 86.050781 89.410156 83.632812 92.492188 79.25 94 C 73.882812 95.480469 69.71875 93.898438 66.75 89.25 C 65.8125 92.148438 64.726562 94.980469 63.5 97.75 C 63.210938 96.230469 62.628906 94.894531 61.75 93.75 C 60.652344 94.550781 59.484375 95.214844 58.25 95.75 C 56.757812 95.980469 55.257812 96.148438 53.75 96.25 C 55.984375 95.519531 57.984375 94.351562 59.75 92.75 C 61.492188 92.425781 62.078125 91.425781 61.5 89.75 C 61.164062 89.375 60.746094 89.207031 60.25 89.25 C 60.039062 88.890625 59.707031 88.640625 59.25 88.5 C 59.363281 88.300781 59.53125 88.21875 59.75 88.25 C 61.925781 88.679688 63.175781 90.011719 63.5 92.25 C 64.601562 90.195312 65.351562 88.03125 65.75 85.75 C 64.523438 85.851562 63.359375 85.683594 62.25 85.25 C 59.425781 84.074219 59.59375 83.574219 62.75 83.75 C 68.085938 83.832031 73.417969 83.75 78.75 83.5 C 81.496094 83.230469 84.160156 82.648438 86.75 81.75 C 89.320312 80.089844 91.070312 77.753906 92 74.75 C 93.039062 71.636719 93.871094 68.46875 94.5 65.25 C 94.878906 63.609375 95.546875 62.109375 96.5 60.75 C 96.898438 59.480469 96.816406 58.3125 96.25 57.25 C 96.082031 56.917969 95.917969 56.582031 95.75 56.25 C 96.582031 55.25 97.417969 54.25 98.25 53.25 C 98.582031 53.25 98.917969 53.25 99.25 53.25 C 100.492188 53.628906 101.824219 53.628906 103.25 53.25 C 105.421875 53.074219 106.257812 51.90625 105.75 49.75 C 104.890625 49.6875 104.058594 49.519531 103.25 49.25 C 101.9375 48.953125 100.601562 48.789062 99.25 48.75 C 98.75 48.75 98.25 48.75 97.75 48.75 C 97.441406 48.695312 97.191406 48.527344 97 48.25 C 96.75 46.425781 96.667969 44.589844 96.75 42.75 C 96.882812 41.949219 96.71875 41.285156 96.25 40.75 C 94.53125 36.378906 93.199219 31.878906 92.25 27.25 C 92.25 25.75 92.25 24.25 92.25 22.75 Z M 92.25 22.75 "/>
</g>
<mask id="mask4">
  <g filter="url(#alpha)">
<rect x="0" y="0" width="111" height="101" style="fill:rgb(0%,0%,0%);fill-opacity:0.960784;stroke:none;"/>
  </g>
</mask>
<clipPath id="clip5">
  <rect x="0" y="0" width="111" height="101"/>
</clipPath>
<g id="surface17" clip-path="url(#clip5)">
<path style=" stroke:none;fill-rule:evenodd;fill:rgb(71.764706%,50.980392%,18.039216%);fill-opacity:1;" d="M 10.25 30.25 C 9.957031 36.320312 9.292969 42.320312 8.25 48.25 C 7.671875 44.671875 7.589844 41.007812 8 37.25 C 8.414062 34.753906 9.164062 32.421875 10.25 30.25 Z M 10.25 30.25 "/>
</g>
<mask id="mask5">
  <g filter="url(#alpha)">
<rect x="0" y="0" width="111" height="101" style="fill:rgb(0%,0%,0%);fill-opacity:0.572549;stroke:none;"/>
  </g>
</mask>
<clipPath id="clip6">
  <rect x="0" y="0" width="111" height="101"/>
</clipPath>
<g id="surface20" clip-path="url(#clip6)">
<path style=" stroke:none;fill-rule:evenodd;fill:rgb(88.627451%,74.509804%,40%);fill-opacity:1;" d="M 3.75 55.75 C 4.90625 57.050781 5.820312 58.550781 6.5 60.25 C 7.589844 61.765625 9.007812 62.765625 10.75 63.25 C 11.652344 64.875 12.984375 66.039062 14.75 66.75 C 16.992188 67.691406 19.160156 68.523438 21.25 69.25 C 19.871094 69.359375 18.707031 69.859375 17.75 70.75 C 18.113281 69.398438 17.445312 68.730469 15.75 68.75 C 13.949219 67.679688 12.113281 66.597656 10.25 65.5 C 8.816406 63.980469 7.316406 62.566406 5.75 61.25 C 4.691406 59.582031 4.027344 57.746094 3.75 55.75 Z M 3.75 55.75 "/>
</g>
<mask id="mask6">
  <g filter="url(#alpha)">
<rect x="0" y="0" width="111" height="101" style="fill:rgb(0%,0%,0%);fill-opacity:0.0313725;stroke:none;"/>
  </g>
</mask>
<clipPath id="clip7">
  <rect x="0" y="0" width="111" height="101"/>
</clipPath>
<g id="surface23" clip-path="url(#clip7)">
<path style=" stroke:none;fill-rule:evenodd;fill:rgb(17.647059%,18.823529%,20%);fill-opacity:1;" d="M 5.75 61.25 C 7.316406 62.566406 8.816406 63.980469 10.25 65.5 C 12.113281 66.597656 13.949219 67.679688 15.75 68.75 C 16.070312 69.242188 16.402344 69.742188 16.75 70.25 C 14.9375 70.828125 13.105469 70.914062 11.25 70.5 C 9.074219 67.585938 7.242188 64.503906 5.75 61.25 Z M 5.75 61.25 "/>
</g>
<mask id="mask7">
  <g filter="url(#alpha)">
<rect x="0" y="0" width="111" height="101" style="fill:rgb(0%,0%,0%);fill-opacity:0.996078;stroke:none;"/>
  </g>
</mask>
<clipPath id="clip8">
  <rect x="0" y="0" width="111" height="101"/>
</clipPath>
<g id="surface26" clip-path="url(#clip8)">
<path style=" stroke:none;fill-rule:evenodd;fill:rgb(87.843137%,69.411765%,16.078431%);fill-opacity:1;" d="M 21.25 69.25 C 18.742188 73.179688 15.242188 74.34375 10.75 72.75 C 10.75 72.582031 10.75 72.417969 10.75 72.25 C 13.261719 72.480469 15.59375 71.980469 17.75 70.75 C 18.707031 69.859375 19.871094 69.359375 21.25 69.25 Z M 21.25 69.25 "/>
</g>
<mask id="mask8">
  <g filter="url(#alpha)">
<rect x="0" y="0" width="111" height="101" style="fill:rgb(0%,0%,0%);fill-opacity:0.988235;stroke:none;"/>
  </g>
</mask>
<clipPath id="clip9">
  <rect x="0" y="0" width="111" height="101"/>
</clipPath>
<g id="surface29" clip-path="url(#clip9)">
<path style=" stroke:none;fill-rule:evenodd;fill:rgb(50.588235%,38.823529%,10.196078%);fill-opacity:1;" d="M 23.25 76.75 C 23.421875 76.332031 23.753906 76.164062 24.25 76.25 C 24.410156 78.847656 24.242188 81.347656 23.75 83.75 C 23.910156 81.320312 23.742188 78.984375 23.25 76.75 Z M 23.25 76.75 "/>
</g>
<mask id="mask9">
  <g filter="url(#alpha)">
<rect x="0" y="0" width="111" height="101" style="fill:rgb(0%,0%,0%);fill-opacity:0.996078;stroke:none;"/>
  </g>
</mask>
<clipPath id="clip10">
  <rect x="0" y="0" width="111" height="101"/>
</clipPath>
<g id="surface32" clip-path="url(#clip10)">
<path style=" stroke:none;fill-rule:evenodd;fill:rgb(87.843137%,70.980392%,21.568627%);fill-opacity:1;" d="M 36.75 77.75 C 36.667969 78.761719 36.753906 79.761719 37 80.75 C 37.191406 81.027344 37.441406 81.195312 37.75 81.25 C 37.832031 83.089844 37.75 84.925781 37.5 86.75 C 37.308594 86.472656 37.058594 86.304688 36.75 86.25 C 36.390625 83.503906 35.722656 80.835938 34.75 78.25 C 34.625 77.414062 34.292969 76.664062 33.75 76 C 35.453125 75.460938 36.453125 76.046875 36.75 77.75 Z M 36.75 77.75 "/>
</g>
<mask id="mask10">
  <g filter="url(#alpha)">
<rect x="0" y="0" width="111" height="101" style="fill:rgb(0%,0%,0%);fill-opacity:0.607843;stroke:none;"/>
  </g>
</mask>
<clipPath id="clip11">
  <rect x="0" y="0" width="111" height="101"/>
</clipPath>
<g id="surface35" clip-path="url(#clip11)">
<path style=" stroke:none;fill-rule:evenodd;fill:rgb(4.705882%,3.921569%,4.313725%);fill-opacity:1;" d="M 44.25 3.25 C 44.03125 4.039062 43.53125 4.621094 42.75 5 C 43.988281 5.457031 44.324219 6.207031 43.75 7.25 C 40.925781 7.652344 38.089844 7.988281 35.25 8.25 C 34.484375 8.320312 33.984375 8.652344 33.75 9.25 C 28.113281 11.394531 23.945312 15.144531 21.25 20.5 C 15.785156 21.714844 12.117188 24.964844 10.25 30.25 C 9.164062 32.421875 8.414062 34.753906 8 37.25 C 7.589844 41.007812 7.671875 44.671875 8.25 48.25 C 8.410156 49.949219 8.242188 51.617188 7.75 53.25 C 6.132812 53.578125 4.714844 53.078125 3.5 51.75 C 3.105469 52.855469 3.1875 53.855469 3.75 54.75 C 3.75 55.082031 3.75 55.417969 3.75 55.75 C 4.027344 57.746094 4.691406 59.582031 5.75 61.25 C 7.242188 64.503906 9.074219 67.585938 11.25 70.5 C 13.105469 70.914062 14.9375 70.828125 16.75 70.25 C 16.402344 69.742188 16.070312 69.242188 15.75 68.75 C 17.445312 68.730469 18.113281 69.398438 17.75 70.75 C 15.59375 71.980469 13.261719 72.480469 10.75 72.25 C 9.886719 72.09375 9.054688 72.007812 8.25 72 C 9.707031 73.710938 11.371094 75.125 13.25 76.25 C 16.445312 78.027344 19.777344 78.195312 23.25 76.75 C 23.742188 78.984375 23.910156 81.320312 23.75 83.75 C 23.4375 85.15625 22.769531 86.40625 21.75 87.5 C 23.835938 87.933594 25.417969 87.183594 26.5 85.25 C 26.75 87.121094 26.75 88.953125 26.5 90.75 C 29.734375 87.117188 32.066406 82.949219 33.5 78.25 C 33.886719 77.699219 34.300781 77.699219 34.75 78.25 C 35.722656 80.835938 36.390625 83.503906 36.75 86.25 C 36.664062 87.429688 36.496094 88.597656 36.25 89.75 C 35.546875 90.984375 34.710938 92.152344 33.75 93.25 C 32.402344 94.484375 32.734375 95.234375 34.75 95.5 C 37.054688 95.921875 39.222656 95.671875 41.25 94.75 C 42.824219 94.792969 44.15625 94.292969 45.25 93.25 C 46.445312 92.777344 47.527344 92.109375 48.5 91.25 C 48.75 93.074219 48.832031 94.910156 48.75 96.75 C 50.441406 96.769531 52.105469 96.601562 53.75 96.25 C 55.257812 96.148438 56.757812 95.980469 58.25 95.75 C 54.832031 97.523438 51.167969 98.691406 47.25 99.25 C 47.410156 97.714844 47.242188 96.214844 46.75 94.75 C 41.980469 97.65625 36.980469 98.242188 31.75 96.5 C 31 96.207031 30.332031 95.792969 29.75 95.25 C 32.195312 93.222656 33.945312 90.722656 35 87.75 C 35.304688 85.660156 34.972656 83.660156 34 81.75 C 32.957031 86.289062 30.539062 89.871094 26.75 92.5 C 25.628906 92.988281 24.464844 93.238281 23.25 93.25 C 23.398438 92.011719 23.898438 90.929688 24.75 90 C 24.582031 89.75 24.417969 89.5 24.25 89.25 C 22.621094 89.707031 20.953125 89.875 19.25 89.75 C 20.03125 88.113281 20.863281 86.445312 21.75 84.75 C 22.234375 83.21875 22.234375 81.554688 21.75 79.75 C 21.117188 80.855469 20.367188 81.855469 19.5 82.75 C 18 81.761719 17.917969 80.675781 19.25 79.5 C 12.28125 79.023438 7.449219 75.605469 4.75 69.25 C 6.089844 69.503906 7.421875 69.585938 8.75 69.5 C 2.625 62.074219 0.375 53.660156 2 44.25 C 2.621094 45.679688 3.121094 47.179688 3.5 48.75 C 4.175781 49.507812 4.925781 50.175781 5.75 50.75 C 6.25 47.097656 6.414062 43.433594 6.25 39.75 C 6.300781 32.230469 9.136719 25.980469 14.75 21 C 16.417969 20.167969 18.082031 19.332031 19.75 18.5 C 20.261719 17.226562 20.84375 15.976562 21.5 14.75 C 22.953125 14.214844 24.203125 13.378906 25.25 12.25 C 30.476562 8.082031 36.476562 6.332031 43.25 7 C 38.996094 4.429688 39.328125 3.179688 44.25 3.25 Z M 44.25 3.25 "/>
</g>
<mask id="mask11">
  <g filter="url(#alpha)">
<rect x="0" y="0" width="111" height="101" style="fill:rgb(0%,0%,0%);fill-opacity:0.996078;stroke:none;"/>
  </g>
</mask>
<clipPath id="clip12">
  <rect x="0" y="0" width="111" height="101"/>
</clipPath>
<g id="surface38" clip-path="url(#clip12)">
<path style=" stroke:none;fill-rule:evenodd;fill:rgb(94.901961%,73.333333%,32.156863%);fill-opacity:1;" d="M 51.25 86.25 C 53.027344 88.179688 53.859375 90.515625 53.75 93.25 C 55.484375 93.5625 56.902344 93.0625 58 91.75 C 58.355469 92.488281 58.9375 92.820312 59.75 92.75 C 57.984375 94.351562 55.984375 95.519531 53.75 96.25 C 52.105469 96.601562 50.441406 96.769531 48.75 96.75 C 48.832031 94.910156 48.75 93.074219 48.5 91.25 C 47.527344 92.109375 46.445312 92.777344 45.25 93.25 C 43.601562 93.335938 43.433594 93.003906 44.75 92.25 C 44.566406 91.550781 44.152344 91.050781 43.5 90.75 C 42.835938 91.496094 42.085938 92.164062 41.25 92.75 C 41.082031 92.5 40.917969 92.25 40.75 92 C 41.429688 91.214844 41.761719 90.300781 41.75 89.25 C 42.828125 86.425781 44.160156 83.761719 45.75 81.25 C 46.527344 80.6875 47.359375 80.4375 48.25 80.5 C 50.035156 82.027344 51.035156 83.945312 51.25 86.25 Z M 51.25 86.25 "/>
</g>
<mask id="mask12">
  <g filter="url(#alpha)">
<rect x="0" y="0" width="111" height="101" style="fill:rgb(0%,0%,0%);fill-opacity:0.0352941;stroke:none;"/>
  </g>
</mask>
<clipPath id="clip13">
  <rect x="0" y="0" width="111" height="101"/>
</clipPath>
<g id="surface41" clip-path="url(#clip13)">
<path style=" stroke:none;fill-rule:evenodd;fill:rgb(13.72549%,16.862745%,23.921569%);fill-opacity:1;" d="M 6.25 39.75 C 6.414062 43.433594 6.25 47.097656 5.75 50.75 C 4.925781 50.175781 4.175781 49.507812 3.5 48.75 C 3.121094 47.179688 2.621094 45.679688 2 44.25 C 0.375 53.660156 2.625 62.074219 8.75 69.5 C 7.421875 69.585938 6.089844 69.503906 4.75 69.25 C 7.449219 75.605469 12.28125 79.023438 19.25 79.5 C 17.917969 80.675781 18 81.761719 19.5 82.75 C 20.367188 81.855469 21.117188 80.855469 21.75 79.75 C 22.234375 81.554688 22.234375 83.21875 21.75 84.75 C 20.863281 86.445312 20.03125 88.113281 19.25 89.75 C 20.953125 89.875 22.621094 89.707031 24.25 89.25 C 24.417969 89.5 24.582031 89.75 24.75 90 C 23.898438 90.929688 23.398438 92.011719 23.25 93.25 C 24.464844 93.238281 25.628906 92.988281 26.75 92.5 C 30.539062 89.871094 32.957031 86.289062 34 81.75 C 34.972656 83.660156 35.304688 85.660156 35 87.75 C 33.945312 90.722656 32.195312 93.222656 29.75 95.25 C 30.332031 95.792969 31 96.207031 31.75 96.5 C 36.980469 98.242188 41.980469 97.65625 46.75 94.75 C 47.242188 96.214844 47.410156 97.714844 47.25 99.25 C 46.917969 99.25 46.582031 99.25 46.25 99.25 C 45.796875 98.894531 45.632812 98.394531 45.75 97.75 C 42.871094 98.410156 39.957031 98.910156 37 99.25 C 34.148438 98.953125 31.484375 98.121094 29 96.75 C 28.171875 95.625 28.007812 94.460938 28.5 93.25 C 26.761719 94.496094 24.84375 94.914062 22.75 94.5 C 21.886719 93.605469 21.550781 92.523438 21.75 91.25 C 17.261719 90.648438 16.597656 88.648438 19.75 85.25 C 17.988281 84.238281 16.902344 82.738281 16.5 80.75 C 11.3125 79.40625 7.144531 76.574219 4 72.25 C 2.714844 70.167969 3.128906 68.585938 5.25 67.5 C 2.773438 63.480469 0.941406 59.230469 -0.25 54.75 C -0.25 51.417969 -0.25 48.082031 -0.25 44.75 C 2.085938 42.4375 3.667969 42.9375 4.5 46.25 C 5.363281 44.09375 5.949219 41.929688 6.25 39.75 Z M 6.25 39.75 "/>
</g>
</defs>
<g id="surface1">
<use xlink:href="#surface5" mask="url(#mask0)"/>
<path style=" stroke:none;fill-rule:evenodd;fill:rgb(98.431373%,81.568627%,41.176471%);fill-opacity:1;" d="M 46.25 7.25 C 46.25 7.082031 46.25 6.917969 46.25 6.75 C 50.351562 6.867188 54.183594 7.867188 57.75 9.75 C 58.355469 10.78125 57.9375 11.28125 56.5 11.25 C 53.890625 10.84375 51.308594 10.34375 48.75 9.75 C 48.308594 10.164062 48.140625 10.664062 48.25 11.25 C 47.679688 9.871094 47.011719 8.539062 46.25 7.25 Z M 46.25 7.25 "/>
<path style=" stroke:none;fill-rule:evenodd;fill:rgb(87.058824%,66.666667%,25.098039%);fill-opacity:1;" d="M 58.75 7.75 C 58.097656 8.234375 57.761719 8.898438 57.75 9.75 C 54.183594 7.867188 50.351562 6.867188 46.25 6.75 C 43.363281 5.070312 43.613281 4.402344 47 4.75 C 51.101562 5.089844 55.019531 6.089844 58.75 7.75 Z M 58.75 7.75 "/>
<path style=" stroke:none;fill-rule:evenodd;fill:rgb(85.882353%,60%,16.078431%);fill-opacity:1;" d="M 58.75 7.75 C 60.875 8.710938 62.707031 10.046875 64.25 11.75 C 64.058594 12.464844 63.558594 12.882812 62.75 13 C 63.65625 13.519531 63.824219 14.105469 63.25 14.75 C 63.082031 14.75 62.917969 14.75 62.75 14.75 C 62.238281 14.074219 61.570312 13.824219 60.75 14 C 61.519531 14.554688 61.851562 15.304688 61.75 16.25 C 60.222656 16.445312 58.890625 16.113281 57.75 15.25 C 58.417969 15.25 59.082031 15.25 59.75 15.25 C 59.75 14.582031 59.75 13.917969 59.75 13.25 C 60.550781 13.34375 61.21875 13.09375 61.75 12.5 C 60.472656 11.449219 59.140625 10.535156 57.75 9.75 C 57.761719 8.898438 58.097656 8.234375 58.75 7.75 Z M 58.75 7.75 "/>
<path style=" stroke:none;fill-rule:evenodd;fill:rgb(95.686275%,75.294118%,29.019608%);fill-opacity:1;" d="M 57.75 9.75 C 59.140625 10.535156 60.472656 11.449219 61.75 12.5 C 61.21875 13.09375 60.550781 13.34375 59.75 13.25 C 59.75 13.917969 59.75 14.582031 59.75 15.25 C 59.082031 15.25 58.417969 15.25 57.75 15.25 C 57.019531 15.214844 56.355469 15.382812 55.75 15.75 C 53.570312 14.328125 51.234375 13.160156 48.75 12.25 C 48.351562 12.023438 48.183594 11.6875 48.25 11.25 C 48.140625 10.664062 48.308594 10.164062 48.75 9.75 C 51.308594 10.34375 53.890625 10.84375 56.5 11.25 C 57.9375 11.28125 58.355469 10.78125 57.75 9.75 Z M 57.75 9.75 "/>
<path style=" stroke:none;fill-rule:evenodd;fill:rgb(73.72549%,47.45098%,17.647059%);fill-opacity:1;" d="M 64.25 11.75 C 65.609375 12.957031 66.609375 14.457031 67.25 16.25 C 65.523438 16.859375 64.191406 16.359375 63.25 14.75 C 63.824219 14.105469 63.65625 13.519531 62.75 13 C 63.558594 12.882812 64.058594 12.464844 64.25 11.75 Z M 64.25 11.75 "/>
<path style=" stroke:none;fill-rule:evenodd;fill:rgb(69.411765%,44.313725%,9.803922%);fill-opacity:1;" d="M 46.75 12.75 C 48.429688 13.921875 50.265625 14.839844 52.25 15.5 C 52.855469 16.019531 53.355469 16.601562 53.75 17.25 C 50.222656 15.703125 46.558594 14.617188 42.75 14 C 43.671875 13.4375 44.671875 13.1875 45.75 13.25 C 46.246094 13.335938 46.578125 13.167969 46.75 12.75 Z M 46.75 12.75 "/>
<use xlink:href="#surface8" mask="url(#mask1)"/>
<path style=" stroke:none;fill-rule:evenodd;fill:rgb(70.196078%,38.039216%,24.313725%);fill-opacity:1;" d="M 83.25 14.25 C 83.25 14.75 83.25 15.25 83.25 15.75 C 78.582031 15.75 73.917969 15.75 69.25 15.75 C 69.25 14.917969 69.25 14.082031 69.25 13.25 C 71.179688 12.824219 73.261719 12.492188 75.5 12.25 C 78.242188 12.828125 80.824219 13.496094 83.25 14.25 Z M 83.25 14.25 "/>
<path style=" stroke:none;fill-rule:evenodd;fill:rgb(82.745098%,51.372549%,33.333333%);fill-opacity:1;" d="M 83.25 13.75 C 83.25 13.917969 83.25 14.082031 83.25 14.25 C 80.824219 13.496094 78.242188 12.828125 75.5 12.25 C 73.261719 12.492188 71.179688 12.824219 69.25 13.25 C 70.796875 10.851562 73.046875 9.683594 76 9.75 C 79.335938 9.519531 81.753906 10.855469 83.25 13.75 Z M 83.25 13.75 "/>
<path style=" stroke:none;fill-rule:evenodd;fill:rgb(42.352941%,36.078431%,25.882353%);fill-opacity:1;" d="M 56.25 4.75 C 56.28125 4.476562 56.445312 4.3125 56.75 4.25 C 58.332031 4.859375 59.832031 5.609375 61.25 6.5 C 59.535156 6.179688 57.871094 5.59375 56.25 4.75 Z M 56.25 4.75 "/>
<path style=" stroke:none;fill-rule:evenodd;fill:rgb(58.431373%,33.72549%,23.921569%);fill-opacity:1;" d="M 69.25 13.25 C 69.25 14.082031 69.25 14.917969 69.25 15.75 C 73.917969 15.75 78.582031 15.75 83.25 15.75 C 83.25 15.25 83.25 14.75 83.25 14.25 C 83.25 14.082031 83.25 13.917969 83.25 13.75 C 84.035156 14.550781 84.371094 15.550781 84.25 16.75 C 79.085938 16.46875 73.921875 16.21875 68.75 16 C 68.128906 14.941406 68.296875 14.023438 69.25 13.25 Z M 69.25 13.25 "/>
<path style=" stroke:none;fill-rule:evenodd;fill:rgb(66.27451%,43.529412%,14.901961%);fill-opacity:1;" d="M 62.75 14.75 C 62.601562 15.449219 62.433594 16.199219 62.25 17 C 60.816406 17.089844 59.484375 17.339844 58.25 17.75 C 57.125 17.460938 56.292969 16.792969 55.75 15.75 C 56.355469 15.382812 57.019531 15.214844 57.75 15.25 C 58.890625 16.113281 60.222656 16.445312 61.75 16.25 C 61.851562 15.304688 61.519531 14.554688 60.75 14 C 61.570312 13.824219 62.238281 14.074219 62.75 14.75 Z M 62.75 14.75 "/>
<path style=" stroke:none;fill-rule:evenodd;fill:rgb(97.254902%,82.745098%,37.254902%);fill-opacity:1;" d="M 35.75 11.75 C 35.710938 12.375 35.378906 12.792969 34.75 13 C 35.65625 12.976562 36.488281 13.058594 37.25 13.25 C 35.324219 14.480469 35.65625 15.0625 38.25 15 C 38.917969 15.5 39.582031 16 40.25 16.5 C 39.355469 16.707031 38.6875 17.207031 38.25 18 C 38.917969 18 39.582031 18 40.25 18 C 39.738281 19.15625 38.988281 19.40625 38 18.75 C 35.757812 19.605469 35.675781 20.019531 37.75 20 C 37.046875 20.632812 36.214844 20.882812 35.25 20.75 C 35.324219 21.277344 35.242188 21.777344 35 22.25 C 34.671875 21.652344 34.421875 21.652344 34.25 22.25 C 34.574219 23.214844 35.238281 23.800781 36.25 24 C 36.082031 24.832031 35.917969 25.667969 35.75 26.5 C 36.066406 28.066406 36.398438 29.648438 36.75 31.25 C 37.121094 32.175781 37.621094 32.507812 38.25 32.25 C 37.65625 32.925781 36.992188 33.511719 36.25 34 C 36.75 34.417969 37.25 34.832031 37.75 35.25 C 37.335938 35.691406 36.835938 35.859375 36.25 35.75 C 36.316406 35.3125 36.148438 34.976562 35.75 34.75 C 34.484375 34.445312 33.320312 34.777344 32.25 35.75 C 31.484375 34.578125 30.484375 34.492188 29.25 35.5 C 27.320312 37.675781 25.488281 39.925781 23.75 42.25 C 22.035156 42.703125 20.535156 43.535156 19.25 44.75 C 19.082031 44.582031 18.917969 44.417969 18.75 44.25 C 19.320312 43.460938 19.570312 42.628906 19.5 41.75 C 18.261719 41.703125 17.011719 42.035156 15.75 42.75 C 15.90625 41.144531 15.738281 39.644531 15.25 38.25 C 14.582031 38.25 13.917969 38.25 13.25 38.25 C 12.554688 39.910156 11.804688 41.574219 11 43.25 C 10.75 46.246094 10.667969 49.246094 10.75 52.25 C 10.171875 47.171875 10.085938 42.003906 10.5 36.75 C 11.527344 32.105469 13.777344 28.191406 17.25 25 C 19.117188 23.933594 21.117188 23.265625 23.25 23 C 25.765625 17.398438 29.933594 13.648438 35.75 11.75 Z M 35.75 11.75 "/>
<path style=" stroke:none;fill-rule:evenodd;fill:rgb(89.411765%,66.27451%,20.784314%);fill-opacity:1;" d="M 43.75 10.75 C 44.582031 10.75 45.417969 10.75 46.25 10.75 C 46.1875 11.609375 46.019531 12.441406 45.75 13.25 C 44.671875 13.1875 43.671875 13.4375 42.75 14 C 46.558594 14.617188 50.222656 15.703125 53.75 17.25 C 54.730469 17.488281 55.398438 18.070312 55.75 19 C 55.003906 20.328125 54.003906 21.414062 52.75 22.25 C 51.277344 21.648438 49.777344 21.148438 48.25 20.75 C 48.25 20.582031 48.25 20.417969 48.25 20.25 C 47.867188 19.867188 47.367188 19.617188 46.75 19.5 C 48.714844 19.296875 49.214844 18.382812 48.25 16.75 C 45.386719 15.695312 42.386719 15.109375 39.25 15 C 41.65625 14.507812 43.15625 13.09375 43.75 10.75 Z M 43.75 10.75 "/>
<path style=" stroke:none;fill-rule:evenodd;fill:rgb(69.411765%,38.431373%,19.607843%);fill-opacity:1;" d="M 85.75 19.75 C 86.929688 21.457031 88.347656 22.957031 90 24.25 C 90.527344 25.773438 90.613281 27.273438 90.25 28.75 C 89.902344 28.488281 89.652344 28.152344 89.5 27.75 C 89.300781 27.863281 89.21875 28.03125 89.25 28.25 C 88.347656 26.78125 87.429688 25.28125 86.5 23.75 C 83.199219 21.96875 79.78125 21.46875 76.25 22.25 C 73.902344 22.335938 71.570312 22.585938 69.25 23 C 68.339844 23.5 67.503906 24.082031 66.75 24.75 C 68.398438 22.390625 67.730469 21.390625 64.75 21.75 C 61.300781 21.933594 58.386719 23.265625 56 25.75 C 54.53125 28.523438 53.195312 31.355469 52 34.25 C 51.300781 34.613281 50.550781 34.863281 49.75 35 C 51.769531 35.085938 53.769531 35.335938 55.75 35.75 C 55.6875 36.054688 55.523438 36.21875 55.25 36.25 C 53.175781 35.835938 51.007812 35.585938 48.75 35.5 C 50.898438 31.457031 52.980469 27.371094 55 23.25 C 55.851562 22.480469 56.601562 21.648438 57.25 20.75 C 58.511719 20.035156 59.84375 19.453125 61.25 19 C 68.417969 18.667969 75.582031 18.667969 82.75 19 C 83.792969 19.15625 84.792969 19.40625 85.75 19.75 Z M 85.75 19.75 "/>
<path style=" stroke:none;fill-rule:evenodd;fill:rgb(85.098039%,56.862745%,16.862745%);fill-opacity:1;" d="M 48.25 20.25 C 48.25 20.417969 48.25 20.582031 48.25 20.75 C 49.667969 21.917969 51 23.167969 52.25 24.5 C 50.277344 28.859375 48.113281 33.109375 45.75 37.25 C 47.167969 37.289062 48.667969 37.375 50.25 37.5 C 49.136719 38.78125 48.21875 40.199219 47.5 41.75 C 46.714844 45.890625 45.632812 49.890625 44.25 53.75 C 44.3125 52.671875 44.0625 51.671875 43.5 50.75 C 42.964844 52.054688 42.546875 52.054688 42.25 50.75 C 43.394531 47.5 44.230469 44.164062 44.75 40.75 C 43.519531 40.890625 42.433594 41.390625 41.5 42.25 C 41.417969 42 41.332031 41.75 41.25 41.5 C 42.609375 38.339844 43.609375 35.089844 44.25 31.75 C 43.03125 31.660156 41.949219 31.992188 41 32.75 C 40.917969 32.582031 40.832031 32.417969 40.75 32.25 C 42.449219 29.964844 44.535156 28.132812 47 26.75 C 47.332031 26.417969 47.332031 26.082031 47 25.75 C 43.921875 24.335938 40.671875 23.585938 37.25 23.5 C 37.019531 23.292969 36.855469 23.042969 36.75 22.75 C 37.5 21.789062 38.5 21.207031 39.75 21 C 42.5625 20.484375 45.394531 20.234375 48.25 20.25 Z M 48.25 20.25 "/>
<path style=" stroke:none;fill-rule:evenodd;fill:rgb(9.803922%,3.921569%,1.960784%);fill-opacity:1;" d="M 46.25 7.25 C 47.011719 8.539062 47.679688 9.871094 48.25 11.25 C 48.183594 11.6875 48.351562 12.023438 48.75 12.25 C 51.234375 13.160156 53.570312 14.328125 55.75 15.75 C 56.292969 16.792969 57.125 17.460938 58.25 17.75 C 57.714844 18.21875 57.050781 18.382812 56.25 18.25 C 56.183594 19.277344 56.515625 20.109375 57.25 20.75 C 56.601562 21.648438 55.851562 22.480469 55 23.25 C 52.980469 27.371094 50.898438 31.457031 48.75 35.5 C 51.007812 35.585938 53.175781 35.835938 55.25 36.25 C 54.75 36.582031 54.25 36.917969 53.75 37.25 C 52.085938 38.5 50.667969 40 49.5 41.75 C 48.566406 46.128906 47.484375 50.460938 46.25 54.75 C 47.25 54.75 48.25 54.75 49.25 54.75 C 48.445312 57.023438 47.363281 59.191406 46 61.25 C 45.335938 69.585938 48.417969 76.085938 55.25 80.75 C 57.605469 82.128906 60.105469 83.128906 62.75 83.75 C 59.59375 83.574219 59.425781 84.074219 62.25 85.25 C 59.011719 84.949219 56.011719 83.949219 53.25 82.25 C 53.082031 82.417969 52.917969 82.582031 52.75 82.75 C 53.707031 84.828125 54.789062 86.828125 56 88.75 C 56.332031 89.25 56.332031 89.75 56 90.25 C 54.625 88.632812 53.375 86.964844 52.25 85.25 C 52.097656 83.738281 51.847656 82.238281 51.5 80.75 C 49.972656 79.054688 48.640625 77.222656 47.5 75.25 C 47.230469 76.644531 46.8125 77.980469 46.25 79.25 C 45.832031 79.078125 45.664062 78.746094 45.75 78.25 C 45.832031 76.242188 45.75 74.242188 45.5 72.25 C 44 68.507812 43.582031 64.671875 44.25 60.75 C 45.496094 59.4375 45.996094 57.9375 45.75 56.25 C 43.75 57.417969 42.082031 58.917969 40.75 60.75 C 41.894531 58.429688 43.058594 56.097656 44.25 53.75 C 45.632812 49.890625 46.714844 45.890625 47.5 41.75 C 48.21875 40.199219 49.136719 38.78125 50.25 37.5 C 48.667969 37.375 47.167969 37.289062 45.75 37.25 C 48.113281 33.109375 50.277344 28.859375 52.25 24.5 C 51 23.167969 49.667969 21.917969 48.25 20.75 C 49.777344 21.148438 51.277344 21.648438 52.75 22.25 C 54.003906 21.414062 55.003906 20.328125 55.75 19 C 55.398438 18.070312 54.730469 17.488281 53.75 17.25 C 53.355469 16.601562 52.855469 16.019531 52.25 15.5 C 50.265625 14.839844 48.429688 13.921875 46.75 12.75 C 46.75 11.75 46.75 10.75 46.75 9.75 C 44.960938 9.726562 43.292969 9.390625 41.75 8.75 C 43.316406 8.484375 44.816406 7.984375 46.25 7.25 Z M 46.25 7.25 "/>
<path style=" stroke:none;fill-rule:evenodd;fill:rgb(96.862745%,81.176471%,34.117647%);fill-opacity:1;" d="M 43.75 10.75 C 43.15625 13.09375 41.65625 14.507812 39.25 15 C 42.386719 15.109375 45.386719 15.695312 48.25 16.75 C 49.214844 18.382812 48.714844 19.296875 46.75 19.5 C 47.367188 19.617188 47.867188 19.867188 48.25 20.25 C 45.394531 20.234375 42.5625 20.484375 39.75 21 C 38.5 21.207031 37.5 21.789062 36.75 22.75 C 36.855469 23.042969 37.019531 23.292969 37.25 23.5 C 40.671875 23.585938 43.921875 24.335938 47 25.75 C 47.332031 26.082031 47.332031 26.417969 47 26.75 C 44.535156 28.132812 42.449219 29.964844 40.75 32.25 C 40.832031 32.417969 40.917969 32.582031 41 32.75 C 41.949219 31.992188 43.03125 31.660156 44.25 31.75 C 43.609375 35.089844 42.609375 38.339844 41.25 41.5 C 41.332031 41.75 41.417969 42 41.5 42.25 C 42.433594 41.390625 43.519531 40.890625 44.75 40.75 C 44.230469 44.164062 43.394531 47.5 42.25 50.75 C 41.828125 51.90625 41.328125 53.074219 40.75 54.25 C 40.207031 54.191406 39.875 53.855469 39.75 53.25 C 40.367188 52.476562 40.617188 51.640625 40.5 50.75 C 40 52.082031 39.5 52.082031 39 50.75 C 38.832031 50.917969 38.667969 51.082031 38.5 51.25 C 38.300781 50.5625 38.050781 49.898438 37.75 49.25 C 37.660156 46.980469 37.828125 44.648438 38.25 42.25 C 37.058594 40.859375 37.058594 39.527344 38.25 38.25 C 37.863281 37.644531 37.445312 37.644531 37 38.25 C 36.65625 37.609375 36.742188 37.023438 37.25 36.5 C 36.792969 36.359375 36.457031 36.109375 36.25 35.75 C 36.835938 35.859375 37.335938 35.691406 37.75 35.25 C 37.25 34.832031 36.75 34.417969 36.25 34 C 36.992188 33.511719 37.65625 32.925781 38.25 32.25 C 37.621094 32.507812 37.121094 32.175781 36.75 31.25 C 36.398438 29.648438 36.066406 28.066406 35.75 26.5 C 35.917969 25.667969 36.082031 24.832031 36.25 24 C 35.238281 23.800781 34.574219 23.214844 34.25 22.25 C 34.421875 21.652344 34.671875 21.652344 35 22.25 C 35.242188 21.777344 35.324219 21.277344 35.25 20.75 C 36.214844 20.882812 37.046875 20.632812 37.75 20 C 35.675781 20.019531 35.757812 19.605469 38 18.75 C 38.988281 19.40625 39.738281 19.15625 40.25 18 C 39.582031 18 38.917969 18 38.25 18 C 38.6875 17.207031 39.355469 16.707031 40.25 16.5 C 39.582031 16 38.917969 15.5 38.25 15 C 35.65625 15.0625 35.324219 14.480469 37.25 13.25 C 36.488281 13.058594 35.65625 12.976562 34.75 13 C 35.378906 12.792969 35.710938 12.375 35.75 11.75 C 38.347656 10.957031 41.015625 10.625 43.75 10.75 Z M 43.75 10.75 "/>
<use xlink:href="#surface11" mask="url(#mask2)"/>
<path style=" stroke:none;fill-rule:evenodd;fill:rgb(95.686275%,62.745098%,32.156863%);fill-opacity:1;" d="M 66.75 24.75 C 63.289062 27.578125 61.957031 31.242188 62.75 35.75 C 61.695312 33.363281 61.53125 30.863281 62.25 28.25 C 61.65625 27.785156 60.988281 27.617188 60.25 27.75 C 60.125 29.835938 59.125 31.335938 57.25 32.25 C 57.421875 32.847656 57.671875 32.847656 58 32.25 C 58.125 33.214844 58.375 34.132812 58.75 35 C 56.285156 37.347656 54.121094 39.929688 52.25 42.75 C 52.476562 40.882812 53.308594 39.300781 54.75 38 C 54.292969 37.859375 53.960938 37.609375 53.75 37.25 C 54.25 36.917969 54.75 36.582031 55.25 36.25 C 55.523438 36.21875 55.6875 36.054688 55.75 35.75 C 53.769531 35.335938 51.769531 35.085938 49.75 35 C 50.550781 34.863281 51.300781 34.613281 52 34.25 C 53.195312 31.355469 54.53125 28.523438 56 25.75 C 58.386719 23.265625 61.300781 21.933594 64.75 21.75 C 67.730469 21.390625 68.398438 22.390625 66.75 24.75 Z M 66.75 24.75 "/>
<path style=" stroke:none;fill-rule:evenodd;fill:rgb(60.784314%,34.901961%,21.568627%);fill-opacity:1;" d="M 85.75 19.75 C 89.179688 21.179688 91.347656 23.679688 92.25 27.25 C 93.199219 31.878906 94.53125 36.378906 96.25 40.75 C 95.238281 40.859375 94.070312 40.859375 92.75 40.75 C 92.960938 40.390625 93.292969 40.140625 93.75 40 C 91.804688 36.25 90.304688 32.332031 89.25 28.25 C 89.21875 28.03125 89.300781 27.863281 89.5 27.75 C 89.652344 28.152344 89.902344 28.488281 90.25 28.75 C 90.613281 27.273438 90.527344 25.773438 90 24.25 C 88.347656 22.957031 86.929688 21.457031 85.75 19.75 Z M 85.75 19.75 "/>
<path style=" stroke:none;fill-rule:evenodd;fill:rgb(69.803922%,40.392157%,23.921569%);fill-opacity:1;" d="M 76.25 22.25 C 81.152344 22.066406 84.070312 24.398438 85 29.25 C 86.855469 37.207031 83.9375 42.457031 76.25 45 C 73.898438 45.324219 71.566406 45.242188 69.25 44.75 C 66.328125 42.324219 64.160156 39.324219 62.75 35.75 C 61.957031 31.242188 63.289062 27.578125 66.75 24.75 C 67.503906 24.082031 68.339844 23.5 69.25 23 C 71.570312 22.585938 73.902344 22.335938 76.25 22.25 Z M 76.25 22.25 "/>
<path style=" stroke:none;fill-rule:evenodd;fill:rgb(2.352941%,0.392157%,0.392157%);fill-opacity:1;" d="M 70.75 23.25 C 78.15625 22.082031 82.320312 25.164062 83.25 32.5 C 82.5 40.257812 78.332031 43.421875 70.75 42 C 64.03125 37.378906 63.03125 31.792969 67.75 25.25 C 68.78125 24.570312 69.78125 23.90625 70.75 23.25 Z M 70.75 23.25 "/>
<path style=" stroke:none;fill-rule:evenodd;fill:rgb(97.254902%,83.921569%,41.568627%);fill-opacity:1;" d="M 32.25 35.75 C 31.617188 37.035156 30.953125 37.035156 30.25 35.75 C 29.289062 36.734375 29.289062 37.484375 30.25 38 C 29.96875 38.839844 29.46875 39.503906 28.75 40 C 28.917969 40.5 29.082031 41 29.25 41.5 C 28.835938 42.34375 28.335938 42.425781 27.75 41.75 C 27.132812 42.324219 27.132812 42.910156 27.75 43.5 C 27.007812 43.988281 26.34375 44.574219 25.75 45.25 C 26.347656 45.46875 26.933594 45.636719 27.5 45.75 C 27.445312 48.140625 27.863281 50.308594 28.75 52.25 C 28.15625 52.683594 27.574219 53.183594 27 53.75 C 26.945312 51.910156 26.945312 50.078125 27 48.25 C 26.242188 51.828125 25.328125 55.328125 24.25 58.75 C 22.925781 56.359375 21.839844 53.859375 21 51.25 C 20.199219 49.863281 19.113281 49.53125 17.75 50.25 C 16.050781 53.261719 15.800781 56.429688 17 59.75 C 17.574219 60.316406 18.15625 60.816406 18.75 61.25 C 17.144531 61.40625 15.644531 61.238281 14.25 60.75 C 14.621094 60.816406 14.953125 60.730469 15.25 60.5 C 14.808594 60.144531 14.476562 59.730469 14.25 59.25 C 14.144531 52.332031 14.480469 45.332031 15.25 38.25 C 15.738281 39.644531 15.90625 41.144531 15.75 42.75 C 17.011719 42.035156 18.261719 41.703125 19.5 41.75 C 19.570312 42.628906 19.320312 43.460938 18.75 44.25 C 18.917969 44.417969 19.082031 44.582031 19.25 44.75 C 20.535156 43.535156 22.035156 42.703125 23.75 42.25 C 25.488281 39.925781 27.320312 37.675781 29.25 35.5 C 30.484375 34.492188 31.484375 34.578125 32.25 35.75 Z M 32.25 35.75 "/>
<path style=" stroke:none;fill-rule:evenodd;fill:rgb(97.254902%,82.745098%,38.039216%);fill-opacity:1;" d="M 36.25 35.75 C 36.457031 36.109375 36.792969 36.359375 37.25 36.5 C 36.742188 37.023438 36.65625 37.609375 37 38.25 C 37.445312 37.644531 37.863281 37.644531 38.25 38.25 C 37.058594 39.527344 37.058594 40.859375 38.25 42.25 C 37.828125 44.648438 37.660156 46.980469 37.75 49.25 C 38.050781 49.898438 38.300781 50.5625 38.5 51.25 C 38.667969 51.082031 38.832031 50.917969 39 50.75 C 39.5 52.082031 40 52.082031 40.5 50.75 C 40.617188 51.640625 40.367188 52.476562 39.75 53.25 C 39.875 53.855469 40.207031 54.191406 40.75 54.25 C 40.316406 55.6875 39.648438 57.023438 38.75 58.25 C 39.191406 58.773438 39.523438 59.359375 39.75 60 C 38.046875 62.632812 37.960938 65.214844 39.5 67.75 C 39.855469 67.308594 40.269531 66.976562 40.75 66.75 C 42.367188 70.347656 43.53125 74.097656 44.25 78 C 43.992188 79.804688 43.328125 81.390625 42.25 82.75 C 43.175781 80.164062 43.425781 77.496094 43 74.75 C 42.105469 73.496094 41.355469 72.164062 40.75 70.75 C 40.035156 69.675781 39.117188 69.511719 38 70.25 C 37.421875 69.628906 36.757812 69.128906 36 68.75 C 35.878906 65.304688 36.464844 61.972656 37.75 58.75 C 37.582031 58.417969 37.417969 58.082031 37.25 57.75 C 35.550781 58.21875 34.300781 59.21875 33.5 60.75 C 33.253906 60.101562 33.171875 59.4375 33.25 58.75 C 32.4375 58.679688 31.855469 59.011719 31.5 59.75 C 31.023438 59.210938 30.605469 58.628906 30.25 58 C 30.734375 55.632812 30.902344 53.214844 30.75 50.75 C 30.082031 50.75 29.417969 50.75 28.75 50.75 C 28.75 51.25 28.75 51.75 28.75 52.25 C 27.863281 50.308594 27.445312 48.140625 27.5 45.75 C 26.933594 45.636719 26.347656 45.46875 25.75 45.25 C 26.34375 44.574219 27.007812 43.988281 27.75 43.5 C 27.132812 42.910156 27.132812 42.324219 27.75 41.75 C 28.335938 42.425781 28.835938 42.34375 29.25 41.5 C 29.082031 41 28.917969 40.5 28.75 40 C 29.46875 39.503906 29.96875 38.839844 30.25 38 C 29.289062 37.484375 29.289062 36.734375 30.25 35.75 C 30.953125 37.035156 31.617188 37.035156 32.25 35.75 C 33.320312 34.777344 34.484375 34.445312 35.75 34.75 C 36.148438 34.976562 36.316406 35.3125 36.25 35.75 Z M 36.25 35.75 "/>
<path style=" stroke:none;fill-rule:evenodd;fill:rgb(98.823529%,69.019608%,36.470588%);fill-opacity:1;" d="M 62.75 35.75 C 64.160156 39.324219 66.328125 42.324219 69.25 44.75 C 68.492188 50.25 67.824219 55.417969 67.25 60.25 C 66.722656 60.175781 66.222656 60.257812 65.75 60.5 C 66.125 60.835938 66.292969 61.253906 66.25 61.75 C 65.203125 63.132812 64.367188 64.632812 63.75 66.25 C 63.101562 66.921875 62.6875 67.753906 62.5 68.75 C 62.042969 71.242188 61.875 73.742188 62 76.25 C 62.167969 76.082031 62.332031 75.917969 62.5 75.75 C 64.0625 76.464844 64.730469 77.632812 64.5 79.25 C 64.332031 79.082031 64.167969 78.917969 64 78.75 C 63.292969 79.707031 62.375 80.375 61.25 80.75 C 60.644531 80.363281 60.644531 79.945312 61.25 79.5 C 60.601562 79.253906 59.9375 79.171875 59.25 79.25 C 60.207031 78.894531 61.039062 78.3125 61.75 77.5 C 61.007812 74.960938 60.507812 72.378906 60.25 69.75 C 61.527344 68.378906 62.527344 66.796875 63.25 65 C 63.023438 64.792969 62.855469 64.542969 62.75 64.25 C 63.015625 62.332031 63.679688 60.582031 64.75 59 C 64.574219 58.371094 64.242188 58.203125 63.75 58.5 C 61.414062 60.757812 60.078125 63.507812 59.75 66.75 C 59.175781 65.136719 58.59375 63.472656 58 61.75 C 56.824219 59.664062 55.324219 59.328125 53.5 60.75 C 51.855469 63.34375 51.023438 66.179688 51 69.25 C 50.523438 68.3125 49.941406 68.148438 49.25 68.75 C 49.003906 68.003906 48.671875 67.335938 48.25 66.75 C 48.167969 65.242188 48.25 63.742188 48.5 62.25 C 50.136719 59.445312 51.554688 56.527344 52.75 53.5 C 52.101562 53.253906 51.4375 53.171875 50.75 53.25 C 51.175781 50.484375 52.339844 48.066406 54.25 46 C 53.382812 45.675781 52.550781 45.757812 51.75 46.25 C 51.582031 46 51.417969 45.75 51.25 45.5 C 51.660156 44.601562 51.992188 43.683594 52.25 42.75 C 54.121094 39.929688 56.285156 37.347656 58.75 35 C 58.375 34.132812 58.125 33.214844 58 32.25 C 57.671875 32.847656 57.421875 32.847656 57.25 32.25 C 59.125 31.335938 60.125 29.835938 60.25 27.75 C 60.988281 27.617188 61.65625 27.785156 62.25 28.25 C 61.53125 30.863281 61.695312 33.363281 62.75 35.75 Z M 62.75 35.75 "/>
<use xlink:href="#surface14" mask="url(#mask3)"/>
<path style=" stroke:none;fill-rule:evenodd;fill:rgb(66.666667%,36.470588%,24.705882%);fill-opacity:1;" d="M 95.25 29.75 C 102.011719 29.015625 105.179688 32.015625 104.75 38.75 C 102.578125 38.832031 100.410156 38.75 98.25 38.5 C 96.617188 35.816406 95.617188 32.898438 95.25 29.75 Z M 95.25 29.75 "/>
<use xlink:href="#surface17" mask="url(#mask4)"/>
<path style=" stroke:none;fill-rule:evenodd;fill:rgb(34.117647%,18.431373%,11.764706%);fill-opacity:1;" d="M 92.75 40.75 C 94.070312 40.859375 95.238281 40.859375 96.25 40.75 C 96.71875 41.285156 96.882812 41.949219 96.75 42.75 C 95.980469 42.351562 95.144531 42.183594 94.25 42.25 C 93.25 42.082031 92.25 41.917969 91.25 41.75 C 91.410156 40.976562 91.910156 40.644531 92.75 40.75 Z M 92.75 40.75 "/>
<path style=" stroke:none;fill-rule:evenodd;fill:rgb(88.627451%,86.666667%,85.490196%);fill-opacity:1;" d="M 101.25 41.75 C 102.988281 41.59375 104.65625 41.84375 106.25 42.5 C 107.488281 43.46875 107.574219 44.550781 106.5 45.75 C 103.851562 47.230469 101.351562 47.0625 99 45.25 C 98.667969 44.582031 98.667969 43.917969 99 43.25 C 99.824219 42.800781 100.574219 42.300781 101.25 41.75 Z M 101.25 41.75 "/>
<path style=" stroke:none;fill-rule:evenodd;fill:rgb(94.117647%,63.921569%,36.078431%);fill-opacity:1;" d="M 76.25 22.25 C 79.78125 21.46875 83.199219 21.96875 86.5 23.75 C 87.429688 25.28125 88.347656 26.78125 89.25 28.25 C 90.304688 32.332031 91.804688 36.25 93.75 40 C 93.292969 40.140625 92.960938 40.390625 92.75 40.75 C 91.910156 40.644531 91.410156 40.976562 91.25 41.75 C 90.566406 40.824219 89.734375 40.65625 88.75 41.25 C 89.011719 41.597656 89.347656 41.847656 89.75 42 C 88.917969 42.5 88.082031 43 87.25 43.5 C 88.097656 44.199219 88.429688 45.117188 88.25 46.25 C 87.429688 46.261719 86.761719 45.925781 86.25 45.25 C 85.652344 45.421875 85.652344 45.671875 86.25 46 C 84.777344 46.054688 84.109375 46.804688 84.25 48.25 C 82.945312 48.722656 81.945312 49.554688 81.25 50.75 C 80.929688 51.046875 80.765625 51.464844 80.75 52 C 80.984375 52.945312 81.484375 53.695312 82.25 54.25 C 82.144531 54.542969 81.976562 54.792969 81.75 55 C 82.355469 55.519531 82.855469 56.101562 83.25 56.75 C 83.03125 56.71875 82.863281 56.800781 82.75 57 C 84.398438 59.195312 85.3125 61.613281 85.5 64.25 C 85.332031 63.917969 85.167969 63.582031 85 63.25 C 84.800781 63.363281 84.71875 63.53125 84.75 63.75 C 83.246094 61.152344 81.078125 59.234375 78.25 58 C 75.75 57.667969 73.25 57.667969 70.75 58 C 69.671875 58.496094 68.835938 59.246094 68.25 60.25 C 67.582031 60.75 66.917969 61.25 66.25 61.75 C 66.292969 61.253906 66.125 60.835938 65.75 60.5 C 66.222656 60.257812 66.722656 60.175781 67.25 60.25 C 67.824219 55.417969 68.492188 50.25 69.25 44.75 C 71.566406 45.242188 73.898438 45.324219 76.25 45 C 83.9375 42.457031 86.855469 37.207031 85 29.25 C 84.070312 24.398438 81.152344 22.066406 76.25 22.25 Z M 76.25 22.25 "/>
<path style=" stroke:none;fill-rule:evenodd;fill:rgb(62.352941%,35.686275%,18.823529%);fill-opacity:1;" d="M 88.25 34.75 C 89.242188 36.207031 89.324219 37.707031 88.5 39.25 C 88.066406 38.945312 87.816406 38.53125 87.75 38 C 88.144531 36.949219 88.308594 35.867188 88.25 34.75 Z M 88.25 34.75 "/>
<path style=" stroke:none;fill-rule:evenodd;fill:rgb(5.490196%,1.568627%,1.568627%);fill-opacity:1;" d="M 81.25 50.75 C 81.945312 49.554688 82.945312 48.722656 84.25 48.25 C 85.5 47.0625 87 46.5625 88.75 46.75 C 88.75 49.75 88.75 52.75 88.75 55.75 C 86.238281 55.078125 83.902344 53.992188 81.75 52.5 C 81.332031 51.996094 81.164062 51.410156 81.25 50.75 Z M 81.25 50.75 "/>
<path style=" stroke:none;fill-rule:evenodd;fill:rgb(76.470588%,47.45098%,27.843137%);fill-opacity:1;" d="M 94.25 42.25 C 95.144531 42.183594 95.980469 42.351562 96.75 42.75 C 96.667969 44.589844 96.75 46.425781 97 48.25 C 97.191406 48.527344 97.441406 48.695312 97.75 48.75 C 98.203125 50.195312 98.367188 51.695312 98.25 53.25 C 97.417969 54.25 96.582031 55.25 95.75 56.25 C 95.050781 53.632812 94.382812 50.964844 93.75 48.25 C 94.382812 46.527344 94.882812 44.777344 95.25 43 C 94.792969 42.859375 94.460938 42.609375 94.25 42.25 Z M 94.25 42.25 "/>
<path style=" stroke:none;fill-rule:evenodd;fill:rgb(46.666667%,22.352941%,16.078431%);fill-opacity:1;" d="M 97.75 48.75 C 98.25 48.75 98.75 48.75 99.25 48.75 C 99.25 50.25 99.25 51.75 99.25 53.25 C 98.917969 53.25 98.582031 53.25 98.25 53.25 C 98.367188 51.695312 98.203125 50.195312 97.75 48.75 Z M 97.75 48.75 "/>
<path style=" stroke:none;fill-rule:evenodd;fill:rgb(80%,48.627451%,30.196078%);fill-opacity:1;" d="M 99.25 48.75 C 100.601562 48.789062 101.9375 48.953125 103.25 49.25 C 103.917969 50.582031 103.917969 51.917969 103.25 53.25 C 101.824219 53.628906 100.492188 53.628906 99.25 53.25 C 99.25 51.75 99.25 50.25 99.25 48.75 Z M 99.25 48.75 "/>
<path style=" stroke:none;fill-rule:evenodd;fill:rgb(54.901961%,30.588235%,19.607843%);fill-opacity:1;" d="M 103.25 49.25 C 104.058594 49.519531 104.890625 49.6875 105.75 49.75 C 106.257812 51.90625 105.421875 53.074219 103.25 53.25 C 103.917969 51.917969 103.917969 50.582031 103.25 49.25 Z M 103.25 49.25 "/>
<path style=" stroke:none;fill-rule:evenodd;fill:rgb(98.431373%,89.019608%,62.352941%);fill-opacity:1;" d="M 28.75 52.25 C 29.074219 51.953125 29.410156 51.621094 29.75 51.25 C 29.917969 51.917969 30.082031 52.582031 30.25 53.25 C 29.917969 55.238281 29.75 57.238281 29.75 59.25 C 29.070312 58.6875 28.402344 58.6875 27.75 59.25 C 27.03125 60.1875 26.449219 61.1875 26 62.25 C 25.582031 61.832031 25.167969 61.417969 24.75 61 C 22.722656 60.652344 20.722656 60.738281 18.75 61.25 C 18.15625 60.816406 17.574219 60.316406 17 59.75 C 15.800781 56.429688 16.050781 53.261719 17.75 50.25 C 19.113281 49.53125 20.199219 49.863281 21 51.25 C 21.839844 53.859375 22.925781 56.359375 24.25 58.75 C 25.328125 55.328125 26.242188 51.828125 27 48.25 C 26.945312 50.078125 26.945312 51.910156 27 53.75 C 27.574219 53.183594 28.15625 52.683594 28.75 52.25 Z M 28.75 52.25 "/>
<path style=" stroke:none;fill-rule:evenodd;fill:rgb(98.431373%,90.196078%,64.705882%);fill-opacity:1;" d="M 15.25 38.25 C 14.480469 45.332031 14.144531 52.332031 14.25 59.25 C 12.804688 58.230469 11.804688 56.898438 11.25 55.25 C 10.925781 54.28125 10.757812 53.28125 10.75 52.25 C 10.667969 49.246094 10.75 46.246094 11 43.25 C 11.804688 41.574219 12.554688 39.910156 13.25 38.25 C 13.917969 38.25 14.582031 38.25 15.25 38.25 Z M 15.25 38.25 "/>
<path style=" stroke:none;fill-rule:evenodd;fill:rgb(90.980392%,68.627451%,21.960784%);fill-opacity:1;" d="M 11.25 55.25 C 11.804688 56.898438 12.804688 58.230469 14.25 59.25 C 14.476562 59.730469 14.808594 60.144531 15.25 60.5 C 14.953125 60.730469 14.621094 60.816406 14.25 60.75 C 12.859375 60.859375 11.527344 60.695312 10.25 60.25 C 7.929688 58.929688 6.097656 57.097656 4.75 54.75 C 4.683594 54.3125 4.851562 53.976562 5.25 53.75 C 5.582031 54.25 5.917969 54.75 6.25 55.25 C 7.273438 54.324219 8.355469 53.988281 9.5 54.25 C 9.667969 53.75 9.832031 53.25 10 52.75 C 10.023438 53.871094 10.441406 54.707031 11.25 55.25 Z M 11.25 55.25 "/>
<path style=" stroke:none;fill-rule:evenodd;fill:rgb(92.156863%,60.784314%,35.294118%);fill-opacity:1;" d="M 91.25 41.75 C 92.25 41.917969 93.25 42.082031 94.25 42.25 C 94.460938 42.609375 94.792969 42.859375 95.25 43 C 94.882812 44.777344 94.382812 46.527344 93.75 48.25 C 94.382812 50.964844 95.050781 53.632812 95.75 56.25 C 95.917969 56.582031 96.082031 56.917969 96.25 57.25 C 93.558594 61.3125 91.976562 65.8125 91.5 70.75 C 91.121094 71.65625 90.703125 72.492188 90.25 73.25 C 89.257812 73.078125 88.589844 73.410156 88.25 74.25 C 88.121094 71.417969 87.953125 68.585938 87.75 65.75 C 87.542969 62.058594 86.042969 59.058594 83.25 56.75 C 82.855469 56.101562 82.355469 55.519531 81.75 55 C 81.976562 54.792969 82.144531 54.542969 82.25 54.25 C 81.484375 53.695312 80.984375 52.945312 80.75 52 C 80.765625 51.464844 80.929688 51.046875 81.25 50.75 C 81.164062 51.410156 81.332031 51.996094 81.75 52.5 C 83.902344 53.992188 86.238281 55.078125 88.75 55.75 C 88.75 52.75 88.75 49.75 88.75 46.75 C 87 46.5625 85.5 47.0625 84.25 48.25 C 84.109375 46.804688 84.777344 46.054688 86.25 46 C 85.652344 45.671875 85.652344 45.421875 86.25 45.25 C 86.761719 45.925781 87.429688 46.261719 88.25 46.25 C 88.429688 45.117188 88.097656 44.199219 87.25 43.5 C 88.082031 43 88.917969 42.5 89.75 42 C 89.347656 41.847656 89.011719 41.597656 88.75 41.25 C 89.734375 40.65625 90.566406 40.824219 91.25 41.75 Z M 91.25 41.75 "/>
<path style=" stroke:none;fill-rule:evenodd;fill:rgb(98.039216%,85.098039%,45.882353%);fill-opacity:1;" d="M 40.75 70.75 C 38.78125 70.640625 36.949219 70.890625 35.25 71.5 C 34.636719 70.132812 34.136719 68.714844 33.75 67.25 C 33.582031 67.082031 33.417969 66.917969 33.25 66.75 C 32.917969 67.082031 32.582031 67.417969 32.25 67.75 C 31.742188 67.15625 31.15625 66.65625 30.5 66.25 C 30.410156 64.488281 30.160156 62.820312 29.75 61.25 C 29.75 60.582031 29.75 59.917969 29.75 59.25 C 29.75 57.238281 29.917969 55.238281 30.25 53.25 C 30.082031 52.582031 29.917969 51.917969 29.75 51.25 C 29.410156 51.621094 29.074219 51.953125 28.75 52.25 C 28.75 51.75 28.75 51.25 28.75 50.75 C 29.417969 50.75 30.082031 50.75 30.75 50.75 C 30.902344 53.214844 30.734375 55.632812 30.25 58 C 30.605469 58.628906 31.023438 59.210938 31.5 59.75 C 31.855469 59.011719 32.4375 58.679688 33.25 58.75 C 33.171875 59.4375 33.253906 60.101562 33.5 60.75 C 34.300781 59.21875 35.550781 58.21875 37.25 57.75 C 37.417969 58.082031 37.582031 58.417969 37.75 58.75 C 36.464844 61.972656 35.878906 65.304688 36 68.75 C 36.757812 69.128906 37.421875 69.628906 38 70.25 C 39.117188 69.511719 40.035156 69.675781 40.75 70.75 Z M 40.75 70.75 "/>
<path style=" stroke:none;fill-rule:evenodd;fill:rgb(90.980392%,70.980392%,27.45098%);fill-opacity:1;" d="M 42.25 50.75 C 42.546875 52.054688 42.964844 52.054688 43.5 50.75 C 44.0625 51.671875 44.3125 52.671875 44.25 53.75 C 43.058594 56.097656 41.894531 58.429688 40.75 60.75 C 39.769531 61.710938 39.351562 62.878906 39.5 64.25 C 39.6875 63.527344 40.105469 63.027344 40.75 62.75 C 40.75 64.082031 40.75 65.417969 40.75 66.75 C 40.269531 66.976562 39.855469 67.308594 39.5 67.75 C 37.960938 65.214844 38.046875 62.632812 39.75 60 C 39.523438 59.359375 39.191406 58.773438 38.75 58.25 C 39.648438 57.023438 40.316406 55.6875 40.75 54.25 C 41.328125 53.074219 41.828125 51.90625 42.25 50.75 Z M 42.25 50.75 "/>
<path style=" stroke:none;fill-rule:evenodd;fill:rgb(72.156863%,48.627451%,16.470588%);fill-opacity:1;" d="M 44.25 60.75 C 44.363281 59.824219 44.03125 59.40625 43.25 59.5 C 42.632812 60.820312 41.800781 61.902344 40.75 62.75 C 40.105469 63.027344 39.6875 63.527344 39.5 64.25 C 39.351562 62.878906 39.769531 61.710938 40.75 60.75 C 42.082031 58.917969 43.75 57.417969 45.75 56.25 C 45.996094 57.9375 45.496094 59.4375 44.25 60.75 Z M 44.25 60.75 "/>
<path style=" stroke:none;fill-rule:evenodd;fill:rgb(76.862745%,41.960784%,21.960784%);fill-opacity:1;" d="M 53.75 37.25 C 53.960938 37.609375 54.292969 37.859375 54.75 38 C 53.308594 39.300781 52.476562 40.882812 52.25 42.75 C 51.992188 43.683594 51.660156 44.601562 51.25 45.5 C 51.417969 45.75 51.582031 46 51.75 46.25 C 52.550781 45.757812 53.382812 45.675781 54.25 46 C 52.339844 48.066406 51.175781 50.484375 50.75 53.25 C 51.4375 53.171875 52.101562 53.253906 52.75 53.5 C 51.554688 56.527344 50.136719 59.445312 48.5 62.25 C 48.25 63.742188 48.167969 65.242188 48.25 66.75 C 47.9375 66.957031 47.769531 67.292969 47.75 67.75 C 48.351562 69.96875 49.101562 72.136719 50 74.25 C 51.988281 76.226562 53.738281 78.390625 55.25 80.75 C 48.417969 76.085938 45.335938 69.585938 46 61.25 C 47.363281 59.191406 48.445312 57.023438 49.25 54.75 C 48.25 54.75 47.25 54.75 46.25 54.75 C 47.484375 50.460938 48.566406 46.128906 49.5 41.75 C 50.667969 40 52.085938 38.5 53.75 37.25 Z M 53.75 37.25 "/>
<path style=" stroke:none;fill-rule:evenodd;fill:rgb(89.803922%,87.058824%,83.137255%);fill-opacity:1;" d="M 100.75 55.75 C 102.257812 55.667969 103.757812 55.75 105.25 56 C 107.929688 57.667969 107.761719 59.167969 104.75 60.5 C 102.183594 60.925781 100.183594 60.089844 98.75 58 C 99.171875 56.996094 99.839844 56.246094 100.75 55.75 Z M 100.75 55.75 "/>
<path style=" stroke:none;fill-rule:evenodd;fill:rgb(98.039216%,85.098039%,57.647059%);fill-opacity:1;" d="M 3.75 54.75 C 4.082031 54.75 4.417969 54.75 4.75 54.75 C 6.097656 57.097656 7.929688 58.929688 10.25 60.25 C 9.722656 60.175781 9.222656 60.257812 8.75 60.5 C 9.167969 61.003906 9.335938 61.589844 9.25 62.25 C 10.089844 62.140625 10.589844 62.476562 10.75 63.25 C 9.007812 62.765625 7.589844 61.765625 6.5 60.25 C 5.820312 58.550781 4.90625 57.050781 3.75 55.75 C 3.75 55.417969 3.75 55.082031 3.75 54.75 Z M 3.75 54.75 "/>
<path style=" stroke:none;fill-rule:evenodd;fill:rgb(2.352941%,0.392157%,0.392157%);fill-opacity:1;" d="M 81.75 64.75 C 84.640625 71.550781 82.640625 76.300781 75.75 79 C 67.667969 79.25 64.085938 75.332031 65 67.25 C 66.128906 64.542969 67.878906 62.375 70.25 60.75 C 75.195312 58.898438 79.03125 60.230469 81.75 64.75 Z M 81.75 64.75 "/>
<path style=" stroke:none;fill-rule:evenodd;fill:rgb(74.117647%,42.352941%,22.352941%);fill-opacity:1;" d="M 84.75 63.75 C 85.082031 65.082031 85.417969 66.417969 85.75 67.75 C 85.976562 70.304688 85.476562 72.636719 84.25 74.75 C 84.699219 71.765625 84.699219 68.765625 84.25 65.75 C 83.339844 65.585938 82.503906 65.25 81.75 64.75 C 79.03125 60.230469 75.195312 58.898438 70.25 60.75 C 69.519531 60.785156 68.855469 60.617188 68.25 60.25 C 68.835938 59.246094 69.671875 58.496094 70.75 58 C 73.25 57.667969 75.75 57.667969 78.25 58 C 81.078125 59.234375 83.246094 61.152344 84.75 63.75 Z M 84.75 63.75 "/>
<path style=" stroke:none;fill-rule:evenodd;fill:rgb(99.607843%,87.058824%,62.745098%);fill-opacity:1;" d="M 59.75 66.75 C 59.664062 67.808594 59.828125 68.808594 60.25 69.75 C 60.507812 72.378906 61.007812 74.960938 61.75 77.5 C 61.039062 78.3125 60.207031 78.894531 59.25 79.25 C 58.582031 79.25 57.917969 79.25 57.25 79.25 C 56.539062 79.144531 55.871094 78.894531 55.25 78.5 C 54.148438 77.230469 52.898438 76.148438 51.5 75.25 C 50.746094 73.078125 49.996094 70.910156 49.25 68.75 C 49.941406 68.148438 50.523438 68.3125 51 69.25 C 51.023438 66.179688 51.855469 63.34375 53.5 60.75 C 55.324219 59.328125 56.824219 59.664062 58 61.75 C 58.59375 63.472656 59.175781 65.136719 59.75 66.75 Z M 59.75 66.75 "/>
<path style=" stroke:none;fill-rule:evenodd;fill:rgb(89.411765%,57.254902%,27.058824%);fill-opacity:1;" d="M 60.25 69.75 C 59.828125 68.808594 59.664062 67.808594 59.75 66.75 C 60.078125 63.507812 61.414062 60.757812 63.75 58.5 C 64.242188 58.203125 64.574219 58.371094 64.75 59 C 63.679688 60.582031 63.015625 62.332031 62.75 64.25 C 62.855469 64.542969 63.023438 64.792969 63.25 65 C 62.527344 66.796875 61.527344 68.378906 60.25 69.75 Z M 60.25 69.75 "/>
<path style=" stroke:none;fill-rule:evenodd;fill:rgb(97.647059%,90.588235%,71.764706%);fill-opacity:1;" d="M 29.75 59.25 C 29.75 59.917969 29.75 60.582031 29.75 61.25 C 29.957031 63.601562 29.625 65.851562 28.75 68 C 29.507812 68.949219 29.839844 70.03125 29.75 71.25 C 29.304688 70.871094 28.972656 70.371094 28.75 69.75 C 28.335938 69.308594 27.835938 69.140625 27.25 69.25 C 27.25 70.417969 27.25 71.582031 27.25 72.75 C 26.976562 71.210938 26.476562 69.710938 25.75 68.25 C 23.769531 68.285156 21.769531 67.953125 19.75 67.25 C 18.054688 66.347656 16.390625 65.347656 14.75 64.25 C 13.460938 63.726562 12.125 63.390625 10.75 63.25 C 10.589844 62.476562 10.089844 62.140625 9.25 62.25 C 9.335938 61.589844 9.167969 61.003906 8.75 60.5 C 9.222656 60.257812 9.722656 60.175781 10.25 60.25 C 11.527344 60.695312 12.859375 60.859375 14.25 60.75 C 15.644531 61.238281 17.144531 61.40625 18.75 61.25 C 20.722656 60.738281 22.722656 60.652344 24.75 61 C 25.167969 61.417969 25.582031 61.832031 26 62.25 C 26.449219 61.1875 27.03125 60.1875 27.75 59.25 C 28.402344 58.6875 29.070312 58.6875 29.75 59.25 Z M 29.75 59.25 "/>
<path style=" stroke:none;fill-rule:evenodd;fill:rgb(66.27451%,40.392157%,27.058824%);fill-opacity:1;" d="M 103.75 68.25 C 103.828125 67.402344 103.746094 66.566406 103.5 65.75 C 103.433594 67.261719 102.933594 68.597656 102 69.75 C 101.648438 68.960938 101.230469 68.210938 100.75 67.5 C 100.917969 67.332031 101.082031 67.167969 101.25 67 C 100.777344 66.757812 100.277344 66.675781 99.75 66.75 C 99.816406 65.722656 99.484375 64.890625 98.75 64.25 C 100.421875 63.257812 102.253906 62.839844 104.25 63 C 104.945312 64.863281 104.78125 66.613281 103.75 68.25 Z M 103.75 68.25 "/>
<use xlink:href="#surface20" mask="url(#mask5)"/>
<path style=" stroke:none;fill-rule:evenodd;fill:rgb(97.647059%,82.352941%,64.705882%);fill-opacity:1;" d="M 83.25 56.75 C 86.042969 59.058594 87.542969 62.058594 87.75 65.75 C 87.957031 67.589844 87.539062 69.257812 86.5 70.75 C 86.40625 69.644531 86.15625 68.644531 85.75 67.75 C 85.417969 66.417969 85.082031 65.082031 84.75 63.75 C 84.71875 63.53125 84.800781 63.363281 85 63.25 C 85.167969 63.582031 85.332031 63.917969 85.5 64.25 C 85.3125 61.613281 84.398438 59.195312 82.75 57 C 82.863281 56.800781 83.03125 56.71875 83.25 56.75 Z M 83.25 56.75 "/>
<use xlink:href="#surface23" mask="url(#mask6)"/>
<path style=" stroke:none;fill-rule:evenodd;fill:rgb(78.823529%,47.843137%,30.980392%);fill-opacity:1;" d="M 98.75 64.25 C 99.484375 64.890625 99.816406 65.722656 99.75 66.75 C 100.277344 66.675781 100.777344 66.757812 101.25 67 C 101.082031 67.167969 100.917969 67.332031 100.75 67.5 C 101.230469 68.210938 101.648438 68.960938 102 69.75 C 102.933594 68.597656 103.433594 67.261719 103.5 65.75 C 103.746094 66.566406 103.828125 67.402344 103.75 68.25 C 103.035156 70.703125 101.371094 72.117188 98.75 72.5 C 97.59375 72.75 96.429688 72.832031 95.25 72.75 C 95.710938 69.867188 96.378906 67.03125 97.25 64.25 C 97.75 64.25 98.25 64.25 98.75 64.25 Z M 98.75 64.25 "/>
<path style=" stroke:none;fill-rule:evenodd;fill:rgb(98.039216%,87.843137%,58.431373%);fill-opacity:1;" d="M 10.75 63.25 C 12.125 63.390625 13.460938 63.726562 14.75 64.25 C 16.390625 65.347656 18.054688 66.347656 19.75 67.25 C 21.769531 67.953125 23.769531 68.285156 25.75 68.25 C 26.476562 69.710938 26.976562 71.210938 27.25 72.75 C 27.410156 74.851562 27.242188 76.851562 26.75 78.75 C 26.988281 76.65625 26.15625 75.15625 24.25 74.25 C 23.027344 74.65625 21.859375 75.15625 20.75 75.75 C 20.835938 75.089844 20.667969 74.503906 20.25 74 C 17.25 73.832031 14.25 73.667969 11.25 73.5 C 10.972656 73.308594 10.804688 73.058594 10.75 72.75 C 15.242188 74.34375 18.742188 73.179688 21.25 69.25 C 19.160156 68.523438 16.992188 67.691406 14.75 66.75 C 12.984375 66.039062 11.652344 64.875 10.75 63.25 Z M 10.75 63.25 "/>
<path style=" stroke:none;fill-rule:evenodd;fill:rgb(97.254902%,85.882353%,52.54902%);fill-opacity:1;" d="M 29.75 61.25 C 30.160156 62.820312 30.410156 64.488281 30.5 66.25 C 31.15625 66.65625 31.742188 67.15625 32.25 67.75 C 32.582031 67.417969 32.917969 67.082031 33.25 66.75 C 33.417969 66.917969 33.582031 67.082031 33.75 67.25 C 34.136719 68.714844 34.636719 70.132812 35.25 71.5 C 36.949219 70.890625 38.78125 70.640625 40.75 70.75 C 41.355469 72.164062 42.105469 73.496094 43 74.75 C 43.425781 77.496094 43.175781 80.164062 42.25 82.75 C 41.785156 84.207031 41.117188 85.539062 40.25 86.75 C 37.945312 87.117188 36.695312 88.449219 36.5 90.75 C 36.269531 90.453125 36.183594 90.121094 36.25 89.75 C 36.496094 88.597656 36.664062 87.429688 36.75 86.25 C 37.058594 86.304688 37.308594 86.472656 37.5 86.75 C 37.75 84.925781 37.832031 83.089844 37.75 81.25 C 37.441406 81.195312 37.191406 81.027344 37 80.75 C 36.753906 79.761719 36.667969 78.761719 36.75 77.75 C 36.835938 74.171875 35.167969 73.003906 31.75 74.25 C 31.246094 75.921875 30.578125 77.421875 29.75 78.75 C 30.230469 76.230469 30.230469 73.730469 29.75 71.25 C 29.839844 70.03125 29.507812 68.949219 28.75 68 C 29.625 65.851562 29.957031 63.601562 29.75 61.25 Z M 29.75 61.25 "/>
<path style=" stroke:none;fill-rule:evenodd;fill:rgb(63.137255%,34.117647%,20.392157%);fill-opacity:1;" d="M 96.25 57.25 C 96.816406 58.3125 96.898438 59.480469 96.5 60.75 C 95.546875 62.109375 94.878906 63.609375 94.5 65.25 C 93.871094 68.46875 93.039062 71.636719 92 74.75 C 91.070312 77.753906 89.320312 80.089844 86.75 81.75 C 88.3125 79.667969 89.480469 77.332031 90.25 74.75 C 89.75 74.75 89.25 74.75 88.75 74.75 C 88.75 74.582031 88.75 74.417969 88.75 74.25 C 89.589844 74.359375 90.089844 74.023438 90.25 73.25 C 90.703125 72.492188 91.121094 71.65625 91.5 70.75 C 91.976562 65.8125 93.558594 61.3125 96.25 57.25 Z M 96.25 57.25 "/>
<path style=" stroke:none;fill-rule:evenodd;fill:rgb(67.45098%,40%,24.705882%);fill-opacity:1;" d="M 68.25 60.25 C 68.855469 60.617188 69.519531 60.785156 70.25 60.75 C 67.878906 62.375 66.128906 64.542969 65 67.25 C 64.085938 75.332031 67.667969 79.25 75.75 79 C 82.640625 76.300781 84.640625 71.550781 81.75 64.75 C 82.503906 65.25 83.339844 65.585938 84.25 65.75 C 84.699219 68.765625 84.699219 71.765625 84.25 74.75 C 82.808594 77.898438 80.308594 79.734375 76.75 80.25 C 74.367188 80.386719 72.035156 80.21875 69.75 79.75 C 66.910156 78.660156 64.996094 76.660156 64 73.75 C 63.75 71.253906 63.667969 68.753906 63.75 66.25 C 64.367188 64.632812 65.203125 63.132812 66.25 61.75 C 66.917969 61.25 67.582031 60.75 68.25 60.25 Z M 68.25 60.25 "/>
<use xlink:href="#surface26" mask="url(#mask7)"/>
<path style=" stroke:none;fill-rule:evenodd;fill:rgb(14.901961%,4.705882%,0.784314%);fill-opacity:1;" d="M 90.25 73.25 C 90.089844 74.023438 89.589844 74.359375 88.75 74.25 C 88.582031 74.25 88.417969 74.25 88.25 74.25 C 88.589844 73.410156 89.257812 73.078125 90.25 73.25 Z M 90.25 73.25 "/>
<path style=" stroke:none;fill-rule:evenodd;fill:rgb(82.352941%,59.215686%,18.431373%);fill-opacity:1;" d="M 44.25 60.75 C 43.582031 64.671875 44 68.507812 45.5 72.25 C 45.75 74.242188 45.832031 76.242188 45.75 78.25 C 44.464844 81.59375 42.796875 84.761719 40.75 87.75 C 40.332031 87.578125 40.164062 87.246094 40.25 86.75 C 41.117188 85.539062 41.785156 84.207031 42.25 82.75 C 43.328125 81.390625 43.992188 79.804688 44.25 78 C 43.53125 74.097656 42.367188 70.347656 40.75 66.75 C 40.75 65.417969 40.75 64.082031 40.75 62.75 C 41.800781 61.902344 42.632812 60.820312 43.25 59.5 C 44.03125 59.40625 44.363281 59.824219 44.25 60.75 Z M 44.25 60.75 "/>
<path style=" stroke:none;fill-rule:evenodd;fill:rgb(93.72549%,87.058824%,69.803922%);fill-opacity:1;" d="M 10.75 72.25 C 10.75 72.417969 10.75 72.582031 10.75 72.75 C 10.804688 73.058594 10.972656 73.308594 11.25 73.5 C 14.25 73.667969 17.25 73.832031 20.25 74 C 20.667969 74.503906 20.835938 75.089844 20.75 75.75 C 18.347656 76.242188 15.847656 76.410156 13.25 76.25 C 11.371094 75.125 9.707031 73.710938 8.25 72 C 9.054688 72.007812 9.886719 72.09375 10.75 72.25 Z M 10.75 72.25 "/>
<path style=" stroke:none;fill-rule:evenodd;fill:rgb(74.901961%,67.843137%,41.176471%);fill-opacity:1;" d="M 24.25 74.25 C 24.25 74.917969 24.25 75.582031 24.25 76.25 C 23.753906 76.164062 23.421875 76.332031 23.25 76.75 C 19.777344 78.195312 16.445312 78.027344 13.25 76.25 C 15.847656 76.410156 18.347656 76.242188 20.75 75.75 C 21.859375 75.15625 23.027344 74.65625 24.25 74.25 Z M 24.25 74.25 "/>
<path style=" stroke:none;fill-rule:evenodd;fill:rgb(96.078431%,69.411765%,44.313725%);fill-opacity:1;" d="M 87.75 65.75 C 87.953125 68.585938 88.121094 71.417969 88.25 74.25 C 88.417969 74.25 88.582031 74.25 88.75 74.25 C 88.75 74.417969 88.75 74.582031 88.75 74.75 C 88.222656 77.273438 87.054688 79.441406 85.25 81.25 C 85.082031 81.082031 84.917969 80.917969 84.75 80.75 C 85.417969 80.191406 85.667969 79.523438 85.5 78.75 C 82.609375 80.949219 79.359375 81.699219 75.75 81 C 76.207031 80.859375 76.539062 80.609375 76.75 80.25 C 80.308594 79.734375 82.808594 77.898438 84.25 74.75 C 85.476562 72.636719 85.976562 70.304688 85.75 67.75 C 86.15625 68.644531 86.40625 69.644531 86.5 70.75 C 87.539062 69.257812 87.957031 67.589844 87.75 65.75 Z M 87.75 65.75 "/>
<path style=" stroke:none;fill-rule:evenodd;fill:rgb(94.509804%,63.529412%,36.078431%);fill-opacity:1;" d="M 63.75 66.25 C 63.667969 68.753906 63.75 71.253906 64 73.75 C 64.996094 76.660156 66.910156 78.660156 69.75 79.75 C 69.734375 80.25 69.984375 80.582031 70.5 80.75 C 71.40625 81.039062 72.324219 81.289062 73.25 81.5 C 69.625 82.277344 65.957031 82.445312 62.25 82 C 60.425781 81.3125 58.757812 80.398438 57.25 79.25 C 57.917969 79.25 58.582031 79.25 59.25 79.25 C 59.9375 79.171875 60.601562 79.253906 61.25 79.5 C 60.644531 79.945312 60.644531 80.363281 61.25 80.75 C 62.375 80.375 63.292969 79.707031 64 78.75 C 64.167969 78.917969 64.332031 79.082031 64.5 79.25 C 64.730469 77.632812 64.0625 76.464844 62.5 75.75 C 62.332031 75.917969 62.167969 76.082031 62 76.25 C 61.875 73.742188 62.042969 71.242188 62.5 68.75 C 62.6875 67.753906 63.101562 66.921875 63.75 66.25 Z M 63.75 66.25 "/>
<path style=" stroke:none;fill-rule:evenodd;fill:rgb(96.078431%,91.764706%,78.039216%);fill-opacity:1;" d="M 37.75 81.25 C 37.378906 79.441406 37.210938 77.609375 37.25 75.75 C 38.195312 75.648438 38.945312 75.980469 39.5 76.75 C 40.484375 79.347656 40.816406 82.011719 40.5 84.75 C 40.03125 85.53125 39.445312 86.199219 38.75 86.75 C 38.417969 84.84375 38.082031 83.011719 37.75 81.25 Z M 37.75 81.25 "/>
<path style=" stroke:none;fill-rule:evenodd;fill:rgb(77.647059%,47.058824%,8.627451%);fill-opacity:1;" d="M 52.25 85.25 C 51.917969 85.582031 51.582031 85.917969 51.25 86.25 C 51.035156 83.945312 50.035156 82.027344 48.25 80.5 C 47.359375 80.4375 46.527344 80.6875 45.75 81.25 C 45.917969 80.582031 46.082031 79.917969 46.25 79.25 C 46.8125 77.980469 47.230469 76.644531 47.5 75.25 C 48.640625 77.222656 49.972656 79.054688 51.5 80.75 C 51.847656 82.238281 52.097656 83.738281 52.25 85.25 Z M 52.25 85.25 "/>
<path style=" stroke:none;fill-rule:evenodd;fill:rgb(97.647059%,93.72549%,78.823529%);fill-opacity:1;" d="M 29.75 71.25 C 30.230469 73.730469 30.230469 76.230469 29.75 78.75 C 28.761719 80.242188 27.761719 81.742188 26.75 83.25 C 26.246094 81.761719 26.246094 80.261719 26.75 78.75 C 27.242188 76.851562 27.410156 74.851562 27.25 72.75 C 27.25 71.582031 27.25 70.417969 27.25 69.25 C 27.835938 69.140625 28.335938 69.308594 28.75 69.75 C 28.972656 70.371094 29.304688 70.871094 29.75 71.25 Z M 29.75 71.25 "/>
<path style=" stroke:none;fill-rule:evenodd;fill:rgb(92.54902%,78.823529%,40.784314%);fill-opacity:1;" d="M 36.75 77.75 C 36.453125 76.046875 35.453125 75.460938 33.75 76 C 34.292969 76.664062 34.625 77.414062 34.75 78.25 C 34.300781 77.699219 33.886719 77.699219 33.5 78.25 C 32.066406 82.949219 29.734375 87.117188 26.5 90.75 C 26.75 88.953125 26.75 87.121094 26.5 85.25 C 25.417969 87.183594 23.835938 87.933594 21.75 87.5 C 22.769531 86.40625 23.4375 85.15625 23.75 83.75 C 24.242188 81.347656 24.410156 78.847656 24.25 76.25 C 24.25 75.582031 24.25 74.917969 24.25 74.25 C 26.15625 75.15625 26.988281 76.65625 26.75 78.75 C 26.246094 80.261719 26.246094 81.761719 26.75 83.25 C 27.761719 81.742188 28.761719 80.242188 29.75 78.75 C 30.578125 77.421875 31.246094 75.921875 31.75 74.25 C 35.167969 73.003906 36.835938 74.171875 36.75 77.75 Z M 36.75 77.75 "/>
<path style=" stroke:none;fill-rule:evenodd;fill:rgb(87.45098%,58.431373%,36.078431%);fill-opacity:1;" d="M 48.25 66.75 C 48.671875 67.335938 49.003906 68.003906 49.25 68.75 C 49.996094 70.910156 50.746094 73.078125 51.5 75.25 C 52.898438 76.148438 54.148438 77.230469 55.25 78.5 C 55.871094 78.894531 56.539062 79.144531 57.25 79.25 C 58.757812 80.398438 60.425781 81.3125 62.25 82 C 65.957031 82.445312 69.625 82.277344 73.25 81.5 C 72.324219 81.289062 71.40625 81.039062 70.5 80.75 C 69.984375 80.582031 69.734375 80.25 69.75 79.75 C 72.035156 80.21875 74.367188 80.386719 76.75 80.25 C 76.539062 80.609375 76.207031 80.859375 75.75 81 C 79.359375 81.699219 82.609375 80.949219 85.5 78.75 C 85.667969 79.523438 85.417969 80.191406 84.75 80.75 C 84.917969 80.917969 85.082031 81.082031 85.25 81.25 C 87.054688 79.441406 88.222656 77.273438 88.75 74.75 C 89.25 74.75 89.75 74.75 90.25 74.75 C 89.480469 77.332031 88.3125 79.667969 86.75 81.75 C 84.160156 82.648438 81.496094 83.230469 78.75 83.5 C 73.417969 83.75 68.085938 83.832031 62.75 83.75 C 60.105469 83.128906 57.605469 82.128906 55.25 80.75 C 53.738281 78.390625 51.988281 76.226562 50 74.25 C 49.101562 72.136719 48.351562 69.96875 47.75 67.75 C 47.769531 67.292969 47.9375 66.957031 48.25 66.75 Z M 48.25 66.75 "/>
<use xlink:href="#surface29" mask="url(#mask8)"/>
<use xlink:href="#surface32" mask="url(#mask9)"/>
<path style=" stroke:none;fill-rule:evenodd;fill:rgb(20.392157%,10.980392%,6.27451%);fill-opacity:1;" d="M 45.75 78.25 C 45.664062 78.746094 45.832031 79.078125 46.25 79.25 C 46.082031 79.917969 45.917969 80.582031 45.75 81.25 C 44.160156 83.761719 42.828125 86.425781 41.75 89.25 C 40.929688 90.402344 39.929688 91.402344 38.75 92.25 C 38.53125 92.28125 38.363281 92.199219 38.25 92 C 39.285156 90.679688 40.117188 89.261719 40.75 87.75 C 42.796875 84.761719 44.464844 81.59375 45.75 78.25 Z M 45.75 78.25 "/>
<path style=" stroke:none;fill-rule:evenodd;fill:rgb(86.27451%,57.647059%,16.862745%);fill-opacity:1;" d="M 62.25 85.25 C 63.359375 85.683594 64.523438 85.851562 65.75 85.75 C 65.351562 88.03125 64.601562 90.195312 63.5 92.25 C 63.175781 90.011719 61.925781 88.679688 59.75 88.25 C 58.953125 87.890625 58.203125 87.390625 57.5 86.75 C 57.507812 87.554688 57.59375 88.386719 57.75 89.25 C 58.582031 89.25 59.417969 89.25 60.25 89.25 C 60.746094 89.207031 61.164062 89.375 61.5 89.75 C 62.078125 91.425781 61.492188 92.425781 59.75 92.75 C 58.9375 92.820312 58.355469 92.488281 58 91.75 C 56.902344 93.0625 55.484375 93.5625 53.75 93.25 C 53.859375 90.515625 53.027344 88.179688 51.25 86.25 C 51.582031 85.917969 51.917969 85.582031 52.25 85.25 C 53.375 86.964844 54.625 88.632812 56 90.25 C 56.332031 89.75 56.332031 89.25 56 88.75 C 54.789062 86.828125 53.707031 84.828125 52.75 82.75 C 52.917969 82.582031 53.082031 82.417969 53.25 82.25 C 56.011719 83.949219 59.011719 84.949219 62.25 85.25 Z M 62.25 85.25 "/>
<path style=" stroke:none;fill-rule:evenodd;fill:rgb(60%,32.54902%,15.294118%);fill-opacity:1;" d="M 83.75 86.75 C 83.835938 86.253906 83.667969 85.921875 83.25 85.75 C 80.910156 85.667969 78.578125 85.75 76.25 86 C 75.15625 86.339844 74.988281 86.921875 75.75 87.75 C 75.167969 87.917969 74.582031 88.082031 74 88.25 C 72.363281 87.691406 70.78125 87.027344 69.25 86.25 C 68.917969 86.25 68.75 86.082031 68.75 85.75 C 73.914062 85.523438 79.082031 85.359375 84.25 85.25 C 84.367188 85.894531 84.203125 86.394531 83.75 86.75 Z M 83.75 86.75 "/>
<path style=" stroke:none;fill-rule:evenodd;fill:rgb(24.705882%,14.509804%,6.27451%);fill-opacity:1;" d="M 59.75 88.25 C 59.53125 88.21875 59.363281 88.300781 59.25 88.5 C 59.707031 88.640625 60.039062 88.890625 60.25 89.25 C 59.417969 89.25 58.582031 89.25 57.75 89.25 C 57.59375 88.386719 57.507812 87.554688 57.5 86.75 C 58.203125 87.390625 58.953125 87.890625 59.75 88.25 Z M 59.75 88.25 "/>
<use xlink:href="#surface35" mask="url(#mask10)"/>
<path style=" stroke:none;fill-rule:evenodd;fill:rgb(88.627451%,70.196078%,35.294118%);fill-opacity:1;" d="M 40.25 86.75 C 40.164062 87.246094 40.332031 87.578125 40.75 87.75 C 40.117188 89.261719 39.285156 90.679688 38.25 92 C 38.363281 92.199219 38.53125 92.28125 38.75 92.25 C 38.152344 92.636719 37.652344 93.136719 37.25 93.75 C 36.265625 93.628906 35.351562 93.796875 34.5 94.25 C 34.359375 93.792969 34.109375 93.460938 33.75 93.25 C 34.710938 92.152344 35.546875 90.984375 36.25 89.75 C 36.183594 90.121094 36.269531 90.453125 36.5 90.75 C 36.695312 88.449219 37.945312 87.117188 40.25 86.75 Z M 40.25 86.75 "/>
<path style=" stroke:none;fill-rule:evenodd;fill:rgb(91.372549%,68.235294%,45.098039%);fill-opacity:1;" d="M 68.75 85.75 C 68.75 86.082031 68.917969 86.25 69.25 86.25 C 69.964844 86.917969 70.632812 87.667969 71.25 88.5 C 75.300781 88.914062 79.300781 88.664062 83.25 87.75 C 83.25 87.082031 83.25 86.417969 83.25 85.75 C 83.667969 85.921875 83.835938 86.253906 83.75 86.75 C 82.695312 90.792969 80.03125 92.792969 75.75 92.75 C 71.683594 92.429688 69.015625 90.347656 67.75 86.5 C 67.917969 85.984375 68.25 85.734375 68.75 85.75 Z M 68.75 85.75 "/>
<path style=" stroke:none;fill-rule:evenodd;fill:rgb(83.529412%,49.803922%,26.27451%);fill-opacity:1;" d="M 83.25 85.75 C 83.25 86.417969 83.25 87.082031 83.25 87.75 C 79.300781 88.664062 75.300781 88.914062 71.25 88.5 C 70.632812 87.667969 69.964844 86.917969 69.25 86.25 C 70.78125 87.027344 72.363281 87.691406 74 88.25 C 74.582031 88.082031 75.167969 87.917969 75.75 87.75 C 74.988281 86.921875 75.15625 86.339844 76.25 86 C 78.578125 85.75 80.910156 85.667969 83.25 85.75 Z M 83.25 85.75 "/>
<use xlink:href="#surface38" mask="url(#mask11)"/>
<path style=" stroke:none;fill-rule:evenodd;fill:rgb(92.156863%,86.666667%,70.980392%);fill-opacity:1;" d="M 33.75 93.25 C 34.109375 93.460938 34.359375 93.792969 34.5 94.25 C 35.351562 93.796875 36.265625 93.628906 37.25 93.75 C 38.457031 94.484375 39.792969 94.816406 41.25 94.75 C 39.222656 95.671875 37.054688 95.921875 34.75 95.5 C 32.734375 95.234375 32.402344 94.484375 33.75 93.25 Z M 33.75 93.25 "/>
<path style=" stroke:none;fill-rule:evenodd;fill:rgb(96.862745%,86.27451%,58.431373%);fill-opacity:1;" d="M 41.75 89.25 C 41.761719 90.300781 41.429688 91.214844 40.75 92 C 40.917969 92.25 41.082031 92.5 41.25 92.75 C 42.085938 92.164062 42.835938 91.496094 43.5 90.75 C 44.152344 91.050781 44.566406 91.550781 44.75 92.25 C 43.433594 93.003906 43.601562 93.335938 45.25 93.25 C 44.15625 94.292969 42.824219 94.792969 41.25 94.75 C 39.792969 94.816406 38.457031 94.484375 37.25 93.75 C 37.652344 93.136719 38.152344 92.636719 38.75 92.25 C 39.929688 91.402344 40.929688 90.402344 41.75 89.25 Z M 41.75 89.25 "/>
<use xlink:href="#surface41" mask="url(#mask12)"/>
</g>
</svg>
