<?xml version="1.0" encoding="UTF-8"?>
<svg xmlns="http://www.w3.org/2000/svg" xmlns:xlink="http://www.w3.org/1999/xlink" width="px" height="px" viewBox="0 0 108 100" version="1.1">
<defs>
<filter id="alpha" filterUnits="objectBoundingBox" x="0%" y="0%" width="100%" height="100%">
  <feColorMatrix type="matrix" in="SourceGraphic" values="0 0 0 0 1 0 0 0 0 1 0 0 0 0 1 0 0 0 1 0"/>
</filter>
<mask id="mask0">
  <g filter="url(#alpha)">
<rect x="0" y="0" width="108" height="100" style="fill:rgb(0%,0%,0%);fill-opacity:0.0745098;stroke:none;"/>
  </g>
</mask>
<clipPath id="clip1">
  <rect x="0" y="0" width="108" height="100"/>
</clipPath>
<g id="surface5" clip-path="url(#clip1)">
<path style=" stroke:none;fill-rule:evenodd;fill:rgb(16.078431%,21.960784%,27.058824%);fill-opacity:1;" d="M 33.75 10.75 C 34.238281 10.90625 34.570312 11.238281 34.75 11.75 C 33.558594 12.941406 32.558594 14.273438 31.75 15.75 C 26.503906 16.832031 22.253906 19.5 19 23.75 C 14.953125 21.527344 13.617188 18.195312 15 13.75 C 14.101562 11.882812 12.601562 11.050781 10.5 11.25 C 8.859375 11.367188 7.277344 11.699219 5.75 12.25 C 6.171875 11.515625 6.839844 11.101562 7.75 11 C 14.601562 9.683594 17.101562 12.351562 15.25 19 C 16.046875 20.605469 17.296875 21.691406 19 22.25 C 22.578125 18.667969 26.828125 16.167969 31.75 14.75 C 32.671875 13.507812 33.339844 12.175781 33.75 10.75 Z M 33.75 10.75 "/>
</g>
<mask id="mask1">
  <g filter="url(#alpha)">
<rect x="0" y="0" width="108" height="100" style="fill:rgb(0%,0%,0%);fill-opacity:0.301961;stroke:none;"/>
  </g>
</mask>
<clipPath id="clip2">
  <rect x="0" y="0" width="108" height="100"/>
</clipPath>
<g id="surface8" clip-path="url(#clip2)">
<path style=" stroke:none;fill-rule:evenodd;fill:rgb(16.862745%,22.745098%,27.45098%);fill-opacity:1;" d="M 52.25 -0.25 C 53.25 -0.25 54.25 -0.25 55.25 -0.25 C 57.582031 0.929688 59.246094 2.761719 60.25 5.25 C 62.765625 5.398438 65.265625 6.0625 67.75 7.25 C 77.929688 2.632812 84.511719 5.632812 87.5 16.25 C 90.421875 18.261719 92.503906 20.929688 93.75 24.25 C 95.394531 25.359375 97.226562 25.945312 99.25 26 C 100.996094 28.246094 102.914062 30.328125 105 32.25 C 106.226562 33.875 106.476562 35.625 105.75 37.5 C 106.28125 39.03125 106.949219 40.449219 107.75 41.75 C 107.75 42.75 107.75 43.75 107.75 44.75 C 106.632812 45.679688 106.632812 46.679688 107.75 47.75 C 107.75 48.417969 107.75 49.082031 107.75 49.75 C 107.316406 50.992188 106.980469 52.324219 106.75 53.75 C 106.960938 57.328125 106.960938 60.746094 106.75 64 C 106.539062 66.792969 105.039062 68.375 102.25 68.75 C 101.597656 69.722656 101.097656 70.722656 100.75 71.75 C 100.75 70.582031 100.75 69.417969 100.75 68.25 C 104.992188 67.78125 106.492188 65.449219 105.25 61.25 C 105.941406 59.832031 106.277344 58.332031 106.25 56.75 C 106.214844 53.34375 106.050781 49.925781 105.75 46.5 C 107.339844 43.636719 107.007812 41.050781 104.75 38.75 C 106.164062 35.207031 105.164062 32.707031 101.75 31.25 C 101.367188 29.5625 100.53125 28.148438 99.25 27 C 96.957031 26.652344 94.792969 26.070312 92.75 25.25 C 92.140625 21.796875 90.308594 19.128906 87.25 17.25 C 85.53125 8.308594 80.199219 4.722656 71.25 6.5 C 69.671875 6.96875 68.253906 7.71875 67 8.75 C 66.75 7.832031 66.167969 7.25 65.25 7 C 63.554688 6.625 61.886719 6.707031 60.25 7.25 C 59.222656 5.113281 57.890625 3.199219 56.25 1.5 C 55.316406 1.007812 54.316406 0.757812 53.25 0.75 C 47.644531 2.285156 42.144531 4.117188 36.75 6.25 C 41.722656 3.710938 46.890625 1.542969 52.25 -0.25 Z M 52.25 -0.25 "/>
</g>
<mask id="mask2">
  <g filter="url(#alpha)">
<rect x="0" y="0" width="108" height="100" style="fill:rgb(0%,0%,0%);fill-opacity:0.0470588;stroke:none;"/>
  </g>
</mask>
<clipPath id="clip3">
  <rect x="0" y="0" width="108" height="100"/>
</clipPath>
<g id="surface11" clip-path="url(#clip3)">
<path style=" stroke:none;fill-rule:evenodd;fill:rgb(17.254902%,22.745098%,27.058824%);fill-opacity:1;" d="M 5.75 12.25 C 1.109375 15.363281 -0.222656 19.53125 1.75 24.75 C 0.964844 24.007812 0.296875 23.175781 -0.25 22.25 C -0.25 22.082031 -0.25 21.917969 -0.25 21.75 C 0.417969 21.582031 0.417969 21.417969 -0.25 21.25 C -0.25 20.75 -0.25 20.25 -0.25 19.75 C 0.417969 19.582031 0.417969 19.417969 -0.25 19.25 C -0.25 19.082031 -0.25 18.917969 -0.25 18.75 C 0.652344 17.28125 1.570312 15.78125 2.5 14.25 C 3.320312 13.132812 4.402344 12.464844 5.75 12.25 Z M 5.75 12.25 "/>
</g>
<mask id="mask3">
  <g filter="url(#alpha)">
<rect x="0" y="0" width="108" height="100" style="fill:rgb(0%,0%,0%);fill-opacity:0.988235;stroke:none;"/>
  </g>
</mask>
<clipPath id="clip4">
  <rect x="0" y="0" width="108" height="100"/>
</clipPath>
<g id="surface14" clip-path="url(#clip4)">
<path style=" stroke:none;fill-rule:evenodd;fill:rgb(5.098039%,4.313725%,5.098039%);fill-opacity:1;" d="M 36.75 6.25 C 36.472656 6.894531 35.972656 7.3125 35.25 7.5 C 35.761719 7.757812 36.261719 8.007812 36.75 8.25 C 36.175781 9.796875 36.339844 11.296875 37.25 12.75 C 37.25 13.082031 37.082031 13.25 36.75 13.25 C 35.816406 13.429688 35.066406 13.929688 34.5 14.75 C 30.671875 20.070312 27.921875 25.902344 26.25 32.25 C 25.765625 33.246094 25.097656 33.414062 24.25 32.75 C 24.460938 30.992188 24.960938 29.328125 25.75 27.75 C 26.320312 26.039062 26.984375 24.375 27.75 22.75 C 28.539062 21.175781 29.289062 19.675781 30 18.25 C 24.507812 19.824219 20.925781 23.324219 19.25 28.75 C 18.941406 28.695312 18.691406 28.527344 18.5 28.25 C 18.136719 29.394531 17.554688 29.894531 16.75 29.75 C 14.386719 31.472656 13.054688 33.808594 12.75 36.75 C 12.429688 35.960938 11.929688 35.296875 11.25 34.75 C 11.730469 33.121094 12.480469 31.621094 13.5 30.25 C 12.976562 27.964844 11.558594 26.296875 9.25 25.25 C 7.15625 26.367188 4.992188 26.53125 2.75 25.75 C 2.082031 25.75 1.75 25.417969 1.75 24.75 C -0.222656 19.53125 1.109375 15.363281 5.75 12.25 C 7.277344 11.699219 8.859375 11.367188 10.5 11.25 C 12.601562 11.050781 14.101562 11.882812 15 13.75 C 13.617188 18.195312 14.953125 21.527344 19 23.75 C 22.253906 19.5 26.503906 16.832031 31.75 15.75 C 32.558594 14.273438 33.558594 12.941406 34.75 11.75 C 34.570312 11.238281 34.238281 10.90625 33.75 10.75 C 31.859375 9.730469 29.859375 8.894531 27.75 8.25 C 27.238281 8 27.15625 7.664062 27.5 7.25 C 29.558594 6.628906 31.640625 6.628906 33.75 7.25 C 34.664062 6.675781 35.664062 6.339844 36.75 6.25 Z M 36.75 6.25 "/>
</g>
<mask id="mask4">
  <g filter="url(#alpha)">
<rect x="0" y="0" width="108" height="100" style="fill:rgb(0%,0%,0%);fill-opacity:0.0117647;stroke:none;"/>
  </g>
</mask>
<clipPath id="clip5">
  <rect x="0" y="0" width="108" height="100"/>
</clipPath>
<g id="surface17" clip-path="url(#clip5)">
<path style=" stroke:none;fill-rule:evenodd;fill:rgb(17.647059%,22.745098%,27.45098%);fill-opacity:1;" d="M 11.25 34.75 C 10.21875 34.757812 9.21875 34.925781 8.25 35.25 C 10.34375 33.738281 12.007812 31.820312 13.25 29.5 C 12.230469 28.3125 11.0625 27.3125 9.75 26.5 C 8.417969 26.570312 7.085938 26.820312 5.75 27.25 C 4.449219 27.265625 3.449219 26.765625 2.75 25.75 C 4.992188 26.53125 7.15625 26.367188 9.25 25.25 C 11.558594 26.296875 12.976562 27.964844 13.5 30.25 C 12.480469 31.621094 11.730469 33.121094 11.25 34.75 Z M 11.25 34.75 "/>
</g>
<mask id="mask5">
  <g filter="url(#alpha)">
<rect x="0" y="0" width="108" height="100" style="fill:rgb(0%,0%,0%);fill-opacity:0.113725;stroke:none;"/>
  </g>
</mask>
<clipPath id="clip6">
  <rect x="0" y="0" width="108" height="100"/>
</clipPath>
<g id="surface20" clip-path="url(#clip6)">
<path style=" stroke:none;fill-rule:evenodd;fill:rgb(16.470588%,20.784314%,25.098039%);fill-opacity:1;" d="M 7.75 36.25 C 6.691406 38.914062 7.191406 41.164062 9.25 43 C 8.015625 47.320312 8.015625 51.652344 9.25 56 C 9 57.003906 8.417969 57.753906 7.5 58.25 C 7.25 59.742188 7.167969 61.242188 7.25 62.75 C 6.847656 62 6.515625 61.167969 6.25 60.25 C 6.601562 58.496094 7.269531 56.914062 8.25 55.5 C 7.914062 54.332031 7.914062 53.25 8.25 52.25 C 7.046875 49.429688 7.046875 46.429688 8.25 43.25 C 6.070312 40.945312 5.902344 38.613281 7.75 36.25 Z M 7.75 36.25 "/>
</g>
<mask id="mask6">
  <g filter="url(#alpha)">
<rect x="0" y="0" width="108" height="100" style="fill:rgb(0%,0%,0%);fill-opacity:0.972549;stroke:none;"/>
  </g>
</mask>
<clipPath id="clip7">
  <rect x="0" y="0" width="108" height="100"/>
</clipPath>
<g id="surface23" clip-path="url(#clip7)">
<path style=" stroke:none;fill-rule:evenodd;fill:rgb(79.215686%,69.019608%,60.784314%);fill-opacity:1;" d="M 94.75 67.75 C 95.960938 67.644531 97.125 67.8125 98.25 68.25 C 98.953125 69.472656 98.789062 70.558594 97.75 71.5 C 96.417969 71.832031 95.082031 71.832031 93.75 71.5 C 92.921875 69.886719 93.253906 68.636719 94.75 67.75 Z M 94.75 67.75 "/>
</g>
<mask id="mask7">
  <g filter="url(#alpha)">
<rect x="0" y="0" width="108" height="100" style="fill:rgb(0%,0%,0%);fill-opacity:0.0627451;stroke:none;"/>
  </g>
</mask>
<clipPath id="clip8">
  <rect x="0" y="0" width="108" height="100"/>
</clipPath>
<g id="surface26" clip-path="url(#clip8)">
<path style=" stroke:none;fill-rule:evenodd;fill:rgb(16.470588%,19.607843%,23.921569%);fill-opacity:1;" d="M 11.25 67.75 C 12.5625 68.800781 13.3125 70.136719 13.5 71.75 C 12.390625 73.011719 11.140625 74.09375 9.75 75 C 8.425781 75.089844 7.09375 75.007812 5.75 74.75 C 1.539062 75.210938 0.0390625 77.542969 1.25 81.75 C -0.390625 78.746094 0.277344 76.328125 3.25 74.5 C 5.113281 74.121094 6.945312 74.203125 8.75 74.75 C 10.410156 73.839844 11.746094 72.589844 12.75 71 C 12.042969 70.003906 11.542969 68.921875 11.25 67.75 Z M 11.25 67.75 "/>
</g>
<mask id="mask8">
  <g filter="url(#alpha)">
<rect x="0" y="0" width="108" height="100" style="fill:rgb(0%,0%,0%);fill-opacity:0.992157;stroke:none;"/>
  </g>
</mask>
<clipPath id="clip9">
  <rect x="0" y="0" width="108" height="100"/>
</clipPath>
<g id="surface29" clip-path="url(#clip9)">
<path style=" stroke:none;fill-rule:evenodd;fill:rgb(5.882353%,5.490196%,6.27451%);fill-opacity:1;" d="M 11.75 63.75 C 12.554688 66.023438 13.636719 68.191406 15 70.25 C 15.90625 70.804688 16.324219 70.472656 16.25 69.25 C 16.890625 69.109375 17.390625 68.777344 17.75 68.25 C 18.839844 75.417969 22.753906 80.25 29.5 82.75 C 29.882812 82.714844 30.132812 82.546875 30.25 82.25 C 30.683594 82.21875 31.183594 82.050781 31.75 81.75 C 32.917969 83.417969 34.082031 85.082031 35.25 86.75 C 35.75 87.082031 36.25 87.417969 36.75 87.75 C 36.75 88.082031 36.75 88.417969 36.75 88.75 C 36.097656 89.613281 36.097656 90.527344 36.75 91.5 C 39.371094 92.570312 42.039062 93.488281 44.75 94.25 C 44.921875 94.667969 45.253906 94.835938 45.75 94.75 C 45.921875 95.167969 46.253906 95.335938 46.75 95.25 C 47.703125 95.398438 48.535156 95.730469 49.25 96.25 C 47.742188 96.167969 46.242188 96.25 44.75 96.5 C 46.433594 96.753906 47.933594 97.335938 49.25 98.25 C 44.792969 97.433594 40.625 95.933594 36.75 93.75 C 36.117188 92.804688 35.199219 92.304688 34 92.25 C 31.929688 92.75 29.847656 92.832031 27.75 92.5 C 30.527344 92.277344 32.695312 91.027344 34.25 88.75 C 33.519531 87.707031 32.855469 86.625 32.25 85.5 C 30.992188 84.875 29.660156 84.625 28.25 84.75 C 26.40625 84.410156 24.738281 83.660156 23.25 82.5 C 21.722656 80.867188 20.140625 79.285156 18.5 77.75 C 17.421875 79.328125 16.171875 80.746094 14.75 82 C 17.292969 86.160156 16.207031 88.746094 11.5 89.75 C 6.105469 89.523438 2.691406 86.855469 1.25 81.75 C 0.0390625 77.542969 1.539062 75.210938 5.75 74.75 C 7.09375 75.007812 8.425781 75.089844 9.75 75 C 11.140625 74.09375 12.390625 73.011719 13.5 71.75 C 13.3125 70.136719 12.5625 68.800781 11.25 67.75 C 11.023438 65.878906 10.023438 64.628906 8.25 64 C 9.421875 63.292969 10.589844 63.210938 11.75 63.75 Z M 11.75 63.75 "/>
</g>
<mask id="mask9">
  <g filter="url(#alpha)">
<rect x="0" y="0" width="108" height="100" style="fill:rgb(0%,0%,0%);fill-opacity:0.231373;stroke:none;"/>
  </g>
</mask>
<clipPath id="clip10">
  <rect x="0" y="0" width="108" height="100"/>
</clipPath>
<g id="surface32" clip-path="url(#clip10)">
<path style=" stroke:none;fill-rule:evenodd;fill:rgb(16.470588%,19.215686%,23.529412%);fill-opacity:1;" d="M 28.25 84.75 C 29.660156 84.625 30.992188 84.875 32.25 85.5 C 32.855469 86.625 33.519531 87.707031 34.25 88.75 C 32.695312 91.027344 30.527344 92.277344 27.75 92.5 C 29.847656 92.832031 31.929688 92.75 34 92.25 C 35.199219 92.304688 36.117188 92.804688 36.75 93.75 C 35.871094 93.5625 35.039062 93.226562 34.25 92.75 C 31.949219 93.222656 29.617188 93.386719 27.25 93.25 C 27.140625 92.664062 27.308594 92.164062 27.75 91.75 C 30.101562 91.660156 31.933594 90.660156 33.25 88.75 C 32.78125 87.613281 32.113281 86.613281 31.25 85.75 C 30.640625 85.144531 30.054688 85.144531 29.5 85.75 C 29.003906 85.46875 28.585938 85.132812 28.25 84.75 Z M 28.25 84.75 "/>
</g>
<mask id="mask10">
  <g filter="url(#alpha)">
<rect x="0" y="0" width="108" height="100" style="fill:rgb(0%,0%,0%);fill-opacity:0.0509804;stroke:none;"/>
  </g>
</mask>
<clipPath id="clip11">
  <rect x="0" y="0" width="108" height="100"/>
</clipPath>
<g id="surface35" clip-path="url(#clip11)">
<path style=" stroke:none;fill-rule:evenodd;fill:rgb(16.470588%,20.784314%,25.098039%);fill-opacity:1;" d="M 88.25 83.25 C 87.148438 85.960938 85.898438 88.625 84.5 91.25 C 79.152344 96.449219 73.402344 96.949219 67.25 92.75 C 66.398438 93.519531 65.480469 94.1875 64.5 94.75 C 62.289062 93.738281 60.621094 94.238281 59.5 96.25 C 58.269531 97.742188 56.851562 98.90625 55.25 99.75 C 54.75 99.75 54.25 99.75 53.75 99.75 C 52.917969 99.417969 52.082031 99.082031 51.25 98.75 C 55.964844 99.375 58.964844 97.375 60.25 92.75 C 61.90625 93.777344 63.574219 93.941406 65.25 93.25 C 65.835938 92.742188 66.171875 92.078125 66.25 91.25 C 68.363281 92.722656 70.695312 93.804688 73.25 94.5 C 80.863281 95.222656 85.28125 91.804688 86.5 84.25 C 86.90625 83.589844 87.492188 83.253906 88.25 83.25 Z M 88.25 83.25 "/>
</g>
</defs>
<g id="surface1">
<path style=" stroke:none;fill-rule:evenodd;fill:rgb(86.666667%,69.019608%,54.117647%);fill-opacity:1;" d="M 53.25 2.75 C 52.511719 3.902344 51.511719 4.820312 50.25 5.5 C 50.582031 5.667969 50.917969 5.832031 51.25 6 C 50.003906 7.234375 49.335938 8.652344 49.25 10.25 C 47.789062 8.808594 46.457031 7.308594 45.25 5.75 C 43.460938 7.863281 43.460938 10.03125 45.25 12.25 C 45.015625 12.730469 44.683594 12.730469 44.25 12.25 C 43.546875 10.34375 42.710938 8.507812 41.75 6.75 C 45.445312 5.019531 49.277344 3.683594 53.25 2.75 Z M 53.25 2.75 "/>
<path style=" stroke:none;fill-rule:evenodd;fill:rgb(3.921569%,2.352941%,3.529412%);fill-opacity:1;" d="M 92.75 25.25 C 92.695312 26.539062 93.03125 27.707031 93.75 28.75 C 92.9375 30.621094 93.605469 31.621094 95.75 31.75 C 95.183594 32.238281 94.683594 32.820312 94.25 33.5 C 94.867188 33.617188 95.367188 33.867188 95.75 34.25 C 94.195312 34.175781 92.695312 34.425781 91.25 35 C 90.410156 36.40625 90.742188 37.320312 92.25 37.75 C 92.324219 38.277344 92.242188 38.777344 92 39.25 C 89.777344 38.730469 89.777344 39.0625 92 40.25 C 92.167969 40.082031 92.332031 39.917969 92.5 39.75 C 92.742188 40.222656 92.824219 40.722656 92.75 41.25 C 92.195312 41.277344 91.695312 41.445312 91.25 41.75 C 91.292969 40.199219 91.042969 40.035156 90.5 41.25 C 90.25 42.574219 90.167969 43.90625 90.25 45.25 C 90.183594 42.078125 89.347656 39.078125 87.75 36.25 C 88.125 36.132812 88.539062 35.964844 89 35.75 C 89.851562 34.710938 90.4375 33.546875 90.75 32.25 C 91.761719 27.738281 90.59375 23.820312 87.25 20.5 C 85.535156 19.53125 83.703125 18.945312 81.75 18.75 C 73.335938 18.167969 64.835938 18.085938 56.25 18.5 C 44.414062 21.421875 38.414062 29.007812 38.25 41.25 C 38.207031 48.007812 38.292969 54.84375 38.5 61.75 C 38.628906 63.292969 38.878906 64.792969 39.25 66.25 C 39.4375 68.417969 40.269531 70.253906 41.75 71.75 C 43.054688 74.554688 45.054688 76.722656 47.75 78.25 C 49.46875 79.242188 51.300781 79.992188 53.25 80.5 C 56.835938 80.835938 60.335938 81.253906 63.75 81.75 C 62.238281 81.902344 60.738281 82.152344 59.25 82.5 C 60.839844 83.285156 62.507812 83.867188 64.25 84.25 C 64.25 85.417969 64.25 86.582031 64.25 87.75 C 63.769531 86.867188 63.601562 85.867188 63.75 84.75 C 63.164062 84.640625 62.664062 84.808594 62.25 85.25 C 62 87.097656 61.5 88.847656 60.75 90.5 C 60.878906 91.128906 61.214844 91.628906 61.75 92 C 63.003906 92.347656 64.167969 92.765625 65.25 93.25 C 63.574219 93.941406 61.90625 93.777344 60.25 92.75 C 58.964844 97.375 55.964844 99.375 51.25 98.75 C 50.582031 98.582031 49.917969 98.417969 49.25 98.25 C 47.933594 97.335938 46.433594 96.753906 44.75 96.5 C 46.242188 96.25 47.742188 96.167969 49.25 96.25 C 50.058594 96.519531 50.890625 96.683594 51.75 96.75 C 53.898438 97.480469 55.648438 96.8125 57 94.75 C 57.441406 93.175781 58.023438 91.675781 58.75 90.25 C 60.089844 89.234375 60.925781 87.902344 61.25 86.25 C 60.664062 86.359375 60.164062 86.191406 59.75 85.75 C 60.300781 85.054688 60.96875 84.46875 61.75 84 C 59.074219 83.804688 56.40625 83.554688 53.75 83.25 C 50.164062 82.289062 46.832031 80.789062 43.75 78.75 C 40.851562 77.265625 38.933594 74.929688 38 71.75 C 36.441406 67.011719 35.273438 62.179688 34.5 57.25 C 34.25 59.253906 34 61.253906 33.75 63.25 C 33.417969 61.417969 33.082031 59.582031 32.75 57.75 C 32.742188 56.71875 32.574219 55.71875 32.25 54.75 C 32.417969 54.75 32.582031 54.75 32.75 54.75 C 33.359375 55.015625 33.945312 55.347656 34.5 55.75 C 33.832031 45.636719 35.082031 35.804688 38.25 26.25 C 38.699219 25.855469 39.035156 25.355469 39.25 24.75 C 39.917969 23.75 40.75 22.917969 41.75 22.25 C 46.371094 18.875 51.539062 16.875 57.25 16.25 C 63.085938 17.253906 64.085938 15.753906 60.25 11.75 C 59.191406 10.699219 58.359375 9.535156 57.75 8.25 C 57.453125 6.65625 56.871094 5.15625 56 3.75 C 55.277344 2.921875 54.359375 2.589844 53.25 2.75 C 49.277344 3.683594 45.445312 5.019531 41.75 6.75 C 40.847656 7.011719 40.015625 7.34375 39.25 7.75 C 38.390625 7.8125 37.558594 7.980469 36.75 8.25 C 36.261719 8.007812 35.761719 7.757812 35.25 7.5 C 35.972656 7.3125 36.472656 6.894531 36.75 6.25 C 42.144531 4.117188 47.644531 2.285156 53.25 0.75 C 54.316406 0.757812 55.316406 1.007812 56.25 1.5 C 57.890625 3.199219 59.222656 5.113281 60.25 7.25 C 61.886719 6.707031 63.554688 6.625 65.25 7 C 66.167969 7.25 66.75 7.832031 67 8.75 C 68.253906 7.71875 69.671875 6.96875 71.25 6.5 C 80.199219 4.722656 85.53125 8.308594 87.25 17.25 C 90.308594 19.128906 92.140625 21.796875 92.75 25.25 Z M 92.75 25.25 "/>
<path style=" stroke:none;fill-rule:evenodd;fill:rgb(24.313725%,13.333333%,11.372549%);fill-opacity:1;" d="M 62.75 7.75 C 64.191406 7.515625 65.355469 7.933594 66.25 9 C 64.980469 10.457031 63.898438 12.039062 63 13.75 C 62.144531 12.289062 61.230469 10.875 60.25 9.5 C 61.117188 8.90625 61.949219 8.320312 62.75 7.75 Z M 62.75 7.75 "/>
<path style=" stroke:none;fill-rule:evenodd;fill:rgb(29.803922%,16.862745%,10.980392%);fill-opacity:1;" d="M 41.75 6.75 C 42.710938 8.507812 43.546875 10.34375 44.25 12.25 C 43.117188 10.976562 42.117188 9.558594 41.25 8 C 40.601562 7.753906 39.9375 7.671875 39.25 7.75 C 40.015625 7.34375 40.847656 7.011719 41.75 6.75 Z M 41.75 6.75 "/>
<path style=" stroke:none;fill-rule:evenodd;fill:rgb(35.686275%,31.764706%,31.764706%);fill-opacity:1;" d="M 75.75 9.25 C 77.0625 8.734375 78.398438 8.898438 79.75 9.75 C 80.214844 10.34375 80.382812 11.011719 80.25 11.75 C 79.03125 11.621094 77.863281 11.289062 76.75 10.75 C 76.144531 10.363281 76.144531 9.945312 76.75 9.5 C 76.453125 9.269531 76.121094 9.183594 75.75 9.25 Z M 75.75 9.25 "/>
<path style=" stroke:none;fill-rule:evenodd;fill:rgb(81.568627%,58.431373%,41.568627%);fill-opacity:1;" d="M 53.25 2.75 C 54.359375 2.589844 55.277344 2.921875 56 3.75 C 56.871094 5.15625 57.453125 6.65625 57.75 8.25 C 56.71875 9.078125 55.46875 9.578125 54 9.75 C 53.863281 11.125 53.613281 12.460938 53.25 13.75 C 50.109375 14.878906 46.941406 15.964844 43.75 17 C 41.484375 19.210938 39.984375 21.792969 39.25 24.75 C 39.035156 25.355469 38.699219 25.855469 38.25 26.25 C 37.105469 27.222656 35.9375 28.222656 34.75 29.25 C 34.667969 28.070312 34.75 26.90625 35 25.75 C 36.269531 23.59375 37.101562 21.257812 37.5 18.75 C 38.4375 17.789062 39.1875 16.707031 39.75 15.5 C 39.265625 14.511719 38.601562 13.761719 37.75 13.25 C 37.75 12.917969 37.582031 12.75 37.25 12.75 C 36.339844 11.296875 36.175781 9.796875 36.75 8.25 C 37.558594 7.980469 38.390625 7.8125 39.25 7.75 C 39.9375 7.671875 40.601562 7.753906 41.25 8 C 42.117188 9.558594 43.117188 10.976562 44.25 12.25 C 44.683594 12.730469 45.015625 12.730469 45.25 12.25 C 43.460938 10.03125 43.460938 7.863281 45.25 5.75 C 44.96875 8.324219 45.96875 10.15625 48.25 11.25 C 48.855469 11.125 49.191406 10.792969 49.25 10.25 C 49.335938 8.652344 50.003906 7.234375 51.25 6 C 50.917969 5.832031 50.582031 5.667969 50.25 5.5 C 51.511719 4.820312 52.511719 3.902344 53.25 2.75 Z M 53.25 2.75 "/>
<path style=" stroke:none;fill-rule:evenodd;fill:rgb(57.254902%,35.686275%,21.960784%);fill-opacity:1;" d="M 45.25 5.75 C 46.457031 7.308594 47.789062 8.808594 49.25 10.25 C 49.191406 10.792969 48.855469 11.125 48.25 11.25 C 45.96875 10.15625 44.96875 8.324219 45.25 5.75 Z M 45.25 5.75 "/>
<path style=" stroke:none;fill-rule:evenodd;fill:rgb(21.568627%,11.764706%,10.980392%);fill-opacity:1;" d="M 60.25 11.75 C 64.085938 15.753906 63.085938 17.253906 57.25 16.25 C 57.398438 14.679688 58.234375 13.59375 59.75 13 C 57.847656 12.253906 58.015625 11.835938 60.25 11.75 Z M 60.25 11.75 "/>
<path style=" stroke:none;fill-rule:evenodd;fill:rgb(37.647059%,24.705882%,18.823529%);fill-opacity:1;" d="M 37.25 12.75 C 37.582031 12.75 37.75 12.917969 37.75 13.25 C 38.398438 15.621094 37.648438 17.453125 35.5 18.75 C 35.25 18.667969 35 18.582031 34.75 18.5 C 35.207031 18.3125 35.625 18.0625 36 17.75 C 36.6875 16.203125 36.9375 14.703125 36.75 13.25 C 37.082031 13.25 37.25 13.082031 37.25 12.75 Z M 37.25 12.75 "/>
<use xlink:href="#surface5" mask="url(#mask0)"/>
<path style=" stroke:none;fill-rule:evenodd;fill:rgb(60.784314%,38.823529%,28.235294%);fill-opacity:1;" d="M 41.75 22.25 C 40.75 22.917969 39.917969 23.75 39.25 24.75 C 39.984375 21.792969 41.484375 19.210938 43.75 17 C 46.941406 15.964844 50.109375 14.878906 53.25 13.75 C 53.875 13.710938 54.292969 13.378906 54.5 12.75 C 55.042969 13.332031 55.457031 14 55.75 14.75 C 51.8125 16.023438 47.980469 17.523438 44.25 19.25 C 43.03125 19.964844 42.199219 20.964844 41.75 22.25 Z M 41.75 22.25 "/>
<path style=" stroke:none;fill-rule:evenodd;fill:rgb(50.588235%,34.117647%,25.098039%);fill-opacity:1;" d="M 57.75 8.25 C 58.359375 9.535156 59.191406 10.699219 60.25 11.75 C 58.015625 11.835938 57.847656 12.253906 59.75 13 C 58.234375 13.59375 57.398438 14.679688 57.25 16.25 C 51.539062 16.875 46.371094 18.875 41.75 22.25 C 42.199219 20.964844 43.03125 19.964844 44.25 19.25 C 47.980469 17.523438 51.8125 16.023438 55.75 14.75 C 55.457031 14 55.042969 13.332031 54.5 12.75 C 54.292969 13.378906 53.875 13.710938 53.25 13.75 C 53.613281 12.460938 53.863281 11.125 54 9.75 C 55.46875 9.578125 56.71875 9.078125 57.75 8.25 Z M 57.75 8.25 "/>
<use xlink:href="#surface8" mask="url(#mask1)"/>
<path style=" stroke:none;fill-rule:evenodd;fill:rgb(85.098039%,65.882353%,50.980392%);fill-opacity:1;" d="M 36.75 13.25 C 36.9375 14.703125 36.6875 16.203125 36 17.75 C 35.625 18.0625 35.207031 18.3125 34.75 18.5 C 35 18.582031 35.25 18.667969 35.5 18.75 C 37.648438 17.453125 38.398438 15.621094 37.75 13.25 C 38.601562 13.761719 39.265625 14.511719 39.75 15.5 C 39.1875 16.707031 38.4375 17.789062 37.5 18.75 C 37.101562 21.257812 36.269531 23.59375 35 25.75 C 34.75 26.90625 34.667969 28.070312 34.75 29.25 C 33.917969 30.953125 33.085938 32.621094 32.25 34.25 C 30.09375 33.75 28.09375 33.082031 26.25 32.25 C 27.921875 25.902344 30.671875 20.070312 34.5 14.75 C 35.066406 13.929688 35.816406 13.429688 36.75 13.25 Z M 36.75 13.25 "/>
<use xlink:href="#surface11" mask="url(#mask2)"/>
<path style=" stroke:none;fill-rule:evenodd;fill:rgb(0.392157%,0%,2.352941%);fill-opacity:1;" d="M 82.75 32.75 C 80.730469 40.011719 76.0625 42.429688 68.75 40 C 66.09375 38.925781 64.425781 37.011719 63.75 34.25 C 62.332031 28.503906 64.332031 24.421875 69.75 22 C 78.125 20.765625 82.457031 24.347656 82.75 32.75 Z M 82.75 32.75 "/>
<path style=" stroke:none;fill-rule:evenodd;fill:rgb(41.176471%,31.372549%,23.137255%);fill-opacity:1;" d="M 31.25 22.75 C 32.082031 22.75 32.917969 22.75 33.75 22.75 C 33.75 23.417969 33.75 24.082031 33.75 24.75 C 32.023438 25.121094 31.191406 24.457031 31.25 22.75 Z M 31.25 22.75 "/>
<use xlink:href="#surface14" mask="url(#mask3)"/>
<path style=" stroke:none;fill-rule:evenodd;fill:rgb(58.823529%,50.980392%,46.666667%);fill-opacity:1;" d="M 7.75 20.25 C 8.789062 20.308594 9.789062 20.558594 10.75 21 C 12.867188 23.03125 14.867188 25.113281 16.75 27.25 C 16.375 27.785156 15.875 27.871094 15.25 27.5 C 13.25 25.832031 11.25 24.167969 9.25 22.5 C 8.429688 21.933594 7.929688 21.183594 7.75 20.25 Z M 7.75 20.25 "/>
<path style=" stroke:none;fill-rule:evenodd;fill:rgb(33.72549%,26.666667%,23.529412%);fill-opacity:1;" d="M 5.75 21.75 C 6.199219 22.300781 6.613281 22.300781 7 21.75 C 7.316406 22.484375 7.734375 23.148438 8.25 23.75 C 7.617188 24.179688 6.949219 24.515625 6.25 24.75 C 6.082031 23.75 5.917969 22.75 5.75 21.75 Z M 5.75 21.75 "/>
<path style=" stroke:none;fill-rule:evenodd;fill:rgb(34.901961%,27.843137%,26.27451%);fill-opacity:1;" d="M 16.75 27.25 C 14.867188 25.113281 12.867188 23.03125 10.75 21 C 9.789062 20.558594 8.789062 20.308594 7.75 20.25 C 8.4375 19.464844 9.269531 19.046875 10.25 19 C 12.667969 21.25 15.082031 23.5 17.5 25.75 C 17.792969 26.5 17.542969 27 16.75 27.25 Z M 16.75 27.25 "/>
<path style=" stroke:none;fill-rule:evenodd;fill:rgb(89.411765%,80.392157%,72.156863%);fill-opacity:1;" d="M 12.25 13.25 C 10.515625 14.304688 8.683594 15.222656 6.75 16 C 5.769531 16.726562 5.101562 17.640625 4.75 18.75 C 4.183594 19.8125 4.101562 20.980469 4.5 22.25 C 5.046875 23.039062 5.464844 23.871094 5.75 24.75 C 3.964844 24.550781 2.882812 23.550781 2.5 21.75 C 2.625 16.617188 5.292969 13.617188 10.5 12.75 C 11.128906 12.824219 11.710938 12.992188 12.25 13.25 Z M 12.25 13.25 "/>
<path style=" stroke:none;fill-rule:evenodd;fill:rgb(60%,39.607843%,27.058824%);fill-opacity:1;" d="M 13.25 14.25 C 13.730469 15.132812 13.898438 16.132812 13.75 17.25 C 11.742188 17.167969 9.742188 17.25 7.75 17.5 C 6.339844 18.570312 5.671875 19.988281 5.75 21.75 C 5.917969 22.75 6.082031 23.75 6.25 24.75 C 6.082031 24.75 5.917969 24.75 5.75 24.75 C 5.464844 23.871094 5.046875 23.039062 4.5 22.25 C 4.101562 20.980469 4.183594 19.8125 4.75 18.75 C 7.242188 16.585938 10.074219 15.085938 13.25 14.25 Z M 13.25 14.25 "/>
<path style=" stroke:none;fill-rule:evenodd;fill:rgb(80%,61.568627%,48.627451%);fill-opacity:1;" d="M 12.25 13.25 C 12.75 13.417969 13.082031 13.75 13.25 14.25 C 10.074219 15.085938 7.242188 16.585938 4.75 18.75 C 5.101562 17.640625 5.769531 16.726562 6.75 16 C 8.683594 15.222656 10.515625 14.304688 12.25 13.25 Z M 12.25 13.25 "/>
<path style=" stroke:none;fill-rule:evenodd;fill:rgb(90.196078%,70.980392%,55.294118%);fill-opacity:1;" d="M 27.75 22.75 C 26.984375 24.375 26.320312 26.039062 25.75 27.75 C 24.4375 28.882812 23.769531 30.382812 23.75 32.25 C 22.375 32.40625 21.042969 32.238281 19.75 31.75 C 20.867188 26.824219 23.449219 22.992188 27.5 20.25 C 27.453125 21.191406 27.535156 22.023438 27.75 22.75 Z M 27.75 22.75 "/>
<path style=" stroke:none;fill-rule:evenodd;fill:rgb(12.156863%,9.019608%,12.941176%);fill-opacity:1;" d="M 81.75 18.75 C 83.703125 18.945312 85.535156 19.53125 87.25 20.5 C 90.59375 23.820312 91.761719 27.738281 90.75 32.25 C 90.382812 31.644531 90.214844 30.980469 90.25 30.25 C 88.601562 30.527344 87.769531 30.027344 87.75 28.75 C 87.125 29.503906 87.125 30.253906 87.75 31 C 87.050781 31.65625 86.550781 32.40625 86.25 33.25 C 87.121094 22.707031 82.285156 18.289062 71.75 20 C 74.96875 20.628906 78.136719 21.460938 81.25 22.5 C 83.449219 25.546875 84.617188 28.964844 84.75 32.75 C 84.019531 33.203125 83.351562 33.203125 82.75 32.75 C 82.457031 24.347656 78.125 20.765625 69.75 22 C 64.332031 24.421875 62.332031 28.503906 63.75 34.25 C 62.808594 34.144531 62.140625 33.644531 61.75 32.75 C 61.652344 33.519531 61.320312 34.351562 60.75 35.25 C 59.09375 34.828125 57.425781 34.242188 55.75 33.5 C 55.445312 32.425781 55.109375 31.34375 54.75 30.25 C 54.410156 30.429688 54.074219 30.597656 53.75 30.75 C 52.488281 29.175781 50.90625 28.007812 49 27.25 C 48.640625 27.726562 48.222656 27.808594 47.75 27.5 C 47.671875 26.894531 47.507812 26.3125 47.25 25.75 C 50.242188 22.585938 53.910156 20.753906 58.25 20.25 C 58.804688 21.464844 59.804688 21.964844 61.25 21.75 C 63.15625 21.617188 64.988281 21.203125 66.75 20.5 C 64.089844 20.25 61.421875 20.167969 58.75 20.25 C 61.828125 19.835938 64.992188 19.585938 68.25 19.5 C 67.25 19.332031 66.25 19.167969 65.25 19 C 70.746094 18.75 76.246094 18.667969 81.75 18.75 Z M 81.75 18.75 "/>
<path style=" stroke:none;fill-rule:evenodd;fill:rgb(50.196078%,41.960784%,40.392157%);fill-opacity:1;" d="M 58.25 20.25 C 58.417969 20.25 58.582031 20.25 58.75 20.25 C 61.421875 20.167969 64.089844 20.25 66.75 20.5 C 64.988281 21.203125 63.15625 21.617188 61.25 21.75 C 59.804688 21.964844 58.804688 21.464844 58.25 20.25 Z M 58.25 20.25 "/>
<path style=" stroke:none;fill-rule:evenodd;fill:rgb(36.470588%,31.764706%,31.764706%);fill-opacity:1;" d="M 86.25 33.25 C 85.695312 33.222656 85.195312 33.054688 84.75 32.75 C 84.617188 28.964844 83.449219 25.546875 81.25 22.5 C 78.136719 21.460938 74.96875 20.628906 71.75 20 C 82.285156 18.289062 87.121094 22.707031 86.25 33.25 Z M 86.25 33.25 "/>
<use xlink:href="#surface17" mask="url(#mask4)"/>
<path style=" stroke:none;fill-rule:evenodd;fill:rgb(60%,58.823529%,60%);fill-opacity:1;" d="M 55.25 27.25 C 55.75 27.25 56.25 27.25 56.75 27.25 C 56.75 27.75 56.75 28.25 56.75 28.75 C 56.25 28.75 55.75 28.75 55.25 28.75 C 55.25 28.25 55.25 27.75 55.25 27.25 Z M 55.25 27.25 "/>
<path style=" stroke:none;fill-rule:evenodd;fill:rgb(12.54902%,8.627451%,13.333333%);fill-opacity:1;" d="M 47.25 25.75 C 47.507812 26.3125 47.671875 26.894531 47.75 27.5 C 48.222656 27.808594 48.640625 27.726562 49 27.25 C 50.90625 28.007812 52.488281 29.175781 53.75 30.75 C 53.21875 31.851562 52.882812 33.015625 52.75 34.25 C 47.476562 34.992188 47.476562 35.992188 52.75 37.25 C 53.316406 38.351562 53.652344 39.519531 53.75 40.75 C 53.75 41.082031 53.582031 41.25 53.25 41.25 C 52.84375 40.503906 52.175781 40.171875 51.25 40.25 C 49.539062 40.523438 48.039062 41.191406 46.75 42.25 C 45.921875 42.328125 45.257812 42.664062 44.75 43.25 C 43.96875 43.367188 43.300781 43.699219 42.75 44.25 C 42.582031 44.25 42.417969 44.25 42.25 44.25 C 41.488281 37.96875 42.738281 32.136719 46 26.75 C 46.355469 26.308594 46.769531 25.976562 47.25 25.75 Z M 47.25 25.75 "/>
<path style=" stroke:none;fill-rule:evenodd;fill:rgb(69.019608%,47.058824%,34.117647%);fill-opacity:1;" d="M 38.25 26.25 C 35.082031 35.804688 33.832031 45.636719 34.5 55.75 C 33.945312 55.347656 33.359375 55.015625 32.75 54.75 C 32.75 54.417969 32.75 54.082031 32.75 53.75 C 33.375 53.789062 33.792969 54.121094 34 54.75 C 34.410156 50.828125 34.328125 46.996094 33.75 43.25 C 34.109375 40.0625 33.609375 37.0625 32.25 34.25 C 33.085938 32.621094 33.917969 30.953125 34.75 29.25 C 35.9375 28.222656 37.105469 27.222656 38.25 26.25 Z M 38.25 26.25 "/>
<path style=" stroke:none;fill-rule:evenodd;fill:rgb(91.372549%,80.392157%,70.980392%);fill-opacity:1;" d="M 27.75 22.75 C 27.535156 22.023438 27.453125 21.191406 27.5 20.25 C 23.449219 22.992188 20.867188 26.824219 19.75 31.75 C 21.042969 32.238281 22.375 32.40625 23.75 32.25 C 23.769531 30.382812 24.4375 28.882812 25.75 27.75 C 24.960938 29.328125 24.460938 30.992188 24.25 32.75 C 22.058594 32.6875 19.894531 32.851562 17.75 33.25 C 18.109375 31.699219 18.609375 30.199219 19.25 28.75 C 20.925781 23.324219 24.507812 19.824219 30 18.25 C 29.289062 19.675781 28.539062 21.175781 27.75 22.75 Z M 27.75 22.75 "/>
<path style=" stroke:none;fill-rule:evenodd;fill:rgb(81.568627%,74.901961%,69.019608%);fill-opacity:1;" d="M 95.75 31.75 C 93.605469 31.621094 92.9375 30.621094 93.75 28.75 C 96.445312 27.542969 98.277344 28.292969 99.25 31 C 99.175781 31.386719 99.011719 31.71875 98.75 32 C 97.726562 32.246094 96.726562 32.160156 95.75 31.75 Z M 95.75 31.75 "/>
<path style=" stroke:none;fill-rule:evenodd;fill:rgb(34.117647%,32.941176%,34.117647%);fill-opacity:1;" d="M 16.75 29.75 C 15.925781 32.398438 14.59375 34.730469 12.75 36.75 C 13.054688 33.808594 14.386719 31.472656 16.75 29.75 Z M 16.75 29.75 "/>
<path style=" stroke:none;fill-rule:evenodd;fill:rgb(7.45098%,4.313725%,8.627451%);fill-opacity:1;" d="M 81.75 18.75 C 76.246094 18.667969 70.746094 18.75 65.25 19 C 66.25 19.167969 67.25 19.332031 68.25 19.5 C 64.992188 19.585938 61.828125 19.835938 58.75 20.25 C 58.582031 20.25 58.417969 20.25 58.25 20.25 C 53.910156 20.753906 50.242188 22.585938 47.25 25.75 C 46.769531 25.976562 46.355469 26.308594 46 26.75 C 42.738281 32.136719 41.488281 37.96875 42.25 44.25 C 41.511719 44.535156 40.679688 44.535156 39.75 44.25 C 38.839844 47.96875 39.171875 51.554688 40.75 55 C 40.382812 56.234375 40.382812 57.566406 40.75 59 C 39.417969 59.667969 39.417969 60.332031 40.75 61 C 40.25 61.167969 39.75 61.332031 39.25 61.5 C 41.160156 63.09375 41.160156 64.675781 39.25 66.25 C 38.878906 64.792969 38.628906 63.292969 38.5 61.75 C 38.292969 54.84375 38.207031 48.007812 38.25 41.25 C 38.414062 29.007812 44.414062 21.421875 56.25 18.5 C 64.835938 18.085938 73.335938 18.167969 81.75 18.75 Z M 81.75 18.75 "/>
<path style=" stroke:none;fill-rule:evenodd;fill:rgb(10.196078%,6.666667%,10.980392%);fill-opacity:1;" d="M 90.75 32.25 C 90.4375 33.546875 89.851562 34.710938 89 35.75 C 88.539062 35.964844 88.125 36.132812 87.75 36.25 C 89.347656 39.078125 90.183594 42.078125 90.25 45.25 C 90.167969 47.765625 90.335938 50.265625 90.75 52.75 C 90.007812 55.179688 89.589844 57.679688 89.5 60.25 C 88.851562 61.132812 88.269531 62.050781 87.75 63 C 88.859375 64.460938 89.691406 65.878906 90.25 67.25 C 90.746094 69.558594 90.914062 71.894531 90.75 74.25 C 90.867188 74.894531 90.703125 75.394531 90.25 75.75 C 89.398438 74.355469 88.8125 74.523438 88.5 76.25 C 87.855469 74.855469 86.9375 73.6875 85.75 72.75 C 85.417969 70.75 85.082031 68.75 84.75 66.75 C 83.863281 68.046875 83.195312 69.214844 82.75 70.25 C 82.816406 68.714844 82.648438 67.214844 82.25 65.75 C 79.511719 59.390625 74.847656 57.390625 68.25 59.75 C 67.496094 59.136719 66.746094 59.136719 66 59.75 C 65.84375 59.117188 65.59375 58.535156 65.25 58 C 65.417969 57.832031 65.582031 57.667969 65.75 57.5 C 65.164062 57.289062 64.664062 56.957031 64.25 56.5 C 65.105469 55.933594 65.355469 55.183594 65 54.25 C 64.367188 54.179688 63.785156 54.179688 63.25 54.25 C 64.300781 53.203125 65.136719 52.039062 65.75 50.75 C 65.578125 49.402344 64.910156 48.402344 63.75 47.75 C 62.496094 43.832031 59.832031 42.164062 55.75 42.75 C 55.75 42.582031 55.75 42.417969 55.75 42.25 C 55.292969 38.375 56.960938 36.042969 60.75 35.25 C 61.320312 34.351562 61.652344 33.519531 61.75 32.75 C 62.140625 33.644531 62.808594 34.144531 63.75 34.25 C 64.425781 37.011719 66.09375 38.925781 68.75 40 C 76.0625 42.429688 80.730469 40.011719 82.75 32.75 C 83.351562 33.203125 84.019531 33.203125 84.75 32.75 C 85.195312 33.054688 85.695312 33.222656 86.25 33.25 C 86.550781 32.40625 87.050781 31.65625 87.75 31 C 87.125 30.253906 87.125 29.503906 87.75 28.75 C 87.769531 30.027344 88.601562 30.527344 90.25 30.25 C 90.214844 30.980469 90.382812 31.644531 90.75 32.25 Z M 90.75 32.25 "/>
<path style=" stroke:none;fill-rule:evenodd;fill:rgb(79.215686%,81.176471%,82.352941%);fill-opacity:1;" d="M 60.75 35.25 C 56.960938 36.042969 55.292969 38.375 55.75 42.25 C 55.582031 42.25 55.417969 42.25 55.25 42.25 C 55.324219 41.722656 55.242188 41.222656 55 40.75 C 54.613281 41.300781 54.199219 41.300781 53.75 40.75 C 53.652344 39.519531 53.316406 38.351562 52.75 37.25 C 47.476562 35.992188 47.476562 34.992188 52.75 34.25 C 52.882812 33.015625 53.21875 31.851562 53.75 30.75 C 54.074219 30.597656 54.410156 30.429688 54.75 30.25 C 55.109375 31.34375 55.445312 32.425781 55.75 33.5 C 57.425781 34.242188 59.09375 34.828125 60.75 35.25 Z M 60.75 35.25 "/>
<path style=" stroke:none;fill-rule:evenodd;fill:rgb(82.352941%,75.686275%,69.019608%);fill-opacity:1;" d="M 95.75 34.25 C 97.648438 37.953125 96.480469 39.121094 92.25 37.75 C 90.742188 37.320312 90.410156 36.40625 91.25 35 C 92.695312 34.425781 94.195312 34.175781 95.75 34.25 Z M 95.75 34.25 "/>
<path style=" stroke:none;fill-rule:evenodd;fill:rgb(90.980392%,56.862745%,33.333333%);fill-opacity:1;" d="M 28.75 35.25 C 30.335938 35.421875 31.421875 36.253906 32 37.75 C 32.25 40.246094 32.332031 42.746094 32.25 45.25 C 31.765625 44.167969 31.347656 43 31 41.75 C 30.75 43.75 30.5 45.75 30.25 47.75 C 30.183594 48.902344 30.515625 49.902344 31.25 50.75 C 30.949219 51.398438 30.699219 52.0625 30.5 52.75 C 29.050781 50.316406 28.386719 47.648438 28.5 44.75 C 28.257812 45.222656 28.175781 45.722656 28.25 46.25 C 27.417969 47.316406 26.917969 48.566406 26.75 50 C 28.183594 53.652344 29.183594 57.402344 29.75 61.25 C 29.765625 62.308594 29.265625 62.976562 28.25 63.25 C 27.550781 64.027344 27.21875 63.859375 27.25 62.75 C 27.769531 60.601562 27.855469 58.433594 27.5 56.25 C 27.371094 55.191406 26.871094 54.359375 26 53.75 C 25.90625 52.300781 25.824219 50.96875 25.75 49.75 C 25.832031 46.746094 25.75 43.746094 25.5 40.75 C 24.320312 42.199219 23.15625 44.03125 22 46.25 C 21.832031 45.417969 21.667969 44.582031 21.5 43.75 C 20.414062 43.246094 19.832031 42.414062 19.75 41.25 C 20.277344 41.324219 20.777344 41.242188 21.25 41 C 20.546875 40.367188 19.714844 40.117188 18.75 40.25 C 18.957031 39.890625 19.292969 39.640625 19.75 39.5 C 18.109375 38.027344 16.445312 37.945312 14.75 39.25 C 15.59375 37.703125 16.757812 36.535156 18.25 35.75 C 21.734375 35.304688 25.234375 35.140625 28.75 35.25 Z M 28.75 35.25 "/>
<path style=" stroke:none;fill-rule:evenodd;fill:rgb(58.431373%,43.529412%,43.529412%);fill-opacity:1;" d="M 53.75 40.75 C 54.199219 41.300781 54.613281 41.300781 55 40.75 C 55.242188 41.222656 55.324219 41.722656 55.25 42.25 C 54.75 42.25 54.25 42.25 53.75 42.25 C 53.582031 41.917969 53.417969 41.582031 53.25 41.25 C 53.582031 41.25 53.75 41.082031 53.75 40.75 Z M 53.75 40.75 "/>
<path style=" stroke:none;fill-rule:evenodd;fill:rgb(8.627451%,6.666667%,6.27451%);fill-opacity:1;" d="M 19.25 28.75 C 18.609375 30.199219 18.109375 31.699219 17.75 33.25 C 19.894531 32.851562 22.058594 32.6875 24.25 32.75 C 25.097656 33.414062 25.765625 33.246094 26.25 32.25 C 28.09375 33.082031 30.09375 33.75 32.25 34.25 C 33.609375 37.0625 34.109375 40.0625 33.75 43.25 C 33.785156 43.980469 33.617188 44.644531 33.25 45.25 C 33.050781 42.671875 32.96875 40.007812 33 37.25 C 32.171875 35.132812 30.753906 34.300781 28.75 34.75 C 25.59375 34.285156 22.429688 34.203125 19.25 34.5 C 17.777344 34.570312 16.609375 35.152344 15.75 36.25 C 12.714844 38.648438 10.964844 41.816406 10.5 45.75 C 9.496094 51.992188 10.746094 57.660156 14.25 62.75 C 15.519531 64.304688 17.1875 65.21875 19.25 65.5 C 21.34375 65.90625 23.34375 65.824219 25.25 65.25 C 26.109375 65.183594 26.941406 65.019531 27.75 64.75 C 30.175781 65.363281 31.757812 64.527344 32.5 62.25 C 32.75 60.757812 32.832031 59.257812 32.75 57.75 C 33.082031 59.582031 33.417969 61.417969 33.75 63.25 C 32.324219 65.34375 30.324219 66.507812 27.75 66.75 C 27.011719 66.617188 26.34375 66.785156 25.75 67.25 C 27.164062 72.328125 29.164062 77.164062 31.75 81.75 C 31.183594 82.050781 30.683594 82.21875 30.25 82.25 C 29.402344 81.398438 28.738281 80.398438 28.25 79.25 C 26.414062 75.410156 25 71.410156 24 67.25 C 22.472656 66.773438 20.886719 66.609375 19.25 66.75 C 18.386719 66.59375 17.554688 66.507812 16.75 66.5 C 17.410156 66.90625 17.746094 67.492188 17.75 68.25 C 17.390625 68.777344 16.890625 69.109375 16.25 69.25 C 15.628906 67.988281 15.046875 66.65625 14.5 65.25 C 13.867188 64.195312 12.953125 63.695312 11.75 63.75 C 10.589844 63.210938 9.421875 63.292969 8.25 64 C 10.023438 64.628906 11.023438 65.878906 11.25 67.75 C 10.425781 66.289062 9.257812 65.121094 7.75 64.25 C 7.4375 63.792969 7.269531 63.292969 7.25 62.75 C 7.167969 61.242188 7.25 59.742188 7.5 58.25 C 8.417969 57.753906 9 57.003906 9.25 56 C 8.015625 51.652344 8.015625 47.320312 9.25 43 C 7.191406 41.164062 6.691406 38.914062 7.75 36.25 C 7.664062 35.753906 7.832031 35.421875 8.25 35.25 C 9.21875 34.925781 10.21875 34.757812 11.25 34.75 C 11.929688 35.296875 12.429688 35.960938 12.75 36.75 C 14.59375 34.730469 15.925781 32.398438 16.75 29.75 C 17.554688 29.894531 18.136719 29.394531 18.5 28.25 C 18.691406 28.527344 18.941406 28.695312 19.25 28.75 Z M 19.25 28.75 "/>
<path style=" stroke:none;fill-rule:evenodd;fill:rgb(75.294118%,61.568627%,50.588235%);fill-opacity:1;" d="M 9.75 36.75 C 12.1875 37.777344 12.273438 39.109375 10 40.75 C 8.433594 39.589844 8.351562 38.257812 9.75 36.75 Z M 9.75 36.75 "/>
<path style=" stroke:none;fill-rule:evenodd;fill:rgb(89.803922%,65.490196%,48.235294%);fill-opacity:1;" d="M 28.75 34.75 C 28.75 34.917969 28.75 35.082031 28.75 35.25 C 25.234375 35.140625 21.734375 35.304688 18.25 35.75 C 16.757812 36.535156 15.59375 37.703125 14.75 39.25 C 13.949219 40.351562 13.285156 41.519531 12.75 42.75 C 12.667969 41.902344 12.753906 41.066406 13 40.25 C 14.039062 38.96875 14.957031 37.632812 15.75 36.25 C 16.609375 35.152344 17.777344 34.570312 19.25 34.5 C 22.429688 34.203125 25.59375 34.285156 28.75 34.75 Z M 28.75 34.75 "/>
<path style=" stroke:none;fill-rule:evenodd;fill:rgb(98.431373%,80.392157%,54.117647%);fill-opacity:1;" d="M 53.25 41.25 C 53.417969 41.582031 53.582031 41.917969 53.75 42.25 C 52.152344 43.046875 50.402344 43.546875 48.5 43.75 C 47.804688 44.308594 47.21875 44.972656 46.75 45.75 C 46.292969 46.0625 45.792969 46.230469 45.25 46.25 C 46.265625 45.230469 47.097656 44.066406 47.75 42.75 C 47.523438 42.351562 47.1875 42.183594 46.75 42.25 C 48.039062 41.191406 49.539062 40.523438 51.25 40.25 C 52.175781 40.171875 52.84375 40.503906 53.25 41.25 Z M 53.25 41.25 "/>
<path style=" stroke:none;fill-rule:evenodd;fill:rgb(92.156863%,68.235294%,48.235294%);fill-opacity:1;" d="M 18.75 40.25 C 19.714844 40.117188 20.546875 40.367188 21.25 41 C 20.777344 41.242188 20.277344 41.324219 19.75 41.25 C 19.832031 42.414062 20.414062 43.246094 21.5 43.75 C 21.667969 44.582031 21.832031 45.417969 22 46.25 C 23.15625 44.03125 24.320312 42.199219 25.5 40.75 C 25.75 43.746094 25.832031 46.746094 25.75 49.75 C 24.804688 50.136719 23.804688 50.136719 22.75 49.75 C 22.625 51.292969 22.125 52.710938 21.25 54 C 22.644531 55.617188 22.976562 57.367188 22.25 59.25 C 22.21875 56.652344 21.882812 56.652344 21.25 59.25 C 17.796875 60.546875 16.378906 59.378906 17 55.75 C 17.464844 54.832031 18.046875 54.664062 18.75 55.25 C 19.179688 54.617188 19.515625 53.949219 19.75 53.25 C 21.121094 52.050781 21.535156 50.550781 21 48.75 C 20.148438 48.296875 19.234375 48.128906 18.25 48.25 C 18.214844 47.519531 18.382812 46.855469 18.75 46.25 C 20.425781 46.328125 20.59375 45.992188 19.25 45.25 C 16.816406 43.84375 16.652344 42.175781 18.75 40.25 Z M 18.75 40.25 "/>
<path style=" stroke:none;fill-rule:evenodd;fill:rgb(84.313725%,41.568627%,21.176471%);fill-opacity:1;" d="M 46.75 42.25 C 47.1875 42.183594 47.523438 42.351562 47.75 42.75 C 47.097656 44.066406 46.265625 45.230469 45.25 46.25 C 43.792969 45.398438 43.625 44.398438 44.75 43.25 C 45.257812 42.664062 45.921875 42.328125 46.75 42.25 Z M 46.75 42.25 "/>
<path style=" stroke:none;fill-rule:evenodd;fill:rgb(90.980392%,65.098039%,38.039216%);fill-opacity:1;" d="M 55.75 42.75 C 59.832031 42.164062 62.496094 43.832031 63.75 47.75 C 62.96875 47.632812 62.300781 47.300781 61.75 46.75 C 61.375 44.75 60.210938 44 58.25 44.5 C 58.417969 44.667969 58.582031 44.832031 58.75 45 C 58.441406 46.136719 58.109375 47.222656 57.75 48.25 C 57.75 47.25 57.75 46.25 57.75 45.25 C 56.582031 45.25 55.417969 45.25 54.25 45.25 C 54.632812 44.867188 55.132812 44.617188 55.75 44.5 C 55.636719 44.300781 55.46875 44.21875 55.25 44.25 C 55.554688 43.804688 55.722656 43.304688 55.75 42.75 Z M 55.75 42.75 "/>
<path style=" stroke:none;fill-rule:evenodd;fill:rgb(0%,0%,0.784314%);fill-opacity:1;" d="M 83.25 44.75 C 86.167969 44.167969 87.5 45.335938 87.25 48.25 C 85.9375 48.148438 85.101562 48.730469 84.75 50 C 85.484375 51.109375 86.316406 52.109375 87.25 53 C 86.316406 54.882812 84.816406 55.550781 82.75 55 C 80.523438 53.6875 78.523438 52.101562 76.75 50.25 C 77 49.75 77.25 49.25 77.5 48.75 C 79.367188 47.289062 81.285156 45.957031 83.25 44.75 Z M 83.25 44.75 "/>
<path style=" stroke:none;fill-rule:evenodd;fill:rgb(3.921569%,2.745098%,3.529412%);fill-opacity:1;" d="M 92.75 25.25 C 94.792969 26.070312 96.957031 26.652344 99.25 27 C 100.53125 28.148438 101.367188 29.5625 101.75 31.25 C 105.164062 32.707031 106.164062 35.207031 104.75 38.75 C 107.007812 41.050781 107.339844 43.636719 105.75 46.5 C 106.050781 49.925781 106.214844 53.34375 106.25 56.75 C 106.277344 58.332031 105.941406 59.832031 105.25 61.25 C 106.492188 65.449219 104.992188 67.78125 100.75 68.25 C 100.203125 67.324219 99.535156 66.492188 98.75 65.75 C 100.09375 65.832031 101.425781 65.75 102.75 65.5 C 104.082031 64.332031 104.082031 63.167969 102.75 62 C 101.316406 61.597656 99.984375 61.683594 98.75 62.25 C 98.265625 61.253906 97.597656 61.085938 96.75 61.75 C 94.847656 61.582031 93.011719 61.832031 91.25 62.5 C 90.578125 63.570312 90.746094 64.488281 91.75 65.25 C 91.539062 65.609375 91.207031 65.859375 90.75 66 C 91.414062 68.800781 91.414062 71.550781 90.75 74.25 C 90.914062 71.894531 90.746094 69.558594 90.25 67.25 C 89.691406 65.878906 88.859375 64.460938 87.75 63 C 88.269531 62.050781 88.851562 61.132812 89.5 60.25 C 89.589844 57.679688 90.007812 55.179688 90.75 52.75 C 90.335938 50.265625 90.167969 47.765625 90.25 45.25 C 90.167969 43.90625 90.25 42.574219 90.5 41.25 C 91.042969 40.035156 91.292969 40.199219 91.25 41.75 C 91.109375 42.644531 91.273438 43.476562 91.75 44.25 C 93.378906 44.707031 95.046875 44.875 96.75 44.75 C 96.75 43.582031 96.75 42.417969 96.75 41.25 C 95.417969 41.25 94.082031 41.25 92.75 41.25 C 92.824219 40.722656 92.742188 40.222656 92.5 39.75 C 92.332031 39.917969 92.167969 40.082031 92 40.25 C 89.777344 39.0625 89.777344 38.730469 92 39.25 C 92.242188 38.777344 92.324219 38.277344 92.25 37.75 C 96.480469 39.121094 97.648438 37.953125 95.75 34.25 C 95.367188 33.867188 94.867188 33.617188 94.25 33.5 C 94.683594 32.820312 95.183594 32.238281 95.75 31.75 C 96.726562 32.160156 97.726562 32.246094 98.75 32 C 99.011719 31.71875 99.175781 31.386719 99.25 31 C 98.277344 28.292969 96.445312 27.542969 93.75 28.75 C 93.03125 27.707031 92.695312 26.539062 92.75 25.25 Z M 92.75 25.25 "/>
<path style=" stroke:none;fill-rule:evenodd;fill:rgb(80%,68.627451%,60.392157%);fill-opacity:1;" d="M 98.75 40.75 C 100.257812 40.667969 101.757812 40.75 103.25 41 C 104.363281 42.011719 104.53125 43.179688 103.75 44.5 C 102.089844 44.75 100.425781 44.832031 98.75 44.75 C 98.75 43.417969 98.75 42.082031 98.75 40.75 Z M 98.75 40.75 "/>
<path style=" stroke:none;fill-rule:evenodd;fill:rgb(78.823529%,69.411765%,60.392157%);fill-opacity:1;" d="M 92.75 41.25 C 94.082031 41.25 95.417969 41.25 96.75 41.25 C 96.75 42.417969 96.75 43.582031 96.75 44.75 C 95.046875 44.875 93.378906 44.707031 91.75 44.25 C 91.273438 43.476562 91.109375 42.644531 91.25 41.75 C 91.695312 41.445312 92.195312 41.277344 92.75 41.25 Z M 92.75 41.25 "/>
<path style=" stroke:none;fill-rule:evenodd;fill:rgb(74.901961%,67.843137%,63.921569%);fill-opacity:1;" d="M 98.75 33.75 C 100.160156 33.625 101.492188 33.875 102.75 34.5 C 103.289062 35.363281 103.371094 36.28125 103 37.25 C 99.058594 38.824219 97.640625 37.660156 98.75 33.75 Z M 98.75 33.75 "/>
<path style=" stroke:none;fill-rule:evenodd;fill:rgb(65.490196%,34.509804%,19.215686%);fill-opacity:1;" d="M 18.75 40.25 C 16.652344 42.175781 16.816406 43.84375 19.25 45.25 C 15.789062 45.046875 14.121094 46.710938 14.25 50.25 C 14.28125 51.675781 14.613281 53.007812 15.25 54.25 C 15.121094 56.183594 15.453125 58.015625 16.25 59.75 C 15.433594 59.585938 14.933594 59.085938 14.75 58.25 C 14.261719 56.050781 13.675781 53.882812 13 51.75 C 12.75 49.421875 12.667969 47.089844 12.75 44.75 C 12.75 44.082031 12.75 43.417969 12.75 42.75 C 13.285156 41.519531 13.949219 40.351562 14.75 39.25 C 16.445312 37.945312 18.109375 38.027344 19.75 39.5 C 19.292969 39.640625 18.957031 39.890625 18.75 40.25 Z M 18.75 40.25 "/>
<path style=" stroke:none;fill-rule:evenodd;fill:rgb(74.509804%,29.411765%,7.843137%);fill-opacity:1;" d="M 55.25 44.25 C 55.46875 44.21875 55.636719 44.300781 55.75 44.5 C 55.132812 44.617188 54.632812 44.867188 54.25 45.25 C 52.824219 45.460938 51.488281 45.960938 50.25 46.75 C 49.945312 46.6875 49.78125 46.523438 49.75 46.25 C 51.417969 45.167969 53.25 44.5 55.25 44.25 Z M 55.25 44.25 "/>
<path style=" stroke:none;fill-rule:evenodd;fill:rgb(47.058824%,21.568627%,11.764706%);fill-opacity:1;" d="M 33.25 45.25 C 32.796875 48.054688 32.628906 50.886719 32.75 53.75 C 32.75 54.082031 32.75 54.417969 32.75 54.75 C 32.582031 54.75 32.417969 54.75 32.25 54.75 C 32.25 51.582031 32.25 48.417969 32.25 45.25 C 32.332031 42.746094 32.25 40.246094 32 37.75 C 31.421875 36.253906 30.335938 35.421875 28.75 35.25 C 28.75 35.082031 28.75 34.917969 28.75 34.75 C 30.753906 34.300781 32.171875 35.132812 33 37.25 C 32.96875 40.007812 33.050781 42.671875 33.25 45.25 Z M 33.25 45.25 "/>
<use xlink:href="#surface20" mask="url(#mask5)"/>
<path style=" stroke:none;fill-rule:evenodd;fill:rgb(84.313725%,50.196078%,29.019608%);fill-opacity:1;" d="M 33.75 43.25 C 34.328125 46.996094 34.410156 50.828125 34 54.75 C 33.792969 54.121094 33.375 53.789062 32.75 53.75 C 32.628906 50.886719 32.796875 48.054688 33.25 45.25 C 33.617188 44.644531 33.785156 43.980469 33.75 43.25 Z M 33.75 43.25 "/>
<path style=" stroke:none;fill-rule:evenodd;fill:rgb(98.431373%,87.843137%,69.803922%);fill-opacity:1;" d="M 53.75 42.25 C 54.25 42.25 54.75 42.25 55.25 42.25 C 55.417969 42.25 55.582031 42.25 55.75 42.25 C 55.75 42.417969 55.75 42.582031 55.75 42.75 C 55.722656 43.304688 55.554688 43.804688 55.25 44.25 C 53.25 44.5 51.417969 45.167969 49.75 46.25 C 47.394531 47.378906 46.476562 49.210938 47 51.75 C 47.191406 52.027344 47.441406 52.195312 47.75 52.25 C 49.035156 54.375 50.867188 55.707031 53.25 56.25 C 53.582031 56.75 53.917969 57.25 54.25 57.75 C 52.285156 60.851562 50.117188 61.019531 47.75 58.25 C 47.082031 56.582031 46.417969 54.917969 45.75 53.25 C 44.457031 53.230469 43.457031 53.730469 42.75 54.75 C 41.0625 53.632812 40.0625 52.050781 39.75 50 C 40.296875 47.824219 41.296875 45.90625 42.75 44.25 C 43.300781 43.699219 43.96875 43.367188 44.75 43.25 C 43.625 44.398438 43.792969 45.398438 45.25 46.25 C 45.792969 46.230469 46.292969 46.0625 46.75 45.75 C 47.21875 44.972656 47.804688 44.308594 48.5 43.75 C 50.402344 43.546875 52.152344 43.046875 53.75 42.25 Z M 53.75 42.25 "/>
<path style=" stroke:none;fill-rule:evenodd;fill:rgb(92.54902%,71.372549%,50.588235%);fill-opacity:1;" d="M 54.25 45.25 C 51.890625 46.308594 49.808594 47.808594 48 49.75 C 47.710938 50.464844 47.792969 51.132812 48.25 51.75 C 48.25 52.082031 48.082031 52.25 47.75 52.25 C 47.441406 52.195312 47.191406 52.027344 47 51.75 C 46.476562 49.210938 47.394531 47.378906 49.75 46.25 C 49.78125 46.523438 49.945312 46.6875 50.25 46.75 C 51.488281 45.960938 52.824219 45.460938 54.25 45.25 Z M 54.25 45.25 "/>
<path style=" stroke:none;fill-rule:evenodd;fill:rgb(5.490196%,3.529412%,3.921569%);fill-opacity:1;" d="M 54.25 45.25 C 55.417969 45.25 56.582031 45.25 57.75 45.25 C 57.75 46.25 57.75 47.25 57.75 48.25 C 56.464844 48.699219 55.464844 49.53125 54.75 50.75 C 55.789062 51.644531 56.871094 52.476562 58 53.25 C 58.332031 53.75 58.332031 54.25 58 54.75 C 56.945312 55.644531 55.695312 55.980469 54.25 55.75 C 52.078125 54.664062 50.078125 53.332031 48.25 51.75 C 47.792969 51.132812 47.710938 50.464844 48 49.75 C 49.808594 47.808594 51.890625 46.308594 54.25 45.25 Z M 54.25 45.25 "/>
<path style=" stroke:none;fill-rule:evenodd;fill:rgb(76.862745%,66.666667%,59.215686%);fill-opacity:1;" d="M 92.75 47.75 C 94.082031 47.75 95.417969 47.75 96.75 47.75 C 96.75 49.082031 96.75 50.417969 96.75 51.75 C 95.011719 51.90625 93.34375 51.65625 91.75 51 C 90.964844 49.546875 91.300781 48.464844 92.75 47.75 Z M 92.75 47.75 "/>
<path style=" stroke:none;fill-rule:evenodd;fill:rgb(81.568627%,70.588235%,63.137255%);fill-opacity:1;" d="M 99.25 47.75 C 100.757812 47.667969 102.257812 47.75 103.75 48 C 104.296875 49.03125 104.378906 50.117188 104 51.25 C 102.464844 51.808594 100.878906 51.890625 99.25 51.5 C 98.609375 50.25 98.609375 49 99.25 47.75 Z M 99.25 47.75 "/>
<path style=" stroke:none;fill-rule:evenodd;fill:rgb(92.156863%,84.313725%,76.078431%);fill-opacity:1;" d="M 15.75 36.25 C 14.957031 37.632812 14.039062 38.96875 13 40.25 C 12.753906 41.066406 12.667969 41.902344 12.75 42.75 C 12.75 43.417969 12.75 44.082031 12.75 44.75 C 12.367188 45.132812 12.117188 45.632812 12 46.25 C 11.550781 51.140625 12.300781 55.804688 14.25 60.25 C 14.25 61.082031 14.25 61.917969 14.25 62.75 C 10.746094 57.660156 9.496094 51.992188 10.5 45.75 C 10.964844 41.816406 12.714844 38.648438 15.75 36.25 Z M 15.75 36.25 "/>
<path style=" stroke:none;fill-rule:evenodd;fill:rgb(94.509804%,80.392157%,67.843137%);fill-opacity:1;" d="M 18.75 46.25 C 18.382812 46.855469 18.214844 47.519531 18.25 48.25 C 17.375 48.207031 16.875 48.625 16.75 49.5 C 17.5 50.460938 17.835938 51.542969 17.75 52.75 C 18.394531 52.632812 18.894531 52.796875 19.25 53.25 C 18.917969 53.25 18.582031 53.25 18.25 53.25 C 16.445312 52.691406 15.445312 51.441406 15.25 49.5 C 15.558594 47.441406 16.722656 46.359375 18.75 46.25 Z M 18.75 46.25 "/>
<path style=" stroke:none;fill-rule:evenodd;fill:rgb(91.764706%,54.901961%,24.313725%);fill-opacity:1;" d="M 18.25 48.25 C 19.234375 48.128906 20.148438 48.296875 21 48.75 C 21.535156 50.550781 21.121094 52.050781 19.75 53.25 C 19.582031 53.25 19.417969 53.25 19.25 53.25 C 18.894531 52.796875 18.394531 52.632812 17.75 52.75 C 17.835938 51.542969 17.5 50.460938 16.75 49.5 C 16.875 48.625 17.375 48.207031 18.25 48.25 Z M 18.25 48.25 "/>
<path style=" stroke:none;fill-rule:evenodd;fill:rgb(97.647059%,80.392157%,63.921569%);fill-opacity:1;" d="M 28.25 46.25 C 28.550781 50.636719 29.21875 54.96875 30.25 59.25 C 30.246094 60.023438 30.078125 60.6875 29.75 61.25 C 29.183594 57.402344 28.183594 53.652344 26.75 50 C 26.917969 48.566406 27.417969 47.316406 28.25 46.25 Z M 28.25 46.25 "/>
<path style=" stroke:none;fill-rule:evenodd;fill:rgb(14.117647%,9.411765%,7.45098%);fill-opacity:1;" d="M 19.25 45.25 C 20.59375 45.992188 20.425781 46.328125 18.75 46.25 C 16.722656 46.359375 15.558594 47.441406 15.25 49.5 C 15.445312 51.441406 16.445312 52.691406 18.25 53.25 C 17.394531 53.867188 16.394531 54.203125 15.25 54.25 C 14.613281 53.007812 14.28125 51.675781 14.25 50.25 C 14.121094 46.710938 15.789062 45.046875 19.25 45.25 Z M 19.25 45.25 "/>
<path style=" stroke:none;fill-rule:evenodd;fill:rgb(92.54902%,63.921569%,42.745098%);fill-opacity:1;" d="M 32.25 45.25 C 32.25 48.417969 32.25 51.582031 32.25 54.75 C 32.574219 55.71875 32.742188 56.71875 32.75 57.75 C 32.832031 59.257812 32.75 60.757812 32.5 62.25 C 31.757812 64.527344 30.175781 65.363281 27.75 64.75 C 28.054688 64.304688 28.222656 63.804688 28.25 63.25 C 29.265625 62.976562 29.765625 62.308594 29.75 61.25 C 30.078125 60.6875 30.246094 60.023438 30.25 59.25 C 29.21875 54.96875 28.550781 50.636719 28.25 46.25 C 28.175781 45.722656 28.257812 45.222656 28.5 44.75 C 28.386719 47.648438 29.050781 50.316406 30.5 52.75 C 30.699219 52.0625 30.949219 51.398438 31.25 50.75 C 30.515625 49.902344 30.183594 48.902344 30.25 47.75 C 30.5 45.75 30.75 43.75 31 41.75 C 31.347656 43 31.765625 44.167969 32.25 45.25 Z M 32.25 45.25 "/>
<path style=" stroke:none;fill-rule:evenodd;fill:rgb(96.470588%,77.647059%,54.117647%);fill-opacity:1;" d="M 61.75 46.75 C 62.300781 47.300781 62.96875 47.632812 63.75 47.75 C 64.910156 48.402344 65.578125 49.402344 65.75 50.75 C 63.59375 52.15625 62.09375 54.070312 61.25 56.5 C 58.917969 56.972656 56.585938 57.390625 54.25 57.75 C 53.917969 57.25 53.582031 56.75 53.25 56.25 C 53.746094 56.335938 54.078125 56.167969 54.25 55.75 C 55.695312 55.980469 56.945312 55.644531 58 54.75 C 58.332031 54.25 58.332031 53.75 58 53.25 C 56.871094 52.476562 55.789062 51.644531 54.75 50.75 C 55.464844 49.53125 56.464844 48.699219 57.75 48.25 C 58.109375 47.222656 58.441406 46.136719 58.75 45 C 58.582031 44.832031 58.417969 44.667969 58.25 44.5 C 60.210938 44 61.375 44.75 61.75 46.75 Z M 61.75 46.75 "/>
<path style=" stroke:none;fill-rule:evenodd;fill:rgb(98.431373%,92.54902%,81.568627%);fill-opacity:1;" d="M 61.75 46.75 C 62.148438 47.839844 62.898438 48.675781 64 49.25 C 64.242188 49.722656 64.324219 50.222656 64.25 50.75 C 62.828125 50.808594 61.578125 51.308594 60.5 52.25 C 58.570312 51.839844 57.652344 50.671875 57.75 48.75 C 58.957031 47.886719 60.289062 47.222656 61.75 46.75 Z M 61.75 46.75 "/>
<path style=" stroke:none;fill-rule:evenodd;fill:rgb(11.372549%,8.235294%,11.372549%);fill-opacity:1;" d="M 65.75 50.75 C 65.136719 52.039062 64.300781 53.203125 63.25 54.25 C 63.785156 54.179688 64.367188 54.179688 65 54.25 C 65.355469 55.183594 65.105469 55.933594 64.25 56.5 C 64.664062 56.957031 65.164062 57.289062 65.75 57.5 C 65.582031 57.667969 65.417969 57.832031 65.25 58 C 65.59375 58.535156 65.84375 59.117188 66 59.75 C 66.746094 59.136719 67.496094 59.136719 68.25 59.75 C 68.25 59.917969 68.25 60.082031 68.25 60.25 C 62.890625 63.808594 61.808594 68.476562 65 74.25 C 68.441406 77.773438 72.523438 78.6875 77.25 77 C 79.886719 75.445312 81.71875 73.195312 82.75 70.25 C 83.195312 69.214844 83.863281 68.046875 84.75 66.75 C 85.082031 68.75 85.417969 70.75 85.75 72.75 C 86.9375 73.6875 87.855469 74.855469 88.5 76.25 C 88.8125 74.523438 89.398438 74.355469 90.25 75.75 C 89.050781 79.972656 86.386719 81.972656 82.25 81.75 C 84.433594 79.5 85.515625 76.832031 85.5 73.75 C 82.265625 78.632812 77.683594 80.796875 71.75 80.25 C 66.964844 79.441406 62.132812 79.023438 57.25 79 C 54.503906 78.683594 51.839844 78.097656 49.25 77.25 C 48.582031 76.582031 47.917969 75.917969 47.25 75.25 C 47.296875 74.441406 47.296875 73.609375 47.25 72.75 C 47.484375 71.933594 47.984375 71.351562 48.75 71 C 48.582031 70.5 48.417969 70 48.25 69.5 C 48.652344 69.347656 48.988281 69.097656 49.25 68.75 C 48.863281 68.144531 48.445312 68.144531 48 68.75 C 47.917969 68.5 47.832031 68.25 47.75 68 C 47.945312 67.496094 48.277344 67.246094 48.75 67.25 C 48.117188 66.015625 48.117188 64.847656 48.75 63.75 C 48.679688 64.5625 49.011719 65.144531 49.75 65.5 C 50.90625 65.75 52.070312 65.832031 53.25 65.75 C 53.988281 70.875 54.988281 70.957031 56.25 66 C 57.851562 65.726562 59.351562 65.226562 60.75 64.5 C 59.351562 63.882812 58.019531 63.132812 56.75 62.25 C 56.304688 60.957031 56.136719 59.625 56.25 58.25 C 54.671875 58.285156 53.835938 59.117188 53.75 60.75 C 51.734375 61.789062 49.734375 61.621094 47.75 60.25 C 47.285156 59.65625 47.117188 58.988281 47.25 58.25 C 47.417969 58.25 47.582031 58.25 47.75 58.25 C 50.117188 61.019531 52.285156 60.851562 54.25 57.75 C 56.585938 57.390625 58.917969 56.972656 61.25 56.5 C 62.09375 54.070312 63.59375 52.15625 65.75 50.75 Z M 65.75 50.75 "/>
<path style=" stroke:none;fill-rule:evenodd;fill:rgb(90.980392%,53.72549%,29.019608%);fill-opacity:1;" d="M 48.25 51.75 C 50.078125 53.332031 52.078125 54.664062 54.25 55.75 C 54.078125 56.167969 53.746094 56.335938 53.25 56.25 C 50.867188 55.707031 49.035156 54.375 47.75 52.25 C 48.082031 52.25 48.25 52.082031 48.25 51.75 Z M 48.25 51.75 "/>
<path style=" stroke:none;fill-rule:evenodd;fill:rgb(85.490196%,48.627451%,23.921569%);fill-opacity:1;" d="M 47.75 58.25 C 47.582031 58.25 47.417969 58.25 47.25 58.25 C 45.308594 57.640625 43.808594 56.472656 42.75 54.75 C 43.457031 53.730469 44.457031 53.230469 45.75 53.25 C 46.417969 54.917969 47.082031 56.582031 47.75 58.25 Z M 47.75 58.25 "/>
<path style=" stroke:none;fill-rule:evenodd;fill:rgb(76.078431%,68.627451%,60.392157%);fill-opacity:1;" d="M 92.75 54.75 C 94.082031 54.75 95.417969 54.75 96.75 54.75 C 96.75 56.082031 96.75 57.417969 96.75 58.75 C 95.011719 58.90625 93.34375 58.65625 91.75 58 C 90.964844 56.546875 91.300781 55.464844 92.75 54.75 Z M 92.75 54.75 "/>
<path style=" stroke:none;fill-rule:evenodd;fill:rgb(26.27451%,16.470588%,12.156863%);fill-opacity:1;" d="M 18.25 53.25 C 18.582031 53.25 18.917969 53.25 19.25 53.25 C 19.417969 53.25 19.582031 53.25 19.75 53.25 C 19.515625 53.949219 19.179688 54.617188 18.75 55.25 C 18.046875 54.664062 17.464844 54.832031 17 55.75 C 16.378906 59.378906 17.796875 60.546875 21.25 59.25 C 21.882812 56.652344 22.21875 56.652344 22.25 59.25 C 21.738281 59.925781 21.070312 60.425781 20.25 60.75 C 18.789062 60.859375 17.457031 60.527344 16.25 59.75 C 15.453125 58.015625 15.121094 56.183594 15.25 54.25 C 16.394531 54.203125 17.394531 53.867188 18.25 53.25 Z M 18.25 53.25 "/>
<path style=" stroke:none;fill-rule:evenodd;fill:rgb(12.156863%,9.803922%,13.333333%);fill-opacity:1;" d="M 42.25 44.25 C 42.417969 44.25 42.582031 44.25 42.75 44.25 C 41.296875 45.90625 40.296875 47.824219 39.75 50 C 40.0625 52.050781 41.0625 53.632812 42.75 54.75 C 43.808594 56.472656 45.308594 57.640625 47.25 58.25 C 47.117188 58.988281 47.285156 59.65625 47.75 60.25 C 49.734375 61.621094 51.734375 61.789062 53.75 60.75 C 53.226562 63.46875 51.5625 64.46875 48.75 63.75 C 48.117188 64.847656 48.117188 66.015625 48.75 67.25 C 48.277344 67.246094 47.945312 67.496094 47.75 68 C 47.832031 68.25 47.917969 68.5 48 68.75 C 48.445312 68.144531 48.863281 68.144531 49.25 68.75 C 48.988281 69.097656 48.652344 69.347656 48.25 69.5 C 48.417969 70 48.582031 70.5 48.75 71 C 47.984375 71.351562 47.484375 71.933594 47.25 72.75 C 47.296875 73.609375 47.296875 74.441406 47.25 75.25 C 45.367188 74.285156 43.867188 72.867188 42.75 71 C 42.09375 70.734375 41.757812 70.984375 41.75 71.75 C 40.269531 70.253906 39.4375 68.417969 39.25 66.25 C 41.160156 64.675781 41.160156 63.09375 39.25 61.5 C 39.75 61.332031 40.25 61.167969 40.75 61 C 39.417969 60.332031 39.417969 59.667969 40.75 59 C 40.382812 57.566406 40.382812 56.234375 40.75 55 C 39.171875 51.554688 38.839844 47.96875 39.75 44.25 C 40.679688 44.535156 41.511719 44.535156 42.25 44.25 Z M 42.25 44.25 "/>
<path style=" stroke:none;fill-rule:evenodd;fill:rgb(79.607843%,70.588235%,64.705882%);fill-opacity:1;" d="M 98.75 54.75 C 100.257812 54.667969 101.757812 54.75 103.25 55 C 104.582031 56.167969 104.582031 57.332031 103.25 58.5 C 101.757812 58.75 100.257812 58.832031 98.75 58.75 C 98.75 57.417969 98.75 56.082031 98.75 54.75 Z M 98.75 54.75 "/>
<path style=" stroke:none;fill-rule:evenodd;fill:rgb(98.823529%,65.098039%,34.901961%);fill-opacity:1;" d="M 25.75 49.75 C 25.824219 50.96875 25.90625 52.300781 26 53.75 C 26.871094 54.359375 27.371094 55.191406 27.5 56.25 C 27.855469 58.433594 27.769531 60.601562 27.25 62.75 C 27.21875 63.859375 27.550781 64.027344 28.25 63.25 C 28.222656 63.804688 28.054688 64.304688 27.75 64.75 C 26.941406 65.019531 26.109375 65.183594 25.25 65.25 C 22.867188 65.40625 20.53125 65.15625 18.25 64.5 C 17.441406 63.953125 16.941406 63.203125 16.75 62.25 C 17.792969 61.488281 18.960938 60.988281 20.25 60.75 C 21.070312 60.425781 21.738281 59.925781 22.25 59.25 C 22.976562 57.367188 22.644531 55.617188 21.25 54 C 22.125 52.710938 22.625 51.292969 22.75 49.75 C 23.804688 50.136719 24.804688 50.136719 25.75 49.75 Z M 25.75 49.75 "/>
<path style=" stroke:none;fill-rule:evenodd;fill:rgb(0%,0%,2.745098%);fill-opacity:1;" d="M 82.25 65.75 C 81.585938 66.476562 81.171875 66.308594 81 65.25 C 80.582031 66 80 66.582031 79.25 67 C 81.113281 67.21875 81.195312 67.632812 79.5 68.25 C 78.675781 67.550781 78.007812 67.71875 77.5 68.75 C 76.742188 67.496094 75.660156 67.078125 74.25 67.5 C 74.75 67.667969 75.25 67.832031 75.75 68 C 74.917969 68.332031 74.082031 68.332031 73.25 68 C 73.417969 67.832031 73.582031 67.667969 73.75 67.5 C 73.148438 66.984375 72.484375 66.566406 71.75 66.25 C 71.417969 66.417969 71.082031 66.582031 70.75 66.75 C 71.355469 67.359375 71.355469 67.945312 70.75 68.5 C 72.082031 68.832031 72.082031 69.167969 70.75 69.5 C 72.082031 69.667969 73.417969 69.832031 74.75 70 C 72.339844 70.484375 70.175781 69.984375 68.25 68.5 C 69.054688 67.976562 69.386719 67.226562 69.25 66.25 C 68.582031 66.25 67.917969 66.25 67.25 66.25 C 67.144531 67.070312 67.308594 67.820312 67.75 68.5 C 66.742188 68.9375 66.742188 69.605469 67.75 70.5 C 69.941406 70.871094 72.027344 71.453125 74 72.25 C 74.578125 71.25 75.328125 71.085938 76.25 71.75 C 75.523438 72.453125 74.859375 73.203125 74.25 74 C 73.359375 73.511719 72.527344 73.675781 71.75 74.5 C 72.25 74.667969 72.75 74.832031 73.25 75 C 72.082031 75.332031 70.917969 75.332031 69.75 75 C 69.691406 74.144531 69.773438 73.226562 70 72.25 C 69.832031 72.417969 69.667969 72.582031 69.5 72.75 C 68.464844 72.367188 67.382812 72.117188 66.25 72 C 66.582031 71.832031 66.917969 71.667969 67.25 71.5 C 65.757812 70.867188 65.257812 69.867188 65.75 68.5 C 65.347656 68.347656 65.011719 68.097656 64.75 67.75 C 65.34375 67.285156 66.011719 67.117188 66.75 67.25 C 66.480469 65.652344 66.980469 64.402344 68.25 63.5 C 68.023438 63.292969 67.855469 63.042969 67.75 62.75 C 68.445312 62.945312 68.945312 62.527344 69.25 61.5 C 68.410156 61.257812 68.078125 60.839844 68.25 60.25 C 68.25 60.082031 68.25 59.917969 68.25 59.75 C 74.847656 57.390625 79.511719 59.390625 82.25 65.75 Z M 82.25 65.75 "/>
<path style=" stroke:none;fill-rule:evenodd;fill:rgb(79.215686%,47.843137%,30.588235%);fill-opacity:1;" d="M 12.75 44.75 C 12.667969 47.089844 12.75 49.421875 13 51.75 C 13.675781 53.882812 14.261719 56.050781 14.75 58.25 C 14.933594 59.085938 15.433594 59.585938 16.25 59.75 C 17.457031 60.527344 18.789062 60.859375 20.25 60.75 C 18.960938 60.988281 17.792969 61.488281 16.75 62.25 C 15.917969 61.582031 15.082031 60.917969 14.25 60.25 C 12.300781 55.804688 11.550781 51.140625 12 46.25 C 12.117188 45.632812 12.367188 45.132812 12.75 44.75 Z M 12.75 44.75 "/>
<path style=" stroke:none;fill-rule:evenodd;fill:rgb(69.411765%,50.196078%,38.823529%);fill-opacity:1;" d="M 9.25 58.75 C 10.261719 59.257812 10.929688 60.09375 11.25 61.25 C 11.28125 62.132812 10.867188 62.632812 10 62.75 C 8.691406 61.632812 8.441406 60.296875 9.25 58.75 Z M 9.25 58.75 "/>
<path style=" stroke:none;fill-rule:evenodd;fill:rgb(0.392157%,0%,1.960784%);fill-opacity:1;" d="M 68.25 60.25 C 68.078125 60.839844 68.410156 61.257812 69.25 61.5 C 68.945312 62.527344 68.445312 62.945312 67.75 62.75 C 67.855469 63.042969 68.023438 63.292969 68.25 63.5 C 66.980469 64.402344 66.480469 65.652344 66.75 67.25 C 66.011719 67.117188 65.34375 67.285156 64.75 67.75 C 65.011719 68.097656 65.347656 68.347656 65.75 68.5 C 65.257812 69.867188 65.757812 70.867188 67.25 71.5 C 66.917969 71.667969 66.582031 71.832031 66.25 72 C 67.382812 72.117188 68.464844 72.367188 69.5 72.75 C 69.667969 72.582031 69.832031 72.417969 70 72.25 C 69.773438 73.226562 69.691406 74.144531 69.75 75 C 70.917969 75.332031 72.082031 75.332031 73.25 75 C 72.75 74.832031 72.25 74.667969 71.75 74.5 C 72.527344 73.675781 73.359375 73.511719 74.25 74 C 74.859375 73.203125 75.523438 72.453125 76.25 71.75 C 75.328125 71.085938 74.578125 71.25 74 72.25 C 72.027344 71.453125 69.941406 70.871094 67.75 70.5 C 66.742188 69.605469 66.742188 68.9375 67.75 68.5 C 67.308594 67.820312 67.144531 67.070312 67.25 66.25 C 67.917969 66.25 68.582031 66.25 69.25 66.25 C 69.386719 67.226562 69.054688 67.976562 68.25 68.5 C 70.175781 69.984375 72.339844 70.484375 74.75 70 C 73.417969 69.832031 72.082031 69.667969 70.75 69.5 C 72.082031 69.167969 72.082031 68.832031 70.75 68.5 C 71.355469 67.945312 71.355469 67.359375 70.75 66.75 C 71.082031 66.582031 71.417969 66.417969 71.75 66.25 C 72.484375 66.566406 73.148438 66.984375 73.75 67.5 C 73.582031 67.667969 73.417969 67.832031 73.25 68 C 74.082031 68.332031 74.917969 68.332031 75.75 68 C 75.25 67.832031 74.75 67.667969 74.25 67.5 C 75.660156 67.078125 76.742188 67.496094 77.5 68.75 C 78.007812 67.71875 78.675781 67.550781 79.5 68.25 C 81.195312 67.632812 81.113281 67.21875 79.25 67 C 80 66.582031 80.582031 66 81 65.25 C 81.171875 66.308594 81.585938 66.476562 82.25 65.75 C 82.648438 67.214844 82.816406 68.714844 82.75 70.25 C 81.71875 73.195312 79.886719 75.445312 77.25 77 C 72.523438 78.6875 68.441406 77.773438 65 74.25 C 61.808594 68.476562 62.890625 63.808594 68.25 60.25 Z M 68.25 60.25 "/>
<path style=" stroke:none;fill-rule:evenodd;fill:rgb(90.588235%,71.764706%,54.509804%);fill-opacity:1;" d="M 14.25 60.25 C 15.082031 60.917969 15.917969 61.582031 16.75 62.25 C 16.941406 63.203125 17.441406 63.953125 18.25 64.5 C 20.53125 65.15625 22.867188 65.40625 25.25 65.25 C 23.34375 65.824219 21.34375 65.90625 19.25 65.5 C 17.1875 65.21875 15.519531 64.304688 14.25 62.75 C 14.25 61.917969 14.25 61.082031 14.25 60.25 Z M 14.25 60.25 "/>
<path style=" stroke:none;fill-rule:evenodd;fill:rgb(77.254902%,70.588235%,64.705882%);fill-opacity:1;" d="M 96.75 61.75 C 96.75 63.082031 96.75 64.417969 96.75 65.75 C 95.058594 65.769531 93.394531 65.601562 91.75 65.25 C 90.746094 64.488281 90.578125 63.570312 91.25 62.5 C 93.011719 61.832031 94.847656 61.582031 96.75 61.75 Z M 96.75 61.75 "/>
<path style=" stroke:none;fill-rule:evenodd;fill:rgb(74.117647%,65.490196%,60.784314%);fill-opacity:1;" d="M 98.75 65.75 C 98.75 64.582031 98.75 63.417969 98.75 62.25 C 99.984375 61.683594 101.316406 61.597656 102.75 62 C 104.082031 63.167969 104.082031 64.332031 102.75 65.5 C 101.425781 65.75 100.09375 65.832031 98.75 65.75 Z M 98.75 65.75 "/>
<path style=" stroke:none;fill-rule:evenodd;fill:rgb(80.392157%,80.784314%,79.607843%);fill-opacity:1;" d="M 48.75 63.75 C 51.5625 64.46875 53.226562 63.46875 53.75 60.75 C 53.835938 59.117188 54.671875 58.285156 56.25 58.25 C 56.136719 59.625 56.304688 60.957031 56.75 62.25 C 58.019531 63.132812 59.351562 63.882812 60.75 64.5 C 59.351562 65.226562 57.851562 65.726562 56.25 66 C 54.988281 70.957031 53.988281 70.875 53.25 65.75 C 52.070312 65.832031 50.90625 65.75 49.75 65.5 C 49.011719 65.144531 48.679688 64.5625 48.75 63.75 Z M 48.75 63.75 "/>
<path style=" stroke:none;fill-rule:evenodd;fill:rgb(3.529412%,3.137255%,4.313725%);fill-opacity:1;" d="M 98.75 62.25 C 98.75 63.417969 98.75 64.582031 98.75 65.75 C 99.535156 66.492188 100.203125 67.324219 100.75 68.25 C 100.75 69.417969 100.75 70.582031 100.75 71.75 C 100.929688 72.957031 100.429688 73.707031 99.25 74 C 97.355469 74.078125 95.523438 74.414062 93.75 75 C 93.257812 77 92.507812 78.917969 91.5 80.75 C 90.457031 81.71875 89.375 82.550781 88.25 83.25 C 87.492188 83.253906 86.90625 83.589844 86.5 84.25 C 85.28125 91.804688 80.863281 95.222656 73.25 94.5 C 70.695312 93.804688 68.363281 92.722656 66.25 91.25 C 65.199219 90.3125 64.53125 89.148438 64.25 87.75 C 64.25 86.582031 64.25 85.417969 64.25 84.25 C 62.507812 83.867188 60.839844 83.285156 59.25 82.5 C 60.738281 82.152344 62.238281 81.902344 63.75 81.75 C 69.917969 81.75 76.082031 81.75 82.25 81.75 C 86.386719 81.972656 89.050781 79.972656 90.25 75.75 C 90.703125 75.394531 90.867188 74.894531 90.75 74.25 C 91.414062 71.550781 91.414062 68.800781 90.75 66 C 91.207031 65.859375 91.539062 65.609375 91.75 65.25 C 93.394531 65.601562 95.058594 65.769531 96.75 65.75 C 96.75 64.417969 96.75 63.082031 96.75 61.75 C 97.597656 61.085938 98.265625 61.253906 98.75 62.25 Z M 98.75 62.25 "/>
<path style=" stroke:none;fill-rule:evenodd;fill:rgb(48.235294%,44.313725%,43.921569%);fill-opacity:1;" d="M 42.25 67.75 C 45.011719 67.679688 46.511719 69.011719 46.75 71.75 C 44.027344 71.863281 42.527344 70.53125 42.25 67.75 Z M 42.25 67.75 "/>
<path style=" stroke:none;fill-rule:evenodd;fill:rgb(29.803922%,29.019608%,30.588235%);fill-opacity:1;" d="M 11.75 63.75 C 12.953125 63.695312 13.867188 64.195312 14.5 65.25 C 15.046875 66.65625 15.628906 67.988281 16.25 69.25 C 16.324219 70.472656 15.90625 70.804688 15 70.25 C 13.636719 68.191406 12.554688 66.023438 11.75 63.75 Z M 11.75 63.75 "/>
<use xlink:href="#surface23" mask="url(#mask6)"/>
<path style=" stroke:none;fill-rule:evenodd;fill:rgb(87.058824%,69.411765%,53.72549%);fill-opacity:1;" d="M 19.25 66.75 C 20.886719 66.609375 22.472656 66.773438 24 67.25 C 25 71.410156 26.414062 75.410156 28.25 79.25 C 27.605469 79.75 26.9375 79.667969 26.25 79 C 23.242188 76.160156 20.824219 72.910156 19 69.25 C 18.808594 68.402344 18.890625 67.570312 19.25 66.75 Z M 19.25 66.75 "/>
<use xlink:href="#surface26" mask="url(#mask7)"/>
<path style=" stroke:none;fill-rule:evenodd;fill:rgb(77.254902%,54.509804%,39.607843%);fill-opacity:1;" d="M 43.75 78.75 C 44.070312 80.632812 45.070312 82.050781 46.75 83 C 49.921875 84.667969 53.257812 85.917969 56.75 86.75 C 57.046875 88.882812 57.046875 91.046875 56.75 93.25 C 55.097656 93.738281 53.433594 94.238281 51.75 94.75 C 50.910156 94.40625 50.078125 94.074219 49.25 93.75 C 48.855469 93.609375 48.523438 93.359375 48.25 93 C 48.777344 92.441406 49.359375 92.191406 50 92.25 C 50.667969 91.5625 50.75 90.894531 50.25 90.25 C 49.707031 89.210938 48.957031 89.042969 48 89.75 C 47.269531 91.339844 46.851562 93.007812 46.75 94.75 C 46.75 94.917969 46.75 95.082031 46.75 95.25 C 46.253906 95.335938 45.921875 95.167969 45.75 94.75 C 45.96875 94.78125 46.136719 94.699219 46.25 94.5 C 44.332031 92.542969 44.25 90.460938 46 88.25 C 46.332031 87.417969 46.332031 86.582031 46 85.75 C 44.605469 84.929688 43.191406 84.179688 41.75 83.5 C 42.355469 83.054688 42.355469 82.636719 41.75 82.25 C 41.246094 83.667969 40.246094 84.335938 38.75 84.25 C 38.800781 85.277344 38.464844 86.109375 37.75 86.75 C 37.21875 85.242188 36.636719 83.742188 36 82.25 C 35.808594 83.097656 35.890625 83.929688 36.25 84.75 C 35.21875 83.796875 34.46875 82.628906 34 81.25 C 33.167969 80.582031 32.332031 79.917969 31.5 79.25 C 30.015625 75.136719 28.765625 70.96875 27.75 66.75 C 30.324219 66.507812 32.324219 65.34375 33.75 63.25 C 34 61.253906 34.25 59.253906 34.5 57.25 C 35.273438 62.179688 36.441406 67.011719 38 71.75 C 38.933594 74.929688 40.851562 77.265625 43.75 78.75 Z M 43.75 78.75 "/>
<path style=" stroke:none;fill-rule:evenodd;fill:rgb(90.588235%,69.411765%,50.588235%);fill-opacity:1;" d="M 31.75 66.75 C 32.199219 67.300781 32.613281 67.300781 33 66.75 C 33.953125 70.210938 34.703125 73.542969 35.25 76.75 C 33.964844 76.125 32.632812 75.625 31.25 75.25 C 30.335938 72.742188 29.5 70.242188 28.75 67.75 C 30.003906 67.972656 31.003906 67.640625 31.75 66.75 Z M 31.75 66.75 "/>
<use xlink:href="#surface29" mask="url(#mask8)"/>
<path style=" stroke:none;fill-rule:evenodd;fill:rgb(79.607843%,71.372549%,63.529412%);fill-opacity:1;" d="M 16.75 73.25 C 16.417969 73.417969 16.082031 73.582031 15.75 73.75 C 14.28125 75.46875 12.699219 77.136719 11 78.75 C 10.832031 78.417969 10.667969 78.082031 10.5 77.75 C 9.8125 78.351562 9.230469 79.019531 8.75 79.75 C 8.398438 80.277344 8.230469 80.113281 8.25 79.25 C 10.484375 76.675781 13.066406 74.507812 16 72.75 C 16.382812 72.785156 16.632812 72.953125 16.75 73.25 Z M 16.75 73.25 "/>
<path style=" stroke:none;fill-rule:evenodd;fill:rgb(93.333333%,87.843137%,81.960784%);fill-opacity:1;" d="M 19.25 66.75 C 18.890625 67.570312 18.808594 68.402344 19 69.25 C 20.824219 72.910156 23.242188 76.160156 26.25 79 C 26.9375 79.667969 27.605469 79.75 28.25 79.25 C 28.738281 80.398438 29.402344 81.398438 30.25 82.25 C 30.132812 82.546875 29.882812 82.714844 29.5 82.75 C 22.753906 80.25 18.839844 75.417969 17.75 68.25 C 17.746094 67.492188 17.410156 66.90625 16.75 66.5 C 17.554688 66.507812 18.386719 66.59375 19.25 66.75 Z M 19.25 66.75 "/>
<path style=" stroke:none;fill-rule:evenodd;fill:rgb(49.411765%,45.098039%,44.313725%);fill-opacity:1;" d="M 54.75 74.25 C 57.070312 73.867188 59.070312 74.453125 60.75 76 C 58.230469 77.078125 55.898438 76.828125 53.75 75.25 C 54.121094 74.910156 54.453125 74.574219 54.75 74.25 Z M 54.75 74.25 "/>
<path style=" stroke:none;fill-rule:evenodd;fill:rgb(84.313725%,72.156863%,61.960784%);fill-opacity:1;" d="M 27.75 66.75 C 28.765625 70.96875 30.015625 75.136719 31.5 79.25 C 32.332031 79.917969 33.167969 80.582031 34 81.25 C 34.46875 82.628906 35.21875 83.796875 36.25 84.75 C 36.421875 85.742188 36.089844 86.410156 35.25 86.75 C 34.082031 85.082031 32.917969 83.417969 31.75 81.75 C 29.164062 77.164062 27.164062 72.328125 25.75 67.25 C 26.34375 66.785156 27.011719 66.617188 27.75 66.75 Z M 27.75 66.75 "/>
<path style=" stroke:none;fill-rule:evenodd;fill:rgb(30.588235%,27.45098%,30.588235%);fill-opacity:1;" d="M 47.25 75.25 C 47.917969 75.917969 48.582031 76.582031 49.25 77.25 C 48.75 77.582031 48.25 77.917969 47.75 78.25 C 45.054688 76.722656 43.054688 74.554688 41.75 71.75 C 41.757812 70.984375 42.09375 70.734375 42.75 71 C 43.867188 72.867188 45.367188 74.285156 47.25 75.25 Z M 47.25 75.25 "/>
<path style=" stroke:none;fill-rule:evenodd;fill:rgb(27.843137%,23.137255%,22.352941%);fill-opacity:1;" d="M 16.75 73.25 C 17.941406 74.144531 18.027344 75.144531 17 76.25 C 14.804688 78.28125 12.472656 80.113281 10 81.75 C 8.175781 81.539062 7.59375 80.707031 8.25 79.25 C 8.230469 80.113281 8.398438 80.277344 8.75 79.75 C 12.128906 79.292969 14.628906 77.542969 16.25 74.5 C 15.972656 74.308594 15.804688 74.058594 15.75 73.75 C 16.082031 73.582031 16.417969 73.417969 16.75 73.25 Z M 16.75 73.25 "/>
<path style=" stroke:none;fill-rule:evenodd;fill:rgb(47.843137%,36.078431%,32.156863%);fill-opacity:1;" d="M 15.75 73.75 C 15.804688 74.058594 15.972656 74.308594 16.25 74.5 C 14.628906 77.542969 12.128906 79.292969 8.75 79.75 C 9.230469 79.019531 9.8125 78.351562 10.5 77.75 C 10.667969 78.082031 10.832031 78.417969 11 78.75 C 12.699219 77.136719 14.28125 75.46875 15.75 73.75 Z M 15.75 73.75 "/>
<path style=" stroke:none;fill-rule:evenodd;fill:rgb(47.45098%,43.921569%,45.098039%);fill-opacity:1;" d="M 82.25 81.75 C 76.082031 81.75 69.917969 81.75 63.75 81.75 C 60.335938 81.253906 56.835938 80.835938 53.25 80.5 C 51.300781 79.992188 49.46875 79.242188 47.75 78.25 C 48.25 77.917969 48.75 77.582031 49.25 77.25 C 51.839844 78.097656 54.503906 78.683594 57.25 79 C 62.132812 79.023438 66.964844 79.441406 71.75 80.25 C 77.683594 80.796875 82.265625 78.632812 85.5 73.75 C 85.515625 76.832031 84.433594 79.5 82.25 81.75 Z M 82.25 81.75 "/>
<path style=" stroke:none;fill-rule:evenodd;fill:rgb(49.411765%,34.117647%,27.843137%);fill-opacity:1;" d="M 43.75 78.75 C 46.832031 80.789062 50.164062 82.289062 53.75 83.25 C 55.054688 84.414062 56.386719 85.582031 57.75 86.75 C 57.417969 86.75 57.082031 86.75 56.75 86.75 C 53.257812 85.917969 49.921875 84.667969 46.75 83 C 45.070312 82.050781 44.070312 80.632812 43.75 78.75 Z M 43.75 78.75 "/>
<path style=" stroke:none;fill-rule:evenodd;fill:rgb(70.196078%,51.764706%,37.647059%);fill-opacity:1;" d="M 4.25 76.75 C 5.386719 76.117188 6.554688 76.199219 7.75 77 C 5.75 78.832031 5.75 80.667969 7.75 82.5 C 9.484375 83.019531 11.234375 83.433594 13 83.75 C 14.167969 85.402344 13.917969 86.738281 12.25 87.75 C 12.25 87.25 12.25 86.75 12.25 86.25 C 8.503906 86.09375 5.921875 84.261719 4.5 80.75 C 4.496094 79.316406 4.414062 77.980469 4.25 76.75 Z M 4.25 76.75 "/>
<path style=" stroke:none;fill-rule:evenodd;fill:rgb(32.156863%,20.392157%,17.647059%);fill-opacity:1;" d="M 37.75 86.75 C 37.417969 87.082031 37.082031 87.417969 36.75 87.75 C 36.25 87.417969 35.75 87.082031 35.25 86.75 C 36.089844 86.410156 36.421875 85.742188 36.25 84.75 C 35.890625 83.929688 35.808594 83.097656 36 82.25 C 36.636719 83.742188 37.21875 85.242188 37.75 86.75 Z M 37.75 86.75 "/>
<path style=" stroke:none;fill-rule:evenodd;fill:rgb(34.509804%,22.352941%,18.823529%);fill-opacity:1;" d="M 53.75 83.25 C 56.40625 83.554688 59.074219 83.804688 61.75 84 C 60.96875 84.46875 60.300781 85.054688 59.75 85.75 C 60.164062 86.191406 60.664062 86.359375 61.25 86.25 C 60.925781 87.902344 60.089844 89.234375 58.75 90.25 C 58.417969 89.082031 58.082031 87.917969 57.75 86.75 C 56.386719 85.582031 55.054688 84.414062 53.75 83.25 Z M 53.75 83.25 "/>
<path style=" stroke:none;fill-rule:evenodd;fill:rgb(9.411765%,7.45098%,10.980392%);fill-opacity:1;" d="M 78.25 91.75 C 78.292969 91.253906 78.125 90.835938 77.75 90.5 C 74.558594 90.128906 71.472656 89.378906 68.5 88.25 C 68.300781 88.363281 68.21875 88.53125 68.25 88.75 C 67.242188 87.648438 66.742188 86.3125 66.75 84.75 C 68.023438 84.550781 69.105469 84.886719 70 85.75 C 72.03125 85.675781 74.117188 85.34375 76.25 84.75 C 77.621094 85.617188 77.453125 86.199219 75.75 86.5 C 76.167969 86.582031 76.582031 86.667969 77 86.75 C 79.054688 86.273438 81.054688 86.109375 83 86.25 C 82.796875 89.207031 81.214844 91.039062 78.25 91.75 Z M 78.25 91.75 "/>
<path style=" stroke:none;fill-rule:evenodd;fill:rgb(92.54902%,87.058824%,81.960784%);fill-opacity:1;" d="M 4.25 76.75 C 4.414062 77.980469 4.496094 79.316406 4.5 80.75 C 5.921875 84.261719 8.503906 86.09375 12.25 86.25 C 12.25 86.75 12.25 87.25 12.25 87.75 C 5.914062 87.335938 2.832031 84 3 77.75 C 3.355469 77.308594 3.769531 76.976562 4.25 76.75 Z M 4.25 76.75 "/>
<path style=" stroke:none;fill-rule:evenodd;fill:rgb(88.627451%,64.313725%,44.705882%);fill-opacity:1;" d="M 45.75 94.75 C 45.253906 94.835938 44.921875 94.667969 44.75 94.25 C 44.425781 93.457031 44.175781 92.625 44 91.75 C 43.832031 91.917969 43.667969 92.082031 43.5 92.25 C 43.359375 91.792969 43.109375 91.460938 42.75 91.25 C 43.78125 89.699219 44.363281 88.035156 44.5 86.25 C 43.527344 88.035156 42.445312 89.699219 41.25 91.25 C 39.132812 91.453125 37.632812 90.621094 36.75 88.75 C 36.75 88.417969 36.75 88.082031 36.75 87.75 C 37.082031 87.417969 37.417969 87.082031 37.75 86.75 C 38.464844 86.109375 38.800781 85.277344 38.75 84.25 C 40.246094 84.335938 41.246094 83.667969 41.75 82.25 C 42.355469 82.636719 42.355469 83.054688 41.75 83.5 C 43.191406 84.179688 44.605469 84.929688 46 85.75 C 46.332031 86.582031 46.332031 87.417969 46 88.25 C 44.25 90.460938 44.332031 92.542969 46.25 94.5 C 46.136719 94.699219 45.96875 94.78125 45.75 94.75 Z M 45.75 94.75 "/>
<path style=" stroke:none;fill-rule:evenodd;fill:rgb(42.352941%,29.803922%,20.784314%);fill-opacity:1;" d="M 50.25 90.25 C 49.589844 90.164062 49.003906 90.332031 48.5 90.75 C 48.179688 92.300781 47.597656 93.632812 46.75 94.75 C 46.851562 93.007812 47.269531 91.339844 48 89.75 C 48.957031 89.042969 49.707031 89.210938 50.25 90.25 Z M 50.25 90.25 "/>
<use xlink:href="#surface32" mask="url(#mask9)"/>
<path style=" stroke:none;fill-rule:evenodd;fill:rgb(36.078431%,23.137255%,17.647059%);fill-opacity:1;" d="M 42.75 91.25 C 42.230469 93.230469 41.730469 93.230469 41.25 91.25 C 42.445312 89.699219 43.527344 88.035156 44.5 86.25 C 44.363281 88.035156 43.78125 89.699219 42.75 91.25 Z M 42.75 91.25 "/>
<path style=" stroke:none;fill-rule:evenodd;fill:rgb(50.980392%,46.666667%,47.058824%);fill-opacity:1;" d="M 78.25 91.75 C 74.210938 92.84375 70.875 91.84375 68.25 88.75 C 68.21875 88.53125 68.300781 88.363281 68.5 88.25 C 71.472656 89.378906 74.558594 90.128906 77.75 90.5 C 78.125 90.835938 78.292969 91.253906 78.25 91.75 Z M 78.25 91.75 "/>
<path style=" stroke:none;fill-rule:evenodd;fill:rgb(88.627451%,80.392157%,71.764706%);fill-opacity:1;" d="M 36.75 88.75 C 37.632812 90.621094 39.132812 91.453125 41.25 91.25 C 41.730469 93.230469 42.230469 93.230469 42.75 91.25 C 43.109375 91.460938 43.359375 91.792969 43.5 92.25 C 43.667969 92.082031 43.832031 91.917969 44 91.75 C 44.175781 92.625 44.425781 93.457031 44.75 94.25 C 42.039062 93.488281 39.371094 92.570312 36.75 91.5 C 36.097656 90.527344 36.097656 89.613281 36.75 88.75 Z M 36.75 88.75 "/>
<path style=" stroke:none;fill-rule:evenodd;fill:rgb(24.313725%,14.509804%,13.333333%);fill-opacity:1;" d="M 64.25 87.75 C 64.53125 89.148438 65.199219 90.3125 66.25 91.25 C 66.171875 92.078125 65.835938 92.742188 65.25 93.25 C 64.167969 92.765625 63.003906 92.347656 61.75 92 C 61.214844 91.628906 60.878906 91.128906 60.75 90.5 C 61.5 88.847656 62 87.097656 62.25 85.25 C 62.664062 84.808594 63.164062 84.640625 63.75 84.75 C 63.601562 85.867188 63.769531 86.867188 64.25 87.75 Z M 64.25 87.75 "/>
<path style=" stroke:none;fill-rule:evenodd;fill:rgb(93.333333%,83.137255%,70.980392%);fill-opacity:1;" d="M 50.25 90.25 C 50.75 90.894531 50.667969 91.5625 50 92.25 C 49.359375 92.191406 48.777344 92.441406 48.25 93 C 48.523438 93.359375 48.855469 93.609375 49.25 93.75 C 50.132812 95.277344 51.464844 96.195312 53.25 96.5 C 52.777344 96.742188 52.277344 96.824219 51.75 96.75 C 50.890625 96.683594 50.058594 96.519531 49.25 96.25 C 48.535156 95.730469 47.703125 95.398438 46.75 95.25 C 46.75 95.082031 46.75 94.917969 46.75 94.75 C 47.597656 93.632812 48.179688 92.300781 48.5 90.75 C 49.003906 90.332031 49.589844 90.164062 50.25 90.25 Z M 50.25 90.25 "/>
<path style=" stroke:none;fill-rule:evenodd;fill:rgb(64.313725%,46.666667%,34.509804%);fill-opacity:1;" d="M 56.75 86.75 C 57.082031 86.75 57.417969 86.75 57.75 86.75 C 58.082031 87.917969 58.417969 89.082031 58.75 90.25 C 58.023438 91.675781 57.441406 93.175781 57 94.75 C 55.648438 96.8125 53.898438 97.480469 51.75 96.75 C 52.277344 96.824219 52.777344 96.742188 53.25 96.5 C 51.464844 96.195312 50.132812 95.277344 49.25 93.75 C 50.078125 94.074219 50.910156 94.40625 51.75 94.75 C 53.433594 94.238281 55.097656 93.738281 56.75 93.25 C 57.046875 91.046875 57.046875 88.882812 56.75 86.75 Z M 56.75 86.75 "/>
<use xlink:href="#surface35" mask="url(#mask10)"/>
</g>
</svg>
