<?xml version="1.0" encoding="UTF-8"?>
<svg xmlns="http://www.w3.org/2000/svg" xmlns:xlink="http://www.w3.org/1999/xlink" width="px" height="px" viewBox="0 0 107 109" version="1.1">
<defs>
<filter id="alpha" filterUnits="objectBoundingBox" x="0%" y="0%" width="100%" height="100%">
  <feColorMatrix type="matrix" in="SourceGraphic" values="0 0 0 0 1 0 0 0 0 1 0 0 0 0 1 0 0 0 1 0"/>
</filter>
<mask id="mask0">
  <g filter="url(#alpha)">
<rect x="0" y="0" width="107" height="109" style="fill:rgb(0%,0%,0%);fill-opacity:0.00392157;stroke:none;"/>
  </g>
</mask>
<clipPath id="clip1">
  <rect x="0" y="0" width="108" height="109"/>
</clipPath>
<g id="surface5" clip-path="url(#clip1)">
<path style=" stroke:none;fill-rule:evenodd;fill:rgb(13.333333%,23.137255%,28.627451%);fill-opacity:1;" d="M 52.996094 -0.25 C 54.671875 -0.25 56.347656 -0.25 58.019531 -0.25 C 59.816406 0.5 61.742188 1 63.796875 1.25 C 64.625 0.550781 65.296875 0.71875 65.808594 1.75 C 66.625 1.453125 67.460938 1.617188 68.320312 2.25 C 73.746094 3.066406 78.605469 5.902344 82.886719 10.75 C 83.671875 11.609375 84.089844 12.609375 84.144531 13.75 C 79.601562 7.480469 73.40625 3.730469 65.554688 2.5 C 55.484375 0.136719 45.4375 0.21875 35.414062 2.75 C 36.242188 2.035156 37.25 1.621094 38.429688 1.5 C 43.328125 0.652344 48.1875 0.0703125 52.996094 -0.25 Z M 52.996094 -0.25 "/>
</g>
<mask id="mask1">
  <g filter="url(#alpha)">
<rect x="0" y="0" width="107" height="109" style="fill:rgb(0%,0%,0%);fill-opacity:0.054902;stroke:none;"/>
  </g>
</mask>
<clipPath id="clip2">
  <rect x="0" y="0" width="108" height="109"/>
</clipPath>
<g id="surface8" clip-path="url(#clip2)">
<path style=" stroke:none;fill-rule:evenodd;fill:rgb(14.117647%,23.137255%,28.627451%);fill-opacity:1;" d="M 35.414062 2.75 C 32.773438 3.90625 30.097656 5.074219 27.378906 6.25 C 28.078125 5.144531 29.082031 4.394531 30.390625 4 C 32.039062 3.429688 33.710938 3.011719 35.414062 2.75 Z M 35.414062 2.75 "/>
</g>
<mask id="mask2">
  <g filter="url(#alpha)">
<rect x="0" y="0" width="107" height="109" style="fill:rgb(0%,0%,0%);fill-opacity:0.0392157;stroke:none;"/>
  </g>
</mask>
<clipPath id="clip3">
  <rect x="0" y="0" width="108" height="109"/>
</clipPath>
<g id="surface11" clip-path="url(#clip3)">
<path style=" stroke:none;fill-rule:evenodd;fill:rgb(14.901961%,23.137255%,27.843137%);fill-opacity:1;" d="M 27.378906 6.25 C 22.558594 9.464844 18.453125 13.464844 15.070312 18.25 C 14.835938 17.953125 14.753906 17.621094 14.820312 17.25 C 18.070312 12.511719 22.257812 8.847656 27.378906 6.25 Z M 27.378906 6.25 "/>
</g>
<mask id="mask3">
  <g filter="url(#alpha)">
<rect x="0" y="0" width="107" height="109" style="fill:rgb(0%,0%,0%);fill-opacity:0.0117647;stroke:none;"/>
  </g>
</mask>
<clipPath id="clip4">
  <rect x="0" y="0" width="108" height="109"/>
</clipPath>
<g id="surface14" clip-path="url(#clip4)">
<path style=" stroke:none;fill-rule:evenodd;fill:rgb(14.117647%,23.921569%,28.627451%);fill-opacity:1;" d="M 85.148438 20.25 C 85.519531 20.183594 85.855469 20.269531 86.152344 20.5 C 87.941406 22.109375 89.53125 23.859375 90.925781 25.75 C 93.707031 25.855469 96.21875 26.6875 98.460938 28.25 C 99.339844 29.625 99.839844 31.125 99.96875 32.75 C 101.976562 33.417969 103.316406 34.75 103.984375 36.75 C 103.996094 38.46875 104.078125 40.132812 104.238281 41.75 C 103.578125 41.425781 103.074219 40.925781 102.730469 40.25 C 103.734375 36.75 102.476562 34.414062 98.960938 33.25 C 98.25 27.890625 95.234375 25.890625 89.921875 27.25 C 88.703125 24.660156 87.113281 22.328125 85.148438 20.25 Z M 85.148438 20.25 "/>
</g>
<mask id="mask4">
  <g filter="url(#alpha)">
<rect x="0" y="0" width="107" height="109" style="fill:rgb(0%,0%,0%);fill-opacity:0.105882;stroke:none;"/>
  </g>
</mask>
<clipPath id="clip5">
  <rect x="0" y="0" width="108" height="109"/>
</clipPath>
<g id="surface17" clip-path="url(#clip5)">
<path style=" stroke:none;fill-rule:evenodd;fill:rgb(14.117647%,21.960784%,26.666667%);fill-opacity:1;" d="M 7.785156 21.25 C 6.449219 27.242188 6.449219 33.242188 7.785156 39.25 C 7.445312 41.90625 7.195312 44.574219 7.03125 47.25 C 5.738281 46.328125 4.3125 46.078125 2.761719 46.5 C 0.976562 49.34375 0.390625 52.425781 1.003906 55.75 C 1.511719 58.9375 2.097656 62.105469 2.761719 65.25 C 1.503906 61.820312 0.5 58.320312 -0.25 54.75 C -0.25 54.082031 -0.25 53.417969 -0.25 52.75 C -0.0195312 50.472656 0.734375 48.308594 2.007812 46.25 C 3.652344 46.050781 5.15625 45.550781 6.53125 44.75 C 6.902344 43.78125 6.820312 42.863281 6.28125 42 C 6.710938 41.214844 7.046875 40.382812 7.285156 39.5 C 6.554688 35.171875 6.050781 30.839844 5.777344 26.5 C 6.109375 24.585938 6.78125 22.835938 7.785156 21.25 Z M 7.785156 21.25 "/>
</g>
<mask id="mask5">
  <g filter="url(#alpha)">
<rect x="0" y="0" width="107" height="109" style="fill:rgb(0%,0%,0%);fill-opacity:0.0156863;stroke:none;"/>
  </g>
</mask>
<clipPath id="clip6">
  <rect x="0" y="0" width="108" height="109"/>
</clipPath>
<g id="surface20" clip-path="url(#clip6)">
<path style=" stroke:none;fill-rule:evenodd;fill:rgb(14.901961%,23.529412%,27.843137%);fill-opacity:1;" d="M 104.238281 41.75 C 105.78125 43.207031 106.113281 44.957031 105.242188 47 C 105.789062 48.292969 106.292969 49.542969 106.75 50.75 C 106.75 51.082031 106.75 51.417969 106.75 51.75 C 106.183594 53.09375 105.511719 54.425781 104.738281 55.75 C 105.59375 58.113281 105.257812 60.277344 103.734375 62.25 C 104.582031 66.066406 103.15625 68.730469 99.464844 70.25 C 98.929688 74.609375 96.417969 76.609375 91.929688 76.25 C 91.375 76.207031 90.871094 76.039062 90.421875 75.75 C 89.613281 77.203125 88.695312 78.535156 87.660156 79.75 C 88.121094 78.246094 88.792969 76.828125 89.667969 75.5 C 91.679688 75.332031 93.6875 75.167969 95.695312 75 C 98.015625 73.804688 99.105469 71.886719 98.960938 69.25 C 102.859375 68.074219 104.117188 65.65625 102.730469 62 C 104.890625 60.171875 105.226562 58.089844 103.734375 55.75 C 105.742188 52.917969 105.742188 50.082031 103.734375 47.25 C 104.839844 45.496094 105.003906 43.660156 104.238281 41.75 Z M 104.238281 41.75 "/>
</g>
<mask id="mask6">
  <g filter="url(#alpha)">
<rect x="0" y="0" width="107" height="109" style="fill:rgb(0%,0%,0%);fill-opacity:0.988235;stroke:none;"/>
  </g>
</mask>
<clipPath id="clip7">
  <rect x="0" y="0" width="108" height="109"/>
</clipPath>
<g id="surface23" clip-path="url(#clip7)">
<path style=" stroke:none;fill-rule:evenodd;fill:rgb(5.882353%,4.705882%,5.098039%);fill-opacity:1;" d="M 84.144531 13.75 C 85.058594 14.726562 85.3125 15.894531 84.898438 17.25 C 84.125 17.472656 83.375 17.636719 82.636719 17.75 C 83.652344 18.425781 84.488281 19.261719 85.148438 20.25 C 87.113281 22.328125 88.703125 24.660156 89.921875 27.25 C 95.234375 25.890625 98.25 27.890625 98.960938 33.25 C 102.476562 34.414062 103.734375 36.75 102.730469 40.25 C 103.074219 40.925781 103.578125 41.425781 104.238281 41.75 C 105.003906 43.660156 104.839844 45.496094 103.734375 47.25 C 105.742188 50.082031 105.742188 52.917969 103.734375 55.75 C 105.226562 58.089844 104.890625 60.171875 102.730469 62 C 104.117188 65.65625 102.859375 68.074219 98.960938 69.25 C 99.105469 71.886719 98.015625 73.804688 95.695312 75 C 93.6875 75.167969 91.679688 75.332031 89.667969 75.5 C 88.792969 76.828125 88.121094 78.246094 87.660156 79.75 C 87.535156 80.585938 87.199219 81.335938 86.65625 82 C 85.273438 82.5625 84.019531 83.3125 82.886719 84.25 C 82.898438 86.476562 82.144531 88.394531 80.625 90 C 77.683594 92.050781 74.5 93.714844 71.082031 95 C 70.789062 95.652344 70.453125 96.234375 70.078125 96.75 C 68.496094 99.242188 66.484375 101.324219 64.050781 103 C 60.976562 104.429688 59.050781 103.511719 58.273438 100.25 C 55.695312 102.40625 52.929688 104.242188 49.984375 105.75 C 48.0625 106.898438 46.054688 107.898438 43.957031 108.75 C 41.445312 108.75 38.933594 108.75 36.421875 108.75 C 36.082031 108.367188 35.664062 108.03125 35.164062 107.75 C 34.402344 105.414062 33.316406 103.246094 31.898438 101.25 C 32.210938 99.816406 32.546875 98.398438 32.902344 97 C 27.402344 96.179688 22.546875 94.011719 18.335938 90.5 C 17.957031 90.164062 17.789062 89.746094 17.832031 89.25 C 17.792969 88.535156 17.960938 87.867188 18.335938 87.25 C 14.257812 86.386719 10.574219 84.71875 7.285156 82.25 C 3.472656 79.679688 3.304688 76.847656 6.78125 73.75 C 4.765625 71.234375 3.425781 68.398438 2.761719 65.25 C 2.097656 62.105469 1.511719 58.9375 1.003906 55.75 C 0.390625 52.425781 0.976562 49.34375 2.761719 46.5 C 4.3125 46.078125 5.738281 46.328125 7.03125 47.25 C 7.195312 44.574219 7.445312 41.90625 7.785156 39.25 C 6.449219 33.242188 6.449219 27.242188 7.785156 21.25 C 7.671875 17.804688 9.261719 15.636719 12.558594 14.75 C 13.902344 15.082031 14.65625 15.914062 14.820312 17.25 C 14.753906 17.621094 14.835938 17.953125 15.070312 18.25 C 18.453125 13.464844 22.558594 9.464844 27.378906 6.25 C 30.097656 5.074219 32.773438 3.90625 35.414062 2.75 C 45.4375 0.21875 55.484375 0.136719 65.554688 2.5 C 73.40625 3.730469 79.601562 7.480469 84.144531 13.75 Z M 84.144531 13.75 "/>
</g>
<mask id="mask7">
  <g filter="url(#alpha)">
<rect x="0" y="0" width="107" height="109" style="fill:rgb(0%,0%,0%);fill-opacity:0.0901961;stroke:none;"/>
  </g>
</mask>
<clipPath id="clip8">
  <rect x="0" y="0" width="108" height="109"/>
</clipPath>
<g id="surface26" clip-path="url(#clip8)">
<path style=" stroke:none;fill-rule:evenodd;fill:rgb(15.686275%,22.352941%,26.27451%);fill-opacity:1;" d="M 7.285156 82.25 C 10.574219 84.71875 14.257812 86.386719 18.335938 87.25 C 17.960938 87.867188 17.792969 88.535156 17.832031 89.25 C 17.457031 88.734375 17.121094 88.152344 16.828125 87.5 C 14.195312 86.792969 11.683594 85.792969 9.292969 84.5 C 8.445312 83.847656 7.773438 83.097656 7.285156 82.25 Z M 7.285156 82.25 "/>
</g>
<mask id="mask8">
  <g filter="url(#alpha)">
<rect x="0" y="0" width="107" height="109" style="fill:rgb(0%,0%,0%);fill-opacity:0.00392157;stroke:none;"/>
  </g>
</mask>
<clipPath id="clip9">
  <rect x="0" y="0" width="108" height="109"/>
</clipPath>
<g id="surface29" clip-path="url(#clip9)">
<path style=" stroke:none;fill-rule:evenodd;fill:rgb(15.294118%,22.745098%,27.843137%);fill-opacity:1;" d="M 70.078125 96.75 C 68.613281 101.730469 65.261719 104.148438 60.03125 104 C 59.125 103.515625 58.285156 102.929688 57.519531 102.25 C 55.1875 103.828125 52.675781 104.992188 49.984375 105.75 C 52.929688 104.242188 55.695312 102.40625 58.273438 100.25 C 59.050781 103.511719 60.976562 104.429688 64.050781 103 C 66.484375 101.324219 68.496094 99.242188 70.078125 96.75 Z M 70.078125 96.75 "/>
</g>
</defs>
<g id="surface1">
<use xlink:href="#surface5" mask="url(#mask0)"/>
<use xlink:href="#surface8" mask="url(#mask1)"/>
<use xlink:href="#surface11" mask="url(#mask2)"/>
<use xlink:href="#surface14" mask="url(#mask3)"/>
<use xlink:href="#surface17" mask="url(#mask4)"/>
<use xlink:href="#surface20" mask="url(#mask5)"/>
<use xlink:href="#surface23" mask="url(#mask6)"/>
<path style=" stroke:none;fill-rule:evenodd;fill:rgb(67.843137%,74.117647%,75.294118%);fill-opacity:1;" d="M 37.925781 49.75 C 38.984375 49.265625 40.15625 49.097656 41.445312 49.25 C 41.617188 49.667969 41.949219 49.835938 42.449219 49.75 C 43.230469 56.371094 45.324219 62.535156 48.726562 68.25 C 49.261719 68.949219 49.929688 69.449219 50.738281 69.75 C 52.355469 69.140625 53.695312 68.140625 54.757812 66.75 C 55.0625 69.429688 54.976562 72.097656 54.503906 74.75 C 53.835938 74.75 53.164062 74.75 52.496094 74.75 C 50.019531 74.015625 47.839844 72.765625 45.964844 71 C 44.972656 70.753906 43.96875 70.667969 42.949219 70.75 C 43.347656 70.242188 44.1875 70.074219 45.460938 70.25 C 45.515625 69.242188 45.183594 68.410156 44.457031 67.75 C 43.484375 64.589844 42.394531 61.253906 41.191406 57.75 C 40.449219 55.128906 40.03125 52.460938 39.9375 49.75 C 39.265625 49.75 38.597656 49.75 37.925781 49.75 Z M 37.925781 49.75 "/>
<path style=" stroke:none;fill-rule:evenodd;fill:rgb(92.941176%,92.156863%,90.196078%);fill-opacity:1;" d="M 79.621094 34.25 C 80.371094 34.957031 80.707031 35.707031 80.625 36.5 C 79.707031 37.246094 79.289062 38.160156 79.371094 39.25 C 79.875 38.582031 80.375 37.917969 80.878906 37.25 C 81.128906 37.75 81.378906 38.25 81.632812 38.75 C 80.800781 41.988281 79.628906 45.070312 78.113281 48 C 78.394531 48.191406 78.5625 48.441406 78.617188 48.75 C 77.625 49.40625 76.785156 50.238281 76.105469 51.25 C 77.175781 52.984375 78.683594 54.148438 80.625 54.75 C 81.199219 61.070312 82.207031 67.320312 83.640625 73.5 C 83.261719 76.382812 82.425781 79.132812 81.128906 81.75 C 78.054688 82.910156 74.875 83.328125 71.585938 83 C 72.378906 82.648438 73.132812 82.230469 73.84375 81.75 C 74.230469 80.96875 74.144531 80.300781 73.59375 79.75 C 74.679688 79.265625 75.851562 78.847656 77.109375 78.5 C 76.273438 78.332031 75.4375 78.167969 74.597656 78 C 76.449219 77.082031 77.621094 75.664062 78.113281 73.75 C 78.421875 70.003906 77.417969 66.671875 75.101562 63.75 C 74.46875 61.117188 73.464844 58.453125 72.085938 55.75 C 72.125 54.988281 71.789062 54.488281 71.082031 54.25 C 71.519531 53.140625 71.6875 51.976562 71.585938 50.75 C 72.085938 50.75 72.589844 50.75 73.089844 50.75 C 72.707031 48.566406 72.957031 46.402344 73.84375 44.25 C 75.164062 41.792969 76.335938 39.292969 77.363281 36.75 C 78.074219 35.800781 78.828125 34.96875 79.621094 34.25 Z M 79.621094 34.25 "/>
<path style=" stroke:none;fill-rule:evenodd;fill:rgb(73.72549%,0%,14.509804%);fill-opacity:1;" d="M 74.097656 13.25 C 74.898438 13.117188 75.570312 13.28125 76.105469 13.75 C 75.253906 13.667969 74.414062 13.753906 73.59375 14 C 74.203125 14.519531 74.703125 15.101562 75.101562 15.75 C 70.769531 15.628906 66.414062 15.796875 62.039062 16.25 C 59.242188 16.539062 56.5625 17.289062 54.003906 18.5 C 51.5625 19.863281 49.21875 21.28125 46.96875 22.75 C 46.667969 23.59375 46.164062 24.34375 45.460938 25 C 46.269531 25.328125 46.855469 25.078125 47.21875 24.25 C 48.140625 25 49.0625 25.75 49.984375 26.5 C 48.632812 26.578125 47.460938 26.996094 46.46875 27.75 C 41.894531 29.003906 39.296875 32.003906 38.679688 36.75 C 38.382812 39.929688 38.464844 43.09375 38.933594 46.25 C 37.59375 46.25 36.253906 46.25 34.914062 46.25 C 34.714844 53.796875 36.558594 60.796875 40.4375 67.25 C 40.1875 67.417969 39.9375 67.582031 39.683594 67.75 C 38.65625 67.105469 37.566406 66.855469 36.421875 67 C 39.363281 71.179688 42.882812 74.761719 46.96875 77.75 C 45.882812 77.710938 44.875 77.378906 43.957031 76.75 C 42.6875 77.085938 42.6875 77.5 43.957031 78 C 43.703125 78.082031 43.453125 78.167969 43.203125 78.25 C 40.898438 76.066406 38.46875 74.066406 35.917969 72.25 C 34.726562 70.554688 33.300781 69.054688 31.648438 67.75 C 31.144531 66.75 30.644531 65.75 30.140625 64.75 C 29.742188 56.402344 29.828125 48.066406 30.390625 39.75 C 31.214844 39.09375 32.050781 39.09375 32.902344 39.75 C 33.402344 37.105469 33.570312 34.4375 33.40625 31.75 C 34.785156 31.304688 36.125 30.722656 37.425781 30 C 41.300781 23.976562 46.324219 19.144531 52.496094 15.5 C 55.292969 14.691406 58.140625 14.109375 61.035156 13.75 C 63.328125 14.292969 65.589844 14.292969 67.816406 13.75 C 68.488281 14.082031 69.15625 14.417969 69.828125 14.75 C 70.507812 14.15625 71.09375 13.492188 71.585938 12.75 C 72.375 13.15625 73.210938 13.320312 74.097656 13.25 Z M 74.097656 13.25 "/>
<path style=" stroke:none;fill-rule:evenodd;fill:rgb(73.333333%,75.686275%,76.862745%);fill-opacity:1;" d="M 91.679688 62.75 C 93.019531 62.75 94.359375 62.75 95.695312 62.75 C 95.980469 66.4375 94.304688 67.769531 90.671875 66.75 C 90.703125 65.328125 91.039062 63.996094 91.679688 62.75 Z M 91.679688 62.75 "/>
<path style=" stroke:none;fill-rule:evenodd;fill:rgb(68.235294%,73.72549%,75.294118%);fill-opacity:1;" d="M 96.703125 62.75 C 98.050781 62.667969 99.390625 62.75 100.71875 63 C 101.796875 65.605469 100.875 66.855469 97.957031 66.75 C 97.371094 66.582031 96.785156 66.417969 96.199219 66.25 C 96.636719 65.125 96.804688 63.960938 96.703125 62.75 Z M 96.703125 62.75 "/>
<path style=" stroke:none;fill-rule:evenodd;fill:rgb(59.607843%,63.137255%,64.313725%);fill-opacity:1;" d="M 85.648438 61.25 C 87.1875 61.421875 88.695312 61.753906 90.171875 62.25 C 89.714844 63.527344 89.214844 64.777344 88.664062 66 C 87.675781 66.3125 86.839844 66.0625 86.152344 65.25 C 85.703125 63.957031 85.535156 62.625 85.648438 61.25 Z M 85.648438 61.25 "/>
<path style=" stroke:none;fill-rule:evenodd;fill:rgb(0.784314%,1.176471%,1.176471%);fill-opacity:1;" d="M 75.101562 63.75 C 77.417969 66.671875 78.421875 70.003906 78.113281 73.75 C 76.542969 75.617188 74.535156 76.867188 72.085938 77.5 C 68.90625 77.832031 65.722656 77.832031 62.542969 77.5 C 60.582031 77.011719 59.492188 75.761719 59.277344 73.75 C 58.941406 72.417969 58.941406 71.082031 59.277344 69.75 C 60.585938 67.203125 62.175781 64.867188 64.050781 62.75 C 65.066406 61.734375 65.902344 60.566406 66.5625 59.25 C 67.050781 58.507812 67.71875 58.257812 68.570312 58.5 C 70.761719 60.253906 72.9375 62.003906 75.101562 63.75 Z M 75.101562 63.75 "/>
<path style=" stroke:none;fill-rule:evenodd;fill:rgb(48.235294%,54.117647%,58.431373%);fill-opacity:1;" d="M 37.925781 49.75 C 38.597656 49.75 39.265625 49.75 39.9375 49.75 C 40.03125 52.460938 40.449219 55.128906 41.191406 57.75 C 42.394531 61.253906 43.484375 64.589844 44.457031 67.75 C 40.109375 62.601562 37.933594 56.601562 37.925781 49.75 Z M 37.925781 49.75 "/>
<path style=" stroke:none;fill-rule:evenodd;fill:rgb(66.666667%,70.196078%,71.372549%);fill-opacity:1;" d="M 98.710938 55.75 C 102.304688 55.558594 103.308594 56.976562 101.726562 60 C 100.460938 60.625 99.125 60.875 97.707031 60.75 C 97.53125 58.957031 97.867188 57.289062 98.710938 55.75 Z M 98.710938 55.75 "/>
<path style=" stroke:none;fill-rule:evenodd;fill:rgb(69.803922%,73.72549%,74.117647%);fill-opacity:1;" d="M 92.683594 56.25 C 94.023438 56.25 95.363281 56.25 96.703125 56.25 C 96.839844 57.722656 96.671875 59.140625 96.199219 60.5 C 94.703125 60.75 93.195312 60.832031 91.679688 60.75 C 91.53125 59.121094 91.867188 57.621094 92.683594 56.25 Z M 92.683594 56.25 "/>
<path style=" stroke:none;fill-rule:evenodd;fill:rgb(16.470588%,21.568627%,23.921569%);fill-opacity:1;" d="M 71.082031 54.25 C 71.789062 54.488281 72.125 54.988281 72.085938 55.75 C 71.558594 56.628906 70.722656 56.960938 69.574219 56.75 C 69.574219 55.917969 69.574219 55.082031 69.574219 54.25 C 70.078125 54.25 70.578125 54.25 71.082031 54.25 Z M 71.082031 54.25 "/>
<path style=" stroke:none;fill-rule:evenodd;fill:rgb(72.54902%,79.607843%,81.176471%);fill-opacity:1;" d="M 98.710938 48.75 C 102.582031 48.101562 103.921875 49.601562 102.730469 53.25 C 101.429688 53.738281 100.089844 53.90625 98.710938 53.75 C 98.710938 52.082031 98.710938 50.417969 98.710938 48.75 Z M 98.710938 48.75 "/>
<path style=" stroke:none;fill-rule:evenodd;fill:rgb(66.27451%,72.156863%,72.156863%);fill-opacity:1;" d="M 93.183594 48.25 C 94.667969 48.113281 96.089844 48.277344 97.457031 48.75 C 97.851562 50.546875 97.769531 52.296875 97.203125 54 C 95.652344 54.421875 94.230469 54.171875 92.933594 53.25 C 92.558594 51.539062 92.644531 49.871094 93.183594 48.25 Z M 93.183594 48.25 "/>
<path style=" stroke:none;fill-rule:evenodd;fill:rgb(80.784314%,82.352941%,81.568627%);fill-opacity:1;" d="M 83.640625 31.75 C 83.894531 33.832031 83.894531 35.832031 83.640625 37.75 C 83.640625 38.582031 83.640625 39.417969 83.640625 40.25 C 83.179688 40.253906 82.929688 39.753906 82.886719 38.75 C 82.636719 39.90625 82.554688 41.070312 82.636719 42.25 C 85.148438 42.25 87.660156 42.25 90.171875 42.25 C 90.035156 43.050781 90.203125 43.714844 90.671875 44.25 C 90.859375 45.453125 91.191406 46.621094 91.679688 47.75 C 90.214844 50.121094 90.378906 52.371094 92.179688 54.5 C 90.765625 56.144531 90.09375 58.0625 90.171875 60.25 C 88.277344 60.121094 86.4375 60.289062 84.644531 60.75 C 83.417969 59.960938 82.832031 58.796875 82.886719 57.25 C 82.195312 56.648438 81.609375 55.980469 81.128906 55.25 C 82.511719 55.363281 83.851562 55.195312 85.148438 54.75 C 85.707031 54.136719 85.792969 53.472656 85.398438 52.75 C 84.367188 52.136719 83.28125 51.636719 82.132812 51.25 C 83.335938 50.824219 84.507812 50.324219 85.648438 49.75 C 86.195312 49.316406 86.277344 48.816406 85.902344 48.25 C 83.40625 46.953125 80.976562 47.121094 78.617188 48.75 C 78.5625 48.441406 78.394531 48.191406 78.113281 48 C 79.628906 45.070312 80.800781 41.988281 81.632812 38.75 C 81.378906 38.25 81.128906 37.75 80.878906 37.25 C 80.375 37.917969 79.875 38.582031 79.371094 39.25 C 79.289062 38.160156 79.707031 37.246094 80.625 36.5 C 80.707031 35.707031 80.371094 34.957031 79.621094 34.25 C 80.3125 34.171875 80.980469 34.253906 81.632812 34.5 C 80.957031 35.320312 81.121094 35.65625 82.132812 35.5 C 82.421875 34.121094 82.921875 32.871094 83.640625 31.75 Z M 83.640625 31.75 "/>
<path style=" stroke:none;fill-rule:evenodd;fill:rgb(5.882353%,5.882353%,5.882353%);fill-opacity:1;" d="M 81.128906 55.25 C 81.128906 54.917969 80.960938 54.75 80.625 54.75 C 78.683594 54.148438 77.175781 52.984375 76.105469 51.25 C 76.785156 50.238281 77.625 49.40625 78.617188 48.75 C 80.976562 47.121094 83.40625 46.953125 85.902344 48.25 C 86.277344 48.816406 86.195312 49.316406 85.648438 49.75 C 84.507812 50.324219 83.335938 50.824219 82.132812 51.25 C 83.28125 51.636719 84.367188 52.136719 85.398438 52.75 C 85.792969 53.472656 85.707031 54.136719 85.148438 54.75 C 83.851562 55.195312 82.511719 55.363281 81.128906 55.25 Z M 81.128906 55.25 "/>
<path style=" stroke:none;fill-rule:evenodd;fill:rgb(99.215686%,20.392157%,18.823529%);fill-opacity:1;" d="M 66.058594 4.75 C 69.628906 5.316406 72.808594 6.652344 75.601562 8.75 C 74.679688 9.515625 74.007812 9.351562 73.59375 8.25 C 72.628906 7.679688 71.625 7.597656 70.578125 8 C 70.746094 8.5 70.914062 9 71.082031 9.5 C 70.492188 9.710938 69.992188 10.042969 69.574219 10.5 C 64.628906 10.859375 60.109375 10.691406 56.011719 10 C 56.847656 10.167969 57.6875 10.332031 58.523438 10.5 C 58.273438 11.078125 57.855469 11.496094 57.269531 11.75 C 55.371094 12.195312 53.445312 12.363281 51.492188 12.25 C 51.601562 12.835938 51.433594 13.335938 50.988281 13.75 C 49.117188 14.425781 47.273438 15.175781 45.460938 16 C 44.796875 16.40625 44.464844 16.992188 44.457031 17.75 C 40.726562 21.152344 37.292969 24.816406 34.160156 28.75 C 33.1875 31.96875 32.597656 35.304688 32.402344 38.75 C 31.742188 38.34375 31.15625 37.84375 30.644531 37.25 C 30.394531 38.066406 30.3125 38.902344 30.390625 39.75 C 29.828125 48.066406 29.742188 56.402344 30.140625 64.75 C 30.644531 65.75 31.144531 66.75 31.648438 67.75 C 33.300781 69.054688 34.726562 70.554688 35.917969 72.25 C 37.066406 73.976562 38.320312 75.644531 39.683594 77.25 C 40.890625 78.207031 42.148438 79.039062 43.453125 79.75 C 46.226562 82.382812 49.410156 84.382812 52.996094 85.75 C 52.195312 85.960938 51.445312 86.292969 50.738281 86.75 C 48.6875 85.863281 46.597656 84.695312 44.457031 83.25 C 43.667969 83.347656 42.914062 83.347656 42.195312 83.25 C 41.144531 82.640625 41.226562 82.226562 42.449219 82 C 40.234375 80.515625 37.890625 79.265625 35.414062 78.25 C 27.453125 71.65625 23.769531 63.15625 24.363281 52.75 C 24.640625 47.320312 25.476562 41.988281 26.875 36.75 C 27.464844 35.328125 27.964844 33.828125 28.382812 32.25 C 34.992188 17.269531 46.542969 9.1875 63.042969 8 C 64.507812 7.296875 65.511719 6.214844 66.058594 4.75 Z M 66.058594 4.75 "/>
<path style=" stroke:none;fill-rule:evenodd;fill:rgb(99.215686%,69.019608%,20.784314%);fill-opacity:1;" d="M 24.363281 52.75 C 23.769531 63.15625 27.453125 71.65625 35.414062 78.25 C 36.90625 80.730469 38.75 82.898438 40.941406 84.75 C 41.054688 87.109375 42.226562 88.359375 44.457031 88.5 C 44.761719 87.464844 45.429688 86.882812 46.46875 86.75 C 49.3125 88.304688 52.328125 89.472656 55.507812 90.25 C 56.023438 90.5 56.105469 90.835938 55.761719 91.25 C 54.652344 91.496094 53.730469 91.996094 52.996094 92.75 C 50.6875 92.765625 48.425781 92.433594 46.214844 91.75 C 45.679688 91.765625 45.261719 91.929688 44.960938 92.25 C 43.230469 92.992188 41.386719 93.410156 39.433594 93.5 C 39.203125 93.707031 39.035156 93.957031 38.933594 94.25 C 39.488281 94.945312 40.15625 95.53125 40.941406 96 C 42.390625 96.136719 43.730469 96.554688 44.960938 97.25 C 45.1875 97.730469 45.523438 98.144531 45.964844 98.5 C 47.5 98.910156 49.007812 98.828125 50.484375 98.25 C 49.511719 96.421875 50.015625 95.421875 51.992188 95.25 C 53.324219 95.582031 54.664062 95.914062 56.011719 96.25 C 56.929688 96.113281 57.769531 95.777344 58.523438 95.25 C 58.339844 94.910156 58.175781 94.574219 58.019531 94.25 C 59.269531 94.269531 60.023438 94.769531 60.28125 95.75 C 54.0625 102.257812 46.441406 105.675781 37.425781 106 C 37.144531 105.808594 36.976562 105.558594 36.921875 105.25 C 36.921875 103.917969 36.921875 102.582031 36.921875 101.25 C 36.253906 101.25 35.582031 101.25 34.914062 101.25 C 34.613281 101.132812 34.445312 100.882812 34.410156 100.5 C 35.105469 98.722656 35.691406 96.972656 36.167969 95.25 C 32.746094 94.378906 29.3125 93.460938 25.871094 92.5 C 24.835938 91.597656 24.667969 90.511719 25.367188 89.25 C 23.527344 89.25 21.683594 89.25 19.84375 89.25 C 20.34375 87.917969 20.847656 86.582031 21.351562 85.25 C 16.96875 84.878906 12.949219 83.460938 9.292969 81 C 8.261719 80.140625 7.421875 79.140625 6.78125 78 C 7.136719 76.730469 7.972656 76.148438 9.292969 76.25 C 10.296875 76.417969 11.304688 76.582031 12.308594 76.75 C 12.199219 75.929688 12.367188 75.179688 12.808594 74.5 C 11.609375 74.15625 11.609375 73.65625 12.808594 73 C 12.269531 72.375 12.269531 71.707031 12.808594 71 C 12.585938 70.117188 12.335938 70.203125 12.054688 71.25 C 11.902344 70.617188 11.648438 70.035156 11.304688 69.5 C 11.46875 69.332031 11.636719 69.167969 11.804688 69 C 10.304688 67.847656 9.296875 66.347656 8.792969 64.5 C 9.886719 64.277344 10.21875 63.777344 9.796875 63 C 10.632812 62.582031 11.46875 62.167969 12.308594 61.75 C 13.757812 63.242188 14.929688 63.078125 15.824219 61.25 C 15.363281 60.835938 15.03125 60.335938 14.820312 59.75 C 15.148438 58.796875 15.230469 57.796875 15.070312 56.75 C 15.296875 57.964844 15.714844 58.046875 16.328125 57 C 14.929688 55.914062 15.015625 55.664062 16.578125 56.25 C 17.070312 55.277344 17.65625 54.359375 18.335938 53.5 C 17.75 53.25 17.332031 52.832031 17.078125 52.25 C 16.550781 52.757812 15.964844 52.84375 15.320312 52.5 C 15.667969 51.964844 15.917969 51.382812 16.074219 50.75 C 16.421875 51.179688 16.839844 51.511719 17.332031 51.75 C 17.988281 51.042969 18.40625 50.210938 18.585938 49.25 C 19.480469 50.636719 19.984375 50.472656 20.09375 48.75 C 20.261719 48.917969 20.429688 49.082031 20.597656 49.25 C 21.351562 48.5 22.101562 47.75 22.855469 47 C 22.570312 46.398438 22.234375 45.8125 21.851562 45.25 C 21.179688 46.003906 20.339844 46.335938 19.339844 46.25 C 19.339844 45.417969 19.339844 44.582031 19.339844 43.75 C 20.289062 43.648438 21.042969 43.980469 21.601562 44.75 C 22.386719 45.03125 23.058594 44.695312 23.609375 43.75 C 23.988281 46.1875 23.90625 48.605469 23.359375 51 C 23.515625 51.730469 23.847656 52.3125 24.363281 52.75 Z M 24.363281 52.75 "/>
<path style=" stroke:none;fill-rule:evenodd;fill:rgb(71.764706%,76.470588%,78.431373%);fill-opacity:1;" d="M 98.207031 41.75 C 100.542969 41.207031 102.050781 42.042969 102.730469 44.25 C 102.714844 45.015625 102.378906 45.597656 101.726562 46 C 100.566406 46.25 99.394531 46.332031 98.207031 46.25 C 98.207031 44.75 98.207031 43.25 98.207031 41.75 Z M 98.207031 41.75 "/>
<path style=" stroke:none;fill-rule:evenodd;fill:rgb(70.588235%,75.686275%,76.470588%);fill-opacity:1;" d="M 72.085938 20.75 C 71.71875 21.355469 71.550781 22.019531 71.585938 22.75 C 73.488281 22.863281 75.332031 23.28125 77.109375 24 C 77.488281 25.199219 78.15625 26.449219 79.121094 27.75 C 79.058594 28.054688 78.890625 28.21875 78.617188 28.25 C 77.5 26.6875 75.996094 25.605469 74.097656 25 C 70.929688 24.410156 67.75 24.242188 64.550781 24.5 C 59.726562 26.355469 58.472656 29.605469 60.785156 34.25 C 63.308594 37.34375 65.734375 40.511719 68.066406 43.75 C 70.90625 41.511719 73.667969 39.175781 76.355469 36.75 C 77.402344 35.339844 78.15625 33.839844 78.617188 32.25 C 78.632812 33.101562 78.964844 33.765625 79.621094 34.25 C 78.828125 34.96875 78.074219 35.800781 77.363281 36.75 C 76.335938 39.292969 75.164062 41.792969 73.84375 44.25 C 72.957031 46.402344 72.707031 48.566406 73.089844 50.75 C 72.589844 50.75 72.085938 50.75 71.585938 50.75 C 71.6875 51.976562 71.519531 53.140625 71.082031 54.25 C 70.578125 54.25 70.078125 54.25 69.574219 54.25 C 69.574219 55.082031 69.574219 55.917969 69.574219 56.75 C 70.722656 56.960938 71.558594 56.628906 72.085938 55.75 C 73.464844 58.453125 74.46875 61.117188 75.101562 63.75 C 72.9375 62.003906 70.761719 60.253906 68.570312 58.5 C 67.71875 58.257812 67.050781 58.507812 66.5625 59.25 C 66.410156 58.925781 66.242188 58.589844 66.058594 58.25 C 66.554688 57.765625 66.890625 57.183594 67.0625 56.5 C 66.726562 55.167969 66.394531 53.832031 66.058594 52.5 C 69.132812 46.875 67.792969 42.707031 62.039062 40 C 60.695312 38.148438 59.355469 36.3125 58.019531 34.5 C 54.570312 33.980469 51.21875 34.230469 47.972656 35.25 C 48.519531 34.207031 49.023438 33.125 49.480469 32 C 52.304688 31.488281 55.152344 31.074219 58.019531 30.75 C 57.320312 27.671875 55.644531 25.339844 52.996094 23.75 C 53.714844 22.640625 54.71875 21.890625 56.011719 21.5 C 61.355469 20.949219 66.714844 20.699219 72.085938 20.75 Z M 72.085938 20.75 "/>
<path style=" stroke:none;fill-rule:evenodd;fill:rgb(69.411765%,74.117647%,74.901961%);fill-opacity:1;" d="M 92.179688 41.75 C 96.1875 40.816406 97.863281 42.316406 97.203125 46.25 C 95.695312 46.25 94.191406 46.25 92.683594 46.25 C 92.582031 44.742188 92.414062 43.242188 92.179688 41.75 Z M 92.179688 41.75 "/>
<path style=" stroke:none;fill-rule:evenodd;fill:rgb(54.509804%,57.647059%,57.647059%);fill-opacity:1;" d="M 83.640625 40.25 C 84.09375 40.605469 84.261719 41.105469 84.144531 41.75 C 86.320312 41.75 88.496094 41.75 90.671875 41.75 C 90.671875 42.582031 90.671875 43.417969 90.671875 44.25 C 90.203125 43.714844 90.035156 43.050781 90.171875 42.25 C 87.660156 42.25 85.148438 42.25 82.636719 42.25 C 82.554688 41.070312 82.636719 39.90625 82.886719 38.75 C 82.929688 39.753906 83.179688 40.253906 83.640625 40.25 Z M 83.640625 40.25 "/>
<path style=" stroke:none;fill-rule:evenodd;fill:rgb(52.941176%,54.509804%,54.901961%);fill-opacity:1;" d="M 87.15625 36.25 C 87.917969 36.253906 88.503906 36.589844 88.914062 37.25 C 89.40625 38.371094 89.65625 39.535156 89.667969 40.75 C 88.328125 40.75 86.988281 40.75 85.648438 40.75 C 85.566406 39.570312 85.652344 38.40625 85.902344 37.25 C 86.402344 36.96875 86.820312 36.632812 87.15625 36.25 Z M 87.15625 36.25 "/>
<path style=" stroke:none;fill-rule:evenodd;fill:rgb(67.843137%,72.156863%,73.333333%);fill-opacity:1;" d="M 96.199219 35.75 C 97.550781 35.667969 98.890625 35.75 100.21875 36 C 101.863281 39.195312 100.859375 40.363281 97.203125 39.5 C 96.773438 38.28125 96.441406 37.03125 96.199219 35.75 Z M 96.199219 35.75 "/>
<path style=" stroke:none;fill-rule:evenodd;fill:rgb(70.980392%,72.941176%,73.72549%);fill-opacity:1;" d="M 90.671875 35.25 C 94.242188 34.632812 95.914062 36.132812 95.695312 39.75 C 91.710938 40.597656 90.039062 39.097656 90.671875 35.25 Z M 90.671875 35.25 "/>
<path style=" stroke:none;fill-rule:evenodd;fill:rgb(93.333333%,92.941176%,89.411765%);fill-opacity:1;" d="M 66.5625 59.25 C 65.902344 60.566406 65.066406 61.734375 64.050781 62.75 C 60.617188 64.730469 58.523438 67.730469 57.769531 71.75 C 57.433594 70.367188 56.847656 70.117188 56.011719 71 C 57.679688 72.746094 58.515625 74.828125 58.523438 77.25 C 56.402344 77.632812 55.0625 76.800781 54.503906 74.75 C 54.976562 72.097656 55.0625 69.429688 54.757812 66.75 C 53.695312 68.140625 52.355469 69.140625 50.738281 69.75 C 49.929688 69.449219 49.261719 68.949219 48.726562 68.25 C 45.324219 62.535156 43.230469 56.371094 42.449219 49.75 C 42.949219 49.75 43.453125 49.75 43.957031 49.75 C 43.496094 44.957031 44.417969 40.457031 46.71875 36.25 C 47.074219 35.808594 47.492188 35.476562 47.972656 35.25 C 51.21875 34.230469 54.570312 33.980469 58.019531 34.5 C 59.355469 36.3125 60.695312 38.148438 62.039062 40 C 67.792969 42.707031 69.132812 46.875 66.058594 52.5 C 66.394531 53.832031 66.726562 55.167969 67.0625 56.5 C 66.890625 57.183594 66.554688 57.765625 66.058594 58.25 C 66.242188 58.589844 66.410156 58.925781 66.5625 59.25 Z M 66.5625 59.25 "/>
<path style=" stroke:none;fill-rule:evenodd;fill:rgb(100%,55.294118%,12.54902%);fill-opacity:1;" d="M 28.382812 32.25 C 27.964844 33.828125 27.464844 35.328125 26.875 36.75 C 26 35.429688 25.664062 33.929688 25.871094 32.25 C 26.707031 32.25 27.546875 32.25 28.382812 32.25 Z M 28.382812 32.25 "/>
<path style=" stroke:none;fill-rule:evenodd;fill:rgb(54.117647%,61.568627%,63.921569%);fill-opacity:1;" d="M 73.59375 19.25 C 72.769531 19.40625 72.265625 19.90625 72.085938 20.75 C 66.714844 20.699219 61.355469 20.949219 56.011719 21.5 C 54.71875 21.890625 53.714844 22.640625 52.996094 23.75 C 55.644531 25.339844 57.320312 27.671875 58.019531 30.75 C 55.152344 31.074219 52.304688 31.488281 49.480469 32 C 49.023438 33.125 48.519531 34.207031 47.972656 35.25 C 47.492188 35.476562 47.074219 35.808594 46.71875 36.25 C 44.417969 40.457031 43.496094 44.957031 43.957031 49.75 C 43.453125 49.75 42.949219 49.75 42.449219 49.75 C 41.949219 49.835938 41.617188 49.667969 41.445312 49.25 C 41.945312 49.265625 42.28125 49.015625 42.449219 48.5 C 41.03125 43.546875 41.117188 38.628906 42.699219 33.75 C 45.601562 30.277344 49.371094 28.691406 54.003906 29 C 54.410156 28.847656 54.742188 28.597656 55.007812 28.25 C 54.015625 26.679688 52.925781 25.179688 51.742188 23.75 C 51.433594 23.277344 51.515625 22.859375 51.992188 22.5 C 54.585938 20.75 57.429688 19.582031 60.53125 19 C 64.976562 18.589844 69.328125 18.671875 73.59375 19.25 Z M 73.59375 19.25 "/>
<path style=" stroke:none;fill-rule:evenodd;fill:rgb(73.72549%,75.686275%,75.294118%);fill-opacity:1;" d="M 90.671875 29.25 C 92.191406 29.167969 93.695312 29.25 95.195312 29.5 C 96.410156 30.253906 96.914062 31.335938 96.703125 32.75 C 94.117188 32.589844 91.605469 32.921875 89.167969 33.75 C 88.746094 32 89.25 30.5 90.671875 29.25 Z M 90.671875 29.25 "/>
<path style=" stroke:none;fill-rule:evenodd;fill:rgb(93.333333%,92.941176%,90.588235%);fill-opacity:1;" d="M 72.085938 20.75 C 74.804688 21.511719 77.484375 22.429688 80.125 23.5 C 82.886719 25.578125 84.058594 28.328125 83.640625 31.75 C 82.921875 32.871094 82.421875 34.121094 82.132812 35.5 C 81.121094 35.65625 80.957031 35.320312 81.632812 34.5 C 80.980469 34.253906 80.3125 34.171875 79.621094 34.25 C 78.964844 33.765625 78.632812 33.101562 78.617188 32.25 C 78.617188 30.917969 78.617188 29.582031 78.617188 28.25 C 78.890625 28.21875 79.058594 28.054688 79.121094 27.75 C 78.15625 26.449219 77.488281 25.199219 77.109375 24 C 75.332031 23.28125 73.488281 22.863281 71.585938 22.75 C 71.550781 22.019531 71.71875 21.355469 72.085938 20.75 Z M 72.085938 20.75 "/>
<path style=" stroke:none;fill-rule:evenodd;fill:rgb(99.607843%,70.980392%,21.960784%);fill-opacity:1;" d="M 66.058594 4.75 C 65.511719 6.214844 64.507812 7.296875 63.042969 8 C 46.542969 9.1875 34.992188 17.269531 28.382812 32.25 C 27.546875 32.25 26.707031 32.25 25.871094 32.25 C 25.664062 33.929688 26 35.429688 26.875 36.75 C 25.476562 41.988281 24.640625 47.320312 24.363281 52.75 C 23.847656 52.3125 23.515625 51.730469 23.359375 51 C 23.90625 48.605469 23.988281 46.1875 23.609375 43.75 C 23.058594 44.695312 22.386719 45.03125 21.601562 44.75 C 21.042969 43.980469 20.289062 43.648438 19.339844 43.75 C 19.339844 44.582031 19.339844 45.417969 19.339844 46.25 C 20.339844 46.335938 21.179688 46.003906 21.851562 45.25 C 22.234375 45.8125 22.570312 46.398438 22.855469 47 C 22.101562 47.75 21.351562 48.5 20.597656 49.25 C 20.429688 49.082031 20.261719 48.917969 20.09375 48.75 C 19.984375 50.472656 19.480469 50.636719 18.585938 49.25 C 18.40625 50.210938 17.988281 51.042969 17.332031 51.75 C 16.839844 51.511719 16.421875 51.179688 16.074219 50.75 C 15.917969 51.382812 15.667969 51.964844 15.320312 52.5 C 15.964844 52.84375 16.550781 52.757812 17.078125 52.25 C 17.332031 52.832031 17.75 53.25 18.335938 53.5 C 17.65625 54.359375 17.070312 55.277344 16.578125 56.25 C 15.015625 55.664062 14.929688 55.914062 16.328125 57 C 15.714844 58.046875 15.296875 57.964844 15.070312 56.75 C 15.230469 57.796875 15.148438 58.796875 14.820312 59.75 C 15.03125 60.335938 15.363281 60.835938 15.824219 61.25 C 14.929688 63.078125 13.757812 63.242188 12.308594 61.75 C 11.46875 62.167969 10.632812 62.582031 9.796875 63 C 10.21875 63.777344 9.886719 64.277344 8.792969 64.5 C 9.296875 66.347656 10.304688 67.847656 11.804688 69 C 11.636719 69.167969 11.46875 69.332031 11.304688 69.5 C 11.648438 70.035156 11.902344 70.617188 12.054688 71.25 C 12.335938 70.203125 12.585938 70.117188 12.808594 71 C 12.269531 71.707031 12.269531 72.375 12.808594 73 C 11.609375 73.65625 11.609375 74.15625 12.808594 74.5 C 12.367188 75.179688 12.199219 75.929688 12.308594 76.75 C 11.304688 76.582031 10.296875 76.417969 9.292969 76.25 C 9.746094 75.921875 10.246094 75.589844 10.800781 75.25 C 5.941406 68.820312 3.429688 61.570312 3.265625 53.5 C 3.347656 52.082031 3.433594 50.667969 3.515625 49.25 C 3.710938 48.785156 4.046875 48.453125 4.519531 48.25 C 6.171875 49.144531 7.765625 50.144531 9.292969 51.25 C 9.542969 48.105469 9.542969 44.941406 9.292969 41.75 C 9.796875 41.75 10.296875 41.75 10.800781 41.75 C 8.265625 34.453125 8.183594 27.121094 10.550781 19.75 C 10.972656 18.292969 11.8125 17.792969 13.0625 18.25 C 13.730469 19.917969 14.402344 21.582031 15.070312 23.25 C 23.035156 9.449219 35.09375 2.78125 51.238281 3.25 C 56.25 3.125 61.1875 3.625 66.058594 4.75 Z M 66.058594 4.75 "/>
<path style=" stroke:none;fill-rule:evenodd;fill:rgb(47.843137%,9.803922%,6.27451%);fill-opacity:1;" d="M 18.335938 31.25 C 18.984375 32.015625 18.984375 32.851562 18.335938 33.75 C 17.65625 33.238281 16.988281 32.738281 16.328125 32.25 C 16.667969 31.410156 17.339844 31.078125 18.335938 31.25 Z M 18.335938 31.25 "/>
<path style=" stroke:none;fill-rule:evenodd;fill:rgb(83.137255%,36.470588%,10.980392%);fill-opacity:1;" d="M 18.335938 31.25 C 17.339844 31.078125 16.667969 31.410156 16.328125 32.25 C 14.9375 31.679688 14.601562 30.765625 15.320312 29.5 C 17.003906 28.921875 18.007812 29.507812 18.335938 31.25 Z M 18.335938 31.25 "/>
<path style=" stroke:none;fill-rule:evenodd;fill:rgb(1.176471%,1.568627%,1.568627%);fill-opacity:1;" d="M 78.617188 28.25 C 78.617188 29.582031 78.617188 30.917969 78.617188 32.25 C 78.15625 33.839844 77.402344 35.339844 76.355469 36.75 C 73.667969 39.175781 70.90625 41.511719 68.066406 43.75 C 65.734375 40.511719 63.308594 37.34375 60.785156 34.25 C 58.472656 29.605469 59.726562 26.355469 64.550781 24.5 C 67.75 24.242188 70.929688 24.410156 74.097656 25 C 75.996094 25.605469 77.5 26.6875 78.617188 28.25 Z M 78.617188 28.25 "/>
<path style=" stroke:none;fill-rule:evenodd;fill:rgb(55.294118%,2.352941%,13.333333%);fill-opacity:1;" d="M 46.96875 22.75 C 48.640625 23.917969 49.980469 25.417969 50.988281 27.25 C 49.515625 27.742188 48.011719 27.910156 46.46875 27.75 C 47.460938 26.996094 48.632812 26.578125 49.984375 26.5 C 49.0625 25.75 48.140625 25 47.21875 24.25 C 46.855469 25.078125 46.269531 25.328125 45.460938 25 C 46.164062 24.34375 46.667969 23.59375 46.96875 22.75 Z M 46.96875 22.75 "/>
<path style=" stroke:none;fill-rule:evenodd;fill:rgb(69.803922%,70.588235%,69.803922%);fill-opacity:1;" d="M 73.59375 19.25 C 79.527344 19.242188 83.964844 21.742188 86.90625 26.75 C 87.242188 28.082031 87.242188 29.417969 86.90625 30.75 C 85.671875 33.035156 84.585938 35.371094 83.640625 37.75 C 83.894531 35.832031 83.894531 33.832031 83.640625 31.75 C 84.058594 28.328125 82.886719 25.578125 80.125 23.5 C 77.484375 22.429688 74.804688 21.511719 72.085938 20.75 C 72.265625 19.90625 72.769531 19.40625 73.59375 19.25 Z M 73.59375 19.25 "/>
<path style=" stroke:none;fill-rule:evenodd;fill:rgb(89.411765%,0%,16.470588%);fill-opacity:1;" d="M 74.097656 13.25 C 73.210938 13.320312 72.375 13.15625 71.585938 12.75 C 71.09375 13.492188 70.507812 14.15625 69.828125 14.75 C 69.15625 14.417969 68.488281 14.082031 67.816406 13.75 C 65.589844 14.292969 63.328125 14.292969 61.035156 13.75 C 58.140625 14.109375 55.292969 14.691406 52.496094 15.5 C 46.324219 19.144531 41.300781 23.976562 37.425781 30 C 36.125 30.722656 34.785156 31.304688 33.40625 31.75 C 33.570312 34.4375 33.402344 37.105469 32.902344 39.75 C 32.050781 39.09375 31.214844 39.09375 30.390625 39.75 C 30.3125 38.902344 30.394531 38.066406 30.644531 37.25 C 31.15625 37.84375 31.742188 38.34375 32.402344 38.75 C 32.597656 35.304688 33.1875 31.96875 34.160156 28.75 C 37.292969 24.816406 40.726562 21.152344 44.457031 17.75 C 52.917969 12.480469 62.128906 10.566406 72.085938 12 C 72.769531 12.46875 73.4375 12.882812 74.097656 13.25 Z M 74.097656 13.25 "/>
<path style=" stroke:none;fill-rule:evenodd;fill:rgb(98.431373%,50.588235%,18.823529%);fill-opacity:1;" d="M 28.886719 15.25 C 29.890625 15.25 30.894531 15.25 31.898438 15.25 C 31.921875 18.25 30.414062 19.332031 27.378906 18.5 C 27.117188 18.21875 26.949219 17.886719 26.875 17.5 C 27.300781 16.496094 27.96875 15.746094 28.886719 15.25 Z M 28.886719 15.25 "/>
<path style=" stroke:none;fill-rule:evenodd;fill:rgb(60.784314%,0%,14.117647%);fill-opacity:1;" d="M 62.039062 16.25 C 66.414062 15.796875 70.769531 15.628906 75.101562 15.75 C 75.730469 15.730469 76.234375 15.980469 76.609375 16.5 C 75.855469 16.582031 75.101562 16.667969 74.347656 16.75 C 70.253906 16.324219 66.152344 16.160156 62.039062 16.25 Z M 62.039062 16.25 "/>
<path style=" stroke:none;fill-rule:evenodd;fill:rgb(97.647059%,5.882353%,19.215686%);fill-opacity:1;" d="M 75.601562 8.75 C 78.039062 10.128906 80.050781 11.960938 81.632812 14.25 C 81.378906 14.417969 81.128906 14.582031 80.878906 14.75 C 79.300781 14.320312 77.710938 13.988281 76.105469 13.75 C 75.570312 13.28125 74.898438 13.117188 74.097656 13.25 C 73.4375 12.882812 72.769531 12.46875 72.085938 12 C 62.128906 10.566406 52.917969 12.480469 44.457031 17.75 C 44.464844 16.992188 44.796875 16.40625 45.460938 16 C 47.273438 15.175781 49.117188 14.425781 50.988281 13.75 C 51.433594 13.335938 51.601562 12.835938 51.492188 12.25 C 53.445312 12.363281 55.371094 12.195312 57.269531 11.75 C 57.855469 11.496094 58.273438 11.078125 58.523438 10.5 C 57.6875 10.332031 56.847656 10.167969 56.011719 10 C 60.109375 10.691406 64.628906 10.859375 69.574219 10.5 C 69.992188 10.042969 70.492188 9.710938 71.082031 9.5 C 70.914062 9 70.746094 8.5 70.578125 8 C 71.625 7.597656 72.628906 7.679688 73.59375 8.25 C 74.007812 9.351562 74.679688 9.515625 75.601562 8.75 Z M 75.601562 8.75 "/>
<path style=" stroke:none;fill-rule:evenodd;fill:rgb(74.901961%,21.568627%,6.666667%);fill-opacity:1;" d="M 47.972656 6.75 C 48.472656 6.707031 48.894531 6.875 49.230469 7.25 C 49.480469 8.40625 49.5625 9.570312 49.480469 10.75 C 48.289062 10.925781 47.117188 11.007812 45.964844 11 C 47.382812 9.929688 48.050781 8.511719 47.972656 6.75 Z M 47.972656 6.75 "/>
<path style=" stroke:none;fill-rule:evenodd;fill:rgb(68.235294%,70.980392%,70.588235%);fill-opacity:1;" d="M 80.625 54.75 C 80.960938 54.75 81.128906 54.917969 81.128906 55.25 C 81.609375 55.980469 82.195312 56.648438 82.886719 57.25 C 82.832031 58.796875 83.417969 59.960938 84.644531 60.75 C 84.136719 62.554688 84.054688 64.390625 84.394531 66.25 C 85.914062 69.441406 86.582031 72.773438 86.402344 76.25 C 85.234375 78.664062 83.476562 80.496094 81.128906 81.75 C 82.425781 79.132812 83.261719 76.382812 83.640625 73.5 C 82.207031 67.320312 81.199219 61.070312 80.625 54.75 Z M 80.625 54.75 "/>
<path style=" stroke:none;fill-rule:evenodd;fill:rgb(72.54902%,74.901961%,75.294118%);fill-opacity:1;" d="M 88.664062 68.75 C 90.347656 68.667969 92.023438 68.75 93.6875 69 C 97.296875 69.550781 97.628906 70.882812 94.691406 73 C 90.707031 74.113281 88.695312 72.695312 88.664062 68.75 Z M 88.664062 68.75 "/>
<path style=" stroke:none;fill-rule:evenodd;fill:rgb(44.313725%,51.372549%,54.901961%);fill-opacity:1;" d="M 42.949219 70.75 C 43.96875 70.667969 44.972656 70.753906 45.964844 71 C 47.839844 72.765625 50.019531 74.015625 52.496094 74.75 C 53.910156 75.078125 54.75 75.996094 55.007812 77.5 C 54.546875 77.640625 54.210938 77.890625 54.003906 78.25 C 49.753906 76.515625 46.070312 74.015625 42.949219 70.75 Z M 42.949219 70.75 "/>
<path style=" stroke:none;fill-rule:evenodd;fill:rgb(62.352941%,64.705882%,64.705882%);fill-opacity:1;" d="M 64.050781 62.75 C 62.175781 64.867188 60.585938 67.203125 59.277344 69.75 C 58.941406 71.082031 58.941406 72.417969 59.277344 73.75 C 59.492188 75.761719 60.582031 77.011719 62.542969 77.5 C 65.722656 77.832031 68.90625 77.832031 72.085938 77.5 C 74.535156 76.867188 76.542969 75.617188 78.113281 73.75 C 77.621094 75.664062 76.449219 77.082031 74.597656 78 C 75.4375 78.167969 76.273438 78.332031 77.109375 78.5 C 75.851562 78.847656 74.679688 79.265625 73.59375 79.75 C 69.449219 78.613281 65.261719 78.613281 61.035156 79.75 C 58.617188 79.566406 56.269531 79.066406 54.003906 78.25 C 54.210938 77.890625 54.546875 77.640625 55.007812 77.5 C 54.75 75.996094 53.910156 75.078125 52.496094 74.75 C 53.164062 74.75 53.835938 74.75 54.503906 74.75 C 55.0625 76.800781 56.402344 77.632812 58.523438 77.25 C 58.515625 74.828125 57.679688 72.746094 56.011719 71 C 56.847656 70.117188 57.433594 70.367188 57.769531 71.75 C 58.523438 67.730469 60.617188 64.730469 64.050781 62.75 Z M 64.050781 62.75 "/>
<path style=" stroke:none;fill-rule:evenodd;fill:rgb(60.784314%,16.078431%,1.960784%);fill-opacity:1;" d="M 14.316406 78.75 C 15.644531 78.976562 16.816406 79.558594 17.832031 80.5 C 15.972656 81.15625 14.800781 80.574219 14.316406 78.75 Z M 14.316406 78.75 "/>
<path style=" stroke:none;fill-rule:evenodd;fill:rgb(79.607843%,0%,12.941176%);fill-opacity:1;" d="M 35.917969 72.25 C 38.46875 74.066406 40.898438 76.066406 43.203125 78.25 C 43.453125 78.167969 43.703125 78.082031 43.957031 78 C 42.6875 77.5 42.6875 77.085938 43.957031 76.75 C 44.875 77.378906 45.882812 77.710938 46.96875 77.75 C 49.789062 79.402344 52.804688 80.652344 56.011719 81.5 C 60.367188 81.667969 64.71875 81.832031 69.074219 82 C 67.816406 82.835938 66.644531 83.753906 65.554688 84.75 C 69.394531 85.25 73.246094 85.414062 77.109375 85.25 C 77.667969 85.644531 78.335938 85.894531 79.121094 86 C 78.644531 86.242188 78.140625 86.324219 77.613281 86.25 C 77.613281 86.75 77.613281 87.25 77.613281 87.75 C 74.058594 88.695312 70.457031 89.53125 66.8125 90.25 C 66.394531 90.082031 65.976562 89.917969 65.554688 89.75 C 65.296875 88.886719 64.960938 88.054688 64.550781 87.25 C 62.972656 86.957031 61.46875 86.621094 60.03125 86.25 C 60.929688 85.84375 61.933594 85.59375 63.042969 85.5 C 59.261719 84.542969 55.410156 83.710938 51.492188 83 C 51 81.796875 50.246094 81.382812 49.230469 81.75 C 47.535156 80.449219 45.609375 79.78125 43.453125 79.75 C 42.148438 79.039062 40.890625 78.207031 39.683594 77.25 C 38.320312 75.644531 37.066406 73.976562 35.917969 72.25 Z M 35.917969 72.25 "/>
<path style=" stroke:none;fill-rule:evenodd;fill:rgb(98.823529%,29.411765%,21.176471%);fill-opacity:1;" d="M 35.414062 78.25 C 37.890625 79.265625 40.234375 80.515625 42.449219 82 C 41.226562 82.226562 41.144531 82.640625 42.195312 83.25 C 42.914062 83.347656 43.667969 83.347656 44.457031 83.25 C 46.597656 84.695312 48.6875 85.863281 50.738281 86.75 C 51.445312 86.292969 52.195312 85.960938 52.996094 85.75 C 52.304688 86.636719 52.472656 87.386719 53.5 88 C 55.355469 89.257812 57.363281 90.257812 59.527344 91 C 59.90625 91.335938 60.074219 91.753906 60.03125 92.25 C 59.027344 92.25 58.019531 92.25 57.015625 92.25 C 56.878906 93.191406 57.214844 93.855469 58.019531 94.25 C 58.175781 94.574219 58.339844 94.910156 58.523438 95.25 C 57.769531 95.777344 56.929688 96.113281 56.011719 96.25 C 54.664062 95.914062 53.324219 95.582031 51.992188 95.25 C 51.738281 94.570312 51.234375 94.070312 50.484375 93.75 C 51.386719 93.414062 52.222656 93.082031 52.996094 92.75 C 53.730469 91.996094 54.652344 91.496094 55.761719 91.25 C 56.105469 90.835938 56.023438 90.5 55.507812 90.25 C 52.328125 89.472656 49.3125 88.304688 46.46875 86.75 C 44.828125 85.691406 42.988281 85.027344 40.941406 84.75 C 38.75 82.898438 36.90625 80.730469 35.414062 78.25 Z M 35.414062 78.25 "/>
<use xlink:href="#surface26" mask="url(#mask7)"/>
<path style=" stroke:none;fill-rule:evenodd;fill:rgb(87.843137%,0%,15.686275%);fill-opacity:1;" d="M 43.453125 79.75 C 45.609375 79.78125 47.535156 80.449219 49.230469 81.75 C 50.246094 81.382812 51 81.796875 51.492188 83 C 55.410156 83.710938 59.261719 84.542969 63.042969 85.5 C 61.933594 85.59375 60.929688 85.84375 60.03125 86.25 C 57.664062 86.324219 55.316406 86.15625 52.996094 85.75 C 49.410156 84.382812 46.226562 82.382812 43.453125 79.75 Z M 43.453125 79.75 "/>
<path style=" stroke:none;fill-rule:evenodd;fill:rgb(100%,47.058824%,19.215686%);fill-opacity:1;" d="M 40.941406 84.75 C 42.988281 85.027344 44.828125 85.691406 46.46875 86.75 C 45.429688 86.882812 44.761719 87.464844 44.457031 88.5 C 42.226562 88.359375 41.054688 87.109375 40.941406 84.75 Z M 40.941406 84.75 "/>
<path style=" stroke:none;fill-rule:evenodd;fill:rgb(96.470588%,11.764706%,22.745098%);fill-opacity:1;" d="M 77.109375 85.25 C 77.949219 85.25 78.785156 85.25 79.621094 85.25 C 79.5 86.632812 78.828125 87.714844 77.613281 88.5 C 72.210938 92.390625 66.347656 93.640625 60.03125 92.25 C 60.074219 91.753906 59.90625 91.335938 59.527344 91 C 57.363281 90.257812 55.355469 89.257812 53.5 88 C 52.472656 87.386719 52.304688 86.636719 52.996094 85.75 C 55.316406 86.15625 57.664062 86.324219 60.03125 86.25 C 61.46875 86.621094 62.972656 86.957031 64.550781 87.25 C 64.960938 88.054688 65.296875 88.886719 65.554688 89.75 C 65.976562 89.917969 66.394531 90.082031 66.8125 90.25 C 70.457031 89.53125 74.058594 88.695312 77.613281 87.75 C 77.613281 87.25 77.613281 86.75 77.613281 86.25 C 78.140625 86.324219 78.644531 86.242188 79.121094 86 C 78.335938 85.894531 77.667969 85.644531 77.109375 85.25 Z M 77.109375 85.25 "/>
<path style=" stroke:none;fill-rule:evenodd;fill:rgb(99.607843%,48.627451%,20%);fill-opacity:1;" d="M 52.996094 92.75 C 52.222656 93.082031 51.386719 93.414062 50.484375 93.75 C 51.234375 94.070312 51.738281 94.570312 51.992188 95.25 C 50.015625 95.421875 49.511719 96.421875 50.484375 98.25 C 49.007812 98.828125 47.5 98.910156 45.964844 98.5 C 45.523438 98.144531 45.1875 97.730469 44.960938 97.25 C 44.960938 95.582031 44.960938 93.917969 44.960938 92.25 C 45.261719 91.929688 45.679688 91.765625 46.214844 91.75 C 48.425781 92.433594 50.6875 92.765625 52.996094 92.75 Z M 52.996094 92.75 "/>
<path style=" stroke:none;fill-rule:evenodd;fill:rgb(100%,58.431373%,18.823529%);fill-opacity:1;" d="M 44.960938 92.25 C 44.960938 93.917969 44.960938 95.582031 44.960938 97.25 C 43.730469 96.554688 42.390625 96.136719 40.941406 96 C 40.15625 95.53125 39.488281 94.945312 38.933594 94.25 C 39.035156 93.957031 39.203125 93.707031 39.433594 93.5 C 41.386719 93.410156 43.230469 92.992188 44.960938 92.25 Z M 44.960938 92.25 "/>
<path style=" stroke:none;fill-rule:evenodd;fill:rgb(70.196078%,40.392157%,18.039216%);fill-opacity:1;" d="M 62.039062 95.75 C 63.953125 95.175781 65.964844 95.09375 68.066406 95.5 C 67.570312 96.582031 66.902344 97.5 66.058594 98.25 C 66.183594 97.414062 66.519531 96.664062 67.0625 96 C 65.398438 95.75 63.722656 95.667969 62.039062 95.75 Z M 62.039062 95.75 "/>
<path style=" stroke:none;fill-rule:evenodd;fill:rgb(96.078431%,60%,22.352941%);fill-opacity:1;" d="M 62.039062 95.75 C 63.722656 95.667969 65.398438 95.75 67.0625 96 C 66.519531 96.664062 66.183594 97.414062 66.058594 98.25 C 64.953125 100.277344 63.277344 101.359375 61.035156 101.5 C 60.335938 101.023438 60 100.355469 60.03125 99.5 C 60.582031 98.199219 61.25 96.949219 62.039062 95.75 Z M 62.039062 95.75 "/>
<use xlink:href="#surface29" mask="url(#mask8)"/>
<path style=" stroke:none;fill-rule:evenodd;fill:rgb(58.823529%,36.862745%,16.078431%);fill-opacity:1;" d="M 34.914062 101.25 C 35.582031 101.25 36.253906 101.25 36.921875 101.25 C 36.921875 102.582031 36.921875 103.917969 36.921875 105.25 C 36.4375 104.195312 36.269531 103.03125 36.421875 101.75 C 35.773438 101.867188 35.269531 101.703125 34.914062 101.25 Z M 34.914062 101.25 "/>
</g>
</svg>
