<?xml version="1.0" encoding="UTF-8"?>
<svg xmlns="http://www.w3.org/2000/svg" xmlns:xlink="http://www.w3.org/1999/xlink" width="px" height="px" viewBox="0 0 99 102" version="1.1">
<defs>
<filter id="alpha" filterUnits="objectBoundingBox" x="0%" y="0%" width="100%" height="100%">
  <feColorMatrix type="matrix" in="SourceGraphic" values="0 0 0 0 1 0 0 0 0 1 0 0 0 0 1 0 0 0 1 0"/>
</filter>
<mask id="mask0">
  <g filter="url(#alpha)">
<rect x="0" y="0" width="99" height="102" style="fill:rgb(0%,0%,0%);fill-opacity:0.156863;stroke:none;"/>
  </g>
</mask>
<clipPath id="clip1">
  <rect x="0" y="0" width="99" height="103"/>
</clipPath>
<g id="surface5" clip-path="url(#clip1)">
<path style=" stroke:none;fill-rule:evenodd;fill:rgb(14.901961%,21.960784%,28.235294%);fill-opacity:1;" d="M 66.082031 6.785156 C 67.46875 6.199219 68.808594 6.453125 70.105469 7.535156 C 73.265625 9.6875 75.195312 12.617188 75.882812 16.328125 C 79.578125 18.59375 82.007812 21.777344 83.171875 25.875 C 89.207031 24.65625 92.808594 27.003906 93.976562 32.910156 C 94.644531 33.582031 95.316406 34.25 95.984375 34.921875 C 96.308594 38.039062 97.0625 41.136719 98.246094 44.214844 C 98.417969 45.960938 97.832031 47.386719 96.488281 48.488281 C 95.886719 51.617188 96.640625 54.296875 98.75 56.527344 C 98.75 57.363281 98.75 58.203125 98.75 59.039062 C 97.449219 60.980469 96.695312 63.15625 96.488281 65.570312 C 95.492188 67.152344 94.238281 68.492188 92.71875 69.589844 C 92.652344 72.085938 91.480469 73.84375 89.199219 74.867188 C 87.191406 75.035156 85.179688 75.203125 83.171875 75.371094 C 82.046875 79.257812 79.703125 82.1875 76.132812 84.164062 C 74.40625 90.414062 70.386719 94.265625 64.074219 95.71875 C 63.253906 97.535156 62.082031 99.042969 60.554688 100.242188 C 61.847656 98.4375 62.683594 96.429688 63.070312 94.210938 C 63.738281 94.210938 64.410156 94.210938 65.078125 94.210938 C 70.804688 93.007812 74.15625 89.492188 75.128906 83.660156 C 79.0625 81.664062 81.40625 78.484375 82.164062 74.113281 C 84.910156 74.3125 87.589844 74.0625 90.207031 73.359375 C 91.074219 71.902344 91.40625 70.308594 91.210938 68.585938 C 92.777344 68.558594 93.949219 67.890625 94.726562 66.578125 C 95.519531 63.773438 96.359375 60.925781 97.242188 58.035156 C 97.339844 56.390625 96.753906 55.050781 95.480469 54.015625 C 95.398438 53.011719 95.316406 52.003906 95.230469 51 C 95.613281 48.699219 96.117188 46.4375 96.738281 44.214844 C 96.65625 43.296875 96.570312 42.375 96.488281 41.453125 C 95.867188 41 95.445312 40.414062 95.230469 39.695312 C 96.410156 36.789062 95.570312 34.695312 92.71875 33.414062 C 92.625 31.136719 91.789062 29.210938 90.207031 27.636719 C 87.699219 27.382812 85.1875 27.300781 82.667969 27.382812 C 82.085938 22.707031 79.65625 19.355469 75.378906 17.335938 C 74.320312 12.003906 71.222656 8.488281 66.082031 6.785156 Z M 66.082031 6.785156 "/>
</g>
<mask id="mask1">
  <g filter="url(#alpha)">
<rect x="0" y="0" width="99" height="102" style="fill:rgb(0%,0%,0%);fill-opacity:0.388235;stroke:none;"/>
  </g>
</mask>
<clipPath id="clip2">
  <rect x="0" y="0" width="99" height="103"/>
</clipPath>
<g id="surface8" clip-path="url(#clip2)">
<path style=" stroke:none;fill-rule:evenodd;fill:rgb(14.117647%,20.784314%,26.666667%);fill-opacity:1;" d="M 6.28125 72.605469 C 7.152344 72.914062 7.90625 73.417969 8.542969 74.113281 C 8.804688 76.164062 9.222656 78.175781 9.800781 80.144531 C 7.695312 78.105469 6.519531 75.59375 6.28125 72.605469 Z M 6.28125 72.605469 "/>
</g>
</defs>
<g id="surface1">
<path style=" stroke:none;fill-rule:evenodd;fill:rgb(82.745098%,45.490196%,21.568627%);fill-opacity:1;" d="M 47.992188 3.769531 C 46.167969 3.308594 44.324219 3.226562 42.464844 3.515625 C 42.234375 3.726562 42.066406 3.976562 41.960938 4.269531 C 42.382812 4.890625 42.886719 5.394531 43.46875 5.777344 C 43.25 5.746094 43.082031 5.828125 42.96875 6.03125 C 45.105469 9.132812 45.859375 12.566406 45.226562 16.328125 C 42.832031 16.761719 40.484375 17.433594 38.191406 18.339844 C 37.675781 18.171875 37.425781 17.835938 37.4375 17.335938 C 39.320312 16.742188 41.160156 16.070312 42.96875 15.324219 C 42.96875 14.824219 42.96875 14.320312 42.96875 13.816406 C 43.804688 10.300781 42.796875 7.457031 39.953125 5.277344 C 40.898438 4.832031 41.570312 4.078125 41.960938 3.015625 C 44.152344 1.996094 46.164062 2.25 47.992188 3.769531 Z M 47.992188 3.769531 "/>
<path style=" stroke:none;fill-rule:evenodd;fill:rgb(97.647059%,54.509804%,22.745098%);fill-opacity:1;" d="M 56.03125 11.808594 C 55.441406 12.316406 55.109375 12.988281 55.027344 13.816406 C 53.394531 13.441406 51.722656 13.1875 50.003906 13.0625 C 49.25 12.644531 48.664062 12.058594 48.242188 11.304688 C 48.050781 11.585938 47.800781 11.753906 47.488281 11.808594 C 46.773438 9.410156 45.433594 7.398438 43.46875 5.777344 C 42.886719 5.394531 42.382812 4.890625 41.960938 4.269531 C 42.066406 3.976562 42.234375 3.726562 42.464844 3.515625 C 44.324219 3.226562 46.167969 3.308594 47.992188 3.769531 C 51.519531 5.925781 54.867188 5.589844 58.042969 2.761719 C 59.007812 4.191406 59.847656 5.699219 60.554688 7.285156 C 59.660156 8.15625 58.65625 8.910156 57.539062 9.546875 C 56.714844 10.113281 56.214844 10.867188 56.03125 11.808594 Z M 56.03125 11.808594 "/>
<use xlink:href="#surface5" mask="url(#mask0)"/>
<path style=" stroke:none;fill-rule:evenodd;fill:rgb(99.607843%,63.529412%,25.882353%);fill-opacity:1;" d="M 38.445312 4.773438 C 38.800781 5.226562 39.304688 5.394531 39.953125 5.277344 C 42.796875 7.457031 43.804688 10.300781 42.96875 13.816406 C 41.621094 14.789062 40.113281 15.039062 38.445312 14.570312 C 36.496094 12.707031 34.652344 10.78125 32.917969 8.792969 C 31.5625 8.457031 30.222656 8.121094 28.894531 7.789062 C 29.652344 6.613281 30.65625 5.695312 31.910156 5.023438 C 34.082031 4.773438 36.261719 4.691406 38.445312 4.773438 Z M 38.445312 4.773438 "/>
<path style=" stroke:none;fill-rule:evenodd;fill:rgb(1.960784%,1.568627%,4.705882%);fill-opacity:1;" d="M 43.46875 -0.25 C 44.140625 -0.25 44.808594 -0.25 45.480469 -0.25 C 47.734375 0.835938 49.996094 2.007812 52.265625 3.265625 C 53.792969 2.710938 55.214844 1.957031 56.535156 1.003906 C 57.375 0.671875 58.210938 0.671875 59.046875 1.003906 C 60.65625 2.460938 61.828125 4.21875 62.566406 6.28125 C 63.691406 6.769531 64.867188 6.9375 66.082031 6.785156 C 71.222656 8.488281 74.320312 12.003906 75.378906 17.335938 C 79.65625 19.355469 82.085938 22.707031 82.667969 27.382812 C 82.660156 28.148438 82.328125 28.734375 81.664062 29.144531 C 81.9375 29.503906 82.269531 29.753906 82.667969 29.898438 C 82.667969 30.734375 82.667969 31.570312 82.667969 32.410156 C 82.394531 32.4375 82.226562 32.605469 82.164062 32.910156 C 83.003906 33.246094 83.839844 33.582031 84.675781 33.917969 C 83.375 34.628906 82.035156 35.132812 80.65625 35.421875 C 78.808594 35.785156 78.304688 36.792969 79.148438 38.4375 C 78.371094 38.601562 78.035156 39.101562 78.144531 39.945312 C 76.902344 39.347656 76.398438 38.34375 76.636719 36.929688 C 81.648438 31.019531 81.316406 25.410156 75.632812 20.097656 C 74.4375 19.839844 73.265625 19.507812 72.113281 19.09375 C 65.75 18.84375 59.386719 18.757812 53.019531 18.84375 C 57.117188 18.425781 61.304688 18.175781 65.582031 18.089844 C 66.640625 17.90625 67.644531 17.574219 68.597656 17.082031 C 64.578125 16.832031 60.558594 16.75 56.535156 16.832031 C 56.476562 15.144531 56.308594 13.46875 56.03125 11.808594 C 56.214844 10.867188 56.714844 10.113281 57.539062 9.546875 C 58.65625 8.910156 59.660156 8.15625 60.554688 7.285156 C 59.847656 5.699219 59.007812 4.191406 58.042969 2.761719 C 54.867188 5.589844 51.519531 5.925781 47.992188 3.769531 C 46.164062 2.25 44.152344 1.996094 41.960938 3.015625 C 41.570312 4.078125 40.898438 4.832031 39.953125 5.277344 C 39.304688 5.394531 38.800781 5.226562 38.445312 4.773438 C 36.121094 4.570312 33.859375 4.066406 31.660156 3.265625 C 31.101562 4.039062 30.347656 4.375 29.398438 4.269531 C 30.199219 3.398438 31.203125 2.8125 32.414062 2.511719 C 34.925781 2.34375 37.4375 2.175781 39.953125 2.011719 C 41.003906 0.988281 42.175781 0.234375 43.46875 -0.25 Z M 43.46875 -0.25 "/>
<path style=" stroke:none;fill-rule:evenodd;fill:rgb(19.607843%,16.078431%,20.784314%);fill-opacity:1;" d="M 61.5625 9.296875 C 63.777344 9.058594 65.789062 9.5625 67.589844 10.804688 C 66.757812 11.21875 66.085938 11.804688 65.582031 12.5625 C 64.742188 12.730469 63.90625 12.898438 63.070312 13.0625 C 63.402344 13.230469 63.738281 13.398438 64.074219 13.566406 C 63.632812 14.246094 63.464844 15 63.570312 15.828125 C 61.394531 15.828125 59.214844 15.828125 57.039062 15.828125 C 57.191406 12.664062 58.699219 10.488281 61.5625 9.296875 Z M 61.5625 9.296875 "/>
<path style=" stroke:none;fill-rule:evenodd;fill:rgb(81.960784%,43.529412%,23.137255%);fill-opacity:1;" d="M 55.027344 13.816406 C 55.066406 14.535156 54.898438 15.207031 54.523438 15.828125 C 52.535156 16.410156 50.527344 16.492188 48.496094 16.078125 C 47.652344 14.789062 47.316406 13.367188 47.488281 11.808594 C 47.800781 11.753906 48.050781 11.585938 48.242188 11.304688 C 48.664062 12.058594 49.25 12.644531 50.003906 13.0625 C 51.722656 13.1875 53.394531 13.441406 55.027344 13.816406 Z M 55.027344 13.816406 "/>
<path style=" stroke:none;fill-rule:evenodd;fill:rgb(93.72549%,52.156863%,20.392157%);fill-opacity:1;" d="M 28.894531 7.789062 C 30.222656 8.121094 31.5625 8.457031 32.917969 8.792969 C 34.652344 10.78125 36.496094 12.707031 38.445312 14.570312 C 40.113281 15.039062 41.621094 14.789062 42.96875 13.816406 C 42.96875 14.320312 42.96875 14.824219 42.96875 15.324219 C 41.160156 16.070312 39.320312 16.742188 37.4375 17.335938 C 36.476562 16.25 35.640625 15.078125 34.925781 13.816406 C 34.277344 12.914062 33.523438 12.078125 32.664062 11.304688 C 33.101562 12.511719 33.6875 13.683594 34.425781 14.824219 C 34.425781 14.988281 34.425781 15.15625 34.425781 15.324219 C 33.773438 17.277344 33.4375 19.285156 33.417969 21.355469 C 32.261719 21.105469 31.085938 20.941406 29.902344 20.851562 C 30.007812 21.695312 29.675781 22.199219 28.894531 22.359375 C 28.394531 22.191406 28.058594 21.855469 27.890625 21.355469 C 28.394531 20.851562 28.894531 20.351562 29.398438 19.847656 C 31.152344 19.371094 31.820312 18.199219 31.410156 16.328125 C 31.363281 13.292969 30.359375 10.695312 28.394531 8.542969 C 28.671875 8.351562 28.839844 8.097656 28.894531 7.789062 Z M 28.894531 7.789062 "/>
<path style=" stroke:none;fill-rule:evenodd;fill:rgb(35.686275%,16.078431%,7.45098%);fill-opacity:1;" d="M 34.925781 13.816406 C 34.503906 13.988281 34.335938 14.324219 34.425781 14.824219 C 33.6875 13.683594 33.101562 12.511719 32.664062 11.304688 C 33.523438 12.078125 34.277344 12.914062 34.925781 13.816406 Z M 34.925781 13.816406 "/>
<path style=" stroke:none;fill-rule:evenodd;fill:rgb(100%,79.607843%,40.784314%);fill-opacity:1;" d="M 31.410156 16.328125 C 31.820312 18.199219 31.152344 19.371094 29.398438 19.847656 C 26.972656 18.886719 24.796875 17.546875 22.867188 15.828125 C 25.761719 15.175781 28.609375 15.34375 31.410156 16.328125 Z M 31.410156 16.328125 "/>
<path style=" stroke:none;fill-rule:evenodd;fill:rgb(5.882353%,3.529412%,3.529412%);fill-opacity:1;" d="M 38.445312 4.773438 C 36.261719 4.691406 34.082031 4.773438 31.910156 5.023438 C 30.65625 5.695312 29.652344 6.613281 28.894531 7.789062 C 25.828125 9.238281 22.8125 10.828125 19.851562 12.5625 C 18.476562 13.882812 17.554688 15.472656 17.085938 17.335938 C 15.082031 18.839844 13.238281 20.511719 11.558594 22.359375 C 10.816406 24.324219 10.230469 26.332031 9.800781 28.390625 C 7.632812 29.632812 5.875 31.308594 4.523438 33.414062 C 4.101562 35.246094 4.351562 36.921875 5.277344 38.4375 C 5.601562 39.410156 5.769531 40.414062 5.777344 41.453125 C 4.894531 41.835938 4.390625 42.507812 4.273438 43.464844 C 3.3125 44.203125 2.726562 45.207031 2.511719 46.476562 C 2.261719 48.480469 2.179688 50.492188 2.261719 52.507812 C 1.847656 50.761719 1.597656 48.917969 1.507812 46.980469 C 1.339844 48.988281 1.171875 51 1.003906 53.011719 C 0.730469 51.164062 0.476562 49.324219 0.25 47.484375 C 0.261719 46.261719 0.515625 45.089844 1.003906 43.964844 C 1.953125 42.652344 2.707031 41.230469 3.265625 39.695312 C 2.335938 37.339844 2.085938 34.910156 2.511719 32.410156 C 4.171875 30.25 6.011719 28.238281 8.039062 26.378906 C 8.75 21.78125 11.09375 18.261719 15.074219 15.828125 C 16.089844 13.304688 17.679688 11.210938 19.851562 9.546875 C 23.308594 8.207031 26.492188 6.449219 29.398438 4.269531 C 30.347656 4.375 31.101562 4.039062 31.660156 3.265625 C 33.859375 4.066406 36.121094 4.570312 38.445312 4.773438 Z M 38.445312 4.773438 "/>
<path style=" stroke:none;fill-rule:evenodd;fill:rgb(10.588235%,7.843137%,12.941176%);fill-opacity:1;" d="M 53.019531 18.84375 C 59.386719 18.757812 65.75 18.84375 72.113281 19.09375 C 73.265625 19.507812 74.4375 19.839844 75.632812 20.097656 C 81.316406 25.410156 81.648438 31.019531 76.636719 36.929688 C 77.464844 33.503906 77.71875 29.988281 77.390625 26.378906 C 77.203125 25.917969 76.953125 25.5 76.636719 25.125 C 73.632812 24.257812 72.292969 25.347656 72.617188 28.390625 C 69.234375 23.964844 64.710938 22.289062 59.046875 23.363281 C 53.644531 22.433594 48.285156 22.851562 42.96875 24.621094 C 43.636719 24.957031 43.636719 25.289062 42.96875 25.625 C 39.6875 26.109375 37.007812 27.617188 34.925781 30.148438 C 34.449219 30.390625 33.949219 30.472656 33.417969 30.398438 C 34.191406 33.484375 33.1875 34.15625 30.402344 32.410156 C 30.058594 32.589844 29.726562 32.757812 29.398438 32.910156 C 31.722656 24.8125 37.082031 20.207031 45.480469 19.09375 C 47.988281 18.84375 50.5 18.757812 53.019531 18.84375 Z M 53.019531 18.84375 "/>
<path style=" stroke:none;fill-rule:evenodd;fill:rgb(83.921569%,47.058824%,23.529412%);fill-opacity:1;" d="M 34.425781 15.324219 C 35.347656 16.84375 35.597656 18.515625 35.175781 20.351562 C 33.519531 21.503906 32.011719 22.84375 30.65625 24.371094 C 29.964844 23.765625 29.378906 23.09375 28.894531 22.359375 C 29.675781 22.199219 30.007812 21.695312 29.902344 20.851562 C 31.085938 20.941406 32.261719 21.105469 33.417969 21.355469 C 33.4375 19.285156 33.773438 17.277344 34.425781 15.324219 Z M 34.425781 15.324219 "/>
<path style=" stroke:none;fill-rule:evenodd;fill:rgb(0%,0.392157%,4.313725%);fill-opacity:1;" d="M 59.046875 23.363281 C 64.710938 22.289062 69.234375 23.964844 72.617188 28.390625 C 72.785156 29.730469 72.953125 31.070312 73.121094 32.410156 C 72.238281 35.753906 70.394531 38.515625 67.589844 40.699219 C 62.21875 43.164062 57.949219 41.90625 54.777344 36.929688 C 54.035156 35.59375 53.449219 34.253906 53.019531 32.910156 C 53.019531 32.242188 53.019531 31.570312 53.019531 30.902344 C 53.148438 26.914062 55.160156 24.402344 59.046875 23.363281 Z M 59.046875 23.363281 "/>
<path style=" stroke:none;fill-rule:evenodd;fill:rgb(86.27451%,45.882353%,21.568627%);fill-opacity:1;" d="M 25.378906 22.863281 C 26.074219 23.402344 26.660156 24.070312 27.136719 24.871094 C 27.722656 27.972656 27.304688 30.90625 25.878906 33.664062 C 24.660156 34.039062 23.824219 33.621094 23.367188 32.410156 C 24.066406 31.519531 24.652344 30.511719 25.125 29.394531 C 25.378906 27.222656 25.460938 25.046875 25.378906 22.863281 Z M 25.378906 22.863281 "/>
<path style=" stroke:none;fill-rule:evenodd;fill:rgb(98.823529%,66.27451%,28.235294%);fill-opacity:1;" d="M 28.894531 7.789062 C 28.839844 8.097656 28.671875 8.351562 28.394531 8.542969 C 30.359375 10.695312 31.363281 13.292969 31.410156 16.328125 C 28.609375 15.34375 25.761719 15.175781 22.867188 15.828125 C 24.796875 17.546875 26.972656 18.886719 29.398438 19.847656 C 28.894531 20.351562 28.394531 20.851562 27.890625 21.355469 C 26.398438 20.4375 24.890625 19.519531 23.367188 18.589844 C 22.53125 18.195312 21.695312 18.027344 20.855469 18.089844 C 22.816406 19.292969 24.324219 20.886719 25.378906 22.863281 C 25.460938 25.046875 25.378906 27.222656 25.125 29.394531 C 24.652344 30.511719 24.066406 31.519531 23.367188 32.410156 C 21.289062 30.613281 18.941406 29.1875 16.332031 28.136719 C 15.496094 27.804688 14.65625 27.804688 13.820312 28.136719 C 15.195312 28.652344 16.367188 29.40625 17.335938 30.398438 C 16.03125 30.015625 14.691406 29.847656 13.316406 29.898438 C 13.316406 30.398438 13.316406 30.902344 13.316406 31.402344 C 15.480469 31.730469 16.988281 32.90625 17.839844 34.921875 C 16.191406 33.589844 14.347656 32.503906 12.3125 31.65625 C 10.300781 31.101562 8.539062 31.523438 7.035156 32.910156 C 6.152344 34.722656 5.566406 36.5625 5.277344 38.4375 C 4.351562 36.921875 4.101562 35.246094 4.523438 33.414062 C 5.875 31.308594 7.632812 29.632812 9.800781 28.390625 C 10.230469 26.332031 10.816406 24.324219 11.558594 22.359375 C 13.238281 20.511719 15.082031 18.839844 17.085938 17.335938 C 17.554688 15.472656 18.476562 13.882812 19.851562 12.5625 C 22.8125 10.828125 25.828125 9.238281 28.894531 7.789062 Z M 28.894531 7.789062 "/>
<path style=" stroke:none;fill-rule:evenodd;fill:rgb(100%,79.215686%,41.960784%);fill-opacity:1;" d="M 16.332031 23.867188 C 19.382812 23.246094 21.226562 24.417969 21.859375 27.382812 C 18.917969 27.367188 16.070312 26.867188 13.316406 25.875 C 14.179688 24.945312 15.1875 24.277344 16.332031 23.867188 Z M 16.332031 23.867188 "/>
<path style=" stroke:none;fill-rule:evenodd;fill:rgb(12.941176%,9.019608%,15.294118%);fill-opacity:1;" d="M 59.046875 23.363281 C 55.160156 24.402344 53.148438 26.914062 53.019531 30.902344 C 41.402344 27.828125 34.03125 32.015625 30.90625 43.464844 C 30.90625 43.964844 30.90625 44.46875 30.90625 44.96875 C 30.753906 46.730469 29.917969 48.152344 28.394531 49.242188 C 29.070312 50.0625 28.988281 50.816406 28.140625 51.503906 C 27.410156 48.410156 27.160156 45.230469 27.386719 41.957031 C 27.558594 38.78125 28.230469 35.765625 29.398438 32.910156 C 29.726562 32.757812 30.058594 32.589844 30.402344 32.410156 C 33.1875 34.15625 34.191406 33.484375 33.417969 30.398438 C 33.949219 30.472656 34.449219 30.390625 34.925781 30.148438 C 37.007812 27.617188 39.6875 26.109375 42.96875 25.625 C 43.636719 25.289062 43.636719 24.957031 42.96875 24.621094 C 48.285156 22.851562 53.644531 22.433594 59.046875 23.363281 Z M 59.046875 23.363281 "/>
<path style=" stroke:none;fill-rule:evenodd;fill:rgb(78.431373%,71.764706%,65.882353%);fill-opacity:1;" d="M 82.667969 29.898438 C 85.011719 29.898438 87.359375 29.898438 89.703125 29.898438 C 89.703125 30.902344 89.703125 31.90625 89.703125 32.910156 C 87.257812 33.070312 84.914062 32.90625 82.667969 32.410156 C 82.667969 31.570312 82.667969 30.734375 82.667969 29.898438 Z M 82.667969 29.898438 "/>
<path style=" stroke:none;fill-rule:evenodd;fill:rgb(23.529412%,17.254902%,19.607843%);fill-opacity:1;" d="M 53.019531 30.902344 C 53.019531 31.570312 53.019531 32.242188 53.019531 32.910156 C 53.167969 36.640625 53 40.324219 52.515625 43.964844 C 50.800781 43.988281 49.125 43.734375 47.488281 43.210938 C 47.8125 37 44.964844 34.65625 38.945312 36.175781 C 36.855469 38.339844 36.019531 40.9375 36.433594 43.964844 C 34.558594 44.054688 32.714844 43.886719 30.90625 43.464844 C 34.03125 32.015625 41.402344 27.828125 53.019531 30.902344 Z M 53.019531 30.902344 "/>
<path style=" stroke:none;fill-rule:evenodd;fill:rgb(5.490196%,2.352941%,3.137255%);fill-opacity:1;" d="M 43.46875 5.777344 C 45.433594 7.398438 46.773438 9.410156 47.488281 11.808594 C 47.316406 13.367188 47.652344 14.789062 48.496094 16.078125 C 50.527344 16.492188 52.535156 16.410156 54.523438 15.828125 C 54.898438 15.207031 55.066406 14.535156 55.027344 13.816406 C 55.109375 12.988281 55.441406 12.316406 56.03125 11.808594 C 56.308594 13.46875 56.476562 15.144531 56.535156 16.832031 C 60.558594 16.75 64.578125 16.832031 68.597656 17.082031 C 67.644531 17.574219 66.640625 17.90625 65.582031 18.089844 C 61.304688 18.175781 57.117188 18.425781 53.019531 18.84375 C 50.5 18.757812 47.988281 18.84375 45.480469 19.09375 C 37.082031 20.207031 31.722656 24.8125 29.398438 32.910156 C 28.230469 35.765625 27.558594 38.78125 27.386719 41.957031 C 26.011719 53.058594 27.605469 63.777344 32.164062 74.113281 C 36.015625 79.933594 41.460938 82.613281 48.496094 82.152344 C 48.132812 83.066406 47.632812 83.402344 46.988281 83.15625 C 47.78125 83.558594 48.617188 83.808594 49.5 83.910156 C 49.164062 84.078125 48.828125 84.246094 48.496094 84.414062 C 50.171875 84.75 51.84375 84.75 53.519531 84.414062 C 52.824219 83.96875 52.90625 83.714844 53.773438 83.660156 C 54.640625 84.285156 55.5625 84.785156 56.535156 85.167969 C 56.402344 85.972656 56.570312 86.640625 57.039062 87.175781 C 57.523438 89.671875 59.03125 91.179688 61.5625 91.699219 C 61.351562 92.0625 61.015625 92.3125 60.554688 92.453125 C 60.890625 92.621094 61.226562 92.789062 61.5625 92.957031 C 61.265625 93.609375 60.933594 94.195312 60.554688 94.714844 C 58.9375 93.390625 57.261719 92.050781 55.53125 90.695312 C 54.722656 88.941406 54.21875 87.097656 54.023438 85.167969 C 51.671875 85.085938 49.328125 85.167969 46.988281 85.417969 C 46.507812 87.125 46.339844 88.882812 46.484375 90.695312 C 45.984375 90.738281 45.566406 90.570312 45.226562 90.191406 C 45.140625 88.253906 44.886719 86.410156 44.476562 84.664062 C 42.363281 83.84375 40.1875 83.425781 37.941406 83.410156 C 36.402344 85.40625 35.0625 87.5 33.921875 89.691406 C 34.257812 88.015625 34.589844 86.339844 34.925781 84.664062 C 35.722656 81.246094 34.382812 78.902344 30.90625 77.628906 C 29.894531 77.636719 29.390625 78.140625 29.398438 79.136719 C 27.71875 80.980469 25.710938 82.320312 23.367188 83.15625 C 24.929688 81.761719 26.101562 80.089844 26.886719 78.132812 C 28.621094 73.929688 27.953125 70.078125 24.875 66.578125 C 24.128906 67.0625 23.628906 67.730469 23.367188 68.585938 C 22.410156 68.707031 21.742188 69.207031 21.359375 70.09375 C 19.972656 70.972656 18.464844 71.394531 16.835938 71.351562 C 19.300781 70.308594 20.976562 68.546875 21.859375 66.074219 C 22.480469 65.335938 22.984375 64.5 23.367188 63.5625 C 25.371094 60.140625 24.367188 58.214844 20.351562 57.785156 C 20.632812 57.589844 20.800781 57.339844 20.855469 57.03125 C 21.023438 57.03125 21.191406 57.03125 21.359375 57.03125 C 23.425781 55.097656 24.265625 52.667969 23.871094 49.742188 C 24.570312 46.863281 23.566406 44.9375 20.855469 43.964844 C 19.507812 43.601562 18.167969 43.183594 16.835938 42.710938 C 17.847656 42.457031 18.855469 42.203125 19.851562 41.957031 C 23.015625 42.847656 24.441406 41.675781 24.121094 38.4375 C 23.910156 37.167969 23.324219 36.164062 22.363281 35.421875 C 21.199219 33.257812 19.527344 31.582031 17.335938 30.398438 C 16.367188 29.40625 15.195312 28.652344 13.820312 28.136719 C 14.65625 27.804688 15.496094 27.804688 16.332031 28.136719 C 18.941406 29.1875 21.289062 30.613281 23.367188 32.410156 C 23.824219 33.621094 24.660156 34.039062 25.878906 33.664062 C 27.304688 30.90625 27.722656 27.972656 27.136719 24.871094 C 26.660156 24.070312 26.074219 23.402344 25.378906 22.863281 C 24.324219 20.886719 22.816406 19.292969 20.855469 18.089844 C 21.695312 18.027344 22.53125 18.195312 23.367188 18.589844 C 24.890625 19.519531 26.398438 20.4375 27.890625 21.355469 C 28.058594 21.855469 28.394531 22.191406 28.894531 22.359375 C 29.378906 23.09375 29.964844 23.765625 30.65625 24.371094 C 32.011719 22.84375 33.519531 21.503906 35.175781 20.351562 C 35.597656 18.515625 35.347656 16.84375 34.425781 15.324219 C 34.425781 15.15625 34.425781 14.988281 34.425781 14.824219 C 34.335938 14.324219 34.503906 13.988281 34.925781 13.816406 C 35.640625 15.078125 36.476562 16.25 37.4375 17.335938 C 37.425781 17.835938 37.675781 18.171875 38.191406 18.339844 C 40.484375 17.433594 42.832031 16.761719 45.226562 16.328125 C 45.859375 12.566406 45.105469 9.132812 42.96875 6.03125 C 43.082031 5.828125 43.25 5.746094 43.46875 5.777344 Z M 43.46875 5.777344 "/>
<path style=" stroke:none;fill-rule:evenodd;fill:rgb(100%,81.568627%,41.568627%);fill-opacity:1;" d="M 17.839844 34.921875 C 19.230469 36.78125 19.0625 38.539062 17.335938 40.195312 C 14.976562 41.457031 12.464844 42.042969 9.800781 41.957031 C 8.402344 42.066406 7.0625 41.898438 5.777344 41.453125 C 5.769531 40.414062 5.601562 39.410156 5.277344 38.4375 C 5.566406 36.5625 6.152344 34.722656 7.035156 32.910156 C 8.539062 31.523438 10.300781 31.101562 12.3125 31.65625 C 14.347656 32.503906 16.191406 33.589844 17.839844 34.921875 Z M 17.839844 34.921875 "/>
<path style=" stroke:none;fill-rule:evenodd;fill:rgb(19.215686%,14.117647%,18.823529%);fill-opacity:1;" d="M 76.636719 36.929688 C 76.398438 38.34375 76.902344 39.347656 78.144531 39.945312 C 78.976562 42.277344 79.644531 44.707031 80.15625 47.230469 C 79.375 49.488281 79.542969 51.664062 80.65625 53.761719 C 79.90625 55.019531 79.234375 56.273438 78.648438 57.53125 C 78.277344 57.597656 77.941406 57.515625 77.640625 57.28125 C 78.6875 56.644531 78.855469 55.890625 78.144531 55.019531 C 78.179688 52.960938 77.175781 51.703125 75.128906 51.25 C 76.007812 50.601562 76.929688 50.015625 77.894531 49.492188 C 78.316406 46.632812 77.0625 45.542969 74.125 46.226562 C 72.011719 47.53125 70 48.957031 68.09375 50.496094 C 68.160156 50.125 68.074219 49.792969 67.84375 49.492188 C 67.515625 50.09375 67.261719 50.09375 67.089844 49.492188 C 67.589844 49.15625 68.09375 48.824219 68.597656 48.488281 C 67.773438 48.480469 67.023438 47.980469 66.335938 46.980469 C 65.636719 46.835938 64.882812 47.003906 64.074219 47.484375 C 67.859375 44.101562 70.792969 40.082031 72.867188 35.421875 C 73.117188 34.433594 73.199219 33.425781 73.121094 32.410156 C 72.953125 31.070312 72.785156 29.730469 72.617188 28.390625 C 72.292969 25.347656 73.632812 24.257812 76.636719 25.125 C 76.953125 25.5 77.203125 25.917969 77.390625 26.378906 C 77.71875 29.988281 77.464844 33.503906 76.636719 36.929688 Z M 76.636719 36.929688 "/>
<path style=" stroke:none;fill-rule:evenodd;fill:rgb(73.72549%,41.568627%,23.529412%);fill-opacity:1;" d="M 22.363281 35.421875 C 23.324219 36.164062 23.910156 37.167969 24.121094 38.4375 C 24.441406 41.675781 23.015625 42.847656 19.851562 41.957031 C 20.621094 41.027344 21.625 40.527344 22.867188 40.449219 C 22.945312 38.738281 22.777344 37.0625 22.363281 35.421875 Z M 22.363281 35.421875 "/>
<path style=" stroke:none;fill-rule:evenodd;fill:rgb(95.686275%,93.72549%,92.54902%);fill-opacity:1;" d="M 80.65625 35.421875 C 82.175781 35.339844 83.679688 35.425781 85.179688 35.675781 C 85.648438 36.871094 85.816406 38.128906 85.683594 39.441406 C 83.832031 39.527344 81.988281 39.441406 80.15625 39.191406 C 79.695312 39.050781 79.359375 38.800781 79.148438 38.4375 C 78.304688 36.792969 78.808594 35.785156 80.65625 35.421875 Z M 80.65625 35.421875 "/>
<path style=" stroke:none;fill-rule:evenodd;fill:rgb(95.294118%,55.294118%,23.529412%);fill-opacity:1;" d="M 17.335938 30.398438 C 19.527344 31.582031 21.199219 33.257812 22.363281 35.421875 C 22.777344 37.0625 22.945312 38.738281 22.867188 40.449219 C 21.625 40.527344 20.621094 41.027344 19.851562 41.957031 C 18.855469 42.203125 17.847656 42.457031 16.835938 42.710938 C 18.167969 43.183594 19.507812 43.601562 20.855469 43.964844 C 21.980469 45.785156 22.484375 47.792969 22.363281 49.996094 C 21.785156 52.273438 21.449219 54.621094 21.359375 57.03125 C 21.191406 57.03125 21.023438 57.03125 20.855469 57.03125 C 19.742188 56.917969 18.902344 57.335938 18.34375 58.285156 C 22.234375 57.949219 23.910156 59.710938 23.367188 63.5625 C 22.984375 64.5 22.480469 65.335938 21.859375 66.074219 C 22.164062 64.542969 22.414062 63.035156 22.613281 61.550781 C 22.195312 61.132812 21.777344 60.714844 21.359375 60.296875 C 19.035156 59.8125 16.6875 59.480469 14.324219 59.289062 C 14.945312 58.945312 14.945312 58.691406 14.324219 58.535156 C 14.832031 57.945312 15.5 57.613281 16.332031 57.53125 C 18.386719 56.730469 19.640625 55.226562 20.101562 53.011719 C 20.664062 48.539062 18.738281 45.609375 14.324219 44.214844 C 12.734375 43.421875 11.0625 42.921875 9.296875 42.710938 C 9.578125 42.515625 9.742188 42.265625 9.800781 41.957031 C 12.464844 42.042969 14.976562 41.457031 17.335938 40.195312 C 19.0625 38.539062 19.230469 36.78125 17.839844 34.921875 C 16.988281 32.90625 15.480469 31.730469 13.316406 31.402344 C 13.316406 30.902344 13.316406 30.398438 13.316406 29.898438 C 14.691406 29.847656 16.03125 30.015625 17.335938 30.398438 Z M 17.335938 30.398438 "/>
<path style=" stroke:none;fill-rule:evenodd;fill:rgb(11.764706%,8.235294%,13.333333%);fill-opacity:1;" d="M 73.121094 32.410156 C 73.199219 33.425781 73.117188 34.433594 72.867188 35.421875 C 70.792969 40.082031 67.859375 44.101562 64.074219 47.484375 C 63.382812 47.5625 62.714844 47.476562 62.0625 47.230469 C 61.183594 45.554688 60.011719 44.132812 58.546875 42.960938 C 58.355469 45.144531 57.183594 45.984375 55.027344 45.472656 C 54.703125 45.320312 54.367188 45.152344 54.023438 44.96875 C 53.628906 45.585938 53.378906 46.257812 53.269531 46.980469 C 53.167969 46.035156 52.917969 45.199219 52.515625 44.46875 C 52.515625 44.300781 52.515625 44.132812 52.515625 43.964844 C 53 40.324219 53.167969 36.640625 53.019531 32.910156 C 53.449219 34.253906 54.035156 35.59375 54.777344 36.929688 C 57.949219 41.90625 62.21875 43.164062 67.589844 40.699219 C 70.394531 38.515625 72.238281 35.753906 73.121094 32.410156 Z M 73.121094 32.410156 "/>
<path style=" stroke:none;fill-rule:evenodd;fill:rgb(20.392157%,14.901961%,17.254902%);fill-opacity:1;" d="M 52.515625 44.46875 C 52.917969 45.199219 53.167969 46.035156 53.269531 46.980469 C 53.378906 46.257812 53.628906 45.585938 54.023438 44.96875 C 54.367188 45.152344 54.703125 45.320312 55.027344 45.472656 C 55.410156 45.859375 55.914062 46.109375 56.535156 46.226562 C 55.371094 47.742188 55.371094 49.332031 56.535156 51 C 56.429688 51.292969 56.261719 51.546875 56.03125 51.753906 C 56.855469 52 57.691406 52.085938 58.546875 52.003906 C 58.621094 52.535156 58.539062 53.035156 58.292969 53.511719 C 57.765625 52.703125 57.011719 52.371094 56.03125 52.507812 C 56.140625 53.332031 55.972656 54.085938 55.53125 54.769531 C 56.046875 56.289062 56.382812 57.710938 56.535156 59.039062 C 56.941406 58.074219 57.191406 57.066406 57.289062 56.023438 C 58.574219 57.34375 59.746094 57.175781 60.808594 55.523438 C 61.824219 56.269531 62.660156 56.105469 63.320312 55.019531 C 63.609375 55.738281 63.527344 56.40625 63.070312 57.03125 C 61.757812 57.519531 60.753906 58.355469 60.054688 59.542969 C 54.457031 62.863281 52.277344 67.71875 53.519531 74.113281 C 53.585938 74.484375 53.503906 74.820312 53.269531 75.117188 C 52.816406 74.515625 52.230469 74.097656 51.511719 73.863281 C 52.179688 72.9375 52.097656 72.6875 51.257812 73.109375 C 50.410156 72.695312 50.328125 72.191406 51.007812 71.601562 C 49.835938 71.265625 48.664062 70.929688 47.488281 70.597656 C 51.136719 67.230469 51.390625 63.546875 48.242188 59.542969 C 48.074219 61.050781 47.910156 62.558594 47.742188 64.0625 C 47.492188 62.0625 47.40625 60.050781 47.488281 58.035156 C 49.058594 57.542969 50.734375 57.375 52.515625 57.53125 C 52.515625 53.175781 52.515625 48.824219 52.515625 44.46875 Z M 52.515625 44.46875 "/>
<path style=" stroke:none;fill-rule:evenodd;fill:rgb(99.607843%,82.352941%,43.529412%);fill-opacity:1;" d="M 4.273438 43.464844 C 4.273438 43.964844 4.273438 44.46875 4.273438 44.96875 C 6.789062 44.886719 9.300781 44.972656 11.808594 45.222656 C 12.789062 45.714844 13.710938 46.300781 14.574219 46.980469 C 14.171875 48.257812 14.003906 49.597656 14.070312 51 C 16.722656 52.679688 16.804688 54.441406 14.324219 56.277344 C 12.355469 56.828125 10.34375 57.164062 8.292969 57.28125 C 8.566406 57.640625 8.902344 57.890625 9.296875 58.035156 C 9.746094 58.339844 10.246094 58.507812 10.804688 58.535156 C 12.914062 59.691406 15.257812 60.277344 17.839844 60.296875 C 19.953125 61.839844 20.375 63.765625 19.097656 66.074219 C 17.6875 67.402344 16.097656 68.410156 14.324219 69.089844 C 11.296875 69.582031 8.613281 68.914062 6.28125 67.078125 C 5.804688 67.492188 5.300781 67.578125 4.773438 67.328125 C 6.015625 64.339844 6.015625 61.410156 4.773438 58.535156 C 3.925781 56.488281 3.089844 54.480469 2.261719 52.507812 C 2.179688 50.492188 2.261719 48.480469 2.511719 46.476562 C 2.726562 45.207031 3.3125 44.203125 4.273438 43.464844 Z M 4.273438 43.464844 "/>
<path style=" stroke:none;fill-rule:evenodd;fill:rgb(1.176471%,1.176471%,3.921569%);fill-opacity:1;" d="M 78.144531 55.019531 C 77.136719 56.265625 75.796875 56.769531 74.125 56.527344 C 73.789062 56.359375 73.453125 56.191406 73.121094 56.023438 C 71.117188 54.691406 69.273438 53.183594 67.589844 51.503906 C 67.757812 51.167969 67.925781 50.832031 68.09375 50.496094 C 70 48.957031 72.011719 47.53125 74.125 46.226562 C 77.0625 45.542969 78.316406 46.632812 77.894531 49.492188 C 76.929688 50.015625 76.007812 50.601562 75.128906 51.25 C 77.175781 51.703125 78.179688 52.960938 78.144531 55.019531 Z M 78.144531 55.019531 "/>
<path style=" stroke:none;fill-rule:evenodd;fill:rgb(5.490196%,4.705882%,5.490196%);fill-opacity:1;" d="M 82.667969 27.382812 C 85.1875 27.300781 87.699219 27.382812 90.207031 27.636719 C 91.789062 29.210938 92.625 31.136719 92.71875 33.414062 C 95.570312 34.695312 96.410156 36.789062 95.230469 39.695312 C 95.445312 40.414062 95.867188 41 96.488281 41.453125 C 96.570312 42.375 96.65625 43.296875 96.738281 44.214844 C 96.117188 46.4375 95.613281 48.699219 95.230469 51 C 95.316406 52.003906 95.398438 53.011719 95.480469 54.015625 C 96.753906 55.050781 97.339844 56.390625 97.242188 58.035156 C 96.359375 60.925781 95.519531 63.773438 94.726562 66.578125 C 93.347656 67.3125 91.839844 67.730469 90.207031 67.832031 C 89.886719 69.046875 89.386719 70.136719 88.699219 71.097656 C 88.769531 70.28125 88.433594 69.695312 87.691406 69.339844 C 85.902344 68.71875 84.0625 68.46875 82.164062 68.585938 C 82.164062 69.089844 82.164062 69.589844 82.164062 70.09375 C 81.800781 70.304688 81.550781 70.636719 81.410156 71.097656 C 81.25 70.3125 80.832031 69.726562 80.15625 69.339844 C 81.046875 68.113281 82.21875 67.277344 83.671875 66.828125 C 82.226562 66.347656 80.96875 66.597656 79.902344 67.582031 C 78.761719 66.59375 77.839844 65.421875 77.140625 64.0625 C 77.515625 63.441406 77.683594 62.773438 77.640625 62.054688 C 78.457031 60.691406 78.792969 59.183594 78.648438 57.53125 C 79.234375 56.273438 79.90625 55.019531 80.65625 53.761719 C 79.542969 51.664062 79.375 49.488281 80.15625 47.230469 C 79.644531 44.707031 78.976562 42.277344 78.144531 39.945312 C 78.035156 39.101562 78.371094 38.601562 79.148438 38.4375 C 79.359375 38.800781 79.695312 39.050781 80.15625 39.191406 C 81.988281 39.441406 83.832031 39.527344 85.683594 39.441406 C 85.816406 38.128906 85.648438 36.871094 85.179688 35.675781 C 83.679688 35.425781 82.175781 35.339844 80.65625 35.421875 C 82.035156 35.132812 83.375 34.628906 84.675781 33.917969 C 83.839844 33.582031 83.003906 33.246094 82.164062 32.910156 C 82.226562 32.605469 82.394531 32.4375 82.667969 32.410156 C 84.914062 32.90625 87.257812 33.070312 89.703125 32.910156 C 89.703125 31.90625 89.703125 30.902344 89.703125 29.898438 C 87.359375 29.898438 85.011719 29.898438 82.667969 29.898438 C 82.269531 29.753906 81.9375 29.503906 81.664062 29.144531 C 82.328125 28.734375 82.660156 28.148438 82.667969 27.382812 Z M 82.667969 27.382812 "/>
<path style=" stroke:none;fill-rule:evenodd;fill:rgb(90.588235%,88.627451%,87.058824%);fill-opacity:1;" d="M 82.667969 40.949219 C 86.539062 40.683594 87.710938 42.359375 86.183594 45.976562 C 81.011719 47.003906 79.835938 45.328125 82.667969 40.949219 Z M 82.667969 40.949219 "/>
<path style=" stroke:none;fill-rule:evenodd;fill:rgb(90.980392%,88.235294%,86.27451%);fill-opacity:1;" d="M 89.199219 41.453125 C 90.746094 41.332031 92.253906 41.5 93.722656 41.957031 C 94.648438 42.972656 94.898438 44.148438 94.476562 45.472656 C 92.738281 46.167969 90.980469 46.335938 89.199219 45.976562 C 87.867188 44.449219 87.867188 42.945312 89.199219 41.453125 Z M 89.199219 41.453125 "/>
<path style=" stroke:none;fill-rule:evenodd;fill:rgb(95.294118%,92.156863%,89.803922%);fill-opacity:1;" d="M 87.691406 35.421875 C 89.210938 35.339844 90.71875 35.425781 92.214844 35.675781 C 93.167969 36.582031 93.417969 37.671875 92.96875 38.941406 C 89.316406 40.496094 87.554688 39.324219 87.691406 35.421875 Z M 87.691406 35.421875 "/>
<path style=" stroke:none;fill-rule:evenodd;fill:rgb(99.607843%,71.372549%,30.980392%);fill-opacity:1;" d="M 5.777344 41.453125 C 7.0625 41.898438 8.402344 42.066406 9.800781 41.957031 C 9.742188 42.265625 9.578125 42.515625 9.296875 42.710938 C 11.0625 42.921875 12.734375 43.421875 14.324219 44.214844 C 18.738281 45.609375 20.664062 48.539062 20.101562 53.011719 C 19.640625 55.226562 18.386719 56.730469 16.332031 57.53125 C 17.113281 56.832031 16.945312 56.496094 15.828125 56.527344 C 13.613281 57.152344 11.433594 57.65625 9.296875 58.035156 C 8.902344 57.890625 8.566406 57.640625 8.292969 57.28125 C 10.34375 57.164062 12.355469 56.828125 14.324219 56.277344 C 16.804688 54.441406 16.722656 52.679688 14.070312 51 C 14.003906 49.597656 14.171875 48.257812 14.574219 46.980469 C 13.710938 46.300781 12.789062 45.714844 11.808594 45.222656 C 9.300781 44.972656 6.789062 44.886719 4.273438 44.96875 C 4.273438 44.46875 4.273438 43.964844 4.273438 43.464844 C 4.390625 42.507812 4.894531 41.835938 5.777344 41.453125 Z M 5.777344 41.453125 "/>
<path style=" stroke:none;fill-rule:evenodd;fill:rgb(20.784314%,15.294118%,19.215686%);fill-opacity:1;" d="M 64.074219 47.484375 C 64.882812 47.003906 65.636719 46.835938 66.335938 46.980469 C 67.023438 47.980469 67.773438 48.480469 68.597656 48.488281 C 68.09375 48.824219 67.589844 49.15625 67.089844 49.492188 C 67.261719 50.09375 67.515625 50.09375 67.84375 49.492188 C 68.074219 49.792969 68.160156 50.125 68.09375 50.496094 C 67.925781 50.832031 67.757812 51.167969 67.589844 51.503906 C 66.800781 52.976562 67.136719 54.230469 68.597656 55.269531 C 69.574219 56.050781 70.660156 56.636719 71.863281 57.03125 C 72.515625 56.960938 72.933594 56.625 73.121094 56.023438 C 73.453125 56.191406 73.789062 56.359375 74.125 56.527344 C 74.1875 57.382812 74.523438 58.136719 75.128906 58.789062 C 74.792969 59.457031 74.460938 60.128906 74.125 60.796875 C 74.589844 61.707031 75.007812 61.625 75.378906 60.546875 C 75.886719 60.789062 76.472656 60.871094 77.140625 60.796875 C 76.433594 62.703125 75.761719 64.628906 75.128906 66.578125 C 74.519531 66.1875 74.519531 65.769531 75.128906 65.320312 C 74.601562 65.074219 74.101562 65.15625 73.621094 65.570312 C 72.089844 63.117188 70.246094 60.855469 68.09375 58.789062 C 66.628906 57.566406 64.953125 56.980469 63.070312 57.03125 C 63.527344 56.40625 63.609375 55.738281 63.320312 55.019531 C 62.660156 56.105469 61.824219 56.269531 60.808594 55.523438 C 59.746094 57.175781 58.574219 57.34375 57.289062 56.023438 C 57.191406 57.066406 56.941406 58.074219 56.535156 59.039062 C 56.382812 57.710938 56.046875 56.289062 55.53125 54.769531 C 55.972656 54.085938 56.140625 53.332031 56.03125 52.507812 C 57.011719 52.371094 57.765625 52.703125 58.292969 53.511719 C 58.539062 53.035156 58.621094 52.535156 58.546875 52.003906 C 57.691406 52.085938 56.855469 52 56.03125 51.753906 C 56.261719 51.546875 56.429688 51.292969 56.535156 51 C 55.371094 49.332031 55.371094 47.742188 56.535156 46.226562 C 55.914062 46.109375 55.410156 45.859375 55.027344 45.472656 C 57.183594 45.984375 58.355469 45.144531 58.546875 42.960938 C 60.011719 44.132812 61.183594 45.554688 62.0625 47.230469 C 62.714844 47.476562 63.382812 47.5625 64.074219 47.484375 Z M 64.074219 47.484375 "/>
<path style=" stroke:none;fill-rule:evenodd;fill:rgb(93.333333%,90.588235%,88.235294%);fill-opacity:1;" d="M 83.171875 47.984375 C 87.6875 47.566406 88.859375 49.324219 86.6875 53.261719 C 81.816406 53.691406 80.644531 51.929688 83.171875 47.984375 Z M 83.171875 47.984375 "/>
<path style=" stroke:none;fill-rule:evenodd;fill:rgb(90.196078%,85.490196%,82.745098%);fill-opacity:1;" d="M 91.210938 47.984375 C 91.714844 47.984375 92.214844 47.984375 92.71875 47.984375 C 92.929688 50.097656 92.679688 52.105469 91.964844 54.015625 C 91.25 52.105469 90.996094 50.097656 91.210938 47.984375 Z M 91.210938 47.984375 "/>
<path style=" stroke:none;fill-rule:evenodd;fill:rgb(69.803922%,39.607843%,22.745098%);fill-opacity:1;" d="M 20.855469 43.964844 C 23.566406 44.9375 24.570312 46.863281 23.871094 49.742188 C 24.265625 52.667969 23.425781 55.097656 21.359375 57.03125 C 21.449219 54.621094 21.785156 52.273438 22.363281 49.996094 C 22.484375 47.792969 21.980469 45.785156 20.855469 43.964844 Z M 20.855469 43.964844 "/>
<path style=" stroke:none;fill-rule:evenodd;fill:rgb(39.607843%,32.54902%,27.058824%);fill-opacity:1;" d="M 67.589844 51.503906 C 69.273438 53.183594 71.117188 54.691406 73.121094 56.023438 C 72.933594 56.625 72.515625 56.960938 71.863281 57.03125 C 70.660156 56.636719 69.574219 56.050781 68.597656 55.269531 C 67.136719 54.230469 66.800781 52.976562 67.589844 51.503906 Z M 67.589844 51.503906 "/>
<path style=" stroke:none;fill-rule:evenodd;fill:rgb(92.941176%,90.980392%,89.803922%);fill-opacity:1;" d="M 82.667969 55.019531 C 86.273438 54.183594 87.527344 55.523438 86.4375 59.039062 C 84.59375 61.050781 82.75 61.050781 80.910156 59.039062 C 80.796875 57.417969 81.382812 56.078125 82.667969 55.019531 Z M 82.667969 55.019531 "/>
<path style=" stroke:none;fill-rule:evenodd;fill:rgb(93.72549%,91.372549%,89.803922%);fill-opacity:1;" d="M 89.199219 55.523438 C 90.71875 55.4375 92.226562 55.523438 93.722656 55.773438 C 95.488281 58.46875 94.734375 60.058594 91.460938 60.546875 C 88.152344 59.964844 87.398438 58.292969 89.199219 55.523438 Z M 89.199219 55.523438 "/>
<path style=" stroke:none;fill-rule:evenodd;fill:rgb(52.941176%,18.431373%,4.313725%);fill-opacity:1;" d="M 16.332031 57.53125 C 15.5 57.613281 14.832031 57.945312 14.324219 58.535156 C 13.148438 58.535156 11.976562 58.535156 10.804688 58.535156 C 10.246094 58.507812 9.746094 58.339844 9.296875 58.035156 C 11.433594 57.65625 13.613281 57.152344 15.828125 56.527344 C 16.945312 56.496094 17.113281 56.832031 16.332031 57.53125 Z M 16.332031 57.53125 "/>
<path style=" stroke:none;fill-rule:evenodd;fill:rgb(0%,0%,4.313725%);fill-opacity:1;" d="M 60.054688 59.542969 C 67.421875 59.203125 71.609375 62.71875 72.617188 70.09375 C 72.371094 72.09375 71.699219 73.933594 70.605469 75.621094 C 70.222656 75.957031 69.886719 76.375 69.601562 76.875 C 65.785156 78.171875 61.929688 78.339844 58.042969 77.378906 C 56.316406 76.570312 54.808594 75.480469 53.519531 74.113281 C 52.277344 67.71875 54.457031 62.863281 60.054688 59.542969 Z M 60.054688 59.542969 "/>
<path style=" stroke:none;fill-rule:evenodd;fill:rgb(74.901961%,41.960784%,19.607843%);fill-opacity:1;" d="M 20.855469 57.03125 C 20.800781 57.339844 20.632812 57.589844 20.351562 57.785156 C 24.367188 58.214844 25.371094 60.140625 23.367188 63.5625 C 23.910156 59.710938 22.234375 57.949219 18.34375 58.285156 C 18.902344 57.335938 19.742188 56.917969 20.855469 57.03125 Z M 20.855469 57.03125 "/>
<path style=" stroke:none;fill-rule:evenodd;fill:rgb(96.078431%,93.72549%,92.156863%);fill-opacity:1;" d="M 79.652344 62.054688 C 81.664062 62.054688 83.671875 62.054688 85.683594 62.054688 C 86.113281 64.902344 84.941406 66.246094 82.164062 66.074219 C 78.765625 66.203125 77.925781 64.863281 79.652344 62.054688 Z M 79.652344 62.054688 "/>
<path style=" stroke:none;fill-rule:evenodd;fill:rgb(98.039216%,69.803922%,25.882353%);fill-opacity:1;" d="M 52.515625 43.964844 C 52.515625 44.132812 52.515625 44.300781 52.515625 44.46875 C 52.515625 48.824219 52.515625 53.175781 52.515625 57.53125 C 50.734375 57.375 49.058594 57.542969 47.488281 58.035156 C 48.421875 62.730469 46.496094 65.242188 41.710938 65.570312 C 37.300781 64.894531 35.375 62.296875 35.929688 57.785156 C 34.433594 57.53125 32.925781 57.449219 31.410156 57.53125 C 30.910156 53.4375 30.742188 49.25 30.90625 44.96875 C 30.90625 44.46875 30.90625 43.964844 30.90625 43.464844 C 32.714844 43.886719 34.558594 44.054688 36.433594 43.964844 C 36.019531 40.9375 36.855469 38.339844 38.945312 36.175781 C 44.964844 34.65625 47.8125 37 47.488281 43.210938 C 49.125 43.734375 50.800781 43.988281 52.515625 43.964844 Z M 52.515625 43.964844 "/>
<path style=" stroke:none;fill-rule:evenodd;fill:rgb(28.235294%,21.568627%,20%);fill-opacity:1;" d="M 39.953125 38.4375 C 44.507812 37.984375 46.101562 39.992188 44.726562 44.46875 C 43.265625 45.496094 42.347656 46.835938 41.960938 48.488281 C 43.785156 47.929688 45.292969 46.84375 46.484375 45.222656 C 48.335938 44.878906 49.589844 45.632812 50.253906 47.484375 C 50.652344 49.707031 50.484375 51.882812 49.75 54.015625 C 49.191406 54.832031 48.4375 55.332031 47.488281 55.523438 C 46.234375 54.351562 44.894531 53.265625 43.46875 52.257812 C 42.898438 51.878906 42.398438 51.964844 41.960938 52.507812 C 43.925781 54.09375 45.097656 56.101562 45.480469 58.535156 C 45.457031 61.992188 43.78125 63.25 40.453125 62.304688 C 39.066406 60.800781 38.644531 59.042969 39.199219 57.03125 C 39.769531 55.726562 40.1875 54.386719 40.453125 53.011719 C 38.960938 53.074219 37.957031 53.828125 37.4375 55.269531 C 36.433594 55.605469 35.429688 55.605469 34.425781 55.269531 C 33.652344 53.800781 33.316406 52.207031 33.417969 50.496094 C 33.386719 44.839844 35.394531 44.003906 39.449219 47.984375 C 39.460938 44.789062 39.628906 41.605469 39.953125 38.4375 Z M 39.953125 38.4375 "/>
<path style=" stroke:none;fill-rule:evenodd;fill:rgb(94.509804%,92.941176%,92.54902%);fill-opacity:1;" d="M 89.199219 62.054688 C 90.386719 61.972656 91.558594 62.054688 92.71875 62.304688 C 93.648438 64.175781 93.148438 65.515625 91.210938 66.324219 C 86.660156 66.832031 85.988281 65.410156 89.199219 62.054688 Z M 89.199219 62.054688 "/>
<path style=" stroke:none;fill-rule:evenodd;fill:rgb(16.078431%,11.764706%,16.470588%);fill-opacity:1;" d="M 78.144531 55.019531 C 78.855469 55.890625 78.6875 56.644531 77.640625 57.28125 C 77.941406 57.515625 78.277344 57.597656 78.648438 57.53125 C 78.792969 59.183594 78.457031 60.691406 77.640625 62.054688 C 76.671875 63.378906 76.421875 64.886719 76.886719 66.578125 C 80.398438 70.578125 80.5625 74.765625 77.390625 79.136719 C 76.414062 80.003906 75.324219 80.671875 74.125 81.148438 C 73.988281 79.628906 74.40625 78.289062 75.378906 77.128906 C 76.222656 73.234375 75.46875 72.730469 73.121094 75.621094 C 72.785156 75.621094 72.449219 75.621094 72.113281 75.621094 C 71.613281 75.621094 71.109375 75.621094 70.605469 75.621094 C 71.699219 73.933594 72.371094 72.09375 72.617188 70.09375 C 71.609375 62.71875 67.421875 59.203125 60.054688 59.542969 C 60.753906 58.355469 61.757812 57.519531 63.070312 57.03125 C 64.953125 56.980469 66.628906 57.566406 68.09375 58.789062 C 70.246094 60.855469 72.089844 63.117188 73.621094 65.570312 C 74.101562 65.15625 74.601562 65.074219 75.128906 65.320312 C 74.519531 65.769531 74.519531 66.1875 75.128906 66.578125 C 75.761719 64.628906 76.433594 62.703125 77.140625 60.796875 C 76.472656 60.871094 75.886719 60.789062 75.378906 60.546875 C 75.007812 61.625 74.589844 61.707031 74.125 60.796875 C 74.460938 60.128906 74.792969 59.457031 75.128906 58.789062 C 74.523438 58.136719 74.1875 57.382812 74.125 56.527344 C 75.796875 56.769531 77.136719 56.265625 78.144531 55.019531 Z M 78.144531 55.019531 "/>
<path style=" stroke:none;fill-rule:evenodd;fill:rgb(26.666667%,21.568627%,21.568627%);fill-opacity:1;" d="M 31.410156 57.53125 C 32.925781 57.449219 34.433594 57.53125 35.929688 57.785156 C 35.375 62.296875 37.300781 64.894531 41.710938 65.570312 C 46.496094 65.242188 48.421875 62.730469 47.488281 58.035156 C 47.40625 60.050781 47.492188 62.0625 47.742188 64.0625 C 47.910156 62.558594 48.074219 61.050781 48.242188 59.542969 C 51.390625 63.546875 51.136719 67.230469 47.488281 70.597656 C 48.664062 70.929688 49.835938 71.265625 51.007812 71.601562 C 50.328125 72.191406 50.410156 72.695312 51.257812 73.109375 C 52.097656 72.6875 52.179688 72.9375 51.511719 73.863281 C 52.230469 74.097656 52.816406 74.515625 53.269531 75.117188 C 53.503906 74.820312 53.585938 74.484375 53.519531 74.113281 C 54.808594 75.480469 56.316406 76.570312 58.042969 77.378906 C 61.929688 78.339844 65.785156 78.171875 69.601562 76.875 C 69.886719 76.375 70.222656 75.957031 70.605469 75.621094 C 71.109375 75.621094 71.613281 75.621094 72.113281 75.621094 C 70.164062 77.519531 67.816406 78.773438 65.078125 79.390625 C 60.890625 79.554688 56.703125 79.722656 52.515625 79.890625 C 51.84375 80.394531 51.175781 80.898438 50.503906 81.398438 C 50.785156 81.589844 50.953125 81.84375 51.007812 82.152344 C 50.671875 82.152344 50.335938 82.152344 50.003906 82.152344 C 48.996094 81.484375 47.992188 80.8125 46.988281 80.144531 C 49.796875 78.882812 51.050781 76.707031 50.757812 73.609375 C 48.789062 70.996094 46.78125 70.996094 44.726562 73.609375 C 43.410156 75.234375 42.65625 77.074219 42.464844 79.136719 C 41.03125 78.128906 39.941406 76.789062 39.199219 75.117188 C 36.019531 69.441406 33.425781 63.578125 31.410156 57.53125 Z M 31.410156 57.53125 "/>
<path style=" stroke:none;fill-rule:evenodd;fill:rgb(97.254902%,62.745098%,25.490196%);fill-opacity:1;" d="M 10.804688 58.535156 C 11.976562 58.535156 13.148438 58.535156 14.324219 58.535156 C 14.945312 58.691406 14.945312 58.945312 14.324219 59.289062 C 16.6875 59.480469 19.035156 59.8125 21.359375 60.296875 C 21.777344 60.714844 22.195312 61.132812 22.613281 61.550781 C 22.414062 63.035156 22.164062 64.542969 21.859375 66.074219 C 20.976562 68.546875 19.300781 70.308594 16.835938 71.351562 C 18.464844 71.394531 19.972656 70.972656 21.359375 70.09375 C 22.390625 70.042969 23.226562 70.378906 23.871094 71.097656 C 22.25 71.40625 20.746094 71.992188 19.347656 72.855469 C 17.027344 73.300781 14.847656 72.964844 12.816406 71.851562 C 13.332031 70.914062 13.832031 69.992188 14.324219 69.089844 C 16.097656 68.410156 17.6875 67.402344 19.097656 66.074219 C 20.375 63.765625 19.953125 61.839844 17.839844 60.296875 C 15.257812 60.277344 12.914062 59.691406 10.804688 58.535156 Z M 10.804688 58.535156 "/>
<path style=" stroke:none;fill-rule:evenodd;fill:rgb(13.333333%,9.803922%,15.294118%);fill-opacity:1;" d="M 27.386719 41.957031 C 27.160156 45.230469 27.410156 48.410156 28.140625 51.503906 C 28.988281 50.816406 29.070312 50.0625 28.394531 49.242188 C 29.917969 48.152344 30.753906 46.730469 30.90625 44.96875 C 30.742188 49.25 30.910156 53.4375 31.410156 57.53125 C 33.425781 63.578125 36.019531 69.441406 39.199219 75.117188 C 39.941406 76.789062 41.03125 78.128906 42.464844 79.136719 C 43.84375 79.953125 45.351562 80.289062 46.988281 80.144531 C 47.992188 80.8125 48.996094 81.484375 50.003906 82.152344 C 49.5 82.152344 48.996094 82.152344 48.496094 82.152344 C 41.460938 82.613281 36.015625 79.933594 32.164062 74.113281 C 27.605469 63.777344 26.011719 53.058594 27.386719 41.957031 Z M 27.386719 41.957031 "/>
<path style=" stroke:none;fill-rule:evenodd;fill:rgb(92.156863%,50.196078%,20.392157%);fill-opacity:1;" d="M 23.367188 68.585938 C 25.46875 68.902344 26.472656 70.160156 26.382812 72.355469 C 26.1875 73.269531 26.019531 74.191406 25.878906 75.117188 C 26.234375 76.140625 26.570312 77.144531 26.886719 78.132812 C 26.101562 80.089844 24.929688 81.761719 23.367188 83.15625 C 23.03125 83.492188 22.699219 83.828125 22.363281 84.164062 C 21.039062 83.699219 20.707031 82.859375 21.359375 81.648438 C 24.796875 79.648438 26.050781 76.632812 25.125 72.605469 C 24.9375 71.882812 24.519531 71.378906 23.871094 71.097656 C 23.226562 70.378906 22.390625 70.042969 21.359375 70.09375 C 21.742188 69.207031 22.410156 68.707031 23.367188 68.585938 Z M 23.367188 68.585938 "/>
<use xlink:href="#surface8" mask="url(#mask1)"/>
<path style=" stroke:none;fill-rule:evenodd;fill:rgb(80.392157%,40%,20.392157%);fill-opacity:1;" d="M 26.886719 78.132812 C 26.570312 77.144531 26.234375 76.140625 25.878906 75.117188 C 26.019531 74.191406 26.1875 73.269531 26.382812 72.355469 C 26.472656 70.160156 25.46875 68.902344 23.367188 68.585938 C 23.628906 67.730469 24.128906 67.0625 24.875 66.578125 C 27.953125 70.078125 28.621094 73.929688 26.886719 78.132812 Z M 26.886719 78.132812 "/>
<path style=" stroke:none;fill-rule:evenodd;fill:rgb(66.666667%,58.823529%,40.784314%);fill-opacity:1;" d="M 46.988281 80.144531 C 45.351562 80.289062 43.84375 79.953125 42.464844 79.136719 C 42.65625 77.074219 43.410156 75.234375 44.726562 73.609375 C 46.78125 70.996094 48.789062 70.996094 50.757812 73.609375 C 51.050781 76.707031 49.796875 78.882812 46.988281 80.144531 Z M 46.988281 80.144531 "/>
<path style=" stroke:none;fill-rule:evenodd;fill:rgb(34.509804%,27.843137%,23.921569%);fill-opacity:1;" d="M 74.125 81.148438 C 73.789062 81.148438 73.453125 81.148438 73.121094 81.148438 C 73.765625 79.253906 73.765625 77.410156 73.121094 75.621094 C 75.46875 72.730469 76.222656 73.234375 75.378906 77.128906 C 74.40625 78.289062 73.988281 79.628906 74.125 81.148438 Z M 74.125 81.148438 "/>
<path style=" stroke:none;fill-rule:evenodd;fill:rgb(98.431373%,80%,42.352941%);fill-opacity:1;" d="M 4.773438 58.535156 C 6.015625 61.410156 6.015625 64.339844 4.773438 67.328125 C 5.300781 67.578125 5.804688 67.492188 6.28125 67.078125 C 8.613281 68.914062 11.296875 69.582031 14.324219 69.089844 C 13.832031 69.992188 13.332031 70.914062 12.816406 71.851562 C 14.847656 72.964844 17.027344 73.300781 19.347656 72.855469 C 20.746094 71.992188 22.25 71.40625 23.871094 71.097656 C 24.519531 71.378906 24.9375 71.882812 25.125 72.605469 C 26.050781 76.632812 24.796875 79.648438 21.359375 81.648438 C 20.855469 81.648438 20.351562 81.648438 19.851562 81.648438 C 19.929688 82.339844 19.84375 83.011719 19.597656 83.660156 C 19.03125 83.105469 18.613281 83.273438 18.34375 84.164062 C 19.230469 84.824219 19.398438 85.578125 18.84375 86.421875 C 20.519531 87.429688 22.195312 88.433594 23.871094 89.4375 C 24.207031 89.933594 24.207031 90.519531 23.871094 91.195312 C 22.746094 89.996094 21.40625 89.074219 19.851562 88.433594 C 18.617188 87.222656 17.695312 85.800781 17.085938 84.164062 C 14.359375 82.945312 12.519531 80.9375 11.558594 78.132812 C 11.355469 76.238281 10.9375 74.394531 10.300781 72.605469 C 8.585938 71.371094 6.828125 70.199219 5.023438 69.089844 C 4.394531 68.078125 3.976562 66.988281 3.769531 65.824219 C 4.496094 63.445312 4.832031 61.019531 4.773438 58.535156 Z M 4.773438 58.535156 "/>
<path style=" stroke:none;fill-rule:evenodd;fill:rgb(79.607843%,39.215686%,18.431373%);fill-opacity:1;" d="M 34.925781 84.664062 C 33.917969 81.980469 32.074219 80.140625 29.398438 79.136719 C 29.390625 78.140625 29.894531 77.636719 30.90625 77.628906 C 34.382812 78.902344 35.722656 81.246094 34.925781 84.664062 Z M 34.925781 84.664062 "/>
<path style=" stroke:none;fill-rule:evenodd;fill:rgb(67.45098%,57.254902%,42.352941%);fill-opacity:1;" d="M 72.113281 75.621094 C 72.449219 75.621094 72.785156 75.621094 73.121094 75.621094 C 73.765625 77.410156 73.765625 79.253906 73.121094 81.148438 C 72.484375 81.445312 71.8125 81.695312 71.109375 81.902344 C 64.410156 82.152344 57.710938 82.238281 51.007812 82.152344 C 50.953125 81.84375 50.785156 81.589844 50.503906 81.398438 C 51.175781 80.898438 51.84375 80.394531 52.515625 79.890625 C 56.703125 79.722656 60.890625 79.554688 65.078125 79.390625 C 67.816406 78.773438 70.164062 77.519531 72.113281 75.621094 Z M 72.113281 75.621094 "/>
<path style=" stroke:none;fill-rule:evenodd;fill:rgb(5.098039%,4.705882%,6.666667%);fill-opacity:1;" d="M 77.640625 62.054688 C 77.683594 62.773438 77.515625 63.441406 77.140625 64.0625 C 77.839844 65.421875 78.761719 66.59375 79.902344 67.582031 C 80.96875 66.597656 82.226562 66.347656 83.671875 66.828125 C 82.21875 67.277344 81.046875 68.113281 80.15625 69.339844 C 80.832031 69.726562 81.25 70.3125 81.410156 71.097656 C 81.550781 70.636719 81.800781 70.304688 82.164062 70.09375 C 82.164062 70.597656 82.164062 71.097656 82.164062 71.601562 C 84.441406 71.761719 86.621094 71.59375 88.699219 71.097656 C 89.386719 70.136719 89.886719 69.046875 90.207031 67.832031 C 91.839844 67.730469 93.347656 67.3125 94.726562 66.578125 C 93.949219 67.890625 92.777344 68.558594 91.210938 68.585938 C 91.40625 70.308594 91.074219 71.902344 90.207031 73.359375 C 87.589844 74.0625 84.910156 74.3125 82.164062 74.113281 C 81.40625 78.484375 79.0625 81.664062 75.128906 83.660156 C 74.15625 89.492188 70.804688 93.007812 65.078125 94.210938 C 64.484375 93.425781 63.648438 93.003906 62.566406 92.957031 C 64.082031 92.890625 65.589844 92.890625 67.089844 92.957031 C 67.257812 92.789062 67.425781 92.621094 67.589844 92.453125 C 66.808594 92.347656 66.136719 92.097656 65.582031 91.699219 C 69 90.703125 68.914062 90.03125 65.328125 89.691406 C 63.675781 88.734375 63.761719 88.148438 65.582031 87.929688 C 65.960938 87.171875 66.464844 86.5 67.089844 85.921875 C 63.597656 85.304688 60.082031 85.050781 56.535156 85.167969 C 55.5625 84.785156 54.640625 84.285156 53.773438 83.660156 C 52.90625 83.714844 52.824219 83.96875 53.519531 84.414062 C 51.84375 84.75 50.171875 84.75 48.496094 84.414062 C 48.828125 84.246094 49.164062 84.078125 49.5 83.910156 C 48.617188 83.808594 47.78125 83.558594 46.988281 83.15625 C 47.632812 83.402344 48.132812 83.066406 48.496094 82.152344 C 48.996094 82.152344 49.5 82.152344 50.003906 82.152344 C 50.335938 82.152344 50.671875 82.152344 51.007812 82.152344 C 57.710938 82.238281 64.410156 82.152344 71.109375 81.902344 C 71.8125 81.695312 72.484375 81.445312 73.121094 81.148438 C 73.453125 81.148438 73.789062 81.148438 74.125 81.148438 C 75.324219 80.671875 76.414062 80.003906 77.390625 79.136719 C 80.5625 74.765625 80.398438 70.578125 76.886719 66.578125 C 76.421875 64.886719 76.671875 63.378906 77.640625 62.054688 Z M 77.640625 62.054688 "/>
<path style=" stroke:none;fill-rule:evenodd;fill:rgb(78.431373%,72.941176%,70.588235%);fill-opacity:1;" d="M 88.699219 71.097656 C 86.621094 71.59375 84.441406 71.761719 82.164062 71.601562 C 82.164062 71.097656 82.164062 70.597656 82.164062 70.09375 C 82.164062 69.589844 82.164062 69.089844 82.164062 68.585938 C 84.0625 68.46875 85.902344 68.71875 87.691406 69.339844 C 88.433594 69.695312 88.769531 70.28125 88.699219 71.097656 Z M 88.699219 71.097656 "/>
<path style=" stroke:none;fill-rule:evenodd;fill:rgb(99.215686%,81.960784%,41.176471%);fill-opacity:1;" d="M 21.359375 81.648438 C 20.707031 82.859375 21.039062 83.699219 22.363281 84.164062 C 24.109375 84.574219 25.953125 84.828125 27.890625 84.917969 C 31.148438 86.292969 31.648438 88.304688 29.398438 90.945312 C 30.679688 90.859375 31.769531 90.273438 32.664062 89.1875 C 33.1875 89.5625 33.4375 90.0625 33.417969 90.695312 C 33.316406 91.46875 32.980469 92.140625 32.414062 92.703125 C 32.664062 92.871094 32.917969 93.039062 33.167969 93.207031 C 34.332031 92.460938 35.421875 91.625 36.433594 90.695312 C 37.859375 89.6875 39.03125 88.433594 39.953125 86.925781 C 40.703125 86.671875 41.289062 86.921875 41.710938 87.679688 C 42.304688 90.820312 41.71875 93.667969 39.953125 96.222656 C 37.804688 96.804688 35.625 97.054688 33.417969 96.976562 C 30.261719 95.003906 27.078125 93.078125 23.871094 91.195312 C 24.207031 90.519531 24.207031 89.933594 23.871094 89.4375 C 22.195312 88.433594 20.519531 87.429688 18.84375 86.421875 C 19.398438 85.578125 19.230469 84.824219 18.34375 84.164062 C 18.613281 83.273438 19.03125 83.105469 19.597656 83.660156 C 19.84375 83.011719 19.929688 82.339844 19.851562 81.648438 C 20.351562 81.648438 20.855469 81.648438 21.359375 81.648438 Z M 21.359375 81.648438 "/>
<path style=" stroke:none;fill-rule:evenodd;fill:rgb(99.607843%,69.411765%,30.980392%);fill-opacity:1;" d="M 29.398438 79.136719 C 32.074219 80.140625 33.917969 81.980469 34.925781 84.664062 C 34.589844 86.339844 34.257812 88.015625 33.921875 89.691406 C 34.007812 90.1875 33.839844 90.523438 33.417969 90.695312 C 33.4375 90.0625 33.1875 89.5625 32.664062 89.1875 C 31.769531 90.273438 30.679688 90.859375 29.398438 90.945312 C 31.648438 88.304688 31.148438 86.292969 27.890625 84.917969 C 25.953125 84.828125 24.109375 84.574219 22.363281 84.164062 C 22.699219 83.828125 23.03125 83.492188 23.367188 83.15625 C 25.710938 82.320312 27.71875 80.980469 29.398438 79.136719 Z M 29.398438 79.136719 "/>
<path style=" stroke:none;fill-rule:evenodd;fill:rgb(87.45098%,44.705882%,21.176471%);fill-opacity:1;" d="M 55.53125 90.695312 C 54.371094 90.445312 53.199219 90.28125 52.011719 90.191406 C 49.792969 90.464844 47.78125 91.300781 45.980469 92.703125 C 46.148438 92.035156 46.316406 91.363281 46.484375 90.695312 C 46.339844 88.882812 46.507812 87.125 46.988281 85.417969 C 49.328125 85.167969 51.671875 85.085938 54.023438 85.167969 C 54.21875 87.097656 54.722656 88.941406 55.53125 90.695312 Z M 55.53125 90.695312 "/>
<path style=" stroke:none;fill-rule:evenodd;fill:rgb(20.784314%,18.039216%,19.215686%);fill-opacity:1;" d="M 56.535156 85.167969 C 60.082031 85.050781 63.597656 85.304688 67.089844 85.921875 C 66.464844 86.5 65.960938 87.171875 65.582031 87.929688 C 63.761719 88.148438 63.675781 88.734375 65.328125 89.691406 C 68.914062 90.03125 69 90.703125 65.582031 91.699219 C 65.101562 91.222656 64.601562 90.71875 64.074219 90.191406 C 61.476562 89.664062 59.132812 88.660156 57.039062 87.175781 C 56.570312 86.640625 56.402344 85.972656 56.535156 85.167969 Z M 56.535156 85.167969 "/>
<path style=" stroke:none;fill-rule:evenodd;fill:rgb(81.960784%,43.137255%,18.431373%);fill-opacity:1;" d="M 44.476562 84.664062 C 44.476562 85.671875 44.476562 86.675781 44.476562 87.679688 C 43.050781 85.867188 41.207031 85.363281 38.945312 86.171875 C 38.285156 87.085938 37.53125 87.921875 36.683594 88.683594 C 36.4375 89.335938 36.355469 90.003906 36.433594 90.695312 C 35.421875 91.625 34.332031 92.460938 33.167969 93.207031 C 32.917969 93.039062 32.664062 92.871094 32.414062 92.703125 C 32.980469 92.140625 33.316406 91.46875 33.417969 90.695312 C 33.839844 90.523438 34.007812 90.1875 33.921875 89.691406 C 35.0625 87.5 36.402344 85.40625 37.941406 83.410156 C 40.1875 83.425781 42.363281 83.84375 44.476562 84.664062 Z M 44.476562 84.664062 "/>
<path style=" stroke:none;fill-rule:evenodd;fill:rgb(98.823529%,66.666667%,27.45098%);fill-opacity:1;" d="M 44.476562 87.679688 C 45.039062 90.710938 44.203125 93.222656 41.960938 95.214844 C 41.292969 95.550781 40.621094 95.886719 39.953125 96.222656 C 41.71875 93.667969 42.304688 90.820312 41.710938 87.679688 C 41.289062 86.921875 40.703125 86.671875 39.953125 86.925781 C 39.03125 88.433594 37.859375 89.6875 36.433594 90.695312 C 36.355469 90.003906 36.4375 89.335938 36.683594 88.683594 C 37.53125 87.921875 38.285156 87.085938 38.945312 86.171875 C 41.207031 85.363281 43.050781 85.867188 44.476562 87.679688 Z M 44.476562 87.679688 "/>
<path style=" stroke:none;fill-rule:evenodd;fill:rgb(45.098039%,37.647059%,32.54902%);fill-opacity:1;" d="M 57.039062 87.175781 C 59.132812 88.660156 61.476562 89.664062 64.074219 90.191406 C 64.601562 90.71875 65.101562 91.222656 65.582031 91.699219 C 64.222656 92.308594 62.882812 92.308594 61.5625 91.699219 C 59.03125 91.179688 57.523438 89.671875 57.039062 87.175781 Z M 57.039062 87.175781 "/>
<path style=" stroke:none;fill-rule:evenodd;fill:rgb(21.960784%,6.27451%,5.098039%);fill-opacity:1;" d="M 44.476562 84.664062 C 44.886719 86.410156 45.140625 88.253906 45.226562 90.191406 C 45.566406 90.570312 45.984375 90.738281 46.484375 90.695312 C 46.316406 91.363281 46.148438 92.035156 45.980469 92.703125 C 45.160156 93.863281 44.152344 94.867188 42.96875 95.71875 C 42.796875 95.296875 42.460938 95.128906 41.960938 95.214844 C 44.203125 93.222656 45.039062 90.710938 44.476562 87.679688 C 44.476562 86.675781 44.476562 85.671875 44.476562 84.664062 Z M 44.476562 84.664062 "/>
<path style=" stroke:none;fill-rule:evenodd;fill:rgb(95.294118%,55.294118%,19.215686%);fill-opacity:1;" d="M 52.011719 90.191406 C 53.199219 90.28125 54.371094 90.445312 55.53125 90.695312 C 57.261719 92.050781 58.9375 93.390625 60.554688 94.714844 C 60.308594 95.878906 59.804688 96.882812 59.046875 97.730469 C 56.222656 95.742188 53.878906 93.226562 52.011719 90.191406 Z M 52.011719 90.191406 "/>
<path style=" stroke:none;fill-rule:evenodd;fill:rgb(98.431373%,72.941176%,34.901961%);fill-opacity:1;" d="M 52.011719 90.191406 C 53.878906 93.226562 56.222656 95.742188 59.046875 97.730469 C 59.0625 98.230469 58.8125 98.566406 58.292969 98.734375 C 56.132812 97.320312 53.789062 96.3125 51.257812 95.71875 C 48.6875 96.960938 46.089844 98.136719 43.46875 99.238281 C 40.332031 98.492188 40.164062 97.316406 42.96875 95.71875 C 44.152344 94.867188 45.160156 93.863281 45.980469 92.703125 C 47.78125 91.300781 49.792969 90.464844 52.011719 90.191406 Z M 52.011719 90.191406 "/>
<path style=" stroke:none;fill-rule:evenodd;fill:rgb(4.313725%,3.137255%,3.921569%);fill-opacity:1;" d="M 2.261719 52.507812 C 3.089844 54.480469 3.925781 56.488281 4.773438 58.535156 C 4.832031 61.019531 4.496094 63.445312 3.769531 65.824219 C 3.976562 66.988281 4.394531 68.078125 5.023438 69.089844 C 6.828125 70.199219 8.585938 71.371094 10.300781 72.605469 C 10.9375 74.394531 11.355469 76.238281 11.558594 78.132812 C 12.519531 80.9375 14.359375 82.945312 17.085938 84.164062 C 17.695312 85.800781 18.617188 87.222656 19.851562 88.433594 C 21.40625 89.074219 22.746094 89.996094 23.871094 91.195312 C 27.078125 93.078125 30.261719 95.003906 33.417969 96.976562 C 35.625 97.054688 37.804688 96.804688 39.953125 96.222656 C 40.621094 95.886719 41.292969 95.550781 41.960938 95.214844 C 42.460938 95.128906 42.796875 95.296875 42.96875 95.71875 C 40.164062 97.316406 40.332031 98.492188 43.46875 99.238281 C 46.089844 98.136719 48.6875 96.960938 51.257812 95.71875 C 53.789062 96.3125 56.132812 97.320312 58.292969 98.734375 C 58.8125 98.566406 59.0625 98.230469 59.046875 97.730469 C 59.804688 96.882812 60.308594 95.878906 60.554688 94.714844 C 60.933594 94.195312 61.265625 93.609375 61.5625 92.957031 C 61.226562 92.789062 60.890625 92.621094 60.554688 92.453125 C 61.015625 92.3125 61.351562 92.0625 61.5625 91.699219 C 62.882812 92.308594 64.222656 92.308594 65.582031 91.699219 C 66.136719 92.097656 66.808594 92.347656 67.589844 92.453125 C 67.425781 92.621094 67.257812 92.789062 67.089844 92.957031 C 65.589844 92.890625 64.082031 92.890625 62.566406 92.957031 C 63.648438 93.003906 64.484375 93.425781 65.078125 94.210938 C 64.410156 94.210938 63.738281 94.210938 63.070312 94.210938 C 62.683594 96.429688 61.847656 98.4375 60.554688 100.242188 C 59.898438 100.570312 59.230469 100.90625 58.546875 101.246094 C 56.492188 99.757812 54.230469 98.753906 51.761719 98.230469 C 49.148438 99.078125 46.71875 100.25 44.476562 101.75 C 43.804688 101.75 43.132812 101.75 42.464844 101.75 C 41.109375 101.15625 39.9375 100.234375 38.945312 98.984375 C 36.785156 99.167969 34.609375 99.167969 32.414062 98.984375 C 30.042969 96.960938 27.363281 95.453125 24.375 94.464844 C 18.621094 90.640625 13.761719 85.867188 9.800781 80.144531 C 9.222656 78.175781 8.804688 76.164062 8.542969 74.113281 C 7.90625 73.417969 7.152344 72.914062 6.28125 72.605469 C 4.269531 71.679688 2.84375 70.171875 2.011719 68.082031 C 1.832031 65.542969 2.082031 63.03125 2.765625 60.546875 C 1.628906 57.378906 0.625 54.195312 -0.25 51 C -0.25 49.828125 -0.25 48.65625 -0.25 47.484375 C -0.0820312 47.484375 0.0820312 47.484375 0.25 47.484375 C 0.476562 49.324219 0.730469 51.164062 1.003906 53.011719 C 1.171875 51 1.339844 48.988281 1.507812 46.980469 C 1.597656 48.917969 1.847656 50.761719 2.261719 52.507812 Z M 2.261719 52.507812 "/>
</g>
</svg>
