<?xml version="1.0" encoding="UTF-8"?>
<!DOCTYPE svg PUBLIC "-//W3C//DTD SVG 1.1//EN" "http://www.w3.org/Graphics/SVG/1.1/DTD/svg11.dtd">
<svg xmlns="http://www.w3.org/2000/svg" version="1.1" width="87px" height="76px" style="shape-rendering:geometricPrecision; text-rendering:geometricPrecision; image-rendering:optimizeQuality; fill-rule:evenodd; clip-rule:evenodd" xmlns:xlink="http://www.w3.org/1999/xlink">
<g><path style="opacity:1" fill="#201f25" d="M 37.5,-0.5 C 40.5,-0.5 43.5,-0.5 46.5,-0.5C 50.1366,3.59954 54.8033,5.76621 60.5,6C 63.564,8.20722 65.564,11.0406 66.5,14.5C 69.0588,14.3896 71.3921,15.0562 73.5,16.5C 77.2178,22.7972 81.5511,28.4638 86.5,33.5C 86.5,36.5 86.5,39.5 86.5,42.5C 86.1667,42.5 85.8333,42.5 85.5,42.5C 84.8333,42.5 84.1667,42.5 83.5,42.5C 83.665,39.1501 83.4983,35.8168 83,32.5C 81.8378,30.1616 80.0044,28.8283 77.5,28.5C 76.9181,27.0689 76.0848,25.7356 75,24.5C 74.3292,23.7476 73.4959,23.4142 72.5,23.5C 72.5,22.1667 72.5,20.8333 72.5,19.5C 70.3021,18.8347 67.9688,18.1681 65.5,17.5C 64.2066,15.8974 63.2066,14.2307 62.5,12.5C 62.2786,11.2652 61.6119,10.2652 60.5,9.5C 57.2317,8.51298 53.8984,8.17964 50.5,8.5C 50.5198,6.85703 49.8532,5.5237 48.5,4.5C 44.2172,3.50776 39.8839,3.17443 35.5,3.5C 32.8555,5.24193 29.8555,5.90859 26.5,5.5C 26.5,4.83333 26.1667,4.5 25.5,4.5C 28.1489,2.89058 31.1489,2.05725 34.5,2C 35.5707,1.14825 36.5707,0.314913 37.5,-0.5 Z"/></g>
<g><path style="opacity:1" fill="#740896" d="M 35.5,3.5 C 39.8839,3.17443 44.2172,3.50776 48.5,4.5C 49.8532,5.5237 50.5198,6.85703 50.5,8.5C 50.5,9.16667 50.5,9.83333 50.5,10.5C 50.1667,11.1667 49.8333,11.8333 49.5,12.5C 47.4098,13.7908 46.0764,13.1242 45.5,10.5C 45.762,9.02218 45.4287,7.68884 44.5,6.5C 41.0389,6.23247 38.0389,5.23247 35.5,3.5 Z"/></g>
<g><path style="opacity:0.173" fill="#293438" d="M 25.5,4.5 C 26.1667,4.5 26.5,4.83333 26.5,5.5C 26.5,6.5 26.5,7.5 26.5,8.5C 23.5,8.83333 21.8333,10.5 21.5,13.5C 19.8212,13.2852 18.8212,13.9519 18.5,15.5C 16.9008,14.438 15.2341,14.438 13.5,15.5C 9.09175,15.062 7.42508,17.062 8.5,21.5C 7.54885,22.9187 7.21552,24.5853 7.5,26.5C 6.83333,26.5 6.16667,26.5 5.5,26.5C 5.5,25.5 5.5,24.5 5.5,23.5C 5.7751,15.3759 9.7751,11.8759 17.5,13C 19.6952,9.64058 22.3619,6.80725 25.5,4.5 Z"/></g>
<g><path style="opacity:1" fill="#640783" d="M 35.5,3.5 C 38.0389,5.23247 41.0389,6.23247 44.5,6.5C 45.4287,7.68884 45.762,9.02218 45.5,10.5C 44.7658,9.07071 43.5991,8.07071 42,7.5C 40.5603,8.14758 39.0603,8.48091 37.5,8.5C 37.5,10.1667 37.5,11.8333 37.5,13.5C 35.9891,12.4975 34.3224,11.8308 32.5,11.5C 32.5,10.5 32.5,9.5 32.5,8.5C 30.5,8.5 28.5,8.5 26.5,8.5C 26.5,7.5 26.5,6.5 26.5,5.5C 29.8555,5.90859 32.8555,5.24193 35.5,3.5 Z"/></g>
<g><path style="opacity:1" fill="#d72dd4" d="M 45.5,10.5 C 46.0764,13.1242 47.4098,13.7908 49.5,12.5C 49.7373,13.791 49.404,14.791 48.5,15.5C 45.7508,15.2739 43.0841,15.6072 40.5,16.5C 39.8589,15.0065 38.8589,14.0065 37.5,13.5C 37.5,11.8333 37.5,10.1667 37.5,8.5C 39.0603,8.48091 40.5603,8.14758 42,7.5C 43.5991,8.07071 44.7658,9.07071 45.5,10.5 Z"/></g>
<g><path style="opacity:1" fill="#7b069f" d="M 26.5,8.5 C 28.5,8.5 30.5,8.5 32.5,8.5C 32.5,9.5 32.5,10.5 32.5,11.5C 34.3224,11.8308 35.9891,12.4975 37.5,13.5C 37.5191,15.0603 37.8524,16.5603 38.5,18C 38.2926,19.9497 37.2926,21.1164 35.5,21.5C 34.1791,13.1694 29.5125,10.5027 21.5,13.5C 21.8333,10.5 23.5,8.83333 26.5,8.5 Z"/></g>
<g><path style="opacity:1" fill="#7e07a0" d="M 50.5,8.5 C 53.8984,8.17964 57.2317,8.51298 60.5,9.5C 61.6119,10.2652 62.2786,11.2652 62.5,12.5C 62.4422,15.6644 61.7755,18.6644 60.5,21.5C 60.1667,21.5 59.8333,21.5 59.5,21.5C 59.6338,17.6864 58.3005,14.6864 55.5,12.5C 54.5009,9.82586 52.8342,9.15919 50.5,10.5C 50.5,9.83333 50.5,9.16667 50.5,8.5 Z"/></g>
<g><path style="opacity:1" fill="#d52dcf" d="M 35.5,21.5 C 35.5,22.1667 35.5,22.8333 35.5,23.5C 34.5,23.5 33.5,23.5 32.5,23.5C 32.5,24.5 32.5,25.5 32.5,26.5C 30.5,26.5 28.5,26.5 26.5,26.5C 26.8212,24.9519 27.8212,24.2852 29.5,24.5C 29.5,23.1667 29.5,21.8333 29.5,20.5C 26.9963,19.3608 24.3297,18.6941 21.5,18.5C 21.5,21.1667 21.5,23.8333 21.5,26.5C 19.8212,26.7148 18.8212,26.0481 18.5,24.5C 18.5,21.8333 18.5,19.1667 18.5,16.5C 18.5,16.1667 18.5,15.8333 18.5,15.5C 18.8212,13.9519 19.8212,13.2852 21.5,13.5C 29.5125,10.5027 34.1791,13.1694 35.5,21.5 Z"/></g>
<g><path style="opacity:1" fill="#188d55" d="M 13.5,15.5 C 13.5,15.8333 13.5,16.1667 13.5,16.5C 12.5,16.5 11.5,16.5 10.5,16.5C 10.9227,18.7812 10.256,20.4479 8.5,21.5C 7.42508,17.062 9.09175,15.062 13.5,15.5 Z"/></g>
<g><path style="opacity:1" fill="#03040f" d="M 18.5,16.5 C 18.5,19.1667 18.5,21.8333 18.5,24.5C 17.2521,23.6661 16.5854,22.3328 16.5,20.5C 16.5854,18.6672 17.2521,17.3339 18.5,16.5 Z"/></g>
<g><path style="opacity:1" fill="#10081b" d="M 37.5,13.5 C 38.8589,14.0065 39.8589,15.0065 40.5,16.5C 43.0841,15.6072 45.7508,15.2739 48.5,15.5C 49.5511,16.2223 50.2178,17.2223 50.5,18.5C 49.6236,18.3691 48.9569,18.7025 48.5,19.5C 51.5609,20.8095 52.8942,23.1429 52.5,26.5C 50.9519,26.8212 50.2852,27.8212 50.5,29.5C 49.8333,29.5 49.1667,29.5 48.5,29.5C 45.9387,30.7671 43.272,30.7671 40.5,29.5C 38.5923,28.5144 37.5923,26.8477 37.5,24.5C 37.1583,23.6618 36.4916,23.3284 35.5,23.5C 35.5,22.8333 35.5,22.1667 35.5,21.5C 37.2926,21.1164 38.2926,19.9497 38.5,18C 37.8524,16.5603 37.5191,15.0603 37.5,13.5 Z"/></g>
<g><path style="opacity:1" fill="#d12cd1" d="M 55.5,12.5 C 58.3005,14.6864 59.6338,17.6864 59.5,21.5C 57.8372,23.4385 57.1706,25.7718 57.5,28.5C 56.3146,29.8566 55.3146,31.3566 54.5,33C 54.7432,33.9021 55.0766,34.7354 55.5,35.5C 55.1667,35.5 54.8333,35.5 54.5,35.5C 53.8333,35.5 53.5,35.1667 53.5,34.5C 52.4479,32.744 50.7812,32.0773 48.5,32.5C 45.5234,32.0984 42.8567,31.0984 40.5,29.5C 43.272,30.7671 45.9387,30.7671 48.5,29.5C 49.1667,29.5 49.8333,29.5 50.5,29.5C 51.8845,30.8009 53.3845,30.8009 55,29.5C 55.4994,23.8431 55.6661,18.1764 55.5,12.5 Z"/></g>
<g><path style="opacity:1" fill="#41075c" d="M 62.5,12.5 C 63.2066,14.2307 64.2066,15.8974 65.5,17.5C 67.9688,18.1681 70.3021,18.8347 72.5,19.5C 68.2584,19.1505 64.2584,19.8172 60.5,21.5C 61.7755,18.6644 62.4422,15.6644 62.5,12.5 Z"/></g>
<g><path style="opacity:1" fill="#fbf6f9" d="M 26.5,26.5 C 25.8333,26.5 25.1667,26.5 24.5,26.5C 23.5,26.5 22.5,26.5 21.5,26.5C 21.5,23.8333 21.5,21.1667 21.5,18.5C 24.3297,18.6941 26.9963,19.3608 29.5,20.5C 29.5,21.8333 29.5,23.1667 29.5,24.5C 27.8212,24.2852 26.8212,24.9519 26.5,26.5 Z"/></g>
<g><path style="opacity:1" fill="#efefef" d="M 41.5,20.5 C 46.394,21.5396 46.7274,23.5396 42.5,26.5C 40.261,24.8669 39.9277,22.8669 41.5,20.5 Z"/></g>
<g><path style="opacity:1" fill="#8ce81b" d="M 13.5,16.5 C 13.2322,18.099 13.5655,19.4324 14.5,20.5C 14.6641,23.1873 14.4974,25.854 14,28.5C 13.2904,29.9733 12.1238,30.6399 10.5,30.5C 10.5,29.1667 10.5,27.8333 10.5,26.5C 9.5,26.5 8.5,26.5 7.5,26.5C 7.21552,24.5853 7.54885,22.9187 8.5,21.5C 10.256,20.4479 10.9227,18.7812 10.5,16.5C 11.5,16.5 12.5,16.5 13.5,16.5 Z"/></g>
<g><path style="opacity:1" fill="#c6698d" d="M 50.5,18.5 C 51.5,18.5 52.5,18.5 53.5,18.5C 53.8064,21.3854 53.4731,24.0521 52.5,26.5C 52.8942,23.1429 51.5609,20.8095 48.5,19.5C 48.9569,18.7025 49.6236,18.3691 50.5,18.5 Z"/></g>
<g><path style="opacity:1" fill="#e3e5e6" d="M 48.5,29.5 C 43.6604,28.8115 43.3271,27.1448 47.5,24.5C 49.7043,25.782 50.0376,27.4486 48.5,29.5 Z"/></g>
<g><path style="opacity:1" fill="#1f6784" d="M 18.5,15.5 C 18.5,15.8333 18.5,16.1667 18.5,16.5C 17.2521,17.3339 16.5854,18.6672 16.5,20.5C 16.5854,22.3328 17.2521,23.6661 18.5,24.5C 18.8212,26.0481 19.8212,26.7148 21.5,26.5C 22.5,26.5 23.5,26.5 24.5,26.5C 24.5,27.1667 24.5,27.8333 24.5,28.5C 24.5,29.8333 24.5,31.1667 24.5,32.5C 24.1667,32.5 23.8333,32.5 23.5,32.5C 23.8432,30.5168 23.1765,29.1834 21.5,28.5C 19.8333,28.5 18.1667,28.5 16.5,28.5C 15.8333,25.8333 15.1667,23.1667 14.5,20.5C 13.5655,19.4324 13.2322,18.099 13.5,16.5C 13.5,16.1667 13.5,15.8333 13.5,15.5C 15.2341,14.438 16.9008,14.438 18.5,15.5 Z"/></g>
<g><path style="opacity:1" fill="#4a075f" d="M 35.5,23.5 C 36.4916,23.3284 37.1583,23.6618 37.5,24.5C 35.9217,25.0656 34.5884,26.0656 33.5,27.5C 34.6888,28.4287 36.0222,28.762 37.5,28.5C 37.5,30.1667 37.5,31.8333 37.5,33.5C 36.8333,33.5 36.1667,33.5 35.5,33.5C 35.1788,31.9519 34.1788,31.2852 32.5,31.5C 32.5,30.5 32.5,29.5 32.5,28.5C 29.8333,28.5 27.1667,28.5 24.5,28.5C 24.5,27.8333 24.5,27.1667 24.5,26.5C 25.1667,26.5 25.8333,26.5 26.5,26.5C 28.5,26.5 30.5,26.5 32.5,26.5C 32.5,25.5 32.5,24.5 32.5,23.5C 33.5,23.5 34.5,23.5 35.5,23.5 Z"/></g>
<g><path style="opacity:1" fill="#fb2878" d="M 55.5,12.5 C 55.6661,18.1764 55.4994,23.8431 55,29.5C 53.3845,30.8009 51.8845,30.8009 50.5,29.5C 50.2852,27.8212 50.9519,26.8212 52.5,26.5C 53.4731,24.0521 53.8064,21.3854 53.5,18.5C 52.5,18.5 51.5,18.5 50.5,18.5C 50.2178,17.2223 49.5511,16.2223 48.5,15.5C 49.404,14.791 49.7373,13.791 49.5,12.5C 49.8333,11.8333 50.1667,11.1667 50.5,10.5C 52.8342,9.15919 54.5009,9.82586 55.5,12.5 Z"/></g>
<g><path style="opacity:1" fill="#8e12a1" d="M 72.5,19.5 C 72.5,20.8333 72.5,22.1667 72.5,23.5C 70.9016,25.8567 69.9016,28.5234 69.5,31.5C 69.7261,28.7508 69.3928,26.0841 68.5,23.5C 66.3635,22.2072 64.3635,22.2072 62.5,23.5C 62.5,26.1667 62.5,28.8333 62.5,31.5C 62.5,32.1667 62.5,32.8333 62.5,33.5C 61.325,33.719 60.325,33.3857 59.5,32.5C 59.0057,30.9745 58.339,29.6412 57.5,28.5C 57.1706,25.7718 57.8372,23.4385 59.5,21.5C 59.8333,21.5 60.1667,21.5 60.5,21.5C 64.2584,19.8172 68.2584,19.1505 72.5,19.5 Z"/></g>
<g><path style="opacity:1" fill="#fde9f8" d="M 62.5,23.5 C 63.5,23.5 64.5,23.5 65.5,23.5C 66.64,26.0248 67.3067,28.6915 67.5,31.5C 65.8333,31.5 64.1667,31.5 62.5,31.5C 62.5,28.8333 62.5,26.1667 62.5,23.5 Z"/></g>
<g><path style="opacity:1" fill="#e429d9" d="M 62.5,23.5 C 64.3635,22.2072 66.3635,22.2072 68.5,23.5C 69.3928,26.0841 69.7261,28.7508 69.5,31.5C 69.5,32.1667 69.5,32.8333 69.5,33.5C 67.1667,33.5 64.8333,33.5 62.5,33.5C 62.5,32.8333 62.5,32.1667 62.5,31.5C 64.1667,31.5 65.8333,31.5 67.5,31.5C 67.3067,28.6915 66.64,26.0248 65.5,23.5C 64.5,23.5 63.5,23.5 62.5,23.5 Z"/></g>
<g><path style="opacity:1" fill="#a5cbb8" d="M 5.5,26.5 C 6.16667,26.5 6.83333,26.5 7.5,26.5C 8.5,26.5 9.5,26.5 10.5,26.5C 10.5,27.8333 10.5,29.1667 10.5,30.5C 10.5,31.1667 10.5,31.8333 10.5,32.5C 9.83333,32.5 9.16667,32.5 8.5,32.5C 8.5,31.5 8.5,30.5 8.5,29.5C 7.5,29.5 6.5,29.5 5.5,29.5C 5.5,28.5 5.5,27.5 5.5,26.5 Z"/></g>
<g><path style="opacity:1" fill="#6c058c" d="M 72.5,23.5 C 73.4959,23.4142 74.3292,23.7476 75,24.5C 76.0848,25.7356 76.9181,27.0689 77.5,28.5C 78.0906,29.1515 78.7573,29.8182 79.5,30.5C 78.3984,31.1757 77.3984,31.8423 76.5,32.5C 74.901,32.2322 73.5676,32.5655 72.5,33.5C 71.5,33.5 70.5,33.5 69.5,33.5C 69.5,32.8333 69.5,32.1667 69.5,31.5C 69.9016,28.5234 70.9016,25.8567 72.5,23.5 Z"/></g>
<g><path style="opacity:1" fill="#281e27" d="M 5.5,23.5 C 5.5,24.5 5.5,25.5 5.5,26.5C 5.5,27.5 5.5,28.5 5.5,29.5C 6.5,29.5 7.5,29.5 8.5,29.5C 8.5,30.5 8.5,31.5 8.5,32.5C 7.5,32.5 6.5,32.5 5.5,32.5C 5.63088,31.6236 5.29755,30.9569 4.5,30.5C 3.27192,34.4838 4.27192,37.8172 7.5,40.5C 4.24586,40.2064 1.57919,38.873 -0.5,36.5C -0.5,34.1667 -0.5,31.8333 -0.5,29.5C 0.533646,28.3129 1.86698,27.4796 3.5,27C 4.0848,25.6976 4.75147,24.531 5.5,23.5 Z"/></g>
<g><path style="opacity:1" fill="#18ae58" d="M 21.5,28.5 C 23.1765,29.1834 23.8432,30.5168 23.5,32.5C 21.9519,32.8212 21.2852,33.8212 21.5,35.5C 20.5,35.5 19.5,35.5 18.5,35.5C 18.5,33.8333 18.5,32.1667 18.5,30.5C 20.1788,30.7148 21.1788,30.0481 21.5,28.5 Z"/></g>
<g><path style="opacity:1" fill="#7e069f" d="M 24.5,28.5 C 27.1667,28.5 29.8333,28.5 32.5,28.5C 32.5,29.5 32.5,30.5 32.5,31.5C 34.1788,31.2852 35.1788,31.9519 35.5,33.5C 36.2748,35.9908 36.2748,38.6574 35.5,41.5C 35.8799,39.302 35.2132,37.6354 33.5,36.5C 31.7795,32.8263 28.7795,31.4929 24.5,32.5C 24.5,31.1667 24.5,29.8333 24.5,28.5 Z"/></g>
<g><path style="opacity:1" fill="#1ca566" d="M 14.5,20.5 C 15.1667,23.1667 15.8333,25.8333 16.5,28.5C 16.5,30.8333 16.5,33.1667 16.5,35.5C 16.1667,35.5 15.8333,35.5 15.5,35.5C 15.5,34.5 15.5,33.5 15.5,32.5C 13.8333,32.5 12.1667,32.5 10.5,32.5C 10.5,31.8333 10.5,31.1667 10.5,30.5C 12.1238,30.6399 13.2904,29.9733 14,28.5C 14.4974,25.854 14.6641,23.1873 14.5,20.5 Z"/></g>
<g><path style="opacity:1" fill="#a2ec17" d="M 16.5,28.5 C 18.1667,28.5 19.8333,28.5 21.5,28.5C 21.1788,30.0481 20.1788,30.7148 18.5,30.5C 18.5,32.1667 18.5,33.8333 18.5,35.5C 17.8333,35.5 17.1667,35.5 16.5,35.5C 16.5,33.1667 16.5,30.8333 16.5,28.5 Z"/></g>
<g><path style="opacity:1" fill="#e031d7" d="M 69.5,33.5 C 70.5,33.5 71.5,33.5 72.5,33.5C 76.5172,32.8386 77.8505,34.1719 76.5,37.5C 75.1667,37.5 73.8333,37.5 72.5,37.5C 72.5,38.5 72.5,39.5 72.5,40.5C 71.5,40.5 70.5,40.5 69.5,40.5C 68.3773,38.312 68.3773,35.9787 69.5,33.5 Z"/></g>
<g><path style="opacity:1" fill="#d327d0" d="M 72.5,33.5 C 73.5676,32.5655 74.901,32.2322 76.5,32.5C 77.7942,33.2899 78.9609,34.2899 80,35.5C 80.3568,39.5104 80.1901,43.5104 79.5,47.5C 77.5168,47.8432 76.1834,47.1765 75.5,45.5C 77.8441,43.2821 78.1774,40.6154 76.5,37.5C 77.8505,34.1719 76.5172,32.8386 72.5,33.5 Z"/></g>
<g><path style="opacity:1" fill="#781142" d="M 5.5,32.5 C 6.5,32.5 7.5,32.5 8.5,32.5C 9.16667,32.5 9.83333,32.5 10.5,32.5C 10.5,33.5 10.5,34.5 10.5,35.5C 11.8333,35.5 13.1667,35.5 14.5,35.5C 14.0296,36.6935 13.0296,37.3601 11.5,37.5C 9.46493,36.7957 7.46493,36.129 5.5,35.5C 5.5,34.5 5.5,33.5 5.5,32.5 Z"/></g>
<g><path style="opacity:1" fill="#aba3bd" d="M 10.5,32.5 C 12.1667,32.5 13.8333,32.5 15.5,32.5C 15.5,33.5 15.5,34.5 15.5,35.5C 15.1667,35.5 14.8333,35.5 14.5,35.5C 13.1667,35.5 11.8333,35.5 10.5,35.5C 10.5,34.5 10.5,33.5 10.5,32.5 Z"/></g>
<g><path style="opacity:1" fill="#de31d7" d="M 23.5,32.5 C 23.8333,32.5 24.1667,32.5 24.5,32.5C 28.7795,31.4929 31.7795,32.8263 33.5,36.5C 33.631,37.2389 33.4643,37.9056 33,38.5C 32.5814,37.3279 31.9147,36.3279 31,35.5C 30.8333,35.8333 30.6667,36.1667 30.5,36.5C 31.4377,39.3 31.1043,42.3 29.5,45.5C 29.5,43.8333 29.5,42.1667 29.5,40.5C 27.2546,38.6386 24.5879,37.6386 21.5,37.5C 21.5,39.5 21.5,41.5 21.5,43.5C 20.8826,43.6107 20.3826,43.944 20,44.5C 19.7216,43.5842 19.2216,42.9175 18.5,42.5C 18.5,40.1667 18.5,37.8333 18.5,35.5C 19.5,35.5 20.5,35.5 21.5,35.5C 21.2852,33.8212 21.9519,32.8212 23.5,32.5 Z"/></g>
<g><path style="opacity:1" fill="#bc474d" d="M 5.5,32.5 C 5.5,33.5 5.5,34.5 5.5,35.5C 7.46493,36.129 9.46493,36.7957 11.5,37.5C 13.0296,37.3601 14.0296,36.6935 14.5,35.5C 14.8333,35.5 15.1667,35.5 15.5,35.5C 15.8333,35.5 16.1667,35.5 16.5,35.5C 16.5,37.1667 16.5,38.8333 16.5,40.5C 13.8333,40.5 11.1667,40.5 8.5,40.5C 8.16667,40.5 7.83333,40.5 7.5,40.5C 4.27192,37.8172 3.27192,34.4838 4.5,30.5C 5.29755,30.9569 5.63088,31.6236 5.5,32.5 Z"/></g>
<g><path style="opacity:1" fill="#dd2cd6" d="M 33.5,36.5 C 35.2132,37.6354 35.8799,39.302 35.5,41.5C 35.5,42.8333 35.5,44.1667 35.5,45.5C 33.2574,46.3123 30.9241,46.9789 28.5,47.5C 26.6672,47.4146 25.3339,46.7479 24.5,45.5C 26.1667,45.5 27.8333,45.5 29.5,45.5C 31.1043,42.3 31.4377,39.3 30.5,36.5C 30.6667,36.1667 30.8333,35.8333 31,35.5C 31.9147,36.3279 32.5814,37.3279 33,38.5C 33.4643,37.9056 33.631,37.2389 33.5,36.5 Z"/></g>
<g><path style="opacity:1" fill="#7c1291" d="M 35.5,33.5 C 36.1667,33.5 36.8333,33.5 37.5,33.5C 38.5,33.5 39.5,33.5 40.5,33.5C 40.5,36.8333 40.5,40.1667 40.5,43.5C 39.1667,43.5 38.5,44.1667 38.5,45.5C 38.5358,48.461 37.5358,50.7943 35.5,52.5C 35.6399,50.8762 34.9733,49.7096 33.5,49C 34.8228,48.1841 35.4894,47.0174 35.5,45.5C 35.5,44.1667 35.5,42.8333 35.5,41.5C 36.2748,38.6574 36.2748,35.9908 35.5,33.5 Z"/></g>
<g><path style="opacity:1" fill="#dc30d6" d="M 57.5,28.5 C 58.339,29.6412 59.0057,30.9745 59.5,32.5C 60.325,33.3857 61.325,33.719 62.5,33.5C 63.3897,35.7819 63.5564,38.1152 63,40.5C 62.5831,41.756 61.7498,42.4226 60.5,42.5C 59.596,43.209 59.2627,44.209 59.5,45.5C 58.5149,47.5061 57.1816,49.1727 55.5,50.5C 55.7858,45.1439 53.4525,43.4772 48.5,45.5C 46.3926,44.5318 44.0593,44.1984 41.5,44.5C 40.609,45.1098 39.609,45.4431 38.5,45.5C 38.5,44.1667 39.1667,43.5 40.5,43.5C 42.5,43.5 44.5,43.5 46.5,43.5C 46.5789,41.3337 47.2455,39.3337 48.5,37.5C 47.9628,36.2588 47.2961,35.0921 46.5,34C 46.5699,33.2352 46.9033,32.7352 47.5,32.5C 48.3468,34.0291 49.0135,35.6958 49.5,37.5C 49.2104,39.0441 48.5437,40.3774 47.5,41.5C 48.5,41.8333 49.5,42.1667 50.5,42.5C 52.0296,42.3601 53.0296,41.6935 53.5,40.5C 54.4959,40.5858 55.3292,40.2524 56,39.5C 56.765,37.9343 56.5983,36.6009 55.5,35.5C 55.0766,34.7354 54.7432,33.9021 54.5,33C 55.3146,31.3566 56.3146,29.8566 57.5,28.5 Z"/></g>
<g><path style="opacity:1" fill="#02000f" d="M 47.5,32.5 C 47.8333,32.5 48.1667,32.5 48.5,32.5C 50.7812,32.0773 52.4479,32.744 53.5,34.5C 52.3065,34.9704 51.6399,35.9704 51.5,37.5C 51.6399,39.0296 52.3065,40.0296 53.5,40.5C 53.0296,41.6935 52.0296,42.3601 50.5,42.5C 49.5,42.1667 48.5,41.8333 47.5,41.5C 48.5437,40.3774 49.2104,39.0441 49.5,37.5C 49.0135,35.6958 48.3468,34.0291 47.5,32.5 Z"/></g>
<g><path style="opacity:1" fill="#dd3c71" d="M 53.5,34.5 C 53.5,35.1667 53.8333,35.5 54.5,35.5C 55.7345,37.3983 55.4011,39.065 53.5,40.5C 52.3065,40.0296 51.6399,39.0296 51.5,37.5C 51.6399,35.9704 52.3065,34.9704 53.5,34.5 Z"/></g>
<g><path style="opacity:1" fill="#e832e0" d="M 37.5,24.5 C 37.5923,26.8477 38.5923,28.5144 40.5,29.5C 42.8567,31.0984 45.5234,32.0984 48.5,32.5C 48.1667,32.5 47.8333,32.5 47.5,32.5C 46.9033,32.7352 46.5699,33.2352 46.5,34C 47.2961,35.0921 47.9628,36.2588 48.5,37.5C 47.2455,39.3337 46.5789,41.3337 46.5,43.5C 44.5,43.5 42.5,43.5 40.5,43.5C 40.5,40.1667 40.5,36.8333 40.5,33.5C 39.5,33.5 38.5,33.5 37.5,33.5C 37.5,31.8333 37.5,30.1667 37.5,28.5C 36.0222,28.762 34.6888,28.4287 33.5,27.5C 34.5884,26.0656 35.9217,25.0656 37.5,24.5 Z"/></g>
<g><path style="opacity:1" fill="#fbf2f9" d="M 29.5,45.5 C 27.8333,45.5 26.1667,45.5 24.5,45.5C 23.5,45.5 22.5,45.5 21.5,45.5C 21.5,44.8333 21.5,44.1667 21.5,43.5C 21.5,41.5 21.5,39.5 21.5,37.5C 24.5879,37.6386 27.2546,38.6386 29.5,40.5C 29.5,42.1667 29.5,43.8333 29.5,45.5 Z"/></g>
<g><path style="opacity:1" fill="#f9ecf7" d="M 76.5,37.5 C 78.1774,40.6154 77.8441,43.2821 75.5,45.5C 74.5,45.5 73.5,45.5 72.5,45.5C 72.5,44.5 72.5,43.5 72.5,42.5C 71.5,42.5 70.5,42.5 69.5,42.5C 69.5,41.8333 69.5,41.1667 69.5,40.5C 70.5,40.5 71.5,40.5 72.5,40.5C 72.5,39.5 72.5,38.5 72.5,37.5C 73.8333,37.5 75.1667,37.5 76.5,37.5 Z"/></g>
<g><path style="opacity:1" fill="#670587" d="M 77.5,28.5 C 80.0044,28.8283 81.8378,30.1616 83,32.5C 83.4983,35.8168 83.665,39.1501 83.5,42.5C 81.4444,43.6223 80.1111,45.2889 79.5,47.5C 80.1901,43.5104 80.3568,39.5104 80,35.5C 78.9609,34.2899 77.7942,33.2899 76.5,32.5C 77.3984,31.8423 78.3984,31.1757 79.5,30.5C 78.7573,29.8182 78.0906,29.1515 77.5,28.5 Z"/></g>
<g><path style="opacity:1" fill="#2a0e2e" d="M 54.5,35.5 C 54.8333,35.5 55.1667,35.5 55.5,35.5C 56.5983,36.6009 56.765,37.9343 56,39.5C 55.3292,40.2524 54.4959,40.5858 53.5,40.5C 55.4011,39.065 55.7345,37.3983 54.5,35.5 Z"/></g>
<g><path style="opacity:1" fill="#530673" d="M 62.5,33.5 C 64.8333,33.5 67.1667,33.5 69.5,33.5C 68.3773,35.9787 68.3773,38.312 69.5,40.5C 69.5,41.1667 69.5,41.8333 69.5,42.5C 66.509,42.1663 64.1757,43.1663 62.5,45.5C 60.9519,45.1788 60.2852,44.1788 60.5,42.5C 61.7498,42.4226 62.5831,41.756 63,40.5C 63.5564,38.1152 63.3897,35.7819 62.5,33.5 Z"/></g>
<g><path style="opacity:1" fill="#2a5972" d="M 16.5,35.5 C 17.1667,35.5 17.8333,35.5 18.5,35.5C 18.5,37.8333 18.5,40.1667 18.5,42.5C 17.8333,42.5 17.1667,42.5 16.5,42.5C 15.8333,44.1667 15.1667,45.8333 14.5,47.5C 13.6618,47.1583 13.3284,46.4916 13.5,45.5C 11.7354,44.5386 9.73535,44.2053 7.5,44.5C 6.55104,46.7373 5.88438,49.0706 5.5,51.5C 3.84737,47.2831 5.18071,44.1164 9.5,42C 8.94404,41.6174 8.61071,41.1174 8.5,40.5C 11.1667,40.5 13.8333,40.5 16.5,40.5C 16.5,38.8333 16.5,37.1667 16.5,35.5 Z"/></g>
<g><path style="opacity:1" fill="#1f8680" d="M 18.5,42.5 C 19.2216,42.9175 19.7216,43.5842 20,44.5C 20.3826,43.944 20.8826,43.6107 21.5,43.5C 21.5,44.1667 21.5,44.8333 21.5,45.5C 21.5,46.1667 21.5,46.8333 21.5,47.5C 19.7215,46.3303 18.7215,44.6636 18.5,42.5 Z"/></g>
<g><path style="opacity:1" fill="#92ed18" d="M 16.5,42.5 C 17.1667,42.5 17.8333,42.5 18.5,42.5C 18.7215,44.6636 19.7215,46.3303 21.5,47.5C 20.4479,49.256 18.7812,49.9227 16.5,49.5C 16.5,47.1667 16.5,44.8333 16.5,42.5 Z"/></g>
<g><path style="opacity:1" fill="#090316" d="M 41.5,44.5 C 44.0593,44.1984 46.3926,44.5318 48.5,45.5C 49.1667,46.1667 49.8333,46.8333 50.5,47.5C 49.6236,47.3691 48.9569,47.7025 48.5,48.5C 50.5819,49.3656 51.9152,50.8656 52.5,53C 51.6216,54.8001 50.955,56.6334 50.5,58.5C 49.8333,58.5 49.1667,58.5 48.5,58.5C 50.2838,55.1919 49.2838,53.5253 45.5,53.5C 45.7709,51.6203 45.1042,50.287 43.5,49.5C 42.032,48.2209 41.3653,46.5542 41.5,44.5 Z"/></g>
<g><path style="opacity:1" fill="#d72ed1" d="M 60.5,42.5 C 60.2852,44.1788 60.9519,45.1788 62.5,45.5C 68.9054,45.586 71.5721,48.9194 70.5,55.5C 68.8333,55.5 67.1667,55.5 65.5,55.5C 68.1894,50.2862 66.5227,48.6195 60.5,50.5C 59.5489,49.0813 59.2155,47.4147 59.5,45.5C 59.2627,44.209 59.596,43.209 60.5,42.5 Z"/></g>
<g><path style="opacity:1" fill="#791098" d="M 69.5,42.5 C 70.5,42.5 71.5,42.5 72.5,42.5C 72.5,43.5 72.5,44.5 72.5,45.5C 72.7214,46.7348 73.3881,47.7348 74.5,48.5C 73.3304,51.1048 71.9971,53.4381 70.5,55.5C 71.5721,48.9194 68.9054,45.586 62.5,45.5C 64.1757,43.1663 66.509,42.1663 69.5,42.5 Z"/></g>
<g><path style="opacity:1" fill="#2ca45c" d="M 16.5,42.5 C 16.5,44.8333 16.5,47.1667 16.5,49.5C 18.7812,49.9227 20.4479,49.256 21.5,47.5C 23.0481,47.8212 23.7148,48.8212 23.5,50.5C 21.8333,50.5 20.1667,50.5 18.5,50.5C 17.8333,50.5 17.1667,50.5 16.5,50.5C 15.5206,53.6248 15.1872,56.9581 15.5,60.5C 13.5168,60.8432 12.1834,60.1765 11.5,58.5C 12.9311,58.1193 13.7645,57.1193 14,55.5C 14.4974,52.854 14.6641,50.1873 14.5,47.5C 15.1667,45.8333 15.8333,44.1667 16.5,42.5 Z"/></g>
<g><path style="opacity:1" fill="#470f61" d="M 21.5,45.5 C 22.5,45.5 23.5,45.5 24.5,45.5C 25.3339,46.7479 26.6672,47.4146 28.5,47.5C 30.9241,46.9789 33.2574,46.3123 35.5,45.5C 35.4894,47.0174 34.8228,48.1841 33.5,49C 34.9733,49.7096 35.6399,50.8762 35.5,52.5C 34.5,52.5 33.5,52.5 32.5,52.5C 30.0122,50.6122 27.0122,49.9455 23.5,50.5C 23.7148,48.8212 23.0481,47.8212 21.5,47.5C 21.5,46.8333 21.5,46.1667 21.5,45.5 Z"/></g>
<g><path style="opacity:0.157" fill="#2c2135" d="M 83.5,42.5 C 84.1667,42.5 84.8333,42.5 85.5,42.5C 85.2914,43.9217 84.7914,45.255 84,46.5C 79.0503,49.8822 74.8836,53.8822 71.5,58.5C 68.6558,57.4489 65.6558,57.4489 62.5,58.5C 62.5,57.5 62.5,56.5 62.5,55.5C 63.5,55.5 64.5,55.5 65.5,55.5C 67.1667,55.5 68.8333,55.5 70.5,55.5C 71.9971,53.4381 73.3304,51.1048 74.5,48.5C 73.3881,47.7348 72.7214,46.7348 72.5,45.5C 73.5,45.5 74.5,45.5 75.5,45.5C 76.1834,47.1765 77.5168,47.8432 79.5,47.5C 80.1111,45.2889 81.4444,43.6223 83.5,42.5 Z"/></g>
<g><path style="opacity:1" fill="#8de813" d="M 13.5,45.5 C 13.3284,46.4916 13.6618,47.1583 14.5,47.5C 14.6641,50.1873 14.4974,52.854 14,55.5C 13.7645,57.1193 12.9311,58.1193 11.5,58.5C 9.42476,54.5252 8.42476,50.1919 8.5,45.5C 10.1667,45.5 11.8333,45.5 13.5,45.5 Z"/></g>
<g><path style="opacity:1" fill="#e6e7e8" d="M 43.5,49.5 C 45.1042,50.287 45.7709,51.6203 45.5,53.5C 49.2838,53.5253 50.2838,55.1919 48.5,58.5C 45.6118,58.7804 44.1118,57.4471 44,54.5C 43,55.8333 42,55.8333 41,54.5C 39.9231,51.7383 40.7564,50.0717 43.5,49.5 Z"/></g>
<g><path style="opacity:1" fill="#fcf1f9" d="M 65.5,55.5 C 64.5,55.5 63.5,55.5 62.5,55.5C 62.1692,53.6776 61.5025,52.0109 60.5,50.5C 66.5227,48.6195 68.1894,50.2862 65.5,55.5 Z"/></g>
<g><path style="opacity:1" fill="#cf7e9d" d="M 50.5,47.5 C 51.5,47.5 52.5,47.5 53.5,47.5C 53.5,51.1667 53.5,54.8333 53.5,58.5C 52.5,58.5 51.5,58.5 50.5,58.5C 50.955,56.6334 51.6216,54.8001 52.5,53C 51.9152,50.8656 50.5819,49.3656 48.5,48.5C 48.9569,47.7025 49.6236,47.3691 50.5,47.5 Z"/></g>
<g><path style="opacity:1" fill="#ce2ece" d="M 18.5,50.5 C 20.1667,50.5 21.8333,50.5 23.5,50.5C 27.0122,49.9455 30.0122,50.6122 32.5,52.5C 35.1627,57.1494 35.1627,61.8161 32.5,66.5C 30.5,66.5 28.5,66.5 26.5,66.5C 25.5,66.5 24.5,66.5 23.5,66.5C 23.5,65.5 23.5,64.5 23.5,63.5C 25.5,63.5 27.5,63.5 29.5,63.5C 29.5,61.8333 29.5,60.1667 29.5,58.5C 27.3812,58.5323 26.0478,57.5323 25.5,55.5C 27.1376,54.343 28.8043,53.1764 30.5,52C 27.1064,51.2483 23.773,51.4149 20.5,52.5C 20.1667,53.8333 19.8333,55.1667 19.5,56.5C 19.5854,58.3328 20.2521,59.6661 21.5,60.5C 21.5,60.8333 21.5,61.1667 21.5,61.5C 20.5,61.5 19.5,61.5 18.5,61.5C 18.5,57.8333 18.5,54.1667 18.5,50.5 Z"/></g>
<g><path style="opacity:1" fill="#e52cdb" d="M 25.5,55.5 C 24.1667,55.5 22.8333,55.5 21.5,55.5C 21.5,57.1667 21.5,58.8333 21.5,60.5C 20.2521,59.6661 19.5854,58.3328 19.5,56.5C 19.8333,55.1667 20.1667,53.8333 20.5,52.5C 23.773,51.4149 27.1064,51.2483 30.5,52C 28.8043,53.1764 27.1376,54.343 25.5,55.5 Z"/></g>
<g><path style="opacity:1" fill="#1a0e25" d="M 41.5,44.5 C 41.3653,46.5542 42.032,48.2209 43.5,49.5C 40.7564,50.0717 39.9231,51.7383 41,54.5C 42,55.8333 43,55.8333 44,54.5C 44.1118,57.4471 45.6118,58.7804 48.5,58.5C 48.5,58.8333 48.5,59.1667 48.5,59.5C 45.7508,59.7261 43.0841,59.3928 40.5,58.5C 39.8333,59.1667 39.1667,59.8333 38.5,60.5C 37.9478,58.9974 37.9478,57.3307 38.5,55.5C 37.5,55.5 36.5,55.5 35.5,55.5C 35.5,54.5 35.5,53.5 35.5,52.5C 37.5358,50.7943 38.5358,48.461 38.5,45.5C 39.609,45.4431 40.609,45.1098 41.5,44.5 Z"/></g>
<g><path style="opacity:1" fill="#fefafc" d="M 25.5,55.5 C 26.0478,57.5323 27.3812,58.5323 29.5,58.5C 29.5,60.1667 29.5,61.8333 29.5,63.5C 27.5,63.5 25.5,63.5 23.5,63.5C 22.1667,63.5 21.5,62.8333 21.5,61.5C 21.5,61.1667 21.5,60.8333 21.5,60.5C 21.5,58.8333 21.5,57.1667 21.5,55.5C 22.8333,55.5 24.1667,55.5 25.5,55.5 Z"/></g>
<g><path style="opacity:0.298" fill="#256a4b" d="M 13.5,45.5 C 11.8333,45.5 10.1667,45.5 8.5,45.5C 8.42476,50.1919 9.42476,54.5252 11.5,58.5C 12.1834,60.1765 13.5168,60.8432 15.5,60.5C 15.1872,56.9581 15.5206,53.6248 16.5,50.5C 16.5,53.8333 16.5,57.1667 16.5,60.5C 13.3052,62.8816 10.4719,62.215 8,58.5C 7.6162,55.9398 6.78287,53.6064 5.5,51.5C 5.88438,49.0706 6.55104,46.7373 7.5,44.5C 9.73535,44.2053 11.7354,44.5386 13.5,45.5 Z"/></g>
<g><path style="opacity:1" fill="#e033df" d="M 55.5,54.5 C 57.8575,55.8606 59.5241,57.8606 60.5,60.5C 58.9951,61.8415 58.3285,63.5082 58.5,65.5C 55.6146,65.8064 52.9479,65.4731 50.5,64.5C 52.1439,64.7135 53.6439,64.3802 55,63.5C 55.498,60.5184 55.6646,57.5184 55.5,54.5 Z"/></g>
<g><path style="opacity:1" fill="#6d118c" d="M 59.5,45.5 C 59.2155,47.4147 59.5489,49.0813 60.5,50.5C 61.5025,52.0109 62.1692,53.6776 62.5,55.5C 62.5,56.5 62.5,57.5 62.5,58.5C 62.3067,61.3085 61.64,63.9752 60.5,66.5C 57.1667,66.5 53.8333,66.5 50.5,66.5C 50.2785,68.6636 49.2785,70.3303 47.5,71.5C 47.4802,69.857 48.1468,68.5237 49.5,67.5C 46.9818,65.8443 46.9818,64.5109 49.5,63.5C 50.1667,63.5 50.5,63.8333 50.5,64.5C 52.9479,65.4731 55.6146,65.8064 58.5,65.5C 58.3285,63.5082 58.9951,61.8415 60.5,60.5C 59.5241,57.8606 57.8575,55.8606 55.5,54.5C 55.5,53.1667 55.5,51.8333 55.5,50.5C 57.1816,49.1727 58.5149,47.5061 59.5,45.5 Z"/></g>
<g><path style="opacity:1" fill="#fd2b73" d="M 55.5,50.5 C 55.5,51.8333 55.5,53.1667 55.5,54.5C 55.6646,57.5184 55.498,60.5184 55,63.5C 53.6439,64.3802 52.1439,64.7135 50.5,64.5C 50.5,63.8333 50.1667,63.5 49.5,63.5C 49.7678,61.901 49.4345,60.5676 48.5,59.5C 48.5,59.1667 48.5,58.8333 48.5,58.5C 49.1667,58.5 49.8333,58.5 50.5,58.5C 51.5,58.5 52.5,58.5 53.5,58.5C 53.5,54.8333 53.5,51.1667 53.5,47.5C 52.5,47.5 51.5,47.5 50.5,47.5C 49.8333,46.8333 49.1667,46.1667 48.5,45.5C 53.4525,43.4772 55.7858,45.1439 55.5,50.5 Z"/></g>
<g><path style="opacity:0.125" fill="#23242a" d="M 16.5,50.5 C 17.1667,50.5 17.8333,50.5 18.5,50.5C 18.5,54.1667 18.5,57.8333 18.5,61.5C 19.5,61.5 20.5,61.5 21.5,61.5C 21.5,62.8333 22.1667,63.5 23.5,63.5C 23.5,64.5 23.5,65.5 23.5,66.5C 24.5,66.5 25.5,66.5 26.5,66.5C 26.5,67.5 26.5,68.5 26.5,69.5C 29.8555,69.0914 32.8555,69.7581 35.5,71.5C 38.8909,73.1254 42.5575,74.1254 46.5,74.5C 46.5,74.8333 46.5,75.1667 46.5,75.5C 43.1667,75.5 39.8333,75.5 36.5,75.5C 35.9094,74.8485 35.2427,74.1818 34.5,73.5C 31.4436,72.8038 28.4436,71.9704 25.5,71C 22.1268,67.7078 19.1268,64.2078 16.5,60.5C 16.5,57.1667 16.5,53.8333 16.5,50.5 Z"/></g>
<g><path style="opacity:1" fill="#720d90" d="M 32.5,52.5 C 33.5,52.5 34.5,52.5 35.5,52.5C 35.5,53.5 35.5,54.5 35.5,55.5C 36.5,55.5 37.5,55.5 38.5,55.5C 37.9478,57.3307 37.9478,58.9974 38.5,60.5C 39.1667,59.8333 39.8333,59.1667 40.5,58.5C 43.0841,59.3928 45.7508,59.7261 48.5,59.5C 47.7375,60.2679 46.7375,60.7679 45.5,61C 46.6105,63.7372 46.7772,66.5706 46,69.5C 46.5084,62.8293 43.6751,60.4959 37.5,62.5C 36.1468,63.5237 35.4802,64.857 35.5,66.5C 35.5,67.1667 35.5,67.8333 35.5,68.5C 35.5,69.5 35.5,70.5 35.5,71.5C 32.8555,69.7581 29.8555,69.0914 26.5,69.5C 26.5,68.5 26.5,67.5 26.5,66.5C 28.5,66.5 30.5,66.5 32.5,66.5C 35.1627,61.8161 35.1627,57.1494 32.5,52.5 Z"/></g>
<g><path style="opacity:1" fill="#fdedfb" d="M 35.5,68.5 C 35.5,67.8333 35.5,67.1667 35.5,66.5C 37.1172,65.962 38.7839,65.6287 40.5,65.5C 40.7852,67.288 40.4519,68.9547 39.5,70.5C 38.3777,69.3698 37.0443,68.7031 35.5,68.5 Z"/></g>
<g><path style="opacity:0.165" fill="#202024" d="M 71.5,58.5 C 69.9581,59.1635 68.2914,59.8302 66.5,60.5C 64.1215,67.7077 59.1215,71.2077 51.5,71C 50.2107,72.8022 48.5441,73.9688 46.5,74.5C 42.5575,74.1254 38.8909,73.1254 35.5,71.5C 39.5,71.5 43.5,71.5 47.5,71.5C 49.2785,70.3303 50.2785,68.6636 50.5,66.5C 53.8333,66.5 57.1667,66.5 60.5,66.5C 61.64,63.9752 62.3067,61.3085 62.5,58.5C 65.6558,57.4489 68.6558,57.4489 71.5,58.5 Z"/></g>
<g><path style="opacity:1" fill="#d02ad0" d="M 48.5,59.5 C 49.4345,60.5676 49.7678,61.901 49.5,63.5C 46.9818,64.5109 46.9818,65.8443 49.5,67.5C 48.1468,68.5237 47.4802,69.857 47.5,71.5C 43.5,71.5 39.5,71.5 35.5,71.5C 35.5,70.5 35.5,69.5 35.5,68.5C 37.0443,68.7031 38.3777,69.3698 39.5,70.5C 40.4519,68.9547 40.7852,67.288 40.5,65.5C 38.7839,65.6287 37.1172,65.962 35.5,66.5C 35.4802,64.857 36.1468,63.5237 37.5,62.5C 43.6751,60.4959 46.5084,62.8293 46,69.5C 46.7772,66.5706 46.6105,63.7372 45.5,61C 46.7375,60.7679 47.7375,60.2679 48.5,59.5 Z"/></g>
<g><path style="opacity:0.047" fill="#110d13" d="M 20.5,68.5 C 21.8333,69.1667 21.8333,69.1667 20.5,68.5 Z"/></g>
</svg>
