<svg version="1.1" id="Layer_1" xmlns="http://www.w3.org/2000/svg" xmlns:xlink="http://www.w3.org/1999/xlink" x="0px" y="0px"
	 width="100%" viewBox="0 0 87 76" enable-background="new 0 0 87 76" xml:space="preserve">
<path fill="#FFFFFF" opacity="1.000000" stroke="none" 
	d="
M88.000000,44.000000 
	C88.000000,54.933651 88.000000,65.867302 88.000000,77.000000 
	C74.979782,77.000000 61.958549,77.000000 48.522018,76.684753 
	C48.114700,75.944969 48.122684,75.520432 48.412762,74.972183 
	C48.794617,74.257019 48.894379,73.665558 49.371361,73.052383 
	C50.505653,72.384483 51.262726,71.738289 52.468151,71.066895 
	C55.341946,71.016747 57.829025,71.318108 60.175465,70.874893 
	C62.512600,70.433441 65.225754,69.624748 63.898079,65.793541 
	C64.047935,65.349388 64.099510,65.168983 64.448799,64.990219 
	C65.197029,64.707413 65.647545,64.422966 66.388367,63.982307 
	C66.679039,63.204052 66.679405,62.582016 66.747963,61.699127 
	C66.861031,61.264236 66.905907,61.090187 67.324081,60.845669 
	C69.511032,60.216805 71.324684,59.658409 73.406677,58.983253 
	C73.768478,58.312599 73.861938,57.758713 74.328949,57.106766 
	C75.085892,55.990532 75.469292,54.972351 75.998016,53.660339 
	C76.457825,52.599426 76.772308,51.832340 77.052719,51.038422 
	C77.018639,51.011593 77.033302,51.097084 77.416115,51.053162 
	C78.936447,50.664936 80.073967,50.320629 81.463371,49.969212 
	C82.047699,49.660419 82.380135,49.358734 82.859924,48.779766 
	C83.286774,48.001331 83.566277,47.500183 83.928894,46.765381 
	C84.012009,46.531727 84.121147,46.047890 84.485634,46.026917 
	C85.900078,45.337292 86.950043,44.668644 88.000000,44.000000 
z"/>
<path fill="#FFFFFF" opacity="1.000000" stroke="none" 
	d="
M47.000000,1.000001 
	C60.586441,1.000000 74.172882,1.000000 88.000000,1.000000 
	C88.000000,12.019728 88.000000,23.041206 87.675224,34.522675 
	C86.865440,34.664650 86.380432,34.346634 85.965302,33.760868 
	C85.989685,33.313992 85.944183,33.134861 85.945984,32.581474 
	C84.920853,28.720976 82.791359,26.749565 78.721512,27.111084 
	C78.300491,26.692017 78.079330,26.434280 77.869827,25.808943 
	C77.205475,24.279200 76.529449,23.117058 75.571983,21.876965 
	C74.810089,21.196468 74.329636,20.593924 74.011734,19.626495 
	C73.988983,18.539896 73.856392,17.213785 73.610008,17.192295 
	C71.678055,17.023766 69.724304,17.105232 67.869171,16.820221 
	C67.626907,16.376520 67.292725,16.222218 66.882011,15.813904 
	C66.761055,15.388702 66.716629,15.217512 66.810501,14.700907 
	C66.298546,13.237373 65.648277,12.119255 64.924576,10.696346 
	C63.871605,10.278767 62.892078,10.165976 61.691895,10.017217 
	C61.471237,9.981250 61.030933,9.903407 61.013077,9.481565 
	C58.308243,8.680910 55.621258,8.302098 52.841675,7.590267 
	C51.488712,6.475719 50.228352,5.694191 48.984760,4.605670 
	C48.708324,3.831478 48.415123,3.364279 48.087746,2.572642 
	C47.702374,1.832137 47.351185,1.416069 47.000000,1.000001 
z"/>
<path fill="#FFFFFF" opacity="1.000000" stroke="none" 
	d="
M39.000000,77.000000 
	C26.404808,77.000000 13.809617,77.000000 1.000000,77.000000 
	C1.000000,63.979889 1.000000,50.958603 1.000500,37.807022 
	C2.027588,38.393223 3.054176,39.109711 4.101414,40.157555 
	C5.074823,40.944328 6.027583,41.399754 7.354630,41.933922 
	C8.239169,41.964844 8.749421,41.917023 9.370642,41.938221 
	C9.481609,42.007240 9.730649,41.927933 9.865878,42.210819 
	C10.305140,42.992455 10.609174,43.491199 10.606009,44.082909 
	C10.244019,44.791061 10.189225,45.406258 10.069977,46.257408 
	C10.005523,46.493370 10.001663,46.982563 9.775839,46.995049 
	C9.550014,47.007530 9.122499,47.155323 8.754933,47.076256 
	C7.990407,47.662102 7.593448,48.327015 7.109669,49.353851 
	C7.373979,51.085201 7.725108,52.454624 8.050274,54.147564 
	C8.657224,55.018166 9.290135,55.565254 9.953064,56.471786 
	C10.315725,57.643970 10.648369,58.456711 10.992109,59.447266 
	C11.003205,59.625072 11.151379,59.949108 11.220844,60.314922 
	C13.532249,60.742001 15.774189,60.803261 18.072067,61.233356 
	C19.478367,63.402428 20.828728,65.202667 22.135708,67.314949 
	C22.719131,68.181480 23.345936,68.735962 24.055264,69.582390 
	C24.785208,70.195320 25.432629,70.516304 26.487524,70.876770 
	C27.167648,70.928421 27.440296,70.940582 27.502840,71.295898 
	C29.520117,72.368233 31.747499,73.097420 34.252666,73.885017 
	C34.694878,73.849754 34.859306,73.756081 35.370628,73.666458 
	C36.150745,73.764313 36.583961,73.858109 37.018242,74.221313 
	C37.301956,74.692894 37.584606,74.895058 37.907761,75.420952 
	C38.298843,76.163124 38.649422,76.581558 39.000000,77.000000 
z"/>
<path fill="#FFFFFF" opacity="1.000000" stroke="none" 
	d="
M1.000000,32.000000 
	C1.000000,21.732635 1.000000,11.465271 1.000000,1.000000 
	C13.353524,1.000000 25.708103,1.000000 38.503792,1.327203 
	C38.308796,2.496863 37.672688,3.339320 36.671791,4.207412 
	C30.280817,2.832629 26.259247,5.164087 23.717968,10.973186 
	C22.565931,12.140389 21.724066,13.163157 20.578884,14.252584 
	C19.471817,15.480447 18.668066,16.641651 17.529716,17.744888 
	C15.787770,17.193966 14.380426,16.701010 12.635801,16.108730 
	C11.956138,16.624735 11.613754,17.240061 11.169843,18.191750 
	C10.707231,19.063805 10.346147,19.599499 9.670766,20.136814 
	C9.237477,21.138222 9.118485,22.138010 8.990242,23.472507 
	C8.343116,25.169855 7.705242,26.532494 7.019730,28.159773 
	C6.981923,28.603403 6.991755,28.782396 6.711897,29.019379 
	C5.949252,29.378340 5.476298,29.679310 4.869858,29.679115 
	C3.490914,30.251968 2.245457,31.125984 1.000000,32.000000 
z"/>
<path fill="#110818" opacity="1.000000" stroke="none" 
	d="
M85.895424,34.028618 
	C86.380432,34.346634 86.865440,34.664650 87.675224,34.991333 
	C88.000000,37.700050 88.000000,40.400101 88.000000,43.550076 
	C86.950043,44.668644 85.900078,45.337292 84.245361,46.109489 
	C83.429070,46.470215 83.217537,46.727394 82.803078,46.997181 
	C82.600151,47.009785 82.194061,47.031090 82.158852,46.721191 
	C82.103317,45.788433 82.082985,45.165577 82.402267,44.439354 
	C83.252792,43.919426 83.763710,43.502861 84.398842,42.958920 
	C84.435982,42.524841 84.348900,42.218136 84.237518,41.528137 
	C84.230011,40.121414 84.246811,39.097977 84.429993,37.889149 
	C84.473671,37.113007 84.350967,36.522255 84.214920,35.670876 
	C84.229500,35.063789 84.257431,34.717339 84.552322,34.291412 
	C85.177994,34.150833 85.536713,34.089725 85.895424,34.028618 
z"/>
<path fill="#000009" opacity="1.000000" stroke="none" 
	d="
M37.036583,4.181778 
	C37.672688,3.339320 38.308796,2.496863 38.972450,1.327203 
	C39.000000,1.000000 39.500000,1.000000 39.841866,1.402531 
	C42.829792,2.169067 45.475861,2.533073 48.121925,2.897079 
	C48.415123,3.364279 48.708324,3.831478 48.990044,4.624081 
	C48.978565,4.949484 48.955116,4.969904 48.501259,4.979936 
	C44.727539,5.011094 41.407673,5.032221 37.874348,4.956950 
	C37.374012,4.706752 37.165909,4.480495 37.036583,4.181778 
z"/>
<path fill="#3D3D46" opacity="1.000000" stroke="none" 
	d="
M1.000000,32.416664 
	C2.245457,31.125984 3.490914,30.251968 4.873223,29.923939 
	C5.010074,30.469927 5.004470,30.959566 4.613333,31.029182 
	C4.290527,33.409115 4.358860,35.719437 4.483986,38.344612 
	C4.387441,39.048378 4.234102,39.437290 4.080764,39.826202 
	C3.054176,39.109711 2.027588,38.393223 1.000500,37.338364 
	C1.000000,35.611111 1.000000,34.222221 1.000000,32.416664 
z"/>
<path fill="#4B4A56" opacity="1.000000" stroke="none" 
	d="
M39.449982,77.000000 
	C38.649422,76.581558 38.298843,76.163124 38.373444,75.396759 
	C41.909306,75.064529 45.019989,75.080215 48.130669,75.095894 
	C48.122684,75.520432 48.114700,75.944969 48.053360,76.684753 
	C45.299988,77.000000 42.599972,77.000000 39.449982,77.000000 
z"/>
<path fill="#58575E" opacity="1.000000" stroke="none" 
	d="
M48.087746,2.572642 
	C45.475861,2.533073 42.829792,2.169067 40.091866,1.402531 
	C42.041668,1.000000 44.083332,1.000000 46.562500,1.000001 
	C47.351185,1.416069 47.702374,1.832137 48.087746,2.572642 
z"/>
<path fill="#7B0698" opacity="1.000000" stroke="none" 
	d="
M75.852684,53.954166 
	C75.469292,54.972351 75.085892,55.990532 73.966400,57.080536 
	C71.824654,57.378468 70.418983,57.604580 69.028610,57.465408 
	C69.344032,55.489368 69.644157,53.878616 70.200653,52.028587 
	C70.982529,47.582912 68.136940,46.887669 65.063965,46.216949 
	C67.093796,44.946491 69.032646,43.983112 71.064407,43.356216 
	C73.065308,45.169048 74.973289,46.645405 76.923889,48.375202 
	C76.991974,48.798069 77.017441,48.967495 76.966118,49.337967 
	C76.889336,49.539009 76.934906,49.967007 76.916016,50.253311 
	C76.942520,50.725441 76.987915,50.911263 77.033302,51.097084 
	C77.033302,51.097084 77.018639,51.011593 76.717171,50.999840 
	C75.741051,51.267654 75.066406,51.547215 74.391754,51.826778 
	C74.878731,52.535908 75.365707,53.245037 75.852684,53.954166 
z"/>
<path fill="#121315" opacity="1.000000" stroke="none" 
	d="
M63.799805,66.057281 
	C65.225754,69.624748 62.512600,70.433441 60.175465,70.874893 
	C57.829025,71.318108 55.341946,71.016747 52.380272,70.819824 
	C51.564747,70.399826 51.285454,70.201698 51.018147,69.688324 
	C51.341606,68.615242 51.653084,67.857407 52.289680,67.124619 
	C53.711277,67.047600 54.807758,66.945541 56.248859,66.956703 
	C57.693329,67.338013 58.793175,67.606102 60.216118,67.893906 
	C61.626083,67.294838 62.712944,66.676064 63.799805,66.057281 
z"/>
<path fill="#7C09A1" opacity="1.000000" stroke="none" 
	d="
M63.898079,65.793549 
	C62.712944,66.676064 61.626083,67.294838 60.284477,67.516441 
	C60.802620,63.834667 61.939697,60.577648 59.869087,57.285183 
	C59.532173,56.749462 59.979259,55.720699 60.197884,54.747269 
	C60.776745,54.575966 61.221691,54.577221 61.826614,54.917137 
	C63.329746,56.804726 64.672905,58.353653 65.629913,59.968822 
	C64.879539,61.686234 64.515312,63.337402 64.151093,64.988571 
	C64.099510,65.168983 64.047935,65.349388 63.898079,65.793549 
z"/>
<path fill="#02000D" opacity="1.000000" stroke="none" 
	d="
M48.412762,74.972183 
	C45.019989,75.080215 41.909306,75.064529 38.332939,75.073029 
	C37.584606,74.895058 37.301956,74.692894 37.038528,74.060165 
	C37.057755,73.629601 37.080105,73.305595 37.470600,73.171249 
	C39.254471,72.953377 40.647842,72.869843 42.353775,72.868683 
	C43.095070,72.927338 43.523811,72.903618 44.364048,72.946594 
	C46.164753,73.017075 47.553963,73.020851 48.955856,73.036880 
	C48.968540,73.049118 48.994141,73.074104 48.994141,73.074104 
	C48.894379,73.665558 48.794617,74.257019 48.412762,74.972183 
z"/>
<path fill="#070213" opacity="1.000000" stroke="none" 
	d="
M64.448799,64.990219 
	C64.515312,63.337402 64.879539,61.686234 65.865257,60.090546 
	C66.662354,60.129227 66.837952,60.112427 66.909424,60.293991 
	C66.805290,60.492352 66.950790,60.916138 66.950790,60.916138 
	C66.905907,61.090187 66.861031,61.264236 66.532410,61.904659 
	C66.198471,62.960194 66.148270,63.549355 66.098061,64.138519 
	C65.647545,64.422966 65.197029,64.707413 64.448799,64.990219 
z"/>
<path fill="#030009" opacity="1.000000" stroke="none" 
	d="
M69.013321,57.830692 
	C70.418983,57.604580 71.824654,57.378468 73.592857,57.178589 
	C73.861938,57.758713 73.768478,58.312599 72.977676,58.971317 
	C70.566269,59.035717 68.852211,58.995289 67.148178,58.631138 
	C67.776588,58.148510 68.394951,57.989601 69.013321,57.830692 
z"/>
<path fill="#500C65" opacity="1.000000" stroke="none" 
	d="
M75.998016,53.660339 
	C75.365707,53.245037 74.878731,52.535908 74.391754,51.826778 
	C75.066406,51.547215 75.741051,51.267654 76.751251,51.026672 
	C76.772308,51.832340 76.457825,52.599426 75.998016,53.660339 
z"/>
<path fill="#651F7D" opacity="1.000000" stroke="none" 
	d="
M82.062660,44.542721 
	C82.082985,45.165577 82.103317,45.788433 82.084061,46.994999 
	C82.267189,48.071487 82.489883,48.564266 82.712578,49.057049 
	C82.380135,49.358734 82.047699,49.660419 81.403595,49.718468 
	C81.060326,49.305111 81.028709,49.135387 80.999489,48.549454 
	C80.987106,47.021847 80.972336,45.910458 81.080154,44.614594 
	C81.406555,44.212826 81.633781,44.023640 81.946075,44.028126 
	C82.007729,44.193687 82.062660,44.542721 82.062660,44.542721 
z"/>
<path fill="#321945" opacity="1.000000" stroke="none" 
	d="
M51.006161,70.003571 
	C51.285454,70.201698 51.564747,70.399826 51.931919,70.845032 
	C51.262726,71.738289 50.505653,72.384483 49.371361,73.052383 
	C48.994141,73.074104 48.968540,73.049118 49.058441,72.733459 
	C49.767612,71.613060 50.386887,70.808311 51.006161,70.003571 
z"/>
<path fill="#424450" opacity="1.000000" stroke="none" 
	d="
M67.138145,58.954861 
	C68.852211,58.995289 70.566269,59.035717 72.709335,59.088081 
	C71.324684,59.658409 69.511032,60.216805 67.324081,60.845669 
	C66.950790,60.916138 66.805290,60.492352 66.904129,60.004814 
	C67.048019,59.329803 67.093079,59.142334 67.138145,58.954861 
z"/>
<path fill="#000004" opacity="1.000000" stroke="none" 
	d="
M80.997101,48.965668 
	C81.028709,49.135387 81.060326,49.305111 81.151711,49.725578 
	C80.073967,50.320629 78.936447,50.664936 77.416115,51.053162 
	C76.987915,50.911263 76.942520,50.725441 77.252441,50.260838 
	C78.412086,49.713890 79.216415,49.445721 80.260994,49.106880 
	C80.666527,49.012695 80.831810,48.989182 80.997101,48.965668 
z"/>
<path fill="#000003" opacity="1.000000" stroke="none" 
	d="
M82.859924,48.779766 
	C82.489883,48.564266 82.267189,48.071487 82.119278,47.304901 
	C82.194061,47.031090 82.600151,47.009785 83.013000,46.999443 
	C83.425842,46.989105 83.845779,46.999035 83.845779,46.999035 
	C83.566277,47.500183 83.286774,48.001331 82.859924,48.779766 
z"/>
<path fill="#424450" opacity="1.000000" stroke="none" 
	d="
M66.388367,63.982300 
	C66.148270,63.549355 66.198471,62.960194 66.464226,62.165504 
	C66.679405,62.582016 66.679039,63.204052 66.388367,63.982300 
z"/>
<path fill="#0F002A" opacity="1.000000" stroke="none" 
	d="
M83.928894,46.765381 
	C83.845779,46.999035 83.425842,46.989105 83.215927,46.986839 
	C83.217537,46.727394 83.429070,46.470215 83.880875,46.130463 
	C84.121147,46.047890 84.012009,46.531727 83.928894,46.765381 
z"/>
<path fill="#7F069F" opacity="1.000000" stroke="none" 
	d="
M73.849182,19.991379 
	C74.329636,20.593924 74.810089,21.196468 75.629013,22.227491 
	C76.597710,23.829493 77.227943,25.003016 77.858170,26.176542 
	C78.079330,26.434280 78.300491,26.692017 78.778473,27.296467 
	C79.035286,27.643183 78.910591,28.008755 78.557259,28.082321 
	C77.775536,29.470743 77.347137,30.785597 76.562485,32.094498 
	C74.761192,32.725407 73.316162,33.362263 71.856529,33.599907 
	C71.559265,31.944799 71.146049,30.702217 71.016464,29.430727 
	C70.446327,23.836720 69.457329,23.191139 63.565067,25.037491 
	C62.104717,26.132252 60.986076,27.152121 59.661110,28.114090 
	C59.454784,28.056190 59.031982,27.980923 59.014446,27.652004 
	C59.003151,26.884098 59.009392,26.445114 59.309288,25.785151 
	C61.457794,21.339367 61.910271,17.432640 57.093529,14.391342 
	C55.932438,12.754892 54.818932,11.437360 54.161728,10.058273 
	C56.755661,9.965614 58.893299,9.934511 61.030933,9.903407 
	C61.030933,9.903407 61.471237,9.981250 61.731964,10.347387 
	C62.629673,11.109364 63.266651,11.505202 63.967499,12.190546 
	C64.065704,12.674692 64.100044,12.869331 64.073387,13.440636 
	C64.359009,15.149977 64.705627,16.482655 65.298431,17.882113 
	C65.714645,17.950306 65.884689,17.951715 66.011810,18.280497 
	C68.595665,19.069038 71.222420,19.530209 73.849182,19.991379 
z"/>
<path fill="#1F1726" opacity="1.000000" stroke="none" 
	d="
M78.910591,28.008755 
	C78.910591,28.008755 79.035286,27.643183 78.978333,27.457798 
	C82.791359,26.749565 84.920853,28.720976 85.705620,32.563370 
	C84.921738,32.920406 84.425529,32.921280 83.588791,32.909470 
	C82.606277,32.683826 81.964279,32.470867 81.332535,31.988705 
	C80.766510,31.367451 80.190231,31.015402 79.465195,30.351082 
	C79.181152,29.362125 79.045868,28.685440 78.910591,28.008755 
z"/>
<path fill="#0A0511" opacity="1.000000" stroke="none" 
	d="
M74.011734,19.626495 
	C71.222420,19.530209 68.595665,19.069038 66.001236,18.300119 
	C66.033569,17.992369 65.991257,17.984533 66.263672,17.934496 
	C66.678848,17.592690 66.821617,17.300920 66.972336,16.999964 
	C66.980278,16.990778 66.990585,16.968777 67.166382,17.120609 
	C67.342171,17.272444 67.777267,17.109617 67.777267,17.109619 
	C69.724304,17.105232 71.678055,17.023766 73.610008,17.192295 
	C73.856392,17.213785 73.988983,18.539896 74.011734,19.626495 
z"/>
<path fill="#040210" opacity="1.000000" stroke="none" 
	d="
M61.013077,9.481565 
	C58.893299,9.934511 56.755661,9.965614 53.924740,10.025651 
	C52.909630,10.051119 52.587852,10.053680 52.175270,9.737182 
	C52.119343,8.967880 52.154270,8.523664 52.382729,8.075050 
	C52.576260,8.070651 52.934277,7.923287 52.934277,7.923286 
	C55.621258,8.302098 58.308243,8.680910 61.013077,9.481565 
z"/>
<path fill="#30094B" opacity="1.000000" stroke="none" 
	d="
M52.841675,7.590267 
	C52.934277,7.923287 52.576260,8.070651 51.997814,8.019176 
	C50.597950,6.968435 49.776535,5.969170 48.955116,4.969904 
	C48.955116,4.969904 48.978565,4.949484 48.973282,4.931073 
	C50.228352,5.694191 51.488712,6.475719 52.841675,7.590267 
z"/>
<path fill="#0A0A0B" opacity="1.000000" stroke="none" 
	d="
M63.903629,11.901041 
	C63.266651,11.505202 62.629673,11.109364 61.952621,10.383354 
	C62.892078,10.165976 63.871605,10.278767 64.661003,10.714689 
	C64.281792,11.325562 64.092712,11.613302 63.903629,11.901041 
z"/>
<path fill="#44424B" opacity="1.000000" stroke="none" 
	d="
M63.967499,12.190548 
	C64.092712,11.613302 64.281792,11.325562 64.734444,11.019479 
	C65.648277,12.119255 66.298546,13.237373 66.588249,14.530932 
	C65.821274,14.157894 65.414856,13.609416 64.789879,13.049883 
	C64.571327,13.038828 64.134392,13.063971 64.134392,13.063971 
	C64.100044,12.869331 64.065704,12.674692 63.967499,12.190548 
z"/>
<path fill="#030104" opacity="1.000000" stroke="none" 
	d="
M65.008430,13.060940 
	C65.414856,13.609416 65.821274,14.157894 66.449944,14.876347 
	C66.716629,15.217512 66.761055,15.388702 66.796753,16.042439 
	C66.788033,16.524986 66.990585,16.968777 66.990585,16.968777 
	C66.990585,16.968777 66.980278,16.990778 66.707092,17.013979 
	C66.286362,17.352964 66.138809,17.668749 65.991257,17.984531 
	C65.991257,17.984533 66.033569,17.992369 66.044144,17.972746 
	C65.884689,17.951715 65.714645,17.950306 65.280243,17.486668 
	C65.013405,15.703274 65.010918,14.382108 65.008430,13.060940 
z"/>
<path fill="#54505B" opacity="1.000000" stroke="none" 
	d="
M77.869835,25.808941 
	C77.227943,25.003016 76.597710,23.829493 75.910461,22.305443 
	C76.529449,23.117058 77.205475,24.279200 77.869835,25.808941 
z"/>
<path fill="#8B7290" opacity="1.000000" stroke="none" 
	d="
M83.929321,32.922153 
	C84.425529,32.921280 84.921738,32.920406 85.658310,32.937634 
	C85.944183,33.134861 85.989685,33.313992 85.965302,33.760868 
	C85.536713,34.089725 85.177994,34.150833 84.441315,33.934212 
	C84.018669,33.411705 83.973991,33.166931 83.929321,32.922153 
z"/>
<path fill="#44424B" opacity="1.000000" stroke="none" 
	d="
M67.166382,17.120609 
	C66.990585,16.968777 66.788033,16.524986 66.873291,16.296452 
	C67.292725,16.222218 67.626907,16.376520 67.869171,16.820221 
	C67.777267,17.109617 67.342171,17.272444 67.166382,17.120609 
z"/>
<path fill="#8BE804" opacity="1.000000" stroke="none" 
	d="
M11.151379,59.949108 
	C11.151379,59.949108 11.003205,59.625072 11.328696,59.226467 
	C11.760858,57.253456 11.867528,55.679054 11.872130,53.790585 
	C11.216640,52.335079 10.663218,51.193634 10.045588,49.712376 
	C10.025167,48.914692 10.068954,48.456821 10.509608,48.007149 
	C12.229616,48.006657 13.552757,47.997963 14.976578,48.240814 
	C15.353531,48.717834 15.629804,48.943317 15.931910,49.592247 
	C15.872825,54.060947 17.126383,58.753826 11.151379,59.949108 
z"/>
<path fill="#0AB160" opacity="1.000000" stroke="none" 
	d="
M11.220844,60.314922 
	C17.126383,58.753826 15.872825,54.060947 15.968590,49.516891 
	C15.979437,49.018082 16.046993,48.864674 16.358629,48.696899 
	C16.771631,47.347565 16.872997,46.166004 17.185951,44.745426 
	C18.201429,44.349449 19.005320,44.192486 19.879635,44.326164 
	C19.991795,45.013039 20.033531,45.409267 19.664333,45.800423 
	C18.857676,47.499836 18.461954,49.204319 18.047239,51.115257 
	C18.028248,51.321705 18.039078,51.735771 17.775711,51.986862 
	C17.571938,53.841122 17.631531,55.444283 17.734411,57.377357 
	C18.188120,58.422802 18.598543,59.138340 19.089478,60.116257 
	C19.258913,60.538548 19.347834,60.698460 19.081566,60.852692 
	C18.489630,60.852848 18.252880,60.858685 18.016129,60.864521 
	C15.774189,60.803261 13.532249,60.742001 11.220844,60.314922 
z"/>
<path fill="#08090C" opacity="1.000000" stroke="none" 
	d="
M37.080105,73.305595 
	C37.080105,73.305595 37.057755,73.629601 37.037468,73.790756 
	C36.583961,73.858109 36.150745,73.764313 35.299500,73.338013 
	C33.623383,72.660355 32.365292,72.315193 31.107204,71.970032 
	C31.080954,72.185783 31.054705,72.401535 31.028456,72.617279 
	C32.010597,73.020393 32.992741,73.423500 33.974884,73.826607 
	C31.747499,73.097420 29.520117,72.368233 27.470165,71.298782 
	C27.647598,70.958527 27.584332,70.950027 27.915051,70.979858 
	C28.851294,70.786934 29.456820,70.564178 30.478106,70.309097 
	C32.285149,70.268570 33.676430,70.260376 35.193863,70.437164 
	C35.734932,70.758110 36.149857,70.894073 36.655781,71.410309 
	C36.857887,72.295578 36.968998,72.800591 37.080105,73.305595 
z"/>
<path fill="#342237" opacity="1.000000" stroke="none" 
	d="
M18.072067,61.233356 
	C18.252880,60.858685 18.489630,60.852848 19.338470,61.013977 
	C20.859194,61.610214 21.767822,62.039482 22.775833,62.762554 
	C22.927542,63.678833 22.979868,64.301308 23.004433,65.259567 
	C22.997755,65.818954 23.018837,66.042557 23.028217,66.448410 
	C23.016520,66.630653 23.010977,66.995850 22.803001,66.997223 
	C22.595024,66.998589 22.179089,67.002907 22.179089,67.002907 
	C20.828728,65.202667 19.478367,63.402428 18.072067,61.233356 
z"/>
<path fill="#009753" opacity="1.000000" stroke="none" 
	d="
M10.112741,47.998955 
	C10.068954,48.456821 10.025167,48.914692 9.991869,50.106941 
	C9.992126,51.904606 9.981892,52.967892 9.966784,54.039505 
	C9.961909,54.047832 9.946718,54.060097 9.632595,54.042118 
	C8.904393,53.957443 8.490315,53.890747 8.076237,53.824051 
	C7.725108,52.454624 7.373979,51.085201 7.412910,49.323303 
	C8.242813,48.338997 8.682656,47.747158 9.122499,47.155323 
	C9.122499,47.155323 9.550014,47.007530 9.773066,47.005974 
	C9.996119,47.004417 9.997200,47.026314 10.002807,47.272240 
	C10.008413,47.518166 10.112741,47.998955 10.112741,47.998955 
z"/>
<path fill="#AE4140" opacity="1.000000" stroke="none" 
	d="
M9.730649,41.927933 
	C9.730649,41.927933 9.481609,42.007240 9.341988,41.714184 
	C9.202365,41.421127 9.091246,40.983727 9.198457,40.732605 
	C9.538877,39.987865 9.772086,39.494244 10.419033,39.004547 
	C12.209241,39.016415 13.585712,39.024361 14.979618,39.397133 
	C14.976436,40.248013 14.955820,40.734070 14.670084,41.303284 
	C14.107235,41.608418 13.809506,41.830399 13.133925,42.075470 
	C11.747599,42.041683 10.739123,41.984810 9.730649,41.927933 
z"/>
<path fill="#00904F" opacity="1.000000" stroke="none" 
	d="
M11.974198,54.104652 
	C11.867528,55.679054 11.760858,57.253456 11.317600,59.048660 
	C10.648369,58.456711 10.315725,57.643970 9.981518,56.130581 
	C9.968876,54.973324 9.957796,54.516708 9.946718,54.060097 
	C9.946718,54.060097 9.961909,54.047832 10.300673,54.054058 
	C11.084356,54.075073 11.529277,54.089863 11.974198,54.104652 
z"/>
<path fill="#009869" opacity="1.000000" stroke="none" 
	d="
M15.942757,49.093441 
	C15.629804,48.943317 15.353531,48.717834 14.848017,47.878613 
	C13.078250,47.185352 11.537724,47.105831 9.997200,47.026314 
	C9.997200,47.026314 9.996119,47.004417 9.998891,46.993492 
	C10.001663,46.982563 10.005523,46.493370 10.470095,46.253399 
	C12.273307,45.980442 13.611946,45.947456 15.205887,46.126488 
	C15.656456,47.180557 15.851725,48.022617 16.046993,48.864674 
	C16.046993,48.864674 15.979437,49.018082 15.942757,49.093441 
z"/>
<path fill="#0A0A15" opacity="1.000000" stroke="none" 
	d="
M4.101414,40.157555 
	C4.234102,39.437290 4.387441,39.048378 4.498878,38.339447 
	C4.456978,38.019424 4.488848,38.009151 4.515012,38.355000 
	C5.181979,38.835030 5.822781,38.969212 6.683700,39.324448 
	C7.008865,39.947460 7.113914,40.349411 7.152648,41.025879 
	C7.051004,41.485317 7.015674,41.670246 6.980343,41.855179 
	C6.027583,41.399754 5.074823,40.944328 4.101414,40.157555 
z"/>
<path fill="#074271" opacity="1.000000" stroke="none" 
	d="
M14.950585,45.914471 
	C13.611946,45.947456 12.273307,45.980442 10.534550,46.017441 
	C10.189225,45.406258 10.244019,44.791061 10.875502,44.087730 
	C11.628647,44.033257 11.805103,44.066925 12.200135,44.341999 
	C13.261529,44.749535 14.104345,44.915661 14.952244,45.289940 
	C14.957325,45.498096 14.950585,45.914471 14.950585,45.914471 
z"/>
<path fill="#101010" opacity="1.000000" stroke="none" 
	d="
M11.981559,44.100590 
	C11.805103,44.066925 11.628647,44.033257 11.182699,43.994770 
	C10.609174,43.491199 10.305140,42.992455 9.865878,42.210823 
	C10.739123,41.984810 11.747599,42.041683 13.195426,42.365894 
	C13.640369,43.026085 13.645961,43.418945 13.367751,43.815872 
	C12.716487,43.913494 12.349023,44.007042 11.981559,44.100590 
z"/>
<path fill="#1C1C31" opacity="1.000000" stroke="none" 
	d="
M34.252666,73.885017 
	C32.992741,73.423500 32.010597,73.020393 31.028456,72.617279 
	C31.054705,72.401535 31.080954,72.185783 31.107204,71.970032 
	C32.365292,72.315193 33.623383,72.660355 34.952599,73.333954 
	C34.859306,73.756081 34.694878,73.849754 34.252666,73.885017 
z"/>
<path fill="#0F0F10" opacity="1.000000" stroke="none" 
	d="
M27.584332,70.950027 
	C27.584332,70.950027 27.647598,70.958527 27.680271,70.955635 
	C27.440296,70.940582 27.167648,70.928421 26.370199,70.549606 
	C25.743595,69.731133 25.641788,69.279312 25.776165,68.613998 
	C26.629156,68.280609 27.245964,68.160706 27.978985,68.377777 
	C28.048922,69.186134 28.002645,69.657501 27.826611,70.317513 
	C27.696852,70.506149 27.584332,70.950027 27.584332,70.950027 
z"/>
<path fill="#232629" opacity="1.000000" stroke="none" 
	d="
M22.135708,67.314949 
	C22.179089,67.002907 22.595024,66.998589 23.100954,66.998795 
	C24.004461,66.979858 24.402037,66.960716 24.764324,67.197418 
	C24.481140,67.901764 24.233244,68.350258 23.886410,68.919220 
	C23.787468,69.039688 23.972740,69.290451 23.972740,69.290451 
	C23.345936,68.735962 22.719131,68.181480 22.135708,67.314949 
z"/>
<path fill="#064067" opacity="1.000000" stroke="none" 
	d="
M8.754932,47.076256 
	C8.682656,47.747158 8.242813,48.338997 7.499729,48.961384 
	C7.593448,48.327015 7.990407,47.662102 8.754932,47.076256 
z"/>
<path fill="#616165" opacity="1.000000" stroke="none" 
	d="
M25.539984,68.827492 
	C25.641788,69.279312 25.743595,69.731133 25.962725,70.510117 
	C25.432629,70.516304 24.785208,70.195320 24.055264,69.582390 
	C23.972740,69.290451 23.787468,69.039688 24.144659,68.944550 
	C24.847895,68.842110 25.193939,68.834801 25.539984,68.827492 
z"/>
<path fill="#4C7462" opacity="1.000000" stroke="none" 
	d="
M9.632595,54.042118 
	C9.957796,54.516708 9.968876,54.973324 9.951501,55.771141 
	C9.290135,55.565254 8.657224,55.018166 8.050274,54.147564 
	C8.490315,53.890747 8.904393,53.957443 9.632595,54.042118 
z"/>
<path fill="#3A2C25" opacity="1.000000" stroke="none" 
	d="
M7.354630,41.933922 
	C7.015674,41.670246 7.051004,41.485317 7.461920,41.081444 
	C8.255418,40.902908 8.673332,40.943317 9.091246,40.983727 
	C9.091246,40.983727 9.202365,41.421127 9.231020,41.645164 
	C8.749421,41.917023 8.239169,41.964844 7.354630,41.933922 
z"/>
<path fill="#DD33D5" opacity="1.000000" stroke="none" 
	d="
M17.864317,17.802856 
	C18.668066,16.641651 19.471817,15.480447 20.598379,14.579283 
	C21.481033,15.214010 22.217958,16.037956 22.574682,15.897344 
	C30.443165,12.795806 30.435137,12.775437 35.682480,18.481710 
	C35.744244,18.658075 35.894768,19.002207 35.928658,19.425858 
	C36.035179,20.982346 36.107815,22.115181 36.123856,23.550083 
	C35.661190,24.542208 35.255119,25.232264 34.610924,26.099670 
	C33.244564,26.551052 32.116333,26.825083 30.921413,26.684082 
	C30.822647,20.630859 29.066032,19.352657 23.317520,20.620371 
	C22.862913,22.584301 22.425503,24.473938 21.714077,26.226902 
	C20.971603,25.717014 20.503147,25.343801 20.004467,24.546041 
	C19.378880,22.120348 18.783518,20.119200 18.103832,18.042709 
	C18.019506,17.967367 17.864317,17.802856 17.864317,17.802856 
z"/>
<path fill="#95ED05" opacity="1.000000" stroke="none" 
	d="
M9.985063,20.135193 
	C10.346147,19.599499 10.707231,19.063805 11.450841,18.180790 
	C12.213273,17.291664 12.593178,16.749859 12.973083,16.208052 
	C14.380426,16.701010 15.787770,17.193966 17.529716,17.744888 
	C17.864317,17.802856 18.019506,17.967367 18.039364,18.407192 
	C18.010044,19.586327 17.960869,20.325634 17.511158,21.130466 
	C16.743832,24.115156 16.377041,27.034321 15.685516,30.151592 
	C14.100762,30.907480 12.840744,31.465256 11.372908,31.833519 
	C10.526530,30.794228 9.887972,29.944450 9.083628,28.805096 
	C8.301019,28.308722 7.684194,28.101927 7.067369,27.895134 
	C7.705242,26.532494 8.343116,25.169855 9.257734,23.270365 
	C9.684674,21.867407 9.834868,21.001301 9.985063,20.135193 
z"/>
<path fill="#7B07A0" opacity="1.000000" stroke="none" 
	d="
M35.620720,18.305346 
	C30.435137,12.775437 30.443165,12.795806 22.574682,15.897344 
	C22.217958,16.037956 21.481033,15.214010 20.901695,14.512625 
	C21.724066,13.163157 22.565931,12.140389 23.917570,11.237753 
	C28.513605,10.185113 32.599865,9.012342 36.982002,8.003209 
	C37.894344,8.792570 38.510811,9.418295 39.090492,10.455170 
	C39.034103,12.244623 39.014492,13.622928 38.623985,15.007822 
	C37.503147,16.008787 36.753212,17.003160 35.909130,18.076344 
	C35.814983,18.155153 35.620720,18.305346 35.620720,18.305346 
z"/>
<path fill="#1E0830" opacity="1.000000" stroke="none" 
	d="
M36.686127,7.839573 
	C32.599865,9.012342 28.513605,10.185113 24.227741,11.093317 
	C26.259247,5.164087 30.280817,2.832629 36.671791,4.207413 
	C37.165909,4.480495 37.374012,4.706752 37.812866,5.272613 
	C37.538605,6.402974 37.112366,7.121274 36.686127,7.839573 
z"/>
<path fill="#939293" opacity="1.000000" stroke="none" 
	d="
M7.019730,28.159773 
	C7.684194,28.101927 8.301019,28.308722 8.996553,28.950996 
	C9.075263,29.386475 8.829319,29.619713 8.727101,29.622509 
	C8.624884,29.625307 8.581031,29.429264 8.581031,29.429264 
	C8.581031,29.429264 8.855272,29.478912 8.907848,29.881828 
	C8.273555,30.488432 7.586686,30.692118 6.927701,30.573910 
	C6.970920,29.821804 6.986255,29.391598 7.001589,28.961390 
	C6.991755,28.782396 6.981923,28.603403 7.019730,28.159773 
z"/>
<path fill="#49796F" opacity="1.000000" stroke="none" 
	d="
M12.635801,16.108730 
	C12.593178,16.749859 12.213273,17.291664 11.552369,17.844429 
	C11.613754,17.240061 11.956138,16.624735 12.635801,16.108730 
z"/>
<path fill="#536D62" opacity="1.000000" stroke="none" 
	d="
M9.670766,20.136814 
	C9.834868,21.001301 9.684674,21.867407 9.266987,22.935658 
	C9.118485,22.138010 9.237477,21.138222 9.670766,20.136814 
z"/>
<path fill="#000003" opacity="1.000000" stroke="none" 
	d="
M6.711897,29.019379 
	C6.986255,29.391598 6.970920,29.821804 6.607856,30.591503 
	C5.833501,30.939018 5.406878,30.947042 4.982679,30.970119 
	C4.985105,30.985174 5.004470,30.959566 5.004470,30.959566 
	C5.004470,30.959566 5.010074,30.469927 5.006709,30.225103 
	C5.476298,29.679310 5.949252,29.378340 6.711897,29.019379 
z"/>
<path fill="#8603A7" opacity="1.000000" stroke="none" 
	d="
M83.588791,32.909470 
	C83.973991,33.166931 84.018669,33.411705 84.174347,34.013687 
	C84.257431,34.717339 84.229500,35.063789 84.137039,36.026405 
	C84.136215,37.119896 84.199913,37.597218 84.263611,38.074543 
	C84.246811,39.097977 84.230011,40.121414 84.175598,41.822674 
	C84.183525,42.695763 84.229073,42.891029 84.274620,43.086292 
	C83.763710,43.502861 83.252792,43.919426 82.402267,44.439354 
	C82.062660,44.542721 82.007729,44.193687 81.982651,43.804779 
	C81.957573,43.415867 82.040680,42.971024 82.312561,42.722740 
	C82.325562,40.652367 82.066689,38.830276 81.593109,36.920891 
	C81.107254,36.655479 80.928108,36.410168 81.033798,36.003090 
	C81.315033,35.799809 81.493248,35.611721 81.478073,35.594551 
	C81.304863,35.398556 81.102165,35.228607 80.948181,35.062183 
	C80.989021,35.072659 80.905464,35.085564 80.956551,34.614731 
	C81.112526,33.515236 81.217407,32.886570 81.322289,32.257908 
	C81.964279,32.470867 82.606277,32.683826 83.588791,32.909470 
z"/>
<path fill="#3C0056" opacity="1.000000" stroke="none" 
	d="
M84.429993,37.889149 
	C84.199913,37.597218 84.136215,37.119896 84.150391,36.287041 
	C84.350967,36.522255 84.473671,37.113007 84.429993,37.889149 
z"/>
<path fill="#3C0056" opacity="1.000000" stroke="none" 
	d="
M84.398842,42.958920 
	C84.229073,42.891029 84.183525,42.695763 84.199898,42.205963 
	C84.348900,42.218136 84.435982,42.524841 84.398842,42.958920 
z"/>
<path fill="#8209A2" opacity="1.000000" stroke="none" 
	d="
M36.982002,8.003210 
	C37.112366,7.121274 37.538605,6.402974 38.026325,5.369011 
	C41.407673,5.032221 44.727539,5.011094 48.501259,4.979936 
	C49.776535,5.969170 50.597950,6.968435 51.804283,8.023575 
	C52.154270,8.523664 52.119343,8.967880 51.978767,10.037323 
	C50.902496,12.710900 49.931877,14.759250 48.705753,16.855778 
	C48.278011,16.880030 48.105770,16.856104 47.961750,16.461987 
	C46.042053,8.835121 45.650242,8.567756 39.127274,10.044020 
	C38.510811,9.418295 37.894344,8.792570 36.982002,8.003210 
z"/>
<path fill="#180712" opacity="1.000000" stroke="none" 
	d="
M4.488848,38.009151 
	C4.488848,38.009151 4.456978,38.019424 4.442085,38.024590 
	C4.358860,35.719437 4.290527,33.409115 4.613333,31.029182 
	C5.004470,30.959566 4.985105,30.985174 4.951531,31.413595 
	C4.774921,33.897728 4.631885,35.953438 4.488848,38.009151 
z"/>
<path fill="#6A0389" opacity="1.000000" stroke="none" 
	d="
M70.971497,43.019737 
	C69.032646,43.983112 67.093796,44.946491 64.743835,46.343002 
	C63.885616,46.873119 63.438515,46.970104 62.628883,46.992970 
	C62.037373,46.054482 61.532490,44.462463 61.618847,44.429718 
	C66.927414,42.416843 65.039619,38.594357 64.495453,35.017044 
	C66.617882,35.008125 68.316109,34.989258 70.282700,35.100266 
	C70.795784,37.174530 71.040497,39.118919 71.237091,41.390953 
	C71.116478,42.152306 71.043983,42.586021 70.971497,43.019737 
z"/>
<path fill="#F4E4F2" opacity="1.000000" stroke="none" 
	d="
M71.064407,43.356216 
	C71.043983,42.586021 71.116478,42.152306 71.602478,41.393982 
	C77.455612,37.690819 78.805969,38.446537 79.029259,44.990597 
	C79.040489,45.319763 79.084572,45.647808 78.965912,46.265747 
	C78.172729,47.077335 77.527000,47.599552 76.881271,48.121765 
	C74.973289,46.645405 73.065308,45.169048 71.064407,43.356216 
z"/>
<path fill="#FBE4F7" opacity="1.000000" stroke="none" 
	d="
M67.148178,58.631138 
	C67.093079,59.142334 67.048019,59.329803 67.008255,59.806450 
	C66.837952,60.112427 66.662354,60.129227 66.251404,60.024307 
	C64.672905,58.353653 63.329746,56.804726 61.834404,54.637436 
	C61.247070,53.288315 60.811916,52.557545 60.374218,51.658520 
	C60.371670,51.490261 60.411682,51.156094 60.820480,51.204391 
	C64.134277,51.591084 67.039284,51.929478 69.944290,52.267868 
	C69.644157,53.878616 69.344032,55.489368 69.028610,57.465408 
	C68.394951,57.989601 67.776588,58.148510 67.148178,58.631138 
z"/>
<path fill="#E532DC" opacity="1.000000" stroke="none" 
	d="
M70.200653,52.028591 
	C67.039284,51.929478 64.134277,51.591084 60.400368,51.152184 
	C58.731243,51.036007 57.891022,51.020340 57.029919,50.743027 
	C57.021618,50.306854 57.034203,50.132324 57.411255,49.967819 
	C59.514282,49.007591 61.252846,48.037338 62.991413,47.067085 
	C63.438515,46.970104 63.885616,46.873119 64.652847,46.650085 
	C68.136940,46.887669 70.982529,47.582912 70.200653,52.028591 
z"/>
<path fill="#8C06AB" opacity="1.000000" stroke="none" 
	d="
M76.923889,48.375202 
	C77.527000,47.599552 78.172729,47.077335 79.208237,46.141933 
	C80.051193,45.418854 80.504379,45.108955 80.957565,44.799065 
	C80.972336,45.910458 80.987106,47.021847 80.999489,48.549454 
	C80.831810,48.989182 80.666527,49.012695 79.889053,49.079391 
	C78.532211,49.127357 77.787560,49.132141 77.042900,49.136925 
	C77.017441,48.967495 76.991974,48.798069 76.923889,48.375202 
z"/>
<path fill="#210A35" opacity="1.000000" stroke="none" 
	d="
M76.966118,49.337967 
	C77.787560,49.132141 78.532211,49.127357 79.648804,49.150063 
	C79.216415,49.445721 78.412086,49.713890 77.271332,49.974533 
	C76.934906,49.967007 76.889336,49.539009 76.966118,49.337967 
z"/>
<path fill="#FB2C81" opacity="1.000000" stroke="none" 
	d="
M57.046791,49.957790 
	C57.034203,50.132324 57.021618,50.306854 57.075062,50.956715 
	C57.280281,51.707294 57.495804,51.894848 57.728474,52.310547 
	C57.465073,53.629166 57.260857,54.631947 57.012962,56.098438 
	C56.614269,59.989262 56.259251,63.416378 55.904236,66.843491 
	C54.807758,66.945541 53.711277,67.047600 52.022301,66.944649 
	C50.590786,65.490639 49.751774,64.241623 48.975571,62.641491 
	C49.485409,61.636318 50.073994,60.359245 50.357769,60.423725 
	C53.507015,61.139263 53.512260,58.719395 54.423550,56.854679 
	C56.774849,52.043381 51.942871,49.745071 51.364639,46.096405 
	C54.760361,45.694000 57.106255,46.197426 57.046791,49.957790 
z"/>
<path fill="#6F0591" opacity="1.000000" stroke="none" 
	d="
M48.912762,62.992611 
	C49.751774,64.241623 50.590786,65.490639 51.697182,66.919617 
	C51.653084,67.857407 51.341606,68.615242 51.018147,69.688324 
	C50.386887,70.808311 49.767612,71.613060 49.045757,72.721222 
	C47.553963,73.020851 46.164753,73.017075 44.628349,72.663269 
	C44.879704,69.617790 45.632038,66.892204 45.406982,64.249870 
	C45.356106,63.652500 41.900406,63.365463 40.022095,62.895267 
	C39.002148,62.639942 38.003448,62.299759 37.307865,61.959969 
	C38.405849,61.283154 39.191135,60.644222 40.363564,60.036469 
	C43.471397,61.042633 46.192078,62.017620 48.912762,62.992611 
z"/>
<path fill="#D830DC" opacity="1.000000" stroke="none" 
	d="
M56.248856,66.956711 
	C56.259251,63.416378 56.614269,59.989262 57.407837,56.235100 
	C58.381054,55.816917 58.915722,55.725784 59.592747,55.446472 
	C59.735104,55.258289 60.063972,54.919827 60.063972,54.919827 
	C59.979259,55.720699 59.532173,56.749462 59.869087,57.285183 
	C61.939697,60.577648 60.802620,63.834667 59.961376,67.496735 
	C58.793175,67.606102 57.693329,67.338013 56.248856,66.956711 
z"/>
<path fill="#14002B" opacity="1.000000" stroke="none" 
	d="
M60.197884,54.747269 
	C60.063972,54.919827 59.735104,55.258289 59.620667,55.093445 
	C59.369175,53.966164 59.232121,53.003723 59.418037,52.002892 
	C59.952934,51.918591 60.164848,51.872684 60.376766,51.826778 
	C60.811916,52.557545 61.247070,53.288315 61.674431,54.298779 
	C61.221691,54.577221 60.776745,54.575966 60.197884,54.747269 
z"/>
<path fill="#E133DA" opacity="1.000000" stroke="none" 
	d="
M36.995163,61.997856 
	C38.003448,62.299759 39.002148,62.639942 40.022095,62.895267 
	C41.900406,63.365463 45.356106,63.652500 45.406982,64.249870 
	C45.632038,66.892204 44.879704,69.617790 44.216850,72.596573 
	C43.523811,72.903618 43.095070,72.927338 42.313446,72.594673 
	C41.937222,72.055168 41.913883,71.872055 41.908600,71.282883 
	C42.765194,66.069328 39.713547,66.910339 36.841049,67.067993 
	C36.218864,66.185066 35.651302,65.646072 34.817001,65.145065 
	C34.465981,65.504066 34.381699,65.825066 34.237747,66.160881 
	C34.178078,66.175690 34.123421,66.065552 33.715233,66.040825 
	C32.490013,65.970695 31.672979,65.925293 30.904377,65.486786 
	C30.274479,63.140099 29.596148,61.186523 28.906401,58.884911 
	C28.241489,58.039959 27.587994,57.543045 26.948975,57.039486 
	C26.963455,57.032845 26.942888,57.068043 26.902895,56.713478 
	C25.553673,55.517540 24.244446,54.676174 23.153973,53.587761 
	C24.241585,53.218193 25.110439,53.095673 26.408455,52.989033 
	C28.809252,53.011551 30.780890,53.018188 32.922432,53.269096 
	C33.668266,54.047543 34.244202,54.581718 34.866905,55.488102 
	C35.607506,57.906158 36.301334,59.952007 36.995163,61.997856 
z"/>
<path fill="#D40CCA" opacity="1.000000" stroke="none" 
	d="
M41.890545,71.688950 
	C41.913883,71.872055 41.937222,72.055168 42.000893,72.512299 
	C40.647842,72.869843 39.254471,72.953377 37.470600,73.171249 
	C36.968998,72.800591 36.857887,72.295578 36.769821,71.352478 
	C36.792866,70.914383 37.015175,70.787979 37.387268,70.819458 
	C39.136421,71.130264 40.513485,71.409607 41.890545,71.688950 
z"/>
<path fill="#DD2DD6" opacity="1.000000" stroke="none" 
	d="
M81.080154,44.614590 
	C80.504379,45.108955 80.051193,45.418854 79.355690,45.852562 
	C79.084572,45.647808 79.040489,45.319763 79.029259,44.990597 
	C78.805969,38.446537 77.455612,37.690819 71.650604,41.066345 
	C71.040497,39.118919 70.795784,37.174530 70.236084,34.879608 
	C69.921112,34.529079 69.826729,34.087719 70.167694,34.059845 
	C70.962814,34.021023 71.416969,34.010075 71.871124,33.999123 
	C73.316162,33.362263 74.761192,32.725407 76.572906,32.079506 
	C76.939583,32.070465 76.942589,32.059063 77.086456,32.353344 
	C78.455368,33.460270 79.680420,34.272915 80.905464,35.085564 
	C80.905464,35.085564 80.989021,35.072659 80.861435,35.319389 
	C80.769539,35.743301 80.805244,35.920483 80.840950,36.097668 
	C80.928108,36.410168 81.107254,36.655479 81.640350,37.346031 
	C81.948425,39.562649 81.994553,41.266834 82.040680,42.971024 
	C82.040680,42.971024 81.957573,43.415867 81.920998,43.639214 
	C81.633781,44.023640 81.406555,44.212826 81.080154,44.614590 
z"/>
<path fill="#FB317C" opacity="1.000000" stroke="none" 
	d="
M48.961258,16.807602 
	C49.931877,14.759250 50.902496,12.710900 52.069618,10.362410 
	C52.587852,10.053680 52.909630,10.051119 53.468437,10.087206 
	C54.818932,11.437360 55.932438,12.754892 56.963943,14.763752 
	C56.314110,17.299952 55.746273,19.144825 55.008858,20.922855 
	C54.839272,20.856012 54.481430,20.798775 54.319374,20.588417 
	C53.832291,20.250341 53.507271,20.122622 53.111961,19.631584 
	C51.681534,18.448044 50.321396,17.627823 48.961258,16.807602 
z"/>
<path fill="#DB2FDD" opacity="1.000000" stroke="none" 
	d="
M55.178440,20.989697 
	C55.746273,19.144825 56.314110,17.299952 57.011528,15.082670 
	C61.910271,17.432640 61.457794,21.339367 58.939293,25.782795 
	C57.540276,26.003794 56.804920,26.006170 56.039845,25.661884 
	C55.652321,24.537363 55.294514,23.759504 54.952866,22.975933 
	C54.969017,22.970221 54.988544,22.998379 54.991051,22.661169 
	C55.055187,21.879206 55.116814,21.434450 55.178440,20.989697 
z"/>
<path fill="#B11CB7" opacity="1.000000" stroke="none" 
	d="
M69.826729,34.087719 
	C69.826729,34.087719 69.921112,34.529079 69.967728,34.749737 
	C68.316109,34.989258 66.617882,35.008125 64.103455,35.011063 
	C59.845249,34.920025 59.994350,32.375378 59.890411,29.712526 
	C59.898579,28.993324 59.883007,28.582657 59.867439,28.171989 
	C60.986076,27.152121 62.104717,26.132252 63.673828,25.107212 
	C64.124306,25.102039 64.346306,25.232939 64.182526,25.637617 
	C63.950672,27.340500 63.844982,28.638027 63.821552,29.937038 
	C63.750504,33.876358 65.355286,35.030254 68.966835,33.163780 
	C69.316238,33.633160 69.571480,33.860439 69.826729,34.087719 
z"/>
<path fill="#E228D9" opacity="1.000000" stroke="none" 
	d="
M70.167694,34.059845 
	C69.571480,33.860439 69.316238,33.633160 69.025436,32.762371 
	C69.515862,28.425047 68.290154,25.912491 64.346306,25.232939 
	C64.346306,25.232939 64.124306,25.102039 64.015541,25.032318 
	C69.457329,23.191139 70.446327,23.836720 71.016464,29.430727 
	C71.146049,30.702217 71.559265,31.944799 71.856529,33.599907 
	C71.416969,34.010075 70.962814,34.021023 70.167694,34.059845 
z"/>
<path fill="#D72ED2" opacity="1.000000" stroke="none" 
	d="
M56.069561,26.008547 
	C56.804920,26.006170 57.540276,26.003794 58.645630,26.003773 
	C59.009392,26.445114 59.003151,26.884098 58.729210,27.850044 
	C57.310787,29.914753 56.160065,31.452503 55.004181,32.995617 
	C54.999016,33.000980 54.990326,33.009670 54.663261,33.005333 
	C53.565739,33.290066 52.795280,33.579136 51.668587,33.926582 
	C50.793613,33.319023 50.274879,32.653095 50.003071,31.734352 
	C51.883739,30.301523 53.517483,29.121508 55.382874,27.781895 
	C55.766201,27.084383 55.917881,26.546465 56.069561,26.008547 
z"/>
<path fill="#DB2FDD" opacity="1.000000" stroke="none" 
	d="
M55.009342,32.990253 
	C56.160065,31.452503 57.310787,29.914753 58.746746,28.178963 
	C59.031982,27.980923 59.454784,28.056190 59.661110,28.114090 
	C59.883007,28.582657 59.898579,28.993324 59.613049,29.865833 
	C57.877747,31.215202 56.443546,32.102730 55.009342,32.990253 
z"/>
<path fill="#8306A4" opacity="1.000000" stroke="none" 
	d="
M78.557259,28.082321 
	C79.045868,28.685440 79.181152,29.362125 79.113365,30.510374 
	C78.254402,31.340981 77.598495,31.700024 76.942589,32.059067 
	C76.942589,32.059063 76.939583,32.070465 76.929161,32.085457 
	C77.347137,30.785597 77.775536,29.470743 78.557259,28.082321 
z"/>
<path fill="#13042A" opacity="1.000000" stroke="none" 
	d="
M64.789879,13.049885 
	C65.010918,14.382108 65.013405,15.703274 65.034073,17.419886 
	C64.705627,16.482655 64.359009,15.149977 64.073387,13.440636 
	C64.134392,13.063971 64.571327,13.038828 64.789879,13.049885 
z"/>
<path fill="#780398" opacity="1.000000" stroke="none" 
	d="
M77.086456,32.353348 
	C77.598495,31.700024 78.254402,31.340981 79.262131,30.822643 
	C80.190231,31.015402 80.766510,31.367451 81.332535,31.988705 
	C81.217407,32.886570 81.112526,33.515236 80.956551,34.614731 
	C79.680420,34.272915 78.455368,33.460270 77.086456,32.353348 
z"/>
<path fill="#44424B" opacity="1.000000" stroke="none" 
	d="
M66.263672,17.934494 
	C66.138809,17.668749 66.286362,17.352964 66.699150,17.023165 
	C66.821617,17.300920 66.678848,17.592690 66.263672,17.934494 
z"/>
<path fill="#ABF800" opacity="1.000000" stroke="none" 
	d="
M11.872130,53.790588 
	C11.529277,54.089863 11.084356,54.075073 10.305546,54.045731 
	C9.981892,52.967892 9.992126,51.904606 10.056077,50.446758 
	C10.663218,51.193634 11.216640,52.335079 11.872130,53.790588 
z"/>
<path fill="#ABF800" opacity="1.000000" stroke="none" 
	d="
M10.002807,47.272240 
	C11.537724,47.105831 13.078250,47.185352 14.747335,47.627071 
	C13.552757,47.997963 12.229616,48.006657 10.509608,48.007149 
	C10.112741,47.998955 10.008413,47.518166 10.002807,47.272240 
z"/>
<path fill="#D62FD2" opacity="1.000000" stroke="none" 
	d="
M22.935217,53.834805 
	C24.244446,54.676174 25.553673,55.517540 26.484020,56.728050 
	C21.427814,56.631676 23.358088,60.383812 22.676451,62.468754 
	C21.767822,62.039482 20.859194,61.610214 19.693661,61.019657 
	C19.347834,60.698460 19.258913,60.538548 19.422207,60.115101 
	C19.885712,59.780979 20.097002,59.710392 20.592722,59.674049 
	C20.744678,58.833836 20.612209,57.959381 20.368259,56.722260 
	C20.194866,55.603821 20.132954,54.848049 20.084713,54.136948 
	C20.098387,54.181618 20.191305,54.171856 20.533836,54.124474 
	C21.562653,53.996330 22.248934,53.915569 22.935217,53.834805 
z"/>
<path fill="#9EED08" opacity="1.000000" stroke="none" 
	d="
M18.066231,50.908806 
	C18.461954,49.204319 18.857676,47.499836 19.797499,46.114250 
	C21.250124,47.679829 22.158648,48.926510 22.947025,50.407547 
	C22.219269,50.966358 21.611660,51.290813 20.754639,51.434654 
	C19.692228,51.138962 18.879230,51.023884 18.066231,50.908806 
z"/>
<path fill="#11807A" opacity="1.000000" stroke="none" 
	d="
M23.067173,50.173187 
	C22.158648,48.926510 21.250124,47.679829 20.208435,46.119324 
	C20.033531,45.409267 19.991795,45.013039 19.915796,44.296577 
	C19.881535,43.976341 19.970201,43.946823 20.219925,44.018608 
	C20.640945,44.064625 20.812241,44.038857 21.238411,44.069729 
	C21.664627,44.095722 21.835968,44.065075 22.148918,44.156002 
	C22.290524,44.277580 22.662621,44.307240 22.755840,44.627979 
	C23.637192,45.916286 24.425325,46.883854 25.181749,48.222816 
	C24.455751,49.120533 23.761463,49.646862 23.067173,50.173187 
z"/>
<path fill="#0A0B16" opacity="1.000000" stroke="none" 
	d="
M20.308294,59.639809 
	C20.097002,59.710392 19.885712,59.780979 19.341694,59.852722 
	C18.598543,59.138340 18.188120,58.422802 17.823639,57.012314 
	C18.603401,55.575668 19.337219,54.833977 20.071039,54.092281 
	C20.132954,54.848049 20.194866,55.603821 20.299797,57.039886 
	C20.331306,58.360058 20.319799,58.999935 20.308294,59.639809 
z"/>
<path fill="#026976" opacity="1.000000" stroke="none" 
	d="
M20.084713,54.136948 
	C19.337219,54.833977 18.603401,55.575668 17.780354,56.682404 
	C17.631531,55.444283 17.571938,53.841122 18.098354,52.056786 
	C19.120169,51.924229 19.555973,51.972847 19.993612,52.382027 
	C20.060734,53.219009 20.126019,53.695435 20.191303,54.171856 
	C20.191305,54.171856 20.098387,54.181618 20.084713,54.136948 
z"/>
<path fill="#005185" opacity="1.000000" stroke="none" 
	d="
M19.845371,44.005932 
	C19.005320,44.192486 18.201429,44.349449 16.934170,44.564018 
	C16.311472,43.821568 16.152142,43.021507 16.301041,42.133919 
	C17.024693,41.949207 17.440117,41.852028 18.186184,41.814346 
	C18.963196,41.893559 19.409565,41.913261 19.913677,42.265625 
	C19.971014,43.047798 19.970608,43.497311 19.970201,43.946823 
	C19.970201,43.946823 19.881535,43.976341 19.845371,44.005932 
z"/>
<path fill="#0A6A99" opacity="1.000000" stroke="none" 
	d="
M15.992812,42.221451 
	C16.152142,43.021507 16.311472,43.821568 16.722580,44.803032 
	C16.872997,46.166004 16.771631,47.347565 16.358629,48.696899 
	C15.851725,48.022617 15.656456,47.180557 15.205887,46.126488 
	C14.950585,45.914471 14.957325,45.498096 14.972749,44.999046 
	C14.977798,44.306305 14.967424,44.112617 15.006743,43.598621 
	C15.136545,42.854771 15.216654,42.431225 15.480154,42.030579 
	C15.663547,42.053478 15.992812,42.221451 15.992812,42.221451 
z"/>
<path fill="#56AF40" opacity="1.000000" stroke="none" 
	d="
M19.991777,52.021461 
	C19.555973,51.972847 19.120169,51.924229 18.361721,51.805691 
	C18.039078,51.735771 18.028248,51.321705 18.047239,51.115257 
	C18.879230,51.023884 19.692228,51.138962 20.514528,51.567261 
	C20.346478,51.927479 20.169128,51.974472 19.991777,52.021461 
z"/>
<path fill="#8F05AC" opacity="1.000000" stroke="none" 
	d="
M27.956369,70.128876 
	C28.002645,69.657501 28.048922,69.186134 28.124298,68.325760 
	C28.153399,67.936752 28.435400,67.812317 28.555645,67.824677 
	C28.675888,67.837029 28.905178,67.923241 29.126204,68.192383 
	C30.566210,68.303726 31.785189,68.145927 32.952599,67.912849 
	C32.901031,67.837570 32.828209,67.670219 33.213604,67.742966 
	C33.857533,67.854729 34.116070,67.893745 34.540558,67.845016 
	C34.706512,67.757263 35.030842,67.946404 35.018784,68.262802 
	C34.985909,69.000084 34.965092,69.420959 34.950802,69.951752 
	C34.957329,70.061653 35.067715,70.252182 35.067715,70.252182 
	C33.676430,70.260376 32.285149,70.268570 30.139874,70.189034 
	C28.909376,70.110497 28.432873,70.119690 27.956369,70.128876 
z"/>
<path fill="#31074D" opacity="1.000000" stroke="none" 
	d="
M27.826611,70.317520 
	C28.432873,70.119690 28.909376,70.110497 29.724113,70.221359 
	C29.456820,70.564178 28.851294,70.786934 27.915051,70.979858 
	C27.584332,70.950027 27.696852,70.506149 27.826611,70.317520 
z"/>
<path fill="#31074D" opacity="1.000000" stroke="none" 
	d="
M36.678825,70.972214 
	C36.149857,70.894073 35.734932,70.758110 35.193863,70.437164 
	C35.067715,70.252182 34.957329,70.061653 35.233521,70.012253 
	C35.887653,70.030624 36.265591,70.098404 36.753971,70.311157 
	C36.864414,70.456123 37.015175,70.787979 37.015175,70.787979 
	C37.015175,70.787979 36.792866,70.914383 36.678825,70.972214 
z"/>
<path fill="#FEF9FB" opacity="1.000000" stroke="none" 
	d="
M22.775833,62.762554 
	C23.358088,60.383812 21.427814,56.631676 26.524014,57.082619 
	C26.942888,57.068043 26.963455,57.032845 27.114653,57.287304 
	C27.816504,58.105492 28.367159,58.669220 28.917814,59.232948 
	C29.596148,61.186523 30.274479,63.140099 30.917709,65.511024 
	C30.882607,65.928375 30.935240,65.914772 30.525421,65.939728 
	C28.745344,65.936760 27.375082,65.908836 25.900757,65.664398 
	C25.571569,65.139305 25.285229,65.064171 24.717064,65.141312 
	C24.496462,65.060135 24.032730,65.137451 23.793552,65.032730 
	C23.380316,64.926605 23.206255,64.925201 23.032194,64.923790 
	C22.979868,64.301308 22.927542,63.678833 22.775833,62.762554 
z"/>
<path fill="#02090C" opacity="1.000000" stroke="none" 
	d="
M24.032730,65.137451 
	C24.032730,65.137451 24.496462,65.060135 24.706171,65.430389 
	C24.877125,66.180954 24.838369,66.561264 24.799614,66.941574 
	C24.402037,66.960716 24.004461,66.979858 23.308929,66.997421 
	C23.010977,66.995850 23.016520,66.630653 23.199780,66.263489 
	C23.599602,65.643372 23.816166,65.390411 24.032730,65.137451 
z"/>
<path fill="#46434C" opacity="1.000000" stroke="none" 
	d="
M23.793552,65.032730 
	C23.816166,65.390411 23.599602,65.643372 23.211477,66.081245 
	C23.018837,66.042557 22.997755,65.818954 23.004433,65.259567 
	C23.206255,64.925201 23.380316,64.926605 23.793552,65.032730 
z"/>
<path fill="#970A4D" opacity="1.000000" stroke="none" 
	d="
M16.301041,42.133919 
	C15.992812,42.221451 15.663547,42.053478 15.372037,41.841736 
	C15.080527,41.629990 14.935204,41.220131 14.935204,41.220131 
	C14.955820,40.734070 14.976436,40.248013 15.227640,39.232727 
	C15.634158,38.152931 15.810088,37.602360 16.179531,36.994698 
	C16.653925,36.912899 16.886452,36.793842 17.276104,36.610634 
	C17.481583,36.640823 17.895334,36.604218 17.889530,36.582932 
	C17.883728,36.561646 17.871880,36.580391 17.877472,37.007759 
	C17.942541,38.000343 18.002016,38.565556 18.007629,39.456764 
	C17.921026,40.440121 17.888283,41.097485 17.855539,41.754845 
	C17.440117,41.852028 17.024693,41.949207 16.301041,42.133919 
z"/>
<path fill="#92004D" opacity="1.000000" stroke="none" 
	d="
M15.986019,37.051792 
	C15.810088,37.602360 15.634158,38.152931 15.210205,38.867905 
	C13.585712,39.024361 12.209241,39.016415 10.411592,38.982567 
	C9.990414,38.956669 9.970138,38.914955 9.988844,38.559628 
	C10.025915,37.729660 10.044279,37.255016 10.441082,36.833466 
	C11.322512,36.833321 11.825501,36.780083 12.688618,36.803833 
	C13.780326,36.852245 14.511907,36.823669 15.432631,36.849117 
	C15.621772,36.903141 15.986018,37.051792 15.986019,37.051792 
z"/>
<path fill="#A76E58" opacity="1.000000" stroke="none" 
	d="
M9.198457,40.732605 
	C8.673332,40.943317 8.255418,40.902908 7.528233,40.806931 
	C7.113914,40.349411 7.008865,39.947460 7.123250,39.262436 
	C8.218501,38.957897 9.094319,38.936424 9.970138,38.914955 
	C9.970138,38.914955 9.990414,38.956669 9.997854,38.978645 
	C9.772086,39.494244 9.538877,39.987865 9.198457,40.732605 
z"/>
<path fill="#BFA09C" opacity="1.000000" stroke="none" 
	d="
M14.670084,41.303284 
	C14.935204,41.220131 15.080527,41.629990 15.188644,41.818832 
	C15.216654,42.431225 15.136545,42.854771 14.679026,43.588326 
	C14.084926,43.869492 13.868239,43.840649 13.651552,43.811802 
	C13.645961,43.418945 13.640369,43.026085 13.573278,42.342804 
	C13.809506,41.830399 14.107235,41.608418 14.670084,41.303284 
z"/>
<path fill="#962F54" opacity="1.000000" stroke="none" 
	d="
M9.988844,38.559628 
	C9.094319,38.936424 8.218501,38.957897 6.903132,39.041382 
	C5.822781,38.969212 5.181979,38.835030 4.515012,38.355000 
	C4.631885,35.953438 4.774921,33.897728 4.949106,31.398540 
	C5.406878,30.947042 5.833501,30.939018 6.579971,30.913401 
	C7.586686,30.692118 8.273555,30.488432 8.934618,29.922806 
	C8.908812,29.560867 8.829319,29.619713 8.829319,29.619713 
	C8.829319,29.619713 9.075263,29.386475 9.162338,29.240574 
	C9.887972,29.944450 10.526530,30.794228 11.472417,32.185192 
	C11.858514,33.199314 11.937284,33.672241 11.986016,34.108200 
	C11.955979,34.071224 11.991146,33.981319 11.640160,33.982853 
	C10.880330,34.916382 10.471486,35.848381 10.062643,36.780376 
	C10.044279,37.255016 10.025915,37.729660 9.988844,38.559628 
z"/>
<path fill="#3C8C98" opacity="1.000000" stroke="none" 
	d="
M13.367751,43.815872 
	C13.868239,43.840649 14.084926,43.869492 14.629332,43.908630 
	C14.967424,44.112617 14.977798,44.306305 14.967667,44.790894 
	C14.104345,44.915661 13.261529,44.749535 12.200135,44.341999 
	C12.349023,44.007042 12.716487,43.913494 13.367751,43.815872 
z"/>
<path fill="#7F3380" opacity="1.000000" stroke="none" 
	d="
M24.764324,67.197418 
	C24.838369,66.561264 24.877125,66.180954 24.926773,65.511566 
	C25.285229,65.064171 25.571569,65.139305 25.949593,65.996689 
	C26.880131,66.967758 27.657766,67.390038 28.435402,67.812317 
	C28.435400,67.812317 28.153399,67.936752 28.008087,67.988777 
	C27.245964,68.160706 26.629156,68.280609 25.776165,68.613998 
	C25.193939,68.834801 24.847895,68.842110 24.243599,68.824081 
	C24.233244,68.350258 24.481140,67.901764 24.764324,67.197418 
z"/>
<path fill="#10081B" opacity="1.000000" stroke="none" 
	d="
M55.151226,27.941490 
	C53.517483,29.121508 51.883739,30.301523 49.601089,31.733326 
	C46.814877,31.988008 44.677567,31.990902 42.352249,31.703526 
	C41.117550,31.489149 40.070854,31.565044 39.035606,31.670246 
	C39.047050,31.699554 39.087494,31.749454 39.543938,31.698111 
	C40.180759,27.387911 39.470016,26.325422 36.566338,26.999283 
	C35.908310,27.433853 35.462299,27.699282 34.988701,27.624273 
	C34.923759,26.829996 34.886402,26.376160 34.849045,25.922321 
	C35.255119,25.232264 35.661190,24.542208 36.490803,23.525215 
	C37.966053,21.817064 39.017757,20.435844 40.053429,19.043617 
	C40.037388,19.032608 40.041801,19.057045 40.304512,18.916214 
	C40.731956,18.208557 40.896687,17.641727 41.426247,17.019394 
	C43.838558,16.919987 45.886047,16.876083 47.933533,16.832180 
	C48.105770,16.856104 48.278011,16.880030 48.705753,16.855778 
	C50.321396,17.627823 51.681534,18.448044 52.997040,19.923630 
	C52.718250,20.921675 52.484089,21.264357 52.249924,21.607038 
	C52.808582,21.739138 53.367241,21.871237 54.025894,22.242832 
	C54.413437,22.654345 54.700993,22.826361 54.988544,22.998379 
	C54.988544,22.998379 54.969017,22.970221 55.000160,23.389149 
	C55.071278,25.185883 55.111252,26.563686 55.151226,27.941490 
z"/>
<path fill="#730893" opacity="1.000000" stroke="none" 
	d="
M34.610920,26.099670 
	C34.886402,26.376160 34.923759,26.829996 34.983780,27.952778 
	C35.002510,29.058962 34.998573,29.496204 34.997803,30.321997 
	C35.789856,31.138918 36.578739,31.567289 37.502510,31.975613 
	C37.637390,31.955568 37.910091,31.959249 38.023460,32.186298 
	C38.413395,32.601948 38.689964,32.790550 39.150421,33.217697 
	C39.852001,33.733696 40.369701,34.011150 40.920296,34.455574 
	C40.953190,34.622547 41.009308,34.958248 40.631294,35.061005 
	C39.974274,38.066200 39.695267,40.968636 38.969055,43.902283 
	C37.925133,43.905609 37.328419,43.877728 36.806850,43.489758 
	C35.946571,41.007374 35.011147,38.885082 33.952507,36.530487 
	C33.301449,35.845856 32.773613,35.393532 32.100216,34.688080 
	C31.623774,34.260227 31.292891,34.085506 30.531494,33.877174 
	C28.661959,33.859436 27.222940,33.875301 25.590996,33.858501 
	C25.398071,33.825836 25.010094,33.774647 25.035732,33.428661 
	C25.016443,32.395630 24.971514,31.708588 25.015079,30.758423 
	C25.397709,30.030582 25.691843,29.565863 26.333164,29.022575 
	C28.116268,28.329046 29.552187,27.714081 30.988104,27.099113 
	C32.116333,26.825083 33.244564,26.551052 34.610920,26.099670 
z"/>
<path fill="#F8EAF6" opacity="1.000000" stroke="none" 
	d="
M30.921413,26.684082 
	C29.552187,27.714081 28.116268,28.329046 26.023941,28.866035 
	C24.241051,27.979897 23.114571,27.171736 21.988091,26.363575 
	C22.425503,24.473938 22.862913,22.584301 23.317520,20.620371 
	C29.066032,19.352657 30.822647,20.630859 30.921413,26.684082 
z"/>
<path fill="#03837C" opacity="1.000000" stroke="none" 
	d="
M21.714075,26.226902 
	C23.114571,27.171736 24.241051,27.979897 25.676754,28.944599 
	C25.691843,29.565863 25.397709,30.030582 24.789959,30.763870 
	C24.476343,31.032438 24.027056,31.065941 23.718552,31.058231 
	C23.204821,31.064936 22.999594,31.079351 22.573532,31.013557 
	C21.947208,30.722281 21.541714,30.511215 20.765038,30.208862 
	C19.632313,30.106094 18.870771,30.094610 17.759510,30.055305 
	C16.943277,30.002817 16.476765,29.978149 16.010252,29.953484 
	C16.377041,27.034321 16.743832,24.115156 17.573919,21.497189 
	C18.119425,25.417288 18.119425,25.417288 20.034691,24.970587 
	C20.503147,25.343801 20.971603,25.717014 21.714075,26.226902 
z"/>
<path fill="#00040D" opacity="1.000000" stroke="none" 
	d="
M20.004467,24.546041 
	C18.119425,25.417288 18.119425,25.417288 17.974457,21.431662 
	C17.960869,20.325634 18.010044,19.586327 18.123688,18.482536 
	C18.783518,20.119200 19.378880,22.120348 20.004467,24.546041 
z"/>
<path fill="#7D079F" opacity="1.000000" stroke="none" 
	d="
M40.069466,19.054626 
	C39.017757,20.435844 37.966053,21.817064 36.547401,23.223148 
	C36.107815,22.115181 36.035179,20.982346 36.207207,19.423470 
	C36.637001,18.995361 36.822136,18.993294 37.389782,18.994520 
	C38.538013,19.016750 39.303741,19.035688 40.069466,19.054626 
z"/>
<path fill="#7B07A0" opacity="1.000000" stroke="none" 
	d="
M37.007275,18.991226 
	C36.822136,18.993294 36.637001,18.995361 36.173317,18.999817 
	C35.894768,19.002207 35.744244,18.658075 35.682480,18.481710 
	C35.620720,18.305346 35.814983,18.155153 36.129166,18.182467 
	C36.717606,18.407988 36.905582,18.668468 37.007275,18.991226 
z"/>
<path fill="#099968" opacity="1.000000" stroke="none" 
	d="
M15.685516,30.151592 
	C16.476765,29.978149 16.943277,30.002817 17.716202,30.291609 
	C18.022612,30.555735 18.044313,31.036623 17.995770,31.494900 
	C17.929926,33.503525 17.912630,35.053871 17.895334,36.604218 
	C17.895334,36.604218 17.481583,36.640823 17.291855,36.308372 
	C16.955372,35.556229 16.808615,35.136532 16.661858,34.716839 
	C16.224651,35.081333 15.787445,35.445824 15.239426,35.466438 
	C14.091092,34.796761 13.053573,34.470966 12.016054,34.145172 
	C11.937284,33.672241 11.858514,33.199314 11.680235,32.374710 
	C12.840744,31.465256 14.100762,30.907480 15.685516,30.151592 
z"/>
<path fill="#DC2ED8" opacity="1.000000" stroke="none" 
	d="
M47.961750,16.461987 
	C45.886047,16.876083 43.838558,16.919987 41.164368,16.985752 
	C40.362072,16.993690 40.186481,16.979765 39.975090,16.670593 
	C39.624485,15.917310 39.309685,15.459270 38.994884,15.001232 
	C39.014492,13.622928 39.034103,12.244623 39.090492,10.455170 
	C45.650242,8.567756 46.042053,8.835121 47.961750,16.461987 
z"/>
<path fill="#8209A2" opacity="1.000000" stroke="none" 
	d="
M38.623985,15.007822 
	C39.309685,15.459270 39.624485,15.917310 39.971870,17.019348 
	C40.016907,18.127914 40.029354,18.592480 40.041801,19.057045 
	C40.041801,19.057045 40.037388,19.032608 40.053429,19.043617 
	C39.303741,19.035688 38.538013,19.016750 37.389782,18.994520 
	C36.905582,18.668468 36.717606,18.407988 36.223312,18.103657 
	C36.753212,17.003160 37.503147,16.008787 38.623985,15.007822 
z"/>
<path fill="#000003" opacity="1.000000" stroke="none" 
	d="
M8.727101,29.622509 
	C8.829319,29.619713 8.908812,29.560867 8.882042,29.519890 
	C8.855272,29.478912 8.581031,29.429264 8.581031,29.429264 
	C8.581031,29.429264 8.624884,29.625307 8.727101,29.622509 
z"/>
<path fill="#710096" opacity="1.000000" stroke="none" 
	d="
M82.312561,42.722740 
	C81.994553,41.266834 81.948425,39.562649 81.855057,37.433319 
	C82.066689,38.830276 82.325562,40.652367 82.312561,42.722740 
z"/>
<path fill="#780398" opacity="1.000000" stroke="none" 
	d="
M81.033798,36.003090 
	C80.805244,35.920483 80.769539,35.743301 80.820587,35.308914 
	C81.102165,35.228607 81.304863,35.398556 81.478073,35.594551 
	C81.493248,35.611721 81.315033,35.799809 81.033798,36.003090 
z"/>
<path fill="#D72ED2" opacity="1.000000" stroke="none" 
	d="
M55.004181,32.995617 
	C56.443546,32.102730 57.877747,31.215202 59.589317,30.174370 
	C59.994350,32.375378 59.845249,34.920025 63.679253,35.001114 
	C65.039619,38.594357 66.927414,42.416843 61.618847,44.429718 
	C61.532490,44.462463 62.037373,46.054482 62.628883,46.992970 
	C61.252846,48.037338 59.514282,49.007591 57.411255,49.967819 
	C57.106255,46.197426 54.760361,45.694000 51.036766,45.994648 
	C49.528210,45.637833 48.754082,45.347958 48.031578,44.687622 
	C48.138020,44.073883 48.192833,43.830616 48.651089,43.787731 
	C51.177452,43.450451 54.839493,46.895222 55.294121,41.401001 
	C55.506065,39.961868 55.561893,38.758717 55.672447,37.255192 
	C55.482182,35.977745 55.237190,35.000671 54.994781,33.770107 
	C54.995022,33.347637 54.992676,33.178654 54.990326,33.009670 
	C54.990326,33.009670 54.999016,33.000980 55.004181,32.995617 
z"/>
<path fill="#D72ED2" opacity="1.000000" stroke="none" 
	d="
M60.374218,51.658520 
	C60.164848,51.872684 59.952934,51.918591 59.092293,51.954422 
	C58.224930,51.961140 58.006290,51.977924 57.787655,51.994713 
	C57.495804,51.894848 57.280281,51.707294 57.095943,51.218361 
	C57.891022,51.020340 58.731243,51.036007 59.991573,51.103882 
	C60.411682,51.156094 60.371670,51.490261 60.374218,51.658520 
z"/>
<path fill="#100718" opacity="1.000000" stroke="none" 
	d="
M47.979950,45.058086 
	C48.754082,45.347958 49.528210,45.637833 50.630211,46.029461 
	C51.942871,49.745071 56.774849,52.043381 54.423550,56.854679 
	C53.512260,58.719395 53.507015,61.139263 50.357769,60.423725 
	C50.073994,60.359245 49.485409,61.636318 48.975571,62.641491 
	C46.192078,62.017620 43.471397,61.042633 40.362198,59.663368 
	C39.172325,58.183556 38.370972,57.108021 37.806511,55.685959 
	C39.032269,51.869537 40.021130,48.399643 41.445862,44.945766 
	C43.914471,44.993885 45.947212,45.025986 47.979950,45.058086 
M41.393509,53.486847 
	C42.252411,54.712387 43.111313,55.937931 43.970215,57.163471 
	C44.614990,57.055206 45.259766,56.946941 45.904541,56.838673 
	C45.904541,55.062511 45.904541,53.286346 45.904541,51.510185 
	C44.411114,51.940796 42.917686,52.371407 41.393509,53.486847 
z"/>
<path fill="#7C09A1" opacity="1.000000" stroke="none" 
	d="
M57.728474,52.310547 
	C58.006290,51.977924 58.224930,51.961140 58.769318,51.992821 
	C59.232121,53.003723 59.369175,53.966164 59.478310,55.281624 
	C58.915722,55.725784 58.381054,55.816917 57.451511,55.771389 
	C57.260857,54.631947 57.465073,53.629166 57.728474,52.310547 
z"/>
<path fill="#850BA0" opacity="1.000000" stroke="none" 
	d="
M37.569618,56.032486 
	C38.370972,57.108021 39.172325,58.183556 39.975048,59.632191 
	C39.191135,60.644222 38.405849,61.283154 37.307865,61.959969 
	C36.301334,59.952007 35.607506,57.906158 35.172005,55.454811 
	C36.143433,55.377041 36.856525,55.704762 37.569618,56.032486 
z"/>
<path fill="#5E077C" opacity="1.000000" stroke="none" 
	d="
M37.806511,55.685959 
	C36.856525,55.704762 36.143433,55.377041 35.125237,55.082603 
	C34.244202,54.581718 33.668266,54.047543 32.703869,52.996597 
	C30.203367,52.644272 28.091331,52.808712 25.979296,52.973152 
	C25.110439,53.095673 24.241585,53.218193 23.153973,53.587761 
	C22.248934,53.915569 21.562653,53.996330 20.533836,54.124474 
	C20.126019,53.695435 20.060734,53.219009 19.993612,52.382027 
	C20.169128,51.974472 20.346478,51.927479 20.763939,51.747871 
	C21.611660,51.290813 22.219269,50.966358 22.947025,50.407547 
	C23.761463,49.646862 24.455751,49.120533 25.563843,48.248203 
	C27.268936,47.912052 28.560226,47.921906 30.058992,48.239307 
	C34.532486,49.886810 35.672012,46.923275 36.731701,43.849850 
	C37.328419,43.877728 37.925133,43.905609 39.239395,43.917877 
	C40.320663,43.953808 40.684387,44.005356 41.012817,44.273987 
	C40.977524,44.491074 41.009995,44.929749 41.009995,44.929749 
	C40.021130,48.399643 39.032269,51.869537 37.806511,55.685959 
z"/>
<path fill="#FCD5F8" opacity="1.000000" stroke="none" 
	d="
M37.387268,70.819458 
	C37.015175,70.787979 36.864414,70.456123 36.774708,69.876328 
	C36.693905,68.714111 36.702805,68.131699 36.748478,67.502594 
	C36.785252,67.455902 36.895672,67.411919 36.895672,67.411919 
	C39.713547,66.910339 42.765194,66.069328 41.908600,71.282883 
	C40.513485,71.409607 39.136421,71.130264 37.387268,70.819458 
z"/>
<path fill="#0C001D" opacity="1.000000" stroke="none" 
	d="
M36.841049,67.067993 
	C36.895672,67.411919 36.785252,67.455902 36.459419,67.544090 
	C35.766003,67.736984 35.398422,67.841698 35.030842,67.946411 
	C35.030842,67.946404 34.706512,67.757263 34.530132,67.530609 
	C34.276974,66.891159 34.200199,66.478355 34.123421,66.065552 
	C34.123421,66.065552 34.178078,66.175690 34.414688,66.027802 
	C34.828217,65.640633 34.972363,65.383018 35.083740,65.107071 
	C35.651302,65.646072 36.218864,66.185066 36.841049,67.067993 
z"/>
<path fill="#D62FD2" opacity="1.000000" stroke="none" 
	d="
M26.408455,52.989033 
	C28.091331,52.808712 30.203367,52.644272 32.533966,52.752327 
	C30.780890,53.018188 28.809252,53.011551 26.408455,52.989033 
z"/>
<path fill="#EA33E1" opacity="1.000000" stroke="none" 
	d="
M33.715233,66.040825 
	C34.200199,66.478355 34.276974,66.891159 34.364182,67.618362 
	C34.116070,67.893745 33.857533,67.854729 33.043579,67.549561 
	C31.970522,66.827209 31.452881,66.370987 30.935240,65.914772 
	C30.935240,65.914772 30.882607,65.928375 30.869276,65.904137 
	C31.672979,65.925293 32.490013,65.970695 33.715233,66.040825 
z"/>
<path fill="#D62FD2" opacity="1.000000" stroke="none" 
	d="
M28.906401,58.884911 
	C28.367159,58.669220 27.816504,58.105492 27.100174,57.293945 
	C27.587994,57.543045 28.241489,58.039959 28.906401,58.884911 
z"/>
<path fill="#8F05AC" opacity="1.000000" stroke="none" 
	d="
M34.817001,65.145065 
	C34.972363,65.383018 34.828217,65.640633 34.474358,66.012985 
	C34.381699,65.825066 34.465981,65.504066 34.817001,65.145065 
z"/>
<path fill="#FEF3FB" opacity="1.000000" stroke="none" 
	d="
M53.925900,22.003336 
	C53.367241,21.871237 52.808582,21.739138 52.249924,21.607038 
	C52.484089,21.264357 52.718250,20.921675 53.067329,20.286949 
	C53.507271,20.122622 53.832291,20.250341 54.161453,20.880997 
	C54.085693,21.590401 54.005798,21.796867 53.925900,22.003336 
z"/>
<path fill="#F885A8" opacity="1.000000" stroke="none" 
	d="
M54.025894,22.242832 
	C54.005798,21.796867 54.085693,21.590401 54.323509,21.091354 
	C54.481430,20.798775 54.839272,20.856012 55.008858,20.922855 
	C55.116814,21.434450 55.055187,21.879206 54.991051,22.661169 
	C54.700993,22.826361 54.413437,22.654345 54.025894,22.242832 
z"/>
<path fill="#FF4984" opacity="1.000000" stroke="none" 
	d="
M55.382874,27.781895 
	C55.111252,26.563686 55.071278,25.185883 54.984009,23.394863 
	C55.294514,23.759504 55.652321,24.537363 56.039845,25.661884 
	C55.917881,26.546465 55.766201,27.084383 55.382874,27.781895 
z"/>
<path fill="#FAD6F5" opacity="1.000000" stroke="none" 
	d="
M64.182526,25.637617 
	C68.290154,25.912491 69.515862,28.425047 68.931282,32.520271 
	C65.355286,35.030254 63.750504,33.876358 63.821552,29.937038 
	C63.844982,28.638027 63.950672,27.340500 64.182526,25.637617 
z"/>
<path fill="#17071D" opacity="1.000000" stroke="none" 
	d="
M55.138000,41.636978 
	C54.839493,46.895222 51.177452,43.450451 48.764210,43.479286 
	C50.715218,40.910835 51.639439,39.650143 49.252785,36.143723 
	C47.091503,32.968410 44.168568,34.757809 42.355099,32.655975 
	C42.344799,32.421207 42.540257,31.993795 42.540257,31.993797 
	C44.677567,31.990902 46.814877,31.988008 49.354164,31.986139 
	C50.274879,32.653095 50.793613,33.319023 52.034172,34.000305 
	C53.501396,34.018303 54.246796,34.020950 54.992199,34.023594 
	C55.237190,35.000671 55.482182,35.977745 55.304291,36.977665 
	C54.582638,37.016064 54.283863,37.031616 53.685028,37.194519 
	C53.393116,38.220387 53.401268,39.098900 53.368835,40.289902 
	C53.931503,40.947254 54.534752,41.292118 55.138000,41.636978 
z"/>
<path fill="#DB2FDD" opacity="1.000000" stroke="none" 
	d="
M54.994781,33.770107 
	C54.246796,34.020950 53.501396,34.018303 52.390411,33.941933 
	C52.795280,33.579136 53.565739,33.290066 54.663261,33.005333 
	C54.992676,33.178654 54.995022,33.347637 54.994781,33.770107 
z"/>
<path fill="#F700E9" opacity="1.000000" stroke="none" 
	d="
M20.592722,59.674049 
	C20.319799,58.999935 20.331306,58.360058 20.411276,57.402557 
	C20.612209,57.959381 20.744678,58.833836 20.592722,59.674049 
z"/>
<path fill="#E024D7" opacity="1.000000" stroke="none" 
	d="
M25.783920,33.891167 
	C27.222940,33.875301 28.661959,33.859436 30.670059,34.131592 
	C31.574686,34.593475 31.910231,34.767342 32.245773,34.941208 
	C32.773613,35.393532 33.301449,35.845856 33.926270,36.933395 
	C33.016975,39.045288 32.010700,40.521969 30.640980,41.913120 
	C28.074333,40.786369 25.871134,39.745148 23.085579,38.428707 
	C22.870205,41.422085 22.766413,42.864662 22.662621,44.307240 
	C22.662621,44.307240 22.290524,44.277580 22.143522,43.716633 
	C21.998104,41.119961 21.999687,39.084232 22.182739,36.885109 
	C22.612894,36.508423 22.831371,36.267715 23.368549,36.001881 
	C24.462887,35.593742 25.208311,35.183308 25.919189,34.550926 
	C25.884642,34.328979 25.783920,33.891171 25.783920,33.891167 
z"/>
<path fill="#F9EBF8" opacity="1.000000" stroke="none" 
	d="
M22.755838,44.627979 
	C22.766413,42.864662 22.870205,41.422085 23.085579,38.428707 
	C25.871134,39.745148 28.074333,40.786369 30.645058,42.303913 
	C30.625563,44.497410 30.238541,46.214584 29.851519,47.931759 
	C28.560226,47.921906 27.268936,47.912052 25.595551,47.876808 
	C24.425325,46.883854 23.637192,45.916286 22.755838,44.627979 
z"/>
<path fill="#A72FB7" opacity="1.000000" stroke="none" 
	d="
M20.219925,44.018608 
	C19.970608,43.497311 19.971014,43.047798 19.996552,41.907799 
	C19.962591,40.490356 19.903500,39.763397 19.901731,38.692451 
	C19.980265,37.883526 20.001476,37.418583 19.988132,36.979088 
	C19.953575,37.004536 19.900034,36.937450 20.192127,36.932438 
	C20.671192,36.981796 20.858164,37.036171 21.018024,37.519981 
	C20.988451,39.970646 20.985994,41.991863 20.983538,44.013084 
	C20.812241,44.038857 20.640945,44.064625 20.219925,44.018608 
z"/>
<path fill="#FC0BEA" opacity="1.000000" stroke="none" 
	d="
M21.238411,44.069729 
	C20.985994,41.991863 20.988451,39.970646 21.255281,37.469528 
	C21.519653,36.989635 22.001270,37.048508 22.001270,37.048508 
	C21.999687,39.084232 21.998104,41.119961 22.001915,43.595055 
	C21.835968,44.065075 21.664627,44.095722 21.238411,44.069729 
z"/>
<path fill="#000A1A" opacity="1.000000" stroke="none" 
	d="
M19.844410,39.036438 
	C19.903500,39.763397 19.962591,40.490356 19.938808,41.575142 
	C19.409565,41.913261 18.963196,41.893559 18.186184,41.814346 
	C17.888283,41.097485 17.921026,40.440121 18.304153,39.433899 
	C19.051163,39.068836 19.447786,39.052635 19.844410,39.036438 
z"/>
<path fill="#E20CDB" opacity="1.000000" stroke="none" 
	d="
M30.525421,65.939728 
	C31.452881,66.370987 31.970522,66.827209 32.658188,67.476822 
	C32.828209,67.670219 32.901031,67.837570 32.545166,67.881180 
	C31.094595,67.924271 29.999887,67.923752 28.905178,67.923241 
	C28.905178,67.923241 28.675888,67.837029 28.555645,67.824677 
	C27.657766,67.390038 26.880131,66.967758 26.053658,66.213196 
	C27.375082,65.908836 28.745344,65.936760 30.525421,65.939728 
z"/>
<path fill="#7F1599" opacity="1.000000" stroke="none" 
	d="
M29.126204,68.192383 
	C29.999887,67.923752 31.094595,67.924271 32.596737,67.956459 
	C31.785189,68.145927 30.566210,68.303726 29.126204,68.192383 
z"/>
<path fill="#7F1599" opacity="1.000000" stroke="none" 
	d="
M35.018784,68.262802 
	C35.398422,67.841698 35.766003,67.736984 36.422646,67.590775 
	C36.702805,68.131699 36.693905,68.714111 36.664265,69.731354 
	C36.265591,70.098404 35.887653,70.030624 35.226997,69.902344 
	C34.965092,69.420959 34.985909,69.000084 35.018784,68.262802 
z"/>
<path fill="#A5EF09" opacity="1.000000" stroke="none" 
	d="
M17.889530,36.582932 
	C17.912630,35.053871 17.929926,33.503525 18.359238,31.458801 
	C19.500916,30.943214 20.230577,30.922007 20.976709,31.186243 
	C20.998884,31.662214 21.004591,31.852743 20.717407,32.270981 
	C20.249689,33.978279 20.074862,35.457867 19.900034,36.937450 
	C19.900034,36.937450 19.953575,37.004536 19.627552,36.922737 
	C18.824980,36.754086 18.348431,36.667240 17.871880,36.580391 
	C17.871880,36.580391 17.883728,36.561646 17.889530,36.582932 
z"/>
<path fill="#153185" opacity="1.000000" stroke="none" 
	d="
M15.350240,35.810318 
	C15.787445,35.445824 16.224651,35.081333 16.661858,34.716839 
	C16.808615,35.136532 16.955372,35.556229 17.086376,36.278183 
	C16.886452,36.793842 16.653925,36.912899 16.179531,36.994698 
	C15.986018,37.051792 15.621772,36.903141 15.439532,36.601326 
	C15.257293,36.299507 15.350240,35.810318 15.350240,35.810318 
z"/>
<path fill="#00588A" opacity="1.000000" stroke="none" 
	d="
M17.877472,37.007759 
	C18.348431,36.667240 18.824980,36.754086 19.662109,36.897285 
	C20.001476,37.418583 19.980265,37.883526 19.901731,38.692451 
	C19.447786,39.052635 19.051163,39.068836 18.358013,39.107903 
	C18.002016,38.565556 17.942541,38.000343 17.877472,37.007759 
z"/>
<path fill="#D0CACE" opacity="1.000000" stroke="none" 
	d="
M15.239426,35.466438 
	C15.350240,35.810318 15.257293,36.299507 15.250391,36.547302 
	C14.511907,36.823669 13.780326,36.852245 12.676615,36.460152 
	C12.200039,35.353428 12.095592,34.667374 11.991146,33.981319 
	C11.991146,33.981319 11.955979,34.071224 11.986017,34.108200 
	C13.053573,34.470966 14.091092,34.796761 15.239426,35.466438 
z"/>
<path fill="#130D1D" opacity="1.000000" stroke="none" 
	d="
M11.640160,33.982853 
	C12.095592,34.667374 12.200039,35.353428 12.316488,36.383163 
	C11.825501,36.780083 11.322512,36.833321 10.441082,36.833466 
	C10.471486,35.848381 10.880330,34.916382 11.640160,33.982853 
z"/>
<path fill="#EB39E3" opacity="1.000000" stroke="none" 
	d="
M36.778351,26.830143 
	C39.470016,26.325422 40.180759,27.387911 39.456833,31.331820 
	C38.296772,30.658451 37.680260,30.300030 37.019890,29.552269 
	C36.910137,28.385332 36.844242,27.607738 36.778351,26.830143 
z"/>
<path fill="#F936F1" opacity="1.000000" stroke="none" 
	d="
M42.352249,31.703526 
	C42.540257,31.993795 42.344799,32.421207 42.035164,32.800117 
	C41.446152,33.548885 41.166775,33.918743 40.887398,34.288605 
	C40.369701,34.011150 39.852001,33.733696 39.229599,32.977707 
	C39.092300,32.333855 39.059708,32.168541 39.090782,31.912128 
	C39.154449,31.821033 39.024162,31.640940 39.024162,31.640940 
	C40.070854,31.565044 41.117550,31.489149 42.352249,31.703526 
z"/>
<path fill="#8813A1" opacity="1.000000" stroke="none" 
	d="
M36.566338,26.999283 
	C36.844242,27.607738 36.910137,28.385332 36.939762,29.628317 
	C36.903492,30.093706 36.743969,30.246582 36.458038,30.167830 
	C35.779613,30.037199 35.387127,29.985323 34.994637,29.933445 
	C34.998573,29.496204 35.002510,29.058962 35.011368,28.293217 
	C35.462299,27.699282 35.908310,27.433853 36.566338,26.999283 
z"/>
<path fill="#8912A4" opacity="1.000000" stroke="none" 
	d="
M36.983620,30.017658 
	C37.680260,30.300030 38.296772,30.658451 39.000389,31.383163 
	C39.087494,31.749454 39.047050,31.699554 39.035606,31.670246 
	C39.024162,31.640940 39.154449,31.821033 38.811440,31.902050 
	C38.282318,31.975128 38.096207,31.967190 37.910091,31.959249 
	C37.910091,31.959249 37.637390,31.955568 37.385193,31.687162 
	C37.003319,31.028032 36.873642,30.637306 36.743969,30.246582 
	C36.743969,30.246582 36.903492,30.093706 36.983620,30.017658 
z"/>
<path fill="#7D079F" opacity="1.000000" stroke="none" 
	d="
M40.304512,18.916214 
	C40.029354,18.592480 40.016907,18.127914 40.007675,17.314594 
	C40.186481,16.979765 40.362072,16.993690 40.799538,17.041256 
	C40.896687,17.641727 40.731956,18.208557 40.304512,18.916214 
z"/>
<path fill="#DE31D6" opacity="1.000000" stroke="none" 
	d="
M40.920292,34.455574 
	C41.166775,33.918743 41.446152,33.548885 42.045464,33.034882 
	C44.168568,34.757809 47.091503,32.968410 49.252785,36.143723 
	C51.639439,39.650143 50.715218,40.910835 48.360764,43.278908 
	C48.192833,43.830616 48.138020,44.073883 48.031578,44.687622 
	C45.947212,45.025986 43.914471,44.993885 41.445862,44.945766 
	C41.009995,44.929749 40.977524,44.491074 41.019524,44.274151 
	C41.061523,44.057228 41.076740,44.057991 41.395424,43.822670 
	C41.669231,40.969330 41.624359,38.351307 41.488869,35.501320 
	C41.398258,35.269356 41.009308,34.958248 41.009308,34.958248 
	C41.009308,34.958248 40.953190,34.622547 40.920292,34.455574 
z"/>
<path fill="#E432DB" opacity="1.000000" stroke="none" 
	d="
M30.058992,48.239307 
	C30.238541,46.214584 30.625563,44.497410 31.008507,42.389442 
	C32.010700,40.521969 33.016975,39.045288 34.049484,37.165699 
	C35.011147,38.885082 35.946571,41.007374 36.806850,43.489758 
	C35.672012,46.923275 34.532486,49.886810 30.058992,48.239307 
z"/>
<path fill="#1E0239" opacity="1.000000" stroke="none" 
	d="
M40.631294,35.061005 
	C41.009308,34.958248 41.398258,35.269356 41.304760,35.937988 
	C41.166424,39.090412 41.121582,41.574200 41.076740,44.057991 
	C41.076740,44.057991 41.061523,44.057228 41.054817,44.057068 
	C40.684387,44.005356 40.320663,43.953808 39.686600,43.886665 
	C39.695267,40.968636 39.974274,38.066200 40.631294,35.061005 
z"/>
<path fill="#480361" opacity="1.000000" stroke="none" 
	d="
M36.458038,30.167830 
	C36.873642,30.637306 37.003319,31.028032 37.250313,31.707207 
	C36.578739,31.567289 35.789856,31.138918 34.997803,30.321997 
	C35.387127,29.985323 35.779613,30.037199 36.458038,30.167830 
z"/>
<path fill="#B355BF" opacity="1.000000" stroke="none" 
	d="
M25.590996,33.858505 
	C25.783920,33.891171 25.884642,34.328979 25.567169,34.613247 
	C24.536734,34.932667 23.823769,34.967815 23.128534,34.744370 
	C23.428320,34.297127 23.710375,34.108482 24.258327,33.964020 
	C24.686182,33.930351 24.848139,33.852501 25.010094,33.774647 
	C25.010094,33.774647 25.398071,33.825836 25.590996,33.858505 
z"/>
<path fill="#00C04B" opacity="1.000000" stroke="none" 
	d="
M25.035732,33.428661 
	C24.848139,33.852501 24.686182,33.930351 24.256361,33.606586 
	C24.001348,32.491959 24.014202,31.778950 24.027054,31.065941 
	C24.027056,31.065941 24.476343,31.032438 24.701464,31.026991 
	C24.971514,31.708588 25.016443,32.395630 25.035732,33.428661 
z"/>
<path fill="#480361" opacity="1.000000" stroke="none" 
	d="
M38.023460,32.186298 
	C38.096207,31.967190 38.282318,31.975128 38.747772,31.993145 
	C39.059708,32.168541 39.092300,32.333855 39.045712,32.739159 
	C38.689964,32.790550 38.413395,32.601948 38.023460,32.186298 
z"/>
<path fill="#E432DB" opacity="1.000000" stroke="none" 
	d="
M32.100216,34.688080 
	C31.910231,34.767342 31.574686,34.593475 31.100574,34.165199 
	C31.292891,34.085506 31.623774,34.260227 32.100216,34.688080 
z"/>
<path fill="#0CA85C" opacity="1.000000" stroke="none" 
	d="
M23.718552,31.058231 
	C24.014202,31.778950 24.001348,32.491959 23.990463,33.562401 
	C23.710375,34.108482 23.428320,34.297127 23.054165,34.989029 
	C22.981258,35.661388 23.000450,35.830486 23.019640,35.999588 
	C22.831371,36.267715 22.612894,36.508423 22.182739,36.885109 
	C22.001270,37.048508 21.519653,36.989635 21.282394,37.040089 
	C20.858164,37.036171 20.671192,36.981796 20.192127,36.932438 
	C20.074862,35.457867 20.249689,33.978279 21.006285,32.286552 
	C21.990158,31.747530 22.392262,31.420650 22.794365,31.093769 
	C22.999594,31.079351 23.204821,31.064936 23.718552,31.058231 
z"/>
<path fill="#A4E911" opacity="1.000000" stroke="none" 
	d="
M22.573534,31.013557 
	C22.392262,31.420650 21.990158,31.747530 21.299175,32.058838 
	C21.004591,31.852743 20.998884,31.662214 21.028759,31.038666 
	C21.064339,30.605646 21.136221,30.300150 21.136221,30.300150 
	C21.541714,30.511215 21.947208,30.722281 22.573534,31.013557 
z"/>
<path fill="#5EC93C" opacity="1.000000" stroke="none" 
	d="
M20.765038,30.208862 
	C21.136221,30.300150 21.064339,30.605646 21.012291,30.753223 
	C20.230577,30.922007 19.500916,30.943214 18.407784,31.000523 
	C18.044313,31.036623 18.022612,30.555735 18.065922,30.319431 
	C18.870771,30.094610 19.632313,30.106094 20.765038,30.208862 
z"/>
<path fill="#FE4B87" opacity="1.000000" stroke="none" 
	d="
M55.294121,41.401001 
	C54.534752,41.292118 53.931503,40.947254 53.565552,40.051022 
	C53.863594,38.682156 53.924343,37.864662 53.985092,37.047165 
	C54.283863,37.031616 54.582638,37.016064 55.249565,37.278034 
	C55.561893,38.758717 55.506065,39.961868 55.294121,41.401001 
z"/>
<path fill="#E2E2E3" opacity="1.000000" stroke="none" 
	d="
M41.408882,53.144432 
	C42.917686,52.371407 44.411114,51.940796 45.904541,51.510185 
	C45.904541,53.286346 45.904541,55.062511 45.904541,56.838673 
	C45.259766,56.946941 44.614990,57.055206 43.970215,57.163471 
	C43.111313,55.937931 42.252411,54.712387 41.408882,53.144432 
z"/>
<path fill="#DD366C" opacity="1.000000" stroke="none" 
	d="
M53.685028,37.194519 
	C53.924343,37.864662 53.863594,38.682156 53.606133,39.738533 
	C53.401268,39.098900 53.393116,38.220387 53.685028,37.194519 
z"/>
<path fill="#E720DD" opacity="1.000000" stroke="none" 
	d="
M23.368549,36.001881 
	C23.000450,35.830486 22.981258,35.661388 23.036436,35.247627 
	C23.823769,34.967815 24.536734,34.932667 25.601717,34.835197 
	C25.208311,35.183308 24.462887,35.593742 23.368549,36.001881 
z"/>
<path fill="#6B067B" opacity="1.000000" stroke="none" 
	d="
M41.395424,43.822670 
	C41.121582,41.574200 41.166424,39.090412 41.395370,36.169952 
	C41.624359,38.351307 41.669231,40.969330 41.395424,43.822670 
z"/>
</svg>