<?xml version="1.0" encoding="UTF-8"?>
<!DOCTYPE svg PUBLIC "-//W3C//DTD SVG 1.1//EN" "http://www.w3.org/Graphics/SVG/1.1/DTD/svg11.dtd">
<svg xmlns="http://www.w3.org/2000/svg" version="1.1" width="85px" height="100px" style="shape-rendering:geometricPrecision; text-rendering:geometricPrecision; image-rendering:optimizeQuality; fill-rule:evenodd; clip-rule:evenodd" xmlns:xlink="http://www.w3.org/1999/xlink">
<g><path style="opacity:0.451" fill="#a71b54" d="M 55.5,0.5 C 55.5,0.166667 55.5,-0.166667 55.5,-0.5C 57.5,-0.5 59.5,-0.5 61.5,-0.5C 62.9187,0.451145 64.5853,0.784479 66.5,0.5C 66.4078,3.40003 67.7411,5.06669 70.5,5.5C 67.0504,6.24365 65.3838,4.91032 65.5,1.5C 63.5,1.5 61.5,1.5 59.5,1.5C 58.8333,1.5 58.1667,1.5 57.5,1.5C 57.1583,0.661754 56.4916,0.32842 55.5,0.5 Z"/></g>
<g><path style="opacity:1" fill="#f5bcc2" d="M 52.5,4.5 C 52.8333,4.5 53.1667,4.5 53.5,4.5C 53.5,5.5 53.5,6.5 53.5,7.5C 50.1016,7.82036 46.7683,7.48702 43.5,6.5C 46.6417,5.83262 49.6417,5.16596 52.5,4.5 Z"/></g>
<g><path style="opacity:1" fill="#f3d9c2" d="M 37.5,4.5 C 38.7175,5.16145 40.0508,5.82811 41.5,6.5C 39.4584,6.75868 37.4584,7.09202 35.5,7.5C 35.5,6.83333 35.5,6.16667 35.5,5.5C 35.8417,4.66175 36.5084,4.32842 37.5,4.5 Z"/></g>
<g><path style="opacity:1" fill="#f038a3" d="M 59.5,1.5 C 61.5,1.5 63.5,1.5 65.5,1.5C 65.3838,4.91032 67.0504,6.24365 70.5,5.5C 70.5,8.5 70.5,11.5 70.5,14.5C 69.5655,15.5676 69.2322,16.901 69.5,18.5C 68.1266,18.6567 66.7932,18.49 65.5,18C 66.6956,17.3457 66.6956,16.8457 65.5,16.5C 63.7811,19.0484 62.4478,18.715 61.5,15.5C 59.5175,17.8099 58.5175,20.4765 58.5,23.5C 58.1667,23.5 57.8333,23.5 57.5,23.5C 56.6618,23.1583 56.3284,22.4916 56.5,21.5C 56.5,20.8333 56.5,20.1667 56.5,19.5C 56.1872,15.9581 56.5206,12.6248 57.5,9.5C 57.9887,10.9952 58.6554,12.3285 59.5,13.5C 61.717,14.3686 64.0504,14.702 66.5,14.5C 66.9818,8.76053 64.6485,7.09386 59.5,9.5C 58.5033,6.99495 58.5033,4.32829 59.5,1.5 Z"/></g>
<g><path style="opacity:0.369" fill="#8d183d" d="M 35.5,5.5 C 35.5,6.16667 35.5,6.83333 35.5,7.5C 35.5,8.16667 35.5,8.83333 35.5,9.5C 34.1667,9.5 32.8333,9.5 31.5,9.5C 30.8333,9.5 30.1667,9.5 29.5,9.5C 28.8333,9.5 28.1667,9.5 27.5,9.5C 26.8333,9.5 26.1667,9.5 25.5,9.5C 24.8333,9.5 24.1667,9.5 23.5,9.5C 26.9619,8.51836 30.6286,8.18503 34.5,8.5C 34.2627,7.20895 34.596,6.20895 35.5,5.5 Z"/></g>
<g><path style="opacity:1" fill="#f38dbe" d="M 57.5,1.5 C 58.1667,1.5 58.8333,1.5 59.5,1.5C 58.5033,4.32829 58.5033,6.99495 59.5,9.5C 59.5,10.8333 59.5,12.1667 59.5,13.5C 58.6554,12.3285 57.9887,10.9952 57.5,9.5C 57.5,6.83333 57.5,4.16667 57.5,1.5 Z"/></g>
<g><path style="opacity:1" fill="#f9e9ab" d="M 23.5,9.5 C 24.1667,9.5 24.8333,9.5 25.5,9.5C 25.5,10.5 25.5,11.5 25.5,12.5C 23.9519,12.1788 23.2852,11.1788 23.5,9.5 Z"/></g>
<g><path style="opacity:0.259" fill="#f5bc60" d="M 74.5,12.5 C 73.8333,12.5 73.1667,12.5 72.5,12.5C 73.1667,8.5 73.8333,8.5 74.5,12.5 Z"/></g>
<g><path style="opacity:1" fill="#f9f976" d="M 53.5,18.5 C 53.5,14.8333 53.5,11.1667 53.5,7.5C 53.5,6.5 53.5,5.5 53.5,4.5C 53.281,3.32496 53.6143,2.32496 54.5,1.5C 54.8333,4.33333 55.1667,7.16667 55.5,10C 55.4809,13.2515 54.8142,16.0849 53.5,18.5 Z"/></g>
<g><path style="opacity:1" fill="#f8f5f8" d="M 59.5,13.5 C 59.5,12.1667 59.5,10.8333 59.5,9.5C 64.6485,7.09386 66.9818,8.76053 66.5,14.5C 64.0504,14.702 61.717,14.3686 59.5,13.5 Z"/></g>
<g><path style="opacity:1" fill="#cf3766" d="M 52.5,3.5 C 52.5,3.83333 52.5,4.16667 52.5,4.5C 49.6417,5.16596 46.6417,5.83262 43.5,6.5C 46.7683,7.48702 50.1016,7.82036 53.5,7.5C 53.5,11.1667 53.5,14.8333 53.5,18.5C 52.8333,18.5 52.5,18.1667 52.5,17.5C 52.7135,15.8561 52.3802,14.3561 51.5,13C 47.9813,12.6227 44.4813,12.1227 41,11.5C 38.6403,12.78 36.1403,13.4467 33.5,13.5C 30.6895,12.9305 28.0228,12.9305 25.5,13.5C 25.5,13.1667 25.5,12.8333 25.5,12.5C 25.5,11.5 25.5,10.5 25.5,9.5C 26.1667,9.5 26.8333,9.5 27.5,9.5C 28.1667,12.1667 28.8333,12.1667 29.5,9.5C 30.1667,9.5 30.8333,9.5 31.5,9.5C 31.9704,10.6935 32.9704,11.3601 34.5,11.5C 35.5,11.1667 36.5,10.8333 37.5,10.5C 37.0431,9.70245 36.3764,9.36912 35.5,9.5C 35.5,8.83333 35.5,8.16667 35.5,7.5C 37.4584,7.09202 39.4584,6.75868 41.5,6.5C 40.0508,5.82811 38.7175,5.16145 37.5,4.5C 42.4376,3.60762 47.4376,3.27428 52.5,3.5 Z"/></g>
<g><path style="opacity:1" fill="#f9abbd" d="M 31.5,9.5 C 32.8333,9.5 34.1667,9.5 35.5,9.5C 36.3764,9.36912 37.0431,9.70245 37.5,10.5C 36.5,10.8333 35.5,11.1667 34.5,11.5C 32.9704,11.3601 31.9704,10.6935 31.5,9.5 Z"/></g>
<g><path style="opacity:1" fill="#eff2e5" d="M 27.5,9.5 C 28.1667,9.5 28.8333,9.5 29.5,9.5C 28.8333,12.1667 28.1667,12.1667 27.5,9.5 Z"/></g>
<g><path style="opacity:1" fill="#e97159" d="M 55.5,0.5 C 56.4916,0.32842 57.1583,0.661754 57.5,1.5C 57.5,4.16667 57.5,6.83333 57.5,9.5C 56.5206,12.6248 56.1872,15.9581 56.5,19.5C 55.209,19.7373 54.209,19.404 53.5,18.5C 54.8142,16.0849 55.4809,13.2515 55.5,10C 55.1667,7.16667 54.8333,4.33333 54.5,1.5C 53.6143,2.32496 53.281,3.32496 53.5,4.5C 53.1667,4.5 52.8333,4.5 52.5,4.5C 52.5,4.16667 52.5,3.83333 52.5,3.5C 52.5,2.5 52.5,1.5 52.5,0.5C 53.5,0.5 54.5,0.5 55.5,0.5 Z"/></g>
<g><path style="opacity:0.631" fill="#be545c" d="M 23.5,9.5 C 23.2852,11.1788 23.9519,12.1788 25.5,12.5C 25.5,12.8333 25.5,13.1667 25.5,13.5C 25.5,14.1667 25.5,14.8333 25.5,15.5C 23.2362,16.2186 20.9029,16.552 18.5,16.5C 19.2625,15.7321 20.2625,15.2321 21.5,15C 19.6131,14.2204 17.9464,14.3871 16.5,15.5C 15.8333,15.5 15.1667,15.5 14.5,15.5C 13.6977,14.1153 13.0311,14.282 12.5,16C 12.9891,17.1385 13.3225,18.3052 13.5,19.5C 13.1667,19.5 12.8333,19.5 12.5,19.5C 12.1667,19.5 11.8333,19.5 11.5,19.5C 11.5,17.5 11.5,15.5 11.5,13.5C 15.1667,13.5 18.8333,13.5 22.5,13.5C 22.2322,11.901 22.5655,10.5676 23.5,9.5 Z"/></g>
<g><path style="opacity:1" fill="#f6e1be" d="M 18.5,16.5 C 17.5084,16.6716 16.8417,16.3382 16.5,15.5C 17.9464,14.3871 19.6131,14.2204 21.5,15C 20.2625,15.2321 19.2625,15.7321 18.5,16.5 Z"/></g>
<g><path style="opacity:0.941" fill="#fcefba" d="M 14.5,15.5 C 14.7678,17.099 14.4345,18.4324 13.5,19.5C 13.3225,18.3052 12.9891,17.1385 12.5,16C 13.0311,14.282 13.6977,14.1153 14.5,15.5 Z"/></g>
<g><path style="opacity:1" fill="#c62978" d="M 33.5,13.5 C 33.5,14.5 33.5,15.5 33.5,16.5C 32.5,16.5 31.5,16.5 30.5,16.5C 29.9885,19.0215 28.9885,21.3549 27.5,23.5C 26.8333,23.8333 26.1667,24.1667 25.5,24.5C 25.1667,24.5 24.8333,24.5 24.5,24.5C 25.1641,21.8632 25.8307,19.1965 26.5,16.5C 26.3764,15.8933 26.0431,15.56 25.5,15.5C 25.5,14.8333 25.5,14.1667 25.5,13.5C 28.0228,12.9305 30.6895,12.9305 33.5,13.5 Z"/></g>
<g><path style="opacity:1" fill="#e61788" d="M 70.5,14.5 C 71.0431,14.56 71.3764,14.8933 71.5,15.5C 70.6279,17.4496 69.9612,19.4496 69.5,21.5C 66.1691,23.2976 62.5025,23.9643 58.5,23.5C 58.5175,20.4765 59.5175,17.8099 61.5,15.5C 62.4478,18.715 63.7811,19.0484 65.5,16.5C 66.6956,16.8457 66.6956,17.3457 65.5,18C 66.7932,18.49 68.1266,18.6567 69.5,18.5C 69.2322,16.901 69.5655,15.5676 70.5,14.5 Z"/></g>
<g><path style="opacity:1" fill="#efe2ed" d="M 35.5,19.5 C 36.5,19.5 37.5,19.5 38.5,19.5C 38.5,22.5 38.5,25.5 38.5,28.5C 37.5,28.5 36.5,28.5 35.5,28.5C 35.5,25.5 35.5,22.5 35.5,19.5 Z"/></g>
<g><path style="opacity:1" fill="#8c224c" d="M 52.5,17.5 C 50.9743,16.8953 49.9743,15.7286 49.5,14C 44.8563,12.7691 41.1897,14.1024 38.5,18C 39.056,18.3826 39.3893,18.8826 39.5,19.5C 39.1667,19.5 38.8333,19.5 38.5,19.5C 37.5,19.5 36.5,19.5 35.5,19.5C 35.5654,19.0618 35.3988,18.7284 35,18.5C 32.2269,19.9021 29.7269,21.5688 27.5,23.5C 28.9885,21.3549 29.9885,19.0215 30.5,16.5C 31.5,16.5 32.5,16.5 33.5,16.5C 33.5,15.5 33.5,14.5 33.5,13.5C 36.1403,13.4467 38.6403,12.78 41,11.5C 44.4813,12.1227 47.9813,12.6227 51.5,13C 52.3802,14.3561 52.7135,15.8561 52.5,17.5 Z"/></g>
<g><path style="opacity:1" fill="#b83f7d" d="M 38.5,19.5 C 38.8333,19.5 39.1667,19.5 39.5,19.5C 40.9313,20.7804 41.5979,22.4471 41.5,24.5C 43.099,24.2322 44.4324,24.5655 45.5,25.5C 41.5,26.1667 41.5,26.8333 45.5,27.5C 46.5676,28.4345 47.901,28.7678 49.5,28.5C 49.7678,30.099 49.4345,31.4324 48.5,32.5C 48.5,31.5 48.5,30.5 48.5,29.5C 47.5,29.5 46.5,29.5 45.5,29.5C 45.4326,30.9587 45.7659,32.2921 46.5,33.5C 45.8333,33.5 45.5,33.8333 45.5,34.5C 43.4017,33.0857 42.4017,33.7524 42.5,36.5C 41.5655,35.4324 41.2322,34.099 41.5,32.5C 40.5,32.5 39.5,32.5 38.5,32.5C 38.5,31.5 38.5,30.5 38.5,29.5C 37.209,29.7373 36.209,29.404 35.5,28.5C 36.5,28.5 37.5,28.5 38.5,28.5C 38.5,25.5 38.5,22.5 38.5,19.5 Z"/></g>
<g><path style="opacity:1" fill="#471627" d="M 52.5,17.5 C 52.5,18.1667 52.8333,18.5 53.5,18.5C 54.209,19.404 55.209,19.7373 56.5,19.5C 56.5,20.1667 56.5,20.8333 56.5,21.5C 54.5648,22.1495 52.5648,22.4828 50.5,22.5C 50.5,23.8333 50.5,25.1667 50.5,26.5C 48.64,25.9285 46.9733,25.9285 45.5,26.5C 45.5,26.1667 45.5,25.8333 45.5,25.5C 44.4324,24.5655 43.099,24.2322 41.5,24.5C 41.5979,22.4471 40.9313,20.7804 39.5,19.5C 39.3893,18.8826 39.056,18.3826 38.5,18C 41.1897,14.1024 44.8563,12.7691 49.5,14C 49.9743,15.7286 50.9743,16.8953 52.5,17.5 Z"/></g>
<g><path style="opacity:1" fill="#4b1929" d="M 69.5,21.5 C 73.3004,21.7939 75.8004,23.7939 77,27.5C 78.8231,31.5443 78.3231,34.8776 75.5,37.5C 75.1667,37.5 74.8333,37.5 74.5,37.5C 74.5,37.1667 74.5,36.8333 74.5,36.5C 75.782,35.2918 75.782,33.9584 74.5,32.5C 72.8273,30.9137 70.8273,30.2471 68.5,30.5C 68.1667,28.5 67.8333,26.5 67.5,24.5C 63.9581,24.8128 60.6248,24.4794 57.5,23.5C 57.8333,23.5 58.1667,23.5 58.5,23.5C 62.5025,23.9643 66.1691,23.2976 69.5,21.5 Z"/></g>
<g><path style="opacity:1" fill="#f3edf5" d="M 45.5,25.5 C 45.5,25.8333 45.5,26.1667 45.5,26.5C 45.5,26.8333 45.5,27.1667 45.5,27.5C 41.5,26.8333 41.5,26.1667 45.5,25.5 Z"/></g>
<g><path style="opacity:0.659" fill="#e16d7e" d="M 11.5,19.5 C 11.6641,22.1873 11.4974,24.854 11,27.5C 9.98873,28.3366 8.82207,28.67 7.5,28.5C 7.79472,30.7354 7.46138,32.7354 6.5,34.5C 6.5,34.1667 6.5,33.8333 6.5,33.5C 6.5,32.8333 6.16667,32.5 5.5,32.5C 5.20465,29.2659 5.87132,26.2659 7.5,23.5C 8.47758,23.9767 9.31091,24.6433 10,25.5C 10.1909,23.2922 10.6909,21.2922 11.5,19.5 Z"/></g>
<g><path style="opacity:1" fill="#faf1f7" d="M 39.5,29.5 C 43.5878,29.2184 44.0878,29.8851 41,31.5C 39.9701,31.1639 39.4701,30.4972 39.5,29.5 Z"/></g>
<g><path style="opacity:1" fill="#f9eefa" d="M 48.5,32.5 C 47.8333,32.8333 47.1667,33.1667 46.5,33.5C 45.7659,32.2921 45.4326,30.9587 45.5,29.5C 46.5,29.5 47.5,29.5 48.5,29.5C 48.5,30.5 48.5,31.5 48.5,32.5 Z"/></g>
<g><path style="opacity:1" fill="#1c151b" d="M 49.5,56.5 C 46.3648,53.6528 43.5315,53.9861 41,57.5C 40,56.1667 39,56.1667 38,57.5C 36.9264,56.3816 35.7598,55.3816 34.5,54.5C 34.0583,50.5106 33.0583,46.6773 31.5,43C 33.0923,41.0601 35.0923,39.5601 37.5,38.5C 39.017,39.7349 40.6837,39.7349 42.5,38.5C 43.2652,39.6119 44.2652,40.2786 45.5,40.5C 45.3284,41.4916 45.6618,42.1583 46.5,42.5C 47.1667,42.5 47.8333,42.5 48.5,42.5C 49.2852,40.6264 49.9518,38.6264 50.5,36.5C 51.1174,36.3893 51.6174,36.056 52,35.5C 51.7779,31.7081 53.1113,28.7081 56,26.5C 57.4907,28.0037 59.324,28.8371 61.5,29C 63.163,33.1768 61.8297,35.6768 57.5,36.5C 57.9822,41.1219 59.3156,45.4553 61.5,49.5C 60.501,53.3281 58.8343,56.8281 56.5,60C 58.8161,63.141 60.8161,66.4744 62.5,70C 59.8934,72.1049 56.8934,72.9383 53.5,72.5C 52.9986,67.492 52.332,62.492 51.5,57.5C 50.8165,57.1373 50.1499,56.8039 49.5,56.5 Z"/></g>
<g><path style="opacity:1" fill="#e23492" d="M 11.5,19.5 C 11.8333,19.5 12.1667,19.5 12.5,19.5C 12.3398,21.1992 12.5065,22.8659 13,24.5C 13.8893,23.1118 14.3893,23.2785 14.5,25C 11.5978,28.2027 9.26442,32.3693 7.5,37.5C 7.70931,38.086 8.04265,38.586 8.5,39C 5.54992,44.8937 4.88325,51.0604 6.5,57.5C 8.02702,61.2001 9.86035,64.8668 12,68.5C 12.4966,70.8098 12.6633,73.1432 12.5,75.5C 15.3193,76.4937 18.1526,77.4937 21,78.5C 22.3561,77.6198 23.8561,77.2865 25.5,77.5C 27.1238,77.3601 28.2904,78.0267 29,79.5C 29.3333,79.1667 29.6667,78.8333 30,78.5C 30.4828,79.448 30.6495,80.448 30.5,81.5C 32.3797,81.2291 33.713,81.8958 34.5,83.5C 33.7611,83.369 33.0944,83.5357 32.5,84C 33.8333,84.3333 35.1667,84.6667 36.5,85C 34.4537,86.8423 32.1203,88.009 29.5,88.5C 28.3121,87.3157 27.1455,87.3157 26,88.5C 25.5065,86.8659 25.3398,85.1992 25.5,83.5C 24.1667,83.5 22.8333,83.5 21.5,83.5C 19.7354,82.5386 17.7354,82.2053 15.5,82.5C 15.7678,80.901 15.4345,79.5676 14.5,78.5C 14.1667,78.5 13.8333,78.5 13.5,78.5C 11.9174,76.4922 10.9174,74.1589 10.5,71.5C 9.3774,70.2426 8.71073,70.5759 8.5,72.5C 7.3774,73.7574 6.71073,73.4241 6.5,71.5C 6.5,68.8333 6.5,66.1667 6.5,63.5C 5.79105,62.596 4.79105,62.2627 3.5,62.5C 3.19561,53.4161 3.52895,44.4161 4.5,35.5C 5.49162,35.6716 6.15829,35.3382 6.5,34.5C 7.46138,32.7354 7.79472,30.7354 7.5,28.5C 8.82207,28.67 9.98873,28.3366 11,27.5C 11.4974,24.854 11.6641,22.1873 11.5,19.5 Z"/></g>
<g><path style="opacity:1" fill="#3a1824" d="M 35.5,28.5 C 36.209,29.404 37.209,29.7373 38.5,29.5C 38.5,30.5 38.5,31.5 38.5,32.5C 39.5,32.5 40.5,32.5 41.5,32.5C 41.2322,34.099 41.5655,35.4324 42.5,36.5C 43.5,36.5 44.5,36.5 45.5,36.5C 45.5,37.8333 45.5,39.1667 45.5,40.5C 44.2652,40.2786 43.2652,39.6119 42.5,38.5C 40.6837,39.7349 39.017,39.7349 37.5,38.5C 37.6107,37.8826 37.944,37.3826 38.5,37C 36.7818,36.654 35.1151,36.154 33.5,35.5C 31.3333,37.3296 29.3333,39.3296 27.5,41.5C 28.5,42.1667 29.5,42.8333 30.5,43.5C 28.1873,46.0198 26.854,49.0198 26.5,52.5C 28.5065,55.0131 29.8398,57.8464 30.5,61C 30.2451,62.3261 29.5784,63.3261 28.5,64C 31.6089,64.6957 34.4422,65.8623 37,67.5C 38.0692,65.5926 39.5692,64.2593 41.5,63.5C 41.4729,65.1993 40.8062,66.5326 39.5,67.5C 38.8333,67.5 38.5,67.8333 38.5,68.5C 36.088,68.3305 33.9214,68.9972 32,70.5C 30.7147,70.0496 29.548,69.3829 28.5,68.5C 26.0472,65.7587 23.7139,62.9254 21.5,60C 22.5,59 23.5,58 24.5,57C 23.5,56.1667 22.5,55.3333 21.5,54.5C 23.9238,52.2864 23.2571,51.2864 19.5,51.5C 20.129,49.5351 20.7957,47.5351 21.5,45.5C 21.0135,43.6958 20.3468,42.0291 19.5,40.5C 21.9158,38.0097 23.5824,35.0097 24.5,31.5C 25.4255,30.3595 26.2588,30.3595 27,31.5C 28.4901,27.6822 30.6568,24.3489 33.5,21.5C 34.1681,23.9688 34.8347,26.3021 35.5,28.5 Z"/></g>
<g><path style="opacity:1" fill="#f8e6f1" d="M 45.5,34.5 C 45.5,35.1667 45.5,35.8333 45.5,36.5C 44.5,36.5 43.5,36.5 42.5,36.5C 42.4017,33.7524 43.4017,33.0857 45.5,34.5 Z"/></g>
<g><path style="opacity:0.82" fill="#f8c5b4" d="M 4.5,32.5 C 4.83333,32.5 5.16667,32.5 5.5,32.5C 6.16667,32.5 6.5,32.8333 6.5,33.5C 6.5,33.8333 6.5,34.1667 6.5,34.5C 6.15829,35.3382 5.49162,35.6716 4.5,35.5C 4.5,34.5 4.5,33.5 4.5,32.5 Z"/></g>
<g><path style="opacity:1" fill="#b13183" d="M 20.5,24.5 C 20.5,25.5 20.5,26.5 20.5,27.5C 21.5,27.5 22.5,27.5 23.5,27.5C 23.5,26.5 23.5,25.5 23.5,24.5C 23.8333,24.5 24.1667,24.5 24.5,24.5C 24.8333,24.5 25.1667,24.5 25.5,24.5C 25.8383,28.1507 24.1716,29.8174 20.5,29.5C 20.0954,28.4502 19.4288,28.4502 18.5,29.5C 17.5431,32.2801 16.3764,34.9467 15,37.5C 13.9326,38.1905 12.7659,38.6905 11.5,39C 12.5283,41.7607 12.5283,44.5941 11.5,47.5C 13.1858,52.8874 14.8525,58.2208 16.5,63.5C 14.3075,61.0256 11.9741,58.5256 9.5,56C 10.1383,54.2933 10.1383,52.46 9.5,50.5C 8.32496,50.719 7.32496,50.3857 6.5,49.5C 8.29932,45.6546 9.79932,41.6546 11,37.5C 14.6212,33.3705 17.7879,29.0371 20.5,24.5 Z"/></g>
<g><path style="opacity:1" fill="#c0c2e8" d="M 20.5,24.5 C 21.5,24.5 22.5,24.5 23.5,24.5C 23.5,25.5 23.5,26.5 23.5,27.5C 22.5,27.5 21.5,27.5 20.5,27.5C 20.5,26.5 20.5,25.5 20.5,24.5 Z"/></g>
<g><path style="opacity:1" fill="#7f305a" d="M 49.5,28.5 C 50.4731,30.9479 50.8064,33.6146 50.5,36.5C 49.9518,38.6264 49.2852,40.6264 48.5,42.5C 47.8333,34.5 47.1667,34.5 46.5,42.5C 45.6618,42.1583 45.3284,41.4916 45.5,40.5C 45.5,39.1667 45.5,37.8333 45.5,36.5C 45.5,35.8333 45.5,35.1667 45.5,34.5C 45.5,33.8333 45.8333,33.5 46.5,33.5C 47.1667,33.1667 47.8333,32.8333 48.5,32.5C 49.4345,31.4324 49.7678,30.099 49.5,28.5 Z"/></g>
<g><path style="opacity:1" fill="#e1317b" d="M 69.5,34.5 C 69.5,35.5 69.5,36.5 69.5,37.5C 68.5,37.5 67.5,37.5 66.5,37.5C 66.1667,37.5 65.8333,37.5 65.5,37.5C 65.5,36.1667 65.5,34.8333 65.5,33.5C 67.099,33.2322 68.4324,33.5655 69.5,34.5 Z"/></g>
<g><path style="opacity:1" fill="#f3cffb" d="M 48.5,42.5 C 47.8333,42.5 47.1667,42.5 46.5,42.5C 47.1667,34.5 47.8333,34.5 48.5,42.5 Z"/></g>
<g><path style="opacity:1" fill="#981e4d" d="M 65.5,37.5 C 65.8333,37.5 66.1667,37.5 66.5,37.5C 66.5,38.8333 66.5,40.1667 66.5,41.5C 65.596,42.209 65.2627,43.209 65.5,44.5C 64.5,43.5 63.5,42.5 62.5,41.5C 61.5655,40.4324 61.2322,39.099 61.5,37.5C 62.8333,37.5 64.1667,37.5 65.5,37.5 Z"/></g>
<g><path style="opacity:1" fill="#fbacf7" d="M 62.5,41.5 C 62.281,40.325 62.6143,39.325 63.5,38.5C 64.7979,40.0517 64.4646,41.0517 62.5,41.5 Z"/></g>
<g><path style="opacity:1" fill="#f144a0" d="M 74.5,37.5 C 74.8333,37.5 75.1667,37.5 75.5,37.5C 75.5,38.8333 75.5,40.1667 75.5,41.5C 74.1667,41.5 72.8333,41.5 71.5,41.5C 71.5,40.1667 71.5,38.8333 71.5,37.5C 72.5,37.5 73.5,37.5 74.5,37.5 Z"/></g>
<g><path style="opacity:1" fill="#e44274" d="M 4.5,32.5 C 4.5,33.5 4.5,34.5 4.5,35.5C 3.52895,44.4161 3.19561,53.4161 3.5,62.5C 4.79105,62.2627 5.79105,62.596 6.5,63.5C 4.95186,63.8212 4.28519,64.8212 4.5,66.5C 3.83333,66.5 3.16667,66.5 2.5,66.5C 2.5,55.5 2.5,44.5 2.5,33.5C 3.16667,33.5 3.5,33.1667 3.5,32.5C 3.83333,31.1667 4.16667,31.1667 4.5,32.5 Z"/></g>
<g><path style="opacity:1" fill="#d75395" d="M 66.5,41.5 C 67.5,41.5 68.5,41.5 69.5,41.5C 69.5,42.8333 69.5,44.1667 69.5,45.5C 67.901,45.7678 66.5676,45.4345 65.5,44.5C 65.2627,43.209 65.596,42.209 66.5,41.5 Z"/></g>
<g><path style="opacity:1" fill="#7f1a33" d="M 70.5,5.5 C 71.1667,7.83333 71.8333,10.1667 72.5,12.5C 73.1667,12.5 73.8333,12.5 74.5,12.5C 74.5,13.1667 74.5,13.8333 74.5,14.5C 71.9882,15.2162 71.9882,16.2162 74.5,17.5C 75.3857,16.675 75.719,15.675 75.5,14.5C 76.1667,16.1667 76.8333,17.8333 77.5,19.5C 78.8035,30.0675 79.4702,30.0675 79.5,19.5C 80.1667,21.5 80.8333,23.5 81.5,25.5C 81.5,35.1667 81.5,44.8333 81.5,54.5C 78.9103,55.0143 76.2436,55.0143 73.5,54.5C 74.5,54.5 75.5,54.5 76.5,54.5C 76.5,51.1667 76.5,47.8333 76.5,44.5C 75.5,44.5 74.5,44.5 73.5,44.5C 73.6107,43.8826 73.944,43.3826 74.5,43C 73.2625,42.7679 72.2625,42.2679 71.5,41.5C 72.8333,41.5 74.1667,41.5 75.5,41.5C 75.5,40.1667 75.5,38.8333 75.5,37.5C 78.3231,34.8776 78.8231,31.5443 77,27.5C 75.8004,23.7939 73.3004,21.7939 69.5,21.5C 69.9612,19.4496 70.6279,17.4496 71.5,15.5C 71.3764,14.8933 71.0431,14.56 70.5,14.5C 70.5,11.5 70.5,8.5 70.5,5.5 Z"/></g>
<g><path style="opacity:0.761" fill="#f5b3a7" d="M 77.5,19.5 C 78.1667,19.5 78.8333,19.5 79.5,19.5C 79.4702,30.0675 78.8035,30.0675 77.5,19.5 Z"/></g>
<g><path style="opacity:0.804" fill="#dfaa89" d="M 74.5,14.5 C 74.8333,14.5 75.1667,14.5 75.5,14.5C 75.719,15.675 75.3857,16.675 74.5,17.5C 71.9882,16.2162 71.9882,15.2162 74.5,14.5 Z"/></g>
<g><path style="opacity:1" fill="#79244b" d="M 35.5,19.5 C 35.5,22.5 35.5,25.5 35.5,28.5C 34.8347,26.3021 34.1681,23.9688 33.5,21.5C 30.6568,24.3489 28.4901,27.6822 27,31.5C 26.2588,30.3595 25.4255,30.3595 24.5,31.5C 23.5824,35.0097 21.9158,38.0097 19.5,40.5C 18.5265,43.2979 17.8598,46.2979 17.5,49.5C 18.985,54.0459 19.6516,58.7126 19.5,63.5C 19.02,60.8344 18.02,58.3344 16.5,56C 16.9574,55.586 17.2907,55.086 17.5,54.5C 16.2187,51.989 15.5521,49.3224 15.5,46.5C 17.4821,40.9748 19.1488,35.3081 20.5,29.5C 24.1716,29.8174 25.8383,28.1507 25.5,24.5C 26.1667,24.1667 26.8333,23.8333 27.5,23.5C 29.7269,21.5688 32.2269,19.9021 35,18.5C 35.3988,18.7284 35.5654,19.0618 35.5,19.5 Z"/></g>
<g><path style="opacity:1" fill="#f6d0af" d="M 2.5,33.5 C 2.5,44.5 2.5,55.5 2.5,66.5C 1.83333,67.8333 1.16667,67.8333 0.5,66.5C -0.143634,55.1158 0.523032,44.1158 2.5,33.5 Z"/></g>
<g><path style="opacity:1" fill="#e11682" d="M 73.5,44.5 C 74.5,44.5 75.5,44.5 76.5,44.5C 76.5,47.8333 76.5,51.1667 76.5,54.5C 75.5,54.5 74.5,54.5 73.5,54.5C 73.5,51.1667 73.5,47.8333 73.5,44.5 Z"/></g>
<g><path style="opacity:0.325" fill="#9d5248" d="M 81.5,25.5 C 82.209,24.596 83.209,24.2627 84.5,24.5C 84.5,41.1667 84.5,57.8333 84.5,74.5C 83.5,74.5 82.5,74.5 81.5,74.5C 81.5,73.8333 81.5,73.1667 81.5,72.5C 82.1174,72.6107 82.6174,72.944 83,73.5C 83.1667,65.5 83.3333,57.5 83.5,49.5C 83.4978,41.1376 82.8311,33.1376 81.5,25.5 Z"/></g>
<g><path style="opacity:1" fill="#982964" d="M 20.5,29.5 C 19.1488,35.3081 17.4821,40.9748 15.5,46.5C 15.5521,49.3224 16.2187,51.989 17.5,54.5C 17.2907,55.086 16.9574,55.586 16.5,56C 18.02,58.3344 19.02,60.8344 19.5,63.5C 20.1355,65.7946 21.4689,67.4613 23.5,68.5C 20.3315,67.9975 17.9981,66.3309 16.5,63.5C 14.8525,58.2208 13.1858,52.8874 11.5,47.5C 12.5283,44.5941 12.5283,41.7607 11.5,39C 12.7659,38.6905 13.9326,38.1905 15,37.5C 16.3764,34.9467 17.5431,32.2801 18.5,29.5C 19.4288,28.4502 20.0954,28.4502 20.5,29.5 Z"/></g>
<g><path style="opacity:1" fill="#eb84de" d="M 73.5,44.5 C 73.5,47.8333 73.5,51.1667 73.5,54.5C 72.2227,53.3064 71.5561,51.6397 71.5,49.5C 71.5561,47.3603 72.2227,45.6936 73.5,44.5 Z"/></g>
<g><path style="opacity:1" fill="#29151d" d="M 37.5,38.5 C 35.0923,39.5601 33.0923,41.0601 31.5,43C 33.0583,46.6773 34.0583,50.5106 34.5,54.5C 35.7598,55.3816 36.9264,56.3816 38,57.5C 39,56.1667 40,56.1667 41,57.5C 43.5315,53.9861 46.3648,53.6528 49.5,56.5C 49.1667,56.5 48.8333,56.5 48.5,56.5C 47.5,56.5 46.5,56.5 45.5,56.5C 45.5,58.5 45.5,60.5 45.5,62.5C 44.5,62.5 43.5,62.5 42.5,62.5C 41.8333,62.5 41.5,62.8333 41.5,63.5C 39.5692,64.2593 38.0692,65.5926 37,67.5C 34.4422,65.8623 31.6089,64.6957 28.5,64C 29.5784,63.3261 30.2451,62.3261 30.5,61C 29.8398,57.8464 28.5065,55.0131 26.5,52.5C 26.854,49.0198 28.1873,46.0198 30.5,43.5C 29.5,42.8333 28.5,42.1667 27.5,41.5C 29.3333,39.3296 31.3333,37.3296 33.5,35.5C 35.1151,36.154 36.7818,36.654 38.5,37C 37.944,37.3826 37.6107,37.8826 37.5,38.5 Z"/></g>
<g><path style="opacity:1" fill="#ea4b95" d="M 66.5,54.5 C 67.8333,54.5 69.1667,54.5 70.5,54.5C 70.5,55.5 70.5,56.5 70.5,57.5C 68.8333,57.5 67.1667,57.5 65.5,57.5C 65.2627,56.209 65.596,55.209 66.5,54.5 Z"/></g>
<g><path style="opacity:1" fill="#ed8d75" d="M 81.5,25.5 C 82.8311,33.1376 83.4978,41.1376 83.5,49.5C 83.3333,57.5 83.1667,65.5 83,73.5C 82.6174,72.944 82.1174,72.6107 81.5,72.5C 81.5,67.1667 81.5,61.8333 81.5,56.5C 81.5,55.8333 81.5,55.1667 81.5,54.5C 81.5,44.8333 81.5,35.1667 81.5,25.5 Z"/></g>
<g><path style="opacity:0.447" fill="#ab555b" d="M -0.5,32.5 C 0.833333,32.5 2.16667,32.5 3.5,32.5C 3.5,33.1667 3.16667,33.5 2.5,33.5C 0.523032,44.1158 -0.143634,55.1158 0.5,66.5C 0.166667,66.5 -0.166667,66.5 -0.5,66.5C -0.5,55.1667 -0.5,43.8333 -0.5,32.5 Z"/></g>
<g><path style="opacity:1" fill="#d03594" d="M 14.5,15.5 C 15.1667,15.5 15.8333,15.5 16.5,15.5C 16.8417,16.3382 17.5084,16.6716 18.5,16.5C 20.9029,16.552 23.2362,16.2186 25.5,15.5C 26.0431,15.56 26.3764,15.8933 26.5,16.5C 25.8307,19.1965 25.1641,21.8632 24.5,24.5C 24.1667,24.5 23.8333,24.5 23.5,24.5C 22.5,24.5 21.5,24.5 20.5,24.5C 17.7879,29.0371 14.6212,33.3705 11,37.5C 9.79932,41.6546 8.29932,45.6546 6.5,49.5C 7.32496,50.3857 8.32496,50.719 9.5,50.5C 10.1383,52.46 10.1383,54.2933 9.5,56C 11.9741,58.5256 14.3075,61.0256 16.5,63.5C 17.9981,66.3309 20.3315,67.9975 23.5,68.5C 23.1667,69.1667 22.8333,69.8333 22.5,70.5C 19.3198,70.1762 18.1531,71.5096 19,74.5C 21.1632,75.768 23.3298,75.768 25.5,74.5C 25.5,75.5 25.5,76.5 25.5,77.5C 23.8561,77.2865 22.3561,77.6198 21,78.5C 18.1526,77.4937 15.3193,76.4937 12.5,75.5C 12.6633,73.1432 12.4966,70.8098 12,68.5C 9.86035,64.8668 8.02702,61.2001 6.5,57.5C 4.88325,51.0604 5.54992,44.8937 8.5,39C 8.04265,38.586 7.70931,38.086 7.5,37.5C 9.26442,32.3693 11.5978,28.2027 14.5,25C 14.3893,23.2785 13.8893,23.1118 13,24.5C 12.5065,22.8659 12.3398,21.1992 12.5,19.5C 12.8333,19.5 13.1667,19.5 13.5,19.5C 14.4345,18.4324 14.7678,17.099 14.5,15.5 Z"/></g>
<g><path style="opacity:1" fill="#d95ab4" d="M 65.5,57.5 C 65.5,58.8333 65.5,60.1667 65.5,61.5C 64.1667,61.5 62.8333,61.5 61.5,61.5C 61.5,60.1667 61.5,58.8333 61.5,57.5C 62.8333,57.5 64.1667,57.5 65.5,57.5 Z"/></g>
<g><path style="opacity:1" fill="#c694b6" d="M 48.5,56.5 C 48.8016,59.0593 48.4682,61.3926 47.5,63.5C 46.2223,63.7822 45.2223,64.4489 44.5,65.5C 44.5,64.1667 43.8333,63.5 42.5,63.5C 42.5,63.1667 42.5,62.8333 42.5,62.5C 43.5,62.5 44.5,62.5 45.5,62.5C 45.5,60.5 45.5,58.5 45.5,56.5C 46.5,56.5 47.5,56.5 48.5,56.5 Z"/></g>
<g><path style="opacity:1" fill="#5e1d34" d="M 19.5,40.5 C 20.3468,42.0291 21.0135,43.6958 21.5,45.5C 20.7957,47.5351 20.129,49.5351 19.5,51.5C 23.2571,51.2864 23.9238,52.2864 21.5,54.5C 22.5,55.3333 23.5,56.1667 24.5,57C 23.5,58 22.5,59 21.5,60C 23.7139,62.9254 26.0472,65.7587 28.5,68.5C 29.548,69.3829 30.7147,70.0496 32,70.5C 33.9214,68.9972 36.088,68.3305 38.5,68.5C 38.1788,70.0481 37.1788,70.7148 35.5,70.5C 35.5,71.8333 35.5,73.1667 35.5,74.5C 34.6981,75.9516 34.1981,77.6183 34,79.5C 32.1127,77.114 29.6127,75.9473 26.5,76C 27.3411,74.0041 27.0077,72.1708 25.5,70.5C 24.5,70.5 23.5,70.5 22.5,70.5C 22.8333,69.8333 23.1667,69.1667 23.5,68.5C 21.4689,67.4613 20.1355,65.7946 19.5,63.5C 19.6516,58.7126 18.985,54.0459 17.5,49.5C 17.8598,46.2979 18.5265,43.2979 19.5,40.5 Z"/></g>
<g><path style="opacity:1" fill="#2d151f" d="M 56.5,21.5 C 56.3284,22.4916 56.6618,23.1583 57.5,23.5C 60.6248,24.4794 63.9581,24.8128 67.5,24.5C 67.8333,26.5 68.1667,28.5 68.5,30.5C 70.8273,30.2471 72.8273,30.9137 74.5,32.5C 75.782,33.9584 75.782,35.2918 74.5,36.5C 72.4458,36.6347 70.7791,35.968 69.5,34.5C 68.4324,33.5655 67.099,33.2322 65.5,33.5C 65.5,34.8333 65.5,36.1667 65.5,37.5C 64.1667,37.5 62.8333,37.5 61.5,37.5C 61.2322,39.099 61.5655,40.4324 62.5,41.5C 63.5,42.5 64.5,43.5 65.5,44.5C 66.5676,45.4345 67.901,45.7678 69.5,45.5C 70.4731,47.9479 70.8064,50.6146 70.5,53.5C 68.901,53.2322 67.5676,53.5655 66.5,54.5C 65.596,55.209 65.2627,56.209 65.5,57.5C 64.1667,57.5 62.8333,57.5 61.5,57.5C 61.5,58.8333 61.5,60.1667 61.5,61.5C 62.8333,61.5 64.1667,61.5 65.5,61.5C 65.5,63.1667 65.5,64.8333 65.5,66.5C 69.5,67.1667 71.1667,65.5 70.5,61.5C 70.8333,61.5 71.1667,61.5 71.5,61.5C 72.5676,62.4345 73.901,62.7678 75.5,62.5C 75.4519,65.3128 74.7853,67.9795 73.5,70.5C 74.6843,73.5111 74.0176,76.1777 71.5,78.5C 70.7189,77.2713 70.2189,75.938 70,74.5C 65.7321,75.1401 61.5655,75.8067 57.5,76.5C 56.596,77.209 56.2627,78.209 56.5,79.5C 54.8349,77.3883 52.8349,76.7217 50.5,77.5C 49.6184,76.2402 48.6184,75.0736 47.5,74C 49.4635,71.7478 50.4635,69.0811 50.5,66C 50.2559,62.8136 49.9226,59.647 49.5,56.5C 50.1499,56.8039 50.8165,57.1373 51.5,57.5C 52.332,62.492 52.9986,67.492 53.5,72.5C 56.8934,72.9383 59.8934,72.1049 62.5,70C 60.8161,66.4744 58.8161,63.141 56.5,60C 58.8343,56.8281 60.501,53.3281 61.5,49.5C 59.3156,45.4553 57.9822,41.1219 57.5,36.5C 61.8297,35.6768 63.163,33.1768 61.5,29C 59.324,28.8371 57.4907,28.0037 56,26.5C 53.1113,28.7081 51.7779,31.7081 52,35.5C 51.6174,36.056 51.1174,36.3893 50.5,36.5C 50.8064,33.6146 50.4731,30.9479 49.5,28.5C 47.901,28.7678 46.5676,28.4345 45.5,27.5C 45.5,27.1667 45.5,26.8333 45.5,26.5C 46.9733,25.9285 48.64,25.9285 50.5,26.5C 50.5,25.1667 50.5,23.8333 50.5,22.5C 52.5648,22.4828 54.5648,22.1495 56.5,21.5 Z"/></g>
<g><path style="opacity:1" fill="#d12f67" d="M 65.5,61.5 C 67.1667,61.5 68.8333,61.5 70.5,61.5C 71.1667,65.5 69.5,67.1667 65.5,66.5C 65.5,64.8333 65.5,63.1667 65.5,61.5 Z"/></g>
<g><path style="opacity:0.043" fill="#f5cba9" d="M 6.5,63.5 C 6.5,66.1667 6.5,68.8333 6.5,71.5C 5.83333,69.8333 5.16667,68.1667 4.5,66.5C 4.28519,64.8212 4.95186,63.8212 6.5,63.5 Z"/></g>
<g><path style="opacity:1" fill="#fffdff" d="M 39.5,67.5 C 41.1788,67.2852 42.1788,67.9519 42.5,69.5C 40.8212,69.7148 39.8212,69.0481 39.5,67.5 Z"/></g>
<g><path style="opacity:1" fill="#c87eaa" d="M 39.5,67.5 C 39.8212,69.0481 40.8212,69.7148 42.5,69.5C 41.3285,70.3446 39.9952,71.0113 38.5,71.5C 36.631,73.6353 35.9644,76.3019 36.5,79.5C 35.5489,78.0813 35.2155,76.4147 35.5,74.5C 35.5,73.1667 35.5,71.8333 35.5,70.5C 37.1788,70.7148 38.1788,70.0481 38.5,68.5C 38.5,67.8333 38.8333,67.5 39.5,67.5 Z"/></g>
<g><path style="opacity:1" fill="#ab3075" d="M 42.5,62.5 C 42.5,62.8333 42.5,63.1667 42.5,63.5C 43.8333,63.5 44.5,64.1667 44.5,65.5C 45.2223,64.4489 46.2223,63.7822 47.5,63.5C 46.3398,65.2027 47.0065,65.8693 49.5,65.5C 49.7845,67.4147 49.4511,69.0813 48.5,70.5C 48.5,69.1667 48.5,67.8333 48.5,66.5C 47.5,66.5 46.5,66.5 45.5,66.5C 45.5,67.8333 45.5,69.1667 45.5,70.5C 45.5,72.1667 45.5,73.8333 45.5,75.5C 43.8333,75.5 42.1667,75.5 40.5,75.5C 40.5,76.5 40.5,77.5 40.5,78.5C 39.8333,77.5 39.1667,76.5 38.5,75.5C 38.5,74.1667 38.5,72.8333 38.5,71.5C 39.9952,71.0113 41.3285,70.3446 42.5,69.5C 42.1788,67.9519 41.1788,67.2852 39.5,67.5C 40.8062,66.5326 41.4729,65.1993 41.5,63.5C 41.5,62.8333 41.8333,62.5 42.5,62.5 Z"/></g>
<g><path style="opacity:1" fill="#f8edf6" d="M 48.5,70.5 C 47.5,70.5 46.5,70.5 45.5,70.5C 45.5,69.1667 45.5,67.8333 45.5,66.5C 46.5,66.5 47.5,66.5 48.5,66.5C 48.5,67.8333 48.5,69.1667 48.5,70.5 Z"/></g>
<g><path style="opacity:1" fill="#fffbfc" d="M 42.5,63.5 C 43.8333,63.5 44.5,64.1667 44.5,65.5C 43.1667,65.5 42.5,64.8333 42.5,63.5 Z"/></g>
<g><path style="opacity:1" fill="#9f44b1" d="M 22.5,70.5 C 23.5,70.5 24.5,70.5 25.5,70.5C 25.5,71.8333 25.5,73.1667 25.5,74.5C 23.3298,75.768 21.1632,75.768 19,74.5C 18.1531,71.5096 19.3198,70.1762 22.5,70.5 Z"/></g>
<g><path style="opacity:1" fill="#fdfdfe" d="M 38.5,71.5 C 38.5,72.8333 38.5,74.1667 38.5,75.5C 38.8432,77.4832 38.1765,78.8166 36.5,79.5C 35.9644,76.3019 36.631,73.6353 38.5,71.5 Z"/></g>
<g><path style="opacity:0.039" fill="#f4ce8f" d="M 10.5,71.5 C 10.5,73.5 10.5,75.5 10.5,77.5C 9.83333,75.8333 9.16667,74.1667 8.5,72.5C 8.71073,70.5759 9.3774,70.2426 10.5,71.5 Z"/></g>
<g><path style="opacity:1" fill="#c5c0e9" d="M 20.5,71.5 C 23.9571,71.6672 24.2904,72.6672 21.5,74.5C 20.6143,73.675 20.281,72.675 20.5,71.5 Z"/></g>
<g><path style="opacity:1" fill="#f9c3fa" d="M 41.5,71.5 C 42.5,71.5 43.5,71.5 44.5,71.5C 44.5,72.5 44.5,73.5 44.5,74.5C 43.5,74.5 42.5,74.5 41.5,74.5C 41.5,73.5 41.5,72.5 41.5,71.5 Z"/></g>
<g><path style="opacity:0.816" fill="#d36371" d="M 10.5,71.5 C 10.9174,74.1589 11.9174,76.4922 13.5,78.5C 13.1667,80.5 12.8333,82.5 12.5,84.5C 11.5933,82.3432 10.9267,80.0098 10.5,77.5C 10.5,75.5 10.5,73.5 10.5,71.5 Z"/></g>
<g><path style="opacity:1" fill="#63172e" d="M 69.5,34.5 C 70.7791,35.968 72.4458,36.6347 74.5,36.5C 74.5,36.8333 74.5,37.1667 74.5,37.5C 73.5,37.5 72.5,37.5 71.5,37.5C 71.5,38.8333 71.5,40.1667 71.5,41.5C 72.2625,42.2679 73.2625,42.7679 74.5,43C 73.944,43.3826 73.6107,43.8826 73.5,44.5C 72.2227,45.6936 71.5561,47.3603 71.5,49.5C 71.5561,51.6397 72.2227,53.3064 73.5,54.5C 76.2436,55.0143 78.9103,55.0143 81.5,54.5C 81.5,55.1667 81.5,55.8333 81.5,56.5C 80.6236,56.3691 79.9569,56.7025 79.5,57.5C 80.5202,59.4325 80.6869,61.4325 80,63.5C 79.5774,62.0439 78.7441,61.5439 77.5,62C 78.1667,63.3333 78.8333,64.6667 79.5,66C 76.5339,68.7308 75.5339,71.8975 76.5,75.5C 74.6948,76.4033 73.6948,78.4033 73.5,81.5C 73.4226,82.7498 72.756,83.5831 71.5,84C 72.7932,84.49 74.1266,84.6567 75.5,84.5C 75.1667,85.1667 74.8333,85.8333 74.5,86.5C 72.9519,86.8212 72.2852,87.8212 72.5,89.5C 71.8333,91.1667 71.1667,92.8333 70.5,94.5C 70.6968,88.4549 70.3635,82.4549 69.5,76.5C 65.5,76.5 61.5,76.5 57.5,76.5C 61.5655,75.8067 65.7321,75.1401 70,74.5C 70.2189,75.938 70.7189,77.2713 71.5,78.5C 74.0176,76.1777 74.6843,73.5111 73.5,70.5C 74.7853,67.9795 75.4519,65.3128 75.5,62.5C 73.901,62.7678 72.5676,62.4345 71.5,61.5C 71.1667,61.5 70.8333,61.5 70.5,61.5C 68.8333,61.5 67.1667,61.5 65.5,61.5C 65.5,60.1667 65.5,58.8333 65.5,57.5C 67.1667,57.5 68.8333,57.5 70.5,57.5C 70.5,56.5 70.5,55.5 70.5,54.5C 69.1667,54.5 67.8333,54.5 66.5,54.5C 67.5676,53.5655 68.901,53.2322 70.5,53.5C 70.8064,50.6146 70.4731,47.9479 69.5,45.5C 69.5,44.1667 69.5,42.8333 69.5,41.5C 68.5,41.5 67.5,41.5 66.5,41.5C 66.5,40.1667 66.5,38.8333 66.5,37.5C 67.5,37.5 68.5,37.5 69.5,37.5C 69.5,36.5 69.5,35.5 69.5,34.5 Z"/></g>
<g><path style="opacity:1" fill="#ec4db3" d="M 71.5,61.5 C 71.5,60.1667 71.5,58.8333 71.5,57.5C 72.8333,57.5 74.1667,57.5 75.5,57.5C 75.5,58.8333 75.5,60.1667 75.5,61.5C 74.1667,61.5 72.8333,61.5 71.5,61.5 Z"/></g>
<g><path style="opacity:1" fill="#41172a" d="M 48.5,56.5 C 48.8333,56.5 49.1667,56.5 49.5,56.5C 49.9226,59.647 50.2559,62.8136 50.5,66C 50.4635,69.0811 49.4635,71.7478 47.5,74C 48.6184,75.0736 49.6184,76.2402 50.5,77.5C 52.8349,76.7217 54.8349,77.3883 56.5,79.5C 55.791,80.404 54.791,80.7373 53.5,80.5C 48.5765,82.8431 43.5765,83.0097 38.5,81C 39.756,80.5831 40.4226,79.7498 40.5,78.5C 40.5,77.5 40.5,76.5 40.5,75.5C 42.1667,75.5 43.8333,75.5 45.5,75.5C 45.5,73.8333 45.5,72.1667 45.5,70.5C 46.5,70.5 47.5,70.5 48.5,70.5C 49.4511,69.0813 49.7845,67.4147 49.5,65.5C 47.0065,65.8693 46.3398,65.2027 47.5,63.5C 48.4682,61.3926 48.8016,59.0593 48.5,56.5 Z"/></g>
<g><path style="opacity:1" fill="#7f2148" d="M 25.5,70.5 C 27.0077,72.1708 27.3411,74.0041 26.5,76C 29.6127,75.9473 32.1127,77.114 34,79.5C 34.1981,77.6183 34.6981,75.9516 35.5,74.5C 35.2155,76.4147 35.5489,78.0813 36.5,79.5C 38.1765,78.8166 38.8432,77.4832 38.5,75.5C 39.1667,76.5 39.8333,77.5 40.5,78.5C 40.4226,79.7498 39.756,80.5831 38.5,81C 43.5765,83.0097 48.5765,82.8431 53.5,80.5C 53.5,80.8333 53.5,81.1667 53.5,81.5C 53.5,81.8333 53.5,82.1667 53.5,82.5C 51.8793,82.7869 50.8793,83.7869 50.5,85.5C 46.5411,86.6599 42.5411,86.8265 38.5,86C 39.8333,85.3333 39.8333,84.6667 38.5,84C 37.2068,83.51 35.8734,83.3433 34.5,83.5C 33.713,81.8958 32.3797,81.2291 30.5,81.5C 30.6495,80.448 30.4828,79.448 30,78.5C 29.6667,78.8333 29.3333,79.1667 29,79.5C 28.2904,78.0267 27.1238,77.3601 25.5,77.5C 25.5,76.5 25.5,75.5 25.5,74.5C 25.5,73.1667 25.5,71.8333 25.5,70.5 Z"/></g>
<g><path style="opacity:0.2" fill="#832334" d="M 81.5,56.5 C 81.5,61.8333 81.5,67.1667 81.5,72.5C 81.5,73.1667 81.5,73.8333 81.5,74.5C 80.8333,76.1667 80.1667,77.8333 79.5,79.5C 78.791,80.404 77.791,80.7373 76.5,80.5C 76.7678,82.099 76.4345,83.4324 75.5,84.5C 75.6602,82.8008 75.4935,81.1341 75,79.5C 74.7216,80.4158 74.2216,81.0825 73.5,81.5C 73.6948,78.4033 74.6948,76.4033 76.5,75.5C 75.5339,71.8975 76.5339,68.7308 79.5,66C 78.8333,64.6667 78.1667,63.3333 77.5,62C 78.7441,61.5439 79.5774,62.0439 80,63.5C 80.6869,61.4325 80.5202,59.4325 79.5,57.5C 79.9569,56.7025 80.6236,56.3691 81.5,56.5 Z"/></g>
<g><path style="opacity:1" fill="#f7c18b" d="M 79.5,79.5 C 77.107,77.2383 76.9403,74.5716 79,71.5C 79.4974,74.146 79.6641,76.8127 79.5,79.5 Z"/></g>
<g><path style="opacity:1" fill="#e92b94" d="M 57.5,76.5 C 61.5,76.5 65.5,76.5 69.5,76.5C 70.3635,82.4549 70.6968,88.4549 70.5,94.5C 69.8106,95.7736 68.9772,95.7736 68,94.5C 67.2596,96.9703 65.7596,98.637 63.5,99.5C 60.5,99.5 57.5,99.5 54.5,99.5C 54.5,99.1667 54.5,98.8333 54.5,98.5C 56.7812,98.9227 58.4479,98.256 59.5,96.5C 57.9766,94.4143 58.31,92.7476 60.5,91.5C 62.5,91.5 64.5,91.5 66.5,91.5C 67.3202,87.8024 65.9869,85.4691 62.5,84.5C 60.8247,84.8684 59.8247,85.8684 59.5,87.5C 57.783,84.1552 57.1164,80.4885 57.5,76.5 Z"/></g>
<g><path style="opacity:0.992" fill="#f39299" d="M 75.5,84.5 C 74.1266,84.6567 72.7932,84.49 71.5,84C 72.756,83.5831 73.4226,82.7498 73.5,81.5C 74.2216,81.0825 74.7216,80.4158 75,79.5C 75.4935,81.1341 75.6602,82.8008 75.5,84.5 Z"/></g>
<g><path style="opacity:1" fill="#f6d49c" d="M 13.5,78.5 C 13.8333,78.5 14.1667,78.5 14.5,78.5C 14.5,80.1667 14.5,81.8333 14.5,83.5C 16.1992,83.3398 17.8659,83.5065 19.5,84C 17.6183,84.1981 15.9516,84.6981 14.5,85.5C 13.5084,85.6716 12.8417,85.3382 12.5,84.5C 12.8333,82.5 13.1667,80.5 13.5,78.5 Z"/></g>
<g><path style="opacity:1" fill="#f8e8f3" d="M 60.5,91.5 C 59.7659,90.2921 59.4326,88.9587 59.5,87.5C 59.8247,85.8684 60.8247,84.8684 62.5,84.5C 65.9869,85.4691 67.3202,87.8024 66.5,91.5C 64.5,91.5 62.5,91.5 60.5,91.5 Z"/></g>
<g><path style="opacity:1" fill="#f3bbc3" d="M 21.5,83.5 C 22.8333,83.5 24.1667,83.5 25.5,83.5C 25.3398,85.1992 25.5065,86.8659 26,88.5C 27.1455,87.3157 28.3121,87.3157 29.5,88.5C 32.3854,88.1936 35.0521,88.5269 37.5,89.5C 32.8333,89.5 28.1667,89.5 23.5,89.5C 23.5,88.1667 23.5,86.8333 23.5,85.5C 22.325,85.719 21.325,85.3857 20.5,84.5C 20.6236,83.8933 20.9569,83.56 21.5,83.5 Z"/></g>
<g><path style="opacity:1" fill="#d43967" d="M 53.5,82.5 C 53.5,85.5 53.5,88.5 53.5,91.5C 48.1667,91.5 42.8333,91.5 37.5,91.5C 37.5,91.1667 37.5,90.8333 37.5,90.5C 37.5,90.1667 37.5,89.8333 37.5,89.5C 35.0521,88.5269 32.3854,88.1936 29.5,88.5C 32.1203,88.009 34.4537,86.8423 36.5,85C 35.1667,84.6667 33.8333,84.3333 32.5,84C 33.0944,83.5357 33.7611,83.369 34.5,83.5C 35.8734,83.3433 37.2068,83.51 38.5,84C 39.8333,84.6667 39.8333,85.3333 38.5,86C 42.5411,86.8265 46.5411,86.6599 50.5,85.5C 50.8793,83.7869 51.8793,82.7869 53.5,82.5 Z"/></g>
<g><path style="opacity:1" fill="#f76b55" d="M 55.5,81.5 C 56.2128,86.3979 56.8795,91.3979 57.5,96.5C 55.5583,91.9443 54.8917,86.9443 55.5,81.5 Z"/></g>
<g><path style="opacity:1" fill="#be6658" d="M 74.5,86.5 C 75.9405,88.4199 75.6071,90.0866 73.5,91.5C 72.7025,91.0431 72.3691,90.3764 72.5,89.5C 72.2852,87.8212 72.9519,86.8212 74.5,86.5 Z"/></g>
<g><path style="opacity:0.549" fill="#c45862" d="M 14.5,78.5 C 15.4345,79.5676 15.7678,80.901 15.5,82.5C 17.7354,82.2053 19.7354,82.5386 21.5,83.5C 20.9569,83.56 20.6236,83.8933 20.5,84.5C 21.325,85.3857 22.325,85.719 23.5,85.5C 23.5,86.8333 23.5,88.1667 23.5,89.5C 28.1667,89.5 32.8333,89.5 37.5,89.5C 37.5,89.8333 37.5,90.1667 37.5,90.5C 35.8958,91.287 35.2291,92.6203 35.5,94.5C 34.5655,93.4324 34.2322,92.099 34.5,90.5C 30.5,90.5 26.5,90.5 22.5,90.5C 22.5,89.1667 22.5,87.8333 22.5,86.5C 19.7628,86.5987 17.0961,86.2653 14.5,85.5C 15.9516,84.6981 17.6183,84.1981 19.5,84C 17.8659,83.5065 16.1992,83.3398 14.5,83.5C 14.5,81.8333 14.5,80.1667 14.5,78.5 Z"/></g>
<g><path style="opacity:1" fill="#f6e59c" d="M 37.5,90.5 C 37.5,90.8333 37.5,91.1667 37.5,91.5C 38.6085,92.29 39.9419,92.79 41.5,93C 39.9419,93.21 38.6085,93.71 37.5,94.5C 36.8333,94.5 36.1667,94.5 35.5,94.5C 35.2291,92.6203 35.8958,91.287 37.5,90.5 Z"/></g>
<g><path style="opacity:1" fill="#ee6f8e" d="M 57.5,76.5 C 57.1164,80.4885 57.783,84.1552 59.5,87.5C 59.4326,88.9587 59.7659,90.2921 60.5,91.5C 58.31,92.7476 57.9766,94.4143 59.5,96.5C 58.8333,96.5 58.1667,96.5 57.5,96.5C 56.8795,91.3979 56.2128,86.3979 55.5,81.5C 54.8333,81.5 54.1667,81.5 53.5,81.5C 53.5,81.1667 53.5,80.8333 53.5,80.5C 54.791,80.7373 55.791,80.404 56.5,79.5C 56.2627,78.209 56.596,77.209 57.5,76.5 Z"/></g>
<g><path style="opacity:0.894" fill="#f4ab90" d="M 37.5,91.5 C 42.8333,91.5 48.1667,91.5 53.5,91.5C 53.5,92.5 53.5,93.5 53.5,94.5C 48.1667,94.5 42.8333,94.5 37.5,94.5C 38.6085,93.71 39.9419,93.21 41.5,93C 39.9419,92.79 38.6085,92.29 37.5,91.5 Z"/></g>
<g><path style="opacity:0.129" fill="#9d2633" d="M 35.5,94.5 C 36.1667,94.5 36.8333,94.5 37.5,94.5C 42.8333,94.5 48.1667,94.5 53.5,94.5C 53.5,95.8333 53.5,97.1667 53.5,98.5C 52.596,97.791 52.2627,96.791 52.5,95.5C 46.642,95.8222 40.9753,95.4889 35.5,94.5 Z"/></g>
<g><path style="opacity:1" fill="#f5ed76" d="M 53.5,81.5 C 54.1667,81.5 54.8333,81.5 55.5,81.5C 54.8917,86.9443 55.5583,91.9443 57.5,96.5C 58.1667,96.5 58.8333,96.5 59.5,96.5C 58.4479,98.256 56.7812,98.9227 54.5,98.5C 54.1667,98.5 53.8333,98.5 53.5,98.5C 53.5,97.1667 53.5,95.8333 53.5,94.5C 53.5,93.5 53.5,92.5 53.5,91.5C 53.5,88.5 53.5,85.5 53.5,82.5C 53.5,82.1667 53.5,81.8333 53.5,81.5 Z"/></g>
</svg>
