<?xml version="1.0" encoding="UTF-8"?>
<!DOCTYPE svg PUBLIC "-//W3C//DTD SVG 1.1//EN" "http://www.w3.org/Graphics/SVG/1.1/DTD/svg11.dtd">
<svg xmlns="http://www.w3.org/2000/svg" version="1.1" width="84px" height="99px" style="shape-rendering:geometricPrecision; text-rendering:geometricPrecision; image-rendering:optimizeQuality; fill-rule:evenodd; clip-rule:evenodd" xmlns:xlink="http://www.w3.org/1999/xlink">
<g><path style="opacity:1" fill="#faf15e" d="M 56.5,0.5 C 64.5,1.16667 64.5,1.83333 56.5,2.5C 56.5,1.83333 56.5,1.16667 56.5,0.5 Z"/></g>
<g><path style="opacity:1" fill="#da973b" d="M 56.5,0.5 C 56.5,0.166667 56.5,-0.166667 56.5,-0.5C 60.1667,-0.5 63.8333,-0.5 67.5,-0.5C 67.5,-0.166667 67.5,0.166667 67.5,0.5C 66.448,0.350549 65.448,0.517215 64.5,1C 65.3366,2.01127 65.67,3.17793 65.5,4.5C 64.5,4.5 63.5,4.5 62.5,4.5C 60.5,3.83333 58.5,3.16667 56.5,2.5C 64.5,1.83333 64.5,1.16667 56.5,0.5 Z"/></g>
<g><path style="opacity:0.906" fill="#ba8138" d="M 54.5,3.5 C 54.5,3.83333 54.5,4.16667 54.5,4.5C 52.5977,7.33732 51.931,10.6707 52.5,14.5C 51.8333,12.8333 51.1667,11.1667 50.5,9.5C 48.0122,7.61216 45.0122,6.9455 41.5,7.5C 41.5,7.16667 41.5,6.83333 41.5,6.5C 44.8333,6.5 48.1667,6.5 51.5,6.5C 51.5,5.5 51.5,4.5 51.5,3.5C 52.5,3.5 53.5,3.5 54.5,3.5 Z"/></g>
<g><path style="opacity:1" fill="#fbf84e" d="M 67.5,0.5 C 68.9704,4.33615 69.9704,8.33615 70.5,12.5C 67.5,12.5 64.5,12.5 61.5,12.5C 59.9398,9.54081 60.2732,6.87414 62.5,4.5C 63.5,4.5 64.5,4.5 65.5,4.5C 65.67,3.17793 65.3366,2.01127 64.5,1C 65.448,0.517215 66.448,0.350549 67.5,0.5 Z"/></g>
<g><path style="opacity:0.914" fill="#bd9a3b" d="M 10.5,8.5 C 11.8333,8.5 13.1667,8.5 14.5,8.5C 14.5,11.1667 14.5,13.8333 14.5,16.5C 12.5,16.5 10.5,16.5 8.5,16.5C 9.95161,15.6981 11.6183,15.1981 13.5,15C 12.2532,13.5421 12.2532,12.0421 13.5,10.5C 12.3984,9.82434 11.3984,9.15767 10.5,8.5 Z"/></g>
<g><path style="opacity:1" fill="#f6e758" d="M 37.5,7.5 C 37.1667,8.5 36.5,9.16667 35.5,9.5C 31.8183,9.3347 28.1516,9.50137 24.5,10C 24.0338,11.2988 24.0338,12.7988 24.5,14.5C 22.8333,14.5 21.1667,14.5 19.5,14.5C 17.9519,14.1788 17.2852,13.1788 17.5,11.5C 18.8333,11.5 20.1667,11.5 21.5,11.5C 21.5,10.1667 21.5,8.83333 21.5,7.5C 26.8333,7.5 32.1667,7.5 37.5,7.5 Z"/></g>
<g><path style="opacity:1" fill="#f8e052" d="M 41.5,7.5 C 45.0122,6.9455 48.0122,7.61216 50.5,9.5C 46.9878,10.0545 43.9878,9.38784 41.5,7.5 Z"/></g>
<g><path style="opacity:1" fill="#ae5c3a" d="M 37.5,6.5 C 38.8333,6.5 40.1667,6.5 41.5,6.5C 41.5,6.83333 41.5,7.16667 41.5,7.5C 43.9878,9.38784 46.9878,10.0545 50.5,9.5C 45.6946,10.4872 40.6946,10.8205 35.5,10.5C 35.5,10.1667 35.5,9.83333 35.5,9.5C 36.5,9.16667 37.1667,8.5 37.5,7.5C 37.5,7.16667 37.5,6.83333 37.5,6.5 Z"/></g>
<g><path style="opacity:1" fill="#e5683b" d="M 67.5,0.5 C 68.8333,0.5 70.1667,0.5 71.5,0.5C 71.5382,3.95108 72.2049,7.28441 73.5,10.5C 73.019,13.3143 71.3523,14.6476 68.5,14.5C 68.7373,15.791 68.404,16.791 67.5,17.5C 67.5,16.1667 67.5,14.8333 67.5,13.5C 68.791,13.7373 69.791,13.404 70.5,12.5C 69.9704,8.33615 68.9704,4.33615 67.5,0.5 Z"/></g>
<g><path style="opacity:0.298" fill="#a1732e" d="M 12.5,6.5 C 13.9187,5.54885 15.5853,5.21552 17.5,5.5C 17.5,7.16667 17.5,8.83333 17.5,10.5C 18.5,10.5 19.5,10.5 20.5,10.5C 20.5,9.16667 20.5,7.83333 20.5,6.5C 26.1667,6.5 31.8333,6.5 37.5,6.5C 37.5,6.83333 37.5,7.16667 37.5,7.5C 32.1667,7.5 26.8333,7.5 21.5,7.5C 21.5,8.83333 21.5,10.1667 21.5,11.5C 20.1667,11.5 18.8333,11.5 17.5,11.5C 17.1667,11.5 16.8333,11.5 16.5,11.5C 16.5,9.83333 16.5,8.16667 16.5,6.5C 15.1667,6.5 13.8333,6.5 12.5,6.5 Z"/></g>
<g><path style="opacity:1" fill="#f6e152" d="M 54.5,4.5 C 54.5,8.16667 54.5,11.8333 54.5,15.5C 53.5084,15.6716 52.8417,15.3382 52.5,14.5C 51.931,10.6707 52.5977,7.33732 54.5,4.5 Z"/></g>
<g><path style="opacity:1" fill="#f6d449" d="M 61.5,12.5 C 64.5,12.5 67.5,12.5 70.5,12.5C 69.791,13.404 68.791,13.7373 67.5,13.5C 67.5,14.8333 67.5,16.1667 67.5,17.5C 67.6716,18.4916 67.3382,19.1583 66.5,19.5C 65.5,19.5 64.5,19.5 63.5,19.5C 63.8151,16.7892 63.1484,14.4559 61.5,12.5 Z"/></g>
<g><path style="opacity:1" fill="#db6741" d="M 56.5,0.5 C 56.5,1.16667 56.5,1.83333 56.5,2.5C 58.5,3.16667 60.5,3.83333 62.5,4.5C 60.2732,6.87414 59.9398,9.54081 61.5,12.5C 63.1484,14.4559 63.8151,16.7892 63.5,19.5C 64.5,19.5 65.5,19.5 66.5,19.5C 63.5,20.8333 60.5,20.8333 57.5,19.5C 59.1667,19.5 60.8333,19.5 62.5,19.5C 62.5,18.5 62.5,17.5 62.5,16.5C 60.5,16.5 58.5,16.5 56.5,16.5C 56.5,17.5 56.5,18.5 56.5,19.5C 55.8333,19.5 55.5,19.1667 55.5,18.5C 55.7373,17.209 55.404,16.209 54.5,15.5C 54.5,11.8333 54.5,8.16667 54.5,4.5C 54.5,4.16667 54.5,3.83333 54.5,3.5C 55.1667,2.5 55.8333,1.5 56.5,0.5 Z"/></g>
<g><path style="opacity:1" fill="#b84a3a" d="M 33.5,10.5 C 33.2605,14.8422 32.9272,19.1756 32.5,23.5C 29.9214,23.3939 27.588,24.0605 25.5,25.5C 25.5,22.5 25.5,19.5 25.5,16.5C 25.5,14.5 25.5,12.5 25.5,10.5C 28.1667,10.5 30.8333,10.5 33.5,10.5 Z"/></g>
<g><path style="opacity:1" fill="#652b2e" d="M 50.5,9.5 C 51.1667,11.1667 51.8333,12.8333 52.5,14.5C 52.8417,15.3382 53.5084,15.6716 54.5,15.5C 55.404,16.209 55.7373,17.209 55.5,18.5C 54.8333,18.5 54.1667,18.5 53.5,18.5C 52.5,18.5 51.5,18.5 50.5,18.5C 46.2984,18.1832 42.2984,18.5166 38.5,19.5C 38.5,19.8333 38.5,20.1667 38.5,20.5C 37.1667,20.5 35.8333,20.5 34.5,20.5C 34.5,23.5 34.5,26.5 34.5,29.5C 34.1667,29.5 33.8333,29.5 33.5,29.5C 33.5,28.1667 33.5,26.8333 33.5,25.5C 31.4086,25.3184 29.4086,25.6518 27.5,26.5C 26.8324,29.3056 26.1657,31.9723 25.5,34.5C 25.5,31.5 25.5,28.5 25.5,25.5C 27.588,24.0605 29.9214,23.3939 32.5,23.5C 32.9272,19.1756 33.2605,14.8422 33.5,10.5C 34.1667,10.5 34.8333,10.5 35.5,10.5C 40.6946,10.8205 45.6946,10.4872 50.5,9.5 Z"/></g>
<g><path style="opacity:1" fill="#f3d55e" d="M 57.5,19.5 C 57.1667,19.5 56.8333,19.5 56.5,19.5C 56.5,18.5 56.5,17.5 56.5,16.5C 58.5,16.5 60.5,16.5 62.5,16.5C 62.5,17.5 62.5,18.5 62.5,19.5C 60.8333,19.5 59.1667,19.5 57.5,19.5 Z"/></g>
<g><path style="opacity:0.345" fill="#80451c" d="M 8.5,17.5 C 8.5,18.8333 8.5,20.1667 8.5,21.5C 7.5,21.5 6.5,21.5 5.5,21.5C 5.16667,21.5 4.83333,21.5 4.5,21.5C 5.20895,20.596 6.20895,20.2627 7.5,20.5C 7.26269,19.209 7.59603,18.209 8.5,17.5 Z"/></g>
<g><path style="opacity:1" fill="#f1c24a" d="M 16.5,11.5 C 16.8333,11.5 17.1667,11.5 17.5,11.5C 17.2852,13.1788 17.9519,14.1788 19.5,14.5C 18.3661,18.1012 16.6994,21.4345 14.5,24.5C 9.8096,24.9403 8.47626,27.2736 10.5,31.5C 10.1207,33.2131 9.12071,34.2131 7.5,34.5C 7.5,32.5 7.5,30.5 7.5,28.5C 7.5,26.8333 7.5,25.1667 7.5,23.5C 8.83333,23.5 10.1667,23.5 11.5,23.5C 11.2148,21.712 11.5481,20.0453 12.5,18.5C 13.1667,18.8333 13.8333,19.1667 14.5,19.5C 15.1676,16.6944 15.8343,14.0277 16.5,11.5 Z"/></g>
<g><path style="opacity:1" fill="#f2d855" d="M 78.5,22.5 C 78.0372,25.3303 77.3705,27.997 76.5,30.5C 75.7347,27.9039 75.4013,25.2372 75.5,22.5C 76.5,22.5 77.5,22.5 78.5,22.5 Z"/></g>
<g><path style="opacity:1" fill="#eeac4d" d="M 35.5,9.5 C 35.5,9.83333 35.5,10.1667 35.5,10.5C 34.8333,10.5 34.1667,10.5 33.5,10.5C 30.8333,10.5 28.1667,10.5 25.5,10.5C 25.5,12.5 25.5,14.5 25.5,16.5C 24.596,17.209 24.2627,18.209 24.5,19.5C 20.7415,22.4347 19.0749,26.4347 19.5,31.5C 18.5,31.5 17.5,31.5 16.5,31.5C 14.1803,29.5512 13.5136,27.2178 14.5,24.5C 16.6994,21.4345 18.3661,18.1012 19.5,14.5C 21.1667,14.5 22.8333,14.5 24.5,14.5C 24.0338,12.7988 24.0338,11.2988 24.5,10C 28.1516,9.50137 31.8183,9.3347 35.5,9.5 Z"/></g>
<g><path style="opacity:1" fill="#5e182e" d="M 53.5,18.5 C 54.1667,18.5 54.8333,18.5 55.5,18.5C 55.5,19.1667 55.8333,19.5 56.5,19.5C 56.9704,20.6935 57.9704,21.3601 59.5,21.5C 61.6595,21.8799 63.8261,22.2133 66,22.5C 68.1986,21.5532 70.032,20.5532 71.5,19.5C 71.3398,21.1992 71.5065,22.8659 72,24.5C 72.7697,25.5981 73.603,25.5981 74.5,24.5C 74.7989,26.604 74.4656,28.604 73.5,30.5C 72.914,30.2907 72.414,29.9574 72,29.5C 71.6322,30.91 70.7989,31.91 69.5,32.5C 67.1324,30.777 64.4658,30.1103 61.5,30.5C 61.5,31.5 61.5,32.5 61.5,33.5C 60.4324,34.4345 59.099,34.7678 57.5,34.5C 57.5,33.5 57.5,32.5 57.5,31.5C 61.6604,30.7619 62.9937,28.4286 61.5,24.5C 58.9795,23.2147 56.3128,22.5481 53.5,22.5C 53.5,21.1667 53.5,19.8333 53.5,18.5 Z"/></g>
<g><path style="opacity:1" fill="#a13939" d="M 67.5,0.5 C 67.5,0.166667 67.5,-0.166667 67.5,-0.5C 69.1667,-0.5 70.8333,-0.5 72.5,-0.5C 72.3398,1.19919 72.5065,2.86586 73,4.5C 76.102,7.58396 76.2686,10.9173 73.5,14.5C 74.3482,16.4086 74.6816,18.4086 74.5,20.5C 74.5,21.8333 74.5,23.1667 74.5,24.5C 73.603,25.5981 72.7697,25.5981 72,24.5C 71.5065,22.8659 71.3398,21.1992 71.5,19.5C 70.032,20.5532 68.1986,21.5532 66,22.5C 63.8261,22.2133 61.6595,21.8799 59.5,21.5C 57.9704,21.3601 56.9704,20.6935 56.5,19.5C 56.8333,19.5 57.1667,19.5 57.5,19.5C 60.5,20.8333 63.5,20.8333 66.5,19.5C 67.3382,19.1583 67.6716,18.4916 67.5,17.5C 68.404,16.791 68.7373,15.791 68.5,14.5C 71.3523,14.6476 73.019,13.3143 73.5,10.5C 72.2049,7.28441 71.5382,3.95108 71.5,0.5C 70.1667,0.5 68.8333,0.5 67.5,0.5 Z"/></g>
<g><path style="opacity:1" fill="#f5ed60" d="M 12.5,6.5 C 13.8333,6.5 15.1667,6.5 16.5,6.5C 16.5,8.16667 16.5,9.83333 16.5,11.5C 15.8343,14.0277 15.1676,16.6944 14.5,19.5C 13.8333,19.1667 13.1667,18.8333 12.5,18.5C 11.5481,20.0453 11.2148,21.712 11.5,23.5C 10.1667,23.5 8.83333,23.5 7.5,23.5C 7.5,25.1667 7.5,26.8333 7.5,28.5C 6.77842,28.9175 6.27842,29.5842 6,30.5C 5.50204,27.5184 5.33537,24.5184 5.5,21.5C 6.5,21.5 7.5,21.5 8.5,21.5C 8.5,20.1667 8.5,18.8333 8.5,17.5C 8.5,17.1667 8.5,16.8333 8.5,16.5C 10.5,16.5 12.5,16.5 14.5,16.5C 14.5,13.8333 14.5,11.1667 14.5,8.5C 13.1667,8.5 11.8333,8.5 10.5,8.5C 10.8333,7.5 11.5,6.83333 12.5,6.5 Z"/></g>
<g><path style="opacity:1" fill="#2b2124" d="M 38.5,19.5 C 42.2984,18.5166 46.2984,18.1832 50.5,18.5C 50.5858,19.4959 50.2524,20.3292 49.5,21C 51.2262,22.5298 53.2262,23.5298 55.5,24C 57.1028,27.5268 56.2695,30.3602 53,32.5C 52.2534,35.9236 52.42,39.2569 53.5,42.5C 53.1667,42.5 52.8333,42.5 52.5,42.5C 51.7119,36.3151 51.0452,29.9818 50.5,23.5C 46.2664,22.7087 42.2664,21.3754 38.5,19.5 Z"/></g>
<g><path style="opacity:0.776" fill="#b47431" d="M 78.5,22.5 C 79.7199,24.0496 79.7199,25.7163 78.5,27.5C 78.5,28.8333 78.5,30.1667 78.5,31.5C 77.5084,31.6716 76.8417,31.3382 76.5,30.5C 77.3705,27.997 78.0372,25.3303 78.5,22.5 Z"/></g>
<g><path style="opacity:1" fill="#f29a4b" d="M 24.5,19.5 C 24.6641,22.1873 24.4974,24.854 24,27.5C 20.8985,30.7793 19.7318,34.7793 20.5,39.5C 18.8333,39.5 17.1667,39.5 15.5,39.5C 14.8333,39.5 14.1667,39.5 13.5,39.5C 15.4607,37.2018 16.4607,34.5351 16.5,31.5C 17.5,31.5 18.5,31.5 19.5,31.5C 19.0749,26.4347 20.7415,22.4347 24.5,19.5 Z"/></g>
<g><path style="opacity:0.376" fill="#845624" d="M 4.5,21.5 C 5.03562,24.6981 4.36895,27.3647 2.5,29.5C 1.83333,29.5 1.16667,29.5 0.5,29.5C 1.20895,28.596 2.20895,28.2627 3.5,28.5C 3.19845,25.9407 3.53178,23.6074 4.5,21.5 Z"/></g>
<g><path style="opacity:1" fill="#e8804e" d="M 25.5,16.5 C 25.5,19.5 25.5,22.5 25.5,25.5C 25.5,28.5 25.5,31.5 25.5,34.5C 24.1667,34.5 22.8333,34.5 21.5,34.5C 21.5,36.1667 21.5,37.8333 21.5,39.5C 21.1667,39.5 20.8333,39.5 20.5,39.5C 19.7318,34.7793 20.8985,30.7793 24,27.5C 24.4974,24.854 24.6641,22.1873 24.5,19.5C 24.2627,18.209 24.596,17.209 25.5,16.5 Z"/></g>
<g><path style="opacity:1" fill="#97f733" d="M 38.5,20.5 C 38.5,20.8333 38.5,21.1667 38.5,21.5C 38.5,22.5 38.5,23.5 38.5,24.5C 39.5676,25.4345 40.901,25.7678 42.5,25.5C 42.5,27.1667 42.5,28.8333 42.5,30.5C 43.8333,30.5 45.1667,30.5 46.5,30.5C 46.5,33.8333 46.5,37.1667 46.5,40.5C 45.5,40.5 44.5,40.5 43.5,40.5C 43.5,38.5 43.5,36.5 43.5,34.5C 41.8333,34.5 40.1667,34.5 38.5,34.5C 38.5,32.8333 38.5,31.1667 38.5,29.5C 37.1667,29.5 35.8333,29.5 34.5,29.5C 34.5,26.5 34.5,23.5 34.5,20.5C 35.8333,20.5 37.1667,20.5 38.5,20.5 Z"/></g>
<g><path style="opacity:1" fill="#ecd553" d="M 4.5,21.5 C 4.83333,21.5 5.16667,21.5 5.5,21.5C 5.33537,24.5184 5.50204,27.5184 6,30.5C 6.27842,29.5842 6.77842,28.9175 7.5,28.5C 7.5,30.5 7.5,32.5 7.5,34.5C 6.79105,35.404 5.79105,35.7373 4.5,35.5C 4.65668,34.1266 4.49001,32.7932 4,31.5C 3.50258,34.146 3.33591,36.8127 3.5,39.5C 3.5,45.5 3.5,51.5 3.5,57.5C 3.5,60.8333 3.5,64.1667 3.5,67.5C 3.16667,67.5 2.83333,67.5 2.5,67.5C 2.5,54.8333 2.5,42.1667 2.5,29.5C 4.36895,27.3647 5.03562,24.6981 4.5,21.5 Z"/></g>
<g><path style="opacity:1" fill="#341b23" d="M 50.5,18.5 C 51.5,18.5 52.5,18.5 53.5,18.5C 53.5,19.8333 53.5,21.1667 53.5,22.5C 56.3128,22.5481 58.9795,23.2147 61.5,24.5C 62.9937,28.4286 61.6604,30.7619 57.5,31.5C 57.5,32.5 57.5,33.5 57.5,34.5C 57.5,36.5 57.5,38.5 57.5,40.5C 57.5,41.1667 57.8333,41.5 58.5,41.5C 58.7495,44.0021 59.0828,46.5021 59.5,49C 59.5177,51.4418 58.851,53.6085 57.5,55.5C 57.5,55.8333 57.5,56.1667 57.5,56.5C 56.8333,56.5 56.5,56.8333 56.5,57.5C 55.5269,59.9479 55.1936,62.6146 55.5,65.5C 54.8826,65.3893 54.3826,65.056 54,64.5C 53.5026,61.854 53.3359,59.1873 53.5,56.5C 54.0049,53.4788 54.6716,50.4788 55.5,47.5C 54.8131,45.8228 54.1465,44.1561 53.5,42.5C 52.42,39.2569 52.2534,35.9236 53,32.5C 56.2695,30.3602 57.1028,27.5268 55.5,24C 53.2262,23.5298 51.2262,22.5298 49.5,21C 50.2524,20.3292 50.5858,19.4959 50.5,18.5 Z"/></g>
<g><path style="opacity:1" fill="#75d846" d="M 38.5,24.5 C 40.1667,24.5 41.8333,24.5 43.5,24.5C 43.5,26.1667 43.5,27.8333 43.5,29.5C 44.8333,29.5 46.1667,29.5 47.5,29.5C 47.5,33.1667 47.5,36.8333 47.5,40.5C 47.1667,40.5 46.8333,40.5 46.5,40.5C 46.5,37.1667 46.5,33.8333 46.5,30.5C 45.1667,30.5 43.8333,30.5 42.5,30.5C 42.5,28.8333 42.5,27.1667 42.5,25.5C 40.901,25.7678 39.5676,25.4345 38.5,24.5 Z"/></g>
<g><path style="opacity:1" fill="#385427" d="M 34.5,29.5 C 35.8333,29.5 37.1667,29.5 38.5,29.5C 38.5,31.1667 38.5,32.8333 38.5,34.5C 38.1667,34.5 37.8333,34.5 37.5,34.5C 37.5,34.1667 37.5,33.8333 37.5,33.5C 37.5,32.5 37.5,31.5 37.5,30.5C 36.209,30.7373 35.209,30.404 34.5,29.5 Z"/></g>
<g><path style="opacity:1" fill="#f1b750" d="M 14.5,24.5 C 13.5136,27.2178 14.1803,29.5512 16.5,31.5C 16.4607,34.5351 15.4607,37.2018 13.5,39.5C 11.5,39.5 9.5,39.5 7.5,39.5C 6.16667,39.5 4.83333,39.5 3.5,39.5C 3.33591,36.8127 3.50258,34.146 4,31.5C 4.49001,32.7932 4.65668,34.1266 4.5,35.5C 5.79105,35.7373 6.79105,35.404 7.5,34.5C 9.12071,34.2131 10.1207,33.2131 10.5,31.5C 8.47626,27.2736 9.8096,24.9403 14.5,24.5 Z"/></g>
<g><path style="opacity:1" fill="#502436" d="M 33.5,29.5 C 32.2209,30.968 30.5542,31.6347 28.5,31.5C 27.0415,36.6955 24.5415,41.3622 21,45.5C 20.8333,46.6667 20.6667,47.8333 20.5,49C 21.6511,53.9434 22.9845,58.7768 24.5,63.5C 23.5,63.5 22.5,63.5 21.5,63.5C 21.5,61.5 21.5,59.5 21.5,57.5C 20.1667,57.5 18.8333,57.5 17.5,57.5C 18.44,51.2857 19.7733,45.2857 21.5,39.5C 21.5,37.8333 21.5,36.1667 21.5,34.5C 22.8333,34.5 24.1667,34.5 25.5,34.5C 26.1657,31.9723 26.8324,29.3056 27.5,26.5C 29.4086,25.6518 31.4086,25.3184 33.5,25.5C 33.5,26.8333 33.5,28.1667 33.5,29.5 Z"/></g>
<g><path style="opacity:1" fill="#3c2430" d="M 33.5,29.5 C 33.8333,29.5 34.1667,29.5 34.5,29.5C 35.209,30.404 36.209,30.7373 37.5,30.5C 37.5,31.5 37.5,32.5 37.5,33.5C 35.9582,32.6993 34.2915,32.366 32.5,32.5C 31.6869,36.1267 29.8536,39.1267 27,41.5C 26.1663,46.4775 25.3329,51.3108 24.5,56C 25.0074,61.1187 27.674,64.2853 32.5,65.5C 34.1992,65.3398 35.8659,65.5065 37.5,66C 36.2625,66.2321 35.2625,66.7321 34.5,67.5C 34.1667,67.5 33.8333,67.5 33.5,67.5C 30.5825,67.6349 27.9158,66.9682 25.5,65.5C 25.6716,64.5084 25.3382,63.8417 24.5,63.5C 22.9845,58.7768 21.6511,53.9434 20.5,49C 20.6667,47.8333 20.8333,46.6667 21,45.5C 24.5415,41.3622 27.0415,36.6955 28.5,31.5C 30.5542,31.6347 32.2209,30.968 33.5,29.5 Z"/></g>
<g><path style="opacity:1" fill="#205f43" d="M 38.5,21.5 C 40.4898,22.999 42.8232,23.8324 45.5,24C 46.3802,25.3561 46.7135,26.8561 46.5,28.5C 47.8333,28.5 49.1667,28.5 50.5,28.5C 50.5,32.5 50.5,36.5 50.5,40.5C 49.5,40.5 48.5,40.5 47.5,40.5C 47.5,36.8333 47.5,33.1667 47.5,29.5C 46.1667,29.5 44.8333,29.5 43.5,29.5C 43.5,27.8333 43.5,26.1667 43.5,24.5C 41.8333,24.5 40.1667,24.5 38.5,24.5C 38.5,23.5 38.5,22.5 38.5,21.5 Z"/></g>
<g><path style="opacity:1" fill="#211b22" d="M 38.5,39.5 C 38.573,41.0269 37.9063,42.0269 36.5,42.5C 35.4749,43.3739 34.8082,44.5405 34.5,46C 35.8333,47.3333 35.8333,48.6667 34.5,50C 34.9054,50.9454 35.572,51.6121 36.5,52C 35.3593,54.2237 36.026,55.7237 38.5,56.5C 36.1488,58.2029 33.4822,58.7029 30.5,58C 31.7383,57.31 31.7383,56.81 30.5,56.5C 30.4894,54.9826 29.8228,53.8159 28.5,53C 29.1667,51.6667 30.1667,50.6667 31.5,50C 30.9415,49.2753 30.6082,48.4419 30.5,47.5C 31.7857,45.3745 32.6191,43.0411 33,40.5C 33.3333,40.8333 33.6667,41.1667 34,41.5C 35.1096,39.9632 36.6096,39.2965 38.5,39.5 Z"/></g>
<g><path style="opacity:1" fill="#fcd195" d="M 63.5,31.5 C 64.8333,31.5 66.1667,31.5 67.5,31.5C 67.5,33.5 67.5,35.5 67.5,37.5C 67.5,38.5 67.5,39.5 67.5,40.5C 69.1667,40.5 70.8333,40.5 72.5,40.5C 72.5,45.8333 72.5,51.1667 72.5,56.5C 70.8333,56.5 69.1667,56.5 67.5,56.5C 67.5,59.1667 67.5,61.8333 67.5,64.5C 66.1667,64.5 64.8333,64.5 63.5,64.5C 63.7373,63.209 63.404,62.209 62.5,61.5C 62.5,61.1667 62.5,60.8333 62.5,60.5C 63.8333,60.5 65.1667,60.5 66.5,60.5C 66.5,58.8333 66.5,57.1667 66.5,55.5C 68.1667,55.5 69.8333,55.5 71.5,55.5C 71.5,50.8333 71.5,46.1667 71.5,41.5C 70.1667,41.5 68.8333,41.5 67.5,41.5C 67.9244,48.0102 68.9244,52.3435 70.5,54.5C 68.2627,53.551 65.9294,52.8844 63.5,52.5C 64.5676,51.5655 65.901,51.2322 67.5,51.5C 67.5,49.5 67.5,47.5 67.5,45.5C 65.901,45.7678 64.5676,45.4345 63.5,44.5C 63.5,42.8333 63.5,41.1667 63.5,39.5C 61.8333,39.5 60.1667,39.5 58.5,39.5C 58.5,38.1667 58.5,36.8333 58.5,35.5C 60.1667,35.5 61.8333,35.5 63.5,35.5C 63.5,34.1667 63.5,32.8333 63.5,31.5 Z"/></g>
<g><path style="opacity:1" fill="#202222" d="M 38.5,19.5 C 42.2664,21.3754 46.2664,22.7087 50.5,23.5C 51.0452,29.9818 51.7119,36.3151 52.5,42.5C 51.8902,43.391 51.5569,44.391 51.5,45.5C 50.7784,45.0825 50.2784,44.4158 50,43.5C 49.3333,44.8333 48.6667,46.1667 48,47.5C 47.7508,46.376 47.2508,45.376 46.5,44.5C 44.5633,43.2343 42.2299,43.2343 39.5,44.5C 39.2296,47.8574 39.8963,50.1908 41.5,51.5C 39.0916,50.2647 37.0916,48.4314 35.5,46C 37.3731,45.0471 37.7065,43.8804 36.5,42.5C 37.9063,42.0269 38.573,41.0269 38.5,39.5C 37.6993,37.9582 37.366,36.2915 37.5,34.5C 37.8333,34.5 38.1667,34.5 38.5,34.5C 39.5676,35.4345 40.901,35.7678 42.5,35.5C 42.2155,37.4147 42.5489,39.0813 43.5,40.5C 44.5,40.5 45.5,40.5 46.5,40.5C 46.8333,40.5 47.1667,40.5 47.5,40.5C 48.5,40.5 49.5,40.5 50.5,40.5C 50.5,36.5 50.5,32.5 50.5,28.5C 49.1667,28.5 47.8333,28.5 46.5,28.5C 46.7135,26.8561 46.3802,25.3561 45.5,24C 42.8232,23.8324 40.4898,22.999 38.5,21.5C 38.5,21.1667 38.5,20.8333 38.5,20.5C 38.5,20.1667 38.5,19.8333 38.5,19.5 Z"/></g>
<g><path style="opacity:1" fill="#385d29" d="M 38.5,34.5 C 40.1667,34.5 41.8333,34.5 43.5,34.5C 43.5,36.5 43.5,38.5 43.5,40.5C 42.5489,39.0813 42.2155,37.4147 42.5,35.5C 40.901,35.7678 39.5676,35.4345 38.5,34.5 Z"/></g>
<g><path style="opacity:1" fill="#db6f61" d="M 63.5,31.5 C 63.5,32.8333 63.5,34.1667 63.5,35.5C 61.8333,35.5 60.1667,35.5 58.5,35.5C 58.5,36.8333 58.5,38.1667 58.5,39.5C 60.1667,39.5 61.8333,39.5 63.5,39.5C 63.5,41.1667 63.5,42.8333 63.5,44.5C 62.5655,43.4324 62.2322,42.099 62.5,40.5C 60.8333,40.5 59.1667,40.5 57.5,40.5C 57.5,38.5 57.5,36.5 57.5,34.5C 59.099,34.7678 60.4324,34.4345 61.5,33.5C 62.1667,32.8333 62.8333,32.1667 63.5,31.5 Z"/></g>
<g><path style="opacity:1" fill="#e52b82" d="M 67.5,65.5 C 67.5,65.1667 67.5,64.8333 67.5,64.5C 67.5,61.8333 67.5,59.1667 67.5,56.5C 69.1667,56.5 70.8333,56.5 72.5,56.5C 72.5,51.1667 72.5,45.8333 72.5,40.5C 70.8333,40.5 69.1667,40.5 67.5,40.5C 67.5,39.5 67.5,38.5 67.5,37.5C 69.717,36.6314 72.0504,36.298 74.5,36.5C 75.3649,44.4659 75.6982,52.4659 75.5,60.5C 71.8206,60.667 69.154,62.3337 67.5,65.5 Z"/></g>
<g><path style="opacity:1" fill="#2c2029" d="M 37.5,33.5 C 37.5,33.8333 37.5,34.1667 37.5,34.5C 37.366,36.2915 37.6993,37.9582 38.5,39.5C 36.6096,39.2965 35.1096,39.9632 34,41.5C 33.6667,41.1667 33.3333,40.8333 33,40.5C 32.6191,43.0411 31.7857,45.3745 30.5,47.5C 30.6082,48.4419 30.9415,49.2753 31.5,50C 30.1667,50.6667 29.1667,51.6667 28.5,53C 29.8228,53.8159 30.4894,54.9826 30.5,56.5C 29.5416,56.0472 28.7083,55.3805 28,54.5C 28.358,58.5605 29.858,62.2272 32.5,65.5C 27.674,64.2853 25.0074,61.1187 24.5,56C 25.3329,51.3108 26.1663,46.4775 27,41.5C 29.8536,39.1267 31.6869,36.1267 32.5,32.5C 34.2915,32.366 35.9582,32.6993 37.5,33.5 Z"/></g>
<g><path style="opacity:1" fill="#8f183a" d="M 74.5,20.5 C 75.9952,20.9887 77.3285,21.6554 78.5,22.5C 77.5,22.5 76.5,22.5 75.5,22.5C 75.4013,25.2372 75.7347,27.9039 76.5,30.5C 76.8417,31.3382 77.5084,31.6716 78.5,31.5C 79.6573,40.3238 79.824,49.3238 79,58.5C 77.9617,61.8147 76.4617,64.8147 74.5,67.5C 70.5483,66.7279 66.5483,66.3946 62.5,66.5C 62.5,66.1667 62.5,65.8333 62.5,65.5C 64.1667,65.5 65.8333,65.5 67.5,65.5C 69.154,62.3337 71.8206,60.667 75.5,60.5C 75.6982,52.4659 75.3649,44.4659 74.5,36.5C 72.0504,36.298 69.717,36.6314 67.5,37.5C 67.5,35.5 67.5,33.5 67.5,31.5C 66.1667,31.5 64.8333,31.5 63.5,31.5C 62.8333,32.1667 62.1667,32.8333 61.5,33.5C 61.5,32.5 61.5,31.5 61.5,30.5C 64.4658,30.1103 67.1324,30.777 69.5,32.5C 70.7989,31.91 71.6322,30.91 72,29.5C 72.414,29.9574 72.914,30.2907 73.5,30.5C 74.4656,28.604 74.7989,26.604 74.5,24.5C 74.5,23.1667 74.5,21.8333 74.5,20.5 Z"/></g>
<g><path style="opacity:1" fill="#5a1229" d="M 58.5,41.5 C 59.5,41.5 60.5,41.5 61.5,41.5C 62.8333,46.1667 62.8333,50.8333 61.5,55.5C 60.1667,55.5 58.8333,55.5 57.5,55.5C 58.851,53.6085 59.5177,51.4418 59.5,49C 59.0828,46.5021 58.7495,44.0021 58.5,41.5 Z"/></g>
<g><path style="opacity:1" fill="#c0ba40" d="M 14.5,45.5 C 15.4916,45.3284 16.1583,45.6618 16.5,46.5C 14.5,46.5 12.5,46.5 10.5,46.5C 10.5,47.8333 10.5,49.1667 10.5,50.5C 9.54885,49.0813 9.21552,47.4147 9.5,45.5C 11.1667,45.5 12.8333,45.5 14.5,45.5 Z"/></g>
<g><path style="opacity:1" fill="#baed39" d="M 16.5,46.5 C 17.4511,47.9187 17.7845,49.5853 17.5,51.5C 16.8333,51.5 16.1667,51.5 15.5,51.5C 13.5853,51.7845 11.9187,51.4511 10.5,50.5C 10.5,49.1667 10.5,47.8333 10.5,46.5C 12.5,46.5 14.5,46.5 16.5,46.5 Z"/></g>
<g><path style="opacity:1" fill="#d57241" d="M 3.5,39.5 C 4.83333,39.5 6.16667,39.5 7.5,39.5C 6.73747,40.2679 5.73747,40.7679 4.5,41C 5.44802,41.4828 6.44802,41.6495 7.5,41.5C 7.67571,46.8797 7.34238,52.213 6.5,57.5C 5.5,57.5 4.5,57.5 3.5,57.5C 3.5,51.5 3.5,45.5 3.5,39.5 Z"/></g>
<g><path style="opacity:1" fill="#1c1a1d" d="M 36.5,42.5 C 37.7065,43.8804 37.3731,45.0471 35.5,46C 37.0916,48.4314 39.0916,50.2647 41.5,51.5C 45.6904,54.3812 49.6904,54.0479 53.5,50.5C 52.9724,48.6639 52.3058,46.9972 51.5,45.5C 51.5569,44.391 51.8902,43.391 52.5,42.5C 52.8333,42.5 53.1667,42.5 53.5,42.5C 54.1465,44.1561 54.8131,45.8228 55.5,47.5C 54.6716,50.4788 54.0049,53.4788 53.5,56.5C 52.6862,58.631 52.1862,60.9644 52,63.5C 51.5026,60.854 51.3359,58.1873 51.5,55.5C 48.6146,55.1936 45.9479,55.5269 43.5,56.5C 42.8333,56.5 42.5,56.8333 42.5,57.5C 41.2921,56.7659 39.9587,56.4326 38.5,56.5C 36.026,55.7237 35.3593,54.2237 36.5,52C 35.572,51.6121 34.9054,50.9454 34.5,50C 35.8333,48.6667 35.8333,47.3333 34.5,46C 34.8082,44.5405 35.4749,43.3739 36.5,42.5 Z"/></g>
<g><path style="opacity:1" fill="#161717" d="M 51.5,45.5 C 52.3058,46.9972 52.9724,48.6639 53.5,50.5C 49.6904,54.0479 45.6904,54.3812 41.5,51.5C 39.8963,50.1908 39.2296,47.8574 39.5,44.5C 42.2299,43.2343 44.5633,43.2343 46.5,44.5C 47.2508,45.376 47.7508,46.376 48,47.5C 48.6667,46.1667 49.3333,44.8333 50,43.5C 50.2784,44.4158 50.7784,45.0825 51.5,45.5 Z"/></g>
<g><path style="opacity:1" fill="#dac555" d="M 0.5,29.5 C 1.16667,29.5 1.83333,29.5 2.5,29.5C 2.5,42.1667 2.5,54.8333 2.5,67.5C 1.83333,67.5 1.16667,67.5 0.5,67.5C 0.5,66.8333 0.166667,66.5 -0.5,66.5C -0.5,65.8333 -0.5,65.1667 -0.5,64.5C 0.833333,64.1667 0.833333,63.8333 -0.5,63.5C -0.5,52.5 -0.5,41.5 -0.5,30.5C 0.166667,30.5 0.5,30.1667 0.5,29.5 Z"/></g>
<g><path style="opacity:1" fill="#c56040" d="M 7.5,39.5 C 9.5,39.5 11.5,39.5 13.5,39.5C 14.1667,39.5 14.8333,39.5 15.5,39.5C 15.4828,41.5648 15.1495,43.5648 14.5,45.5C 12.8333,45.5 11.1667,45.5 9.5,45.5C 9.21552,47.4147 9.54885,49.0813 10.5,50.5C 11.9187,51.4511 13.5853,51.7845 15.5,51.5C 13.3382,53.1689 13.0048,55.1689 14.5,57.5C 12.1667,57.5 9.83333,57.5 7.5,57.5C 7.16667,57.5 6.83333,57.5 6.5,57.5C 7.34238,52.213 7.67571,46.8797 7.5,41.5C 6.44802,41.6495 5.44802,41.4828 4.5,41C 5.73747,40.7679 6.73747,40.2679 7.5,39.5 Z"/></g>
<g><path style="opacity:1" fill="#743139" d="M 15.5,39.5 C 17.1667,39.5 18.8333,39.5 20.5,39.5C 20.8333,39.5 21.1667,39.5 21.5,39.5C 19.7733,45.2857 18.44,51.2857 17.5,57.5C 16.2584,55.6112 16.2584,53.6112 17.5,51.5C 17.7845,49.5853 17.4511,47.9187 16.5,46.5C 16.1583,45.6618 15.4916,45.3284 14.5,45.5C 15.1495,43.5648 15.4828,41.5648 15.5,39.5 Z"/></g>
<g><path style="opacity:1" fill="#aa2039" d="M 57.5,40.5 C 59.1667,40.5 60.8333,40.5 62.5,40.5C 62.2322,42.099 62.5655,43.4324 63.5,44.5C 64.5676,45.4345 65.901,45.7678 67.5,45.5C 67.5,47.5 67.5,49.5 67.5,51.5C 65.901,51.2322 64.5676,51.5655 63.5,52.5C 63.5,53.8333 63.5,55.1667 63.5,56.5C 61.8333,56.5 60.1667,56.5 58.5,56.5C 58.5,57.8333 58.5,59.1667 58.5,60.5C 59.8333,60.5 61.1667,60.5 62.5,60.5C 62.5,60.8333 62.5,61.1667 62.5,61.5C 62.5,62.8333 62.5,64.1667 62.5,65.5C 58.082,64.1701 56.4153,61.1701 57.5,56.5C 57.5,56.1667 57.5,55.8333 57.5,55.5C 58.8333,55.5 60.1667,55.5 61.5,55.5C 62.8333,50.8333 62.8333,46.1667 61.5,41.5C 60.5,41.5 59.5,41.5 58.5,41.5C 57.8333,41.5 57.5,41.1667 57.5,40.5 Z"/></g>
<g><path style="opacity:1" fill="#29633f" d="M 47.5,56.5 C 48.5,56.5 49.5,56.5 50.5,56.5C 52.157,66.4934 48.157,72.8267 38.5,75.5C 38.5,74.5 38.5,73.5 38.5,72.5C 40.1667,72.5 41.8333,72.5 43.5,72.5C 43.5,70.8333 43.5,69.1667 43.5,67.5C 44.8333,67.5 46.1667,67.5 47.5,67.5C 47.5,63.8333 47.5,60.1667 47.5,56.5 Z"/></g>
<g><path style="opacity:1" fill="#fedf8f" d="M 62.5,60.5 C 61.1667,60.5 59.8333,60.5 58.5,60.5C 58.5,59.1667 58.5,57.8333 58.5,56.5C 60.1667,56.5 61.8333,56.5 63.5,56.5C 63.5,55.1667 63.5,53.8333 63.5,52.5C 65.9294,52.8844 68.2627,53.551 70.5,54.5C 68.9244,52.3435 67.9244,48.0102 67.5,41.5C 68.8333,41.5 70.1667,41.5 71.5,41.5C 71.5,46.1667 71.5,50.8333 71.5,55.5C 69.8333,55.5 68.1667,55.5 66.5,55.5C 66.5,57.1667 66.5,58.8333 66.5,60.5C 65.1667,60.5 63.8333,60.5 62.5,60.5 Z"/></g>
<g><path style="opacity:1" fill="#852c28" d="M 78.5,27.5 C 80.0418,28.3007 81.7085,28.634 83.5,28.5C 83.5,28.8333 83.5,29.1667 83.5,29.5C 82.5,29.5 81.5,29.5 80.5,29.5C 79.853,42.5441 80.5197,55.2108 82.5,67.5C 81.791,68.404 80.791,68.7373 79.5,68.5C 79.7845,70.4147 79.4511,72.0813 78.5,73.5C 78.8134,70.7531 78.48,68.0865 77.5,65.5C 75.7298,68.1934 75.0632,71.1934 75.5,74.5C 75.0907,79.6954 74.7574,85.0288 74.5,90.5C 74.6621,88.4727 74.4955,86.4727 74,84.5C 72.5187,83.5291 71.6854,82.1958 71.5,80.5C 72.7479,79.6661 73.4146,78.3328 73.5,76.5C 73.4892,74.9549 73.1558,73.6216 72.5,72.5C 72.8308,70.6776 73.4975,69.0109 74.5,67.5C 76.4617,64.8147 77.9617,61.8147 79,58.5C 79.824,49.3238 79.6573,40.3238 78.5,31.5C 78.5,30.1667 78.5,28.8333 78.5,27.5 Z"/></g>
<g><path style="opacity:1" fill="#d9b764" d="M 83.5,29.5 C 83.5,42.1667 83.5,54.8333 83.5,67.5C 83.1667,67.5 82.8333,67.5 82.5,67.5C 80.5197,55.2108 79.853,42.5441 80.5,29.5C 81.5,29.5 82.5,29.5 83.5,29.5 Z"/></g>
<g><path style="opacity:1" fill="#292729" d="M 30.5,56.5 C 31.7383,56.81 31.7383,57.31 30.5,58C 33.4822,58.7029 36.1488,58.2029 38.5,56.5C 39.9587,56.4326 41.2921,56.7659 42.5,57.5C 42.5,58.8333 42.5,60.1667 42.5,61.5C 41.209,61.2627 40.209,61.596 39.5,62.5C 38.5489,63.9187 38.2155,65.5853 38.5,67.5C 37.1667,67.5 35.8333,67.5 34.5,67.5C 35.2625,66.7321 36.2625,66.2321 37.5,66C 35.8659,65.5065 34.1992,65.3398 32.5,65.5C 29.858,62.2272 28.358,58.5605 28,54.5C 28.7083,55.3805 29.5416,56.0472 30.5,56.5 Z"/></g>
<g><path style="opacity:1" fill="#376623" d="M 43.5,56.5 C 43.5,58.5 43.5,60.5 43.5,62.5C 42.1667,62.5 40.8333,62.5 39.5,62.5C 40.209,61.596 41.209,61.2627 42.5,61.5C 42.5,60.1667 42.5,58.8333 42.5,57.5C 42.5,56.8333 42.8333,56.5 43.5,56.5 Z"/></g>
<g><path style="opacity:1" fill="#96f339" d="M 43.5,56.5 C 44.8333,56.5 46.1667,56.5 47.5,56.5C 47.5,60.1667 47.5,63.8333 47.5,67.5C 46.1667,67.5 44.8333,67.5 43.5,67.5C 43.5,69.1667 43.5,70.8333 43.5,72.5C 41.8333,72.5 40.1667,72.5 38.5,72.5C 38.5,73.5 38.5,74.5 38.5,75.5C 37.1667,75.5 35.8333,75.5 34.5,75.5C 34.5,72.8333 34.5,70.1667 34.5,67.5C 35.8333,67.5 37.1667,67.5 38.5,67.5C 38.2155,65.5853 38.5489,63.9187 39.5,62.5C 40.8333,62.5 42.1667,62.5 43.5,62.5C 43.5,60.5 43.5,58.5 43.5,56.5 Z"/></g>
<g><path style="opacity:1" fill="#ee8c88" d="M 62.5,61.5 C 63.404,62.209 63.7373,63.209 63.5,64.5C 64.8333,64.5 66.1667,64.5 67.5,64.5C 67.5,64.8333 67.5,65.1667 67.5,65.5C 65.8333,65.5 64.1667,65.5 62.5,65.5C 62.5,64.1667 62.5,62.8333 62.5,61.5 Z"/></g>
<g><path style="opacity:1" fill="#ee994d" d="M 7.5,57.5 C 9.83333,57.5 12.1667,57.5 14.5,57.5C 16.3792,58.3414 18.3792,58.6747 20.5,58.5C 20.5,60.5 20.5,62.5 20.5,64.5C 21.8333,64.5 23.1667,64.5 24.5,64.5C 24.6133,69.518 24.9466,74.518 25.5,79.5C 24.7677,78.1917 23.9344,76.8584 23,75.5C 22.3333,76.1667 21.6667,76.8333 21,77.5C 20.7337,72.9306 19.7337,68.5973 18,64.5C 17.1841,63.1772 16.0174,62.5106 14.5,62.5C 10.0685,63.4702 7.73519,61.8035 7.5,57.5 Z"/></g>
<g><path style="opacity:1" fill="#391c24" d="M 56.5,57.5 C 56.1866,60.2469 56.52,62.9135 57.5,65.5C 61.3472,67.1822 62.3472,69.8488 60.5,73.5C 56.6509,73.0193 54.6509,74.686 54.5,78.5C 52.9582,79.3007 51.2915,79.634 49.5,79.5C 49.9528,78.5416 50.6195,77.7083 51.5,77C 50.6919,76.6924 50.0253,76.1924 49.5,75.5C 51.2895,74.1228 53.2895,73.1228 55.5,72.5C 56.7143,70.1413 56.7143,67.808 55.5,65.5C 55.1936,62.6146 55.5269,59.9479 56.5,57.5 Z"/></g>
<g><path style="opacity:1" fill="#f1b64f" d="M 3.5,57.5 C 4.5,57.5 5.5,57.5 6.5,57.5C 6.83333,57.5 7.16667,57.5 7.5,57.5C 7.73519,61.8035 10.0685,63.4702 14.5,62.5C 15.1039,68.2982 16.4373,73.9649 18.5,79.5C 17.1886,80.2575 16.6886,81.2575 17,82.5C 19.3806,81.565 21.8806,81.2317 24.5,81.5C 24.5,83.1667 24.5,84.8333 24.5,86.5C 23.8333,86.5 23.1667,86.5 22.5,86.5C 22.5,85.8333 22.1667,85.5 21.5,85.5C 21.5386,84.2438 21.0386,83.2438 20,82.5C 18.6439,83.3802 17.1439,83.7135 15.5,83.5C 15.5,81.5 15.5,79.5 15.5,77.5C 14.1667,77.5 12.8333,77.5 11.5,77.5C 11.5,75.8333 11.5,74.1667 11.5,72.5C 10.1667,72.5 8.83333,72.5 7.5,72.5C 7.81741,69.4281 7.48408,66.4281 6.5,63.5C 4.88882,64.3202 4.22216,65.6536 4.5,67.5C 4.16667,67.5 3.83333,67.5 3.5,67.5C 3.5,64.1667 3.5,60.8333 3.5,57.5 Z"/></g>
<g><path style="opacity:1" fill="#6a6e28" d="M 33.5,67.5 C 33.8333,67.5 34.1667,67.5 34.5,67.5C 34.5,70.1667 34.5,72.8333 34.5,75.5C 35.8333,75.5 37.1667,75.5 38.5,75.5C 38.5,75.8333 38.5,76.1667 38.5,76.5C 37.8333,76.5 37.1667,76.5 36.5,76.5C 35.5,76.5 34.5,76.5 33.5,76.5C 33.5,73.5 33.5,70.5 33.5,67.5 Z"/></g>
<g><path style="opacity:1" fill="#54182c" d="M 57.5,56.5 C 56.4153,61.1701 58.082,64.1701 62.5,65.5C 62.5,65.8333 62.5,66.1667 62.5,66.5C 65.203,67.2025 67.203,68.8692 68.5,71.5C 67.8333,72.1667 67.1667,72.8333 66.5,73.5C 63.3583,74.1674 60.3583,74.834 57.5,75.5C 57.1667,76.1667 56.8333,76.8333 56.5,77.5C 55.8333,77.5 55.5,77.8333 55.5,78.5C 55.1667,78.5 54.8333,78.5 54.5,78.5C 54.6509,74.686 56.6509,73.0193 60.5,73.5C 62.3472,69.8488 61.3472,67.1822 57.5,65.5C 56.52,62.9135 56.1866,60.2469 56.5,57.5C 56.5,56.8333 56.8333,56.5 57.5,56.5 Z"/></g>
<g><path style="opacity:1" fill="#e9d264" d="M 78.5,73.5 C 77.791,74.404 76.791,74.7373 75.5,74.5C 75.0632,71.1934 75.7298,68.1934 77.5,65.5C 78.48,68.0865 78.8134,70.7531 78.5,73.5 Z"/></g>
<g><path style="opacity:0.059" fill="#79451c" d="M 0.5,67.5 C 1.16667,67.5 1.83333,67.5 2.5,67.5C 2.83333,67.5 3.16667,67.5 3.5,67.5C 3.83333,67.5 4.16667,67.5 4.5,67.5C 4.5,69.8333 4.5,72.1667 4.5,74.5C 3.53862,72.7354 3.20528,70.7354 3.5,68.5C 2.20895,68.7373 1.20895,68.404 0.5,67.5 Z"/></g>
<g><path style="opacity:1" fill="#642a32" d="M 25.5,65.5 C 27.9158,66.9682 30.5825,67.6349 33.5,67.5C 33.5,70.5 33.5,73.5 33.5,76.5C 32.596,75.791 32.2627,74.791 32.5,73.5C 26.9797,73.8493 24.6464,71.1826 25.5,65.5 Z"/></g>
<g><path style="opacity:1" fill="#651631" d="M 62.5,66.5 C 66.5483,66.3946 70.5483,66.7279 74.5,67.5C 73.4975,69.0109 72.8308,70.6776 72.5,72.5C 72.1667,73.8333 71.8333,75.1667 71.5,76.5C 69.8333,76.5 68.1667,76.5 66.5,76.5C 63.7131,75.5233 60.7131,75.19 57.5,75.5C 60.3583,74.834 63.3583,74.1674 66.5,73.5C 67.1667,72.8333 67.8333,72.1667 68.5,71.5C 67.203,68.8692 65.203,67.2025 62.5,66.5 Z"/></g>
<g><path style="opacity:1" fill="#eda34f" d="M 14.5,62.5 C 16.0174,62.5106 17.1841,63.1772 18,64.5C 19.7337,68.5973 20.7337,72.9306 21,77.5C 21.6667,76.8333 22.3333,76.1667 23,75.5C 23.9344,76.8584 24.7677,78.1917 25.5,79.5C 25.5,81.8333 25.5,84.1667 25.5,86.5C 27.7354,86.2053 29.7354,86.5386 31.5,87.5C 28.9407,87.8016 26.6074,87.4682 24.5,86.5C 24.5,84.8333 24.5,83.1667 24.5,81.5C 21.8806,81.2317 19.3806,81.565 17,82.5C 16.6886,81.2575 17.1886,80.2575 18.5,79.5C 16.4373,73.9649 15.1039,68.2982 14.5,62.5 Z"/></g>
<g><path style="opacity:1" fill="#2f2626" d="M 43.5,56.5 C 45.9479,55.5269 48.6146,55.1936 51.5,55.5C 51.3359,58.1873 51.5026,60.854 52,63.5C 52.1862,60.9644 52.6862,58.631 53.5,56.5C 53.3359,59.1873 53.5026,61.854 54,64.5C 54.3826,65.056 54.8826,65.3893 55.5,65.5C 56.7143,67.808 56.7143,70.1413 55.5,72.5C 53.2895,73.1228 51.2895,74.1228 49.5,75.5C 50.0253,76.1924 50.6919,76.6924 51.5,77C 50.6195,77.7083 49.9528,78.5416 49.5,79.5C 46.1501,79.665 42.8168,79.4983 39.5,79C 40.8825,77.5391 40.5492,76.7058 38.5,76.5C 38.5,76.1667 38.5,75.8333 38.5,75.5C 48.157,72.8267 52.157,66.4934 50.5,56.5C 49.5,56.5 48.5,56.5 47.5,56.5C 46.1667,56.5 44.8333,56.5 43.5,56.5 Z"/></g>
<g><path style="opacity:1" fill="#a72f37" d="M 57.5,75.5 C 60.7131,75.19 63.7131,75.5233 66.5,76.5C 65.5084,76.3284 64.8417,76.6618 64.5,77.5C 63.8333,77.5 63.1667,77.5 62.5,77.5C 60.5,77.5 58.5,77.5 56.5,77.5C 56.8333,76.8333 57.1667,76.1667 57.5,75.5 Z"/></g>
<g><path style="opacity:1" fill="#e8dd5a" d="M 21.5,85.5 C 19.8333,85.5 18.1667,85.5 16.5,85.5C 16.5,87.1667 16.5,88.8333 16.5,90.5C 14.7363,91.7122 13.0697,91.3788 11.5,89.5C 12.4066,86.5788 12.7399,83.5788 12.5,80.5C 11.1667,80.5 9.83333,80.5 8.5,80.5C 9.06704,77.0886 7.73371,75.0886 4.5,74.5C 4.5,72.1667 4.5,69.8333 4.5,67.5C 4.22216,65.6536 4.88882,64.3202 6.5,63.5C 7.48408,66.4281 7.81741,69.4281 7.5,72.5C 8.83333,72.5 10.1667,72.5 11.5,72.5C 11.5,74.1667 11.5,75.8333 11.5,77.5C 12.8333,77.5 14.1667,77.5 15.5,77.5C 15.5,79.5 15.5,81.5 15.5,83.5C 17.1439,83.7135 18.6439,83.3802 20,82.5C 21.0386,83.2438 21.5386,84.2438 21.5,85.5 Z"/></g>
<g><path style="opacity:1" fill="#e7a264" d="M 72.5,72.5 C 73.1558,73.6216 73.4892,74.9549 73.5,76.5C 73.4146,78.3328 72.7479,79.6661 71.5,80.5C 71.5,79.1667 71.5,77.8333 71.5,76.5C 71.8333,75.1667 72.1667,73.8333 72.5,72.5 Z"/></g>
<g><path style="opacity:1" fill="#a3433d" d="M 15.5,51.5 C 16.1667,51.5 16.8333,51.5 17.5,51.5C 16.2584,53.6112 16.2584,55.6112 17.5,57.5C 18.8333,57.5 20.1667,57.5 21.5,57.5C 21.5,59.5 21.5,61.5 21.5,63.5C 22.5,63.5 23.5,63.5 24.5,63.5C 25.3382,63.8417 25.6716,64.5084 25.5,65.5C 24.6464,71.1826 26.9797,73.8493 32.5,73.5C 32.2627,74.791 32.596,75.791 33.5,76.5C 33.5,79.5 33.5,82.5 33.5,85.5C 38.6848,86.605 43.6848,86.2716 48.5,84.5C 49.2223,83.4489 50.2223,82.7822 51.5,82.5C 51.7845,84.4147 51.4511,86.0813 50.5,87.5C 46.9521,87.0949 43.6188,87.5949 40.5,89C 41.0944,89.4643 41.7611,89.631 42.5,89.5C 42.5,89.8333 42.5,90.1667 42.5,90.5C 40.8333,90.5 39.1667,90.5 37.5,90.5C 37.7373,89.209 37.404,88.209 36.5,87.5C 34.8333,87.5 33.1667,87.5 31.5,87.5C 29.7354,86.5386 27.7354,86.2053 25.5,86.5C 25.5,84.1667 25.5,81.8333 25.5,79.5C 24.9466,74.518 24.6133,69.518 24.5,64.5C 23.1667,64.5 21.8333,64.5 20.5,64.5C 20.5,62.5 20.5,60.5 20.5,58.5C 18.3792,58.6747 16.3792,58.3414 14.5,57.5C 13.0048,55.1689 13.3382,53.1689 15.5,51.5 Z"/></g>
<g><path style="opacity:1" fill="#f9d447" d="M 66.5,76.5 C 66.5,76.8333 66.5,77.1667 66.5,77.5C 67.982,79.8337 68.6487,82.1671 68.5,84.5C 67.1667,84.1667 65.8333,83.8333 64.5,83.5C 64.5,81.5 64.5,79.5 64.5,77.5C 64.8417,76.6618 65.5084,76.3284 66.5,76.5 Z"/></g>
<g><path style="opacity:1" fill="#522729" d="M 36.5,76.5 C 37.1667,76.5 37.8333,76.5 38.5,76.5C 40.5492,76.7058 40.8825,77.5391 39.5,79C 42.8168,79.4983 46.1501,79.665 49.5,79.5C 51.2915,79.634 52.9582,79.3007 54.5,78.5C 54.8333,78.5 55.1667,78.5 55.5,78.5C 55.5,79.5 55.5,80.5 55.5,81.5C 54.209,81.2627 53.209,81.596 52.5,82.5C 52.1667,82.5 51.8333,82.5 51.5,82.5C 50.2223,82.7822 49.2223,83.4489 48.5,84.5C 46.4727,84.6621 44.4727,84.4955 42.5,84C 43.8333,83.6667 45.1667,83.3333 46.5,83C 43.854,82.5026 41.1873,82.3359 38.5,82.5C 37.8333,80.5 37.1667,78.5 36.5,76.5 Z"/></g>
<g><path style="opacity:1" fill="#e87a44" d="M 66.5,77.5 C 70.4643,80.3916 71.7976,84.0583 70.5,88.5C 70.7678,86.901 70.4345,85.5676 69.5,84.5C 69.1667,84.5 68.8333,84.5 68.5,84.5C 68.6487,82.1671 67.982,79.8337 66.5,77.5 Z"/></g>
<g><path style="opacity:1" fill="#602b32" d="M 33.5,76.5 C 34.5,76.5 35.5,76.5 36.5,76.5C 37.1667,78.5 37.8333,80.5 38.5,82.5C 41.1873,82.3359 43.854,82.5026 46.5,83C 45.1667,83.3333 43.8333,83.6667 42.5,84C 44.4727,84.4955 46.4727,84.6621 48.5,84.5C 43.6848,86.2716 38.6848,86.605 33.5,85.5C 33.5,82.5 33.5,79.5 33.5,76.5 Z"/></g>
<g><path style="opacity:1" fill="#faec60" d="M 52.5,82.5 C 54.4023,85.3373 55.069,88.6707 54.5,92.5C 53.8333,92.5 53.1667,92.5 52.5,92.5C 52.5,89.1667 52.5,85.8333 52.5,82.5 Z"/></g>
<g><path style="opacity:1" fill="#c4413c" d="M 66.5,77.5 C 66.5,77.1667 66.5,76.8333 66.5,76.5C 68.1667,76.5 69.8333,76.5 71.5,76.5C 71.5,77.8333 71.5,79.1667 71.5,80.5C 71.6854,82.1958 72.5187,83.5291 74,84.5C 74.4955,86.4727 74.6621,88.4727 74.5,90.5C 73.129,92.4586 72.129,94.6252 71.5,97C 68.9644,97.1862 66.631,97.6862 64.5,98.5C 63.8333,98.5 63.1667,98.5 62.5,98.5C 60.3926,97.5318 58.0593,97.1984 55.5,97.5C 55.5,96.1667 55.5,94.8333 55.5,93.5C 53.901,93.7678 52.5676,93.4345 51.5,92.5C 51.8333,92.5 52.1667,92.5 52.5,92.5C 53.1667,92.5 53.8333,92.5 54.5,92.5C 55.4916,92.3284 56.1583,92.6618 56.5,93.5C 56.5,94.5 56.5,95.5 56.5,96.5C 60.315,95.8951 63.9817,95.8951 67.5,96.5C 67.5,94.8333 67.5,93.1667 67.5,91.5C 68.5,91.5 69.5,91.5 70.5,91.5C 70.5,90.5 70.5,89.5 70.5,88.5C 71.7976,84.0583 70.4643,80.3916 66.5,77.5 Z"/></g>
<g><path style="opacity:1" fill="#fbf76f" d="M 22.5,86.5 C 23.1667,86.5 23.8333,86.5 24.5,86.5C 26.6074,87.4682 28.9407,87.8016 31.5,87.5C 33.1667,87.5 34.8333,87.5 36.5,87.5C 34.4294,88.8086 31.9294,89.4752 29,89.5C 26.5,89.1667 24,88.8333 21.5,88.5C 21.8627,87.8165 22.1961,87.1499 22.5,86.5 Z"/></g>
<g><path style="opacity:1" fill="#f5e86a" d="M 50.5,87.5 C 48.3647,89.369 45.6981,90.0356 42.5,89.5C 41.7611,89.631 41.0944,89.4643 40.5,89C 43.6188,87.5949 46.9521,87.0949 50.5,87.5 Z"/></g>
<g><path style="opacity:1" fill="#fbf958" d="M 64.5,83.5 C 65.8333,83.8333 67.1667,84.1667 68.5,84.5C 68.8333,84.5 69.1667,84.5 69.5,84.5C 69.5,86.5 69.5,88.5 69.5,90.5C 66.8333,90.5 64.1667,90.5 61.5,90.5C 60.3775,88.7116 60.2109,86.7116 61,84.5C 62.0113,83.6634 63.1779,83.33 64.5,83.5 Z"/></g>
<g><path style="opacity:0.42" fill="#ad7f36" d="M 21.5,85.5 C 22.1667,85.5 22.5,85.8333 22.5,86.5C 22.1961,87.1499 21.8627,87.8165 21.5,88.5C 24,88.8333 26.5,89.1667 29,89.5C 31.9294,89.4752 34.4294,88.8086 36.5,87.5C 37.404,88.209 37.7373,89.209 37.5,90.5C 31.8333,90.5 26.1667,90.5 20.5,90.5C 20.5,89.1667 20.5,87.8333 20.5,86.5C 19.5,86.5 18.5,86.5 17.5,86.5C 17.7678,88.099 17.4345,89.4324 16.5,90.5C 16.5,88.8333 16.5,87.1667 16.5,85.5C 18.1667,85.5 19.8333,85.5 21.5,85.5 Z"/></g>
<g><path style="opacity:0.537" fill="#b88741" d="M 51.5,82.5 C 51.8333,82.5 52.1667,82.5 52.5,82.5C 52.5,85.8333 52.5,89.1667 52.5,92.5C 52.1667,92.5 51.8333,92.5 51.5,92.5C 49.0122,90.6122 46.0122,89.9455 42.5,90.5C 42.5,90.1667 42.5,89.8333 42.5,89.5C 45.6981,90.0356 48.3647,89.369 50.5,87.5C 51.4511,86.0813 51.7845,84.4147 51.5,82.5 Z"/></g>
<g><path style="opacity:1" fill="#e46e44" d="M 56.5,77.5 C 56.281,78.675 56.6143,79.675 57.5,80.5C 59.7594,80.2155 61.4261,79.2155 62.5,77.5C 63.1667,77.5 63.8333,77.5 64.5,77.5C 64.5,79.5 64.5,81.5 64.5,83.5C 63.1779,83.33 62.0113,83.6634 61,84.5C 60.2109,86.7116 60.3775,88.7116 61.5,90.5C 62.984,91.4733 63.484,92.8067 63,94.5C 60.9592,93.5769 58.7925,93.2436 56.5,93.5C 56.1583,92.6618 55.4916,92.3284 54.5,92.5C 55.069,88.6707 54.4023,85.3373 52.5,82.5C 53.209,81.596 54.209,81.2627 55.5,81.5C 55.5,80.5 55.5,79.5 55.5,78.5C 55.5,77.8333 55.8333,77.5 56.5,77.5 Z"/></g>
<g><path style="opacity:1" fill="#f6e969" d="M 56.5,77.5 C 58.5,77.5 60.5,77.5 62.5,77.5C 61.4261,79.2155 59.7594,80.2155 57.5,80.5C 56.6143,79.675 56.281,78.675 56.5,77.5 Z"/></g>
<g><path style="opacity:1" fill="#f7d257" d="M 69.5,84.5 C 70.4345,85.5676 70.7678,86.901 70.5,88.5C 70.5,89.5 70.5,90.5 70.5,91.5C 69.5,91.5 68.5,91.5 67.5,91.5C 67.5,93.1667 67.5,94.8333 67.5,96.5C 63.9817,95.8951 60.315,95.8951 56.5,96.5C 56.5,95.5 56.5,94.5 56.5,93.5C 58.7925,93.2436 60.9592,93.5769 63,94.5C 63.484,92.8067 62.984,91.4733 61.5,90.5C 64.1667,90.5 66.8333,90.5 69.5,90.5C 69.5,88.5 69.5,86.5 69.5,84.5 Z"/></g>
</svg>
