<?xml version="1.0" encoding="UTF-8"?>
<!DOCTYPE svg PUBLIC "-//W3C//DTD SVG 1.1//EN" "http://www.w3.org/Graphics/SVG/1.1/DTD/svg11.dtd">
<svg xmlns="http://www.w3.org/2000/svg" version="1.1" width="61px" height="100px" style="shape-rendering:geometricPrecision; text-rendering:geometricPrecision; image-rendering:optimizeQuality; fill-rule:evenodd; clip-rule:evenodd" xmlns:xlink="http://www.w3.org/1999/xlink">
<g><path style="opacity:0.663" fill="#60b996" d="M 25.5,0.5 C 25.5,1.83333 25.5,3.16667 25.5,4.5C 28.0821,4.02539 30.0821,4.69206 31.5,6.5C 31.1667,6.5 30.8333,6.5 30.5,6.5C 28.8333,6.5 27.1667,6.5 25.5,6.5C 25.719,7.67504 25.3857,8.67504 24.5,9.5C 24.1667,8 23.8333,6.5 23.5,5C 23.5687,3.01448 24.2353,1.51448 25.5,0.5 Z"/></g>
<g><path style="opacity:1" fill="#23334b" d="M 30.5,6.5 C 30.8333,6.5 31.1667,6.5 31.5,6.5C 31.5,6.83333 31.5,7.16667 31.5,7.5C 31.8212,9.04814 32.8212,9.71481 34.5,9.5C 34.5,12.5 34.5,15.5 34.5,18.5C 34.5,19.8333 33.8333,20.5 32.5,20.5C 31.5326,21.8062 30.1993,22.4729 28.5,22.5C 28.2,17.9014 28.5333,13.4014 29.5,9C 28.5,8.66667 27.5,8.33333 26.5,8C 28.0581,7.78997 29.3915,7.28997 30.5,6.5 Z"/></g>
<g><path style="opacity:0.745" fill="#49b07e" d="M 31.5,7.5 C 33.1667,7.5 34.8333,7.5 36.5,7.5C 36.5,11.5 36.5,15.5 36.5,19.5C 35.8333,19.1667 35.1667,18.8333 34.5,18.5C 34.5,15.5 34.5,12.5 34.5,9.5C 32.8212,9.71481 31.8212,9.04814 31.5,7.5 Z"/></g>
<g><path style="opacity:0.349" fill="#2f5749" d="M 22.5,-0.5 C 23.5,-0.5 24.5,-0.5 25.5,-0.5C 25.5,-0.166667 25.5,0.166667 25.5,0.5C 24.2353,1.51448 23.5687,3.01448 23.5,5C 23.8333,6.5 24.1667,8 24.5,9.5C 25.3857,8.67504 25.719,7.67504 25.5,6.5C 27.1667,6.5 28.8333,6.5 30.5,6.5C 29.3915,7.28997 28.0581,7.78997 26.5,8C 27.5,8.33333 28.5,8.66667 29.5,9C 28.5333,13.4014 28.2,17.9014 28.5,22.5C 28.1667,22.5 27.8333,22.5 27.5,22.5C 27.6657,18.1539 27.499,13.8206 27,9.5C 26.5014,13.1516 26.3347,16.8183 26.5,20.5C 25.1667,20.5 23.8333,20.5 22.5,20.5C 23.209,19.596 24.209,19.2627 25.5,19.5C 25.5,16.5 25.5,13.5 25.5,10.5C 24.5,10.5 23.5,10.5 22.5,10.5C 22.5,6.83333 22.5,3.16667 22.5,-0.5 Z"/></g>
<g><path style="opacity:0.847" fill="#54c78d" d="M 27.5,22.5 C 24.9407,22.1984 22.6074,22.5318 20.5,23.5C 18.4922,25.0826 16.1589,26.0826 13.5,26.5C 13.1583,27.3382 12.4916,27.6716 11.5,27.5C 11.5,26.8333 11.5,26.1667 11.5,25.5C 14.0545,24.612 16.7212,24.2786 19.5,24.5C 19.5,23.1667 19.5,21.8333 19.5,20.5C 20.3478,19.375 21.3478,19.375 22.5,20.5C 23.8333,20.5 25.1667,20.5 26.5,20.5C 26.3347,16.8183 26.5014,13.1516 27,9.5C 27.499,13.8206 27.6657,18.1539 27.5,22.5 Z"/></g>
<g><path style="opacity:1" fill="#5dd16d" d="M 43.5,15.5 C 44.1031,20.6186 43.4364,25.2853 41.5,29.5C 41.5,28.8333 41.5,28.1667 41.5,27.5C 41.5,25.8333 41.5,24.1667 41.5,22.5C 40.1667,22.5 38.8333,22.5 37.5,22.5C 38.4475,21.0221 39.7809,20.0221 41.5,19.5C 41.1568,17.5168 41.8235,16.1834 43.5,15.5 Z"/></g>
<g><path style="opacity:1" fill="#2f7058" d="M 34.5,18.5 C 35.1667,18.8333 35.8333,19.1667 36.5,19.5C 38.1667,19.5 39.8333,19.5 41.5,19.5C 39.7809,20.0221 38.4475,21.0221 37.5,22.5C 35.2188,22.9227 33.5521,22.256 32.5,20.5C 33.8333,20.5 34.5,19.8333 34.5,18.5 Z"/></g>
<g><path style="opacity:1" fill="#367f4e" d="M 45.5,15.5 C 48.6259,15.4851 51.2926,16.4851 53.5,18.5C 53.1667,18.5 52.8333,18.5 52.5,18.5C 50.5185,17.6525 48.5185,17.1525 46.5,17C 47.9436,18.7068 49.277,20.5401 50.5,22.5C 49.5,23.3333 48.5,24.1667 47.5,25C 48.938,25.2189 50.2713,25.7189 51.5,26.5C 49.604,27.4656 47.604,27.7989 45.5,27.5C 45.5,23.5 45.5,19.5 45.5,15.5 Z"/></g>
<g><path style="opacity:0.737" fill="#5ab960" d="M 52.5,18.5 C 52.8333,18.5 53.1667,18.5 53.5,18.5C 53.5,22.8333 53.5,27.1667 53.5,31.5C 53.5,31.8333 53.5,32.1667 53.5,32.5C 51.9519,32.1788 51.2852,31.1788 51.5,29.5C 52.4816,26.0381 52.815,22.3714 52.5,18.5 Z"/></g>
<g><path style="opacity:0.165" fill="#2c583f" d="M 19.5,20.5 C 19.5,21.8333 19.5,23.1667 19.5,24.5C 16.7212,24.2786 14.0545,24.612 11.5,25.5C 10.2617,25.19 10.2617,24.69 11.5,24C 13.8098,23.5034 16.1432,23.3367 18.5,23.5C 18.2627,22.209 18.596,21.209 19.5,20.5 Z"/></g>
<g><path style="opacity:1" fill="#262938" d="M 32.5,20.5 C 33.5521,22.256 35.2188,22.9227 37.5,22.5C 38.8333,22.5 40.1667,22.5 41.5,22.5C 41.5,24.1667 41.5,25.8333 41.5,27.5C 40.7784,27.9175 40.2784,28.5842 40,29.5C 39.4115,27.1367 37.9115,26.1367 35.5,26.5C 33.6431,25.2463 31.6431,25.2463 29.5,26.5C 27.2262,26.0298 25.2262,25.0298 23.5,23.5C 22.8076,24.0253 22.3076,24.6919 22,25.5C 21.7216,24.5842 21.2216,23.9175 20.5,23.5C 22.6074,22.5318 24.9407,22.1984 27.5,22.5C 27.8333,22.5 28.1667,22.5 28.5,22.5C 30.1993,22.4729 31.5326,21.8062 32.5,20.5 Z"/></g>
<g><path style="opacity:1" fill="#7ef26c" d="M 52.5,18.5 C 52.815,22.3714 52.4816,26.0381 51.5,29.5C 48.9179,29.9746 46.9179,29.3079 45.5,27.5C 47.604,27.7989 49.604,27.4656 51.5,26.5C 50.2713,25.7189 48.938,25.2189 47.5,25C 48.5,24.1667 49.5,23.3333 50.5,22.5C 49.277,20.5401 47.9436,18.7068 46.5,17C 48.5185,17.1525 50.5185,17.6525 52.5,18.5 Z"/></g>
<g><path style="opacity:1" fill="#272d35" d="M 20.5,23.5 C 21.2216,23.9175 21.7216,24.5842 22,25.5C 22.3076,24.6919 22.8076,24.0253 23.5,23.5C 25.2262,25.0298 27.2262,26.0298 29.5,26.5C 31.6431,25.2463 33.6431,25.2463 35.5,26.5C 35.3631,27.9406 34.3631,29.2739 32.5,30.5C 27.1017,28.4016 21.435,27.0683 15.5,26.5C 14.8333,26.5 14.1667,26.5 13.5,26.5C 16.1589,26.0826 18.4922,25.0826 20.5,23.5 Z"/></g>
<g><path style="opacity:1" fill="#20232a" d="M 35.5,26.5 C 37.9115,26.1367 39.4115,27.1367 40,29.5C 40.2784,28.5842 40.7784,27.9175 41.5,27.5C 41.5,28.1667 41.5,28.8333 41.5,29.5C 43.6,31.5799 44.2666,33.9133 43.5,36.5C 42.5,36.5 41.5,36.5 40.5,36.5C 40.8495,33.9552 40.0162,31.9552 38,30.5C 37.0853,31.3279 36.4186,32.3279 36,33.5C 35.7216,32.5842 35.2216,31.9175 34.5,31.5C 34.1667,31.5 33.8333,31.5 33.5,31.5C 33.5,30.8333 33.1667,30.5 32.5,30.5C 34.3631,29.2739 35.3631,27.9406 35.5,26.5 Z"/></g>
<g><path style="opacity:0.584" fill="#cca9ad" d="M 11.5,27.5 C 11.4456,29.632 10.4456,30.9653 8.5,31.5C 8.5,30.1667 8.5,28.8333 8.5,27.5C 9.5,27.5 10.5,27.5 11.5,27.5 Z"/></g>
<g><path style="opacity:1" fill="#292b3b" d="M 15.5,26.5 C 21.435,27.0683 27.1017,28.4016 32.5,30.5C 33.1667,30.5 33.5,30.8333 33.5,31.5C 32.5,31.5 31.5,31.5 30.5,31.5C 27.8333,31.5 25.1667,31.5 22.5,31.5C 22.0773,33.7812 22.744,35.4479 24.5,36.5C 24.5,36.8333 24.5,37.1667 24.5,37.5C 23.5041,37.4142 22.6708,37.7476 22,38.5C 21.4598,30.6015 20.6264,30.6015 19.5,38.5C 17.2188,38.0773 15.5521,38.744 14.5,40.5C 13.8333,40.5 13.5,40.8333 13.5,41.5C 13.0461,39.7411 13.0461,37.7411 13.5,35.5C 13.8726,32.4261 14.5392,29.4261 15.5,26.5 Z"/></g>
<g><path style="opacity:1" fill="#212227" d="M 40.5,36.5 C 40.5,38.8333 40.5,41.1667 40.5,43.5C 39.5,43.5 38.5,43.5 37.5,43.5C 37.8016,40.9407 37.4682,38.6074 36.5,36.5C 36.1667,36.5 35.8333,36.5 35.5,36.5C 34.6993,34.9582 34.366,33.2915 34.5,31.5C 35.2216,31.9175 35.7216,32.5842 36,33.5C 36.4186,32.3279 37.0853,31.3279 38,30.5C 40.0162,31.9552 40.8495,33.9552 40.5,36.5 Z"/></g>
<g><path style="opacity:1" fill="#26323a" d="M 43.5,15.5 C 44.1667,15.5 44.8333,15.5 45.5,15.5C 45.5,19.5 45.5,23.5 45.5,27.5C 46.9179,29.3079 48.9179,29.9746 51.5,29.5C 51.2852,31.1788 51.9519,32.1788 53.5,32.5C 53.5228,34.5996 52.8561,36.4329 51.5,38C 52.1476,39.4397 52.4809,40.9397 52.5,42.5C 52.5,43.1667 52.1667,43.5 51.5,43.5C 50.791,42.596 49.791,42.2627 48.5,42.5C 48.7373,41.209 48.404,40.209 47.5,39.5C 46.1667,39.5 44.8333,39.5 43.5,39.5C 43.5,38.5 43.5,37.5 43.5,36.5C 44.2666,33.9133 43.6,31.5799 41.5,29.5C 43.4364,25.2853 44.1031,20.6186 43.5,15.5 Z"/></g>
<g><path style="opacity:1" fill="#b7a8bc" d="M 8.5,31.5 C 8.7989,33.604 8.46557,35.604 7.5,37.5C 6.81654,37.1373 6.14987,36.8039 5.5,36.5C 5.5,34.8333 5.5,33.1667 5.5,31.5C 6.5,31.5 7.5,31.5 8.5,31.5 Z"/></g>
<g><path style="opacity:1" fill="#5aaf80" d="M 54.5,31.5 C 55.1667,31.5 55.8333,31.5 56.5,31.5C 57.0102,34.3878 56.3435,36.7211 54.5,38.5C 54.5,36.1667 54.5,33.8333 54.5,31.5 Z"/></g>
<g><path style="opacity:1" fill="#3d5491" d="M 13.5,26.5 C 14.1667,26.5 14.8333,26.5 15.5,26.5C 14.5392,29.4261 13.8726,32.4261 13.5,35.5C 13.1667,35.5 12.8333,35.5 12.5,35.5C 11.0173,38.6276 9.35067,41.6276 7.5,44.5C 5.80407,46.129 4.80407,45.7957 4.5,43.5C 4.5,41.1667 4.5,38.8333 4.5,36.5C 4.83333,36.5 5.16667,36.5 5.5,36.5C 6.14987,36.8039 6.81654,37.1373 7.5,37.5C 8.46557,35.604 8.7989,33.604 8.5,31.5C 10.4456,30.9653 11.4456,29.632 11.5,27.5C 12.4916,27.6716 13.1583,27.3382 13.5,26.5 Z"/></g>
<g><path style="opacity:1" fill="#23222f" d="M 24.5,37.5 C 24.5172,39.5648 24.8505,41.5648 25.5,43.5C 23.2654,42.7721 21.4321,41.4388 20,39.5C 19.0513,41.0931 17.8846,42.4264 16.5,43.5C 15.4489,42.7777 14.7822,41.7777 14.5,40.5C 15.5521,38.744 17.2188,38.0773 19.5,38.5C 20.6264,30.6015 21.4598,30.6015 22,38.5C 22.6708,37.7476 23.5041,37.4142 24.5,37.5 Z"/></g>
<g><path style="opacity:1" fill="#2f4aa1" d="M 30.5,31.5 C 31.5,31.5 32.5,31.5 33.5,31.5C 33.8333,31.5 34.1667,31.5 34.5,31.5C 34.366,33.2915 34.6993,34.9582 35.5,36.5C 36.0803,40.649 35.4136,44.3157 33.5,47.5C 33.5,43.5 33.5,39.5 33.5,35.5C 32.5,35.5 31.5,35.5 30.5,35.5C 30.5,34.1667 30.5,32.8333 30.5,31.5 Z"/></g>
<g><path style="opacity:1" fill="#839792" d="M 43.5,39.5 C 44.8333,39.5 46.1667,39.5 47.5,39.5C 47.5,40.8333 47.5,42.1667 47.5,43.5C 45.5,44.8333 43.5,44.8333 41.5,43.5C 43.1667,43.5 44.8333,43.5 46.5,43.5C 46.5,42.5 46.5,41.5 46.5,40.5C 45.209,40.7373 44.209,40.404 43.5,39.5 Z"/></g>
<g><path style="opacity:1" fill="#1d1d26" d="M 25.5,43.5 C 26.8062,44.4674 27.4729,45.8007 27.5,47.5C 27.5,50.1667 27.5,52.8333 27.5,55.5C 27.5,55.8333 27.5,56.1667 27.5,56.5C 25.5659,57.1103 23.8993,58.1103 22.5,59.5C 20.0083,61.0923 18.0083,60.5923 16.5,58C 16.9574,57.586 17.2907,57.086 17.5,56.5C 15.8702,53.7239 15.2035,50.7239 15.5,47.5C 16.1908,50.6969 17.8574,53.3636 20.5,55.5C 21.8333,54.5 23.1667,53.5 24.5,52.5C 23.1667,51.5 23.1667,50.5 24.5,49.5C 23.3349,48.4164 22.0016,47.5831 20.5,47C 21.6537,46.0862 21.487,45.2529 20,44.5C 19.3023,47.4106 17.8023,48.0773 15.5,46.5C 16.1098,45.609 16.4431,44.609 16.5,43.5C 17.8846,42.4264 19.0513,41.0931 20,39.5C 21.4321,41.4388 23.2654,42.7721 25.5,43.5 Z"/></g>
<g><path style="opacity:1" fill="#bff1f7" d="M 30.5,31.5 C 30.5,32.8333 30.5,34.1667 30.5,35.5C 31.5,35.5 32.5,35.5 33.5,35.5C 33.5,39.5 33.5,43.5 33.5,47.5C 32.5,47.5 31.5,47.5 30.5,47.5C 30.5,46.1667 30.5,44.8333 30.5,43.5C 29.5,43.5 28.5,43.5 27.5,43.5C 27.2939,40.7616 26.2939,38.4282 24.5,36.5C 22.744,35.4479 22.0773,33.7812 22.5,31.5C 25.1667,31.5 27.8333,31.5 30.5,31.5 Z"/></g>
<g><path style="opacity:1" fill="#dae5dd" d="M 40.5,36.5 C 41.5,36.5 42.5,36.5 43.5,36.5C 43.5,37.5 43.5,38.5 43.5,39.5C 44.209,40.404 45.209,40.7373 46.5,40.5C 46.5,41.5 46.5,42.5 46.5,43.5C 44.8333,43.5 43.1667,43.5 41.5,43.5C 41.1667,43.5 40.8333,43.5 40.5,43.5C 40.5,41.1667 40.5,38.8333 40.5,36.5 Z"/></g>
<g><path style="opacity:1" fill="#333c6a" d="M 24.5,36.5 C 26.2939,38.4282 27.2939,40.7616 27.5,43.5C 28.5,43.5 29.5,43.5 30.5,43.5C 30.5,44.8333 30.5,46.1667 30.5,47.5C 29.5,47.5 28.5,47.5 27.5,47.5C 27.4729,45.8007 26.8062,44.4674 25.5,43.5C 24.8505,41.5648 24.5172,39.5648 24.5,37.5C 24.5,37.1667 24.5,36.8333 24.5,36.5 Z"/></g>
<g><path style="opacity:1" fill="#717b9f" d="M 4.5,36.5 C 4.5,38.8333 4.5,41.1667 4.5,43.5C 3.84014,44.964 3.50681,46.6307 3.5,48.5C 4.81892,53.4243 5.48559,58.4243 5.5,63.5C 4.84187,61.3609 3.84187,59.3609 2.5,57.5C 2.5,52.8333 2.5,48.1667 2.5,43.5C 2.5,43.1667 2.5,42.8333 2.5,42.5C 2.02539,39.9179 2.69206,37.9179 4.5,36.5 Z"/></g>
<g><path style="opacity:1" fill="#58cc79" d="M 57.5,61.5 C 57.5,54.1667 57.5,46.8333 57.5,39.5C 57.3691,38.6236 57.7025,37.9569 58.5,37.5C 59.8333,45.8333 59.8333,54.1667 58.5,62.5C 57.8933,62.3764 57.56,62.0431 57.5,61.5 Z"/></g>
<g><path style="opacity:0.182" fill="#233b2d" d="M 56.5,31.5 C 57.4511,32.9187 57.7845,34.5853 57.5,36.5C 58.5,36.5 59.5,36.5 60.5,36.5C 60.5,45.5 60.5,54.5 60.5,63.5C 59.5,63.5 58.5,63.5 57.5,63.5C 57.7845,65.4147 57.4511,67.0813 56.5,68.5C 56.5,66.1667 56.5,63.8333 56.5,61.5C 56.8333,61.5 57.1667,61.5 57.5,61.5C 57.56,62.0431 57.8933,62.3764 58.5,62.5C 59.8333,54.1667 59.8333,45.8333 58.5,37.5C 57.7025,37.9569 57.3691,38.6236 57.5,39.5C 56.209,39.7373 55.209,39.404 54.5,38.5C 56.3435,36.7211 57.0102,34.3878 56.5,31.5 Z"/></g>
<g><path style="opacity:1" fill="#3a4990" d="M 4.5,43.5 C 4.80407,45.7957 5.80407,46.129 7.5,44.5C 7.48091,46.0603 7.14758,47.5603 6.5,49C 7.60311,56.17 9.60311,63.0033 12.5,69.5C 12.3764,70.1067 12.0431,70.44 11.5,70.5C 11.1667,70.5 10.8333,70.5 10.5,70.5C 10.1788,68.9519 9.17876,68.2852 7.5,68.5C 7.66212,66.4727 7.49546,64.4727 7,62.5C 6.61742,63.056 6.11742,63.3893 5.5,63.5C 5.48559,58.4243 4.81892,53.4243 3.5,48.5C 3.50681,46.6307 3.84014,44.964 4.5,43.5 Z"/></g>
<g><path style="opacity:1" fill="#232323" d="M 36.5,36.5 C 37.4682,38.6074 37.8016,40.9407 37.5,43.5C 38.5,43.5 39.5,43.5 40.5,43.5C 40.8333,43.5 41.1667,43.5 41.5,43.5C 43.5,44.8333 45.5,44.8333 47.5,43.5C 48.5862,43.62 49.2528,44.2867 49.5,45.5C 49.1217,47.7165 48.455,49.7165 47.5,51.5C 47.5,50.1667 47.5,48.8333 47.5,47.5C 45.2646,47.2053 43.2646,47.5386 41.5,48.5C 40.5655,49.5676 40.2322,50.901 40.5,52.5C 42.8333,52.5 45.1667,52.5 47.5,52.5C 45.7078,53.3091 43.7078,53.8091 41.5,54C 43.7078,54.1909 45.7078,54.6909 47.5,55.5C 45.1667,55.5 42.8333,55.5 40.5,55.5C 40.5,58.1667 40.5,60.8333 40.5,63.5C 40.5,63.8333 40.5,64.1667 40.5,64.5C 39.4721,64.9258 38.1388,64.9258 36.5,64.5C 36.5,63.5 36.5,62.5 36.5,61.5C 37.069,57.6707 36.4023,54.3373 34.5,51.5C 36.3598,46.807 37.0265,41.807 36.5,36.5 Z"/></g>
<g><path style="opacity:0.018" fill="#151c1c" d="M -0.5,42.5 C 0.5,42.5 1.5,42.5 2.5,42.5C 2.5,42.8333 2.5,43.1667 2.5,43.5C 0.569769,47.3727 -0.0968979,51.706 0.5,56.5C 0.166667,56.5 -0.166667,56.5 -0.5,56.5C -0.5,51.8333 -0.5,47.1667 -0.5,42.5 Z"/></g>
<g><path style="opacity:1" fill="#18181e" d="M 15.5,47.5 C 15.5,47.1667 15.5,46.8333 15.5,46.5C 17.8023,48.0773 19.3023,47.4106 20,44.5C 21.487,45.2529 21.6537,46.0862 20.5,47C 22.0016,47.5831 23.3349,48.4164 24.5,49.5C 23.1667,50.5 23.1667,51.5 24.5,52.5C 23.1667,53.5 21.8333,54.5 20.5,55.5C 17.8574,53.3636 16.1908,50.6969 15.5,47.5 Z"/></g>
<g><path style="opacity:1" fill="#222527" d="M 47.5,39.5 C 48.404,40.209 48.7373,41.209 48.5,42.5C 49.791,42.2627 50.791,42.596 51.5,43.5C 52.6577,48.2522 52.1577,52.9189 50,57.5C 49.2917,58.3805 48.4584,59.0472 47.5,59.5C 47.5,58.1667 47.5,56.8333 47.5,55.5C 45.7078,54.6909 43.7078,54.1909 41.5,54C 43.7078,53.8091 45.7078,53.3091 47.5,52.5C 47.5,52.1667 47.5,51.8333 47.5,51.5C 48.455,49.7165 49.1217,47.7165 49.5,45.5C 49.2528,44.2867 48.5862,43.62 47.5,43.5C 47.5,42.1667 47.5,40.8333 47.5,39.5 Z"/></g>
<g><path style="opacity:1" fill="#28273b" d="M 35.5,36.5 C 35.8333,36.5 36.1667,36.5 36.5,36.5C 37.0265,41.807 36.3598,46.807 34.5,51.5C 32.901,51.2322 31.5676,51.5655 30.5,52.5C 29.1001,53.0998 28.1001,54.0998 27.5,55.5C 27.5,52.8333 27.5,50.1667 27.5,47.5C 28.5,47.5 29.5,47.5 30.5,47.5C 31.5,47.5 32.5,47.5 33.5,47.5C 35.4136,44.3157 36.0803,40.649 35.5,36.5 Z"/></g>
<g><path style="opacity:1" fill="#76d6b0" d="M 2.5,43.5 C 2.5,48.1667 2.5,52.8333 2.5,57.5C 1.50838,57.6716 0.841711,57.3382 0.5,56.5C -0.0968979,51.706 0.569769,47.3727 2.5,43.5 Z"/></g>
<g><path style="opacity:1" fill="#809482" d="M 47.5,51.5 C 47.5,51.8333 47.5,52.1667 47.5,52.5C 45.1667,52.5 42.8333,52.5 40.5,52.5C 40.2322,50.901 40.5655,49.5676 41.5,48.5C 43.2646,47.5386 45.2646,47.2053 47.5,47.5C 47.5,48.8333 47.5,50.1667 47.5,51.5 Z"/></g>
<g><path style="opacity:1" fill="#f5fdf8" d="M 41.5,48.5 C 43.1667,48.5 44.8333,48.5 46.5,48.5C 46.5,49.5 46.5,50.5 46.5,51.5C 44.8333,51.5 43.1667,51.5 41.5,51.5C 41.5,50.5 41.5,49.5 41.5,48.5 Z"/></g>
<g><path style="opacity:1" fill="#21293c" d="M 53.5,31.5 C 53.8333,31.5 54.1667,31.5 54.5,31.5C 54.5,33.8333 54.5,36.1667 54.5,38.5C 55.209,39.404 56.209,39.7373 57.5,39.5C 57.5,46.8333 57.5,54.1667 57.5,61.5C 57.1667,61.5 56.8333,61.5 56.5,61.5C 54.6565,63.2789 53.9898,65.6122 54.5,68.5C 54.1667,68.5 53.8333,68.5 53.5,68.5C 53.5,67.8333 53.5,67.1667 53.5,66.5C 52.7095,65.5987 51.7095,64.9321 50.5,64.5C 51.1966,61.7088 52.1966,59.0421 53.5,56.5C 53.6534,51.8038 53.32,47.1372 52.5,42.5C 52.4809,40.9397 52.1476,39.4397 51.5,38C 52.8561,36.4329 53.5228,34.5996 53.5,32.5C 53.5,32.1667 53.5,31.8333 53.5,31.5 Z"/></g>
<g><path style="opacity:1" fill="#4b62a5" d="M 30.5,52.5 C 29.8333,55.1667 29.1667,57.8333 28.5,60.5C 27.5,60.5 26.5,60.5 25.5,60.5C 26.8062,59.5326 27.4729,58.1993 27.5,56.5C 27.5,56.1667 27.5,55.8333 27.5,55.5C 28.1001,54.0998 29.1001,53.0998 30.5,52.5 Z"/></g>
<g><path style="opacity:1" fill="#2b2a45" d="M 12.5,35.5 C 12.8333,35.5 13.1667,35.5 13.5,35.5C 13.0461,37.7411 13.0461,39.7411 13.5,41.5C 14.4552,47.9277 14.1218,54.0944 12.5,60C 14.3397,61.8628 15.3397,63.6962 15.5,65.5C 15.7845,67.4147 15.4511,69.0813 14.5,70.5C 12.1037,63.6408 10.1037,56.6408 8.5,49.5C 10.711,45.1291 12.0444,40.4624 12.5,35.5 Z"/></g>
<g><path style="opacity:1" fill="#35478b" d="M 30.5,52.5 C 31.5676,51.5655 32.901,51.2322 34.5,51.5C 36.4023,54.3373 37.069,57.6707 36.5,61.5C 36.1667,61.5 35.8333,61.5 35.5,61.5C 35.6646,58.4816 35.498,55.4816 35,52.5C 34.8195,55.6946 34.3195,58.6946 33.5,61.5C 33.5,58.5 33.5,55.5 33.5,52.5C 32.5,52.5 31.5,52.5 30.5,52.5 Z"/></g>
<g><path style="opacity:1" fill="#222631" d="M 52.5,42.5 C 53.32,47.1372 53.6534,51.8038 53.5,56.5C 52.1966,59.0421 51.1966,61.7088 50.5,64.5C 49.5041,64.5858 48.6708,64.2524 48,63.5C 47.5065,65.1341 47.3398,66.8008 47.5,68.5C 48.552,68.3505 49.552,68.5172 50.5,69C 48.8659,69.4935 47.1992,69.6602 45.5,69.5C 45.33,68.1779 45.6634,67.0113 46.5,66C 45.1387,64.4157 44.472,62.5824 44.5,60.5C 45.791,60.7373 46.791,60.404 47.5,59.5C 48.4584,59.0472 49.2917,58.3805 50,57.5C 52.1577,52.9189 52.6577,48.2522 51.5,43.5C 52.1667,43.5 52.5,43.1667 52.5,42.5 Z"/></g>
<g><path style="opacity:1" fill="#f0fbf7" d="M 43.5,60.5 C 43.7148,62.1788 43.0481,63.1788 41.5,63.5C 41.5,61.1667 41.5,58.8333 41.5,56.5C 43.1667,56.5 44.8333,56.5 46.5,56.5C 46.5,57.5 46.5,58.5 46.5,59.5C 45.209,59.2627 44.209,59.596 43.5,60.5 Z"/></g>
<g><path style="opacity:1" fill="#23212f" d="M 14.5,40.5 C 14.7822,41.7777 15.4489,42.7777 16.5,43.5C 16.4431,44.609 16.1098,45.609 15.5,46.5C 15.5,46.8333 15.5,47.1667 15.5,47.5C 15.2035,50.7239 15.8702,53.7239 17.5,56.5C 17.2907,57.086 16.9574,57.586 16.5,58C 18.0083,60.5923 20.0083,61.0923 22.5,59.5C 21.8629,62.456 21.3629,65.456 21,68.5C 20.2427,64.111 18.4094,63.111 15.5,65.5C 15.3397,63.6962 14.3397,61.8628 12.5,60C 14.1218,54.0944 14.4552,47.9277 13.5,41.5C 13.5,40.8333 13.8333,40.5 14.5,40.5 Z"/></g>
<g><path style="opacity:1" fill="#2637b7" d="M 35.5,61.5 C 35.7148,63.1788 35.0481,64.1788 33.5,64.5C 33.5,63.5 33.5,62.5 33.5,61.5C 34.3195,58.6946 34.8195,55.6946 35,52.5C 35.498,55.4816 35.6646,58.4816 35.5,61.5 Z"/></g>
<g><path style="opacity:1" fill="#7b8f83" d="M 47.5,55.5 C 47.5,56.8333 47.5,58.1667 47.5,59.5C 46.791,60.404 45.791,60.7373 44.5,60.5C 44.1667,60.5 43.8333,60.5 43.5,60.5C 44.209,59.596 45.209,59.2627 46.5,59.5C 46.5,58.5 46.5,57.5 46.5,56.5C 44.8333,56.5 43.1667,56.5 41.5,56.5C 41.5,58.8333 41.5,61.1667 41.5,63.5C 41.1667,63.5 40.8333,63.5 40.5,63.5C 40.5,60.8333 40.5,58.1667 40.5,55.5C 42.8333,55.5 45.1667,55.5 47.5,55.5 Z"/></g>
<g><path style="opacity:1" fill="#333a6d" d="M 12.5,35.5 C 12.0444,40.4624 10.711,45.1291 8.5,49.5C 10.1037,56.6408 12.1037,63.6408 14.5,70.5C 14.5,71.1667 14.1667,71.5 13.5,71.5C 12.5084,71.6716 11.8417,71.3382 11.5,70.5C 12.0431,70.44 12.3764,70.1067 12.5,69.5C 9.60311,63.0033 7.60311,56.17 6.5,49C 7.14758,47.5603 7.48091,46.0603 7.5,44.5C 9.35067,41.6276 11.0173,38.6276 12.5,35.5 Z"/></g>
<g><path style="opacity:1" fill="#cef5f9" d="M 30.5,52.5 C 31.5,52.5 32.5,52.5 33.5,52.5C 33.5,55.5 33.5,58.5 33.5,61.5C 33.5,62.5 33.5,63.5 33.5,64.5C 32.5,64.5 31.5,64.5 30.5,64.5C 30.5,65.8333 30.5,67.1667 30.5,68.5C 28.8333,68.5 27.1667,68.5 25.5,68.5C 24.5,68.5 23.5,68.5 22.5,68.5C 22.5,66.8333 22.5,65.1667 22.5,63.5C 23.5,63.5 24.5,63.5 25.5,63.5C 25.5,62.5 25.5,61.5 25.5,60.5C 26.5,60.5 27.5,60.5 28.5,60.5C 29.1667,57.8333 29.8333,55.1667 30.5,52.5 Z"/></g>
<g><path style="opacity:1" fill="#212224" d="M 36.5,64.5 C 38.1388,64.9258 39.4721,64.9258 40.5,64.5C 41.5,64.5 42.5,64.5 43.5,64.5C 43.5,66.1667 43.5,67.8333 43.5,69.5C 40.7718,69.1706 38.4385,69.8372 36.5,71.5C 35.8333,70.5 35.1667,69.5 34.5,68.5C 34.5271,66.8007 35.1938,65.4674 36.5,64.5 Z"/></g>
<g><path style="opacity:1" fill="#4db785" d="M 56.5,61.5 C 56.5,63.8333 56.5,66.1667 56.5,68.5C 55.8333,68.5 55.1667,68.5 54.5,68.5C 53.9898,65.6122 54.6565,63.2789 56.5,61.5 Z"/></g>
<g><path style="opacity:1" fill="#282b3d" d="M 27.5,56.5 C 27.4729,58.1993 26.8062,59.5326 25.5,60.5C 25.5,61.5 25.5,62.5 25.5,63.5C 24.5,63.5 23.5,63.5 22.5,63.5C 22.5,65.1667 22.5,66.8333 22.5,68.5C 23.5,68.5 24.5,68.5 25.5,68.5C 27.2884,69.6225 29.2884,69.7891 31.5,69C 33.1066,67.951 33.7733,66.451 33.5,64.5C 35.0481,64.1788 35.7148,63.1788 35.5,61.5C 35.8333,61.5 36.1667,61.5 36.5,61.5C 36.5,62.5 36.5,63.5 36.5,64.5C 35.1938,65.4674 34.5271,66.8007 34.5,68.5C 34.573,70.0269 33.9063,71.0269 32.5,71.5C 28.0166,72.373 23.6832,73.373 19.5,74.5C 17.5,74.5 15.5,74.5 13.5,74.5C 13.5,73.5 13.5,72.5 13.5,71.5C 14.1667,71.5 14.5,71.1667 14.5,70.5C 15.4511,69.0813 15.7845,67.4147 15.5,65.5C 18.4094,63.111 20.2427,64.111 21,68.5C 21.3629,65.456 21.8629,62.456 22.5,59.5C 23.8993,58.1103 25.5659,57.1103 27.5,56.5 Z"/></g>
<g><path style="opacity:1" fill="#242d31" d="M 43.5,60.5 C 43.8333,60.5 44.1667,60.5 44.5,60.5C 44.472,62.5824 45.1387,64.4157 46.5,66C 45.6634,67.0113 45.33,68.1779 45.5,69.5C 47.1992,69.6602 48.8659,69.4935 50.5,69C 49.552,68.5172 48.552,68.3505 47.5,68.5C 47.3398,66.8008 47.5065,65.1341 48,63.5C 48.6708,64.2524 49.5041,64.5858 50.5,64.5C 51.7095,64.9321 52.7095,65.5987 53.5,66.5C 51.8235,67.1834 51.1568,68.5168 51.5,70.5C 48.9179,70.0254 46.9179,70.6921 45.5,72.5C 44.8333,72.1667 44.1667,71.8333 43.5,71.5C 43.1583,70.6618 42.4916,70.3284 41.5,70.5C 39.9582,71.3007 38.2915,71.634 36.5,71.5C 38.4385,69.8372 40.7718,69.1706 43.5,69.5C 43.5,67.8333 43.5,66.1667 43.5,64.5C 42.5,64.5 41.5,64.5 40.5,64.5C 40.5,64.1667 40.5,63.8333 40.5,63.5C 40.8333,63.5 41.1667,63.5 41.5,63.5C 43.0481,63.1788 43.7148,62.1788 43.5,60.5 Z"/></g>
<g><path style="opacity:0.278" fill="#bb9ea5" d="M 10.5,70.5 C 10.5,71.1667 10.5,71.8333 10.5,72.5C 9.88258,72.6107 9.38258,72.944 9,73.5C 8.50999,72.2068 8.34332,70.8734 8.5,69.5C 7.5,69.5 6.5,69.5 5.5,69.5C 5.5,67.5 5.5,65.5 5.5,63.5C 6.11742,63.3893 6.61742,63.056 7,62.5C 7.49546,64.4727 7.66212,66.4727 7.5,68.5C 9.17876,68.2852 10.1788,68.9519 10.5,70.5 Z"/></g>
<g><path style="opacity:1" fill="#2d5e92" d="M 33.5,64.5 C 33.7733,66.451 33.1066,67.951 31.5,69C 29.2884,69.7891 27.2884,69.6225 25.5,68.5C 27.1667,68.5 28.8333,68.5 30.5,68.5C 30.5,67.1667 30.5,65.8333 30.5,64.5C 31.5,64.5 32.5,64.5 33.5,64.5 Z"/></g>
<g><path style="opacity:1" fill="#262a37" d="M 32.5,71.5 C 31.8777,73.335 30.5444,74.5017 28.5,75C 30.7148,76.0438 33.0481,76.7105 35.5,77C 34.2625,77.2321 33.2625,77.7321 32.5,78.5C 28.5662,77.6403 24.5662,77.307 20.5,77.5C 22.129,75.8041 21.7957,74.8041 19.5,74.5C 23.6832,73.373 28.0166,72.373 32.5,71.5 Z"/></g>
<g><path style="opacity:1" fill="#242d36" d="M 34.5,68.5 C 35.1667,69.5 35.8333,70.5 36.5,71.5C 38.2915,71.634 39.9582,71.3007 41.5,70.5C 41.5,72.8333 41.5,75.1667 41.5,77.5C 36.2493,78.5193 36.2493,79.5193 41.5,80.5C 39.8333,80.5 38.1667,80.5 36.5,80.5C 35.8166,78.8235 34.4832,78.1568 32.5,78.5C 33.2625,77.7321 34.2625,77.2321 35.5,77C 33.0481,76.7105 30.7148,76.0438 28.5,75C 30.5444,74.5017 31.8777,73.335 32.5,71.5C 33.9063,71.0269 34.573,70.0269 34.5,68.5 Z"/></g>
<g><path style="opacity:0.706" fill="#55b75f" d="M 53.5,66.5 C 53.5,67.1667 53.5,67.8333 53.5,68.5C 53.5,73.1667 53.5,77.8333 53.5,82.5C 51.8007,82.5271 50.4674,83.1938 49.5,84.5C 49.5,83.5 49.5,82.5 49.5,81.5C 50.5,81.5 51.5,81.5 52.5,81.5C 53.0356,78.3019 52.369,75.6353 50.5,73.5C 49.0813,72.5489 47.4147,72.2155 45.5,72.5C 46.9179,70.6921 48.9179,70.0254 51.5,70.5C 51.1568,68.5168 51.8235,67.1834 53.5,66.5 Z"/></g>
<g><path style="opacity:0.627" fill="#3ea085" d="M 10.5,70.5 C 10.8333,70.5 11.1667,70.5 11.5,70.5C 11.8417,71.3382 12.5084,71.6716 13.5,71.5C 13.5,72.5 13.5,73.5 13.5,74.5C 15.5,74.5 17.5,74.5 19.5,74.5C 21.7957,74.8041 22.129,75.8041 20.5,77.5C 20.5,77.8333 20.5,78.1667 20.5,78.5C 20.1667,78.5 19.8333,78.5 19.5,78.5C 19.6716,77.5084 19.3382,76.8417 18.5,76.5C 15.7531,76.8134 13.0865,76.48 10.5,75.5C 11.7914,74.4728 11.7914,73.4728 10.5,72.5C 10.5,71.8333 10.5,71.1667 10.5,70.5 Z"/></g>
<g><path style="opacity:1" fill="#5ccd82" d="M 41.5,70.5 C 42.4916,70.3284 43.1583,70.6618 43.5,71.5C 43.5,75.8333 43.5,80.1667 43.5,84.5C 41.8235,83.8166 41.1568,82.4832 41.5,80.5C 36.2493,79.5193 36.2493,78.5193 41.5,77.5C 41.5,75.1667 41.5,72.8333 41.5,70.5 Z"/></g>
<g><path style="opacity:1" fill="#2c5d53" d="M 43.5,71.5 C 44.1667,71.8333 44.8333,72.1667 45.5,72.5C 47.4147,72.2155 49.0813,72.5489 50.5,73.5C 49.0211,77.0612 47.6878,80.7279 46.5,84.5C 45.5,84.5 44.5,84.5 43.5,84.5C 43.5,80.1667 43.5,75.8333 43.5,71.5 Z"/></g>
<g><path style="opacity:1" fill="#6ee762" d="M 50.5,73.5 C 52.369,75.6353 53.0356,78.3019 52.5,81.5C 51.5,81.5 50.5,81.5 49.5,81.5C 49.5,82.5 49.5,83.5 49.5,84.5C 48.5,84.5 47.5,84.5 46.5,84.5C 47.6878,80.7279 49.0211,77.0612 50.5,73.5 Z"/></g>
<g><path style="opacity:1" fill="#23314c" d="M 34.5,80.5 C 35.069,84.3293 34.4023,87.6627 32.5,90.5C 33.5192,88.4595 33.5192,86.4595 32.5,84.5C 30.1713,85.7708 29.0047,87.7708 29,90.5C 28.3333,86.5 28.3333,82.5 29,78.5C 30.4007,80.1922 32.2341,80.8588 34.5,80.5 Z"/></g>
<g><path style="opacity:0.748" fill="#4fb28c" d="M 32.5,78.5 C 34.4832,78.1568 35.8166,78.8235 36.5,80.5C 36.5,84.5 36.5,88.5 36.5,92.5C 34.712,92.7852 33.0453,92.4519 31.5,91.5C 31.6236,90.8933 31.9569,90.56 32.5,90.5C 34.4023,87.6627 35.069,84.3293 34.5,80.5C 33.8333,79.8333 33.1667,79.1667 32.5,78.5 Z"/></g>
<g><path style="opacity:1" fill="#29414b" d="M 18.5,76.5 C 19.3382,76.8417 19.6716,77.5084 19.5,78.5C 21.6074,79.4682 23.9407,79.8016 26.5,79.5C 26.3347,83.1817 26.5014,86.8484 27,90.5C 27.4988,86.5138 27.6655,82.5138 27.5,78.5C 25.1667,78.5 22.8333,78.5 20.5,78.5C 20.5,78.1667 20.5,77.8333 20.5,77.5C 24.5662,77.307 28.5662,77.6403 32.5,78.5C 33.1667,79.1667 33.8333,79.8333 34.5,80.5C 32.2341,80.8588 30.4007,80.1922 29,78.5C 28.3333,82.5 28.3333,86.5 29,90.5C 29.0047,87.7708 30.1713,85.7708 32.5,84.5C 33.5192,86.4595 33.5192,88.4595 32.5,90.5C 31.9569,90.56 31.6236,90.8933 31.5,91.5C 33.0453,92.4519 34.712,92.7852 36.5,92.5C 35.0813,93.4511 33.4147,93.7845 31.5,93.5C 29.5,93.5 27.5,93.5 25.5,93.5C 25.5,92.5 25.5,91.5 25.5,90.5C 25.5,87.1667 25.5,83.8333 25.5,80.5C 23.1667,80.5 20.8333,80.5 18.5,80.5C 18.5,79.1667 18.5,77.8333 18.5,76.5 Z"/></g>
<g><path style="opacity:1" fill="#7af0bc" d="M 19.5,78.5 C 19.8333,78.5 20.1667,78.5 20.5,78.5C 22.8333,78.5 25.1667,78.5 27.5,78.5C 27.6655,82.5138 27.4988,86.5138 27,90.5C 26.5014,86.8484 26.3347,83.1817 26.5,79.5C 23.9407,79.8016 21.6074,79.4682 19.5,78.5 Z"/></g>
<g><path style="opacity:0.635" fill="#539f8b" d="M 25.5,90.5 C 25.5,91.5 25.5,92.5 25.5,93.5C 27.5,93.5 29.5,93.5 31.5,93.5C 30.0821,95.3079 28.0821,95.9746 25.5,95.5C 25.5,96.8333 25.5,98.1667 25.5,99.5C 24.5,99.5 23.5,99.5 22.5,99.5C 22.5,96.5 22.5,93.5 22.5,90.5C 23.5,90.5 24.5,90.5 25.5,90.5 Z"/></g>
</svg>
