<?xml version="1.0" encoding="UTF-8"?>
<!DOCTYPE svg PUBLIC "-//W3C//DTD SVG 1.1//EN" "http://www.w3.org/Graphics/SVG/1.1/DTD/svg11.dtd">
<svg xmlns="http://www.w3.org/2000/svg" version="1.1" width="76px" height="100px" style="shape-rendering:geometricPrecision; text-rendering:geometricPrecision; image-rendering:optimizeQuality; fill-rule:evenodd; clip-rule:evenodd" xmlns:xlink="http://www.w3.org/1999/xlink">
<g><path style="opacity:1" fill="#965eaa" d="M 38.5,-0.5 C 41.8333,-0.5 45.1667,-0.5 48.5,-0.5C 49.6782,0.998637 51.3449,1.99864 53.5,2.5C 49.1396,2.67501 44.8063,2.67501 40.5,2.5C 38.9068,3.83042 37.2402,5.16375 35.5,6.5C 34.6143,7.32496 34.281,8.32496 34.5,9.5C 33.6618,9.84171 33.3284,10.5084 33.5,11.5C 32.0335,8.74165 31.3668,9.07498 31.5,12.5C 30.5655,11.4324 30.2322,10.099 30.5,8.5C 30.5,8.16667 30.5,7.83333 30.5,7.5C 31.4345,6.43236 31.7678,5.09903 31.5,3.5C 32.8333,3.5 34.1667,3.5 35.5,3.5C 36.0008,1.29327 37.0008,-0.0400598 38.5,-0.5 Z"/></g>
<g><path style="opacity:0.714" fill="#936e9b" d="M 30.5,7.5 C 30.5,7.83333 30.5,8.16667 30.5,8.5C 29.5489,9.91866 29.2155,11.5853 29.5,13.5C 26.8333,13.5 24.1667,13.5 21.5,13.5C 23.6074,12.5318 25.9407,12.1984 28.5,12.5C 28.2011,10.396 28.5344,8.39605 29.5,6.5C 30.1067,6.62358 30.44,6.95691 30.5,7.5 Z"/></g>
<g><path style="opacity:1" fill="#5c3572" d="M 48.5,-0.5 C 48.8333,-0.5 49.1667,-0.5 49.5,-0.5C 50.9187,0.451145 52.5853,0.784479 54.5,0.5C 54.5,1.5 54.5,2.5 54.5,3.5C 55.791,3.26269 56.791,3.59603 57.5,4.5C 58.5,5.5 59.5,6.5 60.5,7.5C 58.6565,9.27887 57.9898,11.6122 58.5,14.5C 63.429,14.4364 66.0956,16.7698 66.5,21.5C 63.9013,20.2392 61.568,18.5725 59.5,16.5C 53.3654,15.5537 47.1987,14.887 41,14.5C 33.0577,15.6584 25.2244,17.325 17.5,19.5C 17.5,20.5 17.5,21.5 17.5,22.5C 16.1667,22.5 14.8333,22.5 13.5,22.5C 13.5,23.5 13.5,24.5 13.5,25.5C 12.5,25.5 11.5,25.5 10.5,25.5C 9.9442,30.3231 8.11086,34.6564 5,38.5C 4.50335,40.8098 4.33669,43.1432 4.5,45.5C 3.83333,42.8333 3.16667,40.1667 2.5,37.5C 1.83333,37.5 1.5,37.1667 1.5,36.5C 2.3171,34.0314 2.8171,31.3647 3,28.5C 3.33333,28.8333 3.66667,29.1667 4,29.5C 4.19808,27.6183 4.69808,25.9516 5.5,24.5C 5.23798,25.9778 5.57131,27.3112 6.5,28.5C 7.45189,26.9547 7.78522,25.288 7.5,23.5C 7.5,22.1667 7.5,20.8333 7.5,19.5C 10.0593,19.8016 12.3926,19.4682 14.5,18.5C 26.4064,17.1941 26.4064,16.5274 14.5,16.5C 16.8333,15.8333 19.1667,15.1667 21.5,14.5C 25.1817,14.6653 28.8484,14.4986 32.5,14C 31.944,13.6174 31.6107,13.1174 31.5,12.5C 31.3668,9.07498 32.0335,8.74165 33.5,11.5C 41.3225,12.6561 49.3225,12.8228 57.5,12C 52.4517,5.1682 45.7851,3.00153 37.5,5.5C 37.5323,7.61885 36.5323,8.95218 34.5,9.5C 34.281,8.32496 34.6143,7.32496 35.5,6.5C 37.2402,5.16375 38.9068,3.83042 40.5,2.5C 44.8063,2.67501 49.1396,2.67501 53.5,2.5C 51.3449,1.99864 49.6782,0.998637 48.5,-0.5 Z"/></g>
<g><path style="opacity:1" fill="#281b30" d="M 33.5,11.5 C 33.3284,10.5084 33.6618,9.84171 34.5,9.5C 36.5323,8.95218 37.5323,7.61885 37.5,5.5C 45.7851,3.00153 52.4517,5.1682 57.5,12C 49.3225,12.8228 41.3225,12.6561 33.5,11.5 Z"/></g>
<g><path style="opacity:0.608" fill="#e2b3e7" d="M 57.5,4.5 C 57.3605,6.33702 56.6939,6.67036 55.5,5.5C 55.9569,4.70245 56.6236,4.36912 57.5,4.5 Z"/></g>
<g><path style="opacity:1" fill="#ebb1ee" d="M 30.5,8.5 C 30.2322,10.099 30.5655,11.4324 31.5,12.5C 31.6107,13.1174 31.944,13.6174 32.5,14C 28.8484,14.4986 25.1817,14.6653 21.5,14.5C 21.5,14.1667 21.5,13.8333 21.5,13.5C 24.1667,13.5 26.8333,13.5 29.5,13.5C 29.2155,11.5853 29.5489,9.91866 30.5,8.5 Z"/></g>
<g><path style="opacity:1" fill="#ae7bb6" d="M 60.5,7.5 C 59.8742,11.3754 61.5408,13.2087 65.5,13C 66.365,14.3588 67.365,15.5255 68.5,16.5C 68.9227,18.7812 68.256,20.4479 66.5,21.5C 66.0956,16.7698 63.429,14.4364 58.5,14.5C 57.9898,11.6122 58.6565,9.27887 60.5,7.5 Z"/></g>
<g><path style="opacity:0.898" fill="#d59ed7" d="M 14.5,16.5 C 26.4064,16.5274 26.4064,17.1941 14.5,18.5C 14.5,17.8333 14.5,17.1667 14.5,16.5 Z"/></g>
<g><path style="opacity:1" fill="#e4a3ea" d="M 7.5,23.5 C 7.78522,25.288 7.45189,26.9547 6.5,28.5C 5.57131,27.3112 5.23798,25.9778 5.5,24.5C 5.84171,23.6618 6.50838,23.3284 7.5,23.5 Z"/></g>
<g><path style="opacity:1" fill="#201827" d="M 56.5,24.5 C 55.8333,24.5 55.1667,24.5 54.5,24.5C 53.3482,22.3115 51.8482,22.3115 50,24.5C 49.3109,23.6433 48.4776,22.9767 47.5,22.5C 45.0162,23.7728 42.5162,23.7728 40,22.5C 37.4162,23.1037 34.9162,23.9371 32.5,25C 32.5302,26.4293 32.1969,27.9293 31.5,29.5C 31.5,30.5 31.5,31.5 31.5,32.5C 30.5,32.5 29.5,32.5 28.5,32.5C 28.5,35.1667 28.5,37.8333 28.5,40.5C 30.5,40.5 32.5,40.5 34.5,40.5C 34.2627,41.791 34.596,42.791 35.5,43.5C 35.6107,44.1174 35.944,44.6174 36.5,45C 40.4213,45.203 44.2546,45.703 48,46.5C 48.9138,45.3463 49.7471,45.513 50.5,47C 49.3053,51.8428 46.4719,53.0094 42,50.5C 38.1459,51.1733 34.3126,52.0066 30.5,53C 29.8333,53.6667 29.1667,54.3333 28.5,55C 30.5976,55.6776 32.5976,55.5109 34.5,54.5C 33.0821,56.3079 31.0821,56.9746 28.5,56.5C 28.5,59.1667 28.5,61.8333 28.5,64.5C 29.5,64.5 30.5,64.5 31.5,64.5C 31.2627,65.791 31.596,66.791 32.5,67.5C 33.5,67.5 34.5,67.5 35.5,67.5C 35.5,68.5 35.5,69.5 35.5,70.5C 39.5,70.5 43.5,70.5 47.5,70.5C 48.2679,69.7375 48.7679,68.7375 49,67.5C 49.5613,68.0219 50.228,68.3552 51,68.5C 52.0769,67.5705 53.2436,66.9038 54.5,66.5C 54.5,68.5 54.5,70.5 54.5,72.5C 57.8333,72.5 61.1667,72.5 64.5,72.5C 63.6913,76.5547 61.3579,79.2213 57.5,80.5C 54.8187,80.5379 52.3187,79.8713 50,78.5C 39.6435,80.9045 30.1435,79.2379 21.5,73.5C 19.7988,72.198 18.6322,70.5313 18,68.5C 17.6667,68.8333 17.3333,69.1667 17,69.5C 12.8042,67.112 10.9709,63.4454 11.5,58.5C 9.05762,58.6463 8.39095,57.813 9.5,56C 6.918,52.9575 6.918,49.9575 9.5,47C 7.7621,43.156 8.42877,39.8227 11.5,37C 10.8333,36.6667 10.1667,36.3333 9.5,36C 11.1812,32.4603 13.6812,30.6269 17,30.5C 18.0437,29.3774 18.7104,28.0441 19,26.5C 19.3333,27.1667 19.6667,27.8333 20,28.5C 20.2511,26.567 20.7511,24.7337 21.5,23C 24.2308,22.9291 26.7308,23.0958 29,23.5C 29.8333,22 31,20.8333 32.5,20C 36.8973,20.1871 41.3973,19.6871 46,18.5C 48.7952,19.1852 51.6285,19.6852 54.5,20C 56.0368,21.1096 56.7035,22.6096 56.5,24.5 Z"/></g>
<g><path style="opacity:1" fill="#ee72e6" d="M 47.5,42.5 C 43.5,42.5 39.5,42.5 35.5,42.5C 35.5,41.5 35.5,40.5 35.5,39.5C 38.5,39.5 41.5,39.5 44.5,39.5C 44.5,36.1667 44.5,32.8333 44.5,29.5C 41.5,29.5 38.5,29.5 35.5,29.5C 35.5,28.5 35.5,27.5 35.5,26.5C 39.5,26.5 43.5,26.5 47.5,26.5C 47.5,31.8333 47.5,37.1667 47.5,42.5 Z"/></g>
<g><path style="opacity:1" fill="#f6edf7" d="M 57.5,25.5 C 59.3435,27.2789 60.0102,29.6122 59.5,32.5C 60.6739,43.4871 60.6739,54.1537 59.5,64.5C 59.8076,66.924 59.4742,69.2573 58.5,71.5C 57.5091,67.5546 57.1758,63.5546 57.5,59.5C 56.5238,48.2739 56.5238,36.9406 57.5,25.5 Z"/></g>
<g><path style="opacity:1" fill="#a852a3" d="M 54.5,24.5 C 55.1667,24.5 55.8333,24.5 56.5,24.5C 59.5,24.5 62.5,24.5 65.5,24.5C 65.5,27.1667 65.5,29.8333 65.5,32.5C 65.1667,32.5 64.8333,32.5 64.5,32.5C 64.5,30.1667 64.5,27.8333 64.5,25.5C 63.1667,25.5 61.8333,25.5 60.5,25.5C 60.8016,28.0593 60.4682,30.3926 59.5,32.5C 60.0102,29.6122 59.3435,27.2789 57.5,25.5C 55.631,27.6353 54.9644,30.3019 55.5,33.5C 54.5,33.5 53.5,33.5 52.5,33.5C 54.2419,30.8555 54.9086,27.8555 54.5,24.5 Z"/></g>
<g><path style="opacity:0.812" fill="#aa84ae" d="M 74.5,29.5 C 74.8333,29.5 75.1667,29.5 75.5,29.5C 75.5,31.5 75.5,33.5 75.5,35.5C 75.1667,35.5 74.8333,35.5 74.5,35.5C 73.8333,35.5 73.1667,35.5 72.5,35.5C 72.0254,32.9179 72.6921,30.9179 74.5,29.5 Z"/></g>
<g><path style="opacity:0.924" fill="#f2fefd" d="M 35.5,29.5 C 38.5,29.5 41.5,29.5 44.5,29.5C 44.5,32.8333 44.5,36.1667 44.5,39.5C 41.5,39.5 38.5,39.5 35.5,39.5C 35.5,36.1667 35.5,32.8333 35.5,29.5 Z"/></g>
<g><path style="opacity:1" fill="#e979e5" d="M 57.5,25.5 C 56.5238,36.9406 56.5238,48.2739 57.5,59.5C 56.6762,63.3123 56.1762,67.3123 56,71.5C 55.8091,69.2922 55.3091,67.2922 54.5,65.5C 53.3065,65.0296 52.6399,64.0296 52.5,62.5C 52.9709,60.7536 53.6376,59.087 54.5,57.5C 51.8333,54.5 51.8333,51.5 54.5,48.5C 51.8333,45.5 51.8333,42.5 54.5,39.5C 53.2455,37.6663 52.5789,35.6663 52.5,33.5C 53.5,33.5 54.5,33.5 55.5,33.5C 54.9644,30.3019 55.631,27.6353 57.5,25.5 Z"/></g>
<g><path style="opacity:0.984" fill="#f386ea" d="M 34.5,29.5 C 34.8333,29.5 35.1667,29.5 35.5,29.5C 35.5,32.8333 35.5,36.1667 35.5,39.5C 33.5,39.5 31.5,39.5 29.5,39.5C 29.5,37.5 29.5,35.5 29.5,33.5C 30.5,33.5 31.5,33.5 32.5,33.5C 32.5271,31.8007 33.1938,30.4674 34.5,29.5 Z"/></g>
<g><path style="opacity:0.482" fill="#873e81" d="M 31.5,29.5 C 32.5,29.5 33.5,29.5 34.5,29.5C 33.1938,30.4674 32.5271,31.8007 32.5,33.5C 31.5,33.5 30.5,33.5 29.5,33.5C 29.5,35.5 29.5,37.5 29.5,39.5C 31.5,39.5 33.5,39.5 35.5,39.5C 35.5,40.5 35.5,41.5 35.5,42.5C 39.5,42.5 43.5,42.5 47.5,42.5C 43.7016,43.4834 39.7016,43.8168 35.5,43.5C 34.596,42.791 34.2627,41.791 34.5,40.5C 32.5,40.5 30.5,40.5 28.5,40.5C 28.5,37.8333 28.5,35.1667 28.5,32.5C 29.5,32.5 30.5,32.5 31.5,32.5C 31.5,31.5 31.5,30.5 31.5,29.5 Z"/></g>
<g><path style="opacity:1" fill="#361b3f" d="M 68.5,16.5 C 69.404,17.209 69.7373,18.209 69.5,19.5C 70.5,19.5 71.5,19.5 72.5,19.5C 72.0604,23.1785 72.727,26.5118 74.5,29.5C 72.6921,30.9179 72.0254,32.9179 72.5,35.5C 72.5,44.1667 72.5,52.8333 72.5,61.5C 72.5,63.5 72.5,65.5 72.5,67.5C 72.81,70.7131 72.4767,73.7131 71.5,76.5C 70.8333,64.5 70.1667,64.5 69.5,76.5C 69.5,77.1667 69.1667,77.5 68.5,77.5C 67.8826,73.5779 67.2159,73.5779 66.5,77.5C 66.6399,79.0296 67.3065,80.0296 68.5,80.5C 67.5,81.5 66.5,82.5 65.5,83.5C 63.3647,81.631 60.6981,80.9644 57.5,81.5C 57.5,81.1667 57.5,80.8333 57.5,80.5C 61.3579,79.2213 63.6913,76.5547 64.5,72.5C 65.8333,69.8333 65.8333,67.1667 64.5,64.5C 63.5,64.5 62.5,64.5 61.5,64.5C 61.5,62.8333 61.5,61.1667 61.5,59.5C 62.8333,59.5 64.1667,59.5 65.5,59.5C 65.5,58.1667 65.5,56.8333 65.5,55.5C 64.1667,55.5 62.8333,55.5 61.5,55.5C 61.5,53.8333 61.5,52.1667 61.5,50.5C 62.5,50.5 63.5,50.5 64.5,50.5C 65.4511,49.0813 65.7845,47.4147 65.5,45.5C 64.5,45.5 63.5,45.5 62.5,45.5C 62.5271,43.8007 63.1938,42.4674 64.5,41.5C 65.4345,40.4324 65.7678,39.099 65.5,37.5C 64.1667,37.5 62.8333,37.5 61.5,37.5C 61.5,35.8333 61.5,34.1667 61.5,32.5C 62.5,32.5 63.5,32.5 64.5,32.5C 64.8333,32.5 65.1667,32.5 65.5,32.5C 66.4816,29.0381 66.815,25.3714 66.5,21.5C 68.256,20.4479 68.9227,18.7812 68.5,16.5 Z"/></g>
<g><path style="opacity:0.937" fill="#daa1dd" d="M 69.5,20.5 C 70.7647,21.5145 71.4313,23.0145 71.5,25C 71.1667,26.5 70.8333,28 70.5,29.5C 69.5159,26.5719 69.1826,23.5719 69.5,20.5 Z"/></g>
<g><path style="opacity:1" fill="#762b7a" d="M 64.5,41.5 C 63.1938,42.4674 62.5271,43.8007 62.5,45.5C 63.5,45.5 64.5,45.5 65.5,45.5C 65.7845,47.4147 65.4511,49.0813 64.5,50.5C 64.5,49.1667 64.5,47.8333 64.5,46.5C 63.5,46.5 62.5,46.5 61.5,46.5C 61.5,44.8333 61.5,43.1667 61.5,41.5C 62.5,41.5 63.5,41.5 64.5,41.5 Z"/></g>
<g><path style="opacity:1" fill="#2d1e37" d="M 66.5,21.5 C 66.815,25.3714 66.4816,29.0381 65.5,32.5C 65.5,29.8333 65.5,27.1667 65.5,24.5C 62.5,24.5 59.5,24.5 56.5,24.5C 56.7035,22.6096 56.0368,21.1096 54.5,20C 51.6285,19.6852 48.7952,19.1852 46,18.5C 41.3973,19.6871 36.8973,20.1871 32.5,20C 31,20.8333 29.8333,22 29,23.5C 26.7308,23.0958 24.2308,22.9291 21.5,23C 20.7511,24.7337 20.2511,26.567 20,28.5C 19.6667,27.8333 19.3333,27.1667 19,26.5C 18.7104,28.0441 18.0437,29.3774 17,30.5C 13.6812,30.6269 11.1812,32.4603 9.5,36C 10.1667,36.3333 10.8333,36.6667 11.5,37C 8.42877,39.8227 7.7621,43.156 9.5,47C 6.918,49.9575 6.918,52.9575 9.5,56C 8.39095,57.813 9.05762,58.6463 11.5,58.5C 10.9709,63.4454 12.8042,67.112 17,69.5C 17.3333,69.1667 17.6667,68.8333 18,68.5C 18.6322,70.5313 19.7988,72.198 21.5,73.5C 30.1435,79.2379 39.6435,80.9045 50,78.5C 52.3187,79.8713 54.8187,80.5379 57.5,80.5C 57.5,80.8333 57.5,81.1667 57.5,81.5C 46.1667,81.5 34.8333,81.5 23.5,81.5C 22.8333,81.5 22.1667,81.5 21.5,81.5C 20.8333,81.5 20.5,81.1667 20.5,80.5C 21.675,80.719 22.675,80.3857 23.5,79.5C 20.5719,78.5159 17.5719,78.1826 14.5,78.5C 13.8333,77.8333 13.1667,77.1667 12.5,76.5C 13.9778,76.762 15.3112,76.4287 16.5,75.5C 16.0431,74.7025 15.3764,74.3691 14.5,74.5C 13.9986,70.505 11.8319,67.8383 8,66.5C 7.95042,64.256 7.11709,62.5893 5.5,61.5C 5.73731,60.209 5.40397,59.209 4.5,58.5C 4.5,54.1667 4.5,49.8333 4.5,45.5C 4.33669,43.1432 4.50335,40.8098 5,38.5C 8.11086,34.6564 9.9442,30.3231 10.5,25.5C 11.5,25.5 12.5,25.5 13.5,25.5C 13.5,24.5 13.5,23.5 13.5,22.5C 14.8333,22.5 16.1667,22.5 17.5,22.5C 17.5,21.5 17.5,20.5 17.5,19.5C 25.2244,17.325 33.0577,15.6584 41,14.5C 47.1987,14.887 53.3654,15.5537 59.5,16.5C 61.568,18.5725 63.9013,20.2392 66.5,21.5 Z"/></g>
<g><path style="opacity:1" fill="#c78ece" d="M 1.5,36.5 C 1.5,37.1667 1.83333,37.5 2.5,37.5C 2.5,44.8333 2.5,52.1667 2.5,59.5C 1.16667,59.5 0.5,58.8333 0.5,57.5C 2.04406,54.8279 1.71072,52.4945 -0.5,50.5C -0.5,48.5 -0.5,46.5 -0.5,44.5C 0.117425,44.3893 0.617425,44.056 1,43.5C 1.12603,40.937 1.2927,38.6036 1.5,36.5 Z"/></g>
<g><path style="opacity:1" fill="#4b1e6e" d="M 2.5,37.5 C 3.16667,40.1667 3.83333,42.8333 4.5,45.5C 4.5,49.8333 4.5,54.1667 4.5,58.5C 3.83333,58.5 3.5,58.8333 3.5,59.5C 3.16667,59.5 2.83333,59.5 2.5,59.5C 2.5,52.1667 2.5,44.8333 2.5,37.5 Z"/></g>
<g><path style="opacity:1" fill="#311f37" d="M 54.5,24.5 C 54.9086,27.8555 54.2419,30.8555 52.5,33.5C 52.5789,35.6663 53.2455,37.6663 54.5,39.5C 51.8333,42.5 51.8333,45.5 54.5,48.5C 51.8333,51.5 51.8333,54.5 54.5,57.5C 53.6376,59.087 52.9709,60.7536 52.5,62.5C 52.6399,64.0296 53.3065,65.0296 54.5,65.5C 54.5,65.8333 54.5,66.1667 54.5,66.5C 53.2436,66.9038 52.0769,67.5705 51,68.5C 50.228,68.3552 49.5613,68.0219 49,67.5C 48.7679,68.7375 48.2679,69.7375 47.5,70.5C 47.5,65.1667 47.5,59.8333 47.5,54.5C 43.1667,53.1667 38.8333,53.1667 34.5,54.5C 32.5976,55.5109 30.5976,55.6776 28.5,55C 29.1667,54.3333 29.8333,53.6667 30.5,53C 34.3126,52.0066 38.1459,51.1733 42,50.5C 46.4719,53.0094 49.3053,51.8428 50.5,47C 49.7471,45.513 48.9138,45.3463 48,46.5C 44.2546,45.703 40.4213,45.203 36.5,45C 35.944,44.6174 35.6107,44.1174 35.5,43.5C 39.7016,43.8168 43.7016,43.4834 47.5,42.5C 47.5,37.1667 47.5,31.8333 47.5,26.5C 43.5,26.5 39.5,26.5 35.5,26.5C 35.5,27.5 35.5,28.5 35.5,29.5C 35.1667,29.5 34.8333,29.5 34.5,29.5C 33.5,29.5 32.5,29.5 31.5,29.5C 32.1969,27.9293 32.5302,26.4293 32.5,25C 34.9162,23.9371 37.4162,23.1037 40,22.5C 42.5162,23.7728 45.0162,23.7728 47.5,22.5C 48.4776,22.9767 49.3109,23.6433 50,24.5C 51.8482,22.3115 53.3482,22.3115 54.5,24.5 Z"/></g>
<g><path style="opacity:1" fill="#552b64" d="M 72.5,35.5 C 73.1667,35.5 73.8333,35.5 74.5,35.5C 74.1739,44.0168 74.5073,52.3501 75.5,60.5C 75.5,62.8333 75.5,65.1667 75.5,67.5C 75.1667,67.5 74.8333,67.5 74.5,67.5C 74.9746,64.9179 74.3079,62.9179 72.5,61.5C 72.5,52.8333 72.5,44.1667 72.5,35.5 Z"/></g>
<g><path style="opacity:1" fill="#98498e" d="M 47.5,54.5 C 43.0293,53.9106 39.0293,54.5772 35.5,56.5C 35.5,56.8333 35.5,57.1667 35.5,57.5C 33.5,57.5 31.5,57.5 29.5,57.5C 29.5,59.5 29.5,61.5 29.5,63.5C 30.5,63.5 31.5,63.5 32.5,63.5C 32.5,64.8333 32.5,66.1667 32.5,67.5C 31.596,66.791 31.2627,65.791 31.5,64.5C 30.5,64.5 29.5,64.5 28.5,64.5C 28.5,61.8333 28.5,59.1667 28.5,56.5C 31.0821,56.9746 33.0821,56.3079 34.5,54.5C 38.8333,53.1667 43.1667,53.1667 47.5,54.5 Z"/></g>
<g><path style="opacity:0.952" fill="#f0fcfc" d="M 35.5,56.5 C 38.5,56.5 41.5,56.5 44.5,56.5C 44.5,60.1667 44.5,63.8333 44.5,67.5C 41.5,67.5 38.5,67.5 35.5,67.5C 35.5,64.1667 35.5,60.8333 35.5,57.5C 35.5,57.1667 35.5,56.8333 35.5,56.5 Z"/></g>
<g><path style="opacity:0.433" fill="#634a6e" d="M -0.5,57.5 C -0.166667,57.5 0.166667,57.5 0.5,57.5C 0.5,58.8333 1.16667,59.5 2.5,59.5C 2.83333,59.5 3.16667,59.5 3.5,59.5C 3.5,62.1667 3.5,64.8333 3.5,67.5C 2.53178,65.3926 2.19845,63.0593 2.5,60.5C 1.5,60.5 0.5,60.5 -0.5,60.5C -0.5,59.5 -0.5,58.5 -0.5,57.5 Z"/></g>
<g><path style="opacity:1" fill="#af73c5" d="M 4.5,58.5 C 5.40397,59.209 5.73731,60.209 5.5,61.5C 5.67474,63.6208 5.34141,65.6208 4.5,67.5C 4.16667,67.5 3.83333,67.5 3.5,67.5C 3.5,64.8333 3.5,62.1667 3.5,59.5C 3.5,58.8333 3.83333,58.5 4.5,58.5 Z"/></g>
<g><path style="opacity:1" fill="#f185eb" d="M 35.5,57.5 C 35.5,60.8333 35.5,64.1667 35.5,67.5C 34.5,67.5 33.5,67.5 32.5,67.5C 32.5,66.1667 32.5,64.8333 32.5,63.5C 31.5,63.5 30.5,63.5 29.5,63.5C 29.5,61.5 29.5,59.5 29.5,57.5C 31.5,57.5 33.5,57.5 35.5,57.5 Z"/></g>
<g><path style="opacity:1" fill="#ef72e5" d="M 47.5,54.5 C 47.5,59.8333 47.5,65.1667 47.5,70.5C 43.5,70.5 39.5,70.5 35.5,70.5C 35.5,69.5 35.5,68.5 35.5,67.5C 38.5,67.5 41.5,67.5 44.5,67.5C 44.5,63.8333 44.5,60.1667 44.5,56.5C 41.5,56.5 38.5,56.5 35.5,56.5C 39.0293,54.5772 43.0293,53.9106 47.5,54.5 Z"/></g>
<g><path style="opacity:1" fill="#e561e0" d="M 64.5,32.5 C 63.5,32.5 62.5,32.5 61.5,32.5C 61.5,34.1667 61.5,35.8333 61.5,37.5C 62.8333,37.5 64.1667,37.5 65.5,37.5C 65.7678,39.099 65.4345,40.4324 64.5,41.5C 63.5,41.5 62.5,41.5 61.5,41.5C 61.5,43.1667 61.5,44.8333 61.5,46.5C 62.5,46.5 63.5,46.5 64.5,46.5C 64.5,47.8333 64.5,49.1667 64.5,50.5C 63.5,50.5 62.5,50.5 61.5,50.5C 61.5,52.1667 61.5,53.8333 61.5,55.5C 62.8333,55.5 64.1667,55.5 65.5,55.5C 65.5,56.8333 65.5,58.1667 65.5,59.5C 64.1667,59.5 62.8333,59.5 61.5,59.5C 61.5,61.1667 61.5,62.8333 61.5,64.5C 62.5,64.5 63.5,64.5 64.5,64.5C 64.5,66.8333 64.5,69.1667 64.5,71.5C 63.1667,71.5 61.8333,71.5 60.5,71.5C 60.8016,68.9407 60.4682,66.6074 59.5,64.5C 60.6739,54.1537 60.6739,43.4871 59.5,32.5C 60.4682,30.3926 60.8016,28.0593 60.5,25.5C 61.8333,25.5 63.1667,25.5 64.5,25.5C 64.5,27.8333 64.5,30.1667 64.5,32.5 Z"/></g>
<g><path style="opacity:1" fill="#d3afd9" d="M 72.5,61.5 C 74.3079,62.9179 74.9746,64.9179 74.5,67.5C 73.8333,67.5 73.1667,67.5 72.5,67.5C 72.5,65.5 72.5,63.5 72.5,61.5 Z"/></g>
<g><path style="opacity:0.612" fill="#cea0d0" d="M 5.5,67.5 C 7.30794,68.9179 7.97461,70.9179 7.5,73.5C 6.88258,73.6107 6.38258,73.944 6,74.5C 5.50335,72.1902 5.33669,69.8568 5.5,67.5 Z"/></g>
<g><path style="opacity:1" fill="#c475c4" d="M 57.5,59.5 C 57.1758,63.5546 57.5091,67.5546 58.5,71.5C 59.4742,69.2573 59.8076,66.924 59.5,64.5C 60.4682,66.6074 60.8016,68.9407 60.5,71.5C 61.8333,71.5 63.1667,71.5 64.5,71.5C 64.5,69.1667 64.5,66.8333 64.5,64.5C 65.8333,67.1667 65.8333,69.8333 64.5,72.5C 61.1667,72.5 57.8333,72.5 54.5,72.5C 54.5,70.5 54.5,68.5 54.5,66.5C 54.5,66.1667 54.5,65.8333 54.5,65.5C 55.3091,67.2922 55.8091,69.2922 56,71.5C 56.1762,67.3123 56.6762,63.3123 57.5,59.5 Z"/></g>
<g><path style="opacity:1" fill="#572f7c" d="M 5.5,61.5 C 7.11709,62.5893 7.95042,64.256 8,66.5C 11.8319,67.8383 13.9986,70.505 14.5,74.5C 11.9179,74.0254 9.91791,74.6921 8.5,76.5C 7.59603,75.791 7.26269,74.791 7.5,73.5C 7.97461,70.9179 7.30794,68.9179 5.5,67.5C 5.16667,67.5 4.83333,67.5 4.5,67.5C 5.34141,65.6208 5.67474,63.6208 5.5,61.5 Z"/></g>
<g><path style="opacity:1" fill="#cd99d8" d="M 71.5,76.5 C 70.8333,76.5 70.1667,76.5 69.5,76.5C 70.1667,64.5 70.8333,64.5 71.5,76.5 Z"/></g>
<g><path style="opacity:0.996" fill="#9862ac" d="M 14.5,74.5 C 15.3764,74.3691 16.0431,74.7025 16.5,75.5C 15.3112,76.4287 13.9778,76.762 12.5,76.5C 11.0387,77.6857 9.7054,77.6857 8.5,76.5C 9.91791,74.6921 11.9179,74.0254 14.5,74.5 Z"/></g>
<g><path style="opacity:0.765" fill="#ad88b3" d="M 68.5,77.5 C 69.8333,78.5 69.8333,79.5 68.5,80.5C 67.3065,80.0296 66.6399,79.0296 66.5,77.5C 67.2159,73.5779 67.8826,73.5779 68.5,77.5 Z"/></g>
<g><path style="opacity:0.604" fill="#bd8dc4" d="M 14.5,78.5 C 17.5719,78.1826 20.5719,78.5159 23.5,79.5C 22.675,80.3857 21.675,80.719 20.5,80.5C 17.9179,80.9746 15.9179,80.3079 14.5,78.5 Z"/></g>
<g><path style="opacity:1" fill="#815397" d="M 23.5,81.5 C 34.8333,81.5 46.1667,81.5 57.5,81.5C 60.6981,80.9644 63.3647,81.631 65.5,83.5C 64.0813,84.4511 62.4147,84.7845 60.5,84.5C 60.856,87.776 59.856,90.4427 57.5,92.5C 56.1667,92.5 54.8333,92.5 53.5,92.5C 53.5,93.5 53.5,94.5 53.5,95.5C 52.1266,95.6567 50.7932,95.49 49.5,95C 51.4386,94.0922 52.4386,92.5922 52.5,90.5C 53.5,90.5 54.5,90.5 55.5,90.5C 55.366,88.7085 55.6993,87.0418 56.5,85.5C 57.3764,85.6309 58.0431,85.2975 58.5,84.5C 50.1932,83.5021 41.8599,83.1688 33.5,83.5C 30.1667,82.8333 26.8333,82.1667 23.5,81.5 Z"/></g>
<g><path style="opacity:1" fill="#2c1d35" d="M 31.5,83.5 C 32.1667,83.5 32.8333,83.5 33.5,83.5C 41.8599,83.1688 50.1932,83.5021 58.5,84.5C 58.0431,85.2975 57.3764,85.6309 56.5,85.5C 53.6715,88.0082 50.6715,90.3415 47.5,92.5C 45.2573,93.4742 42.924,93.8076 40.5,93.5C 40.5858,92.5041 40.2524,91.6708 39.5,91C 34.6825,90.6801 32.0158,88.1801 31.5,83.5 Z"/></g>
<g><path style="opacity:0.025" fill="#2c1e38" d="M 21.5,83.5 C 23.8333,83.5 26.1667,83.5 28.5,83.5C 28.5,85.1667 28.5,86.8333 28.5,88.5C 27.5655,87.4324 27.2322,86.099 27.5,84.5C 25.2646,84.7947 23.2646,84.4614 21.5,83.5 Z"/></g>
<g><path style="opacity:1" fill="#ddaae2" d="M 21.5,81.5 C 22.1667,81.5 22.8333,81.5 23.5,81.5C 26.8333,82.1667 30.1667,82.8333 33.5,83.5C 32.8333,83.5 32.1667,83.5 31.5,83.5C 30.5386,85.2646 30.2053,87.2646 30.5,89.5C 29.3774,90.7574 28.7107,90.4241 28.5,88.5C 28.5,86.8333 28.5,85.1667 28.5,83.5C 26.1667,83.5 23.8333,83.5 21.5,83.5C 21.5,82.8333 21.5,82.1667 21.5,81.5 Z"/></g>
<g><path style="opacity:1" fill="#835197" d="M 31.5,83.5 C 32.0158,88.1801 34.6825,90.6801 39.5,91C 40.2524,91.6708 40.5858,92.5041 40.5,93.5C 38.8333,93.5 37.1667,93.5 35.5,93.5C 34.1667,93.5 32.8333,93.5 31.5,93.5C 31.7678,91.901 31.4345,90.5676 30.5,89.5C 30.2053,87.2646 30.5386,85.2646 31.5,83.5 Z"/></g>
<g><path style="opacity:0.827" fill="#debce5" d="M 35.5,93.5 C 37.1667,93.5 38.8333,93.5 40.5,93.5C 39.4479,95.256 37.7812,95.9227 35.5,95.5C 35.5,94.8333 35.5,94.1667 35.5,93.5 Z"/></g>
<g><path style="opacity:1" fill="#5c397a" d="M 56.5,85.5 C 55.6993,87.0418 55.366,88.7085 55.5,90.5C 54.5,90.5 53.5,90.5 52.5,90.5C 52.4386,92.5922 51.4386,94.0922 49.5,95C 50.7932,95.49 52.1266,95.6567 53.5,95.5C 53.5,94.5 53.5,93.5 53.5,92.5C 54.8333,92.5 56.1667,92.5 57.5,92.5C 56.791,93.404 55.791,93.7373 54.5,93.5C 54.5,94.5 54.5,95.5 54.5,96.5C 52.8333,96.5 51.1667,96.5 49.5,96.5C 49.5,97.5 49.5,98.5 49.5,99.5C 46.1667,99.5 42.8333,99.5 39.5,99.5C 39.5,99.1667 39.5,98.8333 39.5,98.5C 37.6104,97.3358 36.277,96.3358 35.5,95.5C 37.7812,95.9227 39.4479,95.256 40.5,93.5C 42.924,93.8076 45.2573,93.4742 47.5,92.5C 50.6715,90.3415 53.6715,88.0082 56.5,85.5 Z"/></g>
<g><path style="opacity:0.878" fill="#f4c4f6" d="M 39.5,98.5 C 40.5145,97.2353 42.0145,96.5687 44,96.5C 45.5,96.8333 47,97.1667 48.5,97.5C 45.5719,98.4841 42.5719,98.8174 39.5,98.5 Z"/></g>
</svg>
