<?xml version="1.0" encoding="UTF-8"?>
<!DOCTYPE svg PUBLIC "-//W3C//DTD SVG 1.1//EN" "http://www.w3.org/Graphics/SVG/1.1/DTD/svg11.dtd">
<svg xmlns="http://www.w3.org/2000/svg" version="1.1" width="100px" height="79px" style="shape-rendering:geometricPrecision; text-rendering:geometricPrecision; image-rendering:optimizeQuality; fill-rule:evenodd; clip-rule:evenodd" xmlns:xlink="http://www.w3.org/1999/xlink">
<g><path style="opacity:0.006" fill="#f2f8f8" d="M 84.5,12.5 C 86.337,12.6395 86.6704,13.3061 85.5,14.5C 84.7025,14.0431 84.3691,13.3764 84.5,12.5 Z"/></g>
<g><path style="opacity:0.982" fill="#adc9d0" d="M 19.5,-0.5 C 21.5,-0.5 23.5,-0.5 25.5,-0.5C 27.1271,1.62976 28.9604,3.62976 31,5.5C 31.4828,4.55198 31.6495,3.55198 31.5,2.5C 33.604,2.2011 35.604,2.53443 37.5,3.5C 38.09,4.79892 39.09,5.63225 40.5,6C 46.692,5.91534 52.5253,7.08201 58,9.5C 58.4828,8.55198 58.6495,7.55198 58.5,6.5C 62.8485,5.45964 67.1818,5.45964 71.5,6.5C 74.0527,8.89401 76.7194,11.0607 79.5,13C 80.2598,14.4411 80.9264,15.9411 81.5,17.5C 84.1225,18.4588 86.1225,20.1255 87.5,22.5C 85.4418,21.0669 83.1085,20.4003 80.5,20.5C 80.313,18.4357 79.813,16.4357 79,14.5C 76.4218,13.3094 74.2551,11.6428 72.5,9.5C 71.2092,7.68464 69.3759,6.68464 67,6.5C 64.5021,6.91719 62.0021,7.25053 59.5,7.5C 59.8795,10.5669 58.8795,11.5669 56.5,10.5C 50.5767,8.09209 44.2434,6.75875 37.5,6.5C 37.5,5.83333 37.1667,5.5 36.5,5.5C 36.5,5.16667 36.5,4.83333 36.5,4.5C 35.4324,3.56552 34.099,3.23219 32.5,3.5C 32.5,4.5 32.5,5.5 32.5,6.5C 31.5,6.5 30.5,6.5 29.5,6.5C 27.5409,2.46563 24.5409,0.798961 20.5,1.5C 21.2427,2.18185 21.9094,2.84851 22.5,3.5C 22.5,5.5 22.5,7.5 22.5,9.5C 22.5654,9.93822 22.3988,10.2716 22,10.5C 20.1136,7.75799 17.6136,6.09132 14.5,5.5C 13.4324,4.56552 12.099,4.23219 10.5,4.5C 10.5858,3.5041 10.2524,2.67076 9.5,2C 7.86586,1.50649 6.19919,1.33982 4.5,1.5C 7.14007,5.12519 8.80674,9.12519 9.5,13.5C 9.5,14.5 9.5,15.5 9.5,16.5C 9.09843,19.4766 8.09843,22.1433 6.5,24.5C 5.83333,23.5 5.16667,22.5 4.5,21.5C 3.79105,20.596 2.79105,20.2627 1.5,20.5C 1.18259,23.5719 1.51592,26.5719 2.5,29.5C 5.10593,31.4178 6.10593,34.0844 5.5,37.5C 3.83333,37.5 2.16667,37.5 0.5,37.5C 0.285191,39.1788 0.951857,40.1788 2.5,40.5C 2.63172,43.7967 4.29839,45.4633 7.5,45.5C 7.83333,46.1667 8.16667,46.8333 8.5,47.5C 8.83333,49.5 9.16667,51.5 9.5,53.5C 7.71199,53.2148 6.04533,53.5481 4.5,54.5C 4.85549,55.5223 5.52216,56.189 6.5,56.5C 9.49702,61.1749 13.8304,63.1749 19.5,62.5C 19.5,63.5 19.5,64.5 19.5,65.5C 19.1667,65.5 18.8333,65.5 18.5,65.5C 15.969,63.7021 12.969,62.5354 9.5,62C 7.33333,59.8333 5.16667,57.6667 3,55.5C 2.38277,54.5509 2.54943,53.7175 3.5,53C 5.16667,52.6667 6.83333,52.3333 8.5,52C 7.13865,50.4157 6.47199,48.5824 6.5,46.5C 5.44802,46.6495 4.44802,46.4828 3.5,46C 2.42093,44.1413 1.0876,42.6413 -0.5,41.5C -0.5,39.8333 -0.5,38.1667 -0.5,36.5C 1.16667,36.5 2.83333,36.5 4.5,36.5C 4.78522,34.712 4.45189,33.0453 3.5,31.5C 1.8405,30.8284 0.507165,29.8284 -0.5,28.5C -0.5,25.5 -0.5,22.5 -0.5,19.5C 2.43683,17.7747 4.6035,18.4414 6,21.5C 6.37291,19.3018 6.87291,17.1351 7.5,15C 6.76805,9.86109 5.43471,5.02775 3.5,0.5C 9.61891,0.740069 15.1189,2.74007 20,6.5C 20.0178,4.2028 19.8511,1.86947 19.5,-0.5 Z"/></g>
<g><path style="opacity:1" fill="#f6059f" d="M 48.5,14.5 C 49.2341,15.7079 49.5674,17.0413 49.5,18.5C 48.8333,18.5 48.5,18.8333 48.5,19.5C 45.8333,19.5 43.1667,19.5 40.5,19.5C 38.8333,19.5 37.1667,19.5 35.5,19.5C 35.5,18.5 35.5,17.5 35.5,16.5C 39.9225,16.3096 44.2559,15.6429 48.5,14.5 Z"/></g>
<g><path style="opacity:1" fill="#f71ab1" d="M 29.5,7.5 C 31.2646,8.46138 33.2646,8.79472 35.5,8.5C 35.2627,7.20895 35.596,6.20895 36.5,5.5C 37.1667,5.5 37.5,5.83333 37.5,6.5C 37.9567,8.74678 38.9567,10.7468 40.5,12.5C 39.0508,13.1719 37.7175,13.8386 36.5,14.5C 36.1667,14.5 35.8333,14.5 35.5,14.5C 35.5,13.5 35.5,12.5 35.5,11.5C 31.3162,12.2964 28.1496,10.963 26,7.5C 26.8191,11.5205 27.9858,15.5205 29.5,19.5C 28.8333,19.5 28.5,19.8333 28.5,20.5C 25.1438,20.8505 22.1438,20.0171 19.5,18C 17.5486,14.6513 15.8819,11.1513 14.5,7.5C 17.6433,7.96896 19.9767,9.63563 21.5,12.5C 21.1667,15.5 22.5,16.8333 25.5,16.5C 24.5755,12.2098 23.9088,7.8765 23.5,3.5C 23.4346,3.06178 23.6012,2.72845 24,2.5C 25.7038,4.37342 27.5372,6.04009 29.5,7.5 Z"/></g>
<g><path style="opacity:1" fill="#7c075c" d="M 48.5,14.5 C 44.2559,15.6429 39.9225,16.3096 35.5,16.5C 35.5,15.8333 35.5,15.1667 35.5,14.5C 35.8333,14.5 36.1667,14.5 36.5,14.5C 38.2884,15.6225 40.2884,15.7891 42.5,15C 41.5494,14.2825 41.3828,13.4491 42,12.5C 44.277,13.1172 46.4437,13.7839 48.5,14.5 Z"/></g>
<g><path style="opacity:1" fill="#2f0f26" d="M 22.5,3.5 C 22.8333,3.5 23.1667,3.5 23.5,3.5C 23.9088,7.8765 24.5755,12.2098 25.5,16.5C 22.5,16.8333 21.1667,15.5 21.5,12.5C 23.5518,11.9473 23.8852,10.9473 22.5,9.5C 22.5,7.5 22.5,5.5 22.5,3.5 Z"/></g>
<g><path style="opacity:1" fill="#402e4a" d="M 72.5,9.5 C 71.5041,9.41423 70.6708,9.74756 70,10.5C 67.8938,8.70896 65.3938,8.04229 62.5,8.5C 62.3505,9.55198 62.5172,10.552 63,11.5C 63.3333,11.1667 63.6667,10.8333 64,10.5C 65.9483,11.1094 67.7816,11.776 69.5,12.5C 69.5,13.1667 69.5,13.8333 69.5,14.5C 64.9296,13.559 60.263,13.2256 55.5,13.5C 56.1098,12.609 56.4431,11.609 56.5,10.5C 58.8795,11.5669 59.8795,10.5669 59.5,7.5C 62.0021,7.25053 64.5021,6.91719 67,6.5C 69.3759,6.68464 71.2092,7.68464 72.5,9.5 Z"/></g>
<g><path style="opacity:1" fill="#1e1f44" d="M 37.5,6.5 C 44.2434,6.75875 50.5767,8.09209 56.5,10.5C 56.4431,11.609 56.1098,12.609 55.5,13.5C 54.1667,15.5 52.5,17.1667 50.5,18.5C 50.1667,18.5 49.8333,18.5 49.5,18.5C 49.5674,17.0413 49.2341,15.7079 48.5,14.5C 46.4437,13.7839 44.277,13.1172 42,12.5C 41.3828,13.4491 41.5494,14.2825 42.5,15C 40.2884,15.7891 38.2884,15.6225 36.5,14.5C 37.7175,13.8386 39.0508,13.1719 40.5,12.5C 38.9567,10.7468 37.9567,8.74678 37.5,6.5 Z"/></g>
<g><path style="opacity:1" fill="#ada6c0" d="M 51.5,11.5 C 54.0414,12.6228 54.0414,13.9561 51.5,15.5C 50.3744,14.1916 50.3744,12.8583 51.5,11.5 Z"/></g>
<g><path style="opacity:1" fill="#ca2a6a" d="M 72.5,9.5 C 72.4142,10.4959 72.7476,11.3292 73.5,12C 72.2068,12.49 70.8734,12.6567 69.5,12.5C 67.7816,11.776 65.9483,11.1094 64,10.5C 63.6667,10.8333 63.3333,11.1667 63,11.5C 62.5172,10.552 62.3505,9.55198 62.5,8.5C 65.3938,8.04229 67.8938,8.70896 70,10.5C 70.6708,9.74756 71.5041,9.41423 72.5,9.5 Z"/></g>
<g><path style="opacity:1" fill="#5b074f" d="M 36.5,4.5 C 36.5,4.83333 36.5,5.16667 36.5,5.5C 35.596,6.20895 35.2627,7.20895 35.5,8.5C 33.2646,8.79472 31.2646,8.46138 29.5,7.5C 31.1667,7.5 32.8333,7.5 34.5,7.5C 34.2852,5.82124 34.9519,4.82124 36.5,4.5 Z"/></g>
<g><path style="opacity:1" fill="#58366f" d="M 14.5,5.5 C 17.6136,6.09132 20.1136,7.75799 22,10.5C 22.3988,10.2716 22.5654,9.93822 22.5,9.5C 23.8852,10.9473 23.5518,11.9473 21.5,12.5C 19.9767,9.63563 17.6433,7.96896 14.5,7.5C 14.5,6.83333 14.5,6.16667 14.5,5.5 Z"/></g>
<g><path style="opacity:1" fill="#325062" d="M 36.5,4.5 C 34.9519,4.82124 34.2852,5.82124 34.5,7.5C 32.8333,7.5 31.1667,7.5 29.5,7.5C 29.5,7.16667 29.5,6.83333 29.5,6.5C 30.5,6.5 31.5,6.5 32.5,6.5C 32.5,5.5 32.5,4.5 32.5,3.5C 34.099,3.23219 35.4324,3.56552 36.5,4.5 Z"/></g>
<g><path style="opacity:1" fill="#4d2b5c" d="M 10.5,4.5 C 9.2618,3.58761 7.92847,3.42094 6.5,4C 7.86776,5.34022 9.2011,6.67355 10.5,8C 9.76652,9.76589 9.43319,11.5992 9.5,13.5C 8.80674,9.12519 7.14007,5.12519 4.5,1.5C 6.19919,1.33982 7.86586,1.50649 9.5,2C 10.2524,2.67076 10.5858,3.5041 10.5,4.5 Z"/></g>
<g><path style="opacity:1" fill="#672a75" d="M 29.5,6.5 C 29.5,6.83333 29.5,7.16667 29.5,7.5C 27.5372,6.04009 25.7038,4.37342 24,2.5C 23.6012,2.72845 23.4346,3.06178 23.5,3.5C 23.1667,3.5 22.8333,3.5 22.5,3.5C 21.9094,2.84851 21.2427,2.18185 20.5,1.5C 24.5409,0.798961 27.5409,2.46563 29.5,6.5 Z"/></g>
<g><path style="opacity:1" fill="#fc86cb" d="M 14.5,7.5 C 15.8819,11.1513 17.5486,14.6513 19.5,18C 22.1438,20.0171 25.1438,20.8505 28.5,20.5C 27.6996,22.6073 27.0329,24.7739 26.5,27C 26.528,28.0698 26.8614,28.9032 27.5,29.5C 28.4916,29.6716 29.1583,29.3382 29.5,28.5C 30.1667,28.5 30.8333,28.5 31.5,28.5C 32.1667,28.1667 32.8333,27.8333 33.5,27.5C 33.5858,28.4959 33.2524,29.3292 32.5,30C 33.7441,30.4561 34.5774,29.9561 35,28.5C 35.6708,29.2524 36.5041,29.5858 37.5,29.5C 36.5531,31.7345 35.8864,34.0678 35.5,36.5C 35.6399,38.0296 36.3065,39.0296 37.5,39.5C 36.1168,44.4158 35.1168,49.4158 34.5,54.5C 34.1667,54.5 33.8333,54.5 33.5,54.5C 32.1938,53.5326 31.5271,52.1993 31.5,50.5C 31.8256,46.1161 31.4922,41.7828 30.5,37.5C 28.5841,36.7517 26.5841,36.7517 24.5,37.5C 24.9227,35.2188 24.256,33.5521 22.5,32.5C 21.7402,30.7762 21.4069,29.1095 21.5,27.5C 20.7078,29.4648 20.0412,31.4648 19.5,33.5C 17.7605,34.8092 16.4271,34.4759 15.5,32.5C 16.0967,32.2648 16.4301,31.7648 16.5,31C 15.536,29.0362 14.2026,27.3695 12.5,26C 11.9633,24.2082 11.6299,22.3749 11.5,20.5C 11.5605,15.6922 12.5605,11.3588 14.5,7.5 Z"/></g>
<g><path style="opacity:1" fill="#291f48" d="M 72.5,9.5 C 74.2551,11.6428 76.4218,13.3094 79,14.5C 79.813,16.4357 80.313,18.4357 80.5,20.5C 78.8212,20.2852 77.8212,20.9519 77.5,22.5C 74.5,20.1667 71.8333,17.5 69.5,14.5C 69.5,13.8333 69.5,13.1667 69.5,12.5C 70.8734,12.6567 72.2068,12.49 73.5,12C 72.7476,11.3292 72.4142,10.4959 72.5,9.5 Z"/></g>
<g><path style="opacity:1" fill="#440b3c" d="M 40.5,19.5 C 43.1667,19.5 45.8333,19.5 48.5,19.5C 48.7845,21.4147 48.4511,23.0813 47.5,24.5C 47.5,23.5 47.5,22.5 47.5,21.5C 44.8333,21.5 42.1667,21.5 39.5,21.5C 39.8333,20.8333 40.1667,20.1667 40.5,19.5 Z"/></g>
<g><path style="opacity:1" fill="#f91bbe" d="M 39.5,21.5 C 42.1667,21.5 44.8333,21.5 47.5,21.5C 47.5,22.5 47.5,23.5 47.5,24.5C 46.391,24.5569 45.391,24.8902 44.5,25.5C 42.7354,24.5386 40.7354,24.2053 38.5,24.5C 38.2627,23.209 38.596,22.209 39.5,21.5 Z"/></g>
<g><path style="opacity:1" fill="#462c50" d="M 80.5,20.5 C 83.1085,20.4003 85.4418,21.0669 87.5,22.5C 87.427,24.0269 88.0937,25.0269 89.5,25.5C 89.5,26.1667 89.5,26.8333 89.5,27.5C 87.7541,25.7484 85.7541,24.4151 83.5,23.5C 82.6935,22.2719 81.6935,21.2719 80.5,20.5 Z"/></g>
<g><path style="opacity:1" fill="#b01a93" d="M 4.5,21.5 C 5.16667,22.5 5.83333,23.5 6.5,24.5C 6.5,24.8333 6.5,25.1667 6.5,25.5C 3.60081,24.5056 2.93414,25.5056 4.5,28.5C 3.27493,27.8478 2.60826,26.6811 2.5,25C 2.60826,23.3189 3.27493,22.1522 4.5,21.5 Z"/></g>
<g><path style="opacity:1" fill="#2e0f2b" d="M 9.5,16.5 C 9.26006,19.5788 9.59339,22.5788 10.5,25.5C 9.19165,26.6256 7.85832,26.6256 6.5,25.5C 6.5,25.1667 6.5,24.8333 6.5,24.5C 8.09843,22.1433 9.09843,19.4766 9.5,16.5 Z"/></g>
<g><path style="opacity:1" fill="#fd89c8" d="M 35.5,14.5 C 35.5,15.1667 35.5,15.8333 35.5,16.5C 35.5,17.5 35.5,18.5 35.5,19.5C 37.1667,19.5 38.8333,19.5 40.5,19.5C 40.1667,20.1667 39.8333,20.8333 39.5,21.5C 38.596,22.209 38.2627,23.209 38.5,24.5C 40.7354,24.2053 42.7354,24.5386 44.5,25.5C 44.5,25.8333 44.5,26.1667 44.5,26.5C 44.5,26.8333 44.5,27.1667 44.5,27.5C 44.9975,31.2194 44.1642,34.5527 42,37.5C 41.8091,35.2922 41.3091,33.2922 40.5,31.5C 40.5,31.1667 40.5,30.8333 40.5,30.5C 39.791,29.596 38.791,29.2627 37.5,29.5C 36.5041,29.5858 35.6708,29.2524 35,28.5C 34.5774,29.9561 33.7441,30.4561 32.5,30C 33.2524,29.3292 33.5858,28.4959 33.5,27.5C 34.7008,24.3964 34.3675,21.3964 32.5,18.5C 31.7025,18.9569 31.3691,19.6236 31.5,20.5C 30.8333,20.1667 30.1667,19.8333 29.5,19.5C 27.9858,15.5205 26.8191,11.5205 26,7.5C 28.1496,10.963 31.3162,12.2964 35.5,11.5C 35.5,12.5 35.5,13.5 35.5,14.5 Z"/></g>
<g><path style="opacity:0.639" fill="#b9b8c3" d="M 87.5,22.5 C 88.9063,22.9731 89.573,23.9731 89.5,25.5C 88.0937,25.0269 87.427,24.0269 87.5,22.5 Z"/></g>
<g><path style="opacity:1" fill="#6a0f5c" d="M 29.5,19.5 C 29.8023,22.3725 30.469,25.0392 31.5,27.5C 31.5,27.8333 31.5,28.1667 31.5,28.5C 30.8333,28.5 30.1667,28.5 29.5,28.5C 28.7544,23.5208 28.0878,23.8542 27.5,29.5C 26.8614,28.9032 26.528,28.0698 26.5,27C 27.0329,24.7739 27.6996,22.6073 28.5,20.5C 28.5,19.8333 28.8333,19.5 29.5,19.5 Z"/></g>
<g><path style="opacity:1" fill="#1b0722" d="M 29.5,19.5 C 30.1667,19.8333 30.8333,20.1667 31.5,20.5C 31.5,22.8333 31.5,25.1667 31.5,27.5C 30.469,25.0392 29.8023,22.3725 29.5,19.5 Z"/></g>
<g><path style="opacity:1" fill="#f02db9" d="M 33.5,27.5 C 32.8333,27.8333 32.1667,28.1667 31.5,28.5C 31.5,28.1667 31.5,27.8333 31.5,27.5C 31.5,25.1667 31.5,22.8333 31.5,20.5C 31.3691,19.6236 31.7025,18.9569 32.5,18.5C 34.3675,21.3964 34.7008,24.3964 33.5,27.5 Z"/></g>
<g><path style="opacity:1" fill="#cf5a63" d="M 83.5,23.5 C 85.7541,24.4151 87.7541,25.7484 89.5,27.5C 89.427,29.0269 90.0937,30.0269 91.5,30.5C 93.8424,34.0188 95.509,37.8521 96.5,42C 95.8631,45.7723 94.5298,49.2723 92.5,52.5C 90.1261,55.874 87.1261,58.5407 83.5,60.5C 84.1009,58.422 84.4343,56.2554 84.5,54C 84.5188,50.2812 83.8522,46.7812 82.5,43.5C 82.3713,41.7839 82.038,40.1172 81.5,38.5C 83.3169,33.7592 83.9836,28.7592 83.5,23.5 Z"/></g>
<g><path style="opacity:0.576" fill="#babfc9" d="M 89.5,25.5 C 90.9063,25.9731 91.573,26.9731 91.5,28.5C 90.8333,28.1667 90.1667,27.8333 89.5,27.5C 89.5,26.8333 89.5,26.1667 89.5,25.5 Z"/></g>
<g><path style="opacity:1" fill="#f12fbc" d="M 10.5,4.5 C 12.099,4.23219 13.4324,4.56552 14.5,5.5C 14.5,6.16667 14.5,6.83333 14.5,7.5C 12.5605,11.3588 11.5605,15.6922 11.5,20.5C 11.6299,22.3749 11.9633,24.2082 12.5,26C 14.2026,27.3695 15.536,29.0362 16.5,31C 16.4301,31.7648 16.0967,32.2648 15.5,32.5C 14.089,30.461 12.089,29.461 9.5,29.5C 8.73688,32.1411 8.57022,34.8078 9,37.5C 11.2513,39.3773 13.7513,40.8773 16.5,42C 12.5406,41.8418 8.54058,41.6751 4.5,41.5C 4.38929,40.8826 4.05596,40.3826 3.5,40C 5.16667,39.6667 6.83333,39.3333 8.5,39C 7.86803,35.7296 7.20137,32.5629 6.5,29.5C 5.50838,29.6716 4.84171,29.3382 4.5,28.5C 2.93414,25.5056 3.60081,24.5056 6.5,25.5C 7.85832,26.6256 9.19165,26.6256 10.5,25.5C 9.59339,22.5788 9.26006,19.5788 9.5,16.5C 9.5,15.5 9.5,14.5 9.5,13.5C 9.43319,11.5992 9.76652,9.76589 10.5,8C 9.2011,6.67355 7.86776,5.34022 6.5,4C 7.92847,3.42094 9.2618,3.58761 10.5,4.5 Z"/></g>
<g><path style="opacity:1" fill="#c40e96" d="M 29.5,28.5 C 29.1583,29.3382 28.4916,29.6716 27.5,29.5C 28.0878,23.8542 28.7544,23.5208 29.5,28.5 Z"/></g>
<g><path style="opacity:1" fill="#800458" d="M 44.5,27.5 C 44.5,27.1667 44.5,26.8333 44.5,26.5C 45.8333,26.5 47.1667,26.5 48.5,26.5C 48.8168,30.7016 48.4834,34.7016 47.5,38.5C 47.5,34.8333 47.5,31.1667 47.5,27.5C 46.5,27.5 45.5,27.5 44.5,27.5 Z"/></g>
<g><path style="opacity:1" fill="#bc275e" d="M 80.5,20.5 C 81.6935,21.2719 82.6935,22.2719 83.5,23.5C 83.9836,28.7592 83.3169,33.7592 81.5,38.5C 80.448,38.3505 79.448,38.5172 78.5,39C 81.1816,41.3172 81.015,43.4839 78,45.5C 76.647,44.3147 75.4803,42.9814 74.5,41.5C 76.1491,39.3501 77.9824,37.3501 80,35.5C 80.1667,33.5 80.3333,31.5 80.5,29.5C 80.4609,27.0478 79.7943,25.0478 78.5,23.5C 77.8333,23.5 77.5,23.1667 77.5,22.5C 77.8212,20.9519 78.8212,20.2852 80.5,20.5 Z"/></g>
<g><path style="opacity:1" fill="#a98da0" d="M 89.5,27.5 C 90.1667,27.8333 90.8333,28.1667 91.5,28.5C 94.3231,29.9923 95.9898,32.3257 96.5,35.5C 95.0613,33.6397 93.3947,31.973 91.5,30.5C 90.0937,30.0269 89.427,29.0269 89.5,27.5 Z"/></g>
<g><path style="opacity:1" fill="#2d364b" d="M 4.5,21.5 C 3.27493,22.1522 2.60826,23.3189 2.5,25C 2.60826,26.6811 3.27493,27.8478 4.5,28.5C 4.84171,29.3382 5.50838,29.6716 6.5,29.5C 6.5,32.5 6.5,35.5 6.5,38.5C 4.51676,38.1568 3.18342,38.8235 2.5,40.5C 0.951857,40.1788 0.285191,39.1788 0.5,37.5C 2.16667,37.5 3.83333,37.5 5.5,37.5C 6.10593,34.0844 5.10593,31.4178 2.5,29.5C 1.51592,26.5719 1.18259,23.5719 1.5,20.5C 2.79105,20.2627 3.79105,20.596 4.5,21.5 Z"/></g>
<g><path style="opacity:1" fill="#631b5f" d="M 6.5,29.5 C 7.20137,32.5629 7.86803,35.7296 8.5,39C 6.83333,39.3333 5.16667,39.6667 3.5,40C 4.05596,40.3826 4.38929,40.8826 4.5,41.5C 5.21119,43.0301 6.21119,44.3634 7.5,45.5C 4.29839,45.4633 2.63172,43.7967 2.5,40.5C 3.18342,38.8235 4.51676,38.1568 6.5,38.5C 6.5,35.5 6.5,32.5 6.5,29.5 Z"/></g>
<g><path style="opacity:1" fill="#8a2984" d="M 37.5,29.5 C 38.791,29.2627 39.791,29.596 40.5,30.5C 39.1667,30.5 38.5,31.1667 38.5,32.5C 37.5318,34.6074 37.1984,36.9407 37.5,39.5C 36.3065,39.0296 35.6399,38.0296 35.5,36.5C 35.8864,34.0678 36.5531,31.7345 37.5,29.5 Z"/></g>
<g><path style="opacity:1" fill="#2f0b31" d="M 40.5,30.5 C 40.5,30.8333 40.5,31.1667 40.5,31.5C 40.8134,34.2469 40.48,36.9135 39.5,39.5C 38.5258,37.2573 38.1924,34.924 38.5,32.5C 38.5,31.1667 39.1667,30.5 40.5,30.5 Z"/></g>
<g><path style="opacity:1" fill="#fcbadb" d="M 22.5,32.5 C 24.256,33.5521 24.9227,35.2188 24.5,37.5C 24.0529,43.1129 25.7195,47.7796 29.5,51.5C 29.5,51.8333 29.5,52.1667 29.5,52.5C 27.4727,52.3379 25.4727,52.5045 23.5,53C 22.944,53.3826 22.6107,53.8826 22.5,54.5C 20.8333,54.5 19.1667,54.5 17.5,54.5C 16.8333,53.8333 16.1667,53.1667 15.5,52.5C 17.8568,52.6633 20.1902,52.4966 22.5,52C 23.91,51.6322 24.91,50.7989 25.5,49.5C 22.9953,44.1746 21.9953,38.5079 22.5,32.5 Z"/></g>
<g><path style="opacity:1" fill="#f526b6" d="M 44.5,27.5 C 45.5,27.5 46.5,27.5 47.5,27.5C 47.5,31.1667 47.5,34.8333 47.5,38.5C 45.2188,38.0773 43.5521,38.744 42.5,40.5C 40.8564,40.8102 39.8564,41.8102 39.5,43.5C 38.99,46.5394 38.3234,49.5394 37.5,52.5C 37.8039,53.1499 38.1373,53.8165 38.5,54.5C 37.0416,55.782 35.7082,55.782 34.5,54.5C 35.1168,49.4158 36.1168,44.4158 37.5,39.5C 37.1984,36.9407 37.5318,34.6074 38.5,32.5C 38.1924,34.924 38.5258,37.2573 39.5,39.5C 40.48,36.9135 40.8134,34.2469 40.5,31.5C 41.3091,33.2922 41.8091,35.2922 42,37.5C 44.1642,34.5527 44.9975,31.2194 44.5,27.5 Z"/></g>
<g><path style="opacity:1" fill="#d0d9de" d="M 55.5,13.5 C 60.263,13.2256 64.9296,13.559 69.5,14.5C 71.8333,17.5 74.5,20.1667 77.5,22.5C 77.5,23.1667 77.8333,23.5 78.5,23.5C 78.6655,27.5138 78.4988,31.5138 78,35.5C 75.9824,37.3501 74.1491,39.3501 72.5,41.5C 74.2194,43.5441 75.8861,45.5441 77.5,47.5C 79.0931,52.7034 78.7598,57.7034 76.5,62.5C 76.5,62.8333 76.5,63.1667 76.5,63.5C 74.8333,64.5 73.5,65.8333 72.5,67.5C 71.1667,68.1667 70.1667,69.1667 69.5,70.5C 65.1539,70.6657 60.8206,70.499 56.5,70C 54.5588,67.5464 52.2254,65.713 49.5,64.5C 49.1832,49.0888 49.5166,33.7554 50.5,18.5C 52.5,17.1667 54.1667,15.5 55.5,13.5 Z"/></g>
<g><path style="opacity:1" fill="#07f9f8" d="M 62.5,21.5 C 65.8729,26.6133 68.8729,31.9467 71.5,37.5C 70.5244,38.8149 69.5244,40.1482 68.5,41.5C 69.5244,42.8518 70.5244,44.1851 71.5,45.5C 69.0435,51.7462 66.0435,57.7462 62.5,63.5C 61.7981,61.4425 61.4647,59.4425 61.5,57.5C 63.316,55.1831 65.316,53.0165 67.5,51C 66.7389,45.3342 65.5723,45.1676 64,50.5C 61.4316,48.7975 60.9316,46.6308 62.5,44C 59.9584,37.1663 59.9584,30.3329 62.5,23.5C 62.5,22.8333 62.5,22.1667 62.5,21.5 Z"/></g>
<g><path style="opacity:1" fill="#03fef8" d="M 62.5,23.5 C 59.9584,30.3329 59.9584,37.1663 62.5,44C 60.9316,46.6308 61.4316,48.7975 64,50.5C 65.5723,45.1676 66.7389,45.3342 67.5,51C 65.316,53.0165 63.316,55.1831 61.5,57.5C 61.4647,59.4425 61.7981,61.4425 62.5,63.5C 61.241,64.9791 60.241,66.6458 59.5,68.5C 56.6134,67.2901 54.28,65.2901 52.5,62.5C 54.1407,60.7425 56.1407,59.2425 58.5,58C 55.9041,56.2028 56.2374,54.8695 59.5,54C 58.0091,51.9783 58.3424,50.3117 60.5,49C 58.6652,48.0723 58.3318,46.9056 59.5,45.5C 58.614,42.2681 57.2807,39.2681 55.5,36.5C 56.7515,34.9991 57.7515,33.3325 58.5,31.5C 57.6072,28.9159 57.2739,26.2492 57.5,23.5C 59.1667,23.5 60.8333,23.5 62.5,23.5 Z"/></g>
<g><path style="opacity:1" fill="#0789c1" d="M 66.5,15.5 C 69.7974,18.2956 72.9641,21.2956 76,24.5C 77.3394,29.9421 75.8394,34.2755 71.5,37.5C 68.8729,31.9467 65.8729,26.6133 62.5,21.5C 62.5,20.8333 62.5,20.1667 62.5,19.5C 62.6399,17.8762 61.9733,16.7096 60.5,16C 62.4727,15.5045 64.4727,15.3379 66.5,15.5 Z"/></g>
<g><path style="opacity:1" fill="#3abad6" d="M 59.5,14.5 C 62.0593,14.1984 64.3926,14.5318 66.5,15.5C 64.4727,15.3379 62.4727,15.5045 60.5,16C 61.9733,16.7096 62.6399,17.8762 62.5,19.5C 59.259,18.9626 58.259,17.2959 59.5,14.5 Z"/></g>
<g><path style="opacity:1" fill="#0cfcf9" d="M 59.5,14.5 C 58.259,17.2959 59.259,18.9626 62.5,19.5C 62.5,20.1667 62.5,20.8333 62.5,21.5C 62.5,22.1667 62.5,22.8333 62.5,23.5C 60.8333,23.5 59.1667,23.5 57.5,23.5C 57.2739,26.2492 57.6072,28.9159 58.5,31.5C 57.7515,33.3325 56.7515,34.9991 55.5,36.5C 57.2807,39.2681 58.614,42.2681 59.5,45.5C 58.3318,46.9056 58.6652,48.0723 60.5,49C 58.3424,50.3117 58.0091,51.9783 59.5,54C 56.2374,54.8695 55.9041,56.2028 58.5,58C 56.1407,59.2425 54.1407,60.7425 52.5,62.5C 51.8333,62.5 51.5,62.1667 51.5,61.5C 51.5,60.8333 51.5,60.1667 51.5,59.5C 52.8048,57.6028 53.4714,55.2695 53.5,52.5C 52.9624,48.7373 52.9624,45.0706 53.5,41.5C 53.2528,40.2867 52.5862,39.62 51.5,39.5C 52.8333,33.1667 52.8333,26.8333 51.5,20.5C 53.3438,17.3128 56.0105,15.3128 59.5,14.5 Z"/></g>
<g><path style="opacity:1" fill="#502148" d="M 78.5,23.5 C 79.7943,25.0478 80.4609,27.0478 80.5,29.5C 80.3333,31.5 80.1667,33.5 80,35.5C 77.9824,37.3501 76.1491,39.3501 74.5,41.5C 75.4803,42.9814 76.647,44.3147 78,45.5C 81.015,43.4839 81.1816,41.3172 78.5,39C 79.448,38.5172 80.448,38.3505 81.5,38.5C 82.038,40.1172 82.3713,41.7839 82.5,43.5C 81.0256,44.4363 80.0256,45.7697 79.5,47.5C 78.8333,47.5 78.1667,47.5 77.5,47.5C 75.8861,45.5441 74.2194,43.5441 72.5,41.5C 74.1491,39.3501 75.9824,37.3501 78,35.5C 78.4988,31.5138 78.6655,27.5138 78.5,23.5 Z"/></g>
<g><path style="opacity:1" fill="#3f214a" d="M 91.5,30.5 C 93.3947,31.973 95.0613,33.6397 96.5,35.5C 97.3004,37.6073 97.9671,39.7739 98.5,42C 97.2621,45.8809 95.9288,49.7143 94.5,53.5C 93.5084,53.6716 92.8417,53.3382 92.5,52.5C 94.5298,49.2723 95.8631,45.7723 96.5,42C 95.509,37.8521 93.8424,34.0188 91.5,30.5 Z"/></g>
<g><path style="opacity:1" fill="#fd8fcd" d="M 22.5,32.5 C 21.9953,38.5079 22.9953,44.1746 25.5,49.5C 24.91,50.7989 23.91,51.6322 22.5,52C 20.1902,52.4966 17.8568,52.6633 15.5,52.5C 14.8333,52.5 14.1667,52.5 13.5,52.5C 12.7611,52.631 12.0944,52.4643 11.5,52C 11.0853,49.9737 10.0853,48.4737 8.5,47.5C 8.16667,46.8333 7.83333,46.1667 7.5,45.5C 6.21119,44.3634 5.21119,43.0301 4.5,41.5C 8.54058,41.6751 12.5406,41.8418 16.5,42C 13.7513,40.8773 11.2513,39.3773 9,37.5C 8.57022,34.8078 8.73688,32.1411 9.5,29.5C 12.089,29.461 14.089,30.461 15.5,32.5C 16.4271,34.4759 17.7605,34.8092 19.5,33.5C 20.0412,31.4648 20.7078,29.4648 21.5,27.5C 21.4069,29.1095 21.7402,30.7762 22.5,32.5 Z"/></g>
<g><path style="opacity:1" fill="#711545" d="M 90.5,39.5 C 91.6491,39.7911 92.3158,40.6244 92.5,42C 92.1667,42.8333 91.8333,43.6667 91.5,44.5C 90.5481,42.9547 90.2148,41.288 90.5,39.5 Z"/></g>
<g><path style="opacity:1" fill="#dc656e" d="M 47.5,47.5 C 46.1667,47.5 44.8333,47.5 43.5,47.5C 43.5,48.5 43.5,49.5 43.5,50.5C 43.1667,50.5 42.8333,50.5 42.5,50.5C 42.5,50.1667 42.5,49.8333 42.5,49.5C 42.8333,46.8333 43.1667,44.1667 43.5,41.5C 44.8333,41.5 46.1667,41.5 47.5,41.5C 47.5,43.5 47.5,45.5 47.5,47.5 Z"/></g>
<g><path style="opacity:1" fill="#130615" d="M 49.5,18.5 C 49.8333,18.5 50.1667,18.5 50.5,18.5C 49.5166,33.7554 49.1832,49.0888 49.5,64.5C 48.5076,56.6841 48.1743,48.6841 48.5,40.5C 46.5,40.5 44.5,40.5 42.5,40.5C 43.5521,38.744 45.2188,38.0773 47.5,38.5C 48.4834,34.7016 48.8168,30.7016 48.5,26.5C 47.1667,26.5 45.8333,26.5 44.5,26.5C 44.5,26.1667 44.5,25.8333 44.5,25.5C 45.391,24.8902 46.391,24.5569 47.5,24.5C 48.4511,23.0813 48.7845,21.4147 48.5,19.5C 48.5,18.8333 48.8333,18.5 49.5,18.5 Z"/></g>
<g><path style="opacity:0.949" fill="#c3afc5" d="M 96.5,35.5 C 97.5,36.1667 98.5,36.8333 99.5,37.5C 99.5,40.5 99.5,43.5 99.5,46.5C 98.0787,49.0094 96.4121,51.3428 94.5,53.5C 95.9288,49.7143 97.2621,45.8809 98.5,42C 97.9671,39.7739 97.3004,37.6073 96.5,35.5 Z"/></g>
<g><path style="opacity:1" fill="#fe42bd" d="M 31.5,50.5 C 30.8333,50.8333 30.1667,51.1667 29.5,51.5C 25.7195,47.7796 24.0529,43.1129 24.5,37.5C 26.5841,36.7517 28.5841,36.7517 30.5,37.5C 31.4922,41.7828 31.8256,46.1161 31.5,50.5 Z"/></g>
<g><path style="opacity:1" fill="#85e1f6" d="M 51.5,20.5 C 52.8333,26.8333 52.8333,33.1667 51.5,39.5C 51.5,46.1667 51.5,52.8333 51.5,59.5C 51.5,60.1667 51.5,60.8333 51.5,61.5C 50.1667,47.8333 50.1667,34.1667 51.5,20.5 Z"/></g>
<g><path style="opacity:1" fill="#5b2b50" d="M 85.5,39.5 C 85.9334,42.3865 87.2667,44.8865 89.5,47C 88.0039,47.5074 86.8373,47.0074 86,45.5C 85.5045,43.5273 85.3379,41.5273 85.5,39.5 Z"/></g>
<g><path style="opacity:1" fill="#0bb0f7" d="M 51.5,39.5 C 52.5862,39.62 53.2528,40.2867 53.5,41.5C 52.9624,45.0706 52.9624,48.7373 53.5,52.5C 53.4714,55.2695 52.8048,57.6028 51.5,59.5C 51.5,52.8333 51.5,46.1667 51.5,39.5 Z"/></g>
<g><path style="opacity:1" fill="#433c5f" d="M 8.5,47.5 C 10.0853,48.4737 11.0853,49.9737 11.5,52C 12.0944,52.4643 12.7611,52.631 13.5,52.5C 11.0576,53.7259 8.72424,55.0592 6.5,56.5C 5.52216,56.189 4.85549,55.5223 4.5,54.5C 6.04533,53.5481 7.71199,53.2148 9.5,53.5C 9.16667,51.5 8.83333,49.5 8.5,47.5 Z"/></g>
<g><path style="opacity:1" fill="#291339" d="M 39.5,43.5 C 40.3764,43.3691 41.0431,43.7025 41.5,44.5C 39.8269,46.7615 40.1602,48.4282 42.5,49.5C 42.5,49.8333 42.5,50.1667 42.5,50.5C 40.9724,51.3092 39.3057,51.9759 37.5,52.5C 38.3234,49.5394 38.99,46.5394 39.5,43.5 Z"/></g>
<g><path style="opacity:1" fill="#ef8e86" d="M 47.5,47.5 C 47.8288,53.2055 47.4954,58.8722 46.5,64.5C 45.914,64.2907 45.414,63.9574 45,63.5C 44.8195,60.3054 44.3195,57.3054 43.5,54.5C 42.5084,54.6716 41.8417,54.3382 41.5,53.5C 42.5511,52.7777 43.2178,51.7777 43.5,50.5C 43.5,49.5 43.5,48.5 43.5,47.5C 44.8333,47.5 46.1667,47.5 47.5,47.5 Z"/></g>
<g><path style="opacity:1" fill="#631e5b" d="M 42.5,50.5 C 42.8333,50.5 43.1667,50.5 43.5,50.5C 43.2178,51.7777 42.5511,52.7777 41.5,53.5C 39.3523,53.3894 39.019,54.056 40.5,55.5C 38.3691,56.1687 36.3691,56.8354 34.5,57.5C 32.9731,57.573 31.9731,56.9063 31.5,55.5C 31.8417,54.6618 32.5084,54.3284 33.5,54.5C 33.8333,54.5 34.1667,54.5 34.5,54.5C 35.7082,55.782 37.0416,55.782 38.5,54.5C 38.1373,53.8165 37.8039,53.1499 37.5,52.5C 39.3057,51.9759 40.9724,51.3092 42.5,50.5 Z"/></g>
<g><path style="opacity:1" fill="#963c91" d="M 31.5,50.5 C 31.5271,52.1993 32.1938,53.5326 33.5,54.5C 32.5084,54.3284 31.8417,54.6618 31.5,55.5C 30.0937,55.0269 29.427,54.0269 29.5,52.5C 29.5,52.1667 29.5,51.8333 29.5,51.5C 30.1667,51.1667 30.8333,50.8333 31.5,50.5 Z"/></g>
<g><path style="opacity:1" fill="#e51aad" d="M 13.5,52.5 C 14.1667,52.5 14.8333,52.5 15.5,52.5C 16.1667,53.1667 16.8333,53.8333 17.5,54.5C 17.3893,55.1174 17.056,55.6174 16.5,56C 13.854,56.4974 11.1873,56.6641 8.5,56.5C 7.83333,56.5 7.16667,56.5 6.5,56.5C 8.72424,55.0592 11.0576,53.7259 13.5,52.5 Z"/></g>
<g><path style="opacity:1" fill="#ba1a60" d="M 82.5,43.5 C 83.8522,46.7812 84.5188,50.2812 84.5,54C 84.4343,56.2554 84.1009,58.422 83.5,60.5C 82.1667,60.8333 80.8333,61.1667 79.5,61.5C 80.7784,56.8018 80.7784,52.1352 79.5,47.5C 80.0256,45.7697 81.0256,44.4363 82.5,43.5 Z"/></g>
<g><path style="opacity:1" fill="#fa1ab0" d="M 29.5,52.5 C 29.427,54.0269 30.0937,55.0269 31.5,55.5C 31.9731,56.9063 32.9731,57.573 34.5,57.5C 34.5,57.8333 34.5,58.1667 34.5,58.5C 32.5853,58.2155 30.9187,58.5489 29.5,59.5C 28.8333,59.5 28.5,59.8333 28.5,60.5C 27.2905,60.0679 26.2905,59.4013 25.5,58.5C 24.95,54.6611 23.95,54.6611 22.5,58.5C 21.675,59.3857 20.675,59.719 19.5,59.5C 19.7497,57.326 20.7497,55.6594 22.5,54.5C 22.6107,53.8826 22.944,53.3826 23.5,53C 25.4727,52.5045 27.4727,52.3379 29.5,52.5 Z"/></g>
<g><path style="opacity:1" fill="#f47acc" d="M 17.5,54.5 C 19.1667,54.5 20.8333,54.5 22.5,54.5C 20.7497,55.6594 19.7497,57.326 19.5,59.5C 18.8333,59.5 18.5,59.8333 18.5,60.5C 14.3057,61.7616 10.9724,60.4283 8.5,56.5C 11.1873,56.6641 13.854,56.4974 16.5,56C 17.056,55.6174 17.3893,55.1174 17.5,54.5 Z"/></g>
<g><path style="opacity:1" fill="#2f225f" d="M 29.5,59.5 C 30.9187,58.5489 32.5853,58.2155 34.5,58.5C 36.604,58.2011 38.604,58.5344 40.5,59.5C 39.6667,59.8333 38.8333,60.1667 38,60.5C 35.2077,59.7844 32.3743,59.4511 29.5,59.5 Z"/></g>
<g><path style="opacity:1" fill="#098bc5" d="M 71.5,45.5 C 72.4812,47.3092 73.9812,48.6426 76,49.5C 76.6667,52.8333 76.6667,56.1667 76,59.5C 73.5,62 71,64.5 68.5,67C 65.6492,68.2886 62.6492,68.7886 59.5,68.5C 60.241,66.6458 61.241,64.9791 62.5,63.5C 66.0435,57.7462 69.0435,51.7462 71.5,45.5 Z"/></g>
<g><path style="opacity:0.737" fill="#ba9fb4" d="M 92.5,52.5 C 92.8417,53.3382 93.5084,53.6716 94.5,53.5C 94.8948,56.5225 93.8948,57.5225 91.5,56.5C 89.8122,58.8545 87.8122,60.8545 85.5,62.5C 83.5336,62.4587 81.5336,62.1253 79.5,61.5C 80.8333,61.1667 82.1667,60.8333 83.5,60.5C 87.1261,58.5407 90.1261,55.874 92.5,52.5 Z"/></g>
<g><path style="opacity:1" fill="#7c2268" d="M 25.5,58.5 C 24.4739,59.853 23.1405,60.853 21.5,61.5C 20.791,60.596 19.791,60.2627 18.5,60.5C 18.5,59.8333 18.8333,59.5 19.5,59.5C 20.675,59.719 21.675,59.3857 22.5,58.5C 23.95,54.6611 24.95,54.6611 25.5,58.5 Z"/></g>
<g><path style="opacity:1" fill="#150e30" d="M 41.5,53.5 C 41.8417,54.3382 42.5084,54.6716 43.5,54.5C 43.4894,56.0174 42.8228,57.1841 41.5,58C 43.1213,60.166 43.9546,62.666 44,65.5C 45.4007,67.1922 47.2341,67.8588 49.5,67.5C 49.3284,68.4916 49.6618,69.1583 50.5,69.5C 50.5569,70.609 50.8902,71.609 51.5,72.5C 50.8333,72.5 50.1667,72.5 49.5,72.5C 47.1643,71.0309 44.6643,69.6976 42,68.5C 41.5034,66.1902 41.3367,63.8568 41.5,61.5C 37.0293,62.0894 33.0293,61.4228 29.5,59.5C 32.3743,59.4511 35.2077,59.7844 38,60.5C 38.8333,60.1667 39.6667,59.8333 40.5,59.5C 38.604,58.5344 36.604,58.2011 34.5,58.5C 34.5,58.1667 34.5,57.8333 34.5,57.5C 36.3691,56.8354 38.3691,56.1687 40.5,55.5C 39.019,54.056 39.3523,53.3894 41.5,53.5 Z"/></g>
<g><path style="opacity:0.992" fill="#403252" d="M 6.5,56.5 C 7.16667,56.5 7.83333,56.5 8.5,56.5C 10.9724,60.4283 14.3057,61.7616 18.5,60.5C 19.791,60.2627 20.791,60.596 21.5,61.5C 21.7678,63.099 21.4345,64.4324 20.5,65.5C 20.1667,65.5 19.8333,65.5 19.5,65.5C 19.5,64.5 19.5,63.5 19.5,62.5C 13.8304,63.1749 9.49702,61.1749 6.5,56.5 Z"/></g>
<g><path style="opacity:1" fill="#f875c9" d="M 25.5,58.5 C 26.2905,59.4013 27.2905,60.0679 28.5,60.5C 28.5,62.5 29.5,63.5 31.5,63.5C 32.1738,65.0245 33.1738,66.3578 34.5,67.5C 34.1445,68.5223 33.4778,69.189 32.5,69.5C 32.0133,68.5266 31.5133,67.5266 31,66.5C 28.049,69.181 25.3824,68.8477 23,65.5C 22.3333,66.5 22.3333,67.5 23,68.5C 24.6225,69.0989 26.1225,69.7656 27.5,70.5C 25.1667,70.5 22.8333,70.5 20.5,70.5C 20.5,68.8333 20.5,67.1667 20.5,65.5C 21.4345,64.4324 21.7678,63.099 21.5,61.5C 23.1405,60.853 24.4739,59.853 25.5,58.5 Z"/></g>
<g><path style="opacity:1" fill="#503e57" d="M 77.5,47.5 C 78.1667,47.5 78.8333,47.5 79.5,47.5C 80.7784,52.1352 80.7784,56.8018 79.5,61.5C 81.5336,62.1253 83.5336,62.4587 85.5,62.5C 85.6716,63.4916 85.3382,64.1583 84.5,64.5C 83.5,64.5 82.5,64.5 81.5,64.5C 79.9724,63.6908 78.3057,63.0241 76.5,62.5C 78.7598,57.7034 79.0931,52.7034 77.5,47.5 Z"/></g>
<g><path style="opacity:1" fill="#973952" d="M 42.5,40.5 C 44.5,40.5 46.5,40.5 48.5,40.5C 48.1743,48.6841 48.5076,56.6841 49.5,64.5C 50.625,65.6522 50.625,66.6522 49.5,67.5C 47.2341,67.8588 45.4007,67.1922 44,65.5C 43.9546,62.666 43.1213,60.166 41.5,58C 42.8228,57.1841 43.4894,56.0174 43.5,54.5C 44.3195,57.3054 44.8195,60.3054 45,63.5C 45.414,63.9574 45.914,64.2907 46.5,64.5C 47.4954,58.8722 47.8288,53.2055 47.5,47.5C 47.5,45.5 47.5,43.5 47.5,41.5C 46.1667,41.5 44.8333,41.5 43.5,41.5C 43.1667,44.1667 42.8333,46.8333 42.5,49.5C 40.1602,48.4282 39.8269,46.7615 41.5,44.5C 41.0431,43.7025 40.3764,43.3691 39.5,43.5C 39.8564,41.8102 40.8564,40.8102 42.5,40.5 Z"/></g>
<g><path style="opacity:1" fill="#1c193c" d="M 76.5,62.5 C 78.3057,63.0241 79.9724,63.6908 81.5,64.5C 80.3104,66.3545 78.9771,68.1879 77.5,70C 76.552,70.4828 75.552,70.6495 74.5,70.5C 72.8333,70.5 71.1667,70.5 69.5,70.5C 70.1667,69.1667 71.1667,68.1667 72.5,67.5C 72.3691,68.3764 72.7025,69.0431 73.5,69.5C 75.754,68.8763 77.4206,67.543 78.5,65.5C 77.7573,64.8182 77.0906,64.1515 76.5,63.5C 76.5,63.1667 76.5,62.8333 76.5,62.5 Z"/></g>
<g><path style="opacity:1" fill="#5d5382" d="M 29.5,59.5 C 33.0293,61.4228 37.0293,62.0894 41.5,61.5C 41.3367,63.8568 41.5034,66.1902 42,68.5C 44.6643,69.6976 47.1643,71.0309 49.5,72.5C 43.5,72.5 37.5,72.5 31.5,72.5C 34.573,70.7835 37.573,68.7835 40.5,66.5C 37.1384,66.1496 34.3051,64.8163 32,62.5C 31.6012,62.7284 31.4346,63.0618 31.5,63.5C 29.5,63.5 28.5,62.5 28.5,60.5C 28.5,59.8333 28.8333,59.5 29.5,59.5 Z"/></g>
<g><path style="opacity:1" fill="#3c4c7d" d="M 76.5,63.5 C 77.0906,64.1515 77.7573,64.8182 78.5,65.5C 77.4206,67.543 75.754,68.8763 73.5,69.5C 72.7025,69.0431 72.3691,68.3764 72.5,67.5C 73.5,65.8333 74.8333,64.5 76.5,63.5 Z"/></g>
<g><path style="opacity:0.812" fill="#586485" d="M 18.5,65.5 C 18.8333,65.5 19.1667,65.5 19.5,65.5C 19.5,66.8333 19.5,68.1667 19.5,69.5C 18.209,69.2627 17.209,69.596 16.5,70.5C 15.9569,70.44 15.6236,70.1067 15.5,69.5C 16.325,68.6143 17.325,68.281 18.5,68.5C 18.5,67.5 18.5,66.5 18.5,65.5 Z"/></g>
<g><path style="opacity:1" fill="#f4afdc" d="M 32.5,69.5 C 31.1805,70.9418 29.5138,71.6085 27.5,71.5C 27.5,71.1667 27.5,70.8333 27.5,70.5C 26.1225,69.7656 24.6225,69.0989 23,68.5C 22.3333,67.5 22.3333,66.5 23,65.5C 25.3824,68.8477 28.049,69.181 31,66.5C 31.5133,67.5266 32.0133,68.5266 32.5,69.5 Z"/></g>
<g><path style="opacity:1" fill="#842f7d" d="M 19.5,65.5 C 19.8333,65.5 20.1667,65.5 20.5,65.5C 20.5,67.1667 20.5,68.8333 20.5,70.5C 22.8333,70.5 25.1667,70.5 27.5,70.5C 27.5,70.8333 27.5,71.1667 27.5,71.5C 24.1667,71.5 20.8333,71.5 17.5,71.5C 17.5,70.8333 17.1667,70.5 16.5,70.5C 17.209,69.596 18.209,69.2627 19.5,69.5C 19.5,68.1667 19.5,66.8333 19.5,65.5 Z"/></g>
<g><path style="opacity:0.4" fill="#c6e1e8" d="M 18.5,65.5 C 18.5,66.5 18.5,67.5 18.5,68.5C 17.325,68.281 16.325,68.6143 15.5,69.5C 15.6236,70.1067 15.9569,70.44 16.5,70.5C 17.1667,70.5 17.5,70.8333 17.5,71.5C 17.5,71.8333 17.5,72.1667 17.5,72.5C 15.2407,71.656 14.2407,69.9893 14.5,67.5C 16.1993,67.4729 17.5326,66.8062 18.5,65.5 Z"/></g>
<g><path style="opacity:1" fill="#b92854" d="M 69.5,70.5 C 71.1667,70.5 72.8333,70.5 74.5,70.5C 73.8888,72.7746 72.5554,74.4412 70.5,75.5C 68.4727,75.6621 66.4727,75.4955 64.5,75C 63.944,74.6174 63.6107,74.1174 63.5,73.5C 65.4123,72.2008 67.4123,71.2008 69.5,70.5 Z"/></g>
<g><path style="opacity:1" fill="#201c41" d="M 31.5,72.5 C 31.9175,73.2216 32.5842,73.7216 33.5,74C 36.1667,74.1667 38.8333,74.3333 41.5,74.5C 44.5902,74.4783 47.2568,73.8117 49.5,72.5C 50.1667,72.5 50.8333,72.5 51.5,72.5C 53.1765,71.8166 53.8432,70.4832 53.5,68.5C 52.209,68.2627 51.209,68.596 50.5,69.5C 49.6618,69.1583 49.3284,68.4916 49.5,67.5C 50.625,66.6522 50.625,65.6522 49.5,64.5C 52.2254,65.713 54.5588,67.5464 56.5,70C 60.8206,70.499 65.1539,70.6657 69.5,70.5C 67.4123,71.2008 65.4123,72.2008 63.5,73.5C 63.1541,71.2951 62.4874,71.1284 61.5,73C 61.7432,73.9021 62.0766,74.7354 62.5,75.5C 61.5,75.5 60.5,75.5 59.5,75.5C 59.719,74.325 59.3857,73.325 58.5,72.5C 53.169,74.9266 47.5023,75.9266 41.5,75.5C 33.628,74.2099 25.628,73.2099 17.5,72.5C 17.5,72.1667 17.5,71.8333 17.5,71.5C 20.8333,71.5 24.1667,71.5 27.5,71.5C 29.5138,71.6085 31.1805,70.9418 32.5,69.5C 33.4778,69.189 34.1445,68.5223 34.5,67.5C 33.1738,66.3578 32.1738,65.0245 31.5,63.5C 31.4346,63.0618 31.6012,62.7284 32,62.5C 34.3051,64.8163 37.1384,66.1496 40.5,66.5C 37.573,68.7835 34.573,70.7835 31.5,72.5 Z"/></g>
<g><path style="opacity:1" fill="#aa9bb3" d="M 51.5,72.5 C 50.8902,71.609 50.5569,70.609 50.5,69.5C 51.209,68.596 52.209,68.2627 53.5,68.5C 53.8432,70.4832 53.1765,71.8166 51.5,72.5 Z"/></g>
<g><path style="opacity:1" fill="#7f4060" d="M 63.5,73.5 C 63.6107,74.1174 63.944,74.6174 64.5,75C 66.4727,75.4955 68.4727,75.6621 70.5,75.5C 67.9387,76.7671 65.272,76.7671 62.5,75.5C 62.0766,74.7354 61.7432,73.9021 61.5,73C 62.4874,71.1284 63.1541,71.2951 63.5,73.5 Z"/></g>
<g><path style="opacity:0.075" fill="#b3cbd2" d="M 81.5,64.5 C 82.5,64.5 83.5,64.5 84.5,64.5C 79.9727,69.1388 75.3061,73.8055 70.5,78.5C 70.1667,78.5 69.8333,78.5 69.5,78.5C 69.1667,77.1667 68.8333,77.1667 68.5,78.5C 66.8333,78.5 65.1667,78.5 63.5,78.5C 61.2895,77.7987 59.4562,76.4653 58,74.5C 56.4452,76.1458 54.7785,76.4791 53,75.5C 52.5,76 52,76.5 51.5,77C 45.1667,77.6667 38.8333,77.6667 32.5,77C 27.7242,74.4585 22.7242,72.9585 17.5,72.5C 25.628,73.2099 33.628,74.2099 41.5,75.5C 47.5023,75.9266 53.169,74.9266 58.5,72.5C 59.3857,73.325 59.719,74.325 59.5,75.5C 60.5,75.5 61.5,75.5 62.5,75.5C 65.272,76.7671 67.9387,76.7671 70.5,75.5C 72.5554,74.4412 73.8888,72.7746 74.5,70.5C 75.552,70.6495 76.552,70.4828 77.5,70C 78.9771,68.1879 80.3104,66.3545 81.5,64.5 Z"/></g>
<g><path style="opacity:1" fill="#b392a2" d="M 31.5,72.5 C 37.5,72.5 43.5,72.5 49.5,72.5C 47.2568,73.8117 44.5902,74.4783 41.5,74.5C 38.8333,74.3333 36.1667,74.1667 33.5,74C 32.5842,73.7216 31.9175,73.2216 31.5,72.5 Z"/></g>
</svg>
