<?xml version="1.0" encoding="UTF-8"?>
<!DOCTYPE svg PUBLIC "-//W3C//DTD SVG 1.1//EN" "http://www.w3.org/Graphics/SVG/1.1/DTD/svg11.dtd">
<svg xmlns="http://www.w3.org/2000/svg" version="1.1" width="100px" height="81px" style="shape-rendering:geometricPrecision; text-rendering:geometricPrecision; image-rendering:optimizeQuality; fill-rule:evenodd; clip-rule:evenodd" xmlns:xlink="http://www.w3.org/1999/xlink">
<g><path style="opacity:0.953" fill="#ecbad8" d="M 55.5,-0.5 C 62.1667,-0.5 68.8333,-0.5 75.5,-0.5C 75.5,-0.166667 75.5,0.166667 75.5,0.5C 68.666,0.0893213 61.9993,0.755988 55.5,2.5C 55.5,1.5 55.5,0.5 55.5,-0.5 Z"/></g>
<g><path style="opacity:1" fill="#394950" d="M 51.5,-0.5 C 52.1667,-0.5 52.8333,-0.5 53.5,-0.5C 53.5,0.833333 53.5,2.16667 53.5,3.5C 52.5,3.5 51.5,3.5 50.5,3.5C 50.2627,4.79105 50.596,5.79105 51.5,6.5C 49.0521,7.47307 46.3854,7.8064 43.5,7.5C 44.9516,6.69808 46.6183,6.19808 48.5,6C 46.1902,5.50335 43.8568,5.33669 41.5,5.5C 43.9479,4.52693 46.6146,4.1936 49.5,4.5C 49.8308,2.67761 50.4975,1.01094 51.5,-0.5 Z"/></g>
<g><path style="opacity:1" fill="#1c7099" d="M 53.5,-0.5 C 54.1667,-0.5 54.8333,-0.5 55.5,-0.5C 55.5,0.5 55.5,1.5 55.5,2.5C 54.8333,4.5 53.5,5.83333 51.5,6.5C 50.596,5.79105 50.2627,4.79105 50.5,3.5C 51.5,3.5 52.5,3.5 53.5,3.5C 53.5,2.16667 53.5,0.833333 53.5,-0.5 Z"/></g>
<g><path style="opacity:0.139" fill="#8a768d" d="M 75.5,0.5 C 77.3947,1.97302 79.0613,3.63968 80.5,5.5C 78.8007,5.47291 77.4674,4.80624 76.5,3.5C 75.8902,2.60895 75.5569,1.60895 75.5,0.5 Z"/></g>
<g><path style="opacity:0.98" fill="#dbb3cd" d="M 49.5,-0.5 C 50.1667,-0.5 50.8333,-0.5 51.5,-0.5C 50.4975,1.01094 49.8308,2.67761 49.5,4.5C 46.6146,4.1936 43.9479,4.52693 41.5,5.5C 40.8333,6.83333 40.1667,8.16667 39.5,9.5C 37.8212,9.28519 36.8212,9.95186 36.5,11.5C 34.0672,11.2729 32.4006,12.2729 31.5,14.5C 29.8333,15.5 28.5,16.8333 27.5,18.5C 21.4646,19.5742 15.4646,20.5742 9.5,21.5C 11.631,20.6862 13.9644,20.1862 16.5,20C 19.0003,17.4721 21.8336,16.6387 25,17.5C 30.0716,12.1505 35.5716,7.31718 41.5,3C 43.5,2.66667 45.5,2.33333 47.5,2C 48.3805,1.2917 49.0472,0.458367 49.5,-0.5 Z"/></g>
<g><path style="opacity:1" fill="#298906" d="M 59.5,2.5 C 61.1667,2.5 62.8333,2.5 64.5,2.5C 64.3249,5.32887 65.6582,6.99554 68.5,7.5C 67.675,8.38568 66.675,8.71901 65.5,8.5C 61.8333,8.5 58.1667,8.5 54.5,8.5C 56.1139,6.5441 57.7806,4.5441 59.5,2.5 Z"/></g>
<g><path style="opacity:1" fill="#db9958" d="M 41.5,5.5 C 43.8568,5.33669 46.1902,5.50335 48.5,6C 46.6183,6.19808 44.9516,6.69808 43.5,7.5C 42.5,8.16667 41.5,8.83333 40.5,9.5C 40.1667,9.5 39.8333,9.5 39.5,9.5C 40.1667,8.16667 40.8333,6.83333 41.5,5.5 Z"/></g>
<g><path style="opacity:1" fill="#5b114d" d="M 75.5,0.5 C 75.5569,1.60895 75.8902,2.60895 76.5,3.5C 76.1583,4.33825 75.4916,4.67158 74.5,4.5C 74.0472,3.54163 73.3805,2.7083 72.5,2C 67.9796,1.18636 63.6463,1.35303 59.5,2.5C 57.7806,4.5441 56.1139,6.5441 54.5,8.5C 53.5084,8.32842 52.8417,8.66175 52.5,9.5C 49.3896,8.9115 46.3896,8.24484 43.5,7.5C 46.3854,7.8064 49.0521,7.47307 51.5,6.5C 53.5,5.83333 54.8333,4.5 55.5,2.5C 61.9993,0.755988 68.666,0.0893213 75.5,0.5 Z"/></g>
<g><path style="opacity:1" fill="#0f660a" d="M 59.5,2.5 C 63.6463,1.35303 67.9796,1.18636 72.5,2C 73.3805,2.7083 74.0472,3.54163 74.5,4.5C 75.0889,6.35187 75.7556,8.1852 76.5,10C 72.6186,10.3504 68.9519,9.85039 65.5,8.5C 66.675,8.71901 67.675,8.38568 68.5,7.5C 65.6582,6.99554 64.3249,5.32887 64.5,2.5C 62.8333,2.5 61.1667,2.5 59.5,2.5 Z"/></g>
<g><path style="opacity:1" fill="#ba124a" d="M 43.5,7.5 C 46.3896,8.24484 49.3896,8.9115 52.5,9.5C 52.6567,10.8734 52.49,12.2068 52,13.5C 50.3229,9.94887 47.4896,8.61554 43.5,9.5C 43.5,10.8333 43.5,12.1667 43.5,13.5C 43.44,14.0431 43.1067,14.3764 42.5,14.5C 41.8281,13.0508 41.1614,11.7175 40.5,10.5C 40.5,10.1667 40.5,9.83333 40.5,9.5C 41.5,8.83333 42.5,8.16667 43.5,7.5 Z"/></g>
<g><path style="opacity:1" fill="#1e2921" d="M 39.5,9.5 C 39.8333,9.5 40.1667,9.5 40.5,9.5C 40.5,9.83333 40.5,10.1667 40.5,10.5C 40.5,11.8333 40.5,13.1667 40.5,14.5C 38.139,14.6741 35.8056,15.0074 33.5,15.5C 35.1161,14.0108 37.1161,13.0108 39.5,12.5C 38.675,11.6143 37.675,11.281 36.5,11.5C 36.8212,9.95186 37.8212,9.28519 39.5,9.5 Z"/></g>
<g><path style="opacity:1" fill="#161733" d="M 76.5,3.5 C 77.4674,4.80624 78.8007,5.47291 80.5,5.5C 81.4822,8.76346 82.1489,12.0968 82.5,15.5C 81.4937,15.9377 81.4937,16.6043 82.5,17.5C 73.5237,14.4643 64.1904,13.1309 54.5,13.5C 53.2921,14.2341 51.9587,14.5674 50.5,14.5C 48.3926,13.5318 46.0593,13.1984 43.5,13.5C 43.5,12.1667 43.5,10.8333 43.5,9.5C 47.4896,8.61554 50.3229,9.94887 52,13.5C 52.49,12.2068 52.6567,10.8734 52.5,9.5C 52.8417,8.66175 53.5084,8.32842 54.5,8.5C 58.1667,8.5 61.8333,8.5 65.5,8.5C 68.9519,9.85039 72.6186,10.3504 76.5,10C 75.7556,8.1852 75.0889,6.35187 74.5,4.5C 75.4916,4.67158 76.1583,4.33825 76.5,3.5 Z"/></g>
<g><path style="opacity:1" fill="#123423" d="M 54.5,10.5 C 57.5719,10.1826 60.5719,10.5159 63.5,11.5C 62,11.8333 60.5,12.1667 59,12.5C 57.0145,12.4313 55.5145,11.7647 54.5,10.5 Z"/></g>
<g><path style="opacity:1" fill="#397e0f" d="M 36.5,11.5 C 37.675,11.281 38.675,11.6143 39.5,12.5C 37.1161,13.0108 35.1161,14.0108 33.5,15.5C 33.5,16.1667 33.1667,16.5 32.5,16.5C 31.6618,16.1583 31.3284,15.4916 31.5,14.5C 32.4006,12.2729 34.0672,11.2729 36.5,11.5 Z"/></g>
<g><path style="opacity:1" fill="#88074d" d="M 40.5,10.5 C 41.1614,11.7175 41.8281,13.0508 42.5,14.5C 43.1067,14.3764 43.44,14.0431 43.5,13.5C 46.0593,13.1984 48.3926,13.5318 50.5,14.5C 50.5,14.8333 50.5,15.1667 50.5,15.5C 44.3105,14.8121 38.6438,16.1454 33.5,19.5C 32.6143,18.675 32.281,17.675 32.5,16.5C 33.1667,16.5 33.5,16.1667 33.5,15.5C 35.8056,15.0074 38.139,14.6741 40.5,14.5C 40.5,13.1667 40.5,11.8333 40.5,10.5 Z"/></g>
<g><path style="opacity:1" fill="#1d0d3d" d="M 54.5,13.5 C 64.1904,13.1309 73.5237,14.4643 82.5,17.5C 83.391,18.1098 84.391,18.4431 85.5,18.5C 86.3029,19.4232 86.4696,20.4232 86,21.5C 84.7012,21.0338 83.2012,21.0338 81.5,21.5C 79.9064,21.0805 78.4064,20.4138 77,19.5C 76.5,19.8333 76,20.1667 75.5,20.5C 77.1298,23.2761 77.7965,26.2761 77.5,29.5C 76.0613,31.3603 74.3947,33.027 72.5,34.5C 72.5,33.8333 72.5,33.1667 72.5,32.5C 72.5,31.8333 72.5,31.1667 72.5,30.5C 73.4345,29.4324 73.7678,28.099 73.5,26.5C 74.6783,24.6621 74.345,22.9955 72.5,21.5C 69.8555,19.7581 66.8555,19.0914 63.5,19.5C 65.9686,18.6829 68.6353,18.1829 71.5,18C 65.5,17.6667 59.5,17.3333 53.5,17C 54.3366,15.9887 54.67,14.8221 54.5,13.5 Z"/></g>
<g><path style="opacity:0.031" fill="#a1949e" d="M 82.5,15.5 C 84.1898,15.8564 85.1898,16.8564 85.5,18.5C 84.391,18.4431 83.391,18.1098 82.5,17.5C 81.4937,16.6043 81.4937,15.9377 82.5,15.5 Z"/></g>
<g><path style="opacity:1" fill="#e20bd5" d="M 50.5,16.5 C 50.5,19.1667 50.5,21.8333 50.5,24.5C 48.7162,24.1075 47.0495,23.4408 45.5,22.5C 43.9192,20.8583 43.2525,18.8583 43.5,16.5C 45.8333,16.5 48.1667,16.5 50.5,16.5 Z"/></g>
<g><path style="opacity:1" fill="#1e861c" d="M 27.5,20.5 C 27.5,19.8333 27.5,19.1667 27.5,18.5C 28.5832,18.4606 29.5832,18.1272 30.5,17.5C 31.3857,18.325 31.719,19.325 31.5,20.5C 30.1667,20.5 28.8333,20.5 27.5,20.5 Z"/></g>
<g><path style="opacity:1" fill="#2d233a" d="M 31.5,14.5 C 31.3284,15.4916 31.6618,16.1583 32.5,16.5C 32.281,17.675 32.6143,18.675 33.5,19.5C 38.6438,16.1454 44.3105,14.8121 50.5,15.5C 50.5,15.8333 50.5,16.1667 50.5,16.5C 48.1667,16.5 45.8333,16.5 43.5,16.5C 43.2525,18.8583 43.9192,20.8583 45.5,22.5C 44.5084,22.3284 43.8417,22.6618 43.5,23.5C 41.8311,21.3382 39.8311,21.0048 37.5,22.5C 36.5679,19.8773 34.7346,19.8773 32,22.5C 30.9887,21.6634 29.8221,21.33 28.5,21.5C 27.8333,21.5 27.5,21.1667 27.5,20.5C 28.8333,20.5 30.1667,20.5 31.5,20.5C 31.719,19.325 31.3857,18.325 30.5,17.5C 29.5832,18.1272 28.5832,18.4606 27.5,18.5C 28.5,16.8333 29.8333,15.5 31.5,14.5 Z"/></g>
<g><path style="opacity:1" fill="#6c3c47" d="M 27.5,18.5 C 27.5,19.1667 27.5,19.8333 27.5,20.5C 24.0195,18.8633 21.0195,19.5299 18.5,22.5C 18.9569,23.2975 19.6236,23.6309 20.5,23.5C 16.7227,23.7719 12.7227,23.7719 8.5,23.5C 8.83333,22.8333 9.16667,22.1667 9.5,21.5C 15.4646,20.5742 21.4646,19.5742 27.5,18.5 Z"/></g>
<g><path style="opacity:1" fill="#f815af" d="M 62.5,19.5 C 62.8333,19.5 63.1667,19.5 63.5,19.5C 66.8555,19.0914 69.8555,19.7581 72.5,21.5C 71.7375,22.2679 70.7375,22.7679 69.5,23C 71.3187,23.7403 72.6521,24.9069 73.5,26.5C 73.7678,28.099 73.4345,29.4324 72.5,30.5C 70.283,31.3686 67.9496,31.702 65.5,31.5C 64.9688,29.4559 63.8022,27.7893 62,26.5C 61.51,25.2068 61.3433,23.8734 61.5,22.5C 62.1098,21.609 62.4431,20.609 62.5,19.5 Z"/></g>
<g><path style="opacity:1" fill="#90786b" d="M 72.5,21.5 C 74.345,22.9955 74.6783,24.6621 73.5,26.5C 72.6521,24.9069 71.3187,23.7403 69.5,23C 70.7375,22.7679 71.7375,22.2679 72.5,21.5 Z"/></g>
<g><path style="opacity:1" fill="#ea09d5" d="M 43.5,23.5 C 45.7006,28.2881 44.2006,31.2881 39,32.5C 35.1527,31.2744 33.986,28.941 35.5,25.5C 36.4013,24.7095 37.0679,23.7095 37.5,22.5C 39.8311,21.0048 41.8311,21.3382 43.5,23.5 Z"/></g>
<g><path style="opacity:1" fill="#281847" d="M 85.5,18.5 C 88.8333,19.8333 91.1667,22.1667 92.5,25.5C 93.1237,27.754 94.457,29.4206 96.5,30.5C 98.1042,31.287 98.7709,32.6203 98.5,34.5C 98.1667,34.5 97.8333,34.5 97.5,34.5C 96.5423,33.0384 95.3756,31.7051 94,30.5C 93.3539,32.6916 92.8539,35.0249 92.5,37.5C 88.8407,32.1718 85.174,26.8385 81.5,21.5C 83.2012,21.0338 84.7012,21.0338 86,21.5C 86.4696,20.4232 86.3029,19.4232 85.5,18.5 Z"/></g>
<g><path style="opacity:1" fill="#e01417" d="M 27.5,20.5 C 27.5,21.1667 27.8333,21.5 28.5,21.5C 28.573,23.0269 27.9063,24.0269 26.5,24.5C 25.5655,25.5676 25.2322,26.901 25.5,28.5C 22.1667,28.5 18.8333,28.5 15.5,28.5C 17.0808,26.9137 19.0808,25.9137 21.5,25.5C 22.6704,24.3061 22.337,23.6395 20.5,23.5C 19.6236,23.6309 18.9569,23.2975 18.5,22.5C 21.0195,19.5299 24.0195,18.8633 27.5,20.5 Z"/></g>
<g><path style="opacity:1" fill="#131238" d="M 54.5,13.5 C 54.67,14.8221 54.3366,15.9887 53.5,17C 59.5,17.3333 65.5,17.6667 71.5,18C 68.6353,18.1829 65.9686,18.6829 63.5,19.5C 63.1667,19.5 62.8333,19.5 62.5,19.5C 60.2075,19.2436 58.0408,19.5769 56,20.5C 53.1104,25.053 51.6104,30.053 51.5,35.5C 50.6611,41.4943 50.9944,47.4943 52.5,53.5C 52.9926,55.8056 53.3259,58.139 53.5,60.5C 57.3293,59.931 60.6627,60.5977 63.5,62.5C 60.1667,62.5 56.8333,62.5 53.5,62.5C 53.5,63.5 53.5,64.5 53.5,65.5C 52.5,65.5 51.5,65.5 50.5,65.5C 50.5,65.1667 50.5,64.8333 50.5,64.5C 51.5862,64.38 52.2528,63.7133 52.5,62.5C 52.1217,60.2835 51.455,58.2835 50.5,56.5C 50.3239,53.2727 49.6572,50.2727 48.5,47.5C 48.1566,43.9606 47.4899,40.4606 46.5,37C 48.2429,33.0019 49.5763,28.8353 50.5,24.5C 50.5,21.8333 50.5,19.1667 50.5,16.5C 50.5,16.1667 50.5,15.8333 50.5,15.5C 50.5,15.1667 50.5,14.8333 50.5,14.5C 51.9587,14.5674 53.2921,14.2341 54.5,13.5 Z"/></g>
<g><path style="opacity:1" fill="#f29714" d="M 8.5,23.5 C 12.7227,23.7719 16.7227,23.7719 20.5,23.5C 22.337,23.6395 22.6704,24.3061 21.5,25.5C 19.0808,25.9137 17.0808,26.9137 15.5,28.5C 15.1667,28.5 14.8333,28.5 14.5,28.5C 13.8333,28.5 13.5,28.8333 13.5,29.5C 11.076,29.8076 8.74269,29.4742 6.5,28.5C 7.24585,27.2638 7.57918,25.9305 7.5,24.5C 8.16667,24.5 8.5,24.1667 8.5,23.5 Z"/></g>
<g><path style="opacity:1" fill="#4e3c60" d="M 45.5,22.5 C 47.0495,23.4408 48.7162,24.1075 50.5,24.5C 49.5763,28.8353 48.2429,33.0019 46.5,37C 47.4899,40.4606 48.1566,43.9606 48.5,47.5C 47.8333,46.1667 47.1667,44.8333 46.5,43.5C 44.067,42.7516 41.7337,41.585 39.5,40C 36.854,39.5026 34.1873,39.3359 31.5,39.5C 31.3243,34.1203 31.6576,28.787 32.5,23.5C 34.1788,23.2852 35.1788,23.9519 35.5,25.5C 33.986,28.941 35.1527,31.2744 39,32.5C 44.2006,31.2881 45.7006,28.2881 43.5,23.5C 43.8417,22.6618 44.5084,22.3284 45.5,22.5 Z"/></g>
<g><path style="opacity:1" fill="#3f2a53" d="M 62.5,19.5 C 62.4431,20.609 62.1098,21.609 61.5,22.5C 60.8529,23.2739 60.5195,24.2739 60.5,25.5C 61.2043,27.5351 61.871,29.5351 62.5,31.5C 63.5,31.5 64.5,31.5 65.5,31.5C 65.5,31.8333 65.5,32.1667 65.5,32.5C 64.6236,32.3691 63.9569,32.7025 63.5,33.5C 63.8457,34.6956 64.3457,34.6956 65,33.5C 65.499,37.8206 65.6657,42.1539 65.5,46.5C 67.7354,46.2053 69.7354,46.5386 71.5,47.5C 68.5,47.5 65.5,47.5 62.5,47.5C 62.5,46.1667 62.5,44.8333 62.5,43.5C 59.5,42.8333 56.5,42.1667 53.5,41.5C 53.405,39.2143 52.7384,37.2143 51.5,35.5C 51.6104,30.053 53.1104,25.053 56,20.5C 58.0408,19.5769 60.2075,19.2436 62.5,19.5 Z"/></g>
<g><path style="opacity:0.816" fill="#746a82" d="M 92.5,25.5 C 94.9971,26.1293 96.3304,27.796 96.5,30.5C 94.457,29.4206 93.1237,27.754 92.5,25.5 Z"/></g>
<g><path style="opacity:1" fill="#3f2152" d="M 37.5,22.5 C 37.0679,23.7095 36.4013,24.7095 35.5,25.5C 35.1788,23.9519 34.1788,23.2852 32.5,23.5C 31.6576,28.787 31.3243,34.1203 31.5,39.5C 31.8064,42.3854 31.4731,45.0521 30.5,47.5C 30.8282,42.1254 30.4948,36.7921 29.5,31.5C 28.8933,31.6236 28.56,31.9569 28.5,32.5C 27.8333,33.1667 27.1667,33.8333 26.5,34.5C 26.5,31.1667 26.5,27.8333 26.5,24.5C 27.9063,24.0269 28.573,23.0269 28.5,21.5C 29.8221,21.33 30.9887,21.6634 32,22.5C 34.7346,19.8773 36.5679,19.8773 37.5,22.5 Z"/></g>
<g><path style="opacity:1" fill="#e37bba" d="M 61.5,22.5 C 61.3433,23.8734 61.51,25.2068 62,26.5C 63.8022,27.7893 64.9688,29.4559 65.5,31.5C 64.5,31.5 63.5,31.5 62.5,31.5C 61.871,29.5351 61.2043,27.5351 60.5,25.5C 60.5195,24.2739 60.8529,23.2739 61.5,22.5 Z"/></g>
<g><path style="opacity:1" fill="#774c59" d="M 7.5,24.5 C 7.57918,25.9305 7.24585,27.2638 6.5,28.5C 8.74269,29.4742 11.076,29.8076 13.5,29.5C 13.6309,30.3764 13.2975,31.0431 12.5,31.5C 10.9291,30.6906 9.26241,30.3573 7.5,30.5C 6.20895,30.2627 5.20895,30.596 4.5,31.5C 3.83333,31.8333 3.16667,32.1667 2.5,32.5C 3.66933,29.4887 5.336,26.822 7.5,24.5 Z"/></g>
<g><path style="opacity:0.616" fill="#eec6de" d="M 9.5,21.5 C 9.16667,22.1667 8.83333,22.8333 8.5,23.5C 8.5,24.1667 8.16667,24.5 7.5,24.5C 5.336,26.822 3.66933,29.4887 2.5,32.5C 1.19522,34.3972 0.528555,36.7305 0.5,39.5C 0.0429428,43.6533 1.04294,47.3199 3.5,50.5C 1.93819,50.2671 0.60486,49.6005 -0.5,48.5C -0.5,42.8333 -0.5,37.1667 -0.5,31.5C 2.23126,29.9286 4.06459,27.5952 5,24.5C 6.12901,22.8588 7.62901,21.8588 9.5,21.5 Z"/></g>
<g><path style="opacity:1" fill="#3e2b56" d="M 81.5,21.5 C 85.174,26.8385 88.8407,32.1718 92.5,37.5C 91.1931,38.8016 91.1931,40.135 92.5,41.5C 90.7762,43.8749 89.1095,46.2082 87.5,48.5C 86.6423,44.8731 86.4756,41.2065 87,37.5C 86.3992,35.6412 85.5659,35.3079 84.5,36.5C 83.5,36.5 82.5,36.5 81.5,36.5C 81.5,34.8333 81.5,33.1667 81.5,31.5C 81.8563,28.4359 81.0229,25.7693 79,23.5C 78.8091,25.7078 78.3091,27.7078 77.5,29.5C 77.7965,26.2761 77.1298,23.2761 75.5,20.5C 76,20.1667 76.5,19.8333 77,19.5C 78.4064,20.4138 79.9064,21.0805 81.5,21.5 Z"/></g>
<g><path style="opacity:1" fill="#8a0761" d="M 72.5,30.5 C 72.5,31.1667 72.5,31.8333 72.5,32.5C 70.1667,32.5 67.8333,32.5 65.5,32.5C 65.5,32.1667 65.5,31.8333 65.5,31.5C 67.9496,31.702 70.283,31.3686 72.5,30.5 Z"/></g>
<g><path style="opacity:1" fill="#d95913" d="M 14.5,28.5 C 15.209,29.404 16.209,29.7373 17.5,29.5C 17.5,30.5 17.5,31.5 17.5,32.5C 15.5853,32.2155 13.9187,32.5489 12.5,33.5C 10.0107,33.7593 8.34399,32.7593 7.5,30.5C 9.26241,30.3573 10.9291,30.6906 12.5,31.5C 13.2975,31.0431 13.6309,30.3764 13.5,29.5C 13.5,28.8333 13.8333,28.5 14.5,28.5 Z"/></g>
<g><path style="opacity:1" fill="#3c0b16" d="M 26.5,24.5 C 26.5,27.8333 26.5,31.1667 26.5,34.5C 26.6658,39.1785 26.4992,43.8452 26,48.5C 25.2496,49.1258 24.4162,49.6258 23.5,50C 24.4158,50.2784 25.0825,50.7784 25.5,51.5C 22.5,51.5 19.5,51.5 16.5,51.5C 16.1667,51.5 15.8333,51.5 15.5,51.5C 15.5,51.1667 15.5,50.8333 15.5,50.5C 16.1667,50.5 16.8333,50.5 17.5,50.5C 20.3699,50.752 22.7033,49.752 24.5,47.5C 23.9747,46.8076 23.3081,46.3076 22.5,46C 25.9931,44.5219 26.3264,42.5219 23.5,40C 25.1554,38.5557 25.822,36.7224 25.5,34.5C 22.2027,34.6713 21.8694,34.0046 24.5,32.5C 22.7033,30.248 20.3699,29.248 17.5,29.5C 16.209,29.7373 15.209,29.404 14.5,28.5C 14.8333,28.5 15.1667,28.5 15.5,28.5C 18.8333,28.5 22.1667,28.5 25.5,28.5C 25.2322,26.901 25.5655,25.5676 26.5,24.5 Z"/></g>
<g><path style="opacity:1" fill="#fae174" d="M 4.5,31.5 C 6.04814,31.8212 6.71481,32.8212 6.5,34.5C 5.32496,34.281 4.32496,34.6143 3.5,35.5C 5.04533,36.4519 6.71199,36.7852 8.5,36.5C 8.48944,38.0174 7.82277,39.1841 6.5,40C 8.5,40.3333 10.5,40.6667 12.5,41C 8.62215,41.9486 8.62215,43.1153 12.5,44.5C 10.1875,47.4855 8.52087,47.1522 7.5,43.5C 6.20543,44.0983 4.8721,44.5983 3.5,45C 4.97326,45.7096 5.63993,46.8762 5.5,48.5C 5.16667,48.5 4.83333,48.5 4.5,48.5C 3.19138,47.376 2.52472,45.876 2.5,44C 2.90029,40.0666 2.90029,36.2333 2.5,32.5C 3.16667,32.1667 3.83333,31.8333 4.5,31.5 Z"/></g>
<g><path style="opacity:1" fill="#eb1813" d="M 17.5,29.5 C 20.3699,29.248 22.7033,30.248 24.5,32.5C 21.8694,34.0046 22.2027,34.6713 25.5,34.5C 25.822,36.7224 25.1554,38.5557 23.5,40C 26.3264,42.5219 25.9931,44.5219 22.5,46C 23.3081,46.3076 23.9747,46.8076 24.5,47.5C 22.7033,49.752 20.3699,50.752 17.5,50.5C 17.9531,47.3611 19.2864,44.6945 21.5,42.5C 19.7806,40.4559 18.1139,38.4559 16.5,36.5C 15.205,35.5116 13.8717,34.5116 12.5,33.5C 13.9187,32.5489 15.5853,32.2155 17.5,32.5C 17.5,31.5 17.5,30.5 17.5,29.5 Z"/></g>
<g><path style="opacity:1" fill="#950673" d="M 30.5,47.5 C 30.5,48.1667 30.1667,48.5 29.5,48.5C 28.5119,43.3595 28.1786,38.0262 28.5,32.5C 28.56,31.9569 28.8933,31.6236 29.5,31.5C 30.4948,36.7921 30.8282,42.1254 30.5,47.5 Z"/></g>
<g><path style="opacity:0.004" fill="#aaa0b3" d="M 97.5,34.5 C 97.8333,34.5 98.1667,34.5 98.5,34.5C 98.3284,35.4916 98.6618,36.1583 99.5,36.5C 99.5,38.1667 99.5,39.8333 99.5,41.5C 98.3882,39.4006 97.7215,37.0673 97.5,34.5 Z"/></g>
<g><path style="opacity:1" fill="#1d0d40" d="M 97.5,34.5 C 97.7215,37.0673 98.3882,39.4006 99.5,41.5C 99.5,42.1667 99.5,42.8333 99.5,43.5C 97.3862,44.784 96.3862,46.784 96.5,49.5C 96.5,50.1667 96.1667,50.5 95.5,50.5C 94.5041,50.4142 93.6708,50.7476 93,51.5C 92.6667,49.8333 92.3333,48.1667 92,46.5C 92.1792,53.8162 88.6792,57.8162 81.5,58.5C 82.1667,57.1667 82.8333,55.8333 83.5,54.5C 85.3264,52.8525 86.6597,50.8525 87.5,48.5C 89.1095,46.2082 90.7762,43.8749 92.5,41.5C 91.1931,40.135 91.1931,38.8016 92.5,37.5C 92.8539,35.0249 93.3539,32.6916 94,30.5C 95.3756,31.7051 96.5423,33.0384 97.5,34.5 Z"/></g>
<g><path style="opacity:1" fill="#463660" d="M 81.5,31.5 C 77.5384,37.7247 77.8718,43.8913 82.5,50C 82.4148,51.1074 82.0814,52.1074 81.5,53C 82.4158,53.2784 83.0825,53.7784 83.5,54.5C 82.8333,55.8333 82.1667,57.1667 81.5,58.5C 80.4168,58.5394 79.4168,58.8728 78.5,59.5C 77.6143,58.675 77.281,57.675 77.5,56.5C 78.3966,51.5627 76.8966,47.5627 73,44.5C 72.5017,41.1832 72.335,37.8499 72.5,34.5C 74.3947,33.027 76.0613,31.3603 77.5,29.5C 78.3091,27.7078 78.8091,25.7078 79,23.5C 81.0229,25.7693 81.8563,28.4359 81.5,31.5 Z"/></g>
<g><path style="opacity:1" fill="#fb9a1c" d="M 16.5,36.5 C 18.1139,38.4559 19.7806,40.4559 21.5,42.5C 19.2864,44.6945 17.9531,47.3611 17.5,50.5C 16.8333,50.5 16.1667,50.5 15.5,50.5C 14.3263,49.4863 13.6596,48.153 13.5,46.5C 14.5676,45.5655 15.901,45.2322 17.5,45.5C 17.5,44.1667 17.5,42.8333 17.5,41.5C 16.0222,41.762 14.6888,41.4287 13.5,40.5C 15.2882,39.7174 16.2882,38.3841 16.5,36.5 Z"/></g>
<g><path style="opacity:1" fill="#8c869d" d="M 31.5,39.5 C 34.1873,39.3359 36.854,39.5026 39.5,40C 41.7337,41.585 44.067,42.7516 46.5,43.5C 45.4324,44.4345 44.099,44.7678 42.5,44.5C 39.9672,49.5075 38.6339,54.8409 38.5,60.5C 31.7419,59.5145 28.7419,55.5145 29.5,48.5C 30.1667,48.5 30.5,48.1667 30.5,47.5C 31.4731,45.0521 31.8064,42.3854 31.5,39.5 Z"/></g>
<g><path style="opacity:1" fill="#644d70" d="M 51.5,35.5 C 52.7384,37.2143 53.405,39.2143 53.5,41.5C 56.5,42.1667 59.5,42.8333 62.5,43.5C 62.5,44.8333 62.5,46.1667 62.5,47.5C 62.045,49.3666 61.3784,51.1999 60.5,53C 60.7728,54.5328 61.1062,56.0328 61.5,57.5C 60.2099,59.14 58.5433,59.64 56.5,59C 55.2527,56.9844 53.9194,55.1511 52.5,53.5C 50.9944,47.4943 50.6611,41.4943 51.5,35.5 Z"/></g>
<g><path style="opacity:1" fill="#fcbc29" d="M 4.5,31.5 C 5.20895,30.596 6.20895,30.2627 7.5,30.5C 8.34399,32.7593 10.0107,33.7593 12.5,33.5C 13.8717,34.5116 15.205,35.5116 16.5,36.5C 16.2882,38.3841 15.2882,39.7174 13.5,40.5C 14.6888,41.4287 16.0222,41.762 17.5,41.5C 17.5,42.8333 17.5,44.1667 17.5,45.5C 15.901,45.2322 14.5676,45.5655 13.5,46.5C 10.9333,47.475 8.2666,48.1417 5.5,48.5C 5.63993,46.8762 4.97326,45.7096 3.5,45C 4.8721,44.5983 6.20543,44.0983 7.5,43.5C 8.52087,47.1522 10.1875,47.4855 12.5,44.5C 8.62215,43.1153 8.62215,41.9486 12.5,41C 10.5,40.6667 8.5,40.3333 6.5,40C 7.82277,39.1841 8.48944,38.0174 8.5,36.5C 6.71199,36.7852 5.04533,36.4519 3.5,35.5C 4.32496,34.6143 5.32496,34.281 6.5,34.5C 6.71481,32.8212 6.04814,31.8212 4.5,31.5 Z"/></g>
<g><path style="opacity:1" fill="#f3f34f" d="M 8.5,36.5 C 8.61998,35.4138 9.28665,34.7472 10.5,34.5C 11.1667,34.8333 11.8333,35.1667 12.5,35.5C 11.3112,36.4287 9.97782,36.762 8.5,36.5 Z"/></g>
<g><path style="opacity:1" fill="#312147" d="M 81.5,31.5 C 81.5,33.1667 81.5,34.8333 81.5,36.5C 80.5489,37.9187 80.2155,39.5853 80.5,41.5C 81.8333,41.5 83.1667,41.5 84.5,41.5C 84.5,39.8333 84.5,38.1667 84.5,36.5C 85.5659,35.3079 86.3992,35.6412 87,37.5C 86.4756,41.2065 86.6423,44.8731 87.5,48.5C 86.6597,50.8525 85.3264,52.8525 83.5,54.5C 83.0825,53.7784 82.4158,53.2784 81.5,53C 82.0814,52.1074 82.4148,51.1074 82.5,50C 77.8718,43.8913 77.5384,37.7247 81.5,31.5 Z"/></g>
<g><path style="opacity:1" fill="#f05a03" d="M 81.5,36.5 C 82.5,36.5 83.5,36.5 84.5,36.5C 84.5,38.1667 84.5,39.8333 84.5,41.5C 83.1667,41.5 81.8333,41.5 80.5,41.5C 80.2155,39.5853 80.5489,37.9187 81.5,36.5 Z"/></g>
<g><path style="opacity:1" fill="#24e0ec" d="M 46.5,43.5 C 47.1667,44.8333 47.8333,46.1667 48.5,47.5C 49.6572,50.2727 50.3239,53.2727 50.5,56.5C 50.5,57.8333 50.5,59.1667 50.5,60.5C 47.6146,60.1936 44.9479,60.5269 42.5,61.5C 41.0413,61.5674 39.7079,61.2341 38.5,60.5C 38.6339,54.8409 39.9672,49.5075 42.5,44.5C 44.099,44.7678 45.4324,44.4345 46.5,43.5 Z"/></g>
<g><path style="opacity:1" fill="#8d6c76" d="M 2.5,32.5 C 2.90029,36.2333 2.90029,40.0666 2.5,44C 2.52472,45.876 3.19138,47.376 4.5,48.5C 6.5,49.1667 8.5,49.8333 10.5,50.5C 8.51676,50.1568 7.18342,50.8235 6.5,52.5C 6.56544,52.9382 6.39877,53.2716 6,53.5C 5.62325,52.0577 4.78991,51.0577 3.5,50.5C 1.04294,47.3199 0.0429428,43.6533 0.5,39.5C 0.528555,36.7305 1.19522,34.3972 2.5,32.5 Z"/></g>
<g><path style="opacity:0.62" fill="#8b7d99" d="M 99.5,43.5 C 99.5,44.1667 99.5,44.8333 99.5,45.5C 98.8571,47.0764 97.8571,48.4097 96.5,49.5C 96.3862,46.784 97.3862,44.784 99.5,43.5 Z"/></g>
<g><path style="opacity:1" fill="#9d4420" d="M 13.5,46.5 C 13.6596,48.153 14.3263,49.4863 15.5,50.5C 15.5,50.8333 15.5,51.1667 15.5,51.5C 13.8828,50.962 12.2161,50.6287 10.5,50.5C 8.5,49.8333 6.5,49.1667 4.5,48.5C 4.83333,48.5 5.16667,48.5 5.5,48.5C 8.2666,48.1417 10.9333,47.475 13.5,46.5 Z"/></g>
<g><path style="opacity:1" fill="#f810b7" d="M 62.5,47.5 C 65.5,47.5 68.5,47.5 71.5,47.5C 71.5,47.8333 71.5,48.1667 71.5,48.5C 71.0766,49.2646 70.7432,50.0979 70.5,51C 72.0997,52.1233 73.0997,53.6233 73.5,55.5C 72.8333,56.8333 72.1667,58.1667 71.5,59.5C 68.1239,59.2133 65.2905,57.88 63,55.5C 62.5357,56.0944 62.369,56.7611 62.5,57.5C 62.1667,57.5 61.8333,57.5 61.5,57.5C 61.1062,56.0328 60.7728,54.5328 60.5,53C 61.3784,51.1999 62.045,49.3666 62.5,47.5 Z"/></g>
<g><path style="opacity:1" fill="#cf5391" d="M 71.5,48.5 C 72.9311,48.8807 73.7645,49.8807 74,51.5C 74.765,53.0657 74.5983,54.3991 73.5,55.5C 73.0997,53.6233 72.0997,52.1233 70.5,51C 70.7432,50.0979 71.0766,49.2646 71.5,48.5 Z"/></g>
<g><path style="opacity:1" fill="#1b1036" d="M 65.5,32.5 C 67.8333,32.5 70.1667,32.5 72.5,32.5C 72.5,33.1667 72.5,33.8333 72.5,34.5C 72.335,37.8499 72.5017,41.1832 73,44.5C 76.8966,47.5627 78.3966,51.5627 77.5,56.5C 75.9816,61.3267 72.6483,63.3267 67.5,62.5C 66.8333,62.5 66.1667,62.5 65.5,62.5C 64.8333,62.5 64.1667,62.5 63.5,62.5C 60.6627,60.5977 57.3293,59.931 53.5,60.5C 53.3259,58.139 52.9926,55.8056 52.5,53.5C 53.9194,55.1511 55.2527,56.9844 56.5,59C 58.5433,59.64 60.2099,59.14 61.5,57.5C 61.8333,57.5 62.1667,57.5 62.5,57.5C 62.9528,58.4584 63.6195,59.2917 64.5,60C 67.0385,60.7958 69.3718,60.6291 71.5,59.5C 72.1667,58.1667 72.8333,56.8333 73.5,55.5C 74.5983,54.3991 74.765,53.0657 74,51.5C 73.7645,49.8807 72.9311,48.8807 71.5,48.5C 71.5,48.1667 71.5,47.8333 71.5,47.5C 69.7354,46.5386 67.7354,46.2053 65.5,46.5C 65.6657,42.1539 65.499,37.8206 65,33.5C 64.3457,34.6956 63.8457,34.6956 63.5,33.5C 63.9569,32.7025 64.6236,32.3691 65.5,32.5 Z"/></g>
<g><path style="opacity:1" fill="#81758d" d="M 66.5,34.5 C 67.7647,35.5145 68.4313,37.0145 68.5,39C 68.1667,40.5 67.8333,42 67.5,43.5C 66.5159,40.5719 66.1826,37.5719 66.5,34.5 Z"/></g>
<g><path style="opacity:1" fill="#fbab26" d="M 10.5,50.5 C 12.2161,50.6287 13.8828,50.962 15.5,51.5C 15.8333,51.5 16.1667,51.5 16.5,51.5C 16.5,51.8333 16.5,52.1667 16.5,52.5C 16.5,53.5 16.5,54.5 16.5,55.5C 13.8333,55.5 11.1667,55.5 8.5,55.5C 8.71481,53.8212 8.04814,52.8212 6.5,52.5C 7.18342,50.8235 8.51676,50.1568 10.5,50.5 Z"/></g>
<g><path style="opacity:0.937" fill="#cfaab7" d="M 3.5,50.5 C 4.78991,51.0577 5.62325,52.0577 6,53.5C 6.39877,53.2716 6.56544,52.9382 6.5,52.5C 8.04814,52.8212 8.71481,53.8212 8.5,55.5C 11.1667,55.5 13.8333,55.5 16.5,55.5C 16.8333,55.5 17.1667,55.5 17.5,55.5C 14.6946,56.3195 11.6946,56.8195 8.5,57C 11.7256,58.1989 15.059,58.6989 18.5,58.5C 20.0269,58.427 21.0269,59.0937 21.5,60.5C 25.2534,61.236 28.5868,62.9026 31.5,65.5C 32.2223,66.5511 33.2223,67.2178 34.5,67.5C 35.5137,68.6737 36.847,69.3404 38.5,69.5C 38.5,70.5 38.5,71.5 38.5,72.5C 36.3635,71.0578 34.0302,69.8911 31.5,69C 30,66.1667 27.8333,64 25,62.5C 24.6667,62.8333 24.3333,63.1667 24,63.5C 18.9121,60.5746 13.4121,58.7413 7.5,58C 4.9756,56.117 3.64226,53.617 3.5,50.5 Z"/></g>
<g><path style="opacity:1" fill="#704d5d" d="M 17.5,55.5 C 18.552,55.3505 19.552,55.5172 20.5,56C 19.244,56.4169 18.5774,57.2502 18.5,58.5C 15.059,58.6989 11.7256,58.1989 8.5,57C 11.6946,56.8195 14.6946,56.3195 17.5,55.5 Z"/></g>
<g><path style="opacity:1" fill="#e10d13" d="M 16.5,52.5 C 16.5,52.1667 16.5,51.8333 16.5,51.5C 19.5,51.5 22.5,51.5 25.5,51.5C 25.4236,53.9229 26.4236,55.7562 28.5,57C 28.4301,57.7648 28.0967,58.2648 27.5,58.5C 25.2775,57.8855 23.6108,56.5522 22.5,54.5C 20.4705,53.8283 18.4705,53.1616 16.5,52.5 Z"/></g>
<g><path style="opacity:1" fill="#f5fcfa" d="M 41.5,55.5 C 43.4286,55.2308 45.0953,55.7308 46.5,57C 44.6711,57.2735 43.1711,58.1068 42,59.5C 41.51,58.2068 41.3433,56.8734 41.5,55.5 Z"/></g>
<g><path style="opacity:1" fill="#db5b06" d="M 16.5,52.5 C 18.4705,53.1616 20.4705,53.8283 22.5,54.5C 23.6108,56.5522 25.2775,57.8855 27.5,58.5C 27.5,58.8333 27.5,59.1667 27.5,59.5C 27.5,59.8333 27.5,60.1667 27.5,60.5C 25.5,60.5 23.5,60.5 21.5,60.5C 21.0269,59.0937 20.0269,58.427 18.5,58.5C 18.5774,57.2502 19.244,56.4169 20.5,56C 19.552,55.5172 18.552,55.3505 17.5,55.5C 17.1667,55.5 16.8333,55.5 16.5,55.5C 16.5,54.5 16.5,53.5 16.5,52.5 Z"/></g>
<g><path style="opacity:1" fill="#3b2641" d="M 28.5,32.5 C 28.1786,38.0262 28.5119,43.3595 29.5,48.5C 28.7419,55.5145 31.7419,59.5145 38.5,60.5C 39.7079,61.2341 41.0413,61.5674 42.5,61.5C 44.126,61.9383 45.7927,62.2716 47.5,62.5C 49.0296,62.3601 50.0296,61.6935 50.5,60.5C 50.5,59.1667 50.5,57.8333 50.5,56.5C 51.455,58.2835 52.1217,60.2835 52.5,62.5C 52.2528,63.7133 51.5862,64.38 50.5,64.5C 47.9387,63.2329 45.272,63.2329 42.5,64.5C 41.1052,62.6997 39.4385,62.3664 37.5,63.5C 39.9398,64.3359 41.2732,66.0025 41.5,68.5C 41.5,68.8333 41.5,69.1667 41.5,69.5C 40.5,69.5 39.5,69.5 38.5,69.5C 36.847,69.3404 35.5137,68.6737 34.5,67.5C 35.8734,67.6567 37.2068,67.49 38.5,67C 36.2404,66.4506 34.5738,65.284 33.5,63.5C 32.1667,63.5 31.5,64.1667 31.5,65.5C 28.5868,62.9026 25.2534,61.236 21.5,60.5C 23.5,60.5 25.5,60.5 27.5,60.5C 29.3059,63.3382 30.3059,63.0048 30.5,59.5C 29.5,59.5 28.5,59.5 27.5,59.5C 27.5,59.1667 27.5,58.8333 27.5,58.5C 28.0967,58.2648 28.4301,57.7648 28.5,57C 26.4236,55.7562 25.4236,53.9229 25.5,51.5C 25.0825,50.7784 24.4158,50.2784 23.5,50C 24.4162,49.6258 25.2496,49.1258 26,48.5C 26.4992,43.8452 26.6658,39.1785 26.5,34.5C 27.1667,33.8333 27.8333,33.1667 28.5,32.5 Z"/></g>
<g><path style="opacity:1" fill="#382651" d="M 95.5,50.5 C 95.6495,51.552 95.4828,52.552 95,53.5C 91.7085,56.2894 88.5418,59.2894 85.5,62.5C 84.5832,63.1272 83.5832,63.4606 82.5,63.5C 78.377,63.541 74.2104,63.541 70,63.5C 68.9701,63.8361 68.4701,64.5028 68.5,65.5C 67.7611,65.631 67.0944,65.4643 66.5,65C 67.2524,64.3292 67.5858,63.4959 67.5,62.5C 72.6483,63.3267 75.9816,61.3267 77.5,56.5C 77.281,57.675 77.6143,58.675 78.5,59.5C 79.4168,58.8728 80.4168,58.5394 81.5,58.5C 88.6792,57.8162 92.1792,53.8162 92,46.5C 92.3333,48.1667 92.6667,49.8333 93,51.5C 93.6708,50.7476 94.5041,50.4142 95.5,50.5 Z"/></g>
<g><path style="opacity:1" fill="#bd82a3" d="M 71.5,59.5 C 69.3718,60.6291 67.0385,60.7958 64.5,60C 63.6195,59.2917 62.9528,58.4584 62.5,57.5C 62.369,56.7611 62.5357,56.0944 63,55.5C 65.2905,57.88 68.1239,59.2133 71.5,59.5 Z"/></g>
<g><path style="opacity:1" fill="#1f751b" d="M 27.5,59.5 C 28.5,59.5 29.5,59.5 30.5,59.5C 30.3059,63.0048 29.3059,63.3382 27.5,60.5C 27.5,60.1667 27.5,59.8333 27.5,59.5 Z"/></g>
<g><path style="opacity:1" fill="#b9b1da" d="M 42.5,61.5 C 44.9479,60.5269 47.6146,60.1936 50.5,60.5C 50.0296,61.6935 49.0296,62.3601 47.5,62.5C 45.7927,62.2716 44.126,61.9383 42.5,61.5 Z"/></g>
<g><path style="opacity:1" fill="#b0022d" d="M 33.5,63.5 C 33.9483,61.5354 34.9483,61.2021 36.5,62.5C 35.675,63.3857 34.675,63.719 33.5,63.5 Z"/></g>
<g><path style="opacity:1" fill="#a80645" d="M 42.5,64.5 C 42.7678,66.099 42.4345,67.4324 41.5,68.5C 41.2732,66.0025 39.9398,64.3359 37.5,63.5C 39.4385,62.3664 41.1052,62.6997 42.5,64.5 Z"/></g>
<g><path style="opacity:1" fill="#05bb18" d="M 63.5,62.5 C 64.1667,62.5 64.8333,62.5 65.5,62.5C 65.5,63.5 65.5,64.5 65.5,65.5C 61.5,65.5 57.5,65.5 53.5,65.5C 53.5,64.5 53.5,63.5 53.5,62.5C 56.8333,62.5 60.1667,62.5 63.5,62.5 Z"/></g>
<g><path style="opacity:1" fill="#2a9316" d="M 33.5,63.5 C 34.5738,65.284 36.2404,66.4506 38.5,67C 37.2068,67.49 35.8734,67.6567 34.5,67.5C 33.2223,67.2178 32.2223,66.5511 31.5,65.5C 31.5,64.1667 32.1667,63.5 33.5,63.5 Z"/></g>
<g><path style="opacity:1" fill="#083815" d="M 53.5,65.5 C 57.5,65.5 61.5,65.5 65.5,65.5C 67.129,67.1959 66.7957,68.1959 64.5,68.5C 63.036,67.8401 61.3693,67.5068 59.5,67.5C 57.3603,67.5561 55.6936,68.2227 54.5,69.5C 53.5655,68.4324 53.2322,67.099 53.5,65.5 Z"/></g>
<g><path style="opacity:1" fill="#056c10" d="M 70.5,67.5 C 70.5,66.8333 70.5,66.1667 70.5,65.5C 72.2624,65.6427 73.9291,65.3094 75.5,64.5C 76.3857,65.325 76.719,66.325 76.5,67.5C 74.5,67.5 72.5,67.5 70.5,67.5 Z"/></g>
<g><path style="opacity:1" fill="#12162f" d="M 82.5,63.5 C 82.7845,65.4147 82.4511,67.0813 81.5,68.5C 79.4985,71.5163 77.4985,74.5163 75.5,77.5C 75.0618,77.5654 74.7284,77.3988 74.5,77C 76.4705,74.8568 77.8038,72.3568 78.5,69.5C 78.0431,68.7025 77.3764,68.3691 76.5,68.5C 74.8333,68.5 73.1667,68.5 71.5,68.5C 69.7761,68.5393 69.4427,68.206 70.5,67.5C 72.5,67.5 74.5,67.5 76.5,67.5C 76.719,66.325 76.3857,65.325 75.5,64.5C 73.9291,65.3094 72.2624,65.6427 70.5,65.5C 69.8333,65.5 69.1667,65.5 68.5,65.5C 68.4701,64.5028 68.9701,63.8361 70,63.5C 74.2104,63.541 78.377,63.541 82.5,63.5 Z"/></g>
<g><path style="opacity:1" fill="#168c94" d="M 43.5,67.5 C 46.0821,67.0254 48.0821,67.6921 49.5,69.5C 46.9179,69.9746 44.9179,69.3079 43.5,67.5 Z"/></g>
<g><path style="opacity:1" fill="#01b703" d="M 64.5,68.5 C 61.3752,69.4794 58.0419,69.8128 54.5,69.5C 55.6936,68.2227 57.3603,67.5561 59.5,67.5C 61.3693,67.5068 63.036,67.8401 64.5,68.5 Z"/></g>
<g><path style="opacity:1" fill="#14291e" d="M 65.5,62.5 C 66.1667,62.5 66.8333,62.5 67.5,62.5C 67.5858,63.4959 67.2524,64.3292 66.5,65C 67.0944,65.4643 67.7611,65.631 68.5,65.5C 69.1667,65.5 69.8333,65.5 70.5,65.5C 70.5,66.1667 70.5,66.8333 70.5,67.5C 69.4427,68.206 69.7761,68.5393 71.5,68.5C 66.2086,69.7619 60.8753,70.7619 55.5,71.5C 55.5,72.1667 55.5,72.8333 55.5,73.5C 54.8333,73.5 54.5,73.1667 54.5,72.5C 54.5,71.5 54.5,70.5 54.5,69.5C 58.0419,69.8128 61.3752,69.4794 64.5,68.5C 66.7957,68.1959 67.129,67.1959 65.5,65.5C 65.5,64.5 65.5,63.5 65.5,62.5 Z"/></g>
<g><path style="opacity:1" fill="#620b2f" d="M 50.5,64.5 C 50.5,64.8333 50.5,65.1667 50.5,65.5C 48.0479,66.0654 45.7146,66.7321 43.5,67.5C 44.9179,69.3079 46.9179,69.9746 49.5,69.5C 48.0484,70.3019 46.3817,70.8019 44.5,71C 46.4727,71.4955 48.4727,71.6621 50.5,71.5C 50.5,71.8333 50.5,72.1667 50.5,72.5C 48.1432,72.6633 45.8098,72.4966 43.5,72C 42.6195,71.2917 41.9528,70.4584 41.5,69.5C 41.5,69.1667 41.5,68.8333 41.5,68.5C 42.4345,67.4324 42.7678,66.099 42.5,64.5C 45.272,63.2329 47.9387,63.2329 50.5,64.5 Z"/></g>
<g><path style="opacity:1" fill="#c8033b" d="M 50.5,71.5 C 48.4727,71.6621 46.4727,71.4955 44.5,71C 46.3817,70.8019 48.0484,70.3019 49.5,69.5C 50.9311,69.1193 51.7645,68.1193 52,66.5C 52.8769,68.6742 52.3769,70.3409 50.5,71.5 Z"/></g>
<g><path style="opacity:1" fill="#371825" d="M 50.5,65.5 C 51.5,65.5 52.5,65.5 53.5,65.5C 53.2322,67.099 53.5655,68.4324 54.5,69.5C 54.5,70.5 54.5,71.5 54.5,72.5C 53.0755,70.9689 52.4088,71.3023 52.5,73.5C 52.1667,73.5 51.8333,73.5 51.5,73.5C 51.5,72.8333 51.1667,72.5 50.5,72.5C 50.5,72.1667 50.5,71.8333 50.5,71.5C 52.3769,70.3409 52.8769,68.6742 52,66.5C 51.7645,68.1193 50.9311,69.1193 49.5,69.5C 48.0821,67.6921 46.0821,67.0254 43.5,67.5C 45.7146,66.7321 48.0479,66.0654 50.5,65.5 Z"/></g>
<g><path style="opacity:1" fill="#0a8e03" d="M 71.5,68.5 C 73.1667,68.5 74.8333,68.5 76.5,68.5C 76.0761,71.354 75.0761,74.0207 73.5,76.5C 70.5719,77.4841 67.5719,77.8174 64.5,77.5C 64.5,75.5 64.5,73.5 64.5,71.5C 61.5,71.5 58.5,71.5 55.5,71.5C 60.8753,70.7619 66.2086,69.7619 71.5,68.5 Z"/></g>
<g><path style="opacity:1" fill="#785e63" d="M 38.5,69.5 C 39.5,69.5 40.5,69.5 41.5,69.5C 41.9528,70.4584 42.6195,71.2917 43.5,72C 45.8098,72.4966 48.1432,72.6633 50.5,72.5C 51.1667,72.5 51.5,72.8333 51.5,73.5C 50.2905,73.9321 49.2905,74.5987 48.5,75.5C 44.5669,76.1426 41.2336,75.1426 38.5,72.5C 38.5,71.5 38.5,70.5 38.5,69.5 Z"/></g>
<g><path style="opacity:1" fill="#97356a" d="M 54.5,72.5 C 54.5,73.1667 54.8333,73.5 55.5,73.5C 57.1667,74.5 58.5,75.8333 59.5,77.5C 59.5,77.8333 59.5,78.1667 59.5,78.5C 58.1667,77.1667 56.8333,77.1667 55.5,78.5C 55.7271,76.0672 54.7271,74.4006 52.5,73.5C 52.4088,71.3023 53.0755,70.9689 54.5,72.5 Z"/></g>
<g><path style="opacity:0.671" fill="#e8c0da" d="M 38.5,72.5 C 41.2336,75.1426 44.5669,76.1426 48.5,75.5C 49.8897,76.8993 50.8897,78.5659 51.5,80.5C 50.8333,80.5 50.1667,80.5 49.5,80.5C 49.1961,79.8501 48.8627,79.1835 48.5,78.5C 45.7875,77.7719 43.1209,76.9385 40.5,76C 39.1772,75.1841 38.5106,74.0174 38.5,72.5 Z"/></g>
<g><path style="opacity:0.431" fill="#937f98" d="M 81.5,68.5 C 81.4561,73.73 79.1228,77.3967 74.5,79.5C 69.3054,79.8205 64.3054,79.4872 59.5,78.5C 65.0262,78.8214 70.3595,78.4881 75.5,77.5C 77.4985,74.5163 79.4985,71.5163 81.5,68.5 Z"/></g>
<g><path style="opacity:1" fill="#49cd02" d="M 55.5,71.5 C 58.5,71.5 61.5,71.5 64.5,71.5C 64.5,73.5 64.5,75.5 64.5,77.5C 62.8333,77.5 61.1667,77.5 59.5,77.5C 58.5,75.8333 57.1667,74.5 55.5,73.5C 55.5,72.8333 55.5,72.1667 55.5,71.5 Z"/></g>
<g><path style="opacity:1" fill="#3d658d" d="M 51.5,73.5 C 51.8333,73.5 52.1667,73.5 52.5,73.5C 54.7271,74.4006 55.7271,76.0672 55.5,78.5C 55.5,79.1667 55.5,79.8333 55.5,80.5C 54.1667,80.5 52.8333,80.5 51.5,80.5C 50.8897,78.5659 49.8897,76.8993 48.5,75.5C 49.2905,74.5987 50.2905,73.9321 51.5,73.5 Z"/></g>
<g><path style="opacity:1" fill="#073020" d="M 76.5,68.5 C 77.3764,68.3691 78.0431,68.7025 78.5,69.5C 77.8038,72.3568 76.4705,74.8568 74.5,77C 74.7284,77.3988 75.0618,77.5654 75.5,77.5C 70.3595,78.4881 65.0262,78.8214 59.5,78.5C 59.5,78.1667 59.5,77.8333 59.5,77.5C 61.1667,77.5 62.8333,77.5 64.5,77.5C 67.5719,77.8174 70.5719,77.4841 73.5,76.5C 75.0761,74.0207 76.0761,71.354 76.5,68.5 Z"/></g>
<g><path style="opacity:0.949" fill="#f9ddee" d="M 59.5,78.5 C 64.3054,79.4872 69.3054,79.8205 74.5,79.5C 74.5,79.8333 74.5,80.1667 74.5,80.5C 68.1667,80.5 61.8333,80.5 55.5,80.5C 55.5,79.8333 55.5,79.1667 55.5,78.5C 56.8333,77.1667 58.1667,77.1667 59.5,78.5 Z"/></g>
</svg>
