<?xml version="1.0" encoding="UTF-8"?>
<!DOCTYPE svg PUBLIC "-//W3C//DTD SVG 1.1//EN" "http://www.w3.org/Graphics/SVG/1.1/DTD/svg11.dtd">
<svg xmlns="http://www.w3.org/2000/svg" version="1.1" width="100px" height="87px" style="shape-rendering:geometricPrecision; text-rendering:geometricPrecision; image-rendering:optimizeQuality; fill-rule:evenodd; clip-rule:evenodd" xmlns:xlink="http://www.w3.org/1999/xlink">
<g><path style="opacity:0.063" fill="#c5dfe6" d="M 48.5,-0.5 C 49.8333,-0.5 51.1667,-0.5 52.5,-0.5C 55.8483,2.85712 58.1816,6.85712 59.5,11.5C 62.2009,8.34589 65.5342,7.67922 69.5,9.5C 70.2975,9.95689 70.6309,10.6236 70.5,11.5C 67.0729,9.82316 64.0729,10.1565 61.5,12.5C 60.8333,12.5 60.1667,12.5 59.5,12.5C 57.6264,10.918 56.2931,8.91796 55.5,6.5C 54.6911,2.98134 52.6911,1.64801 49.5,2.5C 50.9501,3.84983 51.6168,5.5165 51.5,7.5C 51.0113,8.99522 50.3446,10.3285 49.5,11.5C 48.1667,11.5 46.8333,11.5 45.5,11.5C 42.3968,9.57669 39.3968,7.41002 36.5,5C 34.5643,4.18701 32.5643,3.68701 30.5,3.5C 28.3066,2.20308 25.9732,2.20308 23.5,3.5C 23.6236,4.10667 23.9569,4.44001 24.5,4.5C 25.9305,4.42082 27.2638,4.75415 28.5,5.5C 29.3249,7.35958 30.3249,9.02624 31.5,10.5C 31.6716,11.4916 31.3382,12.1583 30.5,12.5C 28.7313,9.68515 26.2313,7.68515 23,6.5C 22.5,6.83333 22,7.16667 21.5,7.5C 22.5244,8.85181 23.5244,10.1851 24.5,11.5C 24.6138,14.216 23.6138,16.216 21.5,17.5C 20.5,17.5 19.5,17.5 18.5,17.5C 15.0916,15.3977 11.4249,14.7311 7.5,15.5C 9.02875,16.7629 10.6954,17.7629 12.5,18.5C 12.5,19.1667 12.8333,19.5 13.5,19.5C 14.8916,22.0067 15.8916,24.6733 16.5,27.5C 15.5,27.5 14.5,27.5 13.5,27.5C 9.72723,28.1031 6.06056,28.7698 2.5,29.5C 1.95691,29.56 1.62358,29.8933 1.5,30.5C 2.32496,31.3857 3.32496,31.719 4.5,31.5C 4.83333,32.5 5.5,33.1667 6.5,33.5C 6.5,34.1667 6.5,34.8333 6.5,35.5C 4.32953,33.9138 1.99619,32.5804 -0.5,31.5C -0.5,30.5 -0.5,29.5 -0.5,28.5C 3.45938,27.8939 7.45938,27.2272 11.5,26.5C 13.6791,24.7172 13.6791,22.7172 11.5,20.5C 3.09633,15.4763 3.763,13.3097 13.5,14C 16.3516,14.2694 19.0182,15.1028 21.5,16.5C 22.8002,13.3052 22.4669,10.3052 20.5,7.5C 21.6511,5.67458 22.3178,3.67458 22.5,1.5C 31.5975,0.0365496 39.2642,2.86988 45.5,10C 46.448,10.4828 47.448,10.6495 48.5,10.5C 48.7826,6.78251 48.7826,3.11584 48.5,-0.5 Z"/></g>
<g><path style="opacity:1" fill="#a499c2" d="M 30.5,3.5 C 28.2646,3.20528 26.2646,3.53862 24.5,4.5C 23.9569,4.44001 23.6236,4.10667 23.5,3.5C 25.9732,2.20308 28.3066,2.20308 30.5,3.5 Z"/></g>
<g><path style="opacity:1" fill="#d91380" d="M 24.5,4.5 C 26.2646,3.53862 28.2646,3.20528 30.5,3.5C 32.5643,3.68701 34.5643,4.18701 36.5,5C 39.3968,7.41002 42.3968,9.57669 45.5,11.5C 45.5106,13.0174 46.1772,14.1841 47.5,15C 47.2716,15.3988 46.9382,15.5654 46.5,15.5C 44.9557,15.2969 43.6223,14.6302 42.5,13.5C 40.6187,15.7337 38.2853,17.067 35.5,17.5C 34.4043,14.9684 33.0709,12.6351 31.5,10.5C 30.3249,9.02624 29.3249,7.35958 28.5,5.5C 27.2638,4.75415 25.9305,4.42082 24.5,4.5 Z"/></g>
<g><path style="opacity:1" fill="#88306a" d="M 55.5,6.5 C 56.2931,8.91796 57.6264,10.918 59.5,12.5C 58.6396,14.2879 57.6396,15.9545 56.5,17.5C 56.4476,13.8019 56.1143,10.1352 55.5,6.5 Z"/></g>
<g><path style="opacity:1" fill="#d81aa5" d="M 30.5,12.5 C 30.5,12.8333 30.5,13.1667 30.5,13.5C 30.5,14.1667 30.5,14.8333 30.5,15.5C 29.5326,14.1938 28.1993,13.5271 26.5,13.5C 26.8016,16.0593 26.4682,18.3926 25.5,20.5C 25.81,17.2869 25.4767,14.2869 24.5,11.5C 23.5244,10.1851 22.5244,8.85181 21.5,7.5C 22,7.16667 22.5,6.83333 23,6.5C 26.2313,7.68515 28.7313,9.68515 30.5,12.5 Z"/></g>
<g><path style="opacity:1" fill="#45227b" d="M 70.5,11.5 C 70.5,12.1667 70.5,12.8333 70.5,13.5C 67.5701,12.701 64.5701,12.3677 61.5,12.5C 64.0729,10.1565 67.0729,9.82316 70.5,11.5 Z"/></g>
<g><path style="opacity:1" fill="#fc00c6" d="M 30.5,15.5 C 33.9678,19.1924 34.3011,23.1924 31.5,27.5C 30.8333,27.5 30.5,27.8333 30.5,28.5C 29.8826,28.6107 29.3826,28.944 29,29.5C 28.8138,32.0356 28.3138,34.369 27.5,36.5C 25.8267,35.657 24.66,34.3237 24,32.5C 23.6987,29.4929 23.8654,26.4929 24.5,23.5C 25.404,22.791 25.7373,21.791 25.5,20.5C 26.4682,18.3926 26.8016,16.0593 26.5,13.5C 28.1993,13.5271 29.5326,14.1938 30.5,15.5 Z"/></g>
<g><path style="opacity:1" fill="#17214e" d="M 59.5,12.5 C 60.1667,12.5 60.8333,12.5 61.5,12.5C 64.5701,12.3677 67.5701,12.701 70.5,13.5C 71.5,13.8333 72.1667,14.5 72.5,15.5C 68.8414,14.3166 65.1747,14.3166 61.5,15.5C 63.6309,16.1687 65.6309,16.8354 67.5,17.5C 68.8333,18.5 68.8333,19.5 67.5,20.5C 62.6069,19.738 58.2736,20.738 54.5,23.5C 55.6298,21.6854 56.2964,19.6854 56.5,17.5C 57.6396,15.9545 58.6396,14.2879 59.5,12.5 Z"/></g>
<g><path style="opacity:1" fill="#a50069" d="M 46.5,15.5 C 43.8749,18.8152 40.5416,21.1486 36.5,22.5C 35.8333,22.5 35.5,22.1667 35.5,21.5C 36.6857,20.2946 36.6857,18.9613 35.5,17.5C 38.2853,17.067 40.6187,15.7337 42.5,13.5C 43.6223,14.6302 44.9557,15.2969 46.5,15.5 Z"/></g>
<g><path style="opacity:1" fill="#ab4195" d="M 18.5,17.5 C 16.5328,17.7394 14.6995,17.4061 13,16.5C 12.5357,17.0944 12.369,17.7611 12.5,18.5C 10.6954,17.7629 9.02875,16.7629 7.5,15.5C 11.4249,14.7311 15.0916,15.3977 18.5,17.5 Z"/></g>
<g><path style="opacity:1" fill="#fb00c2" d="M 41.5,32.5 C 41.7931,29.2457 41.1264,26.2457 39.5,23.5C 42.5389,21.5438 45.3722,19.2105 48,16.5C 49.0086,14.9751 49.5086,13.3084 49.5,11.5C 50.3446,10.3285 51.0113,8.99522 51.5,7.5C 52.2679,6.73747 52.7679,5.73747 53,4.5C 55.4474,11.7022 54.4474,18.3689 50,24.5C 47.2972,27.3714 44.4639,30.0381 41.5,32.5 Z"/></g>
<g><path style="opacity:1" fill="#241b47" d="M 24.5,11.5 C 25.4767,14.2869 25.81,17.2869 25.5,20.5C 23.8784,19.8776 22.5451,18.8776 21.5,17.5C 23.6138,16.216 24.6138,14.216 24.5,11.5 Z"/></g>
<g><path style="opacity:1" fill="#591150" d="M 31.5,10.5 C 33.0709,12.6351 34.4043,14.9684 35.5,17.5C 36.6857,18.9613 36.6857,20.2946 35.5,21.5C 34.3307,18.4887 32.664,15.822 30.5,13.5C 30.5,13.1667 30.5,12.8333 30.5,12.5C 31.3382,12.1583 31.6716,11.4916 31.5,10.5 Z"/></g>
<g><path style="opacity:1" fill="#015679" d="M 67.5,17.5 C 66.4855,18.7647 64.9855,19.4313 63,19.5C 61.5,19.1667 60,18.8333 58.5,18.5C 61.4281,17.5159 64.4281,17.1826 67.5,17.5 Z"/></g>
<g><path style="opacity:1" fill="#150d47" d="M 72.5,15.5 C 78.1871,16.8671 80.8537,20.5338 80.5,26.5C 79.8333,26.5 79.5,26.8333 79.5,27.5C 77.2729,26.5994 76.2729,24.9328 76.5,22.5C 73.2727,22.3239 70.2727,21.6572 67.5,20.5C 68.8333,19.5 68.8333,18.5 67.5,17.5C 65.6309,16.8354 63.6309,16.1687 61.5,15.5C 65.1747,14.3166 68.8414,14.3166 72.5,15.5 Z"/></g>
<g><path style="opacity:1" fill="#e20189" d="M 18.5,17.5 C 21.8968,18.9669 22.2301,20.9669 19.5,23.5C 20.1882,24.8549 21.1882,25.8549 22.5,26.5C 22.7373,27.791 22.404,28.791 21.5,29.5C 20.8333,29.5 20.1667,29.5 19.5,29.5C 19.2182,25.5649 17.8849,22.0649 15.5,19C 14.5632,18.3083 13.8966,18.475 13.5,19.5C 12.8333,19.5 12.5,19.1667 12.5,18.5C 12.369,17.7611 12.5357,17.0944 13,16.5C 14.6995,17.4061 16.5328,17.7394 18.5,17.5 Z"/></g>
<g><path style="opacity:1" fill="#ab0b77" d="M 18.5,17.5 C 19.5,17.5 20.5,17.5 21.5,17.5C 22.5451,18.8776 23.8784,19.8776 25.5,20.5C 25.7373,21.791 25.404,22.791 24.5,23.5C 23.6679,23.754 23.0013,24.754 22.5,26.5C 21.1882,25.8549 20.1882,24.8549 19.5,23.5C 22.2301,20.9669 21.8968,18.9669 18.5,17.5 Z"/></g>
<g><path style="opacity:1" fill="#e10081" d="M 30.5,13.5 C 32.664,15.822 34.3307,18.4887 35.5,21.5C 35.5,22.1667 35.8333,22.5 36.5,22.5C 35.1667,24.5 33.5,26.1667 31.5,27.5C 34.3011,23.1924 33.9678,19.1924 30.5,15.5C 30.5,14.8333 30.5,14.1667 30.5,13.5 Z"/></g>
<g><path style="opacity:1" fill="#e60cb8" d="M 19.5,29.5 C 17.9731,29.573 16.9731,28.9063 16.5,27.5C 15.8916,24.6733 14.8916,22.0067 13.5,19.5C 13.8966,18.475 14.5632,18.3083 15.5,19C 17.8849,22.0649 19.2182,25.5649 19.5,29.5 Z"/></g>
<g><path style="opacity:1" fill="#fc0dcd" d="M 39.5,23.5 C 41.1264,26.2457 41.7931,29.2457 41.5,32.5C 40.0106,34.8051 38.5106,37.1384 37,39.5C 36.2204,41.3869 36.3871,43.0536 37.5,44.5C 37.5,44.8333 37.5,45.1667 37.5,45.5C 37.631,46.2389 37.4643,46.9056 37,47.5C 35.6288,45.9586 34.1288,44.6253 32.5,43.5C 30.9418,37.5127 31.7751,31.846 35,26.5C 36.129,24.8588 37.629,23.8588 39.5,23.5 Z"/></g>
<g><path style="opacity:1" fill="#291664" d="M 67.5,20.5 C 70.2727,21.6572 73.2727,22.3239 76.5,22.5C 76.2729,24.9328 77.2729,26.5994 79.5,27.5C 79.7706,29.4305 80.7706,30.7638 82.5,31.5C 81.776,33.2184 81.1094,35.0517 80.5,37C 78.9387,37.1881 78.272,36.3547 78.5,34.5C 78.7709,32.6203 78.1042,31.287 76.5,30.5C 76.3304,27.796 74.9971,26.1293 72.5,25.5C 72.5,24.8333 72.1667,24.5 71.5,24.5C 65.7719,22.98 60.1053,23.3133 54.5,25.5C 54.5,24.8333 54.5,24.1667 54.5,23.5C 58.2736,20.738 62.6069,19.738 67.5,20.5 Z"/></g>
<g><path style="opacity:1" fill="#640e5a" d="M 24.5,23.5 C 23.8654,26.4929 23.6987,29.4929 24,32.5C 24.66,34.3237 25.8267,35.657 27.5,36.5C 28.5063,37.3957 28.5063,38.0623 27.5,38.5C 25.8333,37.1667 24.1667,35.8333 22.5,34.5C 22.634,32.7085 22.3007,31.0418 21.5,29.5C 22.404,28.791 22.7373,27.791 22.5,26.5C 23.0013,24.754 23.6679,23.754 24.5,23.5 Z"/></g>
<g><path style="opacity:1" fill="#111340" d="M 71.5,24.5 C 65.5128,23.4399 60.6794,25.1065 57,29.5C 57.896,35.3246 58.396,41.3246 58.5,47.5C 58.4984,51.0175 58.1651,54.3509 57.5,57.5C 57.5,55.1667 57.5,52.8333 57.5,50.5C 57.2447,43.2848 56.2447,36.2848 54.5,29.5C 53.6457,27.965 53.6457,26.6316 54.5,25.5C 60.1053,23.3133 65.7719,22.98 71.5,24.5 Z"/></g>
<g><path style="opacity:1" fill="#06d6b9" d="M 72.5,25.5 C 74.9971,26.1293 76.3304,27.796 76.5,30.5C 75.0821,32.3079 73.0821,32.9746 70.5,32.5C 68.5,32.5 66.5,32.5 64.5,32.5C 64.7564,30.2075 64.4231,28.0408 63.5,26C 66.4816,25.502 69.4816,25.3354 72.5,25.5 Z"/></g>
<g><path style="opacity:0.973" fill="#8079a0" d="M 13.5,27.5 C 10.3157,29.4136 6.64903,30.0803 2.5,29.5C 6.06056,28.7698 9.72723,28.1031 13.5,27.5 Z"/></g>
<g><path style="opacity:1" fill="#4c1e52" d="M 54.5,23.5 C 54.5,24.1667 54.5,24.8333 54.5,25.5C 53.6457,26.6316 53.6457,27.965 54.5,29.5C 53.8333,30.8333 53.1667,32.1667 52.5,33.5C 52.8531,27.1886 51.8531,26.8552 49.5,32.5C 49.2144,30.0673 48.5477,30.0673 47.5,32.5C 46.8333,32.5 46.1667,32.5 45.5,32.5C 48.1667,29.1667 51.1667,26.1667 54.5,23.5 Z"/></g>
<g><path style="opacity:1" fill="#971477" d="M 13.5,27.5 C 14.5,27.5 15.5,27.5 16.5,27.5C 16.9731,28.9063 17.9731,29.573 19.5,29.5C 20.1667,29.5 20.8333,29.5 21.5,29.5C 22.3007,31.0418 22.634,32.7085 22.5,34.5C 19.0584,31.6362 15.0584,30.3029 10.5,30.5C 8.26465,30.2053 6.26465,30.5386 4.5,31.5C 3.32496,31.719 2.32496,31.3857 1.5,30.5C 1.62358,29.8933 1.95691,29.56 2.5,29.5C 6.64903,30.0803 10.3157,29.4136 13.5,27.5 Z"/></g>
<g><path style="opacity:1" fill="#7c138a" d="M 80.5,26.5 C 85.7362,25.8926 89.4029,27.8926 91.5,32.5C 91.6309,33.3764 91.2975,34.0431 90.5,34.5C 88.8333,33.1667 87.1667,31.8333 85.5,30.5C 85.1667,31.1667 84.8333,31.8333 84.5,32.5C 83.8165,32.1373 83.1499,31.8039 82.5,31.5C 80.7706,30.7638 79.7706,29.4305 79.5,27.5C 79.5,26.8333 79.8333,26.5 80.5,26.5 Z"/></g>
<g><path style="opacity:1" fill="#bd383e" d="M 49.5,32.5 C 49.7373,33.791 49.404,34.791 48.5,35.5C 48.7373,34.209 48.404,33.209 47.5,32.5C 48.5477,30.0673 49.2144,30.0673 49.5,32.5 Z"/></g>
<g><path style="opacity:1" fill="#ca0782" d="M 55.5,6.5 C 56.1143,10.1352 56.4476,13.8019 56.5,17.5C 56.2964,19.6854 55.6298,21.6854 54.5,23.5C 51.1667,26.1667 48.1667,29.1667 45.5,32.5C 41.3359,35.4929 38.6692,39.4929 37.5,44.5C 36.3871,43.0536 36.2204,41.3869 37,39.5C 38.5106,37.1384 40.0106,34.8051 41.5,32.5C 44.4639,30.0381 47.2972,27.3714 50,24.5C 54.4474,18.3689 55.4474,11.7022 53,4.5C 52.7679,5.73747 52.2679,6.73747 51.5,7.5C 51.6168,5.5165 50.9501,3.84983 49.5,2.5C 52.6911,1.64801 54.6911,2.98134 55.5,6.5 Z"/></g>
<g><path style="opacity:1" fill="#35182d" d="M 52.5,33.5 C 52.5,34.5 52.5,35.5 52.5,36.5C 49.7531,36.8134 47.0865,36.48 44.5,35.5C 44.6236,34.8933 44.9569,34.56 45.5,34.5C 46.209,35.404 47.209,35.7373 48.5,35.5C 49.404,34.791 49.7373,33.791 49.5,32.5C 51.8531,26.8552 52.8531,27.1886 52.5,33.5 Z"/></g>
<g><path style="opacity:1" fill="#07b0a9" d="M 76.5,30.5 C 78.1042,31.287 78.7709,32.6203 78.5,34.5C 76.744,36.249 75.4106,38.249 74.5,40.5C 73.8166,38.8235 72.4832,38.1568 70.5,38.5C 70.5,36.5 70.5,34.5 70.5,32.5C 73.0821,32.9746 75.0821,32.3079 76.5,30.5 Z"/></g>
<g><path style="opacity:1" fill="#e1faf8" d="M 64.5,32.5 C 66.5,32.5 68.5,32.5 70.5,32.5C 70.5,34.5 70.5,36.5 70.5,38.5C 69.1667,38.5 67.8333,38.5 66.5,38.5C 67.8062,37.5326 68.4729,36.1993 68.5,34.5C 66.5168,34.8432 65.1834,34.1765 64.5,32.5 Z"/></g>
<g><path style="opacity:1" fill="#4d0747" d="M 91.5,32.5 C 94.3183,34.9794 96.3183,37.9794 97.5,41.5C 95.518,39.3533 93.3513,37.3533 91,35.5C 88.0312,35.9707 86.1979,37.6373 85.5,40.5C 84.8333,42.5 84.1667,44.5 83.5,46.5C 82.8713,43.8711 81.2046,42.2044 78.5,41.5C 82.0898,39.1825 83.4231,35.8492 82.5,31.5C 83.1499,31.8039 83.8165,32.1373 84.5,32.5C 84.8333,31.8333 85.1667,31.1667 85.5,30.5C 87.1667,31.8333 88.8333,33.1667 90.5,34.5C 91.2975,34.0431 91.6309,33.3764 91.5,32.5 Z"/></g>
<g><path style="opacity:1" fill="#e79723" d="M 45.5,32.5 C 46.1667,32.5 46.8333,32.5 47.5,32.5C 48.404,33.209 48.7373,34.209 48.5,35.5C 47.209,35.7373 46.209,35.404 45.5,34.5C 45.5,33.8333 45.5,33.1667 45.5,32.5 Z"/></g>
<g><path style="opacity:1" fill="#ab0069" d="M 30.5,28.5 C 30.7633,32.6002 30.4299,36.6002 29.5,40.5C 28.5,40.1667 27.8333,39.5 27.5,38.5C 28.5063,38.0623 28.5063,37.3957 27.5,36.5C 28.3138,34.369 28.8138,32.0356 29,29.5C 29.3826,28.944 29.8826,28.6107 30.5,28.5 Z"/></g>
<g><path style="opacity:1" fill="#700f53" d="M 45.5,11.5 C 46.8333,11.5 48.1667,11.5 49.5,11.5C 49.5086,13.3084 49.0086,14.9751 48,16.5C 45.3722,19.2105 42.5389,21.5438 39.5,23.5C 37.629,23.8588 36.129,24.8588 35,26.5C 31.7751,31.846 30.9418,37.5127 32.5,43.5C 31.1667,42.8333 30.1667,41.8333 29.5,40.5C 30.4299,36.6002 30.7633,32.6002 30.5,28.5C 30.5,27.8333 30.8333,27.5 31.5,27.5C 33.5,26.1667 35.1667,24.5 36.5,22.5C 40.5416,21.1486 43.8749,18.8152 46.5,15.5C 46.9382,15.5654 47.2716,15.3988 47.5,15C 46.1772,14.1841 45.5106,13.0174 45.5,11.5 Z"/></g>
<g><path style="opacity:1" fill="#dd008a" d="M 10.5,30.5 C 15.0584,30.3029 19.0584,31.6362 22.5,34.5C 24.1667,35.8333 25.8333,37.1667 27.5,38.5C 27.8333,39.5 28.5,40.1667 29.5,40.5C 30.1667,41.8333 31.1667,42.8333 32.5,43.5C 32.7329,45.0618 33.3995,46.3951 34.5,47.5C 31.371,48.2079 28.5376,47.2079 26,44.5C 25.6012,44.7284 25.4346,45.0618 25.5,45.5C 22.4292,39.0939 17.4292,34.0939 10.5,30.5 Z"/></g>
<g><path style="opacity:1" fill="#009996" d="M 66.5,38.5 C 67.4124,39.7382 67.5791,41.0715 67,42.5C 65.6288,40.9586 64.1288,39.6253 62.5,38.5C 59.6944,35.3527 59.8611,32.3527 63,29.5C 61.3258,33.6427 62.4925,36.6427 66.5,38.5 Z"/></g>
<g><path style="opacity:1" fill="#fd02c6" d="M 10.5,30.5 C 17.4292,34.0939 22.4292,39.0939 25.5,45.5C 27.153,47.9608 29.153,50.1275 31.5,52C 30.7476,52.6708 30.4142,53.5041 30.5,54.5C 22.973,53.3082 18.3064,48.9749 16.5,41.5C 14.1748,40.4823 12.1748,39.149 10.5,37.5C 10.1667,37.5 9.83333,37.5 9.5,37.5C 8.97439,35.7697 7.97439,34.4363 6.5,33.5C 5.5,33.1667 4.83333,32.5 4.5,31.5C 6.26465,30.5386 8.26465,30.2053 10.5,30.5 Z"/></g>
<g><path style="opacity:1" fill="#88739c" d="M 8.5,41.5 C 6.58533,41.2155 4.91866,41.5489 3.5,42.5C 2.95691,42.44 2.62358,42.1067 2.5,41.5C 4.63648,40.2072 6.63648,40.2072 8.5,41.5 Z"/></g>
<g><path style="opacity:1" fill="#07c8c0" d="M 71.5,24.5 C 72.1667,24.5 72.5,24.8333 72.5,25.5C 69.4816,25.3354 66.4816,25.502 63.5,26C 64.4231,28.0408 64.7564,30.2075 64.5,32.5C 65.1834,34.1765 66.5168,34.8432 68.5,34.5C 68.4729,36.1993 67.8062,37.5326 66.5,38.5C 62.4925,36.6427 61.3258,33.6427 63,29.5C 59.8611,32.3527 59.6944,35.3527 62.5,38.5C 61.1059,42.7946 60.4393,47.2946 60.5,52C 60.5029,54.6903 60.8362,57.1903 61.5,59.5C 60.1267,62.3834 60.7934,64.7167 63.5,66.5C 63.4431,67.609 63.1098,68.609 62.5,69.5C 56.698,67.2784 55.0313,63.2784 57.5,57.5C 58.1651,54.3509 58.4984,51.0175 58.5,47.5C 58.396,41.3246 57.896,35.3246 57,29.5C 60.6794,25.1065 65.5128,23.4399 71.5,24.5 Z"/></g>
<g><path style="opacity:0.392" fill="#bde1e8" d="M 6.5,33.5 C 7.97439,34.4363 8.97439,35.7697 9.5,37.5C 10.3543,39.035 10.3543,40.3684 9.5,41.5C 9.16667,41.5 8.83333,41.5 8.5,41.5C 6.63648,40.2072 4.63648,40.2072 2.5,41.5C 2.62358,42.1067 2.95691,42.44 3.5,42.5C 8.48624,45.8206 12.8196,49.8206 16.5,54.5C 15.1667,55.1667 13.8333,55.8333 12.5,56.5C 10.2646,56.2053 8.26465,56.5386 6.5,57.5C 4.90097,57.2322 3.56764,57.5655 2.5,58.5C 1.52216,58.811 0.855491,59.4777 0.5,60.5C 4.10728,61.4892 7.77395,61.8226 11.5,61.5C 11.5,61.8333 11.5,62.1667 11.5,62.5C 7.5,62.5 3.5,62.5 -0.5,62.5C -0.5,61.1667 -0.5,59.8333 -0.5,58.5C 3.62347,55.515 8.29013,54.015 13.5,54C 9.29187,49.6237 4.95853,45.457 0.5,41.5C 0.709312,40.914 1.04265,40.414 1.5,40C 3.83333,39.6667 6.16667,39.3333 8.5,39C 7.69499,37.8873 7.02832,36.7206 6.5,35.5C 6.5,34.8333 6.5,34.1667 6.5,33.5 Z"/></g>
<g><path style="opacity:1" fill="#3c1281" d="M 54.5,29.5 C 56.2447,36.2848 57.2447,43.2848 57.5,50.5C 56.8333,47.8333 56.1667,45.1667 55.5,42.5C 54.4706,40.4832 53.4706,38.4832 52.5,36.5C 52.5,35.5 52.5,34.5 52.5,33.5C 53.1667,32.1667 53.8333,30.8333 54.5,29.5 Z"/></g>
<g><path style="opacity:1" fill="#03d5c6" d="M 62.5,38.5 C 64.1288,39.6253 65.6288,40.9586 67,42.5C 67.5791,41.0715 67.4124,39.7382 66.5,38.5C 67.8333,38.5 69.1667,38.5 70.5,38.5C 72.4832,38.1568 73.8166,38.8235 74.5,40.5C 73.6851,41.8366 72.5185,42.8366 71,43.5C 70.5026,46.146 70.3359,48.8127 70.5,51.5C 69.2905,51.9321 68.2905,52.5987 67.5,53.5C 65.215,55.1182 63.215,57.1182 61.5,59.5C 60.8362,57.1903 60.5029,54.6903 60.5,52C 60.4393,47.2946 61.1059,42.7946 62.5,38.5 Z"/></g>
<g><path style="opacity:1" fill="#f709cb" d="M 10.5,37.5 C 12.1748,39.149 14.1748,40.4823 16.5,41.5C 18.3064,48.9749 22.973,53.3082 30.5,54.5C 32.9653,54.233 35.2986,53.5664 37.5,52.5C 37.5,53.1667 37.5,53.8333 37.5,54.5C 37.1667,54.5 36.8333,54.5 36.5,54.5C 32.9359,55.4227 29.2693,55.756 25.5,55.5C 22.151,54.741 19.3176,53.0744 17,50.5C 14.2928,46.4189 12.1261,42.0856 10.5,37.5 Z"/></g>
<g><path style="opacity:1" fill="#23154a" d="M 45.5,32.5 C 45.5,33.1667 45.5,33.8333 45.5,34.5C 44.9569,34.56 44.6236,34.8933 44.5,35.5C 47.0865,36.48 49.7531,36.8134 52.5,36.5C 53.4706,38.4832 54.4706,40.4832 55.5,42.5C 55.6657,46.8461 55.499,51.1794 55,55.5C 52.7492,58.0172 51.9159,61.0172 52.5,64.5C 51.6909,62.7078 51.1909,60.7078 51,58.5C 49.4309,59.1222 47.7642,59.4555 46,59.5C 44.0145,59.4313 42.5145,58.7647 41.5,57.5C 41.8333,57.5 42.1667,57.5 42.5,57.5C 45.4475,57.7771 48.2809,57.4438 51,56.5C 51.8184,50.6513 51.6517,44.9846 50.5,39.5C 47.6447,38.1968 44.6447,38.1968 41.5,39.5C 40.5456,45.1045 40.2123,50.7711 40.5,56.5C 39.6618,56.8417 39.3284,57.5084 39.5,58.5C 38.8999,57.0998 37.8999,56.0998 36.5,55.5C 36.5,55.1667 36.5,54.8333 36.5,54.5C 36.8333,54.5 37.1667,54.5 37.5,54.5C 38.8333,51.5 38.8333,48.5 37.5,45.5C 37.5,45.1667 37.5,44.8333 37.5,44.5C 38.6692,39.4929 41.3359,35.4929 45.5,32.5 Z"/></g>
<g><path style="opacity:1" fill="#5775b5" d="M 50.5,39.5 C 47.909,40.2543 46.0757,41.921 45,44.5C 43.1003,48.6322 42.267,52.9655 42.5,57.5C 42.1667,57.5 41.8333,57.5 41.5,57.5C 40.8333,57.5 40.5,57.1667 40.5,56.5C 40.2123,50.7711 40.5456,45.1045 41.5,39.5C 44.6447,38.1968 47.6447,38.1968 50.5,39.5 Z"/></g>
<g><path style="opacity:1" fill="#22184a" d="M 82.5,31.5 C 83.4231,35.8492 82.0898,39.1825 78.5,41.5C 81.2046,42.2044 82.8713,43.8711 83.5,46.5C 81.965,47.3543 80.6316,47.3543 79.5,46.5C 79.5,45.5 79.5,44.5 79.5,43.5C 76.6333,43.3692 74.9666,44.7026 74.5,47.5C 74.5,48.5 74.5,49.5 74.5,50.5C 73.209,50.2627 72.209,50.596 71.5,51.5C 71.1667,51.5 70.8333,51.5 70.5,51.5C 70.3359,48.8127 70.5026,46.146 71,43.5C 72.5185,42.8366 73.6851,41.8366 74.5,40.5C 75.4106,38.249 76.744,36.249 78.5,34.5C 78.272,36.3547 78.9387,37.1881 80.5,37C 81.1094,35.0517 81.776,33.2184 82.5,31.5 Z"/></g>
<g><path style="opacity:0.275" fill="#ced0db" d="M 70.5,11.5 C 76.4938,13.6581 80.1604,17.8248 81.5,24C 86.3881,24.342 90.2215,26.5087 93,30.5C 95.5034,34.123 97.6701,37.7897 99.5,41.5C 99.5,45.5 99.5,49.5 99.5,53.5C 98.1633,57.4985 95.8299,60.8318 92.5,63.5C 92.5,63.1667 92.5,62.8333 92.5,62.5C 93.1667,61.1667 93.8333,59.8333 94.5,58.5C 98.4716,53.4932 99.4716,47.8266 97.5,41.5C 96.3183,37.9794 94.3183,34.9794 91.5,32.5C 89.4029,27.8926 85.7362,25.8926 80.5,26.5C 80.8537,20.5338 78.1871,16.8671 72.5,15.5C 72.1667,14.5 71.5,13.8333 70.5,13.5C 70.5,12.8333 70.5,12.1667 70.5,11.5 Z"/></g>
<g><path style="opacity:1" fill="#900754" d="M 79.5,46.5 C 77.7085,46.366 76.0418,46.6993 74.5,47.5C 74.9666,44.7026 76.6333,43.3692 79.5,43.5C 79.5,44.5 79.5,45.5 79.5,46.5 Z"/></g>
<g><path style="opacity:1" fill="#fa5a5a" d="M 92.5,56.5 C 89.9549,59.0748 87.2882,59.0748 84.5,56.5C 83.5269,54.0521 83.1936,51.3854 83.5,48.5C 83.5,47.8333 83.5,47.1667 83.5,46.5C 84.1667,44.5 84.8333,42.5 85.5,40.5C 88.7966,38.6141 91.2966,39.2808 93,42.5C 95.0537,47.2727 94.8871,51.9393 92.5,56.5 Z"/></g>
<g><path style="opacity:1" fill="#b50079" d="M 34.5,47.5 C 36.2785,48.6697 37.2785,50.3364 37.5,52.5C 35.2986,53.5664 32.9653,54.233 30.5,54.5C 30.4142,53.5041 30.7476,52.6708 31.5,52C 29.153,50.1275 27.153,47.9608 25.5,45.5C 25.4346,45.0618 25.6012,44.7284 26,44.5C 28.5376,47.2079 31.371,48.2079 34.5,47.5 Z"/></g>
<g><path style="opacity:1" fill="#c5495c" d="M 79.5,46.5 C 80.6316,47.3543 81.965,47.3543 83.5,46.5C 83.5,47.1667 83.5,47.8333 83.5,48.5C 82.1667,48.5 80.8333,48.5 79.5,48.5C 79.5,49.8333 79.5,51.1667 79.5,52.5C 78.5,52.5 77.5,52.5 76.5,52.5C 76.1667,51.5 75.5,50.8333 74.5,50.5C 74.5,49.5 74.5,48.5 74.5,47.5C 76.0418,46.6993 77.7085,46.366 79.5,46.5 Z"/></g>
<g><path style="opacity:1" fill="#da2955" d="M 97.5,41.5 C 99.4716,47.8266 98.4716,53.4932 94.5,58.5C 93.8333,57.8333 93.1667,57.1667 92.5,56.5C 94.8871,51.9393 95.0537,47.2727 93,42.5C 91.2966,39.2808 88.7966,38.6141 85.5,40.5C 86.1979,37.6373 88.0312,35.9707 91,35.5C 93.3513,37.3533 95.518,39.3533 97.5,41.5 Z"/></g>
<g><path style="opacity:1" fill="#670966" d="M 32.5,43.5 C 34.1288,44.6253 35.6288,45.9586 37,47.5C 37.4643,46.9056 37.631,46.2389 37.5,45.5C 38.8333,48.5 38.8333,51.5 37.5,54.5C 37.5,53.8333 37.5,53.1667 37.5,52.5C 37.2785,50.3364 36.2785,48.6697 34.5,47.5C 33.3995,46.3951 32.7329,45.0618 32.5,43.5 Z"/></g>
<g><path style="opacity:1" fill="#bcc9dc" d="M 50.5,39.5 C 51.6517,44.9846 51.8184,50.6513 51,56.5C 48.2809,57.4438 45.4475,57.7771 42.5,57.5C 42.267,52.9655 43.1003,48.6322 45,44.5C 46.0757,41.921 47.909,40.2543 50.5,39.5 Z"/></g>
<g><path style="opacity:1" fill="#601059" d="M 9.5,37.5 C 9.83333,37.5 10.1667,37.5 10.5,37.5C 12.1261,42.0856 14.2928,46.4189 17,50.5C 19.3176,53.0744 22.151,54.741 25.5,55.5C 25.5,55.8333 25.5,56.1667 25.5,56.5C 23.4357,56.313 21.4357,55.813 19.5,55C 15.5478,50.9157 12.2144,46.4157 9.5,41.5C 10.3543,40.3684 10.3543,39.035 9.5,37.5 Z"/></g>
<g><path style="opacity:1" fill="#702657" d="M 16.5,54.5 C 17.2891,54.7828 17.9558,55.2828 18.5,56C 16.5273,56.4955 14.5273,56.6621 12.5,56.5C 13.8333,55.8333 15.1667,55.1667 16.5,54.5 Z"/></g>
<g><path style="opacity:1" fill="#dc16a3" d="M 3.5,42.5 C 4.91866,41.5489 6.58533,41.2155 8.5,41.5C 8.83333,41.5 9.16667,41.5 9.5,41.5C 12.2144,46.4157 15.5478,50.9157 19.5,55C 21.4357,55.813 23.4357,56.313 25.5,56.5C 26.968,57.7791 27.6347,59.4458 27.5,61.5C 26.5,61.5 25.5,61.5 24.5,61.5C 18.8376,59.2725 12.8376,57.9392 6.5,57.5C 8.26465,56.5386 10.2646,56.2053 12.5,56.5C 14.5273,56.6621 16.5273,56.4955 18.5,56C 17.9558,55.2828 17.2891,54.7828 16.5,54.5C 12.8196,49.8206 8.48624,45.8206 3.5,42.5 Z"/></g>
<g><path style="opacity:1" fill="#f60cc8" d="M 36.5,55.5 C 37.8999,56.0998 38.8999,57.0998 39.5,58.5C 40.3382,58.8417 40.6716,59.5084 40.5,60.5C 38.1919,63.8153 35.8586,67.1486 33.5,70.5C 31.7867,72.8504 29.4534,73.8504 26.5,73.5C 24.5168,73.8432 23.1834,73.1765 22.5,71.5C 23.075,69.5887 24.075,67.922 25.5,66.5C 27.9278,64.3859 29.5944,61.7192 30.5,58.5C 32.8839,57.9892 34.8839,56.9892 36.5,55.5 Z"/></g>
<g><path style="opacity:1" fill="#901b77" d="M 36.5,54.5 C 36.5,54.8333 36.5,55.1667 36.5,55.5C 34.8839,56.9892 32.8839,57.9892 30.5,58.5C 29.5944,61.7192 27.9278,64.3859 25.5,66.5C 23.2181,67.3897 20.8848,67.5564 18.5,67C 19.5,66.1667 20.5,65.3333 21.5,64.5C 18.0609,64.0935 15.0609,63.0935 12.5,61.5C 16.6675,62.4048 20.6675,62.4048 24.5,61.5C 25.5,61.5 26.5,61.5 27.5,61.5C 27.6347,59.4458 26.968,57.7791 25.5,56.5C 25.5,56.1667 25.5,55.8333 25.5,55.5C 29.2693,55.756 32.9359,55.4227 36.5,54.5 Z"/></g>
<g><path style="opacity:1" fill="#260f36" d="M 83.5,48.5 C 83.1936,51.3854 83.5269,54.0521 84.5,56.5C 85.5426,58.9779 84.876,61.1445 82.5,63C 84.6382,62.4411 86.6382,62.6078 88.5,63.5C 87.1283,64.5116 85.795,65.5116 84.5,66.5C 83.325,66.281 82.325,66.6143 81.5,67.5C 82.6888,68.4287 84.0222,68.762 85.5,68.5C 83.6264,69.2852 81.6264,69.9518 79.5,70.5C 78.6618,70.1583 78.3284,69.4916 78.5,68.5C 80.9143,64.2311 82.2476,59.5644 82.5,54.5C 80.2529,55.0653 78.2529,54.3987 76.5,52.5C 77.5,52.5 78.5,52.5 79.5,52.5C 79.5,51.1667 79.5,49.8333 79.5,48.5C 80.8333,48.5 82.1667,48.5 83.5,48.5 Z"/></g>
<g><path style="opacity:1" fill="#611857" d="M 84.5,56.5 C 87.2882,59.0748 89.9549,59.0748 92.5,56.5C 93.1667,57.1667 93.8333,57.8333 94.5,58.5C 93.8333,59.8333 93.1667,61.1667 92.5,62.5C 91.1667,62.8333 89.8333,63.1667 88.5,63.5C 86.6382,62.6078 84.6382,62.4411 82.5,63C 84.876,61.1445 85.5426,58.9779 84.5,56.5 Z"/></g>
<g><path style="opacity:1" fill="#856095" d="M 2.5,58.5 C 5.5479,60.1187 8.88123,61.1187 12.5,61.5C 12.1667,61.5 11.8333,61.5 11.5,61.5C 7.77395,61.8226 4.10728,61.4892 0.5,60.5C 0.855491,59.4777 1.52216,58.811 2.5,58.5 Z"/></g>
<g><path style="opacity:1" fill="#e718ca" d="M 6.5,57.5 C 12.8376,57.9392 18.8376,59.2725 24.5,61.5C 20.6675,62.4048 16.6675,62.4048 12.5,61.5C 8.88123,61.1187 5.5479,60.1187 2.5,58.5C 3.56764,57.5655 4.90097,57.2322 6.5,57.5 Z"/></g>
<g><path style="opacity:1" fill="#241231" d="M 40.5,56.5 C 40.5,57.1667 40.8333,57.5 41.5,57.5C 42.5145,58.7647 44.0145,59.4313 46,59.5C 47.7642,59.4555 49.4309,59.1222 51,58.5C 51.1909,60.7078 51.6909,62.7078 52.5,64.5C 52.2525,66.8583 52.9192,68.8583 54.5,70.5C 54.5271,72.1993 55.1938,73.5326 56.5,74.5C 54.4727,74.6621 52.4727,74.4955 50.5,74C 49.944,73.6174 49.6107,73.1174 49.5,72.5C 50.9778,72.762 52.3112,72.4287 53.5,71.5C 51.2431,68.511 49.5764,65.1777 48.5,61.5C 48.0431,60.7025 47.3764,60.3691 46.5,60.5C 45.3773,62.688 45.3773,65.0213 46.5,67.5C 45.5,66.8333 44.5,66.1667 43.5,65.5C 43.1667,64.5 42.5,63.8333 41.5,63.5C 41.7373,62.209 41.404,61.209 40.5,60.5C 40.6716,59.5084 40.3382,58.8417 39.5,58.5C 39.3284,57.5084 39.6618,56.8417 40.5,56.5 Z"/></g>
<g><path style="opacity:1" fill="#97607f" d="M 92.5,62.5 C 92.5,62.8333 92.5,63.1667 92.5,63.5C 89.8883,64.7787 87.5549,66.4453 85.5,68.5C 85.1667,67.8333 84.8333,67.1667 84.5,66.5C 85.795,65.5116 87.1283,64.5116 88.5,63.5C 89.8333,63.1667 91.1667,62.8333 92.5,62.5 Z"/></g>
<g><path style="opacity:1" fill="#fb0aca" d="M 39.5,65.5 C 40.4834,69.2984 40.8168,73.2984 40.5,77.5C 39.8333,78.5 39.1667,79.5 38.5,80.5C 37.5,80.5 36.5,80.5 35.5,80.5C 34.4535,74.6427 35.7868,69.6427 39.5,65.5 Z"/></g>
<g><path style="opacity:1" fill="#cca590" d="M 46.5,60.5 C 47.1667,63.8333 47.8333,67.1667 48.5,70.5C 47.8333,69.8333 47.1667,69.1667 46.5,68.5C 46.5,68.1667 46.5,67.8333 46.5,67.5C 45.3773,65.0213 45.3773,62.688 46.5,60.5 Z"/></g>
<g><path style="opacity:1" fill="#de019b" d="M 41.5,63.5 C 42.5,63.8333 43.1667,64.5 43.5,65.5C 43.6576,68.9023 43.3242,72.2356 42.5,75.5C 42.1667,76.5 41.5,77.1667 40.5,77.5C 40.8168,73.2984 40.4834,69.2984 39.5,65.5C 39.8333,64.5 40.5,63.8333 41.5,63.5 Z"/></g>
<g><path style="opacity:1" fill="#c10e63" d="M 84.5,66.5 C 84.8333,67.1667 85.1667,67.8333 85.5,68.5C 84.0222,68.762 82.6888,68.4287 81.5,67.5C 82.325,66.6143 83.325,66.281 84.5,66.5 Z"/></g>
<g><path style="opacity:0.157" fill="#b7d4df" d="M 11.5,61.5 C 11.8333,61.5 12.1667,61.5 12.5,61.5C 15.0609,63.0935 18.0609,64.0935 21.5,64.5C 20.5,65.3333 19.5,66.1667 18.5,67C 20.8848,67.5564 23.2181,67.3897 25.5,66.5C 24.075,67.922 23.075,69.5887 22.5,71.5C 20.3193,71.2837 18.6526,72.117 17.5,74C 20.6965,74.8045 23.6965,74.6378 26.5,73.5C 29.4534,73.8504 31.7867,72.8504 33.5,70.5C 35.0107,74.2522 34.6773,77.9189 32.5,81.5C 33.325,82.3857 34.325,82.719 35.5,82.5C 34.4324,83.4345 33.099,83.7678 31.5,83.5C 30.2035,82.1512 30.3702,80.8179 32,79.5C 32.6667,77.5 32.6667,75.5 32,73.5C 27.2308,76.2652 22.0641,77.0985 16.5,76C 15.9781,75.4387 15.6448,74.772 15.5,74C 16.8582,72.3113 18.5249,70.978 20.5,70C 18.8659,69.5065 17.1992,69.3398 15.5,69.5C 15.2267,67.549 15.8934,66.049 17.5,65C 14.9488,64.9977 12.9488,64.1644 11.5,62.5C 11.5,62.1667 11.5,61.8333 11.5,61.5 Z"/></g>
<g><path style="opacity:1" fill="#e46826" d="M 46.5,60.5 C 47.3764,60.3691 48.0431,60.7025 48.5,61.5C 49.5764,65.1777 51.2431,68.511 53.5,71.5C 52.3112,72.4287 50.9778,72.762 49.5,72.5C 49.6716,71.5084 49.3382,70.8417 48.5,70.5C 47.8333,67.1667 47.1667,63.8333 46.5,60.5 Z"/></g>
<g><path style="opacity:1" fill="#2b1d64" d="M 55.5,42.5 C 56.1667,45.1667 56.8333,47.8333 57.5,50.5C 57.5,52.8333 57.5,55.1667 57.5,57.5C 56.5,57.5 55.5,57.5 54.5,57.5C 53.4753,69.9677 59.1419,74.801 71.5,72C 73.3187,71.2597 74.6521,70.0931 75.5,68.5C 76.2326,66.0367 77.2326,63.7033 78.5,61.5C 76.8807,57.5784 74.5474,54.2451 71.5,51.5C 72.209,50.596 73.209,50.2627 74.5,50.5C 75.5,50.8333 76.1667,51.5 76.5,52.5C 78.2529,54.3987 80.2529,55.0653 82.5,54.5C 82.2476,59.5644 80.9143,64.2311 78.5,68.5C 77.171,70.0586 75.8376,71.7252 74.5,73.5C 69.544,74.4941 64.544,74.8275 59.5,74.5C 58.4154,72.4131 56.7488,71.0798 54.5,70.5C 52.9192,68.8583 52.2525,66.8583 52.5,64.5C 51.9159,61.0172 52.7492,58.0172 55,55.5C 55.499,51.1794 55.6657,46.8461 55.5,42.5 Z"/></g>
<g><path style="opacity:1" fill="#0e193e" d="M 57.5,57.5 C 55.0313,63.2784 56.698,67.2784 62.5,69.5C 62.5,70.1667 62.8333,70.5 63.5,70.5C 65.4008,70.4332 67.2341,70.7665 69,71.5C 71.0346,70.2108 73.2012,69.2108 75.5,68.5C 74.6521,70.0931 73.3187,71.2597 71.5,72C 59.1419,74.801 53.4753,69.9677 54.5,57.5C 55.5,57.5 56.5,57.5 57.5,57.5 Z"/></g>
<g><path style="opacity:1" fill="#01dfb8" d="M 64.5,63.5 C 67.5719,63.1826 70.5719,63.5159 73.5,64.5C 72.1667,65.8333 70.8333,67.1667 69.5,68.5C 67.3691,69.1687 65.3691,69.8354 63.5,70.5C 62.8333,70.5 62.5,70.1667 62.5,69.5C 63.1098,68.609 63.4431,67.609 63.5,66.5C 64.404,65.791 64.7373,64.791 64.5,63.5 Z"/></g>
<g><path style="opacity:1" fill="#edfcfb" d="M 66.5,57.5 C 67.8333,57.5 69.1667,57.5 70.5,57.5C 70.5,59.1667 70.5,60.8333 70.5,62.5C 68.5,62.5 66.5,62.5 64.5,62.5C 65.5676,61.5655 66.901,61.2322 68.5,61.5C 68.4729,59.8007 67.8062,58.4674 66.5,57.5 Z"/></g>
<g><path style="opacity:1" fill="#11a5a4" d="M 67.5,53.5 C 67.5674,54.9587 67.2341,56.2921 66.5,57.5C 67.8062,58.4674 68.4729,59.8007 68.5,61.5C 66.901,61.2322 65.5676,61.5655 64.5,62.5C 64.5,62.8333 64.5,63.1667 64.5,63.5C 64.7373,64.791 64.404,65.791 63.5,66.5C 60.7934,64.7167 60.1267,62.3834 61.5,59.5C 63.215,57.1182 65.215,55.1182 67.5,53.5 Z"/></g>
<g><path style="opacity:1" fill="#27d0bd" d="M 70.5,51.5 C 70.8333,51.5 71.1667,51.5 71.5,51.5C 74.5474,54.2451 76.8807,57.5784 78.5,61.5C 77.2326,63.7033 76.2326,66.0367 75.5,68.5C 73.2012,69.2108 71.0346,70.2108 69,71.5C 67.2341,70.7665 65.4008,70.4332 63.5,70.5C 65.3691,69.8354 67.3691,69.1687 69.5,68.5C 70.8333,67.1667 72.1667,65.8333 73.5,64.5C 70.5719,63.5159 67.5719,63.1826 64.5,63.5C 64.5,63.1667 64.5,62.8333 64.5,62.5C 66.5,62.5 68.5,62.5 70.5,62.5C 70.5,60.8333 70.5,59.1667 70.5,57.5C 69.1667,57.5 67.8333,57.5 66.5,57.5C 67.2341,56.2921 67.5674,54.9587 67.5,53.5C 68.2905,52.5987 69.2905,51.9321 70.5,51.5 Z"/></g>
<g><path style="opacity:1" fill="#8f0e69" d="M 43.5,65.5 C 44.5,66.1667 45.5,66.8333 46.5,67.5C 46.5,67.8333 46.5,68.1667 46.5,68.5C 46.5,70.1667 46.5,71.8333 46.5,73.5C 45.3951,74.6005 44.0618,75.2671 42.5,75.5C 43.3242,72.2356 43.6576,68.9023 43.5,65.5 Z"/></g>
<g><path style="opacity:1" fill="#53567b" d="M 54.5,70.5 C 56.7488,71.0798 58.4154,72.4131 59.5,74.5C 59.5,74.8333 59.5,75.1667 59.5,75.5C 58.391,75.4431 57.391,75.1098 56.5,74.5C 55.1938,73.5326 54.5271,72.1993 54.5,70.5 Z"/></g>
<g><path style="opacity:1" fill="#91238a" d="M 22.5,71.5 C 23.1834,73.1765 24.5168,73.8432 26.5,73.5C 23.6965,74.6378 20.6965,74.8045 17.5,74C 18.6526,72.117 20.3193,71.2837 22.5,71.5 Z"/></g>
<g><path style="opacity:1" fill="#9c1781" d="M 40.5,60.5 C 41.404,61.209 41.7373,62.209 41.5,63.5C 40.5,63.8333 39.8333,64.5 39.5,65.5C 35.7868,69.6427 34.4535,74.6427 35.5,80.5C 36.5,80.5 37.5,80.5 38.5,80.5C 37.5,81.1667 36.5,81.8333 35.5,82.5C 34.325,82.719 33.325,82.3857 32.5,81.5C 34.6773,77.9189 35.0107,74.2522 33.5,70.5C 35.8586,67.1486 38.1919,63.8153 40.5,60.5 Z"/></g>
<g><path style="opacity:1" fill="#1b1247" d="M 78.5,68.5 C 78.3284,69.4916 78.6618,70.1583 79.5,70.5C 80.2954,74.594 78.962,77.7607 75.5,80C 72.3885,81.6033 69.3885,83.4366 66.5,85.5C 64.9291,84.6906 63.2624,84.3573 61.5,84.5C 61.3284,83.5084 61.6618,82.8417 62.5,82.5C 63.3764,82.6309 64.0431,82.2975 64.5,81.5C 61.3814,80.3064 61.0481,78.8064 63.5,77C 61.9419,76.79 60.6085,76.29 59.5,75.5C 59.5,75.1667 59.5,74.8333 59.5,74.5C 64.544,74.8275 69.544,74.4941 74.5,73.5C 75.8376,71.7252 77.171,70.0586 78.5,68.5 Z"/></g>
<g><path style="opacity:0.286" fill="#c0dbe2" d="M 92.5,63.5 C 89.7605,67.7222 85.9272,70.7222 81,72.5C 80.6667,74.1667 80.3333,75.8333 80,77.5C 76.8546,80.6317 73.6879,83.6317 70.5,86.5C 66.8333,86.5 63.1667,86.5 59.5,86.5C 59.4894,84.9826 58.8228,83.8159 57.5,83C 53.4106,80.8733 49.5772,78.3733 46,75.5C 42.8061,79.7095 38.8061,82.7095 34,84.5C 32.9302,84.472 32.0968,84.1386 31.5,83.5C 33.099,83.7678 34.4324,83.4345 35.5,82.5C 36.5,81.8333 37.5,81.1667 38.5,80.5C 39.1667,79.5 39.8333,78.5 40.5,77.5C 41.5,77.1667 42.1667,76.5 42.5,75.5C 44.0618,75.2671 45.3951,74.6005 46.5,73.5C 48.1911,74.8637 49.8577,76.197 51.5,77.5C 54.8333,79.8333 58.1667,82.1667 61.5,84.5C 63.2624,84.3573 64.9291,84.6906 66.5,85.5C 69.3885,83.4366 72.3885,81.6033 75.5,80C 78.962,77.7607 80.2954,74.594 79.5,70.5C 81.6264,69.9518 83.6264,69.2852 85.5,68.5C 87.5549,66.4453 89.8883,64.7787 92.5,63.5 Z"/></g>
<g><path style="opacity:1" fill="#7589a1" d="M 51.5,77.5 C 56.5253,76.389 60.192,78.0557 62.5,82.5C 61.6618,82.8417 61.3284,83.5084 61.5,84.5C 58.1667,82.1667 54.8333,79.8333 51.5,77.5 Z"/></g>
<g><path style="opacity:1" fill="#44266e" d="M 46.5,68.5 C 47.1667,69.1667 47.8333,69.8333 48.5,70.5C 49.3382,70.8417 49.6716,71.5084 49.5,72.5C 49.6107,73.1174 49.944,73.6174 50.5,74C 52.4727,74.4955 54.4727,74.6621 56.5,74.5C 57.391,75.1098 58.391,75.4431 59.5,75.5C 60.6085,76.29 61.9419,76.79 63.5,77C 61.0481,78.8064 61.3814,80.3064 64.5,81.5C 64.0431,82.2975 63.3764,82.6309 62.5,82.5C 60.192,78.0557 56.5253,76.389 51.5,77.5C 49.8577,76.197 48.1911,74.8637 46.5,73.5C 46.5,71.8333 46.5,70.1667 46.5,68.5 Z"/></g>
</svg>
