<?xml version="1.0" encoding="UTF-8"?>
<!DOCTYPE svg PUBLIC "-//W3C//DTD SVG 1.1//EN" "http://www.w3.org/Graphics/SVG/1.1/DTD/svg11.dtd">
<svg xmlns="http://www.w3.org/2000/svg" version="1.1" width="100px" height="93px" style="shape-rendering:geometricPrecision; text-rendering:geometricPrecision; image-rendering:optimizeQuality; fill-rule:evenodd; clip-rule:evenodd" xmlns:xlink="http://www.w3.org/1999/xlink">
<g><path style="opacity:0.161" fill="#b1b1bd" d="M 16.5,-0.5 C 18.1667,-0.5 19.8333,-0.5 21.5,-0.5C 21.0405,2.87741 20.3739,6.21074 19.5,9.5C 21.1992,9.66018 22.8659,9.49351 24.5,9C 24.8749,1.8962 27.7082,0.729538 33,5.5C 33.7203,7.11238 33.5536,8.61238 32.5,10C 37.3104,10.1424 41.977,9.30905 46.5,7.5C 47.7133,7.74716 48.38,8.41383 48.5,9.5C 46.7367,8.04622 45.4033,8.37955 44.5,10.5C 40.2022,11.1995 35.8689,11.5328 31.5,11.5C 32.0289,8.39586 31.0289,6.06252 28.5,4.5C 27.4438,9.47816 24.4438,11.8115 19.5,11.5C 17.0746,8.80328 17.0746,5.80328 19.5,2.5C 18.635,1.41728 17.635,1.25061 16.5,2C 15.6719,3.99227 14.3386,5.49227 12.5,6.5C 13.5686,4.03126 14.9019,1.69793 16.5,-0.5 Z"/></g>
<g><path style="opacity:1" fill="#362954" d="M 44.5,10.5 C 44.1788,12.0481 43.1788,12.7148 41.5,12.5C 38.1825,13.2209 34.8492,13.3876 31.5,13C 30.7362,10.9307 30.2362,8.76399 30,6.5C 29.8019,8.38172 29.3019,10.0484 28.5,11.5C 25.5,11.5 22.5,11.5 19.5,11.5C 24.4438,11.8115 27.4438,9.47816 28.5,4.5C 31.0289,6.06252 32.0289,8.39586 31.5,11.5C 35.8689,11.5328 40.2022,11.1995 44.5,10.5 Z"/></g>
<g><path style="opacity:0.165" fill="#bfc0cb" d="M 12.5,6.5 C 12.1788,8.04814 11.1788,8.71481 9.5,8.5C 9.56745,9.95875 9.23411,11.2921 8.5,12.5C 6.95302,13.7682 5.95302,15.4348 5.5,17.5C 4.83333,18.1667 4.16667,18.8333 3.5,19.5C 4.785,15.3038 6.45166,11.3038 8.5,7.5C 9.95875,7.56745 11.2921,7.23411 12.5,6.5 Z"/></g>
<g><path style="opacity:0.075" fill="#c8c7d3" d="M 48.5,9.5 C 49.1239,9.91695 49.4573,10.5836 49.5,11.5C 49.2528,12.7133 48.5862,13.38 47.5,13.5C 48.2341,12.2921 48.5674,10.9587 48.5,9.5 Z"/></g>
<g><path style="opacity:1" fill="#44115f" d="M 41.5,12.5 C 38.2255,15.4925 34.2255,17.1591 29.5,17.5C 26.7531,17.8134 24.0865,17.48 21.5,16.5C 23.875,14.6986 26.2084,13.0319 28.5,11.5C 29.3019,10.0484 29.8019,8.38172 30,6.5C 30.2362,8.76399 30.7362,10.9307 31.5,13C 34.8492,13.3876 38.1825,13.2209 41.5,12.5 Z"/></g>
<g><path style="opacity:0.345" fill="#b5b6c7" d="M 47.5,13.5 C 46.7352,15.929 45.0685,17.2623 42.5,17.5C 43.8534,15.8173 45.5201,14.4839 47.5,13.5 Z"/></g>
<g><path style="opacity:0.259" fill="#b3b3c1" d="M 89.5,39.5 C 87.8333,38.5 86.5,37.1667 85.5,35.5C 84.6082,32.7079 82.6082,31.3746 79.5,31.5C 79.8064,28.6146 79.4731,25.9479 78.5,23.5C 77.4773,20.1642 75.144,18.6642 71.5,19C 70.6195,18.2917 69.9528,17.4584 69.5,16.5C 68.7261,15.8529 67.7261,15.5195 66.5,15.5C 62.3224,15.9564 58.3224,16.6231 54.5,17.5C 53.3285,18.3446 51.9952,19.0113 50.5,19.5C 51.0065,18.1411 52.0065,17.1411 53.5,16.5C 57.7859,15.5422 62.1192,14.8755 66.5,14.5C 69.517,16.2958 72.8503,17.4625 76.5,18C 78,18.8333 79.1667,20 80,21.5C 79.5151,26.6736 81.5151,30.3403 86,32.5C 86.9888,34.9698 88.1554,37.3032 89.5,39.5 Z"/></g>
<g><path style="opacity:1" fill="#3b596a" d="M 69.5,16.5 C 68.4477,17.5305 67.1143,18.1971 65.5,18.5C 61.8683,17.7543 58.2017,17.421 54.5,17.5C 58.3224,16.6231 62.3224,15.9564 66.5,15.5C 67.7261,15.5195 68.7261,15.8529 69.5,16.5 Z"/></g>
<g><path style="opacity:1" fill="#50416e" d="M 48.5,9.5 C 48.5674,10.9587 48.2341,12.2921 47.5,13.5C 45.5201,14.4839 43.8534,15.8173 42.5,17.5C 39.7198,18.1951 37.0531,19.1951 34.5,20.5C 32.5654,19.291 30.5654,19.4577 28.5,21C 25.3683,24.1454 22.3683,27.3121 19.5,30.5C 21.2164,26.9098 23.5498,23.7432 26.5,21C 25.552,20.5172 24.552,20.3505 23.5,20.5C 25.2488,19.0149 27.2488,18.0149 29.5,17.5C 34.2255,17.1591 38.2255,15.4925 41.5,12.5C 43.1788,12.7148 44.1788,12.0481 44.5,10.5C 45.4033,8.37955 46.7367,8.04622 48.5,9.5 Z"/></g>
<g><path style="opacity:1" fill="#4e3769" d="M 8.5,12.5 C 7.04169,18.5021 7.70836,18.8354 10.5,13.5C 10.8333,14.3333 11.1667,15.1667 11.5,16C 10.1401,18.2702 9.47339,20.7702 9.5,23.5C 8.5,23.5 7.5,23.5 6.5,23.5C 6.79472,21.2646 6.46138,19.2646 5.5,17.5C 5.95302,15.4348 6.95302,13.7682 8.5,12.5 Z"/></g>
<g><path style="opacity:0.325" fill="#caced6" d="M 42.5,17.5 C 40.44,19.1478 38.1067,20.6478 35.5,22C 38.0356,22.1862 40.369,22.6862 42.5,23.5C 39.9407,23.1984 37.6074,23.5318 35.5,24.5C 33.5168,24.8432 32.1834,24.1765 31.5,22.5C 32.5,21.8333 33.5,21.1667 34.5,20.5C 37.0531,19.1951 39.7198,18.1951 42.5,17.5 Z"/></g>
<g><path style="opacity:1" fill="#677186" d="M 35.5,24.5 C 37.6074,23.5318 39.9407,23.1984 42.5,23.5C 43.9187,24.4511 45.5853,24.7845 47.5,24.5C 46.0813,25.4511 44.4147,25.7845 42.5,25.5C 41.8333,25.5 41.1667,25.5 40.5,25.5C 40.1583,24.6618 39.4916,24.3284 38.5,24.5C 37.5,24.5 36.5,24.5 35.5,24.5 Z"/></g>
<g><path style="opacity:0.396" fill="#c9c8d4" d="M 50.5,19.5 C 49.8333,20.5 49.1667,21.5 48.5,22.5C 47.6618,22.8417 47.3284,23.5084 47.5,24.5C 45.5853,24.7845 43.9187,24.4511 42.5,23.5C 45.5002,22.8318 48.1669,21.4984 50.5,19.5 Z"/></g>
<g><path style="opacity:1" fill="#372755" d="M 69.5,16.5 C 69.9528,17.4584 70.6195,18.2917 71.5,19C 75.144,18.6642 77.4773,20.1642 78.5,23.5C 78.6641,26.1873 78.4974,28.854 78,31.5C 71.3992,30.1542 64.8992,28.4876 58.5,26.5C 55.3484,25.9586 52.8484,26.9586 51,29.5C 49.5873,27.3476 48.7539,25.0143 48.5,22.5C 49.1667,21.5 49.8333,20.5 50.5,19.5C 51.9952,19.0113 53.3285,18.3446 54.5,17.5C 58.2017,17.421 61.8683,17.7543 65.5,18.5C 67.1143,18.1971 68.4477,17.5305 69.5,16.5 Z"/></g>
<g><path style="opacity:1" fill="#2c1b4a" d="M 19.5,11.5 C 22.5,11.5 25.5,11.5 28.5,11.5C 26.2084,13.0319 23.875,14.6986 21.5,16.5C 24.0865,17.48 26.7531,17.8134 29.5,17.5C 27.2488,18.0149 25.2488,19.0149 23.5,20.5C 21.2944,22.4547 19.6278,24.788 18.5,27.5C 16.9519,27.1788 16.2852,26.1788 16.5,24.5C 15.5,24.5 14.5,24.5 13.5,24.5C 13.762,23.0222 13.4287,21.6888 12.5,20.5C 10.9922,24.3722 9.99219,28.3722 9.5,32.5C 9.32526,34.6208 9.65859,36.6208 10.5,38.5C 11.4922,41.7786 11.6588,45.1119 11,48.5C 10.586,48.0426 10.086,47.7093 9.5,47.5C 8.35291,41.215 7.68624,34.8816 7.5,28.5C 7.5,27.1667 7.5,25.8333 7.5,24.5C 6.5,24.5 5.5,24.5 4.5,24.5C 4.16667,29.1667 3.83333,33.8333 3.5,38.5C 3.31179,44.2881 3.97845,49.9548 5.5,55.5C 4.53862,57.2646 4.20528,59.2646 4.5,61.5C 3.83333,60.5 3.16667,59.5 2.5,58.5C 1.7265,53.5238 1.05983,48.5238 0.5,43.5C 1.5013,35.4919 2.5013,27.4919 3.5,19.5C 4.16667,18.8333 4.83333,18.1667 5.5,17.5C 6.46138,19.2646 6.79472,21.2646 6.5,23.5C 7.5,23.5 8.5,23.5 9.5,23.5C 9.47339,20.7702 10.1401,18.2702 11.5,16C 11.1667,15.1667 10.8333,14.3333 10.5,13.5C 7.70836,18.8354 7.04169,18.5021 8.5,12.5C 9.23411,11.2921 9.56745,9.95875 9.5,8.5C 11.1788,8.71481 12.1788,8.04814 12.5,6.5C 14.3386,5.49227 15.6719,3.99227 16.5,2C 17.635,1.25061 18.635,1.41728 19.5,2.5C 17.0746,5.80328 17.0746,8.80328 19.5,11.5 Z"/></g>
<g><path style="opacity:1" fill="#4c3667" d="M 18.5,27.5 C 17.6993,29.0418 17.366,30.7085 17.5,32.5C 16.7784,32.0825 16.2784,31.4158 16,30.5C 15.51,31.7932 15.3433,33.1266 15.5,34.5C 14.9841,32.2818 13.9841,30.2818 12.5,28.5C 11.9432,30.3316 10.9432,31.6649 9.5,32.5C 9.99219,28.3722 10.9922,24.3722 12.5,20.5C 13.4287,21.6888 13.762,23.0222 13.5,24.5C 14.5,24.5 15.5,24.5 16.5,24.5C 16.2852,26.1788 16.9519,27.1788 18.5,27.5 Z"/></g>
<g><path style="opacity:1" fill="#545f7e" d="M 31.5,22.5 C 32.1834,24.1765 33.5168,24.8432 35.5,24.5C 35.5,24.8333 35.5,25.1667 35.5,25.5C 31.7018,26.5167 28.0351,27.6834 24.5,29C 26.4854,26.3611 28.8187,24.1944 31.5,22.5 Z"/></g>
<g><path style="opacity:1" fill="#786e90" d="M 23.5,20.5 C 24.552,20.3505 25.552,20.5172 26.5,21C 23.5498,23.7432 21.2164,26.9098 19.5,30.5C 19.1667,31.5 18.5,32.1667 17.5,32.5C 17.366,30.7085 17.6993,29.0418 18.5,27.5C 19.6278,24.788 21.2944,22.4547 23.5,20.5 Z"/></g>
<g><path style="opacity:0.015" fill="#f0eef3" d="M 86.5,28.5 C 88.4646,28.9483 88.7979,29.9483 87.5,31.5C 86.6143,30.675 86.281,29.675 86.5,28.5 Z"/></g>
<g><path style="opacity:0.016" fill="#b0b2bd" d="M 3.5,19.5 C 2.5013,27.4919 1.5013,35.4919 0.5,43.5C 1.05983,48.5238 1.7265,53.5238 2.5,58.5C 1.85706,56.9236 0.857056,55.5903 -0.5,54.5C -0.5,46.8333 -0.5,39.1667 -0.5,31.5C 0.014534,27.2015 1.34787,23.2015 3.5,19.5 Z"/></g>
<g><path style="opacity:1" fill="#375458" d="M 39.5,29.5 C 39.8417,28.6618 40.5084,28.3284 41.5,28.5C 42.8333,29.5 42.8333,30.5 41.5,31.5C 41.5,30.1667 40.8333,29.5 39.5,29.5 Z"/></g>
<g><path style="opacity:1" fill="#6ca137" d="M 39.5,29.5 C 40.8333,29.5 41.5,30.1667 41.5,31.5C 40.1667,31.5 39.5,30.8333 39.5,29.5 Z"/></g>
<g><path style="opacity:1" fill="#344a7b" d="M 78.5,23.5 C 79.4731,25.9479 79.8064,28.6146 79.5,31.5C 82.6082,31.3746 84.6082,32.7079 85.5,35.5C 83.0488,34.5892 80.7154,33.7559 78.5,33C 77.5562,35.7191 77.2229,38.5525 77.5,41.5C 77.5,41.8333 77.5,42.1667 77.5,42.5C 76.1667,44.1667 74.8333,45.8333 73.5,47.5C 70.6655,48.0695 68.9988,49.7361 68.5,52.5C 66.1667,52.5 63.8333,52.5 61.5,52.5C 61.5,53.8333 61.5,55.1667 61.5,56.5C 67.1416,55.5216 71.1416,57.5216 73.5,62.5C 70.9233,61.4428 68.5899,60.1095 66.5,58.5C 62.7632,58.2407 60.4298,59.9074 59.5,63.5C 57.461,64.911 56.461,66.911 56.5,69.5C 56.1667,70.1667 55.8333,70.8333 55.5,71.5C 55.5,72.1667 55.8333,72.5 56.5,72.5C 61.6571,76.3547 66.8238,76.3547 72,72.5C 72.3333,70.5 72.6667,68.5 73,66.5C 73.3826,67.056 73.8826,67.3893 74.5,67.5C 74.8006,72.0479 72.8006,75.2146 68.5,77C 64.5,77.6667 60.5,77.6667 56.5,77C 55.6921,75.2942 54.3588,74.4609 52.5,74.5C 52.6633,72.1432 52.4966,69.8098 52,67.5C 51.2303,66.4019 50.397,66.4019 49.5,67.5C 49.5,66.8333 49.5,66.1667 49.5,65.5C 51.4799,64.5161 53.1466,63.1827 54.5,61.5C 54.56,62.0431 54.8933,62.3764 55.5,62.5C 57.277,59.4547 58.6104,56.2881 59.5,53C 59.2414,51.2134 58.5747,49.7134 57.5,48.5C 59.6963,48.59 61.863,48.9233 64,49.5C 67.3294,48.7779 70.4961,47.7779 73.5,46.5C 76.0417,36.3653 72.0417,31.0319 61.5,30.5C 59.4523,30.6718 57.4523,31.0051 55.5,31.5C 57.2785,30.3303 58.2785,28.6636 58.5,26.5C 64.8992,28.4876 71.3992,30.1542 78,31.5C 78.4974,28.854 78.6641,26.1873 78.5,23.5 Z"/></g>
<g><path style="opacity:1" fill="#524958" d="M 39.5,29.5 C 39.5,30.8333 40.1667,31.5 41.5,31.5C 39.5828,33.8507 37.9161,33.8507 36.5,31.5C 37.2905,30.5987 38.2905,29.9321 39.5,29.5 Z"/></g>
<g><path style="opacity:1" fill="#384079" d="M 48.5,22.5 C 48.7539,25.0143 49.5873,27.3476 51,29.5C 52.8484,26.9586 55.3484,25.9586 58.5,26.5C 58.2785,28.6636 57.2785,30.3303 55.5,31.5C 53.9445,34.0568 52.9445,36.8901 52.5,40C 55.0409,42.3686 56.7075,45.2019 57.5,48.5C 58.5747,49.7134 59.2414,51.2134 59.5,53C 58.6104,56.2881 57.277,59.4547 55.5,62.5C 54.8933,62.3764 54.56,62.0431 54.5,61.5C 55.4511,60.0813 55.7845,58.4147 55.5,56.5C 56.4959,56.5858 57.3292,56.2524 58,55.5C 58.4935,53.8659 58.6602,52.1992 58.5,50.5C 57.5,50.5 56.5,50.5 55.5,50.5C 55.6602,48.8008 55.4935,47.1341 55,45.5C 52.1793,43.8186 50.3459,41.4853 49.5,38.5C 48.8521,34.9282 48.5187,31.2615 48.5,27.5C 46.3432,26.9495 44.3432,26.2829 42.5,25.5C 44.4147,25.7845 46.0813,25.4511 47.5,24.5C 47.3284,23.5084 47.6618,22.8417 48.5,22.5 Z"/></g>
<g><path style="opacity:1" fill="#5b497e" d="M 7.5,28.5 C 6.54885,29.9187 6.21552,31.5853 6.5,33.5C 5.88258,33.3893 5.38258,33.056 5,32.5C 4.80912,34.7078 4.30912,36.7078 3.5,38.5C 3.83333,33.8333 4.16667,29.1667 4.5,24.5C 5.5,24.5 6.5,24.5 7.5,24.5C 7.5,25.8333 7.5,27.1667 7.5,28.5 Z"/></g>
<g><path style="opacity:1" fill="#7c6d91" d="M 15.5,34.5 C 15.1667,36.5 14.8333,38.5 14.5,40.5C 13.8826,40.6107 13.3826,40.944 13,41.5C 12.6232,40.0577 11.7899,39.0577 10.5,38.5C 9.65859,36.6208 9.32526,34.6208 9.5,32.5C 10.9432,31.6649 11.9432,30.3316 12.5,28.5C 13.9841,30.2818 14.9841,32.2818 15.5,34.5 Z"/></g>
<g><path style="opacity:1" fill="#036dc0" d="M 40.5,25.5 C 41.1667,25.5 41.8333,25.5 42.5,25.5C 44.3432,26.2829 46.3432,26.9495 48.5,27.5C 48.5187,31.2615 48.8521,34.9282 49.5,38.5C 45.6836,39.4824 41.6836,40.1491 37.5,40.5C 37.5,42.1667 37.5,43.8333 37.5,45.5C 36.8333,45.5 36.1667,45.5 35.5,45.5C 36.4702,41.0685 34.8035,38.7352 30.5,38.5C 29.0936,33.0687 31.0936,30.7353 36.5,31.5C 37.9161,33.8507 39.5828,33.8507 41.5,31.5C 42.8333,30.5 42.8333,29.5 41.5,28.5C 40.8902,27.609 40.5569,26.609 40.5,25.5 Z"/></g>
<g><path style="opacity:1" fill="#0d73bb" d="M 85.5,35.5 C 86.5,37.1667 87.8333,38.5 89.5,39.5C 89.5,39.8333 89.5,40.1667 89.5,40.5C 88.6618,40.8417 88.3284,41.5084 88.5,42.5C 86.7041,41.2073 85.0375,39.7073 83.5,38C 82.552,37.5172 81.552,37.3505 80.5,37.5C 80.5,38.8333 80.5,40.1667 80.5,41.5C 79.5,41.5 78.5,41.5 77.5,41.5C 77.2229,38.5525 77.5562,35.7191 78.5,33C 80.7154,33.7559 83.0488,34.5892 85.5,35.5 Z"/></g>
<g><path style="opacity:1" fill="#2d1b4e" d="M 34.5,20.5 C 33.5,21.1667 32.5,21.8333 31.5,22.5C 28.8187,24.1944 26.4854,26.3611 24.5,29C 28.0351,27.6834 31.7018,26.5167 35.5,25.5C 35.8212,27.0481 36.8212,27.7148 38.5,27.5C 38.5,26.5 38.5,25.5 38.5,24.5C 39.4916,24.3284 40.1583,24.6618 40.5,25.5C 40.5569,26.609 40.8902,27.609 41.5,28.5C 40.5084,28.3284 39.8417,28.6618 39.5,29.5C 38.2905,29.9321 37.2905,30.5987 36.5,31.5C 31.0936,30.7353 29.0936,33.0687 30.5,38.5C 34.8035,38.7352 36.4702,41.0685 35.5,45.5C 36.4025,48.3915 36.7359,51.3915 36.5,54.5C 35.5,54.5 34.5,54.5 33.5,54.5C 33.4208,55.9305 33.7542,57.2638 34.5,58.5C 33.273,59.5904 32.4396,60.9238 32,62.5C 31.7879,67.4683 30.6213,72.1349 28.5,76.5C 28.9767,77.4776 29.6433,78.3109 30.5,79C 28.9419,79.21 27.6085,79.71 26.5,80.5C 22.6141,78.6343 18.9474,76.301 15.5,73.5C 14.2638,74.2458 12.9305,74.5792 11.5,74.5C 8.23319,70.7261 5.89986,66.3928 4.5,61.5C 4.20528,59.2646 4.53862,57.2646 5.5,55.5C 10.0625,57.0616 13.7291,59.8949 16.5,64C 20.0704,65.3095 23.737,66.1428 27.5,66.5C 27.5,65.1667 27.5,63.8333 27.5,62.5C 28.3567,61.1982 28.8567,59.8649 29,58.5C 26.5227,56.1795 23.6894,54.5128 20.5,53.5C 19.8333,53.5 19.5,53.1667 19.5,52.5C 16.1896,49.2094 14.523,45.2094 14.5,40.5C 14.8333,38.5 15.1667,36.5 15.5,34.5C 15.3433,33.1266 15.51,31.7932 16,30.5C 16.2784,31.4158 16.7784,32.0825 17.5,32.5C 18.5,32.1667 19.1667,31.5 19.5,30.5C 22.3683,27.3121 25.3683,24.1454 28.5,21C 30.5654,19.4577 32.5654,19.291 34.5,20.5 Z"/></g>
<g><path style="opacity:1" fill="#7b4d41" d="M 35.5,24.5 C 36.5,24.5 37.5,24.5 38.5,24.5C 38.5,25.5 38.5,26.5 38.5,27.5C 36.8212,27.7148 35.8212,27.0481 35.5,25.5C 35.5,25.1667 35.5,24.8333 35.5,24.5 Z"/></g>
<g><path style="opacity:0.047" fill="#c7cbde" d="M 89.5,40.5 C 89.5,40.1667 89.5,39.8333 89.5,39.5C 92.5,40.5 94.5,42.5 95.5,45.5C 93.5,43.8333 91.5,42.1667 89.5,40.5 Z"/></g>
<g><path style="opacity:1" fill="#524171" d="M 23.5,34.5 C 27.6057,36.2696 30.2724,39.2696 31.5,43.5C 24.5917,44.2587 21.925,41.2587 23.5,34.5 Z"/></g>
<g><path style="opacity:1" fill="#01b5e8" d="M 49.5,38.5 C 50.3459,41.4853 52.1793,43.8186 55,45.5C 55.4935,47.1341 55.6602,48.8008 55.5,50.5C 55.5,52.5 55.5,54.5 55.5,56.5C 55.7845,58.4147 55.4511,60.0813 54.5,61.5C 53.1466,63.1827 51.4799,64.5161 49.5,65.5C 48.3701,63.6263 47.3701,61.6263 46.5,59.5C 45.3112,58.5713 43.9778,58.238 42.5,58.5C 41.9512,56.0987 41.1178,53.7654 40,51.5C 39.7216,52.4158 39.2216,53.0825 38.5,53.5C 38.8064,50.6146 38.4731,47.9479 37.5,45.5C 37.5,43.8333 37.5,42.1667 37.5,40.5C 41.6836,40.1491 45.6836,39.4824 49.5,38.5 Z"/></g>
<g><path style="opacity:1" fill="#1b74cc" d="M 89.5,40.5 C 91.5,42.1667 93.5,43.8333 95.5,45.5C 95.8333,46.1667 96.1667,46.8333 96.5,47.5C 95.6403,51.4338 95.307,55.4338 95.5,59.5C 94.1667,59.5 92.8333,59.5 91.5,59.5C 91.6653,55.8183 91.4986,52.1516 91,48.5C 90.7635,46.1548 89.9302,44.1548 88.5,42.5C 88.3284,41.5084 88.6618,40.8417 89.5,40.5 Z"/></g>
<g><path style="opacity:1" fill="#7a7497" d="M 16.5,39.5 C 18.4696,41.348 20.4696,43.348 22.5,45.5C 25.6195,46.3578 28.6195,47.3578 31.5,48.5C 31.5,49.5 31.5,50.5 31.5,51.5C 25.4848,50.7472 20.6515,48.0806 17,43.5C 16.51,42.2068 16.3433,40.8734 16.5,39.5 Z"/></g>
<g><path style="opacity:0.024" fill="#d7dae6" d="M 95.5,45.5 C 97.4305,45.7706 98.7638,46.7706 99.5,48.5C 99.5,51.5 99.5,54.5 99.5,57.5C 99.1667,57.5 98.8333,57.5 98.5,57.5C 98.6641,54.8127 98.4974,52.146 98,49.5C 97.7216,48.5842 97.2216,47.9175 96.5,47.5C 96.1667,46.8333 95.8333,46.1667 95.5,45.5 Z"/></g>
<g><path style="opacity:1" fill="#2880b3" d="M 57.5,48.5 C 56.7075,45.2019 55.0409,42.3686 52.5,40C 52.9445,36.8901 53.9445,34.0568 55.5,31.5C 57.4523,31.0051 59.4523,30.6718 61.5,30.5C 72.0417,31.0319 76.0417,36.3653 73.5,46.5C 70.4961,47.7779 67.3294,48.7779 64,49.5C 61.863,48.9233 59.6963,48.59 57.5,48.5 Z"/></g>
<g><path style="opacity:1" fill="#38e6ed" d="M 69.5,35.5 C 72.0338,39.8127 71.0338,43.6461 66.5,47C 64.8659,47.4935 63.1992,47.6602 61.5,47.5C 60.4473,44.3929 59.114,41.3929 57.5,38.5C 57.3284,37.5084 57.6618,36.8417 58.5,36.5C 59.7484,39.9956 61.7484,42.9956 64.5,45.5C 66.653,43.2063 68.3197,40.5396 69.5,37.5C 66.2317,36.513 62.8984,36.1796 59.5,36.5C 60.1522,35.2749 61.3189,34.6083 63,34.5C 65.187,34.7885 67.3537,35.1218 69.5,35.5 Z"/></g>
<g><path style="opacity:1" fill="#eafcfc" d="M 58.5,36.5 C 58.8333,36.5 59.1667,36.5 59.5,36.5C 62.8984,36.1796 66.2317,36.513 69.5,37.5C 68.3197,40.5396 66.653,43.2063 64.5,45.5C 61.7484,42.9956 59.7484,39.9956 58.5,36.5 Z"/></g>
<g><path style="opacity:1" fill="#01badf" d="M 69.5,35.5 C 67.3537,35.1218 65.187,34.7885 63,34.5C 61.3189,34.6083 60.1522,35.2749 59.5,36.5C 59.1667,36.5 58.8333,36.5 58.5,36.5C 57.6618,36.8417 57.3284,37.5084 57.5,38.5C 55.3531,37.0679 55.0198,35.2345 56.5,33C 60.2113,32.1747 63.878,32.3414 67.5,33.5C 68.2427,34.1818 68.9094,34.8485 69.5,35.5 Z"/></g>
<g><path style="opacity:1" fill="#056eb8" d="M 77.5,42.5 C 77.5,44.1667 77.5,45.8333 77.5,47.5C 78.5,47.5 79.5,47.5 80.5,47.5C 80.3573,49.2624 80.6906,50.9291 81.5,52.5C 80.3112,53.4287 78.9778,53.762 77.5,53.5C 77.5,56.8333 77.5,60.1667 77.5,63.5C 77.0276,61.4687 76.0276,59.8021 74.5,58.5C 73.0998,57.8999 72.0998,56.8999 71.5,55.5C 72.5862,55.38 73.2528,54.7133 73.5,53.5C 73.2528,52.2867 72.5862,51.62 71.5,51.5C 71.7329,49.9382 72.3995,48.6049 73.5,47.5C 74.8333,45.8333 76.1667,44.1667 77.5,42.5 Z"/></g>
<g><path style="opacity:1" fill="#0e2560" d="M 92.5,48.5 C 93.7773,49.6936 94.4439,51.3603 94.5,53.5C 94.1667,55.1667 93.8333,56.8333 93.5,58.5C 92.513,55.2317 92.1796,51.8984 92.5,48.5 Z"/></g>
<g><path style="opacity:1" fill="#2797e0" d="M 96.5,47.5 C 97.2216,47.9175 97.7216,48.5842 98,49.5C 98.4974,52.146 98.6641,54.8127 98.5,57.5C 97.2223,57.7822 96.2223,58.4489 95.5,59.5C 95.307,55.4338 95.6403,51.4338 96.5,47.5 Z"/></g>
<g><path style="opacity:1" fill="#006dbf" d="M 55.5,50.5 C 56.5,50.5 57.5,50.5 58.5,50.5C 58.6602,52.1992 58.4935,53.8659 58,55.5C 57.3292,56.2524 56.4959,56.5858 55.5,56.5C 55.5,54.5 55.5,52.5 55.5,50.5 Z"/></g>
<g><path style="opacity:1" fill="#827fa1" d="M 19.5,52.5 C 19.5,53.1667 19.8333,53.5 20.5,53.5C 22.2137,55.5146 24.2137,57.1813 26.5,58.5C 25.635,59.5827 24.635,59.7494 23.5,59C 19.4423,57.2916 16.9423,54.4583 16,50.5C 16.8159,51.8228 17.9826,52.4894 19.5,52.5 Z"/></g>
<g><path style="opacity:1" fill="#3bd0dd" d="M 71.5,51.5 C 72.5862,51.62 73.2528,52.2867 73.5,53.5C 73.2528,54.7133 72.5862,55.38 71.5,55.5C 71.5,54.1667 71.5,52.8333 71.5,51.5 Z"/></g>
<g><path style="opacity:1" fill="#1577a4" d="M 35.5,45.5 C 36.1667,45.5 36.8333,45.5 37.5,45.5C 38.4731,47.9479 38.8064,50.6146 38.5,53.5C 36.3271,62.1182 33.9937,70.7848 31.5,79.5C 37.1613,79.0932 42.828,78.7599 48.5,78.5C 48.185,74.6286 48.5184,70.9619 49.5,67.5C 49.3802,71.0418 49.7135,74.5418 50.5,78C 49.3818,80.059 48.7151,82.2257 48.5,84.5C 47.596,83.791 47.2627,82.791 47.5,81.5C 45.8333,81.5 44.1667,81.5 42.5,81.5C 39.0381,80.5184 35.3714,80.185 31.5,80.5C 29.8333,80.5 28.1667,80.5 26.5,80.5C 27.6085,79.71 28.9419,79.21 30.5,79C 29.6433,78.3109 28.9767,77.4776 28.5,76.5C 30.6213,72.1349 31.7879,67.4683 32,62.5C 32.4396,60.9238 33.273,59.5904 34.5,58.5C 33.7542,57.2638 33.4208,55.9305 33.5,54.5C 34.5,54.5 35.5,54.5 36.5,54.5C 36.7359,51.3915 36.4025,48.3915 35.5,45.5 Z"/></g>
<g><path style="opacity:1" fill="#16a8d0" d="M 66.5,58.5 C 67.6005,59.6049 68.2671,60.9382 68.5,62.5C 67.5,61.8333 66.5,61.1667 65.5,60.5C 64.8333,60.5 64.1667,60.5 63.5,60.5C 62.1667,61.5 60.8333,62.5 59.5,63.5C 60.4298,59.9074 62.7632,58.2407 66.5,58.5 Z"/></g>
<g><path style="opacity:1" fill="#79789a" d="M 6.5,33.5 C 7.12662,39.1445 7.62662,44.8112 8,50.5C 13.0309,56.9974 19.5309,60.9974 27.5,62.5C 27.5,63.8333 27.5,65.1667 27.5,66.5C 23.737,66.1428 20.0704,65.3095 16.5,64C 13.7291,59.8949 10.0625,57.0616 5.5,55.5C 3.97845,49.9548 3.31179,44.2881 3.5,38.5C 4.30912,36.7078 4.80912,34.7078 5,32.5C 5.38258,33.056 5.88258,33.3893 6.5,33.5 Z"/></g>
<g><path style="opacity:1" fill="#402c5d" d="M 7.5,28.5 C 7.68624,34.8816 8.35291,41.215 9.5,47.5C 10.086,47.7093 10.586,48.0426 11,48.5C 11.6588,45.1119 11.4922,41.7786 10.5,38.5C 11.7899,39.0577 12.6232,40.0577 13,41.5C 13.3826,40.944 13.8826,40.6107 14.5,40.5C 14.523,45.2094 16.1896,49.2094 19.5,52.5C 17.9826,52.4894 16.8159,51.8228 16,50.5C 16.9423,54.4583 19.4423,57.2916 23.5,59C 24.635,59.7494 25.635,59.5827 26.5,58.5C 24.2137,57.1813 22.2137,55.5146 20.5,53.5C 23.6894,54.5128 26.5227,56.1795 29,58.5C 28.8567,59.8649 28.3567,61.1982 27.5,62.5C 19.5309,60.9974 13.0309,56.9974 8,50.5C 7.62662,44.8112 7.12662,39.1445 6.5,33.5C 6.21552,31.5853 6.54885,29.9187 7.5,28.5 Z"/></g>
<g><path style="opacity:1" fill="#10b6e9" d="M 88.5,42.5 C 89.9302,44.1548 90.7635,46.1548 91,48.5C 91.4986,52.1516 91.6653,55.8183 91.5,59.5C 92.8333,59.5 94.1667,59.5 95.5,59.5C 94.9202,61.7488 93.5869,63.4154 91.5,64.5C 88.5341,66.1104 85.5341,67.7771 82.5,69.5C 81.8243,68.3984 81.1577,67.3984 80.5,66.5C 79.3065,65.7281 78.3065,64.7281 77.5,63.5C 77.5,60.1667 77.5,56.8333 77.5,53.5C 78.9778,53.762 80.3112,53.4287 81.5,52.5C 80.6906,50.9291 80.3573,49.2624 80.5,47.5C 79.5,47.5 78.5,47.5 77.5,47.5C 77.5,45.8333 77.5,44.1667 77.5,42.5C 77.5,42.1667 77.5,41.8333 77.5,41.5C 78.5,41.5 79.5,41.5 80.5,41.5C 80.5,40.1667 80.5,38.8333 80.5,37.5C 81.552,37.3505 82.552,37.5172 83.5,38C 85.0375,39.7073 86.7041,41.2073 88.5,42.5 Z"/></g>
<g><path style="opacity:1" fill="#074f9a" d="M 86.5,47.5 C 87.7943,49.0478 88.4609,51.0478 88.5,53.5C 88.3333,55.5 88.1667,57.5 88,59.5C 85.3677,55.7753 84.8677,51.7753 86.5,47.5 Z"/></g>
<g><path style="opacity:0.545" fill="#b1b1c0" d="M 2.5,58.5 C 3.16667,59.5 3.83333,60.5 4.5,61.5C 5.89986,66.3928 8.23319,70.7261 11.5,74.5C 9.62901,74.1412 8.12901,73.1412 7,71.5C 4.36055,67.5558 2.86055,63.2225 2.5,58.5 Z"/></g>
<g><path style="opacity:1" fill="#12469b" d="M 74.5,58.5 C 76.0276,59.8021 77.0276,61.4687 77.5,63.5C 78.3065,64.7281 79.3065,65.7281 80.5,66.5C 80.5,68.5 80.5,70.5 80.5,72.5C 78.8212,72.2852 77.8212,72.9519 77.5,74.5C 76.326,69.3178 75.326,63.9844 74.5,58.5 Z"/></g>
<g><path style="opacity:1" fill="#05a7d2" d="M 59.5,63.5 C 59.6602,65.1992 59.4935,66.8659 59,68.5C 58.3292,69.2524 57.4959,69.5858 56.5,69.5C 56.461,66.911 57.461,64.911 59.5,63.5 Z"/></g>
<g><path style="opacity:1" fill="#05b8ea" d="M 49.5,65.5 C 49.5,66.1667 49.5,66.8333 49.5,67.5C 48.5184,70.9619 48.185,74.6286 48.5,78.5C 42.828,78.7599 37.1613,79.0932 31.5,79.5C 33.9937,70.7848 36.3271,62.1182 38.5,53.5C 39.2216,53.0825 39.7216,52.4158 40,51.5C 41.1178,53.7654 41.9512,56.0987 42.5,58.5C 43.9778,58.238 45.3112,58.5713 46.5,59.5C 47.3701,61.6263 48.3701,63.6263 49.5,65.5 Z"/></g>
<g><path style="opacity:1" fill="#d8f6f9" d="M 39.5,61.5 C 40.4959,61.4142 41.3292,61.7476 42,62.5C 43.4381,63.9003 44.2714,65.567 44.5,67.5C 40.5149,67.5601 38.8482,65.5601 39.5,61.5 Z"/></g>
<g><path style="opacity:1" fill="#2179a9" d="M 66.5,58.5 C 68.5899,60.1095 70.9233,61.4428 73.5,62.5C 73.6287,64.2161 73.962,65.8828 74.5,67.5C 73.8826,67.3893 73.3826,67.056 73,66.5C 72.6667,68.5 72.3333,70.5 72,72.5C 66.8238,76.3547 61.6571,76.3547 56.5,72.5C 60.8461,72.6657 65.1794,72.499 69.5,72C 71.5785,70.7303 71.9118,69.2303 70.5,67.5C 69.9759,65.6943 69.3092,64.0276 68.5,62.5C 68.2671,60.9382 67.6005,59.6049 66.5,58.5 Z"/></g>
<g><path style="opacity:1" fill="#237cc1" d="M 91.5,64.5 C 88.1218,67.8761 85.1218,71.5428 82.5,75.5C 81.5,75.5 80.5,75.5 79.5,75.5C 78.8333,75.5 78.1667,75.5 77.5,75.5C 77.5,75.1667 77.5,74.8333 77.5,74.5C 77.8212,72.9519 78.8212,72.2852 80.5,72.5C 80.5,70.5 80.5,68.5 80.5,66.5C 81.1577,67.3984 81.8243,68.3984 82.5,69.5C 85.5341,67.7771 88.5341,66.1104 91.5,64.5 Z"/></g>
<g><path style="opacity:1" fill="#4bf2f1" d="M 63.5,60.5 C 61.9565,62.9278 60.9565,65.5944 60.5,68.5C 63.2469,68.8134 65.9135,68.48 68.5,67.5C 67.2122,65.2612 66.2122,62.9279 65.5,60.5C 66.5,61.1667 67.5,61.8333 68.5,62.5C 69.3092,64.0276 69.9759,65.6943 70.5,67.5C 70.5,68.5 70.5,69.5 70.5,70.5C 65.5275,71.1637 60.5275,71.4971 55.5,71.5C 55.8333,70.8333 56.1667,70.1667 56.5,69.5C 57.4959,69.5858 58.3292,69.2524 59,68.5C 59.4935,66.8659 59.6602,65.1992 59.5,63.5C 60.8333,62.5 62.1667,61.5 63.5,60.5 Z"/></g>
<g><path style="opacity:1" fill="#eafcfc" d="M 63.5,60.5 C 64.1667,60.5 64.8333,60.5 65.5,60.5C 66.2122,62.9279 67.2122,65.2612 68.5,67.5C 65.9135,68.48 63.2469,68.8134 60.5,68.5C 60.9565,65.5944 61.9565,62.9278 63.5,60.5 Z"/></g>
<g><path style="opacity:0.09" fill="#ced6e5" d="M 98.5,57.5 C 94.223,64.4434 88.8896,70.4434 82.5,75.5C 85.1218,71.5428 88.1218,67.8761 91.5,64.5C 93.5869,63.4154 94.9202,61.7488 95.5,59.5C 96.2223,58.4489 97.2223,57.7822 98.5,57.5 Z"/></g>
<g><path style="opacity:1" fill="#5d4d79" d="M 11.5,67.5 C 11.56,66.9569 11.8933,66.6236 12.5,66.5C 16.8109,69.4872 21.4775,71.4872 26.5,72.5C 26.5,73.5 26.5,74.5 26.5,75.5C 24.396,75.7989 22.396,75.4656 20.5,74.5C 18.6096,72.4224 16.2762,71.0891 13.5,70.5C 12.8243,69.3984 12.1577,68.3984 11.5,67.5 Z"/></g>
<g><path style="opacity:1" fill="#3c3163" d="M 73.5,47.5 C 72.3995,48.6049 71.7329,49.9382 71.5,51.5C 71.5,52.8333 71.5,54.1667 71.5,55.5C 72.0998,56.8999 73.0998,57.8999 74.5,58.5C 75.326,63.9844 76.326,69.3178 77.5,74.5C 77.5,74.8333 77.5,75.1667 77.5,75.5C 76.7237,77.974 75.2237,78.6407 73,77.5C 72.0754,78.0465 71.2421,78.7132 70.5,79.5C 65.1667,80.1667 59.8333,80.8333 54.5,81.5C 52.2452,82.1937 50.2452,83.1937 48.5,84.5C 48.7151,82.2257 49.3818,80.059 50.5,78C 49.7135,74.5418 49.3802,71.0418 49.5,67.5C 50.397,66.4019 51.2303,66.4019 52,67.5C 52.4966,69.8098 52.6633,72.1432 52.5,74.5C 54.3588,74.4609 55.6921,75.2942 56.5,77C 60.5,77.6667 64.5,77.6667 68.5,77C 72.8006,75.2146 74.8006,72.0479 74.5,67.5C 73.962,65.8828 73.6287,64.2161 73.5,62.5C 71.1416,57.5216 67.1416,55.5216 61.5,56.5C 61.5,55.1667 61.5,53.8333 61.5,52.5C 63.8333,52.5 66.1667,52.5 68.5,52.5C 68.9988,49.7361 70.6655,48.0695 73.5,47.5 Z"/></g>
<g><path style="opacity:1" fill="#02c2df" d="M 70.5,67.5 C 71.9118,69.2303 71.5785,70.7303 69.5,72C 65.1794,72.499 60.8461,72.6657 56.5,72.5C 55.8333,72.5 55.5,72.1667 55.5,71.5C 60.5275,71.4971 65.5275,71.1637 70.5,70.5C 70.5,69.5 70.5,68.5 70.5,67.5 Z"/></g>
<g><path style="opacity:1" fill="#564773" d="M 26.5,80.5 C 26.5,80.8333 26.5,81.1667 26.5,81.5C 24.1432,81.6633 21.8098,81.4966 19.5,81C 17.9052,78.8981 15.9052,77.3981 13.5,76.5C 12.1667,76.5 11.5,75.8333 11.5,74.5C 12.9305,74.5792 14.2638,74.2458 15.5,73.5C 18.9474,76.301 22.6141,78.6343 26.5,80.5 Z"/></g>
<g><path style="opacity:0.153" fill="#c1bfcd" d="M 13.5,76.5 C 15.9052,77.3981 17.9052,78.8981 19.5,81C 21.8098,81.4966 24.1432,81.6633 26.5,81.5C 24.086,82.9326 21.4194,83.4326 18.5,83C 16.9457,80.6293 15.279,78.4626 13.5,76.5 Z"/></g>
<g><path style="opacity:0.067" fill="#d8dee5" d="M 26.5,81.5 C 26.5,81.1667 26.5,80.8333 26.5,80.5C 28.1667,80.5 29.8333,80.5 31.5,80.5C 31.5,81.1667 31.5,81.8333 31.5,82.5C 29.9582,81.6993 28.2915,81.366 26.5,81.5 Z"/></g>
<g><path style="opacity:1" fill="#3a4971" d="M 31.5,80.5 C 35.3714,80.185 39.0381,80.5184 42.5,81.5C 41.4477,82.5305 40.1143,83.1971 38.5,83.5C 36.1817,83.0029 33.8484,82.6695 31.5,82.5C 31.5,81.8333 31.5,81.1667 31.5,80.5 Z"/></g>
<g><path style="opacity:1" fill="#3c2955" d="M 77.5,75.5 C 78.1667,75.5 78.8333,75.5 79.5,75.5C 80.1629,80.376 78.8296,84.5427 75.5,88C 74.2068,88.49 72.8734,88.6567 71.5,88.5C 65.5,88.5 59.5,88.5 53.5,88.5C 51.2512,87.9202 49.5846,86.5869 48.5,84.5C 50.2452,83.1937 52.2452,82.1937 54.5,81.5C 59.8333,80.8333 65.1667,80.1667 70.5,79.5C 71.2421,78.7132 72.0754,78.0465 73,77.5C 75.2237,78.6407 76.7237,77.974 77.5,75.5 Z"/></g>
<g><path style="opacity:0.482" fill="#b9bbc8" d="M 79.5,75.5 C 80.5,75.5 81.5,75.5 82.5,75.5C 80.8595,78.5275 80.0262,81.8609 80,85.5C 77.4416,88.9241 74.2749,91.2575 70.5,92.5C 67.5,92.5 64.5,92.5 61.5,92.5C 55.5498,92.768 50.7165,90.4347 47,85.5C 46.5172,84.552 46.3505,83.552 46.5,82.5C 43.865,83.1419 41.1984,83.8086 38.5,84.5C 35.8446,84.5596 33.5112,83.8929 31.5,82.5C 33.8484,82.6695 36.1817,83.0029 38.5,83.5C 40.1143,83.1971 41.4477,82.5305 42.5,81.5C 44.1667,81.5 45.8333,81.5 47.5,81.5C 47.2627,82.791 47.596,83.791 48.5,84.5C 49.5846,86.5869 51.2512,87.9202 53.5,88.5C 57.5648,89.3316 61.7314,90.3316 66,91.5C 68.6546,91.876 70.488,90.876 71.5,88.5C 72.8734,88.6567 74.2068,88.49 75.5,88C 78.8296,84.5427 80.1629,80.376 79.5,75.5 Z"/></g>
<g><path style="opacity:1" fill="#3b456b" d="M 53.5,88.5 C 59.5,88.5 65.5,88.5 71.5,88.5C 70.488,90.876 68.6546,91.876 66,91.5C 61.7314,90.3316 57.5648,89.3316 53.5,88.5 Z"/></g>
<g><path style="opacity:1" fill="#736074" d="M 51.5,84.5 C 51.7352,83.9033 52.2352,83.5699 53,83.5C 55.5411,84.007 58.0411,84.6737 60.5,85.5C 57.205,86.9148 54.205,86.5815 51.5,84.5 Z"/></g>
</svg>
