<?xml version="1.0" encoding="UTF-8"?>
<!DOCTYPE svg PUBLIC "-//W3C//DTD SVG 1.1//EN" "http://www.w3.org/Graphics/SVG/1.1/DTD/svg11.dtd">
<svg xmlns="http://www.w3.org/2000/svg" version="1.1" width="100px" height="72px" style="shape-rendering:geometricPrecision; text-rendering:geometricPrecision; image-rendering:optimizeQuality; fill-rule:evenodd; clip-rule:evenodd" xmlns:xlink="http://www.w3.org/1999/xlink">
<g><path style="opacity:0.618" fill="#a0adbc" d="M 56.5,-0.5 C 60.1667,-0.5 63.8333,-0.5 67.5,-0.5C 71.4524,0.820972 74.7857,3.15431 77.5,6.5C 75.9382,6.26714 74.6049,5.60048 73.5,4.5C 71.8516,3.07346 69.8516,2.24013 67.5,2C 63.8484,1.50137 60.1817,1.3347 56.5,1.5C 55.8333,1.83333 55.1667,2.16667 54.5,2.5C 54.7822,1.22235 55.4489,0.222348 56.5,-0.5 Z"/></g>
<g><path style="opacity:0.502" fill="#a3b6c5" d="M 54.5,2.5 C 53.962,4.11723 53.6287,5.7839 53.5,7.5C 42.7049,7.94032 32.0382,7.27366 21.5,5.5C 21.2648,4.90326 20.7648,4.56993 20,4.5C 18.5353,6.466 16.7019,7.79933 14.5,8.5C 13.2264,9.18944 13.2264,10.0228 14.5,11C 13.9056,11.4643 13.2389,11.631 12.5,11.5C 11.8333,11.5 11.1667,11.5 10.5,11.5C 9.29177,10.218 7.95844,10.218 6.5,11.5C 7.24585,12.7362 7.57918,14.0695 7.5,15.5C 6.5,15.5 5.5,15.5 4.5,15.5C 4.5,16.8333 4.5,18.1667 4.5,19.5C 3.32496,19.281 2.32496,19.6143 1.5,20.5C 1.62358,21.1067 1.95691,21.44 2.5,21.5C 3.85298,22.5261 4.85298,23.8595 5.5,25.5C 4.28006,27.2837 4.28006,28.9504 5.5,30.5C 4.85917,31.4822 4.19251,32.4822 3.5,33.5C 4.24585,34.7362 4.57918,36.0695 4.5,37.5C 3.66175,37.8417 3.32842,38.5084 3.5,39.5C 2.42166,34.9915 2.42166,30.3248 3.5,25.5C 2.4787,23.812 1.14537,22.4787 -0.5,21.5C -0.5,20.8333 -0.5,20.1667 -0.5,19.5C 0.14987,19.1961 0.816537,18.8627 1.5,18.5C 3.00519,15.478 4.33853,12.478 5.5,9.5C 10.9817,10.0045 14.9817,7.83786 17.5,3C 22.0709,2.74087 26.4043,3.74087 30.5,6C 37.8333,6.66667 45.1667,6.66667 52.5,6C 51.828,4.42069 52.4947,3.25403 54.5,2.5 Z"/></g>
<g><path style="opacity:1" fill="#2f2550" d="M 56.5,1.5 C 60.1817,1.3347 63.8484,1.50137 67.5,2C 69.8516,2.24013 71.8516,3.07346 73.5,4.5C 72.4937,4.93767 72.4937,5.60433 73.5,6.5C 72.5489,7.91866 72.2155,9.58533 72.5,11.5C 70.0518,10.6279 67.8851,9.29458 66,7.5C 62.5065,9.37697 58.6732,10.0436 54.5,9.5C 54.7712,5.1312 57.1045,2.96454 61.5,3C 59.6183,2.80192 57.9516,2.30192 56.5,1.5 Z"/></g>
<g><path style="opacity:1" fill="#cd0a92" d="M 21.5,5.5 C 23.1667,6.16667 24.8333,6.83333 26.5,7.5C 25.5,7.83333 24.8333,8.5 24.5,9.5C 22.6064,8.95244 20.9397,7.95244 19.5,6.5C 19.9569,5.70245 20.6236,5.36912 21.5,5.5 Z"/></g>
<g><path style="opacity:0.016" fill="#c7cfe1" d="M 77.5,6.5 C 81.1667,8.16667 83.8333,10.8333 85.5,14.5C 82.5,12.1667 79.8333,9.5 77.5,6.5 Z"/></g>
<g><path style="opacity:1" fill="#3d4a6e" d="M 56.5,1.5 C 57.9516,2.30192 59.6183,2.80192 61.5,3C 57.1045,2.96454 54.7712,5.1312 54.5,9.5C 49.6367,9.18054 44.97,9.51388 40.5,10.5C 37.3125,8.34333 33.9792,8.01 30.5,9.5C 29.3951,8.39952 28.0618,7.73286 26.5,7.5C 24.8333,6.83333 23.1667,6.16667 21.5,5.5C 32.0382,7.27366 42.7049,7.94032 53.5,7.5C 53.6287,5.7839 53.962,4.11723 54.5,2.5C 55.1667,2.16667 55.8333,1.83333 56.5,1.5 Z"/></g>
<g><path style="opacity:1" fill="#e0eaf0" d="M 73.5,6.5 C 77.8333,10.1667 81.8333,14.1667 85.5,18.5C 85.6716,19.4916 85.3382,20.1583 84.5,20.5C 81.681,17.925 78.681,15.5917 75.5,13.5C 75.0269,12.0937 74.0269,11.427 72.5,11.5C 72.2155,9.58533 72.5489,7.91866 73.5,6.5 Z"/></g>
<g><path style="opacity:1" fill="#e1009f" d="M 14.5,8.5 C 17.3181,9.9697 20.3181,10.9697 23.5,11.5C 24.8083,12.2323 26.1416,13.0656 27.5,14C 26.9056,14.4643 26.2389,14.631 25.5,14.5C 20.7171,14.3646 17.0504,12.3646 14.5,8.5 Z"/></g>
<g><path style="opacity:1" fill="#196a81" d="M 26.5,7.5 C 28.0618,7.73286 29.3951,8.39952 30.5,9.5C 32.256,10.5521 32.9227,12.2188 32.5,14.5C 31.1667,13.5 29.8333,12.5 28.5,11.5C 28.1667,11.5 27.8333,11.5 27.5,11.5C 26.5,10.8333 25.5,10.1667 24.5,9.5C 24.8333,8.5 25.5,7.83333 26.5,7.5 Z"/></g>
<g><path style="opacity:1" fill="#5b0d59" d="M 21.5,5.5 C 20.6236,5.36912 19.9569,5.70245 19.5,6.5C 20.9397,7.95244 22.6064,8.95244 24.5,9.5C 25.5,10.1667 26.5,10.8333 27.5,11.5C 26.1667,11.5 24.8333,11.5 23.5,11.5C 20.3181,10.9697 17.3181,9.9697 14.5,8.5C 16.7019,7.79933 18.5353,6.466 20,4.5C 20.7648,4.56993 21.2648,4.90326 21.5,5.5 Z"/></g>
<g><path style="opacity:1" fill="#01359b" d="M 30.5,9.5 C 33.9792,8.01 37.3125,8.34333 40.5,10.5C 41.2341,11.7079 41.5674,13.0413 41.5,14.5C 39.6208,15.3414 37.6208,15.6747 35.5,15.5C 34.8333,15.5 34.1667,15.5 33.5,15.5C 32.8333,15.5 32.5,15.1667 32.5,14.5C 32.9227,12.2188 32.256,10.5521 30.5,9.5 Z"/></g>
<g><path style="opacity:1" fill="#0a7db4" d="M 72.5,11.5 C 74.0269,11.427 75.0269,12.0937 75.5,13.5C 71.2601,12.0746 70.5934,13.0746 73.5,16.5C 73.5,16.8333 73.5,17.1667 73.5,17.5C 72.448,17.6495 71.448,17.4828 70.5,17C 68.964,15.0402 67.1307,13.5402 65,12.5C 63.6244,12.6842 62.7911,13.3509 62.5,14.5C 60.4924,15.6161 59.4924,17.4494 59.5,20C 59.8646,22.2605 60.5313,24.4272 61.5,26.5C 61.9569,27.2975 62.6236,27.6309 63.5,27.5C 63.5,29.5 63.5,31.5 63.5,33.5C 62.4138,33.62 61.7472,34.2867 61.5,35.5C 63.2743,38.1049 63.9409,40.7716 63.5,43.5C 62.8333,43.5 62.1667,43.5 61.5,43.5C 60.8333,43.8333 60.1667,44.1667 59.5,44.5C 59.2294,42.5695 58.2294,41.2362 56.5,40.5C 57.6935,40.0296 58.3601,39.0296 58.5,37.5C 58.0029,35.1817 57.6695,32.8484 57.5,30.5C 58.2778,29.8444 58.9444,29.0111 59.5,28C 58.7933,24.7999 57.96,21.6332 57,18.5C 55.5993,16.8078 53.7659,16.1412 51.5,16.5C 51.5,15.5 51.5,14.5 51.5,13.5C 48.0613,13.2529 44.728,13.5863 41.5,14.5C 41.5674,13.0413 41.2341,11.7079 40.5,10.5C 44.97,9.51388 49.6367,9.18054 54.5,9.5C 58.6732,10.0436 62.5065,9.37697 66,7.5C 67.8851,9.29458 70.0518,10.6279 72.5,11.5 Z"/></g>
<g><path style="opacity:1" fill="#56125d" d="M 14.5,8.5 C 17.0504,12.3646 20.7171,14.3646 25.5,14.5C 25.6309,15.3764 25.2975,16.0431 24.5,16.5C 23.2638,15.7542 21.9305,15.4208 20.5,15.5C 17.4743,14.5364 14.8076,13.2031 12.5,11.5C 13.2389,11.631 13.9056,11.4643 14.5,11C 13.2264,10.0228 13.2264,9.18944 14.5,8.5 Z"/></g>
<g><path style="opacity:1" fill="#05bcbc" d="M 51.5,16.5 C 51.5,17.1667 51.5,17.8333 51.5,18.5C 50.596,19.209 50.2627,20.209 50.5,21.5C 46.2984,21.8168 42.2984,21.4834 38.5,20.5C 37.8333,20.5 37.1667,20.5 36.5,20.5C 35.5489,19.0813 35.2155,17.4147 35.5,15.5C 37.6208,15.6747 39.6208,15.3414 41.5,14.5C 44.728,13.5863 48.0613,13.2529 51.5,13.5C 51.5,14.5 51.5,15.5 51.5,16.5 Z"/></g>
<g><path style="opacity:1" fill="#840774" d="M 23.5,11.5 C 24.8333,11.5 26.1667,11.5 27.5,11.5C 27.8333,11.5 28.1667,11.5 28.5,11.5C 29.1667,13.5 29.8333,15.5 30.5,17.5C 28.2646,17.2053 26.2646,17.5386 24.5,18.5C 21.8333,18.5 19.1667,18.5 16.5,18.5C 18.2191,17.9779 19.5525,16.9779 20.5,15.5C 21.9305,15.4208 23.2638,15.7542 24.5,16.5C 25.2975,16.0431 25.6309,15.3764 25.5,14.5C 26.2389,14.631 26.9056,14.4643 27.5,14C 26.1416,13.0656 24.8083,12.2323 23.5,11.5 Z"/></g>
<g><path style="opacity:1" fill="#17cfc0" d="M 75.5,13.5 C 78.681,15.5917 81.681,17.925 84.5,20.5C 83.7494,21.5735 82.7494,21.7401 81.5,21C 78.9679,19.2347 76.3013,17.7347 73.5,16.5C 70.5934,13.0746 71.2601,12.0746 75.5,13.5 Z"/></g>
<g><path style="opacity:0.694" fill="#b2b2d3" d="M 85.5,14.5 C 87.2624,15.2623 88.2624,16.5956 88.5,18.5C 86.7376,17.7377 85.7376,16.4044 85.5,14.5 Z"/></g>
<g><path style="opacity:1" fill="#e2009b" d="M 27.5,23.5 C 26.8333,22.5 26.1667,21.5 25.5,20.5C 26.5357,18.3123 28.0357,18.3123 30,20.5C 30.5192,22.4894 29.6859,23.4894 27.5,23.5 Z"/></g>
<g><path style="opacity:1" fill="#0aead7" d="M 38.5,20.5 C 37.1938,19.5326 36.5271,18.1993 36.5,16.5C 39.5184,16.3354 42.5184,16.502 45.5,17C 46.3757,18.5848 47.7091,19.5848 49.5,20C 45.8484,20.4986 42.1817,20.6653 38.5,20.5 Z"/></g>
<g><path style="opacity:1" fill="#17cec3" d="M 73.5,17.5 C 76.2624,19.7247 79.2624,21.7247 82.5,23.5C 83.4339,25.0948 83.4339,26.7615 82.5,28.5C 82.6716,29.4916 82.3382,30.1583 81.5,30.5C 78.0661,33.2142 77.7327,36.2142 80.5,39.5C 80.8333,39.5 81.1667,39.5 81.5,39.5C 81.5789,41.6663 82.2455,43.6663 83.5,45.5C 83.2462,47.4172 82.2462,48.7505 80.5,49.5C 78.4325,48.7372 76.7659,47.4039 75.5,45.5C 74.914,45.7093 74.414,46.0426 74,46.5C 73.51,45.2068 73.3433,43.8734 73.5,42.5C 74.791,42.7373 75.791,42.404 76.5,41.5C 77.8333,37.5 77.8333,33.5 76.5,29.5C 75.0413,29.4326 73.7079,29.7659 72.5,30.5C 72.1667,30.5 71.8333,30.5 71.5,30.5C 70.8536,28.1496 69.687,26.8162 68,26.5C 67.8195,23.3054 67.3195,20.3054 66.5,17.5C 65.7638,15.7706 64.4305,14.7706 62.5,14.5C 62.7911,13.3509 63.6244,12.6842 65,12.5C 67.1307,13.5402 68.964,15.0402 70.5,17C 71.448,17.4828 72.448,17.6495 73.5,17.5 Z"/></g>
<g><path style="opacity:1" fill="#551a5b" d="M 16.5,18.5 C 19.1667,18.5 21.8333,18.5 24.5,18.5C 24.3284,19.4916 24.6618,20.1583 25.5,20.5C 26.1667,21.5 26.8333,22.5 27.5,23.5C 27.7822,24.7777 28.4489,25.7777 29.5,26.5C 28.8333,26.5 28.5,26.8333 28.5,27.5C 26.9142,26.8519 25.2475,26.3519 23.5,26C 24.624,25.7508 25.624,25.2508 26.5,24.5C 26.3764,23.8933 26.0431,23.56 25.5,23.5C 24.4154,21.4131 22.7488,20.0798 20.5,19.5C 16.9405,19.7175 16.9405,20.7175 20.5,22.5C 20.1583,23.3382 19.4916,23.6716 18.5,23.5C 16.9119,21.3843 14.9119,21.051 12.5,22.5C 13.1882,23.8549 14.1882,24.8549 15.5,25.5C 15.6107,26.1174 15.944,26.6174 16.5,27C 15.1667,27.6667 13.8333,27.6667 12.5,27C 12.8333,26.6667 13.1667,26.3333 13.5,26C 12.3128,24.9805 11.3128,23.8139 10.5,22.5C 12.3965,20.9833 14.3965,19.6499 16.5,18.5 Z"/></g>
<g><path style="opacity:1" fill="#500268" d="M 28.5,11.5 C 29.8333,12.5 31.1667,13.5 32.5,14.5C 32.5,15.1667 32.8333,15.5 33.5,15.5C 34.3242,18.7644 34.6576,22.0977 34.5,25.5C 32.7085,25.366 31.0418,25.6993 29.5,26.5C 28.4489,25.7777 27.7822,24.7777 27.5,23.5C 29.6859,23.4894 30.5192,22.4894 30,20.5C 28.0357,18.3123 26.5357,18.3123 25.5,20.5C 24.6618,20.1583 24.3284,19.4916 24.5,18.5C 26.2646,17.5386 28.2646,17.2053 30.5,17.5C 29.8333,15.5 29.1667,13.5 28.5,11.5 Z"/></g>
<g><path style="opacity:1" fill="#dc3fb7" d="M 5.5,25.5 C 4.85298,23.8595 3.85298,22.5261 2.5,21.5C 3.3864,20.2241 4.3864,20.2241 5.5,21.5C 6.04022,22.7481 6.70689,23.9148 7.5,25C 6.90558,25.4643 6.23891,25.631 5.5,25.5 Z"/></g>
<g><path style="opacity:0.863" fill="#939eb0" d="M 88.5,18.5 C 90.4818,20.5016 92.1484,22.8349 93.5,25.5C 92.8333,25.1667 92.1667,24.8333 91.5,24.5C 90.1228,22.7105 89.1228,20.7105 88.5,18.5 Z"/></g>
<g><path style="opacity:1" fill="#041d51" d="M 62.5,14.5 C 64.4305,14.7706 65.7638,15.7706 66.5,17.5C 66.5594,19.7645 65.7261,20.0978 64,18.5C 62.5,18.6667 61.6667,19.5 61.5,21C 63.016,23.0139 64.6827,24.8472 66.5,26.5C 65.675,27.3857 64.675,27.719 63.5,27.5C 62.6236,27.6309 61.9569,27.2975 61.5,26.5C 60.5313,24.4272 59.8646,22.2605 59.5,20C 59.4924,17.4494 60.4924,15.6161 62.5,14.5 Z"/></g>
<g><path style="opacity:1" fill="#2b294f" d="M 51.5,16.5 C 53.7659,16.1412 55.5993,16.8078 57,18.5C 57.96,21.6332 58.7933,24.7999 59.5,28C 58.9444,29.0111 58.2778,29.8444 57.5,30.5C 56.391,30.5569 55.391,30.8902 54.5,31.5C 53.1874,28.4794 51.5208,25.8127 49.5,23.5C 49.8333,22.8333 50.1667,22.1667 50.5,21.5C 50.2627,20.209 50.596,19.209 51.5,18.5C 51.5,17.8333 51.5,17.1667 51.5,16.5 Z"/></g>
<g><path style="opacity:1" fill="#656c99" d="M 51.5,18.5 C 54.1632,21.6574 55.3298,25.3241 55,29.5C 53.675,25.8611 52.5083,22.1944 51.5,18.5 Z"/></g>
<g><path style="opacity:1" fill="#602c67" d="M 10.5,11.5 C 9.50278,11.4701 8.83611,11.9701 8.5,13C 8.95043,14.2853 9.6171,15.452 10.5,16.5C 9.16667,17.1667 7.83333,17.8333 6.5,18.5C 7.93321,21.333 8.59987,24.333 8.5,27.5C 10.9418,27.1192 11.6085,27.7859 10.5,29.5C 12.3964,30.2745 14.063,31.2745 15.5,32.5C 20.806,34.8976 20.806,37.231 15.5,39.5C 14.8333,39.5 14.1667,39.5 13.5,39.5C 14.8001,38.1733 16.1335,36.84 17.5,35.5C 15.9713,34.2371 14.3046,33.2371 12.5,32.5C 9.9716,31.4923 7.80493,29.8257 6,27.5C 5.51722,28.448 5.35055,29.448 5.5,30.5C 4.28006,28.9504 4.28006,27.2837 5.5,25.5C 6.23891,25.631 6.90558,25.4643 7.5,25C 6.70689,23.9148 6.04022,22.7481 5.5,21.5C 4.3864,20.2241 3.3864,20.2241 2.5,21.5C 1.95691,21.44 1.62358,21.1067 1.5,20.5C 2.32496,19.6143 3.32496,19.281 4.5,19.5C 4.5,18.1667 4.5,16.8333 4.5,15.5C 5.5,15.5 6.5,15.5 7.5,15.5C 7.57918,14.0695 7.24585,12.7362 6.5,11.5C 7.95844,10.218 9.29177,10.218 10.5,11.5 Z"/></g>
<g><path style="opacity:1" fill="#141341" d="M 33.5,15.5 C 34.1667,15.5 34.8333,15.5 35.5,15.5C 35.2155,17.4147 35.5489,19.0813 36.5,20.5C 36.8333,26.5 37.1667,32.5 37.5,38.5C 37.5,39.1667 37.5,39.8333 37.5,40.5C 37.5,41.1667 37.1667,41.5 36.5,41.5C 36.6653,37.8183 36.4986,34.1516 36,30.5C 35.2545,29.0096 34.0879,28.0096 32.5,27.5C 31.0202,28.4324 29.6869,28.4324 28.5,27.5C 28.5,26.8333 28.8333,26.5 29.5,26.5C 31.0418,25.6993 32.7085,25.366 34.5,25.5C 34.6576,22.0977 34.3242,18.7644 33.5,15.5 Z"/></g>
<g><path style="opacity:1" fill="#3fd7d5" d="M 66.5,17.5 C 67.3195,20.3054 67.8195,23.3054 68,26.5C 69.687,26.8162 70.8536,28.1496 71.5,30.5C 71.7792,33.1178 72.4459,35.6178 73.5,38C 72.5509,38.6172 71.7175,38.4506 71,37.5C 70.7811,36.062 70.2811,34.7287 69.5,33.5C 68.6572,38.3334 67.6572,43 66.5,47.5C 64.7483,47.4176 63.7483,48.2509 63.5,50C 63.8361,51.0299 64.5028,51.5299 65.5,51.5C 65.5,51.8333 65.5,52.1667 65.5,52.5C 63.194,54.0143 61.8607,53.3476 61.5,50.5C 61.981,47.6857 63.6477,46.3524 66.5,46.5C 66.5,45.5 66.5,44.5 66.5,43.5C 65.5,43.5 64.5,43.5 63.5,43.5C 63.9409,40.7716 63.2743,38.1049 61.5,35.5C 61.7472,34.2867 62.4138,33.62 63.5,33.5C 63.5,31.5 63.5,29.5 63.5,27.5C 64.675,27.719 65.675,27.3857 66.5,26.5C 64.6827,24.8472 63.016,23.0139 61.5,21C 61.6667,19.5 62.5,18.6667 64,18.5C 65.7261,20.0978 66.5594,19.7645 66.5,17.5 Z"/></g>
<g><path style="opacity:1" fill="#cb359d" d="M 10.5,11.5 C 11.1667,11.5 11.8333,11.5 12.5,11.5C 14.8076,13.2031 17.4743,14.5364 20.5,15.5C 19.5525,16.9779 18.2191,17.9779 16.5,18.5C 14.3965,19.6499 12.3965,20.9833 10.5,22.5C 11.3128,23.8139 12.3128,24.9805 13.5,26C 13.1667,26.3333 12.8333,26.6667 12.5,27C 13.8333,27.6667 15.1667,27.6667 16.5,27C 15.944,26.6174 15.6107,26.1174 15.5,25.5C 16.5,24.8333 17.5,24.1667 18.5,23.5C 19.4916,23.6716 20.1583,23.3382 20.5,22.5C 21.625,21.6522 21.625,20.6522 20.5,19.5C 22.7488,20.0798 24.4154,21.4131 25.5,23.5C 23.7354,24.4614 21.7354,24.7947 19.5,24.5C 19.8633,26.9115 18.8633,28.4115 16.5,29C 18.3817,29.1981 20.0484,29.6981 21.5,30.5C 18.9179,30.0254 16.9179,30.6921 15.5,32.5C 14.063,31.2745 12.3964,30.2745 10.5,29.5C 11.6085,27.7859 10.9418,27.1192 8.5,27.5C 8.59987,24.333 7.93321,21.333 6.5,18.5C 7.83333,17.8333 9.16667,17.1667 10.5,16.5C 9.6171,15.452 8.95043,14.2853 8.5,13C 8.83611,11.9701 9.50278,11.4701 10.5,11.5 Z"/></g>
<g><path style="opacity:1" fill="#f082c9" d="M 18.5,23.5 C 17.5,24.1667 16.5,24.8333 15.5,25.5C 14.1882,24.8549 13.1882,23.8549 12.5,22.5C 14.9119,21.051 16.9119,21.3843 18.5,23.5 Z"/></g>
<g><path style="opacity:1" fill="#d8a0c9" d="M 20.5,19.5 C 21.625,20.6522 21.625,21.6522 20.5,22.5C 16.9405,20.7175 16.9405,19.7175 20.5,19.5 Z"/></g>
<g><path style="opacity:1" fill="#01379e" d="M 36.5,20.5 C 37.1667,20.5 37.8333,20.5 38.5,20.5C 42.2984,21.4834 46.2984,21.8168 50.5,21.5C 50.1667,22.1667 49.8333,22.8333 49.5,23.5C 47.6115,24.322 45.6115,25.1553 43.5,26C 42.6198,27.3561 42.2865,28.8561 42.5,30.5C 44.6807,30.2837 46.3474,31.117 47.5,33C 44.791,33.5408 42.791,35.0408 41.5,37.5C 40.3112,38.4287 38.9778,38.762 37.5,38.5C 37.1667,32.5 36.8333,26.5 36.5,20.5 Z"/></g>
<g><path style="opacity:1" fill="#03c8be" d="M 49.5,23.5 C 51.5208,25.8127 53.1874,28.4794 54.5,31.5C 54.5,34.5 54.5,37.5 54.5,40.5C 54.1667,40.5 53.8333,40.5 53.5,40.5C 50.7359,43.1572 47.5693,45.4905 44,47.5C 43.6824,45.9391 42.8491,44.7724 41.5,44C 41.9662,42.7012 41.9662,41.2012 41.5,39.5C 40.0413,39.4326 38.7079,39.7659 37.5,40.5C 37.5,39.8333 37.5,39.1667 37.5,38.5C 38.9778,38.762 40.3112,38.4287 41.5,37.5C 42.791,35.0408 44.791,33.5408 47.5,33C 46.3474,31.117 44.6807,30.2837 42.5,30.5C 42.2865,28.8561 42.6198,27.3561 43.5,26C 45.6115,25.1553 47.6115,24.322 49.5,23.5 Z"/></g>
<g><path style="opacity:1" fill="#680463" d="M 25.5,23.5 C 26.0431,23.56 26.3764,23.8933 26.5,24.5C 25.624,25.2508 24.624,25.7508 23.5,26C 25.2475,26.3519 26.9142,26.8519 28.5,27.5C 29.6869,28.4324 31.0202,28.4324 32.5,27.5C 34.0879,28.0096 35.2545,29.0096 36,30.5C 36.4986,34.1516 36.6653,37.8183 36.5,41.5C 35.2921,42.2341 33.9587,42.5674 32.5,42.5C 33.4756,41.1851 34.4756,39.8518 35.5,38.5C 35,38.1667 34.5,37.8333 34,37.5C 32.9889,38.0556 32.1556,38.7222 31.5,39.5C 29.8439,37.9397 27.8439,36.9397 25.5,36.5C 29.7244,36.9475 31.391,35.2809 30.5,31.5C 28.8144,32.8569 27.1477,34.1902 25.5,35.5C 25.0623,34.4937 24.3957,34.4937 23.5,35.5C 23.8799,33.302 23.2132,31.6354 21.5,30.5C 20.0484,29.6981 18.3817,29.1981 16.5,29C 18.8633,28.4115 19.8633,26.9115 19.5,24.5C 21.7354,24.7947 23.7354,24.4614 25.5,23.5 Z"/></g>
<g><path style="opacity:1" fill="#f02bba" d="M 22.5,28.5 C 23.6009,27.4017 24.9343,27.235 26.5,28C 27.8486,29.6354 27.6819,31.1354 26,32.5C 24.5952,31.2695 23.4286,29.9361 22.5,28.5 Z"/></g>
<g><path style="opacity:1" fill="#74568a" d="M 5.5,30.5 C 8.12472,31.4657 8.12472,32.4657 5.5,33.5C 6.93211,35.297 6.59877,36.6303 4.5,37.5C 4.57918,36.0695 4.24585,34.7362 3.5,33.5C 4.19251,32.4822 4.85917,31.4822 5.5,30.5 Z"/></g>
<g><path style="opacity:1" fill="#029fb5" d="M 57.5,30.5 C 57.6695,32.8484 58.0029,35.1817 58.5,37.5C 58.3601,39.0296 57.6935,40.0296 56.5,40.5C 55.8333,40.5 55.1667,40.5 54.5,40.5C 54.5,37.5 54.5,34.5 54.5,31.5C 55.391,30.8902 56.391,30.5569 57.5,30.5 Z"/></g>
<g><path style="opacity:1" fill="#0e4057" d="M 82.5,28.5 C 83.6484,32.9811 83.8151,37.6478 83,42.5C 82.7679,41.2625 82.2679,40.2625 81.5,39.5C 81.1667,39.5 80.8333,39.5 80.5,39.5C 81.6365,36.409 81.9698,33.409 81.5,30.5C 82.3382,30.1583 82.6716,29.4916 82.5,28.5 Z"/></g>
<g><path style="opacity:1" fill="#e539af" d="M 12.5,32.5 C 11.5,32.5 10.5,32.5 9.5,32.5C 9.29803,34.9496 9.63137,37.283 10.5,39.5C 8.30236,39.1249 6.30236,38.4582 4.5,37.5C 6.59877,36.6303 6.93211,35.297 5.5,33.5C 8.12472,32.4657 8.12472,31.4657 5.5,30.5C 5.35055,29.448 5.51722,28.448 6,27.5C 7.80493,29.8257 9.9716,31.4923 12.5,32.5 Z"/></g>
<g><path style="opacity:1" fill="#e900a9" d="M 25.5,36.5 C 25.5,36.1667 25.5,35.8333 25.5,35.5C 27.1477,34.1902 28.8144,32.8569 30.5,31.5C 31.391,35.2809 29.7244,36.9475 25.5,36.5 Z"/></g>
<g><path style="opacity:1" fill="#e5fdfb" d="M 63.5,33.5 C 65.9118,33.6941 66.9118,35.0274 66.5,37.5C 63.0464,37.7332 62.0464,36.3999 63.5,33.5 Z"/></g>
<g><path style="opacity:1" fill="#0b7583" d="M 81.5,30.5 C 81.9698,33.409 81.6365,36.409 80.5,39.5C 77.7327,36.2142 78.0661,33.2142 81.5,30.5 Z"/></g>
<g><path style="opacity:1" fill="#241742" d="M 86.5,21.5 C 87.3091,23.2922 87.8091,25.2922 88,27.5C 89.3333,28.1667 90.3333,29.1667 91,30.5C 91.6667,34.1667 91.6667,37.8333 91,41.5C 90.6174,42.056 90.1174,42.3893 89.5,42.5C 89.5,41.5 89.5,40.5 89.5,39.5C 88.5,39.5 87.5,39.5 86.5,39.5C 86.5,37.1667 86.5,34.8333 86.5,32.5C 90.31,31.2458 90.31,30.2458 86.5,29.5C 86.5,26.8333 86.5,24.1667 86.5,21.5 Z"/></g>
<g><path style="opacity:1" fill="#e883c6" d="M 12.5,32.5 C 14.3046,33.2371 15.9713,34.2371 17.5,35.5C 16.1335,36.84 14.8001,38.1733 13.5,39.5C 12.5,39.5 11.5,39.5 10.5,39.5C 9.63137,37.283 9.29803,34.9496 9.5,32.5C 10.5,32.5 11.5,32.5 12.5,32.5 Z"/></g>
<g><path style="opacity:1" fill="#0b4b72" d="M 86.5,32.5 C 86.5,34.8333 86.5,37.1667 86.5,39.5C 85.8826,39.6107 85.3826,39.944 85,40.5C 84.3333,37.5 84.3333,34.5 85,31.5C 85.3826,32.056 85.8826,32.3893 86.5,32.5 Z"/></g>
<g><path style="opacity:1" fill="#91347b" d="M 4.5,37.5 C 6.30236,38.4582 8.30236,39.1249 10.5,39.5C 11.5,39.5 12.5,39.5 13.5,39.5C 14.1667,39.5 14.8333,39.5 15.5,39.5C 16.1667,40.1667 16.8333,40.8333 17.5,41.5C 17.0618,41.4346 16.7284,41.6012 16.5,42C 18.0629,42.7589 19.0629,43.9256 19.5,45.5C 17.7367,44.0462 16.4033,44.3796 15.5,46.5C 12.7835,47.6782 12.4501,48.6782 14.5,49.5C 16.8583,49.7475 18.8583,49.0808 20.5,47.5C 20.8333,47.5 21.1667,47.5 21.5,47.5C 21.8034,50.5876 20.4701,52.2542 17.5,52.5C 15.9826,52.5106 14.8159,53.1772 14,54.5C 13.3828,53.5509 13.5494,52.7175 14.5,52C 13.1667,51 11.8333,50 10.5,49C 14.2753,46.756 14.2753,44.9227 10.5,43.5C 10.2172,42.7109 9.71719,42.0442 9,41.5C 7.9609,42.7101 6.79423,43.7101 5.5,44.5C 4.83333,42.8333 4.16667,41.1667 3.5,39.5C 3.32842,38.5084 3.66175,37.8417 4.5,37.5 Z"/></g>
<g><path style="opacity:1" fill="#e930c3" d="M 21.5,30.5 C 23.2132,31.6354 23.8799,33.302 23.5,35.5C 24.7309,40.27 22.7309,42.27 17.5,41.5C 16.8333,40.8333 16.1667,40.1667 15.5,39.5C 20.806,37.231 20.806,34.8976 15.5,32.5C 16.9179,30.6921 18.9179,30.0254 21.5,30.5 Z"/></g>
<g><path style="opacity:1" fill="#e307a1" d="M 32.5,42.5 C 31.7611,42.631 31.0944,42.4643 30.5,42C 31.2524,41.3292 31.5858,40.4959 31.5,39.5C 32.1556,38.7222 32.9889,38.0556 34,37.5C 34.5,37.8333 35,38.1667 35.5,38.5C 34.4756,39.8518 33.4756,41.1851 32.5,42.5 Z"/></g>
<g><path style="opacity:1" fill="#0f3d65" d="M 76.5,41.5 C 71.9752,41.2157 71.3085,39.3824 74.5,36C 74.0791,34.0107 73.4124,32.1773 72.5,30.5C 73.7079,29.7659 75.0413,29.4326 76.5,29.5C 77.8333,33.5 77.8333,37.5 76.5,41.5 Z"/></g>
<g><path style="opacity:1" fill="#10102f" d="M 91.5,24.5 C 92.1667,24.8333 92.8333,25.1667 93.5,25.5C 94.8722,29.104 96.5389,32.604 98.5,36C 96.7617,38.6432 95.4284,41.4765 94.5,44.5C 93.8333,44.8333 93.1667,45.1667 92.5,45.5C 94.1445,38.3759 93.8112,31.3759 91.5,24.5 Z"/></g>
<g><path style="opacity:0.02" fill="#b4bccb" d="M 93.5,25.5 C 95.9866,27.8089 97.9866,30.4756 99.5,33.5C 99.5,35.1667 99.5,36.8333 99.5,38.5C 97.8333,40.5 96.1667,42.5 94.5,44.5C 95.4284,41.4765 96.7617,38.6432 98.5,36C 96.5389,32.604 94.8722,29.104 93.5,25.5 Z"/></g>
<g><path style="opacity:1" fill="#01cec5" d="M 53.5,40.5 C 51.1972,45.0125 50.5306,49.6791 51.5,54.5C 51.5,55.5 51.5,56.5 51.5,57.5C 48.1667,57.5 44.8333,57.5 41.5,57.5C 39.082,56.7069 37.082,55.3736 35.5,53.5C 36.4834,49.7016 36.8168,45.7016 36.5,41.5C 37.1667,41.5 37.5,41.1667 37.5,40.5C 38.7079,39.7659 40.0413,39.4326 41.5,39.5C 41.9662,41.2012 41.9662,42.7012 41.5,44C 42.8491,44.7724 43.6824,45.9391 44,47.5C 47.5693,45.4905 50.7359,43.1572 53.5,40.5 Z"/></g>
<g><path style="opacity:1" fill="#0bcdc6" d="M 71.5,30.5 C 71.8333,30.5 72.1667,30.5 72.5,30.5C 73.4124,32.1773 74.0791,34.0107 74.5,36C 71.3085,39.3824 71.9752,41.2157 76.5,41.5C 75.791,42.404 74.791,42.7373 73.5,42.5C 73.3433,43.8734 73.51,45.2068 74,46.5C 74.414,46.0426 74.914,45.7093 75.5,45.5C 76.7659,47.4039 78.4325,48.7372 80.5,49.5C 77.6032,51.7783 74.2699,53.2783 70.5,54C 68.7866,55.3782 67.4533,57.0448 66.5,59C 65.552,59.4828 64.552,59.6495 63.5,59.5C 63.5,58.5 63.5,57.5 63.5,56.5C 65.8061,55.625 66.4728,54.2916 65.5,52.5C 65.5,52.1667 65.5,51.8333 65.5,51.5C 66.2341,50.2921 66.5674,48.9587 66.5,47.5C 67.6572,43 68.6572,38.3334 69.5,33.5C 70.2811,34.7287 70.7811,36.062 71,37.5C 71.7175,38.4506 72.5509,38.6172 73.5,38C 72.4459,35.6178 71.7792,33.1178 71.5,30.5 Z"/></g>
<g><path style="opacity:1" fill="#041c4b" d="M 61.5,43.5 C 62.1667,43.5 62.8333,43.5 63.5,43.5C 64.5,43.5 65.5,43.5 66.5,43.5C 66.5,44.5 66.5,45.5 66.5,46.5C 63.6477,46.3524 61.981,47.6857 61.5,50.5C 61.8607,53.3476 63.194,54.0143 65.5,52.5C 66.4728,54.2916 65.8061,55.625 63.5,56.5C 63.1667,56.5 62.8333,56.5 62.5,56.5C 60.3891,55.2305 59.3891,53.2305 59.5,50.5C 59.8864,48.0678 60.5531,45.7345 61.5,43.5 Z"/></g>
<g><path style="opacity:1" fill="#0588b6" d="M 73.5,16.5 C 76.3013,17.7347 78.9679,19.2347 81.5,21C 82.7494,21.7401 83.7494,21.5735 84.5,20.5C 85.3382,20.1583 85.6716,19.4916 85.5,18.5C 86.404,19.209 86.7373,20.209 86.5,21.5C 86.5,24.1667 86.5,26.8333 86.5,29.5C 90.31,30.2458 90.31,31.2458 86.5,32.5C 85.8826,32.3893 85.3826,32.056 85,31.5C 84.3333,34.5 84.3333,37.5 85,40.5C 85.3826,39.944 85.8826,39.6107 86.5,39.5C 87.5,39.5 88.5,39.5 89.5,39.5C 89.5,40.5 89.5,41.5 89.5,42.5C 88.8153,44.4144 88.3153,46.4144 88,48.5C 87.2917,49.3805 86.4584,50.0472 85.5,50.5C 84.7494,49.4265 83.7494,49.2599 82.5,50C 78.5296,52.3118 74.863,54.9784 71.5,58C 72.0944,58.4643 72.7611,58.631 73.5,58.5C 73.5,59.1667 73.1667,59.5 72.5,59.5C 71.391,59.5569 70.391,59.8902 69.5,60.5C 66.5,60.5 63.5,60.5 60.5,60.5C 60.5271,58.8007 61.1938,57.4674 62.5,56.5C 62.8333,56.5 63.1667,56.5 63.5,56.5C 63.5,57.5 63.5,58.5 63.5,59.5C 64.552,59.6495 65.552,59.4828 66.5,59C 67.4533,57.0448 68.7866,55.3782 70.5,54C 74.2699,53.2783 77.6032,51.7783 80.5,49.5C 82.2462,48.7505 83.2462,47.4172 83.5,45.5C 82.2455,43.6663 81.5789,41.6663 81.5,39.5C 82.2679,40.2625 82.7679,41.2625 83,42.5C 83.8151,37.6478 83.6484,32.9811 82.5,28.5C 83.4339,26.7615 83.4339,25.0948 82.5,23.5C 79.2624,21.7247 76.2624,19.7247 73.5,17.5C 73.5,17.1667 73.5,16.8333 73.5,16.5 Z"/></g>
<g><path style="opacity:1" fill="#a9a6c8" d="M 92.5,45.5 C 93.1667,45.1667 93.8333,44.8333 94.5,44.5C 93.674,46.2644 92.3407,47.5977 90.5,48.5C 90.3398,46.8008 90.5065,45.1341 91,43.5C 91.2784,44.4158 91.7784,45.0825 92.5,45.5 Z"/></g>
<g><path style="opacity:1" fill="#37154d" d="M 25.5,35.5 C 25.5,35.8333 25.5,36.1667 25.5,36.5C 27.8439,36.9397 29.8439,37.9397 31.5,39.5C 31.5858,40.4959 31.2524,41.3292 30.5,42C 31.0944,42.4643 31.7611,42.631 32.5,42.5C 33.9587,42.5674 35.2921,42.2341 36.5,41.5C 36.8168,45.7016 36.4834,49.7016 35.5,53.5C 34.8333,53.8333 34.1667,54.1667 33.5,54.5C 34.299,51.5701 34.6323,48.5701 34.5,45.5C 31.9179,45.0254 29.9179,45.6921 28.5,47.5C 27.8333,47.5 27.5,47.8333 27.5,48.5C 26.9033,48.2648 26.5699,47.7648 26.5,47C 27.8749,44.6846 28.8749,42.1846 29.5,39.5C 28.0416,38.218 26.7082,38.218 25.5,39.5C 24.5275,41.1392 23.1942,42.4726 21.5,43.5C 20.9569,43.56 20.6236,43.8933 20.5,44.5C 22.0777,45.2978 23.7444,45.7978 25.5,46C 23.9419,46.21 22.6085,46.71 21.5,47.5C 21.1667,47.5 20.8333,47.5 20.5,47.5C 20.1667,46.8333 19.8333,46.1667 19.5,45.5C 19.0629,43.9256 18.0629,42.7589 16.5,42C 16.7284,41.6012 17.0618,41.4346 17.5,41.5C 22.7309,42.27 24.7309,40.27 23.5,35.5C 24.3957,34.4937 25.0623,34.4937 25.5,35.5 Z"/></g>
<g><path style="opacity:1" fill="#f33dd0" d="M 25.5,39.5 C 26.9177,41.9876 26.0844,43.6542 23,44.5C 22.2352,44.4301 21.7352,44.0967 21.5,43.5C 23.1942,42.4726 24.5275,41.1392 25.5,39.5 Z"/></g>
<g><path style="opacity:1" fill="#56275b" d="M 10.5,43.5 C 8.89277,47.2656 6.89277,50.9322 4.5,54.5C 4.5,53.5 4.5,52.5 4.5,51.5C 6.345,50.0045 6.67833,48.3379 5.5,46.5C 5.5,45.8333 5.5,45.1667 5.5,44.5C 6.79423,43.7101 7.9609,42.7101 9,41.5C 9.71719,42.0442 10.2172,42.7109 10.5,43.5 Z"/></g>
<g><path style="opacity:1" fill="#ef47b5" d="M 19.5,45.5 C 19.8333,46.1667 20.1667,46.8333 20.5,47.5C 18.8583,49.0808 16.8583,49.7475 14.5,49.5C 15.1098,48.609 15.4431,47.609 15.5,46.5C 16.4033,44.3796 17.7367,44.0462 19.5,45.5 Z"/></g>
<g><path style="opacity:1" fill="#312c4a" d="M 53.5,40.5 C 53.8333,40.5 54.1667,40.5 54.5,40.5C 55.1667,40.5 55.8333,40.5 56.5,40.5C 58.2294,41.2362 59.2294,42.5695 59.5,44.5C 58.2289,47.3429 57.3955,50.3429 57,53.5C 55.3005,54.4061 53.4672,54.7394 51.5,54.5C 50.5306,49.6791 51.1972,45.0125 53.5,40.5 Z"/></g>
<g><path style="opacity:1" fill="#f0b7e8" d="M 15.5,46.5 C 15.4431,47.609 15.1098,48.609 14.5,49.5C 12.4501,48.6782 12.7835,47.6782 15.5,46.5 Z"/></g>
<g><path style="opacity:1" fill="#bc4497" d="M 5.5,46.5 C 6.67833,48.3379 6.345,50.0045 4.5,51.5C 3.44802,51.6495 2.44802,51.4828 1.5,51C 2.73317,49.3333 4.0665,47.8333 5.5,46.5 Z"/></g>
<g><path style="opacity:1" fill="#e3fbfa" d="M 66.5,47.5 C 66.5674,48.9587 66.2341,50.2921 65.5,51.5C 64.5028,51.5299 63.8361,51.0299 63.5,50C 63.7483,48.2509 64.7483,47.4176 66.5,47.5 Z"/></g>
<g><path style="opacity:0.714" fill="#acb7c6" d="M 3.5,39.5 C 4.16667,41.1667 4.83333,42.8333 5.5,44.5C 5.5,45.1667 5.5,45.8333 5.5,46.5C 4.0665,47.8333 2.73317,49.3333 1.5,51C 2.44802,51.4828 3.44802,51.6495 4.5,51.5C 4.5,52.5 4.5,53.5 4.5,54.5C 4.5,54.8333 4.5,55.1667 4.5,55.5C 4.5,56.1667 4.83333,56.5 5.5,56.5C 4.79105,57.404 3.79105,57.7373 2.5,57.5C 2.33003,56.1779 2.66337,55.0113 3.5,54C 2.25501,53.2086 0.921673,52.7086 -0.5,52.5C -0.5,51.5 -0.5,50.5 -0.5,49.5C 1.5638,49.2381 2.89713,48.0714 3.5,46C 2.3947,43.8797 2.3947,41.7131 3.5,39.5 Z"/></g>
<g><path style="opacity:1" fill="#d63faa" d="M 10.5,43.5 C 14.2753,44.9227 14.2753,46.756 10.5,49C 11.8333,50 13.1667,51 14.5,52C 13.5494,52.7175 13.3828,53.5509 14,54.5C 14.8159,53.1772 15.9826,52.5106 17.5,52.5C 18.9516,53.3019 20.6183,53.8019 22.5,54C 18.8373,56.5665 15.1706,58.7331 11.5,60.5C 10.1667,60.5 8.83333,60.5 7.5,60.5C 7.96166,58.2433 8.96166,56.2433 10.5,54.5C 10.1667,54.1667 9.83333,53.8333 9.5,53.5C 7.92464,54.4565 6.25797,55.1231 4.5,55.5C 4.5,55.1667 4.5,54.8333 4.5,54.5C 6.89277,50.9322 8.89277,47.2656 10.5,43.5 Z"/></g>
<g><path style="opacity:1" fill="#e9039e" d="M 28.5,47.5 C 31.151,49.134 31.151,50.8006 28.5,52.5C 27.325,52.719 26.325,52.3857 25.5,51.5C 26.1925,50.4822 26.8592,49.4822 27.5,48.5C 27.5,47.8333 27.8333,47.5 28.5,47.5 Z"/></g>
<g><path style="opacity:0.984" fill="#412f75" d="M 73.5,4.5 C 74.6049,5.60048 75.9382,6.26714 77.5,6.5C 79.8333,9.5 82.5,12.1667 85.5,14.5C 85.7376,16.4044 86.7376,17.7377 88.5,18.5C 89.1228,20.7105 90.1228,22.7105 91.5,24.5C 93.8112,31.3759 94.1445,38.3759 92.5,45.5C 91.7784,45.0825 91.2784,44.4158 91,43.5C 90.5065,45.1341 90.3398,46.8008 90.5,48.5C 87.7805,50.2193 85.7805,52.5526 84.5,55.5C 83.5,55.8333 82.8333,56.5 82.5,57.5C 80.7697,58.0256 79.4363,59.0256 78.5,60.5C 76.5,60.5 74.5,60.5 72.5,60.5C 72.5,60.1667 72.5,59.8333 72.5,59.5C 73.1667,59.5 73.5,59.1667 73.5,58.5C 78.3019,57.0306 82.3019,54.364 85.5,50.5C 86.4584,50.0472 87.2917,49.3805 88,48.5C 88.3153,46.4144 88.8153,44.4144 89.5,42.5C 90.1174,42.3893 90.6174,42.056 91,41.5C 91.6667,37.8333 91.6667,34.1667 91,30.5C 90.3333,29.1667 89.3333,28.1667 88,27.5C 87.8091,25.2922 87.3091,23.2922 86.5,21.5C 86.7373,20.209 86.404,19.209 85.5,18.5C 81.8333,14.1667 77.8333,10.1667 73.5,6.5C 72.4937,5.60433 72.4937,4.93767 73.5,4.5 Z"/></g>
<g><path style="opacity:0.02" fill="#d9d7e7" d="M 90.5,48.5 C 89.1897,51.4732 87.1897,53.8065 84.5,55.5C 85.7805,52.5526 87.7805,50.2193 90.5,48.5 Z"/></g>
<g><path style="opacity:1" fill="#5e086c" d="M 33.5,54.5 C 32.8333,55.8333 32.1667,57.1667 31.5,58.5C 29.0189,59.7197 27.0189,61.3863 25.5,63.5C 25.5,64.1667 25.1667,64.5 24.5,64.5C 24.6309,63.6236 24.2975,62.9569 23.5,62.5C 21.7697,63.0256 20.4363,64.0256 19.5,65.5C 19.9569,66.2975 20.6236,66.6309 21.5,66.5C 20.791,67.404 19.791,67.7373 18.5,67.5C 18.5,66.5 18.5,65.5 18.5,64.5C 16.7085,64.634 15.0418,64.3007 13.5,63.5C 13.3284,62.5084 13.6618,61.8417 14.5,61.5C 14.7352,62.0967 15.2352,62.4301 16,62.5C 19.9438,60.7717 23.7772,59.105 27.5,57.5C 31.1667,56.5 31.5,54.8333 28.5,52.5C 31.151,50.8006 31.151,49.134 28.5,47.5C 29.9179,45.6921 31.9179,45.0254 34.5,45.5C 34.6323,48.5701 34.299,51.5701 33.5,54.5 Z"/></g>
<g><path style="opacity:1" fill="#07c3c6" d="M 85.5,50.5 C 82.3019,54.364 78.3019,57.0306 73.5,58.5C 72.7611,58.631 72.0944,58.4643 71.5,58C 74.863,54.9784 78.5296,52.3118 82.5,50C 83.7494,49.2599 84.7494,49.4265 85.5,50.5 Z"/></g>
<g><path style="opacity:1" fill="#790c6b" d="M 25.5,39.5 C 26.7082,38.218 28.0416,38.218 29.5,39.5C 28.8749,42.1846 27.8749,44.6846 26.5,47C 26.5699,47.7648 26.9033,48.2648 27.5,48.5C 26.8592,49.4822 26.1925,50.4822 25.5,51.5C 26.325,52.3857 27.325,52.719 28.5,52.5C 31.5,54.8333 31.1667,56.5 27.5,57.5C 27.44,56.9569 27.1067,56.6236 26.5,56.5C 23.6919,57.9696 20.6919,58.8029 17.5,59C 16.6266,60.045 15.6266,60.8783 14.5,61.5C 14.1959,59.2043 13.1959,58.871 11.5,60.5C 15.1706,58.7331 18.8373,56.5665 22.5,54C 20.6183,53.8019 18.9516,53.3019 17.5,52.5C 20.4701,52.2542 21.8034,50.5876 21.5,47.5C 22.6085,46.71 23.9419,46.21 25.5,46C 23.7444,45.7978 22.0777,45.2978 20.5,44.5C 20.6236,43.8933 20.9569,43.56 21.5,43.5C 21.7352,44.0967 22.2352,44.4301 23,44.5C 26.0844,43.6542 26.9177,41.9876 25.5,39.5 Z"/></g>
<g><path style="opacity:0.843" fill="#615b7b" d="M 7.5,60.5 C 6.66175,60.1583 6.32842,59.4916 6.5,58.5C 6.67158,57.5084 6.33825,56.8417 5.5,56.5C 4.83333,56.5 4.5,56.1667 4.5,55.5C 6.25797,55.1231 7.92464,54.4565 9.5,53.5C 9.83333,53.8333 10.1667,54.1667 10.5,54.5C 8.96166,56.2433 7.96166,58.2433 7.5,60.5 Z"/></g>
<g><path style="opacity:1" fill="#043c9d" d="M 35.5,53.5 C 37.082,55.3736 39.082,56.7069 41.5,57.5C 41.3713,59.2161 41.038,60.8828 40.5,62.5C 37.1667,62.5 33.8333,62.5 30.5,62.5C 31.2778,61.8444 31.9444,61.0111 32.5,60C 32.4301,59.2352 32.0967,58.7352 31.5,58.5C 32.1667,57.1667 32.8333,55.8333 33.5,54.5C 34.1667,54.1667 34.8333,53.8333 35.5,53.5 Z"/></g>
<g><path style="opacity:0.02" fill="#d0d7e5" d="M 84.5,55.5 C 84.5,56.8333 83.8333,57.5 82.5,57.5C 82.8333,56.5 83.5,55.8333 84.5,55.5 Z"/></g>
<g><path style="opacity:1" fill="#007bbe" d="M 61.5,43.5 C 60.5531,45.7345 59.8864,48.0678 59.5,50.5C 59.3891,53.2305 60.3891,55.2305 62.5,56.5C 61.1938,57.4674 60.5271,58.8007 60.5,60.5C 63.5,60.5 66.5,60.5 69.5,60.5C 60.0256,61.7765 50.3589,62.4431 40.5,62.5C 41.038,60.8828 41.3713,59.2161 41.5,57.5C 44.8333,57.5 48.1667,57.5 51.5,57.5C 51.5,56.5 51.5,55.5 51.5,54.5C 53.4672,54.7394 55.3005,54.4061 57,53.5C 57.3955,50.3429 58.2289,47.3429 59.5,44.5C 60.1667,44.1667 60.8333,43.8333 61.5,43.5 Z"/></g>
<g><path style="opacity:1" fill="#e5009c" d="M 27.5,57.5 C 23.7772,59.105 19.9438,60.7717 16,62.5C 15.2352,62.4301 14.7352,62.0967 14.5,61.5C 15.6266,60.8783 16.6266,60.045 17.5,59C 20.6919,58.8029 23.6919,57.9696 26.5,56.5C 27.1067,56.6236 27.44,56.9569 27.5,57.5 Z"/></g>
<g><path style="opacity:0.071" fill="#ced9e4" d="M 82.5,57.5 C 81.9653,59.4456 80.632,60.4456 78.5,60.5C 79.4363,59.0256 80.7697,58.0256 82.5,57.5 Z"/></g>
<g><path style="opacity:0.114" fill="#bed7e1" d="M 6.5,58.5 C 6.32842,59.4916 6.66175,60.1583 7.5,60.5C 8.83333,60.5 10.1667,60.5 11.5,60.5C 13.1959,58.871 14.1959,59.2043 14.5,61.5C 13.6618,61.8417 13.3284,62.5084 13.5,63.5C 12.8485,62.9094 12.1818,62.2427 11.5,61.5C 9.90167,62.4847 8.23501,62.6514 6.5,62C 5.20891,60.7083 5.20891,59.5417 6.5,58.5 Z"/></g>
<g><path style="opacity:1" fill="#0a7c80" d="M 31.5,58.5 C 32.0967,58.7352 32.4301,59.2352 32.5,60C 31.9444,61.0111 31.2778,61.8444 30.5,62.5C 28.9582,63.3007 27.2915,63.634 25.5,63.5C 27.0189,61.3863 29.0189,59.7197 31.5,58.5 Z"/></g>
<g><path style="opacity:1" fill="#d8059f" d="M 24.5,64.5 C 22.9731,64.427 21.9731,65.0937 21.5,66.5C 20.6236,66.6309 19.9569,66.2975 19.5,65.5C 20.4363,64.0256 21.7697,63.0256 23.5,62.5C 24.2975,62.9569 24.6309,63.6236 24.5,64.5 Z"/></g>
<g><path style="opacity:1" fill="#302b54" d="M 72.5,59.5 C 72.5,59.8333 72.5,60.1667 72.5,60.5C 72.5,62.1667 72.5,63.8333 72.5,65.5C 71.5,65.5 70.5,65.5 69.5,65.5C 69.7804,68.3882 68.4471,69.8882 65.5,70C 61.7446,70.7554 58.0779,70.5887 54.5,69.5C 54.1307,67.5588 53.464,65.7255 52.5,64C 45.1667,63.3333 37.8333,63.3333 30.5,64C 29.944,64.3826 29.6107,64.8826 29.5,65.5C 26.8728,66.0916 24.2062,66.4249 21.5,66.5C 21.9731,65.0937 22.9731,64.427 24.5,64.5C 25.1667,64.5 25.5,64.1667 25.5,63.5C 27.2915,63.634 28.9582,63.3007 30.5,62.5C 33.8333,62.5 37.1667,62.5 40.5,62.5C 50.3589,62.4431 60.0256,61.7765 69.5,60.5C 70.391,59.8902 71.391,59.5569 72.5,59.5 Z"/></g>
<g><path style="opacity:0.151" fill="#a6b3be" d="M 54.5,69.5 C 52.4947,68.746 51.828,67.5793 52.5,66C 44.8406,65.5003 37.1739,65.3336 29.5,65.5C 29.6107,64.8826 29.944,64.3826 30.5,64C 37.8333,63.3333 45.1667,63.3333 52.5,64C 53.464,65.7255 54.1307,67.5588 54.5,69.5 Z"/></g>
<g><path style="opacity:0.325" fill="#c1d4dd" d="M 13.5,63.5 C 15.0418,64.3007 16.7085,64.634 18.5,64.5C 18.5,65.5 18.5,66.5 18.5,67.5C 19.791,67.7373 20.791,67.404 21.5,66.5C 24.2062,66.4249 26.8728,66.0916 29.5,65.5C 25.924,67.7276 21.924,68.7276 17.5,68.5C 17.5,67.5 17.5,66.5 17.5,65.5C 15.5168,65.8432 14.1834,65.1765 13.5,63.5 Z"/></g>
<g><path style="opacity:0.004" fill="#aec0d0" d="M 72.5,60.5 C 74.5,60.5 76.5,60.5 78.5,60.5C 77.0813,61.4511 75.4147,61.7845 73.5,61.5C 73.6602,63.1992 73.4935,64.8659 73,66.5C 71.3664,68.0621 69.8664,69.7287 68.5,71.5C 63.8333,71.5 59.1667,71.5 54.5,71.5C 54.5,70.8333 54.5,70.1667 54.5,69.5C 58.0779,70.5887 61.7446,70.7554 65.5,70C 68.4471,69.8882 69.7804,68.3882 69.5,65.5C 70.5,65.5 71.5,65.5 72.5,65.5C 72.5,63.8333 72.5,62.1667 72.5,60.5 Z"/></g>
</svg>
