<?xml version="1.0" encoding="UTF-8"?>
<!DOCTYPE svg PUBLIC "-//W3C//DTD SVG 1.1//EN" "http://www.w3.org/Graphics/SVG/1.1/DTD/svg11.dtd">
<svg xmlns="http://www.w3.org/2000/svg" version="1.1" width="100px" height="96px" style="shape-rendering:geometricPrecision; text-rendering:geometricPrecision; image-rendering:optimizeQuality; fill-rule:evenodd; clip-rule:evenodd" xmlns:xlink="http://www.w3.org/1999/xlink">
<g><path style="opacity:0.49" fill="#bfd3e0" d="M 43.5,-0.5 C 43.8333,-0.5 44.1667,-0.5 44.5,-0.5C 45.1847,1.41444 45.6847,3.41444 46,5.5C 47.3287,4.50611 48.662,3.50611 50,2.5C 54.2341,3.21745 58.0674,2.21745 61.5,-0.5C 62.8333,-0.5 64.1667,-0.5 65.5,-0.5C 66.9516,0.301916 68.6183,0.801916 70.5,1C 73.5335,3.90123 76.8668,6.40123 80.5,8.5C 82.3912,14.5971 85.7245,19.5971 90.5,23.5C 89.8333,23.5 89.1667,23.5 88.5,23.5C 85.7533,21.7573 83.7533,19.4239 82.5,16.5C 82.1667,15.5 81.5,14.8333 80.5,14.5C 80.5,12.8333 80.5,11.1667 80.5,9.5C 79.0222,9.76202 77.6888,9.42869 76.5,8.5C 75.0892,6.08605 73.0892,4.41938 70.5,3.5C 70.3893,2.88258 70.056,2.38258 69.5,2C 65.9733,1.1925 62.6399,1.35916 59.5,2.5C 58.8333,3.16667 58.1667,3.83333 57.5,4.5C 54.8543,4.8916 52.3543,4.8916 50,4.5C 49.0053,5.06594 48.172,5.73261 47.5,6.5C 46.5,6.5 45.5,6.5 44.5,6.5C 44.7852,4.71199 44.4519,3.04533 43.5,1.5C 42.8333,2.16667 42.1667,2.83333 41.5,3.5C 39.8014,2.18537 38.1347,2.18537 36.5,3.5C 36.4142,2.5041 36.7476,1.67076 37.5,1C 39.7078,0.809116 41.7078,0.309116 43.5,-0.5 Z"/></g>
<g><path style="opacity:1" fill="#274e68" d="M 57.5,4.5 C 55.7185,6.35697 53.3852,7.35697 50.5,7.5C 49.791,6.59603 48.791,6.26269 47.5,6.5C 48.172,5.73261 49.0053,5.06594 50,4.5C 52.3543,4.8916 54.8543,4.8916 57.5,4.5 Z"/></g>
<g><path style="opacity:0.188" fill="#adbacc" d="M 30.5,-0.5 C 31.5,-0.5 32.5,-0.5 33.5,-0.5C 34.5116,0.871651 35.5116,2.20498 36.5,3.5C 36.1667,4.16667 35.8333,4.83333 35.5,5.5C 34.8333,5.5 34.1667,5.5 33.5,5.5C 33.5,4.16667 33.5,2.83333 33.5,1.5C 30.8333,2.83333 28.1667,4.16667 25.5,5.5C 22.4171,8.99915 20.4171,12.9991 19.5,17.5C 15.6065,17.1098 11.9398,17.7765 8.5,19.5C 9,19.8333 9.5,20.1667 10,20.5C 11.4681,19.3722 13.1348,18.7055 15,18.5C 16.3756,18.6842 17.2089,19.3509 17.5,20.5C 16.391,20.5569 15.391,20.8902 14.5,21.5C 14.2144,19.0673 13.5477,19.0673 12.5,21.5C 7.83333,21.5 5.5,23.8333 5.5,28.5C 4.66175,28.8417 4.32842,29.5084 4.5,30.5C 3.83333,30.5 3.5,30.8333 3.5,31.5C 2.16667,31.5 0.833333,31.5 -0.5,31.5C -0.5,29.1667 -0.5,26.8333 -0.5,24.5C 2.58212,22.9252 5.24878,20.7585 7.5,18C 11.0601,16.7633 14.7267,16.2633 18.5,16.5C 18.3398,14.8008 18.5065,13.1341 19,11.5C 20.8889,9.51716 22.2223,7.18382 23,4.5C 24.3333,3.16667 25.6667,3.16667 27,4.5C 27.9973,2.67694 29.1639,1.01027 30.5,-0.5 Z M 14.5,21.5 C 13.8333,21.5 13.1667,21.5 12.5,21.5C 13.5477,19.0673 14.2144,19.0673 14.5,21.5 Z"/></g>
<g><path style="opacity:1" fill="#04e4d2" d="M 59.5,2.5 C 61.924,2.19244 64.2573,2.52577 66.5,3.5C 62.6252,3.70526 60.9585,5.70526 61.5,9.5C 59.901,9.23219 58.5676,9.56552 57.5,10.5C 56.8501,10.8039 56.1835,11.1373 55.5,11.5C 53.5106,10.3681 51.8439,9.03478 50.5,7.5C 53.3852,7.35697 55.7185,6.35697 57.5,4.5C 58.1667,3.83333 58.8333,3.16667 59.5,2.5 Z"/></g>
<g><path style="opacity:1" fill="#2e7298" d="M 70.5,3.5 C 73.0892,4.41938 75.0892,6.08605 76.5,8.5C 77.6888,9.42869 79.0222,9.76202 80.5,9.5C 80.5,11.1667 80.5,12.8333 80.5,14.5C 79.5655,13.4324 79.2322,12.099 79.5,10.5C 75.9488,9.72485 72.6154,8.39151 69.5,6.5C 68.2021,4.94835 68.5354,3.94835 70.5,3.5 Z"/></g>
<g><path style="opacity:1" fill="#3d2a5e" d="M 33.5,5.5 C 33.6107,6.11742 33.944,6.61742 34.5,7C 31.3347,9.33472 28.3347,11.8347 25.5,14.5C 24.7562,11.3168 24.7562,8.31683 25.5,5.5C 28.1667,4.16667 30.8333,2.83333 33.5,1.5C 33.5,2.83333 33.5,4.16667 33.5,5.5 Z"/></g>
<g><path style="opacity:1" fill="#145592" d="M 59.5,2.5 C 62.6399,1.35916 65.9733,1.1925 69.5,2C 70.056,2.38258 70.3893,2.88258 70.5,3.5C 68.5354,3.94835 68.2021,4.94835 69.5,6.5C 72.6154,8.39151 75.9488,9.72485 79.5,10.5C 79.2322,12.099 79.5655,13.4324 80.5,14.5C 81.5,14.8333 82.1667,15.5 82.5,16.5C 82.5,17.1667 82.5,17.8333 82.5,18.5C 80.5441,16.8516 78.2108,16.1849 75.5,16.5C 75.5,15.5 75.5,14.5 75.5,13.5C 72.213,12.736 69.5463,10.9027 67.5,8C 65.1261,7.25679 63.1261,7.75679 61.5,9.5C 60.9585,5.70526 62.6252,3.70526 66.5,3.5C 64.2573,2.52577 61.924,2.19244 59.5,2.5 Z"/></g>
<g><path style="opacity:1" fill="#1a1143" d="M 47.5,6.5 C 48.791,6.26269 49.791,6.59603 50.5,7.5C 51.8439,9.03478 53.5106,10.3681 55.5,11.5C 56.1835,11.1373 56.8501,10.8039 57.5,10.5C 57.5,11.8333 57.5,13.1667 57.5,14.5C 55.5,14.5 53.5,14.5 51.5,14.5C 51.5,15.5 51.5,16.5 51.5,17.5C 50.6758,20.7644 50.3424,24.0977 50.5,27.5C 48.3888,26.6201 46.3888,26.6201 44.5,27.5C 44.2069,24.2457 44.8736,21.2457 46.5,18.5C 45.9935,17.1411 44.9935,16.1411 43.5,15.5C 45.7946,14.8645 47.4613,13.5311 48.5,11.5C 47.4425,11.0941 46.1092,11.0941 44.5,11.5C 41.7207,10.1111 38.7207,9.27776 35.5,9C 39.2229,7.96086 39.2229,6.79419 35.5,5.5C 35.8333,4.83333 36.1667,4.16667 36.5,3.5C 38.1347,2.18537 39.8014,2.18537 41.5,3.5C 42.1667,2.83333 42.8333,2.16667 43.5,1.5C 44.4519,3.04533 44.7852,4.71199 44.5,6.5C 45.5,6.5 46.5,6.5 47.5,6.5 Z"/></g>
<g><path style="opacity:1" fill="#170d44" d="M 75.5,16.5 C 75.7989,18.604 75.4656,20.604 74.5,22.5C 73.8243,21.3984 73.1577,20.3984 72.5,19.5C 69.0633,16.1423 65.3966,15.809 61.5,18.5C 60.6829,20.9686 60.1829,23.6353 60,26.5C 60.1018,22.0442 59.2684,18.0442 57.5,14.5C 57.5,13.1667 57.5,11.8333 57.5,10.5C 58.5676,9.56552 59.901,9.23219 61.5,9.5C 63.1261,7.75679 65.1261,7.25679 67.5,8C 69.5463,10.9027 72.213,12.736 75.5,13.5C 75.5,14.5 75.5,15.5 75.5,16.5 Z"/></g>
<g><path style="opacity:1" fill="#493568" d="M 33.5,5.5 C 34.1667,5.5 34.8333,5.5 35.5,5.5C 39.2229,6.79419 39.2229,7.96086 35.5,9C 38.7207,9.27776 41.7207,10.1111 44.5,11.5C 41.7422,12.7605 38.7422,13.5939 35.5,14C 31.5106,16.8955 31.6772,17.7289 36,16.5C 37.0769,17.4295 38.2436,18.0962 39.5,18.5C 38.3398,19.265 37.3398,20.265 36.5,21.5C 35.3112,22.4287 33.9778,22.762 32.5,22.5C 32.4142,21.5041 32.7476,20.6708 33.5,20C 31.9391,19.6824 30.7724,18.8491 30,17.5C 29.586,17.9574 29.086,18.2907 28.5,18.5C 27.0656,17.4116 26.0656,16.0783 25.5,14.5C 28.3347,11.8347 31.3347,9.33472 34.5,7C 33.944,6.61742 33.6107,6.11742 33.5,5.5 Z"/></g>
<g><path style="opacity:1" fill="#5a4173" d="M 46.5,18.5 C 44.1667,18.5 41.8333,18.5 39.5,18.5C 38.2436,18.0962 37.0769,17.4295 36,16.5C 31.6772,17.7289 31.5106,16.8955 35.5,14C 38.7422,13.5939 41.7422,12.7605 44.5,11.5C 46.1092,11.0941 47.4425,11.0941 48.5,11.5C 47.4613,13.5311 45.7946,14.8645 43.5,15.5C 44.9935,16.1411 45.9935,17.1411 46.5,18.5 Z"/></g>
<g><path style="opacity:1" fill="#0180b5" d="M 72.5,19.5 C 73.6501,23.8591 73.6501,28.1924 72.5,32.5C 71.0582,33.8195 70.3915,35.4862 70.5,37.5C 69.5,37.5 68.5,37.5 67.5,37.5C 67.634,35.7085 67.3007,34.0418 66.5,32.5C 64.6583,30.8102 63.325,28.8102 62.5,26.5C 61.5269,24.0521 61.1936,21.3854 61.5,18.5C 65.3966,15.809 69.0633,16.1423 72.5,19.5 Z"/></g>
<g><path style="opacity:0.961" fill="#4f5174" d="M 19.5,17.5 C 19.0679,18.7095 18.4013,19.7095 17.5,20.5C 17.2089,19.3509 16.3756,18.6842 15,18.5C 13.1348,18.7055 11.4681,19.3722 10,20.5C 9.5,20.1667 9,19.8333 8.5,19.5C 11.9398,17.7765 15.6065,17.1098 19.5,17.5 Z"/></g>
<g><path style="opacity:1" fill="#070445" d="M 39.5,18.5 C 41.8333,18.5 44.1667,18.5 46.5,18.5C 44.8736,21.2457 44.2069,24.2457 44.5,27.5C 44.5,27.8333 44.5,28.1667 44.5,28.5C 44.5,29.1667 44.5,29.8333 44.5,30.5C 43.5,30.5 42.5,30.5 41.5,30.5C 39.654,27.7796 36.9873,26.2796 33.5,26C 31.9586,24.6288 30.6253,23.1288 29.5,21.5C 30.609,21.5569 31.609,21.8902 32.5,22.5C 33.9778,22.762 35.3112,22.4287 36.5,21.5C 37.3398,20.265 38.3398,19.265 39.5,18.5 Z"/></g>
<g><path style="opacity:1" fill="#fd3807" d="M 82.5,20.5 C 82.5569,21.609 82.8902,22.609 83.5,23.5C 81.6431,24.7652 79.9764,24.4318 78.5,22.5C 79.1834,20.8235 80.5168,20.1568 82.5,20.5 Z"/></g>
<g><path style="opacity:1" fill="#98698d" d="M 82.5,16.5 C 83.7533,19.4239 85.7533,21.7573 88.5,23.5C 88.1583,24.3382 87.4916,24.6716 86.5,24.5C 85.391,24.4431 84.391,24.1098 83.5,23.5C 82.8902,22.609 82.5569,21.609 82.5,20.5C 82.5,20.1667 82.5,19.8333 82.5,19.5C 82.5,19.1667 82.5,18.8333 82.5,18.5C 82.5,17.8333 82.5,17.1667 82.5,16.5 Z"/></g>
<g><path style="opacity:1" fill="#130c46" d="M 25.5,5.5 C 24.7562,8.31683 24.7562,11.3168 25.5,14.5C 26.0656,16.0783 27.0656,17.4116 28.5,18.5C 29.086,18.2907 29.586,17.9574 30,17.5C 30.7724,18.8491 31.9391,19.6824 33.5,20C 32.7476,20.6708 32.4142,21.5041 32.5,22.5C 31.609,21.8902 30.609,21.5569 29.5,21.5C 29.44,20.9569 29.1067,20.6236 28.5,20.5C 27.5481,22.0453 27.2148,23.712 27.5,25.5C 27.8432,27.4832 27.1765,28.8166 25.5,29.5C 25.5,28.8333 25.5,28.1667 25.5,27.5C 25.6107,26.8826 25.944,26.3826 26.5,26C 21.6486,25.8255 16.9819,25.3255 12.5,24.5C 13.1667,23.5 13.8333,22.5 14.5,21.5C 15.391,20.8902 16.391,20.5569 17.5,20.5C 18.4013,19.7095 19.0679,18.7095 19.5,17.5C 20.4171,12.9991 22.4171,8.99915 25.5,5.5 Z"/></g>
<g><path style="opacity:1" fill="#023087" d="M 29.5,21.5 C 30.6253,23.1288 31.9586,24.6288 33.5,26C 36.9873,26.2796 39.654,27.7796 41.5,30.5C 38.3748,29.7032 35.3748,29.3698 32.5,29.5C 31.7886,27.7986 30.4553,26.7986 28.5,26.5C 28.5,25.8333 28.1667,25.5 27.5,25.5C 27.2148,23.712 27.5481,22.0453 28.5,20.5C 29.1067,20.6236 29.44,20.9569 29.5,21.5 Z"/></g>
<g><path style="opacity:1" fill="#221842" d="M 75.5,16.5 C 78.2108,16.1849 80.5441,16.8516 82.5,18.5C 82.5,18.8333 82.5,19.1667 82.5,19.5C 80.8333,19.5 79.1667,19.5 77.5,19.5C 77.5,24.1667 77.5,28.8333 77.5,33.5C 76.8902,34.391 76.5569,35.391 76.5,36.5C 75.8333,36.5 75.1667,36.5 74.5,36.5C 74.8432,34.5168 74.1765,33.1834 72.5,32.5C 73.6501,28.1924 73.6501,23.8591 72.5,19.5C 73.1577,20.3984 73.8243,21.3984 74.5,22.5C 75.4656,20.604 75.7989,18.604 75.5,16.5 Z"/></g>
<g><path style="opacity:1" fill="#2b1543" d="M 57.5,14.5 C 59.2684,18.0442 60.1018,22.0442 60,26.5C 60.1829,23.6353 60.6829,20.9686 61.5,18.5C 61.1936,21.3854 61.5269,24.0521 62.5,26.5C 62.631,27.2389 62.4643,27.9056 62,28.5C 60.9887,27.6634 59.8221,27.33 58.5,27.5C 59.241,31.2923 60.241,34.9589 61.5,38.5C 60.6252,36.4319 59.4585,34.4319 58,32.5C 57.2622,26.3844 55.7622,20.7177 53.5,15.5C 52.8333,16.1667 52.1667,16.8333 51.5,17.5C 51.5,16.5 51.5,15.5 51.5,14.5C 53.5,14.5 55.5,14.5 57.5,14.5 Z"/></g>
<g><path style="opacity:1" fill="#3a161b" d="M 82.5,19.5 C 82.5,19.8333 82.5,20.1667 82.5,20.5C 80.5168,20.1568 79.1834,20.8235 78.5,22.5C 78.815,26.3714 78.4816,30.0381 77.5,33.5C 77.5,28.8333 77.5,24.1667 77.5,19.5C 79.1667,19.5 80.8333,19.5 82.5,19.5 Z"/></g>
<g><path style="opacity:1" fill="#e88806" d="M 78.5,22.5 C 79.9764,24.4318 81.6431,24.7652 83.5,23.5C 84.391,24.1098 85.391,24.4431 86.5,24.5C 86.5,24.8333 86.5,25.1667 86.5,25.5C 87.1667,26.8333 87.8333,28.1667 88.5,29.5C 84.7757,28.7731 82.1091,30.1064 80.5,33.5C 80.9569,34.2975 81.6236,34.6309 82.5,34.5C 82.5,35.8333 82.5,37.1667 82.5,38.5C 80.5,37.8333 78.5,37.1667 76.5,36.5C 76.5569,35.391 76.8902,34.391 77.5,33.5C 78.4816,30.0381 78.815,26.3714 78.5,22.5 Z"/></g>
<g><path style="opacity:1" fill="#2b1754" d="M 12.5,24.5 C 16.9819,25.3255 21.6486,25.8255 26.5,26C 25.944,26.3826 25.6107,26.8826 25.5,27.5C 21.4107,30.1018 18.5773,33.7685 17,38.5C 16.8171,41.3647 16.3171,44.0314 15.5,46.5C 15.6427,44.7376 15.3094,43.0709 14.5,41.5C 15.4974,37.5211 15.9974,33.5211 16,29.5C 15.0754,30.0465 14.2421,30.7132 13.5,31.5C 12.3126,35.2698 10.9792,38.9365 9.5,42.5C 9.16667,42.5 8.83333,42.5 8.5,42.5C 7.63769,36.5785 9.30436,31.5785 13.5,27.5C 12.7261,26.2888 11.8928,26.2888 11,27.5C 10.5357,26.9056 10.369,26.2389 10.5,25.5C 11.1667,25.1667 11.8333,24.8333 12.5,24.5 Z"/></g>
<g><path style="opacity:1" fill="#962b59" d="M 53.5,15.5 C 55.7622,20.7177 57.2622,26.3844 58,32.5C 59.4585,34.4319 60.6252,36.4319 61.5,38.5C 61.7105,41.752 61.0438,44.752 59.5,47.5C 57.744,46.4479 57.0773,44.7812 57.5,42.5C 53.1617,42.3781 52.8284,42.0447 56.5,41.5C 56.5,40.1667 56.5,38.8333 56.5,37.5C 55.1667,37.5 53.8333,37.5 52.5,37.5C 52.8212,35.9519 53.8212,35.2852 55.5,35.5C 55.5,34.1667 55.5,32.8333 55.5,31.5C 53.5714,31.7692 51.9047,31.2692 50.5,30C 51.0253,29.3076 51.6919,28.8076 52.5,28.5C 53.4922,24.2172 53.8256,19.8839 53.5,15.5 Z"/></g>
<g><path style="opacity:1" fill="#0b77a5" d="M 28.5,26.5 C 30.4553,26.7986 31.7886,27.7986 32.5,29.5C 30.9519,29.8212 30.2852,30.8212 30.5,32.5C 29.2616,30.7857 28.595,28.7857 28.5,26.5 Z"/></g>
<g><path style="opacity:0.416" fill="#d8cac7" d="M 88.5,23.5 C 89.1667,23.5 89.8333,23.5 90.5,23.5C 93.1285,27.4627 96.1285,31.1294 99.5,34.5C 99.5,38.5 99.5,42.5 99.5,46.5C 98.8333,47.1667 98.1667,47.8333 97.5,48.5C 97.6658,43.8215 97.4992,39.1548 97,34.5C 96.6174,33.944 96.1174,33.6107 95.5,33.5C 93.564,29.6891 90.564,27.0225 86.5,25.5C 86.5,25.1667 86.5,24.8333 86.5,24.5C 87.4916,24.6716 88.1583,24.3382 88.5,23.5 Z"/></g>
<g><path style="opacity:0.973" fill="#3b3564" d="M 1.5,24.5 C 2.64911,24.7911 3.31577,25.6244 3.5,27C 3.61246,28.6624 2.94579,29.8291 1.5,30.5C 0.30577,28.4844 0.30577,26.4844 1.5,24.5 Z"/></g>
<g><path style="opacity:0.431" fill="#b9c7d3" d="M 12.5,21.5 C 13.1667,21.5 13.8333,21.5 14.5,21.5C 13.8333,22.5 13.1667,23.5 12.5,24.5C 11.8333,24.8333 11.1667,25.1667 10.5,25.5C 8.74973,26.6594 7.74973,28.326 7.5,30.5C 4.90201,32.8447 2.90201,35.678 1.5,39C 1.83611,40.0299 2.50278,40.5299 3.5,40.5C 3.17443,44.8839 3.50776,49.2172 4.5,53.5C 5.10667,53.3764 5.44001,53.0431 5.5,52.5C 5.5,51.1667 6.16667,50.5 7.5,50.5C 7.5,54.1667 7.5,57.8333 7.5,61.5C 6.20719,63.3635 6.20719,65.3635 7.5,67.5C 8.96529,65.5764 10.632,65.2431 12.5,66.5C 13.4614,68.2646 13.7947,70.2646 13.5,72.5C 13.5,73.5 13.5,74.5 13.5,75.5C 11.9891,73.5242 11.1558,71.1909 11,68.5C 10.6667,68.1667 10.3333,67.8333 10,67.5C 7.91785,70.1496 6.25119,69.8163 5,66.5C 4.93791,62.8517 5.10458,59.185 5.5,55.5C 4.5,55.5 3.5,55.5 2.5,55.5C 2.82662,50.7863 2.49329,46.1196 1.5,41.5C 0.818153,40.7573 0.151487,40.0906 -0.5,39.5C -0.5,38.8333 -0.5,38.1667 -0.5,37.5C 1.3264,35.8525 2.65974,33.8525 3.5,31.5C 4.16667,31.5 4.5,31.1667 4.5,30.5C 5.33825,30.1583 5.67158,29.4916 5.5,28.5C 7.5,25.8333 9.83333,23.5 12.5,21.5 Z"/></g>
<g><path style="opacity:1" fill="#521045" d="M 53.5,15.5 C 53.8256,19.8839 53.4922,24.2172 52.5,28.5C 51.6919,28.8076 51.0253,29.3076 50.5,30C 51.9047,31.2692 53.5714,31.7692 55.5,31.5C 55.5,32.8333 55.5,34.1667 55.5,35.5C 53.8212,35.2852 52.8212,35.9519 52.5,37.5C 50.2018,35.5393 47.5351,34.5393 44.5,34.5C 45.1098,33.609 45.4431,32.609 45.5,31.5C 47.7139,34.0164 50.3806,34.683 53.5,33.5C 50.7263,31.3854 47.7263,29.7188 44.5,28.5C 44.5,28.1667 44.5,27.8333 44.5,27.5C 46.3888,26.6201 48.3888,26.6201 50.5,27.5C 50.3424,24.0977 50.6758,20.7644 51.5,17.5C 52.1667,16.8333 52.8333,16.1667 53.5,15.5 Z"/></g>
<g><path style="opacity:1" fill="#0d8aad" d="M 32.5,29.5 C 35.3748,29.3698 38.3748,29.7032 41.5,30.5C 42.5,30.5 43.5,30.5 44.5,30.5C 43.7848,32.5596 42.4514,34.2263 40.5,35.5C 38.8333,34.1667 37.1667,32.8333 35.5,31.5C 34.7025,31.9569 34.3691,32.6236 34.5,33.5C 34.1583,34.3382 33.4916,34.6716 32.5,34.5C 31.8333,34.5 31.5,34.1667 31.5,33.5C 32.3764,33.6309 33.0431,33.2975 33.5,32.5C 32.8728,31.5832 32.5394,30.5832 32.5,29.5 Z"/></g>
<g><path style="opacity:1" fill="#311c28" d="M 88.5,29.5 C 88.5,29.8333 88.5,30.1667 88.5,30.5C 87.3068,32.7536 85.6402,33.4203 83.5,32.5C 82.7025,32.9569 82.3691,33.6236 82.5,34.5C 81.6236,34.6309 80.9569,34.2975 80.5,33.5C 82.1091,30.1064 84.7757,28.7731 88.5,29.5 Z"/></g>
<g><path style="opacity:1" fill="#01c5c9" d="M 32.5,29.5 C 32.5394,30.5832 32.8728,31.5832 33.5,32.5C 33.0431,33.2975 32.3764,33.6309 31.5,33.5C 31.5,32.8333 31.1667,32.5 30.5,32.5C 30.2852,30.8212 30.9519,29.8212 32.5,29.5 Z"/></g>
<g><path style="opacity:1" fill="#f6a412" d="M 86.5,25.5 C 90.564,27.0225 93.564,29.6891 95.5,33.5C 95.359,38.7491 95.359,43.7491 95.5,48.5C 95.1667,49.5 94.5,50.1667 93.5,50.5C 94.0969,45.706 93.4302,41.3727 91.5,37.5C 91.7373,36.209 91.404,35.209 90.5,34.5C 90.8432,32.5168 90.1765,31.1834 88.5,30.5C 88.5,30.1667 88.5,29.8333 88.5,29.5C 87.8333,28.1667 87.1667,26.8333 86.5,25.5 Z"/></g>
<g><path style="opacity:1" fill="#b70461" d="M 44.5,28.5 C 47.7263,29.7188 50.7263,31.3854 53.5,33.5C 50.3806,34.683 47.7139,34.0164 45.5,31.5C 45.5,30.8333 45.1667,30.5 44.5,30.5C 44.5,29.8333 44.5,29.1667 44.5,28.5 Z"/></g>
<g><path style="opacity:1" fill="#44375b" d="M 62.5,26.5 C 63.325,28.8102 64.6583,30.8102 66.5,32.5C 64.9385,34.3717 63.9385,36.7051 63.5,39.5C 62.8165,39.1373 62.1499,38.8039 61.5,38.5C 60.241,34.9589 59.241,31.2923 58.5,27.5C 59.8221,27.33 60.9887,27.6634 62,28.5C 62.4643,27.9056 62.631,27.2389 62.5,26.5 Z"/></g>
<g><path style="opacity:1" fill="#2b2555" d="M 7.5,30.5 C 7.93822,30.4346 8.27155,30.6012 8.5,31C 6.08325,33.4794 5.08325,36.4794 5.5,40C 5.66667,41.8333 5.83333,43.6667 6,45.5C 7.41704,44.9221 8.25038,43.9221 8.5,42.5C 8.83333,42.5 9.16667,42.5 9.5,42.5C 10.4345,43.5676 10.7678,44.901 10.5,46.5C 9.12656,46.3433 7.79323,46.51 6.5,47C 7.33663,48.0113 7.66997,49.1779 7.5,50.5C 6.16667,50.5 5.5,51.1667 5.5,52.5C 4.83333,48.5 4.16667,44.5 3.5,40.5C 2.50278,40.5299 1.83611,40.0299 1.5,39C 2.90201,35.678 4.90201,32.8447 7.5,30.5 Z"/></g>
<g><path style="opacity:1" fill="#564982" d="M 10.5,25.5 C 10.369,26.2389 10.5357,26.9056 11,27.5C 11.8928,26.2888 12.7261,26.2888 13.5,27.5C 9.30436,31.5785 7.63769,36.5785 8.5,42.5C 8.25038,43.9221 7.41704,44.9221 6,45.5C 5.83333,43.6667 5.66667,41.8333 5.5,40C 5.08325,36.4794 6.08325,33.4794 8.5,31C 8.27155,30.6012 7.93822,30.4346 7.5,30.5C 7.74973,28.326 8.74973,26.6594 10.5,25.5 Z"/></g>
<g><path style="opacity:1" fill="#2c1c53" d="M 27.5,25.5 C 28.1667,25.5 28.5,25.8333 28.5,26.5C 28.595,28.7857 29.2616,30.7857 30.5,32.5C 31.1667,32.5 31.5,32.8333 31.5,33.5C 31.5,34.1667 31.8333,34.5 32.5,34.5C 32.631,35.2389 32.4643,35.9056 32,36.5C 31,35.5 30,34.5 29,33.5C 28.2904,34.9733 27.1238,35.6399 25.5,35.5C 25.815,39.3714 25.4816,43.0381 24.5,46.5C 24.7845,44.5853 24.4511,42.9187 23.5,41.5C 22.9905,37.1869 23.6571,33.1869 25.5,29.5C 27.1765,28.8166 27.8432,27.4832 27.5,25.5 Z"/></g>
<g><path style="opacity:1" fill="#a80551" d="M 44.5,34.5 C 47.5351,34.5393 50.2018,35.5393 52.5,37.5C 52.5,38.5 52.5,39.5 52.5,40.5C 51.5,40.5 50.5,40.5 49.5,40.5C 47.6776,40.1692 46.0109,39.5025 44.5,38.5C 44.5,37.1667 44.5,35.8333 44.5,34.5 Z"/></g>
<g><path style="opacity:1" fill="#2a194e" d="M 72.5,32.5 C 74.1765,33.1834 74.8432,34.5168 74.5,36.5C 74.5,37.1667 74.5,37.8333 74.5,38.5C 73.3775,40.2884 73.2109,42.2884 74,44.5C 75.0848,45.7356 75.9181,47.0689 76.5,48.5C 76.6659,53.5111 76.4993,58.5111 76,63.5C 74.1079,62.3826 73.2746,60.7159 73.5,58.5C 73.5,56.5 73.5,54.5 73.5,52.5C 71.7499,50.9414 70.7499,48.9414 70.5,46.5C 69.791,45.596 68.791,45.2627 67.5,45.5C 67.5,42.8333 67.5,40.1667 67.5,37.5C 68.5,37.5 69.5,37.5 70.5,37.5C 70.3915,35.4862 71.0582,33.8195 72.5,32.5 Z"/></g>
<g><path style="opacity:1" fill="#493e78" d="M 32.5,34.5 C 33.4916,34.6716 34.1583,34.3382 34.5,33.5C 36.543,34.5794 37.8763,36.246 38.5,38.5C 37.2436,38.0962 36.0769,37.4295 35,36.5C 32.1823,38.8101 29.5157,38.8101 27,36.5C 26.8408,43.8696 27.3408,51.2029 28.5,58.5C 28.5,59.1667 28.1667,59.5 27.5,59.5C 27.1583,58.6618 26.4916,58.3284 25.5,58.5C 26.2598,57.1067 26.9265,55.6067 27.5,54C 26.4071,51.5584 25.4071,49.0584 24.5,46.5C 25.4816,43.0381 25.815,39.3714 25.5,35.5C 27.1238,35.6399 28.2904,34.9733 29,33.5C 30,34.5 31,35.5 32,36.5C 32.4643,35.9056 32.631,35.2389 32.5,34.5 Z"/></g>
<g><path style="opacity:1" fill="#db380b" d="M 74.5,36.5 C 75.1667,36.5 75.8333,36.5 76.5,36.5C 78.5,37.1667 80.5,37.8333 82.5,38.5C 83.4511,39.9187 83.7845,41.5853 83.5,43.5C 82.2921,42.7659 80.9587,42.4326 79.5,42.5C 79.719,41.325 79.3857,40.325 78.5,39.5C 77.2241,40.6136 77.2241,41.6136 78.5,42.5C 78.1667,43.1667 77.8333,43.8333 77.5,44.5C 75.9397,42.8439 74.9397,40.8439 74.5,38.5C 74.5,37.8333 74.5,37.1667 74.5,36.5 Z"/></g>
<g><path style="opacity:1" fill="#f77e1a" d="M 95.5,33.5 C 96.1174,33.6107 96.6174,33.944 97,34.5C 97.4992,39.1548 97.6658,43.8215 97.5,48.5C 96.8333,48.5 96.1667,48.5 95.5,48.5C 95.359,43.7491 95.359,38.7491 95.5,33.5 Z"/></g>
<g><path style="opacity:1" fill="#d2d2d7" d="M 90.5,34.5 C 91.404,35.209 91.7373,36.209 91.5,37.5C 91.5,37.8333 91.5,38.1667 91.5,38.5C 91.8134,41.2469 91.48,43.9135 90.5,46.5C 89.8333,45.1667 89.1667,43.8333 88.5,42.5C 87.2638,43.2458 85.9305,43.5792 84.5,43.5C 84.5,42.1667 84.5,40.8333 84.5,39.5C 85.9778,39.762 87.3112,39.4287 88.5,38.5C 87.675,37.6143 86.675,37.281 85.5,37.5C 85.5,36.5 85.5,35.5 85.5,34.5C 87.36,33.9285 89.0267,33.9285 90.5,34.5 Z"/></g>
<g><path style="opacity:1" fill="#766598" d="M 38.5,38.5 C 39.7969,40.6934 39.7969,43.0268 38.5,45.5C 37.2807,44.7366 36.2807,43.7366 35.5,42.5C 34.4763,43.8532 33.143,44.5198 31.5,44.5C 31.8333,47.1667 32.1667,49.8333 32.5,52.5C 31.5318,54.6074 31.1984,56.9407 31.5,59.5C 30.609,58.8902 29.609,58.5569 28.5,58.5C 27.3408,51.2029 26.8408,43.8696 27,36.5C 29.5157,38.8101 32.1823,38.8101 35,36.5C 36.0769,37.4295 37.2436,38.0962 38.5,38.5 Z"/></g>
<g><path style="opacity:1" fill="#b6bdca" d="M 69.5,39.5 C 71.4646,39.9483 71.7979,40.9483 70.5,42.5C 69.6143,41.675 69.281,40.675 69.5,39.5 Z"/></g>
<g><path style="opacity:1" fill="#c86106" d="M 74.5,38.5 C 74.9397,40.8439 75.9397,42.8439 77.5,44.5C 77.5,45.8333 77.5,47.1667 77.5,48.5C 77.1667,48.5 76.8333,48.5 76.5,48.5C 75.9181,47.0689 75.0848,45.7356 74,44.5C 73.2109,42.2884 73.3775,40.2884 74.5,38.5 Z"/></g>
<g><path style="opacity:1" fill="#6f2b2a" d="M 79.5,42.5 C 79.1667,42.5 78.8333,42.5 78.5,42.5C 77.2241,41.6136 77.2241,40.6136 78.5,39.5C 79.3857,40.325 79.719,41.325 79.5,42.5 Z"/></g>
<g><path style="opacity:1" fill="#6d6193" d="M 23.5,41.5 C 24.4511,42.9187 24.7845,44.5853 24.5,46.5C 25.4071,49.0584 26.4071,51.5584 27.5,54C 26.9265,55.6067 26.2598,57.1067 25.5,58.5C 24.8485,59.0906 24.1818,59.7573 23.5,60.5C 22.513,57.2317 22.1796,53.8984 22.5,50.5C 22.5,49.1667 22.5,47.8333 22.5,46.5C 21.1667,46.5 19.8333,46.5 18.5,46.5C 18.1098,42.6065 18.7765,38.9398 20.5,35.5C 21.086,35.2907 21.586,34.9574 22,34.5C 22.1862,37.0356 22.6862,39.369 23.5,41.5 Z"/></g>
<g><path style="opacity:1" fill="#251a54" d="M 44.5,30.5 C 45.1667,30.5 45.5,30.8333 45.5,31.5C 45.4431,32.609 45.1098,33.609 44.5,34.5C 44.5,35.8333 44.5,37.1667 44.5,38.5C 44.5,39.1667 44.5,39.8333 44.5,40.5C 44.5,41.5 44.5,42.5 44.5,43.5C 43.209,43.2627 42.209,43.596 41.5,44.5C 41.5569,45.609 41.8902,46.609 42.5,47.5C 41.1779,47.67 40.0113,47.3366 39,46.5C 37.3831,47.5358 37.2164,48.7025 38.5,50C 36.5812,51.9338 35.0812,51.7671 34,49.5C 33.7679,50.7375 33.2679,51.7375 32.5,52.5C 32.1667,49.8333 31.8333,47.1667 31.5,44.5C 33.143,44.5198 34.4763,43.8532 35.5,42.5C 36.2807,43.7366 37.2807,44.7366 38.5,45.5C 39.7969,43.0268 39.7969,40.6934 38.5,38.5C 37.8763,36.246 36.543,34.5794 34.5,33.5C 34.3691,32.6236 34.7025,31.9569 35.5,31.5C 37.1667,32.8333 38.8333,34.1667 40.5,35.5C 42.4514,34.2263 43.7848,32.5596 44.5,30.5 Z"/></g>
<g><path style="opacity:1" fill="#5e4e85" d="M 25.5,27.5 C 25.5,28.1667 25.5,28.8333 25.5,29.5C 23.6571,33.1869 22.9905,37.1869 23.5,41.5C 22.6862,39.369 22.1862,37.0356 22,34.5C 21.586,34.9574 21.086,35.2907 20.5,35.5C 18.7765,38.9398 18.1098,42.6065 18.5,46.5C 19.8333,46.5 21.1667,46.5 22.5,46.5C 22.5,47.8333 22.5,49.1667 22.5,50.5C 21.596,49.791 21.2627,48.791 21.5,47.5C 20.5,47.5 19.5,47.5 18.5,47.5C 17.5,47.5 16.5,47.5 15.5,47.5C 15.5,47.1667 15.5,46.8333 15.5,46.5C 16.3171,44.0314 16.8171,41.3647 17,38.5C 18.5773,33.7685 21.4107,30.1018 25.5,27.5 Z"/></g>
<g><path style="opacity:1" fill="#d30160" d="M 44.5,38.5 C 46.0109,39.5025 47.6776,40.1692 49.5,40.5C 51.2368,42.5497 53.2368,44.383 55.5,46C 54.9056,46.4643 54.2389,46.631 53.5,46.5C 48.9266,46.6256 45.9266,44.6256 44.5,40.5C 44.5,39.8333 44.5,39.1667 44.5,38.5 Z"/></g>
<g><path style="opacity:1" fill="#66556a" d="M 88.5,30.5 C 90.1765,31.1834 90.8432,32.5168 90.5,34.5C 89.0267,33.9285 87.36,33.9285 85.5,34.5C 85.5,35.5 85.5,36.5 85.5,37.5C 86.675,37.281 87.675,37.6143 88.5,38.5C 87.3112,39.4287 85.9778,39.762 84.5,39.5C 84.5,40.8333 84.5,42.1667 84.5,43.5C 85.9305,43.5792 87.2638,43.2458 88.5,42.5C 89.1667,43.8333 89.8333,45.1667 90.5,46.5C 91.48,43.9135 91.8134,41.2469 91.5,38.5C 92.4794,41.6248 92.8128,44.9581 92.5,48.5C 91.1667,48.5 89.8333,48.5 88.5,48.5C 88.631,47.7611 88.4643,47.0944 88,46.5C 86.1222,45.9473 84.6222,44.9473 83.5,43.5C 83.7845,41.5853 83.4511,39.9187 82.5,38.5C 82.5,37.1667 82.5,35.8333 82.5,34.5C 82.3691,33.6236 82.7025,32.9569 83.5,32.5C 85.6402,33.4203 87.3068,32.7536 88.5,30.5 Z"/></g>
<g><path style="opacity:1" fill="#695b8d" d="M 15.5,46.5 C 15.5,46.8333 15.5,47.1667 15.5,47.5C 15.5,47.8333 15.5,48.1667 15.5,48.5C 14.2616,50.2143 13.595,52.2143 13.5,54.5C 12.5,54.5 11.5,54.5 10.5,54.5C 10.5,51.8333 10.5,49.1667 10.5,46.5C 10.7678,44.901 10.4345,43.5676 9.5,42.5C 10.9792,38.9365 12.3126,35.2698 13.5,31.5C 14.2421,30.7132 15.0754,30.0465 16,29.5C 15.9974,33.5211 15.4974,37.5211 14.5,41.5C 15.3094,43.0709 15.6427,44.7376 15.5,46.5 Z"/></g>
<g><path style="opacity:1" fill="#221341" d="M 66.5,32.5 C 67.3007,34.0418 67.634,35.7085 67.5,37.5C 67.5,40.1667 67.5,42.8333 67.5,45.5C 65.8958,46.287 65.2291,47.6203 65.5,49.5C 65.1667,49.5 64.8333,49.5 64.5,49.5C 62.8863,51.0746 60.8863,51.7413 58.5,51.5C 58.4326,50.0413 58.7659,48.7079 59.5,47.5C 61.0438,44.752 61.7105,41.752 61.5,38.5C 62.1499,38.8039 62.8165,39.1373 63.5,39.5C 63.9385,36.7051 64.9385,34.3717 66.5,32.5 Z"/></g>
<g><path style="opacity:1" fill="#054573" d="M 67.5,45.5 C 68.791,45.2627 69.791,45.596 70.5,46.5C 68.0411,46.31 66.3745,47.31 65.5,49.5C 65.2291,47.6203 65.8958,46.287 67.5,45.5 Z"/></g>
<g><path style="opacity:0.839" fill="#60627d" d="M 3.5,40.5 C 4.16667,44.5 4.83333,48.5 5.5,52.5C 5.44001,53.0431 5.10667,53.3764 4.5,53.5C 3.50776,49.2172 3.17443,44.8839 3.5,40.5 Z"/></g>
<g><path style="opacity:1" fill="#810948" d="M 44.5,40.5 C 45.9266,44.6256 48.9266,46.6256 53.5,46.5C 53.5,47.5 53.5,48.5 53.5,49.5C 49.7105,47.4553 45.7105,45.7886 41.5,44.5C 42.209,43.596 43.209,43.2627 44.5,43.5C 44.5,42.5 44.5,41.5 44.5,40.5 Z"/></g>
<g><path style="opacity:1" fill="#fba302" d="M 78.5,42.5 C 78.8333,42.5 79.1667,42.5 79.5,42.5C 80.9587,42.4326 82.2921,42.7659 83.5,43.5C 84.6222,44.9473 86.1222,45.9473 88,46.5C 88.4643,47.0944 88.631,47.7611 88.5,48.5C 89.2341,49.7079 89.5674,51.0413 89.5,52.5C 85.8958,54.4903 82.2292,56.4903 78.5,58.5C 78.8128,54.9581 78.4794,51.6248 77.5,48.5C 77.5,47.1667 77.5,45.8333 77.5,44.5C 77.8333,43.8333 78.1667,43.1667 78.5,42.5 Z"/></g>
<g><path style="opacity:1" fill="#d3015c" d="M 41.5,44.5 C 45.7105,45.7886 49.7105,47.4553 53.5,49.5C 53.5,50.5 53.5,51.5 53.5,52.5C 52.5,52.5 51.5,52.5 50.5,52.5C 48.2446,50.6197 45.5779,49.6197 42.5,49.5C 42.5,48.8333 42.5,48.1667 42.5,47.5C 41.8902,46.609 41.5569,45.609 41.5,44.5 Z"/></g>
<g><path style="opacity:1" fill="#0196af" d="M 70.5,46.5 C 70.7499,48.9414 71.7499,50.9414 73.5,52.5C 70.5,52.5 67.5,52.5 64.5,52.5C 64.5,51.5 64.5,50.5 64.5,49.5C 64.8333,49.5 65.1667,49.5 65.5,49.5C 66.3745,47.31 68.0411,46.31 70.5,46.5 Z"/></g>
<g><path style="opacity:1" fill="#781a4f" d="M 10.5,46.5 C 10.5,49.1667 10.5,51.8333 10.5,54.5C 11.069,58.3293 10.4023,61.6627 8.5,64.5C 9.56911,61.592 9.73577,58.592 9,55.5C 8.80912,57.7078 8.30912,59.7078 7.5,61.5C 7.5,57.8333 7.5,54.1667 7.5,50.5C 7.66997,49.1779 7.33663,48.0113 6.5,47C 7.79323,46.51 9.12656,46.3433 10.5,46.5 Z"/></g>
<g><path style="opacity:1" fill="#6a1b48" d="M 52.5,37.5 C 53.8333,37.5 55.1667,37.5 56.5,37.5C 56.5,38.8333 56.5,40.1667 56.5,41.5C 52.8284,42.0447 53.1617,42.3781 57.5,42.5C 57.0773,44.7812 57.744,46.4479 59.5,47.5C 58.7659,48.7079 58.4326,50.0413 58.5,51.5C 56.9582,52.3007 55.2915,52.634 53.5,52.5C 53.5,51.5 53.5,50.5 53.5,49.5C 53.5,48.5 53.5,47.5 53.5,46.5C 54.2389,46.631 54.9056,46.4643 55.5,46C 53.2368,44.383 51.2368,42.5497 49.5,40.5C 50.5,40.5 51.5,40.5 52.5,40.5C 52.5,39.5 52.5,38.5 52.5,37.5 Z"/></g>
<g><path style="opacity:1" fill="#ca6b15" d="M 91.5,38.5 C 91.5,38.1667 91.5,37.8333 91.5,37.5C 93.4302,41.3727 94.0969,45.706 93.5,50.5C 93.0269,51.9063 92.0269,52.573 90.5,52.5C 90.1667,52.5 89.8333,52.5 89.5,52.5C 89.5674,51.0413 89.2341,49.7079 88.5,48.5C 89.8333,48.5 91.1667,48.5 92.5,48.5C 92.8128,44.9581 92.4794,41.6248 91.5,38.5 Z"/></g>
<g><path style="opacity:1" fill="#725b94" d="M 15.5,48.5 C 15.5,48.1667 15.5,47.8333 15.5,47.5C 16.5,47.5 17.5,47.5 18.5,47.5C 19.368,49.8967 20.0347,52.3967 20.5,55C 20.0347,57.6033 19.368,60.1033 18.5,62.5C 17.5,62.5 16.5,62.5 15.5,62.5C 15.5,61.8333 15.5,61.1667 15.5,60.5C 14.3289,56.1649 14.3289,52.1649 15.5,48.5 Z"/></g>
<g><path style="opacity:1" fill="#270f42" d="M 42.5,47.5 C 42.5,48.1667 42.5,48.8333 42.5,49.5C 41.4138,49.62 40.7472,50.2867 40.5,51.5C 40.5427,52.4164 40.8761,53.0831 41.5,53.5C 42.6602,55.2027 41.9935,55.8693 39.5,55.5C 38.791,54.596 37.791,54.2627 36.5,54.5C 36.5,55.5 36.5,56.5 36.5,57.5C 35.8386,56.2825 35.1719,54.9492 34.5,53.5C 33.5344,55.396 33.2011,57.396 33.5,59.5C 33.8769,61.258 34.5435,62.9246 35.5,64.5C 35.3764,65.1067 35.0431,65.44 34.5,65.5C 33.8333,65.1667 33.1667,64.8333 32.5,64.5C 32.5,64.1667 32.5,63.8333 32.5,63.5C 31.7659,62.2921 31.4326,60.9587 31.5,59.5C 31.1984,56.9407 31.5318,54.6074 32.5,52.5C 33.2679,51.7375 33.7679,50.7375 34,49.5C 35.0812,51.7671 36.5812,51.9338 38.5,50C 37.2164,48.7025 37.3831,47.5358 39,46.5C 40.0113,47.3366 41.1779,47.67 42.5,47.5 Z"/></g>
<g><path style="opacity:1" fill="#e50065" d="M 42.5,49.5 C 43.9784,51.3638 45.9784,52.6971 48.5,53.5C 46.2287,54.3635 43.8954,54.3635 41.5,53.5C 40.8761,53.0831 40.5427,52.4164 40.5,51.5C 40.7472,50.2867 41.4138,49.62 42.5,49.5 Z"/></g>
<g><path style="opacity:1" fill="#9f0552" d="M 42.5,49.5 C 45.5779,49.6197 48.2446,50.6197 50.5,52.5C 50.754,53.3321 51.754,53.9987 53.5,54.5C 54.0906,55.1515 54.7573,55.8182 55.5,56.5C 53.6565,56.7552 51.6565,56.9219 49.5,57C 50.4158,57.2784 51.0825,57.7784 51.5,58.5C 48.626,58.3766 46.126,57.3766 44,55.5C 42.3845,56.8009 40.8845,56.8009 39.5,55.5C 41.9935,55.8693 42.6602,55.2027 41.5,53.5C 43.8954,54.3635 46.2287,54.3635 48.5,53.5C 45.9784,52.6971 43.9784,51.3638 42.5,49.5 Z"/></g>
<g><path style="opacity:1" fill="#7f4111" d="M 77.5,48.5 C 78.4794,51.6248 78.8128,54.9581 78.5,58.5C 78.2852,60.1788 78.9519,61.1788 80.5,61.5C 80.5,61.8333 80.5,62.1667 80.5,62.5C 79.5,62.5 78.5,62.5 77.5,62.5C 77.5,57.8333 77.5,53.1667 77.5,48.5 Z"/></g>
<g><path style="opacity:1" fill="#1b1a40" d="M 64.5,49.5 C 64.5,50.5 64.5,51.5 64.5,52.5C 63.8333,52.5 63.5,52.8333 63.5,53.5C 63.6716,54.4916 63.3382,55.1583 62.5,55.5C 61.0629,58.3303 61.3963,60.997 63.5,63.5C 62.1667,63.5 60.8333,63.5 59.5,63.5C 59.1667,62.5 58.5,61.8333 57.5,61.5C 56.6314,59.283 56.298,56.9496 56.5,54.5C 55.5,54.5 54.5,54.5 53.5,54.5C 51.754,53.9987 50.754,53.3321 50.5,52.5C 51.5,52.5 52.5,52.5 53.5,52.5C 55.2915,52.634 56.9582,52.3007 58.5,51.5C 60.8863,51.7413 62.8863,51.0746 64.5,49.5 Z"/></g>
<g><path style="opacity:1" fill="#0accc1" d="M 63.5,53.5 C 63.5,52.8333 63.8333,52.5 64.5,52.5C 67.5,52.5 70.5,52.5 73.5,52.5C 73.5,54.5 73.5,56.5 73.5,58.5C 72.8333,59.8333 72.1667,61.1667 71.5,62.5C 68.9039,63.2653 66.2372,63.5987 63.5,63.5C 61.3963,60.997 61.0629,58.3303 62.5,55.5C 62.4142,56.4959 62.7476,57.3292 63.5,58C 66,58.8854 68.3333,60.0521 70.5,61.5C 71.4287,60.3112 71.762,58.9778 71.5,57.5C 69.0862,55.7755 66.4196,54.4422 63.5,53.5 Z"/></g>
<g><path style="opacity:1" fill="#640a36" d="M 53.5,54.5 C 54.5,54.5 55.5,54.5 56.5,54.5C 56.298,56.9496 56.6314,59.283 57.5,61.5C 55.2156,60.9708 53.2156,59.9708 51.5,58.5C 51.0825,57.7784 50.4158,57.2784 49.5,57C 51.6565,56.9219 53.6565,56.7552 55.5,56.5C 54.7573,55.8182 54.0906,55.1515 53.5,54.5 Z"/></g>
<g><path style="opacity:1" fill="#20edd0" d="M 63.5,53.5 C 66.4196,54.4422 69.0862,55.7755 71.5,57.5C 71.762,58.9778 71.4287,60.3112 70.5,61.5C 68.3333,60.0521 66,58.8854 63.5,58C 62.7476,57.3292 62.4142,56.4959 62.5,55.5C 63.3382,55.1583 63.6716,54.4916 63.5,53.5 Z"/></g>
<g><path style="opacity:1" fill="#fe650d" d="M 89.5,52.5 C 89.8333,52.5 90.1667,52.5 90.5,52.5C 88.4728,55.1939 86.1395,57.5272 83.5,59.5C 82.5,60.1667 81.5,60.8333 80.5,61.5C 78.9519,61.1788 78.2852,60.1788 78.5,58.5C 82.2292,56.4903 85.8958,54.4903 89.5,52.5 Z"/></g>
<g><path style="opacity:0.039" fill="#d5d3db" d="M 95.5,48.5 C 96.1667,48.5 96.8333,48.5 97.5,48.5C 96.6799,50.1401 95.8466,51.8068 95,53.5C 90.9804,56.6859 87.4804,60.3525 84.5,64.5C 87.9708,67.2296 91.9708,68.8962 96.5,69.5C 97.6139,70.723 97.7805,72.0563 97,73.5C 91.0454,76.1087 85.0454,76.1087 79,73.5C 75.951,76.0571 72.7843,78.3904 69.5,80.5C 71.5782,77.9162 73.9116,75.4162 76.5,73C 77.7932,72.51 79.1266,72.3433 80.5,72.5C 81.8333,72.5 83.1667,72.5 84.5,72.5C 84.5,72.8333 84.5,73.1667 84.5,73.5C 88.0171,74.6203 91.6837,74.6203 95.5,73.5C 95.5,72.5 95.5,71.5 95.5,70.5C 93.5,70.5 91.5,70.5 89.5,70.5C 89.5,70.1667 89.5,69.8333 89.5,69.5C 87.3609,68.8419 85.3609,67.8419 83.5,66.5C 83.2471,64.1727 83.9137,62.1727 85.5,60.5C 85.0431,59.7025 84.3764,59.3691 83.5,59.5C 86.1395,57.5272 88.4728,55.1939 90.5,52.5C 92.0269,52.573 93.0269,51.9063 93.5,50.5C 94.5,50.1667 95.1667,49.5 95.5,48.5 Z"/></g>
<g><path style="opacity:1" fill="#532550" d="M 15.5,48.5 C 14.3289,52.1649 14.3289,56.1649 15.5,60.5C 14.5207,59.2347 13.5207,57.9014 12.5,56.5C 11.5985,59.795 11.5985,63.1283 12.5,66.5C 10.632,65.2431 8.96529,65.5764 7.5,67.5C 6.20719,65.3635 6.20719,63.3635 7.5,61.5C 7.26269,62.791 7.59603,63.791 8.5,64.5C 10.4023,61.6627 11.069,58.3293 10.5,54.5C 11.5,54.5 12.5,54.5 13.5,54.5C 13.595,52.2143 14.2616,50.2143 15.5,48.5 Z"/></g>
<g><path style="opacity:1" fill="#a41057" d="M 36.5,57.5 C 37.2719,58.6935 38.2719,59.6935 39.5,60.5C 40.1408,61.4822 40.8075,62.4822 41.5,63.5C 41.1667,63.8333 40.8333,64.1667 40.5,64.5C 38.981,63.1487 37.6477,61.6487 36.5,60C 35.552,59.5172 34.552,59.3505 33.5,59.5C 33.2011,57.396 33.5344,55.396 34.5,53.5C 35.1719,54.9492 35.8386,56.2825 36.5,57.5 Z"/></g>
<g><path style="opacity:1" fill="#e40373" d="M 39.5,55.5 C 40.8845,56.8009 42.3845,56.8009 44,55.5C 46.126,57.3766 48.626,58.3766 51.5,58.5C 53.2156,59.9708 55.2156,60.9708 57.5,61.5C 58.5,61.8333 59.1667,62.5 59.5,63.5C 57.4727,63.6621 55.4727,63.4955 53.5,63C 52.5291,61.5187 51.1958,60.6854 49.5,60.5C 48.8333,60.5 48.1667,60.5 47.5,60.5C 47.1667,60.5 46.8333,60.5 46.5,60.5C 45.1516,59.8141 43.985,58.8141 43,57.5C 42.2411,59.0629 41.0744,60.0629 39.5,60.5C 38.2719,59.6935 37.2719,58.6935 36.5,57.5C 36.5,56.5 36.5,55.5 36.5,54.5C 37.791,54.2627 38.791,54.596 39.5,55.5 Z"/></g>
<g><path style="opacity:1" fill="#e50789" d="M 8.5,64.5 C 7.59603,63.791 7.26269,62.791 7.5,61.5C 8.30912,59.7078 8.80912,57.7078 9,55.5C 9.73577,58.592 9.56911,61.592 8.5,64.5 Z"/></g>
<g><path style="opacity:1" fill="#53295b" d="M 18.5,47.5 C 19.5,47.5 20.5,47.5 21.5,47.5C 21.2627,48.791 21.596,49.791 22.5,50.5C 22.1796,53.8984 22.513,57.2317 23.5,60.5C 24.1818,59.7573 24.8485,59.0906 25.5,58.5C 26.4916,58.3284 27.1583,58.6618 27.5,59.5C 26.3349,60.4961 25.6682,61.8295 25.5,63.5C 26.6511,65.3254 27.3178,67.3254 27.5,69.5C 27.5,70.1667 27.5,70.8333 27.5,71.5C 26.5084,71.6716 25.8417,71.3382 25.5,70.5C 24.1834,67.1031 22.6834,63.7698 21,60.5C 20.2495,64.8036 18.4162,65.4703 15.5,62.5C 16.5,62.5 17.5,62.5 18.5,62.5C 19.368,60.1033 20.0347,57.6033 20.5,55C 20.0347,52.3967 19.368,49.8967 18.5,47.5 Z"/></g>
<g><path style="opacity:1" fill="#7c1763" d="M 28.5,58.5 C 29.609,58.5569 30.609,58.8902 31.5,59.5C 31.4326,60.9587 31.7659,62.2921 32.5,63.5C 30.8762,63.3601 29.7096,64.0267 29,65.5C 28.4954,63.4817 27.9954,61.4817 27.5,59.5C 28.1667,59.5 28.5,59.1667 28.5,58.5 Z"/></g>
<g><path style="opacity:0.867" fill="#967e9e" d="M 83.5,59.5 C 84.3764,59.3691 85.0431,59.7025 85.5,60.5C 83.9137,62.1727 83.2471,64.1727 83.5,66.5C 83.1667,66.5 82.8333,66.5 82.5,66.5C 82.8432,64.5168 82.1765,63.1834 80.5,62.5C 80.5,62.1667 80.5,61.8333 80.5,61.5C 81.5,60.8333 82.5,60.1667 83.5,59.5 Z"/></g>
<g><path style="opacity:1" fill="#23516c" d="M 71.5,62.5 C 69.7211,64.3435 67.3878,65.0102 64.5,64.5C 63.8333,64.5 63.5,64.1667 63.5,63.5C 66.2372,63.5987 68.9039,63.2653 71.5,62.5 Z"/></g>
<g><path style="opacity:1" fill="#171242" d="M 76.5,48.5 C 76.8333,48.5 77.1667,48.5 77.5,48.5C 77.5,53.1667 77.5,57.8333 77.5,62.5C 78.5,62.5 79.5,62.5 80.5,62.5C 82.1765,63.1834 82.8432,64.5168 82.5,66.5C 82.1667,66.5 81.8333,66.5 81.5,66.5C 80.0813,65.5489 78.4147,65.2155 76.5,65.5C 76.5,67.1667 76.5,68.8333 76.5,70.5C 75.209,70.7373 74.209,70.404 73.5,69.5C 72.8166,67.8235 71.4832,67.1568 69.5,67.5C 68.1979,65.9724 66.5313,64.9724 64.5,64.5C 67.3878,65.0102 69.7211,64.3435 71.5,62.5C 72.1667,61.1667 72.8333,59.8333 73.5,58.5C 73.2746,60.7159 74.1079,62.3826 76,63.5C 76.4993,58.5111 76.6659,53.5111 76.5,48.5 Z"/></g>
<g><path style="opacity:1" fill="#ef237f" d="M 27.5,59.5 C 27.9954,61.4817 28.4954,63.4817 29,65.5C 29.7096,64.0267 30.8762,63.3601 32.5,63.5C 32.5,63.8333 32.5,64.1667 32.5,64.5C 32.5636,68.4455 30.8969,70.1122 27.5,69.5C 27.3178,67.3254 26.6511,65.3254 25.5,63.5C 25.6682,61.8295 26.3349,60.4961 27.5,59.5 Z"/></g>
<g><path style="opacity:1" fill="#f02f99" d="M 46.5,60.5 C 45.8106,61.7736 44.9772,61.7736 44,60.5C 43.6666,62.0468 44.1666,63.3801 45.5,64.5C 44.4116,65.9344 43.0783,66.9344 41.5,67.5C 40.5416,67.0472 39.7083,66.3805 39,65.5C 38.5357,66.0944 38.369,66.7611 38.5,67.5C 38.6503,70.926 37.4837,71.2594 35,68.5C 34.5172,67.552 34.3505,66.552 34.5,65.5C 35.0431,65.44 35.3764,65.1067 35.5,64.5C 34.5435,62.9246 33.8769,61.258 33.5,59.5C 34.552,59.3505 35.552,59.5172 36.5,60C 37.6477,61.6487 38.981,63.1487 40.5,64.5C 40.8333,64.1667 41.1667,63.8333 41.5,63.5C 40.8075,62.4822 40.1408,61.4822 39.5,60.5C 41.0744,60.0629 42.2411,59.0629 43,57.5C 43.985,58.8141 45.1516,59.8141 46.5,60.5 Z"/></g>
<g><path style="opacity:1" fill="#fd379f" d="M 47.5,60.5 C 48.1667,60.5 48.8333,60.5 49.5,60.5C 51.8564,64.6853 55.5231,66.852 60.5,67C 57.4715,67.539 54.4715,68.2057 51.5,69C 54.0135,70.2525 56.6802,70.7525 59.5,70.5C 61.7812,70.0773 63.4479,70.744 64.5,72.5C 58.4556,71.837 52.789,72.837 47.5,75.5C 46.377,73.711 45.0436,73.3776 43.5,74.5C 44.1925,75.5178 44.8592,76.5178 45.5,77.5C 44.209,77.7373 43.209,77.404 42.5,76.5C 42.2267,74.549 42.8934,73.049 44.5,72C 43.9781,71.4387 43.6448,70.772 43.5,70C 45.4919,67.6991 47.4919,65.3657 49.5,63C 48.6195,62.2917 47.9528,61.4584 47.5,60.5 Z"/></g>
<g><path style="opacity:1" fill="#f00572" d="M 49.5,60.5 C 51.1958,60.6854 52.5291,61.5187 53.5,63C 55.4727,63.4955 57.4727,63.6621 59.5,63.5C 60.8333,63.5 62.1667,63.5 63.5,63.5C 63.5,64.1667 63.8333,64.5 64.5,64.5C 66.5313,64.9724 68.1979,65.9724 69.5,67.5C 65.7267,67.2633 62.0601,67.7633 58.5,69C 59.056,69.3826 59.3893,69.8826 59.5,70.5C 56.6802,70.7525 54.0135,70.2525 51.5,69C 54.4715,68.2057 57.4715,67.539 60.5,67C 55.5231,66.852 51.8564,64.6853 49.5,60.5 Z"/></g>
<g><path style="opacity:0.935" fill="#4c4158" d="M 83.5,66.5 C 85.3609,67.8419 87.3609,68.8419 89.5,69.5C 87.5,69.5 85.5,69.5 83.5,69.5C 83.5,68.5 83.5,67.5 83.5,66.5 Z"/></g>
<g><path style="opacity:1" fill="#fb0b6a" d="M 69.5,67.5 C 71.4832,67.1568 72.8166,67.8235 73.5,69.5C 71.1217,70.6924 69.1217,72.359 67.5,74.5C 64.9228,74.4551 62.9228,75.4551 61.5,77.5C 61.1667,77.5 60.8333,77.5 60.5,77.5C 59.4479,75.744 57.7812,75.0773 55.5,75.5C 55.8747,78.9067 54.8747,79.4067 52.5,77C 53.9733,76.2904 54.6399,75.1238 54.5,73.5C 58.0419,73.8128 61.3752,73.4794 64.5,72.5C 63.4479,70.744 61.7812,70.0773 59.5,70.5C 59.3893,69.8826 59.056,69.3826 58.5,69C 62.0601,67.7633 65.7267,67.2633 69.5,67.5 Z"/></g>
<g><path style="opacity:1" fill="#7c0955" d="M 81.5,66.5 C 81.8333,66.5 82.1667,66.5 82.5,66.5C 82.8333,66.5 83.1667,66.5 83.5,66.5C 83.5,67.5 83.5,68.5 83.5,69.5C 85.5,69.5 87.5,69.5 89.5,69.5C 89.5,69.8333 89.5,70.1667 89.5,70.5C 86.8127,70.3359 84.146,70.5026 81.5,71C 82.7375,71.2321 83.7375,71.7321 84.5,72.5C 83.1667,72.5 81.8333,72.5 80.5,72.5C 80.5,72.1667 80.5,71.8333 80.5,71.5C 80.2155,69.5853 80.5489,67.9187 81.5,66.5 Z"/></g>
<g><path style="opacity:1" fill="#fe5fad" d="M 46.5,60.5 C 46.8333,60.5 47.1667,60.5 47.5,60.5C 47.9528,61.4584 48.6195,62.2917 49.5,63C 47.4919,65.3657 45.4919,67.6991 43.5,70C 43.6448,70.772 43.9781,71.4387 44.5,72C 42.8934,73.049 42.2267,74.549 42.5,76.5C 40.8312,74.8597 38.8312,73.5263 36.5,72.5C 35.8333,73.5 35.1667,74.5 34.5,75.5C 33.1973,74.2822 32.1973,74.6155 31.5,76.5C 30.3875,74.5808 29.0542,72.9142 27.5,71.5C 27.5,70.8333 27.5,70.1667 27.5,69.5C 30.8969,70.1122 32.5636,68.4455 32.5,64.5C 33.1667,64.8333 33.8333,65.1667 34.5,65.5C 34.3505,66.552 34.5172,67.552 35,68.5C 37.4837,71.2594 38.6503,70.926 38.5,67.5C 39.7942,68.2899 40.9609,69.2899 42,70.5C 42.4696,69.4232 42.3029,68.4232 41.5,67.5C 43.0783,66.9344 44.4116,65.9344 45.5,64.5C 44.1666,63.3801 43.6666,62.0468 44,60.5C 44.9772,61.7736 45.8106,61.7736 46.5,60.5 Z"/></g>
<g><path style="opacity:1" fill="#fba7ce" d="M 41.5,67.5 C 42.3029,68.4232 42.4696,69.4232 42,70.5C 40.9609,69.2899 39.7942,68.2899 38.5,67.5C 38.369,66.7611 38.5357,66.0944 39,65.5C 39.7083,66.3805 40.5416,67.0472 41.5,67.5 Z"/></g>
<g><path style="opacity:1" fill="#2a396c" d="M 81.5,66.5 C 80.5489,67.9187 80.2155,69.5853 80.5,71.5C 75.2266,71.0306 70.8932,72.6973 67.5,76.5C 67.5,75.8333 67.5,75.1667 67.5,74.5C 69.1217,72.359 71.1217,70.6924 73.5,69.5C 74.209,70.404 75.209,70.7373 76.5,70.5C 76.5,68.8333 76.5,67.1667 76.5,65.5C 78.4147,65.2155 80.0813,65.5489 81.5,66.5 Z"/></g>
<g><path style="opacity:1" fill="#70345a" d="M 89.5,70.5 C 91.5,70.5 93.5,70.5 95.5,70.5C 95.5,71.5 95.5,72.5 95.5,73.5C 91.6837,74.6203 88.0171,74.6203 84.5,73.5C 86.604,73.7989 88.604,73.4656 90.5,72.5C 90.1373,71.8165 89.8039,71.1499 89.5,70.5 Z"/></g>
<g><path style="opacity:1" fill="#ba0f65" d="M 89.5,70.5 C 89.8039,71.1499 90.1373,71.8165 90.5,72.5C 88.604,73.4656 86.604,73.7989 84.5,73.5C 84.5,73.1667 84.5,72.8333 84.5,72.5C 83.7375,71.7321 82.7375,71.2321 81.5,71C 84.146,70.5026 86.8127,70.3359 89.5,70.5 Z"/></g>
<g><path style="opacity:1" fill="#4083a0" d="M 80.5,71.5 C 80.5,71.8333 80.5,72.1667 80.5,72.5C 79.1266,72.3433 77.7932,72.51 76.5,73C 73.9116,75.4162 71.5782,77.9162 69.5,80.5C 66.8333,80.5 64.1667,80.5 61.5,80.5C 63.2922,79.6909 65.2922,79.1909 67.5,79C 65.9419,78.79 64.6085,78.29 63.5,77.5C 64.9587,77.5674 66.2921,77.2341 67.5,76.5C 70.8932,72.6973 75.2266,71.0306 80.5,71.5 Z"/></g>
<g><path style="opacity:1" fill="#de1a7f" d="M 15.5,60.5 C 15.5,61.1667 15.5,61.8333 15.5,62.5C 18.4162,65.4703 20.2495,64.8036 21,60.5C 22.6834,63.7698 24.1834,67.1031 25.5,70.5C 24.8365,72.0419 24.1698,73.7086 23.5,75.5C 22.1455,73.4788 20.4788,71.8121 18.5,70.5C 17.8519,68.9142 17.3519,67.2475 17,65.5C 16.3333,67.5 16.3333,69.5 17,71.5C 17.2355,73.1193 18.0689,74.1193 19.5,74.5C 19.5,77.1667 19.5,79.8333 19.5,82.5C 16.8936,79.5865 14.8936,76.2531 13.5,72.5C 13.7947,70.2646 13.4614,68.2646 12.5,66.5C 11.5985,63.1283 11.5985,59.795 12.5,56.5C 13.5207,57.9014 14.5207,59.2347 15.5,60.5 Z"/></g>
<g><path style="opacity:1" fill="#661342" d="M 18.5,70.5 C 18.4326,71.9587 18.7659,73.2921 19.5,74.5C 18.0689,74.1193 17.2355,73.1193 17,71.5C 16.3333,69.5 16.3333,67.5 17,65.5C 17.3519,67.2475 17.8519,68.9142 18.5,70.5 Z"/></g>
<g><path style="opacity:1" fill="#f8217c" d="M 64.5,72.5 C 61.3752,73.4794 58.0419,73.8128 54.5,73.5C 54.6399,75.1238 53.9733,76.2904 52.5,77C 54.8747,79.4067 55.8747,78.9067 55.5,75.5C 57.7812,75.0773 59.4479,75.744 60.5,77.5C 60.5,78.5 60.5,79.5 60.5,80.5C 56.5863,80.8887 52.9196,80.2221 49.5,78.5C 48.4324,77.5655 47.099,77.2322 45.5,77.5C 44.8592,76.5178 44.1925,75.5178 43.5,74.5C 45.0436,73.3776 46.377,73.711 47.5,75.5C 52.789,72.837 58.4556,71.837 64.5,72.5 Z"/></g>
<g><path style="opacity:1" fill="#a31a45" d="M 67.5,74.5 C 67.5,75.1667 67.5,75.8333 67.5,76.5C 66.2921,77.2341 64.9587,77.5674 63.5,77.5C 62.8333,77.5 62.1667,77.5 61.5,77.5C 62.9228,75.4551 64.9228,74.4551 67.5,74.5 Z"/></g>
<g><path style="opacity:1" fill="#393250" d="M 21.5,76.5 C 22.9163,78.1793 24.2497,79.8459 25.5,81.5C 23.4816,80.0674 21.8149,80.4008 20.5,82.5C 20.2053,80.2646 20.5386,78.2646 21.5,76.5 Z"/></g>
<g><path style="opacity:1" fill="#f85bb1" d="M 18.5,70.5 C 20.4788,71.8121 22.1455,73.4788 23.5,75.5C 24.1698,73.7086 24.8365,72.0419 25.5,70.5C 25.8417,71.3382 26.5084,71.6716 27.5,71.5C 28.3928,74.6795 29.3928,77.8462 30.5,81C 29.9444,82.0111 29.2778,82.8444 28.5,83.5C 27.7777,82.4489 26.7777,81.7822 25.5,81.5C 24.2497,79.8459 22.9163,78.1793 21.5,76.5C 21.1667,75.5 20.5,74.8333 19.5,74.5C 18.7659,73.2921 18.4326,71.9587 18.5,70.5 Z"/></g>
<g><path style="opacity:1" fill="#f6218f" d="M 27.5,71.5 C 29.0542,72.9142 30.3875,74.5808 31.5,76.5C 32.1973,74.6155 33.1973,74.2822 34.5,75.5C 35.1667,74.5 35.8333,73.5 36.5,72.5C 38.8312,73.5263 40.8312,74.8597 42.5,76.5C 43.209,77.404 44.209,77.7373 45.5,77.5C 47.099,77.2322 48.4324,77.5655 49.5,78.5C 47.5853,78.2155 45.9187,78.5489 44.5,79.5C 43.1765,78.1501 42.1765,78.3167 41.5,80C 41.9783,81.3026 42.645,82.4693 43.5,83.5C 40.6711,83.6751 39.0045,82.3418 38.5,79.5C 37.8933,79.6236 37.56,79.9569 37.5,80.5C 35.7704,79.0243 34.4371,79.3576 33.5,81.5C 34.7472,83.323 35.4139,85.323 35.5,87.5C 36.9305,87.4208 38.2638,87.7542 39.5,88.5C 40.7733,89.2565 40.7733,89.9232 39.5,90.5C 37.5659,89.8897 35.8993,88.8897 34.5,87.5C 32.8525,85.6736 30.8525,84.3403 28.5,83.5C 29.2778,82.8444 29.9444,82.0111 30.5,81C 29.3928,77.8462 28.3928,74.6795 27.5,71.5 Z"/></g>
<g><path style="opacity:1" fill="#830c44" d="M 19.5,74.5 C 20.5,74.8333 21.1667,75.5 21.5,76.5C 20.5386,78.2646 20.2053,80.2646 20.5,82.5C 20.1667,82.5 19.8333,82.5 19.5,82.5C 19.5,79.8333 19.5,77.1667 19.5,74.5 Z"/></g>
<g><path style="opacity:1" fill="#6f3c56" d="M 60.5,77.5 C 60.8333,77.5 61.1667,77.5 61.5,77.5C 62.1667,77.5 62.8333,77.5 63.5,77.5C 64.6085,78.29 65.9419,78.79 67.5,79C 65.2922,79.1909 63.2922,79.6909 61.5,80.5C 59.5446,81.4474 59.2113,82.7807 60.5,84.5C 58.604,85.4656 56.604,85.7989 54.5,85.5C 53.5,85.5 52.5,85.5 51.5,85.5C 51.5,87.1667 51.5,88.8333 51.5,90.5C 50.209,90.7373 49.209,90.404 48.5,89.5C 50.256,88.4479 50.9227,86.7812 50.5,84.5C 53.1873,84.6641 55.854,84.4974 58.5,84C 53.6502,82.5469 48.9835,81.0469 44.5,79.5C 45.9187,78.5489 47.5853,78.2155 49.5,78.5C 52.9196,80.2221 56.5863,80.8887 60.5,80.5C 60.5,79.5 60.5,78.5 60.5,77.5 Z"/></g>
<g><path style="opacity:0.482" fill="#acb6c4" d="M 13.5,72.5 C 14.8936,76.2531 16.8936,79.5865 19.5,82.5C 19.8333,82.5 20.1667,82.5 20.5,82.5C 21.8149,80.4008 23.4816,80.0674 25.5,81.5C 26.7777,81.7822 27.7777,82.4489 28.5,83.5C 29.6338,86.0338 31.6338,87.3671 34.5,87.5C 35.8993,88.8897 37.5659,89.8897 39.5,90.5C 40.5451,91.8776 41.8784,92.8776 43.5,93.5C 44.1635,91.9581 44.8302,90.2914 45.5,88.5C 46.1067,88.6236 46.44,88.9569 46.5,89.5C 45.5386,91.2646 45.2053,93.2646 45.5,95.5C 44.1667,95.5 42.8333,95.5 41.5,95.5C 37.5918,92.1059 33.2585,89.2725 28.5,87C 26.6667,85.1667 24.8333,83.3333 23,81.5C 22.3386,83.9156 20.8386,85.5823 18.5,86.5C 15.9779,83.1936 14.3112,79.5269 13.5,75.5C 13.5,74.5 13.5,73.5 13.5,72.5 Z"/></g>
<g><path style="opacity:1" fill="#e80566" d="M 44.5,79.5 C 48.9835,81.0469 53.6502,82.5469 58.5,84C 55.854,84.4974 53.1873,84.6641 50.5,84.5C 50.9227,86.7812 50.256,88.4479 48.5,89.5C 47.1667,87.5 45.5,85.8333 43.5,84.5C 43.5,84.1667 43.5,83.8333 43.5,83.5C 42.645,82.4693 41.9783,81.3026 41.5,80C 42.1765,78.3167 43.1765,78.1501 44.5,79.5 Z"/></g>
<g><path style="opacity:1" fill="#e40d6b" d="M 37.5,80.5 C 39.5397,83.8586 41.5397,87.1919 43.5,90.5C 43.5,91.5 43.5,92.5 43.5,93.5C 41.8784,92.8776 40.5451,91.8776 39.5,90.5C 40.7733,89.9232 40.7733,89.2565 39.5,88.5C 38.2638,87.7542 36.9305,87.4208 35.5,87.5C 35.4139,85.323 34.7472,83.323 33.5,81.5C 34.4371,79.3576 35.7704,79.0243 37.5,80.5 Z"/></g>
<g><path style="opacity:0.498" fill="#c7d5de" d="M 61.5,80.5 C 64.1667,80.5 66.8333,80.5 69.5,80.5C 67.369,81.3138 65.0356,81.8138 62.5,82C 61.5761,82.85 61.5761,83.85 62.5,85C 62.0946,85.9454 61.428,86.6121 60.5,87C 58.1902,87.4966 55.8568,87.6633 53.5,87.5C 52.5591,93.1388 50.2258,93.8055 46.5,89.5C 47.1667,89.5 47.8333,89.5 48.5,89.5C 49.209,90.404 50.209,90.7373 51.5,90.5C 52.2329,88.7056 53.2329,87.0389 54.5,85.5C 56.604,85.7989 58.604,85.4656 60.5,84.5C 59.2113,82.7807 59.5446,81.4474 61.5,80.5 Z"/></g>
<g><path style="opacity:1" fill="#ae4989" d="M 28.5,83.5 C 30.8525,84.3403 32.8525,85.6736 34.5,87.5C 31.6338,87.3671 29.6338,86.0338 28.5,83.5 Z"/></g>
<g><path style="opacity:1" fill="#3f183a" d="M 43.5,83.5 C 43.5,83.8333 43.5,84.1667 43.5,84.5C 43.5,86.5 43.5,88.5 43.5,90.5C 41.5397,87.1919 39.5397,83.8586 37.5,80.5C 37.56,79.9569 37.8933,79.6236 38.5,79.5C 39.0045,82.3418 40.6711,83.6751 43.5,83.5 Z"/></g>
<g><path style="opacity:1" fill="#766986" d="M 43.5,84.5 C 45.5,85.8333 47.1667,87.5 48.5,89.5C 47.8333,89.5 47.1667,89.5 46.5,89.5C 46.44,88.9569 46.1067,88.6236 45.5,88.5C 44.8302,90.2914 44.1635,91.9581 43.5,93.5C 43.5,92.5 43.5,91.5 43.5,90.5C 43.5,88.5 43.5,86.5 43.5,84.5 Z"/></g>
<g><path style="opacity:0.78" fill="#4a5962" d="M 54.5,85.5 C 53.2329,87.0389 52.2329,88.7056 51.5,90.5C 51.5,88.8333 51.5,87.1667 51.5,85.5C 52.5,85.5 53.5,85.5 54.5,85.5 Z"/></g>
</svg>
