<?xml version="1.0" encoding="UTF-8"?>
<!DOCTYPE svg PUBLIC "-//W3C//DTD SVG 1.1//EN" "http://www.w3.org/Graphics/SVG/1.1/DTD/svg11.dtd">
<svg xmlns="http://www.w3.org/2000/svg" version="1.1" width="100px" height="69px" style="shape-rendering:geometricPrecision; text-rendering:geometricPrecision; image-rendering:optimizeQuality; fill-rule:evenodd; clip-rule:evenodd" xmlns:xlink="http://www.w3.org/1999/xlink">
<g><path style="opacity:0.008" fill="#fefffe" d="M 98.5,-0.5 C 98.8333,-0.5 99.1667,-0.5 99.5,-0.5C 99.5,-0.166667 99.5,0.166667 99.5,0.5C 99.1667,0.166667 98.8333,-0.166667 98.5,-0.5 Z"/></g>
<g><path style="opacity:0.8" fill="#c0d4d6" d="M 89.5,13.5 C 89.5,14.5 89.5,15.5 89.5,16.5C 88.0679,12.7333 85.4012,10.4 81.5,9.5C 79.283,8.63137 76.9496,8.29803 74.5,8.5C 74.4392,5.95046 73.1059,4.45046 70.5,4C 63.5244,3.10821 56.5244,2.60821 49.5,2.5C 48.7777,3.55114 47.7777,4.21781 46.5,4.5C 48.0193,1.11762 50.686,-0.215711 54.5,0.5C 60.1736,1.26791 65.8402,2.10124 71.5,3C 75.8826,5.73712 80.5493,7.73712 85.5,9C 87.0703,10.3968 88.4036,11.8968 89.5,13.5 Z"/></g>
<g><path style="opacity:0.043" fill="#f2f8f9" d="M 98.5,0.5 C 97.7508,3.09523 96.0841,4.2619 93.5,4C 94.5089,1.82817 96.1756,0.661504 98.5,0.5 Z"/></g>
<g><path style="opacity:1" fill="#317c83" d="M 49.5,2.5 C 49.3284,3.49162 49.6618,4.15829 50.5,4.5C 49.7375,5.26791 48.7375,5.76791 47.5,6C 49.8776,6.97448 49.5443,7.64114 46.5,8C 47.3081,8.30762 47.9747,8.80762 48.5,9.5C 46.5787,10.641 44.5787,10.8077 42.5,10C 43.9733,9.29044 44.6399,8.12377 44.5,6.5C 45.5,6.16667 46.1667,5.5 46.5,4.5C 47.7777,4.21781 48.7777,3.55114 49.5,2.5 Z"/></g>
<g><path style="opacity:1" fill="#856fad" d="M 52.5,6.5 C 57.544,6.17252 62.544,6.50585 67.5,7.5C 67.3764,8.10667 67.0431,8.44001 66.5,8.5C 61.1254,8.82818 55.7921,8.49485 50.5,7.5C 50.9569,6.70245 51.6236,6.36912 52.5,6.5 Z"/></g>
<g><path style="opacity:1" fill="#1e193b" d="M 50.5,4.5 C 52.8568,4.33669 55.1902,4.50335 57.5,5C 55.6183,5.19808 53.9516,5.69808 52.5,6.5C 51.6236,6.36912 50.9569,6.70245 50.5,7.5C 55.7921,8.49485 61.1254,8.82818 66.5,8.5C 67.5,9.16667 68.5,9.83333 69.5,10.5C 65.4862,10.3345 61.4862,10.5012 57.5,11C 56.6195,11.7083 55.9528,12.5416 55.5,13.5C 55.1667,13.5 54.8333,13.5 54.5,13.5C 49.7586,11.6923 44.7586,11.1923 39.5,12C 38.9415,12.7247 38.6082,13.5581 38.5,14.5C 39.7322,17.2108 40.7322,19.8774 41.5,22.5C 41.5,23.1667 41.5,23.8333 41.5,24.5C 38.0547,23.9239 34.7214,22.9239 31.5,21.5C 34.089,20.795 36.7557,20.795 39.5,21.5C 39.7035,19.6096 39.0368,18.1096 37.5,17C 36.2559,16.5439 35.4226,17.0439 35,18.5C 33.8873,17.695 32.7206,17.0283 31.5,16.5C 30.791,15.596 29.791,15.2627 28.5,15.5C 33.0713,11.5371 38.4046,8.53711 44.5,6.5C 44.6399,8.12377 43.9733,9.29044 42.5,10C 44.5787,10.8077 46.5787,10.641 48.5,9.5C 47.9747,8.80762 47.3081,8.30762 46.5,8C 49.5443,7.64114 49.8776,6.97448 47.5,6C 48.7375,5.76791 49.7375,5.26791 50.5,4.5 Z"/></g>
<g><path style="opacity:1" fill="#201341" d="M 49.5,2.5 C 56.5244,2.60821 63.5244,3.10821 70.5,4C 73.1059,4.45046 74.4392,5.95046 74.5,8.5C 76.9496,8.29803 79.283,8.63137 81.5,9.5C 81.5,10.1667 81.5,10.8333 81.5,11.5C 79.5447,11.7986 78.2114,12.7986 77.5,14.5C 77.9175,15.2216 78.5842,15.7216 79.5,16C 78.7476,16.6708 78.4142,17.5041 78.5,18.5C 77.6733,21.1317 76.84,23.7983 76,26.5C 75.34,28.3237 74.1733,29.657 72.5,30.5C 73.1667,28.8333 73.8333,27.1667 74.5,25.5C 75.6341,23.0336 75.8007,20.367 75,17.5C 73.3335,15.0043 71.5002,12.671 69.5,10.5C 68.5,9.83333 67.5,9.16667 66.5,8.5C 67.0431,8.44001 67.3764,8.10667 67.5,7.5C 62.544,6.50585 57.544,6.17252 52.5,6.5C 53.9516,5.69808 55.6183,5.19808 57.5,5C 55.1902,4.50335 52.8568,4.33669 50.5,4.5C 49.6618,4.15829 49.3284,3.49162 49.5,2.5 Z"/></g>
<g><path style="opacity:0.014" fill="#f5f9fa" d="M 89.5,13.5 C 90.4154,11.0722 91.5821,8.73885 93,6.5C 94.284,9.37638 93.6173,12.043 91,14.5C 90.6174,13.944 90.1174,13.6107 89.5,13.5 Z"/></g>
<g><path style="opacity:0.42" fill="#d1eaec" d="M 81.5,11.5 C 82.1667,11.5 82.5,11.8333 82.5,12.5C 81.2905,12.9321 80.2905,13.5987 79.5,14.5C 78.8333,14.5 78.1667,14.5 77.5,14.5C 78.2114,12.7986 79.5447,11.7986 81.5,11.5 Z"/></g>
<g><path style="opacity:1" fill="#5c0a5c" d="M 54.5,13.5 C 53.797,15.8726 52.4637,17.8726 50.5,19.5C 47.5,19.5 44.5,19.5 41.5,19.5C 41.5,20.5 41.5,21.5 41.5,22.5C 40.7322,19.8774 39.7322,17.2108 38.5,14.5C 38.6082,13.5581 38.9415,12.7247 39.5,12C 44.7586,11.1923 49.7586,11.6923 54.5,13.5 Z"/></g>
<g><path style="opacity:1" fill="#746994" d="M 73.5,18.5 C 74.0288,22.1916 73.0288,25.3583 70.5,28C 68.8333,28.6667 67.1667,28.6667 65.5,28C 63.9052,25.8981 61.9052,24.3981 59.5,23.5C 58.5233,20.7131 58.19,17.7131 58.5,14.5C 64.3153,13.456 69.3153,14.7893 73.5,18.5 Z"/></g>
<g><path style="opacity:1" fill="#7a6085" d="M 77.5,14.5 C 78.1667,14.5 78.8333,14.5 79.5,14.5C 81.1788,14.2852 82.1788,14.9519 82.5,16.5C 82.5,16.8333 82.5,17.1667 82.5,17.5C 81.0413,17.4326 79.7079,17.7659 78.5,18.5C 78.4142,17.5041 78.7476,16.6708 79.5,16C 78.5842,15.7216 77.9175,15.2216 77.5,14.5 Z"/></g>
<g><path style="opacity:0.053" fill="#c2cfd5" d="M 82.5,12.5 C 84.5996,14.1551 86.2663,16.3218 87.5,19C 87.4301,19.7648 87.0967,20.2648 86.5,20.5C 85.1667,19.5 83.8333,18.5 82.5,17.5C 82.5,17.1667 82.5,16.8333 82.5,16.5C 83.2389,16.631 83.9056,16.4643 84.5,16C 83.695,14.8873 83.0283,13.7206 82.5,12.5 Z"/></g>
<g><path style="opacity:1" fill="#37355c" d="M 81.5,9.5 C 85.4012,10.4 88.0679,12.7333 89.5,16.5C 90.9103,20.7047 91.577,25.038 91.5,29.5C 90.1667,30.8333 88.8333,30.8333 87.5,29.5C 87.7359,26.3915 87.4025,23.3915 86.5,20.5C 87.0967,20.2648 87.4301,19.7648 87.5,19C 86.2663,16.3218 84.5996,14.1551 82.5,12.5C 82.5,11.8333 82.1667,11.5 81.5,11.5C 81.5,10.8333 81.5,10.1667 81.5,9.5 Z"/></g>
<g><path style="opacity:0.944" fill="#b5ccd0" d="M 46.5,4.5 C 46.1667,5.5 45.5,6.16667 44.5,6.5C 38.4046,8.53711 33.0713,11.5371 28.5,15.5C 26.5,17.8333 24.5,20.1667 22.5,22.5C 18.1161,22.1744 13.7828,22.5078 9.5,23.5C 11.2012,24.8347 12.8679,26.168 14.5,27.5C 12.5,28.1667 10.5,28.8333 8.5,29.5C 6.5,29.5 4.5,29.5 2.5,29.5C 1.95691,29.56 1.62358,29.8933 1.5,30.5C 2.83333,32.1667 4.16667,33.8333 5.5,35.5C 3.47878,36.8545 1.81212,38.5212 0.5,40.5C 0.166667,40.5 -0.166667,40.5 -0.5,40.5C -0.5,39.8333 -0.5,39.1667 -0.5,38.5C 3.39384,36.9107 3.89384,34.9107 1,32.5C 0.333333,31.1667 0.333333,29.8333 1,28.5C 4.24498,27.6852 7.41164,27.3518 10.5,27.5C 8.467,25.5485 8.13367,23.3818 9.5,21C 13.5575,20.2334 17.5575,20.4001 21.5,21.5C 23.9528,18.7587 26.2861,15.9254 28.5,13C 34.0221,9.40824 40.0221,6.5749 46.5,4.5 Z"/></g>
<g><path style="opacity:1" fill="#972e52" d="M 82.5,17.5 C 83.8333,18.5 85.1667,19.5 86.5,20.5C 87.4025,23.3915 87.7359,26.3915 87.5,29.5C 86.8333,29.5 86.5,29.8333 86.5,30.5C 85.7638,28.7706 84.4305,27.7706 82.5,27.5C 82.756,25.0876 81.756,23.4209 79.5,22.5C 78.3679,24.598 77.3679,26.7647 76.5,29C 77.8333,31.6667 77.8333,34.3333 76.5,37C 76.9783,38.3026 77.645,39.4693 78.5,40.5C 78.5,43.1667 78.5,45.8333 78.5,48.5C 80.8333,48.5 83.1667,48.5 85.5,48.5C 84.5,50.1667 83.1667,51.5 81.5,52.5C 80.1667,52.5 78.8333,52.5 77.5,52.5C 77.6653,48.8183 77.4986,45.1516 77,41.5C 75.549,39.5359 73.7157,38.2026 71.5,37.5C 71.5,37.1667 71.5,36.8333 71.5,36.5C 72.9311,35.9181 74.2644,35.0848 75.5,34C 74.3094,33.3021 73.3094,32.4687 72.5,31.5C 72.5,31.1667 72.5,30.8333 72.5,30.5C 74.1733,29.657 75.34,28.3237 76,26.5C 76.84,23.7983 77.6733,21.1317 78.5,18.5C 79.7079,17.7659 81.0413,17.4326 82.5,17.5 Z"/></g>
<g><path style="opacity:1" fill="#260940" d="M 54.5,13.5 C 54.8333,13.5 55.1667,13.5 55.5,13.5C 55.6458,17.5191 55.9791,21.5191 56.5,25.5C 55.8333,26.1667 55.1667,26.8333 54.5,27.5C 53.5416,27.0472 52.7083,26.3805 52,25.5C 51.8019,23.6183 51.3019,21.9516 50.5,20.5C 50.5,20.1667 50.5,19.8333 50.5,19.5C 52.4637,17.8726 53.797,15.8726 54.5,13.5 Z"/></g>
<g><path style="opacity:1" fill="#3a3360" d="M 69.5,10.5 C 71.5002,12.671 73.3335,15.0043 75,17.5C 75.8007,20.367 75.6341,23.0336 74.5,25.5C 74.8016,22.9407 74.4682,20.6074 73.5,18.5C 69.3153,14.7893 64.3153,13.456 58.5,14.5C 58.19,17.7131 58.5233,20.7131 59.5,23.5C 59.1788,25.0481 58.1788,25.7148 56.5,25.5C 55.9791,21.5191 55.6458,17.5191 55.5,13.5C 55.9528,12.5416 56.6195,11.7083 57.5,11C 61.4862,10.5012 65.4862,10.3345 69.5,10.5 Z"/></g>
<g><path style="opacity:1" fill="#eadf1c" d="M 66.5,17.5 C 71.128,19.2629 71.4613,21.5963 67.5,24.5C 65.9991,23.2485 64.3325,22.2485 62.5,21.5C 63.6888,20.5713 65.0222,20.238 66.5,20.5C 66.5,19.5 66.5,18.5 66.5,17.5 Z"/></g>
<g><path style="opacity:1" fill="#e06e5b" d="M 82.5,27.5 C 81.8333,28.5 81.1667,29.5 80.5,30.5C 79.8333,33.8333 79.1667,37.1667 78.5,40.5C 77.645,39.4693 76.9783,38.3026 76.5,37C 77.8333,34.3333 77.8333,31.6667 76.5,29C 77.3679,26.7647 78.3679,24.598 79.5,22.5C 81.756,23.4209 82.756,25.0876 82.5,27.5 Z"/></g>
<g><path style="opacity:1" fill="#ec036d" d="M 28.5,15.5 C 29.791,15.2627 30.791,15.596 31.5,16.5C 24.8419,28.4631 24.8419,40.4631 31.5,52.5C 30.675,53.3857 29.675,53.719 28.5,53.5C 27.1667,52.1667 25.8333,50.8333 24.5,49.5C 23.4088,46.7279 22.4088,43.8946 21.5,41C 22.9304,39.1113 23.5971,36.9446 23.5,34.5C 22.8362,30.524 22.5029,26.524 22.5,22.5C 24.5,20.1667 26.5,17.8333 28.5,15.5 Z"/></g>
<g><path style="opacity:1" fill="#a43b53" d="M 50.5,19.5 C 50.5,19.8333 50.5,20.1667 50.5,20.5C 47.6122,19.9898 45.2789,20.6565 43.5,22.5C 45.6464,27.0976 45.9797,31.7642 44.5,36.5C 43.5634,32.5306 42.5634,28.5306 41.5,24.5C 41.5,23.8333 41.5,23.1667 41.5,22.5C 41.5,21.5 41.5,20.5 41.5,19.5C 44.5,19.5 47.5,19.5 50.5,19.5 Z"/></g>
<g><path style="opacity:0.416" fill="#dcd3da" d="M 89.5,16.5 C 90.1174,16.6107 90.6174,16.944 91,17.5C 91.6779,23.3569 93.1779,28.8569 95.5,34C 94.5676,38.7002 92.2343,42.5335 88.5,45.5C 89.3431,42.4838 90.8431,39.8171 93,37.5C 93.6667,35.1667 93.6667,32.8333 93,30.5C 92.6174,29.944 92.1174,29.6107 91.5,29.5C 91.577,25.038 90.9103,20.7047 89.5,16.5 Z"/></g>
<g><path style="opacity:1" fill="#171923" d="M 14.5,27.5 C 16.0257,28.1047 17.0257,29.2714 17.5,31C 16.1279,31.4017 14.7946,31.9017 13.5,32.5C 11.8554,31.3037 10.1887,30.3037 8.5,29.5C 10.5,28.8333 12.5,28.1667 14.5,27.5 Z"/></g>
<g><path style="opacity:1" fill="#382953" d="M 73.5,18.5 C 74.4682,20.6074 74.8016,22.9407 74.5,25.5C 73.8333,27.1667 73.1667,28.8333 72.5,30.5C 72.5,30.8333 72.5,31.1667 72.5,31.5C 70.31,32.7476 69.9766,34.4143 71.5,36.5C 71.5,36.8333 71.5,37.1667 71.5,37.5C 73.0248,39.2163 74.0248,41.2163 74.5,43.5C 74.1667,43.5 73.8333,43.5 73.5,43.5C 72.8333,43.1667 72.1667,42.8333 71.5,42.5C 70.8091,40.9778 69.6424,39.9778 68,39.5C 64.0909,41.0168 60.9243,43.3502 58.5,46.5C 57.5233,49.2869 57.19,52.2869 57.5,55.5C 61.3123,56.3238 65.3123,56.8238 69.5,57C 64.2145,58.0452 59.2145,57.5452 54.5,55.5C 52.7755,53.0862 51.4422,50.4196 50.5,47.5C 51.8014,48.64 52.9681,49.9733 54,51.5C 54.0392,48.0256 54.8725,44.6922 56.5,41.5C 56.4346,41.9382 56.6012,42.2716 57,42.5C 59.7314,40.3459 62.5648,38.3459 65.5,36.5C 67.4526,37.9053 68.4526,37.2386 68.5,34.5C 68.1667,33.5 67.8333,32.5 67.5,31.5C 66.8933,31.6236 66.56,31.9569 66.5,32.5C 63.2185,30.8601 60.2185,28.8601 57.5,26.5C 56.8333,27.1667 56.1667,27.8333 55.5,28.5C 54.8933,28.3764 54.56,28.0431 54.5,27.5C 55.1667,26.8333 55.8333,26.1667 56.5,25.5C 58.1788,25.7148 59.1788,25.0481 59.5,23.5C 61.9052,24.3981 63.9052,25.8981 65.5,28C 67.1667,28.6667 68.8333,28.6667 70.5,28C 73.0288,25.3583 74.0288,22.1916 73.5,18.5 Z"/></g>
<g><path style="opacity:1" fill="#df785f" d="M 50.5,20.5 C 51.3019,21.9516 51.8019,23.6183 52,25.5C 52.7083,26.3805 53.5416,27.0472 54.5,27.5C 54.56,28.0431 54.8933,28.3764 55.5,28.5C 56.1667,27.8333 56.8333,27.1667 57.5,26.5C 60.2185,28.8601 63.2185,30.8601 66.5,32.5C 66.5674,33.9587 66.2341,35.2921 65.5,36.5C 62.5648,38.3459 59.7314,40.3459 57,42.5C 56.6012,42.2716 56.4346,41.9382 56.5,41.5C 56.6309,40.6236 56.2975,39.9569 55.5,39.5C 54.2274,42.5213 52.2274,43.5213 49.5,42.5C 49.5,41.8333 49.1667,41.5 48.5,41.5C 49.0312,39.4559 50.1978,37.7893 52,36.5C 52.6667,34.8333 52.6667,33.1667 52,31.5C 49.1506,28.4257 46.3172,25.4257 43.5,22.5C 45.2789,20.6565 47.6122,19.9898 50.5,20.5 Z"/></g>
<g><path style="opacity:1" fill="#281747" d="M 22.5,22.5 C 22.5029,26.524 22.8362,30.524 23.5,34.5C 23.5971,36.9446 22.9304,39.1113 21.5,41C 22.4088,43.8946 23.4088,46.7279 24.5,49.5C 18.6282,51.3172 12.6282,52.1505 6.5,52C 7.74811,50.0414 9.41478,48.5414 11.5,47.5C 9.25731,46.5258 6.92397,46.1924 4.5,46.5C 4.73286,44.9382 5.39952,43.6049 6.5,42.5C 6.5,42.1667 6.5,41.8333 6.5,41.5C 10.6801,41.1382 14.6801,40.1382 18.5,38.5C 16.4611,33.7809 12.9611,32.1143 8,33.5C 6.53851,31.5318 4.70518,30.1984 2.5,29.5C 4.5,29.5 6.5,29.5 8.5,29.5C 10.1887,30.3037 11.8554,31.3037 13.5,32.5C 14.7946,31.9017 16.1279,31.4017 17.5,31C 17.0257,29.2714 16.0257,28.1047 14.5,27.5C 12.8679,26.168 11.2012,24.8347 9.5,23.5C 13.7828,22.5078 18.1161,22.1744 22.5,22.5 Z"/></g>
<g><path style="opacity:1" fill="#cb5547" d="M 43.5,22.5 C 46.3172,25.4257 49.1506,28.4257 52,31.5C 52.6667,33.1667 52.6667,34.8333 52,36.5C 50.1978,37.7893 49.0312,39.4559 48.5,41.5C 46.4131,40.4154 45.0798,38.7488 44.5,36.5C 45.9797,31.7642 45.6464,27.0976 43.5,22.5 Z"/></g>
<g><path style="opacity:1" fill="#b8445b" d="M 72.5,31.5 C 73.3094,32.4687 74.3094,33.3021 75.5,34C 74.2644,35.0848 72.9311,35.9181 71.5,36.5C 69.9766,34.4143 70.31,32.7476 72.5,31.5 Z"/></g>
<g><path style="opacity:1" fill="#2d1952" d="M 2.5,29.5 C 4.70518,30.1984 6.53851,31.5318 8,33.5C 12.9611,32.1143 16.4611,33.7809 18.5,38.5C 14.6801,40.1382 10.6801,41.1382 6.5,41.5C 4.26465,41.7947 2.26465,41.4614 0.5,40.5C 1.81212,38.5212 3.47878,36.8545 5.5,35.5C 4.16667,33.8333 2.83333,32.1667 1.5,30.5C 1.62358,29.8933 1.95691,29.56 2.5,29.5 Z"/></g>
<g><path style="opacity:1" fill="#807a8e" d="M 65.5,36.5 C 66.2341,35.2921 66.5674,33.9587 66.5,32.5C 66.56,31.9569 66.8933,31.6236 67.5,31.5C 67.8333,32.5 68.1667,33.5 68.5,34.5C 68.4526,37.2386 67.4526,37.9053 65.5,36.5 Z"/></g>
<g><path style="opacity:1" fill="#301a52" d="M 43.5,36.5 C 43.5,37.1667 43.1667,37.5 42.5,37.5C 38.1667,38.1667 33.8333,38.8333 29.5,39.5C 29.5,36.1667 29.5,32.8333 29.5,29.5C 33.2733,29.2633 36.9399,29.7633 40.5,31C 42.607,32.2635 43.607,34.0968 43.5,36.5 Z"/></g>
<g><path style="opacity:1" fill="#260e39" d="M 82.5,27.5 C 84.4305,27.7706 85.7638,28.7706 86.5,30.5C 88.178,33.3096 87.8447,35.643 85.5,37.5C 85.5,35.5 85.5,33.5 85.5,31.5C 84.5,31.5 83.5,31.5 82.5,31.5C 82.3359,34.1873 82.5026,36.854 83,39.5C 83.3826,40.056 83.8826,40.3893 84.5,40.5C 83.8106,41.7736 82.9772,41.7736 82,40.5C 80.8011,37.2744 80.3011,33.941 80.5,30.5C 81.1667,29.5 81.8333,28.5 82.5,27.5 Z"/></g>
<g><path style="opacity:1" fill="#883d5c" d="M 43.5,36.5 C 43.8333,36.5 44.1667,36.5 44.5,36.5C 45.0798,38.7488 46.4131,40.4154 48.5,41.5C 49.1667,41.5 49.5,41.8333 49.5,42.5C 48.6618,42.8417 48.3284,43.5084 48.5,44.5C 47.8333,44.5 47.5,44.1667 47.5,43.5C 46.1667,41.5 44.5,39.8333 42.5,38.5C 42.5,38.1667 42.5,37.8333 42.5,37.5C 43.1667,37.5 43.5,37.1667 43.5,36.5 Z"/></g>
<g><path style="opacity:1" fill="#240d3c" d="M 31.5,16.5 C 32.7206,17.0283 33.8873,17.695 35,18.5C 35.4226,17.0439 36.2559,16.5439 37.5,17C 39.0368,18.1096 39.7035,19.6096 39.5,21.5C 36.7557,20.795 34.089,20.795 31.5,21.5C 34.7214,22.9239 38.0547,23.9239 41.5,24.5C 42.5634,28.5306 43.5634,32.5306 44.5,36.5C 44.1667,36.5 43.8333,36.5 43.5,36.5C 43.607,34.0968 42.607,32.2635 40.5,31C 36.9399,29.7633 33.2733,29.2633 29.5,29.5C 29.5,32.8333 29.5,36.1667 29.5,39.5C 33.8333,38.8333 38.1667,38.1667 42.5,37.5C 42.5,37.8333 42.5,38.1667 42.5,38.5C 42.7845,40.4147 42.4511,42.0813 41.5,43.5C 41.762,42.0222 41.4287,40.6888 40.5,39.5C 37.2423,40.4173 33.909,40.7507 30.5,40.5C 30.3398,42.1992 30.5065,43.8659 31,45.5C 33.2828,45.9704 34.7828,46.6371 35.5,47.5C 34.5,47.5 33.5,47.5 32.5,47.5C 32.6287,49.2161 32.962,50.8828 33.5,52.5C 33.5,52.8333 33.5,53.1667 33.5,53.5C 33.5,54.1667 33.5,54.8333 33.5,55.5C 31.6943,54.9759 30.0276,54.3092 28.5,53.5C 29.675,53.719 30.675,53.3857 31.5,52.5C 24.8419,40.4631 24.8419,28.4631 31.5,16.5 Z"/></g>
<g><path style="opacity:0.92" fill="#616b7b" d="M -0.5,40.5 C -0.166667,40.5 0.166667,40.5 0.5,40.5C 2.26465,41.4614 4.26465,41.7947 6.5,41.5C 6.5,41.8333 6.5,42.1667 6.5,42.5C 4.16667,42.5 1.83333,42.5 -0.5,42.5C -0.5,41.8333 -0.5,41.1667 -0.5,40.5 Z"/></g>
<g><path style="opacity:1" fill="#32154e" d="M 41.5,43.5 C 41.7709,45.3797 41.1042,46.713 39.5,47.5C 39.6495,46.448 39.4828,45.448 39,44.5C 39.5974,49.1364 37.764,52.1364 33.5,53.5C 33.5,53.1667 33.5,52.8333 33.5,52.5C 34.5375,51.0697 35.2041,49.403 35.5,47.5C 34.7828,46.6371 33.2828,45.9704 31,45.5C 30.5065,43.8659 30.3398,42.1992 30.5,40.5C 33.909,40.7507 37.2423,40.4173 40.5,39.5C 41.4287,40.6888 41.762,42.0222 41.5,43.5 Z"/></g>
<g><path style="opacity:1" fill="#c25055" d="M 87.5,29.5 C 88.8333,30.8333 90.1667,30.8333 91.5,29.5C 92.1174,29.6107 92.6174,29.944 93,30.5C 93.6667,32.8333 93.6667,35.1667 93,37.5C 90.8431,39.8171 89.3431,42.4838 88.5,45.5C 87.2719,46.3065 86.2719,47.3065 85.5,48.5C 83.1667,48.5 80.8333,48.5 78.5,48.5C 78.5,45.8333 78.5,43.1667 78.5,40.5C 79.1667,37.1667 79.8333,33.8333 80.5,30.5C 80.3011,33.941 80.8011,37.2744 82,40.5C 82.9772,41.7736 83.8106,41.7736 84.5,40.5C 85.404,39.791 85.7373,38.791 85.5,37.5C 87.8447,35.643 88.178,33.3096 86.5,30.5C 86.5,29.8333 86.8333,29.5 87.5,29.5 Z"/></g>
<g><path style="opacity:1" fill="#ad0a5d" d="M 85.5,37.5 C 85.7373,38.791 85.404,39.791 84.5,40.5C 83.8826,40.3893 83.3826,40.056 83,39.5C 82.5026,36.854 82.3359,34.1873 82.5,31.5C 83.5,31.5 84.5,31.5 85.5,31.5C 85.5,33.5 85.5,35.5 85.5,37.5 Z"/></g>
<g><path style="opacity:0.249" fill="#ddedee" d="M -0.5,43.5 C -0.5,43.1667 -0.5,42.8333 -0.5,42.5C 1.83333,42.5 4.16667,42.5 6.5,42.5C 5.39952,43.6049 4.73286,44.9382 4.5,46.5C 3.59603,45.791 3.26269,44.791 3.5,43.5C 2.16667,43.5 0.833333,43.5 -0.5,43.5 Z"/></g>
<g><path style="opacity:0.125" fill="#c9dade" d="M 4.5,46.5 C 6.92397,46.1924 9.25731,46.5258 11.5,47.5C 9.41478,48.5414 7.74811,50.0414 6.5,52C 12.6282,52.1505 18.6282,51.3172 24.5,49.5C 25.8333,50.8333 27.1667,52.1667 28.5,53.5C 30.0276,54.3092 31.6943,54.9759 33.5,55.5C 34.5,57.1667 35.8333,58.5 37.5,59.5C 37.5,59.8333 37.5,60.1667 37.5,60.5C 34.6453,58.0031 31.3119,56.3365 27.5,55.5C 26.561,53.9466 25.3943,52.6133 24,51.5C 17.5542,53.3141 11.0542,53.6474 4.5,52.5C 5.49093,50.6769 6.82426,49.1769 8.5,48C 6.94186,47.79 5.60853,47.29 4.5,46.5 Z"/></g>
<g><path style="opacity:1" fill="#2b1158" d="M 56.5,41.5 C 54.8725,44.6922 54.0392,48.0256 54,51.5C 52.9681,49.9733 51.8014,48.64 50.5,47.5C 50.2178,46.2223 49.5511,45.2223 48.5,44.5C 48.3284,43.5084 48.6618,42.8417 49.5,42.5C 52.2274,43.5213 54.2274,42.5213 55.5,39.5C 56.2975,39.9569 56.6309,40.6236 56.5,41.5 Z"/></g>
<g><path style="opacity:1" fill="#84f430" d="M 68.5,42.5 C 71.2767,46.2042 70.2767,48.5376 65.5,49.5C 65.4729,47.8007 64.8062,46.4674 63.5,45.5C 65.3542,44.759 67.0209,43.759 68.5,42.5 Z"/></g>
<g><path style="opacity:1" fill="#06ee8f" d="M 68.5,42.5 C 69.5,42.5 70.5,42.5 71.5,42.5C 72.1667,42.8333 72.8333,43.1667 73.5,43.5C 73.7947,45.7354 73.4614,47.7354 72.5,49.5C 70.7313,50.4214 69.0646,51.5881 67.5,53C 65.4213,53.8077 63.4213,53.641 61.5,52.5C 62.0671,50.0177 62.7337,47.6843 63.5,45.5C 64.8062,46.4674 65.4729,47.8007 65.5,49.5C 70.2767,48.5376 71.2767,46.2042 68.5,42.5 Z"/></g>
<g><path style="opacity:1" fill="#9b0353" d="M 35.5,47.5 C 35.2041,49.403 34.5375,51.0697 33.5,52.5C 32.962,50.8828 32.6287,49.2161 32.5,47.5C 33.5,47.5 34.5,47.5 35.5,47.5 Z"/></g>
<g><path style="opacity:1" fill="#0e1d29" d="M 73.5,43.5 C 73.8333,43.5 74.1667,43.5 74.5,43.5C 74.5389,54.9547 68.8722,58.9547 57.5,55.5C 57.19,52.2869 57.5233,49.2869 58.5,46.5C 58.2317,49.1194 58.565,51.6194 59.5,54C 62.8333,54.6667 66.1667,54.6667 69.5,54C 70.8825,52.7292 71.8825,51.2292 72.5,49.5C 73.4614,47.7354 73.7947,45.7354 73.5,43.5 Z"/></g>
<g><path style="opacity:1" fill="#df746f" d="M 47.5,43.5 C 47.5,44.1667 47.8333,44.5 48.5,44.5C 49.5511,45.2223 50.2178,46.2223 50.5,47.5C 51.4422,50.4196 52.7755,53.0862 54.5,55.5C 53.1667,55.5 51.8333,55.5 50.5,55.5C 52.0329,53.2104 51.6996,52.5437 49.5,53.5C 47.9288,51.585 45.9288,50.585 43.5,50.5C 43.2011,48.396 43.5344,46.396 44.5,44.5C 45.1924,45.0253 45.6924,45.6919 46,46.5C 46.2321,45.2625 46.7321,44.2625 47.5,43.5 Z"/></g>
<g><path style="opacity:1" fill="#04b37d" d="M 71.5,42.5 C 70.5,42.5 69.5,42.5 68.5,42.5C 67.0209,43.759 65.3542,44.759 63.5,45.5C 62.7337,47.6843 62.0671,50.0177 61.5,52.5C 63.4213,53.641 65.4213,53.8077 67.5,53C 69.0646,51.5881 70.7313,50.4214 72.5,49.5C 71.8825,51.2292 70.8825,52.7292 69.5,54C 66.1667,54.6667 62.8333,54.6667 59.5,54C 58.565,51.6194 58.2317,49.1194 58.5,46.5C 60.9243,43.3502 64.0909,41.0168 68,39.5C 69.6424,39.9778 70.8091,40.9778 71.5,42.5 Z"/></g>
<g><path style="opacity:0.2" fill="#d0e3e6" d="M 88.5,45.5 C 88.5,46.5 88.5,47.5 88.5,48.5C 87.8333,48.5 87.5,48.8333 87.5,49.5C 85.7541,51.2516 83.7541,52.5849 81.5,53.5C 81.5,53.1667 81.5,52.8333 81.5,52.5C 83.1667,51.5 84.5,50.1667 85.5,48.5C 86.2719,47.3065 87.2719,46.3065 88.5,45.5 Z"/></g>
<g><path style="opacity:1" fill="#2a1843" d="M 71.5,37.5 C 73.7157,38.2026 75.549,39.5359 77,41.5C 77.4986,45.1516 77.6653,48.8183 77.5,52.5C 78.8333,52.5 80.1667,52.5 81.5,52.5C 81.5,52.8333 81.5,53.1667 81.5,53.5C 77.5541,53.4877 75.8874,55.4877 76.5,59.5C 72.6802,64.9897 67.3469,66.9897 60.5,65.5C 57.1667,65.5 53.8333,65.5 50.5,65.5C 50.2852,63.8212 50.9519,62.8212 52.5,62.5C 58.321,63.5635 63.9876,63.0635 69.5,61C 63.5092,60.5005 57.5092,60.3338 51.5,60.5C 49.2574,59.6877 46.9241,59.0211 44.5,58.5C 42.1417,58.7529 39.8083,59.0862 37.5,59.5C 35.8333,58.5 34.5,57.1667 33.5,55.5C 33.5,54.8333 33.5,54.1667 33.5,53.5C 37.764,52.1364 39.5974,49.1364 39,44.5C 39.4828,45.448 39.6495,46.448 39.5,47.5C 39.6795,49.9541 39.0128,52.1208 37.5,54C 38.6092,56.9282 40.7759,58.0949 44,57.5C 46.3409,57.1705 48.5076,56.5038 50.5,55.5C 51.8333,55.5 53.1667,55.5 54.5,55.5C 59.2145,57.5452 64.2145,58.0452 69.5,57C 65.3123,56.8238 61.3123,56.3238 57.5,55.5C 68.8722,58.9547 74.5389,54.9547 74.5,43.5C 74.0248,41.2163 73.0248,39.2163 71.5,37.5 Z"/></g>
<g><path style="opacity:1" fill="#b74653" d="M 42.5,38.5 C 44.5,39.8333 46.1667,41.5 47.5,43.5C 46.7321,44.2625 46.2321,45.2625 46,46.5C 45.6924,45.6919 45.1924,45.0253 44.5,44.5C 43.5344,46.396 43.2011,48.396 43.5,50.5C 45.9288,50.585 47.9288,51.585 49.5,53.5C 51.6996,52.5437 52.0329,53.2104 50.5,55.5C 48.5076,56.5038 46.3409,57.1705 44,57.5C 40.7759,58.0949 38.6092,56.9282 37.5,54C 39.0128,52.1208 39.6795,49.9541 39.5,47.5C 41.1042,46.713 41.7709,45.3797 41.5,43.5C 42.4511,42.0813 42.7845,40.4147 42.5,38.5 Z"/></g>
<g><path style="opacity:0.028" fill="#f7fbfb" d="M 88.5,48.5 C 91.2941,49.5846 91.9608,51.4179 90.5,54C 92.9305,56.3046 93.9305,59.1379 93.5,62.5C 91.1363,58.4435 89.1363,54.1102 87.5,49.5C 88.1667,49.5 88.5,49.1667 88.5,48.5 Z"/></g>
<g><path style="opacity:1" fill="#a9c3ca" d="M 81.5,53.5 C 79.4857,55.2036 77.8191,57.2036 76.5,59.5C 75.8874,55.4877 77.5541,53.4877 81.5,53.5 Z"/></g>
<g><path style="opacity:1" fill="#343f64" d="M 51.5,60.5 C 51.8333,61.1667 52.1667,61.8333 52.5,62.5C 50.9519,62.8212 50.2852,63.8212 50.5,65.5C 53.8333,65.5 57.1667,65.5 60.5,65.5C 57.0381,66.4816 53.3714,66.815 49.5,66.5C 49.321,64.3944 48.321,62.7277 46.5,61.5C 43.7465,61.1035 40.7465,60.7702 37.5,60.5C 37.5,60.1667 37.5,59.8333 37.5,59.5C 39.8083,59.0862 42.1417,58.7529 44.5,58.5C 46.9241,59.0211 49.2574,59.6877 51.5,60.5 Z"/></g>
<g><path style="opacity:0.008" fill="#fcfffe" d="M 93.5,62.5 C 94.8333,63.1667 94.8333,63.1667 93.5,62.5 Z"/></g>
<g><path style="opacity:0.492" fill="#b8ced4" d="M 76.5,59.5 C 76.1601,62.6748 74.4934,64.8415 71.5,66C 63.5471,67.2227 55.5471,67.7227 47.5,67.5C 47.5,66.5 47.5,65.5 47.5,64.5C 43.8632,63.7365 40.5299,62.4032 37.5,60.5C 40.7465,60.7702 43.7465,61.1035 46.5,61.5C 48.321,62.7277 49.321,64.3944 49.5,66.5C 53.3714,66.815 57.0381,66.4816 60.5,65.5C 67.3469,66.9897 72.6802,64.9897 76.5,59.5 Z"/></g>
<g><path style="opacity:1" fill="#706592" d="M 51.5,60.5 C 57.5092,60.3338 63.5092,60.5005 69.5,61C 63.9876,63.0635 58.321,63.5635 52.5,62.5C 52.1667,61.8333 51.8333,61.1667 51.5,60.5 Z"/></g>
<g><path style="opacity:0.02" fill="#f7fafb" d="M 98.5,68.5 C 97.5,68.5 96.5,68.5 95.5,68.5C 96.5,65.8333 97.5,65.8333 98.5,68.5 Z"/></g>
</svg>
