<?xml version="1.0" encoding="UTF-8"?>
<!DOCTYPE svg PUBLIC "-//W3C//DTD SVG 1.1//EN" "http://www.w3.org/Graphics/SVG/1.1/DTD/svg11.dtd">
<svg xmlns="http://www.w3.org/2000/svg" version="1.1" width="100px" height="77px" style="shape-rendering:geometricPrecision; text-rendering:geometricPrecision; image-rendering:optimizeQuality; fill-rule:evenodd; clip-rule:evenodd" xmlns:xlink="http://www.w3.org/1999/xlink">
<g><path style="opacity:0.724" fill="#826e7e" d="M 59.5,-0.5 C 65.5,-0.5 71.5,-0.5 77.5,-0.5C 78.388,2.05449 78.7214,4.72116 78.5,7.5C 77.5386,5.73535 77.2053,3.73535 77.5,1.5C 74.1667,1.5 70.8333,1.5 67.5,1.5C 64.0396,1.52541 60.7063,2.19207 57.5,3.5C 57.6236,4.10667 57.9569,4.44001 58.5,4.5C 57.8106,5.77359 56.9772,5.77359 56,4.5C 54.955,5.37344 54.1217,6.37344 53.5,7.5C 47.8534,7.24398 42.1867,7.91065 36.5,9.5C 41.1763,6.93245 46.1763,6.09912 51.5,7C 53.8615,4.03923 56.5282,1.53923 59.5,-0.5 Z"/></g>
<g><path style="opacity:1" fill="#afc219" d="M 62.5,5.5 C 64.8333,5.5 67.1667,5.5 69.5,5.5C 69.5,6.16667 69.5,6.83333 69.5,7.5C 66.8333,7.5 64.1667,7.5 61.5,7.5C 61.3284,6.50838 61.6618,5.84171 62.5,5.5 Z"/></g>
<g><path style="opacity:1" fill="#180650" d="M 58.5,4.5 C 59.8333,4.5 61.1667,4.5 62.5,4.5C 62.5,4.83333 62.5,5.16667 62.5,5.5C 61.6618,5.84171 61.3284,6.50838 61.5,7.5C 59.5,7.5 57.5,7.5 55.5,7.5C 55.1667,7.5 54.8333,7.5 54.5,7.5C 54.1667,7.5 53.8333,7.5 53.5,7.5C 54.1217,6.37344 54.955,5.37344 56,4.5C 56.9772,5.77359 57.8106,5.77359 58.5,4.5 Z"/></g>
<g><path style="opacity:1" fill="#117913" d="M 67.5,2.5 C 70.5,2.5 73.5,2.5 76.5,2.5C 76.5,3.5 76.5,4.5 76.5,5.5C 74.1667,5.5 71.8333,5.5 69.5,5.5C 67.1667,5.5 64.8333,5.5 62.5,5.5C 62.5,5.16667 62.5,4.83333 62.5,4.5C 66.8461,4.66568 71.1794,4.49902 75.5,4C 72.6353,3.8171 69.9686,3.3171 67.5,2.5 Z"/></g>
<g><path style="opacity:1" fill="#04cb05" d="M 67.5,1.5 C 67.5,1.83333 67.5,2.16667 67.5,2.5C 69.9686,3.3171 72.6353,3.8171 75.5,4C 71.1794,4.49902 66.8461,4.66568 62.5,4.5C 61.1667,4.5 59.8333,4.5 58.5,4.5C 57.9569,4.44001 57.6236,4.10667 57.5,3.5C 60.7063,2.19207 64.0396,1.52541 67.5,1.5 Z"/></g>
<g><path style="opacity:1" fill="#3d873d" d="M 55.5,7.5 C 57.5,7.5 59.5,7.5 61.5,7.5C 64.1667,7.5 66.8333,7.5 69.5,7.5C 69.8333,7.5 70.1667,7.5 70.5,7.5C 70.5,8.16667 70.5,8.83333 70.5,9.5C 69.0813,10.4511 67.4147,10.7845 65.5,10.5C 62.4521,8.88131 59.1188,7.88131 55.5,7.5 Z"/></g>
<g><path style="opacity:1" fill="#9ff902" d="M 70.5,7.5 C 77.1667,8.16667 77.1667,8.83333 70.5,9.5C 70.5,8.83333 70.5,8.16667 70.5,7.5 Z"/></g>
<g><path style="opacity:1" fill="#06b419" d="M 54.5,7.5 C 54.8333,7.5 55.1667,7.5 55.5,7.5C 59.1188,7.88131 62.4521,8.88131 65.5,10.5C 62.8333,10.5 60.1667,10.5 57.5,10.5C 57.1667,10.5 56.8333,10.5 56.5,10.5C 55.4489,9.77765 54.7822,8.77765 54.5,7.5 Z"/></g>
<g><path style="opacity:1" fill="#64024d" d="M 56.5,10.5 C 56.8333,10.5 57.1667,10.5 57.5,10.5C 57.5,10.8333 57.5,11.1667 57.5,11.5C 55.5293,13.8082 53.5293,16.1415 51.5,18.5C 48.8106,17.8106 47.1439,16.144 46.5,13.5C 49.5694,11.8683 52.9027,10.8683 56.5,10.5 Z"/></g>
<g><path style="opacity:1" fill="#0d8e38" d="M 73.5,12.5 C 76.2085,11.0969 78.5418,11.7635 80.5,14.5C 80,14.8333 79.5,15.1667 79,15.5C 77.8615,15.0109 76.6948,14.6775 75.5,14.5C 74.8333,13.8333 74.1667,13.1667 73.5,12.5 Z"/></g>
<g><path style="opacity:1" fill="#6e608d" d="M 42.5,13.5 C 40.8777,16.4549 38.8777,19.1215 36.5,21.5C 34.461,22.911 33.461,24.911 33.5,27.5C 32.5489,28.9187 32.2155,30.5853 32.5,32.5C 29.8333,32.5 27.1667,32.5 24.5,32.5C 26.1197,23.2677 30.7864,15.9343 38.5,10.5C 40.483,10.8148 41.8163,11.8148 42.5,13.5 Z"/></g>
<g><path style="opacity:1" fill="#a4d256" d="M 32.5,11.5 C 31.9202,13.7488 30.5869,15.4154 28.5,16.5C 26.8008,16.3398 25.1341,16.5065 23.5,17C 20.1374,19.1781 16.4708,20.6781 12.5,21.5C 12.9569,22.2975 13.6236,22.6309 14.5,22.5C 14.33,23.8221 14.6634,24.9887 15.5,26C 17.5,26.3333 19.5,26.6667 21.5,27C 18.4453,27.6342 15.4453,27.4675 12.5,26.5C 12.5,26.1667 12.5,25.8333 12.5,25.5C 11.7888,23.9699 10.7888,22.6366 9.5,21.5C 12.72,19.0214 16.3867,17.188 20.5,16C 23.5934,11.5845 27.5934,10.0845 32.5,11.5 Z"/></g>
<g><path style="opacity:1" fill="#f1008d" d="M 42.5,13.5 C 43.8333,13.5 45.1667,13.5 46.5,13.5C 47.1439,16.144 48.8106,17.8106 51.5,18.5C 52.1667,18.5 52.5,18.8333 52.5,19.5C 53.0911,24.5432 52.0911,29.2099 49.5,33.5C 46.0855,30.0751 42.4188,27.0751 38.5,24.5C 37.4489,23.7777 36.7822,22.7777 36.5,21.5C 38.8777,19.1215 40.8777,16.4549 42.5,13.5 Z"/></g>
<g><path style="opacity:0.914" fill="#3b3748" d="M 67.5,2.5 C 67.5,2.16667 67.5,1.83333 67.5,1.5C 70.8333,1.5 74.1667,1.5 77.5,1.5C 77.2053,3.73535 77.5386,5.73535 78.5,7.5C 82.6704,9.10194 84.0038,11.9353 82.5,16C 85.7393,18.0782 88.406,20.5782 90.5,23.5C 89.2921,22.7659 87.9587,22.4326 86.5,22.5C 85.1394,20.4727 83.4727,18.806 81.5,17.5C 79.1561,17.0603 77.1561,16.0603 75.5,14.5C 76.6948,14.6775 77.8615,15.0109 79,15.5C 79.5,15.1667 80,14.8333 80.5,14.5C 78.5418,11.7635 76.2085,11.0969 73.5,12.5C 68.228,11.5998 62.8947,11.2665 57.5,11.5C 57.5,11.1667 57.5,10.8333 57.5,10.5C 60.1667,10.5 62.8333,10.5 65.5,10.5C 67.4147,10.7845 69.0813,10.4511 70.5,9.5C 77.1667,8.83333 77.1667,8.16667 70.5,7.5C 70.1667,7.5 69.8333,7.5 69.5,7.5C 69.5,6.83333 69.5,6.16667 69.5,5.5C 71.8333,5.5 74.1667,5.5 76.5,5.5C 76.5,4.5 76.5,3.5 76.5,2.5C 73.5,2.5 70.5,2.5 67.5,2.5 Z"/></g>
<g><path style="opacity:1" fill="#231b4c" d="M 60.5,15.5 C 62.5922,15.5614 64.0922,16.5614 65,18.5C 67.0363,22.6684 69.2029,26.6684 71.5,30.5C 71.5,31.1667 71.1667,31.5 70.5,31.5C 67.5,31.5 64.5,31.5 61.5,31.5C 63.5366,27.7164 62.5366,25.0497 58.5,23.5C 57.7492,24.376 57.2492,25.376 57,26.5C 56.3333,23.8333 56.3333,21.1667 57,18.5C 58.5185,17.8366 59.6851,16.8366 60.5,15.5 Z"/></g>
<g><path style="opacity:1" fill="#520350" d="M 81.5,17.5 C 83.4727,18.806 85.1394,20.4727 86.5,22.5C 85.5041,22.4142 84.6708,22.7476 84,23.5C 83.6571,27.5384 82.1571,31.0384 79.5,34C 82.3948,37.3408 81.8948,40.1741 78,42.5C 76.3703,40.8495 76.5369,39.1828 78.5,37.5C 78.1822,36.3527 77.5156,35.5194 76.5,35C 77.2524,34.3292 77.5858,33.4959 77.5,32.5C 79.4976,28.4769 79.9976,24.1436 79,19.5C 78.5,19 78,18.5 77.5,18C 78.7932,17.51 80.1266,17.3433 81.5,17.5 Z"/></g>
<g><path style="opacity:1" fill="#1d0e4b" d="M 57.5,11.5 C 62.8947,11.2665 68.228,11.5998 73.5,12.5C 74.1667,13.1667 74.8333,13.8333 75.5,14.5C 77.1561,16.0603 79.1561,17.0603 81.5,17.5C 80.1266,17.3433 78.7932,17.51 77.5,18C 78,18.5 78.5,19 79,19.5C 79.9976,24.1436 79.4976,28.4769 77.5,32.5C 73.8132,33.8742 72.1466,36.5408 72.5,40.5C 68.8333,40.5 65.1667,40.5 61.5,40.5C 62.0838,37.715 61.0838,36.0483 58.5,35.5C 55.7577,33.8193 54.091,31.8193 53.5,29.5C 56.1667,31.1667 58.8333,32.8333 61.5,34.5C 67.9489,35.5258 73.1156,33.5258 77,28.5C 77.4974,25.854 77.6641,23.1873 77.5,20.5C 75.5097,19.0655 73.843,17.2322 72.5,15C 71.552,14.5172 70.552,14.3505 69.5,14.5C 69.38,13.4138 68.7133,12.7472 67.5,12.5C 66.2867,12.7472 65.62,13.4138 65.5,14.5C 65.1667,14.5 64.8333,14.5 64.5,14.5C 63.7961,12.6558 62.4628,12.1558 60.5,13C 57.6688,14.6657 55.3355,16.8324 53.5,19.5C 53.1667,19.5 52.8333,19.5 52.5,19.5C 52.5,18.8333 52.1667,18.5 51.5,18.5C 53.5293,16.1415 55.5293,13.8082 57.5,11.5 Z"/></g>
<g><path style="opacity:1" fill="#0c94b7" d="M 69.5,14.5 C 68.1667,14.5 66.8333,14.5 65.5,14.5C 65.62,13.4138 66.2867,12.7472 67.5,12.5C 68.7133,12.7472 69.38,13.4138 69.5,14.5 Z"/></g>
<g><path style="opacity:1" fill="#f1f0cc" d="M 28.5,16.5 C 28.2451,18.9674 27.2451,20.9674 25.5,22.5C 21.8013,23.5792 18.1346,23.5792 14.5,22.5C 13.6236,22.6309 12.9569,22.2975 12.5,21.5C 16.4708,20.6781 20.1374,19.1781 23.5,17C 25.1341,16.5065 26.8008,16.3398 28.5,16.5 Z"/></g>
<g><path style="opacity:0.518" fill="#d89f9a" d="M 9.5,21.5 C 10.7888,22.6366 11.7888,23.9699 12.5,25.5C 9.66786,25.0581 8.66786,23.7248 9.5,21.5 Z"/></g>
<g><path style="opacity:1" fill="#384572" d="M 60.5,15.5 C 61.5676,14.5655 62.901,14.2322 64.5,14.5C 64.8333,14.5 65.1667,14.5 65.5,14.5C 66.8333,14.5 68.1667,14.5 69.5,14.5C 70.552,14.3505 71.552,14.5172 72.5,15C 73.843,17.2322 75.5097,19.0655 77.5,20.5C 75.8031,22.3052 74.9698,24.6385 75,27.5C 73.9609,28.7101 72.7942,29.7101 71.5,30.5C 69.2029,26.6684 67.0363,22.6684 65,18.5C 64.0922,16.5614 62.5922,15.5614 60.5,15.5 Z"/></g>
<g><path style="opacity:1" fill="#4ca9c8" d="M 64.5,14.5 C 62.901,14.2322 61.5676,14.5655 60.5,15.5C 59.6851,16.8366 58.5185,17.8366 57,18.5C 56.3333,21.1667 56.3333,23.8333 57,26.5C 57.2492,25.376 57.7492,24.376 58.5,23.5C 62.5366,25.0497 63.5366,27.7164 61.5,31.5C 64.5,31.5 67.5,31.5 70.5,31.5C 67.2033,31.89 64.2033,32.89 61.5,34.5C 58.8333,32.8333 56.1667,31.1667 53.5,29.5C 53.5,26.1667 53.5,22.8333 53.5,19.5C 55.3355,16.8324 57.6688,14.6657 60.5,13C 62.4628,12.1558 63.7961,12.6558 64.5,14.5 Z"/></g>
<g><path style="opacity:0.251" fill="#9997aa" d="M 90.5,23.5 C 93.0499,25.0772 95.0499,27.0772 96.5,29.5C 93.5622,28.378 91.5622,26.378 90.5,23.5 Z"/></g>
<g><path style="opacity:1" fill="#a21b55" d="M 52.5,19.5 C 52.8333,19.5 53.1667,19.5 53.5,19.5C 53.5,22.8333 53.5,26.1667 53.5,29.5C 54.091,31.8193 55.7577,33.8193 58.5,35.5C 58.7852,37.288 58.4519,38.9547 57.5,40.5C 55.3886,41.6046 54.0553,43.2712 53.5,45.5C 52.8333,45.5 52.5,45.8333 52.5,46.5C 51.8592,44.9577 50.8592,43.6243 49.5,42.5C 48.1482,43.5244 46.8149,44.5244 45.5,45.5C 43.5337,44.7455 43.2004,43.5788 44.5,42C 43.1068,40.8289 42.2735,39.3289 42,37.5C 41.6667,38.1667 41.3333,38.8333 41,39.5C 38.0494,36.8285 36.8827,33.4952 37.5,29.5C 37.366,27.7085 37.6993,26.0418 38.5,24.5C 42.4188,27.0751 46.0855,30.0751 49.5,33.5C 52.0911,29.2099 53.0911,24.5432 52.5,19.5 Z"/></g>
<g><path style="opacity:1" fill="#09dde7" d="M 77.5,20.5 C 77.6641,23.1873 77.4974,25.854 77,28.5C 73.1156,33.5258 67.9489,35.5258 61.5,34.5C 64.2033,32.89 67.2033,31.89 70.5,31.5C 71.1667,31.5 71.5,31.1667 71.5,30.5C 72.7942,29.7101 73.9609,28.7101 75,27.5C 74.9698,24.6385 75.8031,22.3052 77.5,20.5 Z"/></g>
<g><path style="opacity:1" fill="#d7e093" d="M 14.5,22.5 C 18.1346,23.5792 21.8013,23.5792 25.5,22.5C 24.371,26.1517 23.371,29.8184 22.5,33.5C 21.5386,35.2646 21.2053,37.2646 21.5,39.5C 19.7897,35.432 18.6231,35.7653 18,40.5C 17.2108,37.1999 18.0442,34.3665 20.5,32C 18.5568,32.3052 16.5568,32.3052 14.5,32C 22.4451,28.7529 22.1117,27.9196 13.5,29.5C 12.6522,28.375 11.6522,28.375 10.5,29.5C 10.7822,28.2223 11.4489,27.2223 12.5,26.5C 15.4453,27.4675 18.4453,27.6342 21.5,27C 19.5,26.6667 17.5,26.3333 15.5,26C 14.6634,24.9887 14.33,23.8221 14.5,22.5 Z"/></g>
<g><path style="opacity:1" fill="#201e3d" d="M 53.5,7.5 C 53.8333,7.5 54.1667,7.5 54.5,7.5C 54.7822,8.77765 55.4489,9.77765 56.5,10.5C 52.9027,10.8683 49.5694,11.8683 46.5,13.5C 45.1667,13.5 43.8333,13.5 42.5,13.5C 41.8163,11.8148 40.483,10.8148 38.5,10.5C 30.7864,15.9343 26.1197,23.2677 24.5,32.5C 27.1667,32.5 29.8333,32.5 32.5,32.5C 32.2155,30.5853 32.5489,28.9187 33.5,27.5C 32.2489,34.4955 32.2489,41.4955 33.5,48.5C 32.5489,47.0813 32.2155,45.4147 32.5,43.5C 29.8333,43.5 27.1667,43.5 24.5,43.5C 24.5,44.5 24.5,45.5 24.5,46.5C 23.8333,46.5 23.5,46.1667 23.5,45.5C 23.5,44.5 23.5,43.5 23.5,42.5C 25.5,42.5 27.5,42.5 29.5,42.5C 29.2962,39.4824 28.9629,36.4824 28.5,33.5C 26.8333,33.5 25.1667,33.5 23.5,33.5C 23.1667,40.1667 22.8333,40.1667 22.5,33.5C 23.371,29.8184 24.371,26.1517 25.5,22.5C 27.2451,20.9674 28.2451,18.9674 28.5,16.5C 30.5869,15.4154 31.9202,13.7488 32.5,11.5C 33.6049,10.3995 34.9382,9.73286 36.5,9.5C 42.1867,7.91065 47.8534,7.24398 53.5,7.5 Z"/></g>
<g><path style="opacity:1" fill="#28134c" d="M 36.5,21.5 C 36.7822,22.7777 37.4489,23.7777 38.5,24.5C 37.6993,26.0418 37.366,27.7085 37.5,29.5C 36.4579,37.6424 36.4579,45.8091 37.5,54C 38.4138,55.4064 39.0805,56.9064 39.5,58.5C 36.4977,55.8388 34.4977,52.5055 33.5,48.5C 32.2489,41.4955 32.2489,34.4955 33.5,27.5C 33.461,24.911 34.461,22.911 36.5,21.5 Z"/></g>
<g><path style="opacity:1" fill="#a61a61" d="M 37.5,29.5 C 36.8827,33.4952 38.0494,36.8285 41,39.5C 41.3333,38.8333 41.6667,38.1667 42,37.5C 42.2735,39.3289 43.1068,40.8289 44.5,42C 43.2004,43.5788 43.5337,44.7455 45.5,45.5C 44.5,46.8333 43.5,48.1667 42.5,49.5C 40.0863,50.4056 39.253,52.0722 40,54.5C 41.353,55.6853 42.5197,57.0186 43.5,58.5C 44.6888,59.4287 46.0222,59.762 47.5,59.5C 47.1435,60.8699 46.3102,61.8699 45,62.5C 43.019,61.3498 41.1857,60.0165 39.5,58.5C 39.0805,56.9064 38.4138,55.4064 37.5,54C 36.4579,45.8091 36.4579,37.6424 37.5,29.5 Z"/></g>
<g><path style="opacity:1" fill="#280751" d="M 86.5,22.5 C 87.9587,22.4326 89.2921,22.7659 90.5,23.5C 91.5622,26.378 93.5622,28.378 96.5,29.5C 97.3382,29.8417 97.6716,30.5084 97.5,31.5C 97.3756,35.0286 97.2089,38.6953 97,42.5C 95.907,44.3492 94.5737,46.0158 93,47.5C 92.6012,47.2716 92.4346,46.9382 92.5,46.5C 94.1587,42.7146 94.6587,38.7146 94,34.5C 91.7522,30.3366 89.2522,26.3366 86.5,22.5 Z"/></g>
<g><path style="opacity:1" fill="#877f9d" d="M 22.5,33.5 C 22.8333,40.1667 23.1667,40.1667 23.5,33.5C 25.1667,33.5 26.8333,33.5 28.5,33.5C 28.9629,36.4824 29.2962,39.4824 29.5,42.5C 27.5,42.5 25.5,42.5 23.5,42.5C 23.5,43.5 23.5,44.5 23.5,45.5C 23.1667,45.5 22.8333,45.5 22.5,45.5C 22.1667,43.5 21.8333,41.5 21.5,39.5C 21.2053,37.2646 21.5386,35.2646 22.5,33.5 Z"/></g>
<g><path style="opacity:1" fill="#9c1e57" d="M 86.5,22.5 C 89.2522,26.3366 91.7522,30.3366 94,34.5C 94.6587,38.7146 94.1587,42.7146 92.5,46.5C 89.9317,47.5737 88.2651,49.5737 87.5,52.5C 83.1903,56.8444 82.1903,56.511 84.5,51.5C 83.5014,47.5105 81.1681,44.8438 77.5,43.5C 76.8333,43.1667 76.1667,42.8333 75.5,42.5C 75.0269,41.0937 74.0269,40.427 72.5,40.5C 72.1466,36.5408 73.8132,33.8742 77.5,32.5C 77.5858,33.4959 77.2524,34.3292 76.5,35C 77.5156,35.5194 78.1822,36.3527 78.5,37.5C 76.5369,39.1828 76.3703,40.8495 78,42.5C 81.8948,40.1741 82.3948,37.3408 79.5,34C 82.1571,31.0384 83.6571,27.5384 84,23.5C 84.6708,22.7476 85.5041,22.4142 86.5,22.5 Z"/></g>
<g><path style="opacity:1" fill="#dd26d5" d="M 86.5,33.5 C 87.5,33.5 88.5,33.5 89.5,33.5C 88.5,45.5 87.5,45.5 86.5,33.5 Z"/></g>
<g><path style="opacity:1" fill="#aad76d" d="M 13.5,29.5 C 12.5655,30.5676 12.2322,31.901 12.5,33.5C 10.8008,33.3398 9.13414,33.5065 7.5,34C 10.2924,34.8966 12.9591,36.0633 15.5,37.5C 11.0646,40.2153 6.39796,42.382 1.5,44C 2.55054,45.3848 3.88387,46.3848 5.5,47C 4.55198,47.4828 3.55198,47.6495 2.5,47.5C 1.77765,46.4489 0.777652,45.7822 -0.5,45.5C -0.5,44.1667 -0.5,42.8333 -0.5,41.5C 3.00119,40.0562 6.66785,38.8895 10.5,38C 7.78995,36.9848 5.45661,35.4848 3.5,33.5C 5.75331,32.0208 8.08665,30.6875 10.5,29.5C 11.6522,28.375 12.6522,28.375 13.5,29.5 Z"/></g>
<g><path style="opacity:1" fill="#f2f2d8" d="M 21.5,39.5 C 21.8333,41.5 22.1667,43.5 22.5,45.5C 17.7766,47.7186 12.7766,48.8852 7.5,49C 8.33663,50.0113 8.66997,51.1779 8.5,52.5C 6.90949,50.3674 4.90949,48.7007 2.5,47.5C 3.55198,47.6495 4.55198,47.4828 5.5,47C 3.88387,46.3848 2.55054,45.3848 1.5,44C 6.39796,42.382 11.0646,40.2153 15.5,37.5C 12.9591,36.0633 10.2924,34.8966 7.5,34C 9.13414,33.5065 10.8008,33.3398 12.5,33.5C 12.2322,31.901 12.5655,30.5676 13.5,29.5C 22.1117,27.9196 22.4451,28.7529 14.5,32C 16.5568,32.3052 18.5568,32.3052 20.5,32C 18.0442,34.3665 17.2108,37.1999 18,40.5C 18.6231,35.7653 19.7897,35.432 21.5,39.5 Z"/></g>
<g><path style="opacity:1" fill="#f9059e" d="M 52.5,46.5 C 52.5,49.5 52.5,52.5 52.5,55.5C 51.8333,55.8333 51.1667,56.1667 50.5,56.5C 47.9104,54.2546 45.2437,51.9213 42.5,49.5C 43.5,48.1667 44.5,46.8333 45.5,45.5C 46.8149,44.5244 48.1482,43.5244 49.5,42.5C 50.8592,43.6243 51.8592,44.9577 52.5,46.5 Z"/></g>
<g><path style="opacity:1" fill="#47167c" d="M 58.5,35.5 C 61.0838,36.0483 62.0838,37.715 61.5,40.5C 65.1667,40.5 68.8333,40.5 72.5,40.5C 74.0269,40.427 75.0269,41.0937 75.5,42.5C 75.8925,44.2838 76.5592,45.9505 77.5,47.5C 76.8333,47.5 76.1667,47.5 75.5,47.5C 73.8333,46.1667 72.1667,44.8333 70.5,43.5C 70.2089,42.3509 69.3756,41.6842 68,41.5C 66.6244,41.6842 65.7911,42.3509 65.5,43.5C 64.8333,43.5 64.1667,43.5 63.5,43.5C 63.5299,42.5028 63.0299,41.8361 62,41.5C 59.388,42.3118 57.2213,43.6451 55.5,45.5C 55.0623,44.4937 54.3957,44.4937 53.5,45.5C 54.0553,43.2712 55.3886,41.6046 57.5,40.5C 58.4519,38.9547 58.7852,37.288 58.5,35.5 Z"/></g>
<g><path style="opacity:1" fill="#87bbd3" d="M 70.5,43.5 C 68.8333,43.5 67.1667,43.5 65.5,43.5C 65.7911,42.3509 66.6244,41.6842 68,41.5C 69.3756,41.6842 70.2089,42.3509 70.5,43.5 Z"/></g>
<g><path style="opacity:1" fill="#b6d760" d="M 22.5,45.5 C 22.8333,45.5 23.1667,45.5 23.5,45.5C 23.5,46.1667 23.8333,46.5 24.5,46.5C 24.3253,48.6208 24.6586,50.6208 25.5,52.5C 24.4262,54.284 22.7596,55.4506 20.5,56C 17.0712,56.5334 13.7379,57.3668 10.5,58.5C 10.8333,57.8333 11.1667,57.1667 11.5,56.5C 15.5484,56.1599 19.215,54.8265 22.5,52.5C 21.5445,51.1119 20.5445,49.7786 19.5,48.5C 16.5456,49.6247 13.5456,50.6247 10.5,51.5C 11.5,52.3333 12.5,53.1667 13.5,54C 12.9056,54.4643 12.2389,54.631 11.5,54.5C 9.97306,54.573 8.97306,53.9063 8.5,52.5C 8.66997,51.1779 8.33663,50.0113 7.5,49C 12.7766,48.8852 17.7766,47.7186 22.5,45.5 Z"/></g>
<g><path style="opacity:1" fill="#272353" d="M 63.5,43.5 C 64.1667,43.5 64.8333,43.5 65.5,43.5C 67.1667,43.5 68.8333,43.5 70.5,43.5C 72.1667,44.8333 73.8333,46.1667 75.5,47.5C 75.2506,57.7571 70.2506,61.4238 60.5,58.5C 61.1667,58.5 61.5,58.1667 61.5,57.5C 61.8799,55.302 61.2132,53.6354 59.5,52.5C 57.86,51.2099 57.36,49.5433 58,47.5C 59.2568,45.2542 61.0901,43.9209 63.5,43.5 Z"/></g>
<g><path style="opacity:1" fill="#492255" d="M 97.5,31.5 C 98.1667,32.1667 98.8333,32.8333 99.5,33.5C 99.5,36.8333 99.5,40.1667 99.5,43.5C 95.5,48.8333 90.8333,53.5 85.5,57.5C 83.0872,59.0507 80.4206,59.7174 77.5,59.5C 80.1667,54.1667 80.1667,48.8333 77.5,43.5C 81.1681,44.8438 83.5014,47.5105 84.5,51.5C 82.1903,56.511 83.1903,56.8444 87.5,52.5C 88.2651,49.5737 89.9317,47.5737 92.5,46.5C 92.4346,46.9382 92.6012,47.2716 93,47.5C 94.5737,46.0158 95.907,44.3492 97,42.5C 97.2089,38.6953 97.3756,35.0286 97.5,31.5 Z"/></g>
<g><path style="opacity:1" fill="#fd04df" d="M 42.5,49.5 C 45.2437,51.9213 47.9104,54.2546 50.5,56.5C 48.5,56.5 47.5,57.5 47.5,59.5C 46.0222,59.762 44.6888,59.4287 43.5,58.5C 42.5197,57.0186 41.353,55.6853 40,54.5C 39.253,52.0722 40.0863,50.4056 42.5,49.5 Z"/></g>
<g><path style="opacity:1" fill="#ece9c7" d="M 11.5,56.5 C 11.5,55.8333 11.5,55.1667 11.5,54.5C 12.2389,54.631 12.9056,54.4643 13.5,54C 12.5,53.1667 11.5,52.3333 10.5,51.5C 13.5456,50.6247 16.5456,49.6247 19.5,48.5C 20.5445,49.7786 21.5445,51.1119 22.5,52.5C 19.215,54.8265 15.5484,56.1599 11.5,56.5 Z"/></g>
<g><path style="opacity:1" fill="#8e89a8" d="M 33.5,48.5 C 34.4977,52.5055 36.4977,55.8388 39.5,58.5C 42.1457,63.9934 46.479,67.3268 52.5,68.5C 50.2655,68.3801 48.0989,68.7135 46,69.5C 41.4031,68.3816 36.9031,67.0483 32.5,65.5C 32.8333,64.8333 33.1667,64.1667 33.5,63.5C 30.0871,60.3265 27.4205,56.6598 25.5,52.5C 24.6586,50.6208 24.3253,48.6208 24.5,46.5C 24.5,45.5 24.5,44.5 24.5,43.5C 27.1667,43.5 29.8333,43.5 32.5,43.5C 32.2155,45.4147 32.5489,47.0813 33.5,48.5 Z"/></g>
<g><path style="opacity:1" fill="#8e5ad6" d="M 63.5,43.5 C 61.0901,43.9209 59.2568,45.2542 58,47.5C 57.36,49.5433 57.86,51.2099 59.5,52.5C 58.1416,54.7428 58.8083,56.4095 61.5,57.5C 61.5,58.1667 61.1667,58.5 60.5,58.5C 56.7136,55.7362 54.7136,52.0695 54.5,47.5C 54.8333,46.8333 55.1667,46.1667 55.5,45.5C 57.2213,43.6451 59.388,42.3118 62,41.5C 63.0299,41.8361 63.5299,42.5028 63.5,43.5 Z"/></g>
<g><path style="opacity:1" fill="#efeecb" d="M 25.5,52.5 C 27.4205,56.6598 30.0871,60.3265 33.5,63.5C 30.8127,63.3359 28.146,63.5026 25.5,64C 26.056,64.3826 26.3893,64.8826 26.5,65.5C 24.597,65.2041 22.9303,64.5375 21.5,63.5C 22.7736,62.8106 22.7736,61.9772 21.5,61C 18.5682,60.0467 15.5682,59.5467 12.5,59.5C 11.5084,59.6716 10.8417,59.3382 10.5,58.5C 13.7379,57.3668 17.0712,56.5334 20.5,56C 22.7596,55.4506 24.4262,54.284 25.5,52.5 Z"/></g>
<g><path style="opacity:0.023" fill="#fae8f3" d="M 88.5,57.5 C 90.5833,59.4243 92.5833,61.591 94.5,64C 90.8515,63.6353 88.8515,61.4687 88.5,57.5 Z"/></g>
<g><path style="opacity:1" fill="#d1e888" d="M 12.5,59.5 C 15.5682,59.5467 18.5682,60.0467 21.5,61C 22.7736,61.9772 22.7736,62.8106 21.5,63.5C 17.9789,62.9009 14.9789,61.5675 12.5,59.5 Z"/></g>
<g><path style="opacity:1" fill="#059d36" d="M 77.5,60.5 C 78.675,60.281 79.675,60.6143 80.5,61.5C 78.9713,62.7629 77.3046,63.7629 75.5,64.5C 74.596,63.791 74.2627,62.791 74.5,61.5C 75.791,61.7373 76.791,61.404 77.5,60.5 Z"/></g>
<g><path style="opacity:1" fill="#9e526d" d="M 52.5,55.5 C 51.9935,56.8589 50.9935,57.8589 49.5,58.5C 51.396,59.4656 53.396,59.7989 55.5,59.5C 55.5,61.1667 55.5,62.8333 55.5,64.5C 53.139,64.3259 50.8056,63.9926 48.5,63.5C 48.7678,61.901 48.4345,60.5676 47.5,59.5C 47.5,57.5 48.5,56.5 50.5,56.5C 51.1667,56.1667 51.8333,55.8333 52.5,55.5 Z"/></g>
<g><path style="opacity:1" fill="#221c4a" d="M 75.5,42.5 C 76.1667,42.8333 76.8333,43.1667 77.5,43.5C 80.1667,48.8333 80.1667,54.1667 77.5,59.5C 77.5,59.8333 77.5,60.1667 77.5,60.5C 76.791,61.404 75.791,61.7373 74.5,61.5C 73.1696,62.8321 71.5029,63.6655 69.5,64C 64.9805,64.1753 60.6472,64.6753 56.5,65.5C 56.0825,66.2216 55.4158,66.7216 54.5,67C 56.0581,67.21 57.3915,67.71 58.5,68.5C 58.1583,69.3382 57.4916,69.6716 56.5,69.5C 55.1667,69.1667 53.8333,68.8333 52.5,68.5C 46.479,67.3268 42.1457,63.9934 39.5,58.5C 41.1857,60.0165 43.019,61.3498 45,62.5C 46.3102,61.8699 47.1435,60.8699 47.5,59.5C 48.4345,60.5676 48.7678,61.901 48.5,63.5C 50.8056,63.9926 53.139,64.3259 55.5,64.5C 55.5,62.8333 55.5,61.1667 55.5,59.5C 53.396,59.7989 51.396,59.4656 49.5,58.5C 50.9935,57.8589 51.9935,56.8589 52.5,55.5C 52.5,52.5 52.5,49.5 52.5,46.5C 52.5,45.8333 52.8333,45.5 53.5,45.5C 54.3957,44.4937 55.0623,44.4937 55.5,45.5C 55.1667,46.1667 54.8333,46.8333 54.5,47.5C 53.1017,58.9349 58.1017,63.7682 69.5,62C 71.6829,59.6496 74.0163,57.483 76.5,55.5C 77.48,52.9135 77.8134,50.2469 77.5,47.5C 76.5592,45.9505 75.8925,44.2838 75.5,42.5 Z"/></g>
<g><path style="opacity:1" fill="#49cbe4" d="M 54.5,47.5 C 54.7136,52.0695 56.7136,55.7362 60.5,58.5C 70.2506,61.4238 75.2506,57.7571 75.5,47.5C 76.1667,47.5 76.8333,47.5 77.5,47.5C 77.8134,50.2469 77.48,52.9135 76.5,55.5C 74.0163,57.483 71.6829,59.6496 69.5,62C 58.1017,63.7682 53.1017,58.9349 54.5,47.5 Z"/></g>
<g><path style="opacity:1" fill="#d5dcec" d="M 59.5,52.5 C 61.2132,53.6354 61.8799,55.302 61.5,57.5C 58.8083,56.4095 58.1416,54.7428 59.5,52.5 Z"/></g>
<g><path style="opacity:1" fill="#4a617c" d="M 63.5,45.5 C 70.6823,43.1738 73.849,45.8404 73,53.5C 72.1667,54.5 71.3333,55.5 70.5,56.5C 68.6414,52.5449 66.308,48.8783 63.5,45.5 Z"/></g>
<g><path style="opacity:0.875" fill="#b2d265" d="M 33.5,63.5 C 33.1667,64.1667 32.8333,64.8333 32.5,65.5C 30.6119,66.2751 28.6119,66.2751 26.5,65.5C 26.3893,64.8826 26.056,64.3826 25.5,64C 28.146,63.5026 30.8127,63.3359 33.5,63.5 Z"/></g>
<g><path style="opacity:1" fill="#224e4c" d="M 74.5,61.5 C 74.2627,62.791 74.596,63.791 75.5,64.5C 75.5,65.1667 75.5,65.8333 75.5,66.5C 73.2188,66.0773 71.5521,66.744 70.5,68.5C 70.1667,68.5 69.8333,68.5 69.5,68.5C 69.1667,68.5 68.8333,68.5 68.5,68.5C 66.369,67.6862 64.0356,67.1862 61.5,67C 64.1667,66.6667 66.8333,66.3333 69.5,66C 65.1794,65.501 60.8461,65.3343 56.5,65.5C 60.6472,64.6753 64.9805,64.1753 69.5,64C 71.5029,63.6655 73.1696,62.8321 74.5,61.5 Z"/></g>
<g><path style="opacity:1" fill="#74a339" d="M 56.5,65.5 C 60.8461,65.3343 65.1794,65.501 69.5,66C 66.8333,66.3333 64.1667,66.6667 61.5,67C 64.0356,67.1862 66.369,67.6862 68.5,68.5C 65.1667,68.5 61.8333,68.5 58.5,68.5C 57.3915,67.71 56.0581,67.21 54.5,67C 55.4158,66.7216 56.0825,66.2216 56.5,65.5 Z"/></g>
<g><path style="opacity:1" fill="#52dd0a" d="M 75.5,66.5 C 74.4479,68.256 72.7812,68.9227 70.5,68.5C 71.5521,66.744 73.2188,66.0773 75.5,66.5 Z"/></g>
<g><path style="opacity:1" fill="#413254" d="M 85.5,57.5 C 84.1835,59.9529 83.3502,62.6195 83,65.5C 81.3853,66.3862 79.8853,67.3862 78.5,68.5C 77.5386,70.2646 77.2053,72.2646 77.5,74.5C 70.8619,74.2044 64.3619,73.2044 58,71.5C 56.8932,72.7119 56.3932,72.3786 56.5,70.5C 58.5,70.5 60.5,70.5 62.5,70.5C 65.3878,71.0102 67.7211,70.3435 69.5,68.5C 69.8333,68.5 70.1667,68.5 70.5,68.5C 72.7812,68.9227 74.4479,68.256 75.5,66.5C 75.5,65.8333 75.5,65.1667 75.5,64.5C 77.3046,63.7629 78.9713,62.7629 80.5,61.5C 79.675,60.6143 78.675,60.281 77.5,60.5C 77.5,60.1667 77.5,59.8333 77.5,59.5C 80.4206,59.7174 83.0872,59.0507 85.5,57.5 Z"/></g>
<g><path style="opacity:0.596" fill="#92889c" d="M 52.5,68.5 C 53.8333,68.8333 55.1667,69.1667 56.5,69.5C 56.5,69.8333 56.5,70.1667 56.5,70.5C 56.3932,72.3786 56.8932,72.7119 58,71.5C 64.3619,73.2044 70.8619,74.2044 77.5,74.5C 77.2053,72.2646 77.5386,70.2646 78.5,68.5C 78.5,70.8333 78.5,73.1667 78.5,75.5C 74.6286,75.185 70.9619,75.5184 67.5,76.5C 65.5,76.5 63.5,76.5 61.5,76.5C 57.6109,74.9504 54.6109,72.2838 52.5,68.5 Z"/></g>
<g><path style="opacity:1" fill="#747e0a" d="M 68.5,68.5 C 68.8333,68.5 69.1667,68.5 69.5,68.5C 67.7211,70.3435 65.3878,71.0102 62.5,70.5C 64.5,69.8333 66.5,69.1667 68.5,68.5 Z"/></g>
<g><path style="opacity:1" fill="#edf42d" d="M 58.5,68.5 C 61.8333,68.5 65.1667,68.5 68.5,68.5C 66.5,69.1667 64.5,69.8333 62.5,70.5C 60.5,70.5 58.5,70.5 56.5,70.5C 56.5,70.1667 56.5,69.8333 56.5,69.5C 57.4916,69.6716 58.1583,69.3382 58.5,68.5 Z"/></g>
</svg>
