<?xml version="1.0" encoding="UTF-8"?>
<!DOCTYPE svg PUBLIC "-//W3C//DTD SVG 1.1//EN" "http://www.w3.org/Graphics/SVG/1.1/DTD/svg11.dtd">
<svg xmlns="http://www.w3.org/2000/svg" version="1.1" width="100px" height="69px" style="shape-rendering:geometricPrecision; text-rendering:geometricPrecision; image-rendering:optimizeQuality; fill-rule:evenodd; clip-rule:evenodd" xmlns:xlink="http://www.w3.org/1999/xlink">
<g><path style="opacity:0.212" fill="#a09fae" d="M 82.5,6.5 C 81.1667,5.5 79.8333,4.5 78.5,3.5C 68.2948,2.20379 57.9615,2.20379 47.5,3.5C 45.5,3.5 43.5,3.5 41.5,3.5C 41.7911,2.35089 42.6244,1.68423 44,1.5C 55.7406,1.43754 67.5739,1.60421 79.5,2C 81.1412,3.12901 82.1412,4.62901 82.5,6.5 Z"/></g>
<g><path style="opacity:1" fill="#908ba6" d="M 22.5,4.5 C 23.1667,4.5 23.8333,4.5 24.5,4.5C 25.2389,4.36899 25.9056,4.53566 26.5,5C 24.3063,7.19371 22.1396,9.36038 20,11.5C 19.5357,10.9056 19.369,10.2389 19.5,9.5C 19.1182,8.37127 17.7849,7.70461 15.5,7.5C 16.5417,6.20891 17.7083,6.20891 19,7.5C 20.0391,6.2899 21.2058,5.2899 22.5,4.5 Z"/></g>
<g><path style="opacity:0.216" fill="#c0becc" d="M 28.5,-0.5 C 30.5,-0.5 32.5,-0.5 34.5,-0.5C 35.5361,1.39114 35.5361,3.22448 34.5,5C 37.171,5.83319 39.5043,5.33319 41.5,3.5C 41.5858,4.4959 41.2524,5.32924 40.5,6C 38.5273,6.49546 36.5273,6.66212 34.5,6.5C 32.7991,9.24361 31.4657,12.2436 30.5,15.5C 29.5028,15.5299 28.8361,15.0299 28.5,14C 30.332,9.51361 31.9986,5.01361 33.5,0.5C 29.7117,0.308953 26.7117,1.64229 24.5,4.5C 23.8333,4.5 23.1667,4.5 22.5,4.5C 23.94,2.05136 25.94,0.384697 28.5,-0.5 Z"/></g>
<g><path style="opacity:1" fill="#43436c" d="M 78.5,3.5 C 76.5,3.5 74.5,3.5 72.5,3.5C 72.5,4.5 72.5,5.5 72.5,6.5C 71.1266,6.34332 69.7932,6.50999 68.5,7C 69.7112,7.89277 69.7112,8.7261 68.5,9.5C 66.2241,8.78681 63.8907,8.28681 61.5,8C 63.5767,7.80779 65.5767,7.30779 67.5,6.5C 67.1667,6.16667 66.8333,5.83333 66.5,5.5C 64.0177,6.06706 61.6843,6.73373 59.5,7.5C 57.7376,7.64271 56.0709,7.30937 54.5,6.5C 53.6143,7.32496 53.281,8.32496 53.5,9.5C 51.5,9.5 49.5,9.5 47.5,9.5C 47.5,7.5 47.5,5.5 47.5,3.5C 57.9615,2.20379 68.2948,2.20379 78.5,3.5 Z"/></g>
<g><path style="opacity:0.121" fill="#e2e1e7" d="M 82.5,6.5 C 84.369,8.63528 85.0356,11.3019 84.5,14.5C 84.1667,14.5 83.8333,14.5 83.5,14.5C 83.7214,11.7212 83.388,9.05449 82.5,6.5 Z"/></g>
<g><path style="opacity:1" fill="#1f144a" d="M 78.5,3.5 C 79.8333,4.5 81.1667,5.5 82.5,6.5C 83.388,9.05449 83.7214,11.7212 83.5,14.5C 82.5416,14.0472 81.7083,13.3805 81,12.5C 80.7216,13.4158 80.2216,14.0825 79.5,14.5C 79.5,13.5 79.5,12.5 79.5,11.5C 76.0281,11.3533 73.6947,9.6866 72.5,6.5C 72.5,5.5 72.5,4.5 72.5,3.5C 74.5,3.5 76.5,3.5 78.5,3.5 Z"/></g>
<g><path style="opacity:1" fill="#3d3565" d="M 30.5,15.5 C 30.5,16.1667 30.8333,16.5 31.5,16.5C 31.5,16.8333 31.5,17.1667 31.5,17.5C 28.858,17.4877 27.5246,18.821 27.5,21.5C 27.5,21.8333 27.5,22.1667 27.5,22.5C 26.7321,21.7375 26.2321,20.7375 26,19.5C 25.2797,21.1124 25.4464,22.6124 26.5,24C 29.2263,24.1816 31.8929,24.6816 34.5,25.5C 29.2008,27.6062 24.8674,26.4396 21.5,22C 20.552,21.5172 19.552,21.3505 18.5,21.5C 18.5,22.5 18.5,23.5 18.5,24.5C 17.6236,24.6309 16.9569,24.2975 16.5,23.5C 19.3366,19.2309 19.67,14.8976 17.5,10.5C 17.9569,9.70245 18.6236,9.36912 19.5,9.5C 19.369,10.2389 19.5357,10.9056 20,11.5C 22.1396,9.36038 24.3063,7.19371 26.5,5C 25.9056,4.53566 25.2389,4.36899 24.5,4.5C 26.7117,1.64229 29.7117,0.308953 33.5,0.5C 31.9986,5.01361 30.332,9.51361 28.5,14C 28.8361,15.0299 29.5028,15.5299 30.5,15.5 Z"/></g>
<g><path style="opacity:1" fill="#4f4a7b" d="M 72.5,6.5 C 73.6947,9.6866 76.0281,11.3533 79.5,11.5C 79.5,12.5 79.5,13.5 79.5,14.5C 79.5,14.8333 79.5,15.1667 79.5,15.5C 77.396,15.2011 75.396,15.5344 73.5,16.5C 74.4565,18.0754 75.1231,19.742 75.5,21.5C 73.1152,18.7883 70.7819,16.1216 68.5,13.5C 67.548,12.548 66.548,11.548 65.5,10.5C 64.5046,16.1278 64.1712,21.7945 64.5,27.5C 63.5119,22.3595 63.1786,17.0262 63.5,11.5C 61.3792,11.3253 59.3792,11.6586 57.5,12.5C 57.5,11.8333 57.5,11.1667 57.5,10.5C 59.3497,9.7582 60.0164,8.7582 59.5,7.5C 61.6843,6.73373 64.0177,6.06706 66.5,5.5C 66.8333,5.83333 67.1667,6.16667 67.5,6.5C 65.5767,7.30779 63.5767,7.80779 61.5,8C 63.8907,8.28681 66.2241,8.78681 68.5,9.5C 69.7112,8.7261 69.7112,7.89277 68.5,7C 69.7932,6.50999 71.1266,6.34332 72.5,6.5 Z"/></g>
<g><path style="opacity:1" fill="#59527f" d="M 64.5,27.5 C 65.8333,29.1667 67.1667,30.8333 68.5,32.5C 70.0496,33.7199 71.7163,33.7199 73.5,32.5C 73.5,34.1667 73.5,35.8333 73.5,37.5C 71.8008,37.3398 70.1341,37.5065 68.5,38C 67.2668,39.6667 65.9335,41.1667 64.5,42.5C 62.987,38.682 62.3204,34.682 62.5,30.5C 61.5,30.5 60.5,30.5 59.5,30.5C 58.5084,30.6716 57.8417,30.3382 57.5,29.5C 59.5208,25.2495 58.1874,22.9162 53.5,22.5C 53.5,21.8333 53.1667,21.5 52.5,21.5C 52.5,18.8333 52.5,16.1667 52.5,13.5C 53.5,13.5 54.5,13.5 55.5,13.5C 56.1667,13.1667 56.8333,12.8333 57.5,12.5C 59.3792,11.6586 61.3792,11.3253 63.5,11.5C 63.1786,17.0262 63.5119,22.3595 64.5,27.5 Z"/></g>
<g><path style="opacity:1" fill="#150d39" d="M 41.5,3.5 C 43.5,3.5 45.5,3.5 47.5,3.5C 47.5,5.5 47.5,7.5 47.5,9.5C 49.5,9.5 51.5,9.5 53.5,9.5C 53.281,8.32496 53.6143,7.32496 54.5,6.5C 56.0709,7.30937 57.7376,7.64271 59.5,7.5C 60.0164,8.7582 59.3497,9.7582 57.5,10.5C 54.4816,10.3354 51.4816,10.502 48.5,11C 45.4042,13.4212 42.0709,15.2545 38.5,16.5C 37.609,17.1098 36.609,17.4431 35.5,17.5C 34.4324,16.5655 33.099,16.2322 31.5,16.5C 30.8333,16.5 30.5,16.1667 30.5,15.5C 31.4657,12.2436 32.7991,9.24361 34.5,6.5C 36.5273,6.66212 38.5273,6.49546 40.5,6C 41.2524,5.32924 41.5858,4.4959 41.5,3.5 Z"/></g>
<g><path style="opacity:1" fill="#a23a61" d="M 83.5,14.5 C 83.8333,14.5 84.1667,14.5 84.5,14.5C 85.1667,14.5 85.5,14.8333 85.5,15.5C 85.5,15.8333 85.5,16.1667 85.5,16.5C 85.5,17.1667 85.1667,17.5 84.5,17.5C 84.38,16.4138 83.7133,15.7472 82.5,15.5C 80.0343,16.9474 80.3677,17.9474 83.5,18.5C 80.6702,20.0348 79.3369,19.0348 79.5,15.5C 79.5,15.1667 79.5,14.8333 79.5,14.5C 80.2216,14.0825 80.7216,13.4158 81,12.5C 81.7083,13.3805 82.5416,14.0472 83.5,14.5 Z"/></g>
<g><path style="opacity:1" fill="#f58455" d="M 84.5,17.5 C 84.5,18.1667 84.1667,18.5 83.5,18.5C 80.3677,17.9474 80.0343,16.9474 82.5,15.5C 83.7133,15.7472 84.38,16.4138 84.5,17.5 Z"/></g>
<g><path style="opacity:1" fill="#615b86" d="M 15.5,7.5 C 17.7849,7.70461 19.1182,8.37127 19.5,9.5C 18.6236,9.36912 17.9569,9.70245 17.5,10.5C 19.67,14.8976 19.3366,19.2309 16.5,23.5C 16.9569,24.2975 17.6236,24.6309 18.5,24.5C 18.7036,26.6854 19.3702,28.6854 20.5,30.5C 20.106,32.7099 18.7727,34.0432 16.5,34.5C 14.4794,27.5693 14.146,20.5693 15.5,13.5C 15.1543,12.3044 14.6543,12.3044 14,13.5C 13.5172,12.552 13.3505,11.552 13.5,10.5C 13.9321,9.29049 14.5987,8.29049 15.5,7.5 Z"/></g>
<g><path style="opacity:1" fill="#ef3797" d="M 57.5,10.5 C 57.5,11.1667 57.5,11.8333 57.5,12.5C 56.8333,12.8333 56.1667,13.1667 55.5,13.5C 53.7354,12.5386 51.7354,12.2053 49.5,12.5C 49.5,14.1667 49.5,15.8333 49.5,17.5C 46.3915,17.2641 43.3915,17.5975 40.5,18.5C 39.1667,18.5 38.5,17.8333 38.5,16.5C 42.0709,15.2545 45.4042,13.4212 48.5,11C 51.4816,10.502 54.4816,10.3354 57.5,10.5 Z"/></g>
<g><path style="opacity:0.161" fill="#b5b6c5" d="M 85.5,16.5 C 85.5,16.1667 85.5,15.8333 85.5,15.5C 88.5779,15.587 90.9112,16.9203 92.5,19.5C 91.8333,19.5 91.1667,19.5 90.5,19.5C 90.1583,18.6618 89.4916,18.3284 88.5,18.5C 88.0269,17.0937 87.0269,16.427 85.5,16.5 Z"/></g>
<g><path style="opacity:1" fill="#f70372" d="M 55.5,13.5 C 54.5,13.5 53.5,13.5 52.5,13.5C 52.5,16.1667 52.5,18.8333 52.5,21.5C 49.9407,21.1984 47.6074,21.5318 45.5,22.5C 43.8388,21.2029 42.1722,19.8696 40.5,18.5C 43.3915,17.5975 46.3915,17.2641 49.5,17.5C 49.5,15.8333 49.5,14.1667 49.5,12.5C 51.7354,12.2053 53.7354,12.5386 55.5,13.5 Z"/></g>
<g><path style="opacity:0.639" fill="#b0afbf" d="M 11.5,14.5 C 11.5,16.1667 11.5,17.8333 11.5,19.5C 6.16667,18.8333 3.83333,21.1667 4.5,26.5C 2.16119,20.8205 4.16119,18.1538 10.5,18.5C 10.2322,16.901 10.5655,15.5676 11.5,14.5 Z"/></g>
<g><path style="opacity:1" fill="#a096b0" d="M 31.5,17.5 C 32.675,17.281 33.675,17.6143 34.5,18.5C 32.7539,20.8541 30.4206,21.8541 27.5,21.5C 27.5246,18.821 28.858,17.4877 31.5,17.5 Z"/></g>
<g><path style="opacity:1" fill="#03e4ec" d="M 68.5,13.5 C 70.7819,16.1216 73.1152,18.7883 75.5,21.5C 75.7577,26.2133 73.7577,29.0466 69.5,30C 68.3333,28.8333 67.1667,27.6667 66,26.5C 65.501,22.1794 65.3343,17.8461 65.5,13.5C 66.5,13.5 67.5,13.5 68.5,13.5 Z"/></g>
<g><path style="opacity:1" fill="#272255" d="M 68.5,13.5 C 67.5,13.5 66.5,13.5 65.5,13.5C 65.3343,17.8461 65.501,22.1794 66,26.5C 67.1667,27.6667 68.3333,28.8333 69.5,30C 73.7577,29.0466 75.7577,26.2133 75.5,21.5C 77.3769,22.6591 77.8769,24.3258 77,26.5C 74.8225,29.5231 71.9892,31.5231 68.5,32.5C 67.1667,30.8333 65.8333,29.1667 64.5,27.5C 64.1712,21.7945 64.5046,16.1278 65.5,10.5C 66.548,11.548 67.548,12.548 68.5,13.5 Z"/></g>
<g><path style="opacity:1" fill="#52487b" d="M 79.5,15.5 C 79.3369,19.0348 80.6702,20.0348 83.5,18.5C 84.1667,18.5 84.5,18.1667 84.5,17.5C 85.1667,17.5 85.5,17.1667 85.5,16.5C 87.0269,16.427 88.0269,17.0937 88.5,18.5C 87.206,21.0191 87.706,23.3525 90,25.5C 90.4966,27.8098 90.6633,30.1432 90.5,32.5C 89.8333,32.1667 89.1667,31.8333 88.5,31.5C 86.8523,30.1902 85.1856,28.8569 83.5,27.5C 82.2613,27.9424 81.2613,28.6091 80.5,29.5C 77.9616,30.0427 75.6282,31.0427 73.5,32.5C 71.7163,33.7199 70.0496,33.7199 68.5,32.5C 71.9892,31.5231 74.8225,29.5231 77,26.5C 77.8769,24.3258 77.3769,22.6591 75.5,21.5C 75.1231,19.742 74.4565,18.0754 73.5,16.5C 75.396,15.5344 77.396,15.2011 79.5,15.5 Z"/></g>
<g><path style="opacity:1" fill="#9386a2" d="M 46.5,34.5 C 46.5,35.5 46.5,36.5 46.5,37.5C 44.0086,34.0223 41.3419,30.689 38.5,27.5C 38.2785,25.3364 37.2785,23.6697 35.5,22.5C 35.7058,20.4508 36.5391,20.1175 38,21.5C 41.3671,25.5902 44.2005,29.9235 46.5,34.5 Z"/></g>
<g><path style="opacity:1" fill="#906d80" d="M 53.5,22.5 C 58.1874,22.9162 59.5208,25.2495 57.5,29.5C 56.5041,29.5858 55.6708,29.2524 55,28.5C 54.6847,26.4144 54.1847,24.4144 53.5,22.5 Z"/></g>
<g><path style="opacity:1" fill="#df6077" d="M 90.5,19.5 C 91.1667,19.5 91.8333,19.5 92.5,19.5C 93.2008,21.5877 94.2008,23.5877 95.5,25.5C 96.2341,26.7079 96.5674,28.0413 96.5,29.5C 95.8333,29.8333 95.1667,30.1667 94.5,30.5C 94.8799,28.302 94.2132,26.6354 92.5,25.5C 90.1946,23.9197 89.528,21.9197 90.5,19.5 Z"/></g>
<g><path style="opacity:1" fill="#645a8b" d="M 31.5,17.5 C 31.5,17.1667 31.5,16.8333 31.5,16.5C 33.099,16.2322 34.4324,16.5655 35.5,17.5C 39.5051,19.6333 43.0051,22.6333 46,26.5C 46.4974,29.146 46.6641,31.8127 46.5,34.5C 44.2005,29.9235 41.3671,25.5902 38,21.5C 36.5391,20.1175 35.7058,20.4508 35.5,22.5C 32.7342,23.2318 30.0675,23.2318 27.5,22.5C 27.5,22.1667 27.5,21.8333 27.5,21.5C 30.4206,21.8541 32.7539,20.8541 34.5,18.5C 33.675,17.6143 32.675,17.281 31.5,17.5 Z"/></g>
<g><path style="opacity:1" fill="#291c4c" d="M 27.5,22.5 C 30.0675,23.2318 32.7342,23.2318 35.5,22.5C 37.2785,23.6697 38.2785,25.3364 38.5,27.5C 35.2527,28.2515 31.9194,28.7515 28.5,29C 26.6803,29.2004 25.347,30.0337 24.5,31.5C 24.5,31.8333 24.5,32.1667 24.5,32.5C 22.8007,32.4729 21.4674,31.8062 20.5,30.5C 19.3702,28.6854 18.7036,26.6854 18.5,24.5C 18.5,23.5 18.5,22.5 18.5,21.5C 19.552,21.3505 20.552,21.5172 21.5,22C 24.8674,26.4396 29.2008,27.6062 34.5,25.5C 31.8929,24.6816 29.2263,24.1816 26.5,24C 25.4464,22.6124 25.2797,21.1124 26,19.5C 26.2321,20.7375 26.7321,21.7375 27.5,22.5 Z"/></g>
<g><path style="opacity:1" fill="#f09265" d="M 52.5,21.5 C 53.1667,21.5 53.5,21.8333 53.5,22.5C 54.1847,24.4144 54.6847,26.4144 55,28.5C 55.6708,29.2524 56.5041,29.5858 57.5,29.5C 57.8417,30.3382 58.5084,30.6716 59.5,30.5C 59.6646,33.5184 59.498,36.5184 59,39.5C 58.6174,40.056 58.1174,40.3893 57.5,40.5C 57.1667,40.5 56.8333,40.5 56.5,40.5C 56.3893,39.8826 56.056,39.3826 55.5,39C 53.5273,38.5045 51.5273,38.3379 49.5,38.5C 51.1667,37.8333 52.8333,37.1667 54.5,36.5C 56.6516,35.9232 56.985,34.7565 55.5,33C 53.5273,32.5045 51.5273,32.3379 49.5,32.5C 49.7845,30.5853 49.4511,28.9187 48.5,27.5C 47.759,25.6458 46.759,23.9791 45.5,22.5C 47.6074,21.5318 49.9407,21.1984 52.5,21.5 Z"/></g>
<g><path style="opacity:1" fill="#a7a4b7" d="M 4.5,26.5 C 6.65018,27.7479 8.65018,29.2479 10.5,31C 9.71348,33.0989 9.38014,35.2655 9.5,37.5C 8.5,37.1667 7.83333,36.5 7.5,35.5C 8.71515,34.221 8.38182,33.221 6.5,32.5C 6.39643,30.2972 5.72976,28.2972 4.5,26.5 Z"/></g>
<g><path style="opacity:1" fill="#767092" d="M 13.5,10.5 C 13.3505,11.552 13.5172,12.552 14,13.5C 14.6543,12.3044 15.1543,12.3044 15.5,13.5C 14.146,20.5693 14.4794,27.5693 16.5,34.5C 15.5041,34.5858 14.6708,34.2524 14,33.5C 13.8019,31.6183 13.3019,29.9516 12.5,28.5C 12.5,31.5 12.5,34.5 12.5,37.5C 11.5,37.5 10.5,37.5 9.5,37.5C 9.38014,35.2655 9.71348,33.0989 10.5,31C 8.65018,29.2479 6.65018,27.7479 4.5,26.5C 3.83333,21.1667 6.16667,18.8333 11.5,19.5C 11.5,17.8333 11.5,16.1667 11.5,14.5C 11.9887,13.0048 12.6554,11.6715 13.5,10.5 Z"/></g>
<g><path style="opacity:1" fill="#2e2a57" d="M 12.5,28.5 C 10.6155,26.2563 8.94881,23.7563 7.5,21C 8.79323,20.51 10.1266,20.3433 11.5,20.5C 11.4013,23.2372 11.7347,25.9039 12.5,28.5 Z"/></g>
<g><path style="opacity:0.267" fill="#d7cfdc" d="M 95.5,25.5 C 97.4305,25.7706 98.7638,26.7706 99.5,28.5C 99.5,32.8333 99.5,37.1667 99.5,41.5C 99.1667,41.5 98.8333,41.5 98.5,41.5C 99.0894,37.0293 98.4228,33.0293 96.5,29.5C 96.5674,28.0413 96.2341,26.7079 95.5,25.5 Z"/></g>
<g><path style="opacity:1" fill="#241542" d="M 38.5,27.5 C 41.3419,30.689 44.0086,34.0223 46.5,37.5C 47.8333,37.1667 49.1667,36.8333 50.5,36.5C 51.8333,36.5 53.1667,36.5 54.5,36.5C 52.8333,37.1667 51.1667,37.8333 49.5,38.5C 45.3672,40.9849 42.7006,44.6515 41.5,49.5C 40.8333,50.1667 40.1667,50.8333 39.5,51.5C 36.2011,52.3761 32.8678,52.5428 29.5,52C 33.0189,51.6047 36.3522,50.6047 39.5,49C 40.7112,48.1072 40.7112,47.2739 39.5,46.5C 38.5832,47.1272 37.5832,47.4606 36.5,47.5C 35.5084,47.6716 34.8417,47.3382 34.5,46.5C 36.896,45.6995 39.2293,44.6995 41.5,43.5C 42.8114,42.7425 43.3114,41.7425 43,40.5C 37.4584,44.1845 31.2917,45.5178 24.5,44.5C 23.9507,43.2647 24.6173,42.2647 26.5,41.5C 30,42.6236 33.3334,42.1236 36.5,40C 34.4233,39.8078 32.4233,39.3078 30.5,38.5C 32.6119,37.4823 34.2786,35.9823 35.5,34C 34.615,31.8434 32.9484,31.0101 30.5,31.5C 28.6907,30.7093 26.6907,30.7093 24.5,31.5C 25.347,30.0337 26.6803,29.2004 28.5,29C 31.9194,28.7515 35.2527,28.2515 38.5,27.5 Z"/></g>
<g><path style="opacity:1" fill="#46346c" d="M 38.5,16.5 C 38.5,17.8333 39.1667,18.5 40.5,18.5C 42.1722,19.8696 43.8388,21.2029 45.5,22.5C 46.759,23.9791 47.759,25.6458 48.5,27.5C 48.5,29.5 48.5,31.5 48.5,33.5C 51.2476,33.4017 51.9143,34.4017 50.5,36.5C 49.1667,36.8333 47.8333,37.1667 46.5,37.5C 46.5,36.5 46.5,35.5 46.5,34.5C 46.6641,31.8127 46.4974,29.146 46,26.5C 43.0051,22.6333 39.5051,19.6333 35.5,17.5C 36.609,17.4431 37.609,17.1098 38.5,16.5 Z"/></g>
<g><path style="opacity:1" fill="#8687a7" d="M 30.5,31.5 C 30.5,31.8333 30.5,32.1667 30.5,32.5C 26.7165,35.073 22.3832,36.4063 17.5,36.5C 19.449,34.437 21.7823,33.1036 24.5,32.5C 24.5,32.1667 24.5,31.8333 24.5,31.5C 26.6907,30.7093 28.6907,30.7093 30.5,31.5 Z"/></g>
<g><path style="opacity:1" fill="#393466" d="M 80.5,29.5 C 81.5,30.1667 82.5,30.8333 83.5,31.5C 81.4727,31.3379 79.4727,31.5045 77.5,32C 74.9194,34.1596 74.9194,36.3263 77.5,38.5C 79.396,39.4656 81.396,39.7989 83.5,39.5C 82.5,40.1667 81.5,40.8333 80.5,41.5C 78.5156,40.3058 76.5156,40.3058 74.5,41.5C 75.935,42.9285 76.935,44.5952 77.5,46.5C 77.2528,47.7133 76.5862,48.38 75.5,48.5C 75.4443,44.133 73.4443,41.633 69.5,41C 68.646,42.0217 67.646,42.8551 66.5,43.5C 65.5078,47.7828 65.1744,52.1161 65.5,56.5C 68.0452,57.4508 68.0452,58.4508 65.5,59.5C 64.5046,53.8722 64.1712,48.2055 64.5,42.5C 65.9335,41.1667 67.2668,39.6667 68.5,38C 70.1341,37.5065 71.8008,37.3398 73.5,37.5C 73.5,35.8333 73.5,34.1667 73.5,32.5C 75.6282,31.0427 77.9616,30.0427 80.5,29.5 Z"/></g>
<g><path style="opacity:1" fill="#5b193c" d="M 48.5,27.5 C 49.4511,28.9187 49.7845,30.5853 49.5,32.5C 51.5273,32.3379 53.5273,32.5045 55.5,33C 56.985,34.7565 56.6516,35.9232 54.5,36.5C 53.1667,36.5 51.8333,36.5 50.5,36.5C 51.9143,34.4017 51.2476,33.4017 48.5,33.5C 48.5,31.5 48.5,29.5 48.5,27.5 Z"/></g>
<g><path style="opacity:1" fill="#554f81" d="M 83.5,31.5 C 86.1667,34.1667 86.1667,36.8333 83.5,39.5C 81.396,39.7989 79.396,39.4656 77.5,38.5C 74.9194,36.3263 74.9194,34.1596 77.5,32C 79.4727,31.5045 81.4727,31.3379 83.5,31.5 Z"/></g>
<g><path style="opacity:1" fill="#161046" d="M 88.5,31.5 C 88.6633,33.8568 88.4966,36.1902 88,38.5C 86.2927,40.0375 84.7927,41.7041 83.5,43.5C 82.2905,43.0679 81.2905,42.4013 80.5,41.5C 81.5,40.8333 82.5,40.1667 83.5,39.5C 86.1667,36.8333 86.1667,34.1667 83.5,31.5C 82.5,30.8333 81.5,30.1667 80.5,29.5C 81.2613,28.6091 82.2613,27.9424 83.5,27.5C 85.1856,28.8569 86.8523,30.1902 88.5,31.5 Z"/></g>
<g><path style="opacity:1" fill="#dd893c" d="M 92.5,25.5 C 94.2132,26.6354 94.8799,28.302 94.5,30.5C 92.9461,34.3901 93.2794,38.0568 95.5,41.5C 94.8902,42.391 94.5569,43.391 94.5,44.5C 93.8333,44.5 93.1667,44.5 92.5,44.5C 92.5,38.1667 92.5,31.8333 92.5,25.5 Z"/></g>
<g><path style="opacity:1" fill="#6b6290" d="M 30.5,32.5 C 28.4389,35.7239 25.6056,38.0573 22,39.5C 21.5172,40.448 21.3505,41.448 21.5,42.5C 18.0292,42.8994 17.6958,44.3994 20.5,47C 18.0709,47.7033 15.7375,47.5366 13.5,46.5C 12.77,43.5676 12.9366,40.5676 14,37.5C 15.0113,36.6634 16.1779,36.33 17.5,36.5C 22.3832,36.4063 26.7165,35.073 30.5,32.5 Z"/></g>
<g><path style="opacity:1" fill="#35224e" d="M 88.5,18.5 C 89.4916,18.3284 90.1583,18.6618 90.5,19.5C 89.528,21.9197 90.1946,23.9197 92.5,25.5C 92.5,31.8333 92.5,38.1667 92.5,44.5C 91.8333,44.5 91.5,44.8333 91.5,45.5C 90.5151,41.3656 90.1818,37.0323 90.5,32.5C 90.6633,30.1432 90.4966,27.8098 90,25.5C 87.706,23.3525 87.206,21.0191 88.5,18.5 Z"/></g>
<g><path style="opacity:1" fill="#483b65" d="M 96.5,29.5 C 98.4228,33.0293 99.0894,37.0293 98.5,41.5C 97.5,42.8333 96.5,42.8333 95.5,41.5C 93.2794,38.0568 92.9461,34.3901 94.5,30.5C 95.1667,30.1667 95.8333,29.8333 96.5,29.5 Z"/></g>
<g><path style="opacity:1" fill="#5a5681" d="M 59.5,30.5 C 60.5,30.5 61.5,30.5 62.5,30.5C 62.3204,34.682 62.987,38.682 64.5,42.5C 63.5104,48.31 63.1771,54.31 63.5,60.5C 64.552,60.3505 65.552,60.5172 66.5,61C 64.7444,61.2022 63.0777,61.7022 61.5,62.5C 65.1073,63.4892 68.774,63.8226 72.5,63.5C 72.5,63.8333 72.5,64.1667 72.5,64.5C 66.9738,64.8214 61.6405,64.4881 56.5,63.5C 57.8734,63.6567 59.2068,63.49 60.5,63C 59.3636,61.8549 58.3636,60.6883 57.5,59.5C 53.7413,57.3166 52.0747,53.9832 52.5,49.5C 52.8333,49.5 53.1667,49.5 53.5,49.5C 53.3433,50.8734 53.51,52.2068 54,53.5C 55.2009,50.0771 56.7009,46.7437 58.5,43.5C 58.315,42.4163 57.9817,41.4163 57.5,40.5C 58.1174,40.3893 58.6174,40.056 59,39.5C 59.498,36.5184 59.6646,33.5184 59.5,30.5 Z"/></g>
<g><path style="opacity:1" fill="#4f4476" d="M 88.5,31.5 C 89.1667,31.8333 89.8333,32.1667 90.5,32.5C 90.1818,37.0323 90.5151,41.3656 91.5,45.5C 90.5244,46.8149 89.5244,48.1482 88.5,49.5C 89.325,50.3857 90.325,50.719 91.5,50.5C 90.713,52.1042 89.3797,52.7709 87.5,52.5C 86.8333,52.5 86.1667,52.5 85.5,52.5C 84.7095,51.5987 83.7095,50.9321 82.5,50.5C 82.9926,48.1944 83.3259,45.861 83.5,43.5C 84.7927,41.7041 86.2927,40.0375 88,38.5C 88.4966,36.1902 88.6633,33.8568 88.5,31.5 Z"/></g>
<g><path style="opacity:1" fill="#4d4670" d="M 12.5,28.5 C 13.3019,29.9516 13.8019,31.6183 14,33.5C 14.6708,34.2524 15.5041,34.5858 16.5,34.5C 18.7727,34.0432 20.106,32.7099 20.5,30.5C 21.4674,31.8062 22.8007,32.4729 24.5,32.5C 21.7823,33.1036 19.449,34.437 17.5,36.5C 16.1779,36.33 15.0113,36.6634 14,37.5C 12.9366,40.5676 12.77,43.5676 13.5,46.5C 13.5,46.8333 13.5,47.1667 13.5,47.5C 11.8561,47.2865 10.3561,47.6198 9,48.5C 8.21739,46.5665 8.71739,45.0665 10.5,44C 9.58377,43.6258 8.75044,43.1258 8,42.5C 6.61238,43.5536 5.11238,43.7203 3.5,43C 4.30806,42.6924 4.97473,42.1924 5.5,41.5C 4.20808,39.3334 3.37474,37.0001 3,34.5C 2.2459,40.9882 1.57923,40.9882 1,34.5C 2.82784,33.2475 4.66117,33.2475 6.5,34.5C 7.16667,34.5 7.5,34.8333 7.5,35.5C 7.83333,36.5 8.5,37.1667 9.5,37.5C 10.5,37.5 11.5,37.5 12.5,37.5C 12.5,34.5 12.5,31.5 12.5,28.5 Z"/></g>
<g><path style="opacity:1" fill="#413669" d="M 30.5,31.5 C 32.9484,31.0101 34.615,31.8434 35.5,34C 34.2786,35.9823 32.6119,37.4823 30.5,38.5C 32.4233,39.3078 34.4233,39.8078 36.5,40C 33.3334,42.1236 30,42.6236 26.5,41.5C 24.6173,42.2647 23.9507,43.2647 24.5,44.5C 23.3398,45.265 22.3398,46.265 21.5,47.5C 22.1667,47.8333 22.8333,48.1667 23.5,48.5C 27.0336,47.0778 30.7002,46.4111 34.5,46.5C 34.8417,47.3382 35.5084,47.6716 36.5,47.5C 32.1979,49.5567 27.5312,50.5567 22.5,50.5C 19.2381,50.0248 16.2381,49.0248 13.5,47.5C 13.5,47.1667 13.5,46.8333 13.5,46.5C 15.7375,47.5366 18.0709,47.7033 20.5,47C 17.6958,44.3994 18.0292,42.8994 21.5,42.5C 21.3505,41.448 21.5172,40.448 22,39.5C 25.6056,38.0573 28.4389,35.7239 30.5,32.5C 30.5,32.1667 30.5,31.8333 30.5,31.5 Z"/></g>
<g><path style="opacity:1" fill="#584b75" d="M 34.5,46.5 C 30.7002,46.4111 27.0336,47.0778 23.5,48.5C 22.8333,48.1667 22.1667,47.8333 21.5,47.5C 22.3398,46.265 23.3398,45.265 24.5,44.5C 31.2917,45.5178 37.4584,44.1845 43,40.5C 43.3114,41.7425 42.8114,42.7425 41.5,43.5C 39.2293,44.6995 36.896,45.6995 34.5,46.5 Z"/></g>
<g><path style="opacity:1" fill="#dc5962" d="M 92.5,44.5 C 93.1667,44.5 93.8333,44.5 94.5,44.5C 92.461,45.911 91.461,47.911 91.5,50.5C 90.325,50.719 89.325,50.3857 88.5,49.5C 89.5244,48.1482 90.5244,46.8149 91.5,45.5C 91.5,44.8333 91.8333,44.5 92.5,44.5 Z"/></g>
<g><path style="opacity:1" fill="#fa986b" d="M 49.5,38.5 C 51.5273,38.3379 53.5273,38.5045 55.5,39C 56.056,39.3826 56.3893,39.8826 56.5,40.5C 54.88,43.2282 53.88,46.2282 53.5,49.5C 53.1667,49.5 52.8333,49.5 52.5,49.5C 48.8333,49.5 45.1667,49.5 41.5,49.5C 42.7006,44.6515 45.3672,40.9849 49.5,38.5 Z"/></g>
<g><path style="opacity:1" fill="#8a6a78" d="M 56.5,40.5 C 56.8333,40.5 57.1667,40.5 57.5,40.5C 57.9817,41.4163 58.315,42.4163 58.5,43.5C 56.7009,46.7437 55.2009,50.0771 54,53.5C 53.51,52.2068 53.3433,50.8734 53.5,49.5C 53.88,46.2282 54.88,43.2282 56.5,40.5 Z"/></g>
<g><path style="opacity:1" fill="#04e9f0" d="M 75.5,48.5 C 73.3005,52.5979 69.9671,55.2646 65.5,56.5C 65.1744,52.1161 65.5078,47.7828 66.5,43.5C 67.646,42.8551 68.646,42.0217 69.5,41C 73.4443,41.633 75.4443,44.133 75.5,48.5 Z"/></g>
<g><path style="opacity:1" fill="#ba5f87" d="M 95.5,41.5 C 96.5,42.8333 97.5,42.8333 98.5,41.5C 97.2464,44.0934 95.5798,46.4268 93.5,48.5C 92.8333,49.1667 92.1667,49.8333 91.5,50.5C 91.461,47.911 92.461,45.911 94.5,44.5C 94.5569,43.391 94.8902,42.391 95.5,41.5 Z"/></g>
<g><path style="opacity:1" fill="#938da8" d="M 6.5,32.5 C 6.5,33.1667 6.5,33.8333 6.5,34.5C 4.66117,33.2475 2.82784,33.2475 1,34.5C 1.57923,40.9882 2.2459,40.9882 3,34.5C 3.37474,37.0001 4.20808,39.3334 5.5,41.5C 4.97473,42.1924 4.30806,42.6924 3.5,43C 5.11238,43.7203 6.61238,43.5536 8,42.5C 8.75044,43.1258 9.58377,43.6258 10.5,44C 8.71739,45.0665 8.21739,46.5665 9,48.5C 10.3561,47.6198 11.8561,47.2865 13.5,47.5C 16.2381,49.0248 19.2381,50.0248 22.5,50.5C 21.0998,51.1001 20.0998,52.1001 19.5,53.5C 15.7418,52.8809 12.0751,51.8809 8.5,50.5C 8.14297,46.7227 6.14297,44.556 2.5,44C 1.39127,42.1239 0.391268,40.2905 -0.5,38.5C -0.5,36.8333 -0.5,35.1667 -0.5,33.5C 1.71702,32.6314 4.05035,32.298 6.5,32.5 Z"/></g>
<g><path style="opacity:1" fill="#665d85" d="M 39.5,51.5 C 39.5,51.8333 39.5,52.1667 39.5,52.5C 38.8333,52.5 38.5,52.8333 38.5,53.5C 36.4357,53.687 34.4357,54.187 32.5,55C 33.056,55.3826 33.3893,55.8826 33.5,56.5C 29.8183,56.6653 26.1516,56.4986 22.5,56C 29.0522,55.4528 29.0522,54.6195 22.5,53.5C 21.5,53.5 20.5,53.5 19.5,53.5C 20.0998,52.1001 21.0998,51.1001 22.5,50.5C 27.5312,50.5567 32.1979,49.5567 36.5,47.5C 37.5832,47.4606 38.5832,47.1272 39.5,46.5C 40.7112,47.2739 40.7112,48.1072 39.5,49C 36.3522,50.6047 33.0189,51.6047 29.5,52C 32.8678,52.5428 36.2011,52.3761 39.5,51.5 Z"/></g>
<g><path style="opacity:1" fill="#ef1285" d="M 41.5,49.5 C 45.1667,49.5 48.8333,49.5 52.5,49.5C 52.0747,53.9832 53.7413,57.3166 57.5,59.5C 54.2869,59.81 51.2869,59.4767 48.5,58.5C 48.5,57.1667 48.5,55.8333 48.5,54.5C 45.3704,54.3003 42.3704,53.6336 39.5,52.5C 39.5,52.1667 39.5,51.8333 39.5,51.5C 40.1667,50.8333 40.8333,50.1667 41.5,49.5 Z"/></g>
<g><path style="opacity:1" fill="#f13baf" d="M 39.5,52.5 C 42.3704,53.6336 45.3704,54.3003 48.5,54.5C 48.5,55.8333 48.5,57.1667 48.5,58.5C 44.7063,57.5801 41.3729,55.9135 38.5,53.5C 38.5,52.8333 38.8333,52.5 39.5,52.5 Z"/></g>
<g><path style="opacity:1" fill="#c5435b" d="M 82.5,50.5 C 83.7095,50.9321 84.7095,51.5987 85.5,52.5C 86.1667,52.5 86.8333,52.5 87.5,52.5C 86.8333,53.5 86.1667,54.5 85.5,55.5C 84.5084,55.3284 83.8417,55.6618 83.5,56.5C 83.1667,56.5 82.8333,56.5 82.5,56.5C 81.391,56.4431 80.391,56.1098 79.5,55.5C 79.7497,53.326 80.7497,51.6594 82.5,50.5 Z"/></g>
<g><path style="opacity:1" fill="#ffa84c" d="M 85.5,52.5 C 84.3117,53.3636 83.1451,54.3636 82,55.5C 81.5172,54.552 81.3505,53.552 81.5,52.5C 82.8333,52.5 84.1667,52.5 85.5,52.5 Z"/></g>
<g><path style="opacity:0.067" fill="#d3cfdd" d="M 93.5,48.5 C 93.0198,51.0046 92.0198,53.3379 90.5,55.5C 91.309,60.4414 90.6424,60.6081 88.5,56C 87.552,55.5172 86.552,55.3505 85.5,55.5C 86.1667,54.5 86.8333,53.5 87.5,52.5C 89.3797,52.7709 90.713,52.1042 91.5,50.5C 92.1667,49.8333 92.8333,49.1667 93.5,48.5 Z"/></g>
<g><path style="opacity:0.333" fill="#a8a6b7" d="M 22.5,53.5 C 29.0522,54.6195 29.0522,55.4528 22.5,56C 26.1516,56.4986 29.8183,56.6653 33.5,56.5C 34.2189,58.0913 35.2189,59.5913 36.5,61C 40.7336,63.7785 45.0669,65.6118 49.5,66.5C 58.6517,67.4936 67.985,67.8269 77.5,67.5C 77.8333,67.5 78.1667,67.5 78.5,67.5C 79.1667,67.1667 79.8333,66.8333 80.5,66.5C 80.5,67.1667 80.5,67.8333 80.5,68.5C 69.8333,68.5 59.1667,68.5 48.5,68.5C 48.1667,67.1667 47.8333,67.1667 47.5,68.5C 47.1667,68.5 46.8333,68.5 46.5,68.5C 42.9054,66.2427 39.2388,64.076 35.5,62C 33.9632,60.8904 33.2965,59.3904 33.5,57.5C 29.5,57.5 25.5,57.5 21.5,57.5C 21.4326,56.0413 21.7659,54.7079 22.5,53.5 Z"/></g>
<g><path style="opacity:0.29" fill="#c4c4d3" d="M 85.5,55.5 C 84.9216,58.2804 84.2549,60.9471 83.5,63.5C 83.5,61.1667 83.5,58.8333 83.5,56.5C 83.8417,55.6618 84.5084,55.3284 85.5,55.5 Z"/></g>
<g><path style="opacity:1" fill="#484274" d="M 80.5,41.5 C 81.2905,42.4013 82.2905,43.0679 83.5,43.5C 83.3259,45.861 82.9926,48.1944 82.5,50.5C 80.7497,51.6594 79.7497,53.326 79.5,55.5C 79.5,56.5 79.5,57.5 79.5,58.5C 78.1667,58.5 76.8333,58.5 75.5,58.5C 75.5,59.5 75.5,60.5 75.5,61.5C 74.1266,61.3433 72.7932,61.51 71.5,62C 72.056,62.3826 72.3893,62.8826 72.5,63.5C 68.774,63.8226 65.1073,63.4892 61.5,62.5C 63.0777,61.7022 64.7444,61.2022 66.5,61C 65.552,60.5172 64.552,60.3505 63.5,60.5C 63.1771,54.31 63.5104,48.31 64.5,42.5C 64.1712,48.2055 64.5046,53.8722 65.5,59.5C 68.0452,58.4508 68.0452,57.4508 65.5,56.5C 69.9671,55.2646 73.3005,52.5979 75.5,48.5C 76.5862,48.38 77.2528,47.7133 77.5,46.5C 76.935,44.5952 75.935,42.9285 74.5,41.5C 76.5156,40.3058 78.5156,40.3058 80.5,41.5 Z"/></g>
<g><path style="opacity:1" fill="#19123c" d="M 38.5,53.5 C 41.3729,55.9135 44.7063,57.5801 48.5,58.5C 51.2869,59.4767 54.2869,59.81 57.5,59.5C 58.3636,60.6883 59.3636,61.8549 60.5,63C 59.2068,63.49 57.8734,63.6567 56.5,63.5C 53.6879,63.7669 51.3545,64.7669 49.5,66.5C 45.0669,65.6118 40.7336,63.7785 36.5,61C 35.2189,59.5913 34.2189,58.0913 33.5,56.5C 33.3893,55.8826 33.056,55.3826 32.5,55C 34.4357,54.187 36.4357,53.687 38.5,53.5 Z"/></g>
<g><path style="opacity:1" fill="#1e104c" d="M 79.5,55.5 C 80.391,56.1098 81.391,56.4431 82.5,56.5C 82.6633,58.8568 82.4966,61.1902 82,63.5C 80.2663,64.2489 78.433,64.7489 76.5,65C 77.756,65.4169 78.4226,66.2502 78.5,67.5C 78.1667,67.5 77.8333,67.5 77.5,67.5C 75.4687,67.0276 73.8021,66.0276 72.5,64.5C 72.5,64.1667 72.5,63.8333 72.5,63.5C 72.3893,62.8826 72.056,62.3826 71.5,62C 72.7932,61.51 74.1266,61.3433 75.5,61.5C 75.5,60.5 75.5,59.5 75.5,58.5C 76.8333,58.5 78.1667,58.5 79.5,58.5C 79.5,57.5 79.5,56.5 79.5,55.5 Z"/></g>
<g><path style="opacity:0.006" fill="#f2f3f5" d="M 93.5,61.5 C 95.337,61.6395 95.6704,62.3061 94.5,63.5C 93.7025,63.0431 93.3691,62.3764 93.5,61.5 Z"/></g>
<g><path style="opacity:1" fill="#65678a" d="M 48.5,60.5 C 50.1667,60.5 51.8333,60.5 53.5,60.5C 53.5,61.5 53.5,62.5 53.5,63.5C 51.396,63.7989 49.396,63.4656 47.5,62.5C 47.8627,61.8165 48.1961,61.1499 48.5,60.5 Z"/></g>
<g><path style="opacity:1" fill="#4b436c" d="M 82.5,56.5 C 82.8333,56.5 83.1667,56.5 83.5,56.5C 83.5,58.8333 83.5,61.1667 83.5,63.5C 82.8333,64.8333 81.8333,65.8333 80.5,66.5C 79.8333,66.8333 79.1667,67.1667 78.5,67.5C 78.4226,66.2502 77.756,65.4169 76.5,65C 78.433,64.7489 80.2663,64.2489 82,63.5C 82.4966,61.1902 82.6633,58.8568 82.5,56.5 Z"/></g>
<g><path style="opacity:1" fill="#3e406f" d="M 56.5,63.5 C 61.6405,64.4881 66.9738,64.8214 72.5,64.5C 73.8021,66.0276 75.4687,67.0276 77.5,67.5C 67.985,67.8269 58.6517,67.4936 49.5,66.5C 51.3545,64.7669 53.6879,63.7669 56.5,63.5 Z"/></g>
</svg>
