<?xml version="1.0" encoding="UTF-8"?>
<!DOCTYPE svg PUBLIC "-//W3C//DTD SVG 1.1//EN" "http://www.w3.org/Graphics/SVG/1.1/DTD/svg11.dtd">
<svg xmlns="http://www.w3.org/2000/svg" version="1.1" width="100px" height="77px" style="shape-rendering:geometricPrecision; text-rendering:geometricPrecision; image-rendering:optimizeQuality; fill-rule:evenodd; clip-rule:evenodd" xmlns:xlink="http://www.w3.org/1999/xlink">
<g><path style="opacity:1" fill="#6c0954" d="M 38.5,14.5 C 38.8333,14.5 39.1667,14.5 39.5,14.5C 39.8333,14.5 40.1667,14.5 40.5,14.5C 45.1667,14.5 49.8333,14.5 54.5,14.5C 54.5,15.5 54.5,16.5 54.5,17.5C 51.3706,20.2107 47.704,21.5441 43.5,21.5C 43.5,22.8333 43.5,24.1667 43.5,25.5C 41.4362,25.2381 40.1029,24.0714 39.5,22C 38.2068,21.51 36.8734,21.3433 35.5,21.5C 36.1989,19.0052 37.1989,16.6719 38.5,14.5 Z"/></g>
<g><path style="opacity:1" fill="#a71578" d="M 85.5,13.5 C 87.8598,14.865 89.5265,16.865 90.5,19.5C 90.5,21.5 91.5,22.5 93.5,22.5C 93.5,23.5 93.5,24.5 93.5,25.5C 92.2921,26.2341 90.9587,26.5674 89.5,26.5C 89.7845,24.5853 89.4511,22.9187 88.5,21.5C 87.3438,18.9212 86.3438,16.2545 85.5,13.5 Z"/></g>
<g><path style="opacity:1" fill="#363447" d="M 90.5,19.5 C 92.0269,19.427 93.0269,20.0937 93.5,21.5C 93.5,21.8333 93.5,22.1667 93.5,22.5C 91.5,22.5 90.5,21.5 90.5,19.5 Z"/></g>
<g><path style="opacity:1" fill="#211746" d="M 32.5,19.5 C 31.6851,20.8366 30.5185,21.8366 29,22.5C 28.1368,24.7489 28.6368,26.5822 30.5,28C 28.6874,27.9536 27.0207,28.1203 25.5,28.5C 24.6518,30.4086 24.3184,32.4086 24.5,34.5C 26.8568,34.3367 29.1902,34.5034 31.5,35C 29.5273,35.4955 27.5273,35.6621 25.5,35.5C 23.631,37.6353 22.9644,40.3019 23.5,43.5C 22.6909,41.7078 22.1909,39.7078 22,37.5C 17.9215,38.6295 13.7548,38.7961 9.5,38C 7.563,37.8784 6.22967,37.045 5.5,35.5C 6.56764,34.5655 7.90097,34.2322 9.5,34.5C 10.404,33.791 10.7373,32.791 10.5,31.5C 14.1545,31.9422 17.8212,32.2756 21.5,32.5C 21.5,31.1667 21.5,29.8333 21.5,28.5C 17.351,29.0803 13.6843,28.4136 10.5,26.5C 11.29,25.3915 11.79,24.0581 12,22.5C 18.5005,19.8113 25.3339,18.8113 32.5,19.5 Z"/></g>
<g><path style="opacity:1" fill="#575173" d="M 59.5,14.5 C 59.9402,17.3798 60.9402,20.0465 62.5,22.5C 61.9779,24.2191 60.9779,25.5525 59.5,26.5C 57.7969,24.1924 56.4636,21.5257 55.5,18.5C 57.1788,18.7148 58.1788,18.0481 58.5,16.5C 58.3284,15.5084 58.6618,14.8417 59.5,14.5 Z"/></g>
<g><path style="opacity:1" fill="#f71b57" d="M 76.5,24.5 C 76.5,26.5 76.5,28.5 76.5,30.5C 75.0937,30.9731 74.427,31.9731 74.5,33.5C 72.7839,33.3713 71.1172,33.038 69.5,32.5C 69.2503,30.326 68.2503,28.6594 66.5,27.5C 66.5,27.1667 66.5,26.8333 66.5,26.5C 65.8333,23.8333 65.1667,21.1667 64.5,18.5C 69.6113,18.3889 73.6113,20.3889 76.5,24.5 Z"/></g>
<g><path style="opacity:1" fill="#8691ac" d="M 59.5,14.5 C 63.5,14.5 67.5,14.5 71.5,14.5C 73.5273,14.3379 75.5273,14.5045 77.5,15C 78.1634,16.5185 79.1634,17.6851 80.5,18.5C 80.3205,20.9541 80.9872,23.1208 82.5,25C 82.1639,26.0299 81.4972,26.5299 80.5,26.5C 80.3337,22.7851 79.0004,19.6184 76.5,17C 71.5364,16.0878 66.5364,15.5878 61.5,15.5C 62.5922,19.45 64.2589,23.1167 66.5,26.5C 66.5,26.8333 66.5,27.1667 66.5,27.5C 65.5655,28.5676 65.2322,29.901 65.5,31.5C 64.6326,28.5565 63.6326,25.5565 62.5,22.5C 60.9402,20.0465 59.9402,17.3798 59.5,14.5 Z"/></g>
<g><path style="opacity:1" fill="#311a6e" d="M 80.5,26.5 C 80.1667,26.5 79.8333,26.5 79.5,26.5C 78.7777,25.4489 77.7777,24.7822 76.5,24.5C 73.6113,20.3889 69.6113,18.3889 64.5,18.5C 65.1667,21.1667 65.8333,23.8333 66.5,26.5C 64.2589,23.1167 62.5922,19.45 61.5,15.5C 66.5364,15.5878 71.5364,16.0878 76.5,17C 79.0004,19.6184 80.3337,22.7851 80.5,26.5 Z"/></g>
<g><path style="opacity:1" fill="#2e1b3c" d="M 88.5,21.5 C 89.4511,22.9187 89.7845,24.5853 89.5,26.5C 90.9587,26.5674 92.2921,26.2341 93.5,25.5C 96.2066,27.2833 96.8733,29.6166 95.5,32.5C 94.8333,32.5 94.1667,32.5 93.5,32.5C 93.5,30.8333 93.5,29.1667 93.5,27.5C 91.6916,27.4914 90.0249,27.9914 88.5,29C 89.3802,30.3561 89.7135,31.8561 89.5,33.5C 90.5,33.5 91.5,33.5 92.5,33.5C 91.4324,34.4345 90.099,34.7678 88.5,34.5C 87.6453,30.2098 87.6453,25.8765 88.5,21.5 Z"/></g>
<g><path style="opacity:1" fill="#aa2b78" d="M 76.5,24.5 C 77.7777,24.7822 78.7777,25.4489 79.5,26.5C 78.9744,28.2303 77.9744,29.5637 76.5,30.5C 76.5,28.5 76.5,26.5 76.5,24.5 Z"/></g>
<g><path style="opacity:1" fill="#140a4e" d="M 85.5,21.5 C 86.8355,25.5044 85.8355,28.8377 82.5,31.5C 81.5326,32.8062 80.1993,33.4729 78.5,33.5C 79.9331,31.4418 80.5997,29.1085 80.5,26.5C 81.4972,26.5299 82.1639,26.0299 82.5,25C 80.9872,23.1208 80.3205,20.9541 80.5,18.5C 80.4148,17.0047 81.0815,16.0047 82.5,15.5C 82.9642,17.9749 83.9642,19.9749 85.5,21.5 Z"/></g>
<g><path style="opacity:1" fill="#fbcd13" d="M 69.5,22.5 C 71.4387,23.0138 72.4387,24.3472 72.5,26.5C 72.1012,28.1966 71.6012,29.8632 71,31.5C 70.6371,28.456 70.1371,25.456 69.5,22.5 Z"/></g>
<g><path style="opacity:1" fill="#333457" d="M 10.5,26.5 C 13.6843,28.4136 17.351,29.0803 21.5,28.5C 21.5,29.8333 21.5,31.1667 21.5,32.5C 17.8212,32.2756 14.1545,31.9422 10.5,31.5C 10.7373,32.791 10.404,33.791 9.5,34.5C 9.37959,32.8014 9.04626,31.1347 8.5,29.5C 8.45344,27.9623 9.12011,26.9623 10.5,26.5 Z"/></g>
<g><path style="opacity:1" fill="#f88c97" d="M 54.5,17.5 C 54.8333,17.5 55.1667,17.5 55.5,17.5C 55.5,17.8333 55.5,18.1667 55.5,18.5C 56.4636,21.5257 57.7969,24.1924 59.5,26.5C 59.5,28.5 59.5,30.5 59.5,32.5C 59.5,33.1667 59.8333,33.5 60.5,33.5C 60.5,36.8333 60.5,40.1667 60.5,43.5C 60.1667,43.5 59.8333,43.5 59.5,43.5C 58.8093,48.9297 57.4759,54.2631 55.5,59.5C 55.1667,59.5 54.8333,59.5 54.5,59.5C 51.5691,57.203 48.2358,55.703 44.5,55C 43.9781,54.4387 43.6448,53.772 43.5,53C 45.4704,50.0375 46.9704,46.8709 48,43.5C 48.8045,40.3035 48.6378,37.3035 47.5,34.5C 47.9459,30.6397 46.6125,27.6397 43.5,25.5C 43.5,24.1667 43.5,22.8333 43.5,21.5C 47.704,21.5441 51.3706,20.2107 54.5,17.5 Z"/></g>
<g><path style="opacity:1" fill="#bd0492" d="M 38.5,14.5 C 37.1989,16.6719 36.1989,19.0052 35.5,21.5C 36.8734,21.3433 38.2068,21.51 39.5,22C 40.1029,24.0714 41.4362,25.2381 43.5,25.5C 46.6125,27.6397 47.9459,30.6397 47.5,34.5C 43.5,35.1667 43.5,35.8333 47.5,36.5C 47.7135,38.1439 47.3802,39.6439 46.5,41C 43.8377,42.1201 41.5044,42.9534 39.5,43.5C 38.2866,44.5747 36.7866,45.2414 35,45.5C 32.5021,45.0828 30.0021,44.7495 27.5,44.5C 27.5,43.5 27.5,42.5 27.5,41.5C 29.8333,41.5 32.1667,41.5 34.5,41.5C 34.5,40.5 34.5,39.5 34.5,38.5C 31.5,38.5 28.5,38.5 25.5,38.5C 25.5,37.5 25.5,36.5 25.5,35.5C 27.5273,35.6621 29.5273,35.4955 31.5,35C 29.1902,34.5034 26.8568,34.3367 24.5,34.5C 24.3184,32.4086 24.6518,30.4086 25.5,28.5C 27.0207,28.1203 28.6874,27.9536 30.5,28C 28.6368,26.5822 28.1368,24.7489 29,22.5C 30.5185,21.8366 31.6851,20.8366 32.5,19.5C 34.5193,17.8103 36.5193,16.1436 38.5,14.5 Z"/></g>
<g><path style="opacity:1" fill="#c5c7d2" d="M 79.5,26.5 C 79.8333,26.5 80.1667,26.5 80.5,26.5C 80.5997,29.1085 79.9331,31.4418 78.5,33.5C 78.5,33.8333 78.5,34.1667 78.5,34.5C 77.8333,34.5 77.1667,34.5 76.5,34.5C 76.5,33.1667 76.5,31.8333 76.5,30.5C 77.9744,29.5637 78.9744,28.2303 79.5,26.5 Z"/></g>
<g><path style="opacity:1" fill="#d90bbf" d="M 93.5,32.5 C 93.5,33.1667 93.1667,33.5 92.5,33.5C 91.5,33.5 90.5,33.5 89.5,33.5C 89.7135,31.8561 89.3802,30.3561 88.5,29C 90.0249,27.9914 91.6916,27.4914 93.5,27.5C 93.5,29.1667 93.5,30.8333 93.5,32.5 Z"/></g>
<g><path style="opacity:1" fill="#9d1271" d="M 69.5,32.5 C 71.1172,33.038 72.7839,33.3713 74.5,33.5C 74.5,34.1667 74.1667,34.5 73.5,34.5C 71.5168,34.8432 70.1834,34.1765 69.5,32.5 Z"/></g>
<g><path style="opacity:1" fill="#2b2360" d="M 60.5,33.5 C 61.5862,33.62 62.2528,34.2867 62.5,35.5C 62.0356,38.3493 61.3689,41.016 60.5,43.5C 60.5,40.1667 60.5,36.8333 60.5,33.5 Z"/></g>
<g><path style="opacity:1" fill="#847192" d="M 62.5,47.5 C 60.8235,46.8166 60.1568,45.4832 60.5,43.5C 61.3689,41.016 62.0356,38.3493 62.5,35.5C 62.2528,34.2867 61.5862,33.62 60.5,33.5C 59.8333,33.5 59.5,33.1667 59.5,32.5C 60.4345,31.4324 60.7678,30.099 60.5,28.5C 61.5,28.5 62.5,28.5 63.5,28.5C 63.8309,31.8254 64.1643,35.1587 64.5,38.5C 64.5526,41.7847 63.8859,44.7847 62.5,47.5 Z"/></g>
<g><path style="opacity:0.286" fill="#d6c7cf" d="M 93.5,21.5 C 93.8333,21.5 94.1667,21.5 94.5,21.5C 96.316,25.5791 97.9826,29.5791 99.5,33.5C 99.5,36.8333 99.5,40.1667 99.5,43.5C 96.7392,47.3504 93.7392,51.0171 90.5,54.5C 90.1667,54.5 89.8333,54.5 89.5,54.5C 92.2254,50.7324 94.7254,46.7324 97,42.5C 97.6667,39.8333 97.6667,37.1667 97,34.5C 96.7216,33.5842 96.2216,32.9175 95.5,32.5C 96.8733,29.6166 96.2066,27.2833 93.5,25.5C 93.5,24.5 93.5,23.5 93.5,22.5C 93.5,22.1667 93.5,21.8333 93.5,21.5 Z"/></g>
<g><path style="opacity:0.816" fill="#c3e5e4" d="M 94.5,21.5 C 94.1667,21.5 93.8333,21.5 93.5,21.5C 93.0269,20.0937 92.0269,19.427 90.5,19.5C 89.5265,16.865 87.8598,14.865 85.5,13.5C 85.5,12.1667 84.8333,11.5 83.5,11.5C 83.1898,9.85637 82.1898,8.85637 80.5,8.5C 80.1667,7.5 79.5,6.83333 78.5,6.5C 75.5161,5.36263 72.3495,4.69596 69,4.5C 66.3097,4.50291 63.8097,4.83625 61.5,5.5C 57.3577,6.03968 53.3577,6.70634 49.5,7.5C 45.0049,8.39495 41.6716,10.7283 39.5,14.5C 39.1667,14.5 38.8333,14.5 38.5,14.5C 36.5193,16.1436 34.5193,17.8103 32.5,19.5C 25.3339,18.8113 18.5005,19.8113 12,22.5C 11.79,24.0581 11.29,25.3915 10.5,26.5C 9.12011,26.9623 8.45344,27.9623 8.5,29.5C 9.04626,31.1347 9.37959,32.8014 9.5,34.5C 7.90097,34.2322 6.56764,34.5655 5.5,35.5C 2.28911,40.0092 3.62244,42.3426 9.5,42.5C 9.56681,44.4008 9.23348,46.2341 8.5,48C 10.1137,49.7538 11.447,51.7538 12.5,54C 18.6012,56.2213 24.9345,57.0546 31.5,56.5C 33.3438,59.6872 36.0105,61.6872 39.5,62.5C 39.7828,63.2891 40.2828,63.9558 41,64.5C 41.9772,63.2264 42.8106,63.2264 43.5,64.5C 43.3601,66.1238 44.0267,67.2904 45.5,68C 51.337,68.6966 57.0037,70.0299 62.5,72C 67.3522,72.8151 72.0189,72.6484 76.5,71.5C 78.1867,70.0824 80.02,68.7491 82,67.5C 82.6869,65.4325 82.5202,63.4325 81.5,61.5C 83.4612,60.4221 85.1279,59.0887 86.5,57.5C 87.1667,56.1667 88.1667,55.1667 89.5,54.5C 89.8333,54.5 90.1667,54.5 90.5,54.5C 89.6376,57.5356 87.8042,59.869 85,61.5C 84.3162,62.7839 84.4829,63.9505 85.5,65C 83.5346,68.2988 80.868,70.9654 77.5,73C 72.1667,73.6667 66.8333,73.6667 61.5,73C 48.9946,72.5812 38.6613,67.5812 30.5,58C 25.1667,57.6667 19.8333,57.3333 14.5,57C 11.368,55.2014 8.86797,52.7014 7,49.5C 6.27969,47.8876 6.44636,46.3876 7.5,45C 4.72848,43.4688 2.72848,41.3021 1.5,38.5C 2.36738,35.4672 4.36738,33.6339 7.5,33C 6.42378,31.2739 6.25711,29.4406 7,27.5C 8.77388,25.3493 10.2739,23.016 11.5,20.5C 12.9079,19.7568 14.2412,18.9234 15.5,18C 21.1667,17.6667 26.8333,17.3333 32.5,17C 40.1826,8.99984 49.516,4.66651 60.5,4C 66.1667,3.33333 71.8333,3.33333 77.5,4C 84.6533,8.32092 90.32,14.1543 94.5,21.5 Z"/></g>
<g><path style="opacity:1" fill="#128a81" d="M 55.5,14.5 C 56.7777,14.7822 57.7777,15.4489 58.5,16.5C 58.1788,18.0481 57.1788,18.7148 55.5,18.5C 55.5,18.1667 55.5,17.8333 55.5,17.5C 55.5,16.5 55.5,15.5 55.5,14.5 Z"/></g>
<g><path style="opacity:1" fill="#231a44" d="M 80.5,8.5 C 82.1898,8.85637 83.1898,9.85637 83.5,11.5C 82.6236,11.3691 81.9569,11.7025 81.5,12.5C 82.6888,13.4287 84.0222,13.762 85.5,13.5C 86.3438,16.2545 87.3438,18.9212 88.5,21.5C 87.3478,20.375 86.3478,20.375 85.5,21.5C 83.9642,19.9749 82.9642,17.9749 82.5,15.5C 81.0815,16.0047 80.4148,17.0047 80.5,18.5C 79.1634,17.6851 78.1634,16.5185 77.5,15C 75.5273,14.5045 73.5273,14.3379 71.5,14.5C 71.5,14.1667 71.5,13.8333 71.5,13.5C 73.4832,13.8432 74.8166,13.1765 75.5,11.5C 75.5,11.1667 75.5,10.8333 75.5,10.5C 77.5542,10.6347 79.2209,9.96799 80.5,8.5 Z"/></g>
<g><path style="opacity:1" fill="#243641" d="M 59.5,10.5 C 64.8333,10.5 70.1667,10.5 75.5,10.5C 75.5,10.8333 75.5,11.1667 75.5,11.5C 70.456,11.1725 65.456,11.5059 60.5,12.5C 64.1073,13.4892 67.774,13.8226 71.5,13.5C 71.5,13.8333 71.5,14.1667 71.5,14.5C 67.5,14.5 63.5,14.5 59.5,14.5C 58.6618,14.8417 58.3284,15.5084 58.5,16.5C 57.7777,15.4489 56.7777,14.7822 55.5,14.5C 56.1667,13.8333 56.8333,13.1667 57.5,12.5C 59.2027,13.6602 59.8693,12.9935 59.5,10.5 Z"/></g>
<g><path style="opacity:1" fill="#220f30" d="M 47.5,11.5 C 47.62,12.5862 48.2867,13.2528 49.5,13.5C 52.1147,12.7308 54.7814,12.3975 57.5,12.5C 56.8333,13.1667 56.1667,13.8333 55.5,14.5C 55.5,15.5 55.5,16.5 55.5,17.5C 55.1667,17.5 54.8333,17.5 54.5,17.5C 54.5,16.5 54.5,15.5 54.5,14.5C 49.8333,14.5 45.1667,14.5 40.5,14.5C 42.6794,13.3228 45.0128,12.3228 47.5,11.5 Z"/></g>
<g><path style="opacity:1" fill="#930e77" d="M 83.5,11.5 C 84.8333,11.5 85.5,12.1667 85.5,13.5C 84.0222,13.762 82.6888,13.4287 81.5,12.5C 81.9569,11.7025 82.6236,11.3691 83.5,11.5 Z"/></g>
<g><path style="opacity:1" fill="#93005d" d="M 75.5,11.5 C 74.8166,13.1765 73.4832,13.8432 71.5,13.5C 67.774,13.8226 64.1073,13.4892 60.5,12.5C 65.456,11.5059 70.456,11.1725 75.5,11.5 Z"/></g>
<g><path style="opacity:1" fill="#1ca16e" d="M 58.5,9.5 C 59.1667,9.5 59.5,9.83333 59.5,10.5C 59.8693,12.9935 59.2027,13.6602 57.5,12.5C 54.7814,12.3975 52.1147,12.7308 49.5,13.5C 48.2867,13.2528 47.62,12.5862 47.5,11.5C 51.3597,11.1916 55.0264,10.5249 58.5,9.5 Z"/></g>
<g><path style="opacity:1" fill="#828398" d="M 61.5,5.5 C 61.5,6.5 61.5,7.5 61.5,8.5C 63.288,8.78522 64.9547,8.45189 66.5,7.5C 66.2907,6.91395 65.9574,6.41395 65.5,6C 67.4727,5.50454 69.4727,5.33788 71.5,5.5C 71.5,6.5 71.5,7.5 71.5,8.5C 74.3878,9.01017 76.7211,8.34351 78.5,6.5C 79.5,6.83333 80.1667,7.5 80.5,8.5C 79.2209,9.96799 77.5542,10.6347 75.5,10.5C 70.1667,10.5 64.8333,10.5 59.5,10.5C 59.5,9.83333 59.1667,9.5 58.5,9.5C 58.6107,8.88258 58.944,8.38258 59.5,8C 56.1832,7.50166 52.8499,7.33499 49.5,7.5C 53.3577,6.70634 57.3577,6.03968 61.5,5.5 Z"/></g>
<g><path style="opacity:1" fill="#53486b" d="M 49.5,7.5 C 52.8499,7.33499 56.1832,7.50166 59.5,8C 58.944,8.38258 58.6107,8.88258 58.5,9.5C 55.0264,10.5249 51.3597,11.1916 47.5,11.5C 45.0128,12.3228 42.6794,13.3228 40.5,14.5C 40.1667,14.5 39.8333,14.5 39.5,14.5C 41.6716,10.7283 45.0049,8.39495 49.5,7.5 Z"/></g>
<g><path style="opacity:1" fill="#444f7b" d="M 78.5,6.5 C 76.7211,8.34351 74.3878,9.01017 71.5,8.5C 71.5,7.5 71.5,6.5 71.5,5.5C 69.4727,5.33788 67.4727,5.50454 65.5,6C 65.9574,6.41395 66.2907,6.91395 66.5,7.5C 64.9547,8.45189 63.288,8.78522 61.5,8.5C 61.5,7.5 61.5,6.5 61.5,5.5C 63.8097,4.83625 66.3097,4.50291 69,4.5C 72.3495,4.69596 75.5161,5.36263 78.5,6.5 Z"/></g>
<g><path style="opacity:1" fill="#202262" d="M 62.5,22.5 C 63.6326,25.5565 64.6326,28.5565 65.5,31.5C 66.7943,35.9339 66.7943,40.2673 65.5,44.5C 64.7321,46.7146 64.0654,49.0479 63.5,51.5C 62.71,52.6085 62.21,53.9419 62,55.5C 61.2782,52.7395 61.4448,50.0728 62.5,47.5C 63.8859,44.7847 64.5526,41.7847 64.5,38.5C 64.1643,35.1587 63.8309,31.8254 63.5,28.5C 62.5,28.5 61.5,28.5 60.5,28.5C 60.7678,30.099 60.4345,31.4324 59.5,32.5C 59.5,30.5 59.5,28.5 59.5,26.5C 60.9779,25.5525 61.9779,24.2191 62.5,22.5 Z"/></g>
<g><path style="opacity:1" fill="#b0cadb" d="M 66.5,27.5 C 67.7933,34.513 67.7933,41.513 66.5,48.5C 66.5,48.8333 66.5,49.1667 66.5,49.5C 65.5489,48.0813 65.2155,46.4147 65.5,44.5C 66.7943,40.2673 66.7943,35.9339 65.5,31.5C 65.2322,29.901 65.5655,28.5676 66.5,27.5 Z"/></g>
<g><path style="opacity:1" fill="#34173b" d="M 82.5,31.5 C 83.2621,33.9564 83.9288,36.4564 84.5,39C 84.4753,40.876 83.8086,42.376 82.5,43.5C 82.5,43.1667 82.5,42.8333 82.5,42.5C 82.8076,40.076 82.4742,37.7427 81.5,35.5C 80.8182,36.2427 80.1515,36.9094 79.5,37.5C 79.7373,36.209 79.404,35.209 78.5,34.5C 78.5,34.1667 78.5,33.8333 78.5,33.5C 80.1993,33.4729 81.5326,32.8062 82.5,31.5 Z"/></g>
<g><path style="opacity:1" fill="#203082" d="M 66.5,27.5 C 68.2503,28.6594 69.2503,30.326 69.5,32.5C 70.1834,34.1765 71.5168,34.8432 73.5,34.5C 73.5,36.8333 73.5,39.1667 73.5,41.5C 69.5,38.8333 68.8333,39.5 71.5,43.5C 70.7611,43.369 70.0944,43.5357 69.5,44C 68.9473,45.8778 67.9473,47.3778 66.5,48.5C 67.7933,41.513 67.7933,34.513 66.5,27.5 Z"/></g>
<g><path style="opacity:1" fill="#bf4755" d="M 88.5,21.5 C 87.6453,25.8765 87.6453,30.2098 88.5,34.5C 90.099,34.7678 91.4324,34.4345 92.5,33.5C 93.1667,33.5 93.5,33.1667 93.5,32.5C 94.1667,32.5 94.8333,32.5 95.5,32.5C 96.2216,32.9175 96.7216,33.5842 97,34.5C 97.6667,37.1667 97.6667,39.8333 97,42.5C 94.7254,46.7324 92.2254,50.7324 89.5,54.5C 88.1667,55.1667 87.1667,56.1667 86.5,57.5C 85.5084,57.6716 84.8417,57.3382 84.5,56.5C 85.0138,54.6336 85.6805,52.8003 86.5,51C 85.0216,48.5413 83.6882,46.0413 82.5,43.5C 83.8086,42.376 84.4753,40.876 84.5,39C 83.9288,36.4564 83.2621,33.9564 82.5,31.5C 85.8355,28.8377 86.8355,25.5044 85.5,21.5C 86.3478,20.375 87.3478,20.375 88.5,21.5 Z"/></g>
<g><path style="opacity:1" fill="#1a96bc" d="M 73.5,41.5 C 74.625,42.6522 74.625,43.6522 73.5,44.5C 72.8333,44.1667 72.1667,43.8333 71.5,43.5C 68.8333,39.5 69.5,38.8333 73.5,41.5 Z"/></g>
<g><path style="opacity:1" fill="#c5294c" d="M 82.5,42.5 C 81.5,42.5 80.5,42.5 79.5,42.5C 79.5,40.8333 79.5,39.1667 79.5,37.5C 80.1515,36.9094 80.8182,36.2427 81.5,35.5C 82.4742,37.7427 82.8076,40.076 82.5,42.5 Z"/></g>
<g><path style="opacity:0.274" fill="#e0e2e0" d="M -0.5,-0.5 C -0.166667,-0.5 0.166667,-0.5 0.5,-0.5C 0.5,25.1667 0.5,50.8333 0.5,76.5C 0.166667,76.5 -0.166667,76.5 -0.5,76.5C -0.5,50.8333 -0.5,25.1667 -0.5,-0.5 Z"/></g>
<g><path style="opacity:1" fill="#2b2757" d="M 76.5,30.5 C 76.5,31.8333 76.5,33.1667 76.5,34.5C 75.1947,39.1377 75.528,43.8044 77.5,48.5C 75.8333,47.5 74.5,46.1667 73.5,44.5C 74.625,43.6522 74.625,42.6522 73.5,41.5C 73.5,39.1667 73.5,36.8333 73.5,34.5C 74.1667,34.5 74.5,34.1667 74.5,33.5C 74.427,31.9731 75.0937,30.9731 76.5,30.5 Z"/></g>
<g><path style="opacity:1" fill="#1d1459" d="M 76.5,34.5 C 77.1667,34.5 77.8333,34.5 78.5,34.5C 79.404,35.209 79.7373,36.209 79.5,37.5C 79.5,39.1667 79.5,40.8333 79.5,42.5C 80.5,42.5 81.5,42.5 82.5,42.5C 82.5,42.8333 82.5,43.1667 82.5,43.5C 83.6882,46.0413 85.0216,48.5413 86.5,51C 85.6805,52.8003 85.0138,54.6336 84.5,56.5C 83.4246,57.5624 82.4246,57.5624 81.5,56.5C 82.7515,54.9991 83.7515,53.3325 84.5,51.5C 83.7174,49.7118 82.3841,48.7118 80.5,48.5C 79.6091,46.3911 78.4424,44.3911 77,42.5C 76.5026,39.854 76.3359,37.1873 76.5,34.5 Z"/></g>
<g><path style="opacity:1" fill="#e00ca7" d="M 25.5,35.5 C 25.5,36.5 25.5,37.5 25.5,38.5C 28.5,38.5 31.5,38.5 34.5,38.5C 34.5,39.5 34.5,40.5 34.5,41.5C 32.1667,41.5 29.8333,41.5 27.5,41.5C 27.5,42.5 27.5,43.5 27.5,44.5C 30.0021,44.7495 32.5021,45.0828 35,45.5C 36.7866,45.2414 38.2866,44.5747 39.5,43.5C 41.575,48.4326 39.9083,50.4326 34.5,49.5C 31.1667,49.5 27.8333,49.5 24.5,49.5C 24.2606,47.5328 24.5939,45.6995 25.5,44C 24.9056,43.5357 24.2389,43.369 23.5,43.5C 22.9644,40.3019 23.631,37.6353 25.5,35.5 Z"/></g>
<g><path style="opacity:1" fill="#c2ced9" d="M 76.5,34.5 C 76.3359,37.1873 76.5026,39.854 77,42.5C 78.4424,44.3911 79.6091,46.3911 80.5,48.5C 81.355,49.5307 82.0217,50.6974 82.5,52C 81.2576,53.6512 80.4243,55.4845 80,57.5C 79.3131,55.4325 79.4798,53.4325 80.5,51.5C 79.8118,50.1451 78.8118,49.1451 77.5,48.5C 75.528,43.8044 75.1947,39.1377 76.5,34.5 Z"/></g>
<g><path style="opacity:1" fill="#2d274e" d="M 5.5,35.5 C 6.22967,37.045 7.563,37.8784 9.5,38C 13.7548,38.7961 17.9215,38.6295 22,37.5C 22.1909,39.7078 22.6909,41.7078 23.5,43.5C 24.2389,43.369 24.9056,43.5357 25.5,44C 24.5939,45.6995 24.2606,47.5328 24.5,49.5C 27.8333,49.5 31.1667,49.5 34.5,49.5C 32.5,50.1667 30.5,50.8333 28.5,51.5C 28.5,52.8333 28.5,54.1667 28.5,55.5C 29.791,55.2627 30.791,55.596 31.5,56.5C 24.9345,57.0546 18.6012,56.2213 12.5,54C 11.447,51.7538 10.1137,49.7538 8.5,48C 9.23348,46.2341 9.56681,44.4008 9.5,42.5C 3.62244,42.3426 2.28911,40.0092 5.5,35.5 Z"/></g>
<g><path style="opacity:1" fill="#5a7b84" d="M 65.5,44.5 C 65.2155,46.4147 65.5489,48.0813 66.5,49.5C 65.5592,51.0495 64.8925,52.7162 64.5,54.5C 63.596,53.791 63.2627,52.791 63.5,51.5C 64.0654,49.0479 64.7321,46.7146 65.5,44.5 Z"/></g>
<g><path style="opacity:1" fill="#f31c46" d="M 71.5,43.5 C 72.1667,43.8333 72.8333,44.1667 73.5,44.5C 74.5,46.1667 75.8333,47.5 77.5,48.5C 77.1075,50.2838 76.4408,51.9505 75.5,53.5C 74.8333,53.8333 74.1667,54.1667 73.5,54.5C 72.8333,54.5 72.1667,54.5 71.5,54.5C 70.9517,57.0838 69.285,58.0838 66.5,57.5C 64.9519,57.1788 64.2852,56.1788 64.5,54.5C 64.8925,52.7162 65.5592,51.0495 66.5,49.5C 66.5,49.1667 66.5,48.8333 66.5,48.5C 67.9473,47.3778 68.9473,45.8778 69.5,44C 70.0944,43.5357 70.7611,43.369 71.5,43.5 Z"/></g>
<g><path style="opacity:1" fill="#f7edeb" d="M 47.5,48.5 C 48.8195,49.9418 50.4862,50.6085 52.5,50.5C 52.5,51.5 52.5,52.5 52.5,53.5C 48.5,54.1667 46.8333,52.5 47.5,48.5 Z"/></g>
<g><path style="opacity:1" fill="#f8d318" d="M 71.5,54.5 C 70.6236,54.6309 69.9569,54.2975 69.5,53.5C 70.2132,51.2241 70.7132,48.8907 71,46.5C 72.8135,49.0782 72.9802,51.7449 71.5,54.5 Z"/></g>
<g><path style="opacity:1" fill="#e950d2" d="M 28.5,51.5 C 30.8762,53.1592 33.5429,54.4926 36.5,55.5C 37.9308,58.0387 39.5975,60.3721 41.5,62.5C 40.8333,62.5 40.1667,62.5 39.5,62.5C 36.0105,61.6872 33.3438,59.6872 31.5,56.5C 30.791,55.596 29.791,55.2627 28.5,55.5C 28.5,54.1667 28.5,52.8333 28.5,51.5 Z"/></g>
<g><path style="opacity:1" fill="#b50286" d="M 47.5,34.5 C 48.6378,37.3035 48.8045,40.3035 48,43.5C 46.9704,46.8709 45.4704,50.0375 43.5,53C 43.6448,53.772 43.9781,54.4387 44.5,55C 48.2358,55.703 51.5691,57.203 54.5,59.5C 54.5,60.5 54.5,61.5 54.5,62.5C 50.1667,62.5 45.8333,62.5 41.5,62.5C 39.5975,60.3721 37.9308,58.0387 36.5,55.5C 33.5429,54.4926 30.8762,53.1592 28.5,51.5C 30.5,50.8333 32.5,50.1667 34.5,49.5C 39.9083,50.4326 41.575,48.4326 39.5,43.5C 41.5044,42.9534 43.8377,42.1201 46.5,41C 47.3802,39.6439 47.7135,38.1439 47.5,36.5C 43.5,35.8333 43.5,35.1667 47.5,34.5 Z"/></g>
<g><path style="opacity:1" fill="#383665" d="M 59.5,43.5 C 59.8333,43.5 60.1667,43.5 60.5,43.5C 60.1568,45.4832 60.8235,46.8166 62.5,47.5C 61.4448,50.0728 61.2782,52.7395 62,55.5C 62.21,53.9419 62.71,52.6085 63.5,51.5C 63.2627,52.791 63.596,53.791 64.5,54.5C 64.2852,56.1788 64.9519,57.1788 66.5,57.5C 66.5,58.1667 66.1667,58.5 65.5,58.5C 63.8762,58.6399 62.7096,57.9733 62,56.5C 61.6667,56.8333 61.3333,57.1667 61,57.5C 60.1706,52.8627 59.6706,48.196 59.5,43.5 Z"/></g>
<g><path style="opacity:1" fill="#0d2166" d="M 77.5,58.5 C 77.3893,59.1174 77.056,59.6174 76.5,60C 73.9644,60.1862 71.631,60.6862 69.5,61.5C 68.209,61.7373 67.209,61.404 66.5,60.5C 69.8875,59.6519 72.2209,57.6519 73.5,54.5C 74.1667,54.1667 74.8333,53.8333 75.5,53.5C 76.4959,53.5858 77.3292,53.2524 78,52.5C 78.6776,54.5976 78.5109,56.5976 77.5,58.5 Z"/></g>
<g><path style="opacity:1" fill="#7d757d" d="M 59.5,43.5 C 59.6706,48.196 60.1706,52.8627 61,57.5C 61.3333,57.1667 61.6667,56.8333 62,56.5C 62.7096,57.9733 63.8762,58.6399 65.5,58.5C 64.1155,59.8009 62.6155,59.8009 61,58.5C 59.9614,59.2438 59.4614,60.2438 59.5,61.5C 58.7784,61.0825 58.2784,60.4158 58,59.5C 57.2748,61.1575 57.7748,62.1575 59.5,62.5C 59.6716,63.4916 59.3382,64.1583 58.5,64.5C 58.1667,64.5 57.8333,64.5 57.5,64.5C 57.1583,63.6618 56.4916,63.3284 55.5,63.5C 55.5,62.1667 55.5,60.8333 55.5,59.5C 57.4759,54.2631 58.8093,48.9297 59.5,43.5 Z"/></g>
<g><path style="opacity:1" fill="#322652" d="M 77.5,48.5 C 78.8118,49.1451 79.8118,50.1451 80.5,51.5C 79.4798,53.4325 79.3131,55.4325 80,57.5C 80.4243,55.4845 81.2576,53.6512 82.5,52C 82.0217,50.6974 81.355,49.5307 80.5,48.5C 82.3841,48.7118 83.7174,49.7118 84.5,51.5C 83.7515,53.3325 82.7515,54.9991 81.5,56.5C 82.4246,57.5624 83.4246,57.5624 84.5,56.5C 84.8417,57.3382 85.5084,57.6716 86.5,57.5C 85.1279,59.0887 83.4612,60.4221 81.5,61.5C 82.5202,63.4325 82.6869,65.4325 82,67.5C 80.02,68.7491 78.1867,70.0824 76.5,71.5C 74.5853,71.7845 72.9187,71.4511 71.5,70.5C 71.5,69.8333 71.5,69.1667 71.5,68.5C 74.1873,68.6641 76.854,68.4974 79.5,68C 77.9419,67.79 76.6085,67.29 75.5,66.5C 75.5,66.1667 75.5,65.8333 75.5,65.5C 81.5981,65.8261 82.2648,65.1595 77.5,63.5C 71.7024,64.1263 66.0357,64.793 60.5,65.5C 59.8333,65.5 59.1667,65.5 58.5,65.5C 58.5,65.1667 58.5,64.8333 58.5,64.5C 59.3382,64.1583 59.6716,63.4916 59.5,62.5C 63.6011,63.7908 67.6011,63.7908 71.5,62.5C 73.6074,61.5318 75.9407,61.1984 78.5,61.5C 78.7373,60.209 78.404,59.209 77.5,58.5C 78.5109,56.5976 78.6776,54.5976 78,52.5C 77.3292,53.2524 76.4959,53.5858 75.5,53.5C 76.4408,51.9505 77.1075,50.2838 77.5,48.5 Z"/></g>
<g><path style="opacity:1" fill="#b1b4c9" d="M 71.5,54.5 C 72.1667,54.5 72.8333,54.5 73.5,54.5C 72.2209,57.6519 69.8875,59.6519 66.5,60.5C 64.0971,60.448 61.7638,60.7814 59.5,61.5C 59.4614,60.2438 59.9614,59.2438 61,58.5C 62.6155,59.8009 64.1155,59.8009 65.5,58.5C 66.1667,58.5 66.5,58.1667 66.5,57.5C 69.285,58.0838 70.9517,57.0838 71.5,54.5 Z"/></g>
<g><path style="opacity:1" fill="#44aac3" d="M 77.5,58.5 C 78.404,59.209 78.7373,60.209 78.5,61.5C 75.9407,61.1984 73.6074,61.5318 71.5,62.5C 70.5084,62.6716 69.8417,62.3382 69.5,61.5C 71.631,60.6862 73.9644,60.1862 76.5,60C 77.056,59.6174 77.3893,59.1174 77.5,58.5 Z"/></g>
<g><path style="opacity:1" fill="#360f2f" d="M 54.5,59.5 C 54.8333,59.5 55.1667,59.5 55.5,59.5C 55.5,60.8333 55.5,62.1667 55.5,63.5C 52.6146,63.1936 49.9479,63.5269 47.5,64.5C 46.1667,64.5 44.8333,64.5 43.5,64.5C 42.8106,63.2264 41.9772,63.2264 41,64.5C 40.2828,63.9558 39.7828,63.2891 39.5,62.5C 40.1667,62.5 40.8333,62.5 41.5,62.5C 45.8333,62.5 50.1667,62.5 54.5,62.5C 54.5,61.5 54.5,60.5 54.5,59.5 Z"/></g>
<g><path style="opacity:1" fill="#1e486f" d="M 59.5,61.5 C 61.7638,60.7814 64.0971,60.448 66.5,60.5C 67.209,61.404 68.209,61.7373 69.5,61.5C 69.8417,62.3382 70.5084,62.6716 71.5,62.5C 67.6011,63.7908 63.6011,63.7908 59.5,62.5C 57.7748,62.1575 57.2748,61.1575 58,59.5C 58.2784,60.4158 58.7784,61.0825 59.5,61.5 Z"/></g>
<g><path style="opacity:0.749" fill="#dbe3e8" d="M 92.5,60.5 C 95.3614,61.237 96.3614,62.9037 95.5,65.5C 93.244,64.5791 92.244,62.9124 92.5,60.5 Z"/></g>
<g><path style="opacity:1" fill="#0d4e57" d="M 55.5,63.5 C 56.4916,63.3284 57.1583,63.6618 57.5,64.5C 55.2646,64.2053 53.2646,64.5386 51.5,65.5C 49.901,65.7678 48.5676,65.4345 47.5,64.5C 49.9479,63.5269 52.6146,63.1936 55.5,63.5 Z"/></g>
<g><path style="opacity:1" fill="#e20178" d="M 75.5,65.5 C 70.5,65.5 65.5,65.5 60.5,65.5C 66.0357,64.793 71.7024,64.1263 77.5,63.5C 82.2648,65.1595 81.5981,65.8261 75.5,65.5 Z"/></g>
<g><path style="opacity:1" fill="#08959f" d="M 57.5,64.5 C 57.8333,64.5 58.1667,64.5 58.5,64.5C 58.5,64.8333 58.5,65.1667 58.5,65.5C 56.3926,66.4682 54.0593,66.8016 51.5,66.5C 51.5,66.1667 51.5,65.8333 51.5,65.5C 53.2646,64.5386 55.2646,64.2053 57.5,64.5 Z"/></g>
<g><path style="opacity:1" fill="#54082e" d="M 58.5,65.5 C 59.1667,65.5 59.8333,65.5 60.5,65.5C 65.5,65.5 70.5,65.5 75.5,65.5C 75.5,65.8333 75.5,66.1667 75.5,66.5C 67.3163,66.9245 59.3163,66.9245 51.5,66.5C 54.0593,66.8016 56.3926,66.4682 58.5,65.5 Z"/></g>
<g><path style="opacity:1" fill="#567092" d="M 43.5,64.5 C 44.8333,64.5 46.1667,64.5 47.5,64.5C 48.5676,65.4345 49.901,65.7678 51.5,65.5C 51.5,65.8333 51.5,66.1667 51.5,66.5C 59.3163,66.9245 67.3163,66.9245 75.5,66.5C 76.6085,67.29 77.9419,67.79 79.5,68C 76.854,68.4974 74.1873,68.6641 71.5,68.5C 64.8333,69.1667 64.8333,69.8333 71.5,70.5C 72.9187,71.4511 74.5853,71.7845 76.5,71.5C 72.0189,72.6484 67.3522,72.8151 62.5,72C 57.0037,70.0299 51.337,68.6966 45.5,68C 44.0267,67.2904 43.3601,66.1238 43.5,64.5 Z"/></g>
<g><path style="opacity:1" fill="#e2ebf0" d="M 71.5,68.5 C 71.5,69.1667 71.5,69.8333 71.5,70.5C 64.8333,69.8333 64.8333,69.1667 71.5,68.5 Z"/></g>
</svg>
