<?xml version="1.0" encoding="UTF-8"?>
<!DOCTYPE svg PUBLIC "-//W3C//DTD SVG 1.1//EN" "http://www.w3.org/Graphics/SVG/1.1/DTD/svg11.dtd">
<svg xmlns="http://www.w3.org/2000/svg" version="1.1" width="100px" height="77px" style="shape-rendering:geometricPrecision; text-rendering:geometricPrecision; image-rendering:optimizeQuality; fill-rule:evenodd; clip-rule:evenodd" xmlns:xlink="http://www.w3.org/1999/xlink">
<g><path style="opacity:1" fill="#d0dad4" d="M 56.5,-0.5 C 59.5,-0.5 62.5,-0.5 65.5,-0.5C 71.3093,0.190295 76.1426,2.85696 80,7.5C 79.8333,10 79.6667,12.5 79.5,15C 80.7659,15.3095 81.9326,15.8095 83,16.5C 85.0285,13.9708 86.8619,11.3041 88.5,8.5C 92.1073,7.51078 95.774,7.17744 99.5,7.5C 99.5,8.16667 99.5,8.83333 99.5,9.5C 96.8872,8.56512 94.2205,8.39845 91.5,9C 88.428,11.8086 86.0947,15.1419 84.5,19C 88.449,22.2735 91.6157,26.1069 94,30.5C 94.6667,34.5 94.6667,38.5 94,42.5C 93.7216,43.4158 93.2216,44.0825 92.5,44.5C 93.9946,39.1138 93.828,33.7804 92,28.5C 88.5,25 85,21.5 81.5,18C 79.9751,16.9914 78.3084,16.4914 76.5,16.5C 76.5,16.1667 76.5,15.8333 76.5,15.5C 78.6037,12.997 78.9371,10.3303 77.5,7.5C 74.9653,4.41284 71.632,2.74617 67.5,2.5C 63.6992,1.28542 60.0326,1.28542 56.5,2.5C 52.2984,2.18325 48.2984,2.51658 44.5,3.5C 41.7198,4.19514 39.0531,5.19514 36.5,6.5C 33.8333,5.5 31.1667,4.5 28.5,3.5C 28.762,4.97782 28.4287,6.31116 27.5,7.5C 26.3777,6.36977 25.0443,5.70311 23.5,5.5C 20.7184,3.10567 17.885,3.10567 15,5.5C 14.0979,5.25675 13.2646,4.92342 12.5,4.5C 11.2436,4.09616 10.0769,3.42949 9,2.5C 7.97008,2.83611 7.47008,3.50278 7.5,4.5C 6.08209,6.30794 4.08209,6.97461 1.5,6.5C 1.26269,7.79105 1.59603,8.79105 2.5,9.5C 4.49994,12.5126 5.49994,15.846 5.5,19.5C 4.5,19.5 3.5,19.5 2.5,19.5C 2.26269,20.791 2.59603,21.791 3.5,22.5C 3.5,23.1667 3.5,23.8333 3.5,24.5C 3.83333,25.8333 4.16667,27.1667 4.5,28.5C 1.22238,25.6782 -0.110951,22.0115 0.5,17.5C 1.87344,17.6567 3.20677,17.49 4.5,17C 3.10078,14.2595 1.43412,11.7595 -0.5,9.5C -0.5,8.16667 -0.5,6.83333 -0.5,5.5C 1.19919,5.66018 2.86586,5.49351 4.5,5C 7.01503,-0.443058 10.3484,-0.943058 14.5,3.5C 19.022,1.88423 23.1886,2.5509 27,5.5C 27.4152,3.70906 28.4152,2.37573 30,1.5C 31.9734,2.63992 33.8067,3.97325 35.5,5.5C 42.0742,1.50302 49.0742,-0.496977 56.5,-0.5 Z"/></g>
<g><path style="opacity:1" fill="#5e2b2b" d="M 67.5,2.5 C 67.5,2.83333 67.5,3.16667 67.5,3.5C 65.8828,4.038 64.2161,4.37133 62.5,4.5C 61.8333,4.5 61.1667,4.5 60.5,4.5C 59.1667,4.5 57.8333,4.5 56.5,4.5C 56.5,4.16667 56.5,3.83333 56.5,3.5C 56.5,3.16667 56.5,2.83333 56.5,2.5C 60.0326,1.28542 63.6992,1.28542 67.5,2.5 Z"/></g>
<g><path style="opacity:1" fill="#b71444" d="M 12.5,4.5 C 12.38,5.58617 11.7133,6.25284 10.5,6.5C 9.26133,6.05758 8.26133,5.39092 7.5,4.5C 7.47008,3.50278 7.97008,2.83611 9,2.5C 10.0769,3.42949 11.2436,4.09616 12.5,4.5 Z"/></g>
<g><path style="opacity:1" fill="#343f76" d="M 44.5,3.5 C 46.288,3.21478 47.9547,3.54811 49.5,4.5C 45.2353,5.63539 41.2353,7.30206 37.5,9.5C 36.7025,9.04311 36.3691,8.37644 36.5,7.5C 36.5,7.16667 36.5,6.83333 36.5,6.5C 39.0531,5.19514 41.7198,4.19514 44.5,3.5 Z"/></g>
<g><path style="opacity:1" fill="#bc5e4b" d="M 34.5,8.5 C 35.3228,10.9872 36.3228,13.3206 37.5,15.5C 37.5,15.8333 37.5,16.1667 37.5,16.5C 37.631,17.2389 37.4643,17.9056 37,18.5C 35.2481,15.328 33.2481,12.328 31,9.5C 30.3333,8.16667 30.3333,6.83333 31,5.5C 32.0391,6.7101 33.2058,7.7101 34.5,8.5 Z"/></g>
<g><path style="opacity:1" fill="#ea1057" d="M 13.5,9.5 C 13.7373,10.791 13.404,11.791 12.5,12.5C 10.302,11.9329 7.96864,11.9329 5.5,12.5C 4.72813,11.3065 3.72813,10.3065 2.5,9.5C 3.1522,8.27493 4.31887,7.60826 6,7.5C 8.66487,7.66799 11.1649,8.33466 13.5,9.5 Z"/></g>
<g><path style="opacity:1" fill="#3b273f" d="M 23.5,5.5 C 22.0222,5.23798 20.6888,5.57131 19.5,6.5C 28.6719,12.6673 35.6719,20.6673 40.5,30.5C 40.5,30.8333 40.5,31.1667 40.5,31.5C 35.452,24.2732 29.7853,17.4399 23.5,11C 20.9217,9.33527 18.2551,8.33527 15.5,8C 19.0591,10.598 18.3924,11.098 13.5,9.5C 11.1649,8.33466 8.66487,7.66799 6,7.5C 4.31887,7.60826 3.1522,8.27493 2.5,9.5C 1.59603,8.79105 1.26269,7.79105 1.5,6.5C 4.08209,6.97461 6.08209,6.30794 7.5,4.5C 8.26133,5.39092 9.26133,6.05758 10.5,6.5C 11.7133,6.25284 12.38,5.58617 12.5,4.5C 13.2646,4.92342 14.0979,5.25675 15,5.5C 17.885,3.10567 20.7184,3.10567 23.5,5.5 Z"/></g>
<g><path style="opacity:1" fill="#472a3d" d="M 36.5,6.5 C 36.5,6.83333 36.5,7.16667 36.5,7.5C 35.5084,7.32842 34.8417,7.66175 34.5,8.5C 33.2058,7.7101 32.0391,6.7101 31,5.5C 30.3333,6.83333 30.3333,8.16667 31,9.5C 33.2481,12.328 35.2481,15.328 37,18.5C 37.4643,17.9056 37.631,17.2389 37.5,16.5C 39.2227,18.78 39.8893,21.4467 39.5,24.5C 37.1084,21.4022 34.9417,18.0689 33,14.5C 29.9377,11.2678 26.771,8.26781 23.5,5.5C 25.0443,5.70311 26.3777,6.36977 27.5,7.5C 28.4287,6.31116 28.762,4.97782 28.5,3.5C 31.1667,4.5 33.8333,5.5 36.5,6.5 Z"/></g>
<g><path style="opacity:1" fill="#221741" d="M 44.5,3.5 C 48.2984,2.51658 52.2984,2.18325 56.5,2.5C 56.5,2.83333 56.5,3.16667 56.5,3.5C 53.9108,4.41938 51.9108,6.08605 50.5,8.5C 50.1667,8.5 49.8333,8.5 49.5,8.5C 46.0987,6.66287 43.7654,7.66287 42.5,11.5C 45.7844,12.657 49.1177,12.8236 52.5,12C 51.2625,11.7679 50.2625,11.2679 49.5,10.5C 51.8333,10.5 54.1667,10.5 56.5,10.5C 56.5,10.1667 56.5,9.83333 56.5,9.5C 60.1667,9.5 63.8333,9.5 67.5,9.5C 67.5,7.5 67.5,5.5 67.5,3.5C 67.5,3.16667 67.5,2.83333 67.5,2.5C 71.632,2.74617 74.9653,4.41284 77.5,7.5C 78.9371,10.3303 78.6037,12.997 76.5,15.5C 68.5,15.5 60.5,15.5 52.5,15.5C 48.5726,13.7781 44.2392,12.7781 39.5,12.5C 38.5748,13.3569 37.9081,14.3569 37.5,15.5C 36.3228,13.3206 35.3228,10.9872 34.5,8.5C 34.8417,7.66175 35.5084,7.32842 36.5,7.5C 36.3691,8.37644 36.7025,9.04311 37.5,9.5C 41.2353,7.30206 45.2353,5.63539 49.5,4.5C 47.9547,3.54811 46.288,3.21478 44.5,3.5 Z"/></g>
<g><path style="opacity:1" fill="#5b4f8c" d="M 56.5,10.5 C 61.5658,10.3399 66.5658,10.8399 71.5,12C 69,12.1667 66.5,12.3333 64,12.5C 61.0706,12.4752 58.5706,11.8086 56.5,10.5 Z"/></g>
<g><path style="opacity:0.645" fill="#c0d4c7" d="M 49.5,8.5 C 49.5,9.16667 49.5,9.83333 49.5,10.5C 50.2625,11.2679 51.2625,11.7679 52.5,12C 49.1177,12.8236 45.7844,12.657 42.5,11.5C 43.7654,7.66287 46.0987,6.66287 49.5,8.5 Z"/></g>
<g><path style="opacity:1" fill="#7a420f" d="M 49.5,8.5 C 49.8333,8.5 50.1667,8.5 50.5,8.5C 50.8417,9.33825 51.5084,9.67158 52.5,9.5C 53.8333,9.5 55.1667,9.5 56.5,9.5C 56.5,9.83333 56.5,10.1667 56.5,10.5C 54.1667,10.5 51.8333,10.5 49.5,10.5C 49.5,9.83333 49.5,9.16667 49.5,8.5 Z"/></g>
<g><path style="opacity:1" fill="#b61b40" d="M 77.5,7.5 C 76.6661,8.7479 75.3328,9.41456 73.5,9.5C 72.1667,9.16667 70.8333,8.83333 69.5,8.5C 72.0865,7.51998 74.7531,7.18665 77.5,7.5 Z"/></g>
<g><path style="opacity:1" fill="#df7717" d="M 56.5,3.5 C 56.5,3.83333 56.5,4.16667 56.5,4.5C 54.4131,5.58457 53.0798,7.25124 52.5,9.5C 51.5084,9.67158 50.8417,9.33825 50.5,8.5C 51.9108,6.08605 53.9108,4.41938 56.5,3.5 Z"/></g>
<g><path style="opacity:1" fill="#e25820" d="M 67.5,3.5 C 67.5,5.5 67.5,7.5 67.5,9.5C 63.8333,9.5 60.1667,9.5 56.5,9.5C 56.5,7.83333 56.5,6.16667 56.5,4.5C 57.8333,4.5 59.1667,4.5 60.5,4.5C 61.1667,9.83333 61.8333,9.83333 62.5,4.5C 64.2161,4.37133 65.8828,4.038 67.5,3.5 Z"/></g>
<g><path style="opacity:1" fill="#f4db48" d="M 60.5,4.5 C 61.1667,4.5 61.8333,4.5 62.5,4.5C 61.8333,9.83333 61.1667,9.83333 60.5,4.5 Z"/></g>
<g><path style="opacity:1" fill="#fee01a" d="M 56.5,4.5 C 56.5,6.16667 56.5,7.83333 56.5,9.5C 55.1667,9.5 53.8333,9.5 52.5,9.5C 53.0798,7.25124 54.4131,5.58457 56.5,4.5 Z"/></g>
<g><path style="opacity:1" fill="#e14c6a" d="M 12.5,12.5 C 12.5,13.1667 12.5,13.8333 12.5,14.5C 12.5774,15.7498 13.244,16.5831 14.5,17C 12.0684,18.0875 12.4017,18.5875 15.5,18.5C 13.0688,19.7409 13.0688,20.9076 15.5,22C 13.1009,22.711 10.7676,22.5443 8.5,21.5C 8.16667,21.8333 7.83333,22.1667 7.5,22.5C 8.24269,23.1818 8.90935,23.8485 9.5,24.5C 6.20269,24.3287 5.86935,24.9954 8.5,26.5C 9.24585,27.7362 9.57918,29.0695 9.5,30.5C 7.86058,28.1939 5.86058,26.1939 3.5,24.5C 3.5,23.8333 3.5,23.1667 3.5,22.5C 4.33507,21.0568 5.6684,20.0568 7.5,19.5C 6.82982,17.1369 6.16315,14.8036 5.5,12.5C 7.96864,11.9329 10.302,11.9329 12.5,12.5 Z"/></g>
<g><path style="opacity:1" fill="#bf634d" d="M 23.5,5.5 C 26.771,8.26781 29.9377,11.2678 33,14.5C 34.9417,18.0689 37.1084,21.4022 39.5,24.5C 43.1462,31.1449 48.1462,36.4782 54.5,40.5C 53.5,40.5 52.5,40.5 51.5,40.5C 47.8592,37.1951 44.1925,33.8617 40.5,30.5C 35.6719,20.6673 28.6719,12.6673 19.5,6.5C 20.6888,5.57131 22.0222,5.23798 23.5,5.5 Z"/></g>
<g><path style="opacity:1" fill="#a23546" d="M 52.5,16.5 C 55.1873,16.3359 57.854,16.5026 60.5,17C 58.6183,17.1981 56.9516,17.6981 55.5,18.5C 55.3677,21.5701 55.701,24.5701 56.5,27.5C 52.6001,26.0127 49.2667,26.6794 46.5,29.5C 40.8181,24.8624 41.3181,20.8624 48,17.5C 49.4397,16.8524 50.9397,16.5191 52.5,16.5 Z"/></g>
<g><path style="opacity:1" fill="#2e2035" d="M 2.5,9.5 C 3.72813,10.3065 4.72813,11.3065 5.5,12.5C 6.16315,14.8036 6.82982,17.1369 7.5,19.5C 5.6684,20.0568 4.33507,21.0568 3.5,22.5C 2.59603,21.791 2.26269,20.791 2.5,19.5C 3.5,19.5 4.5,19.5 5.5,19.5C 5.49994,15.846 4.49994,12.5126 2.5,9.5 Z"/></g>
<g><path style="opacity:0.937" fill="#b6d4d8" d="M 65.5,19.5 C 66.1667,19.8333 66.8333,20.1667 67.5,20.5C 67.6716,21.4916 67.3382,22.1583 66.5,22.5C 64.2971,21.9484 63.4638,20.6151 64,18.5C 64.3826,19.056 64.8826,19.3893 65.5,19.5 Z"/></g>
<g><path style="opacity:1" fill="#722142" d="M 52.5,16.5 C 52.5,16.1667 52.5,15.8333 52.5,15.5C 60.5,15.5 68.5,15.5 76.5,15.5C 76.5,15.8333 76.5,16.1667 76.5,16.5C 72.2984,16.1832 68.2984,16.5166 64.5,17.5C 60.8661,17.1565 59.1995,18.8232 59.5,22.5C 59.7144,26.38 61.7144,28.7134 65.5,29.5C 65.5,29.8333 65.5,30.1667 65.5,30.5C 63.8997,31.252 62.3997,32.252 61,33.5C 60.0053,32.9341 59.172,32.2674 58.5,31.5C 60.9701,30.6397 61.1368,29.3064 59,27.5C 58.502,24.5184 58.3354,21.5184 58.5,18.5C 57.5,18.5 56.5,18.5 55.5,18.5C 56.9516,17.6981 58.6183,17.1981 60.5,17C 57.854,16.5026 55.1873,16.3359 52.5,16.5 Z"/></g>
<g><path style="opacity:1" fill="#c74458" d="M 85.5,31.5 C 82.7097,28.2409 79.7097,27.9075 76.5,30.5C 77.8333,34.1667 77.8333,37.8333 76.5,41.5C 75.6906,40.5313 74.6906,39.6979 73.5,39C 70.1832,38.5017 66.8499,38.335 63.5,38.5C 63.0825,37.7784 62.4158,37.2784 61.5,37C 64.0024,34.788 67.0024,33.9547 70.5,34.5C 70.1817,30.5603 70.1817,26.7269 70.5,23C 70.2517,21.2509 69.2517,20.4176 67.5,20.5C 67.5858,19.5041 67.2524,18.6708 66.5,18C 74.1805,19.298 81.1805,22.4646 87.5,27.5C 86.3698,28.6223 85.7031,29.9557 85.5,31.5 Z"/></g>
<g><path style="opacity:1" fill="#e37e7b" d="M 9.5,24.5 C 10.8333,24.5 12.1667,24.5 13.5,24.5C 13.5,26.5 13.5,28.5 13.5,30.5C 12.1667,30.5 10.8333,30.5 9.5,30.5C 9.57918,29.0695 9.24585,27.7362 8.5,26.5C 5.86935,24.9954 6.20269,24.3287 9.5,24.5 Z"/></g>
<g><path style="opacity:1" fill="#f7d3b4" d="M 24.5,21.5 C 25.2463,25.759 26.7463,29.759 29,33.5C 30.4659,38.7348 28.9659,42.9015 24.5,46C 23.2575,46.3114 22.2575,45.8114 21.5,44.5C 20.2612,46.0072 20.5946,47.1739 22.5,48C 27.6948,47.5998 27.6948,48.4332 22.5,50.5C 18.7744,48.4293 18.6077,49.096 22,52.5C 23.5994,50.9644 25.4328,50.4644 27.5,51C 27.1459,52.6255 27.1459,54.4588 27.5,56.5C 21.2371,54.5698 16.9038,50.5698 14.5,44.5C 16.4759,43.5729 16.8092,42.2395 15.5,40.5C 14.5748,41.3569 13.9081,42.3569 13.5,43.5C 12.7777,42.4489 11.7777,41.7822 10.5,41.5C 10.1075,39.7162 9.4408,38.0495 8.5,36.5C 9.40397,35.791 9.73731,34.791 9.5,33.5C 10.8734,33.6567 12.2068,33.49 13.5,33C 11.6803,32.7996 10.347,31.9663 9.5,30.5C 10.8333,30.5 12.1667,30.5 13.5,30.5C 13.5,28.5 13.5,26.5 13.5,24.5C 12.1667,24.5 10.8333,24.5 9.5,24.5C 8.90935,23.8485 8.24269,23.1818 7.5,22.5C 7.83333,22.1667 8.16667,21.8333 8.5,21.5C 10.7676,22.5443 13.1009,22.711 15.5,22C 13.0688,20.9076 13.0688,19.7409 15.5,18.5C 15.7496,17.0779 16.583,16.0779 18,15.5C 19.1096,17.0368 20.6096,17.7035 22.5,17.5C 22.0791,19.9099 20.7458,21.7432 18.5,23C 20.8401,23.7484 22.8401,23.2484 24.5,21.5 Z"/></g>
<g><path style="opacity:1" fill="#141034" d="M 64.5,17.5 C 65.3382,17.8417 65.6716,18.5084 65.5,19.5C 64.8826,19.3893 64.3826,19.056 64,18.5C 63.4638,20.6151 64.2971,21.9484 66.5,22.5C 66.5,23.1667 66.5,23.8333 66.5,24.5C 65.5489,25.9187 65.2155,27.5853 65.5,29.5C 61.7144,28.7134 59.7144,26.38 59.5,22.5C 59.1995,18.8232 60.8661,17.1565 64.5,17.5 Z"/></g>
<g><path style="opacity:1" fill="#6d7a9b" d="M 66.5,24.5 C 67.1471,25.2739 67.4805,26.2739 67.5,27.5C 67.3601,29.0296 66.6935,30.0296 65.5,30.5C 65.5,30.1667 65.5,29.8333 65.5,29.5C 65.2155,27.5853 65.5489,25.9187 66.5,24.5 Z"/></g>
<g><path style="opacity:1" fill="#a3334a" d="M 64.5,17.5 C 68.2984,16.5166 72.2984,16.1832 76.5,16.5C 78.3084,16.4914 79.9751,16.9914 81.5,18C 85,21.5 88.5,25 92,28.5C 93.828,33.7804 93.9946,39.1138 92.5,44.5C 88.8333,47.5 85.5,50.8333 82.5,54.5C 82.5,55.1667 82.1667,55.5 81.5,55.5C 81.1667,55.5 80.8333,55.5 80.5,55.5C 79.5028,55.5299 78.8361,55.0299 78.5,54C 79.3223,51.5661 79.6556,49.0661 79.5,46.5C 80.2216,46.9175 80.7216,47.5842 81,48.5C 82.4194,47.5399 83.9194,46.7065 85.5,46C 86.3366,44.9887 86.67,43.8221 86.5,42.5C 87.3764,42.6309 88.0431,42.2975 88.5,41.5C 87.0473,38.5753 86.0473,35.5753 85.5,32.5C 85.5,32.1667 85.5,31.8333 85.5,31.5C 85.7031,29.9557 86.3698,28.6223 87.5,27.5C 81.1805,22.4646 74.1805,19.298 66.5,18C 67.2524,18.6708 67.5858,19.5041 67.5,20.5C 66.8333,20.1667 66.1667,19.8333 65.5,19.5C 65.6716,18.5084 65.3382,17.8417 64.5,17.5 Z"/></g>
<g><path style="opacity:1" fill="#be4156" d="M 67.5,20.5 C 69.2517,20.4176 70.2517,21.2509 70.5,23C 70.1817,26.7269 70.1817,30.5603 70.5,34.5C 67.0024,33.9547 64.0024,34.788 61.5,37C 62.4158,37.2784 63.0825,37.7784 63.5,38.5C 55.845,39.5594 50.1783,36.5594 46.5,29.5C 49.2667,26.6794 52.6001,26.0127 56.5,27.5C 57.3446,28.6715 58.0113,30.0048 58.5,31.5C 59.172,32.2674 60.0053,32.9341 61,33.5C 62.3997,32.252 63.8997,31.252 65.5,30.5C 66.6935,30.0296 67.3601,29.0296 67.5,27.5C 67.4805,26.2739 67.1471,25.2739 66.5,24.5C 66.5,23.8333 66.5,23.1667 66.5,22.5C 67.3382,22.1583 67.6716,21.4916 67.5,20.5 Z"/></g>
<g><path style="opacity:1" fill="#1d0f3f" d="M 55.5,18.5 C 56.5,18.5 57.5,18.5 58.5,18.5C 58.3354,21.5184 58.502,24.5184 59,27.5C 61.1368,29.3064 60.9701,30.6397 58.5,31.5C 58.0113,30.0048 57.3446,28.6715 56.5,27.5C 55.701,24.5701 55.3677,21.5701 55.5,18.5 Z"/></g>
<g><path style="opacity:1" fill="#da8471" d="M 35.5,34.5 C 35.8016,37.0593 35.4682,39.3926 34.5,41.5C 34.6602,39.8008 34.4935,38.1341 34,36.5C 33.4646,38.2705 32.6313,38.6039 31.5,37.5C 31.9937,34.4498 31.3271,31.4498 29.5,28.5C 29.7093,27.914 30.0426,27.414 30.5,27C 28.8052,24.7128 26.8052,22.8794 24.5,21.5C 22.8401,23.2484 20.8401,23.7484 18.5,23C 20.7458,21.7432 22.0791,19.9099 22.5,17.5C 20.6096,17.7035 19.1096,17.0368 18,15.5C 16.583,16.0779 15.7496,17.0779 15.5,18.5C 12.4017,18.5875 12.0684,18.0875 14.5,17C 13.244,16.5831 12.5774,15.7498 12.5,14.5C 14.9418,14.8808 15.6085,14.2141 14.5,12.5C 15.1667,12.1667 15.8333,11.8333 16.5,11.5C 26.1136,16.4478 32.4469,24.1144 35.5,34.5 Z"/></g>
<g><path style="opacity:1" fill="#54495d" d="M 3.5,24.5 C 5.86058,26.1939 7.86058,28.1939 9.5,30.5C 10.347,31.9663 11.6803,32.7996 13.5,33C 12.2068,33.49 10.8734,33.6567 9.5,33.5C 4.52164,33.1471 4.18831,34.1471 8.5,36.5C 9.4408,38.0495 10.1075,39.7162 10.5,41.5C 9.5,40.8333 8.5,40.1667 7.5,39.5C 6.741,37.5642 5.741,35.7309 4.5,34C 7.12749,31.9843 7.12749,30.1509 4.5,28.5C 4.16667,27.1667 3.83333,25.8333 3.5,24.5 Z"/></g>
<g><path style="opacity:1" fill="#bb5951" d="M 40.5,31.5 C 40.7451,37.084 40.0784,42.4174 38.5,47.5C 38.5752,42.8081 37.5752,38.4748 35.5,34.5C 32.4469,24.1144 26.1136,16.4478 16.5,11.5C 15.8333,11.8333 15.1667,12.1667 14.5,12.5C 15.6085,14.2141 14.9418,14.8808 12.5,14.5C 12.5,13.8333 12.5,13.1667 12.5,12.5C 13.404,11.791 13.7373,10.791 13.5,9.5C 18.3924,11.098 19.0591,10.598 15.5,8C 18.2551,8.33527 20.9217,9.33527 23.5,11C 29.7853,17.4399 35.452,24.2732 40.5,31.5 Z"/></g>
<g><path style="opacity:1" fill="#42153a" d="M 89.5,31.5 C 90.7647,32.5145 91.4313,34.0145 91.5,36C 91.1667,37.5 90.8333,39 90.5,40.5C 89.5159,37.5719 89.1826,34.5719 89.5,31.5 Z"/></g>
<g><path style="opacity:1" fill="#1d0d41" d="M 52.5,15.5 C 52.5,15.8333 52.5,16.1667 52.5,16.5C 50.9397,16.5191 49.4397,16.8524 48,17.5C 41.3181,20.8624 40.8181,24.8624 46.5,29.5C 50.1783,36.5594 55.845,39.5594 63.5,38.5C 66.8499,38.335 70.1832,38.5017 73.5,39C 74.6906,39.6979 75.6906,40.5313 76.5,41.5C 76.6427,43.2624 76.3094,44.9291 75.5,46.5C 76.4147,47.3279 77.0814,48.3279 77.5,49.5C 77.0711,52.0288 76.4045,54.3621 75.5,56.5C 75.3279,52.466 74.8279,48.466 74,44.5C 72.9609,43.2899 71.7942,42.2899 70.5,41.5C 65.6069,40.738 61.2736,41.738 57.5,44.5C 57.5,43.1667 57.5,41.8333 57.5,40.5C 56.5,40.5 55.5,40.5 54.5,40.5C 48.1462,36.4782 43.1462,31.1449 39.5,24.5C 39.8893,21.4467 39.2227,18.78 37.5,16.5C 37.5,16.1667 37.5,15.8333 37.5,15.5C 37.9081,14.3569 38.5748,13.3569 39.5,12.5C 44.2392,12.7781 48.5726,13.7781 52.5,15.5 Z"/></g>
<g><path style="opacity:0.957" fill="#deede2" d="M 4.5,28.5 C 7.12749,30.1509 7.12749,31.9843 4.5,34C 5.741,35.7309 6.741,37.5642 7.5,39.5C 5.31709,38.1498 3.65042,36.3164 2.5,34C 2.81978,32.3468 3.81978,31.3468 5.5,31C 4.74756,30.3292 4.41423,29.4959 4.5,28.5 Z"/></g>
<g><path style="opacity:1" fill="#dc4568" d="M 9.5,33.5 C 9.73731,34.791 9.40397,35.791 8.5,36.5C 4.18831,34.1471 4.52164,33.1471 9.5,33.5 Z"/></g>
<g><path style="opacity:1" fill="#dd8252" d="M 20.5,38.5 C 22.4302,39.0358 24.5969,39.0358 27,38.5C 27.557,40.5859 26.7236,41.9193 24.5,42.5C 22.7844,41.4513 21.4511,40.118 20.5,38.5 Z"/></g>
<g><path style="opacity:1" fill="#df8f79" d="M 24.5,21.5 C 26.8052,22.8794 28.8052,24.7128 30.5,27C 30.0426,27.414 29.7093,27.914 29.5,28.5C 31.3271,31.4498 31.9937,34.4498 31.5,37.5C 32.6313,38.6039 33.4646,38.2705 34,36.5C 34.4935,38.1341 34.6602,39.8008 34.5,41.5C 32.3215,47.0292 30.9882,52.6959 30.5,58.5C 29.5,57.8333 28.5,57.1667 27.5,56.5C 27.1459,54.4588 27.1459,52.6255 27.5,51C 25.4328,50.4644 23.5994,50.9644 22,52.5C 18.6077,49.096 18.7744,48.4293 22.5,50.5C 27.6948,48.4332 27.6948,47.5998 22.5,48C 20.5946,47.1739 20.2612,46.0072 21.5,44.5C 22.2575,45.8114 23.2575,46.3114 24.5,46C 28.9659,42.9015 30.4659,38.7348 29,33.5C 26.7463,29.759 25.2463,25.759 24.5,21.5 Z"/></g>
<g><path style="opacity:0.231" fill="#e1eee6" d="M 7.5,39.5 C 8.5,40.1667 9.5,40.8333 10.5,41.5C 11.9131,44.6612 13.5797,47.6612 15.5,50.5C 12.0669,47.3988 9.40019,43.7321 7.5,39.5 Z"/></g>
<g><path style="opacity:1" fill="#bf4156" d="M 85.5,31.5 C 85.5,31.8333 85.5,32.1667 85.5,32.5C 84.251,35.9434 84.5843,39.2768 86.5,42.5C 86.67,43.8221 86.3366,44.9887 85.5,46C 83.9194,46.7065 82.4194,47.5399 81,48.5C 80.7216,47.5842 80.2216,46.9175 79.5,46.5C 78.4749,45.6261 77.8082,44.4595 77.5,43C 80.3986,39.1539 81.0652,34.9873 79.5,30.5C 78.5,30.5 77.5,30.5 76.5,30.5C 79.7097,27.9075 82.7097,28.2409 85.5,31.5 Z"/></g>
<g><path style="opacity:1" fill="#441746" d="M 85.5,32.5 C 86.0473,35.5753 87.0473,38.5753 88.5,41.5C 88.0431,42.2975 87.3764,42.6309 86.5,42.5C 84.5843,39.2768 84.251,35.9434 85.5,32.5 Z"/></g>
<g><path style="opacity:1" fill="#60789f" d="M 70.5,41.5 C 68.7564,42.8677 67.0898,44.3677 65.5,46C 66.1006,48.6372 67.7673,49.8039 70.5,49.5C 70.6427,51.2624 70.3094,52.9291 69.5,54.5C 67.2054,55.1355 65.5387,56.4689 64.5,58.5C 64.7093,59.086 65.0426,59.586 65.5,60C 62.5184,60.498 59.5184,60.6646 56.5,60.5C 55.7095,59.5987 54.7095,58.9321 53.5,58.5C 53.335,55.1501 53.5017,51.8168 54,48.5C 55.6268,47.4677 56.7934,46.1344 57.5,44.5C 61.2736,41.738 65.6069,40.738 70.5,41.5 Z"/></g>
<g><path style="opacity:1" fill="#ca644b" d="M 14.5,44.5 C 13.8333,44.5 13.5,44.1667 13.5,43.5C 13.9081,42.3569 14.5748,41.3569 15.5,40.5C 16.8092,42.2395 16.4759,43.5729 14.5,44.5 Z"/></g>
<g><path style="opacity:1" fill="#c15d51" d="M 35.5,34.5 C 37.5752,38.4748 38.5752,42.8081 38.5,47.5C 37.9834,51.2217 37.15,54.8883 36,58.5C 34.3005,59.4061 32.4672,59.7394 30.5,59.5C 30.5,59.1667 30.5,58.8333 30.5,58.5C 30.9882,52.6959 32.3215,47.0292 34.5,41.5C 35.4682,39.3926 35.8016,37.0593 35.5,34.5 Z"/></g>
<g><path style="opacity:1" fill="#505a62" d="M 10.5,41.5 C 11.7777,41.7822 12.7777,42.4489 13.5,43.5C 13.5,44.1667 13.8333,44.5 14.5,44.5C 16.9038,50.5698 21.2371,54.5698 27.5,56.5C 28.5,57.1667 29.5,57.8333 30.5,58.5C 30.5,58.8333 30.5,59.1667 30.5,59.5C 30.5,59.8333 30.5,60.1667 30.5,60.5C 30.1667,60.5 29.8333,60.5 29.5,60.5C 24.5189,57.6698 19.8523,54.3365 15.5,50.5C 13.5797,47.6612 11.9131,44.6612 10.5,41.5 Z"/></g>
<g><path style="opacity:1" fill="#ad3a4a" d="M 51.5,40.5 C 52.5738,42.284 54.2404,43.4506 56.5,44C 55.3333,45.1667 54.1667,46.3333 53,47.5C 52.8236,50.8818 52.3236,54.2152 51.5,57.5C 48.4002,55.9794 45.4002,54.3127 42.5,52.5C 42.0766,51.7354 41.7432,50.9021 41.5,50C 42.2595,44.8717 42.7595,39.705 43,34.5C 45.2072,37.564 48.0406,39.564 51.5,40.5 Z"/></g>
<g><path style="opacity:1" fill="#4a4073" d="M 70.5,41.5 C 71.7942,42.2899 72.9609,43.2899 74,44.5C 74.8279,48.466 75.3279,52.466 75.5,56.5C 74.4802,58.352 72.9802,59.6853 71,60.5C 66.3108,61.5082 61.4775,61.5082 56.5,60.5C 59.5184,60.6646 62.5184,60.498 65.5,60C 65.0426,59.586 64.7093,59.086 64.5,58.5C 65.5387,56.4689 67.2054,55.1355 69.5,54.5C 70.3094,52.9291 70.6427,51.2624 70.5,49.5C 67.7673,49.8039 66.1006,48.6372 65.5,46C 67.0898,44.3677 68.7564,42.8677 70.5,41.5 Z"/></g>
<g><path style="opacity:0.078" fill="#e1eee6" d="M 15.5,50.5 C 19.8523,54.3365 24.5189,57.6698 29.5,60.5C 25.8133,59.824 22.4799,58.324 19.5,56C 17.5359,54.549 16.2026,52.7157 15.5,50.5 Z"/></g>
<g><path style="opacity:1" fill="#1c0f37" d="M 76.5,30.5 C 77.5,30.5 78.5,30.5 79.5,30.5C 81.0652,34.9873 80.3986,39.1539 77.5,43C 77.8082,44.4595 78.4749,45.6261 79.5,46.5C 79.6556,49.0661 79.3223,51.5661 78.5,54C 78.8361,55.0299 79.5028,55.5299 80.5,55.5C 79.6016,56.1577 78.6016,56.8243 77.5,57.5C 78.7828,60.6346 78.7828,63.6346 77.5,66.5C 76.5,66.5 75.5,66.5 74.5,66.5C 75.209,65.596 76.209,65.2627 77.5,65.5C 77.5,64.5 77.5,63.5 77.5,62.5C 68.9832,62.1739 60.6499,62.5073 52.5,63.5C 51.5,63.5 50.5,63.5 49.5,63.5C 49.5,63.1667 49.5,62.8333 49.5,62.5C 51.1336,61.4188 52.467,60.0855 53.5,58.5C 54.7095,58.9321 55.7095,59.5987 56.5,60.5C 61.4775,61.5082 66.3108,61.5082 71,60.5C 72.9802,59.6853 74.4802,58.352 75.5,56.5C 76.4045,54.3621 77.0711,52.0288 77.5,49.5C 77.0814,48.3279 76.4147,47.3279 75.5,46.5C 76.3094,44.9291 76.6427,43.2624 76.5,41.5C 77.8333,37.8333 77.8333,34.1667 76.5,30.5 Z"/></g>
<g><path style="opacity:0.059" fill="#e3dadf" d="M 92.5,44.5 C 90.512,49.1116 87.1787,52.4449 82.5,54.5C 85.5,50.8333 88.8333,47.5 92.5,44.5 Z"/></g>
<g><path style="opacity:1" fill="#422d54" d="M 51.5,40.5 C 52.5,40.5 53.5,40.5 54.5,40.5C 55.5,40.5 56.5,40.5 57.5,40.5C 57.5,41.8333 57.5,43.1667 57.5,44.5C 56.7934,46.1344 55.6268,47.4677 54,48.5C 53.5017,51.8168 53.335,55.1501 53.5,58.5C 52.467,60.0855 51.1336,61.4188 49.5,62.5C 49.5,61.5 49.5,60.5 49.5,59.5C 49.1211,58.2759 46.4544,57.9426 41.5,58.5C 41.3253,56.3792 41.6586,54.3792 42.5,52.5C 45.4002,54.3127 48.4002,55.9794 51.5,57.5C 52.3236,54.2152 52.8236,50.8818 53,47.5C 54.1667,46.3333 55.3333,45.1667 56.5,44C 54.2404,43.4506 52.5738,42.284 51.5,40.5 Z"/></g>
<g><path style="opacity:1" fill="#16103e" d="M 40.5,30.5 C 44.1925,33.8617 47.8592,37.1951 51.5,40.5C 48.0406,39.564 45.2072,37.564 43,34.5C 42.7595,39.705 42.2595,44.8717 41.5,50C 41.7432,50.9021 42.0766,51.7354 42.5,52.5C 41.6586,54.3792 41.3253,56.3792 41.5,58.5C 40.5655,59.5676 40.2322,60.901 40.5,62.5C 41.5,62.5 42.5,62.5 43.5,62.5C 44.0306,65.7794 46.0306,67.1128 49.5,66.5C 51.7014,67.5664 54.0347,68.233 56.5,68.5C 56.5,68.8333 56.5,69.1667 56.5,69.5C 54.7376,69.6427 53.0709,69.3094 51.5,68.5C 50.6143,69.325 50.281,70.325 50.5,71.5C 50.1667,71.5 49.8333,71.5 49.5,71.5C 49.5,70.5 49.5,69.5 49.5,68.5C 44.2374,67.7032 39.5707,65.5365 35.5,62C 34.0715,61.4209 32.7382,61.5876 31.5,62.5C 31.6716,61.5084 31.3382,60.8417 30.5,60.5C 30.5,60.1667 30.5,59.8333 30.5,59.5C 32.4672,59.7394 34.3005,59.4061 36,58.5C 37.15,54.8883 37.9834,51.2217 38.5,47.5C 40.0784,42.4174 40.7451,37.084 40.5,31.5C 40.5,31.1667 40.5,30.8333 40.5,30.5 Z"/></g>
<g><path style="opacity:1" fill="#9e0a81" d="M 52.5,63.5 C 60.6499,62.5073 68.9832,62.1739 77.5,62.5C 77.5,63.5 77.5,64.5 77.5,65.5C 76.209,65.2627 75.209,65.596 74.5,66.5C 73.8333,66.8333 73.1667,67.1667 72.5,67.5C 70.9064,67.9195 69.4064,68.5862 68,69.5C 67.2352,69.4301 66.7352,69.0967 66.5,68.5C 67.4511,67.0813 67.7845,65.4147 67.5,63.5C 62.8333,63.5 58.1667,63.5 53.5,63.5C 53.1667,63.5 52.8333,63.5 52.5,63.5 Z"/></g>
<g><path style="opacity:0.263" fill="#c3d4cd" d="M 29.5,60.5 C 29.8333,60.5 30.1667,60.5 30.5,60.5C 31.3382,60.8417 31.6716,61.5084 31.5,62.5C 32.6253,64.1288 33.9586,65.6288 35.5,67C 38.5415,68.2102 41.2081,69.7102 43.5,71.5C 36.4652,70.7939 31.7985,67.1273 29.5,60.5 Z"/></g>
<g><path style="opacity:1" fill="#fd2be5" d="M 53.5,63.5 C 58.1667,63.5 62.8333,63.5 67.5,63.5C 67.7845,65.4147 67.4511,67.0813 66.5,68.5C 66.1667,68.5 65.8333,68.5 65.5,68.5C 63.1637,67.1431 60.8304,65.8097 58.5,64.5C 58.5,65.5 58.5,66.5 58.5,67.5C 57.1266,67.6567 55.7932,67.49 54.5,67C 54.8333,66.6667 55.1667,66.3333 55.5,66C 54.244,65.5831 53.5774,64.7498 53.5,63.5 Z"/></g>
<g><path style="opacity:1" fill="#335b8d" d="M 49.5,71.5 C 47.5,71.5 45.5,71.5 43.5,71.5C 41.2081,69.7102 38.5415,68.2102 35.5,67C 33.9586,65.6288 32.6253,64.1288 31.5,62.5C 32.7382,61.5876 34.0715,61.4209 35.5,62C 39.5707,65.5365 44.2374,67.7032 49.5,68.5C 49.5,69.5 49.5,70.5 49.5,71.5 Z"/></g>
<g><path style="opacity:0.745" fill="#b7c1c0" d="M 41.5,58.5 C 46.4544,57.9426 49.1211,58.2759 49.5,59.5C 49.5,60.5 49.5,61.5 49.5,62.5C 49.5,62.8333 49.5,63.1667 49.5,63.5C 49.5,64.5 49.5,65.5 49.5,66.5C 46.0306,67.1128 44.0306,65.7794 43.5,62.5C 42.5,62.5 41.5,62.5 40.5,62.5C 40.2322,60.901 40.5655,59.5676 41.5,58.5 Z M 42.5,60.5 C 44.2646,59.5386 46.2646,59.2053 48.5,59.5C 48.313,61.5643 47.813,63.5643 47,65.5C 45.583,63.6022 44.083,61.9355 42.5,60.5 Z"/></g>
<g><path style="opacity:1" fill="#ee5cd8" d="M 49.5,63.5 C 50.5,63.5 51.5,63.5 52.5,63.5C 52.8333,63.5 53.1667,63.5 53.5,63.5C 53.5774,64.7498 54.244,65.5831 55.5,66C 55.1667,66.3333 54.8333,66.6667 54.5,67C 55.7932,67.49 57.1266,67.6567 58.5,67.5C 58.5,66.5 58.5,65.5 58.5,64.5C 60.8304,65.8097 63.1637,67.1431 65.5,68.5C 62.5,68.5 59.5,68.5 56.5,68.5C 54.0347,68.233 51.7014,67.5664 49.5,66.5C 49.5,65.5 49.5,64.5 49.5,63.5 Z"/></g>
<g><path style="opacity:1" fill="#3e5d76" d="M 74.5,66.5 C 75.5,66.5 76.5,66.5 77.5,66.5C 79.1383,68.9555 78.805,70.9555 76.5,72.5C 75.4324,71.5655 74.099,71.2322 72.5,71.5C 72.5,70.1667 72.5,68.8333 72.5,67.5C 73.1667,67.1667 73.8333,66.8333 74.5,66.5 Z"/></g>
<g><path style="opacity:1" fill="#8e3eb3" d="M 56.5,69.5 C 57.9187,70.4511 59.5853,70.7845 61.5,70.5C 61.5,71.8333 61.5,73.1667 61.5,74.5C 58.1606,74.1103 54.8273,73.6103 51.5,73C 50.944,72.6174 50.6107,72.1174 50.5,71.5C 50.281,70.325 50.6143,69.325 51.5,68.5C 53.0709,69.3094 54.7376,69.6427 56.5,69.5 Z"/></g>
<g><path style="opacity:1" fill="#b31e51" d="M 61.5,70.5 C 70.7691,71.7715 70.7691,73.1049 61.5,74.5C 61.5,73.1667 61.5,71.8333 61.5,70.5 Z"/></g>
<g><path style="opacity:1" fill="#56446f" d="M 72.5,67.5 C 72.5,68.8333 72.5,70.1667 72.5,71.5C 74.099,71.2322 75.4324,71.5655 76.5,72.5C 72.7874,74.129 68.7874,75.129 64.5,75.5C 63.2739,75.4805 62.2739,75.1471 61.5,74.5C 70.7691,73.1049 70.7691,71.7715 61.5,70.5C 59.5853,70.7845 57.9187,70.4511 56.5,69.5C 56.5,69.1667 56.5,68.8333 56.5,68.5C 59.5,68.5 62.5,68.5 65.5,68.5C 65.8333,68.5 66.1667,68.5 66.5,68.5C 66.7352,69.0967 67.2352,69.4301 68,69.5C 69.4064,68.5862 70.9064,67.9195 72.5,67.5 Z"/></g>
<g><path style="opacity:0.576" fill="#d0dcd4" d="M 80.5,55.5 C 80.8333,55.5 81.1667,55.5 81.5,55.5C 79.322,59.964 78.9887,64.6306 80.5,69.5C 78.9469,73.2142 76.2803,75.5476 72.5,76.5C 67.1667,76.5 61.8333,76.5 56.5,76.5C 52.2577,74.7111 47.9244,73.0445 43.5,71.5C 45.5,71.5 47.5,71.5 49.5,71.5C 49.8333,71.5 50.1667,71.5 50.5,71.5C 50.6107,72.1174 50.944,72.6174 51.5,73C 54.8273,73.6103 58.1606,74.1103 61.5,74.5C 62.2739,75.1471 63.2739,75.4805 64.5,75.5C 68.7874,75.129 72.7874,74.129 76.5,72.5C 78.805,70.9555 79.1383,68.9555 77.5,66.5C 78.7828,63.6346 78.7828,60.6346 77.5,57.5C 78.6016,56.8243 79.6016,56.1577 80.5,55.5 Z"/></g>
</svg>
