<?xml version="1.0" encoding="UTF-8"?>
<!DOCTYPE svg PUBLIC "-//W3C//DTD SVG 1.1//EN" "http://www.w3.org/Graphics/SVG/1.1/DTD/svg11.dtd">
<svg xmlns="http://www.w3.org/2000/svg" version="1.1" width="100px" height="75px" style="shape-rendering:geometricPrecision; text-rendering:geometricPrecision; image-rendering:optimizeQuality; fill-rule:evenodd; clip-rule:evenodd" xmlns:xlink="http://www.w3.org/1999/xlink">
<g><path style="opacity:0.212" fill="#f6d4e6" d="M 55.5,-0.5 C 61.8333,-0.5 68.1667,-0.5 74.5,-0.5C 80.0304,0.198408 83.0304,3.36507 83.5,9C 87.614,9.11505 91.2807,10.2817 94.5,12.5C 93.5,12.5 92.5,12.5 91.5,12.5C 88.4928,10.8255 85.1595,10.1588 81.5,10.5C 81.7947,8.26465 81.4614,6.26465 80.5,4.5C 79.8333,4.5 79.5,4.16667 79.5,3.5C 77.8984,1.92606 75.8984,1.25939 73.5,1.5C 67.5992,0.194263 61.5992,0.194263 55.5,1.5C 55.5,0.833333 55.5,0.166667 55.5,-0.5 Z"/></g>
<g><path style="opacity:1" fill="#666f82" d="M 73.5,1.5 C 75.8984,1.25939 77.8984,1.92606 79.5,3.5C 74.5624,4.39238 69.5624,4.72572 64.5,4.5C 67.2033,2.89001 70.2033,1.89001 73.5,1.5 Z"/></g>
<g><path style="opacity:1" fill="#1a7ea3" d="M 57.5,2.5 C 59.8273,2.24707 61.8273,2.91374 63.5,4.5C 62.1667,4.83333 60.8333,5.16667 59.5,5.5C 57.6672,5.41456 56.3339,4.7479 55.5,3.5C 56.1667,3.16667 56.8333,2.83333 57.5,2.5 Z"/></g>
<g><path style="opacity:1" fill="#391f55" d="M 79.5,3.5 C 79.5,4.16667 79.8333,4.5 80.5,4.5C 80.938,8.90825 78.938,10.5749 74.5,9.5C 72.5039,8.08747 70.3372,6.75413 68,5.5C 66.2435,6.98496 65.0768,6.65163 64.5,4.5C 69.5624,4.72572 74.5624,4.39238 79.5,3.5 Z"/></g>
<g><path style="opacity:1" fill="#0fb212" d="M 15.5,8.5 C 18.4017,6.88455 20.735,7.55122 22.5,10.5C 22.2598,16.227 22.5931,21.8936 23.5,27.5C 23.7845,29.4147 23.4511,31.0813 22.5,32.5C 21.1722,25.2173 20.0055,17.884 19,10.5C 18.1841,9.17723 17.0174,8.51056 15.5,8.5 Z"/></g>
<g><path style="opacity:0.353" fill="#dfb1c6" d="M 73.5,1.5 C 67.9738,1.17859 62.6405,1.51192 57.5,2.5C 56.8333,2.83333 56.1667,3.16667 55.5,3.5C 54.5655,4.56764 54.2322,5.90097 54.5,7.5C 48.2193,7.76672 42.2193,9.10005 36.5,11.5C 35.7659,10.2921 35.4326,8.95875 35.5,7.5C 33.5165,7.38321 31.8498,8.04988 30.5,9.5C 29.0815,8.99525 28.4148,7.99525 28.5,6.5C 28.5,6.16667 28.5,5.83333 28.5,5.5C 30.083,7.86316 31.9164,7.86316 34,5.5C 35.7058,6.30787 36.5391,7.6412 36.5,9.5C 41.9988,7.56374 47.6655,6.06374 53.5,5C 52.828,3.42069 53.4947,2.25403 55.5,1.5C 61.5992,0.194263 67.5992,0.194263 73.5,1.5 Z"/></g>
<g><path style="opacity:1" fill="#443633" d="M 80.5,4.5 C 81.4614,6.26465 81.7947,8.26465 81.5,10.5C 85.1595,10.1588 88.4928,10.8255 91.5,12.5C 87.8455,12.0578 84.1788,11.7244 80.5,11.5C 77.2356,10.6758 73.9023,10.3424 70.5,10.5C 71.5676,9.56552 72.901,9.23219 74.5,9.5C 78.938,10.5749 80.938,8.90825 80.5,4.5 Z"/></g>
<g><path style="opacity:1" fill="#201932" d="M 57.5,2.5 C 62.6405,1.51192 67.9738,1.17859 73.5,1.5C 70.2033,1.89001 67.2033,2.89001 64.5,4.5C 65.0768,6.65163 66.2435,6.98496 68,5.5C 70.3372,6.75413 72.5039,8.08747 74.5,9.5C 72.901,9.23219 71.5676,9.56552 70.5,10.5C 74.3952,12.1838 78.3952,13.5172 82.5,14.5C 82.8417,15.3382 83.5084,15.6716 84.5,15.5C 83.612,18.0545 83.2786,20.7212 83.5,23.5C 82.0687,22.2196 81.4021,20.5529 81.5,18.5C 79.8212,18.2852 78.8212,18.9519 78.5,20.5C 77.5,20.5 76.5,20.5 75.5,20.5C 75.4802,22.143 76.1468,23.4763 77.5,24.5C 76.2066,26.1026 75.2066,27.7693 74.5,29.5C 74.6621,27.4727 74.4955,25.4727 74,23.5C 71.5464,21.5588 69.713,19.2254 68.5,16.5C 69.1667,16.5 69.8333,16.5 70.5,16.5C 74.0583,17.8706 74.3916,17.204 71.5,14.5C 67.5408,13.3384 63.5408,12.8384 59.5,13C 60.624,13.2492 61.624,13.7492 62.5,14.5C 61.6906,16.0709 61.3573,17.7376 61.5,19.5C 62.4385,21.9103 62.4385,24.2436 61.5,26.5C 60.2154,23.4115 59.5488,20.0781 59.5,16.5C 57.7772,14.7819 55.7772,13.4486 53.5,12.5C 51.0336,11.3659 48.367,11.1993 45.5,12C 42.9071,12.8861 40.9071,14.3861 39.5,16.5C 35.537,17.1295 33.2037,19.4629 32.5,23.5C 31.2616,25.2143 30.595,27.2143 30.5,29.5C 29.8333,30.5 29.1667,31.5 28.5,32.5C 28.4433,30.1155 28.7766,27.7822 29.5,25.5C 29.1667,24.8333 28.8333,24.1667 28.5,23.5C 27.7348,24.6119 26.7348,25.2786 25.5,25.5C 27.679,19.6555 31.3457,14.9888 36.5,11.5C 42.2193,9.10005 48.2193,7.76672 54.5,7.5C 54.2322,5.90097 54.5655,4.56764 55.5,3.5C 56.3339,4.7479 57.6672,5.41456 59.5,5.5C 60.8333,5.16667 62.1667,4.83333 63.5,4.5C 61.8273,2.91374 59.8273,2.24707 57.5,2.5 Z"/></g>
<g><path style="opacity:1" fill="#4d3b75" d="M 55.5,8.5 C 59.8461,8.33432 64.1794,8.50098 68.5,9C 68.9574,9.41395 69.2907,9.91395 69.5,10.5C 64.8804,11.4933 60.2137,11.8266 55.5,11.5C 55.5,10.5 55.5,9.5 55.5,8.5 Z"/></g>
<g><path style="opacity:1" fill="#b1b02a" d="M 70.5,10.5 C 73.9023,10.3424 77.2356,10.6758 80.5,11.5C 81.9516,12.3019 83.6183,12.8019 85.5,13C 84.7562,14.0386 83.7562,14.5386 82.5,14.5C 78.3952,13.5172 74.3952,12.1838 70.5,10.5 Z"/></g>
<g><path style="opacity:1" fill="#cf5110" d="M 53.5,12.5 C 52.1667,12.5 50.8333,12.5 49.5,12.5C 49.4326,13.9587 49.7659,15.2921 50.5,16.5C 50.1667,16.5 49.8333,16.5 49.5,16.5C 47.8863,14.9254 45.8863,14.2587 43.5,14.5C 43.5,15.5 43.5,16.5 43.5,17.5C 42.0413,17.5674 40.7079,17.2341 39.5,16.5C 40.9071,14.3861 42.9071,12.8861 45.5,12C 48.367,11.1993 51.0336,11.3659 53.5,12.5 Z"/></g>
<g><path style="opacity:1" fill="#39a117" d="M 53.5,12.5 C 54.1098,13.391 54.4431,14.391 54.5,15.5C 53.4324,16.4345 52.099,16.7678 50.5,16.5C 49.7659,15.2921 49.4326,13.9587 49.5,12.5C 50.8333,12.5 52.1667,12.5 53.5,12.5 Z"/></g>
<g><path style="opacity:1" fill="#5e581f" d="M 80.5,11.5 C 84.1788,11.7244 87.8455,12.0578 91.5,12.5C 90.791,13.404 89.791,13.7373 88.5,13.5C 86.9382,13.7329 85.6049,14.3995 84.5,15.5C 83.5084,15.6716 82.8417,15.3382 82.5,14.5C 83.7562,14.5386 84.7562,14.0386 85.5,13C 83.6183,12.8019 81.9516,12.3019 80.5,11.5 Z"/></g>
<g><path style="opacity:0.694" fill="#e6cbc8" d="M 28.5,5.5 C 28.5,5.83333 28.5,6.16667 28.5,6.5C 27.448,6.35055 26.448,6.51722 25.5,7C 25.0257,8.72861 24.0257,9.89527 22.5,10.5C 20.735,7.55122 18.4017,6.88455 15.5,8.5C 15.8016,11.0593 15.4682,13.3926 14.5,15.5C 11.482,13.537 8.14868,13.037 4.5,14C 3.05773,14.3768 2.05773,15.2101 1.5,16.5C 2.84839,17.6006 4.34839,18.6006 6,19.5C 6.82142,22.5541 6.65476,25.5541 5.5,28.5C 4.2798,27.2889 3.11314,27.2889 2,28.5C 1.33333,30.5 1.33333,32.5 2,34.5C 5.03787,37.3694 7.87121,40.3694 10.5,43.5C 6.51258,40.8414 2.84591,37.8414 -0.5,34.5C -0.5,32.5 -0.5,30.5 -0.5,28.5C 0.794229,27.7101 1.9609,26.7101 3,25.5C 3.71752,26.4506 4.55085,26.6172 5.5,26C 4.57692,23.9592 4.24358,21.7925 4.5,19.5C 2.83333,19.5 1.16667,19.5 -0.5,19.5C -0.5,18.1667 -0.5,16.8333 -0.5,15.5C 3.69299,12.8026 8.35966,11.8026 13.5,12.5C 12.8632,7.15003 15.1966,4.98336 20.5,6C 21.3333,6.83333 22.1667,7.66667 23,8.5C 23.9912,5.25333 25.8246,4.25333 28.5,5.5 Z"/></g>
<g><path style="opacity:0.02" fill="#d1d3d5" d="M 94.5,12.5 C 96.4113,13.075 98.078,14.075 99.5,15.5C 99.5,18.5 99.5,21.5 99.5,24.5C 98.1667,25.5 96.8333,26.5 95.5,27.5C 97.1791,25.3045 98.1791,22.8045 98.5,20C 98.3333,18.8333 98.1667,17.6667 98,16.5C 96.6244,15.2949 95.4577,13.9616 94.5,12.5 Z"/></g>
<g><path style="opacity:1" fill="#7b7422" d="M 53.5,12.5 C 55.7772,13.4486 57.7772,14.7819 59.5,16.5C 57.7839,16.3713 56.1172,16.038 54.5,15.5C 54.4431,14.391 54.1098,13.391 53.5,12.5 Z"/></g>
<g><path style="opacity:1" fill="#1bac1f" d="M 14.5,15.5 C 14.667,23.9606 13.3337,24.7939 10.5,18C 7.64917,16.7114 4.64917,16.2114 1.5,16.5C 2.05773,15.2101 3.05773,14.3768 4.5,14C 8.14868,13.037 11.482,13.537 14.5,15.5 Z"/></g>
<g><path style="opacity:1" fill="#09971c" d="M 28.5,6.5 C 28.4148,7.99525 29.0815,8.99525 30.5,9.5C 31.8498,8.04988 33.5165,7.38321 35.5,7.5C 35.4326,8.95875 35.7659,10.2921 36.5,11.5C 31.3457,14.9888 27.679,19.6555 25.5,25.5C 24.8333,26.1667 24.1667,26.8333 23.5,27.5C 22.5931,21.8936 22.2598,16.227 22.5,10.5C 24.0257,9.89527 25.0257,8.72861 25.5,7C 26.448,6.51722 27.448,6.35055 28.5,6.5 Z"/></g>
<g><path style="opacity:1" fill="#1e7881" d="M 70.5,16.5 C 68.3926,15.5318 66.0593,15.1984 63.5,15.5C 63.8432,17.4832 63.1765,18.8166 61.5,19.5C 61.3573,17.7376 61.6906,16.0709 62.5,14.5C 61.624,13.7492 60.624,13.2492 59.5,13C 63.5408,12.8384 67.5408,13.3384 71.5,14.5C 74.3916,17.204 74.0583,17.8706 70.5,16.5 Z"/></g>
<g><path style="opacity:1" fill="#2d8442" d="M 91.5,12.5 C 92.5,12.5 93.5,12.5 94.5,12.5C 95.4577,13.9616 96.6244,15.2949 98,16.5C 98.1667,17.6667 98.3333,18.8333 98.5,20C 98.1791,22.8045 97.1791,25.3045 95.5,27.5C 94.5,27.5 93.5,27.5 92.5,27.5C 93.5527,24.1485 93.5527,20.8151 92.5,17.5C 91.1804,15.7299 89.6804,15.3966 88,16.5C 87.5304,15.4232 87.6971,14.4232 88.5,13.5C 89.791,13.7373 90.791,13.404 91.5,12.5 Z"/></g>
<g><path style="opacity:1" fill="#95ce1e" d="M 88.5,13.5 C 87.6971,14.4232 87.5304,15.4232 88,16.5C 89.6804,15.3966 91.1804,15.7299 92.5,17.5C 93.5527,20.8151 93.5527,24.1485 92.5,27.5C 91.1667,27.5 89.8333,27.5 88.5,27.5C 86.8459,26.2497 85.1793,24.9163 83.5,23.5C 83.2786,20.7212 83.612,18.0545 84.5,15.5C 85.6049,14.3995 86.9382,13.7329 88.5,13.5 Z"/></g>
<g><path style="opacity:1" fill="#f9857f" d="M 54.5,15.5 C 56.1172,16.038 57.7839,16.3713 59.5,16.5C 59.5488,20.0781 60.2154,23.4115 61.5,26.5C 63.3003,37.0926 62.3003,47.4259 58.5,57.5C 57.7348,58.6119 56.7348,59.2786 55.5,59.5C 55.1667,59.5 54.8333,59.5 54.5,59.5C 52.6409,56.9814 50.6409,56.9814 48.5,59.5C 48.6775,58.3052 49.0109,57.1385 49.5,56C 47.5708,54.3058 46.5708,52.1391 46.5,49.5C 47.5845,45.2507 48.9178,41.084 50.5,37C 50.432,34.0437 49.432,31.5437 47.5,29.5C 47.2962,26.4824 46.9629,23.4824 46.5,20.5C 47.5,20.5 48.5,20.5 49.5,20.5C 49.5,19.1667 49.5,17.8333 49.5,16.5C 49.8333,16.5 50.1667,16.5 50.5,16.5C 52.099,16.7678 53.4324,16.4345 54.5,15.5 Z"/></g>
<g><path style="opacity:1" fill="#2b9f20" d="M 49.5,16.5 C 49.5,17.8333 49.5,19.1667 49.5,20.5C 48.5,20.5 47.5,20.5 46.5,20.5C 46.9629,23.4824 47.2962,26.4824 47.5,29.5C 46.7321,28.7375 46.2321,27.7375 46,26.5C 44.9505,27.5171 43.7839,27.6838 42.5,27C 43.9561,26.5774 44.4561,25.7441 44,24.5C 42.4941,22.8258 40.6607,21.8258 38.5,21.5C 38.719,22.675 38.3857,23.675 37.5,24.5C 35.9291,23.6906 34.2624,23.3573 32.5,23.5C 33.2037,19.4629 35.537,17.1295 39.5,16.5C 40.7079,17.2341 42.0413,17.5674 43.5,17.5C 43.5,16.5 43.5,15.5 43.5,14.5C 45.8863,14.2587 47.8863,14.9254 49.5,16.5 Z"/></g>
<g><path style="opacity:1" fill="#a8008e" d="M 68.5,16.5 C 69.713,19.2254 71.5464,21.5588 74,23.5C 74.4955,25.4727 74.6621,27.4727 74.5,29.5C 72.6855,32.4074 70.0188,33.7407 66.5,33.5C 66.5,32.1667 66.5,30.8333 66.5,29.5C 65.8005,25.2022 65.4672,20.8689 65.5,16.5C 66.5,16.5 67.5,16.5 68.5,16.5 Z"/></g>
<g><path style="opacity:1" fill="#38294c" d="M 28.5,32.5 C 28.335,35.8499 28.5017,39.1832 29,42.5C 29.2784,43.4158 29.7784,44.0825 30.5,44.5C 30.9707,46.5786 31.6373,48.5786 32.5,50.5C 33.6566,52.678 34.9899,54.678 36.5,56.5C 39.3615,58.7601 42.3615,60.7601 45.5,62.5C 45.6107,63.1174 45.944,63.6174 46.5,64C 45.5842,64.2784 44.9175,64.7784 44.5,65.5C 39.3164,63.769 34.6497,61.1023 30.5,57.5C 28.4835,54.1262 26.4835,50.7929 24.5,47.5C 22.8483,42.6591 22.1817,37.6591 22.5,32.5C 23.4511,31.0813 23.7845,29.4147 23.5,27.5C 24.1667,26.8333 24.8333,26.1667 25.5,25.5C 26.7348,25.2786 27.7348,24.6119 28.5,23.5C 28.8333,24.1667 29.1667,24.8333 29.5,25.5C 28.7766,27.7822 28.4433,30.1155 28.5,32.5 Z"/></g>
<g><path style="opacity:1" fill="#162d3c" d="M 78.5,20.5 C 78.6653,24.1817 78.4986,27.8484 78,31.5C 76.9887,32.3366 75.8221,32.67 74.5,32.5C 73.8333,34.5 73.1667,36.5 72.5,38.5C 73.8734,38.3433 75.2068,38.51 76.5,39C 76.1667,39.3333 75.8333,39.6667 75.5,40C 76.8228,40.8159 77.4894,41.9826 77.5,43.5C 77.7852,45.288 77.4519,46.9547 76.5,48.5C 75.8302,46.7086 75.1635,45.0419 74.5,43.5C 72.9731,43.573 71.9731,42.9063 71.5,41.5C 70.3303,39.7215 68.6636,38.7215 66.5,38.5C 66.8432,36.5168 66.1765,35.1834 64.5,34.5C 63.2706,31.8654 63.2706,29.1987 64.5,26.5C 65.1757,27.6016 65.8423,28.6016 66.5,29.5C 66.5,30.8333 66.5,32.1667 66.5,33.5C 70.0188,33.7407 72.6855,32.4074 74.5,29.5C 75.2066,27.7693 76.2066,26.1026 77.5,24.5C 76.1468,23.4763 75.4802,22.143 75.5,20.5C 76.5,20.5 77.5,20.5 78.5,20.5 Z"/></g>
<g><path style="opacity:1" fill="#1c113e" d="M 64.5,34.5 C 66.1765,35.1834 66.8432,36.5168 66.5,38.5C 68.6636,38.7215 70.3303,39.7215 71.5,41.5C 70.0222,41.238 68.6888,41.5713 67.5,42.5C 71.7947,46.9111 71.4613,47.9111 66.5,45.5C 66.9262,42.0798 65.9262,39.2465 63.5,37C 63.528,35.9302 63.8614,35.0968 64.5,34.5 Z"/></g>
<g><path style="opacity:1" fill="#47446a" d="M 83.5,23.5 C 85.1793,24.9163 86.8459,26.2497 88.5,27.5C 88.5,28.1667 88.8333,28.5 89.5,28.5C 91.1672,32.3387 91.6672,36.3387 91,40.5C 88.3973,46.6006 84.2306,51.2673 78.5,54.5C 78.815,50.6286 78.4816,46.9619 77.5,43.5C 77.4894,41.9826 76.8228,40.8159 75.5,40C 75.8333,39.6667 76.1667,39.3333 76.5,39C 75.2068,38.51 73.8734,38.3433 72.5,38.5C 73.1667,36.5 73.8333,34.5 74.5,32.5C 75.8221,32.67 76.9887,32.3366 78,31.5C 78.4986,27.8484 78.6653,24.1817 78.5,20.5C 78.8212,18.9519 79.8212,18.2852 81.5,18.5C 81.4021,20.5529 82.0687,22.2196 83.5,23.5 Z"/></g>
<g><path style="opacity:1" fill="#107137" d="M 30.5,29.5 C 30.5,34.5 30.5,39.5 30.5,44.5C 29.7784,44.0825 29.2784,43.4158 29,42.5C 28.5017,39.1832 28.335,35.8499 28.5,32.5C 29.1667,31.5 29.8333,30.5 30.5,29.5 Z"/></g>
<g><path style="opacity:1" fill="#70f11d" d="M 15.5,8.5 C 17.0174,8.51056 18.1841,9.17723 19,10.5C 20.0055,17.884 21.1722,25.2173 22.5,32.5C 22.1817,37.6591 22.8483,42.6591 24.5,47.5C 22.732,50.7034 21.232,54.0367 20,57.5C 19.51,56.2068 19.3433,54.8734 19.5,53.5C 17.5792,51.7307 15.2459,50.3974 12.5,49.5C 15.0232,48.6156 17.6898,47.7823 20.5,47C 17.4956,46.8827 14.829,46.0493 12.5,44.5C 12.1583,43.6618 11.4916,43.3284 10.5,43.5C 7.87121,40.3694 5.03787,37.3694 2,34.5C 1.33333,32.5 1.33333,30.5 2,28.5C 3.11314,27.2889 4.2798,27.2889 5.5,28.5C 6.65476,25.5541 6.82142,22.5541 6,19.5C 4.34839,18.6006 2.84839,17.6006 1.5,16.5C 4.64917,16.2114 7.64917,16.7114 10.5,18C 13.3337,24.7939 14.667,23.9606 14.5,15.5C 15.4682,13.3926 15.8016,11.0593 15.5,8.5 Z"/></g>
<g><path style="opacity:1" fill="#d3f995" d="M 11.5,36.5 C 13.9801,37.9117 16.3134,39.5784 18.5,41.5C 18,41.8333 17.5,42.1667 17,42.5C 13.736,41.2241 10.5693,39.7241 7.5,38C 8.78387,37.3162 9.95054,37.4829 11,38.5C 11.4643,37.9056 11.631,37.2389 11.5,36.5 Z"/></g>
<g><path style="opacity:1" fill="#dcf79f" d="M 12.5,30.5 C 16.1036,31.5877 17.9369,33.921 18,37.5C 15.1958,35.869 13.3624,33.5356 12.5,30.5 Z"/></g>
<g><path style="opacity:1" fill="#d7f7ad" d="M 8.5,24.5 C 11.4135,26.39 11.9135,28.7233 10,31.5C 8.64849,29.4062 8.14849,27.0728 8.5,24.5 Z"/></g>
<g><path style="opacity:0.525" fill="#b7aaba" d="M 88.5,27.5 C 89.8333,27.5 91.1667,27.5 92.5,27.5C 93.5,27.5 94.5,27.5 95.5,27.5C 97.8135,37.2173 96.1469,46.2173 90.5,54.5C 88.3297,57.0119 85.663,58.6785 82.5,59.5C 81.6618,59.8417 81.3284,60.5084 81.5,61.5C 80.596,60.791 80.2627,59.791 80.5,58.5C 83.089,58.539 85.089,57.539 86.5,55.5C 89.5358,52.7574 91.5358,49.424 92.5,45.5C 93.2679,44.7375 93.7679,43.7375 94,42.5C 94.6667,38.1667 94.6667,33.8333 94,29.5C 92.6439,28.6198 91.1439,28.2865 89.5,28.5C 88.8333,28.5 88.5,28.1667 88.5,27.5 Z"/></g>
<g><path style="opacity:1" fill="#c3f07f" d="M 12.5,44.5 C 14.829,46.0493 17.4956,46.8827 20.5,47C 17.6898,47.7823 15.0232,48.6156 12.5,49.5C 10.0776,47.7145 10.0776,46.0478 12.5,44.5 Z"/></g>
<g><path style="opacity:0.016" fill="#efcace" d="M 10.5,43.5 C 11.4916,43.3284 12.1583,43.6618 12.5,44.5C 10.0776,46.0478 10.0776,47.7145 12.5,49.5C 15.2459,50.3974 17.5792,51.7307 19.5,53.5C 18.7171,55.3432 18.0505,57.3432 17.5,59.5C 18.3482,61.2828 19.6815,61.7828 21.5,61C 23.3513,59.3163 25.018,57.4829 26.5,55.5C 27.5223,55.8555 28.189,56.5222 28.5,57.5C 26.1137,58.3733 24.1137,59.8733 22.5,62C 15.7297,62.9641 14.0631,60.4641 17.5,54.5C 14.914,52.9574 12.414,51.2907 10,49.5C 7.90871,47.1697 8.07538,45.1697 10.5,43.5 Z"/></g>
<g><path style="opacity:1" fill="#1ab510" d="M 47.5,29.5 C 49.432,31.5437 50.432,34.0437 50.5,37C 48.9178,41.084 47.5845,45.2507 46.5,49.5C 44.4362,49.7619 43.1029,50.9286 42.5,53C 40.1703,54.3454 37.8369,54.5121 35.5,53.5C 36.462,51.1167 35.462,50.1167 32.5,50.5C 31.6373,48.5786 30.9707,46.5786 30.5,44.5C 30.5,39.5 30.5,34.5 30.5,29.5C 30.595,27.2143 31.2616,25.2143 32.5,23.5C 34.2624,23.3573 35.9291,23.6906 37.5,24.5C 38.3857,23.675 38.719,22.675 38.5,21.5C 40.6607,21.8258 42.4941,22.8258 44,24.5C 44.4561,25.7441 43.9561,26.5774 42.5,27C 43.7839,27.6838 44.9505,27.5171 46,26.5C 46.2321,27.7375 46.7321,28.7375 47.5,29.5 Z"/></g>
<g><path style="opacity:1" fill="#71f61a" d="M 34.5,25.5 C 41.3112,26.9123 46.3112,30.7457 49.5,37C 47.0268,43.1237 42.6935,47.2903 36.5,49.5C 34.1728,48.2745 33.0061,46.2745 33,43.5C 32.1017,37.3405 32.6017,31.3405 34.5,25.5 Z"/></g>
<g><path style="opacity:1" fill="#611188" d="M 92.5,45.5 C 91.5358,49.424 89.5358,52.7574 86.5,55.5C 85.7611,55.631 85.0944,55.4643 84.5,55C 87.0312,51.6425 89.6979,48.4758 92.5,45.5 Z"/></g>
<g><path style="opacity:1" fill="#970e91" d="M 71.5,41.5 C 71.9731,42.9063 72.9731,43.573 74.5,43.5C 75.1336,50.3496 72.1336,54.683 65.5,56.5C 65.423,52.7852 65.7564,49.1185 66.5,45.5C 71.4613,47.9111 71.7947,46.9111 67.5,42.5C 68.6888,41.5713 70.0222,41.238 71.5,41.5 Z"/></g>
<g><path style="opacity:1" fill="#109826" d="M 46.5,49.5 C 46.5708,52.1391 47.5708,54.3058 49.5,56C 49.0109,57.1385 48.6775,58.3052 48.5,59.5C 45.0504,60.2436 43.3838,58.9103 43.5,55.5C 41.1944,55.9926 38.861,56.3259 36.5,56.5C 34.9899,54.678 33.6566,52.678 32.5,50.5C 35.462,50.1167 36.462,51.1167 35.5,53.5C 37.8369,54.5121 40.1703,54.3454 42.5,53C 43.1029,50.9286 44.4362,49.7619 46.5,49.5 Z"/></g>
<g><path style="opacity:1" fill="#352451" d="M 89.5,28.5 C 91.1439,28.2865 92.6439,28.6198 94,29.5C 94.6667,33.8333 94.6667,38.1667 94,42.5C 93.7679,43.7375 93.2679,44.7375 92.5,45.5C 89.6979,48.4758 87.0312,51.6425 84.5,55C 85.0944,55.4643 85.7611,55.631 86.5,55.5C 85.089,57.539 83.089,58.539 80.5,58.5C 80.2627,59.791 80.596,60.791 81.5,61.5C 81.8064,64.3854 81.4731,67.0521 80.5,69.5C 76.6002,68.5701 72.6002,68.2367 68.5,68.5C 69.9807,66.7531 71.9807,65.5864 74.5,65C 68.5274,65.1628 62.5274,65.3295 56.5,65.5C 56.5,64.5 56.5,63.5 56.5,62.5C 63.0898,62.189 69.5898,62.5223 76,63.5C 76.3742,62.5838 76.8742,61.7504 77.5,61C 75.563,60.8784 74.2297,60.045 73.5,58.5C 74.3065,57.2719 75.3065,56.2719 76.5,55.5C 77.1667,55.1667 77.8333,54.8333 78.5,54.5C 84.2306,51.2673 88.3973,46.6006 91,40.5C 91.6672,36.3387 91.1672,32.3387 89.5,28.5 Z"/></g>
<g><path style="opacity:1" fill="#129cbe" d="M 48.5,59.5 C 50.406,61.9938 52.406,61.9938 54.5,59.5C 54.8333,59.5 55.1667,59.5 55.5,59.5C 55.5858,60.4959 55.2524,61.3292 54.5,62C 51.5184,62.498 48.5184,62.6646 45.5,62.5C 42.3615,60.7601 39.3615,58.7601 36.5,56.5C 38.861,56.3259 41.1944,55.9926 43.5,55.5C 43.3838,58.9103 45.0504,60.2436 48.5,59.5 Z"/></g>
<g><path style="opacity:1" fill="#76d432" d="M 24.5,47.5 C 26.4835,50.7929 28.4835,54.1262 30.5,57.5C 30.1667,57.5 29.8333,57.5 29.5,57.5C 29.1667,57.5 28.8333,57.5 28.5,57.5C 28.189,56.5222 27.5223,55.8555 26.5,55.5C 25.018,57.4829 23.3513,59.3163 21.5,61C 19.6815,61.7828 18.3482,61.2828 17.5,59.5C 18.0505,57.3432 18.7171,55.3432 19.5,53.5C 19.3433,54.8734 19.51,56.2068 20,57.5C 21.232,54.0367 22.732,50.7034 24.5,47.5 Z"/></g>
<g><path style="opacity:1" fill="#2fb132" d="M 54.5,59.5 C 52.406,61.9938 50.406,61.9938 48.5,59.5C 50.6409,56.9814 52.6409,56.9814 54.5,59.5 Z"/></g>
<g><path style="opacity:1" fill="#176374" d="M 76.5,55.5 C 75.3065,56.2719 74.3065,57.2719 73.5,58.5C 69.7698,60.1456 65.7698,61.1456 61.5,61.5C 60.8333,61.1667 60.1667,60.8333 59.5,60.5C 60.8265,58.6887 61.8265,56.6887 62.5,54.5C 63.4287,55.6888 63.762,57.0222 63.5,58.5C 67.9108,59.34 71.5775,58.1733 74.5,55C 75.4368,54.3083 76.1034,54.475 76.5,55.5 Z"/></g>
<g><path style="opacity:1" fill="#1f182d" d="M 70.5,16.5 C 69.8333,16.5 69.1667,16.5 68.5,16.5C 67.5,16.5 66.5,16.5 65.5,16.5C 65.4672,20.8689 65.8005,25.2022 66.5,29.5C 65.8423,28.6016 65.1757,27.6016 64.5,26.5C 63.2706,29.1987 63.2706,31.8654 64.5,34.5C 63.8614,35.0968 63.528,35.9302 63.5,37C 65.9262,39.2465 66.9262,42.0798 66.5,45.5C 65.7564,49.1185 65.423,52.7852 65.5,56.5C 72.1336,54.683 75.1336,50.3496 74.5,43.5C 75.1635,45.0419 75.8302,46.7086 76.5,48.5C 77.4519,46.9547 77.7852,45.288 77.5,43.5C 78.4816,46.9619 78.815,50.6286 78.5,54.5C 77.8333,54.8333 77.1667,55.1667 76.5,55.5C 76.1034,54.475 75.4368,54.3083 74.5,55C 71.5775,58.1733 67.9108,59.34 63.5,58.5C 63.762,57.0222 63.4287,55.6888 62.5,54.5C 61.8265,56.6887 60.8265,58.6887 59.5,60.5C 60.1667,60.8333 60.8333,61.1667 61.5,61.5C 65.7698,61.1456 69.7698,60.1456 73.5,58.5C 74.2297,60.045 75.563,60.8784 77.5,61C 76.8742,61.7504 76.3742,62.5838 76,63.5C 69.5898,62.5223 63.0898,62.189 56.5,62.5C 56.5,63.5 56.5,64.5 56.5,65.5C 62.5274,65.3295 68.5274,65.1628 74.5,65C 71.9807,65.5864 69.9807,66.7531 68.5,68.5C 68.5,69.1667 68.1667,69.5 67.5,69.5C 67.5,68.5 67.5,67.5 67.5,66.5C 66.5,66.5 65.5,66.5 64.5,66.5C 64.5,67.8333 64.5,69.1667 64.5,70.5C 63.8166,72.1765 62.4832,72.8432 60.5,72.5C 60.8807,71.0689 61.8807,70.2355 63.5,70C 61.5273,69.5045 59.5273,69.3379 57.5,69.5C 56.7611,69.369 56.0944,69.5357 55.5,70C 56.2524,70.6708 56.5858,71.5041 56.5,72.5C 54.2729,71.5994 53.2729,69.9328 53.5,67.5C 50.5641,66.5942 47.5641,65.9275 44.5,65.5C 44.9175,64.7784 45.5842,64.2784 46.5,64C 45.944,63.6174 45.6107,63.1174 45.5,62.5C 48.5184,62.6646 51.5184,62.498 54.5,62C 55.2524,61.3292 55.5858,60.4959 55.5,59.5C 56.7348,59.2786 57.7348,58.6119 58.5,57.5C 62.3003,47.4259 63.3003,37.0926 61.5,26.5C 62.4385,24.2436 62.4385,21.9103 61.5,19.5C 63.1765,18.8166 63.8432,17.4832 63.5,15.5C 66.0593,15.1984 68.3926,15.5318 70.5,16.5 Z"/></g>
<g><path style="opacity:0.294" fill="#f2cbe0" d="M 29.5,57.5 C 29.8333,57.5 30.1667,57.5 30.5,57.5C 34.6497,61.1023 39.3164,63.769 44.5,65.5C 47.5641,65.9275 50.5641,66.5942 53.5,67.5C 53.2729,69.9328 54.2729,71.5994 56.5,72.5C 61.9846,73.6517 67.6513,73.8184 73.5,73C 76.4453,72.861 78.7786,71.6943 80.5,69.5C 81.4731,67.0521 81.8064,64.3854 81.5,61.5C 81.3284,60.5084 81.6618,59.8417 82.5,59.5C 85.0543,66.085 83.3876,71.085 77.5,74.5C 70.1667,74.5 62.8333,74.5 55.5,74.5C 53.615,72.9468 52.615,70.9468 52.5,68.5C 43.0771,68.287 35.4104,64.6203 29.5,57.5 Z"/></g>
<g><path style="opacity:1" fill="#705d6c" d="M 68.5,68.5 C 72.6002,68.2367 76.6002,68.5701 80.5,69.5C 78.7786,71.6943 76.4453,72.861 73.5,73C 67.6513,73.8184 61.9846,73.6517 56.5,72.5C 56.5858,71.5041 56.2524,70.6708 55.5,70C 56.0944,69.5357 56.7611,69.369 57.5,69.5C 57.5,70.5 57.5,71.5 57.5,72.5C 58.5,72.5 59.5,72.5 60.5,72.5C 62.4832,72.8432 63.8166,72.1765 64.5,70.5C 65.791,70.7373 66.791,70.404 67.5,69.5C 68.1667,69.5 68.5,69.1667 68.5,68.5 Z"/></g>
<g><path style="opacity:1" fill="#4ca56c" d="M 57.5,69.5 C 59.5273,69.3379 61.5273,69.5045 63.5,70C 61.8807,70.2355 60.8807,71.0689 60.5,72.5C 59.5,72.5 58.5,72.5 57.5,72.5C 57.5,71.5 57.5,70.5 57.5,69.5 Z"/></g>
<g><path style="opacity:1" fill="#9a1d2a" d="M 67.5,69.5 C 66.791,70.404 65.791,70.7373 64.5,70.5C 64.5,69.1667 64.5,67.8333 64.5,66.5C 65.5,66.5 66.5,66.5 67.5,66.5C 67.5,67.5 67.5,68.5 67.5,69.5 Z"/></g>
</svg>
