<?xml version="1.0" encoding="UTF-8"?>
<!DOCTYPE svg PUBLIC "-//W3C//DTD SVG 1.1//EN" "http://www.w3.org/Graphics/SVG/1.1/DTD/svg11.dtd">
<svg xmlns="http://www.w3.org/2000/svg" version="1.1" width="100px" height="90px" style="shape-rendering:geometricPrecision; text-rendering:geometricPrecision; image-rendering:optimizeQuality; fill-rule:evenodd; clip-rule:evenodd" xmlns:xlink="http://www.w3.org/1999/xlink">
<g><path style="opacity:1" fill="#e900a7" d="M 43.5,1.5 C 45.1667,1.5 46.8333,1.5 48.5,1.5C 48.5,2.83333 48.5,4.16667 48.5,5.5C 46.8333,5.5 45.1667,5.5 43.5,5.5C 43.5,4.16667 43.5,2.83333 43.5,1.5 Z"/></g>
<g><path style="opacity:0.776" fill="#becfd8" d="M 42.5,-0.5 C 44.8333,-0.5 47.1667,-0.5 49.5,-0.5C 56.1641,1.81699 63.1641,2.98365 70.5,3C 72.7059,5.0367 74.7059,7.20337 76.5,9.5C 76.1667,9.5 75.8333,9.5 75.5,9.5C 74.8333,9.16667 74.1667,8.83333 73.5,8.5C 72.8333,7.16667 71.8333,6.16667 70.5,5.5C 66.7016,4.51658 62.7016,4.18325 58.5,4.5C 55.1995,3.71581 51.8661,2.71581 48.5,1.5C 46.8333,1.5 45.1667,1.5 43.5,1.5C 42.8333,1.5 42.1667,1.5 41.5,1.5C 41.8333,0.833333 42.1667,0.166667 42.5,-0.5 Z"/></g>
<g><path style="opacity:1" fill="#692d55" d="M 48.5,1.5 C 51.8661,2.71581 55.1995,3.71581 58.5,4.5C 56.2646,4.20528 54.2646,4.53862 52.5,5.5C 50.8007,5.52709 49.4674,6.19376 48.5,7.5C 48.5,6.83333 48.5,6.16667 48.5,5.5C 48.5,4.16667 48.5,2.83333 48.5,1.5 Z"/></g>
<g><path style="opacity:0.839" fill="#bdcdd9" d="M 41.5,1.5 C 39.4717,3.51831 37.1383,5.18497 34.5,6.5C 31.6874,6.02458 29.6874,7.02458 28.5,9.5C 24.9581,9.18723 21.6248,9.52056 18.5,10.5C 15.4503,12.5491 13.117,15.2157 11.5,18.5C 10.5,18.8333 9.83333,19.5 9.5,20.5C 8.66175,20.8417 8.32842,21.5084 8.5,22.5C 7.5,22.8333 6.83333,23.5 6.5,24.5C 5.83333,24.8333 5.16667,25.1667 4.5,25.5C 7.85897,19.8876 12.1923,14.3876 17.5,9C 22.9465,9.51326 27.6131,8.01326 31.5,4.5C 32.086,4.70931 32.586,5.04265 33,5.5C 35.5788,3.64533 38.4122,2.312 41.5,1.5 Z"/></g>
<g><path style="opacity:1" fill="#2b2a58" d="M 41.5,1.5 C 42.1667,1.5 42.8333,1.5 43.5,1.5C 43.5,2.83333 43.5,4.16667 43.5,5.5C 45.1667,5.5 46.8333,5.5 48.5,5.5C 48.5,6.16667 48.5,6.83333 48.5,7.5C 48.5,7.83333 48.5,8.16667 48.5,8.5C 46.5853,8.21552 44.9187,8.54885 43.5,9.5C 43.1667,9.5 42.8333,9.5 42.5,9.5C 40.0483,9.01394 37.3817,9.01394 34.5,9.5C 35.0906,8.84851 35.7573,8.18185 36.5,7.5C 36.0431,6.70245 35.3764,6.36912 34.5,6.5C 37.1383,5.18497 39.4717,3.51831 41.5,1.5 Z"/></g>
<g><path style="opacity:1" fill="#e500ab" d="M 58.5,4.5 C 59.9516,5.30192 61.6183,5.80192 63.5,6C 59.6425,6.80993 55.9758,6.64327 52.5,5.5C 54.2646,4.53862 56.2646,4.20528 58.5,4.5 Z"/></g>
<g><path style="opacity:1" fill="#8a227a" d="M 58.5,4.5 C 62.7016,4.18325 66.7016,4.51658 70.5,5.5C 68.6568,6.28288 66.6568,6.94955 64.5,7.5C 63.5481,9.04533 63.2148,10.712 63.5,12.5C 57.31,12.8229 51.31,12.4896 45.5,11.5C 51.1667,11.5 56.8333,11.5 62.5,11.5C 62.5,10.5 62.5,9.5 62.5,8.5C 57.8333,8.5 53.1667,8.5 48.5,8.5C 48.5,8.16667 48.5,7.83333 48.5,7.5C 49.4674,6.19376 50.8007,5.52709 52.5,5.5C 55.9758,6.64327 59.6425,6.80993 63.5,6C 61.6183,5.80192 59.9516,5.30192 58.5,4.5 Z"/></g>
<g><path style="opacity:1" fill="#252050" d="M 34.5,6.5 C 32.9674,8.24512 30.9674,9.24512 28.5,9.5C 29.6874,7.02458 31.6874,6.02458 34.5,6.5 Z"/></g>
<g><path style="opacity:1" fill="#750f62" d="M 34.5,6.5 C 35.3764,6.36912 36.0431,6.70245 36.5,7.5C 35.7573,8.18185 35.0906,8.84851 34.5,9.5C 34.7373,10.791 34.404,11.791 33.5,12.5C 32.2502,12.4226 31.4169,11.756 31,10.5C 29.3629,12.6057 27.5295,13.2724 25.5,12.5C 26.6935,11.7281 27.6935,10.7281 28.5,9.5C 30.9674,9.24512 32.9674,8.24512 34.5,6.5 Z"/></g>
<g><path style="opacity:1" fill="#ed03b1" d="M 48.5,8.5 C 53.1667,8.5 57.8333,8.5 62.5,8.5C 62.5,9.5 62.5,10.5 62.5,11.5C 56.8333,11.5 51.1667,11.5 45.5,11.5C 44.1667,11.5 43.5,10.8333 43.5,9.5C 44.9187,8.54885 46.5853,8.21552 48.5,8.5 Z"/></g>
<g><path style="opacity:1" fill="#a3006d" d="M 73.5,8.5 C 73.4142,9.4959 73.7476,10.3292 74.5,11C 73,11.1667 71.5,11.3333 70,11.5C 68.0145,11.4313 66.5145,10.7647 65.5,9.5C 67.9479,8.52693 70.6146,8.1936 73.5,8.5 Z"/></g>
<g><path style="opacity:1" fill="#3e4c80" d="M 18.5,10.5 C 21.6248,9.52056 24.9581,9.18723 28.5,9.5C 27.6935,10.7281 26.6935,11.7281 25.5,12.5C 24.1667,12.5 22.8333,12.5 21.5,12.5C 21.1788,10.9519 20.1788,10.2852 18.5,10.5 Z"/></g>
<g><path style="opacity:1" fill="#590954" d="M 73.5,8.5 C 74.1667,8.83333 74.8333,9.16667 75.5,9.5C 75.5,10.5 75.5,11.5 75.5,12.5C 71.8333,12.5 68.1667,12.5 64.5,12.5C 64.2627,11.209 64.596,10.209 65.5,9.5C 66.5145,10.7647 68.0145,11.4313 70,11.5C 71.5,11.3333 73,11.1667 74.5,11C 73.7476,10.3292 73.4142,9.4959 73.5,8.5 Z"/></g>
<g><path style="opacity:1" fill="#201242" d="M 70.5,5.5 C 71.8333,6.16667 72.8333,7.16667 73.5,8.5C 70.6146,8.1936 67.9479,8.52693 65.5,9.5C 64.596,10.209 64.2627,11.209 64.5,12.5C 68.1667,12.5 71.8333,12.5 75.5,12.5C 75.5514,14.5695 74.8847,16.4029 73.5,18C 73.5699,18.7648 73.9033,19.2648 74.5,19.5C 75.1667,19.5 75.5,19.8333 75.5,20.5C 73.8762,20.3601 72.7096,21.0267 72,22.5C 72.4427,18.5495 70.9427,15.8829 67.5,14.5C 63.2673,13.2057 58.9339,13.2057 54.5,14.5C 51.3315,15.0025 48.9981,16.6691 47.5,19.5C 47.5,18.8333 47.5,18.1667 47.5,17.5C 45.7116,16.3775 43.7116,16.2109 41.5,17C 41.9574,17.414 42.2907,17.914 42.5,18.5C 40.9547,19.4519 39.288,19.7852 37.5,19.5C 37.8333,18.8333 38.1667,18.1667 38.5,17.5C 37.1178,16.7227 35.1178,16.056 32.5,15.5C 36.226,15.8226 39.8927,15.4892 43.5,14.5C 41.516,12.9536 41.1826,11.2869 42.5,9.5C 42.8333,9.5 43.1667,9.5 43.5,9.5C 43.5,10.8333 44.1667,11.5 45.5,11.5C 51.31,12.4896 57.31,12.8229 63.5,12.5C 63.2148,10.712 63.5481,9.04533 64.5,7.5C 66.6568,6.94955 68.6568,6.28288 70.5,5.5 Z"/></g>
<g><path style="opacity:0.216" fill="#c1d1da" d="M 42.5,9.5 C 41.1826,11.2869 41.516,12.9536 43.5,14.5C 39.8927,15.4892 36.226,15.8226 32.5,15.5C 32.5569,14.391 32.8902,13.391 33.5,12.5C 34.404,11.791 34.7373,10.791 34.5,9.5C 37.3817,9.01394 40.0483,9.01394 42.5,9.5 Z M 38.5,10.5 C 39.4345,11.5676 39.7678,12.901 39.5,14.5C 33.4716,14.8337 33.1383,13.5003 38.5,10.5 Z"/></g>
<g><path style="opacity:1" fill="#4a0749" d="M 67.5,14.5 C 66.5084,14.3284 65.8417,14.6618 65.5,15.5C 61.9581,15.1872 58.6248,15.5206 55.5,16.5C 55.1667,16.5 54.8333,16.5 54.5,16.5C 54.5,15.8333 54.5,15.1667 54.5,14.5C 58.9339,13.2057 63.2673,13.2057 67.5,14.5 Z"/></g>
<g><path style="opacity:0.941" fill="#96a3b4" d="M 75.5,9.5 C 75.8333,9.5 76.1667,9.5 76.5,9.5C 77.8333,12.1667 77.8333,14.8333 76.5,17.5C 75.1667,17.5 74.5,18.1667 74.5,19.5C 73.9033,19.2648 73.5699,18.7648 73.5,18C 74.8847,16.4029 75.5514,14.5695 75.5,12.5C 75.5,11.5 75.5,10.5 75.5,9.5 Z"/></g>
<g><path style="opacity:1" fill="#27196a" d="M 55.5,16.5 C 58.6248,15.5206 61.9581,15.1872 65.5,15.5C 66.287,17.1042 67.6203,17.7709 69.5,17.5C 69.5,19.5 69.5,21.5 69.5,23.5C 69.1667,23.5 68.8333,23.5 68.5,23.5C 68.5,21.8333 68.5,20.1667 68.5,18.5C 64.412,16.8198 60.0787,16.1532 55.5,16.5 Z"/></g>
<g><path style="opacity:1" fill="#8c0e6f" d="M 18.5,10.5 C 20.1788,10.2852 21.1788,10.9519 21.5,12.5C 22.8062,13.4674 23.4729,14.8007 23.5,16.5C 25.099,16.2322 26.4324,16.5655 27.5,17.5C 27.7373,18.791 27.404,19.791 26.5,20.5C 26.728,18.6453 26.0613,17.8119 24.5,18C 21.1517,20.5014 18.8184,23.6681 17.5,27.5C 16.6618,27.1583 16.3284,26.4916 16.5,25.5C 18.4483,22.5355 20.4483,19.5355 22.5,16.5C 22.1667,15.8333 21.8333,15.1667 21.5,14.5C 19.1825,18.0898 15.8492,19.4231 11.5,18.5C 13.117,15.2157 15.4503,12.5491 18.5,10.5 Z"/></g>
<g><path style="opacity:1" fill="#0e0e3a" d="M 33.5,12.5 C 32.8902,13.391 32.5569,14.391 32.5,15.5C 35.1178,16.056 37.1178,16.7227 38.5,17.5C 34.8333,17.5 31.1667,17.5 27.5,17.5C 26.4324,16.5655 25.099,16.2322 23.5,16.5C 23.4729,14.8007 22.8062,13.4674 21.5,12.5C 22.8333,12.5 24.1667,12.5 25.5,12.5C 27.5295,13.2724 29.3629,12.6057 31,10.5C 31.4169,11.756 32.2502,12.4226 33.5,12.5 Z"/></g>
<g><path style="opacity:1" fill="#b00461" d="M 54.5,14.5 C 54.5,15.1667 54.5,15.8333 54.5,16.5C 53.8333,16.5 53.5,16.8333 53.5,17.5C 51.4131,18.5846 50.0798,20.2512 49.5,22.5C 48.8333,21.8333 48.1667,21.1667 47.5,20.5C 47.5,20.1667 47.5,19.8333 47.5,19.5C 48.9981,16.6691 51.3315,15.0025 54.5,14.5 Z"/></g>
<g><path style="opacity:1" fill="#8e3e4d" d="M 47.5,17.5 C 46.1667,17.5 44.8333,17.5 43.5,17.5C 43.5,18.5 43.5,19.5 43.5,20.5C 39.4517,20.3946 35.4517,20.7279 31.5,21.5C 33.1016,19.9261 35.1016,19.2594 37.5,19.5C 39.288,19.7852 40.9547,19.4519 42.5,18.5C 42.2907,17.914 41.9574,17.414 41.5,17C 43.7116,16.2109 45.7116,16.3775 47.5,17.5 Z"/></g>
<g><path style="opacity:1" fill="#260846" d="M 27.5,17.5 C 31.1667,17.5 34.8333,17.5 38.5,17.5C 38.1667,18.1667 37.8333,18.8333 37.5,19.5C 35.1016,19.2594 33.1016,19.9261 31.5,21.5C 29.3812,21.4677 28.0478,22.4677 27.5,24.5C 25.8958,25.287 25.2291,26.6203 25.5,28.5C 24.8423,27.6016 24.1757,26.6016 23.5,25.5C 22.4822,26.1925 21.4822,26.8592 20.5,27.5C 22.4192,25.1799 24.4192,22.8466 26.5,20.5C 27.404,19.791 27.7373,18.791 27.5,17.5 Z"/></g>
<g><path style="opacity:0.592" fill="#c0ccd8" d="M 76.5,17.5 C 77.8333,19.5 79.1667,21.5 80.5,23.5C 79.3951,22.3995 78.0618,21.7329 76.5,21.5C 76.5,20.8333 76.1667,20.5 75.5,20.5C 75.5,19.8333 75.1667,19.5 74.5,19.5C 74.5,18.1667 75.1667,17.5 76.5,17.5 Z"/></g>
<g><path style="opacity:1" fill="#541559" d="M 9.5,20.5 C 10.675,20.281 11.675,20.6143 12.5,21.5C 11.3112,22.4287 9.97782,22.762 8.5,22.5C 8.32842,21.5084 8.66175,20.8417 9.5,20.5 Z"/></g>
<g><path style="opacity:1" fill="#d46255" d="M 47.5,17.5 C 47.5,18.1667 47.5,18.8333 47.5,19.5C 46.8826,19.6107 46.3826,19.944 46,20.5C 45.5026,23.146 45.3359,25.8127 45.5,28.5C 44.6909,26.7078 44.1909,24.7078 44,22.5C 43.7638,24.764 43.2638,26.9307 42.5,29C 44.6192,29.3418 44.9526,30.1751 43.5,31.5C 41.0705,29.0551 38.4038,27.0551 35.5,25.5C 33.6309,24.8354 31.6309,24.1687 29.5,23.5C 30.2427,22.8182 30.9094,22.1515 31.5,21.5C 35.4517,20.7279 39.4517,20.3946 43.5,20.5C 43.5,19.5 43.5,18.5 43.5,17.5C 44.8333,17.5 46.1667,17.5 47.5,17.5 Z"/></g>
<g><path style="opacity:1" fill="#6248c7" d="M 54.5,16.5 C 54.8333,16.5 55.1667,16.5 55.5,16.5C 57.8567,18.0984 60.5234,19.0984 63.5,19.5C 60.5,19.5 57.5,19.5 54.5,19.5C 54.5,20.8333 54.5,22.1667 54.5,23.5C 51.9521,25.0378 51.9521,26.7044 54.5,28.5C 54.5,28.8333 54.5,29.1667 54.5,29.5C 53.8333,29.8333 53.1667,30.1667 52.5,30.5C 51.4675,29.0883 50.8008,27.4216 50.5,25.5C 51.1221,22.6264 52.1221,19.9597 53.5,17.5C 53.5,16.8333 53.8333,16.5 54.5,16.5 Z"/></g>
<g><path style="opacity:1" fill="#473ae2" d="M 55.5,16.5 C 60.0787,16.1532 64.412,16.8198 68.5,18.5C 68.5,20.1667 68.5,21.8333 68.5,23.5C 67.8333,23.5 67.1667,23.5 66.5,23.5C 64.7986,22.7886 63.7986,21.4553 63.5,19.5C 60.5234,19.0984 57.8567,18.0984 55.5,16.5 Z"/></g>
<g><path style="opacity:1" fill="#701154" d="M 67.5,14.5 C 70.9427,15.8829 72.4427,18.5495 72,22.5C 72.7096,21.0267 73.8762,20.3601 75.5,20.5C 76.1667,20.5 76.5,20.8333 76.5,21.5C 76.0954,22.5498 75.4288,22.5498 74.5,21.5C 73.7025,21.9569 73.3691,22.6236 73.5,23.5C 72.5,23.5 71.5,23.5 70.5,23.5C 70.5,25.8333 70.5,28.1667 70.5,30.5C 70.1667,30.5 69.8333,30.5 69.5,30.5C 69.5,28.1667 69.5,25.8333 69.5,23.5C 69.5,21.5 69.5,19.5 69.5,17.5C 67.6203,17.7709 66.287,17.1042 65.5,15.5C 65.8417,14.6618 66.5084,14.3284 67.5,14.5 Z"/></g>
<g><path style="opacity:1" fill="#ac006d" d="M 26.5,20.5 C 24.4192,22.8466 22.4192,25.1799 20.5,27.5C 19.2022,28.1157 18.2022,28.1157 17.5,27.5C 18.8184,23.6681 21.1517,20.5014 24.5,18C 26.0613,17.8119 26.728,18.6453 26.5,20.5 Z"/></g>
<g><path style="opacity:1" fill="#db7af1" d="M 63.5,19.5 C 63.7986,21.4553 64.7986,22.7886 66.5,23.5C 66.5,24.8333 66.5,26.1667 66.5,27.5C 65.9759,29.3057 65.3092,30.9724 64.5,32.5C 64.6882,30.8967 64.1882,29.5634 63,28.5C 61.3005,29.4061 59.4672,29.7394 57.5,29.5C 57.5,27.1667 57.5,24.8333 57.5,22.5C 59.288,22.7852 60.9547,22.4519 62.5,21.5C 60.5,20.1667 58.5,20.1667 56.5,21.5C 55.8728,22.4168 55.5394,23.4168 55.5,24.5C 54.8333,24.5 54.5,24.1667 54.5,23.5C 54.5,22.1667 54.5,20.8333 54.5,19.5C 57.5,19.5 60.5,19.5 63.5,19.5 Z"/></g>
<g><path style="opacity:1" fill="#a74c57" d="M 31.5,21.5 C 30.9094,22.1515 30.2427,22.8182 29.5,23.5C 31.6309,24.1687 33.6309,24.8354 35.5,25.5C 33.2646,25.2053 31.2646,25.5386 29.5,26.5C 28.8333,25.8333 28.1667,25.1667 27.5,24.5C 28.0478,22.4677 29.3812,21.4677 31.5,21.5 Z"/></g>
<g><path style="opacity:1" fill="#c30479" d="M 16.5,25.5 C 14.2362,26.2186 11.9029,26.552 9.5,26.5C 8.5,25.8333 7.5,25.1667 6.5,24.5C 6.83333,23.5 7.5,22.8333 8.5,22.5C 9.97782,22.762 11.3112,22.4287 12.5,21.5C 11.675,20.6143 10.675,20.281 9.5,20.5C 9.83333,19.5 10.5,18.8333 11.5,18.5C 15.8492,19.4231 19.1825,18.0898 21.5,14.5C 21.8333,15.1667 22.1667,15.8333 22.5,16.5C 20.4483,19.5355 18.4483,22.5355 16.5,25.5 Z"/></g>
<g><path style="opacity:1" fill="#411b5b" d="M 53.5,17.5 C 52.1221,19.9597 51.1221,22.6264 50.5,25.5C 50.8008,27.4216 51.4675,29.0883 52.5,30.5C 53.0536,34.0548 55.0536,36.3882 58.5,37.5C 58.5,37.8333 58.5,38.1667 58.5,38.5C 57.8333,38.5 57.1667,38.5 56.5,38.5C 56.1667,38.5 55.8333,38.5 55.5,38.5C 51.1004,34.0892 49.1004,28.7558 49.5,22.5C 50.0798,20.2512 51.4131,18.5846 53.5,17.5 Z"/></g>
<g><path style="opacity:1" fill="#e34fee" d="M 64.5,32.5 C 59.7324,35.8121 56.399,34.8121 54.5,29.5C 54.5,29.1667 54.5,28.8333 54.5,28.5C 55.4345,27.4324 55.7678,26.099 55.5,24.5C 55.5394,23.4168 55.8728,22.4168 56.5,21.5C 58.5,20.1667 60.5,20.1667 62.5,21.5C 60.9547,22.4519 59.288,22.7852 57.5,22.5C 57.5,24.8333 57.5,27.1667 57.5,29.5C 59.4672,29.7394 61.3005,29.4061 63,28.5C 64.1882,29.5634 64.6882,30.8967 64.5,32.5 Z"/></g>
<g><path style="opacity:1" fill="#979fe3" d="M 54.5,23.5 C 54.5,24.1667 54.8333,24.5 55.5,24.5C 55.7678,26.099 55.4345,27.4324 54.5,28.5C 51.9521,26.7044 51.9521,25.0378 54.5,23.5 Z"/></g>
<g><path style="opacity:1" fill="#4840bb" d="M 66.5,23.5 C 67.1667,23.5 67.8333,23.5 68.5,23.5C 68.8333,23.5 69.1667,23.5 69.5,23.5C 69.5,25.8333 69.5,28.1667 69.5,30.5C 69.9754,33.3126 68.9754,35.3126 66.5,36.5C 67.6148,34.6931 68.2814,32.6931 68.5,30.5C 68.3601,28.9704 67.6935,27.9704 66.5,27.5C 66.5,26.1667 66.5,24.8333 66.5,23.5 Z"/></g>
<g><path style="opacity:1" fill="#d16477" d="M 76.5,21.5 C 78.0618,21.7329 79.3951,22.3995 80.5,23.5C 81.6005,24.6049 82.2671,25.9382 82.5,27.5C 81.2618,26.5876 79.9285,26.4209 78.5,27C 78.8333,27.3333 79.1667,27.6667 79.5,28C 78.5842,28.2784 77.9175,28.7784 77.5,29.5C 76.3573,32.6839 75.6906,36.0173 75.5,39.5C 74.8333,39.5 74.5,39.1667 74.5,38.5C 74.5164,33.4236 74.1831,28.4236 73.5,23.5C 73.3691,22.6236 73.7025,21.9569 74.5,21.5C 75.4288,22.5498 76.0954,22.5498 76.5,21.5 Z"/></g>
<g><path style="opacity:1" fill="#d26f76" d="M 82.5,27.5 C 85.6433,27.969 87.9767,29.6356 89.5,32.5C 88.1667,32.8333 86.8333,33.1667 85.5,33.5C 83.1515,31.659 80.4848,30.3257 77.5,29.5C 77.9175,28.7784 78.5842,28.2784 79.5,28C 79.1667,27.6667 78.8333,27.3333 78.5,27C 79.9285,26.4209 81.2618,26.5876 82.5,27.5 Z"/></g>
<g><path style="opacity:1" fill="#7d57a0" d="M 9.5,27.5 C 11.288,27.2148 12.9547,27.5481 14.5,28.5C 14.1373,29.1835 13.8039,29.8501 13.5,30.5C 11.5,30.5 9.5,30.5 7.5,30.5C 5.97189,30.4827 5.47189,29.816 6,28.5C 7.01127,27.6634 8.17793,27.33 9.5,27.5 Z"/></g>
<g><path style="opacity:1" fill="#d3065a" d="M 47.5,20.5 C 48.1667,21.1667 48.8333,21.8333 49.5,22.5C 49.1004,28.7558 51.1004,34.0892 55.5,38.5C 54.4937,38.9377 54.4937,39.6043 55.5,40.5C 55.1667,40.5 54.8333,40.5 54.5,40.5C 53.1667,39.8333 52.1667,38.8333 51.5,37.5C 49.5327,33.6383 47.8661,29.6383 46.5,25.5C 47.0463,23.8653 47.3796,22.1986 47.5,20.5 Z"/></g>
<g><path style="opacity:0.882" fill="#ded6dc" d="M 80.5,23.5 C 92.1578,29.153 96.6578,38.4864 94,51.5C 91.0833,57.1741 86.9166,61.6741 81.5,65C 83.2603,65.9653 83.5937,67.132 82.5,68.5C 81.3175,66.3546 79.8175,66.3546 78,68.5C 77.8213,72.0252 77.3213,75.3586 76.5,78.5C 76.8064,75.6146 76.4731,72.9479 75.5,70.5C 74.6236,70.6309 73.9569,70.2975 73.5,69.5C 74.2427,68.8182 74.9094,68.1515 75.5,67.5C 75.8333,67.5 76.1667,67.5 76.5,67.5C 78.1898,67.1436 79.1898,66.1436 79.5,64.5C 80.5,62.8333 81.8333,61.5 83.5,60.5C 88.1444,58.2285 91.1444,54.5618 92.5,49.5C 92.5,45.8333 92.5,42.1667 92.5,38.5C 92.0879,36.1133 91.0879,34.1133 89.5,32.5C 87.9767,29.6356 85.6433,27.969 82.5,27.5C 82.2671,25.9382 81.6005,24.6049 80.5,23.5 Z"/></g>
<g><path style="opacity:1" fill="#4b366d" d="M 6.5,24.5 C 7.5,25.1667 8.5,25.8333 9.5,26.5C 9.5,26.8333 9.5,27.1667 9.5,27.5C 8.17793,27.33 7.01127,27.6634 6,28.5C 5.47189,29.816 5.97189,30.4827 7.5,30.5C 7.5,30.8333 7.5,31.1667 7.5,31.5C 6.2946,32.6857 4.96126,32.6857 3.5,31.5C 3.32526,29.3792 3.65859,27.3792 4.5,25.5C 5.16667,25.1667 5.83333,24.8333 6.5,24.5 Z"/></g>
<g><path style="opacity:1" fill="#451461" d="M 16.5,25.5 C 16.3284,26.4916 16.6618,27.1583 17.5,27.5C 18.2022,28.1157 19.2022,28.1157 20.5,27.5C 20.5,27.8333 20.5,28.1667 20.5,28.5C 19.2921,29.2341 17.9587,29.5674 16.5,29.5C 16.5,30.8333 16.5,32.1667 16.5,33.5C 14.8102,33.1436 13.8102,32.1436 13.5,30.5C 13.8039,29.8501 14.1373,29.1835 14.5,28.5C 12.9547,27.5481 11.288,27.2148 9.5,27.5C 9.5,27.1667 9.5,26.8333 9.5,26.5C 11.9029,26.552 14.2362,26.2186 16.5,25.5 Z"/></g>
<g><path style="opacity:1" fill="#e77057" d="M 27.5,24.5 C 28.1667,25.1667 28.8333,25.8333 29.5,26.5C 32.7349,28.0607 35.4016,30.3941 37.5,33.5C 35.9319,33.6408 34.2652,33.9742 32.5,34.5C 31.5713,35.6888 31.238,37.0222 31.5,38.5C 29.528,35.1845 27.528,31.8512 25.5,28.5C 25.2291,26.6203 25.8958,25.287 27.5,24.5 Z"/></g>
<g><path style="opacity:1" fill="#e0654e" d="M 45.5,28.5 C 46.7113,31.2518 48.0446,33.9184 49.5,36.5C 49.19,37.7383 48.69,37.7383 48,36.5C 48.1085,37.7688 47.9418,38.7688 47.5,39.5C 46.2719,38.6935 45.2719,37.6935 44.5,36.5C 44.3713,34.7839 44.038,33.1172 43.5,31.5C 44.9526,30.1751 44.6192,29.3418 42.5,29C 43.2638,26.9307 43.7638,24.764 44,22.5C 44.1909,24.7078 44.6909,26.7078 45.5,28.5 Z"/></g>
<g><path style="opacity:1" fill="#15083c" d="M 20.5,28.5 C 20.5,29.8333 20.5,31.1667 20.5,32.5C 20.175,40.0191 20.5084,47.3524 21.5,54.5C 22.5676,55.4345 23.901,55.7678 25.5,55.5C 25.2627,56.791 25.596,57.791 26.5,58.5C 26.0183,59.4163 25.685,60.4163 25.5,61.5C 26.5272,63.184 27.5272,64.8506 28.5,66.5C 27.8333,66.5 27.1667,66.5 26.5,66.5C 23.7753,64.0564 21.2753,61.3898 19,58.5C 17.3333,58.5 15.6667,58.5 14,58.5C 13.2828,57.9558 12.7828,57.2891 12.5,56.5C 13.209,55.596 14.209,55.2627 15.5,55.5C 16.8799,55.0377 17.5466,54.0377 17.5,52.5C 16.6413,45.9952 16.3079,39.6619 16.5,33.5C 16.5,32.1667 16.5,30.8333 16.5,29.5C 17.9587,29.5674 19.2921,29.2341 20.5,28.5 Z"/></g>
<g><path style="opacity:1" fill="#2e144d" d="M 35.5,25.5 C 38.4038,27.0551 41.0705,29.0551 43.5,31.5C 44.038,33.1172 44.3713,34.7839 44.5,36.5C 44.5,36.8333 44.5,37.1667 44.5,37.5C 42.8333,37.5 41.1667,37.5 39.5,37.5C 38.8333,36.1667 38.1667,34.8333 37.5,33.5C 35.4016,30.3941 32.7349,28.0607 29.5,26.5C 31.2646,25.5386 33.2646,25.2053 35.5,25.5 Z"/></g>
<g><path style="opacity:1" fill="#c40044" d="M 73.5,23.5 C 73.8494,27.0644 73.1827,30.3978 71.5,33.5C 70.6143,32.675 70.281,31.675 70.5,30.5C 70.5,28.1667 70.5,25.8333 70.5,23.5C 71.5,23.5 72.5,23.5 73.5,23.5 Z"/></g>
<g><path style="opacity:1" fill="#7c364a" d="M 47.5,19.5 C 47.5,19.8333 47.5,20.1667 47.5,20.5C 47.3796,22.1986 47.0463,23.8653 46.5,25.5C 47.8661,29.6383 49.5327,33.6383 51.5,37.5C 50.8333,37.1667 50.1667,36.8333 49.5,36.5C 48.0446,33.9184 46.7113,31.2518 45.5,28.5C 45.3359,25.8127 45.5026,23.146 46,20.5C 46.3826,19.944 46.8826,19.6107 47.5,19.5 Z"/></g>
<g><path style="opacity:0.953" fill="#7860a9" d="M 3.5,31.5 C 2.76589,32.7079 2.43255,34.0413 2.5,35.5C 1.87605,35.0831 1.54272,34.4164 1.5,33.5C 1.74716,32.2867 2.41383,31.62 3.5,31.5 Z"/></g>
<g><path style="opacity:1" fill="#261236" d="M 25.5,28.5 C 27.528,31.8512 29.528,35.1845 31.5,38.5C 32.8333,41.8333 32.8333,45.1667 31.5,48.5C 31.8174,45.4281 31.4841,42.4281 30.5,39.5C 29.8326,42.6417 29.166,45.6417 28.5,48.5C 28.5,45.5 28.5,42.5 28.5,39.5C 28.6495,38.448 28.4828,37.448 28,36.5C 25.7822,35.0758 24.2822,33.0758 23.5,30.5C 22.4822,31.1925 21.4822,31.8592 20.5,32.5C 20.5,31.1667 20.5,29.8333 20.5,28.5C 20.5,28.1667 20.5,27.8333 20.5,27.5C 21.4822,26.8592 22.4822,26.1925 23.5,25.5C 24.1757,26.6016 24.8423,27.6016 25.5,28.5 Z"/></g>
<g><path style="opacity:1" fill="#321b54" d="M 28.5,39.5 C 27.5,39.5 26.5,39.5 25.5,39.5C 25.5,38.1667 25.5,36.8333 25.5,35.5C 24.1667,35.5 22.8333,35.5 21.5,35.5C 21.5,37.5 21.5,39.5 21.5,41.5C 21.5,45.8333 21.5,50.1667 21.5,54.5C 20.5084,47.3524 20.175,40.0191 20.5,32.5C 21.4822,31.8592 22.4822,31.1925 23.5,30.5C 24.2822,33.0758 25.7822,35.0758 28,36.5C 28.4828,37.448 28.6495,38.448 28.5,39.5 Z"/></g>
<g><path style="opacity:1" fill="#6236ca" d="M 66.5,27.5 C 67.6935,27.9704 68.3601,28.9704 68.5,30.5C 68.2814,32.6931 67.6148,34.6931 66.5,36.5C 66.1667,36.5 65.8333,36.5 65.5,36.5C 65.1667,36.5 64.8333,36.5 64.5,36.5C 64.5,35.1667 64.5,33.8333 64.5,32.5C 65.3092,30.9724 65.9759,29.3057 66.5,27.5 Z"/></g>
<g><path style="opacity:1" fill="#fbdcb9" d="M 77.5,29.5 C 80.4848,30.3257 83.1515,31.659 85.5,33.5C 85.5,34.1667 85.5,34.8333 85.5,35.5C 83.8786,37.2299 82.5452,39.2299 81.5,41.5C 80.5489,42.9187 80.2155,44.5853 80.5,46.5C 79.5,46.5 78.5,46.5 77.5,46.5C 77.7678,44.901 77.4345,43.5676 76.5,42.5C 75.8902,41.609 75.5569,40.609 75.5,39.5C 75.6906,36.0173 76.3573,32.6839 77.5,29.5 Z"/></g>
<g><path style="opacity:1" fill="#a20ccf" d="M 54.5,29.5 C 56.399,34.8121 59.7324,35.8121 64.5,32.5C 64.5,33.8333 64.5,35.1667 64.5,36.5C 62.7354,37.4614 60.7354,37.7947 58.5,37.5C 55.0536,36.3882 53.0536,34.0548 52.5,30.5C 53.1667,30.1667 53.8333,29.8333 54.5,29.5 Z"/></g>
<g><path style="opacity:1" fill="#24183f" d="M 2.5,35.5 C 3.83333,35.5 5.16667,35.5 6.5,35.5C 6.5,36.5 6.5,37.5 6.5,38.5C 5.16667,38.5 3.83333,38.5 2.5,38.5C 2.5,37.5 2.5,36.5 2.5,35.5 Z"/></g>
<g><path style="opacity:1" fill="#7e184e" d="M 73.5,23.5 C 74.1831,28.4236 74.5164,33.4236 74.5,38.5C 73.8333,38.5 73.1667,38.5 72.5,38.5C 72.762,37.0222 72.4287,35.6888 71.5,34.5C 69.7863,36.3504 67.7863,37.6837 65.5,38.5C 65.5,37.8333 65.5,37.1667 65.5,36.5C 65.8333,36.5 66.1667,36.5 66.5,36.5C 68.9754,35.3126 69.9754,33.3126 69.5,30.5C 69.8333,30.5 70.1667,30.5 70.5,30.5C 70.281,31.675 70.6143,32.675 71.5,33.5C 73.1827,30.3978 73.8494,27.0644 73.5,23.5 Z"/></g>
<g><path style="opacity:1" fill="#d66d70" d="M 89.5,32.5 C 91.0879,34.1133 92.0879,36.1133 92.5,38.5C 91.4168,38.4606 90.4168,38.1272 89.5,37.5C 88.8243,38.6016 88.1577,39.6016 87.5,40.5C 85.6122,42.9878 84.9455,45.9878 85.5,49.5C 84.1024,48.2233 83.4357,46.5566 83.5,44.5C 84.1722,41.4877 84.8389,38.4877 85.5,35.5C 85.5,34.8333 85.5,34.1667 85.5,33.5C 86.8333,33.1667 88.1667,32.8333 89.5,32.5 Z"/></g>
<g><path style="opacity:1" fill="#f30087" d="M 9.5,31.5 C 10.6935,31.9704 11.3601,32.9704 11.5,34.5C 10.2964,39.9907 10.2964,45.324 11.5,50.5C 11.5,52.5 11.5,54.5 11.5,56.5C 11.1667,56.5 10.8333,56.5 10.5,56.5C 9.53141,48.2517 9.19808,39.9183 9.5,31.5 Z"/></g>
<g><path style="opacity:1" fill="#b80075" d="M 15.5,55.5 C 14.209,55.2627 13.209,55.596 12.5,56.5C 12.1667,56.5 11.8333,56.5 11.5,56.5C 11.5,54.5 11.5,52.5 11.5,50.5C 12.1451,44.9357 12.9785,39.2691 14,33.5C 14.3637,40.8516 14.8637,48.1849 15.5,55.5 Z"/></g>
<g><path style="opacity:1" fill="#c30986" d="M 3.5,31.5 C 4.96126,32.6857 6.2946,32.6857 7.5,31.5C 8.16667,31.5 8.83333,31.5 9.5,31.5C 9.19808,39.9183 9.53141,48.2517 10.5,56.5C 9.83333,56.5 9.5,56.8333 9.5,57.5C 8.24356,57.0962 7.0769,56.4295 6,55.5C 4.86151,55.9891 3.69484,56.3225 2.5,56.5C 2.5,55.5 2.5,54.5 2.5,53.5C 3.79105,53.7373 4.79105,53.404 5.5,52.5C 6.33825,52.1583 6.67158,51.4916 6.5,50.5C 7.80011,48.777 8.46677,46.6103 8.5,44C 8.33333,41.8333 8.16667,39.6667 8,37.5C 7.82382,41.6877 7.32382,45.6877 6.5,49.5C 5.16667,49.5 3.83333,49.5 2.5,49.5C 1.16667,48.1667 1.16667,46.8333 2.5,45.5C 2.5,46.5 2.5,47.5 2.5,48.5C 3.83333,48.5 5.16667,48.5 6.5,48.5C 6.73731,47.209 6.40397,46.209 5.5,45.5C 5.5,44.5 5.5,43.5 5.5,42.5C 6.40397,41.791 6.73731,40.791 6.5,39.5C 5.16667,39.5 3.83333,39.5 2.5,39.5C 2.5,40.5 2.5,41.5 2.5,42.5C 1.16667,41.1667 1.16667,39.8333 2.5,38.5C 3.83333,38.5 5.16667,38.5 6.5,38.5C 6.5,37.5 6.5,36.5 6.5,35.5C 5.16667,35.5 3.83333,35.5 2.5,35.5C 2.43255,34.0413 2.76589,32.7079 3.5,31.5 Z"/></g>
<g><path style="opacity:1" fill="#382156" d="M 44.5,36.5 C 45.2719,37.6935 46.2719,38.6935 47.5,39.5C 48.2318,44.1136 47.2318,48.1136 44.5,51.5C 44.0349,47.6006 43.3682,43.7672 42.5,40C 43.756,39.5831 44.4226,38.7498 44.5,37.5C 44.5,37.1667 44.5,36.8333 44.5,36.5 Z"/></g>
<g><path style="opacity:1" fill="#fc004a" d="M 55.5,38.5 C 55.8333,38.5 56.1667,38.5 56.5,38.5C 58.273,41.4882 58.9396,44.8215 58.5,48.5C 56.9016,46.1433 55.9016,43.4766 55.5,40.5C 54.4937,39.6043 54.4937,38.9377 55.5,38.5 Z"/></g>
<g><path style="opacity:1" fill="#fdd8b6" d="M 92.5,38.5 C 92.5,42.1667 92.5,45.8333 92.5,49.5C 91.0222,49.762 89.6888,49.4287 88.5,48.5C 87.6072,45.9159 87.2739,43.2492 87.5,40.5C 88.1577,39.6016 88.8243,38.6016 89.5,37.5C 90.4168,38.1272 91.4168,38.4606 92.5,38.5 Z"/></g>
<g><path style="opacity:1" fill="#f60086" d="M 5.5,42.5 C 4.5,42.5 3.5,42.5 2.5,42.5C 2.5,41.5 2.5,40.5 2.5,39.5C 3.83333,39.5 5.16667,39.5 6.5,39.5C 6.73731,40.791 6.40397,41.791 5.5,42.5 Z"/></g>
<g><path style="opacity:1" fill="#8a0070" d="M 7.5,31.5 C 7.5,31.1667 7.5,30.8333 7.5,30.5C 9.5,30.5 11.5,30.5 13.5,30.5C 13.8102,32.1436 14.8102,33.1436 16.5,33.5C 16.3079,39.6619 16.6413,45.9952 17.5,52.5C 17.5466,54.0377 16.8799,55.0377 15.5,55.5C 14.8637,48.1849 14.3637,40.8516 14,33.5C 12.9785,39.2691 12.1451,44.9357 11.5,50.5C 10.2964,45.324 10.2964,39.9907 11.5,34.5C 11.3601,32.9704 10.6935,31.9704 9.5,31.5C 8.83333,31.5 8.16667,31.5 7.5,31.5 Z"/></g>
<g><path style="opacity:1" fill="#ef745a" d="M 37.5,33.5 C 38.1667,34.8333 38.8333,36.1667 39.5,37.5C 39.5,41.8333 39.5,46.1667 39.5,50.5C 39.1667,50.5 38.8333,50.5 38.5,50.5C 36.4175,51.5877 34.2508,52.5877 32,53.5C 31.51,52.2068 31.3433,50.8734 31.5,49.5C 31.5,49.1667 31.5,48.8333 31.5,48.5C 32.8333,45.1667 32.8333,41.8333 31.5,38.5C 31.238,37.0222 31.5713,35.6888 32.5,34.5C 34.2652,33.9742 35.9319,33.6408 37.5,33.5 Z"/></g>
<g><path style="opacity:1" fill="#321f56" d="M 39.5,37.5 C 41.1667,37.5 42.8333,37.5 44.5,37.5C 44.4226,38.7498 43.756,39.5831 42.5,40C 43.3682,43.7672 44.0349,47.6006 44.5,51.5C 44.5,52.5 44.5,53.5 44.5,54.5C 44.1667,54.5 43.8333,54.5 43.5,54.5C 43.5,53.5 43.5,52.5 43.5,51.5C 42.0413,51.5674 40.7079,51.2341 39.5,50.5C 39.5,46.1667 39.5,41.8333 39.5,37.5 Z"/></g>
<g><path style="opacity:1" fill="#1c0e2c" d="M 64.5,36.5 C 64.8333,36.5 65.1667,36.5 65.5,36.5C 65.5,37.1667 65.5,37.8333 65.5,38.5C 63.8333,38.5 62.1667,38.5 60.5,38.5C 60.5,42.1667 60.5,45.8333 60.5,49.5C 62.4147,49.2155 64.0813,49.5489 65.5,50.5C 62.5,50.5 59.5,50.5 56.5,50.5C 57.1667,49.8333 57.8333,49.1667 58.5,48.5C 59.8333,45.1667 59.8333,41.8333 58.5,38.5C 58.5,38.1667 58.5,37.8333 58.5,37.5C 60.7354,37.7947 62.7354,37.4614 64.5,36.5 Z"/></g>
<g><path style="opacity:1" fill="#9e023e" d="M 65.5,38.5 C 63.727,41.4882 63.0604,44.8215 63.5,48.5C 65.1788,48.2852 66.1788,48.9519 66.5,50.5C 66.1667,50.5 65.8333,50.5 65.5,50.5C 64.0813,49.5489 62.4147,49.2155 60.5,49.5C 60.5,45.8333 60.5,42.1667 60.5,38.5C 62.1667,38.5 63.8333,38.5 65.5,38.5 Z"/></g>
<g><path style="opacity:1" fill="#ec7554" d="M 49.5,36.5 C 50.1667,36.8333 50.8333,37.1667 51.5,37.5C 52.1667,38.8333 53.1667,39.8333 54.5,40.5C 54.5,43.1667 54.5,45.8333 54.5,48.5C 50.6858,49.9742 48.3525,52.6409 47.5,56.5C 45.8212,56.7148 44.8212,56.0481 44.5,54.5C 44.5,53.5 44.5,52.5 44.5,51.5C 47.2318,48.1136 48.2318,44.1136 47.5,39.5C 47.9418,38.7688 48.1085,37.7688 48,36.5C 48.69,37.7383 49.19,37.7383 49.5,36.5 Z"/></g>
<g><path style="opacity:1" fill="#610b35" d="M 56.5,38.5 C 57.1667,38.5 57.8333,38.5 58.5,38.5C 59.8333,41.8333 59.8333,45.1667 58.5,48.5C 58.9396,44.8215 58.273,41.4882 56.5,38.5 Z"/></g>
<g><path style="opacity:1" fill="#160c33" d="M 72.5,38.5 C 71.5084,38.3284 70.8417,38.6618 70.5,39.5C 70.5,39.8333 70.5,40.1667 70.5,40.5C 69.8333,40.8333 69.1667,41.1667 68.5,41.5C 67.3871,42.9464 67.2204,44.6131 68,46.5C 68.6708,47.2524 69.5041,47.5858 70.5,47.5C 70.5,47.8333 70.5,48.1667 70.5,48.5C 70.9321,49.7095 71.5987,50.7095 72.5,51.5C 73.3414,53.3792 73.6747,55.3792 73.5,57.5C 73.1667,57.5 72.8333,57.5 72.5,57.5C 72.9118,55.0274 71.9118,53.6941 69.5,53.5C 68.1667,52.8333 67.1667,51.8333 66.5,50.5C 66.1788,48.9519 65.1788,48.2852 63.5,48.5C 63.0604,44.8215 63.727,41.4882 65.5,38.5C 67.7863,37.6837 69.7863,36.3504 71.5,34.5C 72.4287,35.6888 72.762,37.0222 72.5,38.5 Z"/></g>
<g><path style="opacity:1" fill="#f7a68b" d="M 70.5,40.5 C 71.8333,42.8333 71.8333,45.1667 70.5,47.5C 68.9192,45.8583 68.2525,43.8583 68.5,41.5C 69.1667,41.1667 69.8333,40.8333 70.5,40.5 Z"/></g>
<g><path style="opacity:1" fill="#70404c" d="M 70.5,39.5 C 70.8417,38.6618 71.5084,38.3284 72.5,38.5C 73.1667,38.5 73.8333,38.5 74.5,38.5C 74.5,39.1667 74.8333,39.5 75.5,39.5C 75.5569,40.609 75.8902,41.609 76.5,42.5C 76.5905,45.1522 75.9238,47.4855 74.5,49.5C 73.1667,49.5 72.5,50.1667 72.5,51.5C 71.5987,50.7095 70.9321,49.7095 70.5,48.5C 72.2012,47.4755 73.5345,45.9755 74.5,44C 73.5345,42.0245 72.2012,40.5245 70.5,39.5 Z"/></g>
<g><path style="opacity:1" fill="#181227" d="M 2.5,42.5 C 3.5,42.5 4.5,42.5 5.5,42.5C 5.5,43.5 5.5,44.5 5.5,45.5C 4.5,45.5 3.5,45.5 2.5,45.5C 2.5,44.5 2.5,43.5 2.5,42.5 Z"/></g>
<g><path style="opacity:1" fill="#6e0565" d="M 6.5,50.5 C 6.5,50.1667 6.5,49.8333 6.5,49.5C 7.32382,45.6877 7.82382,41.6877 8,37.5C 8.16667,39.6667 8.33333,41.8333 8.5,44C 8.46677,46.6103 7.80011,48.777 6.5,50.5 Z"/></g>
<g><path style="opacity:1" fill="#472d63" d="M 28.5,39.5 C 28.5,42.5 28.5,45.5 28.5,48.5C 27.8333,49.8333 27.1667,51.1667 26.5,52.5C 25.6275,48.8789 24.9608,45.2122 24.5,41.5C 23.5,41.5 22.5,41.5 21.5,41.5C 21.5,39.5 21.5,37.5 21.5,35.5C 22.8333,35.5 24.1667,35.5 25.5,35.5C 25.5,36.8333 25.5,38.1667 25.5,39.5C 26.5,39.5 27.5,39.5 28.5,39.5 Z"/></g>
<g><path style="opacity:1" fill="#6f454d" d="M 85.5,35.5 C 84.8389,38.4877 84.1722,41.4877 83.5,44.5C 83.4357,46.5566 84.1024,48.2233 85.5,49.5C 85.5,50.5 85.5,51.5 85.5,52.5C 82.8101,49.4305 81.4767,45.7639 81.5,41.5C 82.5452,39.2299 83.8786,37.2299 85.5,35.5 Z"/></g>
<g><path style="opacity:0.074" fill="#c5d5e1" d="M 4.5,25.5 C 3.65859,27.3792 3.32526,29.3792 3.5,31.5C 2.41383,31.62 1.74716,32.2867 1.5,33.5C 1.54272,34.4164 1.87605,35.0831 2.5,35.5C 2.5,36.5 2.5,37.5 2.5,38.5C 1.16667,39.8333 1.16667,41.1667 2.5,42.5C 2.5,43.5 2.5,44.5 2.5,45.5C 1.16667,46.8333 1.16667,48.1667 2.5,49.5C 2.5,50.5 2.5,51.5 2.5,52.5C 1.16667,53.8333 1.16667,55.1667 2.5,56.5C 3.32525,59.484 4.65859,62.1506 6.5,64.5C 6.84171,65.3382 7.50838,65.6716 8.5,65.5C 9.26253,66.2679 10.2625,66.7679 11.5,67C 10.2004,68.5788 10.5337,69.7455 12.5,70.5C 12.9321,71.7095 13.5987,72.7095 14.5,73.5C 15.5,74.8333 16.5,76.1667 17.5,77.5C 17.5,77.8333 17.5,78.1667 17.5,78.5C 10.5212,71.8199 4.52117,64.4866 -0.5,56.5C -0.5,55.1667 -0.5,53.8333 -0.5,52.5C 0.833333,51.8333 0.833333,51.1667 -0.5,50.5C -0.5,48.5 -0.5,46.5 -0.5,44.5C 0.833333,44.1667 0.833333,43.8333 -0.5,43.5C -0.5,41.5 -0.5,39.5 -0.5,37.5C 0.833333,36.5 0.833333,35.5 -0.5,34.5C -0.5,33.8333 -0.5,33.1667 -0.5,32.5C 0.451959,31.548 1.45196,30.548 2.5,29.5C 1.50093,27.495 2.1676,26.1617 4.5,25.5 Z"/></g>
<g><path style="opacity:0.992" fill="#a68692" d="M 68.5,41.5 C 68.2525,43.8583 68.9192,45.8583 70.5,47.5C 69.5041,47.5858 68.6708,47.2524 68,46.5C 67.2204,44.6131 67.3871,42.9464 68.5,41.5 Z"/></g>
<g><path style="opacity:1" fill="#cc695c" d="M 70.5,40.5 C 70.5,40.1667 70.5,39.8333 70.5,39.5C 72.2012,40.5245 73.5345,42.0245 74.5,44C 73.5345,45.9755 72.2012,47.4755 70.5,48.5C 70.5,48.1667 70.5,47.8333 70.5,47.5C 71.8333,45.1667 71.8333,42.8333 70.5,40.5 Z"/></g>
<g><path style="opacity:1" fill="#f60079" d="M 2.5,45.5 C 3.5,45.5 4.5,45.5 5.5,45.5C 6.40397,46.209 6.73731,47.209 6.5,48.5C 5.16667,48.5 3.83333,48.5 2.5,48.5C 2.5,47.5 2.5,46.5 2.5,45.5 Z"/></g>
<g><path style="opacity:1" fill="#f8d7b6" d="M 81.5,41.5 C 81.4767,45.7639 82.8101,49.4305 85.5,52.5C 84.4661,55.8584 82.1327,57.8584 78.5,58.5C 77.6942,57.0028 77.0276,55.3361 76.5,53.5C 76.0431,52.7025 75.3764,52.3691 74.5,52.5C 74.5,51.5 74.5,50.5 74.5,49.5C 75.9238,47.4855 76.5905,45.1522 76.5,42.5C 77.4345,43.5676 77.7678,44.901 77.5,46.5C 78.5,46.5 79.5,46.5 80.5,46.5C 80.2155,44.5853 80.5489,42.9187 81.5,41.5 Z"/></g>
<g><path style="opacity:1" fill="#543969" d="M 21.5,41.5 C 22.5,41.5 23.5,41.5 24.5,41.5C 24.9608,45.2122 25.6275,48.8789 26.5,52.5C 25.596,53.209 25.2627,54.209 25.5,55.5C 23.901,55.7678 22.5676,55.4345 21.5,54.5C 21.5,50.1667 21.5,45.8333 21.5,41.5 Z"/></g>
<g><path style="opacity:1" fill="#983353" d="M 54.5,48.5 C 52.8729,50.6298 51.0396,52.6298 49,54.5C 48.5172,55.448 48.3505,56.448 48.5,57.5C 48.1667,57.5 47.8333,57.5 47.5,57.5C 47.5,57.1667 47.5,56.8333 47.5,56.5C 48.3525,52.6409 50.6858,49.9742 54.5,48.5 Z"/></g>
<g><path style="opacity:1" fill="#db7975" d="M 87.5,40.5 C 87.2739,43.2492 87.6072,45.9159 88.5,48.5C 89.6888,49.4287 91.0222,49.762 92.5,49.5C 91.1444,54.5618 88.1444,58.2285 83.5,60.5C 81.8333,59.8333 80.1667,59.1667 78.5,58.5C 82.1327,57.8584 84.4661,55.8584 85.5,52.5C 85.5,51.5 85.5,50.5 85.5,49.5C 84.9455,45.9878 85.6122,42.9878 87.5,40.5 Z"/></g>
<g><path style="opacity:1" fill="#1f153f" d="M 2.5,49.5 C 3.83333,49.5 5.16667,49.5 6.5,49.5C 6.5,49.8333 6.5,50.1667 6.5,50.5C 6.67158,51.4916 6.33825,52.1583 5.5,52.5C 4.5,52.5 3.5,52.5 2.5,52.5C 2.5,51.5 2.5,50.5 2.5,49.5 Z"/></g>
<g><path style="opacity:1" fill="#2e124f" d="M 38.5,50.5 C 38.8333,50.5 39.1667,50.5 39.5,50.5C 40.7079,51.2341 42.0413,51.5674 43.5,51.5C 43.5,52.5 43.5,53.5 43.5,54.5C 40.7082,60.7005 36.0415,63.0338 29.5,61.5C 31.1836,60.8503 32.5169,59.8503 33.5,58.5C 36.639,56.915 38.3056,54.2483 38.5,50.5 Z"/></g>
<g><path style="opacity:1" fill="#e3715a" d="M 31.5,49.5 C 31.3433,50.8734 31.51,52.2068 32,53.5C 34.2508,52.5877 36.4175,51.5877 38.5,50.5C 38.3056,54.2483 36.639,56.915 33.5,58.5C 32.1667,58.5 30.8333,58.5 29.5,58.5C 29.5,56.8333 29.5,55.1667 29.5,53.5C 30.1667,52.1667 30.8333,50.8333 31.5,49.5 Z"/></g>
<g><path style="opacity:0.984" fill="#7a3f92" d="M 2.5,52.5 C 3.5,52.5 4.5,52.5 5.5,52.5C 4.79105,53.404 3.79105,53.7373 2.5,53.5C 2.5,54.5 2.5,55.5 2.5,56.5C 1.16667,55.1667 1.16667,53.8333 2.5,52.5 Z"/></g>
<g><path style="opacity:1" fill="#c21b5b" d="M 54.5,40.5 C 54.8333,40.5 55.1667,40.5 55.5,40.5C 55.9016,43.4766 56.9016,46.1433 58.5,48.5C 57.8333,49.1667 57.1667,49.8333 56.5,50.5C 51.1325,53.579 48.7992,58.2456 49.5,64.5C 47.8235,63.8166 47.1568,62.4832 47.5,60.5C 48.1098,59.609 48.4431,58.609 48.5,57.5C 48.3505,56.448 48.5172,55.448 49,54.5C 51.0396,52.6298 52.8729,50.6298 54.5,48.5C 54.5,45.8333 54.5,43.1667 54.5,40.5 Z"/></g>
<g><path style="opacity:1" fill="#0e0633" d="M 31.5,48.5 C 31.5,48.8333 31.5,49.1667 31.5,49.5C 30.8333,50.8333 30.1667,52.1667 29.5,53.5C 29.0276,55.5313 28.0276,57.1979 26.5,58.5C 25.596,57.791 25.2627,56.791 25.5,55.5C 25.2627,54.209 25.596,53.209 26.5,52.5C 27.1667,51.1667 27.8333,49.8333 28.5,48.5C 29.166,45.6417 29.8326,42.6417 30.5,39.5C 31.4841,42.4281 31.8174,45.4281 31.5,48.5 Z"/></g>
<g><path style="opacity:1" fill="#cf6353" d="M 29.5,53.5 C 29.5,55.1667 29.5,56.8333 29.5,58.5C 30.8333,58.5 32.1667,58.5 33.5,58.5C 32.5169,59.8503 31.1836,60.8503 29.5,61.5C 36.0415,63.0338 40.7082,60.7005 43.5,54.5C 43.8333,54.5 44.1667,54.5 44.5,54.5C 44.8212,56.0481 45.8212,56.7148 47.5,56.5C 47.5,56.8333 47.5,57.1667 47.5,57.5C 46.0277,59.1175 45.361,61.1175 45.5,63.5C 45.6667,64.8333 45.8333,66.1667 46,67.5C 46.3826,68.056 46.8826,68.3893 47.5,68.5C 47.5,69.5 47.5,70.5 47.5,71.5C 44.9407,71.8016 42.6074,71.4682 40.5,70.5C 41.3764,70.6309 42.0431,70.2975 42.5,69.5C 37.656,68.8925 32.9893,67.8925 28.5,66.5C 27.5272,64.8506 26.5272,63.184 25.5,61.5C 25.685,60.4163 26.0183,59.4163 26.5,58.5C 28.0276,57.1979 29.0276,55.5313 29.5,53.5 Z"/></g>
<g><path style="opacity:1" fill="#cd0046" d="M 72.5,57.5 C 72.8333,57.5 73.1667,57.5 73.5,57.5C 73.5,59.8333 73.5,62.1667 73.5,64.5C 72.8333,64.5 72.1667,64.5 71.5,64.5C 71.1984,61.9407 71.5318,59.6074 72.5,57.5 Z"/></g>
<g><path style="opacity:1" fill="#973c54" d="M 74.5,49.5 C 74.5,50.5 74.5,51.5 74.5,52.5C 73.9031,57.294 74.5698,61.6273 76.5,65.5C 76.5,66.1667 76.5,66.8333 76.5,67.5C 76.1667,67.5 75.8333,67.5 75.5,67.5C 73.9519,67.1788 73.2852,66.1788 73.5,64.5C 73.5,62.1667 73.5,59.8333 73.5,57.5C 73.6747,55.3792 73.3414,53.3792 72.5,51.5C 72.5,50.1667 73.1667,49.5 74.5,49.5 Z"/></g>
<g><path style="opacity:1" fill="#68418e" d="M 9.5,57.5 C 10.5862,57.62 11.2528,58.2867 11.5,59.5C 11.0576,60.7387 10.3909,61.7387 9.5,62.5C 7.82124,62.2852 6.82124,62.9519 6.5,64.5C 4.65859,62.1506 3.32525,59.484 2.5,56.5C 3.69484,56.3225 4.86151,55.9891 6,55.5C 7.0769,56.4295 8.24356,57.0962 9.5,57.5 Z"/></g>
<g><path style="opacity:1" fill="#721073" d="M 9.5,57.5 C 9.5,56.8333 9.83333,56.5 10.5,56.5C 10.8333,56.5 11.1667,56.5 11.5,56.5C 11.8333,56.5 12.1667,56.5 12.5,56.5C 12.7828,57.2891 13.2828,57.9558 14,58.5C 15.6667,58.5 17.3333,58.5 19,58.5C 21.2753,61.3898 23.7753,64.0564 26.5,66.5C 26.5,66.8333 26.5,67.1667 26.5,67.5C 23.4372,65.9488 20.7705,63.7821 18.5,61C 17.6683,60.3123 17.0016,60.479 16.5,61.5C 19.5222,64.8533 22.5222,68.1866 25.5,71.5C 24.8333,71.8333 24.1667,72.1667 23.5,72.5C 20.9676,67.2924 16.9676,63.9591 11.5,62.5C 10.8333,62.5 10.1667,62.5 9.5,62.5C 10.3909,61.7387 11.0576,60.7387 11.5,59.5C 11.2528,58.2867 10.5862,57.62 9.5,57.5 Z"/></g>
<g><path style="opacity:1" fill="#683652" d="M 47.5,57.5 C 47.8333,57.5 48.1667,57.5 48.5,57.5C 48.4431,58.609 48.1098,59.609 47.5,60.5C 46.1667,62.5 46.1667,64.5 47.5,66.5C 47.5,67.1667 47.5,67.8333 47.5,68.5C 46.8826,68.3893 46.3826,68.056 46,67.5C 45.8333,66.1667 45.6667,64.8333 45.5,63.5C 45.361,61.1175 46.0277,59.1175 47.5,57.5 Z"/></g>
<g><path style="opacity:1" fill="#e16e6c" d="M 74.5,52.5 C 75.3764,52.3691 76.0431,52.7025 76.5,53.5C 77.0276,55.3361 77.6942,57.0028 78.5,58.5C 80.1667,59.1667 81.8333,59.8333 83.5,60.5C 81.8333,61.5 80.5,62.8333 79.5,64.5C 78.391,64.5569 77.391,64.8902 76.5,65.5C 74.5698,61.6273 73.9031,57.294 74.5,52.5 Z"/></g>
<g><path style="opacity:1" fill="#e9129d" d="M 9.5,62.5 C 10.1667,62.5 10.8333,62.5 11.5,62.5C 11.4142,63.4959 11.7476,64.3292 12.5,65C 11.2068,65.49 9.87344,65.6567 8.5,65.5C 7.50838,65.6716 6.84171,65.3382 6.5,64.5C 6.82124,62.9519 7.82124,62.2852 9.5,62.5 Z"/></g>
<g><path style="opacity:1" fill="#b6016c" d="M 26.5,67.5 C 27.404,68.209 27.7373,69.209 27.5,70.5C 27.1583,71.3382 26.4916,71.6716 25.5,71.5C 22.5222,68.1866 19.5222,64.8533 16.5,61.5C 17.0016,60.479 17.6683,60.3123 18.5,61C 20.7705,63.7821 23.4372,65.9488 26.5,67.5 Z"/></g>
<g><path style="opacity:0.902" fill="#cf96bb" d="M 47.5,60.5 C 47.1568,62.4832 47.8235,63.8166 49.5,64.5C 49.5,65.1667 49.5,65.8333 49.5,66.5C 48.8333,66.5 48.1667,66.5 47.5,66.5C 46.1667,64.5 46.1667,62.5 47.5,60.5 Z"/></g>
<g><path style="opacity:1" fill="#2b3d7d" d="M 56.5,50.5 C 59.5,50.5 62.5,50.5 65.5,50.5C 65.8333,50.5 66.1667,50.5 66.5,50.5C 67.1667,51.8333 68.1667,52.8333 69.5,53.5C 70.6706,58.8175 70.6706,64.1509 69.5,69.5C 68.1667,70.1667 66.8333,70.8333 65.5,71.5C 65.5,70.5 65.5,69.5 65.5,68.5C 66.5,68.5 67.5,68.5 68.5,68.5C 68.5,66.5 68.5,64.5 68.5,62.5C 69.6431,59.9321 69.4764,57.2654 68,54.5C 66.9887,53.6634 65.8221,53.33 64.5,53.5C 59.7406,50.4621 55.574,51.4621 52,56.5C 51.023,58.74 50.523,61.0733 50.5,63.5C 50.5,64.1667 50.5,64.8333 50.5,65.5C 52.1563,67.4602 53.823,69.4602 55.5,71.5C 55.1667,71.5 54.8333,71.5 54.5,71.5C 52.5,70.1667 50.8333,68.5 49.5,66.5C 49.5,65.8333 49.5,65.1667 49.5,64.5C 48.7992,58.2456 51.1325,53.579 56.5,50.5 Z"/></g>
<g><path style="opacity:1" fill="#0360d2" d="M 64.5,53.5 C 65.8221,53.33 66.9887,53.6634 68,54.5C 69.4764,57.2654 69.6431,59.9321 68.5,62.5C 67.8333,62.5 67.1667,62.5 66.5,62.5C 66.9086,59.1445 66.2419,56.1445 64.5,53.5 Z"/></g>
<g><path style="opacity:1" fill="#07c1e8" d="M 63.5,56.5 C 61.3926,57.4682 59.0593,57.8016 56.5,57.5C 56.5,59.1667 56.5,60.8333 56.5,62.5C 59.1667,62.5 61.8333,62.5 64.5,62.5C 64.2322,60.901 64.5655,59.5676 65.5,58.5C 65.2322,60.099 65.5655,61.4324 66.5,62.5C 66.4226,63.7498 65.756,64.5831 64.5,65C 59.6979,65.8977 55.0312,66.0643 50.5,65.5C 50.5,64.8333 50.5,64.1667 50.5,63.5C 52.3428,61.4532 53.6762,58.9532 54.5,56C 57.8132,53.8594 60.8132,54.0261 63.5,56.5 Z"/></g>
<g><path style="opacity:1" fill="#0280d3" d="M 64.5,53.5 C 66.2419,56.1445 66.9086,59.1445 66.5,62.5C 65.5655,61.4324 65.2322,60.099 65.5,58.5C 65.1667,57.5 64.5,56.8333 63.5,56.5C 60.8132,54.0261 57.8132,53.8594 54.5,56C 53.6762,58.9532 52.3428,61.4532 50.5,63.5C 50.523,61.0733 51.023,58.74 52,56.5C 55.574,51.4621 59.7406,50.4621 64.5,53.5 Z"/></g>
<g><path style="opacity:1" fill="#028bd9" d="M 63.5,56.5 C 64.5,56.8333 65.1667,57.5 65.5,58.5C 64.5655,59.5676 64.2322,60.901 64.5,62.5C 61.8333,62.5 59.1667,62.5 56.5,62.5C 56.5,60.8333 56.5,59.1667 56.5,57.5C 59.0593,57.8016 61.3926,57.4682 63.5,56.5 Z"/></g>
<g><path style="opacity:1" fill="#8f0344" d="M 69.5,53.5 C 71.9118,53.6941 72.9118,55.0274 72.5,57.5C 71.5318,59.6074 71.1984,61.9407 71.5,64.5C 71.8016,67.0593 71.4682,69.3926 70.5,71.5C 70.6716,70.5084 70.3382,69.8417 69.5,69.5C 70.6706,64.1509 70.6706,58.8175 69.5,53.5 Z"/></g>
<g><path style="opacity:1" fill="#715775" d="M 79.5,64.5 C 79.1898,66.1436 78.1898,67.1436 76.5,67.5C 76.5,66.8333 76.5,66.1667 76.5,65.5C 77.391,64.8902 78.391,64.5569 79.5,64.5 Z"/></g>
<g><path style="opacity:1" fill="#b4067c" d="M 11.5,62.5 C 16.9676,63.9591 20.9676,67.2924 23.5,72.5C 20.194,73.0867 19.194,74.7534 20.5,77.5C 19.5,77.5 18.5,77.5 17.5,77.5C 16.5,76.1667 15.5,74.8333 14.5,73.5C 16.0419,72.8365 17.7086,72.1698 19.5,71.5C 17.3063,71.642 14.9729,71.3086 12.5,70.5C 10.5337,69.7455 10.2004,68.5788 11.5,67C 10.2625,66.7679 9.26253,66.2679 8.5,65.5C 9.87344,65.6567 11.2068,65.49 12.5,65C 11.7476,64.3292 11.4142,63.4959 11.5,62.5 Z"/></g>
<g><path style="opacity:1" fill="#0488c5" d="M 66.5,62.5 C 67.1667,62.5 67.8333,62.5 68.5,62.5C 68.5,64.5 68.5,66.5 68.5,68.5C 67.5,68.5 66.5,68.5 65.5,68.5C 65.5,69.5 65.5,70.5 65.5,71.5C 62.1667,71.5 58.8333,71.5 55.5,71.5C 53.823,69.4602 52.1563,67.4602 50.5,65.5C 55.0312,66.0643 59.6979,65.8977 64.5,65C 65.756,64.5831 66.4226,63.7498 66.5,62.5 Z"/></g>
<g><path style="opacity:1" fill="#2b094a" d="M 26.5,67.5 C 26.5,67.1667 26.5,66.8333 26.5,66.5C 27.1667,66.5 27.8333,66.5 28.5,66.5C 32.9893,67.8925 37.656,68.8925 42.5,69.5C 42.0431,70.2975 41.3764,70.6309 40.5,70.5C 35.8918,71.6262 31.5585,71.6262 27.5,70.5C 27.7373,69.209 27.404,68.209 26.5,67.5 Z"/></g>
<g><path style="opacity:1" fill="#d6015c" d="M 47.5,66.5 C 48.1667,66.5 48.8333,66.5 49.5,66.5C 50.8333,68.5 52.5,70.1667 54.5,71.5C 54.5,72.1667 54.5,72.8333 54.5,73.5C 51.9066,72.2464 49.5732,70.5798 47.5,68.5C 47.5,67.8333 47.5,67.1667 47.5,66.5 Z"/></g>
<g><path style="opacity:1" fill="#161337" d="M 40.5,70.5 C 42.6074,71.4682 44.9407,71.8016 47.5,71.5C 46.4324,72.4345 45.099,72.7678 43.5,72.5C 39.6286,72.185 35.9619,72.5184 32.5,73.5C 32.8333,74.1667 33.1667,74.8333 33.5,75.5C 32.8485,76.0906 32.1818,76.7573 31.5,77.5C 28.6332,75.8367 25.9666,74.1701 23.5,72.5C 24.1667,72.1667 24.8333,71.8333 25.5,71.5C 26.4916,71.6716 27.1583,71.3382 27.5,70.5C 31.5585,71.6262 35.8918,71.6262 40.5,70.5 Z"/></g>
<g><path style="opacity:1" fill="#c8004b" d="M 69.5,69.5 C 70.3382,69.8417 70.6716,70.5084 70.5,71.5C 69.5,72.1667 68.5,72.8333 67.5,73.5C 65.0065,73.8693 64.3398,73.2027 65.5,71.5C 66.8333,70.8333 68.1667,70.1667 69.5,69.5 Z"/></g>
<g><path style="opacity:1" fill="#160e3c" d="M 71.5,64.5 C 72.1667,64.5 72.8333,64.5 73.5,64.5C 73.2852,66.1788 73.9519,67.1788 75.5,67.5C 74.9094,68.1515 74.2427,68.8182 73.5,69.5C 73.9569,70.2975 74.6236,70.6309 75.5,70.5C 75.5,72.1667 75.5,73.8333 75.5,75.5C 71.5,75.5 67.5,75.5 63.5,75.5C 63.5,75.1667 63.5,74.8333 63.5,74.5C 65.099,74.7678 66.4324,74.4345 67.5,73.5C 68.5,72.8333 69.5,72.1667 70.5,71.5C 71.4682,69.3926 71.8016,67.0593 71.5,64.5 Z"/></g>
<g><path style="opacity:1" fill="#751b6f" d="M 12.5,70.5 C 14.9729,71.3086 17.3063,71.642 19.5,71.5C 17.7086,72.1698 16.0419,72.8365 14.5,73.5C 13.5987,72.7095 12.9321,71.7095 12.5,70.5 Z"/></g>
<g><path style="opacity:0.724" fill="#7d939f" d="M 32.5,73.5 C 35.9619,72.5184 39.6286,72.185 43.5,72.5C 43.7148,74.1788 43.0481,75.1788 41.5,75.5C 41.6107,74.8826 41.944,74.3826 42.5,74C 39.1832,73.5017 35.8499,73.335 32.5,73.5 Z"/></g>
<g><path style="opacity:1" fill="#1f0f41" d="M 47.5,68.5 C 49.5732,70.5798 51.9066,72.2464 54.5,73.5C 57.3915,74.4025 60.3915,74.7359 63.5,74.5C 63.5,74.8333 63.5,75.1667 63.5,75.5C 57.642,75.1778 51.9753,75.5111 46.5,76.5C 44.8212,76.2852 43.8212,76.9519 43.5,78.5C 42.0937,78.0269 41.427,77.0269 41.5,75.5C 43.0481,75.1788 43.7148,74.1788 43.5,72.5C 45.099,72.7678 46.4324,72.4345 47.5,71.5C 47.5,70.5 47.5,69.5 47.5,68.5 Z"/></g>
<g><path style="opacity:0.098" fill="#d2dfe7" d="M 32.5,73.5 C 35.8499,73.335 39.1832,73.5017 42.5,74C 41.944,74.3826 41.6107,74.8826 41.5,75.5C 41.427,77.0269 42.0937,78.0269 43.5,78.5C 43.5,78.8333 43.5,79.1667 43.5,79.5C 42.0646,80.0965 40.398,80.0965 38.5,79.5C 37.4324,78.5655 36.099,78.2322 34.5,78.5C 34.7373,77.209 34.404,76.209 33.5,75.5C 33.1667,74.8333 32.8333,74.1667 32.5,73.5 Z M 35.5,74.5 C 36.8333,74.5 38.1667,74.5 39.5,74.5C 39.5,75.5 39.5,76.5 39.5,77.5C 37.0274,77.9118 35.6941,76.9118 35.5,74.5 Z"/></g>
<g><path style="opacity:1" fill="#5c1648" d="M 54.5,71.5 C 54.8333,71.5 55.1667,71.5 55.5,71.5C 58.8333,71.5 62.1667,71.5 65.5,71.5C 64.3398,73.2027 65.0065,73.8693 67.5,73.5C 66.4324,74.4345 65.099,74.7678 63.5,74.5C 60.3915,74.7359 57.3915,74.4025 54.5,73.5C 54.5,72.8333 54.5,72.1667 54.5,71.5 Z"/></g>
<g><path style="opacity:1" fill="#651c61" d="M 23.5,72.5 C 25.9666,74.1701 28.6332,75.8367 31.5,77.5C 32.1818,76.7573 32.8485,76.0906 33.5,75.5C 34.404,76.209 34.7373,77.209 34.5,78.5C 36.099,78.2322 37.4324,78.5655 38.5,79.5C 37.2652,79.7214 36.2652,80.3881 35.5,81.5C 32.896,79.9701 30.2293,78.6367 27.5,77.5C 24.9751,75.1696 22.6418,75.1696 20.5,77.5C 19.194,74.7534 20.194,73.0867 23.5,72.5 Z"/></g>
<g><path style="opacity:0.005" fill="#fafcfc" d="M 99.5,74.5 C 99.5,75.1667 99.5,75.8333 99.5,76.5C 96.6085,77.4025 93.6085,77.7359 90.5,77.5C 90.5,76.5 90.5,75.5 90.5,74.5C 93.5,74.5 96.5,74.5 99.5,74.5 Z"/></g>
<g><path style="opacity:1" fill="#46588a" d="M 27.5,77.5 C 27.5,77.8333 27.5,78.1667 27.5,78.5C 24.1667,78.5 20.8333,78.5 17.5,78.5C 17.5,78.1667 17.5,77.8333 17.5,77.5C 18.5,77.5 19.5,77.5 20.5,77.5C 22.6418,75.1696 24.9751,75.1696 27.5,77.5 Z"/></g>
<g><path style="opacity:1" fill="#f60ab5" d="M 46.5,76.5 C 51.8333,76.5 57.1667,76.5 62.5,76.5C 62.5,77.5 62.5,78.5 62.5,79.5C 56.5,79.5 50.5,79.5 44.5,79.5C 44.1667,79.5 43.8333,79.5 43.5,79.5C 43.5,79.1667 43.5,78.8333 43.5,78.5C 43.8212,76.9519 44.8212,76.2852 46.5,76.5 Z"/></g>
<g><path style="opacity:1" fill="#a50372" d="M 74.5,78.5 C 74.5,79.1667 74.1667,79.5 73.5,79.5C 70.8333,79.5 68.1667,79.5 65.5,79.5C 65.5,78.5 65.5,77.5 65.5,76.5C 69.0122,75.9455 72.0122,76.6122 74.5,78.5 Z"/></g>
<g><path style="opacity:0.753" fill="#bfd2dc" d="M 17.5,78.5 C 20.8333,78.5 24.1667,78.5 27.5,78.5C 29.6,80.6165 31.9333,82.2831 34.5,83.5C 31.4007,83.9077 29.0674,82.741 27.5,80C 23.9748,79.8213 20.6414,79.3213 17.5,78.5 Z"/></g>
<g><path style="opacity:1" fill="#2e275c" d="M 27.5,78.5 C 27.5,78.1667 27.5,77.8333 27.5,77.5C 30.2293,78.6367 32.896,79.9701 35.5,81.5C 36.2652,80.3881 37.2652,79.7214 38.5,79.5C 40.398,80.0965 42.0646,80.0965 43.5,79.5C 43.8333,79.5 44.1667,79.5 44.5,79.5C 45.7175,80.1614 47.0508,80.8281 48.5,81.5C 46.7086,82.1698 45.0419,82.8365 43.5,83.5C 43.5,84.5 43.5,85.5 43.5,86.5C 40.8791,84.5152 37.8791,83.5152 34.5,83.5C 31.9333,82.2831 29.6,80.6165 27.5,78.5 Z"/></g>
<g><path style="opacity:1" fill="#a21686" d="M 46.5,76.5 C 51.9753,75.5111 57.642,75.1778 63.5,75.5C 63.5,77.1667 63.5,78.8333 63.5,80.5C 66.3878,79.9898 68.7211,80.6565 70.5,82.5C 66.7016,83.4834 62.7016,83.8168 58.5,83.5C 55.1401,83.6159 51.8067,83.9492 48.5,84.5C 47.0813,83.5489 45.4147,83.2155 43.5,83.5C 45.0419,82.8365 46.7086,82.1698 48.5,81.5C 47.0508,80.8281 45.7175,80.1614 44.5,79.5C 50.5,79.5 56.5,79.5 62.5,79.5C 62.5,78.5 62.5,77.5 62.5,76.5C 57.1667,76.5 51.8333,76.5 46.5,76.5 Z"/></g>
<g><path style="opacity:1" fill="#421255" d="M 63.5,75.5 C 67.5,75.5 71.5,75.5 75.5,75.5C 75.7373,76.791 75.404,77.791 74.5,78.5C 72.0122,76.6122 69.0122,75.9455 65.5,76.5C 65.5,77.5 65.5,78.5 65.5,79.5C 68.1667,79.5 70.8333,79.5 73.5,79.5C 72.8333,80.8333 71.8333,81.8333 70.5,82.5C 68.7211,80.6565 66.3878,79.9898 63.5,80.5C 63.5,78.8333 63.5,77.1667 63.5,75.5 Z"/></g>
<g><path style="opacity:0.638" fill="#b4cad3" d="M 75.5,70.5 C 76.4731,72.9479 76.8064,75.6146 76.5,78.5C 74.7059,80.7966 72.7059,82.9633 70.5,85C 64.7835,85.2818 59.1169,85.9484 53.5,87C 51.6803,87.2004 50.347,88.0337 49.5,89.5C 47.5,89.5 45.5,89.5 43.5,89.5C 40.619,87.3564 37.619,85.3564 34.5,83.5C 37.8791,83.5152 40.8791,84.5152 43.5,86.5C 44.2739,87.1471 45.2739,87.4805 46.5,87.5C 50.5166,85.8385 54.5166,84.5052 58.5,83.5C 62.7016,83.8168 66.7016,83.4834 70.5,82.5C 71.8333,81.8333 72.8333,80.8333 73.5,79.5C 74.1667,79.5 74.5,79.1667 74.5,78.5C 75.404,77.791 75.7373,76.791 75.5,75.5C 75.5,73.8333 75.5,72.1667 75.5,70.5 Z"/></g>
<g><path style="opacity:1" fill="#e601b2" d="M 43.5,83.5 C 45.4147,83.2155 47.0813,83.5489 48.5,84.5C 47.4479,86.256 45.7812,86.9227 43.5,86.5C 43.5,85.5 43.5,84.5 43.5,83.5 Z"/></g>
<g><path style="opacity:1" fill="#432d62" d="M 58.5,83.5 C 54.5166,84.5052 50.5166,85.8385 46.5,87.5C 45.2739,87.4805 44.2739,87.1471 43.5,86.5C 45.7812,86.9227 47.4479,86.256 48.5,84.5C 51.8067,83.9492 55.1401,83.6159 58.5,83.5 Z"/></g>
</svg>
