<?xml version="1.0" encoding="UTF-8"?>
<!DOCTYPE svg PUBLIC "-//W3C//DTD SVG 1.1//EN" "http://www.w3.org/Graphics/SVG/1.1/DTD/svg11.dtd">
<svg xmlns="http://www.w3.org/2000/svg" version="1.1" width="100px" height="85px" style="shape-rendering:geometricPrecision; text-rendering:geometricPrecision; image-rendering:optimizeQuality; fill-rule:evenodd; clip-rule:evenodd" xmlns:xlink="http://www.w3.org/1999/xlink">
<g><path style="opacity:0.698" fill="#b7b4c2" d="M 41.5,-0.5 C 43.8333,-0.5 46.1667,-0.5 48.5,-0.5C 48.3893,0.117425 48.056,0.617425 47.5,1C 43.7521,0.779547 40.7521,2.11288 38.5,5C 37.2068,5.49001 35.8734,5.65668 34.5,5.5C 37.3982,4.27662 39.7315,2.27662 41.5,-0.5 Z"/></g>
<g><path style="opacity:0.612" fill="#bdbac4" d="M 74.5,10.5 C 73.4324,11.4345 72.099,11.7678 70.5,11.5C 69.8333,10.5 69.1667,9.5 68.5,8.5C 68.6621,6.4727 68.4955,4.4727 68,2.5C 66.9593,4.31146 65.7927,4.64479 64.5,3.5C 66.0532,1.61501 68.0532,0.615011 70.5,0.5C 70.6816,2.59136 70.3482,4.59136 69.5,6.5C 70.3601,8.93066 72.0268,10.264 74.5,10.5 Z"/></g>
<g><path style="opacity:1" fill="#414564" d="M 48.5,-0.5 C 49.1667,-0.5 49.8333,-0.5 50.5,-0.5C 52.032,1.4562 54.1986,2.4562 57,2.5C 58.9078,2.28488 60.0744,1.28488 60.5,-0.5C 61.1667,-0.5 61.8333,-0.5 62.5,-0.5C 63.1667,0.833333 63.8333,2.16667 64.5,3.5C 65.7927,4.64479 66.9593,4.31146 68,2.5C 68.4955,4.4727 68.6621,6.4727 68.5,8.5C 67.8333,8.5 67.1667,8.5 66.5,8.5C 66.6309,7.62356 66.2975,6.95689 65.5,6.5C 64.2613,6.94242 63.2613,7.60908 62.5,8.5C 62.0276,6.46875 61.0276,4.80208 59.5,3.5C 56.1194,3.54046 52.7861,3.20713 49.5,2.5C 49.8294,5.22817 49.1628,7.5615 47.5,9.5C 47.8511,7.13053 48.0178,4.7972 48,2.5C 45.6303,5.03856 43.1303,7.3719 40.5,9.5C 38.5615,7.83724 36.2282,7.17057 33.5,7.5C 33.8333,6.83333 34.1667,6.16667 34.5,5.5C 35.8734,5.65668 37.2068,5.49001 38.5,5C 40.7521,2.11288 43.7521,0.779547 47.5,1C 48.056,0.617425 48.3893,0.117425 48.5,-0.5 Z"/></g>
<g><path style="opacity:0.122" fill="#d0cfd7" d="M 50.5,-0.5 C 51.1667,-0.5 51.8333,-0.5 52.5,-0.5C 53.7725,0.434327 55.2725,1.10099 57,1.5C 58.0299,1.16389 58.5299,0.497222 58.5,-0.5C 59.1667,-0.5 59.8333,-0.5 60.5,-0.5C 60.0744,1.28488 58.9078,2.28488 57,2.5C 54.1986,2.4562 52.032,1.4562 50.5,-0.5 Z"/></g>
<g><path style="opacity:1" fill="#271b50" d="M 59.5,3.5 C 57.66,9.00369 54.3267,13.337 49.5,16.5C 49.1667,16.5 48.8333,16.5 48.5,16.5C 48.5,15.1667 47.8333,14.5 46.5,14.5C 45.8333,14.5 45.5,14.1667 45.5,13.5C 46.1667,12.1667 46.8333,10.8333 47.5,9.5C 49.1628,7.5615 49.8294,5.22817 49.5,2.5C 52.7861,3.20713 56.1194,3.54046 59.5,3.5 Z"/></g>
<g><path style="opacity:0.243" fill="#cccbd4" d="M 34.5,5.5 C 34.1667,6.16667 33.8333,6.83333 33.5,7.5C 31.5,7.5 29.5,7.5 27.5,7.5C 29.6568,6.59334 31.9902,5.92668 34.5,5.5 Z"/></g>
<g><path style="opacity:1" fill="#110737" d="M 33.5,7.5 C 36.2282,7.17057 38.5615,7.83724 40.5,9.5C 36.5217,8.96561 33.5217,10.4656 31.5,14C 28.5576,15.1244 25.5576,15.4577 22.5,15C 27.2793,13.9575 30.946,11.4575 33.5,7.5 Z"/></g>
<g><path style="opacity:1" fill="#27cbc4" d="M 59.5,3.5 C 61.0276,4.80208 62.0276,6.46875 62.5,8.5C 63.2389,8.36899 63.9056,8.53566 64.5,9C 61.517,16.1529 56.8504,21.9862 50.5,26.5C 49.0858,24.9458 47.4192,23.6125 45.5,22.5C 45.8627,21.8165 46.1961,21.1499 46.5,20.5C 47.5,19.1667 48.5,17.8333 49.5,16.5C 54.3267,13.337 57.66,9.00369 59.5,3.5 Z"/></g>
<g><path style="opacity:1" fill="#66688d" d="M 74.5,10.5 C 75.2389,10.369 75.9056,10.5357 76.5,11C 74.9837,12.897 74.317,15.0637 74.5,17.5C 73.8485,16.9094 73.1818,16.2427 72.5,15.5C 70.2279,16.4411 68.2279,17.7745 66.5,19.5C 65.3502,14.805 67.3502,12.6383 72.5,13C 71.5842,12.7216 70.9175,12.2216 70.5,11.5C 72.099,11.7678 73.4324,11.4345 74.5,10.5 Z"/></g>
<g><path style="opacity:1" fill="#2f3064" d="M 66.5,8.5 C 67.1667,8.5 67.8333,8.5 68.5,8.5C 69.1667,9.5 69.8333,10.5 70.5,11.5C 70.9175,12.2216 71.5842,12.7216 72.5,13C 67.3502,12.6383 65.3502,14.805 66.5,19.5C 68.2279,17.7745 70.2279,16.4411 72.5,15.5C 73.1818,16.2427 73.8485,16.9094 74.5,17.5C 74.5,18.1667 74.5,18.8333 74.5,19.5C 71.5482,21.7851 68.8815,24.4517 66.5,27.5C 66.1667,28.5 65.5,29.1667 64.5,29.5C 64.5569,28.391 64.8902,27.391 65.5,26.5C 67.4773,24.1862 69.4773,21.8528 71.5,19.5C 71.1667,19.1667 70.8333,18.8333 70.5,18.5C 68.4714,19.8435 66.4714,21.1769 64.5,22.5C 63.1667,22.5 62.5,21.8333 62.5,20.5C 64.05,16.5168 65.3833,12.5168 66.5,8.5 Z"/></g>
<g><path style="opacity:0.09" fill="#bfbed2" d="M 63.5,84.5 C 62.8333,84.5 62.1667,84.5 61.5,84.5C 61.0269,83.0937 60.0269,82.427 58.5,82.5C 58.5,82.1667 58.5,81.8333 58.5,81.5C 61.9705,82.1252 64.8038,81.1252 67,78.5C 67.4728,76.221 68.4728,74.221 70,72.5C 70.4935,70.8659 70.6602,69.1992 70.5,67.5C 72.099,67.7678 73.4324,67.4345 74.5,66.5C 77.5461,65.1709 79.8794,63.1709 81.5,60.5C 82.7536,57.9066 84.4202,55.5732 86.5,53.5C 92.6644,46.7147 92.9977,39.7147 87.5,32.5C 87.0679,31.2905 86.4013,30.2905 85.5,29.5C 82.1843,25.8542 78.5176,22.5209 74.5,19.5C 74.5,18.8333 74.5,18.1667 74.5,17.5C 74.317,15.0637 74.9837,12.897 76.5,11C 75.9056,10.5357 75.2389,10.369 74.5,10.5C 75.2545,8.53368 76.4212,8.20035 78,9.5C 77.3135,11.7158 76.4801,14.0491 75.5,16.5C 79.1511,20.6516 82.9844,24.6516 87,28.5C 95.0663,39.4393 94.0663,49.4393 84,58.5C 81.7778,64.2184 77.6111,67.5517 71.5,68.5C 71.6621,70.5273 71.4955,72.5273 71,74.5C 69.0608,78.27 66.5608,81.6033 63.5,84.5 Z"/></g>
<g><path style="opacity:1" fill="#30ccc7" d="M 65.5,26.5 C 64.5084,26.3284 63.8417,26.6618 63.5,27.5C 57.4286,30.374 51.4286,33.5407 45.5,37C 42.8323,37.567 40.1656,38.067 37.5,38.5C 35.1667,36.8333 33.1667,34.8333 31.5,32.5C 33.8458,33.5233 36.1791,34.5233 38.5,35.5C 38.6423,32.383 39.9756,29.883 42.5,28C 41.451,27.5078 40.451,27.6744 39.5,28.5C 38.1502,27.0499 36.4835,26.3832 34.5,26.5C 38.2303,24.1384 42.2303,22.1384 46.5,20.5C 46.1961,21.1499 45.8627,21.8165 45.5,22.5C 47.4192,23.6125 49.0858,24.9458 50.5,26.5C 48.3719,29.1303 46.0386,31.6303 43.5,34C 46.5227,33.3174 49.1894,31.8174 51.5,29.5C 55.9324,27.3555 60.2658,25.0221 64.5,22.5C 66.4714,21.1769 68.4714,19.8435 70.5,18.5C 70.8333,18.8333 71.1667,19.1667 71.5,19.5C 69.4773,21.8528 67.4773,24.1862 65.5,26.5 Z"/></g>
<g><path style="opacity:0.486" fill="#bdbcc6" d="M 27.5,7.5 C 26.9717,8.72065 26.305,9.88732 25.5,11C 20.8705,13.3316 16.2038,15.665 11.5,18C 8.6841,21.7835 5.51743,25.2835 2,28.5C 1.51722,29.448 1.35055,30.448 1.5,31.5C 0.31868,34.3623 0.31868,37.3623 1.5,40.5C 0.833333,40.1667 0.166667,39.8333 -0.5,39.5C -0.5,36.1667 -0.5,32.8333 -0.5,29.5C 3.30143,25.5268 6.9681,21.3602 10.5,17C 16.3522,13.9782 22.0189,10.8116 27.5,7.5 Z"/></g>
<g><path style="opacity:1" fill="#24aaad" d="M 47.5,9.5 C 46.8333,10.8333 46.1667,12.1667 45.5,13.5C 40.724,16.1488 35.724,18.3155 30.5,20C 26.9573,21.6083 23.9573,23.9416 21.5,27C 20.5632,27.6917 19.8966,27.525 19.5,26.5C 20.7872,23.5468 22.7872,21.2135 25.5,19.5C 31.0195,16.9097 36.0195,13.5763 40.5,9.5C 43.1303,7.3719 45.6303,5.03856 48,2.5C 48.0178,4.7972 47.8511,7.13053 47.5,9.5 Z"/></g>
<g><path style="opacity:1" fill="#1097a5" d="M 66.5,8.5 C 65.3833,12.5168 64.05,16.5168 62.5,20.5C 59.0948,23.2653 55.4281,25.7653 51.5,28C 50.2617,28.69 50.2617,29.19 51.5,29.5C 49.1894,31.8174 46.5227,33.3174 43.5,34C 46.0386,31.6303 48.3719,29.1303 50.5,26.5C 56.8504,21.9862 61.517,16.1529 64.5,9C 63.9056,8.53566 63.2389,8.36899 62.5,8.5C 63.2613,7.60908 64.2613,6.94242 65.5,6.5C 66.2975,6.95689 66.6309,7.62356 66.5,8.5 Z"/></g>
<g><path style="opacity:1" fill="#2e44a7" d="M 74.5,19.5 C 78.5176,22.5209 82.1843,25.8542 85.5,29.5C 85.6198,32.2048 84.6198,32.8715 82.5,31.5C 79.3233,33.3358 77.3233,36.0024 76.5,39.5C 75.1667,41.1667 75.1667,42.8333 76.5,44.5C 76.9565,47.4056 77.9565,50.0722 79.5,52.5C 76.736,51.0525 75.0693,48.7191 74.5,45.5C 74.5,43.5 74.5,41.5 74.5,39.5C 75.6227,37.4194 76.6227,35.2527 77.5,33C 75.8623,29.558 74.3623,26.058 73,22.5C 71.2228,24.7899 69.0562,26.4566 66.5,27.5C 68.8815,24.4517 71.5482,21.7851 74.5,19.5 Z"/></g>
<g><path style="opacity:1" fill="#1b7e99" d="M 48.5,16.5 C 48.8333,16.5 49.1667,16.5 49.5,16.5C 48.5,17.8333 47.5,19.1667 46.5,20.5C 42.2303,22.1384 38.2303,24.1384 34.5,26.5C 33.2921,27.2341 31.9587,27.5674 30.5,27.5C 30.9528,26.5416 31.6195,25.7083 32.5,25C 38.3316,22.92 43.6649,20.0866 48.5,16.5 Z"/></g>
<g><path style="opacity:1" fill="#1f5074" d="M 62.5,20.5 C 62.5,21.8333 63.1667,22.5 64.5,22.5C 60.2658,25.0221 55.9324,27.3555 51.5,29.5C 50.2617,29.19 50.2617,28.69 51.5,28C 55.4281,25.7653 59.0948,23.2653 62.5,20.5 Z"/></g>
<g><path style="opacity:1" fill="#383158" d="M 27.5,7.5 C 29.5,7.5 31.5,7.5 33.5,7.5C 30.946,11.4575 27.2793,13.9575 22.5,15C 25.5576,15.4577 28.5576,15.1244 31.5,14C 33.5217,10.4656 36.5217,8.96561 40.5,9.5C 36.0195,13.5763 31.0195,16.9097 25.5,19.5C 23.7768,18.193 21.9435,18.193 20,19.5C 19.6121,18.572 18.9454,17.9054 18,17.5C 16.1769,18.6512 14.3436,19.8179 12.5,21C 14.0589,21.9799 15.7256,22.8133 17.5,23.5C 14.4965,26.1211 12.6631,29.4544 12,33.5C 11.0471,31.6269 9.8804,31.2935 8.5,32.5C 7.9101,31.234 7.4101,29.9007 7,28.5C 6.88707,30.9739 5.88707,32.9739 4,34.5C 2.58296,33.9221 1.74962,32.9221 1.5,31.5C 1.35055,30.448 1.51722,29.448 2,28.5C 5.51743,25.2835 8.6841,21.7835 11.5,18C 16.2038,15.665 20.8705,13.3316 25.5,11C 26.305,9.88732 26.9717,8.72065 27.5,7.5 Z"/></g>
<g><path style="opacity:1" fill="#23174e" d="M 25.5,19.5 C 22.7872,21.2135 20.7872,23.5468 19.5,26.5C 17.1011,27.8982 15.4344,29.8982 14.5,32.5C 14.7472,33.7133 15.4138,34.38 16.5,34.5C 15.4324,35.4345 14.099,35.7678 12.5,35.5C 10.6916,35.5086 9.02494,35.0086 7.5,34C 8.05596,33.6174 8.38929,33.1174 8.5,32.5C 9.8804,31.2935 11.0471,31.6269 12,33.5C 12.6631,29.4544 14.4965,26.1211 17.5,23.5C 15.7256,22.8133 14.0589,21.9799 12.5,21C 14.3436,19.8179 16.1769,18.6512 18,17.5C 18.9454,17.9054 19.6121,18.572 20,19.5C 21.9435,18.193 23.7768,18.193 25.5,19.5 Z"/></g>
<g><path style="opacity:1" fill="#26d5d2" d="M 46.5,14.5 C 47.8333,14.5 48.5,15.1667 48.5,16.5C 43.6649,20.0866 38.3316,22.92 32.5,25C 31.6195,25.7083 30.9528,26.5416 30.5,27.5C 27.3492,29.583 24.3492,31.9163 21.5,34.5C 20.479,33.9984 20.3123,33.3317 21,32.5C 22.5793,30.9588 24.4127,29.7922 26.5,29C 25.3157,27.8545 25.3157,26.6879 26.5,25.5C 26.9528,24.5416 27.6195,23.7083 28.5,23C 34.9747,20.9268 40.9747,18.0934 46.5,14.5 Z"/></g>
<g><path style="opacity:1" fill="#496de0" d="M 74.5,39.5 C 72.1854,37.709 69.6854,36.0423 67,34.5C 65.6739,34.7549 64.6739,35.4216 64,36.5C 63.6664,34.1527 63.833,31.8194 64.5,29.5C 65.5,29.1667 66.1667,28.5 66.5,27.5C 69.0562,26.4566 71.2228,24.7899 73,22.5C 74.3623,26.058 75.8623,29.558 77.5,33C 76.6227,35.2527 75.6227,37.4194 74.5,39.5 Z"/></g>
<g><path style="opacity:1" fill="#12738e" d="M 45.5,13.5 C 45.5,14.1667 45.8333,14.5 46.5,14.5C 40.9747,18.0934 34.9747,20.9268 28.5,23C 27.6195,23.7083 26.9528,24.5416 26.5,25.5C 22.5,27.5 19.5,30.5 17.5,34.5C 17.1667,34.5 16.8333,34.5 16.5,34.5C 15.4138,34.38 14.7472,33.7133 14.5,32.5C 15.4344,29.8982 17.1011,27.8982 19.5,26.5C 19.8966,27.525 20.5632,27.6917 21.5,27C 23.9573,23.9416 26.9573,21.6083 30.5,20C 35.724,18.3155 40.724,16.1488 45.5,13.5 Z"/></g>
<g><path style="opacity:1" fill="#40426a" d="M 8.5,32.5 C 8.38929,33.1174 8.05596,33.6174 7.5,34C 9.02494,35.0086 10.6916,35.5086 12.5,35.5C 13.1139,40.2239 14.4473,44.7239 16.5,49C 14.7991,50.8603 13.7991,53.027 13.5,55.5C 11.8333,55.5 10.1667,55.5 8.5,55.5C 8.5,55.1667 8.5,54.8333 8.5,54.5C 8.93822,54.5654 9.27155,54.3988 9.5,54C 7.73677,49.2745 6.23677,44.4412 5,39.5C 4.07658,38.2412 3.24325,36.9079 2.5,35.5C 2.59309,37.1095 2.25975,38.7762 1.5,40.5C 0.31868,37.3623 0.31868,34.3623 1.5,31.5C 1.74962,32.9221 2.58296,33.9221 4,34.5C 5.88707,32.9739 6.88707,30.9739 7,28.5C 7.4101,29.9007 7.9101,31.234 8.5,32.5 Z"/></g>
<g><path style="opacity:1" fill="#0ed7d5" d="M 26.5,25.5 C 25.3157,26.6879 25.3157,27.8545 26.5,29C 24.4127,29.7922 22.5793,30.9588 21,32.5C 20.3123,33.3317 20.479,33.9984 21.5,34.5C 24.3492,31.9163 27.3492,29.583 30.5,27.5C 31.9587,27.5674 33.2921,27.2341 34.5,26.5C 36.4835,26.3832 38.1502,27.0499 39.5,28.5C 40.451,27.6744 41.451,27.5078 42.5,28C 39.9756,29.883 38.6423,32.383 38.5,35.5C 36.1791,34.5233 33.8458,33.5233 31.5,32.5C 29.9731,32.427 28.9731,33.0937 28.5,34.5C 25.8544,36.4789 23.5211,38.8122 21.5,41.5C 20.8165,41.1373 20.1499,40.8039 19.5,40.5C 19.6716,39.5084 19.3382,38.8417 18.5,38.5C 18.1667,37.1667 17.8333,35.8333 17.5,34.5C 19.5,30.5 22.5,27.5 26.5,25.5 Z"/></g>
<g><path style="opacity:1" fill="#0f99b0" d="M 63.5,27.5 C 58.4882,32.5103 53.1549,37.177 47.5,41.5C 46.8478,40.2749 45.6811,39.6083 44,39.5C 41.5582,39.4823 39.3915,40.149 37.5,41.5C 38.8333,40.5 38.8333,39.5 37.5,38.5C 40.1656,38.067 42.8323,37.567 45.5,37C 51.4286,33.5407 57.4286,30.374 63.5,27.5 Z"/></g>
<g><path style="opacity:1" fill="#5572db" d="M 87.5,32.5 C 92.9977,39.7147 92.6644,46.7147 86.5,53.5C 86.1684,49.5067 85.835,45.5067 85.5,41.5C 85.851,38.3776 86.5176,35.3776 87.5,32.5 Z"/></g>
<g><path style="opacity:1" fill="#c9ba42" d="M 10.5,40.5 C 9.77765,41.5511 8.77765,42.2178 7.5,42.5C 6.07164,40.6227 6.57164,39.2894 9,38.5C 10.0299,38.8361 10.5299,39.5028 10.5,40.5 Z"/></g>
<g><path style="opacity:1" fill="#494364" d="M 28.5,34.5 C 32.9193,35.257 35.2526,37.9236 35.5,42.5C 33.5165,42.3832 31.8498,43.0499 30.5,44.5C 28.8333,46.5 27.1667,48.5 25.5,50.5C 22.3408,47.9007 20.3408,44.5674 19.5,40.5C 20.1499,40.8039 20.8165,41.1373 21.5,41.5C 23.5211,38.8122 25.8544,36.4789 28.5,34.5 Z"/></g>
<g><path style="opacity:1" fill="#185b7d" d="M 65.5,26.5 C 64.8902,27.391 64.5569,28.391 64.5,29.5C 63.8501,29.8039 63.1835,30.1373 62.5,30.5C 61.657,33.9304 60.3237,36.9304 58.5,39.5C 59.4339,37.7615 59.4339,36.0948 58.5,34.5C 54.0676,39.7974 48.5676,43.464 42,45.5C 41.5,45.1667 41,44.8333 40.5,44.5C 42.7301,43.2172 45.0634,42.2172 47.5,41.5C 53.1549,37.177 58.4882,32.5103 63.5,27.5C 63.8417,26.6618 64.5084,26.3284 65.5,26.5 Z"/></g>
<g><path style="opacity:1" fill="#2c95db" d="M 76.5,39.5 C 77.4793,40.7653 78.4793,42.0986 79.5,43.5C 78.675,44.3857 77.675,44.719 76.5,44.5C 75.1667,42.8333 75.1667,41.1667 76.5,39.5 Z"/></g>
<g><path style="opacity:1" fill="#09c6bf" d="M 58.5,39.5 C 56.1468,41.8599 54.1468,44.5265 52.5,47.5C 48.9059,53.0955 43.9059,56.7622 37.5,58.5C 35.8333,58.5 34.1667,58.5 32.5,58.5C 31.1902,56.8523 29.8569,55.1856 28.5,53.5C 30.755,48.9156 33.755,44.9156 37.5,41.5C 39.3915,40.149 41.5582,39.4823 44,39.5C 45.6811,39.6083 46.8478,40.2749 47.5,41.5C 45.0634,42.2172 42.7301,43.2172 40.5,44.5C 41,44.8333 41.5,45.1667 42,45.5C 48.5676,43.464 54.0676,39.7974 58.5,34.5C 59.4339,36.0948 59.4339,37.7615 58.5,39.5 Z"/></g>
<g><path style="opacity:1" fill="#44cacf" d="M 8.5,44.5 C 9.83333,44.5 11.1667,44.5 12.5,44.5C 12.5,46.8333 12.5,49.1667 12.5,51.5C 11.1779,51.67 10.0113,51.3366 9,50.5C 8.50454,48.5273 8.33788,46.5273 8.5,44.5 Z"/></g>
<g><path style="opacity:1" fill="#35829e" d="M 10.5,40.5 C 10.5,41.5 10.5,42.5 10.5,43.5C 11.5,43.5 12.5,43.5 13.5,43.5C 13.8064,46.3854 13.4731,49.0521 12.5,51.5C 12.5,49.1667 12.5,46.8333 12.5,44.5C 11.1667,44.5 9.83333,44.5 8.5,44.5C 8.16667,43.8333 7.83333,43.1667 7.5,42.5C 8.77765,42.2178 9.77765,41.5511 10.5,40.5 Z"/></g>
<g><path style="opacity:1" fill="#3650b1" d="M 64.5,29.5 C 63.833,31.8194 63.6664,34.1527 64,36.5C 64.6739,35.4216 65.6739,34.7549 67,34.5C 69.6854,36.0423 72.1854,37.709 74.5,39.5C 74.5,41.5 74.5,43.5 74.5,45.5C 73.8826,45.3893 73.3826,45.056 73,44.5C 72.2798,46.0557 71.1132,47.0557 69.5,47.5C 67.5853,47.2155 65.9187,47.5489 64.5,48.5C 63.9569,48.44 63.6236,48.1067 63.5,47.5C 64.325,46.6143 65.325,46.281 66.5,46.5C 66.6633,44.1432 66.4966,41.8098 66,39.5C 64.4126,38.273 63.0793,38.6063 62,40.5C 61.8605,43.9812 62.0271,47.4812 62.5,51C 62.6653,58.9753 58.9986,63.8087 51.5,65.5C 54.0216,63.6394 56.5216,61.6394 59,59.5C 59.8794,55.5227 59.3794,51.8561 57.5,48.5C 57.5,47.8333 57.1667,47.5 56.5,47.5C 55.3684,46.6457 54.035,46.6457 52.5,47.5C 54.1468,44.5265 56.1468,41.8599 58.5,39.5C 60.3237,36.9304 61.657,33.9304 62.5,30.5C 63.1835,30.1373 63.8501,29.8039 64.5,29.5 Z"/></g>
<g><path style="opacity:1" fill="#507bd8" d="M 64.5,48.5 C 65.5691,51.408 65.7358,54.408 65,57.5C 63.5576,59.3911 62.3909,61.3911 61.5,63.5C 60.5,64.5 59.5,65.5 58.5,66.5C 55.9407,66.8016 53.6074,66.4682 51.5,65.5C 58.9986,63.8087 62.6653,58.9753 62.5,51C 62.0271,47.4812 61.8605,43.9812 62,40.5C 63.0793,38.6063 64.4126,38.273 66,39.5C 66.4966,41.8098 66.6633,44.1432 66.5,46.5C 65.325,46.281 64.325,46.6143 63.5,47.5C 63.6236,48.1067 63.9569,48.44 64.5,48.5 Z"/></g>
<g><path style="opacity:1" fill="#4f70df" d="M 74.5,45.5 C 75.0693,48.7191 76.736,51.0525 79.5,52.5C 79.816,56.4983 78.1493,59.1649 74.5,60.5C 73.8333,60.5 73.1667,60.5 72.5,60.5C 72.1107,56.7202 70.7774,53.2202 68.5,50C 69.2524,49.3292 69.5858,48.4959 69.5,47.5C 71.1132,47.0557 72.2798,46.0557 73,44.5C 73.3826,45.056 73.8826,45.3893 74.5,45.5 Z"/></g>
<g><path style="opacity:1" fill="#9fa7b0" d="M 8.5,54.5 C 5.36652,50.8661 3.86652,46.5328 4,41.5C -0.394946,47.1394 -0.561613,52.806 3.5,58.5C 1.72632,57.6304 0.392987,56.297 -0.5,54.5C -0.5,51.8333 -0.5,49.1667 -0.5,46.5C 1.07394,44.8984 1.74061,42.8984 1.5,40.5C 2.25975,38.7762 2.59309,37.1095 2.5,35.5C 3.24325,36.9079 4.07658,38.2412 5,39.5C 6.23677,44.4412 7.73677,49.2745 9.5,54C 9.27155,54.3988 8.93822,54.5654 8.5,54.5 Z"/></g>
<g><path style="opacity:1" fill="#180a3e" d="M 56.5,47.5 C 55.2335,49.6943 55.2335,52.0276 56.5,54.5C 55.1738,55.6422 54.1738,56.9755 53.5,58.5C 52.8386,59.7175 52.1719,61.0508 51.5,62.5C 50.8933,62.3764 50.56,62.0431 50.5,61.5C 50.67,60.1779 50.3366,59.0113 49.5,58C 51.352,54.7609 52.352,51.2609 52.5,47.5C 54.035,46.6457 55.3684,46.6457 56.5,47.5 Z"/></g>
<g><path style="opacity:1" fill="#76768a" d="M 16.5,34.5 C 16.8333,34.5 17.1667,34.5 17.5,34.5C 17.8333,35.8333 18.1667,37.1667 18.5,38.5C 17.325,38.281 16.325,38.6143 15.5,39.5C 16.0951,42.3171 17.4284,44.6505 19.5,46.5C 18.554,48.2578 18.554,49.9245 19.5,51.5C 20.1667,51.1667 20.8333,50.8333 21.5,50.5C 22.9971,53.6757 22.3304,56.3423 19.5,58.5C 17.5732,57.1376 15.5732,56.1376 13.5,55.5C 13.7991,53.027 14.7991,50.8603 16.5,49C 14.4473,44.7239 13.1139,40.2239 12.5,35.5C 14.099,35.7678 15.4324,35.4345 16.5,34.5 Z"/></g>
<g><path style="opacity:1" fill="#332453" d="M 31.5,32.5 C 33.1667,34.8333 35.1667,36.8333 37.5,38.5C 38.8333,39.5 38.8333,40.5 37.5,41.5C 33.755,44.9156 30.755,48.9156 28.5,53.5C 29.8569,55.1856 31.1902,56.8523 32.5,58.5C 31.1228,60.2895 30.1228,62.2895 29.5,64.5C 25.7909,64.791 22.1242,64.791 18.5,64.5C 17.8485,65.0906 17.1818,65.7573 16.5,66.5C 12.7367,63.6826 9.40334,60.3493 6.5,56.5C 6.95689,55.7025 7.62356,55.3691 8.5,55.5C 10.1667,55.5 11.8333,55.5 13.5,55.5C 15.5732,56.1376 17.5732,57.1376 19.5,58.5C 22.3304,56.3423 22.9971,53.6757 21.5,50.5C 20.8333,50.8333 20.1667,51.1667 19.5,51.5C 18.554,49.9245 18.554,48.2578 19.5,46.5C 17.4284,44.6505 16.0951,42.3171 15.5,39.5C 16.325,38.6143 17.325,38.281 18.5,38.5C 19.3382,38.8417 19.6716,39.5084 19.5,40.5C 20.3408,44.5674 22.3408,47.9007 25.5,50.5C 27.1667,48.5 28.8333,46.5 30.5,44.5C 31.8498,43.0499 33.5165,42.3832 35.5,42.5C 35.2526,37.9236 32.9193,35.257 28.5,34.5C 28.9731,33.0937 29.9731,32.427 31.5,32.5 Z"/></g>
<g><path style="opacity:1" fill="#264bba" d="M 85.5,29.5 C 86.4013,30.2905 87.0679,31.2905 87.5,32.5C 86.5176,35.3776 85.851,38.3776 85.5,41.5C 85.835,45.5067 86.1684,49.5067 86.5,53.5C 84.4202,55.5732 82.7536,57.9066 81.5,60.5C 79.1667,61.8333 76.8333,61.8333 74.5,60.5C 78.1493,59.1649 79.816,56.4983 79.5,52.5C 77.9565,50.0722 76.9565,47.4056 76.5,44.5C 77.675,44.719 78.675,44.3857 79.5,43.5C 78.4793,42.0986 77.4793,40.7653 76.5,39.5C 77.3233,36.0024 79.3233,33.3358 82.5,31.5C 84.6198,32.8715 85.6198,32.2048 85.5,29.5 Z"/></g>
<g><path style="opacity:1" fill="#084d96" d="M 69.5,47.5 C 69.5858,48.4959 69.2524,49.3292 68.5,50C 70.7774,53.2202 72.1107,56.7202 72.5,60.5C 71.6851,61.8366 70.5185,62.8366 69,63.5C 66.6457,63.1084 64.1457,63.1084 61.5,63.5C 62.3909,61.3911 63.5576,59.3911 65,57.5C 65.7358,54.408 65.5691,51.408 64.5,48.5C 65.9187,47.5489 67.5853,47.2155 69.5,47.5 Z"/></g>
<g><path style="opacity:1" fill="#a42615" d="M 56.5,47.5 C 57.1667,47.5 57.5,47.8333 57.5,48.5C 57.4257,51.3486 57.0924,54.3486 56.5,57.5C 55.5832,58.1272 54.5832,58.4606 53.5,58.5C 54.1738,56.9755 55.1738,55.6422 56.5,54.5C 55.2335,52.0276 55.2335,49.6943 56.5,47.5 Z"/></g>
<g><path style="opacity:1" fill="#222c57" d="M 52.5,47.5 C 52.352,51.2609 51.352,54.7609 49.5,58C 50.3366,59.0113 50.67,60.1779 50.5,61.5C 48.9382,61.7329 47.6049,62.3995 46.5,63.5C 46.1583,62.6618 45.4916,62.3284 44.5,62.5C 44.9175,61.7784 45.5842,61.2784 46.5,61C 43.008,61.0704 40.008,60.2371 37.5,58.5C 43.9059,56.7622 48.9059,53.0955 52.5,47.5 Z"/></g>
<g><path style="opacity:0.714" fill="#acabbc" d="M 3.5,58.5 C 4.70792,59.2341 6.04125,59.5674 7.5,59.5C 7.6878,62.2061 8.6878,64.5395 10.5,66.5C 9.5041,66.5858 8.67076,66.2524 8,65.5C 6.96335,62.7326 5.46335,60.3993 3.5,58.5 Z"/></g>
<g><path style="opacity:1" fill="#09a5ad" d="M 32.5,58.5 C 34.1667,58.5 35.8333,58.5 37.5,58.5C 40.008,60.2371 43.008,61.0704 46.5,61C 45.5842,61.2784 44.9175,61.7784 44.5,62.5C 43.0413,62.4326 41.7079,62.7659 40.5,63.5C 36.8815,64.2436 33.2148,64.577 29.5,64.5C 30.1228,62.2895 31.1228,60.2895 32.5,58.5 Z"/></g>
<g><path style="opacity:1" fill="#abb51a" d="M 57.5,48.5 C 59.3794,51.8561 59.8794,55.5227 59,59.5C 56.5216,61.6394 54.0216,63.6394 51.5,65.5C 50.1805,66.9418 48.5138,67.6085 46.5,67.5C 46.5,66.1667 46.5,64.8333 46.5,63.5C 47.6049,62.3995 48.9382,61.7329 50.5,61.5C 50.56,62.0431 50.8933,62.3764 51.5,62.5C 52.1719,61.0508 52.8386,59.7175 53.5,58.5C 54.5832,58.4606 55.5832,58.1272 56.5,57.5C 57.0924,54.3486 57.4257,51.3486 57.5,48.5 Z"/></g>
<g><path style="opacity:1" fill="#2a358b" d="M 72.5,60.5 C 73.1667,60.5 73.8333,60.5 74.5,60.5C 76.8333,61.8333 79.1667,61.8333 81.5,60.5C 79.8794,63.1709 77.5461,65.1709 74.5,66.5C 69.1667,65.1667 63.8333,65.1667 58.5,66.5C 59.5,65.5 60.5,64.5 61.5,63.5C 64.1457,63.1084 66.6457,63.1084 69,63.5C 70.5185,62.8366 71.6851,61.8366 72.5,60.5 Z"/></g>
<g><path style="opacity:1" fill="#097786" d="M 29.5,64.5 C 33.2148,64.577 36.8815,64.2436 40.5,63.5C 41.8062,64.4674 42.4729,65.8007 42.5,67.5C 40.0706,67.8844 37.7373,68.551 35.5,69.5C 31.4517,69.6054 27.4517,69.2721 23.5,68.5C 20.9315,68.2623 19.2648,66.929 18.5,64.5C 22.1242,64.791 25.7909,64.791 29.5,64.5 Z"/></g>
<g><path style="opacity:1" fill="#3b3159" d="M 8.5,54.5 C 8.5,54.8333 8.5,55.1667 8.5,55.5C 7.62356,55.3691 6.95689,55.7025 6.5,56.5C 9.40334,60.3493 12.7367,63.6826 16.5,66.5C 17.1818,65.7573 17.8485,65.0906 18.5,64.5C 19.2648,66.929 20.9315,68.2623 23.5,68.5C 24.3065,69.7281 25.3065,70.7281 26.5,71.5C 25.1667,71.8333 23.8333,72.1667 22.5,72.5C 18.3058,70.9934 14.3058,68.9934 10.5,66.5C 8.6878,64.5395 7.6878,62.2061 7.5,59.5C 6.04125,59.5674 4.70792,59.2341 3.5,58.5C -0.561613,52.806 -0.394946,47.1394 4,41.5C 3.86652,46.5328 5.36652,50.8661 8.5,54.5 Z"/></g>
<g><path style="opacity:1" fill="#1b1146" d="M 44.5,62.5 C 45.4916,62.3284 46.1583,62.6618 46.5,63.5C 46.5,64.8333 46.5,66.1667 46.5,67.5C 48.5138,67.6085 50.1805,66.9418 51.5,65.5C 53.6074,66.4682 55.9407,66.8016 58.5,66.5C 58.6602,68.1992 58.4935,69.8659 58,71.5C 56.6439,70.6198 55.1439,70.2865 53.5,70.5C 53.5,71.5 53.5,72.5 53.5,73.5C 51.602,74.0965 49.9354,74.0965 48.5,73.5C 48.5,72.5 48.5,71.5 48.5,70.5C 43.9849,70.2716 39.6516,70.9383 35.5,72.5C 35.5,71.5 35.5,70.5 35.5,69.5C 37.7373,68.551 40.0706,67.8844 42.5,67.5C 42.4729,65.8007 41.8062,64.4674 40.5,63.5C 41.7079,62.7659 43.0413,62.4326 44.5,62.5 Z"/></g>
<g><path style="opacity:0.129" fill="#f0e8da" d="M 99.5,68.5 C 99.5,69.1667 99.5,69.8333 99.5,70.5C 97.8763,72.1368 96.8763,71.8034 96.5,69.5C 96.8763,67.1966 97.8763,66.8632 99.5,68.5 Z"/></g>
<g><path style="opacity:0.502" fill="#c3c3ce" d="M 10.5,66.5 C 14.3058,68.9934 18.3058,70.9934 22.5,72.5C 23.9002,73.1001 24.9002,74.1001 25.5,75.5C 22.4971,73.3468 19.1638,71.8468 15.5,71C 13.3825,69.9509 11.7158,68.4509 10.5,66.5 Z"/></g>
<g><path style="opacity:1" fill="#261544" d="M 74.5,66.5 C 73.4324,67.4345 72.099,67.7678 70.5,67.5C 70.6602,69.1992 70.4935,70.8659 70,72.5C 68.4728,74.221 67.4728,76.221 67,78.5C 64.8038,81.1252 61.9705,82.1252 58.5,81.5C 54.1667,81.5 49.8333,81.5 45.5,81.5C 45.5,80.5 45.5,79.5 45.5,78.5C 49.3025,78.1051 49.4691,77.1051 46,75.5C 39.8722,76.6051 33.7056,76.7718 27.5,76C 28.8333,75.6667 30.1667,75.3333 31.5,75C 30.2107,73.1978 28.5441,72.0312 26.5,71.5C 25.3065,70.7281 24.3065,69.7281 23.5,68.5C 27.4517,69.2721 31.4517,69.6054 35.5,69.5C 35.5,70.5 35.5,71.5 35.5,72.5C 35.5,73.5 35.5,74.5 35.5,75.5C 39.913,75.3129 44.2464,74.6462 48.5,73.5C 49.9354,74.0965 51.602,74.0965 53.5,73.5C 53.5,72.5 53.5,71.5 53.5,70.5C 55.1439,70.2865 56.6439,70.6198 58,71.5C 58.4935,69.8659 58.6602,68.1992 58.5,66.5C 63.8333,65.1667 69.1667,65.1667 74.5,66.5 Z"/></g>
<g><path style="opacity:1" fill="#514c6f" d="M 48.5,73.5 C 44.2464,74.6462 39.913,75.3129 35.5,75.5C 35.5,74.5 35.5,73.5 35.5,72.5C 39.6516,70.9383 43.9849,70.2716 48.5,70.5C 48.5,71.5 48.5,72.5 48.5,73.5 Z"/></g>
<g><path style="opacity:0.259" fill="#cdccd7" d="M 27.5,77.5 C 33.6943,77.3396 38.6943,79.6729 42.5,84.5C 41.8333,84.5 41.1667,84.5 40.5,84.5C 39.7101,83.2058 38.7101,82.0391 37.5,81C 34.2603,79.3079 30.9269,78.1412 27.5,77.5 Z"/></g>
<g><path style="opacity:0.996" fill="#656a87" d="M 26.5,71.5 C 28.5441,72.0312 30.2107,73.1978 31.5,75C 30.1667,75.3333 28.8333,75.6667 27.5,76C 33.7056,76.7718 39.8722,76.6051 46,75.5C 49.4691,77.1051 49.3025,78.1051 45.5,78.5C 45.5,79.5 45.5,80.5 45.5,81.5C 49.8333,81.5 54.1667,81.5 58.5,81.5C 58.5,81.8333 58.5,82.1667 58.5,82.5C 57.8333,83.1667 57.1667,83.8333 56.5,84.5C 51.8333,84.5 47.1667,84.5 42.5,84.5C 38.6943,79.6729 33.6943,77.3396 27.5,77.5C 26.5,77.1667 25.8333,76.5 25.5,75.5C 24.9002,74.1001 23.9002,73.1001 22.5,72.5C 23.8333,72.1667 25.1667,71.8333 26.5,71.5 Z"/></g>
</svg>
