<?xml version="1.0" encoding="UTF-8"?>
<!DOCTYPE svg PUBLIC "-//W3C//DTD SVG 1.1//EN" "http://www.w3.org/Graphics/SVG/1.1/DTD/svg11.dtd">
<svg xmlns="http://www.w3.org/2000/svg" version="1.1" width="94px" height="84px" style="shape-rendering:geometricPrecision; text-rendering:geometricPrecision; image-rendering:optimizeQuality; fill-rule:evenodd; clip-rule:evenodd" xmlns:xlink="http://www.w3.org/1999/xlink">
<g><path style="opacity:1" fill="#261f25" d="M 44.5,-0.5 C 51.8333,-0.5 59.1667,-0.5 66.5,-0.5C 68.5,0.833333 70.5,2.16667 72.5,3.5C 71.1667,3.83333 71.1667,4.16667 72.5,4.5C 72.5,4.83333 72.5,5.16667 72.5,5.5C 70.5,5.5 68.5,5.5 66.5,5.5C 66.5,4.5 66.5,3.5 66.5,2.5C 57.9832,2.17395 49.6499,2.50728 41.5,3.5C 40.0821,5.30794 38.0821,5.97461 35.5,5.5C 35.5,4.83333 35.5,4.16667 35.5,3.5C 34.0813,2.54885 32.4147,2.21552 30.5,2.5C 34.3123,1.67618 38.3123,1.17618 42.5,1C 43.4158,0.721579 44.0825,0.221579 44.5,-0.5 Z"/></g>
<g><path style="opacity:1" fill="#ff1246" d="M 56.5,3.5 C 57.9221,3.74962 58.9221,4.58296 59.5,6C 61.5,6.33333 63.5,6.66667 65.5,7C 62.8101,7.33454 62.1435,8.50121 63.5,10.5C 61.9519,10.1788 61.2852,9.17876 61.5,7.5C 58.9208,7.91668 56.7542,7.25001 55,5.5C 54.5,6 54,6.5 53.5,7C 54.3366,8.01127 54.67,9.17793 54.5,10.5C 57.4935,10.1457 58.4935,11.1457 57.5,13.5C 55.8333,13.5 54.1667,13.5 52.5,13.5C 52.5858,12.5041 52.2524,11.6708 51.5,11C 50.0997,9.5619 48.433,8.72857 46.5,8.5C 46.7214,7.26515 47.3881,6.26515 48.5,5.5C 51.3056,4.83236 53.9723,4.16569 56.5,3.5 Z"/></g>
<g><path style="opacity:1" fill="#140514" d="M 35.5,5.5 C 34.4479,7.25605 32.7812,7.92271 30.5,7.5C 31.5521,5.74395 33.2188,5.07729 35.5,5.5 Z"/></g>
<g><path style="opacity:1" fill="#f22f50" d="M 41.5,3.5 C 49.6499,2.50728 57.9832,2.17395 66.5,2.5C 66.5,3.5 66.5,4.5 66.5,5.5C 67.0998,6.89992 68.0998,7.89992 69.5,8.5C 67.0582,8.11923 66.3915,8.7859 67.5,10.5C 65.5804,14.193 64.2471,14.193 63.5,10.5C 62.1435,8.50121 62.8101,7.33454 65.5,7C 63.5,6.66667 61.5,6.33333 59.5,6C 58.9221,4.58296 57.9221,3.74962 56.5,3.5C 51.5,3.5 46.5,3.5 41.5,3.5 Z"/></g>
<g><path style="opacity:1" fill="#21161c" d="M 30.5,8.5 C 30.1788,10.0481 29.1788,10.7148 27.5,10.5C 27.8212,8.95186 28.8212,8.28519 30.5,8.5 Z"/></g>
<g><path style="opacity:1" fill="#cae6d4" d="M 35.5,3.5 C 35.5,4.16667 35.5,4.83333 35.5,5.5C 33.2188,5.07729 31.5521,5.74395 30.5,7.5C 30.5,7.83333 30.5,8.16667 30.5,8.5C 28.8212,8.28519 27.8212,8.95186 27.5,10.5C 26.1667,10.5 25.5,11.1667 25.5,12.5C 25.5,13.1667 25.1667,13.5 24.5,13.5C 23.1667,13.5 22.5,14.1667 22.5,15.5C 19.6915,15.3067 17.0248,14.64 14.5,13.5C 14.5,12.5 14.5,11.5 14.5,10.5C 13.5,10.5 12.5,10.5 11.5,10.5C 17.1199,8.499 22.7865,6.33233 28.5,4C 30.8098,3.50335 33.1432,3.33669 35.5,3.5 Z"/></g>
<g><path style="opacity:1" fill="#fb1c48" d="M 41.5,3.5 C 46.5,3.5 51.5,3.5 56.5,3.5C 53.9723,4.16569 51.3056,4.83236 48.5,5.5C 47.3881,6.26515 46.7214,7.26515 46.5,8.5C 45.4479,10.256 43.7812,10.9227 41.5,10.5C 41.5,11.5 41.5,12.5 41.5,13.5C 38.0657,13.0298 35.399,14.1965 33.5,17C 34.0223,17.9503 34.689,18.7836 35.5,19.5C 35.0431,20.2975 34.3764,20.6309 33.5,20.5C 32.8485,19.9094 32.1818,19.2427 31.5,18.5C 30.4763,19.8532 29.143,20.5198 27.5,20.5C 27.5,21.5 27.5,22.5 27.5,23.5C 25.8212,23.2852 24.8212,23.9519 24.5,25.5C 22.8333,25.5 21.1667,25.5 19.5,25.5C 19.5,24.1667 19.5,22.8333 19.5,21.5C 19.5,21.1667 19.5,20.8333 19.5,20.5C 20.5,20.5 21.5,20.5 22.5,20.5C 22.5,18.8333 22.5,17.1667 22.5,15.5C 23.8333,15.5 24.5,14.8333 24.5,13.5C 25.1667,13.5 25.5,13.1667 25.5,12.5C 26.8333,12.5 27.5,11.8333 27.5,10.5C 29.1788,10.7148 30.1788,10.0481 30.5,8.5C 30.5,8.16667 30.5,7.83333 30.5,7.5C 32.7812,7.92271 34.4479,7.25605 35.5,5.5C 38.0821,5.97461 40.0821,5.30794 41.5,3.5 Z"/></g>
<g><path style="opacity:1" fill="#ff044e" d="M 63.5,10.5 C 64.2471,14.193 65.5804,14.193 67.5,10.5C 66.3915,8.7859 67.0582,8.11923 69.5,8.5C 71.4293,10.1482 73.4293,11.8149 75.5,13.5C 75.5123,16.142 74.179,17.4754 71.5,17.5C 70.7784,17.9175 70.2784,18.5842 70,19.5C 69.6174,18.944 69.1174,18.6107 68.5,18.5C 67.8333,18.5 67.1667,18.5 66.5,18.5C 65.4479,16.744 63.7812,16.0773 61.5,16.5C 61.5,15.5 61.5,14.5 61.5,13.5C 60.1667,13.5 58.8333,13.5 57.5,13.5C 58.4935,11.1457 57.4935,10.1457 54.5,10.5C 54.67,9.17793 54.3366,8.01127 53.5,7C 54,6.5 54.5,6 55,5.5C 56.7542,7.25001 58.9208,7.91668 61.5,7.5C 61.2852,9.17876 61.9519,10.1788 63.5,10.5 Z"/></g>
<g><path style="opacity:1" fill="#1a1118" d="M 27.5,10.5 C 27.5,11.8333 26.8333,12.5 25.5,12.5C 25.5,11.1667 26.1667,10.5 27.5,10.5 Z"/></g>
<g><path style="opacity:1" fill="#f27a71" d="M 66.5,5.5 C 68.5,5.5 70.5,5.5 72.5,5.5C 72.8212,7.04814 73.8212,7.71481 75.5,7.5C 75.5,8.5 75.5,9.5 75.5,10.5C 76.5,10.5 77.5,10.5 78.5,10.5C 78.8333,13.5 80.5,15.1667 83.5,15.5C 83.5,17.1667 83.5,18.8333 83.5,20.5C 82.5,20.5 81.5,20.5 80.5,20.5C 80.762,19.0222 80.4287,17.6888 79.5,16.5C 77.8405,15.8284 76.5072,14.8284 75.5,13.5C 73.4293,11.8149 71.4293,10.1482 69.5,8.5C 68.0998,7.89992 67.0998,6.89992 66.5,5.5 Z"/></g>
<g><path style="opacity:1" fill="#1f212c" d="M 11.5,10.5 C 12.5,10.5 13.5,10.5 14.5,10.5C 14.5,11.5 14.5,12.5 14.5,13.5C 13.5,13.5 12.5,13.5 11.5,13.5C 11.5,12.5 11.5,11.5 11.5,10.5 Z"/></g>
<g><path style="opacity:1" fill="#067f71" d="M 3.5,10.5 C 6.16667,10.5 8.83333,10.5 11.5,10.5C 11.5,11.5 11.5,12.5 11.5,13.5C 12.5,13.5 13.5,13.5 14.5,13.5C 15.4243,16.4151 17.091,18.7485 19.5,20.5C 19.5,20.8333 19.5,21.1667 19.5,21.5C 17.5539,26.3958 16.8872,31.7291 17.5,37.5C 17.5,37.8333 17.5,38.1667 17.5,38.5C 17.1667,38.5 16.8333,38.5 16.5,38.5C 14.8333,38.5 13.1667,38.5 11.5,38.5C 14.0997,33.9211 15.0997,28.9211 14.5,23.5C 12.8212,23.7148 11.8212,23.0481 11.5,21.5C 10.7057,19.1272 9.70567,16.7938 8.5,14.5C 6.41376,13.5113 4.7471,12.178 3.5,10.5 Z"/></g>
<g><path style="opacity:1" fill="#050209" d="M 24.5,13.5 C 24.5,14.8333 23.8333,15.5 22.5,15.5C 22.5,14.1667 23.1667,13.5 24.5,13.5 Z"/></g>
<g><path style="opacity:1" fill="#f3875a" d="M 52.5,13.5 C 54.1667,13.5 55.8333,13.5 57.5,13.5C 57.5,15.1667 57.5,16.8333 57.5,18.5C 56.5,18.5 55.5,18.5 54.5,18.5C 53.4975,16.9891 52.8308,15.3224 52.5,13.5 Z"/></g>
<g><path style="opacity:1" fill="#f78a5c" d="M 46.5,8.5 C 48.433,8.72857 50.0997,9.5619 51.5,11C 52.2524,11.6708 52.5858,12.5041 52.5,13.5C 50.5,13.5 48.5,13.5 46.5,13.5C 45.8333,15.5 45.1667,17.5 44.5,19.5C 43.5,19.5 42.5,19.5 41.5,19.5C 41.5,22.1667 41.5,24.8333 41.5,27.5C 40.6829,25.0314 40.1829,22.3647 40,19.5C 39.6667,21.5 39.3333,23.5 39,25.5C 36.9711,23.9675 35.1378,22.3008 33.5,20.5C 34.3764,20.6309 35.0431,20.2975 35.5,19.5C 34.689,18.7836 34.0223,17.9503 33.5,17C 35.399,14.1965 38.0657,13.0298 41.5,13.5C 41.5,12.5 41.5,11.5 41.5,10.5C 43.7812,10.9227 45.4479,10.256 46.5,8.5 Z"/></g>
<g><path style="opacity:1" fill="#180611" d="M 1.5,13.5 C 2.16667,13.5 2.83333,13.5 3.5,13.5C 3.5,17.8333 3.5,22.1667 3.5,26.5C 3.5,28.5 3.5,30.5 3.5,32.5C 1.54372,26.588 0.877053,20.2547 1.5,13.5 Z"/></g>
<g><path style="opacity:1" fill="#ff3266" d="M 57.5,13.5 C 58.8333,13.5 60.1667,13.5 61.5,13.5C 61.5,14.5 61.5,15.5 61.5,16.5C 63.7812,16.0773 65.4479,16.744 66.5,18.5C 66.5,20.5 66.5,22.5 66.5,24.5C 65.5,24.5 64.5,24.5 63.5,24.5C 63.5,25.5 63.5,26.5 63.5,27.5C 61.8002,27.6261 60.3002,28.2927 59,29.5C 57.9701,29.1639 57.4701,28.4972 57.5,27.5C 57.5,25.5 57.5,23.5 57.5,21.5C 58.5,21.5 59.5,21.5 60.5,21.5C 60.5,20.5 60.5,19.5 60.5,18.5C 59.5,18.5 58.5,18.5 57.5,18.5C 57.5,16.8333 57.5,15.1667 57.5,13.5 Z"/></g>
<g><path style="opacity:1" fill="#fc1f52" d="M 75.5,13.5 C 76.5072,14.8284 77.8405,15.8284 79.5,16.5C 80.4287,17.6888 80.762,19.0222 80.5,20.5C 81.5,20.5 82.5,20.5 83.5,20.5C 85.9259,23.2301 87.2593,26.5635 87.5,30.5C 86.791,31.404 85.791,31.7373 84.5,31.5C 84.7852,29.712 84.4519,28.0453 83.5,26.5C 81.3784,25.5729 79.0451,25.5729 76.5,26.5C 75.5,26.5 74.5,26.5 73.5,26.5C 73.0137,24.1933 73.0137,22.0266 73.5,20C 72.6195,19.2917 71.9528,18.4584 71.5,17.5C 74.179,17.4754 75.5123,16.142 75.5,13.5 Z"/></g>
<g><path style="opacity:1" fill="#28222b" d="M 14.5,13.5 C 17.0248,14.64 19.6915,15.3067 22.5,15.5C 22.5,17.1667 22.5,18.8333 22.5,20.5C 21.5,20.5 20.5,20.5 19.5,20.5C 17.091,18.7485 15.4243,16.4151 14.5,13.5 Z"/></g>
<g><path style="opacity:0.199" fill="#3b373a" d="M 30.5,2.5 C 32.4147,2.21552 34.0813,2.54885 35.5,3.5C 33.1432,3.33669 30.8098,3.50335 28.5,4C 22.7865,6.33233 17.1199,8.499 11.5,10.5C 8.83333,10.5 6.16667,10.5 3.5,10.5C 2.5,10.5 1.5,10.5 0.5,10.5C 0.262695,11.791 0.596028,12.791 1.5,13.5C 0.877053,20.2547 1.54372,26.588 3.5,32.5C 5.04548,33.6396 6.71214,34.6396 8.5,35.5C 8.5,36.5 8.5,37.5 8.5,38.5C 9.5,38.5 10.5,38.5 11.5,38.5C 13.1667,38.5 14.8333,38.5 16.5,38.5C 14.1784,40.0486 11.8451,41.7153 9.5,43.5C 8.16667,45.1667 8.16667,46.8333 9.5,48.5C 9.5,49.1667 9.5,49.8333 9.5,50.5C 5.04725,48.0129 4.38058,44.6796 7.5,40.5C 5.51702,38.0163 3.35036,35.6829 1,33.5C 0.827574,27.3193 0.327574,21.3193 -0.5,15.5C -0.5,13.1667 -0.5,10.8333 -0.5,8.5C 5.14341,8.18321 10.6434,7.18321 16,5.5C 17,5.83333 18,6.16667 19,6.5C 22.6058,4.46495 26.4391,3.13162 30.5,2.5 Z"/></g>
<g><path style="opacity:1" fill="#65b814" d="M 3.5,10.5 C 4.7471,12.178 6.41376,13.5113 8.5,14.5C 9.70567,16.7938 10.7057,19.1272 11.5,21.5C 9.5,21.5 7.5,21.5 5.5,21.5C 6.03562,18.3019 5.36895,15.6353 3.5,13.5C 2.83333,13.5 2.16667,13.5 1.5,13.5C 0.596028,12.791 0.262695,11.791 0.5,10.5C 1.5,10.5 2.5,10.5 3.5,10.5 Z"/></g>
<g><path style="opacity:1" fill="#230c1d" d="M 52.5,13.5 C 52.8308,15.3224 53.4975,16.9891 54.5,18.5C 55.5,18.5 56.5,18.5 57.5,18.5C 57.5,19.5 57.5,20.5 57.5,21.5C 57.5,23.5 57.5,25.5 57.5,27.5C 56.5,27.5 55.5,27.5 54.5,27.5C 54.5,28.5 54.5,29.5 54.5,30.5C 50.8333,30.5 47.1667,30.5 43.5,30.5C 43.5,29.8333 43.5,29.1667 43.5,28.5C 43.1583,27.6618 42.4916,27.3284 41.5,27.5C 41.5,24.8333 41.5,22.1667 41.5,19.5C 42.5,19.5 43.5,19.5 44.5,19.5C 45.1667,17.5 45.8333,15.5 46.5,13.5C 48.5,13.5 50.5,13.5 52.5,13.5 Z"/></g>
<g><path style="opacity:1" fill="#6bd8e3" d="M 54.5,18.5 C 54.5,19.5 54.5,20.5 54.5,21.5C 53.1667,21.5 51.8333,21.5 50.5,21.5C 50.5,20.5 50.5,19.5 50.5,18.5C 51.8333,18.5 53.1667,18.5 54.5,18.5 Z"/></g>
<g><path style="opacity:1" fill="#ffd7d2" d="M 57.5,18.5 C 58.5,18.5 59.5,18.5 60.5,18.5C 60.5,19.5 60.5,20.5 60.5,21.5C 59.5,21.5 58.5,21.5 57.5,21.5C 57.5,20.5 57.5,19.5 57.5,18.5 Z"/></g>
<g><path style="opacity:1" fill="#a6cb12" d="M 3.5,13.5 C 5.36895,15.6353 6.03562,18.3019 5.5,21.5C 7.5,21.5 9.5,21.5 11.5,21.5C 11.8212,23.0481 12.8212,23.7148 14.5,23.5C 15.0997,28.9211 14.0997,33.9211 11.5,38.5C 10.5,38.5 9.5,38.5 8.5,38.5C 8.5,37.5 8.5,36.5 8.5,35.5C 8.07248,32.4359 7.40582,29.4359 6.5,26.5C 5.5,26.5 4.5,26.5 3.5,26.5C 3.5,22.1667 3.5,17.8333 3.5,13.5 Z"/></g>
<g><path style="opacity:1" fill="#f0ecef" d="M 45.5,21.5 C 49.35,21.7007 50.35,23.5341 48.5,27C 44.5369,27.1177 43.5369,25.2843 45.5,21.5 Z"/></g>
<g><path style="opacity:1" fill="#ffa56a" d="M 33.5,20.5 C 35.1378,22.3008 36.9711,23.9675 39,25.5C 39.3333,23.5 39.6667,21.5 40,19.5C 40.1829,22.3647 40.6829,25.0314 41.5,27.5C 42.4916,27.3284 43.1583,27.6618 43.5,28.5C 37.4637,29.3364 31.4637,28.8364 25.5,27C 28.1304,24.6453 27.797,24.1453 24.5,25.5C 24.8212,23.9519 25.8212,23.2852 27.5,23.5C 27.5,22.5 27.5,21.5 27.5,20.5C 29.143,20.5198 30.4763,19.8532 31.5,18.5C 32.1818,19.2427 32.8485,19.9094 33.5,20.5 Z"/></g>
<g><path style="opacity:0.165" fill="#372d31" d="M 72.5,3.5 C 80.9532,8.45428 86.6199,15.6209 89.5,25C 88.7665,26.7659 88.4332,28.5992 88.5,30.5C 88.1667,30.5 87.8333,30.5 87.5,30.5C 87.2593,26.5635 85.9259,23.2301 83.5,20.5C 83.5,18.8333 83.5,17.1667 83.5,15.5C 80.5,15.1667 78.8333,13.5 78.5,10.5C 77.5,10.5 76.5,10.5 75.5,10.5C 75.5,9.5 75.5,8.5 75.5,7.5C 73.8212,7.71481 72.8212,7.04814 72.5,5.5C 72.5,5.16667 72.5,4.83333 72.5,4.5C 72.5,4.16667 72.5,3.83333 72.5,3.5 Z"/></g>
<g><path style="opacity:1" fill="#e5e0e3" d="M 54.5,27.5 C 53.1667,27.5 51.8333,27.5 50.5,27.5C 50.5,26.5 50.5,25.5 50.5,24.5C 51.8333,24.5 53.1667,24.5 54.5,24.5C 54.5,25.5 54.5,26.5 54.5,27.5 Z"/></g>
<g><path style="opacity:1" fill="#f4f4e9" d="M 3.5,26.5 C 4.5,26.5 5.5,26.5 6.5,26.5C 7.40582,29.4359 8.07248,32.4359 8.5,35.5C 6.71214,34.6396 5.04548,33.6396 3.5,32.5C 3.5,30.5 3.5,28.5 3.5,26.5 Z"/></g>
<g><path style="opacity:1" fill="#1c0016" d="M 19.5,21.5 C 19.5,22.8333 19.5,24.1667 19.5,25.5C 19.5,28.1667 19.5,30.8333 19.5,33.5C 19.5,34.8333 19.5,36.1667 19.5,37.5C 18.8333,37.5 18.1667,37.5 17.5,37.5C 16.8872,31.7291 17.5539,26.3958 19.5,21.5 Z"/></g>
<g><path style="opacity:1" fill="#fdb071" d="M 43.5,28.5 C 43.5,29.1667 43.5,29.8333 43.5,30.5C 39.9581,30.1872 36.6248,30.5206 33.5,31.5C 31.6208,32.3414 29.6208,32.6747 27.5,32.5C 27.5,33.5 27.5,34.5 27.5,35.5C 27.189,36.4778 26.5223,37.1445 25.5,37.5C 23.9931,35.3096 21.9931,33.9762 19.5,33.5C 19.5,30.8333 19.5,28.1667 19.5,25.5C 21.1667,25.5 22.8333,25.5 24.5,25.5C 27.797,24.1453 28.1304,24.6453 25.5,27C 31.4637,28.8364 37.4637,29.3364 43.5,28.5 Z"/></g>
<g><path style="opacity:1" fill="#fe7f59" d="M 66.5,18.5 C 67.1667,18.5 67.8333,18.5 68.5,18.5C 70.2203,21.4479 71.5536,24.6146 72.5,28C 71.0267,28.7096 70.3601,29.8762 70.5,31.5C 65.1667,31.5 59.8333,31.5 54.5,31.5C 47.5,31.5 40.5,31.5 33.5,31.5C 36.6248,30.5206 39.9581,30.1872 43.5,30.5C 47.1667,30.5 50.8333,30.5 54.5,30.5C 54.5,29.5 54.5,28.5 54.5,27.5C 55.5,27.5 56.5,27.5 57.5,27.5C 57.4701,28.4972 57.9701,29.1639 59,29.5C 60.3002,28.2927 61.8002,27.6261 63.5,27.5C 63.5,26.5 63.5,25.5 63.5,24.5C 64.5,24.5 65.5,24.5 66.5,24.5C 66.5,22.5 66.5,20.5 66.5,18.5 Z"/></g>
<g><path style="opacity:0.204" fill="#3e3b40" d="M 90.5,31.5 C 90.5,30.8333 90.1667,30.5 89.5,30.5C 89.4692,26.7238 90.1359,26.5571 91.5,30C 91.4301,30.7648 91.0967,31.2648 90.5,31.5 Z"/></g>
<g><path style="opacity:1" fill="#ff1d45" d="M 71.5,17.5 C 71.9528,18.4584 72.6195,19.2917 73.5,20C 73.0137,22.0266 73.0137,24.1933 73.5,26.5C 74.5,26.5 75.5,26.5 76.5,26.5C 76.5,28.8333 76.5,31.1667 76.5,33.5C 77.5,33.5 78.5,33.5 79.5,33.5C 79.5,34.8333 79.5,36.1667 79.5,37.5C 77.1432,37.6633 74.8098,37.4966 72.5,37C 74.2556,36.7978 75.9223,36.2978 77.5,35.5C 75.3052,34.2309 73.1385,34.2309 71,35.5C 70.51,34.2068 70.3433,32.8734 70.5,31.5C 70.3601,29.8762 71.0267,28.7096 72.5,28C 71.5536,24.6146 70.2203,21.4479 68.5,18.5C 69.1174,18.6107 69.6174,18.944 70,19.5C 70.2784,18.5842 70.7784,17.9175 71.5,17.5 Z"/></g>
<g><path style="opacity:1" fill="#fe3747" d="M 33.5,31.5 C 40.5,31.5 47.5,31.5 54.5,31.5C 57.6248,32.4794 60.9581,32.8128 64.5,32.5C 64.5,34.1667 64.5,35.8333 64.5,37.5C 67.0593,37.1984 69.3926,37.5318 71.5,38.5C 72.1712,39.8471 72.1712,41.0138 71.5,42C 72.0944,42.4643 72.7611,42.631 73.5,42.5C 73.5,42.8333 73.5,43.1667 73.5,43.5C 72.5,43.5 71.5,43.5 70.5,43.5C 70.5824,41.7483 69.7491,40.7483 68,40.5C 66.6362,41.3707 65.4695,42.3707 64.5,43.5C 64.1667,43.5 63.8333,43.5 63.5,43.5C 62.8333,43.5 62.1667,43.5 61.5,43.5C 60.1667,42.5 60.1667,41.5 61.5,40.5C 62.8333,40.5 63.5,39.8333 63.5,38.5C 62.5,37.5 61.5,36.5 60.5,35.5C 57.3019,34.9644 54.6353,35.631 52.5,37.5C 52.1667,37.5 51.8333,37.5 51.5,37.5C 43.9152,34.3036 35.9152,33.637 27.5,35.5C 27.5,34.5 27.5,33.5 27.5,32.5C 29.6208,32.6747 31.6208,32.3414 33.5,31.5 Z"/></g>
<g><path style="opacity:1" fill="#fe004b" d="M 87.5,30.5 C 87.8333,30.5 88.1667,30.5 88.5,30.5C 88.8333,30.5 89.1667,30.5 89.5,30.5C 90.0806,38.4415 89.4139,46.1081 87.5,53.5C 86.5041,53.5858 85.6708,53.2524 85,52.5C 84.7222,49.2793 83.8889,46.2793 82.5,43.5C 86.0379,43.2153 87.8712,44.882 88,48.5C 88.4974,45.854 88.6641,43.1873 88.5,40.5C 85.3356,40.4422 82.3356,39.7755 79.5,38.5C 79.5,38.1667 79.5,37.8333 79.5,37.5C 79.5,36.1667 79.5,34.8333 79.5,33.5C 78.5,33.5 77.5,33.5 76.5,33.5C 76.5,31.1667 76.5,28.8333 76.5,26.5C 79.0451,25.5729 81.3784,25.5729 83.5,26.5C 84.4519,28.0453 84.7852,29.712 84.5,31.5C 85.791,31.7373 86.791,31.404 87.5,30.5 Z"/></g>
<g><path style="opacity:1" fill="#f81d44" d="M 19.5,33.5 C 21.9931,33.9762 23.9931,35.3096 25.5,37.5C 26.5223,37.1445 27.189,36.4778 27.5,35.5C 35.9152,33.637 43.9152,34.3036 51.5,37.5C 43.8333,37.5 36.1667,37.5 28.5,37.5C 28.5,38.5 28.5,39.5 28.5,40.5C 27.596,41.209 27.2627,42.209 27.5,43.5C 26.8333,43.5 26.1667,43.5 25.5,43.5C 25.5,42.5 25.5,41.5 25.5,40.5C 24.5,40.5 23.5,40.5 22.5,40.5C 22.5,39.5 22.5,38.5 22.5,37.5C 21.5,37.5 20.5,37.5 19.5,37.5C 19.5,36.1667 19.5,34.8333 19.5,33.5 Z"/></g>
<g><path style="opacity:1" fill="#ff0944" d="M 54.5,31.5 C 59.8333,31.5 65.1667,31.5 70.5,31.5C 70.3433,32.8734 70.51,34.2068 71,35.5C 73.1385,34.2309 75.3052,34.2309 77.5,35.5C 75.9223,36.2978 74.2556,36.7978 72.5,37C 74.8098,37.4966 77.1432,37.6633 79.5,37.5C 79.5,37.8333 79.5,38.1667 79.5,38.5C 76.8333,38.5 74.1667,38.5 71.5,38.5C 69.3926,37.5318 67.0593,37.1984 64.5,37.5C 64.5,35.8333 64.5,34.1667 64.5,32.5C 60.9581,32.8128 57.6248,32.4794 54.5,31.5 Z"/></g>
<g><path style="opacity:1" fill="#fe5e48" d="M 51.5,37.5 C 51.8333,37.5 52.1667,37.5 52.5,37.5C 53.9002,38.1001 54.9002,39.1001 55.5,40.5C 50.8333,40.5 46.1667,40.5 41.5,40.5C 37.1667,40.5 32.8333,40.5 28.5,40.5C 28.5,39.5 28.5,38.5 28.5,37.5C 36.1667,37.5 43.8333,37.5 51.5,37.5 Z"/></g>
<g><path style="opacity:1" fill="#03000e" d="M 63.5,38.5 C 63.5,39.8333 62.8333,40.5 61.5,40.5C 61.5,39.1667 62.1667,38.5 63.5,38.5 Z"/></g>
<g><path style="opacity:1" fill="#fe0444" d="M 71.5,38.5 C 74.1667,38.5 76.8333,38.5 79.5,38.5C 82.3356,39.7755 85.3356,40.4422 88.5,40.5C 88.6641,43.1873 88.4974,45.854 88,48.5C 87.8712,44.882 86.0379,43.2153 82.5,43.5C 79.7562,43.7521 77.2562,43.0855 75,41.5C 74.2352,41.5699 73.7352,41.9033 73.5,42.5C 72.7611,42.631 72.0944,42.4643 71.5,42C 72.1712,41.0138 72.1712,39.8471 71.5,38.5 Z"/></g>
<g><path style="opacity:1" fill="#dd3c4a" d="M 17.5,38.5 C 19.3435,40.2789 20.0102,42.6122 19.5,45.5C 18.8333,45.5 18.1667,45.5 17.5,45.5C 17.5,44.5 17.5,43.5 17.5,42.5C 13.5,42.1667 13.5,41.8333 17.5,41.5C 17.5,40.5 17.5,39.5 17.5,38.5 Z"/></g>
<g><path style="opacity:1" fill="#771537" d="M 16.5,38.5 C 16.8333,38.5 17.1667,38.5 17.5,38.5C 17.5,39.5 17.5,40.5 17.5,41.5C 13.5,41.8333 13.5,42.1667 17.5,42.5C 17.5,43.5 17.5,44.5 17.5,45.5C 16.5,45.5 15.5,45.5 14.5,45.5C 13.4479,43.744 11.7812,43.0773 9.5,43.5C 11.8451,41.7153 14.1784,40.0486 16.5,38.5 Z"/></g>
<g><path style="opacity:1" fill="#ffca8f" d="M 28.5,40.5 C 32.8333,40.5 37.1667,40.5 41.5,40.5C 45.2208,41.935 47.5541,44.6017 48.5,48.5C 46.2845,47.956 44.2845,46.956 42.5,45.5C 42.2792,42.9028 41.7792,42.9028 41,45.5C 39.6228,41.7351 38.6228,42.0684 38,46.5C 36.8904,48.0368 35.3904,48.7035 33.5,48.5C 33.5,49.5 33.5,50.5 33.5,51.5C 32.448,51.3505 31.448,51.5172 30.5,52C 32.4257,52.4224 33.4257,53.5891 33.5,55.5C 34.5009,56.7887 34.3342,58.1221 33,59.5C 32.5848,57.7091 31.5848,56.3757 30,55.5C 29.6667,53.8333 29.3333,52.1667 29,50.5C 28.5172,51.448 28.3505,52.448 28.5,53.5C 27.1667,53.5 25.8333,53.5 24.5,53.5C 24.5,52.5 24.5,51.5 24.5,50.5C 27.5983,50.5875 27.9316,50.0875 25.5,49C 26.2444,47.1852 26.9111,45.3519 27.5,43.5C 27.2627,42.209 27.596,41.209 28.5,40.5 Z"/></g>
<g><path style="opacity:1" fill="#fcbd7b" d="M 42.5,45.5 C 42.3832,47.4835 43.0499,49.1502 44.5,50.5C 47.7683,51.487 51.1016,51.8204 54.5,51.5C 51.0381,52.4816 47.3714,52.815 43.5,52.5C 43.5,53.5 43.5,54.5 43.5,55.5C 41.7581,58.1445 41.0914,61.1445 41.5,64.5C 40.6829,62.0314 40.1829,59.3647 40,56.5C 38.9125,58.9316 38.4125,58.5983 38.5,55.5C 36.8762,55.6399 35.7096,54.9733 35,53.5C 34.7216,54.4158 34.2216,55.0825 33.5,55.5C 33.4257,53.5891 32.4257,52.4224 30.5,52C 31.448,51.5172 32.448,51.3505 33.5,51.5C 33.5,50.5 33.5,49.5 33.5,48.5C 35.3904,48.7035 36.8904,48.0368 38,46.5C 38.6228,42.0684 39.6228,41.7351 41,45.5C 41.7792,42.9028 42.2792,42.9028 42.5,45.5 Z"/></g>
<g><path style="opacity:1" fill="#d16d5c" d="M 9.5,43.5 C 11.7812,43.0773 13.4479,43.744 14.5,45.5C 13.5,45.5 12.5,45.5 11.5,45.5C 11.5,46.5 11.5,47.5 11.5,48.5C 10.8333,48.5 10.1667,48.5 9.5,48.5C 8.16667,46.8333 8.16667,45.1667 9.5,43.5 Z"/></g>
<g><path style="opacity:1" fill="#02000e" d="M 61.5,43.5 C 62.1667,43.5 62.8333,43.5 63.5,43.5C 63.5,44.8333 62.8333,45.5 61.5,45.5C 61.5,44.8333 61.5,44.1667 61.5,43.5 Z"/></g>
<g><path style="opacity:1" fill="#5d0e2d" d="M 17.5,38.5 C 17.5,38.1667 17.5,37.8333 17.5,37.5C 18.1667,37.5 18.8333,37.5 19.5,37.5C 20.5,37.5 21.5,37.5 22.5,37.5C 22.5,38.5 22.5,39.5 22.5,40.5C 23.5,40.5 24.5,40.5 25.5,40.5C 25.5,41.5 25.5,42.5 25.5,43.5C 23.8212,43.2852 22.8212,43.9519 22.5,45.5C 21.5,45.5 20.5,45.5 19.5,45.5C 20.0102,42.6122 19.3435,40.2789 17.5,38.5 Z"/></g>
<g><path style="opacity:0.063" fill="#2a302c" d="M 93.5,32.5 C 93.5,38.8333 93.5,45.1667 93.5,51.5C 92.1667,45.1667 92.1667,38.8333 93.5,32.5 Z"/></g>
<g><path style="opacity:1" fill="#22051b" d="M 60.5,35.5 C 60.1788,37.0481 59.1788,37.7148 57.5,37.5C 57.1936,40.3854 57.5269,43.0521 58.5,45.5C 59.1667,45.5 59.8333,45.5 60.5,45.5C 59.8478,46.7251 58.6811,47.3917 57,47.5C 55.3189,47.3917 54.1522,46.7251 53.5,45.5C 55.256,44.4479 55.9227,42.7812 55.5,40.5C 54.9002,39.1001 53.9002,38.1001 52.5,37.5C 54.6353,35.631 57.3019,34.9644 60.5,35.5 Z"/></g>
<g><path style="opacity:1" fill="#f89461" d="M 63.5,43.5 C 63.8333,43.5 64.1667,43.5 64.5,43.5C 68.7051,47.9751 68.3718,51.9751 63.5,55.5C 61.8002,55.3739 60.3002,54.7073 59,53.5C 57.6998,54.7073 56.1998,55.3739 54.5,55.5C 53.3064,54.2227 51.6397,53.5561 49.5,53.5C 47.2147,53.6759 45.2147,54.3426 43.5,55.5C 43.5,54.5 43.5,53.5 43.5,52.5C 47.3714,52.815 51.0381,52.4816 54.5,51.5C 56.2488,50.0149 58.2488,49.0149 60.5,48.5C 61.404,47.791 61.7373,46.791 61.5,45.5C 62.8333,45.5 63.5,44.8333 63.5,43.5 Z"/></g>
<g><path style="opacity:1" fill="#fe1043" d="M 82.5,43.5 C 83.8889,46.2793 84.7222,49.2793 85,52.5C 85.6708,53.2524 86.5041,53.5858 87.5,53.5C 87.9227,55.7812 87.256,57.4479 85.5,58.5C 80.9999,56.7758 78.9999,58.4425 79.5,63.5C 78.8826,63.3893 78.3826,63.056 78,62.5C 77.502,59.5184 77.3354,56.5184 77.5,53.5C 79.256,52.4479 79.9227,50.7812 79.5,48.5C 78.5,48.5 77.5,48.5 76.5,48.5C 76.5,47.5 76.5,46.5 76.5,45.5C 74.8212,45.7148 73.8212,45.0481 73.5,43.5C 73.5,43.1667 73.5,42.8333 73.5,42.5C 73.7352,41.9033 74.2352,41.5699 75,41.5C 77.2562,43.0855 79.7562,43.7521 82.5,43.5 Z"/></g>
<g><path style="opacity:1" fill="#f65949" d="M 19.5,45.5 C 20.5,45.5 21.5,45.5 22.5,45.5C 22.5,46.5 22.5,47.5 22.5,48.5C 21.5,48.5 20.5,48.5 19.5,48.5C 19.5,47.5 19.5,46.5 19.5,45.5 Z"/></g>
<g><path style="opacity:1" fill="#fdc680" d="M 25.5,43.5 C 26.1667,43.5 26.8333,43.5 27.5,43.5C 26.9111,45.3519 26.2444,47.1852 25.5,49C 27.9316,50.0875 27.5983,50.5875 24.5,50.5C 24.5,51.5 24.5,52.5 24.5,53.5C 25.2625,54.2679 26.2625,54.7679 27.5,55C 26.8828,57.277 26.2161,59.4437 25.5,61.5C 25.5,59.5 25.5,57.5 25.5,55.5C 23.5,54.8333 21.5,54.1667 19.5,53.5C 19.5,51.8333 19.5,50.1667 19.5,48.5C 20.5,48.5 21.5,48.5 22.5,48.5C 22.5,47.5 22.5,46.5 22.5,45.5C 22.8212,43.9519 23.8212,43.2852 25.5,43.5 Z"/></g>
<g><path style="opacity:1" fill="#fead6d" d="M 41.5,40.5 C 46.1667,40.5 50.8333,40.5 55.5,40.5C 55.9227,42.7812 55.256,44.4479 53.5,45.5C 52.596,46.209 52.2627,47.209 52.5,48.5C 55.1667,48.5 57.8333,48.5 60.5,48.5C 58.2488,49.0149 56.2488,50.0149 54.5,51.5C 51.1016,51.8204 47.7683,51.487 44.5,50.5C 43.0499,49.1502 42.3832,47.4835 42.5,45.5C 44.2845,46.956 46.2845,47.956 48.5,48.5C 47.5541,44.6017 45.2208,41.935 41.5,40.5 Z"/></g>
<g><path style="opacity:1" fill="#7f323c" d="M 60.5,35.5 C 61.5,36.5 62.5,37.5 63.5,38.5C 62.1667,38.5 61.5,39.1667 61.5,40.5C 60.1667,41.5 60.1667,42.5 61.5,43.5C 61.5,44.1667 61.5,44.8333 61.5,45.5C 61.7373,46.791 61.404,47.791 60.5,48.5C 57.8333,48.5 55.1667,48.5 52.5,48.5C 52.2627,47.209 52.596,46.209 53.5,45.5C 54.1522,46.7251 55.3189,47.3917 57,47.5C 58.6811,47.3917 59.8478,46.7251 60.5,45.5C 59.6132,42.9989 59.2799,40.6655 59.5,38.5C 58.5258,40.7427 58.1924,43.076 58.5,45.5C 57.5269,43.0521 57.1936,40.3854 57.5,37.5C 59.1788,37.7148 60.1788,37.0481 60.5,35.5 Z"/></g>
<g><path style="opacity:1" fill="#ff136a" d="M 60.5,45.5 C 59.8333,45.5 59.1667,45.5 58.5,45.5C 58.1924,43.076 58.5258,40.7427 59.5,38.5C 59.2799,40.6655 59.6132,42.9989 60.5,45.5 Z"/></g>
<g><path style="opacity:1" fill="#ff865c" d="M 70.5,43.5 C 71.5,43.5 72.5,43.5 73.5,43.5C 73.8212,45.0481 74.8212,45.7148 76.5,45.5C 76.5,46.5 76.5,47.5 76.5,48.5C 75.0331,47.7084 73.6998,47.7084 72.5,48.5C 72.3487,52.2348 71.682,56.0682 70.5,60C 71.8825,61.4609 71.5492,62.2942 69.5,62.5C 68.6942,61.0028 68.0276,59.3361 67.5,57.5C 68.325,56.6143 69.325,56.281 70.5,56.5C 70.6782,52.0463 69.6782,47.8797 67.5,44C 68.1765,42.3167 69.1765,42.1501 70.5,43.5 Z"/></g>
<g><path style="opacity:1" fill="#ff8b5d" d="M 70.5,43.5 C 69.1765,42.1501 68.1765,42.3167 67.5,44C 69.6782,47.8797 70.6782,52.0463 70.5,56.5C 69.325,56.281 68.325,56.6143 67.5,57.5C 68.0276,59.3361 68.6942,61.0028 69.5,62.5C 68.6314,64.717 68.298,67.0504 68.5,69.5C 67.8333,69.5 67.1667,69.5 66.5,69.5C 67.5388,65.7938 67.5388,62.1271 66.5,58.5C 65.5,58.5 64.5,58.5 63.5,58.5C 63.5,57.5 63.5,56.5 63.5,55.5C 68.3718,51.9751 68.7051,47.9751 64.5,43.5C 65.4695,42.3707 66.6362,41.3707 68,40.5C 69.7491,40.7483 70.5824,41.7483 70.5,43.5 Z"/></g>
<g><path style="opacity:0.133" fill="#4b4847" d="M 14.5,45.5 C 15.5,45.5 16.5,45.5 17.5,45.5C 17.666,50.8437 17.4994,56.1771 17,61.5C 16.8283,56.7982 16.3283,52.1315 15.5,47.5C 14.1861,48.3128 13.0195,49.3128 12,50.5C 11.5357,49.9056 11.369,49.2389 11.5,48.5C 11.5,47.5 11.5,46.5 11.5,45.5C 12.5,45.5 13.5,45.5 14.5,45.5 Z"/></g>
<g><path style="opacity:0.494" fill="#901c35" d="M 89.5,30.5 C 90.1667,30.5 90.5,30.8333 90.5,31.5C 90.2164,39.0442 90.5498,46.5442 91.5,54C 91.3699,55.0588 90.8699,55.8921 90,56.5C 89.7679,55.2625 89.2679,54.2625 88.5,53.5C 88.1667,53.5 87.8333,53.5 87.5,53.5C 89.4139,46.1081 90.0806,38.4415 89.5,30.5 Z"/></g>
<g><path style="opacity:0.047" fill="#252b25" d="M 9.5,50.5 C 10.8333,51.1667 10.8333,51.1667 9.5,50.5 Z"/></g>
<g><path style="opacity:1" fill="#f8e4ca" d="M 19.5,53.5 C 21.5,54.1667 23.5,54.8333 25.5,55.5C 25.5,57.5 25.5,59.5 25.5,61.5C 25.5,61.8333 25.5,62.1667 25.5,62.5C 25.5,64.1667 25.5,65.8333 25.5,67.5C 24.5,67.5 23.5,67.5 22.5,67.5C 22.7845,65.5853 22.4511,63.9187 21.5,62.5C 21.1667,62.5 20.8333,62.5 20.5,62.5C 19.8333,62.5 19.5,62.1667 19.5,61.5C 19.5,58.8333 19.5,56.1667 19.5,53.5 Z"/></g>
<g><path style="opacity:1" fill="#ff8159" d="M 76.5,48.5 C 77.5,48.5 78.5,48.5 79.5,48.5C 79.9227,50.7812 79.256,52.4479 77.5,53.5C 76.5233,56.2869 76.19,59.2869 76.5,62.5C 75.325,62.281 74.325,62.6143 73.5,63.5C 71.9444,65.6796 70.2777,67.6796 68.5,69.5C 68.298,67.0504 68.6314,64.717 69.5,62.5C 71.5492,62.2942 71.8825,61.4609 70.5,60C 71.682,56.0682 72.3487,52.2348 72.5,48.5C 73.6998,47.7084 75.0331,47.7084 76.5,48.5 Z"/></g>
<g><path style="opacity:1" fill="#23101e" d="M 54.5,55.5 C 53.1667,55.5 51.8333,55.5 50.5,55.5C 50.5,56.5 50.5,57.5 50.5,58.5C 52.4832,58.8432 53.8166,58.1765 54.5,56.5C 55.5,56.5 56.5,56.5 57.5,56.5C 57.5,59.1667 57.5,61.8333 57.5,64.5C 57.1667,64.5 56.8333,64.5 56.5,64.5C 55.8333,64.5 55.1667,64.5 54.5,64.5C 53.4937,68.53 50.827,70.1967 46.5,69.5C 46.1788,67.9519 45.1788,67.2852 43.5,67.5C 43.7148,65.8212 43.0481,64.8212 41.5,64.5C 41.0914,61.1445 41.7581,58.1445 43.5,55.5C 45.2147,54.3426 47.2147,53.6759 49.5,53.5C 51.6397,53.5561 53.3064,54.2227 54.5,55.5 Z"/></g>
<g><path style="opacity:1" fill="#6fd4df" d="M 54.5,55.5 C 54.5,55.8333 54.5,56.1667 54.5,56.5C 53.8166,58.1765 52.4832,58.8432 50.5,58.5C 50.5,57.5 50.5,56.5 50.5,55.5C 51.8333,55.5 53.1667,55.5 54.5,55.5 Z"/></g>
<g><path style="opacity:0.997" fill="#f40247" d="M 85.5,58.5 C 85.5,59.8333 85.5,61.1667 85.5,62.5C 83.8235,63.1834 83.1568,64.5168 83.5,66.5C 82.1938,67.4674 81.5271,68.8007 81.5,70.5C 79.5,71.1667 77.5,71.8333 75.5,72.5C 75.5,73.5 75.5,74.5 75.5,75.5C 72.6644,76.7755 69.6644,77.4422 66.5,77.5C 66.5,76.5 66.5,75.5 66.5,74.5C 70.0399,74.6235 72.0399,72.9568 72.5,69.5C 73.5,69.5 74.5,69.5 75.5,69.5C 75.5,68.5 75.5,67.5 75.5,66.5C 77.6188,66.5323 78.9522,65.5323 79.5,63.5C 78.9999,58.4425 80.9999,56.7758 85.5,58.5 Z"/></g>
<g><path style="opacity:1" fill="#fffbf3" d="M 35.5,62.5 C 35.5,64.1667 35.5,65.8333 35.5,67.5C 32.6915,67.6933 30.0248,68.36 27.5,69.5C 26.1667,69.5 25.5,68.8333 25.5,67.5C 25.5,65.8333 25.5,64.1667 25.5,62.5C 27.1765,61.8166 27.8432,60.4832 27.5,58.5C 30.385,59.3822 33.0517,60.7155 35.5,62.5 Z"/></g>
<g><path style="opacity:1" fill="#ffca84" d="M 33.5,55.5 C 34.2216,55.0825 34.7216,54.4158 35,53.5C 35.7096,54.9733 36.8762,55.6399 38.5,55.5C 38.4125,58.5983 38.9125,58.9316 40,56.5C 40.1829,59.3647 40.6829,62.0314 41.5,64.5C 43.0481,64.8212 43.7148,65.8212 43.5,67.5C 42.8333,67.5 42.1667,67.5 41.5,67.5C 39.3536,64.2375 37.8536,64.2375 37,67.5C 36.8019,65.6183 36.3019,63.9516 35.5,62.5C 33.0517,60.7155 30.385,59.3822 27.5,58.5C 27.8432,60.4832 27.1765,61.8166 25.5,62.5C 25.5,62.1667 25.5,61.8333 25.5,61.5C 26.2161,59.4437 26.8828,57.277 27.5,55C 26.2625,54.7679 25.2625,54.2679 24.5,53.5C 25.8333,53.5 27.1667,53.5 28.5,53.5C 28.3505,52.448 28.5172,51.448 29,50.5C 29.3333,52.1667 29.6667,53.8333 30,55.5C 31.5848,56.3757 32.5848,57.7091 33,59.5C 34.3342,58.1221 34.5009,56.7887 33.5,55.5 Z"/></g>
<g><path style="opacity:1" fill="#fbfbfb" d="M 45.5,58.5 C 49.1612,58.3501 50.1612,59.8501 48.5,63C 44.7071,63.4866 43.7071,61.9866 45.5,58.5 Z"/></g>
<g><path style="opacity:1" fill="#fe3364" d="M 63.5,55.5 C 63.5,56.5 63.5,57.5 63.5,58.5C 64.5,58.5 65.5,58.5 66.5,58.5C 67.5388,62.1271 67.5388,65.7938 66.5,69.5C 65.5,69.5 64.5,69.5 63.5,69.5C 63.5,70.5 63.5,71.5 63.5,72.5C 62.5,72.5 61.5,72.5 60.5,72.5C 56.5,71.8333 56.5,71.1667 60.5,70.5C 60.5,69.5 60.5,68.5 60.5,67.5C 59.5,67.5 58.5,67.5 57.5,67.5C 57.5,66.5 57.5,65.5 57.5,64.5C 57.5,61.8333 57.5,59.1667 57.5,56.5C 56.5,56.5 55.5,56.5 54.5,56.5C 54.5,56.1667 54.5,55.8333 54.5,55.5C 56.1998,55.3739 57.6998,54.7073 59,53.5C 60.3002,54.7073 61.8002,55.3739 63.5,55.5 Z"/></g>
<g><path style="opacity:0.235" fill="#382f33" d="M 87.5,53.5 C 87.8333,53.5 88.1667,53.5 88.5,53.5C 88.3184,55.5914 88.6518,57.5914 89.5,59.5C 88.0966,61.7305 86.9299,64.0639 86,66.5C 85.51,65.2068 85.3433,63.8734 85.5,62.5C 85.5,61.1667 85.5,59.8333 85.5,58.5C 87.256,57.4479 87.9227,55.7812 87.5,53.5 Z"/></g>
<g><path style="opacity:1" fill="#e9e5e7" d="M 54.5,64.5 C 53.1667,64.5 51.8333,64.5 50.5,64.5C 50.5,63.5 50.5,62.5 50.5,61.5C 51.8333,61.5 53.1667,61.5 54.5,61.5C 54.5,62.5 54.5,63.5 54.5,64.5 Z"/></g>
<g><path style="opacity:1" fill="#ff3048" d="M 77.5,53.5 C 77.3354,56.5184 77.502,59.5184 78,62.5C 78.3826,63.056 78.8826,63.3893 79.5,63.5C 78.9522,65.5323 77.6188,66.5323 75.5,66.5C 75.5,67.5 75.5,68.5 75.5,69.5C 74.5,69.5 73.5,69.5 72.5,69.5C 72.0399,72.9568 70.0399,74.6235 66.5,74.5C 66.5,75.5 66.5,76.5 66.5,77.5C 66.5,78.5 66.5,79.5 66.5,80.5C 64.5,80.5 62.5,80.5 60.5,80.5C 60.5,79.5 60.5,78.5 60.5,77.5C 64.5,76.8333 64.5,76.1667 60.5,75.5C 60.5,74.5 60.5,73.5 60.5,72.5C 61.5,72.5 62.5,72.5 63.5,72.5C 63.5,71.5 63.5,70.5 63.5,69.5C 64.5,69.5 65.5,69.5 66.5,69.5C 67.1667,69.5 67.8333,69.5 68.5,69.5C 70.2777,67.6796 71.9444,65.6796 73.5,63.5C 74.325,62.6143 75.325,62.281 76.5,62.5C 76.19,59.2869 76.5233,56.2869 77.5,53.5 Z"/></g>
<g><path style="opacity:0.18" fill="#474147" d="M 19.5,61.5 C 19.5,62.1667 19.8333,62.5 20.5,62.5C 20.6567,63.8734 20.49,65.2068 20,66.5C 19.5348,65.0692 18.7014,63.9025 17.5,63C 18.0442,62.2828 18.7109,61.7828 19.5,61.5 Z"/></g>
<g><path style="opacity:1" fill="#fec27c" d="M 41.5,67.5 C 42.1667,67.5 42.8333,67.5 43.5,67.5C 45.1788,67.2852 46.1788,67.9519 46.5,69.5C 48.2922,70.3091 50.2922,70.8091 52.5,71C 48.4311,72.2776 47.7644,74.4443 50.5,77.5C 51.6888,78.4287 53.0222,78.762 54.5,78.5C 53.036,79.1599 51.3693,79.4932 49.5,79.5C 46.7214,79.08 44.0547,78.4133 41.5,77.5C 39.5533,76.8496 37.8866,75.683 36.5,74C 37.8586,72.7955 38.8586,71.2955 39.5,69.5C 40.3857,70.325 40.719,71.325 40.5,72.5C 41.5,72.5 42.5,72.5 43.5,72.5C 43.1692,70.6776 42.5025,69.0109 41.5,67.5 Z"/></g>
<g><path style="opacity:1" fill="#f7aa6e" d="M 54.5,64.5 C 55.1667,64.5 55.8333,64.5 56.5,64.5C 56.648,69.3216 55.9813,73.9883 54.5,78.5C 53.0222,78.762 51.6888,78.4287 50.5,77.5C 47.7644,74.4443 48.4311,72.2776 52.5,71C 50.2922,70.8091 48.2922,70.3091 46.5,69.5C 50.827,70.1967 53.4937,68.53 54.5,64.5 Z"/></g>
<g><path style="opacity:1" fill="#fcd49a" d="M 35.5,62.5 C 36.3019,63.9516 36.8019,65.6183 37,67.5C 37.8536,64.2375 39.3536,64.2375 41.5,67.5C 42.5025,69.0109 43.1692,70.6776 43.5,72.5C 42.5,72.5 41.5,72.5 40.5,72.5C 40.719,71.325 40.3857,70.325 39.5,69.5C 38.8586,71.2955 37.8586,72.7955 36.5,74C 37.8866,75.683 39.5533,76.8496 41.5,77.5C 37.7878,77.0392 34.1211,76.3725 30.5,75.5C 30.5,74.5 30.5,73.5 30.5,72.5C 29.5,72.5 28.5,72.5 27.5,72.5C 27.5,71.5 27.5,70.5 27.5,69.5C 30.0248,68.36 32.6915,67.6933 35.5,67.5C 35.5,65.8333 35.5,64.1667 35.5,62.5 Z"/></g>
<g><path style="opacity:1" fill="#ffa270" d="M 56.5,64.5 C 56.8333,64.5 57.1667,64.5 57.5,64.5C 57.5,65.5 57.5,66.5 57.5,67.5C 58.5,67.5 59.5,67.5 60.5,67.5C 60.5,68.5 60.5,69.5 60.5,70.5C 56.5,71.1667 56.5,71.8333 60.5,72.5C 60.5,73.5 60.5,74.5 60.5,75.5C 64.5,76.1667 64.5,76.8333 60.5,77.5C 60.5,78.5 60.5,79.5 60.5,80.5C 55.1667,80.5 49.8333,80.5 44.5,80.5C 43.5,80.5 42.5,80.5 41.5,80.5C 41.5,79.5 41.5,78.5 41.5,77.5C 44.0547,78.4133 46.7214,79.08 49.5,79.5C 51.3693,79.4932 53.036,79.1599 54.5,78.5C 55.9813,73.9883 56.648,69.3216 56.5,64.5 Z"/></g>
<g><path style="opacity:0.035" fill="#3f3438" d="M 21.5,62.5 C 22.4511,63.9187 22.7845,65.5853 22.5,67.5C 23.5,67.5 24.5,67.5 25.5,67.5C 25.5,68.8333 26.1667,69.5 27.5,69.5C 27.5,70.5 27.5,71.5 27.5,72.5C 28.5,72.5 29.5,72.5 30.5,72.5C 30.5,73.5 30.5,74.5 30.5,75.5C 34.1211,76.3725 37.7878,77.0392 41.5,77.5C 41.5,78.5 41.5,79.5 41.5,80.5C 42.5,80.5 43.5,80.5 44.5,80.5C 51.0869,82.4612 58.0869,83.1279 65.5,82.5C 65.8333,82.5 66.1667,82.5 66.5,82.5C 66.5,82.8333 66.5,83.1667 66.5,83.5C 58.8333,83.5 51.1667,83.5 43.5,83.5C 39.0429,82.2401 34.7096,80.4067 30.5,78C 27.1667,74.6667 23.8333,71.3333 20.5,68C 21.4061,66.3005 21.7394,64.4672 21.5,62.5 Z"/></g>
<g><path style="opacity:0.188" fill="#36222a" d="M 83.5,66.5 C 84.2891,66.7828 84.9558,67.2828 85.5,68C 81.1667,72.3333 76.8333,76.6667 72.5,81C 70.4144,81.3153 68.4144,81.8153 66.5,82.5C 66.1667,81.1667 65.8333,81.1667 65.5,82.5C 58.0869,83.1279 51.0869,82.4612 44.5,80.5C 49.8333,80.5 55.1667,80.5 60.5,80.5C 62.5,80.5 64.5,80.5 66.5,80.5C 66.5,79.5 66.5,78.5 66.5,77.5C 69.6644,77.4422 72.6644,76.7755 75.5,75.5C 75.5,74.5 75.5,73.5 75.5,72.5C 77.5,71.8333 79.5,71.1667 81.5,70.5C 81.5271,68.8007 82.1938,67.4674 83.5,66.5 Z"/></g>
</svg>
