<svg version="1.1" id="Layer_1" xmlns="http://www.w3.org/2000/svg" xmlns:xlink="http://www.w3.org/1999/xlink" x="0px" y="0px"
	 width="100%" viewBox="0 0 78 74" enable-background="new 0 0 78 74" xml:space="preserve">
<path fill="#FFFFFF" opacity="1.000000" stroke="none" 
	d="
M9.000000,1.000000 
	C32.232796,1.000000 55.465591,1.000000 79.000000,1.000000 
	C79.000000,11.352275 79.000000,21.707479 78.672966,32.438011 
	C76.983223,31.582802 75.620514,30.352262 74.140732,28.702513 
	C73.956177,26.839060 73.888695,25.394815 73.901428,23.597034 
	C73.326637,22.939281 72.671646,22.635069 71.760071,22.168243 
	C71.002487,21.673206 70.501488,21.340778 69.976654,20.744068 
	C69.697830,20.051868 69.442848,19.623951 69.112396,18.874664 
	C68.378548,18.416716 67.720177,18.280134 66.700264,18.067726 
	C65.863663,17.879393 65.388603,17.766886 64.843346,17.433308 
	C64.296715,16.840387 63.820278,16.468538 63.095341,15.702955 
	C57.389313,15.204287 51.930679,14.989508 46.474747,15.044147 
	C44.016823,15.068765 41.564278,15.630759 38.953064,16.287483 
	C37.565762,17.099304 36.334690,17.572573 35.041485,18.249489 
	C34.979355,18.453138 34.905525,18.872520 34.598984,18.944756 
	C33.824600,19.332439 33.356758,19.647886 32.609093,20.071016 
	C31.905506,20.829338 31.481741,21.479977 30.749348,22.107506 
	C30.237617,22.120768 30.034519,22.157139 29.421606,22.122101 
	C26.806536,22.069334 24.601280,22.087978 22.196362,21.821415 
	C21.370007,20.655882 20.743315,19.775555 20.091999,18.466749 
	C19.569426,15.991106 19.071474,13.943941 18.684868,11.501459 
	C18.962608,10.021484 19.129004,8.936828 19.540379,8.060781 
	C20.503870,7.513904 21.222383,6.758417 21.940897,6.002930 
	C21.543037,5.631356 21.145176,5.259781 20.747316,4.888206 
	C20.183037,5.547490 19.618755,6.206774 18.736824,6.965479 
	C17.954559,7.729038 17.489944,8.393176 16.677822,9.046850 
	C16.105471,9.432933 15.880623,9.829478 15.328673,10.183050 
	C14.049109,9.793035 13.096646,9.445992 11.866958,9.060904 
	C11.404080,9.004549 11.218431,8.986240 11.015179,8.980966 
	C10.997576,8.994000 11.037365,8.980704 10.987161,8.762225 
	C10.936956,8.543746 10.709979,8.157114 10.787998,7.768122 
	C10.340829,5.576935 9.815641,3.774741 9.223303,1.727779 
	C9.104100,1.322007 9.052050,1.161004 9.000000,1.000000 
z"/>
<path fill="#FFFFFF" opacity="1.000000" stroke="none" 
	d="
M79.000000,45.000000 
	C79.000000,54.955147 79.000000,64.910294 79.000000,75.000000 
	C56.645935,75.000000 34.291626,75.000000 11.456745,74.696358 
	C10.901772,73.994492 10.827369,73.596275 10.885798,72.791252 
	C11.081416,71.255554 11.144200,70.126663 11.519842,68.839813 
	C13.531278,67.348717 15.229854,66.015556 17.253025,64.775627 
	C18.121286,65.567848 18.664949,66.266838 19.128651,67.255760 
	C19.292183,68.034683 19.535679,68.523682 19.916649,69.301620 
	C20.563961,69.929161 21.073797,70.267761 21.836912,70.774559 
	C21.918648,69.653488 21.977175,68.850716 22.342144,67.999611 
	C23.039040,67.638428 23.429495,67.325577 23.895657,66.583008 
	C23.939777,64.119926 23.908194,62.086586 23.928787,59.711914 
	C23.901674,59.154472 23.822386,58.938362 23.830399,58.564667 
	C23.917702,58.407085 24.023613,58.062702 24.286486,57.998280 
	C24.727585,57.632973 24.905811,57.332092 25.059143,57.057499 
	C25.034250,57.083790 25.098108,57.117928 25.370491,57.004379 
	C26.108313,56.545238 26.573753,56.199650 27.298159,55.890388 
	C27.723595,55.637806 27.890068,55.348900 28.435570,55.026901 
	C29.557850,55.117977 30.301100,55.242146 31.211412,55.646580 
	C32.019382,55.848721 32.660290,55.770599 33.565041,55.894871 
	C35.156200,56.769623 36.483517,57.441978 37.972824,58.393845 
	C39.052216,59.179035 39.969608,59.684715 41.086021,60.544762 
	C48.477165,61.153164 55.668785,61.429371 62.862965,61.593647 
	C63.211109,61.601601 63.581730,60.625275 63.989174,59.848476 
	C64.046333,59.414524 64.056206,59.239399 64.315163,59.015099 
	C64.726517,58.915916 64.888771,58.865906 65.397667,58.887726 
	C66.554367,58.669933 67.364410,58.380306 68.463005,57.947124 
	C68.893044,57.179325 69.034538,56.555088 69.457932,55.735580 
	C71.710564,53.164715 75.227234,51.614967 74.352020,47.488358 
	C76.126434,46.625370 77.563217,45.812687 79.000000,45.000000 
z"/>
<path fill="#FFFFFF" opacity="1.000000" stroke="none" 
	d="
M1.000000,59.000000 
	C1.000000,39.666660 1.000000,20.333317 1.000000,1.000000 
	C2.693919,1.000000 4.347488,1.000000 6.177148,1.000500 
	C5.938678,1.678296 5.524117,2.355592 5.052492,3.418330 
	C6.034003,5.179996 7.072578,6.556220 8.042130,8.137893 
	C7.973108,8.343342 7.956713,8.776499 7.672426,8.991271 
	C8.576931,14.750587 9.765723,20.295132 10.637379,25.908894 
	C9.891742,26.030102 9.463243,26.082088 8.700354,26.065586 
	C7.566772,26.369627 6.767579,26.742157 5.678727,26.992466 
	C4.650022,27.090225 3.910976,27.310205 3.171929,27.530186 
	C3.758046,28.375288 4.344162,29.220392 4.963191,30.057274 
	C4.996102,30.049055 4.930708,30.031731 4.999608,30.290953 
	C5.365093,30.729664 5.661679,30.909153 5.964946,31.046249 
	C5.971627,31.003855 5.914404,31.067831 6.061336,31.383595 
	C7.777131,32.492344 9.345994,33.285332 10.942359,34.435696 
	C9.601789,35.538033 8.233716,36.282997 6.865643,37.027958 
	C7.561911,37.377052 8.258179,37.726143 8.954447,38.075237 
	C9.280302,39.686066 9.606158,41.296898 9.569047,43.136044 
	C9.201035,44.804436 9.195990,46.244507 9.190344,47.882042 
	C9.406194,48.349300 9.622643,48.619095 9.900467,49.143742 
	C10.024959,49.561550 10.088074,49.724514 10.095436,50.205841 
	C10.293214,51.063709 10.546746,51.603218 10.848532,52.485123 
	C10.912230,53.516285 10.927676,54.205048 10.746338,54.972954 
	C10.286798,55.193893 10.108944,55.406662 9.749964,55.829170 
	C9.307817,56.306511 9.131699,56.645081 8.707629,57.063339 
	C8.279629,57.432537 8.099579,57.722054 7.954638,58.004337 
	C7.989745,57.997105 7.970107,57.928158 7.574090,58.098099 
	C7.190273,61.454487 7.202472,64.640930 7.054661,68.134644 
	C6.539360,69.263947 6.184069,70.085983 5.558031,71.046036 
	C5.235303,71.767891 5.183323,72.351730 5.104630,73.251640 
	C5.718611,74.045135 6.359305,74.522568 7.000000,75.000000 
	C5.072513,75.000000 3.145026,75.000000 1.000000,75.000000 
	C1.000000,72.665253 1.000000,70.327354 1.284072,67.488441 
	C1.752484,66.943810 1.936824,66.900200 2.499569,66.919678 
	C3.196605,65.648987 3.515235,64.315208 3.903426,62.610374 
	C2.981992,61.159546 1.990996,60.079773 1.000000,59.000000 
z"/>
<path fill="#9C300A" opacity="1.000000" stroke="none" 
	d="
M79.000000,44.539368 
	C77.563217,45.812687 76.126434,46.625370 74.521347,47.132660 
	C74.321304,40.925415 74.289558,35.023571 74.257812,29.121723 
	C75.620514,30.352262 76.983223,31.582802 78.672966,32.906670 
	C79.000000,36.692909 79.000000,40.385818 79.000000,44.539368 
z"/>
<path fill="#00EC03" opacity="1.000000" stroke="none" 
	d="
M5.131341,72.935577 
	C5.183323,72.351730 5.235303,71.767891 5.942134,71.062675 
	C7.055141,69.934418 7.513298,68.927528 7.985565,67.960320 
	C7.999676,68.000000 7.969469,67.920868 8.290396,67.807053 
	C8.837842,67.708138 9.064361,67.723030 9.495925,68.035477 
	C10.051635,69.954712 10.402300,71.576378 10.752965,73.198051 
	C10.827369,73.596275 10.901772,73.994492 10.988089,74.696358 
	C10.250000,75.000000 9.500000,75.000000 8.411654,74.648056 
	C7.092651,73.842598 6.111996,73.389091 5.131341,72.935577 
z"/>
<path fill="#005F58" opacity="1.000000" stroke="none" 
	d="
M1.000000,59.333332 
	C1.990996,60.079773 2.981992,61.159546 3.635765,62.624702 
	C2.943338,63.038876 2.588134,63.067661 2.144901,62.781887 
	C1.704581,61.978218 1.352289,61.489109 0.999999,61.000000 
	C1.000000,60.555553 1.000000,60.111111 1.000000,59.333332 
z"/>
<path fill="#0C100F" opacity="1.000000" stroke="none" 
	d="
M0.999999,61.428463 
	C1.352289,61.489109 1.704581,61.978218 2.095912,63.154877 
	C2.130355,64.847145 2.125759,65.851868 2.121163,66.856583 
	C1.936824,66.900200 1.752484,66.943810 1.284072,66.993713 
	C1.000000,65.285645 1.000000,63.571285 0.999999,61.428463 
z"/>
<path fill="#5DB032" opacity="1.000000" stroke="none" 
	d="
M5.109556,3.032888 
	C5.524117,2.355592 5.938678,1.678296 6.676620,1.000500 
	C7.444445,1.000000 7.888889,1.000000 8.666667,1.000000 
	C9.052050,1.161004 9.104100,1.322007 8.876654,1.847281 
	C7.434622,2.485330 6.272089,2.759109 5.109556,3.032888 
z"/>
<path fill="#55BA28" opacity="1.000000" stroke="none" 
	d="
M5.104628,73.251648 
	C6.111996,73.389091 7.092651,73.842598 8.036654,74.648056 
	C8.000000,75.000000 7.500000,75.000000 7.250000,75.000000 
	C6.359305,74.522568 5.718611,74.045135 5.104628,73.251648 
z"/>
<path fill="#FEB23F" opacity="1.000000" stroke="none" 
	d="
M74.140732,28.702513 
	C74.289558,35.023571 74.321304,40.925415 74.183723,47.182964 
	C75.227234,51.614967 71.710564,53.164715 69.340424,55.801262 
	C68.941010,56.062210 68.713799,55.917763 68.549217,55.609177 
	C66.920166,55.175552 65.455696,55.050522 63.954315,54.580994 
	C64.218361,52.851265 64.364197,51.407028 64.862503,50.096855 
	C65.395187,48.696312 66.260315,47.422211 67.386444,46.017952 
	C68.190628,44.790314 68.588699,43.637642 68.949112,42.169624 
	C68.933220,41.213989 68.954979,40.573696 68.975166,39.703773 
	C68.973587,39.474144 69.146721,39.048759 69.463272,38.975266 
	C69.840225,36.679699 70.332329,34.341217 69.777870,32.284935 
	C69.502968,31.265409 67.303505,30.764824 65.666092,30.035221 
	C64.781525,30.477177 64.205612,30.913374 63.629700,31.349571 
	C64.124969,31.659422 64.620232,31.969271 65.082520,32.453800 
	C65.049538,32.628479 64.988617,32.978756 64.590492,32.995201 
	C63.129700,33.001392 62.067032,32.991138 61.000290,32.555313 
	C60.608242,30.043884 60.220268,27.958025 59.879608,25.579647 
	C59.635216,24.826353 59.343510,24.365574 59.057346,23.539728 
	C58.065403,21.180536 57.067921,19.186411 56.490776,17.106770 
	C59.055351,16.713066 61.199596,16.404879 63.343838,16.096689 
	C63.820278,16.468538 64.296715,16.840387 64.540909,17.495203 
	C63.927490,18.435144 63.546310,19.092117 63.345695,20.103632 
	C65.684341,20.641565 67.842415,20.824957 70.000488,21.008350 
	C70.501488,21.340778 71.002487,21.673206 71.840012,22.425808 
	C72.724762,23.214178 73.272987,23.582375 73.821213,23.950573 
	C73.888695,25.394815 73.956177,26.839060 74.140732,28.702513 
z"/>
<path fill="#C3EB27" opacity="1.000000" stroke="none" 
	d="
M5.968387,27.114687 
	C6.767579,26.742157 7.566772,26.369627 8.733244,26.374695 
	C9.702916,27.141008 10.305309,27.529722 10.907701,27.918434 
	C10.923307,27.225515 10.938911,26.532595 10.954516,25.839676 
	C9.765723,20.295132 8.576931,14.750587 8.053381,9.049844 
	C9.491537,8.922665 10.264451,8.951684 11.037365,8.980704 
	C11.037365,8.980704 10.997576,8.994000 10.876627,9.234337 
	C10.905816,10.153691 11.055953,10.832707 11.206090,11.511724 
	C11.454293,11.474492 11.702496,11.437261 11.950699,11.400029 
	C12.015194,10.633002 12.079690,9.865976 12.144185,9.098949 
	C13.096646,9.445992 14.049109,9.793035 15.441345,10.523514 
	C16.469711,11.110719 17.058300,11.314487 17.827250,11.513253 
	C18.282705,11.511832 18.471342,11.641340 18.573523,11.896776 
	C19.071474,13.943941 19.569426,15.991106 19.862732,18.777180 
	C15.719173,20.406958 17.158918,23.558111 16.753139,26.121948 
	C16.302769,26.379568 16.154184,26.605488 15.965754,27.230888 
	C14.520002,28.342026 13.239056,29.135910 11.696233,30.092026 
	C11.209607,30.822613 10.984857,31.390972 10.408525,31.914989 
	C8.676098,31.603041 7.295251,31.335436 5.914404,31.067833 
	C5.914404,31.067831 5.971627,31.003855 5.869101,30.804216 
	C5.487952,30.413630 5.209330,30.222679 4.930708,30.031731 
	C4.930708,30.031731 4.996102,30.049055 5.028628,29.749090 
	C5.363564,28.670979 5.665976,27.892834 5.968387,27.114687 
z"/>
<path fill="#20854E" opacity="1.000000" stroke="none" 
	d="
M22.396023,22.106623 
	C24.601280,22.087978 26.806536,22.069334 29.288082,22.342171 
	C29.448528,23.093174 29.332687,23.552694 29.143694,24.423817 
	C28.557764,27.484196 28.044987,30.132973 27.220573,32.735962 
	C26.292776,32.815987 25.676613,32.941795 25.016544,32.720142 
	C24.646143,31.428478 24.319645,30.484276 24.420195,30.775055 
	C22.052275,31.277466 20.550802,31.596039 19.041494,31.615353 
	C19.048166,30.917339 19.062675,30.518587 19.306519,30.000973 
	C19.738863,29.606312 19.941874,29.330513 20.438841,28.902678 
	C22.123383,27.763954 23.513969,26.777267 24.480238,26.091654 
	C23.627075,24.460400 23.011549,23.283512 22.396023,22.106623 
z"/>
<path fill="#9B2000" opacity="1.000000" stroke="none" 
	d="
M63.095341,15.702955 
	C61.199596,16.404879 59.055351,16.713066 56.085129,17.094864 
	C53.452488,17.554213 51.645821,17.939951 49.411976,18.253757 
	C46.382618,18.200457 43.780437,18.219088 41.056767,17.946495 
	C40.326614,17.086491 39.717953,16.517712 39.109295,15.948933 
	C41.564278,15.630759 44.016823,15.068765 46.474747,15.044147 
	C51.930679,14.989508 57.389313,15.204287 63.095341,15.702955 
z"/>
<path fill="#6DF902" opacity="1.000000" stroke="none" 
	d="
M22.196362,21.821415 
	C23.011549,23.283512 23.627075,24.460400 24.480238,26.091654 
	C23.513969,26.777267 22.123383,27.763954 20.335674,28.564135 
	C18.935692,27.587761 17.932829,26.797892 16.929968,26.008024 
	C17.158918,23.558111 15.719173,20.406958 19.887354,19.205658 
	C20.743315,19.775555 21.370007,20.655882 22.196362,21.821415 
z"/>
<path fill="#10E013" opacity="1.000000" stroke="none" 
	d="
M5.052492,3.418330 
	C6.272089,2.759109 7.434622,2.485330 8.943804,2.092049 
	C9.815641,3.774741 10.340829,5.576935 10.467289,7.704196 
	C9.416091,7.996990 8.763622,7.964716 8.111153,7.932444 
	C7.072578,6.556220 6.034003,5.179996 5.052492,3.418330 
z"/>
<path fill="#981B00" opacity="1.000000" stroke="none" 
	d="
M34.905525,18.872520 
	C34.905525,18.872520 34.979355,18.453138 35.432625,18.221977 
	C37.311733,18.639341 38.737568,19.287868 39.791744,19.985823 
	C38.932274,20.115501 38.444466,20.195751 37.586521,20.206518 
	C36.463589,20.102974 35.710796,20.068913 34.976189,19.742855 
	C34.964760,19.258080 34.935143,19.065300 34.905525,18.872520 
z"/>
<path fill="#93250C" opacity="1.000000" stroke="none" 
	d="
M31.057978,22.130615 
	C31.481741,21.479977 31.905506,20.829338 32.732899,20.301170 
	C33.613583,20.600241 34.090637,20.776844 34.644753,21.253672 
	C34.755791,21.962135 34.789764,22.370375 34.520470,22.867668 
	C33.413273,23.148094 32.609341,23.339466 31.367958,23.693491 
	C30.632517,23.945642 30.334528,24.035143 30.387951,23.899303 
	C30.845568,23.159517 30.951773,22.645065 31.057978,22.130615 
z"/>
<path fill="#9A6331" opacity="1.000000" stroke="none" 
	d="
M40.163406,19.936396 
	C38.737568,19.287868 37.311733,18.639341 35.494755,18.018328 
	C36.334690,17.572573 37.565762,17.099304 38.953064,16.287485 
	C39.717953,16.517712 40.326614,17.086491 41.020855,18.256805 
	C41.004585,19.261047 40.902737,19.663754 40.633827,20.072447 
	C40.466770,20.078434 40.163406,19.936396 40.163406,19.936396 
z"/>
<path fill="#C3CC14" opacity="1.000000" stroke="none" 
	d="
M19.054474,6.866057 
	C19.618755,6.206774 20.183037,5.547490 20.747316,4.888206 
	C21.145176,5.259781 21.543037,5.631356 21.940897,6.002930 
	C21.222383,6.758417 20.503870,7.513904 19.453081,7.821232 
	C19.098696,7.204067 19.076586,7.035062 19.054474,6.866057 
z"/>
<path fill="#151515" opacity="1.000000" stroke="none" 
	d="
M18.736824,6.965479 
	C19.076586,7.035062 19.098696,7.204067 19.208103,7.612621 
	C19.129004,8.936828 18.962608,10.021484 18.684868,11.501459 
	C18.471342,11.641340 18.282705,11.511832 17.725170,11.199502 
	C17.303595,10.279606 17.164461,9.668460 17.025330,9.057314 
	C17.489944,8.393176 17.954559,7.729038 18.736824,6.965479 
z"/>
<path fill="#A63300" opacity="1.000000" stroke="none" 
	d="
M63.165131,19.749090 
	C63.546310,19.092117 63.927490,18.435144 64.611099,17.716274 
	C65.388603,17.766886 65.863663,17.879393 66.693863,18.337605 
	C67.085732,19.040121 67.122475,19.396933 66.762833,19.831234 
	C65.299347,19.855511 64.232239,19.802299 63.165131,19.749090 
z"/>
<path fill="#DD8627" opacity="1.000000" stroke="none" 
	d="
M63.345695,20.103632 
	C64.232239,19.802299 65.299347,19.855511 67.035492,19.868587 
	C68.198975,19.617647 68.693413,19.406841 69.187859,19.196033 
	C69.442848,19.623951 69.697830,20.051868 69.976654,20.744066 
	C67.842415,20.824957 65.684341,20.641565 63.345695,20.103632 
z"/>
<path fill="#74150A" opacity="1.000000" stroke="none" 
	d="
M69.112396,18.874664 
	C68.693413,19.406841 68.198975,19.617647 67.431870,19.791100 
	C67.122475,19.396933 67.085732,19.040121 67.055397,18.413433 
	C67.720177,18.280134 68.378548,18.416716 69.112396,18.874664 
z"/>
<path fill="#9D7353" opacity="1.000000" stroke="none" 
	d="
M34.567692,20.953445 
	C34.090637,20.776844 33.613583,20.600241 33.012718,20.193485 
	C33.356758,19.647886 33.824600,19.332439 34.598984,18.944756 
	C34.935143,19.065300 34.964760,19.258080 34.908291,19.985157 
	C34.737366,20.664118 34.652527,20.808783 34.567692,20.953445 
z"/>
<path fill="#856248" opacity="1.000000" stroke="none" 
	d="
M73.901428,23.597034 
	C73.272987,23.582375 72.724762,23.214178 72.096588,22.588417 
	C72.671646,22.635069 73.326637,22.939281 73.901428,23.597034 
z"/>
<path fill="#82E51E" opacity="1.000000" stroke="none" 
	d="
M11.866958,9.060904 
	C12.079690,9.865976 12.015194,10.633002 11.950699,11.400029 
	C11.702496,11.437261 11.454293,11.474492 11.206090,11.511724 
	C11.055953,10.832707 10.905816,10.153691 10.894230,9.221302 
	C11.218431,8.986240 11.404080,9.004549 11.866958,9.060904 
z"/>
<path fill="#BA8968" opacity="1.000000" stroke="none" 
	d="
M30.749348,22.107506 
	C30.951773,22.645065 30.845568,23.159517 30.271727,23.878765 
	C29.607761,24.064583 29.412014,24.040800 29.216846,24.012213 
	C29.332687,23.552694 29.448528,23.093174 29.697895,22.413584 
	C30.034519,22.157139 30.237617,22.120768 30.749348,22.107506 
z"/>
<path fill="#82E51E" opacity="1.000000" stroke="none" 
	d="
M8.042130,8.137893 
	C8.763622,7.964716 9.416091,7.996990 10.389270,8.093188 
	C10.709979,8.157114 10.936956,8.543746 10.987161,8.762225 
	C10.264451,8.951684 9.491537,8.922665 8.337667,8.835072 
	C7.956713,8.776499 7.973108,8.343342 8.042130,8.137893 
z"/>
<path fill="#739076" opacity="1.000000" stroke="none" 
	d="
M16.677822,9.046850 
	C17.164461,9.668460 17.303595,10.279606 17.544807,11.204503 
	C17.058300,11.314487 16.469711,11.110719 15.768450,10.566488 
	C15.880623,9.829478 16.105471,9.432933 16.677822,9.046850 
z"/>
<path fill="#A8350A" opacity="1.000000" stroke="none" 
	d="
M63.941887,60.107300 
	C63.581730,60.625275 63.211109,61.601601 62.862965,61.593647 
	C55.668785,61.429371 48.477165,61.153164 41.115677,60.173592 
	C40.961506,58.952625 40.976700,58.457199 41.344681,57.980309 
	C42.474304,57.678406 43.251144,57.357971 44.370792,56.992733 
	C45.404335,56.940472 46.095070,56.933014 47.174515,56.968796 
	C48.073055,56.932571 48.582886,56.853111 49.433197,56.964050 
	C52.719208,59.724331 55.079033,57.329662 57.639885,56.554024 
	C57.755531,57.082161 57.823174,57.288353 58.010609,57.813362 
	C59.736382,58.400909 61.342369,58.669636 63.061668,59.173203 
	C63.430614,59.641129 63.686249,59.874210 63.941887,60.107300 
z"/>
<path fill="#2DD8B4" opacity="1.000000" stroke="none" 
	d="
M16.928429,64.682404 
	C15.229854,66.015556 13.531278,67.348717 11.474405,68.418335 
	C11.042515,67.592827 10.968922,67.030861 10.862514,66.214233 
	C10.899915,65.438049 10.970132,64.916519 11.420073,64.236771 
	C12.289041,62.972382 13.185618,61.867607 13.189426,60.759762 
	C13.199906,57.711540 14.869424,57.780273 17.138597,58.588913 
	C17.136202,60.871681 17.222937,62.687366 20.368160,62.050365 
	C20.994799,62.125286 21.355145,62.150429 21.730362,62.347950 
	C21.745235,62.520325 21.737179,62.866268 21.367798,62.873230 
	C19.641754,63.480927 18.285091,64.081665 16.928429,64.682404 
z"/>
<path fill="#1D9E63" opacity="1.000000" stroke="none" 
	d="
M20.101864,62.000587 
	C17.222937,62.687366 17.136202,60.871681 17.153454,58.234741 
	C17.044863,57.149639 17.061508,56.680344 17.421276,56.131142 
	C19.525166,54.785854 21.285933,53.520473 23.036030,52.596695 
	C23.701956,53.661091 24.378553,54.383881 25.035767,55.441650 
	C25.043623,56.223728 25.070866,56.670826 25.098108,57.117928 
	C25.098108,57.117928 25.034250,57.083790 24.814854,57.150650 
	C24.404844,57.499245 24.214228,57.780972 24.023613,58.062702 
	C24.023613,58.062702 23.917702,58.407085 23.548225,58.632111 
	C22.794350,58.902206 22.409948,58.947285 22.010315,58.627190 
	C21.746227,57.625156 21.497370,56.988297 21.248512,56.351437 
	C20.866297,56.386776 20.484079,56.422112 20.101864,56.457451 
	C20.101864,58.305164 20.101864,60.152874 20.101864,62.000587 
z"/>
<path fill="#A64412" opacity="1.000000" stroke="none" 
	d="
M37.810833,58.114334 
	C36.483517,57.441978 35.156200,56.769623 33.612396,55.653313 
	C33.765545,54.456486 34.135178,53.703617 34.706589,53.265465 
	C35.890938,54.108772 36.873516,54.637360 38.119713,55.359798 
	C39.029198,55.699787 39.675068,55.845928 40.235992,56.353325 
	C39.370975,57.181160 38.590904,57.647747 37.810833,58.114334 
z"/>
<path fill="#1D9E63" opacity="1.000000" stroke="none" 
	d="
M17.253025,64.775627 
	C18.285091,64.081665 19.641754,63.480927 21.457294,63.270454 
	C21.968496,64.741188 22.020823,65.821663 21.715219,66.939926 
	C20.641066,66.973755 19.924839,66.969795 19.208614,66.965836 
	C18.664949,66.266838 18.121286,65.567848 17.253025,64.775627 
z"/>
<path fill="#752106" opacity="1.000000" stroke="none" 
	d="
M34.504814,52.950748 
	C34.135178,53.703617 33.765545,54.456486 33.348553,55.450912 
	C32.660290,55.770599 32.019382,55.848721 31.249641,55.386375 
	C31.385138,54.416729 31.649464,53.987560 31.932129,53.259048 
	C31.947559,52.759800 31.944649,52.559887 32.273354,52.338326 
	C33.270466,52.334263 33.935970,52.351856 34.566040,52.512897 
	C34.530613,52.656349 34.504814,52.950748 34.504814,52.950748 
z"/>
<path fill="#8E2500" opacity="1.000000" stroke="none" 
	d="
M69.058525,55.996529 
	C69.034538,56.555088 68.893044,57.179325 68.063507,57.919151 
	C66.578133,58.041908 65.780792,58.049076 64.726227,58.019077 
	C64.299088,57.947910 64.129181,57.913906 64.015785,57.522160 
	C65.619461,56.748867 67.166626,56.333313 68.713799,55.917763 
	C68.713799,55.917763 68.941010,56.062210 69.058525,55.996529 
z"/>
<path fill="#445B57" opacity="1.000000" stroke="none" 
	d="
M22.073149,66.902138 
	C22.020823,65.821663 21.968496,64.741188 21.826675,63.263493 
	C21.737179,62.866268 21.745235,62.520325 21.830467,61.958115 
	C21.952318,60.594727 21.988934,59.793541 22.025549,58.992359 
	C22.409948,58.947285 22.794350,58.902206 23.460922,58.789688 
	C23.822386,58.938362 23.901674,59.154472 23.632076,59.959717 
	C23.254248,62.661301 23.225304,64.773750 22.915787,66.906357 
	C22.447859,66.918381 22.260504,66.910263 22.073149,66.902138 
z"/>
<path fill="#3EC149" opacity="1.000000" stroke="none" 
	d="
M10.895329,66.468887 
	C10.968922,67.030861 11.042515,67.592827 11.161546,68.576279 
	C11.144200,70.126663 11.081416,71.255554 10.885798,72.791252 
	C10.402300,71.576378 10.051635,69.954712 9.596300,67.870926 
	C9.722724,67.270065 9.924148,67.096779 10.323930,66.837555 
	C10.551960,66.786156 10.895329,66.468887 10.895329,66.468887 
z"/>
<path fill="#0E0E0E" opacity="1.000000" stroke="none" 
	d="
M23.196360,66.886208 
	C23.225304,64.773750 23.254248,62.661301 23.579901,60.301044 
	C23.908194,62.086586 23.939777,64.119926 23.737896,66.560799 
	C23.504431,66.968323 23.196360,66.886208 23.196360,66.886208 
z"/>
<path fill="#152A25" opacity="1.000000" stroke="none" 
	d="
M31.913792,53.558388 
	C31.649464,53.987560 31.385138,54.416729 31.082581,55.106110 
	C30.301100,55.242146 29.557850,55.117977 28.415756,55.005882 
	C28.016912,55.017956 27.979120,54.975380 27.973078,54.695076 
	C28.017981,54.234928 28.068926,54.055088 28.309553,53.880589 
	C28.771734,53.816776 28.946430,53.646908 29.386288,53.356251 
	C30.470770,53.410244 31.192280,53.484318 31.913792,53.558388 
z"/>
<path fill="#519747" opacity="1.000000" stroke="none" 
	d="
M22.915787,66.906357 
	C23.196360,66.886208 23.504431,66.968323 23.662189,66.990524 
	C23.429495,67.325577 23.039040,67.638428 22.006439,67.965141 
	C20.835920,68.323570 20.307549,68.668121 19.779175,69.012680 
	C19.535679,68.523682 19.292183,68.034683 19.128651,67.255760 
	C19.924839,66.969795 20.641066,66.973755 21.715219,66.939926 
	C22.260504,66.910263 22.447859,66.918381 22.915787,66.906357 
z"/>
<path fill="#A17351" opacity="1.000000" stroke="none" 
	d="
M37.972824,58.393845 
	C38.590904,57.647747 39.370975,57.181160 40.416492,56.329559 
	C40.681938,55.944546 41.043396,55.868713 41.012863,56.216743 
	C40.985516,57.030441 40.988705,57.496105 40.991898,57.961773 
	C40.976700,58.457199 40.961506,58.952625 40.916656,59.819221 
	C39.969608,59.684715 39.052216,59.179035 37.972824,58.393845 
z"/>
<path fill="#D1D90E" opacity="1.000000" stroke="none" 
	d="
M19.916649,69.301620 
	C20.307549,68.668121 20.835920,68.323570 21.699997,68.013481 
	C21.977175,68.850716 21.918648,69.653488 21.836912,70.774559 
	C21.073797,70.267761 20.563961,69.929161 19.916649,69.301620 
z"/>
<path fill="#756252" opacity="1.000000" stroke="none" 
	d="
M64.983459,58.056240 
	C65.780792,58.049076 66.578133,58.041908 67.774963,58.062714 
	C67.364410,58.380306 66.554367,58.669933 65.377411,58.698997 
	C65.010506,58.438438 64.983459,58.056240 64.983459,58.056240 
z"/>
<path fill="#476D68" opacity="1.000000" stroke="none" 
	d="
M25.370491,57.004379 
	C25.070866,56.670826 25.043623,56.223728 25.033876,55.422371 
	C25.051373,55.068111 25.075422,55.047646 25.360996,55.032417 
	C26.026499,54.996120 26.406425,54.975048 26.864792,55.174721 
	C26.943230,55.395466 27.039196,55.854061 27.039196,55.854061 
	C26.573753,56.199650 26.108313,56.545238 25.370491,57.004379 
z"/>
<path fill="#AA8A70" opacity="1.000000" stroke="none" 
	d="
M63.989174,59.848473 
	C63.686249,59.874210 63.430614,59.641129 63.219677,59.093048 
	C63.264374,58.778049 63.539307,58.554298 63.671028,58.681759 
	C63.802750,58.809219 64.066071,59.064270 64.066071,59.064270 
	C64.056206,59.239399 64.046333,59.414524 63.989174,59.848473 
z"/>
<path fill="#AA8A70" opacity="1.000000" stroke="none" 
	d="
M64.726227,58.019077 
	C64.983459,58.056240 65.010506,58.438438 65.030762,58.627167 
	C64.888771,58.865906 64.726517,58.915916 64.315163,59.015099 
	C64.066071,59.064270 63.802750,58.809219 63.788628,58.521290 
	C63.774502,58.233360 63.959278,57.879898 63.959278,57.879898 
	C64.129181,57.913906 64.299088,57.947910 64.726227,58.019077 
z"/>
<path fill="#007C6B" opacity="1.000000" stroke="none" 
	d="
M24.286486,57.998280 
	C24.214228,57.780972 24.404844,57.499245 24.839748,57.124359 
	C24.905811,57.332092 24.727585,57.632973 24.286486,57.998280 
z"/>
<path fill="#152A25" opacity="1.000000" stroke="none" 
	d="
M27.298159,55.890388 
	C27.039196,55.854061 26.943230,55.395466 27.164558,55.127541 
	C27.583630,54.898201 27.781376,54.936790 27.979120,54.975380 
	C27.979120,54.975380 28.016912,55.017956 28.036728,55.038975 
	C27.890068,55.348900 27.723595,55.637806 27.298159,55.890388 
z"/>
<path fill="#72F600" opacity="1.000000" stroke="none" 
	d="
M23.046698,52.255093 
	C21.285933,53.520473 19.525166,54.785854 17.397190,55.753647 
	C17.065273,52.470764 15.657081,51.697620 12.834544,52.566246 
	C12.042489,52.249241 11.421384,52.195984 10.800280,52.142723 
	C10.546746,51.603218 10.293214,51.063709 10.364898,50.209724 
	C11.128371,49.639168 11.566628,49.383087 12.310751,49.085258 
	C13.024132,48.986149 13.431644,48.928783 14.272922,48.941135 
	C16.805241,48.342793 18.903797,47.674732 21.001251,47.003410 
	C21.000153,47.000153 21.006050,47.004108 21.404892,47.002785 
	C22.867689,47.016037 23.931644,47.030609 25.023039,47.443443 
	C24.699881,49.297245 24.349281,50.752789 23.758450,52.174492 
	C23.518217,52.140648 23.046698,52.255093 23.046698,52.255093 
z"/>
<path fill="#D6E200" opacity="1.000000" stroke="none" 
	d="
M9.932014,42.907726 
	C9.606158,41.296898 9.280302,39.686066 8.954447,38.075237 
	C8.258179,37.726143 7.561911,37.377052 6.865643,37.027958 
	C8.233716,36.282997 9.601789,35.538033 10.964927,34.184097 
	C10.966531,33.406601 10.973069,33.238079 11.327311,33.031437 
	C12.373019,33.013809 13.071025,33.034306 13.807955,33.506851 
	C13.730448,36.988865 13.614017,40.018826 13.166923,43.016693 
	C11.919985,43.020836 11.003709,43.057076 10.042347,43.052132 
	C9.997261,43.010956 9.932014,42.907726 9.932014,42.907726 
z"/>
<path fill="#CDE543" opacity="1.000000" stroke="none" 
	d="
M10.862514,66.214233 
	C10.895329,66.468887 10.551960,66.786156 10.267183,66.601715 
	C9.403789,66.209236 8.825169,66.001213 8.209520,65.490540 
	C8.226946,64.784645 8.281402,64.381386 8.692965,63.859386 
	C9.372046,61.057232 9.694018,58.373814 10.015991,55.690399 
	C10.108944,55.406662 10.286798,55.193893 10.779036,55.100410 
	C11.008519,55.148727 11.073320,55.403896 11.055899,55.833477 
	C11.039102,58.973701 11.039726,61.684345 11.040350,64.394989 
	C10.970132,64.916519 10.899915,65.438049 10.862514,66.214233 
z"/>
<path fill="#AEAE62" opacity="1.000000" stroke="none" 
	d="
M9.749964,55.829170 
	C9.694018,58.373814 9.372046,61.057232 8.609760,63.436478 
	C8.103002,61.397594 8.036554,59.662876 7.970107,57.928158 
	C7.970107,57.928158 7.989745,57.997105 8.201979,57.925632 
	C8.594669,57.563992 8.775126,57.273823 8.955582,56.983654 
	C9.131699,56.645081 9.307817,56.306511 9.749964,55.829170 
z"/>
<path fill="#001C1A" opacity="1.000000" stroke="none" 
	d="
M13.839157,48.871422 
	C13.431644,48.928783 13.024132,48.986149 11.960409,48.979431 
	C10.815830,48.906532 10.327460,48.897713 9.839090,48.888893 
	C9.622643,48.619095 9.406194,48.349300 9.507877,47.817760 
	C10.015769,47.453239 10.205529,47.350464 10.596164,47.208145 
	C10.797038,47.168610 11.158409,46.973309 11.502291,46.956772 
	C12.609819,47.328110 13.373466,47.715992 14.052629,48.291882 
	C13.968146,48.479889 13.839157,48.871422 13.839157,48.871422 
z"/>
<path fill="#2C2D1F" opacity="1.000000" stroke="none" 
	d="
M7.574090,58.098099 
	C8.036554,59.662876 8.103002,61.397594 8.252653,63.555222 
	C8.281402,64.381386 8.226946,64.784645 8.098113,65.836929 
	C8.005647,66.964256 7.987557,67.442558 7.969469,67.920868 
	C7.969469,67.920868 7.999676,68.000000 7.801354,67.896515 
	C7.603032,67.793022 7.214671,67.827377 7.214671,67.827377 
	C7.202472,64.640930 7.190273,61.454487 7.574090,58.098099 
z"/>
<path fill="#BAD40C" opacity="1.000000" stroke="none" 
	d="
M10.979607,33.069561 
	C10.973069,33.238079 10.966531,33.406601 10.937425,33.826721 
	C9.345994,33.285332 7.777131,32.492344 6.061336,31.383595 
	C7.295251,31.335436 8.676098,31.603041 10.479191,32.189796 
	C10.927494,32.695824 10.953550,32.882694 10.979607,33.069561 
z"/>
<path fill="#00867C" opacity="1.000000" stroke="none" 
	d="
M2.499569,66.919678 
	C2.125759,65.851868 2.130355,64.847145 2.183940,63.469437 
	C2.588134,63.067661 2.943338,63.038876 3.566204,62.995758 
	C3.515235,64.315208 3.196605,65.648987 2.499569,66.919678 
z"/>
<path fill="#BAD40C" opacity="1.000000" stroke="none" 
	d="
M5.678727,26.992466 
	C5.665976,27.892834 5.363564,28.670979 4.995716,29.757309 
	C4.344162,29.220392 3.758046,28.375288 3.171929,27.530186 
	C3.910976,27.310205 4.650022,27.090225 5.678727,26.992466 
z"/>
<path fill="#9FBA50" opacity="1.000000" stroke="none" 
	d="
M7.054661,68.134644 
	C7.214671,67.827377 7.603032,67.793022 7.787243,67.856827 
	C7.513298,68.927528 7.055141,69.934418 6.212882,70.924667 
	C6.184069,70.085983 6.539360,69.263947 7.054661,68.134644 
z"/>
<path fill="#BAD40C" opacity="1.000000" stroke="none" 
	d="
M10.637379,25.908894 
	C10.938911,26.532595 10.923307,27.225515 10.907701,27.918434 
	C10.305309,27.529722 9.702916,27.141008 9.067633,26.443186 
	C9.463243,26.082088 9.891742,26.030102 10.637379,25.908894 
z"/>
<path fill="#B9C800" opacity="1.000000" stroke="none" 
	d="
M10.395290,47.247684 
	C10.205529,47.350464 10.015769,47.453239 9.508476,47.620300 
	C9.195990,46.244507 9.201035,44.804436 9.569047,43.136044 
	C9.932014,42.907726 9.997261,43.010956 10.049138,43.339180 
	C10.402398,44.118179 10.703780,44.568954 10.997179,45.253876 
	C10.989195,45.488018 10.988194,45.957294 11.026080,45.994984 
	C11.063967,46.032673 11.055281,46.139198 10.815605,46.226021 
	C10.515718,46.624454 10.455504,46.936069 10.395290,47.247684 
z"/>
<path fill="#C3CA8E" opacity="1.000000" stroke="none" 
	d="
M10.848532,52.485123 
	C11.421384,52.195984 12.042489,52.249241 12.556434,52.748779 
	C11.990623,53.931339 11.531971,54.667618 11.073320,55.403896 
	C11.073320,55.403896 11.008519,55.148727 10.975821,55.021271 
	C10.927676,54.205048 10.912230,53.516285 10.848532,52.485123 
z"/>
<path fill="#4A7318" opacity="1.000000" stroke="none" 
	d="
M9.900467,49.143738 
	C10.327460,48.897713 10.815830,48.906532 11.654542,49.021179 
	C11.566628,49.383087 11.128371,49.639168 10.420652,49.891361 
	C10.088074,49.724514 10.024959,49.561550 9.900467,49.143738 
z"/>
<path fill="#BAD40C" opacity="1.000000" stroke="none" 
	d="
M4.999608,30.290953 
	C5.209330,30.222679 5.487952,30.413630 5.862419,30.846611 
	C5.661679,30.909153 5.365093,30.729664 4.999608,30.290953 
z"/>
<path fill="#2C2D1F" opacity="1.000000" stroke="none" 
	d="
M8.707630,57.063339 
	C8.775126,57.273823 8.594669,57.563992 8.166871,57.932865 
	C8.099579,57.722054 8.279629,57.432537 8.707630,57.063339 
z"/>
<path fill="#F6F600" opacity="1.000000" stroke="none" 
	d="
M8.290396,67.807053 
	C7.987557,67.442558 8.005647,66.964256 8.135143,66.139565 
	C8.825169,66.001213 9.403789,66.209236 10.039154,66.653107 
	C9.924148,67.096779 9.722724,67.270065 9.391254,67.573364 
	C9.064361,67.723030 8.837842,67.708138 8.290396,67.807053 
z"/>
<path fill="#F6F22B" opacity="1.000000" stroke="none" 
	d="
M59.832291,25.872164 
	C60.220268,27.958025 60.608242,30.043884 60.959087,32.886456 
	C60.929691,34.309254 60.937428,34.975338 60.591438,35.761253 
	C59.356010,36.262939 58.474300,36.644798 57.281326,37.010574 
	C55.445667,35.276402 53.921280,33.558315 52.383137,31.408997 
	C52.588757,28.688545 52.808132,26.399326 53.443130,24.064320 
	C55.247963,24.075968 56.637173,24.133406 58.029320,24.502890 
	C58.632271,25.167345 59.232281,25.519754 59.832291,25.872164 
z"/>
<path fill="#FF22E4" opacity="1.000000" stroke="none" 
	d="
M58.026382,24.190842 
	C56.637173,24.133406 55.247963,24.075968 53.111435,23.916965 
	C51.522461,21.985498 50.680809,20.155594 49.839157,18.325691 
	C51.645821,17.939951 53.452488,17.554213 55.664795,17.180378 
	C57.067921,19.186411 58.065403,21.180536 58.801262,23.612793 
	C58.368549,24.097565 58.197468,24.144203 58.026382,24.190842 
z"/>
<path fill="#FFA241" opacity="1.000000" stroke="none" 
	d="
M57.890820,57.494541 
	C57.823174,57.288353 57.755531,57.082161 57.738861,56.426727 
	C57.789833,55.977482 58.102825,55.931198 58.481499,55.877647 
	C62.969475,53.218071 60.098793,49.180592 61.236023,45.909019 
	C62.142124,45.610771 62.708542,45.298901 63.584297,45.030594 
	C64.688049,45.369957 65.482468,45.665752 66.460373,45.953545 
	C66.643860,45.945541 66.980331,46.092918 66.980331,46.092918 
	C66.260315,47.422211 65.395187,48.696312 64.862503,50.096855 
	C64.364197,51.407028 64.218361,52.851265 63.696121,54.782166 
	C61.613503,56.050068 59.752159,56.772305 57.890820,57.494541 
z"/>
<path fill="#FFC064" opacity="1.000000" stroke="none" 
	d="
M64.988617,32.978756 
	C64.988617,32.978756 65.049538,32.628479 65.320854,32.239029 
	C65.719696,31.242874 65.847214,30.636168 65.974731,30.029461 
	C67.303505,30.764824 69.502968,31.265409 69.777870,32.284935 
	C70.332329,34.341217 69.840225,36.679699 69.428215,38.601151 
	C69.048073,37.551697 69.019539,36.802860 68.989944,35.667351 
	C67.935539,34.531242 66.882195,33.781807 65.617065,33.046097 
	C65.405273,33.059822 64.988617,32.978756 64.988617,32.978756 
z"/>
<path fill="#C86500" opacity="1.000000" stroke="none" 
	d="
M58.010609,57.813362 
	C59.752159,56.772305 61.613503,56.050068 63.733032,55.126659 
	C65.455696,55.050522 66.920166,55.175552 68.549217,55.609177 
	C67.166626,56.333313 65.619461,56.748867 64.015785,57.522160 
	C63.959278,57.879898 63.774502,58.233360 63.656906,58.393829 
	C63.539307,58.554298 63.264374,58.778049 63.106361,58.858208 
	C61.342369,58.669636 59.736382,58.400909 58.010609,57.813362 
z"/>
<path fill="#FEFFC9" opacity="1.000000" stroke="none" 
	d="
M64.590492,32.995201 
	C64.988617,32.978756 65.405273,33.059822 65.718163,33.409378 
	C66.014389,34.510292 65.997734,35.261654 65.995583,36.004147 
	C66.010094,35.995281 66.027885,35.966297 65.688622,35.976044 
	C64.678993,36.081142 64.008629,36.176491 62.972748,36.172226 
	C62.104492,36.067455 61.601753,36.062294 61.076370,35.947353 
	C61.053734,35.837570 60.945160,35.641426 60.945160,35.641426 
	C60.937428,34.975338 60.929691,34.309254 60.963158,33.312027 
	C62.067032,32.991138 63.129700,33.001392 64.590492,32.995201 
z"/>
<path fill="#FFFDC6" opacity="1.000000" stroke="none" 
	d="
M68.991005,36.054024 
	C69.019539,36.802860 69.048073,37.551697 69.111664,38.674644 
	C69.146721,39.048759 68.973587,39.474144 68.583633,39.636810 
	C67.689529,39.647030 67.185379,39.494587 66.649063,39.331703 
	C66.616890,39.321259 66.511894,39.227074 66.356567,38.841393 
	C66.143456,37.625908 66.085670,36.796104 66.027885,35.966297 
	C66.027885,35.966297 66.010094,35.995281 66.371811,36.015469 
	C67.486015,36.041779 68.238510,36.047901 68.991005,36.054024 
z"/>
<path fill="#FFF5C5" opacity="1.000000" stroke="none" 
	d="
M67.386444,46.017952 
	C66.980331,46.092918 66.643860,45.945541 66.419083,45.543591 
	C66.411568,44.378143 66.628838,43.614643 66.950478,42.877354 
	C67.054840,42.903561 67.278778,42.955910 67.544083,42.818245 
	C68.201851,42.615379 68.594307,42.550175 68.986771,42.484970 
	C68.588699,43.637642 68.190628,44.790314 67.386444,46.017952 
z"/>
<path fill="#FF8714" opacity="1.000000" stroke="none" 
	d="
M68.949112,42.169624 
	C68.594307,42.550175 68.201851,42.615379 67.270493,42.420807 
	C66.714806,41.221401 66.698021,40.281776 66.681236,39.342148 
	C67.185379,39.494587 67.689529,39.647030 68.585205,39.866440 
	C68.954979,40.573696 68.933220,41.213989 68.949112,42.169624 
z"/>
<path fill="#FF9823" opacity="1.000000" stroke="none" 
	d="
M65.666092,30.035221 
	C65.847214,30.636168 65.719696,31.242874 65.353836,32.064350 
	C64.620232,31.969271 64.124969,31.659422 63.629700,31.349571 
	C64.205612,30.913374 64.781525,30.477177 65.666092,30.035221 
z"/>
<path fill="#FFFFEB" opacity="1.000000" stroke="none" 
	d="
M58.029320,24.502888 
	C58.197468,24.144203 58.368549,24.097565 58.795719,23.977861 
	C59.343510,24.365574 59.635216,24.826353 59.879608,25.579647 
	C59.232281,25.519754 58.632271,25.167345 58.029320,24.502888 
z"/>
<path fill="#79FC00" opacity="1.000000" stroke="none" 
	d="
M11.327311,33.031437 
	C10.953550,32.882694 10.927494,32.695824 10.830772,32.234138 
	C10.984857,31.390972 11.209607,30.822613 12.076978,30.118481 
	C13.477009,30.030136 14.234419,30.077568 14.989061,30.477993 
	C15.005127,31.535666 15.023961,32.240341 14.724086,32.969353 
	C14.193260,33.014065 13.981145,33.034435 13.769031,33.054802 
	C13.071025,33.034306 12.373019,33.013809 11.327311,33.031437 
z"/>
<path fill="#14F20B" opacity="1.000000" stroke="none" 
	d="
M16.753139,26.121948 
	C17.932829,26.797892 18.935692,27.587761 20.041718,28.716171 
	C19.941874,29.330513 19.738863,29.606312 18.972343,29.895615 
	C17.945227,29.905100 17.481621,29.901077 17.011539,29.570599 
	C16.713564,28.467306 16.422062,27.690470 16.130558,26.913635 
	C16.154184,26.605488 16.302769,26.379568 16.753139,26.121948 
z"/>
<path fill="#00B053" opacity="1.000000" stroke="none" 
	d="
M15.965754,27.230888 
	C16.422062,27.690470 16.713564,28.467306 16.999968,29.935455 
	C17.031315,31.353670 17.067760,32.080570 16.840477,32.868904 
	C16.396622,32.935177 16.216494,32.940014 16.020309,32.601463 
	C15.666781,31.547054 15.329306,30.836027 14.991830,30.124998 
	C14.234419,30.077568 13.477009,30.030136 12.338853,29.956251 
	C13.239056,29.135910 14.520002,28.342026 15.965754,27.230888 
z"/>
<path fill="#00876B" opacity="1.000000" stroke="none" 
	d="
M19.049330,31.914612 
	C20.550802,31.596039 22.052275,31.277466 24.420195,30.775055 
	C24.319645,30.484276 24.646143,31.428478 25.033876,33.168373 
	C25.070200,36.967121 25.045288,39.970181 24.747417,43.171619 
	C23.318325,44.581367 22.162188,45.792736 21.006050,47.004108 
	C21.006050,47.004108 21.000153,47.000153 20.734591,46.765423 
	C20.576891,45.169067 20.281963,42.840145 20.857090,42.600655 
	C25.016029,40.868843 22.987148,38.425903 21.556477,36.026108 
	C20.436562,35.062984 19.695015,34.106815 18.972986,32.841293 
	C19.011444,32.326164 19.030388,32.120392 19.049330,31.914612 
z"/>
<path fill="#F09F2D" opacity="1.000000" stroke="none" 
	d="
M29.143692,24.423817 
	C29.412014,24.040800 29.607761,24.064583 29.920315,24.104103 
	C30.334528,24.035143 30.632517,23.945642 31.435883,24.079634 
	C31.984350,24.558899 32.027443,24.814674 32.083054,25.294067 
	C32.095570,25.517687 32.132473,25.964867 32.221367,26.215864 
	C32.922409,26.369070 33.534557,26.271280 34.345467,26.205925 
	C34.544228,26.238359 34.935280,26.334833 34.875542,26.657257 
	C34.793816,27.632935 34.771824,28.286190 34.430428,29.000404 
	C33.085979,29.373980 32.060940,29.686594 30.776083,30.178745 
	C30.341879,31.156418 30.167492,31.954556 29.755978,32.826126 
	C29.518850,32.899555 29.042538,33.039604 28.805372,33.049553 
	C28.568207,33.059502 28.099585,33.135498 27.964724,33.035866 
	C27.829863,32.936230 27.532209,32.781750 27.532209,32.781750 
	C28.044987,30.132973 28.557764,27.484196 29.143692,24.423817 
z"/>
<path fill="#BBA74B" opacity="1.000000" stroke="none" 
	d="
M25.020374,42.973240 
	C25.045288,39.970181 25.070200,36.967121 25.077782,33.515831 
	C25.676613,32.941795 26.292776,32.815987 27.220573,32.735962 
	C27.532209,32.781750 27.829863,32.936230 27.894011,33.374496 
	C27.918530,34.509342 27.878902,35.205917 27.631742,35.924713 
	C27.424210,35.946930 27.011345,36.027733 26.697067,36.197514 
	C26.325682,37.542000 26.268576,38.716709 26.159737,40.272369 
	C26.004608,41.413208 25.901213,42.173092 25.616337,42.970646 
	C25.434858,43.008316 25.063128,42.997787 25.053701,42.989380 
	C25.044275,42.980968 25.020374,42.973240 25.020374,42.973240 
z"/>
<path fill="#006F7D" opacity="1.000000" stroke="none" 
	d="
M19.041494,31.615353 
	C19.030388,32.120392 19.011444,32.326164 18.668186,32.763378 
	C17.930651,32.932365 17.517429,32.869919 17.104208,32.807468 
	C17.067760,32.080570 17.031315,31.353670 17.006439,30.261913 
	C17.481621,29.901077 17.945227,29.905100 18.743010,30.014477 
	C19.062675,30.518587 19.048166,30.917339 19.041494,31.615353 
z"/>
<path fill="#211C0C" opacity="1.000000" stroke="none" 
	d="
M49.411976,18.253757 
	C50.680809,20.155594 51.522461,21.985498 52.695808,23.962753 
	C52.808132,26.399326 52.588757,28.688545 52.184799,31.605183 
	C51.306076,32.852207 50.611935,33.471813 49.539062,34.044556 
	C48.396942,33.968777 47.633545,33.939854 46.852547,33.473732 
	C47.212193,25.616365 45.595058,23.955423 38.019470,23.801231 
	C37.971928,23.571379 38.020386,23.104450 38.389816,23.060894 
	C39.439789,22.033710 40.120335,21.050085 40.800888,20.066460 
	C40.902737,19.663754 41.004585,19.261047 41.142349,18.548031 
	C43.780437,18.219088 46.382618,18.200457 49.411976,18.253757 
z"/>
<path fill="#EEAF3D" opacity="1.000000" stroke="none" 
	d="
M38.020386,23.104450 
	C38.020386,23.104450 37.971928,23.571379 38.005135,23.804724 
	C38.038342,24.038069 38.025826,24.061842 37.786499,24.024637 
	C37.547169,23.987432 37.064465,23.946781 36.899570,23.720020 
	C36.206886,23.393890 35.679092,23.294523 35.068138,23.092022 
	C34.984974,22.988886 34.823734,22.778612 34.823734,22.778612 
	C34.789764,22.370375 34.755791,21.962135 34.644753,21.253672 
	C34.652527,20.808783 34.737366,20.664118 34.890102,20.277153 
	C35.710796,20.068913 36.463589,20.102974 37.594730,20.559000 
	C37.988846,21.688793 38.004616,22.396622 38.020386,23.104450 
z"/>
<path fill="#E6D328" opacity="1.000000" stroke="none" 
	d="
M38.389812,23.060894 
	C38.004616,22.396622 37.988846,21.688793 37.964867,20.628483 
	C38.444466,20.195751 38.932274,20.115501 39.791744,19.985823 
	C40.163406,19.936396 40.466770,20.078434 40.633827,20.072447 
	C40.120335,21.050085 39.439789,22.033710 38.389812,23.060894 
z"/>
<path fill="#E7C013" opacity="1.000000" stroke="none" 
	d="
M32.070541,25.070450 
	C32.027443,24.814674 31.984350,24.558899 31.873333,23.916981 
	C32.609341,23.339466 33.413273,23.148094 34.520470,22.867668 
	C34.823734,22.778612 34.984974,22.988886 35.023167,23.285650 
	C35.061359,23.582415 35.025387,23.980707 34.705772,24.012486 
	C33.614285,24.386326 32.842415,24.728388 32.070541,25.070450 
z"/>
<path fill="#1B1B13" opacity="1.000000" stroke="none" 
	d="
M49.092720,56.773651 
	C48.582886,56.853111 48.073055,56.932571 47.206905,56.532295 
	C47.078972,48.132450 45.413979,46.214626 38.001419,45.581676 
	C38.017197,44.861534 38.060757,44.451359 38.519150,43.994125 
	C43.639297,41.813953 48.225811,42.700428 52.735626,44.794571 
	C53.269787,45.407608 53.845051,45.717724 54.498619,46.439762 
	C54.692005,47.683163 54.807083,48.514641 54.836010,49.524181 
	C54.749859,49.702244 54.828796,50.089909 54.644730,50.367729 
	C52.671349,52.688248 50.882034,54.730949 49.092720,56.773651 
z"/>
<path fill="#EEF1F4" opacity="1.000000" stroke="none" 
	d="
M38.029202,45.891647 
	C45.413979,46.214626 47.078972,48.132450 46.818199,56.489063 
	C46.095070,56.933014 45.404335,56.940472 44.269363,56.712486 
	C43.035683,55.981602 42.246235,55.486164 41.273315,54.656971 
	C40.982716,53.573017 40.875580,52.822819 40.824429,51.679085 
	C39.900524,50.552780 38.920639,49.820011 37.956497,48.994850 
	C37.972237,48.902458 37.903610,48.728031 37.953346,48.426853 
	C37.995693,47.514027 37.988308,46.902374 38.019081,46.194111 
	C38.057232,46.097496 38.029202,45.891647 38.029202,45.891647 
z"/>
<path fill="#FE29E4" opacity="1.000000" stroke="none" 
	d="
M49.433197,56.964050 
	C50.882034,54.730949 52.671349,52.688248 55.014179,50.400192 
	C56.412739,52.080288 57.257782,54.005745 58.102825,55.931198 
	C58.102825,55.931198 57.789833,55.977482 57.690861,56.104778 
	C55.079033,57.329662 52.719208,59.724331 49.433197,56.964050 
z"/>
<path fill="#E6E6CD" opacity="1.000000" stroke="none" 
	d="
M41.456787,54.990726 
	C42.246235,55.486164 43.035683,55.981602 43.926559,56.757290 
	C43.251144,57.357971 42.474304,57.678406 41.344681,57.980309 
	C40.988705,57.496105 40.985516,57.030441 41.153046,56.015656 
	C41.323765,55.466537 41.456787,54.990726 41.456787,54.990726 
z"/>
<path fill="#E2FE03" opacity="1.000000" stroke="none" 
	d="
M11.055899,55.833477 
	C11.531971,54.667618 11.990623,53.931339 12.727385,53.012524 
	C15.657081,51.697620 17.065273,52.470764 17.054070,55.833557 
	C17.061508,56.680344 17.044863,57.149639 17.013359,57.973099 
	C14.869424,57.780273 13.199906,57.711540 13.189426,60.759762 
	C13.185618,61.867607 12.289041,62.972382 11.420074,64.236771 
	C11.039726,61.684345 11.039102,58.973701 11.055899,55.833477 
z"/>
<path fill="#007C6B" opacity="1.000000" stroke="none" 
	d="
M22.010315,58.627190 
	C21.988934,59.793541 21.952318,60.594727 21.815594,61.785744 
	C21.355145,62.150429 20.994799,62.125286 20.368160,62.050365 
	C20.101864,60.152874 20.101864,58.305164 20.101864,56.457451 
	C20.484079,56.422112 20.866297,56.386776 21.248512,56.351437 
	C21.497370,56.988297 21.746227,57.625156 22.010315,58.627190 
z"/>
<path fill="#007C6B" opacity="1.000000" stroke="none" 
	d="
M23.036030,52.596695 
	C23.046698,52.255093 23.518217,52.140648 23.912117,52.441525 
	C24.562487,53.510815 24.818954,54.279232 25.075422,55.047646 
	C25.075422,55.047646 25.051373,55.068111 25.053261,55.087391 
	C24.378553,54.383881 23.701956,53.661091 23.036030,52.596695 
z"/>
<path fill="#FECB47" opacity="1.000000" stroke="none" 
	d="
M34.706589,53.265465 
	C34.504814,52.950748 34.530613,52.656349 34.918648,52.411015 
	C36.030396,52.101521 36.754105,52.037357 37.728958,52.214569 
	C38.536701,52.957512 39.093296,53.459087 39.649891,53.960663 
	C39.051956,54.362423 38.454025,54.764187 37.856091,55.165951 
	C36.873516,54.637360 35.890938,54.108772 34.706589,53.265465 
z"/>
<path fill="#C4AD19" opacity="1.000000" stroke="none" 
	d="
M38.119713,55.359798 
	C38.454025,54.764187 39.051956,54.362423 39.649891,53.960663 
	C39.093296,53.459087 38.536701,52.957512 37.857815,52.171364 
	C37.735527,51.886787 37.982315,52.000713 38.330780,52.022720 
	C39.375645,52.054028 40.072044,52.063324 40.768448,52.072620 
	C40.875580,52.822819 40.982716,53.573017 41.273315,54.656971 
	C41.456787,54.990726 41.323765,55.466537 41.183578,55.667625 
	C41.043396,55.868713 40.681938,55.944546 40.501434,55.968307 
	C39.675068,55.845928 39.029198,55.699787 38.119713,55.359798 
z"/>
<path fill="#F1EC1F" opacity="1.000000" stroke="none" 
	d="
M37.606674,51.929993 
	C36.754105,52.037357 36.030396,52.101521 34.954079,52.267563 
	C33.935970,52.351856 33.270466,52.334263 32.298416,52.243004 
	C31.991871,52.169338 31.979448,51.975052 31.991814,51.624870 
	C32.341049,50.462757 32.677917,49.650829 33.288357,48.877121 
	C33.928093,48.923813 34.294262,48.932281 35.069527,49.002075 
	C36.286953,48.951611 37.095280,48.839821 37.903610,48.728031 
	C37.903610,48.728031 37.972237,48.902458 37.895515,49.357025 
	C37.873302,50.541298 37.927811,51.271008 37.982315,52.000713 
	C37.982315,52.000713 37.735527,51.886787 37.606674,51.929993 
z"/>
<path fill="#B4977E" opacity="1.000000" stroke="none" 
	d="
M31.932129,53.259048 
	C31.192280,53.484318 30.470770,53.410244 29.397823,53.002258 
	C29.080650,52.435356 29.114908,52.202362 29.500874,51.980293 
	C30.325861,51.976913 30.799137,51.962616 31.447895,51.988811 
	C31.623375,52.029301 31.979448,51.975052 31.979448,51.975052 
	C31.979448,51.975052 31.991871,52.169338 31.966805,52.264656 
	C31.944649,52.559887 31.947559,52.759800 31.932129,53.259048 
z"/>
<path fill="#13975C" opacity="1.000000" stroke="none" 
	d="
M25.360996,55.032417 
	C24.818954,54.279232 24.562487,53.510815 24.152351,52.475368 
	C24.349281,50.752789 24.699881,49.297245 25.078768,47.076401 
	C25.157999,46.068981 25.208941,45.826859 25.483570,45.669086 
	C25.707260,45.753433 26.082050,46.050610 26.061226,46.431297 
	C26.040403,48.207596 26.040403,49.603207 26.040403,51.673492 
	C26.931978,50.412453 27.431032,49.706596 27.970039,49.406536 
	C28.046618,51.166637 28.083244,52.520943 28.119871,53.875244 
	C28.068926,54.055088 28.017981,54.234928 27.973078,54.695076 
	C27.781376,54.936790 27.583630,54.898201 27.086119,54.906799 
	C26.406425,54.975048 26.026499,54.996120 25.360996,55.032417 
z"/>
<path fill="#647555" opacity="1.000000" stroke="none" 
	d="
M28.309553,53.880589 
	C28.083244,52.520943 28.046618,51.166637 27.979168,49.041794 
	C27.914417,47.543011 27.880493,46.814770 27.984711,46.028687 
	C28.122852,45.970837 28.414324,45.901844 28.572395,46.289867 
	C28.850891,47.507343 28.971319,48.336792 29.043846,49.515148 
	C29.047020,50.565826 29.098093,51.267597 29.149166,51.969372 
	C29.114908,52.202362 29.080650,52.435356 29.034855,53.022339 
	C28.946430,53.646908 28.771734,53.816776 28.309553,53.880589 
z"/>
<path fill="#009B6C" opacity="1.000000" stroke="none" 
	d="
M21.934847,36.033066 
	C22.987148,38.425903 25.016029,40.868843 20.857090,42.600655 
	C20.281963,42.840145 20.576891,45.169067 20.735691,46.768684 
	C18.903797,47.674732 16.805241,48.342793 14.272922,48.941139 
	C13.839157,48.871422 13.968146,48.479889 14.303366,48.264320 
	C14.747226,47.409431 14.855865,46.770107 15.214735,46.026272 
	C15.589981,45.609768 15.715000,45.297783 15.998056,44.669720 
	C18.082346,41.580120 20.008596,38.806591 21.934847,36.033066 
z"/>
<path fill="#009B6C" opacity="1.000000" stroke="none" 
	d="
M25.259882,45.584740 
	C25.208941,45.826859 25.157999,46.068981 25.051327,46.678146 
	C23.931644,47.030609 22.867689,47.016037 21.404892,47.002785 
	C22.162188,45.792736 23.318325,44.581367 24.747417,43.171619 
	C25.020374,42.973240 25.044275,42.980968 25.036337,43.266315 
	C25.050543,43.735523 25.072685,43.919384 25.154953,44.346294 
	C25.281321,44.918835 25.296253,45.250633 25.259882,45.584740 
z"/>
<path fill="#54FC00" opacity="1.000000" stroke="none" 
	d="
M13.807955,33.506851 
	C13.981145,33.034435 14.193260,33.014065 14.723425,32.974213 
	C15.041472,32.954727 15.058659,32.950150 15.041744,33.401970 
	C14.671534,36.919464 14.318237,39.985138 13.848137,43.042305 
	C13.731333,43.033791 13.497585,43.048790 13.497585,43.048790 
	C13.614017,40.018826 13.730448,36.988865 13.807955,33.506851 
z"/>
<path fill="#C9F400" opacity="1.000000" stroke="none" 
	d="
M11.005163,45.019733 
	C10.703780,44.568954 10.402398,44.118179 10.094225,43.380356 
	C11.003709,43.057076 11.919985,43.020836 13.166923,43.016693 
	C13.497585,43.048790 13.731333,43.033791 13.820586,43.354012 
	C13.882727,44.090744 13.855613,44.507259 13.476248,44.951839 
	C12.417719,44.993183 11.711440,45.006458 11.005163,45.019733 
z"/>
<path fill="#004F4B" opacity="1.000000" stroke="none" 
	d="
M14.964506,46.130787 
	C14.855865,46.770107 14.747226,47.409431 14.387849,48.076313 
	C13.373466,47.715992 12.609819,47.328110 11.465571,46.749954 
	C11.084970,46.559673 11.055281,46.139198 11.055281,46.139198 
	C11.055281,46.139198 11.063967,46.032673 11.424581,46.004868 
	C12.844965,46.028301 13.904737,46.079544 14.964506,46.130787 
z"/>
<path fill="#4A7318" opacity="1.000000" stroke="none" 
	d="
M10.815605,46.226021 
	C11.055281,46.139198 11.084970,46.559673 11.121689,46.766491 
	C11.158409,46.973309 10.797038,47.168610 10.596165,47.208145 
	C10.455504,46.936069 10.515718,46.624454 10.815605,46.226021 
z"/>
<path fill="#72E802" opacity="1.000000" stroke="none" 
	d="
M15.214735,46.026272 
	C13.904737,46.079544 12.844965,46.028301 11.386694,45.967178 
	C10.988194,45.957294 10.989195,45.488018 10.997179,45.253876 
	C11.711440,45.006458 12.417719,44.993183 13.812653,44.977295 
	C14.947544,44.978386 15.393781,44.982090 15.840017,44.985794 
	C15.715000,45.297783 15.589981,45.609768 15.214735,46.026272 
z"/>
<path fill="#FBFA0E" opacity="1.000000" stroke="none" 
	d="
M49.917793,34.091419 
	C50.611935,33.471813 51.306076,32.852207 52.198555,32.036415 
	C53.921280,33.558315 55.445667,35.276402 57.338528,37.371384 
	C57.727470,38.234497 57.747940,38.720715 57.483604,39.263912 
	C56.621014,39.289825 56.043236,39.258766 55.065327,39.205193 
	C54.042191,40.237377 53.419186,41.292072 52.423496,42.278366 
	C51.292374,41.138607 50.533928,40.067242 49.818916,38.589226 
	C49.880829,36.818855 49.899311,35.455135 49.917793,34.091419 
z"/>
<path fill="#EBC5C0" opacity="1.000000" stroke="none" 
	d="
M57.768414,39.206940 
	C57.747940,38.720715 57.727470,38.234497 57.649796,37.387466 
	C58.474300,36.644798 59.356010,36.262939 60.591438,35.761253 
	C60.945160,35.641426 61.053734,35.837570 61.012852,36.408779 
	C61.248169,37.837799 61.524368,38.695614 61.295029,39.645813 
	C59.782463,39.561115 58.775440,39.384026 57.768414,39.206940 
z"/>
<path fill="#FFF50B" opacity="1.000000" stroke="none" 
	d="
M58.481499,55.877647 
	C57.257782,54.005745 56.412739,52.080288 55.198246,50.122372 
	C54.828796,50.089909 54.749859,49.702244 55.200249,49.392998 
	C56.444118,48.050968 57.237595,47.018188 58.008301,45.987743 
	C57.985531,45.990082 57.976284,46.034916 58.333889,45.991756 
	C59.407482,45.898026 60.123474,45.847454 60.852760,45.822044 
	C60.866055,45.847206 60.896339,45.895393 60.896339,45.895393 
	C60.098793,49.180592 62.969475,53.218071 58.481499,55.877647 
z"/>
<path fill="#FFFD14" opacity="1.000000" stroke="none" 
	d="
M63.274963,44.987030 
	C62.708542,45.298901 62.142124,45.610771 61.236023,45.909019 
	C60.896339,45.895393 60.866055,45.847206 60.849350,45.450394 
	C60.783764,44.313129 60.734879,43.572674 60.724125,42.567619 
	C60.894451,41.516289 61.026642,40.729557 61.658134,40.002426 
	C62.557945,40.926678 62.958450,41.791328 63.283768,43.041023 
	C63.230705,43.946388 63.252834,44.466709 63.274963,44.987030 
z"/>
<path fill="#FF9A1E" opacity="1.000000" stroke="none" 
	d="
M63.584301,45.030598 
	C63.252834,44.466709 63.230705,43.946388 63.708527,43.074780 
	C65.087685,42.766045 65.966904,42.808594 66.846115,42.851147 
	C66.628838,43.614643 66.411568,44.378143 66.235588,45.551594 
	C65.482468,45.665752 64.688049,45.369957 63.584301,45.030598 
z"/>
<path fill="#FFA844" opacity="1.000000" stroke="none" 
	d="
M68.989944,35.667351 
	C68.238510,36.047901 67.486015,36.041779 66.357300,36.024334 
	C65.997734,35.261654 66.014389,34.510292 65.929947,33.395653 
	C66.882195,33.781807 67.935539,34.531242 68.989944,35.667351 
z"/>
<path fill="#FFFF01" opacity="1.000000" stroke="none" 
	d="
M65.688622,35.976044 
	C66.085670,36.796104 66.143456,37.625908 65.952194,38.880596 
	C64.901512,39.258179 64.099884,39.210880 63.334183,38.801468 
	C63.359497,37.716854 63.348881,36.994347 63.338264,36.271843 
	C64.008629,36.176491 64.678993,36.081142 65.688622,35.976044 
z"/>
<path fill="#FF00FE" opacity="1.000000" stroke="none" 
	d="
M62.972748,36.172226 
	C63.348881,36.994347 63.359497,37.716854 62.954826,38.930824 
	C62.279564,39.484032 62.019592,39.545780 61.798111,39.580738 
	C61.836601,39.553944 61.800568,39.553425 61.800568,39.553425 
	C61.524368,38.695614 61.248169,37.837799 61.035492,36.518562 
	C61.601753,36.062294 62.104492,36.067455 62.972748,36.172226 
z"/>
<path fill="#FEFFE7" opacity="1.000000" stroke="none" 
	d="
M62.918892,39.292934 
	C64.099884,39.210880 64.901512,39.258179 66.107521,39.266273 
	C66.511894,39.227074 66.616890,39.321259 66.649063,39.331703 
	C66.698021,40.281776 66.714806,41.221401 67.005188,42.558472 
	C67.278778,42.955910 67.054840,42.903561 66.950478,42.877354 
	C65.966904,42.808594 65.087685,42.766045 63.783714,42.689739 
	C62.958450,41.791328 62.557945,40.926678 61.840889,39.975143 
	C61.524342,39.888260 61.759621,39.607533 61.759621,39.607533 
	C62.019592,39.545780 62.279564,39.484032 62.918892,39.292934 
z"/>
<path fill="#A5FF00" opacity="1.000000" stroke="none" 
	d="
M14.989061,30.477993 
	C15.329306,30.836027 15.666781,31.547054 15.776018,32.605274 
	C15.547779,32.952465 15.058659,32.950150 15.058659,32.950150 
	C15.058659,32.950150 15.041472,32.954727 15.042133,32.949871 
	C15.023961,32.240341 15.005127,31.535666 14.989061,30.477993 
z"/>
<path fill="#77FE00" opacity="1.000000" stroke="none" 
	d="
M15.041744,33.401970 
	C15.058659,32.950150 15.547779,32.952465 15.792071,32.948654 
	C16.216494,32.940014 16.396622,32.935177 16.840477,32.868904 
	C17.517429,32.869919 17.930651,32.932365 18.648670,33.072731 
	C19.695015,34.106815 20.436562,35.062984 21.556477,36.026108 
	C20.008596,38.806591 18.082346,41.580120 15.998056,44.669720 
	C15.393781,44.982090 14.947544,44.978386 14.164904,44.949226 
	C13.855613,44.507259 13.882727,44.090744 13.937390,43.362526 
	C14.318237,39.985138 14.671534,36.919464 15.041744,33.401970 
z"/>
<path fill="#FFE19A" opacity="1.000000" stroke="none" 
	d="
M31.035900,29.999208 
	C32.060940,29.686594 33.085979,29.373980 34.681297,29.075562 
	C35.524834,29.299475 35.798088,29.509190 35.774017,29.963310 
	C34.237316,31.204527 32.997940,32.201340 31.615149,33.122936 
	C31.471731,33.047722 31.169538,32.931187 31.144514,32.565254 
	C31.091625,31.465950 31.063763,30.732580 31.035900,29.999208 
z"/>
<path fill="#FFFFC3" opacity="1.000000" stroke="none" 
	d="
M36.071346,29.718904 
	C35.798088,29.509190 35.524834,29.299475 35.000702,29.014603 
	C34.771824,28.286190 34.793816,27.632935 35.203316,26.610588 
	C36.026222,26.225000 36.461624,26.208508 37.050888,26.369312 
	C37.457390,26.737001 37.734451,26.880087 38.013691,26.992073 
	C37.991440,27.008276 37.967556,26.958677 37.945423,27.308252 
	C37.848125,28.351637 37.772961,29.045448 37.425945,29.752369 
	C36.793175,29.749954 36.432262,29.734430 36.071346,29.718904 
z"/>
<path fill="#FFFF06" opacity="1.000000" stroke="none" 
	d="
M31.169538,32.931187 
	C31.169538,32.931187 31.471731,33.047722 31.638290,33.394913 
	C31.812241,34.106812 31.819632,34.471519 31.640228,35.009064 
	C31.282099,35.474266 31.110764,35.766636 30.621824,36.059288 
	C29.881420,36.057499 29.458624,36.055416 29.028622,35.676308 
	C29.028458,34.546055 29.035498,33.792831 29.042538,33.039604 
	C29.042538,33.039604 29.518850,32.899555 30.045609,32.901745 
	C30.771423,32.913017 30.970482,32.922104 31.169538,32.931187 
z"/>
<path fill="#FFFF14" opacity="1.000000" stroke="none" 
	d="
M36.897022,26.192015 
	C36.461624,26.208508 36.026222,26.225000 35.263054,26.288162 
	C34.935280,26.334833 34.544228,26.238359 34.010735,26.145861 
	C33.028984,26.023863 32.580727,25.994364 32.132473,25.964867 
	C32.132473,25.964867 32.095570,25.517687 32.083054,25.294067 
	C32.842415,24.728388 33.614285,24.386326 34.947601,24.110903 
	C35.964073,24.433708 36.419098,24.689877 36.905075,25.257074 
	C36.923023,25.776073 36.910023,25.984043 36.897022,26.192015 
z"/>
<path fill="#FFA023" opacity="1.000000" stroke="none" 
	d="
M31.144514,32.565254 
	C30.970482,32.922104 30.771423,32.913017 30.282734,32.828316 
	C30.167492,31.954556 30.341879,31.156418 30.776083,30.178745 
	C31.063763,30.732580 31.091625,31.465950 31.144514,32.565254 
z"/>
<path fill="#FFD134" opacity="1.000000" stroke="none" 
	d="
M28.805372,33.049553 
	C29.035498,33.792831 29.028458,34.546055 28.808662,35.706696 
	C28.595907,36.114113 28.154173,36.080036 28.067757,36.049294 
	C27.981339,36.018551 27.839275,35.902496 27.839275,35.902496 
	C27.878902,35.205917 27.918530,34.509342 28.028872,33.474129 
	C28.099585,33.135498 28.568207,33.059502 28.805372,33.049553 
z"/>
<path fill="#FFE12E" opacity="1.000000" stroke="none" 
	d="
M32.221367,26.215864 
	C32.580727,25.994364 33.028984,26.023863 33.811974,26.113426 
	C33.534557,26.271280 32.922409,26.369070 32.221367,26.215864 
z"/>
<path fill="#FFB430" opacity="1.000000" stroke="none" 
	d="
M25.797817,42.932976 
	C25.901213,42.173092 26.004608,41.413208 26.379414,40.256432 
	C26.650822,39.859535 27.070869,39.720764 27.345825,39.782207 
	C27.800474,39.898335 27.980164,39.953022 28.198704,40.347878 
	C28.301170,41.370335 28.364786,42.052612 28.007492,42.759163 
	C27.030737,42.864498 26.474888,42.945560 25.880701,43.013611 
	C25.842361,43.000599 25.797817,42.932976 25.797817,42.932976 
z"/>
<path fill="#FFFF24" opacity="1.000000" stroke="none" 
	d="
M28.159851,40.007706 
	C27.980164,39.953022 27.800474,39.898335 27.318558,39.419098 
	C27.014669,38.005608 27.013008,37.016670 27.011345,36.027733 
	C27.011345,36.027733 27.424210,35.946930 27.631742,35.924713 
	C27.839275,35.902496 27.981339,36.018551 28.089441,36.404663 
	C28.174702,37.508739 28.151859,38.226704 28.108006,39.194267 
	C28.083641,39.610607 28.080284,39.777348 28.097971,39.959587 
	C28.119015,39.975082 28.159851,40.007706 28.159851,40.007706 
z"/>
<path fill="#FFF800" opacity="1.000000" stroke="none" 
	d="
M26.697067,36.197514 
	C27.013008,37.016670 27.014669,38.005608 27.043602,39.357655 
	C27.070869,39.720764 26.650822,39.859535 26.431145,39.875473 
	C26.268576,38.716709 26.325682,37.542000 26.697067,36.197514 
z"/>
<path fill="#13975C" opacity="1.000000" stroke="none" 
	d="
M25.094826,44.103245 
	C25.072685,43.919384 25.050543,43.735523 25.045763,43.274727 
	C25.063128,42.997787 25.434858,43.008316 25.616337,42.970646 
	C25.797817,42.932976 25.842361,43.000599 25.726200,43.181950 
	C25.508303,43.658707 25.336565,43.905354 25.094826,44.103245 
z"/>
<path fill="#E7E6E2" opacity="1.000000" stroke="none" 
	d="
M38.052673,24.034576 
	C45.595058,23.955423 47.212193,25.616365 46.581707,33.616936 
	C44.655315,33.814251 42.982166,33.431156 41.190201,32.769295 
	C40.726688,32.300251 40.381981,32.109974 40.000526,31.521229 
	C39.298370,29.734732 38.632961,28.346704 37.967556,26.958677 
	C37.967556,26.958677 37.991440,27.008276 37.957317,26.630407 
	C37.957405,25.522306 37.991615,24.792074 38.025826,24.061842 
	C38.025826,24.061842 38.038342,24.038069 38.052673,24.034576 
z"/>
<path fill="#FFFBBB" opacity="1.000000" stroke="none" 
	d="
M41.309013,33.048065 
	C42.982166,33.431156 44.655315,33.814251 46.599312,34.054138 
	C47.633545,33.939854 48.396942,33.968777 49.539062,34.044556 
	C49.899311,35.455135 49.880829,36.818855 49.548111,38.490784 
	C48.022232,39.774654 46.810593,40.750309 45.122986,42.109230 
	C44.301895,41.565010 43.158180,40.806957 42.275894,40.004551 
	C42.741932,39.769623 42.946541,39.579044 43.151150,39.388466 
	C42.439034,39.238190 41.726917,39.087917 41.007847,38.598160 
	C40.648289,37.487896 40.295685,36.717113 39.976677,35.616272 
	C40.443188,34.540165 40.876102,33.794113 41.309013,33.048065 
z"/>
<path fill="#FFEF31" opacity="1.000000" stroke="none" 
	d="
M36.874126,24.946045 
	C36.419098,24.689877 35.964073,24.433708 35.267216,24.079124 
	C35.025387,23.980707 35.061359,23.582415 35.106331,23.388786 
	C35.679092,23.294523 36.206886,23.393890 36.856609,23.971127 
	C36.943737,24.614677 36.908932,24.780361 36.874126,24.946045 
z"/>
<path fill="#BFBD30" opacity="1.000000" stroke="none" 
	d="
M36.905075,25.257074 
	C36.908932,24.780361 36.943737,24.614677 37.021503,24.197887 
	C37.064465,23.946781 37.547169,23.987432 37.786499,24.024637 
	C37.991615,24.792074 37.957405,25.522306 37.979568,26.614204 
	C37.734451,26.880087 37.457390,26.737001 37.050888,26.369312 
	C36.910023,25.984043 36.923023,25.776073 36.905075,25.257074 
z"/>
<path fill="#E8BD5A" opacity="1.000000" stroke="none" 
	d="
M42.014465,40.048901 
	C43.158180,40.806957 44.301895,41.565010 45.122986,42.109230 
	C46.810593,40.750309 48.022232,39.774654 49.504677,38.897438 
	C50.533928,40.067242 51.292374,41.138607 52.429768,42.632477 
	C52.798058,43.533871 52.787395,44.012760 52.776733,44.491653 
	C48.225811,42.700428 43.639297,41.813953 38.256973,43.974823 
	C37.405342,43.987869 37.230728,43.973160 37.037769,43.722092 
	C37.019424,43.485733 37.026070,43.010719 37.243591,42.904549 
	C37.732338,42.601364 37.918186,42.342937 38.367710,41.981232 
	C39.210918,41.239281 39.705074,40.539196 40.293266,39.752449 
	C40.387306,39.665787 40.610298,39.540527 40.955940,39.682541 
	C41.539211,39.899338 41.776840,39.974121 42.014465,40.048901 
z"/>
<path fill="#FFFE18" opacity="1.000000" stroke="none" 
	d="
M52.735626,44.794571 
	C52.787395,44.012760 52.798058,43.533871 52.802448,42.700871 
	C53.419186,41.292072 54.042191,40.237377 54.926361,39.551361 
	C56.028366,40.985840 56.869205,42.051640 57.757492,43.480515 
	C57.862057,44.574032 57.919170,45.304474 57.976284,46.034916 
	C57.976284,46.034916 57.985531,45.990082 57.557861,45.993423 
	C56.226902,46.007122 55.323605,46.017483 54.420311,46.027840 
	C53.845051,45.717724 53.269787,45.407608 52.735626,44.794571 
z"/>
<path fill="#FFFD7E" opacity="1.000000" stroke="none" 
	d="
M54.498619,46.439766 
	C55.323605,46.017483 56.226902,46.007122 57.580635,45.991081 
	C57.237595,47.018188 56.444118,48.050968 55.286400,49.214935 
	C54.807083,48.514641 54.692005,47.683163 54.498619,46.439766 
z"/>
<path fill="#FFAF47" opacity="1.000000" stroke="none" 
	d="
M37.056114,43.958454 
	C37.230728,43.973160 37.405342,43.987869 37.842136,44.021881 
	C38.060757,44.451359 38.017197,44.861534 38.001419,45.581676 
	C38.029202,45.891647 38.057232,46.097496 37.757881,46.050156 
	C37.278683,45.917488 37.098835,45.832161 36.938263,45.449890 
	C36.990402,44.754784 37.023258,44.356617 37.056114,43.958454 
z"/>
<path fill="#FEFEBF" opacity="1.000000" stroke="none" 
	d="
M36.918983,45.746826 
	C37.098835,45.832161 37.278683,45.917488 37.719730,46.146774 
	C37.988308,46.902374 37.995693,47.514027 37.953346,48.426853 
	C37.095280,48.839821 36.286953,48.951611 35.092323,48.631737 
	C34.792328,47.461452 34.878635,46.722824 35.292576,45.955307 
	C36.053135,45.866554 36.486057,45.806690 36.918983,45.746826 
z"/>
<path fill="#111110" opacity="1.000000" stroke="none" 
	d="
M38.330780,52.022720 
	C37.927811,51.271008 37.873302,50.541298 37.879776,49.449417 
	C38.920639,49.820011 39.900524,50.552780 40.824429,51.679085 
	C40.072044,52.063324 39.375645,52.054028 38.330780,52.022720 
z"/>
<path fill="#F5A42F" opacity="1.000000" stroke="none" 
	d="
M29.091743,49.166245 
	C28.971319,48.336792 28.850891,47.507343 28.690987,45.942093 
	C28.686977,44.470127 28.722446,43.733963 29.155033,42.985203 
	C30.337393,42.995731 31.122635,43.018856 31.817139,43.407829 
	C32.153782,44.603020 32.581165,45.432362 33.004555,46.585152 
	C33.005306,47.552032 33.010044,48.195469 33.014786,48.838902 
	C32.677917,49.650829 32.341049,50.462757 31.991814,51.624870 
	C31.979448,51.975052 31.623375,52.029301 31.436659,51.627327 
	C30.530544,50.538986 29.811144,49.852615 29.091743,49.166245 
z"/>
<path fill="#FF992A" opacity="1.000000" stroke="none" 
	d="
M33.288353,48.877121 
	C33.010044,48.195469 33.005306,47.552032 33.339809,46.520840 
	C34.131691,46.093243 34.584328,46.053406 35.014183,46.017586 
	C34.991394,46.021606 34.964943,45.984196 34.964943,45.984196 
	C34.878635,46.722824 34.792328,47.461452 34.683224,48.570415 
	C34.294262,48.932281 33.928093,48.923813 33.288353,48.877121 
z"/>
<path fill="#C42900" opacity="1.000000" stroke="none" 
	d="
M29.043846,49.515148 
	C29.811144,49.852615 30.530544,50.538986 31.261177,51.586838 
	C30.799137,51.962616 30.325861,51.976913 29.500875,51.980293 
	C29.098093,51.267597 29.047020,50.565826 29.043846,49.515148 
z"/>
<path fill="#B34500" opacity="1.000000" stroke="none" 
	d="
M28.757915,42.997799 
	C28.722446,43.733963 28.686977,44.470127 28.532917,45.554070 
	C28.414324,45.901844 28.122852,45.970837 27.693558,45.978020 
	C26.870192,46.007004 26.476122,46.028805 26.082050,46.050610 
	C26.082050,46.050610 25.707260,45.753433 25.483570,45.669086 
	C25.296253,45.250633 25.281321,44.918835 25.154953,44.346294 
	C25.336565,43.905354 25.508303,43.658707 25.764540,43.194962 
	C26.474888,42.945560 27.030737,42.864498 28.093006,42.819016 
	C28.599430,42.854603 28.757915,42.997799 28.757915,42.997799 
z"/>
<path fill="#007479" opacity="1.000000" stroke="none" 
	d="
M26.061226,46.431297 
	C26.476122,46.028805 26.870192,46.007004 27.555416,46.035866 
	C27.880493,46.814770 27.914417,47.543011 27.939213,48.635994 
	C27.431032,49.706596 26.931978,50.412453 26.040403,51.673492 
	C26.040403,49.603207 26.040403,48.207596 26.061226,46.431297 
z"/>
<path fill="#333413" opacity="1.000000" stroke="none" 
	d="
M57.710045,43.117432 
	C56.869205,42.051640 56.028366,40.985840 55.326492,39.573875 
	C56.043236,39.258766 56.621014,39.289825 57.483604,39.263916 
	C58.775440,39.384026 59.782463,39.561115 61.295029,39.645813 
	C61.800568,39.553425 61.836601,39.553944 61.798111,39.580738 
	C61.759621,39.607533 61.524342,39.888260 61.341587,39.915543 
	C61.026642,40.729557 60.894451,41.516289 60.352959,42.597733 
	C59.199120,42.967445 58.454582,43.042439 57.710045,43.117432 
z"/>
<path fill="#FFFFCA" opacity="1.000000" stroke="none" 
	d="
M57.757492,43.480511 
	C58.454582,43.042439 59.199120,42.967445 60.314827,42.862335 
	C60.734879,43.572674 60.783764,44.313129 60.836056,45.425232 
	C60.123474,45.847454 59.407482,45.898026 58.333889,45.991756 
	C57.919170,45.304474 57.862057,44.574032 57.757492,43.480511 
z"/>
<path fill="#FFA43B" opacity="1.000000" stroke="none" 
	d="
M41.190201,32.769295 
	C40.876102,33.794113 40.443188,34.540165 39.984253,35.635071 
	C39.958233,35.983932 39.989418,36.009014 39.592865,36.040009 
	C38.136135,36.108715 37.075962,36.146427 35.658550,36.106262 
	C35.057568,36.029266 34.813816,36.030136 34.248779,36.032845 
	C33.285076,36.023849 32.642662,36.013023 31.975210,35.707993 
	C31.909122,35.221268 31.868073,35.028748 31.827021,34.836231 
	C31.819632,34.471519 31.812241,34.106812 31.781708,33.470123 
	C32.997940,32.201340 34.237316,31.204527 35.774017,29.963310 
	C36.432262,29.734430 36.793175,29.749954 37.503792,30.108124 
	C38.581421,30.940413 39.309349,31.430056 40.037277,31.919701 
	C40.381981,32.109974 40.726688,32.300251 41.190201,32.769295 
z"/>
<path fill="#FFFE10" opacity="1.000000" stroke="none" 
	d="
M40.000526,31.521229 
	C39.309349,31.430056 38.581421,30.940413 37.775646,30.095013 
	C37.772961,29.045448 37.848125,28.351637 37.945423,27.308252 
	C38.632961,28.346704 39.298370,29.734732 40.000526,31.521229 
z"/>
<path fill="#FF7E27" opacity="1.000000" stroke="none" 
	d="
M28.129017,38.944664 
	C28.151859,38.226704 28.174702,37.508739 28.175858,36.435410 
	C28.154173,36.080036 28.595907,36.114113 28.815866,36.083725 
	C29.458624,36.055416 29.881420,36.057499 30.639774,36.043266 
	C30.975330,36.026958 30.939552,36.018288 31.009640,36.400200 
	C30.096155,37.502964 29.112587,38.223812 28.129017,38.944664 
z"/>
<path fill="#FFC12E" opacity="1.000000" stroke="none" 
	d="
M31.640228,35.009064 
	C31.868073,35.028748 31.909122,35.221268 31.710346,35.732506 
	C31.293531,36.040249 31.116543,36.029270 30.939552,36.018288 
	C30.939552,36.018288 30.975330,36.026958 30.957380,36.042980 
	C31.110764,35.766636 31.282099,35.474266 31.640228,35.009064 
z"/>
<path fill="#FFF2C6" opacity="1.000000" stroke="none" 
	d="
M29.155033,42.985203 
	C28.757915,42.997799 28.599430,42.854603 28.513916,42.794746 
	C28.364786,42.052612 28.301170,41.370335 28.198704,40.347878 
	C28.159851,40.007706 28.119015,39.975082 28.472542,39.855614 
	C29.843449,39.792389 30.860825,39.848629 31.879745,40.298214 
	C32.577496,41.246670 33.273705,41.801781 33.936981,42.518517 
	C33.904057,42.680138 33.961922,43.004906 33.620186,42.990681 
	C32.821590,42.998295 32.364735,43.020138 31.907877,43.041981 
	C31.122635,43.018856 30.337393,42.995731 29.155033,42.985203 
z"/>
<path fill="#FFFE07" opacity="1.000000" stroke="none" 
	d="
M31.878202,39.904869 
	C30.860825,39.848629 29.843449,39.792389 28.451500,39.840118 
	C28.080284,39.777348 28.083641,39.610607 28.108007,39.194267 
	C29.112587,38.223812 30.096155,37.502964 31.009640,36.400200 
	C31.116543,36.029270 31.293531,36.040249 31.735382,36.026714 
	C32.642662,36.013023 33.285076,36.023849 34.300510,36.268524 
	C34.673531,36.502369 34.819626,36.961540 34.753883,37.298302 
	C34.798573,38.306019 34.909000,38.976974 34.693428,39.719559 
	C33.921700,39.844837 33.475967,39.898495 32.742500,39.933689 
	C32.262581,39.911770 32.070393,39.908321 31.878202,39.904869 
z"/>
<path fill="#FFF9B1" opacity="1.000000" stroke="none" 
	d="
M39.950657,35.965134 
	C40.295685,36.717113 40.648289,37.487896 40.935589,38.605011 
	C40.870285,38.951340 40.726994,38.930687 40.516281,38.708008 
	C40.200180,37.659889 40.094799,36.834450 39.989418,36.009014 
	C39.989418,36.009014 39.958233,35.983932 39.950657,35.965134 
z"/>
<path fill="#FFE382" opacity="1.000000" stroke="none" 
	d="
M42.275894,40.004551 
	C41.776840,39.974121 41.539211,39.899338 41.014004,39.536728 
	C40.726429,39.248901 40.726994,38.930687 40.726994,38.930687 
	C40.726994,38.930687 40.870285,38.951340 40.942543,38.944492 
	C41.726917,39.087917 42.439034,39.238190 43.151150,39.388466 
	C42.946541,39.579044 42.741932,39.769623 42.275894,40.004551 
z"/>
<path fill="#FFFFDB" opacity="1.000000" stroke="none" 
	d="
M40.516281,38.708008 
	C40.726994,38.930687 40.726429,39.248901 40.668365,39.394714 
	C40.610298,39.540527 40.387306,39.665787 39.859238,39.687798 
	C37.886196,39.774147 36.441227,39.838486 35.062016,39.844551 
	C35.127773,39.786278 35.019432,39.647934 35.019432,39.647934 
	C34.909000,38.976974 34.798573,38.306019 34.995510,37.240967 
	C35.613712,36.704670 35.851349,36.483757 36.015785,36.184135 
	C37.075962,36.146427 38.136135,36.108715 39.592865,36.040009 
	C40.094799,36.834450 40.200180,37.659889 40.516281,38.708008 
z"/>
<path fill="#FFAF47" opacity="1.000000" stroke="none" 
	d="
M33.030239,39.952156 
	C33.475967,39.898495 33.921700,39.844837 34.693428,39.719559 
	C35.019432,39.647934 35.127773,39.786278 35.233837,40.115540 
	C36.232819,40.970905 37.125740,41.497005 38.018658,42.023102 
	C37.918186,42.342937 37.732338,42.601364 36.890167,42.892311 
	C35.848572,42.995090 35.377918,43.003941 34.670990,43.003933 
	C34.434708,42.995075 33.961922,43.004906 33.961922,43.004906 
	C33.961922,43.004906 33.904057,42.680138 33.863243,42.200569 
	C33.558365,41.131390 33.294300,40.541771 33.030239,39.952156 
z"/>
<path fill="#FF8F12" opacity="1.000000" stroke="none" 
	d="
M38.367710,41.981232 
	C37.125740,41.497005 36.232819,40.970905 35.168079,40.173813 
	C36.441227,39.838486 37.886196,39.774147 39.765198,39.774460 
	C39.705074,40.539196 39.210918,41.239281 38.367710,41.981232 
z"/>
<path fill="#FF9618" opacity="1.000000" stroke="none" 
	d="
M34.907269,43.012791 
	C35.377918,43.003941 35.848572,42.995090 36.672646,42.998482 
	C37.026070,43.010719 37.019424,43.485733 37.037773,43.722092 
	C37.023258,44.356617 36.990402,44.754784 36.938263,45.449886 
	C36.486057,45.806690 36.053135,45.866554 35.292576,45.955307 
	C34.964943,45.984196 34.991394,46.021606 34.982002,45.643276 
	C34.950832,44.514229 34.929050,43.763508 34.907269,43.012791 
z"/>
<path fill="#FFE8AA" opacity="1.000000" stroke="none" 
	d="
M34.670990,43.003933 
	C34.929050,43.763508 34.950832,44.514229 35.004791,45.639259 
	C34.584328,46.053406 34.131691,46.093243 33.343796,46.197392 
	C32.581165,45.432362 32.153782,44.603020 31.817139,43.407829 
	C32.364735,43.020138 32.821590,42.998295 33.620186,42.990681 
	C33.961922,43.004906 34.434708,42.995075 34.670990,43.003933 
z"/>
<path fill="#FFF9B1" opacity="1.000000" stroke="none" 
	d="
M35.658550,36.106262 
	C35.851349,36.483757 35.613712,36.704670 35.061249,36.904205 
	C34.819626,36.961540 34.673531,36.502369 34.621799,36.266689 
	C34.813816,36.030136 35.057568,36.029266 35.658550,36.106262 
z"/>
<path fill="#FF9112" opacity="1.000000" stroke="none" 
	d="
M32.742500,39.933689 
	C33.294300,40.541771 33.558365,41.131390 33.896168,42.038948 
	C33.273705,41.801781 32.577496,41.246670 31.879745,40.298214 
	C32.070393,39.908321 32.262581,39.911770 32.742500,39.933689 
z"/>
</svg>