<?xml version="1.0" encoding="UTF-8"?>
<!DOCTYPE svg PUBLIC "-//W3C//DTD SVG 1.1//EN" "http://www.w3.org/Graphics/SVG/1.1/DTD/svg11.dtd">
<svg xmlns="http://www.w3.org/2000/svg" version="1.1" width="100px" height="91px" style="shape-rendering:geometricPrecision; text-rendering:geometricPrecision; image-rendering:optimizeQuality; fill-rule:evenodd; clip-rule:evenodd" xmlns:xlink="http://www.w3.org/1999/xlink">
<g><path style="opacity:1" fill="#2a2a49" d="M 40.5,0.5 C 41.791,0.262695 42.791,0.596028 43.5,1.5C 42.6236,1.36912 41.9569,1.70245 41.5,2.5C 45.1158,6.79038 48.4491,11.1237 51.5,15.5C 51.5,16.1667 51.8333,16.5 52.5,16.5C 49.5626,18.6555 46.2292,20.1555 42.5,21C 43.056,21.3826 43.3893,21.8826 43.5,22.5C 41.8333,22.5 40.1667,22.5 38.5,22.5C 40.1554,20.3443 41.9887,18.3443 44,16.5C 44.0098,7.52865 39.5098,4.02865 30.5,6C 29.1772,6.81595 28.5106,7.98261 28.5,9.5C 26.146,9.16198 23.8127,8.66198 21.5,8C 26.3611,2.45125 32.3611,0.617914 39.5,2.5C 40.2975,2.04311 40.6309,1.37644 40.5,0.5 Z"/></g>
<g><path style="opacity:1" fill="#1d3d5a" d="M 38.5,22.5 C 38.7822,23.7777 39.4489,24.7777 40.5,25.5C 39.2342,27.2962 39.5675,27.6295 41.5,26.5C 42.2975,26.9569 42.6309,27.6236 42.5,28.5C 41.1667,28.8333 39.8333,29.1667 38.5,29.5C 38.5,28.1667 38.5,26.8333 38.5,25.5C 35.0942,26.4021 32.7609,28.5688 31.5,32C 32.1667,32.6667 32.8333,33.3333 33.5,34C 31.8807,34.2355 30.8807,35.0689 30.5,36.5C 29.8444,35.7222 29.0111,35.0556 28,34.5C 25.9156,34.3308 23.7489,34.3308 21.5,34.5C 19.3867,29.73 15.72,26.73 10.5,25.5C 9.83333,26.1667 9.16667,26.8333 8.5,27.5C 8.16667,27.1667 7.83333,26.8333 7.5,26.5C 9.70978,24.7854 11.3764,22.6188 12.5,20C 15.9518,19.1083 18.9518,17.4416 21.5,15C 19.6546,15.7827 17.6546,16.116 15.5,16C 17.751,15.2525 19.0844,13.7525 19.5,11.5C 19.4701,10.5028 19.9701,9.83611 21,9.5C 24.0288,10.5049 27.0288,11.5049 30,12.5C 30.2387,11.212 29.7387,10.212 28.5,9.5C 28.5106,7.98261 29.1772,6.81595 30.5,6C 39.5098,4.02865 44.0098,7.52865 44,16.5C 41.9887,18.3443 40.1554,20.3443 38.5,22.5 Z"/></g>
<g><path style="opacity:1" fill="#14494e" d="M 43.5,1.5 C 47.4349,5.43656 50.1015,10.1032 51.5,15.5C 48.4491,11.1237 45.1158,6.79038 41.5,2.5C 41.9569,1.70245 42.6236,1.36912 43.5,1.5 Z"/></g>
<g><path style="opacity:0.769" fill="#366f63" d="M 64.5,13.5 C 64.5,14.1667 64.5,14.8333 64.5,15.5C 64.1667,15.5 63.8333,15.5 63.5,15.5C 63.1667,14.5 62.5,13.8333 61.5,13.5C 60.5084,13.3284 59.8417,13.6618 59.5,14.5C 58.1667,14.8333 58.1667,15.1667 59.5,15.5C 56.2046,17.8145 52.538,19.6478 48.5,21C 47.2617,21.69 47.2617,22.19 48.5,22.5C 47.0011,23.494 45.3344,23.494 43.5,22.5C 43.3893,21.8826 43.056,21.3826 42.5,21C 46.2292,20.1555 49.5626,18.6555 52.5,16.5C 54.2701,15.236 55.9368,13.736 57.5,12C 60.2116,11.1742 62.5449,11.6742 64.5,13.5 Z"/></g>
<g><path style="opacity:0.906" fill="#20423a" d="M 61.5,13.5 C 62.5,13.8333 63.1667,14.5 63.5,15.5C 63.8333,16.8333 64.1667,16.8333 64.5,15.5C 64.5,14.8333 64.5,14.1667 64.5,13.5C 65.1515,14.0906 65.8182,14.7573 66.5,15.5C 67.5,14.8333 68.5,14.1667 69.5,13.5C 70.8415,15.0049 72.5082,15.6715 74.5,15.5C 70.2055,16.2526 65.8722,17.2526 61.5,18.5C 61.5,18.1667 61.5,17.8333 61.5,17.5C 62.8333,17.1667 62.8333,16.8333 61.5,16.5C 61.1583,15.6618 60.4916,15.3284 59.5,15.5C 59.5,15.1667 59.5,14.8333 59.5,14.5C 60.4916,14.6716 61.1583,14.3382 61.5,13.5 Z"/></g>
<g><path style="opacity:0.875" fill="#21423d" d="M 77.5,15.5 C 76.5,15.5 75.5,15.5 74.5,15.5C 75.5,12.8333 76.5,12.8333 77.5,15.5 Z"/></g>
<g><path style="opacity:0.816" fill="#3c8573" d="M 80.5,15.5 C 81.9778,15.238 83.3112,15.5713 84.5,16.5C 82.5891,17.4767 80.5891,18.1433 78.5,18.5C 79.1667,17.5 79.8333,16.5 80.5,15.5 Z"/></g>
<g><path style="opacity:1" fill="#1b4d56" d="M 30.5,-0.5 C 33.5,-0.5 36.5,-0.5 39.5,-0.5C 39.5,0.166667 39.8333,0.5 40.5,0.5C 40.6309,1.37644 40.2975,2.04311 39.5,2.5C 32.3611,0.617914 26.3611,2.45125 21.5,8C 23.8127,8.66198 26.146,9.16198 28.5,9.5C 29.7387,10.212 30.2387,11.212 30,12.5C 27.0288,11.5049 24.0288,10.5049 21,9.5C 19.9701,9.83611 19.4701,10.5028 19.5,11.5C 14.9405,14.7023 10.4405,18.0356 6,21.5C 3.68203,24.469 2.18203,27.8023 1.5,31.5C 0.661754,31.8417 0.32842,32.5084 0.5,33.5C 0.166667,33.5 -0.166667,33.5 -0.5,33.5C -0.5,31.8333 -0.5,30.1667 -0.5,28.5C 2.56003,20.9377 7.89337,15.4377 15.5,12C 19.2355,6.0791 24.2355,1.91243 30.5,-0.5 Z"/></g>
<g><path style="opacity:1" fill="#3c6d6f" d="M 78.5,18.5 C 77.7375,19.2679 76.7375,19.7679 75.5,20C 77.4913,20.3736 79.158,21.207 80.5,22.5C 78.5,22.1667 76.5,21.8333 74.5,21.5C 71.0381,20.5184 67.3714,20.185 63.5,20.5C 68.2688,19.111 73.2688,18.4443 78.5,18.5 Z"/></g>
<g><path style="opacity:1" fill="#65e2ce" d="M 80.5,15.5 C 79.8333,16.5 79.1667,17.5 78.5,18.5C 73.2688,18.4443 68.2688,19.111 63.5,20.5C 62.7703,22.045 61.437,22.8784 59.5,23C 60.1258,23.7504 60.6258,24.5838 61,25.5C 61.804,24.1955 62.9707,23.5288 64.5,23.5C 66.0564,24.5471 67.7231,25.2137 69.5,25.5C 69.5,26.5 69.5,27.5 69.5,28.5C 68.7095,29.4013 67.7095,30.0679 66.5,30.5C 63.1996,29.907 59.8663,29.2403 56.5,28.5C 57.7178,27.1973 57.3845,26.1973 55.5,25.5C 56.09,24.2011 57.09,23.3678 58.5,23C 56.5048,22.3872 54.8381,22.8872 53.5,24.5C 53.1667,24.5 52.8333,24.5 52.5,24.5C 51.8166,22.8235 50.4832,22.1568 48.5,22.5C 47.2617,22.19 47.2617,21.69 48.5,21C 52.538,19.6478 56.2046,17.8145 59.5,15.5C 60.4916,15.3284 61.1583,15.6618 61.5,16.5C 61.5,16.8333 61.5,17.1667 61.5,17.5C 60.1667,17.8333 60.1667,18.1667 61.5,18.5C 65.8722,17.2526 70.2055,16.2526 74.5,15.5C 75.5,15.5 76.5,15.5 77.5,15.5C 78.6522,14.375 79.6522,14.375 80.5,15.5 Z"/></g>
<g><path style="opacity:1" fill="#203655" d="M 19.5,11.5 C 19.0844,13.7525 17.751,15.2525 15.5,16C 17.6546,16.116 19.6546,15.7827 21.5,15C 18.9518,17.4416 15.9518,19.1083 12.5,20C 11.3764,22.6188 9.70978,24.7854 7.5,26.5C 7.83333,26.8333 8.16667,27.1667 8.5,27.5C 9.16667,26.8333 9.83333,26.1667 10.5,25.5C 15.72,26.73 19.3867,29.73 21.5,34.5C 23.7489,34.3308 25.9156,34.3308 28,34.5C 29.0111,35.0556 29.8444,35.7222 30.5,36.5C 32.5,36.5 34.5,36.5 36.5,36.5C 37.1667,36.5 37.5,36.8333 37.5,37.5C 36.8333,37.5 36.1667,37.5 35.5,37.5C 33.5,37.5 31.5,37.5 29.5,37.5C 29.5,42.1667 29.5,46.8333 29.5,51.5C 31.4672,51.7394 33.3005,51.4061 35,50.5C 35.4828,51.448 35.6495,52.448 35.5,53.5C 33.5,53.5 31.5,53.5 29.5,53.5C 29.2852,55.1788 29.9519,56.1788 31.5,56.5C 32.2876,59.97 34.2876,62.6367 37.5,64.5C 38.4287,63.3112 38.762,61.9778 38.5,60.5C 40.0269,60.427 41.0269,61.0937 41.5,62.5C 39.8235,63.1834 39.1568,64.5168 39.5,66.5C 40.5,66.5 41.5,66.5 42.5,66.5C 45.0437,68.1687 47.7103,69.8354 50.5,71.5C 50.5,71.8333 50.5,72.1667 50.5,72.5C 48.4312,75.6019 46.0978,78.6019 43.5,81.5C 40.8195,76.8013 38.1528,72.1346 35.5,67.5C 32.2522,62.6749 29.2522,57.6749 26.5,52.5C 25.5713,53.6888 25.238,55.0222 25.5,56.5C 24.548,55.548 23.548,54.548 22.5,53.5C 23.5,52.1667 24.5,50.8333 25.5,49.5C 24.4231,48.2949 23.0898,47.6282 21.5,47.5C 21.7525,44.6802 21.2525,42.0135 20,39.5C 16.8035,37.3332 13.9701,34.8332 11.5,32C 8.18323,31.5017 4.8499,31.335 1.5,31.5C 2.18203,27.8023 3.68203,24.469 6,21.5C 10.4405,18.0356 14.9405,14.7023 19.5,11.5 Z"/></g>
<g><path style="opacity:1" fill="#34a2a3" d="M 40.5,25.5 C 43.2097,26.5058 45.8763,27.5058 48.5,28.5C 47.209,28.2627 46.209,28.596 45.5,29.5C 44.391,29.4431 43.391,29.1098 42.5,28.5C 42.6309,27.6236 42.2975,26.9569 41.5,26.5C 39.5675,27.6295 39.2342,27.2962 40.5,25.5 Z"/></g>
<g><path style="opacity:1" fill="#324e80" d="M 38.5,22.5 C 40.1667,22.5 41.8333,22.5 43.5,22.5C 45.3344,23.494 47.0011,23.494 48.5,22.5C 50.4832,22.1568 51.8166,22.8235 52.5,24.5C 51.2334,23.913 50.2334,23.913 49.5,24.5C 51.0822,26.0147 52.4155,27.6814 53.5,29.5C 53.5,30.5 53.5,31.5 53.5,32.5C 55.5,32.5 57.5,32.5 59.5,32.5C 60.1667,32.5 60.8333,32.5 61.5,32.5C 61.5,33.1667 61.5,33.8333 61.5,34.5C 60.1667,34.5 58.8333,34.5 57.5,34.5C 55.1667,34.5 52.8333,34.5 50.5,34.5C 50.9465,31.9899 50.2798,29.9899 48.5,28.5C 45.8763,27.5058 43.2097,26.5058 40.5,25.5C 39.4489,24.7777 38.7822,23.7777 38.5,22.5 Z"/></g>
<g><path style="opacity:1" fill="#4593bb" d="M 52.5,24.5 C 52.8333,24.5 53.1667,24.5 53.5,24.5C 53.8769,26.258 54.5435,27.9246 55.5,29.5C 55.0302,30.463 54.3635,30.463 53.5,29.5C 52.4155,27.6814 51.0822,26.0147 49.5,24.5C 50.2334,23.913 51.2334,23.913 52.5,24.5 Z"/></g>
<g><path style="opacity:1" fill="#b4fae3" d="M 63.5,20.5 C 67.3714,20.185 71.0381,20.5184 74.5,21.5C 72.5714,21.2308 70.9047,21.7308 69.5,23C 72.824,25.1278 76.4906,25.9611 80.5,25.5C 80.7135,27.1439 80.3802,28.6439 79.5,30C 76.8262,29.8471 74.1595,29.3471 71.5,28.5C 70.8333,28.5 70.1667,28.5 69.5,28.5C 69.5,27.5 69.5,26.5 69.5,25.5C 67.7231,25.2137 66.0564,24.5471 64.5,23.5C 62.9707,23.5288 61.804,24.1955 61,25.5C 60.6258,24.5838 60.1258,23.7504 59.5,23C 61.437,22.8784 62.7703,22.045 63.5,20.5 Z"/></g>
<g><path style="opacity:1" fill="#202e2f" d="M 91.5,27.5 C 89.9582,26.6993 88.2915,26.366 86.5,26.5C 86.5,29.1667 86.5,31.8333 86.5,34.5C 84.6017,33.2655 82.935,33.5989 81.5,35.5C 81.5569,34.391 81.8902,33.391 82.5,32.5C 83.5,32.5 84.5,32.5 85.5,32.5C 85.5,30.8333 85.5,29.1667 85.5,27.5C 84.5,27.5 83.5,27.5 82.5,27.5C 82.5,27.1667 82.5,26.8333 82.5,26.5C 84.4878,26.1729 86.4878,25.8396 88.5,25.5C 90.0296,25.6399 91.0296,26.3065 91.5,27.5 Z"/></g>
<g><path style="opacity:1" fill="#28778f" d="M 38.5,29.5 C 37.5,29.8333 36.8333,30.5 36.5,31.5C 36.5,33.1667 36.5,34.8333 36.5,36.5C 34.5,36.5 32.5,36.5 30.5,36.5C 30.8807,35.0689 31.8807,34.2355 33.5,34C 32.8333,33.3333 32.1667,32.6667 31.5,32C 32.7609,28.5688 35.0942,26.4021 38.5,25.5C 38.5,26.8333 38.5,28.1667 38.5,29.5 Z"/></g>
<g><path style="opacity:1" fill="#287f72" d="M 82.5,27.5 C 83.5,27.5 84.5,27.5 85.5,27.5C 85.5,29.1667 85.5,30.8333 85.5,32.5C 84.5,32.5 83.5,32.5 82.5,32.5C 82.5,30.8333 82.5,29.1667 82.5,27.5 Z"/></g>
<g><path style="opacity:1" fill="#046439" d="M 42.5,28.5 C 43.391,29.1098 44.391,29.4431 45.5,29.5C 45.5,30.1667 45.5,30.8333 45.5,31.5C 42.5785,32.3719 39.5785,32.3719 36.5,31.5C 36.8333,30.5 37.5,29.8333 38.5,29.5C 39.8333,29.1667 41.1667,28.8333 42.5,28.5 Z"/></g>
<g><path style="opacity:1" fill="#1b2934" d="M 66.5,30.5 C 66.5,30.8333 66.5,31.1667 66.5,31.5C 63.5547,30.5325 60.5547,30.3658 57.5,31C 58.4158,31.2784 59.0825,31.7784 59.5,32.5C 57.5,32.5 55.5,32.5 53.5,32.5C 53.5,31.5 53.5,30.5 53.5,29.5C 54.3635,30.463 55.0302,30.463 55.5,29.5C 54.5435,27.9246 53.8769,26.258 53.5,24.5C 54.8381,22.8872 56.5048,22.3872 58.5,23C 57.09,23.3678 56.09,24.2011 55.5,25.5C 57.3845,26.1973 57.7178,27.1973 56.5,28.5C 59.8663,29.2403 63.1996,29.907 66.5,30.5 Z"/></g>
<g><path style="opacity:1" fill="#397873" d="M 92.5,27.5 C 94.0532,29.385 96.0532,30.385 98.5,30.5C 98.6495,31.552 98.4828,32.552 98,33.5C 97.0228,32.2264 96.1894,32.2264 95.5,33.5C 95.5,34.1667 95.1667,34.5 94.5,34.5C 93.8333,33.8333 93.1667,33.1667 92.5,32.5C 89.8685,31.1327 90.2018,30.2994 93.5,30C 92.7476,29.3292 92.4142,28.4959 92.5,27.5 Z"/></g>
<g><path style="opacity:1" fill="#42b29e" d="M 1.5,31.5 C 4.8499,31.335 8.18323,31.5017 11.5,32C 13.9701,34.8332 16.8035,37.3332 20,39.5C 21.2525,42.0135 21.7525,44.6802 21.5,47.5C 21.1412,49.371 20.1412,50.871 18.5,52C 16.1341,52.4396 13.8008,52.9396 11.5,53.5C 8.10162,53.1796 4.76829,53.513 1.5,54.5C 3.46132,60.7845 7.46132,65.1178 13.5,67.5C 13.1583,68.3382 12.4916,68.6716 11.5,68.5C 10.0783,68.2914 8.74499,67.7914 7.5,67C 4.44899,63.7011 1.78233,60.2011 -0.5,56.5C -0.5,54.8333 -0.5,53.1667 -0.5,51.5C 4.87971,51.6757 10.213,51.3424 15.5,50.5C 16.3171,48.0314 16.8171,45.3647 17,42.5C 17.1858,44.9005 17.6858,47.2338 18.5,49.5C 19.1067,49.3764 19.44,49.0431 19.5,48.5C 19.5,46.1667 19.5,43.8333 19.5,41.5C 18.5637,40.0256 17.2303,39.0256 15.5,38.5C 15.0269,37.0937 14.0269,36.427 12.5,36.5C 9.07252,33.7688 5.07252,32.7688 0.5,33.5C 0.32842,32.5084 0.661754,31.8417 1.5,31.5 Z"/></g>
<g><path style="opacity:1" fill="#1e5e4e" d="M 69.5,28.5 C 70.1667,28.5 70.8333,28.5 71.5,28.5C 71.1193,29.9311 70.1193,30.7645 68.5,31C 70.3962,33.068 72.3962,34.9013 74.5,36.5C 74.1668,37.8411 73.1668,39.1744 71.5,40.5C 70.4739,39.147 69.1405,38.147 67.5,37.5C 65.9674,35.7549 63.9674,34.7549 61.5,34.5C 61.5,33.8333 61.5,33.1667 61.5,32.5C 62.8734,32.3433 64.2068,32.51 65.5,33C 72.9762,37.5938 73.3095,37.0938 66.5,31.5C 66.5,31.1667 66.5,30.8333 66.5,30.5C 67.7095,30.0679 68.7095,29.4013 69.5,28.5 Z"/></g>
<g><path style="opacity:1" fill="#0bb88e" d="M 66.5,31.5 C 73.3095,37.0938 72.9762,37.5938 65.5,33C 64.2068,32.51 62.8734,32.3433 61.5,32.5C 60.8333,32.5 60.1667,32.5 59.5,32.5C 59.0825,31.7784 58.4158,31.2784 57.5,31C 60.5547,30.3658 63.5547,30.5325 66.5,31.5 Z"/></g>
<g><path style="opacity:1" fill="#79e2d2" d="M 91.5,27.5 C 91.8333,27.5 92.1667,27.5 92.5,27.5C 92.4142,28.4959 92.7476,29.3292 93.5,30C 90.2018,30.2994 89.8685,31.1327 92.5,32.5C 93.1667,33.1667 93.8333,33.8333 94.5,34.5C 93.8333,34.5 93.1667,34.5 92.5,34.5C 92.1667,34.5 91.8333,34.5 91.5,34.5C 90.8428,35.2919 89.1761,35.2919 86.5,34.5C 86.5,31.8333 86.5,29.1667 86.5,26.5C 88.2915,26.366 89.9582,26.6993 91.5,27.5 Z"/></g>
<g><path style="opacity:1" fill="#6bf3e9" d="M 74.5,21.5 C 76.5,21.8333 78.5,22.1667 80.5,22.5C 81.6737,23.5137 82.3404,24.847 82.5,26.5C 82.5,26.8333 82.5,27.1667 82.5,27.5C 82.5,29.1667 82.5,30.8333 82.5,32.5C 81.8902,33.391 81.5569,34.391 81.5,35.5C 79.283,36.3686 76.9496,36.702 74.5,36.5C 72.3962,34.9013 70.3962,33.068 68.5,31C 70.1193,30.7645 71.1193,29.9311 71.5,28.5C 74.1595,29.3471 76.8262,29.8471 79.5,30C 80.3802,28.6439 80.7135,27.1439 80.5,25.5C 76.4906,25.9611 72.824,25.1278 69.5,23C 70.9047,21.7308 72.5714,21.2308 74.5,21.5 Z"/></g>
<g><path style="opacity:0.053" fill="#000101" d="M 95.5,33.5 C 96.7514,34.472 96.418,35.1386 94.5,35.5C 93.5836,35.4573 92.9169,35.1239 92.5,34.5C 93.1667,34.5 93.8333,34.5 94.5,34.5C 95.1667,34.5 95.5,34.1667 95.5,33.5 Z"/></g>
<g><path style="opacity:1" fill="#f6fcfe" d="M 46.5,34.5 C 46.5,35.1667 46.5,35.8333 46.5,36.5C 44.39,37.4525 43.2233,39.1192 43,41.5C 40.2635,39.0348 38.9301,36.0348 39,32.5C 41.1354,34.2785 43.6354,34.9452 46.5,34.5 Z"/></g>
<g><path style="opacity:0.098" fill="#10191a" d="M 91.5,34.5 C 89.9622,37.0479 88.2956,37.0479 86.5,34.5C 89.1761,35.2919 90.8428,35.2919 91.5,34.5 Z"/></g>
<g><path style="opacity:0.451" fill="#1d2e2f" d="M 12.5,36.5 C 14.0269,36.427 15.0269,37.0937 15.5,38.5C 13.9731,38.573 12.9731,37.9063 12.5,36.5 Z"/></g>
<g><path style="opacity:1" fill="#129b76" d="M 57.5,34.5 C 58.8333,34.5 60.1667,34.5 61.5,34.5C 63.9674,34.7549 65.9674,35.7549 67.5,37.5C 65.5,37.5 63.5,37.5 61.5,37.5C 61.0798,39.674 61.0798,41.674 61.5,43.5C 59.604,44.4656 57.604,44.7989 55.5,44.5C 55.4431,43.391 55.1098,42.391 54.5,41.5C 55.2389,41.631 55.9056,41.4643 56.5,41C 54.393,39.7365 53.393,37.9032 53.5,35.5C 55.099,35.7678 56.4324,35.4345 57.5,34.5 Z"/></g>
<g><path style="opacity:1" fill="#3de1c5" d="M 36.5,31.5 C 39.5785,32.3719 42.5785,32.3719 45.5,31.5C 46.1098,32.391 46.4431,33.391 46.5,34.5C 43.6354,34.9452 41.1354,34.2785 39,32.5C 38.9301,36.0348 40.2635,39.0348 43,41.5C 43.2233,39.1192 44.39,37.4525 46.5,36.5C 46.6383,40.6935 44.6383,43.0268 40.5,43.5C 40.5449,40.9228 39.5449,38.9228 37.5,37.5C 37.5,36.8333 37.1667,36.5 36.5,36.5C 36.5,34.8333 36.5,33.1667 36.5,31.5 Z"/></g>
<g><path style="opacity:1" fill="#1a535f" d="M 50.5,34.5 C 52.8333,34.5 55.1667,34.5 57.5,34.5C 56.4324,35.4345 55.099,35.7678 53.5,35.5C 53.393,37.9032 54.393,39.7365 56.5,41C 55.9056,41.4643 55.2389,41.631 54.5,41.5C 52.197,40.7693 49.8637,40.436 47.5,40.5C 48.6477,38.8513 49.981,37.3513 51.5,36C 50.8333,35.6667 50.1667,35.3333 49.5,35C 49.7284,34.6012 50.0618,34.4346 50.5,34.5 Z"/></g>
<g><path style="opacity:1" fill="#224e5f" d="M 35.5,37.5 C 35.8588,39.371 36.8588,40.871 38.5,42C 37.6919,42.3076 37.0253,42.8076 36.5,43.5C 38.7662,44.3142 41.0995,44.8142 43.5,45C 40.8333,45.3333 38.1667,45.6667 35.5,46C 36.3279,46.9147 37.3279,47.5814 38.5,48C 36.662,50.0831 35.9953,52.2498 36.5,54.5C 34.8333,55.1667 33.1667,55.8333 31.5,56.5C 29.9519,56.1788 29.2852,55.1788 29.5,53.5C 31.5,53.5 33.5,53.5 35.5,53.5C 35.6495,52.448 35.4828,51.448 35,50.5C 33.3005,51.4061 31.4672,51.7394 29.5,51.5C 29.5,46.8333 29.5,42.1667 29.5,37.5C 31.5,37.5 33.5,37.5 35.5,37.5 Z"/></g>
<g><path style="opacity:1" fill="#27c296" d="M 48.5,28.5 C 50.2798,29.9899 50.9465,31.9899 50.5,34.5C 50.0618,34.4346 49.7284,34.6012 49.5,35C 50.1667,35.3333 50.8333,35.6667 51.5,36C 49.981,37.3513 48.6477,38.8513 47.5,40.5C 49.8637,40.436 52.197,40.7693 54.5,41.5C 52.0637,41.317 49.897,41.9837 48,43.5C 47.253,45.9278 48.0863,47.5944 50.5,48.5C 51.6085,49.29 52.9419,49.79 54.5,50C 53.6667,50.1667 52.8333,50.3333 52,50.5C 49.6169,49.0685 47.1169,48.2351 44.5,48C 45.8333,49 47.1667,50 48.5,51C 47.244,51.4169 46.5774,52.2502 46.5,53.5C 44.39,52.5475 43.2233,50.8808 43,48.5C 39.9122,50.7765 38.5789,53.7765 39,57.5C 41.1354,55.7215 43.6354,55.0548 46.5,55.5C 44.8439,57.0603 42.8439,58.0603 40.5,58.5C 39.791,59.404 38.791,59.7373 37.5,59.5C 36.962,57.8828 36.6287,56.2161 36.5,54.5C 35.9953,52.2498 36.662,50.0831 38.5,48C 37.3279,47.5814 36.3279,46.9147 35.5,46C 38.1667,45.6667 40.8333,45.3333 43.5,45C 41.0995,44.8142 38.7662,44.3142 36.5,43.5C 37.0253,42.8076 37.6919,42.3076 38.5,42C 36.8588,40.871 35.8588,39.371 35.5,37.5C 36.1667,37.5 36.8333,37.5 37.5,37.5C 39.5449,38.9228 40.5449,40.9228 40.5,43.5C 44.6383,43.0268 46.6383,40.6935 46.5,36.5C 46.5,35.8333 46.5,35.1667 46.5,34.5C 46.4431,33.391 46.1098,32.391 45.5,31.5C 45.5,30.8333 45.5,30.1667 45.5,29.5C 46.209,28.596 47.209,28.2627 48.5,28.5 Z"/></g>
<g><path style="opacity:0.231" fill="#121c1d" d="M 15.5,38.5 C 17.2303,39.0256 18.5637,40.0256 19.5,41.5C 18.1667,43.8333 18.1667,46.1667 19.5,48.5C 19.44,49.0431 19.1067,49.3764 18.5,49.5C 17.6858,47.2338 17.1858,44.9005 17,42.5C 16.8171,45.3647 16.3171,48.0314 15.5,50.5C 15.5,46.5 15.5,42.5 15.5,38.5 Z"/></g>
<g><path style="opacity:0.99" fill="#05130d" d="M 54.5,41.5 C 55.1098,42.391 55.4431,43.391 55.5,44.5C 54.7611,44.369 54.0944,44.5357 53.5,45C 54.3805,45.7083 55.0472,46.5416 55.5,47.5C 53.9582,48.3007 52.2915,48.634 50.5,48.5C 48.0863,47.5944 47.253,45.9278 48,43.5C 49.897,41.9837 52.0637,41.317 54.5,41.5 Z"/></g>
<g><path style="opacity:1" fill="#1f4d56" d="M 81.5,35.5 C 80.7703,37.045 79.437,37.8784 77.5,38C 82.3865,40.6478 83.7198,44.4812 81.5,49.5C 81.0296,48.3065 80.0296,47.6399 78.5,47.5C 75.9572,48.207 73.7905,49.5403 72,51.5C 71.5014,47.8484 71.3347,44.1817 71.5,40.5C 73.1668,39.1744 74.1668,37.8411 74.5,36.5C 76.9496,36.702 79.283,36.3686 81.5,35.5 Z"/></g>
<g><path style="opacity:1" fill="#2cc4a4" d="M 76.5,41.5 C 78.0109,42.5025 79.6776,43.1692 81.5,43.5C 81.5,44.5 81.5,45.5 81.5,46.5C 79.8333,46.5 78.1667,46.5 76.5,46.5C 76.5,44.8333 76.5,43.1667 76.5,41.5 Z"/></g>
<g><path style="opacity:1" fill="#25ca9c" d="M 67.5,37.5 C 69.1405,38.147 70.4739,39.147 71.5,40.5C 71.3347,44.1817 71.5014,47.8484 72,51.5C 73.7905,49.5403 75.9572,48.207 78.5,47.5C 80.0296,47.6399 81.0296,48.3065 81.5,49.5C 79.9731,49.427 78.9731,50.0937 78.5,51.5C 74.9796,52.3528 72.3129,54.3528 70.5,57.5C 69.609,56.8902 68.609,56.5569 67.5,56.5C 68.2899,55.2058 69.2899,54.0391 70.5,53C 69.9056,52.5357 69.2389,52.369 68.5,52.5C 68.1667,52.5 67.8333,52.5 67.5,52.5C 70.6913,47.3539 69.3579,45.6873 63.5,47.5C 65.0224,49.1563 64.689,50.323 62.5,51C 63.745,51.7914 65.0783,52.2914 66.5,52.5C 66.2648,53.0967 65.7648,53.4301 65,53.5C 62.8649,52.8729 60.6982,52.3729 58.5,52C 59.9733,51.2904 60.6399,50.1238 60.5,48.5C 58.8561,48.2865 57.3561,48.6198 56,49.5C 55.5357,48.9056 55.369,48.2389 55.5,47.5C 55.0472,46.5416 54.3805,45.7083 53.5,45C 54.0944,44.5357 54.7611,44.369 55.5,44.5C 57.604,44.7989 59.604,44.4656 61.5,43.5C 61.0798,41.674 61.0798,39.674 61.5,37.5C 63.5,37.5 65.5,37.5 67.5,37.5 Z"/></g>
<g><path style="opacity:1" fill="#c2fdf8" d="M 67.5,52.5 C 67.1667,52.5 66.8333,52.5 66.5,52.5C 65.0783,52.2914 63.745,51.7914 62.5,51C 64.689,50.323 65.0224,49.1563 63.5,47.5C 69.3579,45.6873 70.6913,47.3539 67.5,52.5 Z"/></g>
<g><path style="opacity:1" fill="#c8fcf8" d="M 63.5,41.5 C 65.2884,40.3775 67.2884,40.2109 69.5,41C 68.6198,42.3561 68.2865,43.8561 68.5,45.5C 66.396,45.7989 64.396,45.4656 62.5,44.5C 63.1667,43.8333 63.8333,43.1667 64.5,42.5C 64.3764,41.8933 64.0431,41.56 63.5,41.5 Z"/></g>
<g><path style="opacity:1" fill="#f8fdfe" d="M 46.5,53.5 C 46.5,54.1667 46.5,54.8333 46.5,55.5C 43.6354,55.0548 41.1354,55.7215 39,57.5C 38.5789,53.7765 39.9122,50.7765 43,48.5C 43.2233,50.8808 44.39,52.5475 46.5,53.5 Z"/></g>
<g><path style="opacity:0.008" fill="#0e201c" d="M 78.5,51.5 C 79.8333,51.5 80.5,52.1667 80.5,53.5C 79.5,53.1667 78.8333,52.5 78.5,51.5 Z"/></g>
<g><path style="opacity:1" fill="#129970" d="M 50.5,48.5 C 52.2915,48.634 53.9582,48.3007 55.5,47.5C 55.369,48.2389 55.5357,48.9056 56,49.5C 57.3561,48.6198 58.8561,48.2865 60.5,48.5C 60.6399,50.1238 59.9733,51.2904 58.5,52C 60.6982,52.3729 62.8649,52.8729 65,53.5C 65.7648,53.4301 66.2648,53.0967 66.5,52.5C 66.8333,52.5 67.1667,52.5 67.5,52.5C 67.8333,52.5 68.1667,52.5 68.5,52.5C 67.3192,54.0672 65.6526,54.9005 63.5,55C 60.1832,55.4983 56.8499,55.665 53.5,55.5C 52.779,53.6182 51.779,53.2848 50.5,54.5C 49.0001,55.6252 47.6668,56.9586 46.5,58.5C 44.5,58.5 42.5,58.5 40.5,58.5C 42.8439,58.0603 44.8439,57.0603 46.5,55.5C 46.5,54.8333 46.5,54.1667 46.5,53.5C 46.5774,52.2502 47.244,51.4169 48.5,51C 47.1667,50 45.8333,49 44.5,48C 47.1169,48.2351 49.6169,49.0685 52,50.5C 52.8333,50.3333 53.6667,50.1667 54.5,50C 52.9419,49.79 51.6085,49.29 50.5,48.5 Z"/></g>
<g><path style="opacity:0.992" fill="#132b28" d="M 68.5,52.5 C 69.2389,52.369 69.9056,52.5357 70.5,53C 69.2899,54.0391 68.2899,55.2058 67.5,56.5C 65.5,56.8333 63.5,57.1667 61.5,57.5C 59.7116,56.3775 57.7116,56.2109 55.5,57C 56.3366,58.0113 56.67,59.1779 56.5,60.5C 56.6716,61.4916 56.3382,62.1583 55.5,62.5C 54.4937,62.0623 54.4937,61.3957 55.5,60.5C 54.032,59.2209 53.3653,57.5542 53.5,55.5C 56.8499,55.665 60.1832,55.4983 63.5,55C 65.6526,54.9005 67.3192,54.0672 68.5,52.5 Z"/></g>
<g><path style="opacity:1" fill="#223953" d="M 11.5,53.5 C 9.03136,54.3171 6.36469,54.8171 3.5,55C 8.54927,60.0377 14.2159,64.371 20.5,68C 18.5355,68.624 16.8689,68.124 15.5,66.5C 14.8165,66.8627 14.1499,67.1961 13.5,67.5C 7.46132,65.1178 3.46132,60.7845 1.5,54.5C 4.76829,53.513 8.10162,53.1796 11.5,53.5 Z"/></g>
<g><path style="opacity:1" fill="#26635a" d="M 61.5,57.5 C 60.3915,58.29 59.0581,58.79 57.5,59C 61.4631,60.1366 64.7964,59.3033 67.5,56.5C 68.609,56.5569 69.609,56.8902 70.5,57.5C 71.2389,57.369 71.9056,57.5357 72.5,58C 67.3611,59.9607 62.0277,60.794 56.5,60.5C 56.67,59.1779 56.3366,58.0113 55.5,57C 57.7116,56.2109 59.7116,56.3775 61.5,57.5 Z"/></g>
<g><path style="opacity:1" fill="#234638" d="M 87.5,53.5 C 87.0825,54.2216 86.4158,54.7216 85.5,55C 86.2444,56.8148 86.9111,58.6481 87.5,60.5C 86.4168,60.4606 85.4168,60.1272 84.5,59.5C 83.8243,60.6016 83.1577,61.6016 82.5,62.5C 82.5,60.1667 82.5,57.8333 82.5,55.5C 83.8195,54.0582 85.4862,53.3915 87.5,53.5 Z"/></g>
<g><path style="opacity:1" fill="#85ded6" d="M 89.5,53.5 C 91.4346,54.81 93.4346,56.1433 95.5,57.5C 96.4164,57.4573 97.0831,57.1239 97.5,56.5C 98.3382,56.8417 98.6716,57.5084 98.5,58.5C 94.5874,58.1868 90.9207,58.8534 87.5,60.5C 86.9111,58.6481 86.2444,56.8148 85.5,55C 86.4158,54.7216 87.0825,54.2216 87.5,53.5C 88.1667,52.1667 88.8333,52.1667 89.5,53.5 Z"/></g>
<g><path style="opacity:0.388" fill="#325b55" d="M 97.5,56.5 C 97.0831,57.1239 96.4164,57.4573 95.5,57.5C 93.4346,56.1433 91.4346,54.81 89.5,53.5C 92.8081,51.7162 94.4747,52.7162 94.5,56.5C 95.5,56.5 96.5,56.5 97.5,56.5 Z"/></g>
<g><path style="opacity:0.404" fill="#1e2625" d="M 97.5,56.5 C 97.8417,55.6618 98.5084,55.3284 99.5,55.5C 99.5,56.5 99.5,57.5 99.5,58.5C 99.1667,58.5 98.8333,58.5 98.5,58.5C 98.6716,57.5084 98.3382,56.8417 97.5,56.5 Z"/></g>
<g><path style="opacity:1" fill="#08b37e" d="M 67.5,56.5 C 64.7964,59.3033 61.4631,60.1366 57.5,59C 59.0581,58.79 60.3915,58.29 61.5,57.5C 63.5,57.1667 65.5,56.8333 67.5,56.5 Z"/></g>
<g><path style="opacity:1" fill="#526762" d="M 98.5,58.5 C 97.6661,59.7479 96.3328,60.4146 94.5,60.5C 91.9514,61.1374 89.6181,61.1374 87.5,60.5C 90.9207,58.8534 94.5874,58.1868 98.5,58.5 Z"/></g>
<g><path style="opacity:1" fill="#5caa91" d="M 35.5,67.5 C 35.5654,67.9382 35.3988,68.2716 35,68.5C 31.8962,65.7125 28.3962,65.0458 24.5,66.5C 24.1667,65.3333 23.8333,64.1667 23.5,63C 23.4823,60.5582 24.149,58.3915 25.5,56.5C 25.238,55.0222 25.5713,53.6888 26.5,52.5C 29.2522,57.6749 32.2522,62.6749 35.5,67.5 Z"/></g>
<g><path style="opacity:1" fill="#2a7d8f" d="M 36.5,54.5 C 36.6287,56.2161 36.962,57.8828 37.5,59.5C 37.5,60.1667 37.8333,60.5 38.5,60.5C 38.762,61.9778 38.4287,63.3112 37.5,64.5C 34.2876,62.6367 32.2876,59.97 31.5,56.5C 33.1667,55.8333 34.8333,55.1667 36.5,54.5 Z"/></g>
<g><path style="opacity:1" fill="#095535" d="M 40.5,58.5 C 42.5,58.5 44.5,58.5 46.5,58.5C 45.0552,60.0627 43.3885,61.396 41.5,62.5C 41.0269,61.0937 40.0269,60.427 38.5,60.5C 37.8333,60.5 37.5,60.1667 37.5,59.5C 38.791,59.7373 39.791,59.404 40.5,58.5 Z"/></g>
<g><path style="opacity:1" fill="#26575b" d="M 21.5,47.5 C 23.0898,47.6282 24.4231,48.2949 25.5,49.5C 24.5,50.8333 23.5,52.1667 22.5,53.5C 23.548,54.548 24.548,55.548 25.5,56.5C 24.149,58.3915 23.4823,60.5582 23.5,63C 23.8333,64.1667 24.1667,65.3333 24.5,66.5C 28.3962,65.0458 31.8962,65.7125 35,68.5C 35.3988,68.2716 35.5654,67.9382 35.5,67.5C 38.1528,72.1346 40.8195,76.8013 43.5,81.5C 40.0105,89.6327 35.3439,90.466 29.5,84C 30.056,83.6174 30.3893,83.1174 30.5,82.5C 31.9008,82.0291 33.2342,81.3624 34.5,80.5C 31.8929,79.6816 29.2263,79.1816 26.5,79C 28.699,77.4543 30.8657,75.9543 33,74.5C 34.8122,74.4934 36.3122,75.16 37.5,76.5C 37.8333,76.1667 38.1667,75.8333 38.5,75.5C 37.273,74.4096 36.4396,73.0762 36,71.5C 35.3292,70.7476 34.4959,70.4142 33.5,70.5C 32.1286,69.2132 30.2953,68.5465 28,68.5C 24.3618,68.1124 21.1951,69.1124 18.5,71.5C 17.2519,70.9598 16.0852,70.2931 15,69.5C 14.5357,70.0944 14.369,70.7611 14.5,71.5C 13.1667,70.8333 12.1667,69.8333 11.5,68.5C 12.4916,68.6716 13.1583,68.3382 13.5,67.5C 14.1499,67.1961 14.8165,66.8627 15.5,66.5C 16.8689,68.124 18.5355,68.624 20.5,68C 14.2159,64.371 8.54927,60.0377 3.5,55C 6.36469,54.8171 9.03136,54.3171 11.5,53.5C 13.8008,52.9396 16.1341,52.4396 18.5,52C 20.1412,50.871 21.1412,49.371 21.5,47.5 Z"/></g>
<g><path style="opacity:1" fill="#24d7af" d="M 50.5,54.5 C 51.2891,54.7828 51.9558,55.2828 52.5,56C 52.6445,57.9157 52.1445,59.749 51,61.5C 48.2535,63.4554 45.4202,65.1221 42.5,66.5C 41.5,66.5 40.5,66.5 39.5,66.5C 39.1568,64.5168 39.8235,63.1834 41.5,62.5C 43.3885,61.396 45.0552,60.0627 46.5,58.5C 47.6668,56.9586 49.0001,55.6252 50.5,54.5 Z"/></g>
<g><path style="opacity:1" fill="#43a195" d="M 55.5,60.5 C 54.4937,61.3957 54.4937,62.0623 55.5,62.5C 56.5739,64.2155 58.2406,65.2155 60.5,65.5C 62.198,64.3192 63.8647,64.3192 65.5,65.5C 61.4581,66.7531 57.1247,66.7531 52.5,65.5C 51.1266,65.6567 49.7932,65.49 48.5,65C 50.7343,63.2502 53.0676,61.7502 55.5,60.5 Z"/></g>
<g><path style="opacity:1" fill="#4fac98" d="M 33.5,70.5 C 30.3962,69.2248 27.3962,69.2248 24.5,70.5C 21.3558,73.7979 18.0225,74.1312 14.5,71.5C 14.369,70.7611 14.5357,70.0944 15,69.5C 16.0852,70.2931 17.2519,70.9598 18.5,71.5C 21.1951,69.1124 24.3618,68.1124 28,68.5C 30.2953,68.5465 32.1286,69.2132 33.5,70.5 Z"/></g>
<g><path style="opacity:0.608" fill="#2b5c52" d="M 24.5,70.5 C 27.3962,69.2248 30.3962,69.2248 33.5,70.5C 33.5,71.5 33.5,72.5 33.5,73.5C 31.8333,73.5 30.1667,73.5 28.5,73.5C 29.6085,72.71 30.9419,72.21 32.5,72C 30.0632,70.6253 27.3965,70.1253 24.5,70.5 Z"/></g>
<g><path style="opacity:1" fill="#79f6de" d="M 78.5,51.5 C 78.8333,52.5 79.5,53.1667 80.5,53.5C 81.5,53.8333 82.1667,54.5 82.5,55.5C 82.5,57.8333 82.5,60.1667 82.5,62.5C 82.5,63.1667 82.1667,63.5 81.5,63.5C 78.3223,66.0753 74.989,68.0753 71.5,69.5C 65.3853,71.0631 59.3853,70.3964 53.5,67.5C 53.1667,66.8333 52.8333,66.1667 52.5,65.5C 57.1247,66.7531 61.4581,66.7531 65.5,65.5C 63.8647,64.3192 62.198,64.3192 60.5,65.5C 58.2406,65.2155 56.5739,64.2155 55.5,62.5C 56.3382,62.1583 56.6716,61.4916 56.5,60.5C 62.0277,60.794 67.3611,59.9607 72.5,58C 71.9056,57.5357 71.2389,57.369 70.5,57.5C 72.3129,54.3528 74.9796,52.3528 78.5,51.5 Z"/></g>
<g><path style="opacity:1" fill="#cbfadc" d="M 79.5,56.5 C 80.5983,57.6009 80.765,58.9343 80,60.5C 76.5066,64.7074 72.3399,65.5408 67.5,63C 69.5767,62.8078 71.5767,62.3078 73.5,61.5C 75.7863,60.1813 77.7863,58.5146 79.5,56.5 Z"/></g>
<g><path style="opacity:0.412" fill="#294647" d="M 81.5,63.5 C 81.16,65.679 80.16,67.5123 78.5,69C 82.691,68.0309 83.3576,69.1976 80.5,72.5C 77.7109,70.9856 74.7109,69.9856 71.5,69.5C 74.989,68.0753 78.3223,66.0753 81.5,63.5 Z"/></g>
<g><path style="opacity:1" fill="#306965" d="M 50.5,54.5 C 51.779,53.2848 52.779,53.6182 53.5,55.5C 53.3653,57.5542 54.032,59.2209 55.5,60.5C 53.0676,61.7502 50.7343,63.2502 48.5,65C 49.7932,65.49 51.1266,65.6567 52.5,65.5C 52.8333,66.1667 53.1667,66.8333 53.5,67.5C 52.1266,67.3433 50.7932,67.51 49.5,68C 51.8175,69.9927 54.4842,71.1594 57.5,71.5C 57.8417,72.3382 58.5084,72.6716 59.5,72.5C 59.5,73.1667 59.5,73.8333 59.5,74.5C 59.8417,75.3382 60.5084,75.6716 61.5,75.5C 60.0011,76.494 58.3344,76.494 56.5,75.5C 54.6675,74.7515 53.0009,73.7515 51.5,72.5C 51.5,71.8333 51.1667,71.5 50.5,71.5C 47.7103,69.8354 45.0437,68.1687 42.5,66.5C 45.4202,65.1221 48.2535,63.4554 51,61.5C 52.1445,59.749 52.6445,57.9157 52.5,56C 51.9558,55.2828 51.2891,54.7828 50.5,54.5 Z"/></g>
<g><path style="opacity:1" fill="#99dbcb" d="M 53.5,67.5 C 59.3853,70.3964 65.3853,71.0631 71.5,69.5C 74.7109,69.9856 77.7109,70.9856 80.5,72.5C 81.1667,72.8333 81.8333,73.1667 82.5,73.5C 82.6716,74.4916 82.3382,75.1583 81.5,75.5C 79.901,75.7678 78.5676,75.4345 77.5,74.5C 74.5565,73.1732 71.5565,72.8399 68.5,73.5C 65.8774,71.7345 62.8774,71.0679 59.5,71.5C 58.8333,71.5 58.1667,71.5 57.5,71.5C 54.4842,71.1594 51.8175,69.9927 49.5,68C 50.7932,67.51 52.1266,67.3433 53.5,67.5 Z"/></g>
<g><path style="opacity:0.51" fill="#2b3936" d="M 77.5,74.5 C 74.8853,74.7913 72.3853,76.1247 70,78.5C 68.1886,77.5765 68.3553,76.7431 70.5,76C 69.6195,75.2917 68.9528,74.4584 68.5,73.5C 71.5565,72.8399 74.5565,73.1732 77.5,74.5 Z"/></g>
<g><path style="opacity:1" fill="#4fcec1" d="M 33.5,70.5 C 34.4959,70.4142 35.3292,70.7476 36,71.5C 36.4396,73.0762 37.273,74.4096 38.5,75.5C 38.1667,75.8333 37.8333,76.1667 37.5,76.5C 36.3122,75.16 34.8122,74.4934 33,74.5C 30.8657,75.9543 28.699,77.4543 26.5,79C 29.2263,79.1816 31.8929,79.6816 34.5,80.5C 33.2342,81.3624 31.9008,82.0291 30.5,82.5C 29.1667,82.8333 27.8333,83.1667 26.5,83.5C 26.7148,81.8212 26.0481,80.8212 24.5,80.5C 23.7375,79.7321 22.7375,79.2321 21.5,79C 22.4158,78.7216 23.0825,78.2216 23.5,77.5C 25.7071,76.8697 27.3738,75.5363 28.5,73.5C 30.1667,73.5 31.8333,73.5 33.5,73.5C 33.5,72.5 33.5,71.5 33.5,70.5 Z"/></g>
<g><path style="opacity:0.655" fill="#253634" d="M 59.5,71.5 C 62.8774,71.0679 65.8774,71.7345 68.5,73.5C 66.4559,74.0312 64.7893,75.1978 63.5,77C 61.5,77.6667 59.5,77.6667 57.5,77C 56.944,76.6174 56.6107,76.1174 56.5,75.5C 58.3344,76.494 60.0011,76.494 61.5,75.5C 64.1896,74.3446 64.5229,73.3446 62.5,72.5C 61.2613,72.9424 60.2613,73.6091 59.5,74.5C 59.5,73.8333 59.5,73.1667 59.5,72.5C 59.5,72.1667 59.5,71.8333 59.5,71.5 Z"/></g>
<g><path style="opacity:0.004" fill="#151716" d="M 82.5,73.5 C 83.7759,74.3864 83.7759,75.3864 82.5,76.5C 81.8933,76.3764 81.56,76.0431 81.5,75.5C 82.3382,75.1583 82.6716,74.4916 82.5,73.5 Z"/></g>
<g><path style="opacity:0.153" fill="#132321" d="M 23.5,77.5 C 23.0825,78.2216 22.4158,78.7216 21.5,79C 22.7375,79.2321 23.7375,79.7321 24.5,80.5C 23.1667,80.5 21.8333,80.5 20.5,80.5C 20.5,79.5 20.5,78.5 20.5,77.5C 21.5,77.5 22.5,77.5 23.5,77.5 Z"/></g>
<g><path style="opacity:0.733" fill="#112624" d="M 24.5,80.5 C 26.0481,80.8212 26.7148,81.8212 26.5,83.5C 25.5987,82.7095 24.9321,81.7095 24.5,80.5 Z"/></g>
<g><path style="opacity:1" fill="#3a958b" d="M 50.5,72.5 C 50.8333,72.5 51.1667,72.5 51.5,72.5C 48.7026,79.2982 44.7026,85.2982 39.5,90.5C 37.1667,90.5 34.8333,90.5 32.5,90.5C 29.8103,88.8065 27.8103,86.4732 26.5,83.5C 27.8333,83.1667 29.1667,82.8333 30.5,82.5C 30.3893,83.1174 30.056,83.6174 29.5,84C 35.3439,90.466 40.0105,89.6327 43.5,81.5C 46.0978,78.6019 48.4312,75.6019 50.5,72.5 Z"/></g>
</svg>
