<?xml version="1.0" encoding="UTF-8"?>
<!DOCTYPE svg PUBLIC "-//W3C//DTD SVG 1.1//EN" "http://www.w3.org/Graphics/SVG/1.1/DTD/svg11.dtd">
<svg xmlns="http://www.w3.org/2000/svg" version="1.1" width="100px" height="84px" style="shape-rendering:geometricPrecision; text-rendering:geometricPrecision; image-rendering:optimizeQuality; fill-rule:evenodd; clip-rule:evenodd" xmlns:xlink="http://www.w3.org/1999/xlink">
<g><path style="opacity:1" fill="#0d1015" d="M 37.5,-0.5 C 37.8333,-0.5 38.1667,-0.5 38.5,-0.5C 39.3627,1.42136 40.0293,3.42136 40.5,5.5C 38.7769,6.60527 37.7769,8.27194 37.5,10.5C 35.0576,10.3537 34.3909,11.187 35.5,13C 35,13.5 34.5,14 34,14.5C 33.2303,13.4019 32.397,13.4019 31.5,14.5C 31.7031,12.9557 32.3698,11.6223 33.5,10.5C 33.1667,10.1667 32.8333,9.83333 32.5,9.5C 30.7026,11.1311 29.5359,13.1311 29,15.5C 28.5357,14.9056 28.369,14.2389 28.5,13.5C 30.0272,7.75303 33.0272,3.08637 37.5,-0.5 Z"/></g>
<g><path style="opacity:0.969" fill="#29707d" d="M 34.5,-0.5 C 35.5,-0.5 36.5,-0.5 37.5,-0.5C 33.0272,3.08637 30.0272,7.75303 28.5,13.5C 28.1667,13.5 27.8333,13.5 27.5,13.5C 27.5,12.8333 27.5,12.1667 27.5,11.5C 28.7986,6.90367 31.1319,2.90367 34.5,-0.5 Z"/></g>
<g><path style="opacity:1" fill="#1f4666" d="M 25.5,10.5 C 24.6043,9.49367 23.9377,9.49367 23.5,10.5C 22.4693,9.64497 21.3026,8.9783 20,8.5C 18.5936,9.41382 17.0936,10.0805 15.5,10.5C 14.8333,10.5 14.1667,10.5 13.5,10.5C 16.367,6.4253 20.0337,5.59197 24.5,8C 25.2524,8.67076 25.5858,9.5041 25.5,10.5 Z"/></g>
<g><path style="opacity:0.855" fill="#314361" d="M 40.5,5.5 C 40.7845,7.41467 40.4511,9.08134 39.5,10.5C 38.8386,11.7175 38.1719,13.0508 37.5,14.5C 36.3744,13.1916 36.3744,11.8583 37.5,10.5C 37.7769,8.27194 38.7769,6.60527 40.5,5.5 Z"/></g>
<g><path style="opacity:1" fill="#0c0e13" d="M 23.5,10.5 C 24.7729,12.7128 25.7729,15.0462 26.5,17.5C 27.4938,20.8969 27.1604,24.2302 25.5,27.5C 24.8333,31.8333 24.1667,36.1667 23.5,40.5C 23.7787,35.4053 23.4454,30.4053 22.5,25.5C 23.5063,25.0623 23.5063,24.3957 22.5,23.5C 22.7852,21.712 22.4519,20.0453 21.5,18.5C 18.7847,16.2666 15.7847,14.5999 12.5,13.5C 13.6935,12.7281 14.6935,11.7281 15.5,10.5C 17.0936,10.0805 18.5936,9.41382 20,8.5C 21.3026,8.9783 22.4693,9.64497 23.5,10.5 Z"/></g>
<g><path style="opacity:1" fill="#156eb0" d="M 25.5,10.5 C 26.1667,10.8333 26.8333,11.1667 27.5,11.5C 27.5,12.1667 27.5,12.8333 27.5,13.5C 27.7678,15.099 27.4345,16.4324 26.5,17.5C 25.7729,15.0462 24.7729,12.7128 23.5,10.5C 23.9377,9.49367 24.6043,9.49367 25.5,10.5 Z"/></g>
<g><path style="opacity:0.087" fill="#121718" d="M 58.5,17.5 C 57.71,16.3915 57.21,15.0581 57,13.5C 56.7216,14.4158 56.2216,15.0825 55.5,15.5C 55.5,14.5 55.5,13.5 55.5,12.5C 56.5,12.5 57.5,12.5 58.5,12.5C 58.5,14.1667 58.5,15.8333 58.5,17.5 Z"/></g>
<g><path style="opacity:1" fill="#101218" d="M 37.5,10.5 C 36.3744,11.8583 36.3744,13.1916 37.5,14.5C 38.1719,13.0508 38.8386,11.7175 39.5,10.5C 39.5,13.1667 39.5,15.8333 39.5,18.5C 38.7321,17.7375 38.2321,16.7375 38,15.5C 37.5065,17.1341 37.3398,18.8008 37.5,20.5C 40.3198,20.2475 42.9865,20.7475 45.5,22C 44.2625,22.2321 43.2625,22.7321 42.5,23.5C 42.1667,23.5 41.8333,23.5 41.5,23.5C 39.5853,23.2155 37.9187,23.5489 36.5,24.5C 34.8212,24.2852 33.8212,24.9519 33.5,26.5C 32.1667,26.5 31.5,27.1667 31.5,28.5C 31.1667,28.5 30.8333,28.5 30.5,28.5C 30.5654,28.0618 30.3988,27.7284 30,27.5C 29.7216,28.4158 29.2216,29.0825 28.5,29.5C 29.7452,24.5232 30.7452,19.5232 31.5,14.5C 32.397,13.4019 33.2303,13.4019 34,14.5C 34.5,14 35,13.5 35.5,13C 34.3909,11.187 35.0576,10.3537 37.5,10.5 Z"/></g>
<g><path style="opacity:1" fill="#201d34" d="M 12.5,13.5 C 15.7847,14.5999 18.7847,16.2666 21.5,18.5C 22.4519,20.0453 22.7852,21.712 22.5,23.5C 20.8333,23.5 19.1667,23.5 17.5,23.5C 17.5774,22.2502 18.244,21.4169 19.5,21C 17.3063,18.8063 15.1396,16.6396 13,14.5C 11.7874,16.9252 10.6207,19.2585 9.5,21.5C 9.3455,18.284 10.3455,15.6174 12.5,13.5 Z"/></g>
<g><path style="opacity:1" fill="#2c2d4c" d="M 17.5,23.5 C 13.0546,23.9316 8.72123,24.9316 4.5,26.5C 5.83333,24.5 7.5,22.8333 9.5,21.5C 10.6207,19.2585 11.7874,16.9252 13,14.5C 15.1396,16.6396 17.3063,18.8063 19.5,21C 18.244,21.4169 17.5774,22.2502 17.5,23.5 Z"/></g>
<g><path style="opacity:0.078" fill="#071111" d="M 77.5,14.5 C 78.9953,14.4148 79.9953,15.0815 80.5,16.5C 78.2573,17.4742 75.924,17.8076 73.5,17.5C 74.9516,16.6981 76.6183,16.1981 78.5,16C 77.944,15.6174 77.6107,15.1174 77.5,14.5 Z"/></g>
<g><path style="opacity:1" fill="#333956" d="M 31.5,14.5 C 30.7452,19.5232 29.7452,24.5232 28.5,29.5C 27.8333,29.5 27.5,29.8333 27.5,30.5C 26.8333,29.5 26.1667,28.5 25.5,27.5C 27.1604,24.2302 27.4938,20.8969 26.5,17.5C 27.4345,16.4324 27.7678,15.099 27.5,13.5C 27.8333,13.5 28.1667,13.5 28.5,13.5C 28.369,14.2389 28.5357,14.9056 29,15.5C 29.5359,13.1311 30.7026,11.1311 32.5,9.5C 32.8333,9.83333 33.1667,10.1667 33.5,10.5C 32.3698,11.6223 31.7031,12.9557 31.5,14.5 Z"/></g>
<g><path style="opacity:1" fill="#29b998" d="M 66.5,16.5 C 67.8734,16.3433 69.2068,16.51 70.5,17C 69.2625,17.2321 68.2625,17.7321 67.5,18.5C 65.1012,21.1343 62.1012,22.3009 58.5,22C 61.0703,19.9131 63.737,18.0798 66.5,16.5 Z"/></g>
<g><path style="opacity:1" fill="#6b786e" d="M 39.5,18.5 C 40.1499,18.1961 40.8165,17.8627 41.5,17.5C 44.6596,19.0267 47.993,19.6933 51.5,19.5C 49.9581,20.1635 48.2914,20.8302 46.5,21.5C 46.6236,22.1067 46.9569,22.44 47.5,22.5C 48.1667,23.1667 48.8333,23.8333 49.5,24.5C 48.5178,25.1408 47.5178,25.8075 46.5,26.5C 45.4305,25.0905 44.0972,24.0905 42.5,23.5C 43.2625,22.7321 44.2625,22.2321 45.5,22C 42.9865,20.7475 40.3198,20.2475 37.5,20.5C 37.3398,18.8008 37.5065,17.1341 38,15.5C 38.2321,16.7375 38.7321,17.7375 39.5,18.5 Z"/></g>
<g><path style="opacity:1" fill="#26706b" d="M 77.5,14.5 C 77.6107,15.1174 77.944,15.6174 78.5,16C 76.6183,16.1981 74.9516,16.6981 73.5,17.5C 77.3525,18.1663 81.3525,18.833 85.5,19.5C 83.7086,20.1698 82.0419,20.8365 80.5,21.5C 79.8333,21.5 79.5,21.8333 79.5,22.5C 75.9769,22.8823 72.6436,22.8823 69.5,22.5C 66.8749,21.5595 66.8749,20.3928 69.5,19C 68.9056,18.5357 68.2389,18.369 67.5,18.5C 68.2625,17.7321 69.2625,17.2321 70.5,17C 69.2068,16.51 67.8734,16.3433 66.5,16.5C 69.8448,14.783 73.5115,14.1164 77.5,14.5 Z"/></g>
<g><path style="opacity:1" fill="#4daeaf" d="M 53.5,18.5 C 54.2389,18.369 54.9056,18.5357 55.5,19C 53.9069,19.9487 52.5736,21.1154 51.5,22.5C 50.1667,22.5 48.8333,22.5 47.5,22.5C 46.9569,22.44 46.6236,22.1067 46.5,21.5C 48.2914,20.8302 49.9581,20.1635 51.5,19.5C 51.8417,18.6618 52.5084,18.3284 53.5,18.5 Z"/></g>
<g><path style="opacity:1" fill="#2e6f8c" d="M 13.5,10.5 C 14.1667,10.5 14.8333,10.5 15.5,10.5C 14.6935,11.7281 13.6935,12.7281 12.5,13.5C 10.3455,15.6174 9.3455,18.284 9.5,21.5C 7.5,22.8333 5.83333,24.5 4.5,26.5C 3.5,27.8333 2.5,29.1667 1.5,30.5C 0.833333,30.5 0.166667,30.5 -0.5,30.5C -0.5,30.1667 -0.5,29.8333 -0.5,29.5C 1.40809,26.7201 3.57476,24.0534 6,21.5C 7.2257,18.0482 8.7257,14.7148 10.5,11.5C 11.325,10.6143 12.325,10.281 13.5,10.5 Z"/></g>
<g><path style="opacity:1" fill="#2f7676" d="M 66.5,16.5 C 63.737,18.0798 61.0703,19.9131 58.5,22C 62.1012,22.3009 65.1012,21.1343 67.5,18.5C 68.2389,18.369 68.9056,18.5357 69.5,19C 66.8749,20.3928 66.8749,21.5595 69.5,22.5C 66.9026,22.6432 64.5692,23.4766 62.5,25C 67.8807,26.4953 73.214,27.662 78.5,28.5C 76.5,28.8333 74.5,29.1667 72.5,29.5C 72.1667,29.5 71.8333,29.5 71.5,29.5C 64.8019,27.1618 58.1352,24.8284 51.5,22.5C 52.5736,21.1154 53.9069,19.9487 55.5,19C 54.9056,18.5357 54.2389,18.369 53.5,18.5C 54.1667,17.5 54.8333,16.5 55.5,15.5C 56.2216,15.0825 56.7216,14.4158 57,13.5C 57.21,15.0581 57.71,16.3915 58.5,17.5C 59.832,15.8679 61.1653,14.2012 62.5,12.5C 63.4287,13.6888 63.762,15.0222 63.5,16.5C 64.5,16.5 65.5,16.5 66.5,16.5 Z"/></g>
<g><path style="opacity:1" fill="#2aaa8f" d="M 79.5,22.5 C 79.8333,22.5 80.1667,22.5 80.5,22.5C 83.8695,23.3812 87.2028,24.3812 90.5,25.5C 88.369,26.3138 86.0356,26.8138 83.5,27C 82.944,27.3826 82.6107,27.8826 82.5,28.5C 81.1667,28.5 79.8333,28.5 78.5,28.5C 73.214,27.662 67.8807,26.4953 62.5,25C 64.5692,23.4766 66.9026,22.6432 69.5,22.5C 72.6436,22.8823 75.9769,22.8823 79.5,22.5 Z"/></g>
<g><path style="opacity:0.22" fill="#102829" d="M 80.5,22.5 C 80.5,22.1667 80.5,21.8333 80.5,21.5C 83.2469,21.1866 85.9135,21.52 88.5,22.5C 89.6119,23.2652 90.2786,24.2652 90.5,25.5C 87.2028,24.3812 83.8695,23.3812 80.5,22.5 Z"/></g>
<g><path style="opacity:1" fill="#0f1016" d="M 17.5,23.5 C 19.1667,23.5 20.8333,23.5 22.5,23.5C 23.5063,24.3957 23.5063,25.0623 22.5,25.5C 19.9407,25.1984 17.6074,25.5318 15.5,26.5C 14.5,26.5 13.5,26.5 12.5,26.5C 12.6495,27.552 12.4828,28.552 12,29.5C 11.4806,28.4844 10.6473,27.8178 9.5,27.5C 7.36104,28.9771 5.02771,29.9771 2.5,30.5C 2.73731,31.791 2.40397,32.791 1.5,33.5C 1.5,32.5 1.5,31.5 1.5,30.5C 2.5,29.1667 3.5,27.8333 4.5,26.5C 8.72123,24.9316 13.0546,23.9316 17.5,23.5 Z"/></g>
<g><path style="opacity:1" fill="#d2dccf" d="M 41.5,23.5 C 41.5,24.1667 41.5,24.8333 41.5,25.5C 39.5853,25.7845 37.9187,25.4511 36.5,24.5C 37.9187,23.5489 39.5853,23.2155 41.5,23.5 Z"/></g>
<g><path style="opacity:1" fill="#52ebb5" d="M 41.5,23.5 C 41.8333,23.5 42.1667,23.5 42.5,23.5C 44.0972,24.0905 45.4305,25.0905 46.5,26.5C 47.5178,25.8075 48.5178,25.1408 49.5,24.5C 49.5,25.5 49.5,26.5 49.5,27.5C 48.3509,27.7911 47.6842,28.6244 47.5,30C 47.3866,31.6991 48.0532,32.8658 49.5,33.5C 49.5,34.1667 49.5,34.8333 49.5,35.5C 48.4489,36.2223 47.7822,37.2223 47.5,38.5C 47.1667,38.5 46.8333,38.5 46.5,38.5C 44.5168,38.8432 43.1834,38.1765 42.5,36.5C 46.5998,32.5288 46.2665,28.8621 41.5,25.5C 41.5,24.8333 41.5,24.1667 41.5,23.5 Z"/></g>
<g><path style="opacity:1" fill="#1f1e35" d="M 15.5,26.5 C 17.6074,25.5318 19.9407,25.1984 22.5,25.5C 23.4454,30.4053 23.7787,35.4053 23.5,40.5C 22.6715,41.3324 21.8382,40.999 21,39.5C 21.6119,42.1936 21.4452,44.8603 20.5,47.5C 19.6618,47.1583 19.3284,46.4916 19.5,45.5C 19.5,44.8333 19.5,44.1667 19.5,43.5C 19.7236,39.7956 19.8903,36.129 20,32.5C 19,33.8333 18,33.8333 17,32.5C 17.3052,34.4432 17.3052,36.4432 17,38.5C 16.2828,37.9558 15.7828,37.2891 15.5,36.5C 14.7703,34.955 13.437,34.1216 11.5,34C 14.2774,32.3922 16.6107,30.2255 18.5,27.5C 17.675,26.6143 16.675,26.281 15.5,26.5 Z"/></g>
<g><path style="opacity:1" fill="#1b343a" d="M 47.5,22.5 C 48.8333,22.5 50.1667,22.5 51.5,22.5C 58.1352,24.8284 64.8019,27.1618 71.5,29.5C 71.5,30.1667 71.8333,30.5 72.5,30.5C 78.3465,31.1666 84.3465,31.8332 90.5,32.5C 90.1373,33.1835 89.8039,33.8501 89.5,34.5C 86.4079,33.664 83.2413,32.9973 80,32.5C 78.1667,32.8333 76.3333,33.1667 74.5,33.5C 74.6236,34.1067 74.9569,34.44 75.5,34.5C 76.7866,38.2684 76.7866,41.9351 75.5,45.5C 75.8158,42.0217 75.3158,38.6883 74,35.5C 70.6628,33.6415 67.4961,31.6415 64.5,29.5C 60.9397,28.0212 57.273,26.6879 53.5,25.5C 51.0239,25.2326 50.3572,25.8993 51.5,27.5C 50.6618,27.8417 50.3284,28.5084 50.5,29.5C 49.6618,29.1583 49.3284,28.4916 49.5,27.5C 49.5,26.5 49.5,25.5 49.5,24.5C 48.8333,23.8333 48.1667,23.1667 47.5,22.5 Z"/></g>
<g><path style="opacity:0.082" fill="#101b19" d="M 90.5,25.5 C 91.2891,25.7828 91.9558,26.2828 92.5,27C 89.1727,27.6103 85.8394,28.1103 82.5,28.5C 82.6107,27.8826 82.944,27.3826 83.5,27C 86.0356,26.8138 88.369,26.3138 90.5,25.5 Z"/></g>
<g><path style="opacity:1" fill="#e9fcfb" d="M 35.5,27.5 C 36.5,27.5 37.5,27.5 38.5,27.5C 40.2432,29.1261 40.7432,31.1261 40,33.5C 38.951,35.1066 37.451,35.7733 35.5,35.5C 35.1667,35.5 34.8333,35.5 34.5,35.5C 34.1936,32.6146 34.5269,29.9479 35.5,27.5 Z"/></g>
<g><path style="opacity:1" fill="#244a61" d="M 36.5,24.5 C 37.9187,25.4511 39.5853,25.7845 41.5,25.5C 46.2665,28.8621 46.5998,32.5288 42.5,36.5C 40.6208,37.3414 38.6208,37.6747 36.5,37.5C 35.1667,37.5 34.5,36.8333 34.5,35.5C 34.8333,35.5 35.1667,35.5 35.5,35.5C 41.0112,37.4806 43.5112,35.4806 43,29.5C 41.8904,27.9632 40.3904,27.2965 38.5,27.5C 37.5,27.5 36.5,27.5 35.5,27.5C 35.5912,25.3023 34.9245,24.9689 33.5,26.5C 33.8212,24.9519 34.8212,24.2852 36.5,24.5 Z"/></g>
<g><path style="opacity:1" fill="#18151d" d="M 51.5,27.5 C 54.8306,27.0181 57.4973,28.0181 59.5,30.5C 58.8166,32.1765 57.4832,32.8432 55.5,32.5C 53.5659,31.8897 51.8993,30.8897 50.5,29.5C 50.3284,28.5084 50.6618,27.8417 51.5,27.5 Z"/></g>
<g><path style="opacity:1" fill="#45b78e" d="M 64.5,29.5 C 63.4937,29.9377 63.4937,30.6043 64.5,31.5C 62.8828,30.962 61.2161,30.6287 59.5,30.5C 57.4973,28.0181 54.8306,27.0181 51.5,27.5C 50.3572,25.8993 51.0239,25.2326 53.5,25.5C 57.273,26.6879 60.9397,28.0212 64.5,29.5 Z"/></g>
<g><path style="opacity:0.903" fill="#163531" d="M 78.5,28.5 C 79.8333,28.5 81.1667,28.5 82.5,28.5C 79.4557,30.0114 76.1224,30.678 72.5,30.5C 72.5,30.1667 72.5,29.8333 72.5,29.5C 74.5,29.1667 76.5,28.8333 78.5,28.5 Z"/></g>
<g><path style="opacity:1" fill="#353953" d="M 15.5,26.5 C 16.675,26.281 17.675,26.6143 18.5,27.5C 16.6107,30.2255 14.2774,32.3922 11.5,34C 13.437,34.1216 14.7703,34.955 15.5,36.5C 9.83444,35.1564 7.16778,37.4897 7.5,43.5C 6.69808,42.0484 6.19808,40.3817 6,38.5C 5.95042,40.744 5.11709,42.4107 3.5,43.5C 3.21223,40.0611 2.54556,36.7278 1.5,33.5C 2.40397,32.791 2.73731,31.791 2.5,30.5C 5.02771,29.9771 7.36104,28.9771 9.5,27.5C 10.6473,27.8178 11.4806,28.4844 12,29.5C 12.4828,28.552 12.6495,27.552 12.5,26.5C 13.5,26.5 14.5,26.5 15.5,26.5 Z"/></g>
<g><path style="opacity:1" fill="#297e7b" d="M 49.5,27.5 C 49.3284,28.4916 49.6618,29.1583 50.5,29.5C 51.8993,30.8897 53.5659,31.8897 55.5,32.5C 54.791,33.404 53.791,33.7373 52.5,33.5C 51.5,33.5 50.5,33.5 49.5,33.5C 48.0532,32.8658 47.3866,31.6991 47.5,30C 47.6842,28.6244 48.3509,27.7911 49.5,27.5 Z"/></g>
<g><path style="opacity:1" fill="#333b55" d="M 25.5,27.5 C 26.1667,28.5 26.8333,29.5 27.5,30.5C 27.3336,38.1739 27.5003,45.8406 28,53.5C 29.2276,56.5984 30.3943,59.5984 31.5,62.5C 31.7135,64.1439 31.3802,65.6439 30.5,67C 33.3974,68.7155 34.7307,71.2155 34.5,74.5C 34.5654,74.9382 34.3988,75.2716 34,75.5C 31.932,73.6038 30.0987,71.6038 28.5,69.5C 28.3404,67.847 27.6737,66.5137 26.5,65.5C 27.8501,62.2673 27.5167,59.2673 25.5,56.5C 25.5,55.8333 25.5,55.1667 25.5,54.5C 26.139,45.6397 26.139,36.6397 25.5,27.5 Z"/></g>
<g><path style="opacity:1" fill="#a7c0b5" d="M 59.5,30.5 C 61.2161,30.6287 62.8828,30.962 64.5,31.5C 65.1098,32.391 65.4431,33.391 65.5,34.5C 63.4537,35.9653 61.6204,35.632 60,33.5C 59.5357,34.0944 59.369,34.7611 59.5,35.5C 56.9902,35.0733 54.6568,34.4067 52.5,33.5C 53.791,33.7373 54.791,33.404 55.5,32.5C 57.4832,32.8432 58.8166,32.1765 59.5,30.5 Z"/></g>
<g><path style="opacity:1" fill="#3ad2d6" d="M 38.5,27.5 C 40.3904,27.2965 41.8904,27.9632 43,29.5C 43.5112,35.4806 41.0112,37.4806 35.5,35.5C 37.451,35.7733 38.951,35.1066 40,33.5C 40.7432,31.1261 40.2432,29.1261 38.5,27.5 Z"/></g>
<g><path style="opacity:1" fill="#287b73" d="M 89.5,34.5 C 90.552,34.3505 91.552,34.5172 92.5,35C 93.2225,36.7505 94.2225,38.2505 95.5,39.5C 96.2899,40.7942 97.2899,41.9609 98.5,43C 95.8958,43.3903 93.5625,44.2237 91.5,45.5C 91.1583,46.3382 90.4916,46.6716 89.5,46.5C 89.1667,46.5 88.8333,46.5 88.5,46.5C 88.1961,45.8501 87.8627,45.1835 87.5,44.5C 89.5,43.8333 91.5,43.1667 93.5,42.5C 92.9851,40.7749 92.3184,39.1083 91.5,37.5C 88.1183,36.7065 84.7849,35.7065 81.5,34.5C 79.9704,34.6399 78.9704,35.3065 78.5,36.5C 77.7777,35.4489 76.7777,34.7822 75.5,34.5C 74.9569,34.44 74.6236,34.1067 74.5,33.5C 76.3333,33.1667 78.1667,32.8333 80,32.5C 83.2413,32.9973 86.4079,33.664 89.5,34.5 Z"/></g>
<g><path style="opacity:1" fill="#111118" d="M 30.5,28.5 C 30.5,35.5 30.5,42.5 30.5,49.5C 30.5,49.8333 30.5,50.1667 30.5,50.5C 30.0197,55.0168 32.0197,57.3502 36.5,57.5C 36.5,57.8333 36.5,58.1667 36.5,58.5C 35.7784,58.9175 35.2784,59.5842 35,60.5C 33.9887,59.6634 32.8221,59.33 31.5,59.5C 31.5,60.5 31.5,61.5 31.5,62.5C 30.3943,59.5984 29.2276,56.5984 28,53.5C 27.5003,45.8406 27.3336,38.1739 27.5,30.5C 27.5,29.8333 27.8333,29.5 28.5,29.5C 29.2216,29.0825 29.7216,28.4158 30,27.5C 30.3988,27.7284 30.5654,28.0618 30.5,28.5 Z"/></g>
<g><path style="opacity:1" fill="#1f6258" d="M 30.5,28.5 C 30.8333,28.5 31.1667,28.5 31.5,28.5C 31.5,35.1667 31.5,41.8333 31.5,48.5C 32.5,48.5 33.5,48.5 34.5,48.5C 34.5,48.8333 34.5,49.1667 34.5,49.5C 33.1667,49.5 31.8333,49.5 30.5,49.5C 30.5,42.5 30.5,35.5 30.5,28.5 Z"/></g>
<g><path style="opacity:1" fill="#2eaa90" d="M 88.5,46.5 C 85.1501,46.665 81.8168,46.4983 78.5,46C 79.8184,42.7312 79.8184,39.5645 78.5,36.5C 78.9704,35.3065 79.9704,34.6399 81.5,34.5C 84.7849,35.7065 88.1183,36.7065 91.5,37.5C 92.3184,39.1083 92.9851,40.7749 93.5,42.5C 91.5,43.1667 89.5,43.8333 87.5,44.5C 87.8627,45.1835 88.1961,45.8501 88.5,46.5 Z"/></g>
<g><path style="opacity:1" fill="#84bd9b" d="M 65.5,34.5 C 67.4553,34.7986 68.7886,35.7986 69.5,37.5C 67.965,36.6457 66.6316,36.6457 65.5,37.5C 64.4168,37.4606 63.4168,37.1272 62.5,36.5C 61.6143,37.325 61.281,38.325 61.5,39.5C 62.8333,39.5 64.1667,39.5 65.5,39.5C 67.8968,45.0278 66.5635,49.3612 61.5,52.5C 60.8333,51.1667 60.1667,49.8333 59.5,48.5C 60.9516,47.6981 62.6183,47.1981 64.5,47C 62.8659,46.5065 61.1992,46.3398 59.5,46.5C 59.5,45.8333 59.5,45.1667 59.5,44.5C 59.5,43.5 59.5,42.5 59.5,41.5C 59.5,40.8333 59.5,40.1667 59.5,39.5C 59.5,38.5 59.5,37.5 59.5,36.5C 59.5,36.1667 59.5,35.8333 59.5,35.5C 59.369,34.7611 59.5357,34.0944 60,33.5C 61.6204,35.632 63.4537,35.9653 65.5,34.5 Z"/></g>
<g><path style="opacity:1" fill="#f6fee5" d="M 65.5,37.5 C 65.5,38.1667 65.5,38.8333 65.5,39.5C 64.1667,39.5 62.8333,39.5 61.5,39.5C 61.281,38.325 61.6143,37.325 62.5,36.5C 63.4168,37.1272 64.4168,37.4606 65.5,37.5 Z"/></g>
<g><path style="opacity:1" fill="#cbfdc9" d="M 70.5,45.5 C 70.1667,43.5 69.8333,41.5 69.5,39.5C 71.2708,34.0458 72.2708,34.3791 72.5,40.5C 72.4439,42.6397 71.7773,44.3064 70.5,45.5 Z"/></g>
<g><path style="opacity:1" fill="#60b9a5" d="M 42.5,36.5 C 43.1834,38.1765 44.5168,38.8432 46.5,38.5C 45.2825,39.1614 43.9492,39.8281 42.5,40.5C 42.8627,41.1835 43.1961,41.8501 43.5,42.5C 42.8333,42.5 42.1667,42.5 41.5,42.5C 41.5,41.5 41.5,40.5 41.5,39.5C 39.302,39.8799 37.6354,39.2132 36.5,37.5C 38.6208,37.6747 40.6208,37.3414 42.5,36.5 Z"/></g>
<g><path style="opacity:1" fill="#f1fedd" d="M 59.5,36.5 C 59.5,37.5 59.5,38.5 59.5,39.5C 57.712,39.7852 56.0453,39.4519 54.5,38.5C 55.6685,36.7826 57.3352,36.1159 59.5,36.5 Z"/></g>
<g><path style="opacity:1" fill="#35e3b4" d="M 35.5,27.5 C 34.5269,29.9479 34.1936,32.6146 34.5,35.5C 34.5,36.8333 35.1667,37.5 36.5,37.5C 37.6354,39.2132 39.302,39.8799 41.5,39.5C 41.5,40.5 41.5,41.5 41.5,42.5C 37.9983,42.0764 35.665,43.4098 34.5,46.5C 34.5,47.1667 34.5,47.8333 34.5,48.5C 33.5,48.5 32.5,48.5 31.5,48.5C 31.5,41.8333 31.5,35.1667 31.5,28.5C 31.5,27.1667 32.1667,26.5 33.5,26.5C 34.9245,24.9689 35.5912,25.3023 35.5,27.5 Z"/></g>
<g><path style="opacity:1" fill="#37887f" d="M 49.5,35.5 C 50.4745,36.635 51.6412,37.635 53,38.5C 52.5031,40.1984 52.6698,41.8651 53.5,43.5C 51.3635,44.7928 49.3635,44.7928 47.5,43.5C 48.675,43.719 49.675,43.3857 50.5,42.5C 49.1667,41.5 49.1667,40.5 50.5,39.5C 49.675,38.6143 48.675,38.281 47.5,38.5C 47.7822,37.2223 48.4489,36.2223 49.5,35.5 Z"/></g>
<g><path style="opacity:1" fill="#d2e3e4" d="M 19.5,43.5 C 17.665,42.8777 16.4983,41.5444 16,39.5C 15.3076,40.0253 14.8076,40.6919 14.5,41.5C 15.2458,42.7362 15.5792,44.0695 15.5,45.5C 15.189,46.4778 14.5223,47.1445 13.5,47.5C 10.8188,47.0676 8.81882,45.7343 7.5,43.5C 7.16778,37.4897 9.83444,35.1564 15.5,36.5C 15.7828,37.2891 16.2828,37.9558 17,38.5C 17.3052,36.4432 17.3052,34.4432 17,32.5C 18,33.8333 19,33.8333 20,32.5C 19.8903,36.129 19.7236,39.7956 19.5,43.5 Z"/></g>
<g><path style="opacity:1" fill="#30184c" d="M 11.5,37.5 C 13.337,37.6395 13.6704,38.3061 12.5,39.5C 11.7025,39.0431 11.3691,38.3764 11.5,37.5 Z"/></g>
<g><path style="opacity:1" fill="#151c25" d="M 46.5,38.5 C 46.8333,38.5 47.1667,38.5 47.5,38.5C 48.675,38.281 49.675,38.6143 50.5,39.5C 49.1667,40.5 49.1667,41.5 50.5,42.5C 49.675,43.3857 48.675,43.719 47.5,43.5C 46.2921,42.7659 44.9587,42.4326 43.5,42.5C 43.1961,41.8501 42.8627,41.1835 42.5,40.5C 43.9492,39.8281 45.2825,39.1614 46.5,38.5 Z"/></g>
<g><path style="opacity:1" fill="#9696b3" d="M 19.5,43.5 C 19.5,44.1667 19.5,44.8333 19.5,45.5C 18.8333,46.1667 18.1667,46.8333 17.5,47.5C 17.8693,45.0065 17.2027,44.3398 15.5,45.5C 15.5792,44.0695 15.2458,42.7362 14.5,41.5C 14.8076,40.6919 15.3076,40.0253 16,39.5C 16.4983,41.5444 17.665,42.8777 19.5,43.5 Z"/></g>
<g><path style="opacity:1" fill="#252346" d="M 11.5,42.5 C 13.337,42.6395 13.6704,43.3061 12.5,44.5C 11.7025,44.0431 11.3691,43.3764 11.5,42.5 Z"/></g>
<g><path style="opacity:1" fill="#faffe4" d="M 59.5,41.5 C 59.5,42.5 59.5,43.5 59.5,44.5C 57.8333,44.5 56.1667,44.5 54.5,44.5C 54.5,43.5 54.5,42.5 54.5,41.5C 56.1667,41.5 57.8333,41.5 59.5,41.5 Z"/></g>
<g><path style="opacity:1" fill="#20747f" d="M 41.5,42.5 C 43.6288,45.0955 44.9622,48.0955 45.5,51.5C 45.1667,51.5 44.8333,51.5 44.5,51.5C 43.8666,48.8664 42.1999,47.1998 39.5,46.5C 37.9504,45.2801 36.2837,45.2801 34.5,46.5C 35.665,43.4098 37.9983,42.0764 41.5,42.5 Z"/></g>
<g><path style="opacity:1" fill="#4ae3ac" d="M 64.5,29.5 C 67.4961,31.6415 70.6628,33.6415 74,35.5C 75.3158,38.6883 75.8158,42.0217 75.5,45.5C 74.8333,45.8333 74.1667,46.1667 73.5,46.5C 72.209,46.7373 71.209,46.404 70.5,45.5C 71.7773,44.3064 72.4439,42.6397 72.5,40.5C 72.2708,34.3791 71.2708,34.0458 69.5,39.5C 69.5,38.8333 69.5,38.1667 69.5,37.5C 68.7886,35.7986 67.4553,34.7986 65.5,34.5C 65.4431,33.391 65.1098,32.391 64.5,31.5C 63.4937,30.6043 63.4937,29.9377 64.5,29.5 Z"/></g>
<g><path style="opacity:1" fill="#287570" d="M 75.5,34.5 C 76.7777,34.7822 77.7777,35.4489 78.5,36.5C 79.8184,39.5645 79.8184,42.7312 78.5,46C 81.8168,46.4983 85.1501,46.665 88.5,46.5C 88.8333,46.5 89.1667,46.5 89.5,46.5C 91.129,48.1959 90.7957,49.1959 88.5,49.5C 83.4889,49.6659 78.4889,49.4993 73.5,49C 74.8228,48.1841 75.4894,47.0174 75.5,45.5C 76.7866,41.9351 76.7866,38.2684 75.5,34.5 Z"/></g>
<g><path style="opacity:0.686" fill="#153433" d="M 95.5,39.5 C 97.0618,39.7329 98.3951,40.3995 99.5,41.5C 99.5,42.5 99.5,43.5 99.5,44.5C 96.8333,44.8333 94.1667,45.1667 91.5,45.5C 93.5625,44.2237 95.8958,43.3903 98.5,43C 97.2899,41.9609 96.2899,40.7942 95.5,39.5 Z"/></g>
<g><path style="opacity:1" fill="#2e2f49" d="M 7.5,43.5 C 8.81882,45.7343 10.8188,47.0676 13.5,47.5C 14.5223,47.1445 15.189,46.4778 15.5,45.5C 17.2027,44.3398 17.8693,45.0065 17.5,47.5C 15.9893,49.8375 16.3227,50.5042 18.5,49.5C 18.4226,50.7498 17.756,51.5831 16.5,52C 16.9574,52.414 17.2907,52.914 17.5,53.5C 15.2573,54.4742 12.924,54.8076 10.5,54.5C 8.14469,53.9056 5.97802,52.9056 4,51.5C 3.2352,51.5699 2.7352,51.9033 2.5,52.5C 1.87605,52.0831 1.54272,51.4164 1.5,50.5C 2.17341,48.149 2.84007,45.8157 3.5,43.5C 5.11709,42.4107 5.95042,40.744 6,38.5C 6.19808,40.3817 6.69808,42.0484 7.5,43.5 Z"/></g>
<g><path style="opacity:1" fill="#5decb4" d="M 49.5,33.5 C 50.5,33.5 51.5,33.5 52.5,33.5C 54.6568,34.4067 56.9902,35.0733 59.5,35.5C 59.5,35.8333 59.5,36.1667 59.5,36.5C 57.3352,36.1159 55.6685,36.7826 54.5,38.5C 56.0453,39.4519 57.712,39.7852 59.5,39.5C 59.5,40.1667 59.5,40.8333 59.5,41.5C 57.8333,41.5 56.1667,41.5 54.5,41.5C 54.5,42.5 54.5,43.5 54.5,44.5C 56.1667,44.5 57.8333,44.5 59.5,44.5C 59.5,45.1667 59.5,45.8333 59.5,46.5C 57.5168,46.1568 56.1834,46.8235 55.5,48.5C 54.609,49.1098 53.609,49.4431 52.5,49.5C 50.2621,45.515 48.5955,45.8483 47.5,50.5C 46.8333,50.8333 46.1667,51.1667 45.5,51.5C 44.9622,48.0955 43.6288,45.0955 41.5,42.5C 42.1667,42.5 42.8333,42.5 43.5,42.5C 44.9587,42.4326 46.2921,42.7659 47.5,43.5C 49.3635,44.7928 51.3635,44.7928 53.5,43.5C 52.6698,41.8651 52.5031,40.1984 53,38.5C 51.6412,37.635 50.4745,36.635 49.5,35.5C 49.5,34.8333 49.5,34.1667 49.5,33.5 Z"/></g>
<g><path style="opacity:1" fill="#d5d8e0" d="M 19.5,45.5 C 19.3284,46.4916 19.6618,47.1583 20.5,47.5C 21.525,47.8966 21.6917,48.5632 21,49.5C 20.2303,50.5981 19.397,50.5981 18.5,49.5C 16.3227,50.5042 15.9893,49.8375 17.5,47.5C 18.1667,46.8333 18.8333,46.1667 19.5,45.5 Z"/></g>
<g><path style="opacity:1" fill="#e6fad6" d="M 59.5,46.5 C 61.1992,46.3398 62.8659,46.5065 64.5,47C 62.6183,47.1981 60.9516,47.6981 59.5,48.5C 58.1667,48.5 56.8333,48.5 55.5,48.5C 56.1834,46.8235 57.5168,46.1568 59.5,46.5 Z"/></g>
<g><path style="opacity:0.957" fill="#2e8a94" d="M -0.5,30.5 C 0.166667,30.5 0.833333,30.5 1.5,30.5C 1.5,31.5 1.5,32.5 1.5,33.5C 2.54556,36.7278 3.21223,40.0611 3.5,43.5C 2.84007,45.8157 2.17341,48.149 1.5,50.5C 1.54272,51.4164 1.87605,52.0831 2.5,52.5C 2.5,52.8333 2.5,53.1667 2.5,53.5C 3.81978,55.8171 5.48644,57.8171 7.5,59.5C 6.66175,59.8417 6.32842,60.5084 6.5,61.5C 4.16667,58.8333 1.83333,56.1667 -0.5,53.5C -0.5,51.5 -0.5,49.5 -0.5,47.5C 0.282883,45.6568 0.94955,43.6568 1.5,41.5C 0.94955,39.3432 0.282883,37.3432 -0.5,35.5C -0.5,33.8333 -0.5,32.1667 -0.5,30.5 Z"/></g>
<g><path style="opacity:1" fill="#94ece7" d="M 39.5,46.5 C 38.4168,46.5394 37.4168,46.8728 36.5,47.5C 35.5344,49.396 35.2011,51.396 35.5,53.5C 34.5655,52.4324 34.2322,51.099 34.5,49.5C 34.5,49.1667 34.5,48.8333 34.5,48.5C 34.5,47.8333 34.5,47.1667 34.5,46.5C 36.2837,45.2801 37.9504,45.2801 39.5,46.5 Z"/></g>
<g><path style="opacity:1" fill="#f5fdfd" d="M 39.5,46.5 C 42.926,51.4263 41.5927,54.0929 35.5,54.5C 35.5,54.1667 35.5,53.8333 35.5,53.5C 35.2011,51.396 35.5344,49.396 36.5,47.5C 37.4168,46.8728 38.4168,46.5394 39.5,46.5 Z"/></g>
<g><path style="opacity:1" fill="#52dbab" d="M 69.5,37.5 C 69.5,38.1667 69.5,38.8333 69.5,39.5C 69.8333,41.5 70.1667,43.5 70.5,45.5C 71.209,46.404 72.209,46.7373 73.5,46.5C 73.5,47.1667 73.1667,47.5 72.5,47.5C 70.078,48.0852 68.4113,49.5852 67.5,52C 64.3379,53.0275 61.3379,54.1941 58.5,55.5C 56.1445,56.5751 53.8111,56.5751 51.5,55.5C 54.8545,54.4847 58.1878,53.4847 61.5,52.5C 66.5635,49.3612 67.8968,45.0278 65.5,39.5C 65.5,38.8333 65.5,38.1667 65.5,37.5C 66.6316,36.6457 67.965,36.6457 69.5,37.5 Z"/></g>
<g><path style="opacity:1" fill="#2ff6d2" d="M 30.5,50.5 C 30.5,50.1667 30.5,49.8333 30.5,49.5C 31.8333,49.5 33.1667,49.5 34.5,49.5C 34.2322,51.099 34.5655,52.4324 35.5,53.5C 35.5,53.8333 35.5,54.1667 35.5,54.5C 35.631,55.2389 35.4643,55.9056 35,56.5C 32.837,54.8587 31.337,52.8587 30.5,50.5 Z"/></g>
<g><path style="opacity:0.529" fill="#0c1d22" d="M 75.5,45.5 C 75.4894,47.0174 74.8228,48.1841 73.5,49C 78.4889,49.4993 83.4889,49.6659 88.5,49.5C 83.1667,50.1667 77.8333,50.8333 72.5,51.5C 71.8333,51.8333 71.1667,52.1667 70.5,52.5C 69.9569,52.44 69.6236,52.1067 69.5,51.5C 70.9095,50.4305 71.9095,49.0972 72.5,47.5C 73.1667,47.5 73.5,47.1667 73.5,46.5C 74.1667,46.1667 74.8333,45.8333 75.5,45.5 Z"/></g>
<g><path style="opacity:1" fill="#1a1a2c" d="M 25.5,27.5 C 26.139,36.6397 26.139,45.6397 25.5,54.5C 20.4395,57.0692 15.4395,57.0692 10.5,54.5C 12.924,54.8076 15.2573,54.4742 17.5,53.5C 17.2907,52.914 16.9574,52.414 16.5,52C 17.756,51.5831 18.4226,50.7498 18.5,49.5C 19.397,50.5981 20.2303,50.5981 21,49.5C 21.6917,48.5632 21.525,47.8966 20.5,47.5C 21.4452,44.8603 21.6119,42.1936 21,39.5C 21.8382,40.999 22.6715,41.3324 23.5,40.5C 24.1667,36.1667 24.8333,31.8333 25.5,27.5 Z"/></g>
<g><path style="opacity:1" fill="#2ca2b9" d="M 39.5,46.5 C 42.1999,47.1998 43.8666,48.8664 44.5,51.5C 43.8333,52.8333 43.1667,54.1667 42.5,55.5C 40.3736,56.0482 38.3736,56.7148 36.5,57.5C 32.0197,57.3502 30.0197,55.0168 30.5,50.5C 31.337,52.8587 32.837,54.8587 35,56.5C 35.4643,55.9056 35.631,55.2389 35.5,54.5C 41.5927,54.0929 42.926,51.4263 39.5,46.5 Z"/></g>
<g><path style="opacity:1" fill="#288177" d="M 72.5,51.5 C 76.104,51.0485 79.104,52.0485 81.5,54.5C 81.2852,56.1788 81.9519,57.1788 83.5,57.5C 84.3984,58.1577 85.3984,58.8243 86.5,59.5C 79.5316,60.497 72.5316,60.8303 65.5,60.5C 65.5,60.1667 65.5,59.8333 65.5,59.5C 69.8839,59.8256 74.2172,59.4922 78.5,58.5C 78.2907,57.914 77.9574,57.414 77.5,57C 72.1771,56.5006 66.8437,56.334 61.5,56.5C 64.5,55.1667 67.5,53.8333 70.5,52.5C 71.1667,52.1667 71.8333,51.8333 72.5,51.5 Z"/></g>
<g><path style="opacity:1" fill="#dcfae1" d="M 47.5,50.5 C 48.328,54.8619 46.6613,57.5285 42.5,58.5C 42.5,57.5 42.5,56.5 42.5,55.5C 43.1667,54.1667 43.8333,52.8333 44.5,51.5C 44.8333,51.5 45.1667,51.5 45.5,51.5C 46.1667,51.1667 46.8333,50.8333 47.5,50.5 Z"/></g>
<g><path style="opacity:1" fill="#244c51" d="M 72.5,47.5 C 71.9095,49.0972 70.9095,50.4305 69.5,51.5C 69.6236,52.1067 69.9569,52.44 70.5,52.5C 67.5,53.8333 64.5,55.1667 61.5,56.5C 61.1667,56.5 60.8333,56.5 60.5,56.5C 60.1583,55.6618 59.4916,55.3284 58.5,55.5C 61.3379,54.1941 64.3379,53.0275 67.5,52C 68.4113,49.5852 70.078,48.0852 72.5,47.5 Z"/></g>
<g><path style="opacity:0.994" fill="#0b0d13" d="M 10.5,54.5 C 15.4395,57.0692 20.4395,57.0692 25.5,54.5C 25.5,55.1667 25.5,55.8333 25.5,56.5C 25.5,57.5 25.5,58.5 25.5,59.5C 24.1667,59.5 22.8333,59.5 21.5,59.5C 14.7761,58.5721 8.44275,56.5721 2.5,53.5C 2.5,53.1667 2.5,52.8333 2.5,52.5C 2.7352,51.9033 3.2352,51.5699 4,51.5C 5.97802,52.9056 8.14469,53.9056 10.5,54.5 Z"/></g>
<g><path style="opacity:1" fill="#45dfcb" d="M 42.5,55.5 C 42.5,56.5 42.5,57.5 42.5,58.5C 41.1667,58.5 39.8333,58.5 38.5,58.5C 38.5,60.5 38.5,62.5 38.5,64.5C 38.5,65.5 38.5,66.5 38.5,67.5C 37.8333,64.5 37.1667,61.5 36.5,58.5C 36.5,58.1667 36.5,57.8333 36.5,57.5C 38.3736,56.7148 40.3736,56.0482 42.5,55.5 Z"/></g>
<g><path style="opacity:1" fill="#23222f" d="M 55.5,48.5 C 56.8333,48.5 58.1667,48.5 59.5,48.5C 60.1667,49.8333 60.8333,51.1667 61.5,52.5C 58.1878,53.4847 54.8545,54.4847 51.5,55.5C 53.8111,56.5751 56.1445,56.5751 58.5,55.5C 59.4916,55.3284 60.1583,55.6618 60.5,56.5C 56.8815,57.2436 53.2148,57.577 49.5,57.5C 49.0156,54.2118 50.0156,51.5452 52.5,49.5C 53.609,49.4431 54.609,49.1098 55.5,48.5 Z"/></g>
<g><path style="opacity:0.282" fill="#0f181a" d="M 81.5,54.5 C 82.9063,54.9731 83.573,55.9731 83.5,57.5C 81.9519,57.1788 81.2852,56.1788 81.5,54.5 Z"/></g>
<g><path style="opacity:1" fill="#2db398" d="M 61.5,56.5 C 66.8437,56.334 72.1771,56.5006 77.5,57C 77.9574,57.414 78.2907,57.914 78.5,58.5C 74.2172,59.4922 69.8839,59.8256 65.5,59.5C 63.0274,59.9118 61.6941,58.9118 61.5,56.5 Z"/></g>
<g><path style="opacity:1" fill="#2f324d" d="M 2.5,53.5 C 8.44275,56.5721 14.7761,58.5721 21.5,59.5C 21.5,60.8333 21.5,62.1667 21.5,63.5C 17.8333,62.8333 14.1667,62.1667 10.5,61.5C 9.70951,60.5987 8.70951,59.9321 7.5,59.5C 5.48644,57.8171 3.81978,55.8171 2.5,53.5 Z"/></g>
<g><path style="opacity:1" fill="#0a0b0f" d="M 36.5,58.5 C 36.1744,62.8839 36.5078,67.2172 37.5,71.5C 38.4287,70.3112 38.762,68.9778 38.5,67.5C 38.5,66.5 38.5,65.5 38.5,64.5C 38.8333,64.5 39.1667,64.5 39.5,64.5C 39.5,67.1667 39.5,69.8333 39.5,72.5C 38.5084,72.3284 37.8417,72.6618 37.5,73.5C 36.7321,74.2625 36.2321,75.2625 36,76.5C 35.7216,75.5842 35.2216,74.9175 34.5,74.5C 34.7307,71.2155 33.3974,68.7155 30.5,67C 31.3802,65.6439 31.7135,64.1439 31.5,62.5C 31.5,61.5 31.5,60.5 31.5,59.5C 32.8221,59.33 33.9887,59.6634 35,60.5C 35.2784,59.5842 35.7784,58.9175 36.5,58.5 Z"/></g>
<g><path style="opacity:1" fill="#12131c" d="M 25.5,56.5 C 27.5167,59.2673 27.8501,62.2673 26.5,65.5C 26.5,66.1667 26.5,66.8333 26.5,67.5C 24.9013,69.6038 23.068,71.6038 21,73.5C 20.6012,73.2716 20.4346,72.9382 20.5,72.5C 21.625,71.3478 21.625,70.3478 20.5,69.5C 21.0906,68.8485 21.7573,68.1818 22.5,67.5C 20.9223,66.7022 19.2556,66.2022 17.5,66C 19.2556,65.7978 20.9223,65.2978 22.5,64.5C 22.3764,63.8933 22.0431,63.56 21.5,63.5C 21.5,62.1667 21.5,60.8333 21.5,59.5C 22.8333,59.5 24.1667,59.5 25.5,59.5C 25.5,58.5 25.5,57.5 25.5,56.5 Z"/></g>
<g><path style="opacity:1" fill="#2c8986" d="M 52.5,49.5 C 50.0156,51.5452 49.0156,54.2118 49.5,57.5C 53.2148,57.577 56.8815,57.2436 60.5,56.5C 60.8333,56.5 61.1667,56.5 61.5,56.5C 61.6941,58.9118 63.0274,59.9118 65.5,59.5C 65.5,59.8333 65.5,60.1667 65.5,60.5C 64.8333,60.5 64.5,60.8333 64.5,61.5C 61.6236,60.1968 58.6236,59.6968 55.5,60C 57.0931,60.9487 58.4264,62.1154 59.5,63.5C 60.1079,64.7997 60.7745,66.1331 61.5,67.5C 61.3333,68.1667 61.1667,68.8333 61,69.5C 60.7216,68.5842 60.2216,67.9175 59.5,67.5C 58.8485,68.0906 58.1818,68.7573 57.5,69.5C 54.9004,65.3732 51.2337,63.0399 46.5,62.5C 45.4246,63.5624 44.4246,63.5624 43.5,62.5C 44.0253,61.8076 44.6919,61.3076 45.5,61C 44.0577,60.6232 43.0577,59.7899 42.5,58.5C 46.6613,57.5285 48.328,54.8619 47.5,50.5C 48.5955,45.8483 50.2621,45.515 52.5,49.5 Z"/></g>
<g><path style="opacity:1" fill="#204951" d="M 83.5,57.5 C 85.924,57.1924 88.2573,57.5258 90.5,58.5C 89.5276,60.6365 87.8609,61.8032 85.5,62C 85.8333,62.3333 86.1667,62.6667 86.5,63C 84.5,63.6667 82.5,64.3333 80.5,65C 81.9733,65.7096 82.6399,66.8762 82.5,68.5C 78.5369,69.44 74.5369,69.6067 70.5,69C 69.944,68.6174 69.6107,68.1174 69.5,67.5C 71.4546,68.3235 73.4546,68.4901 75.5,68C 71.9179,65.5518 68.2513,63.3851 64.5,61.5C 64.5,60.8333 64.8333,60.5 65.5,60.5C 72.5316,60.8303 79.5316,60.497 86.5,59.5C 85.3984,58.8243 84.3984,58.1577 83.5,57.5 Z"/></g>
<g><path style="opacity:0.6" fill="#1d3f50" d="M 42.5,58.5 C 43.0577,59.7899 44.0577,60.6232 45.5,61C 44.6919,61.3076 44.0253,61.8076 43.5,62.5C 44.4246,63.5624 45.4246,63.5624 46.5,62.5C 44.7211,64.3435 42.3878,65.0102 39.5,64.5C 39.1667,64.5 38.8333,64.5 38.5,64.5C 38.5,62.5 38.5,60.5 38.5,58.5C 39.8333,58.5 41.1667,58.5 42.5,58.5 Z"/></g>
<g><path style="opacity:1" fill="#57bac6" d="M 7.5,59.5 C 8.70951,59.9321 9.70951,60.5987 10.5,61.5C 9.40168,62.6009 9.23502,63.9343 10,65.5C 11.3333,66.8333 12.6667,68.1667 14,69.5C 16.0266,69.0137 18.1933,69.0137 20.5,69.5C 21.625,70.3478 21.625,71.3478 20.5,72.5C 17.5176,72.0371 14.5176,71.7038 11.5,71.5C 8.35728,68.9961 6.69062,65.6628 6.5,61.5C 6.32842,60.5084 6.66175,59.8417 7.5,59.5 Z"/></g>
<g><path style="opacity:1" fill="#36486c" d="M 10.5,61.5 C 14.1667,62.1667 17.8333,62.8333 21.5,63.5C 22.0431,63.56 22.3764,63.8933 22.5,64.5C 20.9223,65.2978 19.2556,65.7978 17.5,66C 19.2556,66.2022 20.9223,66.7022 22.5,67.5C 21.7573,68.1818 21.0906,68.8485 20.5,69.5C 18.1933,69.0137 16.0266,69.0137 14,69.5C 12.6667,68.1667 11.3333,66.8333 10,65.5C 9.23502,63.9343 9.40168,62.6009 10.5,61.5 Z"/></g>
<g><path style="opacity:1" fill="#2ea397" d="M 64.5,61.5 C 68.2513,63.3851 71.9179,65.5518 75.5,68C 73.4546,68.4901 71.4546,68.3235 69.5,67.5C 68.828,66.7326 67.9947,66.0659 67,65.5C 67.4922,68.319 67.3256,70.9856 66.5,73.5C 65.7729,71.0462 64.7729,68.7128 63.5,66.5C 62.7377,64.7376 61.4044,63.7376 59.5,63.5C 58.4264,62.1154 57.0931,60.9487 55.5,60C 58.6236,59.6968 61.6236,60.1968 64.5,61.5 Z"/></g>
<g><path style="opacity:1" fill="#1a4147" d="M 69.5,67.5 C 68.8347,69.6979 68.1681,72.0312 67.5,74.5C 66.8933,74.3764 66.56,74.0431 66.5,73.5C 67.3256,70.9856 67.4922,68.319 67,65.5C 67.9947,66.0659 68.828,66.7326 69.5,67.5 Z"/></g>
<g><path style="opacity:0.984" fill="#194757" d="M 36.5,58.5 C 37.1667,61.5 37.8333,64.5 38.5,67.5C 38.762,68.9778 38.4287,70.3112 37.5,71.5C 36.5078,67.2172 36.1744,62.8839 36.5,58.5 Z"/></g>
<g><path style="opacity:0.451" fill="#14282c" d="M 59.5,63.5 C 61.4044,63.7376 62.7377,64.7376 63.5,66.5C 62.5655,67.5676 62.2322,68.901 62.5,70.5C 61.5,70.5 60.5,70.5 59.5,70.5C 59.5,69.5 59.5,68.5 59.5,67.5C 60.2216,67.9175 60.7216,68.5842 61,69.5C 61.1667,68.8333 61.3333,68.1667 61.5,67.5C 60.7745,66.1331 60.1079,64.7997 59.5,63.5 Z"/></g>
<g><path style="opacity:1" fill="#21a5bb" d="M 26.5,65.5 C 27.6737,66.5137 28.3404,67.847 28.5,69.5C 28.6716,70.4916 28.3382,71.1583 27.5,71.5C 27.1667,70.1667 26.8333,68.8333 26.5,67.5C 26.5,66.8333 26.5,66.1667 26.5,65.5 Z"/></g>
<g><path style="opacity:1" fill="#1b446a" d="M 26.5,67.5 C 26.8333,68.8333 27.1667,70.1667 27.5,71.5C 26.0384,72.4577 24.7051,73.6244 23.5,75C 22.3333,75.1667 21.1667,75.3333 20,75.5C 17.0784,73.5891 14.245,72.2558 11.5,71.5C 14.5176,71.7038 17.5176,72.0371 20.5,72.5C 20.4346,72.9382 20.6012,73.2716 21,73.5C 23.068,71.6038 24.9013,69.6038 26.5,67.5 Z"/></g>
<g><path style="opacity:1" fill="#0a0d12" d="M 28.5,69.5 C 30.0987,71.6038 31.932,73.6038 34,75.5C 34.3988,75.2716 34.5654,74.9382 34.5,74.5C 35.2216,74.9175 35.7216,75.5842 36,76.5C 36.2321,75.2625 36.7321,74.2625 37.5,73.5C 38.7349,75.017 38.7349,76.6837 37.5,78.5C 37.9569,79.2975 38.6236,79.6309 39.5,79.5C 39.7373,80.791 39.404,81.791 38.5,82.5C 34.2149,80.3781 31.0482,77.0448 29,72.5C 28.5357,73.0944 28.369,73.7611 28.5,74.5C 27.596,73.791 27.2627,72.791 27.5,71.5C 28.3382,71.1583 28.6716,70.4916 28.5,69.5 Z"/></g>
<g><path style="opacity:0.808" fill="#223f53" d="M 37.5,73.5 C 37.8417,72.6618 38.5084,72.3284 39.5,72.5C 41.8907,74.7642 41.8907,77.0976 39.5,79.5C 38.6236,79.6309 37.9569,79.2975 37.5,78.5C 38.7349,76.6837 38.7349,75.017 37.5,73.5 Z"/></g>
<g><path style="opacity:0.8" fill="#2c7f84" d="M 38.5,82.5 C 38.5,82.8333 38.5,83.1667 38.5,83.5C 37.1667,83.5 35.8333,83.5 34.5,83.5C 31.8924,80.876 29.8924,77.876 28.5,74.5C 28.369,73.7611 28.5357,73.0944 29,72.5C 31.0482,77.0448 34.2149,80.3781 38.5,82.5 Z"/></g>
</svg>
