<?xml version="1.0" encoding="UTF-8"?>
<!DOCTYPE svg PUBLIC "-//W3C//DTD SVG 1.1//EN" "http://www.w3.org/Graphics/SVG/1.1/DTD/svg11.dtd">
<svg xmlns="http://www.w3.org/2000/svg" version="1.1" width="100px" height="96px" style="shape-rendering:geometricPrecision; text-rendering:geometricPrecision; image-rendering:optimizeQuality; fill-rule:evenodd; clip-rule:evenodd" xmlns:xlink="http://www.w3.org/1999/xlink">
<g><path style="opacity:0.824" fill="#122e32" d="M 31.5,-0.5 C 32.1667,-0.5 32.8333,-0.5 33.5,-0.5C 33.0269,0.906316 32.0269,1.57298 30.5,1.5C 30.8333,0.833333 31.1667,0.166667 31.5,-0.5 Z"/></g>
<g><path style="opacity:1" fill="#11c7d1" d="M 33.5,-0.5 C 34.5,-0.5 35.5,-0.5 36.5,-0.5C 36.6596,1.15298 37.3263,2.48631 38.5,3.5C 38.5,5.16667 38.5,6.83333 38.5,8.5C 37.1319,6.58187 36.1319,4.41521 35.5,2C 33.8374,1.73508 32.3374,2.23508 31,3.5C 30.5357,2.90558 30.369,2.23891 30.5,1.5C 32.0269,1.57298 33.0269,0.906316 33.5,-0.5 Z"/></g>
<g><path style="opacity:0.157" fill="#111f21" d="M 36.5,-0.5 C 36.8333,-0.5 37.1667,-0.5 37.5,-0.5C 38.2341,0.707917 38.5674,2.04125 38.5,3.5C 37.3263,2.48631 36.6596,1.15298 36.5,-0.5 Z"/></g>
<g><path style="opacity:1" fill="#20737d" d="M 30.5,1.5 C 30.369,2.23891 30.5357,2.90558 31,3.5C 32.3374,2.23508 33.8374,1.73508 35.5,2C 36.1319,4.41521 37.1319,6.58187 38.5,8.5C 39.1667,8.83333 39.8333,9.16667 40.5,9.5C 41.7298,11.2972 42.3964,13.2972 42.5,15.5C 43.7384,17.2143 44.405,19.2143 44.5,21.5C 43.8826,21.3893 43.3826,21.056 43,20.5C 42.7645,22.1193 41.9311,23.1193 40.5,23.5C 38.2352,15.6396 33.5685,9.63956 26.5,5.5C 24.8144,6.85689 23.1477,8.19022 21.5,9.5C 21.5,9.16667 21.5,8.83333 21.5,8.5C 21.5,8.16667 21.5,7.83333 21.5,7.5C 23.6304,4.26332 26.6304,2.26332 30.5,1.5 Z"/></g>
<g><path style="opacity:1" fill="#1b4d54" d="M 38.5,3.5 C 39.4582,5.30236 40.1249,7.30236 40.5,9.5C 39.8333,9.16667 39.1667,8.83333 38.5,8.5C 38.5,6.83333 38.5,5.16667 38.5,3.5 Z"/></g>
<g><path style="opacity:1" fill="#17232f" d="M 40.5,23.5 C 38.1046,26.8777 35.7713,30.211 33.5,33.5C 28.8784,31.191 28.8784,29.691 33.5,29C 31.8333,28.6667 30.1667,28.3333 28.5,28C 27.1218,26.2866 25.4552,24.9533 23.5,24C 25.1341,23.5065 26.8008,23.3398 28.5,23.5C 30.7814,24.2071 32.9481,25.2071 35,26.5C 35.1667,26.1667 35.3333,25.8333 35.5,25.5C 33.6714,23.1065 32.0047,20.7731 30.5,18.5C 29.6721,19.4147 28.6721,20.0814 27.5,20.5C 24.8546,19.8924 22.1879,19.3924 19.5,19C 23.3041,17.5057 22.9707,16.6724 18.5,16.5C 17.9094,15.8485 17.2427,15.1818 16.5,14.5C 17.8545,12.4788 19.5212,10.8121 21.5,9.5C 23.1477,8.19022 24.8144,6.85689 26.5,5.5C 33.5685,9.63956 38.2352,15.6396 40.5,23.5 Z"/></g>
<g><path style="opacity:0.163" fill="#222726" d="M 21.5,7.5 C 21.5,7.83333 21.5,8.16667 21.5,8.5C 19.0987,9.04883 16.7654,9.88217 14.5,11C 13.6634,12.0113 13.33,13.1779 13.5,14.5C 12.5,14.5 11.5,14.5 10.5,14.5C 12.7646,10.1653 16.4313,7.83201 21.5,7.5 Z"/></g>
<g><path style="opacity:0.694" fill="#333a35" d="M 10.5,14.5 C 10.9118,16.9726 9.91176,18.3059 7.5,18.5C 8.51163,17.1283 9.51163,15.795 10.5,14.5 Z"/></g>
<g><path style="opacity:1" fill="#20cfcf" d="M 42.5,15.5 C 42.557,20.5051 41.8903,20.6718 40.5,16C 40.6834,14.3164 41.3501,14.1498 42.5,15.5 Z"/></g>
<g><path style="opacity:1" fill="#125554" d="M 63.5,21.5 C 60.9066,22.7536 58.5732,24.4202 56.5,26.5C 56.0618,26.5654 55.7284,26.3988 55.5,26C 57.7059,23.9633 59.7059,21.7966 61.5,19.5C 62.2891,19.2172 62.9558,18.7172 63.5,18C 62.624,16.414 61.624,14.914 60.5,13.5C 63.2779,13.3811 65.2779,14.8811 66.5,18C 66.2926,19.9497 65.2926,21.1164 63.5,21.5 Z"/></g>
<g><path style="opacity:1" fill="#c0e7c9" d="M 21.5,8.5 C 21.5,8.83333 21.5,9.16667 21.5,9.5C 19.5212,10.8121 17.8545,12.4788 16.5,14.5C 17.2427,15.1818 17.9094,15.8485 18.5,16.5C 16.7376,16.6427 15.0709,16.3094 13.5,15.5C 12.7084,16.6998 12.7084,18.0331 13.5,19.5C 12.4246,18.4376 11.4246,18.4376 10.5,19.5C 13.35,21.4271 16.0167,23.5938 18.5,26C 18.2716,26.3988 17.9382,26.5654 17.5,26.5C 15.5979,25.6321 13.7645,24.6321 12,23.5C 11.2352,23.5699 10.7352,23.9033 10.5,24.5C 9.83333,24.5 9.16667,24.5 8.5,24.5C 8.48285,22.4352 8.14952,20.4352 7.5,18.5C 9.91176,18.3059 10.9118,16.9726 10.5,14.5C 11.5,14.5 12.5,14.5 13.5,14.5C 13.33,13.1779 13.6634,12.0113 14.5,11C 16.7654,9.88217 19.0987,9.04883 21.5,8.5 Z"/></g>
<g><path style="opacity:1" fill="#adc69a" d="M 18.5,16.5 C 22.9707,16.6724 23.3041,17.5057 19.5,19C 22.1879,19.3924 24.8546,19.8924 27.5,20.5C 28.6721,20.0814 29.6721,19.4147 30.5,18.5C 32.0047,20.7731 33.6714,23.1065 35.5,25.5C 35.3333,25.8333 35.1667,26.1667 35,26.5C 32.9481,25.2071 30.7814,24.2071 28.5,23.5C 26.2743,22.2437 23.941,22.2437 21.5,23.5C 21.1667,23.5 20.8333,23.5 20.5,23.5C 18.8814,21.8814 17.2147,20.2147 15.5,18.5C 14.8165,18.8627 14.1499,19.1961 13.5,19.5C 12.7084,18.0331 12.7084,16.6998 13.5,15.5C 15.0709,16.3094 16.7376,16.6427 18.5,16.5 Z"/></g>
<g><path style="opacity:0.608" fill="#222b28" d="M 7.5,18.5 C 8.14952,20.4352 8.48285,22.4352 8.5,24.5C 8.67158,25.4916 8.33825,26.1583 7.5,26.5C 7.17354,23.6624 7.17354,20.9958 7.5,18.5 Z"/></g>
<g><path style="opacity:1" fill="#15222f" d="M 17.5,26.5 C 20.5203,28.5232 22.8536,31.1898 24.5,34.5C 17.259,35.6919 10.259,37.6919 3.5,40.5C 5.28593,34.9281 7.61926,29.5947 10.5,24.5C 10.7352,23.9033 11.2352,23.5699 12,23.5C 13.7645,24.6321 15.5979,25.6321 17.5,26.5 Z"/></g>
<g><path style="opacity:1" fill="#4e6659" d="M 13.5,19.5 C 14.1499,19.1961 14.8165,18.8627 15.5,18.5C 17.2147,20.2147 18.8814,21.8814 20.5,23.5C 21.1415,26.1526 22.8082,27.3193 25.5,27C 23.9069,26.0513 22.5736,24.8846 21.5,23.5C 23.941,22.2437 26.2743,22.2437 28.5,23.5C 26.8008,23.3398 25.1341,23.5065 23.5,24C 25.4552,24.9533 27.1218,26.2866 28.5,28C 30.1667,28.3333 31.8333,28.6667 33.5,29C 28.8784,29.691 28.8784,31.191 33.5,33.5C 30.2981,37.2529 31.2981,39.0863 36.5,39C 35.5842,39.2784 34.9175,39.7784 34.5,40.5C 32.5,40.5 30.5,40.5 28.5,40.5C 27.5,40.1667 26.8333,39.5 26.5,38.5C 25.8333,37.1667 25.1667,35.8333 24.5,34.5C 22.8536,31.1898 20.5203,28.5232 17.5,26.5C 17.9382,26.5654 18.2716,26.3988 18.5,26C 16.0167,23.5938 13.35,21.4271 10.5,19.5C 11.4246,18.4376 12.4246,18.4376 13.5,19.5 Z"/></g>
<g><path style="opacity:1" fill="#0f161e" d="M 20.5,23.5 C 20.8333,23.5 21.1667,23.5 21.5,23.5C 22.5736,24.8846 23.9069,26.0513 25.5,27C 22.8082,27.3193 21.1415,26.1526 20.5,23.5 Z"/></g>
<g><path style="opacity:1" fill="#2aa48f" d="M 44.5,21.5 C 43.9396,26.909 44.9396,27.5757 47.5,23.5C 48.2216,23.0825 48.7216,22.4158 49,21.5C 49.3115,26.7748 46.8115,28.9415 41.5,28C 42.5171,26.9505 42.6838,25.7839 42,24.5C 40.4866,27.5244 38.4866,30.1911 36,32.5C 35.3333,33.1667 35.3333,33.8333 36,34.5C 37.1667,33.3333 38.3333,32.1667 39.5,31C 40.4368,30.3083 41.1034,30.475 41.5,31.5C 40.828,32.2674 39.9947,32.9341 39,33.5C 38.2599,34.7494 38.4265,35.7494 39.5,36.5C 38.032,37.7791 37.3653,39.4458 37.5,41.5C 36.209,41.7373 35.209,41.404 34.5,40.5C 34.9175,39.7784 35.5842,39.2784 36.5,39C 31.2981,39.0863 30.2981,37.2529 33.5,33.5C 35.7713,30.211 38.1046,26.8777 40.5,23.5C 41.9311,23.1193 42.7645,22.1193 43,20.5C 43.3826,21.056 43.8826,21.3893 44.5,21.5 Z"/></g>
<g><path style="opacity:0.784" fill="#16343d" d="M 44.5,21.5 C 45.2679,22.2625 45.7679,23.2625 46,24.5C 46.3826,23.944 46.8826,23.6107 47.5,23.5C 44.9396,27.5757 43.9396,26.909 44.5,21.5 Z"/></g>
<g><path style="opacity:1" fill="#1e1a2d" d="M 22.5,29.5 C 23.6009,28.4017 24.9343,28.235 26.5,29C 32.0625,33.4989 31.3958,34.4989 24.5,32C 23.9341,31.0053 23.2674,30.172 22.5,29.5 Z"/></g>
<g><path style="opacity:1" fill="#57d2cd" d="M 50.5,37.5 C 48.8333,36.1667 47.1667,34.8333 45.5,33.5C 44.6618,33.1583 44.3284,32.4916 44.5,31.5C 48.1073,29.7754 51.1073,30.6087 53.5,34C 52.552,34.4828 51.552,34.6495 50.5,34.5C 50.5,35.5 50.5,36.5 50.5,37.5 Z"/></g>
<g><path style="opacity:1" fill="#242124" d="M 63.5,21.5 C 62.1498,22.6499 62.3164,23.3166 64,23.5C 67.7011,21.4227 71.5345,21.0893 75.5,22.5C 77.1901,25.0237 79.3568,27.0237 82,28.5C 83.599,31.1517 85.099,33.8183 86.5,36.5C 85.8333,36.5 85.1667,36.5 84.5,36.5C 83.2867,34.324 81.62,33.9907 79.5,35.5C 78.3044,35.1543 78.3044,34.6543 79.5,34C 77.9419,33.79 76.6085,33.29 75.5,32.5C 77.4832,32.8432 78.8166,32.1765 79.5,30.5C 78.8333,29.8333 78.1667,29.1667 77.5,28.5C 77.9382,28.5654 78.2716,28.3988 78.5,28C 76.3332,26.2771 73.9998,26.1104 71.5,27.5C 70.8333,27.5 70.1667,27.5 69.5,27.5C 69.9175,26.7784 70.5842,26.2784 71.5,26C 67.0812,24.8025 64.5812,26.3025 64,30.5C 65,29.5 66,28.5 67,27.5C 67.4643,28.0944 67.631,28.7611 67.5,29.5C 64.6445,34.6021 62.3112,34.7688 60.5,30C 57.5144,30.1276 54.5144,30.1276 51.5,30C 53.2331,28.8111 54.8998,27.6444 56.5,26.5C 58.5732,24.4202 60.9066,22.7536 63.5,21.5 Z"/></g>
<g><path style="opacity:1" fill="#693a25" d="M 79.5,30.5 C 78.8166,32.1765 77.4832,32.8432 75.5,32.5C 73.8967,32.6882 72.5634,32.1882 71.5,31C 74.146,30.5026 76.8127,30.3359 79.5,30.5 Z"/></g>
<g><path style="opacity:1" fill="#138981" d="M 77.5,28.5 C 75.7376,28.3573 74.0709,28.6906 72.5,29.5C 71.7025,29.0431 71.3691,28.3764 71.5,27.5C 73.9998,26.1104 76.3332,26.2771 78.5,28C 78.2716,28.3988 77.9382,28.5654 77.5,28.5 Z"/></g>
<g><path style="opacity:1" fill="#5f3724" d="M 69.5,27.5 C 69.1667,28.5 68.5,29.1667 67.5,29.5C 67.631,28.7611 67.4643,28.0944 67,27.5C 66,28.5 65,29.5 64,30.5C 64.5812,26.3025 67.0812,24.8025 71.5,26C 70.5842,26.2784 69.9175,26.7784 69.5,27.5 Z"/></g>
<g><path style="opacity:1" fill="#0d8c66" d="M 41.5,31.5 C 42.5,31.5 43.5,31.5 44.5,31.5C 44.3284,32.4916 44.6618,33.1583 45.5,33.5C 43.8439,35.0603 41.8439,36.0603 39.5,36.5C 38.4265,35.7494 38.2599,34.7494 39,33.5C 39.9947,32.9341 40.828,32.2674 41.5,31.5 Z"/></g>
<g><path style="opacity:1" fill="#20202b" d="M 61.5,19.5 C 59.7059,21.7966 57.7059,23.9633 55.5,26C 55.7284,26.3988 56.0618,26.5654 56.5,26.5C 54.8998,27.6444 53.2331,28.8111 51.5,30C 54.5144,30.1276 57.5144,30.1276 60.5,30C 62.3112,34.7688 64.6445,34.6021 67.5,29.5C 68.5,29.1667 69.1667,28.5 69.5,27.5C 70.1667,27.5 70.8333,27.5 71.5,27.5C 71.3691,28.3764 71.7025,29.0431 72.5,29.5C 74.0709,28.6906 75.7376,28.3573 77.5,28.5C 78.1667,29.1667 78.8333,29.8333 79.5,30.5C 76.8127,30.3359 74.146,30.5026 71.5,31C 72.5634,32.1882 73.8967,32.6882 75.5,32.5C 76.6085,33.29 77.9419,33.79 79.5,34C 78.3044,34.6543 78.3044,35.1543 79.5,35.5C 81.62,33.9907 83.2867,34.324 84.5,36.5C 83.8333,36.5 83.1667,36.5 82.5,36.5C 78.2687,36.4037 74.9354,38.0703 72.5,41.5C 71.9569,41.44 71.6236,41.1067 71.5,40.5C 72.2634,39.2807 73.2634,38.2807 74.5,37.5C 72.477,36.959 70.477,37.459 68.5,39C 70.3588,39.6008 70.6921,40.4341 69.5,41.5C 68.0513,38.5238 66.0513,38.0238 63.5,40C 61.771,41.7889 61.1043,43.9556 61.5,46.5C 60.8333,46.5 60.1667,46.5 59.5,46.5C 59.2051,42.9235 60.2051,39.7568 62.5,37C 61.0715,36.4209 59.7382,36.5876 58.5,37.5C 55.995,36.5033 53.3283,36.5033 50.5,37.5C 50.5,36.5 50.5,35.5 50.5,34.5C 51.552,34.6495 52.552,34.4828 53.5,34C 51.1073,30.6087 48.1073,29.7754 44.5,31.5C 43.5,31.5 42.5,31.5 41.5,31.5C 41.1034,30.475 40.4368,30.3083 39.5,31C 38.3333,32.1667 37.1667,33.3333 36,34.5C 35.3333,33.8333 35.3333,33.1667 36,32.5C 38.4866,30.1911 40.4866,27.5244 42,24.5C 42.6838,25.7839 42.5171,26.9505 41.5,28C 46.8115,28.9415 49.3115,26.7748 49,21.5C 48.7216,22.4158 48.2216,23.0825 47.5,23.5C 47.2808,19.4726 48.4475,18.8059 51,21.5C 51.4935,19.8659 51.6602,18.1992 51.5,16.5C 54.617,16.6423 57.117,17.9756 59,20.5C 59.6708,19.7476 60.5041,19.4142 61.5,19.5 Z"/></g>
<g><path style="opacity:1" fill="#136a7d" d="M 52.5,17.5 C 56.1756,20.2901 55.8422,22.9568 51.5,25.5C 51.1667,25.1667 50.8333,24.8333 50.5,24.5C 52.1733,22.4775 52.8399,20.1441 52.5,17.5 Z"/></g>
<g><path style="opacity:1" fill="#3c9d9b" d="M 58.5,37.5 C 58.5,38.1667 58.1667,38.5 57.5,38.5C 56.8333,39.8333 56.1667,41.1667 55.5,42.5C 55.2542,39.5299 53.5876,38.1966 50.5,38.5C 50.5,38.1667 50.5,37.8333 50.5,37.5C 53.3283,36.5033 55.995,36.5033 58.5,37.5 Z"/></g>
<g><path style="opacity:1" fill="#edfdfd" d="M 44.5,38.5 C 45.8333,40.1667 45.8333,41.8333 44.5,43.5C 42.4099,43.5499 41.0766,42.5499 40.5,40.5C 41.3202,38.8888 42.6536,38.2222 44.5,38.5 Z"/></g>
<g><path style="opacity:1" fill="#744532" d="M 82.5,36.5 C 81.5525,37.9779 80.2191,38.9779 78.5,39.5C 76.5,40.1667 74.5,40.8333 72.5,41.5C 74.9354,38.0703 78.2687,36.4037 82.5,36.5 Z"/></g>
<g><path style="opacity:1" fill="#a4f3d5" d="M 50.5,38.5 C 53.5876,38.1966 55.2542,39.5299 55.5,42.5C 55.6716,43.4916 55.3382,44.1583 54.5,44.5C 53.1667,42.5 51.8333,40.5 50.5,38.5 Z"/></g>
<g><path style="opacity:1" fill="#213b3b" d="M 82.5,36.5 C 83.1667,36.5 83.8333,36.5 84.5,36.5C 85.1667,36.5 85.8333,36.5 86.5,36.5C 91.3847,39.0433 95.718,42.3766 99.5,46.5C 99.5,47.5 99.5,48.5 99.5,49.5C 97.8396,53.1604 95.1729,55.8271 91.5,57.5C 93.4483,54.5355 95.4483,51.5355 97.5,48.5C 96.5905,46.6253 95.2572,45.292 93.5,44.5C 89.5683,40.5513 84.9017,39.5513 79.5,41.5C 81.0311,40.0755 80.6977,39.4088 78.5,39.5C 80.2191,38.9779 81.5525,37.9779 82.5,36.5 Z"/></g>
<g><path style="opacity:0.878" fill="#133a3d" d="M 2.5,37.5 C 2.43487,40.4282 1.7682,43.0948 0.5,45.5C 0.29379,42.5049 0.960457,39.8383 2.5,37.5 Z"/></g>
<g><path style="opacity:1" fill="#3e3448" d="M 24.5,34.5 C 25.1667,35.8333 25.8333,37.1667 26.5,38.5C 24.8279,41.5033 23.1612,44.5033 21.5,47.5C 21.5,46.1667 21.5,44.8333 21.5,43.5C 13.912,41.6608 8.2453,43.9941 4.5,50.5C 3.54885,51.9187 3.21552,53.5853 3.5,55.5C 3.15829,56.3382 2.49162,56.6716 1.5,56.5C 1.36422,51.0538 2.03089,45.7204 3.5,40.5C 10.259,37.6919 17.259,35.6919 24.5,34.5 Z"/></g>
<g><path style="opacity:1" fill="#46815e" d="M 28.5,40.5 C 30.5,40.5 32.5,40.5 34.5,40.5C 35.209,41.404 36.209,41.7373 37.5,41.5C 38.1667,41.5 38.5,41.8333 38.5,42.5C 37.0998,43.1001 36.0998,44.1001 35.5,45.5C 33.2048,44.5254 31.2048,43.1921 29.5,41.5C 28.8333,41.5 28.5,41.1667 28.5,40.5 Z"/></g>
<g><path style="opacity:1" fill="#7c4d2e" d="M 93.5,44.5 C 87.5,43.1667 81.5,43.1667 75.5,44.5C 76.2623,42.7376 77.5956,41.7376 79.5,41.5C 84.9017,39.5513 89.5683,40.5513 93.5,44.5 Z"/></g>
<g><path style="opacity:1" fill="#654332" d="M 59.5,46.5 C 57.8763,48.1368 56.8763,47.8034 56.5,45.5C 57.9154,43.1282 58.2487,40.7948 57.5,38.5C 58.1667,38.5 58.5,38.1667 58.5,37.5C 59.7382,36.5876 61.0715,36.4209 62.5,37C 60.2051,39.7568 59.2051,42.9235 59.5,46.5 Z"/></g>
<g><path style="opacity:1" fill="#50e4b6" d="M 44.5,38.5 C 42.6536,38.2222 41.3202,38.8888 40.5,40.5C 41.0766,42.5499 42.4099,43.5499 44.5,43.5C 43.0998,44.1001 42.0998,45.1001 41.5,46.5C 39.2646,46.7947 37.2646,46.4614 35.5,45.5C 36.0998,44.1001 37.0998,43.1001 38.5,42.5C 39.2344,41.1225 39.9011,39.6225 40.5,38C 42.0657,37.235 43.3991,37.4017 44.5,38.5 Z"/></g>
<g><path style="opacity:1" fill="#ecc65c" d="M 21.5,47.5 C 20.391,47.4431 19.391,47.1098 18.5,46.5C 16.0517,45.0105 14.3851,45.6771 13.5,48.5C 12.5416,48.0472 11.7083,47.3805 11,46.5C 10.3828,47.4491 10.5494,48.2825 11.5,49C 8.84944,49.1534 6.51611,49.9867 4.5,51.5C 4.5,51.1667 4.5,50.8333 4.5,50.5C 8.2453,43.9941 13.912,41.6608 21.5,43.5C 21.5,44.8333 21.5,46.1667 21.5,47.5 Z"/></g>
<g><path style="opacity:1" fill="#20d687" d="M 45.5,33.5 C 47.1667,34.8333 48.8333,36.1667 50.5,37.5C 50.5,37.8333 50.5,38.1667 50.5,38.5C 51.8333,40.5 53.1667,42.5 54.5,44.5C 53.8333,44.5 53.1667,44.5 52.5,44.5C 50.4822,45.8592 48.4822,47.1925 46.5,48.5C 45.2502,48.5774 44.4169,49.244 44,50.5C 43.8784,48.563 43.045,47.2297 41.5,46.5C 42.0998,45.1001 43.0998,44.1001 44.5,43.5C 45.8333,41.8333 45.8333,40.1667 44.5,38.5C 43.3991,37.4017 42.0657,37.235 40.5,38C 39.9011,39.6225 39.2344,41.1225 38.5,42.5C 38.5,41.8333 38.1667,41.5 37.5,41.5C 37.3653,39.4458 38.032,37.7791 39.5,36.5C 41.8439,36.0603 43.8439,35.0603 45.5,33.5 Z"/></g>
<g><path style="opacity:1" fill="#230f2e" d="M 18.5,46.5 C 19.0838,49.285 18.0838,50.9517 15.5,51.5C 14.8333,50.5 14.1667,49.5 13.5,48.5C 14.3851,45.6771 16.0517,45.0105 18.5,46.5 Z"/></g>
<g><path style="opacity:1" fill="#146e5c" d="M 29.5,41.5 C 31.2048,43.1921 33.2048,44.5254 35.5,45.5C 37.2646,46.4614 39.2646,46.7947 41.5,46.5C 43.045,47.2297 43.8784,48.563 44,50.5C 44.4169,49.244 45.2502,48.5774 46.5,48.5C 46.8333,49.1667 47.1667,49.8333 47.5,50.5C 45.3036,51.7634 42.9703,52.7634 40.5,53.5C 40.0377,52.1201 39.0377,51.4534 37.5,51.5C 35.3472,51.5613 34.0138,52.5613 33.5,54.5C 33.1667,54.5 32.8333,54.5 32.5,54.5C 32.3943,49.9569 31.3943,45.6236 29.5,41.5 Z"/></g>
<g><path style="opacity:1" fill="#c5ddd5" d="M 52.5,44.5 C 52.5,45.5 52.5,46.5 52.5,47.5C 51.325,47.281 50.325,47.6143 49.5,48.5C 51.4206,49.3239 52.754,50.6572 53.5,52.5C 51.6854,51.3702 49.6854,50.7036 47.5,50.5C 47.1667,49.8333 46.8333,49.1667 46.5,48.5C 48.4822,47.1925 50.4822,45.8592 52.5,44.5 Z"/></g>
<g><path style="opacity:1" fill="#2a2730" d="M 72.5,41.5 C 74.5,40.8333 76.5,40.1667 78.5,39.5C 80.6977,39.4088 81.0311,40.0755 79.5,41.5C 77.5956,41.7376 76.2623,42.7376 75.5,44.5C 75.0825,45.2216 74.4158,45.7216 73.5,46C 74.7932,46.49 76.1266,46.6567 77.5,46.5C 77.5,47.5 77.5,48.5 77.5,49.5C 76.0695,49.5792 74.7362,49.2458 73.5,48.5C 74.0273,50.0864 73.3606,51.4198 71.5,52.5C 70.8333,52.5 70.1667,52.5 69.5,52.5C 66.9743,52.9191 64.641,53.0858 62.5,53C 63.6853,54.353 65.0186,55.5197 66.5,56.5C 67.2652,55.3881 68.2652,54.7214 69.5,54.5C 76.6943,59.7032 76.0276,61.2032 67.5,59C 68.5,58.6667 69.5,58.3333 70.5,58C 68.236,57.7638 66.0693,57.2638 64,56.5C 63.5357,57.0944 63.369,57.7611 63.5,58.5C 61.947,55.7601 60.1137,53.0934 58,50.5C 57.51,51.7932 57.3433,53.1266 57.5,54.5C 56.8333,53.5 56.1667,52.5 55.5,51.5C 54.8333,51.8333 54.1667,52.1667 53.5,52.5C 52.754,50.6572 51.4206,49.3239 49.5,48.5C 50.325,47.6143 51.325,47.281 52.5,47.5C 52.5,46.5 52.5,45.5 52.5,44.5C 53.1667,44.5 53.8333,44.5 54.5,44.5C 55.3382,44.1583 55.6716,43.4916 55.5,42.5C 56.1667,41.1667 56.8333,39.8333 57.5,38.5C 58.2487,40.7948 57.9154,43.1282 56.5,45.5C 56.8763,47.8034 57.8763,48.1368 59.5,46.5C 60.1667,46.5 60.8333,46.5 61.5,46.5C 62.2216,46.9175 62.7216,47.5842 63,48.5C 63.49,47.2068 63.6567,45.8734 63.5,44.5C 65.604,44.7989 67.604,44.4656 69.5,43.5C 68.4502,42.5712 68.4502,41.9046 69.5,41.5C 70.6921,40.4341 70.3588,39.6008 68.5,39C 70.477,37.459 72.477,36.959 74.5,37.5C 73.2634,38.2807 72.2634,39.2807 71.5,40.5C 71.6236,41.1067 71.9569,41.44 72.5,41.5 Z"/></g>
<g><path style="opacity:1" fill="#43b0aa" d="M 69.5,41.5 C 68.4502,41.9046 68.4502,42.5712 69.5,43.5C 67.604,44.4656 65.604,44.7989 63.5,44.5C 63.6567,45.8734 63.49,47.2068 63,48.5C 62.7216,47.5842 62.2216,46.9175 61.5,46.5C 61.1043,43.9556 61.771,41.7889 63.5,40C 66.0513,38.0238 68.0513,38.5238 69.5,41.5 Z"/></g>
<g><path style="opacity:1" fill="#f9f1a6" d="M 13.5,48.5 C 14.1667,49.5 14.8333,50.5 15.5,51.5C 14.0473,51.9293 12.3806,52.096 10.5,52C 11.3081,52.3076 11.9747,52.8076 12.5,53.5C 10.9275,54.6595 9.26081,55.6595 7.5,56.5C 5.23295,55.6378 4.23295,53.9711 4.5,51.5C 6.51611,49.9867 8.84944,49.1534 11.5,49C 10.5494,48.2825 10.3828,47.4491 11,46.5C 11.7083,47.3805 12.5416,48.0472 13.5,48.5 Z"/></g>
<g><path style="opacity:0.621" fill="#163f3f" d="M -0.5,46.5 C -0.166667,46.5 0.166667,46.5 0.5,46.5C 0.179494,51.6946 0.512827,56.6946 1.5,61.5C 2.10978,62.391 2.44312,63.391 2.5,64.5C 1.54885,65.9187 1.21552,67.5853 1.5,69.5C 0.833333,67.5 0.166667,65.5 -0.5,63.5C -0.5,57.8333 -0.5,52.1667 -0.5,46.5 Z"/></g>
<g><path style="opacity:1" fill="#49ca94" d="M 40.5,53.5 C 39.3146,54.8566 38.3146,56.3566 37.5,58C 38.5442,59.1739 39.5442,60.3406 40.5,61.5C 38.0225,61.9492 36.0225,61.2825 34.5,59.5C 37.1306,57.9954 36.7973,57.3287 33.5,57.5C 33.5,56.5 33.5,55.5 33.5,54.5C 34.0138,52.5613 35.3472,51.5613 37.5,51.5C 39.0377,51.4534 40.0377,52.1201 40.5,53.5 Z"/></g>
<g><path style="opacity:1" fill="#2cd38a" d="M 47.5,50.5 C 49.6854,50.7036 51.6854,51.3702 53.5,52.5C 53.8333,53.5 54.5,54.1667 55.5,54.5C 56.463,55.3635 56.463,56.0302 55.5,56.5C 54.2638,55.7542 52.9305,55.4208 51.5,55.5C 50.6274,58.6971 48.9608,61.3638 46.5,63.5C 44.6264,62.7148 42.6264,62.0482 40.5,61.5C 39.5442,60.3406 38.5442,59.1739 37.5,58C 38.3146,56.3566 39.3146,54.8566 40.5,53.5C 42.9703,52.7634 45.3036,51.7634 47.5,50.5 Z"/></g>
<g><path style="opacity:1" fill="#c5f6e0" d="M 55.5,51.5 C 55.5,52.5 55.5,53.5 55.5,54.5C 54.5,54.1667 53.8333,53.5 53.5,52.5C 54.1667,52.1667 54.8333,51.8333 55.5,51.5 Z"/></g>
<g><path style="opacity:1" fill="#623e30" d="M 63.5,58.5 C 64.4734,58.9867 65.4734,59.4867 66.5,60C 67.7383,60.69 67.7383,61.19 66.5,61.5C 63.3189,60.6515 60.6523,58.9848 58.5,56.5C 57.6618,56.1583 57.3284,55.4916 57.5,54.5C 57.3433,53.1266 57.51,51.7932 58,50.5C 60.1137,53.0934 61.947,55.7601 63.5,58.5 Z"/></g>
<g><path style="opacity:1" fill="#c79e8e" d="M 69.5,52.5 C 69.5,53.1667 69.5,53.8333 69.5,54.5C 68.2652,54.7214 67.2652,55.3881 66.5,56.5C 65.0186,55.5197 63.6853,54.353 62.5,53C 64.641,53.0858 66.9743,52.9191 69.5,52.5 Z"/></g>
<g><path style="opacity:1" fill="#24a8a4" d="M 8.5,24.5 C 9.16667,24.5 9.83333,24.5 10.5,24.5C 7.61926,29.5947 5.28593,34.9281 3.5,40.5C 2.03089,45.7204 1.36422,51.0538 1.5,56.5C 1.5,58.1667 1.5,59.8333 1.5,61.5C 0.512827,56.6946 0.179494,51.6946 0.5,46.5C 0.5,46.1667 0.5,45.8333 0.5,45.5C 1.7682,43.0948 2.43487,40.4282 2.5,37.5C 3.38237,33.4069 5.04904,29.7403 7.5,26.5C 8.33825,26.1583 8.67158,25.4916 8.5,24.5 Z"/></g>
<g><path style="opacity:1" fill="#e1fdfb" d="M 41.5,54.5 C 42.8333,54.5 44.1667,54.5 45.5,54.5C 45.5,56.1667 45.5,57.8333 45.5,59.5C 43.8333,59.5 42.1667,59.5 40.5,59.5C 40.366,57.7085 40.6993,56.0418 41.5,54.5 Z"/></g>
<g><path style="opacity:1" fill="#cbbb9a" d="M 22.5,52.5 C 22.7214,53.7348 23.3881,54.7348 24.5,55.5C 23.5,56.1667 22.5,56.8333 21.5,57.5C 22.2458,58.7362 22.5792,60.0695 22.5,61.5C 19.4122,62.8015 16.4122,63.1348 13.5,62.5C 14.1667,62.5 14.5,62.1667 14.5,61.5C 16.2569,60.9157 17.5902,59.749 18.5,58C 18.2517,56.2509 17.2517,55.4176 15.5,55.5C 16.635,54.5255 17.635,53.3588 18.5,52C 20.0657,51.235 21.3991,51.4017 22.5,52.5 Z"/></g>
<g><path style="opacity:1" fill="#e7d49d" d="M 18.5,46.5 C 19.391,47.1098 20.391,47.4431 21.5,47.5C 21.8212,49.0481 22.8212,49.7148 24.5,49.5C 24.7148,51.1788 24.0481,52.1788 22.5,52.5C 21.3991,51.4017 20.0657,51.235 18.5,52C 17.635,53.3588 16.635,54.5255 15.5,55.5C 13.2139,57.0747 12.8806,59.0747 14.5,61.5C 14.5,62.1667 14.1667,62.5 13.5,62.5C 8.46707,62.4511 5.13374,60.1177 3.5,55.5C 3.21552,53.5853 3.54885,51.9187 4.5,50.5C 4.5,50.8333 4.5,51.1667 4.5,51.5C 4.23295,53.9711 5.23295,55.6378 7.5,56.5C 9.26081,55.6595 10.9275,54.6595 12.5,53.5C 11.9747,52.8076 11.3081,52.3076 10.5,52C 12.3806,52.096 14.0473,51.9293 15.5,51.5C 18.0838,50.9517 19.0838,49.285 18.5,46.5 Z"/></g>
<g><path style="opacity:1" fill="#8ba399" d="M 55.5,51.5 C 56.1667,52.5 56.8333,53.5 57.5,54.5C 57.3284,55.4916 57.6618,56.1583 58.5,56.5C 58.4142,57.4959 58.7476,58.3292 59.5,59C 57.4144,59.3153 55.4144,59.8153 53.5,60.5C 52.8333,58.8333 52.1667,57.1667 51.5,55.5C 52.9305,55.4208 54.2638,55.7542 55.5,56.5C 56.463,56.0302 56.463,55.3635 55.5,54.5C 55.5,53.5 55.5,52.5 55.5,51.5 Z"/></g>
<g><path style="opacity:1" fill="#271324" d="M 15.5,55.5 C 17.2517,55.4176 18.2517,56.2509 18.5,58C 17.5902,59.749 16.2569,60.9157 14.5,61.5C 12.8806,59.0747 13.2139,57.0747 15.5,55.5 Z"/></g>
<g><path style="opacity:1" fill="#243f45" d="M 32.5,54.5 C 32.8333,54.5 33.1667,54.5 33.5,54.5C 33.5,55.5 33.5,56.5 33.5,57.5C 36.7973,57.3287 37.1306,57.9954 34.5,59.5C 36.0225,61.2825 38.0225,61.9492 40.5,61.5C 42.6264,62.0482 44.6264,62.7148 46.5,63.5C 45.6112,65.0252 46.2779,66.0252 48.5,66.5C 48.5,66.8333 48.5,67.1667 48.5,67.5C 46.2341,67.8588 44.4007,67.1922 43,65.5C 42.6174,66.056 42.1174,66.3893 41.5,66.5C 39.8968,65.4036 38.3968,64.0703 37,62.5C 36.5357,63.0944 36.369,63.7611 36.5,64.5C 35.8333,64.5 35.5,64.8333 35.5,65.5C 34.3951,64.3995 33.0618,63.7329 31.5,63.5C 29.6509,59.3598 29.1509,55.0265 30,50.5C 30.6082,52.0664 31.4415,53.3998 32.5,54.5 Z"/></g>
<g><path style="opacity:1" fill="#3d3a4e" d="M 3.5,55.5 C 5.13374,60.1177 8.46707,62.4511 13.5,62.5C 16.4122,63.1348 19.4122,62.8015 22.5,61.5C 23.5,61.5 24.5,61.5 25.5,61.5C 25.298,63.9496 25.6314,66.283 26.5,68.5C 27.7653,71.5248 29.432,74.3582 31.5,77C 32.8193,77.195 34.1526,77.0283 35.5,76.5C 34.0401,78.4628 32.3734,80.2962 30.5,82C 31.0944,82.4643 31.7611,82.631 32.5,82.5C 31.7377,84.2624 30.4044,85.2624 28.5,85.5C 29.463,84.6365 29.463,83.9698 28.5,83.5C 26.8144,84.8569 25.1477,86.1902 23.5,87.5C 22.9032,86.8614 22.0698,86.528 21,86.5C 18.5284,87.3219 16.0284,87.9886 13.5,88.5C 10.1284,87.2947 7.96171,84.9614 7,81.5C 6.53566,82.0944 6.36899,82.7611 6.5,83.5C 5.45938,80.4448 4.12605,77.1115 2.5,73.5C 3.3635,74.463 4.03017,74.463 4.5,73.5C 3.57741,70.5534 2.91074,67.5534 2.5,64.5C 2.44312,63.391 2.10978,62.391 1.5,61.5C 1.5,59.8333 1.5,58.1667 1.5,56.5C 2.49162,56.6716 3.15829,56.3382 3.5,55.5 Z"/></g>
<g><path style="opacity:1" fill="#1e1a2e" d="M 93.5,44.5 C 95.2572,45.292 96.5905,46.6253 97.5,48.5C 95.4483,51.5355 93.4483,54.5355 91.5,57.5C 88.7305,58.9722 85.7305,60.1389 82.5,61C 86.1344,63.0421 86.4678,65.5421 83.5,68.5C 82.8333,68.5 82.1667,68.5 81.5,68.5C 81.7373,67.209 81.404,66.209 80.5,65.5C 79.6676,64.6715 80.001,63.8382 81.5,63C 80.2713,62.2189 78.938,61.7189 77.5,61.5C 74.1796,62.2974 70.8462,62.9641 67.5,63.5C 67.1667,62.8333 66.8333,62.1667 66.5,61.5C 67.7383,61.19 67.7383,60.69 66.5,60C 65.4734,59.4867 64.4734,58.9867 63.5,58.5C 63.369,57.7611 63.5357,57.0944 64,56.5C 66.0693,57.2638 68.236,57.7638 70.5,58C 69.5,58.3333 68.5,58.6667 67.5,59C 76.0276,61.2032 76.6943,59.7032 69.5,54.5C 69.5,53.8333 69.5,53.1667 69.5,52.5C 70.1667,52.5 70.8333,52.5 71.5,52.5C 73.3606,51.4198 74.0273,50.0864 73.5,48.5C 74.7362,49.2458 76.0695,49.5792 77.5,49.5C 77.5,48.5 77.5,47.5 77.5,46.5C 76.1266,46.6567 74.7932,46.49 73.5,46C 74.4158,45.7216 75.0825,45.2216 75.5,44.5C 81.5,43.1667 87.5,43.1667 93.5,44.5 Z"/></g>
<g><path style="opacity:1" fill="#77523a" d="M 71.5,52.5 C 76.4074,55.2063 81.7407,56.7063 87.5,57C 83.9613,58.5039 80.2946,58.8372 76.5,58C 73.921,56.9243 72.2543,55.091 71.5,52.5 Z"/></g>
<g><path style="opacity:1" fill="#714737" d="M 79.5,45.5 C 85.2328,44.8951 90.5661,46.0617 95.5,49C 92.9862,50.4515 90.3195,51.6182 87.5,52.5C 88.7287,53.2811 90.062,53.7811 91.5,54C 87.5,54.6667 83.5,54.6667 79.5,54C 77.9559,53.7104 76.6226,53.0437 75.5,52C 77.3921,51.0266 79.3921,50.3599 81.5,50C 80.8333,49.6667 80.1667,49.3333 79.5,49C 80.1712,48.0138 80.1712,46.8471 79.5,45.5 Z"/></g>
<g><path style="opacity:1" fill="#a97282" d="M 53.5,61.5 C 53.8333,61.5 54.1667,61.5 54.5,61.5C 53.5,64.5 51.5,66.5 48.5,67.5C 48.5,67.1667 48.5,66.8333 48.5,66.5C 49.9473,64.5968 51.614,62.9301 53.5,61.5 Z"/></g>
<g><path style="opacity:1" fill="#181c32" d="M 26.5,38.5 C 26.8333,39.5 27.5,40.1667 28.5,40.5C 28.5,41.1667 28.8333,41.5 29.5,41.5C 31.3943,45.6236 32.3943,49.9569 32.5,54.5C 31.4415,53.3998 30.6082,52.0664 30,50.5C 29.1509,55.0265 29.6509,59.3598 31.5,63.5C 32.3029,64.4232 32.4696,65.4232 32,66.5C 30.478,64.2591 29.1447,61.9258 28,59.5C 27.8333,60 27.6667,60.5 27.5,61C 28.8031,63.7435 29.8031,66.5768 30.5,69.5C 29.2921,68.7659 27.9587,68.4326 26.5,68.5C 25.6314,66.283 25.298,63.9496 25.5,61.5C 24.5,61.5 23.5,61.5 22.5,61.5C 22.5792,60.0695 22.2458,58.7362 21.5,57.5C 22.5,56.8333 23.5,56.1667 24.5,55.5C 23.3881,54.7348 22.7214,53.7348 22.5,52.5C 24.0481,52.1788 24.7148,51.1788 24.5,49.5C 22.8212,49.7148 21.8212,49.0481 21.5,47.5C 23.1612,44.5033 24.8279,41.5033 26.5,38.5 Z"/></g>
<g><path style="opacity:1" fill="#32afad" d="M 41.5,66.5 C 39.2572,67.8584 37.5905,67.1917 36.5,64.5C 36.369,63.7611 36.5357,63.0944 37,62.5C 38.3968,64.0703 39.8968,65.4036 41.5,66.5 Z"/></g>
<g><path style="opacity:1" fill="#bbe6d7" d="M 51.5,55.5 C 52.1667,57.1667 52.8333,58.8333 53.5,60.5C 50.8333,60.8333 50.8333,61.1667 53.5,61.5C 51.614,62.9301 49.9473,64.5968 48.5,66.5C 46.2779,66.0252 45.6112,65.0252 46.5,63.5C 48.9608,61.3638 50.6274,58.6971 51.5,55.5 Z"/></g>
<g><path style="opacity:1" fill="#2d1d35" d="M 58.5,56.5 C 60.6523,58.9848 63.3189,60.6515 66.5,61.5C 66.8333,62.1667 67.1667,62.8333 67.5,63.5C 68.9885,65.6451 69.9885,67.9785 70.5,70.5C 73.475,70.2866 76.1416,69.2866 78.5,67.5C 80.2141,68.6085 80.8808,67.9418 80.5,65.5C 81.404,66.209 81.7373,67.209 81.5,68.5C 79.0174,71.7414 75.6841,73.4081 71.5,73.5C 68.8068,72.1534 66.1401,70.8201 63.5,69.5C 61.0042,67.2311 58.0042,65.8977 54.5,65.5C 54.9186,64.3279 55.5853,63.3279 56.5,62.5C 57.3957,63.5063 58.0623,63.5063 58.5,62.5C 57.3112,61.5713 55.9778,61.238 54.5,61.5C 54.1667,61.5 53.8333,61.5 53.5,61.5C 50.8333,61.1667 50.8333,60.8333 53.5,60.5C 55.4144,59.8153 57.4144,59.3153 59.5,59C 58.7476,58.3292 58.4142,57.4959 58.5,56.5 Z"/></g>
<g><path style="opacity:1" fill="#309792" d="M 2.5,64.5 C 2.91074,67.5534 3.57741,70.5534 4.5,73.5C 4.03017,74.463 3.3635,74.463 2.5,73.5C 1.56552,72.4324 1.23219,71.099 1.5,69.5C 1.21552,67.5853 1.54885,65.9187 2.5,64.5 Z"/></g>
<g><path style="opacity:1" fill="#472935" d="M 31.5,63.5 C 33.0618,63.7329 34.3951,64.3995 35.5,65.5C 36.6253,67.1288 37.9586,68.6288 39.5,70C 34.2792,70.5423 34.2792,71.3756 39.5,72.5C 38.277,73.6139 36.9437,73.7805 35.5,73C 33.6769,72.0027 32.0103,70.8361 30.5,69.5C 29.8031,66.5768 28.8031,63.7435 27.5,61C 27.6667,60.5 27.8333,60 28,59.5C 29.1447,61.9258 30.478,64.2591 32,66.5C 32.4696,65.4232 32.3029,64.4232 31.5,63.5 Z"/></g>
<g><path style="opacity:1" fill="#4f3034" d="M 80.5,65.5 C 80.8808,67.9418 80.2141,68.6085 78.5,67.5C 76.1416,69.2866 73.475,70.2866 70.5,70.5C 69.9885,67.9785 68.9885,65.6451 67.5,63.5C 70.8462,62.9641 74.1796,62.2974 77.5,61.5C 78.938,61.7189 80.2713,62.2189 81.5,63C 80.001,63.8382 79.6676,64.6715 80.5,65.5 Z"/></g>
<g><path style="opacity:1" fill="#231939" d="M 54.5,61.5 C 55.9778,61.238 57.3112,61.5713 58.5,62.5C 58.0623,63.5063 57.3957,63.5063 56.5,62.5C 55.5853,63.3279 54.9186,64.3279 54.5,65.5C 58.0042,65.8977 61.0042,67.2311 63.5,69.5C 64.7158,71.4509 66.3825,72.9509 68.5,74C 67.9056,74.4643 67.2389,74.631 66.5,74.5C 64.8333,73.1667 63.1667,71.8333 61.5,70.5C 60.3409,68.6231 58.6742,68.1231 56.5,69C 57.6956,69.6543 57.6956,70.1543 56.5,70.5C 55.8333,70.1667 55.1667,69.8333 54.5,69.5C 54.5,70.5 54.5,71.5 54.5,72.5C 53.1861,71.6872 52.0195,70.6872 51,69.5C 50.3333,70.8333 49.3333,71.8333 48,72.5C 47.1072,71.2888 46.2739,71.2888 45.5,72.5C 48.3011,75.1753 47.9678,77.5087 44.5,79.5C 44.0941,78.4425 44.0941,77.1092 44.5,75.5C 42.5,75.5 40.5,75.5 38.5,75.5C 37.221,74.2848 36.221,74.6182 35.5,76.5C 34.1526,77.0283 32.8193,77.195 31.5,77C 29.432,74.3582 27.7653,71.5248 26.5,68.5C 27.9587,68.4326 29.2921,68.7659 30.5,69.5C 32.0103,70.8361 33.6769,72.0027 35.5,73C 36.9437,73.7805 38.277,73.6139 39.5,72.5C 34.2792,71.3756 34.2792,70.5423 39.5,70C 37.9586,68.6288 36.6253,67.1288 35.5,65.5C 35.5,64.8333 35.8333,64.5 36.5,64.5C 37.5905,67.1917 39.2572,67.8584 41.5,66.5C 42.1174,66.3893 42.6174,66.056 43,65.5C 44.4007,67.1922 46.2341,67.8588 48.5,67.5C 51.5,66.5 53.5,64.5 54.5,61.5 Z"/></g>
<g><path style="opacity:1" fill="#2ac3c2" d="M 9.5,71.5 C 10.2389,71.369 10.9056,71.5357 11.5,72C 9.33333,73.5 7.5,75.3333 6,77.5C 5.21948,76.0563 5.38615,74.723 6.5,73.5C 7.73867,73.0576 8.73867,72.3909 9.5,71.5 Z"/></g>
<g><path style="opacity:0.929" fill="#164954" d="M 81.5,68.5 C 82.1667,68.5 82.8333,68.5 83.5,68.5C 82.2209,71.6519 79.8875,73.6519 76.5,74.5C 74.5853,74.7845 72.9187,74.4511 71.5,73.5C 75.6841,73.4081 79.0174,71.7414 81.5,68.5 Z"/></g>
<g><path style="opacity:1" fill="#659b99" d="M 38.5,75.5 C 37.6618,75.8417 37.3284,76.5084 37.5,77.5C 36.1667,79.5 34.5,81.1667 32.5,82.5C 31.7611,82.631 31.0944,82.4643 30.5,82C 32.3734,80.2962 34.0401,78.4628 35.5,76.5C 36.221,74.6182 37.221,74.2848 38.5,75.5 Z"/></g>
<g><path style="opacity:1" fill="#3b2635" d="M 61.5,70.5 C 61.719,71.675 61.3857,72.675 60.5,73.5C 59.3801,72.1666 58.0468,71.6666 56.5,72C 57.9284,74.1847 59.5951,76.1847 61.5,78C 63.9047,78.2812 63.9047,77.6146 61.5,76C 63.3817,75.8019 65.0484,75.3019 66.5,74.5C 67.2389,74.631 67.9056,74.4643 68.5,74C 66.3825,72.9509 64.7158,71.4509 63.5,69.5C 66.1401,70.8201 68.8068,72.1534 71.5,73.5C 72.9187,74.4511 74.5853,74.7845 76.5,74.5C 75.791,75.404 74.791,75.7373 73.5,75.5C 69.5009,77.1664 65.5009,78.8331 61.5,80.5C 60.5,80.3333 59.5,80.1667 58.5,80C 57.6959,78.2287 56.5292,76.7287 55,75.5C 54.9717,77.7866 55.805,79.7866 57.5,81.5C 56.8333,81.8333 56.1667,82.1667 55.5,82.5C 55.205,80.5767 54.3717,78.9101 53,77.5C 52.7547,79.6633 51.7547,81.33 50,82.5C 49.51,81.2068 49.3433,79.8734 49.5,78.5C 48.209,78.2627 47.209,78.596 46.5,79.5C 44.9119,81.6157 42.9119,81.949 40.5,80.5C 41.2458,79.2638 41.5792,77.9305 41.5,76.5C 40.0413,76.4326 38.7079,76.7659 37.5,77.5C 37.3284,76.5084 37.6618,75.8417 38.5,75.5C 40.5,75.5 42.5,75.5 44.5,75.5C 44.0941,77.1092 44.0941,78.4425 44.5,79.5C 47.9678,77.5087 48.3011,75.1753 45.5,72.5C 46.2739,71.2888 47.1072,71.2888 48,72.5C 49.3333,71.8333 50.3333,70.8333 51,69.5C 52.0195,70.6872 53.1861,71.6872 54.5,72.5C 54.5,71.5 54.5,70.5 54.5,69.5C 55.1667,69.8333 55.8333,70.1667 56.5,70.5C 57.6956,70.1543 57.6956,69.6543 56.5,69C 58.6742,68.1231 60.3409,68.6231 61.5,70.5 Z"/></g>
<g><path style="opacity:1" fill="#855442" d="M 61.5,70.5 C 63.1667,71.8333 64.8333,73.1667 66.5,74.5C 65.0484,75.3019 63.3817,75.8019 61.5,76C 63.9047,77.6146 63.9047,78.2812 61.5,78C 59.5951,76.1847 57.9284,74.1847 56.5,72C 58.0468,71.6666 59.3801,72.1666 60.5,73.5C 61.3857,72.675 61.719,71.675 61.5,70.5 Z"/></g>
<g><path style="opacity:1" fill="#4b909d" d="M 6.5,78.5 C 8.28801,78.2148 9.95467,78.5481 11.5,79.5C 10.6667,79.8333 9.83333,80.1667 9,80.5C 7.62439,80.3158 6.79106,79.6491 6.5,78.5 Z"/></g>
<g><path style="opacity:0.847" fill="#1a333b" d="M 73.5,75.5 C 70.772,78.7089 67.4387,81.2089 63.5,83C 61.0106,83.9411 59.0106,83.4411 57.5,81.5C 55.805,79.7866 54.9717,77.7866 55,75.5C 56.5292,76.7287 57.6959,78.2287 58.5,80C 59.5,80.1667 60.5,80.3333 61.5,80.5C 65.5009,78.8331 69.5009,77.1664 73.5,75.5 Z"/></g>
<g><path style="opacity:1" fill="#1d292b" d="M 55.5,82.5 C 54.2867,84.676 52.62,85.0093 50.5,83.5C 47.7315,85.6061 44.7315,87.2728 41.5,88.5C 40.8333,88.1667 40.1667,87.8333 39.5,87.5C 42.472,85.6944 45.3053,83.6944 48,81.5C 48.5281,80.184 48.0281,79.5173 46.5,79.5C 47.209,78.596 48.209,78.2627 49.5,78.5C 49.3433,79.8734 49.51,81.2068 50,82.5C 51.7547,81.33 52.7547,79.6633 53,77.5C 54.3717,78.9101 55.205,80.5767 55.5,82.5 Z"/></g>
<g><path style="opacity:0.718" fill="#121c2a" d="M 8.5,87.5 C 11.5885,88.2435 12.2551,89.9102 10.5,92.5C 9.06873,91.2196 8.40206,89.5529 8.5,87.5 Z"/></g>
<g><path style="opacity:1" fill="#469c9c" d="M 13.5,88.5 C 13.4142,89.4959 13.7476,90.3292 14.5,91C 11.9722,91.6689 11.9722,92.5022 14.5,93.5C 17.7007,91.7378 20.7007,89.7378 23.5,87.5C 25.1477,86.1902 26.8144,84.8569 28.5,83.5C 29.463,83.9698 29.463,84.6365 28.5,85.5C 25.0226,89.0669 21.3559,92.4002 17.5,95.5C 15.8333,95.5 14.1667,95.5 12.5,95.5C 11.8333,94.5 11.1667,93.5 10.5,92.5C 12.2551,89.9102 11.5885,88.2435 8.5,87.5C 6.89578,86.713 6.22911,85.3797 6.5,83.5C 6.36899,82.7611 6.53566,82.0944 7,81.5C 7.96171,84.9614 10.1284,87.2947 13.5,88.5 Z"/></g>
<g><path style="opacity:1" fill="#371534" d="M 23.5,87.5 C 20.7007,89.7378 17.7007,91.7378 14.5,93.5C 11.9722,92.5022 11.9722,91.6689 14.5,91C 13.7476,90.3292 13.4142,89.4959 13.5,88.5C 16.0284,87.9886 18.5284,87.3219 21,86.5C 22.0698,86.528 22.9032,86.8614 23.5,87.5 Z"/></g>
</svg>
