<?xml version="1.0" encoding="UTF-8"?>
<!DOCTYPE svg PUBLIC "-//W3C//DTD SVG 1.1//EN" "http://www.w3.org/Graphics/SVG/1.1/DTD/svg11.dtd">
<svg xmlns="http://www.w3.org/2000/svg" version="1.1" width="100px" height="68px" style="shape-rendering:geometricPrecision; text-rendering:geometricPrecision; image-rendering:optimizeQuality; fill-rule:evenodd; clip-rule:evenodd" xmlns:xlink="http://www.w3.org/1999/xlink">
<g><path style="opacity:1" fill="#5c6347" d="M 49.5,-0.5 C 50.5,-0.5 51.5,-0.5 52.5,-0.5C 51.8535,1.15611 51.1869,2.82277 50.5,4.5C 50.5427,5.41638 50.8761,6.08305 51.5,6.5C 51.1583,7.33825 50.4916,7.67158 49.5,7.5C 49.7947,5.26465 49.4614,3.26465 48.5,1.5C 48.8333,0.833333 49.1667,0.166667 49.5,-0.5 Z"/></g>
<g><path style="opacity:0.804" fill="#573e2d" d="M 58.5,7.5 C 56.9397,5.87064 57.273,4.70398 59.5,4C 57.8034,3.61553 56.1368,3.78219 54.5,4.5C 56.2894,2.99285 58.2894,1.65951 60.5,0.5C 61.8564,3.40738 61.1897,5.74071 58.5,7.5 Z"/></g>
<g><path style="opacity:1" fill="#d3e9af" d="M 48.5,1.5 C 49.4614,3.26465 49.7947,5.26465 49.5,7.5C 47.8097,13.7257 46.643,13.7257 46,7.5C 45.6667,8.5 45.3333,9.5 45,10.5C 44.3996,7.90466 44.8996,5.57133 46.5,3.5C 46.8333,2.5 47.5,1.83333 48.5,1.5 Z"/></g>
<g><path style="opacity:1" fill="#b0905a" d="M 46.5,3.5 C 44.8996,5.57133 44.3996,7.90466 45,10.5C 45.3333,9.5 45.6667,8.5 46,7.5C 46.643,13.7257 47.8097,13.7257 49.5,7.5C 50.4916,7.67158 51.1583,7.33825 51.5,6.5C 52.2905,5.59872 53.2905,4.93205 54.5,4.5C 56.1368,3.78219 57.8034,3.61553 59.5,4C 57.273,4.70398 56.9397,5.87064 58.5,7.5C 57.1667,9.5 55.5,11.1667 53.5,12.5C 50.8229,13.6145 48.1562,13.6145 45.5,12.5C 43.9951,11.1585 43.3285,9.49181 43.5,7.5C 43.7376,5.59565 44.7376,4.26231 46.5,3.5 Z"/></g>
<g><path style="opacity:1" fill="#341c34" d="M 81.5,11.5 C 80.8333,11.8333 80.1667,12.1667 79.5,12.5C 78.9467,10.3431 77.9467,10.5097 76.5,13C 74.6131,13.7796 72.9464,13.6129 71.5,12.5C 71.5,12.1667 71.5,11.8333 71.5,11.5C 72.7409,9.06879 73.9076,9.06879 75,11.5C 76.4653,9.08501 78.632,8.08501 81.5,8.5C 81.5,9.5 81.5,10.5 81.5,11.5 Z"/></g>
<g><path style="opacity:1" fill="#1e3e3e" d="M 67.5,9.5 C 66.3446,13.7591 63.5113,16.0924 59,16.5C 57.9701,16.1639 57.4701,15.4972 57.5,14.5C 58.452,13.548 59.452,12.548 60.5,11.5C 61.1924,12.0253 61.6924,12.6919 62,13.5C 64.6938,12.0542 65.5271,10.0542 64.5,7.5C 65.325,6.61432 66.325,6.28099 67.5,6.5C 67.5,7.5 67.5,8.5 67.5,9.5 Z"/></g>
<g><path style="opacity:1" fill="#b88f5b" d="M 21.5,11.5 C 25.4163,12.9877 29.4163,13.4877 33.5,13C 35.935,13.0748 36.6016,13.9081 35.5,15.5C 34.7095,16.4013 33.7095,17.0679 32.5,17.5C 32.5852,16.0047 31.9185,15.0047 30.5,14.5C 28.8273,16.0863 26.8273,16.7529 24.5,16.5C 24.719,15.325 24.3857,14.325 23.5,13.5C 22.7025,13.9569 22.3691,14.6236 22.5,15.5C 21.1751,14.0474 20.3418,14.3808 20,16.5C 18.3426,13.84 16.6759,13.84 15,16.5C 14.6454,15.4909 13.8121,14.8243 12.5,14.5C 15.2062,11.9489 18.2062,10.9489 21.5,11.5 Z"/></g>
<g><path style="opacity:1" fill="#4f3b30" d="M 40.5,10.5 C 40.1583,11.3382 39.4916,11.6716 38.5,11.5C 37.9779,13.2191 36.9779,14.5525 35.5,15.5C 36.6016,13.9081 35.935,13.0748 33.5,13C 29.4163,13.4877 25.4163,12.9877 21.5,11.5C 24.1369,11.2269 26.4702,10.8936 28.5,10.5C 30.8333,11.1667 33.1667,11.8333 35.5,12.5C 36.626,9.79675 38.2927,9.13009 40.5,10.5 Z"/></g>
<g><path style="opacity:1" fill="#315753" d="M 79.5,12.5 C 79.5,13.1667 79.1667,13.5 78.5,13.5C 76.0872,15.0507 73.4206,15.7174 70.5,15.5C 68.0155,14.7399 68.0155,13.7399 70.5,12.5C 70.8333,12.5 71.1667,12.5 71.5,12.5C 72.9464,13.6129 74.6131,13.7796 76.5,13C 77.9467,10.5097 78.9467,10.3431 79.5,12.5 Z"/></g>
<g><path style="opacity:1" fill="#c4b783" d="M 12.5,14.5 C 13.8121,14.8243 14.6454,15.4909 15,16.5C 16.6759,13.84 18.3426,13.84 20,16.5C 20.3418,14.3808 21.1751,14.0474 22.5,15.5C 22.0113,16.9952 21.3446,18.3285 20.5,19.5C 20.5654,19.0618 20.3988,18.7284 20,18.5C 19.6232,19.9423 18.7899,20.9423 17.5,21.5C 16.1986,20.36 15.0319,19.0267 14,17.5C 11.5134,19.8089 9.51335,22.4756 8,25.5C 7.31001,26.7383 6.81001,26.7383 6.5,25.5C 6.5,24.8333 6.5,24.1667 6.5,23.5C 7.90632,23.0269 8.57298,22.0269 8.5,20.5C 8.87025,17.733 10.2036,15.733 12.5,14.5 Z"/></g>
<g><path style="opacity:1" fill="#ccc392" d="M 32.5,17.5 C 30.5273,18.806 28.8606,20.4727 27.5,22.5C 27.1667,22.5 26.8333,22.5 26.5,22.5C 24.632,15.9575 22.7987,16.2908 21,23.5C 20.51,22.2068 20.3433,20.8734 20.5,19.5C 21.3446,18.3285 22.0113,16.9952 22.5,15.5C 22.3691,14.6236 22.7025,13.9569 23.5,13.5C 24.3857,14.325 24.719,15.325 24.5,16.5C 26.8273,16.7529 28.8273,16.0863 30.5,14.5C 31.9185,15.0047 32.5852,16.0047 32.5,17.5 Z"/></g>
<g><path style="opacity:1" fill="#2b4480" d="M 51.5,16.5 C 53.7541,17.4151 55.7541,18.7484 57.5,20.5C 58.1098,21.391 58.4431,22.391 58.5,23.5C 58.5,24.1667 58.5,24.8333 58.5,25.5C 58.5,26.5 58.5,27.5 58.5,28.5C 57.8826,28.6107 57.3826,28.944 57,29.5C 58.3242,25.3062 57.1575,21.9728 53.5,19.5C 52.8333,18.5 52.1667,17.5 51.5,16.5 Z"/></g>
<g><path style="opacity:1" fill="#325d55" d="M 79.5,17.5 C 78.791,18.404 77.791,18.7373 76.5,18.5C 75.2486,17.528 75.582,16.8614 77.5,16.5C 78.4164,16.5427 79.0831,16.8761 79.5,17.5 Z"/></g>
<g><path style="opacity:1" fill="#1e2339" d="M 38.5,11.5 C 38.9528,12.4584 39.6195,13.2917 40.5,14C 44.1667,14.3333 47.8333,14.6667 51.5,15C 50.944,15.3826 50.6107,15.8826 50.5,16.5C 50.1667,16.5 49.8333,16.5 49.5,16.5C 45.837,15.8875 42.1703,15.7208 38.5,16C 35.8875,17.0712 35.8875,17.9045 38.5,18.5C 36.8439,20.0603 34.8439,21.0603 32.5,21.5C 31.6618,21.8417 31.3284,22.5084 31.5,23.5C 30.1667,23.1667 28.8333,22.8333 27.5,22.5C 28.8606,20.4727 30.5273,18.806 32.5,17.5C 33.7095,17.0679 34.7095,16.4013 35.5,15.5C 36.9779,14.5525 37.9779,13.2191 38.5,11.5 Z"/></g>
<g><path style="opacity:1" fill="#208f81" d="M 40.5,22.5 C 37.9455,21.612 35.2788,21.2786 32.5,21.5C 34.8439,21.0603 36.8439,20.0603 38.5,18.5C 40.2646,17.5386 42.2646,17.2053 44.5,17.5C 45.3843,23.1933 44.2176,24.1933 41,20.5C 40.5357,21.0944 40.369,21.7611 40.5,22.5 Z"/></g>
<g><path style="opacity:1" fill="#3e2536" d="M 43.5,7.5 C 43.3285,9.49181 43.9951,11.1585 45.5,12.5C 48.1562,13.6145 50.8229,13.6145 53.5,12.5C 53.3893,13.1174 53.056,13.6174 52.5,14C 54.3423,13.932 56.009,14.0986 57.5,14.5C 57.4701,15.4972 57.9701,16.1639 59,16.5C 63.5113,16.0924 66.3446,13.7591 67.5,9.5C 68.7079,8.76589 70.0413,8.43255 71.5,8.5C 71.5,9.5 71.5,10.5 71.5,11.5C 70.8333,11.5 70.5,11.8333 70.5,12.5C 68.0155,13.7399 68.0155,14.7399 70.5,15.5C 66.1429,16.8348 61.8096,18.5014 57.5,20.5C 55.7541,18.7484 53.7541,17.4151 51.5,16.5C 51.1667,16.5 50.8333,16.5 50.5,16.5C 50.6107,15.8826 50.944,15.3826 51.5,15C 47.8333,14.6667 44.1667,14.3333 40.5,14C 39.6195,13.2917 38.9528,12.4584 38.5,11.5C 39.4916,11.6716 40.1583,11.3382 40.5,10.5C 41.8999,9.90018 42.8999,8.90018 43.5,7.5 Z"/></g>
<g><path style="opacity:1" fill="#1f172d" d="M 81.5,11.5 C 83.9815,12.6962 83.9815,14.1962 81.5,16C 82.056,16.3826 82.3893,16.8826 82.5,17.5C 81.5,17.5 80.5,17.5 79.5,17.5C 79.0831,16.8761 78.4164,16.5427 77.5,16.5C 75.582,16.8614 75.2486,17.528 76.5,18.5C 75.9094,19.1515 75.2427,19.8182 74.5,20.5C 71.1667,21.1667 67.8333,21.8333 64.5,22.5C 63.7573,23.1818 63.0906,23.8485 62.5,24.5C 61.1667,24.1667 59.8333,23.8333 58.5,23.5C 58.4431,22.391 58.1098,21.391 57.5,20.5C 61.8096,18.5014 66.1429,16.8348 70.5,15.5C 73.4206,15.7174 76.0872,15.0507 78.5,13.5C 80.3318,14.7181 81.3318,14.0514 81.5,11.5 Z"/></g>
<g><path style="opacity:1" fill="#23d6bc" d="M 32.5,21.5 C 35.2788,21.2786 37.9455,21.612 40.5,22.5C 42.2798,23.9899 42.9465,25.9899 42.5,28.5C 41.5,29.1667 40.5,29.8333 39.5,30.5C 39.7845,28.5853 39.4511,26.9187 38.5,25.5C 37.9976,23.9153 36.9976,23.4153 35.5,24C 33.9632,25.1096 33.2965,26.6096 33.5,28.5C 31.3411,27.2151 30.6745,25.5485 31.5,23.5C 31.3284,22.5084 31.6618,21.8417 32.5,21.5 Z"/></g>
<g><path style="opacity:0.71" fill="#576565" d="M 8.5,20.5 C 8.57298,22.0269 7.90632,23.0269 6.5,23.5C 6.42702,21.9731 7.09368,20.9731 8.5,20.5 Z"/></g>
<g><path style="opacity:1" fill="#222135" d="M 49.5,16.5 C 50.379,18.228 51.0457,20.0614 51.5,22C 50.3743,24.4227 49.3743,26.9227 48.5,29.5C 46.4436,30.161 44.4436,29.8277 42.5,28.5C 42.9465,25.9899 42.2798,23.9899 40.5,22.5C 40.369,21.7611 40.5357,21.0944 41,20.5C 44.2176,24.1933 45.3843,23.1933 44.5,17.5C 42.2646,17.2053 40.2646,17.5386 38.5,18.5C 35.8875,17.9045 35.8875,17.0712 38.5,16C 42.1703,15.7208 45.837,15.8875 49.5,16.5 Z"/></g>
<g><path style="opacity:1" fill="#281b2b" d="M 79.5,17.5 C 80.5,17.5 81.5,17.5 82.5,17.5C 85.1667,18.1667 86.8333,19.8333 87.5,22.5C 86.1667,22.8333 84.8333,23.1667 83.5,23.5C 79.5406,23.1476 75.5406,22.8142 71.5,22.5C 68.5804,23.5856 65.5804,24.2523 62.5,24.5C 63.0906,23.8485 63.7573,23.1818 64.5,22.5C 67.8333,21.8333 71.1667,21.1667 74.5,20.5C 75.2427,19.8182 75.9094,19.1515 76.5,18.5C 77.791,18.7373 78.791,18.404 79.5,17.5 Z"/></g>
<g><path style="opacity:1" fill="#17152c" d="M 83.5,23.5 C 82.8333,24.8333 82.1667,26.1667 81.5,27.5C 79.8828,28.038 78.2161,28.3713 76.5,28.5C 72.6039,30.1317 68.9373,29.7984 65.5,27.5C 66.9989,26.0962 66.6656,25.4296 64.5,25.5C 63.8333,25.6667 63.1667,25.8333 62.5,26C 63.2524,26.6708 63.5858,27.5041 63.5,28.5C 62.078,27.075 60.4113,26.075 58.5,25.5C 58.5,24.8333 58.5,24.1667 58.5,23.5C 59.8333,23.8333 61.1667,24.1667 62.5,24.5C 65.5804,24.2523 68.5804,23.5856 71.5,22.5C 75.5406,22.8142 79.5406,23.1476 83.5,23.5 Z"/></g>
<g><path style="opacity:0.973" fill="#464f50" d="M 6.5,23.5 C 6.5,24.1667 6.5,24.8333 6.5,25.5C 5.5,26.1667 4.5,26.8333 3.5,27.5C 3.73758,25.5956 4.73758,24.2623 6.5,23.5 Z"/></g>
<g><path style="opacity:1" fill="#2a1b3d" d="M 76.5,28.5 C 76.0472,29.4584 75.3805,30.2917 74.5,31C 65.1894,32.1551 65.1894,32.9884 74.5,33.5C 72.0521,34.4731 69.3854,34.8064 66.5,34.5C 65.6993,32.4916 64.366,31.9916 62.5,33C 63.3802,31.6439 63.7135,30.1439 63.5,28.5C 63.5858,27.5041 63.2524,26.6708 62.5,26C 63.1667,25.8333 63.8333,25.6667 64.5,25.5C 66.6656,25.4296 66.9989,26.0962 65.5,27.5C 68.9373,29.7984 72.6039,30.1317 76.5,28.5 Z"/></g>
<g><path style="opacity:1" fill="#251a27" d="M 87.5,22.5 C 88.4787,24.1454 89.812,25.4787 91.5,26.5C 90.624,27.2508 89.624,27.7508 88.5,28C 90.8087,28.7562 92.8087,28.2562 94.5,26.5C 94.8333,26.8333 95.1667,27.1667 95.5,27.5C 94.5331,28.984 93.1998,29.984 91.5,30.5C 88.0689,29.8653 84.7356,28.8653 81.5,27.5C 82.1667,26.1667 82.8333,24.8333 83.5,23.5C 84.8333,23.1667 86.1667,22.8333 87.5,22.5 Z"/></g>
<g><path style="opacity:1" fill="#c1faee" d="M 17.5,21.5 C 15.9752,23.2163 14.9752,25.2163 14.5,27.5C 11.3743,31.4188 9.04098,35.7521 7.5,40.5C 6.73209,41.2625 6.23209,42.2625 6,43.5C 5.22083,40.9028 4.72083,40.9028 4.5,43.5C 3.88258,43.3893 3.38258,43.056 3,42.5C 3.07727,43.7376 2.9106,44.7376 2.5,45.5C 1.82811,44.0508 1.16145,42.7175 0.5,41.5C 0.334989,38.1501 0.501655,34.8168 1,31.5C 2.48131,30.5291 3.31465,29.1958 3.5,27.5C 4.5,26.8333 5.5,26.1667 6.5,25.5C 6.81001,26.7383 7.31001,26.7383 8,25.5C 9.51335,22.4756 11.5134,19.8089 14,17.5C 15.0319,19.0267 16.1986,20.36 17.5,21.5 Z"/></g>
<g><path style="opacity:1" fill="#a98a57" d="M 26.5,22.5 C 23.6278,24.8707 21.7944,27.8707 21,31.5C 20.3523,36.2041 20.519,40.8708 21.5,45.5C 21.5,46.1667 21.5,46.8333 21.5,47.5C 21.8333,49.5 22.1667,51.5 22.5,53.5C 21.3065,53.0296 20.6399,52.0296 20.5,50.5C 19.7833,43.0281 18.4499,35.6948 16.5,28.5C 16.5912,26.3023 15.9245,25.9689 14.5,27.5C 14.9752,25.2163 15.9752,23.2163 17.5,21.5C 18.7899,20.9423 19.6232,19.9423 20,18.5C 20.3988,18.7284 20.5654,19.0618 20.5,19.5C 20.3433,20.8734 20.51,22.2068 21,23.5C 22.7987,16.2908 24.632,15.9575 26.5,22.5 Z"/></g>
<g><path style="opacity:1" fill="#eaf7f7" d="M 38.5,25.5 C 38.4747,29.2838 36.8081,30.2838 33.5,28.5C 33.2965,26.6096 33.9632,25.1096 35.5,24C 36.9976,23.4153 37.9976,23.9153 38.5,25.5 Z"/></g>
<g><path style="opacity:1" fill="#27c1bf" d="M 27.5,22.5 C 28.8333,22.8333 30.1667,23.1667 31.5,23.5C 30.6745,25.5485 31.3411,27.2151 33.5,28.5C 36.8081,30.2838 38.4747,29.2838 38.5,25.5C 39.4511,26.9187 39.7845,28.5853 39.5,30.5C 38.8333,31.1667 38.1667,31.8333 37.5,32.5C 36.5041,32.5858 35.6708,32.2524 35,31.5C 34.5172,32.448 34.3505,33.448 34.5,34.5C 30.8389,34.5743 30.1723,33.5743 32.5,31.5C 32.3764,30.8933 32.0431,30.56 31.5,30.5C 29.127,28.4208 27.7936,25.7541 27.5,22.5 Z"/></g>
<g><path style="opacity:1" fill="#473039" d="M 81.5,27.5 C 84.7356,28.8653 88.0689,29.8653 91.5,30.5C 91.5,31.1667 91.5,31.8333 91.5,32.5C 90.8333,32.5 90.1667,32.5 89.5,32.5C 86.4909,31.7171 83.3242,31.0504 80,30.5C 77.7039,30.8588 75.8705,31.8588 74.5,33.5C 65.1894,32.9884 65.1894,32.1551 74.5,31C 75.3805,30.2917 76.0472,29.4584 76.5,28.5C 78.2161,28.3713 79.8828,28.038 81.5,27.5 Z"/></g>
<g><path style="opacity:1" fill="#291e39" d="M 53.5,19.5 C 57.1575,21.9728 58.3242,25.3062 57,29.5C 57.3826,28.944 57.8826,28.6107 58.5,28.5C 59.8758,30.0816 60.8758,31.9149 61.5,34C 60.3939,37.149 59.0606,39.9823 57.5,42.5C 56.596,41.791 56.2627,40.791 56.5,39.5C 56.7852,37.712 56.4519,36.0453 55.5,34.5C 54.3578,35.8262 53.0245,36.8262 51.5,37.5C 49.7119,34.7719 49.2119,31.7719 50,28.5C 50.7431,30.6447 51.5765,30.8114 52.5,29C 53.3672,25.8948 53.7006,22.7281 53.5,19.5 Z"/></g>
<g><path style="opacity:1" fill="#a19f68" d="M 16.5,28.5 C 15.7986,33.7958 16.4653,39.1292 18.5,44.5C 18.0431,45.2975 17.3764,45.6309 16.5,45.5C 16.762,44.0222 16.4287,42.6888 15.5,41.5C 14.1965,44.0431 13.1965,46.7097 12.5,49.5C 11.7435,50.7733 11.0768,50.7733 10.5,49.5C 13.9721,44.2408 14.8054,38.5742 13,32.5C 11.6188,36.204 9.78552,39.5373 7.5,42.5C 7.5,41.8333 7.5,41.1667 7.5,40.5C 9.04098,35.7521 11.3743,31.4188 14.5,27.5C 15.9245,25.9689 16.5912,26.3023 16.5,28.5 Z"/></g>
<g><path style="opacity:1" fill="#181227" d="M 26.5,22.5 C 26.8333,22.5 27.1667,22.5 27.5,22.5C 27.7936,25.7541 29.127,28.4208 31.5,30.5C 28.5298,31.4567 26.0298,30.4567 24,27.5C 24.0479,29.926 23.8812,32.2593 23.5,34.5C 25.0453,35.4519 26.712,35.7852 28.5,35.5C 27.3192,37.0672 25.6526,37.9005 23.5,38C 23.0325,40.0151 23.0325,42.1818 23.5,44.5C 23.0431,45.2975 22.3764,45.6309 21.5,45.5C 20.519,40.8708 20.3523,36.2041 21,31.5C 21.7944,27.8707 23.6278,24.8707 26.5,22.5 Z"/></g>
<g><path style="opacity:1" fill="#106257" d="M 42.5,28.5 C 44.4436,29.8277 46.4436,30.161 48.5,29.5C 48.5,30.5 48.5,31.5 48.5,32.5C 46.8014,32.3796 45.1347,32.0463 43.5,31.5C 41.9623,31.4534 40.9623,32.1201 40.5,33.5C 39.0687,34.7804 38.4021,36.4471 38.5,38.5C 37.8747,36.4664 37.5413,34.4664 37.5,32.5C 38.1667,31.8333 38.8333,31.1667 39.5,30.5C 40.5,29.8333 41.5,29.1667 42.5,28.5 Z"/></g>
<g><path style="opacity:1" fill="#20333f" d="M 31.5,30.5 C 32.0431,30.56 32.3764,30.8933 32.5,31.5C 30.1723,33.5743 30.8389,34.5743 34.5,34.5C 34.3505,33.448 34.5172,32.448 35,31.5C 35.6708,32.2524 36.5041,32.5858 37.5,32.5C 37.5413,34.4664 37.8747,36.4664 38.5,38.5C 39.5,38.8333 40.1667,39.5 40.5,40.5C 41.9899,42.2798 43.9899,42.9465 46.5,42.5C 45.8333,43.1667 45.1667,43.8333 44.5,44.5C 43.7148,46.3736 43.0482,48.3736 42.5,50.5C 41.6365,51.463 40.9698,51.463 40.5,50.5C 41.9647,47.5162 41.6314,44.8495 39.5,42.5C 38.2954,40.8624 36.9621,40.5291 35.5,41.5C 34.8333,40.5 34.1667,39.5 33.5,38.5C 32.1007,37.1103 30.4341,36.1103 28.5,35.5C 26.712,35.7852 25.0453,35.4519 23.5,34.5C 23.8812,32.2593 24.0479,29.926 24,27.5C 26.0298,30.4567 28.5298,31.4567 31.5,30.5 Z"/></g>
<g><path style="opacity:1" fill="#3f124d" d="M 89.5,32.5 C 90.1667,32.5 90.8333,32.5 91.5,32.5C 94.4345,33.3006 97.1012,34.6339 99.5,36.5C 99.5,37.1667 99.5,37.8333 99.5,38.5C 98.5,39.1667 97.5,39.8333 96.5,40.5C 96.4945,38.5985 95.8278,36.5985 94.5,34.5C 93.5,34.5 92.5,34.5 91.5,34.5C 90.8333,34.5 90.1667,34.5 89.5,34.5C 89.5,33.8333 89.5,33.1667 89.5,32.5 Z"/></g>
<g><path style="opacity:1" fill="#1b152e" d="M 89.5,32.5 C 89.5,33.1667 89.5,33.8333 89.5,34.5C 88.4104,32.2367 87.0771,32.07 85.5,34C 86.056,34.3826 86.3893,34.8826 86.5,35.5C 79.5538,34.9151 72.5538,35.0818 65.5,36C 66.056,36.3826 66.3893,36.8826 66.5,37.5C 65.609,38.1098 64.609,38.4431 63.5,38.5C 63.5,37.1667 63.5,35.8333 63.5,34.5C 64.5,34.5 65.5,34.5 66.5,34.5C 69.3854,34.8064 72.0521,34.4731 74.5,33.5C 75.8705,31.8588 77.7039,30.8588 80,30.5C 83.3242,31.0504 86.4909,31.7171 89.5,32.5 Z"/></g>
<g><path style="opacity:1" fill="#2b5b4f" d="M 89.5,34.5 C 90.1667,34.5 90.8333,34.5 91.5,34.5C 90.1214,36.5969 88.4547,36.9302 86.5,35.5C 86.3893,34.8826 86.056,34.3826 85.5,34C 87.0771,32.07 88.4104,32.2367 89.5,34.5 Z"/></g>
<g><path style="opacity:1" fill="#1e9485" d="M 49.5,16.5 C 49.8333,16.5 50.1667,16.5 50.5,16.5C 50.8333,16.5 51.1667,16.5 51.5,16.5C 52.1667,17.5 52.8333,18.5 53.5,19.5C 53.7006,22.7281 53.3672,25.8948 52.5,29C 51.5765,30.8114 50.7431,30.6447 50,28.5C 49.2119,31.7719 49.7119,34.7719 51.5,37.5C 50.2749,38.1522 49.6083,39.3189 49.5,41C 50.1396,44.7767 51.473,48.2767 53.5,51.5C 53.3054,54.2181 52.3054,56.5514 50.5,58.5C 49.8333,58.5 49.1667,58.5 48.5,58.5C 52.7659,52.6066 52.0993,47.2733 46.5,42.5C 43.9899,42.9465 41.9899,42.2798 40.5,40.5C 46.4879,42.3689 48.8212,40.3689 47.5,34.5C 45.2573,33.5258 42.924,33.1924 40.5,33.5C 40.9623,32.1201 41.9623,31.4534 43.5,31.5C 45.1347,32.0463 46.8014,32.3796 48.5,32.5C 48.5,31.5 48.5,30.5 48.5,29.5C 49.3743,26.9227 50.3743,24.4227 51.5,22C 51.0457,20.0614 50.379,18.228 49.5,16.5 Z"/></g>
<g><path style="opacity:1" fill="#201f31" d="M 86.5,35.5 C 88.4547,36.9302 90.1214,36.5969 91.5,34.5C 92.5,34.5 93.5,34.5 94.5,34.5C 95.8278,36.5985 96.4945,38.5985 96.5,40.5C 95.1225,41.2344 93.6225,41.9011 92,42.5C 91.6886,43.7425 92.1886,44.7425 93.5,45.5C 91.5635,47.4781 89.2302,48.8115 86.5,49.5C 88.5027,51.5808 88.5027,53.2474 86.5,54.5C 85.791,53.596 84.791,53.2627 83.5,53.5C 83.4166,50.7181 84.25,48.3848 86,46.5C 86.7175,47.4506 87.5509,47.6172 88.5,47C 87.6195,46.2917 86.9528,45.4584 86.5,44.5C 87.3984,43.8423 88.3984,43.1757 89.5,42.5C 84.8685,41.6717 80.2018,41.1717 75.5,41C 72.5319,39.6781 69.5319,38.5114 66.5,37.5C 66.3893,36.8826 66.056,36.3826 65.5,36C 72.5538,35.0818 79.5538,34.9151 86.5,35.5 Z"/></g>
<g><path style="opacity:1" fill="#1f2133" d="M 28.5,35.5 C 30.4341,36.1103 32.1007,37.1103 33.5,38.5C 29.9686,39.2247 29.302,40.5581 31.5,42.5C 29.6182,44.2392 28.2848,46.4058 27.5,49C 27.9778,50.6424 28.9778,51.8091 30.5,52.5C 30.6107,53.1174 30.944,53.6174 31.5,54C 33.5,54.3333 35.5,54.6667 37.5,55C 36.4366,56.1882 35.1033,56.6882 33.5,56.5C 33.1667,56.5 32.8333,56.5 32.5,56.5C 30.5,54.8333 28.5,53.1667 26.5,51.5C 25.4206,49.457 23.754,48.1237 21.5,47.5C 21.5,46.8333 21.5,46.1667 21.5,45.5C 22.3764,45.6309 23.0431,45.2975 23.5,44.5C 23.0325,42.1818 23.0325,40.0151 23.5,38C 25.6526,37.9005 27.3192,37.0672 28.5,35.5 Z"/></g>
<g><path style="opacity:1" fill="#18a394" d="M 33.5,38.5 C 34.1667,39.5 34.8333,40.5 35.5,41.5C 34.4341,42.6921 33.6008,42.3588 33,40.5C 32.7216,41.4158 32.2216,42.0825 31.5,42.5C 29.302,40.5581 29.9686,39.2247 33.5,38.5 Z"/></g>
<g><path style="opacity:1" fill="#1ed4b4" d="M 40.5,33.5 C 42.924,33.1924 45.2573,33.5258 47.5,34.5C 48.8212,40.3689 46.4879,42.3689 40.5,40.5C 40.1667,39.5 39.5,38.8333 38.5,38.5C 38.4021,36.4471 39.0687,34.7804 40.5,33.5 Z"/></g>
<g><path style="opacity:1" fill="#e5fcfb" d="M 42.5,34.5 C 44.9118,34.6941 45.9118,36.0274 45.5,38.5C 42.0464,38.7332 41.0464,37.3999 42.5,34.5 Z"/></g>
<g><path style="opacity:1" fill="#1d5b58" d="M 69.5,40.5 C 70.609,40.5569 71.609,40.8902 72.5,41.5C 71.4479,43.256 69.7812,43.9227 67.5,43.5C 68.5981,42.603 68.5981,41.7697 67.5,41C 68.0944,40.5357 68.7611,40.369 69.5,40.5 Z"/></g>
<g><path style="opacity:1" fill="#c1fcf3" d="M 10.5,49.5 C 9.17159,48.4928 8.17159,47.1595 7.5,45.5C 8.02527,44.8076 8.69194,44.3076 9.5,44C 8.5842,43.7216 7.91753,43.2216 7.5,42.5C 9.78552,39.5373 11.6188,36.204 13,32.5C 14.8054,38.5742 13.9721,44.2408 10.5,49.5 Z"/></g>
<g><path style="opacity:0.702" fill="#495955" d="M 3.5,27.5 C 3.31465,29.1958 2.48131,30.5291 1,31.5C 0.501655,34.8168 0.334989,38.1501 0.5,41.5C 0.5,43.1667 0.5,44.8333 0.5,46.5C 0.166667,46.5 -0.166667,46.5 -0.5,46.5C -0.5,41.1667 -0.5,35.8333 -0.5,30.5C 0.833333,29.5 2.16667,28.5 3.5,27.5 Z"/></g>
<g><path style="opacity:1" fill="#a3b3a9" d="M 0.5,41.5 C 1.16145,42.7175 1.82811,44.0508 2.5,45.5C 2.9106,44.7376 3.07727,43.7376 3,42.5C 3.38258,43.056 3.88258,43.3893 4.5,43.5C 4.5,44.1667 4.5,44.8333 4.5,45.5C 4.32842,46.4916 4.66175,47.1583 5.5,47.5C 5.5,48.1667 5.83333,48.5 6.5,48.5C 7.68566,49.7054 7.68566,51.0387 6.5,52.5C 4.16667,50.8333 2.16667,48.8333 0.5,46.5C 0.5,44.8333 0.5,43.1667 0.5,41.5 Z"/></g>
<g><path style="opacity:1" fill="#18c898" d="M 35.5,41.5 C 36.9621,40.5291 38.2954,40.8624 39.5,42.5C 39.6633,44.8568 39.4966,47.1902 39,49.5C 36.7309,52.0544 34.3975,52.0544 32,49.5C 31.4054,48.1011 31.5721,46.7678 32.5,45.5C 32.1543,44.3044 31.6543,44.3044 31,45.5C 30.1668,48.171 30.6668,50.5043 32.5,52.5C 31.8333,52.5 31.1667,52.5 30.5,52.5C 28.9778,51.8091 27.9778,50.6424 27.5,49C 28.2848,46.4058 29.6182,44.2392 31.5,42.5C 32.2216,42.0825 32.7216,41.4158 33,40.5C 33.6008,42.3588 34.4341,42.6921 35.5,41.5 Z"/></g>
<g><path style="opacity:1" fill="#1e1c30" d="M 58.5,25.5 C 60.4113,26.075 62.078,27.075 63.5,28.5C 63.7135,30.1439 63.3802,31.6439 62.5,33C 64.366,31.9916 65.6993,32.4916 66.5,34.5C 65.5,34.5 64.5,34.5 63.5,34.5C 63.5,35.8333 63.5,37.1667 63.5,38.5C 63.369,39.2389 63.5357,39.9056 64,40.5C 65.9435,39.193 67.7768,39.193 69.5,40.5C 68.7611,40.369 68.0944,40.5357 67.5,41C 68.5981,41.7697 68.5981,42.603 67.5,43.5C 65.9519,43.8212 65.2852,44.8212 65.5,46.5C 66.5,46.5 67.5,46.5 68.5,46.5C 68.3915,48.5138 69.0582,50.1805 70.5,51.5C 69.4168,51.4606 68.4168,51.1272 67.5,50.5C 66.8076,51.0253 66.3076,51.6919 66,52.5C 63.5124,48.6483 61.1791,48.6483 59,52.5C 58.6614,49.1204 58.1614,45.7871 57.5,42.5C 59.0606,39.9823 60.3939,37.149 61.5,34C 60.8758,31.9149 59.8758,30.0816 58.5,28.5C 58.5,27.5 58.5,26.5 58.5,25.5 Z"/></g>
<g><path style="opacity:1" fill="#482c38" d="M 66.5,37.5 C 69.5319,38.5114 72.5319,39.6781 75.5,41C 80.2018,41.1717 84.8685,41.6717 89.5,42.5C 88.3984,43.1757 87.3984,43.8423 86.5,44.5C 85.0413,44.4326 83.7079,44.7659 82.5,45.5C 79.2073,44.1914 75.874,42.858 72.5,41.5C 71.609,40.8902 70.609,40.5569 69.5,40.5C 67.7768,39.193 65.9435,39.193 64,40.5C 63.5357,39.9056 63.369,39.2389 63.5,38.5C 64.609,38.4431 65.609,38.1098 66.5,37.5 Z"/></g>
<g><path style="opacity:1" fill="#151424" d="M 72.5,41.5 C 75.874,42.858 79.2073,44.1914 82.5,45.5C 81.8658,46.9468 80.6991,47.6134 79,47.5C 75.4086,46.398 71.9086,46.0646 68.5,46.5C 67.5,46.5 66.5,46.5 65.5,46.5C 65.2852,44.8212 65.9519,43.8212 67.5,43.5C 69.7812,43.9227 71.4479,43.256 72.5,41.5 Z"/></g>
<g><path style="opacity:0.643" fill="#131213" d="M 4.5,45.5 C 5.5,45.8333 6.16667,46.5 6.5,47.5C 6.16667,47.5 5.83333,47.5 5.5,47.5C 4.66175,47.1583 4.32842,46.4916 4.5,45.5 Z"/></g>
<g><path style="opacity:1" fill="#242235" d="M 86.5,44.5 C 86.9528,45.4584 87.6195,46.2917 88.5,47C 87.5509,47.6172 86.7175,47.4506 86,46.5C 84.25,48.3848 83.4166,50.7181 83.5,53.5C 82.2015,55.0986 80.5348,55.5986 78.5,55C 78.8333,54.6667 79.1667,54.3333 79.5,54C 76.9568,53.8603 74.6234,53.1937 72.5,52C 74.5269,51.5022 76.5269,51.6689 78.5,52.5C 81.0635,52.263 81.0635,51.763 78.5,51C 75.9615,50.2042 73.6282,50.3709 71.5,51.5C 71.1667,51.5 70.8333,51.5 70.5,51.5C 69.0582,50.1805 68.3915,48.5138 68.5,46.5C 71.9086,46.0646 75.4086,46.398 79,47.5C 80.6991,47.6134 81.8658,46.9468 82.5,45.5C 83.7079,44.7659 85.0413,44.4326 86.5,44.5 Z"/></g>
<g><path style="opacity:1" fill="#271b34" d="M 56.5,39.5 C 55.5028,39.4701 54.8361,39.9701 54.5,41C 55.6414,43.4486 56.6414,45.9486 57.5,48.5C 56.9537,50.1347 56.6204,51.8014 56.5,53.5C 54.1939,54.375 53.5272,55.7084 54.5,57.5C 54.5,57.8333 54.5,58.1667 54.5,58.5C 53.0357,59.4054 51.7024,59.4054 50.5,58.5C 52.3054,56.5514 53.3054,54.2181 53.5,51.5C 51.473,48.2767 50.1396,44.7767 49.5,41C 49.6083,39.3189 50.2749,38.1522 51.5,37.5C 53.0245,36.8262 54.3578,35.8262 55.5,34.5C 56.4519,36.0453 56.7852,37.712 56.5,39.5 Z"/></g>
<g><path style="opacity:1" fill="#1b967a" d="M 39.5,42.5 C 41.6314,44.8495 41.9647,47.5162 40.5,50.5C 40.9698,51.463 41.6365,51.463 42.5,50.5C 42.6107,51.1174 42.944,51.6174 43.5,52C 42.2695,53.4048 40.9361,54.5714 39.5,55.5C 37.3074,54.1047 34.9741,53.1047 32.5,52.5C 30.6668,50.5043 30.1668,48.171 31,45.5C 31.6543,44.3044 32.1543,44.3044 32.5,45.5C 31.5721,46.7678 31.4054,48.1011 32,49.5C 34.3975,52.0544 36.7309,52.0544 39,49.5C 39.4966,47.1902 39.6633,44.8568 39.5,42.5 Z"/></g>
<g><path style="opacity:1" fill="#f2fcf7" d="M 34.5,44.5 C 38.1612,44.3501 39.1612,45.8501 37.5,49C 33.7071,49.4866 32.7071,47.9866 34.5,44.5 Z"/></g>
<g><path style="opacity:1" fill="#0dcf95" d="M 44.5,44.5 C 44.5,47.5 44.5,50.5 44.5,53.5C 43.2209,54.968 41.5542,55.6347 39.5,55.5C 40.9361,54.5714 42.2695,53.4048 43.5,52C 42.944,51.6174 42.6107,51.1174 42.5,50.5C 43.0482,48.3736 43.7148,46.3736 44.5,44.5 Z"/></g>
<g><path style="opacity:1" fill="#bff8f2" d="M 7.5,40.5 C 7.5,41.1667 7.5,41.8333 7.5,42.5C 7.91753,43.2216 8.5842,43.7216 9.5,44C 8.69194,44.3076 8.02527,44.8076 7.5,45.5C 8.17159,47.1595 9.17159,48.4928 10.5,49.5C 11.0768,50.7733 11.7435,50.7733 12.5,49.5C 13.1965,46.7097 14.1965,44.0431 15.5,41.5C 16.4287,42.6888 16.762,44.0222 16.5,45.5C 16.6567,46.8734 16.49,48.2068 16,49.5C 15.1107,48.1118 14.6107,48.2785 14.5,50C 15.9391,52.7047 16.9391,55.538 17.5,58.5C 16.8333,58.5 16.5,58.8333 16.5,59.5C 14.5,58.5 12.5,57.5 10.5,56.5C 8.80584,55.4726 7.4725,54.1392 6.5,52.5C 7.68566,51.0387 7.68566,49.7054 6.5,48.5C 6.5,48.1667 6.5,47.8333 6.5,47.5C 6.16667,46.5 5.5,45.8333 4.5,45.5C 4.5,44.8333 4.5,44.1667 4.5,43.5C 4.72083,40.9028 5.22083,40.9028 6,43.5C 6.23209,42.2625 6.73209,41.2625 7.5,40.5 Z"/></g>
<g><path style="opacity:1" fill="#c4ddc3" d="M 16.5,28.5 C 18.4499,35.6948 19.7833,43.0281 20.5,50.5C 20.6399,52.0296 21.3065,53.0296 22.5,53.5C 23.9477,55.5551 25.281,57.7218 26.5,60C 25.1807,60.195 23.8474,60.0283 22.5,59.5C 21.5084,59.6716 20.8417,59.3382 20.5,58.5C 19.4722,55.9017 18.4722,55.9017 17.5,58.5C 16.9391,55.538 15.9391,52.7047 14.5,50C 14.6107,48.2785 15.1107,48.1118 16,49.5C 16.49,48.2068 16.6567,46.8734 16.5,45.5C 17.3764,45.6309 18.0431,45.2975 18.5,44.5C 16.4653,39.1292 15.7986,33.7958 16.5,28.5 Z"/></g>
<g><path style="opacity:1" fill="#24233a" d="M 56.5,39.5 C 56.2627,40.791 56.596,41.791 57.5,42.5C 58.1614,45.7871 58.6614,49.1204 59,52.5C 61.1791,48.6483 63.5124,48.6483 66,52.5C 66.3076,51.6919 66.8076,51.0253 67.5,50.5C 68.4168,51.1272 69.4168,51.4606 70.5,51.5C 70.8333,51.5 71.1667,51.5 71.5,51.5C 70.9094,52.1515 70.2427,52.8182 69.5,53.5C 71.6565,54.7904 73.9899,55.6237 76.5,56C 77.8825,57.4609 77.5492,58.2942 75.5,58.5C 75.0377,57.1201 74.0377,56.4534 72.5,56.5C 68.5351,57.5299 64.5351,57.6965 60.5,57C 58.6813,56.2597 57.3479,55.0931 56.5,53.5C 56.6204,51.8014 56.9537,50.1347 57.5,48.5C 56.6414,45.9486 55.6414,43.4486 54.5,41C 54.8361,39.9701 55.5028,39.4701 56.5,39.5 Z"/></g>
<g><path style="opacity:1" fill="#171427" d="M 46.5,42.5 C 52.0993,47.2733 52.7659,52.6066 48.5,58.5C 47.609,57.8902 46.609,57.5569 45.5,57.5C 44.7659,56.2921 44.4326,54.9587 44.5,53.5C 44.5,50.5 44.5,47.5 44.5,44.5C 45.1667,43.8333 45.8333,43.1667 46.5,42.5 Z"/></g>
<g><path style="opacity:1" fill="#5a5d5d" d="M 10.5,56.5 C 12.5,57.5 14.5,58.5 16.5,59.5C 13.8044,60.5694 11.8044,59.5694 10.5,56.5 Z"/></g>
<g><path style="opacity:1" fill="#7e5a39" d="M 21.5,47.5 C 23.754,48.1237 25.4206,49.457 26.5,51.5C 26.0618,51.4346 25.7284,51.6012 25.5,52C 28.0782,54.1567 28.0782,55.3233 25.5,55.5C 27.1878,57.8545 29.1878,59.8545 31.5,61.5C 31.5,61.8333 31.5,62.1667 31.5,62.5C 27.8453,63.075 24.8453,62.075 22.5,59.5C 23.8474,60.0283 25.1807,60.195 26.5,60C 25.281,57.7218 23.9477,55.5551 22.5,53.5C 22.1667,51.5 21.8333,49.5 21.5,47.5 Z"/></g>
<g><path style="opacity:1" fill="#1a212b" d="M 30.5,52.5 C 31.1667,52.5 31.8333,52.5 32.5,52.5C 34.9741,53.1047 37.3074,54.1047 39.5,55.5C 41.5542,55.6347 43.2209,54.968 44.5,53.5C 44.4326,54.9587 44.7659,56.2921 45.5,57.5C 44.3947,59.2231 42.7281,60.2231 40.5,60.5C 38.0538,59.3123 35.7205,57.979 33.5,56.5C 35.1033,56.6882 36.4366,56.1882 37.5,55C 35.5,54.6667 33.5,54.3333 31.5,54C 30.944,53.6174 30.6107,53.1174 30.5,52.5 Z"/></g>
<g><path style="opacity:1" fill="#d7dbba" d="M 26.5,51.5 C 28.5,53.1667 30.5,54.8333 32.5,56.5C 32.3713,58.2161 32.038,59.8828 31.5,61.5C 29.1878,59.8545 27.1878,57.8545 25.5,55.5C 28.0782,55.3233 28.0782,54.1567 25.5,52C 25.7284,51.6012 26.0618,51.4346 26.5,51.5 Z"/></g>
<g><path style="opacity:1" fill="#2a2e42" d="M 56.5,53.5 C 57.3479,55.0931 58.6813,56.2597 60.5,57C 64.5351,57.6965 68.5351,57.5299 72.5,56.5C 74.0377,56.4534 75.0377,57.1201 75.5,58.5C 72.8127,58.3359 70.146,58.5026 67.5,59C 68.9555,60.6257 70.6221,61.7924 72.5,62.5C 71.8423,63.3984 71.1757,64.3984 70.5,65.5C 69.5832,64.8728 68.5832,64.5394 67.5,64.5C 67.0432,62.2273 65.7099,60.894 63.5,60.5C 63.6107,59.8826 63.944,59.3826 64.5,59C 61.2072,58.1744 57.8738,57.6744 54.5,57.5C 53.5272,55.7084 54.1939,54.375 56.5,53.5 Z"/></g>
<g><path style="opacity:1" fill="#32303a" d="M 83.5,53.5 C 84.791,53.2627 85.791,53.596 86.5,54.5C 86.5086,56.3084 86.0086,57.9751 85,59.5C 82.8524,60.8049 81.3524,62.6383 80.5,65C 78.0966,65.6302 76.2633,64.7969 75,62.5C 73.9288,65.1125 73.0955,65.1125 72.5,62.5C 70.6221,61.7924 68.9555,60.6257 67.5,59C 70.146,58.5026 72.8127,58.3359 75.5,58.5C 77.5492,58.2942 77.8825,57.4609 76.5,56C 73.9899,55.6237 71.6565,54.7904 69.5,53.5C 70.2427,52.8182 70.9094,52.1515 71.5,51.5C 73.6282,50.3709 75.9615,50.2042 78.5,51C 81.0635,51.763 81.0635,52.263 78.5,52.5C 76.5269,51.6689 74.5269,51.5022 72.5,52C 74.6234,53.1937 76.9568,53.8603 79.5,54C 79.1667,54.3333 78.8333,54.6667 78.5,55C 80.5348,55.5986 82.2015,55.0986 83.5,53.5 Z"/></g>
<g><path style="opacity:0.471" fill="#4e3527" d="M 20.5,58.5 C 19.2921,59.2341 17.9587,59.5674 16.5,59.5C 16.5,58.8333 16.8333,58.5 17.5,58.5C 18.4722,55.9017 19.4722,55.9017 20.5,58.5 Z"/></g>
<g><path style="opacity:1" fill="#2da48b" d="M 54.5,58.5 C 54.5,58.1667 54.5,57.8333 54.5,57.5C 57.8738,57.6744 61.2072,58.1744 64.5,59C 63.944,59.3826 63.6107,59.8826 63.5,60.5C 62.8333,60.5 62.1667,60.5 61.5,60.5C 61.1667,60.5 60.8333,60.5 60.5,60.5C 58.7857,59.2616 56.7857,58.595 54.5,58.5 Z"/></g>
<g><path style="opacity:1" fill="#a49d74" d="M 32.5,56.5 C 32.8333,56.5 33.1667,56.5 33.5,56.5C 35.7205,57.979 38.0538,59.3123 40.5,60.5C 39.5,61.1667 38.5,61.8333 37.5,62.5C 37.631,61.7611 37.4643,61.0944 37,60.5C 35.4157,61.8613 33.5824,62.528 31.5,62.5C 31.5,62.1667 31.5,61.8333 31.5,61.5C 32.038,59.8828 32.3713,58.2161 32.5,56.5 Z"/></g>
<g><path style="opacity:1" fill="#634544" d="M 45.5,57.5 C 46.609,57.5569 47.609,57.8902 48.5,58.5C 49.1667,58.5 49.8333,58.5 50.5,58.5C 51.7024,59.4054 53.0357,59.4054 54.5,58.5C 53.1667,59.8333 53.1667,61.1667 54.5,62.5C 52.1514,61.8764 49.8181,61.543 47.5,61.5C 45.9042,63.7143 43.7376,64.7143 41,64.5C 39.3189,64.3917 38.1522,63.7251 37.5,62.5C 38.5,61.8333 39.5,61.1667 40.5,60.5C 42.7281,60.2231 44.3947,59.2231 45.5,57.5 Z"/></g>
<g><path style="opacity:1" fill="#b59a5a" d="M 54.5,58.5 C 56.7857,58.595 58.7857,59.2616 60.5,60.5C 60.5,60.8333 60.5,61.1667 60.5,61.5C 58.7354,62.4614 56.7354,62.7947 54.5,62.5C 53.1667,61.1667 53.1667,59.8333 54.5,58.5 Z"/></g>
<g><path style="opacity:0.012" fill="#131213" d="M 37.5,62.5 C 35.3469,63.5729 33.3469,63.5729 31.5,62.5C 33.5824,62.528 35.4157,61.8613 37,60.5C 37.4643,61.0944 37.631,61.7611 37.5,62.5 Z"/></g>
<g><path style="opacity:1" fill="#614036" d="M 60.5,61.5 C 60.8333,61.5 61.1667,61.5 61.5,61.5C 62.7108,63.5627 61.8774,64.5627 59,64.5C 56.9919,64.6932 55.4919,64.0265 54.5,62.5C 56.7354,62.7947 58.7354,62.4614 60.5,61.5 Z"/></g>
<g><path style="opacity:0.69" fill="#226e6c" d="M 61.5,61.5 C 61.5,61.1667 61.5,60.8333 61.5,60.5C 62.1667,60.5 62.8333,60.5 63.5,60.5C 65.7099,60.894 67.0432,62.2273 67.5,64.5C 67.4431,65.609 67.1098,66.609 66.5,67.5C 65.8333,67.5 65.1667,67.5 64.5,67.5C 66.1891,64.2114 65.1891,62.2114 61.5,61.5 Z"/></g>
</svg>
