<?xml version="1.0" encoding="UTF-8"?>
<!DOCTYPE svg PUBLIC "-//W3C//DTD SVG 1.1//EN" "http://www.w3.org/Graphics/SVG/1.1/DTD/svg11.dtd">
<svg xmlns="http://www.w3.org/2000/svg" version="1.1" width="100px" height="73px" style="shape-rendering:geometricPrecision; text-rendering:geometricPrecision; image-rendering:optimizeQuality; fill-rule:evenodd; clip-rule:evenodd" xmlns:xlink="http://www.w3.org/1999/xlink">
<g><path style="opacity:1" fill="#41d2c5" d="M 26.5,1.5 C 27.8333,1.5 29.1667,1.5 30.5,1.5C 34.1386,3.27637 34.472,5.6097 31.5,8.5C 30.8333,8.5 30.1667,8.5 29.5,8.5C 28.5994,6.2729 26.9328,5.2729 24.5,5.5C 24.1568,3.51676 24.8235,2.18342 26.5,1.5 Z"/></g>
<g><path style="opacity:1" fill="#16555f" d="M 28.5,-0.5 C 30.5,-0.5 32.5,-0.5 34.5,-0.5C 37.7027,3.02596 40.036,7.02596 41.5,11.5C 41.6716,12.4916 41.3382,13.1583 40.5,13.5C 40.7373,12.209 40.404,11.209 39.5,10.5C 38.1911,7.2223 36.3578,4.2223 34,1.5C 32.7083,0.208905 31.5417,0.208905 30.5,1.5C 29.1667,1.5 27.8333,1.5 26.5,1.5C 27.1667,0.833333 27.8333,0.166667 28.5,-0.5 Z"/></g>
<g><path style="opacity:1" fill="#273150" d="M 30.5,1.5 C 31.5417,0.208905 32.7083,0.208905 34,1.5C 36.3578,4.2223 38.1911,7.2223 39.5,10.5C 37.8333,10.5 36.1667,10.5 34.5,10.5C 33.6522,9.37505 32.6522,9.37505 31.5,10.5C 31.5,9.83333 31.5,9.16667 31.5,8.5C 34.472,5.6097 34.1386,3.27637 30.5,1.5 Z"/></g>
<g><path style="opacity:0.918" fill="#12322f" d="M 59.5,11.5 C 57.8561,11.2865 56.3561,11.6198 55,12.5C 54.7216,11.5842 54.2216,10.9175 53.5,10.5C 56.0475,7.54 58.0475,7.87333 59.5,11.5 Z"/></g>
<g><path style="opacity:0.047" fill="#1d3c3f" d="M 74.5,11.5 C 73.8826,11.3893 73.3826,11.056 73,10.5C 72.7216,11.4158 72.2216,12.0825 71.5,12.5C 71.5,11.5 71.5,10.5 71.5,9.5C 73.1788,9.28519 74.1788,9.95186 74.5,11.5 Z"/></g>
<g><path style="opacity:1" fill="#141623" d="M 34.5,10.5 C 36.1667,10.5 37.8333,10.5 39.5,10.5C 40.404,11.209 40.7373,12.209 40.5,13.5C 40.5858,14.4959 40.2524,15.3292 39.5,16C 37.8659,16.4935 36.1992,16.6602 34.5,16.5C 34.5,17.5 34.5,18.5 34.5,19.5C 37.1667,19.5 39.8333,19.5 42.5,19.5C 45.8333,19.5 49.1667,19.5 52.5,19.5C 52.5,19.8333 52.5,20.1667 52.5,20.5C 49.9208,20.0833 47.7542,20.75 46,22.5C 44.9887,21.6634 43.8221,21.33 42.5,21.5C 39.4371,20.7986 36.2704,20.132 33,19.5C 32.3292,20.2524 31.4959,20.5858 30.5,20.5C 31.6567,17.016 32.99,13.6827 34.5,10.5 Z"/></g>
<g><path style="opacity:1" fill="#36a497" d="M 51.5,10.5 C 52.1667,10.5 52.8333,10.5 53.5,10.5C 54.2216,10.9175 54.7216,11.5842 55,12.5C 56.3561,11.6198 57.8561,11.2865 59.5,11.5C 61.5983,10.0857 62.5983,10.7524 62.5,13.5C 61.8333,13.8333 61.1667,14.1667 60.5,14.5C 59.1667,13.1667 57.8333,13.1667 56.5,14.5C 55.8333,14.5 55.5,14.8333 55.5,15.5C 55.5,16.1667 55.1667,16.5 54.5,16.5C 53.7611,16.631 53.0944,16.4643 52.5,16C 53.8398,13.8511 53.1731,12.6845 50.5,12.5C 50.5,12.1667 50.5,11.8333 50.5,11.5C 51.1667,11.5 51.5,11.1667 51.5,10.5 Z"/></g>
<g><path style="opacity:1" fill="#3d9497" d="M 71.5,12.5 C 71.1583,13.3382 70.4916,13.6716 69.5,13.5C 67.5168,13.1568 66.1834,13.8235 65.5,15.5C 62.682,16.3511 59.682,16.3511 56.5,15.5C 56.5,15.1667 56.5,14.8333 56.5,14.5C 57.8333,14.5 59.1667,14.5 60.5,14.5C 61.6226,15.7574 62.2893,15.4241 62.5,13.5C 65.3186,11.4475 68.3186,11.1142 71.5,12.5 Z"/></g>
<g><path style="opacity:1" fill="#080e0f" d="M 69.5,13.5 C 68.8333,14.1667 68.1667,14.8333 67.5,15.5C 66.8333,15.5 66.1667,15.5 65.5,15.5C 66.1834,13.8235 67.5168,13.1568 69.5,13.5 Z"/></g>
<g><path style="opacity:1" fill="#409e94" d="M 76.5,17.5 C 76.9382,17.5654 77.2716,17.3988 77.5,17C 76.2423,15.2591 75.2423,13.4258 74.5,11.5C 77.7734,11.1364 80.94,11.1364 84,11.5C 84.624,13.4645 84.124,15.1311 82.5,16.5C 81.914,16.2907 81.414,15.9574 81,15.5C 79.9805,16.6872 78.8139,17.6872 77.5,18.5C 76.8933,18.3764 76.56,18.0431 76.5,17.5 Z"/></g>
<g><path style="opacity:0.698" fill="#1a4953" d="M 51.5,10.5 C 50.8333,10.5 50.5,10.8333 50.5,11.5C 48.9731,11.427 47.9731,12.0937 47.5,13.5C 46.8333,13.5 46.5,13.8333 46.5,14.5C 45.7095,15.4013 44.7095,16.0679 43.5,16.5C 40.8733,17.1049 38.2066,17.6049 35.5,18C 38.0356,18.1862 40.369,18.6862 42.5,19.5C 39.8333,19.5 37.1667,19.5 34.5,19.5C 34.5,18.5 34.5,17.5 34.5,16.5C 36.1992,16.6602 37.8659,16.4935 39.5,16C 40.2524,15.3292 40.5858,14.4959 40.5,13.5C 41.3382,13.1583 41.6716,12.4916 41.5,11.5C 42.2679,12.2625 42.7679,13.2625 43,14.5C 45.4875,11.1819 48.6542,9.34861 52.5,9C 51.944,9.38258 51.6107,9.88258 51.5,10.5 Z"/></g>
<g><path style="opacity:1" fill="#5af2dc" d="M 74.5,11.5 C 75.2423,13.4258 76.2423,15.2591 77.5,17C 77.2716,17.3988 76.9382,17.5654 76.5,17.5C 76.1667,17.5 75.8333,17.5 75.5,17.5C 75.5,16.8333 75.1667,16.5 74.5,16.5C 74.1667,16.5 73.8333,16.5 73.5,16.5C 72.596,17.209 72.2627,18.209 72.5,19.5C 71.2003,18.8921 69.8669,18.2255 68.5,17.5C 67.1362,18.0431 65.8029,18.2098 64.5,18C 65.9494,16.883 67.6161,16.2163 69.5,16C 68.9056,15.5357 68.2389,15.369 67.5,15.5C 68.1667,14.8333 68.8333,14.1667 69.5,13.5C 70.4916,13.6716 71.1583,13.3382 71.5,12.5C 72.2216,12.0825 72.7216,11.4158 73,10.5C 73.3826,11.056 73.8826,11.3893 74.5,11.5 Z"/></g>
<g><path style="opacity:1" fill="#5ef4e6" d="M 50.5,12.5 C 53.1731,12.6845 53.8398,13.8511 52.5,16C 53.0944,16.4643 53.7611,16.631 54.5,16.5C 54.6107,17.1174 54.944,17.6174 55.5,18C 53.5,18.1667 51.5,18.3333 49.5,18.5C 47.0478,18.4609 45.0478,17.7943 43.5,16.5C 44.7095,16.0679 45.7095,15.4013 46.5,14.5C 47.1667,14.5 47.5,14.1667 47.5,13.5C 48.609,13.4431 49.609,13.1098 50.5,12.5 Z"/></g>
<g><path style="opacity:1" fill="#76e8e0" d="M 65.5,15.5 C 66.1667,15.5 66.8333,15.5 67.5,15.5C 68.2389,15.369 68.9056,15.5357 69.5,16C 67.6161,16.2163 65.9494,16.883 64.5,18C 65.8029,18.2098 67.1362,18.0431 68.5,17.5C 69.8669,18.2255 71.2003,18.8921 72.5,19.5C 72.5,19.8333 72.5,20.1667 72.5,20.5C 68.1667,20.5 63.8333,20.5 59.5,20.5C 59.5,19.8333 59.1667,19.5 58.5,19.5C 57.8333,19.5 57.1667,19.5 56.5,19.5C 55.5,19.5 54.5,19.5 53.5,19.5C 53.1667,19.5 52.8333,19.5 52.5,19.5C 49.1667,19.5 45.8333,19.5 42.5,19.5C 40.369,18.6862 38.0356,18.1862 35.5,18C 38.2066,17.6049 40.8733,17.1049 43.5,16.5C 45.0478,17.7943 47.0478,18.4609 49.5,18.5C 51.5,18.3333 53.5,18.1667 55.5,18C 54.944,17.6174 54.6107,17.1174 54.5,16.5C 55.1667,16.5 55.5,16.1667 55.5,15.5C 55.8333,15.5 56.1667,15.5 56.5,15.5C 59.682,16.3511 62.682,16.3511 65.5,15.5 Z"/></g>
<g><path style="opacity:0.906" fill="#316166" d="M 73.5,16.5 C 73.8333,17.8333 74.1667,17.8333 74.5,16.5C 75.1667,16.5 75.5,16.8333 75.5,17.5C 75.1898,19.1436 74.1898,20.1436 72.5,20.5C 72.5,20.1667 72.5,19.8333 72.5,19.5C 72.2627,18.209 72.596,17.209 73.5,16.5 Z"/></g>
<g><path style="opacity:0.835" fill="#54b5a8" d="M 22.5,16.5 C 21.8213,18.8139 20.488,19.1472 18.5,17.5C 13.6333,19.4269 9.29996,22.0935 5.5,25.5C 4.5,25.8333 3.83333,26.5 3.5,27.5C 2.83333,27.1667 2.16667,26.8333 1.5,26.5C 6.0311,21.1957 11.6978,17.5291 18.5,15.5C 19.7362,16.2458 21.0695,16.5792 22.5,16.5 Z"/></g>
<g><path style="opacity:1" fill="#32484e" d="M 34.5,10.5 C 32.99,13.6827 31.6567,17.016 30.5,20.5C 30.5,23.5 30.5,26.5 30.5,29.5C 30.1667,29.5 29.8333,29.5 29.5,29.5C 29.6646,26.4816 29.498,23.4816 29,20.5C 28.6667,28.1667 28.3333,35.8333 28,43.5C 27.6667,39.8333 27.3333,36.1667 27,32.5C 26.5012,36.4862 26.3345,40.4862 26.5,44.5C 26.1667,44.5 25.8333,44.5 25.5,44.5C 25.1818,39.9677 25.5151,35.6344 26.5,31.5C 27.3238,27.6877 27.8238,23.6877 28,19.5C 28.6608,16.198 29.8275,13.198 31.5,10.5C 32.6522,9.37505 33.6522,9.37505 34.5,10.5 Z"/></g>
<g><path style="opacity:1" fill="#40a88e" d="M 29.5,8.5 C 30.1667,8.5 30.8333,8.5 31.5,8.5C 31.5,9.16667 31.5,9.83333 31.5,10.5C 29.8275,13.198 28.6608,16.198 28,19.5C 27.8238,23.6877 27.3238,27.6877 26.5,31.5C 26.6621,29.4727 26.4955,27.4727 26,25.5C 25.3278,29.2213 24.1611,32.5546 22.5,35.5C 22.7678,33.901 22.4345,32.5676 21.5,31.5C 21.4431,30.391 21.1098,29.391 20.5,28.5C 20.7713,26.6883 21.438,25.0217 22.5,23.5C 22.2433,28.8416 23.2433,28.8416 25.5,23.5C 24.3504,20.6795 23.1838,20.3462 22,22.5C 20.955,21.6266 20.1217,20.6266 19.5,19.5C 21.9893,19.7593 23.656,18.7593 24.5,16.5C 25.1174,16.6107 25.6174,16.944 26,17.5C 27.6636,14.6729 28.8303,11.6729 29.5,8.5 Z"/></g>
<g><path style="opacity:1" fill="#70ddc9" d="M 19.5,19.5 C 20.1217,20.6266 20.955,21.6266 22,22.5C 23.1838,20.3462 24.3504,20.6795 25.5,23.5C 23.2433,28.8416 22.2433,28.8416 22.5,23.5C 21.438,25.0217 20.7713,26.6883 20.5,28.5C 18.901,28.2322 17.5676,28.5655 16.5,29.5C 12.7353,28.6095 11.4019,26.4428 12.5,23C 14.9698,22.0112 17.3032,20.8446 19.5,19.5 Z"/></g>
<g><path style="opacity:1" fill="#324747" d="M 22.5,16.5 C 23.1667,16.5 23.8333,16.5 24.5,16.5C 23.656,18.7593 21.9893,19.7593 19.5,19.5C 17.3032,20.8446 14.9698,22.0112 12.5,23C 11.4019,26.4428 12.7353,28.6095 16.5,29.5C 16.5,29.8333 16.5,30.1667 16.5,30.5C 12.2925,30.1296 9.79246,27.7963 9,23.5C 8.18405,24.8228 7.01739,25.4894 5.5,25.5C 9.29996,22.0935 13.6333,19.4269 18.5,17.5C 20.488,19.1472 21.8213,18.8139 22.5,16.5 Z"/></g>
<g><path style="opacity:1" fill="#10553c" d="M 42.5,21.5 C 42.5,22.8333 42.5,24.1667 42.5,25.5C 39.7699,23.0642 36.7699,22.3975 33.5,23.5C 32.7784,23.0825 32.2784,22.4158 32,21.5C 31.5065,23.1341 31.3398,24.8008 31.5,26.5C 31.5,27.8333 31.5,29.1667 31.5,30.5C 30.8333,30.5 30.5,30.1667 30.5,29.5C 30.5,26.5 30.5,23.5 30.5,20.5C 31.4959,20.5858 32.3292,20.2524 33,19.5C 36.2704,20.132 39.4371,20.7986 42.5,21.5 Z"/></g>
<g><path style="opacity:1" fill="#369f94" d="M 53.5,19.5 C 54.5,19.5 55.5,19.5 56.5,19.5C 57.1667,20.8333 57.8333,20.8333 58.5,19.5C 59.1667,19.5 59.5,19.8333 59.5,20.5C 61.5625,21.7763 63.8958,22.6097 66.5,23C 65.944,23.3826 65.6107,23.8826 65.5,24.5C 63.8333,24.5 62.1667,24.5 60.5,24.5C 61.8595,22.9907 61.3595,22.324 59,22.5C 56.6485,22.4136 55.1485,23.4136 54.5,25.5C 53.609,24.8902 52.609,24.5569 51.5,24.5C 50.1917,23.7677 48.8584,22.9344 47.5,22C 49.3817,21.8019 51.0484,21.3019 52.5,20.5C 53.1667,20.5 53.5,20.1667 53.5,19.5 Z"/></g>
<g><path style="opacity:1" fill="#3b4b4e" d="M 16.5,30.5 C 14.3062,31.8261 12.3062,33.4927 10.5,35.5C 13.7683,36.487 17.1016,36.8204 20.5,36.5C 20.5,38.5 20.5,40.5 20.5,42.5C 19.5489,41.0813 19.2155,39.4147 19.5,37.5C 15.8333,37.5 12.1667,37.5 8.5,37.5C 8.40805,33.3159 6.74139,29.9826 3.5,27.5C 3.83333,26.5 4.5,25.8333 5.5,25.5C 7.01739,25.4894 8.18405,24.8228 9,23.5C 9.79246,27.7963 12.2925,30.1296 16.5,30.5 Z"/></g>
<g><path style="opacity:1" fill="#effefe" d="M 33.5,23.5 C 40.1895,24.5901 41.1895,27.5901 36.5,32.5C 36.5,31.8333 36.1667,31.5 35.5,31.5C 34.6295,28.8877 33.9628,26.221 33.5,23.5 Z"/></g>
<g><path style="opacity:1" fill="#20475e" d="M 52.5,20.5 C 51.0484,21.3019 49.3817,21.8019 47.5,22C 48.8584,22.9344 50.1917,23.7677 51.5,24.5C 49.0576,24.3537 48.3909,25.187 49.5,27C 48.5,28 47.5,29 46.5,30C 48.3588,30.6008 48.6921,31.4341 47.5,32.5C 44.7938,32.5751 42.1272,32.9084 39.5,33.5C 41.9844,31.4548 42.9844,28.7882 42.5,25.5C 42.5,24.1667 42.5,22.8333 42.5,21.5C 43.8221,21.33 44.9887,21.6634 46,22.5C 47.7542,20.75 49.9208,20.0833 52.5,20.5 Z"/></g>
<g><path style="opacity:1" fill="#2d5c61" d="M 65.5,24.5 C 67.0855,25.533 68.4188,26.8664 69.5,28.5C 66.2043,28.5499 64.871,27.2166 65.5,24.5 Z"/></g>
<g><path style="opacity:1" fill="#61e5d0" d="M 60.5,24.5 C 61.2625,25.2679 62.2625,25.7679 63.5,26C 61.3073,26.2574 59.3073,27.4241 57.5,29.5C 56.2022,30.1157 55.2022,30.1157 54.5,29.5C 55.2299,28.2876 56.2299,27.2876 57.5,26.5C 56.675,25.6143 55.675,25.281 54.5,25.5C 55.1485,23.4136 56.6485,22.4136 59,22.5C 61.3595,22.324 61.8595,22.9907 60.5,24.5 Z"/></g>
<g><path style="opacity:1" fill="#5cc9bb" d="M 60.5,24.5 C 62.1667,24.5 63.8333,24.5 65.5,24.5C 64.871,27.2166 66.2043,28.5499 69.5,28.5C 72.6145,28.5548 74.9478,29.8881 76.5,32.5C 76.5,34.5 76.5,36.5 76.5,38.5C 75.4613,40.5311 73.7946,41.8645 71.5,42.5C 71.4142,41.5041 71.7476,40.6708 72.5,40C 70.4873,39.1247 70.4873,37.7913 72.5,36C 71.328,33.9451 69.6614,33.2784 67.5,34C 69.6447,34.7431 69.8114,35.5765 68,36.5C 67.0979,36.2568 66.2646,35.9234 65.5,35.5C 64.0222,35.238 62.6888,35.5713 61.5,36.5C 61.2223,39.0666 61.0556,41.7333 61,44.5C 59.8904,42.9632 58.3904,42.2965 56.5,42.5C 55.8333,42.5 55.5,42.1667 55.5,41.5C 56.9778,41.762 58.3112,41.4287 59.5,40.5C 58.3523,38.8513 57.019,37.3513 55.5,36C 57.019,34.6487 58.3523,33.1487 59.5,31.5C 59.1445,30.4777 58.4778,29.811 57.5,29.5C 59.3073,27.4241 61.3073,26.2574 63.5,26C 62.2625,25.7679 61.2625,25.2679 60.5,24.5 Z"/></g>
<g><path style="opacity:1" fill="#28c9b8" d="M 1.5,26.5 C 2.16667,26.8333 2.83333,27.1667 3.5,27.5C 6.74139,29.9826 8.40805,33.3159 8.5,37.5C 7.31001,39.8693 5.64335,41.8693 3.5,43.5C 2.83333,44.1667 2.16667,44.8333 1.5,45.5C 0.833333,45.1667 0.166667,44.8333 -0.5,44.5C -0.5,43.8333 -0.5,43.1667 -0.5,42.5C 5.95816,40.1342 7.2915,36.3009 3.5,31C 2.25501,30.2086 0.921673,29.7086 -0.5,29.5C -0.5,28.8333 -0.5,28.1667 -0.5,27.5C 0.166667,27.1667 0.833333,26.8333 1.5,26.5 Z"/></g>
<g><path style="opacity:1" fill="#29d2a5" d="M 33.5,23.5 C 33.9628,26.221 34.6295,28.8877 35.5,31.5C 33.461,30.3282 32.1276,28.6616 31.5,26.5C 31.3398,24.8008 31.5065,23.1341 32,21.5C 32.2784,22.4158 32.7784,23.0825 33.5,23.5 Z"/></g>
<g><path style="opacity:1" fill="#162633" d="M 51.5,24.5 C 52.609,24.5569 53.609,24.8902 54.5,25.5C 55.675,25.281 56.675,25.6143 57.5,26.5C 56.2299,27.2876 55.2299,28.2876 54.5,29.5C 53.2905,29.9321 52.2905,30.5987 51.5,31.5C 48.9078,33.0361 47.9078,35.3695 48.5,38.5C 48.5,39.1667 48.1667,39.5 47.5,39.5C 39.7104,37.3794 39.7104,35.046 47.5,32.5C 48.6921,31.4341 48.3588,30.6008 46.5,30C 47.5,29 48.5,28 49.5,27C 48.3909,25.187 49.0576,24.3537 51.5,24.5 Z"/></g>
<g><path style="opacity:1" fill="#394b51" d="M 20.5,28.5 C 21.1098,29.391 21.4431,30.391 21.5,31.5C 20.5489,32.9187 20.2155,34.5853 20.5,36.5C 17.1016,36.8204 13.7683,36.487 10.5,35.5C 12.3062,33.4927 14.3062,31.8261 16.5,30.5C 16.5,30.1667 16.5,29.8333 16.5,29.5C 17.5676,28.5655 18.901,28.2322 20.5,28.5 Z"/></g>
<g><path style="opacity:1" fill="#2fc095" d="M 33.5,23.5 C 36.7699,22.3975 39.7699,23.0642 42.5,25.5C 42.9844,28.7882 41.9844,31.4548 39.5,33.5C 37.8041,35.129 36.8041,34.7957 36.5,32.5C 41.1895,27.5901 40.1895,24.5901 33.5,23.5 Z"/></g>
<g><path style="opacity:1" fill="#428791" d="M 94.5,36.5 C 94.5654,36.9382 94.3988,37.2716 94,37.5C 90.5914,35.6169 87.7581,33.9502 85.5,32.5C 84.1508,32.8457 82.8175,33.179 81.5,33.5C 86.7828,29.2681 91.1162,30.2681 94.5,36.5 Z"/></g>
<g><path style="opacity:1" fill="#111d1d" d="M 29.5,29.5 C 29.8333,29.5 30.1667,29.5 30.5,29.5C 30.5,30.1667 30.8333,30.5 31.5,30.5C 32.9176,32.1867 34.2509,34.02 35.5,36C 34.157,38.2322 32.4903,40.0655 30.5,41.5C 29.5166,37.7016 29.1832,33.7016 29.5,29.5 Z"/></g>
<g><path style="opacity:1" fill="#095b33" d="M 31.5,26.5 C 32.1276,28.6616 33.461,30.3282 35.5,31.5C 36.1667,31.5 36.5,31.8333 36.5,32.5C 36.8041,34.7957 37.8041,35.129 39.5,33.5C 39.6602,35.1992 39.4935,36.8659 39,38.5C 38.2825,37.5494 37.4491,37.3828 36.5,38C 33.1295,40.6973 31.7962,44.1973 32.5,48.5C 35.5701,48.6323 38.5701,48.299 41.5,47.5C 41.5,48.1667 41.5,48.8333 41.5,49.5C 40.5084,49.3284 39.8417,49.6618 39.5,50.5C 36.3915,50.7359 33.3915,50.4025 30.5,49.5C 30.5,46.8333 30.5,44.1667 30.5,41.5C 32.4903,40.0655 34.157,38.2322 35.5,36C 34.2509,34.02 32.9176,32.1867 31.5,30.5C 31.5,29.1667 31.5,27.8333 31.5,26.5 Z"/></g>
<g><path style="opacity:1" fill="#275457" d="M 54.5,29.5 C 55.2022,30.1157 56.2022,30.1157 57.5,29.5C 58.4778,29.811 59.1445,30.4777 59.5,31.5C 58.3523,33.1487 57.019,34.6487 55.5,36C 57.019,37.3513 58.3523,38.8513 59.5,40.5C 58.3112,41.4287 56.9778,41.762 55.5,41.5C 55.1667,41.5 54.8333,41.5 54.5,41.5C 53.8333,41.5 53.5,41.1667 53.5,40.5C 54.8734,40.6567 56.2068,40.49 57.5,40C 53.5,37.3333 53.5,34.6667 57.5,32C 55.5273,31.5045 53.5273,31.3379 51.5,31.5C 52.2905,30.5987 53.2905,29.9321 54.5,29.5 Z"/></g>
<g><path style="opacity:1" fill="#1d4d4d" d="M 76.5,32.5 C 77.1667,32.8333 77.8333,33.1667 78.5,33.5C 78.2155,35.4147 78.5489,37.0813 79.5,38.5C 78.6522,39.625 77.6522,39.625 76.5,38.5C 76.5,36.5 76.5,34.5 76.5,32.5 Z"/></g>
<g><path style="opacity:1" fill="#398176" d="M 78.5,33.5 C 79.5,34.8333 80.5,34.8333 81.5,33.5C 81.5172,35.5648 81.8505,37.5648 82.5,39.5C 81.609,38.8902 80.609,38.5569 79.5,38.5C 78.5489,37.0813 78.2155,35.4147 78.5,33.5 Z"/></g>
<g><path style="opacity:1" fill="#7df6e2" d="M 71.5,42.5 C 71.1667,42.5 70.8333,42.5 70.5,42.5C 68.8828,41.962 67.2161,41.6287 65.5,41.5C 65.7373,40.209 65.404,39.209 64.5,38.5C 64.5569,37.391 64.8902,36.391 65.5,35.5C 66.2646,35.9234 67.0979,36.2568 68,36.5C 69.8114,35.5765 69.6447,34.7431 67.5,34C 69.6614,33.2784 71.328,33.9451 72.5,36C 70.4873,37.7913 70.4873,39.1247 72.5,40C 71.7476,40.6708 71.4142,41.5041 71.5,42.5 Z"/></g>
<g><path style="opacity:1" fill="#7ce2d5" d="M 94.5,36.5 C 95.1667,36.5 95.8333,36.5 96.5,36.5C 96.6107,37.1174 96.944,37.6174 97.5,38C 96.2625,38.2321 95.2625,38.7321 94.5,39.5C 92.8561,39.7135 91.3561,39.3802 90,38.5C 89.7508,39.624 89.2508,40.624 88.5,41.5C 86.677,40.2528 84.677,39.5861 82.5,39.5C 81.8505,37.5648 81.5172,35.5648 81.5,33.5C 82.8175,33.179 84.1508,32.8457 85.5,32.5C 87.7581,33.9502 90.5914,35.6169 94,37.5C 94.3988,37.2716 94.5654,36.9382 94.5,36.5 Z"/></g>
<g><path style="opacity:0.588" fill="#244046" d="M 99.5,35.5 C 99.5,36.1667 99.5,36.8333 99.5,37.5C 98.2209,38.968 96.5542,39.6347 94.5,39.5C 95.2625,38.7321 96.2625,38.2321 97.5,38C 96.944,37.6174 96.6107,37.1174 96.5,36.5C 97.391,35.8902 98.391,35.5569 99.5,35.5 Z"/></g>
<g><path style="opacity:1" fill="#77f2e4" d="M 51.5,31.5 C 53.5273,31.3379 55.5273,31.5045 57.5,32C 53.5,34.6667 53.5,37.3333 57.5,40C 56.2068,40.49 54.8734,40.6567 53.5,40.5C 51.4862,40.6085 49.8195,39.9418 48.5,38.5C 47.9078,35.3695 48.9078,33.0361 51.5,31.5 Z"/></g>
<g><path style="opacity:1" fill="#4ad7bf" d="M 65.5,35.5 C 64.8902,36.391 64.5569,37.391 64.5,38.5C 64.0825,39.2216 63.4158,39.7216 62.5,40C 63.3081,40.3076 63.9747,40.8076 64.5,41.5C 61.9929,47.1599 59.3263,47.4932 56.5,42.5C 58.3904,42.2965 59.8904,42.9632 61,44.5C 61.0556,41.7333 61.2223,39.0666 61.5,36.5C 62.6888,35.5713 64.0222,35.238 65.5,35.5 Z"/></g>
<g><path style="opacity:1" fill="#223454" d="M 8.5,37.5 C 12.1667,37.5 15.8333,37.5 19.5,37.5C 19.2155,39.4147 19.5489,41.0813 20.5,42.5C 20.5,44.1667 20.5,45.8333 20.5,47.5C 20.1293,42.758 18.1293,41.758 14.5,44.5C 14.8588,42.629 15.8588,41.129 17.5,40C 14.5,39.3333 11.5,39.3333 8.5,40C 7.83333,41 7.16667,42 6.5,43C 8.09309,43.9487 9.42643,45.1154 10.5,46.5C 7.8915,46.5997 5.55817,45.9331 3.5,44.5C 3.5,44.1667 3.5,43.8333 3.5,43.5C 5.64335,41.8693 7.31001,39.8693 8.5,37.5 Z"/></g>
<g><path style="opacity:1" fill="#1b405e" d="M 14.5,44.5 C 13.3951,45.6005 12.0618,46.2671 10.5,46.5C 9.42643,45.1154 8.09309,43.9487 6.5,43C 7.16667,42 7.83333,41 8.5,40C 11.5,39.3333 14.5,39.3333 17.5,40C 15.8588,41.129 14.8588,42.629 14.5,44.5 Z"/></g>
<g><path style="opacity:1" fill="#66b3a2" d="M 21.5,31.5 C 22.4345,32.5676 22.7678,33.901 22.5,35.5C 23.2209,38.8175 23.3876,42.1508 23,45.5C 22.6667,44.8333 22.3333,44.1667 22,43.5C 21.51,44.7932 21.3433,46.1266 21.5,47.5C 21.1667,47.5 20.8333,47.5 20.5,47.5C 20.5,45.8333 20.5,44.1667 20.5,42.5C 20.5,40.5 20.5,38.5 20.5,36.5C 20.2155,34.5853 20.5489,32.9187 21.5,31.5 Z"/></g>
<g><path style="opacity:1" fill="#51f0d4" d="M 26.5,31.5 C 25.5151,35.6344 25.1818,39.9677 25.5,44.5C 24.596,45.209 24.2627,46.209 24.5,47.5C 23.5,47.5 22.5,47.5 21.5,47.5C 21.3433,46.1266 21.51,44.7932 22,43.5C 22.3333,44.1667 22.6667,44.8333 23,45.5C 23.3876,42.1508 23.2209,38.8175 22.5,35.5C 24.1611,32.5546 25.3278,29.2213 26,25.5C 26.4955,27.4727 26.6621,29.4727 26.5,31.5 Z"/></g>
<g><path style="opacity:1" fill="#25b68b" d="M 47.5,32.5 C 39.7104,35.046 39.7104,37.3794 47.5,39.5C 45.8333,39.5 44.1667,39.5 42.5,39.5C 42.8064,42.3854 42.4731,45.0521 41.5,47.5C 38.5701,48.299 35.5701,48.6323 32.5,48.5C 31.7962,44.1973 33.1295,40.6973 36.5,38C 37.4491,37.3828 38.2825,37.5494 39,38.5C 39.4935,36.8659 39.6602,35.1992 39.5,33.5C 42.1272,32.9084 44.7938,32.5751 47.5,32.5 Z"/></g>
<g><path style="opacity:1" fill="#effdfe" d="M 36.5,39.5 C 38.9816,41.1017 39.815,43.4351 39,46.5C 37.0355,47.885 35.2021,47.7184 33.5,46C 34.4059,43.7787 35.4059,41.6121 36.5,39.5 Z"/></g>
<g><path style="opacity:1" fill="#14856a" d="M 48.5,38.5 C 49.8195,39.9418 51.4862,40.6085 53.5,40.5C 53.5,41.1667 53.8333,41.5 54.5,41.5C 54.5,42.1667 54.5,42.8333 54.5,43.5C 51.4866,43.5809 49.4866,44.9142 48.5,47.5C 46.5336,48.4412 44.5336,49.4412 42.5,50.5C 41.8933,50.3764 41.56,50.0431 41.5,49.5C 41.5,48.8333 41.5,48.1667 41.5,47.5C 42.4731,45.0521 42.8064,42.3854 42.5,39.5C 44.1667,39.5 45.8333,39.5 47.5,39.5C 48.1667,39.5 48.5,39.1667 48.5,38.5 Z"/></g>
<g><path style="opacity:1" fill="#1f3e5b" d="M 20.5,47.5 C 20.8333,47.5 21.1667,47.5 21.5,47.5C 21.5,47.8333 21.5,48.1667 21.5,48.5C 21.6309,49.3764 21.2975,50.0431 20.5,50.5C 18.6147,49.3906 16.6147,48.5573 14.5,48C 13.8288,47.0138 13.8288,45.8471 14.5,44.5C 18.1293,41.758 20.1293,42.758 20.5,47.5 Z"/></g>
<g><path style="opacity:1" fill="#344351" d="M 29.5,29.5 C 29.1832,33.7016 29.5166,37.7016 30.5,41.5C 30.5,44.1667 30.5,46.8333 30.5,49.5C 29.7814,51.7638 29.448,54.0971 29.5,56.5C 28.3158,52.5387 27.3158,48.5387 26.5,44.5C 26.3345,40.4862 26.5012,36.4862 27,32.5C 27.3333,36.1667 27.6667,39.8333 28,43.5C 28.3333,35.8333 28.6667,28.1667 29,20.5C 29.498,23.4816 29.6646,26.4816 29.5,29.5 Z"/></g>
<g><path style="opacity:1" fill="#0e181a" d="M 54.5,43.5 C 55.6266,44.1217 56.6266,44.955 57.5,46C 55.4817,46.5046 53.4817,47.0046 51.5,47.5C 50.5,47.5 49.5,47.5 48.5,47.5C 49.4866,44.9142 51.4866,43.5809 54.5,43.5 Z"/></g>
<g><path style="opacity:1" fill="#5ad0c1" d="M 64.5,38.5 C 65.404,39.209 65.7373,40.209 65.5,41.5C 67.2161,41.6287 68.8828,41.962 70.5,42.5C 69.158,43.793 67.4913,44.6264 65.5,45C 66.6441,48.3194 65.3107,49.8194 61.5,49.5C 60.0011,51.3627 58.3344,52.0294 56.5,51.5C 54.6916,51.5086 53.0249,51.0086 51.5,50C 50.4019,49.2303 50.4019,48.397 51.5,47.5C 53.4817,47.0046 55.4817,46.5046 57.5,46C 56.6266,44.955 55.6266,44.1217 54.5,43.5C 54.5,42.8333 54.5,42.1667 54.5,41.5C 54.8333,41.5 55.1667,41.5 55.5,41.5C 55.5,42.1667 55.8333,42.5 56.5,42.5C 59.3263,47.4932 61.9929,47.1599 64.5,41.5C 63.9747,40.8076 63.3081,40.3076 62.5,40C 63.4158,39.7216 64.0825,39.2216 64.5,38.5 Z"/></g>
<g><path style="opacity:1" fill="#25264b" d="M 3.5,44.5 C 5.55817,45.9331 7.8915,46.5997 10.5,46.5C 13.2912,49.8958 16.9579,51.7291 21.5,52C 20.2625,52.2321 19.2625,52.7321 18.5,53.5C 14.4413,51.979 10.4413,50.1457 6.5,48C 5.2899,46.9609 4.2899,45.7942 3.5,44.5 Z"/></g>
<g><path style="opacity:1" fill="#232743" d="M 14.5,44.5 C 13.8288,45.8471 13.8288,47.0138 14.5,48C 16.6147,48.5573 18.6147,49.3906 20.5,50.5C 21.2975,50.0431 21.6309,49.3764 21.5,48.5C 21.8333,48.5 22.1667,48.5 22.5,48.5C 22.8076,50.924 22.4742,53.2573 21.5,55.5C 20.8933,55.3764 20.56,55.0431 20.5,54.5C 21.0674,53.5798 20.4008,53.2465 18.5,53.5C 19.2625,52.7321 20.2625,52.2321 21.5,52C 16.9579,51.7291 13.2912,49.8958 10.5,46.5C 12.0618,46.2671 13.3951,45.6005 14.5,44.5 Z"/></g>
<g><path style="opacity:1" fill="#224d5b" d="M 48.5,47.5 C 49.5,47.5 50.5,47.5 51.5,47.5C 50.4019,48.397 50.4019,49.2303 51.5,50C 53.0249,51.0086 54.6916,51.5086 56.5,51.5C 56.5,52.1667 56.5,52.8333 56.5,53.5C 51.8969,52.6167 47.2303,52.2834 42.5,52.5C 41.791,51.596 40.791,51.2627 39.5,51.5C 39.5,51.1667 39.5,50.8333 39.5,50.5C 39.8417,49.6618 40.5084,49.3284 41.5,49.5C 41.56,50.0431 41.8933,50.3764 42.5,50.5C 44.5336,49.4412 46.5336,48.4412 48.5,47.5 Z"/></g>
<g><path style="opacity:1" fill="#79b6ac" d="M 81.5,50.5 C 81.9175,51.2216 82.5842,51.7216 83.5,52C 81.5273,52.4955 79.5273,52.6621 77.5,52.5C 75.9142,53.1481 74.2475,53.6481 72.5,54C 73.3081,54.3076 73.9747,54.8076 74.5,55.5C 73.3112,56.4287 71.9778,56.762 70.5,56.5C 69.3117,55.6364 68.1451,54.6364 67,53.5C 65.8173,54.731 64.6507,54.731 63.5,53.5C 64.9492,52.8281 66.2825,52.1614 67.5,51.5C 69.3307,50.9478 70.9974,50.9478 72.5,51.5C 74.1667,50.1667 75.8333,48.8333 77.5,47.5C 78.8518,48.5244 80.1851,49.5244 81.5,50.5 Z"/></g>
<g><path style="opacity:0.929" fill="#495659" d="M 77.5,52.5 C 79.5273,52.6621 81.5273,52.4955 83.5,52C 82.5842,51.7216 81.9175,51.2216 81.5,50.5C 83.0443,50.2969 84.3777,49.6302 85.5,48.5C 85.8333,48.8333 86.1667,49.1667 86.5,49.5C 84.3128,53.2176 81.3128,54.2176 77.5,52.5 Z"/></g>
<g><path style="opacity:1" fill="#40af99" d="M 25.5,44.5 C 25.8333,44.5 26.1667,44.5 26.5,44.5C 27.3158,48.5387 28.3158,52.5387 29.5,56.5C 29.6036,58.7028 30.2702,60.7028 31.5,62.5C 31.5,62.8333 31.5,63.1667 31.5,63.5C 30.8333,63.5 30.1667,63.5 29.5,63.5C 29.2078,60.1991 27.5411,58.1991 24.5,57.5C 24.5797,54.2186 23.913,51.2186 22.5,48.5C 22.1667,48.5 21.8333,48.5 21.5,48.5C 21.5,48.1667 21.5,47.8333 21.5,47.5C 22.5,47.5 23.5,47.5 24.5,47.5C 24.2627,46.209 24.596,45.209 25.5,44.5 Z"/></g>
<g><path style="opacity:1" fill="#247fb8" d="M 42.5,52.5 C 42.6716,53.4916 42.3382,54.1583 41.5,54.5C 39.076,54.8076 36.7427,54.4742 34.5,53.5C 37.0865,52.52 39.7531,52.1866 42.5,52.5 Z"/></g>
<g><path style="opacity:1" fill="#31a597" d="M 3.5,43.5 C 3.5,43.8333 3.5,44.1667 3.5,44.5C 4.2899,45.7942 5.2899,46.9609 6.5,48C 10.4413,50.1457 14.4413,51.979 18.5,53.5C 20.4008,53.2465 21.0674,53.5798 20.5,54.5C 18.9207,56.6455 16.9207,56.8122 14.5,55C 9.4229,52.7427 5.08957,49.576 1.5,45.5C 2.16667,44.8333 2.83333,44.1667 3.5,43.5 Z"/></g>
<g><path style="opacity:1" fill="#a6fade" d="M 67.5,51.5 C 66.2825,52.1614 64.9492,52.8281 63.5,53.5C 64.6507,54.731 65.8173,54.731 67,53.5C 68.1451,54.6364 69.3117,55.6364 70.5,56.5C 68.1667,56.5 65.8333,56.5 63.5,56.5C 61.2106,55.9424 59.2106,54.7757 57.5,53C 60.6054,52.5059 63.9387,52.0059 67.5,51.5 Z"/></g>
<g><path style="opacity:1" fill="#79f1e5" d="M 42.5,52.5 C 47.2303,52.2834 51.8969,52.6167 56.5,53.5C 56.6107,54.1174 56.944,54.6174 57.5,55C 54.9488,55.0023 52.9488,55.8356 51.5,57.5C 48.2153,57.7896 45.2153,57.123 42.5,55.5C 41.8333,55.5 41.5,55.1667 41.5,54.5C 42.3382,54.1583 42.6716,53.4916 42.5,52.5 Z"/></g>
<g><path style="opacity:0.537" fill="#447f75" d="M 61.5,49.5 C 63.5,50.1667 65.5,50.8333 67.5,51.5C 63.9387,52.0059 60.6054,52.5059 57.5,53C 59.2106,54.7757 61.2106,55.9424 63.5,56.5C 60.9552,56.1505 58.9552,56.9838 57.5,59C 59.8045,59.8952 62.1378,60.7285 64.5,61.5C 63.3112,62.4287 61.9778,62.762 60.5,62.5C 57.941,61.5299 55.941,59.8632 54.5,57.5C 56.0214,56.367 55.3547,56.367 52.5,57.5C 52.1667,57.5 51.8333,57.5 51.5,57.5C 52.9488,55.8356 54.9488,55.0023 57.5,55C 56.944,54.6174 56.6107,54.1174 56.5,53.5C 56.5,52.8333 56.5,52.1667 56.5,51.5C 58.3344,52.0294 60.0011,51.3627 61.5,49.5 Z"/></g>
<g><path style="opacity:1" fill="#111726" d="M 39.5,51.5 C 40.791,51.2627 41.791,51.596 42.5,52.5C 39.7531,52.1866 37.0865,52.52 34.5,53.5C 36.7427,54.4742 39.076,54.8076 41.5,54.5C 41.5,55.1667 41.8333,55.5 42.5,55.5C 42.5,55.8333 42.5,56.1667 42.5,56.5C 40.2591,57.2998 39.2591,58.9664 39.5,61.5C 37.8333,61.5 36.1667,61.5 34.5,61.5C 33.9634,58.357 32.9634,55.357 31.5,52.5C 33.7269,51.8094 36.3935,51.476 39.5,51.5 Z"/></g>
<g><path style="opacity:1" fill="#32484e" d="M 30.5,49.5 C 33.3915,50.4025 36.3915,50.7359 39.5,50.5C 39.5,50.8333 39.5,51.1667 39.5,51.5C 36.3935,51.476 33.7269,51.8094 31.5,52.5C 32.9634,55.357 33.9634,58.357 34.5,61.5C 33.791,62.404 32.791,62.7373 31.5,62.5C 30.2702,60.7028 29.6036,58.7028 29.5,56.5C 29.448,54.0971 29.7814,51.7638 30.5,49.5 Z"/></g>
<g><path style="opacity:0.278" fill="#97a6a4" d="M 42.5,56.5 C 42.5,56.1667 42.5,55.8333 42.5,55.5C 45.2153,57.123 48.2153,57.7896 51.5,57.5C 51.8333,57.5 52.1667,57.5 52.5,57.5C 53.1667,57.5 53.8333,57.5 54.5,57.5C 55.941,59.8632 57.941,61.5299 60.5,62.5C 60.44,63.0431 60.1067,63.3764 59.5,63.5C 56.0081,62.8391 52.8414,61.5058 50,59.5C 46.4707,61.1473 43.9707,60.1473 42.5,56.5 Z"/></g>
<g><path style="opacity:0.341" fill="#1a4237" d="M 65.5,59.5 C 67.337,59.6395 67.6704,60.3061 66.5,61.5C 65.7025,61.0431 65.3691,60.3764 65.5,59.5 Z"/></g>
<g><path style="opacity:1" fill="#22344b" d="M 42.5,56.5 C 41.9853,58.8945 41.3186,61.2278 40.5,63.5C 37.4042,64.7595 35.0708,66.9262 33.5,70C 32.5632,70.6917 31.8966,70.525 31.5,69.5C 32.4778,69.189 33.1445,68.5223 33.5,67.5C 32.8201,66.1401 32.1534,64.8068 31.5,63.5C 31.5,63.1667 31.5,62.8333 31.5,62.5C 32.791,62.7373 33.791,62.404 34.5,61.5C 36.1667,61.5 37.8333,61.5 39.5,61.5C 39.2591,58.9664 40.2591,57.2998 42.5,56.5 Z"/></g>
<g><path style="opacity:1" fill="#41f8db" d="M 29.5,63.5 C 30.1667,63.5 30.8333,63.5 31.5,63.5C 32.1534,64.8068 32.8201,66.1401 33.5,67.5C 33.1445,68.5223 32.4778,69.189 31.5,69.5C 30.1266,69.6567 28.7932,69.49 27.5,69C 29.0368,67.8904 29.7035,66.3904 29.5,64.5C 29.5,64.1667 29.5,63.8333 29.5,63.5 Z"/></g>
<g><path style="opacity:0.608" fill="#37a69c" d="M 40.5,63.5 C 42.6648,63.1159 44.3315,63.7826 45.5,65.5C 43.3284,65.6759 40.9951,65.8425 38.5,66C 37.8333,66.6667 37.1667,67.3333 36.5,68C 39.2263,68.1816 41.8929,68.6816 44.5,69.5C 40.7366,69.8962 37.4032,70.8962 34.5,72.5C 32.5,72.5 30.5,72.5 28.5,72.5C 25.9908,71.3176 24.6574,69.3176 24.5,66.5C 26.5138,66.6085 28.1805,65.9418 29.5,64.5C 29.7035,66.3904 29.0368,67.8904 27.5,69C 28.7932,69.49 30.1266,69.6567 31.5,69.5C 31.8966,70.525 32.5632,70.6917 33.5,70C 35.0708,66.9262 37.4042,64.7595 40.5,63.5 Z"/></g>
</svg>
