<?xml version="1.0" encoding="UTF-8"?>
<!DOCTYPE svg PUBLIC "-//W3C//DTD SVG 1.1//EN" "http://www.w3.org/Graphics/SVG/1.1/DTD/svg11.dtd">
<svg xmlns="http://www.w3.org/2000/svg" version="1.1" width="100px" height="77px" style="shape-rendering:geometricPrecision; text-rendering:geometricPrecision; image-rendering:optimizeQuality; fill-rule:evenodd; clip-rule:evenodd" xmlns:xlink="http://www.w3.org/1999/xlink">
<g><path style="opacity:1" fill="#6c6e65" d="M 31.5,-0.5 C 34.5,-0.5 37.5,-0.5 40.5,-0.5C 39.0512,1.16441 37.0512,1.99775 34.5,2C 37.6688,3.34155 38.3354,5.50822 36.5,8.5C 31.7431,11.1135 26.7431,13.2802 21.5,15C 17.7974,18.3675 14.464,22.0342 11.5,26C 10.0494,25.7374 8.7161,25.9041 7.5,26.5C 8.02527,27.1924 8.69194,27.6924 9.5,28C 8.29493,29.3756 6.9616,30.5423 5.5,31.5C 4.52056,34.6248 4.18723,37.9581 4.5,41.5C 3.5,41.5 2.5,41.5 1.5,41.5C 1.33499,38.1501 1.50166,34.8168 2,31.5C 3.07356,30.3816 4.24022,29.3816 5.5,28.5C 6.54982,27.5712 6.54982,26.9046 5.5,26.5C 11.5189,16.8017 19.8522,10.135 30.5,6.5C 30.6307,4.17432 30.964,1.84099 31.5,-0.5 Z"/></g>
<g><path style="opacity:1" fill="#1c1a23" d="M 40.5,-0.5 C 41.1667,-0.5 41.8333,-0.5 42.5,-0.5C 46.909,4.18504 48.7423,9.85171 48,16.5C 48.9947,17.0659 49.828,17.7326 50.5,18.5C 48.8008,18.3398 47.1341,18.5065 45.5,19C 44.2264,19.9772 44.2264,20.8106 45.5,21.5C 45.5,22.1667 45.1667,22.5 44.5,22.5C 41.1884,22.149 38.855,23.4823 37.5,26.5C 37.2322,28.099 37.5655,29.4324 38.5,30.5C 39.9418,31.8195 40.6085,33.4862 40.5,35.5C 40.1583,36.3382 39.4916,36.6716 38.5,36.5C 38.5,36.1667 38.5,35.8333 38.5,35.5C 37.4242,32.3516 36.0909,29.3516 34.5,26.5C 35.3543,24.965 35.3543,23.6316 34.5,22.5C 33.6236,22.6309 32.9569,22.2975 32.5,21.5C 35.8005,19.3751 38.1338,16.5418 39.5,13C 38.9923,11.1074 37.9923,9.60739 36.5,8.5C 38.3354,5.50822 37.6688,3.34155 34.5,2C 37.0512,1.99775 39.0512,1.16441 40.5,-0.5 Z"/></g>
<g><path style="opacity:1" fill="#161e2d" d="M 36.5,8.5 C 37.9923,9.60739 38.9923,11.1074 39.5,13C 38.1338,16.5418 35.8005,19.3751 32.5,21.5C 32.9569,22.2975 33.6236,22.6309 34.5,22.5C 32.7484,24.2459 31.4151,26.2459 30.5,28.5C 29.6618,28.8417 29.3284,29.5084 29.5,30.5C 28.5655,31.5676 28.2322,32.901 28.5,34.5C 27.6862,36.631 27.1862,38.9644 27,41.5C 26.0296,39.7262 25.1963,37.8928 24.5,36C 26.1895,33.0829 27.1895,29.9162 27.5,26.5C 23.6482,26.1279 19.4815,26.1279 15,26.5C 15.1343,28.1893 15.6343,29.856 16.5,31.5C 13.9407,31.1984 11.6074,31.5318 9.5,32.5C 9.65668,33.8734 9.49001,35.2068 9,36.5C 8.32924,35.7476 7.4959,35.4142 6.5,35.5C 6.16667,34.1667 5.83333,32.8333 5.5,31.5C 6.9616,30.5423 8.29493,29.3756 9.5,28C 8.69194,27.6924 8.02527,27.1924 7.5,26.5C 8.7161,25.9041 10.0494,25.7374 11.5,26C 14.464,22.0342 17.7974,18.3675 21.5,15C 26.7431,13.2802 31.7431,11.1135 36.5,8.5 Z"/></g>
<g><path style="opacity:0.19" fill="#201f23" d="M 75.5,22.5 C 70.6759,20.8495 65.6759,20.1828 60.5,20.5C 59.8333,20.1667 59.1667,19.8333 58.5,19.5C 58.3691,18.6236 58.7025,17.9569 59.5,17.5C 63.9474,19.2151 68.614,20.2151 73.5,20.5C 74.7133,20.7472 75.38,21.4138 75.5,22.5 Z"/></g>
<g><path style="opacity:1" fill="#99ecdc" d="M 60.5,20.5 C 65.6759,20.1828 70.6759,20.8495 75.5,22.5C 77.0725,23.6873 78.7392,24.6873 80.5,25.5C 75.8888,24.5149 71.2221,23.8482 66.5,23.5C 64.1561,23.0603 62.1561,22.0603 60.5,20.5 Z"/></g>
<g><path style="opacity:0.451" fill="#373538" d="M 75.5,22.5 C 77.8268,22.6646 79.9935,23.3313 82,24.5C 82.6667,25.1667 82.6667,25.8333 82,26.5C 81.0053,27.0659 80.172,27.7326 79.5,28.5C 78.7109,28.2172 78.0442,27.7172 77.5,27C 78.7375,26.7679 79.7375,26.2679 80.5,25.5C 78.7392,24.6873 77.0725,23.6873 75.5,22.5 Z"/></g>
<g><path style="opacity:0.996" fill="#121420" d="M 55.5,27.5 C 54.5116,26.205 53.5116,24.8717 52.5,23.5C 53.1499,23.1961 53.8165,22.8627 54.5,22.5C 55.4519,24.0453 55.7852,25.712 55.5,27.5 Z"/></g>
<g><path style="opacity:1" fill="#c9dfe1" d="M 57.5,24.5 C 57.8499,27.0408 57.8499,29.3742 57.5,31.5C 54.8758,30.9236 54.2092,29.5902 55.5,27.5C 55.7852,25.712 55.4519,24.0453 54.5,22.5C 53.8165,22.8627 53.1499,23.1961 52.5,23.5C 52.1667,23.5 51.8333,23.5 51.5,23.5C 53.1017,21.0184 55.4351,20.185 58.5,21C 57.6634,22.0113 57.33,23.1779 57.5,24.5 Z"/></g>
<g><path style="opacity:1" fill="#572932" d="M 44.5,22.5 C 45.287,24.1042 46.6203,24.7709 48.5,24.5C 48.7407,28.0188 47.4074,30.6855 44.5,32.5C 44.8281,27.5823 42.4948,25.5823 37.5,26.5C 38.855,23.4823 41.1884,22.149 44.5,22.5 Z"/></g>
<g><path style="opacity:1" fill="#1b2434" d="M 28.5,34.5 C 28.5,35.8333 28.5,37.1667 28.5,38.5C 28.5,40.1667 28.5,41.8333 28.5,43.5C 25.4331,43.1205 24.4331,44.1205 25.5,46.5C 25.719,47.675 25.3857,48.675 24.5,49.5C 24.6242,48.3895 24.2909,47.0562 23.5,45.5C 23.5,45.1667 23.5,44.8333 23.5,44.5C 20.8987,41.6629 20.8987,38.8295 23.5,36C 21.8659,35.5065 20.1992,35.3398 18.5,35.5C 20.2215,32.2425 19.5549,30.9092 16.5,31.5C 15.6343,29.856 15.1343,28.1893 15,26.5C 19.4815,26.1279 23.6482,26.1279 27.5,26.5C 27.1895,29.9162 26.1895,33.0829 24.5,36C 25.1963,37.8928 26.0296,39.7262 27,41.5C 27.1862,38.9644 27.6862,36.631 28.5,34.5 Z"/></g>
<g><path style="opacity:1" fill="#269a8f" d="M 34.5,22.5 C 35.3543,23.6316 35.3543,24.965 34.5,26.5C 32.9382,26.7329 31.6049,27.3995 30.5,28.5C 31.4151,26.2459 32.7484,24.2459 34.5,22.5 Z"/></g>
<g><path style="opacity:1" fill="#ca6436" d="M 37.5,26.5 C 42.4948,25.5823 44.8281,27.5823 44.5,32.5C 44.1667,33.5 43.5,34.1667 42.5,34.5C 44.5216,30.225 43.1883,27.8916 38.5,27.5C 38.5,28.5 38.5,29.5 38.5,30.5C 37.5655,29.4324 37.2322,28.099 37.5,26.5 Z"/></g>
<g><path style="opacity:1" fill="#201c28" d="M 59.5,52.5 C 61.0808,50.8583 61.7475,48.8583 61.5,46.5C 63.4302,42.6273 64.0969,38.294 63.5,33.5C 61.6536,33.2222 60.3202,33.8888 59.5,35.5C 59.6545,38.2684 59.6545,40.935 59.5,43.5C 57.9458,42.0858 56.6125,40.4192 55.5,38.5C 57.1776,35.8053 58.8442,33.1386 60.5,30.5C 61.4773,27.9282 61.4773,25.5949 60.5,23.5C 62.3976,25.4682 64.731,26.8015 67.5,27.5C 68.5217,28.354 69.3551,29.354 70,30.5C 70.6667,35.5 70.6667,40.5 70,45.5C 66.8727,48.4743 63.3727,50.8077 59.5,52.5 Z"/></g>
<g><path style="opacity:1" fill="#47e4c0" d="M 66.5,23.5 C 71.2221,23.8482 75.8888,24.5149 80.5,25.5C 79.7375,26.2679 78.7375,26.7679 77.5,27C 78.0442,27.7172 78.7109,28.2172 79.5,28.5C 81.631,29.3138 83.9644,29.8138 86.5,30C 84.7444,30.2022 83.0777,30.7022 81.5,31.5C 83.1856,32.8569 84.8523,34.1902 86.5,35.5C 86.6107,36.1174 86.944,36.6174 87.5,37C 89.4727,37.4955 91.4727,37.6621 93.5,37.5C 94.8333,37.5 96.1667,37.5 97.5,37.5C 97.8333,37.5 98.1667,37.5 98.5,37.5C 93.0999,38.0428 87.7665,39.3761 82.5,41.5C 83.1272,42.4168 83.4606,43.4168 83.5,44.5C 82.3473,45.3132 82.3473,46.3132 83.5,47.5C 82.9747,48.1924 82.3081,48.6924 81.5,49C 82.756,49.4169 83.4226,50.2502 83.5,51.5C 82.391,51.5569 81.391,51.8902 80.5,52.5C 78.0947,49.677 75.7614,49.8437 73.5,53C 65.844,54.0704 65.1774,53.237 71.5,50.5C 71.2907,49.914 70.9574,49.414 70.5,49C 72.5,47.6667 74.1667,46 75.5,44C 74.5842,43.7216 73.9175,43.2216 73.5,42.5C 75.8333,42.5 78.1667,42.5 80.5,42.5C 80.5,41.5 80.5,40.5 80.5,39.5C 82.288,39.7852 83.9547,39.4519 85.5,38.5C 83.3811,37.4789 81.7144,35.9789 80.5,34C 78.0709,33.2967 75.7375,33.4634 73.5,34.5C 73.5774,33.2502 74.244,32.4169 75.5,32C 73.7153,29.6556 72.382,27.1556 71.5,24.5C 69.5853,24.7845 67.9187,24.4511 66.5,23.5 Z"/></g>
<g><path style="opacity:1" fill="#f9dd87" d="M 42.5,34.5 C 42.1583,35.3382 41.4916,35.6716 40.5,35.5C 40.6085,33.4862 39.9418,31.8195 38.5,30.5C 38.5,29.5 38.5,28.5 38.5,27.5C 43.1883,27.8916 44.5216,30.225 42.5,34.5 Z"/></g>
<g><path style="opacity:0.953" fill="#2d4c4c" d="M 79.5,28.5 C 82.1667,28.5 84.8333,28.5 87.5,28.5C 87.3601,30.1238 88.0267,31.2904 89.5,32C 88.8333,32.6667 88.1667,33.3333 87.5,34C 91.2903,34.1953 94.6237,35.362 97.5,37.5C 96.1667,37.5 94.8333,37.5 93.5,37.5C 91.7211,35.6565 89.3878,34.9898 86.5,35.5C 84.8523,34.1902 83.1856,32.8569 81.5,31.5C 83.0777,30.7022 84.7444,30.2022 86.5,30C 83.9644,29.8138 81.631,29.3138 79.5,28.5 Z"/></g>
<g><path style="opacity:1" fill="#769178" d="M 18.5,35.5 C 17.5,35.5 16.5,35.5 15.5,35.5C 14.791,34.596 13.791,34.2627 12.5,34.5C 13.6085,33.71 14.9419,33.21 16.5,33C 14.1902,32.5034 11.8568,32.3367 9.5,32.5C 11.6074,31.5318 13.9407,31.1984 16.5,31.5C 19.5549,30.9092 20.2215,32.2425 18.5,35.5 Z"/></g>
<g><path style="opacity:1" fill="#27857c" d="M 63.5,28.5 C 65.1703,28.7512 66.6703,29.4178 68,30.5C 68.6172,31.4491 68.4506,32.2825 67.5,33C 68.9733,33.7096 69.6399,34.8762 69.5,36.5C 67.8333,36.5 66.1667,36.5 64.5,36.5C 64.5987,33.7628 64.2653,31.0961 63.5,28.5 Z"/></g>
<g><path style="opacity:0.961" fill="#242524" d="M 12.5,34.5 C 13.791,34.2627 14.791,34.596 15.5,35.5C 12.5627,39.8258 11.5627,39.4925 12.5,34.5 Z"/></g>
<g><path style="opacity:1" fill="#15131b" d="M 48.5,32.5 C 49.5,32.5 50.5,32.5 51.5,32.5C 51.2627,33.791 51.596,34.791 52.5,35.5C 53.8333,37.5 53.8333,39.5 52.5,41.5C 51.5655,42.5676 51.2322,43.901 51.5,45.5C 50.5,45.5 49.5,45.5 48.5,45.5C 47.8489,43.1743 47.1822,40.8409 46.5,38.5C 46.7186,36.3069 47.3852,34.3069 48.5,32.5 Z"/></g>
<g><path style="opacity:1" fill="#3ef7bd" d="M 73.5,42.5 C 71.9735,41.5081 71.3068,40.0081 71.5,38C 71.6083,36.3189 72.2749,35.1522 73.5,34.5C 75.7375,33.4634 78.0709,33.2967 80.5,34C 81.7144,35.9789 83.3811,37.4789 85.5,38.5C 83.9547,39.4519 82.288,39.7852 80.5,39.5C 80.5,40.5 80.5,41.5 80.5,42.5C 78.1667,42.5 75.8333,42.5 73.5,42.5 Z"/></g>
<g><path style="opacity:1" fill="#4bf1b7" d="M 34.5,26.5 C 36.0909,29.3516 37.4242,32.3516 38.5,35.5C 35.7847,37.123 32.7847,37.7896 29.5,37.5C 29.5,35.1667 29.5,32.8333 29.5,30.5C 29.3284,29.5084 29.6618,28.8417 30.5,28.5C 31.6049,27.3995 32.9382,26.7329 34.5,26.5 Z"/></g>
<g><path style="opacity:1" fill="#edf6f7" d="M 86.5,35.5 C 89.3878,34.9898 91.7211,35.6565 93.5,37.5C 91.4727,37.6621 89.4727,37.4955 87.5,37C 86.944,36.6174 86.6107,36.1174 86.5,35.5 Z"/></g>
<g><path style="opacity:1" fill="#698d81" d="M 29.5,30.5 C 29.5,32.8333 29.5,35.1667 29.5,37.5C 32.7847,37.7896 35.7847,37.123 38.5,35.5C 38.5,35.8333 38.5,36.1667 38.5,36.5C 38.1667,37.1667 37.8333,37.8333 37.5,38.5C 35.901,38.2322 34.5676,38.5655 33.5,39.5C 32.5,39.5 31.5,39.5 30.5,39.5C 29.8333,39.1667 29.1667,38.8333 28.5,38.5C 28.5,37.1667 28.5,35.8333 28.5,34.5C 28.2322,32.901 28.5655,31.5676 29.5,30.5 Z"/></g>
<g><path style="opacity:1" fill="#249695" d="M 57.5,24.5 C 59.3465,26.0301 60.3465,28.0301 60.5,30.5C 58.8442,33.1386 57.1776,35.8053 55.5,38.5C 56.6125,40.4192 57.9458,42.0858 59.5,43.5C 60.1667,44.5 60.8333,45.5 61.5,46.5C 61.7475,48.8583 61.0808,50.8583 59.5,52.5C 59.7373,53.791 59.404,54.791 58.5,55.5C 57.3915,54.71 56.0581,54.21 54.5,54C 55.8009,52.3845 55.8009,50.8845 54.5,49.5C 54.5,48.8333 54.8333,48.5 55.5,48.5C 56.2679,49.2625 56.7679,50.2625 57,51.5C 57.7172,50.9558 58.2172,50.2891 58.5,49.5C 59.782,48.2918 59.782,46.9584 58.5,45.5C 57.1552,44.6533 56.1552,43.4866 55.5,42C 54.552,41.5172 53.552,41.3505 52.5,41.5C 53.8333,39.5 53.8333,37.5 52.5,35.5C 54.7488,34.9202 56.4154,33.5869 57.5,31.5C 57.8499,29.3742 57.8499,27.0408 57.5,24.5 Z"/></g>
<g><path style="opacity:1" fill="#35b1ab" d="M 65.5,38.5 C 66.8333,38.5 68.1667,38.5 69.5,38.5C 69.5,39.5 69.5,40.5 69.5,41.5C 68.1667,41.5 66.8333,41.5 65.5,41.5C 65.5,40.5 65.5,39.5 65.5,38.5 Z"/></g>
<g><path style="opacity:1" fill="#2d7975" d="M 98.5,37.5 C 98.8333,37.5 99.1667,37.5 99.5,37.5C 99.5,38.1667 99.5,38.8333 99.5,39.5C 94.0144,41.4745 88.6811,43.1411 83.5,44.5C 83.4606,43.4168 83.1272,42.4168 82.5,41.5C 87.7665,39.3761 93.0999,38.0428 98.5,37.5 Z"/></g>
<g><path style="opacity:1" fill="#cee0b4" d="M 9.5,32.5 C 11.8568,32.3367 14.1902,32.5034 16.5,33C 14.9419,33.21 13.6085,33.71 12.5,34.5C 11.5627,39.4925 12.5627,39.8258 15.5,35.5C 16.5,35.5 17.5,35.5 18.5,35.5C 20.1992,35.3398 21.8659,35.5065 23.5,36C 20.8987,38.8295 20.8987,41.6629 23.5,44.5C 21.2821,44.3862 19.2821,43.7196 17.5,42.5C 16.605,38.162 15.605,37.8287 14.5,41.5C 13.4138,41.62 12.7472,42.2867 12.5,43.5C 12.7472,44.7133 13.4138,45.38 14.5,45.5C 15.5063,45.9377 15.5063,46.6043 14.5,47.5C 10.845,47.5278 8.17831,45.8611 6.5,42.5C 5.28569,40.1413 5.28569,37.808 6.5,35.5C 7.4959,35.4142 8.32924,35.7476 9,36.5C 9.49001,35.2068 9.65668,33.8734 9.5,32.5 Z"/></g>
<g><path style="opacity:1" fill="#1d222b" d="M 17.5,42.5 C 17.5654,42.9382 17.3988,43.2716 17,43.5C 16.5831,42.244 15.7498,41.5774 14.5,41.5C 15.605,37.8287 16.605,38.162 17.5,42.5 Z"/></g>
<g><path style="opacity:1" fill="#744542" d="M 28.5,38.5 C 29.1667,38.8333 29.8333,39.1667 30.5,39.5C 32.4602,41.1563 34.4602,42.823 36.5,44.5C 35.8776,46.1216 34.8776,47.4549 33.5,48.5C 32.3951,47.3995 31.0618,46.7329 29.5,46.5C 29.4431,45.391 29.1098,44.391 28.5,43.5C 28.5,41.8333 28.5,40.1667 28.5,38.5 Z"/></g>
<g><path style="opacity:0.973" fill="#0b0a0f" d="M 14.5,41.5 C 15.4054,42.9643 15.4054,44.2976 14.5,45.5C 13.4138,45.38 12.7472,44.7133 12.5,43.5C 12.7472,42.2867 13.4138,41.62 14.5,41.5 Z"/></g>
<g><path style="opacity:1" fill="#49ddb4" d="M 30.5,39.5 C 31.5,39.5 32.5,39.5 33.5,39.5C 38.5104,39.1981 39.5104,40.8648 36.5,44.5C 34.4602,42.823 32.4602,41.1563 30.5,39.5 Z"/></g>
<g><path style="opacity:1" fill="#46d1ba" d="M 45.5,21.5 C 47.8583,21.2525 49.8583,21.9192 51.5,23.5C 51.8333,23.5 52.1667,23.5 52.5,23.5C 53.5116,24.8717 54.5116,26.205 55.5,27.5C 54.2092,29.5902 54.8758,30.9236 57.5,31.5C 56.4154,33.5869 54.7488,34.9202 52.5,35.5C 52.8076,33.076 52.4742,30.7427 51.5,28.5C 50.016,29.4669 49.016,30.8002 48.5,32.5C 47.3852,34.3069 46.7186,36.3069 46.5,38.5C 47.1822,40.8409 47.8489,43.1743 48.5,45.5C 49.5,45.5 50.5,45.5 51.5,45.5C 51.2322,43.901 51.5655,42.5676 52.5,41.5C 53.552,41.3505 54.552,41.5172 55.5,42C 56.1552,43.4866 57.1552,44.6533 58.5,45.5C 59.782,46.9584 59.782,48.2918 58.5,49.5C 58.5,48.5 58.5,47.5 58.5,46.5C 56.8212,46.2852 55.8212,46.9519 55.5,48.5C 54.8333,48.5 54.5,48.8333 54.5,49.5C 52.5633,50.5903 50.73,51.9236 49,53.5C 49.1433,54.8649 49.6433,56.1982 50.5,57.5C 46.062,58.5749 44.062,56.9083 44.5,52.5C 46.7224,52.4413 47.7224,51.2747 47.5,49C 47.196,45.5503 45.5293,43.0503 42.5,41.5C 42.1583,40.6618 41.4916,40.3284 40.5,40.5C 39.7095,39.5987 38.7095,38.9321 37.5,38.5C 37.8333,37.8333 38.1667,37.1667 38.5,36.5C 39.4916,36.6716 40.1583,36.3382 40.5,35.5C 41.4916,35.6716 42.1583,35.3382 42.5,34.5C 43.5,34.1667 44.1667,33.5 44.5,32.5C 47.4074,30.6855 48.7407,28.0188 48.5,24.5C 46.6203,24.7709 45.287,24.1042 44.5,22.5C 45.1667,22.5 45.5,22.1667 45.5,21.5 Z"/></g>
<g><path style="opacity:1" fill="#1d8a76" d="M 52.5,35.5 C 51.596,34.791 51.2627,33.791 51.5,32.5C 50.5,32.5 49.5,32.5 48.5,32.5C 49.016,30.8002 50.016,29.4669 51.5,28.5C 52.4742,30.7427 52.8076,33.076 52.5,35.5 Z"/></g>
<g><path style="opacity:1" fill="#a7cb85" d="M 1.5,41.5 C 2.5,41.5 3.5,41.5 4.5,41.5C 4.5,43.5 4.5,45.5 4.5,47.5C 3.5,47.5 2.5,47.5 1.5,47.5C 1.5,45.5 1.5,43.5 1.5,41.5 Z"/></g>
<g><path style="opacity:1" fill="#f4e49a" d="M 40.5,40.5 C 41.4916,40.3284 42.1583,40.6618 42.5,41.5C 43.3235,43.4546 43.4901,45.4546 43,47.5C 42.3292,48.2524 41.4959,48.5858 40.5,48.5C 39.5033,45.995 39.5033,43.3283 40.5,40.5 Z"/></g>
<g><path style="opacity:1" fill="#7d442b" d="M 61.5,46.5 C 60.8333,45.5 60.1667,44.5 59.5,43.5C 59.6545,40.935 59.6545,38.2684 59.5,35.5C 60.3202,33.8888 61.6536,33.2222 63.5,33.5C 64.0969,38.294 63.4302,42.6273 61.5,46.5 Z"/></g>
<g><path style="opacity:1" fill="#6d927f" d="M 14.5,41.5 C 15.7498,41.5774 16.5831,42.244 17,43.5C 17.3988,43.2716 17.5654,42.9382 17.5,42.5C 19.2821,43.7196 21.2821,44.3862 23.5,44.5C 23.5,44.8333 23.5,45.1667 23.5,45.5C 22.1266,45.3433 20.7932,45.51 19.5,46C 20.8213,47.5445 20.4879,48.7112 18.5,49.5C 17.8182,48.7573 17.1515,48.0906 16.5,47.5C 15.8333,47.5 15.1667,47.5 14.5,47.5C 15.5063,46.6043 15.5063,45.9377 14.5,45.5C 15.4054,44.2976 15.4054,42.9643 14.5,41.5 Z"/></g>
<g><path style="opacity:1" fill="#390f44" d="M 28.5,43.5 C 29.1098,44.391 29.4431,45.391 29.5,46.5C 29.5,46.8333 29.5,47.1667 29.5,47.5C 29.5,47.8333 29.5,48.1667 29.5,48.5C 28.8501,48.8039 28.1835,49.1373 27.5,49.5C 26.8243,48.3984 26.1577,47.3984 25.5,46.5C 24.4331,44.1205 25.4331,43.1205 28.5,43.5 Z"/></g>
<g><path style="opacity:1" fill="#169382" d="M 64.5,43.5 C 69.1366,43.6077 69.47,44.6077 65.5,46.5C 64.6143,45.675 64.281,44.675 64.5,43.5 Z"/></g>
<g><path style="opacity:1" fill="#30797b" d="M 83.5,44.5 C 84.9516,45.3019 86.6183,45.8019 88.5,46C 90.9272,47.5545 90.9272,48.7211 88.5,49.5C 87.609,50.1098 86.609,50.4431 85.5,50.5C 84.8333,50.8333 84.1667,51.1667 83.5,51.5C 83.4226,50.2502 82.756,49.4169 81.5,49C 82.3081,48.6924 82.9747,48.1924 83.5,47.5C 82.3473,46.3132 82.3473,45.3132 83.5,44.5 Z"/></g>
<g><path style="opacity:1" fill="#effafc" d="M 58.5,49.5 C 58.2172,50.2891 57.7172,50.9558 57,51.5C 56.7679,50.2625 56.2679,49.2625 55.5,48.5C 55.8212,46.9519 56.8212,46.2852 58.5,46.5C 58.5,47.5 58.5,48.5 58.5,49.5 Z"/></g>
<g><path style="opacity:1" fill="#3e1e3c" d="M 33.5,39.5 C 34.5676,38.5655 35.901,38.2322 37.5,38.5C 38.7095,38.9321 39.7095,39.5987 40.5,40.5C 39.5033,43.3283 39.5033,45.995 40.5,48.5C 41.6085,49.29 42.9419,49.79 44.5,50C 42.256,50.0496 40.5893,50.8829 39.5,52.5C 37.8828,51.962 36.2161,51.6287 34.5,51.5C 34.4431,50.391 34.1098,49.391 33.5,48.5C 34.8776,47.4549 35.8776,46.1216 36.5,44.5C 39.5104,40.8648 38.5104,39.1981 33.5,39.5 Z"/></g>
<g><path style="opacity:1" fill="#267677" d="M 50.5,18.5 C 51.4584,18.9528 52.2917,19.6195 53,20.5C 54.6995,19.5939 56.5328,19.2606 58.5,19.5C 59.1667,19.8333 59.8333,20.1667 60.5,20.5C 62.1561,22.0603 64.1561,23.0603 66.5,23.5C 67.9187,24.4511 69.5853,24.7845 71.5,24.5C 72.382,27.1556 73.7153,29.6556 75.5,32C 74.244,32.4169 73.5774,33.2502 73.5,34.5C 72.2749,35.1522 71.6083,36.3189 71.5,38C 71.3068,40.0081 71.9735,41.5081 73.5,42.5C 73.9175,43.2216 74.5842,43.7216 75.5,44C 74.1667,46 72.5,47.6667 70.5,49C 70.9574,49.414 71.2907,49.914 71.5,50.5C 65.1774,53.237 65.844,54.0704 73.5,53C 75.7614,49.8437 78.0947,49.677 80.5,52.5C 73.7753,53.838 67.1086,54.838 60.5,55.5C 59.8333,58.1667 59.1667,58.1667 58.5,55.5C 59.404,54.791 59.7373,53.791 59.5,52.5C 63.3727,50.8077 66.8727,48.4743 70,45.5C 70.6667,40.5 70.6667,35.5 70,30.5C 69.3551,29.354 68.5217,28.354 67.5,27.5C 64.731,26.8015 62.3976,25.4682 60.5,23.5C 61.4773,25.5949 61.4773,27.9282 60.5,30.5C 60.3465,28.0301 59.3465,26.0301 57.5,24.5C 57.33,23.1779 57.6634,22.0113 58.5,21C 55.4351,20.185 53.1017,21.0184 51.5,23.5C 49.8583,21.9192 47.8583,21.2525 45.5,21.5C 44.2264,20.8106 44.2264,19.9772 45.5,19C 47.1341,18.5065 48.8008,18.3398 50.5,18.5 Z"/></g>
<g><path style="opacity:1" fill="#121a2b" d="M 5.5,31.5 C 5.83333,32.8333 6.16667,34.1667 6.5,35.5C 5.28569,37.808 5.28569,40.1413 6.5,42.5C 8.17831,45.8611 10.845,47.5278 14.5,47.5C 15.1667,47.5 15.8333,47.5 16.5,47.5C 16.4226,48.7498 15.756,49.5831 14.5,50C 15.4213,51.756 16.588,51.9227 18,50.5C 19.3638,51.3707 20.5305,52.3707 21.5,53.5C 20.2819,55.3318 20.9486,56.3318 23.5,56.5C 23.4894,58.0174 22.8228,59.1841 21.5,60C 22.3805,60.7083 23.0472,61.5416 23.5,62.5C 19.0954,59.6042 15.0954,56.1042 11.5,52C 10.1667,51.6667 8.83333,51.3333 7.5,51C 8.16667,50.6667 8.83333,50.3333 9.5,50C 7.92209,48.9055 6.25542,48.0722 4.5,47.5C 4.5,45.5 4.5,43.5 4.5,41.5C 4.18723,37.9581 4.52056,34.6248 5.5,31.5 Z"/></g>
<g><path style="opacity:1" fill="#218589" d="M 29.5,47.5 C 29.5,47.1667 29.5,46.8333 29.5,46.5C 31.0618,46.7329 32.3951,47.3995 33.5,48.5C 34.1098,49.391 34.4431,50.391 34.5,51.5C 34.44,52.0431 34.1067,52.3764 33.5,52.5C 32.1128,50.79 30.7794,49.1233 29.5,47.5 Z"/></g>
<g><path style="opacity:1" fill="#6d2c3a" d="M 42.5,41.5 C 45.5293,43.0503 47.196,45.5503 47.5,49C 47.7224,51.2747 46.7224,52.4413 44.5,52.5C 42.8333,52.5 41.1667,52.5 39.5,52.5C 40.5893,50.8829 42.256,50.0496 44.5,50C 42.9419,49.79 41.6085,49.29 40.5,48.5C 41.4959,48.5858 42.3292,48.2524 43,47.5C 43.4901,45.4546 43.3235,43.4546 42.5,41.5 Z"/></g>
<g><path style="opacity:0.016" fill="#101115" d="M 88.5,49.5 C 87.9473,51.5518 86.9473,51.8852 85.5,50.5C 86.609,50.4431 87.609,50.1098 88.5,49.5 Z"/></g>
<g><path style="opacity:1" fill="#181923" d="M 29.5,47.5 C 30.7794,49.1233 32.1128,50.79 33.5,52.5C 34.1067,52.3764 34.44,52.0431 34.5,51.5C 36.2161,51.6287 37.8828,51.962 39.5,52.5C 41.1667,52.5 42.8333,52.5 44.5,52.5C 44.062,56.9083 46.062,58.5749 50.5,57.5C 49.5313,58.3094 48.6979,59.3094 48,60.5C 48.5659,66.7768 46.7326,72.1101 42.5,76.5C 41.8333,76.5 41.1667,76.5 40.5,76.5C 39.4324,75.5655 38.099,75.2322 36.5,75.5C 36.5,74.8333 36.5,74.1667 36.5,73.5C 37.5735,72.7494 37.7401,71.7494 37,70.5C 35.2714,70.0257 34.1047,69.0257 33.5,67.5C 35.8285,68.7489 37.6618,68.0823 39,65.5C 39.8061,60.9402 37.9727,57.7735 33.5,56C 31.0995,55.8142 28.7662,55.3142 26.5,54.5C 27.8333,53.5 29.1667,52.5 30.5,51.5C 29.8728,50.5832 29.5394,49.5832 29.5,48.5C 29.5,48.1667 29.5,47.8333 29.5,47.5 Z"/></g>
<g><path style="opacity:1" fill="#17434e" d="M 54.5,49.5 C 55.8009,50.8845 55.8009,52.3845 54.5,54C 56.0581,54.21 57.3915,54.71 58.5,55.5C 56.5328,55.7394 54.6995,55.4061 53,54.5C 52.6232,55.9423 51.7899,56.9423 50.5,57.5C 49.6433,56.1982 49.1433,54.8649 49,53.5C 50.73,51.9236 52.5633,50.5903 54.5,49.5 Z"/></g>
<g><path style="opacity:0.096" fill="#040406" d="M 83.5,51.5 C 81.8839,52.9892 79.8839,53.9892 77.5,54.5C 71.8722,55.4954 66.2055,55.8288 60.5,55.5C 67.1086,54.838 73.7753,53.838 80.5,52.5C 81.391,51.8902 82.391,51.5569 83.5,51.5 Z"/></g>
<g><path style="opacity:0.984" fill="#717e76" d="M 21.5,53.5 C 22.2312,53.9418 23.2312,54.1085 24.5,54C 23.7476,54.6708 23.4142,55.5041 23.5,56.5C 20.9486,56.3318 20.2819,55.3318 21.5,53.5 Z"/></g>
<g><path style="opacity:1" fill="#182032" d="M 23.5,45.5 C 24.2909,47.0562 24.6242,48.3895 24.5,49.5C 25.3857,48.675 25.719,47.675 25.5,46.5C 26.1577,47.3984 26.8243,48.3984 27.5,49.5C 28.1835,49.1373 28.8501,48.8039 29.5,48.5C 29.5394,49.5832 29.8728,50.5832 30.5,51.5C 29.1667,52.5 27.8333,53.5 26.5,54.5C 28.7662,55.3142 31.0995,55.8142 33.5,56C 37.9727,57.7735 39.8061,60.9402 39,65.5C 37.6618,68.0823 35.8285,68.7489 33.5,67.5C 31.3546,66.1516 29.188,65.8182 27,66.5C 25.8978,65.051 24.7311,63.7177 23.5,62.5C 23.0472,61.5416 22.3805,60.7083 21.5,60C 22.8228,59.1841 23.4894,58.0174 23.5,56.5C 23.4142,55.5041 23.7476,54.6708 24.5,54C 23.2312,54.1085 22.2312,53.9418 21.5,53.5C 20.5305,52.3707 19.3638,51.3707 18,50.5C 16.588,51.9227 15.4213,51.756 14.5,50C 15.756,49.5831 16.4226,48.7498 16.5,47.5C 17.1515,48.0906 17.8182,48.7573 18.5,49.5C 20.4879,48.7112 20.8213,47.5445 19.5,46C 20.7932,45.51 22.1266,45.3433 23.5,45.5 Z"/></g>
<g><path style="opacity:1" fill="#69746f" d="M 5.5,26.5 C 6.54982,26.9046 6.54982,27.5712 5.5,28.5C 4.24022,29.3816 3.07356,30.3816 2,31.5C 1.50166,34.8168 1.33499,38.1501 1.5,41.5C 1.5,43.5 1.5,45.5 1.5,47.5C 2.5,47.5 3.5,47.5 4.5,47.5C 6.25542,48.0722 7.92209,48.9055 9.5,50C 8.83333,50.3333 8.16667,50.6667 7.5,51C 8.83333,51.3333 10.1667,51.6667 11.5,52C 15.0954,56.1042 19.0954,59.6042 23.5,62.5C 24.7311,63.7177 25.8978,65.051 27,66.5C 29.188,65.8182 31.3546,66.1516 33.5,67.5C 34.1047,69.0257 35.2714,70.0257 37,70.5C 37.7401,71.7494 37.5735,72.7494 36.5,73.5C 35.1779,73.67 34.0113,73.3366 33,72.5C 32.5172,73.448 32.3505,74.448 32.5,75.5C 33.8333,75.5 35.1667,75.5 36.5,75.5C 38.099,75.2322 39.4324,75.5655 40.5,76.5C 37.5,76.5 34.5,76.5 31.5,76.5C 30.3677,74.5331 30.7011,72.6998 32.5,71C 28.8835,69.5131 25.2169,68.1798 21.5,67C 14.864,59.5198 7.5307,53.0198 -0.5,47.5C -0.5,42.8333 -0.5,38.1667 -0.5,33.5C -0.0060849,29.9973 1.99392,27.6639 5.5,26.5 Z"/></g>
<g><path style="opacity:1" fill="#dbf6c8" d="M 36.5,73.5 C 36.5,74.1667 36.5,74.8333 36.5,75.5C 35.1667,75.5 33.8333,75.5 32.5,75.5C 32.3505,74.448 32.5172,73.448 33,72.5C 34.0113,73.3366 35.1779,73.67 36.5,73.5 Z"/></g>
</svg>
