<?xml version="1.0" encoding="UTF-8"?>
<!DOCTYPE svg PUBLIC "-//W3C//DTD SVG 1.1//EN" "http://www.w3.org/Graphics/SVG/1.1/DTD/svg11.dtd">
<svg xmlns="http://www.w3.org/2000/svg" version="1.1" width="88px" height="83px" style="shape-rendering:geometricPrecision; text-rendering:geometricPrecision; image-rendering:optimizeQuality; fill-rule:evenodd; clip-rule:evenodd" xmlns:xlink="http://www.w3.org/1999/xlink">
<g><path style="opacity:1" fill="#251929" d="M 30.5,-0.5 C 34.1667,-0.5 37.8333,-0.5 41.5,-0.5C 44.7668,2.38528 48.6002,4.38528 53,5.5C 53.7648,5.43007 54.2648,5.09674 54.5,4.5C 55.3382,4.84171 55.6716,5.50838 55.5,6.5C 50.3593,6.65477 45.3593,5.98811 40.5,4.5C 40.5,3.5 40.5,2.5 40.5,1.5C 39.1667,1.5 37.8333,1.5 36.5,1.5C 33.9179,1.02539 31.9179,1.69206 30.5,3.5C 29.3143,2.2946 29.3143,0.961264 30.5,-0.5 Z"/></g>
<g><path style="opacity:1" fill="#8eae10" d="M 36.5,1.5 C 37.1667,2.5 37.8333,3.5 38.5,4.5C 38.5,5.83333 37.8333,6.5 36.5,6.5C 36.0269,5.09368 35.0269,4.42702 33.5,4.5C 32.391,4.44312 31.391,4.10978 30.5,3.5C 31.9179,1.69206 33.9179,1.02539 36.5,1.5 Z"/></g>
<g><path style="opacity:1" fill="#3e937b" d="M 36.5,1.5 C 37.8333,1.5 39.1667,1.5 40.5,1.5C 40.5,2.5 40.5,3.5 40.5,4.5C 39.8333,4.5 39.1667,4.5 38.5,4.5C 37.8333,3.5 37.1667,2.5 36.5,1.5 Z"/></g>
<g><path style="opacity:1" fill="#66932b" d="M 51.5,-0.5 C 52.5,-0.5 53.5,-0.5 54.5,-0.5C 54.3691,0.376442 54.7025,1.04311 55.5,1.5C 58.0164,2.32989 60.3498,3.32989 62.5,4.5C 59.9242,4.46791 57.5909,5.13458 55.5,6.5C 55.6716,5.50838 55.3382,4.84171 54.5,4.5C 53.1103,3.10072 52.1103,1.43406 51.5,-0.5 Z"/></g>
<g><path style="opacity:1" fill="#292030" d="M 54.5,-0.5 C 56.5,-0.5 58.5,-0.5 60.5,-0.5C 63.8253,2.11371 67.1586,4.78038 70.5,7.5C 70.5,8.16667 70.5,8.83333 70.5,9.5C 68.5,9.5 66.5,9.5 64.5,9.5C 64.1692,7.67761 63.5025,6.01094 62.5,4.5C 60.3498,3.32989 58.0164,2.32989 55.5,1.5C 54.7025,1.04311 54.3691,0.376442 54.5,-0.5 Z"/></g>
<g><path style="opacity:1" fill="#ce0c6a" d="M 38.5,4.5 C 39.1667,4.5 39.8333,4.5 40.5,4.5C 45.3593,5.98811 50.3593,6.65477 55.5,6.5C 57.5909,5.13458 59.9242,4.46791 62.5,4.5C 63.5025,6.01094 64.1692,7.67761 64.5,9.5C 66.5,9.5 68.5,9.5 70.5,9.5C 71.1667,11.5 72.5,12.8333 74.5,13.5C 74.8212,15.0481 75.8212,15.7148 77.5,15.5C 77.5,17.1667 77.5,18.8333 77.5,20.5C 78.791,20.2627 79.791,20.596 80.5,21.5C 79.1667,21.5 77.8333,21.5 76.5,21.5C 76.7852,19.712 76.4519,18.0453 75.5,16.5C 74.4679,18.0396 73.1346,18.5396 71.5,18C 69.7618,15.2873 67.4285,13.2873 64.5,12C 68.2259,10.9568 67.8926,10.4568 63.5,10.5C 63.6495,9.44802 63.4828,8.44802 63,7.5C 59.5855,8.39448 56.0855,9.06115 52.5,9.5C 50.8651,9.12229 49.3651,8.45563 48,7.5C 46.2382,7.94437 46.4049,8.44437 48.5,9C 44.4736,11.3755 40.4736,13.7089 36.5,16C 37.7932,16.49 39.1266,16.6567 40.5,16.5C 40.5,17.8333 40.5,19.1667 40.5,20.5C 38.8333,20.5 37.1667,20.5 35.5,20.5C 35.5,19.8333 35.1667,19.5 34.5,19.5C 30.2036,17.0894 25.5369,15.9228 20.5,16C 21.4231,18.0408 21.7564,20.2075 21.5,22.5C 20.7302,20.3144 19.7302,18.1477 18.5,16C 18.6387,14.699 19.3054,13.8656 20.5,13.5C 24.8333,13.5 29.1667,13.5 33.5,13.5C 33.5,12.5 33.5,11.5 33.5,10.5C 35.924,10.8076 38.2573,10.4742 40.5,9.5C 38.6684,8.94316 37.3351,7.94316 36.5,6.5C 37.8333,6.5 38.5,5.83333 38.5,4.5 Z"/></g>
<g><path style="opacity:0.039" fill="#161116" d="M 27.5,10.5 C 26.7611,10.631 26.0944,10.4643 25.5,10C 26.4368,9.30831 27.1034,9.47498 27.5,10.5 Z"/></g>
<g><path style="opacity:1" fill="#5f2242" d="M 33.5,4.5 C 35.0269,4.42702 36.0269,5.09368 36.5,6.5C 37.3351,7.94316 38.6684,8.94316 40.5,9.5C 38.2573,10.4742 35.924,10.8076 33.5,10.5C 33.5106,8.98261 34.1772,7.81595 35.5,7C 34.6195,6.2917 33.9528,5.45837 33.5,4.5 Z"/></g>
<g><path style="opacity:1" fill="#75a400" d="M 72.5,6.5 C 72.8844,8.92937 73.551,11.2627 74.5,13.5C 72.5,12.8333 71.1667,11.5 70.5,9.5C 70.5,8.83333 70.5,8.16667 70.5,7.5C 70.8417,6.66175 71.5084,6.32842 72.5,6.5 Z"/></g>
<g><path style="opacity:0.112" fill="#21292b" d="M 27.5,10.5 C 29.6112,11.3799 31.6112,11.3799 33.5,10.5C 33.5,11.5 33.5,12.5 33.5,13.5C 29.1667,13.5 24.8333,13.5 20.5,13.5C 22.8876,12.6515 25.2209,11.6515 27.5,10.5 Z"/></g>
<g><path style="opacity:0.188" fill="#383b41" d="M 72.5,6.5 C 76.9442,9.71851 79.6109,14.0518 80.5,19.5C 81.1667,19.8333 81.8333,20.1667 82.5,20.5C 83.2332,24.2039 83.8998,27.8705 84.5,31.5C 83.8333,31.5 83.1667,31.5 82.5,31.5C 81.0221,32.4475 80.0221,33.7809 79.5,35.5C 79.2065,31.5633 79.5399,27.73 80.5,24C 79.552,23.5172 78.552,23.3505 77.5,23.5C 78.5,22.8333 79.5,22.1667 80.5,21.5C 79.791,20.596 78.791,20.2627 77.5,20.5C 77.5,18.8333 77.5,17.1667 77.5,15.5C 75.8212,15.7148 74.8212,15.0481 74.5,13.5C 73.551,11.2627 72.8844,8.92937 72.5,6.5 Z"/></g>
<g><path style="opacity:0.376" fill="#5c640e" d="M 15.5,24.5 C 16.1667,25.8333 16.8333,27.1667 17.5,28.5C 16.8333,28.1667 16.1667,27.8333 15.5,27.5C 11.9405,25.7175 11.9405,24.7175 15.5,24.5 Z"/></g>
<g><path style="opacity:1" fill="#e10068" d="M 15.5,24.5 C 16.8333,24.5 18.1667,24.5 19.5,24.5C 19.7852,26.288 19.4519,27.9547 18.5,29.5C 17.8933,29.3764 17.56,29.0431 17.5,28.5C 16.8333,27.1667 16.1667,25.8333 15.5,24.5 Z"/></g>
<g><path style="opacity:1" fill="#b2c829" d="M 77.5,23.5 C 78.552,23.3505 79.552,23.5172 80.5,24C 79.5399,27.73 79.2065,31.5633 79.5,35.5C 77.3109,33.6318 75.9775,31.1318 75.5,28C 75.7586,26.2134 76.4253,24.7134 77.5,23.5 Z"/></g>
<g><path style="opacity:1" fill="#537c09" d="M 11.5,28.5 C 12.0906,29.1515 12.7573,29.8182 13.5,30.5C 11.9547,31.4519 10.288,31.7852 8.5,31.5C 6.46765,30.9522 5.46765,29.6188 5.5,27.5C 7.73535,27.2053 9.73535,27.5386 11.5,28.5 Z"/></g>
<g><path style="opacity:1" fill="#c0186a" d="M 23.5,26.5 C 24.9819,28.9105 26.3152,31.5771 27.5,34.5C 30.0865,35.48 32.7531,35.8134 35.5,35.5C 35.6655,39.5138 35.4988,43.5138 35,47.5C 33.2714,47.9743 32.1047,48.9743 31.5,50.5C 30.5,50.5 29.5,50.5 28.5,50.5C 28.5,49.5 28.5,48.5 28.5,47.5C 28.3893,46.8826 28.056,46.3826 27.5,46C 28.4158,45.7216 29.0825,45.2216 29.5,44.5C 30.8333,45.1667 32.1667,45.8333 33.5,46.5C 34.4767,43.7131 34.81,40.7131 34.5,37.5C 33.5,37.5 32.5,37.5 31.5,37.5C 29.8784,38.1224 28.5451,39.1224 27.5,40.5C 27.5,41.1667 27.5,41.8333 27.5,42.5C 25.2901,41.5449 24.9568,40.0449 26.5,38C 23.7589,35.2389 20.4256,34.0722 16.5,34.5C 16.5,33.5 16.5,32.5 16.5,31.5C 18.1667,31.5 19.8333,31.5 21.5,31.5C 21.3653,29.4458 22.032,27.7791 23.5,26.5 Z"/></g>
<g><path style="opacity:1" fill="#37293c" d="M 21.5,22.5 C 23.1765,23.1834 23.8432,24.5168 23.5,26.5C 22.032,27.7791 21.3653,29.4458 21.5,31.5C 19.8333,31.5 18.1667,31.5 16.5,31.5C 15.5655,32.5676 15.2322,33.901 15.5,35.5C 13.901,35.2322 12.5676,35.5655 11.5,36.5C 8.18803,38.5793 4.52137,39.5793 0.5,39.5C 0.5,41.1667 0.5,42.8333 0.5,44.5C 0.166667,44.5 -0.166667,44.5 -0.5,44.5C -0.5,41.8333 -0.5,39.1667 -0.5,36.5C 2.75985,35.2262 5.75985,33.5595 8.5,31.5C 10.288,31.7852 11.9547,31.4519 13.5,30.5C 12.7573,29.8182 12.0906,29.1515 11.5,28.5C 13.099,28.7678 14.4324,28.4345 15.5,27.5C 16.1667,27.8333 16.8333,28.1667 17.5,28.5C 17.56,29.0431 17.8933,29.3764 18.5,29.5C 19.4519,27.9547 19.7852,26.288 19.5,24.5C 20.8333,24.5 21.5,23.8333 21.5,22.5 Z"/></g>
<g><path style="opacity:1" fill="#f90878" d="M 16.5,31.5 C 16.5,32.5 16.5,33.5 16.5,34.5C 20.4256,34.0722 23.7589,35.2389 26.5,38C 24.9568,40.0449 25.2901,41.5449 27.5,42.5C 27.5,43.8333 28.1667,44.5 29.5,44.5C 29.0825,45.2216 28.4158,45.7216 27.5,46C 28.056,46.3826 28.3893,46.8826 28.5,47.5C 26.6159,47.7118 25.2826,48.7118 24.5,50.5C 23.12,48.0233 22.12,48.0233 21.5,50.5C 19.5,50.5 17.5,50.5 15.5,50.5C 15.5,49.1667 15.5,47.8333 15.5,46.5C 14.1667,46.5 12.8333,46.5 11.5,46.5C 11.5,46.1667 11.5,45.8333 11.5,45.5C 14.3467,45.7824 17.0134,45.7824 19.5,45.5C 18.0124,43.4228 16.0124,42.4228 13.5,42.5C 13.6716,41.5084 13.3382,40.8417 12.5,40.5C 11.5655,39.4324 11.2322,38.099 11.5,36.5C 12.5676,35.5655 13.901,35.2322 15.5,35.5C 15.2322,33.901 15.5655,32.5676 16.5,31.5 Z"/></g>
<g><path style="opacity:1" fill="#1c102c" d="M 31.5,37.5 C 31.5,37.8333 31.5,38.1667 31.5,38.5C 30.8166,40.1765 29.4832,40.8432 27.5,40.5C 28.5451,39.1224 29.8784,38.1224 31.5,37.5 Z"/></g>
<g><path style="opacity:1" fill="#b2c217" d="M 11.5,36.5 C 11.2322,38.099 11.5655,39.4324 12.5,40.5C 11.4855,41.7647 9.98552,42.4313 8,42.5C 6.23579,42.4555 4.56912,42.1222 3,41.5C 2.51722,42.448 2.35055,43.448 2.5,44.5C 4.17876,44.2852 5.17876,44.9519 5.5,46.5C 4.83333,46.5 4.16667,46.5 3.5,46.5C 1.82124,46.7148 0.821236,46.0481 0.5,44.5C 0.5,42.8333 0.5,41.1667 0.5,39.5C 4.52137,39.5793 8.18803,38.5793 11.5,36.5 Z"/></g>
<g><path style="opacity:1" fill="#260b2f" d="M 19.5,40.5 C 21.337,40.6395 21.6704,41.3061 20.5,42.5C 19.7025,42.0431 19.3691,41.3764 19.5,40.5 Z"/></g>
<g><path style="opacity:1" fill="#129379" d="M 31.5,38.5 C 31.5,38.1667 31.5,37.8333 31.5,37.5C 32.5,37.5 33.5,37.5 34.5,37.5C 34.81,40.7131 34.4767,43.7131 33.5,46.5C 34.0356,43.3019 33.369,40.6353 31.5,38.5 Z"/></g>
<g><path style="opacity:1" fill="#f5e07f" d="M 12.5,40.5 C 13.3382,40.8417 13.6716,41.5084 13.5,42.5C 13.2178,43.7777 12.5511,44.7777 11.5,45.5C 11.5,45.8333 11.5,46.1667 11.5,46.5C 9.5,46.5 7.5,46.5 5.5,46.5C 5.17876,44.9519 4.17876,44.2852 2.5,44.5C 2.35055,43.448 2.51722,42.448 3,41.5C 4.56912,42.1222 6.23579,42.4555 8,42.5C 9.98552,42.4313 11.4855,41.7647 12.5,40.5 Z"/></g>
<g><path style="opacity:1" fill="#ff92b5" d="M 13.5,42.5 C 16.0124,42.4228 18.0124,43.4228 19.5,45.5C 17.0134,45.7824 14.3467,45.7824 11.5,45.5C 12.5511,44.7777 13.2178,43.7777 13.5,42.5 Z"/></g>
<g><path style="opacity:1" fill="#a1c231" d="M 31.5,38.5 C 33.369,40.6353 34.0356,43.3019 33.5,46.5C 32.1667,45.8333 30.8333,45.1667 29.5,44.5C 28.1667,44.5 27.5,43.8333 27.5,42.5C 27.5,41.8333 27.5,41.1667 27.5,40.5C 29.4832,40.8432 30.8166,40.1765 31.5,38.5 Z"/></g>
<g><path style="opacity:0.18" fill="#3d343c" d="M 3.5,46.5 C 4.16667,46.5 4.83333,46.5 5.5,46.5C 7.5,46.5 9.5,46.5 11.5,46.5C 12.8333,46.5 14.1667,46.5 15.5,46.5C 15.5,47.8333 15.5,49.1667 15.5,50.5C 17.5,50.5 19.5,50.5 21.5,50.5C 21.3653,52.5542 22.032,54.2209 23.5,55.5C 23.7148,57.1788 23.0481,58.1788 21.5,58.5C 21.5,57.1667 20.8333,56.5 19.5,56.5C 19.7852,54.712 19.4519,53.0453 18.5,51.5C 17.305,53.1206 16.305,54.7872 15.5,56.5C 11.9007,56.7381 11.5673,55.7381 14.5,53.5C 14.1667,53.1667 13.8333,52.8333 13.5,52.5C 12.5832,53.1272 11.5832,53.4606 10.5,53.5C 11.2299,52.2876 12.2299,51.2876 13.5,50.5C 12.5,50.1667 11.5,49.8333 10.5,49.5C 8.3074,49.7705 6.64073,50.7705 5.5,52.5C 5.53944,51.4168 5.87277,50.4168 6.5,49.5C 5.22987,48.7124 4.22987,47.7124 3.5,46.5 Z"/></g>
<g><path style="opacity:1" fill="#517d18" d="M 10.5,53.5 C 9.90318,54.1386 9.06985,54.472 8,54.5C 6.62439,54.3158 5.79106,53.6491 5.5,52.5C 6.64073,50.7705 8.3074,49.7705 10.5,49.5C 11.5,49.8333 12.5,50.1667 13.5,50.5C 12.2299,51.2876 11.2299,52.2876 10.5,53.5 Z"/></g>
<g><path style="opacity:1" fill="#3b9682" d="M 80.5,50.5 C 80.5,52.8333 80.5,55.1667 80.5,57.5C 80.1667,57.5 79.8333,57.5 79.5,57.5C 79.8342,54.812 79.1675,52.4786 77.5,50.5C 79.045,49.7703 79.8784,48.437 80,46.5C 80.49,47.7932 80.6567,49.1266 80.5,50.5 Z"/></g>
<g><path style="opacity:1" fill="#d6dc2c" d="M 77.5,50.5 C 79.1675,52.4786 79.8342,54.812 79.5,57.5C 76.512,57.8453 75.1787,56.512 75.5,53.5C 75.6399,51.9704 76.3065,50.9704 77.5,50.5 Z"/></g>
<g><path style="opacity:1" fill="#f40065" d="M 19.5,56.5 C 18.1667,56.5 16.8333,56.5 15.5,56.5C 16.305,54.7872 17.305,53.1206 18.5,51.5C 19.4519,53.0453 19.7852,54.712 19.5,56.5 Z"/></g>
<g><path style="opacity:1" fill="#ed769e" d="M 28.5,47.5 C 28.5,48.5 28.5,49.5 28.5,50.5C 29.5,50.5 30.5,50.5 31.5,50.5C 33.6257,53.32 34.2924,56.32 33.5,59.5C 32.2652,59.2786 31.2652,58.6119 30.5,57.5C 29.0656,58.5884 28.0656,59.9217 27.5,61.5C 26.1667,59.5 24.8333,57.5 23.5,55.5C 22.032,54.2209 21.3653,52.5542 21.5,50.5C 22.12,48.0233 23.12,48.0233 24.5,50.5C 25.2826,48.7118 26.6159,47.7118 28.5,47.5 Z"/></g>
<g><path style="opacity:1" fill="#fbee7e" d="M 27.5,52.5 C 29.337,52.6395 29.6704,53.3061 28.5,54.5C 27.7025,54.0431 27.3691,53.3764 27.5,52.5 Z"/></g>
<g><path style="opacity:1" fill="#2b242d" d="M 82.5,31.5 C 83.1667,31.5 83.8333,31.5 84.5,31.5C 85.3228,33.9872 86.3228,36.3206 87.5,38.5C 87.5,40.8333 87.5,43.1667 87.5,45.5C 84.2331,49.49 82.7331,54.1567 83,59.5C 81.9887,60.3366 80.8221,60.67 79.5,60.5C 79.8527,66.4881 77.5194,71.1547 72.5,74.5C 72.8844,72.0706 73.551,69.7373 74.5,67.5C 74.8212,65.9519 75.8212,65.2852 77.5,65.5C 77.5,63.5 77.5,61.5 77.5,59.5C 79.1788,59.7148 80.1788,59.0481 80.5,57.5C 80.5,55.1667 80.5,52.8333 80.5,50.5C 82.4563,44.588 83.1229,38.2547 82.5,31.5 Z"/></g>
<g><path style="opacity:1" fill="#f2e73b" d="M 33.5,59.5 C 33.8333,59.5 34.1667,59.5 34.5,59.5C 33.4479,61.256 31.7812,61.9227 29.5,61.5C 28.8333,61.5 28.1667,61.5 27.5,61.5C 28.0656,59.9217 29.0656,58.5884 30.5,57.5C 31.2652,58.6119 32.2652,59.2786 33.5,59.5 Z"/></g>
<g><path style="opacity:1" fill="#f0166e" d="M 23.5,55.5 C 24.8333,57.5 26.1667,59.5 27.5,61.5C 28.1667,61.5 28.8333,61.5 29.5,61.5C 29.5,62.8333 29.5,64.1667 29.5,65.5C 31.4832,65.1568 32.8166,65.8235 33.5,67.5C 29.5,67.5 25.5,67.5 21.5,67.5C 20.5084,67.6716 19.8417,67.3382 19.5,66.5C 20.64,63.9752 21.3067,61.3085 21.5,58.5C 23.0481,58.1788 23.7148,57.1788 23.5,55.5 Z"/></g>
<g><path style="opacity:1" fill="#f22279" d="M 80.5,21.5 C 79.5,22.1667 78.5,22.8333 77.5,23.5C 76.4253,24.7134 75.7586,26.2134 75.5,28C 75.9775,31.1318 77.3109,33.6318 79.5,35.5C 80.0221,33.7809 81.0221,32.4475 82.5,31.5C 83.1229,38.2547 82.4563,44.588 80.5,50.5C 80.6567,49.1266 80.49,47.7932 80,46.5C 79.8784,48.437 79.045,49.7703 77.5,50.5C 76.3065,50.9704 75.6399,51.9704 75.5,53.5C 75.1787,56.512 76.512,57.8453 79.5,57.5C 79.8333,57.5 80.1667,57.5 80.5,57.5C 80.1788,59.0481 79.1788,59.7148 77.5,59.5C 77.5,61.5 77.5,63.5 77.5,65.5C 75.8212,65.2852 74.8212,65.9519 74.5,67.5C 72.5,68.1667 71.1667,69.5 70.5,71.5C 68.5,71.5 66.5,71.5 64.5,71.5C 64.1667,74.5 62.5,76.1667 59.5,76.5C 58.1667,75.8333 56.8333,75.1667 55.5,74.5C 50.3593,74.3452 45.3593,75.0119 40.5,76.5C 39.8333,76.5 39.1667,76.5 38.5,76.5C 38.5,75.1667 37.8333,74.5 36.5,74.5C 36.5774,73.2502 37.244,72.4169 38.5,72C 36.8659,71.5065 35.1992,71.3398 33.5,71.5C 32.8333,71.5 32.5,71.1667 32.5,70.5C 32.5569,69.391 32.8902,68.391 33.5,67.5C 35.143,67.4802 36.4763,68.1468 37.5,69.5C 37.8333,69 38.1667,68.5 38.5,68C 37.9444,66.9889 37.2778,66.1556 36.5,65.5C 41.8333,64.8333 41.8333,64.1667 36.5,63.5C 36.3404,61.847 35.6737,60.5137 34.5,59.5C 34.1667,59.5 33.8333,59.5 33.5,59.5C 34.2924,56.32 33.6257,53.32 31.5,50.5C 32.1047,48.9743 33.2714,47.9743 35,47.5C 35.4988,43.5138 35.6655,39.5138 35.5,35.5C 32.7531,35.8134 30.0865,35.48 27.5,34.5C 26.3152,31.5771 24.9819,28.9105 23.5,26.5C 23.8432,24.5168 23.1765,23.1834 21.5,22.5C 21.7564,20.2075 21.4231,18.0408 20.5,16C 25.5369,15.9228 30.2036,17.0894 34.5,19.5C 32.1667,19.5 29.8333,19.5 27.5,19.5C 27.7377,22.0685 29.071,23.7352 31.5,24.5C 33.0855,23.467 34.4188,22.1336 35.5,20.5C 37.1667,20.5 38.8333,20.5 40.5,20.5C 40.5,19.1667 40.5,17.8333 40.5,16.5C 39.1266,16.6567 37.7932,16.49 36.5,16C 40.4736,13.7089 44.4736,11.3755 48.5,9C 46.4049,8.44437 46.2382,7.94437 48,7.5C 49.3651,8.45563 50.8651,9.12229 52.5,9.5C 56.0855,9.06115 59.5855,8.39448 63,7.5C 63.4828,8.44802 63.6495,9.44802 63.5,10.5C 67.8926,10.4568 68.2259,10.9568 64.5,12C 67.4285,13.2873 69.7618,15.2873 71.5,18C 73.1346,18.5396 74.4679,18.0396 75.5,16.5C 76.4519,18.0453 76.7852,19.712 76.5,21.5C 77.8333,21.5 79.1667,21.5 80.5,21.5 Z"/></g>
<g><path style="opacity:1" fill="#1f0523" d="M 47.5,40.5 C 47.5,41.1667 47.5,41.8333 47.5,42.5C 44.8333,41.8333 44.8333,41.1667 47.5,40.5 Z"/></g>
<g><path style="opacity:1" fill="#efe6eb" d="M 42.5,22.5 C 43.1667,24.1667 43.8333,25.8333 44.5,27.5C 45.7791,26.032 47.4458,25.3653 49.5,25.5C 49.7035,27.3904 49.0368,28.8904 47.5,30C 53.8647,31.4632 57.198,28.9632 57.5,22.5C 58.8333,22.5 60.1667,22.5 61.5,22.5C 64.3971,26.1788 67.0637,30.1788 69.5,34.5C 68.8333,35.1667 68.1667,35.8333 67.5,36.5C 68.8333,37.5 70.1667,38.5 71.5,39.5C 68.9516,41.2189 69.285,42.5522 72.5,43.5C 70.4833,44.2191 68.8166,45.3857 67.5,47C 67.8333,47.5 68.1667,48 68.5,48.5C 69.1667,47.8333 69.8333,47.1667 70.5,46.5C 71.5178,47.1925 72.5178,47.8592 73.5,48.5C 71.4795,60.3588 64.6462,68.0255 53,71.5C 49.3764,69.1033 45.8764,66.4366 42.5,63.5C 41.5078,59.2172 41.1744,54.8839 41.5,50.5C 42.8333,50.5 44.1667,50.5 45.5,50.5C 45.3651,47.5825 46.0318,44.9158 47.5,42.5C 47.5,41.8333 47.5,41.1667 47.5,40.5C 46.172,38.0105 45.172,35.3438 44.5,32.5C 43.675,31.6143 42.675,31.281 41.5,31.5C 41.19,28.2869 41.5233,25.2869 42.5,22.5 Z"/></g>
<g><path style="opacity:1" fill="#fe3b74" d="M 57.5,59.5 C 58.8333,59.5 60.1667,59.5 61.5,59.5C 61.5,61.5 61.5,63.5 61.5,65.5C 59.5082,65.3285 57.8415,65.9951 56.5,67.5C 55.5713,66.3112 55.238,64.9778 55.5,63.5C 56.1667,62.1667 56.8333,60.8333 57.5,59.5 Z"/></g>
<g><path style="opacity:1" fill="#2b0f2f" d="M 57.5,59.5 C 56.8333,60.8333 56.1667,62.1667 55.5,63.5C 53.2181,64.3897 50.8848,64.5564 48.5,64C 49.3802,62.6439 49.7135,61.1439 49.5,59.5C 48.5,59.5 47.5,59.5 46.5,59.5C 46.6567,60.8734 46.49,62.2068 46,63.5C 43.0093,57.6941 44.5093,53.6941 50.5,51.5C 54.6471,52.6433 56.9804,55.31 57.5,59.5 Z"/></g>
<g><path style="opacity:1" fill="#1d161f" d="M 59.5,52.5 C 60.9778,52.238 62.3112,52.5713 63.5,53.5C 62.8333,53.8333 62.1667,54.1667 61.5,54.5C 60.2867,54.2528 59.62,53.5862 59.5,52.5 Z"/></g>
<g><path style="opacity:1" fill="#221228" d="M 55.5,35.5 C 55.1868,39.4126 55.8534,43.0793 57.5,46.5C 55.5,46.5 53.5,46.5 51.5,46.5C 51.5,42.8333 51.5,39.1667 51.5,35.5C 52.8333,35.5 54.1667,35.5 55.5,35.5 Z"/></g>
<g><path style="opacity:1" fill="#ff4a7e" d="M 55.5,35.5 C 56.8333,35.5 58.1667,35.5 59.5,35.5C 59.7863,37.2769 60.4529,38.9436 61.5,40.5C 60.6152,42.9773 59.2818,44.9773 57.5,46.5C 55.8534,43.0793 55.1868,39.4126 55.5,35.5 Z"/></g>
<g><path style="opacity:1" fill="#231a25" d="M 59.5,27.5 C 60.9778,27.238 62.3112,27.5713 63.5,28.5C 62.8333,28.8333 62.1667,29.1667 61.5,29.5C 60.2867,29.2528 59.62,28.5862 59.5,27.5 Z"/></g>
<g><path style="opacity:1" fill="#b56a49" d="M 34.5,19.5 C 35.1667,19.5 35.5,19.8333 35.5,20.5C 34.4188,22.1336 33.0855,23.467 31.5,24.5C 32.0475,22.5153 33.0475,20.8486 34.5,19.5 Z"/></g>
<g><path style="opacity:1" fill="#b0e10c" d="M 34.5,19.5 C 33.0475,20.8486 32.0475,22.5153 31.5,24.5C 29.071,23.7352 27.7377,22.0685 27.5,19.5C 29.8333,19.5 32.1667,19.5 34.5,19.5 Z"/></g>
<g><path style="opacity:1" fill="#290d2c" d="M 55.5,19.5 C 56.5511,20.2223 57.2178,21.2223 57.5,22.5C 57.198,28.9632 53.8647,31.4632 47.5,30C 49.0368,28.8904 49.7035,27.3904 49.5,25.5C 47.4458,25.3653 45.7791,26.032 44.5,27.5C 43.4032,22.0238 45.5699,18.6905 51,17.5C 52.6067,18.0735 54.1067,18.7402 55.5,19.5 Z"/></g>
<g><path style="opacity:1" fill="#e19fda" d="M 73.5,48.5 C 72.5178,47.8592 71.5178,47.1925 70.5,46.5C 69.8333,47.1667 69.1667,47.8333 68.5,48.5C 68.1667,48 67.8333,47.5 67.5,47C 68.8166,45.3857 70.4833,44.2191 72.5,43.5C 69.285,42.5522 68.9516,41.2189 71.5,39.5C 70.1667,38.5 68.8333,37.5 67.5,36.5C 68.1667,35.8333 68.8333,35.1667 69.5,34.5C 67.0637,30.1788 64.3971,26.1788 61.5,22.5C 61.5,20.8333 61.5,19.1667 61.5,17.5C 59.5082,17.6715 57.8415,17.0049 56.5,15.5C 55.5713,16.6888 55.238,18.0222 55.5,19.5C 54.1067,18.7402 52.6067,18.0735 51,17.5C 45.5699,18.6905 43.4032,22.0238 44.5,27.5C 43.8333,25.8333 43.1667,24.1667 42.5,22.5C 43.5635,18.0178 46.2302,15.0178 50.5,13.5C 50.5,12.5 50.5,11.5 50.5,10.5C 58.7437,10.6167 64.7437,14.2834 68.5,21.5C 69.5564,26.4937 71.3898,31.1603 74,35.5C 74.8136,40.0204 74.647,44.3537 73.5,48.5 Z"/></g>
<g><path style="opacity:1" fill="#ff346f" d="M 61.5,22.5 C 60.1667,22.5 58.8333,22.5 57.5,22.5C 57.2178,21.2223 56.5511,20.2223 55.5,19.5C 55.238,18.0222 55.5713,16.6888 56.5,15.5C 57.8415,17.0049 59.5082,17.6715 61.5,17.5C 61.5,19.1667 61.5,20.8333 61.5,22.5 Z"/></g>
<g><path style="opacity:0.102" fill="#2f260d" d="M 21.5,58.5 C 21.3067,61.3085 20.64,63.9752 19.5,66.5C 18.8761,66.0831 18.5427,65.4164 18.5,64.5C 19.5118,62.4371 20.5118,60.4371 21.5,58.5 Z"/></g>
<g><path style="opacity:1" fill="#3d0d39" d="M 36.5,63.5 C 41.8333,64.1667 41.8333,64.8333 36.5,65.5C 36.5,64.8333 36.5,64.1667 36.5,63.5 Z"/></g>
<g><path style="opacity:1" fill="#ffb4c8" d="M 34.5,59.5 C 35.6737,60.5137 36.3404,61.847 36.5,63.5C 36.5,64.1667 36.5,64.8333 36.5,65.5C 37.2778,66.1556 37.9444,66.9889 38.5,68C 38.1667,68.5 37.8333,69 37.5,69.5C 36.4763,68.1468 35.143,67.4802 33.5,67.5C 32.8166,65.8235 31.4832,65.1568 29.5,65.5C 29.5,64.1667 29.5,62.8333 29.5,61.5C 31.7812,61.9227 33.4479,61.256 34.5,59.5 Z"/></g>
<g><path style="opacity:1" fill="#1a1b1d" d="M 21.5,67.5 C 25.5,67.5 29.5,67.5 33.5,67.5C 32.8902,68.391 32.5569,69.391 32.5,70.5C 28.7668,69.3874 25.1001,68.3874 21.5,67.5 Z"/></g>
<g><path style="opacity:1" fill="#679a00" d="M 74.5,67.5 C 73.551,69.7373 72.8844,72.0706 72.5,74.5C 71.5084,74.6716 70.8417,74.3382 70.5,73.5C 70.5,72.8333 70.5,72.1667 70.5,71.5C 71.1667,69.5 72.5,68.1667 74.5,67.5 Z"/></g>
<g><path style="opacity:0.384" fill="#414347" d="M 33.5,71.5 C 35.1992,71.3398 36.8659,71.5065 38.5,72C 37.244,72.4169 36.5774,73.2502 36.5,74.5C 36.1667,74.5 35.8333,74.5 35.5,74.5C 34.8333,73.5 34.1667,72.5 33.5,71.5 Z"/></g>
<g><path style="opacity:0.024" fill="#2a212a" d="M 70.5,71.5 C 70.5,72.1667 70.5,72.8333 70.5,73.5C 68.0829,75.4111 65.7496,77.5778 63.5,80C 61.5087,80.3736 59.842,81.207 58.5,82.5C 56.8333,82.5 55.1667,82.5 53.5,82.5C 51.258,80.7946 51.258,78.7946 53.5,76.5C 53.1667,76.1667 52.8333,75.8333 52.5,75.5C 48.5232,76.8217 44.8565,78.6551 41.5,81C 37.6425,81.8099 33.9758,81.6433 30.5,80.5C 32.3792,79.6586 34.3792,79.3253 36.5,79.5C 37.8333,79.5 39.1667,79.5 40.5,79.5C 40.5,78.5 40.5,77.5 40.5,76.5C 45.3593,75.0119 50.3593,74.3452 55.5,74.5C 54.962,76.1172 54.6287,77.7839 54.5,79.5C 56.1667,79.5 57.8333,79.5 59.5,79.5C 59.5,78.5 59.5,77.5 59.5,76.5C 62.5,76.1667 64.1667,74.5 64.5,71.5C 66.5,71.5 68.5,71.5 70.5,71.5 Z"/></g>
<g><path style="opacity:1" fill="#b5cf09" d="M 55.5,74.5 C 56.8333,75.1667 58.1667,75.8333 59.5,76.5C 59.5,77.5 59.5,78.5 59.5,79.5C 57.8333,79.5 56.1667,79.5 54.5,79.5C 54.6287,77.7839 54.962,76.1172 55.5,74.5 Z"/></g>
<g><path style="opacity:1" fill="#8fa71a" d="M 35.5,74.5 C 35.8333,74.5 36.1667,74.5 36.5,74.5C 37.8333,74.5 38.5,75.1667 38.5,76.5C 37.8333,77.5 37.1667,78.5 36.5,79.5C 34.3792,79.3253 32.3792,79.6586 30.5,80.5C 29.2241,79.6136 29.2241,78.6136 30.5,77.5C 32.3604,76.7401 34.027,75.7401 35.5,74.5 Z"/></g>
<g><path style="opacity:1" fill="#4e8b7a" d="M 38.5,76.5 C 39.1667,76.5 39.8333,76.5 40.5,76.5C 40.5,77.5 40.5,78.5 40.5,79.5C 39.1667,79.5 37.8333,79.5 36.5,79.5C 37.1667,78.5 37.8333,77.5 38.5,76.5 Z"/></g>
</svg>
