<svg version="1.1" id="Layer_1" xmlns="http://www.w3.org/2000/svg" xmlns:xlink="http://www.w3.org/1999/xlink" x="0px" y="0px"
	 width="100%" viewBox="0 0 92 83" enable-background="new 0 0 92 83" xml:space="preserve">
<path fill="#FFFFFF" opacity="1.000000" stroke="none" 
	d="
M39.000000,84.000000 
	C26.403898,84.000000 13.807796,84.000000 1.000000,84.000000 
	C1.000000,70.646515 1.000000,57.291916 1.408251,43.469696 
	C4.051050,49.337921 9.831894,46.091068 13.968864,47.355606 
	C13.968864,48.627819 13.968864,49.782005 13.596750,50.978378 
	C11.874175,52.010998 10.523716,53.001427 9.113792,54.457188 
	C9.054328,60.519524 9.054328,66.116524 9.054328,71.950729 
	C12.310979,71.950729 15.131894,72.157280 17.887432,71.823738 
	C18.704615,71.724815 19.337799,70.105858 20.277151,69.107254 
	C20.499004,69.031082 20.953444,68.914284 21.371099,68.976883 
	C22.908846,68.772575 24.028934,68.505676 25.149025,68.238770 
	C24.734865,67.496071 24.320704,66.753365 23.932049,65.753479 
	C24.003527,65.330254 24.049498,65.164207 24.495102,64.983292 
	C25.962223,64.972473 27.029711,64.976532 28.256004,65.005096 
	C28.414810,65.029602 28.731968,65.081505 28.868488,65.407486 
	C29.243557,66.813232 29.482105,67.893005 29.413517,68.929474 
	C28.303127,69.618698 27.499876,70.351219 26.831617,71.356926 
	C27.001406,72.036911 27.036200,72.443695 26.775555,72.944626 
	C26.973467,73.647026 27.466816,74.255280 28.245857,74.976143 
	C29.040363,75.354111 29.549175,75.619469 30.433598,75.953705 
	C31.573757,76.066124 32.338310,76.109665 33.120544,76.484398 
	C33.813801,77.571266 34.489368,78.326942 35.096462,79.425591 
	C36.351990,81.179039 37.675995,82.589516 39.000000,84.000000 
z"/>
<path fill="#FFFFFF" opacity="1.000000" stroke="none" 
	d="
M1.000000,39.000000 
	C1.000000,26.405743 1.000000,13.811486 1.000000,1.000000 
	C13.686735,1.000000 26.374710,1.000000 39.479549,1.289180 
	C39.565495,2.045710 39.234570,2.513062 38.662254,2.962010 
	C38.420864,2.943607 37.966301,3.110410 37.715256,3.080735 
	C37.278866,3.320790 37.093517,3.590520 36.596016,3.986122 
	C35.455055,5.371833 34.626244,6.631672 33.536484,8.019374 
	C32.826096,8.501214 32.376659,8.855190 31.598646,9.139969 
	C30.690964,9.816592 30.111864,10.562412 29.331173,11.524392 
	C27.883350,13.563580 26.637117,15.386606 25.013929,17.125570 
	C23.123476,16.996584 21.609974,16.951660 20.061115,16.590118 
	C19.973061,15.854506 19.920362,15.435512 19.757095,14.597557 
	C16.243565,14.178597 12.840602,14.178597 9.095074,14.178597 
	C9.095074,19.766144 9.361554,25.161821 8.982947,30.511847 
	C8.792895,33.197430 10.170923,34.081917 11.921785,35.334194 
	C11.883496,35.754059 11.877528,35.922462 11.820349,36.450512 
	C11.842482,37.534645 11.915823,38.259132 11.710646,38.958065 
	C10.946273,38.922291 10.460420,38.912071 9.654099,38.904995 
	C8.581730,38.590767 7.829827,38.273396 7.046613,37.623337 
	C5.314107,36.329033 3.584934,36.663769 3.000754,38.339760 
	C2.241944,38.758938 1.620972,38.879471 1.000000,39.000000 
z"/>
<path fill="#FFFFFF" opacity="1.000000" stroke="none" 
	d="
M93.000000,50.000000 
	C93.000000,61.260979 93.000000,72.521957 93.000000,84.000000 
	C81.646690,84.000000 70.292007,84.000000 58.445652,83.664551 
	C58.023300,82.890472 58.092609,82.451851 58.139606,82.004295 
	C58.117290,81.995361 58.071095,82.006165 58.332611,81.960861 
	C58.683273,81.607346 58.772415,81.299141 58.937241,80.765694 
	C59.012928,80.540459 59.118973,80.077217 59.439125,79.927261 
	C62.130161,78.098450 64.501045,76.419601 67.204330,74.692688 
	C71.392235,70.120453 75.247749,65.596275 79.407104,60.934841 
	C81.810455,58.926315 83.909966,57.055042 86.300720,55.062260 
	C87.105728,54.308170 87.619492,53.675591 88.371475,52.963612 
	C88.765556,52.597061 88.921425,52.309906 89.043198,52.014832 
	C89.009102,52.006912 89.038536,52.070419 89.287666,52.000305 
	C89.714447,51.646507 89.892090,51.362823 90.312263,51.014206 
	C90.729439,50.675304 90.904099,50.401333 91.397697,50.086407 
	C92.144432,50.030296 92.572212,50.015148 93.000000,50.000000 
z"/>
<path fill="#FFFFFF" opacity="1.000000" stroke="none" 
	d="
M57.000000,1.000000 
	C68.925568,1.000000 80.851128,1.000000 93.000000,1.000000 
	C93.000000,12.353253 93.000000,23.707968 92.800949,35.470642 
	C92.601891,35.878597 92.191124,35.945717 92.102058,35.597939 
	C90.660080,34.186703 89.307175,33.123241 87.932129,31.720058 
	C87.288643,30.580486 86.667305,29.780638 85.979645,28.682575 
	C85.282425,27.908293 84.651535,27.432226 83.906143,26.598223 
	C82.682724,25.847332 81.573784,25.454378 80.494041,25.026878 
	C80.523232,24.992332 80.477951,25.072723 80.277359,24.774391 
	C78.538376,23.005589 76.999985,21.535114 75.281342,19.740349 
	C75.003242,18.935089 74.905403,18.454119 74.824356,17.677334 
	C74.230576,16.912855 73.620018,16.444191 72.956604,15.660672 
	C72.220963,14.555333 71.538170,13.764850 70.851646,12.646767 
	C69.894180,11.890199 68.940445,11.461231 67.951706,10.734528 
	C67.296303,10.011016 66.675903,9.585242 65.782555,9.056507 
	C64.951942,8.942739 64.394287,8.931934 63.550064,8.922205 
	C62.894611,8.836563 62.525738,8.749845 62.154892,8.557201 
	C62.152927,8.451278 62.126637,8.241029 62.380341,8.071465 
	C62.046951,6.929184 61.459866,5.956467 60.807907,4.598036 
	C59.163067,3.544828 57.583099,2.877334 56.390564,2.021265 
	C56.852001,1.555128 56.926003,1.277564 57.000000,1.000000 
z"/>
<path fill="#110A16" opacity="1.000000" stroke="none" 
	d="
M1.000000,39.399994 
	C1.620972,38.879471 2.241944,38.758938 3.288411,38.567299 
	C3.864320,39.711891 4.014733,40.927593 4.179255,42.519791 
	C5.937641,43.216473 7.681918,43.536659 9.893773,43.922832 
	C12.241553,44.047459 14.121757,44.106098 16.062119,44.473442 
	C17.367689,44.523239 18.613102,44.264336 19.858515,44.005432 
	C19.764404,43.547935 19.670292,43.090443 19.576181,42.632946 
	C18.797718,42.749081 18.019257,42.865211 16.971008,42.633450 
	C14.317334,42.279140 11.933447,42.272728 9.214454,42.077957 
	C8.632066,41.822292 8.384785,41.754986 8.278303,41.559532 
	C8.560383,41.127918 8.757425,40.863762 9.284567,40.223114 
	C9.697459,39.505489 9.836013,39.203671 9.974566,38.901848 
	C10.460420,38.912071 10.946273,38.922291 11.832989,39.273911 
	C13.291025,39.579922 14.348200,39.544529 15.600981,39.313637 
	C15.921266,38.771393 16.045944,38.424660 16.382416,38.075676 
	C16.594210,38.073425 17.017239,38.095707 17.226517,38.331558 
	C18.624094,39.044651 19.812393,39.521893 21.006874,40.438011 
	C20.901276,44.145504 22.214277,48.128151 16.709442,48.976669 
	C16.144302,49.690613 15.887719,50.276550 15.367563,50.902199 
	C14.749934,50.963387 14.395876,50.984871 14.033777,50.978210 
	C14.025737,50.950069 13.968864,50.936192 13.968864,50.936192 
	C13.968864,49.782005 13.968864,48.627819 13.968864,47.355606 
	C9.831894,46.091068 4.051050,49.337921 1.408251,43.001038 
	C1.000000,41.933331 1.000000,40.866661 1.000000,39.399994 
z"/>
<path fill="#0C090E" opacity="1.000000" stroke="none" 
	d="
M58.161922,82.013229 
	C58.092609,82.451851 58.023300,82.890472 57.976994,83.664551 
	C51.978848,84.000000 45.957695,84.000000 39.468269,84.000000 
	C37.675995,82.589516 36.351990,81.179039 35.509342,79.423416 
	C37.119720,79.127327 38.885323,78.732552 39.277634,79.295250 
	C42.584198,84.037857 46.876530,81.410881 51.124969,81.064598 
	C51.576569,81.039062 51.758064,81.056046 52.114601,81.384560 
	C53.210094,81.686089 54.130543,81.676086 55.443398,81.678024 
	C56.611176,81.797722 57.386547,81.905472 58.161922,82.013229 
z"/>
<path fill="#31213B" opacity="1.000000" stroke="none" 
	d="
M92.191124,35.945717 
	C92.191124,35.945717 92.601891,35.878597 92.800949,35.939301 
	C93.000000,40.356899 93.000000,44.713799 93.000000,49.535347 
	C92.572212,50.015148 92.144432,50.030296 91.377869,49.614349 
	C91.055481,44.788994 91.071877,40.394730 91.363937,35.985809 
	C91.823441,35.962673 92.007278,35.954197 92.191124,35.945717 
z"/>
<path fill="#12181A" opacity="1.000000" stroke="none" 
	d="
M56.532394,1.000000 
	C56.926003,1.277564 56.852001,1.555128 56.307766,2.038085 
	C55.837536,2.243477 55.703915,2.346881 55.283913,2.220630 
	C50.574268,2.067800 46.284626,2.041220 41.763653,2.127781 
	C41.332962,2.517495 41.133606,2.794068 40.597382,3.024394 
	C39.808228,2.978902 39.355934,2.979657 38.903645,2.980412 
	C39.234570,2.513062 39.565495,2.045710 39.948208,1.289180 
	C45.354931,1.000000 50.709858,1.000000 56.532394,1.000000 
z"/>
<path fill="#2A282F" opacity="1.000000" stroke="none" 
	d="
M20.055298,69.183426 
	C19.337799,70.105858 18.704615,71.724815 17.887432,71.823738 
	C15.131894,72.157280 12.310979,71.950729 9.054328,71.950729 
	C9.054328,66.116524 9.054328,60.519524 9.459421,54.465675 
	C10.555827,54.002224 11.247139,53.995621 11.925419,54.406647 
	C11.975338,56.217274 12.038291,57.610268 12.033979,59.386269 
	C12.620027,61.586674 13.273339,63.404068 13.921781,65.603745 
	C14.418476,66.972389 14.920043,67.958763 15.421610,68.945129 
	C15.995660,68.419205 16.569710,67.893288 17.192501,67.302879 
	C17.241241,67.238396 17.179533,67.088966 17.387575,67.034729 
	C17.595617,66.980499 17.942799,66.726814 17.999252,66.807007 
	C18.055704,66.887199 18.232834,66.970741 18.651358,66.980881 
	C19.345238,66.945503 19.620596,66.899971 19.930050,67.242050 
	C19.994528,68.147591 20.024912,68.665504 20.055298,69.183426 
z"/>
<path fill="#270C20" opacity="1.000000" stroke="none" 
	d="
M28.731968,65.081505 
	C28.731968,65.081505 28.414810,65.029602 28.145868,64.690300 
	C27.170780,63.537556 26.464634,62.724113 25.737228,61.886185 
	C25.018431,62.759178 24.496294,63.393322 23.635395,63.966061 
	C22.944790,61.779819 22.592949,59.654984 22.241106,57.530148 
	C25.259277,60.852398 25.259277,60.852398 28.247454,59.131863 
	C28.641008,58.952515 28.808744,58.904305 29.296400,58.956444 
	C30.061226,59.032200 30.506130,59.007599 31.218735,59.022766 
	C31.663130,59.026031 31.839823,58.989532 32.311493,58.874901 
	C32.795929,58.230392 32.985382,57.664013 33.457329,57.306099 
	C34.094864,59.036850 34.449905,60.559132 34.838432,62.459366 
	C35.055164,65.711304 34.013912,66.678001 31.225723,65.334618 
	C30.518095,64.993668 29.569721,65.152382 28.731968,65.081505 
z"/>
<path fill="#E64B6D" opacity="1.000000" stroke="none" 
	d="
M50.854858,81.107117 
	C46.876530,81.410881 42.584198,84.037857 39.277634,79.295250 
	C38.885323,78.732552 37.119720,79.127327 35.577816,79.080452 
	C34.489368,78.326942 33.813801,77.571266 33.312672,76.379272 
	C33.487110,75.942947 33.925900,75.913704 34.289700,75.956001 
	C36.627728,76.622421 38.601952,77.246544 40.951073,77.928085 
	C43.556553,77.512611 45.787144,77.039719 48.277168,76.511826 
	C48.994564,77.790741 49.924713,79.448929 50.854858,81.107117 
z"/>
<path fill="#F9366B" opacity="1.000000" stroke="none" 
	d="
M28.868488,65.407486 
	C29.569721,65.152382 30.518095,64.993668 31.225723,65.334618 
	C34.013912,66.678001 35.055164,65.711304 35.213966,62.431450 
	C37.679985,63.016834 39.803967,64.008087 42.099060,65.356812 
	C42.495930,67.010963 42.721687,68.307640 42.633331,69.371155 
	C38.165039,64.881020 34.061905,68.683563 29.945190,69.100647 
	C29.952316,68.984879 29.720655,68.972778 29.720655,68.972778 
	C29.482105,67.893005 29.243557,66.813232 28.868488,65.407486 
z"/>
<path fill="#1E1A27" opacity="1.000000" stroke="none" 
	d="
M28.021633,59.262997 
	C25.259277,60.852398 25.259277,60.852398 22.241106,57.530148 
	C22.592949,59.654984 22.944790,61.779819 23.605923,64.216019 
	C23.975298,64.684319 24.035383,64.841240 24.095469,64.998161 
	C24.049498,65.164207 24.003527,65.330254 23.569817,65.759026 
	C22.459566,66.019974 21.737055,66.018204 21.008461,66.011108 
	C21.002380,66.005783 21.012220,66.026001 21.064693,65.689804 
	C21.085560,64.901627 21.053955,64.449638 21.083969,63.548164 
	C21.190798,60.087387 21.236006,57.076099 21.493755,53.993042 
	C21.706295,53.921280 22.083233,53.677944 22.387039,53.703541 
	C23.090826,53.776756 23.490807,53.824375 23.926954,54.263580 
	C24.673086,55.206165 25.383051,55.757160 26.076403,56.447624 
	C26.059790,56.587093 26.207411,56.826092 26.136164,57.212543 
	C26.743523,58.017975 27.422129,58.436954 28.028419,58.947487 
	C27.956100,59.039043 28.021633,59.262997 28.021633,59.262997 
z"/>
<path fill="#5C6974" opacity="1.000000" stroke="none" 
	d="
M21.014544,66.016426 
	C21.737055,66.018204 22.459566,66.019974 23.544310,66.016205 
	C24.320704,66.753365 24.734865,67.496071 25.149025,68.238770 
	C24.028934,68.505676 22.908846,68.772575 21.419960,68.616867 
	C21.038956,67.468315 21.026751,66.742371 21.014544,66.016426 
z"/>
<path fill="#1B2022" opacity="1.000000" stroke="none" 
	d="
M11.938452,53.989017 
	C11.247139,53.995621 10.555827,54.002224 9.518885,54.000336 
	C10.523716,53.001427 11.874175,52.010998 13.596750,50.978378 
	C13.968864,50.936192 14.025737,50.950069 13.995393,51.299118 
	C13.935669,52.077698 13.906289,52.507233 13.727647,53.064766 
	C13.368748,53.356251 13.206521,53.557873 12.802264,53.838676 
	C12.321364,53.916157 12.129908,53.952587 11.938452,53.989017 
z"/>
<path fill="#1C0513" opacity="1.000000" stroke="none" 
	d="
M33.925900,75.913704 
	C33.925900,75.913704 33.487110,75.942947 33.294983,76.048080 
	C32.338310,76.109665 31.573757,76.066124 30.404341,75.642838 
	C29.989735,74.847771 29.979994,74.432449 29.983658,74.011200 
	C29.997063,74.005272 29.965048,74.025589 30.318478,74.016571 
	C31.756573,74.642937 32.841236,75.278320 33.925900,75.913704 
z"/>
<path fill="#FCD6DC" opacity="1.000000" stroke="none" 
	d="
M26.696625,71.083733 
	C27.499876,70.351219 28.303127,69.618698 29.413517,68.929474 
	C29.720655,68.972778 29.952316,68.984879 29.991360,69.375168 
	C30.021217,70.141632 30.012028,70.517799 29.586708,70.779037 
	C28.345924,70.803986 27.521275,70.943855 26.696625,71.083733 
z"/>
<path fill="#FCD6DC" opacity="1.000000" stroke="none" 
	d="
M24.495102,64.983292 
	C24.035383,64.841240 23.975298,64.684319 23.944685,64.277428 
	C24.496294,63.393322 25.018431,62.759178 25.737228,61.886185 
	C26.464634,62.724113 27.170780,63.537556 27.987061,64.665787 
	C27.029711,64.976532 25.962223,64.972473 24.495102,64.983292 
z"/>
<path fill="#110C11" opacity="1.000000" stroke="none" 
	d="
M27.960167,74.863533 
	C27.466816,74.255280 26.973467,73.647026 27.077293,72.888885 
	C28.442993,72.556343 29.211517,72.373688 30.024132,72.493217 
	C30.033833,73.205467 29.999441,73.615524 29.965050,74.025589 
	C29.965048,74.025589 29.997063,74.005272 29.694546,74.001190 
	C28.914740,74.285919 28.437454,74.574730 27.960167,74.863533 
z"/>
<path fill="#7E4059" opacity="1.000000" stroke="none" 
	d="
M29.980040,72.191032 
	C29.211517,72.373688 28.442993,72.556343 27.372730,72.794739 
	C27.036200,72.443695 27.001406,72.036911 26.831615,71.356926 
	C27.521275,70.943855 28.345924,70.803986 29.642204,71.104553 
	C30.069233,71.760338 30.024635,71.975685 29.980040,72.191032 
z"/>
<path fill="#44555B" opacity="1.000000" stroke="none" 
	d="
M28.245861,74.976143 
	C28.437454,74.574730 28.914740,74.285919 29.681139,74.007126 
	C29.979994,74.432449 29.989735,74.847771 30.028732,75.573959 
	C29.549175,75.619469 29.040363,75.354111 28.245861,74.976143 
z"/>
<path fill="#00111B" opacity="1.000000" stroke="none" 
	d="
M21.008461,66.011108 
	C21.026751,66.742371 21.038956,67.468315 21.002304,68.554276 
	C20.953444,68.914284 20.499004,69.031082 20.277149,69.107254 
	C20.024912,68.665504 19.994528,68.147591 20.088680,67.070633 
	C20.480301,66.350975 20.746637,66.189110 21.012220,66.026001 
	C21.012220,66.026001 21.002380,66.005783 21.008461,66.011108 
z"/>
<path fill="#D00760" opacity="1.000000" stroke="none" 
	d="
M25.390882,17.209633 
	C26.637117,15.386606 27.883350,13.563580 29.597637,11.792736 
	C31.065710,11.255041 32.065731,10.665162 33.326851,10.019250 
	C33.754402,9.900087 33.920860,9.836956 34.394260,9.816076 
	C35.149364,9.352225 35.597527,8.846125 36.200897,8.300793 
	C36.356106,8.261562 36.659615,8.159604 36.754234,8.436851 
	C36.926231,9.105150 37.003605,9.496203 37.058441,10.237400 
	C37.024441,11.055058 37.012978,11.522573 36.996414,12.383207 
	C36.323235,13.845669 35.748596,14.990431 34.962452,15.964496 
	C34.061573,17.080725 32.972988,18.045465 31.689690,19.284286 
	C28.874010,20.021172 26.334593,20.549791 23.807640,20.716061 
	C24.343699,19.305683 24.867290,18.257658 25.390882,17.209633 
z"/>
<path fill="#21222A" opacity="1.000000" stroke="none" 
	d="
M11.954107,35.082733 
	C10.170923,34.081917 8.792895,33.197430 8.982947,30.511847 
	C9.361554,25.161821 9.095074,19.766144 9.095074,14.178597 
	C12.840602,14.178597 16.243565,14.178597 19.307779,14.588968 
	C16.087643,14.999339 13.206252,14.999339 10.310531,14.999339 
	C10.310531,20.954226 10.310531,25.940472 10.310531,31.623373 
	C10.719938,30.628822 10.942868,30.335287 10.946985,30.038713 
	C10.985968,27.230694 10.985523,24.422144 11.000648,21.613770 
	C11.034145,15.394847 11.742081,14.922330 17.708586,17.137184 
	C16.260025,17.821877 15.099368,18.306810 13.647297,18.659096 
	C12.870282,19.990223 12.044445,21.435768 11.964861,22.921293 
	C11.752535,26.884623 11.861041,30.865139 11.823668,34.921112 
	C11.805315,35.003399 11.954107,35.082733 11.954107,35.082733 
z"/>
<path fill="#061017" opacity="1.000000" stroke="none" 
	d="
M17.996490,16.937426 
	C11.742081,14.922330 11.034145,15.394847 11.000648,21.613770 
	C10.985523,24.422144 10.985968,27.230694 10.946985,30.038713 
	C10.942868,30.335287 10.719938,30.628822 10.310531,31.623373 
	C10.310531,25.940472 10.310531,20.954226 10.310531,14.999339 
	C13.206252,14.999339 16.087643,14.999339 19.418348,15.007928 
	C19.920362,15.435512 19.973061,15.854506 20.024319,16.626881 
	C20.022879,16.980261 19.950054,17.054550 19.664249,17.057533 
	C19.188526,17.075674 18.998608,17.090834 18.603512,17.074108 
	C18.398335,17.042223 17.996490,16.937426 17.996490,16.937426 
z"/>
<path fill="#061017" opacity="1.000000" stroke="none" 
	d="
M25.013929,17.125572 
	C24.867290,18.257658 24.343699,19.305683 23.558075,20.977554 
	C23.200119,23.072298 23.104195,24.543196 22.698853,26.006344 
	C22.183416,25.988251 21.977392,25.977909 21.741299,25.581978 
	C21.639116,24.428715 21.567007,23.661041 21.556261,22.707598 
	C21.553385,22.245729 21.392197,22.048841 21.104918,21.609726 
	C21.043705,20.858961 21.011631,20.429628 20.862032,19.707184 
	C20.479691,18.627563 20.214872,17.841057 19.950054,17.054550 
	C19.950054,17.054550 20.022879,16.980261 20.059677,16.943499 
	C21.609974,16.951660 23.123476,16.996584 25.013929,17.125572 
z"/>
<path fill="#315548" opacity="1.000000" stroke="none" 
	d="
M4.165146,42.143295 
	C4.014733,40.927593 3.864320,39.711891 3.426249,38.268650 
	C3.584934,36.663769 5.314107,36.329033 6.845819,37.784805 
	C6.531741,38.767868 6.387146,39.256779 5.881229,39.832180 
	C5.254154,40.546200 4.988400,41.173733 4.597066,41.909256 
	C4.471485,42.017250 4.165146,42.143295 4.165146,42.143295 
z"/>
<path fill="#6F8390" opacity="1.000000" stroke="none" 
	d="
M16.170624,38.077923 
	C16.045944,38.424660 15.921266,38.771393 15.454660,38.972809 
	C14.032343,37.915279 12.951951,37.003075 11.871559,36.090866 
	C11.877528,35.922462 11.883496,35.754059 11.921785,35.334194 
	C11.954107,35.082733 11.805315,35.003399 12.087454,34.820297 
	C12.788729,34.265553 13.207865,33.893913 13.627001,33.522270 
	C13.789783,33.953037 13.952564,34.383801 14.049803,35.183449 
	C14.647983,36.050522 15.311706,36.548714 16.005251,37.308258 
	C16.080257,37.739040 16.125439,37.908482 16.170624,38.077923 
z"/>
<path fill="#090A0D" opacity="1.000000" stroke="none" 
	d="
M36.908169,3.860250 
	C37.093517,3.590520 37.278866,3.320790 37.798691,3.383452 
	C38.713146,4.747123 39.293121,5.778402 39.883179,6.865208 
	C39.893265,6.920735 40.002907,6.948716 39.628571,6.970308 
	C38.513348,6.923500 37.772457,6.855099 37.020050,6.420673 
	C36.975079,5.323182 36.941624,4.591715 36.908169,3.860250 
z"/>
<path fill="#414952" opacity="1.000000" stroke="none" 
	d="
M39.873096,6.809681 
	C39.293121,5.778402 38.713146,4.747123 38.049736,3.413127 
	C37.966301,3.110410 38.420864,2.943607 38.662254,2.962009 
	C39.355934,2.979657 39.808228,2.978902 40.613739,3.227061 
	C40.966957,3.475975 40.989021,3.882627 40.919964,4.159107 
	C40.860035,4.625349 40.869167,4.815109 40.812042,5.278672 
	C40.740654,5.925925 40.735523,6.299376 40.517616,6.716748 
	C40.304840,6.760669 39.873096,6.809681 39.873096,6.809681 
z"/>
<path fill="#384349" opacity="1.000000" stroke="none" 
	d="
M36.596016,3.986122 
	C36.941624,4.591715 36.975079,5.323182 36.935764,6.681331 
	C36.864601,7.490568 36.866203,7.673122 36.822731,7.936436 
	C36.777657,8.017195 36.659615,8.159604 36.659615,8.159604 
	C36.659615,8.159604 36.356106,8.261562 35.909004,8.165573 
	C35.041512,8.076445 34.621120,8.083304 34.102913,8.034407 
	C34.005089,7.978649 33.797432,7.891509 33.797432,7.891510 
	C34.626244,6.631672 35.455055,5.371833 36.596016,3.986122 
z"/>
<path fill="#7BA4B2" opacity="1.000000" stroke="none" 
	d="
M11.820349,36.450512 
	C12.951951,37.003075 14.032343,37.915279 15.259054,39.168312 
	C14.348200,39.544529 13.291025,39.579922 12.111508,39.299465 
	C11.915823,38.259132 11.842482,37.534645 11.820349,36.450512 
z"/>
<path fill="#12161A" opacity="1.000000" stroke="none" 
	d="
M6.242551,39.745693 
	C6.387146,39.256779 6.531741,38.767868 6.877131,38.117485 
	C7.829827,38.273396 8.581730,38.590767 9.654099,38.904999 
	C9.836013,39.203671 9.697459,39.505489 9.010506,40.271805 
	C7.722255,40.406094 6.982403,40.075893 6.242551,39.745693 
z"/>
<path fill="#060809" opacity="1.000000" stroke="none" 
	d="
M33.065754,10.075282 
	C32.065731,10.665162 31.065710,11.255041 29.799227,11.576576 
	C30.111864,10.562412 30.690964,9.816592 31.709879,9.367479 
	C32.455048,9.801219 32.760399,9.938251 33.065754,10.075282 
z"/>
<path fill="#495E66" opacity="1.000000" stroke="none" 
	d="
M33.326851,10.019250 
	C32.760399,9.938251 32.455048,9.801219 32.038460,9.436676 
	C32.376659,8.855190 32.826096,8.501214 33.536480,8.019373 
	C33.797432,7.891509 34.005089,7.978649 34.018818,8.306861 
	C34.050804,9.014657 34.069057,9.394241 34.087315,9.773826 
	C33.920860,9.836956 33.754402,9.900087 33.326851,10.019250 
z"/>
<path fill="#FA0253" opacity="1.000000" stroke="none" 
	d="
M86.009483,55.183769 
	C83.909966,57.055042 81.810455,58.926315 79.260849,60.670830 
	C78.163635,60.409275 77.314125,59.941124 76.901085,60.191887 
	C73.274605,62.393574 69.725914,64.723404 66.096428,66.616714 
	C66.079247,65.148354 66.119820,64.078545 66.563393,63.005554 
	C71.744484,63.117954 72.364807,59.046394 74.308990,55.859871 
	C76.404144,53.473312 78.200935,51.234451 80.333771,48.945808 
	C80.894196,48.039276 81.118584,47.182526 81.342972,46.325779 
	C79.909615,46.224537 78.476257,46.123299 77.022202,46.004417 
	C77.001511,45.986774 76.960327,45.951248 76.985580,45.583557 
	C79.970032,38.993050 78.841621,37.142319 71.657631,36.969933 
	C70.208954,36.623402 69.105728,36.309528 68.144882,35.673439 
	C68.863289,33.570896 69.439323,31.790579 70.396912,30.010031 
	C71.871117,29.299044 72.963768,28.588285 74.459915,27.900444 
	C75.940933,27.919935 77.018456,27.916508 78.429337,27.949593 
	C79.205750,27.966106 79.648811,27.946110 80.112350,28.301785 
	C80.445961,30.096050 80.759087,31.514648 81.093109,33.289040 
	C82.341896,34.076069 83.569794,34.507301 84.879578,35.202492 
	C84.975533,35.650162 84.989616,35.833866 85.011414,36.362133 
	C86.381035,37.854755 87.742943,39.002811 89.173584,40.366035 
	C89.242310,40.581200 89.123322,41.017002 88.763618,41.066612 
	C86.254715,42.859154 86.198448,44.203846 89.218185,45.399498 
	C89.261147,47.245144 89.224709,48.669628 88.845428,49.956451 
	C86.760933,50.494617 85.019295,51.170441 83.277649,51.846268 
	C84.188263,52.958767 85.098877,54.071266 86.009483,55.183769 
z"/>
<path fill="#F91361" opacity="1.000000" stroke="none" 
	d="
M51.124966,81.064598 
	C49.924713,79.448929 48.994564,77.790741 48.277168,76.511826 
	C45.787144,77.039719 43.556553,77.512611 41.078125,77.538483 
	C42.515999,74.927147 44.201710,72.762840 46.309395,70.758148 
	C50.997147,71.457191 54.970947,70.833412 58.699692,68.037086 
	C59.149097,69.217720 59.286884,70.353119 59.240139,71.250122 
	C58.748264,71.134384 58.440922,71.257057 58.133583,71.379730 
	C58.584217,71.894127 59.034847,72.408516 59.625755,73.072006 
	C59.894310,73.464066 59.995571,73.717812 60.063583,74.223495 
	C60.057350,74.464638 60.048302,74.946999 59.887516,75.248901 
	C58.590054,76.352936 57.453381,77.155083 56.003716,78.178101 
	C57.229248,78.925209 58.174110,79.501213 59.118973,80.077217 
	C59.118973,80.077217 59.012928,80.540459 58.734741,80.873093 
	C58.197182,81.409515 58.068695,81.676323 58.071095,82.006165 
	C58.071095,82.006165 58.117290,81.995361 58.139606,82.004295 
	C57.386547,81.905472 56.611176,81.797722 55.363213,81.375443 
	C53.906933,81.064949 52.923244,81.068993 51.939556,81.073029 
	C51.758064,81.056046 51.576569,81.039062 51.124966,81.064598 
z"/>
<path fill="#D00252" opacity="1.000000" stroke="none" 
	d="
M60.048302,74.946999 
	C60.048302,74.946999 60.057350,74.464638 60.461777,74.243484 
	C61.904976,73.401245 63.296757,73.015549 63.903210,72.106148 
	C64.917480,70.585205 65.430298,68.729858 66.154182,67.015266 
	C69.725914,64.723404 73.274605,62.393574 76.901085,60.191887 
	C77.314125,59.941124 78.163635,60.409275 78.957016,60.808086 
	C75.247749,65.596275 71.392235,70.120453 67.193413,74.384605 
	C66.311943,73.690903 65.635101,72.791100 65.259224,72.902924 
	C63.477253,73.433037 61.777405,74.239189 60.048302,74.946999 
z"/>
<path fill="#E90052" opacity="1.000000" stroke="none" 
	d="
M59.887516,75.248901 
	C61.777405,74.239189 63.477253,73.433037 65.259224,72.902924 
	C65.635101,72.791100 66.311943,73.690903 66.861023,74.432663 
	C64.501045,76.419601 62.130161,78.098450 59.439125,79.927261 
	C58.174110,79.501213 57.229248,78.925209 56.003716,78.178101 
	C57.453381,77.155083 58.590054,76.352936 59.887516,75.248901 
z"/>
<path fill="#000000" opacity="1.000000" stroke="none" 
	d="
M89.188271,50.094112 
	C89.224709,48.669628 89.261147,47.245144 89.327179,45.012012 
	C89.278954,43.141243 89.201141,42.079124 89.123322,41.017002 
	C89.123322,41.017002 89.242310,40.581200 89.347984,40.092155 
	C89.527534,39.400093 89.601418,39.197079 89.803986,38.890388 
	C90.052330,38.418125 89.954300,38.136917 89.538956,37.707146 
	C89.353096,37.323795 89.266899,37.176395 89.287827,36.847446 
	C89.394951,36.665897 89.458122,36.249920 89.621124,36.210014 
	C89.784119,36.170105 90.083023,36.017448 90.334274,36.009315 
	C90.753105,36.000942 90.920692,36.000706 91.088272,36.000469 
	C91.071877,40.394730 91.055481,44.788994 91.058914,49.655312 
	C90.904099,50.401333 90.729439,50.675304 90.082489,50.831505 
	C89.438171,50.620396 89.266159,50.527058 89.166214,50.362270 
	C89.238281,50.290821 89.188271,50.094112 89.188271,50.094112 
z"/>
<path fill="#D9014F" opacity="1.000000" stroke="none" 
	d="
M88.845428,49.956451 
	C89.188271,50.094112 89.238281,50.290821 89.144836,50.772091 
	C89.047112,51.525711 89.042824,51.798065 89.038536,52.070419 
	C89.038536,52.070419 89.009102,52.006912 88.811287,52.106689 
	C88.320755,52.409191 88.160683,52.688042 88.133263,53.043011 
	C87.619492,53.675591 87.105728,54.308170 86.300720,55.062260 
	C85.098877,54.071266 84.188263,52.958767 83.277649,51.846268 
	C85.019295,51.170441 86.760933,50.494617 88.845428,49.956451 
z"/>
<path fill="#E90052" opacity="1.000000" stroke="none" 
	d="
M58.332611,81.960861 
	C58.068695,81.676323 58.197182,81.409515 58.659058,81.098328 
	C58.772415,81.299141 58.683273,81.607346 58.332611,81.960861 
z"/>
<path fill="#FA0253" opacity="1.000000" stroke="none" 
	d="
M89.287666,52.000305 
	C89.042824,51.798065 89.047112,51.525711 89.072769,50.843540 
	C89.266159,50.527058 89.438171,50.620396 89.839966,50.896439 
	C89.892090,51.362823 89.714447,51.646507 89.287666,52.000305 
z"/>
<path fill="#FA0253" opacity="1.000000" stroke="none" 
	d="
M88.371475,52.963612 
	C88.160683,52.688042 88.320755,52.409191 88.845383,52.114609 
	C88.921425,52.309906 88.765556,52.597061 88.371475,52.963612 
z"/>
<path fill="#FD9DB8" opacity="1.000000" stroke="none" 
	d="
M62.156860,8.663127 
	C62.525738,8.749845 62.894611,8.836563 63.640625,9.187157 
	C64.070023,9.630152 64.122284,9.809273 64.088150,10.312922 
	C64.542442,11.154598 65.083115,11.671744 65.714676,12.512493 
	C66.268837,13.468124 66.732124,14.100151 67.195877,14.823941 
	C67.196342,14.915704 67.017242,14.955761 67.012413,15.274794 
	C67.000977,16.018244 66.994362,16.442663 66.948586,17.274427 
	C66.949905,18.770460 66.990387,19.859148 66.972839,21.329617 
	C66.304184,24.147436 65.693573,26.583477 64.714546,29.112762 
	C63.358326,28.801188 62.370518,28.396368 61.489700,27.711758 
	C60.648510,25.633337 59.563187,23.890524 58.800476,22.016415 
	C58.293720,20.771225 58.248135,19.338358 58.337341,17.946198 
	C59.031010,16.922632 59.383461,15.942363 59.796753,14.585533 
	C60.361153,12.790718 60.864712,11.372464 61.539276,9.766235 
	C61.859146,9.273215 62.008003,8.968171 62.156860,8.663127 
z"/>
<path fill="#C3054D" opacity="1.000000" stroke="none" 
	d="
M67.030869,20.947834 
	C66.990387,19.859148 66.949905,18.770460 67.269348,17.297142 
	C68.054420,16.868954 68.479568,16.825396 68.931198,17.155014 
	C70.059219,18.925707 71.160751,20.323225 72.514023,21.731390 
	C73.186897,21.308226 73.608040,20.874411 74.393715,20.371077 
	C74.992691,20.222586 75.227142,20.143614 75.461601,20.064642 
	C76.999985,21.535114 78.538376,23.005589 80.194145,25.126263 
	C79.573021,26.488670 78.834503,27.200874 78.095985,27.913080 
	C77.018456,27.916508 75.940933,27.919935 74.397934,27.576405 
	C71.631935,25.135576 69.331398,23.041706 67.030869,20.947834 
z"/>
<path fill="#1A1D21" opacity="1.000000" stroke="none" 
	d="
M55.703915,2.346881 
	C55.703915,2.346881 55.837536,2.243477 55.920334,2.226658 
	C57.583099,2.877334 59.163067,3.544828 60.571236,4.857100 
	C60.218998,6.171957 60.038563,6.842037 59.514015,7.486350 
	C58.732037,7.335927 58.294174,7.211272 57.710934,6.824132 
	C57.466869,5.977651 57.368179,5.393654 57.263641,4.531630 
	C57.169846,4.090400 57.081894,3.927198 56.798492,3.603404 
	C56.309486,3.276615 56.015930,3.110418 55.739914,2.794202 
	C55.757454,2.644182 55.703915,2.346881 55.703915,2.346881 
z"/>
<path fill="#191E23" opacity="1.000000" stroke="none" 
	d="
M91.363937,35.985809 
	C90.920692,36.000706 90.753105,36.000942 90.194809,35.777061 
	C89.486969,35.425549 89.169846,35.298161 88.565491,35.147461 
	C87.895653,35.095131 87.513039,35.066105 87.044830,34.701630 
	C86.979118,33.906578 86.999016,33.446983 87.009781,32.993267 
	C87.000641,32.999149 87.020988,32.983879 87.266815,32.925373 
	C87.660065,32.594627 87.807495,32.322392 87.973160,32.032341 
	C87.991394,32.014526 87.954262,32.059784 87.954262,32.059784 
	C89.307175,33.123241 90.660080,34.186703 92.102058,35.597939 
	C92.007278,35.954197 91.823441,35.962673 91.363937,35.985809 
z"/>
<path fill="#373F46" opacity="1.000000" stroke="none" 
	d="
M70.855385,12.974365 
	C71.538170,13.764850 72.220963,14.555333 72.914215,15.948664 
	C72.604141,16.755177 72.283607,16.958843 71.636009,17.115067 
	C70.875999,16.992334 70.443047,16.917042 69.907715,16.667999 
	C69.668381,16.249529 69.471069,16.071817 69.096542,15.677765 
	C68.656639,15.152857 68.333588,14.911297 68.110428,14.512545 
	C68.403801,14.193492 68.621284,14.076131 69.106163,13.927533 
	C69.543480,13.584349 69.737419,13.316899 70.162521,13.032647 
	C70.393692,13.015845 70.855385,12.974365 70.855385,12.974365 
z"/>
<path fill="#1B2127" opacity="1.000000" stroke="none" 
	d="
M86.045967,28.980789 
	C86.667305,29.780638 87.288643,30.580486 87.932129,31.720058 
	C87.954262,32.059784 87.991394,32.014526 87.712891,32.047649 
	C87.296593,32.381809 87.158791,32.682846 87.020988,32.983879 
	C87.020988,32.983879 87.000641,32.999149 86.677147,32.969398 
	C85.909302,32.931744 85.464958,32.923843 85.024872,32.951149 
	C85.029144,32.986355 85.099625,32.978409 84.983200,32.650681 
	C84.865967,31.635303 84.865166,30.947659 84.991905,29.988449 
	C85.428291,29.471521 85.737129,29.226156 86.045967,28.980789 
z"/>
<path fill="#18161D" opacity="1.000000" stroke="none" 
	d="
M65.623787,12.188890 
	C65.083115,11.671744 64.542442,11.154598 64.360001,10.301147 
	C65.164001,9.696384 65.609756,9.427927 66.055511,9.159470 
	C66.675903,9.585242 67.296303,10.011016 67.898308,10.912756 
	C67.775040,11.616874 67.633530,11.819448 66.993179,12.003434 
	C66.228561,12.069913 65.926178,12.129403 65.623787,12.188890 
z"/>
<path fill="#141A21" opacity="1.000000" stroke="none" 
	d="
M67.455406,11.996445 
	C67.633530,11.819448 67.775040,11.616874 67.933319,11.210494 
	C68.940445,11.461231 69.894180,11.890199 70.851646,12.646766 
	C70.855385,12.974365 70.393692,13.015845 69.922852,13.103781 
	C69.255600,13.462234 69.059189,13.732749 68.862785,14.003266 
	C68.621284,14.076131 68.403801,14.193492 67.863693,14.591519 
	C67.350441,14.870379 67.183846,14.913070 67.017242,14.955761 
	C67.017242,14.955761 67.196342,14.915704 67.143684,14.468260 
	C67.212486,13.346025 67.333946,12.671235 67.455406,11.996445 
z"/>
<path fill="#FF80EE" opacity="1.000000" stroke="none" 
	d="
M62.154892,8.557203 
	C62.008003,8.968171 61.859146,9.273215 61.161781,9.672733 
	C59.842602,9.778790 59.071934,9.790374 58.216942,9.488192 
	C58.239246,8.778303 58.345867,8.382182 58.651894,7.980563 
	C59.116367,7.972733 59.380379,7.988379 60.055706,8.072254 
	C61.020935,8.162010 61.573788,8.201520 62.126637,8.241029 
	C62.126637,8.241029 62.152927,8.451278 62.154892,8.557203 
z"/>
<path fill="#1C2025" opacity="1.000000" stroke="none" 
	d="
M80.464851,25.061426 
	C81.573784,25.454378 82.682724,25.847332 83.746201,26.864632 
	C83.353745,27.707611 83.006737,27.926241 82.296982,28.109871 
	C81.447769,28.028881 80.961296,27.982891 80.458618,27.575184 
	C80.449890,26.496120 80.457367,25.778774 80.464851,25.061426 
z"/>
<path fill="#F765DE" opacity="1.000000" stroke="none" 
	d="
M80.494041,25.026878 
	C80.457367,25.778774 80.449890,26.496120 80.365402,27.539406 
	C80.288399,27.865343 80.091873,27.926115 80.091873,27.926115 
	C79.648811,27.946110 79.205750,27.966106 78.429337,27.949593 
	C78.834503,27.200874 79.573021,26.488670 80.394745,25.424595 
	C80.477951,25.072723 80.523232,24.992332 80.494041,25.026878 
z"/>
<path fill="#1A1F23" opacity="1.000000" stroke="none" 
	d="
M82.659729,28.144871 
	C83.006737,27.926241 83.353745,27.707611 83.860695,27.222572 
	C84.651535,27.432226 85.282425,27.908293 85.979645,28.682575 
	C85.737129,29.226156 85.428291,29.471521 84.629372,29.976196 
	C83.646111,29.538626 83.152916,28.841749 82.659729,28.144871 
z"/>
<path fill="#47525D" opacity="1.000000" stroke="none" 
	d="
M62.380341,8.071465 
	C61.573788,8.201520 61.020935,8.162010 60.085350,7.934736 
	C59.702614,7.746971 59.858131,7.512116 59.858131,7.512116 
	C60.038563,6.842037 60.218998,6.171957 60.636108,5.242813 
	C61.459866,5.956467 62.046951,6.929184 62.380341,8.071465 
z"/>
<path fill="#090A0C" opacity="1.000000" stroke="none" 
	d="
M71.963074,17.162508 
	C72.283607,16.958843 72.604141,16.755177 72.967072,16.263519 
	C73.620018,16.444191 74.230576,16.912855 74.569778,17.802143 
	C73.831215,18.538355 73.363998,18.853945 72.619759,19.035261 
	C72.216187,18.321495 72.089630,17.742002 71.963074,17.162508 
z"/>
<path fill="#654F6F" opacity="1.000000" stroke="none" 
	d="
M72.896782,19.169533 
	C73.363998,18.853945 73.831215,18.538355 74.553001,18.097958 
	C74.905403,18.454119 75.003242,18.935089 75.281342,19.740349 
	C75.227142,20.143614 74.992691,20.222586 74.156830,20.149147 
	C73.354897,19.921627 73.154388,19.846519 72.941238,19.620789 
	C72.928589,19.470163 72.896782,19.169531 72.896782,19.169533 
z"/>
<path fill="#4D636C" opacity="1.000000" stroke="none" 
	d="
M65.782555,9.056507 
	C65.609756,9.427927 65.164001,9.696384 64.446396,9.976617 
	C64.122284,9.809273 64.070023,9.630152 63.927200,9.186079 
	C64.394287,8.931934 64.951942,8.942739 65.782555,9.056507 
z"/>
<path fill="#272D2C" opacity="1.000000" stroke="none" 
	d="
M16.382416,38.075676 
	C16.125439,37.908482 16.080257,37.739040 16.014624,37.290581 
	C15.994172,37.011562 15.964739,37.031883 16.348145,37.083557 
	C17.502142,37.098122 18.272734,37.061008 19.274582,37.067219 
	C19.505835,37.110538 19.966276,37.013523 20.233921,37.043861 
	C20.857656,37.123428 21.213749,37.172653 21.671906,37.588955 
	C22.319725,40.183392 22.664415,42.633698 26.332043,41.833157 
	C27.113905,41.937778 27.563883,41.976730 28.021587,42.366684 
	C28.075676,43.182751 28.122036,43.647804 27.886578,44.139622 
	C27.069347,44.299263 26.533936,44.432144 25.648312,44.522549 
	C24.827824,44.909611 24.357550,45.339146 23.611572,45.888367 
	C22.912266,46.350006 22.488663,46.691967 21.974476,47.346340 
	C21.818861,48.085751 21.753830,48.512749 21.298546,48.967522 
	C19.611526,48.946423 18.314762,48.897545 17.017996,48.848671 
	C22.214277,48.128151 20.901276,44.145504 20.952076,40.075401 
	C19.599808,38.881180 18.308523,38.488445 17.017239,38.095711 
	C17.017239,38.095707 16.594210,38.073425 16.382416,38.075676 
z"/>
<path fill="#0A7F7A" opacity="1.000000" stroke="none" 
	d="
M16.709442,48.976669 
	C18.314762,48.897545 19.611526,48.946423 21.377724,49.361046 
	C21.925848,51.043842 22.004539,52.360893 22.083233,53.677944 
	C22.083233,53.677944 21.706295,53.921280 21.157337,53.977615 
	C20.385122,54.032272 20.161863,54.030594 19.836718,53.794861 
	C19.697821,53.394711 19.660814,53.228603 19.703121,52.841118 
	C19.785891,52.272251 19.637947,52.010265 19.318787,51.767906 
	C19.298973,51.702042 19.195131,51.611816 19.030624,51.405231 
	C18.522411,51.135792 18.178707,51.072933 17.467033,51.009796 
	C16.609756,50.960506 16.120445,50.911499 15.631135,50.862488 
	C15.887719,50.276550 16.144302,49.690613 16.709442,48.976669 
z"/>
<path fill="#AFE80B" opacity="1.000000" stroke="none" 
	d="
M9.549560,42.266319 
	C11.933447,42.272728 14.317334,42.279140 16.871675,42.923428 
	C16.695406,43.762447 16.348682,43.963596 16.001959,44.164742 
	C14.121757,44.106098 12.241553,44.047459 9.962093,43.663155 
	C9.558411,42.980431 9.553985,42.623375 9.549560,42.266319 
z"/>
<path fill="#DEEACD" opacity="1.000000" stroke="none" 
	d="
M9.214454,42.077957 
	C9.553985,42.623375 9.558411,42.980431 9.494515,43.597168 
	C7.681918,43.536659 5.937641,43.216473 4.179255,42.519791 
	C4.165146,42.143295 4.471485,42.017250 4.959789,41.909920 
	C6.344564,41.764290 7.241035,41.725986 8.137505,41.687683 
	C8.384785,41.754986 8.632066,41.822292 9.214454,42.077957 
z"/>
<path fill="#12161A" opacity="1.000000" stroke="none" 
	d="
M16.062119,44.473442 
	C16.348682,43.963596 16.695406,43.762447 17.141462,43.271324 
	C18.019257,42.865211 18.797718,42.749081 19.576181,42.632946 
	C19.670292,43.090443 19.764404,43.547935 19.858515,44.005432 
	C18.613102,44.264336 17.367689,44.523239 16.062119,44.473442 
z"/>
<path fill="#B2EB1F" opacity="1.000000" stroke="none" 
	d="
M8.278303,41.559536 
	C7.241035,41.725986 6.344564,41.764290 5.085370,41.801929 
	C4.988400,41.173733 5.254154,40.546200 5.881229,39.832180 
	C6.982403,40.075893 7.722255,40.406094 8.736169,40.687611 
	C8.757425,40.863762 8.560383,41.127918 8.278303,41.559536 
z"/>
<path fill="#008550" opacity="1.000000" stroke="none" 
	d="
M15.367563,50.902195 
	C16.120445,50.911499 16.609756,50.960506 17.434240,51.221954 
	C17.769415,51.434391 17.794619,51.864170 17.690874,52.136597 
	C17.186045,52.808098 16.784960,53.207176 15.996835,53.394016 
	C15.032166,53.100109 14.454537,53.018436 13.876909,52.936768 
	C13.906289,52.507233 13.935669,52.077698 14.003433,51.327259 
	C14.395876,50.984871 14.749934,50.963387 15.367563,50.902195 
z"/>
<path fill="#12161A" opacity="1.000000" stroke="none" 
	d="
M17.226517,38.331558 
	C18.308523,38.488445 19.599808,38.881180 20.945892,39.636528 
	C19.812393,39.521893 18.624094,39.044651 17.226517,38.331558 
z"/>
<path fill="#E90052" opacity="1.000000" stroke="none" 
	d="
M52.114601,81.384567 
	C52.923244,81.068993 53.906933,81.064949 54.970810,81.363495 
	C54.130543,81.676086 53.210094,81.686089 52.114601,81.384567 
z"/>
<path fill="#000000" opacity="1.000000" stroke="none" 
	d="
M55.722374,2.944222 
	C56.015930,3.110418 56.309486,3.276615 56.339943,3.686625 
	C51.047569,3.914500 46.018295,3.898563 40.989021,3.882627 
	C40.989021,3.882627 40.966957,3.475975 40.950600,3.273308 
	C41.133606,2.794068 41.332962,2.517495 42.056236,2.421853 
	C46.960896,2.716597 51.341633,2.830410 55.722374,2.944222 
z"/>
<path fill="#120017" opacity="1.000000" stroke="none" 
	d="
M55.739914,2.794202 
	C51.341633,2.830410 46.960896,2.716597 42.287567,2.308712 
	C46.284626,2.041220 50.574268,2.067800 55.283913,2.220630 
	C55.703915,2.346881 55.757454,2.644182 55.739914,2.794202 
z"/>
<path fill="#A7DA36" opacity="1.000000" stroke="none" 
	d="
M13.926651,65.221466 
	C13.273339,63.404068 12.620027,61.586674 12.279815,59.163746 
	C13.741861,57.381996 14.890807,56.205772 16.326799,55.043449 
	C17.068773,55.355846 17.523701,55.654346 17.750389,56.107609 
	C17.667679,56.863373 17.813210,57.464375 17.963953,58.438614 
	C17.705954,61.570892 17.442741,64.329926 17.179531,67.088966 
	C17.179533,67.088966 17.241241,67.238396 16.900763,67.148804 
	C15.682405,66.446625 14.804528,65.834045 13.926651,65.221466 
z"/>
<path fill="#B8E51F" opacity="1.000000" stroke="none" 
	d="
M17.387573,67.034729 
	C17.442741,64.329926 17.705954,61.570892 17.980705,58.086239 
	C17.987705,56.891361 17.983168,56.422104 17.978628,55.952843 
	C17.523701,55.654346 17.068773,55.355846 16.323395,54.819904 
	C16.032946,54.582462 16.046642,54.136150 16.130779,54.003567 
	C16.214918,53.870983 16.383877,53.606255 16.383877,53.606255 
	C16.784960,53.207176 17.186045,52.808098 18.041283,52.073769 
	C18.728668,51.696278 18.961899,51.654045 19.195131,51.611816 
	C19.195131,51.611816 19.298973,51.702042 19.270596,51.987930 
	C19.259008,52.590153 19.386206,52.853046 19.623808,53.062500 
	C19.660814,53.228603 19.697821,53.394711 19.749256,54.019875 
	C19.763681,54.478931 19.656427,54.950302 19.459362,55.225327 
	C19.409159,57.016628 19.556021,58.532902 19.744987,60.433311 
	C19.784647,61.847218 19.782200,62.876987 19.560900,64.109619 
	C19.161058,64.879105 18.980070,65.445724 18.621868,66.085602 
	C18.210506,66.289078 18.043222,66.478394 17.942799,66.726814 
	C17.942799,66.726814 17.595617,66.980499 17.387573,67.034729 
z"/>
<path fill="#A8DD17" opacity="1.000000" stroke="none" 
	d="
M16.046642,54.136147 
	C16.046642,54.136150 16.032946,54.582462 16.036350,54.806007 
	C14.890807,56.205772 13.741861,57.381996 12.347080,58.780739 
	C12.038291,57.610268 11.975338,56.217274 11.925419,54.406647 
	C12.129908,53.952587 12.321364,53.916157 13.163235,53.909599 
	C14.557980,54.005035 15.302311,54.070591 16.046642,54.136147 
z"/>
<path fill="#A4DA03" opacity="1.000000" stroke="none" 
	d="
M13.921780,65.603745 
	C14.804528,65.834045 15.682405,66.446625 16.852022,67.213287 
	C16.569710,67.893288 15.995660,68.419205 15.421610,68.945129 
	C14.920043,67.958763 14.418476,66.972389 13.921780,65.603745 
z"/>
<path fill="#13927D" opacity="1.000000" stroke="none" 
	d="
M18.799082,66.012344 
	C18.980070,65.445724 19.161058,64.879105 19.871098,64.139374 
	C20.607550,63.976723 20.814951,63.987190 21.022350,63.997654 
	C21.053955,64.449638 21.085560,64.901627 21.064693,65.689804 
	C20.746637,66.189110 20.480301,66.350975 20.054585,66.683014 
	C19.620596,66.899971 19.345238,66.945503 18.856209,66.775955 
	C18.694719,66.378036 18.746901,66.195190 18.799082,66.012344 
z"/>
<path fill="#A7DA36" opacity="1.000000" stroke="none" 
	d="
M18.621868,66.085602 
	C18.746901,66.195190 18.694719,66.378036 18.437687,66.765808 
	C18.232834,66.970741 18.055704,66.887199 17.999252,66.807007 
	C18.043222,66.478394 18.210506,66.289078 18.621868,66.085602 
z"/>
<path fill="#FC055C" opacity="1.000000" stroke="none" 
	d="
M28.168396,44.112862 
	C28.122036,43.647804 28.075676,43.182751 28.003822,42.362961 
	C27.978329,42.008228 27.976149,42.045025 28.345079,42.005264 
	C29.100201,41.253342 29.486389,40.541187 30.022701,39.554668 
	C30.796637,38.477642 31.420444,37.674976 32.311924,36.801830 
	C32.855843,36.488556 33.132092,36.245762 33.706734,36.015144 
	C34.665916,36.353653 35.326702,36.679981 35.730965,37.209290 
	C33.643963,39.634075 33.583656,41.945061 35.068050,44.374153 
	C35.573776,45.201733 36.543808,46.305920 36.319263,46.930561 
	C34.559662,51.825417 38.389244,51.334511 41.010681,51.984829 
	C42.604534,52.380230 44.226177,52.663631 45.805382,53.313095 
	C45.198578,54.424973 44.621723,55.221092 43.680756,56.070496 
	C40.357578,58.691750 40.528038,61.749367 41.927944,64.999344 
	C39.803967,64.008087 37.679985,63.016834 35.180473,62.053497 
	C34.449905,60.559132 34.094864,59.036850 33.390392,56.884621 
	C32.979862,54.855602 32.918762,53.456524 32.934090,51.780991 
	C32.918388,51.170151 32.826252,50.835762 32.866837,50.111740 
	C32.617809,48.742474 32.236069,47.762844 31.922909,46.470131 
	C31.936741,45.735752 31.881992,45.314449 31.717125,44.590012 
	C30.759474,44.306118 29.911942,44.325359 28.842091,44.280144 
	C28.619774,44.215694 28.168396,44.112862 28.168396,44.112862 
z"/>
<path fill="#B3E019" opacity="1.000000" stroke="none" 
	d="
M26.207411,56.826092 
	C26.207411,56.826092 26.059790,56.587093 26.397261,56.354210 
	C27.428953,55.444424 28.123175,54.767517 28.861748,53.696968 
	C28.142006,52.378391 27.377913,51.453461 26.520180,50.414093 
	C26.426538,50.299664 26.369722,50.009445 26.736679,49.915577 
	C27.792360,49.501400 28.481085,49.181091 29.441759,48.991272 
	C29.834494,49.699387 29.955280,50.277012 30.106419,51.089119 
	C30.254076,51.632298 30.457947,51.865227 30.809568,52.264797 
	C30.849527,52.672523 30.828302,52.837837 30.579750,53.257095 
	C29.893774,55.292725 29.435125,57.074409 28.976479,58.856091 
	C28.808744,58.904305 28.641008,58.952515 28.247454,59.131863 
	C28.021633,59.262997 27.956100,59.039043 28.012308,58.619926 
	C27.448147,57.742573 26.827780,57.284332 26.207411,56.826092 
z"/>
<path fill="#009556" opacity="1.000000" stroke="none" 
	d="
M30.807077,53.003151 
	C30.828302,52.837837 30.849527,52.672523 30.867861,52.042633 
	C30.864967,51.578064 30.860662,51.119003 31.340954,51.000778 
	C32.125538,50.755493 32.429829,50.628433 32.734119,50.501377 
	C32.826252,50.835762 32.918388,51.170151 32.670162,52.059212 
	C32.225372,54.726933 32.120945,56.839981 32.016518,58.953030 
	C31.839823,58.989532 31.663130,59.026031 31.236576,58.595039 
	C30.926838,56.419411 30.866957,54.711281 30.807077,53.003151 
z"/>
<path fill="#93CF30" opacity="1.000000" stroke="none" 
	d="
M30.579750,53.257095 
	C30.866957,54.711281 30.926838,56.419411 30.968876,58.555271 
	C30.506130,59.007599 30.061226,59.032200 29.296400,58.956444 
	C29.435125,57.074409 29.893774,55.292725 30.579750,53.257095 
z"/>
<path fill="#00B263" opacity="1.000000" stroke="none" 
	d="
M32.311493,58.874901 
	C32.120945,56.839981 32.225372,54.726933 32.593727,52.335667 
	C32.918762,53.456524 32.979862,54.855602 33.107899,56.676155 
	C32.985382,57.664013 32.795929,58.230392 32.311493,58.874901 
z"/>
<path fill="#FEE5EB" opacity="1.000000" stroke="none" 
	d="
M45.887421,70.598526 
	C44.201710,72.762840 42.515999,74.927147 40.703232,77.481064 
	C38.601952,77.246544 36.627728,76.622421 34.289700,75.956001 
	C32.841236,75.278320 31.756573,74.642937 30.318480,74.016571 
	C29.999441,73.615524 30.033833,73.205467 30.024132,72.493217 
	C30.024635,71.975685 30.069233,71.760338 30.058334,71.219482 
	C30.012028,70.517799 30.021217,70.141632 29.984234,69.490936 
	C34.061905,68.683563 38.165039,64.881020 42.848389,69.544113 
	C43.942261,69.925995 44.506958,69.901756 45.219688,69.988632 
	C45.623497,70.179977 45.796730,70.346237 45.887421,70.598526 
z"/>
<path fill="#25051A" opacity="1.000000" stroke="none" 
	d="
M45.071659,69.877518 
	C44.506958,69.901756 43.942261,69.925995 43.162502,69.777283 
	C42.721687,68.307640 42.495930,67.010963 42.099060,65.356812 
	C40.528038,61.749367 40.357578,58.691750 44.036911,56.223846 
	C47.674526,56.323914 50.591873,56.323914 53.889946,56.323914 
	C53.449444,54.241417 53.220615,53.159626 53.353020,51.997440 
	C54.449039,51.847977 55.183830,51.778904 56.239258,51.849693 
	C56.775208,52.635002 56.990513,53.280445 57.146271,54.287994 
	C58.564178,56.086212 60.041645,57.522324 61.588936,59.292793 
	C61.103096,60.369896 60.547424,61.112648 59.974861,61.606499 
	C59.756889,61.143497 59.555805,60.929390 59.354721,60.715279 
	C59.248100,61.181473 59.141476,61.647663 59.021629,62.475189 
	C58.968880,63.557255 58.929356,64.277992 58.587837,64.952568 
	C56.862381,64.806213 56.301891,60.769932 54.036499,63.701019 
	C53.273834,62.964397 52.623108,62.526062 51.979855,61.732552 
	C51.361427,60.583530 50.735527,59.789696 49.858696,58.699524 
	C48.025433,58.326008 46.443089,58.248829 44.011906,58.130249 
	C44.632435,60.193531 45.140182,61.581635 45.453514,63.012325 
	C45.738110,64.311775 45.811176,65.657555 45.722496,67.177750 
	C45.335552,68.207573 45.203606,69.042542 45.071659,69.877518 
z"/>
<path fill="#F3C181" opacity="1.000000" stroke="none" 
	d="
M28.817396,54.090611 
	C28.123175,54.767517 27.428953,55.444424 26.413874,56.214745 
	C25.383051,55.757160 24.673086,55.206165 24.000023,54.127094 
	C24.036922,53.599022 24.030603,53.288044 24.350592,53.235695 
	C25.306505,53.230068 25.942430,53.276787 26.820318,53.505768 
	C27.647318,53.822224 28.232357,53.956417 28.817396,54.090611 
z"/>
<path fill="#B0DC16" opacity="1.000000" stroke="none" 
	d="
M24.030603,53.288044 
	C24.030603,53.288044 24.036922,53.599022 23.963856,53.735508 
	C23.490807,53.824375 23.090826,53.776756 22.387039,53.703541 
	C22.004539,52.360893 21.925848,51.043842 21.767977,49.333267 
	C21.753830,48.512749 21.818861,48.085751 22.298943,47.332695 
	C23.145855,46.975887 23.577715,46.945133 23.959318,47.137886 
	C23.898735,47.886490 23.888409,48.411591 23.869682,49.298447 
	C23.931999,50.134705 24.002714,50.609207 24.090885,51.313282 
	C24.108343,51.542850 24.240646,51.985634 24.180508,52.310005 
	C24.090446,52.852268 24.060524,53.070156 24.030603,53.288044 
z"/>
<path fill="#009F65" opacity="1.000000" stroke="none" 
	d="
M21.083969,63.548164 
	C20.814951,63.987190 20.607550,63.976723 20.089952,63.936508 
	C19.782200,62.876987 19.784647,61.847218 19.850613,60.015915 
	C19.828230,57.793022 19.742329,56.371662 19.656427,54.950302 
	C19.656427,54.950302 19.763681,54.478931 19.851143,54.253922 
	C20.161863,54.030594 20.385122,54.032272 20.944798,54.049381 
	C21.236006,57.076099 21.190798,60.087387 21.083969,63.548164 
z"/>
<path fill="#F4F2F7" opacity="1.000000" stroke="none" 
	d="
M26.136164,57.212543 
	C26.827780,57.284332 27.448147,57.742573 28.084625,58.528374 
	C27.422129,58.436954 26.743523,58.017975 26.136164,57.212543 
z"/>
<path fill="#4FA743" opacity="1.000000" stroke="none" 
	d="
M16.130779,54.003563 
	C15.302311,54.070591 14.557980,54.005035 13.452677,53.868553 
	C13.206521,53.557873 13.368748,53.356251 13.727647,53.064766 
	C14.454537,53.018436 15.032166,53.100109 15.996835,53.394016 
	C16.383877,53.606255 16.214918,53.870983 16.130779,54.003563 
z"/>
<path fill="#F50451" opacity="1.000000" stroke="none" 
	d="
M35.987480,37.006310 
	C35.326702,36.679981 34.665916,36.353653 33.435043,35.691475 
	C32.584141,35.378468 32.303333,35.401302 31.995724,35.462807 
	C31.968925,35.501476 32.040295,35.562809 32.466805,35.382751 
	C32.981457,32.770870 33.069603,30.339048 33.430923,27.667526 
	C34.064564,25.837481 34.915932,24.154949 34.639736,22.684155 
	C34.391220,21.360744 32.905796,20.269608 31.965950,19.076019 
	C32.972988,18.045465 34.061573,17.080725 34.962452,15.964496 
	C35.748596,14.990431 36.323235,13.845669 37.414494,12.375985 
	C43.370491,11.874084 48.904755,11.660375 54.435375,11.731167 
	C56.398399,11.756294 58.688988,12.171316 57.231670,15.188814 
	C54.821030,15.136416 52.800926,14.926885 50.864418,15.237889 
	C49.188549,15.507037 47.607567,16.367022 45.665848,17.055416 
	C43.952709,18.783737 42.558369,20.422485 40.797493,22.047337 
	C39.621166,22.687588 38.811371,23.341738 37.951584,24.394562 
	C37.688519,27.312757 37.578869,29.846922 37.224819,32.346474 
	C37.001022,33.926472 36.412445,35.454807 35.987480,37.006310 
z"/>
<path fill="#DC0A53" opacity="1.000000" stroke="none" 
	d="
M57.658504,15.257692 
	C58.688988,12.171316 56.398399,11.756294 54.435375,11.731167 
	C48.904755,11.660375 43.370491,11.874084 37.419586,11.982866 
	C37.012978,11.522573 37.024441,11.055058 37.364044,10.165018 
	C38.440525,9.155868 39.188873,8.569242 39.962784,7.724723 
	C39.993202,7.294124 39.998055,7.121420 40.002907,6.948716 
	C40.002907,6.948716 39.893265,6.920735 39.883179,6.865208 
	C39.873096,6.809681 40.304840,6.760669 40.794975,6.789745 
	C41.475212,6.830949 41.665314,6.843076 42.330421,6.891529 
	C47.203632,6.955837 51.601833,6.983819 56.021027,7.028880 
	C56.042015,7.045960 56.015602,7.093200 56.156433,7.370185 
	C56.965267,8.365432 57.633266,9.083694 58.301266,9.801956 
	C59.071934,9.790374 59.842602,9.778790 60.990768,9.860709 
	C60.864712,11.372464 60.361153,12.790718 59.469307,14.602631 
	C58.646439,15.059067 58.211853,15.121843 57.752754,15.211302 
	C57.728241,15.237984 57.658504,15.257692 57.658504,15.257692 
z"/>
<path fill="#280821" opacity="1.000000" stroke="none" 
	d="
M31.689690,19.284286 
	C32.905796,20.269608 34.391220,21.360744 34.639736,22.684155 
	C34.915932,24.154949 34.064564,25.837481 33.357353,27.452824 
	C33.010601,27.477819 32.869473,27.044788 32.718723,26.688972 
	C30.366999,26.548685 28.166023,26.764215 25.650032,26.962297 
	C24.559433,26.634598 23.783850,26.324347 23.008268,26.014093 
	C23.104195,24.543196 23.200119,23.072298 23.545609,21.339905 
	C26.334593,20.549791 28.874010,20.021172 31.689690,19.284286 
z"/>
<path fill="#0E000F" opacity="1.000000" stroke="none" 
	d="
M34.394260,9.816076 
	C34.069057,9.394241 34.050804,9.014657 34.116638,8.362618 
	C34.621120,8.083304 35.041512,8.076445 35.753792,8.204803 
	C35.597527,8.846125 35.149364,9.352225 34.394260,9.816076 
z"/>
<path fill="#FF85F9" opacity="1.000000" stroke="none" 
	d="
M39.937218,7.982617 
	C39.188873,8.569242 38.440525,9.155868 37.386581,9.814876 
	C37.003605,9.496203 36.926231,9.105150 36.754234,8.436851 
	C36.659615,8.159604 36.777657,8.017195 37.207211,7.967122 
	C38.403584,7.938905 39.170399,7.960761 39.937218,7.982617 
z"/>
<path fill="#A3D832" opacity="1.000000" stroke="none" 
	d="
M14.115345,34.814568 
	C13.952564,34.383801 13.789783,33.953037 13.627001,33.522270 
	C13.207865,33.893913 12.788729,34.265553 12.105806,34.738007 
	C11.861041,30.865139 11.752535,26.884623 11.964861,22.921293 
	C12.044445,21.435768 12.870282,19.990223 13.617307,19.027542 
	C14.567181,20.415800 15.255630,21.302965 15.944098,22.520737 
	C16.632759,23.251350 17.321400,23.651360 17.999199,24.508423 
	C17.972525,28.628309 17.956694,32.291142 17.615669,35.966370 
	C16.856684,35.983837 16.422892,35.988911 15.815737,35.765610 
	C15.133365,35.296349 14.624355,35.055458 14.115345,34.814568 
z"/>
<path fill="#007B5F" opacity="1.000000" stroke="none" 
	d="
M15.944078,22.190130 
	C15.255630,21.302965 14.567181,20.415800 13.908722,19.160191 
	C15.099368,18.306810 16.260025,17.821877 17.708586,17.137184 
	C17.996490,16.937426 18.398335,17.042223 18.660839,17.389555 
	C18.986799,18.376455 19.050257,19.016024 19.096519,19.759624 
	C19.079329,19.863655 19.009445,20.062626 18.668232,20.037222 
	C17.546757,20.344788 16.766495,20.677757 15.969323,21.305351 
	C15.949636,21.796692 15.946856,21.993412 15.944078,22.190130 
z"/>
<path fill="#161923" opacity="1.000000" stroke="none" 
	d="
M19.113712,19.655592 
	C19.050257,19.016024 18.986799,18.376455 18.866016,17.421440 
	C18.998608,17.090834 19.188526,17.075674 19.664249,17.057533 
	C20.214872,17.841057 20.479691,18.627563 20.548183,19.667099 
	C19.939144,19.831951 19.526428,19.743773 19.113712,19.655592 
z"/>
<path fill="#00907F" opacity="1.000000" stroke="none" 
	d="
M19.096519,19.759624 
	C19.526428,19.743773 19.939144,19.831951 20.665709,19.960213 
	C21.011631,20.429628 21.043705,20.858961 21.103844,21.789997 
	C21.179764,22.536415 21.300760,22.736971 21.494898,22.893370 
	C21.567007,23.661041 21.639116,24.428715 21.567032,25.865763 
	C21.384087,27.654377 21.345339,28.773615 20.971149,29.936722 
	C20.412222,30.001501 20.188736,30.022413 19.890331,29.632929 
	C19.725290,27.845440 19.635170,26.468348 19.666582,24.861118 
	C19.801765,24.458191 19.815414,24.285400 19.869169,23.764668 
	C19.591864,22.609533 19.274454,21.802336 18.974083,20.762234 
	C18.991125,20.529325 19.009445,20.062626 19.009445,20.062626 
	C19.009445,20.062626 19.079329,19.863655 19.096519,19.759624 
z"/>
<path fill="#161923" opacity="1.000000" stroke="none" 
	d="
M21.306591,29.892853 
	C21.345339,28.773615 21.384087,27.654377 21.597103,26.251354 
	C21.977392,25.977909 22.183416,25.988251 22.698853,26.006344 
	C23.783850,26.324347 24.559433,26.634598 25.674999,27.203049 
	C26.014984,27.461248 25.943275,27.939634 25.607136,28.011417 
	C23.949526,28.686419 22.628057,29.289635 21.306591,29.892853 
z"/>
<path fill="#137D53" opacity="1.000000" stroke="none" 
	d="
M21.556261,22.707598 
	C21.300760,22.736971 21.179764,22.536415 21.132980,22.111431 
	C21.392197,22.048841 21.553385,22.245729 21.556261,22.707598 
z"/>
<path fill="#2D2F1A" opacity="1.000000" stroke="none" 
	d="
M14.049803,35.183449 
	C14.624355,35.055458 15.133365,35.296349 15.779543,36.024399 
	C15.932721,36.685005 15.948730,36.858444 15.964739,37.031883 
	C15.964739,37.031883 15.994172,37.011562 15.984800,37.029236 
	C15.311706,36.548714 14.647983,36.050522 14.049803,35.183449 
z"/>
<path fill="#A23C93" opacity="1.000000" stroke="none" 
	d="
M39.962784,7.724723 
	C39.170399,7.960761 38.403584,7.938905 37.252289,7.886363 
	C36.866203,7.673122 36.864601,7.490568 36.947281,7.047357 
	C37.772457,6.855099 38.513348,6.923500 39.628571,6.970308 
	C39.998055,7.121420 39.993202,7.294124 39.962784,7.724723 
z"/>
<path fill="#FF7FFC" opacity="1.000000" stroke="none" 
	d="
M41.855412,6.855203 
	C41.665314,6.843076 41.475212,6.830949 41.007751,6.745824 
	C40.735523,6.299376 40.740654,5.925925 41.290077,5.256693 
	C46.979408,4.910493 52.124447,4.860075 57.269489,4.809657 
	C57.368179,5.393654 57.466869,5.977651 57.741283,6.809392 
	C57.917007,7.057137 57.979195,7.030831 57.663055,6.894073 
	C56.903149,6.869277 56.459373,6.981238 56.015602,7.093200 
	C56.015602,7.093200 56.042015,7.045960 55.721531,6.740187 
	C50.885834,6.574677 46.370625,6.714940 41.855412,6.855203 
z"/>
<path fill="#AF3B95" opacity="1.000000" stroke="none" 
	d="
M57.263641,4.531630 
	C52.124447,4.860075 46.979408,4.910493 41.356331,4.982890 
	C40.869167,4.815109 40.860035,4.625349 40.919964,4.159107 
	C46.018295,3.898563 51.047569,3.914500 56.535393,3.847217 
	C57.081894,3.927198 57.169846,4.090400 57.263641,4.531630 
z"/>
<path fill="#FF005E" opacity="1.000000" stroke="none" 
	d="
M35.730965,37.209293 
	C36.412445,35.454807 37.001022,33.926472 37.224819,32.346474 
	C37.578869,29.846922 37.688519,27.312757 38.311855,24.395876 
	C39.442703,23.998894 40.163292,23.999275 40.958618,24.373096 
	C41.688786,26.541124 42.344208,28.335712 42.999130,30.521423 
	C42.616032,37.451866 42.616032,37.451866 46.727455,38.596970 
	C46.821239,37.070656 46.910450,35.618805 47.428898,34.105160 
	C50.510422,33.692585 53.162704,33.341808 56.168213,33.018265 
	C60.147388,33.926308 60.755344,33.404064 59.975899,29.766071 
	C60.393410,29.010752 60.888058,28.501150 61.382706,27.991550 
	C62.370518,28.396368 63.358326,28.801188 64.942451,29.108875 
	C65.538765,29.011740 65.995094,29.007589 65.997101,29.425438 
	C65.999321,31.601740 65.887016,33.373405 66.090645,35.107983 
	C66.133568,35.473648 67.334923,35.703323 68.002510,35.995659 
	C69.105728,36.309528 70.208954,36.623402 71.691757,37.317314 
	C73.701004,40.448654 75.330666,43.199951 76.960327,45.951248 
	C76.960327,45.951248 77.001511,45.986774 77.052887,46.330265 
	C78.068748,47.447701 79.033241,48.221649 79.997734,48.995590 
	C78.200935,51.234451 76.404144,53.473312 73.983597,55.717365 
	C67.498093,52.858627 70.631691,59.871414 68.422279,60.618130 
	C67.082375,59.302547 65.965523,58.205975 64.898605,57.087021 
	C64.948547,57.064636 64.900436,57.162945 64.881035,56.798458 
	C63.087620,55.155376 61.381645,53.754978 59.485165,52.695625 
	C59.080669,52.469673 57.983746,53.483322 57.205822,53.925888 
	C56.990513,53.280445 56.775208,52.635002 55.933601,51.624908 
	C52.555359,51.428524 49.803413,51.596786 46.774277,51.886810 
	C46.276505,52.338161 46.055920,52.667751 45.835335,52.997341 
	C44.226177,52.663631 42.604534,52.380230 41.010681,51.984829 
	C38.389244,51.334511 34.559662,51.825417 36.319263,46.930561 
	C36.543808,46.305920 35.573776,45.201733 35.068050,44.374153 
	C33.583656,41.945061 33.643963,39.634075 35.730965,37.209293 
M40.515495,35.606262 
	C40.606594,34.796223 40.697693,33.986187 40.788792,33.176147 
	C40.522228,33.159706 40.255669,33.143265 39.989105,33.126823 
	C39.989105,34.081749 39.989105,35.036671 39.715485,36.106869 
	C39.813160,36.074883 39.910835,36.042900 40.515495,35.606262 
M65.826683,40.990166 
	C66.403336,40.635761 66.979980,40.281353 67.556625,39.926945 
	C66.777092,39.615707 65.997566,39.304466 64.872368,38.247036 
	C62.028831,38.008030 59.185295,37.769028 56.035660,37.504292 
	C56.035660,41.536190 56.035660,44.687168 56.430653,48.445290 
	C58.257996,48.412125 60.085339,48.378963 62.684666,48.197834 
	C63.465611,48.131771 64.246552,48.065712 65.511223,47.975803 
	C65.786087,47.850128 66.060951,47.724457 66.335815,47.598778 
	C65.957985,47.398109 65.580154,47.197441 65.040672,46.485794 
	C64.992538,46.313751 64.944412,46.141708 64.981636,45.144913 
	C65.043922,43.765499 65.106216,42.386082 65.826683,40.990166 
M53.275612,36.842209 
	C51.900597,37.311108 50.525581,37.780003 49.150570,38.248901 
	C49.925148,39.127060 50.699730,40.005219 51.474308,40.883377 
	C52.242935,39.694313 53.011562,38.505249 53.275612,36.842209 
M52.187439,47.657455 
	C52.582932,46.416920 52.978420,45.176380 53.373909,43.935844 
	C52.200108,43.902168 51.026306,43.868492 49.852505,43.834816 
	C50.412338,45.106415 50.972172,46.378017 52.187439,47.657455 
M70.286888,49.228355 
	C71.242638,49.729931 72.198387,50.231510 73.154144,50.733089 
	C73.288483,50.142818 73.422829,49.552547 73.557175,48.962273 
	C72.415558,48.849678 71.273941,48.737083 70.286888,49.228355 
M44.946190,45.238617 
	C44.605164,46.023727 44.264141,46.808838 43.923115,47.593952 
	C44.683636,47.622925 45.444157,47.651901 46.204678,47.680874 
	C46.011105,46.840649 45.817532,46.000423 44.946190,45.238617 
M40.292252,42.426762 
	C40.004208,42.701366 39.713463,42.973465 39.443340,43.264694 
	C39.436424,43.272148 39.655830,43.489525 39.769688,43.608997 
	C40.057961,43.333645 40.346233,43.058289 40.292252,42.426762 
M37.026226,42.754967 
	C37.151142,43.192196 37.276058,43.629421 37.400974,44.066650 
	C37.633579,43.976574 37.866180,43.886497 38.098785,43.796421 
	C37.769058,43.273945 37.439331,42.751472 37.026226,42.754967 
z"/>
<path fill="#F7A0BA" opacity="1.000000" stroke="none" 
	d="
M58.889828,64.998726 
	C58.929356,64.277992 58.968880,63.557255 59.259636,62.406067 
	C59.510876,61.975609 59.991753,61.855396 59.991753,61.855396 
	C60.547424,61.112648 61.103096,60.369896 61.793327,59.026783 
	C62.918739,58.005260 63.909588,57.584103 64.900436,57.162945 
	C64.900436,57.162945 64.948547,57.064636 64.995010,57.460381 
	C65.414444,59.573662 65.787422,61.291203 66.160393,63.008739 
	C66.119820,64.078545 66.079247,65.148354 66.096428,66.616714 
	C65.430298,68.729858 64.917480,70.585205 63.903210,72.106148 
	C63.296757,73.015549 61.904976,73.401245 60.468006,74.002350 
	C59.995571,73.717812 59.894310,73.464066 59.603298,72.832138 
	C59.448067,72.124748 59.442768,71.806526 59.424675,71.488525 
	C59.286884,70.353119 59.149097,69.217720 58.639984,67.752869 
	C58.475716,66.615189 58.682770,65.806953 58.889828,64.998726 
z"/>
<path fill="#F50B56" opacity="1.000000" stroke="none" 
	d="
M65.995102,29.007591 
	C65.995094,29.007589 65.538765,29.011740 65.310860,29.015629 
	C65.693573,26.583477 66.304184,24.147436 66.972832,21.329617 
	C69.331398,23.041706 71.631935,25.135576 73.994446,27.553486 
	C72.963768,28.588285 71.871117,29.299044 70.387985,29.624990 
	C69.717072,28.159163 69.436623,27.078148 68.882111,24.940758 
	C67.419884,27.000553 66.707489,28.004074 65.995102,29.007591 
z"/>
<path fill="#FC055C" opacity="1.000000" stroke="none" 
	d="
M66.563393,63.005554 
	C65.787422,61.291203 65.414444,59.573662 64.945068,57.482765 
	C65.965523,58.205975 67.082375,59.302547 68.422279,60.618130 
	C70.631691,59.871414 67.498093,52.858627 73.685226,55.865067 
	C72.364807,59.046394 71.744484,63.117954 66.563393,63.005554 
z"/>
<path fill="#FC055C" opacity="1.000000" stroke="none" 
	d="
M65.997101,29.425438 
	C66.707489,28.004074 67.419884,27.000553 68.882111,24.940758 
	C69.436623,27.078148 69.717072,28.159163 70.006439,29.625219 
	C69.439323,31.790579 68.863289,33.570896 68.144882,35.673439 
	C67.334923,35.703323 66.133568,35.473648 66.090645,35.107983 
	C65.887016,33.373405 65.999321,31.601740 65.997101,29.425438 
z"/>
<path fill="#FC055C" opacity="1.000000" stroke="none" 
	d="
M76.985580,45.583561 
	C75.330666,43.199951 73.701004,40.448654 72.037216,37.349976 
	C78.841621,37.142319 79.970032,38.993050 76.985580,45.583561 
z"/>
<path fill="#E150BD" opacity="1.000000" stroke="none" 
	d="
M82.296982,28.109871 
	C83.152916,28.841749 83.646111,29.538626 84.501831,30.247759 
	C84.865166,30.947659 84.865967,31.635303 84.579666,32.620323 
	C83.219116,32.922878 82.145668,32.928062 81.072220,32.933247 
	C80.759087,31.514648 80.445961,30.096050 80.112350,28.301785 
	C80.091873,27.926115 80.288399,27.865343 80.381607,27.901123 
	C80.961296,27.982891 81.447769,28.028881 82.296982,28.109871 
z"/>
<path fill="#FC055C" opacity="1.000000" stroke="none" 
	d="
M80.333771,48.945808 
	C79.033241,48.221649 78.068748,47.447701 77.073578,46.347908 
	C78.476257,46.123299 79.909615,46.224537 81.342972,46.325779 
	C81.118584,47.182526 80.894196,48.039276 80.333771,48.945808 
z"/>
<path fill="#F531B2" opacity="1.000000" stroke="none" 
	d="
M89.180695,37.028996 
	C89.266899,37.176395 89.353096,37.323795 89.464462,37.972397 
	C89.551514,38.647087 89.613403,38.820580 89.675293,38.994068 
	C89.601418,39.197079 89.527534,39.400093 89.279251,39.876991 
	C87.742943,39.002811 86.381035,37.854755 85.355087,36.415268 
	C86.152313,36.093601 86.613564,36.063374 87.250206,36.288799 
	C88.010628,36.705971 88.595657,36.867485 89.180695,37.028996 
z"/>
<path fill="#CD0550" opacity="1.000000" stroke="none" 
	d="
M81.093109,33.289040 
	C82.145668,32.928062 83.219116,32.922878 84.696091,32.948051 
	C85.099625,32.978409 85.029144,32.986355 84.967354,33.286297 
	C84.869614,34.037003 84.833656,34.487770 84.797699,34.938534 
	C83.569794,34.507301 82.341896,34.076069 81.093109,33.289040 
z"/>
<path fill="#D9014F" opacity="1.000000" stroke="none" 
	d="
M88.763626,41.066612 
	C89.201141,42.079124 89.278954,43.141243 89.247787,44.590851 
	C86.198448,44.203846 86.254715,42.859154 88.763626,41.066612 
z"/>
<path fill="#F75FD8" opacity="1.000000" stroke="none" 
	d="
M84.879578,35.202492 
	C84.833656,34.487770 84.869614,34.037003 84.963089,33.251091 
	C85.464958,32.923843 85.909302,32.931744 86.686279,32.963516 
	C86.999016,33.446983 86.979118,33.906578 87.016220,34.949501 
	C87.073753,35.699596 87.074287,35.866367 87.074821,36.033142 
	C86.613564,36.063374 86.152313,36.093601 85.347374,36.070702 
	C84.989616,35.833866 84.975533,35.650162 84.879578,35.202492 
z"/>
<path fill="#0B0112" opacity="1.000000" stroke="none" 
	d="
M58.587830,64.952568 
	C58.682770,65.806953 58.475716,66.615189 58.328369,67.707642 
	C54.970947,70.833412 50.997147,71.457191 46.309395,70.758148 
	C45.796730,70.346237 45.623497,70.179977 45.219688,69.988632 
	C45.203606,69.042542 45.335552,68.207573 45.892960,67.493347 
	C48.928429,66.409164 51.538433,65.204231 54.148438,63.999306 
	C56.301891,60.769932 56.862381,64.806213 58.587830,64.952568 
z"/>
<path fill="#E90052" opacity="1.000000" stroke="none" 
	d="
M59.240135,71.250122 
	C59.442768,71.806526 59.448067,72.124748 59.463020,72.683044 
	C59.034847,72.408516 58.584217,71.894127 58.133583,71.379730 
	C58.440922,71.257057 58.748264,71.134384 59.240135,71.250122 
z"/>
<path fill="#DF004A" opacity="1.000000" stroke="none" 
	d="
M87.250206,36.288799 
	C87.074287,35.866367 87.073753,35.699596 87.101822,35.284950 
	C87.513039,35.066105 87.895653,35.095131 88.684067,35.435463 
	C89.212616,35.914486 89.335365,36.082203 89.458122,36.249920 
	C89.458122,36.249920 89.394951,36.665897 89.287827,36.847446 
	C88.595657,36.867485 88.010628,36.705971 87.250206,36.288799 
z"/>
<path fill="#6F063B" opacity="1.000000" stroke="none" 
	d="
M89.621124,36.210014 
	C89.335365,36.082203 89.212616,35.914486 88.971298,35.458771 
	C89.169846,35.298161 89.486969,35.425549 89.943558,35.785194 
	C90.083023,36.017448 89.784119,36.170105 89.621124,36.210014 
z"/>
<path fill="#6F063B" opacity="1.000000" stroke="none" 
	d="
M89.803986,38.890388 
	C89.613403,38.820580 89.551514,38.647087 89.564117,38.208344 
	C89.954300,38.136917 90.052330,38.418125 89.803986,38.890388 
z"/>
<path fill="#19051A" opacity="1.000000" stroke="none" 
	d="
M61.489700,27.711758 
	C60.888058,28.501150 60.393410,29.010752 59.785923,30.043339 
	C58.387054,31.374561 57.101025,32.182796 55.814991,32.991032 
	C53.162704,33.341808 50.510422,33.692585 47.157974,33.932014 
	C46.302078,33.219315 46.146343,32.617966 45.998894,32.010246 
	C46.007179,32.003876 46.015598,31.984741 46.401772,31.962944 
	C48.654198,31.012545 50.520451,30.083946 52.365578,29.165857 
	C51.681366,27.120314 50.832146,24.581440 49.931118,21.690943 
	C49.466076,19.093393 44.128235,21.232931 45.984642,16.965843 
	C47.607567,16.367022 49.188549,15.507037 50.864418,15.237889 
	C52.800926,14.926885 54.821030,15.136416 57.231670,15.188814 
	C57.658504,15.257692 57.728241,15.237984 57.731873,15.561884 
	C57.822376,16.587021 57.909248,17.288260 57.996124,17.989496 
	C58.248135,19.338358 58.293720,20.771225 58.800476,22.016415 
	C59.563187,23.890524 60.648510,25.633337 61.489700,27.711758 
z"/>
<path fill="#F50451" opacity="1.000000" stroke="none" 
	d="
M58.337341,17.946198 
	C57.909248,17.288260 57.822376,16.587021 57.756386,15.535202 
	C58.211853,15.121843 58.646439,15.059067 59.408466,14.979192 
	C59.383461,15.942363 59.031010,16.922632 58.337341,17.946198 
z"/>
<path fill="#FF7FEF" opacity="1.000000" stroke="none" 
	d="
M67.012413,15.274794 
	C67.183846,14.913070 67.350441,14.870379 67.763786,14.748713 
	C68.333588,14.911297 68.656639,15.152857 69.005203,15.852312 
	C69.030701,16.310207 68.940216,16.693377 68.915726,16.709244 
	C68.891228,16.725109 68.904724,16.781837 68.904724,16.781837 
	C68.479568,16.825396 68.054420,16.868954 67.308502,16.889797 
	C66.994362,16.442663 67.000977,16.018244 67.012413,15.274794 
z"/>
<path fill="#8C3479" opacity="1.000000" stroke="none" 
	d="
M66.993179,12.003434 
	C67.333946,12.671235 67.212486,13.346025 67.143219,14.376497 
	C66.732124,14.100151 66.268837,13.468124 65.714676,12.512495 
	C65.926178,12.129403 66.228561,12.069913 66.993179,12.003434 
z"/>
<path fill="#D6258C" opacity="1.000000" stroke="none" 
	d="
M72.619759,19.035259 
	C72.896782,19.169531 72.928589,19.470163 72.696884,19.773529 
	C72.397552,20.624846 72.329926,21.172792 72.262291,21.720741 
	C71.160751,20.323225 70.059219,18.925707 68.931198,17.155014 
	C68.904724,16.781837 68.891228,16.725109 69.179733,16.772980 
	C69.648857,16.827818 69.829475,16.834784 70.010101,16.841747 
	C70.443047,16.917042 70.875999,16.992334 71.636009,17.115067 
	C72.089630,17.742002 72.216187,18.321495 72.619759,19.035259 
z"/>
<path fill="#FC81E5" opacity="1.000000" stroke="none" 
	d="
M72.514023,21.731390 
	C72.329926,21.172792 72.397552,20.624846 72.709534,19.924156 
	C73.154388,19.846519 73.354897,19.921627 73.792297,20.218666 
	C73.608040,20.874411 73.186897,21.308226 72.514023,21.731390 
z"/>
<path fill="#FF7FFC" opacity="1.000000" stroke="none" 
	d="
M59.514015,7.486350 
	C59.858131,7.512116 59.702614,7.746971 59.672970,7.884489 
	C59.380379,7.988379 59.116367,7.972733 58.627079,7.695398 
	C58.261639,7.287430 58.120415,7.159131 57.979195,7.030831 
	C57.979195,7.030831 57.917007,7.057137 57.886658,7.071877 
	C58.294174,7.211272 58.732037,7.335927 59.514015,7.486350 
z"/>
<path fill="#485B62" opacity="1.000000" stroke="none" 
	d="
M87.266815,32.925373 
	C87.158791,32.682846 87.296593,32.381809 87.694656,32.065460 
	C87.807495,32.322392 87.660065,32.594627 87.266815,32.925373 
z"/>
<path fill="#624364" opacity="1.000000" stroke="none" 
	d="
M69.907715,16.667999 
	C69.829475,16.834784 69.648857,16.827818 69.204224,16.757114 
	C68.940216,16.693377 69.030701,16.310207 69.122047,16.135660 
	C69.471069,16.071817 69.668381,16.249529 69.907715,16.667999 
z"/>
<path fill="#624364" opacity="1.000000" stroke="none" 
	d="
M69.106163,13.927532 
	C69.059189,13.732749 69.255600,13.462234 69.691681,13.120583 
	C69.737419,13.316899 69.543480,13.584349 69.106163,13.927532 
z"/>
<path fill="#CF1E87" opacity="1.000000" stroke="none" 
	d="
M57.663055,6.894073 
	C58.120415,7.159131 58.261639,7.287430 58.427681,7.700895 
	C58.345867,8.382182 58.239246,8.778303 58.216942,9.488191 
	C57.633266,9.083694 56.965267,8.365432 56.156433,7.370185 
	C56.459373,6.981238 56.903149,6.869277 57.663055,6.894073 
z"/>
<path fill="#A8DD21" opacity="1.000000" stroke="none" 
	d="
M32.040295,35.562809 
	C32.040295,35.562809 31.968925,35.501476 32.015915,35.824692 
	C32.056686,36.389374 32.050468,36.630844 32.044254,36.872311 
	C31.420444,37.674976 30.796637,38.477642 29.734852,39.565880 
	C28.918936,39.903736 28.540995,39.956020 27.821648,39.967957 
	C26.986879,40.540901 26.493519,41.154190 26.000156,41.767483 
	C22.664415,42.633698 22.319725,40.183392 21.740417,37.185596 
	C21.050158,33.038891 23.553808,32.081429 26.016329,31.283348 
	C26.807657,31.734634 27.450348,31.881304 28.325775,31.861931 
	C29.044744,31.132338 29.530975,30.568785 30.013613,30.329365 
	C30.272955,31.430248 30.535892,32.207005 30.868084,33.293404 
	C31.284363,34.077766 31.631388,34.552490 31.981224,35.162575 
	C31.984039,35.297935 32.040295,35.562809 32.040295,35.562809 
z"/>
<path fill="#137D53" opacity="1.000000" stroke="none" 
	d="
M25.867691,30.978729 
	C23.553808,32.081429 21.050158,33.038891 21.638351,36.818520 
	C21.213749,37.172653 20.857656,37.123428 20.215317,36.736450 
	C19.846048,36.211147 19.763027,36.023598 19.694324,35.422722 
	C19.794180,33.354042 19.879715,31.698683 19.965252,30.043324 
	C20.188736,30.022413 20.412222,30.001501 20.971149,29.936722 
	C22.628057,29.289635 23.949526,28.686419 25.678234,28.053635 
	C26.085472,28.024067 26.210732,28.131660 26.147106,28.476898 
	C26.105675,29.286711 26.127871,29.751287 26.087915,30.409702 
	C26.025763,30.603544 25.867691,30.978729 25.867691,30.978729 
z"/>
<path fill="#06806C" opacity="1.000000" stroke="none" 
	d="
M32.866837,50.111740 
	C32.429829,50.628433 32.125538,50.755493 31.143763,50.937286 
	C30.466280,50.992023 30.076065,50.854637 30.076065,50.854637 
	C29.955280,50.277012 29.834494,49.699387 29.221031,48.723400 
	C27.818413,47.071701 26.908468,45.818359 25.998524,44.565022 
	C26.533936,44.432144 27.069347,44.299263 27.886578,44.139622 
	C28.168396,44.112862 28.619774,44.215694 28.942245,44.446442 
	C29.463161,44.851757 29.686905,44.983311 29.979948,45.362175 
	C30.634077,46.029404 31.244202,46.406307 31.854326,46.783211 
	C32.236069,47.762844 32.617809,48.742474 32.866837,50.111740 
z"/>
<path fill="#82CA20" opacity="1.000000" stroke="none" 
	d="
M25.648312,44.522549 
	C26.908468,45.818359 27.818413,47.071701 28.949081,48.592911 
	C28.481085,49.181091 27.792360,49.501400 26.611609,49.639996 
	C25.372416,49.284416 24.625248,49.110554 23.878080,48.936691 
	C23.888409,48.411591 23.898735,47.886490 23.936224,46.851170 
	C23.938017,46.150196 23.912645,45.959438 23.887276,45.768684 
	C24.357550,45.339146 24.827824,44.909611 25.648312,44.522549 
z"/>
<path fill="#008079" opacity="1.000000" stroke="none" 
	d="
M26.332043,41.833157 
	C26.493519,41.154190 26.986879,40.540901 27.765472,40.305218 
	C28.025852,41.136894 28.000999,41.590958 27.976149,42.045025 
	C27.976149,42.045025 27.978329,42.008228 27.996094,42.011955 
	C27.563883,41.976730 27.113905,41.937778 26.332043,41.833157 
z"/>
<path fill="#D7FF20" opacity="1.000000" stroke="none" 
	d="
M16.348145,37.083557 
	C15.948730,36.858444 15.932721,36.685005 15.952906,36.252769 
	C16.422892,35.988911 16.856684,35.983837 17.870735,35.984711 
	C18.620872,35.998180 18.790752,36.005711 18.997196,36.264603 
	C19.036949,36.685276 19.040138,36.854588 19.043327,37.023899 
	C18.272734,37.061008 17.502142,37.098122 16.348145,37.083557 
z"/>
<path fill="#7EC72F" opacity="1.000000" stroke="none" 
	d="
M23.611572,45.888363 
	C23.912645,45.959438 23.938017,46.150196 23.986481,46.627666 
	C23.577715,46.945133 23.145855,46.975887 22.389526,47.020287 
	C22.488663,46.691967 22.912266,46.350006 23.611572,45.888363 
z"/>
<path fill="#79C343" opacity="1.000000" stroke="none" 
	d="
M19.274582,37.067219 
	C19.040138,36.854588 19.036949,36.685276 19.177191,36.220509 
	C19.320620,35.925049 19.680004,35.836044 19.680004,35.836044 
	C19.763027,36.023598 19.846048,36.211147 19.947672,36.706108 
	C19.966276,37.013523 19.505835,37.110538 19.274582,37.067219 
z"/>
<path fill="#7DC540" opacity="1.000000" stroke="none" 
	d="
M19.030624,51.405231 
	C18.961899,51.654045 18.728668,51.696278 18.145027,51.801342 
	C17.794619,51.864170 17.769415,51.434391 17.802208,51.222233 
	C18.178707,51.072933 18.522411,51.135792 19.030624,51.405231 
z"/>
<path fill="#7DC540" opacity="1.000000" stroke="none" 
	d="
M19.703121,52.841118 
	C19.386206,52.853046 19.259008,52.590153 19.290409,52.053799 
	C19.637947,52.010265 19.785891,52.272251 19.703121,52.841118 
z"/>
<path fill="#A8DD17" opacity="1.000000" stroke="none" 
	d="
M17.750389,56.107609 
	C17.983168,56.422104 17.987705,56.891361 17.975494,57.712997 
	C17.813210,57.464375 17.667679,56.863373 17.750389,56.107609 
z"/>
<path fill="#7DC540" opacity="1.000000" stroke="none" 
	d="
M19.459362,55.225327 
	C19.742329,56.371662 19.828230,57.793022 19.808506,59.631783 
	C19.556021,58.532902 19.409159,57.016628 19.459362,55.225327 
z"/>
<path fill="#0B0112" opacity="1.000000" stroke="none" 
	d="
M45.805382,53.313095 
	C46.055920,52.667751 46.276505,52.338161 47.192886,51.960754 
	C49.589718,51.967903 51.290752,52.022869 52.991787,52.077831 
	C53.220615,53.159626 53.449444,54.241417 53.889946,56.323914 
	C50.591873,56.323914 47.674526,56.323914 44.401028,56.170563 
	C44.621723,55.221092 45.198578,54.424973 45.805382,53.313095 
z"/>
<path fill="#060915" opacity="1.000000" stroke="none" 
	d="
M28.345079,42.005264 
	C28.000999,41.590958 28.025852,41.136894 28.106880,40.345566 
	C28.540995,39.956020 28.918936,39.903736 29.584726,39.840240 
	C29.486389,40.541187 29.100201,41.253342 28.345079,42.005264 
z"/>
<path fill="#0D131E" opacity="1.000000" stroke="none" 
	d="
M31.922909,46.470131 
	C31.244202,46.406307 30.634077,46.029404 30.295465,45.330620 
	C30.987068,44.970211 31.407156,44.931679 31.827244,44.893147 
	C31.881992,45.314449 31.936741,45.735752 31.922909,46.470131 
z"/>
<path fill="#272D2C" opacity="1.000000" stroke="none" 
	d="
M31.717125,44.590012 
	C31.407156,44.931679 30.987068,44.970211 30.251463,45.040298 
	C29.686905,44.983311 29.463161,44.851757 29.164562,44.510895 
	C29.911942,44.325359 30.759474,44.306118 31.717125,44.590012 
z"/>
<path fill="#00B166" opacity="1.000000" stroke="none" 
	d="
M32.311924,36.801830 
	C32.050468,36.630844 32.056686,36.389374 32.042713,35.786018 
	C32.303333,35.401302 32.584141,35.378468 33.136646,35.679298 
	C33.132092,36.245762 32.855843,36.488556 32.311924,36.801830 
z"/>
<path fill="#FFFFFE" opacity="1.000000" stroke="none" 
	d="
M23.869682,49.298447 
	C24.625248,49.110554 25.372416,49.284416 26.244652,49.733864 
	C26.369722,50.009445 26.426538,50.299664 26.528526,50.438519 
	C26.630512,50.577374 26.623360,50.626541 26.404545,50.659901 
	C26.185728,50.693260 25.927425,51.059620 25.617920,51.068634 
	C24.896753,51.079670 24.485092,51.081692 24.073429,51.083714 
	C24.002714,50.609207 23.931999,50.134705 23.869682,49.298447 
z"/>
<path fill="#82BC44" opacity="1.000000" stroke="none" 
	d="
M28.861748,53.696968 
	C28.232357,53.956417 27.647318,53.822224 27.028172,53.334446 
	C26.860991,52.588715 26.727917,52.196560 26.685059,51.511833 
	C26.724638,51.021687 26.674000,50.824116 26.623360,50.626541 
	C26.623360,50.626541 26.630512,50.577374 26.622166,50.552948 
	C27.377913,51.453461 28.142006,52.378391 28.861748,53.696968 
z"/>
<path fill="#93CF30" opacity="1.000000" stroke="none" 
	d="
M30.106419,51.089119 
	C30.076065,50.854637 30.466280,50.992023 30.663471,51.055511 
	C30.860662,51.119003 30.864967,51.578064 30.806675,51.800224 
	C30.457947,51.865227 30.254076,51.632298 30.106419,51.089119 
z"/>
<path fill="#E2E0E3" opacity="1.000000" stroke="none" 
	d="
M54.036499,63.701019 
	C51.538433,65.204231 48.928429,66.409164 46.147961,67.298500 
	C45.811176,65.657555 45.738110,64.311775 45.453514,63.012325 
	C45.140182,61.581635 44.632435,60.193531 44.011906,58.130249 
	C46.443089,58.248829 48.025433,58.326008 49.817001,59.074306 
	C50.674946,60.526196 51.323662,61.306965 51.972382,62.087730 
	C52.623108,62.526062 53.273834,62.964397 54.036499,63.701019 
z"/>
<path fill="#FC055C" opacity="1.000000" stroke="none" 
	d="
M64.881035,56.798458 
	C63.909588,57.584103 62.918739,58.005260 61.723499,58.692429 
	C60.041645,57.522324 58.564178,56.086212 57.146271,54.287994 
	C57.983746,53.483322 59.080669,52.469673 59.485165,52.695625 
	C61.381645,53.754978 63.087620,55.155376 64.881035,56.798458 
z"/>
<path fill="#FC055C" opacity="1.000000" stroke="none" 
	d="
M53.353020,51.997440 
	C51.290752,52.022869 49.589718,51.967903 47.470074,51.838997 
	C49.803413,51.596786 52.555359,51.428524 55.612961,51.485046 
	C55.183830,51.778904 54.449039,51.847977 53.353020,51.997440 
z"/>
<path fill="#0B0112" opacity="1.000000" stroke="none" 
	d="
M51.979855,61.732552 
	C51.323662,61.306965 50.674946,60.526196 50.067924,59.370644 
	C50.735527,59.789696 51.361427,60.583530 51.979855,61.732552 
z"/>
<path fill="#0B0112" opacity="1.000000" stroke="none" 
	d="
M59.974861,61.606499 
	C59.991753,61.855396 59.510876,61.975609 59.272865,62.044731 
	C59.141476,61.647663 59.248100,61.181473 59.354721,60.715279 
	C59.555805,60.929390 59.756889,61.143497 59.974861,61.606499 
z"/>
<path fill="#73D112" opacity="1.000000" stroke="none" 
	d="
M26.594843,51.804409 
	C26.727917,52.196560 26.860991,52.588715 26.786209,53.152184 
	C25.942430,53.276787 25.306505,53.230068 24.350592,53.235695 
	C24.060524,53.070156 24.090446,52.852268 24.483727,52.309605 
	C25.257561,51.981777 25.668034,51.978729 26.208187,51.934654 
	C26.337864,51.893627 26.594843,51.804409 26.594843,51.804409 
z"/>
<path fill="#82BC44" opacity="1.000000" stroke="none" 
	d="
M26.078508,51.975681 
	C25.668034,51.978729 25.257561,51.981777 24.543865,51.985229 
	C24.240646,51.985634 24.108343,51.542850 24.090887,51.313282 
	C24.485092,51.081692 24.896753,51.079670 25.649652,51.298355 
	C25.990891,51.519058 26.078508,51.975681 26.078508,51.975681 
z"/>
<path fill="#1C091A" opacity="1.000000" stroke="none" 
	d="
M45.665848,17.055416 
	C44.128235,21.232931 49.466076,19.093393 49.515717,21.596052 
	C47.720097,21.852785 46.288071,21.852785 44.452023,21.852785 
	C45.018883,25.526016 45.517239,28.755379 46.015598,31.984741 
	C46.015598,31.984741 46.007179,32.003876 45.670563,32.021614 
	C44.555843,31.403002 43.777737,30.766651 42.999630,30.130301 
	C42.344208,28.335712 41.688786,26.541124 41.030777,24.053946 
	C41.073471,22.927980 41.118748,22.494606 41.164024,22.061234 
	C42.558369,20.422485 43.952709,18.783737 45.665848,17.055416 
z"/>
<path fill="#00B166" opacity="1.000000" stroke="none" 
	d="
M32.869473,27.044788 
	C32.869473,27.044788 33.010601,27.477819 33.084175,27.692522 
	C33.069603,30.339048 32.981457,32.770870 32.466805,35.382751 
	C32.040295,35.562809 31.984039,35.297935 31.988663,34.734138 
	C32.285347,31.795156 32.577408,29.419973 32.869473,27.044788 
z"/>
<path fill="#FC055C" opacity="1.000000" stroke="none" 
	d="
M40.797493,22.047337 
	C41.118748,22.494606 41.073471,22.927980 40.956036,23.680504 
	C40.163292,23.999275 39.442703,23.998894 38.361847,23.997200 
	C38.811371,23.341738 39.621166,22.687588 40.797493,22.047337 
z"/>
<path fill="#F424A8" opacity="1.000000" stroke="none" 
	d="
M42.330421,6.891529 
	C46.370625,6.714940 50.885834,6.574677 55.700539,6.723107 
	C51.601833,6.983819 47.203632,6.955837 42.330421,6.891529 
z"/>
<path fill="#029555" opacity="1.000000" stroke="none" 
	d="
M32.718723,26.688972 
	C32.577408,29.419973 32.285347,31.795156 31.985847,34.598778 
	C31.631388,34.552490 31.284363,34.077766 30.938931,32.918556 
	C30.890913,31.475822 30.841303,30.717581 30.821861,29.641737 
	C30.231997,28.945332 29.611965,28.566530 28.649570,28.108093 
	C27.608383,28.062857 26.909557,28.097260 26.210732,28.131660 
	C26.210732,28.131660 26.085472,28.024067 26.014374,27.981850 
	C25.943275,27.939634 26.014984,27.461248 25.990017,27.220497 
	C28.166023,26.764215 30.366999,26.548685 32.718723,26.688972 
z"/>
<path fill="#BBE81C" opacity="1.000000" stroke="none" 
	d="
M19.694324,35.422722 
	C19.680004,35.836044 19.320620,35.925049 19.140625,35.969143 
	C18.790752,36.005711 18.620872,35.998180 18.195927,35.972313 
	C17.956694,32.291142 17.972525,28.628309 18.233488,24.460520 
	C18.478621,23.955561 18.937868,24.088873 18.997337,24.280453 
	C19.145042,24.737194 19.307791,24.943602 19.545050,25.091253 
	C19.635170,26.468348 19.725290,27.845440 19.890331,29.632929 
	C19.879715,31.698683 19.794180,33.354042 19.694324,35.422722 
z"/>
<path fill="#159455" opacity="1.000000" stroke="none" 
	d="
M18.937868,24.088873 
	C18.937868,24.088873 18.478621,23.955561 18.244331,24.003464 
	C17.321400,23.651360 16.632759,23.251350 15.944098,22.520737 
	C15.946856,21.993412 15.949636,21.796692 16.341339,21.298677 
	C17.472525,20.996634 18.214783,20.995888 18.957043,20.995140 
	C19.274454,21.802336 19.591864,22.609533 19.647364,23.740067 
	C19.385454,24.063406 18.937868,24.088873 18.937868,24.088873 
z"/>
<path fill="#249A53" opacity="1.000000" stroke="none" 
	d="
M18.974083,20.762234 
	C18.214783,20.995888 17.472525,20.996634 16.358248,21.004055 
	C16.766495,20.677757 17.546757,20.344788 18.668232,20.037222 
	C19.009445,20.062626 18.991125,20.529325 18.974083,20.762234 
z"/>
<path fill="#79C343" opacity="1.000000" stroke="none" 
	d="
M18.997337,24.280453 
	C18.937868,24.088873 19.385454,24.063406 19.607260,24.088007 
	C19.815414,24.285400 19.801765,24.458191 19.666582,24.861118 
	C19.307791,24.943602 19.145042,24.737194 18.997337,24.280453 
z"/>
<path fill="#17021A" opacity="1.000000" stroke="none" 
	d="
M64.896278,45.969666 
	C64.944412,46.141708 64.992538,46.313751 65.059082,46.988739 
	C65.060822,47.661007 65.044159,47.830326 65.027496,47.999649 
	C64.246552,48.065712 63.465611,48.131771 61.884560,48.192375 
	C59.401520,48.070660 57.718590,47.954403 56.035660,47.838150 
	C56.035660,44.687168 56.035660,41.536190 56.035660,37.504292 
	C59.185295,37.769028 62.028831,38.008030 64.933739,38.837067 
	C64.995110,39.427101 64.892433,39.903877 64.650070,39.905746 
	C64.407715,39.907616 63.946125,40.055630 63.691746,39.977718 
	C63.265022,39.941692 63.092674,39.983578 62.562096,40.168484 
	C62.496723,42.159859 62.789589,44.008209 63.327061,45.913193 
	C63.731464,45.919983 63.891254,45.870140 64.257431,45.885487 
	C64.463821,45.950676 64.896278,45.969666 64.896278,45.969666 
z"/>
<path fill="#FC055C" opacity="1.000000" stroke="none" 
	d="
M42.999130,30.521423 
	C43.777737,30.766651 44.555843,31.403002 45.662277,32.027985 
	C46.146343,32.617966 46.302078,33.219315 46.728737,33.993809 
	C46.910450,35.618805 46.821239,37.070656 46.727455,38.596970 
	C42.616032,37.451866 42.616032,37.451866 42.999130,30.521423 
z"/>
<path fill="#FC055C" opacity="1.000000" stroke="none" 
	d="
M53.527901,37.079197 
	C53.011562,38.505249 52.242935,39.694313 51.474308,40.883377 
	C50.699730,40.005219 49.925148,39.127060 49.150570,38.248901 
	C50.525581,37.780003 51.900597,37.311108 53.527901,37.079197 
z"/>
<path fill="#FC055C" opacity="1.000000" stroke="none" 
	d="
M51.859722,47.653534 
	C50.972172,46.378017 50.412338,45.106415 49.852505,43.834816 
	C51.026306,43.868492 52.200108,43.902168 53.373909,43.935844 
	C52.978420,45.176380 52.582932,46.416920 51.859722,47.653534 
z"/>
<path fill="#FC055C" opacity="1.000000" stroke="none" 
	d="
M70.209610,48.926422 
	C71.273941,48.737083 72.415558,48.849678 73.557175,48.962273 
	C73.422829,49.552547 73.288483,50.142818 73.154144,50.733089 
	C72.198387,50.231510 71.242638,49.729931 70.209610,48.926422 
z"/>
<path fill="#FC055C" opacity="1.000000" stroke="none" 
	d="
M56.168213,33.018265 
	C57.101025,32.182796 58.387054,31.374561 59.863068,30.289059 
	C60.755344,33.404064 60.147388,33.926308 56.168213,33.018265 
z"/>
<path fill="#FC055C" opacity="1.000000" stroke="none" 
	d="
M45.285072,45.199409 
	C45.817532,46.000423 46.011105,46.840649 46.204678,47.680878 
	C45.444157,47.651901 44.683636,47.622925 43.923115,47.593948 
	C44.264141,46.808838 44.605164,46.023727 45.285072,45.199409 
z"/>
<path fill="#FC055C" opacity="1.000000" stroke="none" 
	d="
M56.233154,48.141720 
	C57.718590,47.954403 59.401520,48.070660 61.498566,48.266357 
	C60.085339,48.378963 58.257996,48.412125 56.233154,48.141720 
z"/>
<path fill="#FFD8A4" opacity="1.000000" stroke="none" 
	d="
M64.938957,45.557289 
	C64.896278,45.969666 64.463821,45.950676 64.240753,45.474464 
	C63.993835,43.350716 63.969982,41.703171 63.946125,40.055630 
	C63.946125,40.055630 64.407715,39.907616 64.712463,40.183151 
	C65.067635,40.641346 65.118065,40.824005 65.168503,41.006668 
	C65.106216,42.386082 65.043922,43.765499 64.938957,45.557289 
z"/>
<path fill="#FC055C" opacity="1.000000" stroke="none" 
	d="
M65.497589,40.998417 
	C65.118065,40.824005 65.067635,40.641346 64.954819,40.181282 
	C64.892433,39.903877 64.995110,39.427101 65.106567,39.210167 
	C65.997566,39.304466 66.777092,39.615707 67.556625,39.926949 
	C66.979980,40.281353 66.403336,40.635761 65.497589,40.998417 
z"/>
<path fill="#FC055C" opacity="1.000000" stroke="none" 
	d="
M40.463379,42.604851 
	C40.346233,43.058289 40.057961,43.333645 39.769688,43.608997 
	C39.655830,43.489525 39.436424,43.272148 39.443340,43.264694 
	C39.713463,42.973465 40.004208,42.701366 40.463379,42.604851 
z"/>
<path fill="#FC055C" opacity="1.000000" stroke="none" 
	d="
M37.067917,42.491982 
	C37.439331,42.751472 37.769058,43.273945 38.098785,43.796421 
	C37.866180,43.886497 37.633579,43.976574 37.400974,44.066650 
	C37.276058,43.629421 37.151142,43.192196 37.067917,42.491982 
z"/>
<path fill="#FC055C" opacity="1.000000" stroke="none" 
	d="
M39.989105,35.991596 
	C39.989105,35.036671 39.989105,34.081749 39.989105,33.126823 
	C40.255669,33.143265 40.522228,33.159706 40.788792,33.176147 
	C40.697693,33.986187 40.606594,34.796223 40.257736,35.803158 
	C39.999981,36.000053 39.989105,35.991596 39.989105,35.991596 
z"/>
<path fill="#FC055C" opacity="1.000000" stroke="none" 
	d="
M65.269363,47.987724 
	C65.044159,47.830326 65.060822,47.661007 65.139908,47.244232 
	C65.580154,47.197441 65.957985,47.398109 66.335815,47.598778 
	C66.060951,47.724457 65.786087,47.850128 65.269363,47.987724 
z"/>
<path fill="#FC055C" opacity="1.000000" stroke="none" 
	d="
M40.004250,36.005486 
	C39.910835,36.042900 39.813160,36.074883 39.852295,36.049232 
	C39.989105,35.991596 39.999981,36.000053 40.004250,36.005486 
z"/>
<path fill="#EFEEEF" opacity="1.000000" stroke="none" 
	d="
M46.401772,31.962944 
	C45.517239,28.755379 45.018883,25.526016 44.452023,21.852785 
	C46.288071,21.852785 47.720097,21.852785 49.567524,21.947676 
	C50.832146,24.581440 51.681366,27.120314 52.365578,29.165857 
	C50.520451,30.083946 48.654198,31.012545 46.401772,31.962944 
z"/>
<path fill="#B3DD34" opacity="1.000000" stroke="none" 
	d="
M28.991936,28.187729 
	C29.611965,28.566530 30.231997,28.945332 30.628300,29.652573 
	C30.404573,29.981010 30.017206,30.005234 30.017206,30.005234 
	C29.530975,30.568785 29.044744,31.132338 28.323057,31.540123 
	C27.709120,30.929319 27.330639,30.474281 27.102489,29.782520 
	C27.832525,29.093109 28.412230,28.640421 28.991936,28.187729 
z"/>
<path fill="#F1F8DE" opacity="1.000000" stroke="none" 
	d="
M26.952158,30.019243 
	C27.330639,30.474281 27.709120,30.929319 28.090319,31.706165 
	C27.450348,31.881304 26.807657,31.734634 26.016329,31.283348 
	C25.867691,30.978729 26.025763,30.603544 26.293694,30.381767 
	C26.561626,30.159988 26.952158,30.019243 26.952158,30.019243 
z"/>
<path fill="#93D031" opacity="1.000000" stroke="none" 
	d="
M30.013613,30.329365 
	C30.017206,30.005234 30.404573,29.981010 30.598133,29.970177 
	C30.841303,30.717581 30.890913,31.475822 30.869675,32.608910 
	C30.535892,32.207005 30.272955,31.430248 30.013613,30.329365 
z"/>
<path fill="#93D031" opacity="1.000000" stroke="none" 
	d="
M27.102489,29.782520 
	C26.952158,30.019243 26.561626,30.159988 26.355846,30.187925 
	C26.127871,29.751287 26.105675,29.286711 26.147106,28.476898 
	C26.909557,28.097260 27.608383,28.062857 28.649572,28.108093 
	C28.412230,28.640421 27.832525,29.093109 27.102489,29.782520 
z"/>
<path fill="#B3E019" opacity="1.000000" stroke="none" 
	d="
M26.208187,51.934654 
	C26.078508,51.975681 25.990891,51.519058 25.959158,51.289337 
	C25.927425,51.059620 26.185728,50.693260 26.404545,50.659901 
	C26.674000,50.824116 26.724638,51.021687 26.685059,51.511833 
	C26.594843,51.804409 26.337864,51.893627 26.208187,51.934654 
z"/>
<path fill="#FF8D83" opacity="1.000000" stroke="none" 
	d="
M63.691746,39.977718 
	C63.969982,41.703171 63.993835,43.350716 64.034370,45.409279 
	C63.891254,45.870140 63.731464,45.919983 63.299934,45.497677 
	C62.992241,43.358841 62.956287,41.692150 62.920334,40.025463 
	C63.092674,39.983578 63.265022,39.941692 63.691746,39.977718 
z"/>
<path fill="#FF1B73" opacity="1.000000" stroke="none" 
	d="
M62.562096,40.168484 
	C62.956287,41.692150 62.992241,43.358841 63.055321,45.441048 
	C62.789589,44.008209 62.496723,42.159859 62.562096,40.168484 
z"/>
</svg>