<?xml version="1.0" encoding="UTF-8"?>
<!DOCTYPE svg PUBLIC "-//W3C//DTD SVG 1.1//EN" "http://www.w3.org/Graphics/SVG/1.1/DTD/svg11.dtd">
<svg xmlns="http://www.w3.org/2000/svg" version="1.1" width="92px" height="83px" style="shape-rendering:geometricPrecision; text-rendering:geometricPrecision; image-rendering:optimizeQuality; fill-rule:evenodd; clip-rule:evenodd" xmlns:xlink="http://www.w3.org/1999/xlink">
<g><path style="opacity:0.243" fill="#242129" d="M 38.5,-0.5 C 44.1667,-0.5 49.8333,-0.5 55.5,-0.5C 68.1085,10.4405 80.1085,22.1071 91.5,34.5C 91.5,39.1667 91.5,43.8333 91.5,48.5C 91.1667,48.5 90.8333,48.5 90.5,48.5C 89.6745,44.0181 89.1745,39.3514 89,34.5C 88.8261,39.6835 88.3261,44.6835 87.5,49.5C 87.5,45.8333 87.5,42.1667 87.5,38.5C 87.876,35.0771 86.5426,32.7438 83.5,31.5C 82.5,27.8333 80.1667,25.5 76.5,24.5C 75.8333,22.5 74.5,21.1667 72.5,20.5C 72.1667,17.5 70.5,15.8333 67.5,15.5C 67.1667,12.5 65.5,10.8333 62.5,10.5C 61.8166,8.82351 60.4832,8.15684 58.5,8.5C 57.8333,6.5 57.1667,4.5 56.5,2.5C 50.5,2.5 44.5,2.5 38.5,2.5C 38.5,3.5 38.5,4.5 38.5,5.5C 37.1667,5.5 35.8333,5.5 34.5,5.5C 34.719,6.67504 34.3857,7.67504 33.5,8.5C 31.5,9.83333 29.5,11.1667 27.5,12.5C 26.6143,13.325 26.281,14.325 26.5,15.5C 23.5299,15.7458 22.1966,17.4124 22.5,20.5C 22.1568,22.4832 22.8235,23.8166 24.5,24.5C 24.5,25.1667 24.5,25.8333 24.5,26.5C 23.1667,26.5 22.5,27.1667 22.5,28.5C 20.78,26.3419 19.9467,23.6752 20,20.5C 19.3021,19.3094 18.4687,18.3094 17.5,17.5C 16.8478,16.2749 15.6811,15.6083 14,15.5C 12.3189,15.6083 11.1522,16.2749 10.5,17.5C 10.5,17.8333 10.5,18.1667 10.5,18.5C 9.9031,23.294 10.5698,27.6273 12.5,31.5C 12.2178,32.7777 11.5511,33.7777 10.5,34.5C 9.84851,33.9094 9.18185,33.2427 8.5,32.5C 7.50331,25.8665 7.16998,19.1998 7.5,12.5C 11.1817,12.3347 14.8484,12.5014 18.5,13C 19.3333,13.8333 20.1667,14.6667 21,15.5C 26.8119,10.0334 32.6452,4.70005 38.5,-0.5 Z"/></g>
<g><path style="opacity:1" fill="#007d80" d="M 17.5,17.5 C 15.1667,17.5 12.8333,17.5 10.5,17.5C 11.1522,16.2749 12.3189,15.6083 14,15.5C 15.6811,15.6083 16.8478,16.2749 17.5,17.5 Z"/></g>
<g><path style="opacity:1" fill="#df4caa" d="M 62.5,10.5 C 65.5,10.8333 67.1667,12.5 67.5,15.5C 66.8333,15.5 66.1667,15.5 65.5,15.5C 64.5,15.5 63.5,15.5 62.5,15.5C 62.5,13.8333 62.5,12.1667 62.5,10.5 Z"/></g>
<g><path style="opacity:1" fill="#ffa2bb" d="M 62.5,10.5 C 62.5,12.1667 62.5,13.8333 62.5,15.5C 63.5,15.5 64.5,15.5 65.5,15.5C 65.1921,19.5726 64.5254,23.5726 63.5,27.5C 62.209,27.7373 61.209,27.404 60.5,26.5C 60.3862,24.2821 59.7196,22.2821 58.5,20.5C 58.5,18.8333 58.5,17.1667 58.5,15.5C 58.5,13.8333 58.5,12.1667 58.5,10.5C 59.8333,10.5 61.1667,10.5 62.5,10.5 Z"/></g>
<g><path style="opacity:1" fill="#f01651" d="M 58.5,8.5 C 60.4832,8.15684 61.8166,8.82351 62.5,10.5C 61.1667,10.5 59.8333,10.5 58.5,10.5C 58.5,12.1667 58.5,13.8333 58.5,15.5C 57.8333,15.5 57.1667,15.5 56.5,15.5C 54.9522,14.2057 52.9522,13.5391 50.5,13.5C 43.9819,13.6843 40.3153,17.0177 39.5,23.5C 38.7321,22.7375 38.2321,21.7375 38,20.5C 36.8732,23.3771 36.2065,26.3771 36,29.5C 35.6667,25.8333 35.3333,22.1667 35,18.5C 34.6847,20.5856 34.1847,22.5856 33.5,24.5C 33.1667,24.5 32.8333,24.5 32.5,24.5C 33.2186,22.2362 33.552,19.9029 33.5,17.5C 32.1667,17.5 30.8333,17.5 29.5,17.5C 29.5,18.5 29.5,19.5 29.5,20.5C 27.8212,20.2852 26.8212,20.9519 26.5,22.5C 25.1667,22.5 24.5,23.1667 24.5,24.5C 22.8235,23.8166 22.1568,22.4832 22.5,20.5C 24.3873,19.3437 25.7206,17.677 26.5,15.5C 28.7134,14.3605 30.88,13.0272 33,11.5C 33.772,11.6448 34.4387,11.9781 35,12.5C 35.49,11.2068 35.6567,9.87344 35.5,8.5C 36.8333,8.5 38.1667,8.5 39.5,8.5C 39.5,7.5 39.5,6.5 39.5,5.5C 44.5111,5.33407 49.5111,5.50074 54.5,6C 55.3079,7.70576 56.6412,8.53909 58.5,8.5 Z"/></g>
<g><path style="opacity:1" fill="#ffab4a" d="M 49.5,8.5 C 51.337,8.63945 51.6704,9.30612 50.5,10.5C 49.7025,10.0431 49.3691,9.37644 49.5,8.5 Z"/></g>
<g><path style="opacity:1" fill="#ffae42" d="M 39.5,8.5 C 41.337,8.63945 41.6704,9.30612 40.5,10.5C 39.7025,10.0431 39.3691,9.37644 39.5,8.5 Z"/></g>
<g><path style="opacity:1" fill="#da47ab" d="M 58.5,8.5 C 56.6412,8.53909 55.3079,7.70576 54.5,6C 49.5111,5.50074 44.5111,5.33407 39.5,5.5C 39.5,6.5 39.5,7.5 39.5,8.5C 38.1667,8.5 36.8333,8.5 35.5,8.5C 35.6567,9.87344 35.49,11.2068 35,12.5C 34.4387,11.9781 33.772,11.6448 33,11.5C 30.88,13.0272 28.7134,14.3605 26.5,15.5C 26.281,14.325 26.6143,13.325 27.5,12.5C 29.5,11.1667 31.5,9.83333 33.5,8.5C 34.3857,7.67504 34.719,6.67504 34.5,5.5C 35.8333,5.5 37.1667,5.5 38.5,5.5C 38.5,4.5 38.5,3.5 38.5,2.5C 44.5,2.5 50.5,2.5 56.5,2.5C 57.1667,4.5 57.8333,6.5 58.5,8.5 Z"/></g>
<g><path style="opacity:1" fill="#cb4baa" d="M 26.5,15.5 C 25.7206,17.677 24.3873,19.3437 22.5,20.5C 22.1966,17.4124 23.5299,15.7458 26.5,15.5 Z"/></g>
<g><path style="opacity:1" fill="#b8d8e0" d="M 56.5,15.5 C 57.1667,15.5 57.8333,15.5 58.5,15.5C 58.5,17.1667 58.5,18.8333 58.5,20.5C 56.1667,20.5 53.8333,20.5 51.5,20.5C 51.8333,17.5 53.5,15.8333 56.5,15.5 Z"/></g>
<g><path style="opacity:1" fill="#e54aa4" d="M 67.5,15.5 C 70.5,15.8333 72.1667,17.5 72.5,20.5C 69.5,20.1667 67.8333,18.5 67.5,15.5 Z"/></g>
<g><path style="opacity:1" fill="#280d1f" d="M 32.5,24.5 C 30.5,23.8333 28.5,23.1667 26.5,22.5C 26.8212,20.9519 27.8212,20.2852 29.5,20.5C 29.5,19.5 29.5,18.5 29.5,17.5C 30.8333,17.5 32.1667,17.5 33.5,17.5C 33.552,19.9029 33.2186,22.2362 32.5,24.5 Z"/></g>
<g><path style="opacity:1" fill="#fd67e7" d="M 72.5,20.5 C 74.5,21.1667 75.8333,22.5 76.5,24.5C 75.1667,24.5 73.8333,24.5 72.5,24.5C 72.5,23.1667 72.5,21.8333 72.5,20.5 Z"/></g>
<g><path style="opacity:1" fill="#1e0e1e" d="M 56.5,15.5 C 53.5,15.8333 51.8333,17.5 51.5,20.5C 53.8333,20.5 56.1667,20.5 58.5,20.5C 59.7196,22.2821 60.3862,24.2821 60.5,26.5C 59.1667,26.5 58.5,27.1667 58.5,28.5C 57.1667,28.5 56.5,29.1667 56.5,30.5C 54.8212,30.2852 53.8212,30.9519 53.5,32.5C 49.9878,33.0545 46.9878,32.3878 44.5,30.5C 41.3079,29.301 39.6412,26.9677 39.5,23.5C 40.3153,17.0177 43.9819,13.6843 50.5,13.5C 52.9522,13.5391 54.9522,14.2057 56.5,15.5 Z"/></g>
<g><path style="opacity:1" fill="#ebeaec" d="M 44.5,30.5 C 43.8333,27.1667 43.1667,23.8333 42.5,20.5C 44.5,20.5 46.5,20.5 48.5,20.5C 49.1667,23.1667 49.8333,25.8333 50.5,28.5C 48.2821,28.6138 46.2821,29.2804 44.5,30.5 Z"/></g>
<g><path style="opacity:1" fill="#188158" d="M 26.5,22.5 C 28.5,23.1667 30.5,23.8333 32.5,24.5C 32.8132,28.4126 32.1466,32.0793 30.5,35.5C 29.8333,35.5 29.1667,35.5 28.5,35.5C 29.299,32.5701 29.6323,29.5701 29.5,26.5C 27.8333,26.5 26.1667,26.5 24.5,26.5C 24.5,25.8333 24.5,25.1667 24.5,24.5C 24.5,23.1667 25.1667,22.5 26.5,22.5 Z"/></g>
<g><path style="opacity:1" fill="#e6e3e6" d="M 52.5,25.5 C 53.7759,26.3864 53.7759,27.3864 52.5,28.5C 51.4376,27.5754 51.4376,26.5754 52.5,25.5 Z"/></g>
<g><path style="opacity:1" fill="#1d0a17" d="M 32.5,24.5 C 32.8333,24.5 33.1667,24.5 33.5,24.5C 34.6378,27.3035 34.8045,30.3035 34,33.5C 33.2904,34.9733 32.1238,35.6399 30.5,35.5C 32.1466,32.0793 32.8132,28.4126 32.5,24.5 Z"/></g>
<g><path style="opacity:1" fill="#e64cb6" d="M 76.5,24.5 C 80.1667,25.5 82.5,27.8333 83.5,31.5C 81.8333,31.5 80.1667,31.5 78.5,31.5C 78.5321,28.9242 77.8654,26.5909 76.5,24.5 Z"/></g>
<g><path style="opacity:1" fill="#a9dc32" d="M 10.5,18.5 C 12.7097,20.701 15.3764,22.0343 18.5,22.5C 18.5,26.8333 18.5,31.1667 18.5,35.5C 17.1667,35.5 15.8333,35.5 14.5,35.5C 14.8432,33.5168 14.1765,32.1834 12.5,31.5C 10.5698,27.6273 9.9031,23.294 10.5,18.5 Z"/></g>
<g><path style="opacity:1" fill="#1d855c" d="M 10.5,18.5 C 10.5,18.1667 10.5,17.8333 10.5,17.5C 12.8333,17.5 15.1667,17.5 17.5,17.5C 18.4687,18.3094 19.3021,19.3094 20,20.5C 19.9467,23.6752 20.78,26.3419 22.5,28.5C 21.551,30.7373 20.8844,33.0706 20.5,35.5C 19.8333,35.5 19.1667,35.5 18.5,35.5C 18.5,31.1667 18.5,26.8333 18.5,22.5C 15.3764,22.0343 12.7097,20.701 10.5,18.5 Z"/></g>
<g><path style="opacity:1" fill="#f8d4dd" d="M 58.5,28.5 C 58.5,29.8333 57.8333,30.5 56.5,30.5C 56.5,29.1667 57.1667,28.5 58.5,28.5 Z"/></g>
<g><path style="opacity:1" fill="#fef2c2" d="M 66.5,31.5 C 66.5,31.8333 66.5,32.1667 66.5,32.5C 65.6136,33.7759 64.6136,33.7759 63.5,32.5C 64.325,31.6143 65.325,31.281 66.5,31.5 Z"/></g>
<g><path style="opacity:1" fill="#788781" d="M 12.5,31.5 C 14.1765,32.1834 14.8432,33.5168 14.5,35.5C 15.8333,35.5 17.1667,35.5 18.5,35.5C 16.1042,37.0233 13.4375,38.0233 10.5,38.5C 11.3543,36.965 11.3543,35.6316 10.5,34.5C 11.5511,33.7777 12.2178,32.7777 12.5,31.5 Z"/></g>
<g><path style="opacity:1" fill="#f60c5a" d="M 60.5,26.5 C 61.209,27.404 62.209,27.7373 63.5,27.5C 62.7375,28.2679 61.7375,28.7679 60.5,29C 62.7226,29.5662 64.7226,30.3995 66.5,31.5C 65.325,31.281 64.325,31.6143 63.5,32.5C 64.6136,33.7759 65.6136,33.7759 66.5,32.5C 67.7853,33.7853 69.1186,35.1186 70.5,36.5C 71.7946,35.9017 73.1279,35.4017 74.5,35C 73.944,34.6174 73.6107,34.1174 73.5,33.5C 74.1667,33.5 74.8333,33.5 75.5,33.5C 76.0482,36.0252 77.0482,38.3585 78.5,40.5C 77.3984,41.1757 76.3984,41.8423 75.5,42.5C 74.375,43.6522 74.375,44.6522 75.5,45.5C 78.2345,46.9844 79.7345,45.9844 80,42.5C 80.3095,43.7659 80.8095,44.9326 81.5,46C 80.8333,46.3333 80.1667,46.6667 79.5,47C 80.7112,47.8928 80.7112,48.7261 79.5,49.5C 78.5745,48.3595 77.7412,48.3595 77,49.5C 75.2136,52.0799 73.7136,54.7465 72.5,57.5C 68.927,57.977 68.0936,59.6436 70,62.5C 71.9983,60.5662 74.165,58.8995 76.5,57.5C 75.3161,60.3754 73.6494,63.0421 71.5,65.5C 70.4763,66.8532 69.143,67.5198 67.5,67.5C 67.1667,70.5 65.5,72.1667 62.5,72.5C 62.5,70.8333 62.5,69.1667 62.5,67.5C 63.5,67.5 64.5,67.5 65.5,67.5C 65.1921,63.4274 64.5254,59.4274 63.5,55.5C 62.209,55.2627 61.209,55.596 60.5,56.5C 59.8333,56.5 59.1667,56.5 58.5,56.5C 58.8432,54.5168 58.1765,53.1834 56.5,52.5C 52.9707,50.5772 48.9707,49.9106 44.5,50.5C 48.6998,49.7803 53.0331,49.1136 57.5,48.5C 58.3277,50.9186 59.9944,52.2519 62.5,52.5C 63.9317,52.2668 64.4317,51.6001 64,50.5C 59.3353,49.2609 59.502,48.4276 64.5,48C 60.9748,47.8213 57.6414,47.3213 54.5,46.5C 57.5,46.5 60.5,46.5 63.5,46.5C 67.5,43.1667 67.5,39.8333 63.5,36.5C 60.5,36.5 57.5,36.5 54.5,36.5C 53.7659,35.2921 53.4326,33.9587 53.5,32.5C 53.8212,30.9519 54.8212,30.2852 56.5,30.5C 57.8333,30.5 58.5,29.8333 58.5,28.5C 58.5,27.1667 59.1667,26.5 60.5,26.5 Z"/></g>
<g><path style="opacity:1" fill="#fb0d5c" d="M 39.5,23.5 C 39.6412,26.9677 41.3079,29.301 44.5,30.5C 46.9878,32.3878 49.9878,33.0545 53.5,32.5C 53.4326,33.9587 53.7659,35.2921 54.5,36.5C 54.5,39.8333 54.5,43.1667 54.5,46.5C 57.6414,47.3213 60.9748,47.8213 64.5,48C 59.502,48.4276 59.3353,49.2609 64,50.5C 64.4317,51.6001 63.9317,52.2668 62.5,52.5C 59.9944,52.2519 58.3277,50.9186 57.5,48.5C 53.0331,49.1136 48.6998,49.7803 44.5,50.5C 43.2412,52.6044 41.7412,54.6044 40,56.5C 39.2967,58.9291 39.4634,61.2625 40.5,63.5C 38.3718,62.0427 36.0384,61.0427 33.5,60.5C 32.596,59.791 32.2627,58.791 32.5,57.5C 33.7479,56.6661 34.4146,55.3328 34.5,53.5C 35.1083,50.019 33.7749,48.019 30.5,47.5C 30.5,45.8333 30.5,44.1667 30.5,42.5C 29.0222,42.762 27.6888,42.4287 26.5,41.5C 28.6904,39.9931 30.0238,37.9931 30.5,35.5C 32.1238,35.6399 33.2904,34.9733 34,33.5C 34.8045,30.3035 34.6378,27.3035 33.5,24.5C 34.1847,22.5856 34.6847,20.5856 35,18.5C 35.3333,22.1667 35.6667,25.8333 36,29.5C 36.2065,26.3771 36.8732,23.3771 38,20.5C 38.2321,21.7375 38.7321,22.7375 39.5,23.5 Z"/></g>
<g><path style="opacity:1" fill="#ffe7c8" d="M 42.5,33.5 C 43.675,33.281 44.675,33.6143 45.5,34.5C 43.9483,35.7979 42.9483,35.4646 42.5,33.5 Z"/></g>
<g><path style="opacity:1" fill="#ffedc5" d="M 37.5,31.5 C 38.675,31.281 39.675,31.6143 40.5,32.5C 38.9483,33.7979 37.9483,33.4646 37.5,31.5 Z"/></g>
<g><path style="opacity:1" fill="#f50d50" d="M 65.5,15.5 C 66.1667,15.5 66.8333,15.5 67.5,15.5C 67.8333,18.5 69.5,20.1667 72.5,20.5C 72.5,21.8333 72.5,23.1667 72.5,24.5C 73.8333,24.5 75.1667,24.5 76.5,24.5C 77.8654,26.5909 78.5321,28.9242 78.5,31.5C 80.1667,31.5 81.8333,31.5 83.5,31.5C 83.124,34.9229 84.4574,37.2562 87.5,38.5C 87.5,42.1667 87.5,45.8333 87.5,49.5C 85.2522,51.7478 82.9189,54.0811 80.5,56.5C 79.2638,57.2458 77.9305,57.5792 76.5,57.5C 74.165,58.8995 71.9983,60.5662 70,62.5C 68.0936,59.6436 68.927,57.977 72.5,57.5C 73.7136,54.7465 75.2136,52.0799 77,49.5C 77.7412,48.3595 78.5745,48.3595 79.5,49.5C 80.7112,48.7261 80.7112,47.8928 79.5,47C 80.1667,46.6667 80.8333,46.3333 81.5,46C 80.8095,44.9326 80.3095,43.7659 80,42.5C 79.7345,45.9844 78.2345,46.9844 75.5,45.5C 79.5,44.5 79.5,43.5 75.5,42.5C 76.3984,41.8423 77.3984,41.1757 78.5,40.5C 77.0482,38.3585 76.0482,36.0252 75.5,33.5C 75.0517,31.5354 74.0517,31.2021 72.5,32.5C 72.6236,33.1067 72.9569,33.44 73.5,33.5C 73.6107,34.1174 73.944,34.6174 74.5,35C 73.1279,35.4017 71.7946,35.9017 70.5,36.5C 69.1186,35.1186 67.7853,33.7853 66.5,32.5C 66.5,32.1667 66.5,31.8333 66.5,31.5C 64.7226,30.3995 62.7226,29.5662 60.5,29C 61.7375,28.7679 62.7375,28.2679 63.5,27.5C 64.5254,23.5726 65.1921,19.5726 65.5,15.5 Z"/></g>
<g><path style="opacity:1" fill="#ffecc4" d="M 75.5,33.5 C 74.8333,33.5 74.1667,33.5 73.5,33.5C 72.9569,33.44 72.6236,33.1067 72.5,32.5C 74.0517,31.2021 75.0517,31.5354 75.5,33.5 Z"/></g>
<g><path style="opacity:1" fill="#ffb747" d="M 69.5,26.5 C 71.337,26.6395 71.6704,27.3061 70.5,28.5C 69.7025,28.0431 69.3691,27.3764 69.5,26.5 Z"/></g>
<g><path style="opacity:1" fill="#f643ad" d="M 83.5,31.5 C 86.5426,32.7438 87.876,35.0771 87.5,38.5C 84.4574,37.2562 83.124,34.9229 83.5,31.5 Z"/></g>
<g><path style="opacity:1" fill="#2e3333" d="M 10.5,34.5 C 11.3543,35.6316 11.3543,36.965 10.5,38.5C 9.5,38.5 8.5,38.5 7.5,38.5C 5.51676,38.1568 4.18342,38.8235 3.5,40.5C 2.95691,40.56 2.62358,40.8933 2.5,41.5C 4.04533,42.4519 5.71199,42.7852 7.5,42.5C 10.8333,42.5 14.1667,42.5 17.5,42.5C 12.2683,43.2099 6.93493,43.8765 1.5,44.5C 1.06795,43.2905 0.40128,42.2905 -0.5,41.5C -0.5,40.1667 -0.5,38.8333 -0.5,37.5C 0.479345,36.2347 1.47934,34.9014 2.5,33.5C 3.19238,34.0253 3.69238,34.6919 4,35.5C 4.30762,34.6919 4.80762,34.0253 5.5,33.5C 6.81386,34.3128 7.98052,35.3128 9,36.5C 9.71719,35.9558 10.2172,35.2891 10.5,34.5 Z"/></g>
<g><path style="opacity:1" fill="#ffc6ae" d="M 49.5,36.5 C 51.337,36.6395 51.6704,37.3061 50.5,38.5C 49.7025,38.0431 49.3691,37.3764 49.5,36.5 Z"/></g>
<g><path style="opacity:1" fill="#4daa4f" d="M 7.5,38.5 C 7.5,39.1667 7.5,39.8333 7.5,40.5C 6.16667,40.5 4.83333,40.5 3.5,40.5C 4.18342,38.8235 5.51676,38.1568 7.5,38.5 Z"/></g>
<g><path style="opacity:1" fill="#a4da28" d="M 24.5,26.5 C 26.1667,26.5 27.8333,26.5 29.5,26.5C 29.6323,29.5701 29.299,32.5701 28.5,35.5C 26.7976,37.5368 24.7976,39.2034 22.5,40.5C 22.5,39.1667 21.8333,38.5 20.5,38.5C 20.5,37.5 20.5,36.5 20.5,35.5C 20.8844,33.0706 21.551,30.7373 22.5,28.5C 22.5,27.1667 23.1667,26.5 24.5,26.5 Z"/></g>
<g><path style="opacity:1" fill="#f2f9df" d="M 24.5,28.5 C 26.4646,28.9483 26.7979,29.9483 25.5,31.5C 24.6143,30.675 24.281,29.675 24.5,28.5 Z"/></g>
<g><path style="opacity:1" fill="#202e32" d="M 28.5,35.5 C 29.1667,35.5 29.8333,35.5 30.5,35.5C 30.0238,37.9931 28.6904,39.9931 26.5,41.5C 27.6888,42.4287 29.0222,42.762 30.5,42.5C 30.5,44.1667 30.5,45.8333 30.5,47.5C 33.7749,48.019 35.1083,50.019 34.5,53.5C 34.4146,55.3328 33.7479,56.6661 32.5,57.5C 32.5,54.8333 32.5,52.1667 32.5,49.5C 31.5,49.5 30.5,49.5 29.5,49.5C 30.1667,45.5 28.5,43.8333 24.5,44.5C 24.5,44.1667 24.5,43.8333 24.5,43.5C 23.4489,42.7777 22.7822,41.7777 22.5,40.5C 24.7976,39.2034 26.7976,37.5368 28.5,35.5 Z"/></g>
<g><path style="opacity:1" fill="#f0f0f0" d="M 3.5,40.5 C 4.83333,40.5 6.16667,40.5 7.5,40.5C 7.5,41.1667 7.5,41.8333 7.5,42.5C 5.71199,42.7852 4.04533,42.4519 2.5,41.5C 2.62358,40.8933 2.95691,40.56 3.5,40.5 Z"/></g>
<g><path style="opacity:1" fill="#9edf32" d="M 7.5,40.5 C 11.3293,39.931 14.6627,40.5977 17.5,42.5C 14.1667,42.5 10.8333,42.5 7.5,42.5C 7.5,41.8333 7.5,41.1667 7.5,40.5 Z"/></g>
<g><path style="opacity:1" fill="#170417" d="M 54.5,36.5 C 57.5,36.5 60.5,36.5 63.5,36.5C 63.5,37.1667 63.5,37.8333 63.5,38.5C 62.8333,38.5 62.1667,38.5 61.5,38.5C 60.3065,38.9704 59.6399,39.9704 59.5,41.5C 59.6399,43.0296 60.3065,44.0296 61.5,44.5C 62.1667,44.5 62.8333,44.5 63.5,44.5C 63.5,45.1667 63.5,45.8333 63.5,46.5C 60.5,46.5 57.5,46.5 54.5,46.5C 54.5,43.1667 54.5,39.8333 54.5,36.5 Z"/></g>
<g><path style="opacity:1" fill="#eb1265" d="M 61.5,38.5 C 61.5,40.5 61.5,42.5 61.5,44.5C 60.3065,44.0296 59.6399,43.0296 59.5,41.5C 59.6399,39.9704 60.3065,38.9704 61.5,38.5 Z"/></g>
<g><path style="opacity:1" fill="#ffbd97" d="M 61.5,38.5 C 62.1667,38.5 62.8333,38.5 63.5,38.5C 63.5,40.5 63.5,42.5 63.5,44.5C 62.8333,44.5 62.1667,44.5 61.5,44.5C 61.5,42.5 61.5,40.5 61.5,38.5 Z"/></g>
<g><path style="opacity:1" fill="#fef3c1" d="M 34.5,40.5 C 35.675,40.281 36.675,40.6143 37.5,41.5C 35.9483,42.7979 34.9483,42.4646 34.5,40.5 Z"/></g>
<g><path style="opacity:1" fill="#399c4d" d="M 20.5,38.5 C 21.8333,38.5 22.5,39.1667 22.5,40.5C 22.7822,41.7777 23.4489,42.7777 24.5,43.5C 23.1667,44.1667 21.8333,44.8333 20.5,45.5C 20.5,43.1667 20.5,40.8333 20.5,38.5 Z"/></g>
<g><path style="opacity:1" fill="#ffe7c8" d="M 49.5,42.5 C 51.337,42.6395 51.6704,43.3061 50.5,44.5C 49.7025,44.0431 49.3691,43.3764 49.5,42.5 Z"/></g>
<g><path style="opacity:1" fill="#732c3b" d="M 63.5,36.5 C 67.5,39.8333 67.5,43.1667 63.5,46.5C 63.5,45.8333 63.5,45.1667 63.5,44.5C 63.5,42.5 63.5,40.5 63.5,38.5C 63.5,37.8333 63.5,37.1667 63.5,36.5 Z"/></g>
<g><path style="opacity:1" fill="#ffddc7" d="M 83.5,42.5 C 84.3764,42.3691 85.0431,42.7025 85.5,43.5C 83.1916,44.8734 82.5249,44.5401 83.5,42.5 Z"/></g>
<g><path style="opacity:1" fill="#ff989b" d="M 75.5,42.5 C 79.5,43.5 79.5,44.5 75.5,45.5C 74.375,44.6522 74.375,43.6522 75.5,42.5 Z"/></g>
<g><path style="opacity:1" fill="#279455" d="M 24.5,44.5 C 28.5,43.8333 30.1667,45.5 29.5,49.5C 27.8333,47.8333 26.1667,46.1667 24.5,44.5 Z"/></g>
<g><path style="opacity:1" fill="#ffdebb" d="M 42.5,45.5 C 43.675,45.281 44.675,45.6143 45.5,46.5C 43.9483,47.7979 42.9483,47.4646 42.5,45.5 Z"/></g>
<g><path style="opacity:1" fill="#fdefbf" d="M 67.5,47.5 C 68.675,47.281 69.675,47.6143 70.5,48.5C 68.9483,49.7979 67.9483,49.4646 67.5,47.5 Z"/></g>
<g><path style="opacity:1" fill="#ffe5b9" d="M 37.5,49.5 C 38.675,49.281 39.675,49.6143 40.5,50.5C 38.9483,51.7979 37.9483,51.4646 37.5,49.5 Z"/></g>
<g><path style="opacity:1" fill="#128a52" d="M 29.5,49.5 C 30.5,49.5 31.5,49.5 32.5,49.5C 32.5,52.1667 32.5,54.8333 32.5,57.5C 31.5,57.5 30.5,57.5 29.5,57.5C 29.5,54.8333 29.5,52.1667 29.5,49.5 Z"/></g>
<g><path style="opacity:0.141" fill="#1e1d22" d="M 90.5,48.5 C 81.899,57.1068 73.5657,66.1068 65.5,75.5C 62.0936,77.4311 59.0936,79.7644 56.5,82.5C 50.1667,82.5 43.8333,82.5 37.5,82.5C 36.6935,81.2719 35.6935,80.2719 34.5,79.5C 35.3382,79.1583 35.6716,78.4916 35.5,77.5C 36.5,77.5 37.5,77.5 38.5,77.5C 38.5,78.5 38.5,79.5 38.5,80.5C 44.5,80.5 50.5,80.5 56.5,80.5C 56.5,79.5 56.5,78.5 56.5,77.5C 58.2821,76.2804 60.2821,75.6138 62.5,75.5C 62.5,74.5 62.5,73.5 62.5,72.5C 65.5,72.1667 67.1667,70.5 67.5,67.5C 69.143,67.5198 70.4763,66.8532 71.5,65.5C 73.6494,63.0421 75.3161,60.3754 76.5,57.5C 77.9305,57.5792 79.2638,57.2458 80.5,56.5C 82.9189,54.0811 85.2522,51.7478 87.5,49.5C 88.3261,44.6835 88.8261,39.6835 89,34.5C 89.1745,39.3514 89.6745,44.0181 90.5,48.5 Z"/></g>
<g><path style="opacity:1" fill="#ffc3a9" d="M 22.5,52.5 C 26.3734,52.334 27.0401,53.334 24.5,55.5C 22.9519,55.1788 22.2852,54.1788 22.5,52.5 Z"/></g>
<g><path style="opacity:1" fill="#1f101f" d="M 44.5,50.5 C 48.9707,49.9106 52.9707,50.5772 56.5,52.5C 54.712,52.2148 53.0453,52.5481 51.5,53.5C 53.5117,55.3414 55.845,56.3414 58.5,56.5C 59.1667,56.5 59.8333,56.5 60.5,56.5C 59.6244,60.354 58.2911,64.0207 56.5,67.5C 54.1033,68.368 51.6033,69.0347 49,69.5C 47.0145,69.4313 45.5145,68.7647 44.5,67.5C 42.5,66.8333 41.1667,65.5 40.5,63.5C 39.4634,61.2625 39.2967,58.9291 40,56.5C 41.7412,54.6044 43.2412,52.6044 44.5,50.5 Z"/></g>
<g><path style="opacity:1" fill="#238260" d="M 20.5,47.5 C 20.5,49.1667 20.5,50.8333 20.5,52.5C 20.5,55.8333 20.5,59.1667 20.5,62.5C 19.7281,63.6935 18.7281,64.6935 17.5,65.5C 18.6787,60.1717 18.6787,54.8384 17.5,49.5C 16.6143,50.325 16.281,51.325 16.5,52.5C 15.1667,52.5 13.8333,52.5 12.5,52.5C 13.5063,48.47 16.173,46.8033 20.5,47.5 Z"/></g>
<g><path style="opacity:1" fill="#aad633" d="M 24.5,43.5 C 24.5,43.8333 24.5,44.1667 24.5,44.5C 26.1667,46.1667 27.8333,47.8333 29.5,49.5C 29.5,52.1667 29.5,54.8333 29.5,57.5C 28.5,57.5 27.5,57.5 26.5,57.5C 26.5,56.1667 25.8333,55.5 24.5,55.5C 27.0401,53.334 26.3734,52.334 22.5,52.5C 21.8333,52.5 21.1667,52.5 20.5,52.5C 20.5,50.8333 20.5,49.1667 20.5,47.5C 20.5,46.8333 20.5,46.1667 20.5,45.5C 21.8333,44.8333 23.1667,44.1667 24.5,43.5 Z"/></g>
<g><path style="opacity:1" fill="#fffefd" d="M 22.5,47.5 C 24.337,47.6395 24.6704,48.3061 23.5,49.5C 22.7025,49.0431 22.3691,48.3764 22.5,47.5 Z"/></g>
<g><path style="opacity:1" fill="#d4f5f9" d="M 56.5,52.5 C 58.1765,53.1834 58.8432,54.5168 58.5,56.5C 55.845,56.3414 53.5117,55.3414 51.5,53.5C 53.0453,52.5481 54.712,52.2148 56.5,52.5 Z"/></g>
<g><path style="opacity:1" fill="#ffdcc7" d="M 69.5,54.5 C 70.3764,54.3691 71.0431,54.7025 71.5,55.5C 69.1916,56.8734 68.5249,56.5401 69.5,54.5 Z"/></g>
<g><path style="opacity:1" fill="#1a0919" d="M 20.5,52.5 C 21.1667,52.5 21.8333,52.5 22.5,52.5C 22.2852,54.1788 22.9519,55.1788 24.5,55.5C 24.5,56.1667 24.5,56.8333 24.5,57.5C 22.744,58.5521 22.0773,60.2188 22.5,62.5C 22.5,63.1667 22.5,63.8333 22.5,64.5C 21.1667,64.5 20.5,63.8333 20.5,62.5C 20.5,59.1667 20.5,55.8333 20.5,52.5 Z"/></g>
<g><path style="opacity:1" fill="#efecf4" d="M 24.5,55.5 C 25.8333,55.5 26.5,56.1667 26.5,57.5C 25.8333,57.5 25.1667,57.5 24.5,57.5C 24.5,56.8333 24.5,56.1667 24.5,55.5 Z"/></g>
<g><path style="opacity:1" fill="#e0dde1" d="M 44.5,67.5 C 44.0392,63.7878 43.3725,60.1211 42.5,56.5C 44.5,56.5 46.5,56.5 48.5,56.5C 49.4058,59.4359 50.0725,62.4359 50.5,65.5C 48.2821,65.6138 46.2821,66.2804 44.5,67.5 Z"/></g>
<g><path style="opacity:1" fill="#251621" d="M 24.5,57.5 C 25.1667,57.5 25.8333,57.5 26.5,57.5C 26.5,58.5 26.5,59.5 26.5,60.5C 24.9519,60.1788 24.2852,59.1788 24.5,57.5 Z"/></g>
<g><path style="opacity:1" fill="#eaeae4" d="M 26.5,57.5 C 27.5,57.5 28.5,57.5 29.5,57.5C 29.5,58.5 29.5,59.5 29.5,60.5C 28.5,60.5 27.5,60.5 26.5,60.5C 26.5,59.5 26.5,58.5 26.5,57.5 Z"/></g>
<g><path style="opacity:1" fill="#ffa7c0" d="M 62.5,72.5 C 61.1667,72.5 59.8333,72.5 58.5,72.5C 58.9227,70.2188 58.256,68.5521 56.5,67.5C 58.2911,64.0207 59.6244,60.354 60.5,56.5C 61.209,55.596 62.209,55.2627 63.5,55.5C 64.5254,59.4274 65.1921,63.4274 65.5,67.5C 64.5,67.5 63.5,67.5 62.5,67.5C 62.5,69.1667 62.5,70.8333 62.5,72.5 Z"/></g>
<g><path style="opacity:1" fill="#a3d72e" d="M 17.5,65.5 C 15.9891,66.5025 14.3224,67.1692 12.5,67.5C 12.9227,65.2188 12.256,63.5521 10.5,62.5C 9.93104,58.6707 10.5977,55.3373 12.5,52.5C 13.8333,52.5 15.1667,52.5 16.5,52.5C 16.281,51.325 16.6143,50.325 17.5,49.5C 18.6787,54.8384 18.6787,60.1717 17.5,65.5 Z"/></g>
<g><path style="opacity:1" fill="#fcfdf9" d="M 12.5,54.5 C 14.337,54.6395 14.6704,55.3061 13.5,56.5C 12.7025,56.0431 12.3691,55.3764 12.5,54.5 Z"/></g>
<g><path style="opacity:1" fill="#fb2167" d="M 24.5,57.5 C 24.2852,59.1788 24.9519,60.1788 26.5,60.5C 26.5,61.1667 26.5,61.8333 26.5,62.5C 25.1667,62.5 23.8333,62.5 22.5,62.5C 22.0773,60.2188 22.744,58.5521 24.5,57.5 Z"/></g>
<g><path style="opacity:1" fill="#210e1d" d="M 29.5,57.5 C 30.5,57.5 31.5,57.5 32.5,57.5C 32.2627,58.791 32.596,59.791 33.5,60.5C 33.5,61.8333 33.5,63.1667 33.5,64.5C 31.0706,64.1156 28.7373,63.449 26.5,62.5C 26.5,61.8333 26.5,61.1667 26.5,60.5C 27.5,60.5 28.5,60.5 29.5,60.5C 29.5,59.5 29.5,58.5 29.5,57.5 Z"/></g>
<g><path style="opacity:1" fill="#cbc7cd" d="M 52.5,61.5 C 54.6246,62.3676 54.7913,63.3676 53,64.5C 51.3167,63.8235 51.1501,62.8235 52.5,61.5 Z"/></g>
<g><path style="opacity:1" fill="#f9f0f2" d="M 22.5,62.5 C 23.8333,62.5 25.1667,62.5 26.5,62.5C 27.5025,64.0109 28.1692,65.6776 28.5,67.5C 27.8333,67.5 27.1667,67.5 26.5,67.5C 24.8784,66.8776 23.5451,65.8776 22.5,64.5C 22.5,63.8333 22.5,63.1667 22.5,62.5 Z"/></g>
<g><path style="opacity:1" fill="#fff0f2" d="M 34.5,75.5 C 34.7148,73.8212 34.0481,72.8212 32.5,72.5C 31.8333,72.5 31.1667,72.5 30.5,72.5C 30.1692,70.6776 29.5025,69.0109 28.5,67.5C 31.6201,67.8441 34.4534,67.1775 37,65.5C 39.1566,66.385 39.9899,68.0516 39.5,70.5C 44.8333,71.1667 44.8333,71.8333 39.5,72.5C 39.5,73.8333 39.5,75.1667 39.5,76.5C 37.7839,76.3713 36.1172,76.038 34.5,75.5 Z"/></g>
<g><path style="opacity:0.227" fill="#2c2f35" d="M 18.5,35.5 C 19.1667,35.5 19.8333,35.5 20.5,35.5C 20.5,36.5 20.5,37.5 20.5,38.5C 20.5,40.8333 20.5,43.1667 20.5,45.5C 20.5,46.1667 20.5,46.8333 20.5,47.5C 16.173,46.8033 13.5063,48.47 12.5,52.5C 10.5977,55.3373 9.93104,58.6707 10.5,62.5C 10.0773,64.7812 10.744,66.4479 12.5,67.5C 14.3224,67.1692 15.9891,66.5025 17.5,65.5C 18.7281,64.6935 19.7281,63.6935 20.5,62.5C 20.5,63.8333 21.1667,64.5 22.5,64.5C 23.5451,65.8776 24.8784,66.8776 26.5,67.5C 26.7377,70.0685 28.071,71.7352 30.5,72.5C 31.1667,72.5 31.8333,72.5 32.5,72.5C 32.2852,74.1788 32.9519,75.1788 34.5,75.5C 34.3284,76.4916 34.6618,77.1583 35.5,77.5C 35.6716,78.4916 35.3382,79.1583 34.5,79.5C 28.9282,76.7647 24.4282,72.7647 21,67.5C 20.1667,68.3333 19.3333,69.1667 18.5,70C 14.8484,70.4986 11.1817,70.6653 7.5,70.5C 7.33379,64.1579 7.50046,57.8246 8,51.5C 8.78451,49.714 9.95118,48.214 11.5,47C 8.16564,45.9156 4.83231,45.0823 1.5,44.5C 6.93493,43.8765 12.2683,43.2099 17.5,42.5C 14.6627,40.5977 11.3293,39.931 7.5,40.5C 7.5,39.8333 7.5,39.1667 7.5,38.5C 8.5,38.5 9.5,38.5 10.5,38.5C 13.4375,38.0233 16.1042,37.0233 18.5,35.5 Z"/></g>
<g><path style="opacity:1" fill="#f4fce0" d="M 10.5,62.5 C 12.256,63.5521 12.9227,65.2188 12.5,67.5C 10.744,66.4479 10.0773,64.7812 10.5,62.5 Z"/></g>
<g><path style="opacity:1" fill="#f1607a" d="M 26.5,67.5 C 27.1667,67.5 27.8333,67.5 28.5,67.5C 29.5025,69.0109 30.1692,70.6776 30.5,72.5C 28.071,71.7352 26.7377,70.0685 26.5,67.5 Z"/></g>
<g><path style="opacity:1" fill="#e72a5b" d="M 32.5,72.5 C 34.0481,72.8212 34.7148,73.8212 34.5,75.5C 32.9519,75.1788 32.2852,74.1788 32.5,72.5 Z"/></g>
<g><path style="opacity:1" fill="#fb2e65" d="M 33.5,60.5 C 36.0384,61.0427 38.3718,62.0427 40.5,63.5C 41.1667,65.5 42.5,66.8333 44.5,67.5C 45.5145,68.7647 47.0145,69.4313 49,69.5C 51.6033,69.0347 54.1033,68.368 56.5,67.5C 58.256,68.5521 58.9227,70.2188 58.5,72.5C 59.8333,72.5 61.1667,72.5 62.5,72.5C 62.5,73.5 62.5,74.5 62.5,75.5C 60.2821,75.6138 58.2821,76.2804 56.5,77.5C 50.643,79.9676 44.643,79.9676 38.5,77.5C 37.5,77.5 36.5,77.5 35.5,77.5C 34.6618,77.1583 34.3284,76.4916 34.5,75.5C 36.1172,76.038 37.7839,76.3713 39.5,76.5C 39.5,75.1667 39.5,73.8333 39.5,72.5C 44.8333,71.8333 44.8333,71.1667 39.5,70.5C 39.9899,68.0516 39.1566,66.385 37,65.5C 34.4534,67.1775 31.6201,67.8441 28.5,67.5C 28.1692,65.6776 27.5025,64.0109 26.5,62.5C 28.7373,63.449 31.0706,64.1156 33.5,64.5C 33.5,63.1667 33.5,61.8333 33.5,60.5 Z"/></g>
<g><path style="opacity:1" fill="#fdfbc7" d="M 49.5,72.5 C 51.337,72.6395 51.6704,73.3061 50.5,74.5C 49.7025,74.0431 49.3691,73.3764 49.5,72.5 Z"/></g>
<g><path style="opacity:1" fill="#ffe6c3" d="M 44.5,75.5 C 46.337,75.6395 46.6704,76.3061 45.5,77.5C 44.7025,77.0431 44.3691,76.3764 44.5,75.5 Z"/></g>
<g><path style="opacity:1" fill="#a1354c" d="M 38.5,77.5 C 44.643,79.9676 50.643,79.9676 56.5,77.5C 56.5,78.5 56.5,79.5 56.5,80.5C 50.5,80.5 44.5,80.5 38.5,80.5C 38.5,79.5 38.5,78.5 38.5,77.5 Z"/></g>
</svg>
